<?xml version="1.0" encoding="UTF-8" standalone="no"?>
<!DOCTYPE svg PUBLIC "-//W3C//DTD SVG 1.1//EN"
 "http://www.w3.org/Graphics/SVG/1.1/DTD/svg11.dtd">
<!-- Generated by graphviz version 2.40.1 (20161225.0304)
 -->
<!-- Title: src/qt/addressbookpage.h Pages: 1 -->
<svg width="773pt" height="82pt"
 viewBox="0.00 0.00 773.39 82.00" xmlns="http://www.w3.org/2000/svg" xmlns:xlink="http://www.w3.org/1999/xlink">
<g id="graph0" class="graph" transform="scale(1 1) rotate(0) translate(4 78)">
<title>src/qt/addressbookpage.h</title>
<polygon fill="#ffffff" stroke="transparent" points="-4,4 -4,-78 769.3936,-78 769.3936,4 -4,4"/>
<!-- Node2 -->
<g id="node1" class="node">
<title>Node2</title>
<polygon fill="#bfbfbf" stroke="#000000" points="321.2808,-55.5 321.2808,-73.5 452.354,-73.5 452.354,-55.5 321.2808,-55.5"/>
<text text-anchor="middle" x="386.8174" y="-61.5" font-family="Helvetica,sans-Serif" font-size="10.00" fill="#000000">src/qt/addressbookpage.h</text>
</g>
<!-- Node3 -->
<g id="node2" class="node">
<title>Node3</title>
<g id="a_node2"><a xlink:href="addressbookpage_8cpp.html" target="_top" xlink:title="src/qt/addressbookpage.cpp">
<polygon fill="#ffffff" stroke="#000000" points="0,-.5 0,-18.5 141.6348,-18.5 141.6348,-.5 0,-.5"/>
<text text-anchor="middle" x="70.8174" y="-6.5" font-family="Helvetica,sans-Serif" font-size="10.00" fill="#000000">src/qt/addressbookpage.cpp</text>
</a>
</g>
</g>
<!-- Node2&#45;&gt;Node3 -->
<g id="edge1" class="edge">
<title>Node2&#45;&gt;Node3</title>
<path fill="none" stroke="#191970" d="M325.0528,-53.7498C266.0525,-43.4808 178.1327,-28.1783 122.6728,-18.5255"/>
<polygon fill="#191970" stroke="#191970" points="324.5382,-57.2128 334.9903,-55.4795 325.7386,-50.3165 324.5382,-57.2128"/>
</g>
<!-- Node4 -->
<g id="node3" class="node">
<title>Node4</title>
<g id="a_node3"><a xlink:href="receivecoinsdialog_8cpp.html" target="_top" xlink:title="src/qt/receivecoinsdialog.cpp">
<polygon fill="#ffffff" stroke="#000000" points="159.6182,-.5 159.6182,-18.5 304.0166,-18.5 304.0166,-.5 159.6182,-.5"/>
<text text-anchor="middle" x="231.8174" y="-6.5" font-family="Helvetica,sans-Serif" font-size="10.00" fill="#000000">src/qt/receivecoinsdialog.cpp</text>
</a>
</g>
</g>
<!-- Node2&#45;&gt;Node4 -->
<g id="edge2" class="edge">
<title>Node2&#45;&gt;Node4</title>
<path fill="none" stroke="#191970" d="M351.559,-51.989C322.8046,-41.7858 282.879,-27.6186 257.1929,-18.5042"/>
<polygon fill="#191970" stroke="#191970" points="350.6275,-55.3722 361.2223,-55.4179 352.9685,-48.7752 350.6275,-55.3722"/>
</g>
<!-- Node5 -->
<g id="node4" class="node">
<title>Node5</title>
<g id="a_node4"><a xlink:href="sendcoinsentry_8cpp.html" target="_top" xlink:title="src/qt/sendcoinsentry.cpp">
<polygon fill="#ffffff" stroke="#000000" points="322.4917,-.5 322.4917,-18.5 451.1431,-18.5 451.1431,-.5 322.4917,-.5"/>
<text text-anchor="middle" x="386.8174" y="-6.5" font-family="Helvetica,sans-Serif" font-size="10.00" fill="#000000">src/qt/sendcoinsentry.cpp</text>
</a>
</g>
</g>
<!-- Node2&#45;&gt;Node5 -->
<g id="edge3" class="edge">
<title>Node2&#45;&gt;Node5</title>
<path fill="none" stroke="#191970" d="M386.8174,-45.383C386.8174,-36.3738 386.8174,-26.0373 386.8174,-18.7795"/>
<polygon fill="#191970" stroke="#191970" points="383.3175,-45.4178 386.8174,-55.4179 390.3175,-45.4179 383.3175,-45.4178"/>
</g>
<!-- Node6 -->
<g id="node5" class="node">
<title>Node6</title>
<g id="a_node5"><a xlink:href="signverifymessagedialog_8cpp.html" target="_top" xlink:title="src/qt/signverifymessagedialog.cpp">
<polygon fill="#ffffff" stroke="#000000" points="469.0024,-.5 469.0024,-18.5 640.6323,-18.5 640.6323,-.5 469.0024,-.5"/>
<text text-anchor="middle" x="554.8174" y="-6.5" font-family="Helvetica,sans-Serif" font-size="10.00" fill="#000000">src/qt/signverifymessagedialog.cpp</text>
</a>
</g>
</g>
<!-- Node2&#45;&gt;Node6 -->
<g id="edge4" class="edge">
<title>Node2&#45;&gt;Node6</title>
<path fill="none" stroke="#191970" d="M424.2191,-52.2554C455.4419,-42.0336 499.23,-27.6983 527.3136,-18.5042"/>
<polygon fill="#191970" stroke="#191970" points="422.9739,-48.9802 414.5592,-55.4179 425.1518,-55.6328 422.9739,-48.9802"/>
</g>
<!-- Node7 -->
<g id="node6" class="node">
<title>Node7</title>
<g id="a_node6"><a xlink:href="walletview_8cpp.html" target="_top" xlink:title="src/qt/walletview.cpp">
<polygon fill="#ffffff" stroke="#000000" points="658.2412,-.5 658.2412,-18.5 765.3936,-18.5 765.3936,-.5 658.2412,-.5"/>
<text text-anchor="middle" x="711.8174" y="-6.5" font-family="Helvetica,sans-Serif" font-size="10.00" fill="#000000">src/qt/walletview.cpp</text>
</a>
</g>
</g>
<!-- Node2&#45;&gt;Node7 -->
<g id="edge5" class="edge">
<title>Node2&#45;&gt;Node7</title>
<path fill="none" stroke="#191970" d="M450.3411,-53.7498C511.0218,-43.4808 601.4456,-28.1783 658.4851,-18.5255"/>
<polygon fill="#191970" stroke="#191970" points="449.3964,-50.3599 440.1206,-55.4795 450.5644,-57.2617 449.3964,-50.3599"/>
</g>
</g>
</svg>
