<?xml version="1.0" encoding="UTF-8" standalone="no"?>
<!DOCTYPE svg PUBLIC "-//W3C//DTD SVG 1.1//EN"
 "http://www.w3.org/Graphics/SVG/1.1/DTD/svg11.dtd">
<!-- Generated by graphviz version 2.40.1 (20161225.0304)
 -->
<!-- Title: src/addrman.h Pages: 1 -->
<svg width="3695pt" height="302pt"
 viewBox="0.00 0.00 3695.16 302.00" xmlns="http://www.w3.org/2000/svg" xmlns:xlink="http://www.w3.org/1999/xlink">
<g id="graph0" class="graph" transform="scale(1 1) rotate(0) translate(4 298)">
<title>src/addrman.h</title>
<polygon fill="#ffffff" stroke="transparent" points="-4,4 -4,-298 3691.1572,-298 3691.1572,4 -4,4"/>
<!-- Node70 -->
<g id="node1" class="node">
<title>Node70</title>
<polygon fill="#bfbfbf" stroke="#000000" points="551.1157,-275.5 551.1157,-293.5 631.0317,-293.5 631.0317,-275.5 551.1157,-275.5"/>
<text text-anchor="middle" x="591.0737" y="-281.5" font-family="Helvetica,sans-Serif" font-size="10.00" fill="#000000">src/addrman.h</text>
</g>
<!-- Node71 -->
<g id="node2" class="node">
<title>Node71</title>
<g id="a_node2"><a xlink:href="addrdb_8cpp.html" target="_top" xlink:title="src/addrdb.cpp">
<polygon fill="#ffffff" stroke="#000000" points="0,-220.5 0,-238.5 82.1475,-238.5 82.1475,-220.5 0,-220.5"/>
<text text-anchor="middle" x="41.0737" y="-226.5" font-family="Helvetica,sans-Serif" font-size="10.00" fill="#000000">src/addrdb.cpp</text>
</a>
</g>
</g>
<!-- Node70&#45;&gt;Node71 -->
<g id="edge1" class="edge">
<title>Node70&#45;&gt;Node71</title>
<path fill="none" stroke="#191970" d="M540.8384,-281.547C450.5206,-275.878 254.856,-261.9562 91.0737,-239 88.1861,-238.5953 85.2121,-238.137 82.222,-237.6458"/>
<polygon fill="#191970" stroke="#191970" points="540.8649,-285.0553 551.0625,-282.1816 541.2986,-278.0687 540.8649,-285.0553"/>
</g>
<!-- Node72 -->
<g id="node3" class="node">
<title>Node72</title>
<g id="a_node3"><a xlink:href="addrman_8cpp.html" target="_top" xlink:title="src/addrman.cpp">
<polygon fill="#ffffff" stroke="#000000" points="99.835,-220.5 99.835,-238.5 190.3125,-238.5 190.3125,-220.5 99.835,-220.5"/>
<text text-anchor="middle" x="145.0737" y="-226.5" font-family="Helvetica,sans-Serif" font-size="10.00" fill="#000000">src/addrman.cpp</text>
</a>
</g>
</g>
<!-- Node70&#45;&gt;Node72 -->
<g id="edge2" class="edge">
<title>Node70&#45;&gt;Node72</title>
<path fill="none" stroke="#191970" d="M540.9297,-279.2947C467.0621,-271.4704 324.7024,-255.7951 204.0737,-239 199.6551,-238.3848 195.0563,-237.7082 190.4624,-237.0083"/>
<polygon fill="#191970" stroke="#191970" points="540.5766,-282.7768 550.8888,-280.346 541.3115,-275.8155 540.5766,-282.7768"/>
</g>
<!-- Node73 -->
<g id="node4" class="node">
<title>Node73</title>
<g id="a_node4"><a xlink:href="init_8cpp.html" target="_top" xlink:title="src/init.cpp">
<polygon fill="#ffffff" stroke="#000000" points="556.1772,-110.5 556.1772,-128.5 619.9702,-128.5 619.9702,-110.5 556.1772,-110.5"/>
<text text-anchor="middle" x="588.0737" y="-116.5" font-family="Helvetica,sans-Serif" font-size="10.00" fill="#000000">src/init.cpp</text>
</a>
</g>
</g>
<!-- Node70&#45;&gt;Node73 -->
<g id="edge3" class="edge">
<title>Node70&#45;&gt;Node73</title>
<path fill="none" stroke="#191970" d="M540.6702,-282.5473C433.4315,-276.6575 198.4761,-253.5376 275.0737,-165 293.3292,-143.899 479.8962,-127.6232 556.0072,-121.8117"/>
<polygon fill="#191970" stroke="#191970" points="540.7742,-286.0573 550.9422,-283.0801 541.1369,-279.0667 540.7742,-286.0573"/>
</g>
<!-- Node74 -->
<g id="node5" class="node">
<title>Node74</title>
<g id="a_node5"><a xlink:href="net_8h.html" target="_top" xlink:title="src/net.h">
<polygon fill="#ffffff" stroke="#000000" points="937.8989,-220.5 937.8989,-238.5 992.2485,-238.5 992.2485,-220.5 937.8989,-220.5"/>
<text text-anchor="middle" x="965.0737" y="-226.5" font-family="Helvetica,sans-Serif" font-size="10.00" fill="#000000">src/net.h</text>
</a>
</g>
</g>
<!-- Node70&#45;&gt;Node74 -->
<g id="edge4" class="edge">
<title>Node70&#45;&gt;Node74</title>
<path fill="none" stroke="#191970" d="M641.4367,-277.0937C721.6153,-265.3027 875.5784,-242.6611 937.8942,-233.497"/>
<polygon fill="#191970" stroke="#191970" points="640.4826,-273.6963 631.0983,-278.614 641.5011,-280.6218 640.4826,-273.6963"/>
</g>
<!-- Node103 -->
<g id="node34" class="node">
<title>Node103</title>
<g id="a_node34"><a xlink:href="net__processing_8cpp.html" target="_top" xlink:title="src/net_processing.cpp">
<polygon fill="#ffffff" stroke="#000000" points="1915.6577,-110.5 1915.6577,-128.5 2034.4897,-128.5 2034.4897,-110.5 1915.6577,-110.5"/>
<text text-anchor="middle" x="1975.0737" y="-116.5" font-family="Helvetica,sans-Serif" font-size="10.00" fill="#000000">src/net_processing.cpp</text>
</a>
</g>
</g>
<!-- Node70&#45;&gt;Node103 -->
<g id="edge64" class="edge">
<title>Node70&#45;&gt;Node103</title>
<path fill="none" stroke="#191970" d="M641.3784,-282.9297C892.0391,-274.8672 1996.1153,-236.4592 2045.0737,-184 2064.6923,-162.9786 2025.3036,-140.7358 1998.0574,-128.6433"/>
<polygon fill="#191970" stroke="#191970" points="640.9941,-279.4401 631.1112,-283.2583 641.218,-286.4365 640.9941,-279.4401"/>
</g>
<!-- Node117 -->
<g id="node48" class="node">
<title>Node117</title>
<g id="a_node48"><a xlink:href="db_8cpp.html" target="_top" xlink:title="src/wallet/db.cpp">
<polygon fill="#ffffff" stroke="#000000" points="2205.835,-220.5 2205.835,-238.5 2296.3125,-238.5 2296.3125,-220.5 2205.835,-220.5"/>
<text text-anchor="middle" x="2251.0737" y="-226.5" font-family="Helvetica,sans-Serif" font-size="10.00" fill="#000000">src/wallet/db.cpp</text>
</a>
</g>
</g>
<!-- Node70&#45;&gt;Node117 -->
<g id="edge65" class="edge">
<title>Node70&#45;&gt;Node117</title>
<path fill="none" stroke="#191970" d="M641.2455,-283.9619C877.4564,-281.2926 1880.252,-268.4071 2192.0737,-239 2196.5153,-238.5811 2201.1293,-238.0349 2205.7326,-237.416"/>
<polygon fill="#191970" stroke="#191970" points="641.184,-280.4623 631.2239,-284.0742 641.2625,-287.4618 641.184,-280.4623"/>
</g>
<!-- Node74&#45;&gt;Node73 -->
<g id="edge5" class="edge">
<title>Node74&#45;&gt;Node73</title>
<path fill="none" stroke="#191970" d="M927.655,-228.0489C851.7719,-224.5182 682.8409,-213.4945 634.0737,-184 612.4189,-170.9031 598.1292,-143.3122 591.8042,-128.8283"/>
<polygon fill="#191970" stroke="#191970" points="927.5765,-231.5488 937.7227,-228.4985 927.8889,-224.5558 927.5765,-231.5488"/>
</g>
<!-- Node75 -->
<g id="node6" class="node">
<title>Node75</title>
<g id="a_node6"><a xlink:href="node_8cpp.html" target="_top" xlink:title="src/interfaces/node.cpp">
<polygon fill="#ffffff" stroke="#000000" points="1085.3794,-55.5 1085.3794,-73.5 1204.7681,-73.5 1204.7681,-55.5 1085.3794,-55.5"/>
<text text-anchor="middle" x="1145.0737" y="-61.5" font-family="Helvetica,sans-Serif" font-size="10.00" fill="#000000">src/interfaces/node.cpp</text>
</a>
</g>
</g>
<!-- Node74&#45;&gt;Node75 -->
<g id="edge6" class="edge">
<title>Node74&#45;&gt;Node75</title>
<path fill="none" stroke="#191970" d="M1002.4703,-229.3586C1188.6634,-228.4757 2008.246,-222.4119 2045.0737,-184 2056.0968,-172.5027 2072.0302,-139.1599 2043.0737,-110 2010.552,-77.2499 1259.0369,-78.1978 1213.0737,-74 1210.4622,-73.7615 1207.7972,-73.4938 1205.1075,-73.2037"/>
<polygon fill="#191970" stroke="#191970" points="1002.3373,-225.8591 992.3532,-229.4044 1002.369,-232.859 1002.3373,-225.8591"/>
</g>
<!-- Node76 -->
<g id="node7" class="node">
<title>Node76</title>
<g id="a_node7"><a xlink:href="node_8h.html" target="_top" xlink:title="src/interfaces/node.h">
<polygon fill="#ffffff" stroke="#000000" points="2157.6602,-110.5 2157.6602,-128.5 2266.4873,-128.5 2266.4873,-110.5 2157.6602,-110.5"/>
<text text-anchor="middle" x="2212.0737" y="-116.5" font-family="Helvetica,sans-Serif" font-size="10.00" fill="#000000">src/interfaces/node.h</text>
</a>
</g>
</g>
<!-- Node74&#45;&gt;Node76 -->
<g id="edge7" class="edge">
<title>Node74&#45;&gt;Node76</title>
<path fill="none" stroke="#191970" d="M1002.5625,-229.2311C1188.6327,-227.7342 2008.3187,-219.1781 2116.0737,-184 2151.5769,-172.4095 2186.1672,-143.6124 2202.4294,-128.7305"/>
<polygon fill="#191970" stroke="#191970" points="1002.4245,-225.732 992.4523,-229.3105 1002.4795,-232.7318 1002.4245,-225.732"/>
</g>
<!-- Node81 -->
<g id="node12" class="node">
<title>Node81</title>
<g id="a_node12"><a xlink:href="clientmodel_8cpp.html" target="_top" xlink:title="src/qt/clientmodel.cpp">
<polygon fill="#ffffff" stroke="#000000" points="621.7192,-55.5 621.7192,-73.5 734.4282,-73.5 734.4282,-55.5 621.7192,-55.5"/>
<text text-anchor="middle" x="678.0737" y="-61.5" font-family="Helvetica,sans-Serif" font-size="10.00" fill="#000000">src/qt/clientmodel.cpp</text>
</a>
</g>
</g>
<!-- Node74&#45;&gt;Node81 -->
<g id="edge51" class="edge">
<title>Node74&#45;&gt;Node81</title>
<path fill="none" stroke="#191970" d="M927.8247,-225.258C868.9014,-218.0953 757.2624,-202.555 722.0737,-184 691.4948,-167.8757 680.303,-160.9382 667.0737,-129 659.3358,-110.3191 667.6765,-86.4332 673.4774,-73.6119"/>
<polygon fill="#191970" stroke="#191970" points="927.4952,-228.7434 937.8402,-226.4564 928.3269,-221.793 927.4952,-228.7434"/>
</g>
<!-- Node86 -->
<g id="node17" class="node">
<title>Node86</title>
<g id="a_node17"><a xlink:href="optionsmodel_8cpp.html" target="_top" xlink:title="src/qt/optionsmodel.cpp">
<polygon fill="#ffffff" stroke="#000000" points="1222.2686,-55.5 1222.2686,-73.5 1343.8789,-73.5 1343.8789,-55.5 1222.2686,-55.5"/>
<text text-anchor="middle" x="1283.0737" y="-61.5" font-family="Helvetica,sans-Serif" font-size="10.00" fill="#000000">src/qt/optionsmodel.cpp</text>
</a>
</g>
</g>
<!-- Node74&#45;&gt;Node86 -->
<g id="edge52" class="edge">
<title>Node74&#45;&gt;Node86</title>
<path fill="none" stroke="#191970" d="M1002.5495,-229.3881C1190.995,-228.6461 2027.5097,-223.15 2065.0737,-184 2075.7076,-172.9172 2093.3741,-140.2657 2064.0737,-110 2036.5641,-81.584 1392.4544,-77.6627 1353.0737,-74 1350.143,-73.7274 1347.1465,-73.4225 1344.1224,-73.0936"/>
<polygon fill="#191970" stroke="#191970" points="1002.305,-225.8889 992.3181,-229.4262 1002.3311,-232.8889 1002.305,-225.8889"/>
</g>
<!-- Node99 -->
<g id="node30" class="node">
<title>Node99</title>
<g id="a_node30"><a xlink:href="interfaces_2wallet_8cpp.html" target="_top" xlink:title="src/interfaces/wallet.cpp">
<polygon fill="#ffffff" stroke="#000000" points="283.7192,-165.5 283.7192,-183.5 406.4282,-183.5 406.4282,-165.5 283.7192,-165.5"/>
<text text-anchor="middle" x="345.0737" y="-171.5" font-family="Helvetica,sans-Serif" font-size="10.00" fill="#000000">src/interfaces/wallet.cpp</text>
</a>
</g>
</g>
<!-- Node74&#45;&gt;Node99 -->
<g id="edge31" class="edge">
<title>Node74&#45;&gt;Node99</title>
<path fill="none" stroke="#191970" d="M927.7128,-227.0869C838.7675,-221.1942 607.5073,-205.0032 415.0737,-184 412.2696,-183.6939 409.4043,-183.3662 406.5115,-183.0231"/>
<polygon fill="#191970" stroke="#191970" points="927.6337,-230.5892 937.8421,-227.7541 928.0938,-223.6043 927.6337,-230.5892"/>
</g>
<!-- Node100 -->
<g id="node31" class="node">
<title>Node100</title>
<g id="a_node31"><a xlink:href="miner_8cpp.html" target="_top" xlink:title="src/miner.cpp">
<polygon fill="#ffffff" stroke="#000000" points="424.3398,-165.5 424.3398,-183.5 499.8076,-183.5 499.8076,-165.5 424.3398,-165.5"/>
<text text-anchor="middle" x="462.0737" y="-171.5" font-family="Helvetica,sans-Serif" font-size="10.00" fill="#000000">src/miner.cpp</text>
</a>
</g>
</g>
<!-- Node74&#45;&gt;Node100 -->
<g id="edge32" class="edge">
<title>Node74&#45;&gt;Node100</title>
<path fill="none" stroke="#191970" d="M927.4019,-227.0219C849.1614,-221.5938 663.4841,-207.2494 509.0737,-184 506.1102,-183.5538 503.0508,-183.0452 499.9809,-182.5006"/>
<polygon fill="#191970" stroke="#191970" points="927.4985,-230.5366 937.7145,-227.7286 927.9772,-223.553 927.4985,-230.5366"/>
</g>
<!-- Node101 -->
<g id="node32" class="node">
<title>Node101</title>
<g id="a_node32"><a xlink:href="net_8cpp.html" target="_top" xlink:title="src/net.cpp">
<polygon fill="#ffffff" stroke="#000000" points="517.6182,-165.5 517.6182,-183.5 582.5293,-183.5 582.5293,-165.5 517.6182,-165.5"/>
<text text-anchor="middle" x="550.0737" y="-171.5" font-family="Helvetica,sans-Serif" font-size="10.00" fill="#000000">src/net.cpp</text>
</a>
</g>
</g>
<!-- Node74&#45;&gt;Node101 -->
<g id="edge33" class="edge">
<title>Node74&#45;&gt;Node101</title>
<path fill="none" stroke="#191970" d="M927.6054,-225.893C860.7708,-219.2337 716.6835,-203.8568 596.0737,-184 591.7287,-183.2847 587.17,-182.4484 582.6811,-181.5741"/>
<polygon fill="#191970" stroke="#191970" points="927.3574,-229.3855 937.6533,-226.8863 928.0461,-222.4194 927.3574,-229.3855"/>
</g>
<!-- Node102 -->
<g id="node33" class="node">
<title>Node102</title>
<g id="a_node33"><a xlink:href="net__processing_8h.html" target="_top" xlink:title="src/net_processing.h">
<polygon fill="#ffffff" stroke="#000000" points="751.9385,-165.5 751.9385,-183.5 860.209,-183.5 860.209,-165.5 751.9385,-165.5"/>
<text text-anchor="middle" x="806.0737" y="-171.5" font-family="Helvetica,sans-Serif" font-size="10.00" fill="#000000">src/net_processing.h</text>
</a>
</g>
</g>
<!-- Node74&#45;&gt;Node102 -->
<g id="edge34" class="edge">
<title>Node74&#45;&gt;Node102</title>
<path fill="none" stroke="#191970" d="M929.2912,-217.1224C899.767,-206.9096 858.5682,-192.6584 832.1041,-183.5042"/>
<polygon fill="#191970" stroke="#191970" points="928.2233,-220.4564 938.8181,-220.4179 930.5117,-213.841 928.2233,-220.4564"/>
</g>
<!-- Node104 -->
<g id="node35" class="node">
<title>Node104</title>
<g id="a_node35"><a xlink:href="peertablemodel_8h.html" target="_top" xlink:title="src/qt/peertablemodel.h">
<polygon fill="#ffffff" stroke="#000000" points="675.8228,-110.5 675.8228,-128.5 796.3247,-128.5 796.3247,-110.5 675.8228,-110.5"/>
<text text-anchor="middle" x="736.0737" y="-116.5" font-family="Helvetica,sans-Serif" font-size="10.00" fill="#000000">src/qt/peertablemodel.h</text>
</a>
</g>
</g>
<!-- Node74&#45;&gt;Node104 -->
<g id="edge53" class="edge">
<title>Node74&#45;&gt;Node104</title>
<path fill="none" stroke="#191970" d="M927.8109,-227.7566C868.6201,-224.12 757.3087,-213.4497 733.0737,-184 720.1095,-168.2463 727.0951,-142.292 732.2169,-128.6035"/>
<polygon fill="#191970" stroke="#191970" points="927.6936,-231.2556 937.8788,-228.3382 928.0973,-224.2672 927.6936,-231.2556"/>
</g>
<!-- Node105 -->
<g id="node36" class="node">
<title>Node105</title>
<g id="a_node36"><a xlink:href="rpcconsole_8h.html" target="_top" xlink:title="src/qt/rpcconsole.h">
<polygon fill="#ffffff" stroke="#000000" points="504.1108,-55.5 504.1108,-73.5 604.0366,-73.5 604.0366,-55.5 504.1108,-55.5"/>
<text text-anchor="middle" x="554.0737" y="-61.5" font-family="Helvetica,sans-Serif" font-size="10.00" fill="#000000">src/qt/rpcconsole.h</text>
</a>
</g>
</g>
<!-- Node74&#45;&gt;Node105 -->
<g id="edge54" class="edge">
<title>Node74&#45;&gt;Node105</title>
<path fill="none" stroke="#191970" d="M927.4908,-228.4293C786.7209,-224.2394 297.5391,-207.9956 275.0737,-184 204.3977,-108.5099 406.0445,-78.534 504.0227,-68.6536"/>
<polygon fill="#191970" stroke="#191970" points="927.6702,-231.936 937.769,-228.7322 927.8764,-224.9391 927.6702,-231.936"/>
</g>
<!-- Node106 -->
<g id="node37" class="node">
<title>Node106</title>
<g id="a_node37"><a xlink:href="rpc_2net_8cpp.html" target="_top" xlink:title="src/rpc/net.cpp">
<polygon fill="#ffffff" stroke="#000000" points="988.2832,-110.5 988.2832,-128.5 1069.8643,-128.5 1069.8643,-110.5 988.2832,-110.5"/>
<text text-anchor="middle" x="1029.0737" y="-116.5" font-family="Helvetica,sans-Serif" font-size="10.00" fill="#000000">src/rpc/net.cpp</text>
</a>
</g>
</g>
<!-- Node74&#45;&gt;Node106 -->
<g id="edge57" class="edge">
<title>Node74&#45;&gt;Node106</title>
<path fill="none" stroke="#191970" d="M937.1372,-215.2009C916.5245,-202.6869 894.1303,-183.6415 907.0737,-165 917.0334,-150.6558 959.4076,-137.053 991.4434,-128.5213"/>
<polygon fill="#191970" stroke="#191970" points="935.6336,-218.373 946.0509,-220.3048 939.112,-212.2984 935.6336,-218.373"/>
</g>
<!-- Node107 -->
<g id="node38" class="node">
<title>Node107</title>
<g id="a_node38"><a xlink:href="netmessagemaker_8h.html" target="_top" xlink:title="src/netmessagemaker.h">
<polygon fill="#ffffff" stroke="#000000" points="1913.9927,-165.5 1913.9927,-183.5 2036.1548,-183.5 2036.1548,-165.5 1913.9927,-165.5"/>
<text text-anchor="middle" x="1975.0737" y="-171.5" font-family="Helvetica,sans-Serif" font-size="10.00" fill="#000000">src/netmessagemaker.h</text>
</a>
</g>
</g>
<!-- Node74&#45;&gt;Node107 -->
<g id="edge45" class="edge">
<title>Node74&#45;&gt;Node107</title>
<path fill="none" stroke="#191970" d="M1002.7519,-228.8182C1129.8871,-226.2737 1554.6364,-215.7866 1904.0737,-184 1907.2939,-183.7071 1910.5923,-183.3757 1913.9198,-183.0166"/>
<polygon fill="#191970" stroke="#191970" points="1002.3328,-225.3256 992.4033,-229.0208 1002.4699,-232.3243 1002.3328,-225.3256"/>
</g>
<!-- Node108 -->
<g id="node39" class="node">
<title>Node108</title>
<g id="a_node39"><a xlink:href="bantablemodel_8h.html" target="_top" xlink:title="src/qt/bantablemodel.h">
<polygon fill="#ffffff" stroke="#000000" points="814.4878,-110.5 814.4878,-128.5 931.6597,-128.5 931.6597,-110.5 814.4878,-110.5"/>
<text text-anchor="middle" x="873.0737" y="-116.5" font-family="Helvetica,sans-Serif" font-size="10.00" fill="#000000">src/qt/bantablemodel.h</text>
</a>
</g>
</g>
<!-- Node74&#45;&gt;Node108 -->
<g id="edge47" class="edge">
<title>Node74&#45;&gt;Node108</title>
<path fill="none" stroke="#191970" d="M927.7414,-227.3856C870.6808,-223.2867 765.9601,-212.0528 743.0737,-184 718.8651,-154.3264 769.2343,-137.1515 814.1546,-128.0941"/>
<polygon fill="#191970" stroke="#191970" points="927.5963,-230.8837 937.8108,-228.0703 928.0713,-223.8998 927.5963,-230.8837"/>
</g>
<!-- Node109 -->
<g id="node40" class="node">
<title>Node109</title>
<g id="a_node40"><a xlink:href="mining_8cpp.html" target="_top" xlink:title="src/rpc/mining.cpp">
<polygon fill="#ffffff" stroke="#000000" points="916.5049,-165.5 916.5049,-183.5 1013.6426,-183.5 1013.6426,-165.5 916.5049,-165.5"/>
<text text-anchor="middle" x="965.0737" y="-171.5" font-family="Helvetica,sans-Serif" font-size="10.00" fill="#000000">src/rpc/mining.cpp</text>
</a>
</g>
</g>
<!-- Node74&#45;&gt;Node109 -->
<g id="edge55" class="edge">
<title>Node74&#45;&gt;Node109</title>
<path fill="none" stroke="#191970" d="M965.0737,-210.383C965.0737,-201.3738 965.0737,-191.0373 965.0737,-183.7795"/>
<polygon fill="#191970" stroke="#191970" points="961.5738,-210.4178 965.0737,-220.4179 968.5738,-210.4179 961.5738,-210.4178"/>
</g>
<!-- Node110 -->
<g id="node41" class="node">
<title>Node110</title>
<g id="a_node41"><a xlink:href="misc_8cpp.html" target="_top" xlink:title="src/rpc/misc.cpp">
<polygon fill="#ffffff" stroke="#000000" points="1031.958,-165.5 1031.958,-183.5 1120.1895,-183.5 1120.1895,-165.5 1031.958,-165.5"/>
<text text-anchor="middle" x="1076.0737" y="-171.5" font-family="Helvetica,sans-Serif" font-size="10.00" fill="#000000">src/rpc/misc.cpp</text>
</a>
</g>
</g>
<!-- Node74&#45;&gt;Node110 -->
<g id="edge56" class="edge">
<title>Node74&#45;&gt;Node110</title>
<path fill="none" stroke="#191970" d="M992.481,-215.9198C1012.8041,-205.8498 1039.9528,-192.3977 1057.7171,-183.5956"/>
<polygon fill="#191970" stroke="#191970" points="990.8095,-212.8419 983.4031,-220.4179 993.9174,-219.1141 990.8095,-212.8419"/>
</g>
<!-- Node111 -->
<g id="node42" class="node">
<title>Node111</title>
<g id="a_node42"><a xlink:href="rawtransaction_8cpp.html" target="_top" xlink:title="src/rpc/rawtransaction.cpp">
<polygon fill="#ffffff" stroke="#000000" points="1137.7192,-165.5 1137.7192,-183.5 1270.4282,-183.5 1270.4282,-165.5 1137.7192,-165.5"/>
<text text-anchor="middle" x="1204.0737" y="-171.5" font-family="Helvetica,sans-Serif" font-size="10.00" fill="#000000">src/rpc/rawtransaction.cpp</text>
</a>
</g>
</g>
<!-- Node74&#45;&gt;Node111 -->
<g id="edge58" class="edge">
<title>Node74&#45;&gt;Node111</title>
<path fill="none" stroke="#191970" d="M1002.2457,-220.9458C1046.3795,-210.7895 1119.6638,-193.9249 1164.7291,-183.5542"/>
<polygon fill="#191970" stroke="#191970" points="1001.4504,-217.5372 992.4901,-223.1908 1003.0203,-224.3589 1001.4504,-217.5372"/>
</g>
<!-- Node112 -->
<g id="node43" class="node">
<title>Node112</title>
<g id="a_node43"><a xlink:href="torcontrol_8cpp.html" target="_top" xlink:title="src/torcontrol.cpp">
<polygon fill="#ffffff" stroke="#000000" points="1288.7266,-165.5 1288.7266,-183.5 1381.4209,-183.5 1381.4209,-165.5 1288.7266,-165.5"/>
<text text-anchor="middle" x="1335.0737" y="-171.5" font-family="Helvetica,sans-Serif" font-size="10.00" fill="#000000">src/torcontrol.cpp</text>
</a>
</g>
</g>
<!-- Node74&#45;&gt;Node112 -->
<g id="edge59" class="edge">
<title>Node74&#45;&gt;Node112</title>
<path fill="none" stroke="#191970" d="M1002.3522,-224.3949C1061.2065,-216.2683 1179.232,-199.7001 1279.0737,-184 1282.191,-183.5098 1285.4039,-182.9937 1288.6399,-182.4659"/>
<polygon fill="#191970" stroke="#191970" points="1001.8363,-220.9328 992.4078,-225.7654 1002.792,-227.8673 1001.8363,-220.9328"/>
</g>
<!-- Node113 -->
<g id="node44" class="node">
<title>Node113</title>
<g id="a_node44"><a xlink:href="feebumper_8cpp.html" target="_top" xlink:title="src/wallet/feebumper.cpp">
<polygon fill="#ffffff" stroke="#000000" points="1399.7661,-165.5 1399.7661,-183.5 1526.3813,-183.5 1526.3813,-165.5 1399.7661,-165.5"/>
<text text-anchor="middle" x="1463.0737" y="-171.5" font-family="Helvetica,sans-Serif" font-size="10.00" fill="#000000">src/wallet/feebumper.cpp</text>
</a>
</g>
</g>
<!-- Node74&#45;&gt;Node113 -->
<g id="edge60" class="edge">
<title>Node74&#45;&gt;Node113</title>
<path fill="none" stroke="#191970" d="M1002.6731,-225.7648C1076.8278,-218.334 1247.1438,-200.949 1390.0737,-184 1393.1197,-183.6388 1396.2362,-183.2618 1399.3831,-182.8752"/>
<polygon fill="#191970" stroke="#191970" points="1002.0468,-222.3099 992.4447,-226.7877 1002.7434,-229.2752 1002.0468,-222.3099"/>
</g>
<!-- Node114 -->
<g id="node45" class="node">
<title>Node114</title>
<g id="a_node45"><a xlink:href="wallet_2init_8cpp.html" target="_top" xlink:title="src/wallet/init.cpp">
<polygon fill="#ffffff" stroke="#000000" points="1544.0049,-165.5 1544.0049,-183.5 1636.1426,-183.5 1636.1426,-165.5 1544.0049,-165.5"/>
<text text-anchor="middle" x="1590.0737" y="-171.5" font-family="Helvetica,sans-Serif" font-size="10.00" fill="#000000">src/wallet/init.cpp</text>
</a>
</g>
</g>
<!-- Node74&#45;&gt;Node114 -->
<g id="edge61" class="edge">
<title>Node74&#45;&gt;Node114</title>
<path fill="none" stroke="#191970" d="M1002.5905,-227.694C1093.9549,-223.0375 1335.166,-209.19 1535.0737,-184 1537.9579,-183.6366 1540.9214,-183.2279 1543.9061,-182.7895"/>
<polygon fill="#191970" stroke="#191970" points="1002.2661,-224.2058 992.4546,-228.204 1002.6179,-231.197 1002.2661,-224.2058"/>
</g>
<!-- Node115 -->
<g id="node46" class="node">
<title>Node115</title>
<g id="a_node46"><a xlink:href="rpcwallet_8cpp.html" target="_top" xlink:title="src/wallet/rpcwallet.cpp">
<polygon fill="#ffffff" stroke="#000000" points="1653.6675,-165.5 1653.6675,-183.5 1772.48,-183.5 1772.48,-165.5 1653.6675,-165.5"/>
<text text-anchor="middle" x="1713.0737" y="-171.5" font-family="Helvetica,sans-Serif" font-size="10.00" fill="#000000">src/wallet/rpcwallet.cpp</text>
</a>
</g>
</g>
<!-- Node74&#45;&gt;Node115 -->
<g id="edge62" class="edge">
<title>Node74&#45;&gt;Node115</title>
<path fill="none" stroke="#191970" d="M1002.5247,-227.9424C1105.3573,-223.4608 1400.6789,-209.2151 1645.0737,-184 1647.8009,-183.7186 1650.5869,-183.4111 1653.3992,-183.0845"/>
<polygon fill="#191970" stroke="#191970" points="1002.181,-224.4539 992.3411,-228.3816 1002.4827,-231.4474 1002.181,-224.4539"/>
</g>
<!-- Node116 -->
<g id="node47" class="node">
<title>Node116</title>
<g id="a_node47"><a xlink:href="wallet_2wallet_8cpp.html" target="_top" xlink:title="src/wallet/wallet.cpp">
<polygon fill="#ffffff" stroke="#000000" points="1790.6133,-165.5 1790.6133,-183.5 1895.5342,-183.5 1895.5342,-165.5 1790.6133,-165.5"/>
<text text-anchor="middle" x="1843.0737" y="-171.5" font-family="Helvetica,sans-Serif" font-size="10.00" fill="#000000">src/wallet/wallet.cpp</text>
</a>
</g>
</g>
<!-- Node74&#45;&gt;Node116 -->
<g id="edge63" class="edge">
<title>Node74&#45;&gt;Node116</title>
<path fill="none" stroke="#191970" d="M1002.3804,-228.6987C1118.188,-225.9375 1481.715,-215.2075 1781.0737,-184 1784.1064,-183.6839 1787.2173,-183.3232 1790.3531,-182.9316"/>
<polygon fill="#191970" stroke="#191970" points="1002.1838,-225.2023 992.2681,-228.9344 1002.347,-232.2004 1002.1838,-225.2023"/>
</g>
<!-- Node76&#45;&gt;Node75 -->
<g id="edge8" class="edge">
<title>Node76&#45;&gt;Node75</title>
<path fill="none" stroke="#191970" d="M2147.43,-114.5342C2125.43,-112.9461 2100.6884,-111.272 2078.0737,-110 1693.9037,-88.3924 1596.2867,-108.6602 1213.0737,-74 1210.4619,-73.7638 1207.7969,-73.498 1205.1069,-73.2095"/>
<polygon fill="#191970" stroke="#191970" points="2147.4286,-118.0433 2157.6568,-115.2803 2147.938,-111.0619 2147.4286,-118.0433"/>
</g>
<!-- Node77 -->
<g id="node8" class="node">
<title>Node77</title>
<g id="a_node8"><a xlink:href="addresstablemodel_8cpp.html" target="_top" xlink:title="src/qt/addresstablemodel.cpp">
<polygon fill="#ffffff" stroke="#000000" points="2108.7612,-55.5 2108.7612,-73.5 2255.3862,-73.5 2255.3862,-55.5 2108.7612,-55.5"/>
<text text-anchor="middle" x="2182.0737" y="-61.5" font-family="Helvetica,sans-Serif" font-size="10.00" fill="#000000">src/qt/addresstablemodel.cpp</text>
</a>
</g>
</g>
<!-- Node76&#45;&gt;Node77 -->
<g id="edge9" class="edge">
<title>Node76&#45;&gt;Node77</title>
<path fill="none" stroke="#191970" d="M2202.2899,-101.563C2197.2311,-92.2885 2191.2681,-81.3564 2187.1353,-73.7795"/>
<polygon fill="#191970" stroke="#191970" points="2199.2586,-103.3149 2207.1198,-110.4179 2205.4039,-99.9629 2199.2586,-103.3149"/>
</g>
<!-- Node78 -->
<g id="node9" class="node">
<title>Node78</title>
<g id="a_node9"><a xlink:href="bantablemodel_8cpp.html" target="_top" xlink:title="src/qt/bantablemodel.cpp">
<polygon fill="#ffffff" stroke="#000000" points="939.207,-55.5 939.207,-73.5 1066.9404,-73.5 1066.9404,-55.5 939.207,-55.5"/>
<text text-anchor="middle" x="1003.0737" y="-61.5" font-family="Helvetica,sans-Serif" font-size="10.00" fill="#000000">src/qt/bantablemodel.cpp</text>
</a>
</g>
</g>
<!-- Node76&#45;&gt;Node78 -->
<g id="edge10" class="edge">
<title>Node76&#45;&gt;Node78</title>
<path fill="none" stroke="#191970" d="M2146.9204,-115.5487C2115.5376,-113.7193 2077.359,-111.6017 2043.0737,-110 1613.4668,-89.9302 1504.6576,-109.7884 1076.0737,-74 1073.1444,-73.7554 1070.1522,-73.4781 1067.1321,-73.1758"/>
<polygon fill="#191970" stroke="#191970" points="2147.0995,-119.0652 2157.2873,-116.1569 2147.5095,-112.0772 2147.0995,-119.0652"/>
</g>
<!-- Node79 -->
<g id="node10" class="node">
<title>Node79</title>
<g id="a_node10"><a xlink:href="bitcoin_8cpp.html" target="_top" xlink:title="src/qt/bitcoin.cpp">
<polygon fill="#ffffff" stroke="#000000" points="2273.5566,-55.5 2273.5566,-73.5 2364.5908,-73.5 2364.5908,-55.5 2273.5566,-55.5"/>
<text text-anchor="middle" x="2319.0737" y="-61.5" font-family="Helvetica,sans-Serif" font-size="10.00" fill="#000000">src/qt/bitcoin.cpp</text>
</a>
</g>
</g>
<!-- Node76&#45;&gt;Node79 -->
<g id="edge11" class="edge">
<title>Node76&#45;&gt;Node79</title>
<path fill="none" stroke="#191970" d="M2238.7597,-105.7829C2258.3208,-95.7282 2284.332,-82.3579 2301.3786,-73.5956"/>
<polygon fill="#191970" stroke="#191970" points="2237.0364,-102.7334 2229.7426,-110.4179 2240.2365,-108.9591 2237.0364,-102.7334"/>
</g>
<!-- Node80 -->
<g id="node11" class="node">
<title>Node80</title>
<g id="a_node11"><a xlink:href="bitcoingui_8cpp.html" target="_top" xlink:title="src/qt/bitcoingui.cpp">
<polygon fill="#ffffff" stroke="#000000" points="1929.8843,-.5 1929.8843,-18.5 2034.2632,-18.5 2034.2632,-.5 1929.8843,-.5"/>
<text text-anchor="middle" x="1982.0737" y="-6.5" font-family="Helvetica,sans-Serif" font-size="10.00" fill="#000000">src/qt/bitcoingui.cpp</text>
</a>
</g>
</g>
<!-- Node76&#45;&gt;Node80 -->
<g id="edge12" class="edge">
<title>Node76&#45;&gt;Node80</title>
<path fill="none" stroke="#191970" d="M2276.533,-118.4288C2469.555,-114.9092 3031.2832,-102.2701 3058.0737,-74 3063.8823,-67.8706 3063.9174,-61.096 3058.0737,-55 3022.3105,-17.6925 2245.5284,-10.8877 2034.5494,-9.7261"/>
<polygon fill="#191970" stroke="#191970" points="2276.4665,-114.9293 2266.5312,-118.609 2276.5927,-121.9282 2276.4665,-114.9293"/>
</g>
<!-- Node76&#45;&gt;Node81 -->
<g id="edge13" class="edge">
<title>Node76&#45;&gt;Node81</title>
<path fill="none" stroke="#191970" d="M2146.9263,-115.4165C2115.5448,-113.5572 2077.3656,-111.4527 2043.0737,-110 1482.4595,-86.2516 1341.1728,-107.7844 781.0737,-74 766.0165,-73.0918 749.751,-71.7567 734.6913,-70.3728"/>
<polygon fill="#191970" stroke="#191970" points="2147.1016,-118.9332 2157.2927,-116.0364 2147.5195,-111.9457 2147.1016,-118.9332"/>
</g>
<!-- Node82 -->
<g id="node13" class="node">
<title>Node82</title>
<g id="a_node13"><a xlink:href="coincontroldialog_8cpp.html" target="_top" xlink:title="src/qt/coincontroldialog.cpp">
<polygon fill="#ffffff" stroke="#000000" points="2382.4854,-55.5 2382.4854,-73.5 2519.6621,-73.5 2519.6621,-55.5 2382.4854,-55.5"/>
<text text-anchor="middle" x="2451.0737" y="-61.5" font-family="Helvetica,sans-Serif" font-size="10.00" fill="#000000">src/qt/coincontroldialog.cpp</text>
</a>
</g>
</g>
<!-- Node76&#45;&gt;Node82 -->
<g id="edge14" class="edge">
<title>Node76&#45;&gt;Node82</title>
<path fill="none" stroke="#191970" d="M2261.0186,-108.2365C2305.6033,-97.9765 2370.6014,-83.0187 2411.854,-73.5255"/>
<polygon fill="#191970" stroke="#191970" points="2260.2324,-104.8259 2251.2721,-110.4795 2261.8023,-111.6476 2260.2324,-104.8259"/>
</g>
<!-- Node83 -->
<g id="node14" class="node">
<title>Node83</title>
<g id="a_node14"><a xlink:href="guiutil_8cpp.html" target="_top" xlink:title="src/qt/guiutil.cpp">
<polygon fill="#ffffff" stroke="#000000" points="2537.9458,-55.5 2537.9458,-73.5 2626.2017,-73.5 2626.2017,-55.5 2537.9458,-55.5"/>
<text text-anchor="middle" x="2582.0737" y="-61.5" font-family="Helvetica,sans-Serif" font-size="10.00" fill="#000000">src/qt/guiutil.cpp</text>
</a>
</g>
</g>
<!-- Node76&#45;&gt;Node83 -->
<g id="edge15" class="edge">
<title>Node76&#45;&gt;Node83</title>
<path fill="none" stroke="#191970" d="M2276.537,-110.9168C2340.6592,-102.2214 2441.8035,-88.0801 2529.0737,-74 2531.9346,-73.5384 2534.8798,-73.0493 2537.847,-72.5462"/>
<polygon fill="#191970" stroke="#191970" points="2276.012,-107.4558 2266.5715,-112.2647 2276.9504,-114.3926 2276.012,-107.4558"/>
</g>
<!-- Node84 -->
<g id="node15" class="node">
<title>Node84</title>
<g id="a_node15"><a xlink:href="intro_8cpp.html" target="_top" xlink:title="src/qt/intro.cpp">
<polygon fill="#ffffff" stroke="#000000" points="2644.2832,-55.5 2644.2832,-73.5 2725.8643,-73.5 2725.8643,-55.5 2644.2832,-55.5"/>
<text text-anchor="middle" x="2685.0737" y="-61.5" font-family="Helvetica,sans-Serif" font-size="10.00" fill="#000000">src/qt/intro.cpp</text>
</a>
</g>
</g>
<!-- Node76&#45;&gt;Node84 -->
<g id="edge16" class="edge">
<title>Node76&#45;&gt;Node84</title>
<path fill="none" stroke="#191970" d="M2276.7296,-114.1773C2359.8833,-106.958 2508.6566,-92.7774 2635.0737,-74 2638.0453,-73.5586 2641.1095,-73.0669 2644.1894,-72.546"/>
<polygon fill="#191970" stroke="#191970" points="2276.336,-110.6982 2266.6736,-115.0442 2276.9373,-117.6723 2276.336,-110.6982"/>
</g>
<!-- Node85 -->
<g id="node16" class="node">
<title>Node85</title>
<g id="a_node16"><a xlink:href="optionsdialog_8cpp.html" target="_top" xlink:title="src/qt/optionsdialog.cpp">
<polygon fill="#ffffff" stroke="#000000" points="2782.542,-55.5 2782.542,-73.5 2903.6055,-73.5 2903.6055,-55.5 2782.542,-55.5"/>
<text text-anchor="middle" x="2843.0737" y="-61.5" font-family="Helvetica,sans-Serif" font-size="10.00" fill="#000000">src/qt/optionsdialog.cpp</text>
</a>
</g>
</g>
<!-- Node76&#45;&gt;Node85 -->
<g id="edge17" class="edge">
<title>Node76&#45;&gt;Node85</title>
<path fill="none" stroke="#191970" d="M2276.6048,-115.1522C2380.3203,-107.9545 2590.4809,-92.505 2768.0737,-74 2772.7732,-73.5103 2777.6342,-72.9705 2782.5182,-72.4043"/>
<polygon fill="#191970" stroke="#191970" points="2276.3377,-111.6622 2266.6029,-115.8436 2276.8205,-118.6456 2276.3377,-111.6622"/>
</g>
<!-- Node76&#45;&gt;Node86 -->
<g id="edge18" class="edge">
<title>Node76&#45;&gt;Node86</title>
<path fill="none" stroke="#191970" d="M2147.566,-112.6564C2137.0484,-111.673 2126.2636,-110.7441 2116.0737,-110 1777.4869,-85.2759 1691.1568,-104.8571 1353.0737,-74 1350.1425,-73.7325 1347.1457,-73.4316 1344.1212,-73.106"/>
<polygon fill="#191970" stroke="#191970" points="2147.2517,-116.1422 2157.5399,-113.6117 2147.9191,-109.1741 2147.2517,-116.1422"/>
</g>
<!-- Node87 -->
<g id="node18" class="node">
<title>Node87</title>
<g id="a_node18"><a xlink:href="paymentserver_8cpp.html" target="_top" xlink:title="src/qt/paymentserver.cpp">
<polygon fill="#ffffff" stroke="#000000" points="2921.2144,-55.5 2921.2144,-73.5 3048.9331,-73.5 3048.9331,-55.5 2921.2144,-55.5"/>
<text text-anchor="middle" x="2985.0737" y="-61.5" font-family="Helvetica,sans-Serif" font-size="10.00" fill="#000000">src/qt/paymentserver.cpp</text>
</a>
</g>
</g>
<!-- Node76&#45;&gt;Node87 -->
<g id="edge19" class="edge">
<title>Node76&#45;&gt;Node87</title>
<path fill="none" stroke="#191970" d="M2276.7769,-116.7378C2400.5479,-111.1355 2679.3278,-96.9811 2913.0737,-74 2915.7088,-73.7409 2918.396,-73.4604 2921.1091,-73.1638"/>
<polygon fill="#191970" stroke="#191970" points="2276.5432,-113.2447 2266.7104,-117.1901 2276.8574,-120.2377 2276.5432,-113.2447"/>
</g>
<!-- Node88 -->
<g id="node19" class="node">
<title>Node88</title>
<g id="a_node19"><a xlink:href="peertablemodel_8cpp.html" target="_top" xlink:title="src/qt/peertablemodel.cpp">
<polygon fill="#ffffff" stroke="#000000" points="790.542,-55.5 790.542,-73.5 921.6055,-73.5 921.6055,-55.5 790.542,-55.5"/>
<text text-anchor="middle" x="856.0737" y="-61.5" font-family="Helvetica,sans-Serif" font-size="10.00" fill="#000000">src/qt/peertablemodel.cpp</text>
</a>
</g>
</g>
<!-- Node76&#45;&gt;Node88 -->
<g id="edge20" class="edge">
<title>Node76&#45;&gt;Node88</title>
<path fill="none" stroke="#191970" d="M2146.9238,-115.4746C2115.5417,-113.6284 2077.3628,-111.5181 2043.0737,-110 1548.6327,-88.1097 1423.4159,-113.5552 930.0737,-74 927.3624,-73.7826 924.5979,-73.537 921.8073,-73.2691"/>
<polygon fill="#191970" stroke="#191970" points="2147.1007,-118.9911 2157.2904,-116.0893 2147.5152,-112.0034 2147.1007,-118.9911"/>
</g>
<!-- Node89 -->
<g id="node20" class="node">
<title>Node89</title>
<g id="a_node20"><a xlink:href="rpcconsole_8cpp.html" target="_top" xlink:title="src/qt/rpcconsole.cpp">
<polygon fill="#ffffff" stroke="#000000" points="706.8301,-.5 706.8301,-18.5 817.3174,-18.5 817.3174,-.5 706.8301,-.5"/>
<text text-anchor="middle" x="762.0737" y="-6.5" font-family="Helvetica,sans-Serif" font-size="10.00" fill="#000000">src/qt/rpcconsole.cpp</text>
</a>
</g>
</g>
<!-- Node76&#45;&gt;Node89 -->
<g id="edge21" class="edge">
<title>Node76&#45;&gt;Node89</title>
<path fill="none" stroke="#191970" d="M2276.5538,-118.6582C2409.5871,-116.2506 2704.6476,-107.1881 2735.0737,-74 2740.7802,-67.7755 2740.9756,-61.0396 2735.0737,-55 2700.6321,-19.7549 1133.7941,-11.1082 817.4121,-9.7203"/>
<polygon fill="#191970" stroke="#191970" points="2276.4315,-115.1597 2266.4939,-118.8331 2276.5532,-122.1586 2276.4315,-115.1597"/>
</g>
<!-- Node90 -->
<g id="node21" class="node">
<title>Node90</title>
<g id="a_node21"><a xlink:href="sendcoinsdialog_8cpp.html" target="_top" xlink:title="src/qt/sendcoinsdialog.cpp">
<polygon fill="#ffffff" stroke="#000000" points="3105.1504,-55.5 3105.1504,-73.5 3238.9971,-73.5 3238.9971,-55.5 3105.1504,-55.5"/>
<text text-anchor="middle" x="3172.0737" y="-61.5" font-family="Helvetica,sans-Serif" font-size="10.00" fill="#000000">src/qt/sendcoinsdialog.cpp</text>
</a>
</g>
</g>
<!-- Node76&#45;&gt;Node90 -->
<g id="edge22" class="edge">
<title>Node76&#45;&gt;Node90</title>
<path fill="none" stroke="#191970" d="M2276.7787,-117.5918C2422.4111,-112.9814 2786.9865,-99.6752 3091.0737,-74 3095.5885,-73.6188 3100.2402,-73.1845 3104.9241,-72.7162"/>
<polygon fill="#191970" stroke="#191970" points="2276.5607,-114.0968 2266.6754,-117.9088 2276.7802,-121.0934 2276.5607,-114.0968"/>
</g>
<!-- Node91 -->
<g id="node22" class="node">
<title>Node91</title>
<g id="a_node22"><a xlink:href="splashscreen_8cpp.html" target="_top" xlink:title="src/qt/splashscreen.cpp">
<polygon fill="#ffffff" stroke="#000000" points="3256.5493,-55.5 3256.5493,-73.5 3377.5981,-73.5 3377.5981,-55.5 3256.5493,-55.5"/>
<text text-anchor="middle" x="3317.0737" y="-61.5" font-family="Helvetica,sans-Serif" font-size="10.00" fill="#000000">src/qt/splashscreen.cpp</text>
</a>
</g>
</g>
<!-- Node76&#45;&gt;Node91 -->
<g id="edge23" class="edge">
<title>Node76&#45;&gt;Node91</title>
<path fill="none" stroke="#191970" d="M2277.031,-118.742C2440.463,-116.3799 2881.8262,-107.183 3248.0737,-74 3250.8436,-73.749 3253.6727,-73.4665 3256.528,-73.1601"/>
<polygon fill="#191970" stroke="#191970" points="2276.6214,-115.2473 2266.6718,-118.8878 2276.7201,-122.2466 2276.6214,-115.2473"/>
</g>
<!-- Node92 -->
<g id="node23" class="node">
<title>Node92</title>
<g id="a_node23"><a xlink:href="trafficgraphwidget_8cpp.html" target="_top" xlink:title="src/qt/trafficgraphwidget.cpp">
<polygon fill="#ffffff" stroke="#000000" points="3395.5444,-55.5 3395.5444,-73.5 3536.603,-73.5 3536.603,-55.5 3395.5444,-55.5"/>
<text text-anchor="middle" x="3466.0737" y="-61.5" font-family="Helvetica,sans-Serif" font-size="10.00" fill="#000000">src/qt/trafficgraphwidget.cpp</text>
</a>
</g>
</g>
<!-- Node76&#45;&gt;Node92 -->
<g id="edge24" class="edge">
<title>Node76&#45;&gt;Node92</title>
<path fill="none" stroke="#191970" d="M2276.8517,-118.8315C2454.5508,-116.6002 2964.5659,-107.5291 3387.0737,-74 3389.8279,-73.7814 3392.6339,-73.539 3395.4668,-73.2779"/>
<polygon fill="#191970" stroke="#191970" points="2276.5874,-115.3344 2266.6311,-118.9568 2276.6733,-122.3339 2276.5874,-115.3344"/>
</g>
<!-- Node93 -->
<g id="node24" class="node">
<title>Node93</title>
<g id="a_node24"><a xlink:href="transactiondesc_8cpp.html" target="_top" xlink:title="src/qt/transactiondesc.cpp">
<polygon fill="#ffffff" stroke="#000000" points="3554.9902,-55.5 3554.9902,-73.5 3687.1572,-73.5 3687.1572,-55.5 3554.9902,-55.5"/>
<text text-anchor="middle" x="3621.0737" y="-61.5" font-family="Helvetica,sans-Serif" font-size="10.00" fill="#000000">src/qt/transactiondesc.cpp</text>
</a>
</g>
</g>
<!-- Node76&#45;&gt;Node93 -->
<g id="edge25" class="edge">
<title>Node76&#45;&gt;Node93</title>
<path fill="none" stroke="#191970" d="M2277.1543,-118.0741C2509.1403,-112.8674 3295.12,-94.1307 3546.0737,-74 3548.952,-73.7691 3551.8894,-73.5078 3554.8546,-73.2229"/>
<polygon fill="#191970" stroke="#191970" points="2276.7736,-114.5817 2266.8544,-118.3046 2276.9302,-121.5799 2276.7736,-114.5817"/>
</g>
<!-- Node94 -->
<g id="node25" class="node">
<title>Node94</title>
<g id="a_node25"><a xlink:href="transactiontablemodel_8cpp.html" target="_top" xlink:title="src/qt/transactiontablemodel.cpp">
<polygon fill="#ffffff" stroke="#000000" points="1362.0913,-55.5 1362.0913,-73.5 1522.0562,-73.5 1522.0562,-55.5 1362.0913,-55.5"/>
<text text-anchor="middle" x="1442.0737" y="-61.5" font-family="Helvetica,sans-Serif" font-size="10.00" fill="#000000">src/qt/transactiontablemodel.cpp</text>
</a>
</g>
</g>
<!-- Node76&#45;&gt;Node94 -->
<g id="edge26" class="edge">
<title>Node76&#45;&gt;Node94</title>
<path fill="none" stroke="#191970" d="M2147.5563,-112.7833C2137.0399,-111.7841 2126.258,-110.817 2116.0737,-110 1856.416,-89.1701 1790.6493,-95.8296 1531.0737,-74 1528.1317,-73.7526 1525.1361,-73.4896 1522.1111,-73.2146"/>
<polygon fill="#191970" stroke="#191970" points="2147.2391,-116.2689 2157.5295,-113.7473 2147.9126,-109.3013 2147.2391,-116.2689"/>
</g>
<!-- Node95 -->
<g id="node26" class="node">
<title>Node95</title>
<g id="a_node26"><a xlink:href="utilitydialog_8cpp.html" target="_top" xlink:title="src/qt/utilitydialog.cpp">
<polygon fill="#ffffff" stroke="#000000" points="1540.2734,-55.5 1540.2734,-73.5 1651.874,-73.5 1651.874,-55.5 1540.2734,-55.5"/>
<text text-anchor="middle" x="1596.0737" y="-61.5" font-family="Helvetica,sans-Serif" font-size="10.00" fill="#000000">src/qt/utilitydialog.cpp</text>
</a>
</g>
</g>
<!-- Node76&#45;&gt;Node95 -->
<g id="edge27" class="edge">
<title>Node76&#45;&gt;Node95</title>
<path fill="none" stroke="#191970" d="M2147.5432,-112.9383C2137.0284,-111.9197 2126.2505,-110.906 2116.0737,-110 1914.0187,-92.0109 1862.656,-96.6805 1661.0737,-74 1658.1271,-73.6685 1655.1086,-73.3063 1652.0631,-72.9231"/>
<polygon fill="#191970" stroke="#191970" points="2147.2224,-116.4236 2157.5154,-113.913 2147.9034,-109.4568 2147.2224,-116.4236"/>
</g>
<!-- Node96 -->
<g id="node27" class="node">
<title>Node96</title>
<g id="a_node27"><a xlink:href="walletmodel_8cpp.html" target="_top" xlink:title="src/qt/walletmodel.cpp">
<polygon fill="#ffffff" stroke="#000000" points="1669.6084,-55.5 1669.6084,-73.5 1784.5391,-73.5 1784.5391,-55.5 1669.6084,-55.5"/>
<text text-anchor="middle" x="1727.0737" y="-61.5" font-family="Helvetica,sans-Serif" font-size="10.00" fill="#000000">src/qt/walletmodel.cpp</text>
</a>
</g>
</g>
<!-- Node76&#45;&gt;Node96 -->
<g id="edge28" class="edge">
<title>Node76&#45;&gt;Node96</title>
<path fill="none" stroke="#191970" d="M2147.4201,-112.7575C2047.4534,-102.2851 1859.9243,-82.4383 1793.0737,-74 1790.3173,-73.6521 1787.4976,-73.2859 1784.6507,-72.9079"/>
<polygon fill="#191970" stroke="#191970" points="2147.0913,-116.2422 2157.4014,-113.8025 2147.8202,-109.2802 2147.0913,-116.2422"/>
</g>
<!-- Node97 -->
<g id="node28" class="node">
<title>Node97</title>
<g id="a_node28"><a xlink:href="walletmodeltransaction_8cpp.html" target="_top" xlink:title="src/qt/walletmodeltransaction.cpp">
<polygon fill="#ffffff" stroke="#000000" points="1802.1504,-55.5 1802.1504,-73.5 1965.9971,-73.5 1965.9971,-55.5 1802.1504,-55.5"/>
<text text-anchor="middle" x="1884.0737" y="-61.5" font-family="Helvetica,sans-Serif" font-size="10.00" fill="#000000">src/qt/walletmodeltransaction.cpp</text>
</a>
</g>
</g>
<!-- Node76&#45;&gt;Node97 -->
<g id="edge29" class="edge">
<title>Node76&#45;&gt;Node97</title>
<path fill="none" stroke="#191970" d="M2148.3428,-108.8134C2087.1,-98.544 1995.5833,-83.1982 1937.8984,-73.5255"/>
<polygon fill="#191970" stroke="#191970" points="2147.8373,-112.2774 2158.2785,-110.4795 2148.995,-105.3738 2147.8373,-112.2774"/>
</g>
<!-- Node98 -->
<g id="node29" class="node">
<title>Node98</title>
<g id="a_node29"><a xlink:href="walletview_8cpp.html" target="_top" xlink:title="src/qt/walletview.cpp">
<polygon fill="#ffffff" stroke="#000000" points="1983.4976,-55.5 1983.4976,-73.5 2090.6499,-73.5 2090.6499,-55.5 1983.4976,-55.5"/>
<text text-anchor="middle" x="2037.0737" y="-61.5" font-family="Helvetica,sans-Serif" font-size="10.00" fill="#000000">src/qt/walletview.cpp</text>
</a>
</g>
</g>
<!-- Node76&#45;&gt;Node98 -->
<g id="edge30" class="edge">
<title>Node76&#45;&gt;Node98</title>
<path fill="none" stroke="#191970" d="M2173.5353,-107.3879C2140.985,-97.1578 2095.1039,-82.7381 2065.7235,-73.5042"/>
<polygon fill="#191970" stroke="#191970" points="2172.5867,-110.7585 2183.176,-110.4179 2174.6855,-104.0806 2172.5867,-110.7585"/>
</g>
<!-- Node102&#45;&gt;Node73 -->
<g id="edge35" class="edge">
<title>Node102&#45;&gt;Node73</title>
<path fill="none" stroke="#191970" d="M760.3716,-162.9697C718.3949,-152.3792 657.2522,-136.9533 620.2147,-127.609"/>
<polygon fill="#191970" stroke="#191970" points="759.5231,-166.3652 770.0755,-165.4179 761.2355,-159.5779 759.5231,-166.3652"/>
</g>
<!-- Node102&#45;&gt;Node75 -->
<g id="edge36" class="edge">
<title>Node102&#45;&gt;Node75</title>
<path fill="none" stroke="#191970" d="M846.7167,-162.42C873.8001,-153.9772 909.9935,-141.9345 941.0737,-129 958.5067,-121.745 961.4392,-116.7504 979.0737,-110 1020.377,-94.1893 1069.4053,-81.4523 1103.4218,-73.5195"/>
<polygon fill="#191970" stroke="#191970" points="845.3372,-159.1826 836.8124,-165.4738 847.3998,-165.8719 845.3372,-159.1826"/>
</g>
<!-- Node102&#45;&gt;Node103 -->
<g id="edge37" class="edge">
<title>Node102&#45;&gt;Node103</title>
<path fill="none" stroke="#191970" d="M870.3773,-167.9543C882.5562,-166.8556 895.1994,-165.8108 907.0737,-165 1290.8047,-138.7965 1753.1928,-125.1993 1915.3823,-120.9709"/>
<polygon fill="#191970" stroke="#191970" points="869.9194,-164.4816 860.2834,-168.8859 870.5628,-171.4519 869.9194,-164.4816"/>
</g>
<!-- Node102&#45;&gt;Node104 -->
<g id="edge38" class="edge">
<title>Node102&#45;&gt;Node104</title>
<path fill="none" stroke="#191970" d="M786.5374,-159.15C774.1155,-149.3899 758.4409,-137.0742 747.8839,-128.7795"/>
<polygon fill="#191970" stroke="#191970" points="784.4891,-161.9917 794.5147,-165.4179 788.8138,-156.4875 784.4891,-161.9917"/>
</g>
<!-- Node102&#45;&gt;Node106 -->
<g id="edge44" class="edge">
<title>Node102&#45;&gt;Node106</title>
<path fill="none" stroke="#191970" d="M852.7886,-162.9784C894.3851,-152.7192 954.4005,-137.9172 992.5658,-128.5042"/>
<polygon fill="#191970" stroke="#191970" points="851.7686,-159.625 842.8976,-165.4179 853.4448,-166.4214 851.7686,-159.625"/>
</g>
<!-- Node104&#45;&gt;Node81 -->
<g id="edge39" class="edge">
<title>Node104&#45;&gt;Node81</title>
<path fill="none" stroke="#191970" d="M718.9892,-103.2992C708.8483,-93.6828 696.3542,-81.8349 687.8593,-73.7795"/>
<polygon fill="#191970" stroke="#191970" points="716.8316,-106.0766 726.4962,-110.4179 721.6483,-100.9972 716.8316,-106.0766"/>
</g>
<!-- Node104&#45;&gt;Node88 -->
<g id="edge40" class="edge">
<title>Node104&#45;&gt;Node88</title>
<path fill="none" stroke="#191970" d="M765.1085,-106.1924C787.1421,-96.0937 816.8503,-82.4774 836.2287,-73.5956"/>
<polygon fill="#191970" stroke="#191970" points="763.5216,-103.0695 755.8893,-110.4179 766.4383,-109.433 763.5216,-103.0695"/>
</g>
<!-- Node104&#45;&gt;Node105 -->
<g id="edge41" class="edge">
<title>Node104&#45;&gt;Node105</title>
<path fill="none" stroke="#191970" d="M696.4307,-107.52C662.5532,-97.2822 614.5568,-82.7779 583.8695,-73.5042"/>
<polygon fill="#191970" stroke="#191970" points="695.4352,-110.8754 706.0201,-110.4179 697.4602,-104.1747 695.4352,-110.8754"/>
</g>
<!-- Node105&#45;&gt;Node80 -->
<g id="edge42" class="edge">
<title>Node105&#45;&gt;Node80</title>
<path fill="none" stroke="#191970" d="M614.4203,-55.0204C895.9751,-29.2206 1714.0917,-14.0047 1929.5793,-10.3558"/>
<polygon fill="#191970" stroke="#191970" points="613.857,-51.5579 604.23,-55.9817 614.5145,-58.5269 613.857,-51.5579"/>
</g>
<!-- Node105&#45;&gt;Node89 -->
<g id="edge43" class="edge">
<title>Node105&#45;&gt;Node89</title>
<path fill="none" stroke="#191970" d="M598.3866,-52.7826C637.1541,-42.5316 692.6492,-27.8575 728.0214,-18.5042"/>
<polygon fill="#191970" stroke="#191970" points="597.1937,-49.4777 588.4207,-55.4179 598.9832,-56.2451 597.1937,-49.4777"/>
</g>
<!-- Node107&#45;&gt;Node103 -->
<g id="edge46" class="edge">
<title>Node107&#45;&gt;Node103</title>
<path fill="none" stroke="#191970" d="M1975.0737,-155.383C1975.0737,-146.3738 1975.0737,-136.0373 1975.0737,-128.7795"/>
<polygon fill="#191970" stroke="#191970" points="1971.5738,-155.4178 1975.0737,-165.4179 1978.5738,-155.4179 1971.5738,-155.4178"/>
</g>
<!-- Node108&#45;&gt;Node78 -->
<g id="edge48" class="edge">
<title>Node108&#45;&gt;Node78</title>
<path fill="none" stroke="#191970" d="M903.8878,-106.4633C927.8196,-96.3383 960.3934,-82.5571 981.575,-73.5956"/>
<polygon fill="#191970" stroke="#191970" points="902.3865,-103.298 894.5406,-110.4179 905.114,-109.7448 902.3865,-103.298"/>
</g>
<!-- Node108&#45;&gt;Node81 -->
<g id="edge49" class="edge">
<title>Node108&#45;&gt;Node81</title>
<path fill="none" stroke="#191970" d="M831.0656,-107.6515C794.7434,-97.4068 743.0181,-82.8177 709.9977,-73.5042"/>
<polygon fill="#191970" stroke="#191970" points="830.2988,-111.0718 840.8734,-110.4179 832.1991,-104.3346 830.2988,-111.0718"/>
</g>
<!-- Node108&#45;&gt;Node89 -->
<g id="edge50" class="edge">
<title>Node108&#45;&gt;Node89</title>
<path fill="none" stroke="#191970" d="M830.3888,-106.8884C812.9153,-99.777 793.8433,-89.1918 781.0737,-74 767.5533,-57.915 763.6527,-32.5617 762.5283,-18.9259"/>
<polygon fill="#191970" stroke="#191970" points="829.2904,-110.2151 839.8817,-110.4891 831.773,-103.6701 829.2904,-110.2151"/>
</g>
</g>
</svg>
