<?xml version="1.0" encoding="UTF-8" standalone="no"?>
<!DOCTYPE svg PUBLIC "-//W3C//DTD SVG 1.1//EN"
 "http://www.w3.org/Graphics/SVG/1.1/DTD/svg11.dtd">
<!-- Generated by graphviz version 2.40.1 (20161225.0304)
 -->
<!-- Title: EncodeBase58Check Pages: 1 -->
<svg width="364pt" height="101pt"
 viewBox="0.00 0.00 364.25 101.00" xmlns="http://www.w3.org/2000/svg" xmlns:xlink="http://www.w3.org/1999/xlink">
<g id="graph0" class="graph" transform="scale(1 1) rotate(0) translate(4 97)">
<title>EncodeBase58Check</title>
<polygon fill="#ffffff" stroke="transparent" points="-4,4 -4,-97 360.2549,-97 360.2549,4 -4,4"/>
<!-- Node94 -->
<g id="node1" class="node">
<title>Node94</title>
<polygon fill="#bfbfbf" stroke="#000000" points="0,-37.5 0,-55.5 112.1768,-55.5 112.1768,-37.5 0,-37.5"/>
<text text-anchor="middle" x="56.0884" y="-43.5" font-family="Helvetica,sans-Serif" font-size="10.00" fill="#000000">EncodeBase58Check</text>
</g>
<!-- Node95 -->
<g id="node2" class="node">
<title>Node95</title>
<g id="a_node2"><a xlink:href="key__io_8h.html#a675809f738ce55f530880389fa330f66" target="_top" xlink:title="EncodeSecret">
<polygon fill="#ffffff" stroke="#000000" points="158.4624,-74.5 158.4624,-92.5 237.2798,-92.5 237.2798,-74.5 158.4624,-74.5"/>
<text text-anchor="middle" x="197.8711" y="-80.5" font-family="Helvetica,sans-Serif" font-size="10.00" fill="#000000">EncodeSecret</text>
</a>
</g>
</g>
<!-- Node94&#45;&gt;Node95 -->
<g id="edge1" class="edge">
<title>Node94&#45;&gt;Node95</title>
<path fill="none" stroke="#191970" d="M100.6581,-58.131C120.7959,-63.3862 144.2364,-69.5033 163.0538,-74.414"/>
<polygon fill="#191970" stroke="#191970" points="101.3321,-54.6898 90.7723,-55.5512 99.5645,-61.4629 101.3321,-54.6898"/>
</g>
<!-- Node98 -->
<g id="node5" class="node">
<title>Node98</title>
<g id="a_node5"><a xlink:href="key__io_8h.html#a49ce9e0a355e46193fdaf2756b0648f0" target="_top" xlink:title="EncodeExtPubKey">
<polygon fill="#ffffff" stroke="#000000" points="148.1768,-37.5 148.1768,-55.5 247.5654,-55.5 247.5654,-37.5 148.1768,-37.5"/>
<text text-anchor="middle" x="197.8711" y="-43.5" font-family="Helvetica,sans-Serif" font-size="10.00" fill="#000000">EncodeExtPubKey</text>
</a>
</g>
</g>
<!-- Node94&#45;&gt;Node98 -->
<g id="edge4" class="edge">
<title>Node94&#45;&gt;Node98</title>
<path fill="none" stroke="#191970" d="M122.5367,-46.5C131.1191,-46.5 139.7886,-46.5 148.0396,-46.5"/>
<polygon fill="#191970" stroke="#191970" points="122.5321,-43.0001 112.5321,-46.5 122.532,-50.0001 122.5321,-43.0001"/>
</g>
<!-- Node99 -->
<g id="node6" class="node">
<title>Node99</title>
<g id="a_node6"><a xlink:href="key__io_8h.html#a69ad05a28e10f3f8b4a3ba691eea7288" target="_top" xlink:title="EncodeExtKey">
<polygon fill="#ffffff" stroke="#000000" points="157.0732,-.5 157.0732,-18.5 238.6689,-18.5 238.6689,-.5 157.0732,-.5"/>
<text text-anchor="middle" x="197.8711" y="-6.5" font-family="Helvetica,sans-Serif" font-size="10.00" fill="#000000">EncodeExtKey</text>
</a>
</g>
</g>
<!-- Node94&#45;&gt;Node99 -->
<g id="edge5" class="edge">
<title>Node94&#45;&gt;Node99</title>
<path fill="none" stroke="#191970" d="M100.6581,-34.869C120.7959,-29.6138 144.2364,-23.4967 163.0538,-18.586"/>
<polygon fill="#191970" stroke="#191970" points="99.5645,-31.5371 90.7723,-37.4488 101.3321,-38.3102 99.5645,-31.5371"/>
</g>
<!-- Node96 -->
<g id="node3" class="node">
<title>Node96</title>
<g id="a_node3"><a xlink:href="rpcwallet_8cpp.html#ab3f51d8e8fe414dbf91c37485e481ae3" target="_top" xlink:title="dumpprivkey">
<polygon fill="#ffffff" stroke="#000000" points="283.5654,-74.5 283.5654,-92.5 356.2549,-92.5 356.2549,-74.5 283.5654,-74.5"/>
<text text-anchor="middle" x="319.9102" y="-80.5" font-family="Helvetica,sans-Serif" font-size="10.00" fill="#000000">dumpprivkey</text>
</a>
</g>
</g>
<!-- Node95&#45;&gt;Node96 -->
<g id="edge2" class="edge">
<title>Node95&#45;&gt;Node96</title>
<path fill="none" stroke="#191970" d="M247.7689,-83.5C259.6875,-83.5 272.192,-83.5 283.3797,-83.5"/>
<polygon fill="#191970" stroke="#191970" points="247.4937,-80.0001 237.4937,-83.5 247.4936,-87.0001 247.4937,-80.0001"/>
</g>
<!-- Node97 -->
<g id="node4" class="node">
<title>Node97</title>
<g id="a_node4"><a xlink:href="wallet__tests_8cpp.html#a73ce3a42e0b56b2e4516e55871d8590e" target="_top" xlink:title="dumpwallet">
<polygon fill="#ffffff" stroke="#000000" points="286.6196,-19.5 286.6196,-37.5 353.2007,-37.5 353.2007,-19.5 286.6196,-19.5"/>
<text text-anchor="middle" x="319.9102" y="-25.5" font-family="Helvetica,sans-Serif" font-size="10.00" fill="#000000">dumpwallet</text>
</a>
</g>
</g>
<!-- Node95&#45;&gt;Node97 -->
<g id="edge3" class="edge">
<title>Node95&#45;&gt;Node97</title>
<path fill="none" stroke="#191970" d="M234.3662,-70.876C238.8453,-69.1522 243.3329,-67.3403 247.5654,-65.5 267.23,-56.95 289.0472,-45.5092 303.5283,-37.6246"/>
<polygon fill="#191970" stroke="#191970" points="232.8258,-67.7148 224.6766,-74.4854 235.2693,-74.2744 232.8258,-67.7148"/>
</g>
<!-- Node99&#45;&gt;Node97 -->
<g id="edge6" class="edge">
<title>Node99&#45;&gt;Node97</title>
<path fill="none" stroke="#191970" d="M248.879,-17.4413C261.6012,-19.422 274.9204,-21.4956 286.5423,-23.305"/>
<polygon fill="#191970" stroke="#191970" points="249.2673,-13.9597 238.8478,-15.8796 248.1903,-20.8763 249.2673,-13.9597"/>
</g>
</g>
</svg>
