<?xml version="1.0" encoding="UTF-8" standalone="no"?>
<!DOCTYPE svg PUBLIC "-//W3C//DTD SVG 1.1//EN"
 "http://www.w3.org/Graphics/SVG/1.1/DTD/svg11.dtd">
<!-- Generated by graphviz version 2.40.1 (20161225.0304)
 -->
<!-- Title: DecodeBase58Check Pages: 1 -->
<svg width="1170pt" height="170pt"
 viewBox="0.00 0.00 1170.39 170.00" xmlns="http://www.w3.org/2000/svg" xmlns:xlink="http://www.w3.org/1999/xlink">
<g id="graph0" class="graph" transform="scale(1 1) rotate(0) translate(4 166)">
<title>DecodeBase58Check</title>
<polygon fill="#ffffff" stroke="transparent" points="-4,4 -4,-166 1166.3906,-166 1166.3906,4 -4,4"/>
<!-- Node43 -->
<g id="node1" class="node">
<title>Node43</title>
<polygon fill="#bfbfbf" stroke="#000000" points="0,-124.5 0,-142.5 112.7285,-142.5 112.7285,-124.5 0,-124.5"/>
<text text-anchor="middle" x="56.3643" y="-130.5" font-family="Helvetica,sans-Serif" font-size="10.00" fill="#000000">DecodeBase58Check</text>
</g>
<!-- Node44 -->
<g id="node2" class="node">
<title>Node44</title>
<g id="a_node2"><a xlink:href="base58_8cpp.html#ae2dc7ad63e243509e0871ec4a5890678" target="_top" xlink:title="Decode a base58&#45;encoded string (psz) that includes a checksum into a byte vector (vchRet), return true if decoding is successful. ">
<polygon fill="#ffffff" stroke="#000000" points="148.7285,-124.5 148.7285,-142.5 261.457,-142.5 261.457,-124.5 148.7285,-124.5"/>
<text text-anchor="middle" x="205.0928" y="-130.5" font-family="Helvetica,sans-Serif" font-size="10.00" fill="#000000">DecodeBase58Check</text>
</a>
</g>
</g>
<!-- Node43&#45;&gt;Node44 -->
<g id="edge1" class="edge">
<title>Node43&#45;&gt;Node44</title>
<path fill="none" stroke="#191970" d="M113.0164,-133.5C121.3038,-133.5 129.9027,-133.5 138.3682,-133.5"/>
<polygon fill="#191970" stroke="#191970" points="138.5982,-137.0001 148.5981,-133.5 138.5981,-130.0001 138.5982,-137.0001"/>
</g>
<!-- Node45 -->
<g id="node3" class="node">
<title>Node45</title>
<g id="a_node3"><a xlink:href="base58_8cpp.html#a0f74d1d6e7e982cad4b0e538acea4538" target="_top" xlink:title="Decode a base58&#45;encoded string (psz) into a byte vector (vchRet). ">
<polygon fill="#ffffff" stroke="#000000" points="297.457,-143.5 297.457,-161.5 381.8408,-161.5 381.8408,-143.5 297.457,-143.5"/>
<text text-anchor="middle" x="339.6489" y="-149.5" font-family="Helvetica,sans-Serif" font-size="10.00" fill="#000000">DecodeBase58</text>
</a>
</g>
</g>
<!-- Node44&#45;&gt;Node45 -->
<g id="edge2" class="edge">
<title>Node44&#45;&gt;Node45</title>
<path fill="none" stroke="#191970" d="M261.7667,-141.5026C270.2429,-142.6995 278.9495,-143.9289 287.3299,-145.1123"/>
<polygon fill="#191970" stroke="#191970" points="286.9618,-148.5949 297.3529,-146.5276 287.9405,-141.6637 286.9618,-148.5949"/>
</g>
<!-- Node47 -->
<g id="node5" class="node">
<title>Node47</title>
<g id="a_node5"><a xlink:href="_hash_8h.html#ab3f6c437460137530d86e09c2c102e99" target="_top" xlink:title="Compute the 256&#45;bit hash of an object. ">
<polygon fill="#ffffff" stroke="#000000" points="319.9766,-106.5 319.9766,-124.5 359.3213,-124.5 359.3213,-106.5 319.9766,-106.5"/>
<text text-anchor="middle" x="339.6489" y="-112.5" font-family="Helvetica,sans-Serif" font-size="10.00" fill="#000000">Hash</text>
</a>
</g>
</g>
<!-- Node44&#45;&gt;Node47 -->
<g id="edge4" class="edge">
<title>Node44&#45;&gt;Node47</title>
<path fill="none" stroke="#191970" d="M261.7667,-125.9185C278.25,-123.7135 295.6045,-121.392 309.7373,-119.5014"/>
<polygon fill="#191970" stroke="#191970" points="310.4013,-122.9438 319.8489,-118.1487 309.4731,-116.0056 310.4013,-122.9438"/>
</g>
<!-- Node46 -->
<g id="node4" class="node">
<title>Node46</title>
<g id="a_node4"><a xlink:href="utilstrencodings_8h.html#aa30de1eac29287732050df7168cde03a" target="_top" xlink:title="Tests if the given character is a whitespace character. ">
<polygon fill="#ffffff" stroke="#000000" points="437.8457,-143.5 437.8457,-161.5 489.9785,-161.5 489.9785,-143.5 437.8457,-143.5"/>
<text text-anchor="middle" x="463.9121" y="-149.5" font-family="Helvetica,sans-Serif" font-size="10.00" fill="#000000">IsSpace</text>
</a>
</g>
</g>
<!-- Node45&#45;&gt;Node46 -->
<g id="edge3" class="edge">
<title>Node45&#45;&gt;Node46</title>
<path fill="none" stroke="#191970" d="M382.0657,-152.5C396.7449,-152.5 413.0619,-152.5 427.2402,-152.5"/>
<polygon fill="#191970" stroke="#191970" points="427.603,-156.0001 437.603,-152.5 427.603,-149.0001 427.603,-156.0001"/>
</g>
<!-- Node48 -->
<g id="node6" class="node">
<title>Node48</title>
<g id="a_node6"><a xlink:href="class_c_hash3.html#a3dc880cbca561109d8de7c7ffdd5691e" target="_top" xlink:title="CHash3::Write">
<polygon fill="#ffffff" stroke="#000000" points="423.4927,-106.5 423.4927,-124.5 504.3315,-124.5 504.3315,-106.5 423.4927,-106.5"/>
<text text-anchor="middle" x="463.9121" y="-112.5" font-family="Helvetica,sans-Serif" font-size="10.00" fill="#000000">CHash3::Write</text>
</a>
</g>
</g>
<!-- Node47&#45;&gt;Node48 -->
<g id="edge5" class="edge">
<title>Node47&#45;&gt;Node48</title>
<path fill="none" stroke="#191970" d="M359.3388,-115.5C373.8992,-115.5 394.4164,-115.5 413.4253,-115.5"/>
<polygon fill="#191970" stroke="#191970" points="413.4849,-119.0001 423.4849,-115.5 413.4849,-112.0001 413.4849,-119.0001"/>
</g>
<!-- Node53 -->
<g id="node11" class="node">
<title>Node53</title>
<g id="a_node11"><a xlink:href="class_c_hash3.html#a28921734337c77f3589c0b1a740e2f30" target="_top" xlink:title="CHash3::Finalize">
<polygon fill="#ffffff" stroke="#000000" points="417.8408,-69.5 417.8408,-87.5 509.9834,-87.5 509.9834,-69.5 417.8408,-69.5"/>
<text text-anchor="middle" x="463.9121" y="-75.5" font-family="Helvetica,sans-Serif" font-size="10.00" fill="#000000">CHash3::Finalize</text>
</a>
</g>
</g>
<!-- Node47&#45;&gt;Node53 -->
<g id="edge10" class="edge">
<title>Node47&#45;&gt;Node53</title>
<path fill="none" stroke="#191970" d="M359.3388,-109.6372C376.6679,-104.4774 402.4345,-96.8053 424.0542,-90.3679"/>
<polygon fill="#191970" stroke="#191970" points="425.0651,-93.7188 433.6505,-87.5106 423.0675,-87.0099 425.0651,-93.7188"/>
</g>
<!-- Node49 -->
<g id="node7" class="node">
<title>Node49</title>
<g id="a_node7"><a xlink:href="class_c_s_h_a3.html#a439a0fade3fa1b7989c6cf053d39161b" target="_top" xlink:title="CSHA3::Write">
<polygon fill="#ffffff" stroke="#000000" points="551.6353,-106.5 551.6353,-124.5 629.6909,-124.5 629.6909,-106.5 551.6353,-106.5"/>
<text text-anchor="middle" x="590.6631" y="-112.5" font-family="Helvetica,sans-Serif" font-size="10.00" fill="#000000">CSHA3::Write</text>
</a>
</g>
</g>
<!-- Node48&#45;&gt;Node49 -->
<g id="edge6" class="edge">
<title>Node48&#45;&gt;Node49</title>
<path fill="none" stroke="#191970" d="M504.3654,-115.5C516.1386,-115.5 529.1315,-115.5 541.3839,-115.5"/>
<polygon fill="#191970" stroke="#191970" points="541.4588,-119.0001 551.4588,-115.5 541.4587,-112.0001 541.4588,-119.0001"/>
</g>
<!-- Node50 -->
<g id="node8" class="node">
<title>Node50</title>
<g id="a_node8"><a xlink:href="class_s_h_a3__256.html#a8356957ea403c5da326fc6899b91ea71" target="_top" xlink:title="Updates the hash with more data. ">
<polygon fill="#ffffff" stroke="#000000" points="671.6138,-108.5 671.6138,-126.5 772.1255,-126.5 772.1255,-108.5 671.6138,-108.5"/>
<text text-anchor="middle" x="721.8696" y="-114.5" font-family="Helvetica,sans-Serif" font-size="10.00" fill="#000000">SHA3_256::update</text>
</a>
</g>
</g>
<!-- Node49&#45;&gt;Node50 -->
<g id="edge7" class="edge">
<title>Node49&#45;&gt;Node50</title>
<path fill="none" stroke="#191970" d="M630.0294,-116.1001C639.8682,-116.25 650.6497,-116.4144 661.2562,-116.5761"/>
<polygon fill="#191970" stroke="#191970" points="661.2831,-120.0768 671.3353,-116.7297 661.3898,-113.0776 661.2831,-120.0768"/>
</g>
<!-- Node51 -->
<g id="node9" class="node">
<title>Node51</title>
<g id="a_node9"><a xlink:href="class_keccak_core.html#aaaa0355ccec0f469ac8eb577bdf853ed" target="_top" xlink:title="Updates the Keccak sponge function with more input data. ">
<polygon fill="#ffffff" stroke="#000000" points="808.3965,-111.5 808.3965,-129.5 915.0068,-129.5 915.0068,-111.5 808.3965,-111.5"/>
<text text-anchor="middle" x="861.7017" y="-117.5" font-family="Helvetica,sans-Serif" font-size="10.00" fill="#000000">KeccakCore::update</text>
</a>
</g>
</g>
<!-- Node50&#45;&gt;Node51 -->
<g id="edge8" class="edge">
<title>Node50&#45;&gt;Node51</title>
<path fill="none" stroke="#191970" d="M772.3522,-118.5831C780.6738,-118.7616 789.3944,-118.9487 797.989,-119.1331"/>
<polygon fill="#191970" stroke="#191970" points="797.9161,-122.6322 807.9889,-119.3476 798.0663,-115.6338 797.9161,-122.6322"/>
</g>
<!-- Node52 -->
<g id="node10" class="node">
<title>Node52</title>
<g id="a_node10"><a xlink:href="class_keccak_core.html#aba3225c7a4ceff3580236a900b72a1c3" target="_top" xlink:title="Transform the state with the KECCAK&#45;p sponge function with b = 1600. ">
<polygon fill="#ffffff" stroke="#000000" points="951.0068,-74.5 951.0068,-92.5 1063.7158,-92.5 1063.7158,-74.5 951.0068,-74.5"/>
<text text-anchor="middle" x="1007.3613" y="-80.5" font-family="Helvetica,sans-Serif" font-size="10.00" fill="#000000">KeccakCore::keccakp</text>
</a>
</g>
</g>
<!-- Node51&#45;&gt;Node52 -->
<g id="edge9" class="edge">
<title>Node51&#45;&gt;Node52</title>
<path fill="none" stroke="#191970" d="M897.334,-111.4488C916.8041,-106.5031 941.1225,-100.3258 961.9419,-95.0373"/>
<polygon fill="#191970" stroke="#191970" points="963.0142,-98.3761 971.8447,-92.5218 961.2908,-91.5916 963.0142,-98.3761"/>
</g>
<!-- Node53&#45;&gt;Node49 -->
<g id="edge22" class="edge">
<title>Node53&#45;&gt;Node49</title>
<path fill="none" stroke="#191970" d="M494.9189,-87.5512C511.3381,-92.3442 531.7197,-98.2938 549.4524,-103.4702"/>
<polygon fill="#191970" stroke="#191970" points="548.957,-106.9715 559.5371,-106.414 550.9185,-100.252 548.957,-106.9715"/>
</g>
<!-- Node54 -->
<g id="node12" class="node">
<title>Node54</title>
<g id="a_node12"><a xlink:href="class_c_s_h_a3.html#a7aa515a9a0fa6d72667d74897f699ae9" target="_top" xlink:title="CSHA3::Finalize">
<polygon fill="#ffffff" stroke="#000000" points="545.9834,-69.5 545.9834,-87.5 635.3428,-87.5 635.3428,-69.5 545.9834,-69.5"/>
<text text-anchor="middle" x="590.6631" y="-75.5" font-family="Helvetica,sans-Serif" font-size="10.00" fill="#000000">CSHA3::Finalize</text>
</a>
</g>
</g>
<!-- Node53&#45;&gt;Node54 -->
<g id="edge11" class="edge">
<title>Node53&#45;&gt;Node54</title>
<path fill="none" stroke="#191970" d="M510.0307,-78.5C518.2836,-78.5 526.9592,-78.5 535.4369,-78.5"/>
<polygon fill="#191970" stroke="#191970" points="535.6381,-82.0001 545.6381,-78.5 535.638,-75.0001 535.6381,-82.0001"/>
</g>
<!-- Node60 -->
<g id="node18" class="node">
<title>Node60</title>
<g id="a_node18"><a xlink:href="class_c_s_h_a3.html#a9d77a24312b66dcd026dfbed1d917dc1" target="_top" xlink:title="CSHA3::Reset">
<polygon fill="#ffffff" stroke="#000000" points="550.1509,-27.5 550.1509,-45.5 631.1753,-45.5 631.1753,-27.5 550.1509,-27.5"/>
<text text-anchor="middle" x="590.6631" y="-33.5" font-family="Helvetica,sans-Serif" font-size="10.00" fill="#000000">CSHA3::Reset</text>
</a>
</g>
</g>
<!-- Node53&#45;&gt;Node60 -->
<g id="edge19" class="edge">
<title>Node53&#45;&gt;Node60</title>
<path fill="none" stroke="#191970" d="M491.1034,-69.4899C509.274,-63.469 533.4126,-55.4704 553.3706,-48.8572"/>
<polygon fill="#191970" stroke="#191970" points="554.6879,-52.1079 563.0794,-45.6401 552.4861,-45.4632 554.6879,-52.1079"/>
</g>
<!-- Node55 -->
<g id="node13" class="node">
<title>Node55</title>
<g id="a_node13"><a xlink:href="class_s_h_a3__256.html#a8fe7cad1f83bd1bae1a0d521324247a1" target="_top" xlink:title="Finalizes the hashing process and returns the hash. ">
<polygon fill="#ffffff" stroke="#000000" points="671.3428,-69.5 671.3428,-87.5 772.3965,-87.5 772.3965,-69.5 671.3428,-69.5"/>
<text text-anchor="middle" x="721.8696" y="-75.5" font-family="Helvetica,sans-Serif" font-size="10.00" fill="#000000">SHA3_256::finalize</text>
</a>
</g>
</g>
<!-- Node54&#45;&gt;Node55 -->
<g id="edge12" class="edge">
<title>Node54&#45;&gt;Node55</title>
<path fill="none" stroke="#191970" d="M635.45,-78.5C643.6671,-78.5 652.3703,-78.5 660.9655,-78.5"/>
<polygon fill="#191970" stroke="#191970" points="660.9701,-82.0001 670.9701,-78.5 660.9701,-75.0001 660.9701,-82.0001"/>
</g>
<!-- Node56 -->
<g id="node14" class="node">
<title>Node56</title>
<g id="a_node14"><a xlink:href="class_keccak_core.html#a97852ee4381ced17ee6d21704cf0b4d7" target="_top" xlink:title="Pads the last block of input data to blockSize(). ">
<polygon fill="#ffffff" stroke="#000000" points="815.3472,-74.5 815.3472,-92.5 908.0562,-92.5 908.0562,-74.5 815.3472,-74.5"/>
<text text-anchor="middle" x="861.7017" y="-80.5" font-family="Helvetica,sans-Serif" font-size="10.00" fill="#000000">KeccakCore::pad</text>
</a>
</g>
</g>
<!-- Node55&#45;&gt;Node56 -->
<g id="edge13" class="edge">
<title>Node55&#45;&gt;Node56</title>
<path fill="none" stroke="#191970" d="M772.7478,-80.3193C783.2812,-80.6959 794.4387,-81.0949 805.1603,-81.4782"/>
<polygon fill="#191970" stroke="#191970" points="805.1529,-84.9801 815.2717,-81.8398 805.4031,-77.9846 805.1529,-84.9801"/>
</g>
<!-- Node57 -->
<g id="node15" class="node">
<title>Node57</title>
<g id="a_node15"><a xlink:href="class_keccak_core.html#aad83ece853c0cc15fcab947fdcba924f" target="_top" xlink:title="Extracts data from the Keccak sponge function. ">
<polygon fill="#ffffff" stroke="#000000" points="808.6846,-37.5 808.6846,-55.5 914.7188,-55.5 914.7188,-37.5 808.6846,-37.5"/>
<text text-anchor="middle" x="861.7017" y="-43.5" font-family="Helvetica,sans-Serif" font-size="10.00" fill="#000000">KeccakCore::extract</text>
</a>
</g>
</g>
<!-- Node55&#45;&gt;Node57 -->
<g id="edge15" class="edge">
<title>Node55&#45;&gt;Node57</title>
<path fill="none" stroke="#191970" d="M761.5658,-69.4157C777.2123,-65.835 795.3592,-61.6822 811.8724,-57.9032"/>
<polygon fill="#191970" stroke="#191970" points="812.939,-61.2497 821.9062,-55.607 811.3774,-54.4261 812.939,-61.2497"/>
</g>
<!-- Node56&#45;&gt;Node52 -->
<g id="edge14" class="edge">
<title>Node56&#45;&gt;Node52</title>
<path fill="none" stroke="#191970" d="M908.1898,-83.5C918.5802,-83.5 929.7973,-83.5 940.8207,-83.5"/>
<polygon fill="#191970" stroke="#191970" points="940.8607,-87.0001 950.8606,-83.5 940.8606,-80.0001 940.8607,-87.0001"/>
</g>
<!-- Node57&#45;&gt;Node52 -->
<g id="edge16" class="edge">
<title>Node57&#45;&gt;Node52</title>
<path fill="none" stroke="#191970" d="M897.334,-55.5512C916.8041,-60.4969 941.1225,-66.6742 961.9419,-71.9627"/>
<polygon fill="#191970" stroke="#191970" points="961.2908,-75.4084 971.8447,-74.4782 963.0142,-68.6239 961.2908,-75.4084"/>
</g>
<!-- Node58 -->
<g id="node16" class="node">
<title>Node58</title>
<g id="a_node16"><a xlink:href="glibc__compat_8cpp.html#a0f46826ab0466591e136db24394923cf" target="_top" xlink:title="memcpy">
<polygon fill="#ffffff" stroke="#000000" points="980.4697,-37.5 980.4697,-55.5 1034.2529,-55.5 1034.2529,-37.5 980.4697,-37.5"/>
<text text-anchor="middle" x="1007.3613" y="-43.5" font-family="Helvetica,sans-Serif" font-size="10.00" fill="#000000">memcpy</text>
</a>
</g>
</g>
<!-- Node57&#45;&gt;Node58 -->
<g id="edge17" class="edge">
<title>Node57&#45;&gt;Node58</title>
<path fill="none" stroke="#191970" d="M915.1128,-46.5C933.2292,-46.5 953.0749,-46.5 969.7022,-46.5"/>
<polygon fill="#191970" stroke="#191970" points="970.1134,-50.0001 980.1134,-46.5 970.1134,-43.0001 970.1134,-50.0001"/>
</g>
<!-- Node59 -->
<g id="node17" class="node">
<title>Node59</title>
<g id="a_node17"><a xlink:href="glibc__compat_8cpp.html#a9778d49e9029dd75bc53ecbbf9f5e9a1" target="_top" xlink:title="memmove">
<polygon fill="#ffffff" stroke="#000000" points="1099.7158,-37.5 1099.7158,-55.5 1162.3906,-55.5 1162.3906,-37.5 1099.7158,-37.5"/>
<text text-anchor="middle" x="1131.0532" y="-43.5" font-family="Helvetica,sans-Serif" font-size="10.00" fill="#000000">memmove</text>
</a>
</g>
</g>
<!-- Node58&#45;&gt;Node59 -->
<g id="edge18" class="edge">
<title>Node58&#45;&gt;Node59</title>
<path fill="none" stroke="#191970" d="M1034.506,-46.5C1050.6319,-46.5 1071.4114,-46.5 1089.5595,-46.5"/>
<polygon fill="#191970" stroke="#191970" points="1089.6044,-50.0001 1099.6043,-46.5 1089.6043,-43.0001 1089.6044,-50.0001"/>
</g>
<!-- Node61 -->
<g id="node19" class="node">
<title>Node61</title>
<g id="a_node19"><a xlink:href="class_s_h_a3__256.html#a57b5f29347a733e04fe47d60621f3202" target="_top" xlink:title="Resets the hash ready for a new hashing process. ">
<polygon fill="#ffffff" stroke="#000000" points="675.791,-18.5 675.791,-36.5 767.9482,-36.5 767.9482,-18.5 675.791,-18.5"/>
<text text-anchor="middle" x="721.8696" y="-24.5" font-family="Helvetica,sans-Serif" font-size="10.00" fill="#000000">SHA3_256::reset</text>
</a>
</g>
</g>
<!-- Node60&#45;&gt;Node61 -->
<g id="edge20" class="edge">
<title>Node60&#45;&gt;Node61</title>
<path fill="none" stroke="#191970" d="M631.4584,-33.7017C642.1712,-32.9668 653.9189,-32.161 665.2972,-31.3805"/>
<polygon fill="#191970" stroke="#191970" points="665.8654,-34.8499 675.6025,-30.6737 665.3864,-27.8663 665.8654,-34.8499"/>
</g>
<!-- Node62 -->
<g id="node20" class="node">
<title>Node62</title>
<g id="a_node20"><a xlink:href="class_keccak_core.html#a5a322eb7e3b5c1eaad127c9c6e6a529b" target="_top" xlink:title="Resets the Keccak sponge function ready for a new session. ">
<polygon fill="#ffffff" stroke="#000000" points="812.5737,-.5 812.5737,-18.5 910.8296,-18.5 910.8296,-.5 812.5737,-.5"/>
<text text-anchor="middle" x="861.7017" y="-6.5" font-family="Helvetica,sans-Serif" font-size="10.00" fill="#000000">KeccakCore::reset</text>
</a>
</g>
</g>
<!-- Node61&#45;&gt;Node62 -->
<g id="edge21" class="edge">
<title>Node61&#45;&gt;Node62</title>
<path fill="none" stroke="#191970" d="M768.0434,-21.5562C778.9953,-20.1464 790.8292,-18.6231 802.2788,-17.1493"/>
<polygon fill="#191970" stroke="#191970" points="802.7387,-20.619 812.2099,-15.8709 801.8449,-13.6763 802.7387,-20.619"/>
</g>
</g>
</svg>
