<?xml version="1.0" encoding="UTF-8" standalone="no"?>
<!DOCTYPE svg PUBLIC "-//W3C//DTD SVG 1.1//EN"
 "http://www.w3.org/Graphics/SVG/1.1/DTD/svg11.dtd">
<!-- Generated by graphviz version 2.40.1 (20161225.0304)
 -->
<!-- Title: src/bench/lockedpool.cpp Pages: 1 -->
<svg width="952pt" height="147pt"
 viewBox="0.00 0.00 951.92 147.00" xmlns="http://www.w3.org/2000/svg" xmlns:xlink="http://www.w3.org/1999/xlink">
<g id="graph0" class="graph" transform="scale(1 1) rotate(0) translate(4 143)">
<title>src/bench/lockedpool.cpp</title>
<polygon fill="#ffffff" stroke="transparent" points="-4,4 -4,-143 947.9185,-143 947.9185,4 -4,4"/>
<!-- Node0 -->
<g id="node1" class="node">
<title>Node0</title>
<polygon fill="#bfbfbf" stroke="#000000" points="392.1924,-120.5 392.1924,-138.5 521.0391,-138.5 521.0391,-120.5 392.1924,-120.5"/>
<text text-anchor="middle" x="456.6157" y="-126.5" font-family="Helvetica,sans-Serif" font-size="10.00" fill="#000000">src/bench/lockedpool.cpp</text>
</g>
<!-- Node1 -->
<g id="node2" class="node">
<title>Node1</title>
<g id="a_node2"><a xlink:href="bench_2bench_8h.html" target="_top" xlink:title="bench/bench.h">
<polygon fill="#ffffff" stroke="#000000" points="236.8105,-65.5 236.8105,-83.5 318.4209,-83.5 318.4209,-65.5 236.8105,-65.5"/>
<text text-anchor="middle" x="277.6157" y="-71.5" font-family="Helvetica,sans-Serif" font-size="10.00" fill="#000000">bench/bench.h</text>
</a>
</g>
</g>
<!-- Node0&#45;&gt;Node1 -->
<g id="edge1" class="edge">
<title>Node0&#45;&gt;Node1</title>
<path fill="none" stroke="#191970" d="M427.0575,-120.4179C396.911,-111.155 349.9723,-96.7325 316.7549,-86.526"/>
<polygon fill="#191970" stroke="#191970" points="317.5073,-83.0958 306.9203,-83.5042 315.4513,-89.787 317.5073,-83.0958"/>
</g>
<!-- Node6 -->
<g id="node7" class="node">
<title>Node6</title>
<polygon fill="#ffffff" stroke="#bfbfbf" points="0,-5.5 0,-23.5 43.2314,-23.5 43.2314,-5.5 0,-5.5"/>
<text text-anchor="middle" x="21.6157" y="-11.5" font-family="Helvetica,sans-Serif" font-size="10.00" fill="#000000">vector</text>
</g>
<!-- Node0&#45;&gt;Node6 -->
<g id="edge18" class="edge">
<title>Node0&#45;&gt;Node6</title>
<path fill="none" stroke="#191970" d="M402.5721,-120.4678C355.932,-112.2677 286.9146,-99.1619 227.6157,-84 148.6282,-63.804 128.5972,-58.5588 52.6157,-29 51.5913,-28.6015 50.5531,-28.1848 49.5084,-27.7548"/>
<polygon fill="#191970" stroke="#191970" points="50.6935,-24.4529 40.1292,-23.6486 47.8861,-30.8653 50.6935,-24.4529"/>
</g>
<!-- Node10 -->
<g id="node11" class="node">
<title>Node10</title>
<g id="a_node11"><a xlink:href="lockedpool_8h.html" target="_top" xlink:title="support/lockedpool.h">
<polygon fill="#ffffff" stroke="#000000" points="610.4731,-65.5 610.4731,-83.5 718.7583,-83.5 718.7583,-65.5 610.4731,-65.5"/>
<text text-anchor="middle" x="664.6157" y="-71.5" font-family="Helvetica,sans-Serif" font-size="10.00" fill="#000000">support/lockedpool.h</text>
</a>
</g>
</g>
<!-- Node0&#45;&gt;Node10 -->
<g id="edge10" class="edge">
<title>Node0&#45;&gt;Node10</title>
<path fill="none" stroke="#191970" d="M490.9627,-120.4179C526.4463,-111.0352 581.9505,-96.3586 620.6249,-86.1322"/>
<polygon fill="#191970" stroke="#191970" points="621.7905,-89.4444 630.5634,-83.5042 620.001,-82.6769 621.7905,-89.4444"/>
</g>
<!-- Node16 -->
<g id="node17" class="node">
<title>Node16</title>
<polygon fill="#ffffff" stroke="#bfbfbf" points="736.4434,-65.5 736.4434,-83.5 790.7881,-83.5 790.7881,-65.5 736.4434,-65.5"/>
<text text-anchor="middle" x="763.6157" y="-71.5" font-family="Helvetica,sans-Serif" font-size="10.00" fill="#000000">iostream</text>
</g>
<!-- Node0&#45;&gt;Node16 -->
<g id="edge17" class="edge">
<title>Node0&#45;&gt;Node16</title>
<path fill="none" stroke="#191970" d="M520.4463,-120.472C573.194,-112.6268 650.2272,-100.2874 725.969,-84.2103"/>
<polygon fill="#191970" stroke="#191970" points="727.1183,-87.5434 736.1608,-82.0223 725.6489,-80.6994 727.1183,-87.5434"/>
</g>
<!-- Node2 -->
<g id="node3" class="node">
<title>Node2</title>
<polygon fill="#ffffff" stroke="#bfbfbf" points="61.2119,-5.5 61.2119,-23.5 120.0195,-23.5 120.0195,-5.5 61.2119,-5.5"/>
<text text-anchor="middle" x="90.6157" y="-11.5" font-family="Helvetica,sans-Serif" font-size="10.00" fill="#000000">functional</text>
</g>
<!-- Node1&#45;&gt;Node2 -->
<g id="edge2" class="edge">
<title>Node1&#45;&gt;Node2</title>
<path fill="none" stroke="#191970" d="M246.2647,-65.4331C216.1916,-56.6012 169.5815,-42.5603 129.6157,-29 127.7688,-28.3733 125.8776,-27.7175 123.972,-27.0458"/>
<polygon fill="#191970" stroke="#191970" points="125.0573,-23.7166 114.463,-23.6143 122.6812,-30.301 125.0573,-23.7166"/>
</g>
<!-- Node3 -->
<g id="node4" class="node">
<title>Node3</title>
<polygon fill="#ffffff" stroke="#bfbfbf" points="138.229,-5.5 138.229,-23.5 177.0024,-23.5 177.0024,-5.5 138.229,-5.5"/>
<text text-anchor="middle" x="157.6157" y="-11.5" font-family="Helvetica,sans-Serif" font-size="10.00" fill="#000000">limits</text>
</g>
<!-- Node1&#45;&gt;Node3 -->
<g id="edge3" class="edge">
<title>Node1&#45;&gt;Node3</title>
<path fill="none" stroke="#191970" d="M259.3903,-65.3873C239.5403,-55.4623 207.5802,-39.4822 184.7721,-28.0782"/>
<polygon fill="#191970" stroke="#191970" points="186.129,-24.8436 175.6195,-23.5019 182.9985,-31.1046 186.129,-24.8436"/>
</g>
<!-- Node4 -->
<g id="node5" class="node">
<title>Node4</title>
<polygon fill="#ffffff" stroke="#bfbfbf" points="558.8892,-5.5 558.8892,-23.5 594.3423,-23.5 594.3423,-5.5 558.8892,-5.5"/>
<text text-anchor="middle" x="576.6157" y="-11.5" font-family="Helvetica,sans-Serif" font-size="10.00" fill="#000000">map</text>
</g>
<!-- Node1&#45;&gt;Node4 -->
<g id="edge4" class="edge">
<title>Node1&#45;&gt;Node4</title>
<path fill="none" stroke="#191970" d="M318.728,-71.8163C372.897,-67.3431 470.5568,-56.017 549.6157,-29 550.6479,-28.6473 551.6878,-28.2581 552.7278,-27.8405"/>
<polygon fill="#191970" stroke="#191970" points="554.317,-30.9608 561.8735,-23.5346 551.3352,-24.6276 554.317,-30.9608"/>
</g>
<!-- Node5 -->
<g id="node6" class="node">
<title>Node5</title>
<polygon fill="#ffffff" stroke="#bfbfbf" points="195.3892,-5.5 195.3892,-23.5 235.8423,-23.5 235.8423,-5.5 195.3892,-5.5"/>
<text text-anchor="middle" x="215.6157" y="-11.5" font-family="Helvetica,sans-Serif" font-size="10.00" fill="#000000">string</text>
</g>
<!-- Node1&#45;&gt;Node5 -->
<g id="edge5" class="edge">
<title>Node1&#45;&gt;Node5</title>
<path fill="none" stroke="#191970" d="M268.1993,-65.3873C258.731,-56.2245 243.93,-41.9009 232.4401,-30.7817"/>
<polygon fill="#191970" stroke="#191970" points="234.7408,-28.1376 225.1208,-23.6985 229.8729,-33.1678 234.7408,-28.1376"/>
</g>
<!-- Node1&#45;&gt;Node6 -->
<g id="edge6" class="edge">
<title>Node1&#45;&gt;Node6</title>
<path fill="none" stroke="#191970" d="M236.6245,-69.2056C190.9407,-62.6203 115.2551,-49.6552 52.6157,-29 51.205,-28.5348 49.7742,-28.0222 48.3407,-27.4759"/>
<polygon fill="#191970" stroke="#191970" points="49.5977,-24.2073 39.0248,-23.5263 46.8654,-30.652 49.5977,-24.2073"/>
</g>
<!-- Node7 -->
<g id="node8" class="node">
<title>Node7</title>
<polygon fill="#ffffff" stroke="#bfbfbf" points="254.3276,-5.5 254.3276,-23.5 300.9038,-23.5 300.9038,-5.5 254.3276,-5.5"/>
<text text-anchor="middle" x="277.6157" y="-11.5" font-family="Helvetica,sans-Serif" font-size="10.00" fill="#000000">chrono</text>
</g>
<!-- Node1&#45;&gt;Node7 -->
<g id="edge7" class="edge">
<title>Node1&#45;&gt;Node7</title>
<path fill="none" stroke="#191970" d="M277.6157,-65.3873C277.6157,-57.0174 277.6157,-44.3414 277.6157,-33.735"/>
<polygon fill="#191970" stroke="#191970" points="281.1158,-33.6984 277.6157,-23.6985 274.1158,-33.6985 281.1158,-33.6984"/>
</g>
<!-- Node8 -->
<g id="node9" class="node">
<title>Node8</title>
<polygon fill="#ffffff" stroke="#bfbfbf" points="318.8154,-.5 318.8154,-28.5 420.416,-28.5 420.416,-.5 318.8154,-.5"/>
<text text-anchor="start" x="326.8154" y="-16.5" font-family="Helvetica,sans-Serif" font-size="10.00" fill="#000000">boost/preprocessor</text>
<text text-anchor="middle" x="369.6157" y="-6.5" font-family="Helvetica,sans-Serif" font-size="10.00" fill="#000000">/cat.hpp</text>
</g>
<!-- Node1&#45;&gt;Node8 -->
<g id="edge8" class="edge">
<title>Node1&#45;&gt;Node8</title>
<path fill="none" stroke="#191970" d="M291.5885,-65.3873C304.2276,-57.1445 323.2705,-44.7252 339.3794,-34.2193"/>
<polygon fill="#191970" stroke="#191970" points="341.5035,-37.0126 347.9677,-28.6183 337.6796,-31.1494 341.5035,-37.0126"/>
</g>
<!-- Node9 -->
<g id="node10" class="node">
<title>Node9</title>
<polygon fill="#ffffff" stroke="#bfbfbf" points="438.8154,-.5 438.8154,-28.5 540.416,-28.5 540.416,-.5 438.8154,-.5"/>
<text text-anchor="start" x="446.8154" y="-16.5" font-family="Helvetica,sans-Serif" font-size="10.00" fill="#000000">boost/preprocessor</text>
<text text-anchor="middle" x="489.6157" y="-6.5" font-family="Helvetica,sans-Serif" font-size="10.00" fill="#000000">/stringize.hpp</text>
</g>
<!-- Node1&#45;&gt;Node9 -->
<g id="edge9" class="edge">
<title>Node1&#45;&gt;Node9</title>
<path fill="none" stroke="#191970" d="M309.814,-65.3873C341.7422,-56.351 391.4049,-42.2955 430.4532,-31.2441"/>
<polygon fill="#191970" stroke="#191970" points="431.4659,-34.595 440.1348,-28.504 429.5596,-27.8596 431.4659,-34.595"/>
</g>
<!-- Node10&#45;&gt;Node4 -->
<g id="edge13" class="edge">
<title>Node10&#45;&gt;Node4</title>
<path fill="none" stroke="#191970" d="M651.2504,-65.3873C637.2136,-55.8168 614.9191,-40.6159 598.3474,-29.3171"/>
<polygon fill="#191970" stroke="#191970" points="600.0525,-26.2435 589.8185,-23.5019 596.1091,-32.0271 600.0525,-26.2435"/>
</g>
<!-- Node11 -->
<g id="node12" class="node">
<title>Node11</title>
<polygon fill="#ffffff" stroke="#bfbfbf" points="612.4951,-5.5 612.4951,-23.5 660.7363,-23.5 660.7363,-5.5 612.4951,-5.5"/>
<text text-anchor="middle" x="636.6157" y="-11.5" font-family="Helvetica,sans-Serif" font-size="10.00" fill="#000000">stdint.h</text>
</g>
<!-- Node10&#45;&gt;Node11 -->
<g id="edge11" class="edge">
<title>Node10&#45;&gt;Node11</title>
<path fill="none" stroke="#191970" d="M660.3631,-65.3873C656.375,-56.8412 650.2917,-43.8057 645.2807,-33.0679"/>
<polygon fill="#191970" stroke="#191970" points="648.3089,-31.2802 640.9083,-23.6985 641.9656,-34.2404 648.3089,-31.2802"/>
</g>
<!-- Node12 -->
<g id="node13" class="node">
<title>Node12</title>
<polygon fill="#ffffff" stroke="#bfbfbf" points="679.1157,-5.5 679.1157,-23.5 708.1157,-23.5 708.1157,-5.5 679.1157,-5.5"/>
<text text-anchor="middle" x="693.2266" y="-11.5" font-family="Helvetica,sans-Serif" font-size="10.00" fill="#000000">list</text>
</g>
<!-- Node10&#45;&gt;Node12 -->
<g id="edge12" class="edge">
<title>Node10&#45;&gt;Node12</title>
<path fill="none" stroke="#191970" d="M669.0202,-65.3873C673.1934,-56.7531 679.5814,-43.5365 684.8014,-32.7366"/>
<polygon fill="#191970" stroke="#191970" points="687.9693,-34.2251 689.1698,-23.6985 681.6668,-31.1789 687.9693,-34.2251"/>
</g>
<!-- Node13 -->
<g id="node14" class="node">
<title>Node13</title>
<polygon fill="#ffffff" stroke="#bfbfbf" points="726,-5.5 726,-23.5 769.2314,-23.5 769.2314,-5.5 726,-5.5"/>
<text text-anchor="middle" x="747.6157" y="-11.5" font-family="Helvetica,sans-Serif" font-size="10.00" fill="#000000">mutex</text>
</g>
<!-- Node10&#45;&gt;Node13 -->
<g id="edge14" class="edge">
<title>Node10&#45;&gt;Node13</title>
<path fill="none" stroke="#191970" d="M677.2216,-65.3873C690.3383,-55.9054 711.0999,-40.897 726.6832,-29.6319"/>
<polygon fill="#191970" stroke="#191970" points="729.1094,-32.1969 735.1631,-23.5019 725.0084,-26.5239 729.1094,-32.1969"/>
</g>
<!-- Node14 -->
<g id="node15" class="node">
<title>Node14</title>
<polygon fill="#ffffff" stroke="#bfbfbf" points="787.5591,-5.5 787.5591,-23.5 839.6724,-23.5 839.6724,-5.5 787.5591,-5.5"/>
<text text-anchor="middle" x="813.6157" y="-11.5" font-family="Helvetica,sans-Serif" font-size="10.00" fill="#000000">memory</text>
</g>
<!-- Node10&#45;&gt;Node14 -->
<g id="edge15" class="edge">
<title>Node10&#45;&gt;Node14</title>
<path fill="none" stroke="#191970" d="M687.7951,-65.3508C710.8544,-56.2249 747.2293,-41.7643 778.6157,-29 779.8152,-28.5122 781.0372,-28.0136 782.2712,-27.5089"/>
<polygon fill="#191970" stroke="#191970" points="783.8727,-30.6347 791.7894,-23.5937 781.2098,-24.161 783.8727,-30.6347"/>
</g>
<!-- Node15 -->
<g id="node16" class="node">
<title>Node15</title>
<polygon fill="#ffffff" stroke="#bfbfbf" points="857.313,-5.5 857.313,-23.5 943.9185,-23.5 943.9185,-5.5 857.313,-5.5"/>
<text text-anchor="middle" x="900.6157" y="-11.5" font-family="Helvetica,sans-Serif" font-size="10.00" fill="#000000">unordered_map</text>
</g>
<!-- Node10&#45;&gt;Node15 -->
<g id="edge16" class="edge">
<title>Node10&#45;&gt;Node15</title>
<path fill="none" stroke="#191970" d="M702.7582,-65.4155C740.0288,-56.4569 798.3332,-42.2245 848.6157,-29 851.9807,-28.115 855.4633,-27.1817 858.9587,-26.2328"/>
<polygon fill="#191970" stroke="#191970" points="860.0387,-29.5659 868.7559,-23.5442 858.1862,-22.8155 860.0387,-29.5659"/>
</g>
</g>
</svg>
