<?xml version="1.0" encoding="UTF-8" standalone="no"?>
<!DOCTYPE svg PUBLIC "-//W3C//DTD SVG 1.1//EN"
 "http://www.w3.org/Graphics/SVG/1.1/DTD/svg11.dtd">
<!-- Generated by graphviz version 2.40.1 (20161225.0304)
 -->
<!-- Title: src/qt/bitcoinaddressvalidator.h Pages: 1 -->
<svg width="436pt" height="82pt"
 viewBox="0.00 0.00 435.63 82.00" xmlns="http://www.w3.org/2000/svg" xmlns:xlink="http://www.w3.org/1999/xlink">
<g id="graph0" class="graph" transform="scale(1 1) rotate(0) translate(4 78)">
<title>src/qt/bitcoinaddressvalidator.h</title>
<polygon fill="#ffffff" stroke="transparent" points="-4,4 -4,-78 431.6348,-78 431.6348,4 -4,4"/>
<!-- Node2 -->
<g id="node1" class="node">
<title>Node2</title>
<polygon fill="#bfbfbf" stroke="#000000" points="149.2808,-55.5 149.2808,-73.5 302.5806,-73.5 302.5806,-55.5 149.2808,-55.5"/>
<text text-anchor="middle" x="225.9307" y="-61.5" font-family="Helvetica,sans-Serif" font-size="10.00" fill="#000000">src/qt/bitcoinaddressvalidator.h</text>
</g>
<!-- Node3 -->
<g id="node2" class="node">
<title>Node3</title>
<g id="a_node2"><a xlink:href="bitcoinaddressvalidator_8cpp.html" target="_top" xlink:title="src/qt/bitcoinaddressvalidator.cpp">
<polygon fill="#ffffff" stroke="#000000" points="0,-.5 0,-18.5 163.8613,-18.5 163.8613,-.5 0,-.5"/>
<text text-anchor="middle" x="81.9307" y="-6.5" font-family="Helvetica,sans-Serif" font-size="10.00" fill="#000000">src/qt/bitcoinaddressvalidator.cpp</text>
</a>
</g>
</g>
<!-- Node2&#45;&gt;Node3 -->
<g id="edge1" class="edge">
<title>Node2&#45;&gt;Node3</title>
<path fill="none" stroke="#191970" d="M192.5027,-51.7324C165.9315,-41.5837 129.4159,-27.6367 105.7447,-18.5956"/>
<polygon fill="#191970" stroke="#191970" points="191.5614,-55.1194 202.152,-55.4179 194.059,-48.5801 191.5614,-55.1194"/>
</g>
<!-- Node4 -->
<g id="node3" class="node">
<title>Node4</title>
<g id="a_node3"><a xlink:href="guiutil_8cpp.html" target="_top" xlink:title="src/qt/guiutil.cpp">
<polygon fill="#ffffff" stroke="#000000" points="181.8027,-.5 181.8027,-18.5 270.0586,-18.5 270.0586,-.5 181.8027,-.5"/>
<text text-anchor="middle" x="225.9307" y="-6.5" font-family="Helvetica,sans-Serif" font-size="10.00" fill="#000000">src/qt/guiutil.cpp</text>
</a>
</g>
</g>
<!-- Node2&#45;&gt;Node4 -->
<g id="edge2" class="edge">
<title>Node2&#45;&gt;Node4</title>
<path fill="none" stroke="#191970" d="M225.9307,-45.383C225.9307,-36.3738 225.9307,-26.0373 225.9307,-18.7795"/>
<polygon fill="#191970" stroke="#191970" points="222.4308,-45.4178 225.9307,-55.4179 229.4308,-45.4179 222.4308,-45.4178"/>
</g>
<!-- Node5 -->
<g id="node4" class="node">
<title>Node5</title>
<g id="a_node4"><a xlink:href="qvalidatedlineedit_8cpp.html" target="_top" xlink:title="src/qt/qvalidatedlineedit.cpp">
<polygon fill="#ffffff" stroke="#000000" points="288.2266,-.5 288.2266,-18.5 427.6348,-18.5 427.6348,-.5 288.2266,-.5"/>
<text text-anchor="middle" x="357.9307" y="-6.5" font-family="Helvetica,sans-Serif" font-size="10.00" fill="#000000">src/qt/qvalidatedlineedit.cpp</text>
</a>
</g>
</g>
<!-- Node2&#45;&gt;Node5 -->
<g id="edge3" class="edge">
<title>Node2&#45;&gt;Node5</title>
<path fill="none" stroke="#191970" d="M257.2188,-51.4633C281.5188,-41.3383 314.5937,-27.5571 336.1012,-18.5956"/>
<polygon fill="#191970" stroke="#191970" points="255.6124,-48.3409 247.7278,-55.4179 258.3047,-54.8024 255.6124,-48.3409"/>
</g>
</g>
</svg>
