<?xml version="1.0" encoding="UTF-8" standalone="no"?>
<!DOCTYPE svg PUBLIC "-//W3C//DTD SVG 1.1//EN"
 "http://www.w3.org/Graphics/SVG/1.1/DTD/svg11.dtd">
<!-- Generated by graphviz version 2.40.1 (20161225.0304)
 -->
<!-- Title: scantxoutset Pages: 1 -->
<svg width="664pt" height="217pt"
 viewBox="0.00 0.00 664.06 217.00" xmlns="http://www.w3.org/2000/svg" xmlns:xlink="http://www.w3.org/1999/xlink">
<g id="graph0" class="graph" transform="scale(1 1) rotate(0) translate(4 213)">
<title>scantxoutset</title>
<polygon fill="#ffffff" stroke="transparent" points="-4,4 -4,-213 660.0557,-213 660.0557,4 -4,4"/>
<!-- Node115 -->
<g id="node1" class="node">
<title>Node115</title>
<polygon fill="#bfbfbf" stroke="#000000" points="0,-115.5 0,-133.5 72.1426,-133.5 72.1426,-115.5 0,-115.5"/>
<text text-anchor="middle" x="36.0713" y="-121.5" font-family="Helvetica,sans-Serif" font-size="10.00" fill="#000000">scantxoutset</text>
</g>
<!-- Node116 -->
<g id="node2" class="node">
<title>Node116</title>
<g id="a_node2"><a xlink:href="class_uni_value.html#a5a7394aeb8d5584db7a90c2c041726b1" target="_top" xlink:title="UniValue::size">
<polygon fill="#ffffff" stroke="#000000" points="296.2241,-190.5 296.2241,-208.5 375.4077,-208.5 375.4077,-190.5 296.2241,-190.5"/>
<text text-anchor="middle" x="335.8159" y="-196.5" font-family="Helvetica,sans-Serif" font-size="10.00" fill="#000000">UniValue::size</text>
</a>
</g>
</g>
<!-- Node115&#45;&gt;Node116 -->
<g id="edge1" class="edge">
<title>Node115&#45;&gt;Node116</title>
<path fill="none" stroke="#191970" d="M44.33,-133.6357C56.7345,-146.6603 81.5705,-170.1352 108.1426,-180.5 166.1509,-203.127 238.6277,-205.1483 286.016,-203.3268"/>
<polygon fill="#191970" stroke="#191970" points="286.1963,-206.8223 296.0265,-202.8704 285.8774,-199.8296 286.1963,-206.8223"/>
</g>
<!-- Node117 -->
<g id="node3" class="node">
<title>Node117</title>
<g id="a_node3"><a xlink:href="server_8cpp.html#a1d3e3ccc5d3ba3ee1314be41a2039e0f" target="_top" xlink:title="Type&#45;check arguments; throws JSONRPCError if wrong type given. ">
<polygon fill="#ffffff" stroke="#000000" points="127.7837,-152.5 127.7837,-170.5 214.9263,-170.5 214.9263,-152.5 127.7837,-152.5"/>
<text text-anchor="middle" x="171.355" y="-158.5" font-family="Helvetica,sans-Serif" font-size="10.00" fill="#000000">RPCTypeCheck</text>
</a>
</g>
</g>
<!-- Node115&#45;&gt;Node117 -->
<g id="edge2" class="edge">
<title>Node115&#45;&gt;Node117</title>
<path fill="none" stroke="#191970" d="M69.1654,-133.5512C87.0175,-138.4338 109.2583,-144.5166 128.4283,-149.7596"/>
<polygon fill="#191970" stroke="#191970" points="127.5645,-153.1518 138.1337,-152.414 129.4113,-146.3998 127.5645,-153.1518"/>
</g>
<!-- Node125 -->
<g id="node11" class="node">
<title>Node125</title>
<g id="a_node11"><a xlink:href="class_uni_value.html#a087ea6ccec615333371fa1aaf83ab7df" target="_top" xlink:title="UniValue::get_str">
<polygon fill="#ffffff" stroke="#000000" points="125.3691,-115.5 125.3691,-133.5 217.3408,-133.5 217.3408,-115.5 125.3691,-115.5"/>
<text text-anchor="middle" x="171.355" y="-121.5" font-family="Helvetica,sans-Serif" font-size="10.00" fill="#000000">UniValue::get_str</text>
</a>
</g>
</g>
<!-- Node115&#45;&gt;Node125 -->
<g id="edge11" class="edge">
<title>Node115&#45;&gt;Node125</title>
<path fill="none" stroke="#191970" d="M72.3248,-124.5C85.4248,-124.5 100.5428,-124.5 114.9596,-124.5"/>
<polygon fill="#191970" stroke="#191970" points="115.2945,-128.0001 125.2945,-124.5 115.2945,-121.0001 115.2945,-128.0001"/>
</g>
<!-- Node127 -->
<g id="node13" class="node">
<title>Node127</title>
<g id="a_node13"><a xlink:href="class_coins_view_scan_reserver.html#ae97d608dd699ec00814dc6074680f8a9" target="_top" xlink:title="CoinsViewScanReserver\l::reserve">
<polygon fill="#ffffff" stroke="#000000" points="108.1426,-68.5 108.1426,-96.5 234.5674,-96.5 234.5674,-68.5 108.1426,-68.5"/>
<text text-anchor="start" x="116.1426" y="-84.5" font-family="Helvetica,sans-Serif" font-size="10.00" fill="#000000">CoinsViewScanReserver</text>
<text text-anchor="middle" x="171.355" y="-74.5" font-family="Helvetica,sans-Serif" font-size="10.00" fill="#000000">::reserve</text>
</a>
</g>
</g>
<!-- Node115&#45;&gt;Node127 -->
<g id="edge13" class="edge">
<title>Node115&#45;&gt;Node127</title>
<path fill="none" stroke="#191970" d="M65.093,-115.4899C80.0942,-110.8327 98.9065,-104.9923 116.517,-99.5249"/>
<polygon fill="#191970" stroke="#191970" points="117.6325,-102.8435 126.1451,-96.5358 115.557,-96.1582 117.6325,-102.8435"/>
</g>
<!-- Node128 -->
<g id="node14" class="node">
<title>Node128</title>
<g id="a_node14"><a xlink:href="class_uni_value.html#abab649c2dbd593233de6364254456026" target="_top" xlink:title="UniValue::pushKV">
<polygon fill="#ffffff" stroke="#000000" points="123.1426,-31.5 123.1426,-49.5 219.5674,-49.5 219.5674,-31.5 123.1426,-31.5"/>
<text text-anchor="middle" x="171.355" y="-37.5" font-family="Helvetica,sans-Serif" font-size="10.00" fill="#000000">UniValue::pushKV</text>
</a>
</g>
</g>
<!-- Node115&#45;&gt;Node128 -->
<g id="edge14" class="edge">
<title>Node115&#45;&gt;Node128</title>
<path fill="none" stroke="#191970" d="M43.4999,-115.3874C55.5801,-101.1594 80.8887,-73.7244 108.1426,-58.5 111.7848,-56.4654 115.6761,-54.6448 119.671,-53.0185"/>
<polygon fill="#191970" stroke="#191970" points="120.9214,-56.2881 129.112,-49.5676 118.5182,-49.7135 120.9214,-56.2881"/>
</g>
<!-- Node117&#45;&gt;Node116 -->
<g id="edge3" class="edge">
<title>Node117&#45;&gt;Node116</title>
<path fill="none" stroke="#191970" d="M210.3299,-170.5055C233.2882,-175.8102 262.5351,-182.5679 287.0171,-188.2247"/>
<polygon fill="#191970" stroke="#191970" points="286.3048,-191.6522 296.8361,-190.4934 287.8808,-184.8319 286.3048,-191.6522"/>
</g>
<!-- Node118 -->
<g id="node4" class="node">
<title>Node118</title>
<g id="a_node4"><a xlink:href="class_uni_value.html#a3661be0f5580daceb23e5338e3a0df22" target="_top" xlink:title="UniValue::isNull">
<polygon fill="#ffffff" stroke="#000000" points="292.8916,-153.5 292.8916,-171.5 378.7402,-171.5 378.7402,-153.5 292.8916,-153.5"/>
<text text-anchor="middle" x="335.8159" y="-159.5" font-family="Helvetica,sans-Serif" font-size="10.00" fill="#000000">UniValue::isNull</text>
</a>
</g>
</g>
<!-- Node117&#45;&gt;Node118 -->
<g id="edge4" class="edge">
<title>Node117&#45;&gt;Node118</title>
<path fill="none" stroke="#191970" d="M214.9957,-161.7654C235.7798,-161.8917 260.8176,-162.044 282.6979,-162.177"/>
<polygon fill="#191970" stroke="#191970" points="282.8053,-165.6776 292.8264,-162.2386 282.8479,-158.6778 282.8053,-165.6776"/>
</g>
<!-- Node119 -->
<g id="node5" class="node">
<title>Node119</title>
<g id="a_node5"><a xlink:href="server_8cpp.html#a34ca526f05cc7f2281e634a5be48c121" target="_top" xlink:title="Type&#45;check one argument; throws JSONRPCError if wrong type given. ">
<polygon fill="#ffffff" stroke="#000000" points="270.5674,-116.5 270.5674,-134.5 401.0645,-134.5 401.0645,-116.5 270.5674,-116.5"/>
<text text-anchor="middle" x="335.8159" y="-122.5" font-family="Helvetica,sans-Serif" font-size="10.00" fill="#000000">RPCTypeCheckArgument</text>
</a>
</g>
</g>
<!-- Node117&#45;&gt;Node119 -->
<g id="edge5" class="edge">
<title>Node117&#45;&gt;Node119</title>
<path fill="none" stroke="#191970" d="M212.8554,-152.4157C234.6556,-147.6437 261.5653,-141.7532 284.6472,-136.7007"/>
<polygon fill="#191970" stroke="#191970" points="285.5936,-140.0765 294.6139,-134.519 284.0968,-133.2384 285.5936,-140.0765"/>
</g>
<!-- Node120 -->
<g id="node6" class="node">
<title>Node120</title>
<g id="a_node6"><a xlink:href="class_uni_value.html#a5b33bfd4be1574e610eee5a7cdae77d1" target="_top" xlink:title="UniValue::type">
<polygon fill="#ffffff" stroke="#000000" points="439.916,-153.5 439.916,-171.5 520.2178,-171.5 520.2178,-153.5 439.916,-153.5"/>
<text text-anchor="middle" x="480.0669" y="-159.5" font-family="Helvetica,sans-Serif" font-size="10.00" fill="#000000">UniValue::type</text>
</a>
</g>
</g>
<!-- Node119&#45;&gt;Node120 -->
<g id="edge6" class="edge">
<title>Node119&#45;&gt;Node120</title>
<path fill="none" stroke="#191970" d="M371.1037,-134.5512C390.3138,-139.4786 414.2896,-145.6283 434.8566,-150.9037"/>
<polygon fill="#191970" stroke="#191970" points="434.0874,-154.3196 444.6435,-153.414 435.8267,-147.5391 434.0874,-154.3196"/>
</g>
<!-- Node122 -->
<g id="node8" class="node">
<title>Node122</title>
<g id="a_node8"><a xlink:href="rpc_2protocol_8cpp.html#a40b75d3d265c4a2e1d5fe3e129743884" target="_top" xlink:title="JSONRPCError">
<polygon fill="#ffffff" stroke="#000000" points="437.0645,-116.5 437.0645,-134.5 523.0693,-134.5 523.0693,-116.5 437.0645,-116.5"/>
<text text-anchor="middle" x="480.0669" y="-122.5" font-family="Helvetica,sans-Serif" font-size="10.00" fill="#000000">JSONRPCError</text>
</a>
</g>
</g>
<!-- Node119&#45;&gt;Node122 -->
<g id="edge8" class="edge">
<title>Node119&#45;&gt;Node122</title>
<path fill="none" stroke="#191970" d="M401.1884,-125.5C409.6796,-125.5 418.2966,-125.5 426.5633,-125.5"/>
<polygon fill="#191970" stroke="#191970" points="426.8113,-129.0001 436.8113,-125.5 426.8112,-122.0001 426.8113,-129.0001"/>
</g>
<!-- Node124 -->
<g id="node10" class="node">
<title>Node124</title>
<g id="a_node10"><a xlink:href="univalue_8h.html#aa037153cdbc98dd3683ff1918dc70932" target="_top" xlink:title="uvTypeName">
<polygon fill="#ffffff" stroke="#000000" points="442.6064,-79.5 442.6064,-97.5 517.5273,-97.5 517.5273,-79.5 442.6064,-79.5"/>
<text text-anchor="middle" x="480.0669" y="-85.5" font-family="Helvetica,sans-Serif" font-size="10.00" fill="#000000">uvTypeName</text>
</a>
</g>
</g>
<!-- Node119&#45;&gt;Node124 -->
<g id="edge10" class="edge">
<title>Node119&#45;&gt;Node124</title>
<path fill="none" stroke="#191970" d="M371.1037,-116.4488C390.3138,-111.5214 414.2896,-105.3717 434.8566,-100.0963"/>
<polygon fill="#191970" stroke="#191970" points="435.8267,-103.4609 444.6435,-97.586 434.0874,-96.6804 435.8267,-103.4609"/>
</g>
<!-- Node121 -->
<g id="node7" class="node">
<title>Node121</title>
<g id="a_node7"><a xlink:href="class_uni_value.html#a2dbc9c5aa9d209338b0bef650f3d1987" target="_top" xlink:title="UniValue::getType">
<polygon fill="#ffffff" stroke="#000000" points="559.0693,-153.5 559.0693,-171.5 656.0557,-171.5 656.0557,-153.5 559.0693,-153.5"/>
<text text-anchor="middle" x="607.5625" y="-159.5" font-family="Helvetica,sans-Serif" font-size="10.00" fill="#000000">UniValue::getType</text>
</a>
</g>
</g>
<!-- Node120&#45;&gt;Node121 -->
<g id="edge7" class="edge">
<title>Node120&#45;&gt;Node121</title>
<path fill="none" stroke="#191970" d="M520.4073,-162.5C529.4079,-162.5 539.1315,-162.5 548.7071,-162.5"/>
<polygon fill="#191970" stroke="#191970" points="548.9982,-166.0001 558.9982,-162.5 548.9981,-159.0001 548.9982,-166.0001"/>
</g>
<!-- Node123 -->
<g id="node9" class="node">
<title>Node123</title>
<g id="a_node9"><a xlink:href="util_8h.html#a96c5fc7111f69f7dcaba992d95d13e03" target="_top" xlink:title="error">
<polygon fill="#ffffff" stroke="#000000" points="589.0059,-116.5 589.0059,-134.5 626.1191,-134.5 626.1191,-116.5 589.0059,-116.5"/>
<text text-anchor="middle" x="607.5625" y="-122.5" font-family="Helvetica,sans-Serif" font-size="10.00" fill="#000000">error</text>
</a>
</g>
</g>
<!-- Node122&#45;&gt;Node123 -->
<g id="edge9" class="edge">
<title>Node122&#45;&gt;Node123</title>
<path fill="none" stroke="#191970" d="M523.2311,-125.5C541.6018,-125.5 562.5273,-125.5 578.938,-125.5"/>
<polygon fill="#191970" stroke="#191970" points="578.998,-129.0001 588.998,-125.5 578.9979,-122.0001 578.998,-129.0001"/>
</g>
<!-- Node126 -->
<g id="node12" class="node">
<title>Node126</title>
<g id="a_node12"><a xlink:href="class_uni_value.html#a4c9a5fa9114affbf31f6e346c032be12" target="_top" xlink:title="UniValue::getValStr">
<polygon fill="#ffffff" stroke="#000000" points="284.918,-79.5 284.918,-97.5 386.7139,-97.5 386.7139,-79.5 284.918,-79.5"/>
<text text-anchor="middle" x="335.8159" y="-85.5" font-family="Helvetica,sans-Serif" font-size="10.00" fill="#000000">UniValue::getValStr</text>
</a>
</g>
</g>
<!-- Node125&#45;&gt;Node126 -->
<g id="edge12" class="edge">
<title>Node125&#45;&gt;Node126</title>
<path fill="none" stroke="#191970" d="M212.8554,-115.4157C234.6556,-110.6437 261.5653,-104.7532 284.6472,-99.7007"/>
<polygon fill="#191970" stroke="#191970" points="285.5936,-103.0765 294.6139,-97.519 284.0968,-96.2384 285.5936,-103.0765"/>
</g>
<!-- Node129 -->
<g id="node15" class="node">
<title>Node129</title>
<g id="a_node15"><a xlink:href="class_uni_value.html#a85f3a2f520375b464fb506b2ede5c3df" target="_top" xlink:title="UniValue::findKey">
<polygon fill="#ffffff" stroke="#000000" points="288.4385,-37.5 288.4385,-55.5 383.1934,-55.5 383.1934,-37.5 288.4385,-37.5"/>
<text text-anchor="middle" x="335.8159" y="-43.5" font-family="Helvetica,sans-Serif" font-size="10.00" fill="#000000">UniValue::findKey</text>
</a>
</g>
</g>
<!-- Node128&#45;&gt;Node129 -->
<g id="edge15" class="edge">
<title>Node128&#45;&gt;Node129</title>
<path fill="none" stroke="#191970" d="M219.8092,-42.2677C238.1211,-42.9358 259.1377,-43.7026 278.208,-44.3983"/>
<polygon fill="#191970" stroke="#191970" points="278.1536,-47.8985 288.2746,-44.7656 278.4089,-40.9032 278.1536,-47.8985"/>
</g>
<!-- Node130 -->
<g id="node16" class="node">
<title>Node130</title>
<g id="a_node16"><a xlink:href="class_uni_value.html#a505a2087cb7d9ee51d24a97a5cc7910c" target="_top" xlink:title="UniValue::__pushKV">
<polygon fill="#ffffff" stroke="#000000" points="282.042,-.5 282.042,-18.5 389.5898,-18.5 389.5898,-.5 282.042,-.5"/>
<text text-anchor="middle" x="335.8159" y="-6.5" font-family="Helvetica,sans-Serif" font-size="10.00" fill="#000000">UniValue::__pushKV</text>
</a>
</g>
</g>
<!-- Node128&#45;&gt;Node130 -->
<g id="edge16" class="edge">
<title>Node128&#45;&gt;Node130</title>
<path fill="none" stroke="#191970" d="M219.366,-31.4502C237.774,-27.9804 258.9666,-23.9857 278.1848,-20.3631"/>
<polygon fill="#191970" stroke="#191970" points="278.8509,-23.7993 288.0295,-18.5075 277.5542,-16.9205 278.8509,-23.7993"/>
</g>
</g>
</svg>
