<?xml version="1.0" encoding="UTF-8" standalone="no"?>
<!DOCTYPE svg PUBLIC "-//W3C//DTD SVG 1.1//EN"
 "http://www.w3.org/Graphics/SVG/1.1/DTD/svg11.dtd">
<!-- Generated by graphviz version 2.40.1 (20161225.0304)
 -->
<!-- Title: blockToJSON Pages: 1 -->
<svg width="406pt" height="230pt"
 viewBox="0.00 0.00 405.73 230.00" xmlns="http://www.w3.org/2000/svg" xmlns:xlink="http://www.w3.org/1999/xlink">
<g id="graph0" class="graph" transform="scale(1 1) rotate(0) translate(4 226)">
<title>blockToJSON</title>
<polygon fill="#ffffff" stroke="transparent" points="-4,4 -4,-226 401.7344,-226 401.7344,4 -4,4"/>
<!-- Node15 -->
<g id="node1" class="node">
<title>Node15</title>
<polygon fill="#bfbfbf" stroke="#000000" points="0,-92.5 0,-110.5 76.5762,-110.5 76.5762,-92.5 0,-92.5"/>
<text text-anchor="middle" x="38.2881" y="-98.5" font-family="Helvetica,sans-Serif" font-size="10.00" fill="#000000">blockToJSON</text>
</g>
<!-- Node16 -->
<g id="node2" class="node">
<title>Node16</title>
<g id="a_node2"><a xlink:href="class_uni_value.html#abab649c2dbd593233de6364254456026" target="_top" xlink:title="UniValue::pushKV">
<polygon fill="#ffffff" stroke="#000000" points="135.1689,-185.5 135.1689,-203.5 231.5938,-203.5 231.5938,-185.5 135.1689,-185.5"/>
<text text-anchor="middle" x="183.3813" y="-191.5" font-family="Helvetica,sans-Serif" font-size="10.00" fill="#000000">UniValue::pushKV</text>
</a>
</g>
</g>
<!-- Node15&#45;&gt;Node16 -->
<g id="edge1" class="edge">
<title>Node15&#45;&gt;Node16</title>
<path fill="none" stroke="#191970" d="M44.7115,-110.6888C56.3464,-126.6187 82.5089,-159.3023 112.5762,-176.5 116.6945,-178.8556 121.1211,-180.9071 125.6779,-182.6931"/>
<polygon fill="#191970" stroke="#191970" points="124.5622,-186.0107 135.157,-185.9986 126.8671,-179.401 124.5622,-186.0107"/>
</g>
<!-- Node19 -->
<g id="node5" class="node">
<title>Node19</title>
<g id="a_node5"><a xlink:href="class_c_block_index.html#a98490a2788c65cdd6ae9002b004dd74c" target="_top" xlink:title="CBlockIndex::GetBlockHash">
<polygon fill="#ffffff" stroke="#000000" points="112.5762,-148.5 112.5762,-166.5 254.1865,-166.5 254.1865,-148.5 112.5762,-148.5"/>
<text text-anchor="middle" x="183.3813" y="-154.5" font-family="Helvetica,sans-Serif" font-size="10.00" fill="#000000">CBlockIndex::GetBlockHash</text>
</a>
</g>
</g>
<!-- Node15&#45;&gt;Node19 -->
<g id="edge4" class="edge">
<title>Node15&#45;&gt;Node19</title>
<path fill="none" stroke="#191970" d="M53.4781,-110.5503C68.1775,-118.9962 91.2972,-131.4691 112.5762,-139.5 118.5725,-141.7631 124.9603,-143.8341 131.3515,-145.7006"/>
<polygon fill="#191970" stroke="#191970" points="130.7704,-149.1713 141.3416,-148.4637 132.6365,-142.4246 130.7704,-149.1713"/>
</g>
<!-- Node20 -->
<g id="node6" class="node">
<title>Node20</title>
<g id="a_node6"><a xlink:href="classbase__blob.html#ad7263503f949fb3c6c520ebb1f28e378" target="_top" xlink:title="base_blob::GetHex">
<polygon fill="#ffffff" stroke="#000000" points="132.5762,-111.5 132.5762,-129.5 234.1865,-129.5 234.1865,-111.5 132.5762,-111.5"/>
<text text-anchor="middle" x="183.3813" y="-117.5" font-family="Helvetica,sans-Serif" font-size="10.00" fill="#000000">base_blob::GetHex</text>
</a>
</g>
</g>
<!-- Node15&#45;&gt;Node20 -->
<g id="edge5" class="edge">
<title>Node15&#45;&gt;Node20</title>
<path fill="none" stroke="#191970" d="M76.7895,-106.5418C90.7698,-108.3725 106.9317,-110.4889 122.3772,-112.5115"/>
<polygon fill="#191970" stroke="#191970" points="122.0236,-115.995 132.3935,-113.8231 122.9326,-109.0542 122.0236,-115.995"/>
</g>
<!-- Node21 -->
<g id="node7" class="node">
<title>Node21</title>
<g id="a_node7"><a xlink:href="class_c_chain.html#af1786dc229c215dea7f727c11df2c8dc" target="_top" xlink:title="Efficiently check whether a block is present in this chain. ">
<polygon fill="#ffffff" stroke="#000000" points="136.1943,-74.5 136.1943,-92.5 230.5684,-92.5 230.5684,-74.5 136.1943,-74.5"/>
<text text-anchor="middle" x="183.3813" y="-80.5" font-family="Helvetica,sans-Serif" font-size="10.00" fill="#000000">CChain::Contains</text>
</a>
</g>
</g>
<!-- Node15&#45;&gt;Node21 -->
<g id="edge6" class="edge">
<title>Node15&#45;&gt;Node21</title>
<path fill="none" stroke="#191970" d="M76.7895,-96.7236C91.8763,-94.8519 109.5037,-92.6651 126.0296,-90.6149"/>
<polygon fill="#191970" stroke="#191970" points="126.6515,-94.0647 136.1445,-89.3601 125.7896,-87.118 126.6515,-94.0647"/>
</g>
<!-- Node22 -->
<g id="node8" class="node">
<title>Node22</title>
<g id="a_node8"><a xlink:href="class_c_chain.html#ad4758bc8872ce065a9579f77c3171d40" target="_top" xlink:title="Return the maximal height in the chain. ">
<polygon fill="#ffffff" stroke="#000000" points="141.4751,-37.5 141.4751,-55.5 225.2876,-55.5 225.2876,-37.5 141.4751,-37.5"/>
<text text-anchor="middle" x="183.3813" y="-43.5" font-family="Helvetica,sans-Serif" font-size="10.00" fill="#000000">CChain::Height</text>
</a>
</g>
</g>
<!-- Node15&#45;&gt;Node22 -->
<g id="edge7" class="edge">
<title>Node15&#45;&gt;Node22</title>
<path fill="none" stroke="#191970" d="M54.7098,-92.4249C69.5068,-84.5204 92.0288,-73.157 112.5762,-65.5 119.6248,-62.8733 127.1927,-60.4468 134.6644,-58.268"/>
<polygon fill="#191970" stroke="#191970" points="135.6921,-61.615 144.3796,-55.5504 133.8064,-54.8737 135.6921,-61.615"/>
</g>
<!-- Node23 -->
<g id="node9" class="node">
<title>Node23</title>
<g id="a_node9"><a xlink:href="serialize_8h.html#adb5a4516b4946127a59c79d21efd61ca" target="_top" xlink:title="GetSerializeSize">
<polygon fill="#ffffff" stroke="#000000" points="138.4209,-.5 138.4209,-18.5 228.3418,-18.5 228.3418,-.5 138.4209,-.5"/>
<text text-anchor="middle" x="183.3813" y="-6.5" font-family="Helvetica,sans-Serif" font-size="10.00" fill="#000000">GetSerializeSize</text>
</a>
</g>
</g>
<!-- Node15&#45;&gt;Node23 -->
<g id="edge8" class="edge">
<title>Node15&#45;&gt;Node23</title>
<path fill="none" stroke="#191970" d="M44.9815,-92.356C56.8345,-76.8335 83.0654,-45.3736 112.5762,-28.5 117.6017,-25.6265 123.0765,-23.1743 128.6825,-21.0845"/>
<polygon fill="#191970" stroke="#191970" points="129.8155,-24.3961 138.1843,-17.899 127.5904,-17.7592 129.8155,-24.3961"/>
</g>
<!-- Node17 -->
<g id="node3" class="node">
<title>Node17</title>
<g id="a_node3"><a xlink:href="class_uni_value.html#a85f3a2f520375b464fb506b2ede5c3df" target="_top" xlink:title="UniValue::findKey">
<polygon fill="#ffffff" stroke="#000000" points="296.583,-203.5 296.583,-221.5 391.3379,-221.5 391.3379,-203.5 296.583,-203.5"/>
<text text-anchor="middle" x="343.9604" y="-209.5" font-family="Helvetica,sans-Serif" font-size="10.00" fill="#000000">UniValue::findKey</text>
</a>
</g>
</g>
<!-- Node16&#45;&gt;Node17 -->
<g id="edge2" class="edge">
<title>Node16&#45;&gt;Node17</title>
<path fill="none" stroke="#191970" d="M231.9961,-199.9494C249.0496,-201.861 268.3736,-204.0271 286.1093,-206.0152"/>
<polygon fill="#191970" stroke="#191970" points="286.0115,-209.5261 296.3391,-207.1619 286.7913,-202.5697 286.0115,-209.5261"/>
</g>
<!-- Node18 -->
<g id="node4" class="node">
<title>Node18</title>
<g id="a_node4"><a xlink:href="class_uni_value.html#a505a2087cb7d9ee51d24a97a5cc7910c" target="_top" xlink:title="UniValue::__pushKV">
<polygon fill="#ffffff" stroke="#000000" points="290.1865,-166.5 290.1865,-184.5 397.7344,-184.5 397.7344,-166.5 290.1865,-166.5"/>
<text text-anchor="middle" x="343.9604" y="-172.5" font-family="Helvetica,sans-Serif" font-size="10.00" fill="#000000">UniValue::__pushKV</text>
</a>
</g>
</g>
<!-- Node16&#45;&gt;Node18 -->
<g id="edge3" class="edge">
<title>Node16&#45;&gt;Node18</title>
<path fill="none" stroke="#191970" d="M231.9961,-188.7478C247.065,-186.9648 263.9066,-184.9721 279.8587,-183.0846"/>
<polygon fill="#191970" stroke="#191970" points="280.6661,-186.5136 290.1855,-181.8627 279.8435,-179.5621 280.6661,-186.5136"/>
</g>
</g>
</svg>
