<?xml version="1.0" encoding="UTF-8" standalone="no"?>
<!DOCTYPE svg PUBLIC "-//W3C//DTD SVG 1.1//EN"
 "http://www.w3.org/Graphics/SVG/1.1/DTD/svg11.dtd">
<!-- Generated by graphviz version 2.40.1 (20161225.0304)
 -->
<!-- Title: src/bloom.cpp Pages: 1 -->
<svg width="2377pt" height="477pt"
 viewBox="0.00 0.00 2377.47 477.00" xmlns="http://www.w3.org/2000/svg" xmlns:xlink="http://www.w3.org/1999/xlink">
<g id="graph0" class="graph" transform="scale(1 1) rotate(0) translate(4 473)">
<title>src/bloom.cpp</title>
<polygon fill="#ffffff" stroke="transparent" points="-4,4 -4,-473 2373.4727,-473 2373.4727,4 -4,4"/>
<!-- Node0 -->
<g id="node1" class="node">
<title>Node0</title>
<polygon fill="#bfbfbf" stroke="#000000" points="1183.064,-450.5 1183.064,-468.5 1261.3101,-468.5 1261.3101,-450.5 1183.064,-450.5"/>
<text text-anchor="middle" x="1222.187" y="-456.5" font-family="Helvetica,sans-Serif" font-size="10.00" fill="#000000">src/bloom.cpp</text>
</g>
<!-- Node1 -->
<g id="node2" class="node">
<title>Node1</title>
<g id="a_node2"><a xlink:href="bloom_8h.html" target="_top" xlink:title="bloom.h">
<polygon fill="#ffffff" stroke="#000000" points="1639.3989,-230.5 1639.3989,-248.5 1690.9751,-248.5 1690.9751,-230.5 1639.3989,-230.5"/>
<text text-anchor="middle" x="1665.187" y="-236.5" font-family="Helvetica,sans-Serif" font-size="10.00" fill="#000000">bloom.h</text>
</a>
</g>
</g>
<!-- Node0&#45;&gt;Node1 -->
<g id="edge1" class="edge">
<title>Node0&#45;&gt;Node1</title>
<path fill="none" stroke="#191970" d="M1261.4734,-452.9202C1302.9679,-445.4666 1370.0287,-431.9794 1426.187,-414 1485.9356,-394.8712 1500.379,-387.6578 1556.187,-359 1597.8881,-337.5862 1617.6548,-341.1947 1646.187,-304 1656.1787,-290.9749 1660.9264,-272.7968 1663.1764,-259.0573"/>
<polygon fill="#191970" stroke="#191970" points="1666.6954,-259.1437 1664.5392,-248.7706 1659.756,-258.2243 1666.6954,-259.1437"/>
</g>
<!-- Node18 -->
<g id="node19" class="node">
<title>Node18</title>
<polygon fill="#ffffff" stroke="#bfbfbf" points="243.3447,-55.5 243.3447,-73.5 291.0293,-73.5 291.0293,-55.5 243.3447,-55.5"/>
<text text-anchor="middle" x="267.187" y="-61.5" font-family="Helvetica,sans-Serif" font-size="10.00" fill="#000000">stdlib.h</text>
</g>
<!-- Node0&#45;&gt;Node18 -->
<g id="edge119" class="edge">
<title>Node0&#45;&gt;Node18</title>
<path fill="none" stroke="#191970" d="M1182.749,-457.6642C986.3465,-448.268 123.187,-403.8797 123.187,-349.5 123.187,-349.5 123.187,-349.5 123.187,-179.5 123.187,-147.4776 120.4936,-133.5548 142.187,-110 165.6321,-84.5431 204.4616,-73.2987 232.6306,-68.3506"/>
<polygon fill="#191970" stroke="#191970" points="233.5143,-71.7548 242.8504,-66.746 232.4285,-64.8396 233.5143,-71.7548"/>
</g>
<!-- Node38 -->
<g id="node25" class="node">
<title>Node38</title>
<g id="a_node25"><a xlink:href="transaction_8h.html" target="_top" xlink:title="primitives/transaction.h">
<polygon fill="#ffffff" stroke="#000000" points="1076.0566,-285.5 1076.0566,-303.5 1194.3174,-303.5 1194.3174,-285.5 1076.0566,-285.5"/>
<text text-anchor="middle" x="1135.187" y="-291.5" font-family="Helvetica,sans-Serif" font-size="10.00" fill="#000000">primitives/transaction.h</text>
</a>
</g>
</g>
<!-- Node0&#45;&gt;Node38 -->
<g id="edge34" class="edge">
<title>Node0&#45;&gt;Node38</title>
<path fill="none" stroke="#191970" d="M1217.2602,-450.1561C1203.3231,-423.7235 1163.4279,-348.0604 1144.8822,-312.8875"/>
<polygon fill="#191970" stroke="#191970" points="1147.8199,-310.9546 1140.0597,-303.7414 1141.6279,-314.2195 1147.8199,-310.9546"/>
</g>
<!-- Node40 -->
<g id="node27" class="node">
<title>Node40</title>
<g id="a_node27"><a xlink:href="script_8h.html" target="_top" xlink:title="script/script.h">
<polygon fill="#ffffff" stroke="#000000" points="1141.7363,-230.5 1141.7363,-248.5 1216.6377,-248.5 1216.6377,-230.5 1141.7363,-230.5"/>
<text text-anchor="middle" x="1179.187" y="-236.5" font-family="Helvetica,sans-Serif" font-size="10.00" fill="#000000">script/script.h</text>
</a>
</g>
</g>
<!-- Node0&#45;&gt;Node40 -->
<g id="edge80" class="edge">
<title>Node0&#45;&gt;Node40</title>
<path fill="none" stroke="#191970" d="M1222.3852,-450.1729C1222.6932,-423.6708 1221.8215,-345.9041 1203.187,-285 1200.2572,-275.4245 1195.2899,-265.5084 1190.6318,-257.3871"/>
<polygon fill="#191970" stroke="#191970" points="1193.6138,-255.5543 1185.4464,-248.8057 1187.6226,-259.1746 1193.6138,-255.5543"/>
</g>
<!-- Node46 -->
<g id="node33" class="node">
<title>Node46</title>
<g id="a_node33"><a xlink:href="_hash_8h.html" target="_top" xlink:title="hash.h">
<polygon fill="#ffffff" stroke="#000000" points="598.1748,-285.5 598.1748,-303.5 644.1992,-303.5 644.1992,-285.5 598.1748,-285.5"/>
<text text-anchor="middle" x="621.187" y="-291.5" font-family="Helvetica,sans-Serif" font-size="10.00" fill="#000000">hash.h</text>
</a>
</g>
</g>
<!-- Node0&#45;&gt;Node46 -->
<g id="edge62" class="edge">
<title>Node0&#45;&gt;Node46</title>
<path fill="none" stroke="#191970" d="M1183.2402,-450.4569C1145.5267,-441.5861 1086.7843,-427.4675 1036.187,-414 893.2385,-375.9512 724.133,-325.5714 654.0947,-304.467"/>
<polygon fill="#191970" stroke="#191970" points="655.0797,-301.1084 644.4949,-301.5706 653.0577,-307.81 655.0797,-301.1084"/>
</g>
<!-- Node56 -->
<g id="node40" class="node">
<title>Node56</title>
<g id="a_node40"><a xlink:href="standard_8h.html" target="_top" xlink:title="script/standard.h">
<polygon fill="#ffffff" stroke="#000000" points="1327.2241,-395.5 1327.2241,-413.5 1417.1499,-413.5 1417.1499,-395.5 1327.2241,-395.5"/>
<text text-anchor="middle" x="1372.187" y="-401.5" font-family="Helvetica,sans-Serif" font-size="10.00" fill="#000000">script/standard.h</text>
</a>
</g>
</g>
<!-- Node0&#45;&gt;Node56 -->
<g id="edge81" class="edge">
<title>Node0&#45;&gt;Node56</title>
<path fill="none" stroke="#191970" d="M1246.9565,-450.4179C1271.7833,-441.3147 1310.2009,-427.2283 1337.9389,-417.0576"/>
<polygon fill="#191970" stroke="#191970" points="1339.4462,-420.2329 1347.6301,-413.5042 1337.0364,-413.6608 1339.4462,-420.2329"/>
</g>
<!-- Node60 -->
<g id="node44" class="node">
<title>Node60</title>
<g id="a_node44"><a xlink:href="random_8h.html" target="_top" xlink:title="random.h">
<polygon fill="#ffffff" stroke="#000000" points="703.064,-285.5 703.064,-303.5 761.3101,-303.5 761.3101,-285.5 703.064,-285.5"/>
<text text-anchor="middle" x="732.187" y="-291.5" font-family="Helvetica,sans-Serif" font-size="10.00" fill="#000000">random.h</text>
</a>
</g>
</g>
<!-- Node0&#45;&gt;Node60 -->
<g id="edge91" class="edge">
<title>Node0&#45;&gt;Node60</title>
<path fill="none" stroke="#191970" d="M1195.1445,-450.3939C1112.4869,-422.5602 863.0945,-338.5811 768.818,-306.8349"/>
<polygon fill="#191970" stroke="#191970" points="769.74,-303.4524 759.1459,-303.578 767.5061,-310.0863 769.74,-303.4524"/>
</g>
<!-- Node62 -->
<g id="node46" class="node">
<title>Node62</title>
<g id="a_node46"><a xlink:href="streams_8h.html" target="_top" xlink:title="streams.h">
<polygon fill="#ffffff" stroke="#000000" points="1897.2363,-230.5 1897.2363,-248.5 1957.1377,-248.5 1957.1377,-230.5 1897.2363,-230.5"/>
<text text-anchor="middle" x="1927.187" y="-236.5" font-family="Helvetica,sans-Serif" font-size="10.00" fill="#000000">streams.h</text>
</a>
</g>
</g>
<!-- Node0&#45;&gt;Node62 -->
<g id="edge99" class="edge">
<title>Node0&#45;&gt;Node62</title>
<path fill="none" stroke="#191970" d="M1261.7203,-454.3818C1310.567,-447.5514 1395.9506,-433.9532 1467.187,-414 1634.1142,-367.244 1825.4821,-284.9474 1897.6218,-252.8495"/>
<polygon fill="#191970" stroke="#191970" points="1899.2919,-255.9369 1906.9948,-248.6625 1896.4368,-249.5456 1899.2919,-255.9369"/>
</g>
<!-- Node66 -->
<g id="node50" class="node">
<title>Node66</title>
<polygon fill="#ffffff" stroke="#bfbfbf" points="2322.9014,-395.5 2322.9014,-413.5 2369.4727,-413.5 2369.4727,-395.5 2322.9014,-395.5"/>
<text text-anchor="middle" x="2346.187" y="-401.5" font-family="Helvetica,sans-Serif" font-size="10.00" fill="#000000">math.h</text>
</g>
<!-- Node0&#45;&gt;Node66 -->
<g id="edge118" class="edge">
<title>Node0&#45;&gt;Node66</title>
<path fill="none" stroke="#191970" d="M1261.3317,-458.9601C1430.6532,-456.4558 2100.8437,-444.7598 2309.187,-414 2310.4418,-413.8147 2311.7156,-413.6042 2312.9985,-413.373"/>
<polygon fill="#191970" stroke="#191970" points="2313.796,-416.7818 2322.8501,-411.2795 2312.3409,-409.9347 2313.796,-416.7818"/>
</g>
<!-- Node2 -->
<g id="node3" class="node">
<title>Node2</title>
<g id="a_node3"><a xlink:href="serialize_8h.html" target="_top" xlink:title="serialize.h">
<polygon fill="#ffffff" stroke="#000000" points="1761.6772,-170.5 1761.6772,-188.5 1822.6968,-188.5 1822.6968,-170.5 1761.6772,-170.5"/>
<text text-anchor="middle" x="1792.187" y="-176.5" font-family="Helvetica,sans-Serif" font-size="10.00" fill="#000000">serialize.h</text>
</a>
</g>
</g>
<!-- Node1&#45;&gt;Node2 -->
<g id="edge2" class="edge">
<title>Node1&#45;&gt;Node2</title>
<path fill="none" stroke="#191970" d="M1684.4756,-230.3873C1705.6711,-220.3737 1739.913,-204.1964 1764.0908,-192.7738"/>
<polygon fill="#191970" stroke="#191970" points="1765.5864,-195.9382 1773.133,-188.5019 1762.5962,-189.609 1765.5864,-195.9382"/>
</g>
<!-- Node16 -->
<g id="node17" class="node">
<title>Node16</title>
<polygon fill="#ffffff" stroke="#bfbfbf" points="1495.5713,-110.5 1495.5713,-128.5 1538.8027,-128.5 1538.8027,-110.5 1495.5713,-110.5"/>
<text text-anchor="middle" x="1517.187" y="-116.5" font-family="Helvetica,sans-Serif" font-size="10.00" fill="#000000">vector</text>
</g>
<!-- Node1&#45;&gt;Node16 -->
<g id="edge33" class="edge">
<title>Node1&#45;&gt;Node16</title>
<path fill="none" stroke="#191970" d="M1653.1175,-230.18C1641.3348,-221.0466 1622.9316,-206.6886 1607.187,-194 1582.3495,-173.9834 1554.0634,-150.4446 1535.9391,-135.2651"/>
<polygon fill="#191970" stroke="#191970" points="1537.8287,-132.2818 1527.9177,-128.5369 1533.3301,-137.6449 1537.8287,-132.2818"/>
</g>
<!-- Node3 -->
<g id="node4" class="node">
<title>Node3</title>
<g id="a_node4"><a xlink:href="endian_8h.html" target="_top" xlink:title="compat/endian.h">
<polygon fill="#ffffff" stroke="#000000" points="848.2168,-110.5 848.2168,-128.5 938.1572,-128.5 938.1572,-110.5 848.2168,-110.5"/>
<text text-anchor="middle" x="893.187" y="-116.5" font-family="Helvetica,sans-Serif" font-size="10.00" fill="#000000">compat/endian.h</text>
</a>
</g>
</g>
<!-- Node2&#45;&gt;Node3 -->
<g id="edge3" class="edge">
<title>Node2&#45;&gt;Node3</title>
<path fill="none" stroke="#191970" d="M1770.9385,-170.4517C1764.9755,-168.2849 1758.4171,-166.2412 1752.187,-165 1407.4858,-96.3261 1312.2025,-161.003 962.187,-129 957.7315,-128.5926 953.1225,-128.1045 948.4976,-127.5676"/>
<polygon fill="#191970" stroke="#191970" points="948.7528,-124.0727 938.4005,-126.3265 947.8987,-131.0204 948.7528,-124.0727"/>
</g>
<!-- Node5 -->
<g id="node6" class="node">
<title>Node5</title>
<polygon fill="#ffffff" stroke="#bfbfbf" points="713.0664,-.5 713.0664,-18.5 761.3076,-18.5 761.3076,-.5 713.0664,-.5"/>
<text text-anchor="middle" x="737.187" y="-6.5" font-family="Helvetica,sans-Serif" font-size="10.00" fill="#000000">stdint.h</text>
</g>
<!-- Node2&#45;&gt;Node5 -->
<g id="edge14" class="edge">
<title>Node2&#45;&gt;Node5</title>
<path fill="none" stroke="#191970" d="M1783.1696,-170.4641C1767.3208,-155.187 1732.7628,-124.5039 1697.187,-110 1523.8632,-39.3377 922.0346,-15.471 771.5158,-10.5371"/>
<polygon fill="#191970" stroke="#191970" points="771.5778,-7.0374 761.4705,-10.2142 771.3528,-14.0337 771.5778,-7.0374"/>
</g>
<!-- Node6 -->
<g id="node7" class="node">
<title>Node6</title>
<polygon fill="#ffffff" stroke="#bfbfbf" points="1909.623,-55.5 1909.623,-73.5 1966.751,-73.5 1966.751,-55.5 1909.623,-55.5"/>
<text text-anchor="middle" x="1938.187" y="-61.5" font-family="Helvetica,sans-Serif" font-size="10.00" fill="#000000">algorithm</text>
</g>
<!-- Node2&#45;&gt;Node6 -->
<g id="edge7" class="edge">
<title>Node2&#45;&gt;Node6</title>
<path fill="none" stroke="#191970" d="M1786.6581,-170.3714C1778.7651,-156.0293 1766.6384,-128.0009 1780.187,-110 1794.5389,-90.9318 1857.551,-77.3614 1899.533,-70.2419"/>
<polygon fill="#191970" stroke="#191970" points="1900.1491,-73.6876 1909.4495,-68.6129 1899.0144,-66.7802 1900.1491,-73.6876"/>
</g>
<!-- Node7 -->
<g id="node8" class="node">
<title>Node7</title>
<polygon fill="#ffffff" stroke="#bfbfbf" points="1253.4014,-55.5 1253.4014,-73.5 1304.9727,-73.5 1304.9727,-55.5 1253.4014,-55.5"/>
<text text-anchor="middle" x="1279.187" y="-61.5" font-family="Helvetica,sans-Serif" font-size="10.00" fill="#000000">assert.h</text>
</g>
<!-- Node2&#45;&gt;Node7 -->
<g id="edge8" class="edge">
<title>Node2&#45;&gt;Node7</title>
<path fill="none" stroke="#191970" d="M1779.1465,-170.4526C1756.377,-155.1583 1707.3814,-124.4499 1661.187,-110 1596.9916,-89.9193 1397.3347,-73.2706 1315.1195,-67.0844"/>
<polygon fill="#191970" stroke="#191970" points="1315.2387,-63.5836 1305.0065,-66.3318 1314.7192,-70.5643 1315.2387,-63.5836"/>
</g>
<!-- Node8 -->
<g id="node9" class="node">
<title>Node8</title>
<polygon fill="#ffffff" stroke="#bfbfbf" points="2070.687,-110.5 2070.687,-128.5 2099.687,-128.5 2099.687,-110.5 2070.687,-110.5"/>
<text text-anchor="middle" x="2085.0786" y="-116.5" font-family="Helvetica,sans-Serif" font-size="10.00" fill="#000000">ios</text>
</g>
<!-- Node2&#45;&gt;Node8 -->
<g id="edge9" class="edge">
<title>Node2&#45;&gt;Node8</title>
<path fill="none" stroke="#191970" d="M1823.0432,-175.8422C1871.9281,-169.596 1970.1533,-155.2106 2060.4212,-129.0911"/>
<polygon fill="#191970" stroke="#191970" points="2061.6539,-132.3766 2070.2541,-126.189 2059.6723,-125.6629 2061.6539,-132.3766"/>
</g>
<!-- Node9 -->
<g id="node10" class="node">
<title>Node9</title>
<polygon fill="#ffffff" stroke="#bfbfbf" points="1422.8003,-110.5 1422.8003,-128.5 1461.5737,-128.5 1461.5737,-110.5 1422.8003,-110.5"/>
<text text-anchor="middle" x="1442.187" y="-116.5" font-family="Helvetica,sans-Serif" font-size="10.00" fill="#000000">limits</text>
</g>
<!-- Node2&#45;&gt;Node9 -->
<g id="edge10" class="edge">
<title>Node2&#45;&gt;Node9</title>
<path fill="none" stroke="#191970" d="M1769.6011,-170.3641C1763.9835,-168.3564 1757.9253,-166.4112 1752.187,-165 1636.3389,-136.5095 1603.6942,-149.6046 1486.187,-129 1481.5589,-128.1885 1476.6777,-127.2341 1471.9175,-126.2488"/>
<polygon fill="#191970" stroke="#191970" points="1472.3471,-122.7614 1461.8354,-124.0857 1470.8786,-129.6056 1472.3471,-122.7614"/>
</g>
<!-- Node10 -->
<g id="node11" class="node">
<title>Node10</title>
<polygon fill="#ffffff" stroke="#bfbfbf" points="2117.4604,-110.5 2117.4604,-128.5 2152.9136,-128.5 2152.9136,-110.5 2117.4604,-110.5"/>
<text text-anchor="middle" x="2135.187" y="-116.5" font-family="Helvetica,sans-Serif" font-size="10.00" fill="#000000">map</text>
</g>
<!-- Node2&#45;&gt;Node10 -->
<g id="edge11" class="edge">
<title>Node2&#45;&gt;Node10</title>
<path fill="none" stroke="#191970" d="M1822.7455,-176.608C1878.0822,-170.9499 1998.5628,-156.6996 2107.5894,-129.0414"/>
<polygon fill="#191970" stroke="#191970" points="2108.6206,-132.39 2117.4276,-126.5004 2106.87,-125.6124 2108.6206,-132.39"/>
</g>
<!-- Node11 -->
<g id="node12" class="node">
<title>Node11</title>
<polygon fill="#ffffff" stroke="#bfbfbf" points="1567.1304,-110.5 1567.1304,-128.5 1619.2437,-128.5 1619.2437,-110.5 1567.1304,-110.5"/>
<text text-anchor="middle" x="1593.187" y="-116.5" font-family="Helvetica,sans-Serif" font-size="10.00" fill="#000000">memory</text>
</g>
<!-- Node2&#45;&gt;Node11 -->
<g id="edge12" class="edge">
<title>Node2&#45;&gt;Node11</title>
<path fill="none" stroke="#191970" d="M1768.1665,-170.4883C1762.9232,-168.6065 1757.3871,-166.6843 1752.187,-165 1710.4094,-151.468 1661.7973,-137.8643 1629.4297,-129.1048"/>
<polygon fill="#191970" stroke="#191970" points="1630.0869,-125.6572 1619.5208,-126.4373 1628.2671,-132.4165 1630.0869,-125.6572"/>
</g>
<!-- Node12 -->
<g id="node13" class="node">
<title>Node12</title>
<polygon fill="#ffffff" stroke="#bfbfbf" points="2023.5171,-110.5 2023.5171,-128.5 2052.8569,-128.5 2052.8569,-110.5 2023.5171,-110.5"/>
<text text-anchor="middle" x="2038.187" y="-116.5" font-family="Helvetica,sans-Serif" font-size="10.00" fill="#000000">set</text>
</g>
<!-- Node2&#45;&gt;Node12 -->
<g id="edge13" class="edge">
<title>Node2&#45;&gt;Node12</title>
<path fill="none" stroke="#191970" d="M1822.8457,-172.0223C1872.2106,-159.9821 1968.3398,-136.5359 2013.5568,-125.5074"/>
<polygon fill="#191970" stroke="#191970" points="2014.514,-128.8766 2023.3998,-123.1066 2012.8552,-122.076 2014.514,-128.8766"/>
</g>
<!-- Node13 -->
<g id="node14" class="node">
<title>Node13</title>
<polygon fill="#ffffff" stroke="#bfbfbf" points="1332.9604,-110.5 1332.9604,-128.5 1373.4136,-128.5 1373.4136,-110.5 1332.9604,-110.5"/>
<text text-anchor="middle" x="1353.187" y="-116.5" font-family="Helvetica,sans-Serif" font-size="10.00" fill="#000000">string</text>
</g>
<!-- Node2&#45;&gt;Node13 -->
<g id="edge15" class="edge">
<title>Node2&#45;&gt;Node13</title>
<path fill="none" stroke="#191970" d="M1770.0493,-170.3988C1764.3137,-168.3403 1758.0888,-166.3628 1752.187,-165 1604.9886,-131.0096 1563.9782,-148.6294 1414.187,-129 1404.1976,-127.6909 1393.3197,-126.0624 1383.5527,-124.5254"/>
<polygon fill="#191970" stroke="#191970" points="1383.9127,-121.0385 1373.485,-122.9131 1382.8057,-127.9505 1383.9127,-121.0385"/>
</g>
<!-- Node14 -->
<g id="node15" class="node">
<title>Node14</title>
<polygon fill="#ffffff" stroke="#bfbfbf" points="1177.7905,-55.5 1177.7905,-73.5 1226.5835,-73.5 1226.5835,-55.5 1177.7905,-55.5"/>
<text text-anchor="middle" x="1202.187" y="-61.5" font-family="Helvetica,sans-Serif" font-size="10.00" fill="#000000">string.h</text>
</g>
<!-- Node2&#45;&gt;Node14 -->
<g id="edge16" class="edge">
<title>Node2&#45;&gt;Node14</title>
<path fill="none" stroke="#191970" d="M1767.4753,-170.4933C1735.2043,-158.6419 1680.546,-138.2364 1661.187,-129 1645.9125,-121.7123 1644.3148,-115.1296 1628.187,-110 1464.8354,-58.0447 1413.4679,-100.9646 1244.187,-74 1241.8199,-73.6229 1239.3869,-73.1913 1236.9417,-72.7247"/>
<polygon fill="#191970" stroke="#191970" points="1237.4597,-69.2578 1226.958,-70.6597 1236.0418,-76.1127 1237.4597,-69.2578"/>
</g>
<!-- Node15 -->
<g id="node16" class="node">
<title>Node15</title>
<polygon fill="#ffffff" stroke="#bfbfbf" points="1788.7954,-110.5 1788.7954,-128.5 1827.5786,-128.5 1827.5786,-110.5 1788.7954,-110.5"/>
<text text-anchor="middle" x="1808.187" y="-116.5" font-family="Helvetica,sans-Serif" font-size="10.00" fill="#000000">utility</text>
</g>
<!-- Node2&#45;&gt;Node15 -->
<g id="edge17" class="edge">
<title>Node2&#45;&gt;Node15</title>
<path fill="none" stroke="#191970" d="M1794.6171,-170.3873C1796.8725,-161.9293 1800.3006,-149.074 1803.1468,-138.4007"/>
<polygon fill="#191970" stroke="#191970" points="1806.5392,-139.2627 1805.7341,-128.6985 1799.7756,-137.459 1806.5392,-139.2627"/>
</g>
<!-- Node2&#45;&gt;Node16 -->
<g id="edge18" class="edge">
<title>Node2&#45;&gt;Node16</title>
<path fill="none" stroke="#191970" d="M1769.1277,-170.4117C1763.6316,-168.4494 1757.7465,-166.5125 1752.187,-165 1667.5683,-141.9793 1644.0345,-146.9019 1558.187,-129 1555.1381,-128.3642 1551.9679,-127.6768 1548.8012,-126.9725"/>
<polygon fill="#191970" stroke="#191970" points="1549.3786,-123.5145 1538.8512,-124.7082 1547.8253,-130.34 1549.3786,-123.5145"/>
</g>
<!-- Node17 -->
<g id="node18" class="node">
<title>Node17</title>
<g id="a_node18"><a xlink:href="prevector_8h.html" target="_top" xlink:title="prevector.h">
<polygon fill="#ffffff" stroke="#000000" points="971.4482,-110.5 971.4482,-128.5 1036.9258,-128.5 1036.9258,-110.5 971.4482,-110.5"/>
<text text-anchor="middle" x="1004.187" y="-116.5" font-family="Helvetica,sans-Serif" font-size="10.00" fill="#000000">prevector.h</text>
</a>
</g>
</g>
<!-- Node2&#45;&gt;Node17 -->
<g id="edge19" class="edge">
<title>Node2&#45;&gt;Node17</title>
<path fill="none" stroke="#191970" d="M1770.5088,-170.3634C1764.658,-168.2524 1758.2628,-166.2586 1752.187,-165 1615.9194,-136.7722 1185.0579,-123.9484 1047.1156,-120.4956"/>
<polygon fill="#191970" stroke="#191970" points="1047.0246,-116.9924 1036.9413,-120.2448 1046.852,-123.9903 1047.0246,-116.9924"/>
</g>
<!-- Node37 -->
<g id="node24" class="node">
<title>Node37</title>
<g id="a_node24"><a xlink:href="span_8h.html" target="_top" xlink:title="span.h">
<polygon fill="#ffffff" stroke="#000000" points="1921.1748,-110.5 1921.1748,-128.5 1967.1992,-128.5 1967.1992,-110.5 1921.1748,-110.5"/>
<text text-anchor="middle" x="1944.187" y="-116.5" font-family="Helvetica,sans-Serif" font-size="10.00" fill="#000000">span.h</text>
</a>
</g>
</g>
<!-- Node2&#45;&gt;Node37 -->
<g id="edge29" class="edge">
<title>Node2&#45;&gt;Node37</title>
<path fill="none" stroke="#191970" d="M1815.2725,-170.3873C1840.9771,-160.2407 1882.7136,-143.7658 1911.706,-132.3215"/>
<polygon fill="#191970" stroke="#191970" points="1913.3658,-135.4291 1921.3823,-128.5019 1910.7956,-128.9181 1913.3658,-135.4291"/>
</g>
<!-- Node4 -->
<g id="node5" class="node">
<title>Node4</title>
<g id="a_node5"><a xlink:href="byteswap_8h.html" target="_top" xlink:title="compat/byteswap.h">
<polygon fill="#ffffff" stroke="#000000" points="803.1084,-55.5 803.1084,-73.5 905.2656,-73.5 905.2656,-55.5 803.1084,-55.5"/>
<text text-anchor="middle" x="854.187" y="-61.5" font-family="Helvetica,sans-Serif" font-size="10.00" fill="#000000">compat/byteswap.h</text>
</a>
</g>
</g>
<!-- Node3&#45;&gt;Node4 -->
<g id="edge4" class="edge">
<title>Node3&#45;&gt;Node4</title>
<path fill="none" stroke="#191970" d="M886.747,-110.4179C881.3037,-102.7415 873.3479,-91.5217 866.6631,-82.0945"/>
<polygon fill="#191970" stroke="#191970" points="869.4064,-79.9123 860.767,-73.7795 863.6962,-83.9613 869.4064,-79.9123"/>
</g>
<!-- Node3&#45;&gt;Node5 -->
<g id="edge6" class="edge">
<title>Node3&#45;&gt;Node5</title>
<path fill="none" stroke="#191970" d="M901.0751,-110.2503C911.5176,-96.8339 927.1768,-71.7513 914.187,-55 896.8707,-32.6694 817.9592,-19.3858 771.552,-13.3705"/>
<polygon fill="#191970" stroke="#191970" points="771.7001,-9.8619 761.3435,-12.0962 770.833,-16.808 771.7001,-9.8619"/>
</g>
<!-- Node4&#45;&gt;Node5 -->
<g id="edge5" class="edge">
<title>Node4&#45;&gt;Node5</title>
<path fill="none" stroke="#191970" d="M834.8668,-55.4179C816.0678,-46.5807 787.2785,-33.0473 765.8181,-22.9591"/>
<polygon fill="#191970" stroke="#191970" points="767.0748,-19.6824 756.5359,-18.5956 764.0968,-26.0174 767.0748,-19.6824"/>
</g>
<!-- Node17&#45;&gt;Node5 -->
<g id="edge22" class="edge">
<title>Node17&#45;&gt;Node5</title>
<path fill="none" stroke="#191970" d="M996.672,-110.4542C984.4488,-96.3573 958.8313,-69.2872 931.187,-55 879.4187,-28.2449 811.7829,-16.9997 771.5747,-12.4373"/>
<polygon fill="#191970" stroke="#191970" points="771.7967,-8.9413 761.4835,-11.368 771.059,-15.9023 771.7967,-8.9413"/>
</g>
<!-- Node17&#45;&gt;Node7 -->
<g id="edge20" class="edge">
<title>Node17&#45;&gt;Node7</title>
<path fill="none" stroke="#191970" d="M1037.1228,-113.2077C1081.9696,-104.5954 1164.7329,-88.5433 1235.187,-74 1237.8227,-73.4559 1240.5455,-72.8863 1243.2843,-72.3079"/>
<polygon fill="#191970" stroke="#191970" points="1244.0955,-75.7137 1253.1453,-70.2045 1242.6352,-68.8677 1244.0955,-75.7137"/>
</g>
<!-- Node17&#45;&gt;Node14 -->
<g id="edge23" class="edge">
<title>Node17&#45;&gt;Node14</title>
<path fill="none" stroke="#191970" d="M1036.8827,-110.4179C1073.0266,-100.3779 1130.9923,-84.2763 1167.8003,-74.0519"/>
<polygon fill="#191970" stroke="#191970" points="1168.8869,-77.3826 1177.5853,-71.3338 1167.0133,-70.638 1168.8869,-77.3826"/>
</g>
<!-- Node17&#45;&gt;Node18 -->
<g id="edge21" class="edge">
<title>Node17&#45;&gt;Node18</title>
<path fill="none" stroke="#191970" d="M971.4111,-113.471C963.501,-112.1729 955.0593,-110.9171 947.187,-110 700.2739,-81.2338 400.6419,-69.0383 301.1228,-65.5895"/>
<polygon fill="#191970" stroke="#191970" points="301.1667,-62.0891 291.0535,-65.247 300.9287,-69.085 301.1667,-62.0891"/>
</g>
<!-- Node19 -->
<g id="node20" class="node">
<title>Node19</title>
<polygon fill="#ffffff" stroke="#bfbfbf" points="1765.0664,-55.5 1765.0664,-73.5 1813.3076,-73.5 1813.3076,-55.5 1765.0664,-55.5"/>
<text text-anchor="middle" x="1789.187" y="-61.5" font-family="Helvetica,sans-Serif" font-size="10.00" fill="#000000">cstddef</text>
</g>
<!-- Node17&#45;&gt;Node19 -->
<g id="edge24" class="edge">
<title>Node17&#45;&gt;Node19</title>
<path fill="none" stroke="#191970" d="M1037.4161,-117.1718C1165.2872,-108.2127 1624.9106,-76.0098 1754.7863,-66.9102"/>
<polygon fill="#191970" stroke="#191970" points="1755.2123,-70.3891 1764.9432,-66.1986 1754.723,-63.4062 1755.2123,-70.3891"/>
</g>
<!-- Node20 -->
<g id="node21" class="node">
<title>Node20</title>
<polygon fill="#ffffff" stroke="#bfbfbf" points="999.6255,-55.5 999.6255,-73.5 1046.7485,-73.5 1046.7485,-55.5 999.6255,-55.5"/>
<text text-anchor="middle" x="1023.187" y="-61.5" font-family="Helvetica,sans-Serif" font-size="10.00" fill="#000000">iterator</text>
</g>
<!-- Node17&#45;&gt;Node20 -->
<g id="edge25" class="edge">
<title>Node17&#45;&gt;Node20</title>
<path fill="none" stroke="#191970" d="M1007.3245,-110.4179C1009.8669,-103.0581 1013.5347,-92.441 1016.703,-83.2695"/>
<polygon fill="#191970" stroke="#191970" points="1020.0243,-84.3742 1019.9814,-73.7795 1013.4079,-82.0885 1020.0243,-84.3742"/>
</g>
<!-- Node21 -->
<g id="node22" class="node">
<title>Node21</title>
<polygon fill="#ffffff" stroke="#bfbfbf" points="1119.1206,-.5 1119.1206,-18.5 1181.2534,-18.5 1181.2534,-.5 1119.1206,-.5"/>
<text text-anchor="middle" x="1150.187" y="-6.5" font-family="Helvetica,sans-Serif" font-size="10.00" fill="#000000">type_traits</text>
</g>
<!-- Node17&#45;&gt;Node21 -->
<g id="edge26" class="edge">
<title>Node17&#45;&gt;Node21</title>
<path fill="none" stroke="#191970" d="M1037.1033,-111.3439C1070.1794,-102.5309 1118.0836,-87.88 1131.187,-74 1142.6953,-61.8096 1147.271,-42.9986 1149.0706,-28.8311"/>
<polygon fill="#191970" stroke="#191970" points="1152.5736,-28.9569 1149.9981,-18.6799 1145.6027,-28.3199 1152.5736,-28.9569"/>
</g>
<!-- Node22 -->
<g id="node23" class="node">
<title>Node22</title>
<g id="a_node23"><a xlink:href="compat_8h.html" target="_top" xlink:title="compat.h">
<polygon fill="#ffffff" stroke="#ff0000" points="1064.6206,-55.5 1064.6206,-73.5 1121.7534,-73.5 1121.7534,-55.5 1064.6206,-55.5"/>
<text text-anchor="middle" x="1093.187" y="-61.5" font-family="Helvetica,sans-Serif" font-size="10.00" fill="#000000">compat.h</text>
</a>
</g>
</g>
<!-- Node17&#45;&gt;Node22 -->
<g id="edge27" class="edge">
<title>Node17&#45;&gt;Node22</title>
<path fill="none" stroke="#191970" d="M1018.8836,-110.4179C1032.6684,-101.8992 1053.5148,-89.0166 1069.6219,-79.0627"/>
<polygon fill="#191970" stroke="#191970" points="1071.8019,-81.83 1078.4686,-73.5956 1068.1219,-75.8753 1071.8019,-81.83"/>
</g>
<!-- Node22&#45;&gt;Node21 -->
<g id="edge28" class="edge">
<title>Node22&#45;&gt;Node21</title>
<path fill="none" stroke="#191970" d="M1102.5994,-55.4179C1110.8829,-47.425 1123.1479,-35.5903 1133.1515,-25.9377"/>
<polygon fill="#191970" stroke="#191970" points="1135.8042,-28.2419 1140.5701,-18.7795 1130.9436,-23.2045 1135.8042,-28.2419"/>
</g>
<!-- Node37&#45;&gt;Node6 -->
<g id="edge32" class="edge">
<title>Node37&#45;&gt;Node6</title>
<path fill="none" stroke="#191970" d="M1943.1962,-110.4179C1942.4106,-103.2164 1941.2848,-92.8962 1940.2994,-83.8632"/>
<polygon fill="#191970" stroke="#191970" points="1943.7632,-83.3409 1939.1993,-73.7795 1936.8045,-84.1001 1943.7632,-83.3409"/>
</g>
<!-- Node37&#45;&gt;Node19 -->
<g id="edge31" class="edge">
<title>Node37&#45;&gt;Node19</title>
<path fill="none" stroke="#191970" d="M1920.9819,-111.2659C1894.9566,-102.0312 1852.5153,-86.9713 1822.8469,-76.4438"/>
<polygon fill="#191970" stroke="#191970" points="1823.9121,-73.108 1813.3174,-73.0624 1821.5712,-79.705 1823.9121,-73.108"/>
</g>
<!-- Node37&#45;&gt;Node21 -->
<g id="edge30" class="edge">
<title>Node37&#45;&gt;Node21</title>
<path fill="none" stroke="#191970" d="M1931.425,-110.4029C1910.0315,-95.713 1865.0514,-67.1853 1822.187,-55 1702.6656,-21.0229 1318.4535,-12.1015 1191.4046,-10.0513"/>
<polygon fill="#191970" stroke="#191970" points="1191.3642,-6.5503 1181.311,-9.8942 1191.2553,-13.5495 1191.3642,-6.5503"/>
</g>
<!-- Node38&#45;&gt;Node2 -->
<g id="edge53" class="edge">
<title>Node38&#45;&gt;Node2</title>
<path fill="none" stroke="#191970" d="M1194.5534,-293.8955C1320.2148,-291.9417 1609.0198,-283.6975 1700.187,-249 1730.4127,-237.4964 1759.1301,-212.8314 1776.2044,-196.1993"/>
<polygon fill="#191970" stroke="#191970" points="1779.0262,-198.3261 1783.6066,-188.7726 1774.0683,-193.3845 1779.0262,-198.3261"/>
</g>
<!-- Node38&#45;&gt;Node5 -->
<g id="edge35" class="edge">
<title>Node38&#45;&gt;Node5</title>
<path fill="none" stroke="#191970" d="M1076.019,-287.5149C1015.6252,-279.9064 919.3526,-266.4532 837.187,-249 825.8625,-246.5945 643.2104,-203.2034 636.187,-194 592.341,-136.5445 676.6636,-57.6486 717.1805,-24.8079"/>
<polygon fill="#191970" stroke="#191970" points="719.4421,-27.4813 725.0996,-18.5233 715.0907,-21.9981 719.4421,-27.4813"/>
</g>
<!-- Node39 -->
<g id="node26" class="node">
<title>Node39</title>
<g id="a_node26"><a xlink:href="amount_8h.html" target="_top" xlink:title="amount.h">
<polygon fill="#ffffff" stroke="#000000" points="687.3398,-230.5 687.3398,-248.5 745.0342,-248.5 745.0342,-230.5 687.3398,-230.5"/>
<text text-anchor="middle" x="716.187" y="-236.5" font-family="Helvetica,sans-Serif" font-size="10.00" fill="#000000">amount.h</text>
</a>
</g>
</g>
<!-- Node38&#45;&gt;Node39 -->
<g id="edge36" class="edge">
<title>Node38&#45;&gt;Node39</title>
<path fill="none" stroke="#191970" d="M1076.0432,-286.7365C989.0728,-275.3203 829.0359,-254.3131 755.2853,-244.6322"/>
<polygon fill="#191970" stroke="#191970" points="755.4197,-241.1199 745.0492,-243.2886 754.5086,-248.0604 755.4197,-241.1199"/>
</g>
<!-- Node38&#45;&gt;Node40 -->
<g id="edge38" class="edge">
<title>Node38&#45;&gt;Node40</title>
<path fill="none" stroke="#191970" d="M1142.4527,-285.4179C1148.6571,-277.6624 1157.755,-266.29 1165.3442,-256.8035"/>
<polygon fill="#191970" stroke="#191970" points="1168.2495,-258.7746 1171.7634,-248.7795 1162.7834,-254.4017 1168.2495,-258.7746"/>
</g>
<!-- Node44 -->
<g id="node31" class="node">
<title>Node44</title>
<g id="a_node31"><a xlink:href="uint256_8h.html" target="_top" xlink:title="uint256.h">
<polygon fill="#ffffff" stroke="#000000" points="846.6133,-230.5 846.6133,-248.5 903.7607,-248.5 903.7607,-230.5 846.6133,-230.5"/>
<text text-anchor="middle" x="875.187" y="-236.5" font-family="Helvetica,sans-Serif" font-size="10.00" fill="#000000">uint256.h</text>
</a>
</g>
</g>
<!-- Node38&#45;&gt;Node44 -->
<g id="edge54" class="edge">
<title>Node38&#45;&gt;Node44</title>
<path fill="none" stroke="#191970" d="M1092.5444,-285.4795C1042.8842,-274.9744 961.5697,-257.7733 913.7334,-247.6541"/>
<polygon fill="#191970" stroke="#191970" points="914.2778,-244.1918 903.7699,-245.5464 912.829,-251.0403 914.2778,-244.1918"/>
</g>
<!-- Node39&#45;&gt;Node5 -->
<g id="edge37" class="edge">
<title>Node39&#45;&gt;Node5</title>
<path fill="none" stroke="#191970" d="M687.1535,-238.6207C627.6581,-235.6379 500.3089,-222.5372 535.187,-165 553.1176,-135.4206 579.1783,-152.8958 604.187,-129 631.6891,-102.7217 619.5172,-81.1016 647.187,-55 663.1645,-39.928 685.096,-28.7013 703.3089,-21.1706"/>
<polygon fill="#191970" stroke="#191970" points="704.6902,-24.3883 712.7122,-17.4676 702.1252,-17.8751 704.6902,-24.3883"/>
</g>
<!-- Node40&#45;&gt;Node2 -->
<g id="edge44" class="edge">
<title>Node40&#45;&gt;Node2</title>
<path fill="none" stroke="#191970" d="M1216.933,-237.8262C1327.5188,-232.7133 1649.4185,-216.281 1752.187,-194 1755.0295,-193.3837 1757.9438,-192.614 1760.8407,-191.7526"/>
<polygon fill="#191970" stroke="#191970" points="1762.0974,-195.0235 1770.4927,-188.5606 1759.8995,-188.3775 1762.0974,-195.0235"/>
</g>
<!-- Node40&#45;&gt;Node5 -->
<g id="edge49" class="edge">
<title>Node40&#45;&gt;Node5</title>
<path fill="none" stroke="#191970" d="M1153.889,-230.386C1133.013,-222.3134 1103.0524,-209.4316 1079.187,-194 1062.7908,-183.3981 1063.7974,-173.4326 1046.187,-165 961.964,-124.6702 920.3074,-175.2545 839.187,-129 795.9249,-104.3321 762.4894,-54.0668 746.8691,-27.2633"/>
<polygon fill="#191970" stroke="#191970" points="749.905,-25.5215 741.9351,-18.5407 743.8122,-28.968 749.905,-25.5215"/>
</g>
<!-- Node40&#45;&gt;Node7 -->
<g id="edge45" class="edge">
<title>Node40&#45;&gt;Node7</title>
<path fill="none" stroke="#191970" d="M1208.4982,-230.4827C1226.3227,-223.4412 1247.9416,-211.8096 1260.187,-194 1283.1677,-160.577 1283.3385,-110.8032 1281.3358,-83.7299"/>
<polygon fill="#191970" stroke="#191970" points="1284.8081,-83.2671 1280.4046,-73.6307 1277.8376,-83.9098 1284.8081,-83.2671"/>
</g>
<!-- Node40&#45;&gt;Node9 -->
<g id="edge47" class="edge">
<title>Node40&#45;&gt;Node9</title>
<path fill="none" stroke="#191970" d="M1178.6266,-230.4061C1178.1934,-214.6343 1179.775,-182.2464 1198.187,-165 1206.0096,-157.6726 1349.0941,-134.2456 1412.4366,-124.1745"/>
<polygon fill="#191970" stroke="#191970" points="1413.2584,-127.5881 1422.5876,-122.5665 1412.1631,-120.6743 1413.2584,-127.5881"/>
</g>
<!-- Node40&#45;&gt;Node13 -->
<g id="edge51" class="edge">
<title>Node40&#45;&gt;Node13</title>
<path fill="none" stroke="#191970" d="M1214.7038,-230.4697C1238.4814,-223.2446 1269.6197,-211.4107 1293.187,-194 1314.179,-178.4919 1332.0091,-153.9481 1342.6484,-137.3069"/>
<polygon fill="#191970" stroke="#191970" points="1345.779,-138.8984 1348.0512,-128.5501 1339.8217,-135.2228 1345.779,-138.8984"/>
</g>
<!-- Node40&#45;&gt;Node14 -->
<g id="edge50" class="edge">
<title>Node40&#45;&gt;Node14</title>
<path fill="none" stroke="#191970" d="M1178.5246,-230.2873C1177.6594,-216.1777 1176.5446,-188.3911 1179.187,-165 1182.4589,-136.0368 1190.8748,-103.2554 1196.5665,-83.2328"/>
<polygon fill="#191970" stroke="#191970" points="1199.9573,-84.1072 1199.3984,-73.5271 1193.2375,-82.1465 1199.9573,-84.1072"/>
</g>
<!-- Node40&#45;&gt;Node16 -->
<g id="edge52" class="edge">
<title>Node40&#45;&gt;Node16</title>
<path fill="none" stroke="#191970" d="M1208.9847,-230.4574C1237.8236,-221.587 1282.7032,-207.4687 1321.187,-194 1379.6954,-173.523 1447.088,-147.3248 1485.6588,-132.0766"/>
<polygon fill="#191970" stroke="#191970" points="1487.2746,-135.2012 1495.2816,-128.263 1484.6956,-128.6936 1487.2746,-135.2012"/>
</g>
<!-- Node40&#45;&gt;Node17 -->
<g id="edge43" class="edge">
<title>Node40&#45;&gt;Node17</title>
<path fill="none" stroke="#191970" d="M1167.7461,-230.4169C1149.4312,-216.0054 1112.2253,-187.2552 1079.187,-165 1062.9195,-154.0419 1044.0379,-142.5938 1029.2896,-133.9221"/>
<polygon fill="#191970" stroke="#191970" points="1030.6652,-130.6726 1020.2637,-128.6575 1027.1383,-136.7192 1030.6652,-130.6726"/>
</g>
<!-- Node41 -->
<g id="node28" class="node">
<title>Node41</title>
<g id="a_node28"><a xlink:href="common_8h.html" target="_top" xlink:title="crypto/common.h">
<polygon fill="#ffffff" stroke="#000000" points="652.8398,-170.5 652.8398,-188.5 745.5342,-188.5 745.5342,-170.5 652.8398,-170.5"/>
<text text-anchor="middle" x="699.187" y="-176.5" font-family="Helvetica,sans-Serif" font-size="10.00" fill="#000000">crypto/common.h</text>
</a>
</g>
</g>
<!-- Node40&#45;&gt;Node41 -->
<g id="edge39" class="edge">
<title>Node40&#45;&gt;Node41</title>
<path fill="none" stroke="#191970" d="M1141.4968,-235.5452C1072.2248,-228.1706 920.041,-211.4768 792.187,-194 780.4237,-192.392 767.8464,-190.5288 755.8647,-188.6848"/>
<polygon fill="#191970" stroke="#191970" points="756.3902,-185.2245 745.9711,-187.1463 755.3145,-192.1414 756.3902,-185.2245"/>
</g>
<!-- Node42 -->
<g id="node29" class="node">
<title>Node42</title>
<polygon fill="#ffffff" stroke="#bfbfbf" points="1207.3003,-170.5 1207.3003,-188.5 1251.0737,-188.5 1251.0737,-170.5 1207.3003,-170.5"/>
<text text-anchor="middle" x="1229.187" y="-176.5" font-family="Helvetica,sans-Serif" font-size="10.00" fill="#000000">climits</text>
</g>
<!-- Node40&#45;&gt;Node42 -->
<g id="edge46" class="edge">
<title>Node40&#45;&gt;Node42</title>
<path fill="none" stroke="#191970" d="M1186.7809,-230.3873C1194.2698,-221.4007 1205.8954,-207.4499 1215.0815,-196.4267"/>
<polygon fill="#191970" stroke="#191970" points="1217.8085,-198.6214 1221.5216,-188.6985 1212.431,-194.14 1217.8085,-198.6214"/>
</g>
<!-- Node43 -->
<g id="node30" class="node">
<title>Node43</title>
<polygon fill="#ffffff" stroke="#bfbfbf" points="978.7856,-170.5 978.7856,-188.5 1037.5884,-188.5 1037.5884,-170.5 978.7856,-170.5"/>
<text text-anchor="middle" x="1008.187" y="-176.5" font-family="Helvetica,sans-Serif" font-size="10.00" fill="#000000">stdexcept</text>
</g>
<!-- Node40&#45;&gt;Node43 -->
<g id="edge48" class="edge">
<title>Node40&#45;&gt;Node43</title>
<path fill="none" stroke="#191970" d="M1153.2158,-230.3873C1123.9193,-220.1078 1076.1113,-203.3331 1043.4538,-191.8743"/>
<polygon fill="#191970" stroke="#191970" points="1044.4372,-188.5102 1033.8424,-188.5019 1042.1195,-195.1154 1044.4372,-188.5102"/>
</g>
<!-- Node41&#45;&gt;Node3 -->
<g id="edge42" class="edge">
<title>Node41&#45;&gt;Node3</title>
<path fill="none" stroke="#191970" d="M728.6514,-170.3873C762.1749,-160.0192 817.0634,-143.0434 854.1311,-131.5791"/>
<polygon fill="#191970" stroke="#191970" points="855.5616,-134.8004 864.081,-128.5019 853.4933,-128.1129 855.5616,-134.8004"/>
</g>
<!-- Node41&#45;&gt;Node5 -->
<g id="edge40" class="edge">
<title>Node41&#45;&gt;Node5</title>
<path fill="none" stroke="#191970" d="M701.9695,-170.2446C704.9514,-160.1565 709.7227,-143.513 713.187,-129 721.5892,-93.8006 729.4759,-52.3012 733.7862,-28.6272"/>
<polygon fill="#191970" stroke="#191970" points="737.2744,-29.0049 735.6015,-18.543 730.3851,-27.7647 737.2744,-29.0049"/>
</g>
<!-- Node41&#45;&gt;Node14 -->
<g id="edge41" class="edge">
<title>Node41&#45;&gt;Node14</title>
<path fill="none" stroke="#191970" d="M733.6289,-170.4753C741.9574,-168.4877 750.8592,-166.5236 759.187,-165 885.6432,-141.8644 922.3039,-163.3422 1046.187,-129 1066.3213,-123.4185 1069.9381,-118.1254 1089.187,-110 1116.173,-98.6087 1147.0352,-86.225 1169.6802,-77.2571"/>
<polygon fill="#191970" stroke="#191970" points="1171.1396,-80.4438 1179.1543,-73.5145 1168.5677,-73.9334 1171.1396,-80.4438"/>
</g>
<!-- Node44&#45;&gt;Node5 -->
<g id="edge58" class="edge">
<title>Node44&#45;&gt;Node5</title>
<path fill="none" stroke="#191970" d="M846.516,-233.9732C784.8313,-222.0667 644.9962,-194.9842 644.187,-194 636.0011,-184.0444 639.7015,-177.0832 644.187,-165 651.5353,-145.2053 663.3564,-146.489 675.187,-129 698.0023,-95.2726 718.4786,-52.1061 729.2328,-27.9683"/>
<polygon fill="#191970" stroke="#191970" points="732.5326,-29.1585 733.3445,-18.5948 726.1222,-26.3466 732.5326,-29.1585"/>
</g>
<!-- Node44&#45;&gt;Node7 -->
<g id="edge55" class="edge">
<title>Node44&#45;&gt;Node7</title>
<path fill="none" stroke="#191970" d="M875.7161,-230.3458C877.1513,-214.4809 882.4729,-181.9534 902.187,-165 964.0442,-111.8052 1003.2802,-149.7295 1082.187,-129 1140.0194,-113.807 1205.7665,-91.1653 1244.793,-77.1437"/>
<polygon fill="#191970" stroke="#191970" points="1246.3756,-80.2934 1254.5906,-73.6028 1243.9963,-73.7102 1246.3756,-80.2934"/>
</g>
<!-- Node44&#45;&gt;Node13 -->
<g id="edge59" class="edge">
<title>Node44&#45;&gt;Node13</title>
<path fill="none" stroke="#191970" d="M879.6721,-230.4712C888.2956,-214.1926 908.872,-180.206 937.187,-165 1003.9483,-129.1472 1238.1344,-121.5126 1322.5569,-119.9145"/>
<polygon fill="#191970" stroke="#191970" points="1322.8307,-123.4104 1332.7684,-119.7373 1322.7092,-116.4115 1322.8307,-123.4104"/>
</g>
<!-- Node44&#45;&gt;Node16 -->
<g id="edge60" class="edge">
<title>Node44&#45;&gt;Node16</title>
<path fill="none" stroke="#191970" d="M887.9875,-230.326C900.4588,-221.3008 919.8709,-207.0207 936.187,-194 951.711,-181.6115 951.8099,-172.5333 970.187,-165 1073.2614,-122.7467 1359.8117,-144.0658 1470.187,-129 1475.0844,-128.3315 1480.2384,-127.4621 1485.2664,-126.5209"/>
<polygon fill="#191970" stroke="#191970" points="1486.1617,-129.9115 1495.2877,-124.5295 1484.7973,-123.0457 1486.1617,-129.9115"/>
</g>
<!-- Node44&#45;&gt;Node41 -->
<g id="edge61" class="edge">
<title>Node44&#45;&gt;Node41</title>
<path fill="none" stroke="#191970" d="M848.4564,-230.3873C818.3033,-220.1078 769.0974,-203.3331 735.485,-191.8743"/>
<polygon fill="#191970" stroke="#191970" points="736.187,-188.4159 725.5925,-188.5019 733.9282,-195.0415 736.187,-188.4159"/>
</g>
<!-- Node44&#45;&gt;Node43 -->
<g id="edge57" class="edge">
<title>Node44&#45;&gt;Node43</title>
<path fill="none" stroke="#191970" d="M895.3868,-230.3873C917.6819,-220.3294 953.761,-204.0531 979.0989,-192.6225"/>
<polygon fill="#191970" stroke="#191970" points="980.5568,-195.8045 988.2329,-188.5019 977.6782,-189.4237 980.5568,-195.8045"/>
</g>
<!-- Node45 -->
<g id="node32" class="node">
<title>Node45</title>
<polygon fill="#ffffff" stroke="#bfbfbf" points="801.4604,-170.5 801.4604,-188.5 846.9136,-188.5 846.9136,-170.5 801.4604,-170.5"/>
<text text-anchor="middle" x="824.187" y="-176.5" font-family="Helvetica,sans-Serif" font-size="10.00" fill="#000000">cstring</text>
</g>
<!-- Node44&#45;&gt;Node45 -->
<g id="edge56" class="edge">
<title>Node44&#45;&gt;Node45</title>
<path fill="none" stroke="#191970" d="M867.4412,-230.3873C859.8026,-221.4007 847.9445,-207.4499 838.5747,-196.4267"/>
<polygon fill="#191970" stroke="#191970" points="841.149,-194.0511 832.0057,-188.6985 835.8154,-198.5847 841.149,-194.0511"/>
</g>
<!-- Node46&#45;&gt;Node2 -->
<g id="edge76" class="edge">
<title>Node46&#45;&gt;Node2</title>
<path fill="none" stroke="#191970" d="M644.476,-290.9772C658.7857,-288.9352 677.5103,-286.4823 694.187,-285 1027.0357,-255.4139 1113.1416,-286.5424 1445.187,-249 1582.9262,-233.4266 1618.3193,-229.9731 1752.187,-194 1754.6213,-193.3458 1757.1174,-192.6084 1759.6156,-191.8216"/>
<polygon fill="#191970" stroke="#191970" points="1760.7761,-195.124 1769.1345,-188.6134 1758.5403,-188.4906 1760.7761,-195.124"/>
</g>
<!-- Node46&#45;&gt;Node16 -->
<g id="edge79" class="edge">
<title>Node46&#45;&gt;Node16</title>
<path fill="none" stroke="#191970" d="M644.487,-291.0952C658.8008,-289.0963 677.5258,-286.6473 694.187,-285 929.581,-261.7262 993.9838,-298.9707 1225.187,-249 1293.3692,-234.2636 1308.3889,-222.2096 1372.187,-194 1415.2098,-174.9766 1463.4899,-149.2508 1492.0647,-133.5449"/>
<polygon fill="#191970" stroke="#191970" points="1493.9044,-136.5272 1500.9638,-128.6268 1490.5185,-130.4005 1493.9044,-136.5272"/>
</g>
<!-- Node46&#45;&gt;Node17 -->
<g id="edge75" class="edge">
<title>Node46&#45;&gt;Node17</title>
<path fill="none" stroke="#191970" d="M619.5621,-285.3051C615.933,-261.4679 609.9827,-197.2915 644.187,-165 693.4926,-118.4518 880.0597,-138.5763 947.187,-129 951.723,-128.3529 956.4548,-127.6343 961.1681,-126.8904"/>
<polygon fill="#191970" stroke="#191970" points="962.061,-130.2915 971.3735,-125.2391 960.9428,-123.3814 962.061,-130.2915"/>
</g>
<!-- Node46&#45;&gt;Node44 -->
<g id="edge77" class="edge">
<title>Node46&#45;&gt;Node44</title>
<path fill="none" stroke="#191970" d="M644.6274,-289.4243C688.4705,-279.9307 783.2628,-259.4049 836.6409,-247.8466"/>
<polygon fill="#191970" stroke="#191970" points="837.3878,-251.2661 846.4206,-245.7289 835.9064,-244.4246 837.3878,-251.2661"/>
</g>
<!-- Node47 -->
<g id="node34" class="node">
<title>Node47</title>
<g id="a_node34"><a xlink:href="ripemd160_8h.html" target="_top" xlink:title="crypto/ripemd160.h">
<polygon fill="#ffffff" stroke="#000000" points="151.3867,-110.5 151.3867,-128.5 252.9873,-128.5 252.9873,-110.5 151.3867,-110.5"/>
<text text-anchor="middle" x="202.187" y="-116.5" font-family="Helvetica,sans-Serif" font-size="10.00" fill="#000000">crypto/ripemd160.h</text>
</a>
</g>
</g>
<!-- Node46&#45;&gt;Node47 -->
<g id="edge63" class="edge">
<title>Node46&#45;&gt;Node47</title>
<path fill="none" stroke="#191970" d="M598.1162,-292.7401C537.2168,-287.8147 373.5081,-272.6817 325.187,-249 273.4046,-223.6219 231.9446,-166.7718 213.1377,-137.5702"/>
<polygon fill="#191970" stroke="#191970" points="215.9239,-135.4251 207.646,-128.8124 209.9934,-139.144 215.9239,-135.4251"/>
</g>
<!-- Node48 -->
<g id="node35" class="node">
<title>Node48</title>
<g id="a_node35"><a xlink:href="sha256_8h.html" target="_top" xlink:title="crypto/sha256.h">
<polygon fill="#ffffff" stroke="#000000" points="276.6084,-170.5 276.6084,-188.5 363.7656,-188.5 363.7656,-170.5 276.6084,-170.5"/>
<text text-anchor="middle" x="320.187" y="-176.5" font-family="Helvetica,sans-Serif" font-size="10.00" fill="#000000">crypto/sha256.h</text>
</a>
</g>
</g>
<!-- Node46&#45;&gt;Node48 -->
<g id="edge66" class="edge">
<title>Node46&#45;&gt;Node48</title>
<path fill="none" stroke="#191970" d="M597.7914,-293.7547C537.7823,-291.3774 380.4248,-282.0627 342.187,-249 327.8581,-236.6104 322.7641,-214.9514 321.0044,-199.0969"/>
<polygon fill="#191970" stroke="#191970" points="324.4696,-198.5025 320.228,-188.7938 317.4894,-199.0286 324.4696,-198.5025"/>
</g>
<!-- Node49 -->
<g id="node36" class="node">
<title>Node49</title>
<g id="a_node36"><a xlink:href="_s_h_a3_8h.html" target="_top" xlink:title="crypto/sha3.h">
<polygon fill="#ffffff" stroke="#000000" points="19.1699,-110.5 19.1699,-128.5 95.2041,-128.5 95.2041,-110.5 19.1699,-110.5"/>
<text text-anchor="middle" x="57.187" y="-116.5" font-family="Helvetica,sans-Serif" font-size="10.00" fill="#000000">crypto/sha3.h</text>
</a>
</g>
</g>
<!-- Node46&#45;&gt;Node49 -->
<g id="edge70" class="edge">
<title>Node46&#45;&gt;Node49</title>
<path fill="none" stroke="#191970" d="M597.7732,-292.382C532.4703,-286.2979 349.3743,-267.9857 292.187,-249 207.4635,-220.8725 117.8971,-162.2881 78.2151,-134.6076"/>
<polygon fill="#191970" stroke="#191970" points="79.8513,-131.4788 69.6614,-128.5777 75.8181,-137.2001 79.8513,-131.4788"/>
</g>
<!-- Node55 -->
<g id="node39" class="node">
<title>Node55</title>
<g id="a_node39"><a xlink:href="version_8h.html" target="_top" xlink:title="version.h">
<polygon fill="#ffffff" stroke="#000000" points="350.8989,-230.5 350.8989,-248.5 407.4751,-248.5 407.4751,-230.5 350.8989,-230.5"/>
<text text-anchor="middle" x="379.187" y="-236.5" font-family="Helvetica,sans-Serif" font-size="10.00" fill="#000000">version.h</text>
</a>
</g>
</g>
<!-- Node46&#45;&gt;Node55 -->
<g id="edge78" class="edge">
<title>Node46&#45;&gt;Node55</title>
<path fill="none" stroke="#191970" d="M597.983,-289.2264C556.2578,-279.7434 468.1913,-259.7282 417.4301,-248.1916"/>
<polygon fill="#191970" stroke="#191970" points="418.0243,-244.7375 407.4973,-245.9341 416.4729,-251.5634 418.0243,-244.7375"/>
</g>
<!-- Node47&#45;&gt;Node5 -->
<g id="edge64" class="edge">
<title>Node47&#45;&gt;Node5</title>
<path fill="none" stroke="#191970" d="M203.8529,-110.1467C206.9794,-95.6285 215.2069,-67.9915 234.187,-55 272.7054,-28.635 595.1546,-14.6501 702.5462,-10.6912"/>
<polygon fill="#191970" stroke="#191970" points="702.9629,-14.1785 712.8296,-10.3187 702.7094,-7.1831 702.9629,-14.1785"/>
</g>
<!-- Node47&#45;&gt;Node18 -->
<g id="edge65" class="edge">
<title>Node47&#45;&gt;Node18</title>
<path fill="none" stroke="#191970" d="M212.9204,-110.4179C222.5536,-102.2667 236.9087,-90.1201 248.4352,-80.3669"/>
<polygon fill="#191970" stroke="#191970" points="250.8473,-82.9108 256.2204,-73.7795 246.3257,-77.5671 250.8473,-82.9108"/>
</g>
<!-- Node48&#45;&gt;Node5 -->
<g id="edge67" class="edge">
<title>Node48&#45;&gt;Node5</title>
<path fill="none" stroke="#191970" d="M320.3957,-170.4562C321.1563,-156.2303 324.4414,-128.3581 338.187,-110 366.7396,-71.8663 385.3231,-71.0205 430.187,-55 479.8999,-37.2479 633.3629,-20.0153 702.6327,-12.9066"/>
<polygon fill="#191970" stroke="#191970" points="703.0145,-16.386 712.6096,-11.8932 702.307,-9.4218 703.0145,-16.386"/>
</g>
<!-- Node48&#45;&gt;Node13 -->
<g id="edge69" class="edge">
<title>Node48&#45;&gt;Node13</title>
<path fill="none" stroke="#191970" d="M363.9139,-176.9602C537.3724,-166.8852 1174.7361,-129.865 1322.4681,-121.2843"/>
<polygon fill="#191970" stroke="#191970" points="1322.844,-124.7684 1332.6242,-120.6944 1322.4381,-117.7802 1322.844,-124.7684"/>
</g>
<!-- Node48&#45;&gt;Node18 -->
<g id="edge68" class="edge">
<title>Node48&#45;&gt;Node18</title>
<path fill="none" stroke="#191970" d="M316.0282,-170.4761C307.3633,-151.6749 287.2262,-107.9813 275.6966,-82.9642"/>
<polygon fill="#191970" stroke="#191970" points="278.838,-81.4183 271.4737,-73.8014 272.4807,-84.3483 278.838,-81.4183"/>
</g>
<!-- Node49&#45;&gt;Node5 -->
<g id="edge71" class="edge">
<title>Node49&#45;&gt;Node5</title>
<path fill="none" stroke="#191970" d="M74.4932,-110.3374C102.8123,-95.8216 161.2126,-67.8679 214.187,-55 307.5438,-32.3229 601.8218,-16.1388 702.7885,-11.1325"/>
<polygon fill="#191970" stroke="#191970" points="703.2198,-14.6156 713.0364,-10.63 702.8769,-7.624 703.2198,-14.6156"/>
</g>
<!-- Node49&#45;&gt;Node18 -->
<g id="edge72" class="edge">
<title>Node49&#45;&gt;Node18</title>
<path fill="none" stroke="#191970" d="M91.8642,-110.4179C131.1111,-100.1389 194.6171,-83.5064 233.465,-73.332"/>
<polygon fill="#191970" stroke="#191970" points="234.467,-76.6877 243.2539,-70.7682 232.6934,-69.916 234.467,-76.6877"/>
</g>
<!-- Node50 -->
<g id="node37" class="node">
<title>Node50</title>
<g id="a_node37"><a xlink:href="keccak_2_s_h_a3_8h.html" target="_top" xlink:title="crypto/keccak/SHA3.h">
<polygon fill="#ffffff" stroke="#ff0000" points="0,-55.5 0,-73.5 114.374,-73.5 114.374,-55.5 0,-55.5"/>
<text text-anchor="middle" x="57.187" y="-61.5" font-family="Helvetica,sans-Serif" font-size="10.00" fill="#000000">crypto/keccak/SHA3.h</text>
</a>
</g>
</g>
<!-- Node49&#45;&gt;Node50 -->
<g id="edge73" class="edge">
<title>Node49&#45;&gt;Node50</title>
<path fill="none" stroke="#191970" d="M57.187,-110.4179C57.187,-103.2164 57.187,-92.8962 57.187,-83.8632"/>
<polygon fill="#191970" stroke="#191970" points="60.6871,-83.7794 57.187,-73.7795 53.6871,-83.7795 60.6871,-83.7794"/>
</g>
<!-- Node51 -->
<g id="node38" class="node">
<title>Node51</title>
<g id="a_node38"><a xlink:href="_keccak_core_8h.html" target="_top" xlink:title="KeccakCore.h">
<polygon fill="#ffffff" stroke="#ff0000" points="17.7832,-.5 17.7832,-18.5 96.5908,-18.5 96.5908,-.5 17.7832,-.5"/>
<text text-anchor="middle" x="57.187" y="-6.5" font-family="Helvetica,sans-Serif" font-size="10.00" fill="#000000">KeccakCore.h</text>
</a>
</g>
</g>
<!-- Node50&#45;&gt;Node51 -->
<g id="edge74" class="edge">
<title>Node50&#45;&gt;Node51</title>
<path fill="none" stroke="#191970" d="M57.187,-55.4179C57.187,-48.2164 57.187,-37.8962 57.187,-28.8632"/>
<polygon fill="#191970" stroke="#191970" points="60.6871,-28.7794 57.187,-18.7795 53.6871,-28.7795 60.6871,-28.7794"/>
</g>
<!-- Node56&#45;&gt;Node5 -->
<g id="edge90" class="edge">
<title>Node56&#45;&gt;Node5</title>
<path fill="none" stroke="#191970" d="M1417.291,-399.4935C1597.6368,-379.4018 2257.187,-305.1928 2257.187,-294.5 2257.187,-294.5 2257.187,-294.5 2257.187,-119.5 2257.187,-48.9673 2180.9291,-70.7921 2112.187,-55 2078.5099,-47.2634 981.5639,-16.3178 771.6993,-10.4597"/>
<polygon fill="#191970" stroke="#191970" points="771.6611,-6.9574 761.5673,-10.1772 771.4659,-13.9547 771.6611,-6.9574"/>
</g>
<!-- Node56&#45;&gt;Node44 -->
<g id="edge88" class="edge">
<title>Node56&#45;&gt;Node44</title>
<path fill="none" stroke="#191970" d="M1360.7204,-395.2918C1328.6505,-369.7206 1238.1059,-298.8119 1203.187,-285 1151.1715,-264.4257 988.7095,-248.8395 913.7674,-242.5462"/>
<polygon fill="#191970" stroke="#191970" points="914.0489,-239.0577 903.7942,-241.7204 913.4712,-246.0338 914.0489,-239.0577"/>
</g>
<!-- Node57 -->
<g id="node41" class="node">
<title>Node57</title>
<g id="a_node41"><a xlink:href="interpreter_8h.html" target="_top" xlink:title="script/interpreter.h">
<polygon fill="#ffffff" stroke="#000000" points="1451.1675,-340.5 1451.1675,-358.5 1547.2065,-358.5 1547.2065,-340.5 1451.1675,-340.5"/>
<text text-anchor="middle" x="1499.187" y="-346.5" font-family="Helvetica,sans-Serif" font-size="10.00" fill="#000000">script/interpreter.h</text>
</a>
</g>
</g>
<!-- Node56&#45;&gt;Node57 -->
<g id="edge82" class="edge">
<title>Node56&#45;&gt;Node57</title>
<path fill="none" stroke="#191970" d="M1393.1585,-395.4179C1413.7482,-386.5011 1445.3782,-372.803 1468.7364,-362.6873"/>
<polygon fill="#191970" stroke="#191970" points="1470.3989,-365.7815 1478.1844,-358.5956 1467.617,-359.358 1470.3989,-365.7815"/>
</g>
<!-- Node59 -->
<g id="node43" class="node">
<title>Node59</title>
<polygon fill="#ffffff" stroke="#bfbfbf" points="1325.8276,-340.5 1325.8276,-358.5 1418.5464,-358.5 1418.5464,-340.5 1325.8276,-340.5"/>
<text text-anchor="middle" x="1372.187" y="-346.5" font-family="Helvetica,sans-Serif" font-size="10.00" fill="#000000">boost/variant.hpp</text>
</g>
<!-- Node56&#45;&gt;Node59 -->
<g id="edge89" class="edge">
<title>Node56&#45;&gt;Node59</title>
<path fill="none" stroke="#191970" d="M1372.187,-395.4179C1372.187,-388.2164 1372.187,-377.8962 1372.187,-368.8632"/>
<polygon fill="#191970" stroke="#191970" points="1375.6871,-368.7794 1372.187,-358.7795 1368.6871,-368.7795 1375.6871,-368.7794"/>
</g>
<!-- Node57&#45;&gt;Node5 -->
<g id="edge86" class="edge">
<title>Node57&#45;&gt;Node5</title>
<path fill="none" stroke="#191970" d="M1547.2657,-347.2412C1708.3871,-339.04 2219.187,-307.6647 2219.187,-239.5 2219.187,-239.5 2219.187,-239.5 2219.187,-119.5 2219.187,-15.8994 2097.493,-71.3272 1995.187,-55 1933.1355,-45.0971 966.9881,-16.257 771.514,-10.5049"/>
<polygon fill="#191970" stroke="#191970" points="771.6162,-7.0065 761.5176,-10.2111 771.4105,-14.0035 771.6162,-7.0065"/>
</g>
<!-- Node57&#45;&gt;Node13 -->
<g id="edge87" class="edge">
<title>Node57&#45;&gt;Node13</title>
<path fill="none" stroke="#191970" d="M1493.4636,-340.4837C1471.7083,-306.2116 1393.9022,-183.6404 1364.5255,-137.362"/>
<polygon fill="#191970" stroke="#191970" points="1367.3437,-135.2708 1359.0295,-128.7039 1361.4338,-139.0223 1367.3437,-135.2708"/>
</g>
<!-- Node57&#45;&gt;Node16 -->
<g id="edge85" class="edge">
<title>Node57&#45;&gt;Node16</title>
<path fill="none" stroke="#191970" d="M1499.8926,-340.4837C1502.5467,-306.5701 1511.9674,-186.195 1515.6735,-138.8391"/>
<polygon fill="#191970" stroke="#191970" points="1519.1757,-138.9465 1516.4667,-128.7039 1512.1971,-138.4003 1519.1757,-138.9465"/>
</g>
<!-- Node57&#45;&gt;Node38 -->
<g id="edge84" class="edge">
<title>Node57&#45;&gt;Node38</title>
<path fill="none" stroke="#191970" d="M1450.8506,-342.1964C1387.6827,-332.6518 1276.6385,-315.8732 1204.5136,-304.9752"/>
<polygon fill="#191970" stroke="#191970" points="1205.0145,-301.5112 1194.6038,-303.4778 1203.9686,-308.4326 1205.0145,-301.5112"/>
</g>
<!-- Node58 -->
<g id="node42" class="node">
<title>Node58</title>
<g id="a_node42"><a xlink:href="script__error_8h.html" target="_top" xlink:title="script/script_error.h">
<polygon fill="#ffffff" stroke="#000000" points="1535.6724,-285.5 1535.6724,-303.5 1636.7017,-303.5 1636.7017,-285.5 1535.6724,-285.5"/>
<text text-anchor="middle" x="1586.187" y="-291.5" font-family="Helvetica,sans-Serif" font-size="10.00" fill="#000000">script/script_error.h</text>
</a>
</g>
</g>
<!-- Node57&#45;&gt;Node58 -->
<g id="edge83" class="edge">
<title>Node57&#45;&gt;Node58</title>
<path fill="none" stroke="#191970" d="M1513.5533,-340.4179C1527.0284,-331.8992 1547.4063,-319.0166 1563.1514,-309.0627"/>
<polygon fill="#191970" stroke="#191970" points="1565.2171,-311.8977 1571.7994,-303.5956 1561.4765,-305.9808 1565.2171,-311.8977"/>
</g>
<!-- Node60&#45;&gt;Node5 -->
<g id="edge97" class="edge">
<title>Node60&#45;&gt;Node5</title>
<path fill="none" stroke="#191970" d="M702.9799,-288.0583C635.2448,-272.2766 473.187,-229.3134 473.187,-179.5 473.187,-179.5 473.187,-179.5 473.187,-119.5 473.187,-70.2817 631.5123,-31.3252 702.9443,-16.2538"/>
<polygon fill="#191970" stroke="#191970" points="703.7428,-19.6628 712.8237,-14.2051 702.3213,-12.8086 703.7428,-19.6628"/>
</g>
<!-- Node60&#45;&gt;Node9 -->
<g id="edge98" class="edge">
<title>Node60&#45;&gt;Node9</title>
<path fill="none" stroke="#191970" d="M736.6381,-285.468C741.1314,-276.3104 748.2378,-261.7159 754.187,-249 771.5513,-211.8854 758.4484,-188.2533 792.187,-165 846.2646,-127.7288 1316.8992,-136.1437 1382.187,-129 1392.1958,-127.9048 1403.0839,-126.3053 1412.8036,-124.7299"/>
<polygon fill="#191970" stroke="#191970" points="1413.5112,-128.1602 1422.7949,-123.0549 1412.3538,-121.2565 1413.5112,-128.1602"/>
</g>
<!-- Node60&#45;&gt;Node41 -->
<g id="edge95" class="edge">
<title>Node60&#45;&gt;Node41</title>
<path fill="none" stroke="#191970" d="M714.7621,-285.3464C702.0115,-277.5746 685.683,-265.1181 678.187,-249 670.4134,-232.2848 678.3755,-211.9852 686.6312,-197.652"/>
<polygon fill="#191970" stroke="#191970" points="689.8383,-199.1271 692.2037,-188.7997 683.9144,-195.3979 689.8383,-199.1271"/>
</g>
<!-- Node60&#45;&gt;Node44 -->
<g id="edge96" class="edge">
<title>Node60&#45;&gt;Node44</title>
<path fill="none" stroke="#191970" d="M755.8006,-285.4179C779.2947,-276.3817 815.5553,-262.4353 841.9518,-252.2828"/>
<polygon fill="#191970" stroke="#191970" points="843.4614,-255.4522 851.5384,-248.5956 840.9485,-248.9188 843.4614,-255.4522"/>
</g>
<!-- Node61 -->
<g id="node45" class="node">
<title>Node61</title>
<g id="a_node45"><a xlink:href="chacha20_8h.html" target="_top" xlink:title="crypto/chacha20.h">
<polygon fill="#ffffff" stroke="#000000" points="347.3276,-110.5 347.3276,-128.5 445.0464,-128.5 445.0464,-110.5 347.3276,-110.5"/>
<text text-anchor="middle" x="396.187" y="-116.5" font-family="Helvetica,sans-Serif" font-size="10.00" fill="#000000">crypto/chacha20.h</text>
</a>
</g>
</g>
<!-- Node60&#45;&gt;Node61 -->
<g id="edge92" class="edge">
<title>Node60&#45;&gt;Node61</title>
<path fill="none" stroke="#191970" d="M702.9314,-290.359C634.4854,-280.5718 468.9431,-256.2878 459.187,-249 422.5832,-221.6567 406.1352,-167.3623 399.7191,-138.5273"/>
<polygon fill="#191970" stroke="#191970" points="403.1037,-137.6085 397.6706,-128.5128 396.2457,-139.0114 403.1037,-137.6085"/>
</g>
<!-- Node61&#45;&gt;Node5 -->
<g id="edge93" class="edge">
<title>Node61&#45;&gt;Node5</title>
<path fill="none" stroke="#191970" d="M402.2706,-110.2181C412.2686,-95.7977 433.6359,-68.2923 459.187,-55 501.1073,-33.192 638.1453,-18.3817 702.8151,-12.4308"/>
<polygon fill="#191970" stroke="#191970" points="703.2689,-15.9042 712.9139,-11.5196 702.6398,-8.9325 703.2689,-15.9042"/>
</g>
<!-- Node61&#45;&gt;Node18 -->
<g id="edge94" class="edge">
<title>Node61&#45;&gt;Node18</title>
<path fill="none" stroke="#191970" d="M374.8853,-110.4179C353.878,-101.4613 321.5562,-87.6806 297.7999,-77.552"/>
<polygon fill="#191970" stroke="#191970" points="299.0919,-74.2981 288.5204,-73.5956 296.3465,-80.7372 299.0919,-74.2981"/>
</g>
<!-- Node62&#45;&gt;Node2 -->
<g id="edge105" class="edge">
<title>Node62&#45;&gt;Node2</title>
<path fill="none" stroke="#191970" d="M1906.6834,-230.3873C1884.0531,-220.3294 1847.4315,-204.0531 1821.7125,-192.6225"/>
<polygon fill="#191970" stroke="#191970" points="1823.0009,-189.365 1812.4412,-188.5019 1820.1578,-195.7617 1823.0009,-189.365"/>
</g>
<!-- Node62&#45;&gt;Node5 -->
<g id="edge112" class="edge">
<title>Node62&#45;&gt;Node5</title>
<path fill="none" stroke="#191970" d="M1934.6856,-230.3545C1958.097,-200.6818 2025.4084,-106.0622 1976.187,-55 1965.4319,-43.8427 970.5653,-15.9168 771.5922,-10.4402"/>
<polygon fill="#191970" stroke="#191970" points="771.5213,-6.9371 761.4289,-10.161 771.329,-13.9344 771.5213,-6.9371"/>
</g>
<!-- Node62&#45;&gt;Node6 -->
<g id="edge106" class="edge">
<title>Node62&#45;&gt;Node6</title>
<path fill="none" stroke="#191970" d="M1957.2515,-235.1572C2033.2813,-222.972 2222.9877,-184.3924 2162.187,-110 2139.2552,-81.9418 2035.0374,-70.7602 1977.1853,-66.6557"/>
<polygon fill="#191970" stroke="#191970" points="1977.1645,-63.1465 1966.9526,-65.9691 1976.6959,-70.1308 1977.1645,-63.1465"/>
</g>
<!-- Node62&#45;&gt;Node7 -->
<g id="edge107" class="edge">
<title>Node62&#45;&gt;Node7</title>
<path fill="none" stroke="#191970" d="M1926.45,-230.3601C1923.887,-205.4851 1912.9494,-136.6531 1869.187,-110 1821.9167,-81.2104 1436.1571,-68.6488 1315.2719,-65.3945"/>
<polygon fill="#191970" stroke="#191970" points="1315.1559,-61.8903 1305.067,-65.1251 1314.9711,-68.8879 1315.1559,-61.8903"/>
</g>
<!-- Node62&#45;&gt;Node8 -->
<g id="edge108" class="edge">
<title>Node62&#45;&gt;Node8</title>
<path fill="none" stroke="#191970" d="M1957.1964,-233.1108C1993.1111,-224.8858 2050.2834,-209.7659 2065.187,-194 2079.2396,-179.1344 2083.6429,-155.4849 2084.9089,-138.8263"/>
<polygon fill="#191970" stroke="#191970" points="2088.4157,-138.75 2085.3642,-128.6042 2081.4226,-138.4385 2088.4157,-138.75"/>
</g>
<!-- Node62&#45;&gt;Node9 -->
<g id="edge109" class="edge">
<title>Node62&#45;&gt;Node9</title>
<path fill="none" stroke="#191970" d="M1896.9433,-238.4588C1838.045,-235.7528 1704.341,-226.2715 1597.187,-194 1548.1737,-179.2387 1495.2907,-150.835 1465.7041,-133.6823"/>
<polygon fill="#191970" stroke="#191970" points="1467.3462,-130.5877 1456.951,-128.5402 1463.8004,-136.6233 1467.3462,-130.5877"/>
</g>
<!-- Node62&#45;&gt;Node10 -->
<g id="edge110" class="edge">
<title>Node62&#45;&gt;Node10</title>
<path fill="none" stroke="#191970" d="M1957.162,-237.1588C1991.326,-233.1725 2047.4364,-222.4836 2086.187,-194 2105.6069,-179.7254 2119.5289,-155.2592 2127.4577,-138.277"/>
<polygon fill="#191970" stroke="#191970" points="2130.7913,-139.391 2131.6156,-128.8283 2124.3842,-136.5716 2130.7913,-139.391"/>
</g>
<!-- Node62&#45;&gt;Node12 -->
<g id="edge111" class="edge">
<title>Node62&#45;&gt;Node12</title>
<path fill="none" stroke="#191970" d="M1957.3145,-232.3374C1989.5667,-223.9879 2037.5517,-209.3615 2048.187,-194 2059.5211,-177.6291 2053.7925,-154.3083 2047.3141,-138.1373"/>
<polygon fill="#191970" stroke="#191970" points="2050.3761,-136.4085 2043.1203,-128.688 2043.9779,-139.2481 2050.3761,-136.4085"/>
</g>
<!-- Node62&#45;&gt;Node13 -->
<g id="edge114" class="edge">
<title>Node62&#45;&gt;Node13</title>
<path fill="none" stroke="#191970" d="M1897.0881,-237.2886C1815.9392,-231.1391 1593.9911,-213.0319 1523.187,-194 1469.604,-179.5971 1411.1935,-150.8653 1378.6906,-133.596"/>
<polygon fill="#191970" stroke="#191970" points="1379.9336,-130.2903 1369.4692,-128.6331 1376.6162,-136.4543 1379.9336,-130.2903"/>
</g>
<!-- Node62&#45;&gt;Node14 -->
<g id="edge115" class="edge">
<title>Node62&#45;&gt;Node14</title>
<path fill="none" stroke="#191970" d="M1922.0888,-230.2082C1906.9145,-202.926 1861.5249,-124.0854 1836.187,-110 1720.9914,-45.9622 1374.6666,-92.5993 1244.187,-74 1241.814,-73.6617 1239.3767,-73.2592 1236.9282,-72.8138"/>
<polygon fill="#191970" stroke="#191970" points="1237.4324,-69.345 1226.9374,-70.7961 1236.0467,-76.2065 1237.4324,-69.345"/>
</g>
<!-- Node62&#45;&gt;Node15 -->
<g id="edge116" class="edge">
<title>Node62&#45;&gt;Node15</title>
<path fill="none" stroke="#191970" d="M1916.0923,-230.4534C1905.3254,-221.5228 1888.68,-207.3105 1875.187,-194 1855.9614,-175.0343 1835.4133,-151.6726 1822.2176,-136.2219"/>
<polygon fill="#191970" stroke="#191970" points="1824.8339,-133.8956 1815.6981,-128.5303 1819.494,-138.4217 1824.8339,-133.8956"/>
</g>
<!-- Node62&#45;&gt;Node16 -->
<g id="edge117" class="edge">
<title>Node62&#45;&gt;Node16</title>
<path fill="none" stroke="#191970" d="M1896.8225,-236.3707C1832.9279,-229.5135 1686.6552,-212.3066 1640.187,-194 1618.7401,-185.5508 1616.7754,-177.1513 1597.187,-165 1579.4213,-153.9793 1558.9174,-142.3381 1543.1154,-133.5896"/>
<polygon fill="#191970" stroke="#191970" points="1544.3992,-130.3013 1533.9505,-128.5477 1541.0251,-136.4345 1544.3992,-130.3013"/>
</g>
<!-- Node63 -->
<g id="node47" class="node">
<title>Node63</title>
<g id="a_node47"><a xlink:href="zeroafterfree_8h.html" target="_top" xlink:title="support/allocators\l/zeroafterfree.h">
<polygon fill="#ffffff" stroke="#000000" points="1648.7217,-165.5 1648.7217,-193.5 1743.6523,-193.5 1743.6523,-165.5 1648.7217,-165.5"/>
<text text-anchor="start" x="1656.7217" y="-181.5" font-family="Helvetica,sans-Serif" font-size="10.00" fill="#000000">support/allocators</text>
<text text-anchor="middle" x="1696.187" y="-171.5" font-family="Helvetica,sans-Serif" font-size="10.00" fill="#000000">/zeroafterfree.h</text>
</a>
</g>
</g>
<!-- Node62&#45;&gt;Node63 -->
<g id="edge100" class="edge">
<title>Node62&#45;&gt;Node63</title>
<path fill="none" stroke="#191970" d="M1896.9878,-231.656C1860.7563,-222.2453 1799.2224,-206.2625 1753.799,-194.4641"/>
<polygon fill="#191970" stroke="#191970" points="1754.6354,-191.0653 1744.0766,-191.9389 1752.8756,-197.8405 1754.6354,-191.0653"/>
</g>
<!-- Node65 -->
<g id="node49" class="node">
<title>Node65</title>
<polygon fill="#ffffff" stroke="#bfbfbf" points="1993.4556,-170.5 1993.4556,-188.5 2038.9185,-188.5 2038.9185,-170.5 1993.4556,-170.5"/>
<text text-anchor="middle" x="2016.187" y="-176.5" font-family="Helvetica,sans-Serif" font-size="10.00" fill="#000000">stdio.h</text>
</g>
<!-- Node62&#45;&gt;Node65 -->
<g id="edge113" class="edge">
<title>Node62&#45;&gt;Node65</title>
<path fill="none" stroke="#191970" d="M1940.7042,-230.3873C1954.9005,-220.8168 1977.4484,-205.6159 1994.2084,-194.3171"/>
<polygon fill="#191970" stroke="#191970" points="1996.499,-196.994 2002.8342,-188.5019 1992.586,-191.1897 1996.499,-196.994"/>
</g>
<!-- Node63&#45;&gt;Node11 -->
<g id="edge103" class="edge">
<title>Node63&#45;&gt;Node11</title>
<path fill="none" stroke="#191970" d="M1672.0381,-165.4327C1655.7348,-155.9356 1634.2798,-143.4376 1617.8664,-133.8763"/>
<polygon fill="#191970" stroke="#191970" points="1619.2646,-130.6403 1608.862,-128.6311 1615.7411,-136.6889 1619.2646,-130.6403"/>
</g>
<!-- Node63&#45;&gt;Node16 -->
<g id="edge104" class="edge">
<title>Node63&#45;&gt;Node16</title>
<path fill="none" stroke="#191970" d="M1654.2195,-165.4327C1622.0519,-154.6502 1578.344,-139.9995 1549.02,-130.1703"/>
<polygon fill="#191970" stroke="#191970" points="1549.8841,-126.7686 1539.2902,-126.9089 1547.6593,-133.4056 1549.8841,-126.7686"/>
</g>
<!-- Node64 -->
<g id="node48" class="node">
<title>Node64</title>
<g id="a_node48"><a xlink:href="cleanse_8h.html" target="_top" xlink:title="support/cleanse.h">
<polygon fill="#ffffff" stroke="#000000" points="500.7168,-110.5 500.7168,-128.5 595.6572,-128.5 595.6572,-110.5 500.7168,-110.5"/>
<text text-anchor="middle" x="548.187" y="-116.5" font-family="Helvetica,sans-Serif" font-size="10.00" fill="#000000">support/cleanse.h</text>
</a>
</g>
</g>
<!-- Node63&#45;&gt;Node64 -->
<g id="edge101" class="edge">
<title>Node63&#45;&gt;Node64</title>
<path fill="none" stroke="#191970" d="M1648.6828,-177.0172C1465.5669,-167.4467 805.7945,-132.9638 605.9526,-122.5191"/>
<polygon fill="#191970" stroke="#191970" points="605.8416,-119.0086 595.6726,-121.9818 605.4762,-125.9991 605.8416,-119.0086"/>
</g>
<!-- Node64&#45;&gt;Node18 -->
<g id="edge102" class="edge">
<title>Node64&#45;&gt;Node18</title>
<path fill="none" stroke="#191970" d="M502.1002,-110.4795C445.7,-99.4403 351.5212,-81.0067 301.2503,-71.1672"/>
<polygon fill="#191970" stroke="#191970" points="301.705,-67.6899 291.2189,-69.2038 300.3604,-74.5595 301.705,-67.6899"/>
</g>
</g>
</svg>
