<?xml version="1.0" encoding="UTF-8" standalone="no"?>
<!DOCTYPE svg PUBLIC "-//W3C//DTD SVG 1.1//EN"
 "http://www.w3.org/Graphics/SVG/1.1/DTD/svg11.dtd">
<!-- Generated by graphviz version 2.40.1 (20161225.0304)
 -->
<!-- Title: BitcoinApplication::startThread Pages: 1 -->
<svg width="238pt" height="84pt"
 viewBox="0.00 0.00 238.32 84.00" xmlns="http://www.w3.org/2000/svg" xmlns:xlink="http://www.w3.org/1999/xlink">
<g id="graph0" class="graph" transform="scale(1 1) rotate(0) translate(4 80)">
<title>BitcoinApplication::startThread</title>
<polygon fill="#ffffff" stroke="transparent" points="-4,4 -4,-80 234.3242,-80 234.3242,4 -4,4"/>
<!-- Node667 -->
<g id="node1" class="node">
<title>Node667</title>
<polygon fill="#bfbfbf" stroke="#000000" points="0,-23.5 0,-51.5 94.9355,-51.5 94.9355,-23.5 0,-23.5"/>
<text text-anchor="start" x="8" y="-39.5" font-family="Helvetica,sans-Serif" font-size="10.00" fill="#000000">BitcoinApplication</text>
<text text-anchor="middle" x="47.4678" y="-29.5" font-family="Helvetica,sans-Serif" font-size="10.00" fill="#000000">::startThread</text>
</g>
<!-- Node668 -->
<g id="node2" class="node">
<title>Node668</title>
<g id="a_node2"><a xlink:href="class_bitcoin_application.html#ade19c44b87b00b6b19b433caf4c22ba6" target="_top" xlink:title="Request core initialization. ">
<polygon fill="#ffffff" stroke="#000000" points="133.1621,-47.5 133.1621,-75.5 228.0977,-75.5 228.0977,-47.5 133.1621,-47.5"/>
<text text-anchor="start" x="141.1621" y="-63.5" font-family="Helvetica,sans-Serif" font-size="10.00" fill="#000000">BitcoinApplication</text>
<text text-anchor="middle" x="180.6299" y="-53.5" font-family="Helvetica,sans-Serif" font-size="10.00" fill="#000000">::requestInitialize</text>
</a>
</g>
</g>
<!-- Node667&#45;&gt;Node668 -->
<g id="edge1" class="edge">
<title>Node667&#45;&gt;Node668</title>
<path fill="none" stroke="#191970" d="M105.0809,-47.8837C114.3351,-49.5516 123.8247,-51.2619 132.8169,-52.8826"/>
<polygon fill="#191970" stroke="#191970" points="105.6285,-44.4261 95.1662,-46.0968 104.3868,-51.3151 105.6285,-44.4261"/>
</g>
<!-- Node669 -->
<g id="node3" class="node">
<title>Node669</title>
<g id="a_node3"><a xlink:href="class_bitcoin_application.html#a37c560d4c04d14a6da151b82caf8888f" target="_top" xlink:title="Request core shutdown. ">
<polygon fill="#ffffff" stroke="#000000" points="130.9355,-.5 130.9355,-28.5 230.3242,-28.5 230.3242,-.5 130.9355,-.5"/>
<text text-anchor="start" x="138.9355" y="-16.5" font-family="Helvetica,sans-Serif" font-size="10.00" fill="#000000">BitcoinApplication</text>
<text text-anchor="middle" x="180.6299" y="-6.5" font-family="Helvetica,sans-Serif" font-size="10.00" fill="#000000">::requestShutdown</text>
</a>
</g>
</g>
<!-- Node667&#45;&gt;Node669 -->
<g id="edge2" class="edge">
<title>Node667&#45;&gt;Node669</title>
<path fill="none" stroke="#191970" d="M105.0233,-27.5589C113.5274,-26.0901 122.2316,-24.5867 130.5671,-23.1469"/>
<polygon fill="#191970" stroke="#191970" points="104.4246,-24.1104 95.1662,-29.2614 105.6161,-31.0083 104.4246,-24.1104"/>
</g>
</g>
</svg>
