<?xml version="1.0" encoding="UTF-8" standalone="no"?>
<!DOCTYPE svg PUBLIC "-//W3C//DTD SVG 1.1//EN"
 "http://www.w3.org/Graphics/SVG/1.1/DTD/svg11.dtd">
<!-- Generated by graphviz version 2.40.1 (20161225.0304)
 -->
<!-- Title: ClientModel::getHeaderTipTime Pages: 1 -->
<svg width="735pt" height="101pt"
 viewBox="0.00 0.00 735.43 101.00" xmlns="http://www.w3.org/2000/svg" xmlns:xlink="http://www.w3.org/1999/xlink">
<g id="graph0" class="graph" transform="scale(1 1) rotate(0) translate(4 97)">
<title>ClientModel::getHeaderTipTime</title>
<polygon fill="#ffffff" stroke="transparent" points="-4,4 -4,-97 731.4326,-97 731.4326,4 -4,4"/>
<!-- Node101 -->
<g id="node1" class="node">
<title>Node101</title>
<polygon fill="#bfbfbf" stroke="#000000" points="0,-26.5 0,-44.5 156.4395,-44.5 156.4395,-26.5 0,-26.5"/>
<text text-anchor="middle" x="78.2197" y="-32.5" font-family="Helvetica,sans-Serif" font-size="10.00" fill="#000000">ClientModel::getHeaderTipTime</text>
</g>
<!-- Node102 -->
<g id="node2" class="node">
<title>Node102</title>
<g id="a_node2"><a xlink:href="class_bitcoin_g_u_i.html#a99d71e1f8478ab937ce2522c8d3815e3" target="_top" xlink:title="Set the client model. ">
<polygon fill="#ffffff" stroke="#000000" points="193.5601,-47.5 193.5601,-65.5 329.0522,-65.5 329.0522,-47.5 193.5601,-47.5"/>
<text text-anchor="middle" x="261.3062" y="-53.5" font-family="Helvetica,sans-Serif" font-size="10.00" fill="#000000">BitcoinGUI::setClientModel</text>
</a>
</g>
</g>
<!-- Node101&#45;&gt;Node102 -->
<g id="edge1" class="edge">
<title>Node101&#45;&gt;Node102</title>
<path fill="none" stroke="#191970" d="M166.7464,-45.654C175.7093,-46.6821 184.7109,-47.7145 193.4069,-48.712"/>
<polygon fill="#191970" stroke="#191970" points="166.9953,-42.1597 156.6616,-44.4973 166.1976,-49.1141 166.9953,-42.1597"/>
</g>
<!-- Node107 -->
<g id="node7" class="node">
<title>Node107</title>
<g id="a_node7"><a xlink:href="class_bitcoin_g_u_i.html#ad06b7274e4d51189c0a1994866835f17" target="_top" xlink:title="BitcoinGUI::updateHeaders\lSyncProgressLabel">
<polygon fill="#ffffff" stroke="#000000" points="192.4395,-.5 192.4395,-28.5 330.1729,-28.5 330.1729,-.5 192.4395,-.5"/>
<text text-anchor="start" x="200.4395" y="-16.5" font-family="Helvetica,sans-Serif" font-size="10.00" fill="#000000">BitcoinGUI::updateHeaders</text>
<text text-anchor="middle" x="261.3062" y="-6.5" font-family="Helvetica,sans-Serif" font-size="10.00" fill="#000000">SyncProgressLabel</text>
</a>
</g>
</g>
<!-- Node101&#45;&gt;Node107 -->
<g id="edge7" class="edge">
<title>Node101&#45;&gt;Node107</title>
<path fill="none" stroke="#191970" d="M166.7051,-25.3507C175.2901,-24.366 183.911,-23.3772 192.2653,-22.419"/>
<polygon fill="#191970" stroke="#191970" points="166.1976,-21.8859 156.6616,-26.5027 166.9953,-28.8403 166.1976,-21.8859"/>
</g>
<!-- Node103 -->
<g id="node3" class="node">
<title>Node103</title>
<g id="a_node3"><a xlink:href="class_bitcoin_application.html#a37c560d4c04d14a6da151b82caf8888f" target="_top" xlink:title="Request core shutdown. ">
<polygon fill="#ffffff" stroke="#000000" points="628.0439,-64.5 628.0439,-92.5 727.4326,-92.5 727.4326,-64.5 628.0439,-64.5"/>
<text text-anchor="start" x="636.0439" y="-80.5" font-family="Helvetica,sans-Serif" font-size="10.00" fill="#000000">BitcoinApplication</text>
<text text-anchor="middle" x="677.7383" y="-70.5" font-family="Helvetica,sans-Serif" font-size="10.00" fill="#000000">::requestShutdown</text>
</a>
</g>
</g>
<!-- Node102&#45;&gt;Node103 -->
<g id="edge2" class="edge">
<title>Node102&#45;&gt;Node103</title>
<path fill="none" stroke="#191970" d="M339.21,-60.6156C423.7941,-65.0842 556.3547,-72.0873 627.9164,-75.8679"/>
<polygon fill="#191970" stroke="#191970" points="339.3107,-57.1162 329.14,-60.0836 338.9414,-64.1064 339.3107,-57.1162"/>
</g>
<!-- Node104 -->
<g id="node4" class="node">
<title>Node104</title>
<g id="a_node4"><a xlink:href="class_bitcoin_application.html#a5bcf1bf32a7508326e0dd630a59a887d" target="_top" xlink:title="BitcoinApplication\l::initializeResult">
<polygon fill="#ffffff" stroke="#000000" points="366.1729,-21.5 366.1729,-49.5 461.1084,-49.5 461.1084,-21.5 366.1729,-21.5"/>
<text text-anchor="start" x="374.1729" y="-37.5" font-family="Helvetica,sans-Serif" font-size="10.00" fill="#000000">BitcoinApplication</text>
<text text-anchor="middle" x="413.6406" y="-27.5" font-family="Helvetica,sans-Serif" font-size="10.00" fill="#000000">::initializeResult</text>
</a>
</g>
</g>
<!-- Node102&#45;&gt;Node104 -->
<g id="edge3" class="edge">
<title>Node102&#45;&gt;Node104</title>
<path fill="none" stroke="#191970" d="M336.7691,-46.0971C346.7754,-44.7177 356.798,-43.336 366.1458,-42.0474"/>
<polygon fill="#191970" stroke="#191970" points="336.2221,-42.6393 326.7938,-47.4722 337.1781,-49.5737 336.2221,-42.6393"/>
</g>
<!-- Node105 -->
<g id="node5" class="node">
<title>Node105</title>
<g id="a_node5"><a xlink:href="class_bitcoin_application.html#a61afce9356e452c53ad4c83f5ca19df8" target="_top" xlink:title="BitcoinApplication\l::startThread">
<polygon fill="#ffffff" stroke="#000000" points="497.1084,-21.5 497.1084,-49.5 592.0439,-49.5 592.0439,-21.5 497.1084,-21.5"/>
<text text-anchor="start" x="505.1084" y="-37.5" font-family="Helvetica,sans-Serif" font-size="10.00" fill="#000000">BitcoinApplication</text>
<text text-anchor="middle" x="544.5762" y="-27.5" font-family="Helvetica,sans-Serif" font-size="10.00" fill="#000000">::startThread</text>
</a>
</g>
</g>
<!-- Node104&#45;&gt;Node105 -->
<g id="edge4" class="edge">
<title>Node104&#45;&gt;Node105</title>
<path fill="none" stroke="#191970" d="M471.4629,-35.5C479.9111,-35.5 488.5316,-35.5 496.7511,-35.5"/>
<polygon fill="#191970" stroke="#191970" points="471.2818,-32.0001 461.2818,-35.5 471.2817,-39.0001 471.2818,-32.0001"/>
</g>
<!-- Node105&#45;&gt;Node103 -->
<g id="edge6" class="edge">
<title>Node105&#45;&gt;Node103</title>
<path fill="none" stroke="#191970" d="M598.0446,-52.7657C609.9968,-56.6253 622.536,-60.6744 634.0381,-64.3886"/>
<polygon fill="#191970" stroke="#191970" points="598.7701,-49.3221 588.1784,-49.5798 596.619,-55.9834 598.7701,-49.3221"/>
</g>
<!-- Node106 -->
<g id="node6" class="node">
<title>Node106</title>
<g id="a_node6"><a xlink:href="class_bitcoin_application.html#ade19c44b87b00b6b19b433caf4c22ba6" target="_top" xlink:title="Request core initialization. ">
<polygon fill="#ffffff" stroke="#000000" points="630.2705,-17.5 630.2705,-45.5 725.2061,-45.5 725.2061,-17.5 630.2705,-17.5"/>
<text text-anchor="start" x="638.2705" y="-33.5" font-family="Helvetica,sans-Serif" font-size="10.00" fill="#000000">BitcoinApplication</text>
<text text-anchor="middle" x="677.7383" y="-23.5" font-family="Helvetica,sans-Serif" font-size="10.00" fill="#000000">::requestInitialize</text>
</a>
</g>
</g>
<!-- Node105&#45;&gt;Node106 -->
<g id="edge5" class="edge">
<title>Node105&#45;&gt;Node106</title>
<path fill="none" stroke="#191970" d="M602.4847,-33.7605C611.6453,-33.4853 621.0287,-33.2035 629.9253,-32.9362"/>
<polygon fill="#191970" stroke="#191970" points="602.165,-30.2684 592.2746,-34.0672 602.3752,-37.2653 602.165,-30.2684"/>
</g>
</g>
</svg>
