<?xml version="1.0" encoding="UTF-8" standalone="no"?>
<!DOCTYPE svg PUBLIC "-//W3C//DTD SVG 1.1//EN"
 "http://www.w3.org/Graphics/SVG/1.1/DTD/svg11.dtd">
<!-- Generated by graphviz version 2.40.1 (20161225.0304)
 -->
<!-- Title: ClientModel::updateAlert Pages: 1 -->
<svg width="488pt" height="37pt"
 viewBox="0.00 0.00 487.82 37.00" xmlns="http://www.w3.org/2000/svg" xmlns:xlink="http://www.w3.org/1999/xlink">
<g id="graph0" class="graph" transform="scale(1 1) rotate(0) translate(4 33)">
<title>ClientModel::updateAlert</title>
<polygon fill="#ffffff" stroke="transparent" points="-4,4 -4,-33 483.8242,-33 483.8242,4 -4,4"/>
<!-- Node250 -->
<g id="node1" class="node">
<title>Node250</title>
<polygon fill="#bfbfbf" stroke="#000000" points="0,-5.5 0,-23.5 125.5068,-23.5 125.5068,-5.5 0,-5.5"/>
<text text-anchor="middle" x="62.7534" y="-11.5" font-family="Helvetica,sans-Serif" font-size="10.00" fill="#000000">ClientModel::updateAlert</text>
</g>
<!-- Node251 -->
<g id="node2" class="node">
<title>Node251</title>
<g id="a_node2"><a xlink:href="class_client_model.html#a16718fa6c90ac5bce0ce1dcbfb3ec95c" target="_top" xlink:title="Return warnings to be displayed in status bar. ">
<polygon fill="#ffffff" stroke="#000000" points="161.5068,-.5 161.5068,-28.5 293.6787,-28.5 293.6787,-.5 161.5068,-.5"/>
<text text-anchor="start" x="169.5068" y="-16.5" font-family="Helvetica,sans-Serif" font-size="10.00" fill="#000000">ClientModel::getStatusBar</text>
<text text-anchor="middle" x="227.5928" y="-6.5" font-family="Helvetica,sans-Serif" font-size="10.00" fill="#000000">Warnings</text>
</a>
</g>
</g>
<!-- Node250&#45;&gt;Node251 -->
<g id="edge1" class="edge">
<title>Node250&#45;&gt;Node251</title>
<path fill="none" stroke="#191970" d="M125.5423,-14.5C133.9782,-14.5 142.7054,-14.5 151.3418,-14.5"/>
<polygon fill="#191970" stroke="#191970" points="151.4155,-18.0001 161.4155,-14.5 151.4154,-11.0001 151.4155,-18.0001"/>
</g>
<!-- Node252 -->
<g id="node3" class="node">
<title>Node252</title>
<g id="a_node3"><a xlink:href="classinterfaces_1_1_node.html#aebaab0999453f1d3c3b32799a3ff1308" target="_top" xlink:title="Get warnings. ">
<polygon fill="#ffffff" stroke="#000000" points="329.6787,-5.5 329.6787,-23.5 479.8242,-23.5 479.8242,-5.5 329.6787,-5.5"/>
<text text-anchor="middle" x="404.7515" y="-11.5" font-family="Helvetica,sans-Serif" font-size="10.00" fill="#000000">interfaces::Node::getWarnings</text>
</a>
</g>
</g>
<!-- Node251&#45;&gt;Node252 -->
<g id="edge2" class="edge">
<title>Node251&#45;&gt;Node252</title>
<path fill="none" stroke="#191970" d="M293.8121,-14.5C302.2181,-14.5 310.9115,-14.5 319.5618,-14.5"/>
<polygon fill="#191970" stroke="#191970" points="319.6769,-18.0001 329.6769,-14.5 319.6769,-11.0001 319.6769,-18.0001"/>
</g>
</g>
</svg>
