<?xml version="1.0" encoding="UTF-8" standalone="no"?>
<!DOCTYPE svg PUBLIC "-//W3C//DTD SVG 1.1//EN"
 "http://www.w3.org/Graphics/SVG/1.1/DTD/svg11.dtd">
<!-- Generated by graphviz version 2.40.1 (20161225.0304)
 -->
<!-- Title: prevector::is_direct Pages: 1 -->
<svg width="1118pt" height="1493pt"
 viewBox="0.00 0.00 1117.80 1493.43" xmlns="http://www.w3.org/2000/svg" xmlns:xlink="http://www.w3.org/1999/xlink">
<g id="graph0" class="graph" transform="scale(1 1) rotate(0) translate(4 1489.4294)">
<title>prevector::is_direct</title>
<polygon fill="#ffffff" stroke="transparent" points="-4,4 -4,-1489.4294 1113.8018,-1489.4294 1113.8018,4 -4,4"/>
<!-- Node920 -->
<g id="node1" class="node">
<title>Node920</title>
<polygon fill="#bfbfbf" stroke="#000000" points="0,-1078.4294 0,-1096.4294 100.4775,-1096.4294 100.4775,-1078.4294 0,-1078.4294"/>
<text text-anchor="middle" x="50.2388" y="-1084.4294" font-family="Helvetica,sans-Serif" font-size="10.00" fill="#000000">prevector::is_direct</text>
</g>
<!-- Node921 -->
<g id="node2" class="node">
<title>Node921</title>
<g id="a_node2"><a xlink:href="classprevector.html#a0e673654d3b7d8d6f79534e17f68741a" target="_top" xlink:title="prevector::change_capacity">
<polygon fill="#ffffff" stroke="#000000" points="293.79,-1097.4294 293.79,-1115.4294 432.085,-1115.4294 432.085,-1097.4294 293.79,-1097.4294"/>
<text text-anchor="middle" x="362.9375" y="-1103.4294" font-family="Helvetica,sans-Serif" font-size="10.00" fill="#000000">prevector::change_capacity</text>
</a>
</g>
</g>
<!-- Node920&#45;&gt;Node921 -->
<g id="edge1" class="edge">
<title>Node920&#45;&gt;Node921</title>
<path fill="none" stroke="#191970" d="M110.6259,-1091.0986C162.9861,-1094.2801 238.7603,-1098.8842 293.5911,-1102.2158"/>
<polygon fill="#191970" stroke="#191970" points="110.6731,-1087.5951 100.4792,-1090.4821 110.2485,-1094.5822 110.6731,-1087.5951"/>
</g>
<!-- Node930 -->
<g id="node10" class="node">
<title>Node930</title>
<g id="a_node10"><a xlink:href="classprevector.html#a507bc6d153e291d93c885162e3a3a8f7" target="_top" xlink:title="prevector::~prevector">
<polygon fill="#ffffff" stroke="#000000" points="856.709,-1361.4294 856.709,-1379.4294 967.4746,-1379.4294 967.4746,-1361.4294 856.709,-1361.4294"/>
<text text-anchor="middle" x="912.0918" y="-1367.4294" font-family="Helvetica,sans-Serif" font-size="10.00" fill="#000000">prevector::~prevector</text>
</a>
</g>
</g>
<!-- Node920&#45;&gt;Node930 -->
<g id="edge100" class="edge">
<title>Node920&#45;&gt;Node930</title>
<path fill="none" stroke="#191970" d="M54.9758,-1106.5419C75.9015,-1185.9171 167.7915,-1485.4294 362.9375,-1485.4294 362.9375,-1485.4294 362.9375,-1485.4294 554.1392,-1485.4294 692.5178,-1485.4294 847.1875,-1406.5634 896.2674,-1379.4533"/>
<polygon fill="#191970" stroke="#191970" points="58.2727,-1105.3079 52.3994,-1096.49 51.4919,-1107.0459 58.2727,-1105.3079"/>
</g>
<!-- Node955 -->
<g id="node22" class="node">
<title>Node955</title>
<g id="a_node22"><a xlink:href="classprevector.html#a59f1d7bcbc751cfa0faddd7ffa184846" target="_top" xlink:title="prevector::item_ptr">
<polygon fill="#ffffff" stroke="#000000" points="138.4307,-1059.4294 138.4307,-1077.4294 237.7949,-1077.4294 237.7949,-1059.4294 138.4307,-1059.4294"/>
<text text-anchor="middle" x="188.1128" y="-1065.4294" font-family="Helvetica,sans-Serif" font-size="10.00" fill="#000000">prevector::item_ptr</text>
</a>
</g>
</g>
<!-- Node920&#45;&gt;Node955 -->
<g id="edge25" class="edge">
<title>Node920&#45;&gt;Node955</title>
<path fill="none" stroke="#191970" d="M110.9062,-1079.069C119.9646,-1077.8207 129.2162,-1076.5458 138.0233,-1075.3321"/>
<polygon fill="#191970" stroke="#191970" points="110.2236,-1075.6299 100.7951,-1080.4624 111.1793,-1082.5644 110.2236,-1075.6299"/>
</g>
<!-- Node1068 -->
<g id="node40" class="node">
<title>Node1068</title>
<g id="a_node40"><a xlink:href="classprevector.html#a626f7d206dbc24e5610631809762758b" target="_top" xlink:title="prevector::size">
<polygon fill="#ffffff" stroke="#000000" points="147.6006,-559.4294 147.6006,-577.4294 228.625,-577.4294 228.625,-559.4294 147.6006,-559.4294"/>
<text text-anchor="middle" x="188.1128" y="-565.4294" font-family="Helvetica,sans-Serif" font-size="10.00" fill="#000000">prevector::size</text>
</a>
</g>
</g>
<!-- Node920&#45;&gt;Node1068 -->
<g id="edge64" class="edge">
<title>Node920&#45;&gt;Node1068</title>
<path fill="none" stroke="#191970" d="M55.2335,-1068.6277C77.7514,-983.8635 169.4322,-638.7489 185.6539,-577.6856"/>
<polygon fill="#191970" stroke="#191970" points="51.8167,-1067.8578 52.6318,-1078.4212 58.5821,-1069.655 51.8167,-1067.8578"/>
</g>
<!-- Node1091 -->
<g id="node49" class="node">
<title>Node1091</title>
<g id="a_node49"><a xlink:href="classprevector.html#a833f4c9e5c4804fb8ac57b708657af24" target="_top" xlink:title="prevector::capacity">
<polygon fill="#ffffff" stroke="#000000" points="312.9746,-1286.4294 312.9746,-1304.4294 412.9004,-1304.4294 412.9004,-1286.4294 312.9746,-1286.4294"/>
<text text-anchor="middle" x="362.9375" y="-1292.4294" font-family="Helvetica,sans-Serif" font-size="10.00" fill="#000000">prevector::capacity</text>
</a>
</g>
</g>
<!-- Node920&#45;&gt;Node1091 -->
<g id="edge94" class="edge">
<title>Node920&#45;&gt;Node1091</title>
<path fill="none" stroke="#191970" d="M67.3684,-1104.1443C103.2724,-1138.3977 190.1902,-1217.2956 275.748,-1264.4294 292.6337,-1273.7317 312.8469,-1281.1246 329.5578,-1286.3542"/>
<polygon fill="#191970" stroke="#191970" points="69.3761,-1101.2189 59.7438,-1096.8063 64.522,-1106.2625 69.3761,-1101.2189"/>
</g>
<!-- Node1092 -->
<g id="node50" class="node">
<title>Node1092</title>
<g id="a_node50"><a xlink:href="classprevector.html#ad4828b9a087bccd2f7f45dbbcf7cafe7" target="_top" xlink:title="prevector::allocated\l_memory">
<polygon fill="#ffffff" stroke="#000000" points="136.4775,-512.4294 136.4775,-540.4294 239.748,-540.4294 239.748,-512.4294 136.4775,-512.4294"/>
<text text-anchor="start" x="144.4775" y="-528.4294" font-family="Helvetica,sans-Serif" font-size="10.00" fill="#000000">prevector::allocated</text>
<text text-anchor="middle" x="188.1128" y="-518.4294" font-family="Helvetica,sans-Serif" font-size="10.00" fill="#000000">_memory</text>
</a>
</g>
</g>
<!-- Node920&#45;&gt;Node1092 -->
<g id="edge101" class="edge">
<title>Node920&#45;&gt;Node1092</title>
<path fill="none" stroke="#191970" d="M50.9307,-1067.9225C54.3537,-981.4534 71.9918,-633.3216 136.4775,-549.4294 139.109,-546.006 142.3613,-543.0799 145.9433,-540.5813"/>
<polygon fill="#191970" stroke="#191970" points="47.4249,-1068.0118 50.5456,-1078.1366 54.4199,-1068.2756 47.4249,-1068.0118"/>
</g>
<!-- Node922 -->
<g id="node3" class="node">
<title>Node922</title>
<g id="a_node3"><a xlink:href="classprevector.html#aecbf4de43de23c1b01a2e39bf974f14e" target="_top" xlink:title="prevector::assign">
<polygon fill="#ffffff" stroke="#000000" points="866.0181,-1210.4294 866.0181,-1228.4294 958.1655,-1228.4294 958.1655,-1210.4294 866.0181,-1210.4294"/>
<text text-anchor="middle" x="912.0918" y="-1216.4294" font-family="Helvetica,sans-Serif" font-size="10.00" fill="#000000">prevector::assign</text>
</a>
</g>
</g>
<!-- Node921&#45;&gt;Node922 -->
<g id="edge2" class="edge">
<title>Node921&#45;&gt;Node922</title>
<path fill="none" stroke="#191970" d="M389.4747,-1120.1667C414.011,-1132.4085 451.7637,-1150.0929 486.127,-1161.4294 619.1989,-1205.3302 786.1965,-1216.0341 865.7818,-1218.6211"/>
<polygon fill="#191970" stroke="#191970" points="390.9455,-1116.9885 380.4411,-1115.6069 387.7912,-1123.2376 390.9455,-1116.9885"/>
</g>
<!-- Node924 -->
<g id="node5" class="node">
<title>Node924</title>
<g id="a_node5"><a xlink:href="classprevector.html#a795ba13036a8b6a2faae997b4ba6a0bf" target="_top" xlink:title="prevector::prevector">
<polygon fill="#ffffff" stroke="#000000" points="501.6763,-1060.4294 501.6763,-1078.4294 606.6021,-1078.4294 606.6021,-1060.4294 501.6763,-1060.4294"/>
<text text-anchor="middle" x="554.1392" y="-1066.4294" font-family="Helvetica,sans-Serif" font-size="10.00" fill="#000000">prevector::prevector</text>
</a>
</g>
</g>
<!-- Node921&#45;&gt;Node924 -->
<g id="edge4" class="edge">
<title>Node921&#45;&gt;Node924</title>
<path fill="none" stroke="#191970" d="M419.7557,-1095.4343C447.7376,-1090.0195 481.0571,-1083.5717 507.5179,-1078.4512"/>
<polygon fill="#191970" stroke="#191970" points="418.8636,-1092.042 409.7107,-1097.3782 420.1935,-1098.9145 418.8636,-1092.042"/>
</g>
<!-- Node925 -->
<g id="node6" class="node">
<title>Node925</title>
<g id="a_node6"><a xlink:href="classprevector.html#ad2d97a45e0d2872260e868a540d31860" target="_top" xlink:title="prevector::resize">
<polygon fill="#ffffff" stroke="#000000" points="509.1812,-1134.4294 509.1812,-1152.4294 599.0972,-1152.4294 599.0972,-1134.4294 509.1812,-1134.4294"/>
<text text-anchor="middle" x="554.1392" y="-1140.4294" font-family="Helvetica,sans-Serif" font-size="10.00" fill="#000000">prevector::resize</text>
</a>
</g>
</g>
<!-- Node921&#45;&gt;Node925 -->
<g id="edge5" class="edge">
<title>Node921&#45;&gt;Node925</title>
<path fill="none" stroke="#191970" d="M419.5724,-1117.389C448.1755,-1122.9241 482.393,-1129.5456 509.1655,-1134.7264"/>
<polygon fill="#191970" stroke="#191970" points="420.1935,-1113.9443 409.7107,-1115.4806 418.8636,-1120.8168 420.1935,-1113.9443"/>
</g>
<!-- Node944 -->
<g id="node13" class="node">
<title>Node944</title>
<g id="a_node13"><a xlink:href="classprevector.html#ab9a34e0210debc65efda453dbd0cbd27" target="_top" xlink:title="prevector::reserve">
<polygon fill="#ffffff" stroke="#000000" points="505.8462,-1097.4294 505.8462,-1115.4294 602.4321,-1115.4294 602.4321,-1097.4294 505.8462,-1097.4294"/>
<text text-anchor="middle" x="554.1392" y="-1103.4294" font-family="Helvetica,sans-Serif" font-size="10.00" fill="#000000">prevector::reserve</text>
</a>
</g>
</g>
<!-- Node921&#45;&gt;Node944 -->
<g id="edge14" class="edge">
<title>Node921&#45;&gt;Node944</title>
<path fill="none" stroke="#191970" d="M442.3509,-1106.4294C463.8564,-1106.4294 486.4875,-1106.4294 505.7191,-1106.4294"/>
<polygon fill="#191970" stroke="#191970" points="442.2361,-1102.9295 432.236,-1106.4294 442.236,-1109.9295 442.2361,-1102.9295"/>
</g>
<!-- Node946 -->
<g id="node15" class="node">
<title>Node946</title>
<g id="a_node15"><a xlink:href="classprevector.html#a3b82afa760e2aabd8373994a1316523e" target="_top" xlink:title="prevector::shrink_to_fit">
<polygon fill="#ffffff" stroke="#000000" points="495.5605,-1023.4294 495.5605,-1041.4294 612.7178,-1041.4294 612.7178,-1023.4294 495.5605,-1023.4294"/>
<text text-anchor="middle" x="554.1392" y="-1029.4294" font-family="Helvetica,sans-Serif" font-size="10.00" fill="#000000">prevector::shrink_to_fit</text>
</a>
</g>
</g>
<!-- Node921&#45;&gt;Node946 -->
<g id="edge16" class="edge">
<title>Node921&#45;&gt;Node946</title>
<path fill="none" stroke="#191970" d="M389.5589,-1092.7506C414.1526,-1080.4961 451.9423,-1062.6254 486.127,-1050.4294 495.4452,-1047.1049 505.6756,-1044.0822 515.3081,-1041.5031"/>
<polygon fill="#191970" stroke="#191970" points="387.8619,-1089.6863 380.5018,-1097.3074 391.008,-1095.9395 387.8619,-1089.6863"/>
</g>
<!-- Node947 -->
<g id="node16" class="node">
<title>Node947</title>
<g id="a_node16"><a xlink:href="classprevector.html#ad4f368a9aa3f0f650e1b2a0894dafe51" target="_top" xlink:title="prevector::insert">
<polygon fill="#ffffff" stroke="#000000" points="510.292,-984.4294 510.292,-1002.4294 597.9863,-1002.4294 597.9863,-984.4294 510.292,-984.4294"/>
<text text-anchor="middle" x="554.1392" y="-990.4294" font-family="Helvetica,sans-Serif" font-size="10.00" fill="#000000">prevector::insert</text>
</a>
</g>
</g>
<!-- Node921&#45;&gt;Node947 -->
<g id="edge18" class="edge">
<title>Node921&#45;&gt;Node947</title>
<path fill="none" stroke="#191970" d="M385.0904,-1091.5184C402.9635,-1079.2891 428.5863,-1061.3038 450.127,-1044.4294 466.7486,-1031.4084 467.5815,-1023.5237 486.127,-1013.4294 494.4507,-1008.8988 503.9202,-1005.2842 513.0932,-1002.4446"/>
<polygon fill="#191970" stroke="#191970" points="382.8131,-1088.8344 376.513,-1097.3525 386.75,-1094.6224 382.8131,-1088.8344"/>
</g>
<!-- Node950 -->
<g id="node19" class="node">
<title>Node950</title>
<g id="a_node19"><a xlink:href="classprevector.html#af34b1eea43f461465aa29fe7ca67449d" target="_top" xlink:title="prevector::push_back">
<polygon fill="#ffffff" stroke="#000000" points="498.334,-1286.4294 498.334,-1304.4294 609.9443,-1304.4294 609.9443,-1286.4294 498.334,-1286.4294"/>
<text text-anchor="middle" x="554.1392" y="-1292.4294" font-family="Helvetica,sans-Serif" font-size="10.00" fill="#000000">prevector::push_back</text>
</a>
</g>
</g>
<!-- Node921&#45;&gt;Node950 -->
<g id="edge22" class="edge">
<title>Node921&#45;&gt;Node950</title>
<path fill="none" stroke="#191970" d="M391.5898,-1120.2123C410.0779,-1130.2083 433.6605,-1145.1549 450.127,-1163.4294 473.5454,-1189.4193 464.8629,-1205.6492 486.127,-1233.4294 502.5393,-1254.8711 526.9224,-1275.0231 541.5997,-1286.2437"/>
<polygon fill="#191970" stroke="#191970" points="393.1986,-1117.1039 382.7142,-1115.5775 389.9583,-1123.3088 393.1986,-1117.1039"/>
</g>
<!-- Node923 -->
<g id="node4" class="node">
<title>Node923</title>
<g id="a_node4"><a xlink:href="classprevector.html#a325af27672f21e7f2a01d8cdae7abba8" target="_top" xlink:title="prevector::operator=">
<polygon fill="#ffffff" stroke="#000000" points="1003.4746,-832.4294 1003.4746,-850.4294 1109.8018,-850.4294 1109.8018,-832.4294 1003.4746,-832.4294"/>
<text text-anchor="middle" x="1056.6382" y="-838.4294" font-family="Helvetica,sans-Serif" font-size="10.00" fill="#000000">prevector::operator=</text>
</a>
</g>
</g>
<!-- Node922&#45;&gt;Node923 -->
<g id="edge3" class="edge">
<title>Node922&#45;&gt;Node923</title>
<path fill="none" stroke="#191970" d="M940.0637,-1205.1547C950.0222,-1198.813 960.4877,-1190.4853 967.4746,-1180.4294 1045.43,-1068.2315 1055.2299,-892.1113 1056.4613,-850.468"/>
<polygon fill="#191970" stroke="#191970" points="937.9997,-1202.3091 931.175,-1210.413 941.5638,-1208.3338 937.9997,-1202.3091"/>
</g>
<!-- Node926 -->
<g id="node7" class="node">
<title>Node926</title>
<g id="a_node7"><a xlink:href="compressor_8h.html#aa6bd98842f2ceb1777745343d6ec0c9a" target="_top" xlink:title="DecompressScript">
<polygon fill="#ffffff" stroke="#ff0000" points="690.5854,-1020.4294 690.5854,-1038.4294 788.2749,-1038.4294 788.2749,-1020.4294 690.5854,-1020.4294"/>
<text text-anchor="middle" x="739.4302" y="-1026.4294" font-family="Helvetica,sans-Serif" font-size="10.00" fill="#000000">DecompressScript</text>
</a>
</g>
</g>
<!-- Node925&#45;&gt;Node926 -->
<g id="edge6" class="edge">
<title>Node925&#45;&gt;Node926</title>
<path fill="none" stroke="#191970" d="M608.7956,-1131.0511C613.4531,-1129.141 617.9743,-1126.947 622.1514,-1124.4294 642.0765,-1112.4201 640.5389,-1101.6293 658.1514,-1086.4294 679.9412,-1067.6243 707.8905,-1049.0975 724.6904,-1038.4885"/>
<polygon fill="#191970" stroke="#191970" points="607.3044,-1127.8694 599.1105,-1134.5859 609.7044,-1134.4451 607.3044,-1127.8694"/>
</g>
<!-- Node928 -->
<g id="node8" class="node">
<title>Node928</title>
<g id="a_node8"><a xlink:href="classprevector.html#a0c428e879c43daac251d6fbbc2ab7b54" target="_top" xlink:title="prevector::prevector">
<polygon fill="#ffffff" stroke="#000000" points="686.9673,-1096.4294 686.9673,-1114.4294 791.8931,-1114.4294 791.8931,-1096.4294 686.9673,-1096.4294"/>
<text text-anchor="middle" x="739.4302" y="-1102.4294" font-family="Helvetica,sans-Serif" font-size="10.00" fill="#000000">prevector::prevector</text>
</a>
</g>
</g>
<!-- Node925&#45;&gt;Node928 -->
<g id="edge7" class="edge">
<title>Node925&#45;&gt;Node928</title>
<path fill="none" stroke="#191970" d="M608.0124,-1132.3809C635.8149,-1126.6791 669.3013,-1119.8116 695.5133,-1114.436"/>
<polygon fill="#191970" stroke="#191970" points="607.1435,-1128.9862 598.0505,-1134.4239 608.5498,-1135.8435 607.1435,-1128.9862"/>
</g>
<!-- Node929 -->
<g id="node9" class="node">
<title>Node929</title>
<g id="a_node9"><a xlink:href="classprevector.html#a412f07b8bf5485dabe2fe9d6d5dfe763" target="_top" xlink:title="prevector::clear">
<polygon fill="#ffffff" stroke="#000000" points="696.9722,-1172.4294 696.9722,-1190.4294 781.8882,-1190.4294 781.8882,-1172.4294 696.9722,-1172.4294"/>
<text text-anchor="middle" x="739.4302" y="-1178.4294" font-family="Helvetica,sans-Serif" font-size="10.00" fill="#000000">prevector::clear</text>
</a>
</g>
</g>
<!-- Node925&#45;&gt;Node929 -->
<g id="edge8" class="edge">
<title>Node925&#45;&gt;Node929</title>
<path fill="none" stroke="#191970" d="M608.1614,-1154.5084C636.3889,-1160.2974 670.443,-1167.2813 696.7917,-1172.685"/>
<polygon fill="#191970" stroke="#191970" points="608.5498,-1151.0153 598.0505,-1152.4349 607.1435,-1157.8726 608.5498,-1151.0153"/>
</g>
<!-- Node942 -->
<g id="node12" class="node">
<title>Node942</title>
<g id="a_node12"><a xlink:href="serialize_8h.html#a7946ec004b1e1c7eb150c17d00800ca3" target="_top" xlink:title="Unserialize_impl">
<polygon fill="#ffffff" stroke="#ff0000" points="867.4121,-1153.4294 867.4121,-1171.4294 956.7715,-1171.4294 956.7715,-1153.4294 867.4121,-1153.4294"/>
<text text-anchor="middle" x="912.0918" y="-1159.4294" font-family="Helvetica,sans-Serif" font-size="10.00" fill="#000000">Unserialize_impl</text>
</a>
</g>
</g>
<!-- Node925&#45;&gt;Node942 -->
<g id="edge13" class="edge">
<title>Node925&#45;&gt;Node942</title>
<path fill="none" stroke="#191970" d="M609.1841,-1146.3512C680.0435,-1150.1124 801.8163,-1156.576 867.3033,-1160.052"/>
<polygon fill="#191970" stroke="#191970" points="609.2832,-1142.8516 599.1117,-1145.8165 608.9121,-1149.8418 609.2832,-1142.8516"/>
</g>
<!-- Node929&#45;&gt;Node922 -->
<g id="edge9" class="edge">
<title>Node929&#45;&gt;Node922</title>
<path fill="none" stroke="#191970" d="M790.3144,-1192.6282C816.0858,-1198.3001 846.9571,-1205.0943 871.1683,-1210.4228"/>
<polygon fill="#191970" stroke="#191970" points="790.8672,-1189.1661 780.3486,-1190.4349 789.3625,-1196.0025 790.8672,-1189.1661"/>
</g>
<!-- Node929&#45;&gt;Node930 -->
<g id="edge10" class="edge">
<title>Node929&#45;&gt;Node930</title>
<path fill="none" stroke="#191970" d="M764.1438,-1195.916C781.1852,-1206.6237 803.7352,-1222.2731 820.709,-1239.4294 860.4949,-1279.643 894.901,-1338.9524 907.2369,-1361.3877"/>
<polygon fill="#191970" stroke="#191970" points="765.6673,-1192.7445 755.3135,-1190.4976 762.0063,-1198.7108 765.6673,-1192.7445"/>
</g>
<!-- Node931 -->
<g id="node11" class="node">
<title>Node931</title>
<g id="a_node11"><a xlink:href="class_c_script.html#a7b2baf842621f07c4939408acf63377c" target="_top" xlink:title="CScript::clear">
<polygon fill="#ffffff" stroke="#ff0000" points="874.0845,-1077.4294 874.0845,-1095.4294 950.0991,-1095.4294 950.0991,-1077.4294 874.0845,-1077.4294"/>
<text text-anchor="middle" x="912.0918" y="-1083.4294" font-family="Helvetica,sans-Serif" font-size="10.00" fill="#000000">CScript::clear</text>
</a>
</g>
</g>
<!-- Node929&#45;&gt;Node931 -->
<g id="edge11" class="edge">
<title>Node929&#45;&gt;Node931</title>
<path fill="none" stroke="#191970" d="M764.8829,-1167.4251C800.7957,-1147.6655 865.3288,-1112.1589 895.5864,-1095.5108"/>
<polygon fill="#191970" stroke="#191970" points="763.0599,-1164.4333 755.9857,-1172.3204 766.4343,-1170.5662 763.0599,-1164.4333"/>
</g>
<!-- Node929&#45;&gt;Node942 -->
<g id="edge12" class="edge">
<title>Node929&#45;&gt;Node942</title>
<path fill="none" stroke="#191970" d="M792.1154,-1175.6318C816.1101,-1172.9914 844.2155,-1169.8986 867.19,-1167.3705"/>
<polygon fill="#191970" stroke="#191970" points="791.6677,-1172.1599 782.1106,-1176.7328 792.4335,-1179.1179 791.6677,-1172.1599"/>
</g>
<!-- Node945 -->
<g id="node14" class="node">
<title>Node945</title>
<g id="a_node14"><a xlink:href="class_c_script.html#af5c72a9c725a2c4f1432cc214d54cfd7" target="_top" xlink:title="CScript::operator+=">
<polygon fill="#ffffff" stroke="#000000" points="687.7974,-946.4294 687.7974,-964.4294 791.063,-964.4294 791.063,-946.4294 687.7974,-946.4294"/>
<text text-anchor="middle" x="739.4302" y="-952.4294" font-family="Helvetica,sans-Serif" font-size="10.00" fill="#000000">CScript::operator+=</text>
</a>
</g>
</g>
<!-- Node944&#45;&gt;Node945 -->
<g id="edge15" class="edge">
<title>Node944&#45;&gt;Node945</title>
<path fill="none" stroke="#191970" d="M611.8293,-1095.0441C615.5796,-1092.9168 619.0779,-1090.4017 622.1514,-1087.4294 660.3454,-1050.4926 618.9656,-1009.3124 658.1514,-973.4294 666.2522,-966.0113 676.7066,-961.4113 687.4033,-958.6099"/>
<polygon fill="#191970" stroke="#191970" points="610.262,-1091.9133 602.7025,-1099.3365 613.2412,-1098.2477 610.262,-1091.9133"/>
</g>
<!-- Node946&#45;&gt;Node931 -->
<g id="edge17" class="edge">
<title>Node946&#45;&gt;Node931</title>
<path fill="none" stroke="#191970" d="M623.1015,-1042.8329C697.813,-1054.1037 814.3088,-1071.6781 874.0075,-1080.6841"/>
<polygon fill="#191970" stroke="#191970" points="623.2572,-1039.3169 612.8469,-1041.2859 622.2129,-1046.2386 623.2572,-1039.3169"/>
</g>
<!-- Node947&#45;&gt;Node945 -->
<g id="edge20" class="edge">
<title>Node947&#45;&gt;Node945</title>
<path fill="none" stroke="#191970" d="M608.0124,-982.3809C635.8149,-976.6791 669.3013,-969.8116 695.5133,-964.436"/>
<polygon fill="#191970" stroke="#191970" points="607.1435,-978.9862 598.0505,-984.4239 608.5498,-985.8435 607.1435,-978.9862"/>
</g>
<!-- Node948 -->
<g id="node17" class="node">
<title>Node948</title>
<g id="a_node17"><a xlink:href="interpreter_8h.html#a4bbdb5f5fcbbe292942cb74ee15ab3df" target="_top" xlink:title="FindAndDelete">
<polygon fill="#ffffff" stroke="#000000" points="698.354,-567.4294 698.354,-585.4294 780.5063,-585.4294 780.5063,-567.4294 698.354,-567.4294"/>
<text text-anchor="middle" x="739.4302" y="-573.4294" font-family="Helvetica,sans-Serif" font-size="10.00" fill="#000000">FindAndDelete</text>
</a>
</g>
</g>
<!-- Node947&#45;&gt;Node948 -->
<g id="edge19" class="edge">
<title>Node947&#45;&gt;Node948</title>
<path fill="none" stroke="#191970" d="M562.2806,-975.107C594.3965,-902.8298 711.6942,-638.8497 735.2818,-585.7655"/>
<polygon fill="#191970" stroke="#191970" points="559.0438,-973.7723 558.1815,-984.332 565.4407,-976.6147 559.0438,-973.7723"/>
</g>
<!-- Node949 -->
<g id="node18" class="node">
<title>Node949</title>
<g id="a_node18"><a xlink:href="class_c_script.html#af22201e1171b6390b4a06678d00c78d3" target="_top" xlink:title="CScript::operator\&lt;\&lt;">
<polygon fill="#ffffff" stroke="#000000" points="687.7974,-983.4294 687.7974,-1001.4294 791.063,-1001.4294 791.063,-983.4294 687.7974,-983.4294"/>
<text text-anchor="middle" x="739.4302" y="-989.4294" font-family="Helvetica,sans-Serif" font-size="10.00" fill="#000000">CScript::operator&lt;&lt;</text>
</a>
</g>
</g>
<!-- Node947&#45;&gt;Node949 -->
<g id="edge21" class="edge">
<title>Node947&#45;&gt;Node949</title>
<path fill="none" stroke="#191970" d="M608.1202,-993.1381C633.1756,-993.0028 662.8287,-992.8428 687.6104,-992.7091"/>
<polygon fill="#191970" stroke="#191970" points="608.0315,-989.6384 598.0505,-993.1924 608.0693,-996.6383 608.0315,-989.6384"/>
</g>
<!-- Node951 -->
<g id="node20" class="node">
<title>Node951</title>
<g id="a_node20"><a xlink:href="class_wallet_model.html#aa56ac200db13d7121cedb40ebd43ba2f" target="_top" xlink:title="WalletModel::prepareTransaction">
<polygon fill="#ffffff" stroke="#000000" points="658.1514,-1286.4294 658.1514,-1304.4294 820.709,-1304.4294 820.709,-1286.4294 658.1514,-1286.4294"/>
<text text-anchor="middle" x="739.4302" y="-1292.4294" font-family="Helvetica,sans-Serif" font-size="10.00" fill="#000000">WalletModel::prepareTransaction</text>
</a>
</g>
</g>
<!-- Node950&#45;&gt;Node951 -->
<g id="edge23" class="edge">
<title>Node950&#45;&gt;Node951</title>
<path fill="none" stroke="#191970" d="M620.1169,-1295.4294C632.3968,-1295.4294 645.3599,-1295.4294 658.0377,-1295.4294"/>
<polygon fill="#191970" stroke="#191970" points="619.9839,-1291.9295 609.9838,-1295.4294 619.9838,-1298.9295 619.9839,-1291.9295"/>
</g>
<!-- Node952 -->
<g id="node21" class="node">
<title>Node952</title>
<g id="a_node21"><a xlink:href="class_c_script.html#ad802105f1515b4953ecbe6aeab2ee1ca" target="_top" xlink:title="CScript::push_int64">
<polygon fill="#ffffff" stroke="#ff0000" points="687.7949,-1249.4294 687.7949,-1267.4294 791.0654,-1267.4294 791.0654,-1249.4294 687.7949,-1249.4294"/>
<text text-anchor="middle" x="739.4302" y="-1255.4294" font-family="Helvetica,sans-Serif" font-size="10.00" fill="#000000">CScript::push_int64</text>
</a>
</g>
</g>
<!-- Node950&#45;&gt;Node952 -->
<g id="edge24" class="edge">
<title>Node950&#45;&gt;Node952</title>
<path fill="none" stroke="#191970" d="M609.558,-1284.363C636.6009,-1278.963 668.7198,-1272.5493 694.2501,-1267.4512"/>
<polygon fill="#191970" stroke="#191970" points="608.5874,-1280.9877 599.4664,-1286.3782 609.9582,-1287.8521 608.5874,-1280.9877"/>
</g>
<!-- Node955&#45;&gt;Node922 -->
<g id="edge26" class="edge">
<title>Node955&#45;&gt;Node922</title>
<path fill="none" stroke="#191970" d="M189.869,-1087.4589C196.468,-1154.3102 222.1833,-1376.623 275.748,-1418.4294 375.1548,-1496.0148 737.8346,-1396.2797 820.709,-1343.4294 866.9315,-1313.9526 897.725,-1252.1697 908.1599,-1228.7229"/>
<polygon fill="#191970" stroke="#191970" points="193.3511,-1087.1035 188.914,-1077.4825 186.383,-1087.7706 193.3511,-1087.1035"/>
</g>
<!-- Node955&#45;&gt;Node924 -->
<g id="edge27" class="edge">
<title>Node955&#45;&gt;Node924</title>
<path fill="none" stroke="#191970" d="M247.9133,-1068.5928C318.3826,-1068.7853 434.3597,-1069.1022 501.5406,-1069.2857"/>
<polygon fill="#191970" stroke="#191970" points="247.8672,-1065.0927 237.8577,-1068.5653 247.848,-1072.0927 247.8672,-1065.0927"/>
</g>
<!-- Node955&#45;&gt;Node925 -->
<g id="edge55" class="edge">
<title>Node955&#45;&gt;Node925</title>
<path fill="none" stroke="#191970" d="M191.4101,-1087.5408C198.8968,-1124.2949 220.977,-1204.134 275.748,-1237.4294 341.9733,-1277.6878 377.7984,-1265.2701 450.127,-1237.4294 495.5564,-1219.9427 533.4863,-1172.4059 547.9068,-1152.4454"/>
<polygon fill="#191970" stroke="#191970" points="194.8308,-1086.7931 189.535,-1077.6168 187.9525,-1088.0927 194.8308,-1086.7931"/>
</g>
<!-- Node955&#45;&gt;Node947 -->
<g id="edge56" class="edge">
<title>Node955&#45;&gt;Node947</title>
<path fill="none" stroke="#191970" d="M242.149,-1057.3572C314.8887,-1042.4526 442.9116,-1016.2203 510.1165,-1002.4498"/>
<polygon fill="#191970" stroke="#191970" points="241.358,-1053.9465 232.2641,-1059.3826 242.7632,-1060.804 241.358,-1053.9465"/>
</g>
<!-- Node955&#45;&gt;Node950 -->
<g id="edge57" class="edge">
<title>Node955&#45;&gt;Node950</title>
<path fill="none" stroke="#191970" d="M190.3675,-1087.9715C198.1791,-1151.8702 226.3453,-1352.6751 275.748,-1390.4294 337.3268,-1437.4887 377.872,-1418.4604 450.127,-1390.4294 495.7278,-1372.7387 533.5614,-1324.7063 547.9314,-1304.5387"/>
<polygon fill="#191970" stroke="#191970" points="193.8028,-1087.2198 189.1452,-1077.7036 186.8519,-1088.0473 193.8028,-1087.2198"/>
</g>
<!-- Node956 -->
<g id="node23" class="node">
<title>Node956</title>
<g id="a_node23"><a xlink:href="classprevector.html#aa9210cbe708412a70868d6e0bca844c9" target="_top" xlink:title="prevector::begin">
<polygon fill="#ffffff" stroke="#ff0000" points="319.083,-680.4294 319.083,-698.4294 406.792,-698.4294 406.792,-680.4294 319.083,-680.4294"/>
<text text-anchor="middle" x="362.9375" y="-686.4294" font-family="Helvetica,sans-Serif" font-size="10.00" fill="#000000">prevector::begin</text>
</a>
</g>
</g>
<!-- Node955&#45;&gt;Node956 -->
<g id="edge28" class="edge">
<title>Node955&#45;&gt;Node956</title>
<path fill="none" stroke="#191970" d="M191.0446,-1049.1079C198.8952,-1001.4574 223.4443,-875.5833 275.748,-784.4294 296.5825,-748.1196 333.5021,-714.1656 351.8905,-698.5001"/>
<polygon fill="#191970" stroke="#191970" points="187.5852,-1048.5763 189.4727,-1059.0017 194.4985,-1049.6747 187.5852,-1048.5763"/>
</g>
<!-- Node1054 -->
<g id="node31" class="node">
<title>Node1054</title>
<g id="a_node31"><a xlink:href="classprevector.html#aab7f6e13a3cac85cc340fc6b90c5365c" target="_top" xlink:title="prevector::end">
<polygon fill="#ffffff" stroke="#ff0000" points="322.9746,-794.4294 322.9746,-812.4294 402.9004,-812.4294 402.9004,-794.4294 322.9746,-794.4294"/>
<text text-anchor="middle" x="362.9375" y="-800.4294" font-family="Helvetica,sans-Serif" font-size="10.00" fill="#000000">prevector::end</text>
</a>
</g>
</g>
<!-- Node955&#45;&gt;Node1054 -->
<g id="edge41" class="edge">
<title>Node955&#45;&gt;Node1054</title>
<path fill="none" stroke="#191970" d="M199.6722,-1050.9076C233.5284,-999.5882 331.6711,-850.8232 356.9449,-812.5129"/>
<polygon fill="#191970" stroke="#191970" points="196.7159,-1049.0329 194.1307,-1059.3075 202.559,-1052.8877 196.7159,-1049.0329"/>
</g>
<!-- Node1059 -->
<g id="node32" class="node">
<title>Node1059</title>
<g id="a_node32"><a xlink:href="classprevector.html#ada5a19cb7dfa0271119cfd17e2bf51e1" target="_top" xlink:title="prevector::rbegin">
<polygon fill="#ffffff" stroke="#000000" points="317.418,-983.4294 317.418,-1001.4294 408.457,-1001.4294 408.457,-983.4294 317.418,-983.4294"/>
<text text-anchor="middle" x="362.9375" y="-989.4294" font-family="Helvetica,sans-Serif" font-size="10.00" fill="#000000">prevector::rbegin</text>
</a>
</g>
</g>
<!-- Node955&#45;&gt;Node1059 -->
<g id="edge52" class="edge">
<title>Node955&#45;&gt;Node1059</title>
<path fill="none" stroke="#191970" d="M209.5939,-1053.4688C226.828,-1042.0223 251.9837,-1026.5348 275.748,-1016.4294 290.1961,-1010.2856 306.6606,-1005.2795 321.3617,-1001.4598"/>
<polygon fill="#191970" stroke="#191970" points="207.2166,-1050.8513 200.8935,-1059.3524 211.1378,-1056.6499 207.2166,-1050.8513"/>
</g>
<!-- Node1060 -->
<g id="node33" class="node">
<title>Node1060</title>
<g id="a_node33"><a xlink:href="classprevector.html#a6653d7df565bf668685a418714e3d712" target="_top" xlink:title="prevector::rend">
<polygon fill="#ffffff" stroke="#000000" points="321.3096,-1210.4294 321.3096,-1228.4294 404.5654,-1228.4294 404.5654,-1210.4294 321.3096,-1210.4294"/>
<text text-anchor="middle" x="362.9375" y="-1216.4294" font-family="Helvetica,sans-Serif" font-size="10.00" fill="#000000">prevector::rend</text>
</a>
</g>
</g>
<!-- Node955&#45;&gt;Node1060 -->
<g id="edge53" class="edge">
<title>Node955&#45;&gt;Node1060</title>
<path fill="none" stroke="#191970" d="M195.0249,-1086.9321C206.8669,-1115.9535 233.8829,-1171.8103 275.748,-1200.4294 289.0492,-1209.5221 305.9328,-1214.3627 321.2929,-1216.9054"/>
<polygon fill="#191970" stroke="#191970" points="198.2572,-1085.5874 191.3492,-1077.5543 191.7399,-1088.142 198.2572,-1085.5874"/>
</g>
<!-- Node1061 -->
<g id="node34" class="node">
<title>Node1061</title>
<g id="a_node34"><a xlink:href="classprevector.html#a06c929a30caa5842da7828e113030791" target="_top" xlink:title="prevector::operator[]">
<polygon fill="#ffffff" stroke="#000000" points="309.9155,-1173.4294 309.9155,-1191.4294 415.9595,-1191.4294 415.9595,-1173.4294 309.9155,-1173.4294"/>
<text text-anchor="middle" x="362.9375" y="-1179.4294" font-family="Helvetica,sans-Serif" font-size="10.00" fill="#000000">prevector::operator[]</text>
</a>
</g>
</g>
<!-- Node955&#45;&gt;Node1061 -->
<g id="edge54" class="edge">
<title>Node955&#45;&gt;Node1061</title>
<path fill="none" stroke="#191970" d="M200.3682,-1085.7399C215.7021,-1106.1239 243.8541,-1139.5851 275.748,-1158.4294 286.832,-1164.9783 299.7609,-1169.7942 312.2157,-1173.3154"/>
<polygon fill="#191970" stroke="#191970" points="203.1662,-1083.6368 194.4322,-1077.6394 197.5198,-1087.7743 203.1662,-1083.6368"/>
</g>
<!-- Node1062 -->
<g id="node35" class="node">
<title>Node1062</title>
<g id="a_node35"><a xlink:href="classprevector.html#acb71926f63896b2bd6f4da4ffe515d19" target="_top" xlink:title="prevector::front">
<polygon fill="#ffffff" stroke="#000000" points="321.312,-1362.4294 321.312,-1380.4294 404.563,-1380.4294 404.563,-1362.4294 321.312,-1362.4294"/>
<text text-anchor="middle" x="362.9375" y="-1368.4294" font-family="Helvetica,sans-Serif" font-size="10.00" fill="#000000">prevector::front</text>
</a>
</g>
</g>
<!-- Node955&#45;&gt;Node1062 -->
<g id="edge58" class="edge">
<title>Node955&#45;&gt;Node1062</title>
<path fill="none" stroke="#191970" d="M191.7166,-1087.8413C202.6742,-1144.8727 237.2088,-1310.2433 275.748,-1347.4294 287.8371,-1359.094 305.0523,-1365.2005 320.9965,-1368.3573"/>
<polygon fill="#191970" stroke="#191970" points="195.0912,-1086.8494 189.794,-1077.6739 188.2131,-1088.1501 195.0912,-1086.8494"/>
</g>
<!-- Node1063 -->
<g id="node36" class="node">
<title>Node1063</title>
<g id="a_node36"><a xlink:href="classprevector.html#a9ff352b7b4f87eb70f0e79547d6f5314" target="_top" xlink:title="prevector::back">
<polygon fill="#ffffff" stroke="#000000" points="320.7554,-946.4294 320.7554,-964.4294 405.1196,-964.4294 405.1196,-946.4294 320.7554,-946.4294"/>
<text text-anchor="middle" x="362.9375" y="-952.4294" font-family="Helvetica,sans-Serif" font-size="10.00" fill="#000000">prevector::back</text>
</a>
</g>
</g>
<!-- Node955&#45;&gt;Node1063 -->
<g id="edge59" class="edge">
<title>Node955&#45;&gt;Node1063</title>
<path fill="none" stroke="#191970" d="M199.2532,-1050.774C213.9859,-1028.9825 242.0595,-992.4793 275.748,-973.4294 289.3368,-965.7454 305.7746,-961.3227 320.6983,-958.7841"/>
<polygon fill="#191970" stroke="#191970" points="196.1687,-1049.0952 193.6141,-1059.3775 202.0232,-1052.9325 196.1687,-1049.0952"/>
</g>
<!-- Node1064 -->
<g id="node37" class="node">
<title>Node1064</title>
<g id="a_node37"><a xlink:href="classprevector.html#a9fbdc01ee822a8e4fc6a83e7899975f4" target="_top" xlink:title="prevector::data">
<polygon fill="#ffffff" stroke="#000000" points="321.5854,-643.4294 321.5854,-661.4294 404.2896,-661.4294 404.2896,-643.4294 321.5854,-643.4294"/>
<text text-anchor="middle" x="362.9375" y="-649.4294" font-family="Helvetica,sans-Serif" font-size="10.00" fill="#000000">prevector::data</text>
</a>
</g>
</g>
<!-- Node955&#45;&gt;Node1064 -->
<g id="edge60" class="edge">
<title>Node955&#45;&gt;Node1064</title>
<path fill="none" stroke="#191970" d="M189.6351,-1049.1221C195.7164,-977.0087 220.6526,-724.8054 275.748,-670.4294 287.7389,-658.5951 305.3254,-653.5752 321.5686,-651.7123"/>
<polygon fill="#191970" stroke="#191970" points="186.1192,-1049.1742 188.7928,-1059.4262 193.0959,-1049.7446 186.1192,-1049.1742"/>
</g>
<!-- Node956&#45;&gt;Node923 -->
<g id="edge30" class="edge">
<title>Node956&#45;&gt;Node923</title>
<path fill="none" stroke="#191970" d="M411.5283,-678.412C463.9386,-668.2561 549.6262,-656.6712 622.1514,-670.4294 793.7823,-702.9882 984.3434,-801.9056 1040.3425,-832.3888"/>
<polygon fill="#191970" stroke="#191970" points="410.6234,-675.0236 401.5037,-680.4163 411.9958,-681.8878 410.6234,-675.0236"/>
</g>
<!-- Node956&#45;&gt;Node945 -->
<g id="edge39" class="edge">
<title>Node956&#45;&gt;Node945</title>
<path fill="none" stroke="#191970" d="M417.3242,-678.8598C473.6488,-671.05 561.7168,-667.9538 622.1514,-709.4294 708.3642,-768.5964 733.1278,-908.9405 738.2875,-946.2099"/>
<polygon fill="#191970" stroke="#191970" points="416.5684,-675.4335 407.1904,-680.3632 417.5958,-682.3577 416.5684,-675.4335"/>
</g>
<!-- Node956&#45;&gt;Node947 -->
<g id="edge31" class="edge">
<title>Node956&#45;&gt;Node947</title>
<path fill="none" stroke="#191970" d="M380.3964,-705.5317C399.2148,-723.5089 429.2678,-754.081 450.127,-784.4294 499.2554,-855.9075 538.9301,-953.9306 550.626,-984.1705"/>
<polygon fill="#191970" stroke="#191970" points="382.7568,-702.9468 373.0787,-698.6356 377.956,-708.0411 382.7568,-702.9468"/>
</g>
<!-- Node956&#45;&gt;Node948 -->
<g id="edge34" class="edge">
<title>Node956&#45;&gt;Node948</title>
<path fill="none" stroke="#191970" d="M416.8225,-685.3388C428.67,-682.4469 440.5297,-677.8039 450.127,-670.4294 477.8675,-649.1136 457.1572,-620.0421 486.127,-600.4294 549.9571,-557.2161 644.4621,-561.7635 698.1658,-569.0386"/>
<polygon fill="#191970" stroke="#191970" points="416.0118,-681.9322 406.9235,-687.3776 417.424,-688.7883 416.0118,-681.9322"/>
</g>
<!-- Node966 -->
<g id="node24" class="node">
<title>Node966</title>
<g id="a_node24"><a xlink:href="classprevector.html#abab195dce86a4b44bab7a5e9809a522c" target="_top" xlink:title="prevector::prevector">
<polygon fill="#ffffff" stroke="#000000" points="501.6763,-719.4294 501.6763,-737.4294 606.6021,-737.4294 606.6021,-719.4294 501.6763,-719.4294"/>
<text text-anchor="middle" x="554.1392" y="-725.4294" font-family="Helvetica,sans-Serif" font-size="10.00" fill="#000000">prevector::prevector</text>
</a>
</g>
</g>
<!-- Node956&#45;&gt;Node966 -->
<g id="edge29" class="edge">
<title>Node956&#45;&gt;Node966</title>
<path fill="none" stroke="#191970" d="M416.8904,-700.4343C446.2446,-706.4218 482.1103,-713.7375 509.8156,-719.3886"/>
<polygon fill="#191970" stroke="#191970" points="417.3008,-696.9461 406.803,-698.3768 415.9017,-703.8048 417.3008,-696.9461"/>
</g>
<!-- Node967 -->
<g id="node25" class="node">
<title>Node967</title>
<g id="a_node25"><a xlink:href="classprevector.html#a6de6f6aff0a0ca527754020dbb26f7ab" target="_top" xlink:title="prevector::operator==">
<polygon fill="#ffffff" stroke="#000000" points="498.0557,-529.4294 498.0557,-547.4294 610.2227,-547.4294 610.2227,-529.4294 498.0557,-529.4294"/>
<text text-anchor="middle" x="554.1392" y="-535.4294" font-family="Helvetica,sans-Serif" font-size="10.00" fill="#000000">prevector::operator==</text>
</a>
</g>
</g>
<!-- Node956&#45;&gt;Node967 -->
<g id="edge32" class="edge">
<title>Node956&#45;&gt;Node967</title>
<path fill="none" stroke="#191970" d="M416.972,-686.5452C429.0275,-683.6334 440.9423,-678.6788 450.127,-670.4294 487.7692,-636.6202 450.664,-598.5179 486.127,-562.4294 492.6213,-555.8205 501.044,-551.027 509.7376,-547.5516"/>
<polygon fill="#191970" stroke="#191970" points="416.0028,-683.1689 406.8693,-688.5381 417.3576,-690.0365 416.0028,-683.1689"/>
</g>
<!-- Node968 -->
<g id="node26" class="node">
<title>Node968</title>
<g id="a_node26"><a xlink:href="classprevector.html#aa599ca1a3ab1fef2736b831ffed19d04" target="_top" xlink:title="prevector::operator\&lt;">
<polygon fill="#ffffff" stroke="#000000" points="500.9756,-756.4294 500.9756,-774.4294 607.3027,-774.4294 607.3027,-756.4294 500.9756,-756.4294"/>
<text text-anchor="middle" x="554.1392" y="-762.4294" font-family="Helvetica,sans-Serif" font-size="10.00" fill="#000000">prevector::operator&lt;</text>
</a>
</g>
</g>
<!-- Node956&#45;&gt;Node968 -->
<g id="edge33" class="edge">
<title>Node956&#45;&gt;Node968</title>
<path fill="none" stroke="#191970" d="M389.1485,-703.0605C413.7374,-715.4842 451.7683,-733.7748 486.127,-746.4294 496.1357,-750.1157 507.1966,-753.4909 517.4386,-756.3406"/>
<polygon fill="#191970" stroke="#191970" points="390.6057,-699.8748 380.1071,-698.4501 387.4257,-706.1109 390.6057,-699.8748"/>
</g>
<!-- Node969 -->
<g id="node27" class="node">
<title>Node969</title>
<g id="a_node27"><a xlink:href="interpreter_8h.html#acea38d31b2cc35a1ecfad02eaed0f85e" target="_top" xlink:title="EvalScript">
<polygon fill="#ffffff" stroke="#ff0000" points="523.6318,-455.4294 523.6318,-473.4294 584.6465,-473.4294 584.6465,-455.4294 523.6318,-455.4294"/>
<text text-anchor="middle" x="554.1392" y="-461.4294" font-family="Helvetica,sans-Serif" font-size="10.00" fill="#000000">EvalScript</text>
</a>
</g>
</g>
<!-- Node956&#45;&gt;Node969 -->
<g id="edge35" class="edge">
<title>Node956&#45;&gt;Node969</title>
<path fill="none" stroke="#191970" d="M417.0596,-687.5578C429.3408,-684.651 441.3373,-679.4449 450.127,-670.4294 509.5154,-609.5152 428.098,-544.6401 486.127,-482.4294 495.6247,-472.2472 510.1505,-467.5641 523.3429,-465.5016"/>
<polygon fill="#191970" stroke="#191970" points="416.3786,-684.1245 407.205,-689.4249 417.6818,-691.0021 416.3786,-684.1245"/>
</g>
<!-- Node978 -->
<g id="node29" class="node">
<title>Node978</title>
<g id="a_node29"><a xlink:href="class_c_script.html#ae6f2ab1af6361c5772f62b28b19f5eae" target="_top" xlink:title="CScript::IsWitnessProgram">
<polygon fill="#ffffff" stroke="#ff0000" points="486.127,-492.4294 486.127,-510.4294 622.1514,-510.4294 622.1514,-492.4294 486.127,-492.4294"/>
<text text-anchor="middle" x="554.1392" y="-498.4294" font-family="Helvetica,sans-Serif" font-size="10.00" fill="#000000">CScript::IsWitnessProgram</text>
</a>
</g>
</g>
<!-- Node956&#45;&gt;Node978 -->
<g id="edge37" class="edge">
<title>Node956&#45;&gt;Node978</title>
<path fill="none" stroke="#191970" d="M416.7802,-687.2793C429.0679,-684.3789 441.1374,-679.2455 450.127,-670.4294 499.3845,-622.1221 437.948,-568.8125 486.127,-519.4294 489.7093,-515.7575 493.9469,-512.8059 498.5282,-510.4372"/>
<polygon fill="#191970" stroke="#191970" points="416.1023,-683.8454 406.9335,-689.1543 417.4117,-690.7218 416.1023,-683.8454"/>
</g>
<!-- Node1051 -->
<g id="node30" class="node">
<title>Node1051</title>
<g id="a_node30"><a xlink:href="class_c_script.html#a11c26ad1d03fa2d60a733337c21b6719" target="_top" xlink:title="Returns whether the script is guaranteed to fail at execution, regardless of the initial stack...">
<polygon fill="#ffffff" stroke="#ff0000" points="493.6123,-381.4294 493.6123,-399.4294 614.666,-399.4294 614.666,-381.4294 493.6123,-381.4294"/>
<text text-anchor="middle" x="554.1392" y="-387.4294" font-family="Helvetica,sans-Serif" font-size="10.00" fill="#000000">CScript::IsUnspendable</text>
</a>
</g>
</g>
<!-- Node956&#45;&gt;Node1051 -->
<g id="edge40" class="edge">
<title>Node956&#45;&gt;Node1051</title>
<path fill="none" stroke="#191970" d="M416.8957,-687.8281C429.2979,-684.9344 441.392,-679.6669 450.127,-670.4294 519.7076,-596.8458 435.3926,-533.0766 486.127,-445.4294 498.0707,-424.7958 520.945,-408.7843 536.8507,-399.4862"/>
<polygon fill="#191970" stroke="#191970" points="416.1378,-684.4088 406.9417,-689.6702 417.4117,-691.2919 416.1378,-684.4088"/>
</g>
<!-- Node972 -->
<g id="node28" class="node">
<title>Node972</title>
<g id="a_node28"><a xlink:href="interpreter_8h.html#a20c210d3ade38906e6b8f57b30a1880b" target="_top" xlink:title="VerifyScript">
<polygon fill="#ffffff" stroke="#ff0000" points="706.1421,-455.4294 706.1421,-473.4294 772.7183,-473.4294 772.7183,-455.4294 706.1421,-455.4294"/>
<text text-anchor="middle" x="739.4302" y="-461.4294" font-family="Helvetica,sans-Serif" font-size="10.00" fill="#000000">VerifyScript</text>
</a>
</g>
</g>
<!-- Node969&#45;&gt;Node972 -->
<g id="edge36" class="edge">
<title>Node969&#45;&gt;Node972</title>
<path fill="none" stroke="#191970" d="M595.057,-464.4294C628.3783,-464.4294 674.8378,-464.4294 705.9659,-464.4294"/>
<polygon fill="#191970" stroke="#191970" points="594.7362,-460.9295 584.7362,-464.4294 594.7362,-467.9295 594.7362,-460.9295"/>
</g>
<!-- Node978&#45;&gt;Node972 -->
<g id="edge38" class="edge">
<title>Node978&#45;&gt;Node972</title>
<path fill="none" stroke="#191970" d="M609.3907,-490.3964C640.7732,-484.1298 679.0347,-476.4895 705.903,-471.1243"/>
<polygon fill="#191970" stroke="#191970" points="608.5874,-486.9877 599.4664,-492.3782 609.9582,-493.8521 608.5874,-486.9877"/>
</g>
<!-- Node1054&#45;&gt;Node923 -->
<g id="edge43" class="edge">
<title>Node1054&#45;&gt;Node923</title>
<path fill="none" stroke="#191970" d="M413.3691,-808.4117C435.653,-810.4894 462.1779,-812.7942 486.127,-814.4294 676.068,-827.3985 902.01,-836.1015 1003.1097,-839.6424"/>
<polygon fill="#191970" stroke="#191970" points="413.4126,-804.9003 403.128,-807.4452 412.7549,-811.8693 413.4126,-804.9003"/>
</g>
<!-- Node1054&#45;&gt;Node925 -->
<g id="edge44" class="edge">
<title>Node1054&#45;&gt;Node925</title>
<path fill="none" stroke="#191970" d="M377.4043,-820.5722C397.0349,-844.7708 431.7614,-891.0728 450.127,-936.4294 482.0564,-1015.284 428.5251,-1061.823 486.127,-1124.4294 492.1866,-1131.0155 500.3207,-1135.3904 508.8534,-1138.2797"/>
<polygon fill="#191970" stroke="#191970" points="379.9753,-818.1887 370.9132,-812.6998 374.5744,-822.6419 379.9753,-818.1887"/>
</g>
<!-- Node1054&#45;&gt;Node945 -->
<g id="edge50" class="edge">
<title>Node1054&#45;&gt;Node945</title>
<path fill="none" stroke="#191970" d="M413.043,-813.6135C425.5175,-817.1151 438.6101,-821.654 450.127,-827.4294 468.2461,-836.5157 468.3399,-845.7091 486.127,-855.4294 542.3835,-886.1727 562.5751,-879.752 622.1514,-903.4294 657.1307,-917.3313 697.0372,-935.5402 720.1213,-946.3111"/>
<polygon fill="#191970" stroke="#191970" points="413.7747,-810.1869 403.213,-811.0238 411.9914,-816.9559 413.7747,-810.1869"/>
</g>
<!-- Node1054&#45;&gt;Node948 -->
<g id="edge47" class="edge">
<title>Node1054&#45;&gt;Node948</title>
<path fill="none" stroke="#191970" d="M412.9187,-812.6325C468.5254,-820.0908 558.8562,-823.6579 622.1514,-783.4294 698.1454,-735.1299 729.7578,-618.9826 737.4684,-585.5656"/>
<polygon fill="#191970" stroke="#191970" points="413.3496,-809.1586 402.9542,-811.2043 412.3564,-816.0877 413.3496,-809.1586"/>
</g>
<!-- Node1054&#45;&gt;Node949 -->
<g id="edge51" class="edge">
<title>Node1054&#45;&gt;Node949</title>
<path fill="none" stroke="#191970" d="M384.5596,-818.4192C402.3164,-830.8212 428.0454,-849.0028 450.127,-865.4294 466.3902,-877.5277 468.8271,-882.8663 486.127,-893.4294 558.091,-937.3701 578.4502,-945.9097 658.1514,-973.4294 669.3835,-977.3077 681.7593,-980.6509 693.3936,-983.4038"/>
<polygon fill="#191970" stroke="#191970" points="386.2683,-815.344 376.0622,-812.5004 382.2674,-821.088 386.2683,-815.344"/>
</g>
<!-- Node1054&#45;&gt;Node966 -->
<g id="edge42" class="edge">
<title>Node1054&#45;&gt;Node966</title>
<path fill="none" stroke="#191970" d="M389.1087,-789.6891C413.67,-777.1895 451.6825,-758.8485 486.127,-746.4294 495.434,-743.0737 505.6603,-740.0395 515.2924,-737.4593"/>
<polygon fill="#191970" stroke="#191970" points="387.3725,-786.6462 380.0786,-794.3306 390.5726,-792.872 387.3725,-786.6462"/>
</g>
<!-- Node1054&#45;&gt;Node967 -->
<g id="edge45" class="edge">
<title>Node1054&#45;&gt;Node967</title>
<path fill="none" stroke="#191970" d="M379.5264,-787.0898C397.8553,-768.6148 427.7384,-737.2173 450.127,-707.4294 493.3885,-649.8701 535.3382,-573.6526 549.2834,-547.6066"/>
<polygon fill="#191970" stroke="#191970" points="376.8131,-784.853 372.2101,-794.3957 381.7594,-789.8063 376.8131,-784.853"/>
</g>
<!-- Node1054&#45;&gt;Node968 -->
<g id="edge46" class="edge">
<title>Node1054&#45;&gt;Node968</title>
<path fill="none" stroke="#191970" d="M413.1588,-793.4483C442.791,-787.5591 479.9969,-780.1647 508.7456,-774.4511"/>
<polygon fill="#191970" stroke="#191970" points="412.1455,-790.0811 403.0196,-795.4634 413.5101,-796.9468 412.1455,-790.0811"/>
</g>
<!-- Node1054&#45;&gt;Node969 -->
<g id="edge48" class="edge">
<title>Node1054&#45;&gt;Node969</title>
<path fill="none" stroke="#191970" d="M382.6246,-787.874C403.0482,-770.5562 434.1839,-740.6034 450.127,-707.4294 493.9941,-616.1514 418.1881,-557.5314 486.127,-482.4294 495.55,-472.0128 510.2317,-467.3225 523.546,-465.3159"/>
<polygon fill="#191970" stroke="#191970" points="380.3411,-785.2205 374.8606,-794.2878 384.7993,-790.6172 380.3411,-785.2205"/>
</g>
<!-- Node1054&#45;&gt;Node978 -->
<g id="edge49" class="edge">
<title>Node1054&#45;&gt;Node978</title>
<path fill="none" stroke="#191970" d="M382.4268,-787.777C402.6833,-770.3774 433.6792,-740.356 450.127,-707.4294 488.1443,-631.3228 428.098,-581.6401 486.127,-519.4294 489.5428,-515.7674 493.609,-512.8167 498.0297,-510.4433"/>
<polygon fill="#191970" stroke="#191970" points="380.1489,-785.1194 374.7318,-794.2247 384.6447,-790.4849 380.1489,-785.1194"/>
</g>
<!-- Node1064&#45;&gt;Node926 -->
<g id="edge61" class="edge">
<title>Node1064&#45;&gt;Node926</title>
<path fill="none" stroke="#191970" d="M414.9853,-647.6354C474.4474,-645.3159 570.2102,-651.79 622.1514,-709.4294 712.3448,-809.5176 568.2936,-910.0398 658.1514,-1010.4294 666.4631,-1019.7154 678.3631,-1024.9065 690.5024,-1027.7062"/>
<polygon fill="#191970" stroke="#191970" points="414.5018,-644.1548 404.6847,-648.1391 414.8438,-651.1464 414.5018,-644.1548"/>
</g>
<!-- Node1065 -->
<g id="node38" class="node">
<title>Node1065</title>
<g id="a_node38"><a xlink:href="struct_witness_v0_script_hash.html#a7d35a8561d11a860dbbf7a658c23a090" target="_top" xlink:title="WitnessV0ScriptHash\l::WitnessV0ScriptHash">
<polygon fill="#ffffff" stroke="#000000" points="495.0112,-259.4294 495.0112,-287.4294 613.2671,-287.4294 613.2671,-259.4294 495.0112,-259.4294"/>
<text text-anchor="start" x="503.0112" y="-275.4294" font-family="Helvetica,sans-Serif" font-size="10.00" fill="#000000">WitnessV0ScriptHash</text>
<text text-anchor="middle" x="554.1392" y="-265.4294" font-family="Helvetica,sans-Serif" font-size="10.00" fill="#000000">::WitnessV0ScriptHash</text>
</a>
</g>
</g>
<!-- Node1064&#45;&gt;Node1065 -->
<g id="edge62" class="edge">
<title>Node1064&#45;&gt;Node1065</title>
<path fill="none" stroke="#191970" d="M414.4985,-651.5202C427.7777,-648.7689 440.9062,-643.399 450.127,-633.4294 529.935,-547.1392 443.4458,-480.9448 486.127,-371.4294 499.0617,-338.2401 525.3172,-305.4101 541.1547,-287.4389"/>
<polygon fill="#191970" stroke="#191970" points="413.6948,-648.1044 404.3766,-653.1465 414.8053,-655.0157 413.6948,-648.1044"/>
</g>
<!-- Node1066 -->
<g id="node39" class="node">
<title>Node1066</title>
<g id="a_node39"><a xlink:href="serialize_8h.html#a5f8f6e82f0b5e6bd182441352f5153cd" target="_top" xlink:title="prevector prevectors of unsigned char are a special case and are intended to be serialized as a singl...">
<polygon fill="#ffffff" stroke="#ff0000" points="515.0161,-145.4294 515.0161,-163.4294 593.2622,-163.4294 593.2622,-145.4294 515.0161,-145.4294"/>
<text text-anchor="middle" x="554.1392" y="-151.4294" font-family="Helvetica,sans-Serif" font-size="10.00" fill="#000000">Serialize_impl</text>
</a>
</g>
</g>
<!-- Node1064&#45;&gt;Node1066 -->
<g id="edge63" class="edge">
<title>Node1064&#45;&gt;Node1066</title>
<path fill="none" stroke="#191970" d="M414.7798,-651.7748C428.0628,-649.0271 441.1231,-643.5953 450.127,-633.4294 506.9534,-569.2692 456.1428,-329.7209 486.127,-249.4294 499.3969,-213.8952 529.5705,-179.5837 544.872,-163.6691"/>
<polygon fill="#191970" stroke="#191970" points="413.9684,-648.3598 404.6422,-653.3868 415.0677,-655.2729 413.9684,-648.3598"/>
</g>
<!-- Node1068&#45;&gt;Node921 -->
<g id="edge69" class="edge">
<title>Node1068&#45;&gt;Node921</title>
<path fill="none" stroke="#191970" d="M190.5618,-587.8952C200.2269,-663.0158 237.0869,-933.6622 275.748,-1010.4294 294.5842,-1047.8313 332.0758,-1081.5613 351.1706,-1097.2109"/>
<polygon fill="#191970" stroke="#191970" points="193.9832,-587.0551 189.248,-577.5773 187.0392,-587.9393 193.9832,-587.0551"/>
</g>
<!-- Node1068&#45;&gt;Node925 -->
<g id="edge76" class="edge">
<title>Node1068&#45;&gt;Node925</title>
<path fill="none" stroke="#191970" d="M189.7558,-587.9218C197.881,-682.1149 235.0119,-1087.1361 275.748,-1124.4294 308.7554,-1154.6471 439.1134,-1151.1454 509.1191,-1146.8555"/>
<polygon fill="#191970" stroke="#191970" points="193.2303,-587.4731 188.8923,-577.8071 186.2557,-588.0686 193.2303,-587.4731"/>
</g>
<!-- Node1068&#45;&gt;Node945 -->
<g id="edge90" class="edge">
<title>Node1068&#45;&gt;Node945</title>
<path fill="none" stroke="#191970" d="M192.1597,-587.5655C203.8267,-640.9292 239.0454,-789.5649 275.748,-821.4294 335.3735,-873.195 380.9265,-817.401 450.127,-855.4294 470.5156,-866.6338 466.0101,-881.7442 486.127,-893.4294 549.5484,-930.2688 634.1378,-945.3114 687.7072,-951.3913"/>
<polygon fill="#191970" stroke="#191970" points="195.5622,-586.7398 190.0356,-577.7006 188.7191,-588.2133 195.5622,-586.7398"/>
</g>
<!-- Node1068&#45;&gt;Node946 -->
<g id="edge77" class="edge">
<title>Node1068&#45;&gt;Node946</title>
<path fill="none" stroke="#191970" d="M190.726,-587.7026C199.6585,-650.7866 230.9239,-849.5638 275.748,-893.4294 332.7984,-949.2596 388.1853,-886.0808 450.127,-936.4294 478.8186,-959.7511 458.1202,-987.2896 486.127,-1011.4294 492.1177,-1016.593 499.3638,-1020.4873 506.8632,-1023.4242"/>
<polygon fill="#191970" stroke="#191970" points="194.1613,-586.9943 189.3198,-577.5705 187.2278,-587.9567 194.1613,-586.9943"/>
</g>
<!-- Node1068&#45;&gt;Node947 -->
<g id="edge78" class="edge">
<title>Node1068&#45;&gt;Node947</title>
<path fill="none" stroke="#191970" d="M191.4998,-587.6399C202.0809,-645.5741 236.1846,-816.9488 275.748,-855.4294 333.3714,-911.4756 387.1215,-853.51 450.127,-903.4294 476.3164,-924.1793 460.6865,-947.7678 486.127,-969.4294 493.8491,-976.0046 503.4935,-980.8216 513.0706,-984.3348"/>
<polygon fill="#191970" stroke="#191970" points="194.9161,-586.8619 189.7026,-577.6386 188.0265,-588.1001 194.9161,-586.8619"/>
</g>
<!-- Node1068&#45;&gt;Node948 -->
<g id="edge84" class="edge">
<title>Node1068&#45;&gt;Node948</title>
<path fill="none" stroke="#191970" d="M236.0847,-553.3878C237.4077,-552.1696 238.6366,-550.8528 239.748,-549.4294 285.5562,-490.7642 220.361,-266.1514 275.748,-216.4294 333.29,-164.7729 568.4725,-193.7693 622.1514,-249.4294 694.8905,-324.8533 614.1728,-387.3209 658.1514,-482.4294 674.9933,-518.8518 710.2683,-551.9699 728.3001,-567.3581"/>
<polygon fill="#191970" stroke="#191970" points="233.7973,-550.718 227.6423,-559.3416 237.8317,-556.4386 233.7973,-550.718"/>
</g>
<!-- Node1068&#45;&gt;Node950 -->
<g id="edge79" class="edge">
<title>Node1068&#45;&gt;Node950</title>
<path fill="none" stroke="#191970" d="M190.2051,-587.7391C202.8452,-704.1985 268.7047,-1308.1651 275.748,-1314.4294 350.6788,-1381.073 486.4512,-1327.5188 535.6814,-1304.5759"/>
<polygon fill="#191970" stroke="#191970" points="193.6535,-587.0735 189.0956,-577.5092 186.6943,-587.8283 193.6535,-587.0735"/>
</g>
<!-- Node1068&#45;&gt;Node966 -->
<g id="edge70" class="edge">
<title>Node1068&#45;&gt;Node966</title>
<path fill="none" stroke="#191970" d="M193.826,-587.3059C204.3601,-618.4603 230.0515,-679.9267 275.748,-707.4294 345.9302,-749.6689 444.7746,-745.291 503.8523,-737.437"/>
<polygon fill="#191970" stroke="#191970" points="197.1164,-586.105 190.7242,-577.6558 190.4522,-588.2471 197.1164,-586.105"/>
</g>
<!-- Node1068&#45;&gt;Node967 -->
<g id="edge81" class="edge">
<title>Node1068&#45;&gt;Node967</title>
<path fill="none" stroke="#191970" d="M235.2193,-553.7119C236.8443,-552.4038 238.365,-550.9798 239.748,-549.4294 284.8119,-498.9125 222.5228,-443.2599 275.748,-401.4294 336.6831,-353.5396 387.8403,-355.3112 450.127,-401.4294 494.1935,-434.057 446.899,-481.1203 486.127,-519.4294 490.3371,-523.5409 495.3594,-526.7786 500.7415,-529.3255"/>
<polygon fill="#191970" stroke="#191970" points="232.9397,-551.0136 226.3791,-559.3328 236.6957,-556.9207 232.9397,-551.0136"/>
</g>
<!-- Node1068&#45;&gt;Node968 -->
<g id="edge82" class="edge">
<title>Node1068&#45;&gt;Node968</title>
<path fill="none" stroke="#191970" d="M191.6215,-587.3117C199.4784,-623.7041 222.1764,-703.158 275.748,-739.4294 343.578,-785.3547 442.9496,-782.0314 502.8063,-774.4315"/>
<polygon fill="#191970" stroke="#191970" points="195.0498,-586.6061 189.6419,-577.4954 188.1879,-587.99 195.0498,-586.6061"/>
</g>
<!-- Node1068&#45;&gt;Node969 -->
<g id="edge85" class="edge">
<title>Node1068&#45;&gt;Node969</title>
<path fill="none" stroke="#191970" d="M235.5423,-553.7092C237.0618,-552.4021 238.4742,-550.9789 239.748,-549.4294 304.3405,-470.8616 198.3773,-389.451 275.748,-323.4294 334.7031,-273.1221 385.5165,-280.6274 450.127,-323.4294 484.3292,-346.0871 461.5837,-375.554 486.127,-408.4294 500.9501,-428.2848 524.2483,-445.436 539.3593,-455.3544"/>
<polygon fill="#191970" stroke="#191970" points="233.5389,-550.8385 227.1964,-559.3252 237.4469,-556.6461 233.5389,-550.8385"/>
</g>
<!-- Node1068&#45;&gt;Node972 -->
<g id="edge86" class="edge">
<title>Node1068&#45;&gt;Node972</title>
<path fill="none" stroke="#191970" d="M236.2189,-553.3689C237.497,-552.1559 238.6809,-550.8454 239.748,-549.4294 305.3288,-462.4144 195.9228,-134.5939 275.748,-60.4294 389.5712,45.3222 509.5406,-.3877 622.1514,-107.4294 676.4104,-159.0051 727.6398,-405.0225 737.6645,-455.4031"/>
<polygon fill="#191970" stroke="#191970" points="234.0716,-550.6024 228.026,-559.3031 238.1779,-556.2716 234.0716,-550.6024"/>
</g>
<!-- Node1068&#45;&gt;Node978 -->
<g id="edge89" class="edge">
<title>Node1068&#45;&gt;Node978</title>
<path fill="none" stroke="#191970" d="M235.3972,-553.7259C236.9651,-552.4142 238.4262,-550.9855 239.748,-549.4294 294.544,-484.9247 210.4884,-416.324 275.748,-362.4294 335.5059,-313.0784 387.9479,-316.1662 450.127,-362.4294 494.7999,-395.6675 446.381,-443.4332 486.127,-482.4294 490.3275,-486.5507 495.3439,-489.7945 500.7225,-492.3449"/>
<polygon fill="#191970" stroke="#191970" points="233.2569,-550.9441 226.8183,-559.3581 237.0986,-556.7957 233.2569,-550.9441"/>
</g>
<!-- Node1068&#45;&gt;Node1051 -->
<g id="edge91" class="edge">
<title>Node1068&#45;&gt;Node1051</title>
<path fill="none" stroke="#191970" d="M235.5864,-553.745C237.0939,-552.4281 238.4916,-550.9931 239.748,-549.4294 313.9204,-457.117 186.5353,-363.3024 275.748,-285.4294 334.135,-234.4639 378.595,-255.6017 450.127,-285.4294 498.2025,-305.4762 535.436,-359.754 548.7925,-381.3691"/>
<polygon fill="#191970" stroke="#191970" points="233.5813,-550.8759 227.2817,-559.3945 237.5185,-556.6637 233.5813,-550.8759"/>
</g>
<!-- Node1068&#45;&gt;Node1054 -->
<g id="edge74" class="edge">
<title>Node1068&#45;&gt;Node1054</title>
<path fill="none" stroke="#191970" d="M190.4675,-587.7917C196.5651,-629.3177 216.7471,-727.3805 275.748,-779.4294 288.699,-790.8543 306.6181,-796.8921 322.8447,-800.0629"/>
<polygon fill="#191970" stroke="#191970" points="193.9067,-587.1057 189.1006,-577.6637 186.9696,-588.042 193.9067,-587.1057"/>
</g>
<!-- Node1068&#45;&gt;Node1059 -->
<g id="edge75" class="edge">
<title>Node1068&#45;&gt;Node1059</title>
<path fill="none" stroke="#191970" d="M189.5656,-587.6022C195.4643,-660.2942 220.0187,-917.6184 275.748,-973.4294 286.5853,-984.2825 302.0799,-989.5829 317.009,-992.0021"/>
<polygon fill="#191970" stroke="#191970" points="193.0507,-587.2746 188.7771,-577.58 186.0723,-587.8237 193.0507,-587.2746"/>
</g>
<!-- Node1068&#45;&gt;Node1063 -->
<g id="edge80" class="edge">
<title>Node1068&#45;&gt;Node1063</title>
<path fill="none" stroke="#191970" d="M190.1924,-587.6665C197.8811,-655.3184 226.8154,-880.9192 275.748,-931.4294 287.4369,-943.495 304.5864,-949.6673 320.5898,-952.7649"/>
<polygon fill="#191970" stroke="#191970" points="193.6542,-587.1281 189.0715,-577.5756 186.697,-587.9009 193.6542,-587.1281"/>
</g>
<!-- Node1068&#45;&gt;Node1065 -->
<g id="edge92" class="edge">
<title>Node1068&#45;&gt;Node1065</title>
<path fill="none" stroke="#191970" d="M236.0618,-553.3698C237.3912,-552.1567 238.6277,-550.8458 239.748,-549.4294 281.129,-497.1131 225.8331,-295.6773 275.748,-251.4294 346.3124,-188.8765 470.3516,-234.0741 525.8761,-259.4002"/>
<polygon fill="#191970" stroke="#191970" points="233.7748,-550.6986 227.5944,-559.304 237.7923,-556.431 233.7748,-550.6986"/>
</g>
<!-- Node1068&#45;&gt;Node1066 -->
<g id="edge93" class="edge">
<title>Node1068&#45;&gt;Node1066</title>
<path fill="none" stroke="#191970" d="M236.1048,-553.4034C237.4222,-552.1808 238.6444,-550.8589 239.748,-549.4294 290.3678,-483.8647 216.8637,-236.685 275.748,-178.4294 308.553,-145.9748 446.3524,-148.5033 514.9722,-151.9431"/>
<polygon fill="#191970" stroke="#191970" points="233.8172,-550.7349 227.6843,-559.3743 237.8662,-556.445 233.8172,-550.7349"/>
</g>
<!-- Node1069 -->
<g id="node41" class="node">
<title>Node1069</title>
<g id="a_node41"><a xlink:href="class_c_script_compressor.html#a4d2053a76ce3bbac8e2e94969319fe99" target="_top" xlink:title="CScriptCompressor::\lSerialize">
<polygon fill="#ffffff" stroke="#000000" points="308.5386,-596.4294 308.5386,-624.4294 417.3364,-624.4294 417.3364,-596.4294 308.5386,-596.4294"/>
<text text-anchor="start" x="316.5386" y="-612.4294" font-family="Helvetica,sans-Serif" font-size="10.00" fill="#000000">CScriptCompressor::</text>
<text text-anchor="middle" x="362.9375" y="-602.4294" font-family="Helvetica,sans-Serif" font-size="10.00" fill="#000000">Serialize</text>
</a>
</g>
</g>
<!-- Node1068&#45;&gt;Node1069 -->
<g id="edge65" class="edge">
<title>Node1068&#45;&gt;Node1069</title>
<path fill="none" stroke="#191970" d="M235.5842,-579.834C258.0259,-585.2254 284.9419,-591.6917 308.2363,-597.2879"/>
<polygon fill="#191970" stroke="#191970" points="236.158,-576.3723 225.6171,-577.4395 234.5228,-583.1786 236.158,-576.3723"/>
</g>
<!-- Node1070 -->
<g id="node42" class="node">
<title>Node1070</title>
<g id="a_node42"><a xlink:href="group__map_wallet.html#gadbf0abef9da8102f000d4afd5cec5bbc" target="_top" xlink:title="CWallet::LoadCScript">
<polygon fill="#ffffff" stroke="#000000" points="307.3252,-559.4294 307.3252,-577.4294 418.5498,-577.4294 418.5498,-559.4294 307.3252,-559.4294"/>
<text text-anchor="middle" x="362.9375" y="-565.4294" font-family="Helvetica,sans-Serif" font-size="10.00" fill="#000000">CWallet::LoadCScript</text>
</a>
</g>
</g>
<!-- Node1068&#45;&gt;Node1070 -->
<g id="edge66" class="edge">
<title>Node1068&#45;&gt;Node1070</title>
<path fill="none" stroke="#191970" d="M238.8357,-568.4294C260.207,-568.4294 285.153,-568.4294 307.051,-568.4294"/>
<polygon fill="#191970" stroke="#191970" points="238.6605,-564.9295 228.6605,-568.4294 238.6605,-571.9295 238.6605,-564.9295"/>
</g>
<!-- Node1071 -->
<g id="node43" class="node">
<title>Node1071</title>
<g id="a_node43"><a xlink:href="class_c_basic_key_store.html#a45baa35575b5818f6782266e0f4731e6" target="_top" xlink:title="Support for BIP 0013 : see https://github.com/bitcoin/bips/blob/master/bip&#45;0013.mediawiki. ">
<polygon fill="#ffffff" stroke="#ff0000" points="290.4673,-522.4294 290.4673,-540.4294 435.4077,-540.4294 435.4077,-522.4294 290.4673,-522.4294"/>
<text text-anchor="middle" x="362.9375" y="-528.4294" font-family="Helvetica,sans-Serif" font-size="10.00" fill="#000000">CBasicKeyStore::AddCScript</text>
</a>
</g>
</g>
<!-- Node1068&#45;&gt;Node1071 -->
<g id="edge67" class="edge">
<title>Node1068&#45;&gt;Node1071</title>
<path fill="none" stroke="#191970" d="M238.6498,-557.3831C250.795,-554.7532 263.7301,-551.9727 275.748,-549.4294 289.6597,-546.4854 304.8329,-543.3327 318.5642,-540.5015"/>
<polygon fill="#191970" stroke="#191970" points="237.7016,-554.0073 228.6712,-559.5483 239.186,-560.8482 237.7016,-554.0073"/>
</g>
<!-- Node1010 -->
<g id="node44" class="node">
<title>Node1010</title>
<g id="a_node44"><a xlink:href="policy_8h.html#abb2b48ecfd43dcb01e25d9d4c333a340" target="_top" xlink:title="IsStandard">
<polygon fill="#ffffff" stroke="#000000" points="330.7554,-485.4294 330.7554,-503.4294 395.1196,-503.4294 395.1196,-485.4294 330.7554,-485.4294"/>
<text text-anchor="middle" x="362.9375" y="-491.4294" font-family="Helvetica,sans-Serif" font-size="10.00" fill="#000000">IsStandard</text>
</a>
</g>
</g>
<!-- Node1068&#45;&gt;Node1010 -->
<g id="edge68" class="edge">
<title>Node1068&#45;&gt;Node1010</title>
<path fill="none" stroke="#191970" d="M228.9512,-555.3896C232.7135,-553.6036 236.3744,-551.6197 239.748,-549.4294 258.9918,-536.9355 255.6277,-523.4563 275.748,-512.4294 292.5553,-503.2183 313.5368,-498.7073 330.7055,-496.5043"/>
<polygon fill="#191970" stroke="#191970" points="227.3183,-552.281 219.4958,-559.4266 230.067,-558.7188 227.3183,-552.281"/>
</g>
<!-- Node1077 -->
<g id="node45" class="node">
<title>Node1077</title>
<g id="a_node45"><a xlink:href="classprevector.html#a0057a2d5ac2bbff636af5fbd87ae5235" target="_top" xlink:title="prevector::empty">
<polygon fill="#ffffff" stroke="#ff0000" points="317.7012,-107.4294 317.7012,-125.4294 408.1738,-125.4294 408.1738,-107.4294 317.7012,-107.4294"/>
<text text-anchor="middle" x="362.9375" y="-113.4294" font-family="Helvetica,sans-Serif" font-size="10.00" fill="#000000">prevector::empty</text>
</a>
</g>
</g>
<!-- Node1068&#45;&gt;Node1077 -->
<g id="edge71" class="edge">
<title>Node1068&#45;&gt;Node1077</title>
<path fill="none" stroke="#191970" d="M236.1213,-553.416C237.434,-552.19 238.6508,-550.8638 239.748,-549.4294 295.1831,-476.9605 217.3198,-210.5074 275.748,-140.4294 286.0031,-128.1296 301.9277,-121.8212 317.3759,-118.6824"/>
<polygon fill="#191970" stroke="#191970" points="233.8334,-550.7485 227.7188,-559.4008 237.8945,-556.4501 233.8334,-550.7485"/>
</g>
<!-- Node1088 -->
<g id="node46" class="node">
<title>Node1088</title>
<g id="a_node46"><a xlink:href="rpc_2util_8h.html#a804d6824bed98b30dc92d53b40d776c9" target="_top" xlink:title="CreateMultisigRedeemscript">
<polygon fill="#ffffff" stroke="#000000" points="292.1372,-448.4294 292.1372,-466.4294 433.7378,-466.4294 433.7378,-448.4294 292.1372,-448.4294"/>
<text text-anchor="middle" x="362.9375" y="-454.4294" font-family="Helvetica,sans-Serif" font-size="10.00" fill="#000000">CreateMultisigRedeemscript</text>
</a>
</g>
</g>
<!-- Node1068&#45;&gt;Node1088 -->
<g id="edge83" class="edge">
<title>Node1068&#45;&gt;Node1088</title>
<path fill="none" stroke="#191970" d="M233.3099,-554.331C235.5972,-552.8525 237.7645,-551.2235 239.748,-549.4294 266.8725,-524.8949 246.8726,-497.8769 275.748,-475.4294 280.6291,-471.6349 286.1135,-468.5867 291.8935,-466.1443"/>
<polygon fill="#191970" stroke="#191970" points="231.181,-551.5016 224.0292,-559.3184 234.4947,-557.6676 231.181,-551.5016"/>
</g>
<!-- Node1089 -->
<g id="node47" class="node">
<title>Node1089</title>
<g id="a_node47"><a xlink:href="class_c_script.html#a0c3729c606d318923dc06f95d85a0971" target="_top" xlink:title="CScript::IsPayToScriptHash">
<polygon fill="#ffffff" stroke="#ff0000" points="293.5288,-411.4294 293.5288,-429.4294 432.3462,-429.4294 432.3462,-411.4294 293.5288,-411.4294"/>
<text text-anchor="middle" x="362.9375" y="-417.4294" font-family="Helvetica,sans-Serif" font-size="10.00" fill="#000000">CScript::IsPayToScriptHash</text>
</a>
</g>
</g>
<!-- Node1068&#45;&gt;Node1089 -->
<g id="edge87" class="edge">
<title>Node1068&#45;&gt;Node1089</title>
<path fill="none" stroke="#191970" d="M234.469,-554.0347C236.3593,-552.6384 238.1341,-551.1075 239.748,-549.4294 275.6993,-512.0491 237.1142,-473.03 275.748,-438.4294 280.9292,-433.7891 286.9829,-430.224 293.4424,-427.4995"/>
<polygon fill="#191970" stroke="#191970" points="232.3774,-551.2069 225.5819,-559.3355 235.9632,-557.2188 232.3774,-551.2069"/>
</g>
<!-- Node1090 -->
<g id="node48" class="node">
<title>Node1090</title>
<g id="a_node48"><a xlink:href="class_c_script.html#a8bc2ab13e460dfec4af45afc92fffe60" target="_top" xlink:title="CScript::IsPayToWitnessScriptHash">
<polygon fill="#ffffff" stroke="#000000" points="275.748,-70.4294 275.748,-88.4294 450.127,-88.4294 450.127,-70.4294 275.748,-70.4294"/>
<text text-anchor="middle" x="362.9375" y="-76.4294" font-family="Helvetica,sans-Serif" font-size="10.00" fill="#000000">CScript::IsPayToWitnessScriptHash</text>
</a>
</g>
</g>
<!-- Node1068&#45;&gt;Node1090 -->
<g id="edge88" class="edge">
<title>Node1068&#45;&gt;Node1090</title>
<path fill="none" stroke="#191970" d="M236.1367,-553.4277C237.4451,-552.1984 238.6568,-550.8683 239.748,-549.4294 300.6353,-469.1435 209.0538,-172.9607 275.748,-97.4294 278.8172,-93.9536 282.3643,-91.0453 286.2354,-88.6191"/>
<polygon fill="#191970" stroke="#191970" points="233.8487,-550.761 227.7509,-559.4252 237.9208,-556.4547 233.8487,-550.761"/>
</g>
<!-- Node1077&#45;&gt;Node948 -->
<g id="edge72" class="edge">
<title>Node1077&#45;&gt;Node948</title>
<path fill="none" stroke="#191970" d="M418.3245,-112.5475C485.7649,-109.1271 594.1584,-108.2695 622.1514,-135.4294 677.7915,-189.4136 627.3799,-411.273 658.1514,-482.4294 673.9934,-519.0628 709.3851,-551.8393 727.7979,-567.2022"/>
<polygon fill="#191970" stroke="#191970" points="418.0748,-109.0558 408.2785,-113.0911 418.4531,-116.0456 418.0748,-109.0558"/>
</g>
<!-- Node1077&#45;&gt;Node1066 -->
<g id="edge73" class="edge">
<title>Node1077&#45;&gt;Node1066</title>
<path fill="none" stroke="#191970" d="M418.4524,-127.4626C449.3816,-133.6096 487.1467,-141.1151 514.9744,-146.6457"/>
<polygon fill="#191970" stroke="#191970" points="418.7401,-123.9514 408.2496,-125.4349 417.3755,-130.8171 418.7401,-123.9514"/>
</g>
<!-- Node1091&#45;&gt;Node922 -->
<g id="edge95" class="edge">
<title>Node1091&#45;&gt;Node922</title>
<path fill="none" stroke="#191970" d="M400.4305,-1307.4006C481.1437,-1330.9982 675.7726,-1376.1182 820.709,-1314.4294 862.8229,-1296.5046 894.9095,-1248.6039 906.9321,-1228.5051"/>
<polygon fill="#191970" stroke="#191970" points="401.2955,-1304.0063 390.7122,-1304.501 399.294,-1310.7141 401.2955,-1304.0063"/>
</g>
<!-- Node1091&#45;&gt;Node925 -->
<g id="edge96" class="edge">
<title>Node1091&#45;&gt;Node925</title>
<path fill="none" stroke="#191970" d="M422.7637,-1284.2962C432.3596,-1281.0375 441.8454,-1276.8376 450.127,-1271.4294 499.5145,-1239.1769 536.7692,-1175.9479 549.4378,-1152.4795"/>
<polygon fill="#191970" stroke="#191970" points="421.6981,-1280.9621 413.1717,-1287.2511 423.759,-1287.6519 421.6981,-1280.9621"/>
</g>
<!-- Node1091&#45;&gt;Node944 -->
<g id="edge97" class="edge">
<title>Node1091&#45;&gt;Node944</title>
<path fill="none" stroke="#191970" d="M393.3459,-1281.7878C412.1511,-1271.929 435.4254,-1256.9253 450.127,-1237.4294 481.8623,-1195.3445 447.9414,-1160.7631 486.127,-1124.4294 491.6131,-1119.2093 498.4312,-1115.4619 505.6142,-1112.78"/>
<polygon fill="#191970" stroke="#191970" points="391.6322,-1278.7316 384.2601,-1286.341 394.7684,-1284.9898 391.6322,-1278.7316"/>
</g>
<!-- Node1091&#45;&gt;Node947 -->
<g id="edge98" class="edge">
<title>Node1091&#45;&gt;Node947</title>
<path fill="none" stroke="#191970" d="M395.4635,-1281.9384C414.4587,-1272.3448 437.1704,-1257.5735 450.127,-1237.4294 504.6733,-1152.6237 419.4822,-1089.0983 486.127,-1013.4294 492.3906,-1006.3176 501.0393,-1001.6746 510.0716,-998.6587"/>
<polygon fill="#191970" stroke="#191970" points="393.731,-1278.8872 386.219,-1286.3585 396.7506,-1285.2025 393.731,-1278.8872"/>
</g>
<!-- Node1091&#45;&gt;Node950 -->
<g id="edge99" class="edge">
<title>Node1091&#45;&gt;Node950</title>
<path fill="none" stroke="#191970" d="M423.2196,-1295.4294C447.2035,-1295.4294 474.6382,-1295.4294 498.1769,-1295.4294"/>
<polygon fill="#191970" stroke="#191970" points="423.1735,-1291.9295 413.1735,-1295.4294 423.1735,-1298.9295 423.1735,-1291.9295"/>
</g>
</g>
</svg>
