<?xml version="1.0" encoding="UTF-8" standalone="no"?>
<!DOCTYPE svg PUBLIC "-//W3C//DTD SVG 1.1//EN"
 "http://www.w3.org/Graphics/SVG/1.1/DTD/svg11.dtd">
<!-- Generated by graphviz version 2.40.1 (20161225.0304)
 -->
<!-- Title: interfaces::Node::ban Pages: 1 -->
<svg width="1064pt" height="84pt"
 viewBox="0.00 0.00 1064.18 84.00" xmlns="http://www.w3.org/2000/svg" xmlns:xlink="http://www.w3.org/1999/xlink">
<g id="graph0" class="graph" transform="scale(1 1) rotate(0) translate(4 80)">
<title>interfaces::Node::ban</title>
<polygon fill="#ffffff" stroke="transparent" points="-4,4 -4,-80 1060.1787,-80 1060.1787,4 -4,4"/>
<!-- Node15 -->
<g id="node1" class="node">
<title>Node15</title>
<polygon fill="#bfbfbf" stroke="#000000" points="0,-30.5 0,-48.5 111.0586,-48.5 111.0586,-30.5 0,-30.5"/>
<text text-anchor="middle" x="55.5293" y="-36.5" font-family="Helvetica,sans-Serif" font-size="10.00" fill="#000000">interfaces::Node::ban</text>
</g>
<!-- Node16 -->
<g id="node2" class="node">
<title>Node16</title>
<g id="a_node2"><a xlink:href="class_r_p_c_console.html#aacaf485583b6342c5e1877e7582f95c5" target="_top" xlink:title="Ban a selected node on the Peers tab. ">
<polygon fill="#ffffff" stroke="#000000" points="147.0586,-30.5 147.0586,-48.5 305.9248,-48.5 305.9248,-30.5 147.0586,-30.5"/>
<text text-anchor="middle" x="226.4917" y="-36.5" font-family="Helvetica,sans-Serif" font-size="10.00" fill="#000000">RPCConsole::banSelectedNode</text>
</a>
</g>
</g>
<!-- Node15&#45;&gt;Node16 -->
<g id="edge1" class="edge">
<title>Node15&#45;&gt;Node16</title>
<path fill="none" stroke="#191970" d="M121.7523,-39.5C129.9642,-39.5 138.4263,-39.5 146.8134,-39.5"/>
<polygon fill="#191970" stroke="#191970" points="121.5088,-36.0001 111.5088,-39.5 121.5087,-43.0001 121.5088,-36.0001"/>
</g>
<!-- Node17 -->
<g id="node3" class="node">
<title>Node17</title>
<g id="a_node3"><a xlink:href="class_r_p_c_console.html#a355349a33664a07628e9ca22a60f5fa7" target="_top" xlink:title="RPCConsole::setClientModel">
<polygon fill="#ffffff" stroke="#000000" points="341.9248,-30.5 341.9248,-48.5 487.4268,-48.5 487.4268,-30.5 341.9248,-30.5"/>
<text text-anchor="middle" x="414.6758" y="-36.5" font-family="Helvetica,sans-Serif" font-size="10.00" fill="#000000">RPCConsole::setClientModel</text>
</a>
</g>
</g>
<!-- Node16&#45;&gt;Node17 -->
<g id="edge2" class="edge">
<title>Node16&#45;&gt;Node17</title>
<path fill="none" stroke="#191970" d="M316.0708,-39.5C324.6618,-39.5 333.3032,-39.5 341.7074,-39.5"/>
<polygon fill="#191970" stroke="#191970" points="316.026,-36.0001 306.0259,-39.5 316.0259,-43.0001 316.026,-36.0001"/>
</g>
<!-- Node18 -->
<g id="node4" class="node">
<title>Node18</title>
<g id="a_node4"><a xlink:href="class_bitcoin_g_u_i.html#a99d71e1f8478ab937ce2522c8d3815e3" target="_top" xlink:title="Set the client model. ">
<polygon fill="#ffffff" stroke="#000000" points="523.4268,-30.5 523.4268,-48.5 658.9189,-48.5 658.9189,-30.5 523.4268,-30.5"/>
<text text-anchor="middle" x="591.1729" y="-36.5" font-family="Helvetica,sans-Serif" font-size="10.00" fill="#000000">BitcoinGUI::setClientModel</text>
</a>
</g>
</g>
<!-- Node17&#45;&gt;Node18 -->
<g id="edge3" class="edge">
<title>Node17&#45;&gt;Node18</title>
<path fill="none" stroke="#191970" d="M497.5693,-39.5C506.2052,-39.5 514.9098,-39.5 523.3506,-39.5"/>
<polygon fill="#191970" stroke="#191970" points="497.4829,-36.0001 487.4829,-39.5 497.4829,-43.0001 497.4829,-36.0001"/>
</g>
<!-- Node19 -->
<g id="node5" class="node">
<title>Node19</title>
<g id="a_node5"><a xlink:href="class_bitcoin_application.html#a37c560d4c04d14a6da151b82caf8888f" target="_top" xlink:title="Request core shutdown. ">
<polygon fill="#ffffff" stroke="#000000" points="956.79,-47.5 956.79,-75.5 1056.1787,-75.5 1056.1787,-47.5 956.79,-47.5"/>
<text text-anchor="start" x="964.79" y="-63.5" font-family="Helvetica,sans-Serif" font-size="10.00" fill="#000000">BitcoinApplication</text>
<text text-anchor="middle" x="1006.4844" y="-53.5" font-family="Helvetica,sans-Serif" font-size="10.00" fill="#000000">::requestShutdown</text>
</a>
</g>
</g>
<!-- Node18&#45;&gt;Node19 -->
<g id="edge4" class="edge">
<title>Node18&#45;&gt;Node19</title>
<path fill="none" stroke="#191970" d="M669.3267,-43.64C753.6295,-48.1057 885.3267,-55.082 956.6098,-58.858"/>
<polygon fill="#191970" stroke="#191970" points="669.4592,-40.1422 659.288,-43.1082 669.0889,-47.1324 669.4592,-40.1422"/>
</g>
<!-- Node20 -->
<g id="node6" class="node">
<title>Node20</title>
<g id="a_node6"><a xlink:href="class_bitcoin_application.html#a5bcf1bf32a7508326e0dd630a59a887d" target="_top" xlink:title="BitcoinApplication\l::initializeResult">
<polygon fill="#ffffff" stroke="#000000" points="694.9189,-4.5 694.9189,-32.5 789.8545,-32.5 789.8545,-4.5 694.9189,-4.5"/>
<text text-anchor="start" x="702.9189" y="-20.5" font-family="Helvetica,sans-Serif" font-size="10.00" fill="#000000">BitcoinApplication</text>
<text text-anchor="middle" x="742.3867" y="-10.5" font-family="Helvetica,sans-Serif" font-size="10.00" fill="#000000">::initializeResult</text>
</a>
</g>
</g>
<!-- Node18&#45;&gt;Node20 -->
<g id="edge5" class="edge">
<title>Node18&#45;&gt;Node20</title>
<path fill="none" stroke="#191970" d="M666.2662,-29.0713C675.9757,-27.7229 685.6966,-26.3729 694.7882,-25.1103"/>
<polygon fill="#191970" stroke="#191970" points="665.6022,-25.6299 656.1787,-30.4722 666.5651,-32.5633 665.6022,-25.6299"/>
</g>
<!-- Node21 -->
<g id="node7" class="node">
<title>Node21</title>
<g id="a_node7"><a xlink:href="class_bitcoin_application.html#a61afce9356e452c53ad4c83f5ca19df8" target="_top" xlink:title="BitcoinApplication\l::startThread">
<polygon fill="#ffffff" stroke="#000000" points="825.8545,-4.5 825.8545,-32.5 920.79,-32.5 920.79,-4.5 825.8545,-4.5"/>
<text text-anchor="start" x="833.8545" y="-20.5" font-family="Helvetica,sans-Serif" font-size="10.00" fill="#000000">BitcoinApplication</text>
<text text-anchor="middle" x="873.3223" y="-10.5" font-family="Helvetica,sans-Serif" font-size="10.00" fill="#000000">::startThread</text>
</a>
</g>
</g>
<!-- Node20&#45;&gt;Node21 -->
<g id="edge6" class="edge">
<title>Node20&#45;&gt;Node21</title>
<path fill="none" stroke="#191970" d="M800.209,-18.5C808.6572,-18.5 817.2777,-18.5 825.4972,-18.5"/>
<polygon fill="#191970" stroke="#191970" points="800.0279,-15.0001 790.0278,-18.5 800.0278,-22.0001 800.0279,-15.0001"/>
</g>
<!-- Node21&#45;&gt;Node19 -->
<g id="edge8" class="edge">
<title>Node21&#45;&gt;Node19</title>
<path fill="none" stroke="#191970" d="M926.7907,-35.7657C938.7429,-39.6253 951.2821,-43.6744 962.7842,-47.3886"/>
<polygon fill="#191970" stroke="#191970" points="927.5162,-32.3221 916.9245,-32.5798 925.3651,-38.9834 927.5162,-32.3221"/>
</g>
<!-- Node22 -->
<g id="node8" class="node">
<title>Node22</title>
<g id="a_node8"><a xlink:href="class_bitcoin_application.html#ade19c44b87b00b6b19b433caf4c22ba6" target="_top" xlink:title="Request core initialization. ">
<polygon fill="#ffffff" stroke="#000000" points="959.0166,-.5 959.0166,-28.5 1053.9521,-28.5 1053.9521,-.5 959.0166,-.5"/>
<text text-anchor="start" x="967.0166" y="-16.5" font-family="Helvetica,sans-Serif" font-size="10.00" fill="#000000">BitcoinApplication</text>
<text text-anchor="middle" x="1006.4844" y="-6.5" font-family="Helvetica,sans-Serif" font-size="10.00" fill="#000000">::requestInitialize</text>
</a>
</g>
</g>
<!-- Node21&#45;&gt;Node22 -->
<g id="edge7" class="edge">
<title>Node21&#45;&gt;Node22</title>
<path fill="none" stroke="#191970" d="M931.2308,-16.7605C940.3914,-16.4853 949.7748,-16.2035 958.6714,-15.9362"/>
<polygon fill="#191970" stroke="#191970" points="930.9111,-13.2684 921.0207,-17.0672 931.1213,-20.2653 930.9111,-13.2684"/>
</g>
</g>
</svg>
