<?xml version="1.0" encoding="UTF-8" standalone="no"?>
<!DOCTYPE svg PUBLIC "-//W3C//DTD SVG 1.1//EN"
 "http://www.w3.org/Graphics/SVG/1.1/DTD/svg11.dtd">
<!-- Generated by graphviz version 2.40.1 (20161225.0304)
 -->
<!-- Title: BitcoinApplication::createWindow Pages: 1 -->
<svg width="453pt" height="37pt"
 viewBox="0.00 0.00 453.19 37.00" xmlns="http://www.w3.org/2000/svg" xmlns:xlink="http://www.w3.org/1999/xlink">
<g id="graph0" class="graph" transform="scale(1 1) rotate(0) translate(4 33)">
<title>BitcoinApplication::createWindow</title>
<polygon fill="#ffffff" stroke="transparent" points="-4,4 -4,-33 449.1855,-33 449.1855,4 -4,4"/>
<!-- Node17 -->
<g id="node1" class="node">
<title>Node17</title>
<polygon fill="#bfbfbf" stroke="#000000" points="0,-.5 0,-28.5 94.9355,-28.5 94.9355,-.5 0,-.5"/>
<text text-anchor="start" x="8" y="-16.5" font-family="Helvetica,sans-Serif" font-size="10.00" fill="#000000">BitcoinApplication</text>
<text text-anchor="middle" x="47.4678" y="-6.5" font-family="Helvetica,sans-Serif" font-size="10.00" fill="#000000">::createWindow</text>
</g>
<!-- Node18 -->
<g id="node2" class="node">
<title>Node18</title>
<g id="a_node2"><a xlink:href="class_bitcoin_g_u_i.html#ab538e65665498f59d10baa6b157270f9" target="_top" xlink:title="called by a timer to check if ShutdownRequested() has been set ">
<polygon fill="#ffffff" stroke="#000000" points="130.9355,-5.5 130.9355,-23.5 272.0039,-23.5 272.0039,-5.5 130.9355,-5.5"/>
<text text-anchor="middle" x="201.4697" y="-11.5" font-family="Helvetica,sans-Serif" font-size="10.00" fill="#000000">BitcoinGUI::detectShutdown</text>
</a>
</g>
</g>
<!-- Node17&#45;&gt;Node18 -->
<g id="edge1" class="edge">
<title>Node17&#45;&gt;Node18</title>
<path fill="none" stroke="#191970" d="M95.3508,-14.5C103.4106,-14.5 111.9695,-14.5 120.5934,-14.5"/>
<polygon fill="#191970" stroke="#191970" points="120.721,-18.0001 130.721,-14.5 120.7209,-11.0001 120.721,-18.0001"/>
</g>
<!-- Node19 -->
<g id="node3" class="node">
<title>Node19</title>
<g id="a_node3"><a xlink:href="classinterfaces_1_1_node.html#ada72fc5d26ba5a9f98fbc5424ee80b5e" target="_top" xlink:title="Return whether shutdown was requested. ">
<polygon fill="#ffffff" stroke="#000000" points="308.0039,-.5 308.0039,-28.5 445.1855,-28.5 445.1855,-.5 308.0039,-.5"/>
<text text-anchor="start" x="316.0039" y="-16.5" font-family="Helvetica,sans-Serif" font-size="10.00" fill="#000000">interfaces::Node::shutdown</text>
<text text-anchor="middle" x="376.5947" y="-6.5" font-family="Helvetica,sans-Serif" font-size="10.00" fill="#000000">Requested</text>
</a>
</g>
</g>
<!-- Node18&#45;&gt;Node19 -->
<g id="edge2" class="edge">
<title>Node18&#45;&gt;Node19</title>
<path fill="none" stroke="#191970" d="M272.195,-14.5C280.5636,-14.5 289.1454,-14.5 297.6189,-14.5"/>
<polygon fill="#191970" stroke="#191970" points="297.8794,-18.0001 307.8794,-14.5 297.8794,-11.0001 297.8794,-18.0001"/>
</g>
</g>
</svg>
