<?xml version="1.0" encoding="UTF-8" standalone="no"?>
<!DOCTYPE svg PUBLIC "-//W3C//DTD SVG 1.1//EN"
 "http://www.w3.org/Graphics/SVG/1.1/DTD/svg11.dtd">
<!-- Generated by graphviz version 2.40.1 (20161225.0304)
 -->
<!-- Title: prevector::change_capacity Pages: 1 -->
<svg width="1221pt" height="427pt"
 viewBox="0.00 0.00 1221.28 427.00" xmlns="http://www.w3.org/2000/svg" xmlns:xlink="http://www.w3.org/1999/xlink">
<g id="graph0" class="graph" transform="scale(1 1) rotate(0) translate(4 423)">
<title>prevector::change_capacity</title>
<polygon fill="#ffffff" stroke="transparent" points="-4,4 -4,-423 1217.2813,-423 1217.2813,4 -4,4"/>
<!-- Node276 -->
<g id="node1" class="node">
<title>Node276</title>
<polygon fill="#bfbfbf" stroke="#000000" points="0,-185.5 0,-203.5 138.2949,-203.5 138.2949,-185.5 0,-185.5"/>
<text text-anchor="middle" x="69.1475" y="-191.5" font-family="Helvetica,sans-Serif" font-size="10.00" fill="#000000">prevector::change_capacity</text>
</g>
<!-- Node277 -->
<g id="node2" class="node">
<title>Node277</title>
<g id="a_node2"><a xlink:href="classprevector.html#aecbf4de43de23c1b01a2e39bf974f14e" target="_top" xlink:title="prevector::assign">
<polygon fill="#ffffff" stroke="#000000" points="535.3188,-374.5 535.3188,-392.5 627.4663,-392.5 627.4663,-374.5 535.3188,-374.5"/>
<text text-anchor="middle" x="581.3926" y="-380.5" font-family="Helvetica,sans-Serif" font-size="10.00" fill="#000000">prevector::assign</text>
</a>
</g>
</g>
<!-- Node276&#45;&gt;Node277 -->
<g id="edge1" class="edge">
<title>Node276&#45;&gt;Node277</title>
<path fill="none" stroke="#191970" d="M78.0206,-213.0479C93.2101,-242.5587 127.1774,-299.6079 174.2949,-326.5 290.8199,-393.006 455.7493,-392.5718 535.1464,-387.6487"/>
<polygon fill="#191970" stroke="#191970" points="81.0318,-211.243 73.4402,-203.8525 74.7661,-214.3641 81.0318,-211.243"/>
</g>
<!-- Node279 -->
<g id="node4" class="node">
<title>Node279</title>
<g id="a_node4"><a xlink:href="classprevector.html#a795ba13036a8b6a2faae997b4ba6a0bf" target="_top" xlink:title="prevector::prevector">
<polygon fill="#ffffff" stroke="#000000" points="180.4106,-185.5 180.4106,-203.5 285.3364,-203.5 285.3364,-185.5 180.4106,-185.5"/>
<text text-anchor="middle" x="232.8735" y="-191.5" font-family="Helvetica,sans-Serif" font-size="10.00" fill="#000000">prevector::prevector</text>
</a>
</g>
</g>
<!-- Node276&#45;&gt;Node279 -->
<g id="edge3" class="edge">
<title>Node276&#45;&gt;Node279</title>
<path fill="none" stroke="#191970" d="M148.7768,-194.5C159.451,-194.5 170.1759,-194.5 180.2248,-194.5"/>
<polygon fill="#191970" stroke="#191970" points="148.5821,-191.0001 138.5821,-194.5 148.582,-198.0001 148.5821,-191.0001"/>
</g>
<!-- Node280 -->
<g id="node5" class="node">
<title>Node280</title>
<g id="a_node5"><a xlink:href="classprevector.html#ad2d97a45e0d2872260e868a540d31860" target="_top" xlink:title="prevector::resize">
<polygon fill="#ffffff" stroke="#000000" points="187.9155,-223.5 187.9155,-241.5 277.8315,-241.5 277.8315,-223.5 187.9155,-223.5"/>
<text text-anchor="middle" x="232.8735" y="-229.5" font-family="Helvetica,sans-Serif" font-size="10.00" fill="#000000">prevector::resize</text>
</a>
</g>
</g>
<!-- Node276&#45;&gt;Node280 -->
<g id="edge4" class="edge">
<title>Node276&#45;&gt;Node280</title>
<path fill="none" stroke="#191970" d="M117.723,-205.7741C142.095,-211.4307 171.2113,-218.1885 194.0679,-223.4934"/>
<polygon fill="#191970" stroke="#191970" points="118.4807,-202.357 107.9483,-203.5055 116.898,-209.1758 118.4807,-202.357"/>
</g>
<!-- Node299 -->
<g id="node24" class="node">
<title>Node299</title>
<g id="a_node24"><a xlink:href="classprevector.html#ab9a34e0210debc65efda453dbd0cbd27" target="_top" xlink:title="prevector::reserve">
<polygon fill="#ffffff" stroke="#000000" points="184.5806,-148.5 184.5806,-166.5 281.1665,-166.5 281.1665,-148.5 184.5806,-148.5"/>
<text text-anchor="middle" x="232.8735" y="-154.5" font-family="Helvetica,sans-Serif" font-size="10.00" fill="#000000">prevector::reserve</text>
</a>
</g>
</g>
<!-- Node276&#45;&gt;Node299 -->
<g id="edge26" class="edge">
<title>Node276&#45;&gt;Node299</title>
<path fill="none" stroke="#191970" d="M119.0662,-183.219C142.7611,-177.8643 170.6909,-171.5525 192.9517,-166.5218"/>
<polygon fill="#191970" stroke="#191970" points="118.1819,-179.8305 109.1994,-185.4488 119.7249,-186.6583 118.1819,-179.8305"/>
</g>
<!-- Node301 -->
<g id="node26" class="node">
<title>Node301</title>
<g id="a_node26"><a xlink:href="classprevector.html#a3b82afa760e2aabd8373994a1316523e" target="_top" xlink:title="prevector::shrink_to_fit">
<polygon fill="#ffffff" stroke="#000000" points="174.2949,-298.5 174.2949,-316.5 291.4521,-316.5 291.4521,-298.5 174.2949,-298.5"/>
<text text-anchor="middle" x="232.8735" y="-304.5" font-family="Helvetica,sans-Serif" font-size="10.00" fill="#000000">prevector::shrink_to_fit</text>
</a>
</g>
</g>
<!-- Node276&#45;&gt;Node301 -->
<g id="edge28" class="edge">
<title>Node276&#45;&gt;Node301</title>
<path fill="none" stroke="#191970" d="M90.6796,-209.361C125.0967,-233.1149 191.4913,-278.939 219.6894,-298.4006"/>
<polygon fill="#191970" stroke="#191970" points="92.4873,-206.356 82.2691,-203.5562 88.5111,-212.1171 92.4873,-206.356"/>
</g>
<!-- Node302 -->
<g id="node27" class="node">
<title>Node302</title>
<g id="a_node27"><a xlink:href="classprevector.html#ad4f368a9aa3f0f650e1b2a0894dafe51" target="_top" xlink:title="prevector::insert">
<polygon fill="#ffffff" stroke="#000000" points="189.0264,-111.5 189.0264,-129.5 276.7207,-129.5 276.7207,-111.5 189.0264,-111.5"/>
<text text-anchor="middle" x="232.8735" y="-117.5" font-family="Helvetica,sans-Serif" font-size="10.00" fill="#000000">prevector::insert</text>
</a>
</g>
</g>
<!-- Node276&#45;&gt;Node302 -->
<g id="edge30" class="edge">
<title>Node276&#45;&gt;Node302</title>
<path fill="none" stroke="#191970" d="M93.2752,-180.3883C114.2323,-168.4961 145.6367,-151.5419 174.2949,-139.5 183.0674,-135.8139 192.8203,-132.3944 201.8117,-129.5016"/>
<polygon fill="#191970" stroke="#191970" points="91.3632,-177.45 84.4288,-185.4602 94.8449,-183.5227 91.3632,-177.45"/>
</g>
<!-- Node305 -->
<g id="node30" class="node">
<title>Node305</title>
<g id="a_node30"><a xlink:href="classprevector.html#af34b1eea43f461465aa29fe7ca67449d" target="_top" xlink:title="prevector::push_back">
<polygon fill="#ffffff" stroke="#000000" points="177.0684,-37.5 177.0684,-55.5 288.6787,-55.5 288.6787,-37.5 177.0684,-37.5"/>
<text text-anchor="middle" x="232.8735" y="-43.5" font-family="Helvetica,sans-Serif" font-size="10.00" fill="#000000">prevector::push_back</text>
</a>
</g>
</g>
<!-- Node276&#45;&gt;Node305 -->
<g id="edge34" class="edge">
<title>Node276&#45;&gt;Node305</title>
<path fill="none" stroke="#191970" d="M87.2359,-178.1489C121.6508,-147.0396 195.5342,-80.2529 222.6356,-55.7546"/>
<polygon fill="#191970" stroke="#191970" points="84.4606,-175.9397 79.3893,-185.2419 89.1547,-181.1325 84.4606,-175.9397"/>
</g>
<!-- Node278 -->
<g id="node3" class="node">
<title>Node278</title>
<g id="a_node3"><a xlink:href="classprevector.html#a325af27672f21e7f2a01d8cdae7abba8" target="_top" xlink:title="prevector::operator=">
<polygon fill="#ffffff" stroke="#000000" points="698.2002,-400.5 698.2002,-418.5 804.5273,-418.5 804.5273,-400.5 698.2002,-400.5"/>
<text text-anchor="middle" x="751.3638" y="-406.5" font-family="Helvetica,sans-Serif" font-size="10.00" fill="#000000">prevector::operator=</text>
</a>
</g>
</g>
<!-- Node277&#45;&gt;Node278 -->
<g id="edge2" class="edge">
<title>Node277&#45;&gt;Node278</title>
<path fill="none" stroke="#191970" d="M637.7677,-392.1235C657.1982,-395.0958 678.8876,-398.4135 698.0647,-401.347"/>
<polygon fill="#191970" stroke="#191970" points="638.2522,-388.657 627.838,-390.6046 637.1937,-395.5765 638.2522,-388.657"/>
</g>
<!-- Node281 -->
<g id="node6" class="node">
<title>Node281</title>
<g id="a_node6"><a xlink:href="compressor_8h.html#aa6bd98842f2ceb1777745343d6ec0c9a" target="_top" xlink:title="DecompressScript">
<polygon fill="#ffffff" stroke="#000000" points="359.8862,-185.5 359.8862,-203.5 457.5757,-203.5 457.5757,-185.5 359.8862,-185.5"/>
<text text-anchor="middle" x="408.731" y="-191.5" font-family="Helvetica,sans-Serif" font-size="10.00" fill="#000000">DecompressScript</text>
</a>
</g>
</g>
<!-- Node280&#45;&gt;Node281 -->
<g id="edge5" class="edge">
<title>Node280&#45;&gt;Node281</title>
<path fill="none" stroke="#191970" d="M284.3515,-221.3764C310.6696,-215.6895 342.2816,-208.8587 367.05,-203.5066"/>
<polygon fill="#191970" stroke="#191970" points="283.5844,-217.9613 274.5493,-223.4945 285.063,-224.8034 283.5844,-217.9613"/>
</g>
<!-- Node283 -->
<g id="node8" class="node">
<title>Node283</title>
<g id="a_node8"><a xlink:href="classprevector.html#a0c428e879c43daac251d6fbbc2ab7b54" target="_top" xlink:title="prevector::prevector">
<polygon fill="#ffffff" stroke="#000000" points="356.2681,-261.5 356.2681,-279.5 461.1938,-279.5 461.1938,-261.5 356.2681,-261.5"/>
<text text-anchor="middle" x="408.731" y="-267.5" font-family="Helvetica,sans-Serif" font-size="10.00" fill="#000000">prevector::prevector</text>
</a>
</g>
</g>
<!-- Node280&#45;&gt;Node283 -->
<g id="edge7" class="edge">
<title>Node280&#45;&gt;Node283</title>
<path fill="none" stroke="#191970" d="M284.3515,-243.6236C310.6696,-249.3105 342.2816,-256.1413 367.05,-261.4934"/>
<polygon fill="#191970" stroke="#191970" points="285.063,-240.1966 274.5493,-241.5055 283.5844,-247.0387 285.063,-240.1966"/>
</g>
<!-- Node284 -->
<g id="node9" class="node">
<title>Node284</title>
<g id="a_node9"><a xlink:href="classprevector.html#a412f07b8bf5485dabe2fe9d6d5dfe763" target="_top" xlink:title="prevector::clear">
<polygon fill="#ffffff" stroke="#000000" points="366.2729,-298.5 366.2729,-316.5 451.189,-316.5 451.189,-298.5 366.2729,-298.5"/>
<text text-anchor="middle" x="408.731" y="-304.5" font-family="Helvetica,sans-Serif" font-size="10.00" fill="#000000">prevector::clear</text>
</a>
</g>
</g>
<!-- Node280&#45;&gt;Node284 -->
<g id="edge8" class="edge">
<title>Node280&#45;&gt;Node284</title>
<path fill="none" stroke="#191970" d="M253.2682,-247.4786C271.7629,-260.389 300.2197,-278.6179 327.4521,-289.5 339.6652,-294.3803 353.4658,-298.0655 366.182,-300.7885"/>
<polygon fill="#191970" stroke="#191970" points="255.2155,-244.5686 245.0382,-241.6235 251.1576,-250.2725 255.2155,-244.5686"/>
</g>
<!-- Node297 -->
<g id="node22" class="node">
<title>Node297</title>
<g id="a_node22"><a xlink:href="serialize_8h.html#a7946ec004b1e1c7eb150c17d00800ca3" target="_top" xlink:title="Unserialize_impl">
<polygon fill="#ffffff" stroke="#000000" points="536.7129,-244.5 536.7129,-262.5 626.0723,-262.5 626.0723,-244.5 536.7129,-244.5"/>
<text text-anchor="middle" x="581.3926" y="-250.5" font-family="Helvetica,sans-Serif" font-size="10.00" fill="#000000">Unserialize_impl</text>
</a>
</g>
</g>
<!-- Node280&#45;&gt;Node297 -->
<g id="edge25" class="edge">
<title>Node280&#45;&gt;Node297</title>
<path fill="none" stroke="#191970" d="M288.2862,-235.8389C357.0751,-239.9838 473.0577,-246.9723 536.5429,-250.7976"/>
<polygon fill="#191970" stroke="#191970" points="288.2715,-232.3317 278.079,-235.2239 287.8504,-239.3191 288.2715,-232.3317"/>
</g>
<!-- Node282 -->
<g id="node7" class="node">
<title>Node282</title>
<g id="a_node7"><a xlink:href="class_c_script_compressor.html#a6e8b76d96a963cf79fccf6b180a56fff" target="_top" xlink:title="CScriptCompressor::\lUnserialize">
<polygon fill="#ffffff" stroke="#000000" points="526.9937,-180.5 526.9937,-208.5 635.7915,-208.5 635.7915,-180.5 526.9937,-180.5"/>
<text text-anchor="start" x="534.9937" y="-196.5" font-family="Helvetica,sans-Serif" font-size="10.00" fill="#000000">CScriptCompressor::</text>
<text text-anchor="middle" x="581.3926" y="-186.5" font-family="Helvetica,sans-Serif" font-size="10.00" fill="#000000">Unserialize</text>
</a>
</g>
</g>
<!-- Node281&#45;&gt;Node282 -->
<g id="edge6" class="edge">
<title>Node281&#45;&gt;Node282</title>
<path fill="none" stroke="#191970" d="M467.8313,-194.5C486.9374,-194.5 508.0258,-194.5 526.791,-194.5"/>
<polygon fill="#191970" stroke="#191970" points="467.747,-191.0001 457.747,-194.5 467.747,-198.0001 467.747,-191.0001"/>
</g>
<!-- Node284&#45;&gt;Node277 -->
<g id="edge9" class="edge">
<title>Node284&#45;&gt;Node277</title>
<path fill="none" stroke="#191970" d="M438.2091,-320.6525C461.9083,-331.2067 496.069,-346.3752 526.0098,-359.5 537.3347,-364.4644 549.9863,-369.9514 560.3354,-374.4244"/>
<polygon fill="#191970" stroke="#191970" points="439.6063,-317.4434 429.0475,-316.5702 436.7573,-323.8374 439.6063,-317.4434"/>
</g>
<!-- Node285 -->
<g id="node10" class="node">
<title>Node285</title>
<g id="a_node10"><a xlink:href="classprevector.html#a507bc6d153e291d93c885162e3a3a8f7" target="_top" xlink:title="prevector::~prevector">
<polygon fill="#ffffff" stroke="#000000" points="526.0098,-294.5 526.0098,-312.5 636.7754,-312.5 636.7754,-294.5 526.0098,-294.5"/>
<text text-anchor="middle" x="581.3926" y="-300.5" font-family="Helvetica,sans-Serif" font-size="10.00" fill="#000000">prevector::~prevector</text>
</a>
</g>
</g>
<!-- Node284&#45;&gt;Node285 -->
<g id="edge10" class="edge">
<title>Node284&#45;&gt;Node285</title>
<path fill="none" stroke="#191970" d="M461.4621,-306.2784C481.846,-305.8062 505.1912,-305.2653 525.8351,-304.7871"/>
<polygon fill="#191970" stroke="#191970" points="461.3276,-302.7805 451.4114,-306.5112 461.4898,-309.7786 461.3276,-302.7805"/>
</g>
<!-- Node286 -->
<g id="node11" class="node">
<title>Node286</title>
<g id="a_node11"><a xlink:href="class_c_script.html#a7b2baf842621f07c4939408acf63377c" target="_top" xlink:title="CScript::clear">
<polygon fill="#ffffff" stroke="#000000" points="543.3853,-331.5 543.3853,-349.5 619.3999,-349.5 619.3999,-331.5 543.3853,-331.5"/>
<text text-anchor="middle" x="581.3926" y="-337.5" font-family="Helvetica,sans-Serif" font-size="10.00" fill="#000000">CScript::clear</text>
</a>
</g>
</g>
<!-- Node284&#45;&gt;Node286 -->
<g id="edge11" class="edge">
<title>Node284&#45;&gt;Node286</title>
<path fill="none" stroke="#191970" d="M461.2797,-317.5434C487.7379,-322.6002 519.2221,-328.6176 543.3176,-333.2229"/>
<polygon fill="#191970" stroke="#191970" points="461.8907,-314.0969 451.4114,-315.6573 460.5765,-320.9724 461.8907,-314.0969"/>
</g>
<!-- Node284&#45;&gt;Node297 -->
<g id="edge23" class="edge">
<title>Node284&#45;&gt;Node297</title>
<path fill="none" stroke="#191970" d="M461.1675,-297.1608C470.8292,-294.8963 480.7773,-292.3217 490.0098,-289.5 514.9597,-281.8746 542.728,-270.505 561.0339,-262.5904"/>
<polygon fill="#191970" stroke="#191970" points="460.2258,-293.7853 451.2446,-299.4056 461.7704,-300.6127 460.2258,-293.7853"/>
</g>
<!-- Node287 -->
<g id="node12" class="node">
<title>Node287</title>
<g id="a_node12"><a xlink:href="class_c_tx_out.html#a9fe5e6a1be651f130d3dc84a64e78a24" target="_top" xlink:title="CTxOut::SetNull">
<polygon fill="#ffffff" stroke="#000000" points="707.2432,-363.5 707.2432,-381.5 795.4844,-381.5 795.4844,-363.5 707.2432,-363.5"/>
<text text-anchor="middle" x="751.3638" y="-369.5" font-family="Helvetica,sans-Serif" font-size="10.00" fill="#000000">CTxOut::SetNull</text>
</a>
</g>
</g>
<!-- Node286&#45;&gt;Node287 -->
<g id="edge12" class="edge">
<title>Node286&#45;&gt;Node287</title>
<path fill="none" stroke="#191970" d="M629.6301,-349.5815C653.9624,-354.1625 683.2722,-359.6806 707.0344,-364.1542"/>
<polygon fill="#191970" stroke="#191970" points="630.0124,-346.0921 619.5374,-347.6814 628.7172,-352.9712 630.0124,-346.0921"/>
</g>
<!-- Node295 -->
<g id="node20" class="node">
<title>Node295</title>
<g id="a_node20"><a xlink:href="rawtransaction_8cpp.html#a6b6a0c0d5bd5b55553ea48b3da2e796c" target="_top" xlink:title="converttopsbt">
<polygon fill="#ffffff" stroke="#000000" points="713.3467,-289.5 713.3467,-307.5 789.3809,-307.5 789.3809,-289.5 713.3467,-289.5"/>
<text text-anchor="middle" x="751.3638" y="-295.5" font-family="Helvetica,sans-Serif" font-size="10.00" fill="#000000">converttopsbt</text>
</a>
</g>
</g>
<!-- Node286&#45;&gt;Node295 -->
<g id="edge20" class="edge">
<title>Node286&#45;&gt;Node295</title>
<path fill="none" stroke="#191970" d="M626.8074,-328.9806C641.4714,-325.2849 657.8051,-321.1935 672.7754,-317.5 686.1311,-314.2049 700.7781,-310.6482 713.7705,-307.5131"/>
<polygon fill="#191970" stroke="#191970" points="625.7987,-325.6253 616.9593,-331.4661 627.5118,-332.4125 625.7987,-325.6253"/>
</g>
<!-- Node296 -->
<g id="node21" class="node">
<title>Node296</title>
<g id="a_node21"><a xlink:href="struct_p_s_b_t_input.html#ad4eae111b69112fac6fd802b9e647d8e" target="_top" xlink:title="PSBTInput::FromSignatureData">
<polygon fill="#ffffff" stroke="#000000" points="672.7754,-326.5 672.7754,-344.5 829.9521,-344.5 829.9521,-326.5 672.7754,-326.5"/>
<text text-anchor="middle" x="751.3638" y="-332.5" font-family="Helvetica,sans-Serif" font-size="10.00" fill="#000000">PSBTInput::FromSignatureData</text>
</a>
</g>
</g>
<!-- Node286&#45;&gt;Node296 -->
<g id="edge21" class="edge">
<title>Node286&#45;&gt;Node296</title>
<path fill="none" stroke="#191970" d="M629.8935,-339.0733C643.2441,-338.6805 658.0776,-338.2442 672.6628,-337.8151"/>
<polygon fill="#191970" stroke="#191970" points="629.4302,-335.5853 619.5374,-339.3779 629.6361,-342.5823 629.4302,-335.5853"/>
</g>
<!-- Node288 -->
<g id="node13" class="node">
<title>Node288</title>
<g id="a_node13"><a xlink:href="class_coin.html#a43f443512a1a3444555149d14a9a3d48" target="_top" xlink:title="Coin::Clear">
<polygon fill="#ffffff" stroke="#000000" points="878.1689,-363.5 878.1689,-381.5 944.1885,-381.5 944.1885,-363.5 878.1689,-363.5"/>
<text text-anchor="middle" x="911.1787" y="-369.5" font-family="Helvetica,sans-Serif" font-size="10.00" fill="#000000">Coin::Clear</text>
</a>
</g>
</g>
<!-- Node287&#45;&gt;Node288 -->
<g id="edge13" class="edge">
<title>Node287&#45;&gt;Node288</title>
<path fill="none" stroke="#191970" d="M805.9138,-372.5C829.8759,-372.5 857.2319,-372.5 878.0498,-372.5"/>
<polygon fill="#191970" stroke="#191970" points="805.8812,-369.0001 795.8811,-372.5 805.8811,-376.0001 805.8812,-369.0001"/>
</g>
<!-- Node289 -->
<g id="node14" class="node">
<title>Node289</title>
<g id="a_node14"><a xlink:href="class_c_tx_out.html#a46110a759b21c75968297768f759be59" target="_top" xlink:title="CTxOut::CTxOut">
<polygon fill="#ffffff" stroke="#000000" points="865.9521,-400.5 865.9521,-418.5 956.4053,-418.5 956.4053,-400.5 865.9521,-400.5"/>
<text text-anchor="middle" x="911.1787" y="-406.5" font-family="Helvetica,sans-Serif" font-size="10.00" fill="#000000">CTxOut::CTxOut</text>
</a>
</g>
</g>
<!-- Node287&#45;&gt;Node289 -->
<g id="edge14" class="edge">
<title>Node287&#45;&gt;Node289</title>
<path fill="none" stroke="#191970" d="M800.4,-383.8528C823.4622,-389.1921 850.5785,-395.47 872.2105,-400.4782"/>
<polygon fill="#191970" stroke="#191970" points="800.9907,-380.397 790.4589,-381.5512 799.4118,-387.2166 800.9907,-380.397"/>
</g>
<!-- Node290 -->
<g id="node15" class="node">
<title>Node290</title>
<g id="a_node15"><a xlink:href="sign_8h.html#a0672ff731255ff8be6d4f8c5abd68d6c" target="_top" xlink:title="Signs a PSBTInput, verifying that all provided data matches what is being signed. ...">
<polygon fill="#ffffff" stroke="#000000" points="868.9917,-326.5 868.9917,-344.5 953.3657,-344.5 953.3657,-326.5 868.9917,-326.5"/>
<text text-anchor="middle" x="911.1787" y="-332.5" font-family="Helvetica,sans-Serif" font-size="10.00" fill="#000000">SignPSBTInput</text>
</a>
</g>
</g>
<!-- Node287&#45;&gt;Node290 -->
<g id="edge15" class="edge">
<title>Node287&#45;&gt;Node290</title>
<path fill="none" stroke="#191970" d="M800.8304,-361.2068C810.4898,-358.9912 820.5397,-356.6788 829.9521,-354.5 843.9205,-351.2667 859.2327,-347.6926 872.7605,-344.525"/>
<polygon fill="#191970" stroke="#191970" points="799.9145,-357.8258 790.9488,-363.4709 801.4779,-364.649 799.9145,-357.8258"/>
</g>
<!-- Node291 -->
<g id="node16" class="node">
<title>Node291</title>
<g id="a_node16"><a xlink:href="rawtransaction_8cpp.html#a5edaef38949646889470912893a56b88" target="_top" xlink:title="finalizepsbt">
<polygon fill="#ffffff" stroke="#000000" points="992.4053,-345.5 992.4053,-363.5 1058.4346,-363.5 1058.4346,-345.5 992.4053,-345.5"/>
<text text-anchor="middle" x="1025.4199" y="-351.5" font-family="Helvetica,sans-Serif" font-size="10.00" fill="#000000">finalizepsbt</text>
</a>
</g>
</g>
<!-- Node290&#45;&gt;Node291 -->
<g id="edge16" class="edge">
<title>Node290&#45;&gt;Node291</title>
<path fill="none" stroke="#191970" d="M963.4903,-344.2002C973.2922,-345.8304 983.2843,-347.4922 992.3011,-348.9919"/>
<polygon fill="#191970" stroke="#191970" points="963.8321,-340.709 953.3933,-342.5209 962.6836,-347.6142 963.8321,-340.709"/>
</g>
<!-- Node292 -->
<g id="node17" class="node">
<title>Node292</title>
<g id="a_node17"><a xlink:href="rpcwallet_8h.html#ab2cdd07070dae2e6b1a2ea36a619b233" target="_top" xlink:title="FillPSBT">
<polygon fill="#ffffff" stroke="#000000" points="997.9741,-308.5 997.9741,-326.5 1052.8657,-326.5 1052.8657,-308.5 997.9741,-308.5"/>
<text text-anchor="middle" x="1025.4199" y="-314.5" font-family="Helvetica,sans-Serif" font-size="10.00" fill="#000000">FillPSBT</text>
</a>
</g>
</g>
<!-- Node290&#45;&gt;Node292 -->
<g id="edge17" class="edge">
<title>Node290&#45;&gt;Node292</title>
<path fill="none" stroke="#191970" d="M963.3156,-327.2852C975.2651,-325.4025 987.5077,-323.4735 997.9302,-321.8313"/>
<polygon fill="#191970" stroke="#191970" points="962.7267,-323.8348 953.3933,-328.8486 963.8163,-330.7495 962.7267,-323.8348"/>
</g>
<!-- Node293 -->
<g id="node18" class="node">
<title>Node293</title>
<g id="a_node18"><a xlink:href="rpcwallet_8cpp.html#a9c99ceacf389a1ce91977c6f7ffa5022" target="_top" xlink:title="walletprocesspsbt">
<polygon fill="#ffffff" stroke="#000000" points="1106.1167,-327.5 1106.1167,-345.5 1201.5991,-345.5 1201.5991,-327.5 1106.1167,-327.5"/>
<text text-anchor="middle" x="1153.8579" y="-333.5" font-family="Helvetica,sans-Serif" font-size="10.00" fill="#000000">walletprocesspsbt</text>
</a>
</g>
</g>
<!-- Node292&#45;&gt;Node293 -->
<g id="edge18" class="edge">
<title>Node292&#45;&gt;Node293</title>
<path fill="none" stroke="#191970" d="M1063.2303,-323.0933C1076.5839,-325.0687 1091.7821,-327.3171 1105.8661,-329.4005"/>
<polygon fill="#191970" stroke="#191970" points="1063.3777,-319.5771 1052.9731,-321.576 1062.3532,-326.5018 1063.3777,-319.5771"/>
</g>
<!-- Node294 -->
<g id="node19" class="node">
<title>Node294</title>
<g id="a_node19"><a xlink:href="rpcwallet_8cpp.html#afca55ac7a3c6c274b8b7b3e6eab9cd86" target="_top" xlink:title="walletcreatefundedpsbt">
<polygon fill="#ffffff" stroke="#000000" points="1094.4346,-290.5 1094.4346,-308.5 1213.2813,-308.5 1213.2813,-290.5 1094.4346,-290.5"/>
<text text-anchor="middle" x="1153.8579" y="-296.5" font-family="Helvetica,sans-Serif" font-size="10.00" fill="#000000">walletcreatefundedpsbt</text>
</a>
</g>
</g>
<!-- Node292&#45;&gt;Node294 -->
<g id="edge19" class="edge">
<title>Node292&#45;&gt;Node294</title>
<path fill="none" stroke="#191970" d="M1063.1677,-312.2098C1072.9751,-310.8354 1083.7809,-309.321 1094.4113,-307.8312"/>
<polygon fill="#191970" stroke="#191970" points="1062.3905,-308.7844 1052.9731,-313.6385 1063.3621,-315.7167 1062.3905,-308.7844"/>
</g>
<!-- Node296&#45;&gt;Node290 -->
<g id="edge22" class="edge">
<title>Node296&#45;&gt;Node290</title>
<path fill="none" stroke="#191970" d="M840.5351,-335.5C850.2823,-335.5 859.843,-335.5 868.6267,-335.5"/>
<polygon fill="#191970" stroke="#191970" points="840.3349,-332.0001 830.3348,-335.5 840.3348,-339.0001 840.3349,-332.0001"/>
</g>
<!-- Node298 -->
<g id="node23" class="node">
<title>Node298</title>
<g id="a_node23"><a xlink:href="serialize_8h.html#a37f7fcf5a434c7fffed8f1ef83fef39f" target="_top" xlink:title="Unserialize">
<polygon fill="#ffffff" stroke="#000000" points="718.6323,-244.5 718.6323,-262.5 784.0952,-262.5 784.0952,-244.5 718.6323,-244.5"/>
<text text-anchor="middle" x="751.3638" y="-250.5" font-family="Helvetica,sans-Serif" font-size="10.00" fill="#000000">Unserialize</text>
</a>
</g>
</g>
<!-- Node297&#45;&gt;Node298 -->
<g id="edge24" class="edge">
<title>Node297&#45;&gt;Node298</title>
<path fill="none" stroke="#191970" d="M636.6015,-253.5C663.6284,-253.5 695.2545,-253.5 718.4547,-253.5"/>
<polygon fill="#191970" stroke="#191970" points="636.4955,-250.0001 626.4955,-253.5 636.4955,-257.0001 636.4955,-250.0001"/>
</g>
<!-- Node300 -->
<g id="node25" class="node">
<title>Node300</title>
<g id="a_node25"><a xlink:href="class_c_script.html#af5c72a9c725a2c4f1432cc214d54cfd7" target="_top" xlink:title="CScript::operator+=">
<polygon fill="#ffffff" stroke="#000000" points="357.0981,-148.5 357.0981,-166.5 460.3638,-166.5 460.3638,-148.5 357.0981,-148.5"/>
<text text-anchor="middle" x="408.731" y="-154.5" font-family="Helvetica,sans-Serif" font-size="10.00" fill="#000000">CScript::operator+=</text>
</a>
</g>
</g>
<!-- Node299&#45;&gt;Node300 -->
<g id="edge27" class="edge">
<title>Node299&#45;&gt;Node300</title>
<path fill="none" stroke="#191970" d="M291.5559,-157.5C312.7274,-157.5 336.4517,-157.5 356.9867,-157.5"/>
<polygon fill="#191970" stroke="#191970" points="291.3929,-154.0001 281.3929,-157.5 291.3928,-161.0001 291.3929,-154.0001"/>
</g>
<!-- Node301&#45;&gt;Node286 -->
<g id="edge29" class="edge">
<title>Node301&#45;&gt;Node286</title>
<path fill="none" stroke="#191970" d="M281.2544,-318.605C296.0126,-321.6174 312.3336,-324.5747 327.4521,-326.5 403.6643,-336.2053 493.5897,-339.1851 543.3788,-340.0983"/>
<polygon fill="#191970" stroke="#191970" points="281.8263,-315.1489 271.3209,-316.5227 280.3901,-322 281.8263,-315.1489"/>
</g>
<!-- Node302&#45;&gt;Node300 -->
<g id="edge32" class="edge">
<title>Node302&#45;&gt;Node300</title>
<path fill="none" stroke="#191970" d="M285.8104,-131.6378C311.4054,-137.0229 341.7274,-143.4026 365.8511,-148.4782"/>
<polygon fill="#191970" stroke="#191970" points="286.3995,-128.1852 275.8931,-129.5512 284.9582,-135.0352 286.3995,-128.1852"/>
</g>
<!-- Node303 -->
<g id="node28" class="node">
<title>Node303</title>
<g id="a_node28"><a xlink:href="interpreter_8h.html#a4bbdb5f5fcbbe292942cb74ee15ab3df" target="_top" xlink:title="FindAndDelete">
<polygon fill="#ffffff" stroke="#000000" points="367.6548,-74.5 367.6548,-92.5 449.8071,-92.5 449.8071,-74.5 367.6548,-74.5"/>
<text text-anchor="middle" x="408.731" y="-80.5" font-family="Helvetica,sans-Serif" font-size="10.00" fill="#000000">FindAndDelete</text>
</a>
</g>
</g>
<!-- Node302&#45;&gt;Node303 -->
<g id="edge31" class="edge">
<title>Node302&#45;&gt;Node303</title>
<path fill="none" stroke="#191970" d="M285.9999,-109.3223C312.0944,-103.8321 343.0651,-97.3159 367.3665,-92.203"/>
<polygon fill="#191970" stroke="#191970" points="284.9582,-105.9648 275.8931,-111.4488 286.3995,-112.8148 284.9582,-105.9648"/>
</g>
<!-- Node304 -->
<g id="node29" class="node">
<title>Node304</title>
<g id="a_node29"><a xlink:href="class_c_script.html#af22201e1171b6390b4a06678d00c78d3" target="_top" xlink:title="CScript::operator\&lt;\&lt;">
<polygon fill="#ffffff" stroke="#000000" points="357.0981,-111.5 357.0981,-129.5 460.3638,-129.5 460.3638,-111.5 357.0981,-111.5"/>
<text text-anchor="middle" x="408.731" y="-117.5" font-family="Helvetica,sans-Serif" font-size="10.00" fill="#000000">CScript::operator&lt;&lt;</text>
</a>
</g>
</g>
<!-- Node302&#45;&gt;Node304 -->
<g id="edge33" class="edge">
<title>Node302&#45;&gt;Node304</title>
<path fill="none" stroke="#191970" d="M287.0801,-120.5C309.3214,-120.5 334.9555,-120.5 356.9404,-120.5"/>
<polygon fill="#191970" stroke="#191970" points="286.7962,-117.0001 276.7962,-120.5 286.7961,-124.0001 286.7962,-117.0001"/>
</g>
<!-- Node306 -->
<g id="node31" class="node">
<title>Node306</title>
<g id="a_node31"><a xlink:href="class_wallet_model.html#aa56ac200db13d7121cedb40ebd43ba2f" target="_top" xlink:title="WalletModel::prepareTransaction">
<polygon fill="#ffffff" stroke="#000000" points="327.4521,-.5 327.4521,-18.5 490.0098,-18.5 490.0098,-.5 327.4521,-.5"/>
<text text-anchor="middle" x="408.731" y="-6.5" font-family="Helvetica,sans-Serif" font-size="10.00" fill="#000000">WalletModel::prepareTransaction</text>
</a>
</g>
</g>
<!-- Node305&#45;&gt;Node306 -->
<g id="edge35" class="edge">
<title>Node305&#45;&gt;Node306</title>
<path fill="none" stroke="#191970" d="M285.8104,-35.3622C311.4054,-29.9771 341.7274,-23.5974 365.8511,-18.5218"/>
<polygon fill="#191970" stroke="#191970" points="284.9582,-31.9648 275.8931,-37.4488 286.3995,-38.8148 284.9582,-31.9648"/>
</g>
<!-- Node307 -->
<g id="node32" class="node">
<title>Node307</title>
<g id="a_node32"><a xlink:href="class_c_script.html#ad802105f1515b4953ecbe6aeab2ee1ca" target="_top" xlink:title="CScript::push_int64">
<polygon fill="#ffffff" stroke="#000000" points="357.0957,-37.5 357.0957,-55.5 460.3662,-55.5 460.3662,-37.5 357.0957,-37.5"/>
<text text-anchor="middle" x="408.731" y="-43.5" font-family="Helvetica,sans-Serif" font-size="10.00" fill="#000000">CScript::push_int64</text>
</a>
</g>
</g>
<!-- Node305&#45;&gt;Node307 -->
<g id="edge36" class="edge">
<title>Node305&#45;&gt;Node307</title>
<path fill="none" stroke="#191970" d="M299.1557,-46.5C318.2974,-46.5 338.8984,-46.5 357.0145,-46.5"/>
<polygon fill="#191970" stroke="#191970" points="298.9995,-43.0001 288.9994,-46.5 298.9994,-50.0001 298.9995,-43.0001"/>
</g>
<!-- Node308 -->
<g id="node33" class="node">
<title>Node308</title>
<g id="a_node33"><a xlink:href="class_c_script.html#aafde904eee737599e8b4f98c4a9d1043" target="_top" xlink:title="CScript::operator\&lt;\&lt;">
<polygon fill="#ffffff" stroke="#000000" points="529.7598,-37.5 529.7598,-55.5 633.0254,-55.5 633.0254,-37.5 529.7598,-37.5"/>
<text text-anchor="middle" x="581.3926" y="-43.5" font-family="Helvetica,sans-Serif" font-size="10.00" fill="#000000">CScript::operator&lt;&lt;</text>
</a>
</g>
</g>
<!-- Node307&#45;&gt;Node308 -->
<g id="edge37" class="edge">
<title>Node307&#45;&gt;Node308</title>
<path fill="none" stroke="#191970" d="M470.7438,-46.5C490.0415,-46.5 511.1042,-46.5 529.625,-46.5"/>
<polygon fill="#191970" stroke="#191970" points="470.5352,-43.0001 460.5351,-46.5 470.5351,-50.0001 470.5352,-43.0001"/>
</g>
<!-- Node309 -->
<g id="node34" class="node">
<title>Node309</title>
<g id="a_node34"><a xlink:href="class_c_script.html#a48cc35ec0c9119def402a7118e81cf00" target="_top" xlink:title="CScript::CScript">
<polygon fill="#ffffff" stroke="#000000" points="707.8022,-37.5 707.8022,-55.5 794.9253,-55.5 794.9253,-37.5 707.8022,-37.5"/>
<text text-anchor="middle" x="751.3638" y="-43.5" font-family="Helvetica,sans-Serif" font-size="10.00" fill="#000000">CScript::CScript</text>
</a>
</g>
</g>
<!-- Node308&#45;&gt;Node309 -->
<g id="edge38" class="edge">
<title>Node308&#45;&gt;Node309</title>
<path fill="none" stroke="#191970" d="M643.5803,-46.5C664.8857,-46.5 688.2552,-46.5 707.7713,-46.5"/>
<polygon fill="#191970" stroke="#191970" points="643.3131,-43.0001 633.3131,-46.5 643.3131,-50.0001 643.3131,-43.0001"/>
</g>
</g>
</svg>
