<?xml version="1.0" encoding="UTF-8" standalone="no"?>
<!DOCTYPE svg PUBLIC "-//W3C//DTD SVG 1.1//EN"
 "http://www.w3.org/Graphics/SVG/1.1/DTD/svg11.dtd">
<!-- Generated by graphviz version 2.40.1 (20161225.0304)
 -->
<!-- Title: HelpMessageDialog::HelpMessageDialog Pages: 1 -->
<svg width="809pt" height="237pt"
 viewBox="0.00 0.00 808.95 237.00" xmlns="http://www.w3.org/2000/svg" xmlns:xlink="http://www.w3.org/1999/xlink">
<g id="graph0" class="graph" transform="scale(1 1) rotate(0) translate(4 233)">
<title>HelpMessageDialog::HelpMessageDialog</title>
<polygon fill="#ffffff" stroke="transparent" points="-4,4 -4,-233 804.9531,-233 804.9531,4 -4,4"/>
<!-- Node0 -->
<g id="node1" class="node">
<title>Node0</title>
<polygon fill="#bfbfbf" stroke="#000000" points="0,-139.5 0,-167.5 111.0488,-167.5 111.0488,-139.5 0,-139.5"/>
<text text-anchor="start" x="8" y="-155.5" font-family="Helvetica,sans-Serif" font-size="10.00" fill="#000000">HelpMessageDialog::</text>
<text text-anchor="middle" x="55.5244" y="-145.5" font-family="Helvetica,sans-Serif" font-size="10.00" fill="#000000">HelpMessageDialog</text>
</g>
<!-- Node1 -->
<g id="node2" class="node">
<title>Node1</title>
<g id="a_node2"><a xlink:href="clientversion_8cpp.html#ac3e3098552063f228d9deac38a8b9848" target="_top" xlink:title="FormatFullVersion">
<polygon fill="#ffffff" stroke="#000000" points="177.9009,-200.5 177.9009,-218.5 275.0435,-218.5 275.0435,-200.5 177.9009,-200.5"/>
<text text-anchor="middle" x="226.4722" y="-206.5" font-family="Helvetica,sans-Serif" font-size="10.00" fill="#000000">FormatFullVersion</text>
</a>
</g>
</g>
<!-- Node0&#45;&gt;Node1 -->
<g id="edge1" class="edge">
<title>Node0&#45;&gt;Node1</title>
<path fill="none" stroke="#191970" d="M98.6618,-167.6312C126.552,-176.7676 162.4881,-188.5397 189.1484,-197.2733"/>
<polygon fill="#191970" stroke="#191970" points="188.2832,-200.6728 198.8759,-200.4599 190.4624,-194.0206 188.2832,-200.6728"/>
</g>
<!-- Node3 -->
<g id="node4" class="node">
<title>Node3</title>
<g id="a_node4"><a xlink:href="init_8cpp.html#ac9e2081343d328ca68b7c4c4793442d2" target="_top" xlink:title="Returns licensing information (for &#45;version) ">
<polygon fill="#ffffff" stroke="#000000" points="192.8984,-144.5 192.8984,-162.5 260.0459,-162.5 260.0459,-144.5 192.8984,-144.5"/>
<text text-anchor="middle" x="226.4722" y="-150.5" font-family="Helvetica,sans-Serif" font-size="10.00" fill="#000000">LicenseInfo</text>
</a>
</g>
</g>
<!-- Node0&#45;&gt;Node3 -->
<g id="edge3" class="edge">
<title>Node0&#45;&gt;Node3</title>
<path fill="none" stroke="#191970" d="M111.4991,-153.5C134.595,-153.5 160.9663,-153.5 182.6217,-153.5"/>
<polygon fill="#191970" stroke="#191970" points="182.8387,-157.0001 192.8387,-153.5 182.8386,-150.0001 182.8387,-157.0001"/>
</g>
<!-- Node6 -->
<g id="node7" class="node">
<title>Node6</title>
<g id="a_node7"><a xlink:href="class_args_manager.html#a70fd4d4032e8a6492451249e9e3a5118" target="_top" xlink:title="Get the help string. ">
<polygon fill="#ffffff" stroke="#000000" points="147.0488,-79.5 147.0488,-97.5 305.8955,-97.5 305.8955,-79.5 147.0488,-79.5"/>
<text text-anchor="middle" x="226.4722" y="-85.5" font-family="Helvetica,sans-Serif" font-size="10.00" fill="#000000">ArgsManager::GetHelpMessage</text>
</a>
</g>
</g>
<!-- Node0&#45;&gt;Node6 -->
<g id="edge7" class="edge">
<title>Node0&#45;&gt;Node6</title>
<path fill="none" stroke="#191970" d="M92.6175,-139.396C122.4834,-128.04 164.0998,-112.216 192.9679,-101.2394"/>
<polygon fill="#191970" stroke="#191970" points="194.5039,-104.3999 202.6071,-97.5743 192.016,-97.857 194.5039,-104.3999"/>
</g>
<!-- Node2 -->
<g id="node3" class="node">
<title>Node2</title>
<g id="a_node3"><a xlink:href="clientversion_8cpp.html#aff087070aeaa72e85b2d1a6192af8af5" target="_top" xlink:title="CLIENT_BUILD">
<polygon fill="#ffffff" stroke="#000000" points="365.2476,-210.5 365.2476,-228.5 451.8237,-228.5 451.8237,-210.5 365.2476,-210.5"/>
<text text-anchor="middle" x="408.5356" y="-216.5" font-family="Helvetica,sans-Serif" font-size="10.00" fill="#000000">CLIENT_BUILD</text>
</a>
</g>
</g>
<!-- Node1&#45;&gt;Node2 -->
<g id="edge2" class="edge">
<title>Node1&#45;&gt;Node2</title>
<path fill="none" stroke="#191970" d="M275.2618,-212.1798C299.887,-213.5324 329.8113,-215.176 355.0609,-216.5629"/>
<polygon fill="#191970" stroke="#191970" points="355.0282,-220.0662 365.2052,-217.12 355.4122,-213.0768 355.0282,-220.0662"/>
</g>
<!-- Node4 -->
<g id="node5" class="node">
<title>Node4</title>
<g id="a_node5"><a xlink:href="util_8cpp.html#a37261527315b7039a9b6d9916d1a6003" target="_top" xlink:title="CopyrightHolders">
<polygon fill="#ffffff" stroke="#000000" points="361.9077,-173.5 361.9077,-191.5 455.1636,-191.5 455.1636,-173.5 361.9077,-173.5"/>
<text text-anchor="middle" x="408.5356" y="-179.5" font-family="Helvetica,sans-Serif" font-size="10.00" fill="#000000">CopyrightHolders</text>
</a>
</g>
</g>
<!-- Node3&#45;&gt;Node4 -->
<g id="edge4" class="edge">
<title>Node3&#45;&gt;Node4</title>
<path fill="none" stroke="#191970" d="M260.2902,-158.8867C285.9748,-162.9779 321.8785,-168.6968 351.9189,-173.4818"/>
<polygon fill="#191970" stroke="#191970" points="351.4324,-176.9484 361.8585,-175.065 352.5336,-170.0355 351.4324,-176.9484"/>
</g>
<!-- Node5 -->
<g id="node6" class="node">
<title>Node5</title>
<g id="a_node6"><a xlink:href="util_8h.html#aad133bb6103b53cebf03fd01e2f11ba1" target="_top" xlink:title="Translation function. ">
<polygon fill="#ffffff" stroke="#000000" points="568.0425,-154.5 568.0425,-172.5 597.0425,-172.5 597.0425,-154.5 568.0425,-154.5"/>
<text text-anchor="middle" x="582.5425" y="-160.5" font-family="Helvetica,sans-Serif" font-size="10.00" fill="#000000">_</text>
</a>
</g>
</g>
<!-- Node3&#45;&gt;Node5 -->
<g id="edge6" class="edge">
<title>Node3&#45;&gt;Node5</title>
<path fill="none" stroke="#191970" d="M260.2914,-154.4498C331.5285,-156.4504 495.5825,-161.0578 557.9089,-162.8082"/>
<polygon fill="#191970" stroke="#191970" points="557.8988,-166.3092 567.9931,-163.0914 558.0954,-159.3119 557.8988,-166.3092"/>
</g>
<!-- Node4&#45;&gt;Node5 -->
<g id="edge5" class="edge">
<title>Node4&#45;&gt;Node5</title>
<path fill="none" stroke="#191970" d="M455.1663,-177.4083C488.2575,-173.7951 531.3608,-169.0886 557.9808,-166.1819"/>
<polygon fill="#191970" stroke="#191970" points="558.4148,-169.6554 567.9758,-165.0906 557.6549,-162.6968 558.4148,-169.6554"/>
</g>
<!-- Node7 -->
<g id="node8" class="node">
<title>Node7</title>
<g id="a_node8"><a xlink:href="class_args_manager.html#af81c6e2a9dcd6b12557a2387fd67b2a6" target="_top" xlink:title="Return boolean argument or default value. ">
<polygon fill="#ffffff" stroke="#000000" points="341.8955,-97.5 341.8955,-115.5 475.1758,-115.5 475.1758,-97.5 341.8955,-97.5"/>
<text text-anchor="middle" x="408.5356" y="-103.5" font-family="Helvetica,sans-Serif" font-size="10.00" fill="#000000">ArgsManager::GetBoolArg</text>
</a>
</g>
</g>
<!-- Node6&#45;&gt;Node7 -->
<g id="edge8" class="edge">
<title>Node6&#45;&gt;Node7</title>
<path fill="none" stroke="#191970" d="M306.063,-96.3689C314.4982,-97.2028 323.0665,-98.05 331.4721,-98.881"/>
<polygon fill="#191970" stroke="#191970" points="331.3286,-102.3838 341.6245,-99.8847 332.0174,-95.4177 331.3286,-102.3838"/>
</g>
<!-- Node13 -->
<g id="node14" class="node">
<title>Node13</title>
<g id="a_node14"><a xlink:href="util_8cpp.html#aae6ceac1cd94a0e700783c733e60e970" target="_top" xlink:title="Format a string to be used as group of options in help messages. ">
<polygon fill="#ffffff" stroke="#000000" points="356.0679,-60.5 356.0679,-78.5 461.0034,-78.5 461.0034,-60.5 356.0679,-60.5"/>
<text text-anchor="middle" x="408.5356" y="-66.5" font-family="Helvetica,sans-Serif" font-size="10.00" fill="#000000">HelpMessageGroup</text>
</a>
</g>
</g>
<!-- Node6&#45;&gt;Node13 -->
<g id="edge15" class="edge">
<title>Node6&#45;&gt;Node13</title>
<path fill="none" stroke="#191970" d="M306.063,-80.194C319.3512,-78.8072 332.9698,-77.386 345.7621,-76.051"/>
<polygon fill="#191970" stroke="#191970" points="346.2392,-79.5203 355.8219,-75.0012 345.5126,-72.5581 346.2392,-79.5203"/>
</g>
<!-- Node14 -->
<g id="node15" class="node">
<title>Node14</title>
<g id="a_node15"><a xlink:href="util_8cpp.html#aec85bcd561766ad0362a8fc5cd4a8542" target="_top" xlink:title="Format a string to be used as option description in help messages. ">
<polygon fill="#ffffff" stroke="#000000" points="361.9053,-23.5 361.9053,-41.5 455.166,-41.5 455.166,-23.5 361.9053,-23.5"/>
<text text-anchor="middle" x="408.5356" y="-29.5" font-family="Helvetica,sans-Serif" font-size="10.00" fill="#000000">HelpMessageOpt</text>
</a>
</g>
</g>
<!-- Node6&#45;&gt;Node14 -->
<g id="edge16" class="edge">
<title>Node6&#45;&gt;Node14</title>
<path fill="none" stroke="#191970" d="M252.4742,-79.4921C275.7848,-71.5237 310.9738,-59.7587 341.8955,-50.5 348.9201,-48.3967 356.3938,-46.2705 363.7005,-44.2525"/>
<polygon fill="#191970" stroke="#191970" points="364.7756,-47.5872 373.5029,-41.5802 362.9344,-40.8337 364.7756,-47.5872"/>
</g>
<!-- Node8 -->
<g id="node9" class="node">
<title>Node8</title>
<g id="a_node9"><a xlink:href="class_args_manager.html#a113a1b8c5471d2fff0108058be8b86af" target="_top" xlink:title="Return true if the argument was originally passed as a negated option, i.e. ">
<polygon fill="#ffffff" stroke="#000000" points="511.1758,-97.5 511.1758,-115.5 653.9092,-115.5 653.9092,-97.5 511.1758,-97.5"/>
<text text-anchor="middle" x="582.5425" y="-103.5" font-family="Helvetica,sans-Serif" font-size="10.00" fill="#000000">ArgsManager::IsArgNegated</text>
</a>
</g>
</g>
<!-- Node7&#45;&gt;Node8 -->
<g id="edge9" class="edge">
<title>Node7&#45;&gt;Node8</title>
<path fill="none" stroke="#191970" d="M475.3136,-106.5C483.7177,-106.5 492.3883,-106.5 500.9877,-106.5"/>
<polygon fill="#191970" stroke="#191970" points="501.0297,-110.0001 511.0297,-106.5 501.0296,-103.0001 501.0297,-110.0001"/>
</g>
<!-- Node10 -->
<g id="node11" class="node">
<title>Node10</title>
<g id="a_node11"><a xlink:href="class_args_manager_helper.html#aa4f8f77dc468b29cffe50513c78a87cd" target="_top" xlink:title="ArgsManagerHelper::\lGetArg">
<polygon fill="#ffffff" stroke="#000000" points="527.0205,-49.5 527.0205,-77.5 638.0645,-77.5 638.0645,-49.5 527.0205,-49.5"/>
<text text-anchor="start" x="535.0205" y="-65.5" font-family="Helvetica,sans-Serif" font-size="10.00" fill="#000000">ArgsManagerHelper::</text>
<text text-anchor="middle" x="582.5425" y="-55.5" font-family="Helvetica,sans-Serif" font-size="10.00" fill="#000000">GetArg</text>
</a>
</g>
</g>
<!-- Node7&#45;&gt;Node10 -->
<g id="edge11" class="edge">
<title>Node7&#45;&gt;Node10</title>
<path fill="none" stroke="#191970" d="M445.0132,-97.4858C465.8594,-92.3343 492.6279,-85.7194 517,-79.6967"/>
<polygon fill="#191970" stroke="#191970" points="518.0472,-83.0432 526.9155,-77.2464 516.3679,-76.2476 518.0472,-83.0432"/>
</g>
<!-- Node9 -->
<g id="node10" class="node">
<title>Node9</title>
<g id="a_node10"><a xlink:href="class_args_manager_helper.html#a863ddbcfbd113cf88cf622a0a4e32c1d" target="_top" xlink:title="Convert regular argument into the network&#45;specific setting. ">
<polygon fill="#ffffff" stroke="#000000" points="689.9092,-94.5 689.9092,-122.5 800.9531,-122.5 800.9531,-94.5 689.9092,-94.5"/>
<text text-anchor="start" x="697.9092" y="-110.5" font-family="Helvetica,sans-Serif" font-size="10.00" fill="#000000">ArgsManagerHelper::</text>
<text text-anchor="middle" x="745.4312" y="-100.5" font-family="Helvetica,sans-Serif" font-size="10.00" fill="#000000">NetworkArg</text>
</a>
</g>
</g>
<!-- Node8&#45;&gt;Node9 -->
<g id="edge10" class="edge">
<title>Node8&#45;&gt;Node9</title>
<path fill="none" stroke="#191970" d="M653.9878,-107.3772C662.4958,-107.4817 671.1516,-107.588 679.5763,-107.6914"/>
<polygon fill="#191970" stroke="#191970" points="679.6701,-111.1927 689.7123,-107.8159 679.7561,-104.1933 679.6701,-111.1927"/>
</g>
<!-- Node10&#45;&gt;Node9 -->
<g id="edge13" class="edge">
<title>Node10&#45;&gt;Node9</title>
<path fill="none" stroke="#191970" d="M633.6346,-77.6148C649.8572,-82.0965 667.9547,-87.0962 684.7827,-91.7451"/>
<polygon fill="#191970" stroke="#191970" points="683.9494,-95.146 694.5204,-94.4353 685.8135,-88.3987 683.9494,-95.146"/>
</g>
<!-- Node11 -->
<g id="node12" class="node">
<title>Node11</title>
<g id="a_node12"><a xlink:href="class_args_manager_helper.html#a1804a95992b4e10d04f0b92c53032b29" target="_top" xlink:title="Return true/false if an argument is set in a map, and also return the first (or last) of the possibly...">
<polygon fill="#ffffff" stroke="#000000" points="689.9092,-47.5 689.9092,-75.5 800.9531,-75.5 800.9531,-47.5 689.9092,-47.5"/>
<text text-anchor="start" x="697.9092" y="-63.5" font-family="Helvetica,sans-Serif" font-size="10.00" fill="#000000">ArgsManagerHelper::</text>
<text text-anchor="middle" x="745.4312" y="-53.5" font-family="Helvetica,sans-Serif" font-size="10.00" fill="#000000">GetArgHelper</text>
</a>
</g>
</g>
<!-- Node10&#45;&gt;Node11 -->
<g id="edge12" class="edge">
<title>Node10&#45;&gt;Node11</title>
<path fill="none" stroke="#191970" d="M638.1439,-62.8173C651.437,-62.6541 665.7548,-62.4783 679.4651,-62.31"/>
<polygon fill="#191970" stroke="#191970" points="679.8477,-65.8056 689.8039,-62.183 679.7617,-58.8061 679.8477,-65.8056"/>
</g>
<!-- Node12 -->
<g id="node13" class="node">
<title>Node12</title>
<g id="a_node13"><a xlink:href="class_args_manager_helper.html#a43f3488403e4f0433ade323e48008359" target="_top" xlink:title="Determine whether to use config settings in the default section, See also comments around ArgsManager...">
<polygon fill="#ffffff" stroke="#000000" points="689.9092,-.5 689.9092,-28.5 800.9531,-28.5 800.9531,-.5 689.9092,-.5"/>
<text text-anchor="start" x="697.9092" y="-16.5" font-family="Helvetica,sans-Serif" font-size="10.00" fill="#000000">ArgsManagerHelper::</text>
<text text-anchor="middle" x="745.4312" y="-6.5" font-family="Helvetica,sans-Serif" font-size="10.00" fill="#000000">UseDefaultSection</text>
</a>
</g>
</g>
<!-- Node10&#45;&gt;Node12 -->
<g id="edge14" class="edge">
<title>Node10&#45;&gt;Node12</title>
<path fill="none" stroke="#191970" d="M629.2198,-49.4586C647.8779,-43.8459 669.533,-37.3316 689.0579,-31.4581"/>
<polygon fill="#191970" stroke="#191970" points="690.1791,-34.7759 698.747,-28.5435 688.1626,-28.0726 690.1791,-34.7759"/>
</g>
</g>
</svg>
