<?xml version="1.0" encoding="UTF-8" standalone="no"?>
<!DOCTYPE svg PUBLIC "-//W3C//DTD SVG 1.1//EN"
 "http://www.w3.org/Graphics/SVG/1.1/DTD/svg11.dtd">
<!-- Generated by graphviz version 2.40.1 (20161225.0304)
 -->
<!-- Title: CDataStream::str Pages: 1 -->
<svg width="244pt" height="64pt"
 viewBox="0.00 0.00 243.84 64.00" xmlns="http://www.w3.org/2000/svg" xmlns:xlink="http://www.w3.org/1999/xlink">
<g id="graph0" class="graph" transform="scale(1 1) rotate(0) translate(4 60)">
<title>CDataStream::str</title>
<polygon fill="#ffffff" stroke="transparent" points="-4,4 -4,-60 239.8418,-60 239.8418,4 -4,4"/>
<!-- Node139 -->
<g id="node1" class="node">
<title>Node139</title>
<polygon fill="#bfbfbf" stroke="#000000" points="0,-18.5 0,-36.5 93.2412,-36.5 93.2412,-18.5 0,-18.5"/>
<text text-anchor="middle" x="46.6206" y="-24.5" font-family="Helvetica,sans-Serif" font-size="10.00" fill="#000000">CDataStream::str</text>
</g>
<!-- Node140 -->
<g id="node2" class="node">
<title>Node140</title>
<g id="a_node2"><a xlink:href="class_c_data_stream.html#a2355d11752d8622badfbc03e9ed192fd" target="_top" xlink:title="CDataStream::begin">
<polygon fill="#ffffff" stroke="#000000" points="129.2412,-37.5 129.2412,-55.5 235.8418,-55.5 235.8418,-37.5 129.2412,-37.5"/>
<text text-anchor="middle" x="182.5415" y="-43.5" font-family="Helvetica,sans-Serif" font-size="10.00" fill="#000000">CDataStream::begin</text>
</a>
</g>
</g>
<!-- Node139&#45;&gt;Node140 -->
<g id="edge1" class="edge">
<title>Node139&#45;&gt;Node140</title>
<path fill="none" stroke="#191970" d="M93.3969,-34.0387C101.6759,-35.196 110.421,-36.4185 119.0688,-37.6273"/>
<polygon fill="#191970" stroke="#191970" points="118.7537,-41.1172 129.142,-39.0354 119.7229,-34.1846 118.7537,-41.1172"/>
</g>
<!-- Node141 -->
<g id="node3" class="node">
<title>Node141</title>
<g id="a_node3"><a xlink:href="class_c_data_stream.html#a66409dbd4403682fe674e2e71173cab4" target="_top" xlink:title="CDataStream::end">
<polygon fill="#ffffff" stroke="#000000" points="133.1328,-.5 133.1328,-18.5 231.9502,-18.5 231.9502,-.5 133.1328,-.5"/>
<text text-anchor="middle" x="182.5415" y="-6.5" font-family="Helvetica,sans-Serif" font-size="10.00" fill="#000000">CDataStream::end</text>
</a>
</g>
</g>
<!-- Node139&#45;&gt;Node141 -->
<g id="edge2" class="edge">
<title>Node139&#45;&gt;Node141</title>
<path fill="none" stroke="#191970" d="M93.3969,-21.3054C102.8578,-20.0525 112.9273,-18.719 122.7647,-17.4162"/>
<polygon fill="#191970" stroke="#191970" points="123.4431,-20.8571 132.897,-16.0744 122.524,-13.9176 123.4431,-20.8571"/>
</g>
</g>
</svg>
