<?xml version="1.0" encoding="UTF-8" standalone="no"?>
<!DOCTYPE svg PUBLIC "-//W3C//DTD SVG 1.1//EN"
 "http://www.w3.org/Graphics/SVG/1.1/DTD/svg11.dtd">
<!-- Generated by graphviz version 2.40.1 (20161225.0304)
 -->
<!-- Title: WalletModel::privateKeysDisabled Pages: 1 -->
<svg width="611pt" height="37pt"
 viewBox="0.00 0.00 610.93 37.00" xmlns="http://www.w3.org/2000/svg" xmlns:xlink="http://www.w3.org/1999/xlink">
<g id="graph0" class="graph" transform="scale(1 1) rotate(0) translate(4 33)">
<title>WalletModel::privateKeysDisabled</title>
<polygon fill="#ffffff" stroke="transparent" points="-4,4 -4,-33 606.9326,-33 606.9326,4 -4,4"/>
<!-- Node383 -->
<g id="node1" class="node">
<title>Node383</title>
<polygon fill="#bfbfbf" stroke="#000000" points="0,-.5 0,-28.5 128.4561,-28.5 128.4561,-.5 0,-.5"/>
<text text-anchor="start" x="8" y="-16.5" font-family="Helvetica,sans-Serif" font-size="10.00" fill="#000000">WalletModel::privateKeys</text>
<text text-anchor="middle" x="64.228" y="-6.5" font-family="Helvetica,sans-Serif" font-size="10.00" fill="#000000">Disabled</text>
</g>
<!-- Node384 -->
<g id="node2" class="node">
<title>Node384</title>
<g id="a_node2"><a xlink:href="class_receive_coins_dialog.html#a856e5bbe280d792004e97e703f42c7f8" target="_top" xlink:title="ReceiveCoinsDialog\l::setModel">
<polygon fill="#ffffff" stroke="#000000" points="164.4561,-.5 164.4561,-28.5 270.5,-28.5 270.5,-.5 164.4561,-.5"/>
<text text-anchor="start" x="172.4561" y="-16.5" font-family="Helvetica,sans-Serif" font-size="10.00" fill="#000000">ReceiveCoinsDialog</text>
<text text-anchor="middle" x="217.478" y="-6.5" font-family="Helvetica,sans-Serif" font-size="10.00" fill="#000000">::setModel</text>
</a>
</g>
</g>
<!-- Node383&#45;&gt;Node384 -->
<g id="edge1" class="edge">
<title>Node383&#45;&gt;Node384</title>
<path fill="none" stroke="#191970" d="M138.7816,-14.5C147.3404,-14.5 155.9338,-14.5 164.1341,-14.5"/>
<polygon fill="#191970" stroke="#191970" points="138.7757,-11.0001 128.7757,-14.5 138.7756,-18.0001 138.7757,-11.0001"/>
</g>
<!-- Node385 -->
<g id="node3" class="node">
<title>Node385</title>
<g id="a_node3"><a xlink:href="class_wallet_view.html#a0a37ff693a4f9c1e5ddc23f9cd3913be" target="_top" xlink:title="Set the wallet model. ">
<polygon fill="#ffffff" stroke="#000000" points="306.5,-5.5 306.5,-23.5 444.9658,-23.5 444.9658,-5.5 306.5,-5.5"/>
<text text-anchor="middle" x="375.7329" y="-11.5" font-family="Helvetica,sans-Serif" font-size="10.00" fill="#000000">WalletView::setWalletModel</text>
</a>
</g>
</g>
<!-- Node384&#45;&gt;Node385 -->
<g id="edge2" class="edge">
<title>Node384&#45;&gt;Node385</title>
<path fill="none" stroke="#191970" d="M280.7611,-14.5C289.2035,-14.5 297.8969,-14.5 306.4351,-14.5"/>
<polygon fill="#191970" stroke="#191970" points="280.6149,-11.0001 270.6149,-14.5 280.6148,-18.0001 280.6149,-11.0001"/>
</g>
<!-- Node386 -->
<g id="node4" class="node">
<title>Node386</title>
<g id="a_node4"><a xlink:href="class_wallet_frame.html#a06cb28194836995e50cc46716b2227ff" target="_top" xlink:title="WalletFrame::addWallet">
<polygon fill="#ffffff" stroke="#000000" points="480.9658,-5.5 480.9658,-23.5 602.9326,-23.5 602.9326,-5.5 480.9658,-5.5"/>
<text text-anchor="middle" x="541.9492" y="-11.5" font-family="Helvetica,sans-Serif" font-size="10.00" fill="#000000">WalletFrame::addWallet</text>
</a>
</g>
</g>
<!-- Node385&#45;&gt;Node386 -->
<g id="edge3" class="edge">
<title>Node385&#45;&gt;Node386</title>
<path fill="none" stroke="#191970" d="M455.3109,-14.5C463.911,-14.5 472.5616,-14.5 480.8934,-14.5"/>
<polygon fill="#191970" stroke="#191970" points="455.2605,-11.0001 445.2605,-14.5 455.2605,-18.0001 455.2605,-11.0001"/>
</g>
</g>
</svg>
