<?xml version="1.0" encoding="UTF-8" standalone="no"?>
<!DOCTYPE svg PUBLIC "-//W3C//DTD SVG 1.1//EN"
 "http://www.w3.org/Graphics/SVG/1.1/DTD/svg11.dtd">
<!-- Generated by graphviz version 2.40.1 (20161225.0304)
 -->
<!-- Title: SignVerifyMessageDialog::setAddress_SM Pages: 1 -->
<svg width="551pt" height="131pt"
 viewBox="0.00 0.00 550.65 131.00" xmlns="http://www.w3.org/2000/svg" xmlns:xlink="http://www.w3.org/1999/xlink">
<g id="graph0" class="graph" transform="scale(1 1) rotate(0) translate(4 127)">
<title>SignVerifyMessageDialog::setAddress_SM</title>
<polygon fill="#ffffff" stroke="transparent" points="-4,4 -4,-127 546.6465,-127 546.6465,4 -4,4"/>
<!-- Node90 -->
<g id="node1" class="node">
<title>Node90</title>
<polygon fill="#bfbfbf" stroke="#000000" points="0,-37.5 0,-65.5 129.9551,-65.5 129.9551,-37.5 0,-37.5"/>
<text text-anchor="start" x="8" y="-53.5" font-family="Helvetica,sans-Serif" font-size="10.00" fill="#000000">SignVerifyMessageDialog</text>
<text text-anchor="middle" x="64.9775" y="-43.5" font-family="Helvetica,sans-Serif" font-size="10.00" fill="#000000">::setAddress_SM</text>
</g>
<!-- Node91 -->
<g id="node2" class="node">
<title>Node91</title>
<g id="a_node2"><a xlink:href="class_sign_verify_message_dialog.html#a792a3bd647958c8ae74286c5ab3cf205" target="_top" xlink:title="SignVerifyMessageDialog\l::on_addressBookButton\l_SM_clicked">
<polygon fill="#ffffff" stroke="#000000" points="184.3022,-84.5 184.3022,-122.5 314.2573,-122.5 314.2573,-84.5 184.3022,-84.5"/>
<text text-anchor="start" x="192.3022" y="-110.5" font-family="Helvetica,sans-Serif" font-size="10.00" fill="#000000">SignVerifyMessageDialog</text>
<text text-anchor="start" x="192.3022" y="-100.5" font-family="Helvetica,sans-Serif" font-size="10.00" fill="#000000">::on_addressBookButton</text>
<text text-anchor="middle" x="249.2798" y="-90.5" font-family="Helvetica,sans-Serif" font-size="10.00" fill="#000000">_SM_clicked</text>
</a>
</g>
</g>
<!-- Node90&#45;&gt;Node91 -->
<g id="edge1" class="edge">
<title>Node90&#45;&gt;Node91</title>
<path fill="none" stroke="#191970" d="M124.5812,-68.3169C143.5944,-73.6814 164.7287,-79.6443 184.1153,-85.1142"/>
<polygon fill="#191970" stroke="#191970" points="125.4271,-64.919 114.8524,-65.5719 123.5262,-71.656 125.4271,-64.919"/>
</g>
<!-- Node92 -->
<g id="node3" class="node">
<title>Node92</title>
<g id="a_node3"><a xlink:href="class_sign_verify_message_dialog.html#a4f09a92302537a095c34371a77de113e" target="_top" xlink:title="SignVerifyMessageDialog\l::on_pasteButton_SM_clicked">
<polygon fill="#ffffff" stroke="#000000" points="175.1274,-37.5 175.1274,-65.5 323.4321,-65.5 323.4321,-37.5 175.1274,-37.5"/>
<text text-anchor="start" x="183.1274" y="-53.5" font-family="Helvetica,sans-Serif" font-size="10.00" fill="#000000">SignVerifyMessageDialog</text>
<text text-anchor="middle" x="249.2798" y="-43.5" font-family="Helvetica,sans-Serif" font-size="10.00" fill="#000000">::on_pasteButton_SM_clicked</text>
</a>
</g>
</g>
<!-- Node90&#45;&gt;Node92 -->
<g id="edge2" class="edge">
<title>Node90&#45;&gt;Node92</title>
<path fill="none" stroke="#191970" d="M140.299,-51.5C151.6934,-51.5 163.4432,-51.5 174.8192,-51.5"/>
<polygon fill="#191970" stroke="#191970" points="139.9557,-48.0001 129.9556,-51.5 139.9556,-55.0001 139.9557,-48.0001"/>
</g>
<!-- Node93 -->
<g id="node4" class="node">
<title>Node93</title>
<g id="a_node4"><a xlink:href="class_wallet_view.html#a6443ddcb872a1743a61102a3dcd2d560" target="_top" xlink:title="Show Sign/Verify Message dialog and switch to sign message tab. ">
<polygon fill="#ffffff" stroke="#000000" points="165.9551,-.5 165.9551,-18.5 332.6045,-18.5 332.6045,-.5 165.9551,-.5"/>
<text text-anchor="middle" x="249.2798" y="-6.5" font-family="Helvetica,sans-Serif" font-size="10.00" fill="#000000">WalletView::gotoSignMessageTab</text>
</a>
</g>
</g>
<!-- Node90&#45;&gt;Node93 -->
<g id="edge3" class="edge">
<title>Node90&#45;&gt;Node93</title>
<path fill="none" stroke="#191970" d="M136.3917,-35.2257C161.299,-29.5496 188.3382,-23.3878 209.7079,-18.5179"/>
<polygon fill="#191970" stroke="#191970" points="135.5761,-31.8217 126.6038,-37.4562 137.1315,-38.6467 135.5761,-31.8217"/>
</g>
<!-- Node94 -->
<g id="node5" class="node">
<title>Node94</title>
<g id="a_node5"><a xlink:href="class_wallet_frame.html#a386b4f2e20af7d13a688662cd3f9e1fc" target="_top" xlink:title="Show Sign/Verify Message dialog and switch to sign message tab. ">
<polygon fill="#ffffff" stroke="#000000" points="368.6045,-.5 368.6045,-18.5 542.6465,-18.5 542.6465,-.5 368.6045,-.5"/>
<text text-anchor="middle" x="455.6255" y="-6.5" font-family="Helvetica,sans-Serif" font-size="10.00" fill="#000000">WalletFrame::gotoSignMessageTab</text>
</a>
</g>
</g>
<!-- Node93&#45;&gt;Node94 -->
<g id="edge4" class="edge">
<title>Node93&#45;&gt;Node94</title>
<path fill="none" stroke="#191970" d="M342.8723,-9.5C351.3304,-9.5 359.8751,-9.5 368.2764,-9.5"/>
<polygon fill="#191970" stroke="#191970" points="342.6137,-6.0001 332.6137,-9.5 342.6137,-13.0001 342.6137,-6.0001"/>
</g>
</g>
</svg>
