<?xml version="1.0" encoding="UTF-8" standalone="no"?>
<!DOCTYPE svg PUBLIC "-//W3C//DTD SVG 1.1//EN"
 "http://www.w3.org/Graphics/SVG/1.1/DTD/svg11.dtd">
<!-- Generated by graphviz version 2.40.1 (20161225.0304)
 -->
<!-- Title: BitcoinGUI::trayIconActivated Pages: 1 -->
<svg width="919pt" height="84pt"
 viewBox="0.00 0.00 919.50 84.00" xmlns="http://www.w3.org/2000/svg" xmlns:xlink="http://www.w3.org/1999/xlink">
<g id="graph0" class="graph" transform="scale(1 1) rotate(0) translate(4 80)">
<title>BitcoinGUI::trayIconActivated</title>
<polygon fill="#ffffff" stroke="transparent" points="-4,4 -4,-80 915.498,-80 915.498,4 -4,4"/>
<!-- Node475 -->
<g id="node1" class="node">
<title>Node475</title>
<polygon fill="#bfbfbf" stroke="#000000" points="0,-30.5 0,-48.5 146.0537,-48.5 146.0537,-30.5 0,-30.5"/>
<text text-anchor="middle" x="73.0269" y="-36.5" font-family="Helvetica,sans-Serif" font-size="10.00" fill="#000000">BitcoinGUI::trayIconActivated</text>
</g>
<!-- Node476 -->
<g id="node2" class="node">
<title>Node476</title>
<g id="a_node2"><a xlink:href="class_bitcoin_g_u_i.html#a6373ff0bd56c1c633f3a3dc2f34af884" target="_top" xlink:title="Create system tray menu (or setup the dock menu) ">
<polygon fill="#ffffff" stroke="#000000" points="182.0537,-30.5 182.0537,-48.5 342.7461,-48.5 342.7461,-30.5 182.0537,-30.5"/>
<text text-anchor="middle" x="262.3999" y="-36.5" font-family="Helvetica,sans-Serif" font-size="10.00" fill="#000000">BitcoinGUI::createTrayIconMenu</text>
</a>
</g>
</g>
<!-- Node475&#45;&gt;Node476 -->
<g id="edge1" class="edge">
<title>Node475&#45;&gt;Node476</title>
<path fill="none" stroke="#191970" d="M156.4489,-39.5C164.8796,-39.5 173.4313,-39.5 181.8313,-39.5"/>
<polygon fill="#191970" stroke="#191970" points="156.2435,-36.0001 146.2434,-39.5 156.2434,-43.0001 156.2435,-36.0001"/>
</g>
<!-- Node477 -->
<g id="node3" class="node">
<title>Node477</title>
<g id="a_node3"><a xlink:href="class_bitcoin_g_u_i.html#a99d71e1f8478ab937ce2522c8d3815e3" target="_top" xlink:title="Set the client model. ">
<polygon fill="#ffffff" stroke="#000000" points="378.7461,-30.5 378.7461,-48.5 514.2383,-48.5 514.2383,-30.5 378.7461,-30.5"/>
<text text-anchor="middle" x="446.4922" y="-36.5" font-family="Helvetica,sans-Serif" font-size="10.00" fill="#000000">BitcoinGUI::setClientModel</text>
</a>
</g>
</g>
<!-- Node476&#45;&gt;Node477 -->
<g id="edge2" class="edge">
<title>Node476&#45;&gt;Node477</title>
<path fill="none" stroke="#191970" d="M352.9627,-39.5C361.5758,-39.5 370.2063,-39.5 378.5523,-39.5"/>
<polygon fill="#191970" stroke="#191970" points="352.8777,-36.0001 342.8777,-39.5 352.8776,-43.0001 352.8777,-36.0001"/>
</g>
<!-- Node478 -->
<g id="node4" class="node">
<title>Node478</title>
<g id="a_node4"><a xlink:href="class_bitcoin_application.html#a37c560d4c04d14a6da151b82caf8888f" target="_top" xlink:title="Request core shutdown. ">
<polygon fill="#ffffff" stroke="#000000" points="812.1094,-47.5 812.1094,-75.5 911.498,-75.5 911.498,-47.5 812.1094,-47.5"/>
<text text-anchor="start" x="820.1094" y="-63.5" font-family="Helvetica,sans-Serif" font-size="10.00" fill="#000000">BitcoinApplication</text>
<text text-anchor="middle" x="861.8037" y="-53.5" font-family="Helvetica,sans-Serif" font-size="10.00" fill="#000000">::requestShutdown</text>
</a>
</g>
</g>
<!-- Node477&#45;&gt;Node478 -->
<g id="edge3" class="edge">
<title>Node477&#45;&gt;Node478</title>
<path fill="none" stroke="#191970" d="M524.646,-43.64C608.9488,-48.1057 740.6461,-55.082 811.9292,-58.858"/>
<polygon fill="#191970" stroke="#191970" points="524.7786,-40.1422 514.6074,-43.1082 524.4082,-47.1324 524.7786,-40.1422"/>
</g>
<!-- Node479 -->
<g id="node5" class="node">
<title>Node479</title>
<g id="a_node5"><a xlink:href="class_bitcoin_application.html#a5bcf1bf32a7508326e0dd630a59a887d" target="_top" xlink:title="BitcoinApplication\l::initializeResult">
<polygon fill="#ffffff" stroke="#000000" points="550.2383,-4.5 550.2383,-32.5 645.1738,-32.5 645.1738,-4.5 550.2383,-4.5"/>
<text text-anchor="start" x="558.2383" y="-20.5" font-family="Helvetica,sans-Serif" font-size="10.00" fill="#000000">BitcoinApplication</text>
<text text-anchor="middle" x="597.7061" y="-10.5" font-family="Helvetica,sans-Serif" font-size="10.00" fill="#000000">::initializeResult</text>
</a>
</g>
</g>
<!-- Node477&#45;&gt;Node479 -->
<g id="edge4" class="edge">
<title>Node477&#45;&gt;Node479</title>
<path fill="none" stroke="#191970" d="M521.5855,-29.0713C531.295,-27.7229 541.0159,-26.3729 550.1075,-25.1103"/>
<polygon fill="#191970" stroke="#191970" points="520.9215,-25.6299 511.498,-30.4722 521.8845,-32.5633 520.9215,-25.6299"/>
</g>
<!-- Node480 -->
<g id="node6" class="node">
<title>Node480</title>
<g id="a_node6"><a xlink:href="class_bitcoin_application.html#a61afce9356e452c53ad4c83f5ca19df8" target="_top" xlink:title="BitcoinApplication\l::startThread">
<polygon fill="#ffffff" stroke="#000000" points="681.1738,-4.5 681.1738,-32.5 776.1094,-32.5 776.1094,-4.5 681.1738,-4.5"/>
<text text-anchor="start" x="689.1738" y="-20.5" font-family="Helvetica,sans-Serif" font-size="10.00" fill="#000000">BitcoinApplication</text>
<text text-anchor="middle" x="728.6416" y="-10.5" font-family="Helvetica,sans-Serif" font-size="10.00" fill="#000000">::startThread</text>
</a>
</g>
</g>
<!-- Node479&#45;&gt;Node480 -->
<g id="edge5" class="edge">
<title>Node479&#45;&gt;Node480</title>
<path fill="none" stroke="#191970" d="M655.5283,-18.5C663.9766,-18.5 672.597,-18.5 680.8165,-18.5"/>
<polygon fill="#191970" stroke="#191970" points="655.3472,-15.0001 645.3472,-18.5 655.3472,-22.0001 655.3472,-15.0001"/>
</g>
<!-- Node480&#45;&gt;Node478 -->
<g id="edge7" class="edge">
<title>Node480&#45;&gt;Node478</title>
<path fill="none" stroke="#191970" d="M782.11,-35.7657C794.0622,-39.6253 806.6014,-43.6744 818.1035,-47.3886"/>
<polygon fill="#191970" stroke="#191970" points="782.8356,-32.3221 772.2439,-32.5798 780.6845,-38.9834 782.8356,-32.3221"/>
</g>
<!-- Node481 -->
<g id="node7" class="node">
<title>Node481</title>
<g id="a_node7"><a xlink:href="class_bitcoin_application.html#ade19c44b87b00b6b19b433caf4c22ba6" target="_top" xlink:title="Request core initialization. ">
<polygon fill="#ffffff" stroke="#000000" points="814.3359,-.5 814.3359,-28.5 909.2715,-28.5 909.2715,-.5 814.3359,-.5"/>
<text text-anchor="start" x="822.3359" y="-16.5" font-family="Helvetica,sans-Serif" font-size="10.00" fill="#000000">BitcoinApplication</text>
<text text-anchor="middle" x="861.8037" y="-6.5" font-family="Helvetica,sans-Serif" font-size="10.00" fill="#000000">::requestInitialize</text>
</a>
</g>
</g>
<!-- Node480&#45;&gt;Node481 -->
<g id="edge6" class="edge">
<title>Node480&#45;&gt;Node481</title>
<path fill="none" stroke="#191970" d="M786.5502,-16.7605C795.7108,-16.4853 805.0942,-16.2035 813.9907,-15.9362"/>
<polygon fill="#191970" stroke="#191970" points="786.2304,-13.2684 776.3401,-17.0672 786.4407,-20.2653 786.2304,-13.2684"/>
</g>
</g>
</svg>
