<?xml version="1.0" encoding="UTF-8" standalone="no"?>
<!DOCTYPE svg PUBLIC "-//W3C//DTD SVG 1.1//EN"
 "http://www.w3.org/Graphics/SVG/1.1/DTD/svg11.dtd">
<!-- Generated by graphviz version 2.40.1 (20161225.0304)
 -->
<!-- Title: BitcoinGUI::optionsClicked Pages: 1 -->
<svg width="1071pt" height="272pt"
 viewBox="0.00 0.00 1071.08 272.43" xmlns="http://www.w3.org/2000/svg" xmlns:xlink="http://www.w3.org/1999/xlink">
<g id="graph0" class="graph" transform="scale(1 1) rotate(0) translate(4 268.4293)">
<title>BitcoinGUI::optionsClicked</title>
<polygon fill="#ffffff" stroke="transparent" points="-4,4 -4,-268.4293 1067.0752,-268.4293 1067.0752,4 -4,4"/>
<!-- Node220 -->
<g id="node1" class="node">
<title>Node220</title>
<polygon fill="#bfbfbf" stroke="#000000" points="0,-155.5 0,-173.5 134.3838,-173.5 134.3838,-155.5 0,-155.5"/>
<text text-anchor="middle" x="67.1919" y="-161.5" font-family="Helvetica,sans-Serif" font-size="10.00" fill="#000000">BitcoinGUI::optionsClicked</text>
</g>
<!-- Node221 -->
<g id="node2" class="node">
<title>Node221</title>
<g id="a_node2"><a xlink:href="class_bitcoin_g_u_i.html#a203d9003ab4de369e35599aaaae6f17a" target="_top" xlink:title="Open the OptionsDialog on the specified tab index. ">
<polygon fill="#ffffff" stroke="#000000" points="170.3838,-150.5 170.3838,-178.5 324.792,-178.5 324.792,-150.5 170.3838,-150.5"/>
<text text-anchor="start" x="178.3838" y="-166.5" font-family="Helvetica,sans-Serif" font-size="10.00" fill="#000000">BitcoinGUI::openOptionsDialog</text>
<text text-anchor="middle" x="247.5879" y="-156.5" font-family="Helvetica,sans-Serif" font-size="10.00" fill="#000000">WithTab</text>
</a>
</g>
</g>
<!-- Node220&#45;&gt;Node221 -->
<g id="edge1" class="edge">
<title>Node220&#45;&gt;Node221</title>
<path fill="none" stroke="#191970" d="M134.6212,-164.5C142.9651,-164.5 151.587,-164.5 160.1753,-164.5"/>
<polygon fill="#191970" stroke="#191970" points="160.2231,-168.0001 170.223,-164.5 160.223,-161.0001 160.2231,-168.0001"/>
</g>
<!-- Node222 -->
<g id="node3" class="node">
<title>Node222</title>
<g id="a_node3"><a xlink:href="class_client_model.html#ae8da1e2eabfbbcc49a7eed821908bdb6" target="_top" xlink:title="ClientModel::getOptionsModel">
<polygon fill="#ffffff" stroke="#000000" points="360.792,-192.5 360.792,-210.5 510.752,-210.5 510.752,-192.5 360.792,-192.5"/>
<text text-anchor="middle" x="435.772" y="-198.5" font-family="Helvetica,sans-Serif" font-size="10.00" fill="#000000">ClientModel::getOptionsModel</text>
</a>
</g>
</g>
<!-- Node221&#45;&gt;Node222 -->
<g id="edge2" class="edge">
<title>Node221&#45;&gt;Node222</title>
<path fill="none" stroke="#191970" d="M319.0006,-178.5409C339.0956,-182.4919 360.6582,-186.7314 379.7172,-190.4787"/>
<polygon fill="#191970" stroke="#191970" points="379.2402,-193.9519 389.7276,-192.4469 380.5907,-187.0834 379.2402,-193.9519"/>
</g>
<!-- Node223 -->
<g id="node4" class="node">
<title>Node223</title>
<g id="a_node4"><a xlink:href="class_options_dialog.html#a29e0d6044e8d6ec6de789eb77b06e1bc" target="_top" xlink:title="OptionsDialog::setCurrentTab">
<polygon fill="#ffffff" stroke="#000000" points="362.1836,-155.5 362.1836,-173.5 509.3604,-173.5 509.3604,-155.5 362.1836,-155.5"/>
<text text-anchor="middle" x="435.772" y="-161.5" font-family="Helvetica,sans-Serif" font-size="10.00" fill="#000000">OptionsDialog::setCurrentTab</text>
</a>
</g>
</g>
<!-- Node221&#45;&gt;Node223 -->
<g id="edge3" class="edge">
<title>Node221&#45;&gt;Node223</title>
<path fill="none" stroke="#191970" d="M324.9442,-164.5C333.8565,-164.5 342.9757,-164.5 351.9681,-164.5"/>
<polygon fill="#191970" stroke="#191970" points="352.0491,-168.0001 362.049,-164.5 352.049,-161.0001 352.0491,-168.0001"/>
</g>
<!-- Node224 -->
<g id="node5" class="node">
<title>Node224</title>
<g id="a_node5"><a xlink:href="class_options_dialog.html#a11e902a52cb7472497d14e70cd9399d9" target="_top" xlink:title="OptionsDialog::setModel">
<polygon fill="#ffffff" stroke="#000000" points="373.2993,-118.5 373.2993,-136.5 498.2446,-136.5 498.2446,-118.5 373.2993,-118.5"/>
<text text-anchor="middle" x="435.772" y="-124.5" font-family="Helvetica,sans-Serif" font-size="10.00" fill="#000000">OptionsDialog::setModel</text>
</a>
</g>
</g>
<!-- Node221&#45;&gt;Node224 -->
<g id="edge4" class="edge">
<title>Node221&#45;&gt;Node224</title>
<path fill="none" stroke="#191970" d="M319.0006,-150.4591C339.0956,-146.5081 360.6582,-142.2686 379.7172,-138.5213"/>
<polygon fill="#191970" stroke="#191970" points="380.5907,-141.9166 389.7276,-136.5531 379.2402,-135.0481 380.5907,-141.9166"/>
</g>
<!-- Node225 -->
<g id="node6" class="node">
<title>Node225</title>
<g id="a_node6"><a xlink:href="class_options_model.html#a1e3f972be7ce33bc6ea3cab32d436a83" target="_top" xlink:title="OptionsModel::isRestartRequired">
<polygon fill="#ffffff" stroke="#000000" points="899.7852,-207.5 899.7852,-225.5 1063.0752,-225.5 1063.0752,-207.5 899.7852,-207.5"/>
<text text-anchor="middle" x="981.4302" y="-213.5" font-family="Helvetica,sans-Serif" font-size="10.00" fill="#000000">OptionsModel::isRestartRequired</text>
</a>
</g>
</g>
<!-- Node224&#45;&gt;Node225 -->
<g id="edge5" class="edge">
<title>Node224&#45;&gt;Node225</title>
<path fill="none" stroke="#191970" d="M493.53,-136.5584C499.7333,-139.1094 505.6371,-142.3604 510.752,-146.5 538.8714,-169.2582 516.0319,-200.3971 546.752,-219.5 674.3244,-298.8293 866.3244,-252.9737 945.42,-228.6518"/>
<polygon fill="#191970" stroke="#191970" points="946.8865,-231.8596 955.3748,-225.5193 944.7854,-225.1823 946.8865,-231.8596"/>
</g>
<!-- Node226 -->
<g id="node7" class="node">
<title>Node226</title>
<g id="a_node7"><a xlink:href="class_options_dialog.html#a866e74896ea7dacdc99b5e0af4fd5b38" target="_top" xlink:title="OptionsDialog::showRestart\lWarning">
<polygon fill="#ffffff" stroke="#000000" points="550.0991,-181.5 550.0991,-209.5 690.0444,-209.5 690.0444,-181.5 550.0991,-181.5"/>
<text text-anchor="start" x="558.0991" y="-197.5" font-family="Helvetica,sans-Serif" font-size="10.00" fill="#000000">OptionsDialog::showRestart</text>
<text text-anchor="middle" x="620.0718" y="-187.5" font-family="Helvetica,sans-Serif" font-size="10.00" fill="#000000">Warning</text>
</a>
</g>
</g>
<!-- Node224&#45;&gt;Node226 -->
<g id="edge6" class="edge">
<title>Node224&#45;&gt;Node226</title>
<path fill="none" stroke="#191970" d="M483.1139,-136.6066C492.4983,-139.2085 502.1128,-142.4663 510.752,-146.5 528.6352,-154.8499 529.1086,-163.6545 546.752,-172.5 550.5086,-174.3834 554.4509,-176.1515 558.4762,-177.8043"/>
<polygon fill="#191970" stroke="#191970" points="557.381,-181.1329 567.9711,-181.4511 559.8909,-174.5983 557.381,-181.1329"/>
</g>
<!-- Node228 -->
<g id="node9" class="node">
<title>Node228</title>
<g id="a_node9"><a xlink:href="class_options_model.html#ac5d555492fa4d6bba68d00e798efca50" target="_top" xlink:title="OptionsModel::getOverridden\lByCommandLine">
<polygon fill="#ffffff" stroke="#000000" points="546.7593,-134.5 546.7593,-162.5 693.3843,-162.5 693.3843,-134.5 546.7593,-134.5"/>
<text text-anchor="start" x="554.7593" y="-150.5" font-family="Helvetica,sans-Serif" font-size="10.00" fill="#000000">OptionsModel::getOverridden</text>
<text text-anchor="middle" x="620.0718" y="-140.5" font-family="Helvetica,sans-Serif" font-size="10.00" fill="#000000">ByCommandLine</text>
</a>
</g>
</g>
<!-- Node224&#45;&gt;Node228 -->
<g id="edge10" class="edge">
<title>Node224&#45;&gt;Node228</title>
<path fill="none" stroke="#191970" d="M498.4246,-134.6389C510.6111,-136.0275 523.567,-137.5038 536.3074,-138.9555"/>
<polygon fill="#191970" stroke="#191970" points="536.1279,-142.4576 546.4598,-140.1123 536.9204,-135.5026 536.1279,-142.4576"/>
</g>
<!-- Node229 -->
<g id="node10" class="node">
<title>Node229</title>
<g id="a_node10"><a xlink:href="class_options_dialog.html#a2088ec5bbb90ec27675f441e750e55b8" target="_top" xlink:title="OptionsDialog::setMapper">
<polygon fill="#ffffff" stroke="#000000" points="554.2642,-97.5 554.2642,-115.5 685.8794,-115.5 685.8794,-97.5 554.2642,-97.5"/>
<text text-anchor="middle" x="620.0718" y="-103.5" font-family="Helvetica,sans-Serif" font-size="10.00" fill="#000000">OptionsDialog::setMapper</text>
</a>
</g>
</g>
<!-- Node224&#45;&gt;Node229 -->
<g id="edge11" class="edge">
<title>Node224&#45;&gt;Node229</title>
<path fill="none" stroke="#191970" d="M498.4246,-120.3611C513.008,-118.6994 528.6932,-116.9121 543.7922,-115.1917"/>
<polygon fill="#191970" stroke="#191970" points="544.5916,-118.6233 554.131,-114.0136 543.7991,-111.6683 544.5916,-118.6233"/>
</g>
<!-- Node230 -->
<g id="node11" class="node">
<title>Node230</title>
<g id="a_node11"><a xlink:href="class_options_dialog.html#a44ffc21aae73b251333b75907aa8ff8c" target="_top" xlink:title="OptionsDialog::updateDefault\lProxyNets">
<polygon fill="#ffffff" stroke="#000000" points="546.752,-50.5 546.752,-78.5 693.3916,-78.5 693.3916,-50.5 546.752,-50.5"/>
<text text-anchor="start" x="554.752" y="-66.5" font-family="Helvetica,sans-Serif" font-size="10.00" fill="#000000">OptionsDialog::updateDefault</text>
<text text-anchor="middle" x="620.0718" y="-56.5" font-family="Helvetica,sans-Serif" font-size="10.00" fill="#000000">ProxyNets</text>
</a>
</g>
</g>
<!-- Node224&#45;&gt;Node230 -->
<g id="edge12" class="edge">
<title>Node224&#45;&gt;Node230</title>
<path fill="none" stroke="#191970" d="M461.2839,-118.3588C483.7431,-110.3536 517.3562,-98.4749 546.752,-88.5 553.2284,-86.3023 560.0383,-84.0265 566.791,-81.7912"/>
<polygon fill="#191970" stroke="#191970" points="568.1961,-85.0134 576.5979,-78.5589 566.0048,-78.3651 568.1961,-85.0134"/>
</g>
<!-- Node238 -->
<g id="node19" class="node">
<title>Node238</title>
<g id="a_node19"><a xlink:href="class_options_dialog.html#a5c34115da016060677582839740b7ba6" target="_top" xlink:title="OptionsDialog::togglePrune\lWarning">
<polygon fill="#ffffff" stroke="#000000" points="550.9219,-3.5 550.9219,-31.5 689.2217,-31.5 689.2217,-3.5 550.9219,-3.5"/>
<text text-anchor="start" x="558.9219" y="-19.5" font-family="Helvetica,sans-Serif" font-size="10.00" fill="#000000">OptionsDialog::togglePrune</text>
<text text-anchor="middle" x="620.0718" y="-9.5" font-family="Helvetica,sans-Serif" font-size="10.00" fill="#000000">Warning</text>
</a>
</g>
</g>
<!-- Node224&#45;&gt;Node238 -->
<g id="edge20" class="edge">
<title>Node224&#45;&gt;Node238</title>
<path fill="none" stroke="#191970" d="M445.077,-118.4444C463.2198,-101.2324 505.1947,-63.5488 546.752,-41.5 550.967,-39.2637 555.4287,-37.185 559.9869,-35.2634"/>
<polygon fill="#191970" stroke="#191970" points="561.4117,-38.4639 569.4306,-31.5394 558.8438,-31.9519 561.4117,-38.4639"/>
</g>
<!-- Node227 -->
<g id="node8" class="node">
<title>Node227</title>
<g id="a_node8"><a xlink:href="class_options_dialog.html#acd07b7058fd097bea5beb5cdd6fc1ad9" target="_top" xlink:title="OptionsDialog::clearStatus\lLabel">
<polygon fill="#ffffff" stroke="#000000" points="729.3916,-181.5 729.3916,-209.5 863.7852,-209.5 863.7852,-181.5 729.3916,-181.5"/>
<text text-anchor="start" x="737.3916" y="-197.5" font-family="Helvetica,sans-Serif" font-size="10.00" fill="#000000">OptionsDialog::clearStatus</text>
<text text-anchor="middle" x="796.5884" y="-187.5" font-family="Helvetica,sans-Serif" font-size="10.00" fill="#000000">Label</text>
</a>
</g>
</g>
<!-- Node226&#45;&gt;Node227 -->
<g id="edge7" class="edge">
<title>Node226&#45;&gt;Node227</title>
<path fill="none" stroke="#191970" d="M690.0893,-188.8798C699.6622,-188.7418 709.5343,-188.7138 719.2284,-188.796"/>
<polygon fill="#191970" stroke="#191970" points="719.2031,-192.2958 729.2462,-188.9214 719.2908,-185.2964 719.2031,-192.2958"/>
</g>
<!-- Node227&#45;&gt;Node225 -->
<g id="edge8" class="edge">
<title>Node227&#45;&gt;Node225</title>
<path fill="none" stroke="#191970" d="M863.8434,-203.1409C872.94,-204.1744 882.3888,-205.2478 891.7989,-206.3169"/>
<polygon fill="#191970" stroke="#191970" points="891.6451,-209.8219 901.9763,-207.4732 892.4353,-202.8666 891.6451,-209.8219"/>
</g>
<!-- Node227&#45;&gt;Node226 -->
<g id="edge9" class="edge">
<title>Node227&#45;&gt;Node226</title>
<path fill="none" stroke="#191970" d="M729.2462,-202.0786C719.7335,-202.2372 709.8768,-202.2857 700.1536,-202.2242"/>
<polygon fill="#191970" stroke="#191970" points="700.125,-198.7238 690.0893,-202.1202 700.0526,-205.7234 700.125,-198.7238"/>
</g>
<!-- Node231 -->
<g id="node12" class="node">
<title>Node231</title>
<g id="a_node12"><a xlink:href="class_options_model.html#ad5ae1bb7c44cc3d9ae91cbee7e3a4830" target="_top" xlink:title="OptionsModel::node">
<polygon fill="#ffffff" stroke="#000000" points="743.8374,-111.5 743.8374,-129.5 849.3394,-129.5 849.3394,-111.5 743.8374,-111.5"/>
<text text-anchor="middle" x="796.5884" y="-117.5" font-family="Helvetica,sans-Serif" font-size="10.00" fill="#000000">OptionsModel::node</text>
</a>
</g>
</g>
<!-- Node230&#45;&gt;Node231 -->
<g id="edge13" class="edge">
<title>Node230&#45;&gt;Node231</title>
<path fill="none" stroke="#191970" d="M664.4042,-78.5802C673.9963,-81.7469 684.0596,-85.1609 693.3916,-88.5 709.5553,-94.2836 713.076,-97.1599 729.3916,-102.5 735.9468,-104.6455 742.9213,-106.7295 749.802,-108.6727"/>
<polygon fill="#191970" stroke="#191970" points="749.1859,-112.1332 759.756,-111.4098 751.0418,-105.3837 749.1859,-112.1332"/>
</g>
<!-- Node232 -->
<g id="node13" class="node">
<title>Node232</title>
<g id="a_node13"><a xlink:href="classinterfaces_1_1_node.html#a62123e0abdccfc6dbc7ef77b52bb02f8" target="_top" xlink:title="Get proxy. ">
<polygon fill="#ffffff" stroke="#000000" points="729.6699,-74.5 729.6699,-92.5 863.5068,-92.5 863.5068,-74.5 729.6699,-74.5"/>
<text text-anchor="middle" x="796.5884" y="-80.5" font-family="Helvetica,sans-Serif" font-size="10.00" fill="#000000">interfaces::Node::getProxy</text>
</a>
</g>
</g>
<!-- Node230&#45;&gt;Node232 -->
<g id="edge14" class="edge">
<title>Node230&#45;&gt;Node232</title>
<path fill="none" stroke="#191970" d="M693.3972,-72.3926C701.9755,-73.316 710.7476,-74.2602 719.3766,-75.189"/>
<polygon fill="#191970" stroke="#191970" points="719.1032,-78.6797 729.4204,-76.2701 719.8524,-71.7199 719.1032,-78.6797"/>
</g>
<!-- Node233 -->
<g id="node14" class="node">
<title>Node233</title>
<g id="a_node14"><a xlink:href="class_c_net_addr.html#a0c8d9b5ed3824546ff4dccca3b28b073" target="_top" xlink:title="CNetAddr::ToStringIP">
<polygon fill="#ffffff" stroke="#000000" points="740.7905,-37.5 740.7905,-55.5 852.3862,-55.5 852.3862,-37.5 740.7905,-37.5"/>
<text text-anchor="middle" x="796.5884" y="-43.5" font-family="Helvetica,sans-Serif" font-size="10.00" fill="#000000">CNetAddr::ToStringIP</text>
</a>
</g>
</g>
<!-- Node230&#45;&gt;Node233 -->
<g id="edge15" class="edge">
<title>Node230&#45;&gt;Node233</title>
<path fill="none" stroke="#191970" d="M693.3972,-57.0228C705.7555,-55.7625 718.5161,-54.4613 730.6715,-53.2218"/>
<polygon fill="#191970" stroke="#191970" points="731.1242,-56.6938 740.7175,-52.1973 730.414,-49.73 731.1242,-56.6938"/>
</g>
<!-- Node237 -->
<g id="node18" class="node">
<title>Node237</title>
<g id="a_node18"><a xlink:href="class_c_service.html#a95d6f24b6a613fca24734ba4e38ef3dc" target="_top" xlink:title="CService::ToStringPort">
<polygon fill="#ffffff" stroke="#000000" points="738.0146,-.5 738.0146,-18.5 855.1621,-18.5 855.1621,-.5 738.0146,-.5"/>
<text text-anchor="middle" x="796.5884" y="-6.5" font-family="Helvetica,sans-Serif" font-size="10.00" fill="#000000">CService::ToStringPort</text>
</a>
</g>
</g>
<!-- Node230&#45;&gt;Node237 -->
<g id="edge19" class="edge">
<title>Node230&#45;&gt;Node237</title>
<path fill="none" stroke="#191970" d="M665.9298,-50.4445C675.0511,-47.556 684.5427,-44.4841 693.3916,-41.5 709.5109,-36.064 713.1967,-33.7064 729.3916,-28.5 737.02,-26.0476 745.1884,-23.5951 753.1097,-21.3059"/>
<polygon fill="#191970" stroke="#191970" points="754.2911,-24.6088 762.9517,-18.506 752.3757,-17.8759 754.2911,-24.6088"/>
</g>
<!-- Node234 -->
<g id="node15" class="node">
<title>Node234</title>
<g id="a_node15"><a xlink:href="class_c_net_addr.html#a4db37b4997ff3b8c57959f2aa915a9a3" target="_top" xlink:title="CNetAddr::IsTor">
<polygon fill="#ffffff" stroke="#000000" points="937.8638,-74.5 937.8638,-92.5 1024.9966,-92.5 1024.9966,-74.5 937.8638,-74.5"/>
<text text-anchor="middle" x="981.4302" y="-80.5" font-family="Helvetica,sans-Serif" font-size="10.00" fill="#000000">CNetAddr::IsTor</text>
</a>
</g>
</g>
<!-- Node233&#45;&gt;Node234 -->
<g id="edge16" class="edge">
<title>Node233&#45;&gt;Node234</title>
<path fill="none" stroke="#191970" d="M841.8058,-55.5512C867.6785,-60.7302 900.2977,-67.2596 927.5002,-72.7048"/>
<polygon fill="#191970" stroke="#191970" points="927.1428,-76.2026 937.6353,-74.7335 928.5168,-69.3388 927.1428,-76.2026"/>
</g>
<!-- Node235 -->
<g id="node16" class="node">
<title>Node235</title>
<g id="a_node16"><a xlink:href="utilstrencodings_8cpp.html#aed1944a78afffe9d5f3129e656dc8aa6" target="_top" xlink:title="EncodeBase32">
<polygon fill="#ffffff" stroke="#000000" points="939.5142,-37.5 939.5142,-55.5 1023.3462,-55.5 1023.3462,-37.5 939.5142,-37.5"/>
<text text-anchor="middle" x="981.4302" y="-43.5" font-family="Helvetica,sans-Serif" font-size="10.00" fill="#000000">EncodeBase32</text>
</a>
</g>
</g>
<!-- Node233&#45;&gt;Node235 -->
<g id="edge17" class="edge">
<title>Node233&#45;&gt;Node235</title>
<path fill="none" stroke="#191970" d="M852.5486,-46.5C876.8919,-46.5 905.2544,-46.5 929.1653,-46.5"/>
<polygon fill="#191970" stroke="#191970" points="929.4606,-50.0001 939.4605,-46.5 929.4605,-43.0001 929.4606,-50.0001"/>
</g>
<!-- Node236 -->
<g id="node17" class="node">
<title>Node236</title>
<g id="a_node17"><a xlink:href="class_c_net_addr.html#ab0848a1ba29b6f72fcc3b6ba8d7c8fbb" target="_top" xlink:title="CNetAddr::IsInternal">
<polygon fill="#ffffff" stroke="#000000" points="928.1323,-.5 928.1323,-18.5 1034.728,-18.5 1034.728,-.5 928.1323,-.5"/>
<text text-anchor="middle" x="981.4302" y="-6.5" font-family="Helvetica,sans-Serif" font-size="10.00" fill="#000000">CNetAddr::IsInternal</text>
</a>
</g>
</g>
<!-- Node233&#45;&gt;Node236 -->
<g id="edge18" class="edge">
<title>Node233&#45;&gt;Node236</title>
<path fill="none" stroke="#191970" d="M841.8058,-37.4488C867.2994,-32.3457 899.3432,-25.9314 926.3011,-20.5353"/>
<polygon fill="#191970" stroke="#191970" points="927.2411,-23.9166 936.3596,-18.5218 925.8671,-17.0528 927.2411,-23.9166"/>
</g>
</g>
</svg>
