<?xml version="1.0" encoding="UTF-8" standalone="no"?>
<!DOCTYPE svg PUBLIC "-//W3C//DTD SVG 1.1//EN"
 "http://www.w3.org/Graphics/SVG/1.1/DTD/svg11.dtd">
<!-- Generated by graphviz version 2.40.1 (20161225.0304)
 -->
<!-- Title: interfaces::Node::startShutdown Pages: 1 -->
<svg width="335pt" height="111pt"
 viewBox="0.00 0.00 335.03 111.00" xmlns="http://www.w3.org/2000/svg" xmlns:xlink="http://www.w3.org/1999/xlink">
<g id="graph0" class="graph" transform="scale(1 1) rotate(0) translate(4 107)">
<title>interfaces::Node::startShutdown</title>
<polygon fill="#ffffff" stroke="transparent" points="-4,4 -4,-107 331.0332,-107 331.0332,4 -4,4"/>
<!-- Node326 -->
<g id="node1" class="node">
<title>Node326</title>
<polygon fill="#bfbfbf" stroke="#000000" points="0,-37.5 0,-55.5 158.2998,-55.5 158.2998,-37.5 0,-37.5"/>
<text text-anchor="middle" x="79.1499" y="-43.5" font-family="Helvetica,sans-Serif" font-size="10.00" fill="#000000">interfaces::Node::startShutdown</text>
</g>
<!-- Node327 -->
<g id="node2" class="node">
<title>Node327</title>
<g id="a_node2"><a xlink:href="class_bitcoin_application.html#a37c560d4c04d14a6da151b82caf8888f" target="_top" xlink:title="Request core shutdown. ">
<polygon fill="#ffffff" stroke="#000000" points="210.9722,-74.5 210.9722,-102.5 310.3608,-102.5 310.3608,-74.5 210.9722,-74.5"/>
<text text-anchor="start" x="218.9722" y="-90.5" font-family="Helvetica,sans-Serif" font-size="10.00" fill="#000000">BitcoinApplication</text>
<text text-anchor="middle" x="260.6665" y="-80.5" font-family="Helvetica,sans-Serif" font-size="10.00" fill="#000000">::requestShutdown</text>
</a>
</g>
</g>
<!-- Node326&#45;&gt;Node327 -->
<g id="edge1" class="edge">
<title>Node326&#45;&gt;Node327</title>
<path fill="none" stroke="#191970" d="M127.9667,-57.7954C153.5943,-63.7252 184.9414,-70.9784 210.7323,-76.946"/>
<polygon fill="#191970" stroke="#191970" points="128.6214,-54.3545 118.0898,-55.5101 127.0433,-61.1743 128.6214,-54.3545"/>
</g>
<!-- Node328 -->
<g id="node3" class="node">
<title>Node328</title>
<g id="a_node3"><a xlink:href="class_splash_screen.html#adf416207e2b2c8bc92c7f339a30ac63b" target="_top" xlink:title="SplashScreen::eventFilter">
<polygon fill="#ffffff" stroke="#000000" points="195.4155,-37.5 195.4155,-55.5 325.9175,-55.5 325.9175,-37.5 195.4155,-37.5"/>
<text text-anchor="middle" x="260.6665" y="-43.5" font-family="Helvetica,sans-Serif" font-size="10.00" fill="#000000">SplashScreen::eventFilter</text>
</a>
</g>
</g>
<!-- Node326&#45;&gt;Node328 -->
<g id="edge2" class="edge">
<title>Node326&#45;&gt;Node328</title>
<path fill="none" stroke="#191970" d="M168.6415,-46.5C177.6455,-46.5 186.6661,-46.5 195.3487,-46.5"/>
<polygon fill="#191970" stroke="#191970" points="168.5017,-43.0001 158.5017,-46.5 168.5016,-50.0001 168.5017,-43.0001"/>
</g>
<!-- Node329 -->
<g id="node4" class="node">
<title>Node329</title>
<g id="a_node4"><a xlink:href="class_splash_screen.html#af2b8ee5e860e5584621eb6224ce7c959" target="_top" xlink:title="SplashScreen::closeEvent">
<polygon fill="#ffffff" stroke="#000000" points="194.2998,-.5 194.2998,-18.5 327.0332,-18.5 327.0332,-.5 194.2998,-.5"/>
<text text-anchor="middle" x="260.6665" y="-6.5" font-family="Helvetica,sans-Serif" font-size="10.00" fill="#000000">SplashScreen::closeEvent</text>
</a>
</g>
</g>
<!-- Node326&#45;&gt;Node329 -->
<g id="edge3" class="edge">
<title>Node326&#45;&gt;Node329</title>
<path fill="none" stroke="#191970" d="M133.4399,-35.4336C159.9319,-30.0335 191.3965,-23.6199 216.4068,-18.5218"/>
<polygon fill="#191970" stroke="#191970" points="132.6533,-32.0219 123.5539,-37.4488 134.0515,-38.8809 132.6533,-32.0219"/>
</g>
</g>
</svg>
