<?xml version="1.0" encoding="UTF-8" standalone="no"?>
<!DOCTYPE svg PUBLIC "-//W3C//DTD SVG 1.1//EN"
 "http://www.w3.org/Graphics/SVG/1.1/DTD/svg11.dtd">
<!-- Generated by graphviz version 2.40.1 (20161225.0304)
 -->
<!-- Title: BitcoinGUI::setNumConnections Pages: 1 -->
<svg width="736pt" height="84pt"
 viewBox="0.00 0.00 736.15 84.00" xmlns="http://www.w3.org/2000/svg" xmlns:xlink="http://www.w3.org/1999/xlink">
<g id="graph0" class="graph" transform="scale(1 1) rotate(0) translate(4 80)">
<title>BitcoinGUI::setNumConnections</title>
<polygon fill="#ffffff" stroke="transparent" points="-4,4 -4,-80 732.1455,-80 732.1455,4 -4,4"/>
<!-- Node391 -->
<g id="node1" class="node">
<title>Node391</title>
<polygon fill="#bfbfbf" stroke="#000000" points="0,-30.5 0,-48.5 159.3936,-48.5 159.3936,-30.5 0,-30.5"/>
<text text-anchor="middle" x="79.6968" y="-36.5" font-family="Helvetica,sans-Serif" font-size="10.00" fill="#000000">BitcoinGUI::setNumConnections</text>
</g>
<!-- Node392 -->
<g id="node2" class="node">
<title>Node392</title>
<g id="a_node2"><a xlink:href="class_bitcoin_g_u_i.html#a99d71e1f8478ab937ce2522c8d3815e3" target="_top" xlink:title="Set the client model. ">
<polygon fill="#ffffff" stroke="#000000" points="195.3936,-30.5 195.3936,-48.5 330.8857,-48.5 330.8857,-30.5 195.3936,-30.5"/>
<text text-anchor="middle" x="263.1396" y="-36.5" font-family="Helvetica,sans-Serif" font-size="10.00" fill="#000000">BitcoinGUI::setClientModel</text>
</a>
</g>
</g>
<!-- Node391&#45;&gt;Node392 -->
<g id="edge1" class="edge">
<title>Node391&#45;&gt;Node392</title>
<path fill="none" stroke="#191970" d="M169.6896,-39.5C178.2874,-39.5 186.9055,-39.5 195.2416,-39.5"/>
<polygon fill="#191970" stroke="#191970" points="169.6239,-36.0001 159.6239,-39.5 169.6238,-43.0001 169.6239,-36.0001"/>
</g>
<!-- Node393 -->
<g id="node3" class="node">
<title>Node393</title>
<g id="a_node3"><a xlink:href="class_bitcoin_application.html#a37c560d4c04d14a6da151b82caf8888f" target="_top" xlink:title="Request core shutdown. ">
<polygon fill="#ffffff" stroke="#000000" points="628.7568,-47.5 628.7568,-75.5 728.1455,-75.5 728.1455,-47.5 628.7568,-47.5"/>
<text text-anchor="start" x="636.7568" y="-63.5" font-family="Helvetica,sans-Serif" font-size="10.00" fill="#000000">BitcoinApplication</text>
<text text-anchor="middle" x="678.4512" y="-53.5" font-family="Helvetica,sans-Serif" font-size="10.00" fill="#000000">::requestShutdown</text>
</a>
</g>
</g>
<!-- Node392&#45;&gt;Node393 -->
<g id="edge2" class="edge">
<title>Node392&#45;&gt;Node393</title>
<path fill="none" stroke="#191970" d="M341.2935,-43.64C425.5963,-48.1057 557.2935,-55.082 628.5766,-58.858"/>
<polygon fill="#191970" stroke="#191970" points="341.426,-40.1422 331.2548,-43.1082 341.0557,-47.1324 341.426,-40.1422"/>
</g>
<!-- Node394 -->
<g id="node4" class="node">
<title>Node394</title>
<g id="a_node4"><a xlink:href="class_bitcoin_application.html#a5bcf1bf32a7508326e0dd630a59a887d" target="_top" xlink:title="BitcoinApplication\l::initializeResult">
<polygon fill="#ffffff" stroke="#000000" points="366.8857,-4.5 366.8857,-32.5 461.8213,-32.5 461.8213,-4.5 366.8857,-4.5"/>
<text text-anchor="start" x="374.8857" y="-20.5" font-family="Helvetica,sans-Serif" font-size="10.00" fill="#000000">BitcoinApplication</text>
<text text-anchor="middle" x="414.3535" y="-10.5" font-family="Helvetica,sans-Serif" font-size="10.00" fill="#000000">::initializeResult</text>
</a>
</g>
</g>
<!-- Node392&#45;&gt;Node394 -->
<g id="edge3" class="edge">
<title>Node392&#45;&gt;Node394</title>
<path fill="none" stroke="#191970" d="M338.2329,-29.0713C347.9425,-27.7229 357.6634,-26.3729 366.7549,-25.1103"/>
<polygon fill="#191970" stroke="#191970" points="337.569,-25.6299 328.1455,-30.4722 338.5319,-32.5633 337.569,-25.6299"/>
</g>
<!-- Node395 -->
<g id="node5" class="node">
<title>Node395</title>
<g id="a_node5"><a xlink:href="class_bitcoin_application.html#a61afce9356e452c53ad4c83f5ca19df8" target="_top" xlink:title="BitcoinApplication\l::startThread">
<polygon fill="#ffffff" stroke="#000000" points="497.8213,-4.5 497.8213,-32.5 592.7568,-32.5 592.7568,-4.5 497.8213,-4.5"/>
<text text-anchor="start" x="505.8213" y="-20.5" font-family="Helvetica,sans-Serif" font-size="10.00" fill="#000000">BitcoinApplication</text>
<text text-anchor="middle" x="545.2891" y="-10.5" font-family="Helvetica,sans-Serif" font-size="10.00" fill="#000000">::startThread</text>
</a>
</g>
</g>
<!-- Node394&#45;&gt;Node395 -->
<g id="edge4" class="edge">
<title>Node394&#45;&gt;Node395</title>
<path fill="none" stroke="#191970" d="M472.1757,-18.5C480.624,-18.5 489.2445,-18.5 497.464,-18.5"/>
<polygon fill="#191970" stroke="#191970" points="471.9947,-15.0001 461.9946,-18.5 471.9946,-22.0001 471.9947,-15.0001"/>
</g>
<!-- Node395&#45;&gt;Node393 -->
<g id="edge6" class="edge">
<title>Node395&#45;&gt;Node393</title>
<path fill="none" stroke="#191970" d="M598.7575,-35.7657C610.7097,-39.6253 623.2489,-43.6744 634.751,-47.3886"/>
<polygon fill="#191970" stroke="#191970" points="599.483,-32.3221 588.8913,-32.5798 597.3319,-38.9834 599.483,-32.3221"/>
</g>
<!-- Node396 -->
<g id="node6" class="node">
<title>Node396</title>
<g id="a_node6"><a xlink:href="class_bitcoin_application.html#ade19c44b87b00b6b19b433caf4c22ba6" target="_top" xlink:title="Request core initialization. ">
<polygon fill="#ffffff" stroke="#000000" points="630.9834,-.5 630.9834,-28.5 725.9189,-28.5 725.9189,-.5 630.9834,-.5"/>
<text text-anchor="start" x="638.9834" y="-16.5" font-family="Helvetica,sans-Serif" font-size="10.00" fill="#000000">BitcoinApplication</text>
<text text-anchor="middle" x="678.4512" y="-6.5" font-family="Helvetica,sans-Serif" font-size="10.00" fill="#000000">::requestInitialize</text>
</a>
</g>
</g>
<!-- Node395&#45;&gt;Node396 -->
<g id="edge5" class="edge">
<title>Node395&#45;&gt;Node396</title>
<path fill="none" stroke="#191970" d="M603.1976,-16.7605C612.3582,-16.4853 621.7416,-16.2035 630.6382,-15.9362"/>
<polygon fill="#191970" stroke="#191970" points="602.8779,-13.2684 592.9875,-17.0672 603.0881,-20.2653 602.8779,-13.2684"/>
</g>
</g>
</svg>
