<?xml version="1.0" encoding="UTF-8" standalone="no"?>
<!DOCTYPE svg PUBLIC "-//W3C//DTD SVG 1.1//EN"
 "http://www.w3.org/Graphics/SVG/1.1/DTD/svg11.dtd">
<!-- Generated by graphviz version 2.40.1 (20161225.0304)
 -->
<!-- Title: interfaces::Node::getMempoolSize Pages: 1 -->
<svg width="506pt" height="27pt"
 viewBox="0.00 0.00 506.15 27.00" xmlns="http://www.w3.org/2000/svg" xmlns:xlink="http://www.w3.org/1999/xlink">
<g id="graph0" class="graph" transform="scale(1 1) rotate(0) translate(4 23)">
<title>interfaces::Node::getMempoolSize</title>
<polygon fill="#ffffff" stroke="transparent" points="-4,4 -4,-23 502.1494,-23 502.1494,4 -4,4"/>
<!-- Node113 -->
<g id="node1" class="node">
<title>Node113</title>
<polygon fill="#bfbfbf" stroke="#000000" points="0,-.5 0,-18.5 168.8564,-18.5 168.8564,-.5 0,-.5"/>
<text text-anchor="middle" x="84.4282" y="-6.5" font-family="Helvetica,sans-Serif" font-size="10.00" fill="#000000">interfaces::Node::getMempoolSize</text>
</g>
<!-- Node114 -->
<g id="node2" class="node">
<title>Node114</title>
<g id="a_node2"><a xlink:href="class_client_model.html#a82d434ebd032c00736e043ce2d36ac5e" target="_top" xlink:title="ClientModel::updateTimer">
<polygon fill="#ffffff" stroke="#000000" points="204.8564,-.5 204.8564,-18.5 334.9873,-18.5 334.9873,-.5 204.8564,-.5"/>
<text text-anchor="middle" x="269.9219" y="-6.5" font-family="Helvetica,sans-Serif" font-size="10.00" fill="#000000">ClientModel::updateTimer</text>
</a>
</g>
</g>
<!-- Node113&#45;&gt;Node114 -->
<g id="edge1" class="edge">
<title>Node113&#45;&gt;Node114</title>
<path fill="none" stroke="#191970" d="M179.1357,-9.5C187.7482,-9.5 196.3382,-9.5 204.6083,-9.5"/>
<polygon fill="#191970" stroke="#191970" points="179.0328,-6.0001 169.0328,-9.5 179.0328,-13.0001 179.0328,-6.0001"/>
</g>
<!-- Node115 -->
<g id="node3" class="node">
<title>Node115</title>
<g id="a_node3"><a xlink:href="class_client_model.html#a7b9a354e43bbccbb07a45ff93bc95b70" target="_top" xlink:title="ClientModel::ClientModel">
<polygon fill="#ffffff" stroke="#000000" points="370.9873,-.5 370.9873,-18.5 498.1494,-18.5 498.1494,-.5 370.9873,-.5"/>
<text text-anchor="middle" x="434.5684" y="-6.5" font-family="Helvetica,sans-Serif" font-size="10.00" fill="#000000">ClientModel::ClientModel</text>
</a>
</g>
</g>
<!-- Node114&#45;&gt;Node115 -->
<g id="edge2" class="edge">
<title>Node114&#45;&gt;Node115</title>
<path fill="none" stroke="#191970" d="M345.0239,-9.5C353.6284,-9.5 362.3389,-9.5 370.7755,-9.5"/>
<polygon fill="#191970" stroke="#191970" points="344.9946,-6.0001 334.9945,-9.5 344.9945,-13.0001 344.9946,-6.0001"/>
</g>
</g>
</svg>
