<?xml version="1.0" encoding="UTF-8" standalone="no"?>
<!DOCTYPE svg PUBLIC "-//W3C//DTD SVG 1.1//EN"
 "http://www.w3.org/Graphics/SVG/1.1/DTD/svg11.dtd">
<!-- Generated by graphviz version 2.40.1 (20161225.0304)
 -->
<!-- Title: CAddrMan::Good_ Pages: 1 -->
<svg width="1370pt" height="310pt"
 viewBox="0.00 0.00 1370.19 310.00" xmlns="http://www.w3.org/2000/svg" xmlns:xlink="http://www.w3.org/1999/xlink">
<g id="graph0" class="graph" transform="scale(1 1) rotate(0) translate(4 306)">
<title>CAddrMan::Good_</title>
<polygon fill="#ffffff" stroke="transparent" points="-4,4 -4,-306 1366.1934,-306 1366.1934,4 -4,4"/>
<!-- Node303 -->
<g id="node1" class="node">
<title>Node303</title>
<polygon fill="#bfbfbf" stroke="#000000" points="0,-227.5 0,-245.5 99.3789,-245.5 99.3789,-227.5 0,-227.5"/>
<text text-anchor="middle" x="49.6895" y="-233.5" font-family="Helvetica,sans-Serif" font-size="10.00" fill="#000000">CAddrMan::Good_</text>
</g>
<!-- Node304 -->
<g id="node2" class="node">
<title>Node304</title>
<g id="a_node2"><a xlink:href="class_c_addr_man.html#a7566e599fd71aab7214d9ef1aeaa5514" target="_top" xlink:title="Find an entry. ">
<polygon fill="#ffffff" stroke="#000000" points="165.3984,-283.5 165.3984,-301.5 254.2061,-301.5 254.2061,-283.5 165.3984,-283.5"/>
<text text-anchor="middle" x="209.8022" y="-289.5" font-family="Helvetica,sans-Serif" font-size="10.00" fill="#000000">CAddrMan::Find</text>
</a>
</g>
</g>
<!-- Node303&#45;&gt;Node304 -->
<g id="edge1" class="edge">
<title>Node303&#45;&gt;Node304</title>
<path fill="none" stroke="#191970" d="M67.6958,-245.6284C84.7787,-254.0119 111.3399,-266.3371 135.3789,-274.5 142.2154,-276.8215 149.5009,-278.9681 156.7373,-280.9096"/>
<polygon fill="#191970" stroke="#191970" points="155.9711,-284.3264 166.5277,-283.4271 157.7144,-277.5469 155.9711,-284.3264"/>
</g>
<!-- Node305 -->
<g id="node3" class="node">
<title>Node305</title>
<g id="a_node3"><a xlink:href="class_c_addr_man.html#a4bf12611bd89c5e524396e50bf8f3846" target="_top" xlink:title="Wraps GetRandInt to allow tests to override RandomInt and make it determinismistic. ">
<polygon fill="#ffffff" stroke="#000000" points="150.667,-246.5 150.667,-264.5 268.9375,-264.5 268.9375,-246.5 150.667,-246.5"/>
<text text-anchor="middle" x="209.8022" y="-252.5" font-family="Helvetica,sans-Serif" font-size="10.00" fill="#000000">CAddrMan::RandomInt</text>
</a>
</g>
</g>
<!-- Node303&#45;&gt;Node305 -->
<g id="edge2" class="edge">
<title>Node303&#45;&gt;Node305</title>
<path fill="none" stroke="#191970" d="M99.4725,-242.4076C112.4736,-243.9504 126.724,-245.6414 140.5377,-247.2806"/>
<polygon fill="#191970" stroke="#191970" points="140.1522,-250.7594 150.495,-248.4622 140.9771,-243.8081 140.1522,-250.7594"/>
</g>
<!-- Node309 -->
<g id="node7" class="node">
<title>Node309</title>
<g id="a_node7"><a xlink:href="class_c_addr_info.html#a3a133ffb3fbf67cbeb5f4bc683fa9126" target="_top" xlink:title="Calculate in which position of a bucket to store this entry. ">
<polygon fill="#ffffff" stroke="#000000" points="135.3789,-209.5 135.3789,-227.5 284.2256,-227.5 284.2256,-209.5 135.3789,-209.5"/>
<text text-anchor="middle" x="209.8022" y="-215.5" font-family="Helvetica,sans-Serif" font-size="10.00" fill="#000000">CAddrInfo::GetBucketPosition</text>
</a>
</g>
</g>
<!-- Node303&#45;&gt;Node309 -->
<g id="edge6" class="edge">
<title>Node303&#45;&gt;Node309</title>
<path fill="none" stroke="#191970" d="M99.4725,-230.9034C107.7431,-229.9736 116.5192,-228.987 125.3668,-227.9923"/>
<polygon fill="#191970" stroke="#191970" points="125.817,-231.4638 135.3634,-226.8685 125.0349,-224.5076 125.817,-231.4638"/>
</g>
<!-- Node328 -->
<g id="node26" class="node">
<title>Node328</title>
<g id="a_node26"><a xlink:href="class_c_addr_info.html#a11e2712f11c0d92c75976e90f2c5003e" target="_top" xlink:title="Calculate in which &quot;tried&quot; bucket this entry belongs. ">
<polygon fill="#ffffff" stroke="#000000" points="141.9585,-172.5 141.9585,-190.5 277.646,-190.5 277.646,-172.5 141.9585,-172.5"/>
<text text-anchor="middle" x="209.8022" y="-178.5" font-family="Helvetica,sans-Serif" font-size="10.00" fill="#000000">CAddrInfo::GetTriedBucket</text>
</a>
</g>
</g>
<!-- Node303&#45;&gt;Node328 -->
<g id="edge30" class="edge">
<title>Node303&#45;&gt;Node328</title>
<path fill="none" stroke="#191970" d="M69.1128,-227.3675C86.2777,-219.5328 112.1268,-208.3048 135.3789,-200.5 143.1982,-197.8754 151.5834,-195.4099 159.8048,-193.1799"/>
<polygon fill="#191970" stroke="#191970" points="160.919,-196.5061 169.7027,-190.5817 159.1417,-189.7354 160.919,-196.5061"/>
</g>
<!-- Node306 -->
<g id="node4" class="node">
<title>Node306</title>
<g id="a_node4"><a xlink:href="random_8cpp.html#a0e44e088732172da6662db2d5e37d4b2" target="_top" xlink:title="GetRandInt">
<polygon fill="#ffffff" stroke="#000000" points="341.3413,-247.5 341.3413,-265.5 408.4839,-265.5 408.4839,-247.5 341.3413,-247.5"/>
<text text-anchor="middle" x="374.9126" y="-253.5" font-family="Helvetica,sans-Serif" font-size="10.00" fill="#000000">GetRandInt</text>
</a>
</g>
</g>
<!-- Node305&#45;&gt;Node306 -->
<g id="edge3" class="edge">
<title>Node305&#45;&gt;Node306</title>
<path fill="none" stroke="#191970" d="M268.9445,-255.8582C289.4,-255.9821 311.9461,-256.1186 330.9643,-256.2338"/>
<polygon fill="#191970" stroke="#191970" points="331.1102,-259.7347 341.1313,-256.2954 331.1527,-252.7348 331.1102,-259.7347"/>
</g>
<!-- Node307 -->
<g id="node5" class="node">
<title>Node307</title>
<g id="a_node5"><a xlink:href="random_8cpp.html#a27d9149d522b1fa87d84e5e9ca902aef" target="_top" xlink:title="GetRand">
<polygon fill="#ffffff" stroke="#000000" points="490.8853,-248.5 490.8853,-266.5 546.9097,-266.5 546.9097,-248.5 490.8853,-248.5"/>
<text text-anchor="middle" x="518.8975" y="-254.5" font-family="Helvetica,sans-Serif" font-size="10.00" fill="#000000">GetRand</text>
</a>
</g>
</g>
<!-- Node306&#45;&gt;Node307 -->
<g id="edge4" class="edge">
<title>Node306&#45;&gt;Node307</title>
<path fill="none" stroke="#191970" d="M408.6707,-256.7345C430.1975,-256.884 458.1495,-257.0781 480.5187,-257.2335"/>
<polygon fill="#191970" stroke="#191970" points="480.6547,-260.7344 490.6788,-257.304 480.7034,-253.7346 480.6547,-260.7344"/>
</g>
<!-- Node308 -->
<g id="node6" class="node">
<title>Node308</title>
<g id="a_node6"><a xlink:href="random_8cpp.html#ada0c29949c4d1ac0cc027d93c4771423" target="_top" xlink:title="Functions to gather random data via the OpenSSL PRNG. ">
<polygon fill="#ffffff" stroke="#000000" points="618.4736,-248.5 618.4736,-266.5 699.5078,-266.5 699.5078,-248.5 618.4736,-248.5"/>
<text text-anchor="middle" x="658.9907" y="-254.5" font-family="Helvetica,sans-Serif" font-size="10.00" fill="#000000">GetRandBytes</text>
</a>
</g>
</g>
<!-- Node307&#45;&gt;Node308 -->
<g id="edge5" class="edge">
<title>Node307&#45;&gt;Node308</title>
<path fill="none" stroke="#191970" d="M546.9107,-257.5C564.3977,-257.5 587.4309,-257.5 608.0663,-257.5"/>
<polygon fill="#191970" stroke="#191970" points="608.2818,-261.0001 618.2818,-257.5 608.2817,-254.0001 608.2818,-261.0001"/>
</g>
<!-- Node310 -->
<g id="node8" class="node">
<title>Node310</title>
<g id="a_node8"><a xlink:href="class_c_service.html#af21ea7db4318330b337c8bfdcc55aff0" target="_top" xlink:title="CService::GetKey">
<polygon fill="#ffffff" stroke="#000000" points="327.1763,-209.5 327.1763,-227.5 422.6489,-227.5 422.6489,-209.5 327.1763,-209.5"/>
<text text-anchor="middle" x="374.9126" y="-215.5" font-family="Helvetica,sans-Serif" font-size="10.00" fill="#000000">CService::GetKey</text>
</a>
</g>
</g>
<!-- Node309&#45;&gt;Node310 -->
<g id="edge7" class="edge">
<title>Node309&#45;&gt;Node310</title>
<path fill="none" stroke="#191970" d="M284.628,-218.5C295.3788,-218.5 306.3061,-218.5 316.6718,-218.5"/>
<polygon fill="#191970" stroke="#191970" points="316.8231,-222.0001 326.8231,-218.5 316.823,-215.0001 316.8231,-222.0001"/>
</g>
<!-- Node313 -->
<g id="node11" class="node">
<title>Node313</title>
<g id="a_node11"><a xlink:href="class_c_net_addr.html#a8fae7d32e83e9fbb9ce0216f896133c9" target="_top" xlink:title="CNetAddr::GetHash">
<polygon fill="#ffffff" stroke="#000000" points="322.4497,-172.5 322.4497,-190.5 427.3755,-190.5 427.3755,-172.5 322.4497,-172.5"/>
<text text-anchor="middle" x="374.9126" y="-178.5" font-family="Helvetica,sans-Serif" font-size="10.00" fill="#000000">CNetAddr::GetHash</text>
</a>
</g>
</g>
<!-- Node309&#45;&gt;Node313 -->
<g id="edge10" class="edge">
<title>Node309&#45;&gt;Node313</title>
<path fill="none" stroke="#191970" d="M250.1928,-209.4488C272.6641,-204.4131 300.8327,-198.1008 324.7113,-192.7497"/>
<polygon fill="#191970" stroke="#191970" points="325.6606,-196.1239 334.6532,-190.5218 324.1299,-189.2933 325.6606,-196.1239"/>
</g>
<!-- Node311 -->
<g id="node9" class="node">
<title>Node311</title>
<g id="a_node9"><a xlink:href="glibc__compat_8cpp.html#a0f46826ab0466591e136db24394923cf" target="_top" xlink:title="memcpy">
<polygon fill="#ffffff" stroke="#000000" points="1180.2725,-172.5 1180.2725,-190.5 1234.0557,-190.5 1234.0557,-172.5 1180.2725,-172.5"/>
<text text-anchor="middle" x="1207.1641" y="-178.5" font-family="Helvetica,sans-Serif" font-size="10.00" fill="#000000">memcpy</text>
</a>
</g>
</g>
<!-- Node310&#45;&gt;Node311 -->
<g id="edge8" class="edge">
<title>Node310&#45;&gt;Node311</title>
<path fill="none" stroke="#191970" d="M422.6626,-218.7706C479.1103,-219.0668 575.8875,-219.5 658.9907,-219.5 658.9907,-219.5 658.9907,-219.5 921.6724,-219.5 1011.628,-219.5 1116.1443,-200.7331 1170.3302,-189.5764"/>
<polygon fill="#191970" stroke="#191970" points="1171.0901,-192.9933 1180.1624,-187.5212 1169.6578,-186.1414 1171.0901,-192.9933"/>
</g>
<!-- Node312 -->
<g id="node10" class="node">
<title>Node312</title>
<g id="a_node10"><a xlink:href="glibc__compat_8cpp.html#a9778d49e9029dd75bc53ecbbf9f5e9a1" target="_top" xlink:title="memmove">
<polygon fill="#ffffff" stroke="#000000" points="1299.5186,-172.5 1299.5186,-190.5 1362.1934,-190.5 1362.1934,-172.5 1299.5186,-172.5"/>
<text text-anchor="middle" x="1330.856" y="-178.5" font-family="Helvetica,sans-Serif" font-size="10.00" fill="#000000">memmove</text>
</a>
</g>
</g>
<!-- Node311&#45;&gt;Node312 -->
<g id="edge9" class="edge">
<title>Node311&#45;&gt;Node312</title>
<path fill="none" stroke="#191970" d="M1234.3088,-181.5C1250.4346,-181.5 1271.2142,-181.5 1289.3623,-181.5"/>
<polygon fill="#191970" stroke="#191970" points="1289.4071,-185.0001 1299.4071,-181.5 1289.407,-178.0001 1289.4071,-185.0001"/>
</g>
<!-- Node313&#45;&gt;Node311 -->
<g id="edge29" class="edge">
<title>Node313&#45;&gt;Node311</title>
<path fill="none" stroke="#191970" d="M427.5315,-181.5C484.5561,-181.5 578.2307,-181.5 658.9907,-181.5 658.9907,-181.5 658.9907,-181.5 921.6724,-181.5 1010.6562,-181.5 1115.241,-181.5 1169.7816,-181.5"/>
<polygon fill="#191970" stroke="#191970" points="1170.003,-185.0001 1180.003,-181.5 1170.0029,-178.0001 1170.003,-185.0001"/>
</g>
<!-- Node314 -->
<g id="node12" class="node">
<title>Node314</title>
<g id="a_node12"><a xlink:href="_hash_8h.html#ab3f6c437460137530d86e09c2c102e99" target="_top" xlink:title="Compute the 256&#45;bit hash of an object. ">
<polygon fill="#ffffff" stroke="#000000" points="499.2251,-111.5 499.2251,-129.5 538.5698,-129.5 538.5698,-111.5 499.2251,-111.5"/>
<text text-anchor="middle" x="518.8975" y="-117.5" font-family="Helvetica,sans-Serif" font-size="10.00" fill="#000000">Hash</text>
</a>
</g>
</g>
<!-- Node313&#45;&gt;Node314 -->
<g id="edge11" class="edge">
<title>Node313&#45;&gt;Node314</title>
<path fill="none" stroke="#191970" d="M396.1581,-172.4992C420.8213,-162.0505 461.6516,-144.7525 489.3861,-133.0027"/>
<polygon fill="#191970" stroke="#191970" points="491.1149,-136.0714 498.9573,-128.9477 488.3842,-129.626 491.1149,-136.0714"/>
</g>
<!-- Node315 -->
<g id="node13" class="node">
<title>Node315</title>
<g id="a_node13"><a xlink:href="class_c_hash3.html#a3dc880cbca561109d8de7c7ffdd5691e" target="_top" xlink:title="CHash3::Write">
<polygon fill="#ffffff" stroke="#000000" points="618.5713,-74.5 618.5713,-92.5 699.4102,-92.5 699.4102,-74.5 618.5713,-74.5"/>
<text text-anchor="middle" x="658.9907" y="-80.5" font-family="Helvetica,sans-Serif" font-size="10.00" fill="#000000">CHash3::Write</text>
</a>
</g>
</g>
<!-- Node314&#45;&gt;Node315 -->
<g id="edge12" class="edge">
<title>Node314&#45;&gt;Node315</title>
<path fill="none" stroke="#191970" d="M538.6723,-115.2773C558.3814,-110.0719 589.3133,-101.9025 614.8785,-95.1505"/>
<polygon fill="#191970" stroke="#191970" points="615.9621,-98.4844 624.7369,-92.5468 614.1746,-91.7164 615.9621,-98.4844"/>
</g>
<!-- Node320 -->
<g id="node18" class="node">
<title>Node320</title>
<g id="a_node18"><a xlink:href="class_c_hash3.html#a28921734337c77f3589c0b1a740e2f30" target="_top" xlink:title="CHash3::Finalize">
<polygon fill="#ffffff" stroke="#000000" points="612.9194,-111.5 612.9194,-129.5 705.062,-129.5 705.062,-111.5 612.9194,-111.5"/>
<text text-anchor="middle" x="658.9907" y="-117.5" font-family="Helvetica,sans-Serif" font-size="10.00" fill="#000000">CHash3::Finalize</text>
</a>
</g>
</g>
<!-- Node314&#45;&gt;Node320 -->
<g id="edge17" class="edge">
<title>Node314&#45;&gt;Node320</title>
<path fill="none" stroke="#191970" d="M538.6723,-120.5C555.2855,-120.5 579.8727,-120.5 602.4983,-120.5"/>
<polygon fill="#191970" stroke="#191970" points="602.7201,-124.0001 612.7201,-120.5 602.72,-117.0001 602.7201,-124.0001"/>
</g>
<!-- Node316 -->
<g id="node14" class="node">
<title>Node316</title>
<g id="a_node14"><a xlink:href="class_c_s_h_a3.html#a439a0fade3fa1b7989c6cf053d39161b" target="_top" xlink:title="CSHA3::Write">
<polygon fill="#ffffff" stroke="#000000" points="751.438,-55.5 751.438,-73.5 829.4937,-73.5 829.4937,-55.5 751.438,-55.5"/>
<text text-anchor="middle" x="790.4658" y="-61.5" font-family="Helvetica,sans-Serif" font-size="10.00" fill="#000000">CSHA3::Write</text>
</a>
</g>
</g>
<!-- Node315&#45;&gt;Node316 -->
<g id="edge13" class="edge">
<title>Node315&#45;&gt;Node316</title>
<path fill="none" stroke="#191970" d="M699.5104,-77.6443C712.6175,-75.7502 727.3011,-73.6282 740.9826,-71.651"/>
<polygon fill="#191970" stroke="#191970" points="741.8102,-75.0679 751.2068,-70.1735 740.809,-68.1398 741.8102,-75.0679"/>
</g>
<!-- Node317 -->
<g id="node15" class="node">
<title>Node317</title>
<g id="a_node15"><a xlink:href="class_s_h_a3__256.html#a8356957ea403c5da326fc6899b91ea71" target="_top" xlink:title="Updates the hash with more data. ">
<polygon fill="#ffffff" stroke="#000000" points="871.4165,-28.5 871.4165,-46.5 971.9282,-46.5 971.9282,-28.5 871.4165,-28.5"/>
<text text-anchor="middle" x="921.6724" y="-34.5" font-family="Helvetica,sans-Serif" font-size="10.00" fill="#000000">SHA3_256::update</text>
</a>
</g>
</g>
<!-- Node316&#45;&gt;Node317 -->
<g id="edge14" class="edge">
<title>Node316&#45;&gt;Node317</title>
<path fill="none" stroke="#191970" d="M829.8321,-56.3991C841.7444,-53.9478 855.0385,-51.2121 867.7309,-48.6002"/>
<polygon fill="#191970" stroke="#191970" points="868.6537,-51.9837 877.743,-46.5399 867.2428,-45.1274 868.6537,-51.9837"/>
</g>
<!-- Node318 -->
<g id="node16" class="node">
<title>Node318</title>
<g id="a_node16"><a xlink:href="class_keccak_core.html#aaaa0355ccec0f469ac8eb577bdf853ed" target="_top" xlink:title="Updates the Keccak sponge function with more input data. ">
<polygon fill="#ffffff" stroke="#000000" points="1008.1992,-23.5 1008.1992,-41.5 1114.8096,-41.5 1114.8096,-23.5 1008.1992,-23.5"/>
<text text-anchor="middle" x="1061.5044" y="-29.5" font-family="Helvetica,sans-Serif" font-size="10.00" fill="#000000">KeccakCore::update</text>
</a>
</g>
</g>
<!-- Node317&#45;&gt;Node318 -->
<g id="edge15" class="edge">
<title>Node317&#45;&gt;Node318</title>
<path fill="none" stroke="#191970" d="M972.1549,-35.6949C980.4765,-35.3973 989.1971,-35.0855 997.7917,-34.7782"/>
<polygon fill="#191970" stroke="#191970" points="997.9231,-38.2758 1007.7916,-34.4206 997.6729,-31.2803 997.9231,-38.2758"/>
</g>
<!-- Node319 -->
<g id="node17" class="node">
<title>Node319</title>
<g id="a_node17"><a xlink:href="class_keccak_core.html#aba3225c7a4ceff3580236a900b72a1c3" target="_top" xlink:title="Transform the state with the KECCAK&#45;p sponge function with b = 1600. ">
<polygon fill="#ffffff" stroke="#000000" points="1150.8096,-97.5 1150.8096,-115.5 1263.5186,-115.5 1263.5186,-97.5 1150.8096,-97.5"/>
<text text-anchor="middle" x="1207.1641" y="-103.5" font-family="Helvetica,sans-Serif" font-size="10.00" fill="#000000">KeccakCore::keccakp</text>
</a>
</g>
</g>
<!-- Node318&#45;&gt;Node319 -->
<g id="edge16" class="edge">
<title>Node318&#45;&gt;Node319</title>
<path fill="none" stroke="#191970" d="M1090.1363,-41.5527C1098.243,-44.424 1106.9865,-47.8193 1114.8096,-51.5 1139.9447,-63.3259 1167.0739,-79.9941 1185.3804,-91.8754"/>
<polygon fill="#191970" stroke="#191970" points="1183.5719,-94.875 1193.8513,-97.441 1187.4157,-89.0247 1183.5719,-94.875"/>
</g>
<!-- Node320&#45;&gt;Node316 -->
<g id="edge28" class="edge">
<title>Node320&#45;&gt;Node316</title>
<path fill="none" stroke="#191970" d="M686.9556,-111.4087C694.4557,-108.7494 702.5025,-105.6925 709.7861,-102.5 726.356,-95.2373 729.4475,-91.2689 745.7861,-83.5 749.923,-81.5329 754.3169,-79.5448 758.6723,-77.6332"/>
<polygon fill="#191970" stroke="#191970" points="760.227,-80.7746 768.0307,-73.6086 757.4615,-74.3441 760.227,-80.7746"/>
</g>
<!-- Node321 -->
<g id="node19" class="node">
<title>Node321</title>
<g id="a_node19"><a xlink:href="class_c_s_h_a3.html#a7aa515a9a0fa6d72667d74897f699ae9" target="_top" xlink:title="CSHA3::Finalize">
<polygon fill="#ffffff" stroke="#000000" points="745.7861,-129.5 745.7861,-147.5 835.1455,-147.5 835.1455,-129.5 745.7861,-129.5"/>
<text text-anchor="middle" x="790.4658" y="-135.5" font-family="Helvetica,sans-Serif" font-size="10.00" fill="#000000">CSHA3::Finalize</text>
</a>
</g>
</g>
<!-- Node320&#45;&gt;Node321 -->
<g id="edge18" class="edge">
<title>Node320&#45;&gt;Node321</title>
<path fill="none" stroke="#191970" d="M705.3439,-126.8461C715.0011,-128.1683 725.2712,-129.5743 735.213,-130.9354"/>
<polygon fill="#191970" stroke="#191970" points="735.0326,-134.4433 745.415,-132.3322 735.9822,-127.508 735.0326,-134.4433"/>
</g>
<!-- Node325 -->
<g id="node23" class="node">
<title>Node325</title>
<g id="a_node23"><a xlink:href="class_c_s_h_a3.html#a9d77a24312b66dcd026dfbed1d917dc1" target="_top" xlink:title="CSHA3::Reset">
<polygon fill="#ffffff" stroke="#000000" points="749.9536,-92.5 749.9536,-110.5 830.978,-110.5 830.978,-92.5 749.9536,-92.5"/>
<text text-anchor="middle" x="790.4658" y="-98.5" font-family="Helvetica,sans-Serif" font-size="10.00" fill="#000000">CSHA3::Reset</text>
</a>
</g>
</g>
<!-- Node320&#45;&gt;Node325 -->
<g id="edge25" class="edge">
<title>Node320&#45;&gt;Node325</title>
<path fill="none" stroke="#191970" d="M705.3439,-113.8013C716.4381,-112.198 728.3413,-110.4779 739.6262,-108.847"/>
<polygon fill="#191970" stroke="#191970" points="740.3785,-112.2748 749.7751,-107.3804 739.3773,-105.3467 740.3785,-112.2748"/>
</g>
<!-- Node322 -->
<g id="node20" class="node">
<title>Node322</title>
<g id="a_node20"><a xlink:href="class_s_h_a3__256.html#a8fe7cad1f83bd1bae1a0d521324247a1" target="_top" xlink:title="Finalizes the hashing process and returns the hash. ">
<polygon fill="#ffffff" stroke="#000000" points="871.1455,-129.5 871.1455,-147.5 972.1992,-147.5 972.1992,-129.5 871.1455,-129.5"/>
<text text-anchor="middle" x="921.6724" y="-135.5" font-family="Helvetica,sans-Serif" font-size="10.00" fill="#000000">SHA3_256::finalize</text>
</a>
</g>
</g>
<!-- Node321&#45;&gt;Node322 -->
<g id="edge19" class="edge">
<title>Node321&#45;&gt;Node322</title>
<path fill="none" stroke="#191970" d="M835.2527,-138.5C843.4698,-138.5 852.1731,-138.5 860.7682,-138.5"/>
<polygon fill="#191970" stroke="#191970" points="860.7729,-142.0001 870.7728,-138.5 860.7728,-135.0001 860.7729,-142.0001"/>
</g>
<!-- Node323 -->
<g id="node21" class="node">
<title>Node323</title>
<g id="a_node21"><a xlink:href="class_keccak_core.html#a97852ee4381ced17ee6d21704cf0b4d7" target="_top" xlink:title="Pads the last block of input data to blockSize(). ">
<polygon fill="#ffffff" stroke="#000000" points="1015.1499,-97.5 1015.1499,-115.5 1107.8589,-115.5 1107.8589,-97.5 1015.1499,-97.5"/>
<text text-anchor="middle" x="1061.5044" y="-103.5" font-family="Helvetica,sans-Serif" font-size="10.00" fill="#000000">KeccakCore::pad</text>
</a>
</g>
</g>
<!-- Node322&#45;&gt;Node323 -->
<g id="edge20" class="edge">
<title>Node322&#45;&gt;Node323</title>
<path fill="none" stroke="#191970" d="M961.3686,-129.4157C977.0151,-125.835 995.1619,-121.6822 1011.6752,-117.9032"/>
<polygon fill="#191970" stroke="#191970" points="1012.7417,-121.2497 1021.7089,-115.607 1011.1801,-114.4261 1012.7417,-121.2497"/>
</g>
<!-- Node324 -->
<g id="node22" class="node">
<title>Node324</title>
<g id="a_node22"><a xlink:href="class_keccak_core.html#aad83ece853c0cc15fcab947fdcba924f" target="_top" xlink:title="Extracts data from the Keccak sponge function. ">
<polygon fill="#ffffff" stroke="#000000" points="1008.4873,-134.5 1008.4873,-152.5 1114.5215,-152.5 1114.5215,-134.5 1008.4873,-134.5"/>
<text text-anchor="middle" x="1061.5044" y="-140.5" font-family="Helvetica,sans-Serif" font-size="10.00" fill="#000000">KeccakCore::extract</text>
</a>
</g>
</g>
<!-- Node322&#45;&gt;Node324 -->
<g id="edge22" class="edge">
<title>Node322&#45;&gt;Node324</title>
<path fill="none" stroke="#191970" d="M972.5505,-140.3193C980.7669,-140.6131 989.363,-140.9204 997.8358,-141.2234"/>
<polygon fill="#191970" stroke="#191970" points="997.957,-144.7299 1008.0757,-141.5895 998.2072,-137.7343 997.957,-144.7299"/>
</g>
<!-- Node323&#45;&gt;Node319 -->
<g id="edge21" class="edge">
<title>Node323&#45;&gt;Node319</title>
<path fill="none" stroke="#191970" d="M1107.9925,-106.5C1118.3829,-106.5 1129.6,-106.5 1140.6235,-106.5"/>
<polygon fill="#191970" stroke="#191970" points="1140.6634,-110.0001 1150.6634,-106.5 1140.6633,-103.0001 1140.6634,-110.0001"/>
</g>
<!-- Node324&#45;&gt;Node311 -->
<g id="edge24" class="edge">
<title>Node324&#45;&gt;Node311</title>
<path fill="none" stroke="#191970" d="M1096.0237,-152.5055C1118.4484,-158.3557 1147.6473,-165.9731 1170.4889,-171.9321"/>
<polygon fill="#191970" stroke="#191970" points="1169.6095,-175.3198 1180.1691,-174.4575 1171.3765,-168.5465 1169.6095,-175.3198"/>
</g>
<!-- Node324&#45;&gt;Node319 -->
<g id="edge23" class="edge">
<title>Node324&#45;&gt;Node319</title>
<path fill="none" stroke="#191970" d="M1097.1368,-134.4488C1116.6068,-129.5031 1140.9252,-123.3258 1161.7446,-118.0373"/>
<polygon fill="#191970" stroke="#191970" points="1162.8169,-121.3761 1171.6474,-115.5218 1161.0935,-114.5916 1162.8169,-121.3761"/>
</g>
<!-- Node326 -->
<g id="node24" class="node">
<title>Node326</title>
<g id="a_node24"><a xlink:href="class_s_h_a3__256.html#a57b5f29347a733e04fe47d60621f3202" target="_top" xlink:title="Resets the hash ready for a new hashing process. ">
<polygon fill="#ffffff" stroke="#000000" points="875.5938,-83.5 875.5938,-101.5 967.751,-101.5 967.751,-83.5 875.5938,-83.5"/>
<text text-anchor="middle" x="921.6724" y="-89.5" font-family="Helvetica,sans-Serif" font-size="10.00" fill="#000000">SHA3_256::reset</text>
</a>
</g>
</g>
<!-- Node325&#45;&gt;Node326 -->
<g id="edge26" class="edge">
<title>Node325&#45;&gt;Node326</title>
<path fill="none" stroke="#191970" d="M831.2612,-98.7017C841.9739,-97.9668 853.7216,-97.161 865.0999,-96.3805"/>
<polygon fill="#191970" stroke="#191970" points="865.6682,-99.8499 875.4052,-95.6737 865.1891,-92.8663 865.6682,-99.8499"/>
</g>
<!-- Node327 -->
<g id="node25" class="node">
<title>Node327</title>
<g id="a_node25"><a xlink:href="class_keccak_core.html#a5a322eb7e3b5c1eaad127c9c6e6a529b" target="_top" xlink:title="Resets the Keccak sponge function ready for a new session. ">
<polygon fill="#ffffff" stroke="#000000" points="1012.3765,-60.5 1012.3765,-78.5 1110.6323,-78.5 1110.6323,-60.5 1012.3765,-60.5"/>
<text text-anchor="middle" x="1061.5044" y="-66.5" font-family="Helvetica,sans-Serif" font-size="10.00" fill="#000000">KeccakCore::reset</text>
</a>
</g>
</g>
<!-- Node326&#45;&gt;Node327 -->
<g id="edge27" class="edge">
<title>Node326&#45;&gt;Node327</title>
<path fill="none" stroke="#191970" d="M967.8461,-84.9052C978.798,-83.1038 990.6319,-81.1573 1002.0816,-79.274"/>
<polygon fill="#191970" stroke="#191970" points="1002.7134,-82.7172 1012.0127,-77.6405 1001.5772,-75.8101 1002.7134,-82.7172"/>
</g>
<!-- Node328&#45;&gt;Node310 -->
<g id="edge31" class="edge">
<title>Node328&#45;&gt;Node310</title>
<path fill="none" stroke="#191970" d="M250.1928,-190.5512C272.6641,-195.5869 300.8327,-201.8992 324.7113,-207.2503"/>
<polygon fill="#191970" stroke="#191970" points="324.1299,-210.7067 334.6532,-209.4782 325.6606,-203.8761 324.1299,-210.7067"/>
</g>
<!-- Node328&#45;&gt;Node313 -->
<g id="edge32" class="edge">
<title>Node328&#45;&gt;Node313</title>
<path fill="none" stroke="#191970" d="M277.9122,-181.5C289.2701,-181.5 301.0045,-181.5 312.219,-181.5"/>
<polygon fill="#191970" stroke="#191970" points="312.3463,-185.0001 322.3462,-181.5 312.3462,-178.0001 312.3463,-185.0001"/>
</g>
<!-- Node329 -->
<g id="node27" class="node">
<title>Node329</title>
<g id="a_node27"><a xlink:href="class_c_net_addr.html#a6f8211515f809f6972ce327433d41458" target="_top" xlink:title="CNetAddr::GetGroup">
<polygon fill="#ffffff" stroke="#000000" points="320.2256,-37.5 320.2256,-55.5 429.5996,-55.5 429.5996,-37.5 320.2256,-37.5"/>
<text text-anchor="middle" x="374.9126" y="-43.5" font-family="Helvetica,sans-Serif" font-size="10.00" fill="#000000">CNetAddr::GetGroup</text>
</a>
</g>
</g>
<!-- Node328&#45;&gt;Node329 -->
<g id="edge33" class="edge">
<title>Node328&#45;&gt;Node329</title>
<path fill="none" stroke="#191970" d="M220.892,-172.4326C248.6207,-149.7607 321.2216,-90.3996 355.9173,-62.0312"/>
<polygon fill="#191970" stroke="#191970" points="358.3449,-64.5674 363.8711,-55.5279 353.914,-59.1482 358.3449,-64.5674"/>
</g>
<!-- Node330 -->
<g id="node28" class="node">
<title>Node330</title>
<g id="a_node28"><a xlink:href="class_c_net_addr.html#a857bfcf95814b7d6ef4db309c84f179d" target="_top" xlink:title="CNetAddr::IsLocal">
<polygon fill="#ffffff" stroke="#000000" points="470.3237,-37.5 470.3237,-55.5 567.4712,-55.5 567.4712,-37.5 470.3237,-37.5"/>
<text text-anchor="middle" x="518.8975" y="-43.5" font-family="Helvetica,sans-Serif" font-size="10.00" fill="#000000">CNetAddr::IsLocal</text>
</a>
</g>
</g>
<!-- Node329&#45;&gt;Node330 -->
<g id="edge34" class="edge">
<title>Node329&#45;&gt;Node330</title>
<path fill="none" stroke="#191970" d="M429.7578,-46.5C439.5491,-46.5 449.7897,-46.5 459.6964,-46.5"/>
<polygon fill="#191970" stroke="#191970" points="459.8666,-50.0001 469.8666,-46.5 459.8666,-43.0001 459.8666,-50.0001"/>
</g>
<!-- Node333 -->
<g id="node31" class="node">
<title>Node333</title>
<g id="a_node31"><a xlink:href="class_c_net_addr.html#ab0848a1ba29b6f72fcc3b6ba8d7c8fbb" target="_top" xlink:title="CNetAddr::IsInternal">
<polygon fill="#ffffff" stroke="#000000" points="465.5996,-.5 465.5996,-18.5 572.1953,-18.5 572.1953,-.5 465.5996,-.5"/>
<text text-anchor="middle" x="518.8975" y="-6.5" font-family="Helvetica,sans-Serif" font-size="10.00" fill="#000000">CNetAddr::IsInternal</text>
</a>
</g>
</g>
<!-- Node329&#45;&gt;Node333 -->
<g id="edge37" class="edge">
<title>Node329&#45;&gt;Node333</title>
<path fill="none" stroke="#191970" d="M410.1353,-37.4488C429.3099,-32.5214 453.2415,-26.3717 473.7706,-21.0963"/>
<polygon fill="#191970" stroke="#191970" points="474.7252,-24.4648 483.5394,-18.586 472.9829,-17.6851 474.7252,-24.4648"/>
</g>
<!-- Node331 -->
<g id="node29" class="node">
<title>Node331</title>
<g id="a_node29"><a xlink:href="class_c_net_addr.html#a7021b79e9a33c342b68db09dbb6c2293" target="_top" xlink:title="CNetAddr::IsIPv4">
<polygon fill="#ffffff" stroke="#000000" points="612.3652,-.5 612.3652,-18.5 705.6162,-18.5 705.6162,-.5 612.3652,-.5"/>
<text text-anchor="middle" x="658.9907" y="-6.5" font-family="Helvetica,sans-Serif" font-size="10.00" fill="#000000">CNetAddr::IsIPv4</text>
</a>
</g>
</g>
<!-- Node330&#45;&gt;Node331 -->
<g id="edge35" class="edge">
<title>Node330&#45;&gt;Node331</title>
<path fill="none" stroke="#191970" d="M553.1681,-37.4488C571.7397,-32.5438 594.8978,-26.4276 614.811,-21.1683"/>
<polygon fill="#191970" stroke="#191970" points="615.8136,-24.5236 624.5883,-18.586 614.0261,-17.7557 615.8136,-24.5236"/>
</g>
<!-- Node332 -->
<g id="node30" class="node">
<title>Node332</title>
<g id="a_node30"><a xlink:href="class_c_net_addr.html#acfd51ebf2030b01fa5ac133176512475" target="_top" xlink:title="CNetAddr::GetByte">
<polygon fill="#ffffff" stroke="#000000" points="608.1953,-37.5 608.1953,-55.5 709.7861,-55.5 709.7861,-37.5 608.1953,-37.5"/>
<text text-anchor="middle" x="658.9907" y="-43.5" font-family="Helvetica,sans-Serif" font-size="10.00" fill="#000000">CNetAddr::GetByte</text>
</a>
</g>
</g>
<!-- Node330&#45;&gt;Node332 -->
<g id="edge36" class="edge">
<title>Node330&#45;&gt;Node332</title>
<path fill="none" stroke="#191970" d="M567.5021,-46.5C577.3411,-46.5 587.8047,-46.5 598.0074,-46.5"/>
<polygon fill="#191970" stroke="#191970" points="598.0904,-50.0001 608.0903,-46.5 598.0903,-43.0001 598.0904,-50.0001"/>
</g>
</g>
</svg>
