<?xml version="1.0" encoding="UTF-8" standalone="no"?>
<!DOCTYPE svg PUBLIC "-//W3C//DTD SVG 1.1//EN"
 "http://www.w3.org/Graphics/SVG/1.1/DTD/svg11.dtd">
<!-- Generated by graphviz version 2.40.1 (20161225.0304)
 -->
<!-- Title: CConnman::DumpData Pages: 1 -->
<svg width="766pt" height="251pt"
 viewBox="0.00 0.00 766.35 251.00" xmlns="http://www.w3.org/2000/svg" xmlns:xlink="http://www.w3.org/1999/xlink">
<g id="graph0" class="graph" transform="scale(1 1) rotate(0) translate(4 247)">
<title>CConnman::DumpData</title>
<polygon fill="#ffffff" stroke="transparent" points="-4,4 -4,-247 762.3457,-247 762.3457,4 -4,4"/>
<!-- Node207 -->
<g id="node1" class="node">
<title>Node207</title>
<polygon fill="#bfbfbf" stroke="#000000" points="0,-149.5 0,-167.5 119.9355,-167.5 119.9355,-149.5 0,-149.5"/>
<text text-anchor="middle" x="59.9678" y="-155.5" font-family="Helvetica,sans-Serif" font-size="10.00" fill="#000000">CConnman::DumpData</text>
</g>
<!-- Node208 -->
<g id="node2" class="node">
<title>Node208</title>
<g id="a_node2"><a xlink:href="class_c_connman.html#aefdc911e6c978574ec42051faeaea041" target="_top" xlink:title="CConnman::DumpAddresses">
<polygon fill="#ffffff" stroke="#000000" points="155.9355,-187.5 155.9355,-205.5 301.9941,-205.5 301.9941,-187.5 155.9355,-187.5"/>
<text text-anchor="middle" x="228.9648" y="-193.5" font-family="Helvetica,sans-Serif" font-size="10.00" fill="#000000">CConnman::DumpAddresses</text>
</a>
</g>
</g>
<!-- Node207&#45;&gt;Node208 -->
<g id="edge1" class="edge">
<title>Node207&#45;&gt;Node208</title>
<path fill="none" stroke="#191970" d="M100.0177,-167.5055C123.6092,-172.8102 153.6628,-179.5679 178.8201,-185.2247"/>
<polygon fill="#191970" stroke="#191970" points="178.3856,-188.7143 188.9099,-187.4934 179.9213,-181.8848 178.3856,-188.7143"/>
</g>
<!-- Node211 -->
<g id="node5" class="node">
<title>Node211</title>
<g id="a_node5"><a xlink:href="class_c_connman.html#a6e729a956380ac422ab78d842e158df1" target="_top" xlink:title="CConnman::DumpBanlist">
<polygon fill="#ffffff" stroke="#000000" points="164.5513,-111.5 164.5513,-129.5 293.3784,-129.5 293.3784,-111.5 164.5513,-111.5"/>
<text text-anchor="middle" x="228.9648" y="-117.5" font-family="Helvetica,sans-Serif" font-size="10.00" fill="#000000">CConnman::DumpBanlist</text>
</a>
</g>
</g>
<!-- Node207&#45;&gt;Node211 -->
<g id="edge4" class="edge">
<title>Node207&#45;&gt;Node211</title>
<path fill="none" stroke="#191970" d="M100.0177,-149.4945C123.6092,-144.1898 153.6628,-137.4321 178.8201,-131.7753"/>
<polygon fill="#191970" stroke="#191970" points="179.9213,-135.1152 188.9099,-129.5066 178.3856,-128.2857 179.9213,-135.1152"/>
</g>
<!-- Node209 -->
<g id="node3" class="node">
<title>Node209</title>
<g id="a_node3"><a xlink:href="utiltime_8cpp.html#a139d0fe6387b9e230a9b8bb12d9b43b9" target="_top" xlink:title="GetTimeMillis">
<polygon fill="#ffffff" stroke="#000000" points="378.4922,-187.5 378.4922,-205.5 454.6826,-205.5 454.6826,-187.5 378.4922,-187.5"/>
<text text-anchor="middle" x="416.5874" y="-193.5" font-family="Helvetica,sans-Serif" font-size="10.00" fill="#000000">GetTimeMillis</text>
</a>
</g>
</g>
<!-- Node208&#45;&gt;Node209 -->
<g id="edge2" class="edge">
<title>Node208&#45;&gt;Node209</title>
<path fill="none" stroke="#191970" d="M302.0419,-196.5C324.2097,-196.5 348.0035,-196.5 368.1298,-196.5"/>
<polygon fill="#191970" stroke="#191970" points="368.2922,-200.0001 378.2922,-196.5 368.2921,-193.0001 368.2922,-200.0001"/>
</g>
<!-- Node210 -->
<g id="node4" class="node">
<title>Node210</title>
<g id="a_node4"><a xlink:href="class_c_addr_d_b.html#aaec90dba59cd69a2f25bc5630a1dde39" target="_top" xlink:title="CAddrDB::Write">
<polygon fill="#ffffff" stroke="#000000" points="373.1138,-224.5 373.1138,-242.5 460.061,-242.5 460.061,-224.5 373.1138,-224.5"/>
<text text-anchor="middle" x="416.5874" y="-230.5" font-family="Helvetica,sans-Serif" font-size="10.00" fill="#000000">CAddrDB::Write</text>
</a>
</g>
</g>
<!-- Node208&#45;&gt;Node210 -->
<g id="edge3" class="edge">
<title>Node208&#45;&gt;Node210</title>
<path fill="none" stroke="#191970" d="M274.8625,-205.5512C301.53,-210.8102 335.2586,-217.4616 363.1214,-222.9563"/>
<polygon fill="#191970" stroke="#191970" points="362.609,-226.4226 373.0973,-224.9236 363.9634,-219.5548 362.609,-226.4226"/>
</g>
<!-- Node211&#45;&gt;Node209 -->
<g id="edge8" class="edge">
<title>Node211&#45;&gt;Node209</title>
<path fill="none" stroke="#191970" d="M245.9878,-129.5946C267.1509,-140.6715 304.5691,-159.5087 337.9941,-172.5 349.2046,-176.8572 361.5549,-180.9474 373.0784,-184.4739"/>
<polygon fill="#191970" stroke="#191970" points="372.3595,-187.9119 382.943,-187.4203 374.363,-181.2047 372.3595,-187.9119"/>
</g>
<!-- Node212 -->
<g id="node6" class="node">
<title>Node212</title>
<g id="a_node6"><a xlink:href="class_c_connman.html#a0695d37447e19cfde25be7e9b7f13f67" target="_top" xlink:title="clean unused entries (if bantime has expired) ">
<polygon fill="#ffffff" stroke="#000000" points="531.1807,-111.5 531.1807,-129.5 668.3721,-129.5 668.3721,-111.5 531.1807,-111.5"/>
<text text-anchor="middle" x="599.7764" y="-117.5" font-family="Helvetica,sans-Serif" font-size="10.00" fill="#000000">CConnman::SweepBanned</text>
</a>
</g>
</g>
<!-- Node211&#45;&gt;Node212 -->
<g id="edge5" class="edge">
<title>Node211&#45;&gt;Node212</title>
<path fill="none" stroke="#191970" d="M270.6808,-129.5085C290.8989,-133.428 315.5974,-137.5631 337.9941,-139.5 407.595,-145.5191 425.6018,-145.7683 495.1807,-139.5 513.1588,-137.8804 532.6669,-134.725 549.9117,-131.4438"/>
<polygon fill="#191970" stroke="#191970" points="550.6363,-134.8684 559.775,-129.508 549.2881,-127.9995 550.6363,-134.8684"/>
</g>
<!-- Node214 -->
<g id="node8" class="node">
<title>Node214</title>
<g id="a_node8"><a xlink:href="class_c_connman.html#ac5a5efb5d7a41f9a6f99c7328997f40d" target="_top" xlink:title="check is the banlist has unwritten changes ">
<polygon fill="#ffffff" stroke="#000000" points="341.6099,-111.5 341.6099,-129.5 491.5649,-129.5 491.5649,-111.5 341.6099,-111.5"/>
<text text-anchor="middle" x="416.5874" y="-117.5" font-family="Helvetica,sans-Serif" font-size="10.00" fill="#000000">CConnman::BannedSetIsDirty</text>
</a>
</g>
</g>
<!-- Node211&#45;&gt;Node214 -->
<g id="edge7" class="edge">
<title>Node211&#45;&gt;Node214</title>
<path fill="none" stroke="#191970" d="M293.5339,-120.5C305.7455,-120.5 318.6917,-120.5 331.4236,-120.5"/>
<polygon fill="#191970" stroke="#191970" points="331.5703,-124.0001 341.5703,-120.5 331.5703,-117.0001 331.5703,-124.0001"/>
</g>
<!-- Node215 -->
<g id="node9" class="node">
<title>Node215</title>
<g id="a_node9"><a xlink:href="class_c_connman.html#a72472ae8962210960eea780bf0e733f6" target="_top" xlink:title="CConnman::GetBanned">
<polygon fill="#ffffff" stroke="#000000" points="355.2207,-74.5 355.2207,-92.5 477.9541,-92.5 477.9541,-74.5 355.2207,-74.5"/>
<text text-anchor="middle" x="416.5874" y="-80.5" font-family="Helvetica,sans-Serif" font-size="10.00" fill="#000000">CConnman::GetBanned</text>
</a>
</g>
</g>
<!-- Node211&#45;&gt;Node215 -->
<g id="edge9" class="edge">
<title>Node211&#45;&gt;Node215</title>
<path fill="none" stroke="#191970" d="M274.8625,-111.4488C300.8536,-106.3232 333.5522,-99.8749 360.9903,-94.464"/>
<polygon fill="#191970" stroke="#191970" points="361.705,-97.8906 370.8388,-92.5218 360.3506,-91.0228 361.705,-97.8906"/>
</g>
<!-- Node216 -->
<g id="node10" class="node">
<title>Node216</title>
<g id="a_node10"><a xlink:href="class_c_ban_d_b.html#a0550a06c6b5987869f557467fe7f9896" target="_top" xlink:title="CBanDB::Write">
<polygon fill="#ffffff" stroke="#000000" points="374.7788,-37.5 374.7788,-55.5 458.396,-55.5 458.396,-37.5 374.7788,-37.5"/>
<text text-anchor="middle" x="416.5874" y="-43.5" font-family="Helvetica,sans-Serif" font-size="10.00" fill="#000000">CBanDB::Write</text>
</a>
</g>
</g>
<!-- Node211&#45;&gt;Node216 -->
<g id="edge11" class="edge">
<title>Node211&#45;&gt;Node216</title>
<path fill="none" stroke="#191970" d="M244.3443,-111.3097C265.0077,-99.3007 303.1703,-78.2986 337.9941,-65.5 346.4186,-62.4038 355.5374,-59.669 364.4782,-57.3083"/>
<polygon fill="#191970" stroke="#191970" points="365.6051,-60.634 374.4506,-54.8024 363.8991,-53.845 365.6051,-60.634"/>
</g>
<!-- Node217 -->
<g id="node11" class="node">
<title>Node217</title>
<g id="a_node11"><a xlink:href="class_c_connman.html#a6006659dcdda45215102e5982d4879a1" target="_top" xlink:title="set the &quot;dirty&quot; flag for the banlist ">
<polygon fill="#ffffff" stroke="#000000" points="337.9941,-.5 337.9941,-18.5 495.1807,-18.5 495.1807,-.5 337.9941,-.5"/>
<text text-anchor="middle" x="416.5874" y="-6.5" font-family="Helvetica,sans-Serif" font-size="10.00" fill="#000000">CConnman::SetBannedSetDirty</text>
</a>
</g>
</g>
<!-- Node211&#45;&gt;Node217 -->
<g id="edge12" class="edge">
<title>Node211&#45;&gt;Node217</title>
<path fill="none" stroke="#191970" d="M236.9892,-111.3239C253.7859,-92.7146 294.6934,-50.4433 337.9941,-28.5 343.2082,-25.8577 348.8055,-23.5723 354.5233,-21.5975"/>
<polygon fill="#191970" stroke="#191970" points="355.7186,-24.8908 364.2135,-18.5594 353.6244,-18.2114 355.7186,-24.8908"/>
</g>
<!-- Node213 -->
<g id="node7" class="node">
<title>Node213</title>
<g id="a_node7"><a xlink:href="utiltime_8cpp.html#a46fac5fba8ba905b5f9acb364f5d8c6f" target="_top" xlink:title="GetTimeMicros() and GetTimeMillis() both return the system time, but in different units...">
<polygon fill="#ffffff" stroke="#000000" points="704.3721,-111.5 704.3721,-129.5 758.3457,-129.5 758.3457,-111.5 704.3721,-111.5"/>
<text text-anchor="middle" x="731.3589" y="-117.5" font-family="Helvetica,sans-Serif" font-size="10.00" fill="#000000">GetTime</text>
</a>
</g>
</g>
<!-- Node212&#45;&gt;Node213 -->
<g id="edge6" class="edge">
<title>Node212&#45;&gt;Node213</title>
<path fill="none" stroke="#191970" d="M668.6506,-120.5C677.4705,-120.5 686.2164,-120.5 694.2524,-120.5"/>
<polygon fill="#191970" stroke="#191970" points="694.354,-124.0001 704.354,-120.5 694.354,-117.0001 694.354,-124.0001"/>
</g>
<!-- Node215&#45;&gt;Node212 -->
<g id="edge10" class="edge">
<title>Node215&#45;&gt;Node212</title>
<path fill="none" stroke="#191970" d="M461.4005,-92.5512C486.6661,-97.6543 518.4234,-104.0686 545.1402,-109.4647"/>
<polygon fill="#191970" stroke="#191970" points="544.6138,-112.929 555.1088,-111.4782 545.9997,-106.0676 544.6138,-112.929"/>
</g>
</g>
</svg>
