<?xml version="1.0" encoding="UTF-8" standalone="no"?>
<!DOCTYPE svg PUBLIC "-//W3C//DTD SVG 1.1//EN"
 "http://www.w3.org/Graphics/SVG/1.1/DTD/svg11.dtd">
<!-- Generated by graphviz version 2.40.1 (20161225.0304)
 -->
<!-- Title: AddressTableModel::GetDefaultAddressType Pages: 1 -->
<svg width="292pt" height="74pt"
 viewBox="0.00 0.00 291.68 74.00" xmlns="http://www.w3.org/2000/svg" xmlns:xlink="http://www.w3.org/1999/xlink">
<g id="graph0" class="graph" transform="scale(1 1) rotate(0) translate(4 70)">
<title>AddressTableModel::GetDefaultAddressType</title>
<polygon fill="#ffffff" stroke="transparent" points="-4,4 -4,-70 287.6836,-70 287.6836,4 -4,4"/>
<!-- Node90 -->
<g id="node1" class="node">
<title>Node90</title>
<polygon fill="#bfbfbf" stroke="#000000" points="0,-21.5 0,-49.5 122.1719,-49.5 122.1719,-21.5 0,-21.5"/>
<text text-anchor="start" x="8" y="-37.5" font-family="Helvetica,sans-Serif" font-size="10.00" fill="#000000">AddressTableModel::</text>
<text text-anchor="middle" x="61.0859" y="-27.5" font-family="Helvetica,sans-Serif" font-size="10.00" fill="#000000">GetDefaultAddressType</text>
</g>
<!-- Node91 -->
<g id="node2" class="node">
<title>Node91</title>
<g id="a_node2"><a xlink:href="class_wallet_model.html#aa3a3b4a8064de3af096dbf64bfe12655" target="_top" xlink:title="WalletModel::wallet">
<polygon fill="#ffffff" stroke="#000000" points="170.0396,-47.5 170.0396,-65.5 271.8159,-65.5 271.8159,-47.5 170.0396,-47.5"/>
<text text-anchor="middle" x="220.9277" y="-53.5" font-family="Helvetica,sans-Serif" font-size="10.00" fill="#000000">WalletModel::wallet</text>
</a>
</g>
</g>
<!-- Node90&#45;&gt;Node91 -->
<g id="edge1" class="edge">
<title>Node90&#45;&gt;Node91</title>
<path fill="none" stroke="#191970" d="M122.4278,-43.5591C134.6708,-45.1676 147.5296,-46.857 159.7665,-48.4646"/>
<polygon fill="#191970" stroke="#191970" points="159.5013,-51.9598 169.8721,-49.7923 160.4132,-45.0194 159.5013,-51.9598"/>
</g>
<!-- Node92 -->
<g id="node3" class="node">
<title>Node92</title>
<g id="a_node3"><a xlink:href="classinterfaces_1_1_wallet.html#a9f11e70bff77d0537689f275e7d22080" target="_top" xlink:title="interfaces::Wallet\l::getDefaultAddressType">
<polygon fill="#ffffff" stroke="#000000" points="158.1719,-.5 158.1719,-28.5 283.6836,-28.5 283.6836,-.5 158.1719,-.5"/>
<text text-anchor="start" x="166.1719" y="-16.5" font-family="Helvetica,sans-Serif" font-size="10.00" fill="#000000">interfaces::Wallet</text>
<text text-anchor="middle" x="220.9277" y="-6.5" font-family="Helvetica,sans-Serif" font-size="10.00" fill="#000000">::getDefaultAddressType</text>
</a>
</g>
</g>
<!-- Node90&#45;&gt;Node92 -->
<g id="edge2" class="edge">
<title>Node90&#45;&gt;Node92</title>
<path fill="none" stroke="#191970" d="M122.4278,-27.4409C130.8438,-26.3352 139.5509,-25.1913 148.1468,-24.0619"/>
<polygon fill="#191970" stroke="#191970" points="148.7038,-27.5189 158.1626,-22.7461 147.7919,-20.5786 148.7038,-27.5189"/>
</g>
</g>
</svg>
