<?xml version="1.0" encoding="UTF-8" standalone="no"?>
<!DOCTYPE svg PUBLIC "-//W3C//DTD SVG 1.1//EN"
 "http://www.w3.org/Graphics/SVG/1.1/DTD/svg11.dtd">
<!-- Generated by graphviz version 2.40.1 (20161225.0304)
 -->
<!-- Title: CZMQNotificationInterface::Initialize Pages: 1 -->
<svg width="312pt" height="37pt"
 viewBox="0.00 0.00 311.63 37.00" xmlns="http://www.w3.org/2000/svg" xmlns:xlink="http://www.w3.org/1999/xlink">
<g id="graph0" class="graph" transform="scale(1 1) rotate(0) translate(4 33)">
<title>CZMQNotificationInterface::Initialize</title>
<polygon fill="#ffffff" stroke="transparent" points="-4,4 -4,-33 307.6348,-33 307.6348,4 -4,4"/>
<!-- Node32 -->
<g id="node1" class="node">
<title>Node32</title>
<polygon fill="#bfbfbf" stroke="#000000" points="0,-.5 0,-28.5 133.8174,-28.5 133.8174,-.5 0,-.5"/>
<text text-anchor="start" x="8" y="-16.5" font-family="Helvetica,sans-Serif" font-size="10.00" fill="#000000">CZMQNotificationInterface</text>
<text text-anchor="middle" x="66.9087" y="-6.5" font-family="Helvetica,sans-Serif" font-size="10.00" fill="#000000">::Initialize</text>
</g>
<!-- Node33 -->
<g id="node2" class="node">
<title>Node33</title>
<g id="a_node2"><a xlink:href="class_c_z_m_q_notification_interface.html#a944fbc46eb50217ddebc88c8227ff1e4" target="_top" xlink:title="CZMQNotificationInterface\l::Create">
<polygon fill="#ffffff" stroke="#000000" points="169.8174,-.5 169.8174,-28.5 303.6348,-28.5 303.6348,-.5 169.8174,-.5"/>
<text text-anchor="start" x="177.8174" y="-16.5" font-family="Helvetica,sans-Serif" font-size="10.00" fill="#000000">CZMQNotificationInterface</text>
<text text-anchor="middle" x="236.7261" y="-6.5" font-family="Helvetica,sans-Serif" font-size="10.00" fill="#000000">::Create</text>
</a>
</g>
</g>
<!-- Node32&#45;&gt;Node33 -->
<g id="edge1" class="edge">
<title>Node32&#45;&gt;Node33</title>
<path fill="none" stroke="#191970" d="M144.2501,-14.5C152.6924,-14.5 161.2352,-14.5 169.5412,-14.5"/>
<polygon fill="#191970" stroke="#191970" points="144.0251,-11.0001 134.025,-14.5 144.025,-18.0001 144.0251,-11.0001"/>
</g>
</g>
</svg>
