<?xml version="1.0" encoding="UTF-8" standalone="no"?>
<!DOCTYPE svg PUBLIC "-//W3C//DTD SVG 1.1//EN"
 "http://www.w3.org/Graphics/SVG/1.1/DTD/svg11.dtd">
<!-- Generated by graphviz version 2.40.1 (20161225.0304)
 -->
<!-- Title: CMerkleTx::IsImmatureCoinBase Pages: 1 -->
<svg width="830pt" height="138pt"
 viewBox="0.00 0.00 829.97 138.00" xmlns="http://www.w3.org/2000/svg" xmlns:xlink="http://www.w3.org/1999/xlink">
<g id="graph0" class="graph" transform="scale(1 1) rotate(0) translate(4 134)">
<title>CMerkleTx::IsImmatureCoinBase</title>
<polygon fill="#ffffff" stroke="transparent" points="-4,4 -4,-134 825.9688,-134 825.9688,4 -4,4"/>
<!-- Node182 -->
<g id="node1" class="node">
<title>Node182</title>
<polygon fill="#bfbfbf" stroke="#000000" points="0,-76.5 0,-94.5 163.2607,-94.5 163.2607,-76.5 0,-76.5"/>
<text text-anchor="middle" x="81.6304" y="-82.5" font-family="Helvetica,sans-Serif" font-size="10.00" fill="#000000">CMerkleTx::IsImmatureCoinBase</text>
</g>
<!-- Node183 -->
<g id="node2" class="node">
<title>Node183</title>
<g id="a_node2"><a xlink:href="class_c_merkle_tx.html#adf7a2cf7e7e0fd77290f3bbdb41f5188" target="_top" xlink:title="CMerkleTx::GetBlocksToMaturity">
<polygon fill="#ffffff" stroke="#000000" points="199.2607,-76.5 199.2607,-94.5 360.8467,-94.5 360.8467,-76.5 199.2607,-76.5"/>
<text text-anchor="middle" x="280.0537" y="-82.5" font-family="Helvetica,sans-Serif" font-size="10.00" fill="#000000">CMerkleTx::GetBlocksToMaturity</text>
</a>
</g>
</g>
<!-- Node182&#45;&gt;Node183 -->
<g id="edge1" class="edge">
<title>Node182&#45;&gt;Node183</title>
<path fill="none" stroke="#191970" d="M163.4823,-85.5C171.8308,-85.5 180.3486,-85.5 188.7891,-85.5"/>
<polygon fill="#191970" stroke="#191970" points="189.0299,-89.0001 199.0298,-85.5 189.0298,-82.0001 189.0299,-89.0001"/>
</g>
<!-- Node184 -->
<g id="node3" class="node">
<title>Node184</title>
<g id="a_node3"><a xlink:href="class_c_merkle_tx.html#a5e7ef444cc0c2b875fba9c729ce83b10" target="_top" xlink:title="CMerkleTx::IsCoinBase">
<polygon fill="#ffffff" stroke="#000000" points="407.6865,-97.5 407.6865,-115.5 528.7158,-115.5 528.7158,-97.5 407.6865,-97.5"/>
<text text-anchor="middle" x="468.2012" y="-103.5" font-family="Helvetica,sans-Serif" font-size="10.00" fill="#000000">CMerkleTx::IsCoinBase</text>
</a>
</g>
</g>
<!-- Node183&#45;&gt;Node184 -->
<g id="edge2" class="edge">
<title>Node183&#45;&gt;Node184</title>
<path fill="none" stroke="#191970" d="M360.9371,-94.5278C373.0313,-95.8777 385.4222,-97.2607 397.2889,-98.5852"/>
<polygon fill="#191970" stroke="#191970" points="397.2349,-102.1008 407.5615,-99.7317 398.0115,-95.144 397.2349,-102.1008"/>
</g>
<!-- Node185 -->
<g id="node4" class="node">
<title>Node185</title>
<g id="a_node4"><a xlink:href="class_c_merkle_tx.html#a026579f00672e5b907faa77a1baa33c8" target="_top" xlink:title="Return depth of transaction in blockchain: &lt;0 : conflicts with a transaction this deep in the blockch...">
<polygon fill="#ffffff" stroke="#000000" points="396.8467,-50.5 396.8467,-78.5 539.5557,-78.5 539.5557,-50.5 396.8467,-50.5"/>
<text text-anchor="start" x="404.8467" y="-66.5" font-family="Helvetica,sans-Serif" font-size="10.00" fill="#000000">CMerkleTx::GetDepthInMain</text>
<text text-anchor="middle" x="468.2012" y="-56.5" font-family="Helvetica,sans-Serif" font-size="10.00" fill="#000000">Chain</text>
</a>
</g>
</g>
<!-- Node183&#45;&gt;Node185 -->
<g id="edge3" class="edge">
<title>Node183&#45;&gt;Node185</title>
<path fill="none" stroke="#191970" d="M360.9371,-76.4722C369.3633,-75.5318 377.9335,-74.5752 386.3701,-73.6335"/>
<polygon fill="#191970" stroke="#191970" points="387.0259,-77.0822 396.5759,-72.4944 386.2494,-70.1254 387.0259,-77.0822"/>
</g>
<!-- Node186 -->
<g id="node5" class="node">
<title>Node186</title>
<g id="a_node5"><a xlink:href="class_c_merkle_tx.html#aff66148b06d22c7ee555b79058211493" target="_top" xlink:title="CMerkleTx::hashUnset">
<polygon fill="#ffffff" stroke="#000000" points="575.5557,-111.5 575.5557,-129.5 693.2549,-129.5 693.2549,-111.5 575.5557,-111.5"/>
<text text-anchor="middle" x="634.4053" y="-117.5" font-family="Helvetica,sans-Serif" font-size="10.00" fill="#000000">CMerkleTx::hashUnset</text>
</a>
</g>
</g>
<!-- Node185&#45;&gt;Node186 -->
<g id="edge4" class="edge">
<title>Node185&#45;&gt;Node186</title>
<path fill="none" stroke="#191970" d="M510.9501,-78.5185C520.3994,-81.7173 530.3398,-85.1602 539.5557,-88.5 555.6958,-94.3491 559.3363,-96.8744 575.5557,-102.5 581.311,-104.4962 587.4218,-106.4961 593.4442,-108.399"/>
<polygon fill="#191970" stroke="#191970" points="592.8299,-111.8728 603.4179,-111.4921 594.9034,-105.187 592.8299,-111.8728"/>
</g>
<!-- Node188 -->
<g id="node7" class="node">
<title>Node188</title>
<g id="a_node7"><a xlink:href="validation_8h.html#a9d9b2d3b31edbd48ce62f4e2a73cc04c" target="_top" xlink:title="LookupBlockIndex">
<polygon fill="#ffffff" stroke="#000000" points="585.5435,-74.5 585.5435,-92.5 683.2671,-92.5 683.2671,-74.5 585.5435,-74.5"/>
<text text-anchor="middle" x="634.4053" y="-80.5" font-family="Helvetica,sans-Serif" font-size="10.00" fill="#000000">LookupBlockIndex</text>
</a>
</g>
</g>
<!-- Node185&#45;&gt;Node188 -->
<g id="edge6" class="edge">
<title>Node185&#45;&gt;Node188</title>
<path fill="none" stroke="#191970" d="M539.6512,-72.668C551.3721,-74.0079 563.4085,-75.3838 574.8027,-76.6864"/>
<polygon fill="#191970" stroke="#191970" points="574.7259,-80.2003 585.0588,-77.8588 575.521,-73.2456 574.7259,-80.2003"/>
</g>
<!-- Node189 -->
<g id="node8" class="node">
<title>Node189</title>
<g id="a_node8"><a xlink:href="class_c_chain.html#af1786dc229c215dea7f727c11df2c8dc" target="_top" xlink:title="Efficiently check whether a block is present in this chain. ">
<polygon fill="#ffffff" stroke="#000000" points="587.2183,-37.5 587.2183,-55.5 681.5923,-55.5 681.5923,-37.5 587.2183,-37.5"/>
<text text-anchor="middle" x="634.4053" y="-43.5" font-family="Helvetica,sans-Serif" font-size="10.00" fill="#000000">CChain::Contains</text>
</a>
</g>
</g>
<!-- Node185&#45;&gt;Node189 -->
<g id="edge7" class="edge">
<title>Node185&#45;&gt;Node189</title>
<path fill="none" stroke="#191970" d="M539.6512,-56.7619C552.0361,-55.4206 564.7733,-54.0412 576.7328,-52.746"/>
<polygon fill="#191970" stroke="#191970" points="577.4492,-56.1889 587.0142,-51.6325 576.6954,-49.2296 577.4492,-56.1889"/>
</g>
<!-- Node190 -->
<g id="node9" class="node">
<title>Node190</title>
<g id="a_node9"><a xlink:href="class_c_chain.html#ad4758bc8872ce065a9579f77c3171d40" target="_top" xlink:title="Return the maximal height in the chain. ">
<polygon fill="#ffffff" stroke="#000000" points="592.499,-.5 592.499,-18.5 676.3115,-18.5 676.3115,-.5 592.499,-.5"/>
<text text-anchor="middle" x="634.4053" y="-6.5" font-family="Helvetica,sans-Serif" font-size="10.00" fill="#000000">CChain::Height</text>
</a>
</g>
</g>
<!-- Node185&#45;&gt;Node190 -->
<g id="edge8" class="edge">
<title>Node185&#45;&gt;Node190</title>
<path fill="none" stroke="#191970" d="M509.7141,-50.458C529.6147,-43.7575 553.8018,-35.6589 575.5557,-28.5 582.2705,-26.2902 589.4243,-23.9603 596.3471,-21.7181"/>
<polygon fill="#191970" stroke="#191970" points="597.8064,-24.9249 606.2463,-18.5202 595.6545,-18.2638 597.8064,-24.9249"/>
</g>
<!-- Node187 -->
<g id="node6" class="node">
<title>Node187</title>
<g id="a_node6"><a xlink:href="classbase__blob.html#aba89c6722866a5850882a509d27d7bbd" target="_top" xlink:title="base_blob::IsNull">
<polygon fill="#ffffff" stroke="#000000" points="729.2549,-111.5 729.2549,-129.5 821.9688,-129.5 821.9688,-111.5 729.2549,-111.5"/>
<text text-anchor="middle" x="775.6118" y="-117.5" font-family="Helvetica,sans-Serif" font-size="10.00" fill="#000000">base_blob::IsNull</text>
</a>
</g>
</g>
<!-- Node186&#45;&gt;Node187 -->
<g id="edge5" class="edge">
<title>Node186&#45;&gt;Node187</title>
<path fill="none" stroke="#191970" d="M693.4714,-120.5C701.9606,-120.5 710.6784,-120.5 719.1161,-120.5"/>
<polygon fill="#191970" stroke="#191970" points="719.235,-124.0001 729.235,-120.5 719.2349,-117.0001 719.235,-124.0001"/>
</g>
</g>
</svg>
