<?xml version="1.0" encoding="UTF-8" standalone="no"?>
<!DOCTYPE svg PUBLIC "-//W3C//DTD SVG 1.1//EN"
 "http://www.w3.org/Graphics/SVG/1.1/DTD/svg11.dtd">
<!-- Generated by graphviz version 2.40.1 (20161225.0304)
 -->
<!-- Title: CDataStream::operator&gt;&gt; Pages: 1 -->
<svg width="357pt" height="27pt"
 viewBox="0.00 0.00 357.01 27.00" xmlns="http://www.w3.org/2000/svg" xmlns:xlink="http://www.w3.org/1999/xlink">
<g id="graph0" class="graph" transform="scale(1 1) rotate(0) translate(4 23)">
<title>CDataStream::operator&gt;&gt;</title>
<polygon fill="#ffffff" stroke="transparent" points="-4,4 -4,-23 353.0137,-23 353.0137,4 -4,4"/>
<!-- Node92 -->
<g id="node1" class="node">
<title>Node92</title>
<polygon fill="#bfbfbf" stroke="#000000" points="0,-.5 0,-18.5 131.0586,-18.5 131.0586,-.5 0,-.5"/>
<text text-anchor="middle" x="65.5293" y="-6.5" font-family="Helvetica,sans-Serif" font-size="10.00" fill="#000000">CDataStream::operator&gt;&gt;</text>
</g>
<!-- Node93 -->
<g id="node2" class="node">
<title>Node93</title>
<g id="a_node2"><a xlink:href="serialize_8h.html#a831d6932e65a64840bb55376f08fe0a6" target="_top" xlink:title="Unserialize">
<polygon fill="#ffffff" stroke="#000000" points="167.0586,-.5 167.0586,-18.5 232.5215,-18.5 232.5215,-.5 167.0586,-.5"/>
<text text-anchor="middle" x="199.79" y="-6.5" font-family="Helvetica,sans-Serif" font-size="10.00" fill="#000000">Unserialize</text>
</a>
</g>
</g>
<!-- Node92&#45;&gt;Node93 -->
<g id="edge1" class="edge">
<title>Node92&#45;&gt;Node93</title>
<path fill="none" stroke="#191970" d="M131.0864,-9.5C139.7919,-9.5 148.5327,-9.5 156.7227,-9.5"/>
<polygon fill="#191970" stroke="#191970" points="156.7581,-13.0001 166.7581,-9.5 156.758,-6.0001 156.7581,-13.0001"/>
</g>
<!-- Node94 -->
<g id="node3" class="node">
<title>Node94</title>
<g id="a_node3"><a xlink:href="serialize_8h.html#a1d1f53d2d72386236484546b49409188" target="_top" xlink:title="ser_readdata8">
<polygon fill="#ffffff" stroke="#000000" points="268.5215,-.5 268.5215,-18.5 349.0137,-18.5 349.0137,-.5 268.5215,-.5"/>
<text text-anchor="middle" x="308.7676" y="-6.5" font-family="Helvetica,sans-Serif" font-size="10.00" fill="#000000">ser_readdata8</text>
</a>
</g>
</g>
<!-- Node93&#45;&gt;Node94 -->
<g id="edge2" class="edge">
<title>Node93&#45;&gt;Node94</title>
<path fill="none" stroke="#191970" d="M232.7826,-9.5C240.7974,-9.5 249.5512,-9.5 258.1742,-9.5"/>
<polygon fill="#191970" stroke="#191970" points="258.1848,-13.0001 268.1847,-9.5 258.1847,-6.0001 258.1848,-13.0001"/>
</g>
</g>
</svg>
