<?xml version="1.0" encoding="UTF-8" standalone="no"?>
<!DOCTYPE svg PUBLIC "-//W3C//DTD SVG 1.1//EN"
 "http://www.w3.org/Graphics/SVG/1.1/DTD/svg11.dtd">
<!-- Generated by graphviz version 2.40.1 (20161225.0304)
 -->
<!-- Title: CoinControlDialog::viewItemChanged Pages: 1 -->
<svg width="1169pt" height="353pt"
 viewBox="0.00 0.00 1169.43 353.00" xmlns="http://www.w3.org/2000/svg" xmlns:xlink="http://www.w3.org/1999/xlink">
<g id="graph0" class="graph" transform="scale(1 1) rotate(0) translate(4 349)">
<title>CoinControlDialog::viewItemChanged</title>
<polygon fill="#ffffff" stroke="transparent" points="-4,4 -4,-349 1165.4258,-349 1165.4258,4 -4,4"/>
<!-- Node562 -->
<g id="node1" class="node">
<title>Node562</title>
<polygon fill="#bfbfbf" stroke="#000000" points="0,-237.5 0,-265.5 102.709,-265.5 102.709,-237.5 0,-237.5"/>
<text text-anchor="start" x="8" y="-253.5" font-family="Helvetica,sans-Serif" font-size="10.00" fill="#000000">CoinControlDialog::</text>
<text text-anchor="middle" x="51.3545" y="-243.5" font-family="Helvetica,sans-Serif" font-size="10.00" fill="#000000">viewItemChanged</text>
</g>
<!-- Node563 -->
<g id="node2" class="node">
<title>Node563</title>
<g id="a_node2"><a xlink:href="uint256_8h.html#a52e679560cc1ebf68f878ed69e38f259" target="_top" xlink:title="uint256S">
<polygon fill="#ffffff" stroke="#000000" points="165.6572,-323.5 165.6572,-341.5 221.1348,-341.5 221.1348,-323.5 165.6572,-323.5"/>
<text text-anchor="middle" x="193.396" y="-329.5" font-family="Helvetica,sans-Serif" font-size="10.00" fill="#000000">uint256S</text>
</a>
</g>
</g>
<!-- Node562&#45;&gt;Node563 -->
<g id="edge1" class="edge">
<title>Node562&#45;&gt;Node563</title>
<path fill="none" stroke="#191970" d="M72.9109,-265.6218C90.3853,-276.8744 115.7858,-292.7936 138.709,-305.5 147.0524,-310.1248 156.2965,-314.8384 164.7738,-319.0056"/>
<polygon fill="#191970" stroke="#191970" points="163.4052,-322.2317 173.9304,-323.4444 166.4588,-315.9328 163.4052,-322.2317"/>
</g>
<!-- Node565 -->
<g id="node4" class="node">
<title>Node565</title>
<g id="a_node4"><a xlink:href="class_coin_control_dialog.html#ad6c08e81a0cfc70cbf6e40f65857ab98" target="_top" xlink:title="CoinControlDialog::\lcoinControl">
<polygon fill="#ffffff" stroke="#000000" points="300.7578,-279.5 300.7578,-307.5 403.4668,-307.5 403.4668,-279.5 300.7578,-279.5"/>
<text text-anchor="start" x="308.7578" y="-295.5" font-family="Helvetica,sans-Serif" font-size="10.00" fill="#000000">CoinControlDialog::</text>
<text text-anchor="middle" x="352.1123" y="-285.5" font-family="Helvetica,sans-Serif" font-size="10.00" fill="#000000">coinControl</text>
</a>
</g>
</g>
<!-- Node562&#45;&gt;Node565 -->
<g id="edge3" class="edge">
<title>Node562&#45;&gt;Node565</title>
<path fill="none" stroke="#191970" d="M103.0514,-260.0347C114.7663,-261.8993 127.1579,-263.8169 138.709,-265.5 189.8857,-272.9568 248.1023,-280.5349 290.7881,-285.9236"/>
<polygon fill="#191970" stroke="#191970" points="290.3844,-289.4003 300.7432,-287.1762 291.2584,-282.4551 290.3844,-289.4003"/>
</g>
<!-- Node566 -->
<g id="node5" class="node">
<title>Node566</title>
<g id="a_node5"><a xlink:href="class_c_coin_control.html#a7f9b8135840df5907bc49a4c5cb19ba4" target="_top" xlink:title="CCoinControl::UnSelect">
<polygon fill="#ffffff" stroke="#000000" points="291.0337,-242.5 291.0337,-260.5 413.1909,-260.5 413.1909,-242.5 291.0337,-242.5"/>
<text text-anchor="middle" x="352.1123" y="-248.5" font-family="Helvetica,sans-Serif" font-size="10.00" fill="#000000">CCoinControl::UnSelect</text>
</a>
</g>
</g>
<!-- Node562&#45;&gt;Node566 -->
<g id="edge4" class="edge">
<title>Node562&#45;&gt;Node566</title>
<path fill="none" stroke="#191970" d="M102.7149,-251.5C151.6544,-251.5 225.7812,-251.5 280.5103,-251.5"/>
<polygon fill="#191970" stroke="#191970" points="280.8384,-255.0001 290.8384,-251.5 280.8384,-248.0001 280.8384,-255.0001"/>
</g>
<!-- Node567 -->
<g id="node6" class="node">
<title>Node567</title>
<g id="a_node6"><a xlink:href="class_c_coin_control.html#a7903e85623ba9b21583bd4018d17546c" target="_top" xlink:title="CCoinControl::Select">
<polygon fill="#ffffff" stroke="#000000" points="138.709,-141.5 138.709,-159.5 248.083,-159.5 248.083,-141.5 138.709,-141.5"/>
<text text-anchor="middle" x="193.396" y="-147.5" font-family="Helvetica,sans-Serif" font-size="10.00" fill="#000000">CCoinControl::Select</text>
</a>
</g>
</g>
<!-- Node562&#45;&gt;Node567 -->
<g id="edge5" class="edge">
<title>Node562&#45;&gt;Node567</title>
<path fill="none" stroke="#191970" d="M62.969,-237.4167C78.5153,-219.384 107.7422,-188.2349 138.709,-169.5 142.5372,-167.184 146.6876,-165.0989 150.9324,-163.2345"/>
<polygon fill="#191970" stroke="#191970" points="152.2968,-166.4584 160.2874,-159.5014 149.7024,-159.957 152.2968,-166.4584"/>
</g>
<!-- Node568 -->
<g id="node7" class="node">
<title>Node568</title>
<g id="a_node7"><a xlink:href="class_coin_control_dialog.html#a4fc60e89b097952ff22dc0f9c58c87d9" target="_top" xlink:title="CoinControlDialog::\lupdateLabels">
<polygon fill="#ffffff" stroke="#000000" points="142.0415,-178.5 142.0415,-206.5 244.7505,-206.5 244.7505,-178.5 142.0415,-178.5"/>
<text text-anchor="start" x="150.0415" y="-194.5" font-family="Helvetica,sans-Serif" font-size="10.00" fill="#000000">CoinControlDialog::</text>
<text text-anchor="middle" x="193.396" y="-184.5" font-family="Helvetica,sans-Serif" font-size="10.00" fill="#000000">updateLabels</text>
</a>
</g>
</g>
<!-- Node562&#45;&gt;Node568 -->
<g id="edge6" class="edge">
<title>Node562&#45;&gt;Node568</title>
<path fill="none" stroke="#191970" d="M85.377,-237.368C104.8784,-229.2677 129.5436,-219.0225 150.3796,-210.3678"/>
<polygon fill="#191970" stroke="#191970" points="151.7587,-213.5849 159.6511,-206.5167 149.0735,-207.1204 151.7587,-213.5849"/>
</g>
<!-- Node564 -->
<g id="node3" class="node">
<title>Node564</title>
<g id="a_node3"><a xlink:href="classbase__blob.html#a5ec1f681a2830f4e180fe664c0eb4dd0" target="_top" xlink:title="base_blob::SetHex">
<polygon fill="#ffffff" stroke="#000000" points="301.8613,-326.5 301.8613,-344.5 402.3633,-344.5 402.3633,-326.5 301.8613,-326.5"/>
<text text-anchor="middle" x="352.1123" y="-332.5" font-family="Helvetica,sans-Serif" font-size="10.00" fill="#000000">base_blob::SetHex</text>
</a>
</g>
</g>
<!-- Node563&#45;&gt;Node564 -->
<g id="edge2" class="edge">
<title>Node563&#45;&gt;Node564</title>
<path fill="none" stroke="#191970" d="M221.4059,-333.0294C240.7952,-333.3959 267.3514,-333.8979 291.4637,-334.3536"/>
<polygon fill="#191970" stroke="#191970" points="291.5556,-337.8559 301.62,-334.5456 291.688,-330.8572 291.5556,-337.8559"/>
</g>
<!-- Node568&#45;&gt;Node565 -->
<g id="edge27" class="edge">
<title>Node568&#45;&gt;Node565</title>
<path fill="none" stroke="#191970" d="M206.5472,-206.7698C223.1341,-224.0179 253.2336,-252.9114 284.083,-270.5 287.0987,-272.2194 290.2631,-273.8368 293.5083,-275.3542"/>
<polygon fill="#191970" stroke="#191970" points="292.2427,-278.6199 302.8112,-279.3668 295.0152,-272.1923 292.2427,-278.6199"/>
</g>
<!-- Node568&#45;&gt;Node566 -->
<g id="edge31" class="edge">
<title>Node568&#45;&gt;Node566</title>
<path fill="none" stroke="#191970" d="M221.4891,-206.6611C239.1541,-215.197 262.5934,-225.8588 284.083,-233.5 290.2018,-235.6757 296.7127,-237.724 303.189,-239.6039"/>
<polygon fill="#191970" stroke="#191970" points="302.7038,-243.1019 313.2762,-242.4136 304.5821,-236.3586 302.7038,-243.1019"/>
</g>
<!-- Node569 -->
<g id="node8" class="node">
<title>Node569</title>
<g id="a_node8"><a xlink:href="policy_8cpp.html#ab18c1023518f2920e34e05ca324d0ebb" target="_top" xlink:title="IsDust">
<polygon fill="#ffffff" stroke="#000000" points="329.9424,-84.5 329.9424,-102.5 374.2822,-102.5 374.2822,-84.5 329.9424,-84.5"/>
<text text-anchor="middle" x="352.1123" y="-90.5" font-family="Helvetica,sans-Serif" font-size="10.00" fill="#000000">IsDust</text>
</a>
</g>
</g>
<!-- Node568&#45;&gt;Node569 -->
<g id="edge7" class="edge">
<title>Node568&#45;&gt;Node569</title>
<path fill="none" stroke="#191970" d="M234.7258,-178.4064C239.4933,-175.8505 244.0749,-172.8952 248.083,-169.5 270.9458,-150.1333 260.0484,-130.3917 284.083,-112.5 294.3536,-104.8544 307.5632,-100.2849 319.6058,-97.554"/>
<polygon fill="#191970" stroke="#191970" points="320.626,-100.922 329.785,-95.5963 319.3039,-94.0479 320.626,-100.922"/>
</g>
<!-- Node582 -->
<g id="node21" class="node">
<title>Node582</title>
<g id="a_node21"><a xlink:href="class_wallet_model.html#ae61543ccde5a5911137f8e7ecf52126e" target="_top" xlink:title="WalletModel::node">
<polygon fill="#ffffff" stroke="#000000" points="302.8843,-47.5 302.8843,-65.5 401.3403,-65.5 401.3403,-47.5 302.8843,-47.5"/>
<text text-anchor="middle" x="352.1123" y="-53.5" font-family="Helvetica,sans-Serif" font-size="10.00" fill="#000000">WalletModel::node</text>
</a>
</g>
</g>
<!-- Node568&#45;&gt;Node582 -->
<g id="edge25" class="edge">
<title>Node568&#45;&gt;Node582</title>
<path fill="none" stroke="#191970" d="M236.497,-178.4955C240.7417,-175.9542 244.7158,-172.978 248.083,-169.5 279.2006,-137.3585 251.0071,-105.6225 284.083,-75.5 286.9247,-72.912 290.0904,-70.6729 293.4581,-68.7361"/>
<polygon fill="#191970" stroke="#191970" points="295.2519,-71.7578 302.7606,-64.2832 292.2296,-65.4439 295.2519,-71.7578"/>
</g>
<!-- Node583 -->
<g id="node22" class="node">
<title>Node583</title>
<g id="a_node22"><a xlink:href="classinterfaces_1_1_node.html#af4f0bfc100d1bff9862b55adef983f9d" target="_top" xlink:title="Get dust relay fee. ">
<polygon fill="#ffffff" stroke="#000000" points="287.6938,-.5 287.6938,-28.5 416.5308,-28.5 416.5308,-.5 287.6938,-.5"/>
<text text-anchor="start" x="295.6938" y="-16.5" font-family="Helvetica,sans-Serif" font-size="10.00" fill="#000000">interfaces::Node::getDust</text>
<text text-anchor="middle" x="352.1123" y="-6.5" font-family="Helvetica,sans-Serif" font-size="10.00" fill="#000000">RelayFee</text>
</a>
</g>
</g>
<!-- Node568&#45;&gt;Node583 -->
<g id="edge26" class="edge">
<title>Node568&#45;&gt;Node583</title>
<path fill="none" stroke="#191970" d="M237.3761,-178.481C241.3528,-175.9526 245.0253,-172.9832 248.083,-169.5 287.9168,-124.1227 242.929,-82.6834 284.083,-38.5 285.4595,-37.0222 286.9324,-35.6354 288.4843,-34.3339"/>
<polygon fill="#191970" stroke="#191970" points="290.6254,-37.1076 296.8193,-28.5119 286.617,-31.369 290.6254,-37.1076"/>
</g>
<!-- Node584 -->
<g id="node23" class="node">
<title>Node584</title>
<g id="a_node23"><a xlink:href="class_c_coin_control.html#ad2022117a10ff787973af3d7aa62df6f" target="_top" xlink:title="CCoinControl::ListSelected">
<polygon fill="#ffffff" stroke="#000000" points="284.083,-205.5 284.083,-223.5 420.1416,-223.5 420.1416,-205.5 284.083,-205.5"/>
<text text-anchor="middle" x="352.1123" y="-211.5" font-family="Helvetica,sans-Serif" font-size="10.00" fill="#000000">CCoinControl::ListSelected</text>
</a>
</g>
</g>
<!-- Node568&#45;&gt;Node584 -->
<g id="edge28" class="edge">
<title>Node568&#45;&gt;Node584</title>
<path fill="none" stroke="#191970" d="M244.9266,-199.6428C255.1832,-201.0645 266.1499,-202.5846 277.0099,-204.0899"/>
<polygon fill="#191970" stroke="#191970" points="276.5442,-207.5587 286.9301,-205.465 277.5054,-200.625 276.5442,-207.5587"/>
</g>
<!-- Node585 -->
<g id="node24" class="node">
<title>Node585</title>
<g id="a_node24"><a xlink:href="class_wallet_model.html#aa3a3b4a8064de3af096dbf64bfe12655" target="_top" xlink:title="WalletModel::wallet">
<polygon fill="#ffffff" stroke="#000000" points="301.2241,-168.5 301.2241,-186.5 403.0005,-186.5 403.0005,-168.5 301.2241,-168.5"/>
<text text-anchor="middle" x="352.1123" y="-174.5" font-family="Helvetica,sans-Serif" font-size="10.00" fill="#000000">WalletModel::wallet</text>
</a>
</g>
</g>
<!-- Node568&#45;&gt;Node585 -->
<g id="edge29" class="edge">
<title>Node568&#45;&gt;Node585</title>
<path fill="none" stroke="#191970" d="M244.9266,-187.6299C259.5619,-186.2468 275.643,-184.727 290.7972,-183.2948"/>
<polygon fill="#191970" stroke="#191970" points="291.485,-186.7455 301.1113,-182.32 290.8263,-179.7765 291.485,-186.7455"/>
</g>
<!-- Node586 -->
<g id="node25" class="node">
<title>Node586</title>
<g id="a_node25"><a xlink:href="classinterfaces_1_1_wallet.html#a63b25a1dca191dfb5ec9b19c3b542dbf" target="_top" xlink:title="Return wallet transaction output information. ">
<polygon fill="#ffffff" stroke="#000000" points="305.9482,-121.5 305.9482,-149.5 398.2764,-149.5 398.2764,-121.5 305.9482,-121.5"/>
<text text-anchor="start" x="313.9482" y="-137.5" font-family="Helvetica,sans-Serif" font-size="10.00" fill="#000000">interfaces::Wallet</text>
<text text-anchor="middle" x="352.1123" y="-127.5" font-family="Helvetica,sans-Serif" font-size="10.00" fill="#000000">::getCoins</text>
</a>
</g>
</g>
<!-- Node568&#45;&gt;Node586 -->
<g id="edge30" class="edge">
<title>Node568&#45;&gt;Node586</title>
<path fill="none" stroke="#191970" d="M231.7556,-178.4468C247.8987,-172.5573 266.8912,-165.6603 284.083,-159.5 290.0406,-157.3652 296.2969,-155.1381 302.5018,-152.9383"/>
<polygon fill="#191970" stroke="#191970" points="303.8999,-156.1563 312.1597,-149.5211 301.5649,-149.5572 303.8999,-156.1563"/>
</g>
<!-- Node570 -->
<g id="node9" class="node">
<title>Node570</title>
<g id="a_node9"><a xlink:href="policy_8cpp.html#a7b1001b4a41a02d9469e3b6985587300" target="_top" xlink:title="GetDustThreshold">
<polygon fill="#ffffff" stroke="#000000" points="456.1416,-84.5 456.1416,-102.5 553.2891,-102.5 553.2891,-84.5 456.1416,-84.5"/>
<text text-anchor="middle" x="504.7153" y="-90.5" font-family="Helvetica,sans-Serif" font-size="10.00" fill="#000000">GetDustThreshold</text>
</a>
</g>
</g>
<!-- Node569&#45;&gt;Node570 -->
<g id="edge8" class="edge">
<title>Node569&#45;&gt;Node570</title>
<path fill="none" stroke="#191970" d="M374.3021,-93.5C393.0469,-93.5 420.7684,-93.5 445.8385,-93.5"/>
<polygon fill="#191970" stroke="#191970" points="446.0194,-97.0001 456.0194,-93.5 446.0194,-90.0001 446.0194,-97.0001"/>
</g>
<!-- Node571 -->
<g id="node10" class="node">
<title>Node571</title>
<g id="a_node10"><a xlink:href="class_c_script.html#a11c26ad1d03fa2d60a733337c21b6719" target="_top" xlink:title="Returns whether the script is guaranteed to fail at execution, regardless of the initial stack...">
<polygon fill="#ffffff" stroke="#000000" points="596.7744,-121.5 596.7744,-139.5 717.8281,-139.5 717.8281,-121.5 596.7744,-121.5"/>
<text text-anchor="middle" x="657.3013" y="-127.5" font-family="Helvetica,sans-Serif" font-size="10.00" fill="#000000">CScript::IsUnspendable</text>
</a>
</g>
</g>
<!-- Node570&#45;&gt;Node571 -->
<g id="edge9" class="edge">
<title>Node570&#45;&gt;Node571</title>
<path fill="none" stroke="#191970" d="M542.0421,-102.5512C562.6234,-107.5419 588.3763,-113.7866 610.316,-119.1067"/>
<polygon fill="#191970" stroke="#191970" points="609.5526,-122.523 620.0958,-121.4782 611.2022,-115.7201 609.5526,-122.523"/>
</g>
<!-- Node578 -->
<g id="node17" class="node">
<title>Node578</title>
<g id="a_node17"><a xlink:href="serialize_8h.html#adb5a4516b4946127a59c79d21efd61ca" target="_top" xlink:title="GetSerializeSize">
<polygon fill="#ffffff" stroke="#000000" points="612.3408,-47.5 612.3408,-65.5 702.2617,-65.5 702.2617,-47.5 612.3408,-47.5"/>
<text text-anchor="middle" x="657.3013" y="-53.5" font-family="Helvetica,sans-Serif" font-size="10.00" fill="#000000">GetSerializeSize</text>
</a>
</g>
</g>
<!-- Node570&#45;&gt;Node578 -->
<g id="edge17" class="edge">
<title>Node570&#45;&gt;Node578</title>
<path fill="none" stroke="#191970" d="M542.0421,-84.4488C562.6234,-79.4581 588.3763,-73.2134 610.316,-67.8933"/>
<polygon fill="#191970" stroke="#191970" points="611.2022,-71.2799 620.0958,-65.5218 609.5526,-64.477 611.2022,-71.2799"/>
</g>
<!-- Node579 -->
<g id="node18" class="node">
<title>Node579</title>
<g id="a_node18"><a xlink:href="class_c_script.html#ae6f2ab1af6361c5772f62b28b19f5eae" target="_top" xlink:title="CScript::IsWitnessProgram">
<polygon fill="#ffffff" stroke="#000000" points="589.2891,-84.5 589.2891,-102.5 725.3135,-102.5 725.3135,-84.5 589.2891,-84.5"/>
<text text-anchor="middle" x="657.3013" y="-90.5" font-family="Helvetica,sans-Serif" font-size="10.00" fill="#000000">CScript::IsWitnessProgram</text>
</a>
</g>
</g>
<!-- Node570&#45;&gt;Node579 -->
<g id="edge18" class="edge">
<title>Node570&#45;&gt;Node579</title>
<path fill="none" stroke="#191970" d="M553.414,-93.5C561.5634,-93.5 570.1982,-93.5 578.8699,-93.5"/>
<polygon fill="#191970" stroke="#191970" points="579.0399,-97.0001 589.0398,-93.5 579.0398,-90.0001 579.0399,-97.0001"/>
</g>
<!-- Node572 -->
<g id="node11" class="node">
<title>Node572</title>
<g id="a_node11"><a xlink:href="classprevector.html#a626f7d206dbc24e5610631809762758b" target="_top" xlink:title="prevector::size">
<polygon fill="#ffffff" stroke="#000000" points="922.5225,-84.5 922.5225,-102.5 1003.5469,-102.5 1003.5469,-84.5 922.5225,-84.5"/>
<text text-anchor="middle" x="963.0347" y="-90.5" font-family="Helvetica,sans-Serif" font-size="10.00" fill="#000000">prevector::size</text>
</a>
</g>
</g>
<!-- Node571&#45;&gt;Node572 -->
<g id="edge10" class="edge">
<title>Node571&#45;&gt;Node572</title>
<path fill="none" stroke="#191970" d="M680.9105,-139.5163C722.4644,-153.9007 810.5878,-177.6921 877.3525,-149.5 898.4893,-140.5748 894.1884,-125.1156 913.3525,-112.5 916.6428,-110.3341 920.2159,-108.3624 923.8863,-106.5804"/>
<polygon fill="#191970" stroke="#191970" points="925.3515,-109.7597 933.1047,-102.539 922.5408,-103.3488 925.3515,-109.7597"/>
</g>
<!-- Node574 -->
<g id="node13" class="node">
<title>Node574</title>
<g id="a_node13"><a xlink:href="classprevector.html#aa9210cbe708412a70868d6e0bca844c9" target="_top" xlink:title="prevector::begin">
<polygon fill="#ffffff" stroke="#000000" points="775.4785,-121.5 775.4785,-139.5 863.1875,-139.5 863.1875,-121.5 775.4785,-121.5"/>
<text text-anchor="middle" x="819.333" y="-127.5" font-family="Helvetica,sans-Serif" font-size="10.00" fill="#000000">prevector::begin</text>
</a>
</g>
</g>
<!-- Node571&#45;&gt;Node574 -->
<g id="edge12" class="edge">
<title>Node571&#45;&gt;Node574</title>
<path fill="none" stroke="#191970" d="M718.0969,-130.5C733.5648,-130.5 750.0832,-130.5 765.1947,-130.5"/>
<polygon fill="#191970" stroke="#191970" points="765.4015,-134.0001 775.4014,-130.5 765.4014,-127.0001 765.4015,-134.0001"/>
</g>
<!-- Node573 -->
<g id="node12" class="node">
<title>Node573</title>
<g id="a_node12"><a xlink:href="classprevector.html#a933e204a7e29c6bbc85479d023c00ff8" target="_top" xlink:title="prevector::is_direct">
<polygon fill="#ffffff" stroke="#000000" points="1054.8325,-84.5 1054.8325,-102.5 1155.3101,-102.5 1155.3101,-84.5 1054.8325,-84.5"/>
<text text-anchor="middle" x="1105.0713" y="-90.5" font-family="Helvetica,sans-Serif" font-size="10.00" fill="#000000">prevector::is_direct</text>
</a>
</g>
</g>
<!-- Node572&#45;&gt;Node573 -->
<g id="edge11" class="edge">
<title>Node572&#45;&gt;Node573</title>
<path fill="none" stroke="#191970" d="M1003.7367,-93.5C1016.4096,-93.5 1030.6681,-93.5 1044.3993,-93.5"/>
<polygon fill="#191970" stroke="#191970" points="1044.7618,-97.0001 1054.7618,-93.5 1044.7618,-90.0001 1044.7618,-97.0001"/>
</g>
<!-- Node575 -->
<g id="node14" class="node">
<title>Node575</title>
<g id="a_node14"><a xlink:href="classprevector.html#a59f1d7bcbc751cfa0faddd7ffa184846" target="_top" xlink:title="prevector::item_ptr">
<polygon fill="#ffffff" stroke="#000000" points="913.3525,-121.5 913.3525,-139.5 1012.7168,-139.5 1012.7168,-121.5 913.3525,-121.5"/>
<text text-anchor="middle" x="963.0347" y="-127.5" font-family="Helvetica,sans-Serif" font-size="10.00" fill="#000000">prevector::item_ptr</text>
</a>
</g>
</g>
<!-- Node574&#45;&gt;Node575 -->
<g id="edge13" class="edge">
<title>Node574&#45;&gt;Node575</title>
<path fill="none" stroke="#191970" d="M863.2291,-130.5C875.7918,-130.5 889.7053,-130.5 903.0563,-130.5"/>
<polygon fill="#191970" stroke="#191970" points="903.1246,-134.0001 913.1246,-130.5 903.1245,-127.0001 903.1246,-134.0001"/>
</g>
<!-- Node575&#45;&gt;Node573 -->
<g id="edge14" class="edge">
<title>Node575&#45;&gt;Node573</title>
<path fill="none" stroke="#191970" d="M997.7807,-121.4488C1016.61,-116.5438 1040.0892,-110.4276 1060.2787,-105.1683"/>
<polygon fill="#191970" stroke="#191970" points="1061.3969,-108.4939 1070.1917,-102.586 1059.6323,-101.72 1061.3969,-108.4939"/>
</g>
<!-- Node576 -->
<g id="node15" class="node">
<title>Node576</title>
<g id="a_node15"><a xlink:href="classprevector.html#a20150a43dd87c33f0e855a55bd3418e8" target="_top" xlink:title="prevector::direct_ptr">
<polygon fill="#ffffff" stroke="#000000" points="1052.6084,-158.5 1052.6084,-176.5 1157.5342,-176.5 1157.5342,-158.5 1052.6084,-158.5"/>
<text text-anchor="middle" x="1105.0713" y="-164.5" font-family="Helvetica,sans-Serif" font-size="10.00" fill="#000000">prevector::direct_ptr</text>
</a>
</g>
</g>
<!-- Node575&#45;&gt;Node576 -->
<g id="edge15" class="edge">
<title>Node575&#45;&gt;Node576</title>
<path fill="none" stroke="#191970" d="M997.7807,-139.5512C1016.61,-144.4562 1040.0892,-150.5724 1060.2787,-155.8317"/>
<polygon fill="#191970" stroke="#191970" points="1059.6323,-159.28 1070.1917,-158.414 1061.3969,-152.5061 1059.6323,-159.28"/>
</g>
<!-- Node577 -->
<g id="node16" class="node">
<title>Node577</title>
<g id="a_node16"><a xlink:href="classprevector.html#ae3343cc65be9fd678b4a6f8305624de6" target="_top" xlink:title="prevector::indirect_ptr">
<polygon fill="#ffffff" stroke="#000000" points="1048.7168,-121.5 1048.7168,-139.5 1161.4258,-139.5 1161.4258,-121.5 1048.7168,-121.5"/>
<text text-anchor="middle" x="1105.0713" y="-127.5" font-family="Helvetica,sans-Serif" font-size="10.00" fill="#000000">prevector::indirect_ptr</text>
</a>
</g>
</g>
<!-- Node575&#45;&gt;Node577 -->
<g id="edge16" class="edge">
<title>Node575&#45;&gt;Node577</title>
<path fill="none" stroke="#191970" d="M1013.1115,-130.5C1021.378,-130.5 1030.0602,-130.5 1038.6523,-130.5"/>
<polygon fill="#191970" stroke="#191970" points="1038.6669,-134.0001 1048.6669,-130.5 1038.6668,-127.0001 1038.6669,-134.0001"/>
</g>
<!-- Node579&#45;&gt;Node572 -->
<g id="edge19" class="edge">
<title>Node579&#45;&gt;Node572</title>
<path fill="none" stroke="#191970" d="M699.5963,-84.4885C718.3987,-80.9213 740.8636,-77.2564 761.3135,-75.5 812.6972,-71.0867 826.0558,-70.17 877.3525,-75.5 890.846,-76.902 905.3451,-79.5143 918.5087,-82.3225"/>
<polygon fill="#191970" stroke="#191970" points="917.7548,-85.7403 928.2758,-84.4914 919.2723,-78.9067 917.7548,-85.7403"/>
</g>
<!-- Node579&#45;&gt;Node574 -->
<g id="edge21" class="edge">
<title>Node579&#45;&gt;Node574</title>
<path fill="none" stroke="#191970" d="M696.9387,-102.5512C718.991,-107.5869 746.6344,-113.8992 770.0678,-119.2503"/>
<polygon fill="#191970" stroke="#191970" points="769.2961,-122.6641 779.8243,-121.4782 770.8545,-115.8397 769.2961,-122.6641"/>
</g>
<!-- Node580 -->
<g id="node19" class="node">
<title>Node580</title>
<g id="a_node19"><a xlink:href="class_c_script.html#a7f975fca06b3e9a17da8ba23c7647e2e" target="_top" xlink:title="Encode/decode small integers: ">
<polygon fill="#ffffff" stroke="#000000" points="761.3135,-8.5 761.3135,-26.5 877.3525,-26.5 877.3525,-8.5 761.3135,-8.5"/>
<text text-anchor="middle" x="819.333" y="-14.5" font-family="Helvetica,sans-Serif" font-size="10.00" fill="#000000">CScript::DecodeOP_N</text>
</a>
</g>
</g>
<!-- Node579&#45;&gt;Node580 -->
<g id="edge20" class="edge">
<title>Node579&#45;&gt;Node580</title>
<path fill="none" stroke="#191970" d="M703.8775,-84.4998C711.2949,-82.1366 718.6962,-79.1822 725.3135,-75.5 744.5445,-64.7989 742.839,-53.4599 761.3135,-41.5 767.7303,-37.3459 774.9851,-33.6668 782.1374,-30.5142"/>
<polygon fill="#191970" stroke="#191970" points="783.8336,-33.6004 791.7387,-26.5463 781.16,-27.1311 783.8336,-33.6004"/>
</g>
<!-- Node581 -->
<g id="node20" class="node">
<title>Node581</title>
<g id="a_node20"><a xlink:href="classprevector.html#aab7f6e13a3cac85cc340fc6b90c5365c" target="_top" xlink:title="prevector::end">
<polygon fill="#ffffff" stroke="#000000" points="779.3701,-84.5 779.3701,-102.5 859.2959,-102.5 859.2959,-84.5 779.3701,-84.5"/>
<text text-anchor="middle" x="819.333" y="-90.5" font-family="Helvetica,sans-Serif" font-size="10.00" fill="#000000">prevector::end</text>
</a>
</g>
</g>
<!-- Node579&#45;&gt;Node581 -->
<g id="edge22" class="edge">
<title>Node579&#45;&gt;Node581</title>
<path fill="none" stroke="#191970" d="M725.5477,-93.5C740.1589,-93.5 755.3384,-93.5 769.1206,-93.5"/>
<polygon fill="#191970" stroke="#191970" points="769.355,-97.0001 779.3549,-93.5 769.3549,-90.0001 769.355,-97.0001"/>
</g>
<!-- Node581&#45;&gt;Node572 -->
<g id="edge24" class="edge">
<title>Node581&#45;&gt;Node572</title>
<path fill="none" stroke="#191970" d="M859.3619,-93.5C875.815,-93.5 895.0579,-93.5 912.4681,-93.5"/>
<polygon fill="#191970" stroke="#191970" points="912.4722,-97.0001 922.4722,-93.5 912.4721,-90.0001 912.4722,-97.0001"/>
</g>
<!-- Node581&#45;&gt;Node575 -->
<g id="edge23" class="edge">
<title>Node581&#45;&gt;Node575</title>
<path fill="none" stroke="#191970" d="M854.4864,-102.5512C873.6233,-107.4786 897.5079,-113.6283 917.9966,-118.9037"/>
<polygon fill="#191970" stroke="#191970" points="917.1893,-122.3099 927.7462,-121.414 918.9347,-115.531 917.1893,-122.3099"/>
</g>
</g>
</svg>
