<?xml version="1.0" encoding="UTF-8" standalone="no"?>
<!DOCTYPE svg PUBLIC "-//W3C//DTD SVG 1.1//EN"
 "http://www.w3.org/Graphics/SVG/1.1/DTD/svg11.dtd">
<!-- Generated by graphviz version 2.40.1 (20161225.0304)
 -->
<!-- Title: CAddrInfo::GetBucketPosition Pages: 1 -->
<svg width="1210pt" height="214pt"
 viewBox="0.00 0.00 1209.79 214.00" xmlns="http://www.w3.org/2000/svg" xmlns:xlink="http://www.w3.org/1999/xlink">
<g id="graph0" class="graph" transform="scale(1 1) rotate(0) translate(4 210)">
<title>CAddrInfo::GetBucketPosition</title>
<polygon fill="#ffffff" stroke="transparent" points="-4,4 -4,-210 1205.7949,-210 1205.7949,4 -4,4"/>
<!-- Node6 -->
<g id="node1" class="node">
<title>Node6</title>
<polygon fill="#bfbfbf" stroke="#000000" points="0,-19.5 0,-37.5 148.8467,-37.5 148.8467,-19.5 0,-19.5"/>
<text text-anchor="middle" x="74.4233" y="-25.5" font-family="Helvetica,sans-Serif" font-size="10.00" fill="#000000">CAddrInfo::GetBucketPosition</text>
</g>
<!-- Node7 -->
<g id="node2" class="node">
<title>Node7</title>
<g id="a_node2"><a xlink:href="class_c_service.html#af21ea7db4318330b337c8bfdcc55aff0" target="_top" xlink:title="CService::GetKey">
<polygon fill="#ffffff" stroke="#000000" points="325.7725,-.5 325.7725,-18.5 421.2451,-18.5 421.2451,-.5 325.7725,-.5"/>
<text text-anchor="middle" x="373.5088" y="-6.5" font-family="Helvetica,sans-Serif" font-size="10.00" fill="#000000">CService::GetKey</text>
</a>
</g>
</g>
<!-- Node6&#45;&gt;Node7 -->
<g id="edge1" class="edge">
<title>Node6&#45;&gt;Node7</title>
<path fill="none" stroke="#191970" d="M149.1237,-23.7545C200.5446,-20.4879 267.8722,-16.2108 315.315,-13.1969"/>
<polygon fill="#191970" stroke="#191970" points="315.6652,-16.6818 325.4231,-12.5547 315.2213,-9.6959 315.6652,-16.6818"/>
</g>
<!-- Node10 -->
<g id="node5" class="node">
<title>Node10</title>
<g id="a_node5"><a xlink:href="class_c_net_addr.html#a8fae7d32e83e9fbb9ce0216f896133c9" target="_top" xlink:title="CNetAddr::GetHash">
<polygon fill="#ffffff" stroke="#000000" points="184.8467,-38.5 184.8467,-56.5 289.7725,-56.5 289.7725,-38.5 184.8467,-38.5"/>
<text text-anchor="middle" x="237.3096" y="-44.5" font-family="Helvetica,sans-Serif" font-size="10.00" fill="#000000">CNetAddr::GetHash</text>
</a>
</g>
</g>
<!-- Node6&#45;&gt;Node10 -->
<g id="edge4" class="edge">
<title>Node6&#45;&gt;Node10</title>
<path fill="none" stroke="#191970" d="M149.1922,-37.2215C157.7542,-38.2202 166.4151,-39.2305 174.7932,-40.2077"/>
<polygon fill="#191970" stroke="#191970" points="174.5085,-43.6982 184.8467,-41.3804 175.3196,-36.7453 174.5085,-43.6982"/>
</g>
<!-- Node8 -->
<g id="node3" class="node">
<title>Node8</title>
<g id="a_node3"><a xlink:href="glibc__compat_8cpp.html#a0f46826ab0466591e136db24394923cf" target="_top" xlink:title="memcpy">
<polygon fill="#ffffff" stroke="#000000" points="1019.874,-38.5 1019.874,-56.5 1073.6572,-56.5 1073.6572,-38.5 1019.874,-38.5"/>
<text text-anchor="middle" x="1046.7656" y="-44.5" font-family="Helvetica,sans-Serif" font-size="10.00" fill="#000000">memcpy</text>
</a>
</g>
</g>
<!-- Node7&#45;&gt;Node8 -->
<g id="edge2" class="edge">
<title>Node7&#45;&gt;Node8</title>
<path fill="none" stroke="#191970" d="M421.2664,-9.5C472.7891,-9.5 557.2422,-9.5 630.0674,-9.5 630.0674,-9.5 630.0674,-9.5 761.2739,-9.5 851.2296,-9.5 955.7459,-28.2669 1009.9318,-39.4236"/>
<polygon fill="#191970" stroke="#191970" points="1009.2594,-42.8586 1019.764,-41.4788 1010.6917,-36.0067 1009.2594,-42.8586"/>
</g>
<!-- Node9 -->
<g id="node4" class="node">
<title>Node9</title>
<g id="a_node4"><a xlink:href="glibc__compat_8cpp.html#a9778d49e9029dd75bc53ecbbf9f5e9a1" target="_top" xlink:title="memmove">
<polygon fill="#ffffff" stroke="#000000" points="1139.1201,-38.5 1139.1201,-56.5 1201.7949,-56.5 1201.7949,-38.5 1139.1201,-38.5"/>
<text text-anchor="middle" x="1170.4575" y="-44.5" font-family="Helvetica,sans-Serif" font-size="10.00" fill="#000000">memmove</text>
</a>
</g>
</g>
<!-- Node8&#45;&gt;Node9 -->
<g id="edge3" class="edge">
<title>Node8&#45;&gt;Node9</title>
<path fill="none" stroke="#191970" d="M1073.9103,-47.5C1090.0362,-47.5 1110.8157,-47.5 1128.9638,-47.5"/>
<polygon fill="#191970" stroke="#191970" points="1129.0087,-51.0001 1139.0086,-47.5 1129.0086,-44.0001 1129.0087,-51.0001"/>
</g>
<!-- Node10&#45;&gt;Node8 -->
<g id="edge23" class="edge">
<title>Node10&#45;&gt;Node8</title>
<path fill="none" stroke="#191970" d="M289.8007,-47.5C343.4553,-47.5 429.1947,-47.5 503.3164,-47.5 503.3164,-47.5 503.3164,-47.5 761.2739,-47.5 850.2577,-47.5 954.8425,-47.5 1009.3831,-47.5"/>
<polygon fill="#191970" stroke="#191970" points="1009.6046,-51.0001 1019.6045,-47.5 1009.6045,-44.0001 1009.6046,-51.0001"/>
</g>
<!-- Node11 -->
<g id="node6" class="node">
<title>Node11</title>
<g id="a_node6"><a xlink:href="_hash_8h.html#ab3f6c437460137530d86e09c2c102e99" target="_top" xlink:title="Compute the 256&#45;bit hash of an object. ">
<polygon fill="#ffffff" stroke="#000000" points="353.8364,-113.5 353.8364,-131.5 393.1812,-131.5 393.1812,-113.5 353.8364,-113.5"/>
<text text-anchor="middle" x="373.5088" y="-119.5" font-family="Helvetica,sans-Serif" font-size="10.00" fill="#000000">Hash</text>
</a>
</g>
</g>
<!-- Node10&#45;&gt;Node11 -->
<g id="edge5" class="edge">
<title>Node10&#45;&gt;Node11</title>
<path fill="none" stroke="#191970" d="M253.7384,-56.5468C277.1555,-69.4417 320.3472,-93.2258 347.9617,-108.4321"/>
<polygon fill="#191970" stroke="#191970" points="346.5737,-111.6634 357.0217,-113.4212 349.9503,-105.5316 346.5737,-111.6634"/>
</g>
<!-- Node12 -->
<g id="node7" class="node">
<title>Node12</title>
<g id="a_node7"><a xlink:href="class_c_hash3.html#a3dc880cbca561109d8de7c7ffdd5691e" target="_top" xlink:title="CHash3::Write">
<polygon fill="#ffffff" stroke="#000000" points="462.897,-150.5 462.897,-168.5 543.7358,-168.5 543.7358,-150.5 462.897,-150.5"/>
<text text-anchor="middle" x="503.3164" y="-156.5" font-family="Helvetica,sans-Serif" font-size="10.00" fill="#000000">CHash3::Write</text>
</a>
</g>
</g>
<!-- Node11&#45;&gt;Node12 -->
<g id="edge6" class="edge">
<title>Node11&#45;&gt;Node12</title>
<path fill="none" stroke="#191970" d="M393.2238,-128.1195C411.3258,-133.2793 438.7382,-141.0928 461.6802,-147.6321"/>
<polygon fill="#191970" stroke="#191970" points="460.9504,-151.0635 471.5268,-150.4388 462.8693,-144.3316 460.9504,-151.0635"/>
</g>
<!-- Node17 -->
<g id="node12" class="node">
<title>Node17</title>
<g id="a_node12"><a xlink:href="class_c_hash3.html#a28921734337c77f3589c0b1a740e2f30" target="_top" xlink:title="CHash3::Finalize">
<polygon fill="#ffffff" stroke="#000000" points="457.2451,-113.5 457.2451,-131.5 549.3877,-131.5 549.3877,-113.5 457.2451,-113.5"/>
<text text-anchor="middle" x="503.3164" y="-119.5" font-family="Helvetica,sans-Serif" font-size="10.00" fill="#000000">CHash3::Finalize</text>
</a>
</g>
</g>
<!-- Node11&#45;&gt;Node17 -->
<g id="edge11" class="edge">
<title>Node11&#45;&gt;Node17</title>
<path fill="none" stroke="#191970" d="M393.2238,-122.5C407.5322,-122.5 427.6575,-122.5 446.7943,-122.5"/>
<polygon fill="#191970" stroke="#191970" points="446.9769,-126.0001 456.9769,-122.5 446.9769,-119.0001 446.9769,-126.0001"/>
</g>
<!-- Node13 -->
<g id="node8" class="node">
<title>Node13</title>
<g id="a_node8"><a xlink:href="class_c_s_h_a3.html#a439a0fade3fa1b7989c6cf053d39161b" target="_top" xlink:title="CSHA3::Write">
<polygon fill="#ffffff" stroke="#000000" points="591.0396,-150.5 591.0396,-168.5 669.0952,-168.5 669.0952,-150.5 591.0396,-150.5"/>
<text text-anchor="middle" x="630.0674" y="-156.5" font-family="Helvetica,sans-Serif" font-size="10.00" fill="#000000">CSHA3::Write</text>
</a>
</g>
</g>
<!-- Node12&#45;&gt;Node13 -->
<g id="edge7" class="edge">
<title>Node12&#45;&gt;Node13</title>
<path fill="none" stroke="#191970" d="M543.7697,-159.5C555.5429,-159.5 568.5358,-159.5 580.7882,-159.5"/>
<polygon fill="#191970" stroke="#191970" points="580.8631,-163.0001 590.8631,-159.5 580.863,-156.0001 580.8631,-163.0001"/>
</g>
<!-- Node14 -->
<g id="node9" class="node">
<title>Node14</title>
<g id="a_node9"><a xlink:href="class_s_h_a3__256.html#a8356957ea403c5da326fc6899b91ea71" target="_top" xlink:title="Updates the hash with more data. ">
<polygon fill="#ffffff" stroke="#000000" points="711.0181,-168.5 711.0181,-186.5 811.5298,-186.5 811.5298,-168.5 711.0181,-168.5"/>
<text text-anchor="middle" x="761.2739" y="-174.5" font-family="Helvetica,sans-Serif" font-size="10.00" fill="#000000">SHA3_256::update</text>
</a>
</g>
</g>
<!-- Node13&#45;&gt;Node14 -->
<g id="edge8" class="edge">
<title>Node13&#45;&gt;Node14</title>
<path fill="none" stroke="#191970" d="M669.4337,-164.9006C679.2725,-166.2504 690.054,-167.7295 700.6605,-169.1846"/>
<polygon fill="#191970" stroke="#191970" points="700.3567,-172.6756 710.7396,-170.5673 701.3081,-165.7405 700.3567,-172.6756"/>
</g>
<!-- Node15 -->
<g id="node10" class="node">
<title>Node15</title>
<g id="a_node10"><a xlink:href="class_keccak_core.html#aaaa0355ccec0f469ac8eb577bdf853ed" target="_top" xlink:title="Updates the Keccak sponge function with more input data. ">
<polygon fill="#ffffff" stroke="#000000" points="847.8008,-187.5 847.8008,-205.5 954.4111,-205.5 954.4111,-187.5 847.8008,-187.5"/>
<text text-anchor="middle" x="901.106" y="-193.5" font-family="Helvetica,sans-Serif" font-size="10.00" fill="#000000">KeccakCore::update</text>
</a>
</g>
</g>
<!-- Node14&#45;&gt;Node15 -->
<g id="edge9" class="edge">
<title>Node14&#45;&gt;Node15</title>
<path fill="none" stroke="#191970" d="M811.7565,-184.3594C820.0781,-185.4902 828.7987,-186.6751 837.3933,-187.8429"/>
<polygon fill="#191970" stroke="#191970" points="837.013,-191.3233 847.3932,-189.2017 837.9555,-184.387 837.013,-191.3233"/>
</g>
<!-- Node16 -->
<g id="node11" class="node">
<title>Node16</title>
<g id="a_node11"><a xlink:href="class_keccak_core.html#aba3225c7a4ceff3580236a900b72a1c3" target="_top" xlink:title="Transform the state with the KECCAK&#45;p sponge function with b = 1600. ">
<polygon fill="#ffffff" stroke="#000000" points="990.4111,-150.5 990.4111,-168.5 1103.1201,-168.5 1103.1201,-150.5 990.4111,-150.5"/>
<text text-anchor="middle" x="1046.7656" y="-156.5" font-family="Helvetica,sans-Serif" font-size="10.00" fill="#000000">KeccakCore::keccakp</text>
</a>
</g>
</g>
<!-- Node15&#45;&gt;Node16 -->
<g id="edge10" class="edge">
<title>Node15&#45;&gt;Node16</title>
<path fill="none" stroke="#191970" d="M936.7383,-187.4488C956.2084,-182.5031 980.5268,-176.3258 1001.3462,-171.0373"/>
<polygon fill="#191970" stroke="#191970" points="1002.4185,-174.3761 1011.249,-168.5218 1000.6951,-167.5916 1002.4185,-174.3761"/>
</g>
<!-- Node17&#45;&gt;Node13 -->
<g id="edge22" class="edge">
<title>Node17&#45;&gt;Node13</title>
<path fill="none" stroke="#191970" d="M534.3232,-131.5512C550.7424,-136.3442 571.124,-142.2938 588.8567,-147.4702"/>
<polygon fill="#191970" stroke="#191970" points="588.3613,-150.9715 598.9414,-150.414 590.3228,-144.252 588.3613,-150.9715"/>
</g>
<!-- Node18 -->
<g id="node13" class="node">
<title>Node18</title>
<g id="a_node13"><a xlink:href="class_c_s_h_a3.html#a7aa515a9a0fa6d72667d74897f699ae9" target="_top" xlink:title="CSHA3::Finalize">
<polygon fill="#ffffff" stroke="#000000" points="585.3877,-113.5 585.3877,-131.5 674.7471,-131.5 674.7471,-113.5 585.3877,-113.5"/>
<text text-anchor="middle" x="630.0674" y="-119.5" font-family="Helvetica,sans-Serif" font-size="10.00" fill="#000000">CSHA3::Finalize</text>
</a>
</g>
</g>
<!-- Node17&#45;&gt;Node18 -->
<g id="edge12" class="edge">
<title>Node17&#45;&gt;Node18</title>
<path fill="none" stroke="#191970" d="M549.435,-122.5C557.6879,-122.5 566.3635,-122.5 574.8412,-122.5"/>
<polygon fill="#191970" stroke="#191970" points="575.0424,-126.0001 585.0424,-122.5 575.0423,-119.0001 575.0424,-126.0001"/>
</g>
<!-- Node22 -->
<g id="node17" class="node">
<title>Node22</title>
<g id="a_node17"><a xlink:href="class_c_s_h_a3.html#a9d77a24312b66dcd026dfbed1d917dc1" target="_top" xlink:title="CSHA3::Reset">
<polygon fill="#ffffff" stroke="#000000" points="589.5552,-76.5 589.5552,-94.5 670.5796,-94.5 670.5796,-76.5 589.5552,-76.5"/>
<text text-anchor="middle" x="630.0674" y="-82.5" font-family="Helvetica,sans-Serif" font-size="10.00" fill="#000000">CSHA3::Reset</text>
</a>
</g>
</g>
<!-- Node17&#45;&gt;Node22 -->
<g id="edge19" class="edge">
<title>Node17&#45;&gt;Node22</title>
<path fill="none" stroke="#191970" d="M534.3232,-113.4488C550.7424,-108.6558 571.124,-102.7062 588.8567,-97.5298"/>
<polygon fill="#191970" stroke="#191970" points="590.3228,-100.748 598.9414,-94.586 588.3613,-94.0285 590.3228,-100.748"/>
</g>
<!-- Node19 -->
<g id="node14" class="node">
<title>Node19</title>
<g id="a_node14"><a xlink:href="class_s_h_a3__256.html#a8fe7cad1f83bd1bae1a0d521324247a1" target="_top" xlink:title="Finalizes the hashing process and returns the hash. ">
<polygon fill="#ffffff" stroke="#000000" points="710.7471,-113.5 710.7471,-131.5 811.8008,-131.5 811.8008,-113.5 710.7471,-113.5"/>
<text text-anchor="middle" x="761.2739" y="-119.5" font-family="Helvetica,sans-Serif" font-size="10.00" fill="#000000">SHA3_256::finalize</text>
</a>
</g>
</g>
<!-- Node18&#45;&gt;Node19 -->
<g id="edge13" class="edge">
<title>Node18&#45;&gt;Node19</title>
<path fill="none" stroke="#191970" d="M674.8543,-122.5C683.0714,-122.5 691.7746,-122.5 700.3698,-122.5"/>
<polygon fill="#191970" stroke="#191970" points="700.3744,-126.0001 710.3744,-122.5 700.3744,-119.0001 700.3744,-126.0001"/>
</g>
<!-- Node20 -->
<g id="node15" class="node">
<title>Node20</title>
<g id="a_node15"><a xlink:href="class_keccak_core.html#a97852ee4381ced17ee6d21704cf0b4d7" target="_top" xlink:title="Pads the last block of input data to blockSize(). ">
<polygon fill="#ffffff" stroke="#000000" points="854.7515,-150.5 854.7515,-168.5 947.4604,-168.5 947.4604,-150.5 854.7515,-150.5"/>
<text text-anchor="middle" x="901.106" y="-156.5" font-family="Helvetica,sans-Serif" font-size="10.00" fill="#000000">KeccakCore::pad</text>
</a>
</g>
</g>
<!-- Node19&#45;&gt;Node20 -->
<g id="edge14" class="edge">
<title>Node19&#45;&gt;Node20</title>
<path fill="none" stroke="#191970" d="M795.4807,-131.5512C814.0177,-136.4562 837.1325,-142.5724 857.0086,-147.8317"/>
<polygon fill="#191970" stroke="#191970" points="856.2051,-151.2395 866.7677,-150.414 857.9957,-144.4724 856.2051,-151.2395"/>
</g>
<!-- Node21 -->
<g id="node16" class="node">
<title>Node21</title>
<g id="a_node16"><a xlink:href="class_keccak_core.html#aad83ece853c0cc15fcab947fdcba924f" target="_top" xlink:title="Extracts data from the Keccak sponge function. ">
<polygon fill="#ffffff" stroke="#000000" points="848.0889,-113.5 848.0889,-131.5 954.123,-131.5 954.123,-113.5 848.0889,-113.5"/>
<text text-anchor="middle" x="901.106" y="-119.5" font-family="Helvetica,sans-Serif" font-size="10.00" fill="#000000">KeccakCore::extract</text>
</a>
</g>
</g>
<!-- Node19&#45;&gt;Node21 -->
<g id="edge16" class="edge">
<title>Node19&#45;&gt;Node21</title>
<path fill="none" stroke="#191970" d="M812.1521,-122.5C820.3685,-122.5 828.9646,-122.5 837.4373,-122.5"/>
<polygon fill="#191970" stroke="#191970" points="837.6773,-126.0001 847.6772,-122.5 837.6772,-119.0001 837.6773,-126.0001"/>
</g>
<!-- Node20&#45;&gt;Node16 -->
<g id="edge15" class="edge">
<title>Node20&#45;&gt;Node16</title>
<path fill="none" stroke="#191970" d="M947.5941,-159.5C957.9845,-159.5 969.2015,-159.5 980.225,-159.5"/>
<polygon fill="#191970" stroke="#191970" points="980.265,-163.0001 990.2649,-159.5 980.2649,-156.0001 980.265,-163.0001"/>
</g>
<!-- Node21&#45;&gt;Node8 -->
<g id="edge18" class="edge">
<title>Node21&#45;&gt;Node8</title>
<path fill="none" stroke="#191970" d="M931.7401,-113.4832C939.2847,-110.9027 947.2505,-107.865 954.4111,-104.5 979.9687,-92.4896 1007.2555,-75.0053 1025.487,-62.5732"/>
<polygon fill="#191970" stroke="#191970" points="1027.9056,-65.1559 1034.1383,-56.5882 1023.9231,-59.3991 1027.9056,-65.1559"/>
</g>
<!-- Node21&#45;&gt;Node16 -->
<g id="edge17" class="edge">
<title>Node21&#45;&gt;Node16</title>
<path fill="none" stroke="#191970" d="M936.7383,-131.5512C956.2084,-136.4969 980.5268,-142.6742 1001.3462,-147.9627"/>
<polygon fill="#191970" stroke="#191970" points="1000.6951,-151.4084 1011.249,-150.4782 1002.4185,-144.6239 1000.6951,-151.4084"/>
</g>
<!-- Node23 -->
<g id="node18" class="node">
<title>Node23</title>
<g id="a_node18"><a xlink:href="class_s_h_a3__256.html#a57b5f29347a733e04fe47d60621f3202" target="_top" xlink:title="Resets the hash ready for a new hashing process. ">
<polygon fill="#ffffff" stroke="#000000" points="715.1953,-76.5 715.1953,-94.5 807.3525,-94.5 807.3525,-76.5 715.1953,-76.5"/>
<text text-anchor="middle" x="761.2739" y="-82.5" font-family="Helvetica,sans-Serif" font-size="10.00" fill="#000000">SHA3_256::reset</text>
</a>
</g>
</g>
<!-- Node22&#45;&gt;Node23 -->
<g id="edge20" class="edge">
<title>Node22&#45;&gt;Node23</title>
<path fill="none" stroke="#191970" d="M670.8627,-85.5C681.5755,-85.5 693.3232,-85.5 704.7015,-85.5"/>
<polygon fill="#191970" stroke="#191970" points="705.0068,-89.0001 715.0068,-85.5 705.0067,-82.0001 705.0068,-89.0001"/>
</g>
<!-- Node24 -->
<g id="node19" class="node">
<title>Node24</title>
<g id="a_node19"><a xlink:href="class_keccak_core.html#a5a322eb7e3b5c1eaad127c9c6e6a529b" target="_top" xlink:title="Resets the Keccak sponge function ready for a new session. ">
<polygon fill="#ffffff" stroke="#000000" points="851.978,-76.5 851.978,-94.5 950.2339,-94.5 950.2339,-76.5 851.978,-76.5"/>
<text text-anchor="middle" x="901.106" y="-82.5" font-family="Helvetica,sans-Serif" font-size="10.00" fill="#000000">KeccakCore::reset</text>
</a>
</g>
</g>
<!-- Node23&#45;&gt;Node24 -->
<g id="edge21" class="edge">
<title>Node23&#45;&gt;Node24</title>
<path fill="none" stroke="#191970" d="M807.4477,-85.5C818.289,-85.5 829.9945,-85.5 841.3361,-85.5"/>
<polygon fill="#191970" stroke="#191970" points="841.6143,-89.0001 851.6142,-85.5 841.6142,-82.0001 841.6143,-89.0001"/>
</g>
</g>
</svg>
