<?xml version="1.0" encoding="UTF-8" standalone="no"?>
<!DOCTYPE svg PUBLIC "-//W3C//DTD SVG 1.1//EN"
 "http://www.w3.org/Graphics/SVG/1.1/DTD/svg11.dtd">
<!-- Generated by graphviz version 2.40.1 (20161225.0304)
 -->
<!-- Title: BerkeleyBatch::VerifyDatabaseFile Pages: 1 -->
<svg width="490pt" height="27pt"
 viewBox="0.00 0.00 489.66 27.00" xmlns="http://www.w3.org/2000/svg" xmlns:xlink="http://www.w3.org/1999/xlink">
<g id="graph0" class="graph" transform="scale(1 1) rotate(0) translate(4 23)">
<title>BerkeleyBatch::VerifyDatabaseFile</title>
<polygon fill="#ffffff" stroke="transparent" points="-4,4 -4,-23 485.6602,-23 485.6602,4 -4,4"/>
<!-- Node171 -->
<g id="node1" class="node">
<title>Node171</title>
<polygon fill="#bfbfbf" stroke="#000000" points="0,-.5 0,-18.5 169.9697,-18.5 169.9697,-.5 0,-.5"/>
<text text-anchor="middle" x="84.9849" y="-6.5" font-family="Helvetica,sans-Serif" font-size="10.00" fill="#000000">BerkeleyBatch::VerifyDatabaseFile</text>
</g>
<!-- Node172 -->
<g id="node2" class="node">
<title>Node172</title>
<g id="a_node2"><a xlink:href="class_wallet_batch.html#a92563e74e5656264cfe5c5603ea230ef" target="_top" xlink:title="WalletBatch::VerifyDatabaseFile">
<polygon fill="#ffffff" stroke="#000000" points="205.9697,-.5 205.9697,-18.5 364.4502,-18.5 364.4502,-.5 205.9697,-.5"/>
<text text-anchor="middle" x="285.21" y="-6.5" font-family="Helvetica,sans-Serif" font-size="10.00" fill="#000000">WalletBatch::VerifyDatabaseFile</text>
</a>
</g>
</g>
<!-- Node171&#45;&gt;Node172 -->
<g id="edge1" class="edge">
<title>Node171&#45;&gt;Node172</title>
<path fill="none" stroke="#191970" d="M180.2094,-9.5C188.7772,-9.5 197.3928,-9.5 205.8044,-9.5"/>
<polygon fill="#191970" stroke="#191970" points="180.1887,-6.0001 170.1887,-9.5 180.1886,-13.0001 180.1887,-6.0001"/>
</g>
<!-- Node173 -->
<g id="node3" class="node">
<title>Node173</title>
<g id="a_node3"><a xlink:href="class_c_wallet.html#a76e7655272faf35c16e9525ab232c3d1" target="_top" xlink:title="Verify wallet naming and perform salvage on the wallet if required. ">
<polygon fill="#ffffff" stroke="#000000" points="400.4502,-.5 400.4502,-18.5 481.6602,-18.5 481.6602,-.5 400.4502,-.5"/>
<text text-anchor="middle" x="441.0552" y="-6.5" font-family="Helvetica,sans-Serif" font-size="10.00" fill="#000000">CWallet::Verify</text>
</a>
</g>
</g>
<!-- Node172&#45;&gt;Node173 -->
<g id="edge2" class="edge">
<title>Node172&#45;&gt;Node173</title>
<path fill="none" stroke="#191970" d="M374.5827,-9.5C383.4572,-9.5 392.1292,-9.5 400.1246,-9.5"/>
<polygon fill="#191970" stroke="#191970" points="374.5023,-6.0001 364.5022,-9.5 374.5022,-13.0001 374.5023,-6.0001"/>
</g>
</g>
</svg>
