<?xml version="1.0" encoding="UTF-8" standalone="no"?>
<!DOCTYPE svg PUBLIC "-//W3C//DTD SVG 1.1//EN"
 "http://www.w3.org/Graphics/SVG/1.1/DTD/svg11.dtd">
<!-- Generated by graphviz version 2.40.1 (20161225.0304)
 -->
<!-- Title: tinyformat::FormatList Pages: 1 -->
<svg width="126pt" height="102pt"
 viewBox="0.00 0.00 126.02 102.00" xmlns="http://www.w3.org/2000/svg" xmlns:xlink="http://www.w3.org/1999/xlink">
<g id="graph0" class="graph" transform="scale(1 1) rotate(0) translate(4 98)">
<title>tinyformat::FormatList</title>
<polygon fill="#ffffff" stroke="transparent" points="-4,4 -4,-98 122.0244,-98 122.0244,4 -4,4"/>
<!-- Node3 -->
<g id="node1" class="node">
<title>Node3</title>
<polygon fill="#bfbfbf" stroke="#000000" points="0,-.5 0,-18.5 112.6895,-18.5 112.6895,-.5 0,-.5"/>
<text text-anchor="middle" x="56.3447" y="-6.5" font-family="Helvetica,sans-Serif" font-size="10.00" fill="#000000">tinyformat::FormatList</text>
</g>
<!-- Node4 -->
<g id="node2" class="node">
<title>Node4</title>
<g id="a_node2"><a xlink:href="classtinyformat_1_1detail_1_1_format_arg.html" target="_top" xlink:title="tinyformat::detail\l::FormatArg">
<polygon fill="#ffffff" stroke="#000000" points="11.6626,-65.5 11.6626,-93.5 101.0269,-93.5 101.0269,-65.5 11.6626,-65.5"/>
<text text-anchor="start" x="19.6626" y="-81.5" font-family="Helvetica,sans-Serif" font-size="10.00" fill="#000000">tinyformat::detail</text>
<text text-anchor="middle" x="56.3447" y="-71.5" font-family="Helvetica,sans-Serif" font-size="10.00" fill="#000000">::FormatArg</text>
</a>
</g>
</g>
<!-- Node4&#45;&gt;Node3 -->
<g id="edge1" class="edge">
<title>Node4&#45;&gt;Node3</title>
<path fill="none" stroke="#9a32cd" stroke-dasharray="5,2" d="M56.3447,-55.007C56.3447,-42.4648 56.3447,-27.9386 56.3447,-18.7368"/>
<polygon fill="#9a32cd" stroke="#9a32cd" points="52.8448,-55.3344 56.3447,-65.3345 59.8448,-55.3345 52.8448,-55.3344"/>
<text text-anchor="middle" x="87.1846" y="-39" font-family="Helvetica,sans-Serif" font-size="10.00" fill="#000000"> m_formatters</text>
</g>
</g>
</svg>
