<?xml version="1.0" encoding="UTF-8" standalone="no"?>
<!DOCTYPE svg PUBLIC "-//W3C//DTD SVG 1.1//EN"
 "http://www.w3.org/Graphics/SVG/1.1/DTD/svg11.dtd">
<!-- Generated by graphviz version 2.40.1 (20161225.0304)
 -->
<!-- Title: BitcoinCore::initialize Pages: 1 -->
<svg width="485pt" height="87pt"
 viewBox="0.00 0.00 485.04 87.00" xmlns="http://www.w3.org/2000/svg" xmlns:xlink="http://www.w3.org/1999/xlink">
<g id="graph0" class="graph" transform="scale(1 1) rotate(0) translate(4 83)">
<title>BitcoinCore::initialize</title>
<polygon fill="#ffffff" stroke="transparent" points="-4,4 -4,-83 481.0361,-83 481.0361,4 -4,4"/>
<!-- Node11 -->
<g id="node1" class="node">
<title>Node11</title>
<polygon fill="#bfbfbf" stroke="#000000" points="0,-39.5 0,-57.5 108.8174,-57.5 108.8174,-39.5 0,-39.5"/>
<text text-anchor="middle" x="54.4087" y="-45.5" font-family="Helvetica,sans-Serif" font-size="10.00" fill="#000000">BitcoinCore::initialize</text>
</g>
<!-- Node12 -->
<g id="node2" class="node">
<title>Node12</title>
<g id="a_node2"><a xlink:href="classinterfaces_1_1_node.html#a6426ba886114107f572ab65f4d7e4a6e" target="_top" xlink:title="Start node. ">
<polygon fill="#ffffff" stroke="#000000" points="144.8174,-60.5 144.8174,-78.5 290.8906,-78.5 290.8906,-60.5 144.8174,-60.5"/>
<text text-anchor="middle" x="217.854" y="-66.5" font-family="Helvetica,sans-Serif" font-size="10.00" fill="#000000">interfaces::Node::appInitMain</text>
</a>
</g>
</g>
<!-- Node11&#45;&gt;Node12 -->
<g id="edge1" class="edge">
<title>Node11&#45;&gt;Node12</title>
<path fill="none" stroke="#191970" d="M108.8336,-55.4927C118.0692,-56.6793 127.8303,-57.9335 137.5643,-59.1841"/>
<polygon fill="#191970" stroke="#191970" points="137.3107,-62.6802 147.6752,-60.4832 138.2028,-55.7373 137.3107,-62.6802"/>
</g>
<!-- Node13 -->
<g id="node3" class="node">
<title>Node13</title>
<g id="a_node3"><a xlink:href="class_bitcoin_core.html#a8269c96a3abdb322e4b3275a866aeaee" target="_top" xlink:title="Pass fatal exception message to UI thread. ">
<polygon fill="#ffffff" stroke="#000000" points="145.3716,-13.5 145.3716,-41.5 290.3364,-41.5 290.3364,-13.5 145.3716,-13.5"/>
<text text-anchor="start" x="153.3716" y="-29.5" font-family="Helvetica,sans-Serif" font-size="10.00" fill="#000000">BitcoinCore::handleRunaway</text>
<text text-anchor="middle" x="217.854" y="-19.5" font-family="Helvetica,sans-Serif" font-size="10.00" fill="#000000">Exception</text>
</a>
</g>
</g>
<!-- Node11&#45;&gt;Node13 -->
<g id="edge2" class="edge">
<title>Node11&#45;&gt;Node13</title>
<path fill="none" stroke="#191970" d="M108.8336,-41.5073C117.335,-40.415 126.2817,-39.2655 135.2426,-38.1142"/>
<polygon fill="#191970" stroke="#191970" points="135.8705,-41.5624 145.3429,-36.8165 134.9784,-34.6195 135.8705,-41.5624"/>
</g>
<!-- Node14 -->
<g id="node4" class="node">
<title>Node14</title>
<g id="a_node4"><a xlink:href="util_8cpp.html#aaada8c5faa502eb0c33fc01294955db8" target="_top" xlink:title="PrintExceptionContinue">
<polygon fill="#ffffff" stroke="#000000" points="341.71,-37.5 341.71,-55.5 462.2168,-55.5 462.2168,-37.5 341.71,-37.5"/>
<text text-anchor="middle" x="401.9634" y="-43.5" font-family="Helvetica,sans-Serif" font-size="10.00" fill="#000000">PrintExceptionContinue</text>
</a>
</g>
</g>
<!-- Node13&#45;&gt;Node14 -->
<g id="edge3" class="edge">
<title>Node13&#45;&gt;Node14</title>
<path fill="none" stroke="#191970" d="M290.3546,-34.982C303.9062,-36.3805 318.0505,-37.8402 331.5381,-39.2321"/>
<polygon fill="#191970" stroke="#191970" points="331.397,-42.7361 341.7035,-40.2812 332.1156,-35.7731 331.397,-42.7361"/>
</g>
<!-- Node15 -->
<g id="node5" class="node">
<title>Node15</title>
<g id="a_node5"><a xlink:href="classinterfaces_1_1_node.html#aebaab0999453f1d3c3b32799a3ff1308" target="_top" xlink:title="Get warnings. ">
<polygon fill="#ffffff" stroke="#000000" points="326.8906,-.5 326.8906,-18.5 477.0361,-18.5 477.0361,-.5 326.8906,-.5"/>
<text text-anchor="middle" x="401.9634" y="-6.5" font-family="Helvetica,sans-Serif" font-size="10.00" fill="#000000">interfaces::Node::getWarnings</text>
</a>
</g>
</g>
<!-- Node13&#45;&gt;Node15 -->
<g id="edge4" class="edge">
<title>Node13&#45;&gt;Node15</title>
<path fill="none" stroke="#191970" d="M290.3546,-20.4118C298.9613,-19.5703 307.8071,-18.7055 316.5719,-17.8485"/>
<polygon fill="#191970" stroke="#191970" points="317.1927,-21.3046 326.8047,-16.8481 316.5115,-14.3378 317.1927,-21.3046"/>
</g>
</g>
</svg>
