<?xml version="1.0" encoding="UTF-8" standalone="no"?>
<!DOCTYPE svg PUBLIC "-//W3C//DTD SVG 1.1//EN"
 "http://www.w3.org/Graphics/SVG/1.1/DTD/svg11.dtd">
<!-- Generated by graphviz version 2.40.1 (20161225.0304)
 -->
<!-- Title: CAddrMan::Delete Pages: 1 -->
<svg width="730pt" height="103pt"
 viewBox="0.00 0.00 729.63 103.00" xmlns="http://www.w3.org/2000/svg" xmlns:xlink="http://www.w3.org/1999/xlink">
<g id="graph0" class="graph" transform="scale(1 1) rotate(0) translate(4 99)">
<title>CAddrMan::Delete</title>
<polygon fill="#ffffff" stroke="transparent" points="-4,4 -4,-99 725.6318,-99 725.6318,4 -4,4"/>
<!-- Node226 -->
<g id="node1" class="node">
<title>Node226</title>
<polygon fill="#bfbfbf" stroke="#000000" points="0,-38.5 0,-56.5 98.2607,-56.5 98.2607,-38.5 0,-38.5"/>
<text text-anchor="middle" x="49.1304" y="-44.5" font-family="Helvetica,sans-Serif" font-size="10.00" fill="#000000">CAddrMan::Delete</text>
</g>
<!-- Node227 -->
<g id="node2" class="node">
<title>Node227</title>
<g id="a_node2"><a xlink:href="class_c_addr_man.html#a77eaffae17e5d2d253fcec22d4d19779" target="_top" xlink:title="Clear a position in a &quot;new&quot; table. This is the only place where entries are actually deleted...">
<polygon fill="#ffffff" stroke="#000000" points="137.0415,-76.5 137.0415,-94.5 250.2974,-94.5 250.2974,-76.5 137.0415,-76.5"/>
<text text-anchor="middle" x="193.6694" y="-82.5" font-family="Helvetica,sans-Serif" font-size="10.00" fill="#000000">CAddrMan::ClearNew</text>
</a>
</g>
</g>
<!-- Node226&#45;&gt;Node227 -->
<g id="edge1" class="edge">
<title>Node226&#45;&gt;Node227</title>
<path fill="none" stroke="#191970" d="M93.1648,-59.0769C114.4413,-64.6706 139.5921,-71.2828 159.4114,-76.4934"/>
<polygon fill="#191970" stroke="#191970" points="93.9454,-55.6632 83.3841,-56.5055 92.1655,-62.4332 93.9454,-55.6632"/>
</g>
<!-- Node229 -->
<g id="node4" class="node">
<title>Node229</title>
<g id="a_node4"><a xlink:href="class_c_addr_man.html#a0f280b5874a6507b463cae6075063ec2" target="_top" xlink:title="Add an entry to the &quot;new&quot; table. ">
<polygon fill="#ffffff" stroke="#000000" points="300.8359,-39.5 300.8359,-57.5 393.5449,-57.5 393.5449,-39.5 300.8359,-39.5"/>
<text text-anchor="middle" x="347.1904" y="-45.5" font-family="Helvetica,sans-Serif" font-size="10.00" fill="#000000">CAddrMan::Add_</text>
</a>
</g>
</g>
<!-- Node226&#45;&gt;Node229 -->
<g id="edge6" class="edge">
<title>Node226&#45;&gt;Node229</title>
<path fill="none" stroke="#191970" d="M108.5468,-47.6993C164.9325,-47.8885 248.5425,-48.169 300.3573,-48.3429"/>
<polygon fill="#191970" stroke="#191970" points="108.3606,-44.1988 98.3489,-47.6651 108.3371,-51.1988 108.3606,-44.1988"/>
</g>
<!-- Node232 -->
<g id="node7" class="node">
<title>Node232</title>
<g id="a_node7"><a xlink:href="class_c_addr_man.html#a94c76a39ab311deb9e7b810e01b664ce" target="_top" xlink:title="CAddrMan::Unserialize">
<polygon fill="#ffffff" stroke="#000000" points="134.2607,-.5 134.2607,-18.5 253.0781,-18.5 253.0781,-.5 134.2607,-.5"/>
<text text-anchor="middle" x="193.6694" y="-6.5" font-family="Helvetica,sans-Serif" font-size="10.00" fill="#000000">CAddrMan::Unserialize</text>
</a>
</g>
</g>
<!-- Node226&#45;&gt;Node232 -->
<g id="edge7" class="edge">
<title>Node226&#45;&gt;Node232</title>
<path fill="none" stroke="#191970" d="M93.1648,-35.9231C114.4413,-30.3294 139.5921,-23.7172 159.4114,-18.5066"/>
<polygon fill="#191970" stroke="#191970" points="92.1655,-32.5668 83.3841,-38.4945 93.9454,-39.3368 92.1655,-32.5668"/>
</g>
<!-- Node228 -->
<g id="node3" class="node">
<title>Node228</title>
<g id="a_node3"><a xlink:href="class_c_addr_man.html#af7a45c248782cf74daced27458da236b" target="_top" xlink:title="Move an entry from the &quot;new&quot; table(s) to the &quot;tried&quot; table. ">
<polygon fill="#ffffff" stroke="#000000" points="289.0781,-76.5 289.0781,-94.5 405.3027,-94.5 405.3027,-76.5 289.0781,-76.5"/>
<text text-anchor="middle" x="347.1904" y="-82.5" font-family="Helvetica,sans-Serif" font-size="10.00" fill="#000000">CAddrMan::MakeTried</text>
</a>
</g>
</g>
<!-- Node227&#45;&gt;Node228 -->
<g id="edge2" class="edge">
<title>Node227&#45;&gt;Node228</title>
<path fill="none" stroke="#191970" d="M260.5394,-85.5C269.9837,-85.5 279.631,-85.5 288.8967,-85.5"/>
<polygon fill="#191970" stroke="#191970" points="260.3988,-82.0001 250.3988,-85.5 260.3988,-89.0001 260.3988,-82.0001"/>
</g>
<!-- Node227&#45;&gt;Node229 -->
<g id="edge3" class="edge">
<title>Node227&#45;&gt;Node229</title>
<path fill="none" stroke="#191970" d="M241.0728,-74.0753C263.162,-68.7516 289.07,-62.5076 309.7569,-57.5218"/>
<polygon fill="#191970" stroke="#191970" points="240.1265,-70.7031 231.2249,-76.4488 241.7666,-77.5083 240.1265,-70.7031"/>
</g>
<!-- Node230 -->
<g id="node5" class="node">
<title>Node230</title>
<g id="a_node5"><a xlink:href="class_c_addr_man.html#a03fcc7109b5f014760dc50a81f68c5ec" target="_top" xlink:title="Add a single address. ">
<polygon fill="#ffffff" stroke="#000000" points="441.3027,-39.5 441.3027,-57.5 528.4502,-57.5 528.4502,-39.5 441.3027,-39.5"/>
<text text-anchor="middle" x="484.8765" y="-45.5" font-family="Helvetica,sans-Serif" font-size="10.00" fill="#000000">CAddrMan::Add</text>
</a>
</g>
</g>
<!-- Node229&#45;&gt;Node230 -->
<g id="edge4" class="edge">
<title>Node229&#45;&gt;Node230</title>
<path fill="none" stroke="#191970" d="M404.038,-48.5C416.4136,-48.5 429.3229,-48.5 441.0989,-48.5"/>
<polygon fill="#191970" stroke="#191970" points="403.8047,-45.0001 393.8046,-48.5 403.8046,-52.0001 403.8047,-45.0001"/>
</g>
<!-- Node231 -->
<g id="node6" class="node">
<title>Node231</title>
<g id="a_node6"><a xlink:href="class_c_connman.html#a47d9024273a8c421fa7de641c30e9081" target="_top" xlink:title="CConnman::AddNewAddresses">
<polygon fill="#ffffff" stroke="#000000" points="564.4502,-39.5 564.4502,-57.5 721.6318,-57.5 721.6318,-39.5 564.4502,-39.5"/>
<text text-anchor="middle" x="643.041" y="-45.5" font-family="Helvetica,sans-Serif" font-size="10.00" fill="#000000">CConnman::AddNewAddresses</text>
</a>
</g>
</g>
<!-- Node230&#45;&gt;Node231 -->
<g id="edge5" class="edge">
<title>Node230&#45;&gt;Node231</title>
<path fill="none" stroke="#191970" d="M538.7318,-48.5C546.9964,-48.5 555.6716,-48.5 564.3407,-48.5"/>
<polygon fill="#191970" stroke="#191970" points="538.5143,-45.0001 528.5143,-48.5 538.5143,-52.0001 538.5143,-45.0001"/>
</g>
</g>
</svg>
