<?xml version="1.0" encoding="UTF-8" standalone="no"?>
<!DOCTYPE svg PUBLIC "-//W3C//DTD SVG 1.1//EN"
 "http://www.w3.org/Graphics/SVG/1.1/DTD/svg11.dtd">
<!-- Generated by graphviz version 2.40.1 (20161225.0304)
 -->
<!-- Title: SigningProvider::GetKey Pages: 1 -->
<svg width="316pt" height="84pt"
 viewBox="0.00 0.00 315.77 84.00" xmlns="http://www.w3.org/2000/svg" xmlns:xlink="http://www.w3.org/1999/xlink">
<g id="graph0" class="graph" transform="scale(1 1) rotate(0) translate(4 80)">
<title>SigningProvider::GetKey</title>
<polygon fill="#ffffff" stroke="transparent" points="-4,4 -4,-80 311.7656,-80 311.7656,4 -4,4"/>
<!-- Node10 -->
<g id="node1" class="node">
<title>Node10</title>
<polygon fill="#bfbfbf" stroke="#000000" points="0,-28.5 0,-46.5 125.502,-46.5 125.502,-28.5 0,-28.5"/>
<text text-anchor="middle" x="62.751" y="-34.5" font-family="Helvetica,sans-Serif" font-size="10.00" fill="#000000">SigningProvider::GetKey</text>
</g>
<!-- Node11 -->
<g id="node2" class="node">
<title>Node11</title>
<g id="a_node2"><a xlink:href="class_mutable_transaction_signature_creator.html#ad66cfa8bc9e1222e30125c90d1ecaddf" target="_top" xlink:title="Create a singular (non&#45;script) signature. ">
<polygon fill="#ffffff" stroke="#000000" points="161.502,-47.5 161.502,-75.5 307.7656,-75.5 307.7656,-47.5 161.502,-47.5"/>
<text text-anchor="start" x="169.502" y="-63.5" font-family="Helvetica,sans-Serif" font-size="10.00" fill="#000000">MutableTransactionSignature</text>
<text text-anchor="middle" x="234.6338" y="-53.5" font-family="Helvetica,sans-Serif" font-size="10.00" fill="#000000">Creator::CreateSig</text>
</a>
</g>
</g>
<!-- Node10&#45;&gt;Node11 -->
<g id="edge1" class="edge">
<title>Node10&#45;&gt;Node11</title>
<path fill="none" stroke="#191970" d="M135.9592,-47.7221C144.3925,-48.8996 152.9932,-50.1005 161.4265,-51.2781"/>
<polygon fill="#191970" stroke="#191970" points="136.1658,-44.217 125.7778,-46.3004 135.1977,-51.1498 136.1658,-44.217"/>
</g>
<!-- Node12 -->
<g id="node3" class="node">
<title>Node12</title>
<g id="a_node3"><a xlink:href="class_hiding_signing_provider.html#a39f2c6985440995db9ac81979b746b46" target="_top" xlink:title="HidingSigningProvider\l::GetKey">
<polygon fill="#ffffff" stroke="#000000" points="177.1611,-.5 177.1611,-28.5 292.1064,-28.5 292.1064,-.5 177.1611,-.5"/>
<text text-anchor="start" x="185.1611" y="-16.5" font-family="Helvetica,sans-Serif" font-size="10.00" fill="#000000">HidingSigningProvider</text>
<text text-anchor="middle" x="234.6338" y="-6.5" font-family="Helvetica,sans-Serif" font-size="10.00" fill="#000000">::GetKey</text>
</a>
</g>
</g>
<!-- Node10&#45;&gt;Node12 -->
<g id="edge2" class="edge">
<title>Node10&#45;&gt;Node12</title>
<path fill="none" stroke="#191970" d="M135.7248,-27.7352C149.5251,-25.8886 163.782,-23.9808 177.0277,-22.2084"/>
<polygon fill="#191970" stroke="#191970" points="135.2252,-24.2708 125.7778,-29.0662 136.1537,-31.2089 135.2252,-24.2708"/>
</g>
</g>
</svg>
