<?xml version="1.0" encoding="UTF-8" standalone="no"?>
<!DOCTYPE svg PUBLIC "-//W3C//DTD SVG 1.1//EN"
 "http://www.w3.org/Graphics/SVG/1.1/DTD/svg11.dtd">
<!-- Generated by graphviz version 2.40.1 (20161225.0304)
 -->
<!-- Title: CHashVerifier&lt; Source &gt; Pages: 1 -->
<svg width="144pt" height="343pt"
 viewBox="0.00 0.00 143.54 343.00" xmlns="http://www.w3.org/2000/svg" xmlns:xlink="http://www.w3.org/1999/xlink">
<g id="graph0" class="graph" transform="scale(1 1) rotate(0) translate(4 339)">
<title>CHashVerifier&lt; Source &gt;</title>
<polygon fill="#ffffff" stroke="transparent" points="-4,4 -4,-339 139.5415,-339 139.5415,4 -4,4"/>
<!-- Node2 -->
<g id="node1" class="node">
<title>Node2</title>
<polygon fill="#bfbfbf" stroke="#000000" points="0,-.5 0,-18.5 126.6152,-18.5 126.6152,-.5 0,-.5"/>
<text text-anchor="middle" x="63.3076" y="-6.5" font-family="Helvetica,sans-Serif" font-size="10.00" fill="#000000">CHashVerifier&lt; Source &gt;</text>
</g>
<!-- Node3 -->
<g id="node2" class="node">
<title>Node3</title>
<g id="a_node2"><a xlink:href="class_c_hash_writer.html" target="_top" xlink:title="A writer stream (for serialization) that computes a 256&#45;bit SHA&#45;3&#45;256 hash. ">
<polygon fill="#ffffff" stroke="#000000" points="26.7822,-56.5 26.7822,-74.5 99.833,-74.5 99.833,-56.5 26.7822,-56.5"/>
<text text-anchor="middle" x="63.3076" y="-62.5" font-family="Helvetica,sans-Serif" font-size="10.00" fill="#000000">CHashWriter</text>
</a>
</g>
</g>
<!-- Node3&#45;&gt;Node2 -->
<g id="edge1" class="edge">
<title>Node3&#45;&gt;Node2</title>
<path fill="none" stroke="#191970" d="M63.3076,-46.2065C63.3076,-36.8384 63.3076,-26.0262 63.3076,-18.5752"/>
<polygon fill="#191970" stroke="#191970" points="59.8077,-46.2527 63.3076,-56.2527 66.8077,-46.2528 59.8077,-46.2527"/>
</g>
<!-- Node4 -->
<g id="node3" class="node">
<title>Node4</title>
<g id="a_node3"><a xlink:href="class_c_hash3.html" target="_top" xlink:title="A hasher class for BSHA3&#39;s 256&#45;bit hash (double SHA&#45;3). ">
<polygon fill="#ffffff" stroke="#000000" points="37.2437,-121.5 37.2437,-139.5 89.3716,-139.5 89.3716,-121.5 37.2437,-121.5"/>
<text text-anchor="middle" x="63.3076" y="-127.5" font-family="Helvetica,sans-Serif" font-size="10.00" fill="#000000">CHash3</text>
</a>
</g>
</g>
<!-- Node4&#45;&gt;Node3 -->
<g id="edge2" class="edge">
<title>Node4&#45;&gt;Node3</title>
<path fill="none" stroke="#9a32cd" stroke-dasharray="5,2" d="M63.3076,-111.1265C63.3076,-99.1522 63.3076,-84.3205 63.3076,-74.8821"/>
<polygon fill="#9a32cd" stroke="#9a32cd" points="59.8077,-111.462 63.3076,-121.462 66.8077,-111.4621 59.8077,-111.462"/>
<text text-anchor="middle" x="71.0859" y="-95" font-family="Helvetica,sans-Serif" font-size="10.00" fill="#000000"> ctx</text>
</g>
<!-- Node5 -->
<g id="node4" class="node">
<title>Node5</title>
<g id="a_node4"><a xlink:href="class_c_s_h_a3.html" target="_top" xlink:title="A hasher class for SHA3&#45;256. ">
<polygon fill="#ffffff" stroke="#000000" points="38.6353,-186.5 38.6353,-204.5 87.98,-204.5 87.98,-186.5 38.6353,-186.5"/>
<text text-anchor="middle" x="63.3076" y="-192.5" font-family="Helvetica,sans-Serif" font-size="10.00" fill="#000000">CSHA3</text>
</a>
</g>
</g>
<!-- Node5&#45;&gt;Node4 -->
<g id="edge3" class="edge">
<title>Node5&#45;&gt;Node4</title>
<path fill="none" stroke="#9a32cd" stroke-dasharray="5,2" d="M63.3076,-176.1265C63.3076,-164.1522 63.3076,-149.3205 63.3076,-139.8821"/>
<polygon fill="#9a32cd" stroke="#9a32cd" points="59.8077,-176.462 63.3076,-186.462 66.8077,-176.4621 59.8077,-176.462"/>
<text text-anchor="middle" x="72.7583" y="-160" font-family="Helvetica,sans-Serif" font-size="10.00" fill="#000000"> sha</text>
</g>
<!-- Node6 -->
<g id="node5" class="node">
<title>Node6</title>
<g id="a_node5"><a xlink:href="class_s_h_a3__256.html" target="_top" xlink:title="SHA3&#45;256 hash algorithm. ">
<polygon fill="#ffffff" stroke="#000000" points="31.123,-251.5 31.123,-269.5 95.4922,-269.5 95.4922,-251.5 31.123,-251.5"/>
<text text-anchor="middle" x="63.3076" y="-257.5" font-family="Helvetica,sans-Serif" font-size="10.00" fill="#000000">SHA3_256</text>
</a>
</g>
</g>
<!-- Node6&#45;&gt;Node5 -->
<g id="edge4" class="edge">
<title>Node6&#45;&gt;Node5</title>
<path fill="none" stroke="#9a32cd" stroke-dasharray="5,2" d="M63.3076,-241.1265C63.3076,-229.1522 63.3076,-214.3205 63.3076,-204.8821"/>
<polygon fill="#9a32cd" stroke="#9a32cd" points="59.8077,-241.462 63.3076,-251.462 66.8077,-241.4621 59.8077,-241.462"/>
<text text-anchor="middle" x="91.6572" y="-225" font-family="Helvetica,sans-Serif" font-size="10.00" fill="#000000"> sha3Hasher</text>
</g>
<!-- Node7 -->
<g id="node6" class="node">
<title>Node7</title>
<g id="a_node6"><a xlink:href="class_hash.html" target="_top" xlink:title="Abstract base class for cryptographic hash algorithms. ">
<polygon fill="#ffffff" stroke="#000000" points="7.6353,-316.5 7.6353,-334.5 46.98,-334.5 46.98,-316.5 7.6353,-316.5"/>
<text text-anchor="middle" x="27.3076" y="-322.5" font-family="Helvetica,sans-Serif" font-size="10.00" fill="#000000">Hash</text>
</a>
</g>
</g>
<!-- Node7&#45;&gt;Node6 -->
<g id="edge5" class="edge">
<title>Node7&#45;&gt;Node6</title>
<path fill="none" stroke="#191970" d="M37.2255,-307.5926C43.9869,-295.3846 52.6684,-279.7097 58.1114,-269.8821"/>
<polygon fill="#191970" stroke="#191970" points="34.0965,-306.0183 32.3133,-316.462 40.2201,-309.4099 34.0965,-306.0183"/>
</g>
<!-- Node8 -->
<g id="node7" class="node">
<title>Node8</title>
<g id="a_node7"><a xlink:href="class_keccak_core.html" target="_top" xlink:title="Keccak core sponge function. ">
<polygon fill="#ffffff" stroke="#000000" points="65.0737,-316.5 65.0737,-334.5 135.5415,-334.5 135.5415,-316.5 65.0737,-316.5"/>
<text text-anchor="middle" x="100.3076" y="-322.5" font-family="Helvetica,sans-Serif" font-size="10.00" fill="#000000">KeccakCore</text>
</a>
</g>
</g>
<!-- Node8&#45;&gt;Node6 -->
<g id="edge6" class="edge">
<title>Node8&#45;&gt;Node6</title>
<path fill="none" stroke="#9a32cd" stroke-dasharray="5,2" d="M90.1142,-307.5926C83.165,-295.3846 74.2424,-279.7097 68.6482,-269.8821"/>
<polygon fill="#9a32cd" stroke="#9a32cd" points="87.1742,-309.5028 95.1629,-316.462 93.2576,-306.0399 87.1742,-309.5028"/>
<text text-anchor="middle" x="94.4233" y="-290" font-family="Helvetica,sans-Serif" font-size="10.00" fill="#000000"> core</text>
</g>
</g>
</svg>
