<?xml version="1.0" encoding="UTF-8" standalone="no"?>
<!DOCTYPE svg PUBLIC "-//W3C//DTD SVG 1.1//EN"
 "http://www.w3.org/Graphics/SVG/1.1/DTD/svg11.dtd">
<!-- Generated by graphviz version 2.40.1 (20161225.0304)
 -->
<!-- Title: UniValue::get_real Pages: 1 -->
<svg width="243pt" height="64pt"
 viewBox="0.00 0.00 243.33 64.00" xmlns="http://www.w3.org/2000/svg" xmlns:xlink="http://www.w3.org/1999/xlink">
<g id="graph0" class="graph" transform="scale(1 1) rotate(0) translate(4 60)">
<title>UniValue::get_real</title>
<polygon fill="#ffffff" stroke="transparent" points="-4,4 -4,-60 239.334,-60 239.334,4 -4,4"/>
<!-- Node205 -->
<g id="node1" class="node">
<title>Node205</title>
<polygon fill="#bfbfbf" stroke="#000000" points="0,-18.5 0,-36.5 97.5381,-36.5 97.5381,-18.5 0,-18.5"/>
<text text-anchor="middle" x="48.769" y="-24.5" font-family="Helvetica,sans-Serif" font-size="10.00" fill="#000000">UniValue::get_real</text>
</g>
<!-- Node206 -->
<g id="node2" class="node">
<title>Node206</title>
<g id="a_node2"><a xlink:href="utilstrencodings_8cpp.html#acde05f33990e3c89cd8bc1088cc992a2" target="_top" xlink:title="Convert string to double with strict parse error feedback. ">
<polygon fill="#ffffff" stroke="#000000" points="147.5298,-37.5 147.5298,-55.5 221.3423,-55.5 221.3423,-37.5 147.5298,-37.5"/>
<text text-anchor="middle" x="184.436" y="-43.5" font-family="Helvetica,sans-Serif" font-size="10.00" fill="#000000">ParseDouble</text>
</a>
</g>
</g>
<!-- Node205&#45;&gt;Node206 -->
<g id="edge1" class="edge">
<title>Node205&#45;&gt;Node206</title>
<path fill="none" stroke="#191970" d="M97.7479,-34.3594C110.6839,-36.1711 124.6137,-38.122 137.4421,-39.9186"/>
<polygon fill="#191970" stroke="#191970" points="137.0652,-43.3999 147.4541,-41.3207 138.0362,-36.4675 137.0652,-43.3999"/>
</g>
<!-- Node207 -->
<g id="node3" class="node">
<title>Node207</title>
<g id="a_node3"><a xlink:href="class_uni_value.html#a4c9a5fa9114affbf31f6e346c032be12" target="_top" xlink:title="UniValue::getValStr">
<polygon fill="#ffffff" stroke="#000000" points="133.5381,-.5 133.5381,-18.5 235.334,-18.5 235.334,-.5 133.5381,-.5"/>
<text text-anchor="middle" x="184.436" y="-6.5" font-family="Helvetica,sans-Serif" font-size="10.00" fill="#000000">UniValue::getValStr</text>
</a>
</g>
</g>
<!-- Node205&#45;&gt;Node207 -->
<g id="edge2" class="edge">
<title>Node205&#45;&gt;Node207</title>
<path fill="none" stroke="#191970" d="M97.7479,-21.0016C106.0399,-19.9014 114.7401,-18.7471 123.2969,-17.6118"/>
<polygon fill="#191970" stroke="#191970" points="123.7901,-21.0771 133.2428,-16.2922 122.8693,-14.1379 123.7901,-21.0771"/>
</g>
</g>
</svg>
