<?xml version="1.0" encoding="UTF-8" standalone="no"?>
<!DOCTYPE svg PUBLIC "-//W3C//DTD SVG 1.1//EN"
 "http://www.w3.org/Graphics/SVG/1.1/DTD/svg11.dtd">
<!-- Generated by graphviz version 2.40.1 (20161225.0304)
 -->
<!-- Title: CTxMemPool::GetTransactionAncestry Pages: 1 -->
<svg width="582pt" height="37pt"
 viewBox="0.00 0.00 582.24 37.00" xmlns="http://www.w3.org/2000/svg" xmlns:xlink="http://www.w3.org/1999/xlink">
<g id="graph0" class="graph" transform="scale(1 1) rotate(0) translate(4 33)">
<title>CTxMemPool::GetTransactionAncestry</title>
<polygon fill="#ffffff" stroke="transparent" points="-4,4 -4,-33 578.2432,-33 578.2432,4 -4,4"/>
<!-- Node203 -->
<g id="node1" class="node">
<title>Node203</title>
<polygon fill="#bfbfbf" stroke="#000000" points="0,-.5 0,-28.5 150.1211,-28.5 150.1211,-.5 0,-.5"/>
<text text-anchor="start" x="8" y="-16.5" font-family="Helvetica,sans-Serif" font-size="10.00" fill="#000000">CTxMemPool::GetTransaction</text>
<text text-anchor="middle" x="75.0605" y="-6.5" font-family="Helvetica,sans-Serif" font-size="10.00" fill="#000000">Ancestry</text>
</g>
<!-- Node204 -->
<g id="node2" class="node">
<title>Node204</title>
<g id="a_node2"><a xlink:href="class_c_tx_mem_pool.html#af02afb44971b7f1ba7e04a927edae898" target="_top" xlink:title="CTxMemPool::CalculateDescendant\lMaximum">
<polygon fill="#ffffff" stroke="#000000" points="186.1211,-.5 186.1211,-28.5 363.3027,-28.5 363.3027,-.5 186.1211,-.5"/>
<text text-anchor="start" x="194.1211" y="-16.5" font-family="Helvetica,sans-Serif" font-size="10.00" fill="#000000">CTxMemPool::CalculateDescendant</text>
<text text-anchor="middle" x="274.7119" y="-6.5" font-family="Helvetica,sans-Serif" font-size="10.00" fill="#000000">Maximum</text>
</a>
</g>
</g>
<!-- Node203&#45;&gt;Node204 -->
<g id="edge1" class="edge">
<title>Node203&#45;&gt;Node204</title>
<path fill="none" stroke="#191970" d="M150.2557,-14.5C158.5978,-14.5 167.1847,-14.5 175.7629,-14.5"/>
<polygon fill="#191970" stroke="#191970" points="175.8139,-18.0001 185.8139,-14.5 175.8139,-11.0001 175.8139,-18.0001"/>
</g>
<!-- Node205 -->
<g id="node3" class="node">
<title>Node205</title>
<g id="a_node3"><a xlink:href="class_c_tx_mem_pool.html#a2015d67e9fdf55397051620dda9748d1" target="_top" xlink:title="CTxMemPool::GetMemPoolParents">
<polygon fill="#ffffff" stroke="#000000" points="399.3027,-5.5 399.3027,-23.5 574.2432,-23.5 574.2432,-5.5 399.3027,-5.5"/>
<text text-anchor="middle" x="486.7729" y="-11.5" font-family="Helvetica,sans-Serif" font-size="10.00" fill="#000000">CTxMemPool::GetMemPoolParents</text>
</a>
</g>
</g>
<!-- Node204&#45;&gt;Node205 -->
<g id="edge2" class="edge">
<title>Node204&#45;&gt;Node205</title>
<path fill="none" stroke="#191970" d="M363.4162,-14.5C371.9,-14.5 380.536,-14.5 389.0988,-14.5"/>
<polygon fill="#191970" stroke="#191970" points="389.1038,-18.0001 399.1038,-14.5 389.1037,-11.0001 389.1038,-18.0001"/>
</g>
</g>
</svg>
