<?xml version="1.0" encoding="UTF-8" standalone="no"?>
<!DOCTYPE svg PUBLIC "-//W3C//DTD SVG 1.1//EN"
 "http://www.w3.org/Graphics/SVG/1.1/DTD/svg11.dtd">
<!-- Generated by graphviz version 2.40.1 (20161225.0304)
 -->
<!-- Title: CConnman Pages: 1 -->
<svg width="648pt" height="311pt"
 viewBox="0.00 0.00 648.01 311.00" xmlns="http://www.w3.org/2000/svg" xmlns:xlink="http://www.w3.org/1999/xlink">
<g id="graph0" class="graph" transform="scale(1 1) rotate(0) translate(4 307)">
<title>CConnman</title>
<polygon fill="#ffffff" stroke="transparent" points="-4,4 -4,-307 644.0078,-307 644.0078,4 -4,4"/>
<!-- Node1 -->
<g id="node1" class="node">
<title>Node1</title>
<polygon fill="#bfbfbf" stroke="#000000" points="573.4268,-107.5 573.4268,-125.5 640.0078,-125.5 640.0078,-107.5 573.4268,-107.5"/>
<text text-anchor="middle" x="606.7173" y="-113.5" font-family="Helvetica,sans-Serif" font-size="10.00" fill="#000000">CConnman</text>
</g>
<!-- Node2 -->
<g id="node2" class="node">
<title>Node2</title>
<g id="a_node2"><a xlink:href="class_c_addr_man.html" target="_top" xlink:title="Stochastical (IP) address manager. ">
<polygon fill="#ffffff" stroke="#000000" points="389.9717,-254.5 389.9717,-272.5 453.7695,-272.5 453.7695,-254.5 389.9717,-254.5"/>
<text text-anchor="middle" x="421.8706" y="-260.5" font-family="Helvetica,sans-Serif" font-size="10.00" fill="#000000">CAddrMan</text>
</a>
</g>
</g>
<!-- Node2&#45;&gt;Node1 -->
<g id="edge1" class="edge">
<title>Node2&#45;&gt;Node1</title>
<path fill="none" stroke="#9a32cd" stroke-dasharray="5,2" d="M455.0749,-250.5653C483.9911,-238.1091 525.8074,-217.1024 555.4268,-189.5 576.2767,-170.0699 593.6516,-140.8587 601.7757,-125.9643"/>
<polygon fill="#9a32cd" stroke="#9a32cd" points="453.6652,-247.3611 445.7993,-254.4589 456.3746,-253.8155 453.6652,-247.3611"/>
<text text-anchor="middle" x="522.9097" y="-235.5" font-family="Helvetica,sans-Serif" font-size="10.00" fill="#000000"> addrman</text>
</g>
<!-- Node3 -->
<g id="node3" class="node">
<title>Node3</title>
<g id="a_node3"><a xlink:href="classuint256.html" target="_top" xlink:title="256&#45;bit opaque blob. ">
<polygon fill="#ffffff" stroke="#000000" points="190.938,-284.5 190.938,-302.5 239.7456,-302.5 239.7456,-284.5 190.938,-284.5"/>
<text text-anchor="middle" x="215.3418" y="-290.5" font-family="Helvetica,sans-Serif" font-size="10.00" fill="#000000">uint256</text>
</a>
</g>
</g>
<!-- Node3&#45;&gt;Node2 -->
<g id="edge2" class="edge">
<title>Node3&#45;&gt;Node2</title>
<path fill="none" stroke="#9a32cd" stroke-dasharray="5,2" d="M250.1972,-288.437C289.2806,-282.7598 352.1283,-273.6306 389.9649,-268.1346"/>
<polygon fill="#9a32cd" stroke="#9a32cd" points="249.2374,-285.0396 239.8444,-289.9408 250.2437,-291.9669 249.2374,-285.0396"/>
<text text-anchor="middle" x="320.2725" y="-284.5" font-family="Helvetica,sans-Serif" font-size="10.00" fill="#000000"> nKey</text>
</g>
<!-- Node4 -->
<g id="node4" class="node">
<title>Node4</title>
<g id="a_node4"><a xlink:href="classbase__blob.html" target="_top" xlink:title="base_blob\&lt; 256 \&gt;">
<polygon fill="#ffffff" stroke="#000000" points="6.0913,-284.5 6.0913,-302.5 102.1646,-302.5 102.1646,-284.5 6.0913,-284.5"/>
<text text-anchor="middle" x="54.1279" y="-290.5" font-family="Helvetica,sans-Serif" font-size="10.00" fill="#000000">base_blob&lt; 256 &gt;</text>
</a>
</g>
</g>
<!-- Node4&#45;&gt;Node3 -->
<g id="edge3" class="edge">
<title>Node4&#45;&gt;Node3</title>
<path fill="none" stroke="#191970" d="M112.6254,-293.5C139.5809,-293.5 170.1114,-293.5 190.8322,-293.5"/>
<polygon fill="#191970" stroke="#191970" points="112.4974,-290.0001 102.4974,-293.5 112.4974,-297.0001 112.4974,-290.0001"/>
</g>
<!-- Node5 -->
<g id="node5" class="node">
<title>Node5</title>
<g id="a_node5"><a xlink:href="class_fast_random_context.html" target="_top" xlink:title="Fast randomness source. ">
<polygon fill="#ffffff" stroke="#000000" points="161.4873,-247.5 161.4873,-265.5 269.1963,-265.5 269.1963,-247.5 161.4873,-247.5"/>
<text text-anchor="middle" x="215.3418" y="-253.5" font-family="Helvetica,sans-Serif" font-size="10.00" fill="#000000">FastRandomContext</text>
</a>
</g>
</g>
<!-- Node5&#45;&gt;Node2 -->
<g id="edge4" class="edge">
<title>Node5&#45;&gt;Node2</title>
<path fill="none" stroke="#9a32cd" stroke-dasharray="5,2" d="M279.5167,-258.163C302.7752,-258.8178 329.2485,-259.6232 353.3486,-260.5 365.2483,-260.9329 378.307,-261.4854 389.8035,-261.9979"/>
<polygon fill="#9a32cd" stroke="#9a32cd" points="279.5139,-254.6617 269.4205,-257.8825 279.3194,-261.659 279.5139,-254.6617"/>
<text text-anchor="middle" x="320.2725" y="-262.5" font-family="Helvetica,sans-Serif" font-size="10.00" fill="#000000"> insecure_rand</text>
</g>
<!-- Node6 -->
<g id="node6" class="node">
<title>Node6</title>
<g id="a_node6"><a xlink:href="class_cha_cha20.html" target="_top" xlink:title="A PRNG class for ChaCha20. ">
<polygon fill="#ffffff" stroke="#000000" points="22.2217,-247.5 22.2217,-265.5 86.0342,-265.5 86.0342,-247.5 22.2217,-247.5"/>
<text text-anchor="middle" x="54.1279" y="-253.5" font-family="Helvetica,sans-Serif" font-size="10.00" fill="#000000">ChaCha20</text>
</a>
</g>
</g>
<!-- Node6&#45;&gt;Node5 -->
<g id="edge5" class="edge">
<title>Node6&#45;&gt;Node5</title>
<path fill="none" stroke="#9a32cd" stroke-dasharray="5,2" d="M96.6135,-256.5C116.4109,-256.5 140.1941,-256.5 161.2579,-256.5"/>
<polygon fill="#9a32cd" stroke="#9a32cd" points="96.3645,-253.0001 86.3645,-256.5 96.3645,-260.0001 96.3645,-253.0001"/>
<text text-anchor="middle" x="134.8716" y="-258.5" font-family="Helvetica,sans-Serif" font-size="10.00" fill="#000000"> rng</text>
</g>
<!-- Node7 -->
<g id="node7" class="node">
<title>Node7</title>
<g id="a_node7"><a xlink:href="class_annotated_mixin.html" target="_top" xlink:title="AnnotatedMixin\&lt; std\l::recursive_mutex \&gt;">
<polygon fill="#ffffff" stroke="#000000" points="161.8975,-170.5 161.8975,-198.5 268.7861,-198.5 268.7861,-170.5 161.8975,-170.5"/>
<text text-anchor="start" x="169.8975" y="-186.5" font-family="Helvetica,sans-Serif" font-size="10.00" fill="#000000">AnnotatedMixin&lt; std</text>
<text text-anchor="middle" x="215.3418" y="-176.5" font-family="Helvetica,sans-Serif" font-size="10.00" fill="#000000">::recursive_mutex &gt;</text>
</a>
</g>
</g>
<!-- Node7&#45;&gt;Node1 -->
<g id="edge14" class="edge">
<title>Node7&#45;&gt;Node1</title>
<path fill="none" stroke="#9a32cd" stroke-dasharray="5,2" d="M279.2024,-176.4759C347.8381,-167.3599 459.9501,-151.0465 555.4268,-130.5 562.0141,-129.0824 569.0153,-127.3349 575.6586,-125.5609"/>
<polygon fill="#9a32cd" stroke="#9a32cd" points="278.4411,-173.0459 268.9841,-177.8225 279.3557,-179.9859 278.4411,-173.0459"/>
<text text-anchor="middle" x="421.8706" y="-214.5" font-family="Helvetica,sans-Serif" font-size="10.00" fill="#000000"> cs_setBanned</text>
<text text-anchor="middle" x="421.8706" y="-204.5" font-family="Helvetica,sans-Serif" font-size="10.00" fill="#000000">cs_totalBytesSent</text>
<text text-anchor="middle" x="421.8706" y="-194.5" font-family="Helvetica,sans-Serif" font-size="10.00" fill="#000000">cs_vNodes</text>
<text text-anchor="middle" x="421.8706" y="-184.5" font-family="Helvetica,sans-Serif" font-size="10.00" fill="#000000">cs_vOneShots</text>
<text text-anchor="middle" x="421.8706" y="-174.5" font-family="Helvetica,sans-Serif" font-size="10.00" fill="#000000">cs_vAddedNodes</text>
<text text-anchor="middle" x="421.8706" y="-164.5" font-family="Helvetica,sans-Serif" font-size="10.00" fill="#000000">cs_totalBytesRecv</text>
</g>
<!-- Node7&#45;&gt;Node2 -->
<g id="edge6" class="edge">
<title>Node7&#45;&gt;Node2</title>
<path fill="none" stroke="#9a32cd" stroke-dasharray="5,2" d="M261.8014,-202.2714C304.1449,-218.4684 364.9873,-241.7414 398.135,-254.4208"/>
<polygon fill="#9a32cd" stroke="#9a32cd" points="262.8555,-198.9274 252.265,-198.6236 260.3546,-205.4654 262.8555,-198.9274"/>
<text text-anchor="middle" x="320.2725" y="-237.5" font-family="Helvetica,sans-Serif" font-size="10.00" fill="#000000"> cs</text>
</g>
<!-- Node8 -->
<g id="node8" class="node">
<title>Node8</title>
<polygon fill="#ffffff" stroke="#bfbfbf" points="0,-175.5 0,-193.5 108.2559,-193.5 108.2559,-175.5 0,-175.5"/>
<text text-anchor="middle" x="54.1279" y="-181.5" font-family="Helvetica,sans-Serif" font-size="10.00" fill="#000000">std::recursive_mutex</text>
</g>
<!-- Node8&#45;&gt;Node7 -->
<g id="edge7" class="edge">
<title>Node8&#45;&gt;Node7</title>
<path fill="none" stroke="#191970" d="M118.5145,-184.5C132.8092,-184.5 147.814,-184.5 161.6284,-184.5"/>
<polygon fill="#191970" stroke="#191970" points="118.2583,-181.0001 108.2583,-184.5 118.2583,-188.0001 118.2583,-181.0001"/>
</g>
<!-- Node9 -->
<g id="node9" class="node">
<title>Node9</title>
<g id="a_node9"><a xlink:href="class_annotated_mixin.html" target="_top" xlink:title="AnnotatedMixin\&lt; std\l::mutex \&gt;">
<polygon fill="#ffffff" stroke="#000000" points="161.8975,-106.5 161.8975,-134.5 268.7861,-134.5 268.7861,-106.5 161.8975,-106.5"/>
<text text-anchor="start" x="169.8975" y="-122.5" font-family="Helvetica,sans-Serif" font-size="10.00" fill="#000000">AnnotatedMixin&lt; std</text>
<text text-anchor="middle" x="215.3418" y="-112.5" font-family="Helvetica,sans-Serif" font-size="10.00" fill="#000000">::mutex &gt;</text>
</a>
</g>
</g>
<!-- Node9&#45;&gt;Node1 -->
<g id="edge8" class="edge">
<title>Node9&#45;&gt;Node1</title>
<path fill="none" stroke="#9a32cd" stroke-dasharray="5,2" d="M279.1355,-119.848C363.2314,-118.9885 508.1246,-117.5077 573.2749,-116.8418"/>
<polygon fill="#9a32cd" stroke="#9a32cd" points="278.9039,-116.3501 268.9403,-119.9522 278.9755,-123.3497 278.9039,-116.3501"/>
<text text-anchor="middle" x="421.8706" y="-120.5" font-family="Helvetica,sans-Serif" font-size="10.00" fill="#000000"> mutexMsgProc</text>
</g>
<!-- Node13 -->
<g id="node13" class="node">
<title>Node13</title>
<g id="a_node13"><a xlink:href="class_c_thread_interrupt.html" target="_top" xlink:title="CThreadInterrupt">
<polygon fill="#ffffff" stroke="#000000" points="375.7969,-74.5 375.7969,-92.5 467.9443,-92.5 467.9443,-74.5 375.7969,-74.5"/>
<text text-anchor="middle" x="421.8706" y="-80.5" font-family="Helvetica,sans-Serif" font-size="10.00" fill="#000000">CThreadInterrupt</text>
</a>
</g>
</g>
<!-- Node9&#45;&gt;Node13 -->
<g id="edge13" class="edge">
<title>Node9&#45;&gt;Node13</title>
<path fill="none" stroke="#9a32cd" stroke-dasharray="5,2" d="M279.0589,-107.0454C281.8064,-106.5136 284.528,-105.9962 287.1963,-105.5 316.5436,-100.0425 349.6269,-94.6277 375.6591,-90.5357"/>
<polygon fill="#9a32cd" stroke="#9a32cd" points="278.1787,-103.6515 269.0452,-109.0208 279.5335,-110.5191 278.1787,-103.6515"/>
<text text-anchor="middle" x="320.2725" y="-107.5" font-family="Helvetica,sans-Serif" font-size="10.00" fill="#000000"> mut</text>
</g>
<!-- Node10 -->
<g id="node10" class="node">
<title>Node10</title>
<polygon fill="#ffffff" stroke="#bfbfbf" points="23.064,-111.5 23.064,-129.5 85.1919,-129.5 85.1919,-111.5 23.064,-111.5"/>
<text text-anchor="middle" x="54.1279" y="-117.5" font-family="Helvetica,sans-Serif" font-size="10.00" fill="#000000">std::mutex</text>
</g>
<!-- Node10&#45;&gt;Node9 -->
<g id="edge9" class="edge">
<title>Node10&#45;&gt;Node9</title>
<path fill="none" stroke="#191970" d="M95.3454,-120.5C115.5624,-120.5 140.1628,-120.5 161.8139,-120.5"/>
<polygon fill="#191970" stroke="#191970" points="95.2116,-117.0001 85.2116,-120.5 95.2116,-124.0001 95.2116,-117.0001"/>
</g>
<!-- Node11 -->
<g id="node11" class="node">
<title>Node11</title>
<g id="a_node11"><a xlink:href="class_c_client_u_i_interface.html" target="_top" xlink:title="Signals for UI communication. ">
<polygon fill="#ffffff" stroke="#000000" points="373.021,-37.5 373.021,-55.5 470.7202,-55.5 470.7202,-37.5 373.021,-37.5"/>
<text text-anchor="middle" x="421.8706" y="-43.5" font-family="Helvetica,sans-Serif" font-size="10.00" fill="#000000">CClientUIInterface</text>
</a>
</g>
</g>
<!-- Node11&#45;&gt;Node1 -->
<g id="edge10" class="edge">
<title>Node11&#45;&gt;Node1</title>
<path fill="none" stroke="#9a32cd" stroke-dasharray="5,2" d="M480.8769,-56.6916C504.6969,-62.03 532.027,-69.7504 555.4268,-80.5 570.6509,-87.4938 586.1194,-99.1008 596.029,-107.2398"/>
<polygon fill="#9a32cd" stroke="#9a32cd" points="481.4173,-53.2279 470.905,-54.5478 479.9459,-60.0715 481.4173,-53.2279"/>
<text text-anchor="middle" x="522.9097" y="-82.5" font-family="Helvetica,sans-Serif" font-size="10.00" fill="#000000"> clientInterface</text>
</g>
<!-- Node12 -->
<g id="node12" class="node">
<title>Node12</title>
<g id="a_node12"><a xlink:href="class_net_events_interface.html" target="_top" xlink:title="Interface for message handling. ">
<polygon fill="#ffffff" stroke="#000000" points="371.3486,-.5 371.3486,-18.5 472.3926,-18.5 472.3926,-.5 371.3486,-.5"/>
<text text-anchor="middle" x="421.8706" y="-6.5" font-family="Helvetica,sans-Serif" font-size="10.00" fill="#000000">NetEventsInterface</text>
</a>
</g>
</g>
<!-- Node12&#45;&gt;Node1 -->
<g id="edge11" class="edge">
<title>Node12&#45;&gt;Node1</title>
<path fill="none" stroke="#9a32cd" stroke-dasharray="5,2" d="M482.4426,-16.2504C506.7476,-21.1837 534.013,-29.7221 555.4268,-44.5 579.1739,-60.8882 595.7038,-92.0363 602.8097,-107.4274"/>
<polygon fill="#9a32cd" stroke="#9a32cd" points="483.0609,-12.8054 472.5882,-14.4097 481.7755,-19.6864 483.0609,-12.8054"/>
<text text-anchor="middle" x="522.9097" y="-46.5" font-family="Helvetica,sans-Serif" font-size="10.00" fill="#000000"> m_msgproc</text>
</g>
<!-- Node13&#45;&gt;Node1 -->
<g id="edge12" class="edge">
<title>Node13&#45;&gt;Node1</title>
<path fill="none" stroke="#9a32cd" stroke-dasharray="5,2" d="M477.9824,-92.1289C501.8955,-95.9652 530.0727,-100.6959 555.4268,-105.5 561.2429,-106.602 567.4121,-107.8536 573.3802,-109.1077"/>
<polygon fill="#9a32cd" stroke="#9a32cd" points="478.4416,-88.6581 468.0156,-90.542 477.3408,-95.571 478.4416,-88.6581"/>
<text text-anchor="middle" x="522.9097" y="-107.5" font-family="Helvetica,sans-Serif" font-size="10.00" fill="#000000"> interruptNet</text>
</g>
</g>
</svg>
