<?xml version="1.0" encoding="UTF-8" standalone="no"?>
<!DOCTYPE svg PUBLIC "-//W3C//DTD SVG 1.1//EN"
 "http://www.w3.org/Graphics/SVG/1.1/DTD/svg11.dtd">
<!-- Generated by graphviz version 2.40.1 (20161225.0304)
 -->
<!-- Title: FastRandomContext::FastRandomContext Pages: 1 -->
<svg width="259pt" height="64pt"
 viewBox="0.00 0.00 258.88 64.00" xmlns="http://www.w3.org/2000/svg" xmlns:xlink="http://www.w3.org/1999/xlink">
<g id="graph0" class="graph" transform="scale(1 1) rotate(0) translate(4 60)">
<title>FastRandomContext::FastRandomContext</title>
<polygon fill="#ffffff" stroke="transparent" points="-4,4 -4,-60 254.876,-60 254.876,4 -4,4"/>
<!-- Node4 -->
<g id="node1" class="node">
<title>Node4</title>
<polygon fill="#bfbfbf" stroke="#000000" points="0,-13.5 0,-41.5 113.2656,-41.5 113.2656,-13.5 0,-13.5"/>
<text text-anchor="start" x="8" y="-29.5" font-family="Helvetica,sans-Serif" font-size="10.00" fill="#000000">FastRandomContext::</text>
<text text-anchor="middle" x="56.6328" y="-19.5" font-family="Helvetica,sans-Serif" font-size="10.00" fill="#000000">FastRandomContext</text>
</g>
<!-- Node5 -->
<g id="node2" class="node">
<title>Node5</title>
<g id="a_node2"><a xlink:href="class_cha_cha20.html#aeb732e9e8439e474f2cac0244b46e2cf" target="_top" xlink:title="ChaCha20::SetKey">
<polygon fill="#ffffff" stroke="#000000" points="149.2656,-37.5 149.2656,-55.5 250.876,-55.5 250.876,-37.5 149.2656,-37.5"/>
<text text-anchor="middle" x="200.0708" y="-43.5" font-family="Helvetica,sans-Serif" font-size="10.00" fill="#000000">ChaCha20::SetKey</text>
</a>
</g>
</g>
<!-- Node4&#45;&gt;Node5 -->
<g id="edge1" class="edge">
<title>Node4&#45;&gt;Node5</title>
<path fill="none" stroke="#191970" d="M113.3233,-35.0093C121.6741,-36.1155 130.3094,-37.2593 138.7486,-38.3772"/>
<polygon fill="#191970" stroke="#191970" points="138.5398,-41.88 148.9128,-39.7235 139.4591,-34.9406 138.5398,-41.88"/>
</g>
<!-- Node6 -->
<g id="node3" class="node">
<title>Node6</title>
<g id="a_node3"><a xlink:href="classbase__blob.html#aeee68e00ceeacf49086e98b661e017ff" target="_top" xlink:title="base_blob::begin">
<polygon fill="#ffffff" stroke="#000000" points="153.9824,-.5 153.9824,-18.5 246.1592,-18.5 246.1592,-.5 153.9824,-.5"/>
<text text-anchor="middle" x="200.0708" y="-6.5" font-family="Helvetica,sans-Serif" font-size="10.00" fill="#000000">base_blob::begin</text>
</a>
</g>
</g>
<!-- Node4&#45;&gt;Node6 -->
<g id="edge2" class="edge">
<title>Node4&#45;&gt;Node6</title>
<path fill="none" stroke="#191970" d="M113.3233,-20.3859C123.3197,-19.1315 133.724,-17.8258 143.7113,-16.5725"/>
<polygon fill="#191970" stroke="#191970" points="144.4473,-20.0077 153.9337,-15.2897 143.5756,-13.0622 144.4473,-20.0077"/>
</g>
</g>
</svg>
