<?xml version="1.0" encoding="UTF-8" standalone="no"?>
<!DOCTYPE svg PUBLIC "-//W3C//DTD SVG 1.1//EN"
 "http://www.w3.org/Graphics/SVG/1.1/DTD/svg11.dtd">
<!-- Generated by graphviz version 2.40.1 (20161225.0304)
 -->
<!-- Title: BlockFilter::GetHash Pages: 1 -->
<svg width="718pt" height="101pt"
 viewBox="0.00 0.00 718.49 101.00" xmlns="http://www.w3.org/2000/svg" xmlns:xlink="http://www.w3.org/1999/xlink">
<g id="graph0" class="graph" transform="scale(1 1) rotate(0) translate(4 97)">
<title>BlockFilter::GetHash</title>
<polygon fill="#ffffff" stroke="transparent" points="-4,4 -4,-97 714.4893,-97 714.4893,4 -4,4"/>
<!-- Node24 -->
<g id="node1" class="node">
<title>Node24</title>
<polygon fill="#bfbfbf" stroke="#000000" points="0,-37.5 0,-55.5 107.6943,-55.5 107.6943,-37.5 0,-37.5"/>
<text text-anchor="middle" x="53.8472" y="-43.5" font-family="Helvetica,sans-Serif" font-size="10.00" fill="#000000">BlockFilter::GetHash</text>
</g>
<!-- Node25 -->
<g id="node2" class="node">
<title>Node25</title>
<g id="a_node2"><a xlink:href="class_block_filter.html#a4888014580e60ca435e0288ad28ae89b" target="_top" xlink:title="BlockFilter::GetEncodedFilter">
<polygon fill="#ffffff" stroke="#000000" points="143.6943,-74.5 143.6943,-92.5 289.7432,-92.5 289.7432,-74.5 143.6943,-74.5"/>
<text text-anchor="middle" x="216.7188" y="-80.5" font-family="Helvetica,sans-Serif" font-size="10.00" fill="#000000">BlockFilter::GetEncodedFilter</text>
</a>
</g>
</g>
<!-- Node24&#45;&gt;Node25 -->
<g id="edge1" class="edge">
<title>Node24&#45;&gt;Node25</title>
<path fill="none" stroke="#191970" d="M93.69,-55.5512C115.8566,-60.5869 143.6433,-66.8992 167.1982,-72.2503"/>
<polygon fill="#191970" stroke="#191970" points="166.4784,-75.6759 177.0053,-74.4782 168.0291,-68.8498 166.4784,-75.6759"/>
</g>
<!-- Node27 -->
<g id="node4" class="node">
<title>Node27</title>
<g id="a_node4"><a xlink:href="class_c_hash256.html#a9cc25033c6435cb28e2e8e377c949a7a" target="_top" xlink:title="CHash256::Write">
<polygon fill="#ffffff" stroke="#000000" points="170.7378,-37.5 170.7378,-55.5 262.6997,-55.5 262.6997,-37.5 170.7378,-37.5"/>
<text text-anchor="middle" x="216.7188" y="-43.5" font-family="Helvetica,sans-Serif" font-size="10.00" fill="#000000">CHash256::Write</text>
</a>
</g>
</g>
<!-- Node24&#45;&gt;Node27 -->
<g id="edge3" class="edge">
<title>Node24&#45;&gt;Node27</title>
<path fill="none" stroke="#191970" d="M108.081,-46.5C124.8637,-46.5 143.3877,-46.5 160.3137,-46.5"/>
<polygon fill="#191970" stroke="#191970" points="160.6162,-50.0001 170.6162,-46.5 160.6161,-43.0001 160.6162,-50.0001"/>
</g>
<!-- Node32 -->
<g id="node9" class="node">
<title>Node32</title>
<g id="a_node9"><a xlink:href="classbase__blob.html#aeee68e00ceeacf49086e98b661e017ff" target="_top" xlink:title="base_blob::begin">
<polygon fill="#ffffff" stroke="#000000" points="170.6304,-.5 170.6304,-18.5 262.8071,-18.5 262.8071,-.5 170.6304,-.5"/>
<text text-anchor="middle" x="216.7188" y="-6.5" font-family="Helvetica,sans-Serif" font-size="10.00" fill="#000000">base_blob::begin</text>
</a>
</g>
</g>
<!-- Node24&#45;&gt;Node32 -->
<g id="edge8" class="edge">
<title>Node24&#45;&gt;Node32</title>
<path fill="none" stroke="#191970" d="M93.69,-37.4488C115.8566,-32.4131 143.6433,-26.1008 167.1982,-20.7497"/>
<polygon fill="#191970" stroke="#191970" points="168.0291,-24.1502 177.0053,-18.5218 166.4784,-17.3241 168.0291,-24.1502"/>
</g>
<!-- Node26 -->
<g id="node3" class="node">
<title>Node26</title>
<g id="a_node3"><a xlink:href="class_g_c_s_filter.html#ae6b97b6496a3fdb522486c120546746e" target="_top" xlink:title="GCSFilter::GetEncoded">
<polygon fill="#ffffff" stroke="#000000" points="325.7432,-74.5 325.7432,-92.5 446.7871,-92.5 446.7871,-74.5 325.7432,-74.5"/>
<text text-anchor="middle" x="386.2651" y="-80.5" font-family="Helvetica,sans-Serif" font-size="10.00" fill="#000000">GCSFilter::GetEncoded</text>
</a>
</g>
</g>
<!-- Node25&#45;&gt;Node26 -->
<g id="edge2" class="edge">
<title>Node25&#45;&gt;Node26</title>
<path fill="none" stroke="#191970" d="M290.0982,-83.5C298.4968,-83.5 307.0474,-83.5 315.4121,-83.5"/>
<polygon fill="#191970" stroke="#191970" points="315.5003,-87.0001 325.5002,-83.5 315.5002,-80.0001 315.5003,-87.0001"/>
</g>
<!-- Node28 -->
<g id="node5" class="node">
<title>Node28</title>
<g id="a_node5"><a xlink:href="class_c_s_h_a256.html#a9d7de520a562655da85349372820c883" target="_top" xlink:title="CSHA256::Write">
<polygon fill="#ffffff" stroke="#000000" points="341.6758,-37.5 341.6758,-55.5 430.8545,-55.5 430.8545,-37.5 341.6758,-37.5"/>
<text text-anchor="middle" x="386.2651" y="-43.5" font-family="Helvetica,sans-Serif" font-size="10.00" fill="#000000">CSHA256::Write</text>
</a>
</g>
</g>
<!-- Node27&#45;&gt;Node28 -->
<g id="edge4" class="edge">
<title>Node27&#45;&gt;Node28</title>
<path fill="none" stroke="#191970" d="M263.048,-46.5C284.1237,-46.5 309.2214,-46.5 331.249,-46.5"/>
<polygon fill="#191970" stroke="#191970" points="331.4555,-50.0001 341.4554,-46.5 331.4554,-43.0001 331.4555,-50.0001"/>
</g>
<!-- Node29 -->
<g id="node6" class="node">
<title>Node29</title>
<g id="a_node6"><a xlink:href="glibc__compat_8cpp.html#a0f46826ab0466591e136db24394923cf" target="_top" xlink:title="memcpy">
<polygon fill="#ffffff" stroke="#000000" points="520.4092,-56.5 520.4092,-74.5 574.1924,-74.5 574.1924,-56.5 520.4092,-56.5"/>
<text text-anchor="middle" x="547.3008" y="-62.5" font-family="Helvetica,sans-Serif" font-size="10.00" fill="#000000">memcpy</text>
</a>
</g>
</g>
<!-- Node28&#45;&gt;Node29 -->
<g id="edge5" class="edge">
<title>Node28&#45;&gt;Node29</title>
<path fill="none" stroke="#191970" d="M431.1225,-51.7926C456.0915,-54.7386 486.794,-58.361 510.3648,-61.1421"/>
<polygon fill="#191970" stroke="#191970" points="509.9774,-64.6205 520.3187,-62.3165 510.7977,-57.6688 509.9774,-64.6205"/>
</g>
<!-- Node31 -->
<g id="node8" class="node">
<title>Node31</title>
<g id="a_node8"><a xlink:href="namespacesha256__shani.html#a97d2e267c87add9a1172d948e05ba471" target="_top" xlink:title="sha256_shani::Transform">
<polygon fill="#ffffff" stroke="#000000" points="482.7871,-19.5 482.7871,-37.5 611.8145,-37.5 611.8145,-19.5 482.7871,-19.5"/>
<text text-anchor="middle" x="547.3008" y="-25.5" font-family="Helvetica,sans-Serif" font-size="10.00" fill="#000000">sha256_shani::Transform</text>
</a>
</g>
</g>
<!-- Node28&#45;&gt;Node31 -->
<g id="edge7" class="edge">
<title>Node28&#45;&gt;Node31</title>
<path fill="none" stroke="#191970" d="M431.1225,-41.486C443.9284,-40.0546 458.2424,-38.4546 472.3289,-36.8801"/>
<polygon fill="#191970" stroke="#191970" points="472.9718,-40.3301 482.5211,-35.7409 472.1941,-33.3734 472.9718,-40.3301"/>
</g>
<!-- Node30 -->
<g id="node7" class="node">
<title>Node30</title>
<g id="a_node7"><a xlink:href="glibc__compat_8cpp.html#a9778d49e9029dd75bc53ecbbf9f5e9a1" target="_top" xlink:title="memmove">
<polygon fill="#ffffff" stroke="#000000" points="647.8145,-56.5 647.8145,-74.5 710.4893,-74.5 710.4893,-56.5 647.8145,-56.5"/>
<text text-anchor="middle" x="679.1519" y="-62.5" font-family="Helvetica,sans-Serif" font-size="10.00" fill="#000000">memmove</text>
</a>
</g>
</g>
<!-- Node29&#45;&gt;Node30 -->
<g id="edge6" class="edge">
<title>Node29&#45;&gt;Node30</title>
<path fill="none" stroke="#191970" d="M574.301,-65.5C592.4765,-65.5 616.8019,-65.5 637.4467,-65.5"/>
<polygon fill="#191970" stroke="#191970" points="637.548,-69.0001 647.548,-65.5 637.5479,-62.0001 637.548,-69.0001"/>
</g>
</g>
</svg>
