<?xml version="1.0" encoding="UTF-8" standalone="no"?>
<!DOCTYPE svg PUBLIC "-//W3C//DTD SVG 1.1//EN"
 "http://www.w3.org/Graphics/SVG/1.1/DTD/svg11.dtd">
<!-- Generated by graphviz version 2.40.1 (20161225.0304)
 -->
<!-- Title: AddressTableModel::lookupAddress Pages: 1 -->
<svg width="581pt" height="69pt"
 viewBox="0.00 0.00 580.76 69.00" xmlns="http://www.w3.org/2000/svg" xmlns:xlink="http://www.w3.org/1999/xlink">
<g id="graph0" class="graph" transform="scale(1 1) rotate(0) translate(4 65)">
<title>AddressTableModel::lookupAddress</title>
<polygon fill="#ffffff" stroke="transparent" points="-4,4 -4,-65 576.7568,-65 576.7568,4 -4,4"/>
<!-- Node155 -->
<g id="node1" class="node">
<title>Node155</title>
<polygon fill="#bfbfbf" stroke="#000000" points="0,-32.5 0,-60.5 109.3838,-60.5 109.3838,-32.5 0,-32.5"/>
<text text-anchor="start" x="8" y="-48.5" font-family="Helvetica,sans-Serif" font-size="10.00" fill="#000000">AddressTableModel::</text>
<text text-anchor="middle" x="54.6919" y="-38.5" font-family="Helvetica,sans-Serif" font-size="10.00" fill="#000000">lookupAddress</text>
</g>
<!-- Node156 -->
<g id="node2" class="node">
<title>Node156</title>
<g id="a_node2"><a xlink:href="class_address_table_model.html#a74e9123471948255f87271c823c82854" target="_top" xlink:title="AddressTableModel::\lindex">
<polygon fill="#ffffff" stroke="#000000" points="145.3838,-32.5 145.3838,-60.5 254.7676,-60.5 254.7676,-32.5 145.3838,-32.5"/>
<text text-anchor="start" x="153.3838" y="-48.5" font-family="Helvetica,sans-Serif" font-size="10.00" fill="#000000">AddressTableModel::</text>
<text text-anchor="middle" x="200.0757" y="-38.5" font-family="Helvetica,sans-Serif" font-size="10.00" fill="#000000">index</text>
</a>
</g>
</g>
<!-- Node155&#45;&gt;Node156 -->
<g id="edge1" class="edge">
<title>Node155&#45;&gt;Node156</title>
<path fill="none" stroke="#191970" d="M109.6553,-46.5C117.8873,-46.5 126.4424,-46.5 134.8622,-46.5"/>
<polygon fill="#191970" stroke="#191970" points="135.0346,-50.0001 145.0346,-46.5 135.0346,-43.0001 135.0346,-50.0001"/>
</g>
<!-- Node157 -->
<g id="node3" class="node">
<title>Node157</title>
<g id="a_node3"><a xlink:href="class_address_table_model.html#a79b07007c147962c0119310ebd4931c1" target="_top" xlink:title="AddressTableModel::data">
<polygon fill="#ffffff" stroke="#000000" points="290.7676,-37.5 290.7676,-55.5 419.6143,-55.5 419.6143,-37.5 290.7676,-37.5"/>
<text text-anchor="middle" x="355.1909" y="-43.5" font-family="Helvetica,sans-Serif" font-size="10.00" fill="#000000">AddressTableModel::data</text>
</a>
</g>
</g>
<!-- Node156&#45;&gt;Node157 -->
<g id="edge2" class="edge">
<title>Node156&#45;&gt;Node157</title>
<path fill="none" stroke="#191970" d="M255.2003,-40.0075C263.4619,-39.8128 272.0951,-39.7285 280.6785,-39.7546"/>
<polygon fill="#191970" stroke="#191970" points="280.6785,-43.2546 290.7066,-39.836 280.7353,-36.2549 280.6785,-43.2546"/>
</g>
<!-- Node159 -->
<g id="node5" class="node">
<title>Node159</title>
<g id="a_node5"><a xlink:href="class_address_table_priv.html#af311eb7d0189a74a508d7ad0f563f307" target="_top" xlink:title="AddressTablePriv::index">
<polygon fill="#ffffff" stroke="#000000" points="293.5532,-.5 293.5532,-18.5 416.8286,-18.5 416.8286,-.5 293.5532,-.5"/>
<text text-anchor="middle" x="355.1909" y="-6.5" font-family="Helvetica,sans-Serif" font-size="10.00" fill="#000000">AddressTablePriv::index</text>
</a>
</g>
</g>
<!-- Node156&#45;&gt;Node159 -->
<g id="edge5" class="edge">
<title>Node156&#45;&gt;Node159</title>
<path fill="none" stroke="#191970" d="M255.2003,-33.351C272.2188,-29.2915 290.8141,-24.8559 307.3027,-20.9229"/>
<polygon fill="#191970" stroke="#191970" points="308.3491,-24.2716 317.2641,-18.5468 306.7249,-17.4626 308.3491,-24.2716"/>
</g>
<!-- Node157&#45;&gt;Node156 -->
<g id="edge3" class="edge">
<title>Node157&#45;&gt;Node156</title>
<path fill="none" stroke="#191970" d="M290.7066,-53.164C282.3189,-53.2753 273.7211,-53.2786 265.321,-53.1738"/>
<polygon fill="#191970" stroke="#191970" points="265.2614,-49.6723 255.2003,-52.9925 265.1359,-56.6712 265.2614,-49.6723"/>
</g>
<!-- Node158 -->
<g id="node4" class="node">
<title>Node158</title>
<g id="a_node4"><a xlink:href="namespace_g_u_i_util.html#af6b9624383a5313a5d856c59913b599b" target="_top" xlink:title="GUIUtil::fixedPitchFont">
<polygon fill="#ffffff" stroke="#000000" points="455.6143,-37.5 455.6143,-55.5 572.7568,-55.5 572.7568,-37.5 455.6143,-37.5"/>
<text text-anchor="middle" x="514.1855" y="-43.5" font-family="Helvetica,sans-Serif" font-size="10.00" fill="#000000">GUIUtil::fixedPitchFont</text>
</a>
</g>
</g>
<!-- Node157&#45;&gt;Node158 -->
<g id="edge4" class="edge">
<title>Node157&#45;&gt;Node158</title>
<path fill="none" stroke="#191970" d="M419.8601,-46.5C428.2338,-46.5 436.8351,-46.5 445.2743,-46.5"/>
<polygon fill="#191970" stroke="#191970" points="445.4618,-50.0001 455.4618,-46.5 445.4617,-43.0001 445.4618,-50.0001"/>
</g>
</g>
</svg>
