<?xml version="1.0" encoding="UTF-8" standalone="no"?>
<!DOCTYPE svg PUBLIC "-//W3C//DTD SVG 1.1//EN"
 "http://www.w3.org/Graphics/SVG/1.1/DTD/svg11.dtd">
<!-- Generated by graphviz version 2.40.1 (20161225.0304)
 -->
<!-- Title: AbstractThresholdConditionChecker::GetStateSinceHeightFor Pages: 1 -->
<svg width="731pt" height="252pt"
 viewBox="0.00 0.00 731.18 252.00" xmlns="http://www.w3.org/2000/svg" xmlns:xlink="http://www.w3.org/1999/xlink">
<g id="graph0" class="graph" transform="scale(1 1) rotate(0) translate(4 248)">
<title>AbstractThresholdConditionChecker::GetStateSinceHeightFor</title>
<polygon fill="#ffffff" stroke="transparent" points="-4,4 -4,-248 727.1768,-248 727.1768,4 -4,4"/>
<!-- Node20 -->
<g id="node1" class="node">
<title>Node20</title>
<polygon fill="#bfbfbf" stroke="#000000" points="0,-97.5 0,-125.5 167.1816,-125.5 167.1816,-97.5 0,-97.5"/>
<text text-anchor="start" x="8" y="-113.5" font-family="Helvetica,sans-Serif" font-size="10.00" fill="#000000">AbstractThresholdCondition</text>
<text text-anchor="middle" x="83.5908" y="-103.5" font-family="Helvetica,sans-Serif" font-size="10.00" fill="#000000">Checker::GetStateSinceHeightFor</text>
</g>
<!-- Node21 -->
<g id="node2" class="node">
<title>Node21</title>
<g id="a_node2"><a xlink:href="class_abstract_threshold_condition_checker.html#a7986d06396d52f6961d7c983dc68b8f3" target="_top" xlink:title="AbstractThresholdCondition\lChecker::GetStateFor">
<polygon fill="#ffffff" stroke="#000000" points="203.1816,-97.5 203.1816,-125.5 342.5801,-125.5 342.5801,-97.5 203.1816,-97.5"/>
<text text-anchor="start" x="211.1816" y="-113.5" font-family="Helvetica,sans-Serif" font-size="10.00" fill="#000000">AbstractThresholdCondition</text>
<text text-anchor="middle" x="272.8809" y="-103.5" font-family="Helvetica,sans-Serif" font-size="10.00" fill="#000000">Checker::GetStateFor</text>
</a>
</g>
</g>
<!-- Node20&#45;&gt;Node21 -->
<g id="edge1" class="edge">
<title>Node20&#45;&gt;Node21</title>
<path fill="none" stroke="#191970" d="M167.4428,-111.5C175.8794,-111.5 184.4318,-111.5 192.8273,-111.5"/>
<polygon fill="#191970" stroke="#191970" points="192.9719,-115.0001 202.9718,-111.5 192.9718,-108.0001 192.9719,-115.0001"/>
</g>
<!-- Node22 -->
<g id="node3" class="node">
<title>Node22</title>
<g id="a_node3"><a xlink:href="class_abstract_threshold_condition_checker.html#a34b66faf36426413918aedda5213d110" target="_top" xlink:title="AbstractThresholdCondition\lChecker::Period">
<polygon fill="#ffffff" stroke="#000000" points="393.1187,-215.5 393.1187,-243.5 532.5171,-243.5 532.5171,-215.5 393.1187,-215.5"/>
<text text-anchor="start" x="401.1187" y="-231.5" font-family="Helvetica,sans-Serif" font-size="10.00" fill="#000000">AbstractThresholdCondition</text>
<text text-anchor="middle" x="462.8179" y="-221.5" font-family="Helvetica,sans-Serif" font-size="10.00" fill="#000000">Checker::Period</text>
</a>
</g>
</g>
<!-- Node20&#45;&gt;Node22 -->
<g id="edge9" class="edge">
<title>Node20&#45;&gt;Node22</title>
<path fill="none" stroke="#191970" d="M125.4171,-125.626C182.4228,-144.7278 287.814,-179.5082 378.5801,-206.5 385.4732,-208.5499 392.7042,-210.6298 399.9112,-212.6583"/>
<polygon fill="#191970" stroke="#191970" points="399.1173,-216.0703 409.6899,-215.3848 400.9974,-209.3275 399.1173,-216.0703"/>
</g>
<!-- Node26 -->
<g id="node7" class="node">
<title>Node26</title>
<g id="a_node7"><a xlink:href="class_c_block_index.html#ae1f702384690c6b8302e026a84172ef3" target="_top" xlink:title="Efficiently find an ancestor of this block. ">
<polygon fill="#ffffff" stroke="#000000" points="396.1802,-.5 396.1802,-18.5 529.4556,-18.5 529.4556,-.5 396.1802,-.5"/>
<text text-anchor="middle" x="462.8179" y="-6.5" font-family="Helvetica,sans-Serif" font-size="10.00" fill="#000000">CBlockIndex::GetAncestor</text>
</a>
</g>
</g>
<!-- Node20&#45;&gt;Node26 -->
<g id="edge10" class="edge">
<title>Node20&#45;&gt;Node26</title>
<path fill="none" stroke="#191970" d="M130.6449,-97.4376C188.6951,-80.2796 290.5182,-50.8038 378.5801,-28.5 388.9327,-25.878 400.0462,-23.244 410.6957,-20.8078"/>
<polygon fill="#191970" stroke="#191970" points="411.7424,-24.1595 420.7238,-18.5394 410.198,-17.332 411.7424,-24.1595"/>
</g>
<!-- Node21&#45;&gt;Node22 -->
<g id="edge2" class="edge">
<title>Node21&#45;&gt;Node22</title>
<path fill="none" stroke="#191970" d="M284.6867,-125.6777C302.7698,-146.4802 339.3745,-185.1155 378.5801,-206.5 382.0009,-208.3659 385.5839,-210.0889 389.2622,-211.679"/>
<polygon fill="#191970" stroke="#191970" points="387.9771,-214.9345 398.5632,-215.3633 390.5551,-208.4265 387.9771,-214.9345"/>
</g>
<!-- Node23 -->
<g id="node4" class="node">
<title>Node23</title>
<g id="a_node4"><a xlink:href="class_abstract_threshold_condition_checker.html#ad01c87d6d551e9d801661d734a270a6c" target="_top" xlink:title="AbstractThresholdCondition\lChecker::Threshold">
<polygon fill="#ffffff" stroke="#000000" points="393.1187,-168.5 393.1187,-196.5 532.5171,-196.5 532.5171,-168.5 393.1187,-168.5"/>
<text text-anchor="start" x="401.1187" y="-184.5" font-family="Helvetica,sans-Serif" font-size="10.00" fill="#000000">AbstractThresholdCondition</text>
<text text-anchor="middle" x="462.8179" y="-174.5" font-family="Helvetica,sans-Serif" font-size="10.00" fill="#000000">Checker::Threshold</text>
</a>
</g>
</g>
<!-- Node21&#45;&gt;Node23 -->
<g id="edge3" class="edge">
<title>Node21&#45;&gt;Node23</title>
<path fill="none" stroke="#191970" d="M300.6377,-125.581C321.6674,-135.8843 351.4717,-149.7149 378.5801,-159.5 384.3819,-161.5942 390.4673,-163.6038 396.5998,-165.5026"/>
<polygon fill="#191970" stroke="#191970" points="395.6571,-168.8738 406.241,-168.3917 397.6665,-162.1684 395.6571,-168.8738"/>
</g>
<!-- Node24 -->
<g id="node5" class="node">
<title>Node24</title>
<g id="a_node5"><a xlink:href="class_abstract_threshold_condition_checker.html#abd1169fade7a2934d605bc4fa53878c6" target="_top" xlink:title="AbstractThresholdCondition\lChecker::BeginTime">
<polygon fill="#ffffff" stroke="#000000" points="393.1187,-121.5 393.1187,-149.5 532.5171,-149.5 532.5171,-121.5 393.1187,-121.5"/>
<text text-anchor="start" x="401.1187" y="-137.5" font-family="Helvetica,sans-Serif" font-size="10.00" fill="#000000">AbstractThresholdCondition</text>
<text text-anchor="middle" x="462.8179" y="-127.5" font-family="Helvetica,sans-Serif" font-size="10.00" fill="#000000">Checker::BeginTime</text>
</a>
</g>
</g>
<!-- Node21&#45;&gt;Node24 -->
<g id="edge4" class="edge">
<title>Node21&#45;&gt;Node24</title>
<path fill="none" stroke="#191970" d="M342.7972,-120.3345C355.8622,-121.9853 369.6084,-123.7223 382.9469,-125.4077"/>
<polygon fill="#191970" stroke="#191970" points="382.6895,-128.9029 393.0494,-126.6842 383.567,-121.9581 382.6895,-128.9029"/>
</g>
<!-- Node25 -->
<g id="node6" class="node">
<title>Node25</title>
<g id="a_node6"><a xlink:href="class_abstract_threshold_condition_checker.html#a798df83d41a24e8ca12c02fb25d07c1c" target="_top" xlink:title="AbstractThresholdCondition\lChecker::EndTime">
<polygon fill="#ffffff" stroke="#000000" points="393.1187,-74.5 393.1187,-102.5 532.5171,-102.5 532.5171,-74.5 393.1187,-74.5"/>
<text text-anchor="start" x="401.1187" y="-90.5" font-family="Helvetica,sans-Serif" font-size="10.00" fill="#000000">AbstractThresholdCondition</text>
<text text-anchor="middle" x="462.8179" y="-80.5" font-family="Helvetica,sans-Serif" font-size="10.00" fill="#000000">Checker::EndTime</text>
</a>
</g>
</g>
<!-- Node21&#45;&gt;Node25 -->
<g id="edge5" class="edge">
<title>Node21&#45;&gt;Node25</title>
<path fill="none" stroke="#191970" d="M342.7972,-103.0336C355.8622,-101.4516 369.6084,-99.787 382.9469,-98.1718"/>
<polygon fill="#191970" stroke="#191970" points="383.5427,-101.6253 393.0494,-96.9485 382.7011,-94.6761 383.5427,-101.6253"/>
</g>
<!-- Node21&#45;&gt;Node26 -->
<g id="edge6" class="edge">
<title>Node21&#45;&gt;Node26</title>
<path fill="none" stroke="#191970" d="M296.2736,-97.3207C310.1944,-88.4989 327.9392,-76.5674 342.5801,-64.5 360.0409,-50.1083 358.762,-39.42 378.5801,-28.5 383.1409,-25.9869 388.0149,-23.806 393.033,-21.9134"/>
<polygon fill="#191970" stroke="#191970" points="394.4572,-25.127 402.8166,-18.6177 392.2225,-18.4933 394.4572,-25.127"/>
</g>
<!-- Node27 -->
<g id="node8" class="node">
<title>Node27</title>
<g id="a_node8"><a xlink:href="class_c_block_index.html#aa9bd0ab02cf8b9c866618cee3a5a0583" target="_top" xlink:title="CBlockIndex::GetMedianTimePast">
<polygon fill="#ffffff" stroke="#000000" points="378.5801,-37.5 378.5801,-55.5 547.0557,-55.5 547.0557,-37.5 378.5801,-37.5"/>
<text text-anchor="middle" x="462.8179" y="-43.5" font-family="Helvetica,sans-Serif" font-size="10.00" fill="#000000">CBlockIndex::GetMedianTimePast</text>
</a>
</g>
</g>
<!-- Node21&#45;&gt;Node27 -->
<g id="edge7" class="edge">
<title>Node21&#45;&gt;Node27</title>
<path fill="none" stroke="#191970" d="M301.4704,-97.3033C322.4193,-87.3371 351.7603,-74.2736 378.5801,-65.5 387.2653,-62.6588 396.5901,-60.0935 405.7576,-57.8337"/>
<polygon fill="#191970" stroke="#191970" points="406.6808,-61.2119 415.6059,-55.5029 405.0686,-54.4001 406.6808,-61.2119"/>
</g>
<!-- Node28 -->
<g id="node9" class="node">
<title>Node28</title>
<g id="a_node9"><a xlink:href="class_c_block_index.html#a9fe0d4463c07c466f66252e8eec25f5c" target="_top" xlink:title="CBlockIndex::GetBlockTime">
<polygon fill="#ffffff" stroke="#000000" points="583.0557,-37.5 583.0557,-55.5 723.1768,-55.5 723.1768,-37.5 583.0557,-37.5"/>
<text text-anchor="middle" x="653.1162" y="-43.5" font-family="Helvetica,sans-Serif" font-size="10.00" fill="#000000">CBlockIndex::GetBlockTime</text>
</a>
</g>
</g>
<!-- Node27&#45;&gt;Node28 -->
<g id="edge8" class="edge">
<title>Node27&#45;&gt;Node28</title>
<path fill="none" stroke="#191970" d="M547.1165,-46.5C555.598,-46.5 564.196,-46.5 572.6363,-46.5"/>
<polygon fill="#191970" stroke="#191970" points="572.8348,-50.0001 582.8348,-46.5 572.8348,-43.0001 572.8348,-50.0001"/>
</g>
</g>
</svg>
