<?xml version="1.0" encoding="UTF-8" standalone="no"?>
<!DOCTYPE svg PUBLIC "-//W3C//DTD SVG 1.1//EN"
 "http://www.w3.org/Graphics/SVG/1.1/DTD/svg11.dtd">
<!-- Generated by graphviz version 2.40.1 (20161225.0304)
 -->
<!-- Title: CBlock Pages: 1 -->
<svg width="129pt" height="214pt"
 viewBox="0.00 0.00 128.85 214.00" xmlns="http://www.w3.org/2000/svg" xmlns:xlink="http://www.w3.org/1999/xlink">
<g id="graph0" class="graph" transform="scale(1 1) rotate(0) translate(4 210)">
<title>CBlock</title>
<polygon fill="#ffffff" stroke="transparent" points="-4,4 -4,-210 124.8491,-210 124.8491,4 -4,4"/>
<!-- Node2 -->
<g id="node1" class="node">
<title>Node2</title>
<polygon fill="#bfbfbf" stroke="#000000" points="24.1992,-.5 24.1992,-18.5 71.874,-18.5 71.874,-.5 24.1992,-.5"/>
<text text-anchor="middle" x="48.0366" y="-6.5" font-family="Helvetica,sans-Serif" font-size="10.00" fill="#000000">CBlock</text>
</g>
<!-- Node3 -->
<g id="node2" class="node">
<title>Node3</title>
<g id="a_node2"><a xlink:href="class_c_block_header.html" target="_top" xlink:title="Nodes collect new transactions into a block, hash them into a hash tree, and scan through nonce value...">
<polygon fill="#ffffff" stroke="#000000" points="7.8003,-56.5 7.8003,-74.5 88.2729,-74.5 88.2729,-56.5 7.8003,-56.5"/>
<text text-anchor="middle" x="48.0366" y="-62.5" font-family="Helvetica,sans-Serif" font-size="10.00" fill="#000000">CBlockHeader</text>
</a>
</g>
</g>
<!-- Node3&#45;&gt;Node2 -->
<g id="edge1" class="edge">
<title>Node3&#45;&gt;Node2</title>
<path fill="none" stroke="#191970" d="M48.0366,-46.2065C48.0366,-36.8384 48.0366,-26.0262 48.0366,-18.5752"/>
<polygon fill="#191970" stroke="#191970" points="44.5367,-46.2527 48.0366,-56.2527 51.5367,-46.2528 44.5367,-46.2527"/>
</g>
<!-- Node4 -->
<g id="node3" class="node">
<title>Node4</title>
<g id="a_node3"><a xlink:href="classuint256.html" target="_top" xlink:title="256&#45;bit opaque blob. ">
<polygon fill="#ffffff" stroke="#000000" points="23.6328,-131.5 23.6328,-149.5 72.4404,-149.5 72.4404,-131.5 23.6328,-131.5"/>
<text text-anchor="middle" x="48.0366" y="-137.5" font-family="Helvetica,sans-Serif" font-size="10.00" fill="#000000">uint256</text>
</a>
</g>
</g>
<!-- Node4&#45;&gt;Node3 -->
<g id="edge2" class="edge">
<title>Node4&#45;&gt;Node3</title>
<path fill="none" stroke="#9a32cd" stroke-dasharray="5,2" d="M48.0366,-121.1079C48.0366,-106.2042 48.0366,-86.2791 48.0366,-74.7717"/>
<polygon fill="#9a32cd" stroke="#9a32cd" points="44.5367,-121.3035 48.0366,-131.3035 51.5367,-121.3036 44.5367,-121.3035"/>
<text text-anchor="middle" x="84.4429" y="-105" font-family="Helvetica,sans-Serif" font-size="10.00" fill="#000000"> hashPrevBlock</text>
<text text-anchor="middle" x="84.4429" y="-95" font-family="Helvetica,sans-Serif" font-size="10.00" fill="#000000">hashMerkleRoot</text>
</g>
<!-- Node5 -->
<g id="node4" class="node">
<title>Node5</title>
<g id="a_node4"><a xlink:href="classbase__blob.html" target="_top" xlink:title="base_blob\&lt; 256 \&gt;">
<polygon fill="#ffffff" stroke="#000000" points="0,-187.5 0,-205.5 96.0732,-205.5 96.0732,-187.5 0,-187.5"/>
<text text-anchor="middle" x="48.0366" y="-193.5" font-family="Helvetica,sans-Serif" font-size="10.00" fill="#000000">base_blob&lt; 256 &gt;</text>
</a>
</g>
</g>
<!-- Node5&#45;&gt;Node4 -->
<g id="edge3" class="edge">
<title>Node5&#45;&gt;Node4</title>
<path fill="none" stroke="#191970" d="M48.0366,-177.2065C48.0366,-167.8384 48.0366,-157.0262 48.0366,-149.5752"/>
<polygon fill="#191970" stroke="#191970" points="44.5367,-177.2527 48.0366,-187.2527 51.5367,-177.2528 44.5367,-177.2527"/>
</g>
</g>
</svg>
