<?xml version="1.0" encoding="UTF-8" standalone="no"?>
<!DOCTYPE svg PUBLIC "-//W3C//DTD SVG 1.1//EN"
 "http://www.w3.org/Graphics/SVG/1.1/DTD/svg11.dtd">
<!-- Generated by graphviz version 2.40.1 (20161225.0304)
 -->
<!-- Title: FastRandomContext::FillByteBuffer Pages: 1 -->
<svg width="525pt" height="106pt"
 viewBox="0.00 0.00 525.18 106.00" xmlns="http://www.w3.org/2000/svg" xmlns:xlink="http://www.w3.org/1999/xlink">
<g id="graph0" class="graph" transform="scale(1 1) rotate(0) translate(4 102)">
<title>FastRandomContext::FillByteBuffer</title>
<polygon fill="#ffffff" stroke="transparent" points="-4,4 -4,-102 521.1758,-102 521.1758,4 -4,4"/>
<!-- Node24 -->
<g id="node1" class="node">
<title>Node24</title>
<polygon fill="#bfbfbf" stroke="#000000" points="0,-16.5 0,-44.5 113.2656,-44.5 113.2656,-16.5 0,-16.5"/>
<text text-anchor="start" x="8" y="-32.5" font-family="Helvetica,sans-Serif" font-size="10.00" fill="#000000">FastRandomContext::</text>
<text text-anchor="middle" x="56.6328" y="-22.5" font-family="Helvetica,sans-Serif" font-size="10.00" fill="#000000">FillByteBuffer</text>
</g>
<!-- Node25 -->
<g id="node2" class="node">
<title>Node25</title>
<g id="a_node2"><a xlink:href="class_fast_random_context.html#a7fa6ad2737010ee65ee38c9a0fdcf727" target="_top" xlink:title="FastRandomContext::\lRandomSeed">
<polygon fill="#ffffff" stroke="#000000" points="149.2656,-37.5 149.2656,-65.5 262.5313,-65.5 262.5313,-37.5 149.2656,-37.5"/>
<text text-anchor="start" x="157.2656" y="-53.5" font-family="Helvetica,sans-Serif" font-size="10.00" fill="#000000">FastRandomContext::</text>
<text text-anchor="middle" x="205.8984" y="-43.5" font-family="Helvetica,sans-Serif" font-size="10.00" fill="#000000">RandomSeed</text>
</a>
</g>
</g>
<!-- Node24&#45;&gt;Node25 -->
<g id="edge1" class="edge">
<title>Node24&#45;&gt;Node25</title>
<path fill="none" stroke="#191970" d="M113.4896,-38.4991C121.8982,-39.6821 130.6265,-40.9101 139.2129,-42.1181"/>
<polygon fill="#191970" stroke="#191970" points="138.8097,-45.5957 149.1998,-43.5231 139.7849,-38.664 138.8097,-45.5957"/>
</g>
<!-- Node30 -->
<g id="node7" class="node">
<title>Node30</title>
<g id="a_node7"><a xlink:href="class_cha_cha20.html#a51cd39ceec49088f7bd6409b2d97c459" target="_top" xlink:title="ChaCha20::Output">
<polygon fill="#ffffff" stroke="#000000" points="156.2041,-.5 156.2041,-18.5 255.5928,-18.5 255.5928,-.5 156.2041,-.5"/>
<text text-anchor="middle" x="205.8984" y="-6.5" font-family="Helvetica,sans-Serif" font-size="10.00" fill="#000000">ChaCha20::Output</text>
</a>
</g>
</g>
<!-- Node24&#45;&gt;Node30 -->
<g id="edge6" class="edge">
<title>Node24&#45;&gt;Node30</title>
<path fill="none" stroke="#191970" d="M113.4896,-22.5009C124.1034,-21.0076 135.2265,-19.4428 145.9306,-17.9368"/>
<polygon fill="#191970" stroke="#191970" points="146.6198,-21.3744 156.0347,-16.5153 145.6445,-14.4427 146.6198,-21.3744"/>
</g>
<!-- Node26 -->
<g id="node3" class="node">
<title>Node26</title>
<g id="a_node3"><a xlink:href="random_8cpp.html#af3aedae75efabb170337a497457f7ecf" target="_top" xlink:title="GetRandHash">
<polygon fill="#ffffff" stroke="#000000" points="309.6519,-79.5 309.6519,-97.5 389.021,-97.5 389.021,-79.5 309.6519,-79.5"/>
<text text-anchor="middle" x="349.3364" y="-85.5" font-family="Helvetica,sans-Serif" font-size="10.00" fill="#000000">GetRandHash</text>
</a>
</g>
</g>
<!-- Node25&#45;&gt;Node26 -->
<g id="edge2" class="edge">
<title>Node25&#45;&gt;Node26</title>
<path fill="none" stroke="#191970" d="M260.5354,-65.5937C275.0608,-69.3405 290.5787,-73.3434 304.5128,-76.9377"/>
<polygon fill="#191970" stroke="#191970" points="303.7849,-80.3644 314.3422,-79.4732 305.5334,-73.5863 303.7849,-80.3644"/>
</g>
<!-- Node28 -->
<g id="node5" class="node">
<title>Node28</title>
<g id="a_node5"><a xlink:href="class_cha_cha20.html#aeb732e9e8439e474f2cac0244b46e2cf" target="_top" xlink:title="ChaCha20::SetKey">
<polygon fill="#ffffff" stroke="#000000" points="298.5313,-42.5 298.5313,-60.5 400.1416,-60.5 400.1416,-42.5 298.5313,-42.5"/>
<text text-anchor="middle" x="349.3364" y="-48.5" font-family="Helvetica,sans-Serif" font-size="10.00" fill="#000000">ChaCha20::SetKey</text>
</a>
</g>
</g>
<!-- Node25&#45;&gt;Node28 -->
<g id="edge4" class="edge">
<title>Node25&#45;&gt;Node28</title>
<path fill="none" stroke="#191970" d="M262.5889,-51.5C270.9397,-51.5 279.575,-51.5 288.0142,-51.5"/>
<polygon fill="#191970" stroke="#191970" points="288.1785,-55.0001 298.1785,-51.5 288.1784,-48.0001 288.1785,-55.0001"/>
</g>
<!-- Node29 -->
<g id="node6" class="node">
<title>Node29</title>
<g id="a_node6"><a xlink:href="classbase__blob.html#aeee68e00ceeacf49086e98b661e017ff" target="_top" xlink:title="base_blob::begin">
<polygon fill="#ffffff" stroke="#000000" points="303.248,-5.5 303.248,-23.5 395.4248,-23.5 395.4248,-5.5 303.248,-5.5"/>
<text text-anchor="middle" x="349.3364" y="-11.5" font-family="Helvetica,sans-Serif" font-size="10.00" fill="#000000">base_blob::begin</text>
</a>
</g>
</g>
<!-- Node25&#45;&gt;Node29 -->
<g id="edge5" class="edge">
<title>Node25&#45;&gt;Node29</title>
<path fill="none" stroke="#191970" d="M260.5354,-37.4063C275.0608,-33.6595 290.5787,-29.6566 304.5128,-26.0623"/>
<polygon fill="#191970" stroke="#191970" points="305.5334,-29.4137 314.3422,-23.5268 303.7849,-22.6356 305.5334,-29.4137"/>
</g>
<!-- Node27 -->
<g id="node4" class="node">
<title>Node27</title>
<g id="a_node4"><a xlink:href="random_8cpp.html#ada0c29949c4d1ac0cc027d93c4771423" target="_top" xlink:title="Functions to gather random data via the OpenSSL PRNG. ">
<polygon fill="#ffffff" stroke="#000000" points="436.1416,-79.5 436.1416,-97.5 517.1758,-97.5 517.1758,-79.5 436.1416,-79.5"/>
<text text-anchor="middle" x="476.6587" y="-85.5" font-family="Helvetica,sans-Serif" font-size="10.00" fill="#000000">GetRandBytes</text>
</a>
</g>
</g>
<!-- Node26&#45;&gt;Node27 -->
<g id="edge3" class="edge">
<title>Node26&#45;&gt;Node27</title>
<path fill="none" stroke="#191970" d="M389.2727,-88.5C400.8956,-88.5 413.7499,-88.5 425.9427,-88.5"/>
<polygon fill="#191970" stroke="#191970" points="425.9875,-92.0001 435.9875,-88.5 425.9874,-85.0001 425.9875,-92.0001"/>
</g>
</g>
</svg>
