<?xml version="1.0" encoding="UTF-8" standalone="no"?>
<!DOCTYPE svg PUBLIC "-//W3C//DTD SVG 1.1//EN"
 "http://www.w3.org/Graphics/SVG/1.1/DTD/svg11.dtd">
<!-- Generated by graphviz version 2.40.1 (20161225.0304)
 -->
<!-- Title: CFeeRate::GetFee Pages: 1 -->
<svg width="1233pt" height="319pt"
 viewBox="0.00 0.00 1232.73 319.00" xmlns="http://www.w3.org/2000/svg" xmlns:xlink="http://www.w3.org/1999/xlink">
<g id="graph0" class="graph" transform="scale(1 1) rotate(0) translate(4 315)">
<title>CFeeRate::GetFee</title>
<polygon fill="#ffffff" stroke="transparent" points="-4,4 -4,-315 1228.7285,-315 1228.7285,4 -4,4"/>
<!-- Node7 -->
<g id="node1" class="node">
<title>Node7</title>
<polygon fill="#bfbfbf" stroke="#000000" points="0,-75.5 0,-93.5 100.4824,-93.5 100.4824,-75.5 0,-75.5"/>
<text text-anchor="middle" x="50.2412" y="-81.5" font-family="Helvetica,sans-Serif" font-size="10.00" fill="#000000">CFeeRate::GetFee</text>
</g>
<!-- Node8 -->
<g id="node2" class="node">
<title>Node8</title>
<g id="a_node2"><a xlink:href="group___actions.html#ga588aa50e86669d089e0debe68665ada0" target="_top" xlink:title="Shuffle and select coins until nTargetValue is reached while avoiding small change; This method is st...">
<polygon fill="#ffffff" stroke="#000000" points="745.5049,-132.5 745.5049,-150.5 892.2959,-150.5 892.2959,-132.5 745.5049,-132.5"/>
<text text-anchor="middle" x="818.9004" y="-138.5" font-family="Helvetica,sans-Serif" font-size="10.00" fill="#000000">CWallet::SelectCoinsMinConf</text>
</a>
</g>
</g>
<!-- Node7&#45;&gt;Node8 -->
<g id="edge1" class="edge">
<title>Node7&#45;&gt;Node8</title>
<path fill="none" stroke="#191970" d="M95.0895,-95.8167C108.3396,-98.7696 122.9259,-101.6416 136.4824,-103.5 356.6124,-133.6769 619.8183,-140.0388 745.3125,-141.2794"/>
<polygon fill="#191970" stroke="#191970" points="95.7863,-92.3857 85.2566,-93.5583 94.2193,-99.2081 95.7863,-92.3857"/>
</g>
<!-- Node9 -->
<g id="node3" class="node">
<title>Node9</title>
<g id="a_node3"><a xlink:href="class_block_assembler.html#ac88956b3067e44661e837505d1540aa0" target="_top" xlink:title="Add transactions based on feerate including unconfirmed ancestors Increments nPackagesSelected / nDes...">
<polygon fill="#ffffff" stroke="#000000" points="136.4824,-37.5 136.4824,-55.5 301.4375,-55.5 301.4375,-37.5 136.4824,-37.5"/>
<text text-anchor="middle" x="218.96" y="-43.5" font-family="Helvetica,sans-Serif" font-size="10.00" fill="#000000">BlockAssembler::addPackageTxs</text>
</a>
</g>
</g>
<!-- Node7&#45;&gt;Node9 -->
<g id="edge2" class="edge">
<title>Node7&#45;&gt;Node9</title>
<path fill="none" stroke="#191970" d="M100.298,-73.2259C125.4132,-67.5693 155.4174,-60.8115 178.971,-55.5066"/>
<polygon fill="#191970" stroke="#191970" points="99.2118,-69.8828 90.2252,-75.4945 100.7499,-76.7117 99.2118,-69.8828"/>
</g>
<!-- Node10 -->
<g id="node4" class="node">
<title>Node10</title>
<g id="a_node4"><a xlink:href="class_c_fee_rate.html#ac772be79983433d442d6b871d2fb6e11" target="_top" xlink:title="Return the fee in satoshis for a size of 1000 bytes. ">
<polygon fill="#ffffff" stroke="#000000" points="157.603,-193.5 157.603,-211.5 280.3169,-211.5 280.3169,-193.5 157.603,-193.5"/>
<text text-anchor="middle" x="218.96" y="-199.5" font-family="Helvetica,sans-Serif" font-size="10.00" fill="#000000">CFeeRate::GetFeePerK</text>
</a>
</g>
</g>
<!-- Node7&#45;&gt;Node10 -->
<g id="edge3" class="edge">
<title>Node7&#45;&gt;Node10</title>
<path fill="none" stroke="#191970" d="M71.8309,-99.5996C107.2626,-124.3801 176.7067,-172.9486 205.7242,-193.243"/>
<polygon fill="#191970" stroke="#191970" points="73.4008,-96.4265 63.2001,-93.5633 69.3889,-102.1628 73.4008,-96.4265"/>
</g>
<!-- Node21 -->
<g id="node15" class="node">
<title>Node21</title>
<g id="a_node15"><a xlink:href="wallet_2fees_8h.html#aa38f3270682c7f696a702ab43ec76001" target="_top" xlink:title="Estimate the minimum fee considering user set parameters and the required fee. ">
<polygon fill="#ffffff" stroke="#000000" points="773.9473,-95.5 773.9473,-113.5 863.8535,-113.5 863.8535,-95.5 773.9473,-95.5"/>
<text text-anchor="middle" x="818.9004" y="-101.5" font-family="Helvetica,sans-Serif" font-size="10.00" fill="#000000">GetMinimumFee</text>
</a>
</g>
</g>
<!-- Node7&#45;&gt;Node21 -->
<g id="edge20" class="edge">
<title>Node7&#45;&gt;Node21</title>
<path fill="none" stroke="#191970" d="M111.0126,-86.0812C260.2673,-89.9647 642.2376,-99.9034 773.6692,-103.3231"/>
<polygon fill="#191970" stroke="#191970" points="110.7628,-82.5736 100.6751,-85.8123 110.5806,-89.5713 110.7628,-82.5736"/>
</g>
<!-- Node24 -->
<g id="node18" class="node">
<title>Node24</title>
<g id="a_node18"><a xlink:href="wallet_2fees_8h.html#a6766e96b1740612749eed84b141e6eff" target="_top" xlink:title="Return the minimum required absolute fee for this size based on the required fee rate. ">
<polygon fill="#ffffff" stroke="#000000" points="173.9946,-.5 173.9946,-18.5 263.9253,-18.5 263.9253,-.5 173.9946,-.5"/>
<text text-anchor="middle" x="218.96" y="-6.5" font-family="Helvetica,sans-Serif" font-size="10.00" fill="#000000">GetRequiredFee</text>
</a>
</g>
</g>
<!-- Node7&#45;&gt;Node24 -->
<g id="edge19" class="edge">
<title>Node7&#45;&gt;Node24</title>
<path fill="none" stroke="#191970" d="M69.0724,-69.0665C85.8018,-56.1144 111.42,-38.0799 136.4824,-27.5 148.2294,-22.5411 161.5177,-18.8738 173.9431,-16.193"/>
<polygon fill="#191970" stroke="#191970" points="66.8532,-66.3593 61.1843,-75.31 71.1976,-71.8481 66.8532,-66.3593"/>
</g>
<!-- Node11 -->
<g id="node5" class="node">
<title>Node11</title>
<g id="a_node5"><a xlink:href="class_fee_filter_rounder.html#a7660976b7e2af3f1f2b1cc299f0f5e24" target="_top" xlink:title="Create new FeeFilterRounder. ">
<polygon fill="#ffffff" stroke="#000000" points="346.0679,-188.5 346.0679,-216.5 484.8901,-216.5 484.8901,-188.5 346.0679,-188.5"/>
<text text-anchor="start" x="354.0679" y="-204.5" font-family="Helvetica,sans-Serif" font-size="10.00" fill="#000000">FeeFilterRounder::FeeFilter</text>
<text text-anchor="middle" x="415.479" y="-194.5" font-family="Helvetica,sans-Serif" font-size="10.00" fill="#000000">Rounder</text>
</a>
</g>
</g>
<!-- Node10&#45;&gt;Node11 -->
<g id="edge4" class="edge">
<title>Node10&#45;&gt;Node11</title>
<path fill="none" stroke="#191970" d="M290.5221,-202.5C308.6173,-202.5 328.0195,-202.5 346.0096,-202.5"/>
<polygon fill="#191970" stroke="#191970" points="290.3315,-199.0001 280.3315,-202.5 290.3314,-206.0001 290.3315,-199.0001"/>
</g>
<!-- Node12 -->
<g id="node6" class="node">
<title>Node12</title>
<g id="a_node6"><a xlink:href="class_send_coins_dialog.html#ac42a9db733fbb2e06882660400c49517" target="_top" xlink:title="SendCoinsDialog::updateSmart\lFeeLabel">
<polygon fill="#ffffff" stroke="#000000" points="337.4375,-235.5 337.4375,-263.5 493.5205,-263.5 493.5205,-235.5 337.4375,-235.5"/>
<text text-anchor="start" x="345.4375" y="-251.5" font-family="Helvetica,sans-Serif" font-size="10.00" fill="#000000">SendCoinsDialog::updateSmart</text>
<text text-anchor="middle" x="415.479" y="-241.5" font-family="Helvetica,sans-Serif" font-size="10.00" fill="#000000">FeeLabel</text>
</a>
</g>
</g>
<!-- Node10&#45;&gt;Node12 -->
<g id="edge5" class="edge">
<title>Node10&#45;&gt;Node12</title>
<path fill="none" stroke="#191970" d="M266.8735,-213.9591C293.9875,-220.4438 328.1094,-228.6045 356.8163,-235.4701"/>
<polygon fill="#191970" stroke="#191970" points="267.3907,-210.4842 256.8508,-211.5621 265.7624,-217.2922 267.3907,-210.4842"/>
</g>
<!-- Node19 -->
<g id="node13" class="node">
<title>Node19</title>
<g id="a_node13"><a xlink:href="class_c_tx_mem_pool.html#a232651541c3393c81153ffc289e7b71d" target="_top" xlink:title="The minimum fee to get into the mempool, which may itself not be enough for larger&#45;sized transactions...">
<polygon fill="#ffffff" stroke="#000000" points="349.686,-151.5 349.686,-169.5 481.272,-169.5 481.272,-151.5 349.686,-151.5"/>
<text text-anchor="middle" x="415.479" y="-157.5" font-family="Helvetica,sans-Serif" font-size="10.00" fill="#000000">CTxMemPool::GetMinFee</text>
</a>
</g>
</g>
<!-- Node10&#45;&gt;Node19 -->
<g id="edge13" class="edge">
<title>Node10&#45;&gt;Node19</title>
<path fill="none" stroke="#191970" d="M271.1399,-191.3481C302.9827,-184.5427 343.172,-175.9534 373.0519,-169.5675"/>
<polygon fill="#191970" stroke="#191970" points="270.1659,-187.9772 261.1182,-193.4899 271.6289,-194.8226 270.1659,-187.9772"/>
</g>
<!-- Node22 -->
<g id="node16" class="node">
<title>Node22</title>
<g id="a_node16"><a xlink:href="class_c_tx_mem_pool.html#a2242fcaf792cacd6436500d5f8bf3b95" target="_top" xlink:title="CTxMemPool::trackPackage\lRemoved">
<polygon fill="#ffffff" stroke="#000000" points="344.1245,-282.5 344.1245,-310.5 486.8335,-310.5 486.8335,-282.5 344.1245,-282.5"/>
<text text-anchor="start" x="352.1245" y="-298.5" font-family="Helvetica,sans-Serif" font-size="10.00" fill="#000000">CTxMemPool::trackPackage</text>
<text text-anchor="middle" x="415.479" y="-288.5" font-family="Helvetica,sans-Serif" font-size="10.00" fill="#000000">Removed</text>
</a>
</g>
</g>
<!-- Node10&#45;&gt;Node22 -->
<g id="edge17" class="edge">
<title>Node10&#45;&gt;Node22</title>
<path fill="none" stroke="#191970" d="M239.8263,-217.241C262.8322,-232.9493 301.3766,-257.6876 337.4375,-273.5 344.9404,-276.79 353.0495,-279.7697 361.1049,-282.4111"/>
<polygon fill="#191970" stroke="#191970" points="241.7444,-214.3121 231.5282,-211.5049 237.764,-220.0703 241.7444,-214.3121"/>
</g>
<!-- Node13 -->
<g id="node7" class="node">
<title>Node13</title>
<g id="a_node7"><a xlink:href="class_send_coins_dialog.html#a360a23c02bd0e581b78603ccb863eb79" target="_top" xlink:title="SendCoinsDialog::setClient\lModel">
<polygon fill="#ffffff" stroke="#000000" points="550.646,-237.5 550.646,-265.5 688.3794,-265.5 688.3794,-237.5 550.646,-237.5"/>
<text text-anchor="start" x="558.646" y="-253.5" font-family="Helvetica,sans-Serif" font-size="10.00" fill="#000000">SendCoinsDialog::setClient</text>
<text text-anchor="middle" x="619.5127" y="-243.5" font-family="Helvetica,sans-Serif" font-size="10.00" fill="#000000">Model</text>
</a>
</g>
</g>
<!-- Node12&#45;&gt;Node13 -->
<g id="edge6" class="edge">
<title>Node12&#45;&gt;Node13</title>
<path fill="none" stroke="#191970" d="M503.9294,-250.367C519.4914,-250.5196 535.4822,-250.6763 550.4184,-250.8227"/>
<polygon fill="#191970" stroke="#191970" points="503.8141,-246.8658 493.7802,-250.2675 503.7454,-253.8655 503.8141,-246.8658"/>
</g>
<!-- Node16 -->
<g id="node10" class="node">
<title>Node16</title>
<g id="a_node10"><a xlink:href="class_send_coins_dialog.html#a74815ad8502b126200b6fd2e59e9f042" target="_top" xlink:title="SendCoinsDialog::updateDisplayUnit">
<polygon fill="#ffffff" stroke="#000000" points="529.5205,-200.5 529.5205,-218.5 709.5049,-218.5 709.5049,-200.5 529.5205,-200.5"/>
<text text-anchor="middle" x="619.5127" y="-206.5" font-family="Helvetica,sans-Serif" font-size="10.00" fill="#000000">SendCoinsDialog::updateDisplayUnit</text>
</a>
</g>
</g>
<!-- Node12&#45;&gt;Node16 -->
<g id="edge9" class="edge">
<title>Node12&#45;&gt;Node16</title>
<path fill="none" stroke="#191970" d="M497.0033,-233.5175C523.0497,-228.4112 550.9548,-222.9405 573.5437,-218.512"/>
<polygon fill="#191970" stroke="#191970" points="496.2666,-230.0952 487.1268,-235.4537 497.6133,-236.9644 496.2666,-230.0952"/>
</g>
<!-- Node14 -->
<g id="node8" class="node">
<title>Node14</title>
<g id="a_node8"><a xlink:href="class_wallet_view.html#a46d9a8d93adfdcc29cae9ff0d44c313e" target="_top" xlink:title="Set the client model. ">
<polygon fill="#ffffff" stroke="#000000" points="929.2212,-238.5 929.2212,-256.5 1065.8364,-256.5 1065.8364,-238.5 929.2212,-238.5"/>
<text text-anchor="middle" x="997.5288" y="-244.5" font-family="Helvetica,sans-Serif" font-size="10.00" fill="#000000">WalletView::setClientModel</text>
</a>
</g>
</g>
<!-- Node13&#45;&gt;Node14 -->
<g id="edge7" class="edge">
<title>Node13&#45;&gt;Node14</title>
<path fill="none" stroke="#191970" d="M698.6682,-250.6624C766.8507,-249.9409 864.2452,-248.9103 929.108,-248.224"/>
<polygon fill="#191970" stroke="#191970" points="698.3695,-247.1653 688.4071,-250.771 698.4436,-254.1649 698.3695,-247.1653"/>
</g>
<!-- Node15 -->
<g id="node9" class="node">
<title>Node15</title>
<g id="a_node9"><a xlink:href="class_wallet_frame.html#a06cb28194836995e50cc46716b2227ff" target="_top" xlink:title="WalletFrame::addWallet">
<polygon fill="#ffffff" stroke="#000000" points="1102.7617,-219.5 1102.7617,-237.5 1224.7285,-237.5 1224.7285,-219.5 1102.7617,-219.5"/>
<text text-anchor="middle" x="1163.7451" y="-225.5" font-family="Helvetica,sans-Serif" font-size="10.00" fill="#000000">WalletFrame::addWallet</text>
</a>
</g>
</g>
<!-- Node14&#45;&gt;Node15 -->
<g id="edge8" class="edge">
<title>Node14&#45;&gt;Node15</title>
<path fill="none" stroke="#191970" d="M1076.0713,-238.5219C1084.9529,-237.5066 1093.9043,-236.4834 1102.518,-235.4988"/>
<polygon fill="#191970" stroke="#191970" points="1075.6328,-235.0491 1066.095,-239.6623 1076.4278,-242.0039 1075.6328,-235.0491"/>
</g>
<!-- Node17 -->
<g id="node11" class="node">
<title>Node17</title>
<g id="a_node11"><a xlink:href="class_send_coins_dialog.html#a73a6c1b1850a334ee652ac167713a2aa" target="_top" xlink:title="SendCoinsDialog::setModel">
<polygon fill="#ffffff" stroke="#000000" points="749.1987,-201.5 749.1987,-219.5 888.6021,-219.5 888.6021,-201.5 749.1987,-201.5"/>
<text text-anchor="middle" x="818.9004" y="-207.5" font-family="Helvetica,sans-Serif" font-size="10.00" fill="#000000">SendCoinsDialog::setModel</text>
</a>
</g>
</g>
<!-- Node16&#45;&gt;Node17 -->
<g id="edge10" class="edge">
<title>Node16&#45;&gt;Node17</title>
<path fill="none" stroke="#191970" d="M719.8278,-210.0031C729.6727,-210.0525 739.5095,-210.1018 748.9542,-210.1492"/>
<polygon fill="#191970" stroke="#191970" points="719.599,-206.502 709.5815,-209.9517 719.5638,-213.5019 719.599,-206.502"/>
</g>
<!-- Node18 -->
<g id="node12" class="node">
<title>Node18</title>
<g id="a_node12"><a xlink:href="class_wallet_view.html#a0a37ff693a4f9c1e5ddc23f9cd3913be" target="_top" xlink:title="Set the wallet model. ">
<polygon fill="#ffffff" stroke="#000000" points="928.2959,-201.5 928.2959,-219.5 1066.7617,-219.5 1066.7617,-201.5 928.2959,-201.5"/>
<text text-anchor="middle" x="997.5288" y="-207.5" font-family="Helvetica,sans-Serif" font-size="10.00" fill="#000000">WalletView::setWalletModel</text>
</a>
</g>
</g>
<!-- Node17&#45;&gt;Node18 -->
<g id="edge11" class="edge">
<title>Node17&#45;&gt;Node18</title>
<path fill="none" stroke="#191970" d="M898.8145,-210.5C908.5627,-210.5 918.462,-210.5 928.0409,-210.5"/>
<polygon fill="#191970" stroke="#191970" points="898.7303,-207.0001 888.7303,-210.5 898.7302,-214.0001 898.7303,-207.0001"/>
</g>
<!-- Node18&#45;&gt;Node15 -->
<g id="edge12" class="edge">
<title>Node18&#45;&gt;Node15</title>
<path fill="none" stroke="#191970" d="M1077.1068,-219.1177C1085.7069,-220.049 1094.3575,-220.9858 1102.6893,-221.8881"/>
<polygon fill="#191970" stroke="#191970" points="1077.3751,-215.6264 1067.0564,-218.0293 1076.6214,-222.5857 1077.3751,-215.6264"/>
</g>
<!-- Node20 -->
<g id="node14" class="node">
<title>Node20</title>
<g id="a_node14"><a xlink:href="wallet_2fees_8h.html#a9d542d5ea12dcb9956820227d7fdd50b" target="_top" xlink:title="Estimate the minimum fee rate considering user set parameters and the required fee. ">
<polygon fill="#ffffff" stroke="#000000" points="563.998,-151.5 563.998,-169.5 675.0273,-169.5 675.0273,-151.5 563.998,-151.5"/>
<text text-anchor="middle" x="619.5127" y="-157.5" font-family="Helvetica,sans-Serif" font-size="10.00" fill="#000000">GetMinimumFeeRate</text>
</a>
</g>
</g>
<!-- Node19&#45;&gt;Node20 -->
<g id="edge14" class="edge">
<title>Node19&#45;&gt;Node20</title>
<path fill="none" stroke="#191970" d="M491.5542,-160.5C515.4818,-160.5 541.4488,-160.5 563.6985,-160.5"/>
<polygon fill="#191970" stroke="#191970" points="491.4412,-157.0001 481.4411,-160.5 491.4411,-164.0001 491.4412,-157.0001"/>
</g>
<!-- Node20&#45;&gt;Node8 -->
<g id="edge15" class="edge">
<title>Node20&#45;&gt;Node8</title>
<path fill="none" stroke="#191970" d="M685.2322,-154.2375C704.493,-152.4021 725.6754,-150.3836 745.3881,-148.5051"/>
<polygon fill="#191970" stroke="#191970" points="684.6761,-150.7745 675.0533,-155.2074 685.3402,-157.7429 684.6761,-150.7745"/>
</g>
<!-- Node20&#45;&gt;Node21 -->
<g id="edge16" class="edge">
<title>Node20&#45;&gt;Node21</title>
<path fill="none" stroke="#191970" d="M657.6983,-148.4143C682.6029,-140.673 715.8684,-130.5974 745.5049,-122.5 756.7687,-119.4224 769.0716,-116.3092 780.3297,-113.557"/>
<polygon fill="#191970" stroke="#191970" points="656.4143,-145.1485 647.9119,-151.4699 658.5006,-151.8304 656.4143,-145.1485"/>
</g>
<!-- Node23 -->
<g id="node17" class="node">
<title>Node23</title>
<g id="a_node17"><a xlink:href="class_c_tx_mem_pool.html#adb0214b2760eaedf15eb351348bc4f43" target="_top" xlink:title="Remove transactions from the mempool until its dynamic size is &lt;= sizelimit. ">
<polygon fill="#ffffff" stroke="#000000" points="553.6318,-287.5 553.6318,-305.5 685.3936,-305.5 685.3936,-287.5 553.6318,-287.5"/>
<text text-anchor="middle" x="619.5127" y="-293.5" font-family="Helvetica,sans-Serif" font-size="10.00" fill="#000000">CTxMemPool::TrimToSize</text>
</a>
</g>
</g>
<!-- Node22&#45;&gt;Node23 -->
<g id="edge18" class="edge">
<title>Node22&#45;&gt;Node23</title>
<path fill="none" stroke="#191970" d="M497.0985,-296.5C515.7697,-296.5 535.3913,-296.5 553.3217,-296.5"/>
<polygon fill="#191970" stroke="#191970" points="496.8401,-293.0001 486.8401,-296.5 496.8401,-300.0001 496.8401,-293.0001"/>
</g>
</g>
</svg>
