<?xml version="1.0" encoding="UTF-8" standalone="no"?>
<!DOCTYPE svg PUBLIC "-//W3C//DTD SVG 1.1//EN"
 "http://www.w3.org/Graphics/SVG/1.1/DTD/svg11.dtd">
<!-- Generated by graphviz version 2.40.1 (20161225.0304)
 -->
<!-- Title: CTxMemPoolEntry::GetModifiedFee Pages: 1 -->
<svg width="654pt" height="37pt"
 viewBox="0.00 0.00 654.31 37.00" xmlns="http://www.w3.org/2000/svg" xmlns:xlink="http://www.w3.org/1999/xlink">
<g id="graph0" class="graph" transform="scale(1 1) rotate(0) translate(4 33)">
<title>CTxMemPoolEntry::GetModifiedFee</title>
<polygon fill="#ffffff" stroke="transparent" points="-4,4 -4,-33 650.3135,-33 650.3135,4 -4,4"/>
<!-- Node28 -->
<g id="node1" class="node">
<title>Node28</title>
<polygon fill="#bfbfbf" stroke="#000000" points="0,-5.5 0,-23.5 176.6104,-23.5 176.6104,-5.5 0,-5.5"/>
<text text-anchor="middle" x="88.3052" y="-11.5" font-family="Helvetica,sans-Serif" font-size="10.00" fill="#000000">CTxMemPoolEntry::GetModifiedFee</text>
</g>
<!-- Node29 -->
<g id="node2" class="node">
<title>Node29</title>
<g id="a_node2"><a xlink:href="class_compare_tx_mem_pool_entry_by_descendant_score.html#afbe2af9d6fb5c019a5b18b5f703c1a5f" target="_top" xlink:title="CompareTxMemPoolEntryByDescendant\lScore::GetModFeeAndSize">
<polygon fill="#ffffff" stroke="#000000" points="212.6104,-.5 212.6104,-28.5 411.4619,-28.5 411.4619,-.5 212.6104,-.5"/>
<text text-anchor="start" x="220.6104" y="-16.5" font-family="Helvetica,sans-Serif" font-size="10.00" fill="#000000">CompareTxMemPoolEntryByDescendant</text>
<text text-anchor="middle" x="312.0361" y="-6.5" font-family="Helvetica,sans-Serif" font-size="10.00" fill="#000000">Score::GetModFeeAndSize</text>
</a>
</g>
</g>
<!-- Node28&#45;&gt;Node29 -->
<g id="edge1" class="edge">
<title>Node28&#45;&gt;Node29</title>
<path fill="none" stroke="#191970" d="M186.9749,-14.5C195.4264,-14.5 203.9798,-14.5 212.4386,-14.5"/>
<polygon fill="#191970" stroke="#191970" points="186.7296,-11.0001 176.7296,-14.5 186.7295,-18.0001 186.7296,-11.0001"/>
</g>
<!-- Node30 -->
<g id="node3" class="node">
<title>Node30</title>
<g id="a_node3"><a xlink:href="class_compare_tx_mem_pool_entry_by_descendant_score.html#a93a2240e6e7f89a40b3bc4069caca8aa" target="_top" xlink:title="CompareTxMemPoolEntryByDescendant\lScore::operator()">
<polygon fill="#ffffff" stroke="#000000" points="447.4619,-.5 447.4619,-28.5 646.3135,-28.5 646.3135,-.5 447.4619,-.5"/>
<text text-anchor="start" x="455.4619" y="-16.5" font-family="Helvetica,sans-Serif" font-size="10.00" fill="#000000">CompareTxMemPoolEntryByDescendant</text>
<text text-anchor="middle" x="546.8877" y="-6.5" font-family="Helvetica,sans-Serif" font-size="10.00" fill="#000000">Score::operator()</text>
</a>
</g>
</g>
<!-- Node29&#45;&gt;Node30 -->
<g id="edge2" class="edge">
<title>Node29&#45;&gt;Node30</title>
<path fill="none" stroke="#191970" d="M421.8746,-14.5C430.3007,-14.5 438.779,-14.5 447.1352,-14.5"/>
<polygon fill="#191970" stroke="#191970" points="421.6344,-11.0001 411.6343,-14.5 421.6343,-18.0001 421.6344,-11.0001"/>
</g>
</g>
</svg>
