<?xml version="1.0" encoding="UTF-8" standalone="no"?>
<!DOCTYPE svg PUBLIC "-//W3C//DTD SVG 1.1//EN"
 "http://www.w3.org/Graphics/SVG/1.1/DTD/svg11.dtd">
<!-- Generated by graphviz version 2.40.1 (20161225.0304)
 -->
<!-- Title: CTxMemPool::PrioritiseTransaction Pages: 1 -->
<svg width="780pt" height="175pt"
 viewBox="0.00 0.00 780.42 175.00" xmlns="http://www.w3.org/2000/svg" xmlns:xlink="http://www.w3.org/1999/xlink">
<g id="graph0" class="graph" transform="scale(1 1) rotate(0) translate(4 171)">
<title>CTxMemPool::PrioritiseTransaction</title>
<polygon fill="#ffffff" stroke="transparent" points="-4,4 -4,-171 776.4199,-171 776.4199,4 -4,4"/>
<!-- Node229 -->
<g id="node1" class="node">
<title>Node229</title>
<polygon fill="#bfbfbf" stroke="#000000" points="0,-37.5 0,-55.5 172.8994,-55.5 172.8994,-37.5 0,-37.5"/>
<text text-anchor="middle" x="86.4497" y="-43.5" font-family="Helvetica,sans-Serif" font-size="10.00" fill="#000000">CTxMemPool::PrioritiseTransaction</text>
</g>
<!-- Node230 -->
<g id="node2" class="node">
<title>Node230</title>
<g id="a_node2"><a xlink:href="class_c_tx_mem_pool.html#a8b15745bfd755afcacad8befd752b270" target="_top" xlink:title="Try to calculate all in&#45;mempool ancestors of entry. ">
<polygon fill="#ffffff" stroke="#000000" points="226.9731,-69.5 226.9731,-97.5 373.0073,-97.5 373.0073,-69.5 226.9731,-69.5"/>
<text text-anchor="start" x="234.9731" y="-85.5" font-family="Helvetica,sans-Serif" font-size="10.00" fill="#000000">CTxMemPool::CalculateMem</text>
<text text-anchor="middle" x="299.9902" y="-75.5" font-family="Helvetica,sans-Serif" font-size="10.00" fill="#000000">PoolAncestors</text>
</a>
</g>
</g>
<!-- Node229&#45;&gt;Node230 -->
<g id="edge1" class="edge">
<title>Node229&#45;&gt;Node230</title>
<path fill="none" stroke="#191970" d="M138.4145,-55.5039C161.9504,-59.5819 190.3609,-64.5046 216.7527,-69.0775"/>
<polygon fill="#191970" stroke="#191970" points="216.3036,-72.5518 226.7544,-70.8105 217.4988,-65.6545 216.3036,-72.5518"/>
</g>
<!-- Node236 -->
<g id="node8" class="node">
<title>Node236</title>
<g id="a_node8"><a xlink:href="class_c_tx_mem_pool.html#ad46424b4c9a920255df3b31945b8f88a" target="_top" xlink:title="Populate setDescendants with all in&#45;mempool descendants of hash. ">
<polygon fill="#ffffff" stroke="#000000" points="208.8994,-16.5 208.8994,-34.5 391.0811,-34.5 391.0811,-16.5 208.8994,-16.5"/>
<text text-anchor="middle" x="299.9902" y="-22.5" font-family="Helvetica,sans-Serif" font-size="10.00" fill="#000000">CTxMemPool::CalculateDescendants</text>
</a>
</g>
</g>
<!-- Node229&#45;&gt;Node236 -->
<g id="edge7" class="edge">
<title>Node229&#45;&gt;Node236</title>
<path fill="none" stroke="#191970" d="M172.997,-37.9888C181.4727,-37.1552 190.1249,-36.3044 198.7293,-35.4582"/>
<polygon fill="#191970" stroke="#191970" points="199.1853,-38.9303 208.7947,-34.4684 198.5001,-31.9639 199.1853,-38.9303"/>
</g>
<!-- Node231 -->
<g id="node3" class="node">
<title>Node231</title>
<g id="a_node3"><a xlink:href="class_c_tx_mem_pool_entry.html#a2deed4202061edf8b040a3f554417c20" target="_top" xlink:title="CTxMemPoolEntry::GetTx">
<polygon fill="#ffffff" stroke="#000000" points="449.5957,-148.5 449.5957,-166.5 582.2852,-166.5 582.2852,-148.5 449.5957,-148.5"/>
<text text-anchor="middle" x="515.9404" y="-154.5" font-family="Helvetica,sans-Serif" font-size="10.00" fill="#000000">CTxMemPoolEntry::GetTx</text>
</a>
</g>
</g>
<!-- Node230&#45;&gt;Node231 -->
<g id="edge2" class="edge">
<title>Node230&#45;&gt;Node231</title>
<path fill="none" stroke="#191970" d="M327.5855,-97.7344C352.888,-110.2804 391.6907,-128.263 427.0811,-139.5 435.0604,-142.0336 443.5597,-144.2913 452.0186,-146.2786"/>
<polygon fill="#191970" stroke="#191970" points="451.3737,-149.7207 461.8965,-148.4874 452.9013,-142.8894 451.3737,-149.7207"/>
</g>
<!-- Node232 -->
<g id="node4" class="node">
<title>Node232</title>
<g id="a_node4"><a xlink:href="class_c_tx_mem_pool.html#ab5e365ea8f49c38b6c99d6473af2b736" target="_top" xlink:title="Returns an iterator to the given hash, if found. ">
<polygon fill="#ffffff" stroke="#000000" points="459.5957,-111.5 459.5957,-129.5 572.2852,-129.5 572.2852,-111.5 459.5957,-111.5"/>
<text text-anchor="middle" x="515.9404" y="-117.5" font-family="Helvetica,sans-Serif" font-size="10.00" fill="#000000">CTxMemPool::GetIter</text>
</a>
</g>
</g>
<!-- Node230&#45;&gt;Node232 -->
<g id="edge3" class="edge">
<title>Node230&#45;&gt;Node232</title>
<path fill="none" stroke="#191970" d="M373.1011,-96.0265C399.1267,-100.4856 428.1796,-105.4634 453.2532,-109.7594"/>
<polygon fill="#191970" stroke="#191970" points="452.9245,-113.254 463.372,-111.4931 454.1067,-106.3546 452.9245,-113.254"/>
</g>
<!-- Node233 -->
<g id="node5" class="node">
<title>Node233</title>
<g id="a_node5"><a xlink:href="class_c_tx_mem_pool.html#a2015d67e9fdf55397051620dda9748d1" target="_top" xlink:title="CTxMemPool::GetMemPoolParents">
<polygon fill="#ffffff" stroke="#000000" points="428.4702,-74.5 428.4702,-92.5 603.4106,-92.5 603.4106,-74.5 428.4702,-74.5"/>
<text text-anchor="middle" x="515.9404" y="-80.5" font-family="Helvetica,sans-Serif" font-size="10.00" fill="#000000">CTxMemPool::GetMemPoolParents</text>
</a>
</g>
</g>
<!-- Node230&#45;&gt;Node233 -->
<g id="edge4" class="edge">
<title>Node230&#45;&gt;Node233</title>
<path fill="none" stroke="#191970" d="M373.1011,-83.5C387.5168,-83.5 402.8612,-83.5 417.9437,-83.5"/>
<polygon fill="#191970" stroke="#191970" points="418.329,-87.0001 428.329,-83.5 418.329,-80.0001 418.329,-87.0001"/>
</g>
<!-- Node234 -->
<g id="node6" class="node">
<title>Node234</title>
<g id="a_node6"><a xlink:href="class_c_tx_mem_pool_entry.html#a89325fcaa8efbd1d6fe68c39d7d676b0" target="_top" xlink:title="CTxMemPoolEntry::GetTxSize">
<polygon fill="#ffffff" stroke="#000000" points="439.8691,-37.5 439.8691,-55.5 592.0117,-55.5 592.0117,-37.5 439.8691,-37.5"/>
<text text-anchor="middle" x="515.9404" y="-43.5" font-family="Helvetica,sans-Serif" font-size="10.00" fill="#000000">CTxMemPoolEntry::GetTxSize</text>
</a>
</g>
</g>
<!-- Node230&#45;&gt;Node234 -->
<g id="edge5" class="edge">
<title>Node230&#45;&gt;Node234</title>
<path fill="none" stroke="#191970" d="M373.1011,-70.9735C399.1267,-66.5144 428.1796,-61.5366 453.2532,-57.2406"/>
<polygon fill="#191970" stroke="#191970" points="454.1067,-60.6454 463.372,-55.5069 452.9245,-53.746 454.1067,-60.6454"/>
</g>
<!-- Node235 -->
<g id="node7" class="node">
<title>Node235</title>
<g id="a_node7"><a xlink:href="policy_8cpp.html#a657a593ec90452062582ccf893a8488d" target="_top" xlink:title="Compute the virtual transaction size (weight reinterpreted as bytes). ">
<polygon fill="#ffffff" stroke="#000000" points="640.7998,-37.5 640.7998,-55.5 772.4199,-55.5 772.4199,-37.5 640.7998,-37.5"/>
<text text-anchor="middle" x="706.6099" y="-43.5" font-family="Helvetica,sans-Serif" font-size="10.00" fill="#000000">GetVirtualTransactionSize</text>
</a>
</g>
</g>
<!-- Node234&#45;&gt;Node235 -->
<g id="edge6" class="edge">
<title>Node234&#45;&gt;Node235</title>
<path fill="none" stroke="#191970" d="M592.1201,-46.5C604.8065,-46.5 617.965,-46.5 630.6461,-46.5"/>
<polygon fill="#191970" stroke="#191970" points="630.6956,-50.0001 640.6955,-46.5 630.6955,-43.0001 630.6956,-50.0001"/>
</g>
<!-- Node237 -->
<g id="node9" class="node">
<title>Node237</title>
<g id="a_node9"><a xlink:href="class_c_tx_mem_pool.html#a33448b87844f4e6091a394a6fdc4ebb0" target="_top" xlink:title="CTxMemPool::GetMemPoolChildren">
<polygon fill="#ffffff" stroke="#000000" points="427.0811,-.5 427.0811,-18.5 604.7998,-18.5 604.7998,-.5 427.0811,-.5"/>
<text text-anchor="middle" x="515.9404" y="-6.5" font-family="Helvetica,sans-Serif" font-size="10.00" fill="#000000">CTxMemPool::GetMemPoolChildren</text>
</a>
</g>
</g>
<!-- Node236&#45;&gt;Node237 -->
<g id="edge8" class="edge">
<title>Node236&#45;&gt;Node237</title>
<path fill="none" stroke="#191970" d="M391.2596,-18.7378C399.7815,-18.1064 408.4457,-17.4644 417.0329,-16.8282"/>
<polygon fill="#191970" stroke="#191970" points="417.351,-20.3143 427.065,-16.0849 416.8337,-13.3334 417.351,-20.3143"/>
</g>
</g>
</svg>
