<?xml version="1.0" encoding="UTF-8" standalone="no"?>
<!DOCTYPE svg PUBLIC "-//W3C//DTD SVG 1.1//EN"
 "http://www.w3.org/Graphics/SVG/1.1/DTD/svg11.dtd">
<!-- Generated by graphviz version 2.40.1 (20161225.0304)
 -->
<!-- Title: CMerkleTx::GetBlocksToMaturity Pages: 1 -->
<svg width="631pt" height="138pt"
 viewBox="0.00 0.00 630.71 138.00" xmlns="http://www.w3.org/2000/svg" xmlns:xlink="http://www.w3.org/1999/xlink">
<g id="graph0" class="graph" transform="scale(1 1) rotate(0) translate(4 134)">
<title>CMerkleTx::GetBlocksToMaturity</title>
<polygon fill="#ffffff" stroke="transparent" points="-4,4 -4,-134 626.708,-134 626.708,4 -4,4"/>
<!-- Node7 -->
<g id="node1" class="node">
<title>Node7</title>
<polygon fill="#bfbfbf" stroke="#000000" points="0,-76.5 0,-94.5 161.5859,-94.5 161.5859,-76.5 0,-76.5"/>
<text text-anchor="middle" x="80.793" y="-82.5" font-family="Helvetica,sans-Serif" font-size="10.00" fill="#000000">CMerkleTx::GetBlocksToMaturity</text>
</g>
<!-- Node8 -->
<g id="node2" class="node">
<title>Node8</title>
<g id="a_node2"><a xlink:href="class_c_merkle_tx.html#a5e7ef444cc0c2b875fba9c729ce83b10" target="_top" xlink:title="CMerkleTx::IsCoinBase">
<polygon fill="#ffffff" stroke="#000000" points="208.4258,-97.5 208.4258,-115.5 329.4551,-115.5 329.4551,-97.5 208.4258,-97.5"/>
<text text-anchor="middle" x="268.9404" y="-103.5" font-family="Helvetica,sans-Serif" font-size="10.00" fill="#000000">CMerkleTx::IsCoinBase</text>
</a>
</g>
</g>
<!-- Node7&#45;&gt;Node8 -->
<g id="edge1" class="edge">
<title>Node7&#45;&gt;Node8</title>
<path fill="none" stroke="#191970" d="M161.6763,-94.5278C173.7705,-95.8777 186.1615,-97.2607 198.0281,-98.5852"/>
<polygon fill="#191970" stroke="#191970" points="197.9742,-102.1008 208.3008,-99.7317 198.7507,-95.144 197.9742,-102.1008"/>
</g>
<!-- Node9 -->
<g id="node3" class="node">
<title>Node9</title>
<g id="a_node3"><a xlink:href="class_c_merkle_tx.html#a026579f00672e5b907faa77a1baa33c8" target="_top" xlink:title="Return depth of transaction in blockchain: &lt;0 : conflicts with a transaction this deep in the blockch...">
<polygon fill="#ffffff" stroke="#000000" points="197.5859,-50.5 197.5859,-78.5 340.2949,-78.5 340.2949,-50.5 197.5859,-50.5"/>
<text text-anchor="start" x="205.5859" y="-66.5" font-family="Helvetica,sans-Serif" font-size="10.00" fill="#000000">CMerkleTx::GetDepthInMain</text>
<text text-anchor="middle" x="268.9404" y="-56.5" font-family="Helvetica,sans-Serif" font-size="10.00" fill="#000000">Chain</text>
</a>
</g>
</g>
<!-- Node7&#45;&gt;Node9 -->
<g id="edge2" class="edge">
<title>Node7&#45;&gt;Node9</title>
<path fill="none" stroke="#191970" d="M161.6763,-76.4722C170.1025,-75.5318 178.6727,-74.5752 187.1093,-73.6335"/>
<polygon fill="#191970" stroke="#191970" points="187.7652,-77.0822 197.3152,-72.4944 186.9886,-70.1254 187.7652,-77.0822"/>
</g>
<!-- Node10 -->
<g id="node4" class="node">
<title>Node10</title>
<g id="a_node4"><a xlink:href="class_c_merkle_tx.html#aff66148b06d22c7ee555b79058211493" target="_top" xlink:title="CMerkleTx::hashUnset">
<polygon fill="#ffffff" stroke="#000000" points="376.2949,-111.5 376.2949,-129.5 493.9941,-129.5 493.9941,-111.5 376.2949,-111.5"/>
<text text-anchor="middle" x="435.1445" y="-117.5" font-family="Helvetica,sans-Serif" font-size="10.00" fill="#000000">CMerkleTx::hashUnset</text>
</a>
</g>
</g>
<!-- Node9&#45;&gt;Node10 -->
<g id="edge3" class="edge">
<title>Node9&#45;&gt;Node10</title>
<path fill="none" stroke="#191970" d="M311.6893,-78.5185C321.1386,-81.7173 331.079,-85.1602 340.2949,-88.5 356.435,-94.3491 360.0755,-96.8744 376.2949,-102.5 382.0502,-104.4962 388.161,-106.4961 394.1835,-108.399"/>
<polygon fill="#191970" stroke="#191970" points="393.5692,-111.8728 404.1572,-111.4921 395.6427,-105.187 393.5692,-111.8728"/>
</g>
<!-- Node12 -->
<g id="node6" class="node">
<title>Node12</title>
<g id="a_node6"><a xlink:href="validation_8h.html#a9d9b2d3b31edbd48ce62f4e2a73cc04c" target="_top" xlink:title="LookupBlockIndex">
<polygon fill="#ffffff" stroke="#000000" points="386.2827,-74.5 386.2827,-92.5 484.0063,-92.5 484.0063,-74.5 386.2827,-74.5"/>
<text text-anchor="middle" x="435.1445" y="-80.5" font-family="Helvetica,sans-Serif" font-size="10.00" fill="#000000">LookupBlockIndex</text>
</a>
</g>
</g>
<!-- Node9&#45;&gt;Node12 -->
<g id="edge5" class="edge">
<title>Node9&#45;&gt;Node12</title>
<path fill="none" stroke="#191970" d="M340.3905,-72.668C352.1114,-74.0079 364.1478,-75.3838 375.542,-76.6864"/>
<polygon fill="#191970" stroke="#191970" points="375.4652,-80.2003 385.798,-77.8588 376.2603,-73.2456 375.4652,-80.2003"/>
</g>
<!-- Node13 -->
<g id="node7" class="node">
<title>Node13</title>
<g id="a_node7"><a xlink:href="class_c_chain.html#af1786dc229c215dea7f727c11df2c8dc" target="_top" xlink:title="Efficiently check whether a block is present in this chain. ">
<polygon fill="#ffffff" stroke="#000000" points="387.9575,-37.5 387.9575,-55.5 482.3315,-55.5 482.3315,-37.5 387.9575,-37.5"/>
<text text-anchor="middle" x="435.1445" y="-43.5" font-family="Helvetica,sans-Serif" font-size="10.00" fill="#000000">CChain::Contains</text>
</a>
</g>
</g>
<!-- Node9&#45;&gt;Node13 -->
<g id="edge6" class="edge">
<title>Node9&#45;&gt;Node13</title>
<path fill="none" stroke="#191970" d="M340.3905,-56.7619C352.7754,-55.4206 365.5125,-54.0412 377.4721,-52.746"/>
<polygon fill="#191970" stroke="#191970" points="378.1884,-56.1889 387.7534,-51.6325 377.4347,-49.2296 378.1884,-56.1889"/>
</g>
<!-- Node14 -->
<g id="node8" class="node">
<title>Node14</title>
<g id="a_node8"><a xlink:href="class_c_chain.html#ad4758bc8872ce065a9579f77c3171d40" target="_top" xlink:title="Return the maximal height in the chain. ">
<polygon fill="#ffffff" stroke="#000000" points="393.2383,-.5 393.2383,-18.5 477.0508,-18.5 477.0508,-.5 393.2383,-.5"/>
<text text-anchor="middle" x="435.1445" y="-6.5" font-family="Helvetica,sans-Serif" font-size="10.00" fill="#000000">CChain::Height</text>
</a>
</g>
</g>
<!-- Node9&#45;&gt;Node14 -->
<g id="edge7" class="edge">
<title>Node9&#45;&gt;Node14</title>
<path fill="none" stroke="#191970" d="M310.4533,-50.458C330.3539,-43.7575 354.5411,-35.6589 376.2949,-28.5 383.0098,-26.2902 390.1636,-23.9603 397.0863,-21.7181"/>
<polygon fill="#191970" stroke="#191970" points="398.5457,-24.9249 406.9855,-18.5202 396.3938,-18.2638 398.5457,-24.9249"/>
</g>
<!-- Node11 -->
<g id="node5" class="node">
<title>Node11</title>
<g id="a_node5"><a xlink:href="classbase__blob.html#aba89c6722866a5850882a509d27d7bbd" target="_top" xlink:title="base_blob::IsNull">
<polygon fill="#ffffff" stroke="#000000" points="529.9941,-111.5 529.9941,-129.5 622.708,-129.5 622.708,-111.5 529.9941,-111.5"/>
<text text-anchor="middle" x="576.3511" y="-117.5" font-family="Helvetica,sans-Serif" font-size="10.00" fill="#000000">base_blob::IsNull</text>
</a>
</g>
</g>
<!-- Node10&#45;&gt;Node11 -->
<g id="edge4" class="edge">
<title>Node10&#45;&gt;Node11</title>
<path fill="none" stroke="#191970" d="M494.2106,-120.5C502.6998,-120.5 511.4177,-120.5 519.8553,-120.5"/>
<polygon fill="#191970" stroke="#191970" points="519.9743,-124.0001 529.9742,-120.5 519.9742,-117.0001 519.9743,-124.0001"/>
</g>
</g>
</svg>
