<?xml version="1.0" encoding="UTF-8" standalone="no"?>
<!DOCTYPE svg PUBLIC "-//W3C//DTD SVG 1.1//EN"
 "http://www.w3.org/Graphics/SVG/1.1/DTD/svg11.dtd">
<!-- Generated by graphviz version 2.40.1 (20161225.0304)
 -->
<!-- Title: KeccakCore::clear Pages: 1 -->
<svg width="391pt" height="64pt"
 viewBox="0.00 0.00 390.92 64.00" xmlns="http://www.w3.org/2000/svg" xmlns:xlink="http://www.w3.org/1999/xlink">
<g id="graph0" class="graph" transform="scale(1 1) rotate(0) translate(4 60)">
<title>KeccakCore::clear</title>
<polygon fill="#ffffff" stroke="transparent" points="-4,4 -4,-60 386.915,-60 386.915,4 -4,4"/>
<!-- Node21 -->
<g id="node1" class="node">
<title>Node21</title>
<polygon fill="#bfbfbf" stroke="#000000" points="0,-18.5 0,-36.5 97.6992,-36.5 97.6992,-18.5 0,-18.5"/>
<text text-anchor="middle" x="48.8496" y="-24.5" font-family="Helvetica,sans-Serif" font-size="10.00" fill="#000000">KeccakCore::clear</text>
</g>
<!-- Node22 -->
<g id="node2" class="node">
<title>Node22</title>
<g id="a_node2"><a xlink:href="class_s_h_a3__256.html#a531467f995ef6fc901ad8c2b5776a8d1" target="_top" xlink:title="Clears the hash state, removing all sensitive data, and then resets the hash ready for a new hashing ...">
<polygon fill="#ffffff" stroke="#000000" points="133.6992,-37.5 133.6992,-55.5 225.2998,-55.5 225.2998,-37.5 133.6992,-37.5"/>
<text text-anchor="middle" x="179.4995" y="-43.5" font-family="Helvetica,sans-Serif" font-size="10.00" fill="#000000">SHA3_256::clear</text>
</a>
</g>
</g>
<!-- Node21&#45;&gt;Node22 -->
<g id="edge1" class="edge">
<title>Node21&#45;&gt;Node22</title>
<path fill="none" stroke="#191970" d="M107.9088,-36.0888C116.5489,-37.3453 125.3366,-38.6233 133.6597,-39.8337"/>
<polygon fill="#191970" stroke="#191970" points="108.2702,-32.6046 97.8705,-34.629 107.2627,-39.5317 108.2702,-32.6046"/>
</g>
<!-- Node23 -->
<g id="node3" class="node">
<title>Node23</title>
<g id="a_node3"><a xlink:href="class_s_h_a3__512.html#acfbc5e9b4d394f011d5132a2b156d260" target="_top" xlink:title="Clears the hash state, removing all sensitive data, and then resets the hash ready for a new hashing ...">
<polygon fill="#ffffff" stroke="#000000" points="133.6992,-.5 133.6992,-18.5 225.2998,-18.5 225.2998,-.5 133.6992,-.5"/>
<text text-anchor="middle" x="179.4995" y="-6.5" font-family="Helvetica,sans-Serif" font-size="10.00" fill="#000000">SHA3_512::clear</text>
</a>
</g>
</g>
<!-- Node21&#45;&gt;Node23 -->
<g id="edge2" class="edge">
<title>Node21&#45;&gt;Node23</title>
<path fill="none" stroke="#191970" d="M107.9088,-19.3633C116.5489,-18.1729 125.3366,-16.9622 133.6597,-15.8155"/>
<polygon fill="#191970" stroke="#191970" points="107.2992,-15.9141 97.8705,-20.7463 108.2547,-22.8486 107.2992,-15.9141"/>
</g>
<!-- Node24 -->
<g id="node4" class="node">
<title>Node24</title>
<g id="a_node4"><a xlink:href="class_c_s_h_a3512.html#ad199e34c04fcb3de240e5b7673dc52b3" target="_top" xlink:title="CSHA3512::CSHA3512">
<polygon fill="#ffffff" stroke="#000000" points="261.2998,-.5 261.2998,-18.5 382.915,-18.5 382.915,-.5 261.2998,-.5"/>
<text text-anchor="middle" x="322.1074" y="-6.5" font-family="Helvetica,sans-Serif" font-size="10.00" fill="#000000">CSHA3512::CSHA3512</text>
</a>
</g>
</g>
<!-- Node23&#45;&gt;Node24 -->
<g id="edge3" class="edge">
<title>Node23&#45;&gt;Node24</title>
<path fill="none" stroke="#191970" d="M235.5078,-9.5C243.9384,-9.5 252.6684,-9.5 261.1958,-9.5"/>
<polygon fill="#191970" stroke="#191970" points="235.4066,-6.0001 225.4065,-9.5 235.4065,-13.0001 235.4066,-6.0001"/>
</g>
</g>
</svg>
