<?xml version="1.0" encoding="UTF-8" standalone="no"?>
<!DOCTYPE svg PUBLIC "-//W3C//DTD SVG 1.1//EN"
 "http://www.w3.org/Graphics/SVG/1.1/DTD/svg11.dtd">
<!-- Generated by graphviz version 2.40.1 (20161225.0304)
 -->
<!-- Title: CTxMemPool::RemoveStaged Pages: 1 -->
<svg width="736pt" height="140pt"
 viewBox="0.00 0.00 735.71 140.00" xmlns="http://www.w3.org/2000/svg" xmlns:xlink="http://www.w3.org/1999/xlink">
<g id="graph0" class="graph" transform="scale(1 1) rotate(0) translate(4 136)">
<title>CTxMemPool::RemoveStaged</title>
<polygon fill="#ffffff" stroke="transparent" points="-4,4 -4,-136 731.7129,-136 731.7129,4 -4,4"/>
<!-- Node342 -->
<g id="node1" class="node">
<title>Node342</title>
<polygon fill="#bfbfbf" stroke="#000000" points="0,-56.5 0,-74.5 151.0537,-74.5 151.0537,-56.5 0,-56.5"/>
<text text-anchor="middle" x="75.5269" y="-62.5" font-family="Helvetica,sans-Serif" font-size="10.00" fill="#000000">CTxMemPool::RemoveStaged</text>
</g>
<!-- Node343 -->
<g id="node2" class="node">
<title>Node343</title>
<g id="a_node2"><a xlink:href="class_c_tx_mem_pool.html#a1bdc49203ca7654d8508c356bcbca47e" target="_top" xlink:title="CTxMemPool::removeRecursive">
<polygon fill="#ffffff" stroke="#000000" points="187.0537,-113.5 187.0537,-131.5 346.9795,-131.5 346.9795,-113.5 187.0537,-113.5"/>
<text text-anchor="middle" x="267.0166" y="-119.5" font-family="Helvetica,sans-Serif" font-size="10.00" fill="#000000">CTxMemPool::removeRecursive</text>
</a>
</g>
</g>
<!-- Node342&#45;&gt;Node343 -->
<g id="edge1" class="edge">
<title>Node342&#45;&gt;Node343</title>
<path fill="none" stroke="#191970" d="M115.5727,-77.4203C151.5979,-88.1438 203.7527,-103.6685 236.5,-113.4162"/>
<polygon fill="#191970" stroke="#191970" points="116.4519,-74.0303 105.869,-74.5318 114.4548,-80.7394 116.4519,-74.0303"/>
</g>
<!-- Node345 -->
<g id="node4" class="node">
<title>Node345</title>
<g id="a_node4"><a xlink:href="class_c_tx_mem_pool.html#af0d277f190f134638cb0aa18e2099094" target="_top" xlink:title="Called when a block is connected. ">
<polygon fill="#ffffff" stroke="#000000" points="572.792,-94.5 572.792,-112.5 727.7129,-112.5 727.7129,-94.5 572.792,-94.5"/>
<text text-anchor="middle" x="650.2524" y="-100.5" font-family="Helvetica,sans-Serif" font-size="10.00" fill="#000000">CTxMemPool::removeForBlock</text>
</a>
</g>
</g>
<!-- Node342&#45;&gt;Node345 -->
<g id="edge4" class="edge">
<title>Node342&#45;&gt;Node345</title>
<path fill="none" stroke="#191970" d="M161.4389,-71.1804C272.7851,-78.5424 465.3282,-91.2731 572.5195,-98.3604"/>
<polygon fill="#191970" stroke="#191970" points="161.4623,-67.6744 151.2532,-70.5069 161.0005,-74.6591 161.4623,-67.6744"/>
</g>
<!-- Node346 -->
<g id="node5" class="node">
<title>Node346</title>
<g id="a_node5"><a xlink:href="class_c_tx_mem_pool.html#a283d0422469c908a881a6484308ee2b6" target="_top" xlink:title="Expire all transaction (and their dependencies) in the mempool older than time. ">
<polygon fill="#ffffff" stroke="#000000" points="211.7827,-37.5 211.7827,-55.5 322.2505,-55.5 322.2505,-37.5 211.7827,-37.5"/>
<text text-anchor="middle" x="267.0166" y="-43.5" font-family="Helvetica,sans-Serif" font-size="10.00" fill="#000000">CTxMemPool::Expire</text>
</a>
</g>
</g>
<!-- Node342&#45;&gt;Node346 -->
<g id="edge5" class="edge">
<title>Node342&#45;&gt;Node346</title>
<path fill="none" stroke="#191970" d="M161.2229,-56.9971C178.3448,-55.2982 195.9,-53.5563 211.666,-51.992"/>
<polygon fill="#191970" stroke="#191970" points="160.8142,-53.5203 151.2087,-57.9907 161.5054,-60.4861 160.8142,-53.5203"/>
</g>
<!-- Node347 -->
<g id="node6" class="node">
<title>Node347</title>
<g id="a_node6"><a xlink:href="class_c_tx_mem_pool.html#adb0214b2760eaedf15eb351348bc4f43" target="_top" xlink:title="Remove transactions from the mempool until its dynamic size is &lt;= sizelimit. ">
<polygon fill="#ffffff" stroke="#000000" points="201.1357,-.5 201.1357,-18.5 332.8975,-18.5 332.8975,-.5 201.1357,-.5"/>
<text text-anchor="middle" x="267.0166" y="-6.5" font-family="Helvetica,sans-Serif" font-size="10.00" fill="#000000">CTxMemPool::TrimToSize</text>
</a>
</g>
</g>
<!-- Node342&#45;&gt;Node347 -->
<g id="edge6" class="edge">
<title>Node342&#45;&gt;Node347</title>
<path fill="none" stroke="#191970" d="M109.1947,-52.9776C131.1712,-45.0655 160.5912,-34.9635 187.0537,-27.5 198.558,-24.2553 211.1218,-21.202 222.8113,-18.5637"/>
<polygon fill="#191970" stroke="#191970" points="107.8627,-49.7377 99.6585,-56.4415 110.2526,-56.3171 107.8627,-49.7377"/>
</g>
<!-- Node344 -->
<g id="node3" class="node">
<title>Node344</title>
<g id="a_node3"><a xlink:href="class_c_tx_mem_pool.html#a01aa5f8ce16839bfbaacf67f40fe461d" target="_top" xlink:title="CTxMemPool::removeConflicts">
<polygon fill="#ffffff" stroke="#000000" points="382.9795,-113.5 382.9795,-131.5 536.792,-131.5 536.792,-113.5 382.9795,-113.5"/>
<text text-anchor="middle" x="459.8857" y="-119.5" font-family="Helvetica,sans-Serif" font-size="10.00" fill="#000000">CTxMemPool::removeConflicts</text>
</a>
</g>
</g>
<!-- Node343&#45;&gt;Node344 -->
<g id="edge2" class="edge">
<title>Node343&#45;&gt;Node344</title>
<path fill="none" stroke="#191970" d="M357.1534,-122.5C365.7276,-122.5 374.3685,-122.5 382.8034,-122.5"/>
<polygon fill="#191970" stroke="#191970" points="357.135,-119.0001 347.1349,-122.5 357.1349,-126.0001 357.135,-119.0001"/>
</g>
<!-- Node344&#45;&gt;Node345 -->
<g id="edge3" class="edge">
<title>Node344&#45;&gt;Node345</title>
<path fill="none" stroke="#191970" d="M547.0278,-113.8026C555.5837,-112.9486 564.2269,-112.086 572.6782,-111.2425"/>
<polygon fill="#191970" stroke="#191970" points="546.6437,-110.3234 537.0407,-114.7994 547.3389,-117.2888 546.6437,-110.3234"/>
</g>
</g>
</svg>
