<?xml version="1.0" encoding="UTF-8" standalone="no"?>
<!DOCTYPE svg PUBLIC "-//W3C//DTD SVG 1.1//EN"
 "http://www.w3.org/Graphics/SVG/1.1/DTD/svg11.dtd">
<!-- Generated by graphviz version 2.40.1 (20161225.0304)
 -->
<!-- Title: WalletView::message Pages: 1 -->
<svg width="786pt" height="138pt"
 viewBox="0.00 0.00 786.12 138.00" xmlns="http://www.w3.org/2000/svg" xmlns:xlink="http://www.w3.org/1999/xlink">
<g id="graph0" class="graph" transform="scale(1 1) rotate(0) translate(4 134)">
<title>WalletView::message</title>
<polygon fill="#ffffff" stroke="transparent" points="-4,4 -4,-134 782.1211,-134 782.1211,4 -4,4"/>
<!-- Node184 -->
<g id="node1" class="node">
<title>Node184</title>
<polygon fill="#bfbfbf" stroke="#000000" points="0,-55.5 0,-73.5 111.0488,-73.5 111.0488,-55.5 0,-55.5"/>
<text text-anchor="middle" x="55.5244" y="-61.5" font-family="Helvetica,sans-Serif" font-size="10.00" fill="#000000">WalletView::message</text>
</g>
<!-- Node185 -->
<g id="node2" class="node">
<title>Node185</title>
<g id="a_node2"><a xlink:href="class_wallet_view.html#a8c584ab249ed6d5ca68c4f936ad74161" target="_top" xlink:title="WalletView::WalletView">
<polygon fill="#ffffff" stroke="#000000" points="156.5874,-111.5 156.5874,-129.5 275.9761,-129.5 275.9761,-111.5 156.5874,-111.5"/>
<text text-anchor="middle" x="216.2817" y="-117.5" font-family="Helvetica,sans-Serif" font-size="10.00" fill="#000000">WalletView::WalletView</text>
</a>
</g>
</g>
<!-- Node184&#45;&gt;Node185 -->
<g id="edge1" class="edge">
<title>Node184&#45;&gt;Node185</title>
<path fill="none" stroke="#191970" d="M84.4853,-77.7401C102.2958,-85.5761 125.7185,-95.3378 147.0488,-102.5 156.8206,-105.7811 167.5336,-108.8268 177.5503,-111.4447"/>
<polygon fill="#191970" stroke="#191970" points="85.776,-74.4836 75.2169,-73.6136 82.9288,-80.8784 85.776,-74.4836"/>
</g>
<!-- Node186 -->
<g id="node3" class="node">
<title>Node186</title>
<g id="a_node3"><a xlink:href="class_wallet_view.html#a4405b0cf33d31ea663cb1e5047ae1d97" target="_top" xlink:title="WalletView::setBitcoinGUI">
<polygon fill="#ffffff" stroke="#000000" points="150.479,-74.5 150.479,-92.5 282.0845,-92.5 282.0845,-74.5 150.479,-74.5"/>
<text text-anchor="middle" x="216.2817" y="-80.5" font-family="Helvetica,sans-Serif" font-size="10.00" fill="#000000">WalletView::setBitcoinGUI</text>
</a>
</g>
</g>
<!-- Node184&#45;&gt;Node186 -->
<g id="edge2" class="edge">
<title>Node184&#45;&gt;Node186</title>
<path fill="none" stroke="#191970" d="M121.5057,-72.2984C131.0379,-73.425 140.8494,-74.5846 150.3801,-75.711"/>
<polygon fill="#191970" stroke="#191970" points="121.6401,-68.79 111.2984,-71.092 120.8184,-75.7416 121.6401,-68.79"/>
</g>
<!-- Node188 -->
<g id="node5" class="node">
<title>Node188</title>
<g id="a_node5"><a xlink:href="class_wallet_view.html#a0a37ff693a4f9c1e5ddc23f9cd3913be" target="_top" xlink:title="Set the wallet model. ">
<polygon fill="#ffffff" stroke="#000000" points="147.0488,-37.5 147.0488,-55.5 285.5146,-55.5 285.5146,-37.5 147.0488,-37.5"/>
<text text-anchor="middle" x="216.2817" y="-43.5" font-family="Helvetica,sans-Serif" font-size="10.00" fill="#000000">WalletView::setWalletModel</text>
</a>
</g>
</g>
<!-- Node184&#45;&gt;Node188 -->
<g id="edge4" class="edge">
<title>Node184&#45;&gt;Node188</title>
<path fill="none" stroke="#191970" d="M121.4466,-57.1187C129.8769,-56.1747 138.5266,-55.2062 147.0082,-54.2566"/>
<polygon fill="#191970" stroke="#191970" points="120.8468,-53.6639 111.2984,-58.255 121.6258,-60.6204 120.8468,-53.6639"/>
</g>
<!-- Node189 -->
<g id="node6" class="node">
<title>Node189</title>
<g id="a_node6"><a xlink:href="class_wallet_view.html#a9800d793b552076b4207276d9e08c8b6" target="_top" xlink:title="Backup the wallet. ">
<polygon fill="#ffffff" stroke="#000000" points="151.2139,-.5 151.2139,-18.5 281.3496,-18.5 281.3496,-.5 151.2139,-.5"/>
<text text-anchor="middle" x="216.2817" y="-6.5" font-family="Helvetica,sans-Serif" font-size="10.00" fill="#000000">WalletView::backupWallet</text>
</a>
</g>
</g>
<!-- Node184&#45;&gt;Node189 -->
<g id="edge6" class="edge">
<title>Node184&#45;&gt;Node189</title>
<path fill="none" stroke="#191970" d="M85.9804,-51.5751C103.6428,-44.3185 126.4079,-35.3699 147.0488,-28.5 157.8107,-24.9182 169.6696,-21.482 180.4859,-18.5405"/>
<polygon fill="#191970" stroke="#191970" points="84.6346,-48.3441 76.7388,-55.4085 87.3167,-54.8099 84.6346,-48.3441"/>
</g>
<!-- Node187 -->
<g id="node4" class="node">
<title>Node187</title>
<g id="a_node4"><a xlink:href="class_wallet_frame.html#a06cb28194836995e50cc46716b2227ff" target="_top" xlink:title="WalletFrame::addWallet">
<polygon fill="#ffffff" stroke="#000000" points="329.2954,-55.5 329.2954,-73.5 451.2622,-73.5 451.2622,-55.5 329.2954,-55.5"/>
<text text-anchor="middle" x="390.2788" y="-61.5" font-family="Helvetica,sans-Serif" font-size="10.00" fill="#000000">WalletFrame::addWallet</text>
</a>
</g>
</g>
<!-- Node186&#45;&gt;Node187 -->
<g id="edge3" class="edge">
<title>Node186&#45;&gt;Node187</title>
<path fill="none" stroke="#191970" d="M292.6884,-75.1566C304.8512,-73.8285 317.2943,-72.4697 329.0477,-71.1863"/>
<polygon fill="#191970" stroke="#191970" points="292.1199,-71.6978 282.5589,-76.2627 292.8798,-78.6564 292.1199,-71.6978"/>
</g>
<!-- Node188&#45;&gt;Node187 -->
<g id="edge5" class="edge">
<title>Node188&#45;&gt;Node187</title>
<path fill="none" stroke="#191970" d="M295.7686,-54.7229C306.9702,-55.8817 318.3391,-57.0578 329.1251,-58.1736"/>
<polygon fill="#191970" stroke="#191970" points="295.857,-51.2135 285.5499,-53.6658 295.1367,-58.1763 295.857,-51.2135"/>
</g>
<!-- Node190 -->
<g id="node7" class="node">
<title>Node190</title>
<g id="a_node7"><a xlink:href="class_wallet_frame.html#a76aa3543635fedea052661a4cd44b81d" target="_top" xlink:title="Backup the wallet. ">
<polygon fill="#ffffff" stroke="#000000" points="321.5146,-.5 321.5146,-18.5 459.043,-18.5 459.043,-.5 321.5146,-.5"/>
<text text-anchor="middle" x="390.2788" y="-6.5" font-family="Helvetica,sans-Serif" font-size="10.00" fill="#000000">WalletFrame::backupWallet</text>
</a>
</g>
</g>
<!-- Node189&#45;&gt;Node190 -->
<g id="edge7" class="edge">
<title>Node189&#45;&gt;Node190</title>
<path fill="none" stroke="#191970" d="M291.752,-9.5C301.6163,-9.5 311.682,-9.5 321.4295,-9.5"/>
<polygon fill="#191970" stroke="#191970" points="291.5669,-6.0001 281.5669,-9.5 291.5668,-13.0001 291.5669,-6.0001"/>
</g>
<!-- Node191 -->
<g id="node8" class="node">
<title>Node191</title>
<g id="a_node8"><a xlink:href="class_bitcoin_g_u_i.html#a7340679e1356b1bb3cfaeb64a3e93218" target="_top" xlink:title="Create the main UI actions. ">
<polygon fill="#ffffff" stroke="#000000" points="495.043,-.5 495.043,-18.5 624.9785,-18.5 624.9785,-.5 495.043,-.5"/>
<text text-anchor="middle" x="560.0107" y="-6.5" font-family="Helvetica,sans-Serif" font-size="10.00" fill="#000000">BitcoinGUI::createActions</text>
</a>
</g>
</g>
<!-- Node190&#45;&gt;Node191 -->
<g id="edge8" class="edge">
<title>Node190&#45;&gt;Node191</title>
<path fill="none" stroke="#191970" d="M469.5852,-9.5C478.0535,-9.5 486.596,-9.5 494.8734,-9.5"/>
<polygon fill="#191970" stroke="#191970" points="469.3153,-6.0001 459.3153,-9.5 469.3152,-13.0001 469.3153,-6.0001"/>
</g>
<!-- Node192 -->
<g id="node9" class="node">
<title>Node192</title>
<g id="a_node9"><a xlink:href="class_bitcoin_g_u_i.html#a58564e8398e33db7beca224c0f71c2b6" target="_top" xlink:title="BitcoinGUI::BitcoinGUI">
<polygon fill="#ffffff" stroke="#000000" points="660.9785,-.5 660.9785,-18.5 778.1211,-18.5 778.1211,-.5 660.9785,-.5"/>
<text text-anchor="middle" x="719.5498" y="-6.5" font-family="Helvetica,sans-Serif" font-size="10.00" fill="#000000">BitcoinGUI::BitcoinGUI</text>
</a>
</g>
</g>
<!-- Node191&#45;&gt;Node192 -->
<g id="edge9" class="edge">
<title>Node191&#45;&gt;Node192</title>
<path fill="none" stroke="#191970" d="M635.388,-9.5C643.976,-9.5 652.6321,-9.5 660.9565,-9.5"/>
<polygon fill="#191970" stroke="#191970" points="635.3617,-6.0001 625.3617,-9.5 635.3617,-13.0001 635.3617,-6.0001"/>
</g>
</g>
</svg>
