<?xml version="1.0" encoding="UTF-8" standalone="no"?>
<!DOCTYPE svg PUBLIC "-//W3C//DTD SVG 1.1//EN"
 "http://www.w3.org/Graphics/SVG/1.1/DTD/svg11.dtd">
<!-- Generated by graphviz version 2.40.1 (20161225.0304)
 -->
<!-- Title: TransactionView::dateRangeChanged Pages: 1 -->
<svg width="304pt" height="37pt"
 viewBox="0.00 0.00 303.53 37.00" xmlns="http://www.w3.org/2000/svg" xmlns:xlink="http://www.w3.org/1999/xlink">
<g id="graph0" class="graph" transform="scale(1 1) rotate(0) translate(4 33)">
<title>TransactionView::dateRangeChanged</title>
<polygon fill="#ffffff" stroke="transparent" points="-4,4 -4,-33 299.5293,-33 299.5293,4 -4,4"/>
<!-- Node193 -->
<g id="node1" class="node">
<title>Node193</title>
<polygon fill="#bfbfbf" stroke="#000000" points="0,-.5 0,-28.5 143.8662,-28.5 143.8662,-.5 0,-.5"/>
<text text-anchor="start" x="8" y="-16.5" font-family="Helvetica,sans-Serif" font-size="10.00" fill="#000000">TransactionView::dateRange</text>
<text text-anchor="middle" x="71.9331" y="-6.5" font-family="Helvetica,sans-Serif" font-size="10.00" fill="#000000">Changed</text>
</g>
<!-- Node194 -->
<g id="node2" class="node">
<title>Node194</title>
<g id="a_node2"><a xlink:href="class_transaction_filter_proxy.html#ad57cc552db9ce70bb4e8e1c12909992d" target="_top" xlink:title="TransactionFilterProxy\l::setDateRange">
<polygon fill="#ffffff" stroke="#000000" points="179.8662,-.5 179.8662,-28.5 295.5293,-28.5 295.5293,-.5 179.8662,-.5"/>
<text text-anchor="start" x="187.8662" y="-16.5" font-family="Helvetica,sans-Serif" font-size="10.00" fill="#000000">TransactionFilterProxy</text>
<text text-anchor="middle" x="237.6978" y="-6.5" font-family="Helvetica,sans-Serif" font-size="10.00" fill="#000000">::setDateRange</text>
</a>
</g>
</g>
<!-- Node193&#45;&gt;Node194 -->
<g id="edge1" class="edge">
<title>Node193&#45;&gt;Node194</title>
<path fill="none" stroke="#191970" d="M144.1577,-14.5C152.5933,-14.5 161.1787,-14.5 169.5565,-14.5"/>
<polygon fill="#191970" stroke="#191970" points="169.6486,-18.0001 179.6486,-14.5 169.6485,-11.0001 169.6486,-18.0001"/>
</g>
</g>
</svg>
