<?xml version="1.0" encoding="UTF-8" standalone="no"?>
<!DOCTYPE svg PUBLIC "-//W3C//DTD SVG 1.1//EN"
 "http://www.w3.org/Graphics/SVG/1.1/DTD/svg11.dtd">
<!-- Generated by graphviz version 2.40.1 (20161225.0304)
 -->
<!-- Title: WalletView::showProgress Pages: 1 -->
<svg width="317pt" height="111pt"
 viewBox="0.00 0.00 316.86 111.00" xmlns="http://www.w3.org/2000/svg" xmlns:xlink="http://www.w3.org/1999/xlink">
<g id="graph0" class="graph" transform="scale(1 1) rotate(0) translate(4 107)">
<title>WalletView::showProgress</title>
<polygon fill="#ffffff" stroke="transparent" points="-4,4 -4,-107 312.8594,-107 312.8594,4 -4,4"/>
<!-- Node402 -->
<g id="node1" class="node">
<title>Node402</title>
<polygon fill="#bfbfbf" stroke="#000000" points="0,-47.5 0,-65.5 133.832,-65.5 133.832,-47.5 0,-47.5"/>
<text text-anchor="middle" x="66.916" y="-53.5" font-family="Helvetica,sans-Serif" font-size="10.00" fill="#000000">WalletView::showProgress</text>
</g>
<!-- Node403 -->
<g id="node2" class="node">
<title>Node403</title>
<g id="a_node2"><a xlink:href="class_wallet_view.html#af74afee27526920cadb16622b1f836c1" target="_top" xlink:title="WalletView::getWalletModel">
<polygon fill="#ffffff" stroke="#000000" points="169.832,-84.5 169.832,-102.5 308.8594,-102.5 308.8594,-84.5 169.832,-84.5"/>
<text text-anchor="middle" x="239.3457" y="-90.5" font-family="Helvetica,sans-Serif" font-size="10.00" fill="#000000">WalletView::getWalletModel</text>
</a>
</g>
</g>
<!-- Node402&#45;&gt;Node403 -->
<g id="edge1" class="edge">
<title>Node402&#45;&gt;Node403</title>
<path fill="none" stroke="#191970" d="M109.0971,-65.5512C132.6693,-70.6093 162.2446,-76.9556 187.2527,-82.3219"/>
<polygon fill="#191970" stroke="#191970" points="186.7899,-85.8022 197.3016,-84.4782 188.2585,-78.958 186.7899,-85.8022"/>
</g>
<!-- Node404 -->
<g id="node3" class="node">
<title>Node404</title>
<g id="a_node3"><a xlink:href="class_wallet_model.html#aa3a3b4a8064de3af096dbf64bfe12655" target="_top" xlink:title="WalletModel::wallet">
<polygon fill="#ffffff" stroke="#000000" points="188.4575,-47.5 188.4575,-65.5 290.2339,-65.5 290.2339,-47.5 188.4575,-47.5"/>
<text text-anchor="middle" x="239.3457" y="-53.5" font-family="Helvetica,sans-Serif" font-size="10.00" fill="#000000">WalletModel::wallet</text>
</a>
</g>
</g>
<!-- Node402&#45;&gt;Node404 -->
<g id="edge2" class="edge">
<title>Node402&#45;&gt;Node404</title>
<path fill="none" stroke="#191970" d="M134.0756,-56.5C148.6092,-56.5 163.9033,-56.5 178.1917,-56.5"/>
<polygon fill="#191970" stroke="#191970" points="178.3929,-60.0001 188.3928,-56.5 178.3928,-53.0001 178.3929,-60.0001"/>
</g>
<!-- Node405 -->
<g id="node4" class="node">
<title>Node405</title>
<g id="a_node4"><a xlink:href="classinterfaces_1_1_wallet.html#a6800b176d05af90b8de45d41bb2bab76" target="_top" xlink:title="Abort a rescan. ">
<polygon fill="#ffffff" stroke="#000000" points="193.1816,-.5 193.1816,-28.5 285.5098,-28.5 285.5098,-.5 193.1816,-.5"/>
<text text-anchor="start" x="201.1816" y="-16.5" font-family="Helvetica,sans-Serif" font-size="10.00" fill="#000000">interfaces::Wallet</text>
<text text-anchor="middle" x="239.3457" y="-6.5" font-family="Helvetica,sans-Serif" font-size="10.00" fill="#000000">::abortRescan</text>
</a>
</g>
</g>
<!-- Node402&#45;&gt;Node405 -->
<g id="edge3" class="edge">
<title>Node402&#45;&gt;Node405</title>
<path fill="none" stroke="#191970" d="M103.9065,-47.4899C126.9838,-41.8688 157.1372,-34.5241 183.1331,-28.1921"/>
<polygon fill="#191970" stroke="#191970" points="183.9816,-31.5879 192.8692,-25.8206 182.3249,-24.7867 183.9816,-31.5879"/>
</g>
</g>
</svg>
