<?xml version="1.0" encoding="UTF-8" standalone="no"?>
<!DOCTYPE svg PUBLIC "-//W3C//DTD SVG 1.1//EN"
 "http://www.w3.org/Graphics/SVG/1.1/DTD/svg11.dtd">
<!-- Generated by graphviz version 2.40.1 (20161225.0304)
 -->
<!-- Title: AES128Decrypt Pages: 1 -->
<svg width="95pt" height="157pt"
 viewBox="0.00 0.00 95.15 157.00" xmlns="http://www.w3.org/2000/svg" xmlns:xlink="http://www.w3.org/1999/xlink">
<g id="graph0" class="graph" transform="scale(1 1) rotate(0) translate(4 153)">
<title>AES128Decrypt</title>
<polygon fill="#ffffff" stroke="transparent" points="-4,4 -4,-153 91.1475,-153 91.1475,4 -4,4"/>
<!-- Node1 -->
<g id="node1" class="node">
<title>Node1</title>
<polygon fill="#bfbfbf" stroke="#000000" points="0,-.5 0,-18.5 87.1475,-18.5 87.1475,-.5 0,-.5"/>
<text text-anchor="middle" x="43.5737" y="-6.5" font-family="Helvetica,sans-Serif" font-size="10.00" fill="#000000">AES128Decrypt</text>
</g>
<!-- Node2 -->
<g id="node2" class="node">
<title>Node2</title>
<g id="a_node2"><a xlink:href="struct_a_e_s128__ctx.html" target="_top" xlink:title="AES128_ctx">
<polygon fill="#ffffff" stroke="#000000" points="8.0566,-65.5 8.0566,-83.5 79.0908,-83.5 79.0908,-65.5 8.0566,-65.5"/>
<text text-anchor="middle" x="43.5737" y="-71.5" font-family="Helvetica,sans-Serif" font-size="10.00" fill="#000000">AES128_ctx</text>
</a>
</g>
</g>
<!-- Node2&#45;&gt;Node1 -->
<g id="edge1" class="edge">
<title>Node2&#45;&gt;Node1</title>
<path fill="none" stroke="#9a32cd" stroke-dasharray="5,2" d="M43.5737,-55.1265C43.5737,-43.1522 43.5737,-28.3205 43.5737,-18.8821"/>
<polygon fill="#9a32cd" stroke="#9a32cd" points="40.0738,-55.462 43.5737,-65.462 47.0738,-55.4621 40.0738,-55.462"/>
<text text-anchor="middle" x="51.3521" y="-39" font-family="Helvetica,sans-Serif" font-size="10.00" fill="#000000"> ctx</text>
</g>
<!-- Node3 -->
<g id="node3" class="node">
<title>Node3</title>
<g id="a_node3"><a xlink:href="struct_a_e_s__state.html" target="_top" xlink:title="AES_state">
<polygon fill="#ffffff" stroke="#000000" points="11.9482,-130.5 11.9482,-148.5 75.1992,-148.5 75.1992,-130.5 11.9482,-130.5"/>
<text text-anchor="middle" x="43.5737" y="-136.5" font-family="Helvetica,sans-Serif" font-size="10.00" fill="#000000">AES_state</text>
</a>
</g>
</g>
<!-- Node3&#45;&gt;Node2 -->
<g id="edge2" class="edge">
<title>Node3&#45;&gt;Node2</title>
<path fill="none" stroke="#9a32cd" stroke-dasharray="5,2" d="M43.5737,-120.1265C43.5737,-108.1522 43.5737,-93.3205 43.5737,-83.8821"/>
<polygon fill="#9a32cd" stroke="#9a32cd" points="40.0738,-120.462 43.5737,-130.462 47.0738,-120.4621 40.0738,-120.462"/>
<text text-anchor="middle" x="49.1279" y="-104" font-family="Helvetica,sans-Serif" font-size="10.00" fill="#000000"> rk</text>
</g>
</g>
</svg>
