<?xml version="1.0" encoding="UTF-8" standalone="no"?>
<!DOCTYPE svg PUBLIC "-//W3C//DTD SVG 1.1//EN"
 "http://www.w3.org/Graphics/SVG/1.1/DTD/svg11.dtd">
<!-- Generated by graphviz version 2.40.1 (20161225.0304)
 -->
<!-- Title: CChainState::PreciousBlock Pages: 1 -->
<svg width="815pt" height="208pt"
 viewBox="0.00 0.00 814.51 208.21" xmlns="http://www.w3.org/2000/svg" xmlns:xlink="http://www.w3.org/1999/xlink">
<g id="graph0" class="graph" transform="scale(1 1) rotate(0) translate(4 204.2085)">
<title>CChainState::PreciousBlock</title>
<polygon fill="#ffffff" stroke="transparent" points="-4,4 -4,-204.2085 810.5146,-204.2085 810.5146,4 -4,4"/>
<!-- Node223 -->
<g id="node1" class="node">
<title>Node223</title>
<polygon fill="#bfbfbf" stroke="#000000" points="0,-143.5 0,-161.5 141.6152,-161.5 141.6152,-143.5 0,-143.5"/>
<text text-anchor="middle" x="70.8076" y="-149.5" font-family="Helvetica,sans-Serif" font-size="10.00" fill="#000000">CChainState::PreciousBlock</text>
</g>
<!-- Node224 -->
<g id="node2" class="node">
<title>Node224</title>
<g id="a_node2"><a xlink:href="class_c_chain.html#a578545bde95163bee37b1be28e7b2755" target="_top" xlink:title="Returns the index entry for the tip of this chain, or nullptr if none. ">
<polygon fill="#ffffff" stroke="#000000" points="389.8887,-162.5 389.8887,-180.5 458.3203,-180.5 458.3203,-162.5 389.8887,-162.5"/>
<text text-anchor="middle" x="424.1045" y="-168.5" font-family="Helvetica,sans-Serif" font-size="10.00" fill="#000000">CChain::Tip</text>
</a>
</g>
</g>
<!-- Node223&#45;&gt;Node224 -->
<g id="edge1" class="edge">
<title>Node223&#45;&gt;Node224</title>
<path fill="none" stroke="#191970" d="M88.7614,-161.5055C109.539,-171.3805 145.0774,-186.6071 177.6152,-192.5 244.9013,-204.6862 263.5154,-200.1064 331.4717,-192.5 348.2756,-190.6191 366.4797,-186.8759 382.2663,-183.0639"/>
<polygon fill="#191970" stroke="#191970" points="383.3995,-186.3884 392.2523,-180.5679 381.702,-179.5973 383.3995,-186.3884"/>
</g>
<!-- Node225 -->
<g id="node3" class="node">
<title>Node225</title>
<g id="a_node3"><a xlink:href="class_c_block_index.html#ad8b5a6560e7c0d4222066e2922178683" target="_top" xlink:title="Check whether this block index entry is valid up to the passed validity level. ">
<polygon fill="#ffffff" stroke="#000000" points="201.0576,-164.5 201.0576,-182.5 308.0293,-182.5 308.0293,-164.5 201.0576,-164.5"/>
<text text-anchor="middle" x="254.5435" y="-170.5" font-family="Helvetica,sans-Serif" font-size="10.00" fill="#000000">CBlockIndex::IsValid</text>
</a>
</g>
</g>
<!-- Node223&#45;&gt;Node225 -->
<g id="edge2" class="edge">
<title>Node223&#45;&gt;Node225</title>
<path fill="none" stroke="#191970" d="M141.8447,-160.6191C157.9152,-162.4559 174.8834,-164.3953 190.6387,-166.196"/>
<polygon fill="#191970" stroke="#191970" points="190.4626,-169.6986 200.7954,-167.3569 191.2575,-162.7439 190.4626,-169.6986"/>
</g>
<!-- Node226 -->
<g id="node4" class="node">
<title>Node226</title>
<g id="a_node4"><a xlink:href="class_c_chain_state.html#a6c5ba911dca1f0d59781b9e63a607cd6" target="_top" xlink:title="Delete all entries in setBlockIndexCandidates that are worse than the current tip. ">
<polygon fill="#ffffff" stroke="#000000" points="177.6152,-117.5 177.6152,-145.5 331.4717,-145.5 331.4717,-117.5 177.6152,-117.5"/>
<text text-anchor="start" x="185.6152" y="-133.5" font-family="Helvetica,sans-Serif" font-size="10.00" fill="#000000">CChainState::PruneBlockIndex</text>
<text text-anchor="middle" x="254.5435" y="-123.5" font-family="Helvetica,sans-Serif" font-size="10.00" fill="#000000">Candidates</text>
</a>
</g>
</g>
<!-- Node223&#45;&gt;Node226 -->
<g id="edge3" class="edge">
<title>Node223&#45;&gt;Node226</title>
<path fill="none" stroke="#191970" d="M141.8447,-144.3809C150.2641,-143.4186 158.93,-142.4281 167.5387,-141.4442"/>
<polygon fill="#191970" stroke="#191970" points="168.0624,-144.9072 177.6003,-140.2942 167.2675,-137.9525 168.0624,-144.9072"/>
</g>
<!-- Node227 -->
<g id="node5" class="node">
<title>Node227</title>
<g id="a_node5"><a xlink:href="class_c_chain_state.html#a5a24c6da53ff4b725e2d1c8b4af007fe" target="_top" xlink:title="Make the best chain active, in multiple steps. ">
<polygon fill="#ffffff" stroke="#000000" points="187.625,-70.5 187.625,-98.5 321.4619,-98.5 321.4619,-70.5 187.625,-70.5"/>
<text text-anchor="start" x="195.625" y="-86.5" font-family="Helvetica,sans-Serif" font-size="10.00" fill="#000000">CChainState::ActivateBest</text>
<text text-anchor="middle" x="254.5435" y="-76.5" font-family="Helvetica,sans-Serif" font-size="10.00" fill="#000000">Chain</text>
</a>
</g>
</g>
<!-- Node223&#45;&gt;Node227 -->
<g id="edge5" class="edge">
<title>Node223&#45;&gt;Node227</title>
<path fill="none" stroke="#191970" d="M91.4706,-143.3506C112.8314,-134.0434 147.247,-119.4681 177.6152,-108.5 183.9807,-106.201 190.6874,-103.9139 197.379,-101.7162"/>
<polygon fill="#191970" stroke="#191970" points="198.6889,-104.9713 207.1308,-98.5695 196.5392,-98.3096 198.6889,-104.9713"/>
</g>
<!-- Node226&#45;&gt;Node224 -->
<g id="edge4" class="edge">
<title>Node226&#45;&gt;Node224</title>
<path fill="none" stroke="#191970" d="M314.3243,-145.6025C335.8578,-150.6823 359.7544,-156.3196 379.7395,-161.0342"/>
<polygon fill="#191970" stroke="#191970" points="378.9673,-164.448 389.5038,-163.3376 380.5745,-157.635 378.9673,-164.448"/>
</g>
<!-- Node228 -->
<g id="node6" class="node">
<title>Node228</title>
<g id="a_node6"><a xlink:href="class_args_manager.html#adb5d644d273b3a259f792affcdca8283" target="_top" xlink:title="Return string argument or default value. ">
<polygon fill="#ffffff" stroke="#000000" points="367.4717,-75.5 367.4717,-93.5 480.7373,-93.5 480.7373,-75.5 367.4717,-75.5"/>
<text text-anchor="middle" x="424.1045" y="-81.5" font-family="Helvetica,sans-Serif" font-size="10.00" fill="#000000">ArgsManager::GetArg</text>
</a>
</g>
</g>
<!-- Node227&#45;&gt;Node228 -->
<g id="edge6" class="edge">
<title>Node227&#45;&gt;Node228</title>
<path fill="none" stroke="#191970" d="M321.5585,-84.5C333.3002,-84.5 345.518,-84.5 357.2553,-84.5"/>
<polygon fill="#191970" stroke="#191970" points="357.4222,-88.0001 367.4221,-84.5 357.4221,-81.0001 357.4222,-88.0001"/>
</g>
<!-- Node229 -->
<g id="node7" class="node">
<title>Node229</title>
<g id="a_node7"><a xlink:href="class_args_manager.html#a113a1b8c5471d2fff0108058be8b86af" target="_top" xlink:title="Return true if the argument was originally passed as a negated option, i.e. ">
<polygon fill="#ffffff" stroke="#000000" points="516.7373,-97.5 516.7373,-115.5 659.4707,-115.5 659.4707,-97.5 516.7373,-97.5"/>
<text text-anchor="middle" x="588.104" y="-103.5" font-family="Helvetica,sans-Serif" font-size="10.00" fill="#000000">ArgsManager::IsArgNegated</text>
</a>
</g>
</g>
<!-- Node228&#45;&gt;Node229 -->
<g id="edge7" class="edge">
<title>Node228&#45;&gt;Node229</title>
<path fill="none" stroke="#191970" d="M481.0033,-92.1328C490.6478,-93.4266 500.8051,-94.7891 510.8664,-96.1388"/>
<polygon fill="#191970" stroke="#191970" points="510.4966,-99.6205 520.8732,-97.4812 511.4274,-92.6826 510.4966,-99.6205"/>
</g>
<!-- Node231 -->
<g id="node9" class="node">
<title>Node231</title>
<g id="a_node9"><a xlink:href="class_args_manager_helper.html#aa4f8f77dc468b29cffe50513c78a87cd" target="_top" xlink:title="ArgsManagerHelper::\lGetArg">
<polygon fill="#ffffff" stroke="#000000" points="532.582,-49.5 532.582,-77.5 643.626,-77.5 643.626,-49.5 532.582,-49.5"/>
<text text-anchor="start" x="540.582" y="-65.5" font-family="Helvetica,sans-Serif" font-size="10.00" fill="#000000">ArgsManagerHelper::</text>
<text text-anchor="middle" x="588.104" y="-55.5" font-family="Helvetica,sans-Serif" font-size="10.00" fill="#000000">GetArg</text>
</a>
</g>
</g>
<!-- Node228&#45;&gt;Node231 -->
<g id="edge9" class="edge">
<title>Node228&#45;&gt;Node231</title>
<path fill="none" stroke="#191970" d="M481.0033,-77.2142C494.2732,-75.515 508.5138,-73.6915 522.1396,-71.9467"/>
<polygon fill="#191970" stroke="#191970" points="522.9388,-75.373 532.4132,-70.6312 522.0496,-68.4297 522.9388,-75.373"/>
</g>
<!-- Node230 -->
<g id="node8" class="node">
<title>Node230</title>
<g id="a_node8"><a xlink:href="class_args_manager_helper.html#a863ddbcfbd113cf88cf622a0a4e32c1d" target="_top" xlink:title="Convert regular argument into the network&#45;specific setting. ">
<polygon fill="#ffffff" stroke="#000000" points="695.4707,-94.5 695.4707,-122.5 806.5146,-122.5 806.5146,-94.5 695.4707,-94.5"/>
<text text-anchor="start" x="703.4707" y="-110.5" font-family="Helvetica,sans-Serif" font-size="10.00" fill="#000000">ArgsManagerHelper::</text>
<text text-anchor="middle" x="750.9927" y="-100.5" font-family="Helvetica,sans-Serif" font-size="10.00" fill="#000000">NetworkArg</text>
</a>
</g>
</g>
<!-- Node229&#45;&gt;Node230 -->
<g id="edge8" class="edge">
<title>Node229&#45;&gt;Node230</title>
<path fill="none" stroke="#191970" d="M659.5493,-107.3772C668.0574,-107.4817 676.7132,-107.588 685.1378,-107.6914"/>
<polygon fill="#191970" stroke="#191970" points="685.2316,-111.1927 695.2738,-107.8159 685.3176,-104.1933 685.2316,-111.1927"/>
</g>
<!-- Node231&#45;&gt;Node230 -->
<g id="edge11" class="edge">
<title>Node231&#45;&gt;Node230</title>
<path fill="none" stroke="#191970" d="M639.1961,-77.6148C655.4187,-82.0965 673.5162,-87.0962 690.3443,-91.7451"/>
<polygon fill="#191970" stroke="#191970" points="689.5109,-95.146 700.0819,-94.4353 691.375,-88.3987 689.5109,-95.146"/>
</g>
<!-- Node232 -->
<g id="node10" class="node">
<title>Node232</title>
<g id="a_node10"><a xlink:href="class_args_manager_helper.html#a1804a95992b4e10d04f0b92c53032b29" target="_top" xlink:title="Return true/false if an argument is set in a map, and also return the first (or last) of the possibly...">
<polygon fill="#ffffff" stroke="#000000" points="695.4707,-47.5 695.4707,-75.5 806.5146,-75.5 806.5146,-47.5 695.4707,-47.5"/>
<text text-anchor="start" x="703.4707" y="-63.5" font-family="Helvetica,sans-Serif" font-size="10.00" fill="#000000">ArgsManagerHelper::</text>
<text text-anchor="middle" x="750.9927" y="-53.5" font-family="Helvetica,sans-Serif" font-size="10.00" fill="#000000">GetArgHelper</text>
</a>
</g>
</g>
<!-- Node231&#45;&gt;Node232 -->
<g id="edge10" class="edge">
<title>Node231&#45;&gt;Node232</title>
<path fill="none" stroke="#191970" d="M643.7055,-62.8173C656.9986,-62.6541 671.3164,-62.4783 685.0266,-62.31"/>
<polygon fill="#191970" stroke="#191970" points="685.4092,-65.8056 695.3654,-62.183 685.3232,-58.8061 685.4092,-65.8056"/>
</g>
<!-- Node233 -->
<g id="node11" class="node">
<title>Node233</title>
<g id="a_node11"><a xlink:href="class_args_manager_helper.html#a43f3488403e4f0433ade323e48008359" target="_top" xlink:title="Determine whether to use config settings in the default section, See also comments around ArgsManager...">
<polygon fill="#ffffff" stroke="#000000" points="695.4707,-.5 695.4707,-28.5 806.5146,-28.5 806.5146,-.5 695.4707,-.5"/>
<text text-anchor="start" x="703.4707" y="-16.5" font-family="Helvetica,sans-Serif" font-size="10.00" fill="#000000">ArgsManagerHelper::</text>
<text text-anchor="middle" x="750.9927" y="-6.5" font-family="Helvetica,sans-Serif" font-size="10.00" fill="#000000">UseDefaultSection</text>
</a>
</g>
</g>
<!-- Node231&#45;&gt;Node233 -->
<g id="edge12" class="edge">
<title>Node231&#45;&gt;Node233</title>
<path fill="none" stroke="#191970" d="M634.7814,-49.4586C653.4395,-43.8459 675.0945,-37.3316 694.6194,-31.4581"/>
<polygon fill="#191970" stroke="#191970" points="695.7407,-34.7759 704.3085,-28.5435 693.7241,-28.0726 695.7407,-34.7759"/>
</g>
</g>
</svg>
