<?xml version="1.0" encoding="UTF-8" standalone="no"?>
<!DOCTYPE svg PUBLIC "-//W3C//DTD SVG 1.1//EN"
 "http://www.w3.org/Graphics/SVG/1.1/DTD/svg11.dtd">
<!-- Generated by graphviz version 2.40.1 (20161225.0304)
 -->
<!-- Title: TxIndex::DB::MigrateData Pages: 1 -->
<svg width="764pt" height="178pt"
 viewBox="0.00 0.00 763.51 178.00" xmlns="http://www.w3.org/2000/svg" xmlns:xlink="http://www.w3.org/1999/xlink">
<g id="graph0" class="graph" transform="scale(1 1) rotate(0) translate(4 174)">
<title>TxIndex::DB::MigrateData</title>
<polygon fill="#ffffff" stroke="transparent" points="-4,4 -4,-174 759.5088,-174 759.5088,4 -4,4"/>
<!-- Node2 -->
<g id="node1" class="node">
<title>Node2</title>
<polygon fill="#bfbfbf" stroke="#000000" points="0,-75.5 0,-93.5 131.0439,-93.5 131.0439,-75.5 0,-75.5"/>
<text text-anchor="middle" x="65.522" y="-81.5" font-family="Helvetica,sans-Serif" font-size="10.00" fill="#000000">TxIndex::DB::MigrateData</text>
</g>
<!-- Node3 -->
<g id="node2" class="node">
<title>Node3</title>
<g id="a_node2"><a xlink:href="class_c_block_tree_d_b.html#acd779c4653fd9a87fffe95d53ce7c6d3" target="_top" xlink:title="CBlockTreeDB::ReadFlag">
<polygon fill="#ffffff" stroke="#000000" points="167.0439,-151.5 167.0439,-169.5 297.7217,-169.5 297.7217,-151.5 167.0439,-151.5"/>
<text text-anchor="middle" x="232.3828" y="-157.5" font-family="Helvetica,sans-Serif" font-size="10.00" fill="#000000">CBlockTreeDB::ReadFlag</text>
</a>
</g>
</g>
<!-- Node2&#45;&gt;Node3 -->
<g id="edge1" class="edge">
<title>Node2&#45;&gt;Node3</title>
<path fill="none" stroke="#191970" d="M81.7549,-93.5911C101.5552,-104.4973 136.2054,-122.9979 167.0439,-136.5 176.2459,-140.5289 186.361,-144.4718 195.8259,-147.9598"/>
<polygon fill="#191970" stroke="#191970" points="194.7943,-151.3085 205.3886,-151.4145 197.1728,-144.7249 194.7943,-151.3085"/>
</g>
<!-- Node4 -->
<g id="node3" class="node">
<title>Node4</title>
<g id="a_node3"><a xlink:href="class_c_d_b_wrapper.html#a38084dd7b2870e6ac3082e7521d88a29" target="_top" xlink:title="CDBWrapper::Read">
<polygon fill="#ffffff" stroke="#000000" points="333.7217,-132.5 333.7217,-150.5 438.4668,-150.5 438.4668,-132.5 333.7217,-132.5"/>
<text text-anchor="middle" x="386.0942" y="-138.5" font-family="Helvetica,sans-Serif" font-size="10.00" fill="#000000">CDBWrapper::Read</text>
</a>
</g>
</g>
<!-- Node2&#45;&gt;Node4 -->
<g id="edge10" class="edge">
<title>Node2&#45;&gt;Node4</title>
<path fill="none" stroke="#191970" d="M116.3176,-93.5318C172.9779,-103.6064 264.6035,-119.8981 325.098,-130.6544"/>
<polygon fill="#191970" stroke="#191970" points="324.8133,-134.1586 335.2716,-132.4634 326.0388,-127.2667 324.8133,-134.1586"/>
</g>
<!-- Node5 -->
<g id="node4" class="node">
<title>Node5</title>
<g id="a_node4"><a xlink:href="class_c_d_b_wrapper.html#a6600aa8c2b30880dd7e032ea21f74aed" target="_top" xlink:title="CDBWrapper::Write">
<polygon fill="#ffffff" stroke="#000000" points="334.0977,-38.5 334.0977,-56.5 438.0908,-56.5 438.0908,-38.5 334.0977,-38.5"/>
<text text-anchor="middle" x="386.0942" y="-44.5" font-family="Helvetica,sans-Serif" font-size="10.00" fill="#000000">CDBWrapper::Write</text>
</a>
</g>
</g>
<!-- Node2&#45;&gt;Node5 -->
<g id="edge3" class="edge">
<title>Node2&#45;&gt;Node5</title>
<path fill="none" stroke="#191970" d="M131.061,-81.2286C177.7004,-78.3912 241.76,-73.4598 297.7217,-65.5 310.4426,-63.6906 324.0888,-61.1916 336.7599,-58.6311"/>
<polygon fill="#191970" stroke="#191970" points="337.5947,-62.0326 346.6766,-56.5764 336.1744,-55.1781 337.5947,-62.0326"/>
</g>
<!-- Node9 -->
<g id="node8" class="node">
<title>Node9</title>
<g id="a_node8"><a xlink:href="util_8h.html#a96c5fc7111f69f7dcaba992d95d13e03" target="_top" xlink:title="error">
<polygon fill="#ffffff" stroke="#000000" points="213.8262,-37.5 213.8262,-55.5 250.9395,-55.5 250.9395,-37.5 213.8262,-37.5"/>
<text text-anchor="middle" x="232.3828" y="-43.5" font-family="Helvetica,sans-Serif" font-size="10.00" fill="#000000">error</text>
</a>
</g>
</g>
<!-- Node2&#45;&gt;Node9 -->
<g id="edge7" class="edge">
<title>Node2&#45;&gt;Node9</title>
<path fill="none" stroke="#191970" d="M105.0657,-75.4945C135.3539,-68.5968 176.43,-59.2424 203.6379,-53.0462"/>
<polygon fill="#191970" stroke="#191970" points="204.709,-56.392 213.6821,-50.7588 203.1546,-49.5667 204.709,-56.392"/>
</g>
<!-- Node10 -->
<g id="node9" class="node">
<title>Node10</title>
<g id="a_node9"><a xlink:href="class_c_block_tree_d_b.html#af2f65b70ac5d8a198d4f29a7e909c08a" target="_top" xlink:title="CBlockTreeDB::WriteFlag">
<polygon fill="#ffffff" stroke="#000000" points="167.4199,-.5 167.4199,-18.5 297.3457,-18.5 297.3457,-.5 167.4199,-.5"/>
<text text-anchor="middle" x="232.3828" y="-6.5" font-family="Helvetica,sans-Serif" font-size="10.00" fill="#000000">CBlockTreeDB::WriteFlag</text>
</a>
</g>
</g>
<!-- Node2&#45;&gt;Node10 -->
<g id="edge8" class="edge">
<title>Node2&#45;&gt;Node10</title>
<path fill="none" stroke="#191970" d="M79.1059,-75.4538C98.0905,-63.1478 133.9557,-41.1091 167.0439,-27.5 172.4117,-25.2923 178.1367,-23.267 183.8822,-21.4359"/>
<polygon fill="#191970" stroke="#191970" points="184.943,-24.7718 193.511,-18.5396 182.9266,-18.0685 184.943,-24.7718"/>
</g>
<!-- Node3&#45;&gt;Node4 -->
<g id="edge2" class="edge">
<title>Node3&#45;&gt;Node4</title>
<path fill="none" stroke="#191970" d="M298.0162,-152.3872C306.4858,-151.3403 315.1413,-150.2704 323.5591,-149.2299"/>
<polygon fill="#191970" stroke="#191970" points="324.1857,-152.6791 333.6808,-147.9787 323.3269,-145.732 324.1857,-152.6791"/>
</g>
<!-- Node6 -->
<g id="node5" class="node">
<title>Node6</title>
<g id="a_node5"><a xlink:href="class_c_d_b_batch.html#a91b5d889a8d7e56c4f0bbf446e246111" target="_top" xlink:title="CDBBatch::Write">
<polygon fill="#ffffff" stroke="#000000" points="493.5513,-57.5 493.5513,-75.5 584.9468,-75.5 584.9468,-57.5 493.5513,-57.5"/>
<text text-anchor="middle" x="539.249" y="-63.5" font-family="Helvetica,sans-Serif" font-size="10.00" fill="#000000">CDBBatch::Write</text>
</a>
</g>
</g>
<!-- Node5&#45;&gt;Node6 -->
<g id="edge4" class="edge">
<title>Node5&#45;&gt;Node6</title>
<path fill="none" stroke="#191970" d="M438.3731,-53.9856C452.8771,-55.7849 468.6785,-57.7452 483.3791,-59.5689"/>
<polygon fill="#191970" stroke="#191970" points="482.9962,-63.0482 493.351,-60.806 483.858,-56.1014 482.9962,-63.0482"/>
</g>
<!-- Node8 -->
<g id="node7" class="node">
<title>Node8</title>
<g id="a_node7"><a xlink:href="class_c_d_b_wrapper.html#a3624c2e99b0d4e9a4edc679b304fa180" target="_top" xlink:title="CDBWrapper::WriteBatch">
<polygon fill="#ffffff" stroke="#000000" points="474.4668,-20.5 474.4668,-38.5 604.0313,-38.5 604.0313,-20.5 474.4668,-20.5"/>
<text text-anchor="middle" x="539.249" y="-26.5" font-family="Helvetica,sans-Serif" font-size="10.00" fill="#000000">CDBWrapper::WriteBatch</text>
</a>
</g>
</g>
<!-- Node5&#45;&gt;Node8 -->
<g id="edge6" class="edge">
<title>Node5&#45;&gt;Node8</title>
<path fill="none" stroke="#191970" d="M438.3731,-41.3558C446.6568,-40.3822 455.3638,-39.3589 464.0471,-38.3383"/>
<polygon fill="#191970" stroke="#191970" points="464.68,-41.7881 474.2031,-37.1447 463.8628,-34.836 464.68,-41.7881"/>
</g>
<!-- Node7 -->
<g id="node6" class="node">
<title>Node7</title>
<g id="a_node6"><a xlink:href="class_c_data_stream.html#a5542e71bd7af2ab7cd7be0f381d39cb5" target="_top" xlink:title="CDataStream::reserve">
<polygon fill="#ffffff" stroke="#000000" points="640.0313,-57.5 640.0313,-75.5 755.5088,-75.5 755.5088,-57.5 640.0313,-57.5"/>
<text text-anchor="middle" x="697.77" y="-63.5" font-family="Helvetica,sans-Serif" font-size="10.00" fill="#000000">CDataStream::reserve</text>
</a>
</g>
</g>
<!-- Node6&#45;&gt;Node7 -->
<g id="edge5" class="edge">
<title>Node6&#45;&gt;Node7</title>
<path fill="none" stroke="#191970" d="M585.0999,-66.5C598.993,-66.5 614.5625,-66.5 629.5899,-66.5"/>
<polygon fill="#191970" stroke="#191970" points="629.8797,-70.0001 639.8797,-66.5 629.8797,-63.0001 629.8797,-70.0001"/>
</g>
<!-- Node10&#45;&gt;Node5 -->
<g id="edge9" class="edge">
<title>Node10&#45;&gt;Node5</title>
<path fill="none" stroke="#191970" d="M268.8103,-18.5055C290.0772,-23.763 317.1177,-30.4479 339.8738,-36.0735"/>
<polygon fill="#191970" stroke="#191970" points="339.1145,-39.4911 349.6622,-38.4934 340.7945,-32.6957 339.1145,-39.4911"/>
</g>
</g>
</svg>
