<?xml version="1.0" encoding="UTF-8" standalone="no"?>
<!DOCTYPE svg PUBLIC "-//W3C//DTD SVG 1.1//EN"
 "http://www.w3.org/Graphics/SVG/1.1/DTD/svg11.dtd">
<!-- Generated by graphviz version 2.40.1 (20161225.0304)
 -->
<!-- Title: CScript::GetSigOpCount Pages: 1 -->
<svg width="294pt" height="64pt"
 viewBox="0.00 0.00 293.87 64.00" xmlns="http://www.w3.org/2000/svg" xmlns:xlink="http://www.w3.org/1999/xlink">
<g id="graph0" class="graph" transform="scale(1 1) rotate(0) translate(4 60)">
<title>CScript::GetSigOpCount</title>
<polygon fill="#ffffff" stroke="transparent" points="-4,4 -4,-60 289.8711,-60 289.8711,4 -4,4"/>
<!-- Node230 -->
<g id="node1" class="node">
<title>Node230</title>
<polygon fill="#bfbfbf" stroke="#000000" points="0,-18.5 0,-36.5 124.9355,-36.5 124.9355,-18.5 0,-18.5"/>
<text text-anchor="middle" x="62.4678" y="-24.5" font-family="Helvetica,sans-Serif" font-size="10.00" fill="#000000">CScript::GetSigOpCount</text>
</g>
<!-- Node231 -->
<g id="node2" class="node">
<title>Node231</title>
<g id="a_node2"><a xlink:href="tx__verify_8h.html#a312fadbeec896d49437733e986f3df04" target="_top" xlink:title="Count ECDSA signature operations in pay&#45;to&#45;script&#45;hash inputs. ">
<polygon fill="#ffffff" stroke="#000000" points="167.0439,-37.5 167.0439,-55.5 279.7627,-55.5 279.7627,-37.5 167.0439,-37.5"/>
<text text-anchor="middle" x="223.4033" y="-43.5" font-family="Helvetica,sans-Serif" font-size="10.00" fill="#000000">GetP2SHSigOpCount</text>
</a>
</g>
</g>
<!-- Node230&#45;&gt;Node231 -->
<g id="edge1" class="edge">
<title>Node230&#45;&gt;Node231</title>
<path fill="none" stroke="#191970" d="M135.2581,-36.0936C145.8837,-37.3481 156.6894,-38.6238 166.9251,-39.8322"/>
<polygon fill="#191970" stroke="#191970" points="135.4919,-32.597 125.1505,-34.9003 134.6711,-39.5487 135.4919,-32.597"/>
</g>
<!-- Node232 -->
<g id="node3" class="node">
<title>Node232</title>
<g id="a_node3"><a xlink:href="class_c_script.html#ab2fc38465955bb6688d204036633ee85" target="_top" xlink:title="Accurately count sigOps, including sigOps in pay&#45;to&#45;script&#45;hash transactions: ">
<polygon fill="#ffffff" stroke="#000000" points="160.9355,-.5 160.9355,-18.5 285.8711,-18.5 285.8711,-.5 160.9355,-.5"/>
<text text-anchor="middle" x="223.4033" y="-6.5" font-family="Helvetica,sans-Serif" font-size="10.00" fill="#000000">CScript::GetSigOpCount</text>
</a>
</g>
</g>
<!-- Node230&#45;&gt;Node232 -->
<g id="edge2" class="edge">
<title>Node230&#45;&gt;Node232</title>
<path fill="none" stroke="#191970" d="M135.157,-19.37C143.7481,-18.4091 152.4585,-17.4349 160.8917,-16.4917"/>
<polygon fill="#191970" stroke="#191970" points="134.6995,-15.8993 125.1505,-20.4892 135.4776,-22.8559 134.6995,-15.8993"/>
</g>
</g>
</svg>
