<?xml version="1.0" encoding="UTF-8" standalone="no"?>
<!DOCTYPE svg PUBLIC "-//W3C//DTD SVG 1.1//EN"
 "http://www.w3.org/Graphics/SVG/1.1/DTD/svg11.dtd">
<!-- Generated by graphviz version 2.40.1 (20161225.0304)
 -->
<!-- Title: WalletBatch::WriteBestBlock Pages: 1 -->
<svg width="478pt" height="74pt"
 viewBox="0.00 0.00 477.59 74.00" xmlns="http://www.w3.org/2000/svg" xmlns:xlink="http://www.w3.org/1999/xlink">
<g id="graph0" class="graph" transform="scale(1 1) rotate(0) translate(4 70)">
<title>WalletBatch::WriteBestBlock</title>
<polygon fill="#ffffff" stroke="transparent" points="-4,4 -4,-70 473.5947,-70 473.5947,4 -4,4"/>
<!-- Node200 -->
<g id="node1" class="node">
<title>Node200</title>
<polygon fill="#bfbfbf" stroke="#000000" points="0,-26.5 0,-44.5 142.1621,-44.5 142.1621,-26.5 0,-26.5"/>
<text text-anchor="middle" x="71.0811" y="-32.5" font-family="Helvetica,sans-Serif" font-size="10.00" fill="#000000">WalletBatch::WriteBestBlock</text>
</g>
<!-- Node201 -->
<g id="node2" class="node">
<title>Node201</title>
<g id="a_node2"><a xlink:href="class_wallet_batch.html#a552eb421cff45a9ed94b1ec77e5c76c3" target="_top" xlink:title="WalletBatch::WriteIC">
<polygon fill="#ffffff" stroke="#000000" points="178.1621,-26.5 178.1621,-44.5 285.8613,-44.5 285.8613,-26.5 178.1621,-26.5"/>
<text text-anchor="middle" x="232.0117" y="-32.5" font-family="Helvetica,sans-Serif" font-size="10.00" fill="#000000">WalletBatch::WriteIC</text>
</a>
</g>
</g>
<!-- Node200&#45;&gt;Node201 -->
<g id="edge1" class="edge">
<title>Node200&#45;&gt;Node201</title>
<path fill="none" stroke="#191970" d="M142.6048,-35.5C151.0794,-35.5 159.6881,-35.5 168.0484,-35.5"/>
<polygon fill="#191970" stroke="#191970" points="168.0972,-39.0001 178.0972,-35.5 168.0972,-32.0001 168.0972,-39.0001"/>
</g>
<!-- Node202 -->
<g id="node3" class="node">
<title>Node202</title>
<g id="a_node3"><a xlink:href="class_berkeley_batch.html#ac31c83ec96f7bd149f856d28e97dba23" target="_top" xlink:title="BerkeleyBatch::Write">
<polygon fill="#ffffff" stroke="#000000" points="341.1338,-47.5 341.1338,-65.5 450.3223,-65.5 450.3223,-47.5 341.1338,-47.5"/>
<text text-anchor="middle" x="395.728" y="-53.5" font-family="Helvetica,sans-Serif" font-size="10.00" fill="#000000">BerkeleyBatch::Write</text>
</a>
</g>
</g>
<!-- Node201&#45;&gt;Node202 -->
<g id="edge2" class="edge">
<title>Node201&#45;&gt;Node202</title>
<path fill="none" stroke="#191970" d="M286.0723,-42.4344C300.3749,-44.269 315.9622,-46.2684 330.777,-48.1687"/>
<polygon fill="#191970" stroke="#191970" points="330.5207,-51.6644 340.8847,-49.4652 331.4113,-44.7213 330.5207,-51.6644"/>
</g>
<!-- Node203 -->
<g id="node4" class="node">
<title>Node203</title>
<g id="a_node4"><a xlink:href="class_berkeley_database.html#a313cd767c211da5738bdb5578cd59af7" target="_top" xlink:title="BerkeleyDatabase::Increment\lUpdateCounter">
<polygon fill="#ffffff" stroke="#000000" points="321.8613,-.5 321.8613,-28.5 469.5947,-28.5 469.5947,-.5 321.8613,-.5"/>
<text text-anchor="start" x="329.8613" y="-16.5" font-family="Helvetica,sans-Serif" font-size="10.00" fill="#000000">BerkeleyDatabase::Increment</text>
<text text-anchor="middle" x="395.728" y="-6.5" font-family="Helvetica,sans-Serif" font-size="10.00" fill="#000000">UpdateCounter</text>
</a>
</g>
</g>
<!-- Node201&#45;&gt;Node203 -->
<g id="edge3" class="edge">
<title>Node201&#45;&gt;Node203</title>
<path fill="none" stroke="#191970" d="M286.0723,-28.5656C294.3063,-27.5094 302.9662,-26.3986 311.6593,-25.2836"/>
<polygon fill="#191970" stroke="#191970" points="312.3826,-28.7195 321.856,-23.9756 311.4919,-21.7764 312.3826,-28.7195"/>
</g>
</g>
</svg>
