<?xml version="1.0" encoding="UTF-8" standalone="no"?>
<!DOCTYPE svg PUBLIC "-//W3C//DTD SVG 1.1//EN"
 "http://www.w3.org/Graphics/SVG/1.1/DTD/svg11.dtd">
<!-- Generated by graphviz version 2.40.1 (20161225.0304)
 -->
<!-- Title: TransactionTablePriv::updateWallet Pages: 1 -->
<svg width="657pt" height="64pt"
 viewBox="0.00 0.00 657.32 64.00" xmlns="http://www.w3.org/2000/svg" xmlns:xlink="http://www.w3.org/1999/xlink">
<g id="graph0" class="graph" transform="scale(1 1) rotate(0) translate(4 60)">
<title>TransactionTablePriv::updateWallet</title>
<polygon fill="#ffffff" stroke="transparent" points="-4,4 -4,-60 653.3193,-60 653.3193,4 -4,4"/>
<!-- Node117 -->
<g id="node1" class="node">
<title>Node117</title>
<polygon fill="#bfbfbf" stroke="#000000" points="0,-13.5 0,-41.5 109.0078,-41.5 109.0078,-13.5 0,-13.5"/>
<text text-anchor="start" x="8" y="-29.5" font-family="Helvetica,sans-Serif" font-size="10.00" fill="#000000">TransactionTablePriv</text>
<text text-anchor="middle" x="54.5039" y="-19.5" font-family="Helvetica,sans-Serif" font-size="10.00" fill="#000000">::updateWallet</text>
</g>
<!-- Node118 -->
<g id="node2" class="node">
<title>Node118</title>
<g id="a_node2"><a xlink:href="class_transaction_table_model.html#a8de43b3c7ba0612304906eb5a2f51a06" target="_top" xlink:title="TransactionTableModel\l::updateTransaction">
<polygon fill="#ffffff" stroke="#000000" points="145.0078,-13.5 145.0078,-41.5 264.0303,-41.5 264.0303,-13.5 145.0078,-13.5"/>
<text text-anchor="start" x="153.0078" y="-29.5" font-family="Helvetica,sans-Serif" font-size="10.00" fill="#000000">TransactionTableModel</text>
<text text-anchor="middle" x="204.519" y="-19.5" font-family="Helvetica,sans-Serif" font-size="10.00" fill="#000000">::updateTransaction</text>
</a>
</g>
</g>
<!-- Node117&#45;&gt;Node118 -->
<g id="edge1" class="edge">
<title>Node117&#45;&gt;Node118</title>
<path fill="none" stroke="#191970" d="M119.3336,-27.5C127.8306,-27.5 136.5051,-27.5 144.9101,-27.5"/>
<polygon fill="#191970" stroke="#191970" points="119.0872,-24.0001 109.0872,-27.5 119.0871,-31.0001 119.0872,-24.0001"/>
</g>
<!-- Node119 -->
<g id="node3" class="node">
<title>Node119</title>
<g id="a_node3"><a xlink:href="class_transaction_view.html#a8dc3e9fc910cec4f6764d84c21941180" target="_top" xlink:title="TransactionView::abandonTx">
<polygon fill="#ffffff" stroke="#000000" points="300.0303,-37.5 300.0303,-55.5 445.0049,-55.5 445.0049,-37.5 300.0303,-37.5"/>
<text text-anchor="middle" x="372.5176" y="-43.5" font-family="Helvetica,sans-Serif" font-size="10.00" fill="#000000">TransactionView::abandonTx</text>
</a>
</g>
</g>
<!-- Node118&#45;&gt;Node119 -->
<g id="edge2" class="edge">
<title>Node118&#45;&gt;Node119</title>
<path fill="none" stroke="#191970" d="M274.3433,-35.3969C282.7393,-36.3464 291.3298,-37.318 299.7661,-38.2721"/>
<polygon fill="#191970" stroke="#191970" points="274.5521,-31.8982 264.2221,-34.2522 273.7654,-38.8539 274.5521,-31.8982"/>
</g>
<!-- Node121 -->
<g id="node5" class="node">
<title>Node121</title>
<g id="a_node5"><a xlink:href="class_transaction_view.html#a6cf5d062668e5e29c6203b6e0dc3836b" target="_top" xlink:title="TransactionView::bumpFee">
<polygon fill="#ffffff" stroke="#000000" points="303.9268,-.5 303.9268,-18.5 441.1084,-18.5 441.1084,-.5 303.9268,-.5"/>
<text text-anchor="middle" x="372.5176" y="-6.5" font-family="Helvetica,sans-Serif" font-size="10.00" fill="#000000">TransactionView::bumpFee</text>
</a>
</g>
</g>
<!-- Node118&#45;&gt;Node121 -->
<g id="edge4" class="edge">
<title>Node118&#45;&gt;Node121</title>
<path fill="none" stroke="#191970" d="M274.2843,-20.0251C284.0541,-18.9783 294.0884,-17.9032 303.8378,-16.8586"/>
<polygon fill="#191970" stroke="#191970" points="273.7923,-16.5577 264.2221,-21.1032 274.5381,-23.5178 273.7923,-16.5577"/>
</g>
<!-- Node120 -->
<g id="node4" class="node">
<title>Node120</title>
<g id="a_node4"><a xlink:href="class_transaction_view.html#a6bad80e62c684ad1e77250510c9323aa" target="_top" xlink:title="TransactionView::TransactionView">
<polygon fill="#ffffff" stroke="#000000" points="481.0049,-18.5 481.0049,-36.5 649.3193,-36.5 649.3193,-18.5 481.0049,-18.5"/>
<text text-anchor="middle" x="565.1621" y="-24.5" font-family="Helvetica,sans-Serif" font-size="10.00" fill="#000000">TransactionView::TransactionView</text>
</a>
</g>
</g>
<!-- Node119&#45;&gt;Node120 -->
<g id="edge3" class="edge">
<title>Node119&#45;&gt;Node120</title>
<path fill="none" stroke="#191970" d="M455.2611,-38.3392C463.685,-37.5084 472.2503,-36.6636 480.6922,-35.831"/>
<polygon fill="#191970" stroke="#191970" points="454.6819,-34.8793 445.0737,-39.344 455.369,-41.8455 454.6819,-34.8793"/>
</g>
<!-- Node121&#45;&gt;Node120 -->
<g id="edge5" class="edge">
<title>Node121&#45;&gt;Node120</title>
<path fill="none" stroke="#191970" d="M451.3214,-16.8631C461.0884,-17.7757 471.1041,-18.7116 480.9484,-19.6314"/>
<polygon fill="#191970" stroke="#191970" points="451.5331,-13.3678 441.2508,-15.9222 450.8818,-20.3374 451.5331,-13.3678"/>
</g>
</g>
</svg>
