<?xml version="1.0" encoding="UTF-8" standalone="no"?>
<!DOCTYPE svg PUBLIC "-//W3C//DTD SVG 1.1//EN"
 "http://www.w3.org/Graphics/SVG/1.1/DTD/svg11.dtd">
<!-- Generated by graphviz version 2.40.1 (20161225.0304)
 -->
<!-- Title: RPCConsole::showEvent Pages: 1 -->
<svg width="306pt" height="84pt"
 viewBox="0.00 0.00 306.12 84.00" xmlns="http://www.w3.org/2000/svg" xmlns:xlink="http://www.w3.org/1999/xlink">
<g id="graph0" class="graph" transform="scale(1 1) rotate(0) translate(4 80)">
<title>RPCConsole::showEvent</title>
<polygon fill="#ffffff" stroke="transparent" points="-4,4 -4,-80 302.1172,-80 302.1172,4 -4,4"/>
<!-- Node423 -->
<g id="node1" class="node">
<title>Node423</title>
<polygon fill="#bfbfbf" stroke="#000000" points="0,-28.5 0,-46.5 128.2754,-46.5 128.2754,-28.5 0,-28.5"/>
<text text-anchor="middle" x="64.1377" y="-34.5" font-family="Helvetica,sans-Serif" font-size="10.00" fill="#000000">RPCConsole::showEvent</text>
</g>
<!-- Node424 -->
<g id="node2" class="node">
<title>Node424</title>
<g id="a_node2"><a xlink:href="class_client_model.html#a643fc112ce94f50ac7187ecdf3c75360" target="_top" xlink:title="ClientModel::getPeerTable\lModel">
<polygon fill="#ffffff" stroke="#000000" points="164.5513,-47.5 164.5513,-75.5 297.8413,-75.5 297.8413,-47.5 164.5513,-47.5"/>
<text text-anchor="start" x="172.5513" y="-63.5" font-family="Helvetica,sans-Serif" font-size="10.00" fill="#000000">ClientModel::getPeerTable</text>
<text text-anchor="middle" x="231.1963" y="-53.5" font-family="Helvetica,sans-Serif" font-size="10.00" fill="#000000">Model</text>
</a>
</g>
</g>
<!-- Node423&#45;&gt;Node424 -->
<g id="edge1" class="edge">
<title>Node423&#45;&gt;Node424</title>
<path fill="none" stroke="#191970" d="M126.8194,-46.505C135.8624,-47.8041 145.2536,-49.1533 154.5311,-50.4861"/>
<polygon fill="#191970" stroke="#191970" points="154.1356,-53.9652 164.5317,-51.9228 155.1311,-47.0363 154.1356,-53.9652"/>
</g>
<!-- Node425 -->
<g id="node3" class="node">
<title>Node425</title>
<g id="a_node3"><a xlink:href="class_peer_table_model.html#aba0f9c1535e2d718950edea1c166cc9d" target="_top" xlink:title="PeerTableModel::startAuto\lRefresh">
<polygon fill="#ffffff" stroke="#000000" points="164.2754,-.5 164.2754,-28.5 298.1172,-28.5 298.1172,-.5 164.2754,-.5"/>
<text text-anchor="start" x="172.2754" y="-16.5" font-family="Helvetica,sans-Serif" font-size="10.00" fill="#000000">PeerTableModel::startAuto</text>
<text text-anchor="middle" x="231.1963" y="-6.5" font-family="Helvetica,sans-Serif" font-size="10.00" fill="#000000">Refresh</text>
</a>
</g>
</g>
<!-- Node423&#45;&gt;Node425 -->
<g id="edge2" class="edge">
<title>Node423&#45;&gt;Node425</title>
<path fill="none" stroke="#191970" d="M128.7269,-28.6076C136.9517,-27.4752 145.4351,-26.3073 153.8349,-25.1508"/>
<polygon fill="#191970" stroke="#191970" points="154.5871,-28.5804 164.0163,-23.7491 153.6323,-21.6458 154.5871,-28.5804"/>
</g>
</g>
</svg>
