<?xml version="1.0" encoding="UTF-8" standalone="no"?>
<!DOCTYPE svg PUBLIC "-//W3C//DTD SVG 1.1//EN"
 "http://www.w3.org/Graphics/SVG/1.1/DTD/svg11.dtd">
<!-- Generated by graphviz version 2.40.1 (20161225.0304)
 -->
<!-- Title: AddressBookPage::selectionChanged Pages: 1 -->
<svg width="672pt" height="188pt"
 viewBox="0.00 0.00 671.76 188.00" xmlns="http://www.w3.org/2000/svg" xmlns:xlink="http://www.w3.org/1999/xlink">
<g id="graph0" class="graph" transform="scale(1 1) rotate(0) translate(4 184)">
<title>AddressBookPage::selectionChanged</title>
<polygon fill="#ffffff" stroke="transparent" points="-4,4 -4,-184 667.7578,-184 667.7578,4 -4,4"/>
<!-- Node55 -->
<g id="node1" class="node">
<title>Node55</title>
<polygon fill="#bfbfbf" stroke="#000000" points="0,-70.5 0,-98.5 143.8564,-98.5 143.8564,-70.5 0,-70.5"/>
<text text-anchor="start" x="8" y="-86.5" font-family="Helvetica,sans-Serif" font-size="10.00" fill="#000000">AddressBookPage::selection</text>
<text text-anchor="middle" x="71.9282" y="-76.5" font-family="Helvetica,sans-Serif" font-size="10.00" fill="#000000">Changed</text>
</g>
<!-- Node56 -->
<g id="node2" class="node">
<title>Node56</title>
<g id="a_node2"><a xlink:href="class_address_book_page.html#a1282cda9cb0300ee04c472ec4c9949f3" target="_top" xlink:title="AddressBookPage::setModel">
<polygon fill="#ffffff" stroke="#000000" points="179.8564,-75.5 179.8564,-93.5 324.8213,-93.5 324.8213,-75.5 179.8564,-75.5"/>
<text text-anchor="middle" x="252.3389" y="-81.5" font-family="Helvetica,sans-Serif" font-size="10.00" fill="#000000">AddressBookPage::setModel</text>
</a>
</g>
</g>
<!-- Node55&#45;&gt;Node56 -->
<g id="edge1" class="edge">
<title>Node55&#45;&gt;Node56</title>
<path fill="none" stroke="#191970" d="M154.0296,-84.5C162.6204,-84.5 171.31,-84.5 179.7834,-84.5"/>
<polygon fill="#191970" stroke="#191970" points="154.0091,-81.0001 144.0091,-84.5 154.009,-88.0001 154.0091,-81.0001"/>
</g>
<!-- Node57 -->
<g id="node3" class="node">
<title>Node57</title>
<g id="a_node3"><a xlink:href="class_send_coins_entry.html#ac661741d286d9f3db32f78bd22125cb0" target="_top" xlink:title="SendCoinsEntry::on\l_addressBookButton_clicked">
<polygon fill="#ffffff" stroke="#000000" points="360.8213,-151.5 360.8213,-179.5 505.791,-179.5 505.791,-151.5 360.8213,-151.5"/>
<text text-anchor="start" x="368.8213" y="-167.5" font-family="Helvetica,sans-Serif" font-size="10.00" fill="#000000">SendCoinsEntry::on</text>
<text text-anchor="middle" x="433.3062" y="-157.5" font-family="Helvetica,sans-Serif" font-size="10.00" fill="#000000">_addressBookButton_clicked</text>
</a>
</g>
</g>
<!-- Node56&#45;&gt;Node57 -->
<g id="edge2" class="edge">
<title>Node56&#45;&gt;Node57</title>
<path fill="none" stroke="#191970" d="M276.1377,-98.868C297.7108,-111.4904 330.6524,-129.7761 360.8213,-142.5 368.3635,-145.681 376.504,-148.6702 384.5107,-151.374"/>
<polygon fill="#191970" stroke="#191970" points="277.7422,-95.7507 267.3531,-93.6728 274.1789,-101.7759 277.7422,-95.7507"/>
</g>
<!-- Node58 -->
<g id="node4" class="node">
<title>Node58</title>
<g id="a_node4"><a xlink:href="class_sign_verify_message_dialog.html#a792a3bd647958c8ae74286c5ab3cf205" target="_top" xlink:title="SignVerifyMessageDialog\l::on_addressBookButton\l_SM_clicked">
<polygon fill="#ffffff" stroke="#000000" points="368.3286,-94.5 368.3286,-132.5 498.2837,-132.5 498.2837,-94.5 368.3286,-94.5"/>
<text text-anchor="start" x="376.3286" y="-120.5" font-family="Helvetica,sans-Serif" font-size="10.00" fill="#000000">SignVerifyMessageDialog</text>
<text text-anchor="start" x="376.3286" y="-110.5" font-family="Helvetica,sans-Serif" font-size="10.00" fill="#000000">::on_addressBookButton</text>
<text text-anchor="middle" x="433.3062" y="-100.5" font-family="Helvetica,sans-Serif" font-size="10.00" fill="#000000">_SM_clicked</text>
</a>
</g>
</g>
<!-- Node56&#45;&gt;Node58 -->
<g id="edge3" class="edge">
<title>Node56&#45;&gt;Node58</title>
<path fill="none" stroke="#191970" d="M318.5291,-95.107C334.732,-97.7035 352.0573,-100.4799 368.2085,-103.0681"/>
<polygon fill="#191970" stroke="#191970" points="319.0339,-91.6433 308.6061,-93.5168 317.9262,-98.5551 319.0339,-91.6433"/>
</g>
<!-- Node59 -->
<g id="node5" class="node">
<title>Node59</title>
<g id="a_node5"><a xlink:href="class_sign_verify_message_dialog.html#a90ceb00084c68da5e9c481ba0841d976" target="_top" xlink:title="SignVerifyMessageDialog\l::on_addressBookButton\l_VM_clicked">
<polygon fill="#ffffff" stroke="#000000" points="368.3286,-37.5 368.3286,-75.5 498.2837,-75.5 498.2837,-37.5 368.3286,-37.5"/>
<text text-anchor="start" x="376.3286" y="-63.5" font-family="Helvetica,sans-Serif" font-size="10.00" fill="#000000">SignVerifyMessageDialog</text>
<text text-anchor="start" x="376.3286" y="-53.5" font-family="Helvetica,sans-Serif" font-size="10.00" fill="#000000">::on_addressBookButton</text>
<text text-anchor="middle" x="433.3062" y="-43.5" font-family="Helvetica,sans-Serif" font-size="10.00" fill="#000000">_VM_clicked</text>
</a>
</g>
</g>
<!-- Node56&#45;&gt;Node59 -->
<g id="edge4" class="edge">
<title>Node56&#45;&gt;Node59</title>
<path fill="none" stroke="#191970" d="M320.6853,-73.9252C336.2783,-71.5125 352.8058,-68.9553 368.2564,-66.5648"/>
<polygon fill="#191970" stroke="#191970" points="319.9414,-70.4985 310.5942,-75.4865 321.0118,-77.4162 319.9414,-70.4985"/>
</g>
<!-- Node60 -->
<g id="node6" class="node">
<title>Node60</title>
<g id="a_node6"><a xlink:href="class_wallet_view.html#a0a37ff693a4f9c1e5ddc23f9cd3913be" target="_top" xlink:title="Set the wallet model. ">
<polygon fill="#ffffff" stroke="#000000" points="364.0732,-.5 364.0732,-18.5 502.5391,-18.5 502.5391,-.5 364.0732,-.5"/>
<text text-anchor="middle" x="433.3062" y="-6.5" font-family="Helvetica,sans-Serif" font-size="10.00" fill="#000000">WalletView::setWalletModel</text>
</a>
</g>
</g>
<!-- Node56&#45;&gt;Node60 -->
<g id="edge5" class="edge">
<title>Node56&#45;&gt;Node60</title>
<path fill="none" stroke="#191970" d="M276.0564,-70.3174C297.5757,-57.925 330.484,-40.1428 360.8213,-28.5 370.9021,-24.6312 382.0656,-21.2738 392.5501,-18.5029"/>
<polygon fill="#191970" stroke="#191970" points="274.1706,-67.3654 267.2965,-75.4275 277.6978,-73.4118 274.1706,-67.3654"/>
</g>
<!-- Node61 -->
<g id="node7" class="node">
<title>Node61</title>
<g id="a_node7"><a xlink:href="class_wallet_frame.html#a06cb28194836995e50cc46716b2227ff" target="_top" xlink:title="WalletFrame::addWallet">
<polygon fill="#ffffff" stroke="#000000" points="541.791,-.5 541.791,-18.5 663.7578,-18.5 663.7578,-.5 541.791,-.5"/>
<text text-anchor="middle" x="602.7744" y="-6.5" font-family="Helvetica,sans-Serif" font-size="10.00" fill="#000000">WalletFrame::addWallet</text>
</a>
</g>
</g>
<!-- Node60&#45;&gt;Node61 -->
<g id="edge6" class="edge">
<title>Node60&#45;&gt;Node61</title>
<path fill="none" stroke="#191970" d="M512.769,-9.5C522.4603,-9.5 532.244,-9.5 541.6103,-9.5"/>
<polygon fill="#191970" stroke="#191970" points="512.7244,-6.0001 502.7244,-9.5 512.7243,-13.0001 512.7244,-6.0001"/>
</g>
</g>
</svg>
