<?xml version="1.0" encoding="UTF-8" standalone="no"?>
<!DOCTYPE svg PUBLIC "-//W3C//DTD SVG 1.1//EN"
 "http://www.w3.org/Graphics/SVG/1.1/DTD/svg11.dtd">
<!-- Generated by graphviz version 2.40.1 (20161225.0304)
 -->
<!-- Title: CChain::FindFork Pages: 1 -->
<svg width="272pt" height="101pt"
 viewBox="0.00 0.00 271.63 101.00" xmlns="http://www.w3.org/2000/svg" xmlns:xlink="http://www.w3.org/1999/xlink">
<g id="graph0" class="graph" transform="scale(1 1) rotate(0) translate(4 97)">
<title>CChain::FindFork</title>
<polygon fill="#ffffff" stroke="transparent" points="-4,4 -4,-97 267.6348,-97 267.6348,4 -4,4"/>
<!-- Node58 -->
<g id="node1" class="node">
<title>Node58</title>
<polygon fill="#bfbfbf" stroke="#000000" points="0,-37.5 0,-55.5 94.3594,-55.5 94.3594,-37.5 0,-37.5"/>
<text text-anchor="middle" x="47.1797" y="-43.5" font-family="Helvetica,sans-Serif" font-size="10.00" fill="#000000">CChain::FindFork</text>
</g>
<!-- Node59 -->
<g id="node2" class="node">
<title>Node59</title>
<g id="a_node2"><a xlink:href="class_c_chain.html#ad4758bc8872ce065a9579f77c3171d40" target="_top" xlink:title="Return the maximal height in the chain. ">
<polygon fill="#ffffff" stroke="#000000" points="155.0908,-74.5 155.0908,-92.5 238.9033,-92.5 238.9033,-74.5 155.0908,-74.5"/>
<text text-anchor="middle" x="196.9971" y="-80.5" font-family="Helvetica,sans-Serif" font-size="10.00" fill="#000000">CChain::Height</text>
</a>
</g>
</g>
<!-- Node58&#45;&gt;Node59 -->
<g id="edge1" class="edge">
<title>Node58&#45;&gt;Node59</title>
<path fill="none" stroke="#191970" d="M83.8291,-55.5512C103.946,-60.5194 129.095,-66.7304 150.573,-72.0348"/>
<polygon fill="#191970" stroke="#191970" points="149.9191,-75.4784 160.4666,-74.4782 151.5975,-68.6826 149.9191,-75.4784"/>
</g>
<!-- Node60 -->
<g id="node3" class="node">
<title>Node60</title>
<g id="a_node3"><a xlink:href="class_c_block_index.html#ae1f702384690c6b8302e026a84172ef3" target="_top" xlink:title="Efficiently find an ancestor of this block. ">
<polygon fill="#ffffff" stroke="#000000" points="130.3594,-37.5 130.3594,-55.5 263.6348,-55.5 263.6348,-37.5 130.3594,-37.5"/>
<text text-anchor="middle" x="196.9971" y="-43.5" font-family="Helvetica,sans-Serif" font-size="10.00" fill="#000000">CBlockIndex::GetAncestor</text>
</a>
</g>
</g>
<!-- Node58&#45;&gt;Node60 -->
<g id="edge2" class="edge">
<title>Node58&#45;&gt;Node60</title>
<path fill="none" stroke="#191970" d="M94.5828,-46.5C102.7161,-46.5 111.3518,-46.5 120.0243,-46.5"/>
<polygon fill="#191970" stroke="#191970" points="120.1943,-50.0001 130.1942,-46.5 120.1942,-43.0001 120.1943,-50.0001"/>
</g>
<!-- Node61 -->
<g id="node4" class="node">
<title>Node61</title>
<g id="a_node4"><a xlink:href="class_c_chain.html#af1786dc229c215dea7f727c11df2c8dc" target="_top" xlink:title="Efficiently check whether a block is present in this chain. ">
<polygon fill="#ffffff" stroke="#000000" points="149.8101,-.5 149.8101,-18.5 244.1841,-18.5 244.1841,-.5 149.8101,-.5"/>
<text text-anchor="middle" x="196.9971" y="-6.5" font-family="Helvetica,sans-Serif" font-size="10.00" fill="#000000">CChain::Contains</text>
</a>
</g>
</g>
<!-- Node58&#45;&gt;Node61 -->
<g id="edge3" class="edge">
<title>Node58&#45;&gt;Node61</title>
<path fill="none" stroke="#191970" d="M83.8291,-37.4488C103.946,-32.4806 129.095,-26.2696 150.573,-20.9652"/>
<polygon fill="#191970" stroke="#191970" points="151.5975,-24.3174 160.4666,-18.5218 149.9191,-17.5216 151.5975,-24.3174"/>
</g>
</g>
</svg>
