<?xml version="1.0" encoding="UTF-8" standalone="no"?>
<!DOCTYPE svg PUBLIC "-//W3C//DTD SVG 1.1//EN"
 "http://www.w3.org/Graphics/SVG/1.1/DTD/svg11.dtd">
<!-- Generated by graphviz version 2.40.1 (20161225.0304)
 -->
<!-- Title: VectorReader::operator&gt;&gt; Pages: 1 -->
<svg width="358pt" height="27pt"
 viewBox="0.00 0.00 357.59 27.00" xmlns="http://www.w3.org/2000/svg" xmlns:xlink="http://www.w3.org/1999/xlink">
<g id="graph0" class="graph" transform="scale(1 1) rotate(0) translate(4 23)">
<title>VectorReader::operator&gt;&gt;</title>
<polygon fill="#ffffff" stroke="transparent" points="-4,4 -4,-23 353.5898,-23 353.5898,4 -4,4"/>
<!-- Node12 -->
<g id="node1" class="node">
<title>Node12</title>
<polygon fill="#bfbfbf" stroke="#000000" points="0,-.5 0,-18.5 131.6348,-18.5 131.6348,-.5 0,-.5"/>
<text text-anchor="middle" x="65.8174" y="-6.5" font-family="Helvetica,sans-Serif" font-size="10.00" fill="#000000">VectorReader::operator&gt;&gt;</text>
</g>
<!-- Node13 -->
<g id="node2" class="node">
<title>Node13</title>
<g id="a_node2"><a xlink:href="serialize_8h.html#a831d6932e65a64840bb55376f08fe0a6" target="_top" xlink:title="Unserialize">
<polygon fill="#ffffff" stroke="#000000" points="167.6348,-.5 167.6348,-18.5 233.0977,-18.5 233.0977,-.5 167.6348,-.5"/>
<text text-anchor="middle" x="200.3662" y="-6.5" font-family="Helvetica,sans-Serif" font-size="10.00" fill="#000000">Unserialize</text>
</a>
</g>
</g>
<!-- Node12&#45;&gt;Node13 -->
<g id="edge1" class="edge">
<title>Node12&#45;&gt;Node13</title>
<path fill="none" stroke="#191970" d="M131.9093,-9.5C140.6008,-9.5 149.3187,-9.5 157.4823,-9.5"/>
<polygon fill="#191970" stroke="#191970" points="157.4828,-13.0001 167.4828,-9.5 157.4828,-6.0001 157.4828,-13.0001"/>
</g>
<!-- Node14 -->
<g id="node3" class="node">
<title>Node14</title>
<g id="a_node3"><a xlink:href="serialize_8h.html#a1d1f53d2d72386236484546b49409188" target="_top" xlink:title="ser_readdata8">
<polygon fill="#ffffff" stroke="#000000" points="269.0977,-.5 269.0977,-18.5 349.5898,-18.5 349.5898,-.5 269.0977,-.5"/>
<text text-anchor="middle" x="309.3438" y="-6.5" font-family="Helvetica,sans-Serif" font-size="10.00" fill="#000000">ser_readdata8</text>
</a>
</g>
</g>
<!-- Node13&#45;&gt;Node14 -->
<g id="edge2" class="edge">
<title>Node13&#45;&gt;Node14</title>
<path fill="none" stroke="#191970" d="M233.3588,-9.5C241.3736,-9.5 250.1274,-9.5 258.7504,-9.5"/>
<polygon fill="#191970" stroke="#191970" points="258.7609,-13.0001 268.7609,-9.5 258.7609,-6.0001 258.7609,-13.0001"/>
</g>
</g>
</svg>
