<?xml version="1.0" encoding="UTF-8" standalone="no"?>
<!DOCTYPE svg PUBLIC "-//W3C//DTD SVG 1.1//EN"
 "http://www.w3.org/Graphics/SVG/1.1/DTD/svg11.dtd">
<!-- Generated by graphviz version 2.40.1 (20161225.0304)
 -->
<!-- Title: CChainState::ConnectBlock Pages: 1 -->
<svg width="539pt" height="390pt"
 viewBox="0.00 0.00 539.14 390.00" xmlns="http://www.w3.org/2000/svg" xmlns:xlink="http://www.w3.org/1999/xlink">
<g id="graph0" class="graph" transform="scale(1 1) rotate(0) translate(4 386)">
<title>CChainState::ConnectBlock</title>
<polygon fill="#ffffff" stroke="transparent" points="-4,4 -4,-386 535.1426,-386 535.1426,4 -4,4"/>
<!-- Node86 -->
<g id="node1" class="node">
<title>Node86</title>
<polygon fill="#bfbfbf" stroke="#000000" points="0,-189.5 0,-207.5 139.9551,-207.5 139.9551,-189.5 0,-189.5"/>
<text text-anchor="middle" x="69.9775" y="-195.5" font-family="Helvetica,sans-Serif" font-size="10.00" fill="#000000">CChainState::ConnectBlock</text>
</g>
<!-- Node87 -->
<g id="node2" class="node">
<title>Node87</title>
<g id="a_node2"><a xlink:href="class_c_block_header.html#af0239f86a13f622a826e9eea66b2d7f3" target="_top" xlink:title="CBlockHeader::GetHash">
<polygon fill="#ffffff" stroke="#000000" points="190.9624,-363.5 190.9624,-381.5 316.4546,-381.5 316.4546,-363.5 190.9624,-363.5"/>
<text text-anchor="middle" x="253.7085" y="-369.5" font-family="Helvetica,sans-Serif" font-size="10.00" fill="#000000">CBlockHeader::GetHash</text>
</a>
</g>
</g>
<!-- Node86&#45;&gt;Node87 -->
<g id="edge1" class="edge">
<title>Node86&#45;&gt;Node87</title>
<path fill="none" stroke="#191970" d="M73.3675,-207.646C83.9258,-234.7939 118.9671,-315.447 175.9551,-354.5 178.5571,-356.2831 181.3112,-357.8915 184.1698,-359.342"/>
<polygon fill="#191970" stroke="#191970" points="183.0316,-362.6641 193.5966,-363.4583 185.8329,-356.249 183.0316,-362.6641"/>
</g>
<!-- Node89 -->
<g id="node4" class="node">
<title>Node89</title>
<g id="a_node4"><a xlink:href="utiltime_8cpp.html#a0c5a06b50cd805b1923552114494c029" target="_top" xlink:title="GetTimeMicros">
<polygon fill="#ffffff" stroke="#000000" points="212,-326.5 212,-344.5 295.417,-344.5 295.417,-326.5 212,-326.5"/>
<text text-anchor="middle" x="253.7085" y="-332.5" font-family="Helvetica,sans-Serif" font-size="10.00" fill="#000000">GetTimeMicros</text>
</a>
</g>
</g>
<!-- Node86&#45;&gt;Node89 -->
<g id="edge3" class="edge">
<title>Node86&#45;&gt;Node89</title>
<path fill="none" stroke="#191970" d="M75.3107,-207.6714C88.9389,-230.2376 127.415,-288.7092 175.9551,-317.5 183.9192,-322.2238 193.0238,-325.7079 202.1308,-328.2777"/>
<polygon fill="#191970" stroke="#191970" points="201.4107,-331.7052 211.9599,-330.7227 203.1006,-324.9122 201.4107,-331.7052"/>
</g>
<!-- Node90 -->
<g id="node5" class="node">
<title>Node90</title>
<g id="a_node5"><a xlink:href="validation_8cpp.html#abc9c65975a473d224b3b97b89d571942" target="_top" xlink:title="Functions for validating blocks and updating the block tree. ">
<polygon fill="#ffffff" stroke="#000000" points="219.3096,-289.5 219.3096,-307.5 288.1074,-307.5 288.1074,-289.5 219.3096,-289.5"/>
<text text-anchor="middle" x="253.7085" y="-295.5" font-family="Helvetica,sans-Serif" font-size="10.00" fill="#000000">CheckBlock</text>
</a>
</g>
</g>
<!-- Node86&#45;&gt;Node90 -->
<g id="edge4" class="edge">
<title>Node86&#45;&gt;Node90</title>
<path fill="none" stroke="#191970" d="M78.9702,-207.7225C96.1658,-224.8018 135.6012,-261.3535 175.9551,-280.5 186.2103,-285.3657 197.8643,-288.9606 208.9717,-291.5997"/>
<polygon fill="#191970" stroke="#191970" points="208.4486,-295.0675 218.963,-293.7637 209.9305,-288.2261 208.4486,-295.0675"/>
</g>
<!-- Node91 -->
<g id="node6" class="node">
<title>Node91</title>
<g id="a_node6"><a xlink:href="class_c_chain_params.html#aa366d4f63c8d16d625336dca61ca65e5" target="_top" xlink:title="CChainParams::GetConsensus">
<polygon fill="#ffffff" stroke="#000000" points="175.9551,-252.5 175.9551,-270.5 331.4619,-270.5 331.4619,-252.5 175.9551,-252.5"/>
<text text-anchor="middle" x="253.7085" y="-258.5" font-family="Helvetica,sans-Serif" font-size="10.00" fill="#000000">CChainParams::GetConsensus</text>
</a>
</g>
</g>
<!-- Node86&#45;&gt;Node91 -->
<g id="edge5" class="edge">
<title>Node86&#45;&gt;Node91</title>
<path fill="none" stroke="#191970" d="M88.7415,-207.6481C109.6322,-217.5522 144.5914,-233.2968 175.9551,-243.5 183.274,-245.881 191.0775,-248.0762 198.8106,-250.0541"/>
<polygon fill="#191970" stroke="#191970" points="197.9803,-253.4541 208.5266,-252.4409 199.6503,-246.6562 197.9803,-253.4541"/>
</g>
<!-- Node92 -->
<g id="node7" class="node">
<title>Node92</title>
<g id="a_node7"><a xlink:href="class_c_validation_state.html#add2b2dc505a8527fda32295b65bb636b" target="_top" xlink:title="CValidationState::Corruption\lPossible">
<polygon fill="#ffffff" stroke="#000000" points="182.708,-205.5 182.708,-233.5 324.709,-233.5 324.709,-205.5 182.708,-205.5"/>
<text text-anchor="start" x="190.708" y="-221.5" font-family="Helvetica,sans-Serif" font-size="10.00" fill="#000000">CValidationState::Corruption</text>
<text text-anchor="middle" x="253.7085" y="-211.5" font-family="Helvetica,sans-Serif" font-size="10.00" fill="#000000">Possible</text>
</a>
</g>
</g>
<!-- Node86&#45;&gt;Node92 -->
<g id="edge6" class="edge">
<title>Node86&#45;&gt;Node92</title>
<path fill="none" stroke="#191970" d="M139.9625,-206.4991C150.6771,-207.7238 161.8135,-208.9966 172.7411,-210.2456"/>
<polygon fill="#191970" stroke="#191970" points="172.3672,-213.7256 182.7,-211.3839 173.1622,-206.7709 172.3672,-213.7256"/>
</g>
<!-- Node93 -->
<g id="node8" class="node">
<title>Node93</title>
<g id="a_node8"><a xlink:href="util_8h.html#a96c5fc7111f69f7dcaba992d95d13e03" target="_top" xlink:title="error">
<polygon fill="#ffffff" stroke="#000000" points="235.1519,-168.5 235.1519,-186.5 272.2651,-186.5 272.2651,-168.5 235.1519,-168.5"/>
<text text-anchor="middle" x="253.7085" y="-174.5" font-family="Helvetica,sans-Serif" font-size="10.00" fill="#000000">error</text>
</a>
</g>
</g>
<!-- Node86&#45;&gt;Node93 -->
<g id="edge7" class="edge">
<title>Node86&#45;&gt;Node93</title>
<path fill="none" stroke="#191970" d="M139.9625,-190.5009C169.553,-187.1188 202.3594,-183.3691 225.1056,-180.7692"/>
<polygon fill="#191970" stroke="#191970" points="225.5651,-184.2396 235.1029,-179.6266 224.7701,-177.2849 225.5651,-184.2396"/>
</g>
<!-- Node94 -->
<g id="node9" class="node">
<title>Node94</title>
<g id="a_node9"><a xlink:href="validation_8cpp.html#a86ed1d2d0837b905d74c2e4192b6c06a" target="_top" xlink:title="Convert CValidationState to a human&#45;readable message for logging. ">
<polygon fill="#ffffff" stroke="#000000" points="197.9106,-131.5 197.9106,-149.5 309.5063,-149.5 309.5063,-131.5 197.9106,-131.5"/>
<text text-anchor="middle" x="253.7085" y="-137.5" font-family="Helvetica,sans-Serif" font-size="10.00" fill="#000000">FormatStateMessage</text>
</a>
</g>
</g>
<!-- Node86&#45;&gt;Node94 -->
<g id="edge8" class="edge">
<title>Node86&#45;&gt;Node94</title>
<path fill="none" stroke="#191970" d="M92.4659,-189.3821C113.7479,-180.9552 146.7024,-168.4255 175.9551,-159.5 184.7397,-156.8197 194.171,-154.2569 203.3297,-151.9296"/>
<polygon fill="#191970" stroke="#191970" points="204.2537,-155.3066 213.1172,-149.5023 202.5687,-148.5124 204.2537,-155.3066"/>
</g>
<!-- Node98 -->
<g id="node13" class="node">
<title>Node98</title>
<g id="a_node13"><a xlink:href="class_c_block_index.html#a98490a2788c65cdd6ae9002b004dd74c" target="_top" xlink:title="CBlockIndex::GetBlockHash">
<polygon fill="#ffffff" stroke="#000000" points="182.9033,-94.5 182.9033,-112.5 324.5137,-112.5 324.5137,-94.5 182.9033,-94.5"/>
<text text-anchor="middle" x="253.7085" y="-100.5" font-family="Helvetica,sans-Serif" font-size="10.00" fill="#000000">CBlockIndex::GetBlockHash</text>
</a>
</g>
</g>
<!-- Node86&#45;&gt;Node98 -->
<g id="edge12" class="edge">
<title>Node86&#45;&gt;Node98</title>
<path fill="none" stroke="#191970" d="M79.9658,-189.2804C97.8399,-173.2801 137.0752,-140.3734 175.9551,-122.5 181.7551,-119.8337 187.9772,-117.5125 194.2831,-115.4984"/>
<polygon fill="#191970" stroke="#191970" points="195.6052,-118.758 204.2129,-112.5807 193.6318,-112.0419 195.6052,-118.758"/>
</g>
<!-- Node99 -->
<g id="node14" class="node">
<title>Node99</title>
<g id="a_node14"><a xlink:href="class_c_coins_view_cache.html#a943a3d13f2ba6936002d7a87b969edba" target="_top" xlink:title="Retrieve the block hash whose state this CCoinsView currently represents. ">
<polygon fill="#ffffff" stroke="#000000" points="183.2695,-47.5 183.2695,-75.5 324.1475,-75.5 324.1475,-47.5 183.2695,-47.5"/>
<text text-anchor="start" x="191.2695" y="-63.5" font-family="Helvetica,sans-Serif" font-size="10.00" fill="#000000">CCoinsViewCache::GetBest</text>
<text text-anchor="middle" x="253.7085" y="-53.5" font-family="Helvetica,sans-Serif" font-size="10.00" fill="#000000">Block</text>
</a>
</g>
</g>
<!-- Node86&#45;&gt;Node99 -->
<g id="edge13" class="edge">
<title>Node86&#45;&gt;Node99</title>
<path fill="none" stroke="#191970" d="M75.984,-189.38C90.5329,-168.0003 129.8786,-114.2865 175.9551,-85.5 179.3622,-83.3714 182.9719,-81.4195 186.697,-79.6314"/>
<polygon fill="#191970" stroke="#191970" points="188.3743,-82.7185 196.1448,-75.5165 185.5791,-76.3007 188.3743,-82.7185"/>
</g>
<!-- Node102 -->
<g id="node17" class="node">
<title>Node102</title>
<g id="a_node17"><a xlink:href="class_c_coins_view_cache.html#aa3f787f77b123f0fd340fbe4e458b4ad" target="_top" xlink:title="CCoinsViewCache::SetBest\lBlock">
<polygon fill="#ffffff" stroke="#000000" points="183.8237,-.5 183.8237,-28.5 323.5933,-28.5 323.5933,-.5 183.8237,-.5"/>
<text text-anchor="start" x="191.8237" y="-16.5" font-family="Helvetica,sans-Serif" font-size="10.00" fill="#000000">CCoinsViewCache::SetBest</text>
<text text-anchor="middle" x="253.7085" y="-6.5" font-family="Helvetica,sans-Serif" font-size="10.00" fill="#000000">Block</text>
</a>
</g>
</g>
<!-- Node86&#45;&gt;Node102 -->
<g id="edge16" class="edge">
<title>Node86&#45;&gt;Node102</title>
<path fill="none" stroke="#191970" d="M73.4331,-189.3118C84.1746,-162.0051 119.6748,-80.6297 175.9551,-38.5 178.475,-36.6137 181.1453,-34.8739 183.9206,-33.2694"/>
<polygon fill="#191970" stroke="#191970" points="185.7702,-36.255 193.0866,-28.5921 182.5884,-30.0199 185.7702,-36.255"/>
</g>
<!-- Node88 -->
<g id="node3" class="node">
<title>Node88</title>
<g id="a_node3"><a xlink:href="_hash_8h.html#a6de694e43f17c62025c6883965b65e63" target="_top" xlink:title="Compute the 256&#45;bit hash of an object&#39;s serialization. ">
<polygon fill="#ffffff" stroke="#000000" points="410.4551,-363.5 410.4551,-381.5 488.1494,-381.5 488.1494,-363.5 410.4551,-363.5"/>
<text text-anchor="middle" x="449.3022" y="-369.5" font-family="Helvetica,sans-Serif" font-size="10.00" fill="#000000">SerializeHash</text>
</a>
</g>
</g>
<!-- Node87&#45;&gt;Node88 -->
<g id="edge2" class="edge">
<title>Node87&#45;&gt;Node88</title>
<path fill="none" stroke="#191970" d="M316.6722,-372.5C343.7625,-372.5 374.9546,-372.5 400.2808,-372.5"/>
<polygon fill="#191970" stroke="#191970" points="400.3888,-376.0001 410.3888,-372.5 400.3887,-369.0001 400.3888,-376.0001"/>
</g>
<!-- Node95 -->
<g id="node10" class="node">
<title>Node95</title>
<g id="a_node10"><a xlink:href="class_c_validation_state.html#a8fa9612cb40c3c8592f7cd29b5931ccd" target="_top" xlink:title="CValidationState::GetReject\lReason">
<polygon fill="#ffffff" stroke="#000000" points="379.415,-173.5 379.415,-201.5 519.1895,-201.5 519.1895,-173.5 379.415,-173.5"/>
<text text-anchor="start" x="387.415" y="-189.5" font-family="Helvetica,sans-Serif" font-size="10.00" fill="#000000">CValidationState::GetReject</text>
<text text-anchor="middle" x="449.3022" y="-179.5" font-family="Helvetica,sans-Serif" font-size="10.00" fill="#000000">Reason</text>
</a>
</g>
</g>
<!-- Node94&#45;&gt;Node95 -->
<g id="edge9" class="edge">
<title>Node94&#45;&gt;Node95</title>
<path fill="none" stroke="#191970" d="M291.4209,-149.5621C316.7538,-155.6494 350.8687,-163.847 380.9046,-171.0645"/>
<polygon fill="#191970" stroke="#191970" points="380.3747,-174.5367 390.9157,-173.4701 382.0103,-167.7304 380.3747,-174.5367"/>
</g>
<!-- Node96 -->
<g id="node11" class="node">
<title>Node96</title>
<g id="a_node11"><a xlink:href="class_c_validation_state.html#af06a17bcdea79c67c0275d43a644b52c" target="_top" xlink:title="CValidationState::GetDebug\lMessage">
<polygon fill="#ffffff" stroke="#000000" points="378.8535,-126.5 378.8535,-154.5 519.751,-154.5 519.751,-126.5 378.8535,-126.5"/>
<text text-anchor="start" x="386.8535" y="-142.5" font-family="Helvetica,sans-Serif" font-size="10.00" fill="#000000">CValidationState::GetDebug</text>
<text text-anchor="middle" x="449.3022" y="-132.5" font-family="Helvetica,sans-Serif" font-size="10.00" fill="#000000">Message</text>
</a>
</g>
</g>
<!-- Node94&#45;&gt;Node96 -->
<g id="edge10" class="edge">
<title>Node94&#45;&gt;Node96</title>
<path fill="none" stroke="#191970" d="M309.7578,-140.5C328.0224,-140.5 348.6786,-140.5 368.3909,-140.5"/>
<polygon fill="#191970" stroke="#191970" points="368.5956,-144.0001 378.5955,-140.5 368.5955,-137.0001 368.5956,-144.0001"/>
</g>
<!-- Node97 -->
<g id="node12" class="node">
<title>Node97</title>
<g id="a_node12"><a xlink:href="class_c_validation_state.html#a01490c3326ac7d47a64976747060ac46" target="_top" xlink:title="CValidationState::GetRejectCode">
<polygon fill="#ffffff" stroke="#000000" points="367.4619,-89.5 367.4619,-107.5 531.1426,-107.5 531.1426,-89.5 367.4619,-89.5"/>
<text text-anchor="middle" x="449.3022" y="-95.5" font-family="Helvetica,sans-Serif" font-size="10.00" fill="#000000">CValidationState::GetRejectCode</text>
</a>
</g>
</g>
<!-- Node94&#45;&gt;Node97 -->
<g id="edge11" class="edge">
<title>Node94&#45;&gt;Node97</title>
<path fill="none" stroke="#191970" d="M295.6683,-131.4899C325.3456,-125.1173 365.3397,-116.5294 397.0823,-109.7132"/>
<polygon fill="#191970" stroke="#191970" points="398.0326,-113.089 407.0749,-107.5675 396.5629,-106.2451 398.0326,-113.089"/>
</g>
<!-- Node100 -->
<g id="node15" class="node">
<title>Node100</title>
<g id="a_node15"><a xlink:href="classbase__blob.html#aba89c6722866a5850882a509d27d7bbd" target="_top" xlink:title="base_blob::IsNull">
<polygon fill="#ffffff" stroke="#000000" points="402.9453,-52.5 402.9453,-70.5 495.6592,-70.5 495.6592,-52.5 402.9453,-52.5"/>
<text text-anchor="middle" x="449.3022" y="-58.5" font-family="Helvetica,sans-Serif" font-size="10.00" fill="#000000">base_blob::IsNull</text>
</a>
</g>
</g>
<!-- Node99&#45;&gt;Node100 -->
<g id="edge14" class="edge">
<title>Node99&#45;&gt;Node100</title>
<path fill="none" stroke="#191970" d="M324.3223,-61.5C346.7971,-61.5 371.3526,-61.5 392.7025,-61.5"/>
<polygon fill="#191970" stroke="#191970" points="392.9028,-65.0001 402.9028,-61.5 392.9027,-58.0001 392.9028,-65.0001"/>
</g>
<!-- Node101 -->
<g id="node16" class="node">
<title>Node101</title>
<g id="a_node16"><a xlink:href="class_c_coins_view.html#af81f2907d360a2548d59a61388e5e5cb" target="_top" xlink:title="Retrieve the block hash whose state this CCoinsView currently represents. ">
<polygon fill="#ffffff" stroke="#000000" points="381.0898,-15.5 381.0898,-33.5 517.5146,-33.5 517.5146,-15.5 381.0898,-15.5"/>
<text text-anchor="middle" x="449.3022" y="-21.5" font-family="Helvetica,sans-Serif" font-size="10.00" fill="#000000">CCoinsView::GetBestBlock</text>
</a>
</g>
</g>
<!-- Node99&#45;&gt;Node101 -->
<g id="edge15" class="edge">
<title>Node99&#45;&gt;Node101</title>
<path fill="none" stroke="#191970" d="M324.3223,-48.1422C346.421,-43.9618 370.5312,-39.4009 391.6279,-35.4101"/>
<polygon fill="#191970" stroke="#191970" points="392.5452,-38.7988 401.7204,-33.501 391.244,-31.9207 392.5452,-38.7988"/>
</g>
</g>
</svg>
