<?xml version="1.0" encoding="UTF-8" standalone="no"?>
<!DOCTYPE svg PUBLIC "-//W3C//DTD SVG 1.1//EN"
 "http://www.w3.org/Graphics/SVG/1.1/DTD/svg11.dtd">
<!-- Generated by graphviz version 2.40.1 (20161225.0304)
 -->
<!-- Title: CHash3::Reset Pages: 1 -->
<svg width="471pt" height="27pt"
 viewBox="0.00 0.00 471.25 27.00" xmlns="http://www.w3.org/2000/svg" xmlns:xlink="http://www.w3.org/1999/xlink">
<g id="graph0" class="graph" transform="scale(1 1) rotate(0) translate(4 23)">
<title>CHash3::Reset</title>
<polygon fill="#ffffff" stroke="transparent" points="-4,4 -4,-23 467.2451,-23 467.2451,4 -4,4"/>
<!-- Node67 -->
<g id="node1" class="node">
<title>Node67</title>
<polygon fill="#bfbfbf" stroke="#000000" points="0,-.5 0,-18.5 83.8076,-18.5 83.8076,-.5 0,-.5"/>
<text text-anchor="middle" x="41.9038" y="-6.5" font-family="Helvetica,sans-Serif" font-size="10.00" fill="#000000">CHash3::Reset</text>
</g>
<!-- Node68 -->
<g id="node2" class="node">
<title>Node68</title>
<g id="a_node2"><a xlink:href="class_c_s_h_a3.html#a9d77a24312b66dcd026dfbed1d917dc1" target="_top" xlink:title="CSHA3::Reset">
<polygon fill="#ffffff" stroke="#000000" points="119.8076,-.5 119.8076,-18.5 200.832,-18.5 200.832,-.5 119.8076,-.5"/>
<text text-anchor="middle" x="160.3198" y="-6.5" font-family="Helvetica,sans-Serif" font-size="10.00" fill="#000000">CSHA3::Reset</text>
</a>
</g>
</g>
<!-- Node67&#45;&gt;Node68 -->
<g id="edge1" class="edge">
<title>Node67&#45;&gt;Node68</title>
<path fill="none" stroke="#191970" d="M83.9863,-9.5C92.2097,-9.5 100.9153,-9.5 109.3901,-9.5"/>
<polygon fill="#191970" stroke="#191970" points="109.5652,-13.0001 119.5652,-9.5 109.5651,-6.0001 109.5652,-13.0001"/>
</g>
<!-- Node69 -->
<g id="node3" class="node">
<title>Node69</title>
<g id="a_node3"><a xlink:href="class_s_h_a3__256.html#a57b5f29347a733e04fe47d60621f3202" target="_top" xlink:title="Resets the hash ready for a new hashing process. ">
<polygon fill="#ffffff" stroke="#000000" points="236.832,-.5 236.832,-18.5 328.9893,-18.5 328.9893,-.5 236.832,-.5"/>
<text text-anchor="middle" x="282.9106" y="-6.5" font-family="Helvetica,sans-Serif" font-size="10.00" fill="#000000">SHA3_256::reset</text>
</a>
</g>
</g>
<!-- Node68&#45;&gt;Node69 -->
<g id="edge2" class="edge">
<title>Node68&#45;&gt;Node69</title>
<path fill="none" stroke="#191970" d="M201.1408,-9.5C209.351,-9.5 218.1149,-9.5 226.7424,-9.5"/>
<polygon fill="#191970" stroke="#191970" points="226.7663,-13.0001 236.7663,-9.5 226.7662,-6.0001 226.7663,-13.0001"/>
</g>
<!-- Node70 -->
<g id="node4" class="node">
<title>Node70</title>
<g id="a_node4"><a xlink:href="class_keccak_core.html#a5a322eb7e3b5c1eaad127c9c6e6a529b" target="_top" xlink:title="Resets the Keccak sponge function ready for a new session. ">
<polygon fill="#ffffff" stroke="#000000" points="364.9893,-.5 364.9893,-18.5 463.2451,-18.5 463.2451,-.5 364.9893,-.5"/>
<text text-anchor="middle" x="414.1172" y="-6.5" font-family="Helvetica,sans-Serif" font-size="10.00" fill="#000000">KeccakCore::reset</text>
</a>
</g>
</g>
<!-- Node69&#45;&gt;Node70 -->
<g id="edge3" class="edge">
<title>Node69&#45;&gt;Node70</title>
<path fill="none" stroke="#191970" d="M329.1692,-9.5C337.3518,-9.5 345.9754,-9.5 354.4649,-9.5"/>
<polygon fill="#191970" stroke="#191970" points="354.7152,-13.0001 364.7152,-9.5 354.7151,-6.0001 354.7152,-13.0001"/>
</g>
</g>
</svg>
