<?xml version="1.0" encoding="UTF-8" standalone="no"?>
<!DOCTYPE svg PUBLIC "-//W3C//DTD SVG 1.1//EN"
 "http://www.w3.org/Graphics/SVG/1.1/DTD/svg11.dtd">
<!-- Generated by graphviz version 2.40.1 (20161225.0304)
 -->
<!-- Title: CoinControlDialog::showMenu Pages: 1 -->
<svg width="385pt" height="111pt"
 viewBox="0.00 0.00 384.99 111.00" xmlns="http://www.w3.org/2000/svg" xmlns:xlink="http://www.w3.org/1999/xlink">
<g id="graph0" class="graph" transform="scale(1 1) rotate(0) translate(4 107)">
<title>CoinControlDialog::showMenu</title>
<polygon fill="#ffffff" stroke="transparent" points="-4,4 -4,-107 380.9873,-107 380.9873,4 -4,4"/>
<!-- Node416 -->
<g id="node1" class="node">
<title>Node416</title>
<polygon fill="#bfbfbf" stroke="#000000" points="0,-37.5 0,-65.5 102.709,-65.5 102.709,-37.5 0,-37.5"/>
<text text-anchor="start" x="8" y="-53.5" font-family="Helvetica,sans-Serif" font-size="10.00" fill="#000000">CoinControlDialog::</text>
<text text-anchor="middle" x="51.3545" y="-43.5" font-family="Helvetica,sans-Serif" font-size="10.00" fill="#000000">showMenu</text>
</g>
<!-- Node417 -->
<g id="node2" class="node">
<title>Node417</title>
<g id="a_node2"><a xlink:href="class_wallet_model.html#aa3a3b4a8064de3af096dbf64bfe12655" target="_top" xlink:title="WalletModel::wallet">
<polygon fill="#ffffff" stroke="#000000" points="138.709,-84.5 138.709,-102.5 240.4854,-102.5 240.4854,-84.5 138.709,-84.5"/>
<text text-anchor="middle" x="189.5972" y="-90.5" font-family="Helvetica,sans-Serif" font-size="10.00" fill="#000000">WalletModel::wallet</text>
</a>
</g>
</g>
<!-- Node416&#45;&gt;Node417 -->
<g id="edge1" class="edge">
<title>Node416&#45;&gt;Node417</title>
<path fill="none" stroke="#191970" d="M97.7719,-65.6022C114.6609,-70.7333 133.5842,-76.4825 149.844,-81.4225"/>
<polygon fill="#191970" stroke="#191970" points="148.9963,-84.8228 159.5819,-84.381 151.0312,-78.1251 148.9963,-84.8228"/>
</g>
<!-- Node418 -->
<g id="node3" class="node">
<title>Node418</title>
<g id="a_node3"><a xlink:href="classinterfaces_1_1_wallet.html#a9256b94de71bccbf9561be10931e8e02" target="_top" xlink:title="Return whether coin is locked. ">
<polygon fill="#ffffff" stroke="#000000" points="143.4331,-37.5 143.4331,-65.5 235.7612,-65.5 235.7612,-37.5 143.4331,-37.5"/>
<text text-anchor="start" x="151.4331" y="-53.5" font-family="Helvetica,sans-Serif" font-size="10.00" fill="#000000">interfaces::Wallet</text>
<text text-anchor="middle" x="189.5972" y="-43.5" font-family="Helvetica,sans-Serif" font-size="10.00" fill="#000000">::isLockedCoin</text>
</a>
</g>
</g>
<!-- Node416&#45;&gt;Node418 -->
<g id="edge2" class="edge">
<title>Node416&#45;&gt;Node418</title>
<path fill="none" stroke="#191970" d="M102.831,-51.5C112.6307,-51.5 122.9375,-51.5 132.8893,-51.5"/>
<polygon fill="#191970" stroke="#191970" points="133.0956,-55.0001 143.0956,-51.5 133.0955,-48.0001 133.0956,-55.0001"/>
</g>
<!-- Node419 -->
<g id="node4" class="node">
<title>Node419</title>
<g id="a_node4"><a xlink:href="uint256_8h.html#a52e679560cc1ebf68f878ed69e38f259" target="_top" xlink:title="uint256S">
<polygon fill="#ffffff" stroke="#000000" points="161.8584,-.5 161.8584,-18.5 217.3359,-18.5 217.3359,-.5 161.8584,-.5"/>
<text text-anchor="middle" x="189.5972" y="-6.5" font-family="Helvetica,sans-Serif" font-size="10.00" fill="#000000">uint256S</text>
</a>
</g>
</g>
<!-- Node416&#45;&gt;Node419 -->
<g id="edge3" class="edge">
<title>Node416&#45;&gt;Node419</title>
<path fill="none" stroke="#191970" d="M97.7719,-37.3978C115.3104,-32.0693 135.0428,-26.0744 151.7081,-21.0112"/>
<polygon fill="#191970" stroke="#191970" points="153.0905,-24.2493 161.6412,-17.9934 151.0556,-17.5515 153.0905,-24.2493"/>
</g>
<!-- Node420 -->
<g id="node5" class="node">
<title>Node420</title>
<g id="a_node5"><a xlink:href="classbase__blob.html#a5ec1f681a2830f4e180fe664c0eb4dd0" target="_top" xlink:title="base_blob::SetHex">
<polygon fill="#ffffff" stroke="#000000" points="276.4854,-.5 276.4854,-18.5 376.9873,-18.5 376.9873,-.5 276.4854,-.5"/>
<text text-anchor="middle" x="326.7363" y="-6.5" font-family="Helvetica,sans-Serif" font-size="10.00" fill="#000000">base_blob::SetHex</text>
</a>
</g>
</g>
<!-- Node419&#45;&gt;Node420 -->
<g id="edge4" class="edge">
<title>Node419&#45;&gt;Node420</title>
<path fill="none" stroke="#191970" d="M217.3493,-9.5C231.3493,-9.5 248.9183,-9.5 265.854,-9.5"/>
<polygon fill="#191970" stroke="#191970" points="266.2794,-13.0001 276.2793,-9.5 266.2793,-6.0001 266.2794,-13.0001"/>
</g>
</g>
</svg>
