<?xml version="1.0" encoding="UTF-8" standalone="no"?>
<!DOCTYPE svg PUBLIC "-//W3C//DTD SVG 1.1//EN"
 "http://www.w3.org/Graphics/SVG/1.1/DTD/svg11.dtd">
<!-- Generated by graphviz version 2.40.1 (20161225.0304)
 -->
<!-- Title: TrafficGraphWidget Pages: 1 -->
<svg width="583pt" height="222pt"
 viewBox="0.00 0.00 583.08 222.00" xmlns="http://www.w3.org/2000/svg" xmlns:xlink="http://www.w3.org/1999/xlink">
<g id="graph0" class="graph" transform="scale(1 1) rotate(0) translate(4 218)">
<title>TrafficGraphWidget</title>
<polygon fill="#ffffff" stroke="transparent" points="-4,4 -4,-218 579.0801,-218 579.0801,4 -4,4"/>
<!-- Node2 -->
<g id="node1" class="node">
<title>Node2</title>
<polygon fill="#bfbfbf" stroke="#000000" points="0,-.5 0,-18.5 102.3281,-18.5 102.3281,-.5 0,-.5"/>
<text text-anchor="middle" x="51.1641" y="-6.5" font-family="Helvetica,sans-Serif" font-size="10.00" fill="#000000">TrafficGraphWidget</text>
</g>
<!-- Node3 -->
<g id="node2" class="node">
<title>Node3</title>
<polygon fill="#ffffff" stroke="#bfbfbf" points="6.7134,-65.5 6.7134,-83.5 61.6147,-83.5 61.6147,-65.5 6.7134,-65.5"/>
<text text-anchor="middle" x="34.1641" y="-71.5" font-family="Helvetica,sans-Serif" font-size="10.00" fill="#000000">QWidget</text>
</g>
<!-- Node3&#45;&gt;Node2 -->
<g id="edge1" class="edge">
<title>Node3&#45;&gt;Node2</title>
<path fill="none" stroke="#191970" d="M39.1344,-55.4959C42.2826,-43.4586 46.2163,-28.4178 48.7103,-18.8821"/>
<polygon fill="#191970" stroke="#191970" points="35.6721,-54.9018 36.5278,-65.462 42.4443,-56.6731 35.6721,-54.9018"/>
</g>
<!-- Node4 -->
<g id="node3" class="node">
<title>Node4</title>
<g id="a_node3"><a xlink:href="class_client_model.html" target="_top" xlink:title="Model for Bitcoin network client. ">
<polygon fill="#ffffff" stroke="#000000" points="174.7627,-65.5 174.7627,-83.5 243.5654,-83.5 243.5654,-65.5 174.7627,-65.5"/>
<text text-anchor="middle" x="209.1641" y="-71.5" font-family="Helvetica,sans-Serif" font-size="10.00" fill="#000000">ClientModel</text>
</a>
</g>
</g>
<!-- Node4&#45;&gt;Node2 -->
<g id="edge2" class="edge">
<title>Node4&#45;&gt;Node2</title>
<path fill="none" stroke="#9a32cd" stroke-dasharray="5,2" d="M164.4014,-67.8845C133.8192,-62.7809 96.4548,-55.2216 82.8047,-47 71.2756,-40.0559 61.9252,-27.3989 56.4558,-18.726"/>
<polygon fill="#9a32cd" stroke="#9a32cd" points="164.0371,-71.3711 174.4687,-69.5186 165.1587,-64.4616 164.0371,-71.3711"/>
<text text-anchor="middle" x="109.8438" y="-39" font-family="Helvetica,sans-Serif" font-size="10.00" fill="#000000"> clientModel</text>
</g>
<!-- Node6 -->
<g id="node5" class="node">
<title>Node6</title>
<g id="a_node5"><a xlink:href="class_peer_table_model.html" target="_top" xlink:title="Qt model providing information about connected peers, similar to the &quot;getpeerinfo&quot; RPC call...">
<polygon fill="#ffffff" stroke="#000000" points="230.0313,-.5 230.0313,-18.5 318.2969,-18.5 318.2969,-.5 230.0313,-.5"/>
<text text-anchor="middle" x="274.1641" y="-6.5" font-family="Helvetica,sans-Serif" font-size="10.00" fill="#000000">PeerTableModel</text>
</a>
</g>
</g>
<!-- Node4&#45;&gt;Node6 -->
<g id="edge6" class="edge">
<title>Node4&#45;&gt;Node6</title>
<path fill="none" stroke="#9a32cd" stroke-dasharray="5,2" d="M222.6412,-57.2198C228.04,-50.6558 234.4744,-43.2583 240.8047,-37 247.4233,-30.4566 255.4569,-23.8001 261.9819,-18.6753"/>
<polygon fill="#9a32cd" stroke="#9a32cd" points="219.5524,-55.4771 216.0282,-65.4686 225.014,-59.8556 219.5524,-55.4771"/>
<text text-anchor="middle" x="266.8438" y="-39" font-family="Helvetica,sans-Serif" font-size="10.00" fill="#000000"> clientModel</text>
</g>
<!-- Node9 -->
<g id="node8" class="node">
<title>Node9</title>
<g id="a_node8"><a xlink:href="class_ban_table_model.html" target="_top" xlink:title="Qt model providing information about connected peers, similar to the &quot;getpeerinfo&quot; RPC call...">
<polygon fill="#ffffff" stroke="#000000" points="429.6963,-.5 429.6963,-18.5 514.6318,-18.5 514.6318,-.5 429.6963,-.5"/>
<text text-anchor="middle" x="472.1641" y="-6.5" font-family="Helvetica,sans-Serif" font-size="10.00" fill="#000000">BanTableModel</text>
</a>
</g>
</g>
<!-- Node4&#45;&gt;Node9 -->
<g id="edge11" class="edge">
<title>Node4&#45;&gt;Node9</title>
<path fill="none" stroke="#9a32cd" stroke-dasharray="5,2" d="M247.2452,-62.5108C272.732,-54.7066 307.1053,-44.6028 337.8047,-37 368.3121,-29.4448 403.0807,-22.3695 429.6053,-17.2879"/>
<polygon fill="#9a32cd" stroke="#9a32cd" points="246.1198,-59.1951 237.5947,-65.4858 248.182,-65.8844 246.1198,-59.1951"/>
<text text-anchor="middle" x="363.8438" y="-39" font-family="Helvetica,sans-Serif" font-size="10.00" fill="#000000"> clientModel</text>
</g>
<!-- Node5 -->
<g id="node4" class="node">
<title>Node5</title>
<polygon fill="#ffffff" stroke="#bfbfbf" points="152.8242,-130.5 152.8242,-148.5 205.5039,-148.5 205.5039,-130.5 152.8242,-130.5"/>
<text text-anchor="middle" x="179.1641" y="-136.5" font-family="Helvetica,sans-Serif" font-size="10.00" fill="#000000">QObject</text>
</g>
<!-- Node5&#45;&gt;Node4 -->
<g id="edge3" class="edge">
<title>Node5&#45;&gt;Node4</title>
<path fill="none" stroke="#191970" d="M187.5968,-121.229C193.2065,-109.0748 200.3429,-93.6124 204.8338,-83.8821"/>
<polygon fill="#191970" stroke="#191970" points="184.3482,-119.9157 183.3354,-130.462 190.7039,-122.8491 184.3482,-119.9157"/>
</g>
<!-- Node6&#45;&gt;Node4 -->
<g id="edge4" class="edge">
<title>Node6&#45;&gt;Node4</title>
<path fill="none" stroke="#9a32cd" stroke-dasharray="5,2" d="M219.7547,-14.1865C188.6275,-18.1205 153.8904,-25.0793 144.2285,-37 132.6705,-51.2602 153.5432,-61.1879 174.6284,-67.2296"/>
<polygon fill="#9a32cd" stroke="#9a32cd" points="220.1769,-17.661 229.6978,-13.013 219.3564,-10.7093 220.1769,-17.661"/>
<text text-anchor="middle" x="181.1318" y="-39" font-family="Helvetica,sans-Serif" font-size="10.00" fill="#000000"> peerTableModel</text>
</g>
<!-- Node7 -->
<g id="node6" class="node">
<title>Node7</title>
<polygon fill="#ffffff" stroke="#bfbfbf" points="430.3638,-65.5 430.3638,-83.5 541.9644,-83.5 541.9644,-65.5 430.3638,-65.5"/>
<text text-anchor="middle" x="486.1641" y="-71.5" font-family="Helvetica,sans-Serif" font-size="10.00" fill="#000000">QAbstractTableModel</text>
</g>
<!-- Node7&#45;&gt;Node6 -->
<g id="edge5" class="edge">
<title>Node7&#45;&gt;Node6</title>
<path fill="none" stroke="#191970" d="M492.8813,-55.6169C493.9866,-49.0208 493.5819,-42.0189 489.1641,-37 478.0842,-24.4127 378.198,-16.0217 318.5469,-12.0859"/>
<polygon fill="#191970" stroke="#191970" points="489.4933,-54.7382 490.2614,-65.3051 496.2506,-56.5656 489.4933,-54.7382"/>
</g>
<!-- Node7&#45;&gt;Node9 -->
<g id="edge10" class="edge">
<title>Node7&#45;&gt;Node9</title>
<path fill="none" stroke="#191970" d="M508.1419,-58.5726C514.244,-52.1531 518.2183,-44.5006 514.1641,-37 509.8539,-29.0261 502.1142,-22.9924 494.4426,-18.6385"/>
<polygon fill="#191970" stroke="#191970" points="505.5271,-56.2127 500.3548,-65.4592 510.1644,-61.4564 505.5271,-56.2127"/>
</g>
<!-- Node8 -->
<g id="node7" class="node">
<title>Node8</title>
<g id="a_node7"><a xlink:href="classinterfaces_1_1_node.html" target="_top" xlink:title="Top&#45;level interface for a bitcoin node (bsha3d process). ">
<polygon fill="#ffffff" stroke="#000000" points="230.7554,-195.5 230.7554,-213.5 319.5728,-213.5 319.5728,-195.5 230.7554,-195.5"/>
<text text-anchor="middle" x="275.1641" y="-201.5" font-family="Helvetica,sans-Serif" font-size="10.00" fill="#000000">interfaces::Node</text>
</a>
</g>
</g>
<!-- Node8&#45;&gt;Node4 -->
<g id="edge8" class="edge">
<title>Node8&#45;&gt;Node4</title>
<path fill="none" stroke="#9a32cd" stroke-dasharray="5,2" d="M265.7542,-185.9655C251.4276,-157.7464 224.671,-105.0439 213.8676,-83.7646"/>
<polygon fill="#9a32cd" stroke="#9a32cd" points="262.7697,-187.8185 270.4175,-195.1507 269.0114,-184.6496 262.7697,-187.8185"/>
<text text-anchor="middle" x="265.6221" y="-136.5" font-family="Helvetica,sans-Serif" font-size="10.00" fill="#000000"> m_node</text>
</g>
<!-- Node8&#45;&gt;Node6 -->
<g id="edge7" class="edge">
<title>Node8&#45;&gt;Node6</title>
<path fill="none" stroke="#9a32cd" stroke-dasharray="5,2" d="M280.9932,-185.3461C283.968,-174.7383 287.3365,-161.255 289.1641,-149 295.8587,-104.1087 293.0526,-92.3742 294.1641,-47 294.2729,-42.5569 295.5385,-41.2266 294.1641,-37 291.9733,-30.2631 287.4419,-23.7996 283.2455,-18.8334"/>
<polygon fill="#9a32cd" stroke="#9a32cd" points="277.5627,-184.6074 278.1167,-195.1877 284.2816,-186.5712 277.5627,-184.6074"/>
<text text-anchor="middle" x="312.6221" y="-104" font-family="Helvetica,sans-Serif" font-size="10.00" fill="#000000"> m_node</text>
</g>
<!-- Node8&#45;&gt;Node9 -->
<g id="edge12" class="edge">
<title>Node8&#45;&gt;Node9</title>
<path fill="none" stroke="#9a32cd" stroke-dasharray="5,2" d="M329.9356,-198.2274C395.3813,-187.4732 502.1715,-158.8483 551.1641,-84 569.3354,-56.2388 525.1813,-31.4364 495.8104,-18.6459"/>
<polygon fill="#9a32cd" stroke="#9a32cd" points="329.145,-194.8082 319.8021,-199.8043 330.2214,-201.725 329.145,-194.8082"/>
<text text-anchor="middle" x="555.6221" y="-104" font-family="Helvetica,sans-Serif" font-size="10.00" fill="#000000"> m_node</text>
</g>
<!-- Node10 -->
<g id="node9" class="node">
<title>Node10</title>
<g id="a_node9"><a xlink:href="class_options_model.html" target="_top" xlink:title="Interface from Qt to configuration data structure for Bitcoin client. ">
<polygon fill="#ffffff" stroke="#000000" points="57.3145,-130.5 57.3145,-148.5 135.0137,-148.5 135.0137,-130.5 57.3145,-130.5"/>
<text text-anchor="middle" x="96.1641" y="-136.5" font-family="Helvetica,sans-Serif" font-size="10.00" fill="#000000">OptionsModel</text>
</a>
</g>
</g>
<!-- Node8&#45;&gt;Node10 -->
<g id="edge15" class="edge">
<title>Node8&#45;&gt;Node10</title>
<path fill="none" stroke="#9a32cd" stroke-dasharray="5,2" d="M234.5851,-192.4016C219.9003,-187.8289 203.2455,-182.4164 188.248,-177 163.5705,-168.0875 135.7343,-156.5384 117.1902,-148.6256"/>
<polygon fill="#9a32cd" stroke="#9a32cd" points="233.8049,-195.8235 244.3922,-195.4228 235.8659,-189.1337 233.8049,-195.8235"/>
<text text-anchor="middle" x="207.6221" y="-169" font-family="Helvetica,sans-Serif" font-size="10.00" fill="#000000"> m_node</text>
</g>
<!-- Node9&#45;&gt;Node4 -->
<g id="edge9" class="edge">
<title>Node9&#45;&gt;Node4</title>
<path fill="none" stroke="#9a32cd" stroke-dasharray="5,2" d="M448.1333,-23.5795C433.3277,-31.6433 413.6916,-41.2689 395.1641,-47 343.8651,-62.8684 281.6927,-69.6983 243.8026,-72.5535"/>
<polygon fill="#9a32cd" stroke="#9a32cd" points="450.0852,-26.4981 457.1049,-18.5625 446.6686,-20.3885 450.0852,-26.4981"/>
<text text-anchor="middle" x="454.4668" y="-39" font-family="Helvetica,sans-Serif" font-size="10.00" fill="#000000"> banTableModel</text>
</g>
<!-- Node10&#45;&gt;Node4 -->
<g id="edge13" class="edge">
<title>Node10&#45;&gt;Node4</title>
<path fill="none" stroke="#9a32cd" stroke-dasharray="5,2" d="M107.2176,-121.399C112.1931,-114.5117 118.5972,-107.1027 125.9033,-102 140.3807,-91.8888 158.8332,-85.2946 174.6859,-81.106"/>
<polygon fill="#9a32cd" stroke="#9a32cd" points="103.9875,-119.9359 101.3677,-130.2018 109.8176,-123.8103 103.9875,-119.9359"/>
<text text-anchor="middle" x="156.2944" y="-104" font-family="Helvetica,sans-Serif" font-size="10.00" fill="#000000"> optionsModel</text>
</g>
<!-- Node11 -->
<g id="node10" class="node">
<title>Node11</title>
<polygon fill="#ffffff" stroke="#bfbfbf" points="44.5361,-195.5 44.5361,-213.5 147.792,-213.5 147.792,-195.5 44.5361,-195.5"/>
<text text-anchor="middle" x="96.1641" y="-201.5" font-family="Helvetica,sans-Serif" font-size="10.00" fill="#000000">QAbstractListModel</text>
</g>
<!-- Node11&#45;&gt;Node10 -->
<g id="edge14" class="edge">
<title>Node11&#45;&gt;Node10</title>
<path fill="none" stroke="#191970" d="M96.1641,-185.1265C96.1641,-173.1522 96.1641,-158.3205 96.1641,-148.8821"/>
<polygon fill="#191970" stroke="#191970" points="92.6642,-185.462 96.1641,-195.462 99.6642,-185.4621 92.6642,-185.462"/>
</g>
</g>
</svg>
