<?xml version="1.0" encoding="UTF-8" standalone="no"?>
<!DOCTYPE svg PUBLIC "-//W3C//DTD SVG 1.1//EN"
 "http://www.w3.org/Graphics/SVG/1.1/DTD/svg11.dtd">
<!-- Generated by graphviz version 2.40.1 (20161225.0304)
 -->
<!-- Title: RPCConsole::RPCParseCommandLine Pages: 1 -->
<svg width="530pt" height="415pt"
 viewBox="0.00 0.00 530.23 415.00" xmlns="http://www.w3.org/2000/svg" xmlns:xlink="http://www.w3.org/1999/xlink">
<g id="graph0" class="graph" transform="scale(1 1) rotate(0) translate(4 411)">
<title>RPCConsole::RPCParseCommandLine</title>
<polygon fill="#ffffff" stroke="transparent" points="-4,4 -4,-411 526.2266,-411 526.2266,4 -4,4"/>
<!-- Node241 -->
<g id="node1" class="node">
<title>Node241</title>
<polygon fill="#bfbfbf" stroke="#000000" points="0,-185.5 0,-203.5 191.6299,-203.5 191.6299,-185.5 0,-185.5"/>
<text text-anchor="middle" x="95.8149" y="-191.5" font-family="Helvetica,sans-Serif" font-size="10.00" fill="#000000">RPCConsole::RPCParseCommandLine</text>
</g>
<!-- Node242 -->
<g id="node2" class="node">
<title>Node242</title>
<g id="a_node2"><a xlink:href="class_uni_value.html#a944cd1b59b040cd24c9f46b55a68d49a" target="_top" xlink:title="UniValue::push_back">
<polygon fill="#ffffff" stroke="#000000" points="246.3359,-388.5 246.3359,-406.5 356.1055,-406.5 356.1055,-388.5 246.3359,-388.5"/>
<text text-anchor="middle" x="301.2207" y="-394.5" font-family="Helvetica,sans-Serif" font-size="10.00" fill="#000000">UniValue::push_back</text>
</a>
</g>
</g>
<!-- Node241&#45;&gt;Node242 -->
<g id="edge1" class="edge">
<title>Node241&#45;&gt;Node242</title>
<path fill="none" stroke="#191970" d="M99.4748,-203.5544C112.1763,-233.7716 157.4499,-331.9184 227.6299,-379.5 230.5488,-381.479 233.6636,-383.241 236.9012,-384.8096"/>
<polygon fill="#191970" stroke="#191970" points="235.7138,-388.1067 246.2898,-388.7381 238.4158,-381.6492 235.7138,-388.1067"/>
</g>
<!-- Node243 -->
<g id="node3" class="node">
<title>Node243</title>
<g id="a_node3"><a xlink:href="class_uni_value.html#a1d2e9479d4fb330a73e0fd41197aec35" target="_top" xlink:title="UniValue::isArray">
<polygon fill="#ffffff" stroke="#000000" points="254.9639,-351.5 254.9639,-369.5 347.4775,-369.5 347.4775,-351.5 254.9639,-351.5"/>
<text text-anchor="middle" x="301.2207" y="-357.5" font-family="Helvetica,sans-Serif" font-size="10.00" fill="#000000">UniValue::isArray</text>
</a>
</g>
</g>
<!-- Node241&#45;&gt;Node243 -->
<g id="edge2" class="edge">
<title>Node241&#45;&gt;Node243</title>
<path fill="none" stroke="#191970" d="M101.0558,-203.5108C116.6781,-229.5242 165.7116,-305.2554 227.6299,-342.5 233.0294,-345.7479 238.9851,-348.4105 245.0997,-350.5932"/>
<polygon fill="#191970" stroke="#191970" points="244.1927,-353.9769 254.7823,-353.6432 246.2959,-347.3004 244.1927,-353.9769"/>
</g>
<!-- Node244 -->
<g id="node4" class="node">
<title>Node244</title>
<g id="a_node4"><a xlink:href="utilstrencodings_8cpp.html#aa5ce96ec36f4413f820cec9c1831c070" target="_top" xlink:title="atoi">
<polygon fill="#ffffff" stroke="#000000" points="285.1592,-296.5 285.1592,-314.5 317.2822,-314.5 317.2822,-296.5 285.1592,-296.5"/>
<text text-anchor="middle" x="301.2207" y="-302.5" font-family="Helvetica,sans-Serif" font-size="10.00" fill="#000000">atoi</text>
</a>
</g>
</g>
<!-- Node241&#45;&gt;Node244 -->
<g id="edge3" class="edge">
<title>Node241&#45;&gt;Node244</title>
<path fill="none" stroke="#191970" d="M105.9099,-203.6835C126.943,-222.3249 177.6686,-264.7583 227.6299,-287.5 242.6067,-294.3172 260.5211,-298.7702 274.9248,-301.5417"/>
<polygon fill="#191970" stroke="#191970" points="274.6923,-305.0546 285.1482,-303.3445 275.908,-298.161 274.6923,-305.0546"/>
</g>
<!-- Node245 -->
<g id="node5" class="node">
<title>Node245</title>
<g id="a_node5"><a xlink:href="class_uni_value.html#af1a6df88c2bee59a863dd6f8d12e9be5" target="_top" xlink:title="UniValue::isObject">
<polygon fill="#ffffff" stroke="#000000" points="252.459,-259.5 252.459,-277.5 349.9824,-277.5 349.9824,-259.5 252.459,-259.5"/>
<text text-anchor="middle" x="301.2207" y="-265.5" font-family="Helvetica,sans-Serif" font-size="10.00" fill="#000000">UniValue::isObject</text>
</a>
</g>
</g>
<!-- Node241&#45;&gt;Node245 -->
<g id="edge5" class="edge">
<title>Node241&#45;&gt;Node245</title>
<path fill="none" stroke="#191970" d="M114.6516,-203.6503C139.9025,-215.6484 186.3377,-236.7791 227.6299,-250.5 234.5807,-252.8097 241.9897,-254.9662 249.3287,-256.927"/>
<polygon fill="#191970" stroke="#191970" points="248.6869,-260.3758 259.2434,-259.4754 250.4296,-253.5961 248.6869,-260.3758"/>
</g>
<!-- Node246 -->
<g id="node6" class="node">
<title>Node246</title>
<g id="a_node6"><a xlink:href="univalue_8h.html#a33625d562f1ef5f44ceb171d5c8f2a85" target="_top" xlink:title="find_value">
<polygon fill="#ffffff" stroke="#000000" points="270.4253,-222.5 270.4253,-240.5 332.0161,-240.5 332.0161,-222.5 270.4253,-222.5"/>
<text text-anchor="middle" x="301.2207" y="-228.5" font-family="Helvetica,sans-Serif" font-size="10.00" fill="#000000">find_value</text>
</a>
</g>
</g>
<!-- Node241&#45;&gt;Node246 -->
<g id="edge6" class="edge">
<title>Node241&#45;&gt;Node246</title>
<path fill="none" stroke="#191970" d="M145.8002,-203.5039C180.8397,-209.8156 227.1114,-218.1506 260.0315,-224.0805"/>
<polygon fill="#191970" stroke="#191970" points="259.7575,-227.5874 270.2196,-225.9157 260.9985,-220.6983 259.7575,-227.5874"/>
</g>
<!-- Node247 -->
<g id="node7" class="node">
<title>Node247</title>
<g id="a_node7"><a xlink:href="class_uni_value.html#a8abe13a4663ccfda54ae2440ed445c5a" target="_top" xlink:title="UniValue::isStr">
<polygon fill="#ffffff" stroke="#000000" points="260.5205,-185.5 260.5205,-203.5 341.9209,-203.5 341.9209,-185.5 260.5205,-185.5"/>
<text text-anchor="middle" x="301.2207" y="-191.5" font-family="Helvetica,sans-Serif" font-size="10.00" fill="#000000">UniValue::isStr</text>
</a>
</g>
</g>
<!-- Node241&#45;&gt;Node247 -->
<g id="edge7" class="edge">
<title>Node241&#45;&gt;Node247</title>
<path fill="none" stroke="#191970" d="M191.9024,-194.5C212.0645,-194.5 232.5681,-194.5 250.2876,-194.5"/>
<polygon fill="#191970" stroke="#191970" points="250.3753,-198.0001 260.3753,-194.5 250.3753,-191.0001 250.3753,-198.0001"/>
</g>
<!-- Node248 -->
<g id="node8" class="node">
<title>Node248</title>
<g id="a_node8"><a xlink:href="class_uni_value.html#a087ea6ccec615333371fa1aaf83ab7df" target="_top" xlink:title="UniValue::get_str">
<polygon fill="#ffffff" stroke="#000000" points="255.2349,-148.5 255.2349,-166.5 347.2065,-166.5 347.2065,-148.5 255.2349,-148.5"/>
<text text-anchor="middle" x="301.2207" y="-154.5" font-family="Helvetica,sans-Serif" font-size="10.00" fill="#000000">UniValue::get_str</text>
</a>
</g>
</g>
<!-- Node241&#45;&gt;Node248 -->
<g id="edge8" class="edge">
<title>Node241&#45;&gt;Node248</title>
<path fill="none" stroke="#191970" d="M145.8002,-185.4961C175.6736,-180.115 213.7112,-173.2632 244.6786,-167.685"/>
<polygon fill="#191970" stroke="#191970" points="245.6664,-171.0635 254.8876,-165.846 244.4254,-164.1743 245.6664,-171.0635"/>
</g>
<!-- Node250 -->
<g id="node10" class="node">
<title>Node250</title>
<g id="a_node10"><a xlink:href="class_uni_value.html#a350a1d888e5d64e7e7bbb7dc6c045f16" target="_top" xlink:title="UniValue::write">
<polygon fill="#ffffff" stroke="#000000" points="259.9639,-111.5 259.9639,-129.5 342.4775,-129.5 342.4775,-111.5 259.9639,-111.5"/>
<text text-anchor="middle" x="301.2207" y="-117.5" font-family="Helvetica,sans-Serif" font-size="10.00" fill="#000000">UniValue::write</text>
</a>
</g>
</g>
<!-- Node241&#45;&gt;Node250 -->
<g id="edge10" class="edge">
<title>Node241&#45;&gt;Node250</title>
<path fill="none" stroke="#191970" d="M115.1341,-185.4137C140.532,-173.7077 186.7282,-153.2352 227.6299,-139.5 235.4556,-136.872 243.8515,-134.3938 252.0715,-132.149"/>
<polygon fill="#191970" stroke="#191970" points="253.1887,-135.4739 261.9607,-129.5323 251.3981,-128.7068 253.1887,-135.4739"/>
</g>
<!-- Node253 -->
<g id="node13" class="node">
<title>Node253</title>
<g id="a_node13"><a xlink:href="client_8cpp.html#a1ea35c5db48e1175cdd55e4feb0ca6c8" target="_top" xlink:title="Convert positional arguments to command&#45;specific RPC representation. ">
<polygon fill="#ffffff" stroke="#000000" points="250.2373,-74.5 250.2373,-92.5 352.2041,-92.5 352.2041,-74.5 250.2373,-74.5"/>
<text text-anchor="middle" x="301.2207" y="-80.5" font-family="Helvetica,sans-Serif" font-size="10.00" fill="#000000">RPCConvertValues</text>
</a>
</g>
</g>
<!-- Node241&#45;&gt;Node253 -->
<g id="edge13" class="edge">
<title>Node241&#45;&gt;Node253</title>
<path fill="none" stroke="#191970" d="M105.9536,-185.4737C127.0675,-167.1407 177.9341,-125.3521 227.6299,-102.5 233.3731,-99.8591 239.5438,-97.5412 245.7811,-95.5179"/>
<polygon fill="#191970" stroke="#191970" points="247.0125,-98.8027 255.5852,-92.5769 245.0012,-92.0978 247.0125,-98.8027"/>
</g>
<!-- Node254 -->
<g id="node14" class="node">
<title>Node254</title>
<g id="a_node14"><a xlink:href="classinterfaces_1_1_node.html#a5f1109e67c9678f251953242fb7aac54" target="_top" xlink:title="Execute rpc command. ">
<polygon fill="#ffffff" stroke="#000000" points="227.6299,-37.5 227.6299,-55.5 374.8115,-55.5 374.8115,-37.5 227.6299,-37.5"/>
<text text-anchor="middle" x="301.2207" y="-43.5" font-family="Helvetica,sans-Serif" font-size="10.00" fill="#000000">interfaces::Node::executeRpc</text>
</a>
</g>
</g>
<!-- Node241&#45;&gt;Node254 -->
<g id="edge14" class="edge">
<title>Node241&#45;&gt;Node254</title>
<path fill="none" stroke="#191970" d="M102.3612,-185.3684C119.8355,-161.6904 170.1802,-97.9098 227.6299,-65.5 232.112,-62.9715 236.9363,-60.7724 241.8947,-58.8611"/>
<polygon fill="#191970" stroke="#191970" points="243.2311,-62.1024 251.5403,-55.5292 240.9456,-55.486 243.2311,-62.1024"/>
</g>
<!-- Node255 -->
<g id="node15" class="node">
<title>Node255</title>
<g id="a_node15"><a xlink:href="class_uni_value.html#a3d941ccb4afeb53cb104939e91c6f599" target="_top" xlink:title="UniValue::clear">
<polygon fill="#ffffff" stroke="#000000" points="259.6831,-.5 259.6831,-18.5 342.7583,-18.5 342.7583,-.5 259.6831,-.5"/>
<text text-anchor="middle" x="301.2207" y="-6.5" font-family="Helvetica,sans-Serif" font-size="10.00" fill="#000000">UniValue::clear</text>
</a>
</g>
</g>
<!-- Node241&#45;&gt;Node255 -->
<g id="edge15" class="edge">
<title>Node241&#45;&gt;Node255</title>
<path fill="none" stroke="#191970" d="M100.3604,-185.2412C114.7439,-156.9524 162.2088,-71.0051 227.6299,-28.5 234.3206,-24.1529 241.9565,-20.7994 249.7176,-18.2125"/>
<polygon fill="#191970" stroke="#191970" points="250.9423,-21.5009 259.5537,-15.3289 248.9729,-14.7836 250.9423,-21.5009"/>
</g>
<!-- Node244&#45;&gt;Node244 -->
<g id="edge4" class="edge">
<title>Node244&#45;&gt;Node244</title>
<path fill="none" stroke="#191970" d="M285.0049,-310.3634C261.2217,-319.9482 266.627,-333 301.2207,-333 330.4092,-333 338.818,-323.7083 326.4471,-315.0472"/>
<polygon fill="#191970" stroke="#191970" points="327.9237,-311.8702 317.4365,-310.3634 324.6951,-318.0811 327.9237,-311.8702"/>
</g>
<!-- Node249 -->
<g id="node9" class="node">
<title>Node249</title>
<g id="a_node9"><a xlink:href="class_uni_value.html#a4c9a5fa9114affbf31f6e346c032be12" target="_top" xlink:title="UniValue::getValStr">
<polygon fill="#ffffff" stroke="#000000" points="415.6211,-148.5 415.6211,-166.5 517.417,-166.5 517.417,-148.5 415.6211,-148.5"/>
<text text-anchor="middle" x="466.519" y="-154.5" font-family="Helvetica,sans-Serif" font-size="10.00" fill="#000000">UniValue::getValStr</text>
</a>
</g>
</g>
<!-- Node248&#45;&gt;Node249 -->
<g id="edge9" class="edge">
<title>Node248&#45;&gt;Node249</title>
<path fill="none" stroke="#191970" d="M347.2655,-157.5C365.242,-157.5 386.1137,-157.5 405.324,-157.5"/>
<polygon fill="#191970" stroke="#191970" points="405.4943,-161.0001 415.4942,-157.5 405.4942,-154.0001 405.4943,-161.0001"/>
</g>
<!-- Node251 -->
<g id="node11" class="node">
<title>Node251</title>
<g id="a_node11"><a xlink:href="class_uni_value.html#ae162dacdbb5a5a945f4d98db9b70d99f" target="_top" xlink:title="UniValue::writeObject">
<polygon fill="#ffffff" stroke="#000000" points="410.8115,-111.5 410.8115,-129.5 522.2266,-129.5 522.2266,-111.5 410.8115,-111.5"/>
<text text-anchor="middle" x="466.519" y="-117.5" font-family="Helvetica,sans-Serif" font-size="10.00" fill="#000000">UniValue::writeObject</text>
</a>
</g>
</g>
<!-- Node250&#45;&gt;Node251 -->
<g id="edge11" class="edge">
<title>Node250&#45;&gt;Node251</title>
<path fill="none" stroke="#191970" d="M342.5061,-120.5C360.0952,-120.5 381.0518,-120.5 400.6864,-120.5"/>
<polygon fill="#191970" stroke="#191970" points="400.8086,-124.0001 410.8086,-120.5 400.8086,-117.0001 400.8086,-124.0001"/>
</g>
<!-- Node252 -->
<g id="node12" class="node">
<title>Node252</title>
<g id="a_node12"><a xlink:href="class_uni_value.html#a2824e7181bfb79b0b46839c34db41927" target="_top" xlink:title="UniValue::writeArray">
<polygon fill="#ffffff" stroke="#000000" points="413.3164,-74.5 413.3164,-92.5 519.7217,-92.5 519.7217,-74.5 413.3164,-74.5"/>
<text text-anchor="middle" x="466.519" y="-80.5" font-family="Helvetica,sans-Serif" font-size="10.00" fill="#000000">UniValue::writeArray</text>
</a>
</g>
</g>
<!-- Node250&#45;&gt;Node252 -->
<g id="edge12" class="edge">
<title>Node250&#45;&gt;Node252</title>
<path fill="none" stroke="#191970" d="M341.6572,-111.4488C364.1541,-106.4131 392.3548,-100.1008 416.2606,-94.7497"/>
<polygon fill="#191970" stroke="#191970" points="417.2199,-98.1217 426.2138,-92.5218 415.6908,-91.2907 417.2199,-98.1217"/>
</g>
</g>
</svg>
