<?xml version="1.0" encoding="UTF-8" standalone="no"?>
<!DOCTYPE svg PUBLIC "-//W3C//DTD SVG 1.1//EN"
 "http://www.w3.org/Graphics/SVG/1.1/DTD/svg11.dtd">
<!-- Generated by graphviz version 2.40.1 (20161225.0304)
 -->
<!-- Title: WalletBatch::LoadWallet Pages: 1 -->
<svg width="300pt" height="138pt"
 viewBox="0.00 0.00 300.37 138.00" xmlns="http://www.w3.org/2000/svg" xmlns:xlink="http://www.w3.org/1999/xlink">
<g id="graph0" class="graph" transform="scale(1 1) rotate(0) translate(4 134)">
<title>WalletBatch::LoadWallet</title>
<polygon fill="#ffffff" stroke="transparent" points="-4,4 -4,-134 296.3652,-134 296.3652,4 -4,4"/>
<!-- Node124 -->
<g id="node1" class="node">
<title>Node124</title>
<polygon fill="#bfbfbf" stroke="#000000" points="0,-55.5 0,-73.5 124.208,-73.5 124.208,-55.5 0,-55.5"/>
<text text-anchor="middle" x="62.104" y="-61.5" font-family="Helvetica,sans-Serif" font-size="10.00" fill="#000000">WalletBatch::LoadWallet</text>
</g>
<!-- Node125 -->
<g id="node2" class="node">
<title>Node125</title>
<g id="a_node2"><a xlink:href="class_berkeley_batch.html#afbf2d778e5791c88149b8c6c1cab0ab8" target="_top" xlink:title="BerkeleyBatch::Read">
<polygon fill="#ffffff" stroke="#000000" points="171.3164,-111.5 171.3164,-129.5 281.2568,-129.5 281.2568,-111.5 171.3164,-111.5"/>
<text text-anchor="middle" x="226.2866" y="-117.5" font-family="Helvetica,sans-Serif" font-size="10.00" fill="#000000">BerkeleyBatch::Read</text>
</a>
</g>
</g>
<!-- Node124&#45;&gt;Node125 -->
<g id="edge1" class="edge">
<title>Node124&#45;&gt;Node125</title>
<path fill="none" stroke="#191970" d="M83.6904,-73.6052C103.4138,-81.7457 133.488,-93.712 160.208,-102.5 166.7343,-104.6464 173.6808,-106.7409 180.5254,-108.6976"/>
<polygon fill="#191970" stroke="#191970" points="179.8472,-112.1419 190.4198,-111.4557 181.7268,-105.399 179.8472,-112.1419"/>
</g>
<!-- Node126 -->
<g id="node3" class="node">
<title>Node126</title>
<g id="a_node3"><a xlink:href="class_c_wallet.html#ab23f2585ab9f1cc8284518b573048d2c" target="_top" xlink:title="CWallet::LoadMinVersion">
<polygon fill="#ffffff" stroke="#000000" points="162.3296,-74.5 162.3296,-92.5 290.2437,-92.5 290.2437,-74.5 162.3296,-74.5"/>
<text text-anchor="middle" x="226.2866" y="-80.5" font-family="Helvetica,sans-Serif" font-size="10.00" fill="#000000">CWallet::LoadMinVersion</text>
</a>
</g>
</g>
<!-- Node124&#45;&gt;Node126 -->
<g id="edge2" class="edge">
<title>Node124&#45;&gt;Node126</title>
<path fill="none" stroke="#191970" d="M124.6428,-71.7373C133.6935,-72.7847 143.081,-73.871 152.3294,-74.9413"/>
<polygon fill="#191970" stroke="#191970" points="151.9517,-78.4209 162.2878,-76.0937 152.7564,-71.4673 151.9517,-78.4209"/>
</g>
<!-- Node127 -->
<g id="node4" class="node">
<title>Node127</title>
<g id="a_node4"><a xlink:href="class_berkeley_batch.html#a1e32d0aeea205d2a9a57c62a9c2d9d7d" target="_top" xlink:title="BerkeleyBatch::GetCursor">
<polygon fill="#ffffff" stroke="#000000" points="160.208,-37.5 160.208,-55.5 292.3652,-55.5 292.3652,-37.5 160.208,-37.5"/>
<text text-anchor="middle" x="226.2866" y="-43.5" font-family="Helvetica,sans-Serif" font-size="10.00" fill="#000000">BerkeleyBatch::GetCursor</text>
</a>
</g>
</g>
<!-- Node124&#45;&gt;Node127 -->
<g id="edge3" class="edge">
<title>Node124&#45;&gt;Node127</title>
<path fill="none" stroke="#191970" d="M124.6428,-57.6436C132.9799,-56.7296 141.6027,-55.7842 150.1393,-54.8483"/>
<polygon fill="#191970" stroke="#191970" points="150.5398,-58.3255 160.0988,-53.7564 149.7769,-51.3672 150.5398,-58.3255"/>
</g>
<!-- Node128 -->
<g id="node5" class="node">
<title>Node128</title>
<g id="a_node5"><a xlink:href="class_c_wallet.html#a4083c9a8583aa7b355da55280a519cc8" target="_top" xlink:title="Prepends the wallet name in logging output to ease debugging in multi&#45;wallet use cases. ">
<polygon fill="#ffffff" stroke="#000000" points="164.4683,-.5 164.4683,-18.5 288.105,-18.5 288.105,-.5 164.4683,-.5"/>
<text text-anchor="middle" x="226.2866" y="-6.5" font-family="Helvetica,sans-Serif" font-size="10.00" fill="#000000">CWallet::WalletLogPrintf</text>
</a>
</g>
</g>
<!-- Node124&#45;&gt;Node128 -->
<g id="edge4" class="edge">
<title>Node124&#45;&gt;Node128</title>
<path fill="none" stroke="#191970" d="M85.3295,-55.4427C105.1051,-47.8598 134.3404,-36.953 160.208,-28.5 167.7072,-26.0494 175.7387,-23.5977 183.5278,-21.3088"/>
<polygon fill="#191970" stroke="#191970" points="184.5725,-24.6502 193.206,-18.509 182.6272,-17.9259 184.5725,-24.6502"/>
</g>
</g>
</svg>
