<?xml version="1.0" encoding="UTF-8" standalone="no"?>
<!DOCTYPE svg PUBLIC "-//W3C//DTD SVG 1.1//EN"
 "http://www.w3.org/Graphics/SVG/1.1/DTD/svg11.dtd">
<!-- Generated by graphviz version 2.40.1 (20161225.0304)
 -->
<!-- Title: CChain::Next Pages: 1 -->
<svg width="427pt" height="64pt"
 viewBox="0.00 0.00 427.02 64.00" xmlns="http://www.w3.org/2000/svg" xmlns:xlink="http://www.w3.org/1999/xlink">
<g id="graph0" class="graph" transform="scale(1 1) rotate(0) translate(4 60)">
<title>CChain::Next</title>
<polygon fill="#ffffff" stroke="transparent" points="-4,4 -4,-60 423.0186,-60 423.0186,4 -4,4"/>
<!-- Node142 -->
<g id="node1" class="node">
<title>Node142</title>
<polygon fill="#bfbfbf" stroke="#000000" points="0,-18.5 0,-36.5 75.4678,-36.5 75.4678,-18.5 0,-18.5"/>
<text text-anchor="middle" x="37.7339" y="-24.5" font-family="Helvetica,sans-Serif" font-size="10.00" fill="#000000">CChain::Next</text>
</g>
<!-- Node143 -->
<g id="node2" class="node">
<title>Node143</title>
<g id="a_node2"><a xlink:href="group__map_wallet.html#gaabb1db808d082d6df2b1e37cbf3f8f98" target="_top" xlink:title="Scan the block chain (starting in pindexStart) for transactions from or to us. ">
<polygon fill="#ffffff" stroke="#000000" points="111.4678,-37.5 111.4678,-55.5 289.7529,-55.5 289.7529,-37.5 111.4678,-37.5"/>
<text text-anchor="middle" x="200.6104" y="-43.5" font-family="Helvetica,sans-Serif" font-size="10.00" fill="#000000">CWallet::ScanForWalletTransactions</text>
</a>
</g>
</g>
<!-- Node142&#45;&gt;Node143 -->
<g id="edge1" class="edge">
<title>Node142&#45;&gt;Node143</title>
<path fill="none" stroke="#191970" d="M85.5788,-33.0812C97.4086,-34.4612 110.385,-35.975 123.2266,-37.473"/>
<polygon fill="#191970" stroke="#191970" points="85.8486,-29.5891 75.5104,-31.9067 85.0375,-36.5419 85.8486,-29.5891"/>
</g>
<!-- Node145 -->
<g id="node4" class="node">
<title>Node145</title>
<g id="a_node4"><a xlink:href="blockchain_8h.html#aa1e97ce578bfdae0125555bda5a2d48d" target="_top" xlink:title="Block header to JSON. ">
<polygon fill="#ffffff" stroke="#000000" points="146.7534,-.5 146.7534,-18.5 254.4673,-18.5 254.4673,-.5 146.7534,-.5"/>
<text text-anchor="middle" x="200.6104" y="-6.5" font-family="Helvetica,sans-Serif" font-size="10.00" fill="#000000">blockheaderToJSON</text>
</a>
</g>
</g>
<!-- Node142&#45;&gt;Node145 -->
<g id="edge3" class="edge">
<title>Node142&#45;&gt;Node145</title>
<path fill="none" stroke="#191970" d="M85.5305,-22.2178C104.7169,-20.0975 126.9258,-17.6431 146.6859,-15.4594"/>
<polygon fill="#191970" stroke="#191970" points="85.0654,-18.7478 75.5104,-23.3252 85.8344,-25.7055 85.0654,-18.7478"/>
</g>
<!-- Node144 -->
<g id="node3" class="node">
<title>Node144</title>
<g id="a_node3"><a xlink:href="rpcwallet_8cpp.html#a151535abf7394b299deb8d0a333de70b" target="_top" xlink:title="rescanblockchain">
<polygon fill="#ffffff" stroke="#000000" points="325.7529,-37.5 325.7529,-55.5 419.0186,-55.5 419.0186,-37.5 325.7529,-37.5"/>
<text text-anchor="middle" x="372.3857" y="-43.5" font-family="Helvetica,sans-Serif" font-size="10.00" fill="#000000">rescanblockchain</text>
</a>
</g>
</g>
<!-- Node143&#45;&gt;Node144 -->
<g id="edge2" class="edge">
<title>Node143&#45;&gt;Node144</title>
<path fill="none" stroke="#191970" d="M299.9127,-46.5C308.8419,-46.5 317.5726,-46.5 325.7061,-46.5"/>
<polygon fill="#191970" stroke="#191970" points="299.7685,-43.0001 289.7685,-46.5 299.7684,-50.0001 299.7685,-43.0001"/>
</g>
</g>
</svg>
