<?xml version="1.0" encoding="UTF-8" standalone="no"?>
<!DOCTYPE svg PUBLIC "-//W3C//DTD SVG 1.1//EN"
 "http://www.w3.org/Graphics/SVG/1.1/DTD/svg11.dtd">
<!-- Generated by graphviz version 2.40.1 (20161225.0304)
 -->
<!-- Title: CSVModelWriter::addColumn Pages: 1 -->
<svg width="502pt" height="74pt"
 viewBox="0.00 0.00 501.89 74.00" xmlns="http://www.w3.org/2000/svg" xmlns:xlink="http://www.w3.org/1999/xlink">
<g id="graph0" class="graph" transform="scale(1 1) rotate(0) translate(4 70)">
<title>CSVModelWriter::addColumn</title>
<polygon fill="#ffffff" stroke="transparent" points="-4,4 -4,-70 497.8867,-70 497.8867,4 -4,4"/>
<!-- Node3 -->
<g id="node1" class="node">
<title>Node3</title>
<polygon fill="#bfbfbf" stroke="#000000" points="0,-21.5 0,-39.5 146.9814,-39.5 146.9814,-21.5 0,-21.5"/>
<text text-anchor="middle" x="73.4907" y="-27.5" font-family="Helvetica,sans-Serif" font-size="10.00" fill="#000000">CSVModelWriter::addColumn</text>
</g>
<!-- Node4 -->
<g id="node2" class="node">
<title>Node4</title>
<g id="a_node2"><a xlink:href="class_address_book_page.html#a4f1d34f71ac7d4f64d4ba6bc87ee0525" target="_top" xlink:title="Export button clicked. ">
<polygon fill="#ffffff" stroke="#000000" points="202.9839,-37.5 202.9839,-65.5 318.4956,-65.5 318.4956,-37.5 202.9839,-37.5"/>
<text text-anchor="start" x="210.9839" y="-53.5" font-family="Helvetica,sans-Serif" font-size="10.00" fill="#000000">AddressBookPage::on</text>
<text text-anchor="middle" x="260.7397" y="-43.5" font-family="Helvetica,sans-Serif" font-size="10.00" fill="#000000">_exportButton_clicked</text>
</a>
</g>
</g>
<!-- Node3&#45;&gt;Node4 -->
<g id="edge1" class="edge">
<title>Node3&#45;&gt;Node4</title>
<path fill="none" stroke="#191970" d="M157.3009,-39.8993C172.7356,-41.6303 188.5302,-43.4017 202.9816,-45.0224"/>
<polygon fill="#191970" stroke="#191970" points="157.5555,-36.406 147.2277,-38.7696 156.7753,-43.3624 157.5555,-36.406"/>
</g>
<!-- Node5 -->
<g id="node3" class="node">
<title>Node5</title>
<g id="a_node3"><a xlink:href="class_transaction_view.html#a5983022ff1e5395f87de3c5728eff8da" target="_top" xlink:title="TransactionView::exportClicked">
<polygon fill="#ffffff" stroke="#000000" points="182.9814,-.5 182.9814,-18.5 338.498,-18.5 338.498,-.5 182.9814,-.5"/>
<text text-anchor="middle" x="260.7397" y="-6.5" font-family="Helvetica,sans-Serif" font-size="10.00" fill="#000000">TransactionView::exportClicked</text>
</a>
</g>
</g>
<!-- Node3&#45;&gt;Node5 -->
<g id="edge2" class="edge">
<title>Node3&#45;&gt;Node5</title>
<path fill="none" stroke="#191970" d="M157.4349,-21.0857C165.8612,-20.1406 174.3932,-19.1838 182.754,-18.2461"/>
<polygon fill="#191970" stroke="#191970" points="156.7753,-17.6376 147.2277,-22.2304 157.5555,-24.594 156.7753,-17.6376"/>
</g>
<!-- Node6 -->
<g id="node4" class="node">
<title>Node6</title>
<g id="a_node4"><a xlink:href="class_wallet_view.html#a8c584ab249ed6d5ca68c4f936ad74161" target="_top" xlink:title="WalletView::WalletView">
<polygon fill="#ffffff" stroke="#000000" points="374.498,-.5 374.498,-18.5 493.8867,-18.5 493.8867,-.5 374.498,-.5"/>
<text text-anchor="middle" x="434.1924" y="-6.5" font-family="Helvetica,sans-Serif" font-size="10.00" fill="#000000">WalletView::WalletView</text>
</a>
</g>
</g>
<!-- Node5&#45;&gt;Node6 -->
<g id="edge3" class="edge">
<title>Node5&#45;&gt;Node6</title>
<path fill="none" stroke="#191970" d="M348.7271,-9.5C357.3759,-9.5 366.008,-9.5 374.2792,-9.5"/>
<polygon fill="#191970" stroke="#191970" points="348.5871,-6.0001 338.5871,-9.5 348.587,-13.0001 348.5871,-6.0001"/>
</g>
</g>
</svg>
