<?xml version="1.0" encoding="UTF-8" standalone="no"?>
<!DOCTYPE svg PUBLIC "-//W3C//DTD SVG 1.1//EN"
 "http://www.w3.org/Graphics/SVG/1.1/DTD/svg11.dtd">
<!-- Generated by graphviz version 2.40.1 (20161225.0304)
 -->
<!-- Title: CoinControlDialog::buttonSelectAllClicked Pages: 1 -->
<svg width="262pt" height="37pt"
 viewBox="0.00 0.00 262.21 37.00" xmlns="http://www.w3.org/2000/svg" xmlns:xlink="http://www.w3.org/1999/xlink">
<g id="graph0" class="graph" transform="scale(1 1) rotate(0) translate(4 33)">
<title>CoinControlDialog::buttonSelectAllClicked</title>
<polygon fill="#ffffff" stroke="transparent" points="-4,4 -4,-33 258.2061,-33 258.2061,4 -4,4"/>
<!-- Node127 -->
<g id="node1" class="node">
<title>Node127</title>
<polygon fill="#bfbfbf" stroke="#000000" points="0,-.5 0,-28.5 115.4971,-28.5 115.4971,-.5 0,-.5"/>
<text text-anchor="start" x="8" y="-16.5" font-family="Helvetica,sans-Serif" font-size="10.00" fill="#000000">CoinControlDialog::</text>
<text text-anchor="middle" x="57.7485" y="-6.5" font-family="Helvetica,sans-Serif" font-size="10.00" fill="#000000">buttonSelectAllClicked</text>
</g>
<!-- Node128 -->
<g id="node2" class="node">
<title>Node128</title>
<g id="a_node2"><a xlink:href="class_coin_control_dialog.html#a3cec3ece6aa5eec3e7829e042356a659" target="_top" xlink:title="CoinControlDialog::\lCoinControlDialog">
<polygon fill="#ffffff" stroke="#000000" points="151.4971,-.5 151.4971,-28.5 254.2061,-28.5 254.2061,-.5 151.4971,-.5"/>
<text text-anchor="start" x="159.4971" y="-16.5" font-family="Helvetica,sans-Serif" font-size="10.00" fill="#000000">CoinControlDialog::</text>
<text text-anchor="middle" x="202.8516" y="-6.5" font-family="Helvetica,sans-Serif" font-size="10.00" fill="#000000">CoinControlDialog</text>
</a>
</g>
</g>
<!-- Node127&#45;&gt;Node128 -->
<g id="edge1" class="edge">
<title>Node127&#45;&gt;Node128</title>
<path fill="none" stroke="#191970" d="M125.6173,-14.5C134.2842,-14.5 143.0405,-14.5 151.3889,-14.5"/>
<polygon fill="#191970" stroke="#191970" points="125.5141,-11.0001 115.514,-14.5 125.514,-18.0001 125.5141,-11.0001"/>
</g>
</g>
</svg>
