<?xml version="1.0" encoding="UTF-8" standalone="no"?>
<!DOCTYPE svg PUBLIC "-//W3C//DTD SVG 1.1//EN"
 "http://www.w3.org/Graphics/SVG/1.1/DTD/svg11.dtd">
<!-- Generated by graphviz version 2.40.1 (20161225.0304)
 -->
<!-- Title: SendCoinsEntry::setAddress Pages: 1 -->
<svg width="535pt" height="27pt"
 viewBox="0.00 0.00 534.90 27.00" xmlns="http://www.w3.org/2000/svg" xmlns:xlink="http://www.w3.org/1999/xlink">
<g id="graph0" class="graph" transform="scale(1 1) rotate(0) translate(4 23)">
<title>SendCoinsEntry::setAddress</title>
<polygon fill="#ffffff" stroke="transparent" points="-4,4 -4,-23 530.9043,-23 530.9043,4 -4,4"/>
<!-- Node138 -->
<g id="node1" class="node">
<title>Node138</title>
<polygon fill="#bfbfbf" stroke="#000000" points="0,-.5 0,-18.5 143.8418,-18.5 143.8418,-.5 0,-.5"/>
<text text-anchor="middle" x="71.9209" y="-6.5" font-family="Helvetica,sans-Serif" font-size="10.00" fill="#000000">SendCoinsEntry::setAddress</text>
</g>
<!-- Node139 -->
<g id="node2" class="node">
<title>Node139</title>
<g id="a_node2"><a xlink:href="class_send_coins_dialog.html#a920b2dbf121ca3cfac2adc56e96295f8" target="_top" xlink:title="SendCoinsDialog::setAddress">
<polygon fill="#ffffff" stroke="#000000" points="179.8418,-.5 179.8418,-18.5 328.6934,-18.5 328.6934,-.5 179.8418,-.5"/>
<text text-anchor="middle" x="254.2676" y="-6.5" font-family="Helvetica,sans-Serif" font-size="10.00" fill="#000000">SendCoinsDialog::setAddress</text>
</a>
</g>
</g>
<!-- Node138&#45;&gt;Node139 -->
<g id="edge1" class="edge">
<title>Node138&#45;&gt;Node139</title>
<path fill="none" stroke="#191970" d="M154.2668,-9.5C162.7509,-9.5 171.338,-9.5 179.7303,-9.5"/>
<polygon fill="#191970" stroke="#191970" points="153.9892,-6.0001 143.9891,-9.5 153.9891,-13.0001 153.9892,-6.0001"/>
</g>
<!-- Node140 -->
<g id="node3" class="node">
<title>Node140</title>
<g id="a_node3"><a xlink:href="class_wallet_view.html#a2a70c2b00b097dd7b83b6915bb037ea3" target="_top" xlink:title="Switch to send coins page. ">
<polygon fill="#ffffff" stroke="#000000" points="364.6934,-.5 364.6934,-18.5 526.9043,-18.5 526.9043,-.5 364.6934,-.5"/>
<text text-anchor="middle" x="445.7988" y="-6.5" font-family="Helvetica,sans-Serif" font-size="10.00" fill="#000000">WalletView::gotoSendCoinsPage</text>
</a>
</g>
</g>
<!-- Node139&#45;&gt;Node140 -->
<g id="edge2" class="edge">
<title>Node139&#45;&gt;Node140</title>
<path fill="none" stroke="#191970" d="M339.0702,-9.5C347.4963,-9.5 356.037,-9.5 364.427,-9.5"/>
<polygon fill="#191970" stroke="#191970" points="338.867,-6.0001 328.867,-9.5 338.867,-13.0001 338.867,-6.0001"/>
</g>
</g>
</svg>
