<?xml version="1.0" encoding="UTF-8" standalone="no"?>
<!DOCTYPE svg PUBLIC "-//W3C//DTD SVG 1.1//EN"
 "http://www.w3.org/Graphics/SVG/1.1/DTD/svg11.dtd">
<!-- Generated by graphviz version 2.40.1 (20161225.0304)
 -->
<!-- Title: CCrypter::SetKeyFromPassphrase Pages: 1 -->
<svg width="539pt" height="187pt"
 viewBox="0.00 0.00 538.90 187.00" xmlns="http://www.w3.org/2000/svg" xmlns:xlink="http://www.w3.org/1999/xlink">
<g id="graph0" class="graph" transform="scale(1 1) rotate(0) translate(4 183)">
<title>CCrypter::SetKeyFromPassphrase</title>
<polygon fill="#ffffff" stroke="transparent" points="-4,4 -4,-183 534.9033,-183 534.9033,4 -4,4"/>
<!-- Node38 -->
<g id="node1" class="node">
<title>Node38</title>
<polygon fill="#bfbfbf" stroke="#000000" points="0,-84.5 0,-102.5 169.9404,-102.5 169.9404,-84.5 0,-84.5"/>
<text text-anchor="middle" x="84.9702" y="-90.5" font-family="Helvetica,sans-Serif" font-size="10.00" fill="#000000">CCrypter::SetKeyFromPassphrase</text>
</g>
<!-- Node39 -->
<g id="node2" class="node">
<title>Node39</title>
<g id="a_node2"><a xlink:href="group__map_wallet.html#ga002c61a2b74f2c46063340c568e6cc1b" target="_top" xlink:title="CWallet::Unlock">
<polygon fill="#ffffff" stroke="#000000" points="248.2842,-160.5 248.2842,-178.5 335.0459,-178.5 335.0459,-160.5 248.2842,-160.5"/>
<text text-anchor="middle" x="291.665" y="-166.5" font-family="Helvetica,sans-Serif" font-size="10.00" fill="#000000">CWallet::Unlock</text>
</a>
</g>
</g>
<!-- Node38&#45;&gt;Node39 -->
<g id="edge1" class="edge">
<title>Node38&#45;&gt;Node39</title>
<path fill="none" stroke="#191970" d="M113.2429,-106.9244C137.4924,-118.1293 173.5444,-134.0594 205.9404,-145.5 221.825,-151.1096 239.7238,-156.2932 255.042,-160.3967"/>
<polygon fill="#191970" stroke="#191970" points="114.4749,-103.6372 103.9324,-102.5862 111.5185,-109.9822 114.4749,-103.6372"/>
</g>
<!-- Node40 -->
<g id="node3" class="node">
<title>Node40</title>
<g id="a_node3"><a xlink:href="group__map_wallet.html#gab34fe5bf771619dcbe22a65f013e5469" target="_top" xlink:title="CWallet::EncryptWallet">
<polygon fill="#ffffff" stroke="#000000" points="413.3896,-141.5 413.3896,-159.5 530.9033,-159.5 530.9033,-141.5 413.3896,-141.5"/>
<text text-anchor="middle" x="472.1465" y="-147.5" font-family="Helvetica,sans-Serif" font-size="10.00" fill="#000000">CWallet::EncryptWallet</text>
</a>
</g>
</g>
<!-- Node38&#45;&gt;Node40 -->
<g id="edge4" class="edge">
<title>Node38&#45;&gt;Node40</title>
<path fill="none" stroke="#191970" d="M151.4905,-104.1193C169.1795,-106.8963 188.2775,-109.8524 205.9404,-112.5 277.1561,-123.1751 359.1983,-134.7819 413.1652,-142.322"/>
<polygon fill="#191970" stroke="#191970" points="151.6825,-100.6065 141.2598,-102.5086 150.5938,-107.5213 151.6825,-100.6065"/>
</g>
<!-- Node41 -->
<g id="node4" class="node">
<title>Node41</title>
<g id="a_node4"><a xlink:href="group__map_wallet.html#ga4abcec3066e7c462f4564c159fc15031" target="_top" xlink:title="CWallet::ChangeWalletPassphrase">
<polygon fill="#ffffff" stroke="#000000" points="205.9404,-84.5 205.9404,-102.5 377.3896,-102.5 377.3896,-84.5 205.9404,-84.5"/>
<text text-anchor="middle" x="291.665" y="-90.5" font-family="Helvetica,sans-Serif" font-size="10.00" fill="#000000">CWallet::ChangeWalletPassphrase</text>
</a>
</g>
</g>
<!-- Node38&#45;&gt;Node41 -->
<g id="edge3" class="edge">
<title>Node38&#45;&gt;Node41</title>
<path fill="none" stroke="#191970" d="M180.2427,-93.5C188.8097,-93.5 197.4511,-93.5 205.9296,-93.5"/>
<polygon fill="#191970" stroke="#191970" points="180.2343,-90.0001 170.2342,-93.5 180.2342,-97.0001 180.2343,-90.0001"/>
</g>
<!-- Node42 -->
<g id="node5" class="node">
<title>Node42</title>
<g id="a_node5"><a xlink:href="class_test_crypter.html#a98e2c77ec91e9861e10663cc1bf7a396" target="_top" xlink:title="TestCrypter::TestPassphrase\lSingle">
<polygon fill="#ffffff" stroke="#000000" points="219.7515,-37.5 219.7515,-65.5 363.5786,-65.5 363.5786,-37.5 219.7515,-37.5"/>
<text text-anchor="start" x="227.7515" y="-53.5" font-family="Helvetica,sans-Serif" font-size="10.00" fill="#000000">TestCrypter::TestPassphrase</text>
<text text-anchor="middle" x="291.665" y="-43.5" font-family="Helvetica,sans-Serif" font-size="10.00" fill="#000000">Single</text>
</a>
</g>
</g>
<!-- Node38&#45;&gt;Node42 -->
<g id="edge5" class="edge">
<title>Node38&#45;&gt;Node42</title>
<path fill="none" stroke="#191970" d="M139.1778,-82.4851C164.6963,-77.2998 195.4249,-71.0558 222.5906,-65.5358"/>
<polygon fill="#191970" stroke="#191970" points="138.4142,-79.0687 129.3114,-84.4899 139.8082,-85.9285 138.4142,-79.0687"/>
</g>
<!-- Node43 -->
<g id="node6" class="node">
<title>Node43</title>
<g id="a_node6"><a xlink:href="wallet__crypto__tests_8cpp.html#adf8fd6ed811b11c551c20f678e7f0c9b" target="_top" xlink:title="BOOST_AUTO_TEST_CASE">
<polygon fill="#ffffff" stroke="#000000" points="217.625,-.5 217.625,-18.5 365.7051,-18.5 365.7051,-.5 217.625,-.5"/>
<text text-anchor="middle" x="291.665" y="-6.5" font-family="Helvetica,sans-Serif" font-size="10.00" fill="#000000">BOOST_AUTO_TEST_CASE</text>
</a>
</g>
</g>
<!-- Node38&#45;&gt;Node43 -->
<g id="edge6" class="edge">
<title>Node38&#45;&gt;Node43</title>
<path fill="none" stroke="#191970" d="M107.4727,-78.9622C131.1215,-64.2806 169.8328,-41.9093 205.9404,-28.5 216.6582,-24.5197 228.4538,-21.2409 239.7758,-18.5941"/>
<polygon fill="#191970" stroke="#191970" points="105.4909,-76.074 98.8926,-84.3634 109.2201,-81.998 105.4909,-76.074"/>
</g>
<!-- Node39&#45;&gt;Node40 -->
<g id="edge2" class="edge">
<title>Node39&#45;&gt;Node40</title>
<path fill="none" stroke="#191970" d="M345.5271,-163.8297C366.8344,-161.5866 391.3916,-159.0014 413.175,-156.7082"/>
<polygon fill="#191970" stroke="#191970" points="344.9331,-160.3728 335.3546,-164.9006 345.6661,-167.3344 344.9331,-160.3728"/>
</g>
</g>
</svg>
