<?xml version="1.0" encoding="UTF-8" standalone="no"?>
<!DOCTYPE svg PUBLIC "-//W3C//DTD SVG 1.1//EN"
 "http://www.w3.org/Graphics/SVG/1.1/DTD/svg11.dtd">
<!-- Generated by graphviz version 2.40.1 (20161225.0304)
 -->
<!-- Title: org.bitcoin.NativeSecp256k1.sign Pages: 1 -->
<svg width="403pt" height="84pt"
 viewBox="0.00 0.00 402.87 84.00" xmlns="http://www.w3.org/2000/svg" xmlns:xlink="http://www.w3.org/1999/xlink">
<g id="graph0" class="graph" transform="scale(1 1) rotate(0) translate(4 80)">
<title>org.bitcoin.NativeSecp256k1.sign</title>
<polygon fill="#ffffff" stroke="transparent" points="-4,4 -4,-80 398.8701,-80 398.8701,4 -4,4"/>
<!-- Node122 -->
<g id="node1" class="node">
<title>Node122</title>
<polygon fill="#bfbfbf" stroke="#000000" points="0,-28.5 0,-46.5 164.4229,-46.5 164.4229,-28.5 0,-28.5"/>
<text text-anchor="middle" x="82.2114" y="-34.5" font-family="Helvetica,sans-Serif" font-size="10.00" fill="#000000">org.bitcoin.NativeSecp256k1.sign</text>
</g>
<!-- Node123 -->
<g id="node2" class="node">
<title>Node123</title>
<g id="a_node2"><a xlink:href="classorg_1_1bitcoin_1_1_native_secp256k1.html#a4cbaaf6d5a7327c539fa4f17ab3a1f10" target="_top" xlink:title="org.bitcoin.NativeSecp256k1.secp256k1\l_ecdsa_sign">
<polygon fill="#ffffff" stroke="#000000" points="200.4229,-47.5 200.4229,-75.5 394.8701,-75.5 394.8701,-47.5 200.4229,-47.5"/>
<text text-anchor="start" x="208.4229" y="-63.5" font-family="Helvetica,sans-Serif" font-size="10.00" fill="#000000">org.bitcoin.NativeSecp256k1.secp256k1</text>
<text text-anchor="middle" x="297.6465" y="-53.5" font-family="Helvetica,sans-Serif" font-size="10.00" fill="#000000">_ecdsa_sign</text>
</a>
</g>
</g>
<!-- Node122&#45;&gt;Node123 -->
<g id="edge1" class="edge">
<title>Node122&#45;&gt;Node123</title>
<path fill="none" stroke="#191970" d="M163.0444,-46.505C171.9879,-47.5013 181.1955,-48.5271 190.3986,-49.5523"/>
<polygon fill="#191970" stroke="#191970" points="190.0443,-53.0344 200.3704,-50.6632 190.8194,-46.0775 190.0443,-53.0344"/>
</g>
<!-- Node124 -->
<g id="node3" class="node">
<title>Node124</title>
<g id="a_node3"><a xlink:href="classorg_1_1bitcoin_1_1_secp256k1_context.html#a46e8cc0f7925f60a29c11c2f4f407de9" target="_top" xlink:title="org.bitcoin.Secp256k1Context.get\lContext">
<polygon fill="#ffffff" stroke="#000000" points="214.5977,-.5 214.5977,-28.5 380.6953,-28.5 380.6953,-.5 214.5977,-.5"/>
<text text-anchor="start" x="222.5977" y="-16.5" font-family="Helvetica,sans-Serif" font-size="10.00" fill="#000000">org.bitcoin.Secp256k1Context.get</text>
<text text-anchor="middle" x="297.6465" y="-6.5" font-family="Helvetica,sans-Serif" font-size="10.00" fill="#000000">Context</text>
</a>
</g>
</g>
<!-- Node122&#45;&gt;Node124 -->
<g id="edge2" class="edge">
<title>Node122&#45;&gt;Node124</title>
<path fill="none" stroke="#191970" d="M164.5803,-28.7062C177.5484,-27.3218 191.0361,-25.8818 204.2322,-24.473"/>
<polygon fill="#191970" stroke="#191970" points="204.6812,-27.945 214.2531,-23.4031 203.938,-20.9846 204.6812,-27.945"/>
</g>
</g>
</svg>
