<?xml version="1.0" encoding="UTF-8" standalone="no"?>
<!DOCTYPE svg PUBLIC "-//W3C//DTD SVG 1.1//EN"
 "http://www.w3.org/Graphics/SVG/1.1/DTD/svg11.dtd">
<!-- Generated by graphviz version 2.40.1 (20161225.0304)
 -->
<!-- Title: Span::size Pages: 1 -->
<svg width="172pt" height="101pt"
 viewBox="0.00 0.00 172.16 101.00" xmlns="http://www.w3.org/2000/svg" xmlns:xlink="http://www.w3.org/1999/xlink">
<g id="graph0" class="graph" transform="scale(1 1) rotate(0) translate(4 97)">
<title>Span::size</title>
<polygon fill="#ffffff" stroke="transparent" points="-4,4 -4,-97 168.1572,-97 168.1572,4 -4,4"/>
<!-- Node21 -->
<g id="node1" class="node">
<title>Node21</title>
<polygon fill="#bfbfbf" stroke="#000000" points="0,-37.5 0,-55.5 62.6943,-55.5 62.6943,-37.5 0,-37.5"/>
<text text-anchor="middle" x="31.3472" y="-43.5" font-family="Helvetica,sans-Serif" font-size="10.00" fill="#000000">Span::size</text>
</g>
<!-- Node22 -->
<g id="node2" class="node">
<title>Node22</title>
<g id="a_node2"><a xlink:href="descriptor_8h.html#a967390c7d7e5f248617364ad2941b7d1" target="_top" xlink:title="Parse a descriptor string. ">
<polygon fill="#ffffff" stroke="#000000" points="110.3643,-74.5 110.3643,-92.5 152.4873,-92.5 152.4873,-74.5 110.3643,-74.5"/>
<text text-anchor="middle" x="131.4258" y="-80.5" font-family="Helvetica,sans-Serif" font-size="10.00" fill="#000000">Parse</text>
</a>
</g>
</g>
<!-- Node21&#45;&gt;Node22 -->
<g id="edge1" class="edge">
<title>Node21&#45;&gt;Node22</title>
<path fill="none" stroke="#191970" d="M65.2495,-59.034C80.1512,-64.5433 97.191,-70.8431 110.2476,-75.6702"/>
<polygon fill="#191970" stroke="#191970" points="66.4224,-55.7361 55.8292,-55.5512 63.9949,-62.3018 66.4224,-55.7361"/>
</g>
<!-- Node23 -->
<g id="node3" class="node">
<title>Node23</title>
<g id="a_node3"><a xlink:href="serialize_8h.html#a9c5aaaf1d9240002799aa4a736f27fe9" target="_top" xlink:title="Serialize">
<polygon fill="#ffffff" stroke="#000000" points="104.251,-37.5 104.251,-55.5 158.6006,-55.5 158.6006,-37.5 104.251,-37.5"/>
<text text-anchor="middle" x="131.4258" y="-43.5" font-family="Helvetica,sans-Serif" font-size="10.00" fill="#000000">Serialize</text>
</a>
</g>
</g>
<!-- Node21&#45;&gt;Node23 -->
<g id="edge2" class="edge">
<title>Node21&#45;&gt;Node23</title>
<path fill="none" stroke="#191970" d="M73.0252,-46.5C83.5535,-46.5 94.59,-46.5 104.1987,-46.5"/>
<polygon fill="#191970" stroke="#191970" points="72.7381,-43.0001 62.7381,-46.5 72.738,-50.0001 72.7381,-43.0001"/>
</g>
<!-- Node24 -->
<g id="node4" class="node">
<title>Node24</title>
<g id="a_node4"><a xlink:href="serialize_8h.html#a81dcaebe33350f41d4529433abee9a5b" target="_top" xlink:title="Unserialize">
<polygon fill="#ffffff" stroke="#000000" points="98.6943,-.5 98.6943,-18.5 164.1572,-18.5 164.1572,-.5 98.6943,-.5"/>
<text text-anchor="middle" x="131.4258" y="-6.5" font-family="Helvetica,sans-Serif" font-size="10.00" fill="#000000">Unserialize</text>
</a>
</g>
</g>
<!-- Node21&#45;&gt;Node24 -->
<g id="edge3" class="edge">
<title>Node21&#45;&gt;Node24</title>
<path fill="none" stroke="#191970" d="M65.3619,-33.9244C78.9744,-28.8918 94.3557,-23.2052 106.8497,-18.586"/>
<polygon fill="#191970" stroke="#191970" points="63.9949,-30.6982 55.8292,-37.4488 66.4224,-37.2639 63.9949,-30.6982"/>
</g>
</g>
</svg>
