<?xml version="1.0" encoding="UTF-8" standalone="no"?>
<!DOCTYPE svg PUBLIC "-//W3C//DTD SVG 1.1//EN"
 "http://www.w3.org/Graphics/SVG/1.1/DTD/svg11.dtd">
<!-- Generated by graphviz version 2.40.1 (20161225.0304)
 -->
<!-- Title: SingleThreadedSchedulerClient::MaybeScheduleProcessQueue Pages: 1 -->
<svg width="554pt" height="84pt"
 viewBox="0.00 0.00 553.82 84.00" xmlns="http://www.w3.org/2000/svg" xmlns:xlink="http://www.w3.org/1999/xlink">
<g id="graph0" class="graph" transform="scale(1 1) rotate(0) translate(4 80)">
<title>SingleThreadedSchedulerClient::MaybeScheduleProcessQueue</title>
<polygon fill="#ffffff" stroke="transparent" points="-4,4 -4,-80 549.8203,-80 549.8203,4 -4,4"/>
<!-- Node22 -->
<g id="node1" class="node">
<title>Node22</title>
<polygon fill="#bfbfbf" stroke="#000000" points="0,-47.5 0,-75.5 159.418,-75.5 159.418,-47.5 0,-47.5"/>
<text text-anchor="start" x="8" y="-63.5" font-family="Helvetica,sans-Serif" font-size="10.00" fill="#000000">SingleThreadedSchedulerClient</text>
<text text-anchor="middle" x="79.709" y="-53.5" font-family="Helvetica,sans-Serif" font-size="10.00" fill="#000000">::MaybeScheduleProcessQueue</text>
</g>
<!-- Node23 -->
<g id="node2" class="node">
<title>Node23</title>
<g id="a_node2"><a xlink:href="class_single_threaded_scheduler_client.html#a0a1198fe58f64c7337944173db7ed579" target="_top" xlink:title="SingleThreadedSchedulerClient\l::ProcessQueue">
<polygon fill="#ffffff" stroke="#000000" points="195.418,-47.5 195.418,-75.5 352.6191,-75.5 352.6191,-47.5 195.418,-47.5"/>
<text text-anchor="start" x="203.418" y="-63.5" font-family="Helvetica,sans-Serif" font-size="10.00" fill="#000000">SingleThreadedSchedulerClient</text>
<text text-anchor="middle" x="274.0186" y="-53.5" font-family="Helvetica,sans-Serif" font-size="10.00" fill="#000000">::ProcessQueue</text>
</a>
</g>
</g>
<!-- Node22&#45;&gt;Node23 -->
<g id="edge1" class="edge">
<title>Node22&#45;&gt;Node23</title>
<path fill="none" stroke="#191970" d="M169.6308,-54.7667C178.2335,-54.727 186.9122,-54.7582 195.3951,-54.8603"/>
<polygon fill="#191970" stroke="#191970" points="169.5554,-51.267 159.5833,-54.8458 169.6106,-58.2668 169.5554,-51.267"/>
</g>
<!-- Node25 -->
<g id="node4" class="node">
<title>Node25</title>
<g id="a_node4"><a xlink:href="class_single_threaded_scheduler_client.html#a627fd930cb0b0a84660a9698ee4d3fdc" target="_top" xlink:title="Add a callback to be executed. ">
<polygon fill="#ffffff" stroke="#000000" points="195.418,-.5 195.418,-28.5 352.6191,-28.5 352.6191,-.5 195.418,-.5"/>
<text text-anchor="start" x="203.418" y="-16.5" font-family="Helvetica,sans-Serif" font-size="10.00" fill="#000000">SingleThreadedSchedulerClient</text>
<text text-anchor="middle" x="274.0186" y="-6.5" font-family="Helvetica,sans-Serif" font-size="10.00" fill="#000000">::AddToProcessQueue</text>
</a>
</g>
</g>
<!-- Node22&#45;&gt;Node25 -->
<g id="edge4" class="edge">
<title>Node22&#45;&gt;Node25</title>
<path fill="none" stroke="#191970" d="M147.4873,-45.1056C169.8089,-39.7065 194.4141,-33.7549 215.946,-28.5467"/>
<polygon fill="#191970" stroke="#191970" points="146.6419,-41.7091 137.7451,-47.4621 148.2877,-48.5129 146.6419,-41.7091"/>
</g>
<!-- Node23&#45;&gt;Node22 -->
<g id="edge2" class="edge">
<title>Node23&#45;&gt;Node22</title>
<path fill="none" stroke="#191970" d="M185.3633,-68.227C176.7687,-68.2736 168.0848,-68.2494 159.5833,-68.1542"/>
<polygon fill="#191970" stroke="#191970" points="185.426,-71.7267 195.3951,-68.1397 185.365,-64.7269 185.426,-71.7267"/>
</g>
<!-- Node24 -->
<g id="node3" class="node">
<title>Node24</title>
<g id="a_node3"><a xlink:href="class_single_threaded_scheduler_client.html#a00007a60e2f73bc9932aeb3f7a446b77" target="_top" xlink:title="SingleThreadedSchedulerClient\l::EmptyQueue">
<polygon fill="#ffffff" stroke="#000000" points="388.6191,-47.5 388.6191,-75.5 545.8203,-75.5 545.8203,-47.5 388.6191,-47.5"/>
<text text-anchor="start" x="396.6191" y="-63.5" font-family="Helvetica,sans-Serif" font-size="10.00" fill="#000000">SingleThreadedSchedulerClient</text>
<text text-anchor="middle" x="467.2197" y="-53.5" font-family="Helvetica,sans-Serif" font-size="10.00" fill="#000000">::EmptyQueue</text>
</a>
</g>
</g>
<!-- Node23&#45;&gt;Node24 -->
<g id="edge3" class="edge">
<title>Node23&#45;&gt;Node24</title>
<path fill="none" stroke="#191970" d="M362.898,-61.5C371.4782,-61.5 380.1401,-61.5 388.6108,-61.5"/>
<polygon fill="#191970" stroke="#191970" points="362.8796,-58.0001 352.8795,-61.5 362.8795,-65.0001 362.8796,-58.0001"/>
</g>
</g>
</svg>
