<?xml version="1.0" encoding="UTF-8" standalone="no"?>
<!DOCTYPE svg PUBLIC "-//W3C//DTD SVG 1.1//EN"
 "http://www.w3.org/Graphics/SVG/1.1/DTD/svg11.dtd">
<!-- Generated by graphviz version 2.40.1 (20161225.0304)
 -->
<!-- Title: WalletModel::checkBalanceChanged Pages: 1 -->
<svg width="316pt" height="37pt"
 viewBox="0.00 0.00 315.94 37.00" xmlns="http://www.w3.org/2000/svg" xmlns:xlink="http://www.w3.org/1999/xlink">
<g id="graph0" class="graph" transform="scale(1 1) rotate(0) translate(4 33)">
<title>WalletModel::checkBalanceChanged</title>
<polygon fill="#ffffff" stroke="transparent" points="-4,4 -4,-33 311.9365,-33 311.9365,4 -4,4"/>
<!-- Node69 -->
<g id="node1" class="node">
<title>Node69</title>
<polygon fill="#bfbfbf" stroke="#000000" points="0,-.5 0,-28.5 138.4707,-28.5 138.4707,-.5 0,-.5"/>
<text text-anchor="start" x="8" y="-16.5" font-family="Helvetica,sans-Serif" font-size="10.00" fill="#000000">WalletModel::checkBalance</text>
<text text-anchor="middle" x="69.2354" y="-6.5" font-family="Helvetica,sans-Serif" font-size="10.00" fill="#000000">Changed</text>
</g>
<!-- Node70 -->
<g id="node2" class="node">
<title>Node70</title>
<g id="a_node2"><a xlink:href="structinterfaces_1_1_wallet_balances.html#af1576e63534f284af21977f674d409bd" target="_top" xlink:title="interfaces::WalletBalances\l::balanceChanged">
<polygon fill="#ffffff" stroke="#000000" points="174.4707,-.5 174.4707,-28.5 307.9365,-28.5 307.9365,-.5 174.4707,-.5"/>
<text text-anchor="start" x="182.4707" y="-16.5" font-family="Helvetica,sans-Serif" font-size="10.00" fill="#000000">interfaces::WalletBalances</text>
<text text-anchor="middle" x="241.2036" y="-6.5" font-family="Helvetica,sans-Serif" font-size="10.00" fill="#000000">::balanceChanged</text>
</a>
</g>
</g>
<!-- Node69&#45;&gt;Node70 -->
<g id="edge1" class="edge">
<title>Node69&#45;&gt;Node70</title>
<path fill="none" stroke="#191970" d="M138.6857,-14.5C147.036,-14.5 155.6025,-14.5 164.0539,-14.5"/>
<polygon fill="#191970" stroke="#191970" points="164.2835,-18.0001 174.2834,-14.5 164.2834,-11.0001 164.2835,-18.0001"/>
</g>
</g>
</svg>
