<?xml version="1.0" encoding="UTF-8" standalone="no"?>
<!DOCTYPE svg PUBLIC "-//W3C//DTD SVG 1.1//EN"
 "http://www.w3.org/Graphics/SVG/1.1/DTD/svg11.dtd">
<!-- Generated by graphviz version 2.40.1 (20161225.0304)
 -->
<!-- Title: CTxOut::IsNull Pages: 1 -->
<svg width="1101pt" height="397pt"
 viewBox="0.00 0.00 1100.97 397.00" xmlns="http://www.w3.org/2000/svg" xmlns:xlink="http://www.w3.org/1999/xlink">
<g id="graph0" class="graph" transform="scale(1 1) rotate(0) translate(4 393)">
<title>CTxOut::IsNull</title>
<polygon fill="#ffffff" stroke="transparent" points="-4,4 -4,-393 1096.9707,-393 1096.9707,4 -4,4"/>
<!-- Node22 -->
<g id="node1" class="node">
<title>Node22</title>
<polygon fill="#bfbfbf" stroke="#000000" points="0,-92.5 0,-110.5 81.0098,-110.5 81.0098,-92.5 0,-92.5"/>
<text text-anchor="middle" x="40.5049" y="-98.5" font-family="Helvetica,sans-Serif" font-size="10.00" fill="#000000">CTxOut::IsNull</text>
</g>
<!-- Node23 -->
<g id="node2" class="node">
<title>Node23</title>
<g id="a_node2"><a xlink:href="class_coin.html#ad900ffd083fd31e3b52adf3dc4092953" target="_top" xlink:title="Coin::IsSpent">
<polygon fill="#ffffff" stroke="#000000" points="129.5171,-240.5 129.5171,-258.5 205.5513,-258.5 205.5513,-240.5 129.5171,-240.5"/>
<text text-anchor="middle" x="167.5342" y="-246.5" font-family="Helvetica,sans-Serif" font-size="10.00" fill="#000000">Coin::IsSpent</text>
</a>
</g>
</g>
<!-- Node22&#45;&gt;Node23 -->
<g id="edge1" class="edge">
<title>Node22&#45;&gt;Node23</title>
<path fill="none" stroke="#191970" d="M55.2245,-118.6496C82.2094,-150.0893 138.7421,-215.9548 159.5909,-240.2454"/>
<polygon fill="#191970" stroke="#191970" points="57.62,-116.0667 48.4511,-110.7581 52.3083,-120.6259 57.62,-116.0667"/>
</g>
<!-- Node39 -->
<g id="node18" class="node">
<title>Node39</title>
<g id="a_node18"><a xlink:href="rawtransaction_8cpp.html#a0e9b5930a41831d5be26d74565f07340" target="_top" xlink:title="decodepsbt">
<polygon fill="#ffffff" stroke="#000000" points="133.6797,-148.5 133.6797,-166.5 201.3887,-166.5 201.3887,-148.5 133.6797,-148.5"/>
<text text-anchor="middle" x="167.5342" y="-154.5" font-family="Helvetica,sans-Serif" font-size="10.00" fill="#000000">decodepsbt</text>
</a>
</g>
</g>
<!-- Node22&#45;&gt;Node39 -->
<g id="edge17" class="edge">
<title>Node22&#45;&gt;Node39</title>
<path fill="none" stroke="#191970" d="M67.1855,-115.1396C81.7602,-122.403 100.2136,-131.2979 117.0098,-138.5 125.1059,-141.9716 134.0685,-145.4554 142.1696,-148.4745"/>
<polygon fill="#191970" stroke="#191970" points="68.7313,-111.9993 58.2245,-110.6363 65.588,-118.254 68.7313,-111.9993"/>
</g>
<!-- Node40 -->
<g id="node19" class="node">
<title>Node40</title>
<g id="a_node19"><a xlink:href="sign_8h.html#a0672ff731255ff8be6d4f8c5abd68d6c" target="_top" xlink:title="Signs a PSBTInput, verifying that all provided data matches what is being signed. ...">
<polygon fill="#ffffff" stroke="#000000" points="125.3472,-111.5 125.3472,-129.5 209.7212,-129.5 209.7212,-111.5 125.3472,-111.5"/>
<text text-anchor="middle" x="167.5342" y="-117.5" font-family="Helvetica,sans-Serif" font-size="10.00" fill="#000000">SignPSBTInput</text>
</a>
</g>
</g>
<!-- Node22&#45;&gt;Node40 -->
<g id="edge18" class="edge">
<title>Node22&#45;&gt;Node40</title>
<path fill="none" stroke="#191970" d="M91.1955,-109.0819C102.4649,-110.7675 114.2964,-112.5371 125.1897,-114.1665"/>
<polygon fill="#191970" stroke="#191970" points="91.4548,-105.5818 81.047,-107.564 90.4192,-112.5048 91.4548,-105.5818"/>
</g>
<!-- Node45 -->
<g id="node24" class="node">
<title>Node45</title>
<g id="a_node24"><a xlink:href="struct_p_s_b_t_input.html#ab76c5026d804db4953c1b85c0c2d97a3" target="_top" xlink:title="PSBTInput::IsNull">
<polygon fill="#ffffff" stroke="#000000" points="120.0737,-74.5 120.0737,-92.5 214.9946,-92.5 214.9946,-74.5 120.0737,-74.5"/>
<text text-anchor="middle" x="167.5342" y="-80.5" font-family="Helvetica,sans-Serif" font-size="10.00" fill="#000000">PSBTInput::IsNull</text>
</a>
</g>
</g>
<!-- Node22&#45;&gt;Node45 -->
<g id="edge23" class="edge">
<title>Node22&#45;&gt;Node45</title>
<path fill="none" stroke="#191970" d="M91.1243,-94.3272C100.5946,-92.9853 110.4641,-91.5868 119.8421,-90.258"/>
<polygon fill="#191970" stroke="#191970" points="90.457,-90.8867 81.047,-95.7552 91.4392,-97.8175 90.457,-90.8867"/>
</g>
<!-- Node46 -->
<g id="node25" class="node">
<title>Node46</title>
<g id="a_node25"><a xlink:href="struct_p_s_b_t_input.html#ab9b76cc25410a1aea3cd3d01cba0bdb9" target="_top" xlink:title="PSBTInput::Merge">
<polygon fill="#ffffff" stroke="#000000" points="118.4038,-37.5 118.4038,-55.5 216.6646,-55.5 216.6646,-37.5 118.4038,-37.5"/>
<text text-anchor="middle" x="167.5342" y="-43.5" font-family="Helvetica,sans-Serif" font-size="10.00" fill="#000000">PSBTInput::Merge</text>
</a>
</g>
</g>
<!-- Node22&#45;&gt;Node46 -->
<g id="edge24" class="edge">
<title>Node22&#45;&gt;Node46</title>
<path fill="none" stroke="#191970" d="M66.8471,-87.8878C81.4514,-80.5632 100.0397,-71.602 117.0098,-64.5 124.4828,-61.3725 132.7118,-58.2918 140.3198,-55.5874"/>
<polygon fill="#191970" stroke="#191970" points="65.2216,-84.7877 57.8823,-92.4287 68.3847,-91.0323 65.2216,-84.7877"/>
</g>
<!-- Node47 -->
<g id="node26" class="node">
<title>Node47</title>
<g id="a_node26"><a xlink:href="struct_p_s_b_t_input.html#acc89d5e392e26780383d5e5b4c429772" target="_top" xlink:title="PSBTInput::IsSane">
<polygon fill="#ffffff" stroke="#000000" points="117.0098,-.5 117.0098,-18.5 218.0586,-18.5 218.0586,-.5 117.0098,-.5"/>
<text text-anchor="middle" x="167.5342" y="-6.5" font-family="Helvetica,sans-Serif" font-size="10.00" fill="#000000">PSBTInput::IsSane</text>
</a>
</g>
</g>
<!-- Node22&#45;&gt;Node47 -->
<g id="edge25" class="edge">
<title>Node22&#45;&gt;Node47</title>
<path fill="none" stroke="#191970" d="M54.0889,-84.693C68.2571,-68.1297 91.8746,-43.1013 117.0098,-27.5 122.7061,-23.9643 129.1947,-20.9936 135.5795,-18.5498"/>
<polygon fill="#191970" stroke="#191970" points="51.3037,-82.568 47.5833,-92.4882 56.6779,-87.0533 51.3037,-82.568"/>
</g>
<!-- Node24 -->
<g id="node3" class="node">
<title>Node24</title>
<g id="a_node3"><a xlink:href="class_c_coins_view_cache.html#aaeb452bec99d4fa667fec4c0df25dedf" target="_top" xlink:title="Retrieve the Coin (unspent transaction output) for a given outpoint. ">
<polygon fill="#ffffff" stroke="#000000" points="262.1934,-370.5 262.1934,-388.5 403.6279,-388.5 403.6279,-370.5 262.1934,-370.5"/>
<text text-anchor="middle" x="332.9106" y="-376.5" font-family="Helvetica,sans-Serif" font-size="10.00" fill="#000000">CCoinsViewCache::GetCoin</text>
</a>
</g>
</g>
<!-- Node23&#45;&gt;Node24 -->
<g id="edge2" class="edge">
<title>Node23&#45;&gt;Node24</title>
<path fill="none" stroke="#191970" d="M176.577,-267.9926C189.9132,-293.2315 217.3023,-338.0063 254.0586,-361.5 259.856,-365.2055 266.3229,-368.152 272.9907,-370.4942"/>
<polygon fill="#191970" stroke="#191970" points="179.5393,-266.0971 171.8773,-258.7797 173.3037,-269.2781 179.5393,-266.0971"/>
</g>
<!-- Node25 -->
<g id="node4" class="node">
<title>Node25</title>
<g id="a_node4"><a xlink:href="class_coin.html#a5a59da03966db508b1d4f99e5fe62610" target="_top" xlink:title="Coin::Serialize">
<polygon fill="#ffffff" stroke="#000000" points="292.6743,-333.5 292.6743,-351.5 373.147,-351.5 373.147,-333.5 292.6743,-333.5"/>
<text text-anchor="middle" x="332.9106" y="-339.5" font-family="Helvetica,sans-Serif" font-size="10.00" fill="#000000">Coin::Serialize</text>
</a>
</g>
</g>
<!-- Node23&#45;&gt;Node25 -->
<g id="edge3" class="edge">
<title>Node23&#45;&gt;Node25</title>
<path fill="none" stroke="#191970" d="M182.2222,-266.3842C198.1757,-283.6336 225.261,-309.8971 254.0586,-324.5 265.8308,-330.4695 279.5891,-334.4821 292.2879,-337.1699"/>
<polygon fill="#191970" stroke="#191970" points="184.6202,-263.8169 175.3259,-258.7309 179.4199,-268.5028 184.6202,-263.8169"/>
</g>
<!-- Node26 -->
<g id="node5" class="node">
<title>Node26</title>
<g id="a_node5"><a xlink:href="tx__verify_8h.html#a312fadbeec896d49437733e986f3df04" target="_top" xlink:title="Count ECDSA signature operations in pay&#45;to&#45;script&#45;hash inputs. ">
<polygon fill="#ffffff" stroke="#000000" points="276.5513,-296.5 276.5513,-314.5 389.27,-314.5 389.27,-296.5 276.5513,-296.5"/>
<text text-anchor="middle" x="332.9106" y="-302.5" font-family="Helvetica,sans-Serif" font-size="10.00" fill="#000000">GetP2SHSigOpCount</text>
</a>
</g>
</g>
<!-- Node23&#45;&gt;Node26 -->
<g id="edge4" class="edge">
<title>Node23&#45;&gt;Node26</title>
<path fill="none" stroke="#191970" d="M194.5862,-262.9651C211.3906,-270.9283 233.6136,-280.7446 254.0586,-287.5 264.4582,-290.9362 275.8407,-293.9495 286.6417,-296.4786"/>
<polygon fill="#191970" stroke="#191970" points="195.9008,-259.7135 185.3725,-258.5278 192.8634,-266.0202 195.9008,-259.7135"/>
</g>
<!-- Node27 -->
<g id="node6" class="node">
<title>Node27</title>
<g id="a_node6"><a xlink:href="rawtransaction_8h.html#a69f132a19b8e91bd9b0b1330b5323f0a" target="_top" xlink:title="Sign a transaction with the given keystore and previous transactions. ">
<polygon fill="#ffffff" stroke="#000000" points="288.9634,-259.5 288.9634,-277.5 376.8579,-277.5 376.8579,-259.5 288.9634,-259.5"/>
<text text-anchor="middle" x="332.9106" y="-265.5" font-family="Helvetica,sans-Serif" font-size="10.00" fill="#000000">SignTransaction</text>
</a>
</g>
</g>
<!-- Node23&#45;&gt;Node27 -->
<g id="edge5" class="edge">
<title>Node23&#45;&gt;Node27</title>
<path fill="none" stroke="#191970" d="M215.8312,-255.0488C238.9356,-257.7033 266.3991,-260.8585 288.9185,-263.4458"/>
<polygon fill="#191970" stroke="#191970" points="216.2247,-251.5711 205.8905,-253.9067 215.4257,-258.5253 216.2247,-251.5711"/>
</g>
<!-- Node29 -->
<g id="node8" class="node">
<title>Node29</title>
<g id="a_node8"><a xlink:href="class_c_tx_mem_pool.html#a14d49e10e7c1a12335bf983891c1ed07" target="_top" xlink:title="CTxMemPool::removeForReorg">
<polygon fill="#ffffff" stroke="#000000" points="254.0586,-222.5 254.0586,-240.5 411.7627,-240.5 411.7627,-222.5 254.0586,-222.5"/>
<text text-anchor="middle" x="332.9106" y="-228.5" font-family="Helvetica,sans-Serif" font-size="10.00" fill="#000000">CTxMemPool::removeForReorg</text>
</a>
</g>
</g>
<!-- Node23&#45;&gt;Node29 -->
<g id="edge7" class="edge">
<title>Node23&#45;&gt;Node29</title>
<path fill="none" stroke="#191970" d="M216.0441,-244.2201C227.9719,-242.9218 241.0512,-241.4982 254.0064,-240.0881"/>
<polygon fill="#191970" stroke="#191970" points="215.4531,-240.7636 205.8905,-245.3252 216.2106,-247.7225 215.4531,-240.7636"/>
</g>
<!-- Node30 -->
<g id="node9" class="node">
<title>Node30</title>
<g id="a_node9"><a xlink:href="validation_8h.html#ae62f71fbc880d892968f6276e0b806aa" target="_top" xlink:title="Retrieve a transaction (from memory pool, or from disk, if possible) ">
<polygon fill="#ffffff" stroke="#000000" points="290.9116,-185.5 290.9116,-203.5 374.9097,-203.5 374.9097,-185.5 290.9116,-185.5"/>
<text text-anchor="middle" x="332.9106" y="-191.5" font-family="Helvetica,sans-Serif" font-size="10.00" fill="#000000">GetTransaction</text>
</a>
</g>
</g>
<!-- Node23&#45;&gt;Node30 -->
<g id="edge8" class="edge">
<title>Node23&#45;&gt;Node30</title>
<path fill="none" stroke="#191970" d="M195.9872,-236.3269C212.6633,-228.945 234.2758,-219.9542 254.0586,-213.5 265.8391,-209.6566 278.838,-206.2104 290.8256,-203.3425"/>
<polygon fill="#191970" stroke="#191970" points="194.4795,-233.1672 186.7902,-240.456 197.3465,-239.5532 194.4795,-233.1672"/>
</g>
<!-- Node31 -->
<g id="node10" class="node">
<title>Node31</title>
<g id="a_node10"><a xlink:href="validation_8cpp.html#a492da8f7add38097a8e55f3445a9c83b" target="_top" xlink:title="Restore the UTXO in a Coin at a given COutPoint. ">
<polygon fill="#ffffff" stroke="#000000" points="290.7261,-148.5 290.7261,-166.5 375.0952,-166.5 375.0952,-148.5 290.7261,-148.5"/>
<text text-anchor="middle" x="332.9106" y="-154.5" font-family="Helvetica,sans-Serif" font-size="10.00" fill="#000000">ApplyTxInUndo</text>
</a>
</g>
</g>
<!-- Node23&#45;&gt;Node31 -->
<g id="edge9" class="edge">
<title>Node23&#45;&gt;Node31</title>
<path fill="none" stroke="#191970" d="M182.6052,-232.882C198.6953,-216.1566 225.729,-190.8419 254.0586,-176.5 265.3655,-170.7759 278.468,-166.7282 290.7062,-163.8857"/>
<polygon fill="#191970" stroke="#191970" points="179.9188,-230.6299 175.6278,-240.3169 185.0231,-235.4201 179.9188,-230.6299"/>
</g>
<!-- Node28 -->
<g id="node7" class="node">
<title>Node28</title>
<g id="a_node7"><a xlink:href="rpcwallet_8h.html#a7c13054932c9e3b351bd6277fa9361d7" target="_top" xlink:title="signrawtransactionwithwallet">
<polygon fill="#ffffff" stroke="#000000" points="452.4893,-259.5 452.4893,-277.5 595.2129,-277.5 595.2129,-259.5 452.4893,-259.5"/>
<text text-anchor="middle" x="523.8511" y="-265.5" font-family="Helvetica,sans-Serif" font-size="10.00" fill="#000000">signrawtransactionwithwallet</text>
</a>
</g>
</g>
<!-- Node27&#45;&gt;Node28 -->
<g id="edge6" class="edge">
<title>Node27&#45;&gt;Node28</title>
<path fill="none" stroke="#191970" d="M387.4293,-268.5C407.5686,-268.5 430.7077,-268.5 452.1407,-268.5"/>
<polygon fill="#191970" stroke="#191970" points="387.1962,-265.0001 377.1961,-268.5 387.1961,-272.0001 387.1962,-265.0001"/>
</g>
<!-- Node32 -->
<g id="node11" class="node">
<title>Node32</title>
<g id="a_node11"><a xlink:href="class_c_chain_state.html#a84c2802e12d40109c2189bfa8a5e0e8f" target="_top" xlink:title="Undo the effects of this block (with given index) on the UTXO set represented by coins. ">
<polygon fill="#ffffff" stroke="#000000" points="447.7627,-148.5 447.7627,-166.5 599.9395,-166.5 599.9395,-148.5 447.7627,-148.5"/>
<text text-anchor="middle" x="523.8511" y="-154.5" font-family="Helvetica,sans-Serif" font-size="10.00" fill="#000000">CChainState::DisconnectBlock</text>
</a>
</g>
</g>
<!-- Node31&#45;&gt;Node32 -->
<g id="edge10" class="edge">
<title>Node31&#45;&gt;Node32</title>
<path fill="none" stroke="#191970" d="M385.3101,-157.5C404.4724,-157.5 426.5636,-157.5 447.3958,-157.5"/>
<polygon fill="#191970" stroke="#191970" points="385.2865,-154.0001 375.2865,-157.5 385.2865,-161.0001 385.2865,-154.0001"/>
</g>
<!-- Node33 -->
<g id="node12" class="node">
<title>Node33</title>
<g id="a_node12"><a xlink:href="class_c_chain_state.html#a57682556dc35715fba5f0c6075efcc6e" target="_top" xlink:title="Disconnect chainActive&#39;s tip. ">
<polygon fill="#ffffff" stroke="#000000" points="635.9395,-148.5 635.9395,-166.5 777.1885,-166.5 777.1885,-148.5 635.9395,-148.5"/>
<text text-anchor="middle" x="706.564" y="-154.5" font-family="Helvetica,sans-Serif" font-size="10.00" fill="#000000">CChainState::DisconnectTip</text>
</a>
</g>
</g>
<!-- Node32&#45;&gt;Node33 -->
<g id="edge11" class="edge">
<title>Node32&#45;&gt;Node33</title>
<path fill="none" stroke="#191970" d="M610.0764,-157.5C618.6871,-157.5 627.3587,-157.5 635.784,-157.5"/>
<polygon fill="#191970" stroke="#191970" points="610.0148,-154.0001 600.0147,-157.5 610.0147,-161.0001 610.0148,-154.0001"/>
</g>
<!-- Node34 -->
<g id="node13" class="node">
<title>Node34</title>
<g id="a_node13"><a xlink:href="class_c_chain_state.html#afb6986710de5db645a000d4bac55cf9f" target="_top" xlink:title="Try to make some progress towards making pindexMostWork the active block. ">
<polygon fill="#ffffff" stroke="#000000" points="819.0283,-185.5 819.0283,-213.5 952.8652,-213.5 952.8652,-185.5 819.0283,-185.5"/>
<text text-anchor="start" x="827.0283" y="-201.5" font-family="Helvetica,sans-Serif" font-size="10.00" fill="#000000">CChainState::ActivateBest</text>
<text text-anchor="middle" x="885.9468" y="-191.5" font-family="Helvetica,sans-Serif" font-size="10.00" fill="#000000">ChainStep</text>
</a>
</g>
</g>
<!-- Node33&#45;&gt;Node34 -->
<g id="edge12" class="edge">
<title>Node33&#45;&gt;Node34</title>
<path fill="none" stroke="#191970" d="M754.7888,-168.7912C776.6984,-173.921 802.8408,-180.0419 825.9996,-185.4642"/>
<polygon fill="#191970" stroke="#191970" points="755.5807,-165.382 745.0461,-166.5101 753.9848,-172.1977 755.5807,-165.382"/>
</g>
<!-- Node35 -->
<g id="node14" class="node">
<title>Node35</title>
<g id="a_node14"><a xlink:href="class_c_chain_state.html#a657a2d93faf38567ef34aeb75295ef4e" target="_top" xlink:title="CChainState::InvalidateBlock">
<polygon fill="#ffffff" stroke="#000000" points="813.1885,-148.5 813.1885,-166.5 958.7051,-166.5 958.7051,-148.5 813.1885,-148.5"/>
<text text-anchor="middle" x="885.9468" y="-154.5" font-family="Helvetica,sans-Serif" font-size="10.00" fill="#000000">CChainState::InvalidateBlock</text>
</a>
</g>
</g>
<!-- Node33&#45;&gt;Node35 -->
<g id="edge13" class="edge">
<title>Node33&#45;&gt;Node35</title>
<path fill="none" stroke="#191970" d="M787.2198,-157.5C795.8125,-157.5 804.5169,-157.5 813.0132,-157.5"/>
<polygon fill="#191970" stroke="#191970" points="787.2033,-154.0001 777.2033,-157.5 787.2033,-161.0001 787.2033,-154.0001"/>
</g>
<!-- Node37 -->
<g id="node16" class="node">
<title>Node37</title>
<g id="a_node16"><a xlink:href="class_c_chain_state.html#afc0586502e4dd4092c4a0707d329f6eb" target="_top" xlink:title="CChainState::RewindBlock\lIndex">
<polygon fill="#ffffff" stroke="#000000" points="817.9175,-101.5 817.9175,-129.5 953.9761,-129.5 953.9761,-101.5 817.9175,-101.5"/>
<text text-anchor="start" x="825.9175" y="-117.5" font-family="Helvetica,sans-Serif" font-size="10.00" fill="#000000">CChainState::RewindBlock</text>
<text text-anchor="middle" x="885.9468" y="-107.5" font-family="Helvetica,sans-Serif" font-size="10.00" fill="#000000">Index</text>
</a>
</g>
</g>
<!-- Node33&#45;&gt;Node37 -->
<g id="edge15" class="edge">
<title>Node33&#45;&gt;Node37</title>
<path fill="none" stroke="#191970" d="M754.7888,-146.2088C776.6984,-141.079 802.8408,-134.9581 825.9996,-129.5358"/>
<polygon fill="#191970" stroke="#191970" points="753.9848,-142.8023 745.0461,-148.4899 755.5807,-149.618 753.9848,-142.8023"/>
</g>
<!-- Node36 -->
<g id="node15" class="node">
<title>Node36</title>
<g id="a_node15"><a xlink:href="validation_8h.html#ac1125805255945a06f6f6fe1d9c6c154" target="_top" xlink:title="Mark a block as invalid. ">
<polygon fill="#ffffff" stroke="#000000" points="1002.2075,-148.5 1002.2075,-166.5 1085.4683,-166.5 1085.4683,-148.5 1002.2075,-148.5"/>
<text text-anchor="middle" x="1043.8379" y="-154.5" font-family="Helvetica,sans-Serif" font-size="10.00" fill="#000000">InvalidateBlock</text>
</a>
</g>
</g>
<!-- Node35&#45;&gt;Node36 -->
<g id="edge14" class="edge">
<title>Node35&#45;&gt;Node36</title>
<path fill="none" stroke="#191970" d="M968.8986,-157.5C980.289,-157.5 991.5679,-157.5 1001.7836,-157.5"/>
<polygon fill="#191970" stroke="#191970" points="968.8841,-154.0001 958.8841,-157.5 968.884,-161.0001 968.8841,-154.0001"/>
</g>
<!-- Node38 -->
<g id="node17" class="node">
<title>Node38</title>
<g id="a_node17"><a xlink:href="validation_8h.html#a2e51de180124822c526ac8f82777fa32" target="_top" xlink:title="When there are blocks in the active chain with missing data, rewind the chainstate and remove them fr...">
<polygon fill="#ffffff" stroke="#000000" points="994.7051,-106.5 994.7051,-124.5 1092.9707,-124.5 1092.9707,-106.5 994.7051,-106.5"/>
<text text-anchor="middle" x="1043.8379" y="-112.5" font-family="Helvetica,sans-Serif" font-size="10.00" fill="#000000">RewindBlockIndex</text>
</a>
</g>
</g>
<!-- Node37&#45;&gt;Node38 -->
<g id="edge16" class="edge">
<title>Node37&#45;&gt;Node38</title>
<path fill="none" stroke="#191970" d="M964.4618,-115.5C974.6704,-115.5 984.8885,-115.5 994.4333,-115.5"/>
<polygon fill="#191970" stroke="#191970" points="964.2818,-112.0001 954.2818,-115.5 964.2818,-119.0001 964.2818,-112.0001"/>
</g>
<!-- Node41 -->
<g id="node20" class="node">
<title>Node41</title>
<g id="a_node20"><a xlink:href="rawtransaction_8cpp.html#a5edaef38949646889470912893a56b88" target="_top" xlink:title="finalizepsbt">
<polygon fill="#ffffff" stroke="#000000" points="299.896,-111.5 299.896,-129.5 365.9253,-129.5 365.9253,-111.5 299.896,-111.5"/>
<text text-anchor="middle" x="332.9106" y="-117.5" font-family="Helvetica,sans-Serif" font-size="10.00" fill="#000000">finalizepsbt</text>
</a>
</g>
</g>
<!-- Node40&#45;&gt;Node41 -->
<g id="edge19" class="edge">
<title>Node40&#45;&gt;Node41</title>
<path fill="none" stroke="#191970" d="M220.25,-120.5C246.3669,-120.5 277.0974,-120.5 299.8603,-120.5"/>
<polygon fill="#191970" stroke="#191970" points="220.1228,-117.0001 210.1227,-120.5 220.1227,-124.0001 220.1228,-117.0001"/>
</g>
<!-- Node42 -->
<g id="node21" class="node">
<title>Node42</title>
<g id="a_node21"><a xlink:href="rpcwallet_8h.html#ab2cdd07070dae2e6b1a2ea36a619b233" target="_top" xlink:title="FillPSBT">
<polygon fill="#ffffff" stroke="#000000" points="305.4648,-74.5 305.4648,-92.5 360.3564,-92.5 360.3564,-74.5 305.4648,-74.5"/>
<text text-anchor="middle" x="332.9106" y="-80.5" font-family="Helvetica,sans-Serif" font-size="10.00" fill="#000000">FillPSBT</text>
</a>
</g>
</g>
<!-- Node40&#45;&gt;Node42 -->
<g id="edge20" class="edge">
<title>Node40&#45;&gt;Node42</title>
<path fill="none" stroke="#191970" d="M217.8656,-109.2393C246.5957,-102.8114 281.5133,-94.9992 305.2915,-89.6793"/>
<polygon fill="#191970" stroke="#191970" points="216.9844,-105.8498 207.9898,-111.4488 218.5128,-112.6809 216.9844,-105.8498"/>
</g>
<!-- Node43 -->
<g id="node22" class="node">
<title>Node43</title>
<g id="a_node22"><a xlink:href="rpcwallet_8cpp.html#a9c99ceacf389a1ce91977c6f7ffa5022" target="_top" xlink:title="walletprocesspsbt">
<polygon fill="#ffffff" stroke="#000000" points="476.1099,-93.5 476.1099,-111.5 571.5923,-111.5 571.5923,-93.5 476.1099,-93.5"/>
<text text-anchor="middle" x="523.8511" y="-99.5" font-family="Helvetica,sans-Serif" font-size="10.00" fill="#000000">walletprocesspsbt</text>
</a>
</g>
</g>
<!-- Node42&#45;&gt;Node43 -->
<g id="edge21" class="edge">
<title>Node42&#45;&gt;Node43</title>
<path fill="none" stroke="#191970" d="M370.8162,-87.2719C401.038,-90.2792 443.5413,-94.5086 476.0883,-97.7472"/>
<polygon fill="#191970" stroke="#191970" points="370.9725,-83.7702 360.675,-86.2628 370.2793,-90.7358 370.9725,-83.7702"/>
</g>
<!-- Node44 -->
<g id="node23" class="node">
<title>Node44</title>
<g id="a_node23"><a xlink:href="rpcwallet_8cpp.html#afca55ac7a3c6c274b8b7b3e6eab9cd86" target="_top" xlink:title="walletcreatefundedpsbt">
<polygon fill="#ffffff" stroke="#000000" points="464.4277,-56.5 464.4277,-74.5 583.2744,-74.5 583.2744,-56.5 464.4277,-56.5"/>
<text text-anchor="middle" x="523.8511" y="-62.5" font-family="Helvetica,sans-Serif" font-size="10.00" fill="#000000">walletcreatefundedpsbt</text>
</a>
</g>
</g>
<!-- Node42&#45;&gt;Node44 -->
<g id="edge22" class="edge">
<title>Node42&#45;&gt;Node44</title>
<path fill="none" stroke="#191970" d="M370.743,-79.9335C397.3849,-77.422 433.5976,-74.0082 464.1166,-71.1312"/>
<polygon fill="#191970" stroke="#191970" points="370.3024,-76.4595 360.675,-80.8826 370.9594,-83.4286 370.3024,-76.4595"/>
</g>
</g>
</svg>
