<?xml version="1.0" encoding="UTF-8" standalone="no"?>
<!DOCTYPE svg PUBLIC "-//W3C//DTD SVG 1.1//EN"
 "http://www.w3.org/Graphics/SVG/1.1/DTD/svg11.dtd">
<!-- Generated by graphviz version 2.40.1 (20161225.0304)
 -->
<!-- Title: WalletModel::bumpFee Pages: 1 -->
<svg width="806pt" height="186pt"
 viewBox="0.00 0.00 805.94 186.00" xmlns="http://www.w3.org/2000/svg" xmlns:xlink="http://www.w3.org/1999/xlink">
<g id="graph0" class="graph" transform="scale(1 1) rotate(0) translate(4 182)">
<title>WalletModel::bumpFee</title>
<polygon fill="#ffffff" stroke="transparent" points="-4,4 -4,-182 801.9404,-182 801.9404,4 -4,4"/>
<!-- Node52 -->
<g id="node1" class="node">
<title>Node52</title>
<polygon fill="#bfbfbf" stroke="#000000" points="0,-47.5 0,-65.5 118.4561,-65.5 118.4561,-47.5 0,-47.5"/>
<text text-anchor="middle" x="59.228" y="-53.5" font-family="Helvetica,sans-Serif" font-size="10.00" fill="#000000">WalletModel::bumpFee</text>
</g>
<!-- Node53 -->
<g id="node2" class="node">
<title>Node53</title>
<g id="a_node2"><a xlink:href="class_bitcoin_units.html#a5f4ef08b81386d393a16001bdfef5d56" target="_top" xlink:title="Format as HTML string (with unit) ">
<polygon fill="#ffffff" stroke="#000000" points="168.7383,-84.5 168.7383,-112.5 291.9844,-112.5 291.9844,-84.5 168.7383,-84.5"/>
<text text-anchor="start" x="176.7383" y="-100.5" font-family="Helvetica,sans-Serif" font-size="10.00" fill="#000000">BitcoinUnits::formatHtml</text>
<text text-anchor="middle" x="230.3613" y="-90.5" font-family="Helvetica,sans-Serif" font-size="10.00" fill="#000000">WithUnit</text>
</a>
</g>
</g>
<!-- Node52&#45;&gt;Node53 -->
<g id="edge1" class="edge">
<title>Node52&#45;&gt;Node53</title>
<path fill="none" stroke="#191970" d="M95.9404,-65.5101C115.5318,-70.3182 140.2618,-76.3875 163.1523,-82.0054"/>
<polygon fill="#191970" stroke="#191970" points="162.625,-85.4798 173.171,-84.4642 164.2935,-78.6815 162.625,-85.4798"/>
</g>
<!-- Node61 -->
<g id="node10" class="node">
<title>Node61</title>
<g id="a_node10"><a xlink:href="class_wallet_model.html#a96d53e56b3f8f07537ea2523f7a7d300" target="_top" xlink:title="WalletModel::getOptionsModel">
<polygon fill="#ffffff" stroke="#000000" points="154.4561,-47.5 154.4561,-65.5 306.2666,-65.5 306.2666,-47.5 154.4561,-47.5"/>
<text text-anchor="middle" x="230.3613" y="-53.5" font-family="Helvetica,sans-Serif" font-size="10.00" fill="#000000">WalletModel::getOptionsModel</text>
</a>
</g>
</g>
<!-- Node52&#45;&gt;Node61 -->
<g id="edge9" class="edge">
<title>Node52&#45;&gt;Node61</title>
<path fill="none" stroke="#191970" d="M118.6019,-56.5C126.8589,-56.5 135.476,-56.5 144.1025,-56.5"/>
<polygon fill="#191970" stroke="#191970" points="144.2126,-60.0001 154.2126,-56.5 144.2126,-53.0001 144.2126,-60.0001"/>
</g>
<!-- Node62 -->
<g id="node11" class="node">
<title>Node62</title>
<g id="a_node11"><a xlink:href="class_send_confirmation_dialog.html#abf3d0b7f41287f492e050e827aaacb12" target="_top" xlink:title="SendConfirmationDialog\l::exec">
<polygon fill="#ffffff" stroke="#000000" points="168.1646,-.5 168.1646,-28.5 292.5581,-28.5 292.5581,-.5 168.1646,-.5"/>
<text text-anchor="start" x="176.1646" y="-16.5" font-family="Helvetica,sans-Serif" font-size="10.00" fill="#000000">SendConfirmationDialog</text>
<text text-anchor="middle" x="230.3613" y="-6.5" font-family="Helvetica,sans-Serif" font-size="10.00" fill="#000000">::exec</text>
</a>
</g>
</g>
<!-- Node52&#45;&gt;Node62 -->
<g id="edge10" class="edge">
<title>Node52&#45;&gt;Node62</title>
<path fill="none" stroke="#191970" d="M95.9404,-47.4899C115.5318,-42.6818 140.2618,-36.6125 163.1523,-30.9946"/>
<polygon fill="#191970" stroke="#191970" points="164.2935,-34.3185 173.171,-28.5358 162.625,-27.5202 164.2935,-34.3185"/>
</g>
<!-- Node54 -->
<g id="node3" class="node">
<title>Node54</title>
<g id="a_node3"><a xlink:href="class_bitcoin_units.html#aef9fb7509257bc84ee459d7f0c663020" target="_top" xlink:title="Format as string (with unit) ">
<polygon fill="#ffffff" stroke="#000000" points="342.2666,-89.5 342.2666,-107.5 482.7441,-107.5 482.7441,-89.5 342.2666,-89.5"/>
<text text-anchor="middle" x="412.5054" y="-95.5" font-family="Helvetica,sans-Serif" font-size="10.00" fill="#000000">BitcoinUnits::formatWithUnit</text>
</a>
</g>
</g>
<!-- Node53&#45;&gt;Node54 -->
<g id="edge2" class="edge">
<title>Node53&#45;&gt;Node54</title>
<path fill="none" stroke="#191970" d="M292.027,-98.5C304.8568,-98.5 318.5588,-98.5 331.9531,-98.5"/>
<polygon fill="#191970" stroke="#191970" points="332.1163,-102.0001 342.1163,-98.5 332.1163,-95.0001 332.1163,-102.0001"/>
</g>
<!-- Node55 -->
<g id="node4" class="node">
<title>Node55</title>
<g id="a_node4"><a xlink:href="class_bitcoin_units.html#ab07437e5a788c80a82d75e3714bd3925" target="_top" xlink:title="Format as string. ">
<polygon fill="#ffffff" stroke="#000000" points="529.0273,-112.5 529.0273,-130.5 631.7217,-130.5 631.7217,-112.5 529.0273,-112.5"/>
<text text-anchor="middle" x="580.3745" y="-118.5" font-family="Helvetica,sans-Serif" font-size="10.00" fill="#000000">BitcoinUnits::format</text>
</a>
</g>
</g>
<!-- Node54&#45;&gt;Node55 -->
<g id="edge3" class="edge">
<title>Node54&#45;&gt;Node55</title>
<path fill="none" stroke="#191970" d="M478.3699,-107.5242C491.7649,-109.3595 505.8044,-111.283 519.0347,-113.0957"/>
<polygon fill="#191970" stroke="#191970" points="518.5876,-116.5671 528.9702,-114.457 519.5379,-109.6319 518.5876,-116.5671"/>
</g>
<!-- Node59 -->
<g id="node8" class="node">
<title>Node59</title>
<g id="a_node8"><a xlink:href="class_bitcoin_units.html#af65eb534385613f176593cc7545136d0" target="_top" xlink:title="Short name. ">
<polygon fill="#ffffff" stroke="#000000" points="518.7441,-66.5 518.7441,-84.5 642.0049,-84.5 642.0049,-66.5 518.7441,-66.5"/>
<text text-anchor="middle" x="580.3745" y="-72.5" font-family="Helvetica,sans-Serif" font-size="10.00" fill="#000000">BitcoinUnits::shortName</text>
</a>
</g>
</g>
<!-- Node54&#45;&gt;Node59 -->
<g id="edge7" class="edge">
<title>Node54&#45;&gt;Node59</title>
<path fill="none" stroke="#191970" d="M478.3699,-89.4758C488.2902,-88.1166 498.564,-86.709 508.6008,-85.3338"/>
<polygon fill="#191970" stroke="#191970" points="509.1044,-88.7976 518.5367,-83.9725 508.1542,-81.8624 509.1044,-88.7976"/>
</g>
<!-- Node56 -->
<g id="node5" class="node">
<title>Node56</title>
<g id="a_node5"><a xlink:href="class_bitcoin_units.html#a81cbc41480adfb600dad79711d336e5f" target="_top" xlink:title="Is unit ID valid? ">
<polygon fill="#ffffff" stroke="#000000" points="690.5122,-159.5 690.5122,-177.5 785.4331,-177.5 785.4331,-159.5 690.5122,-159.5"/>
<text text-anchor="middle" x="737.9727" y="-165.5" font-family="Helvetica,sans-Serif" font-size="10.00" fill="#000000">BitcoinUnits::valid</text>
</a>
</g>
</g>
<!-- Node55&#45;&gt;Node56 -->
<g id="edge4" class="edge">
<title>Node55&#45;&gt;Node56</title>
<path fill="none" stroke="#191970" d="M610.761,-130.5621C635.6157,-137.9744 670.9621,-148.5157 698.091,-156.6062"/>
<polygon fill="#191970" stroke="#191970" points="697.0962,-159.9618 707.6794,-159.4657 699.0968,-153.2538 697.0962,-159.9618"/>
</g>
<!-- Node57 -->
<g id="node6" class="node">
<title>Node57</title>
<g id="a_node6"><a xlink:href="class_bitcoin_units.html#ae967b9e6ecbb8f041bfe398d27533b09" target="_top" xlink:title="Number of Satoshis (1e&#45;8) per unit. ">
<polygon fill="#ffffff" stroke="#000000" points="688.2905,-122.5 688.2905,-140.5 787.6548,-140.5 787.6548,-122.5 688.2905,-122.5"/>
<text text-anchor="middle" x="737.9727" y="-128.5" font-family="Helvetica,sans-Serif" font-size="10.00" fill="#000000">BitcoinUnits::factor</text>
</a>
</g>
</g>
<!-- Node55&#45;&gt;Node57 -->
<g id="edge5" class="edge">
<title>Node55&#45;&gt;Node57</title>
<path fill="none" stroke="#191970" d="M631.978,-124.7744C646.6386,-125.7046 662.7307,-126.7257 677.8495,-127.685"/>
<polygon fill="#191970" stroke="#191970" points="677.9297,-131.1971 688.1313,-128.3374 678.373,-124.2111 677.9297,-131.1971"/>
</g>
<!-- Node58 -->
<g id="node7" class="node">
<title>Node58</title>
<g id="a_node7"><a xlink:href="class_bitcoin_units.html#a3f0fc21634520ea06c684ba0d7e25f2f" target="_top" xlink:title="Number of decimals left. ">
<polygon fill="#ffffff" stroke="#000000" points="681.0664,-85.5 681.0664,-103.5 794.8789,-103.5 794.8789,-85.5 681.0664,-85.5"/>
<text text-anchor="middle" x="737.9727" y="-91.5" font-family="Helvetica,sans-Serif" font-size="10.00" fill="#000000">BitcoinUnits::decimals</text>
</a>
</g>
</g>
<!-- Node55&#45;&gt;Node58 -->
<g id="edge6" class="edge">
<title>Node55&#45;&gt;Node58</title>
<path fill="none" stroke="#191970" d="M631.978,-112.6592C645.703,-110.3078 660.6827,-107.7415 674.9438,-105.2982"/>
<polygon fill="#191970" stroke="#191970" points="675.9075,-108.6842 685.1729,-103.5458 674.7254,-101.7847 675.9075,-108.6842"/>
</g>
<!-- Node60 -->
<g id="node9" class="node">
<title>Node60</title>
<g id="a_node9"><a xlink:href="class_bitcoin_units.html#a97f983970ff33cae20996ba26ab257cd" target="_top" xlink:title="Long name. ">
<polygon fill="#ffffff" stroke="#000000" points="678.0049,-48.5 678.0049,-66.5 797.9404,-66.5 797.9404,-48.5 678.0049,-48.5"/>
<text text-anchor="middle" x="737.9727" y="-54.5" font-family="Helvetica,sans-Serif" font-size="10.00" fill="#000000">BitcoinUnits::longName</text>
</a>
</g>
</g>
<!-- Node59&#45;&gt;Node60 -->
<g id="edge8" class="edge">
<title>Node59&#45;&gt;Node60</title>
<path fill="none" stroke="#191970" d="M642.2091,-68.4376C650.6386,-67.4748 659.3399,-66.481 667.902,-65.5031"/>
<polygon fill="#191970" stroke="#191970" points="668.3264,-68.9775 677.8646,-64.3652 667.532,-62.0227 668.3264,-68.9775"/>
</g>
<!-- Node63 -->
<g id="node12" class="node">
<title>Node63</title>
<g id="a_node12"><a xlink:href="class_send_confirmation_dialog.html#a16d172238461a082fedb1d20490bdef7" target="_top" xlink:title="SendConfirmationDialog\l::updateYesButton">
<polygon fill="#ffffff" stroke="#000000" points="350.3086,-.5 350.3086,-28.5 474.7021,-28.5 474.7021,-.5 350.3086,-.5"/>
<text text-anchor="start" x="358.3086" y="-16.5" font-family="Helvetica,sans-Serif" font-size="10.00" fill="#000000">SendConfirmationDialog</text>
<text text-anchor="middle" x="412.5054" y="-6.5" font-family="Helvetica,sans-Serif" font-size="10.00" fill="#000000">::updateYesButton</text>
</a>
</g>
</g>
<!-- Node62&#45;&gt;Node63 -->
<g id="edge11" class="edge">
<title>Node62&#45;&gt;Node63</title>
<path fill="none" stroke="#191970" d="M292.7901,-14.5C307.9962,-14.5 324.3883,-14.5 340.0177,-14.5"/>
<polygon fill="#191970" stroke="#191970" points="340.1582,-18.0001 350.1581,-14.5 340.1581,-11.0001 340.1582,-18.0001"/>
</g>
</g>
</svg>
