<?xml version="1.0" encoding="UTF-8" standalone="no"?>
<!DOCTYPE svg PUBLIC "-//W3C//DTD SVG 1.1//EN"
 "http://www.w3.org/Graphics/SVG/1.1/DTD/svg11.dtd">
<!-- Generated by graphviz version 2.40.1 (20161225.0304)
 -->
<!-- Title: CompareTxMemPoolEntryByAncestorFee::operator() Pages: 1 -->
<svg width="414pt" height="37pt"
 viewBox="0.00 0.00 413.89 37.00" xmlns="http://www.w3.org/2000/svg" xmlns:xlink="http://www.w3.org/1999/xlink">
<g id="graph0" class="graph" transform="scale(1 1) rotate(0) translate(4 33)">
<title>CompareTxMemPoolEntryByAncestorFee::operator()</title>
<polygon fill="#ffffff" stroke="transparent" points="-4,4 -4,-33 409.8906,-33 409.8906,4 -4,4"/>
<!-- Node3 -->
<g id="node1" class="node">
<title>Node3</title>
<polygon fill="#bfbfbf" stroke="#000000" points="0,-.5 0,-28.5 184.9453,-28.5 184.9453,-.5 0,-.5"/>
<text text-anchor="start" x="8" y="-16.5" font-family="Helvetica,sans-Serif" font-size="10.00" fill="#000000">CompareTxMemPoolEntryByAncestor</text>
<text text-anchor="middle" x="92.4727" y="-6.5" font-family="Helvetica,sans-Serif" font-size="10.00" fill="#000000">Fee::operator()</text>
</g>
<!-- Node4 -->
<g id="node2" class="node">
<title>Node4</title>
<g id="a_node2"><a xlink:href="class_compare_tx_mem_pool_entry_by_ancestor_fee.html#ae420bb93f5fa454acec32ddcb1d615fc" target="_top" xlink:title="CompareTxMemPoolEntryByAncestor\lFee::GetModFeeAndSize">
<polygon fill="#ffffff" stroke="#000000" points="220.9453,-.5 220.9453,-28.5 405.8906,-28.5 405.8906,-.5 220.9453,-.5"/>
<text text-anchor="start" x="228.9453" y="-16.5" font-family="Helvetica,sans-Serif" font-size="10.00" fill="#000000">CompareTxMemPoolEntryByAncestor</text>
<text text-anchor="middle" x="313.418" y="-6.5" font-family="Helvetica,sans-Serif" font-size="10.00" fill="#000000">Fee::GetModFeeAndSize</text>
</a>
</g>
</g>
<!-- Node3&#45;&gt;Node4 -->
<g id="edge1" class="edge">
<title>Node3&#45;&gt;Node4</title>
<path fill="none" stroke="#191970" d="M185.213,-14.5C193.701,-14.5 202.3324,-14.5 210.8997,-14.5"/>
<polygon fill="#191970" stroke="#191970" points="210.915,-18.0001 220.915,-14.5 210.915,-11.0001 210.915,-18.0001"/>
</g>
</g>
</svg>
