<?xml version="1.0" encoding="UTF-8" standalone="no"?>
<!DOCTYPE svg PUBLIC "-//W3C//DTD SVG 1.1//EN"
 "http://www.w3.org/Graphics/SVG/1.1/DTD/svg11.dtd">
<!-- Generated by graphviz version 2.40.1 (20161225.0304)
 -->
<!-- Title: UniValue::setNumStr Pages: 1 -->
<svg width="485pt" height="119pt"
 viewBox="0.00 0.00 484.79 119.00" xmlns="http://www.w3.org/2000/svg" xmlns:xlink="http://www.w3.org/1999/xlink">
<g id="graph0" class="graph" transform="scale(1 1) rotate(0) translate(4 115)">
<title>UniValue::setNumStr</title>
<polygon fill="#ffffff" stroke="transparent" points="-4,4 -4,-115 480.792,-115 480.792,4 -4,4"/>
<!-- Node676 -->
<g id="node1" class="node">
<title>Node676</title>
<polygon fill="#bfbfbf" stroke="#000000" points="0,-37.5 0,-55.5 108.6318,-55.5 108.6318,-37.5 0,-37.5"/>
<text text-anchor="middle" x="54.3159" y="-43.5" font-family="Helvetica,sans-Serif" font-size="10.00" fill="#000000">UniValue::setNumStr</text>
</g>
<!-- Node677 -->
<g id="node2" class="node">
<title>Node677</title>
<g id="a_node2"><a xlink:href="class_uni_value.html#a9b2df9e0db0d6370fd59783a7942af91" target="_top" xlink:title="UniValue::setInt">
<polygon fill="#ffffff" stroke="#000000" points="175.7427,-74.5 175.7427,-92.5 261.6011,-92.5 261.6011,-74.5 175.7427,-74.5"/>
<text text-anchor="middle" x="218.6719" y="-80.5" font-family="Helvetica,sans-Serif" font-size="10.00" fill="#000000">UniValue::setInt</text>
</a>
</g>
</g>
<!-- Node676&#45;&gt;Node677 -->
<g id="edge1" class="edge">
<title>Node676&#45;&gt;Node677</title>
<path fill="none" stroke="#191970" d="M104.4267,-57.781C128.2128,-63.1357 156.25,-69.4475 178.5965,-74.4782"/>
<polygon fill="#191970" stroke="#191970" points="105.0465,-54.333 94.5219,-55.5512 103.509,-61.1621 105.0465,-54.333"/>
</g>
<!-- Node680 -->
<g id="node5" class="node">
<title>Node680</title>
<g id="a_node5"><a xlink:href="class_uni_value.html#af887f08e539e589accea7beebd51eaae" target="_top" xlink:title="UniValue::setFloat">
<polygon fill="#ffffff" stroke="#000000" points="170.186,-37.5 170.186,-55.5 267.1577,-55.5 267.1577,-37.5 170.186,-37.5"/>
<text text-anchor="middle" x="218.6719" y="-43.5" font-family="Helvetica,sans-Serif" font-size="10.00" fill="#000000">UniValue::setFloat</text>
</a>
</g>
</g>
<!-- Node676&#45;&gt;Node680 -->
<g id="edge4" class="edge">
<title>Node676&#45;&gt;Node680</title>
<path fill="none" stroke="#191970" d="M119.3875,-46.5C136.2517,-46.5 154.1216,-46.5 169.9834,-46.5"/>
<polygon fill="#191970" stroke="#191970" points="119.0441,-43.0001 109.0441,-46.5 119.044,-50.0001 119.0441,-43.0001"/>
</g>
<!-- Node682 -->
<g id="node7" class="node">
<title>Node682</title>
<g id="a_node7"><a xlink:href="object_8cpp.html#ae2bbbe7e5321de61a22df935fc269e36" target="_top" xlink:title="BOOST_AUTO_TEST_CASE">
<polygon fill="#ffffff" stroke="#000000" points="144.6318,-.5 144.6318,-18.5 292.7119,-18.5 292.7119,-.5 144.6318,-.5"/>
<text text-anchor="middle" x="218.6719" y="-6.5" font-family="Helvetica,sans-Serif" font-size="10.00" fill="#000000">BOOST_AUTO_TEST_CASE</text>
</a>
</g>
</g>
<!-- Node676&#45;&gt;Node682 -->
<g id="edge7" class="edge">
<title>Node676&#45;&gt;Node682</title>
<path fill="none" stroke="#191970" d="M104.4267,-35.219C128.2128,-29.8643 156.25,-23.5525 178.5965,-18.5218"/>
<polygon fill="#191970" stroke="#191970" points="103.509,-31.8379 94.5219,-37.4488 105.0465,-38.667 103.509,-31.8379"/>
</g>
<!-- Node678 -->
<g id="node3" class="node">
<title>Node678</title>
<g id="a_node3"><a xlink:href="class_uni_value.html#a0f9dfcd7460d60d6411b60c64049d37d" target="_top" xlink:title="UniValue::UniValue">
<polygon fill="#ffffff" stroke="#000000" points="352.1299,-92.5 352.1299,-110.5 453.374,-110.5 453.374,-92.5 352.1299,-92.5"/>
<text text-anchor="middle" x="402.752" y="-98.5" font-family="Helvetica,sans-Serif" font-size="10.00" fill="#000000">UniValue::UniValue</text>
</a>
</g>
</g>
<!-- Node677&#45;&gt;Node678 -->
<g id="edge2" class="edge">
<title>Node677&#45;&gt;Node678</title>
<path fill="none" stroke="#191970" d="M271.9579,-88.7105C297.1763,-91.1764 327.1435,-94.1067 352.0269,-96.5399"/>
<polygon fill="#191970" stroke="#191970" points="272.1237,-85.2101 261.8305,-87.7202 271.4424,-92.1769 272.1237,-85.2101"/>
</g>
<!-- Node679 -->
<g id="node4" class="node">
<title>Node679</title>
<g id="a_node4"><a xlink:href="object_8cpp.html#a1389fffb33775497f9b653760db054c9" target="_top" xlink:title="BOOST_AUTO_TEST_CASE">
<polygon fill="#ffffff" stroke="#000000" points="328.7119,-55.5 328.7119,-73.5 476.792,-73.5 476.792,-55.5 328.7119,-55.5"/>
<text text-anchor="middle" x="402.752" y="-61.5" font-family="Helvetica,sans-Serif" font-size="10.00" fill="#000000">BOOST_AUTO_TEST_CASE</text>
</a>
</g>
</g>
<!-- Node677&#45;&gt;Node679 -->
<g id="edge3" class="edge">
<title>Node677&#45;&gt;Node679</title>
<path fill="none" stroke="#191970" d="M271.9315,-78.0028C289.5877,-76.1804 309.5741,-74.1174 328.5147,-72.1625"/>
<polygon fill="#191970" stroke="#191970" points="271.4183,-74.537 261.8305,-79.0453 272.137,-81.5001 271.4183,-74.537"/>
</g>
<!-- Node680&#45;&gt;Node679 -->
<g id="edge6" class="edge">
<title>Node680&#45;&gt;Node679</title>
<path fill="none" stroke="#191970" d="M277.8984,-52.2914C294.0726,-53.873 311.8025,-55.6066 328.6918,-57.2581"/>
<polygon fill="#191970" stroke="#191970" points="277.8119,-48.7663 267.5187,-51.2764 277.1306,-55.7331 277.8119,-48.7663"/>
</g>
<!-- Node681 -->
<g id="node6" class="node">
<title>Node681</title>
<g id="a_node6"><a xlink:href="class_uni_value.html#a725504a9df25d6e4b76486a60edf0f3b" target="_top" xlink:title="UniValue::UniValue">
<polygon fill="#ffffff" stroke="#000000" points="352.1299,-18.5 352.1299,-36.5 453.374,-36.5 453.374,-18.5 352.1299,-18.5"/>
<text text-anchor="middle" x="402.752" y="-24.5" font-family="Helvetica,sans-Serif" font-size="10.00" fill="#000000">UniValue::UniValue</text>
</a>
</g>
</g>
<!-- Node680&#45;&gt;Node681 -->
<g id="edge5" class="edge">
<title>Node680&#45;&gt;Node681</title>
<path fill="none" stroke="#191970" d="M277.5625,-40.4215C301.5467,-37.946 328.9971,-35.1127 352.0697,-32.7312"/>
<polygon fill="#191970" stroke="#191970" points="277.1064,-36.9499 267.5187,-41.4582 277.8252,-43.9129 277.1064,-36.9499"/>
</g>
</g>
</svg>
