<?xml version="1.0" encoding="UTF-8" standalone="no"?>
<!DOCTYPE svg PUBLIC "-//W3C//DTD SVG 1.1//EN"
 "http://www.w3.org/Graphics/SVG/1.1/DTD/svg11.dtd">
<!-- Generated by graphviz version 2.40.1 (20161225.0304)
 -->
<!-- Title: CAddrMan::Good_ Pages: 1 -->
<svg width="429pt" height="27pt"
 viewBox="0.00 0.00 428.70 27.00" xmlns="http://www.w3.org/2000/svg" xmlns:xlink="http://www.w3.org/1999/xlink">
<g id="graph0" class="graph" transform="scale(1 1) rotate(0) translate(4 23)">
<title>CAddrMan::Good_</title>
<polygon fill="#ffffff" stroke="transparent" points="-4,4 -4,-23 424.7031,-23 424.7031,4 -4,4"/>
<!-- Node334 -->
<g id="node1" class="node">
<title>Node334</title>
<polygon fill="#bfbfbf" stroke="#000000" points="0,-.5 0,-18.5 99.3789,-18.5 99.3789,-.5 0,-.5"/>
<text text-anchor="middle" x="49.6895" y="-6.5" font-family="Helvetica,sans-Serif" font-size="10.00" fill="#000000">CAddrMan::Good_</text>
</g>
<!-- Node335 -->
<g id="node2" class="node">
<title>Node335</title>
<g id="a_node2"><a xlink:href="class_c_addr_man.html#acca82020635b7df1b7c24dfaf6b4de1d" target="_top" xlink:title="Mark an entry as accessible. ">
<polygon fill="#ffffff" stroke="#000000" points="135.3789,-.5 135.3789,-18.5 229.1963,-18.5 229.1963,-.5 135.3789,-.5"/>
<text text-anchor="middle" x="182.2876" y="-6.5" font-family="Helvetica,sans-Serif" font-size="10.00" fill="#000000">CAddrMan::Good</text>
</a>
</g>
</g>
<!-- Node334&#45;&gt;Node335 -->
<g id="edge1" class="edge">
<title>Node334&#45;&gt;Node335</title>
<path fill="none" stroke="#191970" d="M109.5023,-9.5C118.1615,-9.5 126.9697,-9.5 135.3285,-9.5"/>
<polygon fill="#191970" stroke="#191970" points="109.4414,-6.0001 99.4414,-9.5 109.4413,-13.0001 109.4414,-6.0001"/>
</g>
<!-- Node336 -->
<g id="node3" class="node">
<title>Node336</title>
<g id="a_node3"><a xlink:href="class_c_connman.html#a85dedb235a648a1b8370228ba62ebacb" target="_top" xlink:title="CConnman::MarkAddressGood">
<polygon fill="#ffffff" stroke="#000000" points="265.1963,-.5 265.1963,-18.5 420.7031,-18.5 420.7031,-.5 265.1963,-.5"/>
<text text-anchor="middle" x="342.9497" y="-6.5" font-family="Helvetica,sans-Serif" font-size="10.00" fill="#000000">CConnman::MarkAddressGood</text>
</a>
</g>
</g>
<!-- Node335&#45;&gt;Node336 -->
<g id="edge2" class="edge">
<title>Node335&#45;&gt;Node336</title>
<path fill="none" stroke="#191970" d="M239.7559,-9.5C247.9237,-9.5 256.4354,-9.5 264.913,-9.5"/>
<polygon fill="#191970" stroke="#191970" points="239.6226,-6.0001 229.6226,-9.5 239.6225,-13.0001 239.6226,-6.0001"/>
</g>
</g>
</svg>
