<?xml version="1.0" encoding="UTF-8" standalone="no"?>
<!DOCTYPE svg PUBLIC "-//W3C//DTD SVG 1.1//EN"
 "http://www.w3.org/Graphics/SVG/1.1/DTD/svg11.dtd">
<!-- Generated by graphviz version 2.40.1 (20161225.0304)
 -->
<!-- Title: WalletBatch::WriteCScript Pages: 1 -->
<svg width="466pt" height="74pt"
 viewBox="0.00 0.00 465.92 74.00" xmlns="http://www.w3.org/2000/svg" xmlns:xlink="http://www.w3.org/1999/xlink">
<g id="graph0" class="graph" transform="scale(1 1) rotate(0) translate(4 70)">
<title>WalletBatch::WriteCScript</title>
<polygon fill="#ffffff" stroke="transparent" points="-4,4 -4,-70 461.915,-70 461.915,4 -4,4"/>
<!-- Node214 -->
<g id="node1" class="node">
<title>Node214</title>
<polygon fill="#bfbfbf" stroke="#000000" points="0,-26.5 0,-44.5 130.4824,-44.5 130.4824,-26.5 0,-26.5"/>
<text text-anchor="middle" x="65.2412" y="-32.5" font-family="Helvetica,sans-Serif" font-size="10.00" fill="#000000">WalletBatch::WriteCScript</text>
</g>
<!-- Node215 -->
<g id="node2" class="node">
<title>Node215</title>
<g id="a_node2"><a xlink:href="class_wallet_batch.html#a552eb421cff45a9ed94b1ec77e5c76c3" target="_top" xlink:title="WalletBatch::WriteIC">
<polygon fill="#ffffff" stroke="#000000" points="166.4824,-26.5 166.4824,-44.5 274.1816,-44.5 274.1816,-26.5 166.4824,-26.5"/>
<text text-anchor="middle" x="220.332" y="-32.5" font-family="Helvetica,sans-Serif" font-size="10.00" fill="#000000">WalletBatch::WriteIC</text>
</a>
</g>
</g>
<!-- Node214&#45;&gt;Node215 -->
<g id="edge1" class="edge">
<title>Node214&#45;&gt;Node215</title>
<path fill="none" stroke="#191970" d="M130.5642,-35.5C139.0392,-35.5 147.7139,-35.5 156.1698,-35.5"/>
<polygon fill="#191970" stroke="#191970" points="156.3473,-39.0001 166.3473,-35.5 156.3473,-32.0001 156.3473,-39.0001"/>
</g>
<!-- Node216 -->
<g id="node3" class="node">
<title>Node216</title>
<g id="a_node3"><a xlink:href="class_berkeley_batch.html#ac31c83ec96f7bd149f856d28e97dba23" target="_top" xlink:title="BerkeleyBatch::Write">
<polygon fill="#ffffff" stroke="#000000" points="329.4541,-47.5 329.4541,-65.5 438.6426,-65.5 438.6426,-47.5 329.4541,-47.5"/>
<text text-anchor="middle" x="384.0483" y="-53.5" font-family="Helvetica,sans-Serif" font-size="10.00" fill="#000000">BerkeleyBatch::Write</text>
</a>
</g>
</g>
<!-- Node215&#45;&gt;Node216 -->
<g id="edge2" class="edge">
<title>Node215&#45;&gt;Node216</title>
<path fill="none" stroke="#191970" d="M274.3926,-42.4344C288.6952,-44.269 304.2825,-46.2684 319.0973,-48.1687"/>
<polygon fill="#191970" stroke="#191970" points="318.841,-51.6644 329.205,-49.4652 319.7316,-44.7213 318.841,-51.6644"/>
</g>
<!-- Node217 -->
<g id="node4" class="node">
<title>Node217</title>
<g id="a_node4"><a xlink:href="class_berkeley_database.html#a313cd767c211da5738bdb5578cd59af7" target="_top" xlink:title="BerkeleyDatabase::Increment\lUpdateCounter">
<polygon fill="#ffffff" stroke="#000000" points="310.1816,-.5 310.1816,-28.5 457.915,-28.5 457.915,-.5 310.1816,-.5"/>
<text text-anchor="start" x="318.1816" y="-16.5" font-family="Helvetica,sans-Serif" font-size="10.00" fill="#000000">BerkeleyDatabase::Increment</text>
<text text-anchor="middle" x="384.0483" y="-6.5" font-family="Helvetica,sans-Serif" font-size="10.00" fill="#000000">UpdateCounter</text>
</a>
</g>
</g>
<!-- Node215&#45;&gt;Node217 -->
<g id="edge3" class="edge">
<title>Node215&#45;&gt;Node217</title>
<path fill="none" stroke="#191970" d="M274.3926,-28.5656C282.6266,-27.5094 291.2865,-26.3986 299.9796,-25.2836"/>
<polygon fill="#191970" stroke="#191970" points="300.7029,-28.7195 310.1763,-23.9756 299.8122,-21.7764 300.7029,-28.7195"/>
</g>
</g>
</svg>
