<?xml version="1.0" encoding="UTF-8" standalone="no"?>
<!DOCTYPE svg PUBLIC "-//W3C//DTD SVG 1.1//EN"
 "http://www.w3.org/Graphics/SVG/1.1/DTD/svg11.dtd">
<!-- Generated by graphviz version 2.40.1 (20161225.0304)
 -->
<!-- Title: CDBWrapper::Read Pages: 1 -->
<svg width="486pt" height="251pt"
 viewBox="0.00 0.00 486.48 251.00" xmlns="http://www.w3.org/2000/svg" xmlns:xlink="http://www.w3.org/1999/xlink">
<g id="graph0" class="graph" transform="scale(1 1) rotate(0) translate(4 247)">
<title>CDBWrapper::Read</title>
<polygon fill="#ffffff" stroke="transparent" points="-4,4 -4,-247 482.4814,-247 482.4814,4 -4,4"/>
<!-- Node39 -->
<g id="node1" class="node">
<title>Node39</title>
<polygon fill="#bfbfbf" stroke="#000000" points="0,-111.5 0,-129.5 104.7451,-129.5 104.7451,-111.5 0,-111.5"/>
<text text-anchor="middle" x="52.3726" y="-117.5" font-family="Helvetica,sans-Serif" font-size="10.00" fill="#000000">CDBWrapper::Read</text>
</g>
<!-- Node40 -->
<g id="node2" class="node">
<title>Node40</title>
<g id="a_node2"><a xlink:href="class_tx_index_1_1_d_b.html#a7eeb3325ee83f6fe2736278a7952ba5c" target="_top" xlink:title="Migrate txindex data from the block tree DB, where it may be for older nodes that have not been upgra...">
<polygon fill="#ffffff" stroke="#000000" points="347.4375,-75.5 347.4375,-93.5 478.4814,-93.5 478.4814,-75.5 347.4375,-75.5"/>
<text text-anchor="middle" x="412.9595" y="-81.5" font-family="Helvetica,sans-Serif" font-size="10.00" fill="#000000">TxIndex::DB::MigrateData</text>
</a>
</g>
</g>
<!-- Node39&#45;&gt;Node40 -->
<g id="edge1" class="edge">
<title>Node39&#45;&gt;Node40</title>
<path fill="none" stroke="#191970" d="M96.4137,-131.7632C148.5507,-143.2285 237.6179,-156.9113 311.4375,-138.5 346.3038,-129.804 382.3303,-106.64 400.6481,-93.6528"/>
<polygon fill="#191970" stroke="#191970" points="97.021,-128.3121 86.4941,-129.5099 95.4704,-135.1382 97.021,-128.3121"/>
</g>
<!-- Node41 -->
<g id="node3" class="node">
<title>Node41</title>
<g id="a_node3"><a xlink:href="class_c_coins_view_d_b.html#a2a018edc94bdca2b96a126688f22770d" target="_top" xlink:title="Retrieve the Coin (unspent transaction output) for a given outpoint. ">
<polygon fill="#ffffff" stroke="#000000" points="162.8813,-187.5 162.8813,-205.5 289.3013,-205.5 289.3013,-187.5 162.8813,-187.5"/>
<text text-anchor="middle" x="226.0913" y="-193.5" font-family="Helvetica,sans-Serif" font-size="10.00" fill="#000000">CCoinsViewDB::GetCoin</text>
</a>
</g>
</g>
<!-- Node39&#45;&gt;Node41 -->
<g id="edge2" class="edge">
<title>Node39&#45;&gt;Node41</title>
<path fill="none" stroke="#191970" d="M74.0684,-135.4135C91.4662,-146.834 116.8422,-162.3095 140.7451,-172.5 155.0454,-178.5966 171.3465,-183.6183 185.8436,-187.4644"/>
<polygon fill="#191970" stroke="#191970" points="75.5432,-132.1896 65.2837,-129.5452 71.6549,-138.0104 75.5432,-132.1896"/>
</g>
<!-- Node42 -->
<g id="node4" class="node">
<title>Node42</title>
<g id="a_node4"><a xlink:href="class_c_coins_view_d_b.html#aac696880a5bb854dcdcb20d8a035be9b" target="_top" xlink:title="Retrieve the block hash whose state this CCoinsView currently represents. ">
<polygon fill="#ffffff" stroke="#000000" points="150.9331,-224.5 150.9331,-242.5 301.2495,-242.5 301.2495,-224.5 150.9331,-224.5"/>
<text text-anchor="middle" x="226.0913" y="-230.5" font-family="Helvetica,sans-Serif" font-size="10.00" fill="#000000">CCoinsViewDB::GetBestBlock</text>
</a>
</g>
</g>
<!-- Node39&#45;&gt;Node42 -->
<g id="edge3" class="edge">
<title>Node39&#45;&gt;Node42</title>
<path fill="none" stroke="#191970" d="M63.6557,-138.1313C78.5636,-159.8977 106.9268,-196.3746 140.7451,-215.5 147.2039,-219.1527 154.3169,-222.0665 161.5971,-224.3905"/>
<polygon fill="#191970" stroke="#191970" points="66.3962,-135.9314 57.9473,-129.5386 60.5656,-139.8048 66.3962,-135.9314"/>
</g>
<!-- Node44 -->
<g id="node6" class="node">
<title>Node44</title>
<g id="a_node6"><a xlink:href="class_c_coins_view_d_b.html#aec0d3d60ab629a23873894e44b6bc266" target="_top" xlink:title="Retrieve the range of blocks that may have been only partially written. ">
<polygon fill="#ffffff" stroke="#000000" points="146.4849,-111.5 146.4849,-129.5 305.6978,-129.5 305.6978,-111.5 146.4849,-111.5"/>
<text text-anchor="middle" x="226.0913" y="-117.5" font-family="Helvetica,sans-Serif" font-size="10.00" fill="#000000">CCoinsViewDB::GetHeadBlocks</text>
</a>
</g>
</g>
<!-- Node39&#45;&gt;Node44 -->
<g id="edge5" class="edge">
<title>Node39&#45;&gt;Node44</title>
<path fill="none" stroke="#191970" d="M114.9852,-120.5C125.1901,-120.5 135.8805,-120.5 146.4283,-120.5"/>
<polygon fill="#191970" stroke="#191970" points="114.9654,-117.0001 104.9653,-120.5 114.9653,-124.0001 114.9654,-117.0001"/>
</g>
<!-- Node45 -->
<g id="node7" class="node">
<title>Node45</title>
<g id="a_node7"><a xlink:href="class_c_block_tree_d_b.html#a3f597e6bab0a7003cbf7ea86cb434e85" target="_top" xlink:title="CBlockTreeDB::ReadBlockFileInfo">
<polygon fill="#ffffff" stroke="#000000" points="141.856,-74.5 141.856,-92.5 310.3267,-92.5 310.3267,-74.5 141.856,-74.5"/>
<text text-anchor="middle" x="226.0913" y="-80.5" font-family="Helvetica,sans-Serif" font-size="10.00" fill="#000000">CBlockTreeDB::ReadBlockFileInfo</text>
</a>
</g>
</g>
<!-- Node39&#45;&gt;Node45 -->
<g id="edge6" class="edge">
<title>Node39&#45;&gt;Node45</title>
<path fill="none" stroke="#191970" d="M104.0744,-109.3486C116.109,-106.7628 128.8737,-104.028 140.7451,-101.5 154.5193,-98.5668 169.549,-95.3892 183.1043,-92.5319"/>
<polygon fill="#191970" stroke="#191970" points="103.2134,-105.9537 94.1727,-111.4779 104.6851,-112.7973 103.2134,-105.9537"/>
</g>
<!-- Node46 -->
<g id="node8" class="node">
<title>Node46</title>
<g id="a_node8"><a xlink:href="class_c_block_tree_d_b.html#adb1276fe2f0e0c4c106660948c581711" target="_top" xlink:title="CBlockTreeDB::ReadLastBlockFile">
<polygon fill="#ffffff" stroke="#000000" points="140.7451,-37.5 140.7451,-55.5 311.4375,-55.5 311.4375,-37.5 140.7451,-37.5"/>
<text text-anchor="middle" x="226.0913" y="-43.5" font-family="Helvetica,sans-Serif" font-size="10.00" fill="#000000">CBlockTreeDB::ReadLastBlockFile</text>
</a>
</g>
</g>
<!-- Node39&#45;&gt;Node46 -->
<g id="edge7" class="edge">
<title>Node39&#45;&gt;Node46</title>
<path fill="none" stroke="#191970" d="M71.7585,-105.3272C88.9581,-92.5958 115.2425,-74.874 140.7451,-64.5 149.7223,-60.8482 159.5451,-57.8974 169.2295,-55.5252"/>
<polygon fill="#191970" stroke="#191970" points="69.5086,-102.6405 63.6447,-111.4646 73.7315,-108.2233 69.5086,-102.6405"/>
</g>
<!-- Node47 -->
<g id="node9" class="node">
<title>Node47</title>
<g id="a_node9"><a xlink:href="class_c_block_tree_d_b.html#acd779c4653fd9a87fffe95d53ce7c6d3" target="_top" xlink:title="CBlockTreeDB::ReadFlag">
<polygon fill="#ffffff" stroke="#000000" points="160.7524,-.5 160.7524,-18.5 291.4302,-18.5 291.4302,-.5 160.7524,-.5"/>
<text text-anchor="middle" x="226.0913" y="-6.5" font-family="Helvetica,sans-Serif" font-size="10.00" fill="#000000">CBlockTreeDB::ReadFlag</text>
</a>
</g>
</g>
<!-- Node39&#45;&gt;Node47 -->
<g id="edge8" class="edge">
<title>Node39&#45;&gt;Node47</title>
<path fill="none" stroke="#191970" d="M63.9734,-102.9192C79.0339,-81.5781 107.3761,-46.1382 140.7451,-27.5 147.3554,-23.8078 154.6392,-20.8713 162.0813,-18.536"/>
<polygon fill="#191970" stroke="#191970" points="60.9504,-101.139 58.1867,-111.3671 66.7255,-105.0949 60.9504,-101.139"/>
</g>
<!-- Node43 -->
<g id="node5" class="node">
<title>Node43</title>
<g id="a_node5"><a xlink:href="class_c_coins_view_d_b.html#a86359fc2e09d57c7cd6966bd6569fe05" target="_top" xlink:title="Get a cursor to iterate over the whole state. ">
<polygon fill="#ffffff" stroke="#000000" points="353.0894,-224.5 353.0894,-242.5 472.8296,-242.5 472.8296,-224.5 353.0894,-224.5"/>
<text text-anchor="middle" x="412.9595" y="-230.5" font-family="Helvetica,sans-Serif" font-size="10.00" fill="#000000">CCoinsViewDB::Cursor</text>
</a>
</g>
</g>
<!-- Node42&#45;&gt;Node43 -->
<g id="edge4" class="edge">
<title>Node42&#45;&gt;Node43</title>
<path fill="none" stroke="#191970" d="M311.4121,-233.5C325.3972,-233.5 339.6266,-233.5 352.8343,-233.5"/>
<polygon fill="#191970" stroke="#191970" points="311.29,-230.0001 301.29,-233.5 311.29,-237.0001 311.29,-230.0001"/>
</g>
<!-- Node47&#45;&gt;Node40 -->
<g id="edge9" class="edge">
<title>Node47&#45;&gt;Node40</title>
<path fill="none" stroke="#191970" d="M291.4473,-21.1363C298.2816,-22.9881 305.0571,-25.1004 311.4375,-27.5 345.1143,-40.1656 381.0411,-62.7753 399.8076,-75.3773"/>
<polygon fill="#191970" stroke="#191970" points="291.984,-17.662 281.4314,-18.6065 290.2697,-24.4489 291.984,-17.662"/>
</g>
</g>
</svg>
