<?xml version="1.0" encoding="UTF-8" standalone="no"?>
<!DOCTYPE svg PUBLIC "-//W3C//DTD SVG 1.1//EN"
 "http://www.w3.org/Graphics/SVG/1.1/DTD/svg11.dtd">
<!-- Generated by graphviz version 2.40.1 (20161225.0304)
 -->
<!-- Title: TransactionTableModel::formatTxAmount Pages: 1 -->
<svg width="465pt" height="138pt"
 viewBox="0.00 0.00 464.65 138.00" xmlns="http://www.w3.org/2000/svg" xmlns:xlink="http://www.w3.org/1999/xlink">
<g id="graph0" class="graph" transform="scale(1 1) rotate(0) translate(4 134)">
<title>TransactionTableModel::formatTxAmount</title>
<polygon fill="#ffffff" stroke="transparent" points="-4,4 -4,-134 460.6455,-134 460.6455,4 -4,4"/>
<!-- Node130 -->
<g id="node1" class="node">
<title>Node130</title>
<polygon fill="#bfbfbf" stroke="#000000" points="0,-32.5 0,-60.5 119.0225,-60.5 119.0225,-32.5 0,-32.5"/>
<text text-anchor="start" x="8" y="-48.5" font-family="Helvetica,sans-Serif" font-size="10.00" fill="#000000">TransactionTableModel</text>
<text text-anchor="middle" x="59.5112" y="-38.5" font-family="Helvetica,sans-Serif" font-size="10.00" fill="#000000">::formatTxAmount</text>
</g>
<!-- Node131 -->
<g id="node2" class="node">
<title>Node131</title>
<g id="a_node2"><a xlink:href="class_bitcoin_units.html#ab07437e5a788c80a82d75e3714bd3925" target="_top" xlink:title="Format as string. ">
<polygon fill="#ffffff" stroke="#000000" points="179.5806,-74.5 179.5806,-92.5 282.2749,-92.5 282.2749,-74.5 179.5806,-74.5"/>
<text text-anchor="middle" x="230.9277" y="-80.5" font-family="Helvetica,sans-Serif" font-size="10.00" fill="#000000">BitcoinUnits::format</text>
</a>
</g>
</g>
<!-- Node130&#45;&gt;Node131 -->
<g id="edge1" class="edge">
<title>Node130&#45;&gt;Node131</title>
<path fill="none" stroke="#191970" d="M119.4644,-59.4408C138.9418,-63.645 160.3755,-68.2714 179.1998,-72.3346"/>
<polygon fill="#191970" stroke="#191970" points="178.5566,-75.7763 189.0699,-74.4651 180.0335,-68.9339 178.5566,-75.7763"/>
</g>
<!-- Node135 -->
<g id="node6" class="node">
<title>Node135</title>
<g id="a_node6"><a xlink:href="class_wallet_model.html#a96d53e56b3f8f07537ea2523f7a7d300" target="_top" xlink:title="WalletModel::getOptionsModel">
<polygon fill="#ffffff" stroke="#000000" points="155.0225,-37.5 155.0225,-55.5 306.833,-55.5 306.833,-37.5 155.0225,-37.5"/>
<text text-anchor="middle" x="230.9277" y="-43.5" font-family="Helvetica,sans-Serif" font-size="10.00" fill="#000000">WalletModel::getOptionsModel</text>
</a>
</g>
</g>
<!-- Node130&#45;&gt;Node135 -->
<g id="edge5" class="edge">
<title>Node130&#45;&gt;Node135</title>
<path fill="none" stroke="#191970" d="M119.4644,-46.5C127.6527,-46.5 136.1868,-46.5 144.7273,-46.5"/>
<polygon fill="#191970" stroke="#191970" points="144.7359,-50.0001 154.7359,-46.5 144.7359,-43.0001 144.7359,-50.0001"/>
</g>
<!-- Node136 -->
<g id="node7" class="node">
<title>Node136</title>
<g id="a_node7"><a xlink:href="class_options_model.html#a00a1f0842f764f64086e7d5d42bbce63" target="_top" xlink:title="OptionsModel::getDisplayUnit">
<polygon fill="#ffffff" stroke="#000000" points="157.0635,-.5 157.0635,-18.5 304.792,-18.5 304.792,-.5 157.0635,-.5"/>
<text text-anchor="middle" x="230.9277" y="-6.5" font-family="Helvetica,sans-Serif" font-size="10.00" fill="#000000">OptionsModel::getDisplayUnit</text>
</a>
</g>
</g>
<!-- Node130&#45;&gt;Node136 -->
<g id="edge6" class="edge">
<title>Node130&#45;&gt;Node136</title>
<path fill="none" stroke="#191970" d="M119.4644,-33.5592C138.9418,-29.355 160.3755,-24.7286 179.1998,-20.6654"/>
<polygon fill="#191970" stroke="#191970" points="180.0335,-24.0661 189.0699,-18.5349 178.5566,-17.2237 180.0335,-24.0661"/>
</g>
<!-- Node132 -->
<g id="node3" class="node">
<title>Node132</title>
<g id="a_node3"><a xlink:href="class_bitcoin_units.html#a81cbc41480adfb600dad79711d336e5f" target="_top" xlink:title="Is unit ID valid? ">
<polygon fill="#ffffff" stroke="#000000" points="352.2788,-111.5 352.2788,-129.5 447.1997,-129.5 447.1997,-111.5 352.2788,-111.5"/>
<text text-anchor="middle" x="399.7393" y="-117.5" font-family="Helvetica,sans-Serif" font-size="10.00" fill="#000000">BitcoinUnits::valid</text>
</a>
</g>
</g>
<!-- Node131&#45;&gt;Node132 -->
<g id="edge2" class="edge">
<title>Node131&#45;&gt;Node132</title>
<path fill="none" stroke="#191970" d="M272.2237,-92.5512C295.3012,-97.6093 324.256,-103.9556 348.7394,-109.3219"/>
<polygon fill="#191970" stroke="#191970" points="348.0599,-112.756 358.5774,-111.4782 349.5587,-105.9183 348.0599,-112.756"/>
</g>
<!-- Node133 -->
<g id="node4" class="node">
<title>Node133</title>
<g id="a_node4"><a xlink:href="class_bitcoin_units.html#ae967b9e6ecbb8f041bfe398d27533b09" target="_top" xlink:title="Number of Satoshis (1e&#45;8) per unit. ">
<polygon fill="#ffffff" stroke="#000000" points="350.0571,-74.5 350.0571,-92.5 449.4214,-92.5 449.4214,-74.5 350.0571,-74.5"/>
<text text-anchor="middle" x="399.7393" y="-80.5" font-family="Helvetica,sans-Serif" font-size="10.00" fill="#000000">BitcoinUnits::factor</text>
</a>
</g>
</g>
<!-- Node131&#45;&gt;Node133 -->
<g id="edge3" class="edge">
<title>Node131&#45;&gt;Node133</title>
<path fill="none" stroke="#191970" d="M282.494,-83.5C300.5743,-83.5 321.0364,-83.5 339.7472,-83.5"/>
<polygon fill="#191970" stroke="#191970" points="339.9357,-87.0001 349.9357,-83.5 339.9356,-80.0001 339.9357,-87.0001"/>
</g>
<!-- Node134 -->
<g id="node5" class="node">
<title>Node134</title>
<g id="a_node5"><a xlink:href="class_bitcoin_units.html#a3f0fc21634520ea06c684ba0d7e25f2f" target="_top" xlink:title="Number of decimals left. ">
<polygon fill="#ffffff" stroke="#000000" points="342.833,-37.5 342.833,-55.5 456.6455,-55.5 456.6455,-37.5 342.833,-37.5"/>
<text text-anchor="middle" x="399.7393" y="-43.5" font-family="Helvetica,sans-Serif" font-size="10.00" fill="#000000">BitcoinUnits::decimals</text>
</a>
</g>
</g>
<!-- Node131&#45;&gt;Node134 -->
<g id="edge4" class="edge">
<title>Node131&#45;&gt;Node134</title>
<path fill="none" stroke="#191970" d="M272.2237,-74.4488C295.3012,-69.3907 324.256,-63.0444 348.7394,-57.6781"/>
<polygon fill="#191970" stroke="#191970" points="349.5587,-61.0817 358.5774,-55.5218 348.0599,-54.244 349.5587,-61.0817"/>
</g>
</g>
</svg>
