<?xml version="1.0" encoding="UTF-8" standalone="no"?>
<!DOCTYPE svg PUBLIC "-//W3C//DTD SVG 1.1//EN"
 "http://www.w3.org/Graphics/SVG/1.1/DTD/svg11.dtd">
<!-- Generated by graphviz version 2.40.1 (20161225.0304)
 -->
<!-- Title: CAddrMan::Clear Pages: 1 -->
<svg width="334pt" height="27pt"
 viewBox="0.00 0.00 333.65 27.00" xmlns="http://www.w3.org/2000/svg" xmlns:xlink="http://www.w3.org/1999/xlink">
<g id="graph0" class="graph" transform="scale(1 1) rotate(0) translate(4 23)">
<title>CAddrMan::Clear</title>
<polygon fill="#ffffff" stroke="transparent" points="-4,4 -4,-23 329.6543,-23 329.6543,4 -4,4"/>
<!-- Node193 -->
<g id="node1" class="node">
<title>Node193</title>
<polygon fill="#bfbfbf" stroke="#000000" points="0,-.5 0,-18.5 93.251,-18.5 93.251,-.5 0,-.5"/>
<text text-anchor="middle" x="46.6255" y="-6.5" font-family="Helvetica,sans-Serif" font-size="10.00" fill="#000000">CAddrMan::Clear</text>
</g>
<!-- Node194 -->
<g id="node2" class="node">
<title>Node194</title>
<g id="a_node2"><a xlink:href="random_8cpp.html#af3aedae75efabb170337a497457f7ecf" target="_top" xlink:title="GetRandHash">
<polygon fill="#ffffff" stroke="#000000" points="129.251,-.5 129.251,-18.5 208.6201,-18.5 208.6201,-.5 129.251,-.5"/>
<text text-anchor="middle" x="168.9355" y="-6.5" font-family="Helvetica,sans-Serif" font-size="10.00" fill="#000000">GetRandHash</text>
</a>
</g>
</g>
<!-- Node193&#45;&gt;Node194 -->
<g id="edge1" class="edge">
<title>Node193&#45;&gt;Node194</title>
<path fill="none" stroke="#191970" d="M93.564,-9.5C101.8975,-9.5 110.6039,-9.5 119.0166,-9.5"/>
<polygon fill="#191970" stroke="#191970" points="119.0876,-13.0001 129.0876,-9.5 119.0876,-6.0001 119.0876,-13.0001"/>
</g>
<!-- Node195 -->
<g id="node3" class="node">
<title>Node195</title>
<g id="a_node3"><a xlink:href="random_8cpp.html#ada0c29949c4d1ac0cc027d93c4771423" target="_top" xlink:title="Functions to gather random data via the OpenSSL PRNG. ">
<polygon fill="#ffffff" stroke="#000000" points="244.6201,-.5 244.6201,-18.5 325.6543,-18.5 325.6543,-.5 244.6201,-.5"/>
<text text-anchor="middle" x="285.1372" y="-6.5" font-family="Helvetica,sans-Serif" font-size="10.00" fill="#000000">GetRandBytes</text>
</a>
</g>
</g>
<!-- Node194&#45;&gt;Node195 -->
<g id="edge2" class="edge">
<title>Node194&#45;&gt;Node195</title>
<path fill="none" stroke="#191970" d="M208.9256,-9.5C217.0467,-9.5 225.6924,-9.5 234.1351,-9.5"/>
<polygon fill="#191970" stroke="#191970" points="234.2838,-13.0001 244.2837,-9.5 234.2837,-6.0001 234.2838,-13.0001"/>
</g>
</g>
</svg>
