<?xml version="1.0" encoding="UTF-8" standalone="no"?>
<!DOCTYPE svg PUBLIC "-//W3C//DTD SVG 1.1//EN"
 "http://www.w3.org/Graphics/SVG/1.1/DTD/svg11.dtd">
<!-- Generated by graphviz version 2.40.1 (20161225.0304)
 -->
<!-- Title: CTxOut::CTxOut Pages: 1 -->
<svg width="1068pt" height="301pt"
 viewBox="0.00 0.00 1067.71 300.90" xmlns="http://www.w3.org/2000/svg" xmlns:xlink="http://www.w3.org/1999/xlink">
<g id="graph0" class="graph" transform="scale(1 1) rotate(0) translate(4 296.8994)">
<title>CTxOut::CTxOut</title>
<polygon fill="#ffffff" stroke="transparent" points="-4,4 -4,-296.8994 1063.7119,-296.8994 1063.7119,4 -4,4"/>
<!-- Node0 -->
<g id="node1" class="node">
<title>Node0</title>
<polygon fill="#bfbfbf" stroke="#000000" points="0,-124.5 0,-142.5 90.4531,-142.5 90.4531,-124.5 0,-124.5"/>
<text text-anchor="middle" x="45.2266" y="-130.5" font-family="Helvetica,sans-Serif" font-size="10.00" fill="#000000">CTxOut::CTxOut</text>
</g>
<!-- Node1 -->
<g id="node2" class="node">
<title>Node1</title>
<g id="a_node2"><a xlink:href="class_c_tx_out.html#a9fe5e6a1be651f130d3dc84a64e78a24" target="_top" xlink:title="CTxOut::SetNull">
<polygon fill="#ffffff" stroke="#000000" points="126.4531,-124.5 126.4531,-142.5 214.6943,-142.5 214.6943,-124.5 126.4531,-124.5"/>
<text text-anchor="middle" x="170.5737" y="-130.5" font-family="Helvetica,sans-Serif" font-size="10.00" fill="#000000">CTxOut::SetNull</text>
</a>
</g>
</g>
<!-- Node0&#45;&gt;Node1 -->
<g id="edge1" class="edge">
<title>Node0&#45;&gt;Node1</title>
<path fill="none" stroke="#191970" d="M90.4798,-133.5C98.7557,-133.5 107.4718,-133.5 115.9854,-133.5"/>
<polygon fill="#191970" stroke="#191970" points="116.2267,-137.0001 126.2267,-133.5 116.2266,-130.0001 116.2267,-137.0001"/>
</g>
<!-- Node2 -->
<g id="node3" class="node">
<title>Node2</title>
<g id="a_node3"><a xlink:href="class_c_script.html#a7b2baf842621f07c4939408acf63377c" target="_top" xlink:title="CScript::clear">
<polygon fill="#ffffff" stroke="#000000" points="250.6943,-124.5 250.6943,-142.5 326.709,-142.5 326.709,-124.5 250.6943,-124.5"/>
<text text-anchor="middle" x="288.7017" y="-130.5" font-family="Helvetica,sans-Serif" font-size="10.00" fill="#000000">CScript::clear</text>
</a>
</g>
</g>
<!-- Node1&#45;&gt;Node2 -->
<g id="edge2" class="edge">
<title>Node1&#45;&gt;Node2</title>
<path fill="none" stroke="#191970" d="M214.8963,-133.5C223.181,-133.5 231.879,-133.5 240.28,-133.5"/>
<polygon fill="#191970" stroke="#191970" points="240.3324,-137.0001 250.3323,-133.5 240.3323,-130.0001 240.3324,-137.0001"/>
</g>
<!-- Node3 -->
<g id="node4" class="node">
<title>Node3</title>
<g id="a_node4"><a xlink:href="classprevector.html#a412f07b8bf5485dabe2fe9d6d5dfe763" target="_top" xlink:title="prevector::clear">
<polygon fill="#ffffff" stroke="#000000" points="362.709,-162.5 362.709,-180.5 447.625,-180.5 447.625,-162.5 362.709,-162.5"/>
<text text-anchor="middle" x="405.167" y="-168.5" font-family="Helvetica,sans-Serif" font-size="10.00" fill="#000000">prevector::clear</text>
</a>
</g>
</g>
<!-- Node2&#45;&gt;Node3 -->
<g id="edge3" class="edge">
<title>Node2&#45;&gt;Node3</title>
<path fill="none" stroke="#191970" d="M316.3023,-142.5055C331.5655,-147.4855 350.7536,-153.7461 367.39,-159.1742"/>
<polygon fill="#191970" stroke="#191970" points="366.7684,-162.6529 377.3608,-162.4275 368.9397,-155.9982 366.7684,-162.6529"/>
</g>
<!-- Node17 -->
<g id="node18" class="node">
<title>Node17</title>
<g id="a_node18"><a xlink:href="classprevector.html#a3b82afa760e2aabd8373994a1316523e" target="_top" xlink:title="prevector::shrink_to_fit">
<polygon fill="#ffffff" stroke="#000000" points="483.625,-76.5 483.625,-94.5 600.7822,-94.5 600.7822,-76.5 483.625,-76.5"/>
<text text-anchor="middle" x="542.2036" y="-82.5" font-family="Helvetica,sans-Serif" font-size="10.00" fill="#000000">prevector::shrink_to_fit</text>
</a>
</g>
</g>
<!-- Node2&#45;&gt;Node17 -->
<g id="edge25" class="edge">
<title>Node2&#45;&gt;Node17</title>
<path fill="none" stroke="#191970" d="M326.9279,-126.2619C368.7665,-118.3399 436.3077,-105.5511 484.5788,-96.4111"/>
<polygon fill="#191970" stroke="#191970" points="485.3964,-99.8186 494.5707,-94.5192 484.0941,-92.9408 485.3964,-99.8186"/>
</g>
<!-- Node4 -->
<g id="node5" class="node">
<title>Node4</title>
<g id="a_node5"><a xlink:href="classprevector.html#ad2d97a45e0d2872260e868a540d31860" target="_top" xlink:title="prevector::resize">
<polygon fill="#ffffff" stroke="#000000" points="497.2456,-171.5 497.2456,-189.5 587.1616,-189.5 587.1616,-171.5 497.2456,-171.5"/>
<text text-anchor="middle" x="542.2036" y="-177.5" font-family="Helvetica,sans-Serif" font-size="10.00" fill="#000000">prevector::resize</text>
</a>
</g>
</g>
<!-- Node3&#45;&gt;Node4 -->
<g id="edge4" class="edge">
<title>Node3&#45;&gt;Node4</title>
<path fill="none" stroke="#191970" d="M447.7751,-174.2983C460.0503,-175.1045 473.6266,-175.9961 486.567,-176.846"/>
<polygon fill="#191970" stroke="#191970" points="486.5638,-180.3533 496.7717,-177.5162 487.0226,-173.3683 486.5638,-180.3533"/>
</g>
<!-- Node5 -->
<g id="node6" class="node">
<title>Node5</title>
<g id="a_node6"><a xlink:href="classprevector.html#a626f7d206dbc24e5610631809762758b" target="_top" xlink:title="prevector::size">
<polygon fill="#ffffff" stroke="#000000" points="820.5278,-152.5 820.5278,-170.5 901.5522,-170.5 901.5522,-152.5 820.5278,-152.5"/>
<text text-anchor="middle" x="861.04" y="-158.5" font-family="Helvetica,sans-Serif" font-size="10.00" fill="#000000">prevector::size</text>
</a>
</g>
</g>
<!-- Node4&#45;&gt;Node5 -->
<g id="edge5" class="edge">
<title>Node4&#45;&gt;Node5</title>
<path fill="none" stroke="#191970" d="M587.2089,-177.8181C645.9498,-174.3176 748.4937,-168.2068 810.0475,-164.5387"/>
<polygon fill="#191970" stroke="#191970" points="810.5283,-168.0164 820.3024,-163.9276 810.1119,-161.0288 810.5283,-168.0164"/>
</g>
<!-- Node7 -->
<g id="node8" class="node">
<title>Node7</title>
<g id="a_node8"><a xlink:href="classprevector.html#a780af143deebcaaecb164fa1a2d98156" target="_top" xlink:title="prevector::erase">
<polygon fill="#ffffff" stroke="#000000" points="661.8018,-190.5 661.8018,-208.5 750.0576,-208.5 750.0576,-190.5 661.8018,-190.5"/>
<text text-anchor="middle" x="705.9297" y="-196.5" font-family="Helvetica,sans-Serif" font-size="10.00" fill="#000000">prevector::erase</text>
</a>
</g>
</g>
<!-- Node4&#45;&gt;Node7 -->
<g id="edge7" class="edge">
<title>Node4&#45;&gt;Node7</title>
<path fill="none" stroke="#191970" d="M587.3759,-185.7421C607.3046,-188.0548 630.8911,-190.792 651.7569,-193.2134"/>
<polygon fill="#191970" stroke="#191970" points="651.4168,-196.6973 661.7537,-194.3735 652.2238,-189.744 651.4168,-196.6973"/>
</g>
<!-- Node8 -->
<g id="node9" class="node">
<title>Node8</title>
<g id="a_node9"><a xlink:href="classprevector.html#a59f1d7bcbc751cfa0faddd7ffa184846" target="_top" xlink:title="prevector::item_ptr">
<polygon fill="#ffffff" stroke="#000000" points="811.3579,-189.5 811.3579,-207.5 910.7222,-207.5 910.7222,-189.5 811.3579,-189.5"/>
<text text-anchor="middle" x="861.04" y="-195.5" font-family="Helvetica,sans-Serif" font-size="10.00" fill="#000000">prevector::item_ptr</text>
</a>
</g>
</g>
<!-- Node4&#45;&gt;Node8 -->
<g id="edge8" class="edge">
<title>Node4&#45;&gt;Node8</title>
<path fill="none" stroke="#191970" d="M549.8573,-189.7368C564.5838,-206.6941 598.7863,-242.2632 636.7822,-255.5 694.8253,-275.7207 716.2279,-273.2382 775.0771,-255.5 801.6492,-247.4907 827.5544,-228.2876 843.861,-214.3799"/>
<polygon fill="#191970" stroke="#191970" points="846.2782,-216.9149 851.4661,-207.6771 841.6498,-211.6635 846.2782,-216.9149"/>
</g>
<!-- Node11 -->
<g id="node12" class="node">
<title>Node11</title>
<g id="a_node12"><a xlink:href="classprevector.html#aab7f6e13a3cac85cc340fc6b90c5365c" target="_top" xlink:title="prevector::end">
<polygon fill="#ffffff" stroke="#000000" points="665.9668,-227.5 665.9668,-245.5 745.8926,-245.5 745.8926,-227.5 665.9668,-227.5"/>
<text text-anchor="middle" x="705.9297" y="-233.5" font-family="Helvetica,sans-Serif" font-size="10.00" fill="#000000">prevector::end</text>
</a>
</g>
</g>
<!-- Node4&#45;&gt;Node11 -->
<g id="edge12" class="edge">
<title>Node4&#45;&gt;Node11</title>
<path fill="none" stroke="#191970" d="M562.5877,-189.5685C581.5553,-197.7953 610.7322,-209.9149 636.7822,-218.5 643.4314,-220.6913 650.5096,-222.7913 657.5044,-224.7337"/>
<polygon fill="#191970" stroke="#191970" points="657.0674,-228.2405 667.6333,-227.459 658.8862,-221.4809 657.0674,-228.2405"/>
</g>
<!-- Node12 -->
<g id="node13" class="node">
<title>Node12</title>
<g id="a_node13"><a xlink:href="classprevector.html#a833f4c9e5c4804fb8ac57b708657af24" target="_top" xlink:title="prevector::capacity">
<polygon fill="#ffffff" stroke="#000000" points="811.0771,-264.5 811.0771,-282.5 911.0029,-282.5 911.0029,-264.5 811.0771,-264.5"/>
<text text-anchor="middle" x="861.04" y="-270.5" font-family="Helvetica,sans-Serif" font-size="10.00" fill="#000000">prevector::capacity</text>
</a>
</g>
</g>
<!-- Node4&#45;&gt;Node12 -->
<g id="edge15" class="edge">
<title>Node4&#45;&gt;Node12</title>
<path fill="none" stroke="#191970" d="M547.6044,-189.6778C560.1719,-210.0015 593.6184,-258.4321 636.7822,-276.5 694.5044,-300.6619 768.1323,-293.3055 814.948,-284.4811"/>
<polygon fill="#191970" stroke="#191970" points="815.6753,-287.9051 824.8034,-282.5267 814.3136,-281.0388 815.6753,-287.9051"/>
</g>
<!-- Node13 -->
<g id="node14" class="node">
<title>Node13</title>
<g id="a_node14"><a xlink:href="classprevector.html#a0e673654d3b7d8d6f79534e17f68741a" target="_top" xlink:title="prevector::change_capacity">
<polygon fill="#ffffff" stroke="#000000" points="636.7822,-38.5 636.7822,-56.5 775.0771,-56.5 775.0771,-38.5 636.7822,-38.5"/>
<text text-anchor="middle" x="705.9297" y="-44.5" font-family="Helvetica,sans-Serif" font-size="10.00" fill="#000000">prevector::change_capacity</text>
</a>
</g>
</g>
<!-- Node4&#45;&gt;Node13 -->
<g id="edge17" class="edge">
<title>Node4&#45;&gt;Node13</title>
<path fill="none" stroke="#191970" d="M553.4572,-171.3584C581.0306,-148.9596 652.2184,-91.1314 686.677,-63.1396"/>
<polygon fill="#191970" stroke="#191970" points="689.0424,-65.7274 694.5974,-56.7056 684.6288,-60.2941 689.0424,-65.7274"/>
</g>
<!-- Node16 -->
<g id="node17" class="node">
<title>Node16</title>
<g id="a_node17"><a xlink:href="classprevector.html#adf0c95f81b436240afdae73855be7da8" target="_top" xlink:title="prevector::fill">
<polygon fill="#ffffff" stroke="#000000" points="669.5874,-114.5 669.5874,-132.5 742.272,-132.5 742.272,-114.5 669.5874,-114.5"/>
<text text-anchor="middle" x="705.9297" y="-120.5" font-family="Helvetica,sans-Serif" font-size="10.00" fill="#000000">prevector::fill</text>
</a>
</g>
</g>
<!-- Node4&#45;&gt;Node16 -->
<g id="edge24" class="edge">
<title>Node4&#45;&gt;Node16</title>
<path fill="none" stroke="#191970" d="M568.2934,-171.384C587.2843,-164.7516 613.6236,-155.5592 636.7822,-147.5 647.6247,-143.7268 659.4262,-139.6278 670.1595,-135.9028"/>
<polygon fill="#191970" stroke="#191970" points="671.358,-139.1917 679.6582,-132.6071 669.0634,-132.5785 671.358,-139.1917"/>
</g>
<!-- Node6 -->
<g id="node7" class="node">
<title>Node6</title>
<g id="a_node7"><a xlink:href="classprevector.html#a933e204a7e29c6bbc85479d023c00ff8" target="_top" xlink:title="prevector::is_direct">
<polygon fill="#ffffff" stroke="#000000" points="953.1187,-170.5 953.1187,-188.5 1053.5962,-188.5 1053.5962,-170.5 953.1187,-170.5"/>
<text text-anchor="middle" x="1003.3574" y="-176.5" font-family="Helvetica,sans-Serif" font-size="10.00" fill="#000000">prevector::is_direct</text>
</a>
</g>
</g>
<!-- Node5&#45;&gt;Node6 -->
<g id="edge6" class="edge">
<title>Node5&#45;&gt;Node6</title>
<path fill="none" stroke="#191970" d="M901.8225,-166.6581C914.645,-168.2798 929.0874,-170.1065 942.97,-171.8623"/>
<polygon fill="#191970" stroke="#191970" points="942.5883,-175.3419 952.9485,-173.1244 943.4667,-168.3972 942.5883,-175.3419"/>
</g>
<!-- Node8&#45;&gt;Node6 -->
<g id="edge9" class="edge">
<title>Node8&#45;&gt;Node6</title>
<path fill="none" stroke="#191970" d="M910.8158,-191.8547C921.1422,-190.4761 932.1309,-189.0091 942.7949,-187.5854"/>
<polygon fill="#191970" stroke="#191970" points="943.4385,-191.0306 952.8874,-186.238 942.5122,-184.0921 943.4385,-191.0306"/>
</g>
<!-- Node9 -->
<g id="node10" class="node">
<title>Node9</title>
<g id="a_node10"><a xlink:href="classprevector.html#a20150a43dd87c33f0e855a55bd3418e8" target="_top" xlink:title="prevector::direct_ptr">
<polygon fill="#ffffff" stroke="#000000" points="950.8945,-104.5 950.8945,-122.5 1055.8203,-122.5 1055.8203,-104.5 950.8945,-104.5"/>
<text text-anchor="middle" x="1003.3574" y="-110.5" font-family="Helvetica,sans-Serif" font-size="10.00" fill="#000000">prevector::direct_ptr</text>
</a>
</g>
</g>
<!-- Node8&#45;&gt;Node9 -->
<g id="edge10" class="edge">
<title>Node8&#45;&gt;Node9</title>
<path fill="none" stroke="#191970" d="M890.4328,-189.4701C897.3425,-186.9249 904.565,-183.9067 911.0029,-180.5 938.5378,-165.9297 967.0957,-143.976 985.0284,-129.2091"/>
<polygon fill="#191970" stroke="#191970" points="987.5031,-131.7022 992.9272,-122.6011 983.0114,-126.3332 987.5031,-131.7022"/>
</g>
<!-- Node10 -->
<g id="node11" class="node">
<title>Node10</title>
<g id="a_node11"><a xlink:href="classprevector.html#ae3343cc65be9fd678b4a6f8305624de6" target="_top" xlink:title="prevector::indirect_ptr">
<polygon fill="#ffffff" stroke="#000000" points="947.0029,-52.5 947.0029,-70.5 1059.7119,-70.5 1059.7119,-52.5 947.0029,-52.5"/>
<text text-anchor="middle" x="1003.3574" y="-58.5" font-family="Helvetica,sans-Serif" font-size="10.00" fill="#000000">prevector::indirect_ptr</text>
</a>
</g>
</g>
<!-- Node8&#45;&gt;Node10 -->
<g id="edge11" class="edge">
<title>Node8&#45;&gt;Node10</title>
<path fill="none" stroke="#191970" d="M897.5156,-189.4651C902.4429,-187.1231 907.1271,-184.1843 911.0029,-180.5 941.0351,-151.9517 919.7198,-125.6861 947.0029,-94.5 953.7625,-86.7735 962.7905,-80.3843 971.6365,-75.353"/>
<polygon fill="#191970" stroke="#191970" points="973.4591,-78.3492 980.6865,-70.6023 970.2055,-72.1513 973.4591,-78.3492"/>
</g>
<!-- Node11&#45;&gt;Node5 -->
<g id="edge14" class="edge">
<title>Node11&#45;&gt;Node5</title>
<path fill="none" stroke="#191970" d="M746.2003,-230.0271C756.077,-227.3793 766.319,-223.6733 775.0771,-218.5 795.1081,-206.6681 791.7187,-193.4029 811.0771,-180.5 814.2359,-178.3946 817.661,-176.4769 821.1864,-174.7407"/>
<polygon fill="#191970" stroke="#191970" points="822.9067,-177.8071 830.6394,-170.5644 820.0779,-171.4041 822.9067,-177.8071"/>
</g>
<!-- Node11&#45;&gt;Node8 -->
<g id="edge13" class="edge">
<title>Node11&#45;&gt;Node8</title>
<path fill="none" stroke="#191970" d="M742.6887,-227.4945C764.1492,-222.237 791.4358,-215.5521 814.399,-209.9265"/>
<polygon fill="#191970" stroke="#191970" points="815.3965,-213.2856 824.2764,-207.5066 813.7308,-206.4867 815.3965,-213.2856"/>
</g>
<!-- Node12&#45;&gt;Node6 -->
<g id="edge16" class="edge">
<title>Node12&#45;&gt;Node6</title>
<path fill="none" stroke="#191970" d="M874.686,-264.4869C899.2754,-248.2457 951.2314,-213.929 981.0538,-194.2314"/>
<polygon fill="#191970" stroke="#191970" points="983.1284,-197.0558 989.5436,-188.6239 979.2705,-191.2148 983.1284,-197.0558"/>
</g>
<!-- Node13&#45;&gt;Node5 -->
<g id="edge23" class="edge">
<title>Node13&#45;&gt;Node5</title>
<path fill="none" stroke="#191970" d="M748.0401,-56.6169C757.6584,-60.1219 767.32,-64.9295 775.0771,-71.5 800.5734,-93.0959 786.8495,-114.4899 811.0771,-137.5 815.2201,-141.4347 820.1289,-144.8353 825.2254,-147.7378"/>
<polygon fill="#191970" stroke="#191970" points="823.9758,-151.0285 834.4772,-152.4323 827.1433,-144.7861 823.9758,-151.0285"/>
</g>
<!-- Node13&#45;&gt;Node6 -->
<g id="edge18" class="edge">
<title>Node13&#45;&gt;Node6</title>
<path fill="none" stroke="#191970" d="M729.2619,-56.5405C742.8016,-61.9707 760.0885,-69.2207 775.0771,-76.5 791.5415,-84.496 794.6545,-88.4186 811.0771,-96.5 866.0302,-123.5418 931.9151,-150.9325 970.5531,-166.5048"/>
<polygon fill="#191970" stroke="#191970" points="969.6472,-169.9125 980.2313,-170.3878 972.2536,-163.4159 969.6472,-169.9125"/>
</g>
<!-- Node13&#45;&gt;Node9 -->
<g id="edge20" class="edge">
<title>Node13&#45;&gt;Node9</title>
<path fill="none" stroke="#191970" d="M746.6621,-56.5386C800.2429,-68.4283 894.3986,-89.3218 952.5687,-102.2298"/>
<polygon fill="#191970" stroke="#191970" points="952.12,-105.7154 962.6408,-104.4649 953.6365,-98.8816 952.12,-105.7154"/>
</g>
<!-- Node13&#45;&gt;Node10 -->
<g id="edge19" class="edge">
<title>Node13&#45;&gt;Node10</title>
<path fill="none" stroke="#191970" d="M775.2879,-50.7647C824.0058,-53.0579 888.7924,-56.1074 936.8636,-58.3701"/>
<polygon fill="#191970" stroke="#191970" points="936.7024,-61.8663 946.8559,-58.8405 937.0316,-54.8741 936.7024,-61.8663"/>
</g>
<!-- Node14 -->
<g id="node15" class="node">
<title>Node14</title>
<g id="a_node15"><a xlink:href="glibc__compat_8cpp.html#a0f46826ab0466591e136db24394923cf" target="_top" xlink:title="memcpy">
<polygon fill="#ffffff" stroke="#000000" points="834.1484,-.5 834.1484,-18.5 887.9316,-18.5 887.9316,-.5 834.1484,-.5"/>
<text text-anchor="middle" x="861.04" y="-6.5" font-family="Helvetica,sans-Serif" font-size="10.00" fill="#000000">memcpy</text>
</a>
</g>
</g>
<!-- Node13&#45;&gt;Node14 -->
<g id="edge21" class="edge">
<title>Node13&#45;&gt;Node14</title>
<path fill="none" stroke="#191970" d="M742.6887,-38.4945C767.1458,-32.5029 799.1696,-24.6574 823.7377,-18.6386"/>
<polygon fill="#191970" stroke="#191970" points="824.8867,-21.9607 833.7666,-16.1816 823.221,-15.1617 824.8867,-21.9607"/>
</g>
<!-- Node15 -->
<g id="node16" class="node">
<title>Node15</title>
<g id="a_node16"><a xlink:href="glibc__compat_8cpp.html#a9778d49e9029dd75bc53ecbbf9f5e9a1" target="_top" xlink:title="memmove">
<polygon fill="#ffffff" stroke="#000000" points="972.02,-.5 972.02,-18.5 1034.6948,-18.5 1034.6948,-.5 972.02,-.5"/>
<text text-anchor="middle" x="1003.3574" y="-6.5" font-family="Helvetica,sans-Serif" font-size="10.00" fill="#000000">memmove</text>
</a>
</g>
</g>
<!-- Node14&#45;&gt;Node15 -->
<g id="edge22" class="edge">
<title>Node14&#45;&gt;Node15</title>
<path fill="none" stroke="#191970" d="M888.1438,-9.5C908.9386,-9.5 938.0086,-9.5 961.7452,-9.5"/>
<polygon fill="#191970" stroke="#191970" points="961.8885,-13.0001 971.8884,-9.5 961.8884,-6.0001 961.8885,-13.0001"/>
</g>
<!-- Node17&#45;&gt;Node5 -->
<g id="edge27" class="edge">
<title>Node17&#45;&gt;Node5</title>
<path fill="none" stroke="#191970" d="M601.2134,-80.0079C649.886,-77.8465 719.6869,-80.3151 775.0771,-104.5 794.9688,-113.1852 793.1006,-125.3363 811.0771,-137.5 816.6212,-141.2514 822.8414,-144.7361 828.9609,-147.8221"/>
<polygon fill="#191970" stroke="#191970" points="827.8509,-151.1707 838.3827,-152.3244 830.869,-144.8548 827.8509,-151.1707"/>
</g>
<!-- Node17&#45;&gt;Node13 -->
<g id="edge26" class="edge">
<title>Node17&#45;&gt;Node13</title>
<path fill="none" stroke="#191970" d="M581.0044,-76.4945C603.8601,-71.1898 632.9763,-64.4321 657.3489,-58.7753"/>
<polygon fill="#191970" stroke="#191970" points="658.1743,-62.1769 667.124,-56.5066 656.5916,-55.3582 658.1743,-62.1769"/>
</g>
</g>
</svg>
