<?xml version="1.0" encoding="UTF-8" standalone="no"?>
<!DOCTYPE svg PUBLIC "-//W3C//DTD SVG 1.1//EN"
 "http://www.w3.org/Graphics/SVG/1.1/DTD/svg11.dtd">
<!-- Generated by graphviz version 2.40.1 (20161225.0304)
 -->
<!-- Title: MutableTransactionSignatureCreator::CreateSig Pages: 1 -->
<svg width="1259pt" height="152pt"
 viewBox="0.00 0.00 1258.75 152.00" xmlns="http://www.w3.org/2000/svg" xmlns:xlink="http://www.w3.org/1999/xlink">
<g id="graph0" class="graph" transform="scale(1 1) rotate(0) translate(4 148)">
<title>MutableTransactionSignatureCreator::CreateSig</title>
<polygon fill="#ffffff" stroke="transparent" points="-4,4 -4,-148 1254.7451,-148 1254.7451,4 -4,4"/>
<!-- Node4 -->
<g id="node1" class="node">
<title>Node4</title>
<polygon fill="#bfbfbf" stroke="#000000" points="0,-64.5 0,-92.5 146.2637,-92.5 146.2637,-64.5 0,-64.5"/>
<text text-anchor="start" x="8" y="-80.5" font-family="Helvetica,sans-Serif" font-size="10.00" fill="#000000">MutableTransactionSignature</text>
<text text-anchor="middle" x="73.1318" y="-70.5" font-family="Helvetica,sans-Serif" font-size="10.00" fill="#000000">Creator::CreateSig</text>
</g>
<!-- Node5 -->
<g id="node2" class="node">
<title>Node5</title>
<g id="a_node2"><a xlink:href="class_signing_provider.html#ae32bd3b9b1ac6b65623a90cb97129b32" target="_top" xlink:title="SigningProvider::GetKey">
<polygon fill="#ffffff" stroke="#000000" points="182.2637,-125.5 182.2637,-143.5 307.7656,-143.5 307.7656,-125.5 182.2637,-125.5"/>
<text text-anchor="middle" x="245.0146" y="-131.5" font-family="Helvetica,sans-Serif" font-size="10.00" fill="#000000">SigningProvider::GetKey</text>
</a>
</g>
</g>
<!-- Node4&#45;&gt;Node5 -->
<g id="edge1" class="edge">
<title>Node4&#45;&gt;Node5</title>
<path fill="none" stroke="#191970" d="M111.8473,-92.5703C132.6306,-99.974 158.7425,-109.0378 182.2637,-116.5 188.7235,-118.5494 195.5893,-120.6235 202.3189,-122.5989"/>
<polygon fill="#191970" stroke="#191970" points="201.439,-125.9879 212.0179,-125.4082 203.3865,-119.2642 201.439,-125.9879"/>
</g>
<!-- Node6 -->
<g id="node3" class="node">
<title>Node6</title>
<g id="a_node3"><a xlink:href="class_c_key.html#a96b017433a65335775cf3807d73f85ce" target="_top" xlink:title="Check whether the public key corresponding to this private key is (to be) compressed. ">
<polygon fill="#ffffff" stroke="#000000" points="189.7759,-88.5 189.7759,-106.5 300.2534,-106.5 300.2534,-88.5 189.7759,-88.5"/>
<text text-anchor="middle" x="245.0146" y="-94.5" font-family="Helvetica,sans-Serif" font-size="10.00" fill="#000000">CKey::IsCompressed</text>
</a>
</g>
</g>
<!-- Node4&#45;&gt;Node6 -->
<g id="edge2" class="edge">
<title>Node4&#45;&gt;Node6</title>
<path fill="none" stroke="#191970" d="M146.5242,-86.6128C157.4493,-87.8205 168.6509,-89.0587 179.4022,-90.2472"/>
<polygon fill="#191970" stroke="#191970" points="179.2245,-93.7488 189.5485,-91.3687 179.9936,-86.7911 179.2245,-93.7488"/>
</g>
<!-- Node7 -->
<g id="node4" class="node">
<title>Node7</title>
<g id="a_node4"><a xlink:href="interpreter_8cpp.html#ab7e49352c6ac58982a356d928065af4f" target="_top" xlink:title="SignatureHash">
<polygon fill="#ffffff" stroke="#000000" points="203.9385,-51.5 203.9385,-69.5 286.0908,-69.5 286.0908,-51.5 203.9385,-51.5"/>
<text text-anchor="middle" x="245.0146" y="-57.5" font-family="Helvetica,sans-Serif" font-size="10.00" fill="#000000">SignatureHash</text>
</a>
</g>
</g>
<!-- Node4&#45;&gt;Node7 -->
<g id="edge3" class="edge">
<title>Node4&#45;&gt;Node7</title>
<path fill="none" stroke="#191970" d="M146.5242,-70.8142C162.3893,-69.1527 178.8376,-67.4302 193.6432,-65.8797"/>
<polygon fill="#191970" stroke="#191970" points="194.0224,-69.3593 203.6035,-64.8367 193.2933,-62.3973 194.0224,-69.3593"/>
</g>
<!-- Node25 -->
<g id="node22" class="node">
<title>Node25</title>
<g id="a_node22"><a xlink:href="class_c_key.html#a58eae0abed8da2f52c940f894b5ace06" target="_top" xlink:title="Create a DER&#45;serialized signature. ">
<polygon fill="#ffffff" stroke="#000000" points="212.0024,-14.5 212.0024,-32.5 278.0269,-32.5 278.0269,-14.5 212.0024,-14.5"/>
<text text-anchor="middle" x="245.0146" y="-20.5" font-family="Helvetica,sans-Serif" font-size="10.00" fill="#000000">CKey::Sign</text>
</a>
</g>
</g>
<!-- Node4&#45;&gt;Node25 -->
<g id="edge23" class="edge">
<title>Node4&#45;&gt;Node25</title>
<path fill="none" stroke="#191970" d="M114.7707,-64.4974C135.0889,-57.733 159.9128,-49.5691 182.2637,-42.5 189.5834,-40.1849 197.4018,-37.7709 204.948,-35.4708"/>
<polygon fill="#191970" stroke="#191970" points="206.0923,-38.7813 214.6468,-32.5305 204.0614,-32.0823 206.0923,-38.7813"/>
</g>
<!-- Node8 -->
<g id="node5" class="node">
<title>Node8</title>
<g id="a_node5"><a xlink:href="class_c_hash_writer.html#ae94a937211502eabf19477630090093a" target="_top" xlink:title="CHashWriter::GetHash">
<polygon fill="#ffffff" stroke="#000000" points="343.7656,-69.5 343.7656,-87.5 461.8359,-87.5 461.8359,-69.5 343.7656,-69.5"/>
<text text-anchor="middle" x="402.8008" y="-75.5" font-family="Helvetica,sans-Serif" font-size="10.00" fill="#000000">CHashWriter::GetHash</text>
</a>
</g>
</g>
<!-- Node7&#45;&gt;Node8 -->
<g id="edge4" class="edge">
<title>Node7&#45;&gt;Node8</title>
<path fill="none" stroke="#191970" d="M286.4711,-65.2293C300.7771,-66.8613 317.2211,-68.7372 333.1549,-70.5549"/>
<polygon fill="#191970" stroke="#191970" points="333.1921,-74.0818 343.5244,-71.7378 333.9856,-67.1269 333.1921,-74.0818"/>
</g>
<!-- Node23 -->
<g id="node20" class="node">
<title>Node23</title>
<g id="a_node20"><a xlink:href="uint256_8h.html#a52e679560cc1ebf68f878ed69e38f259" target="_top" xlink:title="uint256S">
<polygon fill="#ffffff" stroke="#000000" points="375.062,-32.5 375.062,-50.5 430.5396,-50.5 430.5396,-32.5 375.062,-32.5"/>
<text text-anchor="middle" x="402.8008" y="-38.5" font-family="Helvetica,sans-Serif" font-size="10.00" fill="#000000">uint256S</text>
</a>
</g>
</g>
<!-- Node7&#45;&gt;Node23 -->
<g id="edge21" class="edge">
<title>Node7&#45;&gt;Node23</title>
<path fill="none" stroke="#191970" d="M286.4711,-55.508C310.8095,-52.5772 341.336,-48.9014 365.0107,-46.0505"/>
<polygon fill="#191970" stroke="#191970" points="365.5188,-49.5147 375.0286,-44.8442 364.6818,-42.5649 365.5188,-49.5147"/>
</g>
<!-- Node9 -->
<g id="node6" class="node">
<title>Node9</title>
<g id="a_node6"><a xlink:href="class_c_hash3.html#a28921734337c77f3589c0b1a740e2f30" target="_top" xlink:title="CHash3::Finalize">
<polygon fill="#ffffff" stroke="#000000" points="502.0156,-69.5 502.0156,-87.5 594.1582,-87.5 594.1582,-69.5 502.0156,-69.5"/>
<text text-anchor="middle" x="548.0869" y="-75.5" font-family="Helvetica,sans-Serif" font-size="10.00" fill="#000000">CHash3::Finalize</text>
</a>
</g>
</g>
<!-- Node8&#45;&gt;Node9 -->
<g id="edge5" class="edge">
<title>Node8&#45;&gt;Node9</title>
<path fill="none" stroke="#191970" d="M461.8942,-78.5C471.8064,-78.5 482.0676,-78.5 491.9037,-78.5"/>
<polygon fill="#191970" stroke="#191970" points="491.9678,-82.0001 501.9678,-78.5 491.9677,-75.0001 491.9678,-82.0001"/>
</g>
<!-- Node10 -->
<g id="node7" class="node">
<title>Node10</title>
<g id="a_node7"><a xlink:href="class_c_s_h_a3.html#a7aa515a9a0fa6d72667d74897f699ae9" target="_top" xlink:title="CSHA3::Finalize">
<polygon fill="#ffffff" stroke="#000000" points="634.3379,-69.5 634.3379,-87.5 723.6973,-87.5 723.6973,-69.5 634.3379,-69.5"/>
<text text-anchor="middle" x="679.0176" y="-75.5" font-family="Helvetica,sans-Serif" font-size="10.00" fill="#000000">CSHA3::Finalize</text>
</a>
</g>
</g>
<!-- Node9&#45;&gt;Node10 -->
<g id="edge6" class="edge">
<title>Node9&#45;&gt;Node10</title>
<path fill="none" stroke="#191970" d="M594.2482,-78.5C603.8654,-78.5 614.093,-78.5 623.9935,-78.5"/>
<polygon fill="#191970" stroke="#191970" points="624.1533,-82.0001 634.1533,-78.5 624.1533,-75.0001 624.1533,-82.0001"/>
</g>
<!-- Node17 -->
<g id="node14" class="node">
<title>Node17</title>
<g id="a_node14"><a xlink:href="class_c_s_h_a3.html#a9d77a24312b66dcd026dfbed1d917dc1" target="_top" xlink:title="CSHA3::Reset">
<polygon fill="#ffffff" stroke="#000000" points="638.5054,-14.5 638.5054,-32.5 719.5298,-32.5 719.5298,-14.5 638.5054,-14.5"/>
<text text-anchor="middle" x="679.0176" y="-20.5" font-family="Helvetica,sans-Serif" font-size="10.00" fill="#000000">CSHA3::Reset</text>
</a>
</g>
</g>
<!-- Node9&#45;&gt;Node17 -->
<g id="edge14" class="edge">
<title>Node9&#45;&gt;Node17</title>
<path fill="none" stroke="#191970" d="M574.5895,-69.4876C582.2995,-66.7365 590.7002,-63.6125 598.3379,-60.5 616.0139,-53.2966 635.4731,-44.4017 650.8516,-37.1386"/>
<polygon fill="#191970" stroke="#191970" points="652.7845,-40.0949 660.3085,-32.6356 649.775,-33.7748 652.7845,-40.0949"/>
</g>
<!-- Node20 -->
<g id="node17" class="node">
<title>Node20</title>
<g id="a_node17"><a xlink:href="class_c_s_h_a3.html#a439a0fade3fa1b7989c6cf053d39161b" target="_top" xlink:title="CSHA3::Write">
<polygon fill="#ffffff" stroke="#000000" points="639.9897,-107.5 639.9897,-125.5 718.0454,-125.5 718.0454,-107.5 639.9897,-107.5"/>
<text text-anchor="middle" x="679.0176" y="-113.5" font-family="Helvetica,sans-Serif" font-size="10.00" fill="#000000">CSHA3::Write</text>
</a>
</g>
</g>
<!-- Node9&#45;&gt;Node20 -->
<g id="edge17" class="edge">
<title>Node9&#45;&gt;Node20</title>
<path fill="none" stroke="#191970" d="M579.1157,-87.5055C596.7602,-92.6264 619.0704,-99.1015 638.1295,-104.633"/>
<polygon fill="#191970" stroke="#191970" points="637.1785,-108.0014 647.7578,-107.4275 639.1297,-101.2788 637.1785,-108.0014"/>
</g>
<!-- Node11 -->
<g id="node8" class="node">
<title>Node11</title>
<g id="a_node8"><a xlink:href="class_s_h_a3__256.html#a8fe7cad1f83bd1bae1a0d521324247a1" target="_top" xlink:title="Finalizes the hashing process and returns the hash. ">
<polygon fill="#ffffff" stroke="#000000" points="759.6973,-69.5 759.6973,-87.5 860.751,-87.5 860.751,-69.5 759.6973,-69.5"/>
<text text-anchor="middle" x="810.2241" y="-75.5" font-family="Helvetica,sans-Serif" font-size="10.00" fill="#000000">SHA3_256::finalize</text>
</a>
</g>
</g>
<!-- Node10&#45;&gt;Node11 -->
<g id="edge7" class="edge">
<title>Node10&#45;&gt;Node11</title>
<path fill="none" stroke="#191970" d="M723.8045,-78.5C732.0216,-78.5 740.7248,-78.5 749.32,-78.5"/>
<polygon fill="#191970" stroke="#191970" points="749.3246,-82.0001 759.3246,-78.5 749.3246,-75.0001 749.3246,-82.0001"/>
</g>
<!-- Node12 -->
<g id="node9" class="node">
<title>Node12</title>
<g id="a_node9"><a xlink:href="class_keccak_core.html#a97852ee4381ced17ee6d21704cf0b4d7" target="_top" xlink:title="Pads the last block of input data to blockSize(). ">
<polygon fill="#ffffff" stroke="#000000" points="903.7017,-74.5 903.7017,-92.5 996.4106,-92.5 996.4106,-74.5 903.7017,-74.5"/>
<text text-anchor="middle" x="950.0562" y="-80.5" font-family="Helvetica,sans-Serif" font-size="10.00" fill="#000000">KeccakCore::pad</text>
</a>
</g>
</g>
<!-- Node11&#45;&gt;Node12 -->
<g id="edge8" class="edge">
<title>Node11&#45;&gt;Node12</title>
<path fill="none" stroke="#191970" d="M861.1023,-80.3193C871.6357,-80.6959 882.7932,-81.0949 893.5148,-81.4782"/>
<polygon fill="#191970" stroke="#191970" points="893.5074,-84.9801 903.6261,-81.8398 893.7576,-77.9846 893.5074,-84.9801"/>
</g>
<!-- Node14 -->
<g id="node11" class="node">
<title>Node14</title>
<g id="a_node11"><a xlink:href="class_keccak_core.html#aad83ece853c0cc15fcab947fdcba924f" target="_top" xlink:title="Extracts data from the Keccak sponge function. ">
<polygon fill="#ffffff" stroke="#000000" points="897.0391,-37.5 897.0391,-55.5 1003.0732,-55.5 1003.0732,-37.5 897.0391,-37.5"/>
<text text-anchor="middle" x="950.0562" y="-43.5" font-family="Helvetica,sans-Serif" font-size="10.00" fill="#000000">KeccakCore::extract</text>
</a>
</g>
</g>
<!-- Node11&#45;&gt;Node14 -->
<g id="edge10" class="edge">
<title>Node11&#45;&gt;Node14</title>
<path fill="none" stroke="#191970" d="M849.9203,-69.4157C865.5668,-65.835 883.7137,-61.6822 900.2269,-57.9032"/>
<polygon fill="#191970" stroke="#191970" points="901.2935,-61.2497 910.2607,-55.607 899.7319,-54.4261 901.2935,-61.2497"/>
</g>
<!-- Node13 -->
<g id="node10" class="node">
<title>Node13</title>
<g id="a_node10"><a xlink:href="class_keccak_core.html#aba3225c7a4ceff3580236a900b72a1c3" target="_top" xlink:title="Transform the state with the KECCAK&#45;p sponge function with b = 1600. ">
<polygon fill="#ffffff" stroke="#000000" points="1039.3613,-74.5 1039.3613,-92.5 1152.0703,-92.5 1152.0703,-74.5 1039.3613,-74.5"/>
<text text-anchor="middle" x="1095.7158" y="-80.5" font-family="Helvetica,sans-Serif" font-size="10.00" fill="#000000">KeccakCore::keccakp</text>
</a>
</g>
</g>
<!-- Node12&#45;&gt;Node13 -->
<g id="edge9" class="edge">
<title>Node12&#45;&gt;Node13</title>
<path fill="none" stroke="#191970" d="M996.5443,-83.5C1006.9347,-83.5 1018.1517,-83.5 1029.1752,-83.5"/>
<polygon fill="#191970" stroke="#191970" points="1029.2152,-87.0001 1039.2151,-83.5 1029.2151,-80.0001 1029.2152,-87.0001"/>
</g>
<!-- Node14&#45;&gt;Node13 -->
<g id="edge11" class="edge">
<title>Node14&#45;&gt;Node13</title>
<path fill="none" stroke="#191970" d="M985.6885,-55.5512C1005.1586,-60.4969 1029.4769,-66.6742 1050.2964,-71.9627"/>
<polygon fill="#191970" stroke="#191970" points="1049.6453,-75.4084 1060.1992,-74.4782 1051.3687,-68.6239 1049.6453,-75.4084"/>
</g>
<!-- Node15 -->
<g id="node12" class="node">
<title>Node15</title>
<g id="a_node12"><a xlink:href="glibc__compat_8cpp.html#a0f46826ab0466591e136db24394923cf" target="_top" xlink:title="memcpy">
<polygon fill="#ffffff" stroke="#000000" points="1068.8242,-37.5 1068.8242,-55.5 1122.6074,-55.5 1122.6074,-37.5 1068.8242,-37.5"/>
<text text-anchor="middle" x="1095.7158" y="-43.5" font-family="Helvetica,sans-Serif" font-size="10.00" fill="#000000">memcpy</text>
</a>
</g>
</g>
<!-- Node14&#45;&gt;Node15 -->
<g id="edge12" class="edge">
<title>Node14&#45;&gt;Node15</title>
<path fill="none" stroke="#191970" d="M1003.4673,-46.5C1021.5837,-46.5 1041.4294,-46.5 1058.0567,-46.5"/>
<polygon fill="#191970" stroke="#191970" points="1058.4679,-50.0001 1068.4679,-46.5 1058.4678,-43.0001 1058.4679,-50.0001"/>
</g>
<!-- Node16 -->
<g id="node13" class="node">
<title>Node16</title>
<g id="a_node13"><a xlink:href="glibc__compat_8cpp.html#a9778d49e9029dd75bc53ecbbf9f5e9a1" target="_top" xlink:title="memmove">
<polygon fill="#ffffff" stroke="#000000" points="1188.0703,-37.5 1188.0703,-55.5 1250.7451,-55.5 1250.7451,-37.5 1188.0703,-37.5"/>
<text text-anchor="middle" x="1219.4077" y="-43.5" font-family="Helvetica,sans-Serif" font-size="10.00" fill="#000000">memmove</text>
</a>
</g>
</g>
<!-- Node15&#45;&gt;Node16 -->
<g id="edge13" class="edge">
<title>Node15&#45;&gt;Node16</title>
<path fill="none" stroke="#191970" d="M1122.8605,-46.5C1138.9864,-46.5 1159.7659,-46.5 1177.914,-46.5"/>
<polygon fill="#191970" stroke="#191970" points="1177.9589,-50.0001 1187.9588,-46.5 1177.9588,-43.0001 1177.9589,-50.0001"/>
</g>
<!-- Node18 -->
<g id="node15" class="node">
<title>Node18</title>
<g id="a_node15"><a xlink:href="class_s_h_a3__256.html#a57b5f29347a733e04fe47d60621f3202" target="_top" xlink:title="Resets the hash ready for a new hashing process. ">
<polygon fill="#ffffff" stroke="#000000" points="764.1455,-5.5 764.1455,-23.5 856.3027,-23.5 856.3027,-5.5 764.1455,-5.5"/>
<text text-anchor="middle" x="810.2241" y="-11.5" font-family="Helvetica,sans-Serif" font-size="10.00" fill="#000000">SHA3_256::reset</text>
</a>
</g>
</g>
<!-- Node17&#45;&gt;Node18 -->
<g id="edge15" class="edge">
<title>Node17&#45;&gt;Node18</title>
<path fill="none" stroke="#191970" d="M719.8129,-20.7017C730.5257,-19.9668 742.2734,-19.161 753.6517,-18.3805"/>
<polygon fill="#191970" stroke="#191970" points="754.2199,-21.8499 763.957,-17.6737 753.7408,-14.8663 754.2199,-21.8499"/>
</g>
<!-- Node19 -->
<g id="node16" class="node">
<title>Node19</title>
<g id="a_node16"><a xlink:href="class_keccak_core.html#a5a322eb7e3b5c1eaad127c9c6e6a529b" target="_top" xlink:title="Resets the Keccak sponge function ready for a new session. ">
<polygon fill="#ffffff" stroke="#000000" points="900.9282,-.5 900.9282,-18.5 999.1841,-18.5 999.1841,-.5 900.9282,-.5"/>
<text text-anchor="middle" x="950.0562" y="-6.5" font-family="Helvetica,sans-Serif" font-size="10.00" fill="#000000">KeccakCore::reset</text>
</a>
</g>
</g>
<!-- Node18&#45;&gt;Node19 -->
<g id="edge16" class="edge">
<title>Node18&#45;&gt;Node19</title>
<path fill="none" stroke="#191970" d="M856.3979,-12.849C867.2392,-12.4613 878.9447,-12.0427 890.2863,-11.6372"/>
<polygon fill="#191970" stroke="#191970" points="890.6959,-15.1249 900.5644,-11.2697 890.4457,-8.1294 890.6959,-15.1249"/>
</g>
<!-- Node21 -->
<g id="node18" class="node">
<title>Node21</title>
<g id="a_node18"><a xlink:href="class_s_h_a3__256.html#a8356957ea403c5da326fc6899b91ea71" target="_top" xlink:title="Updates the hash with more data. ">
<polygon fill="#ffffff" stroke="#000000" points="759.9683,-108.5 759.9683,-126.5 860.48,-126.5 860.48,-108.5 759.9683,-108.5"/>
<text text-anchor="middle" x="810.2241" y="-114.5" font-family="Helvetica,sans-Serif" font-size="10.00" fill="#000000">SHA3_256::update</text>
</a>
</g>
</g>
<!-- Node20&#45;&gt;Node21 -->
<g id="edge18" class="edge">
<title>Node20&#45;&gt;Node21</title>
<path fill="none" stroke="#191970" d="M718.3839,-116.8C728.2227,-116.875 739.0042,-116.9572 749.6107,-117.038"/>
<polygon fill="#191970" stroke="#191970" points="749.6634,-120.5384 759.6898,-117.1148 749.7168,-113.5386 749.6634,-120.5384"/>
</g>
<!-- Node22 -->
<g id="node19" class="node">
<title>Node22</title>
<g id="a_node19"><a xlink:href="class_keccak_core.html#aaaa0355ccec0f469ac8eb577bdf853ed" target="_top" xlink:title="Updates the Keccak sponge function with more input data. ">
<polygon fill="#ffffff" stroke="#000000" points="896.751,-111.5 896.751,-129.5 1003.3613,-129.5 1003.3613,-111.5 896.751,-111.5"/>
<text text-anchor="middle" x="950.0562" y="-117.5" font-family="Helvetica,sans-Serif" font-size="10.00" fill="#000000">KeccakCore::update</text>
</a>
</g>
</g>
<!-- Node21&#45;&gt;Node22 -->
<g id="edge19" class="edge">
<title>Node21&#45;&gt;Node22</title>
<path fill="none" stroke="#191970" d="M860.7067,-118.5831C869.0283,-118.7616 877.7489,-118.9487 886.3434,-119.1331"/>
<polygon fill="#191970" stroke="#191970" points="886.2706,-122.6322 896.3434,-119.3476 886.4208,-115.6338 886.2706,-122.6322"/>
</g>
<!-- Node22&#45;&gt;Node13 -->
<g id="edge20" class="edge">
<title>Node22&#45;&gt;Node13</title>
<path fill="none" stroke="#191970" d="M985.6885,-111.4488C1005.1586,-106.5031 1029.4769,-100.3258 1050.2964,-95.0373"/>
<polygon fill="#191970" stroke="#191970" points="1051.3687,-98.3761 1060.1992,-92.5218 1049.6453,-91.5916 1051.3687,-98.3761"/>
</g>
<!-- Node24 -->
<g id="node21" class="node">
<title>Node24</title>
<g id="a_node21"><a xlink:href="classbase__blob.html#a5ec1f681a2830f4e180fe664c0eb4dd0" target="_top" xlink:title="base_blob::SetHex">
<polygon fill="#ffffff" stroke="#000000" points="497.8359,-32.5 497.8359,-50.5 598.3379,-50.5 598.3379,-32.5 497.8359,-32.5"/>
<text text-anchor="middle" x="548.0869" y="-38.5" font-family="Helvetica,sans-Serif" font-size="10.00" fill="#000000">base_blob::SetHex</text>
</a>
</g>
</g>
<!-- Node23&#45;&gt;Node24 -->
<g id="edge22" class="edge">
<title>Node23&#45;&gt;Node24</title>
<path fill="none" stroke="#191970" d="M430.8134,-41.5C446.9636,-41.5 467.9189,-41.5 487.6397,-41.5"/>
<polygon fill="#191970" stroke="#191970" points="487.8079,-45.0001 497.8079,-41.5 487.8079,-38.0001 487.8079,-45.0001"/>
</g>
</g>
</svg>
