<?xml version="1.0" encoding="UTF-8" standalone="no"?>
<!DOCTYPE svg PUBLIC "-//W3C//DTD SVG 1.1//EN"
 "http://www.w3.org/Graphics/SVG/1.1/DTD/svg11.dtd">
<!-- Generated by graphviz version 2.40.1 (20161225.0304)
 -->
<!-- Title: ModalOverlay::toggleVisibility Pages: 1 -->
<svg width="498pt" height="27pt"
 viewBox="0.00 0.00 497.96 27.00" xmlns="http://www.w3.org/2000/svg" xmlns:xlink="http://www.w3.org/1999/xlink">
<g id="graph0" class="graph" transform="scale(1 1) rotate(0) translate(4 23)">
<title>ModalOverlay::toggleVisibility</title>
<polygon fill="#ffffff" stroke="transparent" points="-4,4 -4,-23 493.9609,-23 493.9609,4 -4,4"/>
<!-- Node36 -->
<g id="node1" class="node">
<title>Node36</title>
<polygon fill="#bfbfbf" stroke="#000000" points="0,-.5 0,-18.5 146.4346,-18.5 146.4346,-.5 0,-.5"/>
<text text-anchor="middle" x="73.2173" y="-6.5" font-family="Helvetica,sans-Serif" font-size="10.00" fill="#000000">ModalOverlay::toggleVisibility</text>
</g>
<!-- Node37 -->
<g id="node2" class="node">
<title>Node37</title>
<g id="a_node2"><a xlink:href="class_bitcoin_g_u_i.html#af5d948da1312b28fcf6dcfb89f34ba85" target="_top" xlink:title="BitcoinGUI::showModalOverlay">
<polygon fill="#ffffff" stroke="#000000" points="182.4346,-.5 182.4346,-18.5 336.8184,-18.5 336.8184,-.5 182.4346,-.5"/>
<text text-anchor="middle" x="259.6265" y="-6.5" font-family="Helvetica,sans-Serif" font-size="10.00" fill="#000000">BitcoinGUI::showModalOverlay</text>
</a>
</g>
</g>
<!-- Node36&#45;&gt;Node37 -->
<g id="edge1" class="edge">
<title>Node36&#45;&gt;Node37</title>
<path fill="none" stroke="#191970" d="M156.8747,-9.5C165.3375,-9.5 173.9065,-9.5 182.2985,-9.5"/>
<polygon fill="#191970" stroke="#191970" points="156.6236,-6.0001 146.6235,-9.5 156.6235,-13.0001 156.6236,-6.0001"/>
</g>
<!-- Node38 -->
<g id="node3" class="node">
<title>Node38</title>
<g id="a_node3"><a xlink:href="class_bitcoin_g_u_i.html#a58564e8398e33db7beca224c0f71c2b6" target="_top" xlink:title="BitcoinGUI::BitcoinGUI">
<polygon fill="#ffffff" stroke="#000000" points="372.8184,-.5 372.8184,-18.5 489.9609,-18.5 489.9609,-.5 372.8184,-.5"/>
<text text-anchor="middle" x="431.3896" y="-6.5" font-family="Helvetica,sans-Serif" font-size="10.00" fill="#000000">BitcoinGUI::BitcoinGUI</text>
</a>
</g>
</g>
<!-- Node37&#45;&gt;Node38 -->
<g id="edge2" class="edge">
<title>Node37&#45;&gt;Node38</title>
<path fill="none" stroke="#191970" d="M347.1409,-9.5C355.8178,-9.5 364.4725,-9.5 372.7505,-9.5"/>
<polygon fill="#191970" stroke="#191970" points="346.9661,-6.0001 336.966,-9.5 346.966,-13.0001 346.9661,-6.0001"/>
</g>
</g>
</svg>
