<?xml version="1.0" encoding="UTF-8" standalone="no"?>
<!DOCTYPE svg PUBLIC "-//W3C//DTD SVG 1.1//EN"
 "http://www.w3.org/Graphics/SVG/1.1/DTD/svg11.dtd">
<!-- Generated by graphviz version 2.40.1 (20161225.0304)
 -->
<!-- Title: WalletFrame::changePassphrase Pages: 1 -->
<svg width="515pt" height="69pt"
 viewBox="0.00 0.00 515.21 69.00" xmlns="http://www.w3.org/2000/svg" xmlns:xlink="http://www.w3.org/1999/xlink">
<g id="graph0" class="graph" transform="scale(1 1) rotate(0) translate(4 65)">
<title>WalletFrame::changePassphrase</title>
<polygon fill="#ffffff" stroke="transparent" points="-4,4 -4,-65 511.2119,-65 511.2119,4 -4,4"/>
<!-- Node150 -->
<g id="node1" class="node">
<title>Node150</title>
<polygon fill="#bfbfbf" stroke="#000000" points="0,-23.5 0,-41.5 163.4805,-41.5 163.4805,-23.5 0,-23.5"/>
<text text-anchor="middle" x="81.7402" y="-29.5" font-family="Helvetica,sans-Serif" font-size="10.00" fill="#000000">WalletFrame::changePassphrase</text>
</g>
<!-- Node151 -->
<g id="node2" class="node">
<title>Node151</title>
<g id="a_node2"><a xlink:href="class_wallet_frame.html#a026798332d142b693e4f1820185d3f1c" target="_top" xlink:title="WalletFrame::currentWalletView">
<polygon fill="#ffffff" stroke="#000000" points="199.4805,-42.5 199.4805,-60.5 357.3848,-60.5 357.3848,-42.5 199.4805,-42.5"/>
<text text-anchor="middle" x="278.4326" y="-48.5" font-family="Helvetica,sans-Serif" font-size="10.00" fill="#000000">WalletFrame::currentWalletView</text>
</a>
</g>
</g>
<!-- Node150&#45;&gt;Node151 -->
<g id="edge1" class="edge">
<title>Node150&#45;&gt;Node151</title>
<path fill="none" stroke="#191970" d="M163.7312,-40.4201C172.2168,-41.2398 180.8694,-42.0756 189.4269,-42.9023"/>
<polygon fill="#191970" stroke="#191970" points="189.123,-46.3891 199.4132,-43.8669 189.7961,-39.4215 189.123,-46.3891"/>
</g>
<!-- Node152 -->
<g id="node3" class="node">
<title>Node152</title>
<g id="a_node3"><a xlink:href="class_wallet_view.html#a36699c31e256becb2afd92f834830ba0" target="_top" xlink:title="Change encrypted wallet passphrase. ">
<polygon fill="#ffffff" stroke="#000000" points="200.3887,-5.5 200.3887,-23.5 356.4766,-23.5 356.4766,-5.5 200.3887,-5.5"/>
<text text-anchor="middle" x="278.4326" y="-11.5" font-family="Helvetica,sans-Serif" font-size="10.00" fill="#000000">WalletView::changePassphrase</text>
</a>
</g>
</g>
<!-- Node150&#45;&gt;Node152 -->
<g id="edge2" class="edge">
<title>Node150&#45;&gt;Node152</title>
<path fill="none" stroke="#191970" d="M163.7312,-24.9967C172.4441,-24.1994 181.3331,-23.3859 190.1144,-22.5823"/>
<polygon fill="#191970" stroke="#191970" points="190.7169,-26.0419 200.3563,-21.645 190.0789,-19.071 190.7169,-26.0419"/>
</g>
<!-- Node153 -->
<g id="node4" class="node">
<title>Node153</title>
<g id="a_node4"><a xlink:href="class_ask_passphrase_dialog.html#a35b83e1ef98813b6b88155aab0803ed3" target="_top" xlink:title="AskPassphraseDialog\l::setModel">
<polygon fill="#ffffff" stroke="#000000" points="393.3848,-.5 393.3848,-28.5 507.2119,-28.5 507.2119,-.5 393.3848,-.5"/>
<text text-anchor="start" x="401.3848" y="-16.5" font-family="Helvetica,sans-Serif" font-size="10.00" fill="#000000">AskPassphraseDialog</text>
<text text-anchor="middle" x="450.2983" y="-6.5" font-family="Helvetica,sans-Serif" font-size="10.00" fill="#000000">::setModel</text>
</a>
</g>
</g>
<!-- Node152&#45;&gt;Node153 -->
<g id="edge3" class="edge">
<title>Node152&#45;&gt;Node153</title>
<path fill="none" stroke="#191970" d="M356.5706,-14.5C365.4296,-14.5 374.4001,-14.5 383.1011,-14.5"/>
<polygon fill="#191970" stroke="#191970" points="383.1689,-18.0001 393.1689,-14.5 383.1688,-11.0001 383.1689,-18.0001"/>
</g>
</g>
</svg>
