<?xml version="1.0" encoding="UTF-8" standalone="no"?>
<!DOCTYPE svg PUBLIC "-//W3C//DTD SVG 1.1//EN"
 "http://www.w3.org/Graphics/SVG/1.1/DTD/svg11.dtd">
<!-- Generated by graphviz version 2.40.1 (20161225.0304)
 -->
<!-- Title: prevector::rbegin Pages: 1 -->
<svg width="383pt" height="101pt"
 viewBox="0.00 0.00 383.11 101.00" xmlns="http://www.w3.org/2000/svg" xmlns:xlink="http://www.w3.org/1999/xlink">
<g id="graph0" class="graph" transform="scale(1 1) rotate(0) translate(4 97)">
<title>prevector::rbegin</title>
<polygon fill="#ffffff" stroke="transparent" points="-4,4 -4,-97 379.1123,-97 379.1123,4 -4,4"/>
<!-- Node1330 -->
<g id="node1" class="node">
<title>Node1330</title>
<polygon fill="#bfbfbf" stroke="#000000" points="0,-55.5 0,-73.5 91.0391,-73.5 91.0391,-55.5 0,-55.5"/>
<text text-anchor="middle" x="45.5195" y="-61.5" font-family="Helvetica,sans-Serif" font-size="10.00" fill="#000000">prevector::rbegin</text>
</g>
<!-- Node1331 -->
<g id="node2" class="node">
<title>Node1331</title>
<g id="a_node2"><a xlink:href="classprevector.html#a59f1d7bcbc751cfa0faddd7ffa184846" target="_top" xlink:title="prevector::item_ptr">
<polygon fill="#ffffff" stroke="#000000" points="127.0391,-37.5 127.0391,-55.5 226.4033,-55.5 226.4033,-37.5 127.0391,-37.5"/>
<text text-anchor="middle" x="176.7212" y="-43.5" font-family="Helvetica,sans-Serif" font-size="10.00" fill="#000000">prevector::item_ptr</text>
</a>
</g>
</g>
<!-- Node1330&#45;&gt;Node1331 -->
<g id="edge1" class="edge">
<title>Node1330&#45;&gt;Node1331</title>
<path fill="none" stroke="#191970" d="M91.0393,-58.255C99.3379,-57.1165 108.111,-55.9129 116.7527,-54.7273"/>
<polygon fill="#191970" stroke="#191970" points="117.3693,-58.1756 126.8008,-53.3488 116.4178,-51.2405 117.3693,-58.1756"/>
</g>
<!-- Node1335 -->
<g id="node6" class="node">
<title>Node1335</title>
<g id="a_node6"><a xlink:href="classprevector.html#a626f7d206dbc24e5610631809762758b" target="_top" xlink:title="prevector::size">
<polygon fill="#ffffff" stroke="#000000" points="136.209,-74.5 136.209,-92.5 217.2334,-92.5 217.2334,-74.5 136.209,-74.5"/>
<text text-anchor="middle" x="176.7212" y="-80.5" font-family="Helvetica,sans-Serif" font-size="10.00" fill="#000000">prevector::size</text>
</a>
</g>
</g>
<!-- Node1330&#45;&gt;Node1335 -->
<g id="edge5" class="edge">
<title>Node1330&#45;&gt;Node1335</title>
<path fill="none" stroke="#191970" d="M91.0393,-71.092C102.3735,-72.7333 114.5929,-74.5029 126.1539,-76.1771"/>
<polygon fill="#191970" stroke="#191970" points="125.7069,-79.6488 136.1053,-77.6182 126.7102,-72.721 125.7069,-79.6488"/>
</g>
<!-- Node1332 -->
<g id="node3" class="node">
<title>Node1332</title>
<g id="a_node3"><a xlink:href="classprevector.html#a933e204a7e29c6bbc85479d023c00ff8" target="_top" xlink:title="prevector::is_direct">
<polygon fill="#ffffff" stroke="#000000" points="268.519,-74.5 268.519,-92.5 368.9966,-92.5 368.9966,-74.5 268.519,-74.5"/>
<text text-anchor="middle" x="318.7578" y="-80.5" font-family="Helvetica,sans-Serif" font-size="10.00" fill="#000000">prevector::is_direct</text>
</a>
</g>
</g>
<!-- Node1331&#45;&gt;Node1332 -->
<g id="edge2" class="edge">
<title>Node1331&#45;&gt;Node1332</title>
<path fill="none" stroke="#191970" d="M211.4673,-55.5512C230.2965,-60.4562 253.7758,-66.5724 273.9652,-71.8317"/>
<polygon fill="#191970" stroke="#191970" points="273.3188,-75.28 283.8782,-74.414 275.0834,-68.5061 273.3188,-75.28"/>
</g>
<!-- Node1333 -->
<g id="node4" class="node">
<title>Node1333</title>
<g id="a_node4"><a xlink:href="classprevector.html#a20150a43dd87c33f0e855a55bd3418e8" target="_top" xlink:title="prevector::direct_ptr">
<polygon fill="#ffffff" stroke="#000000" points="266.2949,-37.5 266.2949,-55.5 371.2207,-55.5 371.2207,-37.5 266.2949,-37.5"/>
<text text-anchor="middle" x="318.7578" y="-43.5" font-family="Helvetica,sans-Serif" font-size="10.00" fill="#000000">prevector::direct_ptr</text>
</a>
</g>
</g>
<!-- Node1331&#45;&gt;Node1333 -->
<g id="edge3" class="edge">
<title>Node1331&#45;&gt;Node1333</title>
<path fill="none" stroke="#191970" d="M226.798,-46.5C236.2825,-46.5 246.3143,-46.5 256.1292,-46.5"/>
<polygon fill="#191970" stroke="#191970" points="256.247,-50.0001 266.247,-46.5 256.2469,-43.0001 256.247,-50.0001"/>
</g>
<!-- Node1334 -->
<g id="node5" class="node">
<title>Node1334</title>
<g id="a_node5"><a xlink:href="classprevector.html#ae3343cc65be9fd678b4a6f8305624de6" target="_top" xlink:title="prevector::indirect_ptr">
<polygon fill="#ffffff" stroke="#000000" points="262.4033,-.5 262.4033,-18.5 375.1123,-18.5 375.1123,-.5 262.4033,-.5"/>
<text text-anchor="middle" x="318.7578" y="-6.5" font-family="Helvetica,sans-Serif" font-size="10.00" fill="#000000">prevector::indirect_ptr</text>
</a>
</g>
</g>
<!-- Node1331&#45;&gt;Node1334 -->
<g id="edge4" class="edge">
<title>Node1331&#45;&gt;Node1334</title>
<path fill="none" stroke="#191970" d="M211.4673,-37.4488C230.2965,-32.5438 253.7758,-26.4276 273.9652,-21.1683"/>
<polygon fill="#191970" stroke="#191970" points="275.0834,-24.4939 283.8782,-18.586 273.3188,-17.72 275.0834,-24.4939"/>
</g>
<!-- Node1335&#45;&gt;Node1332 -->
<g id="edge6" class="edge">
<title>Node1335&#45;&gt;Node1332</title>
<path fill="none" stroke="#191970" d="M217.4232,-83.5C230.0961,-83.5 244.3546,-83.5 258.0858,-83.5"/>
<polygon fill="#191970" stroke="#191970" points="258.4484,-87.0001 268.4483,-83.5 258.4483,-80.0001 258.4484,-87.0001"/>
</g>
</g>
</svg>
