<?xml version="1.0" encoding="UTF-8" standalone="no"?>
<!DOCTYPE svg PUBLIC "-//W3C//DTD SVG 1.1//EN"
 "http://www.w3.org/Graphics/SVG/1.1/DTD/svg11.dtd">
<!-- Generated by graphviz version 2.40.1 (20161225.0304)
 -->
<!-- Title: TransactionView::copyTxPlainText Pages: 1 -->
<svg width="477pt" height="27pt"
 viewBox="0.00 0.00 477.03 27.00" xmlns="http://www.w3.org/2000/svg" xmlns:xlink="http://www.w3.org/1999/xlink">
<g id="graph0" class="graph" transform="scale(1 1) rotate(0) translate(4 23)">
<title>TransactionView::copyTxPlainText</title>
<polygon fill="#ffffff" stroke="transparent" points="-4,4 -4,-23 473.0283,-23 473.0283,4 -4,4"/>
<!-- Node183 -->
<g id="node1" class="node">
<title>Node183</title>
<polygon fill="#bfbfbf" stroke="#000000" points="0,-.5 0,-18.5 167.7432,-18.5 167.7432,-.5 0,-.5"/>
<text text-anchor="middle" x="83.8716" y="-6.5" font-family="Helvetica,sans-Serif" font-size="10.00" fill="#000000">TransactionView::copyTxPlainText</text>
</g>
<!-- Node184 -->
<g id="node2" class="node">
<title>Node184</title>
<g id="a_node2"><a xlink:href="namespace_g_u_i_util.html#ae231227ad96528c828e1c846f253f642" target="_top" xlink:title="Copy a field of the currently selected entry of a view to the clipboard. ">
<polygon fill="#ffffff" stroke="#000000" points="203.7432,-.5 203.7432,-18.5 323.1074,-18.5 323.1074,-.5 203.7432,-.5"/>
<text text-anchor="middle" x="263.4253" y="-6.5" font-family="Helvetica,sans-Serif" font-size="10.00" fill="#000000">GUIUtil::copyEntryData</text>
</a>
</g>
</g>
<!-- Node183&#45;&gt;Node184 -->
<g id="edge1" class="edge">
<title>Node183&#45;&gt;Node184</title>
<path fill="none" stroke="#191970" d="M167.8656,-9.5C176.4308,-9.5 185.0665,-9.5 193.4591,-9.5"/>
<polygon fill="#191970" stroke="#191970" points="193.5547,-13.0001 203.5546,-9.5 193.5546,-6.0001 193.5547,-13.0001"/>
</g>
<!-- Node185 -->
<g id="node3" class="node">
<title>Node185</title>
<g id="a_node3"><a xlink:href="namespace_g_u_i_util.html#aef655b19f129179ca32f11a4d0da1a07" target="_top" xlink:title="GUIUtil::setClipboard">
<polygon fill="#ffffff" stroke="#000000" points="359.1074,-.5 359.1074,-18.5 469.0283,-18.5 469.0283,-.5 359.1074,-.5"/>
<text text-anchor="middle" x="414.0679" y="-6.5" font-family="Helvetica,sans-Serif" font-size="10.00" fill="#000000">GUIUtil::setClipboard</text>
</a>
</g>
</g>
<!-- Node184&#45;&gt;Node185 -->
<g id="edge2" class="edge">
<title>Node184&#45;&gt;Node185</title>
<path fill="none" stroke="#191970" d="M323.3961,-9.5C331.6792,-9.5 340.221,-9.5 348.5975,-9.5"/>
<polygon fill="#191970" stroke="#191970" points="348.7044,-13.0001 358.7044,-9.5 348.7043,-6.0001 348.7044,-13.0001"/>
</g>
</g>
</svg>
