<?xml version="1.0" encoding="UTF-8" standalone="no"?>
<!DOCTYPE svg PUBLIC "-//W3C//DTD SVG 1.1//EN"
 "http://www.w3.org/Graphics/SVG/1.1/DTD/svg11.dtd">
<!-- Generated by graphviz version 2.40.1 (20161225.0304)
 -->
<!-- Title: OverviewPage Pages: 1 -->
<svg width="1024pt" height="694pt"
 viewBox="0.00 0.00 1024.30 693.87" xmlns="http://www.w3.org/2000/svg" xmlns:xlink="http://www.w3.org/1999/xlink">
<g id="graph0" class="graph" transform="scale(1 1) rotate(0) translate(4 689.8676)">
<title>OverviewPage</title>
<polygon fill="#ffffff" stroke="transparent" points="-4,4 -4,-689.8676 1020.2998,-689.8676 1020.2998,4 -4,4"/>
<!-- Node2 -->
<g id="node1" class="node">
<title>Node2</title>
<polygon fill="#bfbfbf" stroke="#000000" points="729.1079,-594.3676 729.1079,-612.3676 810.1372,-612.3676 810.1372,-594.3676 729.1079,-594.3676"/>
<text text-anchor="middle" x="769.6226" y="-600.3676" font-family="Helvetica,sans-Serif" font-size="10.00" fill="#000000">OverviewPage</text>
</g>
<!-- Node3 -->
<g id="node2" class="node">
<title>Node3</title>
<polygon fill="#ffffff" stroke="#bfbfbf" points="467.3569,-667.3676 467.3569,-685.3676 522.2583,-685.3676 522.2583,-667.3676 467.3569,-667.3676"/>
<text text-anchor="middle" x="494.8076" y="-673.3676" font-family="Helvetica,sans-Serif" font-size="10.00" fill="#000000">QWidget</text>
</g>
<!-- Node3&#45;&gt;Node2 -->
<g id="edge1" class="edge">
<title>Node3&#45;&gt;Node2</title>
<path fill="none" stroke="#191970" d="M532.6597,-673.1788C570.8117,-669.2467 631.0466,-661.062 681.0859,-645.3676 707.7082,-637.0178 736.5561,-622.1294 753.8523,-612.5067"/>
<polygon fill="#191970" stroke="#191970" points="532.1203,-669.7149 522.5113,-674.1779 532.8061,-676.6813 532.1203,-669.7149"/>
</g>
<!-- Node4 -->
<g id="node3" class="node">
<title>Node4</title>
<g id="a_node3"><a xlink:href="structinterfaces_1_1_wallet_balances.html" target="_top" xlink:title="Collection of wallet balances. ">
<polygon fill="#ffffff" stroke="#000000" points="186.5166,-540.3676 186.5166,-558.3676 319.9824,-558.3676 319.9824,-540.3676 186.5166,-540.3676"/>
<text text-anchor="middle" x="253.2495" y="-546.3676" font-family="Helvetica,sans-Serif" font-size="10.00" fill="#000000">interfaces::WalletBalances</text>
</a>
</g>
</g>
<!-- Node4&#45;&gt;Node2 -->
<g id="edge2" class="edge">
<title>Node4&#45;&gt;Node2</title>
<path fill="none" stroke="#9a32cd" stroke-dasharray="5,2" d="M330.1829,-558.7776C391.5787,-566.1545 479.8087,-576.4597 557.126,-584.3676 616.8177,-590.4728 686.0567,-596.4597 728.856,-600.0332"/>
<polygon fill="#9a32cd" stroke="#9a32cd" points="330.532,-555.2944 320.1852,-557.5737 329.695,-562.2442 330.532,-555.2944"/>
<text text-anchor="middle" x="494.8076" y="-584.3676" font-family="Helvetica,sans-Serif" font-size="10.00" fill="#000000"> m_balances</text>
</g>
<!-- Node13 -->
<g id="node12" class="node">
<title>Node13</title>
<g id="a_node12"><a xlink:href="class_wallet_model.html" target="_top" xlink:title="Interface to Bitcoin wallet from Qt view code. ">
<polygon fill="#ffffff" stroke="#000000" points="459.481,-329.3676 459.481,-347.3676 530.1343,-347.3676 530.1343,-329.3676 459.481,-329.3676"/>
<text text-anchor="middle" x="494.8076" y="-335.3676" font-family="Helvetica,sans-Serif" font-size="10.00" fill="#000000">WalletModel</text>
</a>
</g>
</g>
<!-- Node4&#45;&gt;Node13 -->
<g id="edge19" class="edge">
<title>Node4&#45;&gt;Node13</title>
<path fill="none" stroke="#9a32cd" stroke-dasharray="5,2" d="M271.3096,-533.5922C318.9877,-491.9456 447.1314,-380.0126 484.4668,-347.4003"/>
<polygon fill="#9a32cd" stroke="#9a32cd" points="268.8578,-531.0866 263.629,-540.3012 273.4629,-536.3586 268.8578,-531.0866"/>
<text text-anchor="middle" x="385.2358" y="-477.3676" font-family="Helvetica,sans-Serif" font-size="10.00" fill="#000000"> m_cached_balances</text>
</g>
<!-- Node5 -->
<g id="node4" class="node">
<title>Node5</title>
<g id="a_node4"><a xlink:href="class_client_model.html" target="_top" xlink:title="Model for Bitcoin network client. ">
<polygon fill="#ffffff" stroke="#000000" points="460.4063,-105.3676 460.4063,-123.3676 529.209,-123.3676 529.209,-105.3676 460.4063,-105.3676"/>
<text text-anchor="middle" x="494.8076" y="-111.3676" font-family="Helvetica,sans-Serif" font-size="10.00" fill="#000000">ClientModel</text>
</a>
</g>
</g>
<!-- Node5&#45;&gt;Node2 -->
<g id="edge3" class="edge">
<title>Node5&#45;&gt;Node2</title>
<path fill="none" stroke="#9a32cd" stroke-dasharray="5,2" d="M499.4761,-133.902C508.0652,-170.2583 526.6354,-250.8408 539.126,-319.3676 544.0007,-346.1118 538.1741,-420.8781 557.126,-440.3676 596.1344,-480.4827 639.5426,-424.884 681.0859,-462.3676 702.7065,-481.8754 684.9528,-499.9068 699.0859,-525.3676 714.9472,-553.9416 743.1133,-580.6914 758.622,-594.198"/>
<polygon fill="#9a32cd" stroke="#9a32cd" points="502.7747,-132.6438 497.0584,-123.7233 495.9642,-134.2615 502.7747,-132.6438"/>
<text text-anchor="middle" x="619.106" y="-464.3676" font-family="Helvetica,sans-Serif" font-size="10.00" fill="#000000"> clientModel</text>
</g>
<!-- Node7 -->
<g id="node6" class="node">
<title>Node7</title>
<g id="a_node6"><a xlink:href="class_peer_table_model.html" target="_top" xlink:title="Qt model providing information about connected peers, similar to the &quot;getpeerinfo&quot; RPC call...">
<polygon fill="#ffffff" stroke="#000000" points="209.1167,-119.3676 209.1167,-137.3676 297.3823,-137.3676 297.3823,-119.3676 209.1167,-119.3676"/>
<text text-anchor="middle" x="253.2495" y="-125.3676" font-family="Helvetica,sans-Serif" font-size="10.00" fill="#000000">PeerTableModel</text>
</a>
</g>
</g>
<!-- Node5&#45;&gt;Node7 -->
<g id="edge7" class="edge">
<title>Node5&#45;&gt;Node7</title>
<path fill="none" stroke="#9a32cd" stroke-dasharray="5,2" d="M450.3753,-106.3546C444.3809,-105.5327 438.2972,-104.8307 432.4893,-104.3676 390.6191,-101.0296 379.5861,-98.5893 337.9824,-104.3676 317.5381,-107.2071 295.0927,-113.726 278.4421,-119.2541"/>
<polygon fill="#9a32cd" stroke="#9a32cd" points="449.9091,-109.8237 460.3146,-107.8298 450.9368,-102.8995 449.9091,-109.8237"/>
<text text-anchor="middle" x="385.2358" y="-106.3676" font-family="Helvetica,sans-Serif" font-size="10.00" fill="#000000"> clientModel</text>
</g>
<!-- Node10 -->
<g id="node9" class="node">
<title>Node10</title>
<g id="a_node9"><a xlink:href="class_ban_table_model.html" target="_top" xlink:title="Qt model providing information about connected peers, similar to the &quot;getpeerinfo&quot; RPC call...">
<polygon fill="#ffffff" stroke="#000000" points="727.1548,-104.3676 727.1548,-122.3676 812.0903,-122.3676 812.0903,-104.3676 727.1548,-104.3676"/>
<text text-anchor="middle" x="769.6226" y="-110.3676" font-family="Helvetica,sans-Serif" font-size="10.00" fill="#000000">BanTableModel</text>
</a>
</g>
</g>
<!-- Node5&#45;&gt;Node10 -->
<g id="edge12" class="edge">
<title>Node5&#45;&gt;Node10</title>
<path fill="none" stroke="#9a32cd" stroke-dasharray="5,2" d="M539.5469,-114.2048C591.3276,-114.0164 675.9877,-113.7084 726.8972,-113.5231"/>
<polygon fill="#9a32cd" stroke="#9a32cd" points="539.322,-110.7055 529.3349,-114.242 539.3476,-117.7055 539.322,-110.7055"/>
<text text-anchor="middle" x="619.106" y="-116.3676" font-family="Helvetica,sans-Serif" font-size="10.00" fill="#000000"> clientModel</text>
</g>
<!-- Node6 -->
<g id="node5" class="node">
<title>Node6</title>
<polygon fill="#ffffff" stroke="#bfbfbf" points="226.9097,-243.3676 226.9097,-261.3676 279.5894,-261.3676 279.5894,-243.3676 226.9097,-243.3676"/>
<text text-anchor="middle" x="253.2495" y="-249.3676" font-family="Helvetica,sans-Serif" font-size="10.00" fill="#000000">QObject</text>
</g>
<!-- Node6&#45;&gt;Node5 -->
<g id="edge4" class="edge">
<title>Node6&#45;&gt;Node5</title>
<path fill="none" stroke="#191970" d="M289.2291,-241.3094C326.8831,-228.7619 386.7707,-205.994 432.4893,-175.3676 454.8784,-160.3693 476.2611,-136.737 487.2126,-123.7284"/>
<polygon fill="#191970" stroke="#191970" points="288.1107,-237.9927 279.6933,-244.4267 290.2858,-244.6462 288.1107,-237.9927"/>
</g>
<!-- Node6&#45;&gt;Node13 -->
<g id="edge18" class="edge">
<title>Node6&#45;&gt;Node13</title>
<path fill="none" stroke="#191970" d="M288.2293,-264.8212C337.4486,-282.3444 425.9726,-313.8608 469.391,-329.3188"/>
<polygon fill="#191970" stroke="#191970" points="289.2386,-261.4654 278.6439,-261.4086 286.8907,-268.0599 289.2386,-261.4654"/>
</g>
<!-- Node7&#45;&gt;Node5 -->
<g id="edge5" class="edge">
<title>Node7&#45;&gt;Node5</title>
<path fill="none" stroke="#9a32cd" stroke-dasharray="5,2" d="M307.8055,-125.2057C354.5166,-122.4985 420.3566,-118.6826 460.1661,-116.3754"/>
<polygon fill="#9a32cd" stroke="#9a32cd" points="307.3357,-121.727 297.555,-125.7998 307.7408,-128.7153 307.3357,-121.727"/>
<text text-anchor="middle" x="385.2358" y="-126.3676" font-family="Helvetica,sans-Serif" font-size="10.00" fill="#000000"> peerTableModel</text>
</g>
<!-- Node8 -->
<g id="node7" class="node">
<title>Node8</title>
<polygon fill="#ffffff" stroke="#bfbfbf" points="0,-281.3676 0,-299.3676 111.6006,-299.3676 111.6006,-281.3676 0,-281.3676"/>
<text text-anchor="middle" x="55.8003" y="-287.3676" font-family="Helvetica,sans-Serif" font-size="10.00" fill="#000000">QAbstractTableModel</text>
</g>
<!-- Node8&#45;&gt;Node7 -->
<g id="edge6" class="edge">
<title>Node8&#45;&gt;Node7</title>
<path fill="none" stroke="#191970" d="M74.7497,-274.654C89.6424,-262.3167 110.9197,-244.7174 129.6006,-229.3676 170.9331,-195.4055 220.2229,-155.246 241.9795,-137.5369"/>
<polygon fill="#191970" stroke="#191970" points="72.253,-272.1773 66.7868,-281.2531 76.7197,-277.567 72.253,-272.1773"/>
</g>
<!-- Node8&#45;&gt;Node10 -->
<g id="edge11" class="edge">
<title>Node8&#45;&gt;Node10</title>
<path fill="none" stroke="#191970" d="M81.6844,-276.5092C107.5038,-263.3105 148.6684,-243.9355 186.5166,-233.3676 292.7537,-203.7044 324.2356,-221.519 432.4893,-200.3676 547.2846,-177.9381 681.1538,-139.7106 739.6773,-122.3817"/>
<polygon fill="#191970" stroke="#191970" points="79.8432,-273.5214 72.5792,-281.2341 83.0674,-279.7347 79.8432,-273.5214"/>
</g>
<!-- Node14 -->
<g id="node13" class="node">
<title>Node14</title>
<g id="a_node13"><a xlink:href="class_transaction_table_model.html" target="_top" xlink:title="UI model for the transaction table of a wallet. ">
<polygon fill="#ffffff" stroke="#000000" points="710.1113,-498.3676 710.1113,-516.3676 829.1338,-516.3676 829.1338,-498.3676 710.1113,-498.3676"/>
<text text-anchor="middle" x="769.6226" y="-504.3676" font-family="Helvetica,sans-Serif" font-size="10.00" fill="#000000">TransactionTableModel</text>
</a>
</g>
</g>
<!-- Node8&#45;&gt;Node14 -->
<g id="edge21" class="edge">
<title>Node8&#45;&gt;Node14</title>
<path fill="none" stroke="#191970" d="M72.0927,-306.8623C112.6658,-346.7211 223.248,-448.029 337.9824,-489.3676 464.1126,-534.8121 624.5467,-525.5699 709.8861,-515.8539"/>
<polygon fill="#191970" stroke="#191970" points="74.4915,-304.3118 64.931,-299.7459 69.5574,-309.2772 74.4915,-304.3118"/>
</g>
<!-- Node17 -->
<g id="node16" class="node">
<title>Node17</title>
<g id="a_node16"><a xlink:href="class_address_table_model.html" target="_top" xlink:title="Qt model of the address book in the core. ">
<polygon fill="#ffffff" stroke="#000000" points="717.709,-362.3676 717.709,-380.3676 821.5361,-380.3676 821.5361,-362.3676 717.709,-362.3676"/>
<text text-anchor="middle" x="769.6226" y="-368.3676" font-family="Helvetica,sans-Serif" font-size="10.00" fill="#000000">AddressTableModel</text>
</a>
</g>
</g>
<!-- Node8&#45;&gt;Node17 -->
<g id="edge27" class="edge">
<title>Node8&#45;&gt;Node17</title>
<path fill="none" stroke="#191970" d="M85.0054,-303.4647C111.0854,-314.5818 150.6027,-330.0198 186.5166,-338.3676 401.2822,-388.2876 460.7212,-384.826 681.0859,-377.3676 692.9419,-376.9664 705.6756,-376.2637 717.6865,-375.4772"/>
<polygon fill="#191970" stroke="#191970" points="86.271,-300.1987 75.7034,-299.4393 83.4909,-306.623 86.271,-300.1987"/>
</g>
<!-- Node19 -->
<g id="node18" class="node">
<title>Node19</title>
<g id="a_node18"><a xlink:href="class_recent_requests_table_model.html" target="_top" xlink:title="Model for list of recently generated payment requests / bitcoin: URIs. ">
<polygon fill="#ffffff" stroke="#000000" points="699.0859,-263.3676 699.0859,-281.3676 840.1592,-281.3676 840.1592,-263.3676 699.0859,-263.3676"/>
<text text-anchor="middle" x="769.6226" y="-269.3676" font-family="Helvetica,sans-Serif" font-size="10.00" fill="#000000">RecentRequestsTableModel</text>
</a>
</g>
</g>
<!-- Node8&#45;&gt;Node19 -->
<g id="edge33" class="edge">
<title>Node8&#45;&gt;Node19</title>
<path fill="none" stroke="#191970" d="M122.2434,-285.4692C248.6176,-276.1906 514.8268,-256.8424 557.126,-255.3676 612.1858,-253.448 626.2403,-250.1498 681.0859,-255.3676 697.6022,-256.9389 715.6203,-260.1236 731.0649,-263.3162"/>
<polygon fill="#191970" stroke="#191970" points="121.6416,-282.0038 111.925,-286.2272 122.1546,-288.985 121.6416,-282.0038"/>
</g>
<!-- Node9 -->
<g id="node8" class="node">
<title>Node9</title>
<g id="a_node8"><a xlink:href="classinterfaces_1_1_node.html" target="_top" xlink:title="Top&#45;level interface for a bitcoin node (bsha3d process). ">
<polygon fill="#ffffff" stroke="#000000" points="11.3916,-77.3676 11.3916,-95.3676 100.209,-95.3676 100.209,-77.3676 11.3916,-77.3676"/>
<text text-anchor="middle" x="55.8003" y="-83.3676" font-family="Helvetica,sans-Serif" font-size="10.00" fill="#000000">interfaces::Node</text>
</a>
</g>
</g>
<!-- Node9&#45;&gt;Node5 -->
<g id="edge9" class="edge">
<title>Node9&#45;&gt;Node5</title>
<path fill="none" stroke="#9a32cd" stroke-dasharray="5,2" d="M110.8852,-83.9177C184.5883,-81.5627 319.1541,-80.4991 432.4893,-97.3676 444.0253,-99.0846 456.4732,-102.2122 467.1883,-105.3209"/>
<polygon fill="#9a32cd" stroke="#9a32cd" points="110.3375,-80.4342 100.4624,-84.2725 110.5757,-87.4301 110.3375,-80.4342"/>
<text text-anchor="middle" x="253.2495" y="-88.3676" font-family="Helvetica,sans-Serif" font-size="10.00" fill="#000000"> m_node</text>
</g>
<!-- Node9&#45;&gt;Node7 -->
<g id="edge8" class="edge">
<title>Node9&#45;&gt;Node7</title>
<path fill="none" stroke="#9a32cd" stroke-dasharray="5,2" d="M108.2272,-97.5195C140.2208,-104.325 180.6003,-112.9142 210.6215,-119.3001"/>
<polygon fill="#9a32cd" stroke="#9a32cd" points="108.6675,-94.0349 98.1581,-95.3777 107.211,-100.8817 108.6675,-94.0349"/>
<text text-anchor="middle" x="149.0586" y="-112.3676" font-family="Helvetica,sans-Serif" font-size="10.00" fill="#000000"> m_node</text>
</g>
<!-- Node9&#45;&gt;Node10 -->
<g id="edge13" class="edge">
<title>Node9&#45;&gt;Node10</title>
<path fill="none" stroke="#9a32cd" stroke-dasharray="5,2" d="M78.3231,-71.6285C103.5225,-56.0043 146.1249,-32.1301 186.5166,-21.3676 292.2229,6.798 324.2514,3.4972 432.4893,-12.3676 554.9092,-30.3112 694.6032,-83.0638 747.6443,-104.329"/>
<polygon fill="#9a32cd" stroke="#9a32cd" points="76.1415,-68.8668 69.5582,-77.1681 79.8813,-74.784 76.1415,-68.8668"/>
<text text-anchor="middle" x="385.2358" y="-14.3676" font-family="Helvetica,sans-Serif" font-size="10.00" fill="#000000"> m_node</text>
</g>
<!-- Node11 -->
<g id="node10" class="node">
<title>Node11</title>
<g id="a_node10"><a xlink:href="class_options_model.html" target="_top" xlink:title="Interface from Qt to configuration data structure for Bitcoin client. ">
<polygon fill="#ffffff" stroke="#000000" points="214.3999,-31.3676 214.3999,-49.3676 292.0991,-49.3676 292.0991,-31.3676 214.3999,-31.3676"/>
<text text-anchor="middle" x="253.2495" y="-37.3676" font-family="Helvetica,sans-Serif" font-size="10.00" fill="#000000">OptionsModel</text>
</a>
</g>
</g>
<!-- Node9&#45;&gt;Node11 -->
<g id="edge16" class="edge">
<title>Node9&#45;&gt;Node11</title>
<path fill="none" stroke="#9a32cd" stroke-dasharray="5,2" d="M90.6356,-73.9438C102.8516,-69.88 116.7349,-65.5877 129.6006,-62.3676 157.6264,-55.3532 189.765,-49.7063 214.2514,-45.8904"/>
<polygon fill="#9a32cd" stroke="#9a32cd" points="89.1688,-70.7455 80.8252,-77.275 91.4196,-77.3738 89.1688,-70.7455"/>
<text text-anchor="middle" x="149.0586" y="-64.3676" font-family="Helvetica,sans-Serif" font-size="10.00" fill="#000000"> m_node</text>
</g>
<!-- Node9&#45;&gt;Node13 -->
<g id="edge31" class="edge">
<title>Node9&#45;&gt;Node13</title>
<path fill="none" stroke="#9a32cd" stroke-dasharray="5,2" d="M63.7383,-104.8734C80.6582,-142.079 123.9055,-226.1526 186.5166,-270.3676 270.91,-329.9649 398.1699,-338.6641 459.4123,-339.1081"/>
<polygon fill="#9a32cd" stroke="#9a32cd" points="66.9219,-103.4185 59.6699,-95.6944 60.5223,-106.2549 66.9219,-103.4185"/>
<text text-anchor="middle" x="253.2495" y="-326.3676" font-family="Helvetica,sans-Serif" font-size="10.00" fill="#000000"> m_node</text>
</g>
<!-- Node10&#45;&gt;Node5 -->
<g id="edge10" class="edge">
<title>Node10&#45;&gt;Node5</title>
<path fill="none" stroke="#9a32cd" stroke-dasharray="5,2" d="M716.9151,-102.9471C705.1686,-101.0419 692.7409,-99.3479 681.0859,-98.3676 626.1865,-93.75 611.7849,-91.4629 557.126,-98.3676 546.044,-99.7676 534.1108,-102.5152 523.6823,-105.344"/>
<polygon fill="#9a32cd" stroke="#9a32cd" points="716.5812,-106.4404 727.0258,-104.6631 717.7525,-99.5391 716.5812,-106.4404"/>
<text text-anchor="middle" x="619.106" y="-100.3676" font-family="Helvetica,sans-Serif" font-size="10.00" fill="#000000"> banTableModel</text>
</g>
<!-- Node11&#45;&gt;Node5 -->
<g id="edge14" class="edge">
<title>Node11&#45;&gt;Node5</title>
<path fill="none" stroke="#9a32cd" stroke-dasharray="5,2" d="M302.4887,-29.9815C339.9143,-24.5446 391.7304,-22.4337 432.4893,-41.3676 461.3543,-54.7764 481.8371,-88.8127 490.3777,-105.2323"/>
<polygon fill="#9a32cd" stroke="#9a32cd" points="301.6654,-26.5681 292.3356,-31.5884 302.7598,-33.4821 301.6654,-26.5681"/>
<text text-anchor="middle" x="385.2358" y="-43.3676" font-family="Helvetica,sans-Serif" font-size="10.00" fill="#000000"> optionsModel</text>
</g>
<!-- Node11&#45;&gt;Node13 -->
<g id="edge35" class="edge">
<title>Node11&#45;&gt;Node13</title>
<path fill="none" stroke="#9a32cd" stroke-dasharray="5,2" d="M301.8517,-51.2867C308.6508,-54.5653 315.0035,-58.8273 319.9824,-64.3676 342.607,-89.5431 323.205,-107.9159 337.9824,-138.3676 358.9799,-181.637 457.9392,-296.245 486.8551,-329.3158"/>
<polygon fill="#9a32cd" stroke="#9a32cd" points="302.9704,-47.9625 292.3907,-47.3979 300.3092,-54.4369 302.9704,-47.9625"/>
<text text-anchor="middle" x="385.2358" y="-265.3676" font-family="Helvetica,sans-Serif" font-size="10.00" fill="#000000"> optionsModel</text>
</g>
<!-- Node12 -->
<g id="node11" class="node">
<title>Node12</title>
<polygon fill="#ffffff" stroke="#bfbfbf" points="4.1724,-19.3676 4.1724,-37.3676 107.4282,-37.3676 107.4282,-19.3676 4.1724,-19.3676"/>
<text text-anchor="middle" x="55.8003" y="-25.3676" font-family="Helvetica,sans-Serif" font-size="10.00" fill="#000000">QAbstractListModel</text>
</g>
<!-- Node12&#45;&gt;Node11 -->
<g id="edge15" class="edge">
<title>Node12&#45;&gt;Node11</title>
<path fill="none" stroke="#191970" d="M117.6982,-32.1295C149.2569,-34.0475 186.6762,-36.3216 214.1957,-37.9941"/>
<polygon fill="#191970" stroke="#191970" points="117.8717,-28.6337 107.6778,-31.5205 117.447,-35.6208 117.8717,-28.6337"/>
</g>
<!-- Node13&#45;&gt;Node2 -->
<g id="edge17" class="edge">
<title>Node13&#45;&gt;Node2</title>
<path fill="none" stroke="#9a32cd" stroke-dasharray="5,2" d="M496.8868,-357.605C501.5837,-392.2036 516.0193,-465.41 557.126,-509.3676 583.7149,-537.8007 690.9904,-576.7892 742.1797,-594.2569"/>
<polygon fill="#9a32cd" stroke="#9a32cd" points="500.3328,-356.9499 495.6428,-347.4497 493.3847,-357.8011 500.3328,-356.9499"/>
<text text-anchor="middle" x="619.106" y="-572.3676" font-family="Helvetica,sans-Serif" font-size="10.00" fill="#000000"> walletModel</text>
</g>
<!-- Node13&#45;&gt;Node14 -->
<g id="edge25" class="edge">
<title>Node13&#45;&gt;Node14</title>
<path fill="none" stroke="#9a32cd" stroke-dasharray="5,2" d="M516.9528,-353.4004C528.6435,-361.0325 543.3809,-370.1836 557.126,-377.3676 610.2281,-405.122 630.318,-398.5439 681.0859,-430.3676 713.5349,-450.7082 746.0728,-482.7002 761.0691,-498.2607"/>
<polygon fill="#9a32cd" stroke="#9a32cd" points="518.5768,-350.2779 508.3074,-347.6719 514.7102,-356.1131 518.5768,-350.2779"/>
<text text-anchor="middle" x="619.106" y="-432.3676" font-family="Helvetica,sans-Serif" font-size="10.00" fill="#000000"> walletModel</text>
</g>
<!-- Node13&#45;&gt;Node17 -->
<g id="edge30" class="edge">
<title>Node13&#45;&gt;Node17</title>
<path fill="none" stroke="#9a32cd" stroke-dasharray="5,2" d="M540.3839,-333.886C578.3463,-331.2199 633.6665,-329.8177 681.0859,-338.3676 706.27,-342.9084 733.638,-354.1693 751.1764,-362.274"/>
<polygon fill="#9a32cd" stroke="#9a32cd" points="539.8634,-330.4154 530.1579,-334.6643 540.3947,-337.3952 539.8634,-330.4154"/>
<text text-anchor="middle" x="619.106" y="-340.3676" font-family="Helvetica,sans-Serif" font-size="10.00" fill="#000000"> walletModel</text>
</g>
<!-- Node13&#45;&gt;Node19 -->
<g id="edge34" class="edge">
<title>Node13&#45;&gt;Node19</title>
<path fill="none" stroke="#9a32cd" stroke-dasharray="5,2" d="M506.649,-320.5757C517.7136,-305.6788 535.7144,-285.4412 557.126,-276.3676 609.7851,-254.0522 676.577,-257.293 721.0833,-263.3237"/>
<polygon fill="#9a32cd" stroke="#9a32cd" points="503.5994,-318.8266 500.6876,-329.0135 509.3165,-322.8659 503.5994,-318.8266"/>
<text text-anchor="middle" x="619.106" y="-278.3676" font-family="Helvetica,sans-Serif" font-size="10.00" fill="#000000"> walletModel</text>
</g>
<!-- Node14&#45;&gt;Node13 -->
<g id="edge20" class="edge">
<title>Node14&#45;&gt;Node13</title>
<path fill="none" stroke="#9a32cd" stroke-dasharray="5,2" d="M699.7681,-497.7904C640.0772,-489.3567 562.9139,-477.7539 557.126,-473.3676 514.3325,-440.9376 499.9386,-372.0853 496.0453,-347.4058"/>
<polygon fill="#9a32cd" stroke="#9a32cd" points="699.5451,-501.2934 709.9351,-499.2203 700.52,-494.3617 699.5451,-501.2934"/>
<text text-anchor="middle" x="619.106" y="-497.3676" font-family="Helvetica,sans-Serif" font-size="10.00" fill="#000000"> transactionTableModel</text>
</g>
<!-- Node15 -->
<g id="node14" class="node">
<title>Node15</title>
<g id="a_node14"><a xlink:href="class_transaction_table_priv.html" target="_top" xlink:title="TransactionTablePriv">
<polygon fill="#ffffff" stroke="#000000" points="907.292,-497.3676 907.292,-515.3676 1016.2998,-515.3676 1016.2998,-497.3676 907.292,-497.3676"/>
<text text-anchor="middle" x="961.7959" y="-503.3676" font-family="Helvetica,sans-Serif" font-size="10.00" fill="#000000">TransactionTablePriv</text>
</a>
</g>
</g>
<!-- Node14&#45;&gt;Node15 -->
<g id="edge23" class="edge">
<title>Node14&#45;&gt;Node15</title>
<path fill="none" stroke="#9a32cd" stroke-dasharray="5,2" d="M839.4328,-507.0044C861.6787,-506.8886 885.9602,-506.7623 906.9859,-506.6528"/>
<polygon fill="#9a32cd" stroke="#9a32cd" points="839.3556,-503.5046 829.374,-507.0567 839.3921,-510.5045 839.3556,-503.5046"/>
<text text-anchor="middle" x="873.7256" y="-509.3676" font-family="Helvetica,sans-Serif" font-size="10.00" fill="#000000"> parent</text>
</g>
<!-- Node15&#45;&gt;Node14 -->
<g id="edge22" class="edge">
<title>Node15&#45;&gt;Node14</title>
<path fill="none" stroke="#9a32cd" stroke-dasharray="5,2" d="M915.5398,-495.3346C906.8664,-493.6832 897.8395,-492.2425 889.292,-491.3676 860.7249,-488.4435 828.4612,-493.2314 804.6387,-498.3145"/>
<polygon fill="#9a32cd" stroke="#9a32cd" points="915.0141,-498.799 925.5091,-497.3486 916.4003,-491.9376 915.0141,-498.799"/>
<text text-anchor="middle" x="873.7256" y="-493.3676" font-family="Helvetica,sans-Serif" font-size="10.00" fill="#000000"> priv</text>
</g>
<!-- Node16 -->
<g id="node15" class="node">
<title>Node16</title>
<g id="a_node15"><a xlink:href="class_platform_style.html" target="_top" xlink:title="PlatformStyle">
<polygon fill="#ffffff" stroke="#000000" points="215.5181,-589.3676 215.5181,-607.3676 290.981,-607.3676 290.981,-589.3676 215.5181,-589.3676"/>
<text text-anchor="middle" x="253.2495" y="-595.3676" font-family="Helvetica,sans-Serif" font-size="10.00" fill="#000000">PlatformStyle</text>
</a>
</g>
</g>
<!-- Node16&#45;&gt;Node14 -->
<g id="edge24" class="edge">
<title>Node16&#45;&gt;Node14</title>
<path fill="none" stroke="#9a32cd" stroke-dasharray="5,2" d="M301.2213,-587.4706C341.036,-578.7085 399.2289,-566.5517 450.4893,-558.3676 552.3863,-542.099 579.7677,-550.9198 681.0859,-531.3676 701.1015,-527.5051 723.2357,-521.5051 740.3659,-516.4707"/>
<polygon fill="#9a32cd" stroke="#9a32cd" points="300.2651,-584.0975 291.2583,-589.6768 301.7785,-590.9319 300.2651,-584.0975"/>
<text text-anchor="middle" x="494.8076" y="-560.3676" font-family="Helvetica,sans-Serif" font-size="10.00" fill="#000000"> platformStyle</text>
</g>
<!-- Node20 -->
<g id="node19" class="node">
<title>Node20</title>
<g id="a_node19"><a xlink:href="class_tx_view_delegate.html" target="_top" xlink:title="TxViewDelegate">
<polygon fill="#ffffff" stroke="#000000" points="450.4893,-630.3676 450.4893,-648.3676 539.126,-648.3676 539.126,-630.3676 450.4893,-630.3676"/>
<text text-anchor="middle" x="494.8076" y="-636.3676" font-family="Helvetica,sans-Serif" font-size="10.00" fill="#000000">TxViewDelegate</text>
</a>
</g>
</g>
<!-- Node16&#45;&gt;Node20 -->
<g id="edge38" class="edge">
<title>Node16&#45;&gt;Node20</title>
<path fill="none" stroke="#9a32cd" stroke-dasharray="5,2" d="M301.4143,-604.6715C337.5889,-609.6365 388.291,-617.085 432.4893,-625.3676 440.3366,-626.8382 448.6993,-628.589 456.6667,-630.3461"/>
<polygon fill="#9a32cd" stroke="#9a32cd" points="301.527,-601.1547 291.1466,-603.2754 300.5838,-608.0909 301.527,-601.1547"/>
<text text-anchor="middle" x="385.2358" y="-627.3676" font-family="Helvetica,sans-Serif" font-size="10.00" fill="#000000"> platformStyle</text>
</g>
<!-- Node17&#45;&gt;Node13 -->
<g id="edge26" class="edge">
<title>Node17&#45;&gt;Node13</title>
<path fill="none" stroke="#9a32cd" stroke-dasharray="5,2" d="M707.3575,-366.1035C664.925,-362.2265 607.5174,-356.4143 557.126,-349.3676 548.4215,-348.1504 539.0716,-346.6197 530.3296,-345.0904"/>
<polygon fill="#9a32cd" stroke="#9a32cd" points="707.2614,-369.609 717.5357,-367.0227 707.8911,-362.6374 707.2614,-369.609"/>
<text text-anchor="middle" x="619.106" y="-365.3676" font-family="Helvetica,sans-Serif" font-size="10.00" fill="#000000"> addressTableModel</text>
</g>
<!-- Node18 -->
<g id="node17" class="node">
<title>Node18</title>
<g id="a_node17"><a xlink:href="class_address_table_priv.html" target="_top" xlink:title="AddressTablePriv">
<polygon fill="#ffffff" stroke="#000000" points="914.8896,-363.3676 914.8896,-381.3676 1008.7021,-381.3676 1008.7021,-363.3676 914.8896,-363.3676"/>
<text text-anchor="middle" x="961.7959" y="-369.3676" font-family="Helvetica,sans-Serif" font-size="10.00" fill="#000000">AddressTablePriv</text>
</a>
</g>
</g>
<!-- Node17&#45;&gt;Node18 -->
<g id="edge29" class="edge">
<title>Node17&#45;&gt;Node18</title>
<path fill="none" stroke="#9a32cd" stroke-dasharray="5,2" d="M831.7295,-371.6908C858.6652,-371.831 889.6902,-371.9924 914.6822,-372.1225"/>
<polygon fill="#9a32cd" stroke="#9a32cd" points="831.6455,-368.1904 821.6274,-371.6382 831.609,-375.1903 831.6455,-368.1904"/>
<text text-anchor="middle" x="873.7256" y="-374.3676" font-family="Helvetica,sans-Serif" font-size="10.00" fill="#000000"> parent</text>
</g>
<!-- Node18&#45;&gt;Node17 -->
<g id="edge28" class="edge">
<title>Node18&#45;&gt;Node17</title>
<path fill="none" stroke="#9a32cd" stroke-dasharray="5,2" d="M918.1258,-361.1276C908.6805,-359.1477 898.7026,-357.3936 889.292,-356.3676 861.3997,-353.3266 829.9193,-357.579 806.2492,-362.3226"/>
<polygon fill="#9a32cd" stroke="#9a32cd" points="917.5935,-364.5945 928.1139,-363.3409 919.108,-357.7602 917.5935,-364.5945"/>
<text text-anchor="middle" x="873.7256" y="-358.3676" font-family="Helvetica,sans-Serif" font-size="10.00" fill="#000000"> priv</text>
</g>
<!-- Node19&#45;&gt;Node13 -->
<g id="edge32" class="edge">
<title>Node19&#45;&gt;Node13</title>
<path fill="none" stroke="#9a32cd" stroke-dasharray="5,2" d="M711.6334,-283.3349C668.7067,-291.8369 608.9375,-304.481 557.126,-318.3676 545.1629,-321.574 532.0894,-325.6757 521.02,-329.3291"/>
<polygon fill="#9a32cd" stroke="#9a32cd" points="712.4831,-286.735 721.62,-281.3715 711.1326,-279.8664 712.4831,-286.735"/>
<text text-anchor="middle" x="619.106" y="-320.3676" font-family="Helvetica,sans-Serif" font-size="10.00" fill="#000000"> recentRequestsTableModel</text>
</g>
<!-- Node20&#45;&gt;Node2 -->
<g id="edge36" class="edge">
<title>Node20&#45;&gt;Node2</title>
<path fill="none" stroke="#9a32cd" stroke-dasharray="5,2" d="M549.3726,-632.9645C586.5276,-628.5225 636.8105,-622.3507 681.0859,-616.3676 696.7897,-614.2455 714.0349,-611.7507 729.1002,-609.517"/>
<polygon fill="#9a32cd" stroke="#9a32cd" points="548.7726,-629.5112 539.257,-634.17 549.6009,-636.462 548.7726,-629.5112"/>
<text text-anchor="middle" x="619.106" y="-633.3676" font-family="Helvetica,sans-Serif" font-size="10.00" fill="#000000"> txdelegate</text>
</g>
<!-- Node21 -->
<g id="node20" class="node">
<title>Node21</title>
<polygon fill="#ffffff" stroke="#bfbfbf" points="193.2817,-630.3676 193.2817,-648.3676 313.2173,-648.3676 313.2173,-630.3676 193.2817,-630.3676"/>
<text text-anchor="middle" x="253.2495" y="-636.3676" font-family="Helvetica,sans-Serif" font-size="10.00" fill="#000000">QAbstractItemDelegate</text>
</g>
<!-- Node21&#45;&gt;Node20 -->
<g id="edge37" class="edge">
<title>Node21&#45;&gt;Node20</title>
<path fill="none" stroke="#191970" d="M323.4599,-639.3676C364.3965,-639.3676 414.7916,-639.3676 450.2999,-639.3676"/>
<polygon fill="#191970" stroke="#191970" points="323.2709,-635.8677 313.2709,-639.3676 323.2708,-642.8677 323.2709,-635.8677"/>
</g>
</g>
</svg>
