<?xml version="1.0" encoding="UTF-8" standalone="no"?>
<!DOCTYPE svg PUBLIC "-//W3C//DTD SVG 1.1//EN"
 "http://www.w3.org/Graphics/SVG/1.1/DTD/svg11.dtd">
<!-- Generated by graphviz version 2.40.1 (20161225.0304)
 -->
<!-- Title: org.bitcoin.NativeSecp256k1.secp256k1_ecdh Pages: 1 -->
<svg width="798pt" height="37pt"
 viewBox="0.00 0.00 798.16 37.00" xmlns="http://www.w3.org/2000/svg" xmlns:xlink="http://www.w3.org/1999/xlink">
<g id="graph0" class="graph" transform="scale(1 1) rotate(0) translate(4 33)">
<title>org.bitcoin.NativeSecp256k1.secp256k1_ecdh</title>
<polygon fill="#ffffff" stroke="transparent" points="-4,4 -4,-33 794.1641,-33 794.1641,4 -4,4"/>
<!-- Node86 -->
<g id="node1" class="node">
<title>Node86</title>
<polygon fill="#bfbfbf" stroke="#000000" points="0,-5.5 0,-23.5 221.6934,-23.5 221.6934,-5.5 0,-5.5"/>
<text text-anchor="middle" x="110.8467" y="-11.5" font-family="Helvetica,sans-Serif" font-size="10.00" fill="#000000">org.bitcoin.NativeSecp256k1.secp256k1_ecdh</text>
</g>
<!-- Node87 -->
<g id="node2" class="node">
<title>Node87</title>
<g id="a_node2"><a xlink:href="classorg_1_1bitcoin_1_1_native_secp256k1.html#a9d8987b48eeafb460b02606aab2314dc" target="_top" xlink:title="libsecp256k1 create ECDH secret &#45; constant time ECDH calculation ">
<polygon fill="#ffffff" stroke="#000000" points="257.6934,-.5 257.6934,-28.5 431.5645,-28.5 431.5645,-.5 257.6934,-.5"/>
<text text-anchor="start" x="265.6934" y="-16.5" font-family="Helvetica,sans-Serif" font-size="10.00" fill="#000000">org.bitcoin.NativeSecp256k1.create</text>
<text text-anchor="middle" x="344.6289" y="-6.5" font-family="Helvetica,sans-Serif" font-size="10.00" fill="#000000">ECDHSecret</text>
</a>
</g>
</g>
<!-- Node86&#45;&gt;Node87 -->
<g id="edge1" class="edge">
<title>Node86&#45;&gt;Node87</title>
<path fill="none" stroke="#191970" d="M231.9661,-14.5C240.5229,-14.5 249.0495,-14.5 257.3621,-14.5"/>
<polygon fill="#191970" stroke="#191970" points="231.9182,-11.0001 221.9182,-14.5 231.9182,-18.0001 231.9182,-11.0001"/>
</g>
<!-- Node88 -->
<g id="node3" class="node">
<title>Node88</title>
<g id="a_node3"><a xlink:href="classorg_1_1bitcoin_1_1_native_secp256k1_test.html#a7cce6002525d8c92702efef9e2e60db7" target="_top" xlink:title="org.bitcoin.NativeSecp256k1\lTest.testCreateECDHSecret">
<polygon fill="#ffffff" stroke="#000000" points="467.5645,-.5 467.5645,-28.5 610.8643,-28.5 610.8643,-.5 467.5645,-.5"/>
<text text-anchor="start" x="475.5645" y="-16.5" font-family="Helvetica,sans-Serif" font-size="10.00" fill="#000000">org.bitcoin.NativeSecp256k1</text>
<text text-anchor="middle" x="539.2144" y="-6.5" font-family="Helvetica,sans-Serif" font-size="10.00" fill="#000000">Test.testCreateECDHSecret</text>
</a>
</g>
</g>
<!-- Node87&#45;&gt;Node88 -->
<g id="edge2" class="edge">
<title>Node87&#45;&gt;Node88</title>
<path fill="none" stroke="#191970" d="M441.7851,-14.5C450.4099,-14.5 459.0362,-14.5 467.3928,-14.5"/>
<polygon fill="#191970" stroke="#191970" points="441.6772,-11.0001 431.6772,-14.5 441.6772,-18.0001 441.6772,-11.0001"/>
</g>
<!-- Node89 -->
<g id="node4" class="node">
<title>Node89</title>
<g id="a_node4"><a xlink:href="classorg_1_1bitcoin_1_1_native_secp256k1_test.html#a1b8253d7aa2a0c18848c6afd070075ac" target="_top" xlink:title="org.bitcoin.NativeSecp256k1\lTest.main">
<polygon fill="#ffffff" stroke="#000000" points="646.8643,-.5 646.8643,-28.5 790.1641,-28.5 790.1641,-.5 646.8643,-.5"/>
<text text-anchor="start" x="654.8643" y="-16.5" font-family="Helvetica,sans-Serif" font-size="10.00" fill="#000000">org.bitcoin.NativeSecp256k1</text>
<text text-anchor="middle" x="718.5142" y="-6.5" font-family="Helvetica,sans-Serif" font-size="10.00" fill="#000000">Test.main</text>
</a>
</g>
</g>
<!-- Node88&#45;&gt;Node89 -->
<g id="edge3" class="edge">
<title>Node88&#45;&gt;Node89</title>
<path fill="none" stroke="#191970" d="M621.3327,-14.5C629.7671,-14.5 638.2911,-14.5 646.6031,-14.5"/>
<polygon fill="#191970" stroke="#191970" points="621.1094,-11.0001 611.1093,-14.5 621.1093,-18.0001 621.1094,-11.0001"/>
</g>
</g>
</svg>
