<?xml version="1.0" encoding="UTF-8" standalone="no"?>
<!DOCTYPE svg PUBLIC "-//W3C//DTD SVG 1.1//EN"
 "http://www.w3.org/Graphics/SVG/1.1/DTD/svg11.dtd">
<!-- Generated by graphviz version 2.40.1 (20161225.0304)
 -->
<!-- Title: TransactionFilterProxy::setDateRange Pages: 1 -->
<svg width="692pt" height="74pt"
 viewBox="0.00 0.00 692.15 74.00" xmlns="http://www.w3.org/2000/svg" xmlns:xlink="http://www.w3.org/1999/xlink">
<g id="graph0" class="graph" transform="scale(1 1) rotate(0) translate(4 70)">
<title>TransactionFilterProxy::setDateRange</title>
<polygon fill="#ffffff" stroke="transparent" points="-4,4 -4,-70 688.1484,-70 688.1484,4 -4,4"/>
<!-- Node8 -->
<g id="node1" class="node">
<title>Node8</title>
<polygon fill="#bfbfbf" stroke="#000000" points="0,-21.5 0,-49.5 115.6631,-49.5 115.6631,-21.5 0,-21.5"/>
<text text-anchor="start" x="8" y="-37.5" font-family="Helvetica,sans-Serif" font-size="10.00" fill="#000000">TransactionFilterProxy</text>
<text text-anchor="middle" x="57.8315" y="-27.5" font-family="Helvetica,sans-Serif" font-size="10.00" fill="#000000">::setDateRange</text>
</g>
<!-- Node9 -->
<g id="node2" class="node">
<title>Node9</title>
<g id="a_node2"><a xlink:href="class_transaction_view.html#abd49a0777b14f7bf5a72a4d5901d033d" target="_top" xlink:title="TransactionView::chooseDate">
<polygon fill="#ffffff" stroke="#000000" points="331.5293,-47.5 331.5293,-65.5 479.834,-65.5 479.834,-47.5 331.5293,-47.5"/>
<text text-anchor="middle" x="405.6816" y="-53.5" font-family="Helvetica,sans-Serif" font-size="10.00" fill="#000000">TransactionView::chooseDate</text>
</a>
</g>
</g>
<!-- Node8&#45;&gt;Node9 -->
<g id="edge1" class="edge">
<title>Node8&#45;&gt;Node9</title>
<path fill="none" stroke="#191970" d="M126.0471,-39.6182C185.205,-43.1896 270.6503,-48.348 331.4957,-52.0213"/>
<polygon fill="#191970" stroke="#191970" points="126.2466,-36.124 116.0538,-39.0149 125.8247,-43.1113 126.2466,-36.124"/>
</g>
<!-- Node11 -->
<g id="node4" class="node">
<title>Node11</title>
<g id="a_node4"><a xlink:href="class_transaction_view.html#ab9000969ec2cc3617b9c06caf33e747a" target="_top" xlink:title="TransactionView::dateRange\lChanged">
<polygon fill="#ffffff" stroke="#000000" points="151.6631,-.5 151.6631,-28.5 295.5293,-28.5 295.5293,-.5 151.6631,-.5"/>
<text text-anchor="start" x="159.6631" y="-16.5" font-family="Helvetica,sans-Serif" font-size="10.00" fill="#000000">TransactionView::dateRange</text>
<text text-anchor="middle" x="223.5962" y="-6.5" font-family="Helvetica,sans-Serif" font-size="10.00" fill="#000000">Changed</text>
</a>
</g>
</g>
<!-- Node8&#45;&gt;Node11 -->
<g id="edge3" class="edge">
<title>Node8&#45;&gt;Node11</title>
<path fill="none" stroke="#191970" d="M126.0018,-26.8638C134.4651,-25.7916 143.1399,-24.6927 151.6578,-23.6136"/>
<polygon fill="#191970" stroke="#191970" points="125.2888,-23.4261 115.808,-28.1552 126.1686,-30.3706 125.2888,-23.4261"/>
</g>
<!-- Node10 -->
<g id="node3" class="node">
<title>Node10</title>
<g id="a_node3"><a xlink:href="class_transaction_view.html#a6bad80e62c684ad1e77250510c9323aa" target="_top" xlink:title="TransactionView::TransactionView">
<polygon fill="#ffffff" stroke="#000000" points="515.834,-26.5 515.834,-44.5 684.1484,-44.5 684.1484,-26.5 515.834,-26.5"/>
<text text-anchor="middle" x="599.9912" y="-32.5" font-family="Helvetica,sans-Serif" font-size="10.00" fill="#000000">TransactionView::TransactionView</text>
</a>
</g>
</g>
<!-- Node9&#45;&gt;Node10 -->
<g id="edge2" class="edge">
<title>Node9&#45;&gt;Node10</title>
<path fill="none" stroke="#191970" d="M490.1975,-47.366C498.9765,-46.4172 507.8957,-45.4532 516.6615,-44.5059"/>
<polygon fill="#191970" stroke="#191970" points="489.5395,-43.9166 479.9735,-48.4709 490.2917,-50.8761 489.5395,-43.9166"/>
</g>
<!-- Node11&#45;&gt;Node9 -->
<g id="edge4" class="edge">
<title>Node11&#45;&gt;Node9</title>
<path fill="none" stroke="#191970" d="M294.4781,-30.8497C318.9954,-36.5049 345.5665,-42.6338 366.5857,-47.4821"/>
<polygon fill="#191970" stroke="#191970" points="295.012,-27.381 284.4812,-28.5438 293.4386,-34.2019 295.012,-27.381"/>
</g>
<!-- Node12 -->
<g id="node5" class="node">
<title>Node12</title>
<g id="a_node5"><a xlink:href="class_transaction_view.html#a4455d37773d81280d068f0b7751150f7" target="_top" xlink:title="TransactionView::createDate\lRangeWidget">
<polygon fill="#ffffff" stroke="#000000" points="333.7559,-.5 333.7559,-28.5 477.6074,-28.5 477.6074,-.5 333.7559,-.5"/>
<text text-anchor="start" x="341.7559" y="-16.5" font-family="Helvetica,sans-Serif" font-size="10.00" fill="#000000">TransactionView::createDate</text>
<text text-anchor="middle" x="405.6816" y="-6.5" font-family="Helvetica,sans-Serif" font-size="10.00" fill="#000000">RangeWidget</text>
</a>
</g>
</g>
<!-- Node11&#45;&gt;Node12 -->
<g id="edge5" class="edge">
<title>Node11&#45;&gt;Node12</title>
<path fill="none" stroke="#191970" d="M305.6301,-14.5C314.9729,-14.5 324.4435,-14.5 333.6431,-14.5"/>
<polygon fill="#191970" stroke="#191970" points="305.5612,-11.0001 295.5612,-14.5 305.5611,-18.0001 305.5612,-11.0001"/>
</g>
<!-- Node12&#45;&gt;Node10 -->
<g id="edge6" class="edge">
<title>Node12&#45;&gt;Node10</title>
<path fill="none" stroke="#191970" d="M487.94,-23.3901C497.4085,-24.4134 507.0703,-25.4576 516.5541,-26.4825"/>
<polygon fill="#191970" stroke="#191970" points="488.0774,-19.8846 477.7592,-22.2898 487.3252,-26.8441 488.0774,-19.8846"/>
</g>
</g>
</svg>
