<?xml version="1.0" encoding="UTF-8" standalone="no"?>
<!DOCTYPE svg PUBLIC "-//W3C//DTD SVG 1.1//EN"
 "http://www.w3.org/Graphics/SVG/1.1/DTD/svg11.dtd">
<!-- Generated by graphviz version 2.40.1 (20161225.0304)
 -->
<!-- Title: CHashVerifier::read Pages: 1 -->
<svg width="906pt" height="27pt"
 viewBox="0.00 0.00 905.71 27.00" xmlns="http://www.w3.org/2000/svg" xmlns:xlink="http://www.w3.org/1999/xlink">
<g id="graph0" class="graph" transform="scale(1 1) rotate(0) translate(4 23)">
<title>CHashVerifier::read</title>
<polygon fill="#ffffff" stroke="transparent" points="-4,4 -4,-23 901.7119,-23 901.7119,4 -4,4"/>
<!-- Node15 -->
<g id="node1" class="node">
<title>Node15</title>
<polygon fill="#bfbfbf" stroke="#000000" points="0,-.5 0,-18.5 103.2656,-18.5 103.2656,-.5 0,-.5"/>
<text text-anchor="middle" x="51.6328" y="-6.5" font-family="Helvetica,sans-Serif" font-size="10.00" fill="#000000">CHashVerifier::read</text>
</g>
<!-- Node16 -->
<g id="node2" class="node">
<title>Node16</title>
<g id="a_node2"><a xlink:href="class_c_hash_writer.html#ac35dec9b4ebf26d4ce25a329c6c0cae7" target="_top" xlink:title="CHashWriter::write">
<polygon fill="#ffffff" stroke="#000000" points="139.2656,-.5 139.2656,-18.5 238.9863,-18.5 238.9863,-.5 139.2656,-.5"/>
<text text-anchor="middle" x="189.126" y="-6.5" font-family="Helvetica,sans-Serif" font-size="10.00" fill="#000000">CHashWriter::write</text>
</a>
</g>
</g>
<!-- Node15&#45;&gt;Node16 -->
<g id="edge1" class="edge">
<title>Node15&#45;&gt;Node16</title>
<path fill="none" stroke="#191970" d="M103.6131,-9.5C111.8308,-9.5 120.389,-9.5 128.7778,-9.5"/>
<polygon fill="#191970" stroke="#191970" points="128.892,-13.0001 138.892,-9.5 128.8919,-6.0001 128.892,-13.0001"/>
</g>
<!-- Node17 -->
<g id="node3" class="node">
<title>Node17</title>
<g id="a_node3"><a xlink:href="class_c_hash3.html#a3dc880cbca561109d8de7c7ffdd5691e" target="_top" xlink:title="CHash3::Write">
<polygon fill="#ffffff" stroke="#000000" points="274.9863,-.5 274.9863,-18.5 355.8252,-18.5 355.8252,-.5 274.9863,-.5"/>
<text text-anchor="middle" x="315.4058" y="-6.5" font-family="Helvetica,sans-Serif" font-size="10.00" fill="#000000">CHash3::Write</text>
</a>
</g>
</g>
<!-- Node16&#45;&gt;Node17 -->
<g id="edge2" class="edge">
<title>Node16&#45;&gt;Node17</title>
<path fill="none" stroke="#191970" d="M239.0351,-9.5C247.4652,-9.5 256.2247,-9.5 264.6755,-9.5"/>
<polygon fill="#191970" stroke="#191970" points="264.7876,-13.0001 274.7876,-9.5 264.7876,-6.0001 264.7876,-13.0001"/>
</g>
<!-- Node18 -->
<g id="node4" class="node">
<title>Node18</title>
<g id="a_node4"><a xlink:href="class_c_s_h_a3.html#a439a0fade3fa1b7989c6cf053d39161b" target="_top" xlink:title="CSHA3::Write">
<polygon fill="#ffffff" stroke="#000000" points="391.8252,-.5 391.8252,-18.5 469.8809,-18.5 469.8809,-.5 391.8252,-.5"/>
<text text-anchor="middle" x="430.853" y="-6.5" font-family="Helvetica,sans-Serif" font-size="10.00" fill="#000000">CSHA3::Write</text>
</a>
</g>
</g>
<!-- Node17&#45;&gt;Node18 -->
<g id="edge3" class="edge">
<title>Node17&#45;&gt;Node18</title>
<path fill="none" stroke="#191970" d="M356.1081,-9.5C364.3233,-9.5 373.0436,-9.5 381.5175,-9.5"/>
<polygon fill="#191970" stroke="#191970" points="381.6811,-13.0001 391.681,-9.5 381.681,-6.0001 381.6811,-13.0001"/>
</g>
<!-- Node19 -->
<g id="node5" class="node">
<title>Node19</title>
<g id="a_node5"><a xlink:href="class_s_h_a3__256.html#a8356957ea403c5da326fc6899b91ea71" target="_top" xlink:title="Updates the hash with more data. ">
<polygon fill="#ffffff" stroke="#000000" points="505.8809,-.5 505.8809,-18.5 606.3926,-18.5 606.3926,-.5 505.8809,-.5"/>
<text text-anchor="middle" x="556.1367" y="-6.5" font-family="Helvetica,sans-Serif" font-size="10.00" fill="#000000">SHA3_256::update</text>
</a>
</g>
</g>
<!-- Node18&#45;&gt;Node19 -->
<g id="edge4" class="edge">
<title>Node18&#45;&gt;Node19</title>
<path fill="none" stroke="#191970" d="M470.1498,-9.5C478.196,-9.5 486.8419,-9.5 495.4389,-9.5"/>
<polygon fill="#191970" stroke="#191970" points="495.4697,-13.0001 505.4697,-9.5 495.4696,-6.0001 495.4697,-13.0001"/>
</g>
<!-- Node20 -->
<g id="node6" class="node">
<title>Node20</title>
<g id="a_node6"><a xlink:href="class_keccak_core.html#aaaa0355ccec0f469ac8eb577bdf853ed" target="_top" xlink:title="Updates the Keccak sponge function with more input data. ">
<polygon fill="#ffffff" stroke="#000000" points="642.3926,-.5 642.3926,-18.5 749.0029,-18.5 749.0029,-.5 642.3926,-.5"/>
<text text-anchor="middle" x="695.6978" y="-6.5" font-family="Helvetica,sans-Serif" font-size="10.00" fill="#000000">KeccakCore::update</text>
</a>
</g>
</g>
<!-- Node19&#45;&gt;Node20 -->
<g id="edge5" class="edge">
<title>Node19&#45;&gt;Node20</title>
<path fill="none" stroke="#191970" d="M606.5215,-9.5C614.7367,-9.5 623.3414,-9.5 631.8288,-9.5"/>
<polygon fill="#191970" stroke="#191970" points="632.0891,-13.0001 642.0891,-9.5 632.0891,-6.0001 632.0891,-13.0001"/>
</g>
<!-- Node21 -->
<g id="node7" class="node">
<title>Node21</title>
<g id="a_node7"><a xlink:href="class_keccak_core.html#aba3225c7a4ceff3580236a900b72a1c3" target="_top" xlink:title="Transform the state with the KECCAK&#45;p sponge function with b = 1600. ">
<polygon fill="#ffffff" stroke="#000000" points="785.0029,-.5 785.0029,-18.5 897.7119,-18.5 897.7119,-.5 785.0029,-.5"/>
<text text-anchor="middle" x="841.3574" y="-6.5" font-family="Helvetica,sans-Serif" font-size="10.00" fill="#000000">KeccakCore::keccakp</text>
</a>
</g>
</g>
<!-- Node20&#45;&gt;Node21 -->
<g id="edge6" class="edge">
<title>Node20&#45;&gt;Node21</title>
<path fill="none" stroke="#191970" d="M749.1089,-9.5C757.3057,-9.5 765.8565,-9.5 774.303,-9.5"/>
<polygon fill="#191970" stroke="#191970" points="774.5235,-13.0001 784.5234,-9.5 774.5234,-6.0001 774.5235,-13.0001"/>
</g>
</g>
</svg>
