<?xml version="1.0" encoding="UTF-8" standalone="no"?>
<!DOCTYPE svg PUBLIC "-//W3C//DTD SVG 1.1//EN"
 "http://www.w3.org/Graphics/SVG/1.1/DTD/svg11.dtd">
<!-- Generated by graphviz version 2.40.1 (20161225.0304)
 -->
<!-- Title: WalletView::setBitcoinGUI Pages: 1 -->
<svg width="612pt" height="92pt"
 viewBox="0.00 0.00 611.82 92.00" xmlns="http://www.w3.org/2000/svg" xmlns:xlink="http://www.w3.org/1999/xlink">
<g id="graph0" class="graph" transform="scale(1 1) rotate(0) translate(4 88)">
<title>WalletView::setBitcoinGUI</title>
<polygon fill="#ffffff" stroke="transparent" points="-4,4 -4,-88 607.8213,-88 607.8213,4 -4,4"/>
<!-- Node242 -->
<g id="node1" class="node">
<title>Node242</title>
<polygon fill="#bfbfbf" stroke="#000000" points="0,-21.5 0,-39.5 131.6055,-39.5 131.6055,-21.5 0,-21.5"/>
<text text-anchor="middle" x="65.8027" y="-27.5" font-family="Helvetica,sans-Serif" font-size="10.00" fill="#000000">WalletView::setBitcoinGUI</text>
</g>
<!-- Node243 -->
<g id="node2" class="node">
<title>Node243</title>
<g id="a_node2"><a xlink:href="class_bitcoin_g_u_i.html#ad3d278358e571a9b70ee99dacaeaa0f5" target="_top" xlink:title="Notify the user of an event from the core network or transaction handling code. ">
<polygon fill="#ffffff" stroke="#000000" points="167.6055,-21.5 167.6055,-39.5 277.5313,-39.5 277.5313,-21.5 167.6055,-21.5"/>
<text text-anchor="middle" x="222.5684" y="-27.5" font-family="Helvetica,sans-Serif" font-size="10.00" fill="#000000">BitcoinGUI::message</text>
</a>
</g>
</g>
<!-- Node242&#45;&gt;Node243 -->
<g id="edge1" class="edge">
<title>Node242&#45;&gt;Node243</title>
<path fill="none" stroke="#191970" d="M131.8311,-30.5C140.2786,-30.5 148.9225,-30.5 157.357,-30.5"/>
<polygon fill="#191970" stroke="#191970" points="157.514,-34.0001 167.5139,-30.5 157.5139,-27.0001 157.514,-34.0001"/>
</g>
<!-- Node244 -->
<g id="node3" class="node">
<title>Node244</title>
<g id="a_node3"><a xlink:href="class_bitcoin_g_u_i.html#aca9a193e0484c1caf924e76d96800a9f" target="_top" xlink:title="Show window if hidden, unminimize when minimized, rise when obscured or show if hidden and fToggleHid...">
<polygon fill="#ffffff" stroke="#000000" points="313.5313,-37.5 313.5313,-65.5 444.0088,-65.5 444.0088,-37.5 313.5313,-37.5"/>
<text text-anchor="start" x="321.5313" y="-53.5" font-family="Helvetica,sans-Serif" font-size="10.00" fill="#000000">BitcoinGUI::showNormalIf</text>
<text text-anchor="middle" x="378.77" y="-43.5" font-family="Helvetica,sans-Serif" font-size="10.00" fill="#000000">Minimized</text>
</a>
</g>
</g>
<!-- Node243&#45;&gt;Node244 -->
<g id="edge2" class="edge">
<title>Node243&#45;&gt;Node244</title>
<path fill="none" stroke="#191970" d="M277.6392,-37.9038C285.9725,-39.0242 294.69,-40.1962 303.3632,-41.3622"/>
<polygon fill="#191970" stroke="#191970" points="303.1214,-44.8611 313.4986,-42.7248 304.0542,-37.9235 303.1214,-44.8611"/>
</g>
<!-- Node245 -->
<g id="node4" class="node">
<title>Node245</title>
<g id="a_node4"><a xlink:href="class_notificator.html#ae08e1e7e85ddc4690f307649021f7fdc" target="_top" xlink:title="Show notification message. ">
<polygon fill="#ffffff" stroke="#000000" points="333.5337,-.5 333.5337,-18.5 424.0063,-18.5 424.0063,-.5 333.5337,-.5"/>
<text text-anchor="middle" x="378.77" y="-6.5" font-family="Helvetica,sans-Serif" font-size="10.00" fill="#000000">Notificator::notify</text>
</a>
</g>
</g>
<!-- Node243&#45;&gt;Node245 -->
<g id="edge4" class="edge">
<title>Node243&#45;&gt;Node245</title>
<path fill="none" stroke="#191970" d="M277.6392,-23.0962C292.4833,-21.1005 308.5463,-18.941 323.4063,-16.9432"/>
<polygon fill="#191970" stroke="#191970" points="324.0276,-20.3912 333.472,-15.5899 323.0948,-13.4537 324.0276,-20.3912"/>
</g>
<!-- Node244&#45;&gt;Node244 -->
<g id="edge3" class="edge">
<title>Node244&#45;&gt;Node244</title>
<path fill="none" stroke="#191970" d="M352.098,-65.5305C344.5903,-74.8898 353.481,-84 378.77,-84 394.5757,-84 403.9757,-80.4413 406.9702,-75.4873"/>
<polygon fill="#191970" stroke="#191970" points="410.4186,-74.8838 405.4421,-65.5305 403.4996,-75.9457 410.4186,-74.8838"/>
</g>
<!-- Node246 -->
<g id="node5" class="node">
<title>Node246</title>
<g id="a_node5"><a xlink:href="class_notificator.html#ac48ec94cd02fc4ea80db6c50e24086c1" target="_top" xlink:title="Notificator::notifySystray">
<polygon fill="#ffffff" stroke="#000000" points="480.0088,-.5 480.0088,-18.5 603.8213,-18.5 603.8213,-.5 480.0088,-.5"/>
<text text-anchor="middle" x="541.915" y="-6.5" font-family="Helvetica,sans-Serif" font-size="10.00" fill="#000000">Notificator::notifySystray</text>
</a>
</g>
</g>
<!-- Node245&#45;&gt;Node246 -->
<g id="edge5" class="edge">
<title>Node245&#45;&gt;Node246</title>
<path fill="none" stroke="#191970" d="M424.215,-9.5C438.3686,-9.5 454.3407,-9.5 469.8482,-9.5"/>
<polygon fill="#191970" stroke="#191970" points="469.9479,-13.0001 479.9479,-9.5 469.9479,-6.0001 469.9479,-13.0001"/>
</g>
</g>
</svg>
