<?xml version="1.0" encoding="UTF-8" standalone="no"?>
<!DOCTYPE svg PUBLIC "-//W3C//DTD SVG 1.1//EN"
 "http://www.w3.org/Graphics/SVG/1.1/DTD/svg11.dtd">
<!-- Generated by graphviz version 2.40.1 (20161225.0304)
 -->
<!-- Title: CChainParams::GetConsensus Pages: 1 -->
<svg width="871pt" height="494pt"
 viewBox="0.00 0.00 870.96 494.00" xmlns="http://www.w3.org/2000/svg" xmlns:xlink="http://www.w3.org/1999/xlink">
<g id="graph0" class="graph" transform="scale(1 1) rotate(0) translate(4 490)">
<title>CChainParams::GetConsensus</title>
<polygon fill="#ffffff" stroke="transparent" points="-4,4 -4,-490 866.9629,-490 866.9629,4 -4,4"/>
<!-- Node38 -->
<g id="node1" class="node">
<title>Node38</title>
<polygon fill="#bfbfbf" stroke="#000000" points="0,-231.5 0,-249.5 155.5068,-249.5 155.5068,-231.5 0,-231.5"/>
<text text-anchor="middle" x="77.7534" y="-237.5" font-family="Helvetica,sans-Serif" font-size="10.00" fill="#000000">CChainParams::GetConsensus</text>
</g>
<!-- Node39 -->
<g id="node2" class="node">
<title>Node39</title>
<g id="a_node2"><a xlink:href="class_base_index.html#a96a7407421fbf877509248bbe64f8d87" target="_top" xlink:title="Sync the index with the block index starting from the current best block. ">
<polygon fill="#ffffff" stroke="#000000" points="201.7754,-467.5 201.7754,-485.5 324.5039,-485.5 324.5039,-467.5 201.7754,-467.5"/>
<text text-anchor="middle" x="263.1396" y="-473.5" font-family="Helvetica,sans-Serif" font-size="10.00" fill="#000000">BaseIndex::ThreadSync</text>
</a>
</g>
</g>
<!-- Node38&#45;&gt;Node39 -->
<g id="edge1" class="edge">
<title>Node38&#45;&gt;Node39</title>
<path fill="none" stroke="#191970" d="M82.061,-259.5639C92.7156,-302.1842 124.4402,-405.5819 191.5068,-458.5 196.1375,-462.1537 201.4168,-465.0756 206.9622,-467.4106"/>
<polygon fill="#191970" stroke="#191970" points="85.4262,-258.5871 79.6992,-249.6735 78.6176,-260.213 85.4262,-258.5871"/>
</g>
<!-- Node40 -->
<g id="node3" class="node">
<title>Node40</title>
<g id="a_node3"><a xlink:href="class_block_assembler.html#a24b566785f9f88bc72d744095b89c607" target="_top" xlink:title="Construct a new block template with coinbase to scriptPubKeyIn. ">
<polygon fill="#ffffff" stroke="#000000" points="191.5068,-420.5 191.5068,-448.5 334.7725,-448.5 334.7725,-420.5 191.5068,-420.5"/>
<text text-anchor="start" x="199.5068" y="-436.5" font-family="Helvetica,sans-Serif" font-size="10.00" fill="#000000">BlockAssembler::CreateNew</text>
<text text-anchor="middle" x="263.1396" y="-426.5" font-family="Helvetica,sans-Serif" font-size="10.00" fill="#000000">Block</text>
</a>
</g>
</g>
<!-- Node38&#45;&gt;Node40 -->
<g id="edge2" class="edge">
<title>Node38&#45;&gt;Node40</title>
<path fill="none" stroke="#191970" d="M85.2581,-259.41C100.1658,-294.5739 136.8572,-370.1928 191.5068,-411.5 196.0916,-414.9654 201.2164,-417.919 206.5603,-420.4344"/>
<polygon fill="#191970" stroke="#191970" points="88.3779,-257.7939 81.3352,-249.8786 81.9047,-260.4581 88.3779,-257.7939"/>
</g>
<!-- Node41 -->
<g id="node4" class="node">
<title>Node41</title>
<g id="a_node4"><a xlink:href="class_peer_logic_validation.html#a36a284fceddbba112ed000475e52a4e3" target="_top" xlink:title="Send queued protocol messages to be sent to a give node. ">
<polygon fill="#ffffff" stroke="#000000" points="211.0332,-373.5 211.0332,-401.5 315.2461,-401.5 315.2461,-373.5 211.0332,-373.5"/>
<text text-anchor="start" x="219.0332" y="-389.5" font-family="Helvetica,sans-Serif" font-size="10.00" fill="#000000">PeerLogicValidation</text>
<text text-anchor="middle" x="263.1396" y="-379.5" font-family="Helvetica,sans-Serif" font-size="10.00" fill="#000000">::SendMessages</text>
</a>
</g>
</g>
<!-- Node38&#45;&gt;Node41 -->
<g id="edge3" class="edge">
<title>Node38&#45;&gt;Node41</title>
<path fill="none" stroke="#191970" d="M89.4012,-258.1919C107.9208,-284.9804 146.612,-335.7506 191.5068,-364.5 197.4466,-368.3036 204.0678,-371.526 210.8186,-374.2431"/>
<polygon fill="#191970" stroke="#191970" points="92.2191,-256.1109 83.7148,-249.792 86.4224,-260.035 92.2191,-256.1109"/>
</g>
<!-- Node42 -->
<g id="node5" class="node">
<title>Node42</title>
<g id="a_node5"><a xlink:href="class_bitcoin_g_u_i.html#ad06b7274e4d51189c0a1994866835f17" target="_top" xlink:title="BitcoinGUI::updateHeaders\lSyncProgressLabel">
<polygon fill="#ffffff" stroke="#000000" points="194.2729,-326.5 194.2729,-354.5 332.0063,-354.5 332.0063,-326.5 194.2729,-326.5"/>
<text text-anchor="start" x="202.2729" y="-342.5" font-family="Helvetica,sans-Serif" font-size="10.00" fill="#000000">BitcoinGUI::updateHeaders</text>
<text text-anchor="middle" x="263.1396" y="-332.5" font-family="Helvetica,sans-Serif" font-size="10.00" fill="#000000">SyncProgressLabel</text>
</a>
</g>
</g>
<!-- Node38&#45;&gt;Node42 -->
<g id="edge4" class="edge">
<title>Node38&#45;&gt;Node42</title>
<path fill="none" stroke="#191970" d="M99.0268,-255.3409C121.4052,-270.5748 157.9638,-294.405 191.5068,-311.5 202.0262,-316.8611 213.7779,-321.9632 224.6718,-326.3509"/>
<polygon fill="#191970" stroke="#191970" points="100.8543,-252.35 90.6296,-249.5739 96.8913,-258.1203 100.8543,-252.35"/>
</g>
<!-- Node43 -->
<g id="node6" class="node">
<title>Node43</title>
<g id="a_node6"><a xlink:href="mining_8h.html#a4910d289954727eb7c4c24a6b3c50c55" target="_top" xlink:title="Generate blocks (mine) ">
<polygon fill="#ffffff" stroke="#000000" points="686.5547,-189.5 686.5547,-207.5 771.4854,-207.5 771.4854,-189.5 686.5547,-189.5"/>
<text text-anchor="middle" x="729.02" y="-195.5" font-family="Helvetica,sans-Serif" font-size="10.00" fill="#000000">generateBlocks</text>
</a>
</g>
</g>
<!-- Node38&#45;&gt;Node43 -->
<g id="edge5" class="edge">
<title>Node38&#45;&gt;Node43</title>
<path fill="none" stroke="#191970" d="M108.0127,-253.3808C130.5699,-262.2939 162.3806,-273.4296 191.5068,-278.5 333.7266,-303.2579 373.9716,-306.6897 516.2891,-282.5 593.6024,-269.3591 678.2386,-226.4984 712.8828,-207.5959"/>
<polygon fill="#191970" stroke="#191970" points="109.2281,-250.097 98.6451,-249.5967 106.6062,-256.5875 109.2281,-250.097"/>
</g>
<!-- Node45 -->
<g id="node8" class="node">
<title>Node45</title>
<g id="a_node8"><a xlink:href="class_c_chain_state.html#a06a01f2d89b7a40b5341083aa522a1e2" target="_top" xlink:title="Apply the effects of this block (with given index) on the UTXO set represented by coins...">
<polygon fill="#ffffff" stroke="#000000" points="193.1621,-250.5 193.1621,-268.5 333.1172,-268.5 333.1172,-250.5 193.1621,-250.5"/>
<text text-anchor="middle" x="263.1396" y="-256.5" font-family="Helvetica,sans-Serif" font-size="10.00" fill="#000000">CChainState::ConnectBlock</text>
</a>
</g>
</g>
<!-- Node38&#45;&gt;Node45 -->
<g id="edge7" class="edge">
<title>Node38&#45;&gt;Node45</title>
<path fill="none" stroke="#191970" d="M165.7914,-249.5229C174.8854,-250.4549 184.0393,-251.3931 192.9018,-252.3014"/>
<polygon fill="#191970" stroke="#191970" points="165.8728,-246.013 155.5681,-248.4751 165.1591,-252.9765 165.8728,-246.013"/>
</g>
<!-- Node46 -->
<g id="node9" class="node">
<title>Node46</title>
<g id="a_node9"><a xlink:href="class_c_chain_state.html#a57682556dc35715fba5f0c6075efcc6e" target="_top" xlink:title="Disconnect chainActive&#39;s tip. ">
<polygon fill="#ffffff" stroke="#000000" points="192.5151,-213.5 192.5151,-231.5 333.7642,-231.5 333.7642,-213.5 192.5151,-213.5"/>
<text text-anchor="middle" x="263.1396" y="-219.5" font-family="Helvetica,sans-Serif" font-size="10.00" fill="#000000">CChainState::DisconnectTip</text>
</a>
</g>
</g>
<!-- Node38&#45;&gt;Node46 -->
<g id="edge8" class="edge">
<title>Node38&#45;&gt;Node46</title>
<path fill="none" stroke="#191970" d="M165.6271,-231.9679C174.5749,-231.0992 183.5827,-230.2245 192.3159,-229.3766"/>
<polygon fill="#191970" stroke="#191970" points="165.183,-228.4945 155.5681,-232.9446 165.8595,-235.4617 165.183,-228.4945"/>
</g>
<!-- Node50 -->
<g id="node13" class="node">
<title>Node50</title>
<g id="a_node13"><a xlink:href="class_c_chain_state.html#afc0586502e4dd4092c4a0707d329f6eb" target="_top" xlink:title="CChainState::RewindBlock\lIndex">
<polygon fill="#ffffff" stroke="#000000" points="375.5015,-160.5 375.5015,-188.5 511.5601,-188.5 511.5601,-160.5 375.5015,-160.5"/>
<text text-anchor="start" x="383.5015" y="-176.5" font-family="Helvetica,sans-Serif" font-size="10.00" fill="#000000">CChainState::RewindBlock</text>
<text text-anchor="middle" x="443.5308" y="-166.5" font-family="Helvetica,sans-Serif" font-size="10.00" fill="#000000">Index</text>
</a>
</g>
</g>
<!-- Node38&#45;&gt;Node50 -->
<g id="edge22" class="edge">
<title>Node38&#45;&gt;Node50</title>
<path fill="none" stroke="#191970" d="M111.5089,-227.9767C133.907,-220.1267 164.1146,-210.4098 191.5068,-204.5 252.9921,-191.2347 324.2705,-183.4352 375.3023,-179.1306"/>
<polygon fill="#191970" stroke="#191970" points="110.0522,-224.78 101.8056,-231.4317 112.4002,-231.3745 110.0522,-224.78"/>
</g>
<!-- Node52 -->
<g id="node15" class="node">
<title>Node52</title>
<g id="a_node15"><a xlink:href="class_c_chain_state.html#a1ac66256eca2e5a25c7484f82b3b50ad" target="_top" xlink:title="Connect a new block to chainActive. ">
<polygon fill="#ffffff" stroke="#000000" points="198.626,-137.5 198.626,-155.5 327.6533,-155.5 327.6533,-137.5 198.626,-137.5"/>
<text text-anchor="middle" x="263.1396" y="-143.5" font-family="Helvetica,sans-Serif" font-size="10.00" fill="#000000">CChainState::ConnectTip</text>
</a>
</g>
</g>
<!-- Node38&#45;&gt;Node52 -->
<g id="edge14" class="edge">
<title>Node38&#45;&gt;Node52</title>
<path fill="none" stroke="#191970" d="M98.8536,-225.4744C121.0917,-210.1361 157.5381,-186.3867 191.5068,-170.5 203.9814,-164.6658 218.2736,-159.58 230.7938,-155.6101"/>
<polygon fill="#191970" stroke="#191970" points="96.713,-222.7002 90.5147,-231.2927 100.7185,-228.441 96.713,-222.7002"/>
</g>
<!-- Node53 -->
<g id="node16" class="node">
<title>Node53</title>
<g id="a_node16"><a xlink:href="class_c_chain_state.html#ab70c11d94a3f6e5cae415521437ef627" target="_top" xlink:title="If a block header hasn&#39;t already been seen, call CheckBlockHeader on it, ensure that it doesn&#39;t desce...">
<polygon fill="#ffffff" stroke="#000000" points="196.4995,-90.5 196.4995,-118.5 329.7798,-118.5 329.7798,-90.5 196.4995,-90.5"/>
<text text-anchor="start" x="204.4995" y="-106.5" font-family="Helvetica,sans-Serif" font-size="10.00" fill="#000000">CChainState::AcceptBlock</text>
<text text-anchor="middle" x="263.1396" y="-96.5" font-family="Helvetica,sans-Serif" font-size="10.00" fill="#000000">Header</text>
</a>
</g>
</g>
<!-- Node38&#45;&gt;Node53 -->
<g id="edge15" class="edge">
<title>Node38&#45;&gt;Node53</title>
<path fill="none" stroke="#191970" d="M90.9556,-223.247C110.4504,-198.8756 149.2219,-154.4518 191.5068,-128.5 197.7667,-124.6581 204.7156,-121.3486 211.7526,-118.5224"/>
<polygon fill="#191970" stroke="#191970" points="88.097,-221.2204 84.6747,-231.2473 93.6029,-225.543 88.097,-221.2204"/>
</g>
<!-- Node56 -->
<g id="node19" class="node">
<title>Node56</title>
<g id="a_node19"><a xlink:href="validation_8h.html#a32c6dfc4ade001f117ac3fac3da9d123" target="_top" xlink:title="Process an incoming block. ">
<polygon fill="#ffffff" stroke="#000000" points="553.1313,-86.5 553.1313,-104.5 649.7124,-104.5 649.7124,-86.5 553.1313,-86.5"/>
<text text-anchor="middle" x="601.4219" y="-92.5" font-family="Helvetica,sans-Serif" font-size="10.00" fill="#000000">ProcessNewBlock</text>
</a>
</g>
</g>
<!-- Node38&#45;&gt;Node56 -->
<g id="edge20" class="edge">
<title>Node38&#45;&gt;Node56</title>
<path fill="none" stroke="#191970" d="M84.4646,-221.815C98.2371,-186.6306 133.3819,-111.3191 191.5068,-80.5 321.744,-11.4455 509.3755,-63.8724 576.4317,-86.472"/>
<polygon fill="#191970" stroke="#191970" points="81.1219,-220.7604 80.8747,-231.3524 87.6732,-223.2264 81.1219,-220.7604"/>
</g>
<!-- Node57 -->
<g id="node20" class="node">
<title>Node57</title>
<g id="a_node20"><a xlink:href="class_c_chain_state.html#ac231f6529bc41aea7917d0716d0c9d1a" target="_top" xlink:title="Apply the effects of a block on the utxo cache, ignoring that it may already have been applied...">
<polygon fill="#ffffff" stroke="#000000" points="198.7261,-.5 198.7261,-28.5 327.5532,-28.5 327.5532,-.5 198.7261,-.5"/>
<text text-anchor="start" x="206.7261" y="-16.5" font-family="Helvetica,sans-Serif" font-size="10.00" fill="#000000">CChainState::Rollforward</text>
<text text-anchor="middle" x="263.1396" y="-6.5" font-family="Helvetica,sans-Serif" font-size="10.00" fill="#000000">Block</text>
</a>
</g>
</g>
<!-- Node38&#45;&gt;Node57 -->
<g id="edge21" class="edge">
<title>Node38&#45;&gt;Node57</title>
<path fill="none" stroke="#191970" d="M84.0112,-221.2923C97.565,-182.506 133.1971,-94.2208 191.5068,-43.5 198.4916,-37.4243 206.9151,-32.517 215.4943,-28.5896"/>
<polygon fill="#191970" stroke="#191970" points="80.5325,-220.6534 80.6423,-231.2476 87.1632,-222.8972 80.5325,-220.6534"/>
</g>
<!-- Node44 -->
<g id="node7" class="node">
<title>Node44</title>
<g id="a_node7"><a xlink:href="rpcwallet_8cpp.html#a236a42206aa464fbb10bae6e6243092b" target="_top" xlink:title="generate">
<polygon fill="#ffffff" stroke="#000000" points="807.4854,-189.5 807.4854,-207.5 862.9629,-207.5 862.9629,-189.5 807.4854,-189.5"/>
<text text-anchor="middle" x="835.2241" y="-195.5" font-family="Helvetica,sans-Serif" font-size="10.00" fill="#000000">generate</text>
</a>
</g>
</g>
<!-- Node43&#45;&gt;Node44 -->
<g id="edge6" class="edge">
<title>Node43&#45;&gt;Node44</title>
<path fill="none" stroke="#191970" d="M781.8529,-198.5C790.6351,-198.5 799.4272,-198.5 807.2682,-198.5"/>
<polygon fill="#191970" stroke="#191970" points="781.6054,-195.0001 771.6053,-198.5 781.6053,-202.0001 781.6054,-195.0001"/>
</g>
<!-- Node47 -->
<g id="node10" class="node">
<title>Node47</title>
<g id="a_node10"><a xlink:href="class_c_chain_state.html#afb6986710de5db645a000d4bac55cf9f" target="_top" xlink:title="Try to make some progress towards making pindexMostWork the active block. ">
<polygon fill="#ffffff" stroke="#000000" points="376.6123,-244.5 376.6123,-272.5 510.4492,-272.5 510.4492,-244.5 376.6123,-244.5"/>
<text text-anchor="start" x="384.6123" y="-260.5" font-family="Helvetica,sans-Serif" font-size="10.00" fill="#000000">CChainState::ActivateBest</text>
<text text-anchor="middle" x="443.5308" y="-250.5" font-family="Helvetica,sans-Serif" font-size="10.00" fill="#000000">ChainStep</text>
</a>
</g>
</g>
<!-- Node46&#45;&gt;Node47 -->
<g id="edge9" class="edge">
<title>Node46&#45;&gt;Node47</title>
<path fill="none" stroke="#191970" d="M318.578,-233.5636C336.8911,-237.2183 357.4612,-241.3234 376.544,-245.1317"/>
<polygon fill="#191970" stroke="#191970" points="319.1516,-230.1092 308.6599,-231.5843 317.7816,-236.9738 319.1516,-230.1092"/>
</g>
<!-- Node48 -->
<g id="node11" class="node">
<title>Node48</title>
<g id="a_node11"><a xlink:href="class_c_chain_state.html#a657a2d93faf38567ef34aeb75295ef4e" target="_top" xlink:title="CChainState::InvalidateBlock">
<polygon fill="#ffffff" stroke="#000000" points="370.7725,-207.5 370.7725,-225.5 516.2891,-225.5 516.2891,-207.5 370.7725,-207.5"/>
<text text-anchor="middle" x="443.5308" y="-213.5" font-family="Helvetica,sans-Serif" font-size="10.00" fill="#000000">CChainState::InvalidateBlock</text>
</a>
</g>
</g>
<!-- Node46&#45;&gt;Node48 -->
<g id="edge10" class="edge">
<title>Node46&#45;&gt;Node48</title>
<path fill="none" stroke="#191970" d="M344.1725,-219.8048C352.9718,-219.5121 361.8886,-219.2155 370.5833,-218.9263"/>
<polygon fill="#191970" stroke="#191970" points="343.7953,-216.3153 333.9172,-220.1459 344.0281,-223.3114 343.7953,-216.3153"/>
</g>
<!-- Node46&#45;&gt;Node50 -->
<g id="edge12" class="edge">
<title>Node46&#45;&gt;Node50</title>
<path fill="none" stroke="#191970" d="M306.7379,-210.899C331.9765,-204.1833 363.926,-195.6819 390.5998,-188.5843"/>
<polygon fill="#191970" stroke="#191970" points="305.8336,-207.5178 297.0698,-213.4716 307.6336,-214.2824 305.8336,-207.5178"/>
</g>
<!-- Node49 -->
<g id="node12" class="node">
<title>Node49</title>
<g id="a_node12"><a xlink:href="validation_8h.html#ac1125805255945a06f6f6fe1d9c6c154" target="_top" xlink:title="Mark a block as invalid. ">
<polygon fill="#ffffff" stroke="#000000" points="559.7915,-207.5 559.7915,-225.5 643.0522,-225.5 643.0522,-207.5 559.7915,-207.5"/>
<text text-anchor="middle" x="601.4219" y="-213.5" font-family="Helvetica,sans-Serif" font-size="10.00" fill="#000000">InvalidateBlock</text>
</a>
</g>
</g>
<!-- Node48&#45;&gt;Node49 -->
<g id="edge11" class="edge">
<title>Node48&#45;&gt;Node49</title>
<path fill="none" stroke="#191970" d="M526.4826,-216.5C537.873,-216.5 549.1519,-216.5 559.3676,-216.5"/>
<polygon fill="#191970" stroke="#191970" points="526.4681,-213.0001 516.4681,-216.5 526.468,-220.0001 526.4681,-213.0001"/>
</g>
<!-- Node51 -->
<g id="node14" class="node">
<title>Node51</title>
<g id="a_node14"><a xlink:href="validation_8h.html#a2e51de180124822c526ac8f82777fa32" target="_top" xlink:title="When there are blocks in the active chain with missing data, rewind the chainstate and remove them fr...">
<polygon fill="#ffffff" stroke="#000000" points="552.2891,-165.5 552.2891,-183.5 650.5547,-183.5 650.5547,-165.5 552.2891,-165.5"/>
<text text-anchor="middle" x="601.4219" y="-171.5" font-family="Helvetica,sans-Serif" font-size="10.00" fill="#000000">RewindBlockIndex</text>
</a>
</g>
</g>
<!-- Node50&#45;&gt;Node51 -->
<g id="edge13" class="edge">
<title>Node50&#45;&gt;Node51</title>
<path fill="none" stroke="#191970" d="M522.0458,-174.5C532.2543,-174.5 542.4724,-174.5 552.0173,-174.5"/>
<polygon fill="#191970" stroke="#191970" points="521.8658,-171.0001 511.8658,-174.5 521.8658,-178.0001 521.8658,-171.0001"/>
</g>
<!-- Node54 -->
<g id="node17" class="node">
<title>Node54</title>
<g id="a_node17"><a xlink:href="validation_8h.html#ad959cc64d22660f1f561798040bb1f6a" target="_top" xlink:title="Process incoming block headers. ">
<polygon fill="#ffffff" stroke="#000000" points="376.3413,-123.5 376.3413,-141.5 510.7202,-141.5 510.7202,-123.5 376.3413,-123.5"/>
<text text-anchor="middle" x="443.5308" y="-129.5" font-family="Helvetica,sans-Serif" font-size="10.00" fill="#000000">ProcessNewBlockHeaders</text>
</a>
</g>
</g>
<!-- Node53&#45;&gt;Node54 -->
<g id="edge16" class="edge">
<title>Node53&#45;&gt;Node54</title>
<path fill="none" stroke="#191970" d="M339.7599,-116.3929C355.065,-118.7685 370.9039,-121.227 385.459,-123.4862"/>
<polygon fill="#191970" stroke="#191970" points="340.2167,-112.9219 329.7981,-114.8466 339.1429,-119.8391 340.2167,-112.9219"/>
</g>
<!-- Node55 -->
<g id="node18" class="node">
<title>Node55</title>
<g id="a_node18"><a xlink:href="class_c_chain_state.html#ae73c43d5a0296d8972b1fe69da7e10ff" target="_top" xlink:title="Store block on disk. ">
<polygon fill="#ffffff" stroke="#000000" points="376.8906,-86.5 376.8906,-104.5 510.1709,-104.5 510.1709,-86.5 376.8906,-86.5"/>
<text text-anchor="middle" x="443.5308" y="-92.5" font-family="Helvetica,sans-Serif" font-size="10.00" fill="#000000">CChainState::AcceptBlock</text>
</a>
</g>
</g>
<!-- Node53&#45;&gt;Node55 -->
<g id="edge17" class="edge">
<title>Node53&#45;&gt;Node55</title>
<path fill="none" stroke="#191970" d="M339.9954,-100.6655C352.2535,-100.054 364.8477,-99.4256 376.8453,-98.827"/>
<polygon fill="#191970" stroke="#191970" points="339.6113,-97.1803 329.7981,-101.1743 339.9601,-104.1716 339.6113,-97.1803"/>
</g>
<!-- Node55&#45;&gt;Node56 -->
<g id="edge18" class="edge">
<title>Node55&#45;&gt;Node56</title>
<path fill="none" stroke="#191970" d="M520.6008,-95.5C531.6516,-95.5 542.7514,-95.5 553.0335,-95.5"/>
<polygon fill="#191970" stroke="#191970" points="520.4908,-92.0001 510.4908,-95.5 520.4908,-99.0001 520.4908,-92.0001"/>
</g>
<!-- Node56&#45;&gt;Node43 -->
<g id="edge19" class="edge">
<title>Node56&#45;&gt;Node43</title>
<path fill="none" stroke="#191970" d="M620.6827,-111.0477C647.598,-132.7744 695.6181,-171.5373 717.5385,-189.2319"/>
<polygon fill="#191970" stroke="#191970" points="622.725,-108.1983 612.7454,-104.6406 618.3282,-113.6452 622.725,-108.1983"/>
</g>
</g>
</svg>
