<?xml version="1.0" encoding="UTF-8" standalone="no"?>
<!DOCTYPE svg PUBLIC "-//W3C//DTD SVG 1.1//EN"
 "http://www.w3.org/Graphics/SVG/1.1/DTD/svg11.dtd">
<!-- Generated by graphviz version 2.40.1 (20161225.0304)
 -->
<!-- Title: CBlockHeader::CBlockHeader Pages: 1 -->
<svg width="449pt" height="27pt"
 viewBox="0.00 0.00 448.71 27.00" xmlns="http://www.w3.org/2000/svg" xmlns:xlink="http://www.w3.org/1999/xlink">
<g id="graph0" class="graph" transform="scale(1 1) rotate(0) translate(4 23)">
<title>CBlockHeader::CBlockHeader</title>
<polygon fill="#ffffff" stroke="transparent" points="-4,4 -4,-23 444.7129,-23 444.7129,4 -4,4"/>
<!-- Node0 -->
<g id="node1" class="node">
<title>Node0</title>
<polygon fill="#bfbfbf" stroke="#000000" points="0,-.5 0,-18.5 150.502,-18.5 150.502,-.5 0,-.5"/>
<text text-anchor="middle" x="75.251" y="-6.5" font-family="Helvetica,sans-Serif" font-size="10.00" fill="#000000">CBlockHeader::CBlockHeader</text>
</g>
<!-- Node1 -->
<g id="node2" class="node">
<title>Node1</title>
<g id="a_node2"><a xlink:href="class_c_block_header.html#ae39c04a4357417d98954a51f53beb78a" target="_top" xlink:title="CBlockHeader::SetNull">
<polygon fill="#ffffff" stroke="#000000" points="186.502,-.5 186.502,-18.5 304.7676,-18.5 304.7676,-.5 186.502,-.5"/>
<text text-anchor="middle" x="245.6348" y="-6.5" font-family="Helvetica,sans-Serif" font-size="10.00" fill="#000000">CBlockHeader::SetNull</text>
</a>
</g>
</g>
<!-- Node0&#45;&gt;Node1 -->
<g id="edge1" class="edge">
<title>Node0&#45;&gt;Node1</title>
<path fill="none" stroke="#191970" d="M150.976,-9.5C159.3798,-9.5 167.908,-9.5 176.2281,-9.5"/>
<polygon fill="#191970" stroke="#191970" points="176.2512,-13.0001 186.2512,-9.5 176.2511,-6.0001 176.2512,-13.0001"/>
</g>
<!-- Node2 -->
<g id="node3" class="node">
<title>Node2</title>
<g id="a_node3"><a xlink:href="classbase__blob.html#aa340be5328d911272eded433d03f30a3" target="_top" xlink:title="base_blob::SetNull">
<polygon fill="#ffffff" stroke="#000000" points="340.7676,-.5 340.7676,-18.5 440.7129,-18.5 440.7129,-.5 340.7676,-.5"/>
<text text-anchor="middle" x="390.7402" y="-6.5" font-family="Helvetica,sans-Serif" font-size="10.00" fill="#000000">base_blob::SetNull</text>
</a>
</g>
</g>
<!-- Node1&#45;&gt;Node2 -->
<g id="edge2" class="edge">
<title>Node1&#45;&gt;Node2</title>
<path fill="none" stroke="#191970" d="M305.0734,-9.5C313.4199,-9.5 322.0059,-9.5 330.3695,-9.5"/>
<polygon fill="#191970" stroke="#191970" points="330.43,-13.0001 340.43,-9.5 330.43,-6.0001 330.43,-13.0001"/>
</g>
</g>
</svg>
