<?xml version="1.0" encoding="UTF-8" standalone="no"?>
<!DOCTYPE svg PUBLIC "-//W3C//DTD SVG 1.1//EN"
 "http://www.w3.org/Graphics/SVG/1.1/DTD/svg11.dtd">
<!-- Generated by graphviz version 2.40.1 (20161225.0304)
 -->
<!-- Title: CHashWriter Pages: 1 -->
<svg width="136pt" height="287pt"
 viewBox="0.00 0.00 135.91 287.00" xmlns="http://www.w3.org/2000/svg" xmlns:xlink="http://www.w3.org/1999/xlink">
<g id="graph0" class="graph" transform="scale(1 1) rotate(0) translate(4 283)">
<title>CHashWriter</title>
<polygon fill="#ffffff" stroke="transparent" points="-4,4 -4,-283 131.9063,-283 131.9063,4 -4,4"/>
<!-- Node2 -->
<g id="node1" class="node">
<title>Node2</title>
<polygon fill="#bfbfbf" stroke="#000000" points="19.147,-.5 19.147,-18.5 92.1978,-18.5 92.1978,-.5 19.147,-.5"/>
<text text-anchor="middle" x="55.6724" y="-6.5" font-family="Helvetica,sans-Serif" font-size="10.00" fill="#000000">CHashWriter</text>
</g>
<!-- Node3 -->
<g id="node2" class="node">
<title>Node3</title>
<g id="a_node2"><a xlink:href="class_c_hash3.html" target="_top" xlink:title="A hasher class for BSHA3&#39;s 256&#45;bit hash (double SHA&#45;3). ">
<polygon fill="#ffffff" stroke="#000000" points="29.6084,-65.5 29.6084,-83.5 81.7363,-83.5 81.7363,-65.5 29.6084,-65.5"/>
<text text-anchor="middle" x="55.6724" y="-71.5" font-family="Helvetica,sans-Serif" font-size="10.00" fill="#000000">CHash3</text>
</a>
</g>
</g>
<!-- Node3&#45;&gt;Node2 -->
<g id="edge1" class="edge">
<title>Node3&#45;&gt;Node2</title>
<path fill="none" stroke="#9a32cd" stroke-dasharray="5,2" d="M55.6724,-55.1265C55.6724,-43.1522 55.6724,-28.3205 55.6724,-18.8821"/>
<polygon fill="#9a32cd" stroke="#9a32cd" points="52.1725,-55.462 55.6724,-65.462 59.1725,-55.4621 52.1725,-55.462"/>
<text text-anchor="middle" x="63.4507" y="-39" font-family="Helvetica,sans-Serif" font-size="10.00" fill="#000000"> ctx</text>
</g>
<!-- Node4 -->
<g id="node3" class="node">
<title>Node4</title>
<g id="a_node3"><a xlink:href="class_c_s_h_a3.html" target="_top" xlink:title="A hasher class for SHA3&#45;256. ">
<polygon fill="#ffffff" stroke="#000000" points="31,-130.5 31,-148.5 80.3447,-148.5 80.3447,-130.5 31,-130.5"/>
<text text-anchor="middle" x="55.6724" y="-136.5" font-family="Helvetica,sans-Serif" font-size="10.00" fill="#000000">CSHA3</text>
</a>
</g>
</g>
<!-- Node4&#45;&gt;Node3 -->
<g id="edge2" class="edge">
<title>Node4&#45;&gt;Node3</title>
<path fill="none" stroke="#9a32cd" stroke-dasharray="5,2" d="M55.6724,-120.1265C55.6724,-108.1522 55.6724,-93.3205 55.6724,-83.8821"/>
<polygon fill="#9a32cd" stroke="#9a32cd" points="52.1725,-120.462 55.6724,-130.462 59.1725,-120.4621 52.1725,-120.462"/>
<text text-anchor="middle" x="65.123" y="-104" font-family="Helvetica,sans-Serif" font-size="10.00" fill="#000000"> sha</text>
</g>
<!-- Node5 -->
<g id="node4" class="node">
<title>Node5</title>
<g id="a_node4"><a xlink:href="class_s_h_a3__256.html" target="_top" xlink:title="SHA3&#45;256 hash algorithm. ">
<polygon fill="#ffffff" stroke="#000000" points="23.4878,-195.5 23.4878,-213.5 87.8569,-213.5 87.8569,-195.5 23.4878,-195.5"/>
<text text-anchor="middle" x="55.6724" y="-201.5" font-family="Helvetica,sans-Serif" font-size="10.00" fill="#000000">SHA3_256</text>
</a>
</g>
</g>
<!-- Node5&#45;&gt;Node4 -->
<g id="edge3" class="edge">
<title>Node5&#45;&gt;Node4</title>
<path fill="none" stroke="#9a32cd" stroke-dasharray="5,2" d="M55.6724,-185.1265C55.6724,-173.1522 55.6724,-158.3205 55.6724,-148.8821"/>
<polygon fill="#9a32cd" stroke="#9a32cd" points="52.1725,-185.462 55.6724,-195.462 59.1725,-185.4621 52.1725,-185.462"/>
<text text-anchor="middle" x="84.022" y="-169" font-family="Helvetica,sans-Serif" font-size="10.00" fill="#000000"> sha3Hasher</text>
</g>
<!-- Node6 -->
<g id="node5" class="node">
<title>Node6</title>
<g id="a_node5"><a xlink:href="class_hash.html" target="_top" xlink:title="Abstract base class for cryptographic hash algorithms. ">
<polygon fill="#ffffff" stroke="#000000" points="0,-260.5 0,-278.5 39.3447,-278.5 39.3447,-260.5 0,-260.5"/>
<text text-anchor="middle" x="19.6724" y="-266.5" font-family="Helvetica,sans-Serif" font-size="10.00" fill="#000000">Hash</text>
</a>
</g>
</g>
<!-- Node6&#45;&gt;Node5 -->
<g id="edge4" class="edge">
<title>Node6&#45;&gt;Node5</title>
<path fill="none" stroke="#191970" d="M29.5903,-251.5926C36.3516,-239.3846 45.0331,-223.7097 50.4761,-213.8821"/>
<polygon fill="#191970" stroke="#191970" points="26.4613,-250.0183 24.678,-260.462 32.5848,-253.4099 26.4613,-250.0183"/>
</g>
<!-- Node7 -->
<g id="node6" class="node">
<title>Node7</title>
<g id="a_node6"><a xlink:href="class_keccak_core.html" target="_top" xlink:title="Keccak core sponge function. ">
<polygon fill="#ffffff" stroke="#000000" points="57.4385,-260.5 57.4385,-278.5 127.9063,-278.5 127.9063,-260.5 57.4385,-260.5"/>
<text text-anchor="middle" x="92.6724" y="-266.5" font-family="Helvetica,sans-Serif" font-size="10.00" fill="#000000">KeccakCore</text>
</a>
</g>
</g>
<!-- Node7&#45;&gt;Node5 -->
<g id="edge5" class="edge">
<title>Node7&#45;&gt;Node5</title>
<path fill="none" stroke="#9a32cd" stroke-dasharray="5,2" d="M82.4789,-251.5926C75.5298,-239.3846 66.6071,-223.7097 61.013,-213.8821"/>
<polygon fill="#9a32cd" stroke="#9a32cd" points="79.5389,-253.5028 87.5277,-260.462 85.6224,-250.0399 79.5389,-253.5028"/>
<text text-anchor="middle" x="86.7881" y="-234" font-family="Helvetica,sans-Serif" font-size="10.00" fill="#000000"> core</text>
</g>
</g>
</svg>
