<?xml version="1.0" encoding="UTF-8" standalone="no"?>
<!DOCTYPE svg PUBLIC "-//W3C//DTD SVG 1.1//EN"
 "http://www.w3.org/Graphics/SVG/1.1/DTD/svg11.dtd">
<!-- Generated by graphviz version 2.40.1 (20161225.0304)
 -->
<!-- Title: BitcoinCore::handleRunawayException Pages: 1 -->
<svg width="571pt" height="84pt"
 viewBox="0.00 0.00 571.34 84.00" xmlns="http://www.w3.org/2000/svg" xmlns:xlink="http://www.w3.org/1999/xlink">
<g id="graph0" class="graph" transform="scale(1 1) rotate(0) translate(4 80)">
<title>BitcoinCore::handleRunawayException</title>
<polygon fill="#ffffff" stroke="transparent" points="-4,4 -4,-80 567.3428,-80 567.3428,4 -4,4"/>
<!-- Node5 -->
<g id="node1" class="node">
<title>Node5</title>
<polygon fill="#bfbfbf" stroke="#000000" points="0,-23.5 0,-51.5 144.9648,-51.5 144.9648,-23.5 0,-23.5"/>
<text text-anchor="start" x="8" y="-39.5" font-family="Helvetica,sans-Serif" font-size="10.00" fill="#000000">BitcoinCore::handleRunaway</text>
<text text-anchor="middle" x="72.4824" y="-29.5" font-family="Helvetica,sans-Serif" font-size="10.00" fill="#000000">Exception</text>
</g>
<!-- Node6 -->
<g id="node2" class="node">
<title>Node6</title>
<g id="a_node2"><a xlink:href="class_bitcoin_core.html#af34ca069cda1d4362dcc109b4397fb62" target="_top" xlink:title="BitcoinCore::initialize">
<polygon fill="#ffffff" stroke="#000000" points="184.583,-47.5 184.583,-65.5 293.4004,-65.5 293.4004,-47.5 184.583,-47.5"/>
<text text-anchor="middle" x="238.9917" y="-53.5" font-family="Helvetica,sans-Serif" font-size="10.00" fill="#000000">BitcoinCore::initialize</text>
</a>
</g>
</g>
<!-- Node5&#45;&gt;Node6 -->
<g id="edge1" class="edge">
<title>Node5&#45;&gt;Node6</title>
<path fill="none" stroke="#191970" d="M155.0039,-46.9163C165.0024,-48.0573 175.0151,-49.1998 184.4649,-50.2781"/>
<polygon fill="#191970" stroke="#191970" points="155.3638,-43.4348 145.0314,-45.7784 154.5701,-50.3896 155.3638,-43.4348"/>
</g>
<!-- Node10 -->
<g id="node6" class="node">
<title>Node10</title>
<g id="a_node6"><a xlink:href="class_bitcoin_core.html#a94f3f4622ba698e321f3a2e0e686129f" target="_top" xlink:title="BitcoinCore::shutdown">
<polygon fill="#ffffff" stroke="#000000" points="180.9648,-10.5 180.9648,-28.5 297.0186,-28.5 297.0186,-10.5 180.9648,-10.5"/>
<text text-anchor="middle" x="238.9917" y="-16.5" font-family="Helvetica,sans-Serif" font-size="10.00" fill="#000000">BitcoinCore::shutdown</text>
</a>
</g>
</g>
<!-- Node5&#45;&gt;Node10 -->
<g id="edge5" class="edge">
<title>Node5&#45;&gt;Node10</title>
<path fill="none" stroke="#191970" d="M155.2108,-28.5569C163.9045,-27.6171 172.6059,-26.6764 180.9356,-25.776"/>
<polygon fill="#191970" stroke="#191970" points="154.5973,-25.1027 145.0314,-29.6573 155.3497,-32.0622 154.5973,-25.1027"/>
</g>
<!-- Node7 -->
<g id="node3" class="node">
<title>Node7</title>
<g id="a_node3"><a xlink:href="class_bitcoin_application.html#a61afce9356e452c53ad4c83f5ca19df8" target="_top" xlink:title="BitcoinApplication\l::startThread">
<polygon fill="#ffffff" stroke="#000000" points="333.0186,-23.5 333.0186,-51.5 427.9541,-51.5 427.9541,-23.5 333.0186,-23.5"/>
<text text-anchor="start" x="341.0186" y="-39.5" font-family="Helvetica,sans-Serif" font-size="10.00" fill="#000000">BitcoinApplication</text>
<text text-anchor="middle" x="380.4863" y="-29.5" font-family="Helvetica,sans-Serif" font-size="10.00" fill="#000000">::startThread</text>
</a>
</g>
</g>
<!-- Node6&#45;&gt;Node7 -->
<g id="edge2" class="edge">
<title>Node6&#45;&gt;Node7</title>
<path fill="none" stroke="#191970" d="M303.8001,-47.7975C313.5781,-46.4845 323.5084,-45.151 332.8369,-43.8984"/>
<polygon fill="#191970" stroke="#191970" points="303.1424,-44.3543 293.6972,-49.1541 304.0741,-51.292 303.1424,-44.3543"/>
</g>
<!-- Node8 -->
<g id="node4" class="node">
<title>Node8</title>
<g id="a_node4"><a xlink:href="class_bitcoin_application.html#ade19c44b87b00b6b19b433caf4c22ba6" target="_top" xlink:title="Request core initialization. ">
<polygon fill="#ffffff" stroke="#000000" points="466.1807,-47.5 466.1807,-75.5 561.1162,-75.5 561.1162,-47.5 466.1807,-47.5"/>
<text text-anchor="start" x="474.1807" y="-63.5" font-family="Helvetica,sans-Serif" font-size="10.00" fill="#000000">BitcoinApplication</text>
<text text-anchor="middle" x="513.6484" y="-53.5" font-family="Helvetica,sans-Serif" font-size="10.00" fill="#000000">::requestInitialize</text>
</a>
</g>
</g>
<!-- Node7&#45;&gt;Node8 -->
<g id="edge3" class="edge">
<title>Node7&#45;&gt;Node8</title>
<path fill="none" stroke="#191970" d="M438.0995,-47.8837C447.3536,-49.5516 456.8432,-51.2619 465.8354,-52.8826"/>
<polygon fill="#191970" stroke="#191970" points="438.6471,-44.4261 428.1848,-46.0968 437.4054,-51.3151 438.6471,-44.4261"/>
</g>
<!-- Node9 -->
<g id="node5" class="node">
<title>Node9</title>
<g id="a_node5"><a xlink:href="class_bitcoin_application.html#a37c560d4c04d14a6da151b82caf8888f" target="_top" xlink:title="Request core shutdown. ">
<polygon fill="#ffffff" stroke="#000000" points="463.9541,-.5 463.9541,-28.5 563.3428,-28.5 563.3428,-.5 463.9541,-.5"/>
<text text-anchor="start" x="471.9541" y="-16.5" font-family="Helvetica,sans-Serif" font-size="10.00" fill="#000000">BitcoinApplication</text>
<text text-anchor="middle" x="513.6484" y="-6.5" font-family="Helvetica,sans-Serif" font-size="10.00" fill="#000000">::requestShutdown</text>
</a>
</g>
</g>
<!-- Node7&#45;&gt;Node9 -->
<g id="edge4" class="edge">
<title>Node7&#45;&gt;Node9</title>
<path fill="none" stroke="#191970" d="M438.0418,-27.5589C446.5459,-26.0901 455.2502,-24.5867 463.5857,-23.1469"/>
<polygon fill="#191970" stroke="#191970" points="437.4431,-24.1104 428.1848,-29.2614 438.6346,-31.0083 437.4431,-24.1104"/>
</g>
<!-- Node10&#45;&gt;Node7 -->
<g id="edge6" class="edge">
<title>Node10&#45;&gt;Node7</title>
<path fill="none" stroke="#191970" d="M307.3327,-28.1939C315.8718,-29.2802 324.4576,-30.3724 332.592,-31.4072"/>
<polygon fill="#191970" stroke="#191970" points="307.7217,-24.7152 297.3599,-26.9252 306.8382,-31.6593 307.7217,-24.7152"/>
</g>
</g>
</svg>
