<?xml version="1.0" encoding="UTF-8" standalone="no"?>
<!DOCTYPE svg PUBLIC "-//W3C//DTD SVG 1.1//EN"
 "http://www.w3.org/Graphics/SVG/1.1/DTD/svg11.dtd">
<!-- Generated by graphviz version 2.40.1 (20161225.0304)
 -->
<!-- Title: OptionsModel::addOverriddenOption Pages: 1 -->
<svg width="471pt" height="37pt"
 viewBox="0.00 0.00 470.96 37.00" xmlns="http://www.w3.org/2000/svg" xmlns:xlink="http://www.w3.org/1999/xlink">
<g id="graph0" class="graph" transform="scale(1 1) rotate(0) translate(4 33)">
<title>OptionsModel::addOverriddenOption</title>
<polygon fill="#ffffff" stroke="transparent" points="-4,4 -4,-33 466.959,-33 466.959,4 -4,4"/>
<!-- Node21 -->
<g id="node1" class="node">
<title>Node21</title>
<polygon fill="#bfbfbf" stroke="#000000" points="0,-.5 0,-28.5 149.4082,-28.5 149.4082,-.5 0,-.5"/>
<text text-anchor="start" x="8" y="-16.5" font-family="Helvetica,sans-Serif" font-size="10.00" fill="#000000">OptionsModel::addOverridden</text>
<text text-anchor="middle" x="74.7041" y="-6.5" font-family="Helvetica,sans-Serif" font-size="10.00" fill="#000000">Option</text>
</g>
<!-- Node22 -->
<g id="node2" class="node">
<title>Node22</title>
<g id="a_node2"><a xlink:href="class_options_model.html#a1fee36c382abefc0fb165bed99df7413" target="_top" xlink:title="OptionsModel::Init">
<polygon fill="#ffffff" stroke="#000000" points="185.4082,-5.5 185.4082,-23.5 282.0039,-23.5 282.0039,-5.5 185.4082,-5.5"/>
<text text-anchor="middle" x="233.7061" y="-11.5" font-family="Helvetica,sans-Serif" font-size="10.00" fill="#000000">OptionsModel::Init</text>
</a>
</g>
</g>
<!-- Node21&#45;&gt;Node22 -->
<g id="edge1" class="edge">
<title>Node21&#45;&gt;Node22</title>
<path fill="none" stroke="#191970" d="M159.7527,-14.5C168.4311,-14.5 177.0209,-14.5 185.1058,-14.5"/>
<polygon fill="#191970" stroke="#191970" points="159.5492,-11.0001 149.5492,-14.5 159.5492,-18.0001 159.5492,-11.0001"/>
</g>
<!-- Node23 -->
<g id="node3" class="node">
<title>Node23</title>
<g id="a_node3"><a xlink:href="class_options_model.html#ae861bde6a4f4d0235860589d5aca2f77" target="_top" xlink:title="OptionsModel::OptionsModel">
<polygon fill="#ffffff" stroke="#000000" points="318.0039,-5.5 318.0039,-23.5 462.959,-23.5 462.959,-5.5 318.0039,-5.5"/>
<text text-anchor="middle" x="390.4814" y="-11.5" font-family="Helvetica,sans-Serif" font-size="10.00" fill="#000000">OptionsModel::OptionsModel</text>
</a>
</g>
</g>
<!-- Node22&#45;&gt;Node23 -->
<g id="edge2" class="edge">
<title>Node22&#45;&gt;Node23</title>
<path fill="none" stroke="#191970" d="M292.0732,-14.5C300.4693,-14.5 309.1938,-14.5 317.8251,-14.5"/>
<polygon fill="#191970" stroke="#191970" points="292.0231,-11.0001 282.0231,-14.5 292.023,-18.0001 292.0231,-11.0001"/>
</g>
</g>
</svg>
