<?xml version="1.0" encoding="UTF-8" standalone="no"?>
<!DOCTYPE svg PUBLIC "-//W3C//DTD SVG 1.1//EN"
 "http://www.w3.org/Graphics/SVG/1.1/DTD/svg11.dtd">
<!-- Generated by graphviz version 2.40.1 (20161225.0304)
 -->
<!-- Title: WalletView::handlePaymentRequest Pages: 1 -->
<svg width="331pt" height="37pt"
 viewBox="0.00 0.00 331.32 37.00" xmlns="http://www.w3.org/2000/svg" xmlns:xlink="http://www.w3.org/1999/xlink">
<g id="graph0" class="graph" transform="scale(1 1) rotate(0) translate(4 33)">
<title>WalletView::handlePaymentRequest</title>
<polygon fill="#ffffff" stroke="transparent" points="-4,4 -4,-33 327.3223,-33 327.3223,4 -4,4"/>
<!-- Node170 -->
<g id="node1" class="node">
<title>Node170</title>
<polygon fill="#bfbfbf" stroke="#000000" points="0,-.5 0,-28.5 139.9648,-28.5 139.9648,-.5 0,-.5"/>
<text text-anchor="start" x="8" y="-16.5" font-family="Helvetica,sans-Serif" font-size="10.00" fill="#000000">WalletView::handlePayment</text>
<text text-anchor="middle" x="69.9824" y="-6.5" font-family="Helvetica,sans-Serif" font-size="10.00" fill="#000000">Request</text>
</g>
<!-- Node171 -->
<g id="node2" class="node">
<title>Node171</title>
<g id="a_node2"><a xlink:href="class_wallet_frame.html#aa8c5b10f2240df164795619ca41c619c" target="_top" xlink:title="WalletFrame::handlePayment\lRequest">
<polygon fill="#ffffff" stroke="#000000" points="175.9648,-.5 175.9648,-28.5 323.3223,-28.5 323.3223,-.5 175.9648,-.5"/>
<text text-anchor="start" x="183.9648" y="-16.5" font-family="Helvetica,sans-Serif" font-size="10.00" fill="#000000">WalletFrame::handlePayment</text>
<text text-anchor="middle" x="249.6436" y="-6.5" font-family="Helvetica,sans-Serif" font-size="10.00" fill="#000000">Request</text>
</a>
</g>
</g>
<!-- Node170&#45;&gt;Node171 -->
<g id="edge1" class="edge">
<title>Node170&#45;&gt;Node171</title>
<path fill="none" stroke="#191970" d="M150.4688,-14.5C158.9366,-14.5 167.5164,-14.5 175.9027,-14.5"/>
<polygon fill="#191970" stroke="#191970" points="150.216,-11.0001 140.216,-14.5 150.216,-18.0001 150.216,-11.0001"/>
</g>
</g>
</svg>
