<?xml version="1.0" encoding="UTF-8" standalone="no"?>
<!DOCTYPE svg PUBLIC "-//W3C//DTD SVG 1.1//EN"
 "http://www.w3.org/Graphics/SVG/1.1/DTD/svg11.dtd">
<!-- Generated by graphviz version 2.40.1 (20161225.0304)
 -->
<!-- Title: prevector::prevector Pages: 1 -->
<svg width="571pt" height="292pt"
 viewBox="0.00 0.00 571.29 292.00" xmlns="http://www.w3.org/2000/svg" xmlns:xlink="http://www.w3.org/1999/xlink">
<g id="graph0" class="graph" transform="scale(1 1) rotate(0) translate(4 288)">
<title>prevector::prevector</title>
<polygon fill="#ffffff" stroke="transparent" points="-4,4 -4,-288 567.2939,-288 567.2939,4 -4,4"/>
<!-- Node39 -->
<g id="node1" class="node">
<title>Node39</title>
<polygon fill="#bfbfbf" stroke="#000000" points="0,-94.5 0,-112.5 104.9258,-112.5 104.9258,-94.5 0,-94.5"/>
<text text-anchor="middle" x="52.4629" y="-100.5" font-family="Helvetica,sans-Serif" font-size="10.00" fill="#000000">prevector::prevector</text>
</g>
<!-- Node40 -->
<g id="node2" class="node">
<title>Node40</title>
<g id="a_node2"><a xlink:href="classprevector.html#a626f7d206dbc24e5610631809762758b" target="_top" xlink:title="prevector::size">
<polygon fill="#ffffff" stroke="#000000" points="324.3906,-113.5 324.3906,-131.5 405.415,-131.5 405.415,-113.5 324.3906,-113.5"/>
<text text-anchor="middle" x="364.9028" y="-119.5" font-family="Helvetica,sans-Serif" font-size="10.00" fill="#000000">prevector::size</text>
</a>
</g>
</g>
<!-- Node39&#45;&gt;Node40 -->
<g id="edge1" class="edge">
<title>Node39&#45;&gt;Node40</title>
<path fill="none" stroke="#191970" d="M68.7903,-112.6557C86.0827,-121.786 114.4843,-135.1931 140.9258,-140.5 201.1884,-152.5949 218.0854,-146.8523 279.2207,-140.5 292.7141,-139.098 307.2133,-136.4857 320.3768,-133.6775"/>
<polygon fill="#191970" stroke="#191970" points="321.1405,-137.0933 330.144,-131.5086 319.623,-130.2597 321.1405,-137.0933"/>
</g>
<!-- Node42 -->
<g id="node4" class="node">
<title>Node42</title>
<g id="a_node4"><a xlink:href="classprevector.html#a0e673654d3b7d8d6f79534e17f68741a" target="_top" xlink:title="prevector::change_capacity">
<polygon fill="#ffffff" stroke="#000000" points="140.9258,-189.5 140.9258,-207.5 279.2207,-207.5 279.2207,-189.5 140.9258,-189.5"/>
<text text-anchor="middle" x="210.0732" y="-195.5" font-family="Helvetica,sans-Serif" font-size="10.00" fill="#000000">prevector::change_capacity</text>
</a>
</g>
</g>
<!-- Node39&#45;&gt;Node42 -->
<g id="edge3" class="edge">
<title>Node39&#45;&gt;Node42</title>
<path fill="none" stroke="#191970" d="M61.4987,-112.5461C76.6978,-127.3248 108.8726,-156.7723 140.9258,-174.5 149.0919,-179.0165 158.2632,-182.9167 167.1909,-186.1826"/>
<polygon fill="#191970" stroke="#191970" points="166.1289,-189.5186 176.7237,-189.4766 168.4151,-182.9025 166.1289,-189.5186"/>
</g>
<!-- Node47 -->
<g id="node9" class="node">
<title>Node47</title>
<g id="a_node9"><a xlink:href="classprevector.html#adf0c95f81b436240afdae73855be7da8" target="_top" xlink:title="prevector::fill">
<polygon fill="#ffffff" stroke="#000000" points="173.731,-.5 173.731,-18.5 246.4155,-18.5 246.4155,-.5 173.731,-.5"/>
<text text-anchor="middle" x="210.0732" y="-6.5" font-family="Helvetica,sans-Serif" font-size="10.00" fill="#000000">prevector::fill</text>
</a>
</g>
</g>
<!-- Node39&#45;&gt;Node47 -->
<g id="edge10" class="edge">
<title>Node39&#45;&gt;Node47</title>
<path fill="none" stroke="#191970" d="M60.5024,-94.2543C74.9615,-78.2136 107.0214,-45.2464 140.9258,-27.5 147.9579,-23.8192 155.7944,-20.8539 163.5939,-18.4764"/>
<polygon fill="#191970" stroke="#191970" points="164.6836,-21.8066 173.3902,-15.7696 162.8192,-15.0594 164.6836,-21.8066"/>
</g>
<!-- Node48 -->
<g id="node10" class="node">
<title>Node48</title>
<g id="a_node10"><a xlink:href="classprevector.html#a59f1d7bcbc751cfa0faddd7ffa184846" target="_top" xlink:title="prevector::item_ptr">
<polygon fill="#ffffff" stroke="#000000" points="315.2207,-76.5 315.2207,-94.5 414.585,-94.5 414.585,-76.5 315.2207,-76.5"/>
<text text-anchor="middle" x="364.9028" y="-82.5" font-family="Helvetica,sans-Serif" font-size="10.00" fill="#000000">prevector::item_ptr</text>
</a>
</g>
</g>
<!-- Node39&#45;&gt;Node48 -->
<g id="edge11" class="edge">
<title>Node39&#45;&gt;Node48</title>
<path fill="none" stroke="#191970" d="M105.1108,-100.4669C160.3995,-97.2817 247.1896,-92.2816 305.045,-88.9485"/>
<polygon fill="#191970" stroke="#191970" points="305.358,-92.4363 315.1401,-88.3669 304.9554,-85.4479 305.358,-92.4363"/>
</g>
<!-- Node49 -->
<g id="node11" class="node">
<title>Node49</title>
<g id="a_node11"><a xlink:href="classprevector.html#aa9210cbe708412a70868d6e0bca844c9" target="_top" xlink:title="prevector::begin">
<polygon fill="#ffffff" stroke="#000000" points="166.2188,-37.5 166.2188,-55.5 253.9277,-55.5 253.9277,-37.5 166.2188,-37.5"/>
<text text-anchor="middle" x="210.0732" y="-43.5" font-family="Helvetica,sans-Serif" font-size="10.00" fill="#000000">prevector::begin</text>
</a>
</g>
</g>
<!-- Node39&#45;&gt;Node49 -->
<g id="edge15" class="edge">
<title>Node39&#45;&gt;Node49</title>
<path fill="none" stroke="#191970" d="M76.4377,-94.3867C94.2025,-87.6754 119.0252,-78.3844 140.9258,-70.5 151.5266,-66.6836 163.0788,-62.6319 173.6519,-58.9657"/>
<polygon fill="#191970" stroke="#191970" points="175.117,-62.1626 183.4259,-55.589 172.8312,-55.5463 175.117,-62.1626"/>
</g>
<!-- Node50 -->
<g id="node12" class="node">
<title>Node50</title>
<g id="a_node12"><a xlink:href="classprevector.html#aab7f6e13a3cac85cc340fc6b90c5365c" target="_top" xlink:title="prevector::end">
<polygon fill="#ffffff" stroke="#000000" points="170.1104,-113.5 170.1104,-131.5 250.0361,-131.5 250.0361,-113.5 170.1104,-113.5"/>
<text text-anchor="middle" x="210.0732" y="-119.5" font-family="Helvetica,sans-Serif" font-size="10.00" fill="#000000">prevector::end</text>
</a>
</g>
</g>
<!-- Node39&#45;&gt;Node50 -->
<g id="edge17" class="edge">
<title>Node39&#45;&gt;Node50</title>
<path fill="none" stroke="#191970" d="M104.9449,-109.8267C122.686,-111.9654 142.4381,-114.3465 159.9885,-116.4623"/>
<polygon fill="#191970" stroke="#191970" points="159.6886,-119.9514 170.0356,-117.6734 160.5264,-113.0017 159.6886,-119.9514"/>
</g>
<!-- Node41 -->
<g id="node3" class="node">
<title>Node41</title>
<g id="a_node3"><a xlink:href="classprevector.html#a933e204a7e29c6bbc85479d023c00ff8" target="_top" xlink:title="prevector::is_direct">
<polygon fill="#ffffff" stroke="#000000" points="456.7007,-113.5 456.7007,-131.5 557.1782,-131.5 557.1782,-113.5 456.7007,-113.5"/>
<text text-anchor="middle" x="506.9395" y="-119.5" font-family="Helvetica,sans-Serif" font-size="10.00" fill="#000000">prevector::is_direct</text>
</a>
</g>
</g>
<!-- Node40&#45;&gt;Node41 -->
<g id="edge2" class="edge">
<title>Node40&#45;&gt;Node41</title>
<path fill="none" stroke="#191970" d="M405.6048,-122.5C418.2778,-122.5 432.5362,-122.5 446.2674,-122.5"/>
<polygon fill="#191970" stroke="#191970" points="446.63,-126.0001 456.63,-122.5 446.6299,-119.0001 446.63,-126.0001"/>
</g>
<!-- Node42&#45;&gt;Node40 -->
<g id="edge9" class="edge">
<title>Node42&#45;&gt;Node40</title>
<path fill="none" stroke="#191970" d="M243.0206,-189.4963C254.8004,-185.6535 267.9425,-180.6256 279.2207,-174.5 297.0328,-164.8256 297.999,-157.1901 315.2207,-146.5 321.2356,-142.7663 327.9183,-139.1881 334.382,-135.9869"/>
<polygon fill="#191970" stroke="#191970" points="336.0741,-139.0576 343.5919,-131.5921 333.0594,-132.74 336.0741,-139.0576"/>
</g>
<!-- Node42&#45;&gt;Node41 -->
<g id="edge4" class="edge">
<title>Node42&#45;&gt;Node41</title>
<path fill="none" stroke="#191970" d="M245.2935,-189.4834C299.3035,-175.6564 402.5494,-149.2246 461.9197,-134.0254"/>
<polygon fill="#191970" stroke="#191970" points="462.9455,-137.3757 471.7651,-131.5049 461.2094,-130.5944 462.9455,-137.3757"/>
</g>
<!-- Node43 -->
<g id="node5" class="node">
<title>Node43</title>
<g id="a_node5"><a xlink:href="classprevector.html#ae3343cc65be9fd678b4a6f8305624de6" target="_top" xlink:title="prevector::indirect_ptr">
<polygon fill="#ffffff" stroke="#000000" points="450.585,-170.5 450.585,-188.5 563.2939,-188.5 563.2939,-170.5 450.585,-170.5"/>
<text text-anchor="middle" x="506.9395" y="-176.5" font-family="Helvetica,sans-Serif" font-size="10.00" fill="#000000">prevector::indirect_ptr</text>
</a>
</g>
</g>
<!-- Node42&#45;&gt;Node43 -->
<g id="edge5" class="edge">
<title>Node42&#45;&gt;Node43</title>
<path fill="none" stroke="#191970" d="M279.3005,-194.0693C327.8247,-190.9637 392.3202,-186.8358 440.2698,-183.767"/>
<polygon fill="#191970" stroke="#191970" points="440.7886,-187.241 450.5446,-183.1094 440.3414,-180.2553 440.7886,-187.241"/>
</g>
<!-- Node44 -->
<g id="node6" class="node">
<title>Node44</title>
<g id="a_node6"><a xlink:href="classprevector.html#a20150a43dd87c33f0e855a55bd3418e8" target="_top" xlink:title="prevector::direct_ptr">
<polygon fill="#ffffff" stroke="#000000" points="454.4766,-217.5 454.4766,-235.5 559.4023,-235.5 559.4023,-217.5 454.4766,-217.5"/>
<text text-anchor="middle" x="506.9395" y="-223.5" font-family="Helvetica,sans-Serif" font-size="10.00" fill="#000000">prevector::direct_ptr</text>
</a>
</g>
</g>
<!-- Node42&#45;&gt;Node44 -->
<g id="edge6" class="edge">
<title>Node42&#45;&gt;Node44</title>
<path fill="none" stroke="#191970" d="M279.3005,-205.0294C329.2061,-209.7364 396.0052,-216.0368 444.3238,-220.5942"/>
<polygon fill="#191970" stroke="#191970" points="444.0567,-224.0844 454.3412,-221.539 444.7141,-217.1154 444.0567,-224.0844"/>
</g>
<!-- Node45 -->
<g id="node7" class="node">
<title>Node45</title>
<g id="a_node7"><a xlink:href="glibc__compat_8cpp.html#a0f46826ab0466591e136db24394923cf" target="_top" xlink:title="memcpy">
<polygon fill="#ffffff" stroke="#000000" points="338.0112,-265.5 338.0112,-283.5 391.7944,-283.5 391.7944,-265.5 338.0112,-265.5"/>
<text text-anchor="middle" x="364.9028" y="-271.5" font-family="Helvetica,sans-Serif" font-size="10.00" fill="#000000">memcpy</text>
</a>
</g>
</g>
<!-- Node42&#45;&gt;Node45 -->
<g id="edge7" class="edge">
<title>Node42&#45;&gt;Node45</title>
<path fill="none" stroke="#191970" d="M228.2836,-207.5695C249.2297,-217.9867 284.6658,-235.5649 315.2207,-250.5 322.2023,-253.9126 329.7482,-257.5724 336.7997,-260.9801"/>
<polygon fill="#191970" stroke="#191970" points="335.482,-264.2304 346.0095,-265.4238 338.524,-257.9259 335.482,-264.2304"/>
</g>
<!-- Node46 -->
<g id="node8" class="node">
<title>Node46</title>
<g id="a_node8"><a xlink:href="glibc__compat_8cpp.html#a9778d49e9029dd75bc53ecbbf9f5e9a1" target="_top" xlink:title="memmove">
<polygon fill="#ffffff" stroke="#000000" points="475.6021,-265.5 475.6021,-283.5 538.2769,-283.5 538.2769,-265.5 475.6021,-265.5"/>
<text text-anchor="middle" x="506.9395" y="-271.5" font-family="Helvetica,sans-Serif" font-size="10.00" fill="#000000">memmove</text>
</a>
</g>
</g>
<!-- Node45&#45;&gt;Node46 -->
<g id="edge8" class="edge">
<title>Node45&#45;&gt;Node46</title>
<path fill="none" stroke="#191970" d="M391.9532,-274.5C412.7069,-274.5 441.7195,-274.5 465.4093,-274.5"/>
<polygon fill="#191970" stroke="#191970" points="465.5326,-278.0001 475.5326,-274.5 465.5325,-271.0001 465.5326,-278.0001"/>
</g>
<!-- Node48&#45;&gt;Node41 -->
<g id="edge12" class="edge">
<title>Node48&#45;&gt;Node41</title>
<path fill="none" stroke="#191970" d="M399.6489,-94.5512C418.4781,-99.4562 441.9574,-105.5724 462.1468,-110.8317"/>
<polygon fill="#191970" stroke="#191970" points="461.5004,-114.28 472.0598,-113.414 463.2651,-107.5061 461.5004,-114.28"/>
</g>
<!-- Node48&#45;&gt;Node43 -->
<g id="edge14" class="edge">
<title>Node48&#45;&gt;Node43</title>
<path fill="none" stroke="#191970" d="M396.6672,-94.5788C402.8547,-97.0088 409.113,-99.9668 414.585,-103.5 433.8599,-115.9458 433.0696,-125.68 450.585,-140.5 460.8417,-149.1784 473.0149,-157.7889 483.4181,-164.7029"/>
<polygon fill="#191970" stroke="#191970" points="481.7226,-167.7755 492.012,-170.3012 485.5434,-161.9102 481.7226,-167.7755"/>
</g>
<!-- Node48&#45;&gt;Node44 -->
<g id="edge13" class="edge">
<title>Node48&#45;&gt;Node44</title>
<path fill="none" stroke="#191970" d="M401.5409,-94.5665C406.3314,-96.9012 410.8604,-99.8296 414.585,-103.5 446.7451,-135.1929 420.2748,-165.0335 450.585,-198.5 455.7782,-204.234 462.4103,-208.9382 469.2879,-212.7436"/>
<polygon fill="#191970" stroke="#191970" points="468.1898,-216.1045 478.7066,-217.388 471.2856,-209.8262 468.1898,-216.1045"/>
</g>
<!-- Node49&#45;&gt;Node48 -->
<g id="edge16" class="edge">
<title>Node49&#45;&gt;Node48</title>
<path fill="none" stroke="#191970" d="M245.9834,-55.5454C267.7917,-61.0387 295.839,-68.1035 319.2177,-73.9924"/>
<polygon fill="#191970" stroke="#191970" points="318.3675,-77.3875 328.9195,-76.4362 320.0774,-70.5995 318.3675,-77.3875"/>
</g>
<!-- Node50&#45;&gt;Node40 -->
<g id="edge19" class="edge">
<title>Node50&#45;&gt;Node40</title>
<path fill="none" stroke="#191970" d="M250.3487,-122.5C269.8179,-122.5 293.3941,-122.5 314.0849,-122.5"/>
<polygon fill="#191970" stroke="#191970" points="314.2912,-126.0001 324.2912,-122.5 314.2911,-119.0001 314.2912,-126.0001"/>
</g>
<!-- Node50&#45;&gt;Node48 -->
<g id="edge18" class="edge">
<title>Node50&#45;&gt;Node48</title>
<path fill="none" stroke="#191970" d="M247.9488,-113.4488C268.8328,-108.4581 294.9643,-102.2134 317.2267,-96.8933"/>
<polygon fill="#191970" stroke="#191970" points="318.2376,-100.2503 327.1503,-94.5218 316.6106,-93.442 318.2376,-100.2503"/>
</g>
</g>
</svg>
