<?xml version="1.0" encoding="UTF-8" standalone="no"?>
<!DOCTYPE svg PUBLIC "-//W3C//DTD SVG 1.1//EN"
 "http://www.w3.org/Graphics/SVG/1.1/DTD/svg11.dtd">
<!-- Generated by graphviz version 2.40.1 (20161225.0304)
 -->
<!-- Title: WalletModel::notifyWatchonlyChanged Pages: 1 -->
<svg width="677pt" height="111pt"
 viewBox="0.00 0.00 677.44 111.00" xmlns="http://www.w3.org/2000/svg" xmlns:xlink="http://www.w3.org/1999/xlink">
<g id="graph0" class="graph" transform="scale(1 1) rotate(0) translate(4 107)">
<title>WalletModel::notifyWatchonlyChanged</title>
<polygon fill="#ffffff" stroke="transparent" points="-4,4 -4,-107 673.4414,-107 673.4414,4 -4,4"/>
<!-- Node313 -->
<g id="node1" class="node">
<title>Node313</title>
<polygon fill="#bfbfbf" stroke="#000000" points="0,-42.5 0,-70.5 146.4297,-70.5 146.4297,-42.5 0,-42.5"/>
<text text-anchor="start" x="8" y="-58.5" font-family="Helvetica,sans-Serif" font-size="10.00" fill="#000000">WalletModel::notifyWatchonly</text>
<text text-anchor="middle" x="73.2148" y="-48.5" font-family="Helvetica,sans-Serif" font-size="10.00" fill="#000000">Changed</text>
</g>
<!-- Node314 -->
<g id="node2" class="node">
<title>Node314</title>
<g id="a_node2"><a xlink:href="class_overview_page.html#a2ed52a3a87e9c74fee38fa873c9bc71f" target="_top" xlink:title="OverviewPage::setWalletModel">
<polygon fill="#ffffff" stroke="#000000" points="182.4297,-84.5 182.4297,-102.5 337.0088,-102.5 337.0088,-84.5 182.4297,-84.5"/>
<text text-anchor="middle" x="259.7192" y="-90.5" font-family="Helvetica,sans-Serif" font-size="10.00" fill="#000000">OverviewPage::setWalletModel</text>
</a>
</g>
</g>
<!-- Node313&#45;&gt;Node314 -->
<g id="edge1" class="edge">
<title>Node313&#45;&gt;Node314</title>
<path fill="none" stroke="#191970" d="M154.0042,-72.5275C174.5746,-76.6084 195.9689,-80.8528 214.0858,-84.4469"/>
<polygon fill="#191970" stroke="#191970" points="154.48,-69.0538 143.9901,-70.5409 153.1178,-75.92 154.48,-69.0538"/>
</g>
<!-- Node317 -->
<g id="node5" class="node">
<title>Node317</title>
<g id="a_node5"><a xlink:href="class_transaction_view.html#a4920c2cd57d72eb50248948fa160c83c" target="_top" xlink:title="TransactionView::setModel">
<polygon fill="#ffffff" stroke="#000000" points="191.9634,-47.5 191.9634,-65.5 327.4751,-65.5 327.4751,-47.5 191.9634,-47.5"/>
<text text-anchor="middle" x="259.7192" y="-53.5" font-family="Helvetica,sans-Serif" font-size="10.00" fill="#000000">TransactionView::setModel</text>
</a>
</g>
</g>
<!-- Node313&#45;&gt;Node317 -->
<g id="edge4" class="edge">
<title>Node313&#45;&gt;Node317</title>
<path fill="none" stroke="#191970" d="M156.864,-56.5C168.5581,-56.5 180.4557,-56.5 191.8108,-56.5"/>
<polygon fill="#191970" stroke="#191970" points="156.6586,-53.0001 146.6586,-56.5 156.6586,-60.0001 156.6586,-53.0001"/>
</g>
<!-- Node318 -->
<g id="node6" class="node">
<title>Node318</title>
<g id="a_node6"><a xlink:href="class_wallet_model.html#add90646b2ed03348dc2d6b415fa02a4e" target="_top" xlink:title="WalletModel::updateWatch\lOnlyFlag">
<polygon fill="#ffffff" stroke="#000000" points="192.3345,-.5 192.3345,-28.5 327.104,-28.5 327.104,-.5 192.3345,-.5"/>
<text text-anchor="start" x="200.3345" y="-16.5" font-family="Helvetica,sans-Serif" font-size="10.00" fill="#000000">WalletModel::updateWatch</text>
<text text-anchor="middle" x="259.7192" y="-6.5" font-family="Helvetica,sans-Serif" font-size="10.00" fill="#000000">OnlyFlag</text>
</a>
</g>
</g>
<!-- Node313&#45;&gt;Node318 -->
<g id="edge6" class="edge">
<title>Node313&#45;&gt;Node318</title>
<path fill="none" stroke="#191970" d="M145.5283,-40.2153C162.6557,-36.3583 180.7769,-32.2775 197.4154,-28.5306"/>
<polygon fill="#191970" stroke="#191970" points="144.5641,-36.8447 135.5774,-42.4562 146.102,-43.6737 144.5641,-36.8447"/>
</g>
<!-- Node315 -->
<g id="node3" class="node">
<title>Node315</title>
<g id="a_node3"><a xlink:href="class_wallet_view.html#a0a37ff693a4f9c1e5ddc23f9cd3913be" target="_top" xlink:title="Set the wallet model. ">
<polygon fill="#ffffff" stroke="#000000" points="373.0088,-65.5 373.0088,-83.5 511.4746,-83.5 511.4746,-65.5 373.0088,-65.5"/>
<text text-anchor="middle" x="442.2417" y="-71.5" font-family="Helvetica,sans-Serif" font-size="10.00" fill="#000000">WalletView::setWalletModel</text>
</a>
</g>
</g>
<!-- Node314&#45;&gt;Node315 -->
<g id="edge2" class="edge">
<title>Node314&#45;&gt;Node315</title>
<path fill="none" stroke="#191970" d="M347.1841,-84.3952C355.7861,-83.4997 364.4332,-82.5996 372.8189,-81.7267"/>
<polygon fill="#191970" stroke="#191970" points="346.709,-80.9256 337.1252,-85.4423 347.4339,-87.888 346.709,-80.9256"/>
</g>
<!-- Node316 -->
<g id="node4" class="node">
<title>Node316</title>
<g id="a_node4"><a xlink:href="class_wallet_frame.html#a06cb28194836995e50cc46716b2227ff" target="_top" xlink:title="WalletFrame::addWallet">
<polygon fill="#ffffff" stroke="#000000" points="547.4746,-65.5 547.4746,-83.5 669.4414,-83.5 669.4414,-65.5 547.4746,-65.5"/>
<text text-anchor="middle" x="608.458" y="-71.5" font-family="Helvetica,sans-Serif" font-size="10.00" fill="#000000">WalletFrame::addWallet</text>
</a>
</g>
</g>
<!-- Node315&#45;&gt;Node316 -->
<g id="edge3" class="edge">
<title>Node315&#45;&gt;Node316</title>
<path fill="none" stroke="#191970" d="M521.8197,-74.5C530.4198,-74.5 539.0704,-74.5 547.4022,-74.5"/>
<polygon fill="#191970" stroke="#191970" points="521.7693,-71.0001 511.7693,-74.5 521.7693,-78.0001 521.7693,-71.0001"/>
</g>
<!-- Node317&#45;&gt;Node315 -->
<g id="edge5" class="edge">
<title>Node317&#45;&gt;Node315</title>
<path fill="none" stroke="#191970" d="M337.8568,-64.2058C349.5413,-65.3581 361.519,-66.5393 373.0019,-67.6717"/>
<polygon fill="#191970" stroke="#191970" points="337.9791,-60.7009 327.6839,-63.2025 337.2921,-67.6671 337.9791,-60.7009"/>
</g>
</g>
</svg>
