<?xml version="1.0" encoding="UTF-8" standalone="no"?>
<!DOCTYPE svg PUBLIC "-//W3C//DTD SVG 1.1//EN"
 "http://www.w3.org/Graphics/SVG/1.1/DTD/svg11.dtd">
<!-- Generated by graphviz version 2.40.1 (20161225.0304)
 -->
<!-- Title: WalletBatch::ZapWalletTx Pages: 1 -->
<svg width="659pt" height="127pt"
 viewBox="0.00 0.00 658.72 127.00" xmlns="http://www.w3.org/2000/svg" xmlns:xlink="http://www.w3.org/1999/xlink">
<g id="graph0" class="graph" transform="scale(1 1) rotate(0) translate(4 123)">
<title>WalletBatch::ZapWalletTx</title>
<polygon fill="#ffffff" stroke="transparent" points="-4,4 -4,-123 654.7158,-123 654.7158,4 -4,4"/>
<!-- Node448 -->
<g id="node1" class="node">
<title>Node448</title>
<polygon fill="#bfbfbf" stroke="#000000" points="0,-44.5 0,-62.5 130.3018,-62.5 130.3018,-44.5 0,-44.5"/>
<text text-anchor="middle" x="65.1509" y="-50.5" font-family="Helvetica,sans-Serif" font-size="10.00" fill="#000000">WalletBatch::ZapWalletTx</text>
</g>
<!-- Node449 -->
<g id="node2" class="node">
<title>Node449</title>
<g id="a_node2"><a xlink:href="class_wallet_batch.html#a32af4723c4cb7cb41958b42b13f78f78" target="_top" xlink:title="WalletBatch::FindWalletTx">
<polygon fill="#ffffff" stroke="#000000" points="166.3018,-63.5 166.3018,-81.5 298.8252,-81.5 298.8252,-63.5 166.3018,-63.5"/>
<text text-anchor="middle" x="232.5635" y="-69.5" font-family="Helvetica,sans-Serif" font-size="10.00" fill="#000000">WalletBatch::FindWalletTx</text>
</a>
</g>
</g>
<!-- Node448&#45;&gt;Node449 -->
<g id="edge1" class="edge">
<title>Node448&#45;&gt;Node449</title>
<path fill="none" stroke="#191970" d="M130.3563,-60.9003C138.8028,-61.8589 147.5139,-62.8475 156.1217,-63.8245"/>
<polygon fill="#191970" stroke="#191970" points="155.8262,-67.3133 166.1571,-64.9634 156.6156,-60.358 155.8262,-67.3133"/>
</g>
<!-- Node452 -->
<g id="node5" class="node">
<title>Node452</title>
<g id="a_node5"><a xlink:href="class_wallet_batch.html#ad33ea8fb2b154ad6992377c0c81c2367" target="_top" xlink:title="WalletBatch::EraseTx">
<polygon fill="#ffffff" stroke="#000000" points="176.6753,-26.5 176.6753,-44.5 288.4517,-44.5 288.4517,-26.5 176.6753,-26.5"/>
<text text-anchor="middle" x="232.5635" y="-32.5" font-family="Helvetica,sans-Serif" font-size="10.00" fill="#000000">WalletBatch::EraseTx</text>
</a>
</g>
</g>
<!-- Node448&#45;&gt;Node452 -->
<g id="edge4" class="edge">
<title>Node448&#45;&gt;Node452</title>
<path fill="none" stroke="#191970" d="M130.3563,-46.4892C142.1439,-45.2218 154.4466,-43.899 166.265,-42.6283"/>
<polygon fill="#191970" stroke="#191970" points="166.9325,-46.0768 176.5011,-41.5278 166.1842,-39.1169 166.9325,-46.0768"/>
</g>
<!-- Node450 -->
<g id="node3" class="node">
<title>Node450</title>
<g id="a_node3"><a xlink:href="class_berkeley_batch.html#afbf2d778e5791c88149b8c6c1cab0ab8" target="_top" xlink:title="BerkeleyBatch::Read">
<polygon fill="#ffffff" stroke="#000000" points="345.9336,-100.5 345.9336,-118.5 455.874,-118.5 455.874,-100.5 345.9336,-100.5"/>
<text text-anchor="middle" x="400.9038" y="-106.5" font-family="Helvetica,sans-Serif" font-size="10.00" fill="#000000">BerkeleyBatch::Read</text>
</a>
</g>
</g>
<!-- Node449&#45;&gt;Node450 -->
<g id="edge2" class="edge">
<title>Node449&#45;&gt;Node450</title>
<path fill="none" stroke="#191970" d="M273.7442,-81.5512C296.7573,-86.6093 325.6313,-92.9556 350.0463,-98.3219"/>
<polygon fill="#191970" stroke="#191970" points="349.3386,-101.7498 359.8569,-100.4782 350.8414,-94.913 349.3386,-101.7498"/>
</g>
<!-- Node451 -->
<g id="node4" class="node">
<title>Node451</title>
<g id="a_node4"><a xlink:href="class_berkeley_batch.html#a1e32d0aeea205d2a9a57c62a9c2d9d7d" target="_top" xlink:title="BerkeleyBatch::GetCursor">
<polygon fill="#ffffff" stroke="#000000" points="334.8252,-63.5 334.8252,-81.5 466.9824,-81.5 466.9824,-63.5 334.8252,-63.5"/>
<text text-anchor="middle" x="400.9038" y="-69.5" font-family="Helvetica,sans-Serif" font-size="10.00" fill="#000000">BerkeleyBatch::GetCursor</text>
</a>
</g>
</g>
<!-- Node449&#45;&gt;Node451 -->
<g id="edge3" class="edge">
<title>Node449&#45;&gt;Node451</title>
<path fill="none" stroke="#191970" d="M299.096,-72.5C307.3938,-72.5 315.931,-72.5 324.3652,-72.5"/>
<polygon fill="#191970" stroke="#191970" points="324.579,-76.0001 334.5789,-72.5 324.5789,-69.0001 324.579,-76.0001"/>
</g>
<!-- Node453 -->
<g id="node6" class="node">
<title>Node453</title>
<g id="a_node6"><a xlink:href="class_wallet_batch.html#a9142686ef26de3c4ab3062237a81f345" target="_top" xlink:title="WalletBatch::EraseIC">
<polygon fill="#ffffff" stroke="#000000" points="345.5698,-26.5 345.5698,-44.5 456.2378,-44.5 456.2378,-26.5 345.5698,-26.5"/>
<text text-anchor="middle" x="400.9038" y="-32.5" font-family="Helvetica,sans-Serif" font-size="10.00" fill="#000000">WalletBatch::EraseIC</text>
</a>
</g>
</g>
<!-- Node452&#45;&gt;Node453 -->
<g id="edge5" class="edge">
<title>Node452&#45;&gt;Node453</title>
<path fill="none" stroke="#191970" d="M288.6184,-35.5C303.604,-35.5 319.933,-35.5 335.3798,-35.5"/>
<polygon fill="#191970" stroke="#191970" points="335.3802,-39.0001 345.3802,-35.5 335.3801,-32.0001 335.3802,-39.0001"/>
</g>
<!-- Node454 -->
<g id="node7" class="node">
<title>Node454</title>
<g id="a_node7"><a xlink:href="class_berkeley_batch.html#af17c19ee65042d1c497f61d4560e9639" target="_top" xlink:title="BerkeleyBatch::Erase">
<polygon fill="#ffffff" stroke="#000000" points="520.7705,-47.5 520.7705,-65.5 632.9277,-65.5 632.9277,-47.5 520.7705,-47.5"/>
<text text-anchor="middle" x="576.8491" y="-53.5" font-family="Helvetica,sans-Serif" font-size="10.00" fill="#000000">BerkeleyBatch::Erase</text>
</a>
</g>
</g>
<!-- Node453&#45;&gt;Node454 -->
<g id="edge6" class="edge">
<title>Node453&#45;&gt;Node454</title>
<path fill="none" stroke="#191970" d="M456.574,-42.1445C473.6584,-44.1836 492.6302,-46.448 510.3616,-48.5644"/>
<polygon fill="#191970" stroke="#191970" points="510.2903,-52.0806 520.6346,-49.7905 511.1199,-45.1299 510.2903,-52.0806"/>
</g>
<!-- Node455 -->
<g id="node8" class="node">
<title>Node455</title>
<g id="a_node8"><a xlink:href="class_berkeley_database.html#a313cd767c211da5738bdb5578cd59af7" target="_top" xlink:title="BerkeleyDatabase::Increment\lUpdateCounter">
<polygon fill="#ffffff" stroke="#000000" points="502.9824,-.5 502.9824,-28.5 650.7158,-28.5 650.7158,-.5 502.9824,-.5"/>
<text text-anchor="start" x="510.9824" y="-16.5" font-family="Helvetica,sans-Serif" font-size="10.00" fill="#000000">BerkeleyDatabase::Increment</text>
<text text-anchor="middle" x="576.8491" y="-6.5" font-family="Helvetica,sans-Serif" font-size="10.00" fill="#000000">UpdateCounter</text>
</a>
</g>
</g>
<!-- Node453&#45;&gt;Node455 -->
<g id="edge7" class="edge">
<title>Node453&#45;&gt;Node455</title>
<path fill="none" stroke="#191970" d="M456.574,-28.8555C468.0574,-27.4849 480.3936,-26.0125 492.6327,-24.5517"/>
<polygon fill="#191970" stroke="#191970" points="493.3551,-27.9904 502.8698,-23.3298 492.5255,-21.0397 493.3551,-27.9904"/>
</g>
</g>
</svg>
