<?xml version="1.0" encoding="UTF-8" standalone="no"?>
<!DOCTYPE svg PUBLIC "-//W3C//DTD SVG 1.1//EN"
 "http://www.w3.org/Graphics/SVG/1.1/DTD/svg11.dtd">
<!-- Generated by graphviz version 2.40.1 (20161225.0304)
 -->
<!-- Title: CTxMemPool::GetMinFee Pages: 1 -->
<svg width="469pt" height="111pt"
 viewBox="0.00 0.00 469.20 111.00" xmlns="http://www.w3.org/2000/svg" xmlns:xlink="http://www.w3.org/1999/xlink">
<g id="graph0" class="graph" transform="scale(1 1) rotate(0) translate(4 107)">
<title>CTxMemPool::GetMinFee</title>
<polygon fill="#ffffff" stroke="transparent" points="-4,4 -4,-107 465.2012,-107 465.2012,4 -4,4"/>
<!-- Node186 -->
<g id="node1" class="node">
<title>Node186</title>
<polygon fill="#bfbfbf" stroke="#000000" points="0,-42.5 0,-60.5 131.5859,-60.5 131.5859,-42.5 0,-42.5"/>
<text text-anchor="middle" x="65.793" y="-48.5" font-family="Helvetica,sans-Serif" font-size="10.00" fill="#000000">CTxMemPool::GetMinFee</text>
</g>
<!-- Node187 -->
<g id="node2" class="node">
<title>Node187</title>
<g id="a_node2"><a xlink:href="utiltime_8cpp.html#a46fac5fba8ba905b5f9acb364f5d8c6f" target="_top" xlink:title="GetTimeMicros() and GetTimeMillis() both return the system time, but in different units...">
<polygon fill="#ffffff" stroke="#000000" points="219.1655,-84.5 219.1655,-102.5 273.1392,-102.5 273.1392,-84.5 219.1655,-84.5"/>
<text text-anchor="middle" x="246.1523" y="-90.5" font-family="Helvetica,sans-Serif" font-size="10.00" fill="#000000">GetTime</text>
</a>
</g>
</g>
<!-- Node186&#45;&gt;Node187 -->
<g id="edge1" class="edge">
<title>Node186&#45;&gt;Node187</title>
<path fill="none" stroke="#191970" d="M103.9666,-60.5606C123.065,-65.0783 146.5402,-70.6082 167.5859,-75.5 181.0296,-78.6248 195.7768,-82.0137 208.8273,-84.9994"/>
<polygon fill="#191970" stroke="#191970" points="208.3441,-88.4791 218.8725,-87.2946 209.9034,-81.655 208.3441,-88.4791"/>
</g>
<!-- Node188 -->
<g id="node3" class="node">
<title>Node188</title>
<g id="a_node3"><a xlink:href="class_c_tx_mem_pool.html#a4fcf05ad5f15a565c4b43c4b9f29906e" target="_top" xlink:title="CTxMemPool::DynamicMemory\lUsage">
<polygon fill="#ffffff" stroke="#000000" points="167.5859,-37.5 167.5859,-65.5 324.7188,-65.5 324.7188,-37.5 167.5859,-37.5"/>
<text text-anchor="start" x="175.5859" y="-53.5" font-family="Helvetica,sans-Serif" font-size="10.00" fill="#000000">CTxMemPool::DynamicMemory</text>
<text text-anchor="middle" x="246.1523" y="-43.5" font-family="Helvetica,sans-Serif" font-size="10.00" fill="#000000">Usage</text>
</a>
</g>
</g>
<!-- Node186&#45;&gt;Node188 -->
<g id="edge2" class="edge">
<title>Node186&#45;&gt;Node188</title>
<path fill="none" stroke="#191970" d="M131.6724,-51.5C139.9901,-51.5 148.6057,-51.5 157.2064,-51.5"/>
<polygon fill="#191970" stroke="#191970" points="157.2773,-55.0001 167.2773,-51.5 157.2772,-48.0001 157.2773,-55.0001"/>
</g>
<!-- Node189 -->
<g id="node4" class="node">
<title>Node189</title>
<g id="a_node4"><a xlink:href="class_c_fee_rate.html#ac772be79983433d442d6b871d2fb6e11" target="_top" xlink:title="Return the fee in satoshis for a size of 1000 bytes. ">
<polygon fill="#ffffff" stroke="#000000" points="184.7954,-.5 184.7954,-18.5 307.5093,-18.5 307.5093,-.5 184.7954,-.5"/>
<text text-anchor="middle" x="246.1523" y="-6.5" font-family="Helvetica,sans-Serif" font-size="10.00" fill="#000000">CFeeRate::GetFeePerK</text>
</a>
</g>
</g>
<!-- Node186&#45;&gt;Node189 -->
<g id="edge3" class="edge">
<title>Node186&#45;&gt;Node189</title>
<path fill="none" stroke="#191970" d="M104.4846,-42.4899C131.6135,-36.1725 168.0915,-27.6779 197.2377,-20.8907"/>
<polygon fill="#191970" stroke="#191970" points="198.2684,-24.2444 207.214,-18.5675 196.6807,-17.4268 198.2684,-24.2444"/>
</g>
<!-- Node190 -->
<g id="node5" class="node">
<title>Node190</title>
<g id="a_node5"><a xlink:href="class_c_fee_rate.html#a1173705aceba99303d6485d1c2f3f9a8" target="_top" xlink:title="Return the fee in satoshis for the given size in bytes. ">
<polygon fill="#ffffff" stroke="#000000" points="360.7188,-.5 360.7188,-18.5 461.2012,-18.5 461.2012,-.5 360.7188,-.5"/>
<text text-anchor="middle" x="410.96" y="-6.5" font-family="Helvetica,sans-Serif" font-size="10.00" fill="#000000">CFeeRate::GetFee</text>
</a>
</g>
</g>
<!-- Node189&#45;&gt;Node190 -->
<g id="edge4" class="edge">
<title>Node189&#45;&gt;Node190</title>
<path fill="none" stroke="#191970" d="M307.5206,-9.5C321.5865,-9.5 336.5287,-9.5 350.5536,-9.5"/>
<polygon fill="#191970" stroke="#191970" points="350.5782,-13.0001 360.5782,-9.5 350.5781,-6.0001 350.5782,-13.0001"/>
</g>
</g>
</svg>
