<?xml version="1.0" encoding="UTF-8" standalone="no"?>
<!DOCTYPE svg PUBLIC "-//W3C//DTD SVG 1.1//EN"
 "http://www.w3.org/Graphics/SVG/1.1/DTD/svg11.dtd">
<!-- Generated by graphviz version 2.40.1 (20161225.0304)
 -->
<!-- Title: BerkeleyBatch::VerifyEnvironment Pages: 1 -->
<svg width="322pt" height="74pt"
 viewBox="0.00 0.00 322.23 74.00" xmlns="http://www.w3.org/2000/svg" xmlns:xlink="http://www.w3.org/1999/xlink">
<g id="graph0" class="graph" transform="scale(1 1) rotate(0) translate(4 70)">
<title>BerkeleyBatch::VerifyEnvironment</title>
<polygon fill="#ffffff" stroke="transparent" points="-4,4 -4,-70 318.2305,-70 318.2305,4 -4,4"/>
<!-- Node174 -->
<g id="node1" class="node">
<title>Node174</title>
<polygon fill="#bfbfbf" stroke="#000000" points="0,-26.5 0,-44.5 167.1865,-44.5 167.1865,-26.5 0,-26.5"/>
<text text-anchor="middle" x="83.5933" y="-32.5" font-family="Helvetica,sans-Serif" font-size="10.00" fill="#000000">BerkeleyBatch::VerifyEnvironment</text>
</g>
<!-- Node175 -->
<g id="node2" class="node">
<title>Node175</title>
<g id="a_node2"><a xlink:href="db_8cpp.html#ad35888bb71f9a2822294063004aab1d5" target="_top" xlink:title="Get BerkeleyEnvironment and database filename given a wallet path. ">
<polygon fill="#ffffff" stroke="#000000" points="220.3252,-47.5 220.3252,-65.5 297.0918,-65.5 297.0918,-47.5 220.3252,-47.5"/>
<text text-anchor="middle" x="258.7085" y="-53.5" font-family="Helvetica,sans-Serif" font-size="10.00" fill="#000000">GetWalletEnv</text>
</a>
</g>
</g>
<!-- Node174&#45;&gt;Node175 -->
<g id="edge1" class="edge">
<title>Node174&#45;&gt;Node175</title>
<path fill="none" stroke="#191970" d="M158.8742,-44.5278C176.2119,-46.6069 194.2048,-48.7647 210.0607,-50.6661"/>
<polygon fill="#191970" stroke="#191970" points="209.7976,-54.1596 220.1433,-51.8752 210.6312,-47.2094 209.7976,-54.1596"/>
</g>
<!-- Node176 -->
<g id="node3" class="node">
<title>Node176</title>
<g id="a_node3"><a xlink:href="class_berkeley_environment.html#a1e5ad8ccd1e5e8ca57291bc2ec61613e" target="_top" xlink:title="BerkeleyEnvironment\l::Directory">
<polygon fill="#ffffff" stroke="#000000" points="203.1865,-.5 203.1865,-28.5 314.2305,-28.5 314.2305,-.5 203.1865,-.5"/>
<text text-anchor="start" x="211.1865" y="-16.5" font-family="Helvetica,sans-Serif" font-size="10.00" fill="#000000">BerkeleyEnvironment</text>
<text text-anchor="middle" x="258.7085" y="-6.5" font-family="Helvetica,sans-Serif" font-size="10.00" fill="#000000">::Directory</text>
</a>
</g>
</g>
<!-- Node174&#45;&gt;Node176 -->
<g id="edge2" class="edge">
<title>Node174&#45;&gt;Node176</title>
<path fill="none" stroke="#191970" d="M158.8742,-26.4722C170.2299,-25.1104 181.8666,-23.715 192.9999,-22.3798"/>
<polygon fill="#191970" stroke="#191970" points="193.5482,-25.8393 203.0603,-21.1734 192.7147,-18.889 193.5482,-25.8393"/>
</g>
</g>
</svg>
