<?xml version="1.0" encoding="UTF-8" standalone="no"?>
<!DOCTYPE svg PUBLIC "-//W3C//DTD SVG 1.1//EN"
 "http://www.w3.org/Graphics/SVG/1.1/DTD/svg11.dtd">
<!-- Generated by graphviz version 2.40.1 (20161225.0304)
 -->
<!-- Title: WalletFrame::currentWalletView Pages: 1 -->
<svg width="700pt" height="390pt"
 viewBox="0.00 0.00 700.02 390.00" xmlns="http://www.w3.org/2000/svg" xmlns:xlink="http://www.w3.org/1999/xlink">
<g id="graph0" class="graph" transform="scale(1 1) rotate(0) translate(4 386)">
<title>WalletFrame::currentWalletView</title>
<polygon fill="#ffffff" stroke="transparent" points="-4,4 -4,-386 696.0244,-386 696.0244,4 -4,4"/>
<!-- Node158 -->
<g id="node1" class="node">
<title>Node158</title>
<polygon fill="#bfbfbf" stroke="#000000" points="0,-186.5 0,-204.5 157.9043,-204.5 157.9043,-186.5 0,-186.5"/>
<text text-anchor="middle" x="78.9521" y="-192.5" font-family="Helvetica,sans-Serif" font-size="10.00" fill="#000000">WalletFrame::currentWalletView</text>
</g>
<!-- Node159 -->
<g id="node2" class="node">
<title>Node159</title>
<g id="a_node2"><a xlink:href="class_wallet_frame.html#a06cb28194836995e50cc46716b2227ff" target="_top" xlink:title="WalletFrame::addWallet">
<polygon fill="#ffffff" stroke="#000000" points="222.4419,-363.5 222.4419,-381.5 344.4087,-381.5 344.4087,-363.5 222.4419,-363.5"/>
<text text-anchor="middle" x="283.4253" y="-369.5" font-family="Helvetica,sans-Serif" font-size="10.00" fill="#000000">WalletFrame::addWallet</text>
</a>
</g>
</g>
<!-- Node158&#45;&gt;Node159 -->
<g id="edge1" class="edge">
<title>Node158&#45;&gt;Node159</title>
<path fill="none" stroke="#191970" d="M86.7675,-214.0811C102.0144,-247.8968 139.1023,-319.2481 193.9043,-354.5 202.4372,-359.9889 212.2987,-363.8583 222.2912,-366.575"/>
<polygon fill="#191970" stroke="#191970" points="89.7993,-212.2779 82.5899,-204.5142 83.3843,-215.0792 89.7993,-212.2779"/>
</g>
<!-- Node160 -->
<g id="node3" class="node">
<title>Node160</title>
<g id="a_node3"><a xlink:href="class_wallet_frame.html#aa8c5b10f2240df164795619ca41c619c" target="_top" xlink:title="WalletFrame::handlePayment\lRequest">
<polygon fill="#ffffff" stroke="#000000" points="209.7466,-316.5 209.7466,-344.5 357.104,-344.5 357.104,-316.5 209.7466,-316.5"/>
<text text-anchor="start" x="217.7466" y="-332.5" font-family="Helvetica,sans-Serif" font-size="10.00" fill="#000000">WalletFrame::handlePayment</text>
<text text-anchor="middle" x="283.4253" y="-322.5" font-family="Helvetica,sans-Serif" font-size="10.00" fill="#000000">Request</text>
</a>
</g>
</g>
<!-- Node158&#45;&gt;Node160 -->
<g id="edge2" class="edge">
<title>Node158&#45;&gt;Node160</title>
<path fill="none" stroke="#191970" d="M91.7999,-212.795C111.1532,-237.5884 150.2029,-282.944 193.9043,-307.5 200.0596,-310.9587 206.7436,-313.9079 213.5927,-316.4206"/>
<polygon fill="#191970" stroke="#191970" points="94.4418,-210.4877 85.5888,-204.6674 88.8799,-214.7382 94.4418,-210.4877"/>
</g>
<!-- Node161 -->
<g id="node4" class="node">
<title>Node161</title>
<g id="a_node4"><a xlink:href="class_wallet_frame.html#a386b4f2e20af7d13a688662cd3f9e1fc" target="_top" xlink:title="Show Sign/Verify Message dialog and switch to sign message tab. ">
<polygon fill="#ffffff" stroke="#000000" points="196.4043,-279.5 196.4043,-297.5 370.4463,-297.5 370.4463,-279.5 196.4043,-279.5"/>
<text text-anchor="middle" x="283.4253" y="-285.5" font-family="Helvetica,sans-Serif" font-size="10.00" fill="#000000">WalletFrame::gotoSignMessageTab</text>
</a>
</g>
</g>
<!-- Node158&#45;&gt;Node161 -->
<g id="edge3" class="edge">
<title>Node158&#45;&gt;Node161</title>
<path fill="none" stroke="#191970" d="M97.9654,-211.2036C119.7763,-228.3983 157.2673,-255.5147 193.9043,-270.5 202.8548,-274.1609 212.6227,-277.0992 222.3101,-279.4514"/>
<polygon fill="#191970" stroke="#191970" points="99.8759,-208.2491 89.8864,-204.7191 95.4943,-213.7082 99.8759,-208.2491"/>
</g>
<!-- Node162 -->
<g id="node5" class="node">
<title>Node162</title>
<g id="a_node5"><a xlink:href="class_wallet_frame.html#af5cce5026575d013cb9d6933ebe7aa98" target="_top" xlink:title="Show Sign/Verify Message dialog and switch to verify message tab. ">
<polygon fill="#ffffff" stroke="#000000" points="193.9043,-242.5 193.9043,-260.5 372.9463,-260.5 372.9463,-242.5 193.9043,-242.5"/>
<text text-anchor="middle" x="283.4253" y="-248.5" font-family="Helvetica,sans-Serif" font-size="10.00" fill="#000000">WalletFrame::gotoVerifyMessageTab</text>
</a>
</g>
</g>
<!-- Node158&#45;&gt;Node162 -->
<g id="edge4" class="edge">
<title>Node158&#45;&gt;Node162</title>
<path fill="none" stroke="#191970" d="M112.8861,-207.9172C135.6045,-215.9322 166.2928,-226.1889 193.9043,-233.5 206.4706,-236.8274 220.1715,-239.8699 232.9908,-242.4688"/>
<polygon fill="#191970" stroke="#191970" points="113.9544,-204.5824 103.3597,-204.5231 111.605,-211.1764 113.9544,-204.5824"/>
</g>
<!-- Node163 -->
<g id="node6" class="node">
<title>Node163</title>
<g id="a_node6"><a xlink:href="class_wallet_frame.html#a8a9a419ba3e249f29fe321f2d789b761" target="_top" xlink:title="Encrypt the wallet. ">
<polygon fill="#ffffff" stroke="#000000" points="214.3877,-205.5 214.3877,-223.5 352.4629,-223.5 352.4629,-205.5 214.3877,-205.5"/>
<text text-anchor="middle" x="283.4253" y="-211.5" font-family="Helvetica,sans-Serif" font-size="10.00" fill="#000000">WalletFrame::encryptWallet</text>
</a>
</g>
</g>
<!-- Node158&#45;&gt;Node163 -->
<g id="edge5" class="edge">
<title>Node158&#45;&gt;Node163</title>
<path fill="none" stroke="#191970" d="M168.0913,-203.783C183.5495,-205.2194 199.4137,-206.6935 214.239,-208.0711"/>
<polygon fill="#191970" stroke="#191970" points="168.2878,-200.2862 158.0068,-202.8459 167.64,-207.2562 168.2878,-200.2862"/>
</g>
<!-- Node166 -->
<g id="node9" class="node">
<title>Node166</title>
<g id="a_node9"><a xlink:href="class_wallet_frame.html#a76aa3543635fedea052661a4cd44b81d" target="_top" xlink:title="Backup the wallet. ">
<polygon fill="#ffffff" stroke="#000000" points="214.6611,-168.5 214.6611,-186.5 352.1895,-186.5 352.1895,-168.5 214.6611,-168.5"/>
<text text-anchor="middle" x="283.4253" y="-174.5" font-family="Helvetica,sans-Serif" font-size="10.00" fill="#000000">WalletFrame::backupWallet</text>
</a>
</g>
</g>
<!-- Node158&#45;&gt;Node166 -->
<g id="edge8" class="edge">
<title>Node158&#45;&gt;Node166</title>
<path fill="none" stroke="#191970" d="M168.1529,-187.6476C183.7058,-186.2784 199.6678,-184.8733 214.5674,-183.5616"/>
<polygon fill="#191970" stroke="#191970" points="167.6613,-184.1772 158.0068,-188.5407 168.2752,-191.1502 167.6613,-184.1772"/>
</g>
<!-- Node167 -->
<g id="node10" class="node">
<title>Node167</title>
<g id="a_node10"><a xlink:href="class_wallet_frame.html#a0a4026a734acdc0f5fbd5f775c167443" target="_top" xlink:title="Change encrypted wallet passphrase. ">
<polygon fill="#ffffff" stroke="#000000" points="201.6851,-131.5 201.6851,-149.5 365.1655,-149.5 365.1655,-131.5 201.6851,-131.5"/>
<text text-anchor="middle" x="283.4253" y="-137.5" font-family="Helvetica,sans-Serif" font-size="10.00" fill="#000000">WalletFrame::changePassphrase</text>
</a>
</g>
</g>
<!-- Node158&#45;&gt;Node167 -->
<g id="edge10" class="edge">
<title>Node158&#45;&gt;Node167</title>
<path fill="none" stroke="#191970" d="M114.732,-183.3378C137.2905,-175.9086 167.1191,-166.5199 193.9043,-159.5 207.7364,-155.8749 222.9072,-152.4503 236.7659,-149.5334"/>
<polygon fill="#191970" stroke="#191970" points="113.6159,-180.0204 105.2282,-186.4932 115.8217,-186.6638 113.6159,-180.0204"/>
</g>
<!-- Node168 -->
<g id="node11" class="node">
<title>Node168</title>
<g id="a_node11"><a xlink:href="class_wallet_frame.html#a31b6e87c87b383ef53225b6c2b37f057" target="_top" xlink:title="Ask for passphrase to unlock wallet temporarily. ">
<polygon fill="#ffffff" stroke="#000000" points="216.3311,-94.5 216.3311,-112.5 350.5195,-112.5 350.5195,-94.5 216.3311,-94.5"/>
<text text-anchor="middle" x="283.4253" y="-100.5" font-family="Helvetica,sans-Serif" font-size="10.00" fill="#000000">WalletFrame::unlockWallet</text>
</a>
</g>
</g>
<!-- Node158&#45;&gt;Node168 -->
<g id="edge12" class="edge">
<title>Node158&#45;&gt;Node168</title>
<path fill="none" stroke="#191970" d="M98.4169,-180.0434C120.3685,-163.3781 157.7368,-137.2597 193.9043,-122.5 203.9073,-118.4178 214.9125,-115.1638 225.6817,-112.5859"/>
<polygon fill="#191970" stroke="#191970" points="96.0402,-177.4566 90.265,-186.339 100.3188,-182.9968 96.0402,-177.4566"/>
</g>
<!-- Node169 -->
<g id="node12" class="node">
<title>Node169</title>
<g id="a_node12"><a xlink:href="class_wallet_frame.html#a7f697d220e7ea40d6e4d6e6c5e9ef3b4" target="_top" xlink:title="Show used sending addresses. ">
<polygon fill="#ffffff" stroke="#000000" points="215.3008,-47.5 215.3008,-75.5 351.5498,-75.5 351.5498,-47.5 215.3008,-47.5"/>
<text text-anchor="start" x="223.3008" y="-63.5" font-family="Helvetica,sans-Serif" font-size="10.00" fill="#000000">WalletFrame::usedSending</text>
<text text-anchor="middle" x="283.4253" y="-53.5" font-family="Helvetica,sans-Serif" font-size="10.00" fill="#000000">Addresses</text>
</a>
</g>
</g>
<!-- Node158&#45;&gt;Node169 -->
<g id="edge13" class="edge">
<title>Node158&#45;&gt;Node169</title>
<path fill="none" stroke="#191970" d="M92.1957,-178.2202C111.7769,-153.8766 150.8132,-109.7541 193.9043,-85.5 200.7751,-81.6327 208.2954,-78.3666 215.9649,-75.6132"/>
<polygon fill="#191970" stroke="#191970" points="89.3314,-176.2001 85.8903,-186.2206 94.8292,-180.5331 89.3314,-176.2001"/>
</g>
<!-- Node170 -->
<g id="node13" class="node">
<title>Node170</title>
<g id="a_node13"><a xlink:href="class_wallet_frame.html#a9273a0b98cf7ec9fc344658c38a4a0a3" target="_top" xlink:title="Show used receiving addresses. ">
<polygon fill="#ffffff" stroke="#000000" points="211.6948,-.5 211.6948,-28.5 355.1558,-28.5 355.1558,-.5 211.6948,-.5"/>
<text text-anchor="start" x="219.6948" y="-16.5" font-family="Helvetica,sans-Serif" font-size="10.00" fill="#000000">WalletFrame::usedReceiving</text>
<text text-anchor="middle" x="283.4253" y="-6.5" font-family="Helvetica,sans-Serif" font-size="10.00" fill="#000000">Addresses</text>
</a>
</g>
</g>
<!-- Node158&#45;&gt;Node170 -->
<g id="edge15" class="edge">
<title>Node158&#45;&gt;Node170</title>
<path fill="none" stroke="#191970" d="M87.2748,-177.0111C103.1192,-143.9659 140.8328,-74.8367 193.9043,-38.5 199.6134,-34.5912 205.9302,-31.3183 212.4897,-28.5781"/>
<polygon fill="#191970" stroke="#191970" points="83.9581,-175.8423 82.9072,-186.3849 90.3032,-178.7987 83.9581,-175.8423"/>
</g>
<!-- Node164 -->
<g id="node7" class="node">
<title>Node164</title>
<g id="a_node7"><a xlink:href="class_bitcoin_g_u_i.html#a7340679e1356b1bb3cfaeb64a3e93218" target="_top" xlink:title="Create the main UI actions. ">
<polygon fill="#ffffff" stroke="#000000" points="408.9463,-131.5 408.9463,-149.5 538.8818,-149.5 538.8818,-131.5 408.9463,-131.5"/>
<text text-anchor="middle" x="473.9141" y="-137.5" font-family="Helvetica,sans-Serif" font-size="10.00" fill="#000000">BitcoinGUI::createActions</text>
</a>
</g>
</g>
<!-- Node163&#45;&gt;Node164 -->
<g id="edge6" class="edge">
<title>Node163&#45;&gt;Node164</title>
<path fill="none" stroke="#191970" d="M351.7959,-203.038C359.0248,-201.151 366.1951,-198.9828 372.9463,-196.5 406.2451,-184.254 441.7648,-162.1715 460.5161,-149.7087"/>
<polygon fill="#191970" stroke="#191970" points="350.8234,-199.6725 341.9361,-205.4402 352.4804,-206.4736 350.8234,-199.6725"/>
</g>
<!-- Node165 -->
<g id="node8" class="node">
<title>Node165</title>
<g id="a_node8"><a xlink:href="class_bitcoin_g_u_i.html#a58564e8398e33db7beca224c0f71c2b6" target="_top" xlink:title="BitcoinGUI::BitcoinGUI">
<polygon fill="#ffffff" stroke="#000000" points="574.8818,-131.5 574.8818,-149.5 692.0244,-149.5 692.0244,-131.5 574.8818,-131.5"/>
<text text-anchor="middle" x="633.4531" y="-137.5" font-family="Helvetica,sans-Serif" font-size="10.00" fill="#000000">BitcoinGUI::BitcoinGUI</text>
</a>
</g>
</g>
<!-- Node164&#45;&gt;Node165 -->
<g id="edge7" class="edge">
<title>Node164&#45;&gt;Node165</title>
<path fill="none" stroke="#191970" d="M549.2913,-140.5C557.8793,-140.5 566.5354,-140.5 574.8598,-140.5"/>
<polygon fill="#191970" stroke="#191970" points="549.2651,-137.0001 539.265,-140.5 549.265,-144.0001 549.2651,-137.0001"/>
</g>
<!-- Node166&#45;&gt;Node164 -->
<g id="edge9" class="edge">
<title>Node166&#45;&gt;Node164</title>
<path fill="none" stroke="#191970" d="M340.0317,-166.5049C367.9092,-161.0901 401.1045,-154.6423 427.4666,-149.5218"/>
<polygon fill="#191970" stroke="#191970" points="339.1732,-163.1062 330.0241,-168.4488 340.508,-169.9778 339.1732,-163.1062"/>
</g>
<!-- Node167&#45;&gt;Node164 -->
<g id="edge11" class="edge">
<title>Node167&#45;&gt;Node164</title>
<path fill="none" stroke="#191970" d="M375.5768,-140.5C386.7875,-140.5 398.0554,-140.5 408.7583,-140.5"/>
<polygon fill="#191970" stroke="#191970" points="375.3152,-137.0001 365.3152,-140.5 375.3151,-144.0001 375.3152,-137.0001"/>
</g>
<!-- Node169&#45;&gt;Node164 -->
<g id="edge14" class="edge">
<title>Node169&#45;&gt;Node164</title>
<path fill="none" stroke="#191970" d="M353.5175,-78.5669C360.154,-80.6975 366.7226,-83.0116 372.9463,-85.5 405.3817,-98.4687 440.6541,-119.4083 459.7277,-131.3608"/>
<polygon fill="#191970" stroke="#191970" points="354.3649,-75.1659 343.7781,-75.5778 352.3111,-81.8579 354.3649,-75.1659"/>
</g>
<!-- Node170&#45;&gt;Node164 -->
<g id="edge16" class="edge">
<title>Node170&#45;&gt;Node164</title>
<path fill="none" stroke="#191970" d="M360.8105,-32.3667C365.0093,-34.2189 369.0852,-36.2573 372.9463,-38.5 415.8231,-63.4044 453.051,-111.2251 467.5034,-131.2856"/>
<polygon fill="#191970" stroke="#191970" points="362.0416,-29.0894 351.4579,-28.6025 359.428,-35.5832 362.0416,-29.0894"/>
</g>
</g>
</svg>
