<?xml version="1.0" encoding="UTF-8" standalone="no"?>
<!DOCTYPE svg PUBLIC "-//W3C//DTD SVG 1.1//EN"
 "http://www.w3.org/Graphics/SVG/1.1/DTD/svg11.dtd">
<!-- Generated by graphviz version 2.40.1 (20161225.0304)
 -->
<!-- Title: GUIUtil::TableViewLastColumnResizingFixer::stretchColumnWidth Pages: 1 -->
<svg width="363pt" height="74pt"
 viewBox="0.00 0.00 363.34 74.00" xmlns="http://www.w3.org/2000/svg" xmlns:xlink="http://www.w3.org/1999/xlink">
<g id="graph0" class="graph" transform="scale(1 1) rotate(0) translate(4 70)">
<title>GUIUtil::TableViewLastColumnResizingFixer::stretchColumnWidth</title>
<polygon fill="#ffffff" stroke="transparent" points="-4,4 -4,-70 359.3389,-70 359.3389,4 -4,4"/>
<!-- Node127 -->
<g id="node1" class="node">
<title>Node127</title>
<polygon fill="#bfbfbf" stroke="#000000" points="0,-16.5 0,-44.5 172.1572,-44.5 172.1572,-16.5 0,-16.5"/>
<text text-anchor="start" x="8" y="-32.5" font-family="Helvetica,sans-Serif" font-size="10.00" fill="#000000">GUIUtil::TableViewLastColumn</text>
<text text-anchor="middle" x="86.0786" y="-22.5" font-family="Helvetica,sans-Serif" font-size="10.00" fill="#000000">ResizingFixer::stretchColumnWidth</text>
</g>
<!-- Node128 -->
<g id="node2" class="node">
<title>Node128</title>
<g id="a_node2"><a xlink:href="class_receive_coins_dialog.html#a8ebec2144a935622b4a33c57601a8868" target="_top" xlink:title="ReceiveCoinsDialog\l::resizeEvent">
<polygon fill="#ffffff" stroke="#000000" points="228.7261,-37.5 228.7261,-65.5 334.77,-65.5 334.77,-37.5 228.7261,-37.5"/>
<text text-anchor="start" x="236.7261" y="-53.5" font-family="Helvetica,sans-Serif" font-size="10.00" fill="#000000">ReceiveCoinsDialog</text>
<text text-anchor="middle" x="281.748" y="-43.5" font-family="Helvetica,sans-Serif" font-size="10.00" fill="#000000">::resizeEvent</text>
</a>
</g>
</g>
<!-- Node127&#45;&gt;Node128 -->
<g id="edge1" class="edge">
<title>Node127&#45;&gt;Node128</title>
<path fill="none" stroke="#191970" d="M182.564,-40.8552C198.3923,-42.5539 214.2676,-44.2577 228.5324,-45.7887"/>
<polygon fill="#191970" stroke="#191970" points="182.5032,-37.3286 172.1868,-39.7415 181.7562,-44.2887 182.5032,-37.3286"/>
</g>
<!-- Node129 -->
<g id="node3" class="node">
<title>Node129</title>
<g id="a_node3"><a xlink:href="class_transaction_view.html#a6bcc05526bc111b4299d32d882f633b8" target="_top" xlink:title="TransactionView::resizeEvent">
<polygon fill="#ffffff" stroke="#000000" points="208.1572,-.5 208.1572,-18.5 355.3389,-18.5 355.3389,-.5 208.1572,-.5"/>
<text text-anchor="middle" x="281.748" y="-6.5" font-family="Helvetica,sans-Serif" font-size="10.00" fill="#000000">TransactionView::resizeEvent</text>
</a>
</g>
</g>
<!-- Node127&#45;&gt;Node129 -->
<g id="edge2" class="edge">
<title>Node127&#45;&gt;Node129</title>
<path fill="none" stroke="#191970" d="M182.3488,-20.1679C191.0257,-19.2367 199.7189,-18.3037 208.1555,-17.3982"/>
<polygon fill="#191970" stroke="#191970" points="181.7562,-16.7113 172.1868,-21.2585 182.5032,-23.6714 181.7562,-16.7113"/>
</g>
</g>
</svg>
