<?xml version="1.0" encoding="UTF-8" standalone="no"?>
<!DOCTYPE svg PUBLIC "-//W3C//DTD SVG 1.1//EN"
 "http://www.w3.org/Graphics/SVG/1.1/DTD/svg11.dtd">
<!-- Generated by graphviz version 2.40.1 (20161225.0304)
 -->
<!-- Title: CSizeComputer::size Pages: 1 -->
<svg width="549pt" height="101pt"
 viewBox="0.00 0.00 549.43 101.00" xmlns="http://www.w3.org/2000/svg" xmlns:xlink="http://www.w3.org/1999/xlink">
<g id="graph0" class="graph" transform="scale(1 1) rotate(0) translate(4 97)">
<title>CSizeComputer::size</title>
<polygon fill="#ffffff" stroke="transparent" points="-4,4 -4,-97 545.4287,-97 545.4287,4 -4,4"/>
<!-- Node25 -->
<g id="node1" class="node">
<title>Node25</title>
<polygon fill="#bfbfbf" stroke="#000000" points="0,-37.5 0,-55.5 109.9209,-55.5 109.9209,-37.5 0,-37.5"/>
<text text-anchor="middle" x="54.9604" y="-43.5" font-family="Helvetica,sans-Serif" font-size="10.00" fill="#000000">CSizeComputer::size</text>
</g>
<!-- Node26 -->
<g id="node2" class="node">
<title>Node26</title>
<g id="a_node2"><a xlink:href="serialize_8h.html#adf4d4ad07d8f72e06ea2c39e76ae4d4a" target="_top" xlink:title="GetSerializeSizeMany">
<polygon fill="#ffffff" stroke="#000000" points="145.9209,-37.5 145.9209,-55.5 260.2949,-55.5 260.2949,-37.5 145.9209,-37.5"/>
<text text-anchor="middle" x="203.1079" y="-43.5" font-family="Helvetica,sans-Serif" font-size="10.00" fill="#000000">GetSerializeSizeMany</text>
</a>
</g>
</g>
<!-- Node25&#45;&gt;Node26 -->
<g id="edge1" class="edge">
<title>Node25&#45;&gt;Node26</title>
<path fill="none" stroke="#191970" d="M120.3933,-46.5C128.8992,-46.5 137.5592,-46.5 145.9163,-46.5"/>
<polygon fill="#191970" stroke="#191970" points="120.1251,-43.0001 110.1251,-46.5 120.1251,-50.0001 120.1251,-43.0001"/>
</g>
<!-- Node27 -->
<g id="node3" class="node">
<title>Node27</title>
<g id="a_node3"><a xlink:href="sign_8h.html#a0ca0e322433b3a17166f3ff112196169" target="_top" xlink:title="SerializeToVector">
<polygon fill="#ffffff" stroke="#000000" points="296.2949,-37.5 296.2949,-55.5 389.5605,-55.5 389.5605,-37.5 296.2949,-37.5"/>
<text text-anchor="middle" x="342.9277" y="-43.5" font-family="Helvetica,sans-Serif" font-size="10.00" fill="#000000">SerializeToVector</text>
</a>
</g>
</g>
<!-- Node26&#45;&gt;Node27 -->
<g id="edge2" class="edge">
<title>Node26&#45;&gt;Node27</title>
<path fill="none" stroke="#191970" d="M270.5234,-46.5C279.2104,-46.5 287.9488,-46.5 296.2012,-46.5"/>
<polygon fill="#191970" stroke="#191970" points="270.3814,-43.0001 260.3814,-46.5 270.3814,-50.0001 270.3814,-43.0001"/>
</g>
<!-- Node28 -->
<g id="node4" class="node">
<title>Node28</title>
<g id="a_node4"><a xlink:href="sign_8h.html#ac41104c16086f2946ec4c3926643e4c3" target="_top" xlink:title="SerializeHDKeypaths">
<polygon fill="#ffffff" stroke="#000000" points="428.251,-74.5 428.251,-92.5 538.7383,-92.5 538.7383,-74.5 428.251,-74.5"/>
<text text-anchor="middle" x="483.4946" y="-80.5" font-family="Helvetica,sans-Serif" font-size="10.00" fill="#000000">SerializeHDKeypaths</text>
</a>
</g>
</g>
<!-- Node27&#45;&gt;Node28 -->
<g id="edge3" class="edge">
<title>Node27&#45;&gt;Node28</title>
<path fill="none" stroke="#191970" d="M387.1153,-58.131C407.0804,-63.3862 430.3198,-69.5033 448.9759,-74.414"/>
<polygon fill="#191970" stroke="#191970" points="387.8758,-54.7121 377.3143,-55.5512 386.0939,-61.4815 387.8758,-54.7121"/>
</g>
<!-- Node29 -->
<g id="node5" class="node">
<title>Node29</title>
<g id="a_node5"><a xlink:href="struct_p_s_b_t_input.html#a893b339425d4c607cd4dbe50e2f28159" target="_top" xlink:title="PSBTInput::Serialize">
<polygon fill="#ffffff" stroke="#000000" points="429.3618,-37.5 429.3618,-55.5 537.6274,-55.5 537.6274,-37.5 429.3618,-37.5"/>
<text text-anchor="middle" x="483.4946" y="-43.5" font-family="Helvetica,sans-Serif" font-size="10.00" fill="#000000">PSBTInput::Serialize</text>
</a>
</g>
</g>
<!-- Node27&#45;&gt;Node29 -->
<g id="edge4" class="edge">
<title>Node27&#45;&gt;Node29</title>
<path fill="none" stroke="#191970" d="M399.9957,-46.5C409.6089,-46.5 419.5642,-46.5 429.1069,-46.5"/>
<polygon fill="#191970" stroke="#191970" points="399.7345,-43.0001 389.7345,-46.5 399.7344,-50.0001 399.7345,-43.0001"/>
</g>
<!-- Node30 -->
<g id="node6" class="node">
<title>Node30</title>
<g id="a_node6"><a xlink:href="struct_p_s_b_t_output.html#a9161b9130bab56916fb8fdc88ecb865a" target="_top" xlink:title="PSBTOutput::Serialize">
<polygon fill="#ffffff" stroke="#000000" points="425.5605,-.5 425.5605,-18.5 541.4287,-18.5 541.4287,-.5 425.5605,-.5"/>
<text text-anchor="middle" x="483.4946" y="-6.5" font-family="Helvetica,sans-Serif" font-size="10.00" fill="#000000">PSBTOutput::Serialize</text>
</a>
</g>
</g>
<!-- Node27&#45;&gt;Node30 -->
<g id="edge5" class="edge">
<title>Node27&#45;&gt;Node30</title>
<path fill="none" stroke="#191970" d="M387.1153,-34.869C407.0804,-29.6138 430.3198,-23.4967 448.9759,-18.586"/>
<polygon fill="#191970" stroke="#191970" points="386.0939,-31.5185 377.3143,-37.4488 387.8758,-38.2879 386.0939,-31.5185"/>
</g>
</g>
</svg>
