<?xml version="1.0" encoding="UTF-8" standalone="no"?>
<!DOCTYPE svg PUBLIC "-//W3C//DTD SVG 1.1//EN"
 "http://www.w3.org/Graphics/SVG/1.1/DTD/svg11.dtd">
<!-- Generated by graphviz version 2.40.1 (20161225.0304)
 -->
<!-- Title: CoinControlDialog::setModel Pages: 1 -->
<svg width="480pt" height="37pt"
 viewBox="0.00 0.00 479.87 37.00" xmlns="http://www.w3.org/2000/svg" xmlns:xlink="http://www.w3.org/1999/xlink">
<g id="graph0" class="graph" transform="scale(1 1) rotate(0) translate(4 33)">
<title>CoinControlDialog::setModel</title>
<polygon fill="#ffffff" stroke="transparent" points="-4,4 -4,-33 475.8652,-33 475.8652,4 -4,4"/>
<!-- Node413 -->
<g id="node1" class="node">
<title>Node413</title>
<polygon fill="#bfbfbf" stroke="#000000" points="0,-.5 0,-28.5 102.709,-28.5 102.709,-.5 0,-.5"/>
<text text-anchor="start" x="8" y="-16.5" font-family="Helvetica,sans-Serif" font-size="10.00" fill="#000000">CoinControlDialog::</text>
<text text-anchor="middle" x="51.3545" y="-6.5" font-family="Helvetica,sans-Serif" font-size="10.00" fill="#000000">setModel</text>
</g>
<!-- Node414 -->
<g id="node2" class="node">
<title>Node414</title>
<g id="a_node2"><a xlink:href="class_send_coins_dialog.html#a59d757d9e4bea5b380eb480fd79cfb49" target="_top" xlink:title="SendCoinsDialog::coinControl\lButtonClicked">
<polygon fill="#ffffff" stroke="#000000" points="138.709,-.5 138.709,-28.5 288.1172,-28.5 288.1172,-.5 138.709,-.5"/>
<text text-anchor="start" x="146.709" y="-16.5" font-family="Helvetica,sans-Serif" font-size="10.00" fill="#000000">SendCoinsDialog::coinControl</text>
<text text-anchor="middle" x="213.4131" y="-6.5" font-family="Helvetica,sans-Serif" font-size="10.00" fill="#000000">ButtonClicked</text>
</a>
</g>
</g>
<!-- Node413&#45;&gt;Node414 -->
<g id="edge1" class="edge">
<title>Node413&#45;&gt;Node414</title>
<path fill="none" stroke="#191970" d="M113.3461,-14.5C121.5935,-14.5 130.1197,-14.5 138.5562,-14.5"/>
<polygon fill="#191970" stroke="#191970" points="113.0764,-11.0001 103.0764,-14.5 113.0764,-18.0001 113.0764,-11.0001"/>
</g>
<!-- Node415 -->
<g id="node3" class="node">
<title>Node415</title>
<g id="a_node3"><a xlink:href="class_send_coins_dialog.html#affacd36b4df87a68e2fe706ef388c0a6" target="_top" xlink:title="SendCoinsDialog::SendCoins\lDialog">
<polygon fill="#ffffff" stroke="#000000" points="324.1172,-.5 324.1172,-28.5 471.8652,-28.5 471.8652,-.5 324.1172,-.5"/>
<text text-anchor="start" x="332.1172" y="-16.5" font-family="Helvetica,sans-Serif" font-size="10.00" fill="#000000">SendCoinsDialog::SendCoins</text>
<text text-anchor="middle" x="397.9912" y="-6.5" font-family="Helvetica,sans-Serif" font-size="10.00" fill="#000000">Dialog</text>
</a>
</g>
</g>
<!-- Node414&#45;&gt;Node415 -->
<g id="edge2" class="edge">
<title>Node414&#45;&gt;Node415</title>
<path fill="none" stroke="#191970" d="M298.2471,-14.5C306.8363,-14.5 315.5122,-14.5 323.9746,-14.5"/>
<polygon fill="#191970" stroke="#191970" points="298.222,-11.0001 288.222,-14.5 298.222,-18.0001 298.222,-11.0001"/>
</g>
</g>
</svg>
