<?xml version="1.0" encoding="UTF-8" standalone="no"?>
<!DOCTYPE svg PUBLIC "-//W3C//DTD SVG 1.1//EN"
 "http://www.w3.org/Graphics/SVG/1.1/DTD/svg11.dtd">
<!-- Generated by graphviz version 2.40.1 (20161225.0304)
 -->
<!-- Title: SendCoinsDialog::updateMinFeeLabel Pages: 1 -->
<svg width="877pt" height="37pt"
 viewBox="0.00 0.00 877.35 37.00" xmlns="http://www.w3.org/2000/svg" xmlns:xlink="http://www.w3.org/1999/xlink">
<g id="graph0" class="graph" transform="scale(1 1) rotate(0) translate(4 33)">
<title>SendCoinsDialog::updateMinFeeLabel</title>
<polygon fill="#ffffff" stroke="transparent" points="-4,4 -4,-33 873.3467,-33 873.3467,4 -4,4"/>
<!-- Node985 -->
<g id="node1" class="node">
<title>Node985</title>
<polygon fill="#bfbfbf" stroke="#000000" points="0,-.5 0,-28.5 145.5264,-28.5 145.5264,-.5 0,-.5"/>
<text text-anchor="start" x="8" y="-16.5" font-family="Helvetica,sans-Serif" font-size="10.00" fill="#000000">SendCoinsDialog::updateMin</text>
<text text-anchor="middle" x="72.7632" y="-6.5" font-family="Helvetica,sans-Serif" font-size="10.00" fill="#000000">FeeLabel</text>
</g>
<!-- Node986 -->
<g id="node2" class="node">
<title>Node986</title>
<g id="a_node2"><a xlink:href="class_send_coins_dialog.html#a74815ad8502b126200b6fd2e59e9f042" target="_top" xlink:title="SendCoinsDialog::updateDisplayUnit">
<polygon fill="#ffffff" stroke="#000000" points="181.5264,-5.5 181.5264,-23.5 361.5107,-23.5 361.5107,-5.5 181.5264,-5.5"/>
<text text-anchor="middle" x="271.5186" y="-11.5" font-family="Helvetica,sans-Serif" font-size="10.00" fill="#000000">SendCoinsDialog::updateDisplayUnit</text>
</a>
</g>
</g>
<!-- Node985&#45;&gt;Node986 -->
<g id="edge1" class="edge">
<title>Node985&#45;&gt;Node986</title>
<path fill="none" stroke="#191970" d="M155.8457,-14.5C164.2891,-14.5 172.8937,-14.5 181.4069,-14.5"/>
<polygon fill="#191970" stroke="#191970" points="155.6438,-11.0001 145.6438,-14.5 155.6437,-18.0001 155.6438,-11.0001"/>
</g>
<!-- Node987 -->
<g id="node3" class="node">
<title>Node987</title>
<g id="a_node3"><a xlink:href="class_send_coins_dialog.html#a73a6c1b1850a334ee652ac167713a2aa" target="_top" xlink:title="SendCoinsDialog::setModel">
<polygon fill="#ffffff" stroke="#000000" points="397.5107,-5.5 397.5107,-23.5 536.9141,-23.5 536.9141,-5.5 397.5107,-5.5"/>
<text text-anchor="middle" x="467.2124" y="-11.5" font-family="Helvetica,sans-Serif" font-size="10.00" fill="#000000">SendCoinsDialog::setModel</text>
</a>
</g>
</g>
<!-- Node986&#45;&gt;Node987 -->
<g id="edge2" class="edge">
<title>Node986&#45;&gt;Node987</title>
<path fill="none" stroke="#191970" d="M371.8104,-14.5C380.4841,-14.5 389.1322,-14.5 397.4818,-14.5"/>
<polygon fill="#191970" stroke="#191970" points="371.6328,-11.0001 361.6328,-14.5 371.6328,-18.0001 371.6328,-11.0001"/>
</g>
<!-- Node988 -->
<g id="node4" class="node">
<title>Node988</title>
<g id="a_node4"><a xlink:href="class_wallet_view.html#a0a37ff693a4f9c1e5ddc23f9cd3913be" target="_top" xlink:title="Set the wallet model. ">
<polygon fill="#ffffff" stroke="#000000" points="572.9141,-5.5 572.9141,-23.5 711.3799,-23.5 711.3799,-5.5 572.9141,-5.5"/>
<text text-anchor="middle" x="642.147" y="-11.5" font-family="Helvetica,sans-Serif" font-size="10.00" fill="#000000">WalletView::setWalletModel</text>
</a>
</g>
</g>
<!-- Node987&#45;&gt;Node988 -->
<g id="edge3" class="edge">
<title>Node987&#45;&gt;Node988</title>
<path fill="none" stroke="#191970" d="M547.3448,-14.5C555.7942,-14.5 564.3355,-14.5 572.6504,-14.5"/>
<polygon fill="#191970" stroke="#191970" points="547.1054,-11.0001 537.1054,-14.5 547.1053,-18.0001 547.1054,-11.0001"/>
</g>
<!-- Node989 -->
<g id="node5" class="node">
<title>Node989</title>
<g id="a_node5"><a xlink:href="class_wallet_frame.html#a06cb28194836995e50cc46716b2227ff" target="_top" xlink:title="WalletFrame::addWallet">
<polygon fill="#ffffff" stroke="#000000" points="747.3799,-5.5 747.3799,-23.5 869.3467,-23.5 869.3467,-5.5 747.3799,-5.5"/>
<text text-anchor="middle" x="808.3633" y="-11.5" font-family="Helvetica,sans-Serif" font-size="10.00" fill="#000000">WalletFrame::addWallet</text>
</a>
</g>
</g>
<!-- Node988&#45;&gt;Node989 -->
<g id="edge4" class="edge">
<title>Node988&#45;&gt;Node989</title>
<path fill="none" stroke="#191970" d="M721.725,-14.5C730.3251,-14.5 738.9757,-14.5 747.3075,-14.5"/>
<polygon fill="#191970" stroke="#191970" points="721.6746,-11.0001 711.6746,-14.5 721.6745,-18.0001 721.6746,-11.0001"/>
</g>
</g>
</svg>
