<?xml version="1.0" encoding="UTF-8" standalone="no"?>
<!DOCTYPE svg PUBLIC "-//W3C//DTD SVG 1.1//EN"
 "http://www.w3.org/Graphics/SVG/1.1/DTD/svg11.dtd">
<!-- Generated by graphviz version 2.40.1 (20161225.0304)
 -->
<!-- Title: PlatformStyle::getUseExtraSpacing Pages: 1 -->
<svg width="348pt" height="74pt"
 viewBox="0.00 0.00 348.36 74.00" xmlns="http://www.w3.org/2000/svg" xmlns:xlink="http://www.w3.org/1999/xlink">
<g id="graph0" class="graph" transform="scale(1 1) rotate(0) translate(4 70)">
<title>PlatformStyle::getUseExtraSpacing</title>
<polygon fill="#ffffff" stroke="transparent" points="-4,4 -4,-70 344.3584,-70 344.3584,4 -4,4"/>
<!-- Node16 -->
<g id="node1" class="node">
<title>Node16</title>
<polygon fill="#bfbfbf" stroke="#000000" points="0,-16.5 0,-44.5 136.0439,-44.5 136.0439,-16.5 0,-16.5"/>
<text text-anchor="start" x="8" y="-32.5" font-family="Helvetica,sans-Serif" font-size="10.00" fill="#000000">PlatformStyle::getUseExtra</text>
<text text-anchor="middle" x="68.022" y="-22.5" font-family="Helvetica,sans-Serif" font-size="10.00" fill="#000000">Spacing</text>
</g>
<!-- Node17 -->
<g id="node2" class="node">
<title>Node17</title>
<g id="a_node2"><a xlink:href="class_send_coins_entry.html#a6eae20cd564011773931fc724f4d787c" target="_top" xlink:title="SendCoinsEntry::SendCoins\lEntry">
<polygon fill="#ffffff" stroke="#000000" points="184.832,-37.5 184.832,-65.5 327.5703,-65.5 327.5703,-37.5 184.832,-37.5"/>
<text text-anchor="start" x="192.832" y="-53.5" font-family="Helvetica,sans-Serif" font-size="10.00" fill="#000000">SendCoinsEntry::SendCoins</text>
<text text-anchor="middle" x="256.2012" y="-43.5" font-family="Helvetica,sans-Serif" font-size="10.00" fill="#000000">Entry</text>
</a>
</g>
</g>
<!-- Node16&#45;&gt;Node17 -->
<g id="edge1" class="edge">
<title>Node16&#45;&gt;Node17</title>
<path fill="none" stroke="#191970" d="M146.3313,-39.239C159.062,-40.6597 172.1895,-42.1247 184.7453,-43.5258"/>
<polygon fill="#191970" stroke="#191970" points="146.5516,-35.7419 136.225,-38.1112 145.7751,-42.6987 146.5516,-35.7419"/>
</g>
<!-- Node18 -->
<g id="node3" class="node">
<title>Node18</title>
<g id="a_node3"><a xlink:href="class_transaction_view.html#a6bad80e62c684ad1e77250510c9323aa" target="_top" xlink:title="TransactionView::TransactionView">
<polygon fill="#ffffff" stroke="#000000" points="172.0439,-.5 172.0439,-18.5 340.3584,-18.5 340.3584,-.5 172.0439,-.5"/>
<text text-anchor="middle" x="256.2012" y="-6.5" font-family="Helvetica,sans-Serif" font-size="10.00" fill="#000000">TransactionView::TransactionView</text>
</a>
</g>
</g>
<!-- Node16&#45;&gt;Node18 -->
<g id="edge2" class="edge">
<title>Node16&#45;&gt;Node18</title>
<path fill="none" stroke="#191970" d="M146.1876,-21.777C155.8447,-20.6994 165.7323,-19.5959 175.4274,-18.514"/>
<polygon fill="#191970" stroke="#191970" points="145.7751,-18.3013 136.225,-22.8888 146.5516,-25.2581 145.7751,-18.3013"/>
</g>
</g>
</svg>
