<?xml version="1.0" encoding="UTF-8" standalone="no"?>
<!DOCTYPE svg PUBLIC "-//W3C//DTD SVG 1.1//EN"
 "http://www.w3.org/Graphics/SVG/1.1/DTD/svg11.dtd">
<!-- Generated by graphviz version 2.40.1 (20161225.0304)
 -->
<!-- Title: TransactionTableModel::updateAmountColumnTitle Pages: 1 -->
<svg width="463pt" height="37pt"
 viewBox="0.00 0.00 463.19 37.00" xmlns="http://www.w3.org/2000/svg" xmlns:xlink="http://www.w3.org/1999/xlink">
<g id="graph0" class="graph" transform="scale(1 1) rotate(0) translate(4 33)">
<title>TransactionTableModel::updateAmountColumnTitle</title>
<polygon fill="#ffffff" stroke="transparent" points="-4,4 -4,-33 459.1904,-33 459.1904,4 -4,4"/>
<!-- Node345 -->
<g id="node1" class="node">
<title>Node345</title>
<polygon fill="#bfbfbf" stroke="#000000" points="0,-.5 0,-28.5 139.5889,-28.5 139.5889,-.5 0,-.5"/>
<text text-anchor="start" x="8" y="-16.5" font-family="Helvetica,sans-Serif" font-size="10.00" fill="#000000">TransactionTableModel</text>
<text text-anchor="middle" x="69.7944" y="-6.5" font-family="Helvetica,sans-Serif" font-size="10.00" fill="#000000">::updateAmountColumnTitle</text>
</g>
<!-- Node346 -->
<g id="node2" class="node">
<title>Node346</title>
<g id="a_node2"><a xlink:href="class_transaction_table_model.html#a8b73ff7d72ec2dd69790bc61bbe8575e" target="_top" xlink:title="TransactionTableModel\l::updateDisplayUnit">
<polygon fill="#ffffff" stroke="#000000" points="175.5889,-.5 175.5889,-28.5 294.6113,-28.5 294.6113,-.5 175.5889,-.5"/>
<text text-anchor="start" x="183.5889" y="-16.5" font-family="Helvetica,sans-Serif" font-size="10.00" fill="#000000">TransactionTableModel</text>
<text text-anchor="middle" x="235.1001" y="-6.5" font-family="Helvetica,sans-Serif" font-size="10.00" fill="#000000">::updateDisplayUnit</text>
</a>
</g>
</g>
<!-- Node345&#45;&gt;Node346 -->
<g id="edge1" class="edge">
<title>Node345&#45;&gt;Node346</title>
<path fill="none" stroke="#191970" d="M149.9837,-14.5C158.6077,-14.5 167.2675,-14.5 175.587,-14.5"/>
<polygon fill="#191970" stroke="#191970" points="149.899,-11.0001 139.8989,-14.5 149.8989,-18.0001 149.899,-11.0001"/>
</g>
<!-- Node347 -->
<g id="node3" class="node">
<title>Node347</title>
<g id="a_node3"><a xlink:href="class_transaction_table_model.html#addebfd4c35896f17a6a9fec9f40eeeb7" target="_top" xlink:title="TransactionTableModel\l::TransactionTableModel">
<polygon fill="#ffffff" stroke="#000000" points="330.6113,-.5 330.6113,-28.5 455.1904,-28.5 455.1904,-.5 330.6113,-.5"/>
<text text-anchor="start" x="338.6113" y="-16.5" font-family="Helvetica,sans-Serif" font-size="10.00" fill="#000000">TransactionTableModel</text>
<text text-anchor="middle" x="392.9009" y="-6.5" font-family="Helvetica,sans-Serif" font-size="10.00" fill="#000000">::TransactionTableModel</text>
</a>
</g>
</g>
<!-- Node346&#45;&gt;Node347 -->
<g id="edge2" class="edge">
<title>Node346&#45;&gt;Node347</title>
<path fill="none" stroke="#191970" d="M305.0234,-14.5C313.5187,-14.5 322.1546,-14.5 330.5303,-14.5"/>
<polygon fill="#191970" stroke="#191970" points="304.7578,-11.0001 294.7578,-14.5 304.7578,-18.0001 304.7578,-11.0001"/>
</g>
</g>
</svg>
