<?xml version="1.0" encoding="UTF-8" standalone="no"?>
<!DOCTYPE svg PUBLIC "-//W3C//DTD SVG 1.1//EN"
 "http://www.w3.org/Graphics/SVG/1.1/DTD/svg11.dtd">
<!-- Generated by graphviz version 2.40.1 (20161225.0304)
 -->
<!-- Title: BitcoinGUI::toggleHidden Pages: 1 -->
<svg width="303pt" height="55pt"
 viewBox="0.00 0.00 302.76 55.00" xmlns="http://www.w3.org/2000/svg" xmlns:xlink="http://www.w3.org/1999/xlink">
<g id="graph0" class="graph" transform="scale(1 1) rotate(0) translate(4 51)">
<title>BitcoinGUI::toggleHidden</title>
<polygon fill="#ffffff" stroke="transparent" points="-4,4 -4,-51 298.7627,-51 298.7627,4 -4,4"/>
<!-- Node460 -->
<g id="node1" class="node">
<title>Node460</title>
<polygon fill="#bfbfbf" stroke="#000000" points="0,-5.5 0,-23.5 128.2852,-23.5 128.2852,-5.5 0,-5.5"/>
<text text-anchor="middle" x="64.1426" y="-11.5" font-family="Helvetica,sans-Serif" font-size="10.00" fill="#000000">BitcoinGUI::toggleHidden</text>
</g>
<!-- Node461 -->
<g id="node2" class="node">
<title>Node461</title>
<g id="a_node2"><a xlink:href="class_bitcoin_g_u_i.html#aca9a193e0484c1caf924e76d96800a9f" target="_top" xlink:title="Show window if hidden, unminimize when minimized, rise when obscured or show if hidden and fToggleHid...">
<polygon fill="#ffffff" stroke="#000000" points="164.2852,-.5 164.2852,-28.5 294.7627,-28.5 294.7627,-.5 164.2852,-.5"/>
<text text-anchor="start" x="172.2852" y="-16.5" font-family="Helvetica,sans-Serif" font-size="10.00" fill="#000000">BitcoinGUI::showNormalIf</text>
<text text-anchor="middle" x="229.5239" y="-6.5" font-family="Helvetica,sans-Serif" font-size="10.00" fill="#000000">Minimized</text>
</a>
</g>
</g>
<!-- Node460&#45;&gt;Node461 -->
<g id="edge1" class="edge">
<title>Node460&#45;&gt;Node461</title>
<path fill="none" stroke="#191970" d="M128.5569,-14.5C136.8747,-14.5 145.4522,-14.5 153.9295,-14.5"/>
<polygon fill="#191970" stroke="#191970" points="154.1961,-18.0001 164.1961,-14.5 154.1961,-11.0001 154.1961,-18.0001"/>
</g>
<!-- Node461&#45;&gt;Node461 -->
<g id="edge2" class="edge">
<title>Node461&#45;&gt;Node461</title>
<path fill="none" stroke="#191970" d="M201.4841,-28.5305C193.5914,-37.8898 202.938,-47 229.5239,-47 246.1401,-47 256.0222,-43.4413 259.1702,-38.4873"/>
<polygon fill="#191970" stroke="#191970" points="262.612,-37.8453 257.5638,-28.5305 255.7014,-38.9603 262.612,-37.8453"/>
</g>
</g>
</svg>
