<?xml version="1.0" encoding="UTF-8" standalone="no"?>
<!DOCTYPE svg PUBLIC "-//W3C//DTD SVG 1.1//EN"
 "http://www.w3.org/Graphics/SVG/1.1/DTD/svg11.dtd">
<!-- Generated by graphviz version 2.40.1 (20161225.0304)
 -->
<!-- Title: AmountSpinBox::parse Pages: 1 -->
<svg width="463pt" height="101pt"
 viewBox="0.00 0.00 462.59 101.00" xmlns="http://www.w3.org/2000/svg" xmlns:xlink="http://www.w3.org/1999/xlink">
<g id="graph0" class="graph" transform="scale(1 1) rotate(0) translate(4 97)">
<title>AmountSpinBox::parse</title>
<polygon fill="#ffffff" stroke="transparent" points="-4,4 -4,-97 458.5947,-97 458.5947,4 -4,4"/>
<!-- Node21 -->
<g id="node1" class="node">
<title>Node21</title>
<polygon fill="#bfbfbf" stroke="#000000" points="0,-18.5 0,-36.5 118.2803,-36.5 118.2803,-18.5 0,-18.5"/>
<text text-anchor="middle" x="59.1401" y="-24.5" font-family="Helvetica,sans-Serif" font-size="10.00" fill="#000000">AmountSpinBox::parse</text>
</g>
<!-- Node22 -->
<g id="node2" class="node">
<title>Node22</title>
<g id="a_node2"><a xlink:href="class_bitcoin_units.html#a23b5ed29b71bd5039776e8f3a87d668d" target="_top" xlink:title="Parse string to coin amount. ">
<polygon fill="#ffffff" stroke="#000000" points="166.2261,-37.5 166.2261,-55.5 265.5952,-55.5 265.5952,-37.5 166.2261,-37.5"/>
<text text-anchor="middle" x="215.9106" y="-43.5" font-family="Helvetica,sans-Serif" font-size="10.00" fill="#000000">BitcoinUnits::parse</text>
</a>
</g>
</g>
<!-- Node21&#45;&gt;Node22 -->
<g id="edge1" class="edge">
<title>Node21&#45;&gt;Node22</title>
<path fill="none" stroke="#191970" d="M118.4083,-34.6831C130.6694,-36.1691 143.5951,-37.7356 155.8831,-39.2249"/>
<polygon fill="#191970" stroke="#191970" points="155.6779,-42.7255 166.0264,-40.4542 156.5202,-35.7764 155.6779,-42.7255"/>
</g>
<!-- Node26 -->
<g id="node6" class="node">
<title>Node26</title>
<g id="a_node6"><a xlink:href="class_bitcoin_units.html#a310bc10d6973f335b5757a341909b7fe" target="_top" xlink:title="Return maximum number of base units (Satoshis) ">
<polygon fill="#ffffff" stroke="#000000" points="154.2803,-.5 154.2803,-18.5 277.541,-18.5 277.541,-.5 154.2803,-.5"/>
<text text-anchor="middle" x="215.9106" y="-6.5" font-family="Helvetica,sans-Serif" font-size="10.00" fill="#000000">BitcoinUnits::maxMoney</text>
</a>
</g>
</g>
<!-- Node21&#45;&gt;Node26 -->
<g id="edge5" class="edge">
<title>Node21&#45;&gt;Node26</title>
<path fill="none" stroke="#191970" d="M118.4083,-20.695C126.8218,-19.729 135.5481,-18.727 144.1666,-17.7375"/>
<polygon fill="#191970" stroke="#191970" points="144.6738,-21.2023 154.2092,-16.5844 143.8752,-14.248 144.6738,-21.2023"/>
</g>
<!-- Node23 -->
<g id="node3" class="node">
<title>Node23</title>
<g id="a_node3"><a xlink:href="class_bitcoin_units.html#a81cbc41480adfb600dad79711d336e5f" target="_top" xlink:title="Is unit ID valid? ">
<polygon fill="#ffffff" stroke="#000000" points="336.6074,-74.5 336.6074,-92.5 431.5283,-92.5 431.5283,-74.5 336.6074,-74.5"/>
<text text-anchor="middle" x="384.0679" y="-80.5" font-family="Helvetica,sans-Serif" font-size="10.00" fill="#000000">BitcoinUnits::valid</text>
</a>
</g>
</g>
<!-- Node22&#45;&gt;Node23 -->
<g id="edge2" class="edge">
<title>Node22&#45;&gt;Node23</title>
<path fill="none" stroke="#191970" d="M257.0465,-55.5512C280.0346,-60.6093 308.8772,-66.9556 333.2656,-72.3219"/>
<polygon fill="#191970" stroke="#191970" points="332.547,-75.7474 343.0656,-74.4782 334.0513,-68.9109 332.547,-75.7474"/>
</g>
<!-- Node24 -->
<g id="node4" class="node">
<title>Node24</title>
<g id="a_node4"><a xlink:href="class_bitcoin_units.html#a3f0fc21634520ea06c684ba0d7e25f2f" target="_top" xlink:title="Number of decimals left. ">
<polygon fill="#ffffff" stroke="#000000" points="327.1616,-37.5 327.1616,-55.5 440.9741,-55.5 440.9741,-37.5 327.1616,-37.5"/>
<text text-anchor="middle" x="384.0679" y="-43.5" font-family="Helvetica,sans-Serif" font-size="10.00" fill="#000000">BitcoinUnits::decimals</text>
</a>
</g>
</g>
<!-- Node22&#45;&gt;Node24 -->
<g id="edge3" class="edge">
<title>Node22&#45;&gt;Node24</title>
<path fill="none" stroke="#191970" d="M265.9081,-46.5C281.7824,-46.5 299.6077,-46.5 316.5064,-46.5"/>
<polygon fill="#191970" stroke="#191970" points="316.8827,-50.0001 326.8827,-46.5 316.8827,-43.0001 316.8827,-50.0001"/>
</g>
<!-- Node25 -->
<g id="node5" class="node">
<title>Node25</title>
<g id="a_node5"><a xlink:href="class_bitcoin_units.html#a9354c3d913372b03101a23dc9cd18023" target="_top" xlink:title="BitcoinUnits::removeSpaces">
<polygon fill="#ffffff" stroke="#000000" points="313.541,-.5 313.541,-18.5 454.5947,-18.5 454.5947,-.5 313.541,-.5"/>
<text text-anchor="middle" x="384.0679" y="-6.5" font-family="Helvetica,sans-Serif" font-size="10.00" fill="#000000">BitcoinUnits::removeSpaces</text>
</a>
</g>
</g>
<!-- Node22&#45;&gt;Node25 -->
<g id="edge4" class="edge">
<title>Node22&#45;&gt;Node25</title>
<path fill="none" stroke="#191970" d="M257.0465,-37.4488C280.0346,-32.3907 308.8772,-26.0444 333.2656,-20.6781"/>
<polygon fill="#191970" stroke="#191970" points="334.0513,-24.0891 343.0656,-18.5218 332.547,-17.2526 334.0513,-24.0891"/>
</g>
</g>
</svg>
