<?xml version="1.0" encoding="UTF-8" standalone="no"?>
<!DOCTYPE svg PUBLIC "-//W3C//DTD SVG 1.1//EN"
 "http://www.w3.org/Graphics/SVG/1.1/DTD/svg11.dtd">
<!-- Generated by graphviz version 2.40.1 (20161225.0304)
 -->
<!-- Title: CoinControlDialog::lockCoin Pages: 1 -->
<svg width="467pt" height="197pt"
 viewBox="0.00 0.00 467.04 197.00" xmlns="http://www.w3.org/2000/svg" xmlns:xlink="http://www.w3.org/1999/xlink">
<g id="graph0" class="graph" transform="scale(1 1) rotate(0) translate(4 193)">
<title>CoinControlDialog::lockCoin</title>
<polygon fill="#ffffff" stroke="transparent" points="-4,4 -4,-193 463.0381,-193 463.0381,4 -4,4"/>
<!-- Node210 -->
<g id="node1" class="node">
<title>Node210</title>
<polygon fill="#bfbfbf" stroke="#000000" points="0,-84.5 0,-112.5 102.709,-112.5 102.709,-84.5 0,-84.5"/>
<text text-anchor="start" x="8" y="-100.5" font-family="Helvetica,sans-Serif" font-size="10.00" fill="#000000">CoinControlDialog::</text>
<text text-anchor="middle" x="51.3545" y="-90.5" font-family="Helvetica,sans-Serif" font-size="10.00" fill="#000000">lockCoin</text>
</g>
<!-- Node211 -->
<g id="node2" class="node">
<title>Node211</title>
<g id="a_node2"><a xlink:href="uint256_8h.html#a52e679560cc1ebf68f878ed69e38f259" target="_top" xlink:title="uint256S">
<polygon fill="#ffffff" stroke="#000000" points="186.7778,-170.5 186.7778,-188.5 242.2554,-188.5 242.2554,-170.5 186.7778,-170.5"/>
<text text-anchor="middle" x="214.5166" y="-176.5" font-family="Helvetica,sans-Serif" font-size="10.00" fill="#000000">uint256S</text>
</a>
</g>
</g>
<!-- Node210&#45;&gt;Node211 -->
<g id="edge1" class="edge">
<title>Node210&#45;&gt;Node211</title>
<path fill="none" stroke="#191970" d="M69.5716,-112.5052C86.6697,-125.1231 113.3424,-143.4843 138.709,-155.5 150.7191,-161.189 164.4162,-165.9931 176.8333,-169.7734"/>
<polygon fill="#191970" stroke="#191970" points="175.8803,-173.1413 186.4604,-172.583 177.8414,-166.4216 175.8803,-173.1413"/>
</g>
<!-- Node213 -->
<g id="node4" class="node">
<title>Node213</title>
<g id="a_node4"><a xlink:href="class_wallet_model.html#aa3a3b4a8064de3af096dbf64bfe12655" target="_top" xlink:title="WalletModel::wallet">
<polygon fill="#ffffff" stroke="#000000" points="341.793,-108.5 341.793,-126.5 443.5693,-126.5 443.5693,-108.5 341.793,-108.5"/>
<text text-anchor="middle" x="392.6812" y="-114.5" font-family="Helvetica,sans-Serif" font-size="10.00" fill="#000000">WalletModel::wallet</text>
</a>
</g>
</g>
<!-- Node210&#45;&gt;Node213 -->
<g id="edge3" class="edge">
<title>Node210&#45;&gt;Node213</title>
<path fill="none" stroke="#191970" d="M93.5346,-112.5413C107.7209,-116.6024 123.7459,-120.4819 138.709,-122.5 204.0619,-131.3143 279.719,-128.1257 331.3457,-123.9489"/>
<polygon fill="#191970" stroke="#191970" points="331.671,-127.434 341.3405,-123.1036 331.0811,-120.4589 331.671,-127.434"/>
</g>
<!-- Node214 -->
<g id="node5" class="node">
<title>Node214</title>
<g id="a_node5"><a xlink:href="classinterfaces_1_1_wallet.html#af342a6619d7b64b4d6118c2b6cc30ceb" target="_top" xlink:title="Lock coin. ">
<polygon fill="#ffffff" stroke="#000000" points="168.3525,-84.5 168.3525,-112.5 260.6807,-112.5 260.6807,-84.5 168.3525,-84.5"/>
<text text-anchor="start" x="176.3525" y="-100.5" font-family="Helvetica,sans-Serif" font-size="10.00" fill="#000000">interfaces::Wallet</text>
<text text-anchor="middle" x="214.5166" y="-90.5" font-family="Helvetica,sans-Serif" font-size="10.00" fill="#000000">::lockCoin</text>
</a>
</g>
</g>
<!-- Node210&#45;&gt;Node214 -->
<g id="edge4" class="edge">
<title>Node210&#45;&gt;Node214</title>
<path fill="none" stroke="#191970" d="M102.98,-98.5C120.5437,-98.5 140.2587,-98.5 158.1727,-98.5"/>
<polygon fill="#191970" stroke="#191970" points="158.1974,-102.0001 168.1973,-98.5 158.1973,-95.0001 158.1974,-102.0001"/>
</g>
<!-- Node215 -->
<g id="node6" class="node">
<title>Node215</title>
<g id="a_node6"><a xlink:href="class_platform_style.html#a3f4ff8b7a2054cbd4283e67208523035" target="_top" xlink:title="Colorize an icon (given filename) with the icon color. ">
<polygon fill="#ffffff" stroke="#000000" points="138.709,-.5 138.709,-18.5 290.3242,-18.5 290.3242,-.5 138.709,-.5"/>
<text text-anchor="middle" x="214.5166" y="-6.5" font-family="Helvetica,sans-Serif" font-size="10.00" fill="#000000">PlatformStyle::SingleColorIcon</text>
</a>
</g>
</g>
<!-- Node210&#45;&gt;Node215 -->
<g id="edge5" class="edge">
<title>Node210&#45;&gt;Node215</title>
<path fill="none" stroke="#191970" d="M64.7841,-84.2431C80.8405,-68.0537 109.2573,-42.0114 138.709,-27.5 143.1038,-25.3346 147.7724,-23.4216 152.5495,-21.733"/>
<polygon fill="#191970" stroke="#191970" points="153.9912,-24.9469 162.4542,-18.5729 151.8635,-18.2781 153.9912,-24.9469"/>
</g>
<!-- Node217 -->
<g id="node8" class="node">
<title>Node217</title>
<g id="a_node8"><a xlink:href="class_coin_control_dialog.html#acedbd41abf3490c556afbebde2ba6b49" target="_top" xlink:title="CoinControlDialog::\lupdateLabelLocked">
<polygon fill="#ffffff" stroke="#000000" points="162.8667,-37.5 162.8667,-65.5 266.1665,-65.5 266.1665,-37.5 162.8667,-37.5"/>
<text text-anchor="start" x="170.8667" y="-53.5" font-family="Helvetica,sans-Serif" font-size="10.00" fill="#000000">CoinControlDialog::</text>
<text text-anchor="middle" x="214.5166" y="-43.5" font-family="Helvetica,sans-Serif" font-size="10.00" fill="#000000">updateLabelLocked</text>
</a>
</g>
</g>
<!-- Node210&#45;&gt;Node217 -->
<g id="edge7" class="edge">
<title>Node210&#45;&gt;Node217</title>
<path fill="none" stroke="#191970" d="M100.3085,-84.3985C117.893,-79.3331 137.8988,-73.5703 156.2001,-68.2985"/>
<polygon fill="#191970" stroke="#191970" points="157.238,-71.6419 165.8785,-65.5106 155.3004,-64.9154 157.238,-71.6419"/>
</g>
<!-- Node212 -->
<g id="node3" class="node">
<title>Node212</title>
<g id="a_node3"><a xlink:href="classbase__blob.html#a5ec1f681a2830f4e180fe664c0eb4dd0" target="_top" xlink:title="base_blob::SetHex">
<polygon fill="#ffffff" stroke="#000000" points="342.4302,-170.5 342.4302,-188.5 442.9321,-188.5 442.9321,-170.5 342.4302,-170.5"/>
<text text-anchor="middle" x="392.6812" y="-176.5" font-family="Helvetica,sans-Serif" font-size="10.00" fill="#000000">base_blob::SetHex</text>
</a>
</g>
</g>
<!-- Node211&#45;&gt;Node212 -->
<g id="edge2" class="edge">
<title>Node211&#45;&gt;Node212</title>
<path fill="none" stroke="#191970" d="M242.3548,-179.5C266.2715,-179.5 301.6034,-179.5 332.0053,-179.5"/>
<polygon fill="#191970" stroke="#191970" points="332.1029,-183.0001 342.1029,-179.5 332.1029,-176.0001 332.1029,-183.0001"/>
</g>
<!-- Node216 -->
<g id="node7" class="node">
<title>Node216</title>
<g id="a_node7"><a xlink:href="class_platform_style.html#a76949291f8dfc8b7a34f90cf119ed8e4" target="_top" xlink:title="PlatformStyle::SingleColor">
<polygon fill="#ffffff" stroke="#000000" points="326.3242,-.5 326.3242,-18.5 459.0381,-18.5 459.0381,-.5 326.3242,-.5"/>
<text text-anchor="middle" x="392.6812" y="-6.5" font-family="Helvetica,sans-Serif" font-size="10.00" fill="#000000">PlatformStyle::SingleColor</text>
</a>
</g>
</g>
<!-- Node215&#45;&gt;Node216 -->
<g id="edge6" class="edge">
<title>Node215&#45;&gt;Node216</title>
<path fill="none" stroke="#191970" d="M290.3328,-9.5C298.8168,-9.5 307.465,-9.5 315.9603,-9.5"/>
<polygon fill="#191970" stroke="#191970" points="316.2255,-13.0001 326.2255,-9.5 316.2254,-6.0001 316.2255,-13.0001"/>
</g>
<!-- Node217&#45;&gt;Node213 -->
<g id="edge8" class="edge">
<title>Node217&#45;&gt;Node213</title>
<path fill="none" stroke="#191970" d="M261.2268,-65.6195C270.8961,-68.7292 280.9805,-72.1105 290.3242,-75.5 314.9971,-84.4502 342.4922,-95.8115 362.7677,-104.4602"/>
<polygon fill="#191970" stroke="#191970" points="361.5274,-107.7366 372.0971,-108.4655 364.289,-101.3043 361.5274,-107.7366"/>
</g>
<!-- Node218 -->
<g id="node9" class="node">
<title>Node218</title>
<g id="a_node9"><a xlink:href="classinterfaces_1_1_wallet.html#ab14176a631f9e036724de2e5c70dd721" target="_top" xlink:title="List locked coins. ">
<polygon fill="#ffffff" stroke="#000000" points="346.5171,-37.5 346.5171,-65.5 438.8452,-65.5 438.8452,-37.5 346.5171,-37.5"/>
<text text-anchor="start" x="354.5171" y="-53.5" font-family="Helvetica,sans-Serif" font-size="10.00" fill="#000000">interfaces::Wallet</text>
<text text-anchor="middle" x="392.6812" y="-43.5" font-family="Helvetica,sans-Serif" font-size="10.00" fill="#000000">::listLockedCoins</text>
</a>
</g>
</g>
<!-- Node217&#45;&gt;Node218 -->
<g id="edge9" class="edge">
<title>Node217&#45;&gt;Node218</title>
<path fill="none" stroke="#191970" d="M266.5281,-51.5C288.4391,-51.5 313.9919,-51.5 336.3479,-51.5"/>
<polygon fill="#191970" stroke="#191970" points="336.3701,-55.0001 346.3701,-51.5 336.37,-48.0001 336.3701,-55.0001"/>
</g>
</g>
</svg>
