<?xml version="1.0" encoding="UTF-8" standalone="no"?>
<!DOCTYPE svg PUBLIC "-//W3C//DTD SVG 1.1//EN"
 "http://www.w3.org/Graphics/SVG/1.1/DTD/svg11.dtd">
<!-- Generated by graphviz version 2.40.1 (20161225.0304)
 -->
<!-- Title: SendCoinsDialog::coinControlUpdateLabels Pages: 1 -->
<svg width="1259pt" height="450pt"
 viewBox="0.00 0.00 1258.56 450.00" xmlns="http://www.w3.org/2000/svg" xmlns:xlink="http://www.w3.org/1999/xlink">
<g id="graph0" class="graph" transform="scale(1 1) rotate(0) translate(4 446)">
<title>SendCoinsDialog::coinControlUpdateLabels</title>
<polygon fill="#ffffff" stroke="transparent" points="-4,4 -4,-446 1254.5615,-446 1254.5615,4 -4,4"/>
<!-- Node429 -->
<g id="node1" class="node">
<title>Node429</title>
<polygon fill="#bfbfbf" stroke="#000000" points="0,-333.5 0,-361.5 149.4082,-361.5 149.4082,-333.5 0,-333.5"/>
<text text-anchor="start" x="8" y="-349.5" font-family="Helvetica,sans-Serif" font-size="10.00" fill="#000000">SendCoinsDialog::coinControl</text>
<text text-anchor="middle" x="74.7041" y="-339.5" font-family="Helvetica,sans-Serif" font-size="10.00" fill="#000000">UpdateLabels</text>
</g>
<!-- Node430 -->
<g id="node2" class="node">
<title>Node430</title>
<g id="a_node2"><a xlink:href="class_wallet_model.html#a96d53e56b3f8f07537ea2523f7a7d300" target="_top" xlink:title="WalletModel::getOptionsModel">
<polygon fill="#ffffff" stroke="#000000" points="185.4082,-423.5 185.4082,-441.5 337.2188,-441.5 337.2188,-423.5 185.4082,-423.5"/>
<text text-anchor="middle" x="261.3135" y="-429.5" font-family="Helvetica,sans-Serif" font-size="10.00" fill="#000000">WalletModel::getOptionsModel</text>
</a>
</g>
</g>
<!-- Node429&#45;&gt;Node430 -->
<g id="edge1" class="edge">
<title>Node429&#45;&gt;Node430</title>
<path fill="none" stroke="#191970" d="M93.7202,-361.5559C115.0309,-376.6833 151.1034,-400.4573 185.4082,-414.5 191.166,-416.857 197.3015,-418.9476 203.4939,-420.7917"/>
<polygon fill="#191970" stroke="#191970" points="202.6536,-424.1907 213.2252,-423.4893 204.5237,-417.4451 202.6536,-424.1907"/>
</g>
<!-- Node431 -->
<g id="node3" class="node">
<title>Node431</title>
<g id="a_node3"><a xlink:href="class_send_coins_dialog.html#a91c32dd9656813960ca6d076adedd1e0" target="_top" xlink:title="SendCoinsDialog::updateCoin\lControlState">
<polygon fill="#ffffff" stroke="#000000" points="186.3237,-376.5 186.3237,-404.5 336.3032,-404.5 336.3032,-376.5 186.3237,-376.5"/>
<text text-anchor="start" x="194.3237" y="-392.5" font-family="Helvetica,sans-Serif" font-size="10.00" fill="#000000">SendCoinsDialog::updateCoin</text>
<text text-anchor="middle" x="261.3135" y="-382.5" font-family="Helvetica,sans-Serif" font-size="10.00" fill="#000000">ControlState</text>
</a>
</g>
</g>
<!-- Node429&#45;&gt;Node431 -->
<g id="edge2" class="edge">
<title>Node429&#45;&gt;Node431</title>
<path fill="none" stroke="#191970" d="M135.5488,-361.5203C153.138,-365.5734 172.4855,-370.0315 190.6202,-374.2103"/>
<polygon fill="#191970" stroke="#191970" points="190.0209,-377.6638 200.5515,-376.4987 191.5927,-370.8426 190.0209,-377.6638"/>
</g>
<!-- Node433 -->
<g id="node5" class="node">
<title>Node433</title>
<g id="a_node5"><a xlink:href="class_coin_control_dialog.html#ad6c08e81a0cfc70cbf6e40f65857ab98" target="_top" xlink:title="CoinControlDialog::\lcoinControl">
<polygon fill="#ffffff" stroke="#000000" points="389.8936,-355.5 389.8936,-383.5 492.6025,-383.5 492.6025,-355.5 389.8936,-355.5"/>
<text text-anchor="start" x="397.8936" y="-371.5" font-family="Helvetica,sans-Serif" font-size="10.00" fill="#000000">CoinControlDialog::</text>
<text text-anchor="middle" x="441.248" y="-361.5" font-family="Helvetica,sans-Serif" font-size="10.00" fill="#000000">coinControl</text>
</a>
</g>
</g>
<!-- Node429&#45;&gt;Node433 -->
<g id="edge4" class="edge">
<title>Node429&#45;&gt;Node433</title>
<path fill="none" stroke="#191970" d="M149.7642,-352.0051C217.6179,-356.0777 316.3035,-362.0008 379.6373,-365.8021"/>
<polygon fill="#191970" stroke="#191970" points="379.6828,-369.3111 389.8746,-366.4166 380.1023,-362.3236 379.6828,-369.3111"/>
</g>
<!-- Node434 -->
<g id="node6" class="node">
<title>Node434</title>
<g id="a_node6"><a xlink:href="class_send_coins_entry.html#af36fb0ed9e2e07079c1a982b31e793c8" target="_top" xlink:title="SendCoinsEntry::getValue">
<polygon fill="#ffffff" stroke="#000000" points="195.0347,-212.5 195.0347,-230.5 327.5923,-230.5 327.5923,-212.5 195.0347,-212.5"/>
<text text-anchor="middle" x="261.3135" y="-218.5" font-family="Helvetica,sans-Serif" font-size="10.00" fill="#000000">SendCoinsEntry::getValue</text>
</a>
</g>
</g>
<!-- Node429&#45;&gt;Node434 -->
<g id="edge5" class="edge">
<title>Node429&#45;&gt;Node434</title>
<path fill="none" stroke="#191970" d="M85.2591,-333.2877C103.1973,-310.1823 141.9412,-264.633 185.4082,-240.5 189.9678,-237.9685 194.8669,-235.769 199.9011,-233.8588"/>
<polygon fill="#191970" stroke="#191970" points="201.3528,-237.0621 209.695,-230.5308 199.1006,-230.4343 201.3528,-237.0621"/>
</g>
<!-- Node435 -->
<g id="node7" class="node">
<title>Node435</title>
<g id="a_node7"><a xlink:href="class_coin_control_dialog.html#a4fc60e89b097952ff22dc0f9c58c87d9" target="_top" xlink:title="CoinControlDialog::\lupdateLabels">
<polygon fill="#ffffff" stroke="#000000" points="209.959,-249.5 209.959,-277.5 312.668,-277.5 312.668,-249.5 209.959,-249.5"/>
<text text-anchor="start" x="217.959" y="-265.5" font-family="Helvetica,sans-Serif" font-size="10.00" fill="#000000">CoinControlDialog::</text>
<text text-anchor="middle" x="261.3135" y="-255.5" font-family="Helvetica,sans-Serif" font-size="10.00" fill="#000000">updateLabels</text>
</a>
</g>
</g>
<!-- Node429&#45;&gt;Node435 -->
<g id="edge6" class="edge">
<title>Node429&#45;&gt;Node435</title>
<path fill="none" stroke="#191970" d="M105.9383,-333.4403C137.4251,-319.2669 186.1712,-297.3244 220.6554,-281.8017"/>
<polygon fill="#191970" stroke="#191970" points="222.2953,-284.9019 229.9774,-277.6056 219.4219,-278.5188 222.2953,-284.9019"/>
</g>
<!-- Node432 -->
<g id="node4" class="node">
<title>Node432</title>
<g id="a_node4"><a xlink:href="sendcoinsdialog_8cpp.html#a71cff9731ecdee1cef8bfc2c12dc3842" target="_top" xlink:title="getConfTargetForIndex">
<polygon fill="#ffffff" stroke="#000000" points="382.1079,-402.5 382.1079,-420.5 500.3882,-420.5 500.3882,-402.5 382.1079,-402.5"/>
<text text-anchor="middle" x="441.248" y="-408.5" font-family="Helvetica,sans-Serif" font-size="10.00" fill="#000000">getConfTargetForIndex</text>
</a>
</g>
</g>
<!-- Node431&#45;&gt;Node432 -->
<g id="edge3" class="edge">
<title>Node431&#45;&gt;Node432</title>
<path fill="none" stroke="#191970" d="M336.319,-399.2538C348.103,-400.6291 360.2394,-402.0455 371.8886,-403.4051"/>
<polygon fill="#191970" stroke="#191970" points="371.6409,-406.8999 381.9792,-404.5828 372.4524,-399.9471 371.6409,-406.8999"/>
</g>
<!-- Node435&#45;&gt;Node433 -->
<g id="edge27" class="edge">
<title>Node435&#45;&gt;Node433</title>
<path fill="none" stroke="#191970" d="M276.9244,-277.5857C297.6317,-295.6551 335.9276,-326.9864 373.2188,-346.5 376.6621,-348.3018 380.2756,-350.0059 383.9667,-351.6093"/>
<polygon fill="#191970" stroke="#191970" points="382.6671,-354.8591 393.2489,-355.3857 385.3052,-348.3752 382.6671,-354.8591"/>
</g>
<!-- Node436 -->
<g id="node8" class="node">
<title>Node436</title>
<g id="a_node8"><a xlink:href="policy_8cpp.html#ab18c1023518f2920e34e05ca324d0ebb" target="_top" xlink:title="IsDust">
<polygon fill="#ffffff" stroke="#000000" points="419.0781,-76.5 419.0781,-94.5 463.418,-94.5 463.418,-76.5 419.0781,-76.5"/>
<text text-anchor="middle" x="441.248" y="-82.5" font-family="Helvetica,sans-Serif" font-size="10.00" fill="#000000">IsDust</text>
</a>
</g>
</g>
<!-- Node435&#45;&gt;Node436 -->
<g id="edge7" class="edge">
<title>Node435&#45;&gt;Node436</title>
<path fill="none" stroke="#191970" d="M312.6957,-255.7019C321.8165,-252.2976 330.525,-247.4354 337.2188,-240.5 380.641,-195.5107 329.3073,-149.0119 373.2188,-104.5 382.5035,-95.0883 396.0336,-90.2341 408.5864,-87.7679"/>
<polygon fill="#191970" stroke="#191970" points="409.4293,-91.1799 418.7864,-86.2104 408.3726,-84.2601 409.4293,-91.1799"/>
</g>
<!-- Node449 -->
<g id="node21" class="node">
<title>Node449</title>
<g id="a_node21"><a xlink:href="class_wallet_model.html#ae61543ccde5a5911137f8e7ecf52126e" target="_top" xlink:title="WalletModel::node">
<polygon fill="#ffffff" stroke="#000000" points="392.02,-318.5 392.02,-336.5 490.4761,-336.5 490.4761,-318.5 392.02,-318.5"/>
<text text-anchor="middle" x="441.248" y="-324.5" font-family="Helvetica,sans-Serif" font-size="10.00" fill="#000000">WalletModel::node</text>
</a>
</g>
</g>
<!-- Node435&#45;&gt;Node449 -->
<g id="edge25" class="edge">
<title>Node435&#45;&gt;Node449</title>
<path fill="none" stroke="#191970" d="M292.2512,-277.5025C314.4899,-287.2497 345.3445,-300.1285 373.2188,-309.5 379.7543,-311.6973 386.7145,-313.8006 393.5946,-315.7446"/>
<polygon fill="#191970" stroke="#191970" points="392.9894,-319.2076 403.5586,-318.4711 394.837,-312.4558 392.9894,-319.2076"/>
</g>
<!-- Node450 -->
<g id="node22" class="node">
<title>Node450</title>
<g id="a_node22"><a xlink:href="classinterfaces_1_1_node.html#af4f0bfc100d1bff9862b55adef983f9d" target="_top" xlink:title="Get dust relay fee. ">
<polygon fill="#ffffff" stroke="#000000" points="376.8296,-271.5 376.8296,-299.5 505.6665,-299.5 505.6665,-271.5 376.8296,-271.5"/>
<text text-anchor="start" x="384.8296" y="-287.5" font-family="Helvetica,sans-Serif" font-size="10.00" fill="#000000">interfaces::Node::getDust</text>
<text text-anchor="middle" x="441.248" y="-277.5" font-family="Helvetica,sans-Serif" font-size="10.00" fill="#000000">RelayFee</text>
</a>
</g>
</g>
<!-- Node435&#45;&gt;Node450 -->
<g id="edge26" class="edge">
<title>Node435&#45;&gt;Node450</title>
<path fill="none" stroke="#191970" d="M312.8755,-269.8043C329.6113,-271.8505 348.5299,-274.1637 366.599,-276.3729"/>
<polygon fill="#191970" stroke="#191970" points="366.1799,-279.8477 376.5308,-277.5872 367.0295,-272.8994 366.1799,-279.8477"/>
</g>
<!-- Node451 -->
<g id="node23" class="node">
<title>Node451</title>
<g id="a_node23"><a xlink:href="class_c_coin_control.html#ad2022117a10ff787973af3d7aa62df6f" target="_top" xlink:title="CCoinControl::ListSelected">
<polygon fill="#ffffff" stroke="#000000" points="373.2188,-234.5 373.2188,-252.5 509.2773,-252.5 509.2773,-234.5 373.2188,-234.5"/>
<text text-anchor="middle" x="441.248" y="-240.5" font-family="Helvetica,sans-Serif" font-size="10.00" fill="#000000">CCoinControl::ListSelected</text>
</a>
</g>
</g>
<!-- Node435&#45;&gt;Node451 -->
<g id="edge28" class="edge">
<title>Node435&#45;&gt;Node451</title>
<path fill="none" stroke="#191970" d="M312.8755,-257.7688C328.3554,-256.0482 345.7027,-254.12 362.518,-252.251"/>
<polygon fill="#191970" stroke="#191970" points="363.3456,-255.6806 372.8978,-251.0972 362.5723,-248.7235 363.3456,-255.6806"/>
</g>
<!-- Node452 -->
<g id="node24" class="node">
<title>Node452</title>
<g id="a_node24"><a xlink:href="class_wallet_model.html#aa3a3b4a8064de3af096dbf64bfe12655" target="_top" xlink:title="WalletModel::wallet">
<polygon fill="#ffffff" stroke="#000000" points="390.3599,-197.5 390.3599,-215.5 492.1362,-215.5 492.1362,-197.5 390.3599,-197.5"/>
<text text-anchor="middle" x="441.248" y="-203.5" font-family="Helvetica,sans-Serif" font-size="10.00" fill="#000000">WalletModel::wallet</text>
</a>
</g>
</g>
<!-- Node435&#45;&gt;Node452 -->
<g id="edge29" class="edge">
<title>Node435&#45;&gt;Node452</title>
<path fill="none" stroke="#191970" d="M310.1432,-249.4965C319.1976,-246.6761 328.5351,-243.6158 337.2188,-240.5 353.5336,-234.646 356.8408,-231.1753 373.2188,-225.5 380.4695,-222.9875 388.2404,-220.568 395.8439,-218.3462"/>
<polygon fill="#191970" stroke="#191970" points="397.0238,-221.6495 405.6853,-215.548 395.1093,-214.9164 397.0238,-221.6495"/>
</g>
<!-- Node453 -->
<g id="node25" class="node">
<title>Node453</title>
<g id="a_node25"><a xlink:href="classinterfaces_1_1_wallet.html#a63b25a1dca191dfb5ec9b19c3b542dbf" target="_top" xlink:title="Return wallet transaction output information. ">
<polygon fill="#ffffff" stroke="#000000" points="395.084,-150.5 395.084,-178.5 487.4121,-178.5 487.4121,-150.5 395.084,-150.5"/>
<text text-anchor="start" x="403.084" y="-166.5" font-family="Helvetica,sans-Serif" font-size="10.00" fill="#000000">interfaces::Wallet</text>
<text text-anchor="middle" x="441.248" y="-156.5" font-family="Helvetica,sans-Serif" font-size="10.00" fill="#000000">::getCoins</text>
</a>
</g>
</g>
<!-- Node435&#45;&gt;Node453 -->
<g id="edge30" class="edge">
<title>Node435&#45;&gt;Node453</title>
<path fill="none" stroke="#191970" d="M312.9436,-252.9979C321.5315,-249.8482 329.9853,-245.7711 337.2188,-240.5 359.9361,-223.9457 350.8791,-205.5606 373.2188,-188.5 377.0602,-185.5664 381.2895,-182.9718 385.7025,-180.6807"/>
<polygon fill="#191970" stroke="#191970" points="387.3523,-183.7738 394.9531,-176.3929 384.4085,-177.4228 387.3523,-183.7738"/>
</g>
<!-- Node454 -->
<g id="node26" class="node">
<title>Node454</title>
<g id="a_node26"><a xlink:href="class_c_coin_control.html#a7f9b8135840df5907bc49a4c5cb19ba4" target="_top" xlink:title="CCoinControl::UnSelect">
<polygon fill="#ffffff" stroke="#000000" points="380.1694,-113.5 380.1694,-131.5 502.3267,-131.5 502.3267,-113.5 380.1694,-113.5"/>
<text text-anchor="middle" x="441.248" y="-119.5" font-family="Helvetica,sans-Serif" font-size="10.00" fill="#000000">CCoinControl::UnSelect</text>
</a>
</g>
</g>
<!-- Node435&#45;&gt;Node454 -->
<g id="edge31" class="edge">
<title>Node435&#45;&gt;Node454</title>
<path fill="none" stroke="#191970" d="M312.9968,-254.9222C321.8771,-251.5784 330.4197,-246.9379 337.2188,-240.5 371.2153,-208.3094 338.8724,-173.3171 373.2188,-141.5 375.1866,-139.6771 377.3149,-138.0269 379.5618,-136.5334"/>
<polygon fill="#191970" stroke="#191970" points="381.6375,-139.3872 388.7279,-131.5146 378.2757,-133.2473 381.6375,-139.3872"/>
</g>
<!-- Node437 -->
<g id="node9" class="node">
<title>Node437</title>
<g id="a_node9"><a xlink:href="policy_8cpp.html#a7b1001b4a41a02d9469e3b6985587300" target="_top" xlink:title="GetDustThreshold">
<polygon fill="#ffffff" stroke="#000000" points="545.2773,-76.5 545.2773,-94.5 642.4248,-94.5 642.4248,-76.5 545.2773,-76.5"/>
<text text-anchor="middle" x="593.8511" y="-82.5" font-family="Helvetica,sans-Serif" font-size="10.00" fill="#000000">GetDustThreshold</text>
</a>
</g>
</g>
<!-- Node436&#45;&gt;Node437 -->
<g id="edge8" class="edge">
<title>Node436&#45;&gt;Node437</title>
<path fill="none" stroke="#191970" d="M463.4378,-85.5C482.1826,-85.5 509.9041,-85.5 534.9742,-85.5"/>
<polygon fill="#191970" stroke="#191970" points="535.1552,-89.0001 545.1552,-85.5 535.1551,-82.0001 535.1552,-89.0001"/>
</g>
<!-- Node438 -->
<g id="node10" class="node">
<title>Node438</title>
<g id="a_node10"><a xlink:href="class_c_script.html#a11c26ad1d03fa2d60a733337c21b6719" target="_top" xlink:title="Returns whether the script is guaranteed to fail at execution, regardless of the initial stack...">
<polygon fill="#ffffff" stroke="#000000" points="685.9102,-113.5 685.9102,-131.5 806.9639,-131.5 806.9639,-113.5 685.9102,-113.5"/>
<text text-anchor="middle" x="746.437" y="-119.5" font-family="Helvetica,sans-Serif" font-size="10.00" fill="#000000">CScript::IsUnspendable</text>
</a>
</g>
</g>
<!-- Node437&#45;&gt;Node438 -->
<g id="edge9" class="edge">
<title>Node437&#45;&gt;Node438</title>
<path fill="none" stroke="#191970" d="M631.1778,-94.5512C651.7591,-99.5419 677.512,-105.7866 699.4517,-111.1067"/>
<polygon fill="#191970" stroke="#191970" points="698.6883,-114.523 709.2315,-113.4782 700.338,-107.7201 698.6883,-114.523"/>
</g>
<!-- Node445 -->
<g id="node17" class="node">
<title>Node445</title>
<g id="a_node17"><a xlink:href="serialize_8h.html#adb5a4516b4946127a59c79d21efd61ca" target="_top" xlink:title="GetSerializeSize">
<polygon fill="#ffffff" stroke="#000000" points="701.4766,-39.5 701.4766,-57.5 791.3975,-57.5 791.3975,-39.5 701.4766,-39.5"/>
<text text-anchor="middle" x="746.437" y="-45.5" font-family="Helvetica,sans-Serif" font-size="10.00" fill="#000000">GetSerializeSize</text>
</a>
</g>
</g>
<!-- Node437&#45;&gt;Node445 -->
<g id="edge17" class="edge">
<title>Node437&#45;&gt;Node445</title>
<path fill="none" stroke="#191970" d="M631.1778,-76.4488C651.7591,-71.4581 677.512,-65.2134 699.4517,-59.8933"/>
<polygon fill="#191970" stroke="#191970" points="700.338,-63.2799 709.2315,-57.5218 698.6883,-56.477 700.338,-63.2799"/>
</g>
<!-- Node446 -->
<g id="node18" class="node">
<title>Node446</title>
<g id="a_node18"><a xlink:href="class_c_script.html#ae6f2ab1af6361c5772f62b28b19f5eae" target="_top" xlink:title="CScript::IsWitnessProgram">
<polygon fill="#ffffff" stroke="#000000" points="678.4248,-76.5 678.4248,-94.5 814.4492,-94.5 814.4492,-76.5 678.4248,-76.5"/>
<text text-anchor="middle" x="746.437" y="-82.5" font-family="Helvetica,sans-Serif" font-size="10.00" fill="#000000">CScript::IsWitnessProgram</text>
</a>
</g>
</g>
<!-- Node437&#45;&gt;Node446 -->
<g id="edge18" class="edge">
<title>Node437&#45;&gt;Node446</title>
<path fill="none" stroke="#191970" d="M642.5497,-85.5C650.6991,-85.5 659.334,-85.5 668.0057,-85.5"/>
<polygon fill="#191970" stroke="#191970" points="668.1756,-89.0001 678.1756,-85.5 668.1755,-82.0001 668.1756,-89.0001"/>
</g>
<!-- Node439 -->
<g id="node11" class="node">
<title>Node439</title>
<g id="a_node11"><a xlink:href="classprevector.html#a626f7d206dbc24e5610631809762758b" target="_top" xlink:title="prevector::size">
<polygon fill="#ffffff" stroke="#000000" points="1011.6582,-76.5 1011.6582,-94.5 1092.6826,-94.5 1092.6826,-76.5 1011.6582,-76.5"/>
<text text-anchor="middle" x="1052.1704" y="-82.5" font-family="Helvetica,sans-Serif" font-size="10.00" fill="#000000">prevector::size</text>
</a>
</g>
</g>
<!-- Node438&#45;&gt;Node439 -->
<g id="edge10" class="edge">
<title>Node438&#45;&gt;Node439</title>
<path fill="none" stroke="#191970" d="M770.0462,-131.5163C811.6001,-145.9007 899.7235,-169.6921 966.4883,-141.5 987.625,-132.5748 983.3241,-117.1156 1002.4883,-104.5 1005.7785,-102.3341 1009.3516,-100.3624 1013.022,-98.5804"/>
<polygon fill="#191970" stroke="#191970" points="1014.4873,-101.7597 1022.2404,-94.539 1011.6766,-95.3488 1014.4873,-101.7597"/>
</g>
<!-- Node441 -->
<g id="node13" class="node">
<title>Node441</title>
<g id="a_node13"><a xlink:href="classprevector.html#aa9210cbe708412a70868d6e0bca844c9" target="_top" xlink:title="prevector::begin">
<polygon fill="#ffffff" stroke="#000000" points="864.6143,-113.5 864.6143,-131.5 952.3232,-131.5 952.3232,-113.5 864.6143,-113.5"/>
<text text-anchor="middle" x="908.4688" y="-119.5" font-family="Helvetica,sans-Serif" font-size="10.00" fill="#000000">prevector::begin</text>
</a>
</g>
</g>
<!-- Node438&#45;&gt;Node441 -->
<g id="edge12" class="edge">
<title>Node438&#45;&gt;Node441</title>
<path fill="none" stroke="#191970" d="M807.2326,-122.5C822.7005,-122.5 839.219,-122.5 854.3304,-122.5"/>
<polygon fill="#191970" stroke="#191970" points="854.5372,-126.0001 864.5372,-122.5 854.5371,-119.0001 854.5372,-126.0001"/>
</g>
<!-- Node440 -->
<g id="node12" class="node">
<title>Node440</title>
<g id="a_node12"><a xlink:href="classprevector.html#a933e204a7e29c6bbc85479d023c00ff8" target="_top" xlink:title="prevector::is_direct">
<polygon fill="#ffffff" stroke="#000000" points="1143.9683,-76.5 1143.9683,-94.5 1244.4458,-94.5 1244.4458,-76.5 1143.9683,-76.5"/>
<text text-anchor="middle" x="1194.207" y="-82.5" font-family="Helvetica,sans-Serif" font-size="10.00" fill="#000000">prevector::is_direct</text>
</a>
</g>
</g>
<!-- Node439&#45;&gt;Node440 -->
<g id="edge11" class="edge">
<title>Node439&#45;&gt;Node440</title>
<path fill="none" stroke="#191970" d="M1092.8724,-85.5C1105.5453,-85.5 1119.8038,-85.5 1133.535,-85.5"/>
<polygon fill="#191970" stroke="#191970" points="1133.8976,-89.0001 1143.8975,-85.5 1133.8975,-82.0001 1133.8976,-89.0001"/>
</g>
<!-- Node442 -->
<g id="node14" class="node">
<title>Node442</title>
<g id="a_node14"><a xlink:href="classprevector.html#a59f1d7bcbc751cfa0faddd7ffa184846" target="_top" xlink:title="prevector::item_ptr">
<polygon fill="#ffffff" stroke="#000000" points="1002.4883,-113.5 1002.4883,-131.5 1101.8525,-131.5 1101.8525,-113.5 1002.4883,-113.5"/>
<text text-anchor="middle" x="1052.1704" y="-119.5" font-family="Helvetica,sans-Serif" font-size="10.00" fill="#000000">prevector::item_ptr</text>
</a>
</g>
</g>
<!-- Node441&#45;&gt;Node442 -->
<g id="edge13" class="edge">
<title>Node441&#45;&gt;Node442</title>
<path fill="none" stroke="#191970" d="M952.3648,-122.5C964.9275,-122.5 978.841,-122.5 992.192,-122.5"/>
<polygon fill="#191970" stroke="#191970" points="992.2603,-126.0001 1002.2603,-122.5 992.2603,-119.0001 992.2603,-126.0001"/>
</g>
<!-- Node442&#45;&gt;Node440 -->
<g id="edge14" class="edge">
<title>Node442&#45;&gt;Node440</title>
<path fill="none" stroke="#191970" d="M1086.9165,-113.4488C1105.7457,-108.5438 1129.225,-102.4276 1149.4144,-97.1683"/>
<polygon fill="#191970" stroke="#191970" points="1150.5327,-100.4939 1159.3274,-94.586 1148.768,-93.72 1150.5327,-100.4939"/>
</g>
<!-- Node443 -->
<g id="node15" class="node">
<title>Node443</title>
<g id="a_node15"><a xlink:href="classprevector.html#a20150a43dd87c33f0e855a55bd3418e8" target="_top" xlink:title="prevector::direct_ptr">
<polygon fill="#ffffff" stroke="#000000" points="1141.7441,-150.5 1141.7441,-168.5 1246.6699,-168.5 1246.6699,-150.5 1141.7441,-150.5"/>
<text text-anchor="middle" x="1194.207" y="-156.5" font-family="Helvetica,sans-Serif" font-size="10.00" fill="#000000">prevector::direct_ptr</text>
</a>
</g>
</g>
<!-- Node442&#45;&gt;Node443 -->
<g id="edge15" class="edge">
<title>Node442&#45;&gt;Node443</title>
<path fill="none" stroke="#191970" d="M1086.9165,-131.5512C1105.7457,-136.4562 1129.225,-142.5724 1149.4144,-147.8317"/>
<polygon fill="#191970" stroke="#191970" points="1148.768,-151.28 1159.3274,-150.414 1150.5327,-144.5061 1148.768,-151.28"/>
</g>
<!-- Node444 -->
<g id="node16" class="node">
<title>Node444</title>
<g id="a_node16"><a xlink:href="classprevector.html#ae3343cc65be9fd678b4a6f8305624de6" target="_top" xlink:title="prevector::indirect_ptr">
<polygon fill="#ffffff" stroke="#000000" points="1137.8525,-113.5 1137.8525,-131.5 1250.5615,-131.5 1250.5615,-113.5 1137.8525,-113.5"/>
<text text-anchor="middle" x="1194.207" y="-119.5" font-family="Helvetica,sans-Serif" font-size="10.00" fill="#000000">prevector::indirect_ptr</text>
</a>
</g>
</g>
<!-- Node442&#45;&gt;Node444 -->
<g id="edge16" class="edge">
<title>Node442&#45;&gt;Node444</title>
<path fill="none" stroke="#191970" d="M1102.2472,-122.5C1110.5137,-122.5 1119.1959,-122.5 1127.788,-122.5"/>
<polygon fill="#191970" stroke="#191970" points="1127.8027,-126.0001 1137.8026,-122.5 1127.8026,-119.0001 1127.8027,-126.0001"/>
</g>
<!-- Node446&#45;&gt;Node439 -->
<g id="edge19" class="edge">
<title>Node446&#45;&gt;Node439</title>
<path fill="none" stroke="#191970" d="M788.732,-76.4885C807.5345,-72.9213 829.9993,-69.2564 850.4492,-67.5 901.833,-63.0867 915.1915,-62.17 966.4883,-67.5 979.9817,-68.902 994.4808,-71.5143 1007.6444,-74.3225"/>
<polygon fill="#191970" stroke="#191970" points="1006.8906,-77.7403 1017.4115,-76.4914 1008.4081,-70.9067 1006.8906,-77.7403"/>
</g>
<!-- Node446&#45;&gt;Node441 -->
<g id="edge21" class="edge">
<title>Node446&#45;&gt;Node441</title>
<path fill="none" stroke="#191970" d="M786.0744,-94.5512C808.1267,-99.5869 835.7701,-105.8992 859.2035,-111.2503"/>
<polygon fill="#191970" stroke="#191970" points="858.4318,-114.6641 868.9601,-113.4782 859.9902,-107.8397 858.4318,-114.6641"/>
</g>
<!-- Node447 -->
<g id="node19" class="node">
<title>Node447</title>
<g id="a_node19"><a xlink:href="class_c_script.html#a7f975fca06b3e9a17da8ba23c7647e2e" target="_top" xlink:title="Encode/decode small integers: ">
<polygon fill="#ffffff" stroke="#000000" points="850.4492,-.5 850.4492,-18.5 966.4883,-18.5 966.4883,-.5 850.4492,-.5"/>
<text text-anchor="middle" x="908.4688" y="-6.5" font-family="Helvetica,sans-Serif" font-size="10.00" fill="#000000">CScript::DecodeOP_N</text>
</a>
</g>
</g>
<!-- Node446&#45;&gt;Node447 -->
<g id="edge20" class="edge">
<title>Node446&#45;&gt;Node447</title>
<path fill="none" stroke="#191970" d="M793.0132,-76.4998C800.4306,-74.1366 807.8319,-71.1822 814.4492,-67.5 833.6803,-56.7989 831.9747,-45.4599 850.4492,-33.5 856.866,-29.3459 864.1209,-25.6668 871.2732,-22.5142"/>
<polygon fill="#191970" stroke="#191970" points="872.9693,-25.6004 880.8744,-18.5463 870.2957,-19.1311 872.9693,-25.6004"/>
</g>
<!-- Node448 -->
<g id="node20" class="node">
<title>Node448</title>
<g id="a_node20"><a xlink:href="classprevector.html#aab7f6e13a3cac85cc340fc6b90c5365c" target="_top" xlink:title="prevector::end">
<polygon fill="#ffffff" stroke="#000000" points="868.5059,-76.5 868.5059,-94.5 948.4316,-94.5 948.4316,-76.5 868.5059,-76.5"/>
<text text-anchor="middle" x="908.4688" y="-82.5" font-family="Helvetica,sans-Serif" font-size="10.00" fill="#000000">prevector::end</text>
</a>
</g>
</g>
<!-- Node446&#45;&gt;Node448 -->
<g id="edge22" class="edge">
<title>Node446&#45;&gt;Node448</title>
<path fill="none" stroke="#191970" d="M814.6834,-85.5C829.2946,-85.5 844.4742,-85.5 858.2563,-85.5"/>
<polygon fill="#191970" stroke="#191970" points="858.4907,-89.0001 868.4907,-85.5 858.4907,-82.0001 858.4907,-89.0001"/>
</g>
<!-- Node448&#45;&gt;Node439 -->
<g id="edge24" class="edge">
<title>Node448&#45;&gt;Node439</title>
<path fill="none" stroke="#191970" d="M948.4977,-85.5C964.9507,-85.5 984.1936,-85.5 1001.6038,-85.5"/>
<polygon fill="#191970" stroke="#191970" points="1001.608,-89.0001 1011.6079,-85.5 1001.6079,-82.0001 1001.608,-89.0001"/>
</g>
<!-- Node448&#45;&gt;Node442 -->
<g id="edge23" class="edge">
<title>Node448&#45;&gt;Node442</title>
<path fill="none" stroke="#191970" d="M943.6221,-94.5512C962.7591,-99.4786 986.6436,-105.6283 1007.1323,-110.9037"/>
<polygon fill="#191970" stroke="#191970" points="1006.325,-114.3099 1016.8819,-113.414 1008.0705,-107.531 1006.325,-114.3099"/>
</g>
</g>
</svg>
