<?xml version="1.0" encoding="UTF-8" standalone="no"?>
<!DOCTYPE svg PUBLIC "-//W3C//DTD SVG 1.1//EN"
 "http://www.w3.org/Graphics/SVG/1.1/DTD/svg11.dtd">
<!-- Generated by graphviz version 2.40.1 (20161225.0304)
 -->
<!-- Title: CKeyMetadata Pages: 1 -->
<svg width="111pt" height="204pt"
 viewBox="0.00 0.00 110.53 204.00" xmlns="http://www.w3.org/2000/svg" xmlns:xlink="http://www.w3.org/1999/xlink">
<g id="graph0" class="graph" transform="scale(1 1) rotate(0) translate(4 200)">
<title>CKeyMetadata</title>
<polygon fill="#ffffff" stroke="transparent" points="-4,4 -4,-200 106.5288,-200 106.5288,4 -4,4"/>
<!-- Node1 -->
<g id="node1" class="node">
<title>Node1</title>
<polygon fill="#bfbfbf" stroke="#000000" points="6.9629,-.5 6.9629,-18.5 89.1104,-18.5 89.1104,-.5 6.9629,-.5"/>
<text text-anchor="middle" x="48.0366" y="-6.5" font-family="Helvetica,sans-Serif" font-size="10.00" fill="#000000">CKeyMetadata</text>
</g>
<!-- Node2 -->
<g id="node2" class="node">
<title>Node2</title>
<g id="a_node2"><a xlink:href="class_c_key_i_d.html" target="_top" xlink:title="A reference to a CKey: the Hash360 of its serialized public key. ">
<polygon fill="#ffffff" stroke="#000000" points="22.8101,-65.5 22.8101,-83.5 73.2632,-83.5 73.2632,-65.5 22.8101,-65.5"/>
<text text-anchor="middle" x="48.0366" y="-71.5" font-family="Helvetica,sans-Serif" font-size="10.00" fill="#000000">CKeyID</text>
</a>
</g>
</g>
<!-- Node2&#45;&gt;Node1 -->
<g id="edge1" class="edge">
<title>Node2&#45;&gt;Node1</title>
<path fill="none" stroke="#9a32cd" stroke-dasharray="5,2" d="M48.0366,-55.1265C48.0366,-43.1522 48.0366,-28.3205 48.0366,-18.8821"/>
<polygon fill="#9a32cd" stroke="#9a32cd" points="44.5367,-55.462 48.0366,-65.462 51.5367,-55.4621 44.5367,-55.462"/>
<text text-anchor="middle" x="75.2827" y="-39" font-family="Helvetica,sans-Serif" font-size="10.00" fill="#000000"> hd_seed_id</text>
</g>
<!-- Node3 -->
<g id="node3" class="node">
<title>Node3</title>
<g id="a_node3"><a xlink:href="classuint160.html" target="_top" xlink:title="160&#45;bit opaque blob. ">
<polygon fill="#ffffff" stroke="#000000" points="23.6328,-121.5 23.6328,-139.5 72.4404,-139.5 72.4404,-121.5 23.6328,-121.5"/>
<text text-anchor="middle" x="48.0366" y="-127.5" font-family="Helvetica,sans-Serif" font-size="10.00" fill="#000000">uint160</text>
</a>
</g>
</g>
<!-- Node3&#45;&gt;Node2 -->
<g id="edge2" class="edge">
<title>Node3&#45;&gt;Node2</title>
<path fill="none" stroke="#191970" d="M48.0366,-111.2065C48.0366,-101.8384 48.0366,-91.0262 48.0366,-83.5752"/>
<polygon fill="#191970" stroke="#191970" points="44.5367,-111.2527 48.0366,-121.2527 51.5367,-111.2528 44.5367,-111.2527"/>
</g>
<!-- Node4 -->
<g id="node4" class="node">
<title>Node4</title>
<g id="a_node4"><a xlink:href="classbase__blob.html" target="_top" xlink:title="base_blob\&lt; 160 \&gt;">
<polygon fill="#ffffff" stroke="#000000" points="0,-177.5 0,-195.5 96.0732,-195.5 96.0732,-177.5 0,-177.5"/>
<text text-anchor="middle" x="48.0366" y="-183.5" font-family="Helvetica,sans-Serif" font-size="10.00" fill="#000000">base_blob&lt; 160 &gt;</text>
</a>
</g>
</g>
<!-- Node4&#45;&gt;Node3 -->
<g id="edge3" class="edge">
<title>Node4&#45;&gt;Node3</title>
<path fill="none" stroke="#191970" d="M48.0366,-167.2065C48.0366,-157.8384 48.0366,-147.0262 48.0366,-139.5752"/>
<polygon fill="#191970" stroke="#191970" points="44.5367,-167.2527 48.0366,-177.2527 51.5367,-167.2528 44.5367,-167.2527"/>
</g>
</g>
</svg>
