<?xml version="1.0" encoding="UTF-8" standalone="no"?>
<!DOCTYPE svg PUBLIC "-//W3C//DTD SVG 1.1//EN"
 "http://www.w3.org/Graphics/SVG/1.1/DTD/svg11.dtd">
<!-- Generated by graphviz version 2.40.1 (20161225.0304)
 -->
<!-- Title: ArgsManager::GetHelpMessage Pages: 1 -->
<svg width="662pt" height="131pt"
 viewBox="0.00 0.00 661.90 131.00" xmlns="http://www.w3.org/2000/svg" xmlns:xlink="http://www.w3.org/1999/xlink">
<g id="graph0" class="graph" transform="scale(1 1) rotate(0) translate(4 127)">
<title>ArgsManager::GetHelpMessage</title>
<polygon fill="#ffffff" stroke="transparent" points="-4,4 -4,-127 657.9043,-127 657.9043,4 -4,4"/>
<!-- Node165 -->
<g id="node1" class="node">
<title>Node165</title>
<polygon fill="#bfbfbf" stroke="#000000" points="0,-39.5 0,-57.5 158.8467,-57.5 158.8467,-39.5 0,-39.5"/>
<text text-anchor="middle" x="79.4233" y="-45.5" font-family="Helvetica,sans-Serif" font-size="10.00" fill="#000000">ArgsManager::GetHelpMessage</text>
</g>
<!-- Node166 -->
<g id="node2" class="node">
<title>Node166</title>
<g id="a_node2"><a xlink:href="class_args_manager.html#af81c6e2a9dcd6b12557a2387fd67b2a6" target="_top" xlink:title="Return boolean argument or default value. ">
<polygon fill="#ffffff" stroke="#000000" points="194.8467,-76.5 194.8467,-94.5 328.127,-94.5 328.127,-76.5 194.8467,-76.5"/>
<text text-anchor="middle" x="261.4868" y="-82.5" font-family="Helvetica,sans-Serif" font-size="10.00" fill="#000000">ArgsManager::GetBoolArg</text>
</a>
</g>
</g>
<!-- Node165&#45;&gt;Node166 -->
<g id="edge1" class="edge">
<title>Node165&#45;&gt;Node166</title>
<path fill="none" stroke="#191970" d="M123.9611,-57.5512C149.0715,-62.6543 180.6337,-69.0686 207.1863,-74.4647"/>
<polygon fill="#191970" stroke="#191970" points="206.597,-77.9164 217.0937,-76.4782 207.9911,-71.0567 206.597,-77.9164"/>
</g>
<!-- Node172 -->
<g id="node8" class="node">
<title>Node172</title>
<g id="a_node8"><a xlink:href="util_8cpp.html#aae6ceac1cd94a0e700783c733e60e970" target="_top" xlink:title="Format a string to be used as group of options in help messages. ">
<polygon fill="#ffffff" stroke="#000000" points="209.019,-39.5 209.019,-57.5 313.9546,-57.5 313.9546,-39.5 209.019,-39.5"/>
<text text-anchor="middle" x="261.4868" y="-45.5" font-family="Helvetica,sans-Serif" font-size="10.00" fill="#000000">HelpMessageGroup</text>
</a>
</g>
</g>
<!-- Node165&#45;&gt;Node172 -->
<g id="edge8" class="edge">
<title>Node165&#45;&gt;Node172</title>
<path fill="none" stroke="#191970" d="M159.0142,-48.5C172.3024,-48.5 185.921,-48.5 198.7132,-48.5"/>
<polygon fill="#191970" stroke="#191970" points="198.7731,-52.0001 208.773,-48.5 198.773,-45.0001 198.7731,-52.0001"/>
</g>
<!-- Node173 -->
<g id="node9" class="node">
<title>Node173</title>
<g id="a_node9"><a xlink:href="util_8cpp.html#aec85bcd561766ad0362a8fc5cd4a8542" target="_top" xlink:title="Format a string to be used as option description in help messages. ">
<polygon fill="#ffffff" stroke="#000000" points="214.8564,-2.5 214.8564,-20.5 308.1172,-20.5 308.1172,-2.5 214.8564,-2.5"/>
<text text-anchor="middle" x="261.4868" y="-8.5" font-family="Helvetica,sans-Serif" font-size="10.00" fill="#000000">HelpMessageOpt</text>
</a>
</g>
</g>
<!-- Node165&#45;&gt;Node173 -->
<g id="edge9" class="edge">
<title>Node165&#45;&gt;Node173</title>
<path fill="none" stroke="#191970" d="M123.9611,-39.4488C149.0715,-34.3457 180.6337,-27.9314 207.1863,-22.5353"/>
<polygon fill="#191970" stroke="#191970" points="207.9911,-25.9433 217.0937,-20.5218 206.597,-19.0836 207.9911,-25.9433"/>
</g>
<!-- Node167 -->
<g id="node3" class="node">
<title>Node167</title>
<g id="a_node3"><a xlink:href="class_args_manager.html#a113a1b8c5471d2fff0108058be8b86af" target="_top" xlink:title="Return true if the argument was originally passed as a negated option, i.e. ">
<polygon fill="#ffffff" stroke="#000000" points="364.127,-97.5 364.127,-115.5 506.8604,-115.5 506.8604,-97.5 364.127,-97.5"/>
<text text-anchor="middle" x="435.4937" y="-103.5" font-family="Helvetica,sans-Serif" font-size="10.00" fill="#000000">ArgsManager::IsArgNegated</text>
</a>
</g>
</g>
<!-- Node166&#45;&gt;Node167 -->
<g id="edge2" class="edge">
<title>Node166&#45;&gt;Node167</title>
<path fill="none" stroke="#191970" d="M328.2648,-93.5591C336.6689,-94.5733 345.3395,-95.6198 353.9389,-96.6576"/>
<polygon fill="#191970" stroke="#191970" points="353.6335,-100.146 363.9808,-97.8695 354.4723,-93.1965 353.6335,-100.146"/>
</g>
<!-- Node169 -->
<g id="node5" class="node">
<title>Node169</title>
<g id="a_node5"><a xlink:href="class_args_manager_helper.html#aa4f8f77dc468b29cffe50513c78a87cd" target="_top" xlink:title="ArgsManagerHelper::\lGetArg">
<polygon fill="#ffffff" stroke="#000000" points="379.9717,-49.5 379.9717,-77.5 491.0156,-77.5 491.0156,-49.5 379.9717,-49.5"/>
<text text-anchor="start" x="387.9717" y="-65.5" font-family="Helvetica,sans-Serif" font-size="10.00" fill="#000000">ArgsManagerHelper::</text>
<text text-anchor="middle" x="435.4937" y="-55.5" font-family="Helvetica,sans-Serif" font-size="10.00" fill="#000000">GetArg</text>
</a>
</g>
</g>
<!-- Node166&#45;&gt;Node169 -->
<g id="edge4" class="edge">
<title>Node166&#45;&gt;Node169</title>
<path fill="none" stroke="#191970" d="M328.2648,-77.0571C341.8593,-75.3384 356.1512,-73.5314 369.7108,-71.817"/>
<polygon fill="#191970" stroke="#191970" points="370.4315,-75.2539 379.9135,-70.5271 369.5534,-68.3092 370.4315,-75.2539"/>
</g>
<!-- Node168 -->
<g id="node4" class="node">
<title>Node168</title>
<g id="a_node4"><a xlink:href="class_args_manager_helper.html#a863ddbcfbd113cf88cf622a0a4e32c1d" target="_top" xlink:title="Convert regular argument into the network&#45;specific setting. ">
<polygon fill="#ffffff" stroke="#000000" points="542.8604,-94.5 542.8604,-122.5 653.9043,-122.5 653.9043,-94.5 542.8604,-94.5"/>
<text text-anchor="start" x="550.8604" y="-110.5" font-family="Helvetica,sans-Serif" font-size="10.00" fill="#000000">ArgsManagerHelper::</text>
<text text-anchor="middle" x="598.3823" y="-100.5" font-family="Helvetica,sans-Serif" font-size="10.00" fill="#000000">NetworkArg</text>
</a>
</g>
</g>
<!-- Node167&#45;&gt;Node168 -->
<g id="edge3" class="edge">
<title>Node167&#45;&gt;Node168</title>
<path fill="none" stroke="#191970" d="M506.939,-107.3772C515.447,-107.4817 524.1028,-107.588 532.5274,-107.6914"/>
<polygon fill="#191970" stroke="#191970" points="532.6212,-111.1927 542.6635,-107.8159 532.7072,-104.1933 532.6212,-111.1927"/>
</g>
<!-- Node169&#45;&gt;Node168 -->
<g id="edge6" class="edge">
<title>Node169&#45;&gt;Node168</title>
<path fill="none" stroke="#191970" d="M486.5857,-77.6148C502.8084,-82.0965 520.9059,-87.0962 537.7339,-91.7451"/>
<polygon fill="#191970" stroke="#191970" points="536.9006,-95.146 547.4715,-94.4353 538.7646,-88.3987 536.9006,-95.146"/>
</g>
<!-- Node170 -->
<g id="node6" class="node">
<title>Node170</title>
<g id="a_node6"><a xlink:href="class_args_manager_helper.html#a1804a95992b4e10d04f0b92c53032b29" target="_top" xlink:title="Return true/false if an argument is set in a map, and also return the first (or last) of the possibly...">
<polygon fill="#ffffff" stroke="#000000" points="542.8604,-47.5 542.8604,-75.5 653.9043,-75.5 653.9043,-47.5 542.8604,-47.5"/>
<text text-anchor="start" x="550.8604" y="-63.5" font-family="Helvetica,sans-Serif" font-size="10.00" fill="#000000">ArgsManagerHelper::</text>
<text text-anchor="middle" x="598.3823" y="-53.5" font-family="Helvetica,sans-Serif" font-size="10.00" fill="#000000">GetArgHelper</text>
</a>
</g>
</g>
<!-- Node169&#45;&gt;Node170 -->
<g id="edge5" class="edge">
<title>Node169&#45;&gt;Node170</title>
<path fill="none" stroke="#191970" d="M491.0951,-62.8173C504.3882,-62.6541 518.706,-62.4783 532.4163,-62.31"/>
<polygon fill="#191970" stroke="#191970" points="532.7988,-65.8056 542.7551,-62.183 532.7128,-58.8061 532.7988,-65.8056"/>
</g>
<!-- Node171 -->
<g id="node7" class="node">
<title>Node171</title>
<g id="a_node7"><a xlink:href="class_args_manager_helper.html#a43f3488403e4f0433ade323e48008359" target="_top" xlink:title="Determine whether to use config settings in the default section, See also comments around ArgsManager...">
<polygon fill="#ffffff" stroke="#000000" points="542.8604,-.5 542.8604,-28.5 653.9043,-28.5 653.9043,-.5 542.8604,-.5"/>
<text text-anchor="start" x="550.8604" y="-16.5" font-family="Helvetica,sans-Serif" font-size="10.00" fill="#000000">ArgsManagerHelper::</text>
<text text-anchor="middle" x="598.3823" y="-6.5" font-family="Helvetica,sans-Serif" font-size="10.00" fill="#000000">UseDefaultSection</text>
</a>
</g>
</g>
<!-- Node169&#45;&gt;Node171 -->
<g id="edge7" class="edge">
<title>Node169&#45;&gt;Node171</title>
<path fill="none" stroke="#191970" d="M482.171,-49.4586C500.8291,-43.8459 522.4841,-37.3316 542.0091,-31.4581"/>
<polygon fill="#191970" stroke="#191970" points="543.1303,-34.7759 551.6982,-28.5435 541.1138,-28.0726 543.1303,-34.7759"/>
</g>
</g>
</svg>
