<?xml version="1.0" encoding="UTF-8" standalone="no"?>
<!DOCTYPE svg PUBLIC "-//W3C//DTD SVG 1.1//EN"
 "http://www.w3.org/Graphics/SVG/1.1/DTD/svg11.dtd">
<!-- Generated by graphviz version 2.40.1 (20161225.0304)
 -->
<!-- Title: CConnman::OpenNetworkConnection Pages: 1 -->
<svg width="605pt" height="113pt"
 viewBox="0.00 0.00 604.94 113.00" xmlns="http://www.w3.org/2000/svg" xmlns:xlink="http://www.w3.org/1999/xlink">
<g id="graph0" class="graph" transform="scale(1 1) rotate(0) translate(4 109)">
<title>CConnman::OpenNetworkConnection</title>
<polygon fill="#ffffff" stroke="transparent" points="-4,4 -4,-109 600.9434,-109 600.9434,4 -4,4"/>
<!-- Node468 -->
<g id="node1" class="node">
<title>Node468</title>
<polygon fill="#bfbfbf" stroke="#000000" points="0,-48.5 0,-66.5 183.8662,-66.5 183.8662,-48.5 0,-48.5"/>
<text text-anchor="middle" x="91.9331" y="-54.5" font-family="Helvetica,sans-Serif" font-size="10.00" fill="#000000">CConnman::OpenNetworkConnection</text>
</g>
<!-- Node469 -->
<g id="node2" class="node">
<title>Node469</title>
<g id="a_node2"><a xlink:href="class_c_connman.html#a161f1b41271db1a10cec61a825524b5d" target="_top" xlink:title="CConnman::ProcessOneShot">
<polygon fill="#ffffff" stroke="#000000" points="224.6001,-86.5 224.6001,-104.5 372.3335,-104.5 372.3335,-86.5 224.6001,-86.5"/>
<text text-anchor="middle" x="298.4668" y="-92.5" font-family="Helvetica,sans-Serif" font-size="10.00" fill="#000000">CConnman::ProcessOneShot</text>
</a>
</g>
</g>
<!-- Node468&#45;&gt;Node469 -->
<g id="edge1" class="edge">
<title>Node468&#45;&gt;Node469</title>
<path fill="none" stroke="#191970" d="M150.7627,-68.324C181.9889,-74.0693 219.9136,-81.047 249.5151,-86.4934"/>
<polygon fill="#191970" stroke="#191970" points="151.347,-64.8728 140.8787,-66.5055 150.0803,-71.7573 151.347,-64.8728"/>
</g>
<!-- Node470 -->
<g id="node3" class="node">
<title>Node470</title>
<g id="a_node3"><a xlink:href="class_c_connman.html#a55e9feafc3bab78e5c9d408c207faa45" target="_top" xlink:title="CConnman::ThreadOpenConnections">
<polygon fill="#ffffff" stroke="#000000" points="413.0674,-67.5 413.0674,-85.5 596.9434,-85.5 596.9434,-67.5 413.0674,-67.5"/>
<text text-anchor="middle" x="505.0054" y="-73.5" font-family="Helvetica,sans-Serif" font-size="10.00" fill="#000000">CConnman::ThreadOpenConnections</text>
</a>
</g>
</g>
<!-- Node468&#45;&gt;Node470 -->
<g id="edge3" class="edge">
<title>Node468&#45;&gt;Node470</title>
<path fill="none" stroke="#191970" d="M194.2671,-62.207C261.2052,-65.286 347.9296,-69.275 412.7433,-72.2562"/>
<polygon fill="#191970" stroke="#191970" points="194.2707,-58.7036 184.1204,-61.7403 193.949,-65.6962 194.2707,-58.7036"/>
</g>
<!-- Node471 -->
<g id="node4" class="node">
<title>Node471</title>
<g id="a_node4"><a xlink:href="class_c_connman.html#a0b787caf95e52a346a2b31a580d60a62" target="_top" xlink:title="CConnman::ThreadOpenAdded\lConnections">
<polygon fill="#ffffff" stroke="#000000" points="219.8662,-.5 219.8662,-28.5 377.0674,-28.5 377.0674,-.5 219.8662,-.5"/>
<text text-anchor="start" x="227.8662" y="-16.5" font-family="Helvetica,sans-Serif" font-size="10.00" fill="#000000">CConnman::ThreadOpenAdded</text>
<text text-anchor="middle" x="298.4668" y="-6.5" font-family="Helvetica,sans-Serif" font-size="10.00" fill="#000000">Connections</text>
</a>
</g>
</g>
<!-- Node468&#45;&gt;Node471 -->
<g id="edge4" class="edge">
<title>Node468&#45;&gt;Node471</title>
<path fill="none" stroke="#191970" d="M145.3003,-46.389C171.3881,-40.9576 203.069,-34.3617 230.8332,-28.5812"/>
<polygon fill="#191970" stroke="#191970" points="144.306,-43.0209 135.2293,-48.4858 145.7328,-49.874 144.306,-43.0209"/>
</g>
<!-- Node469&#45;&gt;Node470 -->
<g id="edge2" class="edge">
<title>Node469&#45;&gt;Node470</title>
<path fill="none" stroke="#191970" d="M382.6851,-87.7525C392.608,-86.8397 402.7739,-85.9045 412.7991,-84.9823"/>
<polygon fill="#191970" stroke="#191970" points="382.0859,-84.2928 372.4486,-88.6942 382.7272,-91.2634 382.0859,-84.2928"/>
</g>
</g>
</svg>
