<?xml version="1.0" encoding="UTF-8" standalone="no"?>
<!DOCTYPE svg PUBLIC "-//W3C//DTD SVG 1.1//EN"
 "http://www.w3.org/Graphics/SVG/1.1/DTD/svg11.dtd">
<!-- Generated by graphviz version 2.40.1 (20161225.0304)
 -->
<!-- Title: CNetAddr::IsRoutable Pages: 1 -->
<svg width="411pt" height="434pt"
 viewBox="0.00 0.00 410.90 434.00" xmlns="http://www.w3.org/2000/svg" xmlns:xlink="http://www.w3.org/1999/xlink">
<g id="graph0" class="graph" transform="scale(1 1) rotate(0) translate(4 430)">
<title>CNetAddr::IsRoutable</title>
<polygon fill="#ffffff" stroke="transparent" points="-4,4 -4,-430 406.9004,-430 406.9004,4 -4,4"/>
<!-- Node481 -->
<g id="node1" class="node">
<title>Node481</title>
<polygon fill="#bfbfbf" stroke="#000000" points="0,-203.5 0,-221.5 113.2705,-221.5 113.2705,-203.5 0,-203.5"/>
<text text-anchor="middle" x="56.6353" y="-209.5" font-family="Helvetica,sans-Serif" font-size="10.00" fill="#000000">CNetAddr::IsRoutable</text>
</g>
<!-- Node482 -->
<g id="node2" class="node">
<title>Node482</title>
<g id="a_node2"><a xlink:href="class_c_net_addr.html#a6fe20b8da9701ca5dc2af078e2e8ac25" target="_top" xlink:title="CNetAddr::IsValid">
<polygon fill="#ffffff" stroke="#000000" points="159.9199,-407.5 159.9199,-425.5 254.6602,-425.5 254.6602,-407.5 159.9199,-407.5"/>
<text text-anchor="middle" x="207.29" y="-413.5" font-family="Helvetica,sans-Serif" font-size="10.00" fill="#000000">CNetAddr::IsValid</text>
</a>
</g>
</g>
<!-- Node481&#45;&gt;Node482 -->
<g id="edge1" class="edge">
<title>Node481&#45;&gt;Node482</title>
<path fill="none" stroke="#191970" d="M58.5486,-221.838C65.2414,-252.1136 90.4625,-348.485 149.2705,-398.5 151.0329,-399.9989 152.9194,-401.3731 154.8956,-402.633"/>
<polygon fill="#191970" stroke="#191970" points="153.5523,-405.8816 164.0294,-407.4565 156.8212,-399.6917 153.5523,-405.8816"/>
</g>
<!-- Node483 -->
<g id="node3" class="node">
<title>Node483</title>
<g id="a_node3"><a xlink:href="class_c_net_addr.html#a6c6d7376d8d0ae4c7cb0893add58069f" target="_top" xlink:title="CNetAddr::IsRFC1918">
<polygon fill="#ffffff" stroke="#000000" points="149.2705,-370.5 149.2705,-388.5 265.3096,-388.5 265.3096,-370.5 149.2705,-370.5"/>
<text text-anchor="middle" x="207.29" y="-376.5" font-family="Helvetica,sans-Serif" font-size="10.00" fill="#000000">CNetAddr::IsRFC1918</text>
</a>
</g>
</g>
<!-- Node481&#45;&gt;Node483 -->
<g id="edge2" class="edge">
<title>Node481&#45;&gt;Node483</title>
<path fill="none" stroke="#191970" d="M61.2145,-221.6069C76.0743,-250.8427 123.477,-341.5767 149.2705,-361.5 151.3519,-363.1077 153.5784,-364.573 155.9019,-365.9084"/>
<polygon fill="#191970" stroke="#191970" points="154.7184,-369.2244 165.2431,-370.4413 157.7744,-362.9267 154.7184,-369.2244"/>
</g>
<!-- Node486 -->
<g id="node6" class="node">
<title>Node486</title>
<g id="a_node6"><a xlink:href="class_c_net_addr.html#acd1138ebc48eb28055a49e5ffe8ebc31" target="_top" xlink:title="CNetAddr::IsRFC2544">
<polygon fill="#ffffff" stroke="#000000" points="149.2705,-333.5 149.2705,-351.5 265.3096,-351.5 265.3096,-333.5 149.2705,-333.5"/>
<text text-anchor="middle" x="207.29" y="-339.5" font-family="Helvetica,sans-Serif" font-size="10.00" fill="#000000">CNetAddr::IsRFC2544</text>
</a>
</g>
</g>
<!-- Node481&#45;&gt;Node486 -->
<g id="edge5" class="edge">
<title>Node481&#45;&gt;Node486</title>
<path fill="none" stroke="#191970" d="M61.6091,-221.5608C73.7291,-242.7976 106.9241,-296.1291 149.2705,-324.5 151.9867,-326.3197 154.8958,-327.9627 157.9113,-329.445"/>
<polygon fill="#191970" stroke="#191970" points="156.6206,-332.6998 167.1905,-333.4262 159.3806,-326.2668 156.6206,-332.6998"/>
</g>
<!-- Node487 -->
<g id="node7" class="node">
<title>Node487</title>
<g id="a_node7"><a xlink:href="class_c_net_addr.html#af75408b0ae05d1e7d3931b80b65a70c4" target="_top" xlink:title="CNetAddr::IsRFC3927">
<polygon fill="#ffffff" stroke="#000000" points="149.2705,-296.5 149.2705,-314.5 265.3096,-314.5 265.3096,-296.5 149.2705,-296.5"/>
<text text-anchor="middle" x="207.29" y="-302.5" font-family="Helvetica,sans-Serif" font-size="10.00" fill="#000000">CNetAddr::IsRFC3927</text>
</a>
</g>
</g>
<!-- Node481&#45;&gt;Node487 -->
<g id="edge8" class="edge">
<title>Node481&#45;&gt;Node487</title>
<path fill="none" stroke="#191970" d="M65.5083,-221.6835C81.0835,-237.3128 114.9586,-269.1674 149.2705,-287.5 152.9855,-289.4849 156.9534,-291.2885 161.005,-292.9192"/>
<polygon fill="#191970" stroke="#191970" points="159.937,-296.2555 170.5306,-296.414 162.3481,-289.6838 159.937,-296.2555"/>
</g>
<!-- Node488 -->
<g id="node8" class="node">
<title>Node488</title>
<g id="a_node8"><a xlink:href="class_c_net_addr.html#af8e0bb6b81be814e528143471b2fb482" target="_top" xlink:title="CNetAddr::IsRFC4862">
<polygon fill="#ffffff" stroke="#000000" points="149.2705,-74.5 149.2705,-92.5 265.3096,-92.5 265.3096,-74.5 149.2705,-74.5"/>
<text text-anchor="middle" x="207.29" y="-80.5" font-family="Helvetica,sans-Serif" font-size="10.00" fill="#000000">CNetAddr::IsRFC4862</text>
</a>
</g>
</g>
<!-- Node481&#45;&gt;Node488 -->
<g id="edge11" class="edge">
<title>Node481&#45;&gt;Node488</title>
<path fill="none" stroke="#191970" d="M61.8655,-203.337C74.29,-182.3745 107.6738,-130.5734 149.2705,-102.5 152.5857,-100.2626 156.1841,-98.272 159.9103,-96.504"/>
<polygon fill="#191970" stroke="#191970" points="161.4739,-99.6438 169.3471,-92.5541 158.7711,-93.1866 161.4739,-99.6438"/>
</g>
<!-- Node489 -->
<g id="node9" class="node">
<title>Node489</title>
<g id="a_node9"><a xlink:href="class_c_net_addr.html#a6a9595f10a7cb4518d9d577075eee57f" target="_top" xlink:title="CNetAddr::IsRFC6598">
<polygon fill="#ffffff" stroke="#000000" points="149.2705,-259.5 149.2705,-277.5 265.3096,-277.5 265.3096,-259.5 149.2705,-259.5"/>
<text text-anchor="middle" x="207.29" y="-265.5" font-family="Helvetica,sans-Serif" font-size="10.00" fill="#000000">CNetAddr::IsRFC6598</text>
</a>
</g>
</g>
<!-- Node481&#45;&gt;Node489 -->
<g id="edge12" class="edge">
<title>Node481&#45;&gt;Node489</title>
<path fill="none" stroke="#191970" d="M77.401,-221.6355C96.0418,-229.6877 124.2421,-241.504 149.2705,-250.5 154.8656,-252.5111 160.8101,-254.5093 166.6788,-256.4028"/>
<polygon fill="#191970" stroke="#191970" points="165.8189,-259.8016 176.4087,-259.4744 167.9262,-253.1263 165.8189,-259.8016"/>
</g>
<!-- Node490 -->
<g id="node10" class="node">
<title>Node490</title>
<g id="a_node10"><a xlink:href="class_c_net_addr.html#a5a3b09eb486dede48cb9427a9a0ed2e2" target="_top" xlink:title="CNetAddr::IsRFC5737">
<polygon fill="#ffffff" stroke="#000000" points="149.2705,-222.5 149.2705,-240.5 265.3096,-240.5 265.3096,-222.5 149.2705,-222.5"/>
<text text-anchor="middle" x="207.29" y="-228.5" font-family="Helvetica,sans-Serif" font-size="10.00" fill="#000000">CNetAddr::IsRFC5737</text>
</a>
</g>
</g>
<!-- Node481&#45;&gt;Node490 -->
<g id="edge15" class="edge">
<title>Node481&#45;&gt;Node490</title>
<path fill="none" stroke="#191970" d="M113.5914,-219.6831C121.976,-220.7405 130.6841,-221.8388 139.2646,-222.9209"/>
<polygon fill="#191970" stroke="#191970" points="138.8924,-226.4016 149.2517,-224.1804 139.7683,-219.4566 138.8924,-226.4016"/>
</g>
<!-- Node491 -->
<g id="node11" class="node">
<title>Node491</title>
<g id="a_node11"><a xlink:href="class_c_net_addr.html#ac2eb12a3f11d9f54fa7c5072bf065d1c" target="_top" xlink:title="CNetAddr::IsRFC4193">
<polygon fill="#ffffff" stroke="#000000" points="149.2705,-148.5 149.2705,-166.5 265.3096,-166.5 265.3096,-148.5 149.2705,-148.5"/>
<text text-anchor="middle" x="207.29" y="-154.5" font-family="Helvetica,sans-Serif" font-size="10.00" fill="#000000">CNetAddr::IsRFC4193</text>
</a>
</g>
</g>
<!-- Node481&#45;&gt;Node491 -->
<g id="edge18" class="edge">
<title>Node481&#45;&gt;Node491</title>
<path fill="none" stroke="#191970" d="M78.9702,-203.4285C97.6543,-195.9345 125.0641,-185.1599 149.2705,-176.5 155.4923,-174.2742 162.1246,-172.0056 168.5986,-169.8471"/>
<polygon fill="#191970" stroke="#191970" points="170.1557,-173.0194 178.5598,-166.5679 167.9668,-166.3704 170.1557,-173.0194"/>
</g>
<!-- Node492 -->
<g id="node12" class="node">
<title>Node492</title>
<g id="a_node12"><a xlink:href="class_c_net_addr.html#a4db37b4997ff3b8c57959f2aa915a9a3" target="_top" xlink:title="CNetAddr::IsTor">
<polygon fill="#ffffff" stroke="#000000" points="163.7236,-37.5 163.7236,-55.5 250.8564,-55.5 250.8564,-37.5 163.7236,-37.5"/>
<text text-anchor="middle" x="207.29" y="-43.5" font-family="Helvetica,sans-Serif" font-size="10.00" fill="#000000">CNetAddr::IsTor</text>
</a>
</g>
</g>
<!-- Node481&#45;&gt;Node492 -->
<g id="edge20" class="edge">
<title>Node481&#45;&gt;Node492</title>
<path fill="none" stroke="#191970" d="M59.7801,-203.2744C69.0958,-177.3372 99.074,-103.1516 149.2705,-64.5 151.3543,-62.8954 153.5828,-61.4327 155.9078,-60.0993"/>
<polygon fill="#191970" stroke="#191970" points="157.7797,-63.0816 165.2531,-55.5717 154.7276,-56.782 157.7797,-63.0816"/>
</g>
<!-- Node493 -->
<g id="node13" class="node">
<title>Node493</title>
<g id="a_node13"><a xlink:href="class_c_net_addr.html#af9286890842869ccc5f6fb82ce316ede" target="_top" xlink:title="CNetAddr::IsRFC4843">
<polygon fill="#ffffff" stroke="#000000" points="149.2705,-111.5 149.2705,-129.5 265.3096,-129.5 265.3096,-111.5 149.2705,-111.5"/>
<text text-anchor="middle" x="207.29" y="-117.5" font-family="Helvetica,sans-Serif" font-size="10.00" fill="#000000">CNetAddr::IsRFC4843</text>
</a>
</g>
</g>
<!-- Node481&#45;&gt;Node493 -->
<g id="edge21" class="edge">
<title>Node481&#45;&gt;Node493</title>
<path fill="none" stroke="#191970" d="M65.8411,-203.3907C81.6486,-188.201 115.5208,-157.5857 149.2705,-139.5 153.768,-137.0899 158.6257,-134.9144 163.5491,-132.9704"/>
<polygon fill="#191970" stroke="#191970" points="164.8247,-136.2307 173.0205,-129.5166 162.4266,-129.6543 164.8247,-136.2307"/>
</g>
<!-- Node494 -->
<g id="node14" class="node">
<title>Node494</title>
<g id="a_node14"><a xlink:href="class_c_net_addr.html#a857bfcf95814b7d6ef4db309c84f179d" target="_top" xlink:title="CNetAddr::IsLocal">
<polygon fill="#ffffff" stroke="#000000" points="158.7163,-185.5 158.7163,-203.5 255.8638,-203.5 255.8638,-185.5 158.7163,-185.5"/>
<text text-anchor="middle" x="207.29" y="-191.5" font-family="Helvetica,sans-Serif" font-size="10.00" fill="#000000">CNetAddr::IsLocal</text>
</a>
</g>
</g>
<!-- Node481&#45;&gt;Node494 -->
<g id="edge23" class="edge">
<title>Node481&#45;&gt;Node494</title>
<path fill="none" stroke="#191970" d="M113.5914,-205.695C125.063,-204.3244 137.14,-202.8814 148.6674,-201.5041"/>
<polygon fill="#191970" stroke="#191970" points="149.1129,-204.9759 158.627,-200.3142 148.2824,-198.0253 149.1129,-204.9759"/>
</g>
<!-- Node495 -->
<g id="node15" class="node">
<title>Node495</title>
<g id="a_node15"><a xlink:href="class_c_net_addr.html#ab0848a1ba29b6f72fcc3b6ba8d7c8fbb" target="_top" xlink:title="CNetAddr::IsInternal">
<polygon fill="#ffffff" stroke="#000000" points="153.9922,-.5 153.9922,-18.5 260.5879,-18.5 260.5879,-.5 153.9922,-.5"/>
<text text-anchor="middle" x="207.29" y="-6.5" font-family="Helvetica,sans-Serif" font-size="10.00" fill="#000000">CNetAddr::IsInternal</text>
</a>
</g>
</g>
<!-- Node481&#45;&gt;Node495 -->
<g id="edge26" class="edge">
<title>Node481&#45;&gt;Node495</title>
<path fill="none" stroke="#191970" d="M58.5647,-203.2115C65.3069,-173.0962 90.662,-77.2365 149.2705,-27.5 151.0345,-26.003 152.9223,-24.6304 154.8996,-23.3718"/>
<polygon fill="#191970" stroke="#191970" points="156.8248,-26.3135 164.0368,-18.5522 153.5589,-20.122 156.8248,-26.3135"/>
</g>
<!-- Node484 -->
<g id="node4" class="node">
<title>Node484</title>
<g id="a_node4"><a xlink:href="class_c_net_addr.html#a7021b79e9a33c342b68db09dbb6c2293" target="_top" xlink:title="CNetAddr::IsIPv4">
<polygon fill="#ffffff" stroke="#000000" points="305.4795,-277.5 305.4795,-295.5 398.7305,-295.5 398.7305,-277.5 305.4795,-277.5"/>
<text text-anchor="middle" x="352.105" y="-283.5" font-family="Helvetica,sans-Serif" font-size="10.00" fill="#000000">CNetAddr::IsIPv4</text>
</a>
</g>
</g>
<!-- Node483&#45;&gt;Node484 -->
<g id="edge3" class="edge">
<title>Node483&#45;&gt;Node484</title>
<path fill="none" stroke="#191970" d="M244.4455,-370.4756C251.5919,-368.0522 258.8547,-365.0829 265.3096,-361.5 293.4415,-345.8849 320.635,-320.1074 336.8699,-303.2139"/>
<polygon fill="#191970" stroke="#191970" points="339.617,-305.4016 343.9155,-295.7179 334.5164,-300.6075 339.617,-305.4016"/>
</g>
<!-- Node485 -->
<g id="node5" class="node">
<title>Node485</title>
<g id="a_node5"><a xlink:href="class_c_net_addr.html#acfd51ebf2030b01fa5ac133176512475" target="_top" xlink:title="CNetAddr::GetByte">
<polygon fill="#ffffff" stroke="#000000" points="301.3096,-240.5 301.3096,-258.5 402.9004,-258.5 402.9004,-240.5 301.3096,-240.5"/>
<text text-anchor="middle" x="352.105" y="-246.5" font-family="Helvetica,sans-Serif" font-size="10.00" fill="#000000">CNetAddr::GetByte</text>
</a>
</g>
</g>
<!-- Node483&#45;&gt;Node485 -->
<g id="edge4" class="edge">
<title>Node483&#45;&gt;Node485</title>
<path fill="none" stroke="#191970" d="M251.7561,-370.4203C256.7106,-368.0934 261.3782,-365.1708 265.3096,-361.5 297.7049,-331.2513 269.7911,-299.6613 301.3096,-268.5 303.155,-266.6755 305.1919,-265.0236 307.3576,-263.5283"/>
<polygon fill="#191970" stroke="#191970" points="309.2454,-266.4814 316.2168,-258.5033 305.7918,-260.3926 309.2454,-266.4814"/>
</g>
<!-- Node486&#45;&gt;Node484 -->
<g id="edge6" class="edge">
<title>Node486&#45;&gt;Node484</title>
<path fill="none" stroke="#191970" d="M238.8221,-333.4197C247.4743,-330.7382 256.8107,-327.6675 265.3096,-324.5 285.1525,-317.1046 306.9872,-307.5378 323.7927,-299.8534"/>
<polygon fill="#191970" stroke="#191970" points="325.4417,-302.9471 333.0532,-295.5772 322.5071,-296.592 325.4417,-302.9471"/>
</g>
<!-- Node486&#45;&gt;Node485 -->
<g id="edge7" class="edge">
<title>Node486&#45;&gt;Node485</title>
<path fill="none" stroke="#191970" d="M248.9864,-333.4979C254.7995,-331.1514 260.4405,-328.2026 265.3096,-324.5 288.8617,-306.5903 278.2785,-287.0748 301.3096,-268.5 303.838,-266.4608 306.6075,-264.6261 309.5072,-262.9779"/>
<polygon fill="#191970" stroke="#191970" points="311.0484,-266.1204 318.4856,-258.5746 307.9661,-259.8355 311.0484,-266.1204"/>
</g>
<!-- Node487&#45;&gt;Node484 -->
<g id="edge9" class="edge">
<title>Node487&#45;&gt;Node484</title>
<path fill="none" stroke="#191970" d="M265.3574,-297.8815C275.1689,-296.5942 285.3463,-295.2589 295.1296,-293.9753"/>
<polygon fill="#191970" stroke="#191970" points="295.6905,-297.4318 305.1502,-292.6606 294.7799,-290.4913 295.6905,-297.4318"/>
</g>
<!-- Node487&#45;&gt;Node485 -->
<g id="edge10" class="edge">
<title>Node487&#45;&gt;Node485</title>
<path fill="none" stroke="#191970" d="M240.1938,-296.4498C248.498,-293.8513 257.3215,-290.8137 265.3096,-287.5 282.0205,-280.5679 284.8034,-275.9065 301.3096,-268.5 306.1255,-266.3391 311.2681,-264.2134 316.3635,-262.2111"/>
<polygon fill="#191970" stroke="#191970" points="317.9077,-265.3683 326.0053,-258.5361 315.4145,-258.8273 317.9077,-265.3683"/>
</g>
<!-- Node489&#45;&gt;Node484 -->
<g id="edge13" class="edge">
<title>Node489&#45;&gt;Node484</title>
<path fill="none" stroke="#191970" d="M265.3574,-275.7176C275.1689,-276.9371 285.3463,-278.2021 295.1296,-279.4182"/>
<polygon fill="#191970" stroke="#191970" points="294.7949,-282.9034 305.1502,-280.6637 295.6583,-275.9569 294.7949,-282.9034"/>
</g>
<!-- Node489&#45;&gt;Node485 -->
<g id="edge14" class="edge">
<title>Node489&#45;&gt;Node485</title>
<path fill="none" stroke="#191970" d="M265.3574,-260.8815C273.7488,-259.7805 282.4079,-258.6444 290.8591,-257.5356"/>
<polygon fill="#191970" stroke="#191970" points="291.573,-260.972 301.0327,-256.2008 290.6624,-254.0315 291.573,-260.972"/>
</g>
<!-- Node490&#45;&gt;Node484 -->
<g id="edge16" class="edge">
<title>Node490&#45;&gt;Node484</title>
<path fill="none" stroke="#191970" d="M237.7096,-240.5307C246.6966,-243.4476 256.4868,-246.8728 265.3096,-250.5 281.8544,-257.302 284.8478,-261.4993 301.3096,-268.5 305.757,-270.3914 310.4779,-272.2524 315.1806,-274.0182"/>
<polygon fill="#191970" stroke="#191970" points="314.121,-277.3571 324.715,-277.4884 316.5152,-270.7792 314.121,-277.3571"/>
</g>
<!-- Node490&#45;&gt;Node485 -->
<g id="edge17" class="edge">
<title>Node490&#45;&gt;Node485</title>
<path fill="none" stroke="#191970" d="M265.3574,-238.7176C273.7488,-239.7606 282.4079,-240.8369 290.8591,-241.8874"/>
<polygon fill="#191970" stroke="#191970" points="290.6774,-245.3916 301.0327,-243.1519 291.5408,-238.4451 290.6774,-245.3916"/>
</g>
<!-- Node491&#45;&gt;Node485 -->
<g id="edge19" class="edge">
<title>Node491&#45;&gt;Node485</title>
<path fill="none" stroke="#191970" d="M242.2606,-166.5558C250.088,-169.2306 258.1783,-172.5309 265.3096,-176.5 292.8098,-191.8059 319.8066,-216.4581 336.2073,-232.8179"/>
<polygon fill="#191970" stroke="#191970" points="333.8596,-235.4224 343.3632,-240.1056 338.8543,-230.5181 333.8596,-235.4224"/>
</g>
<!-- Node493&#45;&gt;Node485 -->
<g id="edge22" class="edge">
<title>Node493&#45;&gt;Node485</title>
<path fill="none" stroke="#191970" d="M245.6428,-129.5138C252.5369,-132.0984 259.4004,-135.3733 265.3096,-139.5 300.5432,-164.1055 328.4816,-207.1345 342.4148,-231.4423"/>
<polygon fill="#191970" stroke="#191970" points="339.4376,-233.2901 347.3587,-240.3262 345.5542,-229.8862 339.4376,-233.2901"/>
</g>
<!-- Node494&#45;&gt;Node484 -->
<g id="edge24" class="edge">
<title>Node494&#45;&gt;Node484</title>
<path fill="none" stroke="#191970" d="M247.1579,-203.5686C253.6068,-206.1234 259.9252,-209.374 265.3096,-213.5 288.4991,-231.2701 278.3357,-250.4519 301.3096,-268.5 303.3374,-270.093 305.5174,-271.5517 307.7933,-272.8865"/>
<polygon fill="#191970" stroke="#191970" points="306.4168,-276.1111 316.9276,-277.4426 309.5412,-269.8471 306.4168,-276.1111"/>
</g>
<!-- Node494&#45;&gt;Node485 -->
<g id="edge25" class="edge">
<title>Node494&#45;&gt;Node485</title>
<path fill="none" stroke="#191970" d="M236.3627,-203.5377C245.6627,-206.5574 255.967,-210.0385 265.3096,-213.5 284.4908,-220.6067 305.705,-229.3884 322.3589,-236.4992"/>
<polygon fill="#191970" stroke="#191970" points="321.0183,-239.7326 331.5876,-240.4676 323.7835,-233.3019 321.0183,-239.7326"/>
</g>
</g>
</svg>
