<?xml version="1.0" encoding="UTF-8" standalone="no"?>
<!DOCTYPE svg PUBLIC "-//W3C//DTD SVG 1.1//EN"
 "http://www.w3.org/Graphics/SVG/1.1/DTD/svg11.dtd">
<!-- Generated by graphviz version 2.40.1 (20161225.0304)
 -->
<!-- Title: CKey::MakeNewKey Pages: 1 -->
<svg width="462pt" height="101pt"
 viewBox="0.00 0.00 461.84 101.00" xmlns="http://www.w3.org/2000/svg" xmlns:xlink="http://www.w3.org/1999/xlink">
<g id="graph0" class="graph" transform="scale(1 1) rotate(0) translate(4 97)">
<title>CKey::MakeNewKey</title>
<polygon fill="#ffffff" stroke="transparent" points="-4,4 -4,-97 457.8379,-97 457.8379,4 -4,4"/>
<!-- Node171 -->
<g id="node1" class="node">
<title>Node171</title>
<polygon fill="#bfbfbf" stroke="#000000" points="0,-37.5 0,-55.5 107.6992,-55.5 107.6992,-37.5 0,-37.5"/>
<text text-anchor="middle" x="53.8496" y="-43.5" font-family="Helvetica,sans-Serif" font-size="10.00" fill="#000000">CKey::MakeNewKey</text>
</g>
<!-- Node172 -->
<g id="node2" class="node">
<title>Node172</title>
<g id="a_node2"><a xlink:href="group__map_wallet.html#ga5abb589b31879b8f4bf1890c22f15f64" target="_top" xlink:title="keystore implementation Generate a new key ">
<polygon fill="#ffffff" stroke="#000000" points="146.7607,-74.5 146.7607,-92.5 281.8867,-92.5 281.8867,-74.5 146.7607,-74.5"/>
<text text-anchor="middle" x="214.3237" y="-80.5" font-family="Helvetica,sans-Serif" font-size="10.00" fill="#000000">CWallet::GenerateNewKey</text>
</a>
</g>
</g>
<!-- Node171&#45;&gt;Node172 -->
<g id="edge1" class="edge">
<title>Node171&#45;&gt;Node172</title>
<path fill="none" stroke="#191970" d="M103.0881,-57.8528C126.2455,-63.1921 153.4735,-69.47 175.1948,-74.4782"/>
<polygon fill="#191970" stroke="#191970" points="103.6367,-54.3875 93.106,-55.5512 102.064,-61.2085 103.6367,-54.3875"/>
</g>
<!-- Node174 -->
<g id="node4" class="node">
<title>Node174</title>
<g id="a_node4"><a xlink:href="group__map_wallet.html#ga35c26d9e81464f04a45375647c251d67" target="_top" xlink:title="CWallet::GenerateNewSeed">
<polygon fill="#ffffff" stroke="#000000" points="143.6992,-37.5 143.6992,-55.5 284.9482,-55.5 284.9482,-37.5 143.6992,-37.5"/>
<text text-anchor="middle" x="214.3237" y="-43.5" font-family="Helvetica,sans-Serif" font-size="10.00" fill="#000000">CWallet::GenerateNewSeed</text>
</a>
</g>
</g>
<!-- Node171&#45;&gt;Node174 -->
<g id="edge3" class="edge">
<title>Node171&#45;&gt;Node174</title>
<path fill="none" stroke="#191970" d="M117.8569,-46.5C126.2808,-46.5 134.9538,-46.5 143.4831,-46.5"/>
<polygon fill="#191970" stroke="#191970" points="117.7316,-43.0001 107.7316,-46.5 117.7316,-50.0001 117.7316,-43.0001"/>
</g>
<!-- Node177 -->
<g id="node7" class="node">
<title>Node177</title>
<g id="a_node7"><a xlink:href="key_8h.html#adc8d142f5bcd2ca6646462fb45a7945d" target="_top" xlink:title="Check that required EC support is available at runtime. ">
<polygon fill="#ffffff" stroke="#000000" points="158.2476,-.5 158.2476,-18.5 270.3999,-18.5 270.3999,-.5 158.2476,-.5"/>
<text text-anchor="middle" x="214.3237" y="-6.5" font-family="Helvetica,sans-Serif" font-size="10.00" fill="#000000">ECC_InitSanityCheck</text>
</a>
</g>
</g>
<!-- Node171&#45;&gt;Node177 -->
<g id="edge6" class="edge">
<title>Node171&#45;&gt;Node177</title>
<path fill="none" stroke="#191970" d="M103.0881,-35.1472C126.2455,-29.8079 153.4735,-23.53 175.1948,-18.5218"/>
<polygon fill="#191970" stroke="#191970" points="102.064,-31.7915 93.106,-37.4488 103.6367,-38.6125 102.064,-31.7915"/>
</g>
<!-- Node173 -->
<g id="node3" class="node">
<title>Node173</title>
<g id="a_node3"><a xlink:href="group___actions.html#gac452f46eafeb2b4adfe86f7208048032" target="_top" xlink:title="CWallet::GetKeyFromPool">
<polygon fill="#ffffff" stroke="#000000" points="320.9482,-74.5 320.9482,-92.5 453.8379,-92.5 453.8379,-74.5 320.9482,-74.5"/>
<text text-anchor="middle" x="387.3931" y="-80.5" font-family="Helvetica,sans-Serif" font-size="10.00" fill="#000000">CWallet::GetKeyFromPool</text>
</a>
</g>
</g>
<!-- Node172&#45;&gt;Node173 -->
<g id="edge2" class="edge">
<title>Node172&#45;&gt;Node173</title>
<path fill="none" stroke="#191970" d="M292.4377,-83.5C301.9155,-83.5 311.5292,-83.5 320.8184,-83.5"/>
<polygon fill="#191970" stroke="#191970" points="292.2286,-80.0001 282.2286,-83.5 292.2285,-87.0001 292.2286,-80.0001"/>
</g>
<!-- Node175 -->
<g id="node5" class="node">
<title>Node175</title>
<g id="a_node5"><a xlink:href="group__map_wallet.html#gab34fe5bf771619dcbe22a65f013e5469" target="_top" xlink:title="CWallet::EncryptWallet">
<polygon fill="#ffffff" stroke="#000000" points="328.6362,-37.5 328.6362,-55.5 446.1499,-55.5 446.1499,-37.5 328.6362,-37.5"/>
<text text-anchor="middle" x="387.3931" y="-43.5" font-family="Helvetica,sans-Serif" font-size="10.00" fill="#000000">CWallet::EncryptWallet</text>
</a>
</g>
</g>
<!-- Node174&#45;&gt;Node175 -->
<g id="edge4" class="edge">
<title>Node174&#45;&gt;Node175</title>
<path fill="none" stroke="#191970" d="M295.4019,-46.5C306.5526,-46.5 317.8245,-46.5 328.4732,-46.5"/>
<polygon fill="#191970" stroke="#191970" points="295.2171,-43.0001 285.217,-46.5 295.217,-50.0001 295.2171,-43.0001"/>
</g>
<!-- Node176 -->
<g id="node6" class="node">
<title>Node176</title>
<g id="a_node6"><a xlink:href="rpcwallet_8cpp.html#a61c7a90d1b36888fe11b751e746e18c0" target="_top" xlink:title="sethdseed">
<polygon fill="#ffffff" stroke="#000000" points="356.3193,-.5 356.3193,-18.5 418.4668,-18.5 418.4668,-.5 356.3193,-.5"/>
<text text-anchor="middle" x="387.3931" y="-6.5" font-family="Helvetica,sans-Serif" font-size="10.00" fill="#000000">sethdseed</text>
</a>
</g>
</g>
<!-- Node174&#45;&gt;Node176 -->
<g id="edge5" class="edge">
<title>Node174&#45;&gt;Node176</title>
<path fill="none" stroke="#191970" d="M266.6937,-35.304C295.8615,-29.0683 331.1985,-21.5137 356.0774,-16.1949"/>
<polygon fill="#191970" stroke="#191970" points="265.7085,-31.9354 256.6613,-37.4488 267.172,-38.7807 265.7085,-31.9354"/>
</g>
</g>
</svg>
