<?xml version="1.0" encoding="UTF-8" standalone="no"?>
<!DOCTYPE svg PUBLIC "-//W3C//DTD SVG 1.1//EN"
 "http://www.w3.org/Graphics/SVG/1.1/DTD/svg11.dtd">
<!-- Generated by graphviz version 2.40.1 (20161225.0304)
 -->
<!-- Title: SendCoinsEntry::SendCoinsEntry Pages: 1 -->
<svg width="509pt" height="234pt"
 viewBox="0.00 0.00 509.30 234.00" xmlns="http://www.w3.org/2000/svg" xmlns:xlink="http://www.w3.org/1999/xlink">
<g id="graph0" class="graph" transform="scale(1 1) rotate(0) translate(4 230)">
<title>SendCoinsEntry::SendCoinsEntry</title>
<polygon fill="#ffffff" stroke="transparent" points="-4,4 -4,-230 505.3037,-230 505.3037,4 -4,4"/>
<!-- Node0 -->
<g id="node1" class="node">
<title>Node0</title>
<polygon fill="#bfbfbf" stroke="#000000" points="0,-98.5 0,-126.5 142.7383,-126.5 142.7383,-98.5 0,-98.5"/>
<text text-anchor="start" x="8" y="-114.5" font-family="Helvetica,sans-Serif" font-size="10.00" fill="#000000">SendCoinsEntry::SendCoins</text>
<text text-anchor="middle" x="71.3691" y="-104.5" font-family="Helvetica,sans-Serif" font-size="10.00" fill="#000000">Entry</text>
</g>
<!-- Node1 -->
<g id="node2" class="node">
<title>Node1</title>
<g id="a_node2"><a xlink:href="class_platform_style.html#a3f4ff8b7a2054cbd4283e67208523035" target="_top" xlink:title="Colorize an icon (given filename) with the icon color. ">
<polygon fill="#ffffff" stroke="#000000" points="179.8564,-207.5 179.8564,-225.5 331.4717,-225.5 331.4717,-207.5 179.8564,-207.5"/>
<text text-anchor="middle" x="255.6641" y="-213.5" font-family="Helvetica,sans-Serif" font-size="10.00" fill="#000000">PlatformStyle::SingleColorIcon</text>
</a>
</g>
</g>
<!-- Node0&#45;&gt;Node1 -->
<g id="edge1" class="edge">
<title>Node0&#45;&gt;Node1</title>
<path fill="none" stroke="#191970" d="M84.872,-126.7335C103.948,-145.9791 140.7219,-180.0141 178.7383,-198.5 183.3234,-200.7296 188.1989,-202.6912 193.1837,-204.4156"/>
<polygon fill="#191970" stroke="#191970" points="192.2679,-207.7964 202.857,-207.4476 194.3616,-201.1168 192.2679,-207.7964"/>
</g>
<!-- Node3 -->
<g id="node4" class="node">
<title>Node3</title>
<g id="a_node4"><a xlink:href="class_platform_style.html#a67b6942f6dcf2ca765f8af2d6f377ce8" target="_top" xlink:title="PlatformStyle::getUseExtra\lSpacing">
<polygon fill="#ffffff" stroke="#000000" points="187.6421,-160.5 187.6421,-188.5 323.686,-188.5 323.686,-160.5 187.6421,-160.5"/>
<text text-anchor="start" x="195.6421" y="-176.5" font-family="Helvetica,sans-Serif" font-size="10.00" fill="#000000">PlatformStyle::getUseExtra</text>
<text text-anchor="middle" x="255.6641" y="-166.5" font-family="Helvetica,sans-Serif" font-size="10.00" fill="#000000">Spacing</text>
</a>
</g>
</g>
<!-- Node0&#45;&gt;Node3 -->
<g id="edge3" class="edge">
<title>Node0&#45;&gt;Node3</title>
<path fill="none" stroke="#191970" d="M113.1885,-126.5688C140.2863,-135.6849 175.7601,-147.6189 204.5316,-157.2982"/>
<polygon fill="#191970" stroke="#191970" points="203.4161,-160.6156 214.0102,-160.4869 205.6482,-153.981 203.4161,-160.6156"/>
</g>
<!-- Node4 -->
<g id="node5" class="node">
<title>Node4</title>
<g id="a_node5"><a xlink:href="namespace_g_u_i_util.html#aeb3b902c0536bdb9c2def3d3e465aeba" target="_top" xlink:title="GUIUtil::setupAddressWidget">
<polygon fill="#ffffff" stroke="#000000" points="182.6396,-84.5 182.6396,-102.5 328.6885,-102.5 328.6885,-84.5 182.6396,-84.5"/>
<text text-anchor="middle" x="255.6641" y="-90.5" font-family="Helvetica,sans-Serif" font-size="10.00" fill="#000000">GUIUtil::setupAddressWidget</text>
</a>
</g>
</g>
<!-- Node0&#45;&gt;Node4 -->
<g id="edge4" class="edge">
<title>Node0&#45;&gt;Node4</title>
<path fill="none" stroke="#191970" d="M142.8861,-105.1269C152.4982,-104.1359 162.426,-103.1124 172.2214,-102.1026"/>
<polygon fill="#191970" stroke="#191970" points="172.7742,-105.5642 182.3625,-101.0571 172.0563,-98.6011 172.7742,-105.5642"/>
</g>
<!-- Node5 -->
<g id="node6" class="node">
<title>Node5</title>
<g id="a_node6"><a xlink:href="namespace_g_u_i_util.html#af6b9624383a5313a5d856c59913b599b" target="_top" xlink:title="GUIUtil::fixedPitchFont">
<polygon fill="#ffffff" stroke="#000000" points="376.3755,-122.5 376.3755,-140.5 493.5181,-140.5 493.5181,-122.5 376.3755,-122.5"/>
<text text-anchor="middle" x="434.9468" y="-128.5" font-family="Helvetica,sans-Serif" font-size="10.00" fill="#000000">GUIUtil::fixedPitchFont</text>
</a>
</g>
</g>
<!-- Node0&#45;&gt;Node5 -->
<g id="edge8" class="edge">
<title>Node0&#45;&gt;Node5</title>
<path fill="none" stroke="#191970" d="M142.7666,-116.2311C207.4129,-119.6094 302.0343,-124.5542 365.9309,-127.8933"/>
<polygon fill="#191970" stroke="#191970" points="366.1371,-131.4088 376.3062,-128.4355 366.5025,-124.4183 366.1371,-131.4088"/>
</g>
<!-- Node8 -->
<g id="node9" class="node">
<title>Node8</title>
<g id="a_node9"><a xlink:href="class_send_coins_entry.html#aa749b51119d0504f204bbf7c90744e2e" target="_top" xlink:title="SendCoinsEntry::deleteClicked">
<polygon fill="#ffffff" stroke="#000000" points="178.7383,-47.5 178.7383,-65.5 332.5898,-65.5 332.5898,-47.5 178.7383,-47.5"/>
<text text-anchor="middle" x="255.6641" y="-53.5" font-family="Helvetica,sans-Serif" font-size="10.00" fill="#000000">SendCoinsEntry::deleteClicked</text>
</a>
</g>
</g>
<!-- Node0&#45;&gt;Node8 -->
<g id="edge9" class="edge">
<title>Node0&#45;&gt;Node8</title>
<path fill="none" stroke="#191970" d="M109.364,-98.4754C129.7845,-91.1746 155.4793,-82.3649 178.7383,-75.5 187.5555,-72.8976 197.0114,-70.3591 206.1718,-68.0285"/>
<polygon fill="#191970" stroke="#191970" points="207.0965,-71.4052 215.9515,-65.588 205.4016,-64.6135 207.0965,-71.4052"/>
</g>
<!-- Node9 -->
<g id="node10" class="node">
<title>Node9</title>
<g id="a_node10"><a xlink:href="class_send_coins_entry.html#a8ef07aa05f905f1a14bff42f89a9e559" target="_top" xlink:title="SendCoinsEntry::useAvailable\lBalanceClicked">
<polygon fill="#ffffff" stroke="#000000" points="180.4912,-.5 180.4912,-28.5 330.8369,-28.5 330.8369,-.5 180.4912,-.5"/>
<text text-anchor="start" x="188.4912" y="-16.5" font-family="Helvetica,sans-Serif" font-size="10.00" fill="#000000">SendCoinsEntry::useAvailable</text>
<text text-anchor="middle" x="255.6641" y="-6.5" font-family="Helvetica,sans-Serif" font-size="10.00" fill="#000000">BalanceClicked</text>
</a>
</g>
</g>
<!-- Node0&#45;&gt;Node9 -->
<g id="edge10" class="edge">
<title>Node0&#45;&gt;Node9</title>
<path fill="none" stroke="#191970" d="M87.7958,-98.4885C108.0068,-81.873 143.9343,-54.3179 178.7383,-37.5 182.7291,-35.5716 186.9152,-33.7674 191.1867,-32.0863"/>
<polygon fill="#191970" stroke="#191970" points="192.4605,-35.347 200.6312,-28.6023 190.0378,-28.7796 192.4605,-35.347"/>
</g>
<!-- Node2 -->
<g id="node3" class="node">
<title>Node2</title>
<g id="a_node3"><a xlink:href="class_platform_style.html#a76949291f8dfc8b7a34f90cf119ed8e4" target="_top" xlink:title="PlatformStyle::SingleColor">
<polygon fill="#ffffff" stroke="#000000" points="368.5898,-207.5 368.5898,-225.5 501.3037,-225.5 501.3037,-207.5 368.5898,-207.5"/>
<text text-anchor="middle" x="434.9468" y="-213.5" font-family="Helvetica,sans-Serif" font-size="10.00" fill="#000000">PlatformStyle::SingleColor</text>
</a>
</g>
</g>
<!-- Node1&#45;&gt;Node2 -->
<g id="edge2" class="edge">
<title>Node1&#45;&gt;Node2</title>
<path fill="none" stroke="#191970" d="M331.6961,-216.5C340.4762,-216.5 349.4347,-216.5 358.224,-216.5"/>
<polygon fill="#191970" stroke="#191970" points="358.4433,-220.0001 368.4433,-216.5 358.4433,-213.0001 358.4433,-220.0001"/>
</g>
<!-- Node4&#45;&gt;Node5 -->
<g id="edge5" class="edge">
<title>Node4&#45;&gt;Node5</title>
<path fill="none" stroke="#191970" d="M298.1516,-102.5055C323.4014,-107.8573 355.629,-114.6881 382.4605,-120.3752"/>
<polygon fill="#191970" stroke="#191970" points="381.9455,-123.8438 392.454,-122.4934 383.397,-116.9959 381.9455,-123.8438"/>
</g>
<!-- Node6 -->
<g id="node7" class="node">
<title>Node6</title>
<g id="a_node7"><a xlink:href="chainparams_8cpp.html#ace5c5b706d71a324a417dd2db394fd4a" target="_top" xlink:title="Return the currently selected parameters. ">
<polygon fill="#ffffff" stroke="#000000" points="409.7202,-84.5 409.7202,-102.5 460.1733,-102.5 460.1733,-84.5 409.7202,-84.5"/>
<text text-anchor="middle" x="434.9468" y="-90.5" font-family="Helvetica,sans-Serif" font-size="10.00" fill="#000000">Params</text>
</a>
</g>
</g>
<!-- Node4&#45;&gt;Node6 -->
<g id="edge6" class="edge">
<title>Node4&#45;&gt;Node6</title>
<path fill="none" stroke="#191970" d="M328.8438,-93.5C353.1374,-93.5 379.1014,-93.5 399.2646,-93.5"/>
<polygon fill="#191970" stroke="#191970" points="399.5305,-97.0001 409.5305,-93.5 399.5305,-90.0001 399.5305,-97.0001"/>
</g>
<!-- Node7 -->
<g id="node8" class="node">
<title>Node7</title>
<g id="a_node8"><a xlink:href="class_q_validated_line_edit.html#af365be1760e17fd1ea6b430fa6005bd2" target="_top" xlink:title="QValidatedLineEdit\l::setCheckValidator">
<polygon fill="#ffffff" stroke="#000000" points="383.9609,-37.5 383.9609,-65.5 485.9326,-65.5 485.9326,-37.5 383.9609,-37.5"/>
<text text-anchor="start" x="391.9609" y="-53.5" font-family="Helvetica,sans-Serif" font-size="10.00" fill="#000000">QValidatedLineEdit</text>
<text text-anchor="middle" x="434.9468" y="-43.5" font-family="Helvetica,sans-Serif" font-size="10.00" fill="#000000">::setCheckValidator</text>
</a>
</g>
</g>
<!-- Node4&#45;&gt;Node7 -->
<g id="edge7" class="edge">
<title>Node4&#45;&gt;Node7</title>
<path fill="none" stroke="#191970" d="M294.4044,-84.4387C306.6221,-81.5801 320.1702,-78.4091 332.5898,-75.5 346.0321,-72.3514 360.4669,-68.9681 374.1341,-65.7638"/>
<polygon fill="#191970" stroke="#191970" points="374.9881,-69.1585 383.9251,-63.4681 373.3901,-62.3434 374.9881,-69.1585"/>
</g>
</g>
</svg>
