<?xml version="1.0" encoding="UTF-8" standalone="no"?>
<!DOCTYPE svg PUBLIC "-//W3C//DTD SVG 1.1//EN"
 "http://www.w3.org/Graphics/SVG/1.1/DTD/svg11.dtd">
<!-- Generated by graphviz version 2.40.1 (20161225.0304)
 -->
<!-- Title: Hash::formatHMACKey Pages: 1 -->
<svg width="350pt" height="212pt"
 viewBox="0.00 0.00 350.29 212.00" xmlns="http://www.w3.org/2000/svg" xmlns:xlink="http://www.w3.org/1999/xlink">
<g id="graph0" class="graph" transform="scale(1 1) rotate(0) translate(4 208)">
<title>Hash::formatHMACKey</title>
<polygon fill="#ffffff" stroke="transparent" points="-4,4 -4,-208 346.29,-208 346.29,4 -4,4"/>
<!-- Node14 -->
<g id="node1" class="node">
<title>Node14</title>
<polygon fill="#bfbfbf" stroke="#000000" points="0,-92.5 0,-110.5 119.916,-110.5 119.916,-92.5 0,-92.5"/>
<text text-anchor="middle" x="59.958" y="-98.5" font-family="Helvetica,sans-Serif" font-size="10.00" fill="#000000">Hash::formatHMACKey</text>
</g>
<!-- Node15 -->
<g id="node2" class="node">
<title>Node15</title>
<g id="a_node2"><a xlink:href="class_hash.html#a4e4297812e3483410556830fe5d47bdf" target="_top" xlink:title="Size of the internal block used by the hash algorithm. ">
<polygon fill="#ffffff" stroke="#000000" points="155.916,-185.5 155.916,-203.5 243.6152,-203.5 243.6152,-185.5 155.916,-185.5"/>
<text text-anchor="middle" x="199.7656" y="-191.5" font-family="Helvetica,sans-Serif" font-size="10.00" fill="#000000">Hash::blockSize</text>
</a>
</g>
</g>
<!-- Node14&#45;&gt;Node15 -->
<g id="edge1" class="edge">
<title>Node14&#45;&gt;Node15</title>
<path fill="none" stroke="#191970" d="M69.6629,-110.5784C86.2862,-125.7711 121.7305,-156.632 155.916,-176.5 158.762,-178.154 161.7891,-179.7306 164.8713,-181.2136"/>
<polygon fill="#191970" stroke="#191970" points="163.5995,-184.4788 174.1572,-185.3655 166.4568,-178.0885 163.5995,-184.4788"/>
</g>
<!-- Node16 -->
<g id="node3" class="node">
<title>Node16</title>
<g id="a_node3"><a xlink:href="class_hash.html#a7b94309acaa5f52386785fb780e5be61" target="_top" xlink:title="Resets the hash ready for a new hashing process. ">
<polygon fill="#ffffff" stroke="#000000" points="166.1992,-148.5 166.1992,-166.5 233.332,-166.5 233.332,-148.5 166.1992,-148.5"/>
<text text-anchor="middle" x="199.7656" y="-154.5" font-family="Helvetica,sans-Serif" font-size="10.00" fill="#000000">Hash::reset</text>
</a>
</g>
</g>
<!-- Node14&#45;&gt;Node16 -->
<g id="edge2" class="edge">
<title>Node14&#45;&gt;Node16</title>
<path fill="none" stroke="#191970" d="M82.7317,-110.622C105.7847,-119.8559 141.638,-134.217 167.5882,-144.6113"/>
<polygon fill="#191970" stroke="#191970" points="166.4173,-147.9126 177.0017,-148.3819 169.0201,-141.4145 166.4173,-147.9126"/>
</g>
<!-- Node17 -->
<g id="node4" class="node">
<title>Node17</title>
<g id="a_node4"><a xlink:href="glibc__compat_8cpp.html#a0f46826ab0466591e136db24394923cf" target="_top" xlink:title="memcpy">
<polygon fill="#ffffff" stroke="#000000" points="172.874,-111.5 172.874,-129.5 226.6572,-129.5 226.6572,-111.5 172.874,-111.5"/>
<text text-anchor="middle" x="199.7656" y="-117.5" font-family="Helvetica,sans-Serif" font-size="10.00" fill="#000000">memcpy</text>
</a>
</g>
</g>
<!-- Node14&#45;&gt;Node17 -->
<g id="edge3" class="edge">
<title>Node14&#45;&gt;Node17</title>
<path fill="none" stroke="#191970" d="M120.0604,-109.668C134.543,-111.6362 149.5983,-113.6822 162.6729,-115.4591"/>
<polygon fill="#191970" stroke="#191970" points="162.3047,-118.9411 172.685,-116.8197 163.2474,-112.0049 162.3047,-118.9411"/>
</g>
<!-- Node19 -->
<g id="node6" class="node">
<title>Node19</title>
<g id="a_node6"><a xlink:href="class_hash.html#aec9761ee427d122e7450de8df200265c" target="_top" xlink:title="Updates the hash with more data. ">
<polygon fill="#ffffff" stroke="#000000" points="162.022,-74.5 162.022,-92.5 237.5093,-92.5 237.5093,-74.5 162.022,-74.5"/>
<text text-anchor="middle" x="199.7656" y="-80.5" font-family="Helvetica,sans-Serif" font-size="10.00" fill="#000000">Hash::update</text>
</a>
</g>
</g>
<!-- Node14&#45;&gt;Node19 -->
<g id="edge5" class="edge">
<title>Node14&#45;&gt;Node19</title>
<path fill="none" stroke="#191970" d="M120.0604,-93.7619C130.7177,-92.3898 141.6851,-90.9778 151.9451,-89.6568"/>
<polygon fill="#191970" stroke="#191970" points="152.4605,-93.1194 161.9317,-88.3711 151.5666,-86.1767 152.4605,-93.1194"/>
</g>
<!-- Node20 -->
<g id="node7" class="node">
<title>Node20</title>
<g id="a_node7"><a xlink:href="class_hash.html#adcdd30de3e5ecaa2f798c0c5644d9ef8" target="_top" xlink:title="Size of the hash result from finalize(). ">
<polygon fill="#ffffff" stroke="#000000" points="156.7461,-37.5 156.7461,-55.5 242.7852,-55.5 242.7852,-37.5 156.7461,-37.5"/>
<text text-anchor="middle" x="199.7656" y="-43.5" font-family="Helvetica,sans-Serif" font-size="10.00" fill="#000000">Hash::hashSize</text>
</a>
</g>
</g>
<!-- Node14&#45;&gt;Node20 -->
<g id="edge6" class="edge">
<title>Node14&#45;&gt;Node20</title>
<path fill="none" stroke="#191970" d="M83.0444,-92.4179C106.014,-83.3817 141.4651,-69.4353 167.2724,-59.2828"/>
<polygon fill="#191970" stroke="#191970" points="168.6205,-62.5136 176.6449,-55.5956 166.0578,-55.9995 168.6205,-62.5136"/>
</g>
<!-- Node21 -->
<g id="node8" class="node">
<title>Node21</title>
<g id="a_node8"><a xlink:href="class_hash.html#a09b3ccec22763fc86b1415695862977c" target="_top" xlink:title="Finalizes the hashing process and returns the hash. ">
<polygon fill="#ffffff" stroke="#000000" points="161.751,-.5 161.751,-18.5 237.7803,-18.5 237.7803,-.5 161.751,-.5"/>
<text text-anchor="middle" x="199.7656" y="-6.5" font-family="Helvetica,sans-Serif" font-size="10.00" fill="#000000">Hash::finalize</text>
</a>
</g>
</g>
<!-- Node14&#45;&gt;Node21 -->
<g id="edge7" class="edge">
<title>Node14&#45;&gt;Node21</title>
<path fill="none" stroke="#191970" d="M70.2952,-92.2837C87.2664,-77.4746 122.4967,-48.0636 155.916,-28.5 159.3618,-26.4828 163.0617,-24.5526 166.7983,-22.748"/>
<polygon fill="#191970" stroke="#191970" points="168.3868,-25.8705 176.0388,-18.5426 165.4872,-19.4993 168.3868,-25.8705"/>
</g>
<!-- Node18 -->
<g id="node5" class="node">
<title>Node18</title>
<g id="a_node5"><a xlink:href="glibc__compat_8cpp.html#a9778d49e9029dd75bc53ecbbf9f5e9a1" target="_top" xlink:title="memmove">
<polygon fill="#ffffff" stroke="#000000" points="279.6152,-111.5 279.6152,-129.5 342.29,-129.5 342.29,-111.5 279.6152,-111.5"/>
<text text-anchor="middle" x="310.9526" y="-117.5" font-family="Helvetica,sans-Serif" font-size="10.00" fill="#000000">memmove</text>
</a>
</g>
</g>
<!-- Node17&#45;&gt;Node18 -->
<g id="edge4" class="edge">
<title>Node17&#45;&gt;Node18</title>
<path fill="none" stroke="#191970" d="M226.6809,-120.5C239.5067,-120.5 255.1369,-120.5 269.4369,-120.5"/>
<polygon fill="#191970" stroke="#191970" points="269.5553,-124.0001 279.5553,-120.5 269.5552,-117.0001 269.5553,-124.0001"/>
</g>
</g>
</svg>
