<?xml version="1.0" encoding="UTF-8" standalone="no"?>
<!DOCTYPE svg PUBLIC "-//W3C//DTD SVG 1.1//EN"
 "http://www.w3.org/Graphics/SVG/1.1/DTD/svg11.dtd">
<!-- Generated by graphviz version 2.40.1 (20161225.0304)
 -->
<!-- Title: BerkeleyBatch::WriteVersion Pages: 1 -->
<svg width="337pt" height="64pt"
 viewBox="0.00 0.00 337.06 64.00" xmlns="http://www.w3.org/2000/svg" xmlns:xlink="http://www.w3.org/1999/xlink">
<g id="graph0" class="graph" transform="scale(1 1) rotate(0) translate(4 60)">
<title>BerkeleyBatch::WriteVersion</title>
<polygon fill="#ffffff" stroke="transparent" points="-4,4 -4,-60 333.0596,-60 333.0596,4 -4,4"/>
<!-- Node247 -->
<g id="node1" class="node">
<title>Node247</title>
<polygon fill="#bfbfbf" stroke="#000000" points="0,-18.5 0,-36.5 142.5479,-36.5 142.5479,-18.5 0,-18.5"/>
<text text-anchor="middle" x="71.2739" y="-24.5" font-family="Helvetica,sans-Serif" font-size="10.00" fill="#000000">BerkeleyBatch::WriteVersion</text>
</g>
<!-- Node248 -->
<g id="node2" class="node">
<title>Node248</title>
<g id="a_node2"><a xlink:href="class_berkeley_batch.html#ae8f502cca937a7339e3e8fc39c9791e1" target="_top" xlink:title="BerkeleyBatch::BerkeleyBatch">
<polygon fill="#ffffff" stroke="#000000" points="178.5479,-37.5 178.5479,-55.5 329.0596,-55.5 329.0596,-37.5 178.5479,-37.5"/>
<text text-anchor="middle" x="253.8037" y="-43.5" font-family="Helvetica,sans-Serif" font-size="10.00" fill="#000000">BerkeleyBatch::BerkeleyBatch</text>
</a>
</g>
</g>
<!-- Node247&#45;&gt;Node248 -->
<g id="edge1" class="edge">
<title>Node247&#45;&gt;Node248</title>
<path fill="none" stroke="#191970" d="M152.5903,-35.9644C161.1376,-36.8541 169.8027,-37.7561 178.2809,-38.6386"/>
<polygon fill="#191970" stroke="#191970" points="152.9376,-32.4818 142.6289,-34.9275 152.2128,-39.4441 152.9376,-32.4818"/>
</g>
<!-- Node249 -->
<g id="node3" class="node">
<title>Node249</title>
<g id="a_node3"><a xlink:href="class_wallet_batch.html#ac4fe5c8223a895a9edf89173407d1595" target="_top" xlink:title="Write wallet version. ">
<polygon fill="#ffffff" stroke="#000000" points="188.2744,-.5 188.2744,-18.5 319.333,-18.5 319.333,-.5 188.2744,-.5"/>
<text text-anchor="middle" x="253.8037" y="-6.5" font-family="Helvetica,sans-Serif" font-size="10.00" fill="#000000">WalletBatch::WriteVersion</text>
</a>
</g>
</g>
<!-- Node247&#45;&gt;Node249 -->
<g id="edge2" class="edge">
<title>Node247&#45;&gt;Node249</title>
<path fill="none" stroke="#191970" d="M152.9191,-19.4486C164.715,-18.2854 176.7277,-17.1008 188.1571,-15.9737"/>
<polygon fill="#191970" stroke="#191970" points="152.2371,-15.9988 142.6289,-20.4634 152.9242,-22.965 152.2371,-15.9988"/>
</g>
</g>
</svg>
