<?xml version="1.0" encoding="UTF-8" standalone="no"?>
<!DOCTYPE svg PUBLIC "-//W3C//DTD SVG 1.1//EN"
 "http://www.w3.org/Graphics/SVG/1.1/DTD/svg11.dtd">
<!-- Generated by graphviz version 2.40.1 (20161225.0304)
 -->
<!-- Title: ClientModel::dataDir Pages: 1 -->
<svg width="865pt" height="84pt"
 viewBox="0.00 0.00 864.85 84.00" xmlns="http://www.w3.org/2000/svg" xmlns:xlink="http://www.w3.org/1999/xlink">
<g id="graph0" class="graph" transform="scale(1 1) rotate(0) translate(4 80)">
<title>ClientModel::dataDir</title>
<polygon fill="#ffffff" stroke="transparent" points="-4,4 -4,-80 860.8496,-80 860.8496,4 -4,4"/>
<!-- Node39 -->
<g id="node1" class="node">
<title>Node39</title>
<polygon fill="#bfbfbf" stroke="#000000" points="0,-30.5 0,-48.5 106.5957,-48.5 106.5957,-30.5 0,-30.5"/>
<text text-anchor="middle" x="53.2979" y="-36.5" font-family="Helvetica,sans-Serif" font-size="10.00" fill="#000000">ClientModel::dataDir</text>
</g>
<!-- Node40 -->
<g id="node2" class="node">
<title>Node40</title>
<g id="a_node2"><a xlink:href="class_r_p_c_console.html#a355349a33664a07628e9ca22a60f5fa7" target="_top" xlink:title="RPCConsole::setClientModel">
<polygon fill="#ffffff" stroke="#000000" points="142.5957,-30.5 142.5957,-48.5 288.0977,-48.5 288.0977,-30.5 142.5957,-30.5"/>
<text text-anchor="middle" x="215.3467" y="-36.5" font-family="Helvetica,sans-Serif" font-size="10.00" fill="#000000">RPCConsole::setClientModel</text>
</a>
</g>
</g>
<!-- Node39&#45;&gt;Node40 -->
<g id="edge1" class="edge">
<title>Node39&#45;&gt;Node40</title>
<path fill="none" stroke="#191970" d="M116.9031,-39.5C125.3073,-39.5 133.9739,-39.5 142.5178,-39.5"/>
<polygon fill="#191970" stroke="#191970" points="116.8078,-36.0001 106.8078,-39.5 116.8078,-43.0001 116.8078,-36.0001"/>
</g>
<!-- Node41 -->
<g id="node3" class="node">
<title>Node41</title>
<g id="a_node3"><a xlink:href="class_bitcoin_g_u_i.html#a99d71e1f8478ab937ce2522c8d3815e3" target="_top" xlink:title="Set the client model. ">
<polygon fill="#ffffff" stroke="#000000" points="324.0977,-30.5 324.0977,-48.5 459.5898,-48.5 459.5898,-30.5 324.0977,-30.5"/>
<text text-anchor="middle" x="391.8438" y="-36.5" font-family="Helvetica,sans-Serif" font-size="10.00" fill="#000000">BitcoinGUI::setClientModel</text>
</a>
</g>
</g>
<!-- Node40&#45;&gt;Node41 -->
<g id="edge2" class="edge">
<title>Node40&#45;&gt;Node41</title>
<path fill="none" stroke="#191970" d="M298.2402,-39.5C306.8761,-39.5 315.5807,-39.5 324.0215,-39.5"/>
<polygon fill="#191970" stroke="#191970" points="298.1538,-36.0001 288.1538,-39.5 298.1538,-43.0001 298.1538,-36.0001"/>
</g>
<!-- Node42 -->
<g id="node4" class="node">
<title>Node42</title>
<g id="a_node4"><a xlink:href="class_bitcoin_application.html#a37c560d4c04d14a6da151b82caf8888f" target="_top" xlink:title="Request core shutdown. ">
<polygon fill="#ffffff" stroke="#000000" points="757.4609,-47.5 757.4609,-75.5 856.8496,-75.5 856.8496,-47.5 757.4609,-47.5"/>
<text text-anchor="start" x="765.4609" y="-63.5" font-family="Helvetica,sans-Serif" font-size="10.00" fill="#000000">BitcoinApplication</text>
<text text-anchor="middle" x="807.1553" y="-53.5" font-family="Helvetica,sans-Serif" font-size="10.00" fill="#000000">::requestShutdown</text>
</a>
</g>
</g>
<!-- Node41&#45;&gt;Node42 -->
<g id="edge3" class="edge">
<title>Node41&#45;&gt;Node42</title>
<path fill="none" stroke="#191970" d="M469.9976,-43.64C554.3004,-48.1057 685.9976,-55.082 757.2807,-58.858"/>
<polygon fill="#191970" stroke="#191970" points="470.1301,-40.1422 459.9589,-43.1082 469.7598,-47.1324 470.1301,-40.1422"/>
</g>
<!-- Node43 -->
<g id="node5" class="node">
<title>Node43</title>
<g id="a_node5"><a xlink:href="class_bitcoin_application.html#a5bcf1bf32a7508326e0dd630a59a887d" target="_top" xlink:title="BitcoinApplication\l::initializeResult">
<polygon fill="#ffffff" stroke="#000000" points="495.5898,-4.5 495.5898,-32.5 590.5254,-32.5 590.5254,-4.5 495.5898,-4.5"/>
<text text-anchor="start" x="503.5898" y="-20.5" font-family="Helvetica,sans-Serif" font-size="10.00" fill="#000000">BitcoinApplication</text>
<text text-anchor="middle" x="543.0576" y="-10.5" font-family="Helvetica,sans-Serif" font-size="10.00" fill="#000000">::initializeResult</text>
</a>
</g>
</g>
<!-- Node41&#45;&gt;Node43 -->
<g id="edge4" class="edge">
<title>Node41&#45;&gt;Node43</title>
<path fill="none" stroke="#191970" d="M466.9371,-29.0713C476.6466,-27.7229 486.3675,-26.3729 495.459,-25.1103"/>
<polygon fill="#191970" stroke="#191970" points="466.2731,-25.6299 456.8496,-30.4722 467.236,-32.5633 466.2731,-25.6299"/>
</g>
<!-- Node44 -->
<g id="node6" class="node">
<title>Node44</title>
<g id="a_node6"><a xlink:href="class_bitcoin_application.html#a61afce9356e452c53ad4c83f5ca19df8" target="_top" xlink:title="BitcoinApplication\l::startThread">
<polygon fill="#ffffff" stroke="#000000" points="626.5254,-4.5 626.5254,-32.5 721.4609,-32.5 721.4609,-4.5 626.5254,-4.5"/>
<text text-anchor="start" x="634.5254" y="-20.5" font-family="Helvetica,sans-Serif" font-size="10.00" fill="#000000">BitcoinApplication</text>
<text text-anchor="middle" x="673.9932" y="-10.5" font-family="Helvetica,sans-Serif" font-size="10.00" fill="#000000">::startThread</text>
</a>
</g>
</g>
<!-- Node43&#45;&gt;Node44 -->
<g id="edge5" class="edge">
<title>Node43&#45;&gt;Node44</title>
<path fill="none" stroke="#191970" d="M600.8799,-18.5C609.3281,-18.5 617.9486,-18.5 626.1681,-18.5"/>
<polygon fill="#191970" stroke="#191970" points="600.6988,-15.0001 590.6987,-18.5 600.6987,-22.0001 600.6988,-15.0001"/>
</g>
<!-- Node44&#45;&gt;Node42 -->
<g id="edge7" class="edge">
<title>Node44&#45;&gt;Node42</title>
<path fill="none" stroke="#191970" d="M727.4616,-35.7657C739.4138,-39.6253 751.953,-43.6744 763.4551,-47.3886"/>
<polygon fill="#191970" stroke="#191970" points="728.1871,-32.3221 717.5954,-32.5798 726.036,-38.9834 728.1871,-32.3221"/>
</g>
<!-- Node45 -->
<g id="node7" class="node">
<title>Node45</title>
<g id="a_node7"><a xlink:href="class_bitcoin_application.html#ade19c44b87b00b6b19b433caf4c22ba6" target="_top" xlink:title="Request core initialization. ">
<polygon fill="#ffffff" stroke="#000000" points="759.6875,-.5 759.6875,-28.5 854.623,-28.5 854.623,-.5 759.6875,-.5"/>
<text text-anchor="start" x="767.6875" y="-16.5" font-family="Helvetica,sans-Serif" font-size="10.00" fill="#000000">BitcoinApplication</text>
<text text-anchor="middle" x="807.1553" y="-6.5" font-family="Helvetica,sans-Serif" font-size="10.00" fill="#000000">::requestInitialize</text>
</a>
</g>
</g>
<!-- Node44&#45;&gt;Node45 -->
<g id="edge6" class="edge">
<title>Node44&#45;&gt;Node45</title>
<path fill="none" stroke="#191970" d="M731.9017,-16.7605C741.0623,-16.4853 750.4457,-16.2035 759.3423,-15.9362"/>
<polygon fill="#191970" stroke="#191970" points="731.582,-13.2684 721.6916,-17.0672 731.7922,-20.2653 731.582,-13.2684"/>
</g>
</g>
</svg>
