<?xml version="1.0" encoding="UTF-8" standalone="no"?>
<!DOCTYPE svg PUBLIC "-//W3C//DTD SVG 1.1//EN"
 "http://www.w3.org/Graphics/SVG/1.1/DTD/svg11.dtd">
<!-- Generated by graphviz version 2.40.1 (20161225.0304)
 -->
<!-- Title: OptionsModel::node Pages: 1 -->
<svg width="1153pt" height="79pt"
 viewBox="0.00 0.00 1152.54 79.00" xmlns="http://www.w3.org/2000/svg" xmlns:xlink="http://www.w3.org/1999/xlink">
<g id="graph0" class="graph" transform="scale(1 1) rotate(0) translate(4 75)">
<title>OptionsModel::node</title>
<polygon fill="#ffffff" stroke="transparent" points="-4,4 -4,-75 1148.5381,-75 1148.5381,4 -4,4"/>
<!-- Node239 -->
<g id="node1" class="node">
<title>Node239</title>
<polygon fill="#bfbfbf" stroke="#000000" points="0,-26.5 0,-44.5 105.502,-44.5 105.502,-26.5 0,-26.5"/>
<text text-anchor="middle" x="52.751" y="-32.5" font-family="Helvetica,sans-Serif" font-size="10.00" fill="#000000">OptionsModel::node</text>
</g>
<!-- Node240 -->
<g id="node2" class="node">
<title>Node240</title>
<g id="a_node2"><a xlink:href="class_options_dialog.html#a44ffc21aae73b251333b75907aa8ff8c" target="_top" xlink:title="OptionsDialog::updateDefault\lProxyNets">
<polygon fill="#ffffff" stroke="#000000" points="141.502,-21.5 141.502,-49.5 288.1416,-49.5 288.1416,-21.5 141.502,-21.5"/>
<text text-anchor="start" x="149.502" y="-37.5" font-family="Helvetica,sans-Serif" font-size="10.00" fill="#000000">OptionsDialog::updateDefault</text>
<text text-anchor="middle" x="214.8218" y="-27.5" font-family="Helvetica,sans-Serif" font-size="10.00" fill="#000000">ProxyNets</text>
</a>
</g>
</g>
<!-- Node239&#45;&gt;Node240 -->
<g id="edge1" class="edge">
<title>Node239&#45;&gt;Node240</title>
<path fill="none" stroke="#191970" d="M115.8498,-35.5C124.203,-35.5 132.8239,-35.5 141.3329,-35.5"/>
<polygon fill="#191970" stroke="#191970" points="115.8191,-32.0001 105.819,-35.5 115.819,-39.0001 115.8191,-32.0001"/>
</g>
<!-- Node241 -->
<g id="node3" class="node">
<title>Node241</title>
<g id="a_node3"><a xlink:href="class_options_dialog.html#a11e902a52cb7472497d14e70cd9399d9" target="_top" xlink:title="OptionsDialog::setModel">
<polygon fill="#ffffff" stroke="#000000" points="331.9321,-47.5 331.9321,-65.5 456.8774,-65.5 456.8774,-47.5 331.9321,-47.5"/>
<text text-anchor="middle" x="394.4048" y="-53.5" font-family="Helvetica,sans-Serif" font-size="10.00" fill="#000000">OptionsDialog::setModel</text>
</a>
</g>
</g>
<!-- Node240&#45;&gt;Node241 -->
<g id="edge2" class="edge">
<title>Node240&#45;&gt;Node241</title>
<path fill="none" stroke="#191970" d="M298.6065,-45.2976C309.7987,-46.6064 321.1158,-47.9298 331.8583,-49.186"/>
<polygon fill="#191970" stroke="#191970" points="298.7221,-41.7873 288.3832,-44.1021 297.909,-48.74 298.7221,-41.7873"/>
</g>
<!-- Node246 -->
<g id="node8" class="node">
<title>Node246</title>
<g id="a_node8"><a xlink:href="class_options_dialog.html#a361ac4fdb9bafd3cad531e055084dd08" target="_top" xlink:title="OptionsDialog::on_okButton\l_clicked">
<polygon fill="#ffffff" stroke="#000000" points="324.1416,-.5 324.1416,-28.5 464.668,-28.5 464.668,-.5 324.1416,-.5"/>
<text text-anchor="start" x="332.1416" y="-16.5" font-family="Helvetica,sans-Serif" font-size="10.00" fill="#000000">OptionsDialog::on_okButton</text>
<text text-anchor="middle" x="394.4048" y="-6.5" font-family="Helvetica,sans-Serif" font-size="10.00" fill="#000000">_clicked</text>
</a>
</g>
</g>
<!-- Node240&#45;&gt;Node246 -->
<g id="edge8" class="edge">
<title>Node240&#45;&gt;Node246</title>
<path fill="none" stroke="#191970" d="M298.3444,-25.7331C306.8753,-24.7355 315.4821,-23.729 323.8547,-22.75"/>
<polygon fill="#191970" stroke="#191970" points="297.909,-22.26 288.3832,-26.8979 298.7221,-29.2127 297.909,-22.26"/>
</g>
<!-- Node242 -->
<g id="node4" class="node">
<title>Node242</title>
<g id="a_node4"><a xlink:href="class_bitcoin_g_u_i.html#a203d9003ab4de369e35599aaaae6f17a" target="_top" xlink:title="Open the OptionsDialog on the specified tab index. ">
<polygon fill="#ffffff" stroke="#000000" points="500.668,-42.5 500.668,-70.5 655.0762,-70.5 655.0762,-42.5 500.668,-42.5"/>
<text text-anchor="start" x="508.668" y="-58.5" font-family="Helvetica,sans-Serif" font-size="10.00" fill="#000000">BitcoinGUI::openOptionsDialog</text>
<text text-anchor="middle" x="577.8721" y="-48.5" font-family="Helvetica,sans-Serif" font-size="10.00" fill="#000000">WithTab</text>
</a>
</g>
</g>
<!-- Node241&#45;&gt;Node242 -->
<g id="edge3" class="edge">
<title>Node241&#45;&gt;Node242</title>
<path fill="none" stroke="#191970" d="M467.0314,-56.5C478.0603,-56.5 489.4747,-56.5 500.5982,-56.5"/>
<polygon fill="#191970" stroke="#191970" points="467.0307,-53.0001 457.0307,-56.5 467.0306,-60.0001 467.0307,-53.0001"/>
</g>
<!-- Node243 -->
<g id="node5" class="node">
<title>Node243</title>
<g id="a_node5"><a xlink:href="class_bitcoin_g_u_i.html#a58564e8398e33db7beca224c0f71c2b6" target="_top" xlink:title="BitcoinGUI::BitcoinGUI">
<polygon fill="#ffffff" stroke="#000000" points="1027.3955,-47.5 1027.3955,-65.5 1144.5381,-65.5 1144.5381,-47.5 1027.3955,-47.5"/>
<text text-anchor="middle" x="1085.9668" y="-53.5" font-family="Helvetica,sans-Serif" font-size="10.00" fill="#000000">BitcoinGUI::BitcoinGUI</text>
</a>
</g>
</g>
<!-- Node242&#45;&gt;Node243 -->
<g id="edge4" class="edge">
<title>Node242&#45;&gt;Node243</title>
<path fill="none" stroke="#191970" d="M665.4307,-56.5C768.9161,-56.5 938.2583,-56.5 1027.1933,-56.5"/>
<polygon fill="#191970" stroke="#191970" points="665.3171,-53.0001 655.3171,-56.5 665.317,-60.0001 665.3171,-53.0001"/>
</g>
<!-- Node244 -->
<g id="node6" class="node">
<title>Node244</title>
<g id="a_node6"><a xlink:href="class_bitcoin_g_u_i.html#a366dfb05459cb49fec8adb7f97bf2ad7" target="_top" xlink:title="Show configuration dialog. ">
<polygon fill="#ffffff" stroke="#000000" points="691.0762,-28.5 691.0762,-46.5 825.46,-46.5 825.46,-28.5 691.0762,-28.5"/>
<text text-anchor="middle" x="758.2681" y="-34.5" font-family="Helvetica,sans-Serif" font-size="10.00" fill="#000000">BitcoinGUI::optionsClicked</text>
</a>
</g>
</g>
<!-- Node242&#45;&gt;Node244 -->
<g id="edge5" class="edge">
<title>Node242&#45;&gt;Node244</title>
<path fill="none" stroke="#191970" d="M665.2199,-47.3002C673.8179,-46.3946 682.4504,-45.4854 690.8046,-44.6055"/>
<polygon fill="#191970" stroke="#191970" points="664.7396,-43.8313 655.1613,-48.3596 665.4729,-50.7928 664.7396,-43.8313"/>
</g>
<!-- Node245 -->
<g id="node7" class="node">
<title>Node245</title>
<g id="a_node7"><a xlink:href="class_bitcoin_g_u_i.html#a7340679e1356b1bb3cfaeb64a3e93218" target="_top" xlink:title="Create the main UI actions. ">
<polygon fill="#ffffff" stroke="#000000" points="861.46,-28.5 861.46,-46.5 991.3955,-46.5 991.3955,-28.5 861.46,-28.5"/>
<text text-anchor="middle" x="926.4277" y="-34.5" font-family="Helvetica,sans-Serif" font-size="10.00" fill="#000000">BitcoinGUI::createActions</text>
</a>
</g>
</g>
<!-- Node244&#45;&gt;Node245 -->
<g id="edge6" class="edge">
<title>Node244&#45;&gt;Node245</title>
<path fill="none" stroke="#191970" d="M835.7277,-37.5C844.3281,-37.5 853.0214,-37.5 861.4448,-37.5"/>
<polygon fill="#191970" stroke="#191970" points="835.6961,-34.0001 825.6961,-37.5 835.6961,-41.0001 835.6961,-34.0001"/>
</g>
<!-- Node245&#45;&gt;Node243 -->
<g id="edge7" class="edge">
<title>Node245&#45;&gt;Node243</title>
<path fill="none" stroke="#191970" d="M1001.805,-46.4769C1010.393,-47.4997 1019.0491,-48.5306 1027.3735,-49.5219"/>
<polygon fill="#191970" stroke="#191970" points="1002.1225,-42.9901 991.7787,-45.2828 1001.2946,-49.941 1002.1225,-42.9901"/>
</g>
</g>
</svg>
