<?xml version="1.0" encoding="UTF-8" standalone="no"?>
<!DOCTYPE svg PUBLIC "-//W3C//DTD SVG 1.1//EN"
 "http://www.w3.org/Graphics/SVG/1.1/DTD/svg11.dtd">
<!-- Generated by graphviz version 2.40.1 (20161225.0304)
 -->
<!-- Title: CBlock::SetNull Pages: 1 -->
<svg width="767pt" height="222pt"
 viewBox="0.00 0.00 766.67 222.00" xmlns="http://www.w3.org/2000/svg" xmlns:xlink="http://www.w3.org/1999/xlink">
<g id="graph0" class="graph" transform="scale(1 1) rotate(0) translate(4 218)">
<title>CBlock::SetNull</title>
<polygon fill="#ffffff" stroke="transparent" points="-4,4 -4,-218 762.668,-218 762.668,4 -4,4"/>
<!-- Node18 -->
<g id="node1" class="node">
<title>Node18</title>
<polygon fill="#bfbfbf" stroke="#000000" points="0,-120.5 0,-138.5 85.4678,-138.5 85.4678,-120.5 0,-120.5"/>
<text text-anchor="middle" x="42.7339" y="-126.5" font-family="Helvetica,sans-Serif" font-size="10.00" fill="#000000">CBlock::SetNull</text>
</g>
<!-- Node19 -->
<g id="node2" class="node">
<title>Node19</title>
<g id="a_node2"><a xlink:href="class_c_block.html#aaaf8819d785559699cffbbfccb37a3b6" target="_top" xlink:title="CBlock::CBlock">
<polygon fill="#ffffff" stroke="#000000" points="132.5811,-139.5 132.5811,-157.5 217.4873,-157.5 217.4873,-139.5 132.5811,-139.5"/>
<text text-anchor="middle" x="175.0342" y="-145.5" font-family="Helvetica,sans-Serif" font-size="10.00" fill="#000000">CBlock::CBlock</text>
</a>
</g>
</g>
<!-- Node18&#45;&gt;Node19 -->
<g id="edge1" class="edge">
<title>Node18&#45;&gt;Node19</title>
<path fill="none" stroke="#191970" d="M95.7133,-137.1085C107.8666,-138.8539 120.6379,-140.688 132.2956,-142.3622"/>
<polygon fill="#191970" stroke="#191970" points="96.084,-133.6259 85.688,-135.6688 95.0889,-140.5548 96.084,-133.6259"/>
</g>
<!-- Node20 -->
<g id="node3" class="node">
<title>Node20</title>
<g id="a_node3"><a xlink:href="validation_8h.html#a578c1df234b05798180f0235d469a5ba" target="_top" xlink:title="Functions for disk access for blocks. ">
<polygon fill="#ffffff" stroke="#000000" points="121.4678,-102.5 121.4678,-120.5 228.6006,-120.5 228.6006,-102.5 121.4678,-102.5"/>
<text text-anchor="middle" x="175.0342" y="-108.5" font-family="Helvetica,sans-Serif" font-size="10.00" fill="#000000">ReadBlockFromDisk</text>
</a>
</g>
</g>
<!-- Node18&#45;&gt;Node20 -->
<g id="edge2" class="edge">
<title>Node18&#45;&gt;Node20</title>
<path fill="none" stroke="#191970" d="M95.7244,-122.2904C104.103,-121.1505 112.7751,-119.9706 121.1734,-118.828"/>
<polygon fill="#191970" stroke="#191970" points="95.1248,-118.8397 85.688,-123.6559 96.0686,-125.7758 95.1248,-118.8397"/>
</g>
<!-- Node21 -->
<g id="node4" class="node">
<title>Node21</title>
<g id="a_node4"><a xlink:href="group__map_wallet.html#gaabb1db808d082d6df2b1e37cbf3f8f98" target="_top" xlink:title="Scan the block chain (starting in pindexStart) for transactions from or to us. ">
<polygon fill="#ffffff" stroke="#000000" points="264.6006,-195.5 264.6006,-213.5 442.8857,-213.5 442.8857,-195.5 264.6006,-195.5"/>
<text text-anchor="middle" x="353.7432" y="-201.5" font-family="Helvetica,sans-Serif" font-size="10.00" fill="#000000">CWallet::ScanForWalletTransactions</text>
</a>
</g>
</g>
<!-- Node20&#45;&gt;Node21 -->
<g id="edge3" class="edge">
<title>Node20&#45;&gt;Node21</title>
<path fill="none" stroke="#191970" d="M220.2178,-124.9562C223.18,-126.6057 226.0099,-128.4469 228.6006,-130.5 251.7895,-148.8775 240.1696,-169.8091 264.6006,-186.5 269.9456,-190.1516 275.865,-193.0953 282.0378,-195.4641"/>
<polygon fill="#191970" stroke="#191970" points="221.5723,-121.7243 211.0414,-120.5625 218.5493,-128.0379 221.5723,-121.7243"/>
</g>
<!-- Node23 -->
<g id="node6" class="node">
<title>Node23</title>
<g id="a_node6"><a xlink:href="validation_8h.html#ae62f71fbc880d892968f6276e0b806aa" target="_top" xlink:title="Retrieve a transaction (from memory pool, or from disk, if possible) ">
<polygon fill="#ffffff" stroke="#000000" points="311.7441,-158.5 311.7441,-176.5 395.7422,-176.5 395.7422,-158.5 311.7441,-158.5"/>
<text text-anchor="middle" x="353.7432" y="-164.5" font-family="Helvetica,sans-Serif" font-size="10.00" fill="#000000">GetTransaction</text>
</a>
</g>
</g>
<!-- Node20&#45;&gt;Node23 -->
<g id="edge5" class="edge">
<title>Node20&#45;&gt;Node23</title>
<path fill="none" stroke="#191970" d="M212.5146,-124.0127C217.961,-126.0562 223.4609,-128.2463 228.6006,-130.5 245.1694,-137.7652 247.5593,-143.4252 264.6006,-149.5 279.4724,-154.8015 296.3277,-158.7077 311.3476,-161.4999"/>
<polygon fill="#191970" stroke="#191970" points="213.4525,-120.6298 202.8583,-120.5105 211.0658,-127.2104 213.4525,-120.6298"/>
</g>
<!-- Node24 -->
<g id="node7" class="node">
<title>Node24</title>
<g id="a_node7"><a xlink:href="validation_8h.html#aee79e45a0b167f9b312f83a23880cfbc" target="_top" xlink:title="ReadBlockFromDisk">
<polygon fill="#ffffff" stroke="#000000" points="300.1768,-121.5 300.1768,-139.5 407.3096,-139.5 407.3096,-121.5 300.1768,-121.5"/>
<text text-anchor="middle" x="353.7432" y="-127.5" font-family="Helvetica,sans-Serif" font-size="10.00" fill="#000000">ReadBlockFromDisk</text>
</a>
</g>
</g>
<!-- Node20&#45;&gt;Node24 -->
<g id="edge6" class="edge">
<title>Node20&#45;&gt;Node24</title>
<path fill="none" stroke="#191970" d="M238.6672,-118.2653C258.7905,-120.4048 280.8163,-122.7466 300.1624,-124.8034"/>
<polygon fill="#191970" stroke="#191970" points="238.9668,-114.7776 228.6528,-117.2006 238.2267,-121.7383 238.9668,-114.7776"/>
</g>
<!-- Node25 -->
<g id="node8" class="node">
<title>Node25</title>
<g id="a_node8"><a xlink:href="class_c_chain_state.html#a57682556dc35715fba5f0c6075efcc6e" target="_top" xlink:title="Disconnect chainActive&#39;s tip. ">
<polygon fill="#ffffff" stroke="#000000" points="283.1187,-84.5 283.1187,-102.5 424.3677,-102.5 424.3677,-84.5 283.1187,-84.5"/>
<text text-anchor="middle" x="353.7432" y="-90.5" font-family="Helvetica,sans-Serif" font-size="10.00" fill="#000000">CChainState::DisconnectTip</text>
</a>
</g>
</g>
<!-- Node20&#45;&gt;Node25 -->
<g id="edge7" class="edge">
<title>Node20&#45;&gt;Node25</title>
<path fill="none" stroke="#191970" d="M238.8678,-105.0705C253.1593,-103.6311 268.4016,-102.0958 282.9562,-100.6298"/>
<polygon fill="#191970" stroke="#191970" points="238.2516,-101.6148 228.6528,-106.0994 238.9532,-108.5795 238.2516,-101.6148"/>
</g>
<!-- Node31 -->
<g id="node14" class="node">
<title>Node31</title>
<g id="a_node14"><a xlink:href="class_c_chain_state.html#a1ac66256eca2e5a25c7484f82b3b50ad" target="_top" xlink:title="Connect a new block to chainActive. ">
<polygon fill="#ffffff" stroke="#000000" points="289.2295,-47.5 289.2295,-65.5 418.2568,-65.5 418.2568,-47.5 289.2295,-47.5"/>
<text text-anchor="middle" x="353.7432" y="-53.5" font-family="Helvetica,sans-Serif" font-size="10.00" fill="#000000">CChainState::ConnectTip</text>
</a>
</g>
</g>
<!-- Node20&#45;&gt;Node31 -->
<g id="edge13" class="edge">
<title>Node20&#45;&gt;Node31</title>
<path fill="none" stroke="#191970" d="M204.1324,-98.3221C221.4342,-90.8624 243.9651,-81.7949 264.6006,-75.5 277.1628,-71.6678 290.9497,-68.3234 303.8466,-65.5532"/>
<polygon fill="#191970" stroke="#191970" points="202.3595,-95.2776 194.6035,-102.4954 205.1677,-101.6896 202.3595,-95.2776"/>
</g>
<!-- Node32 -->
<g id="node15" class="node">
<title>Node32</title>
<g id="a_node15"><a xlink:href="class_c_chain_state.html#ac231f6529bc41aea7917d0716d0c9d1a" target="_top" xlink:title="Apply the effects of a block on the utxo cache, ignoring that it may already have been applied...">
<polygon fill="#ffffff" stroke="#000000" points="289.3296,-.5 289.3296,-28.5 418.1567,-28.5 418.1567,-.5 289.3296,-.5"/>
<text text-anchor="start" x="297.3296" y="-16.5" font-family="Helvetica,sans-Serif" font-size="10.00" fill="#000000">CChainState::Rollforward</text>
<text text-anchor="middle" x="353.7432" y="-6.5" font-family="Helvetica,sans-Serif" font-size="10.00" fill="#000000">Block</text>
</a>
</g>
</g>
<!-- Node20&#45;&gt;Node32 -->
<g id="edge14" class="edge">
<title>Node20&#45;&gt;Node32</title>
<path fill="none" stroke="#191970" d="M190.7549,-94.7621C207.5075,-77.8947 235.5687,-52.3024 264.6006,-37.5 272.2896,-33.5796 280.7012,-30.2897 289.1884,-27.5389"/>
<polygon fill="#191970" stroke="#191970" points="187.9357,-92.6416 183.4847,-102.2561 192.9599,-97.5158 187.9357,-92.6416"/>
</g>
<!-- Node22 -->
<g id="node5" class="node">
<title>Node22</title>
<g id="a_node5"><a xlink:href="rpcwallet_8cpp.html#a151535abf7394b299deb8d0a333de70b" target="_top" xlink:title="rescanblockchain">
<polygon fill="#ffffff" stroke="#000000" points="505.0112,-195.5 505.0112,-213.5 598.2769,-213.5 598.2769,-195.5 505.0112,-195.5"/>
<text text-anchor="middle" x="551.644" y="-201.5" font-family="Helvetica,sans-Serif" font-size="10.00" fill="#000000">rescanblockchain</text>
</a>
</g>
</g>
<!-- Node21&#45;&gt;Node22 -->
<g id="edge4" class="edge">
<title>Node21&#45;&gt;Node22</title>
<path fill="none" stroke="#191970" d="M453.1559,-204.5C471.2076,-204.5 489.2387,-204.5 504.8462,-204.5"/>
<polygon fill="#191970" stroke="#191970" points="453.1404,-201.0001 443.1404,-204.5 453.1403,-208.0001 453.1404,-201.0001"/>
</g>
<!-- Node26 -->
<g id="node9" class="node">
<title>Node26</title>
<g id="a_node9"><a xlink:href="class_c_chain_state.html#afb6986710de5db645a000d4bac55cf9f" target="_top" xlink:title="Try to make some progress towards making pindexMostWork the active block. ">
<polygon fill="#ffffff" stroke="#000000" points="484.7256,-121.5 484.7256,-149.5 618.5625,-149.5 618.5625,-121.5 484.7256,-121.5"/>
<text text-anchor="start" x="492.7256" y="-137.5" font-family="Helvetica,sans-Serif" font-size="10.00" fill="#000000">CChainState::ActivateBest</text>
<text text-anchor="middle" x="551.644" y="-127.5" font-family="Helvetica,sans-Serif" font-size="10.00" fill="#000000">ChainStep</text>
</a>
</g>
</g>
<!-- Node25&#45;&gt;Node26 -->
<g id="edge8" class="edge">
<title>Node25&#45;&gt;Node26</title>
<path fill="none" stroke="#191970" d="M406.2943,-104.6528C430.5978,-109.8107 459.7286,-115.993 485.5084,-121.4642"/>
<polygon fill="#191970" stroke="#191970" points="406.7066,-101.1624 396.1979,-102.5101 405.2534,-108.0099 406.7066,-101.1624"/>
</g>
<!-- Node27 -->
<g id="node10" class="node">
<title>Node27</title>
<g id="a_node10"><a xlink:href="class_c_chain_state.html#a657a2d93faf38567ef34aeb75295ef4e" target="_top" xlink:title="CChainState::InvalidateBlock">
<polygon fill="#ffffff" stroke="#000000" points="478.8857,-84.5 478.8857,-102.5 624.4023,-102.5 624.4023,-84.5 478.8857,-84.5"/>
<text text-anchor="middle" x="551.644" y="-90.5" font-family="Helvetica,sans-Serif" font-size="10.00" fill="#000000">CChainState::InvalidateBlock</text>
</a>
</g>
</g>
<!-- Node25&#45;&gt;Node27 -->
<g id="edge9" class="edge">
<title>Node25&#45;&gt;Node27</title>
<path fill="none" stroke="#191970" d="M435.0269,-93.5C449.4549,-93.5 464.4007,-93.5 478.5834,-93.5"/>
<polygon fill="#191970" stroke="#191970" points="434.631,-90.0001 424.6309,-93.5 434.6309,-97.0001 434.631,-90.0001"/>
</g>
<!-- Node29 -->
<g id="node12" class="node">
<title>Node29</title>
<g id="a_node12"><a xlink:href="class_c_chain_state.html#afc0586502e4dd4092c4a0707d329f6eb" target="_top" xlink:title="CChainState::RewindBlock\lIndex">
<polygon fill="#ffffff" stroke="#000000" points="483.6147,-37.5 483.6147,-65.5 619.6733,-65.5 619.6733,-37.5 483.6147,-37.5"/>
<text text-anchor="start" x="491.6147" y="-53.5" font-family="Helvetica,sans-Serif" font-size="10.00" fill="#000000">CChainState::RewindBlock</text>
<text text-anchor="middle" x="551.644" y="-43.5" font-family="Helvetica,sans-Serif" font-size="10.00" fill="#000000">Index</text>
</a>
</g>
</g>
<!-- Node25&#45;&gt;Node29 -->
<g id="edge11" class="edge">
<title>Node25&#45;&gt;Node29</title>
<path fill="none" stroke="#191970" d="M409.567,-82.3879C420.6161,-80.1434 432.1232,-77.7739 442.8857,-75.5 457.8312,-72.3423 473.9095,-68.848 488.9984,-65.5255"/>
<polygon fill="#191970" stroke="#191970" points="408.6904,-78.9942 399.5831,-84.4078 410.0785,-85.8552 408.6904,-78.9942"/>
</g>
<!-- Node28 -->
<g id="node11" class="node">
<title>Node28</title>
<g id="a_node11"><a xlink:href="validation_8h.html#ac1125805255945a06f6f6fe1d9c6c154" target="_top" xlink:title="Mark a block as invalid. ">
<polygon fill="#ffffff" stroke="#000000" points="667.9048,-84.5 667.9048,-102.5 751.1655,-102.5 751.1655,-84.5 667.9048,-84.5"/>
<text text-anchor="middle" x="709.5352" y="-90.5" font-family="Helvetica,sans-Serif" font-size="10.00" fill="#000000">InvalidateBlock</text>
</a>
</g>
</g>
<!-- Node27&#45;&gt;Node28 -->
<g id="edge10" class="edge">
<title>Node27&#45;&gt;Node28</title>
<path fill="none" stroke="#191970" d="M634.5959,-93.5C645.9863,-93.5 657.2652,-93.5 667.4808,-93.5"/>
<polygon fill="#191970" stroke="#191970" points="634.5814,-90.0001 624.5813,-93.5 634.5813,-97.0001 634.5814,-90.0001"/>
</g>
<!-- Node30 -->
<g id="node13" class="node">
<title>Node30</title>
<g id="a_node13"><a xlink:href="validation_8h.html#a2e51de180124822c526ac8f82777fa32" target="_top" xlink:title="When there are blocks in the active chain with missing data, rewind the chainstate and remove them fr...">
<polygon fill="#ffffff" stroke="#000000" points="660.4023,-42.5 660.4023,-60.5 758.668,-60.5 758.668,-42.5 660.4023,-42.5"/>
<text text-anchor="middle" x="709.5352" y="-48.5" font-family="Helvetica,sans-Serif" font-size="10.00" fill="#000000">RewindBlockIndex</text>
</a>
</g>
</g>
<!-- Node29&#45;&gt;Node30 -->
<g id="edge12" class="edge">
<title>Node29&#45;&gt;Node30</title>
<path fill="none" stroke="#191970" d="M630.1591,-51.5C640.3676,-51.5 650.5857,-51.5 660.1306,-51.5"/>
<polygon fill="#191970" stroke="#191970" points="629.9791,-48.0001 619.9791,-51.5 629.979,-55.0001 629.9791,-48.0001"/>
</g>
</g>
</svg>
