<?xml version="1.0" encoding="UTF-8" standalone="no"?>
<!DOCTYPE svg PUBLIC "-//W3C//DTD SVG 1.1//EN"
 "http://www.w3.org/Graphics/SVG/1.1/DTD/svg11.dtd">
<!-- Generated by graphviz version 2.40.1 (20161225.0304)
 -->
<!-- Title: CNetMessage::readData Pages: 1 -->
<svg width="821pt" height="138pt"
 viewBox="0.00 0.00 820.75 138.00" xmlns="http://www.w3.org/2000/svg" xmlns:xlink="http://www.w3.org/1999/xlink">
<g id="graph0" class="graph" transform="scale(1 1) rotate(0) translate(4 134)">
<title>CNetMessage::readData</title>
<polygon fill="#ffffff" stroke="transparent" points="-4,4 -4,-134 816.748,-134 816.748,4 -4,4"/>
<!-- Node25 -->
<g id="node1" class="node">
<title>Node25</title>
<polygon fill="#bfbfbf" stroke="#000000" points="0,-55.5 0,-73.5 126.0537,-73.5 126.0537,-55.5 0,-55.5"/>
<text text-anchor="middle" x="63.0269" y="-61.5" font-family="Helvetica,sans-Serif" font-size="10.00" fill="#000000">CNetMessage::readData</text>
</g>
<!-- Node26 -->
<g id="node2" class="node">
<title>Node26</title>
<g id="a_node2"><a xlink:href="class_c_data_stream.html#add30f866dd928fc28c47fe79a0a6723a" target="_top" xlink:title="CDataStream::size">
<polygon fill="#ffffff" stroke="#000000" points="166.4995,-111.5 166.4995,-129.5 266.4155,-129.5 266.4155,-111.5 166.4995,-111.5"/>
<text text-anchor="middle" x="216.4575" y="-117.5" font-family="Helvetica,sans-Serif" font-size="10.00" fill="#000000">CDataStream::size</text>
</a>
</g>
</g>
<!-- Node25&#45;&gt;Node26 -->
<g id="edge1" class="edge">
<title>Node25&#45;&gt;Node26</title>
<path fill="none" stroke="#191970" d="M85.7266,-73.5586C105.7254,-81.4559 135.6938,-93.0875 162.0537,-102.5 167.3239,-104.3819 172.9047,-106.3058 178.4052,-108.1624"/>
<polygon fill="#191970" stroke="#191970" points="177.5411,-111.5637 188.1348,-111.408 179.7562,-104.9234 177.5411,-111.5637"/>
</g>
<!-- Node27 -->
<g id="node3" class="node">
<title>Node27</title>
<g id="a_node3"><a xlink:href="class_c_data_stream.html#aa91abddde56127bd3d6ac2a0fb005874" target="_top" xlink:title="CDataStream::resize">
<polygon fill="#ffffff" stroke="#000000" points="162.0537,-74.5 162.0537,-92.5 270.8613,-92.5 270.8613,-74.5 162.0537,-74.5"/>
<text text-anchor="middle" x="216.4575" y="-80.5" font-family="Helvetica,sans-Serif" font-size="10.00" fill="#000000">CDataStream::resize</text>
</a>
</g>
</g>
<!-- Node25&#45;&gt;Node27 -->
<g id="edge2" class="edge">
<title>Node25&#45;&gt;Node27</title>
<path fill="none" stroke="#191970" d="M126.3188,-72.3377C134.6522,-73.3697 143.2037,-74.4287 151.5634,-75.4639"/>
<polygon fill="#191970" stroke="#191970" points="151.2832,-78.9558 161.6376,-76.7114 152.1435,-72.0089 151.2832,-78.9558"/>
</g>
<!-- Node28 -->
<g id="node4" class="node">
<title>Node28</title>
<g id="a_node4"><a xlink:href="class_c_hash3.html#a3dc880cbca561109d8de7c7ffdd5691e" target="_top" xlink:title="CHash3::Write">
<polygon fill="#ffffff" stroke="#000000" points="176.0381,-37.5 176.0381,-55.5 256.877,-55.5 256.877,-37.5 176.0381,-37.5"/>
<text text-anchor="middle" x="216.4575" y="-43.5" font-family="Helvetica,sans-Serif" font-size="10.00" fill="#000000">CHash3::Write</text>
</a>
</g>
</g>
<!-- Node25&#45;&gt;Node28 -->
<g id="edge3" class="edge">
<title>Node25&#45;&gt;Node28</title>
<path fill="none" stroke="#191970" d="M126.3188,-57.0748C139.3458,-55.5465 152.9058,-53.9557 165.4326,-52.4861"/>
<polygon fill="#191970" stroke="#191970" points="166.1537,-55.9256 175.6777,-51.2842 165.338,-48.9733 166.1537,-55.9256"/>
</g>
<!-- Node33 -->
<g id="node9" class="node">
<title>Node33</title>
<g id="a_node9"><a xlink:href="glibc__compat_8cpp.html#a0f46826ab0466591e136db24394923cf" target="_top" xlink:title="memcpy">
<polygon fill="#ffffff" stroke="#000000" points="189.5659,-.5 189.5659,-18.5 243.3491,-18.5 243.3491,-.5 189.5659,-.5"/>
<text text-anchor="middle" x="216.4575" y="-6.5" font-family="Helvetica,sans-Serif" font-size="10.00" fill="#000000">memcpy</text>
</a>
</g>
</g>
<!-- Node25&#45;&gt;Node33 -->
<g id="edge8" class="edge">
<title>Node25&#45;&gt;Node33</title>
<path fill="none" stroke="#191970" d="M86.5449,-55.4252C106.5517,-47.7745 136.0868,-36.6431 162.0537,-27.5 167.7647,-25.4891 173.8351,-23.4171 179.7711,-21.4265"/>
<polygon fill="#191970" stroke="#191970" points="181.1606,-24.6531 189.5472,-18.1788 178.9537,-18.0101 181.1606,-24.6531"/>
</g>
<!-- Node29 -->
<g id="node5" class="node">
<title>Node29</title>
<g id="a_node5"><a xlink:href="class_c_s_h_a3.html#a439a0fade3fa1b7989c6cf053d39161b" target="_top" xlink:title="CSHA3::Write">
<polygon fill="#ffffff" stroke="#000000" points="306.8613,-37.5 306.8613,-55.5 384.917,-55.5 384.917,-37.5 306.8613,-37.5"/>
<text text-anchor="middle" x="345.8892" y="-43.5" font-family="Helvetica,sans-Serif" font-size="10.00" fill="#000000">CSHA3::Write</text>
</a>
</g>
</g>
<!-- Node28&#45;&gt;Node29 -->
<g id="edge4" class="edge">
<title>Node28&#45;&gt;Node29</title>
<path fill="none" stroke="#191970" d="M257.0554,-46.5C269.5741,-46.5 283.4978,-46.5 296.5382,-46.5"/>
<polygon fill="#191970" stroke="#191970" points="296.7632,-50.0001 306.7632,-46.5 296.7632,-43.0001 296.7632,-50.0001"/>
</g>
<!-- Node30 -->
<g id="node6" class="node">
<title>Node30</title>
<g id="a_node6"><a xlink:href="class_s_h_a3__256.html#a8356957ea403c5da326fc6899b91ea71" target="_top" xlink:title="Updates the hash with more data. ">
<polygon fill="#ffffff" stroke="#000000" points="420.917,-37.5 420.917,-55.5 521.4287,-55.5 521.4287,-37.5 420.917,-37.5"/>
<text text-anchor="middle" x="471.1729" y="-43.5" font-family="Helvetica,sans-Serif" font-size="10.00" fill="#000000">SHA3_256::update</text>
</a>
</g>
</g>
<!-- Node29&#45;&gt;Node30 -->
<g id="edge5" class="edge">
<title>Node29&#45;&gt;Node30</title>
<path fill="none" stroke="#191970" d="M385.186,-46.5C393.2322,-46.5 401.878,-46.5 410.475,-46.5"/>
<polygon fill="#191970" stroke="#191970" points="410.5058,-50.0001 420.5058,-46.5 410.5058,-43.0001 410.5058,-50.0001"/>
</g>
<!-- Node31 -->
<g id="node7" class="node">
<title>Node31</title>
<g id="a_node7"><a xlink:href="class_keccak_core.html#aaaa0355ccec0f469ac8eb577bdf853ed" target="_top" xlink:title="Updates the Keccak sponge function with more input data. ">
<polygon fill="#ffffff" stroke="#000000" points="557.4287,-37.5 557.4287,-55.5 664.0391,-55.5 664.0391,-37.5 557.4287,-37.5"/>
<text text-anchor="middle" x="610.7339" y="-43.5" font-family="Helvetica,sans-Serif" font-size="10.00" fill="#000000">KeccakCore::update</text>
</a>
</g>
</g>
<!-- Node30&#45;&gt;Node31 -->
<g id="edge6" class="edge">
<title>Node30&#45;&gt;Node31</title>
<path fill="none" stroke="#191970" d="M521.5576,-46.5C529.7728,-46.5 538.3776,-46.5 546.8649,-46.5"/>
<polygon fill="#191970" stroke="#191970" points="547.1253,-50.0001 557.1252,-46.5 547.1252,-43.0001 547.1253,-50.0001"/>
</g>
<!-- Node32 -->
<g id="node8" class="node">
<title>Node32</title>
<g id="a_node8"><a xlink:href="class_keccak_core.html#aba3225c7a4ceff3580236a900b72a1c3" target="_top" xlink:title="Transform the state with the KECCAK&#45;p sponge function with b = 1600. ">
<polygon fill="#ffffff" stroke="#000000" points="700.0391,-37.5 700.0391,-55.5 812.748,-55.5 812.748,-37.5 700.0391,-37.5"/>
<text text-anchor="middle" x="756.3936" y="-43.5" font-family="Helvetica,sans-Serif" font-size="10.00" fill="#000000">KeccakCore::keccakp</text>
</a>
</g>
</g>
<!-- Node31&#45;&gt;Node32 -->
<g id="edge7" class="edge">
<title>Node31&#45;&gt;Node32</title>
<path fill="none" stroke="#191970" d="M664.1451,-46.5C672.3418,-46.5 680.8926,-46.5 689.3392,-46.5"/>
<polygon fill="#191970" stroke="#191970" points="689.5596,-50.0001 699.5596,-46.5 689.5595,-43.0001 689.5596,-50.0001"/>
</g>
<!-- Node34 -->
<g id="node10" class="node">
<title>Node34</title>
<g id="a_node10"><a xlink:href="glibc__compat_8cpp.html#a9778d49e9029dd75bc53ecbbf9f5e9a1" target="_top" xlink:title="memmove">
<polygon fill="#ffffff" stroke="#000000" points="314.5518,-.5 314.5518,-18.5 377.2266,-18.5 377.2266,-.5 314.5518,-.5"/>
<text text-anchor="middle" x="345.8892" y="-6.5" font-family="Helvetica,sans-Serif" font-size="10.00" fill="#000000">memmove</text>
</a>
</g>
</g>
<!-- Node33&#45;&gt;Node34 -->
<g id="edge9" class="edge">
<title>Node33&#45;&gt;Node34</title>
<path fill="none" stroke="#191970" d="M243.5906,-9.5C261.1393,-9.5 284.3301,-9.5 304.1938,-9.5"/>
<polygon fill="#191970" stroke="#191970" points="304.2305,-13.0001 314.2305,-9.5 304.2305,-6.0001 304.2305,-13.0001"/>
</g>
</g>
</svg>
