<?xml version="1.0" encoding="UTF-8" standalone="no"?>
<!DOCTYPE svg PUBLIC "-//W3C//DTD SVG 1.1//EN"
 "http://www.w3.org/Graphics/SVG/1.1/DTD/svg11.dtd">
<!-- Generated by graphviz version 2.40.1 (20161225.0304)
 -->
<!-- Title: CCoinsViewCache::HaveInputs Pages: 1 -->
<svg width="683pt" height="64pt"
 viewBox="0.00 0.00 682.85 64.00" xmlns="http://www.w3.org/2000/svg" xmlns:xlink="http://www.w3.org/1999/xlink">
<g id="graph0" class="graph" transform="scale(1 1) rotate(0) translate(4 60)">
<title>CCoinsViewCache::HaveInputs</title>
<polygon fill="#ffffff" stroke="transparent" points="-4,4 -4,-60 678.8516,-60 678.8516,4 -4,4"/>
<!-- Node107 -->
<g id="node1" class="node">
<title>Node107</title>
<polygon fill="#bfbfbf" stroke="#000000" points="0,-18.5 0,-36.5 155.3359,-36.5 155.3359,-18.5 0,-18.5"/>
<text text-anchor="middle" x="77.668" y="-24.5" font-family="Helvetica,sans-Serif" font-size="10.00" fill="#000000">CCoinsViewCache::HaveInputs</text>
</g>
<!-- Node108 -->
<g id="node2" class="node">
<title>Node108</title>
<g id="a_node2"><a xlink:href="class_c_transaction.html#a96256e8ac1bf79ad9c057e48c41132dd" target="_top" xlink:title="CTransaction::IsCoinBase">
<polygon fill="#ffffff" stroke="#000000" points="199.7686,-37.5 199.7686,-55.5 331.5645,-55.5 331.5645,-37.5 199.7686,-37.5"/>
<text text-anchor="middle" x="265.6665" y="-43.5" font-family="Helvetica,sans-Serif" font-size="10.00" fill="#000000">CTransaction::IsCoinBase</text>
</a>
</g>
</g>
<!-- Node107&#45;&gt;Node108 -->
<g id="edge1" class="edge">
<title>Node107&#45;&gt;Node108</title>
<path fill="none" stroke="#191970" d="M155.4912,-35.3652C166.7055,-36.4985 178.2364,-37.6639 189.4194,-38.7941"/>
<polygon fill="#191970" stroke="#191970" points="189.2714,-42.2969 199.5727,-39.8203 189.9753,-35.3324 189.2714,-42.2969"/>
</g>
<!-- Node109 -->
<g id="node3" class="node">
<title>Node109</title>
<g id="a_node3"><a xlink:href="class_c_coins_view_cache.html#af097128dca85eb8f94b864015d839d46" target="_top" xlink:title="Just check whether a given outpoint is unspent. ">
<polygon fill="#ffffff" stroke="#000000" points="191.3359,-.5 191.3359,-18.5 339.9971,-18.5 339.9971,-.5 191.3359,-.5"/>
<text text-anchor="middle" x="265.6665" y="-6.5" font-family="Helvetica,sans-Serif" font-size="10.00" fill="#000000">CCoinsViewCache::HaveCoin</text>
</a>
</g>
</g>
<!-- Node107&#45;&gt;Node109 -->
<g id="edge2" class="edge">
<title>Node107&#45;&gt;Node109</title>
<path fill="none" stroke="#191970" d="M155.4912,-20.0488C163.9859,-19.2354 172.6624,-18.4047 181.2317,-17.5842"/>
<polygon fill="#191970" stroke="#191970" points="181.6039,-21.0647 191.2248,-16.6275 180.9367,-14.0966 181.6039,-21.0647"/>
</g>
<!-- Node110 -->
<g id="node4" class="node">
<title>Node110</title>
<g id="a_node4"><a xlink:href="class_c_coins_view_cache.html#aad44dd0b312871702e46ddfb449cecba" target="_top" xlink:title="CCoinsViewCache::FetchCoin">
<polygon fill="#ffffff" stroke="#000000" points="375.9971,-.5 375.9971,-18.5 526.3232,-18.5 526.3232,-.5 375.9971,-.5"/>
<text text-anchor="middle" x="451.1602" y="-6.5" font-family="Helvetica,sans-Serif" font-size="10.00" fill="#000000">CCoinsViewCache::FetchCoin</text>
</a>
</g>
</g>
<!-- Node109&#45;&gt;Node110 -->
<g id="edge3" class="edge">
<title>Node109&#45;&gt;Node110</title>
<path fill="none" stroke="#191970" d="M340.0451,-9.5C348.5211,-9.5 357.2103,-9.5 365.8141,-9.5"/>
<polygon fill="#191970" stroke="#191970" points="365.857,-13.0001 375.857,-9.5 365.8569,-6.0001 365.857,-13.0001"/>
</g>
<!-- Node111 -->
<g id="node5" class="node">
<title>Node111</title>
<g id="a_node5"><a xlink:href="class_c_coins_view.html#a435080be262889508365787dcc75cf95" target="_top" xlink:title="Retrieve the Coin (unspent transaction output) for a given outpoint. ">
<polygon fill="#ffffff" stroke="#000000" points="562.3232,-.5 562.3232,-18.5 674.8516,-18.5 674.8516,-.5 562.3232,-.5"/>
<text text-anchor="middle" x="618.5874" y="-6.5" font-family="Helvetica,sans-Serif" font-size="10.00" fill="#000000">CCoinsView::GetCoin</text>
</a>
</g>
</g>
<!-- Node110&#45;&gt;Node111 -->
<g id="edge4" class="edge">
<title>Node110&#45;&gt;Node111</title>
<path fill="none" stroke="#191970" d="M526.5474,-9.5C535.0629,-9.5 543.6944,-9.5 552.0849,-9.5"/>
<polygon fill="#191970" stroke="#191970" points="552.1759,-13.0001 562.1759,-9.5 552.1758,-6.0001 552.1759,-13.0001"/>
</g>
</g>
</svg>
