<?xml version="1.0" encoding="UTF-8" standalone="no"?>
<!DOCTYPE svg PUBLIC "-//W3C//DTD SVG 1.1//EN"
 "http://www.w3.org/Graphics/SVG/1.1/DTD/svg11.dtd">
<!-- Generated by graphviz version 2.40.1 (20161225.0304)
 -->
<!-- Title: CBlockHeader::IsNull Pages: 1 -->
<svg width="287pt" height="131pt"
 viewBox="0.00 0.00 286.65 131.00" xmlns="http://www.w3.org/2000/svg" xmlns:xlink="http://www.w3.org/1999/xlink">
<g id="graph0" class="graph" transform="scale(1 1) rotate(0) translate(4 127)">
<title>CBlockHeader::IsNull</title>
<polygon fill="#ffffff" stroke="transparent" points="-4,4 -4,-127 282.6494,-127 282.6494,4 -4,4"/>
<!-- Node32 -->
<g id="node1" class="node">
<title>Node32</title>
<polygon fill="#bfbfbf" stroke="#000000" points="0,-52.5 0,-70.5 111.0342,-70.5 111.0342,-52.5 0,-52.5"/>
<text text-anchor="middle" x="55.5171" y="-58.5" font-family="Helvetica,sans-Serif" font-size="10.00" fill="#000000">CBlockHeader::IsNull</text>
</g>
<!-- Node33 -->
<g id="node2" class="node">
<title>Node33</title>
<g id="a_node2"><a xlink:href="class_partially_downloaded_block.html#a04e1b3207e547c972e002c1ec472da1f" target="_top" xlink:title="PartiallyDownloadedBlock\l::InitData">
<polygon fill="#ffffff" stroke="#000000" points="147.0342,-94.5 147.0342,-122.5 278.6494,-122.5 278.6494,-94.5 147.0342,-94.5"/>
<text text-anchor="start" x="155.0342" y="-110.5" font-family="Helvetica,sans-Serif" font-size="10.00" fill="#000000">PartiallyDownloadedBlock</text>
<text text-anchor="middle" x="212.8418" y="-100.5" font-family="Helvetica,sans-Serif" font-size="10.00" fill="#000000">::InitData</text>
</a>
</g>
</g>
<!-- Node32&#45;&gt;Node33 -->
<g id="edge1" class="edge">
<title>Node32&#45;&gt;Node33</title>
<path fill="none" stroke="#191970" d="M95.6074,-73.4768C117.022,-79.8743 143.5049,-87.7859 165.8789,-94.4701"/>
<polygon fill="#191970" stroke="#191970" points="96.4343,-70.071 85.8509,-70.5621 94.4306,-76.7781 96.4343,-70.071"/>
</g>
<!-- Node34 -->
<g id="node3" class="node">
<title>Node34</title>
<g id="a_node3"><a xlink:href="class_partially_downloaded_block.html#ad8f41f80c9aba45402fc1033a478a97b" target="_top" xlink:title="PartiallyDownloadedBlock\l::IsTxAvailable">
<polygon fill="#ffffff" stroke="#000000" points="147.0342,-47.5 147.0342,-75.5 278.6494,-75.5 278.6494,-47.5 147.0342,-47.5"/>
<text text-anchor="start" x="155.0342" y="-63.5" font-family="Helvetica,sans-Serif" font-size="10.00" fill="#000000">PartiallyDownloadedBlock</text>
<text text-anchor="middle" x="212.8418" y="-53.5" font-family="Helvetica,sans-Serif" font-size="10.00" fill="#000000">::IsTxAvailable</text>
</a>
</g>
</g>
<!-- Node32&#45;&gt;Node34 -->
<g id="edge2" class="edge">
<title>Node32&#45;&gt;Node34</title>
<path fill="none" stroke="#191970" d="M121.5343,-61.5C129.9225,-61.5 138.5077,-61.5 146.8948,-61.5"/>
<polygon fill="#191970" stroke="#191970" points="121.4269,-58.0001 111.4269,-61.5 121.4268,-65.0001 121.4269,-58.0001"/>
</g>
<!-- Node35 -->
<g id="node4" class="node">
<title>Node35</title>
<g id="a_node4"><a xlink:href="class_partially_downloaded_block.html#ae31ee4302e77d9757aae8b96df99486a" target="_top" xlink:title="PartiallyDownloadedBlock\l::FillBlock">
<polygon fill="#ffffff" stroke="#000000" points="147.0342,-.5 147.0342,-28.5 278.6494,-28.5 278.6494,-.5 147.0342,-.5"/>
<text text-anchor="start" x="155.0342" y="-16.5" font-family="Helvetica,sans-Serif" font-size="10.00" fill="#000000">PartiallyDownloadedBlock</text>
<text text-anchor="middle" x="212.8418" y="-6.5" font-family="Helvetica,sans-Serif" font-size="10.00" fill="#000000">::FillBlock</text>
</a>
</g>
</g>
<!-- Node32&#45;&gt;Node35 -->
<g id="edge3" class="edge">
<title>Node32&#45;&gt;Node35</title>
<path fill="none" stroke="#191970" d="M95.6074,-49.5232C117.022,-43.1257 143.5049,-35.2141 165.8789,-28.5299"/>
<polygon fill="#191970" stroke="#191970" points="94.4306,-46.2219 85.8509,-52.4379 96.4343,-52.929 94.4306,-46.2219"/>
</g>
</g>
</svg>
