<?xml version="1.0" encoding="UTF-8" standalone="no"?>
<!DOCTYPE svg PUBLIC "-//W3C//DTD SVG 1.1//EN"
 "http://www.w3.org/Graphics/SVG/1.1/DTD/svg11.dtd">
<!-- Generated by graphviz version 2.40.1 (20161225.0304)
 -->
<!-- Title: BerkeleyEnvironment::MakeMock Pages: 1 -->
<svg width="297pt" height="37pt"
 viewBox="0.00 0.00 297.22 37.00" xmlns="http://www.w3.org/2000/svg" xmlns:xlink="http://www.w3.org/1999/xlink">
<g id="graph0" class="graph" transform="scale(1 1) rotate(0) translate(4 33)">
<title>BerkeleyEnvironment::MakeMock</title>
<polygon fill="#ffffff" stroke="transparent" points="-4,4 -4,-33 293.2207,-33 293.2207,4 -4,4"/>
<!-- Node39 -->
<g id="node1" class="node">
<title>Node39</title>
<polygon fill="#bfbfbf" stroke="#000000" points="0,-.5 0,-28.5 111.0439,-28.5 111.0439,-.5 0,-.5"/>
<text text-anchor="start" x="8" y="-16.5" font-family="Helvetica,sans-Serif" font-size="10.00" fill="#000000">BerkeleyEnvironment</text>
<text text-anchor="middle" x="55.522" y="-6.5" font-family="Helvetica,sans-Serif" font-size="10.00" fill="#000000">::MakeMock</text>
</g>
<!-- Node40 -->
<g id="node2" class="node">
<title>Node40</title>
<g id="a_node2"><a xlink:href="class_berkeley_database.html#a2b0e32e1f4c1530057a3bccac9fd017c" target="_top" xlink:title="Create DB handle to real database. ">
<polygon fill="#ffffff" stroke="#000000" points="147.0439,-.5 147.0439,-28.5 289.2207,-28.5 289.2207,-.5 147.0439,-.5"/>
<text text-anchor="start" x="155.0439" y="-16.5" font-family="Helvetica,sans-Serif" font-size="10.00" fill="#000000">BerkeleyDatabase::Berkeley</text>
<text text-anchor="middle" x="218.1323" y="-6.5" font-family="Helvetica,sans-Serif" font-size="10.00" fill="#000000">Database</text>
</a>
</g>
</g>
<!-- Node39&#45;&gt;Node40 -->
<g id="edge1" class="edge">
<title>Node39&#45;&gt;Node40</title>
<path fill="none" stroke="#191970" d="M121.5222,-14.5C129.8634,-14.5 138.4274,-14.5 146.846,-14.5"/>
<polygon fill="#191970" stroke="#191970" points="121.4833,-11.0001 111.4832,-14.5 121.4832,-18.0001 121.4833,-11.0001"/>
</g>
</g>
</svg>
