<?xml version="1.0" encoding="UTF-8" standalone="no"?>
<!DOCTYPE svg PUBLIC "-//W3C//DTD SVG 1.1//EN"
 "http://www.w3.org/Graphics/SVG/1.1/DTD/svg11.dtd">
<!-- Generated by graphviz version 2.40.1 (20161225.0304)
 -->
<!-- Title: WalletFrame::encryptWallet Pages: 1 -->
<svg width="524pt" height="92pt"
 viewBox="0.00 0.00 524.28 92.00" xmlns="http://www.w3.org/2000/svg" xmlns:xlink="http://www.w3.org/1999/xlink">
<g id="graph0" class="graph" transform="scale(1 1) rotate(0) translate(4 88)">
<title>WalletFrame::encryptWallet</title>
<polygon fill="#ffffff" stroke="transparent" points="-4,4 -4,-88 520.2842,-88 520.2842,4 -4,4"/>
<!-- Node171 -->
<g id="node1" class="node">
<title>Node171</title>
<polygon fill="#bfbfbf" stroke="#000000" points="0,-46.5 0,-64.5 138.0752,-64.5 138.0752,-46.5 0,-46.5"/>
<text text-anchor="middle" x="69.0376" y="-52.5" font-family="Helvetica,sans-Serif" font-size="10.00" fill="#000000">WalletFrame::encryptWallet</text>
</g>
<!-- Node172 -->
<g id="node2" class="node">
<title>Node172</title>
<g id="a_node2"><a xlink:href="class_wallet_frame.html#a026798332d142b693e4f1820185d3f1c" target="_top" xlink:title="WalletFrame::currentWalletView">
<polygon fill="#ffffff" stroke="#000000" points="174.0752,-65.5 174.0752,-83.5 331.9795,-83.5 331.9795,-65.5 174.0752,-65.5"/>
<text text-anchor="middle" x="253.0273" y="-71.5" font-family="Helvetica,sans-Serif" font-size="10.00" fill="#000000">WalletFrame::currentWalletView</text>
</a>
</g>
</g>
<!-- Node171&#45;&gt;Node172 -->
<g id="edge1" class="edge">
<title>Node171&#45;&gt;Node172</title>
<path fill="none" stroke="#191970" d="M138.3341,-62.656C146.6807,-63.5179 155.2933,-64.4073 163.8729,-65.2933"/>
<polygon fill="#191970" stroke="#191970" points="163.6049,-68.7842 173.9115,-66.33 164.324,-61.8212 163.6049,-68.7842"/>
</g>
<!-- Node173 -->
<g id="node3" class="node">
<title>Node173</title>
<g id="a_node3"><a xlink:href="class_wallet_view.html#a164c3de8fc69ef6f39fb7c15e4bda553" target="_top" xlink:title="Encrypt the wallet. ">
<polygon fill="#ffffff" stroke="#000000" points="187.686,-28.5 187.686,-46.5 318.3687,-46.5 318.3687,-28.5 187.686,-28.5"/>
<text text-anchor="middle" x="253.0273" y="-34.5" font-family="Helvetica,sans-Serif" font-size="10.00" fill="#000000">WalletView::encryptWallet</text>
</a>
</g>
</g>
<!-- Node171&#45;&gt;Node173 -->
<g id="edge2" class="edge">
<title>Node171&#45;&gt;Node173</title>
<path fill="none" stroke="#191970" d="M138.3341,-48.7206C151.0339,-47.4782 164.3494,-46.1755 177.2276,-44.9156"/>
<polygon fill="#191970" stroke="#191970" points="177.8302,-48.3735 187.4418,-43.9163 177.1485,-41.4067 177.8302,-48.3735"/>
</g>
<!-- Node174 -->
<g id="node4" class="node">
<title>Node174</title>
<g id="a_node4"><a xlink:href="class_ask_passphrase_dialog.html#a35b83e1ef98813b6b88155aab0803ed3" target="_top" xlink:title="AskPassphraseDialog\l::setModel">
<polygon fill="#ffffff" stroke="#000000" points="385.2183,-47.5 385.2183,-75.5 499.0454,-75.5 499.0454,-47.5 385.2183,-47.5"/>
<text text-anchor="start" x="393.2183" y="-63.5" font-family="Helvetica,sans-Serif" font-size="10.00" fill="#000000">AskPassphraseDialog</text>
<text text-anchor="middle" x="442.1318" y="-53.5" font-family="Helvetica,sans-Serif" font-size="10.00" fill="#000000">::setModel</text>
</a>
</g>
</g>
<!-- Node173&#45;&gt;Node174 -->
<g id="edge3" class="edge">
<title>Node173&#45;&gt;Node174</title>
<path fill="none" stroke="#191970" d="M318.3712,-45.793C336.6567,-48.1137 356.5584,-50.6395 374.9486,-52.9735"/>
<polygon fill="#191970" stroke="#191970" points="374.6288,-56.4609 384.9899,-54.2479 375.5102,-49.5166 374.6288,-56.4609"/>
</g>
<!-- Node175 -->
<g id="node5" class="node">
<title>Node175</title>
<g id="a_node5"><a xlink:href="class_wallet_view.html#ad348f2ed9f843ef9125ca416307c7412" target="_top" xlink:title="Re&#45;emit encryption status signal. ">
<polygon fill="#ffffff" stroke="#000000" points="367.9795,-.5 367.9795,-28.5 516.2842,-28.5 516.2842,-.5 367.9795,-.5"/>
<text text-anchor="start" x="375.9795" y="-16.5" font-family="Helvetica,sans-Serif" font-size="10.00" fill="#000000">WalletView::updateEncryption</text>
<text text-anchor="middle" x="442.1318" y="-6.5" font-family="Helvetica,sans-Serif" font-size="10.00" fill="#000000">Status</text>
</a>
</g>
</g>
<!-- Node173&#45;&gt;Node175 -->
<g id="edge4" class="edge">
<title>Node173&#45;&gt;Node175</title>
<path fill="none" stroke="#191970" d="M318.3712,-29.5525C331.047,-28.0108 344.4994,-26.3746 357.6865,-24.7707"/>
<polygon fill="#191970" stroke="#191970" points="358.1976,-28.2345 367.7018,-23.5526 357.3524,-21.2857 358.1976,-28.2345"/>
</g>
</g>
</svg>
