<?xml version="1.0" encoding="UTF-8" standalone="no"?>
<!DOCTYPE svg PUBLIC "-//W3C//DTD SVG 1.1//EN"
 "http://www.w3.org/Graphics/SVG/1.1/DTD/svg11.dtd">
<!-- Generated by graphviz version 2.40.1 (20161225.0304)
 -->
<!-- Title: CWallet::CreateWalletFromFile Pages: 1 -->
<svg width="656pt" height="240pt"
 viewBox="0.00 0.00 656.13 240.00" xmlns="http://www.w3.org/2000/svg" xmlns:xlink="http://www.w3.org/1999/xlink">
<g id="graph0" class="graph" transform="scale(1 1) rotate(0) translate(4 236)">
<title>CWallet::CreateWalletFromFile</title>
<polygon fill="#ffffff" stroke="transparent" points="-4,4 -4,-236 652.1328,-236 652.1328,4 -4,4"/>
<!-- Node46 -->
<g id="node1" class="node">
<title>Node46</title>
<polygon fill="#bfbfbf" stroke="#000000" points="0,-92.5 0,-110.5 153.0703,-110.5 153.0703,-92.5 0,-92.5"/>
<text text-anchor="middle" x="76.5352" y="-98.5" font-family="Helvetica,sans-Serif" font-size="10.00" fill="#000000">CWallet::CreateWalletFromFile</text>
</g>
<!-- Node47 -->
<g id="node2" class="node">
<title>Node47</title>
<g id="a_node2"><a xlink:href="class_args_manager.html#af81c6e2a9dcd6b12557a2387fd67b2a6" target="_top" xlink:title="Return boolean argument or default value. ">
<polygon fill="#ffffff" stroke="#000000" points="189.0728,-185.5 189.0728,-203.5 322.353,-203.5 322.353,-185.5 189.0728,-185.5"/>
<text text-anchor="middle" x="255.7129" y="-191.5" font-family="Helvetica,sans-Serif" font-size="10.00" fill="#000000">ArgsManager::GetBoolArg</text>
</a>
</g>
</g>
<!-- Node46&#45;&gt;Node47 -->
<g id="edge1" class="edge">
<title>Node46&#45;&gt;Node47</title>
<path fill="none" stroke="#191970" d="M87.6286,-110.7046C107.0241,-126.3656 148.8722,-158.2668 189.0703,-176.5 193.9817,-178.7277 199.2256,-180.7285 204.5334,-182.5132"/>
<polygon fill="#191970" stroke="#191970" points="203.5099,-185.8601 214.0984,-185.4947 205.5931,-179.1773 203.5099,-185.8601"/>
</g>
<!-- Node53 -->
<g id="node8" class="node">
<title>Node53</title>
<g id="a_node8"><a xlink:href="util_8h.html#aad133bb6103b53cebf03fd01e2f11ba1" target="_top" xlink:title="Translation function. ">
<polygon fill="#ffffff" stroke="#000000" points="241.2129,-148.5 241.2129,-166.5 270.2129,-166.5 270.2129,-148.5 241.2129,-148.5"/>
<text text-anchor="middle" x="255.7129" y="-154.5" font-family="Helvetica,sans-Serif" font-size="10.00" fill="#000000">_</text>
</a>
</g>
</g>
<!-- Node46&#45;&gt;Node53 -->
<g id="edge8" class="edge">
<title>Node46&#45;&gt;Node53</title>
<path fill="none" stroke="#191970" d="M101.8662,-110.5536C124.5801,-118.552 158.8804,-130.3353 189.0703,-139.5 202.957,-143.7156 218.6176,-147.9705 231.2667,-151.2844"/>
<polygon fill="#191970" stroke="#191970" points="230.5205,-154.7065 241.0786,-153.8251 232.2753,-147.93 230.5205,-154.7065"/>
</g>
<!-- Node54 -->
<g id="node9" class="node">
<title>Node54</title>
<g id="a_node9"><a xlink:href="class_berkeley_database.html#aa8261d4a4224a6e6d8ad358549379788" target="_top" xlink:title="Return object for accessing database at specified path. ">
<polygon fill="#ffffff" stroke="#000000" points="189.0703,-111.5 189.0703,-129.5 322.3555,-129.5 322.3555,-111.5 189.0703,-111.5"/>
<text text-anchor="middle" x="255.7129" y="-117.5" font-family="Helvetica,sans-Serif" font-size="10.00" fill="#000000">BerkeleyDatabase::Create</text>
</a>
</g>
</g>
<!-- Node46&#45;&gt;Node54 -->
<g id="edge9" class="edge">
<title>Node46&#45;&gt;Node54</title>
<path fill="none" stroke="#191970" d="M153.3024,-109.6404C161.7434,-110.5355 170.3394,-111.447 178.7823,-112.3423"/>
<polygon fill="#191970" stroke="#191970" points="178.6709,-115.85 188.9843,-113.4241 179.4091,-108.889 178.6709,-115.85"/>
</g>
<!-- Node55 -->
<g id="node10" class="node">
<title>Node55</title>
<g id="a_node10"><a xlink:href="ui__interface_8cpp.html#a36f8e669221ac80facf023671576ee82" target="_top" xlink:title="Show error message. ">
<polygon fill="#ffffff" stroke="#000000" points="229.9321,-74.5 229.9321,-92.5 281.4937,-92.5 281.4937,-74.5 229.9321,-74.5"/>
<text text-anchor="middle" x="255.7129" y="-80.5" font-family="Helvetica,sans-Serif" font-size="10.00" fill="#000000">InitError</text>
</a>
</g>
</g>
<!-- Node46&#45;&gt;Node55 -->
<g id="edge10" class="edge">
<title>Node46&#45;&gt;Node55</title>
<path fill="none" stroke="#191970" d="M153.3024,-93.788C176.3835,-91.4693 200.624,-89.0342 219.7242,-87.1154"/>
<polygon fill="#191970" stroke="#191970" points="220.1666,-90.5887 229.7666,-86.1065 219.4668,-83.6237 220.1666,-90.5887"/>
</g>
<!-- Node56 -->
<g id="node11" class="node">
<title>Node56</title>
<g id="a_node11"><a xlink:href="utiltime_8cpp.html#a139d0fe6387b9e230a9b8bb12d9b43b9" target="_top" xlink:title="GetTimeMillis">
<polygon fill="#ffffff" stroke="#000000" points="217.6177,-37.5 217.6177,-55.5 293.8081,-55.5 293.8081,-37.5 217.6177,-37.5"/>
<text text-anchor="middle" x="255.7129" y="-43.5" font-family="Helvetica,sans-Serif" font-size="10.00" fill="#000000">GetTimeMillis</text>
</a>
</g>
</g>
<!-- Node46&#45;&gt;Node56 -->
<g id="edge11" class="edge">
<title>Node46&#45;&gt;Node56</title>
<path fill="none" stroke="#191970" d="M104.2067,-92.3766C126.9393,-84.9471 160.0113,-74.288 189.0703,-65.5 196.9299,-63.1231 205.3354,-60.6632 213.4372,-58.3333"/>
<polygon fill="#191970" stroke="#191970" points="214.4574,-61.682 223.1118,-55.5704 212.535,-54.9511 214.4574,-61.682"/>
</g>
<!-- Node57 -->
<g id="node12" class="node">
<title>Node57</title>
<g id="a_node12"><a xlink:href="class_c_wallet.html#a9c9a5808835737efe27c97c6853e7dc8" target="_top" xlink:title="Construct wallet with specified name and database implementation. ">
<polygon fill="#ffffff" stroke="#000000" points="210.2959,-.5 210.2959,-18.5 301.1299,-18.5 301.1299,-.5 210.2959,-.5"/>
<text text-anchor="middle" x="255.7129" y="-6.5" font-family="Helvetica,sans-Serif" font-size="10.00" fill="#000000">CWallet::CWallet</text>
</a>
</g>
</g>
<!-- Node46&#45;&gt;Node57 -->
<g id="edge12" class="edge">
<title>Node46&#45;&gt;Node57</title>
<path fill="none" stroke="#191970" d="M88.0138,-92.3762C107.6518,-77.1651 149.4246,-46.5191 189.0703,-28.5 194.7486,-25.9192 200.8602,-23.6045 206.9967,-21.5539"/>
<polygon fill="#191970" stroke="#191970" points="208.1029,-24.8751 216.6016,-18.5487 206.0126,-18.1945 208.1029,-24.8751"/>
</g>
<!-- Node48 -->
<g id="node3" class="node">
<title>Node48</title>
<g id="a_node3"><a xlink:href="class_args_manager.html#a113a1b8c5471d2fff0108058be8b86af" target="_top" xlink:title="Return true if the argument was originally passed as a negated option, i.e. ">
<polygon fill="#ffffff" stroke="#000000" points="358.3555,-206.5 358.3555,-224.5 501.0889,-224.5 501.0889,-206.5 358.3555,-206.5"/>
<text text-anchor="middle" x="429.7222" y="-212.5" font-family="Helvetica,sans-Serif" font-size="10.00" fill="#000000">ArgsManager::IsArgNegated</text>
</a>
</g>
</g>
<!-- Node47&#45;&gt;Node48 -->
<g id="edge2" class="edge">
<title>Node47&#45;&gt;Node48</title>
<path fill="none" stroke="#191970" d="M322.4918,-202.5591C330.896,-203.5733 339.5668,-204.6198 348.1663,-205.6576"/>
<polygon fill="#191970" stroke="#191970" points="347.861,-209.146 358.2083,-206.8695 348.6998,-202.1965 347.861,-209.146"/>
</g>
<!-- Node50 -->
<g id="node5" class="node">
<title>Node50</title>
<g id="a_node5"><a xlink:href="class_args_manager_helper.html#aa4f8f77dc468b29cffe50513c78a87cd" target="_top" xlink:title="ArgsManagerHelper::\lGetArg">
<polygon fill="#ffffff" stroke="#000000" points="374.2002,-158.5 374.2002,-186.5 485.2441,-186.5 485.2441,-158.5 374.2002,-158.5"/>
<text text-anchor="start" x="382.2002" y="-174.5" font-family="Helvetica,sans-Serif" font-size="10.00" fill="#000000">ArgsManagerHelper::</text>
<text text-anchor="middle" x="429.7222" y="-164.5" font-family="Helvetica,sans-Serif" font-size="10.00" fill="#000000">GetArg</text>
</a>
</g>
</g>
<!-- Node47&#45;&gt;Node50 -->
<g id="edge4" class="edge">
<title>Node47&#45;&gt;Node50</title>
<path fill="none" stroke="#191970" d="M322.4918,-186.0571C336.0865,-184.3384 350.3786,-182.5314 363.9384,-180.817"/>
<polygon fill="#191970" stroke="#191970" points="364.6592,-184.2539 374.1412,-179.5271 363.7812,-177.3091 364.6592,-184.2539"/>
</g>
<!-- Node49 -->
<g id="node4" class="node">
<title>Node49</title>
<g id="a_node4"><a xlink:href="class_args_manager_helper.html#a863ddbcfbd113cf88cf622a0a4e32c1d" target="_top" xlink:title="Convert regular argument into the network&#45;specific setting. ">
<polygon fill="#ffffff" stroke="#000000" points="537.0889,-203.5 537.0889,-231.5 648.1328,-231.5 648.1328,-203.5 537.0889,-203.5"/>
<text text-anchor="start" x="545.0889" y="-219.5" font-family="Helvetica,sans-Serif" font-size="10.00" fill="#000000">ArgsManagerHelper::</text>
<text text-anchor="middle" x="592.6108" y="-209.5" font-family="Helvetica,sans-Serif" font-size="10.00" fill="#000000">NetworkArg</text>
</a>
</g>
</g>
<!-- Node48&#45;&gt;Node49 -->
<g id="edge3" class="edge">
<title>Node48&#45;&gt;Node49</title>
<path fill="none" stroke="#191970" d="M501.1675,-216.3772C509.6755,-216.4817 518.3313,-216.588 526.7559,-216.6914"/>
<polygon fill="#191970" stroke="#191970" points="526.8498,-220.1927 536.892,-216.8159 526.9358,-213.1933 526.8498,-220.1927"/>
</g>
<!-- Node50&#45;&gt;Node49 -->
<g id="edge6" class="edge">
<title>Node50&#45;&gt;Node49</title>
<path fill="none" stroke="#191970" d="M480.8142,-186.6148C497.0369,-191.0965 515.1344,-196.0962 531.9624,-200.7451"/>
<polygon fill="#191970" stroke="#191970" points="531.1291,-204.146 541.7001,-203.4353 532.9931,-197.3987 531.1291,-204.146"/>
</g>
<!-- Node51 -->
<g id="node6" class="node">
<title>Node51</title>
<g id="a_node6"><a xlink:href="class_args_manager_helper.html#a1804a95992b4e10d04f0b92c53032b29" target="_top" xlink:title="Return true/false if an argument is set in a map, and also return the first (or last) of the possibly...">
<polygon fill="#ffffff" stroke="#000000" points="537.0889,-156.5 537.0889,-184.5 648.1328,-184.5 648.1328,-156.5 537.0889,-156.5"/>
<text text-anchor="start" x="545.0889" y="-172.5" font-family="Helvetica,sans-Serif" font-size="10.00" fill="#000000">ArgsManagerHelper::</text>
<text text-anchor="middle" x="592.6108" y="-162.5" font-family="Helvetica,sans-Serif" font-size="10.00" fill="#000000">GetArgHelper</text>
</a>
</g>
</g>
<!-- Node50&#45;&gt;Node51 -->
<g id="edge5" class="edge">
<title>Node50&#45;&gt;Node51</title>
<path fill="none" stroke="#191970" d="M485.3236,-171.8173C498.6167,-171.6541 512.9345,-171.4783 526.6448,-171.31"/>
<polygon fill="#191970" stroke="#191970" points="527.0274,-174.8056 536.9836,-171.183 526.9413,-167.8061 527.0274,-174.8056"/>
</g>
<!-- Node52 -->
<g id="node7" class="node">
<title>Node52</title>
<g id="a_node7"><a xlink:href="class_args_manager_helper.html#a43f3488403e4f0433ade323e48008359" target="_top" xlink:title="Determine whether to use config settings in the default section, See also comments around ArgsManager...">
<polygon fill="#ffffff" stroke="#000000" points="537.0889,-109.5 537.0889,-137.5 648.1328,-137.5 648.1328,-109.5 537.0889,-109.5"/>
<text text-anchor="start" x="545.0889" y="-125.5" font-family="Helvetica,sans-Serif" font-size="10.00" fill="#000000">ArgsManagerHelper::</text>
<text text-anchor="middle" x="592.6108" y="-115.5" font-family="Helvetica,sans-Serif" font-size="10.00" fill="#000000">UseDefaultSection</text>
</a>
</g>
</g>
<!-- Node50&#45;&gt;Node52 -->
<g id="edge7" class="edge">
<title>Node50&#45;&gt;Node52</title>
<path fill="none" stroke="#191970" d="M476.3995,-158.4586C495.0576,-152.8459 516.7127,-146.3316 536.2376,-140.4581"/>
<polygon fill="#191970" stroke="#191970" points="537.3588,-143.7759 545.9267,-137.5435 535.3423,-137.0726 537.3588,-143.7759"/>
</g>
</g>
</svg>
