<?xml version="1.0" encoding="UTF-8" standalone="no"?>
<!DOCTYPE svg PUBLIC "-//W3C//DTD SVG 1.1//EN"
 "http://www.w3.org/Graphics/SVG/1.1/DTD/svg11.dtd">
<!-- Generated by graphviz version 2.40.1 (20161225.0304)
 -->
<!-- Title: AddressTableModel::data Pages: 1 -->
<svg width="1012pt" height="367pt"
 viewBox="0.00 0.00 1011.99 366.86" xmlns="http://www.w3.org/2000/svg" xmlns:xlink="http://www.w3.org/1999/xlink">
<g id="graph0" class="graph" transform="scale(1 1) rotate(0) translate(4 362.8592)">
<title>AddressTableModel::data</title>
<polygon fill="#ffffff" stroke="transparent" points="-4,4 -4,-362.8592 1007.9932,-362.8592 1007.9932,4 -4,4"/>
<!-- Node27 -->
<g id="node1" class="node">
<title>Node27</title>
<polygon fill="#bfbfbf" stroke="#000000" points="0,-113.3592 0,-131.3592 128.8467,-131.3592 128.8467,-113.3592 0,-113.3592"/>
<text text-anchor="middle" x="64.4233" y="-119.3592" font-family="Helvetica,sans-Serif" font-size="10.00" fill="#000000">AddressTableModel::data</text>
</g>
<!-- Node28 -->
<g id="node2" class="node">
<title>Node28</title>
<g id="a_node2"><a xlink:href="class_address_table_model.html#a74e9123471948255f87271c823c82854" target="_top" xlink:title="AddressTableModel::\lindex">
<polygon fill="#ffffff" stroke="#000000" points="164.8467,-108.3592 164.8467,-136.3592 274.2305,-136.3592 274.2305,-108.3592 164.8467,-108.3592"/>
<text text-anchor="start" x="172.8467" y="-124.3592" font-family="Helvetica,sans-Serif" font-size="10.00" fill="#000000">AddressTableModel::</text>
<text text-anchor="middle" x="219.5386" y="-114.3592" font-family="Helvetica,sans-Serif" font-size="10.00" fill="#000000">index</text>
</a>
</g>
</g>
<!-- Node27&#45;&gt;Node28 -->
<g id="edge1" class="edge">
<title>Node27&#45;&gt;Node28</title>
<path fill="none" stroke="#191970" d="M138.9055,-115.614C147.5054,-115.5876 156.1557,-115.672 164.4328,-115.8672"/>
<polygon fill="#191970" stroke="#191970" points="138.8297,-112.1144 128.8586,-115.6959 138.8868,-119.1141 138.8297,-112.1144"/>
</g>
<!-- Node39 -->
<g id="node13" class="node">
<title>Node39</title>
<g id="a_node13"><a xlink:href="class_transaction_view.html#a18817639384e53f94fc1ad956d7263d9" target="_top" xlink:title="TransactionView::editLabel">
<polygon fill="#ffffff" stroke="#000000" points="501.4663,-70.3592 501.4663,-88.3592 636.9927,-88.3592 636.9927,-70.3592 501.4663,-70.3592"/>
<text text-anchor="middle" x="569.2295" y="-76.3592" font-family="Helvetica,sans-Serif" font-size="10.00" fill="#000000">TransactionView::editLabel</text>
</a>
</g>
</g>
<!-- Node27&#45;&gt;Node39 -->
<g id="edge17" class="edge">
<title>Node27&#45;&gt;Node39</title>
<path fill="none" stroke="#191970" d="M87.61,-107.9427C129.9172,-82.5833 223.3031,-30.9225 310.2305,-12.3592 375.6517,1.6114 396.3942,5.9114 460.7471,-12.3592 500.9939,-23.7859 540.9431,-54.8593 559.0972,-70.3417"/>
<polygon fill="#191970" stroke="#191970" points="85.6465,-105.0401 78.9123,-113.2194 89.2774,-111.0248 85.6465,-105.0401"/>
</g>
<!-- Node28&#45;&gt;Node27 -->
<g id="edge9" class="edge">
<title>Node28&#45;&gt;Node27</title>
<path fill="none" stroke="#191970" d="M154.2928,-129.0331C145.8765,-129.138 137.2617,-129.1345 128.8586,-129.0226"/>
<polygon fill="#191970" stroke="#191970" points="154.4971,-132.5301 164.4328,-128.8513 154.3716,-125.5312 154.4971,-132.5301"/>
</g>
<!-- Node29 -->
<g id="node3" class="node">
<title>Node29</title>
<g id="a_node3"><a xlink:href="class_address_book_page.html#ab62ba5d31e2d64c4d901da58d6b32a59" target="_top" xlink:title="New entry/entries were added to address table. ">
<polygon fill="#ffffff" stroke="#000000" points="310.2305,-249.3592 310.2305,-277.3592 460.7471,-277.3592 460.7471,-249.3592 310.2305,-249.3592"/>
<text text-anchor="start" x="318.2305" y="-265.3592" font-family="Helvetica,sans-Serif" font-size="10.00" fill="#000000">AddressBookPage::selectNew</text>
<text text-anchor="middle" x="385.4888" y="-255.3592" font-family="Helvetica,sans-Serif" font-size="10.00" fill="#000000">Address</text>
</a>
</g>
</g>
<!-- Node28&#45;&gt;Node29 -->
<g id="edge2" class="edge">
<title>Node28&#45;&gt;Node29</title>
<path fill="none" stroke="#191970" d="M231.5859,-145.6817C246.5361,-172.3732 274.4842,-215.5848 310.2305,-240.3592 315.1712,-243.7835 320.6368,-246.7101 326.3008,-249.209"/>
<polygon fill="#191970" stroke="#191970" points="234.5304,-143.7703 226.6756,-136.6602 228.3821,-147.1167 234.5304,-143.7703"/>
</g>
<!-- Node36 -->
<g id="node10" class="node">
<title>Node36</title>
<g id="a_node10"><a xlink:href="class_address_table_model.html#a5c6bd467fd1fc499d126fe2b7380ce5c" target="_top" xlink:title="AddressTableModel::\lsetData">
<polygon fill="#ffffff" stroke="#000000" points="330.7969,-202.3592 330.7969,-230.3592 440.1807,-230.3592 440.1807,-202.3592 330.7969,-202.3592"/>
<text text-anchor="start" x="338.7969" y="-218.3592" font-family="Helvetica,sans-Serif" font-size="10.00" fill="#000000">AddressTableModel::</text>
<text text-anchor="middle" x="385.4888" y="-208.3592" font-family="Helvetica,sans-Serif" font-size="10.00" fill="#000000">setData</text>
</a>
</g>
</g>
<!-- Node28&#45;&gt;Node36 -->
<g id="edge10" class="edge">
<title>Node28&#45;&gt;Node36</title>
<path fill="none" stroke="#191970" d="M241.4666,-143.3295C258.9011,-159.0135 284.5498,-179.9764 310.2305,-193.3592 316.6518,-196.7056 323.6401,-199.6521 330.6852,-202.221"/>
<polygon fill="#191970" stroke="#191970" points="243.7994,-140.7199 234.0635,-136.541 239.0684,-145.8792 243.7994,-140.7199"/>
</g>
<!-- Node37 -->
<g id="node11" class="node">
<title>Node37</title>
<g id="a_node11"><a xlink:href="class_address_table_model.html#a5b5e72b36671632ac72921071b3ec8c3" target="_top" xlink:title="AddressTableModel::\lflags">
<polygon fill="#ffffff" stroke="#000000" points="330.7969,-155.3592 330.7969,-183.3592 440.1807,-183.3592 440.1807,-155.3592 330.7969,-155.3592"/>
<text text-anchor="start" x="338.7969" y="-171.3592" font-family="Helvetica,sans-Serif" font-size="10.00" fill="#000000">AddressTableModel::</text>
<text text-anchor="middle" x="385.4888" y="-161.3592" font-family="Helvetica,sans-Serif" font-size="10.00" fill="#000000">flags</text>
</a>
</g>
</g>
<!-- Node28&#45;&gt;Node37 -->
<g id="edge11" class="edge">
<title>Node28&#45;&gt;Node37</title>
<path fill="none" stroke="#191970" d="M279.1864,-139.2526C297.8211,-144.5302 318.1642,-150.2918 336.0195,-155.3487"/>
<polygon fill="#191970" stroke="#191970" points="279.9044,-135.8183 269.3291,-136.4608 277.9969,-142.5534 279.9044,-135.8183"/>
</g>
<!-- Node38 -->
<g id="node12" class="node">
<title>Node38</title>
<g id="a_node12"><a xlink:href="class_address_table_model.html#a0beb94d838781d9055e393b37bf68f83" target="_top" xlink:title="AddressTableModel::\llookupAddress">
<polygon fill="#ffffff" stroke="#000000" points="330.7969,-108.3592 330.7969,-136.3592 440.1807,-136.3592 440.1807,-108.3592 330.7969,-108.3592"/>
<text text-anchor="start" x="338.7969" y="-124.3592" font-family="Helvetica,sans-Serif" font-size="10.00" fill="#000000">AddressTableModel::</text>
<text text-anchor="middle" x="385.4888" y="-114.3592" font-family="Helvetica,sans-Serif" font-size="10.00" fill="#000000">lookupAddress</text>
</a>
</g>
</g>
<!-- Node28&#45;&gt;Node38 -->
<g id="edge12" class="edge">
<title>Node28&#45;&gt;Node38</title>
<path fill="none" stroke="#191970" d="M284.7209,-122.3592C299.9526,-122.3592 316.0237,-122.3592 330.7481,-122.3592"/>
<polygon fill="#191970" stroke="#191970" points="284.3368,-118.8593 274.3368,-122.3592 284.3368,-125.8593 284.3368,-118.8593"/>
</g>
<!-- Node28&#45;&gt;Node39 -->
<g id="edge16" class="edge">
<title>Node28&#45;&gt;Node39</title>
<path fill="none" stroke="#191970" d="M275.6031,-105.7909C286.9803,-102.9196 298.9247,-100.253 310.2305,-98.3592 374.4845,-87.5963 448.7207,-82.9302 501.1984,-80.9073"/>
<polygon fill="#191970" stroke="#191970" points="274.5742,-102.4421 265.7812,-108.3526 276.3409,-109.2155 274.5742,-102.4421"/>
</g>
<!-- Node41 -->
<g id="node15" class="node">
<title>Node41</title>
<g id="a_node15"><a xlink:href="class_address_table_model.html#a42cbcc82a8752c4af3b75fd62e8c7a40" target="_top" xlink:title="Notify listeners that data changed. ">
<polygon fill="#ffffff" stroke="#000000" points="330.7969,-22.3592 330.7969,-50.3592 440.1807,-50.3592 440.1807,-22.3592 330.7969,-22.3592"/>
<text text-anchor="start" x="338.7969" y="-38.3592" font-family="Helvetica,sans-Serif" font-size="10.00" fill="#000000">AddressTableModel::</text>
<text text-anchor="middle" x="385.4888" y="-28.3592" font-family="Helvetica,sans-Serif" font-size="10.00" fill="#000000">emitDataChanged</text>
</a>
</g>
</g>
<!-- Node28&#45;&gt;Node41 -->
<g id="edge15" class="edge">
<title>Node28&#45;&gt;Node41</title>
<path fill="none" stroke="#191970" d="M247.9972,-102.4751C265.464,-90.7827 288.5678,-76.2126 310.2305,-65.3592 321.1218,-59.9025 333.3024,-54.8053 344.6379,-50.4535"/>
<polygon fill="#191970" stroke="#191970" points="245.7286,-99.7845 239.4144,-108.2923 249.6559,-105.579 245.7286,-99.7845"/>
</g>
<!-- Node30 -->
<g id="node4" class="node">
<title>Node30</title>
<g id="a_node4"><a xlink:href="class_address_book_page.html#a1282cda9cb0300ee04c472ec4c9949f3" target="_top" xlink:title="AddressBookPage::setModel">
<polygon fill="#ffffff" stroke="#000000" points="496.7471,-254.3592 496.7471,-272.3592 641.7119,-272.3592 641.7119,-254.3592 496.7471,-254.3592"/>
<text text-anchor="middle" x="569.2295" y="-260.3592" font-family="Helvetica,sans-Serif" font-size="10.00" fill="#000000">AddressBookPage::setModel</text>
</a>
</g>
</g>
<!-- Node29&#45;&gt;Node30 -->
<g id="edge3" class="edge">
<title>Node29&#45;&gt;Node30</title>
<path fill="none" stroke="#191970" d="M470.7758,-263.3592C479.3589,-263.3592 488.0192,-263.3592 496.4546,-263.3592"/>
<polygon fill="#191970" stroke="#191970" points="470.7533,-259.8593 460.7533,-263.3592 470.7533,-266.8593 470.7533,-259.8593"/>
</g>
<!-- Node31 -->
<g id="node5" class="node">
<title>Node31</title>
<g id="a_node5"><a xlink:href="class_send_coins_entry.html#ac661741d286d9f3db32f78bd22125cb0" target="_top" xlink:title="SendCoinsEntry::on\l_addressBookButton_clicked">
<polygon fill="#ffffff" stroke="#000000" points="689.3843,-330.3592 689.3843,-358.3592 834.354,-358.3592 834.354,-330.3592 689.3843,-330.3592"/>
<text text-anchor="start" x="697.3843" y="-346.3592" font-family="Helvetica,sans-Serif" font-size="10.00" fill="#000000">SendCoinsEntry::on</text>
<text text-anchor="middle" x="761.8691" y="-336.3592" font-family="Helvetica,sans-Serif" font-size="10.00" fill="#000000">_addressBookButton_clicked</text>
</a>
</g>
</g>
<!-- Node30&#45;&gt;Node31 -->
<g id="edge4" class="edge">
<title>Node30&#45;&gt;Node31</title>
<path fill="none" stroke="#191970" d="M592.5418,-277.8053C614.026,-290.6321 647.1189,-309.1796 677.7119,-321.3592 686.0145,-324.6647 694.9603,-327.6681 703.8116,-330.3333"/>
<polygon fill="#191970" stroke="#191970" points="594.1804,-274.706 583.8123,-272.5258 590.5579,-280.6958 594.1804,-274.706"/>
</g>
<!-- Node32 -->
<g id="node6" class="node">
<title>Node32</title>
<g id="a_node6"><a xlink:href="class_sign_verify_message_dialog.html#a792a3bd647958c8ae74286c5ab3cf205" target="_top" xlink:title="SignVerifyMessageDialog\l::on_addressBookButton\l_SM_clicked">
<polygon fill="#ffffff" stroke="#000000" points="696.8916,-273.3592 696.8916,-311.3592 826.8467,-311.3592 826.8467,-273.3592 696.8916,-273.3592"/>
<text text-anchor="start" x="704.8916" y="-299.3592" font-family="Helvetica,sans-Serif" font-size="10.00" fill="#000000">SignVerifyMessageDialog</text>
<text text-anchor="start" x="704.8916" y="-289.3592" font-family="Helvetica,sans-Serif" font-size="10.00" fill="#000000">::on_addressBookButton</text>
<text text-anchor="middle" x="761.8691" y="-279.3592" font-family="Helvetica,sans-Serif" font-size="10.00" fill="#000000">_SM_clicked</text>
</a>
</g>
</g>
<!-- Node30&#45;&gt;Node32 -->
<g id="edge5" class="edge">
<title>Node30&#45;&gt;Node32</title>
<path fill="none" stroke="#191970" d="M639.0967,-273.8771C657.8853,-276.7055 678.1296,-279.7531 696.6543,-282.5418"/>
<polygon fill="#191970" stroke="#191970" points="639.5355,-270.4038 629.1259,-272.3761 638.4934,-277.3258 639.5355,-270.4038"/>
</g>
<!-- Node33 -->
<g id="node7" class="node">
<title>Node33</title>
<g id="a_node7"><a xlink:href="class_sign_verify_message_dialog.html#a90ceb00084c68da5e9c481ba0841d976" target="_top" xlink:title="SignVerifyMessageDialog\l::on_addressBookButton\l_VM_clicked">
<polygon fill="#ffffff" stroke="#000000" points="696.8916,-216.3592 696.8916,-254.3592 826.8467,-254.3592 826.8467,-216.3592 696.8916,-216.3592"/>
<text text-anchor="start" x="704.8916" y="-242.3592" font-family="Helvetica,sans-Serif" font-size="10.00" fill="#000000">SignVerifyMessageDialog</text>
<text text-anchor="start" x="704.8916" y="-232.3592" font-family="Helvetica,sans-Serif" font-size="10.00" fill="#000000">::on_addressBookButton</text>
<text text-anchor="middle" x="761.8691" y="-222.3592" font-family="Helvetica,sans-Serif" font-size="10.00" fill="#000000">_VM_clicked</text>
</a>
</g>
</g>
<!-- Node30&#45;&gt;Node33 -->
<g id="edge6" class="edge">
<title>Node30&#45;&gt;Node33</title>
<path fill="none" stroke="#191970" d="M641.2017,-252.8981C659.3908,-250.2544 678.8195,-247.4304 696.6543,-244.8382"/>
<polygon fill="#191970" stroke="#191970" points="640.6348,-249.4437 631.2423,-254.3457 641.6417,-256.3709 640.6348,-249.4437"/>
</g>
<!-- Node34 -->
<g id="node8" class="node">
<title>Node34</title>
<g id="a_node8"><a xlink:href="class_wallet_view.html#a0a37ff693a4f9c1e5ddc23f9cd3913be" target="_top" xlink:title="Set the wallet model. ">
<polygon fill="#ffffff" stroke="#000000" points="692.6362,-179.3592 692.6362,-197.3592 831.1021,-197.3592 831.1021,-179.3592 692.6362,-179.3592"/>
<text text-anchor="middle" x="761.8691" y="-185.3592" font-family="Helvetica,sans-Serif" font-size="10.00" fill="#000000">WalletView::setWalletModel</text>
</a>
</g>
</g>
<!-- Node30&#45;&gt;Node34 -->
<g id="edge7" class="edge">
<title>Node30&#45;&gt;Node34</title>
<path fill="none" stroke="#191970" d="M592.4881,-249.1381C613.9361,-236.5688 647.0059,-218.5431 677.7119,-207.3592 688.5488,-203.4122 700.4803,-200.1206 711.8675,-197.4473"/>
<polygon fill="#191970" stroke="#191970" points="590.5811,-246.2001 583.7753,-254.3199 594.1592,-252.2165 590.5811,-246.2001"/>
</g>
<!-- Node35 -->
<g id="node9" class="node">
<title>Node35</title>
<g id="a_node9"><a xlink:href="class_wallet_frame.html#a06cb28194836995e50cc46716b2227ff" target="_top" xlink:title="WalletFrame::addWallet">
<polygon fill="#ffffff" stroke="#000000" points="882.0264,-179.3592 882.0264,-197.3592 1003.9932,-197.3592 1003.9932,-179.3592 882.0264,-179.3592"/>
<text text-anchor="middle" x="943.0098" y="-185.3592" font-family="Helvetica,sans-Serif" font-size="10.00" fill="#000000">WalletFrame::addWallet</text>
</a>
</g>
</g>
<!-- Node34&#45;&gt;Node35 -->
<g id="edge8" class="edge">
<title>Node34&#45;&gt;Node35</title>
<path fill="none" stroke="#191970" d="M841.3961,-188.3592C854.9382,-188.3592 868.8146,-188.3592 881.7899,-188.3592"/>
<polygon fill="#191970" stroke="#191970" points="841.126,-184.8593 831.126,-188.3592 841.126,-191.8593 841.126,-184.8593"/>
</g>
<!-- Node38&#45;&gt;Node39 -->
<g id="edge13" class="edge">
<title>Node38&#45;&gt;Node39</title>
<path fill="none" stroke="#191970" d="M450.701,-107.0979C477.4906,-100.8285 507.5912,-93.7842 530.7551,-88.3632"/>
<polygon fill="#191970" stroke="#191970" points="449.5564,-103.7711 440.617,-109.4578 451.1515,-110.587 449.5564,-103.7711"/>
</g>
<!-- Node40 -->
<g id="node14" class="node">
<title>Node40</title>
<g id="a_node14"><a xlink:href="class_transaction_view.html#a6bad80e62c684ad1e77250510c9323aa" target="_top" xlink:title="TransactionView::TransactionView">
<polygon fill="#ffffff" stroke="#000000" points="677.7119,-70.3592 677.7119,-88.3592 846.0264,-88.3592 846.0264,-70.3592 677.7119,-70.3592"/>
<text text-anchor="middle" x="761.8691" y="-76.3592" font-family="Helvetica,sans-Serif" font-size="10.00" fill="#000000">TransactionView::TransactionView</text>
</a>
</g>
</g>
<!-- Node39&#45;&gt;Node40 -->
<g id="edge14" class="edge">
<title>Node39&#45;&gt;Node40</title>
<path fill="none" stroke="#191970" d="M647.4195,-79.3592C657.3884,-79.3592 667.6261,-79.3592 677.6844,-79.3592"/>
<polygon fill="#191970" stroke="#191970" points="647.1471,-75.8593 637.147,-79.3592 647.147,-82.8593 647.1471,-75.8593"/>
</g>
</g>
</svg>
