<?xml version="1.0" encoding="UTF-8" standalone="no"?>
<!DOCTYPE svg PUBLIC "-//W3C//DTD SVG 1.1//EN"
 "http://www.w3.org/Graphics/SVG/1.1/DTD/svg11.dtd">
<!-- Generated by graphviz version 2.40.1 (20161225.0304)
 -->
<!-- Title: SendCoinsDialog::coinControlFeatureChanged Pages: 1 -->
<svg width="665pt" height="37pt"
 viewBox="0.00 0.00 665.24 37.00" xmlns="http://www.w3.org/2000/svg" xmlns:xlink="http://www.w3.org/1999/xlink">
<g id="graph0" class="graph" transform="scale(1 1) rotate(0) translate(4 33)">
<title>SendCoinsDialog::coinControlFeatureChanged</title>
<polygon fill="#ffffff" stroke="transparent" points="-4,4 -4,-33 661.2441,-33 661.2441,4 -4,4"/>
<!-- Node425 -->
<g id="node1" class="node">
<title>Node425</title>
<polygon fill="#bfbfbf" stroke="#000000" points="0,-.5 0,-28.5 149.4082,-28.5 149.4082,-.5 0,-.5"/>
<text text-anchor="start" x="8" y="-16.5" font-family="Helvetica,sans-Serif" font-size="10.00" fill="#000000">SendCoinsDialog::coinControl</text>
<text text-anchor="middle" x="74.7041" y="-6.5" font-family="Helvetica,sans-Serif" font-size="10.00" fill="#000000">FeatureChanged</text>
</g>
<!-- Node426 -->
<g id="node2" class="node">
<title>Node426</title>
<g id="a_node2"><a xlink:href="class_send_coins_dialog.html#a73a6c1b1850a334ee652ac167713a2aa" target="_top" xlink:title="SendCoinsDialog::setModel">
<polygon fill="#ffffff" stroke="#000000" points="185.4082,-5.5 185.4082,-23.5 324.8115,-23.5 324.8115,-5.5 185.4082,-5.5"/>
<text text-anchor="middle" x="255.1099" y="-11.5" font-family="Helvetica,sans-Serif" font-size="10.00" fill="#000000">SendCoinsDialog::setModel</text>
</a>
</g>
</g>
<!-- Node425&#45;&gt;Node426 -->
<g id="edge1" class="edge">
<title>Node425&#45;&gt;Node426</title>
<path fill="none" stroke="#191970" d="M159.677,-14.5C168.2634,-14.5 176.9133,-14.5 185.3139,-14.5"/>
<polygon fill="#191970" stroke="#191970" points="159.6451,-11.0001 149.6451,-14.5 159.6451,-18.0001 159.6451,-11.0001"/>
</g>
<!-- Node427 -->
<g id="node3" class="node">
<title>Node427</title>
<g id="a_node3"><a xlink:href="class_wallet_view.html#a0a37ff693a4f9c1e5ddc23f9cd3913be" target="_top" xlink:title="Set the wallet model. ">
<polygon fill="#ffffff" stroke="#000000" points="360.8115,-5.5 360.8115,-23.5 499.2773,-23.5 499.2773,-5.5 360.8115,-5.5"/>
<text text-anchor="middle" x="430.0444" y="-11.5" font-family="Helvetica,sans-Serif" font-size="10.00" fill="#000000">WalletView::setWalletModel</text>
</a>
</g>
</g>
<!-- Node426&#45;&gt;Node427 -->
<g id="edge2" class="edge">
<title>Node426&#45;&gt;Node427</title>
<path fill="none" stroke="#191970" d="M335.2422,-14.5C343.6916,-14.5 352.233,-14.5 360.5479,-14.5"/>
<polygon fill="#191970" stroke="#191970" points="335.0028,-11.0001 325.0028,-14.5 335.0028,-18.0001 335.0028,-11.0001"/>
</g>
<!-- Node428 -->
<g id="node4" class="node">
<title>Node428</title>
<g id="a_node4"><a xlink:href="class_wallet_frame.html#a06cb28194836995e50cc46716b2227ff" target="_top" xlink:title="WalletFrame::addWallet">
<polygon fill="#ffffff" stroke="#000000" points="535.2773,-5.5 535.2773,-23.5 657.2441,-23.5 657.2441,-5.5 535.2773,-5.5"/>
<text text-anchor="middle" x="596.2607" y="-11.5" font-family="Helvetica,sans-Serif" font-size="10.00" fill="#000000">WalletFrame::addWallet</text>
</a>
</g>
</g>
<!-- Node427&#45;&gt;Node428 -->
<g id="edge3" class="edge">
<title>Node427&#45;&gt;Node428</title>
<path fill="none" stroke="#191970" d="M509.6225,-14.5C518.2226,-14.5 526.8731,-14.5 535.205,-14.5"/>
<polygon fill="#191970" stroke="#191970" points="509.5721,-11.0001 499.572,-14.5 509.572,-18.0001 509.5721,-11.0001"/>
</g>
</g>
</svg>
