<?xml version="1.0" encoding="UTF-8" standalone="no"?>
<!DOCTYPE svg PUBLIC "-//W3C//DTD SVG 1.1//EN"
 "http://www.w3.org/Graphics/SVG/1.1/DTD/svg11.dtd">
<!-- Generated by graphviz version 2.40.1 (20161225.0304)
 -->
<!-- Title: GUIUtil::TableViewLastColumnResizingFixer::getColumnsWidth Pages: 1 -->
<svg width="1857pt" height="234pt"
 viewBox="0.00 0.00 1857.30 234.00" xmlns="http://www.w3.org/2000/svg" xmlns:xlink="http://www.w3.org/1999/xlink">
<g id="graph0" class="graph" transform="scale(1 1) rotate(0) translate(4 230)">
<title>GUIUtil::TableViewLastColumnResizingFixer::getColumnsWidth</title>
<polygon fill="#ffffff" stroke="transparent" points="-4,4 -4,-230 1853.2998,-230 1853.2998,4 -4,4"/>
<!-- Node63 -->
<g id="node1" class="node">
<title>Node63</title>
<polygon fill="#bfbfbf" stroke="#000000" points="0,-143 0,-171 161.0488,-171 161.0488,-143 0,-143"/>
<text text-anchor="start" x="8" y="-159" font-family="Helvetica,sans-Serif" font-size="10.00" fill="#000000">GUIUtil::TableViewLastColumn</text>
<text text-anchor="middle" x="80.5244" y="-149" font-family="Helvetica,sans-Serif" font-size="10.00" fill="#000000">ResizingFixer::getColumnsWidth</text>
</g>
<!-- Node64 -->
<g id="node2" class="node">
<title>Node64</title>
<g id="a_node2"><a xlink:href="class_g_u_i_util_1_1_table_view_last_column_resizing_fixer.html#ad0c6ff117107634ae8d37f056d27e711" target="_top" xlink:title="GUIUtil::TableViewLastColumn\lResizingFixer::getAvailableWidth\lForColumn">
<polygon fill="#ffffff" stroke="#000000" points="197.0488,-90 197.0488,-128 359.0449,-128 359.0449,-90 197.0488,-90"/>
<text text-anchor="start" x="205.0488" y="-116" font-family="Helvetica,sans-Serif" font-size="10.00" fill="#000000">GUIUtil::TableViewLastColumn</text>
<text text-anchor="start" x="205.0488" y="-106" font-family="Helvetica,sans-Serif" font-size="10.00" fill="#000000">ResizingFixer::getAvailableWidth</text>
<text text-anchor="middle" x="278.0469" y="-96" font-family="Helvetica,sans-Serif" font-size="10.00" fill="#000000">ForColumn</text>
</a>
</g>
</g>
<!-- Node63&#45;&gt;Node64 -->
<g id="edge1" class="edge">
<title>Node63&#45;&gt;Node64</title>
<path fill="none" stroke="#191970" d="M148.3152,-140.5261C164.8808,-136.5005 182.7397,-132.1606 199.7514,-128.0266"/>
<polygon fill="#191970" stroke="#191970" points="147.0778,-137.2249 138.1871,-142.9874 148.7308,-144.0269 147.0778,-137.2249"/>
</g>
<!-- Node65 -->
<g id="node3" class="node">
<title>Node65</title>
<g id="a_node3"><a xlink:href="class_g_u_i_util_1_1_table_view_last_column_resizing_fixer.html#ac5622cca5767d788033fff5d54629d7f" target="_top" xlink:title="GUIUtil::TableViewLastColumn\lResizingFixer::adjustTableColumnsWidth">
<polygon fill="#ffffff" stroke="#000000" points="395.0449,-141 395.0449,-169 592.7832,-169 592.7832,-141 395.0449,-141"/>
<text text-anchor="start" x="403.0449" y="-157" font-family="Helvetica,sans-Serif" font-size="10.00" fill="#000000">GUIUtil::TableViewLastColumn</text>
<text text-anchor="middle" x="493.9141" y="-147" font-family="Helvetica,sans-Serif" font-size="10.00" fill="#000000">ResizingFixer::adjustTableColumnsWidth</text>
</a>
</g>
</g>
<!-- Node63&#45;&gt;Node65 -->
<g id="edge19" class="edge">
<title>Node63&#45;&gt;Node65</title>
<path fill="none" stroke="#191970" d="M171.6086,-156.5593C237.6759,-156.2397 326.9737,-155.8077 394.822,-155.4794"/>
<polygon fill="#191970" stroke="#191970" points="171.1944,-153.0612 161.2114,-156.6096 171.2283,-160.0611 171.1944,-153.0612"/>
</g>
<!-- Node71 -->
<g id="node9" class="node">
<title>Node71</title>
<g id="a_node9"><a xlink:href="class_g_u_i_util_1_1_table_view_last_column_resizing_fixer.html#a93f3b32cf06688099875a1c9d2df57f2" target="_top" xlink:title="GUIUtil::TableViewLastColumn\lResizingFixer::on_geometriesChanged">
<polygon fill="#ffffff" stroke="#000000" points="1043.8574,-115 1043.8574,-143 1232.7285,-143 1232.7285,-115 1043.8574,-115"/>
<text text-anchor="start" x="1051.8574" y="-131" font-family="Helvetica,sans-Serif" font-size="10.00" fill="#000000">GUIUtil::TableViewLastColumn</text>
<text text-anchor="middle" x="1138.293" y="-121" font-family="Helvetica,sans-Serif" font-size="10.00" fill="#000000">ResizingFixer::on_geometriesChanged</text>
</a>
</g>
</g>
<!-- Node63&#45;&gt;Node71 -->
<g id="edge20" class="edge">
<title>Node63&#45;&gt;Node71</title>
<path fill="none" stroke="#191970" d="M141.2173,-173.5991C221.3375,-194.0154 367.0934,-226 493.9141,-226 493.9141,-226 493.9141,-226 712.0957,-226 859.8813,-226 1029.466,-169.8633 1102.155,-143.001"/>
<polygon fill="#191970" stroke="#191970" points="141.8608,-170.1507 131.3039,-171.0463 140.1152,-176.9295 141.8608,-170.1507"/>
</g>
<!-- Node64&#45;&gt;Node65 -->
<g id="edge2" class="edge">
<title>Node64&#45;&gt;Node65</title>
<path fill="none" stroke="#191970" d="M369.2873,-128.4428C389.0499,-132.6541 409.5776,-137.0284 428.1334,-140.9825"/>
<polygon fill="#191970" stroke="#191970" points="369.8593,-124.9862 359.3494,-126.3251 368.4003,-131.8324 369.8593,-124.9862"/>
</g>
<!-- Node66 -->
<g id="node4" class="node">
<title>Node66</title>
<g id="a_node4"><a xlink:href="class_g_u_i_util_1_1_table_view_last_column_resizing_fixer.html#a31422ff98c30c95c01dba5bbb8ccbcae" target="_top" xlink:title="GUIUtil::TableViewLastColumn\lResizingFixer::on_sectionResized">
<polygon fill="#ffffff" stroke="#000000" points="628.7832,-55 628.7832,-83 795.4082,-83 795.4082,-55 628.7832,-55"/>
<text text-anchor="start" x="636.7832" y="-71" font-family="Helvetica,sans-Serif" font-size="10.00" fill="#000000">GUIUtil::TableViewLastColumn</text>
<text text-anchor="middle" x="712.0957" y="-61" font-family="Helvetica,sans-Serif" font-size="10.00" fill="#000000">ResizingFixer::on_sectionResized</text>
</a>
</g>
</g>
<!-- Node64&#45;&gt;Node66 -->
<g id="edge17" class="edge">
<title>Node64&#45;&gt;Node66</title>
<path fill="none" stroke="#191970" d="M369.3988,-100.3887C378.0671,-99.5784 386.7223,-98.7719 395.0449,-98 474.2984,-90.6498 564.7086,-82.3928 628.6478,-76.5748"/>
<polygon fill="#191970" stroke="#191970" points="368.8665,-96.9232 359.2362,-101.3399 369.5189,-103.8927 368.8665,-96.9232"/>
</g>
<!-- Node68 -->
<g id="node6" class="node">
<title>Node68</title>
<g id="a_node6"><a xlink:href="class_g_u_i_util_1_1_table_view_last_column_resizing_fixer.html#a89971ed347cf9d25e02cfb7d9c7e3ca6" target="_top" xlink:title="GUIUtil::TableViewLastColumn\lResizingFixer::stretchColumnWidth">
<polygon fill="#ffffff" stroke="#000000" points="1493.9609,-67 1493.9609,-95 1666.1182,-95 1666.1182,-67 1493.9609,-67"/>
<text text-anchor="start" x="1501.9609" y="-83" font-family="Helvetica,sans-Serif" font-size="10.00" fill="#000000">GUIUtil::TableViewLastColumn</text>
<text text-anchor="middle" x="1580.0396" y="-73" font-family="Helvetica,sans-Serif" font-size="10.00" fill="#000000">ResizingFixer::stretchColumnWidth</text>
</a>
</g>
</g>
<!-- Node64&#45;&gt;Node68 -->
<g id="edge16" class="edge">
<title>Node64&#45;&gt;Node68</title>
<path fill="none" stroke="#191970" d="M332.5572,-86.1054C413.7422,-54.1373 571.9207,0 712.0957,0 712.0957,0 712.0957,0 1138.293,0 1285.0729,0 1454.854,-43.8001 1534.4383,-66.9833"/>
<polygon fill="#191970" stroke="#191970" points="331.0431,-82.9409 323.0447,-89.8889 333.6302,-89.4453 331.0431,-82.9409"/>
</g>
<!-- Node64&#45;&gt;Node71 -->
<g id="edge18" class="edge">
<title>Node64&#45;&gt;Node71</title>
<path fill="none" stroke="#191970" d="M369.4432,-111.1249C533.7136,-114.944 877.2277,-122.9305 1043.7541,-126.8021"/>
<polygon fill="#191970" stroke="#191970" points="369.4428,-107.624 359.3641,-110.8906 369.28,-114.6221 369.4428,-107.624"/>
</g>
<!-- Node65&#45;&gt;Node66 -->
<g id="edge3" class="edge">
<title>Node65&#45;&gt;Node66</title>
<path fill="none" stroke="#191970" d="M538.887,-137.2731C579.6802,-121.1938 639.0155,-97.8058 676.5707,-83.0028"/>
<polygon fill="#191970" stroke="#191970" points="537.4742,-134.0679 529.4543,-140.9912 540.0412,-140.5802 537.4742,-134.0679"/>
</g>
<!-- Node67 -->
<g id="node5" class="node">
<title>Node67</title>
<g id="a_node5"><a xlink:href="class_g_u_i_util_1_1_table_view_last_column_resizing_fixer.html#ab01fe3dbf021a9306ec74afda41d6f45" target="_top" xlink:title="GUIUtil::TableViewLastColumn\lResizingFixer::connectViewHeaders\lSignals">
<polygon fill="#ffffff" stroke="#000000" points="831.4082,-67 831.4082,-105 1007.8574,-105 1007.8574,-67 831.4082,-67"/>
<text text-anchor="start" x="839.4082" y="-93" font-family="Helvetica,sans-Serif" font-size="10.00" fill="#000000">GUIUtil::TableViewLastColumn</text>
<text text-anchor="start" x="839.4082" y="-83" font-family="Helvetica,sans-Serif" font-size="10.00" fill="#000000">ResizingFixer::connectViewHeaders</text>
<text text-anchor="middle" x="919.6328" y="-73" font-family="Helvetica,sans-Serif" font-size="10.00" fill="#000000">Signals</text>
</a>
</g>
</g>
<!-- Node66&#45;&gt;Node67 -->
<g id="edge4" class="edge">
<title>Node66&#45;&gt;Node67</title>
<path fill="none" stroke="#191970" d="M805.8448,-76.6793C814.2826,-77.3704 822.8096,-78.0689 831.1999,-78.7562"/>
<polygon fill="#191970" stroke="#191970" points="805.8643,-73.1692 795.6119,-75.8411 805.2927,-80.1459 805.8643,-73.1692"/>
</g>
<!-- Node72 -->
<g id="node10" class="node">
<title>Node72</title>
<g id="a_node10"><a xlink:href="class_g_u_i_util_1_1_table_view_last_column_resizing_fixer.html#ae36cd142d60656073928ba6bd05a6661" target="_top" xlink:title="GUIUtil::TableViewLastColumn\lResizingFixer::disconnectViewHeaders\lSignals">
<polygon fill="#ffffff" stroke="#000000" points="1268.7285,-110 1268.7285,-148 1457.9609,-148 1457.9609,-110 1268.7285,-110"/>
<text text-anchor="start" x="1276.7285" y="-136" font-family="Helvetica,sans-Serif" font-size="10.00" fill="#000000">GUIUtil::TableViewLastColumn</text>
<text text-anchor="start" x="1276.7285" y="-126" font-family="Helvetica,sans-Serif" font-size="10.00" fill="#000000">ResizingFixer::disconnectViewHeaders</text>
<text text-anchor="middle" x="1363.3447" y="-116" font-family="Helvetica,sans-Serif" font-size="10.00" fill="#000000">Signals</text>
</a>
</g>
</g>
<!-- Node66&#45;&gt;Node72 -->
<g id="edge15" class="edge">
<title>Node66&#45;&gt;Node72</title>
<path fill="none" stroke="#191970" d="M805.6549,-58.6912C814.3526,-58.0042 823.0393,-57.4198 831.4082,-57 909.7316,-53.0712 929.8267,-49.1773 1007.8574,-57 1107.1666,-66.9559 1219.7738,-92.1837 1291.1437,-109.9561"/>
<polygon fill="#191970" stroke="#191970" points="805.1327,-55.2224 795.4579,-59.5409 805.714,-62.1983 805.1327,-55.2224"/>
</g>
<!-- Node67&#45;&gt;Node65 -->
<g id="edge5" class="edge">
<title>Node67&#45;&gt;Node65</title>
<path fill="none" stroke="#191970" d="M821.0547,-101.9774C748.2431,-113.7786 650.0731,-129.6899 580.321,-140.9953"/>
<polygon fill="#191970" stroke="#191970" points="821.8436,-105.3953 831.1548,-100.3404 820.7236,-98.4855 821.8436,-105.3953"/>
</g>
<!-- Node67&#45;&gt;Node68 -->
<g id="edge6" class="edge">
<title>Node67&#45;&gt;Node68</title>
<path fill="none" stroke="#191970" d="M1018.2801,-85.2531C1147.2732,-84.2765 1371.1911,-82.5812 1493.7552,-81.6533"/>
<polygon fill="#191970" stroke="#191970" points="1017.9861,-81.7552 1008.0129,-85.3309 1018.0392,-88.755 1017.9861,-81.7552"/>
</g>
<!-- Node67&#45;&gt;Node71 -->
<g id="edge9" class="edge">
<title>Node67&#45;&gt;Node71</title>
<path fill="none" stroke="#191970" d="M1017.8459,-98.5949C1044.8797,-103.7594 1072.8296,-109.6594 1094.9917,-114.9766"/>
<polygon fill="#191970" stroke="#191970" points="1018.4152,-95.1407 1007.94,-96.728 1017.1187,-102.0196 1018.4152,-95.1407"/>
</g>
<!-- Node69 -->
<g id="node7" class="node">
<title>Node69</title>
<g id="a_node7"><a xlink:href="class_receive_coins_dialog.html#a8ebec2144a935622b4a33c57601a8868" target="_top" xlink:title="ReceiveCoinsDialog\l::resizeEvent">
<polygon fill="#ffffff" stroke="#000000" points="1722.687,-88 1722.687,-116 1828.731,-116 1828.731,-88 1722.687,-88"/>
<text text-anchor="start" x="1730.687" y="-104" font-family="Helvetica,sans-Serif" font-size="10.00" fill="#000000">ReceiveCoinsDialog</text>
<text text-anchor="middle" x="1775.709" y="-94" font-family="Helvetica,sans-Serif" font-size="10.00" fill="#000000">::resizeEvent</text>
</a>
</g>
</g>
<!-- Node68&#45;&gt;Node69 -->
<g id="edge7" class="edge">
<title>Node68&#45;&gt;Node69</title>
<path fill="none" stroke="#191970" d="M1676.525,-91.3552C1692.3532,-93.0539 1708.2285,-94.7577 1722.4934,-96.2887"/>
<polygon fill="#191970" stroke="#191970" points="1676.4642,-87.8286 1666.1478,-90.2415 1675.7171,-94.7887 1676.4642,-87.8286"/>
</g>
<!-- Node70 -->
<g id="node8" class="node">
<title>Node70</title>
<g id="a_node8"><a xlink:href="class_transaction_view.html#a6bcc05526bc111b4299d32d882f633b8" target="_top" xlink:title="TransactionView::resizeEvent">
<polygon fill="#ffffff" stroke="#000000" points="1702.1182,-51 1702.1182,-69 1849.2998,-69 1849.2998,-51 1702.1182,-51"/>
<text text-anchor="middle" x="1775.709" y="-57" font-family="Helvetica,sans-Serif" font-size="10.00" fill="#000000">TransactionView::resizeEvent</text>
</a>
</g>
</g>
<!-- Node68&#45;&gt;Node70 -->
<g id="edge8" class="edge">
<title>Node68&#45;&gt;Node70</title>
<path fill="none" stroke="#191970" d="M1676.3097,-70.6679C1684.9866,-69.7367 1693.6799,-68.8037 1702.1165,-67.8982"/>
<polygon fill="#191970" stroke="#191970" points="1675.7171,-67.2113 1666.1478,-71.7585 1676.4642,-74.1714 1675.7171,-67.2113"/>
</g>
<!-- Node71&#45;&gt;Node67 -->
<g id="edge10" class="edge">
<title>Node71&#45;&gt;Node67</title>
<path fill="none" stroke="#191970" d="M1033.7544,-115.1865C1017.0101,-111.934 1000.1156,-108.4405 984.646,-105.0158"/>
<polygon fill="#191970" stroke="#191970" points="1033.1037,-118.6254 1043.584,-117.0713 1034.422,-111.7507 1033.1037,-118.6254"/>
</g>
<!-- Node71&#45;&gt;Node72 -->
<g id="edge11" class="edge">
<title>Node71&#45;&gt;Node72</title>
<path fill="none" stroke="#191970" d="M1243.0348,-122.2644C1251.4953,-122.2331 1260.0148,-122.2529 1268.4007,-122.3238"/>
<polygon fill="#191970" stroke="#191970" points="1242.7351,-118.7661 1232.757,-122.3279 1242.7785,-125.7659 1242.7351,-118.7661"/>
</g>
<!-- Node72&#45;&gt;Node65 -->
<g id="edge12" class="edge">
<title>Node72&#45;&gt;Node65</title>
<path fill="none" stroke="#191970" d="M1261.2316,-149.5654C1251.6276,-150.9547 1242.0149,-152.1412 1232.7285,-153 1004.5852,-174.0974 735.1181,-166.727 593.0688,-160.3443"/>
<polygon fill="#191970" stroke="#191970" points="1261.8611,-153.01 1271.2229,-148.0494 1260.811,-146.0892 1261.8611,-153.01"/>
</g>
<!-- Node72&#45;&gt;Node68 -->
<g id="edge13" class="edge">
<title>Node72&#45;&gt;Node68</title>
<path fill="none" stroke="#191970" d="M1459.1059,-107.788C1478.5708,-103.4763 1498.585,-99.043 1516.5896,-95.0548"/>
<polygon fill="#191970" stroke="#191970" points="1458.3059,-104.3803 1449.2995,-109.9602 1459.8198,-111.2146 1458.3059,-104.3803"/>
</g>
<!-- Node72&#45;&gt;Node71 -->
<g id="edge14" class="edge">
<title>Node72&#45;&gt;Node71</title>
<path fill="none" stroke="#191970" d="M1258.3974,-135.7364C1249.8429,-135.7672 1241.2298,-135.7458 1232.757,-135.6721"/>
<polygon fill="#191970" stroke="#191970" points="1258.4219,-139.2364 1268.4007,-135.6762 1258.3798,-132.2365 1258.4219,-139.2364"/>
</g>
</g>
</svg>
