<?xml version="1.0" encoding="UTF-8" standalone="no"?>
<!DOCTYPE svg PUBLIC "-//W3C//DTD SVG 1.1//EN"
 "http://www.w3.org/Graphics/SVG/1.1/DTD/svg11.dtd">
<!-- Generated by graphviz version 2.40.1 (20161225.0304)
 -->
<!-- Title: CConnman::SweepBanned Pages: 1 -->
<svg width="929pt" height="101pt"
 viewBox="0.00 0.00 928.53 101.00" xmlns="http://www.w3.org/2000/svg" xmlns:xlink="http://www.w3.org/1999/xlink">
<g id="graph0" class="graph" transform="scale(1 1) rotate(0) translate(4 97)">
<title>CConnman::SweepBanned</title>
<polygon fill="#ffffff" stroke="transparent" points="-4,4 -4,-97 924.5313,-97 924.5313,4 -4,4"/>
<!-- Node567 -->
<g id="node1" class="node">
<title>Node567</title>
<polygon fill="#bfbfbf" stroke="#000000" points="0,-37.5 0,-55.5 137.1914,-55.5 137.1914,-37.5 0,-37.5"/>
<text text-anchor="middle" x="68.5957" y="-43.5" font-family="Helvetica,sans-Serif" font-size="10.00" fill="#000000">CConnman::SweepBanned</text>
</g>
<!-- Node568 -->
<g id="node2" class="node">
<title>Node568</title>
<g id="a_node2"><a xlink:href="class_c_connman.html#a6e729a956380ac422ab78d842e158df1" target="_top" xlink:title="CConnman::DumpBanlist">
<polygon fill="#ffffff" stroke="#000000" points="331.9248,-37.5 331.9248,-55.5 460.752,-55.5 460.752,-37.5 331.9248,-37.5"/>
<text text-anchor="middle" x="396.3384" y="-43.5" font-family="Helvetica,sans-Serif" font-size="10.00" fill="#000000">CConnman::DumpBanlist</text>
</a>
</g>
</g>
<!-- Node567&#45;&gt;Node568 -->
<g id="edge1" class="edge">
<title>Node567&#45;&gt;Node568</title>
<path fill="none" stroke="#191970" d="M147.6165,-46.5C204.0673,-46.5 279.0694,-46.5 331.9009,-46.5"/>
<polygon fill="#191970" stroke="#191970" points="147.3013,-43.0001 137.3013,-46.5 147.3013,-50.0001 147.3013,-43.0001"/>
</g>
<!-- Node574 -->
<g id="node8" class="node">
<title>Node574</title>
<g id="a_node8"><a xlink:href="class_c_connman.html#a72472ae8962210960eea780bf0e733f6" target="_top" xlink:title="CConnman::GetBanned">
<polygon fill="#ffffff" stroke="#000000" points="173.1914,-18.5 173.1914,-36.5 295.9248,-36.5 295.9248,-18.5 173.1914,-18.5"/>
<text text-anchor="middle" x="234.5581" y="-24.5" font-family="Helvetica,sans-Serif" font-size="10.00" fill="#000000">CConnman::GetBanned</text>
</a>
</g>
</g>
<!-- Node567&#45;&gt;Node574 -->
<g id="edge7" class="edge">
<title>Node567&#45;&gt;Node574</title>
<path fill="none" stroke="#191970" d="M147.5258,-37.4638C156.076,-36.4849 164.6837,-35.4995 172.9846,-34.5492"/>
<polygon fill="#191970" stroke="#191970" points="147.0739,-33.9926 137.5369,-38.6074 147.8701,-40.9471 147.0739,-33.9926"/>
</g>
<!-- Node569 -->
<g id="node3" class="node">
<title>Node569</title>
<g id="a_node3"><a xlink:href="class_c_connman.html#a6ccf00706c65a961f8abf3d7019406f4" target="_top" xlink:title="CConnman::ClearBanned">
<polygon fill="#ffffff" stroke="#000000" points="496.752,-74.5 496.752,-92.5 627.2637,-92.5 627.2637,-74.5 496.752,-74.5"/>
<text text-anchor="middle" x="562.0078" y="-80.5" font-family="Helvetica,sans-Serif" font-size="10.00" fill="#000000">CConnman::ClearBanned</text>
</a>
</g>
</g>
<!-- Node568&#45;&gt;Node569 -->
<g id="edge2" class="edge">
<title>Node568&#45;&gt;Node569</title>
<path fill="none" stroke="#191970" d="M446.8496,-57.781C470.8258,-63.1357 499.0871,-69.4475 521.6121,-74.4782"/>
<polygon fill="#191970" stroke="#191970" points="447.3882,-54.3151 436.8657,-55.5512 445.8623,-61.1468 447.3882,-54.3151"/>
</g>
<!-- Node570 -->
<g id="node4" class="node">
<title>Node570</title>
<g id="a_node4"><a xlink:href="class_c_connman.html#aec22c52d83be0b6cccb723af3a28b366" target="_top" xlink:title="CConnman::Unban">
<polygon fill="#ffffff" stroke="#000000" points="511.2051,-37.5 511.2051,-55.5 612.8105,-55.5 612.8105,-37.5 511.2051,-37.5"/>
<text text-anchor="middle" x="562.0078" y="-43.5" font-family="Helvetica,sans-Serif" font-size="10.00" fill="#000000">CConnman::Unban</text>
</a>
</g>
</g>
<!-- Node568&#45;&gt;Node570 -->
<g id="edge3" class="edge">
<title>Node568&#45;&gt;Node570</title>
<path fill="none" stroke="#191970" d="M471.1007,-46.5C484.5909,-46.5 498.3695,-46.5 510.9868,-46.5"/>
<polygon fill="#191970" stroke="#191970" points="470.8649,-43.0001 460.8649,-46.5 470.8649,-50.0001 470.8649,-43.0001"/>
</g>
<!-- Node571 -->
<g id="node5" class="node">
<title>Node571</title>
<g id="a_node5"><a xlink:href="class_c_connman.html#ad59340080a38661aadeac522c2ccf656" target="_top" xlink:title="CConnman::DumpData">
<polygon fill="#ffffff" stroke="#000000" points="502.04,-.5 502.04,-18.5 621.9756,-18.5 621.9756,-.5 502.04,-.5"/>
<text text-anchor="middle" x="562.0078" y="-6.5" font-family="Helvetica,sans-Serif" font-size="10.00" fill="#000000">CConnman::DumpData</text>
</a>
</g>
</g>
<!-- Node568&#45;&gt;Node571 -->
<g id="edge4" class="edge">
<title>Node568&#45;&gt;Node571</title>
<path fill="none" stroke="#191970" d="M446.8496,-35.219C470.8258,-29.8643 499.0871,-23.5525 521.6121,-18.5218"/>
<polygon fill="#191970" stroke="#191970" points="445.8623,-31.8532 436.8657,-37.4488 447.3882,-38.6849 445.8623,-31.8532"/>
</g>
<!-- Node572 -->
<g id="node6" class="node">
<title>Node572</title>
<g id="a_node6"><a xlink:href="class_c_connman.html#a289dca0ee65310fcfc5b552249fc0401" target="_top" xlink:title="CConnman::Stop">
<polygon fill="#ffffff" stroke="#000000" points="663.2637,-.5 663.2637,-18.5 755.9727,-18.5 755.9727,-.5 663.2637,-.5"/>
<text text-anchor="middle" x="709.6182" y="-6.5" font-family="Helvetica,sans-Serif" font-size="10.00" fill="#000000">CConnman::Stop</text>
</a>
</g>
</g>
<!-- Node571&#45;&gt;Node572 -->
<g id="edge5" class="edge">
<title>Node571&#45;&gt;Node572</title>
<path fill="none" stroke="#191970" d="M632.109,-9.5C642.666,-9.5 653.3244,-9.5 663.2172,-9.5"/>
<polygon fill="#191970" stroke="#191970" points="632.0466,-6.0001 622.0466,-9.5 632.0466,-13.0001 632.0466,-6.0001"/>
</g>
<!-- Node573 -->
<g id="node7" class="node">
<title>Node573</title>
<g id="a_node7"><a xlink:href="class_c_connman.html#ab4bc83003310d960423d963148d5c9ec" target="_top" xlink:title="CConnman::~CConnman">
<polygon fill="#ffffff" stroke="#000000" points="791.9727,-.5 791.9727,-18.5 920.5313,-18.5 920.5313,-.5 791.9727,-.5"/>
<text text-anchor="middle" x="856.252" y="-6.5" font-family="Helvetica,sans-Serif" font-size="10.00" fill="#000000">CConnman::~CConnman</text>
</a>
</g>
</g>
<!-- Node572&#45;&gt;Node573 -->
<g id="edge6" class="edge">
<title>Node572&#45;&gt;Node573</title>
<path fill="none" stroke="#191970" d="M766.1304,-9.5C774.5784,-9.5 783.3411,-9.5 791.9362,-9.5"/>
<polygon fill="#191970" stroke="#191970" points="766.014,-6.0001 756.014,-9.5 766.014,-13.0001 766.014,-6.0001"/>
</g>
<!-- Node574&#45;&gt;Node568 -->
<g id="edge8" class="edge">
<title>Node574&#45;&gt;Node568</title>
<path fill="none" stroke="#191970" d="M306.3643,-35.9332C314.7868,-36.9223 323.3422,-37.9271 331.6593,-38.9039"/>
<polygon fill="#191970" stroke="#191970" points="306.5218,-32.4277 296.1818,-34.7373 305.7053,-39.3799 306.5218,-32.4277"/>
</g>
</g>
</svg>
