<?xml version="1.0" encoding="UTF-8" standalone="no"?>
<!DOCTYPE svg PUBLIC "-//W3C//DTD SVG 1.1//EN"
 "http://www.w3.org/Graphics/SVG/1.1/DTD/svg11.dtd">
<!-- Generated by graphviz version 2.40.1 (20161225.0304)
 -->
<!-- Title: PeerTableModel::index Pages: 1 -->
<svg width="277pt" height="64pt"
 viewBox="0.00 0.00 276.67 64.00" xmlns="http://www.w3.org/2000/svg" xmlns:xlink="http://www.w3.org/1999/xlink">
<g id="graph0" class="graph" transform="scale(1 1) rotate(0) translate(4 60)">
<title>PeerTableModel::index</title>
<polygon fill="#ffffff" stroke="transparent" points="-4,4 -4,-60 272.6738,-60 272.6738,4 -4,4"/>
<!-- Node48 -->
<g id="node1" class="node">
<title>Node48</title>
<polygon fill="#bfbfbf" stroke="#000000" points="0,-37.5 0,-55.5 117.7285,-55.5 117.7285,-37.5 0,-37.5"/>
<text text-anchor="middle" x="58.8643" y="-43.5" font-family="Helvetica,sans-Serif" font-size="10.00" fill="#000000">PeerTableModel::index</text>
</g>
<!-- Node49 -->
<g id="node2" class="node">
<title>Node49</title>
<g id="a_node2"><a xlink:href="class_peer_table_model.html#a7229a1e75b1ecab25add4098b6bb9d27" target="_top" xlink:title="PeerTableModel::data">
<polygon fill="#ffffff" stroke="#000000" points="154.5586,-37.5 154.5586,-55.5 267.8438,-55.5 267.8438,-37.5 154.5586,-37.5"/>
<text text-anchor="middle" x="211.2012" y="-43.5" font-family="Helvetica,sans-Serif" font-size="10.00" fill="#000000">PeerTableModel::data</text>
</a>
</g>
</g>
<!-- Node48&#45;&gt;Node49 -->
<g id="edge1" class="edge">
<title>Node48&#45;&gt;Node49</title>
<path fill="none" stroke="#191970" d="M127.762,-39.7774C136.6935,-39.7099 145.7596,-39.7671 154.463,-39.9491"/>
<polygon fill="#191970" stroke="#191970" points="127.7156,-36.2776 117.7617,-39.9067 127.8061,-43.277 127.7156,-36.2776"/>
</g>
<!-- Node50 -->
<g id="node3" class="node">
<title>Node50</title>
<g id="a_node3"><a xlink:href="class_peer_table_model.html#ad0e101ec541cde4a163d490b58c5442a" target="_top" xlink:title="PeerTableModel::flags">
<polygon fill="#ffffff" stroke="#000000" points="153.7285,-.5 153.7285,-18.5 268.6738,-18.5 268.6738,-.5 153.7285,-.5"/>
<text text-anchor="middle" x="211.2012" y="-6.5" font-family="Helvetica,sans-Serif" font-size="10.00" fill="#000000">PeerTableModel::flags</text>
</a>
</g>
</g>
<!-- Node48&#45;&gt;Node50 -->
<g id="edge3" class="edge">
<title>Node48&#45;&gt;Node50</title>
<path fill="none" stroke="#191970" d="M105.902,-35.0753C127.8208,-29.7516 153.529,-23.5076 174.0564,-18.5218"/>
<polygon fill="#191970" stroke="#191970" points="105.0214,-31.6874 96.1301,-37.4488 106.6736,-38.4896 105.0214,-31.6874"/>
</g>
<!-- Node49&#45;&gt;Node48 -->
<g id="edge2" class="edge">
<title>Node49&#45;&gt;Node48</title>
<path fill="none" stroke="#191970" d="M144.2216,-53.2061C135.4077,-53.2906 126.4273,-53.253 117.7617,-53.0933"/>
<polygon fill="#191970" stroke="#191970" points="144.5172,-56.7022 154.463,-53.0509 144.4111,-49.703 144.5172,-56.7022"/>
</g>
</g>
</svg>
