<?xml version="1.0" encoding="UTF-8" standalone="no"?>
<!DOCTYPE svg PUBLIC "-//W3C//DTD SVG 1.1//EN"
 "http://www.w3.org/Graphics/SVG/1.1/DTD/svg11.dtd">
<!-- Generated by graphviz version 2.40.1 (20161225.0304)
 -->
<!-- Title: BitcoinApplication::shutdownResult Pages: 1 -->
<svg width="369pt" height="84pt"
 viewBox="0.00 0.00 369.26 84.00" xmlns="http://www.w3.org/2000/svg" xmlns:xlink="http://www.w3.org/1999/xlink">
<g id="graph0" class="graph" transform="scale(1 1) rotate(0) translate(4 80)">
<title>BitcoinApplication::shutdownResult</title>
<polygon fill="#ffffff" stroke="transparent" points="-4,4 -4,-80 365.2598,-80 365.2598,4 -4,4"/>
<!-- Node510 -->
<g id="node1" class="node">
<title>Node510</title>
<polygon fill="#bfbfbf" stroke="#000000" points="0,-23.5 0,-51.5 94.9355,-51.5 94.9355,-23.5 0,-23.5"/>
<text text-anchor="start" x="8" y="-39.5" font-family="Helvetica,sans-Serif" font-size="10.00" fill="#000000">BitcoinApplication</text>
<text text-anchor="middle" x="47.4678" y="-29.5" font-family="Helvetica,sans-Serif" font-size="10.00" fill="#000000">::shutdownResult</text>
</g>
<!-- Node511 -->
<g id="node2" class="node">
<title>Node511</title>
<g id="a_node2"><a xlink:href="class_bitcoin_application.html#a61afce9356e452c53ad4c83f5ca19df8" target="_top" xlink:title="BitcoinApplication\l::startThread">
<polygon fill="#ffffff" stroke="#000000" points="130.9355,-23.5 130.9355,-51.5 225.8711,-51.5 225.8711,-23.5 130.9355,-23.5"/>
<text text-anchor="start" x="138.9355" y="-39.5" font-family="Helvetica,sans-Serif" font-size="10.00" fill="#000000">BitcoinApplication</text>
<text text-anchor="middle" x="178.4033" y="-29.5" font-family="Helvetica,sans-Serif" font-size="10.00" fill="#000000">::startThread</text>
</a>
</g>
</g>
<!-- Node510&#45;&gt;Node511 -->
<g id="edge1" class="edge">
<title>Node510&#45;&gt;Node511</title>
<path fill="none" stroke="#191970" d="M105.29,-37.5C113.7383,-37.5 122.3587,-37.5 130.5782,-37.5"/>
<polygon fill="#191970" stroke="#191970" points="105.1089,-34.0001 95.1089,-37.5 105.1089,-41.0001 105.1089,-34.0001"/>
</g>
<!-- Node512 -->
<g id="node3" class="node">
<title>Node512</title>
<g id="a_node3"><a xlink:href="class_bitcoin_application.html#ade19c44b87b00b6b19b433caf4c22ba6" target="_top" xlink:title="Request core initialization. ">
<polygon fill="#ffffff" stroke="#000000" points="264.0977,-47.5 264.0977,-75.5 359.0332,-75.5 359.0332,-47.5 264.0977,-47.5"/>
<text text-anchor="start" x="272.0977" y="-63.5" font-family="Helvetica,sans-Serif" font-size="10.00" fill="#000000">BitcoinApplication</text>
<text text-anchor="middle" x="311.5654" y="-53.5" font-family="Helvetica,sans-Serif" font-size="10.00" fill="#000000">::requestInitialize</text>
</a>
</g>
</g>
<!-- Node511&#45;&gt;Node512 -->
<g id="edge2" class="edge">
<title>Node511&#45;&gt;Node512</title>
<path fill="none" stroke="#191970" d="M236.0165,-47.8837C245.2706,-49.5516 254.7602,-51.2619 263.7524,-52.8826"/>
<polygon fill="#191970" stroke="#191970" points="236.5641,-44.4261 226.1018,-46.0968 235.3224,-51.3151 236.5641,-44.4261"/>
</g>
<!-- Node513 -->
<g id="node4" class="node">
<title>Node513</title>
<g id="a_node4"><a xlink:href="class_bitcoin_application.html#a37c560d4c04d14a6da151b82caf8888f" target="_top" xlink:title="Request core shutdown. ">
<polygon fill="#ffffff" stroke="#000000" points="261.8711,-.5 261.8711,-28.5 361.2598,-28.5 361.2598,-.5 261.8711,-.5"/>
<text text-anchor="start" x="269.8711" y="-16.5" font-family="Helvetica,sans-Serif" font-size="10.00" fill="#000000">BitcoinApplication</text>
<text text-anchor="middle" x="311.5654" y="-6.5" font-family="Helvetica,sans-Serif" font-size="10.00" fill="#000000">::requestShutdown</text>
</a>
</g>
</g>
<!-- Node511&#45;&gt;Node513 -->
<g id="edge3" class="edge">
<title>Node511&#45;&gt;Node513</title>
<path fill="none" stroke="#191970" d="M235.9588,-27.5589C244.4629,-26.0901 253.1672,-24.5867 261.5027,-23.1469"/>
<polygon fill="#191970" stroke="#191970" points="235.3601,-24.1104 226.1018,-29.2614 236.5516,-31.0083 235.3601,-24.1104"/>
</g>
</g>
</svg>
