<?xml version="1.0" encoding="UTF-8" standalone="no"?>
<!DOCTYPE svg PUBLIC "-//W3C//DTD SVG 1.1//EN"
 "http://www.w3.org/Graphics/SVG/1.1/DTD/svg11.dtd">
<!-- Generated by graphviz version 2.40.1 (20161225.0304)
 -->
<!-- Title: UniValue::pushKV Pages: 1 -->
<svg width="472pt" height="838pt"
 viewBox="0.00 0.00 471.67 838.00" xmlns="http://www.w3.org/2000/svg" xmlns:xlink="http://www.w3.org/1999/xlink">
<g id="graph0" class="graph" transform="scale(1 1) rotate(0) translate(4 834)">
<title>UniValue::pushKV</title>
<polygon fill="#ffffff" stroke="transparent" points="-4,4 -4,-834 467.6719,-834 467.6719,4 -4,4"/>
<!-- Node562 -->
<g id="node1" class="node">
<title>Node562</title>
<polygon fill="#bfbfbf" stroke="#000000" points="0,-418.5 0,-436.5 96.4248,-436.5 96.4248,-418.5 0,-418.5"/>
<text text-anchor="middle" x="48.2124" y="-424.5" font-family="Helvetica,sans-Serif" font-size="10.00" fill="#000000">UniValue::pushKV</text>
</g>
<!-- Node563 -->
<g id="node2" class="node">
<title>Node563</title>
<g id="a_node2"><a xlink:href="class_getinfo_request_handler.html#abc5063d93d13b72549c56082aaf607a5" target="_top" xlink:title="Collect values from the batch and form a simulated getinfo reply. ">
<polygon fill="#ffffff" stroke="#000000" points="329.835,-657.5 329.835,-685.5 450.3418,-685.5 450.3418,-657.5 329.835,-657.5"/>
<text text-anchor="start" x="337.835" y="-673.5" font-family="Helvetica,sans-Serif" font-size="10.00" fill="#000000">GetinfoRequestHandler</text>
<text text-anchor="middle" x="390.0884" y="-663.5" font-family="Helvetica,sans-Serif" font-size="10.00" fill="#000000">::ProcessReply</text>
</a>
</g>
</g>
<!-- Node562&#45;&gt;Node563 -->
<g id="edge1" class="edge">
<title>Node562&#45;&gt;Node563</title>
<path fill="none" stroke="#191970" d="M52.6257,-446.4613C64.4572,-495.5588 98.3066,-624.8036 132.4248,-650.5 188.8002,-692.9597 273.1373,-691.1805 329.8135,-683.4901"/>
<polygon fill="#191970" stroke="#191970" points="55.9846,-445.4565 50.2719,-436.5337 49.1734,-447.0715 55.9846,-445.4565"/>
</g>
<!-- Node564 -->
<g id="node3" class="node">
<title>Node564</title>
<g id="a_node3"><a xlink:href="core__write_8cpp.html#a0008f40d9c179d229ead567d0d356023" target="_top" xlink:title="ScriptToUniv">
<polygon fill="#ffffff" stroke="#000000" points="170.4009,-774.5 170.4009,-792.5 242.5288,-792.5 242.5288,-774.5 170.4009,-774.5"/>
<text text-anchor="middle" x="206.4648" y="-780.5" font-family="Helvetica,sans-Serif" font-size="10.00" fill="#000000">ScriptToUniv</text>
</a>
</g>
</g>
<!-- Node562&#45;&gt;Node564 -->
<g id="edge2" class="edge">
<title>Node562&#45;&gt;Node564</title>
<path fill="none" stroke="#191970" d="M50.6796,-447.0506C59.1259,-511.0627 88.7905,-712.9309 132.4248,-759.5 142.2182,-769.9522 156.5955,-775.8634 170.0815,-779.2021"/>
<polygon fill="#191970" stroke="#191970" points="54.104,-446.2397 49.3509,-436.7709 47.1618,-447.1371 54.104,-446.2397"/>
</g>
<!-- Node565 -->
<g id="node4" class="node">
<title>Node565</title>
<g id="a_node4"><a xlink:href="rawtransaction_8cpp.html#a0e9b5930a41831d5be26d74565f07340" target="_top" xlink:title="decodepsbt">
<polygon fill="#ffffff" stroke="#000000" points="356.2339,-774.5 356.2339,-792.5 423.9429,-792.5 423.9429,-774.5 356.2339,-774.5"/>
<text text-anchor="middle" x="390.0884" y="-780.5" font-family="Helvetica,sans-Serif" font-size="10.00" fill="#000000">decodepsbt</text>
</a>
</g>
</g>
<!-- Node562&#45;&gt;Node565 -->
<g id="edge18" class="edge">
<title>Node562&#45;&gt;Node565</title>
<path fill="none" stroke="#191970" d="M50.9756,-446.4208C60.0278,-505.8247 90.6249,-687.0102 132.4248,-726.5 148.6809,-741.8577 290.0241,-766.946 356.1914,-777.9884"/>
<polygon fill="#191970" stroke="#191970" points="54.4362,-445.8962 49.4966,-436.5233 47.513,-446.9308 54.4362,-445.8962"/>
</g>
<!-- Node566 -->
<g id="node5" class="node">
<title>Node566</title>
<g id="a_node5"><a xlink:href="core__write_8cpp.html#a4a51bf7268adbdcd58e7af445ea4db61" target="_top" xlink:title="ScriptPubKeyToUniv">
<polygon fill="#ffffff" stroke="#000000" points="152.8887,-698.5 152.8887,-716.5 260.041,-716.5 260.041,-698.5 152.8887,-698.5"/>
<text text-anchor="middle" x="206.4648" y="-704.5" font-family="Helvetica,sans-Serif" font-size="10.00" fill="#000000">ScriptPubKeyToUniv</text>
</a>
</g>
</g>
<!-- Node562&#45;&gt;Node566 -->
<g id="edge4" class="edge">
<title>Node562&#45;&gt;Node566</title>
<path fill="none" stroke="#191970" d="M52.1617,-446.6341C63.5326,-500.0261 97.7567,-648.9821 132.4248,-683.5 139.1277,-690.1739 147.7008,-694.9924 156.6202,-698.4712"/>
<polygon fill="#191970" stroke="#191970" points="55.5702,-445.8344 50.0902,-436.7669 48.7196,-447.2727 55.5702,-445.8344"/>
</g>
<!-- Node567 -->
<g id="node6" class="node">
<title>Node567</title>
<g id="a_node6"><a xlink:href="core__write_8cpp.html#a14497f9c37438be66cf5904854fc2530" target="_top" xlink:title="TxToUniv">
<polygon fill="#ffffff" stroke="#000000" points="177.6274,-811.5 177.6274,-829.5 235.3022,-829.5 235.3022,-811.5 177.6274,-811.5"/>
<text text-anchor="middle" x="206.4648" y="-817.5" font-family="Helvetica,sans-Serif" font-size="10.00" fill="#000000">TxToUniv</text>
</a>
</g>
</g>
<!-- Node562&#45;&gt;Node567 -->
<g id="edge5" class="edge">
<title>Node562&#45;&gt;Node567</title>
<path fill="none" stroke="#191970" d="M49.9097,-446.9562C56.3584,-516.4116 81.5856,-750.7589 132.4248,-802.5 144.1068,-814.3892 162.2254,-818.9355 177.6147,-820.4868"/>
<polygon fill="#191970" stroke="#191970" points="53.3621,-446.2699 48.9777,-436.6249 46.3904,-446.8989 53.3621,-446.2699"/>
</g>
<!-- Node568 -->
<g id="node7" class="node">
<title>Node568</title>
<g id="a_node7"><a xlink:href="rpc_2protocol_8h.html#a3adfee54547442fb913d3bd8269a0a49" target="_top" xlink:title="JSON&#45;RPC protocol. ">
<polygon fill="#ffffff" stroke="#000000" points="148.1694,-585.5 148.1694,-603.5 264.7603,-603.5 264.7603,-585.5 148.1694,-585.5"/>
<text text-anchor="middle" x="206.4648" y="-591.5" font-family="Helvetica,sans-Serif" font-size="10.00" fill="#000000">JSONRPCRequestObj</text>
</a>
</g>
</g>
<!-- Node562&#45;&gt;Node568 -->
<g id="edge7" class="edge">
<title>Node562&#45;&gt;Node568</title>
<path fill="none" stroke="#191970" d="M53.473,-446.3978C63.3761,-478.3462 87.9025,-542.8343 132.4248,-576.5 137.2785,-580.1702 142.7786,-583.1026 148.5359,-585.4438"/>
<polygon fill="#191970" stroke="#191970" points="56.757,-445.1598 50.5713,-436.5582 50.0429,-447.1399 56.757,-445.1598"/>
</g>
<!-- Node570 -->
<g id="node9" class="node">
<title>Node570</title>
<g id="a_node9"><a xlink:href="rpc_2protocol_8h.html#ac3b7dd20357d54461794da1213448ed8" target="_top" xlink:title="JSONRPCReplyObj">
<polygon fill="#ffffff" stroke="#000000" points="154.0093,-622.5 154.0093,-640.5 258.9204,-640.5 258.9204,-622.5 154.0093,-622.5"/>
<text text-anchor="middle" x="206.4648" y="-628.5" font-family="Helvetica,sans-Serif" font-size="10.00" fill="#000000">JSONRPCReplyObj</text>
</a>
</g>
</g>
<!-- Node562&#45;&gt;Node570 -->
<g id="edge9" class="edge">
<title>Node562&#45;&gt;Node570</title>
<path fill="none" stroke="#191970" d="M51.2298,-446.7273C58.235,-484.6952 79.2486,-569.4264 132.4248,-613.5 138.6377,-618.6494 146.0936,-622.3667 153.8474,-625.0422"/>
<polygon fill="#191970" stroke="#191970" points="54.6234,-445.8078 49.4854,-436.5422 47.7239,-446.9896 54.6234,-445.8078"/>
</g>
<!-- Node572 -->
<g id="node11" class="node">
<title>Node572</title>
<g id="a_node11"><a xlink:href="blockchain_8h.html#aa1e97ce578bfdae0125555bda5a2d48d" target="_top" xlink:title="Block header to JSON. ">
<polygon fill="#ffffff" stroke="#000000" points="152.6079,-548.5 152.6079,-566.5 260.3218,-566.5 260.3218,-548.5 152.6079,-548.5"/>
<text text-anchor="middle" x="206.4648" y="-554.5" font-family="Helvetica,sans-Serif" font-size="10.00" fill="#000000">blockheaderToJSON</text>
</a>
</g>
</g>
<!-- Node562&#45;&gt;Node572 -->
<g id="edge12" class="edge">
<title>Node562&#45;&gt;Node572</title>
<path fill="none" stroke="#191970" d="M56.9292,-445.9197C69.8098,-471.0731 96.3512,-515.7478 132.4248,-539.5 138.5016,-543.5012 145.3847,-546.6139 152.4473,-549.0353"/>
<polygon fill="#191970" stroke="#191970" points="59.9615,-444.1555 52.394,-436.7405 53.6857,-447.2563 59.9615,-444.1555"/>
</g>
<!-- Node573 -->
<g id="node12" class="node">
<title>Node573</title>
<g id="a_node12"><a xlink:href="blockchain_8h.html#a6b596f07acd85fe676c798170fd8ddbe" target="_top" xlink:title="Block description to JSON. ">
<polygon fill="#ffffff" stroke="#000000" points="168.1768,-511.5 168.1768,-529.5 244.7529,-529.5 244.7529,-511.5 168.1768,-511.5"/>
<text text-anchor="middle" x="206.4648" y="-517.5" font-family="Helvetica,sans-Serif" font-size="10.00" fill="#000000">blockToJSON</text>
</a>
</g>
</g>
<!-- Node562&#45;&gt;Node573 -->
<g id="edge13" class="edge">
<title>Node562&#45;&gt;Node573</title>
<path fill="none" stroke="#191970" d="M62.4548,-444.3173C77.9384,-461.5116 104.2643,-487.7303 132.4248,-502.5 143.3198,-508.2143 156.0702,-512.1523 167.8901,-514.8505"/>
<polygon fill="#191970" stroke="#191970" points="64.9902,-441.9 55.7643,-436.691 59.7282,-446.5164 64.9902,-441.9"/>
</g>
<!-- Node574 -->
<g id="node13" class="node">
<title>Node574</title>
<g id="a_node13"><a xlink:href="blockchain_8cpp.html#a0d3ec9ae23b08828dd7ca646766ca637" target="_top" xlink:title="gettxout">
<polygon fill="#ffffff" stroke="#000000" points="180.6743,-474.5 180.6743,-492.5 232.2554,-492.5 232.2554,-474.5 180.6743,-474.5"/>
<text text-anchor="middle" x="206.4648" y="-480.5" font-family="Helvetica,sans-Serif" font-size="10.00" fill="#000000">gettxout</text>
</a>
</g>
</g>
<!-- Node562&#45;&gt;Node574 -->
<g id="edge14" class="edge">
<title>Node562&#45;&gt;Node574</title>
<path fill="none" stroke="#191970" d="M75.3076,-441.2756C91.5657,-449.1476 112.8295,-458.7622 132.4248,-465.5 148.0619,-470.8768 166.081,-475.2944 180.4276,-478.4075"/>
<polygon fill="#191970" stroke="#191970" points="76.4089,-437.9166 65.8912,-436.6406 73.3175,-444.1971 76.4089,-437.9166"/>
</g>
<!-- Node575 -->
<g id="node14" class="node">
<title>Node575</title>
<g id="a_node14"><a xlink:href="blockchain_8cpp.html#a474625d5c1ef0c47e33c078fb53f6ba4" target="_top" xlink:title="Implementation of IsSuperMajority with better feedback. ">
<polygon fill="#ffffff" stroke="#000000" points="159.8271,-437.5 159.8271,-455.5 253.1025,-455.5 253.1025,-437.5 159.8271,-437.5"/>
<text text-anchor="middle" x="206.4648" y="-443.5" font-family="Helvetica,sans-Serif" font-size="10.00" fill="#000000">getblockchaininfo</text>
</a>
</g>
</g>
<!-- Node562&#45;&gt;Node575 -->
<g id="edge15" class="edge">
<title>Node562&#45;&gt;Node575</title>
<path fill="none" stroke="#191970" d="M106.6652,-434.5179C124.1728,-436.6199 143.1325,-438.8962 159.7764,-440.8945"/>
<polygon fill="#191970" stroke="#191970" points="106.8992,-431.021 96.5532,-433.3039 106.0647,-437.971 106.8992,-431.021"/>
</g>
<!-- Node576 -->
<g id="node15" class="node">
<title>Node576</title>
<g id="a_node15"><a xlink:href="blockchain_8h.html#a7305038a43cc5f399ca00e00c6f07186" target="_top" xlink:title="Mempool information to JSON. ">
<polygon fill="#ffffff" stroke="#000000" points="150.9453,-400.5 150.9453,-418.5 261.9844,-418.5 261.9844,-400.5 150.9453,-400.5"/>
<text text-anchor="middle" x="206.4648" y="-406.5" font-family="Helvetica,sans-Serif" font-size="10.00" fill="#000000">mempoolInfoToJSON</text>
</a>
</g>
</g>
<!-- Node562&#45;&gt;Node576 -->
<g id="edge16" class="edge">
<title>Node562&#45;&gt;Node576</title>
<path fill="none" stroke="#191970" d="M106.8518,-420.8302C121.2731,-419.1899 136.6694,-417.4387 150.9387,-415.8157"/>
<polygon fill="#191970" stroke="#191970" points="106.0936,-417.3938 96.5532,-422.0016 106.8848,-424.349 106.0936,-417.3938"/>
</g>
<!-- Node577 -->
<g id="node16" class="node">
<title>Node577</title>
<g id="a_node16"><a xlink:href="blockchain_8cpp.html#af8ae2be64c52204527fac00aefc1151c" target="_top" xlink:title="scantxoutset">
<polygon fill="#ffffff" stroke="#000000" points="170.3936,-363.5 170.3936,-381.5 242.5361,-381.5 242.5361,-363.5 170.3936,-363.5"/>
<text text-anchor="middle" x="206.4648" y="-369.5" font-family="Helvetica,sans-Serif" font-size="10.00" fill="#000000">scantxoutset</text>
</a>
</g>
</g>
<!-- Node562&#45;&gt;Node577 -->
<g id="edge17" class="edge">
<title>Node562&#45;&gt;Node577</title>
<path fill="none" stroke="#191970" d="M76.6788,-414.0433C92.8004,-406.7503 113.4749,-397.9398 132.4248,-391.5 144.6128,-387.3581 158.1945,-383.6272 170.3639,-380.5904"/>
<polygon fill="#191970" stroke="#191970" points="74.9146,-411.0019 67.2853,-418.3534 77.8339,-417.3642 74.9146,-411.0019"/>
</g>
<!-- Node578 -->
<g id="node17" class="node">
<title>Node578</title>
<g id="a_node17"><a xlink:href="class_describe_address_visitor.html#a9ebf98773ae3fafd4df7208941fee6f3" target="_top" xlink:title="DescribeAddressVisitor\l::operator()">
<polygon fill="#ffffff" stroke="#000000" points="146.5898,-316.5 146.5898,-344.5 266.3398,-344.5 266.3398,-316.5 146.5898,-316.5"/>
<text text-anchor="start" x="154.5898" y="-332.5" font-family="Helvetica,sans-Serif" font-size="10.00" fill="#000000">DescribeAddressVisitor</text>
<text text-anchor="middle" x="206.4648" y="-322.5" font-family="Helvetica,sans-Serif" font-size="10.00" fill="#000000">::operator()</text>
</a>
</g>
</g>
<!-- Node562&#45;&gt;Node578 -->
<g id="edge19" class="edge">
<title>Node562&#45;&gt;Node578</title>
<path fill="none" stroke="#191970" d="M63.5303,-410.7737C79.3603,-394.3796 105.4909,-369.7014 132.4248,-354.5 139.1324,-350.7142 146.5236,-347.4245 153.9615,-344.5976"/>
<polygon fill="#191970" stroke="#191970" points="60.9522,-408.406 56.6283,-418.0784 66.0402,-413.2135 60.9522,-408.406"/>
</g>
<!-- Node579 -->
<g id="node18" class="node">
<title>Node579</title>
<g id="a_node18"><a xlink:href="class_uni_value.html#abe869f1ec6d244f7bb4f5e3e42648315" target="_top" xlink:title="UniValue::pushKV">
<polygon fill="#ffffff" stroke="#000000" points="158.2524,-279.5 158.2524,-297.5 254.6772,-297.5 254.6772,-279.5 158.2524,-279.5"/>
<text text-anchor="middle" x="206.4648" y="-285.5" font-family="Helvetica,sans-Serif" font-size="10.00" fill="#000000">UniValue::pushKV</text>
</a>
</g>
</g>
<!-- Node562&#45;&gt;Node579 -->
<g id="edge20" class="edge">
<title>Node562&#45;&gt;Node579</title>
<path fill="none" stroke="#191970" d="M56.0897,-408.9826C68.3916,-382.3489 94.7252,-333.5716 132.4248,-307.5 140.0652,-302.2162 149.0631,-298.4014 158.1048,-295.6473"/>
<polygon fill="#191970" stroke="#191970" points="52.8056,-407.7541 51.9387,-418.3134 59.2012,-410.5993 52.8056,-407.7541"/>
</g>
<!-- Node580 -->
<g id="node19" class="node">
<title>Node580</title>
<g id="a_node19"><a xlink:href="object_8cpp.html#a9a4995c64e0d808a81ef453dca2d4ee0" target="_top" xlink:title="BOOST_AUTO_TEST_CASE">
<polygon fill="#ffffff" stroke="#000000" points="132.4248,-242.5 132.4248,-260.5 280.5049,-260.5 280.5049,-242.5 132.4248,-242.5"/>
<text text-anchor="middle" x="206.4648" y="-248.5" font-family="Helvetica,sans-Serif" font-size="10.00" fill="#000000">BOOST_AUTO_TEST_CASE</text>
</a>
</g>
</g>
<!-- Node562&#45;&gt;Node580 -->
<g id="edge21" class="edge">
<title>Node562&#45;&gt;Node580</title>
<path fill="none" stroke="#191970" d="M52.959,-408.5787C62.2972,-375.3649 86.2779,-306.6735 132.4248,-270.5 137.7514,-266.3246 143.8942,-263.0588 150.3166,-260.5058"/>
<polygon fill="#191970" stroke="#191970" points="49.5391,-407.8199 50.3426,-418.3843 56.3025,-409.6247 49.5391,-407.8199"/>
</g>
<!-- Node581 -->
<g id="node20" class="node">
<title>Node581</title>
<g id="a_node20"><a xlink:href="rpcwallet_8cpp.html#a87e0cb6784e0e0fcfbaa3d178f462a56" target="_top" xlink:title="for">
<polygon fill="#ffffff" stroke="#000000" points="191.9648,-205.5 191.9648,-223.5 220.9648,-223.5 220.9648,-205.5 191.9648,-205.5"/>
<text text-anchor="middle" x="206.4648" y="-211.5" font-family="Helvetica,sans-Serif" font-size="10.00" fill="#000000">for</text>
</a>
</g>
</g>
<!-- Node562&#45;&gt;Node581 -->
<g id="edge22" class="edge">
<title>Node562&#45;&gt;Node581</title>
<path fill="none" stroke="#191970" d="M50.9305,-408.0318C57.4615,-368.8243 77.761,-280.1276 132.4248,-233.5 149.286,-219.1176 175.6565,-215.4142 191.9544,-214.5776"/>
<polygon fill="#191970" stroke="#191970" points="47.4417,-407.6916 49.3791,-418.1078 54.3601,-408.7569 47.4417,-407.6916"/>
</g>
<!-- Node582 -->
<g id="node21" class="node">
<title>Node582</title>
<g id="a_node21"><a xlink:href="rpcwallet_8cpp.html#a57ff1fb90c70234799757c5bcd4a4029" target="_top" xlink:title="if">
<polygon fill="#ffffff" stroke="#000000" points="191.9648,-168.5 191.9648,-186.5 220.9648,-186.5 220.9648,-168.5 191.9648,-168.5"/>
<text text-anchor="middle" x="206.4648" y="-174.5" font-family="Helvetica,sans-Serif" font-size="10.00" fill="#000000">if</text>
</a>
</g>
</g>
<!-- Node562&#45;&gt;Node582 -->
<g id="edge23" class="edge">
<title>Node562&#45;&gt;Node582</title>
<path fill="none" stroke="#191970" d="M49.3734,-408.3777C53.1195,-364.1648 68.6996,-254.245 132.4248,-196.5 148.8473,-181.6186 175.3515,-178.0673 191.7953,-177.3967"/>
<polygon fill="#191970" stroke="#191970" points="45.8828,-408.1226 48.6402,-418.3523 52.8639,-408.6359 45.8828,-408.1226"/>
</g>
<!-- Node583 -->
<g id="node22" class="node">
<title>Node583</title>
<g id="a_node22"><a xlink:href="rpcwallet_8cpp.html#a151535abf7394b299deb8d0a333de70b" target="_top" xlink:title="rescanblockchain">
<polygon fill="#ffffff" stroke="#000000" points="159.832,-131.5 159.832,-149.5 253.0977,-149.5 253.0977,-131.5 159.832,-131.5"/>
<text text-anchor="middle" x="206.4648" y="-137.5" font-family="Helvetica,sans-Serif" font-size="10.00" fill="#000000">rescanblockchain</text>
</a>
</g>
</g>
<!-- Node562&#45;&gt;Node583 -->
<g id="edge24" class="edge">
<title>Node562&#45;&gt;Node583</title>
<path fill="none" stroke="#191970" d="M51.7176,-408.4569C62.2464,-353.2516 95.1749,-194.817 132.4248,-159.5 139.9364,-152.3781 149.7441,-147.8323 159.7514,-144.9539"/>
<polygon fill="#191970" stroke="#191970" points="48.2707,-407.8488 49.8664,-418.3228 55.1506,-409.1398 48.2707,-407.8488"/>
</g>
<!-- Node584 -->
<g id="node23" class="node">
<title>Node584</title>
<g id="a_node23"><a xlink:href="class_describe_wallet_address_visitor.html#a73b166e4069fbc72e6cbe3a55c761967" target="_top" xlink:title="DescribeWalletAddressVisitor\l::ProcessSubScript">
<polygon fill="#ffffff" stroke="#000000" points="132.8813,-84.5 132.8813,-112.5 280.0483,-112.5 280.0483,-84.5 132.8813,-84.5"/>
<text text-anchor="start" x="140.8813" y="-100.5" font-family="Helvetica,sans-Serif" font-size="10.00" fill="#000000">DescribeWalletAddressVisitor</text>
<text text-anchor="middle" x="206.4648" y="-90.5" font-family="Helvetica,sans-Serif" font-size="10.00" fill="#000000">::ProcessSubScript</text>
</a>
</g>
</g>
<!-- Node562&#45;&gt;Node584 -->
<g id="edge25" class="edge">
<title>Node562&#45;&gt;Node584</title>
<path fill="none" stroke="#191970" d="M51.0542,-408.2869C60.3415,-347.9433 91.5643,-163.7163 132.4248,-121.5 135.7948,-118.0182 139.6812,-115.0608 143.872,-112.5491"/>
<polygon fill="#191970" stroke="#191970" points="47.5687,-407.9286 49.5351,-418.3393 54.4901,-408.9745 47.5687,-407.9286"/>
</g>
<!-- Node586 -->
<g id="node25" class="node">
<title>Node586</title>
<g id="a_node25"><a xlink:href="class_describe_wallet_address_visitor.html#ad7be84744abb624a73166d4a047d2905" target="_top" xlink:title="DescribeWalletAddressVisitor\l::operator()">
<polygon fill="#ffffff" stroke="#000000" points="132.8813,-37.5 132.8813,-65.5 280.0483,-65.5 280.0483,-37.5 132.8813,-37.5"/>
<text text-anchor="start" x="140.8813" y="-53.5" font-family="Helvetica,sans-Serif" font-size="10.00" fill="#000000">DescribeWalletAddressVisitor</text>
<text text-anchor="middle" x="206.4648" y="-43.5" font-family="Helvetica,sans-Serif" font-size="10.00" fill="#000000">::operator()</text>
</a>
</g>
</g>
<!-- Node562&#45;&gt;Node586 -->
<g id="edge27" class="edge">
<title>Node562&#45;&gt;Node586</title>
<path fill="none" stroke="#191970" d="M50.3307,-408.0059C57.9414,-341.3957 85.9422,-124.2064 132.4248,-74.5 135.6426,-71.0591 139.3644,-68.1291 143.3924,-65.6347"/>
<polygon fill="#191970" stroke="#191970" points="46.8119,-407.9801 49.1808,-418.3067 53.7687,-408.7568 46.8119,-407.9801"/>
</g>
<!-- Node587 -->
<g id="node26" class="node">
<title>Node587</title>
<g id="a_node26"><a xlink:href="rpcwallet_8h.html#a3f008088e017b871e32cfae02b622bc8" target="_top" xlink:title="getaddressinfo">
<polygon fill="#ffffff" stroke="#000000" points="165.6646,-.5 165.6646,-18.5 247.2651,-18.5 247.2651,-.5 165.6646,-.5"/>
<text text-anchor="middle" x="206.4648" y="-6.5" font-family="Helvetica,sans-Serif" font-size="10.00" fill="#000000">getaddressinfo</text>
</a>
</g>
</g>
<!-- Node562&#45;&gt;Node587 -->
<g id="edge28" class="edge">
<title>Node562&#45;&gt;Node587</title>
<path fill="none" stroke="#191970" d="M49.6055,-408.1651C55.1989,-335.9387 78.3792,-83.2466 132.4248,-27.5 141.0803,-18.5721 153.362,-13.7737 165.4399,-11.276"/>
<polygon fill="#191970" stroke="#191970" points="46.0893,-408.2512 48.8325,-418.4847 53.0698,-408.7741 46.0893,-408.2512"/>
</g>
<!-- Node564&#45;&gt;Node565 -->
<g id="edge3" class="edge">
<title>Node564&#45;&gt;Node565</title>
<path fill="none" stroke="#191970" d="M252.796,-783.5C284.9249,-783.5 326.9958,-783.5 356.056,-783.5"/>
<polygon fill="#191970" stroke="#191970" points="252.743,-780.0001 242.7429,-783.5 252.7429,-787.0001 252.743,-780.0001"/>
</g>
<!-- Node567&#45;&gt;Node565 -->
<g id="edge6" class="edge">
<title>Node567&#45;&gt;Node565</title>
<path fill="none" stroke="#191970" d="M245.7074,-812.5927C278.535,-805.9779 324.8856,-796.6383 356.1381,-790.341"/>
<polygon fill="#191970" stroke="#191970" points="244.6721,-809.2308 235.5605,-814.6372 246.0549,-816.0929 244.6721,-809.2308"/>
</g>
<!-- Node569 -->
<g id="node8" class="node">
<title>Node569</title>
<g id="a_node8"><a xlink:href="class_getinfo_request_handler.html#a9931ab34a9466cd1807625c86bd003b6" target="_top" xlink:title="Create a simulated getinfo request. ">
<polygon fill="#ffffff" stroke="#000000" points="329.835,-573.5 329.835,-601.5 450.3418,-601.5 450.3418,-573.5 329.835,-573.5"/>
<text text-anchor="start" x="337.835" y="-589.5" font-family="Helvetica,sans-Serif" font-size="10.00" fill="#000000">GetinfoRequestHandler</text>
<text text-anchor="middle" x="390.0884" y="-579.5" font-family="Helvetica,sans-Serif" font-size="10.00" fill="#000000">::PrepareRequest</text>
</a>
</g>
</g>
<!-- Node568&#45;&gt;Node569 -->
<g id="edge8" class="edge">
<title>Node568&#45;&gt;Node569</title>
<path fill="none" stroke="#191970" d="M274.9379,-591.8897C292.9093,-591.2046 312.1587,-590.4708 329.6745,-589.8031"/>
<polygon fill="#191970" stroke="#191970" points="274.6762,-588.397 264.8168,-592.2755 274.9429,-595.392 274.6762,-588.397"/>
</g>
<!-- Node570&#45;&gt;Node563 -->
<g id="edge10" class="edge">
<title>Node570&#45;&gt;Node563</title>
<path fill="none" stroke="#191970" d="M258.0719,-642.7419C280.3642,-647.598 306.5972,-653.3125 329.7804,-658.3627"/>
<polygon fill="#191970" stroke="#191970" points="258.6477,-639.2853 248.1319,-640.5766 257.1577,-646.125 258.6477,-639.2853"/>
</g>
<!-- Node571 -->
<g id="node10" class="node">
<title>Node571</title>
<g id="a_node10"><a xlink:href="rpc_2protocol_8h.html#a2fdb4c40b8481244f300c15abe90c6bd" target="_top" xlink:title="JSONRPCReply">
<polygon fill="#ffffff" stroke="#000000" points="345.4136,-620.5 345.4136,-638.5 434.7632,-638.5 434.7632,-620.5 345.4136,-620.5"/>
<text text-anchor="middle" x="390.0884" y="-626.5" font-family="Helvetica,sans-Serif" font-size="10.00" fill="#000000">JSONRPCReply</text>
</a>
</g>
</g>
<!-- Node570&#45;&gt;Node571 -->
<g id="edge11" class="edge">
<title>Node570&#45;&gt;Node571</title>
<path fill="none" stroke="#191970" d="M269.2053,-630.8166C294.1874,-630.5445 322.3717,-630.2376 345.2378,-629.9885"/>
<polygon fill="#191970" stroke="#191970" points="269.0452,-627.3181 259.084,-630.9269 269.1215,-634.3177 269.0452,-627.3181"/>
</g>
<!-- Node585 -->
<g id="node24" class="node">
<title>Node585</title>
<g id="a_node24"><a xlink:href="class_describe_wallet_address_visitor.html#a0c910e5a846a6c5d0cad64d9ccc44132" target="_top" xlink:title="DescribeWalletAddressVisitor\l::operator()">
<polygon fill="#ffffff" stroke="#000000" points="316.5049,-84.5 316.5049,-112.5 463.6719,-112.5 463.6719,-84.5 316.5049,-84.5"/>
<text text-anchor="start" x="324.5049" y="-100.5" font-family="Helvetica,sans-Serif" font-size="10.00" fill="#000000">DescribeWalletAddressVisitor</text>
<text text-anchor="middle" x="390.0884" y="-90.5" font-family="Helvetica,sans-Serif" font-size="10.00" fill="#000000">::operator()</text>
</a>
</g>
</g>
<!-- Node584&#45;&gt;Node585 -->
<g id="edge26" class="edge">
<title>Node584&#45;&gt;Node585</title>
<path fill="none" stroke="#191970" d="M290.2788,-98.5C299.0094,-98.5 307.8372,-98.5 316.4432,-98.5"/>
<polygon fill="#191970" stroke="#191970" points="290.0936,-95.0001 280.0935,-98.5 290.0935,-102.0001 290.0936,-95.0001"/>
</g>
</g>
</svg>
