<?xml version="1.0" encoding="UTF-8" standalone="no"?>
<!DOCTYPE svg PUBLIC "-//W3C//DTD SVG 1.1//EN"
 "http://www.w3.org/Graphics/SVG/1.1/DTD/svg11.dtd">
<!-- Generated by graphviz version 2.40.1 (20161225.0304)
 -->
<!-- Title: UniValue::getKeys Pages: 1 -->
<svg width="550pt" height="64pt"
 viewBox="0.00 0.00 549.63 64.00" xmlns="http://www.w3.org/2000/svg" xmlns:xlink="http://www.w3.org/1999/xlink">
<g id="graph0" class="graph" transform="scale(1 1) rotate(0) translate(4 60)">
<title>UniValue::getKeys</title>
<polygon fill="#ffffff" stroke="transparent" points="-4,4 -4,-60 545.6338,-60 545.6338,4 -4,4"/>
<!-- Node279 -->
<g id="node1" class="node">
<title>Node279</title>
<polygon fill="#bfbfbf" stroke="#000000" points="0,-18.5 0,-36.5 97.5332,-36.5 97.5332,-18.5 0,-18.5"/>
<text text-anchor="middle" x="48.7666" y="-24.5" font-family="Helvetica,sans-Serif" font-size="10.00" fill="#000000">UniValue::getKeys</text>
</g>
<!-- Node280 -->
<g id="node2" class="node">
<title>Node280</title>
<g id="a_node2"><a xlink:href="server_8h.html#ab6e621702aaefd12b164609463e81150" target="_top" xlink:title="RPCTypeCheckObj">
<polygon fill="#ffffff" stroke="#000000" points="133.5332,-18.5 133.5332,-36.5 236.2373,-36.5 236.2373,-18.5 133.5332,-18.5"/>
<text text-anchor="middle" x="184.8853" y="-24.5" font-family="Helvetica,sans-Serif" font-size="10.00" fill="#000000">RPCTypeCheckObj</text>
</a>
</g>
</g>
<!-- Node279&#45;&gt;Node280 -->
<g id="edge1" class="edge">
<title>Node279&#45;&gt;Node280</title>
<path fill="none" stroke="#191970" d="M108.109,-27.5C116.5755,-27.5 125.225,-27.5 133.5216,-27.5"/>
<polygon fill="#191970" stroke="#191970" points="107.9086,-24.0001 97.9086,-27.5 107.9085,-31.0001 107.9086,-24.0001"/>
</g>
<!-- Node281 -->
<g id="node3" class="node">
<title>Node281</title>
<g id="a_node3"><a xlink:href="rawtransaction_8h.html#a69f132a19b8e91bd9b0b1330b5323f0a" target="_top" xlink:title="Sign a transaction with the given keystore and previous transactions. ">
<polygon fill="#ffffff" stroke="#000000" points="273.6265,-37.5 273.6265,-55.5 361.521,-55.5 361.521,-37.5 273.6265,-37.5"/>
<text text-anchor="middle" x="317.5737" y="-43.5" font-family="Helvetica,sans-Serif" font-size="10.00" fill="#000000">SignTransaction</text>
</a>
</g>
</g>
<!-- Node280&#45;&gt;Node281 -->
<g id="edge2" class="edge">
<title>Node280&#45;&gt;Node281</title>
<path fill="none" stroke="#191970" d="M246.7148,-36.3535C255.7783,-37.6514 264.9547,-38.9653 273.5632,-40.198"/>
<polygon fill="#191970" stroke="#191970" points="246.9612,-32.8532 236.566,-34.9003 245.9689,-39.7825 246.9612,-32.8532"/>
</g>
<!-- Node283 -->
<g id="node5" class="node">
<title>Node283</title>
<g id="a_node5"><a xlink:href="rpcwallet_8cpp.html#aaaebd94e806360dd08e7254b09c7997b" target="_top" xlink:title="FundTransaction">
<polygon fill="#ffffff" stroke="#000000" points="272.2373,-.5 272.2373,-18.5 362.9102,-18.5 362.9102,-.5 272.2373,-.5"/>
<text text-anchor="middle" x="317.5737" y="-6.5" font-family="Helvetica,sans-Serif" font-size="10.00" fill="#000000">FundTransaction</text>
</a>
</g>
</g>
<!-- Node280&#45;&gt;Node283 -->
<g id="edge4" class="edge">
<title>Node280&#45;&gt;Node283</title>
<path fill="none" stroke="#191970" d="M246.506,-19.1408C255.0434,-17.9826 263.6857,-16.8102 271.8634,-15.7009"/>
<polygon fill="#191970" stroke="#191970" points="246.0047,-15.6766 236.566,-20.4892 246.9458,-22.6131 246.0047,-15.6766"/>
</g>
<!-- Node282 -->
<g id="node4" class="node">
<title>Node282</title>
<g id="a_node4"><a xlink:href="rpcwallet_8h.html#a7c13054932c9e3b351bd6277fa9361d7" target="_top" xlink:title="signrawtransactionwithwallet">
<polygon fill="#ffffff" stroke="#000000" points="398.9102,-37.5 398.9102,-55.5 541.6338,-55.5 541.6338,-37.5 398.9102,-37.5"/>
<text text-anchor="middle" x="470.272" y="-43.5" font-family="Helvetica,sans-Serif" font-size="10.00" fill="#000000">signrawtransactionwithwallet</text>
</a>
</g>
</g>
<!-- Node281&#45;&gt;Node282 -->
<g id="edge3" class="edge">
<title>Node281&#45;&gt;Node282</title>
<path fill="none" stroke="#191970" d="M371.8085,-46.5C380.5783,-46.5 389.7741,-46.5 398.8756,-46.5"/>
<polygon fill="#191970" stroke="#191970" points="371.7404,-43.0001 361.7404,-46.5 371.7404,-50.0001 371.7404,-43.0001"/>
</g>
<!-- Node284 -->
<g id="node6" class="node">
<title>Node284</title>
<g id="a_node6"><a xlink:href="rpcwallet_8cpp.html#afca55ac7a3c6c274b8b7b3e6eab9cd86" target="_top" xlink:title="walletcreatefundedpsbt">
<polygon fill="#ffffff" stroke="#000000" points="410.8486,-.5 410.8486,-18.5 529.6953,-18.5 529.6953,-.5 410.8486,-.5"/>
<text text-anchor="middle" x="470.272" y="-6.5" font-family="Helvetica,sans-Serif" font-size="10.00" fill="#000000">walletcreatefundedpsbt</text>
</a>
</g>
</g>
<!-- Node283&#45;&gt;Node284 -->
<g id="edge5" class="edge">
<title>Node283&#45;&gt;Node284</title>
<path fill="none" stroke="#191970" d="M373.0255,-9.5C385.2434,-9.5 398.2349,-9.5 410.6113,-9.5"/>
<polygon fill="#191970" stroke="#191970" points="372.9748,-6.0001 362.9748,-9.5 372.9748,-13.0001 372.9748,-6.0001"/>
</g>
</g>
</svg>
