<?xml version="1.0" encoding="UTF-8" standalone="no"?>
<!DOCTYPE svg PUBLIC "-//W3C//DTD SVG 1.1//EN"
 "http://www.w3.org/Graphics/SVG/1.1/DTD/svg11.dtd">
<!-- Generated by graphviz version 2.40.1 (20161225.0304)
 -->
<!-- Title: CAddrMan::GetAddr Pages: 1 -->
<svg width="743pt" height="82pt"
 viewBox="0.00 0.00 743.12 82.00" xmlns="http://www.w3.org/2000/svg" xmlns:xlink="http://www.w3.org/1999/xlink">
<g id="graph0" class="graph" transform="scale(1 1) rotate(0) translate(4 78)">
<title>CAddrMan::GetAddr</title>
<polygon fill="#ffffff" stroke="transparent" points="-4,4 -4,-78 739.1211,-78 739.1211,4 -4,4"/>
<!-- Node249 -->
<g id="node1" class="node">
<title>Node249</title>
<polygon fill="#bfbfbf" stroke="#000000" points="0,-36.5 0,-54.5 106.5957,-54.5 106.5957,-36.5 0,-36.5"/>
<text text-anchor="middle" x="53.2979" y="-42.5" font-family="Helvetica,sans-Serif" font-size="10.00" fill="#000000">CAddrMan::GetAddr</text>
</g>
<!-- Node250 -->
<g id="node2" class="node">
<title>Node250</title>
<g id="a_node2"><a xlink:href="class_c_addr_man.html#a0c2677ae50ce0d680f0105b285d1f5d0" target="_top" xlink:title="Consistency check. ">
<polygon fill="#ffffff" stroke="#000000" points="149.8247,-55.5 149.8247,-73.5 247.5239,-73.5 247.5239,-55.5 149.8247,-55.5"/>
<text text-anchor="middle" x="198.6743" y="-61.5" font-family="Helvetica,sans-Serif" font-size="10.00" fill="#000000">CAddrMan::Check</text>
</a>
</g>
</g>
<!-- Node249&#45;&gt;Node250 -->
<g id="edge1" class="edge">
<title>Node249&#45;&gt;Node250</title>
<path fill="none" stroke="#191970" d="M106.6052,-52.467C117.4007,-53.8779 128.8115,-55.3693 139.7865,-56.8036"/>
<polygon fill="#191970" stroke="#191970" points="139.3437,-60.2755 149.713,-58.101 140.2509,-53.3345 139.3437,-60.2755"/>
</g>
<!-- Node251 -->
<g id="node3" class="node">
<title>Node251</title>
<g id="a_node3"><a xlink:href="class_c_addr_man.html#ac0175a2ff32d2c1f459b95039b344e2a" target="_top" xlink:title="Select several addresses at once. ">
<polygon fill="#ffffff" stroke="#000000" points="142.5957,-18.5 142.5957,-36.5 254.7529,-36.5 254.7529,-18.5 142.5957,-18.5"/>
<text text-anchor="middle" x="198.6743" y="-24.5" font-family="Helvetica,sans-Serif" font-size="10.00" fill="#000000">CAddrMan::GetAddr_</text>
</a>
</g>
</g>
<!-- Node249&#45;&gt;Node251 -->
<g id="edge2" class="edge">
<title>Node249&#45;&gt;Node251</title>
<path fill="none" stroke="#191970" d="M106.6052,-38.8997C114.9924,-37.8612 123.751,-36.7767 132.3881,-35.7073"/>
<polygon fill="#191970" stroke="#191970" points="132.9479,-39.1648 142.442,-34.4625 132.0877,-32.2179 132.9479,-39.1648"/>
</g>
<!-- Node252 -->
<g id="node4" class="node">
<title>Node252</title>
<g id="a_node4"><a xlink:href="class_c_addr_man.html#a4bf12611bd89c5e524396e50bf8f3846" target="_top" xlink:title="Wraps GetRandInt to allow tests to override RandomInt and make it determinismistic. ">
<polygon fill="#ffffff" stroke="#000000" points="297.7012,-37.5 297.7012,-55.5 415.9717,-55.5 415.9717,-37.5 297.7012,-37.5"/>
<text text-anchor="middle" x="356.8364" y="-43.5" font-family="Helvetica,sans-Serif" font-size="10.00" fill="#000000">CAddrMan::RandomInt</text>
</a>
</g>
</g>
<!-- Node251&#45;&gt;Node252 -->
<g id="edge3" class="edge">
<title>Node251&#45;&gt;Node252</title>
<path fill="none" stroke="#191970" d="M254.8817,-34.2522C265.4865,-35.5261 276.6918,-36.8722 287.6403,-38.1875"/>
<polygon fill="#191970" stroke="#191970" points="287.2521,-41.6659 297.5982,-39.3837 288.0871,-34.7159 287.2521,-41.6659"/>
</g>
<!-- Node256 -->
<g id="node8" class="node">
<title>Node256</title>
<g id="a_node8"><a xlink:href="class_c_addr_man.html#a53ccac30857aeb88ce0ddcf619e9c6ec" target="_top" xlink:title="Swap two elements in vRandom. ">
<polygon fill="#ffffff" stroke="#000000" points="290.7529,-.5 290.7529,-18.5 422.9199,-18.5 422.9199,-.5 290.7529,-.5"/>
<text text-anchor="middle" x="356.8364" y="-6.5" font-family="Helvetica,sans-Serif" font-size="10.00" fill="#000000">CAddrMan::SwapRandom</text>
</a>
</g>
</g>
<!-- Node251&#45;&gt;Node256 -->
<g id="edge7" class="edge">
<title>Node251&#45;&gt;Node256</title>
<path fill="none" stroke="#191970" d="M254.8817,-21.1032C263.178,-20.159 271.8418,-19.173 280.4626,-18.1919"/>
<polygon fill="#191970" stroke="#191970" points="280.9983,-21.6536 290.5384,-17.0452 280.2067,-14.6985 280.9983,-21.6536"/>
</g>
<!-- Node253 -->
<g id="node5" class="node">
<title>Node253</title>
<g id="a_node5"><a xlink:href="random_8cpp.html#a0e44e088732172da6662db2d5e37d4b2" target="_top" xlink:title="GetRandInt">
<polygon fill="#ffffff" stroke="#000000" points="458.9199,-37.5 458.9199,-55.5 526.0625,-55.5 526.0625,-37.5 458.9199,-37.5"/>
<text text-anchor="middle" x="492.4912" y="-43.5" font-family="Helvetica,sans-Serif" font-size="10.00" fill="#000000">GetRandInt</text>
</a>
</g>
</g>
<!-- Node252&#45;&gt;Node253 -->
<g id="edge4" class="edge">
<title>Node252&#45;&gt;Node253</title>
<path fill="none" stroke="#191970" d="M416.3366,-46.5C427.115,-46.5 438.1783,-46.5 448.4154,-46.5"/>
<polygon fill="#191970" stroke="#191970" points="448.738,-50.0001 458.7379,-46.5 448.7379,-43.0001 448.738,-50.0001"/>
</g>
<!-- Node254 -->
<g id="node6" class="node">
<title>Node254</title>
<g id="a_node6"><a xlink:href="random_8cpp.html#a27d9149d522b1fa87d84e5e9ca902aef" target="_top" xlink:title="GetRand">
<polygon fill="#ffffff" stroke="#000000" points="562.0625,-37.5 562.0625,-55.5 618.0869,-55.5 618.0869,-37.5 562.0625,-37.5"/>
<text text-anchor="middle" x="590.0747" y="-43.5" font-family="Helvetica,sans-Serif" font-size="10.00" fill="#000000">GetRand</text>
</a>
</g>
</g>
<!-- Node253&#45;&gt;Node254 -->
<g id="edge5" class="edge">
<title>Node253&#45;&gt;Node254</title>
<path fill="none" stroke="#191970" d="M526.0739,-46.5C534.3833,-46.5 543.3466,-46.5 551.8587,-46.5"/>
<polygon fill="#191970" stroke="#191970" points="551.9437,-50.0001 561.9436,-46.5 551.9436,-43.0001 551.9437,-50.0001"/>
</g>
<!-- Node255 -->
<g id="node7" class="node">
<title>Node255</title>
<g id="a_node7"><a xlink:href="random_8cpp.html#ada0c29949c4d1ac0cc027d93c4771423" target="_top" xlink:title="Functions to gather random data via the OpenSSL PRNG. ">
<polygon fill="#ffffff" stroke="#000000" points="654.0869,-37.5 654.0869,-55.5 735.1211,-55.5 735.1211,-37.5 654.0869,-37.5"/>
<text text-anchor="middle" x="694.604" y="-43.5" font-family="Helvetica,sans-Serif" font-size="10.00" fill="#000000">GetRandBytes</text>
</a>
</g>
</g>
<!-- Node254&#45;&gt;Node255 -->
<g id="edge6" class="edge">
<title>Node254&#45;&gt;Node255</title>
<path fill="none" stroke="#191970" d="M618.3618,-46.5C626.1842,-46.5 634.9214,-46.5 643.6117,-46.5"/>
<polygon fill="#191970" stroke="#191970" points="643.7342,-50.0001 653.7341,-46.5 643.7341,-43.0001 643.7342,-50.0001"/>
</g>
</g>
</svg>
