<?xml version="1.0" encoding="UTF-8" standalone="no"?>
<!DOCTYPE svg PUBLIC "-//W3C//DTD SVG 1.1//EN"
 "http://www.w3.org/Graphics/SVG/1.1/DTD/svg11.dtd">
<!-- Generated by graphviz version 2.40.1 (20161225.0304)
 -->
<!-- Title: CompareTxMemPoolEntryByAncestorFee::GetModFeeAndSize Pages: 1 -->
<svg width="414pt" height="37pt"
 viewBox="0.00 0.00 413.89 37.00" xmlns="http://www.w3.org/2000/svg" xmlns:xlink="http://www.w3.org/1999/xlink">
<g id="graph0" class="graph" transform="scale(1 1) rotate(0) translate(4 33)">
<title>CompareTxMemPoolEntryByAncestorFee::GetModFeeAndSize</title>
<polygon fill="#ffffff" stroke="transparent" points="-4,4 -4,-33 409.8906,-33 409.8906,4 -4,4"/>
<!-- Node1 -->
<g id="node1" class="node">
<title>Node1</title>
<polygon fill="#bfbfbf" stroke="#000000" points="0,-.5 0,-28.5 184.9453,-28.5 184.9453,-.5 0,-.5"/>
<text text-anchor="start" x="8" y="-16.5" font-family="Helvetica,sans-Serif" font-size="10.00" fill="#000000">CompareTxMemPoolEntryByAncestor</text>
<text text-anchor="middle" x="92.4727" y="-6.5" font-family="Helvetica,sans-Serif" font-size="10.00" fill="#000000">Fee::GetModFeeAndSize</text>
</g>
<!-- Node2 -->
<g id="node2" class="node">
<title>Node2</title>
<g id="a_node2"><a xlink:href="class_compare_tx_mem_pool_entry_by_ancestor_fee.html#ab9d15de23f95f64878f968b71a880f76" target="_top" xlink:title="CompareTxMemPoolEntryByAncestor\lFee::operator()">
<polygon fill="#ffffff" stroke="#000000" points="220.9453,-.5 220.9453,-28.5 405.8906,-28.5 405.8906,-.5 220.9453,-.5"/>
<text text-anchor="start" x="228.9453" y="-16.5" font-family="Helvetica,sans-Serif" font-size="10.00" fill="#000000">CompareTxMemPoolEntryByAncestor</text>
<text text-anchor="middle" x="313.418" y="-6.5" font-family="Helvetica,sans-Serif" font-size="10.00" fill="#000000">Fee::operator()</text>
</a>
</g>
</g>
<!-- Node1&#45;&gt;Node2 -->
<g id="edge1" class="edge">
<title>Node1&#45;&gt;Node2</title>
<path fill="none" stroke="#191970" d="M195.2306,-14.5C203.7991,-14.5 212.4297,-14.5 220.915,-14.5"/>
<polygon fill="#191970" stroke="#191970" points="195.213,-11.0001 185.213,-14.5 195.213,-18.0001 195.213,-11.0001"/>
</g>
</g>
</svg>
