<?xml version="1.0" encoding="UTF-8" standalone="no"?>
<!DOCTYPE svg PUBLIC "-//W3C//DTD SVG 1.1//EN"
 "http://www.w3.org/Graphics/SVG/1.1/DTD/svg11.dtd">
<!-- Generated by graphviz version 2.40.1 (20161225.0304)
 -->
<!-- Title: CWallet::AddDestData Pages: 1 -->
<svg width="626pt" height="85pt"
 viewBox="0.00 0.00 626.49 85.00" xmlns="http://www.w3.org/2000/svg" xmlns:xlink="http://www.w3.org/1999/xlink">
<g id="graph0" class="graph" transform="scale(1 1) rotate(0) translate(4 81)">
<title>CWallet::AddDestData</title>
<polygon fill="#ffffff" stroke="transparent" points="-4,4 -4,-81 622.4893,-81 622.4893,4 -4,4"/>
<!-- Node8 -->
<g id="node1" class="node">
<title>Node8</title>
<polygon fill="#bfbfbf" stroke="#000000" points="0,-18.5 0,-36.5 115.6729,-36.5 115.6729,-18.5 0,-18.5"/>
<text text-anchor="middle" x="57.8364" y="-24.5" font-family="Helvetica,sans-Serif" font-size="10.00" fill="#000000">CWallet::AddDestData</text>
</g>
<!-- Node9 -->
<g id="node2" class="node">
<title>Node9</title>
<g id="a_node2"><a xlink:href="class_wallet_batch.html#ae7359244f4d13c0e64c874e4c0cd356d" target="_top" xlink:title="Write destination data key,value tuple to database. ">
<polygon fill="#ffffff" stroke="#000000" points="151.6729,-37.5 151.6729,-55.5 291.0566,-55.5 291.0566,-37.5 151.6729,-37.5"/>
<text text-anchor="middle" x="221.3647" y="-43.5" font-family="Helvetica,sans-Serif" font-size="10.00" fill="#000000">WalletBatch::WriteDestData</text>
</a>
</g>
</g>
<!-- Node8&#45;&gt;Node9 -->
<g id="edge1" class="edge">
<title>Node8&#45;&gt;Node9</title>
<path fill="none" stroke="#191970" d="M115.9508,-34.2522C124.1987,-35.2105 132.7978,-36.2096 141.371,-37.2057"/>
<polygon fill="#191970" stroke="#191970" points="141.0635,-40.6934 151.4006,-38.371 141.8714,-33.7402 141.0635,-40.6934"/>
</g>
<!-- Node13 -->
<g id="node6" class="node">
<title>Node13</title>
<g id="a_node6"><a xlink:href="key__io_8cpp.html#a69b845c325e6bf516251cd3a67fe1df7" target="_top" xlink:title="EncodeDestination">
<polygon fill="#ffffff" stroke="#000000" points="171.3921,-.5 171.3921,-18.5 271.3374,-18.5 271.3374,-.5 171.3921,-.5"/>
<text text-anchor="middle" x="221.3647" y="-6.5" font-family="Helvetica,sans-Serif" font-size="10.00" fill="#000000">EncodeDestination</text>
</a>
</g>
</g>
<!-- Node8&#45;&gt;Node13 -->
<g id="edge5" class="edge">
<title>Node8&#45;&gt;Node13</title>
<path fill="none" stroke="#191970" d="M115.9508,-21.1032C130.6449,-19.4858 146.454,-17.7456 161.2448,-16.1176"/>
<polygon fill="#191970" stroke="#191970" points="161.7387,-19.5844 171.2957,-15.0112 160.9728,-12.6264 161.7387,-19.5844"/>
</g>
<!-- Node10 -->
<g id="node3" class="node">
<title>Node10</title>
<g id="a_node3"><a xlink:href="class_wallet_batch.html#a552eb421cff45a9ed94b1ec77e5c76c3" target="_top" xlink:title="WalletBatch::WriteIC">
<polygon fill="#ffffff" stroke="#000000" points="327.0566,-37.5 327.0566,-55.5 434.7559,-55.5 434.7559,-37.5 327.0566,-37.5"/>
<text text-anchor="middle" x="380.9063" y="-43.5" font-family="Helvetica,sans-Serif" font-size="10.00" fill="#000000">WalletBatch::WriteIC</text>
</a>
</g>
</g>
<!-- Node9&#45;&gt;Node10 -->
<g id="edge2" class="edge">
<title>Node9&#45;&gt;Node10</title>
<path fill="none" stroke="#191970" d="M291.342,-46.5C299.7942,-46.5 308.3953,-46.5 316.7581,-46.5"/>
<polygon fill="#191970" stroke="#191970" points="316.8146,-50.0001 326.8145,-46.5 316.8145,-43.0001 316.8146,-50.0001"/>
</g>
<!-- Node11 -->
<g id="node4" class="node">
<title>Node11</title>
<g id="a_node4"><a xlink:href="class_berkeley_batch.html#ac31c83ec96f7bd149f856d28e97dba23" target="_top" xlink:title="BerkeleyBatch::Write">
<polygon fill="#ffffff" stroke="#000000" points="490.0283,-58.5 490.0283,-76.5 599.2168,-76.5 599.2168,-58.5 490.0283,-58.5"/>
<text text-anchor="middle" x="544.6226" y="-64.5" font-family="Helvetica,sans-Serif" font-size="10.00" fill="#000000">BerkeleyBatch::Write</text>
</a>
</g>
</g>
<!-- Node10&#45;&gt;Node11 -->
<g id="edge3" class="edge">
<title>Node10&#45;&gt;Node11</title>
<path fill="none" stroke="#191970" d="M434.9668,-53.4344C449.2694,-55.269 464.8567,-57.2684 479.6715,-59.1687"/>
<polygon fill="#191970" stroke="#191970" points="479.4152,-62.6644 489.7792,-60.4652 480.3058,-55.7213 479.4152,-62.6644"/>
</g>
<!-- Node12 -->
<g id="node5" class="node">
<title>Node12</title>
<g id="a_node5"><a xlink:href="class_berkeley_database.html#a313cd767c211da5738bdb5578cd59af7" target="_top" xlink:title="BerkeleyDatabase::Increment\lUpdateCounter">
<polygon fill="#ffffff" stroke="#000000" points="470.7559,-11.5 470.7559,-39.5 618.4893,-39.5 618.4893,-11.5 470.7559,-11.5"/>
<text text-anchor="start" x="478.7559" y="-27.5" font-family="Helvetica,sans-Serif" font-size="10.00" fill="#000000">BerkeleyDatabase::Increment</text>
<text text-anchor="middle" x="544.6226" y="-17.5" font-family="Helvetica,sans-Serif" font-size="10.00" fill="#000000">UpdateCounter</text>
</a>
</g>
</g>
<!-- Node10&#45;&gt;Node12 -->
<g id="edge4" class="edge">
<title>Node10&#45;&gt;Node12</title>
<path fill="none" stroke="#191970" d="M434.9668,-39.5656C443.2008,-38.5094 451.8607,-37.3986 460.5538,-36.2836"/>
<polygon fill="#191970" stroke="#191970" points="461.2771,-39.7195 470.7505,-34.9756 460.3864,-32.7764 461.2771,-39.7195"/>
</g>
<!-- Node14 -->
<g id="node7" class="node">
<title>Node14</title>
<g id="a_node7"><a xlink:href="chainparams_8cpp.html#ace5c5b706d71a324a417dd2db394fd4a" target="_top" xlink:title="Return the currently selected parameters. ">
<polygon fill="#ffffff" stroke="#000000" points="355.6797,-.5 355.6797,-18.5 406.1328,-18.5 406.1328,-.5 355.6797,-.5"/>
<text text-anchor="middle" x="380.9063" y="-6.5" font-family="Helvetica,sans-Serif" font-size="10.00" fill="#000000">Params</text>
</a>
</g>
</g>
<!-- Node13&#45;&gt;Node14 -->
<g id="edge6" class="edge">
<title>Node13&#45;&gt;Node14</title>
<path fill="none" stroke="#191970" d="M271.4069,-9.5C295.4379,-9.5 323.6692,-9.5 345.447,-9.5"/>
<polygon fill="#191970" stroke="#191970" points="345.5728,-13.0001 355.5727,-9.5 345.5727,-6.0001 345.5728,-13.0001"/>
</g>
</g>
</svg>
