<?xml version="1.0" encoding="UTF-8" standalone="no"?>
<!DOCTYPE svg PUBLIC "-//W3C//DTD SVG 1.1//EN"
 "http://www.w3.org/Graphics/SVG/1.1/DTD/svg11.dtd">
<!-- Generated by graphviz version 2.40.1 (20161225.0304)
 -->
<!-- Title: WalletBatch::WriteDestData Pages: 1 -->
<svg width="475pt" height="74pt"
 viewBox="0.00 0.00 474.82 74.00" xmlns="http://www.w3.org/2000/svg" xmlns:xlink="http://www.w3.org/1999/xlink">
<g id="graph0" class="graph" transform="scale(1 1) rotate(0) translate(4 70)">
<title>WalletBatch::WriteDestData</title>
<polygon fill="#ffffff" stroke="transparent" points="-4,4 -4,-70 470.8164,-70 470.8164,4 -4,4"/>
<!-- Node231 -->
<g id="node1" class="node">
<title>Node231</title>
<polygon fill="#bfbfbf" stroke="#000000" points="0,-26.5 0,-44.5 139.3838,-44.5 139.3838,-26.5 0,-26.5"/>
<text text-anchor="middle" x="69.6919" y="-32.5" font-family="Helvetica,sans-Serif" font-size="10.00" fill="#000000">WalletBatch::WriteDestData</text>
</g>
<!-- Node232 -->
<g id="node2" class="node">
<title>Node232</title>
<g id="a_node2"><a xlink:href="class_wallet_batch.html#a552eb421cff45a9ed94b1ec77e5c76c3" target="_top" xlink:title="WalletBatch::WriteIC">
<polygon fill="#ffffff" stroke="#000000" points="175.3838,-26.5 175.3838,-44.5 283.083,-44.5 283.083,-26.5 175.3838,-26.5"/>
<text text-anchor="middle" x="229.2334" y="-32.5" font-family="Helvetica,sans-Serif" font-size="10.00" fill="#000000">WalletBatch::WriteIC</text>
</a>
</g>
</g>
<!-- Node231&#45;&gt;Node232 -->
<g id="edge1" class="edge">
<title>Node231&#45;&gt;Node232</title>
<path fill="none" stroke="#191970" d="M139.6691,-35.5C148.1213,-35.5 156.7225,-35.5 165.0852,-35.5"/>
<polygon fill="#191970" stroke="#191970" points="165.1417,-39.0001 175.1417,-35.5 165.1416,-32.0001 165.1417,-39.0001"/>
</g>
<!-- Node233 -->
<g id="node3" class="node">
<title>Node233</title>
<g id="a_node3"><a xlink:href="class_berkeley_batch.html#ac31c83ec96f7bd149f856d28e97dba23" target="_top" xlink:title="BerkeleyBatch::Write">
<polygon fill="#ffffff" stroke="#000000" points="338.3555,-47.5 338.3555,-65.5 447.5439,-65.5 447.5439,-47.5 338.3555,-47.5"/>
<text text-anchor="middle" x="392.9497" y="-53.5" font-family="Helvetica,sans-Serif" font-size="10.00" fill="#000000">BerkeleyBatch::Write</text>
</a>
</g>
</g>
<!-- Node232&#45;&gt;Node233 -->
<g id="edge2" class="edge">
<title>Node232&#45;&gt;Node233</title>
<path fill="none" stroke="#191970" d="M283.294,-42.4344C297.5966,-44.269 313.1839,-46.2684 327.9987,-48.1687"/>
<polygon fill="#191970" stroke="#191970" points="327.7423,-51.6644 338.1064,-49.4652 328.633,-44.7213 327.7423,-51.6644"/>
</g>
<!-- Node234 -->
<g id="node4" class="node">
<title>Node234</title>
<g id="a_node4"><a xlink:href="class_berkeley_database.html#a313cd767c211da5738bdb5578cd59af7" target="_top" xlink:title="BerkeleyDatabase::Increment\lUpdateCounter">
<polygon fill="#ffffff" stroke="#000000" points="319.083,-.5 319.083,-28.5 466.8164,-28.5 466.8164,-.5 319.083,-.5"/>
<text text-anchor="start" x="327.083" y="-16.5" font-family="Helvetica,sans-Serif" font-size="10.00" fill="#000000">BerkeleyDatabase::Increment</text>
<text text-anchor="middle" x="392.9497" y="-6.5" font-family="Helvetica,sans-Serif" font-size="10.00" fill="#000000">UpdateCounter</text>
</a>
</g>
</g>
<!-- Node232&#45;&gt;Node234 -->
<g id="edge3" class="edge">
<title>Node232&#45;&gt;Node234</title>
<path fill="none" stroke="#191970" d="M283.294,-28.5656C291.528,-27.5094 300.1878,-26.3986 308.8809,-25.2836"/>
<polygon fill="#191970" stroke="#191970" points="309.6042,-28.7195 319.0776,-23.9756 308.7136,-21.7764 309.6042,-28.7195"/>
</g>
</g>
</svg>
