<?xml version="1.0" encoding="UTF-8" standalone="no"?>
<!DOCTYPE svg PUBLIC "-//W3C//DTD SVG 1.1//EN"
 "http://www.w3.org/Graphics/SVG/1.1/DTD/svg11.dtd">
<!-- Generated by graphviz version 2.40.1 (20161225.0304)
 -->
<!-- Title: WalletFrame Pages: 1 -->
<svg width="931pt" height="744pt"
 viewBox="0.00 0.00 930.83 744.00" xmlns="http://www.w3.org/2000/svg" xmlns:xlink="http://www.w3.org/1999/xlink">
<g id="graph0" class="graph" transform="scale(1 1) rotate(0) translate(4 740)">
<title>WalletFrame</title>
<polygon fill="#ffffff" stroke="transparent" points="-4,4 -4,-740 926.8281,-740 926.8281,4 -4,4"/>
<!-- Node2 -->
<g id="node1" class="node">
<title>Node2</title>
<polygon fill="#bfbfbf" stroke="#000000" points="621.3076,-642.5 621.3076,-660.5 693.6162,-660.5 693.6162,-642.5 621.3076,-642.5"/>
<text text-anchor="middle" x="657.4619" y="-648.5" font-family="Helvetica,sans-Serif" font-size="10.00" fill="#000000">WalletFrame</text>
</g>
<!-- Node13 -->
<g id="node12" class="node">
<title>Node13</title>
<g id="a_node12"><a xlink:href="class_bitcoin_g_u_i.html" target="_top" xlink:title="Bitcoin GUI main class. ">
<polygon fill="#ffffff" stroke="#000000" points="859.0352,-477.5 859.0352,-495.5 922.8281,-495.5 922.8281,-477.5 859.0352,-477.5"/>
<text text-anchor="middle" x="890.9316" y="-483.5" font-family="Helvetica,sans-Serif" font-size="10.00" fill="#000000">BitcoinGUI</text>
</a>
</g>
</g>
<!-- Node2&#45;&gt;Node13 -->
<g id="edge31" class="edge">
<title>Node2&#45;&gt;Node13</title>
<path fill="none" stroke="#9a32cd" stroke-dasharray="5,2" d="M690.7304,-638.7533C708.3328,-632.248 730.3936,-624.4699 750.4248,-618.5 790.1398,-606.6638 809.1152,-622.929 841.0352,-596.5 873.6625,-569.4853 885.8663,-516.615 889.5631,-495.5124"/>
<polygon fill="#9a32cd" stroke="#9a32cd" points="689.0741,-635.6357 680.9306,-642.4132 691.5232,-642.1933 689.0741,-635.6357"/>
<text text-anchor="middle" x="795.73" y="-620.5" font-family="Helvetica,sans-Serif" font-size="10.00" fill="#000000"> walletFrame</text>
</g>
<!-- Node3 -->
<g id="node2" class="node">
<title>Node3</title>
<polygon fill="#ffffff" stroke="#bfbfbf" points="383.5972,-717.5 383.5972,-735.5 436.2671,-735.5 436.2671,-717.5 383.5972,-717.5"/>
<text text-anchor="middle" x="409.9321" y="-723.5" font-family="Helvetica,sans-Serif" font-size="10.00" fill="#000000">QFrame</text>
</g>
<!-- Node3&#45;&gt;Node2 -->
<g id="edge1" class="edge">
<title>Node3&#45;&gt;Node2</title>
<path fill="none" stroke="#191970" d="M446.1587,-716.2726C477.5388,-707.3372 524.1152,-693.8919 564.499,-681.5 586.7106,-674.6843 611.7727,-666.5718 630.2732,-660.5024"/>
<polygon fill="#191970" stroke="#191970" points="445.194,-712.9081 436.5315,-719.0082 447.1074,-719.6415 445.194,-712.9081"/>
</g>
<!-- Node4 -->
<g id="node3" class="node">
<title>Node4</title>
<g id="a_node3"><a xlink:href="class_platform_style.html" target="_top" xlink:title="PlatformStyle">
<polygon fill="#ffffff" stroke="#000000" points="372.2007,-667.5 372.2007,-685.5 447.6636,-685.5 447.6636,-667.5 372.2007,-667.5"/>
<text text-anchor="middle" x="409.9321" y="-673.5" font-family="Helvetica,sans-Serif" font-size="10.00" fill="#000000">PlatformStyle</text>
</a>
</g>
</g>
<!-- Node4&#45;&gt;Node2 -->
<g id="edge2" class="edge">
<title>Node4&#45;&gt;Node2</title>
<path fill="none" stroke="#9a32cd" stroke-dasharray="5,2" d="M457.8999,-671.6554C505.6961,-666.828 578.0185,-659.5236 621.2142,-655.1609"/>
<polygon fill="#9a32cd" stroke="#9a32cd" points="457.3937,-668.1886 447.796,-672.6758 458.0971,-675.1532 457.3937,-668.1886"/>
<text text-anchor="middle" x="524.1157" y="-669.5" font-family="Helvetica,sans-Serif" font-size="10.00" fill="#000000"> platformStyle</text>
</g>
<!-- Node4&#45;&gt;Node13 -->
<g id="edge23" class="edge">
<title>Node4&#45;&gt;Node13</title>
<path fill="none" stroke="#9a32cd" stroke-dasharray="5,2" d="M444.014,-688.7283C523.3903,-714.8217 722.8049,-766.2878 841.0352,-672.5 869.7164,-649.7482 885.8414,-529.8035 889.9034,-495.6073"/>
<polygon fill="#9a32cd" stroke="#9a32cd" points="445.0977,-685.4002 434.5037,-685.5328 442.8682,-692.0356 445.0977,-685.4002"/>
<text text-anchor="middle" x="657.4619" y="-727.5" font-family="Helvetica,sans-Serif" font-size="10.00" fill="#000000"> platformStyle</text>
</g>
<!-- Node19 -->
<g id="node18" class="node">
<title>Node19</title>
<g id="a_node18"><a xlink:href="class_r_p_c_console.html" target="_top" xlink:title="Local Bitcoin RPC console. ">
<polygon fill="#ffffff" stroke="#000000" points="620.5605,-439.5 620.5605,-457.5 694.3633,-457.5 694.3633,-439.5 620.5605,-439.5"/>
<text text-anchor="middle" x="657.4619" y="-445.5" font-family="Helvetica,sans-Serif" font-size="10.00" fill="#000000">RPCConsole</text>
</a>
</g>
</g>
<!-- Node4&#45;&gt;Node19 -->
<g id="edge28" class="edge">
<title>Node4&#45;&gt;Node19</title>
<path fill="none" stroke="#9a32cd" stroke-dasharray="5,2" d="M440.31,-663.4656C453.5472,-657.9645 469.3059,-651.6542 483.7324,-646.5 519.1184,-633.8575 539.9404,-649.9407 564.499,-621.5 598.597,-582.012 555.7954,-550.3207 582.499,-505.5 595.637,-483.4486 620.855,-467.0061 638.3948,-457.5867"/>
<polygon fill="#9a32cd" stroke="#9a32cd" points="438.6085,-660.3839 430.7428,-667.4819 441.3181,-666.8382 438.6085,-660.3839"/>
<text text-anchor="middle" x="524.1157" y="-648.5" font-family="Helvetica,sans-Serif" font-size="10.00" fill="#000000"> platformStyle</text>
</g>
<!-- Node5 -->
<g id="node4" class="node">
<title>Node5</title>
<g id="a_node4"><a xlink:href="class_client_model.html" target="_top" xlink:title="Model for Bitcoin network client. ">
<polygon fill="#ffffff" stroke="#000000" points="375.5308,-250.5 375.5308,-268.5 444.3335,-268.5 444.3335,-250.5 375.5308,-250.5"/>
<text text-anchor="middle" x="409.9321" y="-256.5" font-family="Helvetica,sans-Serif" font-size="10.00" fill="#000000">ClientModel</text>
</a>
</g>
</g>
<!-- Node5&#45;&gt;Node2 -->
<g id="edge3" class="edge">
<title>Node5&#45;&gt;Node2</title>
<path fill="none" stroke="#9a32cd" stroke-dasharray="5,2" d="M420.4137,-277.6602C432.8258,-299.855 453.3702,-338.8648 465.7324,-374.5 477.9614,-409.7512 469.7347,-421.913 483.7324,-456.5 515.0833,-533.9648 520.0751,-560.9399 582.499,-616.5 595.6956,-628.2455 613.5163,-636.7841 628.4712,-642.4859"/>
<polygon fill="#9a32cd" stroke="#9a32cd" points="423.3199,-275.6897 415.3417,-268.7184 417.2312,-279.1434 423.3199,-275.6897"/>
<text text-anchor="middle" x="524.1157" y="-600.5" font-family="Helvetica,sans-Serif" font-size="10.00" fill="#000000"> clientModel</text>
</g>
<!-- Node7 -->
<g id="node6" class="node">
<title>Node7</title>
<g id="a_node6"><a xlink:href="class_peer_table_model.html" target="_top" xlink:title="Qt model providing information about connected peers, similar to the &quot;getpeerinfo&quot; RPC call...">
<polygon fill="#ffffff" stroke="#000000" points="613.3291,-291.5 613.3291,-309.5 701.5947,-309.5 701.5947,-291.5 613.3291,-291.5"/>
<text text-anchor="middle" x="657.4619" y="-297.5" font-family="Helvetica,sans-Serif" font-size="10.00" fill="#000000">PeerTableModel</text>
</a>
</g>
</g>
<!-- Node5&#45;&gt;Node7 -->
<g id="edge7" class="edge">
<title>Node5&#45;&gt;Node7</title>
<path fill="none" stroke="#9a32cd" stroke-dasharray="5,2" d="M454.4442,-265.1131C485.3879,-269.1917 527.5469,-275.1 564.499,-281.5 581.3797,-284.4237 599.8873,-288.1076 615.914,-291.4515"/>
<polygon fill="#9a32cd" stroke="#9a32cd" points="454.773,-261.6264 444.404,-263.8019 453.8665,-268.5674 454.773,-261.6264"/>
<text text-anchor="middle" x="524.1157" y="-283.5" font-family="Helvetica,sans-Serif" font-size="10.00" fill="#000000"> clientModel</text>
</g>
<!-- Node10 -->
<g id="node9" class="node">
<title>Node10</title>
<g id="a_node9"><a xlink:href="class_ban_table_model.html" target="_top" xlink:title="Qt model providing information about connected peers, similar to the &quot;getpeerinfo&quot; RPC call...">
<polygon fill="#ffffff" stroke="#000000" points="614.9941,-150.5 614.9941,-168.5 699.9297,-168.5 699.9297,-150.5 614.9941,-150.5"/>
<text text-anchor="middle" x="657.4619" y="-156.5" font-family="Helvetica,sans-Serif" font-size="10.00" fill="#000000">BanTableModel</text>
</a>
</g>
</g>
<!-- Node5&#45;&gt;Node10 -->
<g id="edge12" class="edge">
<title>Node5&#45;&gt;Node10</title>
<path fill="none" stroke="#9a32cd" stroke-dasharray="5,2" d="M446.0482,-245.816C453.3045,-241.7607 460.3448,-236.7001 465.7324,-230.5 481.4987,-212.3561 464.9375,-194.4842 483.7324,-179.5 520.5286,-150.1643 576.4548,-149.0205 614.8566,-152.6841"/>
<polygon fill="#9a32cd" stroke="#9a32cd" points="444.222,-242.8161 436.8495,-250.4252 447.3579,-249.0744 444.222,-242.8161"/>
<text text-anchor="middle" x="524.1157" y="-181.5" font-family="Helvetica,sans-Serif" font-size="10.00" fill="#000000"> clientModel</text>
</g>
<!-- Node5&#45;&gt;Node13 -->
<g id="edge24" class="edge">
<title>Node5&#45;&gt;Node13</title>
<path fill="none" stroke="#9a32cd" stroke-dasharray="5,2" d="M454.6055,-250.1019C519.5941,-238.7834 642.2749,-226.4494 732.4248,-271.5 823.2714,-316.8988 874.6847,-441.9658 887.6486,-477.1697"/>
<polygon fill="#9a32cd" stroke="#9a32cd" points="453.8995,-246.6728 444.6844,-251.9008 455.1484,-253.5605 453.8995,-246.6728"/>
<text text-anchor="middle" x="657.4619" y="-273.5" font-family="Helvetica,sans-Serif" font-size="10.00" fill="#000000"> clientModel</text>
</g>
<!-- Node5&#45;&gt;Node19 -->
<g id="edge29" class="edge">
<title>Node5&#45;&gt;Node19</title>
<path fill="none" stroke="#9a32cd" stroke-dasharray="5,2" d="M430.214,-275.2169C461.0295,-299.6036 520.6845,-348.8347 564.499,-397.5 573.66,-407.6752 571.5197,-414.3201 582.499,-422.5 593.5453,-430.7298 607.4001,-436.4974 620.1837,-440.4705"/>
<polygon fill="#9a32cd" stroke="#9a32cd" points="432.0007,-272.1697 421.9744,-268.7458 427.6771,-277.6749 432.0007,-272.1697"/>
<text text-anchor="middle" x="524.1157" y="-399.5" font-family="Helvetica,sans-Serif" font-size="10.00" fill="#000000"> clientModel</text>
</g>
<!-- Node6 -->
<g id="node5" class="node">
<title>Node6</title>
<polygon fill="#ffffff" stroke="#bfbfbf" points="190.6816,-139.5 190.6816,-157.5 243.3613,-157.5 243.3613,-139.5 190.6816,-139.5"/>
<text text-anchor="middle" x="217.0215" y="-145.5" font-family="Helvetica,sans-Serif" font-size="10.00" fill="#000000">QObject</text>
</g>
<!-- Node6&#45;&gt;Node5 -->
<g id="edge4" class="edge">
<title>Node6&#45;&gt;Node5</title>
<path fill="none" stroke="#191970" d="M253.8815,-144.706C279.9066,-144.1116 313.9595,-147.8429 336.1318,-167.5 357.9219,-186.8182 335.7103,-207.9468 354.1318,-230.5 361.3837,-239.3784 372.0739,-245.8523 382.1621,-250.4006"/>
<polygon fill="#191970" stroke="#191970" points="253.466,-141.2211 243.6337,-145.1677 253.7811,-148.214 253.466,-141.2211"/>
</g>
<!-- Node25 -->
<g id="node24" class="node">
<title>Node25</title>
<g id="a_node24"><a xlink:href="class_notificator.html" target="_top" xlink:title="Cross&#45;platform desktop notification client. ">
<polygon fill="#ffffff" stroke="#000000" points="493.6084,-73.5 493.6084,-91.5 554.623,-91.5 554.623,-73.5 493.6084,-73.5"/>
<text text-anchor="middle" x="524.1157" y="-79.5" font-family="Helvetica,sans-Serif" font-size="10.00" fill="#000000">Notificator</text>
</a>
</g>
</g>
<!-- Node6&#45;&gt;Node25 -->
<g id="edge38" class="edge">
<title>Node6&#45;&gt;Node25</title>
<path fill="none" stroke="#191970" d="M248.064,-134.6922C250.7878,-133.0752 253.4326,-131.3401 255.8711,-129.5 265.4171,-122.2968 263.2239,-114.9451 273.8711,-109.5 345.6509,-72.7915 443.9472,-74.9707 493.2555,-79.0515"/>
<polygon fill="#191970" stroke="#191970" points="246.3947,-131.6158 239.2499,-139.439 249.7138,-137.7789 246.3947,-131.6158"/>
</g>
<!-- Node7&#45;&gt;Node5 -->
<g id="edge5" class="edge">
<title>Node7&#45;&gt;Node5</title>
<path fill="none" stroke="#9a32cd" stroke-dasharray="5,2" d="M602.9126,-303.1604C568.317,-303.5846 522.8664,-301.7972 483.7324,-292.5 462.5671,-287.4717 439.977,-276.4348 425.4465,-268.5087"/>
<polygon fill="#9a32cd" stroke="#9a32cd" points="603.3498,-306.6528 613.2816,-302.9636 603.217,-299.6541 603.3498,-306.6528"/>
<text text-anchor="middle" x="524.1157" y="-305.5" font-family="Helvetica,sans-Serif" font-size="10.00" fill="#000000"> peerTableModel</text>
</g>
<!-- Node8 -->
<g id="node7" class="node">
<title>Node8</title>
<polygon fill="#ffffff" stroke="#bfbfbf" points="354.1318,-203.5 354.1318,-221.5 465.7324,-221.5 465.7324,-203.5 354.1318,-203.5"/>
<text text-anchor="middle" x="409.9321" y="-209.5" font-family="Helvetica,sans-Serif" font-size="10.00" fill="#000000">QAbstractTableModel</text>
</g>
<!-- Node8&#45;&gt;Node7 -->
<g id="edge6" class="edge">
<title>Node8&#45;&gt;Node7</title>
<path fill="none" stroke="#191970" d="M446.7411,-224.7784C478.1249,-235.3291 524.3929,-251.0777 564.499,-265.5 588.1919,-274.0201 615.0968,-284.2059 633.8439,-291.3863"/>
<polygon fill="#191970" stroke="#191970" points="447.6952,-221.4068 437.1012,-221.5438 445.4683,-228.0432 447.6952,-221.4068"/>
</g>
<!-- Node8&#45;&gt;Node10 -->
<g id="edge11" class="edge">
<title>Node8&#45;&gt;Node10</title>
<path fill="none" stroke="#191970" d="M431.0955,-197.5265C441.9225,-189.4504 455.0368,-179.0045 465.7324,-168.5 474.7458,-159.6476 472.3159,-151.91 483.7324,-146.5 532.7936,-123.2509 598.4668,-138.9964 633.3358,-150.4829"/>
<polygon fill="#191970" stroke="#191970" points="428.9992,-194.7235 422.9928,-203.4512 433.1309,-200.3741 428.9992,-194.7235"/>
</g>
<!-- Node9 -->
<g id="node8" class="node">
<title>Node9</title>
<g id="a_node8"><a xlink:href="classinterfaces_1_1_node.html" target="_top" xlink:title="Top&#45;level interface for a bitcoin node (bsha3d process). ">
<polygon fill="#ffffff" stroke="#000000" points="7.2192,-310.5 7.2192,-328.5 96.0366,-328.5 96.0366,-310.5 7.2192,-310.5"/>
<text text-anchor="middle" x="51.6279" y="-316.5" font-family="Helvetica,sans-Serif" font-size="10.00" fill="#000000">interfaces::Node</text>
</a>
</g>
</g>
<!-- Node9&#45;&gt;Node5 -->
<g id="edge9" class="edge">
<title>Node9&#45;&gt;Node5</title>
<path fill="none" stroke="#9a32cd" stroke-dasharray="5,2" d="M106.4467,-310.3203C181.2543,-297.7933 313.1252,-275.7108 375.4519,-265.2739"/>
<polygon fill="#9a32cd" stroke="#9a32cd" points="105.5675,-306.9187 96.2829,-312.0223 106.7237,-313.8226 105.5675,-306.9187"/>
<text text-anchor="middle" x="217.0215" y="-299.5" font-family="Helvetica,sans-Serif" font-size="10.00" fill="#000000"> m_node</text>
</g>
<!-- Node9&#45;&gt;Node7 -->
<g id="edge8" class="edge">
<title>Node9&#45;&gt;Node7</title>
<path fill="none" stroke="#9a32cd" stroke-dasharray="5,2" d="M106.6599,-319.5528C123.8026,-319.555 142.7717,-319.543 160.1719,-319.5 339.8745,-319.0556 385.5709,-334.1719 564.499,-317.5 581.8155,-315.8865 600.73,-312.6946 616.9504,-309.508"/>
<polygon fill="#9a32cd" stroke="#9a32cd" points="106.2536,-316.0527 96.2525,-319.5497 106.2515,-323.0527 106.2536,-316.0527"/>
<text text-anchor="middle" x="305.0015" y="-326.5" font-family="Helvetica,sans-Serif" font-size="10.00" fill="#000000"> m_node</text>
</g>
<!-- Node9&#45;&gt;Node10 -->
<g id="edge13" class="edge">
<title>Node9&#45;&gt;Node10</title>
<path fill="none" stroke="#9a32cd" stroke-dasharray="5,2" d="M74.9471,-305.2006C137.9525,-267.5099 318.0326,-165.9851 483.7324,-131.5 518.8757,-124.1861 530.344,-120.4558 564.499,-131.5 573.8886,-134.5362 573.4545,-140.553 582.499,-144.5 592.5956,-148.9061 604.025,-152.0319 614.8618,-154.2445"/>
<polygon fill="#9a32cd" stroke="#9a32cd" points="72.9435,-302.3216 66.1873,-310.4828 76.5583,-308.3161 72.9435,-302.3216"/>
<text text-anchor="middle" x="305.0015" y="-202.5" font-family="Helvetica,sans-Serif" font-size="10.00" fill="#000000"> m_node</text>
</g>
<!-- Node11 -->
<g id="node10" class="node">
<title>Node11</title>
<g id="a_node10"><a xlink:href="class_options_model.html" target="_top" xlink:title="Interface from Qt to configuration data structure for Bitcoin client. ">
<polygon fill="#ffffff" stroke="#000000" points="178.1719,-102.5 178.1719,-120.5 255.8711,-120.5 255.8711,-102.5 178.1719,-102.5"/>
<text text-anchor="middle" x="217.0215" y="-108.5" font-family="Helvetica,sans-Serif" font-size="10.00" fill="#000000">OptionsModel</text>
</a>
</g>
</g>
<!-- Node9&#45;&gt;Node11 -->
<g id="edge16" class="edge">
<title>Node9&#45;&gt;Node11</title>
<path fill="none" stroke="#9a32cd" stroke-dasharray="5,2" d="M55.9652,-300.4537C64.0373,-268.6129 84.0231,-203.9881 121.2559,-162.5 139.3727,-142.3125 167.4089,-128.6993 188.473,-120.6516"/>
<polygon fill="#9a32cd" stroke="#9a32cd" points="52.543,-299.7151 53.5981,-310.2572 59.3474,-301.3581 52.543,-299.7151"/>
<text text-anchor="middle" x="140.7139" y="-164.5" font-family="Helvetica,sans-Serif" font-size="10.00" fill="#000000"> m_node</text>
</g>
<!-- Node9&#45;&gt;Node13 -->
<g id="edge34" class="edge">
<title>Node9&#45;&gt;Node13</title>
<path fill="none" stroke="#9a32cd" stroke-dasharray="5,2" d="M68.8062,-335.8952C82.5245,-348.6509 102.4919,-366.4794 121.2559,-380.5 182.1158,-425.9752 200.5372,-437.6487 273.8711,-457.5 490.7476,-516.2079 765.9111,-498.2491 858.7174,-489.7881"/>
<polygon fill="#9a32cd" stroke="#9a32cd" points="70.8223,-332.9867 61.1388,-328.6878 66.0279,-338.0872 70.8223,-332.9867"/>
<text text-anchor="middle" x="409.9321" y="-493.5" font-family="Helvetica,sans-Serif" font-size="10.00" fill="#000000"> m_node</text>
</g>
<!-- Node9&#45;&gt;Node19 -->
<g id="edge30" class="edge">
<title>Node9&#45;&gt;Node19</title>
<path fill="none" stroke="#9a32cd" stroke-dasharray="5,2" d="M76.2007,-333.4421C126.4881,-361.1778 245.5652,-422.8083 354.1318,-448.5 410.2907,-461.7897 426.0499,-454.7214 483.7324,-456.5 519.6116,-457.6063 528.6358,-458.0403 564.499,-456.5 582.9489,-455.7076 603.4017,-454.0345 620.4149,-452.4222"/>
<polygon fill="#9a32cd" stroke="#9a32cd" points="77.7963,-330.3246 67.3562,-328.5205 74.3926,-336.4414 77.7963,-330.3246"/>
<text text-anchor="middle" x="305.0015" y="-445.5" font-family="Helvetica,sans-Serif" font-size="10.00" fill="#000000"> m_node</text>
</g>
<!-- Node10&#45;&gt;Node5 -->
<g id="edge10" class="edge">
<title>Node10&#45;&gt;Node5</title>
<path fill="none" stroke="#9a32cd" stroke-dasharray="5,2" d="M621.4225,-171.9766C586.0404,-184.4611 530.6975,-204.6197 483.7324,-224.5 464.4056,-232.681 442.7593,-243.1007 427.9349,-250.4363"/>
<polygon fill="#9a32cd" stroke="#9a32cd" points="623.0143,-175.1272 631.2897,-168.5115 620.6949,-168.5227 623.0143,-175.1272"/>
<text text-anchor="middle" x="524.1157" y="-226.5" font-family="Helvetica,sans-Serif" font-size="10.00" fill="#000000"> banTableModel</text>
</g>
<!-- Node11&#45;&gt;Node5 -->
<g id="edge14" class="edge">
<title>Node11&#45;&gt;Node5</title>
<path fill="none" stroke="#9a32cd" stroke-dasharray="5,2" d="M266.0163,-107.4417C290.1879,-108.1825 317.9774,-113.5889 336.1318,-131.5 367.9672,-162.9087 327.5797,-194.5141 354.1318,-230.5 360.7436,-239.4609 370.9451,-245.8849 380.826,-250.371"/>
<polygon fill="#9a32cd" stroke="#9a32cd" points="265.936,-103.9413 255.9172,-107.387 265.8981,-110.9412 265.936,-103.9413"/>
<text text-anchor="middle" x="305.0015" y="-133.5" font-family="Helvetica,sans-Serif" font-size="10.00" fill="#000000"> optionsModel</text>
</g>
<!-- Node26 -->
<g id="node25" class="node">
<title>Node26</title>
<g id="a_node25"><a xlink:href="class_unit_display_status_bar_control.html" target="_top" xlink:title="UnitDisplayStatusBarControl">
<polygon fill="#ffffff" stroke="#000000" points="586.1025,-48.5 586.1025,-66.5 728.8213,-66.5 728.8213,-48.5 586.1025,-48.5"/>
<text text-anchor="middle" x="657.4619" y="-54.5" font-family="Helvetica,sans-Serif" font-size="10.00" fill="#000000">UnitDisplayStatusBarControl</text>
</a>
</g>
</g>
<!-- Node11&#45;&gt;Node26 -->
<g id="edge41" class="edge">
<title>Node11&#45;&gt;Node26</title>
<path fill="none" stroke="#9a32cd" stroke-dasharray="5,2" d="M243.0465,-97.8802C252.5766,-93.2311 263.5546,-88.2618 273.8711,-84.5 308.5123,-71.8686 317.6093,-68.5665 354.1318,-63.5 432.9118,-52.5713 524.2893,-52.4476 585.9944,-54.1846"/>
<polygon fill="#9a32cd" stroke="#9a32cd" points="241.4555,-94.7625 234.0771,-102.3659 244.5866,-101.0233 241.4555,-94.7625"/>
<text text-anchor="middle" x="409.9321" y="-65.5" font-family="Helvetica,sans-Serif" font-size="10.00" fill="#000000"> optionsModel</text>
</g>
<!-- Node12 -->
<g id="node11" class="node">
<title>Node12</title>
<polygon fill="#ffffff" stroke="#bfbfbf" points="0,-102.5 0,-120.5 103.2559,-120.5 103.2559,-102.5 0,-102.5"/>
<text text-anchor="middle" x="51.6279" y="-108.5" font-family="Helvetica,sans-Serif" font-size="10.00" fill="#000000">QAbstractListModel</text>
</g>
<!-- Node12&#45;&gt;Node11 -->
<g id="edge15" class="edge">
<title>Node12&#45;&gt;Node11</title>
<path fill="none" stroke="#191970" d="M113.5776,-111.5C135.1489,-111.5 158.7337,-111.5 177.9286,-111.5"/>
<polygon fill="#191970" stroke="#191970" points="113.5057,-108.0001 103.5057,-111.5 113.5057,-115.0001 113.5057,-108.0001"/>
</g>
<!-- Node13&#45;&gt;Node2 -->
<g id="edge17" class="edge">
<title>Node13&#45;&gt;Node2</title>
<path fill="none" stroke="#9a32cd" stroke-dasharray="5,2" d="M886.8484,-505.7684C878.9761,-541.0035 860.7282,-613.6668 841.0352,-629.5 799.384,-662.9876 734.2589,-662.2214 693.8131,-657.5925"/>
<polygon fill="#9a32cd" stroke="#9a32cd" points="890.3192,-506.279 889.0285,-495.7631 883.4797,-504.7887 890.3192,-506.279"/>
<text text-anchor="middle" x="795.73" y="-660.5" font-family="Helvetica,sans-Serif" font-size="10.00" fill="#000000"> gui</text>
</g>
<!-- Node14 -->
<g id="node13" class="node">
<title>Node14</title>
<polygon fill="#ffffff" stroke="#bfbfbf" points="616.9521,-515.5 616.9521,-533.5 697.9717,-533.5 697.9717,-515.5 616.9521,-515.5"/>
<text text-anchor="middle" x="657.4619" y="-521.5" font-family="Helvetica,sans-Serif" font-size="10.00" fill="#000000">QMainWindow</text>
</g>
<!-- Node14&#45;&gt;Node13 -->
<g id="edge18" class="edge">
<title>Node14&#45;&gt;Node13</title>
<path fill="none" stroke="#191970" d="M708.2587,-519.8386C745.2939,-515.9607 796.5648,-509.5967 841.0352,-500.5 847.6461,-499.1477 854.6661,-497.3861 861.288,-495.5711"/>
<polygon fill="#191970" stroke="#191970" points="707.7997,-516.3672 698.2078,-520.8667 708.5121,-523.3309 707.7997,-516.3672"/>
</g>
<!-- Node15 -->
<g id="node14" class="node">
<title>Node15</title>
<g id="a_node14"><a xlink:href="class_help_message_dialog.html" target="_top" xlink:title="&quot;Help message&quot; dialog box ">
<polygon fill="#ffffff" stroke="#000000" points="604.7158,-589.5 604.7158,-607.5 710.208,-607.5 710.208,-589.5 604.7158,-589.5"/>
<text text-anchor="middle" x="657.4619" y="-595.5" font-family="Helvetica,sans-Serif" font-size="10.00" fill="#000000">HelpMessageDialog</text>
</a>
</g>
</g>
<!-- Node15&#45;&gt;Node13 -->
<g id="edge19" class="edge">
<title>Node15&#45;&gt;Node13</title>
<path fill="none" stroke="#9a32cd" stroke-dasharray="5,2" d="M720.4731,-588.9842C769.523,-581.1621 830.9292,-570.2974 841.0352,-563.5 866.2808,-546.5193 881.6304,-512.0145 887.7976,-495.5872"/>
<polygon fill="#9a32cd" stroke="#9a32cd" points="719.8632,-585.537 710.5322,-590.5552 720.9559,-592.4512 719.8632,-585.537"/>
<text text-anchor="middle" x="795.73" y="-586.5" font-family="Helvetica,sans-Serif" font-size="10.00" fill="#000000"> helpMessageDialog</text>
</g>
<!-- Node16 -->
<g id="node15" class="node">
<title>Node16</title>
<polygon fill="#ffffff" stroke="#bfbfbf" points="383.8682,-580.5 383.8682,-598.5 435.9961,-598.5 435.9961,-580.5 383.8682,-580.5"/>
<text text-anchor="middle" x="409.9321" y="-586.5" font-family="Helvetica,sans-Serif" font-size="10.00" fill="#000000">QDialog</text>
</g>
<!-- Node16&#45;&gt;Node15 -->
<g id="edge20" class="edge">
<title>Node16&#45;&gt;Node15</title>
<path fill="none" stroke="#191970" d="M446.2166,-589.3328C477.5516,-589.3407 524.0316,-589.7163 564.499,-591.5 577.4345,-592.0701 591.3638,-592.9675 604.4024,-593.932"/>
<polygon fill="#191970" stroke="#191970" points="446.1977,-585.8327 436.2012,-589.3427 446.2047,-592.8327 446.1977,-585.8327"/>
</g>
<!-- Node17 -->
<g id="node16" class="node">
<title>Node17</title>
<g id="a_node16"><a xlink:href="class_g_u_i_util_1_1_clickable_progress_bar.html" target="_top" xlink:title="GUIUtil::ClickableProgressBar">
<polygon fill="#ffffff" stroke="#000000" points="582.499,-552.5 582.499,-570.5 732.4248,-570.5 732.4248,-552.5 582.499,-552.5"/>
<text text-anchor="middle" x="657.4619" y="-558.5" font-family="Helvetica,sans-Serif" font-size="10.00" fill="#000000">GUIUtil::ClickableProgressBar</text>
</a>
</g>
</g>
<!-- Node17&#45;&gt;Node13 -->
<g id="edge21" class="edge">
<title>Node17&#45;&gt;Node13</title>
<path fill="none" stroke="#9a32cd" stroke-dasharray="5,2" d="M742.626,-550.9847C774.424,-545.1218 810.2593,-536.1394 841.0352,-522.5 856.2698,-515.7482 871.4657,-503.857 881.0128,-495.5972"/>
<polygon fill="#9a32cd" stroke="#9a32cd" points="741.6944,-547.5949 732.4554,-552.7805 742.9117,-554.4883 741.6944,-547.5949"/>
<text text-anchor="middle" x="795.73" y="-551.5" font-family="Helvetica,sans-Serif" font-size="10.00" fill="#000000"> progressBar</text>
</g>
<!-- Node18 -->
<g id="node17" class="node">
<title>Node18</title>
<polygon fill="#ffffff" stroke="#bfbfbf" points="370.2549,-543.5 370.2549,-561.5 449.6094,-561.5 449.6094,-543.5 370.2549,-543.5"/>
<text text-anchor="middle" x="409.9321" y="-549.5" font-family="Helvetica,sans-Serif" font-size="10.00" fill="#000000">QProgressBar</text>
</g>
<!-- Node18&#45;&gt;Node17 -->
<g id="edge22" class="edge">
<title>Node18&#45;&gt;Node17</title>
<path fill="none" stroke="#191970" d="M459.7229,-554.3104C494.8692,-555.5882 542.5871,-557.3232 582.3418,-558.7687"/>
<polygon fill="#191970" stroke="#191970" points="459.8227,-550.8118 449.7021,-553.946 459.5683,-557.8071 459.8227,-550.8118"/>
</g>
<!-- Node19&#45;&gt;Node13 -->
<g id="edge25" class="edge">
<title>Node19&#45;&gt;Node13</title>
<path fill="none" stroke="#9a32cd" stroke-dasharray="5,2" d="M704.8579,-447.3316C742.4114,-447.5407 795.8874,-450.3822 841.0352,-462.5 853.29,-465.7892 866.173,-472.0673 875.7781,-477.3775"/>
<polygon fill="#9a32cd" stroke="#9a32cd" points="704.7063,-443.8315 694.7082,-447.3369 704.71,-450.8315 704.7063,-443.8315"/>
<text text-anchor="middle" x="795.73" y="-464.5" font-family="Helvetica,sans-Serif" font-size="10.00" fill="#000000"> rpcConsole</text>
</g>
<!-- Node20 -->
<g id="node19" class="node">
<title>Node20</title>
<polygon fill="#ffffff" stroke="#bfbfbf" points="382.4814,-384.5 382.4814,-402.5 437.3828,-402.5 437.3828,-384.5 382.4814,-384.5"/>
<text text-anchor="middle" x="409.9321" y="-390.5" font-family="Helvetica,sans-Serif" font-size="10.00" fill="#000000">QWidget</text>
</g>
<!-- Node20&#45;&gt;Node19 -->
<g id="edge26" class="edge">
<title>Node20&#45;&gt;Node19</title>
<path fill="none" stroke="#191970" d="M447.898,-401.9358C494.771,-412.3508 573.9687,-429.9482 620.4147,-440.2683"/>
<polygon fill="#191970" stroke="#191970" points="448.3669,-398.4547 437.8458,-399.7023 446.8485,-405.2881 448.3669,-398.4547"/>
</g>
<!-- Node24 -->
<g id="node23" class="node">
<title>Node24</title>
<g id="a_node23"><a xlink:href="class_modal_overlay.html" target="_top" xlink:title="Modal overlay to display information about the chain&#45;sync state. ">
<polygon fill="#ffffff" stroke="#000000" points="618.6172,-395.5 618.6172,-413.5 696.3066,-413.5 696.3066,-395.5 618.6172,-395.5"/>
<text text-anchor="middle" x="657.4619" y="-401.5" font-family="Helvetica,sans-Serif" font-size="10.00" fill="#000000">ModalOverlay</text>
</a>
</g>
</g>
<!-- Node20&#45;&gt;Node24 -->
<g id="edge36" class="edge">
<title>Node20&#45;&gt;Node24</title>
<path fill="none" stroke="#191970" d="M448.0391,-395.1934C494.2167,-397.2455 571.6173,-400.6851 618.2753,-402.7586"/>
<polygon fill="#191970" stroke="#191970" points="447.9913,-391.688 437.8458,-394.7405 447.6805,-398.6811 447.9913,-391.688"/>
</g>
<!-- Node21 -->
<g id="node20" class="node">
<title>Node21</title>
<g id="a_node20"><a xlink:href="class_r_p_c_timer_interface.html" target="_top" xlink:title="RPC timer &quot;driver&quot;. ">
<polygon fill="#ffffff" stroke="#000000" points="359.3271,-421.5 359.3271,-439.5 460.5371,-439.5 460.5371,-421.5 359.3271,-421.5"/>
<text text-anchor="middle" x="409.9321" y="-427.5" font-family="Helvetica,sans-Serif" font-size="10.00" fill="#000000">RPCTimerInterface</text>
</a>
</g>
</g>
<!-- Node21&#45;&gt;Node19 -->
<g id="edge27" class="edge">
<title>Node21&#45;&gt;Node19</title>
<path fill="none" stroke="#9a32cd" stroke-dasharray="5,2" d="M470.665,-434.9164C517.5763,-438.3277 580.9684,-442.9375 620.5212,-445.8137"/>
<polygon fill="#9a32cd" stroke="#9a32cd" points="470.8483,-431.4206 460.6208,-434.186 470.3406,-438.4021 470.8483,-431.4206"/>
<text text-anchor="middle" x="524.1157" y="-444.5" font-family="Helvetica,sans-Serif" font-size="10.00" fill="#000000"> rpcTimerInterface</text>
</g>
<!-- Node22 -->
<g id="node21" class="node">
<title>Node22</title>
<g id="a_node21"><a xlink:href="class_g_u_i_util_1_1_clickable_label.html" target="_top" xlink:title="GUIUtil::ClickableLabel">
<polygon fill="#ffffff" stroke="#000000" points="598.0532,-5.5 598.0532,-23.5 716.8706,-23.5 716.8706,-5.5 598.0532,-5.5"/>
<text text-anchor="middle" x="657.4619" y="-11.5" font-family="Helvetica,sans-Serif" font-size="10.00" fill="#000000">GUIUtil::ClickableLabel</text>
</a>
</g>
</g>
<!-- Node22&#45;&gt;Node13 -->
<g id="edge32" class="edge">
<title>Node22&#45;&gt;Node13</title>
<path fill="none" stroke="#9a32cd" stroke-dasharray="5,2" d="M705.829,-3.8549C747.4475,2.201 806.1412,2.8098 841.0352,-31.5 874.1126,-64.0237 888.3606,-415.7513 890.6096,-477.3272"/>
<polygon fill="#9a32cd" stroke="#9a32cd" points="705.2245,-.407 695.9055,-5.4475 706.3338,-7.3186 705.2245,-.407"/>
<text text-anchor="middle" x="795.73" y="-53.5" font-family="Helvetica,sans-Serif" font-size="10.00" fill="#000000"> connectionsControl</text>
<text text-anchor="middle" x="795.73" y="-43.5" font-family="Helvetica,sans-Serif" font-size="10.00" fill="#000000">labelProxyIcon</text>
<text text-anchor="middle" x="795.73" y="-33.5" font-family="Helvetica,sans-Serif" font-size="10.00" fill="#000000">labelBlocksIcon</text>
</g>
<!-- Node23 -->
<g id="node22" class="node">
<title>Node23</title>
<polygon fill="#ffffff" stroke="#bfbfbf" points="385.8091,-.5 385.8091,-18.5 434.0552,-18.5 434.0552,-.5 385.8091,-.5"/>
<text text-anchor="middle" x="409.9321" y="-6.5" font-family="Helvetica,sans-Serif" font-size="10.00" fill="#000000">QLabel</text>
</g>
<!-- Node23&#45;&gt;Node22 -->
<g id="edge33" class="edge">
<title>Node23&#45;&gt;Node22</title>
<path fill="none" stroke="#191970" d="M444.333,-10.1949C484.0042,-10.9962 549.9164,-12.3276 597.9552,-13.298"/>
<polygon fill="#191970" stroke="#191970" points="444.1857,-6.6913 434.117,-9.9885 444.0443,-13.6899 444.1857,-6.6913"/>
</g>
<!-- Node23&#45;&gt;Node26 -->
<g id="edge40" class="edge">
<title>Node23&#45;&gt;Node26</title>
<path fill="none" stroke="#191970" d="M444.1655,-16.1384C487.5197,-24.5455 562.4051,-39.067 610.9216,-48.4751"/>
<polygon fill="#191970" stroke="#191970" points="444.6005,-12.6576 434.117,-14.1898 443.2678,-19.5296 444.6005,-12.6576"/>
</g>
<!-- Node24&#45;&gt;Node13 -->
<g id="edge35" class="edge">
<title>Node24&#45;&gt;Node13</title>
<path fill="none" stroke="#9a32cd" stroke-dasharray="5,2" d="M707.0166,-404.6485C745.5427,-406.645 799.2772,-413.664 841.0352,-435.5 860.1347,-445.4875 876.3218,-465.459 884.732,-477.2285"/>
<polygon fill="#9a32cd" stroke="#9a32cd" points="706.7141,-401.1328 696.5762,-404.2104 706.4206,-408.1267 706.7141,-401.1328"/>
<text text-anchor="middle" x="795.73" y="-437.5" font-family="Helvetica,sans-Serif" font-size="10.00" fill="#000000"> modalOverlay</text>
</g>
<!-- Node25&#45;&gt;Node13 -->
<g id="edge37" class="edge">
<title>Node25&#45;&gt;Node13</title>
<path fill="none" stroke="#9a32cd" stroke-dasharray="5,2" d="M564.8476,-85.4493C608.5587,-90.0355 678.9134,-101.6065 732.4248,-130.5 791.2325,-162.2533 808.919,-175.8897 841.0352,-234.5 864.9854,-278.208 885.1479,-437.6749 889.8813,-477.4601"/>
<polygon fill="#9a32cd" stroke="#9a32cd" points="565.1637,-81.9636 554.871,-84.4756 564.4837,-88.9305 565.1637,-81.9636"/>
<text text-anchor="middle" x="657.4619" y="-132.5" font-family="Helvetica,sans-Serif" font-size="10.00" fill="#000000"> notificator</text>
</g>
<!-- Node26&#45;&gt;Node13 -->
<g id="edge39" class="edge">
<title>Node26&#45;&gt;Node13</title>
<path fill="none" stroke="#9a32cd" stroke-dasharray="5,2" d="M739.268,-63.2658C781.4059,-68.0102 826.873,-76.4995 841.0352,-91.5 868.4977,-120.5883 887.0946,-420.0801 890.4027,-477.1382"/>
<polygon fill="#9a32cd" stroke="#9a32cd" points="739.53,-59.774 729.2156,-62.1955 738.7888,-66.7346 739.53,-59.774"/>
<text text-anchor="middle" x="795.73" y="-93.5" font-family="Helvetica,sans-Serif" font-size="10.00" fill="#000000"> unitDisplayControl</text>
</g>
</g>
</svg>
