<?xml version="1.0" encoding="UTF-8" standalone="no"?>
<!DOCTYPE svg PUBLIC "-//W3C//DTD SVG 1.1//EN"
 "http://www.w3.org/Graphics/SVG/1.1/DTD/svg11.dtd">
<!-- Generated by graphviz version 2.40.1 (20161225.0304)
 -->
<!-- Title: BitcoinApplication::stopThread Pages: 1 -->
<svg width="381pt" height="107pt"
 viewBox="0.00 0.00 380.66 107.00" xmlns="http://www.w3.org/2000/svg" xmlns:xlink="http://www.w3.org/1999/xlink">
<g id="graph0" class="graph" transform="scale(1 1) rotate(0) translate(4 103)">
<title>BitcoinApplication::stopThread</title>
<polygon fill="#ffffff" stroke="transparent" points="-4,4 -4,-103 376.6563,-103 376.6563,4 -4,4"/>
<!-- Node671 -->
<g id="node1" class="node">
<title>Node671</title>
<polygon fill="#bfbfbf" stroke="#000000" points="0,-46.5 0,-74.5 94.9355,-74.5 94.9355,-46.5 0,-46.5"/>
<text text-anchor="start" x="8" y="-62.5" font-family="Helvetica,sans-Serif" font-size="10.00" fill="#000000">BitcoinApplication</text>
<text text-anchor="middle" x="47.4678" y="-52.5" font-family="Helvetica,sans-Serif" font-size="10.00" fill="#000000">::stopThread</text>
</g>
<!-- Node672 -->
<g id="node2" class="node">
<title>Node672</title>
<g id="a_node2"><a xlink:href="class_bitcoin_application.html#a0dddc6994b495d16ab8b8640e5c9686b" target="_top" xlink:title="BitcoinApplication\l::~BitcoinApplication">
<polygon fill="#ffffff" stroke="#000000" points="130.9355,-70.5 130.9355,-98.5 237.2676,-98.5 237.2676,-70.5 130.9355,-70.5"/>
<text text-anchor="start" x="138.9355" y="-86.5" font-family="Helvetica,sans-Serif" font-size="10.00" fill="#000000">BitcoinApplication</text>
<text text-anchor="middle" x="184.1016" y="-76.5" font-family="Helvetica,sans-Serif" font-size="10.00" fill="#000000">::~BitcoinApplication</text>
</a>
</g>
</g>
<!-- Node671&#45;&gt;Node672 -->
<g id="edge1" class="edge">
<title>Node671&#45;&gt;Node672</title>
<path fill="none" stroke="#191970" d="M105.3081,-70.6598C113.6648,-72.1276 122.2358,-73.6331 130.5047,-75.0856"/>
<polygon fill="#191970" stroke="#191970" points="105.7104,-67.1769 95.2556,-68.894 104.4993,-74.0714 105.7104,-67.1769"/>
</g>
<!-- Node673 -->
<g id="node3" class="node">
<title>Node673</title>
<g id="a_node3"><a xlink:href="class_bitcoin_application.html#a61afce9356e452c53ad4c83f5ca19df8" target="_top" xlink:title="BitcoinApplication\l::startThread">
<polygon fill="#ffffff" stroke="#000000" points="136.6338,-23.5 136.6338,-51.5 231.5693,-51.5 231.5693,-23.5 136.6338,-23.5"/>
<text text-anchor="start" x="144.6338" y="-39.5" font-family="Helvetica,sans-Serif" font-size="10.00" fill="#000000">BitcoinApplication</text>
<text text-anchor="middle" x="184.1016" y="-29.5" font-family="Helvetica,sans-Serif" font-size="10.00" fill="#000000">::startThread</text>
</a>
</g>
</g>
<!-- Node671&#45;&gt;Node673 -->
<g id="edge2" class="edge">
<title>Node671&#45;&gt;Node673</title>
<path fill="none" stroke="#191970" d="M105.1554,-50.7893C115.6248,-49.0269 126.4354,-47.2071 136.5714,-45.5009"/>
<polygon fill="#191970" stroke="#191970" points="104.5359,-47.3442 95.2556,-52.4557 105.6979,-54.2471 104.5359,-47.3442"/>
</g>
<!-- Node674 -->
<g id="node4" class="node">
<title>Node674</title>
<g id="a_node4"><a xlink:href="class_bitcoin_application.html#ade19c44b87b00b6b19b433caf4c22ba6" target="_top" xlink:title="Request core initialization. ">
<polygon fill="#ffffff" stroke="#000000" points="275.4941,-47.5 275.4941,-75.5 370.4297,-75.5 370.4297,-47.5 275.4941,-47.5"/>
<text text-anchor="start" x="283.4941" y="-63.5" font-family="Helvetica,sans-Serif" font-size="10.00" fill="#000000">BitcoinApplication</text>
<text text-anchor="middle" x="322.9619" y="-53.5" font-family="Helvetica,sans-Serif" font-size="10.00" fill="#000000">::requestInitialize</text>
</a>
</g>
</g>
<!-- Node673&#45;&gt;Node674 -->
<g id="edge3" class="edge">
<title>Node673&#45;&gt;Node674</title>
<path fill="none" stroke="#191970" d="M241.8887,-47.4877C252.937,-49.3972 264.3903,-51.3767 275.086,-53.2253"/>
<polygon fill="#191970" stroke="#191970" points="242.3394,-44.0138 231.8894,-45.7594 241.1472,-50.9115 242.3394,-44.0138"/>
</g>
<!-- Node675 -->
<g id="node5" class="node">
<title>Node675</title>
<g id="a_node5"><a xlink:href="class_bitcoin_application.html#a37c560d4c04d14a6da151b82caf8888f" target="_top" xlink:title="Request core shutdown. ">
<polygon fill="#ffffff" stroke="#000000" points="273.2676,-.5 273.2676,-28.5 372.6563,-28.5 372.6563,-.5 273.2676,-.5"/>
<text text-anchor="start" x="281.2676" y="-16.5" font-family="Helvetica,sans-Serif" font-size="10.00" fill="#000000">BitcoinApplication</text>
<text text-anchor="middle" x="322.9619" y="-6.5" font-family="Helvetica,sans-Serif" font-size="10.00" fill="#000000">::requestShutdown</text>
</a>
</g>
</g>
<!-- Node673&#45;&gt;Node675 -->
<g id="edge4" class="edge">
<title>Node673&#45;&gt;Node675</title>
<path fill="none" stroke="#191970" d="M241.7557,-27.9505C252.1967,-26.2211 263.0038,-24.4311 273.1948,-22.7431"/>
<polygon fill="#191970" stroke="#191970" points="241.183,-24.4976 231.8894,-29.5847 242.327,-31.4035 241.183,-24.4976"/>
</g>
</g>
</svg>
