<?xml version="1.0" encoding="UTF-8" standalone="no"?>
<!DOCTYPE svg PUBLIC "-//W3C//DTD SVG 1.1//EN"
 "http://www.w3.org/Graphics/SVG/1.1/DTD/svg11.dtd">
<!-- Generated by graphviz version 2.40.1 (20161225.0304)
 -->
<!-- Title: CNetMessage::readHeader Pages: 1 -->
<svg width="334pt" height="27pt"
 viewBox="0.00 0.00 334.19 27.00" xmlns="http://www.w3.org/2000/svg" xmlns:xlink="http://www.w3.org/1999/xlink">
<g id="graph0" class="graph" transform="scale(1 1) rotate(0) translate(4 23)">
<title>CNetMessage::readHeader</title>
<polygon fill="#ffffff" stroke="transparent" points="-4,4 -4,-23 330.1865,-23 330.1865,4 -4,4"/>
<!-- Node36 -->
<g id="node1" class="node">
<title>Node36</title>
<polygon fill="#bfbfbf" stroke="#000000" points="0,-.5 0,-18.5 137.7285,-18.5 137.7285,-.5 0,-.5"/>
<text text-anchor="middle" x="68.8643" y="-6.5" font-family="Helvetica,sans-Serif" font-size="10.00" fill="#000000">CNetMessage::readHeader</text>
</g>
<!-- Node37 -->
<g id="node2" class="node">
<title>Node37</title>
<g id="a_node2"><a xlink:href="glibc__compat_8cpp.html#a0f46826ab0466591e136db24394923cf" target="_top" xlink:title="memcpy">
<polygon fill="#ffffff" stroke="#000000" points="173.7285,-.5 173.7285,-18.5 227.5117,-18.5 227.5117,-.5 173.7285,-.5"/>
<text text-anchor="middle" x="200.6201" y="-6.5" font-family="Helvetica,sans-Serif" font-size="10.00" fill="#000000">memcpy</text>
</a>
</g>
</g>
<!-- Node36&#45;&gt;Node37 -->
<g id="edge1" class="edge">
<title>Node36&#45;&gt;Node37</title>
<path fill="none" stroke="#191970" d="M137.8292,-9.5C146.6608,-9.5 155.4182,-9.5 163.4647,-9.5"/>
<polygon fill="#191970" stroke="#191970" points="163.5797,-13.0001 173.5797,-9.5 163.5796,-6.0001 163.5797,-13.0001"/>
</g>
<!-- Node38 -->
<g id="node3" class="node">
<title>Node38</title>
<g id="a_node3"><a xlink:href="glibc__compat_8cpp.html#a9778d49e9029dd75bc53ecbbf9f5e9a1" target="_top" xlink:title="memmove">
<polygon fill="#ffffff" stroke="#000000" points="263.5117,-.5 263.5117,-18.5 326.1865,-18.5 326.1865,-.5 263.5117,-.5"/>
<text text-anchor="middle" x="294.8491" y="-6.5" font-family="Helvetica,sans-Serif" font-size="10.00" fill="#000000">memmove</text>
</a>
</g>
</g>
<!-- Node37&#45;&gt;Node38 -->
<g id="edge2" class="edge">
<title>Node37&#45;&gt;Node38</title>
<path fill="none" stroke="#191970" d="M227.6224,-9.5C235.5097,-9.5 244.3228,-9.5 252.9044,-9.5"/>
<polygon fill="#191970" stroke="#191970" points="253.1794,-13.0001 263.1793,-9.5 253.1793,-6.0001 253.1794,-13.0001"/>
</g>
</g>
</svg>
