<?xml version="1.0" encoding="UTF-8" standalone="no"?>
<!DOCTYPE svg PUBLIC "-//W3C//DTD SVG 1.1//EN"
 "http://www.w3.org/Graphics/SVG/1.1/DTD/svg11.dtd">
<!-- Generated by graphviz version 2.40.1 (20161225.0304)
 -->
<!-- Title: RecentRequestsTableModel::getAmountTitle Pages: 1 -->
<svg width="686pt" height="58pt"
 viewBox="0.00 0.00 685.85 58.00" xmlns="http://www.w3.org/2000/svg" xmlns:xlink="http://www.w3.org/1999/xlink">
<g id="graph0" class="graph" transform="scale(1 1) rotate(0) translate(4 54)">
<title>RecentRequestsTableModel::getAmountTitle</title>
<polygon fill="#ffffff" stroke="transparent" points="-4,4 -4,-54 681.8496,-54 681.8496,4 -4,4"/>
<!-- Node62 -->
<g id="node1" class="node">
<title>Node62</title>
<polygon fill="#bfbfbf" stroke="#000000" points="0,-21.5 0,-49.5 141.0732,-49.5 141.0732,-21.5 0,-21.5"/>
<text text-anchor="start" x="8" y="-37.5" font-family="Helvetica,sans-Serif" font-size="10.00" fill="#000000">RecentRequestsTableModel</text>
<text text-anchor="middle" x="70.5366" y="-27.5" font-family="Helvetica,sans-Serif" font-size="10.00" fill="#000000">::getAmountTitle</text>
</g>
<!-- Node63 -->
<g id="node2" class="node">
<title>Node63</title>
<g id="a_node2"><a xlink:href="class_recent_requests_table_model.html#aea45f8031e5181beb8c6adeaee2a3ace" target="_top" xlink:title="RecentRequestsTableModel\l::RecentRequestsTableModel">
<polygon fill="#ffffff" stroke="#000000" points="531.2197,-21.5 531.2197,-49.5 677.8496,-49.5 677.8496,-21.5 531.2197,-21.5"/>
<text text-anchor="start" x="539.2197" y="-37.5" font-family="Helvetica,sans-Serif" font-size="10.00" fill="#000000">RecentRequestsTableModel</text>
<text text-anchor="middle" x="604.5347" y="-27.5" font-family="Helvetica,sans-Serif" font-size="10.00" fill="#000000">::RecentRequestsTableModel</text>
</a>
</g>
</g>
<!-- Node62&#45;&gt;Node63 -->
<g id="edge1" class="edge">
<title>Node62&#45;&gt;Node63</title>
<path fill="none" stroke="#191970" d="M151.4351,-37.1778C160.0895,-37.3098 168.7634,-37.422 177.0732,-37.5 318.4655,-38.8271 353.8272,-38.7933 495.2197,-37.5 506.7979,-37.3941 519.0651,-37.2251 531.0355,-37.0291"/>
<polygon fill="#191970" stroke="#191970" points="151.3627,-33.6763 141.3076,-37.0146 151.2499,-40.6754 151.3627,-33.6763"/>
</g>
<!-- Node64 -->
<g id="node3" class="node">
<title>Node64</title>
<g id="a_node3"><a xlink:href="class_recent_requests_table_model.html#a8bc224f31142bd2da1c2729010ee84a3" target="_top" xlink:title="Updates the column title to &quot;Amount (DisplayUnit)&quot; and emits headerDataChanged() signal for table hea...">
<polygon fill="#ffffff" stroke="#000000" points="177.0732,-.5 177.0732,-28.5 318.1465,-28.5 318.1465,-.5 177.0732,-.5"/>
<text text-anchor="start" x="185.0732" y="-16.5" font-family="Helvetica,sans-Serif" font-size="10.00" fill="#000000">RecentRequestsTableModel</text>
<text text-anchor="middle" x="247.6099" y="-6.5" font-family="Helvetica,sans-Serif" font-size="10.00" fill="#000000">::updateAmountColumnTitle</text>
</a>
</g>
</g>
<!-- Node62&#45;&gt;Node64 -->
<g id="edge2" class="edge">
<title>Node62&#45;&gt;Node64</title>
<path fill="none" stroke="#191970" d="M151.2842,-25.9237C159.8579,-24.9069 168.5298,-23.8785 176.9748,-22.877"/>
<polygon fill="#191970" stroke="#191970" points="150.8022,-22.4563 141.2841,-27.1097 151.6267,-29.4076 150.8022,-22.4563"/>
</g>
<!-- Node65 -->
<g id="node4" class="node">
<title>Node65</title>
<g id="a_node4"><a xlink:href="class_recent_requests_table_model.html#a8c4fe82f628df4e3a46809514ba9fe03" target="_top" xlink:title="RecentRequestsTableModel\l::updateDisplayUnit">
<polygon fill="#ffffff" stroke="#000000" points="354.1465,-.5 354.1465,-28.5 495.2197,-28.5 495.2197,-.5 354.1465,-.5"/>
<text text-anchor="start" x="362.1465" y="-16.5" font-family="Helvetica,sans-Serif" font-size="10.00" fill="#000000">RecentRequestsTableModel</text>
<text text-anchor="middle" x="424.6831" y="-6.5" font-family="Helvetica,sans-Serif" font-size="10.00" fill="#000000">::updateDisplayUnit</text>
</a>
</g>
</g>
<!-- Node64&#45;&gt;Node65 -->
<g id="edge3" class="edge">
<title>Node64&#45;&gt;Node65</title>
<path fill="none" stroke="#191970" d="M328.3575,-14.5C336.9311,-14.5 345.603,-14.5 354.0481,-14.5"/>
<polygon fill="#191970" stroke="#191970" points="328.3573,-11.0001 318.3573,-14.5 328.3573,-18.0001 328.3573,-11.0001"/>
</g>
<!-- Node65&#45;&gt;Node63 -->
<g id="edge4" class="edge">
<title>Node65&#45;&gt;Node63</title>
<path fill="none" stroke="#191970" d="M505.3048,-23.9136C513.9324,-24.921 522.6756,-25.9419 531.2119,-26.9386"/>
<polygon fill="#191970" stroke="#191970" points="505.5875,-20.4229 495.249,-22.7395 504.7756,-27.3757 505.5875,-20.4229"/>
</g>
</g>
</svg>
