<?xml version="1.0" encoding="UTF-8" standalone="no"?>
<!DOCTYPE svg PUBLIC "-//W3C//DTD SVG 1.1//EN"
 "http://www.w3.org/Graphics/SVG/1.1/DTD/svg11.dtd">
<!-- Generated by graphviz version 2.40.1 (20161225.0304)
 -->
<!-- Title: WalletModel::validateAddress Pages: 1 -->
<svg width="536pt" height="82pt"
 viewBox="0.00 0.00 535.74 82.00" xmlns="http://www.w3.org/2000/svg" xmlns:xlink="http://www.w3.org/1999/xlink">
<g id="graph0" class="graph" transform="scale(1 1) rotate(0) translate(4 78)">
<title>WalletModel::validateAddress</title>
<polygon fill="#ffffff" stroke="transparent" points="-4,4 -4,-78 531.7422,-78 531.7422,4 -4,4"/>
<!-- Node434 -->
<g id="node1" class="node">
<title>Node434</title>
<polygon fill="#bfbfbf" stroke="#000000" points="0,-27.5 0,-45.5 147.3623,-45.5 147.3623,-27.5 0,-27.5"/>
<text text-anchor="middle" x="73.6812" y="-33.5" font-family="Helvetica,sans-Serif" font-size="10.00" fill="#000000">WalletModel::validateAddress</text>
</g>
<!-- Node435 -->
<g id="node2" class="node">
<title>Node435</title>
<g id="a_node2"><a xlink:href="key__io_8cpp.html#a32169f8eb6ebcce6412b675f9d23d878" target="_top" xlink:title="IsValidDestinationString">
<polygon fill="#ffffff" stroke="#000000" points="183.3623,-27.5 183.3623,-45.5 304.792,-45.5 304.792,-27.5 183.3623,-27.5"/>
<text text-anchor="middle" x="244.0771" y="-33.5" font-family="Helvetica,sans-Serif" font-size="10.00" fill="#000000">IsValidDestinationString</text>
</a>
</g>
</g>
<!-- Node434&#45;&gt;Node435 -->
<g id="edge1" class="edge">
<title>Node434&#45;&gt;Node435</title>
<path fill="none" stroke="#191970" d="M147.4283,-36.5C155.9329,-36.5 164.5926,-36.5 173.0601,-36.5"/>
<polygon fill="#191970" stroke="#191970" points="173.2698,-40.0001 183.2697,-36.5 173.2697,-33.0001 173.2698,-40.0001"/>
</g>
<!-- Node436 -->
<g id="node3" class="node">
<title>Node436</title>
<g id="a_node3"><a xlink:href="standard_8cpp.html#adb3a21e4afe9c672720b182ddc7cad7c" target="_top" xlink:title="Check whether a CTxDestination is a CNoDestination. ">
<polygon fill="#ffffff" stroke="#000000" points="343.3872,-55.5 343.3872,-73.5 438.6938,-73.5 438.6938,-55.5 343.3872,-55.5"/>
<text text-anchor="middle" x="391.0405" y="-61.5" font-family="Helvetica,sans-Serif" font-size="10.00" fill="#000000">IsValidDestination</text>
</a>
</g>
</g>
<!-- Node435&#45;&gt;Node436 -->
<g id="edge2" class="edge">
<title>Node435&#45;&gt;Node436</title>
<path fill="none" stroke="#191970" d="M291.3862,-45.5135C304.823,-48.0735 319.6029,-50.8894 333.5713,-53.5508"/>
<polygon fill="#191970" stroke="#191970" points="333.0899,-57.0219 343.5683,-55.4554 334.4001,-50.1456 333.0899,-57.0219"/>
</g>
<!-- Node437 -->
<g id="node4" class="node">
<title>Node437</title>
<g id="a_node4"><a xlink:href="key__io_8cpp.html#a8a781e21ad4ecccd9c97c7d890ef7d6f" target="_top" xlink:title="DecodeDestination">
<polygon fill="#ffffff" stroke="#000000" points="340.792,-.5 340.792,-18.5 441.2891,-18.5 441.2891,-.5 340.792,-.5"/>
<text text-anchor="middle" x="391.0405" y="-6.5" font-family="Helvetica,sans-Serif" font-size="10.00" fill="#000000">DecodeDestination</text>
</a>
</g>
</g>
<!-- Node435&#45;&gt;Node437 -->
<g id="edge3" class="edge">
<title>Node435&#45;&gt;Node437</title>
<path fill="none" stroke="#191970" d="M293.4227,-27.4343C305.7269,-25.1738 319.0468,-22.7266 331.775,-20.3882"/>
<polygon fill="#191970" stroke="#191970" points="332.6223,-23.7912 341.8253,-18.5418 331.3574,-16.9064 332.6223,-23.7912"/>
</g>
<!-- Node437&#45;&gt;Node437 -->
<g id="edge4" class="edge">
<title>Node437&#45;&gt;Node437</title>
<path fill="none" stroke="#191970" d="M374.6503,-18.5134C365.5966,-27.322 371.0601,-37 391.0405,-37 403.8405,-37 410.6827,-33.0281 411.5671,-27.8575"/>
<polygon fill="#191970" stroke="#191970" points="414.6791,-26.2408 407.4308,-18.5134 408.2782,-29.0743 414.6791,-26.2408"/>
</g>
<!-- Node438 -->
<g id="node5" class="node">
<title>Node438</title>
<g id="a_node5"><a xlink:href="chainparams_8cpp.html#ace5c5b706d71a324a417dd2db394fd4a" target="_top" xlink:title="Return the currently selected parameters. ">
<polygon fill="#ffffff" stroke="#000000" points="477.2891,-.5 477.2891,-18.5 527.7422,-18.5 527.7422,-.5 477.2891,-.5"/>
<text text-anchor="middle" x="502.5156" y="-6.5" font-family="Helvetica,sans-Serif" font-size="10.00" fill="#000000">Params</text>
</a>
</g>
</g>
<!-- Node437&#45;&gt;Node438 -->
<g id="edge5" class="edge">
<title>Node437&#45;&gt;Node438</title>
<path fill="none" stroke="#191970" d="M441.5595,-9.5C450.1313,-9.5 458.8691,-9.5 466.9525,-9.5"/>
<polygon fill="#191970" stroke="#191970" points="467.1331,-13.0001 477.133,-9.5 467.133,-6.0001 467.1331,-13.0001"/>
</g>
</g>
</svg>
