<?xml version="1.0" encoding="UTF-8" standalone="no"?>
<!DOCTYPE svg PUBLIC "-//W3C//DTD SVG 1.1//EN"
 "http://www.w3.org/Graphics/SVG/1.1/DTD/svg11.dtd">
<!-- Generated by graphviz version 2.40.1 (20161225.0304)
 -->
<!-- Title: RPCConsole::peerSelected Pages: 1 -->
<svg width="632pt" height="212pt"
 viewBox="0.00 0.00 631.69 212.00" xmlns="http://www.w3.org/2000/svg" xmlns:xlink="http://www.w3.org/1999/xlink">
<g id="graph0" class="graph" transform="scale(1 1) rotate(0) translate(4 208)">
<title>RPCConsole::peerSelected</title>
<polygon fill="#ffffff" stroke="transparent" points="-4,4 -4,-208 627.6943,-208 627.6943,4 -4,4"/>
<!-- Node194 -->
<g id="node1" class="node">
<title>Node194</title>
<polygon fill="#bfbfbf" stroke="#000000" points="0,-129.5 0,-147.5 138.29,-147.5 138.29,-129.5 0,-129.5"/>
<text text-anchor="middle" x="69.145" y="-135.5" font-family="Helvetica,sans-Serif" font-size="10.00" fill="#000000">RPCConsole::peerSelected</text>
</g>
<!-- Node195 -->
<g id="node2" class="node">
<title>Node195</title>
<g id="a_node2"><a xlink:href="class_client_model.html#a643fc112ce94f50ac7187ecdf3c75360" target="_top" xlink:title="ClientModel::getPeerTable\lModel">
<polygon fill="#ffffff" stroke="#000000" points="187.354,-166.5 187.354,-194.5 320.644,-194.5 320.644,-166.5 187.354,-166.5"/>
<text text-anchor="start" x="195.354" y="-182.5" font-family="Helvetica,sans-Serif" font-size="10.00" fill="#000000">ClientModel::getPeerTable</text>
<text text-anchor="middle" x="253.999" y="-172.5" font-family="Helvetica,sans-Serif" font-size="10.00" fill="#000000">Model</text>
</a>
</g>
</g>
<!-- Node194&#45;&gt;Node195 -->
<g id="edge1" class="edge">
<title>Node194&#45;&gt;Node195</title>
<path fill="none" stroke="#191970" d="M108.8008,-147.5101C130.2477,-152.3829 157.3954,-158.551 182.3983,-164.2319"/>
<polygon fill="#191970" stroke="#191970" points="181.6965,-167.6615 192.2235,-166.4642 183.2475,-160.8355 181.6965,-167.6615"/>
</g>
<!-- Node196 -->
<g id="node3" class="node">
<title>Node196</title>
<g id="a_node3"><a xlink:href="class_peer_table_model.html#a98084d3299642316c71c5de3d36b9859" target="_top" xlink:title="PeerTableModel::getNodeStats">
<polygon fill="#ffffff" stroke="#000000" points="176.79,-129.5 176.79,-147.5 331.208,-147.5 331.208,-129.5 176.79,-129.5"/>
<text text-anchor="middle" x="253.999" y="-135.5" font-family="Helvetica,sans-Serif" font-size="10.00" fill="#000000">PeerTableModel::getNodeStats</text>
</a>
</g>
</g>
<!-- Node194&#45;&gt;Node196 -->
<g id="edge2" class="edge">
<title>Node194&#45;&gt;Node196</title>
<path fill="none" stroke="#191970" d="M138.5038,-138.5C147.6072,-138.5 157.0295,-138.5 166.3859,-138.5"/>
<polygon fill="#191970" stroke="#191970" points="166.4946,-142.0001 176.4945,-138.5 166.4945,-135.0001 166.4946,-142.0001"/>
</g>
<!-- Node197 -->
<g id="node4" class="node">
<title>Node197</title>
<g id="a_node4"><a xlink:href="class_r_p_c_console.html#a0bd7e2be4a07bcf4f8b20eb1881dacbb" target="_top" xlink:title="show detailed information on ui about selected node ">
<polygon fill="#ffffff" stroke="#000000" points="174.29,-92.5 174.29,-110.5 333.708,-110.5 333.708,-92.5 174.29,-92.5"/>
<text text-anchor="middle" x="253.999" y="-98.5" font-family="Helvetica,sans-Serif" font-size="10.00" fill="#000000">RPCConsole::updateNodeDetail</text>
</a>
</g>
</g>
<!-- Node194&#45;&gt;Node197 -->
<g id="edge3" class="edge">
<title>Node194&#45;&gt;Node197</title>
<path fill="none" stroke="#191970" d="M114.3654,-129.4488C139.8607,-124.3457 171.9067,-117.9314 198.8663,-112.5353"/>
<polygon fill="#191970" stroke="#191970" points="199.8069,-115.9165 208.9255,-110.5218 198.433,-109.0526 199.8069,-115.9165"/>
</g>
<!-- Node198 -->
<g id="node5" class="node">
<title>Node198</title>
<g id="a_node5"><a xlink:href="namespace_g_u_i_util.html#ac0c0a23fbbfefc827220eebcacc3ee63" target="_top" xlink:title="GUIUtil::formatServicesStr">
<polygon fill="#ffffff" stroke="#000000" points="370.3721,-185.5 370.3721,-203.5 503.6133,-203.5 503.6133,-185.5 370.3721,-185.5"/>
<text text-anchor="middle" x="436.9927" y="-191.5" font-family="Helvetica,sans-Serif" font-size="10.00" fill="#000000">GUIUtil::formatServicesStr</text>
</a>
</g>
</g>
<!-- Node197&#45;&gt;Node198 -->
<g id="edge4" class="edge">
<title>Node197&#45;&gt;Node198</title>
<path fill="none" stroke="#191970" d="M314.5018,-110.6171C321.3287,-113.1543 327.9054,-116.386 333.708,-120.5 357.8452,-137.6129 345.8075,-159.0581 369.708,-176.5 372.0889,-178.2375 374.6264,-179.8073 377.2691,-181.2256"/>
<polygon fill="#191970" stroke="#191970" points="376.0351,-184.5099 386.5847,-185.4876 378.9474,-178.1445 376.0351,-184.5099"/>
</g>
<!-- Node199 -->
<g id="node6" class="node">
<title>Node199</title>
<g id="a_node6"><a xlink:href="namespace_g_u_i_util.html#aaf51686c47c77ad81c51d115d150e867" target="_top" xlink:title="GUIUtil::formatDurationStr">
<polygon fill="#ffffff" stroke="#000000" points="370.6455,-148.5 370.6455,-166.5 503.3398,-166.5 503.3398,-148.5 370.6455,-148.5"/>
<text text-anchor="middle" x="436.9927" y="-154.5" font-family="Helvetica,sans-Serif" font-size="10.00" fill="#000000">GUIUtil::formatDurationStr</text>
</a>
</g>
</g>
<!-- Node197&#45;&gt;Node199 -->
<g id="edge5" class="edge">
<title>Node197&#45;&gt;Node199</title>
<path fill="none" stroke="#191970" d="M300.5353,-110.5136C311.5716,-113.2187 323.1891,-116.5429 333.708,-120.5 350.6411,-126.87 352.8637,-132.8986 369.708,-139.5 375.4709,-141.7585 381.6193,-143.8335 387.7686,-145.7081"/>
<polygon fill="#191970" stroke="#191970" points="386.7985,-149.0709 397.3772,-148.4863 388.743,-142.3463 386.7985,-149.0709"/>
</g>
<!-- Node200 -->
<g id="node7" class="node">
<title>Node200</title>
<g id="a_node7"><a xlink:href="utiltime_8cpp.html#a1c4021a78be4eeffa05732694ab4bab0" target="_top" xlink:title="GetSystemTimeInSeconds">
<polygon fill="#ffffff" stroke="#000000" points="369.708,-111.5 369.708,-129.5 504.2773,-129.5 504.2773,-111.5 369.708,-111.5"/>
<text text-anchor="middle" x="436.9927" y="-117.5" font-family="Helvetica,sans-Serif" font-size="10.00" fill="#000000">GetSystemTimeInSeconds</text>
</a>
</g>
</g>
<!-- Node197&#45;&gt;Node200 -->
<g id="edge6" class="edge">
<title>Node197&#45;&gt;Node200</title>
<path fill="none" stroke="#191970" d="M333.7304,-109.7784C342.3144,-110.6697 351.0389,-111.5755 359.5949,-112.4639"/>
<polygon fill="#191970" stroke="#191970" points="359.2349,-115.9452 369.5429,-113.4968 359.9579,-108.9827 359.2349,-115.9452"/>
</g>
<!-- Node202 -->
<g id="node9" class="node">
<title>Node202</title>
<g id="a_node9"><a xlink:href="namespace_g_u_i_util.html#a3d10a887d17d7ddafdf1b4428feed494" target="_top" xlink:title="GUIUtil::formatBytes">
<polygon fill="#ffffff" stroke="#000000" points="383.4287,-74.5 383.4287,-92.5 490.5566,-92.5 490.5566,-74.5 383.4287,-74.5"/>
<text text-anchor="middle" x="436.9927" y="-80.5" font-family="Helvetica,sans-Serif" font-size="10.00" fill="#000000">GUIUtil::formatBytes</text>
</a>
</g>
</g>
<!-- Node197&#45;&gt;Node202 -->
<g id="edge8" class="edge">
<title>Node197&#45;&gt;Node202</title>
<path fill="none" stroke="#191970" d="M333.7304,-93.6573C346.9541,-92.3566 360.5111,-91.023 373.2719,-89.7678"/>
<polygon fill="#191970" stroke="#191970" points="373.7041,-93.2423 383.3134,-88.7801 373.0188,-86.2759 373.7041,-93.2423"/>
</g>
<!-- Node203 -->
<g id="node10" class="node">
<title>Node203</title>
<g id="a_node10"><a xlink:href="namespace_g_u_i_util.html#a432bcee36e242a968c9149fadfba44fa" target="_top" xlink:title="GUIUtil::formatPingTime">
<polygon fill="#ffffff" stroke="#000000" points="374.9985,-37.5 374.9985,-55.5 498.9868,-55.5 498.9868,-37.5 374.9985,-37.5"/>
<text text-anchor="middle" x="436.9927" y="-43.5" font-family="Helvetica,sans-Serif" font-size="10.00" fill="#000000">GUIUtil::formatPingTime</text>
</a>
</g>
</g>
<!-- Node197&#45;&gt;Node203 -->
<g id="edge9" class="edge">
<title>Node197&#45;&gt;Node203</title>
<path fill="none" stroke="#191970" d="M282.4661,-92.4132C305.8485,-85.0049 339.8577,-74.3565 369.708,-65.5 377.7328,-63.1191 386.3167,-60.6421 394.5762,-58.2937"/>
<polygon fill="#191970" stroke="#191970" points="395.7598,-61.5963 404.4306,-55.508 393.8556,-54.8603 395.7598,-61.5963"/>
</g>
<!-- Node204 -->
<g id="node11" class="node">
<title>Node204</title>
<g id="a_node11"><a xlink:href="namespace_g_u_i_util.html#abcdfa2d127580ddd43eab822f7aca267" target="_top" xlink:title="GUIUtil::formatTimeOffset">
<polygon fill="#ffffff" stroke="#000000" points="371.7563,-.5 371.7563,-18.5 502.229,-18.5 502.229,-.5 371.7563,-.5"/>
<text text-anchor="middle" x="436.9927" y="-6.5" font-family="Helvetica,sans-Serif" font-size="10.00" fill="#000000">GUIUtil::formatTimeOffset</text>
</a>
</g>
</g>
<!-- Node197&#45;&gt;Node204 -->
<g id="edge10" class="edge">
<title>Node197&#45;&gt;Node204</title>
<path fill="none" stroke="#191970" d="M265.8427,-92.3876C286.0956,-77.1934 329.1341,-46.5716 369.708,-28.5 375.4565,-25.9396 381.6361,-23.6371 387.8366,-21.5929"/>
<polygon fill="#191970" stroke="#191970" points="389.0183,-24.8911 397.5383,-18.5933 386.9506,-18.2034 389.0183,-24.8911"/>
</g>
<!-- Node201 -->
<g id="node8" class="node">
<title>Node201</title>
<g id="a_node8"><a xlink:href="utiltime_8cpp.html#a0c5a06b50cd805b1923552114494c029" target="_top" xlink:title="GetTimeMicros">
<polygon fill="#ffffff" stroke="#000000" points="540.2773,-111.5 540.2773,-129.5 623.6943,-129.5 623.6943,-111.5 540.2773,-111.5"/>
<text text-anchor="middle" x="581.9858" y="-117.5" font-family="Helvetica,sans-Serif" font-size="10.00" fill="#000000">GetTimeMicros</text>
</a>
</g>
</g>
<!-- Node200&#45;&gt;Node201 -->
<g id="edge7" class="edge">
<title>Node200&#45;&gt;Node201</title>
<path fill="none" stroke="#191970" d="M504.3956,-120.5C512.9233,-120.5 521.5455,-120.5 529.787,-120.5"/>
<polygon fill="#191970" stroke="#191970" points="529.987,-124.0001 539.987,-120.5 529.9869,-117.0001 529.987,-124.0001"/>
</g>
</g>
</svg>
