<?xml version="1.0" encoding="UTF-8" standalone="no"?>
<!DOCTYPE svg PUBLIC "-//W3C//DTD SVG 1.1//EN"
 "http://www.w3.org/Graphics/SVG/1.1/DTD/svg11.dtd">
<!-- Generated by graphviz version 2.40.1 (20161225.0304)
 -->
<!-- Title: org.bitcoin.NativeSecp256k1.sign Pages: 1 -->
<svg width="531pt" height="84pt"
 viewBox="0.00 0.00 531.02 84.00" xmlns="http://www.w3.org/2000/svg" xmlns:xlink="http://www.w3.org/1999/xlink">
<g id="graph0" class="graph" transform="scale(1 1) rotate(0) translate(4 80)">
<title>org.bitcoin.NativeSecp256k1.sign</title>
<polygon fill="#ffffff" stroke="transparent" points="-4,4 -4,-80 527.0225,-80 527.0225,4 -4,4"/>
<!-- Node125 -->
<g id="node1" class="node">
<title>Node125</title>
<polygon fill="#bfbfbf" stroke="#000000" points="0,-28.5 0,-46.5 164.4229,-46.5 164.4229,-28.5 0,-28.5"/>
<text text-anchor="middle" x="82.2114" y="-34.5" font-family="Helvetica,sans-Serif" font-size="10.00" fill="#000000">org.bitcoin.NativeSecp256k1.sign</text>
</g>
<!-- Node126 -->
<g id="node2" class="node">
<title>Node126</title>
<g id="a_node2"><a xlink:href="classorg_1_1bitcoin_1_1_native_secp256k1_test.html#a3fe4cf8c27e1e766d1ab122792dd098d" target="_top" xlink:title="This tests sign() for a valid secretkey. ">
<polygon fill="#ffffff" stroke="#000000" points="200.4229,-47.5 200.4229,-75.5 343.7227,-75.5 343.7227,-47.5 200.4229,-47.5"/>
<text text-anchor="start" x="208.4229" y="-63.5" font-family="Helvetica,sans-Serif" font-size="10.00" fill="#000000">org.bitcoin.NativeSecp256k1</text>
<text text-anchor="middle" x="272.0728" y="-53.5" font-family="Helvetica,sans-Serif" font-size="10.00" fill="#000000">Test.testSignPos</text>
</a>
</g>
</g>
<!-- Node125&#45;&gt;Node126 -->
<g id="edge1" class="edge">
<title>Node125&#45;&gt;Node126</title>
<path fill="none" stroke="#191970" d="M163.5688,-47.7842C175.7224,-49.3205 188.1792,-50.8952 200.1199,-52.4046"/>
<polygon fill="#191970" stroke="#191970" points="163.809,-44.2868 153.4489,-46.505 162.931,-51.2316 163.809,-44.2868"/>
</g>
<!-- Node128 -->
<g id="node4" class="node">
<title>Node128</title>
<g id="a_node4"><a xlink:href="classorg_1_1bitcoin_1_1_native_secp256k1_test.html#aac79908587b72b7425b7c72c648ddcaf" target="_top" xlink:title="This tests sign() for a invalid secretkey. ">
<polygon fill="#ffffff" stroke="#000000" points="200.4229,-.5 200.4229,-28.5 343.7227,-28.5 343.7227,-.5 200.4229,-.5"/>
<text text-anchor="start" x="208.4229" y="-16.5" font-family="Helvetica,sans-Serif" font-size="10.00" fill="#000000">org.bitcoin.NativeSecp256k1</text>
<text text-anchor="middle" x="272.0728" y="-6.5" font-family="Helvetica,sans-Serif" font-size="10.00" fill="#000000">Test.testSignNeg</text>
</a>
</g>
</g>
<!-- Node125&#45;&gt;Node128 -->
<g id="edge3" class="edge">
<title>Node125&#45;&gt;Node128</title>
<path fill="none" stroke="#191970" d="M166.8748,-27.2438C178.0269,-25.8928 189.3703,-24.5187 200.2795,-23.1971"/>
<polygon fill="#191970" stroke="#191970" points="166.2112,-23.7985 156.7047,-28.4758 167.0531,-30.7477 166.2112,-23.7985"/>
</g>
<!-- Node127 -->
<g id="node3" class="node">
<title>Node127</title>
<g id="a_node3"><a xlink:href="classorg_1_1bitcoin_1_1_native_secp256k1_test.html#a1b8253d7aa2a0c18848c6afd070075ac" target="_top" xlink:title="org.bitcoin.NativeSecp256k1\lTest.main">
<polygon fill="#ffffff" stroke="#000000" points="379.7227,-23.5 379.7227,-51.5 523.0225,-51.5 523.0225,-23.5 379.7227,-23.5"/>
<text text-anchor="start" x="387.7227" y="-39.5" font-family="Helvetica,sans-Serif" font-size="10.00" fill="#000000">org.bitcoin.NativeSecp256k1</text>
<text text-anchor="middle" x="451.3726" y="-29.5" font-family="Helvetica,sans-Serif" font-size="10.00" fill="#000000">Test.main</text>
</a>
</g>
</g>
<!-- Node126&#45;&gt;Node127 -->
<g id="edge2" class="edge">
<title>Node126&#45;&gt;Node127</title>
<path fill="none" stroke="#191970" d="M353.9131,-50.5453C362.4382,-49.4042 371.0581,-48.2504 379.4615,-47.1256"/>
<polygon fill="#191970" stroke="#191970" points="353.415,-47.0807 343.9677,-51.8766 354.3437,-54.0188 353.415,-47.0807"/>
</g>
<!-- Node128&#45;&gt;Node127 -->
<g id="edge4" class="edge">
<title>Node128&#45;&gt;Node127</title>
<path fill="none" stroke="#191970" d="M353.9131,-24.9982C362.4382,-26.0918 371.0581,-27.1975 379.4615,-28.2755"/>
<polygon fill="#191970" stroke="#191970" points="354.3318,-21.5233 343.9677,-23.7225 353.4411,-28.4664 354.3318,-21.5233"/>
</g>
</g>
</svg>
