<?xml version="1.0" encoding="UTF-8" standalone="no"?>
<!DOCTYPE svg PUBLIC "-//W3C//DTD SVG 1.1//EN"
 "http://www.w3.org/Graphics/SVG/1.1/DTD/svg11.dtd">
<!-- Generated by graphviz version 2.40.1 (20161225.0304)
 -->
<!-- Title: RPCConsole::unbanSelectedNode Pages: 1 -->
<svg width="449pt" height="222pt"
 viewBox="0.00 0.00 449.32 222.00" xmlns="http://www.w3.org/2000/svg" xmlns:xlink="http://www.w3.org/1999/xlink">
<g id="graph0" class="graph" transform="scale(1 1) rotate(0) translate(4 218)">
<title>RPCConsole::unbanSelectedNode</title>
<polygon fill="#ffffff" stroke="transparent" points="-4,4 -4,-218 445.3184,-218 445.3184,4 -4,4"/>
<!-- Node482 -->
<g id="node1" class="node">
<title>Node482</title>
<polygon fill="#bfbfbf" stroke="#000000" points="0,-102.5 0,-120.5 169.9893,-120.5 169.9893,-102.5 0,-102.5"/>
<text text-anchor="middle" x="84.9946" y="-108.5" font-family="Helvetica,sans-Serif" font-size="10.00" fill="#000000">RPCConsole::unbanSelectedNode</text>
</g>
<!-- Node483 -->
<g id="node2" class="node">
<title>Node483</title>
<g id="a_node2"><a xlink:href="namespace_g_u_i_util.html#a76327913a06a858ddd4a4449706a8bb6" target="_top" xlink:title="Return a field of the currently selected entry as a QString. ">
<polygon fill="#ffffff" stroke="#000000" points="214.8979,-195.5 214.8979,-213.5 327.0405,-213.5 327.0405,-195.5 214.8979,-195.5"/>
<text text-anchor="middle" x="270.9692" y="-201.5" font-family="Helvetica,sans-Serif" font-size="10.00" fill="#000000">GUIUtil::getEntryData</text>
</a>
</g>
</g>
<!-- Node482&#45;&gt;Node483 -->
<g id="edge1" class="edge">
<title>Node482&#45;&gt;Node483</title>
<path fill="none" stroke="#191970" d="M97.0607,-120.6207C118.1237,-136.155 163.4249,-167.8703 205.9893,-186.5 210.9491,-188.6708 216.2376,-190.6448 221.5744,-192.4221"/>
<polygon fill="#191970" stroke="#191970" points="220.5834,-195.7793 231.1718,-195.4091 222.6636,-189.0955 220.5834,-195.7793"/>
</g>
<!-- Node484 -->
<g id="node3" class="node">
<title>Node484</title>
<g id="a_node3"><a xlink:href="netbase_8cpp.html#a4f8635acde45a6be14713608d40935f8" target="_top" xlink:title="LookupSubNet">
<polygon fill="#ffffff" stroke="#000000" points="229.8882,-158.5 229.8882,-176.5 312.0503,-176.5 312.0503,-158.5 229.8882,-158.5"/>
<text text-anchor="middle" x="270.9692" y="-164.5" font-family="Helvetica,sans-Serif" font-size="10.00" fill="#000000">LookupSubNet</text>
</a>
</g>
</g>
<!-- Node482&#45;&gt;Node484 -->
<g id="edge2" class="edge">
<title>Node482&#45;&gt;Node484</title>
<path fill="none" stroke="#191970" d="M112.7855,-120.524C137.2565,-128.3991 173.8939,-140.0177 205.9893,-149.5 213.0128,-151.575 220.4842,-153.7109 227.7653,-155.7539"/>
<polygon fill="#191970" stroke="#191970" points="226.9436,-159.1582 237.516,-158.4679 228.8207,-152.4145 226.9436,-159.1582"/>
</g>
<!-- Node487 -->
<g id="node6" class="node">
<title>Node487</title>
<g id="a_node6"><a xlink:href="class_c_sub_net.html#abe05f70043af710ac075a4dd77757394" target="_top" xlink:title="CSubNet::IsValid">
<polygon fill="#ffffff" stroke="#000000" points="225.2642,-121.5 225.2642,-139.5 316.6743,-139.5 316.6743,-121.5 225.2642,-121.5"/>
<text text-anchor="middle" x="270.9692" y="-127.5" font-family="Helvetica,sans-Serif" font-size="10.00" fill="#000000">CSubNet::IsValid</text>
</a>
</g>
</g>
<!-- Node482&#45;&gt;Node487 -->
<g id="edge5" class="edge">
<title>Node482&#45;&gt;Node487</title>
<path fill="none" stroke="#191970" d="M170.0901,-120.1937C185.3288,-121.7506 200.8522,-123.3365 215.0075,-124.7827"/>
<polygon fill="#191970" stroke="#191970" points="214.7453,-128.274 225.0493,-125.8086 215.4568,-121.3103 214.7453,-128.274"/>
</g>
<!-- Node488 -->
<g id="node7" class="node">
<title>Node488</title>
<g id="a_node7"><a xlink:href="classinterfaces_1_1_node.html#a80ebcf4a091a73010e36f2a5dcd84a54" target="_top" xlink:title="Unban node. ">
<polygon fill="#ffffff" stroke="#000000" points="209.8784,-84.5 209.8784,-102.5 332.0601,-102.5 332.0601,-84.5 209.8784,-84.5"/>
<text text-anchor="middle" x="270.9692" y="-90.5" font-family="Helvetica,sans-Serif" font-size="10.00" fill="#000000">interfaces::Node::unban</text>
</a>
</g>
</g>
<!-- Node482&#45;&gt;Node488 -->
<g id="edge6" class="edge">
<title>Node482&#45;&gt;Node488</title>
<path fill="none" stroke="#191970" d="M170.0901,-103.2638C180.0281,-102.302 190.0871,-101.3284 199.8088,-100.3874"/>
<polygon fill="#191970" stroke="#191970" points="200.1822,-103.8677 209.7985,-99.4206 199.5078,-96.9003 200.1822,-103.8677"/>
</g>
<!-- Node489 -->
<g id="node8" class="node">
<title>Node489</title>
<g id="a_node8"><a xlink:href="class_client_model.html#ad02b8bf216a08845e393f9bac8c4ed42" target="_top" xlink:title="ClientModel::getBanTable\lModel">
<polygon fill="#ffffff" stroke="#000000" points="205.9893,-37.5 205.9893,-65.5 335.9492,-65.5 335.9492,-37.5 205.9893,-37.5"/>
<text text-anchor="start" x="213.9893" y="-53.5" font-family="Helvetica,sans-Serif" font-size="10.00" fill="#000000">ClientModel::getBanTable</text>
<text text-anchor="middle" x="270.9692" y="-43.5" font-family="Helvetica,sans-Serif" font-size="10.00" fill="#000000">Model</text>
</a>
</g>
</g>
<!-- Node482&#45;&gt;Node489 -->
<g id="edge7" class="edge">
<title>Node482&#45;&gt;Node489</title>
<path fill="none" stroke="#191970" d="M113.2402,-102.3873C140.8928,-93.4659 183.7098,-79.652 217.7588,-68.667"/>
<polygon fill="#191970" stroke="#191970" points="219.1204,-71.9054 227.5627,-65.504 216.9711,-65.2436 219.1204,-71.9054"/>
</g>
<!-- Node490 -->
<g id="node9" class="node">
<title>Node490</title>
<g id="a_node9"><a xlink:href="class_ban_table_model.html#a15107160d33bbf2635b9460cb07f9661" target="_top" xlink:title="BanTableModel::refresh">
<polygon fill="#ffffff" stroke="#000000" points="210.1616,-.5 210.1616,-18.5 331.7769,-18.5 331.7769,-.5 210.1616,-.5"/>
<text text-anchor="middle" x="270.9692" y="-6.5" font-family="Helvetica,sans-Serif" font-size="10.00" fill="#000000">BanTableModel::refresh</text>
</a>
</g>
</g>
<!-- Node482&#45;&gt;Node490 -->
<g id="edge8" class="edge">
<title>Node482&#45;&gt;Node490</title>
<path fill="none" stroke="#191970" d="M95.6143,-102.461C115.8345,-85.6669 161.7987,-49.4588 205.9893,-28.5 211.2958,-25.9832 217.0065,-23.725 222.7613,-21.7204"/>
<polygon fill="#191970" stroke="#191970" points="223.9927,-25.0006 232.4245,-18.5853 221.8324,-18.3422 223.9927,-25.0006"/>
</g>
<!-- Node485 -->
<g id="node4" class="node">
<title>Node485</title>
<g id="a_node4"><a xlink:href="netbase_8cpp.html#a3cdc8ba9f8d72752ff5cdd1e7407cdef" target="_top" xlink:title="LookupHost">
<polygon fill="#ffffff" stroke="#000000" points="371.9492,-176.5 371.9492,-194.5 441.3184,-194.5 441.3184,-176.5 371.9492,-176.5"/>
<text text-anchor="middle" x="406.6338" y="-182.5" font-family="Helvetica,sans-Serif" font-size="10.00" fill="#000000">LookupHost</text>
</a>
</g>
</g>
<!-- Node484&#45;&gt;Node485 -->
<g id="edge3" class="edge">
<title>Node484&#45;&gt;Node485</title>
<path fill="none" stroke="#191970" d="M312.4102,-172.9984C328.007,-175.0678 345.8091,-177.4298 361.7087,-179.5393"/>
<polygon fill="#191970" stroke="#191970" points="361.4665,-183.0378 371.84,-180.8835 362.3872,-176.0986 361.4665,-183.0378"/>
</g>
<!-- Node486 -->
<g id="node5" class="node">
<title>Node486</title>
<g id="a_node5"><a xlink:href="utilstrencodings_8cpp.html#a880a215d9e931432b095084c756a49bb" target="_top" xlink:title="Convert string to signed 32&#45;bit integer with strict parse error feedback. ">
<polygon fill="#ffffff" stroke="#000000" points="374.4517,-139.5 374.4517,-157.5 438.8159,-157.5 438.8159,-139.5 374.4517,-139.5"/>
<text text-anchor="middle" x="406.6338" y="-145.5" font-family="Helvetica,sans-Serif" font-size="10.00" fill="#000000">ParseInt32</text>
</a>
</g>
</g>
<!-- Node484&#45;&gt;Node486 -->
<g id="edge4" class="edge">
<title>Node484&#45;&gt;Node486</title>
<path fill="none" stroke="#191970" d="M312.4102,-161.6961C328.8008,-159.4006 347.627,-156.764 364.1211,-154.454"/>
<polygon fill="#191970" stroke="#191970" points="364.6292,-157.917 374.0471,-153.0638 363.6582,-150.9847 364.6292,-157.917"/>
</g>
</g>
</svg>
