<?xml version="1.0" encoding="UTF-8" standalone="no"?>
<!DOCTYPE svg PUBLIC "-//W3C//DTD SVG 1.1//EN"
 "http://www.w3.org/Graphics/SVG/1.1/DTD/svg11.dtd">
<!-- Generated by graphviz version 2.40.1 (20161225.0304)
 -->
<!-- Title: BerkeleyBatch::Close Pages: 1 -->
<svg width="741pt" height="131pt"
 viewBox="0.00 0.00 741.13 131.00" xmlns="http://www.w3.org/2000/svg" xmlns:xlink="http://www.w3.org/1999/xlink">
<g id="graph0" class="graph" transform="scale(1 1) rotate(0) translate(4 127)">
<title>BerkeleyBatch::Close</title>
<polygon fill="#ffffff" stroke="transparent" points="-4,4 -4,-127 737.1309,-127 737.1309,4 -4,4"/>
<!-- Node22 -->
<g id="node1" class="node">
<title>Node22</title>
<polygon fill="#bfbfbf" stroke="#000000" points="0,-75.5 0,-93.5 111.6006,-93.5 111.6006,-75.5 0,-75.5"/>
<text text-anchor="middle" x="55.8003" y="-81.5" font-family="Helvetica,sans-Serif" font-size="10.00" fill="#000000">BerkeleyBatch::Close</text>
</g>
<!-- Node23 -->
<g id="node2" class="node">
<title>Node23</title>
<g id="a_node2"><a xlink:href="class_berkeley_batch.html#ae55ce30e18f549a6dbc844c0c87de9f7" target="_top" xlink:title="BerkeleyBatch::Flush">
<polygon fill="#ffffff" stroke="#000000" points="147.6006,-75.5 147.6006,-93.5 258.0879,-93.5 258.0879,-75.5 147.6006,-75.5"/>
<text text-anchor="middle" x="202.8442" y="-81.5" font-family="Helvetica,sans-Serif" font-size="10.00" fill="#000000">BerkeleyBatch::Flush</text>
</a>
</g>
</g>
<!-- Node22&#45;&gt;Node23 -->
<g id="edge1" class="edge">
<title>Node22&#45;&gt;Node23</title>
<path fill="none" stroke="#191970" d="M111.8108,-84.5C120.1197,-84.5 128.7454,-84.5 137.229,-84.5"/>
<polygon fill="#191970" stroke="#191970" points="137.4759,-88.0001 147.4758,-84.5 137.4758,-81.0001 137.4759,-88.0001"/>
</g>
<!-- Node24 -->
<g id="node3" class="node">
<title>Node24</title>
<g id="a_node3"><a xlink:href="class_args_manager.html#adb5d644d273b3a259f792affcdca8283" target="_top" xlink:title="Return string argument or default value. ">
<polygon fill="#ffffff" stroke="#000000" points="294.0879,-75.5 294.0879,-93.5 407.3535,-93.5 407.3535,-75.5 294.0879,-75.5"/>
<text text-anchor="middle" x="350.7207" y="-81.5" font-family="Helvetica,sans-Serif" font-size="10.00" fill="#000000">ArgsManager::GetArg</text>
</a>
</g>
</g>
<!-- Node23&#45;&gt;Node24 -->
<g id="edge2" class="edge">
<title>Node23&#45;&gt;Node24</title>
<path fill="none" stroke="#191970" d="M258.3287,-84.5C266.6022,-84.5 275.2051,-84.5 283.6858,-84.5"/>
<polygon fill="#191970" stroke="#191970" points="283.9394,-88.0001 293.9393,-84.5 283.9393,-81.0001 283.9394,-88.0001"/>
</g>
<!-- Node25 -->
<g id="node4" class="node">
<title>Node25</title>
<g id="a_node4"><a xlink:href="class_args_manager.html#a113a1b8c5471d2fff0108058be8b86af" target="_top" xlink:title="Return true if the argument was originally passed as a negated option, i.e. ">
<polygon fill="#ffffff" stroke="#000000" points="443.3535,-97.5 443.3535,-115.5 586.0869,-115.5 586.0869,-97.5 443.3535,-97.5"/>
<text text-anchor="middle" x="514.7202" y="-103.5" font-family="Helvetica,sans-Serif" font-size="10.00" fill="#000000">ArgsManager::IsArgNegated</text>
</a>
</g>
</g>
<!-- Node24&#45;&gt;Node25 -->
<g id="edge3" class="edge">
<title>Node24&#45;&gt;Node25</title>
<path fill="none" stroke="#191970" d="M407.6195,-92.1328C417.2641,-93.4266 427.4213,-94.7891 437.4826,-96.1388"/>
<polygon fill="#191970" stroke="#191970" points="437.1128,-99.6205 447.4894,-97.4812 438.0436,-92.6826 437.1128,-99.6205"/>
</g>
<!-- Node27 -->
<g id="node6" class="node">
<title>Node27</title>
<g id="a_node6"><a xlink:href="class_args_manager_helper.html#aa4f8f77dc468b29cffe50513c78a87cd" target="_top" xlink:title="ArgsManagerHelper::\lGetArg">
<polygon fill="#ffffff" stroke="#000000" points="459.1982,-49.5 459.1982,-77.5 570.2422,-77.5 570.2422,-49.5 459.1982,-49.5"/>
<text text-anchor="start" x="467.1982" y="-65.5" font-family="Helvetica,sans-Serif" font-size="10.00" fill="#000000">ArgsManagerHelper::</text>
<text text-anchor="middle" x="514.7202" y="-55.5" font-family="Helvetica,sans-Serif" font-size="10.00" fill="#000000">GetArg</text>
</a>
</g>
</g>
<!-- Node24&#45;&gt;Node27 -->
<g id="edge5" class="edge">
<title>Node24&#45;&gt;Node27</title>
<path fill="none" stroke="#191970" d="M407.6195,-77.2142C420.8894,-75.515 435.13,-73.6915 448.7558,-71.9467"/>
<polygon fill="#191970" stroke="#191970" points="449.555,-75.373 459.0294,-70.6312 448.6658,-68.4297 449.555,-75.373"/>
</g>
<!-- Node26 -->
<g id="node5" class="node">
<title>Node26</title>
<g id="a_node5"><a xlink:href="class_args_manager_helper.html#a863ddbcfbd113cf88cf622a0a4e32c1d" target="_top" xlink:title="Convert regular argument into the network&#45;specific setting. ">
<polygon fill="#ffffff" stroke="#000000" points="622.0869,-94.5 622.0869,-122.5 733.1309,-122.5 733.1309,-94.5 622.0869,-94.5"/>
<text text-anchor="start" x="630.0869" y="-110.5" font-family="Helvetica,sans-Serif" font-size="10.00" fill="#000000">ArgsManagerHelper::</text>
<text text-anchor="middle" x="677.6089" y="-100.5" font-family="Helvetica,sans-Serif" font-size="10.00" fill="#000000">NetworkArg</text>
</a>
</g>
</g>
<!-- Node25&#45;&gt;Node26 -->
<g id="edge4" class="edge">
<title>Node25&#45;&gt;Node26</title>
<path fill="none" stroke="#191970" d="M586.1656,-107.3772C594.6736,-107.4817 603.3294,-107.588 611.754,-107.6914"/>
<polygon fill="#191970" stroke="#191970" points="611.8478,-111.1927 621.8901,-107.8159 611.9338,-104.1933 611.8478,-111.1927"/>
</g>
<!-- Node27&#45;&gt;Node26 -->
<g id="edge7" class="edge">
<title>Node27&#45;&gt;Node26</title>
<path fill="none" stroke="#191970" d="M565.8123,-77.6148C582.0349,-82.0965 600.1324,-87.0962 616.9605,-91.7451"/>
<polygon fill="#191970" stroke="#191970" points="616.1271,-95.146 626.6981,-94.4353 617.9912,-88.3987 616.1271,-95.146"/>
</g>
<!-- Node28 -->
<g id="node7" class="node">
<title>Node28</title>
<g id="a_node7"><a xlink:href="class_args_manager_helper.html#a1804a95992b4e10d04f0b92c53032b29" target="_top" xlink:title="Return true/false if an argument is set in a map, and also return the first (or last) of the possibly...">
<polygon fill="#ffffff" stroke="#000000" points="622.0869,-47.5 622.0869,-75.5 733.1309,-75.5 733.1309,-47.5 622.0869,-47.5"/>
<text text-anchor="start" x="630.0869" y="-63.5" font-family="Helvetica,sans-Serif" font-size="10.00" fill="#000000">ArgsManagerHelper::</text>
<text text-anchor="middle" x="677.6089" y="-53.5" font-family="Helvetica,sans-Serif" font-size="10.00" fill="#000000">GetArgHelper</text>
</a>
</g>
</g>
<!-- Node27&#45;&gt;Node28 -->
<g id="edge6" class="edge">
<title>Node27&#45;&gt;Node28</title>
<path fill="none" stroke="#191970" d="M570.3217,-62.8173C583.6148,-62.6541 597.9326,-62.4783 611.6428,-62.31"/>
<polygon fill="#191970" stroke="#191970" points="612.0254,-65.8056 621.9816,-62.183 611.9394,-58.8061 612.0254,-65.8056"/>
</g>
<!-- Node29 -->
<g id="node8" class="node">
<title>Node29</title>
<g id="a_node8"><a xlink:href="class_args_manager_helper.html#a43f3488403e4f0433ade323e48008359" target="_top" xlink:title="Determine whether to use config settings in the default section, See also comments around ArgsManager...">
<polygon fill="#ffffff" stroke="#000000" points="622.0869,-.5 622.0869,-28.5 733.1309,-28.5 733.1309,-.5 622.0869,-.5"/>
<text text-anchor="start" x="630.0869" y="-16.5" font-family="Helvetica,sans-Serif" font-size="10.00" fill="#000000">ArgsManagerHelper::</text>
<text text-anchor="middle" x="677.6089" y="-6.5" font-family="Helvetica,sans-Serif" font-size="10.00" fill="#000000">UseDefaultSection</text>
</a>
</g>
</g>
<!-- Node27&#45;&gt;Node29 -->
<g id="edge8" class="edge">
<title>Node27&#45;&gt;Node29</title>
<path fill="none" stroke="#191970" d="M561.3976,-49.4586C580.0557,-43.8459 601.7107,-37.3316 621.2356,-31.4581"/>
<polygon fill="#191970" stroke="#191970" points="622.3569,-34.7759 630.9247,-28.5435 620.3403,-28.0726 622.3569,-34.7759"/>
</g>
</g>
</svg>
