<?xml version="1.0" encoding="UTF-8" standalone="no"?>
<!DOCTYPE svg PUBLIC "-//W3C//DTD SVG 1.1//EN"
 "http://www.w3.org/Graphics/SVG/1.1/DTD/svg11.dtd">
<!-- Generated by graphviz version 2.40.1 (20161225.0304)
 -->
<!-- Title: KeccakCore::encrypt Pages: 1 -->
<svg width="1551pt" height="425pt"
 viewBox="0.00 0.00 1550.92 425.26" xmlns="http://www.w3.org/2000/svg" xmlns:xlink="http://www.w3.org/1999/xlink">
<g id="graph0" class="graph" transform="scale(1 1) rotate(0) translate(4 421.2638)">
<title>KeccakCore::encrypt</title>
<polygon fill="#ffffff" stroke="transparent" points="-4,4 -4,-421.2638 1546.916,-421.2638 1546.916,4 -4,4"/>
<!-- Node25 -->
<g id="node1" class="node">
<title>Node25</title>
<polygon fill="#bfbfbf" stroke="#000000" points="0,-260.5 0,-278.5 108.8174,-278.5 108.8174,-260.5 0,-260.5"/>
<text text-anchor="middle" x="54.4087" y="-266.5" font-family="Helvetica,sans-Serif" font-size="10.00" fill="#000000">KeccakCore::encrypt</text>
</g>
<!-- Node26 -->
<g id="node2" class="node">
<title>Node26</title>
<g id="a_node2"><a xlink:href="class_keccak_core.html#aba3225c7a4ceff3580236a900b72a1c3" target="_top" xlink:title="Transform the state with the KECCAK&#45;p sponge function with b = 1600. ">
<polygon fill="#ffffff" stroke="#000000" points="1331.5322,-350.5 1331.5322,-368.5 1444.2412,-368.5 1444.2412,-350.5 1331.5322,-350.5"/>
<text text-anchor="middle" x="1387.8867" y="-356.5" font-family="Helvetica,sans-Serif" font-size="10.00" fill="#000000">KeccakCore::keccakp</text>
</a>
</g>
</g>
<!-- Node25&#45;&gt;Node26 -->
<g id="edge1" class="edge">
<title>Node25&#45;&gt;Node26</title>
<path fill="none" stroke="#191970" d="M61.5052,-278.6955C87.2176,-310.8774 179.3621,-416.5 281.1719,-416.5 281.1719,-416.5 281.1719,-416.5 1088.4082,-416.5 1180.8498,-416.5 1205.7602,-419.5554 1295.5322,-397.5 1318.4046,-391.8807 1343.008,-381.525 1361.065,-373.0419"/>
<polygon fill="#191970" stroke="#191970" points="1362.8775,-376.054 1370.3706,-368.5637 1359.842,-369.7463 1362.8775,-376.054"/>
</g>
<!-- Node27 -->
<g id="node3" class="node">
<title>Node27</title>
<g id="a_node3"><a xlink:href="rpcwallet_8cpp.html#a8235b0bea61ab4fa73e579239cd08a00" target="_top" xlink:title="for">
<polygon fill="#ffffff" stroke="#000000" points="144.8174,-121.5 144.8174,-139.5 173.8174,-139.5 173.8174,-121.5 144.8174,-121.5"/>
<text text-anchor="middle" x="159.3174" y="-127.5" font-family="Helvetica,sans-Serif" font-size="10.00" fill="#000000">for</text>
</a>
</g>
</g>
<!-- Node25&#45;&gt;Node27 -->
<g id="edge2" class="edge">
<title>Node25&#45;&gt;Node27</title>
<path fill="none" stroke="#191970" d="M61.292,-260.3798C78.4775,-237.6098 123.502,-177.9541 146.0506,-148.078"/>
<polygon fill="#191970" stroke="#191970" points="149.0405,-149.9263 152.2711,-139.836 143.4533,-145.7094 149.0405,-149.9263"/>
</g>
<!-- Node28 -->
<g id="node4" class="node">
<title>Node28</title>
<g id="a_node4"><a xlink:href="class_c_merkle_tx.html#a5e7ef444cc0c2b875fba9c729ce83b10" target="_top" xlink:title="CMerkleTx::IsCoinBase">
<polygon fill="#ffffff" stroke="#000000" points="220.6572,-158.5 220.6572,-176.5 341.6865,-176.5 341.6865,-158.5 220.6572,-158.5"/>
<text text-anchor="middle" x="281.1719" y="-164.5" font-family="Helvetica,sans-Serif" font-size="10.00" fill="#000000">CMerkleTx::IsCoinBase</text>
</a>
</g>
</g>
<!-- Node27&#45;&gt;Node28 -->
<g id="edge3" class="edge">
<title>Node27&#45;&gt;Node28</title>
<path fill="none" stroke="#191970" d="M174.1893,-136.6009C184.1673,-140.5685 197.6599,-145.6928 209.8174,-149.5 217.0231,-151.7565 224.7049,-153.9305 232.2588,-155.9398"/>
<polygon fill="#191970" stroke="#191970" points="231.5066,-159.3604 242.0648,-158.4795 233.2617,-152.584 231.5066,-159.3604"/>
</g>
<!-- Node29 -->
<g id="node5" class="node">
<title>Node29</title>
<g id="a_node5"><a xlink:href="validation_8cpp.html#a7e254ea66e047c3d3ed0bedc5997fc4f" target="_top" xlink:title="Transaction validation functions. ">
<polygon fill="#ffffff" stroke="#000000" points="242.6079,-121.5 242.6079,-139.5 319.7358,-139.5 319.7358,-121.5 242.6079,-121.5"/>
<text text-anchor="middle" x="281.1719" y="-127.5" font-family="Helvetica,sans-Serif" font-size="10.00" fill="#000000">CheckFinalTx</text>
</a>
</g>
</g>
<!-- Node27&#45;&gt;Node29 -->
<g id="edge4" class="edge">
<title>Node27&#45;&gt;Node29</title>
<path fill="none" stroke="#191970" d="M174.2591,-130.5C188.7867,-130.5 211.6537,-130.5 232.5176,-130.5"/>
<polygon fill="#191970" stroke="#191970" points="232.5536,-134.0001 242.5536,-130.5 232.5536,-127.0001 232.5536,-134.0001"/>
</g>
<!-- Node31 -->
<g id="node7" class="node">
<title>Node31</title>
<g id="a_node7"><a xlink:href="class_c_merkle_tx.html#a026579f00672e5b907faa77a1baa33c8" target="_top" xlink:title="Return depth of transaction in blockchain: &lt;0 : conflicts with a transaction this deep in the blockch...">
<polygon fill="#ffffff" stroke="#000000" points="209.8174,-74.5 209.8174,-102.5 352.5264,-102.5 352.5264,-74.5 209.8174,-74.5"/>
<text text-anchor="start" x="217.8174" y="-90.5" font-family="Helvetica,sans-Serif" font-size="10.00" fill="#000000">CMerkleTx::GetDepthInMain</text>
<text text-anchor="middle" x="281.1719" y="-80.5" font-family="Helvetica,sans-Serif" font-size="10.00" fill="#000000">Chain</text>
</a>
</g>
</g>
<!-- Node27&#45;&gt;Node31 -->
<g id="edge6" class="edge">
<title>Node27&#45;&gt;Node31</title>
<path fill="none" stroke="#191970" d="M173.8783,-125.232C183.9537,-121.606 197.6802,-116.7038 209.8174,-112.5 216.1236,-110.3158 222.753,-108.048 229.3258,-105.817"/>
<polygon fill="#191970" stroke="#191970" points="230.5194,-109.1081 238.8708,-102.5885 228.2765,-102.4771 230.5194,-109.1081"/>
</g>
<!-- Node36 -->
<g id="node12" class="node">
<title>Node36</title>
<g id="a_node12"><a xlink:href="standard_8cpp.html#a951f7e601746ae076afdf3169ecca2fc" target="_top" xlink:title="Parse a standard scriptPubKey for the destination address. ">
<polygon fill="#ffffff" stroke="#000000" points="232.5981,-195.5 232.5981,-213.5 329.7456,-213.5 329.7456,-195.5 232.5981,-195.5"/>
<text text-anchor="middle" x="281.1719" y="-201.5" font-family="Helvetica,sans-Serif" font-size="10.00" fill="#000000">ExtractDestination</text>
</a>
</g>
</g>
<!-- Node27&#45;&gt;Node36 -->
<g id="edge12" class="edge">
<title>Node27&#45;&gt;Node36</title>
<path fill="none" stroke="#191970" d="M164.9653,-139.5801C173.238,-152.1005 189.8549,-174.4782 209.8174,-186.5 213.9113,-188.9655 218.3324,-191.0948 222.8974,-192.9334"/>
<polygon fill="#191970" stroke="#191970" points="221.8169,-196.2638 232.4116,-196.3141 224.1607,-189.6678 221.8169,-196.2638"/>
</g>
<!-- Node68 -->
<g id="node44" class="node">
<title>Node68</title>
<g id="a_node44"><a xlink:href="ismine_8cpp.html#ae1531a999ac1bfa59d70cfc984f1266b" target="_top" xlink:title="IsMine">
<polygon fill="#ffffff" stroke="#000000" points="258.4453,-37.5 258.4453,-55.5 303.8984,-55.5 303.8984,-37.5 258.4453,-37.5"/>
<text text-anchor="middle" x="281.1719" y="-43.5" font-family="Helvetica,sans-Serif" font-size="10.00" fill="#000000">IsMine</text>
</a>
</g>
</g>
<!-- Node27&#45;&gt;Node68 -->
<g id="edge54" class="edge">
<title>Node27&#45;&gt;Node68</title>
<path fill="none" stroke="#191970" d="M163.8531,-121.4143C171.4002,-107.2496 187.8995,-80.0253 209.8174,-65.5 221.2848,-57.9004 235.6766,-53.3334 248.5259,-50.5921"/>
<polygon fill="#191970" stroke="#191970" points="249.2188,-54.0233 258.4148,-48.7618 247.9448,-47.1402 249.2188,-54.0233"/>
</g>
<!-- Node69 -->
<g id="node45" class="node">
<title>Node69</title>
<g id="a_node45"><a xlink:href="class_c_merkle_tx.html#a20142f81e7ff0242db646e63e0a973b3" target="_top" xlink:title="CMerkleTx::GetHash">
<polygon fill="#ffffff" stroke="#000000" points="226.4946,-.5 226.4946,-18.5 335.8491,-18.5 335.8491,-.5 226.4946,-.5"/>
<text text-anchor="middle" x="281.1719" y="-6.5" font-family="Helvetica,sans-Serif" font-size="10.00" fill="#000000">CMerkleTx::GetHash</text>
</a>
</g>
</g>
<!-- Node27&#45;&gt;Node69 -->
<g id="edge55" class="edge">
<title>Node27&#45;&gt;Node69</title>
<path fill="none" stroke="#191970" d="M161.1867,-121.2847C165.7488,-101.2223 179.382,-53.3981 209.8174,-28.5 212.2685,-26.4948 214.911,-24.6997 217.6852,-23.0928"/>
<polygon fill="#191970" stroke="#191970" points="219.4756,-26.1133 226.9198,-18.5744 216.3991,-19.8256 219.4756,-26.1133"/>
</g>
<!-- Node30 -->
<g id="node6" class="node">
<title>Node30</title>
<g id="a_node6"><a xlink:href="class_c_chain.html#ad4758bc8872ce065a9579f77c3171d40" target="_top" xlink:title="Return the maximal height in the chain. ">
<polygon fill="#ffffff" stroke="#000000" points="405.4697,-120.5 405.4697,-138.5 489.2822,-138.5 489.2822,-120.5 405.4697,-120.5"/>
<text text-anchor="middle" x="447.376" y="-126.5" font-family="Helvetica,sans-Serif" font-size="10.00" fill="#000000">CChain::Height</text>
</a>
</g>
</g>
<!-- Node29&#45;&gt;Node30 -->
<g id="edge5" class="edge">
<title>Node29&#45;&gt;Node30</title>
<path fill="none" stroke="#191970" d="M320.1394,-130.2655C342.555,-130.1307 371.0059,-129.9595 395.3173,-129.8132"/>
<polygon fill="#191970" stroke="#191970" points="395.4745,-133.3124 405.4533,-129.7522 395.4324,-126.3126 395.4745,-133.3124"/>
</g>
<!-- Node31&#45;&gt;Node30 -->
<g id="edge11" class="edge">
<title>Node31&#45;&gt;Node30</title>
<path fill="none" stroke="#191970" d="M338.3699,-102.6099C358.7602,-107.6398 381.4623,-113.2401 400.8475,-118.0221"/>
<polygon fill="#191970" stroke="#191970" points="400.1053,-121.4439 410.6526,-120.4409 401.7819,-114.6476 400.1053,-121.4439"/>
</g>
<!-- Node32 -->
<g id="node8" class="node">
<title>Node32</title>
<g id="a_node8"><a xlink:href="class_c_merkle_tx.html#aff66148b06d22c7ee555b79058211493" target="_top" xlink:title="CMerkleTx::hashUnset">
<polygon fill="#ffffff" stroke="#000000" points="388.5264,-81.5 388.5264,-99.5 506.2256,-99.5 506.2256,-81.5 388.5264,-81.5"/>
<text text-anchor="middle" x="447.376" y="-87.5" font-family="Helvetica,sans-Serif" font-size="10.00" fill="#000000">CMerkleTx::hashUnset</text>
</a>
</g>
</g>
<!-- Node31&#45;&gt;Node32 -->
<g id="edge7" class="edge">
<title>Node31&#45;&gt;Node32</title>
<path fill="none" stroke="#191970" d="M352.6219,-89.3598C361.1287,-89.4622 369.8017,-89.5665 378.2748,-89.6685"/>
<polygon fill="#191970" stroke="#191970" points="378.4448,-93.1707 388.4862,-89.7914 378.5291,-86.1712 378.4448,-93.1707"/>
</g>
<!-- Node34 -->
<g id="node10" class="node">
<title>Node34</title>
<g id="a_node10"><a xlink:href="validation_8h.html#a9d9b2d3b31edbd48ce62f4e2a73cc04c" target="_top" xlink:title="LookupBlockIndex">
<polygon fill="#ffffff" stroke="#000000" points="398.5142,-44.5 398.5142,-62.5 496.2378,-62.5 496.2378,-44.5 398.5142,-44.5"/>
<text text-anchor="middle" x="447.376" y="-50.5" font-family="Helvetica,sans-Serif" font-size="10.00" fill="#000000">LookupBlockIndex</text>
</a>
</g>
</g>
<!-- Node31&#45;&gt;Node34 -->
<g id="edge9" class="edge">
<title>Node31&#45;&gt;Node34</title>
<path fill="none" stroke="#191970" d="M347.8158,-74.4658C363.3719,-71.19 379.7295,-67.7453 394.5886,-64.6162"/>
<polygon fill="#191970" stroke="#191970" points="395.5439,-67.9919 404.608,-62.5063 394.1014,-61.1421 395.5439,-67.9919"/>
</g>
<!-- Node35 -->
<g id="node11" class="node">
<title>Node35</title>
<g id="a_node11"><a xlink:href="class_c_chain.html#af1786dc229c215dea7f727c11df2c8dc" target="_top" xlink:title="Efficiently check whether a block is present in this chain. ">
<polygon fill="#ffffff" stroke="#000000" points="400.189,-7.5 400.189,-25.5 494.563,-25.5 494.563,-7.5 400.189,-7.5"/>
<text text-anchor="middle" x="447.376" y="-13.5" font-family="Helvetica,sans-Serif" font-size="10.00" fill="#000000">CChain::Contains</text>
</a>
</g>
</g>
<!-- Node31&#45;&gt;Node35 -->
<g id="edge10" class="edge">
<title>Node31&#45;&gt;Node35</title>
<path fill="none" stroke="#191970" d="M332.8408,-74.4701C339.6351,-71.8729 346.3694,-68.8898 352.5264,-65.5 370.7712,-55.455 370.2839,-45.5493 388.5264,-35.5 392.8257,-33.1316 397.4663,-31.0032 402.1892,-29.1045"/>
<polygon fill="#191970" stroke="#191970" points="403.7392,-32.2637 411.9163,-25.5268 401.3227,-25.6941 403.7392,-32.2637"/>
</g>
<!-- Node33 -->
<g id="node9" class="node">
<title>Node33</title>
<g id="a_node9"><a xlink:href="classbase__blob.html#aba89c6722866a5850882a509d27d7bbd" target="_top" xlink:title="base_blob::IsNull">
<polygon fill="#ffffff" stroke="#000000" points="565.2773,-75.5 565.2773,-93.5 657.9912,-93.5 657.9912,-75.5 565.2773,-75.5"/>
<text text-anchor="middle" x="611.6343" y="-81.5" font-family="Helvetica,sans-Serif" font-size="10.00" fill="#000000">base_blob::IsNull</text>
</a>
</g>
</g>
<!-- Node32&#45;&gt;Node33 -->
<g id="edge8" class="edge">
<title>Node32&#45;&gt;Node33</title>
<path fill="none" stroke="#191970" d="M506.677,-88.3339C522.4318,-87.7584 539.4041,-87.1384 555.0119,-86.5683"/>
<polygon fill="#191970" stroke="#191970" points="555.1794,-90.0646 565.0449,-86.2018 554.9238,-83.0693 555.1794,-90.0646"/>
</g>
<!-- Node37 -->
<g id="node13" class="node">
<title>Node37</title>
<g id="a_node13"><a xlink:href="standard_8cpp.html#a5a3369fceeb25173e2faa4a7ebc7a4e4" target="_top" xlink:title="Parse a scriptPubKey and identify script type for standard scripts. ">
<polygon fill="#ffffff" stroke="#000000" points="425.2036,-194.5 425.2036,-212.5 469.5483,-212.5 469.5483,-194.5 425.2036,-194.5"/>
<text text-anchor="middle" x="447.376" y="-200.5" font-family="Helvetica,sans-Serif" font-size="10.00" fill="#000000">Solver</text>
</a>
</g>
</g>
<!-- Node36&#45;&gt;Node37 -->
<g id="edge13" class="edge">
<title>Node36&#45;&gt;Node37</title>
<path fill="none" stroke="#191970" d="M330.1396,-204.2054C357.4984,-204.0408 390.8313,-203.8402 414.9508,-203.6951"/>
<polygon fill="#191970" stroke="#191970" points="415.0254,-207.1948 425.0041,-203.6346 414.9832,-200.1949 415.0254,-207.1948"/>
</g>
<!-- Node48 -->
<g id="node24" class="node">
<title>Node48</title>
<g id="a_node24"><a xlink:href="class_c_pub_key.html#a4fa94293cf8577fd039b9a133f6c7f30" target="_top" xlink:title="CPubKey::IsValid">
<polygon fill="#ffffff" stroke="#000000" points="400.8359,-231.5 400.8359,-249.5 493.916,-249.5 493.916,-231.5 400.8359,-231.5"/>
<text text-anchor="middle" x="447.376" y="-237.5" font-family="Helvetica,sans-Serif" font-size="10.00" fill="#000000">CPubKey::IsValid</text>
</a>
</g>
</g>
<!-- Node36&#45;&gt;Node48 -->
<g id="edge29" class="edge">
<title>Node36&#45;&gt;Node48</title>
<path fill="none" stroke="#191970" d="M323.1122,-213.5843C345.1434,-218.3563 372.3384,-224.2468 395.6649,-229.2993"/>
<polygon fill="#191970" stroke="#191970" points="395.2229,-232.7847 405.7373,-231.481 396.7048,-225.9433 395.2229,-232.7847"/>
</g>
<!-- Node51 -->
<g id="node27" class="node">
<title>Node51</title>
<g id="a_node27"><a xlink:href="class_c_pub_key.html#a2675f7e6f72eff68e7a5227289feb021" target="_top" xlink:title="Get the KeyID of this public key (hash of its serialization) ">
<polygon fill="#ffffff" stroke="#000000" points="402.4155,-268.5 402.4155,-286.5 492.3364,-286.5 492.3364,-268.5 402.4155,-268.5"/>
<text text-anchor="middle" x="447.376" y="-274.5" font-family="Helvetica,sans-Serif" font-size="10.00" fill="#000000">CPubKey::GetID</text>
</a>
</g>
</g>
<!-- Node36&#45;&gt;Node51 -->
<g id="edge32" class="edge">
<title>Node36&#45;&gt;Node51</title>
<path fill="none" stroke="#191970" d="M296.7653,-213.6003C317.298,-225.3215 354.7574,-245.8105 388.5264,-259.5 393.6009,-261.5571 399.0022,-263.512 404.3961,-265.3232"/>
<polygon fill="#191970" stroke="#191970" points="403.4335,-268.6901 414.0249,-268.419 405.5761,-262.026 403.4335,-268.6901"/>
</g>
<!-- Node67 -->
<g id="node43" class="node">
<title>Node67</title>
<g id="a_node43"><a xlink:href="classbase__blob.html#aeee68e00ceeacf49086e98b661e017ff" target="_top" xlink:title="base_blob::begin">
<polygon fill="#ffffff" stroke="#000000" points="401.2876,-157.5 401.2876,-175.5 493.4644,-175.5 493.4644,-157.5 401.2876,-157.5"/>
<text text-anchor="middle" x="447.376" y="-163.5" font-family="Helvetica,sans-Serif" font-size="10.00" fill="#000000">base_blob::begin</text>
</a>
</g>
</g>
<!-- Node36&#45;&gt;Node67 -->
<g id="edge53" class="edge">
<title>Node36&#45;&gt;Node67</title>
<path fill="none" stroke="#191970" d="M320.5599,-195.4945C343.7615,-190.1898 373.3185,-183.4321 398.06,-177.7753"/>
<polygon fill="#191970" stroke="#191970" points="399.0147,-181.1475 407.983,-175.5066 397.4544,-174.3235 399.0147,-181.1475"/>
</g>
<!-- Node38 -->
<g id="node14" class="node">
<title>Node38</title>
<g id="a_node14"><a xlink:href="class_c_script.html#a0c3729c606d318923dc06f95d85a0971" target="_top" xlink:title="CScript::IsPayToScriptHash">
<polygon fill="#ffffff" stroke="#000000" points="542.2256,-203.5 542.2256,-221.5 681.043,-221.5 681.043,-203.5 542.2256,-203.5"/>
<text text-anchor="middle" x="611.6343" y="-209.5" font-family="Helvetica,sans-Serif" font-size="10.00" fill="#000000">CScript::IsPayToScriptHash</text>
</a>
</g>
</g>
<!-- Node37&#45;&gt;Node38 -->
<g id="edge14" class="edge">
<title>Node37&#45;&gt;Node38</title>
<path fill="none" stroke="#191970" d="M469.871,-204.7325C486.1735,-205.6258 509.2774,-206.8917 532.1124,-208.1429"/>
<polygon fill="#191970" stroke="#191970" points="532.0327,-211.6436 542.2093,-208.6961 532.4158,-204.6541 532.0327,-211.6436"/>
</g>
<!-- Node41 -->
<g id="node17" class="node">
<title>Node41</title>
<g id="a_node17"><a xlink:href="classprevector.html#aa9210cbe708412a70868d6e0bca844c9" target="_top" xlink:title="prevector::begin">
<polygon fill="#ffffff" stroke="#000000" points="731.208,-71.5 731.208,-89.5 818.917,-89.5 818.917,-71.5 731.208,-71.5"/>
<text text-anchor="middle" x="775.0625" y="-77.5" font-family="Helvetica,sans-Serif" font-size="10.00" fill="#000000">prevector::begin</text>
</a>
</g>
</g>
<!-- Node37&#45;&gt;Node41 -->
<g id="edge17" class="edge">
<title>Node37&#45;&gt;Node41</title>
<path fill="none" stroke="#191970" d="M469.6541,-199.8517C481.2582,-197.199 495.2715,-192.7601 506.2256,-185.5 527.0014,-171.7304 521.2014,-155.8873 542.2256,-142.5 550.2013,-137.4214 663.0798,-108.5835 728.6851,-92.085"/>
<polygon fill="#191970" stroke="#191970" points="729.9388,-95.379 738.7852,-89.5486 728.2338,-88.5898 729.9388,-95.379"/>
</g>
<!-- Node45 -->
<g id="node21" class="node">
<title>Node45</title>
<g id="a_node21"><a xlink:href="class_c_script.html#ae6f2ab1af6361c5772f62b28b19f5eae" target="_top" xlink:title="CScript::IsWitnessProgram">
<polygon fill="#ffffff" stroke="#000000" points="543.6221,-151.5 543.6221,-169.5 679.6465,-169.5 679.6465,-151.5 543.6221,-151.5"/>
<text text-anchor="middle" x="611.6343" y="-157.5" font-family="Helvetica,sans-Serif" font-size="10.00" fill="#000000">CScript::IsWitnessProgram</text>
</a>
</g>
</g>
<!-- Node37&#45;&gt;Node45 -->
<g id="edge22" class="edge">
<title>Node37&#45;&gt;Node45</title>
<path fill="none" stroke="#191970" d="M469.871,-197.6112C494.8452,-191.0734 535.7811,-180.3571 567.2594,-172.1166"/>
<polygon fill="#191970" stroke="#191970" points="568.3275,-175.455 577.1151,-169.5365 566.5547,-168.6832 568.3275,-175.455"/>
</g>
<!-- Node39 -->
<g id="node15" class="node">
<title>Node39</title>
<g id="a_node15"><a xlink:href="classprevector.html#a626f7d206dbc24e5610631809762758b" target="_top" xlink:title="prevector::size">
<polygon fill="#ffffff" stroke="#000000" points="887.9761,-182.5 887.9761,-200.5 969.0005,-200.5 969.0005,-182.5 887.9761,-182.5"/>
<text text-anchor="middle" x="928.4883" y="-188.5" font-family="Helvetica,sans-Serif" font-size="10.00" fill="#000000">prevector::size</text>
</a>
</g>
</g>
<!-- Node38&#45;&gt;Node39 -->
<g id="edge15" class="edge">
<title>Node38&#45;&gt;Node39</title>
<path fill="none" stroke="#191970" d="M681.091,-212.9097C724.797,-212.6007 782.3359,-211.1571 833.082,-206.5 847.5927,-205.1683 863.2463,-203.0121 877.5947,-200.7447"/>
<polygon fill="#191970" stroke="#191970" points="878.4705,-204.1481 887.7768,-199.0842 877.3438,-197.2394 878.4705,-204.1481"/>
</g>
<!-- Node40 -->
<g id="node16" class="node">
<title>Node40</title>
<g id="a_node16"><a xlink:href="classprevector.html#a933e204a7e29c6bbc85479d023c00ff8" target="_top" xlink:title="prevector::is_direct">
<polygon fill="#ffffff" stroke="#000000" points="1038.1694,-182.5 1038.1694,-200.5 1138.647,-200.5 1138.647,-182.5 1038.1694,-182.5"/>
<text text-anchor="middle" x="1088.4082" y="-188.5" font-family="Helvetica,sans-Serif" font-size="10.00" fill="#000000">prevector::is_direct</text>
</a>
</g>
</g>
<!-- Node39&#45;&gt;Node40 -->
<g id="edge16" class="edge">
<title>Node39&#45;&gt;Node40</title>
<path fill="none" stroke="#191970" d="M969.2566,-191.5C987.0661,-191.5 1008.3219,-191.5 1027.9168,-191.5"/>
<polygon fill="#191970" stroke="#191970" points="1027.9852,-195.0001 1037.9852,-191.5 1027.9852,-188.0001 1027.9852,-195.0001"/>
</g>
<!-- Node42 -->
<g id="node18" class="node">
<title>Node42</title>
<g id="a_node18"><a xlink:href="classprevector.html#a59f1d7bcbc751cfa0faddd7ffa184846" target="_top" xlink:title="prevector::item_ptr">
<polygon fill="#ffffff" stroke="#000000" points="878.8062,-145.5 878.8062,-163.5 978.1704,-163.5 978.1704,-145.5 878.8062,-145.5"/>
<text text-anchor="middle" x="928.4883" y="-151.5" font-family="Helvetica,sans-Serif" font-size="10.00" fill="#000000">prevector::item_ptr</text>
</a>
</g>
</g>
<!-- Node41&#45;&gt;Node42 -->
<g id="edge18" class="edge">
<title>Node41&#45;&gt;Node42</title>
<path fill="none" stroke="#191970" d="M806.8257,-89.594C815.4788,-92.4225 824.7579,-95.7856 833.082,-99.5 859.1893,-111.1497 887.3485,-127.955 906.2552,-139.9184"/>
<polygon fill="#191970" stroke="#191970" points="904.436,-142.9095 914.7439,-145.3586 908.213,-137.016 904.436,-142.9095"/>
</g>
<!-- Node42&#45;&gt;Node40 -->
<g id="edge19" class="edge">
<title>Node42&#45;&gt;Node40</title>
<path fill="none" stroke="#191970" d="M967.6091,-163.5512C989.2768,-168.5644 1016.4136,-174.8429 1039.4751,-180.1785"/>
<polygon fill="#191970" stroke="#191970" points="1038.8828,-183.6339 1049.4144,-182.4782 1040.4608,-176.8141 1038.8828,-183.6339"/>
</g>
<!-- Node43 -->
<g id="node19" class="node">
<title>Node43</title>
<g id="a_node19"><a xlink:href="classprevector.html#a20150a43dd87c33f0e855a55bd3418e8" target="_top" xlink:title="prevector::direct_ptr">
<polygon fill="#ffffff" stroke="#000000" points="1035.9453,-145.5 1035.9453,-163.5 1140.8711,-163.5 1140.8711,-145.5 1035.9453,-145.5"/>
<text text-anchor="middle" x="1088.4082" y="-151.5" font-family="Helvetica,sans-Serif" font-size="10.00" fill="#000000">prevector::direct_ptr</text>
</a>
</g>
</g>
<!-- Node42&#45;&gt;Node43 -->
<g id="edge20" class="edge">
<title>Node42&#45;&gt;Node43</title>
<path fill="none" stroke="#191970" d="M978.2113,-154.5C993.1789,-154.5 1009.8041,-154.5 1025.5085,-154.5"/>
<polygon fill="#191970" stroke="#191970" points="1025.6688,-158.0001 1035.6688,-154.5 1025.6688,-151.0001 1025.6688,-158.0001"/>
</g>
<!-- Node44 -->
<g id="node20" class="node">
<title>Node44</title>
<g id="a_node20"><a xlink:href="classprevector.html#ae3343cc65be9fd678b4a6f8305624de6" target="_top" xlink:title="prevector::indirect_ptr">
<polygon fill="#ffffff" stroke="#000000" points="1032.0537,-108.5 1032.0537,-126.5 1144.7627,-126.5 1144.7627,-108.5 1032.0537,-108.5"/>
<text text-anchor="middle" x="1088.4082" y="-114.5" font-family="Helvetica,sans-Serif" font-size="10.00" fill="#000000">prevector::indirect_ptr</text>
</a>
</g>
</g>
<!-- Node42&#45;&gt;Node44 -->
<g id="edge21" class="edge">
<title>Node42&#45;&gt;Node44</title>
<path fill="none" stroke="#191970" d="M967.6091,-145.4488C989.2768,-140.4356 1016.4136,-134.1571 1039.4751,-128.8215"/>
<polygon fill="#191970" stroke="#191970" points="1040.4608,-132.1859 1049.4144,-126.5218 1038.8828,-125.3661 1040.4608,-132.1859"/>
</g>
<!-- Node45&#45;&gt;Node39 -->
<g id="edge23" class="edge">
<title>Node45&#45;&gt;Node39</title>
<path fill="none" stroke="#191970" d="M679.9173,-169.3032C692.2647,-170.7863 705.0306,-172.2484 717.043,-173.5 771.8839,-179.214 834.8692,-184.3989 877.7333,-187.7205"/>
<polygon fill="#191970" stroke="#191970" points="877.6708,-191.2259 887.9098,-188.5033 878.2078,-184.2465 877.6708,-191.2259"/>
</g>
<!-- Node45&#45;&gt;Node41 -->
<g id="edge25" class="edge">
<title>Node45&#45;&gt;Node41</title>
<path fill="none" stroke="#191970" d="M648.0455,-151.4346C659.1377,-147.7649 671.0345,-142.8588 681.043,-136.5 700.4088,-124.1961 697.5767,-111.6443 717.043,-99.5 720.685,-97.2279 724.6268,-95.1991 728.6824,-93.3936"/>
<polygon fill="#191970" stroke="#191970" points="730.2696,-96.5288 738.2643,-89.5764 727.679,-90.0259 730.2696,-96.5288"/>
</g>
<!-- Node46 -->
<g id="node22" class="node">
<title>Node46</title>
<g id="a_node22"><a xlink:href="class_c_script.html#a7f975fca06b3e9a17da8ba23c7647e2e" target="_top" xlink:title="Encode/decode small integers: ">
<polygon fill="#ffffff" stroke="#000000" points="717.043,-108.5 717.043,-126.5 833.082,-126.5 833.082,-108.5 717.043,-108.5"/>
<text text-anchor="middle" x="775.0625" y="-114.5" font-family="Helvetica,sans-Serif" font-size="10.00" fill="#000000">CScript::DecodeOP_N</text>
</a>
</g>
</g>
<!-- Node45&#45;&gt;Node46 -->
<g id="edge24" class="edge">
<title>Node45&#45;&gt;Node46</title>
<path fill="none" stroke="#191970" d="M645.8942,-151.4858C670.6268,-144.9783 704.2355,-136.1355 730.9706,-129.1011"/>
<polygon fill="#191970" stroke="#191970" points="732.0674,-132.4317 740.8477,-126.5023 730.2862,-125.6621 732.0674,-132.4317"/>
</g>
<!-- Node47 -->
<g id="node23" class="node">
<title>Node47</title>
<g id="a_node23"><a xlink:href="classprevector.html#aab7f6e13a3cac85cc340fc6b90c5365c" target="_top" xlink:title="prevector::end">
<polygon fill="#ffffff" stroke="#000000" points="735.0996,-145.5 735.0996,-163.5 815.0254,-163.5 815.0254,-145.5 735.0996,-145.5"/>
<text text-anchor="middle" x="775.0625" y="-151.5" font-family="Helvetica,sans-Serif" font-size="10.00" fill="#000000">prevector::end</text>
</a>
</g>
</g>
<!-- Node45&#45;&gt;Node47 -->
<g id="edge26" class="edge">
<title>Node45&#45;&gt;Node47</title>
<path fill="none" stroke="#191970" d="M679.9956,-157.9902C695.0579,-157.4372 710.7423,-156.8614 724.9264,-156.3407"/>
<polygon fill="#191970" stroke="#191970" points="725.0944,-159.837 734.9592,-155.9723 724.8375,-152.8417 725.0944,-159.837"/>
</g>
<!-- Node47&#45;&gt;Node39 -->
<g id="edge28" class="edge">
<title>Node47&#45;&gt;Node39</title>
<path fill="none" stroke="#191970" d="M812.5947,-163.5512C833.2893,-168.5419 859.1839,-174.7866 881.2444,-180.1067"/>
<polygon fill="#191970" stroke="#191970" points="880.5361,-183.5362 891.078,-182.4782 882.1772,-176.7313 880.5361,-183.5362"/>
</g>
<!-- Node47&#45;&gt;Node42 -->
<g id="edge27" class="edge">
<title>Node47&#45;&gt;Node42</title>
<path fill="none" stroke="#191970" d="M815.3733,-154.5C831.5528,-154.5 850.5447,-154.5 868.2973,-154.5"/>
<polygon fill="#191970" stroke="#191970" points="868.576,-158.0001 878.5759,-154.5 868.5759,-151.0001 868.576,-158.0001"/>
</g>
<!-- Node49 -->
<g id="node25" class="node">
<title>Node49</title>
<g id="a_node25"><a xlink:href="class_c_pub_key.html#a6bb28fcf0a5f799c69f5b7269363b309" target="_top" xlink:title="Simple read&#45;only vector&#45;like interface to the pubkey data. ">
<polygon fill="#ffffff" stroke="#000000" points="570.8413,-259.5 570.8413,-277.5 652.4272,-277.5 652.4272,-259.5 570.8413,-259.5"/>
<text text-anchor="middle" x="611.6343" y="-265.5" font-family="Helvetica,sans-Serif" font-size="10.00" fill="#000000">CPubKey::size</text>
</a>
</g>
</g>
<!-- Node48&#45;&gt;Node49 -->
<g id="edge30" class="edge">
<title>Node48&#45;&gt;Node49</title>
<path fill="none" stroke="#191970" d="M494.0064,-248.4488C514.8859,-252.008 539.5557,-256.2132 560.8967,-259.8511"/>
<polygon fill="#191970" stroke="#191970" points="560.3114,-263.3017 570.7573,-261.532 561.4877,-256.4013 560.3114,-263.3017"/>
</g>
<!-- Node50 -->
<g id="node26" class="node">
<title>Node50</title>
<g id="a_node26"><a xlink:href="class_c_pub_key.html#a7dc71b3f037c84268dc22de97d7b65fb" target="_top" xlink:title="Compute the length of a pubkey with a given first byte. ">
<polygon fill="#ffffff" stroke="#000000" points="726.7598,-259.5 726.7598,-277.5 823.3652,-277.5 823.3652,-259.5 726.7598,-259.5"/>
<text text-anchor="middle" x="775.0625" y="-265.5" font-family="Helvetica,sans-Serif" font-size="10.00" fill="#000000">CPubKey::GetLen</text>
</a>
</g>
</g>
<!-- Node49&#45;&gt;Node50 -->
<g id="edge31" class="edge">
<title>Node49&#45;&gt;Node50</title>
<path fill="none" stroke="#191970" d="M652.4525,-268.5C671.7897,-268.5 695.2435,-268.5 716.4392,-268.5"/>
<polygon fill="#191970" stroke="#191970" points="716.6351,-272.0001 726.6351,-268.5 716.635,-265.0001 716.6351,-272.0001"/>
</g>
<!-- Node51&#45;&gt;Node49 -->
<g id="edge52" class="edge">
<title>Node51&#45;&gt;Node49</title>
<path fill="none" stroke="#191970" d="M492.6951,-275.0169C513.7632,-273.8625 538.906,-272.4849 560.6362,-271.2943"/>
<polygon fill="#191970" stroke="#191970" points="560.8804,-274.7862 570.6739,-270.7443 560.4974,-267.7967 560.8804,-274.7862"/>
</g>
<!-- Node52 -->
<g id="node28" class="node">
<title>Node52</title>
<g id="a_node28"><a xlink:href="_hash_8h.html#a3f56a9b8501ec9d021aad11389d419c4" target="_top" xlink:title="Compute the 160&#45;bit hash an object. ">
<polygon fill="#ffffff" stroke="#000000" points="583.6196,-296.5 583.6196,-314.5 639.6489,-314.5 639.6489,-296.5 583.6196,-296.5"/>
<text text-anchor="middle" x="611.6343" y="-302.5" font-family="Helvetica,sans-Serif" font-size="10.00" fill="#000000">Hash360</text>
</a>
</g>
</g>
<!-- Node51&#45;&gt;Node52 -->
<g id="edge33" class="edge">
<title>Node51&#45;&gt;Node52</title>
<path fill="none" stroke="#191970" d="M492.6951,-285.2252C518.1206,-289.5594 549.4806,-294.9051 573.615,-299.0191"/>
<polygon fill="#191970" stroke="#191970" points="573.0315,-302.4701 583.4775,-300.7003 574.2079,-295.5696 573.0315,-302.4701"/>
</g>
<!-- Node53 -->
<g id="node29" class="node">
<title>Node53</title>
<g id="a_node29"><a xlink:href="class_c_hash360.html#a9268162ed4d951b479493d16f0bfb5df" target="_top" xlink:title="CHash360::Write">
<polygon fill="#ffffff" stroke="#000000" points="729.0815,-351.5 729.0815,-369.5 821.0435,-369.5 821.0435,-351.5 729.0815,-351.5"/>
<text text-anchor="middle" x="775.0625" y="-357.5" font-family="Helvetica,sans-Serif" font-size="10.00" fill="#000000">CHash360::Write</text>
</a>
</g>
</g>
<!-- Node52&#45;&gt;Node53 -->
<g id="edge34" class="edge">
<title>Node52&#45;&gt;Node53</title>
<path fill="none" stroke="#191970" d="M638.6211,-314.5821C665.9078,-323.7652 708.2627,-338.0193 738.5411,-348.2091"/>
<polygon fill="#191970" stroke="#191970" points="737.7131,-351.6233 748.3072,-351.4958 739.9459,-344.9889 737.7131,-351.6233"/>
</g>
<!-- Node57 -->
<g id="node33" class="node">
<title>Node57</title>
<g id="a_node33"><a xlink:href="class_c_hash360.html#abb6b8a5693cd0b09e52bb624bafc1efd" target="_top" xlink:title="CHash360::Finalize">
<polygon fill="#ffffff" stroke="#000000" points="723.4297,-296.5 723.4297,-314.5 826.6953,-314.5 826.6953,-296.5 723.4297,-296.5"/>
<text text-anchor="middle" x="775.0625" y="-302.5" font-family="Helvetica,sans-Serif" font-size="10.00" fill="#000000">CHash360::Finalize</text>
</a>
</g>
</g>
<!-- Node52&#45;&gt;Node57 -->
<g id="edge39" class="edge">
<title>Node52&#45;&gt;Node57</title>
<path fill="none" stroke="#191970" d="M639.7286,-305.5C659.8617,-305.5 687.7699,-305.5 713.0154,-305.5"/>
<polygon fill="#191970" stroke="#191970" points="713.2713,-309.0001 723.2712,-305.5 713.2712,-302.0001 713.2713,-309.0001"/>
</g>
<!-- Node54 -->
<g id="node30" class="node">
<title>Node54</title>
<g id="a_node30"><a xlink:href="class_c_s_h_a3.html#a439a0fade3fa1b7989c6cf053d39161b" target="_top" xlink:title="CSHA3::Write">
<polygon fill="#ffffff" stroke="#000000" points="889.4604,-355.5 889.4604,-373.5 967.5161,-373.5 967.5161,-355.5 889.4604,-355.5"/>
<text text-anchor="middle" x="928.4883" y="-361.5" font-family="Helvetica,sans-Serif" font-size="10.00" fill="#000000">CSHA3::Write</text>
</a>
</g>
</g>
<!-- Node53&#45;&gt;Node54 -->
<g id="edge35" class="edge">
<title>Node53&#45;&gt;Node54</title>
<path fill="none" stroke="#191970" d="M821.0953,-361.7001C839.4161,-362.1778 860.5322,-362.7283 879.1661,-363.2141"/>
<polygon fill="#191970" stroke="#191970" points="879.1416,-366.7146 889.2294,-363.4765 879.3241,-359.7169 879.1416,-366.7146"/>
</g>
<!-- Node55 -->
<g id="node31" class="node">
<title>Node55</title>
<g id="a_node31"><a xlink:href="class_s_h_a3__256.html#a8356957ea403c5da326fc6899b91ea71" target="_top" xlink:title="Updates the hash with more data. ">
<polygon fill="#ffffff" stroke="#000000" points="1038.1523,-360.5 1038.1523,-378.5 1138.6641,-378.5 1138.6641,-360.5 1038.1523,-360.5"/>
<text text-anchor="middle" x="1088.4082" y="-366.5" font-family="Helvetica,sans-Serif" font-size="10.00" fill="#000000">SHA3_256::update</text>
</a>
</g>
</g>
<!-- Node54&#45;&gt;Node55 -->
<g id="edge36" class="edge">
<title>Node54&#45;&gt;Node55</title>
<path fill="none" stroke="#191970" d="M967.6091,-365.7231C985.724,-366.2895 1007.6615,-366.9754 1027.8444,-367.6064"/>
<polygon fill="#191970" stroke="#191970" points="1027.7924,-371.1064 1037.8969,-367.9207 1028.0112,-364.1098 1027.7924,-371.1064"/>
</g>
<!-- Node56 -->
<g id="node32" class="node">
<title>Node56</title>
<g id="a_node32"><a xlink:href="class_keccak_core.html#aaaa0355ccec0f469ac8eb577bdf853ed" target="_top" xlink:title="Updates the Keccak sponge function with more input data. ">
<polygon fill="#ffffff" stroke="#000000" points="1188.9219,-369.5 1188.9219,-387.5 1295.5322,-387.5 1295.5322,-369.5 1188.9219,-369.5"/>
<text text-anchor="middle" x="1242.2271" y="-375.5" font-family="Helvetica,sans-Serif" font-size="10.00" fill="#000000">KeccakCore::update</text>
</a>
</g>
</g>
<!-- Node55&#45;&gt;Node56 -->
<g id="edge37" class="edge">
<title>Node55&#45;&gt;Node56</title>
<path fill="none" stroke="#191970" d="M1138.7742,-372.4469C1151.5513,-373.1945 1165.4424,-374.0073 1178.7764,-374.7875"/>
<polygon fill="#191970" stroke="#191970" points="1178.6494,-378.2859 1188.8368,-375.3761 1179.0583,-371.2979 1178.6494,-378.2859"/>
</g>
<!-- Node56&#45;&gt;Node26 -->
<g id="edge38" class="edge">
<title>Node56&#45;&gt;Node26</title>
<path fill="none" stroke="#191970" d="M1295.6382,-371.533C1303.9251,-370.452 1312.5738,-369.3239 1321.1107,-368.2103"/>
<polygon fill="#191970" stroke="#191970" points="1321.5895,-371.6776 1331.0527,-366.9135 1320.684,-364.7364 1321.5895,-371.6776"/>
</g>
<!-- Node58 -->
<g id="node34" class="node">
<title>Node58</title>
<g id="a_node34"><a xlink:href="class_c_s_h_a3.html#a7aa515a9a0fa6d72667d74897f699ae9" target="_top" xlink:title="CSHA3::Finalize">
<polygon fill="#ffffff" stroke="#000000" points="883.8086,-296.5 883.8086,-314.5 973.168,-314.5 973.168,-296.5 883.8086,-296.5"/>
<text text-anchor="middle" x="928.4883" y="-302.5" font-family="Helvetica,sans-Serif" font-size="10.00" fill="#000000">CSHA3::Finalize</text>
</a>
</g>
</g>
<!-- Node57&#45;&gt;Node58 -->
<g id="edge40" class="edge">
<title>Node57&#45;&gt;Node58</title>
<path fill="none" stroke="#191970" d="M827.0055,-305.5C841.9798,-305.5 858.3647,-305.5 873.5162,-305.5"/>
<polygon fill="#191970" stroke="#191970" points="873.7762,-309.0001 883.7762,-305.5 873.7761,-302.0001 873.7762,-309.0001"/>
</g>
<!-- Node64 -->
<g id="node40" class="node">
<title>Node64</title>
<g id="a_node40"><a xlink:href="class_c_r_i_p_e_m_d160.html#a221143b9d94af623d07c4f4ba1bf6007" target="_top" xlink:title="CRIPEMD160::Write">
<polygon fill="#ffffff" stroke="#000000" points="874.7339,-258.5 874.7339,-276.5 982.2427,-276.5 982.2427,-258.5 874.7339,-258.5"/>
<text text-anchor="middle" x="928.4883" y="-264.5" font-family="Helvetica,sans-Serif" font-size="10.00" fill="#000000">CRIPEMD160::Write</text>
</a>
</g>
</g>
<!-- Node57&#45;&gt;Node64 -->
<g id="edge48" class="edge">
<title>Node57&#45;&gt;Node64</title>
<path fill="none" stroke="#191970" d="M811.4223,-296.4945C832.6497,-291.237 859.64,-284.5521 882.3537,-278.9265"/>
<polygon fill="#191970" stroke="#191970" points="883.2587,-282.3081 892.124,-276.5066 881.5758,-275.5135 883.2587,-282.3081"/>
</g>
<!-- Node66 -->
<g id="node42" class="node">
<title>Node66</title>
<g id="a_node42"><a xlink:href="class_c_r_i_p_e_m_d160.html#a2a11566fbf9d1339b819833313fc4e51" target="_top" xlink:title="CRIPEMD160::Finalize">
<polygon fill="#ffffff" stroke="#000000" points="869.082,-221.5 869.082,-239.5 987.8945,-239.5 987.8945,-221.5 869.082,-221.5"/>
<text text-anchor="middle" x="928.4883" y="-227.5" font-family="Helvetica,sans-Serif" font-size="10.00" fill="#000000">CRIPEMD160::Finalize</text>
</a>
</g>
</g>
<!-- Node57&#45;&gt;Node66 -->
<g id="edge51" class="edge">
<title>Node57&#45;&gt;Node66</title>
<path fill="none" stroke="#191970" d="M814.0404,-296.4402C820.6565,-294.0647 827.2617,-291.1217 833.082,-287.5 852.8346,-275.2089 849.3833,-261.8772 869.082,-249.5 872.8455,-247.1354 876.9293,-245.0405 881.134,-243.1898"/>
<polygon fill="#191970" stroke="#191970" points="882.4334,-246.4398 890.4546,-239.5181 879.8677,-239.9269 882.4334,-246.4398"/>
</g>
<!-- Node59 -->
<g id="node35" class="node">
<title>Node59</title>
<g id="a_node35"><a xlink:href="class_s_h_a3__256.html#a8fe7cad1f83bd1bae1a0d521324247a1" target="_top" xlink:title="Finalizes the hashing process and returns the hash. ">
<polygon fill="#ffffff" stroke="#000000" points="1037.8813,-296.5 1037.8813,-314.5 1138.9351,-314.5 1138.9351,-296.5 1037.8813,-296.5"/>
<text text-anchor="middle" x="1088.4082" y="-302.5" font-family="Helvetica,sans-Serif" font-size="10.00" fill="#000000">SHA3_256::finalize</text>
</a>
</g>
</g>
<!-- Node58&#45;&gt;Node59 -->
<g id="edge41" class="edge">
<title>Node58&#45;&gt;Node59</title>
<path fill="none" stroke="#191970" d="M973.4605,-305.5C990.297,-305.5 1009.7115,-305.5 1027.7355,-305.5"/>
<polygon fill="#191970" stroke="#191970" points="1027.8678,-309.0001 1037.8677,-305.5 1027.8677,-302.0001 1027.8678,-309.0001"/>
</g>
<!-- Node60 -->
<g id="node36" class="node">
<title>Node60</title>
<g id="a_node36"><a xlink:href="class_keccak_core.html#a97852ee4381ced17ee6d21704cf0b4d7" target="_top" xlink:title="Pads the last block of input data to blockSize(). ">
<polygon fill="#ffffff" stroke="#000000" points="1195.8726,-332.5 1195.8726,-350.5 1288.5815,-350.5 1288.5815,-332.5 1195.8726,-332.5"/>
<text text-anchor="middle" x="1242.2271" y="-338.5" font-family="Helvetica,sans-Serif" font-size="10.00" fill="#000000">KeccakCore::pad</text>
</a>
</g>
</g>
<!-- Node59&#45;&gt;Node60 -->
<g id="edge42" class="edge">
<title>Node59&#45;&gt;Node60</title>
<path fill="none" stroke="#191970" d="M1127.2232,-314.5843C1147.4298,-319.3135 1172.33,-325.1412 1193.7877,-330.1632"/>
<polygon fill="#191970" stroke="#191970" points="1193.1567,-333.61 1203.6912,-332.481 1194.7519,-326.7942 1193.1567,-333.61"/>
</g>
<!-- Node61 -->
<g id="node37" class="node">
<title>Node61</title>
<g id="a_node37"><a xlink:href="class_keccak_core.html#aad83ece853c0cc15fcab947fdcba924f" target="_top" xlink:title="Extracts data from the Keccak sponge function. ">
<polygon fill="#ffffff" stroke="#000000" points="1189.21,-295.5 1189.21,-313.5 1295.2441,-313.5 1295.2441,-295.5 1189.21,-295.5"/>
<text text-anchor="middle" x="1242.2271" y="-301.5" font-family="Helvetica,sans-Serif" font-size="10.00" fill="#000000">KeccakCore::extract</text>
</a>
</g>
</g>
<!-- Node59&#45;&gt;Node61 -->
<g id="edge44" class="edge">
<title>Node59&#45;&gt;Node61</title>
<path fill="none" stroke="#191970" d="M1139.2005,-305.1698C1151.9617,-305.0868 1165.8113,-304.9968 1179.0942,-304.9104"/>
<polygon fill="#191970" stroke="#191970" points="1179.1368,-308.4103 1189.1138,-304.8453 1179.0912,-301.4105 1179.1368,-308.4103"/>
</g>
<!-- Node60&#45;&gt;Node26 -->
<g id="edge43" class="edge">
<title>Node60&#45;&gt;Node26</title>
<path fill="none" stroke="#191970" d="M1288.7152,-347.2448C1299.1056,-348.5288 1310.3226,-349.915 1321.3461,-351.2772"/>
<polygon fill="#191970" stroke="#191970" points="1321.0322,-354.7649 1331.386,-352.5179 1321.8908,-347.8178 1321.0322,-354.7649"/>
</g>
<!-- Node61&#45;&gt;Node26 -->
<g id="edge45" class="edge">
<title>Node61&#45;&gt;Node26</title>
<path fill="none" stroke="#191970" d="M1268.0395,-313.5291C1276.7878,-316.6348 1286.6033,-320.1692 1295.5322,-323.5 1315.6665,-331.0107 1338.1331,-339.76 1355.8658,-346.7524"/>
<polygon fill="#191970" stroke="#191970" points="1354.599,-350.0151 1365.1854,-350.4373 1357.1729,-343.5055 1354.599,-350.0151"/>
</g>
<!-- Node62 -->
<g id="node38" class="node">
<title>Node62</title>
<g id="a_node38"><a xlink:href="glibc__compat_8cpp.html#a0f46826ab0466591e136db24394923cf" target="_top" xlink:title="memcpy">
<polygon fill="#ffffff" stroke="#000000" points="1360.9951,-276.5 1360.9951,-294.5 1414.7783,-294.5 1414.7783,-276.5 1360.9951,-276.5"/>
<text text-anchor="middle" x="1387.8867" y="-282.5" font-family="Helvetica,sans-Serif" font-size="10.00" fill="#000000">memcpy</text>
</a>
</g>
</g>
<!-- Node61&#45;&gt;Node62 -->
<g id="edge46" class="edge">
<title>Node61&#45;&gt;Node62</title>
<path fill="none" stroke="#191970" d="M1295.6382,-297.533C1313.9271,-295.1474 1333.9785,-292.5318 1350.7018,-290.3504"/>
<polygon fill="#191970" stroke="#191970" points="1351.1755,-293.8184 1360.6388,-289.0542 1350.27,-286.8772 1351.1755,-293.8184"/>
</g>
<!-- Node63 -->
<g id="node39" class="node">
<title>Node63</title>
<g id="a_node39"><a xlink:href="glibc__compat_8cpp.html#a9778d49e9029dd75bc53ecbbf9f5e9a1" target="_top" xlink:title="memmove">
<polygon fill="#ffffff" stroke="#000000" points="1480.2412,-276.5 1480.2412,-294.5 1542.916,-294.5 1542.916,-276.5 1480.2412,-276.5"/>
<text text-anchor="middle" x="1511.5786" y="-282.5" font-family="Helvetica,sans-Serif" font-size="10.00" fill="#000000">memmove</text>
</a>
</g>
</g>
<!-- Node62&#45;&gt;Node63 -->
<g id="edge47" class="edge">
<title>Node62&#45;&gt;Node63</title>
<path fill="none" stroke="#191970" d="M1415.0314,-285.5C1431.1572,-285.5 1451.9368,-285.5 1470.0849,-285.5"/>
<polygon fill="#191970" stroke="#191970" points="1470.1298,-289.0001 1480.1297,-285.5 1470.1297,-282.0001 1470.1298,-289.0001"/>
</g>
<!-- Node64&#45;&gt;Node62 -->
<g id="edge49" class="edge">
<title>Node64&#45;&gt;Node62</title>
<path fill="none" stroke="#191970" d="M982.538,-269.6178C1076.9669,-273.3176 1269.6335,-280.8666 1350.6651,-284.0416"/>
<polygon fill="#191970" stroke="#191970" points="1350.7561,-287.5478 1360.8855,-284.442 1351.0302,-280.5531 1350.7561,-287.5478"/>
</g>
<!-- Node65 -->
<g id="node41" class="node">
<title>Node65</title>
<g id="a_node41"><a xlink:href="namespacesha256__shani.html#a97d2e267c87add9a1172d948e05ba471" target="_top" xlink:title="sha256_shani::Transform">
<polygon fill="#ffffff" stroke="#000000" points="1023.8945,-219.5 1023.8945,-237.5 1152.9219,-237.5 1152.9219,-219.5 1023.8945,-219.5"/>
<text text-anchor="middle" x="1088.4082" y="-225.5" font-family="Helvetica,sans-Serif" font-size="10.00" fill="#000000">sha256_shani::Transform</text>
</a>
</g>
</g>
<!-- Node64&#45;&gt;Node65 -->
<g id="edge50" class="edge">
<title>Node64&#45;&gt;Node65</title>
<path fill="none" stroke="#191970" d="M965.5791,-258.4546C988.1044,-252.9613 1017.0738,-245.8965 1041.2211,-240.0076"/>
<polygon fill="#191970" stroke="#191970" points="1042.3559,-243.3335 1051.2419,-237.5638 1040.6973,-236.5328 1042.3559,-243.3335"/>
</g>
</g>
</svg>
