<?xml version="1.0" encoding="UTF-8" standalone="no"?>
<!DOCTYPE svg PUBLIC "-//W3C//DTD SVG 1.1//EN"
 "http://www.w3.org/Graphics/SVG/1.1/DTD/svg11.dtd">
<!-- Generated by graphviz version 2.40.1 (20161225.0304)
 -->
<!-- Title: WalletFrame::unlockWallet Pages: 1 -->
<svg width="509pt" height="92pt"
 viewBox="0.00 0.00 509.45 92.00" xmlns="http://www.w3.org/2000/svg" xmlns:xlink="http://www.w3.org/1999/xlink">
<g id="graph0" class="graph" transform="scale(1 1) rotate(0) translate(4 88)">
<title>WalletFrame::unlockWallet</title>
<polygon fill="#ffffff" stroke="transparent" points="-4,4 -4,-88 505.4502,-88 505.4502,4 -4,4"/>
<!-- Node274 -->
<g id="node1" class="node">
<title>Node274</title>
<polygon fill="#bfbfbf" stroke="#000000" points="0,-46.5 0,-64.5 134.1885,-64.5 134.1885,-46.5 0,-46.5"/>
<text text-anchor="middle" x="67.0942" y="-52.5" font-family="Helvetica,sans-Serif" font-size="10.00" fill="#000000">WalletFrame::unlockWallet</text>
</g>
<!-- Node275 -->
<g id="node2" class="node">
<title>Node275</title>
<g id="a_node2"><a xlink:href="class_wallet_frame.html#a026798332d142b693e4f1820185d3f1c" target="_top" xlink:title="WalletFrame::currentWalletView">
<polygon fill="#ffffff" stroke="#000000" points="170.1885,-65.5 170.1885,-83.5 328.0928,-83.5 328.0928,-65.5 170.1885,-65.5"/>
<text text-anchor="middle" x="249.1406" y="-71.5" font-family="Helvetica,sans-Serif" font-size="10.00" fill="#000000">WalletFrame::currentWalletView</text>
</a>
</g>
</g>
<!-- Node274&#45;&gt;Node275 -->
<g id="edge1" class="edge">
<title>Node274&#45;&gt;Node275</title>
<path fill="none" stroke="#191970" d="M134.3644,-62.5209C142.7363,-63.3947 151.3964,-64.2985 160.0335,-65.2"/>
<polygon fill="#191970" stroke="#191970" points="159.8342,-68.6981 170.1435,-66.2551 160.5609,-61.7359 159.8342,-68.6981"/>
</g>
<!-- Node276 -->
<g id="node3" class="node">
<title>Node276</title>
<g id="a_node3"><a xlink:href="class_wallet_view.html#ac258d549f0e55ad4f84b9d21848faf02" target="_top" xlink:title="Ask for passphrase to unlock wallet temporarily. ">
<polygon fill="#ffffff" stroke="#000000" points="185.7427,-28.5 185.7427,-46.5 312.5386,-46.5 312.5386,-28.5 185.7427,-28.5"/>
<text text-anchor="middle" x="249.1406" y="-34.5" font-family="Helvetica,sans-Serif" font-size="10.00" fill="#000000">WalletView::unlockWallet</text>
</a>
</g>
</g>
<!-- Node274&#45;&gt;Node276 -->
<g id="edge2" class="edge">
<title>Node274&#45;&gt;Node276</title>
<path fill="none" stroke="#191970" d="M134.3644,-48.8486C147.6818,-47.5318 161.7287,-46.1429 175.252,-44.8058"/>
<polygon fill="#191970" stroke="#191970" points="175.8636,-48.2625 185.4706,-43.7954 175.1747,-41.2965 175.8636,-48.2625"/>
</g>
<!-- Node277 -->
<g id="node4" class="node">
<title>Node277</title>
<g id="a_node4"><a xlink:href="class_wallet_model.html#aa89632d2019414f2ab85674cd4d01398" target="_top" xlink:title="WalletModel::getEncryption\lStatus">
<polygon fill="#ffffff" stroke="#000000" points="364.0928,-47.5 364.0928,-75.5 501.4502,-75.5 501.4502,-47.5 364.0928,-47.5"/>
<text text-anchor="start" x="372.0928" y="-63.5" font-family="Helvetica,sans-Serif" font-size="10.00" fill="#000000">WalletModel::getEncryption</text>
<text text-anchor="middle" x="432.7715" y="-53.5" font-family="Helvetica,sans-Serif" font-size="10.00" fill="#000000">Status</text>
</a>
</g>
</g>
<!-- Node276&#45;&gt;Node277 -->
<g id="edge3" class="edge">
<title>Node276&#45;&gt;Node277</title>
<path fill="none" stroke="#191970" d="M312.5931,-45.793C325.9403,-47.5375 340.1742,-49.3978 354.0049,-51.2054"/>
<polygon fill="#191970" stroke="#191970" points="353.6167,-54.6844 363.986,-52.5099 354.524,-47.7434 353.6167,-54.6844"/>
</g>
<!-- Node278 -->
<g id="node5" class="node">
<title>Node278</title>
<g id="a_node5"><a xlink:href="class_ask_passphrase_dialog.html#a35b83e1ef98813b6b88155aab0803ed3" target="_top" xlink:title="AskPassphraseDialog\l::setModel">
<polygon fill="#ffffff" stroke="#000000" points="375.8579,-.5 375.8579,-28.5 489.6851,-28.5 489.6851,-.5 375.8579,-.5"/>
<text text-anchor="start" x="383.8579" y="-16.5" font-family="Helvetica,sans-Serif" font-size="10.00" fill="#000000">AskPassphraseDialog</text>
<text text-anchor="middle" x="432.7715" y="-6.5" font-family="Helvetica,sans-Serif" font-size="10.00" fill="#000000">::setModel</text>
</a>
</g>
</g>
<!-- Node276&#45;&gt;Node278 -->
<g id="edge4" class="edge">
<title>Node276&#45;&gt;Node278</title>
<path fill="none" stroke="#191970" d="M312.5931,-29.5525C329.7517,-27.4034 348.3757,-25.0707 365.7246,-22.8977"/>
<polygon fill="#191970" stroke="#191970" points="366.2838,-26.3551 375.7713,-21.6394 365.4138,-19.4094 366.2838,-26.3551"/>
</g>
</g>
</svg>
