<?xml version="1.0" encoding="UTF-8" standalone="no"?>
<!DOCTYPE svg PUBLIC "-//W3C//DTD SVG 1.1//EN"
 "http://www.w3.org/Graphics/SVG/1.1/DTD/svg11.dtd">
<!-- Generated by graphviz version 2.40.1 (20161225.0304)
 -->
<!-- Title: CBasicKeyStore::GetKeys Pages: 1 -->
<svg width="590pt" height="27pt"
 viewBox="0.00 0.00 589.97 27.00" xmlns="http://www.w3.org/2000/svg" xmlns:xlink="http://www.w3.org/1999/xlink">
<g id="graph0" class="graph" transform="scale(1 1) rotate(0) translate(4 23)">
<title>CBasicKeyStore::GetKeys</title>
<polygon fill="#ffffff" stroke="transparent" points="-4,4 -4,-23 585.9707,-23 585.9707,4 -4,4"/>
<!-- Node107 -->
<g id="node1" class="node">
<title>Node107</title>
<polygon fill="#bfbfbf" stroke="#000000" points="0,-.5 0,-18.5 132.7139,-18.5 132.7139,-.5 0,-.5"/>
<text text-anchor="middle" x="66.3569" y="-6.5" font-family="Helvetica,sans-Serif" font-size="10.00" fill="#000000">CBasicKeyStore::GetKeys</text>
</g>
<!-- Node108 -->
<g id="node2" class="node">
<title>Node108</title>
<g id="a_node2"><a xlink:href="class_c_crypto_key_store.html#ae841dfd0bc11abf12e6bcacbe9f1f7b1" target="_top" xlink:title="CCryptoKeyStore::GetKeys">
<polygon fill="#ffffff" stroke="#000000" points="168.7139,-.5 168.7139,-18.5 306.4277,-18.5 306.4277,-.5 168.7139,-.5"/>
<text text-anchor="middle" x="237.5708" y="-6.5" font-family="Helvetica,sans-Serif" font-size="10.00" fill="#000000">CCryptoKeyStore::GetKeys</text>
</a>
</g>
</g>
<!-- Node107&#45;&gt;Node108 -->
<g id="edge1" class="edge">
<title>Node107&#45;&gt;Node108</title>
<path fill="none" stroke="#191970" d="M143.2405,-9.5C151.6652,-9.5 160.2038,-9.5 168.5253,-9.5"/>
<polygon fill="#191970" stroke="#191970" points="143.043,-6.0001 133.0429,-9.5 143.0429,-13.0001 143.043,-6.0001"/>
</g>
<!-- Node109 -->
<g id="node3" class="node">
<title>Node109</title>
<g id="a_node3"><a xlink:href="class_c_wallet.html#a880d5c8c69fa55759c1e3782ccb7ae41" target="_top" xlink:title="CWallet::GetKeyBirthTimes">
<polygon fill="#ffffff" stroke="#000000" points="342.4277,-.5 342.4277,-18.5 479.3896,-18.5 479.3896,-.5 342.4277,-.5"/>
<text text-anchor="middle" x="410.9087" y="-6.5" font-family="Helvetica,sans-Serif" font-size="10.00" fill="#000000">CWallet::GetKeyBirthTimes</text>
</a>
</g>
</g>
<!-- Node108&#45;&gt;Node109 -->
<g id="edge2" class="edge">
<title>Node108&#45;&gt;Node109</title>
<path fill="none" stroke="#191970" d="M316.6217,-9.5C325.2357,-9.5 333.9509,-9.5 342.4233,-9.5"/>
<polygon fill="#191970" stroke="#191970" points="316.5766,-6.0001 306.5766,-9.5 316.5765,-13.0001 316.5766,-6.0001"/>
</g>
<!-- Node110 -->
<g id="node4" class="node">
<title>Node110</title>
<g id="a_node4"><a xlink:href="wallet__tests_8cpp.html#a73ce3a42e0b56b2e4516e55871d8590e" target="_top" xlink:title="dumpwallet">
<polygon fill="#ffffff" stroke="#000000" points="515.3896,-.5 515.3896,-18.5 581.9707,-18.5 581.9707,-.5 515.3896,-.5"/>
<text text-anchor="middle" x="548.6802" y="-6.5" font-family="Helvetica,sans-Serif" font-size="10.00" fill="#000000">dumpwallet</text>
</a>
</g>
</g>
<!-- Node109&#45;&gt;Node110 -->
<g id="edge3" class="edge">
<title>Node109&#45;&gt;Node110</title>
<path fill="none" stroke="#191970" d="M489.5549,-9.5C498.5023,-9.5 507.2255,-9.5 515.1041,-9.5"/>
<polygon fill="#191970" stroke="#191970" points="489.3908,-6.0001 479.3908,-9.5 489.3908,-13.0001 489.3908,-6.0001"/>
</g>
</g>
</svg>
