<?xml version="1.0" encoding="UTF-8" standalone="no"?>
<!DOCTYPE svg PUBLIC "-//W3C//DTD SVG 1.1//EN"
 "http://www.w3.org/Graphics/SVG/1.1/DTD/svg11.dtd">
<!-- Generated by graphviz version 2.40.1 (20161225.0304)
 -->
<!-- Title: CHash160::Finalize Pages: 1 -->
<svg width="530pt" height="101pt"
 viewBox="0.00 0.00 529.78 101.00" xmlns="http://www.w3.org/2000/svg" xmlns:xlink="http://www.w3.org/1999/xlink">
<g id="graph0" class="graph" transform="scale(1 1) rotate(0) translate(4 97)">
<title>CHash160::Finalize</title>
<polygon fill="#ffffff" stroke="transparent" points="-4,4 -4,-97 525.7803,-97 525.7803,4 -4,4"/>
<!-- Node0 -->
<g id="node1" class="node">
<title>Node0</title>
<polygon fill="#bfbfbf" stroke="#000000" points="0,-37.5 0,-55.5 103.2656,-55.5 103.2656,-37.5 0,-37.5"/>
<text text-anchor="middle" x="51.6328" y="-43.5" font-family="Helvetica,sans-Serif" font-size="10.00" fill="#000000">CHash160::Finalize</text>
</g>
<!-- Node1 -->
<g id="node2" class="node">
<title>Node1</title>
<g id="a_node2"><a xlink:href="class_c_s_h_a256.html#a4259230be0caefa590bc324fc12b9b90" target="_top" xlink:title="CSHA256::Finalize">
<polygon fill="#ffffff" stroke="#000000" points="148.4307,-74.5 148.4307,-92.5 248.9131,-92.5 248.9131,-74.5 148.4307,-74.5"/>
<text text-anchor="middle" x="198.6719" y="-80.5" font-family="Helvetica,sans-Serif" font-size="10.00" fill="#000000">CSHA256::Finalize</text>
</a>
</g>
</g>
<!-- Node0&#45;&gt;Node1 -->
<g id="edge1" class="edge">
<title>Node0&#45;&gt;Node1</title>
<path fill="none" stroke="#191970" d="M87.6026,-55.5512C107.3464,-60.5194 132.029,-66.7304 153.1087,-72.0348"/>
<polygon fill="#191970" stroke="#191970" points="152.2671,-75.432 162.8189,-74.4782 153.9753,-68.6436 152.2671,-75.432"/>
</g>
<!-- Node2 -->
<g id="node3" class="node">
<title>Node2</title>
<g id="a_node3"><a xlink:href="class_c_r_i_p_e_m_d160.html#a221143b9d94af623d07c4f4ba1bf6007" target="_top" xlink:title="CRIPEMD160::Write">
<polygon fill="#ffffff" stroke="#000000" points="144.9175,-37.5 144.9175,-55.5 252.4263,-55.5 252.4263,-37.5 144.9175,-37.5"/>
<text text-anchor="middle" x="198.6719" y="-43.5" font-family="Helvetica,sans-Serif" font-size="10.00" fill="#000000">CRIPEMD160::Write</text>
</a>
</g>
</g>
<!-- Node0&#45;&gt;Node2 -->
<g id="edge2" class="edge">
<title>Node0&#45;&gt;Node2</title>
<path fill="none" stroke="#191970" d="M103.4733,-46.5C113.5192,-46.5 124.1582,-46.5 134.5431,-46.5"/>
<polygon fill="#191970" stroke="#191970" points="134.8119,-50.0001 144.8119,-46.5 134.8118,-43.0001 134.8119,-50.0001"/>
</g>
<!-- Node6 -->
<g id="node7" class="node">
<title>Node6</title>
<g id="a_node7"><a xlink:href="class_c_r_i_p_e_m_d160.html#a2a11566fbf9d1339b819833313fc4e51" target="_top" xlink:title="CRIPEMD160::Finalize">
<polygon fill="#ffffff" stroke="#000000" points="139.2656,-.5 139.2656,-18.5 258.0781,-18.5 258.0781,-.5 139.2656,-.5"/>
<text text-anchor="middle" x="198.6719" y="-6.5" font-family="Helvetica,sans-Serif" font-size="10.00" fill="#000000">CRIPEMD160::Finalize</text>
</a>
</g>
</g>
<!-- Node0&#45;&gt;Node6 -->
<g id="edge6" class="edge">
<title>Node0&#45;&gt;Node6</title>
<path fill="none" stroke="#191970" d="M87.6026,-37.4488C107.3464,-32.4806 132.029,-26.2696 153.1087,-20.9652"/>
<polygon fill="#191970" stroke="#191970" points="153.9753,-24.3564 162.8189,-18.5218 152.2671,-17.568 153.9753,-24.3564"/>
</g>
<!-- Node3 -->
<g id="node4" class="node">
<title>Node3</title>
<g id="a_node4"><a xlink:href="glibc__compat_8cpp.html#a0f46826ab0466591e136db24394923cf" target="_top" xlink:title="memcpy">
<polygon fill="#ffffff" stroke="#000000" points="331.7002,-55.5 331.7002,-73.5 385.4834,-73.5 385.4834,-55.5 331.7002,-55.5"/>
<text text-anchor="middle" x="358.5918" y="-61.5" font-family="Helvetica,sans-Serif" font-size="10.00" fill="#000000">memcpy</text>
</a>
</g>
</g>
<!-- Node2&#45;&gt;Node3 -->
<g id="edge3" class="edge">
<title>Node2&#45;&gt;Node3</title>
<path fill="none" stroke="#191970" d="M252.8135,-52.594C275.345,-55.13 300.9405,-58.011 321.3096,-60.3036"/>
<polygon fill="#191970" stroke="#191970" points="321.1122,-63.8034 331.4409,-61.444 321.8952,-56.8474 321.1122,-63.8034"/>
</g>
<!-- Node5 -->
<g id="node6" class="node">
<title>Node5</title>
<g id="a_node6"><a xlink:href="namespacesha256__shani.html#a97d2e267c87add9a1172d948e05ba471" target="_top" xlink:title="sha256_shani::Transform">
<polygon fill="#ffffff" stroke="#000000" points="294.0781,-18.5 294.0781,-36.5 423.1055,-36.5 423.1055,-18.5 294.0781,-18.5"/>
<text text-anchor="middle" x="358.5918" y="-24.5" font-family="Helvetica,sans-Serif" font-size="10.00" fill="#000000">sha256_shani::Transform</text>
</a>
</g>
</g>
<!-- Node2&#45;&gt;Node5 -->
<g id="edge5" class="edge">
<title>Node2&#45;&gt;Node5</title>
<path fill="none" stroke="#191970" d="M252.8135,-40.0675C262.839,-38.8763 273.4711,-37.6131 283.9795,-36.3646"/>
<polygon fill="#191970" stroke="#191970" points="284.4756,-39.8304 293.9928,-35.175 283.6497,-32.8793 284.4756,-39.8304"/>
</g>
<!-- Node4 -->
<g id="node5" class="node">
<title>Node4</title>
<g id="a_node5"><a xlink:href="glibc__compat_8cpp.html#a9778d49e9029dd75bc53ecbbf9f5e9a1" target="_top" xlink:title="memmove">
<polygon fill="#ffffff" stroke="#000000" points="459.1055,-55.5 459.1055,-73.5 521.7803,-73.5 521.7803,-55.5 459.1055,-55.5"/>
<text text-anchor="middle" x="490.4429" y="-61.5" font-family="Helvetica,sans-Serif" font-size="10.00" fill="#000000">memmove</text>
</a>
</g>
</g>
<!-- Node3&#45;&gt;Node4 -->
<g id="edge4" class="edge">
<title>Node3&#45;&gt;Node4</title>
<path fill="none" stroke="#191970" d="M385.592,-64.5C403.7675,-64.5 428.0929,-64.5 448.7377,-64.5"/>
<polygon fill="#191970" stroke="#191970" points="448.839,-68.0001 458.839,-64.5 448.839,-61.0001 448.839,-68.0001"/>
</g>
</g>
</svg>
