<?xml version="1.0" encoding="UTF-8" standalone="no"?>
<!DOCTYPE svg PUBLIC "-//W3C//DTD SVG 1.1//EN"
 "http://www.w3.org/Graphics/SVG/1.1/DTD/svg11.dtd">
<!-- Generated by graphviz version 2.40.1 (20161225.0304)
 -->
<!-- Title: CPartialMerkleTree::TraverseAndBuild Pages: 1 -->
<svg width="253pt" height="55pt"
 viewBox="0.00 0.00 253.09 55.00" xmlns="http://www.w3.org/2000/svg" xmlns:xlink="http://www.w3.org/1999/xlink">
<g id="graph0" class="graph" transform="scale(1 1) rotate(0) translate(4 51)">
<title>CPartialMerkleTree::TraverseAndBuild</title>
<polygon fill="#ffffff" stroke="transparent" points="-4,4 -4,-51 249.0898,-51 249.0898,4 -4,4"/>
<!-- Node75 -->
<g id="node1" class="node">
<title>Node75</title>
<polygon fill="#bfbfbf" stroke="#000000" points="0,-.5 0,-28.5 101.7666,-28.5 101.7666,-.5 0,-.5"/>
<text text-anchor="start" x="8" y="-16.5" font-family="Helvetica,sans-Serif" font-size="10.00" fill="#000000">CPartialMerkleTree</text>
<text text-anchor="middle" x="50.8833" y="-6.5" font-family="Helvetica,sans-Serif" font-size="10.00" fill="#000000">::TraverseAndBuild</text>
</g>
<!-- Node75&#45;&gt;Node75 -->
<g id="edge1" class="edge">
<title>Node75&#45;&gt;Node75</title>
<path fill="none" stroke="#191970" d="M25.5755,-38.4873C28.2628,-43.4413 36.6987,-47 50.8833,-47 73.5786,-47 81.5574,-37.8898 74.8198,-28.5305"/>
<polygon fill="#191970" stroke="#191970" points="29.0496,-38.9145 26.9468,-28.5305 22.1151,-37.9594 29.0496,-38.9145"/>
</g>
<!-- Node76 -->
<g id="node2" class="node">
<title>Node76</title>
<g id="a_node2"><a xlink:href="class_c_partial_merkle_tree.html#a0656767dc0d8f3d603c54e5be21d3890" target="_top" xlink:title="Construct a partial merkle tree from a list of transaction ids, and a mask that selects a subset of t...">
<polygon fill="#ffffff" stroke="#000000" points="137.7666,-.5 137.7666,-28.5 245.0898,-28.5 245.0898,-.5 137.7666,-.5"/>
<text text-anchor="start" x="145.7666" y="-16.5" font-family="Helvetica,sans-Serif" font-size="10.00" fill="#000000">CPartialMerkleTree</text>
<text text-anchor="middle" x="191.4282" y="-6.5" font-family="Helvetica,sans-Serif" font-size="10.00" fill="#000000">::CPartialMerkleTree</text>
</a>
</g>
</g>
<!-- Node75&#45;&gt;Node76 -->
<g id="edge2" class="edge">
<title>Node75&#45;&gt;Node76</title>
<path fill="none" stroke="#191970" d="M112.2494,-14.5C120.7345,-14.5 129.3956,-14.5 137.7271,-14.5"/>
<polygon fill="#191970" stroke="#191970" points="112.0209,-11.0001 102.0208,-14.5 112.0208,-18.0001 112.0209,-11.0001"/>
</g>
</g>
</svg>
