<?xml version="1.0" encoding="UTF-8" standalone="no"?>
<!DOCTYPE svg PUBLIC "-//W3C//DTD SVG 1.1//EN"
 "http://www.w3.org/Graphics/SVG/1.1/DTD/svg11.dtd">
<!-- Generated by graphviz version 2.40.1 (20161225.0304)
 -->
<!-- Title: QValueComboBox::value Pages: 1 -->
<svg width="452pt" height="37pt"
 viewBox="0.00 0.00 451.52 37.00" xmlns="http://www.w3.org/2000/svg" xmlns:xlink="http://www.w3.org/1999/xlink">
<g id="graph0" class="graph" transform="scale(1 1) rotate(0) translate(4 33)">
<title>QValueComboBox::value</title>
<polygon fill="#ffffff" stroke="transparent" points="-4,4 -4,-33 447.5205,-33 447.5205,4 -4,4"/>
<!-- Node13 -->
<g id="node1" class="node">
<title>Node13</title>
<polygon fill="#bfbfbf" stroke="#000000" points="0,-5.5 0,-23.5 127.5479,-23.5 127.5479,-5.5 0,-5.5"/>
<text text-anchor="middle" x="63.7739" y="-11.5" font-family="Helvetica,sans-Serif" font-size="10.00" fill="#000000">QValueComboBox::value</text>
</g>
<!-- Node14 -->
<g id="node2" class="node">
<title>Node14</title>
<g id="a_node2"><a xlink:href="class_q_value_combo_box.html#af192c68c0c82f33000d8c1be8c013d2d" target="_top" xlink:title="QValueComboBox::setValue">
<polygon fill="#ffffff" stroke="#000000" points="163.5479,-5.5 163.5479,-23.5 305.3682,-23.5 305.3682,-5.5 163.5479,-5.5"/>
<text text-anchor="middle" x="234.458" y="-11.5" font-family="Helvetica,sans-Serif" font-size="10.00" fill="#000000">QValueComboBox::setValue</text>
</a>
</g>
</g>
<!-- Node13&#45;&gt;Node14 -->
<g id="edge1" class="edge">
<title>Node13&#45;&gt;Node14</title>
<path fill="none" stroke="#191970" d="M138.0245,-14.5C146.4723,-14.5 155.0675,-14.5 163.4715,-14.5"/>
<polygon fill="#191970" stroke="#191970" points="137.816,-11.0001 127.816,-14.5 137.816,-18.0001 137.816,-11.0001"/>
</g>
<!-- Node15 -->
<g id="node3" class="node">
<title>Node15</title>
<g id="a_node3"><a xlink:href="class_bitcoin_amount_field.html#a623534b2ad508278c5fa8f4c7f363804" target="_top" xlink:title="Change unit used to display amount. ">
<polygon fill="#ffffff" stroke="#000000" points="341.3682,-.5 341.3682,-28.5 443.5205,-28.5 443.5205,-.5 341.3682,-.5"/>
<text text-anchor="start" x="349.3682" y="-16.5" font-family="Helvetica,sans-Serif" font-size="10.00" fill="#000000">BitcoinAmountField</text>
<text text-anchor="middle" x="392.4443" y="-6.5" font-family="Helvetica,sans-Serif" font-size="10.00" fill="#000000">::setDisplayUnit</text>
</a>
</g>
</g>
<!-- Node14&#45;&gt;Node15 -->
<g id="edge2" class="edge">
<title>Node14&#45;&gt;Node15</title>
<path fill="none" stroke="#191970" d="M315.7164,-14.5C324.3459,-14.5 332.9393,-14.5 341.0842,-14.5"/>
<polygon fill="#191970" stroke="#191970" points="315.5943,-11.0001 305.5943,-14.5 315.5942,-18.0001 315.5943,-11.0001"/>
</g>
</g>
</svg>
