<?xml version="1.0" encoding="UTF-8" standalone="no"?>
<!DOCTYPE svg PUBLIC "-//W3C//DTD SVG 1.1//EN"
 "http://www.w3.org/Graphics/SVG/1.1/DTD/svg11.dtd">
<!-- Generated by graphviz version 2.40.1 (20161225.0304)
 -->
<!-- Title: CWallet::LoadMinVersion Pages: 1 -->
<svg width="581pt" height="37pt"
 viewBox="0.00 0.00 580.77 37.00" xmlns="http://www.w3.org/2000/svg" xmlns:xlink="http://www.w3.org/1999/xlink">
<g id="graph0" class="graph" transform="scale(1 1) rotate(0) translate(4 33)">
<title>CWallet::LoadMinVersion</title>
<polygon fill="#ffffff" stroke="transparent" points="-4,4 -4,-33 576.7715,-33 576.7715,4 -4,4"/>
<!-- Node374 -->
<g id="node1" class="node">
<title>Node374</title>
<polygon fill="#bfbfbf" stroke="#000000" points="0,-5.5 0,-23.5 127.9141,-23.5 127.9141,-5.5 0,-5.5"/>
<text text-anchor="middle" x="63.957" y="-11.5" font-family="Helvetica,sans-Serif" font-size="10.00" fill="#000000">CWallet::LoadMinVersion</text>
</g>
<!-- Node375 -->
<g id="node2" class="node">
<title>Node375</title>
<g id="a_node2"><a xlink:href="class_wallet_batch.html#af17758ea2f62ca2d80def7ae780e81f8" target="_top" xlink:title="WalletBatch::LoadWallet">
<polygon fill="#ffffff" stroke="#000000" points="163.9141,-5.5 163.9141,-23.5 288.1221,-23.5 288.1221,-5.5 163.9141,-5.5"/>
<text text-anchor="middle" x="226.0181" y="-11.5" font-family="Helvetica,sans-Serif" font-size="10.00" fill="#000000">WalletBatch::LoadWallet</text>
</a>
</g>
</g>
<!-- Node374&#45;&gt;Node375 -->
<g id="edge1" class="edge">
<title>Node374&#45;&gt;Node375</title>
<path fill="none" stroke="#191970" d="M138.0316,-14.5C146.6315,-14.5 155.3366,-14.5 163.7558,-14.5"/>
<polygon fill="#191970" stroke="#191970" points="138.0079,-11.0001 128.0078,-14.5 138.0078,-18.0001 138.0079,-11.0001"/>
</g>
<!-- Node376 -->
<g id="node3" class="node">
<title>Node376</title>
<g id="a_node3"><a xlink:href="group___actions.html#ga5d7b244b8ed0cbe24233ee0b6ca3cae0" target="_top" xlink:title="CWallet::LoadWallet">
<polygon fill="#ffffff" stroke="#000000" points="324.1221,-5.5 324.1221,-23.5 429.9805,-23.5 429.9805,-5.5 324.1221,-5.5"/>
<text text-anchor="middle" x="377.0513" y="-11.5" font-family="Helvetica,sans-Serif" font-size="10.00" fill="#000000">CWallet::LoadWallet</text>
</a>
</g>
</g>
<!-- Node375&#45;&gt;Node376 -->
<g id="edge2" class="edge">
<title>Node375&#45;&gt;Node376</title>
<path fill="none" stroke="#191970" d="M298.4103,-14.5C307.0494,-14.5 315.7432,-14.5 324.0382,-14.5"/>
<polygon fill="#191970" stroke="#191970" points="298.3211,-11.0001 288.321,-14.5 298.321,-18.0001 298.3211,-11.0001"/>
</g>
<!-- Node377 -->
<g id="node4" class="node">
<title>Node377</title>
<g id="a_node4"><a xlink:href="struct_wallet_testing_setup.html#a0125ada997b4b16803624bfd537d8902" target="_top" xlink:title="WalletTestingSetup\l::WalletTestingSetup">
<polygon fill="#ffffff" stroke="#000000" points="465.9805,-.5 465.9805,-28.5 572.7715,-28.5 572.7715,-.5 465.9805,-.5"/>
<text text-anchor="start" x="473.9805" y="-16.5" font-family="Helvetica,sans-Serif" font-size="10.00" fill="#000000">WalletTestingSetup</text>
<text text-anchor="middle" x="519.376" y="-6.5" font-family="Helvetica,sans-Serif" font-size="10.00" fill="#000000">::WalletTestingSetup</text>
</a>
</g>
</g>
<!-- Node376&#45;&gt;Node377 -->
<g id="edge3" class="edge">
<title>Node376&#45;&gt;Node377</title>
<path fill="none" stroke="#191970" d="M440.0527,-14.5C448.665,-14.5 457.4388,-14.5 465.8606,-14.5"/>
<polygon fill="#191970" stroke="#191970" points="440.0478,-11.0001 430.0477,-14.5 440.0477,-18.0001 440.0478,-11.0001"/>
</g>
</g>
</svg>
