<?xml version="1.0" encoding="UTF-8" standalone="no"?>
<!DOCTYPE svg PUBLIC "-//W3C//DTD SVG 1.1//EN"
 "http://www.w3.org/Graphics/SVG/1.1/DTD/svg11.dtd">
<!-- Generated by graphviz version 2.40.1 (20161225.0304)
 -->
<!-- Title: RecentRequestsTableModel::data Pages: 1 -->
<svg width="487pt" height="185pt"
 viewBox="0.00 0.00 486.70 185.00" xmlns="http://www.w3.org/2000/svg" xmlns:xlink="http://www.w3.org/1999/xlink">
<g id="graph0" class="graph" transform="scale(1 1) rotate(0) translate(4 181)">
<title>RecentRequestsTableModel::data</title>
<polygon fill="#ffffff" stroke="transparent" points="-4,4 -4,-181 482.6963,-181 482.6963,4 -4,4"/>
<!-- Node33 -->
<g id="node1" class="node">
<title>Node33</title>
<polygon fill="#bfbfbf" stroke="#000000" points="0,-69.5 0,-97.5 141.0732,-97.5 141.0732,-69.5 0,-69.5"/>
<text text-anchor="start" x="8" y="-85.5" font-family="Helvetica,sans-Serif" font-size="10.00" fill="#000000">RecentRequestsTableModel</text>
<text text-anchor="middle" x="70.5366" y="-75.5" font-family="Helvetica,sans-Serif" font-size="10.00" fill="#000000">::data</text>
</g>
<!-- Node34 -->
<g id="node2" class="node">
<title>Node34</title>
<g id="a_node2"><a xlink:href="class_recent_requests_table_model.html#a744b879be9546793860528f6c5350289" target="_top" xlink:title="RecentRequestsTableModel\l::index">
<polygon fill="#ffffff" stroke="#000000" points="182.4419,-148.5 182.4419,-176.5 323.5151,-176.5 323.5151,-148.5 182.4419,-148.5"/>
<text text-anchor="start" x="190.4419" y="-164.5" font-family="Helvetica,sans-Serif" font-size="10.00" fill="#000000">RecentRequestsTableModel</text>
<text text-anchor="middle" x="252.9785" y="-154.5" font-family="Helvetica,sans-Serif" font-size="10.00" fill="#000000">::index</text>
</a>
</g>
</g>
<!-- Node33&#45;&gt;Node34 -->
<g id="edge1" class="edge">
<title>Node33&#45;&gt;Node34</title>
<path fill="none" stroke="#191970" d="M94.0319,-97.5116C115.216,-109.7383 147.4927,-127.3725 177.0732,-139.5 181.8868,-141.4735 186.9328,-143.3654 192.0378,-145.1568"/>
<polygon fill="#191970" stroke="#191970" points="191.2881,-148.5975 201.8822,-148.4731 193.5229,-141.9638 191.2881,-148.5975"/>
</g>
<!-- Node35 -->
<g id="node3" class="node">
<title>Node35</title>
<g id="a_node3"><a xlink:href="namespace_g_u_i_util.html#aae732a04fea25190081120bf0cc773e8" target="_top" xlink:title="GUIUtil::dateTimeStr">
<polygon fill="#ffffff" stroke="#000000" points="199.041,-111.5 199.041,-129.5 306.916,-129.5 306.916,-111.5 199.041,-111.5"/>
<text text-anchor="middle" x="252.9785" y="-117.5" font-family="Helvetica,sans-Serif" font-size="10.00" fill="#000000">GUIUtil::dateTimeStr</text>
</a>
</g>
</g>
<!-- Node33&#45;&gt;Node35 -->
<g id="edge2" class="edge">
<title>Node33&#45;&gt;Node35</title>
<path fill="none" stroke="#191970" d="M139.7702,-97.5409C159.1623,-101.4737 179.9641,-105.6924 198.3786,-109.4269"/>
<polygon fill="#191970" stroke="#191970" points="197.8429,-112.8894 208.3391,-111.4469 199.2343,-106.0291 197.8429,-112.8894"/>
</g>
<!-- Node36 -->
<g id="node4" class="node">
<title>Node36</title>
<g id="a_node4"><a xlink:href="class_bitcoin_units.html#ab07437e5a788c80a82d75e3714bd3925" target="_top" xlink:title="Format as string. ">
<polygon fill="#ffffff" stroke="#000000" points="201.6313,-74.5 201.6313,-92.5 304.3257,-92.5 304.3257,-74.5 201.6313,-74.5"/>
<text text-anchor="middle" x="252.9785" y="-80.5" font-family="Helvetica,sans-Serif" font-size="10.00" fill="#000000">BitcoinUnits::format</text>
</a>
</g>
</g>
<!-- Node33&#45;&gt;Node36 -->
<g id="edge3" class="edge">
<title>Node33&#45;&gt;Node36</title>
<path fill="none" stroke="#191970" d="M141.0734,-83.5C157.6065,-83.5 175.0965,-83.5 191.2124,-83.5"/>
<polygon fill="#191970" stroke="#191970" points="191.5807,-87.0001 201.5806,-83.5 191.5806,-80.0001 191.5807,-87.0001"/>
</g>
<!-- Node40 -->
<g id="node8" class="node">
<title>Node40</title>
<g id="a_node8"><a xlink:href="class_wallet_model.html#a96d53e56b3f8f07537ea2523f7a7d300" target="_top" xlink:title="WalletModel::getOptionsModel">
<polygon fill="#ffffff" stroke="#000000" points="177.0732,-37.5 177.0732,-55.5 328.8838,-55.5 328.8838,-37.5 177.0732,-37.5"/>
<text text-anchor="middle" x="252.9785" y="-43.5" font-family="Helvetica,sans-Serif" font-size="10.00" fill="#000000">WalletModel::getOptionsModel</text>
</a>
</g>
</g>
<!-- Node33&#45;&gt;Node40 -->
<g id="edge7" class="edge">
<title>Node33&#45;&gt;Node40</title>
<path fill="none" stroke="#191970" d="M139.7702,-69.4591C159.1623,-65.5263 179.9641,-61.3076 198.3786,-57.5731"/>
<polygon fill="#191970" stroke="#191970" points="199.2343,-60.9709 208.3391,-55.5531 197.8429,-54.1106 199.2343,-60.9709"/>
</g>
<!-- Node41 -->
<g id="node9" class="node">
<title>Node41</title>
<g id="a_node9"><a xlink:href="class_options_model.html#a00a1f0842f764f64086e7d5d42bbce63" target="_top" xlink:title="OptionsModel::getDisplayUnit">
<polygon fill="#ffffff" stroke="#000000" points="179.1143,-.5 179.1143,-18.5 326.8428,-18.5 326.8428,-.5 179.1143,-.5"/>
<text text-anchor="middle" x="252.9785" y="-6.5" font-family="Helvetica,sans-Serif" font-size="10.00" fill="#000000">OptionsModel::getDisplayUnit</text>
</a>
</g>
</g>
<!-- Node33&#45;&gt;Node41 -->
<g id="edge8" class="edge">
<title>Node33&#45;&gt;Node41</title>
<path fill="none" stroke="#191970" d="M93.4462,-69.2896C114.5067,-56.7598 146.9388,-38.7874 177.0732,-27.5 183.379,-25.138 190.0986,-23.0146 196.8333,-21.1261"/>
<polygon fill="#191970" stroke="#191970" points="197.8915,-24.4666 206.6648,-18.5269 196.1024,-17.6991 197.8915,-24.4666"/>
</g>
<!-- Node37 -->
<g id="node5" class="node">
<title>Node37</title>
<g id="a_node5"><a xlink:href="class_bitcoin_units.html#a81cbc41480adfb600dad79711d336e5f" target="_top" xlink:title="Is unit ID valid? ">
<polygon fill="#ffffff" stroke="#000000" points="374.3296,-111.5 374.3296,-129.5 469.2505,-129.5 469.2505,-111.5 374.3296,-111.5"/>
<text text-anchor="middle" x="421.79" y="-117.5" font-family="Helvetica,sans-Serif" font-size="10.00" fill="#000000">BitcoinUnits::valid</text>
</a>
</g>
</g>
<!-- Node36&#45;&gt;Node37 -->
<g id="edge4" class="edge">
<title>Node36&#45;&gt;Node37</title>
<path fill="none" stroke="#191970" d="M294.2745,-92.5512C317.352,-97.6093 346.3068,-103.9556 370.7901,-109.3219"/>
<polygon fill="#191970" stroke="#191970" points="370.1107,-112.756 380.6282,-111.4782 371.6094,-105.9183 370.1107,-112.756"/>
</g>
<!-- Node38 -->
<g id="node6" class="node">
<title>Node38</title>
<g id="a_node6"><a xlink:href="class_bitcoin_units.html#ae967b9e6ecbb8f041bfe398d27533b09" target="_top" xlink:title="Number of Satoshis (1e&#45;8) per unit. ">
<polygon fill="#ffffff" stroke="#000000" points="372.1079,-74.5 372.1079,-92.5 471.4722,-92.5 471.4722,-74.5 372.1079,-74.5"/>
<text text-anchor="middle" x="421.79" y="-80.5" font-family="Helvetica,sans-Serif" font-size="10.00" fill="#000000">BitcoinUnits::factor</text>
</a>
</g>
</g>
<!-- Node36&#45;&gt;Node38 -->
<g id="edge5" class="edge">
<title>Node36&#45;&gt;Node38</title>
<path fill="none" stroke="#191970" d="M304.5448,-83.5C322.6251,-83.5 343.0872,-83.5 361.798,-83.5"/>
<polygon fill="#191970" stroke="#191970" points="361.9865,-87.0001 371.9864,-83.5 361.9864,-80.0001 361.9865,-87.0001"/>
</g>
<!-- Node39 -->
<g id="node7" class="node">
<title>Node39</title>
<g id="a_node7"><a xlink:href="class_bitcoin_units.html#a3f0fc21634520ea06c684ba0d7e25f2f" target="_top" xlink:title="Number of decimals left. ">
<polygon fill="#ffffff" stroke="#000000" points="364.8838,-37.5 364.8838,-55.5 478.6963,-55.5 478.6963,-37.5 364.8838,-37.5"/>
<text text-anchor="middle" x="421.79" y="-43.5" font-family="Helvetica,sans-Serif" font-size="10.00" fill="#000000">BitcoinUnits::decimals</text>
</a>
</g>
</g>
<!-- Node36&#45;&gt;Node39 -->
<g id="edge6" class="edge">
<title>Node36&#45;&gt;Node39</title>
<path fill="none" stroke="#191970" d="M294.2745,-74.4488C317.352,-69.3907 346.3068,-63.0444 370.7901,-57.6781"/>
<polygon fill="#191970" stroke="#191970" points="371.6094,-61.0817 380.6282,-55.5218 370.1107,-54.244 371.6094,-61.0817"/>
</g>
</g>
</svg>
