<?xml version="1.0" encoding="UTF-8" standalone="no"?>
<!DOCTYPE svg PUBLIC "-//W3C//DTD SVG 1.1//EN"
 "http://www.w3.org/Graphics/SVG/1.1/DTD/svg11.dtd">
<!-- Generated by graphviz version 2.40.1 (20161225.0304)
 -->
<!-- Title: AddressBookPage::selectNewAddress Pages: 1 -->
<svg width="622pt" height="69pt"
 viewBox="0.00 0.00 621.89 69.00" xmlns="http://www.w3.org/2000/svg" xmlns:xlink="http://www.w3.org/1999/xlink">
<g id="graph0" class="graph" transform="scale(1 1) rotate(0) translate(4 65)">
<title>AddressBookPage::selectNewAddress</title>
<polygon fill="#ffffff" stroke="transparent" points="-4,4 -4,-65 617.8896,-65 617.8896,4 -4,4"/>
<!-- Node62 -->
<g id="node1" class="node">
<title>Node62</title>
<polygon fill="#bfbfbf" stroke="#000000" points="0,-32.5 0,-60.5 150.5166,-60.5 150.5166,-32.5 0,-32.5"/>
<text text-anchor="start" x="8" y="-48.5" font-family="Helvetica,sans-Serif" font-size="10.00" fill="#000000">AddressBookPage::selectNew</text>
<text text-anchor="middle" x="75.2583" y="-38.5" font-family="Helvetica,sans-Serif" font-size="10.00" fill="#000000">Address</text>
</g>
<!-- Node63 -->
<g id="node2" class="node">
<title>Node63</title>
<g id="a_node2"><a xlink:href="class_address_table_model.html#a74e9123471948255f87271c823c82854" target="_top" xlink:title="AddressTableModel::\lindex">
<polygon fill="#ffffff" stroke="#000000" points="186.5166,-32.5 186.5166,-60.5 295.9004,-60.5 295.9004,-32.5 186.5166,-32.5"/>
<text text-anchor="start" x="194.5166" y="-48.5" font-family="Helvetica,sans-Serif" font-size="10.00" fill="#000000">AddressTableModel::</text>
<text text-anchor="middle" x="241.2085" y="-38.5" font-family="Helvetica,sans-Serif" font-size="10.00" fill="#000000">index</text>
</a>
</g>
</g>
<!-- Node62&#45;&gt;Node63 -->
<g id="edge1" class="edge">
<title>Node62&#45;&gt;Node63</title>
<path fill="none" stroke="#191970" d="M150.949,-46.5C159.4573,-46.5 168.0686,-46.5 176.4212,-46.5"/>
<polygon fill="#191970" stroke="#191970" points="176.4571,-50.0001 186.457,-46.5 176.457,-43.0001 176.4571,-50.0001"/>
</g>
<!-- Node64 -->
<g id="node3" class="node">
<title>Node64</title>
<g id="a_node3"><a xlink:href="class_address_table_model.html#a79b07007c147962c0119310ebd4931c1" target="_top" xlink:title="AddressTableModel::data">
<polygon fill="#ffffff" stroke="#000000" points="331.9004,-37.5 331.9004,-55.5 460.7471,-55.5 460.7471,-37.5 331.9004,-37.5"/>
<text text-anchor="middle" x="396.3237" y="-43.5" font-family="Helvetica,sans-Serif" font-size="10.00" fill="#000000">AddressTableModel::data</text>
</a>
</g>
</g>
<!-- Node63&#45;&gt;Node64 -->
<g id="edge2" class="edge">
<title>Node63&#45;&gt;Node64</title>
<path fill="none" stroke="#191970" d="M296.3331,-40.0075C304.5947,-39.8128 313.2279,-39.7285 321.8114,-39.7546"/>
<polygon fill="#191970" stroke="#191970" points="321.8113,-43.2546 331.8394,-39.836 321.8682,-36.2549 321.8113,-43.2546"/>
</g>
<!-- Node66 -->
<g id="node5" class="node">
<title>Node66</title>
<g id="a_node5"><a xlink:href="class_address_table_priv.html#af311eb7d0189a74a508d7ad0f563f307" target="_top" xlink:title="AddressTablePriv::index">
<polygon fill="#ffffff" stroke="#000000" points="334.686,-.5 334.686,-18.5 457.9614,-18.5 457.9614,-.5 334.686,-.5"/>
<text text-anchor="middle" x="396.3237" y="-6.5" font-family="Helvetica,sans-Serif" font-size="10.00" fill="#000000">AddressTablePriv::index</text>
</a>
</g>
</g>
<!-- Node63&#45;&gt;Node66 -->
<g id="edge5" class="edge">
<title>Node63&#45;&gt;Node66</title>
<path fill="none" stroke="#191970" d="M296.3331,-33.351C313.3516,-29.2915 331.9469,-24.8559 348.4356,-20.9229"/>
<polygon fill="#191970" stroke="#191970" points="349.4819,-24.2716 358.3969,-18.5468 347.8577,-17.4626 349.4819,-24.2716"/>
</g>
<!-- Node64&#45;&gt;Node63 -->
<g id="edge3" class="edge">
<title>Node64&#45;&gt;Node63</title>
<path fill="none" stroke="#191970" d="M331.8394,-53.164C323.4517,-53.2753 314.8539,-53.2786 306.4538,-53.1738"/>
<polygon fill="#191970" stroke="#191970" points="306.3942,-49.6723 296.3331,-52.9925 306.2687,-56.6712 306.3942,-49.6723"/>
</g>
<!-- Node65 -->
<g id="node4" class="node">
<title>Node65</title>
<g id="a_node4"><a xlink:href="namespace_g_u_i_util.html#af6b9624383a5313a5d856c59913b599b" target="_top" xlink:title="GUIUtil::fixedPitchFont">
<polygon fill="#ffffff" stroke="#000000" points="496.7471,-37.5 496.7471,-55.5 613.8896,-55.5 613.8896,-37.5 496.7471,-37.5"/>
<text text-anchor="middle" x="555.3184" y="-43.5" font-family="Helvetica,sans-Serif" font-size="10.00" fill="#000000">GUIUtil::fixedPitchFont</text>
</a>
</g>
</g>
<!-- Node64&#45;&gt;Node65 -->
<g id="edge4" class="edge">
<title>Node64&#45;&gt;Node65</title>
<path fill="none" stroke="#191970" d="M460.9929,-46.5C469.3666,-46.5 477.9679,-46.5 486.4071,-46.5"/>
<polygon fill="#191970" stroke="#191970" points="486.5946,-50.0001 496.5946,-46.5 486.5945,-43.0001 486.5946,-50.0001"/>
</g>
</g>
</svg>
