<?xml version="1.0" encoding="UTF-8" standalone="no"?>
<!DOCTYPE svg PUBLIC "-//W3C//DTD SVG 1.1//EN"
 "http://www.w3.org/Graphics/SVG/1.1/DTD/svg11.dtd">
<!-- Generated by graphviz version 2.40.1 (20161225.0304)
 -->
<!-- Title: CCryptoKeyStore::AddCryptedKey Pages: 1 -->
<svg width="344pt" height="64pt"
 viewBox="0.00 0.00 344.09 64.00" xmlns="http://www.w3.org/2000/svg" xmlns:xlink="http://www.w3.org/1999/xlink">
<g id="graph0" class="graph" transform="scale(1 1) rotate(0) translate(4 60)">
<title>CCryptoKeyStore::AddCryptedKey</title>
<polygon fill="#ffffff" stroke="transparent" points="-4,4 -4,-60 340.0908,-60 340.0908,4 -4,4"/>
<!-- Node27 -->
<g id="node1" class="node">
<title>Node27</title>
<polygon fill="#bfbfbf" stroke="#000000" points="0,-18.5 0,-36.5 169.4033,-36.5 169.4033,-18.5 0,-18.5"/>
<text text-anchor="middle" x="84.7017" y="-24.5" font-family="Helvetica,sans-Serif" font-size="10.00" fill="#000000">CCryptoKeyStore::AddCryptedKey</text>
</g>
<!-- Node28 -->
<g id="node2" class="node">
<title>Node28</title>
<g id="a_node2"><a xlink:href="group__map_wallet.html#ga9bd8ca47110186b31c258308d3bbd7c2" target="_top" xlink:title="Adds an encrypted key to the store, and saves it to disk. ">
<polygon fill="#ffffff" stroke="#000000" points="207.6299,-37.5 207.6299,-55.5 333.8643,-55.5 333.8643,-37.5 207.6299,-37.5"/>
<text text-anchor="middle" x="270.7471" y="-43.5" font-family="Helvetica,sans-Serif" font-size="10.00" fill="#000000">CWallet::AddCryptedKey</text>
</a>
</g>
</g>
<!-- Node27&#45;&gt;Node28 -->
<g id="edge1" class="edge">
<title>Node27&#45;&gt;Node28</title>
<path fill="none" stroke="#191970" d="M179.7404,-37.2059C189.1311,-38.1649 198.4944,-39.1212 207.4472,-40.0355"/>
<polygon fill="#191970" stroke="#191970" points="179.8618,-33.7002 169.5579,-36.166 179.1505,-40.6639 179.8618,-33.7002"/>
</g>
<!-- Node29 -->
<g id="node3" class="node">
<title>Node29</title>
<g id="a_node3"><a xlink:href="group__map_wallet.html#ga01fbd78238d4ef833d059f12a7e8ac9f" target="_top" xlink:title="Adds an encrypted key to the store, without saving it to disk (used by LoadWallet) ...">
<polygon fill="#ffffff" stroke="#000000" points="205.4033,-.5 205.4033,-18.5 336.0908,-18.5 336.0908,-.5 205.4033,-.5"/>
<text text-anchor="middle" x="270.7471" y="-6.5" font-family="Helvetica,sans-Serif" font-size="10.00" fill="#000000">CWallet::LoadCryptedKey</text>
</a>
</g>
</g>
<!-- Node27&#45;&gt;Node29 -->
<g id="edge2" class="edge">
<title>Node27&#45;&gt;Node29</title>
<path fill="none" stroke="#191970" d="M179.6908,-18.3097C188.329,-17.474 196.9445,-16.6404 205.2393,-15.8379"/>
<polygon fill="#191970" stroke="#191970" points="179.1743,-14.8433 169.5579,-19.2901 179.8485,-21.8107 179.1743,-14.8433"/>
</g>
</g>
</svg>
