<?xml version="1.0" encoding="UTF-8" standalone="no"?>
<!DOCTYPE svg PUBLIC "-//W3C//DTD SVG 1.1//EN"
 "http://www.w3.org/Graphics/SVG/1.1/DTD/svg11.dtd">
<!-- Generated by graphviz version 2.40.1 (20161225.0304)
 -->
<!-- Title: CConnman::ProcessOneShot Pages: 1 -->
<svg width="873pt" height="365pt"
 viewBox="0.00 0.00 872.87 365.00" xmlns="http://www.w3.org/2000/svg" xmlns:xlink="http://www.w3.org/1999/xlink">
<g id="graph0" class="graph" transform="scale(1 1) rotate(0) translate(4 361)">
<title>CConnman::ProcessOneShot</title>
<polygon fill="#ffffff" stroke="transparent" points="-4,4 -4,-361 868.874,-361 868.874,4 -4,4"/>
<!-- Node481 -->
<g id="node1" class="node">
<title>Node481</title>
<polygon fill="#bfbfbf" stroke="#000000" points="0,-224.5 0,-242.5 147.7334,-242.5 147.7334,-224.5 0,-224.5"/>
<text text-anchor="middle" x="73.8667" y="-230.5" font-family="Helvetica,sans-Serif" font-size="10.00" fill="#000000">CConnman::ProcessOneShot</text>
</g>
<!-- Node482 -->
<g id="node2" class="node">
<title>Node482</title>
<g id="a_node2"><a xlink:href="class_c_connman.html#a5e42e06d446f31b4f2012796ff8d3e42" target="_top" xlink:title="CConnman::OpenNetworkConnection">
<polygon fill="#ffffff" stroke="#000000" points="183.7334,-224.5 183.7334,-242.5 367.5996,-242.5 367.5996,-224.5 183.7334,-224.5"/>
<text text-anchor="middle" x="275.6665" y="-230.5" font-family="Helvetica,sans-Serif" font-size="10.00" fill="#000000">CConnman::OpenNetworkConnection</text>
</a>
</g>
</g>
<!-- Node481&#45;&gt;Node482 -->
<g id="edge1" class="edge">
<title>Node481&#45;&gt;Node482</title>
<path fill="none" stroke="#191970" d="M147.8636,-233.5C156.1912,-233.5 164.7825,-233.5 173.3873,-233.5"/>
<polygon fill="#191970" stroke="#191970" points="173.4796,-237.0001 183.4796,-233.5 173.4796,-230.0001 173.4796,-237.0001"/>
</g>
<!-- Node483 -->
<g id="node3" class="node">
<title>Node483</title>
<g id="a_node3"><a xlink:href="net_8cpp.html#a16fa1bd4d34c4c29c90903fc3cdf7517" target="_top" xlink:title="check whether a given address is potentially local ">
<polygon fill="#ffffff" stroke="#000000" points="627.3477,-338.5 627.3477,-356.5 675.0322,-356.5 675.0322,-338.5 627.3477,-338.5"/>
<text text-anchor="middle" x="651.1899" y="-344.5" font-family="Helvetica,sans-Serif" font-size="10.00" fill="#000000">IsLocal</text>
</a>
</g>
</g>
<!-- Node482&#45;&gt;Node483 -->
<g id="edge2" class="edge">
<title>Node482&#45;&gt;Node483</title>
<path fill="none" stroke="#191970" d="M284.1996,-242.6654C303.3301,-262.5125 352.0308,-309.2269 403.5996,-328.5 475.8341,-355.4966 568.0033,-354.0427 616.9826,-350.7165"/>
<polygon fill="#191970" stroke="#191970" points="617.3305,-354.2003 627.0417,-349.9645 616.8086,-347.2198 617.3305,-354.2003"/>
</g>
<!-- Node484 -->
<g id="node4" class="node">
<title>Node484</title>
<g id="a_node4"><a xlink:href="class_c_connman.html#a7ffb96b5277edc1e41cb705a5cbef72e" target="_top" xlink:title="CConnman::FindNode">
<polygon fill="#ffffff" stroke="#000000" points="593.4414,-300.5 593.4414,-318.5 708.9385,-318.5 708.9385,-300.5 593.4414,-300.5"/>
<text text-anchor="middle" x="651.1899" y="-306.5" font-family="Helvetica,sans-Serif" font-size="10.00" fill="#000000">CConnman::FindNode</text>
</a>
</g>
</g>
<!-- Node482&#45;&gt;Node484 -->
<g id="edge3" class="edge">
<title>Node482&#45;&gt;Node484</title>
<path fill="none" stroke="#191970" d="M320.2186,-242.5166C389.2448,-256.4865 521.8459,-283.3228 596.5514,-298.442"/>
<polygon fill="#191970" stroke="#191970" points="596.2002,-301.9418 606.6958,-300.4951 597.5888,-295.0809 596.2002,-301.9418"/>
</g>
<!-- Node485 -->
<g id="node5" class="node">
<title>Node485</title>
<g id="a_node5"><a xlink:href="class_c_connman.html#aa014a4c7bbfc843aa4fff786a2aa8c96" target="_top" xlink:title="CConnman::IsBanned">
<polygon fill="#ffffff" stroke="#000000" points="416.6538,-224.5 416.6538,-242.5 531.0474,-242.5 531.0474,-224.5 416.6538,-224.5"/>
<text text-anchor="middle" x="473.8506" y="-230.5" font-family="Helvetica,sans-Serif" font-size="10.00" fill="#000000">CConnman::IsBanned</text>
</a>
</g>
</g>
<!-- Node482&#45;&gt;Node485 -->
<g id="edge4" class="edge">
<title>Node482&#45;&gt;Node485</title>
<path fill="none" stroke="#191970" d="M367.7962,-233.5C380.7475,-233.5 393.8582,-233.5 406.2374,-233.5"/>
<polygon fill="#191970" stroke="#191970" points="406.4444,-237.0001 416.4444,-233.5 406.4443,-230.0001 406.4444,-237.0001"/>
</g>
<!-- Node489 -->
<g id="node9" class="node">
<title>Node489</title>
<g id="a_node9"><a xlink:href="class_c_service.html#a224204c838b12eeb49ca7eabe6f75004" target="_top" xlink:title="CService::ToStringIPPort">
<polygon fill="#ffffff" stroke="#000000" points="410.5527,-151.5 410.5527,-169.5 537.1484,-169.5 537.1484,-151.5 410.5527,-151.5"/>
<text text-anchor="middle" x="473.8506" y="-157.5" font-family="Helvetica,sans-Serif" font-size="10.00" fill="#000000">CService::ToStringIPPort</text>
</a>
</g>
</g>
<!-- Node482&#45;&gt;Node489 -->
<g id="edge8" class="edge">
<title>Node482&#45;&gt;Node489</title>
<path fill="none" stroke="#191970" d="M300.3659,-224.4021C335.4719,-211.471 399.9346,-187.7265 439.6272,-173.106"/>
<polygon fill="#191970" stroke="#191970" points="440.978,-176.3384 449.1519,-169.5976 438.5585,-169.7698 440.978,-176.3384"/>
</g>
<!-- Node496 -->
<g id="node16" class="node">
<title>Node496</title>
<g id="a_node16"><a xlink:href="class_c_connman.html#a65aba17d8735bd9612d4ca9abb35789f" target="_top" xlink:title="CConnman::ConnectNode">
<polygon fill="#ffffff" stroke="#000000" points="407.2056,-300.5 407.2056,-318.5 540.4956,-318.5 540.4956,-300.5 407.2056,-300.5"/>
<text text-anchor="middle" x="473.8506" y="-306.5" font-family="Helvetica,sans-Serif" font-size="10.00" fill="#000000">CConnman::ConnectNode</text>
</a>
</g>
</g>
<!-- Node482&#45;&gt;Node496 -->
<g id="edge17" class="edge">
<title>Node482&#45;&gt;Node496</title>
<path fill="none" stroke="#191970" d="M296.7997,-242.5207C322.0484,-253.1976 365.6451,-271.3163 403.5996,-285.5 414.2295,-289.4724 425.8574,-293.5513 436.5395,-297.1935"/>
<polygon fill="#191970" stroke="#191970" points="435.4336,-300.5142 446.0278,-300.4001 437.6748,-293.8826 435.4336,-300.5142"/>
</g>
<!-- Node497 -->
<g id="node17" class="node">
<title>Node497</title>
<g id="a_node17"><a xlink:href="class_c_semaphore_grant.html#ab3e6f84f304703abc52517b0c8de26cf" target="_top" xlink:title="CSemaphoreGrant::MoveTo">
<polygon fill="#ffffff" stroke="#000000" points="403.5996,-114.5 403.5996,-132.5 544.1016,-132.5 544.1016,-114.5 403.5996,-114.5"/>
<text text-anchor="middle" x="473.8506" y="-120.5" font-family="Helvetica,sans-Serif" font-size="10.00" fill="#000000">CSemaphoreGrant::MoveTo</text>
</a>
</g>
</g>
<!-- Node482&#45;&gt;Node497 -->
<g id="edge20" class="edge">
<title>Node482&#45;&gt;Node497</title>
<path fill="none" stroke="#191970" d="M285.8099,-224.3279C306.4672,-206.116 355.5396,-165.1967 403.5996,-142.5 409.0156,-139.9423 414.8347,-137.6803 420.722,-135.6922"/>
<polygon fill="#191970" stroke="#191970" points="422.1303,-138.9194 430.635,-132.6012 420.0465,-132.2367 422.1303,-138.9194"/>
</g>
<!-- Node500 -->
<g id="node20" class="node">
<title>Node500</title>
<g id="a_node20"><a xlink:href="class_net_events_interface.html#a4052c74c2d1fdaa6febae796b58f33de" target="_top" xlink:title="NetEventsInterface\l::InitializeNode">
<polygon fill="#ffffff" stroke="#000000" points="423.3286,-67.5 423.3286,-95.5 524.3726,-95.5 524.3726,-67.5 423.3286,-67.5"/>
<text text-anchor="start" x="431.3286" y="-83.5" font-family="Helvetica,sans-Serif" font-size="10.00" fill="#000000">NetEventsInterface</text>
<text text-anchor="middle" x="473.8506" y="-73.5" font-family="Helvetica,sans-Serif" font-size="10.00" fill="#000000">::InitializeNode</text>
</a>
</g>
</g>
<!-- Node482&#45;&gt;Node500 -->
<g id="edge23" class="edge">
<title>Node482&#45;&gt;Node500</title>
<path fill="none" stroke="#191970" d="M282.3679,-224.3407C299.7846,-201.1559 348.9415,-139.5725 403.5996,-105.5 406.9492,-103.412 410.5027,-101.48 414.1634,-99.6968"/>
<polygon fill="#191970" stroke="#191970" points="415.7206,-102.8347 423.4288,-95.5659 412.8702,-96.4413 415.7206,-102.8347"/>
</g>
<!-- Node486 -->
<g id="node6" class="node">
<title>Node486</title>
<g id="a_node6"><a xlink:href="class_c_sub_net.html#af84fa02ebca222739c55e9d2cd7d38a3" target="_top" xlink:title="CSubNet::Match">
<polygon fill="#ffffff" stroke="#000000" points="606.5078,-263.5 606.5078,-281.5 695.8721,-281.5 695.8721,-263.5 606.5078,-263.5"/>
<text text-anchor="middle" x="651.1899" y="-269.5" font-family="Helvetica,sans-Serif" font-size="10.00" fill="#000000">CSubNet::Match</text>
</a>
</g>
</g>
<!-- Node485&#45;&gt;Node486 -->
<g id="edge5" class="edge">
<title>Node485&#45;&gt;Node486</title>
<path fill="none" stroke="#191970" d="M514.9815,-242.5454C540.295,-248.1123 572.9471,-255.293 599.9359,-261.2284"/>
<polygon fill="#191970" stroke="#191970" points="599.4569,-264.7066 609.9752,-263.4362 600.9604,-257.8699 599.4569,-264.7066"/>
</g>
<!-- Node488 -->
<g id="node8" class="node">
<title>Node488</title>
<g id="a_node8"><a xlink:href="utiltime_8cpp.html#a46fac5fba8ba905b5f9acb364f5d8c6f" target="_top" xlink:title="GetTimeMicros() and GetTimeMillis() both return the system time, but in different units...">
<polygon fill="#ffffff" stroke="#000000" points="624.2031,-226.5 624.2031,-244.5 678.1768,-244.5 678.1768,-226.5 624.2031,-226.5"/>
<text text-anchor="middle" x="651.1899" y="-232.5" font-family="Helvetica,sans-Serif" font-size="10.00" fill="#000000">GetTime</text>
</a>
</g>
</g>
<!-- Node485&#45;&gt;Node488 -->
<g id="edge7" class="edge">
<title>Node485&#45;&gt;Node488</title>
<path fill="none" stroke="#191970" d="M531.4276,-234.1493C558.5622,-234.4554 590.1449,-234.8115 614.0628,-235.0813"/>
<polygon fill="#191970" stroke="#191970" points="614.0995,-238.5818 624.1383,-235.1949 614.1785,-231.5823 614.0995,-238.5818"/>
</g>
<!-- Node487 -->
<g id="node7" class="node">
<title>Node487</title>
<g id="a_node7"><a xlink:href="class_c_net_addr.html#a6fe20b8da9701ca5dc2af078e2e8ac25" target="_top" xlink:title="CNetAddr::IsValid">
<polygon fill="#ffffff" stroke="#000000" points="764.2061,-263.5 764.2061,-281.5 858.9463,-281.5 858.9463,-263.5 764.2061,-263.5"/>
<text text-anchor="middle" x="811.5762" y="-269.5" font-family="Helvetica,sans-Serif" font-size="10.00" fill="#000000">CNetAddr::IsValid</text>
</a>
</g>
</g>
<!-- Node486&#45;&gt;Node487 -->
<g id="edge6" class="edge">
<title>Node486&#45;&gt;Node487</title>
<path fill="none" stroke="#191970" d="M696.2933,-272.5C714.1999,-272.5 735.0141,-272.5 753.9894,-272.5"/>
<polygon fill="#191970" stroke="#191970" points="754.0146,-276.0001 764.0146,-272.5 754.0146,-269.0001 754.0146,-276.0001"/>
</g>
<!-- Node490 -->
<g id="node10" class="node">
<title>Node490</title>
<g id="a_node10"><a xlink:href="class_c_net_addr.html#a7021b79e9a33c342b68db09dbb6c2293" target="_top" xlink:title="CNetAddr::IsIPv4">
<polygon fill="#ffffff" stroke="#000000" points="604.5645,-189.5 604.5645,-207.5 697.8154,-207.5 697.8154,-189.5 604.5645,-189.5"/>
<text text-anchor="middle" x="651.1899" y="-195.5" font-family="Helvetica,sans-Serif" font-size="10.00" fill="#000000">CNetAddr::IsIPv4</text>
</a>
</g>
</g>
<!-- Node489&#45;&gt;Node490 -->
<g id="edge9" class="edge">
<title>Node489&#45;&gt;Node490</title>
<path fill="none" stroke="#191970" d="M515.8775,-169.5055C540.8537,-174.8573 572.732,-181.6881 599.2726,-187.3752"/>
<polygon fill="#191970" stroke="#191970" points="598.6463,-190.8204 609.1577,-189.4934 600.113,-183.9758 598.6463,-190.8204"/>
</g>
<!-- Node491 -->
<g id="node11" class="node">
<title>Node491</title>
<g id="a_node11"><a xlink:href="class_c_net_addr.html#a4db37b4997ff3b8c57959f2aa915a9a3" target="_top" xlink:title="CNetAddr::IsTor">
<polygon fill="#ffffff" stroke="#000000" points="768.0098,-151.5 768.0098,-169.5 855.1426,-169.5 855.1426,-151.5 768.0098,-151.5"/>
<text text-anchor="middle" x="811.5762" y="-157.5" font-family="Helvetica,sans-Serif" font-size="10.00" fill="#000000">CNetAddr::IsTor</text>
</a>
</g>
</g>
<!-- Node489&#45;&gt;Node491 -->
<g id="edge10" class="edge">
<title>Node489&#45;&gt;Node491</title>
<path fill="none" stroke="#191970" d="M537.3742,-160.5C600.9547,-160.5 697.7085,-160.5 757.6621,-160.5"/>
<polygon fill="#191970" stroke="#191970" points="757.6843,-164.0001 767.6842,-160.5 757.6842,-157.0001 757.6843,-164.0001"/>
</g>
<!-- Node492 -->
<g id="node12" class="node">
<title>Node492</title>
<g id="a_node12"><a xlink:href="class_c_net_addr.html#ab0848a1ba29b6f72fcc3b6ba8d7c8fbb" target="_top" xlink:title="CNetAddr::IsInternal">
<polygon fill="#ffffff" stroke="#000000" points="758.2783,-75.5 758.2783,-93.5 864.874,-93.5 864.874,-75.5 758.2783,-75.5"/>
<text text-anchor="middle" x="811.5762" y="-81.5" font-family="Helvetica,sans-Serif" font-size="10.00" fill="#000000">CNetAddr::IsInternal</text>
</a>
</g>
</g>
<!-- Node489&#45;&gt;Node492 -->
<g id="edge11" class="edge">
<title>Node489&#45;&gt;Node492</title>
<path fill="none" stroke="#191970" d="M523.6212,-151.4965C530.7586,-149.1502 537.807,-146.2018 544.1016,-142.5 564.1552,-130.7065 559.1461,-114.6046 580.1016,-104.5 632.6778,-79.1479 699.7764,-76.0665 748.1802,-78.1788"/>
<polygon fill="#191970" stroke="#191970" points="748.0445,-81.6764 758.2133,-78.7023 748.4093,-74.6859 748.0445,-81.6764"/>
</g>
<!-- Node493 -->
<g id="node13" class="node">
<title>Node493</title>
<g id="a_node13"><a xlink:href="class_c_net_addr.html#a0c8d9b5ed3824546ff4dccca3b28b073" target="_top" xlink:title="CNetAddr::ToStringIP">
<polygon fill="#ffffff" stroke="#000000" points="595.3921,-113.5 595.3921,-131.5 706.9878,-131.5 706.9878,-113.5 595.3921,-113.5"/>
<text text-anchor="middle" x="651.1899" y="-119.5" font-family="Helvetica,sans-Serif" font-size="10.00" fill="#000000">CNetAddr::ToStringIP</text>
</a>
</g>
</g>
<!-- Node489&#45;&gt;Node493 -->
<g id="edge12" class="edge">
<title>Node489&#45;&gt;Node493</title>
<path fill="none" stroke="#191970" d="M515.8775,-151.4945C540.8537,-146.1427 572.732,-139.3119 599.2726,-133.6248"/>
<polygon fill="#191970" stroke="#191970" points="600.113,-137.0242 609.1577,-131.5066 598.6463,-130.1796 600.113,-137.0242"/>
</g>
<!-- Node495 -->
<g id="node15" class="node">
<title>Node495</title>
<g id="a_node15"><a xlink:href="class_c_service.html#a95d6f24b6a613fca24734ba4e38ef3dc" target="_top" xlink:title="CService::ToStringPort">
<polygon fill="#ffffff" stroke="#000000" points="592.6162,-37.5 592.6162,-55.5 709.7637,-55.5 709.7637,-37.5 592.6162,-37.5"/>
<text text-anchor="middle" x="651.1899" y="-43.5" font-family="Helvetica,sans-Serif" font-size="10.00" fill="#000000">CService::ToStringPort</text>
</a>
</g>
</g>
<!-- Node489&#45;&gt;Node495 -->
<g id="edge16" class="edge">
<title>Node489&#45;&gt;Node495</title>
<path fill="none" stroke="#191970" d="M529.0135,-151.3771C534.439,-149.0483 539.5945,-146.1371 544.1016,-142.5 571.9436,-120.0318 553.1187,-93.9931 580.1016,-70.5 585.1841,-66.0748 591.1155,-62.4581 597.3453,-59.5037"/>
<polygon fill="#191970" stroke="#191970" points="598.7414,-62.7137 606.6219,-55.6321 596.0453,-56.2537 598.7414,-62.7137"/>
</g>
<!-- Node493&#45;&gt;Node491 -->
<g id="edge13" class="edge">
<title>Node493&#45;&gt;Node491</title>
<path fill="none" stroke="#191970" d="M689.1992,-131.5055C711.4892,-136.7866 739.8576,-143.5079 763.6678,-149.1492"/>
<polygon fill="#191970" stroke="#191970" points="763.0246,-152.5936 773.5621,-151.4934 764.6384,-145.7822 763.0246,-152.5936"/>
</g>
<!-- Node493&#45;&gt;Node492 -->
<g id="edge15" class="edge">
<title>Node493&#45;&gt;Node492</title>
<path fill="none" stroke="#191970" d="M689.1992,-113.4945C711.4892,-108.2134 739.8576,-101.4921 763.6678,-95.8508"/>
<polygon fill="#191970" stroke="#191970" points="764.6384,-99.2178 773.5621,-93.5066 763.0246,-92.4064 764.6384,-99.2178"/>
</g>
<!-- Node494 -->
<g id="node14" class="node">
<title>Node494</title>
<g id="a_node14"><a xlink:href="utilstrencodings_8cpp.html#aed1944a78afffe9d5f3129e656dc8aa6" target="_top" xlink:title="EncodeBase32">
<polygon fill="#ffffff" stroke="#000000" points="769.6602,-113.5 769.6602,-131.5 853.4922,-131.5 853.4922,-113.5 769.6602,-113.5"/>
<text text-anchor="middle" x="811.5762" y="-119.5" font-family="Helvetica,sans-Serif" font-size="10.00" fill="#000000">EncodeBase32</text>
</a>
</g>
</g>
<!-- Node493&#45;&gt;Node494 -->
<g id="edge14" class="edge">
<title>Node493&#45;&gt;Node494</title>
<path fill="none" stroke="#191970" d="M707.2853,-122.5C724.1917,-122.5 742.6735,-122.5 759.3199,-122.5"/>
<polygon fill="#191970" stroke="#191970" points="759.417,-126.0001 769.4169,-122.5 759.4169,-119.0001 759.417,-126.0001"/>
</g>
<!-- Node496&#45;&gt;Node483 -->
<g id="edge18" class="edge">
<title>Node496&#45;&gt;Node483</title>
<path fill="none" stroke="#191970" d="M515.8775,-318.5055C546.8019,-325.1319 588.3076,-334.0257 617.1616,-340.2085"/>
<polygon fill="#191970" stroke="#191970" points="616.6652,-343.6815 627.1766,-342.3545 618.1319,-336.8369 616.6652,-343.6815"/>
</g>
<!-- Node496&#45;&gt;Node484 -->
<g id="edge19" class="edge">
<title>Node496&#45;&gt;Node484</title>
<path fill="none" stroke="#191970" d="M540.6423,-309.5C554.5476,-309.5 569.2187,-309.5 583.1678,-309.5"/>
<polygon fill="#191970" stroke="#191970" points="583.1761,-313.0001 593.1761,-309.5 583.1761,-306.0001 583.1761,-313.0001"/>
</g>
<!-- Node498 -->
<g id="node18" class="node">
<title>Node498</title>
<g id="a_node18"><a xlink:href="class_c_semaphore_grant.html#a8d985eeace74e037baeb39bd2d586576" target="_top" xlink:title="CSemaphoreGrant::Release">
<polygon fill="#ffffff" stroke="#000000" points="580.1016,-.5 580.1016,-18.5 722.2783,-18.5 722.2783,-.5 580.1016,-.5"/>
<text text-anchor="middle" x="651.1899" y="-6.5" font-family="Helvetica,sans-Serif" font-size="10.00" fill="#000000">CSemaphoreGrant::Release</text>
</a>
</g>
</g>
<!-- Node497&#45;&gt;Node498 -->
<g id="edge21" class="edge">
<title>Node497&#45;&gt;Node498</title>
<path fill="none" stroke="#191970" d="M529.4813,-114.3638C534.7553,-112.0342 539.7486,-109.1265 544.1016,-105.5 573.4361,-81.061 550.7324,-51.8974 580.1016,-27.5 581.8918,-26.0128 583.789,-24.6462 585.7685,-23.3906"/>
<polygon fill="#191970" stroke="#191970" points="587.6933,-26.3322 594.9002,-18.5662 584.4233,-20.1428 587.6933,-26.3322"/>
</g>
<!-- Node499 -->
<g id="node19" class="node">
<title>Node499</title>
<g id="a_node19"><a xlink:href="class_c_semaphore.html#af6a956f6c191e824485fd3af6db39318" target="_top" xlink:title="CSemaphore::post">
<polygon fill="#ffffff" stroke="#000000" points="761.8867,-.5 761.8867,-18.5 861.2656,-18.5 861.2656,-.5 761.8867,-.5"/>
<text text-anchor="middle" x="811.5762" y="-6.5" font-family="Helvetica,sans-Serif" font-size="10.00" fill="#000000">CSemaphore::post</text>
</a>
</g>
</g>
<!-- Node498&#45;&gt;Node499 -->
<g id="edge22" class="edge">
<title>Node498&#45;&gt;Node499</title>
<path fill="none" stroke="#191970" d="M722.4717,-9.5C732.1792,-9.5 742.063,-9.5 751.5447,-9.5"/>
<polygon fill="#191970" stroke="#191970" points="751.6482,-13.0001 761.6482,-9.5 751.6481,-6.0001 751.6482,-13.0001"/>
</g>
</g>
</svg>
