<?xml version="1.0" encoding="UTF-8" standalone="no"?>
<!DOCTYPE svg PUBLIC "-//W3C//DTD SVG 1.1//EN"
 "http://www.w3.org/Graphics/SVG/1.1/DTD/svg11.dtd">
<!-- Generated by graphviz version 2.40.1 (20161225.0304)
 -->
<!-- Title: FormatFullVersion Pages: 1 -->
<svg width="1044pt" height="138pt"
 viewBox="0.00 0.00 1043.57 138.00" xmlns="http://www.w3.org/2000/svg" xmlns:xlink="http://www.w3.org/1999/xlink">
<g id="graph0" class="graph" transform="scale(1 1) rotate(0) translate(4 134)">
<title>FormatFullVersion</title>
<polygon fill="#ffffff" stroke="transparent" points="-4,4 -4,-134 1039.5684,-134 1039.5684,4 -4,4"/>
<!-- Node2 -->
<g id="node1" class="node">
<title>Node2</title>
<polygon fill="#bfbfbf" stroke="#000000" points="0,-47.5 0,-65.5 97.1426,-65.5 97.1426,-47.5 0,-47.5"/>
<text text-anchor="middle" x="48.5713" y="-53.5" font-family="Helvetica,sans-Serif" font-size="10.00" fill="#000000">FormatFullVersion</text>
</g>
<!-- Node3 -->
<g id="node2" class="node">
<title>Node3</title>
<g id="a_node2"><a xlink:href="class_client_model.html#ae9448d6f2a7f99467152b17f7044eb12" target="_top" xlink:title="ClientModel::formatFullVersion">
<polygon fill="#ffffff" stroke="#000000" points="133.1426,-84.5 133.1426,-102.5 285.3145,-102.5 285.3145,-84.5 133.1426,-84.5"/>
<text text-anchor="middle" x="209.2285" y="-90.5" font-family="Helvetica,sans-Serif" font-size="10.00" fill="#000000">ClientModel::formatFullVersion</text>
</a>
</g>
</g>
<!-- Node2&#45;&gt;Node3 -->
<g id="edge1" class="edge">
<title>Node2&#45;&gt;Node3</title>
<path fill="none" stroke="#191970" d="M97.866,-67.8528C121.0497,-73.1921 148.3089,-79.47 170.055,-84.4782"/>
<polygon fill="#191970" stroke="#191970" points="98.4029,-64.3849 87.8725,-65.5512 96.8318,-71.2063 98.4029,-64.3849"/>
</g>
<!-- Node10 -->
<g id="node9" class="node">
<title>Node10</title>
<g id="a_node9"><a xlink:href="class_splash_screen.html#ac8b0ad09e1db84737a70f03f04b1ec69" target="_top" xlink:title="SplashScreen::SplashScreen">
<polygon fill="#ffffff" stroke="#000000" points="136.1895,-47.5 136.1895,-65.5 282.2676,-65.5 282.2676,-47.5 136.1895,-47.5"/>
<text text-anchor="middle" x="209.2285" y="-53.5" font-family="Helvetica,sans-Serif" font-size="10.00" fill="#000000">SplashScreen::SplashScreen</text>
</a>
</g>
</g>
<!-- Node2&#45;&gt;Node10 -->
<g id="edge9" class="edge">
<title>Node2&#45;&gt;Node10</title>
<path fill="none" stroke="#191970" d="M107.2201,-56.5C116.6252,-56.5 126.4589,-56.5 136.1507,-56.5"/>
<polygon fill="#191970" stroke="#191970" points="107.2098,-53.0001 97.2097,-56.5 107.2097,-60.0001 107.2098,-53.0001"/>
</g>
<!-- Node11 -->
<g id="node10" class="node">
<title>Node11</title>
<g id="a_node10"><a xlink:href="class_help_message_dialog.html#a4dbaaa9a299692aab191ec4270fc9a99" target="_top" xlink:title="&quot;Help message&quot; or &quot;About&quot; dialog box ">
<polygon fill="#ffffff" stroke="#000000" points="153.7041,-.5 153.7041,-28.5 264.7529,-28.5 264.7529,-.5 153.7041,-.5"/>
<text text-anchor="start" x="161.7041" y="-16.5" font-family="Helvetica,sans-Serif" font-size="10.00" fill="#000000">HelpMessageDialog::</text>
<text text-anchor="middle" x="209.2285" y="-6.5" font-family="Helvetica,sans-Serif" font-size="10.00" fill="#000000">HelpMessageDialog</text>
</a>
</g>
</g>
<!-- Node2&#45;&gt;Node11 -->
<g id="edge10" class="edge">
<title>Node2&#45;&gt;Node11</title>
<path fill="none" stroke="#191970" d="M92.8263,-44.9306C112.2273,-39.8587 135.1716,-33.8604 155.5392,-28.5358"/>
<polygon fill="#191970" stroke="#191970" points="91.8259,-41.5744 83.0363,-47.4899 93.5964,-48.3468 91.8259,-41.5744"/>
</g>
<!-- Node4 -->
<g id="node3" class="node">
<title>Node4</title>
<g id="a_node3"><a xlink:href="class_r_p_c_console.html#a355349a33664a07628e9ca22a60f5fa7" target="_top" xlink:title="RPCConsole::setClientModel">
<polygon fill="#ffffff" stroke="#000000" points="321.3145,-84.5 321.3145,-102.5 466.8164,-102.5 466.8164,-84.5 321.3145,-84.5"/>
<text text-anchor="middle" x="394.0654" y="-90.5" font-family="Helvetica,sans-Serif" font-size="10.00" fill="#000000">RPCConsole::setClientModel</text>
</a>
</g>
</g>
<!-- Node3&#45;&gt;Node4 -->
<g id="edge2" class="edge">
<title>Node3&#45;&gt;Node4</title>
<path fill="none" stroke="#191970" d="M295.5294,-93.5C304.1366,-93.5 312.8148,-93.5 321.2638,-93.5"/>
<polygon fill="#191970" stroke="#191970" points="295.4759,-90.0001 285.4759,-93.5 295.4759,-97.0001 295.4759,-90.0001"/>
</g>
<!-- Node5 -->
<g id="node4" class="node">
<title>Node5</title>
<g id="a_node4"><a xlink:href="class_bitcoin_g_u_i.html#a99d71e1f8478ab937ce2522c8d3815e3" target="_top" xlink:title="Set the client model. ">
<polygon fill="#ffffff" stroke="#000000" points="502.8164,-84.5 502.8164,-102.5 638.3086,-102.5 638.3086,-84.5 502.8164,-84.5"/>
<text text-anchor="middle" x="570.5625" y="-90.5" font-family="Helvetica,sans-Serif" font-size="10.00" fill="#000000">BitcoinGUI::setClientModel</text>
</a>
</g>
</g>
<!-- Node4&#45;&gt;Node5 -->
<g id="edge3" class="edge">
<title>Node4&#45;&gt;Node5</title>
<path fill="none" stroke="#191970" d="M476.9589,-93.5C485.5949,-93.5 494.2994,-93.5 502.7402,-93.5"/>
<polygon fill="#191970" stroke="#191970" points="476.8726,-90.0001 466.8725,-93.5 476.8725,-97.0001 476.8726,-90.0001"/>
</g>
<!-- Node6 -->
<g id="node5" class="node">
<title>Node6</title>
<g id="a_node5"><a xlink:href="class_bitcoin_application.html#a37c560d4c04d14a6da151b82caf8888f" target="_top" xlink:title="Request core shutdown. ">
<polygon fill="#ffffff" stroke="#000000" points="936.1797,-101.5 936.1797,-129.5 1035.5684,-129.5 1035.5684,-101.5 936.1797,-101.5"/>
<text text-anchor="start" x="944.1797" y="-117.5" font-family="Helvetica,sans-Serif" font-size="10.00" fill="#000000">BitcoinApplication</text>
<text text-anchor="middle" x="985.874" y="-107.5" font-family="Helvetica,sans-Serif" font-size="10.00" fill="#000000">::requestShutdown</text>
</a>
</g>
</g>
<!-- Node5&#45;&gt;Node6 -->
<g id="edge4" class="edge">
<title>Node5&#45;&gt;Node6</title>
<path fill="none" stroke="#191970" d="M648.7163,-97.64C733.0191,-102.1057 864.7164,-109.082 935.9995,-112.858"/>
<polygon fill="#191970" stroke="#191970" points="648.8489,-94.1422 638.6777,-97.1082 648.4785,-101.1324 648.8489,-94.1422"/>
</g>
<!-- Node7 -->
<g id="node6" class="node">
<title>Node7</title>
<g id="a_node6"><a xlink:href="class_bitcoin_application.html#a5bcf1bf32a7508326e0dd630a59a887d" target="_top" xlink:title="BitcoinApplication\l::initializeResult">
<polygon fill="#ffffff" stroke="#000000" points="674.3086,-58.5 674.3086,-86.5 769.2441,-86.5 769.2441,-58.5 674.3086,-58.5"/>
<text text-anchor="start" x="682.3086" y="-74.5" font-family="Helvetica,sans-Serif" font-size="10.00" fill="#000000">BitcoinApplication</text>
<text text-anchor="middle" x="721.7764" y="-64.5" font-family="Helvetica,sans-Serif" font-size="10.00" fill="#000000">::initializeResult</text>
</a>
</g>
</g>
<!-- Node5&#45;&gt;Node7 -->
<g id="edge5" class="edge">
<title>Node5&#45;&gt;Node7</title>
<path fill="none" stroke="#191970" d="M645.6558,-83.0713C655.3654,-81.7229 665.0862,-80.3729 674.1778,-79.1103"/>
<polygon fill="#191970" stroke="#191970" points="644.9918,-79.6299 635.5684,-84.4722 645.9548,-86.5633 644.9918,-79.6299"/>
</g>
<!-- Node8 -->
<g id="node7" class="node">
<title>Node8</title>
<g id="a_node7"><a xlink:href="class_bitcoin_application.html#a61afce9356e452c53ad4c83f5ca19df8" target="_top" xlink:title="BitcoinApplication\l::startThread">
<polygon fill="#ffffff" stroke="#000000" points="805.2441,-58.5 805.2441,-86.5 900.1797,-86.5 900.1797,-58.5 805.2441,-58.5"/>
<text text-anchor="start" x="813.2441" y="-74.5" font-family="Helvetica,sans-Serif" font-size="10.00" fill="#000000">BitcoinApplication</text>
<text text-anchor="middle" x="852.7119" y="-64.5" font-family="Helvetica,sans-Serif" font-size="10.00" fill="#000000">::startThread</text>
</a>
</g>
</g>
<!-- Node7&#45;&gt;Node8 -->
<g id="edge6" class="edge">
<title>Node7&#45;&gt;Node8</title>
<path fill="none" stroke="#191970" d="M779.5986,-72.5C788.0469,-72.5 796.6673,-72.5 804.8868,-72.5"/>
<polygon fill="#191970" stroke="#191970" points="779.4175,-69.0001 769.4175,-72.5 779.4175,-76.0001 779.4175,-69.0001"/>
</g>
<!-- Node8&#45;&gt;Node6 -->
<g id="edge8" class="edge">
<title>Node8&#45;&gt;Node6</title>
<path fill="none" stroke="#191970" d="M906.1803,-89.7657C918.1325,-93.6253 930.6717,-97.6744 942.1738,-101.3886"/>
<polygon fill="#191970" stroke="#191970" points="906.9059,-86.3221 896.3142,-86.5798 904.7548,-92.9834 906.9059,-86.3221"/>
</g>
<!-- Node9 -->
<g id="node8" class="node">
<title>Node9</title>
<g id="a_node8"><a xlink:href="class_bitcoin_application.html#ade19c44b87b00b6b19b433caf4c22ba6" target="_top" xlink:title="Request core initialization. ">
<polygon fill="#ffffff" stroke="#000000" points="938.4063,-54.5 938.4063,-82.5 1033.3418,-82.5 1033.3418,-54.5 938.4063,-54.5"/>
<text text-anchor="start" x="946.4063" y="-70.5" font-family="Helvetica,sans-Serif" font-size="10.00" fill="#000000">BitcoinApplication</text>
<text text-anchor="middle" x="985.874" y="-60.5" font-family="Helvetica,sans-Serif" font-size="10.00" fill="#000000">::requestInitialize</text>
</a>
</g>
</g>
<!-- Node8&#45;&gt;Node9 -->
<g id="edge7" class="edge">
<title>Node8&#45;&gt;Node9</title>
<path fill="none" stroke="#191970" d="M910.6205,-70.7605C919.7811,-70.4853 929.1645,-70.2035 938.061,-69.9362"/>
<polygon fill="#191970" stroke="#191970" points="910.3007,-67.2684 900.4104,-71.0672 910.511,-74.2653 910.3007,-67.2684"/>
</g>
</g>
</svg>
