<?xml version="1.0" encoding="UTF-8" standalone="no"?>
<!DOCTYPE svg PUBLIC "-//W3C//DTD SVG 1.1//EN"
 "http://www.w3.org/Graphics/SVG/1.1/DTD/svg11.dtd">
<!-- Generated by graphviz version 2.40.1 (20161225.0304)
 -->
<!-- Title: src/clientversion.cpp Pages: 1 -->
<svg width="470pt" height="137pt"
 viewBox="0.00 0.00 469.63 137.00" xmlns="http://www.w3.org/2000/svg" xmlns:xlink="http://www.w3.org/1999/xlink">
<g id="graph0" class="graph" transform="scale(1 1) rotate(0) translate(4 133)">
<title>src/clientversion.cpp</title>
<polygon fill="#ffffff" stroke="transparent" points="-4,4 -4,-133 465.6279,-133 465.6279,4 -4,4"/>
<!-- Node0 -->
<g id="node1" class="node">
<title>Node0</title>
<polygon fill="#bfbfbf" stroke="#000000" points="95.9312,-110.5 95.9312,-128.5 202.522,-128.5 202.522,-110.5 95.9312,-110.5"/>
<text text-anchor="middle" x="149.2266" y="-116.5" font-family="Helvetica,sans-Serif" font-size="10.00" fill="#000000">src/clientversion.cpp</text>
</g>
<!-- Node1 -->
<g id="node2" class="node">
<title>Node1</title>
<g id="a_node2"><a xlink:href="clientversion_8h.html" target="_top" xlink:title="clientversion.h">
<polygon fill="#ffffff" stroke="#000000" points="40.2661,-55.5 40.2661,-73.5 120.187,-73.5 120.187,-55.5 40.2661,-55.5"/>
<text text-anchor="middle" x="80.2266" y="-61.5" font-family="Helvetica,sans-Serif" font-size="10.00" fill="#000000">clientversion.h</text>
</a>
</g>
</g>
<!-- Node0&#45;&gt;Node1 -->
<g id="edge1" class="edge">
<title>Node0&#45;&gt;Node1</title>
<path fill="none" stroke="#191970" d="M137.8326,-110.4179C127.5073,-102.1876 112.0718,-89.8839 99.7768,-80.0836"/>
<polygon fill="#191970" stroke="#191970" points="101.8694,-77.2757 91.8681,-73.7795 97.5062,-82.7495 101.8694,-77.2757"/>
</g>
<!-- Node4 -->
<g id="node5" class="node">
<title>Node4</title>
<g id="a_node5"><a xlink:href="tinyformat_8h.html" target="_top" xlink:title="tinyformat.h">
<polygon fill="#ffffff" stroke="#000000" points="219.106,-55.5 219.106,-73.5 287.3472,-73.5 287.3472,-55.5 219.106,-55.5"/>
<text text-anchor="middle" x="253.2266" y="-61.5" font-family="Helvetica,sans-Serif" font-size="10.00" fill="#000000">tinyformat.h</text>
</a>
</g>
</g>
<!-- Node0&#45;&gt;Node4 -->
<g id="edge4" class="edge">
<title>Node0&#45;&gt;Node4</title>
<path fill="none" stroke="#191970" d="M166.4,-110.4179C182.8845,-101.7001 208.0108,-88.4122 226.9998,-78.3699"/>
<polygon fill="#191970" stroke="#191970" points="228.8239,-81.3646 236.0276,-73.5956 225.5513,-75.1767 228.8239,-81.3646"/>
</g>
<!-- Node2 -->
<g id="node3" class="node">
<title>Node2</title>
<polygon fill="#ffffff" stroke="#bfbfbf" points="0,-.5 0,-18.5 40.4531,-18.5 40.4531,-.5 0,-.5"/>
<text text-anchor="middle" x="20.2266" y="-6.5" font-family="Helvetica,sans-Serif" font-size="10.00" fill="#000000">string</text>
</g>
<!-- Node1&#45;&gt;Node2 -->
<g id="edge2" class="edge">
<title>Node1&#45;&gt;Node2</title>
<path fill="none" stroke="#191970" d="M70.3188,-55.4179C61.5129,-47.3458 48.4327,-35.3556 37.8466,-25.6517"/>
<polygon fill="#191970" stroke="#191970" points="40.0862,-22.9567 30.3496,-18.7795 35.3561,-28.1168 40.0862,-22.9567"/>
</g>
<!-- Node3 -->
<g id="node4" class="node">
<title>Node3</title>
<polygon fill="#ffffff" stroke="#bfbfbf" points="58.6108,-.5 58.6108,-18.5 101.8423,-18.5 101.8423,-.5 58.6108,-.5"/>
<text text-anchor="middle" x="80.2266" y="-6.5" font-family="Helvetica,sans-Serif" font-size="10.00" fill="#000000">vector</text>
</g>
<!-- Node1&#45;&gt;Node3 -->
<g id="edge3" class="edge">
<title>Node1&#45;&gt;Node3</title>
<path fill="none" stroke="#191970" d="M80.2266,-55.4179C80.2266,-48.2164 80.2266,-37.8962 80.2266,-28.8632"/>
<polygon fill="#191970" stroke="#191970" points="83.7267,-28.7794 80.2266,-18.7795 76.7267,-28.7795 83.7267,-28.7794"/>
</g>
<!-- Node5 -->
<g id="node6" class="node">
<title>Node5</title>
<polygon fill="#ffffff" stroke="#bfbfbf" points="119.6626,-.5 119.6626,-18.5 176.7905,-18.5 176.7905,-.5 119.6626,-.5"/>
<text text-anchor="middle" x="148.2266" y="-6.5" font-family="Helvetica,sans-Serif" font-size="10.00" fill="#000000">algorithm</text>
</g>
<!-- Node4&#45;&gt;Node5 -->
<g id="edge5" class="edge">
<title>Node4&#45;&gt;Node5</title>
<path fill="none" stroke="#191970" d="M235.8879,-55.4179C219.245,-46.7001 193.8771,-33.4122 174.7055,-23.3699"/>
<polygon fill="#191970" stroke="#191970" points="176.0733,-20.1353 165.5909,-18.5956 172.8252,-26.3362 176.0733,-20.1353"/>
</g>
<!-- Node6 -->
<g id="node7" class="node">
<title>Node6</title>
<polygon fill="#ffffff" stroke="#bfbfbf" points="195.1108,-.5 195.1108,-18.5 243.3423,-18.5 243.3423,-.5 195.1108,-.5"/>
<text text-anchor="middle" x="219.2266" y="-6.5" font-family="Helvetica,sans-Serif" font-size="10.00" fill="#000000">cassert</text>
</g>
<!-- Node4&#45;&gt;Node6 -->
<g id="edge6" class="edge">
<title>Node4&#45;&gt;Node6</title>
<path fill="none" stroke="#191970" d="M247.6122,-55.4179C242.9157,-47.8207 236.0737,-36.7527 230.2837,-27.3866"/>
<polygon fill="#191970" stroke="#191970" points="233.1983,-25.445 224.963,-18.7795 227.2441,-29.1258 233.1983,-25.445"/>
</g>
<!-- Node7 -->
<g id="node8" class="node">
<title>Node7</title>
<polygon fill="#ffffff" stroke="#bfbfbf" points="261.0542,-.5 261.0542,-18.5 315.3989,-18.5 315.3989,-.5 261.0542,-.5"/>
<text text-anchor="middle" x="288.2266" y="-6.5" font-family="Helvetica,sans-Serif" font-size="10.00" fill="#000000">iostream</text>
</g>
<!-- Node4&#45;&gt;Node7 -->
<g id="edge7" class="edge">
<title>Node4&#45;&gt;Node7</title>
<path fill="none" stroke="#191970" d="M259.0061,-55.4179C263.8407,-47.8207 270.884,-36.7527 276.8442,-27.3866"/>
<polygon fill="#191970" stroke="#191970" points="279.9055,-29.0952 282.3215,-18.7795 273.9998,-25.337 279.9055,-29.0952"/>
</g>
<!-- Node8 -->
<g id="node9" class="node">
<title>Node8</title>
<polygon fill="#ffffff" stroke="#bfbfbf" points="333.4458,-.5 333.4458,-18.5 385.0073,-18.5 385.0073,-.5 333.4458,-.5"/>
<text text-anchor="middle" x="359.2266" y="-6.5" font-family="Helvetica,sans-Serif" font-size="10.00" fill="#000000">sstream</text>
</g>
<!-- Node4&#45;&gt;Node8 -->
<g id="edge8" class="edge">
<title>Node4&#45;&gt;Node8</title>
<path fill="none" stroke="#191970" d="M270.7303,-55.4179C287.6085,-46.6603 313.3753,-33.2907 332.7602,-23.2326"/>
<polygon fill="#191970" stroke="#191970" points="334.4325,-26.308 341.6968,-18.5956 331.2085,-20.0946 334.4325,-26.308"/>
</g>
<!-- Node9 -->
<g id="node10" class="node">
<title>Node9</title>
<polygon fill="#ffffff" stroke="#bfbfbf" points="402.8252,-.5 402.8252,-18.5 461.6279,-18.5 461.6279,-.5 402.8252,-.5"/>
<text text-anchor="middle" x="432.2266" y="-6.5" font-family="Helvetica,sans-Serif" font-size="10.00" fill="#000000">stdexcept</text>
</g>
<!-- Node4&#45;&gt;Node9 -->
<g id="edge9" class="edge">
<title>Node4&#45;&gt;Node9</title>
<path fill="none" stroke="#191970" d="M282.7848,-55.4179C312.9313,-46.155 359.87,-31.7325 393.0874,-21.526"/>
<polygon fill="#191970" stroke="#191970" points="394.391,-24.787 402.922,-18.5042 392.335,-18.0958 394.391,-24.787"/>
</g>
</g>
</svg>
