<?xml version="1.0" encoding="UTF-8" standalone="no"?>
<!DOCTYPE svg PUBLIC "-//W3C//DTD SVG 1.1//EN"
 "http://www.w3.org/Graphics/SVG/1.1/DTD/svg11.dtd">
<!-- Generated by graphviz version 2.40.1 (20161225.0304)
 -->
<!-- Title: src/bench/coin_selection.cpp Pages: 1 -->
<svg width="2336pt" height="432pt"
 viewBox="0.00 0.00 2336.00 432.00" xmlns="http://www.w3.org/2000/svg" xmlns:xlink="http://www.w3.org/1999/xlink">
<g id="graph0" class="graph" transform="scale(1 1) rotate(0) translate(4 428)">
<title>src/bench/coin_selection.cpp</title>
<polygon fill="#ffffff" stroke="transparent" points="-4,4 -4,-428 2332,-428 2332,4 -4,4"/>
<!-- Node0 -->
<g id="node1" class="node">
<title>Node0</title>
<polygon fill="#bfbfbf" stroke="#000000" points="605.7959,-405.5 605.7959,-423.5 750.2041,-423.5 750.2041,-405.5 605.7959,-405.5"/>
<text text-anchor="middle" x="678" y="-411.5" font-family="Helvetica,sans-Serif" font-size="10.00" fill="#000000">src/bench/coin_selection.cpp</text>
</g>
<!-- Node1 -->
<g id="node2" class="node">
<title>Node1</title>
<g id="a_node2"><a xlink:href="bench_2bench_8h.html" target="_top" xlink:title="bench/bench.h">
<polygon fill="#ffffff" stroke="#000000" points="180.1948,-70.5 180.1948,-88.5 261.8052,-88.5 261.8052,-70.5 180.1948,-70.5"/>
<text text-anchor="middle" x="221" y="-76.5" font-family="Helvetica,sans-Serif" font-size="10.00" fill="#000000">bench/bench.h</text>
</a>
</g>
</g>
<!-- Node0&#45;&gt;Node1 -->
<g id="edge1" class="edge">
<title>Node0&#45;&gt;Node1</title>
<path fill="none" stroke="#191970" d="M605.684,-408.7661C445.7317,-395.1123 76,-357.7882 76,-304.5 76,-304.5 76,-304.5 76,-194.5 76,-140.8458 137.6993,-108.2563 180.6034,-92.0805"/>
<polygon fill="#191970" stroke="#191970" points="182.0326,-95.2857 190.2492,-88.5971 179.6549,-88.7019 182.0326,-95.2857"/>
</g>
<!-- Node10 -->
<g id="node11" class="node">
<title>Node10</title>
<g id="a_node11"><a xlink:href="wallet_2wallet_8h.html" target="_top" xlink:title="wallet/wallet.h">
<polygon fill="#ffffff" stroke="#000000" points="1208.8745,-350.5 1208.8745,-368.5 1287.1255,-368.5 1287.1255,-350.5 1208.8745,-350.5"/>
<text text-anchor="middle" x="1248" y="-356.5" font-family="Helvetica,sans-Serif" font-size="10.00" fill="#000000">wallet/wallet.h</text>
</a>
</g>
</g>
<!-- Node0&#45;&gt;Node10 -->
<g id="edge10" class="edge">
<title>Node0&#45;&gt;Node10</title>
<path fill="none" stroke="#191970" d="M750.4802,-407.5063C868.2024,-396.1471 1097.9231,-373.9811 1198.6594,-364.2609"/>
<polygon fill="#191970" stroke="#191970" points="1199.2415,-367.7211 1208.8591,-363.2768 1198.5691,-360.7535 1199.2415,-367.7211"/>
</g>
<!-- Node54 -->
<g id="node22" class="node">
<title>Node54</title>
<polygon fill="#ffffff" stroke="#bfbfbf" points="20.3301,-5.5 20.3301,-23.5 49.6699,-23.5 49.6699,-5.5 20.3301,-5.5"/>
<text text-anchor="middle" x="35" y="-11.5" font-family="Helvetica,sans-Serif" font-size="10.00" fill="#000000">set</text>
</g>
<!-- Node0&#45;&gt;Node54 -->
<g id="edge121" class="edge">
<title>Node0&#45;&gt;Node54</title>
<path fill="none" stroke="#191970" d="M605.6872,-410.3679C486.3484,-403.1486 253.3695,-387.2562 173,-369 92.9795,-350.8231 0,-386.559 0,-304.5 0,-304.5 0,-304.5 0,-139.5 0,-100.4343 16.0481,-56.9597 26.4107,-32.9595"/>
<polygon fill="#191970" stroke="#191970" points="29.6814,-34.2191 30.5672,-23.6614 23.2908,-31.3624 29.6814,-34.2191"/>
</g>
<!-- Node98 -->
<g id="node47" class="node">
<title>Node98</title>
<g id="a_node47"><a xlink:href="coinselection_8h.html" target="_top" xlink:title="wallet/coinselection.h">
<polygon fill="#ffffff" stroke="#000000" points="2113.7515,-185.5 2113.7515,-203.5 2224.2485,-203.5 2224.2485,-185.5 2113.7515,-185.5"/>
<text text-anchor="middle" x="2169" y="-191.5" font-family="Helvetica,sans-Serif" font-size="10.00" fill="#000000">wallet/coinselection.h</text>
</a>
</g>
</g>
<!-- Node0&#45;&gt;Node98 -->
<g id="edge120" class="edge">
<title>Node0&#45;&gt;Node98</title>
<path fill="none" stroke="#191970" d="M750.2754,-414.0701C991.8906,-411.8507 1769.4197,-398.1794 2003,-314 2065.6356,-291.4269 2125.5656,-237.8191 2153.1555,-210.7437"/>
<polygon fill="#191970" stroke="#191970" points="2155.7495,-213.0997 2160.3521,-203.5567 2150.803,-208.1466 2155.7495,-213.0997"/>
</g>
<!-- Node2 -->
<g id="node3" class="node">
<title>Node2</title>
<polygon fill="#ffffff" stroke="#bfbfbf" points="1446.5962,-5.5 1446.5962,-23.5 1505.4038,-23.5 1505.4038,-5.5 1446.5962,-5.5"/>
<text text-anchor="middle" x="1476" y="-11.5" font-family="Helvetica,sans-Serif" font-size="10.00" fill="#000000">functional</text>
</g>
<!-- Node1&#45;&gt;Node2 -->
<g id="edge2" class="edge">
<title>Node1&#45;&gt;Node2</title>
<path fill="none" stroke="#191970" d="M262.1843,-76.8438C309.9821,-73.8 391.1817,-68.7496 461,-65 801.3298,-46.7227 886.6505,-46.907 1227,-29 1300.9258,-25.1105 1387.159,-19.9495 1436.2945,-16.9497"/>
<polygon fill="#191970" stroke="#191970" points="1436.7243,-20.43 1446.4918,-16.3256 1436.2966,-13.4431 1436.7243,-20.43"/>
</g>
<!-- Node3 -->
<g id="node4" class="node">
<title>Node3</title>
<polygon fill="#ffffff" stroke="#bfbfbf" points="596.6133,-5.5 596.6133,-23.5 635.3867,-23.5 635.3867,-5.5 596.6133,-5.5"/>
<text text-anchor="middle" x="616" y="-11.5" font-family="Helvetica,sans-Serif" font-size="10.00" fill="#000000">limits</text>
</g>
<!-- Node1&#45;&gt;Node3 -->
<g id="edge3" class="edge">
<title>Node1&#45;&gt;Node3</title>
<path fill="none" stroke="#191970" d="M262.0131,-78.1813C330.7051,-75.021 472.7285,-64.3959 587,-29 588.2401,-28.6159 589.492,-28.1833 590.7438,-27.7141"/>
<polygon fill="#191970" stroke="#191970" points="592.3786,-30.819 600.1308,-23.5972 589.567,-24.4084 592.3786,-30.819"/>
</g>
<!-- Node4 -->
<g id="node5" class="node">
<title>Node4</title>
<polygon fill="#ffffff" stroke="#bfbfbf" points="67.2734,-5.5 67.2734,-23.5 102.7266,-23.5 102.7266,-5.5 67.2734,-5.5"/>
<text text-anchor="middle" x="85" y="-11.5" font-family="Helvetica,sans-Serif" font-size="10.00" fill="#000000">map</text>
</g>
<!-- Node1&#45;&gt;Node4 -->
<g id="edge4" class="edge">
<title>Node1&#45;&gt;Node4</title>
<path fill="none" stroke="#191970" d="M200.3366,-70.3639C178.2851,-60.5126 142.4107,-44.194 112,-29 111.4645,-28.7325 110.924,-28.4604 110.3798,-28.1848"/>
<polygon fill="#191970" stroke="#191970" points="111.9689,-25.0662 101.483,-23.5507 108.7351,-31.2745 111.9689,-25.0662"/>
</g>
<!-- Node5 -->
<g id="node6" class="node">
<title>Node5</title>
<polygon fill="#ffffff" stroke="#bfbfbf" points="1644.7734,-5.5 1644.7734,-23.5 1685.2266,-23.5 1685.2266,-5.5 1644.7734,-5.5"/>
<text text-anchor="middle" x="1665" y="-11.5" font-family="Helvetica,sans-Serif" font-size="10.00" fill="#000000">string</text>
</g>
<!-- Node1&#45;&gt;Node5 -->
<g id="edge5" class="edge">
<title>Node1&#45;&gt;Node5</title>
<path fill="none" stroke="#191970" d="M262.1762,-76.6837C309.9665,-73.4913 391.1591,-68.3031 461,-65 928.7506,-42.8781 1046.7141,-59.3948 1514,-29 1555.8453,-26.2782 1604.0523,-21.3327 1634.5192,-17.9827"/>
<polygon fill="#191970" stroke="#191970" points="1634.9646,-21.4549 1644.5163,-16.8706 1634.1906,-14.4978 1634.9646,-21.4549"/>
</g>
<!-- Node6 -->
<g id="node7" class="node">
<title>Node6</title>
<polygon fill="#ffffff" stroke="#bfbfbf" points="830.3843,-5.5 830.3843,-23.5 873.6157,-23.5 873.6157,-5.5 830.3843,-5.5"/>
<text text-anchor="middle" x="852" y="-11.5" font-family="Helvetica,sans-Serif" font-size="10.00" fill="#000000">vector</text>
</g>
<!-- Node1&#45;&gt;Node6 -->
<g id="edge6" class="edge">
<title>Node1&#45;&gt;Node6</title>
<path fill="none" stroke="#191970" d="M261.8803,-76.6008C374.4004,-68.5037 687.069,-45.1827 789,-29 799.2836,-27.3674 810.3876,-25.0137 820.3668,-22.6761"/>
<polygon fill="#191970" stroke="#191970" points="821.3818,-26.0316 830.2775,-20.2768 819.7346,-19.2281 821.3818,-26.0316"/>
</g>
<!-- Node7 -->
<g id="node8" class="node">
<title>Node7</title>
<polygon fill="#ffffff" stroke="#bfbfbf" points="360.7119,-5.5 360.7119,-23.5 407.2881,-23.5 407.2881,-5.5 360.7119,-5.5"/>
<text text-anchor="middle" x="384" y="-11.5" font-family="Helvetica,sans-Serif" font-size="10.00" fill="#000000">chrono</text>
</g>
<!-- Node1&#45;&gt;Node7 -->
<g id="edge7" class="edge">
<title>Node1&#45;&gt;Node7</title>
<path fill="none" stroke="#191970" d="M245.7958,-70.426C272.2663,-60.6265 315.355,-44.3507 352,-29 353.0126,-28.5758 354.041,-28.1396 355.078,-27.6951"/>
<polygon fill="#191970" stroke="#191970" points="356.7025,-30.8043 364.4473,-23.5746 353.8844,-24.3966 356.7025,-30.8043"/>
</g>
<!-- Node8 -->
<g id="node9" class="node">
<title>Node8</title>
<polygon fill="#ffffff" stroke="#bfbfbf" points="121.1997,-.5 121.1997,-28.5 222.8003,-28.5 222.8003,-.5 121.1997,-.5"/>
<text text-anchor="start" x="129.1997" y="-16.5" font-family="Helvetica,sans-Serif" font-size="10.00" fill="#000000">boost/preprocessor</text>
<text text-anchor="middle" x="172" y="-6.5" font-family="Helvetica,sans-Serif" font-size="10.00" fill="#000000">/cat.hpp</text>
</g>
<!-- Node1&#45;&gt;Node8 -->
<g id="edge8" class="edge">
<title>Node1&#45;&gt;Node8</title>
<path fill="none" stroke="#191970" d="M214.1868,-70.462C207.7326,-61.9004 197.772,-48.6873 189.1498,-37.2497"/>
<polygon fill="#191970" stroke="#191970" points="191.712,-34.8342 182.8975,-28.9559 186.1223,-39.048 191.712,-34.8342"/>
</g>
<!-- Node9 -->
<g id="node10" class="node">
<title>Node9</title>
<polygon fill="#ffffff" stroke="#bfbfbf" points="241.1997,-.5 241.1997,-28.5 342.8003,-28.5 342.8003,-.5 241.1997,-.5"/>
<text text-anchor="start" x="249.1997" y="-16.5" font-family="Helvetica,sans-Serif" font-size="10.00" fill="#000000">boost/preprocessor</text>
<text text-anchor="middle" x="292" y="-6.5" font-family="Helvetica,sans-Serif" font-size="10.00" fill="#000000">/stringize.hpp</text>
</g>
<!-- Node1&#45;&gt;Node9 -->
<g id="edge9" class="edge">
<title>Node1&#45;&gt;Node9</title>
<path fill="none" stroke="#191970" d="M230.8722,-70.462C240.6541,-61.5068 255.9945,-47.4628 268.8601,-35.6844"/>
<polygon fill="#191970" stroke="#191970" points="271.4666,-38.0434 276.4791,-28.7093 266.7398,-32.8803 271.4666,-38.0434"/>
</g>
<!-- Node10&#45;&gt;Node4 -->
<g id="edge112" class="edge">
<title>Node10&#45;&gt;Node4</title>
<path fill="none" stroke="#191970" d="M1208.7999,-358.5006C1060.4858,-354.5601 533.7244,-339.0755 368,-314 252.839,-296.5751 114,-365.9718 114,-249.5 114,-249.5 114,-249.5 114,-194.5 114,-135.3225 98.5332,-66.5787 90.1904,-33.8028"/>
<polygon fill="#191970" stroke="#191970" points="93.4872,-32.5751 87.5736,-23.7842 86.7144,-34.3442 93.4872,-32.5751"/>
</g>
<!-- Node10&#45;&gt;Node5 -->
<g id="edge117" class="edge">
<title>Node10&#45;&gt;Node5</title>
<path fill="none" stroke="#191970" d="M1287.3743,-357.3366C1369.7137,-352.3761 1557.3238,-338.6693 1616,-314 1652.1518,-298.8007 1667.9804,-294.3314 1685,-259 1722.1457,-181.8885 1688.6446,-75.1672 1672.5248,-32.8477"/>
<polygon fill="#191970" stroke="#191970" points="1675.777,-31.5539 1668.8547,-23.5333 1669.2644,-34.1202 1675.777,-31.5539"/>
</g>
<!-- Node10&#45;&gt;Node6 -->
<g id="edge119" class="edge">
<title>Node10&#45;&gt;Node6</title>
<path fill="none" stroke="#191970" d="M1208.7212,-357.4352C1135.6863,-353.0029 982.2896,-340.7308 937,-314 905.9967,-295.7012 888,-285.5007 888,-249.5 888,-249.5 888,-249.5 888,-194.5 888,-178.4831 865.7993,-76.6187 856.266,-33.6151"/>
<polygon fill="#191970" stroke="#191970" points="859.6262,-32.6015 854.0387,-23.5999 852.7932,-34.1212 859.6262,-32.6015"/>
</g>
<!-- Node11 -->
<g id="node12" class="node">
<title>Node11</title>
<g id="a_node12"><a xlink:href="amount_8h.html" target="_top" xlink:title="amount.h">
<polygon fill="#ffffff" stroke="#000000" points="2052.1528,-70.5 2052.1528,-88.5 2109.8472,-88.5 2109.8472,-70.5 2052.1528,-70.5"/>
<text text-anchor="middle" x="2081" y="-76.5" font-family="Helvetica,sans-Serif" font-size="10.00" fill="#000000">amount.h</text>
</a>
</g>
</g>
<!-- Node10&#45;&gt;Node11 -->
<g id="edge11" class="edge">
<title>Node10&#45;&gt;Node11</title>
<path fill="none" stroke="#191970" d="M1287.253,-357.9705C1421.6239,-352.604 1862.5807,-333.8782 2003,-314 2132.4465,-295.6751 2290,-380.2371 2290,-249.5 2290,-249.5 2290,-249.5 2290,-194.5 2290,-155.8576 2178.9439,-112.4446 2118.7405,-91.7494"/>
<polygon fill="#191970" stroke="#191970" points="2119.781,-88.4065 2109.1867,-88.509 2117.5326,-95.0356 2119.781,-88.4065"/>
</g>
<!-- Node12 -->
<g id="node13" class="node">
<title>Node12</title>
<polygon fill="#ffffff" stroke="#bfbfbf" points="1999.8794,-5.5 1999.8794,-23.5 2048.1206,-23.5 2048.1206,-5.5 1999.8794,-5.5"/>
<text text-anchor="middle" x="2024" y="-11.5" font-family="Helvetica,sans-Serif" font-size="10.00" fill="#000000">stdint.h</text>
</g>
<!-- Node10&#45;&gt;Node12 -->
<g id="edge116" class="edge">
<title>Node10&#45;&gt;Node12</title>
<path fill="none" stroke="#191970" d="M1287.1563,-359.1087C1438.4052,-357.3536 1984.4728,-348.6995 2154,-314 2234.8004,-297.4614 2328,-331.9756 2328,-249.5 2328,-249.5 2328,-249.5 2328,-139.5 2328,-93.4528 2296.2235,-87.4147 2256,-65 2222.4263,-46.2909 2114.6596,-28.042 2058.6059,-19.5105"/>
<polygon fill="#191970" stroke="#191970" points="2058.8552,-16.0088 2048.4462,-17.9845 2057.8154,-22.9311 2058.8552,-16.0088"/>
</g>
<!-- Node13 -->
<g id="node14" class="node">
<title>Node13</title>
<g id="a_node14"><a xlink:href="outputtype_8h.html" target="_top" xlink:title="outputtype.h">
<polygon fill="#ffffff" stroke="#000000" points="1244.478,-295.5 1244.478,-313.5 1315.522,-313.5 1315.522,-295.5 1244.478,-295.5"/>
<text text-anchor="middle" x="1280" y="-301.5" font-family="Helvetica,sans-Serif" font-size="10.00" fill="#000000">outputtype.h</text>
</a>
</g>
</g>
<!-- Node10&#45;&gt;Node13 -->
<g id="edge13" class="edge">
<title>Node10&#45;&gt;Node13</title>
<path fill="none" stroke="#191970" d="M1253.2841,-350.4179C1257.6583,-342.8998 1264.01,-331.9829 1269.4226,-322.6799"/>
<polygon fill="#191970" stroke="#191970" points="1272.5973,-324.1831 1274.601,-313.7795 1266.5468,-320.6628 1272.5973,-324.1831"/>
</g>
<!-- Node51 -->
<g id="node18" class="node">
<title>Node51</title>
<polygon fill="#ffffff" stroke="#bfbfbf" points="722.436,-5.5 722.436,-23.5 779.564,-23.5 779.564,-5.5 722.436,-5.5"/>
<text text-anchor="middle" x="751" y="-11.5" font-family="Helvetica,sans-Serif" font-size="10.00" fill="#000000">algorithm</text>
</g>
<!-- Node10&#45;&gt;Node51 -->
<g id="edge110" class="edge">
<title>Node10&#45;&gt;Node51</title>
<path fill="none" stroke="#191970" d="M1208.8512,-357.3264C1144.5574,-353.088 1012.9599,-341.5932 905,-314 827.9122,-294.2974 738,-329.0658 738,-249.5 738,-249.5 738,-249.5 738,-139.5 738,-101.8291 743.9133,-58.1132 747.7635,-33.6415"/>
<polygon fill="#191970" stroke="#191970" points="751.2519,-33.996 749.4059,-23.5632 744.343,-32.87 751.2519,-33.996"/>
</g>
<!-- Node53 -->
<g id="node21" class="node">
<title>Node53</title>
<polygon fill="#ffffff" stroke="#bfbfbf" points="1165.9434,-5.5 1165.9434,-23.5 1218.0566,-23.5 1218.0566,-5.5 1165.9434,-5.5"/>
<text text-anchor="middle" x="1192" y="-11.5" font-family="Helvetica,sans-Serif" font-size="10.00" fill="#000000">memory</text>
</g>
<!-- Node10&#45;&gt;Node53 -->
<g id="edge113" class="edge">
<title>Node10&#45;&gt;Node53</title>
<path fill="none" stroke="#191970" d="M1216.9295,-350.4109C1175.6843,-336.2089 1108,-304.5208 1108,-249.5 1108,-249.5 1108,-249.5 1108,-194.5 1108,-129.215 1153.9365,-62.0514 1177.8692,-31.4896"/>
<polygon fill="#191970" stroke="#191970" points="1180.7157,-33.5348 1184.248,-23.5461 1175.2577,-29.1519 1180.7157,-33.5348"/>
</g>
<!-- Node10&#45;&gt;Node54 -->
<g id="edge114" class="edge">
<title>Node10&#45;&gt;Node54</title>
<path fill="none" stroke="#191970" d="M1208.7402,-358.701C1048.4599,-355.2719 448.3803,-340.7474 368,-314 210.3801,-261.5503 83.9218,-88.057 46.3881,-32.0784"/>
<polygon fill="#191970" stroke="#191970" points="49.2114,-30.0023 40.778,-23.5892 43.3714,-33.8617 49.2114,-30.0023"/>
</g>
<!-- Node55 -->
<g id="node24" class="node">
<title>Node55</title>
<polygon fill="#ffffff" stroke="#bfbfbf" points="425.6084,-5.5 425.6084,-23.5 464.3916,-23.5 464.3916,-5.5 425.6084,-5.5"/>
<text text-anchor="middle" x="445" y="-11.5" font-family="Helvetica,sans-Serif" font-size="10.00" fill="#000000">utility</text>
</g>
<!-- Node10&#45;&gt;Node55 -->
<g id="edge118" class="edge">
<title>Node10&#45;&gt;Node55</title>
<path fill="none" stroke="#191970" d="M1208.6592,-359.1878C1028.3886,-357.2487 290,-343.5648 290,-249.5 290,-249.5 290,-249.5 290,-139.5 290,-65.0158 349.288,-62.1272 416,-29 416.5514,-28.7262 417.1087,-28.4493 417.6702,-28.1701"/>
<polygon fill="#191970" stroke="#191970" points="419.5198,-31.1589 426.9081,-23.5651 416.3969,-24.8941 419.5198,-31.1589"/>
</g>
<!-- Node59 -->
<g id="node25" class="node">
<title>Node59</title>
<polygon fill="#ffffff" stroke="#bfbfbf" points="879.5986,-70.5 879.5986,-88.5 938.4014,-88.5 938.4014,-70.5 879.5986,-70.5"/>
<text text-anchor="middle" x="909" y="-76.5" font-family="Helvetica,sans-Serif" font-size="10.00" fill="#000000">stdexcept</text>
</g>
<!-- Node10&#45;&gt;Node59 -->
<g id="edge115" class="edge">
<title>Node10&#45;&gt;Node59</title>
<path fill="none" stroke="#191970" d="M1208.7377,-352.0624C1168.8573,-343.7972 1110.6613,-329.5506 1094,-314 1071.6393,-293.13 1070,-280.0869 1070,-249.5 1070,-249.5 1070,-249.5 1070,-194.5 1070,-162.3513 983.9223,-115.7324 937.6458,-92.9924"/>
<polygon fill="#191970" stroke="#191970" points="938.9451,-89.7326 928.4204,-88.5162 935.8894,-96.0305 938.9451,-89.7326"/>
</g>
<!-- Node70 -->
<g id="node26" class="node">
<title>Node70</title>
<g id="a_node26"><a xlink:href="sign_8h.html" target="_top" xlink:title="script/sign.h">
<polygon fill="#ffffff" stroke="#ff0000" points="633.3228,-185.5 633.3228,-203.5 702.6772,-203.5 702.6772,-185.5 633.3228,-185.5"/>
<text text-anchor="middle" x="668" y="-191.5" font-family="Helvetica,sans-Serif" font-size="10.00" fill="#000000">script/sign.h</text>
</a>
</g>
</g>
<!-- Node10&#45;&gt;Node70 -->
<g id="edge89" class="edge">
<title>Node10&#45;&gt;Node70</title>
<path fill="none" stroke="#191970" d="M1208.7797,-358.3329C1093.8564,-354.6052 763.4924,-341.578 724,-314 690.1544,-290.3652 676.211,-240.8049 670.9204,-213.5199"/>
<polygon fill="#191970" stroke="#191970" points="674.3629,-212.8868 669.197,-203.6367 667.467,-214.0894 674.3629,-212.8868"/>
</g>
<!-- Node76 -->
<g id="node29" class="node">
<title>Node76</title>
<g id="a_node29"><a xlink:href="streams_8h.html" target="_top" xlink:title="streams.h">
<polygon fill="#ffffff" stroke="#000000" points="432.0493,-130.5 432.0493,-148.5 491.9507,-148.5 491.9507,-130.5 432.0493,-130.5"/>
<text text-anchor="middle" x="462" y="-136.5" font-family="Helvetica,sans-Serif" font-size="10.00" fill="#000000">streams.h</text>
</a>
</g>
</g>
<!-- Node10&#45;&gt;Node76 -->
<g id="edge62" class="edge">
<title>Node10&#45;&gt;Node76</title>
<path fill="none" stroke="#191970" d="M1208.5762,-358.9576C1099.4015,-357.0241 795.0598,-348.5938 702,-314 605.4814,-278.1205 513.372,-191.8883 477.6277,-155.8068"/>
<polygon fill="#191970" stroke="#191970" points="480.001,-153.2277 470.5073,-148.5243 474.9958,-158.1215 480.001,-153.2277"/>
</g>
<!-- Node86 -->
<g id="node34" class="node">
<title>Node86</title>
<g id="a_node34"><a xlink:href="feerate_8h.html" target="_top" xlink:title="policy/feerate.h">
<polygon fill="#ffffff" stroke="#000000" points="1737.0913,-130.5 1737.0913,-148.5 1820.9087,-148.5 1820.9087,-130.5 1737.0913,-130.5"/>
<text text-anchor="middle" x="1779" y="-136.5" font-family="Helvetica,sans-Serif" font-size="10.00" fill="#000000">policy/feerate.h</text>
</a>
</g>
</g>
<!-- Node10&#45;&gt;Node86 -->
<g id="edge58" class="edge">
<title>Node10&#45;&gt;Node86</title>
<path fill="none" stroke="#191970" d="M1287.4517,-359.0112C1386.2393,-357.2622 1641.77,-349.3514 1718,-314 1781.584,-284.5131 1803.7434,-268.5714 1831,-204 1839.1454,-184.7034 1821.1996,-166.4901 1804.2093,-154.3712"/>
<polygon fill="#191970" stroke="#191970" points="1805.8198,-151.239 1795.5548,-148.6158 1801.9436,-157.0678 1805.8198,-151.239"/>
</g>
<!-- Node87 -->
<g id="node35" class="node">
<title>Node87</title>
<g id="a_node35"><a xlink:href="tinyformat_8h.html" target="_top" xlink:title="tinyformat.h">
<polygon fill="#ffffff" stroke="#000000" points="1291.8794,-130.5 1291.8794,-148.5 1360.1206,-148.5 1360.1206,-130.5 1291.8794,-130.5"/>
<text text-anchor="middle" x="1326" y="-136.5" font-family="Helvetica,sans-Serif" font-size="10.00" fill="#000000">tinyformat.h</text>
</a>
</g>
</g>
<!-- Node10&#45;&gt;Node87 -->
<g id="edge63" class="edge">
<title>Node10&#45;&gt;Node87</title>
<path fill="none" stroke="#191970" d="M1277.1213,-350.4841C1294.3319,-343.4889 1314.7134,-331.9074 1325,-314 1353.6068,-264.2001 1340.3948,-192.467 1331.6117,-158.5922"/>
<polygon fill="#191970" stroke="#191970" points="1334.9007,-157.3527 1328.8697,-148.6419 1328.1522,-159.2124 1334.9007,-157.3527"/>
</g>
<!-- Node91 -->
<g id="node39" class="node">
<title>Node91</title>
<g id="a_node39"><a xlink:href="ui__interface_8h.html" target="_top" xlink:title="ui_interface.h">
<polygon fill="#ffffff" stroke="#000000" points="1541.9805,-70.5 1541.9805,-88.5 1618.0195,-88.5 1618.0195,-70.5 1541.9805,-70.5"/>
<text text-anchor="middle" x="1580" y="-76.5" font-family="Helvetica,sans-Serif" font-size="10.00" fill="#000000">ui_interface.h</text>
</a>
</g>
</g>
<!-- Node10&#45;&gt;Node91 -->
<g id="edge69" class="edge">
<title>Node10&#45;&gt;Node91</title>
<path fill="none" stroke="#191970" d="M1287.3532,-352.3419C1339.8962,-340.9579 1433.159,-314.1295 1492,-259 1540.8892,-213.1945 1566.0839,-134.41 1575.5204,-98.4238"/>
<polygon fill="#191970" stroke="#191970" points="1578.9179,-99.2643 1577.9518,-88.7136 1572.1275,-97.5639 1578.9179,-99.2643"/>
</g>
<!-- Node92 -->
<g id="node40" class="node">
<title>Node92</title>
<g id="a_node40"><a xlink:href="utilstrencodings_8h.html" target="_top" xlink:title="utilstrencodings.h">
<polygon fill="#ffffff" stroke="#000000" points="1788.0889,-70.5 1788.0889,-88.5 1881.9111,-88.5 1881.9111,-70.5 1788.0889,-70.5"/>
<text text-anchor="middle" x="1835" y="-76.5" font-family="Helvetica,sans-Serif" font-size="10.00" fill="#000000">utilstrencodings.h</text>
</a>
</g>
</g>
<!-- Node10&#45;&gt;Node92 -->
<g id="edge74" class="edge">
<title>Node10&#45;&gt;Node92</title>
<path fill="none" stroke="#191970" d="M1287.3459,-357.7151C1389.926,-352.7789 1663.6304,-337.7214 1751,-314 1815.9483,-296.3661 1888,-316.7996 1888,-249.5 1888,-249.5 1888,-249.5 1888,-194.5 1888,-156.9905 1864.4559,-118.3953 1848.7522,-96.8244"/>
<polygon fill="#191970" stroke="#191970" points="1851.4151,-94.5428 1842.5936,-88.6748 1845.8304,-98.7632 1851.4151,-94.5428"/>
</g>
<!-- Node93 -->
<g id="node41" class="node">
<title>Node93</title>
<g id="a_node41"><a xlink:href="validationinterface_8h.html" target="_top" xlink:title="validationinterface.h">
<polygon fill="#ffffff" stroke="#000000" points="1211.5273,-185.5 1211.5273,-203.5 1316.4727,-203.5 1316.4727,-185.5 1211.5273,-185.5"/>
<text text-anchor="middle" x="1264" y="-191.5" font-family="Helvetica,sans-Serif" font-size="10.00" fill="#000000">validationinterface.h</text>
</a>
</g>
</g>
<!-- Node10&#45;&gt;Node93 -->
<g id="edge78" class="edge">
<title>Node10&#45;&gt;Node93</title>
<path fill="none" stroke="#191970" d="M1244.5348,-350.2531C1241.3304,-341.1739 1236.8004,-326.8549 1235,-314 1229.9157,-277.6979 1244.6976,-236.3344 1254.9837,-213.0298"/>
<polygon fill="#191970" stroke="#191970" points="1258.2884,-214.222 1259.3059,-203.6762 1251.934,-211.2857 1258.2884,-214.222"/>
</g>
<!-- Node94 -->
<g id="node43" class="node">
<title>Node94</title>
<g id="a_node43"><a xlink:href="ismine_8h.html" target="_top" xlink:title="script/ismine.h">
<polygon fill="#ffffff" stroke="#000000" points="1992.0469,-240.5 1992.0469,-258.5 2071.9531,-258.5 2071.9531,-240.5 1992.0469,-240.5"/>
<text text-anchor="middle" x="2032" y="-246.5" font-family="Helvetica,sans-Serif" font-size="10.00" fill="#000000">script/ismine.h</text>
</a>
</g>
</g>
<!-- Node10&#45;&gt;Node94 -->
<g id="edge86" class="edge">
<title>Node10&#45;&gt;Node94</title>
<path fill="none" stroke="#191970" d="M1287.396,-358.8537C1430.2982,-356.263 1916.2366,-345.2193 1978,-314 1997.8867,-303.9479 2013.2504,-282.966 2022.4182,-267.6536"/>
<polygon fill="#191970" stroke="#191970" points="2025.6705,-269.0115 2027.5333,-258.5817 2019.573,-265.5734 2025.6705,-269.0115"/>
</g>
<!-- Node95 -->
<g id="node44" class="node">
<title>Node95</title>
<polygon fill="#ffffff" stroke="#bfbfbf" points="1546.4385,-295.5 1546.4385,-313.5 1583.5615,-313.5 1583.5615,-295.5 1546.4385,-295.5"/>
<text text-anchor="middle" x="1565" y="-301.5" font-family="Helvetica,sans-Serif" font-size="10.00" fill="#000000">util.h</text>
</g>
<!-- Node10&#45;&gt;Node95 -->
<g id="edge90" class="edge">
<title>Node10&#45;&gt;Node95</title>
<path fill="none" stroke="#191970" d="M1287.3333,-354.7349C1342.4157,-347.7141 1445.4948,-333.3061 1532,-314 1533.4547,-313.6753 1534.9399,-313.3235 1536.436,-312.9529"/>
<polygon fill="#191970" stroke="#191970" points="1537.5002,-316.2913 1546.2544,-310.3235 1535.6893,-309.5296 1537.5002,-316.2913"/>
</g>
<!-- Node96 -->
<g id="node45" class="node">
<title>Node96</title>
<g id="a_node45"><a xlink:href="crypter_8h.html" target="_top" xlink:title="wallet/crypter.h">
<polygon fill="#ffffff" stroke="#ff0000" points="959.6504,-295.5 959.6504,-313.5 1042.3496,-313.5 1042.3496,-295.5 959.6504,-295.5"/>
<text text-anchor="middle" x="1001" y="-301.5" font-family="Helvetica,sans-Serif" font-size="10.00" fill="#000000">wallet/crypter.h</text>
</a>
</g>
</g>
<!-- Node10&#45;&gt;Node96 -->
<g id="edge91" class="edge">
<title>Node10&#45;&gt;Node96</title>
<path fill="none" stroke="#191970" d="M1208.8621,-350.7851C1166.2805,-341.3034 1098.0686,-326.1145 1051.4834,-315.7412"/>
<polygon fill="#191970" stroke="#191970" points="1052.1185,-312.297 1041.5968,-313.5398 1050.597,-319.1297 1052.1185,-312.297"/>
</g>
<!-- Node97 -->
<g id="node46" class="node">
<title>Node97</title>
<polygon fill="#ffffff" stroke="#bfbfbf" points="916.2734,-240.5 916.2734,-258.5 961.7266,-258.5 961.7266,-240.5 916.2734,-240.5"/>
<text text-anchor="middle" x="939" y="-246.5" font-family="Helvetica,sans-Serif" font-size="10.00" fill="#000000">atomic</text>
</g>
<!-- Node10&#45;&gt;Node97 -->
<g id="edge111" class="edge">
<title>Node10&#45;&gt;Node97</title>
<path fill="none" stroke="#191970" d="M1208.8525,-356.0221C1132.4467,-348.8753 969.2899,-331.7151 951,-314 939.2506,-302.6198 936.9071,-283.71 937.114,-269.2996"/>
<polygon fill="#191970" stroke="#191970" points="940.6296,-269.1178 937.6958,-258.9373 933.6407,-268.7253 940.6296,-269.1178"/>
</g>
<!-- Node10&#45;&gt;Node98 -->
<g id="edge95" class="edge">
<title>Node10&#45;&gt;Node98</title>
<path fill="none" stroke="#191970" d="M1287.2204,-358.6748C1422.8153,-355.5735 1866.5654,-343.2659 1923,-314 1960.5878,-294.5077 1947.2323,-262.6597 1983,-240 2003.407,-227.0717 2060.5918,-214.1578 2106.2182,-205.4088"/>
<polygon fill="#191970" stroke="#191970" points="2106.8787,-208.846 2116.0559,-203.5519 2105.5802,-201.9675 2106.8787,-208.846"/>
</g>
<!-- Node101 -->
<g id="node49" class="node">
<title>Node101</title>
<g id="a_node49"><a xlink:href="walletdb_8h.html" target="_top" xlink:title="wallet/walletdb.h">
<polygon fill="#ffffff" stroke="#ff0000" points="1916.313,-185.5 1916.313,-203.5 2005.687,-203.5 2005.687,-185.5 1916.313,-185.5"/>
<text text-anchor="middle" x="1961" y="-191.5" font-family="Helvetica,sans-Serif" font-size="10.00" fill="#000000">wallet/walletdb.h</text>
</a>
</g>
</g>
<!-- Node10&#45;&gt;Node101 -->
<g id="edge101" class="edge">
<title>Node10&#45;&gt;Node101</title>
<path fill="none" stroke="#191970" d="M1287.1723,-359.0222C1420.4575,-357.0909 1850.9579,-348.2363 1902,-314 1919.9621,-301.952 1943.1558,-243.7673 1954.3598,-213.2589"/>
<polygon fill="#191970" stroke="#191970" points="1957.6916,-214.3372 1957.7946,-203.7429 1951.1074,-211.9606 1957.6916,-214.3372"/>
</g>
<!-- Node108 -->
<g id="node50" class="node">
<title>Node108</title>
<g id="a_node50"><a xlink:href="rpcwallet_8h.html" target="_top" xlink:title="wallet/rpcwallet.h">
<polygon fill="#ffffff" stroke="#000000" points="1583.9287,-240.5 1583.9287,-258.5 1676.0713,-258.5 1676.0713,-240.5 1583.9287,-240.5"/>
<text text-anchor="middle" x="1630" y="-246.5" font-family="Helvetica,sans-Serif" font-size="10.00" fill="#000000">wallet/rpcwallet.h</text>
</a>
</g>
</g>
<!-- Node10&#45;&gt;Node108 -->
<g id="edge108" class="edge">
<title>Node10&#45;&gt;Node108</title>
<path fill="none" stroke="#191970" d="M1287.2572,-358.6251C1366.8156,-356.1713 1543.696,-347.0514 1593,-314 1608.8768,-303.3568 1618.7652,-283.4491 1624.2813,-268.5537"/>
<polygon fill="#191970" stroke="#191970" points="1627.6917,-269.3914 1627.5482,-258.7975 1621.054,-267.1687 1627.6917,-269.3914"/>
</g>
<!-- Node11&#45;&gt;Node12 -->
<g id="edge12" class="edge">
<title>Node11&#45;&gt;Node12</title>
<path fill="none" stroke="#191970" d="M2073.0744,-70.462C2064.3257,-60.4854 2050.0384,-44.1929 2039.13,-31.7535"/>
<polygon fill="#191970" stroke="#191970" points="2041.4522,-29.0931 2032.2274,-23.8821 2036.1892,-33.7084 2041.4522,-29.0931"/>
</g>
<!-- Node13&#45;&gt;Node5 -->
<g id="edge56" class="edge">
<title>Node13&#45;&gt;Node5</title>
<path fill="none" stroke="#191970" d="M1304.7386,-295.3403C1366.6628,-271.306 1530.2982,-200.825 1627,-94 1643.0685,-76.2493 1653.6931,-50.487 1659.5241,-33.1446"/>
<polygon fill="#191970" stroke="#191970" points="1662.8702,-34.1712 1662.541,-23.5815 1656.1945,-32.0651 1662.8702,-34.1712"/>
</g>
<!-- Node13&#45;&gt;Node6 -->
<g id="edge57" class="edge">
<title>Node13&#45;&gt;Node6</title>
<path fill="none" stroke="#191970" d="M1272.986,-295.3597C1259.4447,-277.7101 1228.7623,-237.7036 1203,-204 1191.2048,-188.5689 1113.4429,-75.3382 1097,-65 1061.7828,-42.8577 942.07,-25.5745 884.0476,-18.278"/>
<polygon fill="#191970" stroke="#191970" points="884.3193,-14.7851 873.9657,-17.0329 883.4613,-21.7323 884.3193,-14.7851"/>
</g>
<!-- Node14 -->
<g id="node15" class="node">
<title>Node14</title>
<g id="a_node15"><a xlink:href="keystore_8h.html" target="_top" xlink:title="keystore.h">
<polygon fill="#ffffff" stroke="#ff0000" points="979.9336,-240.5 979.9336,-258.5 1042.0664,-258.5 1042.0664,-240.5 979.9336,-240.5"/>
<text text-anchor="middle" x="1011" y="-246.5" font-family="Helvetica,sans-Serif" font-size="10.00" fill="#000000">keystore.h</text>
</a>
</g>
</g>
<!-- Node13&#45;&gt;Node14 -->
<g id="edge14" class="edge">
<title>Node13&#45;&gt;Node14</title>
<path fill="none" stroke="#191970" d="M1244.2789,-297.1964C1194.5707,-287.033 1104.7452,-268.6672 1052.2467,-257.9333"/>
<polygon fill="#191970" stroke="#191970" points="1052.7661,-254.4672 1042.2677,-255.893 1051.3639,-261.3253 1052.7661,-254.4672"/>
</g>
<!-- Node79 -->
<g id="node32" class="node">
<title>Node79</title>
<g id="a_node32"><a xlink:href="standard_8h.html" target="_top" xlink:title="script/standard.h">
<polygon fill="#ffffff" stroke="#ff0000" points="1732.0371,-185.5 1732.0371,-203.5 1821.9629,-203.5 1821.9629,-185.5 1732.0371,-185.5"/>
<text text-anchor="middle" x="1777" y="-191.5" font-family="Helvetica,sans-Serif" font-size="10.00" fill="#000000">script/standard.h</text>
</a>
</g>
</g>
<!-- Node13&#45;&gt;Node79 -->
<g id="edge55" class="edge">
<title>Node13&#45;&gt;Node79</title>
<path fill="none" stroke="#191970" d="M1315.667,-296.9999C1357.8232,-288.0994 1430.0747,-272.7324 1492,-259 1528.9456,-250.807 1538.0964,-248.3801 1575,-240 1626.707,-228.2583 1685.8885,-214.9423 1726.766,-205.764"/>
<polygon fill="#191970" stroke="#191970" points="1727.7579,-209.1285 1736.7485,-203.5232 1726.2247,-202.2985 1727.7579,-209.1285"/>
</g>
<!-- Node16 -->
<g id="node16" class="node">
<title>Node16</title>
<g id="a_node16"><a xlink:href="pubkey_8h.html" target="_top" xlink:title="pubkey.h">
<polygon fill="#ffffff" stroke="#ff0000" points="804.0757,-130.5 804.0757,-148.5 859.9243,-148.5 859.9243,-130.5 804.0757,-130.5"/>
<text text-anchor="middle" x="832" y="-136.5" font-family="Helvetica,sans-Serif" font-size="10.00" fill="#000000">pubkey.h</text>
</a>
</g>
</g>
<!-- Node14&#45;&gt;Node16 -->
<g id="edge15" class="edge">
<title>Node14&#45;&gt;Node16</title>
<path fill="none" stroke="#191970" d="M996.3517,-240.4982C965.4082,-221.4827 893.1541,-177.0807 855.6035,-154.005"/>
<polygon fill="#191970" stroke="#191970" points="857.2031,-150.8799 846.8507,-148.6261 853.5381,-156.8438 857.2031,-150.8799"/>
</g>
<!-- Node14&#45;&gt;Node70 -->
<g id="edge31" class="edge">
<title>Node14&#45;&gt;Node70</title>
<path fill="none" stroke="#191970" d="M979.6111,-241.7816C976.7067,-241.1471 973.8031,-240.5423 971,-240 879.8554,-222.3656 772.163,-207.6288 712.8443,-200.0344"/>
<polygon fill="#191970" stroke="#191970" points="713.0583,-196.5335 702.6968,-198.7446 712.1756,-203.4776 713.0583,-196.5335"/>
</g>
<!-- Node14&#45;&gt;Node79 -->
<g id="edge52" class="edge">
<title>Node14&#45;&gt;Node79</title>
<path fill="none" stroke="#191970" d="M1042.4562,-247.2414C1159.5753,-238.8321 1571.3188,-209.2682 1721.5814,-198.4791"/>
<polygon fill="#191970" stroke="#191970" points="1722.2171,-201.9426 1731.9408,-197.7353 1721.7158,-194.9606 1722.2171,-201.9426"/>
</g>
<!-- Node81 -->
<g id="node33" class="node">
<title>Node81</title>
<g id="a_node33"><a xlink:href="sync_8h.html" target="_top" xlink:title="sync.h">
<polygon fill="#ffffff" stroke="#ff0000" points="1173.5493,-130.5 1173.5493,-148.5 1218.4507,-148.5 1218.4507,-130.5 1173.5493,-130.5"/>
<text text-anchor="middle" x="1196" y="-136.5" font-family="Helvetica,sans-Serif" font-size="10.00" fill="#000000">sync.h</text>
</a>
</g>
</g>
<!-- Node14&#45;&gt;Node81 -->
<g id="edge54" class="edge">
<title>Node14&#45;&gt;Node81</title>
<path fill="none" stroke="#191970" d="M1026.1393,-240.4982C1058.12,-221.4827 1132.796,-177.0807 1171.6053,-154.005"/>
<polygon fill="#191970" stroke="#191970" points="1173.8449,-156.7453 1180.6515,-148.6261 1170.2673,-150.7286 1173.8449,-156.7453"/>
</g>
<!-- Node16&#45;&gt;Node6 -->
<g id="edge30" class="edge">
<title>Node16&#45;&gt;Node6</title>
<path fill="none" stroke="#191970" d="M832.1812,-130.2529C832.5849,-116.0983 833.8789,-88.2538 838,-65 839.8714,-54.4402 842.9876,-42.8983 845.8056,-33.5174"/>
<polygon fill="#191970" stroke="#191970" points="849.2358,-34.2752 848.8841,-23.6862 842.5556,-32.1833 849.2358,-34.2752"/>
</g>
<!-- Node48 -->
<g id="node17" class="node">
<title>Node48</title>
<g id="a_node17"><a xlink:href="serialize_8h.html" target="_top" xlink:title="serialize.h">
<polygon fill="#ffffff" stroke="#ff0000" points="648.4902,-70.5 648.4902,-88.5 709.5098,-88.5 709.5098,-70.5 648.4902,-70.5"/>
<text text-anchor="middle" x="679" y="-76.5" font-family="Helvetica,sans-Serif" font-size="10.00" fill="#000000">serialize.h</text>
</a>
</g>
</g>
<!-- Node16&#45;&gt;Node48 -->
<g id="edge16" class="edge">
<title>Node16&#45;&gt;Node48</title>
<path fill="none" stroke="#191970" d="M808.7626,-130.3873C782.7759,-120.1964 740.5106,-103.6218 711.3132,-92.1718"/>
<polygon fill="#191970" stroke="#191970" points="712.5423,-88.8944 701.9548,-88.5019 709.9867,-95.4112 712.5423,-88.8944"/>
</g>
<!-- Node16&#45;&gt;Node59 -->
<g id="edge29" class="edge">
<title>Node16&#45;&gt;Node59</title>
<path fill="none" stroke="#191970" d="M843.6946,-130.3873C855.7494,-120.994 874.7645,-106.177 889.1741,-94.9487"/>
<polygon fill="#191970" stroke="#191970" points="891.7109,-97.4092 897.4476,-88.5019 887.4083,-91.8876 891.7109,-97.4092"/>
</g>
<!-- Node48&#45;&gt;Node3 -->
<g id="edge20" class="edge">
<title>Node48&#45;&gt;Node3</title>
<path fill="none" stroke="#191970" d="M670.2401,-70.462C660.4775,-60.3895 644.475,-43.879 632.3759,-31.3957"/>
<polygon fill="#191970" stroke="#191970" points="634.5665,-28.6269 625.0935,-23.8821 629.54,-33.4988 634.5665,-28.6269"/>
</g>
<!-- Node48&#45;&gt;Node4 -->
<g id="edge21" class="edge">
<title>Node48&#45;&gt;Node4</title>
<path fill="none" stroke="#191970" d="M648.3261,-76.5488C617.2499,-73.5737 567.7915,-68.8795 525,-65 341.501,-48.3639 288.5636,-81.6681 112,-29 110.9293,-28.6806 109.8525,-28.316 108.778,-27.9159"/>
<polygon fill="#191970" stroke="#191970" points="109.9356,-24.5964 99.3867,-23.6109 107.0186,-30.9597 109.9356,-24.5964"/>
</g>
<!-- Node48&#45;&gt;Node5 -->
<g id="edge25" class="edge">
<title>Node48&#45;&gt;Node5</title>
<path fill="none" stroke="#191970" d="M709.58,-77.0062C747.4554,-73.96 813.9608,-68.7502 871,-65 1156.6087,-46.2218 1228.5972,-50.684 1514,-29 1555.8132,-25.8232 1604.028,-20.9887 1634.5054,-17.7877"/>
<polygon fill="#191970" stroke="#191970" points="1634.9304,-21.2623 1644.5063,-16.7289 1634.1934,-14.3012 1634.9304,-21.2623"/>
</g>
<!-- Node48&#45;&gt;Node6 -->
<g id="edge28" class="edge">
<title>Node48&#45;&gt;Node6</title>
<path fill="none" stroke="#191970" d="M703.0549,-70.462C733.8135,-58.9053 787.1287,-38.8736 820.9309,-26.1734"/>
<polygon fill="#191970" stroke="#191970" points="822.2001,-29.4355 830.3301,-22.6419 819.738,-22.8827 822.2001,-29.4355"/>
</g>
<!-- Node48&#45;&gt;Node12 -->
<g id="edge24" class="edge">
<title>Node48&#45;&gt;Node12</title>
<path fill="none" stroke="#191970" d="M709.5727,-76.891C747.4409,-73.7286 813.939,-68.4018 871,-65 1236.4786,-43.2114 1328.2238,-45.036 1694,-29 1801.8235,-24.2729 1929.463,-18.6595 1989.5089,-16.0178"/>
<polygon fill="#191970" stroke="#191970" points="1989.7383,-19.5111 1999.5747,-15.5749 1989.4305,-12.5179 1989.7383,-19.5111"/>
</g>
<!-- Node48&#45;&gt;Node51 -->
<g id="edge17" class="edge">
<title>Node48&#45;&gt;Node51</title>
<path fill="none" stroke="#191970" d="M689.0113,-70.462C700.3811,-60.1976 719.1564,-43.2477 733.0699,-30.6869"/>
<polygon fill="#191970" stroke="#191970" points="735.5301,-33.1812 740.6075,-23.8821 730.8394,-27.9853 735.5301,-33.1812"/>
</g>
<!-- Node28 -->
<g id="node19" class="node">
<title>Node28</title>
<polygon fill="#ffffff" stroke="#bfbfbf" points="653.2144,-5.5 653.2144,-23.5 704.7856,-23.5 704.7856,-5.5 653.2144,-5.5"/>
<text text-anchor="middle" x="679" y="-11.5" font-family="Helvetica,sans-Serif" font-size="10.00" fill="#000000">assert.h</text>
</g>
<!-- Node48&#45;&gt;Node28 -->
<g id="edge18" class="edge">
<title>Node48&#45;&gt;Node28</title>
<path fill="none" stroke="#191970" d="M679,-70.462C679,-61.061 679,-46.0518 679,-33.943"/>
<polygon fill="#191970" stroke="#191970" points="682.5001,-33.8821 679,-23.8821 675.5001,-33.8822 682.5001,-33.8821"/>
</g>
<!-- Node52 -->
<g id="node20" class="node">
<title>Node52</title>
<polygon fill="#ffffff" stroke="#bfbfbf" points="482.5,-5.5 482.5,-23.5 511.5,-23.5 511.5,-5.5 482.5,-5.5"/>
<text text-anchor="middle" x="496.8916" y="-11.5" font-family="Helvetica,sans-Serif" font-size="10.00" fill="#000000">ios</text>
</g>
<!-- Node48&#45;&gt;Node52 -->
<g id="edge19" class="edge">
<title>Node48&#45;&gt;Node52</title>
<path fill="none" stroke="#191970" d="M648.2163,-71.9571C615.7846,-63.4864 563.6057,-48.3554 521,-29 520.5679,-28.8037 520.1338,-28.6013 519.6987,-28.3936"/>
<polygon fill="#191970" stroke="#191970" points="521.1205,-25.1834 510.6595,-23.5041 517.79,-31.3404 521.1205,-25.1834"/>
</g>
<!-- Node48&#45;&gt;Node53 -->
<g id="edge22" class="edge">
<title>Node48&#45;&gt;Node53</title>
<path fill="none" stroke="#191970" d="M709.5542,-75.6286C798.8507,-64.3142 1059.1502,-31.3328 1155.5427,-19.1193"/>
<polygon fill="#191970" stroke="#191970" points="1156.1938,-22.5649 1165.6745,-17.8356 1155.3139,-15.6204 1156.1938,-22.5649"/>
</g>
<!-- Node48&#45;&gt;Node54 -->
<g id="edge23" class="edge">
<title>Node48&#45;&gt;Node54</title>
<path fill="none" stroke="#191970" d="M648.3341,-76.4584C617.264,-73.413 567.8104,-68.6652 525,-65 421.2937,-56.1211 156.8111,-61.7139 58,-29 57.4119,-28.8053 56.8236,-28.5924 56.2367,-28.3638"/>
<polygon fill="#191970" stroke="#191970" points="57.5908,-25.1242 47.0985,-23.6534 54.3835,-31.3462 57.5908,-25.1242"/>
</g>
<!-- Node29 -->
<g id="node23" class="node">
<title>Node29</title>
<polygon fill="#ffffff" stroke="#bfbfbf" points="529.6035,-5.5 529.6035,-23.5 578.3965,-23.5 578.3965,-5.5 529.6035,-5.5"/>
<text text-anchor="middle" x="554" y="-11.5" font-family="Helvetica,sans-Serif" font-size="10.00" fill="#000000">string.h</text>
</g>
<!-- Node48&#45;&gt;Node29 -->
<g id="edge26" class="edge">
<title>Node48&#45;&gt;Node29</title>
<path fill="none" stroke="#191970" d="M661.6193,-70.462C640.6547,-59.5605 605.1876,-41.1176 580.7329,-28.4011"/>
<polygon fill="#191970" stroke="#191970" points="582.123,-25.1791 571.6361,-23.6708 578.8935,-31.3896 582.123,-25.1791"/>
</g>
<!-- Node48&#45;&gt;Node55 -->
<g id="edge27" class="edge">
<title>Node48&#45;&gt;Node55</title>
<path fill="none" stroke="#191970" d="M648.3001,-74.3341C607.4409,-66.9302 533.3292,-51.6473 473,-29 472.1255,-28.6717 471.2433,-28.3228 470.3581,-27.9574"/>
<polygon fill="#191970" stroke="#191970" points="471.5318,-24.6435 460.988,-23.6055 468.5831,-30.9922 471.5318,-24.6435"/>
</g>
<!-- Node70&#45;&gt;Node16 -->
<g id="edge34" class="edge">
<title>Node70&#45;&gt;Node16</title>
<path fill="none" stroke="#191970" d="M695.0813,-185.4179C722.4634,-176.2348 764.9665,-161.9807 795.3508,-151.7909"/>
<polygon fill="#191970" stroke="#191970" points="796.7829,-155.0023 805.1511,-148.5042 794.5572,-148.3655 796.7829,-155.0023"/>
</g>
<!-- Node71 -->
<g id="node27" class="node">
<title>Node71</title>
<polygon fill="#ffffff" stroke="#bfbfbf" points="612.1333,-130.5 612.1333,-148.5 709.8667,-148.5 709.8667,-130.5 612.1333,-130.5"/>
<text text-anchor="middle" x="661" y="-136.5" font-family="Helvetica,sans-Serif" font-size="10.00" fill="#000000">boost/optional.hpp</text>
</g>
<!-- Node70&#45;&gt;Node71 -->
<g id="edge32" class="edge">
<title>Node70&#45;&gt;Node71</title>
<path fill="none" stroke="#191970" d="M666.8441,-185.4179C665.9275,-178.2164 664.6141,-167.8962 663.4644,-158.8632"/>
<polygon fill="#191970" stroke="#191970" points="666.9156,-158.2575 662.181,-148.7795 659.9717,-159.1414 666.9156,-158.2575"/>
</g>
<!-- Node72 -->
<g id="node28" class="node">
<title>Node72</title>
<polygon fill="#ffffff" stroke="#bfbfbf" points="547.9878,-130.5 547.9878,-148.5 594.0122,-148.5 594.0122,-130.5 547.9878,-130.5"/>
<text text-anchor="middle" x="571" y="-136.5" font-family="Helvetica,sans-Serif" font-size="10.00" fill="#000000">hash.h</text>
</g>
<!-- Node70&#45;&gt;Node72 -->
<g id="edge33" class="edge">
<title>Node70&#45;&gt;Node72</title>
<path fill="none" stroke="#191970" d="M651.9824,-185.4179C636.8181,-176.8195 613.8129,-163.7754 596.1925,-153.7844"/>
<polygon fill="#191970" stroke="#191970" points="597.4667,-150.4834 587.0414,-148.5956 594.014,-156.5727 597.4667,-150.4834"/>
</g>
<!-- Node70&#45;&gt;Node76 -->
<g id="edge35" class="edge">
<title>Node70&#45;&gt;Node76</title>
<path fill="none" stroke="#191970" d="M633.9833,-185.4179C597.687,-175.7271 540.239,-160.3891 501.85,-150.1396"/>
<polygon fill="#191970" stroke="#191970" points="502.6082,-146.7194 492.0437,-147.5214 500.8024,-153.4826 502.6082,-146.7194"/>
</g>
<!-- Node76&#45;&gt;Node3 -->
<g id="edge43" class="edge">
<title>Node76&#45;&gt;Node3</title>
<path fill="none" stroke="#191970" d="M458.5668,-130.144C453.6045,-114.8323 446.5115,-84.2078 461,-65 496.0724,-18.5035 532.721,-50.1137 587,-29 587.8722,-28.6607 588.7533,-28.3044 589.6387,-27.9346"/>
<polygon fill="#191970" stroke="#191970" points="591.4249,-30.9665 599.0635,-23.6247 588.5137,-24.6005 591.4249,-30.9665"/>
</g>
<!-- Node76&#45;&gt;Node4 -->
<g id="edge44" class="edge">
<title>Node76&#45;&gt;Node4</title>
<path fill="none" stroke="#191970" d="M431.9564,-137.0331C367.236,-131.3617 216.8001,-116.1591 171,-94 140.6627,-79.3221 113.5582,-50.3241 98.2178,-31.7025"/>
<polygon fill="#191970" stroke="#191970" points="100.8261,-29.3599 91.8484,-23.7339 95.3582,-33.7305 100.8261,-29.3599"/>
</g>
<!-- Node76&#45;&gt;Node5 -->
<g id="edge48" class="edge">
<title>Node76&#45;&gt;Node5</title>
<path fill="none" stroke="#191970" d="M492.3098,-135.3463C506.4733,-133.5117 523.578,-131.4476 539,-130 786.428,-106.775 850.4694,-125.3474 1097,-94 1165.2248,-85.3249 1181.0468,-75.5945 1249,-65 1392.6318,-42.6066 1565.477,-24.4053 1634.4329,-17.4942"/>
<polygon fill="#191970" stroke="#191970" points="1634.9836,-20.9568 1644.5876,-16.483 1634.2899,-13.9912 1634.9836,-20.9568"/>
</g>
<!-- Node76&#45;&gt;Node6 -->
<g id="edge51" class="edge">
<title>Node76&#45;&gt;Node6</title>
<path fill="none" stroke="#191970" d="M492.2216,-135.5501C550.811,-127.6634 677.7124,-109.3992 719,-94 762.1003,-77.9247 806.9635,-47.8535 832.0039,-29.6566"/>
<polygon fill="#191970" stroke="#191970" points="834.3261,-32.2928 840.2925,-23.5376 830.1685,-26.6611 834.3261,-32.2928"/>
</g>
<!-- Node76&#45;&gt;Node12 -->
<g id="edge46" class="edge">
<title>Node76&#45;&gt;Node12</title>
<path fill="none" stroke="#191970" d="M492.2874,-135.0808C506.4462,-133.1903 523.5534,-131.1558 539,-130 688.8565,-118.7866 1746.6892,-135.9178 1891,-94 1935.6349,-81.0349 1980.6042,-49.3565 2005.1241,-30.1309"/>
<polygon fill="#191970" stroke="#191970" points="2007.5759,-32.6515 2013.1941,-23.6689 2003.2005,-27.1874 2007.5759,-32.6515"/>
</g>
<!-- Node76&#45;&gt;Node48 -->
<g id="edge39" class="edge">
<title>Node76&#45;&gt;Node48</title>
<path fill="none" stroke="#191970" d="M491.9631,-132.0874C526.3869,-123.4524 584.4998,-108.5112 634,-94 636.5697,-93.2467 639.2153,-92.4499 641.8758,-91.6329"/>
<polygon fill="#191970" stroke="#191970" points="642.9698,-94.9579 651.4656,-88.6277 640.8765,-88.2782 642.9698,-94.9579"/>
</g>
<!-- Node76&#45;&gt;Node51 -->
<g id="edge40" class="edge">
<title>Node76&#45;&gt;Node51</title>
<path fill="none" stroke="#191970" d="M488.5494,-130.3661C513.0886,-121.7051 550.4178,-107.9725 582,-94 607.9933,-82.5001 613.3705,-77.2895 639,-65 666.4759,-51.8251 698.1646,-37.6282 720.8079,-27.6527"/>
<polygon fill="#191970" stroke="#191970" points="722.474,-30.7437 730.223,-23.5185 719.6596,-24.3344 722.474,-30.7437"/>
</g>
<!-- Node76&#45;&gt;Node28 -->
<g id="edge41" class="edge">
<title>Node76&#45;&gt;Node28</title>
<path fill="none" stroke="#191970" d="M477.9565,-130.3085C515.513,-108.6746 609.6922,-54.4239 654.5315,-28.5947"/>
<polygon fill="#191970" stroke="#191970" points="656.3946,-31.5608 663.3127,-23.5364 652.9005,-25.4951 656.3946,-31.5608"/>
</g>
<!-- Node76&#45;&gt;Node52 -->
<g id="edge42" class="edge">
<title>Node76&#45;&gt;Node52</title>
<path fill="none" stroke="#191970" d="M435.7679,-130.4904C419.4187,-123.3538 399.7049,-111.6133 390,-94 383.78,-82.7113 382.9282,-75.7756 390,-65 412.0617,-31.3835 437.2672,-47.4379 473,-29 473.3001,-28.8451 473.6016,-28.688 473.9042,-28.5289"/>
<polygon fill="#191970" stroke="#191970" points="475.7207,-31.5227 482.7109,-23.561 472.2815,-25.4258 475.7207,-31.5227"/>
</g>
<!-- Node76&#45;&gt;Node54 -->
<g id="edge45" class="edge">
<title>Node76&#45;&gt;Node54</title>
<path fill="none" stroke="#191970" d="M431.9499,-137.5807C360.463,-132.6695 182.2044,-118.2937 128,-94 95.5586,-79.4602 65.7856,-49.9516 49.0581,-31.2615"/>
<polygon fill="#191970" stroke="#191970" points="51.5329,-28.7737 42.3278,-23.5281 46.2526,-33.3692 51.5329,-28.7737"/>
</g>
<!-- Node76&#45;&gt;Node29 -->
<g id="edge49" class="edge">
<title>Node76&#45;&gt;Node29</title>
<path fill="none" stroke="#191970" d="M451.9449,-130.2631C437.2691,-115.6407 413.2527,-86.6068 428,-65 452.7525,-28.7341 479.3568,-45.6141 520,-29 521.1694,-28.522 522.3601,-28.0317 523.5618,-27.5339"/>
<polygon fill="#191970" stroke="#191970" points="524.9542,-30.7453 532.8211,-23.6487 522.2457,-24.2905 524.9542,-30.7453"/>
</g>
<!-- Node76&#45;&gt;Node55 -->
<g id="edge50" class="edge">
<title>Node76&#45;&gt;Node55</title>
<path fill="none" stroke="#191970" d="M431.9515,-136.1873C405.9019,-131.5494 369.6883,-120.4583 352,-94 344.8367,-83.285 345.4102,-76.0769 352,-65 353.9221,-61.769 391.4134,-42.0209 418.1985,-28.2005"/>
<polygon fill="#191970" stroke="#191970" points="419.8586,-31.2825 427.1504,-23.5961 416.6568,-25.0577 419.8586,-31.2825"/>
</g>
<!-- Node77 -->
<g id="node30" class="node">
<title>Node77</title>
<g id="a_node30"><a xlink:href="zeroafterfree_8h.html" target="_top" xlink:title="support/allocators\l/zeroafterfree.h">
<polygon fill="#ffffff" stroke="#ff0000" points="993.5347,-65.5 993.5347,-93.5 1088.4653,-93.5 1088.4653,-65.5 993.5347,-65.5"/>
<text text-anchor="start" x="1001.5347" y="-81.5" font-family="Helvetica,sans-Serif" font-size="10.00" fill="#000000">support/allocators</text>
<text text-anchor="middle" x="1041" y="-71.5" font-family="Helvetica,sans-Serif" font-size="10.00" fill="#000000">/zeroafterfree.h</text>
</a>
</g>
</g>
<!-- Node76&#45;&gt;Node77 -->
<g id="edge36" class="edge">
<title>Node76&#45;&gt;Node77</title>
<path fill="none" stroke="#191970" d="M491.9574,-135.5586C506.1957,-133.7481 523.4622,-131.6435 539,-130 720.028,-110.852 766.2828,-115.8876 947,-94 958.7822,-92.573 971.3582,-90.8043 983.3535,-88.9982"/>
<polygon fill="#191970" stroke="#191970" points="983.9086,-92.4541 993.2627,-87.4791 982.8478,-85.535 983.9086,-92.4541"/>
</g>
<!-- Node78 -->
<g id="node31" class="node">
<title>Node78</title>
<polygon fill="#ffffff" stroke="#bfbfbf" points="470.2686,-70.5 470.2686,-88.5 515.7314,-88.5 515.7314,-70.5 470.2686,-70.5"/>
<text text-anchor="middle" x="493" y="-76.5" font-family="Helvetica,sans-Serif" font-size="10.00" fill="#000000">stdio.h</text>
</g>
<!-- Node76&#45;&gt;Node78 -->
<g id="edge47" class="edge">
<title>Node76&#45;&gt;Node78</title>
<path fill="none" stroke="#191970" d="M466.7082,-130.3873C471.1692,-121.7531 477.9978,-108.5365 483.5778,-97.7366"/>
<polygon fill="#191970" stroke="#191970" points="486.7667,-99.1893 488.2475,-88.6985 480.5477,-95.9761 486.7667,-99.1893"/>
</g>
<!-- Node77&#45;&gt;Node6 -->
<g id="edge38" class="edge">
<title>Node77&#45;&gt;Node6</title>
<path fill="none" stroke="#191970" d="M999.9898,-65.396C965.0163,-53.368 915.4685,-36.3278 883.5305,-25.3438"/>
<polygon fill="#191970" stroke="#191970" points="884.4152,-21.947 873.8206,-22.0044 882.1387,-28.5664 884.4152,-21.947"/>
</g>
<!-- Node77&#45;&gt;Node53 -->
<g id="edge37" class="edge">
<title>Node77&#45;&gt;Node53</title>
<path fill="none" stroke="#191970" d="M1073.7648,-65.396C1099.8,-54.1888 1135.9444,-38.6299 1161.3974,-27.6733"/>
<polygon fill="#191970" stroke="#191970" points="1163.1184,-30.743 1170.9197,-23.5743 1160.3507,-24.3134 1163.1184,-30.743"/>
</g>
<!-- Node79&#45;&gt;Node12 -->
<g id="edge53" class="edge">
<title>Node79&#45;&gt;Node12</title>
<path fill="none" stroke="#191970" d="M1793.269,-185.3368C1822.57,-168.5785 1885.7454,-131.2729 1935,-94 1961.5497,-73.9088 1989.8383,-47.7137 2007.2203,-30.9954"/>
<polygon fill="#191970" stroke="#191970" points="2010.0834,-33.094 2014.8217,-23.6178 2005.2081,-28.0709 2010.0834,-33.094"/>
</g>
<!-- Node86&#45;&gt;Node5 -->
<g id="edge61" class="edge">
<title>Node86&#45;&gt;Node5</title>
<path fill="none" stroke="#191970" d="M1775.3051,-130.4449C1768.9198,-115.5661 1754.6888,-85.5496 1736,-65 1722.9763,-50.6795 1705.2318,-38.0572 1690.7404,-29.0136"/>
<polygon fill="#191970" stroke="#191970" points="1692.1409,-25.7711 1681.7697,-23.6057 1688.5268,-31.766 1692.1409,-25.7711"/>
</g>
<!-- Node86&#45;&gt;Node11 -->
<g id="edge59" class="edge">
<title>Node86&#45;&gt;Node11</title>
<path fill="none" stroke="#191970" d="M1820.9918,-131.1573C1879.5812,-119.517 1985.0535,-98.5622 2041.9973,-87.2489"/>
<polygon fill="#191970" stroke="#191970" points="2042.9167,-90.6347 2052.043,-85.2531 2041.5526,-83.7689 2042.9167,-90.6347"/>
</g>
<!-- Node86&#45;&gt;Node48 -->
<g id="edge60" class="edge">
<title>Node86&#45;&gt;Node48</title>
<path fill="none" stroke="#191970" d="M1736.89,-137.7694C1607.5439,-132.3722 1204.562,-114.9495 871,-94 818.8528,-90.7249 758.8085,-86.0437 719.9504,-82.8943"/>
<polygon fill="#191970" stroke="#191970" points="719.8276,-79.3728 709.5764,-82.0491 719.2591,-86.3497 719.8276,-79.3728"/>
</g>
<!-- Node87&#45;&gt;Node51 -->
<g id="edge64" class="edge">
<title>Node87&#45;&gt;Node51</title>
<path fill="none" stroke="#191970" d="M1291.8057,-135.9468C1211.018,-127.4082 1013.0088,-105.5872 985,-94 965.3684,-85.8785 966.1115,-74.2795 947,-65 919.4073,-51.6025 838.295,-32.992 789.4922,-22.5095"/>
<polygon fill="#191970" stroke="#191970" points="790.1095,-19.0625 779.5995,-20.4008 788.6501,-25.9087 790.1095,-19.0625"/>
</g>
<!-- Node87&#45;&gt;Node59 -->
<g id="edge68" class="edge">
<title>Node87&#45;&gt;Node59</title>
<path fill="none" stroke="#191970" d="M1291.6972,-136.2321C1212.0392,-128.497 1016.4254,-108.6199 952,-94 948.9484,-93.3075 945.8087,-92.4809 942.6816,-91.5784"/>
<polygon fill="#191970" stroke="#191970" points="943.4483,-88.1511 932.8595,-88.5086 941.3601,-94.8324 943.4483,-88.1511"/>
</g>
<!-- Node88 -->
<g id="node36" class="node">
<title>Node88</title>
<polygon fill="#ffffff" stroke="#bfbfbf" points="1257.8843,-70.5 1257.8843,-88.5 1306.1157,-88.5 1306.1157,-70.5 1257.8843,-70.5"/>
<text text-anchor="middle" x="1282" y="-76.5" font-family="Helvetica,sans-Serif" font-size="10.00" fill="#000000">cassert</text>
</g>
<!-- Node87&#45;&gt;Node88 -->
<g id="edge65" class="edge">
<title>Node87&#45;&gt;Node88</title>
<path fill="none" stroke="#191970" d="M1319.3173,-130.3873C1312.8564,-121.5769 1302.8964,-107.9951 1294.8908,-97.0784"/>
<polygon fill="#191970" stroke="#191970" points="1297.4816,-94.6927 1288.7455,-88.6985 1291.8368,-98.8323 1297.4816,-94.6927"/>
</g>
<!-- Node89 -->
<g id="node37" class="node">
<title>Node89</title>
<polygon fill="#ffffff" stroke="#bfbfbf" points="1323.8276,-70.5 1323.8276,-88.5 1378.1724,-88.5 1378.1724,-70.5 1323.8276,-70.5"/>
<text text-anchor="middle" x="1351" y="-76.5" font-family="Helvetica,sans-Serif" font-size="10.00" fill="#000000">iostream</text>
</g>
<!-- Node87&#45;&gt;Node89 -->
<g id="edge66" class="edge">
<title>Node87&#45;&gt;Node89</title>
<path fill="none" stroke="#191970" d="M1329.797,-130.3873C1333.3578,-121.8412 1338.7893,-108.8057 1343.2634,-98.0679"/>
<polygon fill="#191970" stroke="#191970" points="1346.5519,-99.2754 1347.1673,-88.6985 1340.0903,-96.5831 1346.5519,-99.2754"/>
</g>
<!-- Node90 -->
<g id="node38" class="node">
<title>Node90</title>
<polygon fill="#ffffff" stroke="#bfbfbf" points="1396.2192,-70.5 1396.2192,-88.5 1447.7808,-88.5 1447.7808,-70.5 1396.2192,-70.5"/>
<text text-anchor="middle" x="1422" y="-76.5" font-family="Helvetica,sans-Serif" font-size="10.00" fill="#000000">sstream</text>
</g>
<!-- Node87&#45;&gt;Node90 -->
<g id="edge67" class="edge">
<title>Node87&#45;&gt;Node90</title>
<path fill="none" stroke="#191970" d="M1340.5803,-130.3873C1356.035,-120.7281 1380.6657,-105.334 1398.7933,-94.0042"/>
<polygon fill="#191970" stroke="#191970" points="1400.972,-96.7699 1407.597,-88.5019 1397.262,-90.8339 1400.972,-96.7699"/>
</g>
<!-- Node91&#45;&gt;Node2 -->
<g id="edge70" class="edge">
<title>Node91&#45;&gt;Node2</title>
<path fill="none" stroke="#191970" d="M1565.5392,-70.462C1548.4055,-59.7534 1519.6289,-41.7681 1499.3306,-29.0816"/>
<polygon fill="#191970" stroke="#191970" points="1501.0082,-26.0028 1490.6732,-23.6708 1497.2982,-31.9388 1501.0082,-26.0028"/>
</g>
<!-- Node91&#45;&gt;Node5 -->
<g id="edge73" class="edge">
<title>Node91&#45;&gt;Node5</title>
<path fill="none" stroke="#191970" d="M1591.8189,-70.462C1605.5701,-59.9464 1628.4973,-42.4138 1645.0283,-29.7725"/>
<polygon fill="#191970" stroke="#191970" points="1647.19,-32.5256 1653.0075,-23.6708 1642.9378,-26.965 1647.19,-32.5256"/>
</g>
<!-- Node91&#45;&gt;Node12 -->
<g id="edge72" class="edge">
<title>Node91&#45;&gt;Node12</title>
<path fill="none" stroke="#191970" d="M1618.2395,-73.9019C1703.4942,-61.4209 1908.0388,-31.4763 1989.5878,-19.5378"/>
<polygon fill="#191970" stroke="#191970" points="1990.4187,-22.9536 1999.8062,-18.0419 1989.4047,-16.0274 1990.4187,-22.9536"/>
</g>
<!-- Node91&#45;&gt;Node53 -->
<g id="edge71" class="edge">
<title>Node91&#45;&gt;Node53</title>
<path fill="none" stroke="#191970" d="M1549.909,-70.4341C1542.7688,-68.4708 1535.1489,-66.5279 1528,-65 1420.0286,-41.9235 1290.3275,-25.5957 1228.3895,-18.4841"/>
<polygon fill="#191970" stroke="#191970" points="1228.6686,-14.9934 1218.3376,-17.3428 1227.8789,-21.9487 1228.6686,-14.9934"/>
</g>
<!-- Node92&#45;&gt;Node5 -->
<g id="edge76" class="edge">
<title>Node92&#45;&gt;Node5</title>
<path fill="none" stroke="#191970" d="M1811.3622,-70.462C1780.936,-58.8285 1728.0486,-38.6068 1694.8702,-25.921"/>
<polygon fill="#191970" stroke="#191970" points="1695.8434,-22.546 1685.2529,-22.2438 1693.3434,-29.0844 1695.8434,-22.546"/>
</g>
<!-- Node92&#45;&gt;Node6 -->
<g id="edge77" class="edge">
<title>Node92&#45;&gt;Node6</title>
<path fill="none" stroke="#191970" d="M1787.9172,-76.1567C1745.762,-73.1779 1682.2586,-68.7264 1627,-65 1338.5883,-45.5506 989.7124,-23.2602 883.9134,-16.5275"/>
<polygon fill="#191970" stroke="#191970" points="884.0874,-13.0316 873.8853,-15.8896 883.6429,-20.0175 884.0874,-13.0316"/>
</g>
<!-- Node92&#45;&gt;Node12 -->
<g id="edge75" class="edge">
<title>Node92&#45;&gt;Node12</title>
<path fill="none" stroke="#191970" d="M1861.2796,-70.462C1894.8418,-58.9195 1952.9862,-38.9227 1989.9215,-26.2201"/>
<polygon fill="#191970" stroke="#191970" points="1991.4206,-29.4058 1999.7387,-22.8438 1989.144,-22.7864 1991.4206,-29.4058"/>
</g>
<!-- Node93&#45;&gt;Node2 -->
<g id="edge84" class="edge">
<title>Node93&#45;&gt;Node2</title>
<path fill="none" stroke="#191970" d="M1303.2044,-185.4164C1347.9829,-172.8691 1419.8384,-145.6817 1457,-94 1469.8442,-76.1372 1474.0997,-50.7518 1475.4586,-33.5071"/>
<polygon fill="#191970" stroke="#191970" points="1478.954,-33.6845 1475.9944,-23.5114 1471.9641,-33.3097 1478.954,-33.6845"/>
</g>
<!-- Node93&#45;&gt;Node53 -->
<g id="edge85" class="edge">
<title>Node93&#45;&gt;Node53</title>
<path fill="none" stroke="#191970" d="M1260.3305,-185.3263C1249.0671,-157.1678 1214.8285,-71.5714 1199.5272,-33.318"/>
<polygon fill="#191970" stroke="#191970" points="1202.7121,-31.856 1195.7484,-23.8711 1196.2127,-34.4557 1202.7121,-31.856"/>
</g>
<!-- Node93&#45;&gt;Node81 -->
<g id="edge83" class="edge">
<title>Node93&#45;&gt;Node81</title>
<path fill="none" stroke="#191970" d="M1252.7712,-185.4179C1242.5955,-177.1876 1227.3837,-164.8839 1215.2669,-155.0836"/>
<polygon fill="#191970" stroke="#191970" points="1217.449,-152.3469 1207.4728,-148.7795 1213.0469,-157.7895 1217.449,-152.3469"/>
</g>
<!-- Node75 -->
<g id="node42" class="node">
<title>Node75</title>
<g id="a_node42"><a xlink:href="transaction_8h.html" target="_top" xlink:title="primitives/transaction.h">
<polygon fill="#ffffff" stroke="#ff0000" points="1953.8696,-130.5 1953.8696,-148.5 2072.1304,-148.5 2072.1304,-130.5 1953.8696,-130.5"/>
<text text-anchor="middle" x="2013" y="-136.5" font-family="Helvetica,sans-Serif" font-size="10.00" fill="#000000">primitives/transaction.h</text>
</a>
</g>
</g>
<!-- Node93&#45;&gt;Node75 -->
<g id="edge79" class="edge">
<title>Node93&#45;&gt;Node75</title>
<path fill="none" stroke="#191970" d="M1316.6682,-190.6325C1448.8542,-180.9259 1794.6611,-155.5329 1943.3691,-144.6131"/>
<polygon fill="#191970" stroke="#191970" points="1944.013,-148.0753 1953.7298,-143.8523 1943.5003,-141.0941 1944.013,-148.0753"/>
</g>
<!-- Node75&#45;&gt;Node11 -->
<g id="edge81" class="edge">
<title>Node75&#45;&gt;Node11</title>
<path fill="none" stroke="#191970" d="M2023.3277,-130.3873C2033.8121,-121.1364 2050.2583,-106.625 2062.9099,-95.4618"/>
<polygon fill="#191970" stroke="#191970" points="2065.3924,-97.9392 2070.5751,-88.6985 2060.761,-92.6903 2065.3924,-97.9392"/>
</g>
<!-- Node75&#45;&gt;Node12 -->
<g id="edge80" class="edge">
<title>Node75&#45;&gt;Node12</title>
<path fill="none" stroke="#191970" d="M2013.8268,-130.1047C2015.6193,-109.7357 2019.8944,-61.1541 2022.2931,-33.8965"/>
<polygon fill="#191970" stroke="#191970" points="2025.8033,-33.933 2023.1935,-23.6646 2018.8303,-33.3193 2025.8033,-33.933"/>
</g>
<!-- Node75&#45;&gt;Node48 -->
<g id="edge82" class="edge">
<title>Node75&#45;&gt;Node48</title>
<path fill="none" stroke="#191970" d="M1953.6709,-136.2042C1917.8617,-134.2687 1871.3164,-131.8478 1830,-130 1403.9035,-110.9435 1296.843,-118.0642 871,-94 818.8333,-91.0521 758.7933,-86.2985 719.9415,-83.0432"/>
<polygon fill="#191970" stroke="#191970" points="719.8284,-79.5212 709.5693,-82.1675 719.2394,-86.4964 719.8284,-79.5212"/>
</g>
<!-- Node94&#45;&gt;Node12 -->
<g id="edge88" class="edge">
<title>Node94&#45;&gt;Node12</title>
<path fill="none" stroke="#191970" d="M2071.9635,-246.2429C2124.7151,-241.0192 2213.2356,-228.7384 2233,-204 2271.5609,-155.7345 2271.2107,-113.5431 2233,-65 2211.625,-37.8451 2111.8387,-23.5534 2058.2472,-17.7229"/>
<polygon fill="#191970" stroke="#191970" points="2058.4921,-14.2295 2048.1818,-16.6684 2057.7626,-21.1914 2058.4921,-14.2295"/>
</g>
<!-- Node94&#45;&gt;Node79 -->
<g id="edge87" class="edge">
<title>Node94&#45;&gt;Node79</title>
<path fill="none" stroke="#191970" d="M1991.8757,-240.8457C1947.8789,-231.3562 1877.1363,-216.098 1828.9355,-205.7018"/>
<polygon fill="#191970" stroke="#191970" points="1829.523,-202.2481 1819.0098,-203.5609 1828.0471,-209.0907 1829.523,-202.2481"/>
</g>
<!-- Node96&#45;&gt;Node14 -->
<g id="edge92" class="edge">
<title>Node96&#45;&gt;Node14</title>
<path fill="none" stroke="#191970" d="M1002.6513,-295.4179C1003.9607,-288.2164 1005.8371,-277.8962 1007.4794,-268.8632"/>
<polygon fill="#191970" stroke="#191970" points="1010.9674,-269.2443 1009.3128,-258.7795 1004.0803,-267.992 1010.9674,-269.2443"/>
</g>
<!-- Node96&#45;&gt;Node48 -->
<g id="edge93" class="edge">
<title>Node96&#45;&gt;Node48</title>
<path fill="none" stroke="#191970" d="M959.3955,-297.718C853.7631,-279.469 580.606,-225.4779 539,-149 534.9645,-141.5822 534.1465,-136.9103 539,-130 545.0238,-121.4233 599.6484,-103.433 638.8488,-91.4067"/>
<polygon fill="#191970" stroke="#191970" points="639.8957,-94.7466 648.4437,-88.487 637.8578,-88.0498 639.8957,-94.7466"/>
</g>
<!-- Node96&#45;&gt;Node97 -->
<g id="edge94" class="edge">
<title>Node96&#45;&gt;Node97</title>
<path fill="none" stroke="#191970" d="M990.762,-295.4179C981.6626,-287.3458 968.1463,-275.3556 957.2074,-265.6517"/>
<polygon fill="#191970" stroke="#191970" points="959.2639,-262.7974 949.4605,-258.7795 954.6186,-268.0339 959.2639,-262.7974"/>
</g>
<!-- Node98&#45;&gt;Node11 -->
<g id="edge96" class="edge">
<title>Node98&#45;&gt;Node11</title>
<path fill="none" stroke="#191970" d="M2162.0948,-185.4761C2147.5159,-166.4242 2113.3776,-121.8117 2094.3711,-96.9736"/>
<polygon fill="#191970" stroke="#191970" points="2096.9742,-94.616 2088.1176,-88.8014 2091.4151,-98.87 2096.9742,-94.616"/>
</g>
<!-- Node98&#45;&gt;Node75 -->
<g id="edge97" class="edge">
<title>Node98&#45;&gt;Node75</title>
<path fill="none" stroke="#191970" d="M2143.2398,-185.4179C2117.3066,-176.2748 2077.1148,-162.1046 2048.2391,-151.924"/>
<polygon fill="#191970" stroke="#191970" points="2049.134,-148.5285 2038.5392,-148.5042 2046.8065,-155.1302 2049.134,-148.5285"/>
</g>
<!-- Node99 -->
<g id="node48" class="node">
<title>Node99</title>
<g id="a_node48"><a xlink:href="random_8h.html" target="_top" xlink:title="random.h">
<polygon fill="#ffffff" stroke="#ff0000" points="2165.877,-70.5 2165.877,-88.5 2224.123,-88.5 2224.123,-70.5 2165.877,-70.5"/>
<text text-anchor="middle" x="2195" y="-76.5" font-family="Helvetica,sans-Serif" font-size="10.00" fill="#000000">random.h</text>
</a>
</g>
</g>
<!-- Node98&#45;&gt;Node99 -->
<g id="edge98" class="edge">
<title>Node98&#45;&gt;Node99</title>
<path fill="none" stroke="#191970" d="M2174.3687,-185.4538C2179.3754,-176.5235 2186.571,-162.3116 2190,-149 2194.286,-132.3614 2195.3552,-112.7923 2195.4578,-98.666"/>
<polygon fill="#191970" stroke="#191970" points="2198.9578,-98.6347 2195.3758,-88.6638 2191.958,-98.6922 2198.9578,-98.6347"/>
</g>
<!-- Node99&#45;&gt;Node3 -->
<g id="edge100" class="edge">
<title>Node99&#45;&gt;Node3</title>
<path fill="none" stroke="#191970" d="M2165.5729,-72.719C2151.5504,-69.7881 2134.4934,-66.6557 2119,-65 1955.9905,-47.5797 802.7959,-69.7362 644,-29 642.7174,-28.671 641.4273,-28.2747 640.1424,-27.8268"/>
<polygon fill="#191970" stroke="#191970" points="641.1739,-24.4573 630.6105,-23.6427 638.3603,-30.867 641.1739,-24.4573"/>
</g>
<!-- Node99&#45;&gt;Node12 -->
<g id="edge99" class="edge">
<title>Node99&#45;&gt;Node12</title>
<path fill="none" stroke="#191970" d="M2171.2232,-70.462C2141.5719,-59.1911 2090.7137,-39.859 2057.223,-27.1286"/>
<polygon fill="#191970" stroke="#191970" points="2058.441,-23.8473 2047.8499,-23.5658 2055.9538,-30.3906 2058.441,-23.8473"/>
</g>
<!-- Node101&#45;&gt;Node5 -->
<g id="edge105" class="edge">
<title>Node101&#45;&gt;Node5</title>
<path fill="none" stroke="#191970" d="M1957.265,-185.4102C1946.1137,-158.6921 1912.5045,-81.2646 1891,-65 1860.4128,-41.8659 1749.8989,-25.1659 1695.5749,-18.1584"/>
<polygon fill="#191970" stroke="#191970" points="1695.8592,-14.6666 1685.4997,-16.8871 1694.9828,-21.6115 1695.8592,-14.6666"/>
</g>
<!-- Node101&#45;&gt;Node6 -->
<g id="edge107" class="edge">
<title>Node101&#45;&gt;Node6</title>
<path fill="none" stroke="#191970" d="M1916.0977,-186.8602C1869.0038,-178.5843 1792.9512,-164.474 1728,-149 1640.4036,-128.131 1618.4847,-122.302 1533,-94 1498.6788,-82.6371 1492.2509,-73.0273 1457,-65 1346.1053,-39.747 992.2193,-21.1821 883.847,-15.9757"/>
<polygon fill="#191970" stroke="#191970" points="884.0105,-12.4796 873.8555,-15.5003 883.6778,-19.4717 884.0105,-12.4796"/>
</g>
<!-- Node101&#45;&gt;Node11 -->
<g id="edge102" class="edge">
<title>Node101&#45;&gt;Node11</title>
<path fill="none" stroke="#191970" d="M1997.7165,-185.4773C2029.2685,-176.8929 2071.1904,-163.2105 2081,-149 2091.1491,-134.2976 2089.5584,-113.3535 2086.4127,-98.3059"/>
<polygon fill="#191970" stroke="#191970" points="2089.8005,-97.4258 2083.993,-88.5645 2083.007,-99.1134 2089.8005,-97.4258"/>
</g>
<!-- Node101&#45;&gt;Node12 -->
<g id="edge104" class="edge">
<title>Node101&#45;&gt;Node12</title>
<path fill="none" stroke="#191970" d="M2005.8833,-189.5924C2035.427,-184.1822 2073.1017,-172.8243 2098,-149 2116.9052,-130.9103 2114.2546,-119.7318 2119,-94 2121.3375,-81.3248 2125.6388,-76.0476 2119,-65 2105.8771,-43.1624 2079.7693,-30.2592 2058.2388,-22.969"/>
<polygon fill="#191970" stroke="#191970" points="2059.0119,-19.5441 2048.4236,-19.9145 2056.9319,-26.228 2059.0119,-19.5441"/>
</g>
<!-- Node101&#45;&gt;Node55 -->
<g id="edge106" class="edge">
<title>Node101&#45;&gt;Node55</title>
<path fill="none" stroke="#191970" d="M1916.2042,-190.8023C1891.1558,-188.8413 1859.359,-186.5284 1831,-185 1600.9726,-172.6031 1021.3517,-191.7921 795,-149 719.9661,-134.8147 542.5532,-60.5224 473,-29 472.3082,-28.6865 471.6091,-28.3643 470.9056,-28.0354"/>
<polygon fill="#191970" stroke="#191970" points="472.2576,-24.8 461.7391,-23.5301 469.1698,-31.0823 472.2576,-24.8"/>
</g>
<!-- Node101&#45;&gt;Node75 -->
<g id="edge103" class="edge">
<title>Node101&#45;&gt;Node75</title>
<path fill="none" stroke="#191970" d="M1969.5867,-185.4179C1977.0688,-177.5041 1988.1116,-165.8243 1997.1872,-156.2251"/>
<polygon fill="#191970" stroke="#191970" points="1999.8998,-158.4505 2004.2267,-148.7795 1994.8133,-153.6414 1999.8998,-158.4505"/>
</g>
<!-- Node108&#45;&gt;Node5 -->
<g id="edge109" class="edge">
<title>Node108&#45;&gt;Node5</title>
<path fill="none" stroke="#191970" d="M1632.1672,-240.4514C1637.7787,-216.6367 1652.8432,-150.1844 1660,-94 1662.5873,-73.688 1663.8544,-50.2781 1664.4628,-34.1483"/>
<polygon fill="#191970" stroke="#191970" points="1667.9712,-33.9471 1664.799,-23.8383 1660.9749,-33.7189 1667.9712,-33.9471"/>
</g>
</g>
</svg>
