<?xml version="1.0" encoding="UTF-8" standalone="no"?>
<!DOCTYPE svg PUBLIC "-//W3C//DTD SVG 1.1//EN"
 "http://www.w3.org/Graphics/SVG/1.1/DTD/svg11.dtd">
<!-- Generated by graphviz version 2.40.1 (20161225.0304)
 -->
<!-- Title: src/qt/coincontroldialog.h Pages: 1 -->
<svg width="682pt" height="137pt"
 viewBox="0.00 0.00 682.12 137.00" xmlns="http://www.w3.org/2000/svg" xmlns:xlink="http://www.w3.org/1999/xlink">
<g id="graph0" class="graph" transform="scale(1 1) rotate(0) translate(4 133)">
<title>src/qt/coincontroldialog.h</title>
<polygon fill="#ffffff" stroke="transparent" points="-4,4 -4,-133 678.1196,-133 678.1196,4 -4,4"/>
<!-- Node0 -->
<g id="node1" class="node">
<title>Node0</title>
<polygon fill="#bfbfbf" stroke="#000000" points="279.5396,-110.5 279.5396,-128.5 406.1548,-128.5 406.1548,-110.5 279.5396,-110.5"/>
<text text-anchor="middle" x="342.8472" y="-116.5" font-family="Helvetica,sans-Serif" font-size="10.00" fill="#000000">src/qt/coincontroldialog.h</text>
</g>
<!-- Node1 -->
<g id="node2" class="node">
<title>Node1</title>
<g id="a_node2"><a xlink:href="amount_8h.html" target="_top" xlink:title="amount.h">
<polygon fill="#ffffff" stroke="#000000" points="0,-55.5 0,-73.5 57.6943,-73.5 57.6943,-55.5 0,-55.5"/>
<text text-anchor="middle" x="28.8472" y="-61.5" font-family="Helvetica,sans-Serif" font-size="10.00" fill="#000000">amount.h</text>
</a>
</g>
</g>
<!-- Node0&#45;&gt;Node1 -->
<g id="edge1" class="edge">
<title>Node0&#45;&gt;Node1</title>
<path fill="none" stroke="#191970" d="M279.2701,-110.5249C225.4551,-102.5847 146.0851,-90.0709 67.8653,-74.0775"/>
<polygon fill="#191970" stroke="#191970" points="68.3386,-70.6014 57.8374,-72.0063 66.9227,-77.4567 68.3386,-70.6014"/>
</g>
<!-- Node3 -->
<g id="node4" class="node">
<title>Node3</title>
<polygon fill="#ffffff" stroke="#bfbfbf" points="76.1626,-55.5 76.1626,-73.5 165.5317,-73.5 165.5317,-55.5 76.1626,-55.5"/>
<text text-anchor="middle" x="120.8472" y="-61.5" font-family="Helvetica,sans-Serif" font-size="10.00" fill="#000000">QAbstractButton</text>
</g>
<!-- Node0&#45;&gt;Node3 -->
<g id="edge3" class="edge">
<title>Node0&#45;&gt;Node3</title>
<path fill="none" stroke="#191970" d="M306.1884,-110.4179C268.0748,-100.9753 208.3193,-86.171 167.0107,-75.9369"/>
<polygon fill="#191970" stroke="#191970" points="167.7397,-72.5118 157.1914,-73.5042 166.0563,-79.3064 167.7397,-72.5118"/>
</g>
<!-- Node4 -->
<g id="node5" class="node">
<title>Node4</title>
<polygon fill="#ffffff" stroke="#bfbfbf" points="183.0615,-55.5 183.0615,-73.5 234.6328,-73.5 234.6328,-55.5 183.0615,-55.5"/>
<text text-anchor="middle" x="208.8472" y="-61.5" font-family="Helvetica,sans-Serif" font-size="10.00" fill="#000000">QAction</text>
</g>
<!-- Node0&#45;&gt;Node4 -->
<g id="edge4" class="edge">
<title>Node0&#45;&gt;Node4</title>
<path fill="none" stroke="#191970" d="M320.7198,-110.4179C298.8013,-101.4215 265.025,-87.5581 240.3181,-77.4172"/>
<polygon fill="#191970" stroke="#191970" points="241.5875,-74.1549 231.0074,-73.5956 238.9295,-80.6306 241.5875,-74.1549"/>
</g>
<!-- Node5 -->
<g id="node6" class="node">
<title>Node5</title>
<polygon fill="#ffffff" stroke="#bfbfbf" points="252.7832,-55.5 252.7832,-73.5 304.9111,-73.5 304.9111,-55.5 252.7832,-55.5"/>
<text text-anchor="middle" x="278.8472" y="-61.5" font-family="Helvetica,sans-Serif" font-size="10.00" fill="#000000">QDialog</text>
</g>
<!-- Node0&#45;&gt;Node5 -->
<g id="edge5" class="edge">
<title>Node0&#45;&gt;Node5</title>
<path fill="none" stroke="#191970" d="M332.2789,-110.4179C322.7939,-102.2667 308.6597,-90.1201 297.3105,-80.3669"/>
<polygon fill="#191970" stroke="#191970" points="299.5105,-77.6427 289.6451,-73.7795 294.9481,-82.9516 299.5105,-77.6427"/>
</g>
<!-- Node6 -->
<g id="node7" class="node">
<title>Node6</title>
<polygon fill="#ffffff" stroke="#bfbfbf" points="323.1772,-55.5 323.1772,-73.5 362.5171,-73.5 362.5171,-55.5 323.1772,-55.5"/>
<text text-anchor="middle" x="342.8472" y="-61.5" font-family="Helvetica,sans-Serif" font-size="10.00" fill="#000000">QList</text>
</g>
<!-- Node0&#45;&gt;Node6 -->
<g id="edge6" class="edge">
<title>Node0&#45;&gt;Node6</title>
<path fill="none" stroke="#191970" d="M342.8472,-110.4179C342.8472,-103.2164 342.8472,-92.8962 342.8472,-83.8632"/>
<polygon fill="#191970" stroke="#191970" points="346.3473,-83.7794 342.8472,-73.7795 339.3473,-83.7795 346.3473,-83.7794"/>
</g>
<!-- Node7 -->
<g id="node8" class="node">
<title>Node7</title>
<polygon fill="#ffffff" stroke="#bfbfbf" points="380.4507,-55.5 380.4507,-73.5 429.2437,-73.5 429.2437,-55.5 380.4507,-55.5"/>
<text text-anchor="middle" x="404.8472" y="-61.5" font-family="Helvetica,sans-Serif" font-size="10.00" fill="#000000">QMenu</text>
</g>
<!-- Node0&#45;&gt;Node7 -->
<g id="edge7" class="edge">
<title>Node0&#45;&gt;Node7</title>
<path fill="none" stroke="#191970" d="M353.0852,-110.4179C362.1846,-102.3458 375.7008,-90.3556 386.6398,-80.6517"/>
<polygon fill="#191970" stroke="#191970" points="389.2286,-83.0339 394.3867,-73.7795 384.5833,-77.7974 389.2286,-83.0339"/>
</g>
<!-- Node8 -->
<g id="node9" class="node">
<title>Node8</title>
<polygon fill="#ffffff" stroke="#bfbfbf" points="447.5615,-55.5 447.5615,-73.5 494.1328,-73.5 494.1328,-55.5 447.5615,-55.5"/>
<text text-anchor="middle" x="470.8472" y="-61.5" font-family="Helvetica,sans-Serif" font-size="10.00" fill="#000000">QPoint</text>
</g>
<!-- Node0&#45;&gt;Node8 -->
<g id="edge8" class="edge">
<title>Node0&#45;&gt;Node8</title>
<path fill="none" stroke="#191970" d="M363.9838,-110.4179C384.8282,-101.4613 416.8995,-87.6806 440.4716,-77.552"/>
<polygon fill="#191970" stroke="#191970" points="441.8732,-80.7592 449.6792,-73.5956 439.1097,-74.3278 441.8732,-80.7592"/>
</g>
<!-- Node9 -->
<g id="node10" class="node">
<title>Node9</title>
<polygon fill="#ffffff" stroke="#bfbfbf" points="511.8965,-55.5 511.8965,-73.5 561.7979,-73.5 561.7979,-55.5 511.8965,-55.5"/>
<text text-anchor="middle" x="536.8472" y="-61.5" font-family="Helvetica,sans-Serif" font-size="10.00" fill="#000000">QString</text>
</g>
<!-- Node0&#45;&gt;Node9 -->
<g id="edge9" class="edge">
<title>Node0&#45;&gt;Node9</title>
<path fill="none" stroke="#191970" d="M374.8823,-110.4179C409.8508,-100.5041 465.6661,-84.6802 501.7853,-74.4402"/>
<polygon fill="#191970" stroke="#191970" points="503.2006,-77.677 511.8667,-71.5821 501.2912,-70.9424 503.2006,-77.677"/>
</g>
<!-- Node10 -->
<g id="node11" class="node">
<title>Node10</title>
<polygon fill="#ffffff" stroke="#bfbfbf" points="579.5747,-55.5 579.5747,-73.5 674.1196,-73.5 674.1196,-55.5 579.5747,-55.5"/>
<text text-anchor="middle" x="626.8472" y="-61.5" font-family="Helvetica,sans-Serif" font-size="10.00" fill="#000000">QTreeWidgetItem</text>
</g>
<!-- Node0&#45;&gt;Node10 -->
<g id="edge10" class="edge">
<title>Node0&#45;&gt;Node10</title>
<path fill="none" stroke="#191970" d="M389.426,-110.4795C438.9509,-100.8884 517.2973,-85.7156 570.321,-75.447"/>
<polygon fill="#191970" stroke="#191970" points="571.0908,-78.863 580.2429,-73.5255 569.7599,-71.9907 571.0908,-78.863"/>
</g>
<!-- Node2 -->
<g id="node3" class="node">
<title>Node2</title>
<polygon fill="#ffffff" stroke="#bfbfbf" points="4.7266,-.5 4.7266,-18.5 52.9678,-18.5 52.9678,-.5 4.7266,-.5"/>
<text text-anchor="middle" x="28.8472" y="-6.5" font-family="Helvetica,sans-Serif" font-size="10.00" fill="#000000">stdint.h</text>
</g>
<!-- Node1&#45;&gt;Node2 -->
<g id="edge2" class="edge">
<title>Node1&#45;&gt;Node2</title>
<path fill="none" stroke="#191970" d="M28.8472,-55.4179C28.8472,-48.2164 28.8472,-37.8962 28.8472,-28.8632"/>
<polygon fill="#191970" stroke="#191970" points="32.3473,-28.7794 28.8472,-18.7795 25.3473,-28.7795 32.3473,-28.7794"/>
</g>
</g>
</svg>
