<?xml version="1.0" encoding="UTF-8" standalone="no"?>
<!DOCTYPE svg PUBLIC "-//W3C//DTD SVG 1.1//EN"
 "http://www.w3.org/Graphics/SVG/1.1/DTD/svg11.dtd">
<!-- Generated by graphviz version 2.40.1 (20161225.0304)
 -->
<!-- Title: src/cuckoocache.h Pages: 1 -->
<svg width="441pt" height="82pt"
 viewBox="0.00 0.00 441.01 82.00" xmlns="http://www.w3.org/2000/svg" xmlns:xlink="http://www.w3.org/1999/xlink">
<g id="graph0" class="graph" transform="scale(1 1) rotate(0) translate(4 78)">
<title>src/cuckoocache.h</title>
<polygon fill="#ffffff" stroke="transparent" points="-4,4 -4,-78 437.0073,-78 437.0073,4 -4,4"/>
<!-- Node0 -->
<g id="node1" class="node">
<title>Node0</title>
<polygon fill="#bfbfbf" stroke="#000000" points="167.9829,-55.5 167.9829,-73.5 266.8003,-73.5 266.8003,-55.5 167.9829,-55.5"/>
<text text-anchor="middle" x="217.3916" y="-61.5" font-family="Helvetica,sans-Serif" font-size="10.00" fill="#000000">src/cuckoocache.h</text>
</g>
<!-- Node1 -->
<g id="node2" class="node">
<title>Node1</title>
<polygon fill="#ffffff" stroke="#bfbfbf" points="0,-.5 0,-18.5 38.7832,-18.5 38.7832,-.5 0,-.5"/>
<text text-anchor="middle" x="19.3916" y="-6.5" font-family="Helvetica,sans-Serif" font-size="10.00" fill="#000000">array</text>
</g>
<!-- Node0&#45;&gt;Node1 -->
<g id="edge1" class="edge">
<title>Node0&#45;&gt;Node1</title>
<path fill="none" stroke="#191970" d="M180.7173,-55.4247C148.2468,-47.2257 99.3725,-34.4866 48.7305,-19.2788"/>
<polygon fill="#191970" stroke="#191970" points="49.5062,-15.8568 38.9209,-16.3083 47.4773,-22.5564 49.5062,-15.8568"/>
</g>
<!-- Node2 -->
<g id="node3" class="node">
<title>Node2</title>
<polygon fill="#ffffff" stroke="#bfbfbf" points="56.8276,-.5 56.8276,-18.5 113.9556,-18.5 113.9556,-.5 56.8276,-.5"/>
<text text-anchor="middle" x="85.3916" y="-6.5" font-family="Helvetica,sans-Serif" font-size="10.00" fill="#000000">algorithm</text>
</g>
<!-- Node0&#45;&gt;Node2 -->
<g id="edge2" class="edge">
<title>Node0&#45;&gt;Node2</title>
<path fill="none" stroke="#191970" d="M195.5945,-55.4179C174.0987,-46.4613 141.0252,-32.6806 116.7164,-22.552"/>
<polygon fill="#191970" stroke="#191970" points="117.7981,-19.2111 107.2211,-18.5956 115.1057,-25.6726 117.7981,-19.2111"/>
</g>
<!-- Node3 -->
<g id="node4" class="node">
<title>Node3</title>
<polygon fill="#ffffff" stroke="#bfbfbf" points="131.665,-.5 131.665,-18.5 177.1182,-18.5 177.1182,-.5 131.665,-.5"/>
<text text-anchor="middle" x="154.3916" y="-6.5" font-family="Helvetica,sans-Serif" font-size="10.00" fill="#000000">atomic</text>
</g>
<!-- Node0&#45;&gt;Node3 -->
<g id="edge3" class="edge">
<title>Node0&#45;&gt;Node3</title>
<path fill="none" stroke="#191970" d="M206.9884,-55.4179C197.6517,-47.2667 183.7383,-35.1201 172.5665,-25.3669"/>
<polygon fill="#191970" stroke="#191970" points="174.8558,-22.7194 165.0208,-18.7795 170.2522,-27.9927 174.8558,-22.7194"/>
</g>
<!-- Node4 -->
<g id="node5" class="node">
<title>Node4</title>
<polygon fill="#ffffff" stroke="#bfbfbf" points="194.665,-.5 194.665,-18.5 240.1182,-18.5 240.1182,-.5 194.665,-.5"/>
<text text-anchor="middle" x="217.3916" y="-6.5" font-family="Helvetica,sans-Serif" font-size="10.00" fill="#000000">cstring</text>
</g>
<!-- Node0&#45;&gt;Node4 -->
<g id="edge4" class="edge">
<title>Node0&#45;&gt;Node4</title>
<path fill="none" stroke="#191970" d="M217.3916,-55.4179C217.3916,-48.2164 217.3916,-37.8962 217.3916,-28.8632"/>
<polygon fill="#191970" stroke="#191970" points="220.8917,-28.7794 217.3916,-18.7795 213.8917,-28.7795 220.8917,-28.7794"/>
</g>
<!-- Node5 -->
<g id="node6" class="node">
<title>Node5</title>
<polygon fill="#ffffff" stroke="#bfbfbf" points="257.7759,-.5 257.7759,-18.5 301.0073,-18.5 301.0073,-.5 257.7759,-.5"/>
<text text-anchor="middle" x="279.3916" y="-6.5" font-family="Helvetica,sans-Serif" font-size="10.00" fill="#000000">cmath</text>
</g>
<!-- Node0&#45;&gt;Node5 -->
<g id="edge5" class="edge">
<title>Node0&#45;&gt;Node5</title>
<path fill="none" stroke="#191970" d="M227.6296,-55.4179C236.729,-47.3458 250.2453,-35.3556 261.1842,-25.6517"/>
<polygon fill="#191970" stroke="#191970" points="263.773,-28.0339 268.9311,-18.7795 259.1277,-22.7974 263.773,-28.0339"/>
</g>
<!-- Node6 -->
<g id="node7" class="node">
<title>Node6</title>
<polygon fill="#ffffff" stroke="#bfbfbf" points="319.335,-.5 319.335,-18.5 371.4482,-18.5 371.4482,-.5 319.335,-.5"/>
<text text-anchor="middle" x="345.3916" y="-6.5" font-family="Helvetica,sans-Serif" font-size="10.00" fill="#000000">memory</text>
</g>
<!-- Node0&#45;&gt;Node6 -->
<g id="edge6" class="edge">
<title>Node0&#45;&gt;Node6</title>
<path fill="none" stroke="#191970" d="M238.5282,-55.4179C259.3726,-46.4613 291.4439,-32.6806 315.0161,-22.552"/>
<polygon fill="#191970" stroke="#191970" points="316.4176,-25.7592 324.2236,-18.5956 313.6541,-19.3278 316.4176,-25.7592"/>
</g>
<!-- Node7 -->
<g id="node8" class="node">
<title>Node7</title>
<polygon fill="#ffffff" stroke="#bfbfbf" points="389.7759,-.5 389.7759,-18.5 433.0073,-18.5 433.0073,-.5 389.7759,-.5"/>
<text text-anchor="middle" x="411.3916" y="-6.5" font-family="Helvetica,sans-Serif" font-size="10.00" fill="#000000">vector</text>
</g>
<!-- Node0&#45;&gt;Node7 -->
<g id="edge7" class="edge">
<title>Node0&#45;&gt;Node7</title>
<path fill="none" stroke="#191970" d="M250.8647,-55.4209C281.867,-46.9534 329.4915,-33.7986 379.9455,-19.0783"/>
<polygon fill="#191970" stroke="#191970" points="381.1183,-22.3819 389.7322,-16.2135 379.1517,-15.6638 381.1183,-22.3819"/>
</g>
</g>
</svg>
