<?xml version="1.0" encoding="UTF-8" standalone="no"?>
<!DOCTYPE svg PUBLIC "-//W3C//DTD SVG 1.1//EN"
 "http://www.w3.org/Graphics/SVG/1.1/DTD/svg11.dtd">
<!-- Generated by graphviz version 2.40.1 (20161225.0304)
 -->
<!-- Title: src/script/descriptor.cpp Pages: 1 -->
<svg width="2369pt" height="477pt"
 viewBox="0.00 0.00 2368.96 477.00" xmlns="http://www.w3.org/2000/svg" xmlns:xlink="http://www.w3.org/1999/xlink">
<g id="graph0" class="graph" transform="scale(1 1) rotate(0) translate(4 473)">
<title>src/script/descriptor.cpp</title>
<polygon fill="#ffffff" stroke="transparent" points="-4,4 -4,-473 2364.964,-473 2364.964,4 -4,4"/>
<!-- Node0 -->
<g id="node1" class="node">
<title>Node0</title>
<polygon fill="#bfbfbf" stroke="#000000" points="1368.4805,-450.5 1368.4805,-468.5 1489.5195,-468.5 1489.5195,-450.5 1368.4805,-450.5"/>
<text text-anchor="middle" x="1429" y="-456.5" font-family="Helvetica,sans-Serif" font-size="10.00" fill="#000000">src/script/descriptor.cpp</text>
</g>
<!-- Node1 -->
<g id="node2" class="node">
<title>Node1</title>
<g id="a_node2"><a xlink:href="descriptor_8h.html" target="_top" xlink:title="script/descriptor.h">
<polygon fill="#ffffff" stroke="#000000" points="831.8154,-395.5 831.8154,-413.5 926.1846,-413.5 926.1846,-395.5 831.8154,-395.5"/>
<text text-anchor="middle" x="879" y="-401.5" font-family="Helvetica,sans-Serif" font-size="10.00" fill="#000000">script/descriptor.h</text>
</a>
</g>
</g>
<!-- Node0&#45;&gt;Node1 -->
<g id="edge1" class="edge">
<title>Node0&#45;&gt;Node1</title>
<path fill="none" stroke="#191970" d="M1368.2637,-455.0605C1275.6832,-448.0198 1093.7818,-433.1108 940,-414 938.7436,-413.8439 937.4733,-413.6819 936.193,-413.515"/>
<polygon fill="#191970" stroke="#191970" points="936.6306,-410.0424 926.2482,-412.153 935.6807,-416.9776 936.6306,-410.0424"/>
</g>
<!-- Node2 -->
<g id="node3" class="node">
<title>Node2</title>
<g id="a_node3"><a xlink:href="script_8h.html" target="_top" xlink:title="script/script.h">
<polygon fill="#ffffff" stroke="#000000" points="660.5493,-220.5 660.5493,-238.5 735.4507,-238.5 735.4507,-220.5 660.5493,-220.5"/>
<text text-anchor="middle" x="698" y="-226.5" font-family="Helvetica,sans-Serif" font-size="10.00" fill="#000000">script/script.h</text>
</a>
</g>
</g>
<!-- Node0&#45;&gt;Node2 -->
<g id="edge129" class="edge">
<title>Node0&#45;&gt;Node2</title>
<path fill="none" stroke="#191970" d="M1368.3285,-457.3957C1224.551,-452.0609 871.4865,-436.7926 823,-414 761.5564,-385.1164 750.0432,-363.3104 717,-304 707.3813,-286.7352 702.5333,-264.5202 700.155,-248.8563"/>
<polygon fill="#191970" stroke="#191970" points="703.6028,-248.2302 698.8268,-238.7729 696.6628,-249.1444 703.6028,-248.2302"/>
</g>
<!-- Node34 -->
<g id="node18" class="node">
<title>Node34</title>
<polygon fill="#ffffff" stroke="#bfbfbf" points="505.9434,-110.5 505.9434,-128.5 558.0566,-128.5 558.0566,-110.5 505.9434,-110.5"/>
<text text-anchor="middle" x="532" y="-116.5" font-family="Helvetica,sans-Serif" font-size="10.00" fill="#000000">memory</text>
</g>
<!-- Node0&#45;&gt;Node34 -->
<g id="edge137" class="edge">
<title>Node0&#45;&gt;Node34</title>
<path fill="none" stroke="#191970" d="M1368.229,-456.5641C1139.3129,-445.1099 342,-401.4839 342,-349.5 342,-349.5 342,-349.5 342,-229.5 342,-194.2626 441.1152,-152.5438 496.1718,-132.088"/>
<polygon fill="#191970" stroke="#191970" points="497.3965,-135.3669 505.5813,-128.6394 494.9876,-128.7944 497.3965,-135.3669"/>
</g>
<!-- Node36 -->
<g id="node20" class="node">
<title>Node36</title>
<polygon fill="#ffffff" stroke="#bfbfbf" points="1016.7734,-110.5 1016.7734,-128.5 1057.2266,-128.5 1057.2266,-110.5 1016.7734,-110.5"/>
<text text-anchor="middle" x="1037" y="-116.5" font-family="Helvetica,sans-Serif" font-size="10.00" fill="#000000">string</text>
</g>
<!-- Node0&#45;&gt;Node36 -->
<g id="edge138" class="edge">
<title>Node0&#45;&gt;Node36</title>
<path fill="none" stroke="#191970" d="M1402.4059,-450.4376C1290.1708,-412.0728 860.2062,-263.8583 843,-239 798.0015,-173.9893 941.5265,-137.6489 1006.624,-124.8389"/>
<polygon fill="#191970" stroke="#191970" points="1007.5514,-128.2253 1016.7207,-122.9174 1006.2427,-121.3487 1007.5514,-128.2253"/>
</g>
<!-- Node38 -->
<g id="node22" class="node">
<title>Node38</title>
<polygon fill="#ffffff" stroke="#bfbfbf" points="1343.3843,-110.5 1343.3843,-128.5 1386.6157,-128.5 1386.6157,-110.5 1343.3843,-110.5"/>
<text text-anchor="middle" x="1365" y="-116.5" font-family="Helvetica,sans-Serif" font-size="10.00" fill="#000000">vector</text>
</g>
<!-- Node0&#45;&gt;Node38 -->
<g id="edge139" class="edge">
<title>Node0&#45;&gt;Node38</title>
<path fill="none" stroke="#191970" d="M1477.4267,-450.4688C1629.6922,-420.2526 2079.7915,-316.0137 1927,-165 1890.9309,-129.3506 1522.5358,-133.2425 1472,-129 1446.722,-126.8779 1418.0988,-124.3289 1396.8214,-122.4058"/>
<polygon fill="#191970" stroke="#191970" points="1396.9927,-118.9071 1386.7175,-121.4897 1396.3606,-125.8785 1396.9927,-118.9071"/>
</g>
<!-- Node39 -->
<g id="node23" class="node">
<title>Node39</title>
<g id="a_node23"><a xlink:href="span_8h.html" target="_top" xlink:title="span.h">
<polygon fill="#ffffff" stroke="#000000" points="103.9878,-110.5 103.9878,-128.5 150.0122,-128.5 150.0122,-110.5 103.9878,-110.5"/>
<text text-anchor="middle" x="127" y="-116.5" font-family="Helvetica,sans-Serif" font-size="10.00" fill="#000000">span.h</text>
</a>
</g>
</g>
<!-- Node0&#45;&gt;Node39 -->
<g id="edge131" class="edge">
<title>Node0&#45;&gt;Node39</title>
<path fill="none" stroke="#191970" d="M1368.0548,-458.0508C1095.2995,-451.1721 0,-419.2097 0,-349.5 0,-349.5 0,-349.5 0,-229.5 0,-179.6958 56.4944,-147.3944 94.124,-131.4032"/>
<polygon fill="#191970" stroke="#191970" points="95.7616,-134.5157 103.7062,-127.5061 93.1244,-128.0314 95.7616,-134.5157"/>
</g>
<!-- Node45 -->
<g id="node29" class="node">
<title>Node45</title>
<g id="a_node29"><a xlink:href="pubkey_8h.html" target="_top" xlink:title="pubkey.h">
<polygon fill="#ffffff" stroke="#000000" points="1501.0757,-280.5 1501.0757,-298.5 1556.9243,-298.5 1556.9243,-280.5 1501.0757,-280.5"/>
<text text-anchor="middle" x="1529" y="-286.5" font-family="Helvetica,sans-Serif" font-size="10.00" fill="#000000">pubkey.h</text>
</a>
</g>
</g>
<!-- Node0&#45;&gt;Node45 -->
<g id="edge128" class="edge">
<title>Node0&#45;&gt;Node45</title>
<path fill="none" stroke="#191970" d="M1432.8461,-450.096C1438.1816,-437.3386 1448.378,-413.9636 1459,-395 1477.0714,-362.7368 1501.6217,-327.3162 1516.331,-306.8215"/>
<polygon fill="#191970" stroke="#191970" points="1519.3111,-308.6734 1522.3382,-298.5202 1513.6402,-304.5696 1519.3111,-308.6734"/>
</g>
<!-- Node66 -->
<g id="node39" class="node">
<title>Node66</title>
<g id="a_node39"><a xlink:href="key__io_8h.html" target="_top" xlink:title="key_io.h">
<polygon fill="#ffffff" stroke="#000000" points="1468.377,-395.5 1468.377,-413.5 1521.623,-413.5 1521.623,-395.5 1468.377,-395.5"/>
<text text-anchor="middle" x="1495" y="-401.5" font-family="Helvetica,sans-Serif" font-size="10.00" fill="#000000">key_io.h</text>
</a>
</g>
</g>
<!-- Node0&#45;&gt;Node66 -->
<g id="edge91" class="edge">
<title>Node0&#45;&gt;Node66</title>
<path fill="none" stroke="#191970" d="M1439.8986,-450.4179C1449.6799,-442.2667 1464.2558,-430.1201 1475.9597,-420.3669"/>
<polygon fill="#191970" stroke="#191970" points="1478.4231,-422.8701 1483.8647,-413.7795 1473.9418,-417.4926 1478.4231,-422.8701"/>
</g>
<!-- Node80 -->
<g id="node47" class="node">
<title>Node80</title>
<g id="a_node47"><a xlink:href="standard_8h.html" target="_top" xlink:title="script/standard.h">
<polygon fill="#ffffff" stroke="#000000" points="2106.0371,-220.5 2106.0371,-238.5 2195.9629,-238.5 2195.9629,-220.5 2106.0371,-220.5"/>
<text text-anchor="middle" x="2151" y="-226.5" font-family="Helvetica,sans-Serif" font-size="10.00" fill="#000000">script/standard.h</text>
</a>
</g>
</g>
<!-- Node0&#45;&gt;Node80 -->
<g id="edge130" class="edge">
<title>Node0&#45;&gt;Node80</title>
<path fill="none" stroke="#191970" d="M1489.6856,-457.9986C1662.0953,-453.4399 2143.9176,-438.5493 2167,-414 2210.0808,-368.1813 2177.9841,-284.6628 2160.4433,-247.8084"/>
<polygon fill="#191970" stroke="#191970" points="2163.5221,-246.1381 2155.9565,-238.7211 2157.2455,-249.2372 2163.5221,-246.1381"/>
</g>
<!-- Node82 -->
<g id="node49" class="node">
<title>Node82</title>
<polygon fill="#ffffff" stroke="#bfbfbf" points="2120.4385,-395.5 2120.4385,-413.5 2157.5615,-413.5 2157.5615,-395.5 2120.4385,-395.5"/>
<text text-anchor="middle" x="2139" y="-401.5" font-family="Helvetica,sans-Serif" font-size="10.00" fill="#000000">util.h</text>
</g>
<!-- Node0&#45;&gt;Node82 -->
<g id="edge132" class="edge">
<title>Node0&#45;&gt;Node82</title>
<path fill="none" stroke="#191970" d="M1489.687,-457.081C1632.8567,-451.106 1988.45,-434.6267 2106,-414 2107.468,-413.7424 2108.9641,-413.4445 2110.4686,-413.1167"/>
<polygon fill="#191970" stroke="#191970" points="2111.4777,-416.4718 2120.315,-410.6278 2109.7622,-409.6852 2111.4777,-416.4718"/>
</g>
<!-- Node83 -->
<g id="node50" class="node">
<title>Node83</title>
<g id="a_node50"><a xlink:href="utilstrencodings_8h.html" target="_top" xlink:title="utilstrencodings.h">
<polygon fill="#ffffff" stroke="#000000" points="2254.0889,-165.5 2254.0889,-183.5 2347.9111,-183.5 2347.9111,-165.5 2254.0889,-165.5"/>
<text text-anchor="middle" x="2301" y="-171.5" font-family="Helvetica,sans-Serif" font-size="10.00" fill="#000000">utilstrencodings.h</text>
</a>
</g>
</g>
<!-- Node0&#45;&gt;Node83 -->
<g id="edge133" class="edge">
<title>Node0&#45;&gt;Node83</title>
<path fill="none" stroke="#191970" d="M1489.6422,-457.6357C1639.0306,-452.696 2016.4064,-437.9824 2068,-414 2176.5367,-363.5487 2261.4701,-238.8502 2290.3453,-192.3554"/>
<polygon fill="#191970" stroke="#191970" points="2293.4208,-194.0346 2295.6444,-183.6758 2287.4462,-190.387 2293.4208,-194.0346"/>
</g>
<!-- Node1&#45;&gt;Node2 -->
<g id="edge2" class="edge">
<title>Node1&#45;&gt;Node2</title>
<path fill="none" stroke="#191970" d="M884.3121,-395.4613C897.0144,-372.5395 926.0056,-311.3861 897,-275 887.5374,-263.1297 801.6016,-246.7674 745.7954,-237.243"/>
<polygon fill="#191970" stroke="#191970" points="746.1942,-233.7609 735.751,-235.5468 745.0286,-240.6632 746.1942,-233.7609"/>
</g>
<!-- Node1&#45;&gt;Node38 -->
<g id="edge90" class="edge">
<title>Node1&#45;&gt;Node38</title>
<path fill="none" stroke="#191970" d="M916.1262,-395.4248C1029.1043,-366.9515 1364.4758,-275.8022 1421,-184 1432.6646,-165.0553 1411.4255,-146.1637 1391.8418,-133.7691"/>
<polygon fill="#191970" stroke="#191970" points="1393.4674,-130.6635 1383.0845,-128.5546 1389.886,-136.678 1393.4674,-130.6635"/>
</g>
<!-- Node42 -->
<g id="node26" class="node">
<title>Node42</title>
<g id="a_node26"><a xlink:href="sign_8h.html" target="_top" xlink:title="script/sign.h">
<polygon fill="#ffffff" stroke="#000000" points="811.3228,-340.5 811.3228,-358.5 880.6772,-358.5 880.6772,-340.5 811.3228,-340.5"/>
<text text-anchor="middle" x="846" y="-346.5" font-family="Helvetica,sans-Serif" font-size="10.00" fill="#000000">script/sign.h</text>
</a>
</g>
</g>
<!-- Node1&#45;&gt;Node42 -->
<g id="edge42" class="edge">
<title>Node1&#45;&gt;Node42</title>
<path fill="none" stroke="#191970" d="M873.5507,-395.4179C868.9924,-387.8207 862.3516,-376.7527 856.732,-367.3866"/>
<polygon fill="#191970" stroke="#191970" points="859.7139,-365.5536 851.5677,-358.7795 853.7114,-369.1552 859.7139,-365.5536"/>
</g>
<!-- Node3 -->
<g id="node4" class="node">
<title>Node3</title>
<g id="a_node4"><a xlink:href="common_8h.html" target="_top" xlink:title="crypto/common.h">
<polygon fill="#ffffff" stroke="#000000" points="1075.6528,-110.5 1075.6528,-128.5 1168.3472,-128.5 1168.3472,-110.5 1075.6528,-110.5"/>
<text text-anchor="middle" x="1122" y="-116.5" font-family="Helvetica,sans-Serif" font-size="10.00" fill="#000000">crypto/common.h</text>
</a>
</g>
</g>
<!-- Node2&#45;&gt;Node3 -->
<g id="edge3" class="edge">
<title>Node2&#45;&gt;Node3</title>
<path fill="none" stroke="#191970" d="M732.6977,-220.4982C809.1947,-200.6523 992.2779,-153.1543 1077.2575,-131.1077"/>
<polygon fill="#191970" stroke="#191970" points="1078.3201,-134.448 1087.1207,-128.5489 1076.5622,-127.6723 1078.3201,-134.448"/>
</g>
<!-- Node4 -->
<g id="node5" class="node">
<title>Node4</title>
<polygon fill="#ffffff" stroke="#bfbfbf" points="1271.8794,-.5 1271.8794,-18.5 1320.1206,-18.5 1320.1206,-.5 1271.8794,-.5"/>
<text text-anchor="middle" x="1296" y="-6.5" font-family="Helvetica,sans-Serif" font-size="10.00" fill="#000000">stdint.h</text>
</g>
<!-- Node2&#45;&gt;Node4 -->
<g id="edge38" class="edge">
<title>Node2&#45;&gt;Node4</title>
<path fill="none" stroke="#191970" d="M660.3456,-227.5561C541.0959,-220.7704 173.9771,-194.8663 78,-129 47.1745,-107.8454 12.0461,-81.9096 38,-55 59.8459,-32.3497 1061.2292,-13.6169 1261.3954,-10.0951"/>
<polygon fill="#191970" stroke="#191970" points="1261.6819,-13.5907 1271.6191,-9.9162 1261.5593,-6.5918 1261.6819,-13.5907"/>
</g>
<!-- Node5 -->
<g id="node6" class="node">
<title>Node5</title>
<polygon fill="#ffffff" stroke="#bfbfbf" points="680.6035,-55.5 680.6035,-73.5 729.3965,-73.5 729.3965,-55.5 680.6035,-55.5"/>
<text text-anchor="middle" x="705" y="-61.5" font-family="Helvetica,sans-Serif" font-size="10.00" fill="#000000">string.h</text>
</g>
<!-- Node2&#45;&gt;Node5 -->
<g id="edge39" class="edge">
<title>Node2&#45;&gt;Node5</title>
<path fill="none" stroke="#191970" d="M660.2667,-226.2216C539.648,-215.0389 174.7591,-175.4199 235,-110 266.3839,-75.9179 590.5595,-81.8945 670.3141,-73.3727"/>
<polygon fill="#191970" stroke="#191970" points="670.8155,-76.8368 680.2438,-72.0037 669.8594,-69.9024 670.8155,-76.8368"/>
</g>
<!-- Node8 -->
<g id="node8" class="node">
<title>Node8</title>
<g id="a_node8"><a xlink:href="prevector_8h.html" target="_top" xlink:title="prevector.h">
<polygon fill="#ffffff" stroke="#ff0000" points="652.2612,-110.5 652.2612,-128.5 717.7388,-128.5 717.7388,-110.5 652.2612,-110.5"/>
<text text-anchor="middle" x="685" y="-116.5" font-family="Helvetica,sans-Serif" font-size="10.00" fill="#000000">prevector.h</text>
</a>
</g>
</g>
<!-- Node2&#45;&gt;Node8 -->
<g id="edge8" class="edge">
<title>Node2&#45;&gt;Node8</title>
<path fill="none" stroke="#191970" d="M696.9362,-220.4982C694.8317,-202.6913 690.0963,-162.6225 687.2634,-138.6515"/>
<polygon fill="#191970" stroke="#191970" points="690.7281,-138.1462 686.0785,-128.6261 683.7765,-138.9678 690.7281,-138.1462"/>
</g>
<!-- Node9 -->
<g id="node9" class="node">
<title>Node9</title>
<polygon fill="#ffffff" stroke="#bfbfbf" points="785.2144,-55.5 785.2144,-73.5 836.7856,-73.5 836.7856,-55.5 785.2144,-55.5"/>
<text text-anchor="middle" x="811" y="-61.5" font-family="Helvetica,sans-Serif" font-size="10.00" fill="#000000">assert.h</text>
</g>
<!-- Node2&#45;&gt;Node9 -->
<g id="edge34" class="edge">
<title>Node2&#45;&gt;Node9</title>
<path fill="none" stroke="#191970" d="M711.1491,-220.3794C732.9449,-204.5071 776.3018,-169.5924 798,-129 805.4886,-114.9906 808.6774,-97.1687 810.0281,-83.8102"/>
<polygon fill="#191970" stroke="#191970" points="813.5194,-84.0562 810.7844,-73.8205 806.5394,-83.5277 813.5194,-84.0562"/>
</g>
<!-- Node29 -->
<g id="node13" class="node">
<title>Node29</title>
<g id="a_node13"><a xlink:href="serialize_8h.html" target="_top" xlink:title="serialize.h">
<polygon fill="#ffffff" stroke="#000000" points="584.4902,-165.5 584.4902,-183.5 645.5098,-183.5 645.5098,-165.5 584.4902,-165.5"/>
<text text-anchor="middle" x="615" y="-171.5" font-family="Helvetica,sans-Serif" font-size="10.00" fill="#000000">serialize.h</text>
</a>
</g>
</g>
<!-- Node2&#45;&gt;Node29 -->
<g id="edge15" class="edge">
<title>Node2&#45;&gt;Node29</title>
<path fill="none" stroke="#191970" d="M684.2942,-220.4179C671.5589,-211.9788 652.3605,-199.257 637.3988,-189.3426"/>
<polygon fill="#191970" stroke="#191970" points="638.9954,-186.2019 628.7261,-183.5956 635.1287,-192.037 638.9954,-186.2019"/>
</g>
<!-- Node32 -->
<g id="node16" class="node">
<title>Node32</title>
<polygon fill="#ffffff" stroke="#bfbfbf" points="395.6133,-110.5 395.6133,-128.5 434.3867,-128.5 434.3867,-110.5 395.6133,-110.5"/>
<text text-anchor="middle" x="415" y="-116.5" font-family="Helvetica,sans-Serif" font-size="10.00" fill="#000000">limits</text>
</g>
<!-- Node2&#45;&gt;Node32 -->
<g id="edge36" class="edge">
<title>Node2&#45;&gt;Node32</title>
<path fill="none" stroke="#191970" d="M660.5139,-227.5856C596.5539,-223.5846 470.0383,-212.2449 437,-184 423.8141,-172.7272 418.5157,-153.2084 416.3952,-138.5875"/>
<polygon fill="#191970" stroke="#191970" points="419.868,-138.146 415.3151,-128.5793 412.9084,-138.8971 419.868,-138.146"/>
</g>
<!-- Node2&#45;&gt;Node36 -->
<g id="edge40" class="edge">
<title>Node2&#45;&gt;Node36</title>
<path fill="none" stroke="#191970" d="M718.7001,-220.4943C757.1449,-203.8016 836.8706,-169.3509 850,-165 904.1253,-147.0637 969.1878,-132.8215 1006.5535,-125.3187"/>
<polygon fill="#191970" stroke="#191970" points="1007.6416,-128.6714 1016.772,-123.2968 1006.2828,-121.8045 1007.6416,-128.6714"/>
</g>
<!-- Node2&#45;&gt;Node38 -->
<g id="edge41" class="edge">
<title>Node2&#45;&gt;Node38</title>
<path fill="none" stroke="#191970" d="M735.7392,-226.6676C829.7397,-219.4599 1072.4723,-199.8698 1152,-184 1217.983,-170.8331 1292.7583,-145.7336 1333.832,-131.0283"/>
<polygon fill="#191970" stroke="#191970" points="1335.0645,-134.3045 1343.2807,-127.6153 1332.6864,-127.7208 1335.0645,-134.3045"/>
</g>
<!-- Node40 -->
<g id="node24" class="node">
<title>Node40</title>
<polygon fill="#ffffff" stroke="#bfbfbf" points="446.1133,-165.5 446.1133,-183.5 489.8867,-183.5 489.8867,-165.5 446.1133,-165.5"/>
<text text-anchor="middle" x="468" y="-171.5" font-family="Helvetica,sans-Serif" font-size="10.00" fill="#000000">climits</text>
</g>
<!-- Node2&#45;&gt;Node40 -->
<g id="edge35" class="edge">
<title>Node2&#45;&gt;Node40</title>
<path fill="none" stroke="#191970" d="M660.3724,-220.9991C621.233,-212.0808 558.2126,-197.5077 504,-184 502.7299,-183.6835 501.4354,-183.3577 500.1285,-183.0259"/>
<polygon fill="#191970" stroke="#191970" points="500.6176,-179.5374 490.06,-180.4244 498.8664,-186.3149 500.6176,-179.5374"/>
</g>
<!-- Node41 -->
<g id="node25" class="node">
<title>Node41</title>
<polygon fill="#ffffff" stroke="#bfbfbf" points="1991.5986,-110.5 1991.5986,-128.5 2050.4014,-128.5 2050.4014,-110.5 1991.5986,-110.5"/>
<text text-anchor="middle" x="2021" y="-116.5" font-family="Helvetica,sans-Serif" font-size="10.00" fill="#000000">stdexcept</text>
</g>
<!-- Node2&#45;&gt;Node41 -->
<g id="edge37" class="edge">
<title>Node2&#45;&gt;Node41</title>
<path fill="none" stroke="#191970" d="M735.5355,-226.7141C764.799,-224.6212 806.465,-221.8145 843,-220 961.1443,-214.1325 1793.1341,-216.0476 1907,-184 1942.9765,-173.8744 1979.7469,-150.1646 2001.4629,-134.4867"/>
<polygon fill="#191970" stroke="#191970" points="2003.576,-137.2772 2009.5401,-128.5205 1999.417,-131.6467 2003.576,-137.2772"/>
</g>
<!-- Node3&#45;&gt;Node4 -->
<g id="edge4" class="edge">
<title>Node3&#45;&gt;Node4</title>
<path fill="none" stroke="#191970" d="M1131.4865,-110.3114C1145.5945,-96.971 1173.3162,-71.9821 1200,-55 1220.008,-42.2665 1244.1366,-30.8454 1263.1985,-22.6309"/>
<polygon fill="#191970" stroke="#191970" points="1264.8051,-25.7518 1272.6561,-18.6376 1262.0822,-19.3031 1264.8051,-25.7518"/>
</g>
<!-- Node3&#45;&gt;Node5 -->
<g id="edge5" class="edge">
<title>Node3&#45;&gt;Node5</title>
<path fill="none" stroke="#191970" d="M1075.5773,-111.461C1072.3387,-110.9506 1069.1221,-110.4584 1066,-110 937.4993,-91.134 904.8114,-90.6125 776,-74 764.1959,-72.4777 751.2948,-70.7658 739.7665,-69.219"/>
<polygon fill="#191970" stroke="#191970" points="740.0139,-65.7208 729.6362,-67.855 739.0797,-72.6582 740.0139,-65.7208"/>
</g>
<!-- Node6 -->
<g id="node7" class="node">
<title>Node6</title>
<g id="a_node7"><a xlink:href="endian_8h.html" target="_top" xlink:title="compat/endian.h">
<polygon fill="#ffffff" stroke="#ff0000" points="1058.0298,-55.5 1058.0298,-73.5 1147.9702,-73.5 1147.9702,-55.5 1058.0298,-55.5"/>
<text text-anchor="middle" x="1103" y="-61.5" font-family="Helvetica,sans-Serif" font-size="10.00" fill="#000000">compat/endian.h</text>
</a>
</g>
</g>
<!-- Node3&#45;&gt;Node6 -->
<g id="edge6" class="edge">
<title>Node3&#45;&gt;Node6</title>
<path fill="none" stroke="#191970" d="M1118.8625,-110.4179C1116.3201,-103.0581 1112.6524,-92.441 1109.484,-83.2695"/>
<polygon fill="#191970" stroke="#191970" points="1112.7791,-82.0885 1106.2056,-73.7795 1106.1627,-84.3742 1112.7791,-82.0885"/>
</g>
<!-- Node6&#45;&gt;Node4 -->
<g id="edge7" class="edge">
<title>Node6&#45;&gt;Node4</title>
<path fill="none" stroke="#191970" d="M1134.87,-55.4179C1169.8532,-45.4486 1225.8087,-29.5027 1261.7209,-19.2687"/>
<polygon fill="#191970" stroke="#191970" points="1263.0726,-22.5229 1271.7305,-16.4162 1261.1541,-15.7909 1263.0726,-22.5229"/>
</g>
<!-- Node8&#45;&gt;Node4 -->
<g id="edge11" class="edge">
<title>Node8&#45;&gt;Node4</title>
<path fill="none" stroke="#191970" d="M694.107,-110.4547C709.4716,-95.8392 742.1895,-67.4162 776,-55 865.6696,-22.0708 1160.2988,-12.52 1261.5043,-10.1744"/>
<polygon fill="#191970" stroke="#191970" points="1261.8579,-13.6675 1271.7776,-9.946 1261.7022,-6.6693 1261.8579,-13.6675"/>
</g>
<!-- Node8&#45;&gt;Node5 -->
<g id="edge12" class="edge">
<title>Node8&#45;&gt;Node5</title>
<path fill="none" stroke="#191970" d="M688.3026,-110.4179C690.9789,-103.0581 694.8396,-92.441 698.1747,-83.2695"/>
<polygon fill="#191970" stroke="#191970" points="701.4974,-84.3735 701.6257,-73.7795 694.9189,-81.9813 701.4974,-84.3735"/>
</g>
<!-- Node8&#45;&gt;Node9 -->
<g id="edge9" class="edge">
<title>Node8&#45;&gt;Node9</title>
<path fill="none" stroke="#191970" d="M705.8063,-110.4179C726.2339,-101.5011 757.6148,-87.803 780.7892,-77.6873"/>
<polygon fill="#191970" stroke="#191970" points="782.3981,-80.804 790.1628,-73.5956 779.5976,-74.3885 782.3981,-80.804"/>
</g>
<!-- Node10 -->
<g id="node10" class="node">
<title>Node10</title>
<polygon fill="#ffffff" stroke="#bfbfbf" points="1540.1577,-55.5 1540.1577,-73.5 1587.8423,-73.5 1587.8423,-55.5 1540.1577,-55.5"/>
<text text-anchor="middle" x="1564" y="-61.5" font-family="Helvetica,sans-Serif" font-size="10.00" fill="#000000">stdlib.h</text>
</g>
<!-- Node8&#45;&gt;Node10 -->
<g id="edge10" class="edge">
<title>Node8&#45;&gt;Node10</title>
<path fill="none" stroke="#191970" d="M717.8536,-117.4443C856.0622,-108.7964 1389.5944,-75.4127 1529.9882,-66.6282"/>
<polygon fill="#191970" stroke="#191970" points="1530.3846,-70.1103 1540.1465,-65.9925 1529.9474,-63.124 1530.3846,-70.1103"/>
</g>
<!-- Node11 -->
<g id="node11" class="node">
<title>Node11</title>
<polygon fill="#ffffff" stroke="#bfbfbf" points="613.8794,-55.5 613.8794,-73.5 662.1206,-73.5 662.1206,-55.5 613.8794,-55.5"/>
<text text-anchor="middle" x="638" y="-61.5" font-family="Helvetica,sans-Serif" font-size="10.00" fill="#000000">cstddef</text>
</g>
<!-- Node8&#45;&gt;Node11 -->
<g id="edge13" class="edge">
<title>Node8&#45;&gt;Node11</title>
<path fill="none" stroke="#191970" d="M677.2389,-110.4179C670.5439,-102.5833 660.6946,-91.0575 652.539,-81.5137"/>
<polygon fill="#191970" stroke="#191970" points="655.0871,-79.108 645.9297,-73.7795 649.7655,-83.6556 655.0871,-79.108"/>
</g>
<!-- Node13 -->
<g id="node12" class="node">
<title>Node13</title>
<polygon fill="#ffffff" stroke="#bfbfbf" points="309.9336,-55.5 309.9336,-73.5 372.0664,-73.5 372.0664,-55.5 309.9336,-55.5"/>
<text text-anchor="middle" x="341" y="-61.5" font-family="Helvetica,sans-Serif" font-size="10.00" fill="#000000">type_traits</text>
</g>
<!-- Node8&#45;&gt;Node13 -->
<g id="edge14" class="edge">
<title>Node8&#45;&gt;Node13</title>
<path fill="none" stroke="#191970" d="M652.0158,-114.2264C588.9941,-104.1502 451.6007,-82.1833 382.4739,-71.131"/>
<polygon fill="#191970" stroke="#191970" points="382.8143,-67.641 372.3871,-69.5183 381.7091,-74.5533 382.8143,-67.641"/>
</g>
<!-- Node29&#45;&gt;Node4 -->
<g id="edge24" class="edge">
<title>Node29&#45;&gt;Node4</title>
<path fill="none" stroke="#191970" d="M610.1773,-165.2217C599.3275,-142.9155 576.1142,-85.8504 605,-55 627.6514,-30.808 1124.0501,-14.5314 1261.1803,-10.4852"/>
<polygon fill="#191970" stroke="#191970" points="1261.6207,-13.974 1271.5142,-10.1835 1261.4163,-6.9769 1261.6207,-13.974"/>
</g>
<!-- Node29&#45;&gt;Node5 -->
<g id="edge26" class="edge">
<title>Node29&#45;&gt;Node5</title>
<path fill="none" stroke="#191970" d="M617.3137,-165.362C621.0183,-152.0847 629.2923,-127.1737 643,-110 652.9863,-97.4886 667.2184,-86.7161 679.5286,-78.7981"/>
<polygon fill="#191970" stroke="#191970" points="681.3769,-81.7704 688.0645,-73.5529 677.7121,-75.8063 681.3769,-81.7704"/>
</g>
<!-- Node29&#45;&gt;Node6 -->
<g id="edge16" class="edge">
<title>Node29&#45;&gt;Node6</title>
<path fill="none" stroke="#191970" d="M645.5266,-167.619C727.3298,-149.1798 952.0722,-98.5206 1052.8977,-75.7936"/>
<polygon fill="#191970" stroke="#191970" points="1053.8509,-79.1666 1062.8365,-73.5533 1052.3116,-72.3379 1053.8509,-79.1666"/>
</g>
<!-- Node29&#45;&gt;Node8 -->
<g id="edge29" class="edge">
<title>Node29&#45;&gt;Node8</title>
<path fill="none" stroke="#191970" d="M626.5591,-165.4179C637.034,-157.1876 652.6932,-144.8839 665.1664,-135.0836"/>
<polygon fill="#191970" stroke="#191970" points="667.489,-137.7098 673.1898,-128.7795 663.1642,-132.2056 667.489,-137.7098"/>
</g>
<!-- Node29&#45;&gt;Node9 -->
<g id="edge18" class="edge">
<title>Node29&#45;&gt;Node9</title>
<path fill="none" stroke="#191970" d="M643.1223,-165.447C666.3776,-157.4108 699.8673,-144.548 727,-129 751.5888,-114.9097 777.0188,-94.4051 793.3636,-80.3177"/>
<polygon fill="#191970" stroke="#191970" points="795.813,-82.8252 801.0302,-73.6039 791.2013,-77.559 795.813,-82.8252"/>
</g>
<!-- Node30 -->
<g id="node14" class="node">
<title>Node30</title>
<polygon fill="#ffffff" stroke="#bfbfbf" points="47.436,-55.5 47.436,-73.5 104.564,-73.5 104.564,-55.5 47.436,-55.5"/>
<text text-anchor="middle" x="76" y="-61.5" font-family="Helvetica,sans-Serif" font-size="10.00" fill="#000000">algorithm</text>
</g>
<!-- Node29&#45;&gt;Node30 -->
<g id="edge17" class="edge">
<title>Node29&#45;&gt;Node30</title>
<path fill="none" stroke="#191970" d="M584.1868,-171.9192C472.7917,-162.5751 97.3889,-130.9549 95,-129 81.7533,-118.1602 77.4479,-98.5785 76.187,-83.8247"/>
<polygon fill="#191970" stroke="#191970" points="79.6775,-83.5356 75.7186,-73.7082 72.685,-83.8595 79.6775,-83.5356"/>
</g>
<!-- Node31 -->
<g id="node15" class="node">
<title>Node31</title>
<polygon fill="#ffffff" stroke="#bfbfbf" points="348.5,-110.5 348.5,-128.5 377.5,-128.5 377.5,-110.5 348.5,-110.5"/>
<text text-anchor="middle" x="362.8916" y="-116.5" font-family="Helvetica,sans-Serif" font-size="10.00" fill="#000000">ios</text>
</g>
<!-- Node29&#45;&gt;Node31 -->
<g id="edge19" class="edge">
<title>Node29&#45;&gt;Node31</title>
<path fill="none" stroke="#191970" d="M584.3352,-170.1771C541.9693,-163.8183 463.1096,-150.5925 387.2858,-128.6205"/>
<polygon fill="#191970" stroke="#191970" points="388.1585,-125.2288 377.5766,-125.7531 386.1758,-131.9422 388.1585,-125.2288"/>
</g>
<!-- Node29&#45;&gt;Node32 -->
<g id="edge20" class="edge">
<title>Node29&#45;&gt;Node32</title>
<path fill="none" stroke="#191970" d="M584.3743,-167.0717C551.7946,-159.0226 498.5586,-145.4518 444.3061,-129.2599"/>
<polygon fill="#191970" stroke="#191970" points="445.1116,-125.8472 434.5271,-126.3156 443.0935,-132.55 445.1116,-125.8472"/>
</g>
<!-- Node33 -->
<g id="node17" class="node">
<title>Node33</title>
<polygon fill="#ffffff" stroke="#bfbfbf" points="452.2734,-110.5 452.2734,-128.5 487.7266,-128.5 487.7266,-110.5 452.2734,-110.5"/>
<text text-anchor="middle" x="470" y="-116.5" font-family="Helvetica,sans-Serif" font-size="10.00" fill="#000000">map</text>
</g>
<!-- Node29&#45;&gt;Node33 -->
<g id="edge21" class="edge">
<title>Node29&#45;&gt;Node33</title>
<path fill="none" stroke="#191970" d="M591.0562,-165.4179C565.379,-155.6782 524.663,-140.2342 497.642,-129.9849"/>
<polygon fill="#191970" stroke="#191970" points="498.6077,-126.6079 488.0164,-126.3338 496.1251,-133.1529 498.6077,-126.6079"/>
</g>
<!-- Node29&#45;&gt;Node34 -->
<g id="edge22" class="edge">
<title>Node29&#45;&gt;Node34</title>
<path fill="none" stroke="#191970" d="M601.2942,-165.4179C588.5589,-156.9788 569.3605,-144.257 554.3988,-134.3426"/>
<polygon fill="#191970" stroke="#191970" points="555.9954,-131.2019 545.7261,-128.5956 552.1287,-137.037 555.9954,-131.2019"/>
</g>
<!-- Node35 -->
<g id="node19" class="node">
<title>Node35</title>
<polygon fill="#ffffff" stroke="#bfbfbf" points="244.3301,-110.5 244.3301,-128.5 273.6699,-128.5 273.6699,-110.5 244.3301,-110.5"/>
<text text-anchor="middle" x="259" y="-116.5" font-family="Helvetica,sans-Serif" font-size="10.00" fill="#000000">set</text>
</g>
<!-- Node29&#45;&gt;Node35 -->
<g id="edge23" class="edge">
<title>Node29&#45;&gt;Node35</title>
<path fill="none" stroke="#191970" d="M584.2387,-171.2424C516.5846,-163.9303 355.8055,-145.7102 283.7574,-128.5238"/>
<polygon fill="#191970" stroke="#191970" points="284.3464,-125.0624 273.7929,-125.997 282.6258,-131.8477 284.3464,-125.0624"/>
</g>
<!-- Node29&#45;&gt;Node36 -->
<g id="edge25" class="edge">
<title>Node29&#45;&gt;Node36</title>
<path fill="none" stroke="#191970" d="M645.6891,-170.5002C723.5822,-160.3483 928.2824,-133.6694 1006.2459,-123.5082"/>
<polygon fill="#191970" stroke="#191970" points="1006.9156,-126.9506 1016.3794,-122.1875 1006.0109,-120.0093 1006.9156,-126.9506"/>
</g>
<!-- Node37 -->
<g id="node21" class="node">
<title>Node37</title>
<polygon fill="#ffffff" stroke="#bfbfbf" points="291.6084,-110.5 291.6084,-128.5 330.3916,-128.5 330.3916,-110.5 291.6084,-110.5"/>
<text text-anchor="middle" x="311" y="-116.5" font-family="Helvetica,sans-Serif" font-size="10.00" fill="#000000">utility</text>
</g>
<!-- Node29&#45;&gt;Node37 -->
<g id="edge27" class="edge">
<title>Node29&#45;&gt;Node37</title>
<path fill="none" stroke="#191970" d="M584.4455,-171.1225C534.9405,-165.2944 434.0649,-151.9441 340.3775,-129.0263"/>
<polygon fill="#191970" stroke="#191970" points="341.0099,-125.577 330.4605,-126.5572 339.3186,-132.3696 341.0099,-125.577"/>
</g>
<!-- Node29&#45;&gt;Node38 -->
<g id="edge28" class="edge">
<title>Node29&#45;&gt;Node38</title>
<path fill="none" stroke="#191970" d="M645.7991,-172.2414C766.8745,-163.3625 1209.532,-130.901 1332.8931,-121.8545"/>
<polygon fill="#191970" stroke="#191970" points="1333.4553,-125.3228 1343.1725,-121.1007 1332.9433,-118.3415 1333.4553,-125.3228"/>
</g>
<!-- Node29&#45;&gt;Node39 -->
<g id="edge30" class="edge">
<title>Node29&#45;&gt;Node39</title>
<path fill="none" stroke="#191970" d="M584.4734,-171.0595C497.7522,-161.2856 250.3879,-133.4064 160.319,-123.2552"/>
<polygon fill="#191970" stroke="#191970" points="160.4652,-119.7496 150.1361,-122.1076 159.6812,-126.7056 160.4652,-119.7496"/>
</g>
<!-- Node39&#45;&gt;Node11 -->
<g id="edge32" class="edge">
<title>Node39&#45;&gt;Node11</title>
<path fill="none" stroke="#191970" d="M150.3683,-112.9145C154.8652,-111.8138 159.558,-110.7786 164,-110 326.9295,-81.4424 524.7324,-69.7302 603.362,-65.9764"/>
<polygon fill="#191970" stroke="#191970" points="603.8232,-69.4589 613.6501,-65.4987 603.4984,-62.4664 603.8232,-69.4589"/>
</g>
<!-- Node39&#45;&gt;Node13 -->
<g id="edge31" class="edge">
<title>Node39&#45;&gt;Node13</title>
<path fill="none" stroke="#191970" d="M150.3091,-113.5093C186.1876,-104.2882 255.4428,-86.489 299.88,-75.0682"/>
<polygon fill="#191970" stroke="#191970" points="300.9711,-78.4016 309.7851,-72.5225 299.2286,-71.622 300.9711,-78.4016"/>
</g>
<!-- Node39&#45;&gt;Node30 -->
<g id="edge33" class="edge">
<title>Node39&#45;&gt;Node30</title>
<path fill="none" stroke="#191970" d="M118.5784,-110.4179C111.2402,-102.5041 100.4098,-90.8243 91.5087,-81.2251"/>
<polygon fill="#191970" stroke="#191970" points="93.9705,-78.7324 84.6046,-73.7795 88.8376,-83.492 93.9705,-78.7324"/>
</g>
<!-- Node43 -->
<g id="node27" class="node">
<title>Node43</title>
<polygon fill="#ffffff" stroke="#bfbfbf" points="790.1333,-280.5 790.1333,-298.5 887.8667,-298.5 887.8667,-280.5 790.1333,-280.5"/>
<text text-anchor="middle" x="839" y="-286.5" font-family="Helvetica,sans-Serif" font-size="10.00" fill="#000000">boost/optional.hpp</text>
</g>
<!-- Node42&#45;&gt;Node43 -->
<g id="edge43" class="edge">
<title>Node42&#45;&gt;Node43</title>
<path fill="none" stroke="#191970" d="M844.9369,-340.3873C843.9604,-332.0174 842.4815,-319.3414 841.2441,-308.735"/>
<polygon fill="#191970" stroke="#191970" points="844.7085,-308.2255 840.0732,-298.6985 837.7556,-309.0367 844.7085,-308.2255"/>
</g>
<!-- Node44 -->
<g id="node28" class="node">
<title>Node44</title>
<polygon fill="#ffffff" stroke="#bfbfbf" points="725.9878,-280.5 725.9878,-298.5 772.0122,-298.5 772.0122,-280.5 725.9878,-280.5"/>
<text text-anchor="middle" x="749" y="-286.5" font-family="Helvetica,sans-Serif" font-size="10.00" fill="#000000">hash.h</text>
</g>
<!-- Node42&#45;&gt;Node44 -->
<g id="edge44" class="edge">
<title>Node42&#45;&gt;Node44</title>
<path fill="none" stroke="#191970" d="M831.2678,-340.3873C815.5805,-330.6838 790.5364,-315.1926 772.1968,-303.8486"/>
<polygon fill="#191970" stroke="#191970" points="773.8988,-300.7859 763.553,-298.5019 770.2164,-306.739 773.8988,-300.7859"/>
</g>
<!-- Node42&#45;&gt;Node45 -->
<g id="edge45" class="edge">
<title>Node42&#45;&gt;Node45</title>
<path fill="none" stroke="#191970" d="M880.9218,-348.4328C997.7137,-344.646 1373.9636,-330.6317 1492,-304 1494.4733,-303.442 1496.999,-302.7453 1499.5111,-301.9614"/>
<polygon fill="#191970" stroke="#191970" points="1500.7284,-305.2434 1508.9926,-298.6137 1498.3978,-298.6428 1500.7284,-305.2434"/>
</g>
<!-- Node58 -->
<g id="node37" class="node">
<title>Node58</title>
<g id="a_node37"><a xlink:href="interpreter_8h.html" target="_top" xlink:title="script/interpreter.h">
<polygon fill="#ffffff" stroke="#ff0000" points="1657.9805,-165.5 1657.9805,-183.5 1754.0195,-183.5 1754.0195,-165.5 1657.9805,-165.5"/>
<text text-anchor="middle" x="1706" y="-171.5" font-family="Helvetica,sans-Serif" font-size="10.00" fill="#000000">script/interpreter.h</text>
</a>
</g>
</g>
<!-- Node42&#45;&gt;Node58 -->
<g id="edge73" class="edge">
<title>Node42&#45;&gt;Node58</title>
<path fill="none" stroke="#191970" d="M880.9538,-348.6632C1016.4529,-345.233 1502.6798,-331.1291 1566,-304 1623.1203,-279.5272 1671.7367,-221.3309 1693.6156,-192.0146"/>
<polygon fill="#191970" stroke="#191970" points="1696.6941,-193.7331 1699.7565,-183.5905 1691.0375,-189.6096 1696.6941,-193.7331"/>
</g>
<!-- Node62 -->
<g id="node38" class="node">
<title>Node62</title>
<g id="a_node38"><a xlink:href="streams_8h.html" target="_top" xlink:title="streams.h">
<polygon fill="#ffffff" stroke="#ff0000" points="236.0493,-220.5 236.0493,-238.5 295.9507,-238.5 295.9507,-220.5 236.0493,-220.5"/>
<text text-anchor="middle" x="266" y="-226.5" font-family="Helvetica,sans-Serif" font-size="10.00" fill="#000000">streams.h</text>
</a>
</g>
</g>
<!-- Node42&#45;&gt;Node62 -->
<g id="edge77" class="edge">
<title>Node42&#45;&gt;Node62</title>
<path fill="none" stroke="#191970" d="M811.0246,-342.2637C709.2393,-321.2047 413.5946,-260.0368 305.8674,-237.7484"/>
<polygon fill="#191970" stroke="#191970" points="306.5434,-234.3142 296.0416,-235.7155 305.1251,-241.1691 306.5434,-234.3142"/>
</g>
<!-- Node45&#45;&gt;Node29 -->
<g id="edge69" class="edge">
<title>Node45&#45;&gt;Node29</title>
<path fill="none" stroke="#191970" d="M1508.9772,-280.4531C1503.565,-278.3414 1497.6419,-276.3249 1492,-275 1314.3517,-233.2839 1264.0231,-262.017 1083,-239 1032.0447,-232.5211 1019.8154,-227.4976 969,-220 855.8256,-203.3015 721.7728,-187.0236 655.8185,-179.2446"/>
<polygon fill="#191970" stroke="#191970" points="656.1719,-175.7621 645.8316,-178.0703 655.3544,-182.7142 656.1719,-175.7621"/>
</g>
<!-- Node45&#45;&gt;Node38 -->
<g id="edge72" class="edge">
<title>Node45&#45;&gt;Node38</title>
<path fill="none" stroke="#191970" d="M1543.3358,-280.2669C1574.7461,-258.934 1644.2722,-204.9906 1611,-165 1604.1584,-156.777 1462.126,-134.259 1397.0557,-124.3215"/>
<polygon fill="#191970" stroke="#191970" points="1397.3529,-120.8265 1386.9404,-122.7834 1396.3006,-127.747 1397.3529,-120.8265"/>
</g>
<!-- Node45&#45;&gt;Node41 -->
<g id="edge71" class="edge">
<title>Node45&#45;&gt;Node41</title>
<path fill="none" stroke="#191970" d="M1557.0213,-286.57C1625.8814,-278.4963 1807.5547,-251.8539 1942,-184 1966.2735,-171.7493 1989.852,-150.9872 2004.8352,-136.3329"/>
<polygon fill="#191970" stroke="#191970" points="2007.6481,-138.4684 2012.2246,-128.9129 2002.6881,-133.5288 2007.6481,-138.4684"/>
</g>
<!-- Node46 -->
<g id="node30" class="node">
<title>Node46</title>
<g id="a_node30"><a xlink:href="_hash_8h.html" target="_top" xlink:title="hash.h">
<polygon fill="#ffffff" stroke="#000000" points="1479.9878,-220.5 1479.9878,-238.5 1526.0122,-238.5 1526.0122,-220.5 1479.9878,-220.5"/>
<text text-anchor="middle" x="1503" y="-226.5" font-family="Helvetica,sans-Serif" font-size="10.00" fill="#000000">hash.h</text>
</a>
</g>
</g>
<!-- Node45&#45;&gt;Node46 -->
<g id="edge46" class="edge">
<title>Node45&#45;&gt;Node46</title>
<path fill="none" stroke="#191970" d="M1525.0512,-280.3873C1521.3479,-271.8412 1515.6991,-258.8057 1511.0461,-248.0679"/>
<polygon fill="#191970" stroke="#191970" points="1514.1736,-246.4824 1506.986,-238.6985 1507.7507,-249.2657 1514.1736,-246.4824"/>
</g>
<!-- Node55 -->
<g id="node34" class="node">
<title>Node55</title>
<g id="a_node34"><a xlink:href="uint256_8h.html" target="_top" xlink:title="uint256.h">
<polygon fill="#ffffff" stroke="#000000" points="1544.4263,-165.5 1544.4263,-183.5 1601.5737,-183.5 1601.5737,-165.5 1544.4263,-165.5"/>
<text text-anchor="middle" x="1573" y="-171.5" font-family="Helvetica,sans-Serif" font-size="10.00" fill="#000000">uint256.h</text>
</a>
</g>
</g>
<!-- Node45&#45;&gt;Node55 -->
<g id="edge70" class="edge">
<title>Node45&#45;&gt;Node55</title>
<path fill="none" stroke="#191970" d="M1532.4526,-280.4761C1539.6141,-261.7585 1556.2153,-218.3692 1565.8074,-193.2989"/>
<polygon fill="#191970" stroke="#191970" points="1569.1366,-194.3918 1569.4412,-183.8014 1562.5988,-191.8904 1569.1366,-194.3918"/>
</g>
<!-- Node46&#45;&gt;Node8 -->
<g id="edge57" class="edge">
<title>Node46&#45;&gt;Node8</title>
<path fill="none" stroke="#191970" d="M1495.0211,-220.3609C1481.503,-205.6104 1452.4803,-176.9978 1421,-165 1356.3085,-140.3448 875.4729,-124.87 727.9261,-120.6641"/>
<polygon fill="#191970" stroke="#191970" points="727.9838,-117.1644 717.889,-120.3808 727.7863,-124.1616 727.9838,-117.1644"/>
</g>
<!-- Node46&#45;&gt;Node29 -->
<g id="edge58" class="edge">
<title>Node46&#45;&gt;Node29</title>
<path fill="none" stroke="#191970" d="M1479.7046,-228.0572C1359.7303,-220.6263 811.178,-186.6507 656.0029,-177.0396"/>
<polygon fill="#191970" stroke="#191970" points="656.1368,-173.5413 645.9395,-176.4163 655.704,-180.5279 656.1368,-173.5413"/>
</g>
<!-- Node46&#45;&gt;Node38 -->
<g id="edge68" class="edge">
<title>Node46&#45;&gt;Node38</title>
<path fill="none" stroke="#191970" d="M1504.1041,-220.4184C1505.24,-206.7587 1505.2848,-180.8413 1492,-165 1485.6307,-157.4049 1432.1483,-139.9578 1396.6486,-129.01"/>
<polygon fill="#191970" stroke="#191970" points="1397.3105,-125.5524 1386.7241,-125.9736 1395.2626,-132.2461 1397.3105,-125.5524"/>
</g>
<!-- Node47 -->
<g id="node31" class="node">
<title>Node47</title>
<g id="a_node31"><a xlink:href="ripemd160_8h.html" target="_top" xlink:title="crypto/ripemd160.h">
<polygon fill="#ffffff" stroke="#000000" points="1651.1997,-110.5 1651.1997,-128.5 1752.8003,-128.5 1752.8003,-110.5 1651.1997,-110.5"/>
<text text-anchor="middle" x="1702" y="-116.5" font-family="Helvetica,sans-Serif" font-size="10.00" fill="#000000">crypto/ripemd160.h</text>
</a>
</g>
</g>
<!-- Node46&#45;&gt;Node47 -->
<g id="edge47" class="edge">
<title>Node46&#45;&gt;Node47</title>
<path fill="none" stroke="#191970" d="M1526.215,-227.738C1610.2309,-221.2522 1894.1834,-198.3411 1907,-184 1912.6271,-177.7036 1912.2848,-171.5863 1907,-165 1889.2098,-142.8283 1817.0196,-130.7847 1763.3097,-124.7574"/>
<polygon fill="#191970" stroke="#191970" points="1763.4922,-121.2569 1753.1749,-123.6659 1762.7426,-128.2166 1763.4922,-121.2569"/>
</g>
<!-- Node48 -->
<g id="node32" class="node">
<title>Node48</title>
<g id="a_node32"><a xlink:href="sha256_8h.html" target="_top" xlink:title="crypto/sha256.h">
<polygon fill="#ffffff" stroke="#000000" points="1810.4214,-165.5 1810.4214,-183.5 1897.5786,-183.5 1897.5786,-165.5 1810.4214,-165.5"/>
<text text-anchor="middle" x="1854" y="-171.5" font-family="Helvetica,sans-Serif" font-size="10.00" fill="#000000">crypto/sha256.h</text>
</a>
</g>
</g>
<!-- Node46&#45;&gt;Node48 -->
<g id="edge50" class="edge">
<title>Node46&#45;&gt;Node48</title>
<path fill="none" stroke="#191970" d="M1526.1798,-225.9672C1575.7245,-218.4016 1695.6011,-200.0175 1796,-184 1797.4485,-183.7689 1798.9171,-183.5338 1800.3992,-183.2959"/>
<polygon fill="#191970" stroke="#191970" points="1800.9876,-186.7463 1810.302,-181.6972 1799.872,-179.8358 1800.9876,-186.7463"/>
</g>
<!-- Node49 -->
<g id="node33" class="node">
<title>Node49</title>
<g id="a_node33"><a xlink:href="_s_h_a3_8h.html" target="_top" xlink:title="crypto/sha3.h">
<polygon fill="#ffffff" stroke="#ff0000" points="1480.9829,-110.5 1480.9829,-128.5 1557.0171,-128.5 1557.0171,-110.5 1480.9829,-110.5"/>
<text text-anchor="middle" x="1519" y="-116.5" font-family="Helvetica,sans-Serif" font-size="10.00" fill="#000000">crypto/sha3.h</text>
</a>
</g>
</g>
<!-- Node46&#45;&gt;Node49 -->
<g id="edge54" class="edge">
<title>Node46&#45;&gt;Node49</title>
<path fill="none" stroke="#191970" d="M1526.2477,-229.0839C1584.236,-227.5055 1732.7848,-219.962 1763,-184 1768.4321,-177.5347 1768.3961,-171.4954 1763,-165 1762.6063,-164.5261 1638.0911,-141.4792 1567.1105,-128.3737"/>
<polygon fill="#191970" stroke="#191970" points="1567.5168,-124.8897 1557.0476,-126.5162 1566.246,-131.7734 1567.5168,-124.8897"/>
</g>
<!-- Node46&#45;&gt;Node55 -->
<g id="edge59" class="edge">
<title>Node46&#45;&gt;Node55</title>
<path fill="none" stroke="#191970" d="M1514.5591,-220.4179C1525.034,-212.1876 1540.6932,-199.8839 1553.1664,-190.0836"/>
<polygon fill="#191970" stroke="#191970" points="1555.489,-192.7098 1561.1898,-183.7795 1551.1642,-187.2056 1555.489,-192.7098"/>
</g>
<!-- Node57 -->
<g id="node36" class="node">
<title>Node57</title>
<g id="a_node36"><a xlink:href="version_8h.html" target="_top" xlink:title="version.h">
<polygon fill="#ffffff" stroke="#000000" points="1355.7119,-165.5 1355.7119,-183.5 1412.2881,-183.5 1412.2881,-165.5 1355.7119,-165.5"/>
<text text-anchor="middle" x="1384" y="-171.5" font-family="Helvetica,sans-Serif" font-size="10.00" fill="#000000">version.h</text>
</a>
</g>
</g>
<!-- Node46&#45;&gt;Node57 -->
<g id="edge67" class="edge">
<title>Node46&#45;&gt;Node57</title>
<path fill="none" stroke="#191970" d="M1483.3496,-220.4179C1464.143,-211.5409 1434.6837,-197.9253 1412.826,-187.823"/>
<polygon fill="#191970" stroke="#191970" points="1414.2254,-184.614 1403.6796,-183.5956 1411.2886,-190.9682 1414.2254,-184.614"/>
</g>
<!-- Node47&#45;&gt;Node4 -->
<g id="edge48" class="edge">
<title>Node47&#45;&gt;Node4</title>
<path fill="none" stroke="#191970" d="M1695.6963,-110.1274C1685.3441,-95.5827 1663.2488,-67.91 1637,-55 1583.619,-28.7455 1406.8388,-15.8001 1331.0245,-11.3482"/>
<polygon fill="#191970" stroke="#191970" points="1330.7815,-7.8287 1320.5981,-10.7524 1330.3821,-14.8173 1330.7815,-7.8287"/>
</g>
<!-- Node47&#45;&gt;Node10 -->
<g id="edge49" class="edge">
<title>Node47&#45;&gt;Node10</title>
<path fill="none" stroke="#191970" d="M1679.2121,-110.4179C1656.6393,-101.4215 1621.8548,-87.5581 1596.4103,-77.4172"/>
<polygon fill="#191970" stroke="#191970" points="1597.407,-74.0467 1586.8217,-73.5956 1594.8153,-80.5493 1597.407,-74.0467"/>
</g>
<!-- Node48&#45;&gt;Node4 -->
<g id="edge51" class="edge">
<title>Node48&#45;&gt;Node4</title>
<path fill="none" stroke="#191970" d="M1809.9651,-169.2018C1756.0261,-162.0114 1668.5405,-147.8645 1642,-129 1610.6254,-106.6995 1629.0442,-76.3271 1597,-55 1553.7913,-26.2423 1399.6944,-14.8286 1330.3042,-11.0735"/>
<polygon fill="#191970" stroke="#191970" points="1330.4821,-7.5781 1320.314,-10.5544 1330.1188,-14.5687 1330.4821,-7.5781"/>
</g>
<!-- Node48&#45;&gt;Node10 -->
<g id="edge52" class="edge">
<title>Node48&#45;&gt;Node10</title>
<path fill="none" stroke="#191970" d="M1810.1935,-168.2066C1744.3284,-158.4687 1625.6805,-139.7536 1609,-129 1591.8437,-117.9396 1579.3787,-97.8005 1571.9767,-82.9583"/>
<polygon fill="#191970" stroke="#191970" points="1575.0616,-81.292 1567.6656,-73.7059 1568.7166,-84.2485 1575.0616,-81.292"/>
</g>
<!-- Node48&#45;&gt;Node36 -->
<g id="edge53" class="edge">
<title>Node48&#45;&gt;Node36</title>
<path fill="none" stroke="#191970" d="M1810.071,-169.4449C1795.1464,-167.8524 1778.3613,-166.1983 1763,-165 1457.5085,-141.1698 1373.5845,-183.2808 1067.5318,-128.5616"/>
<polygon fill="#191970" stroke="#191970" points="1067.9457,-125.0798 1057.4825,-126.7446 1066.7002,-131.9681 1067.9457,-125.0798"/>
</g>
<!-- Node49&#45;&gt;Node4 -->
<g id="edge55" class="edge">
<title>Node49&#45;&gt;Node4</title>
<path fill="none" stroke="#191970" d="M1514.2405,-110.4855C1506.3471,-96.4316 1489.1934,-69.4192 1467,-55 1424.9138,-27.6562 1366.9015,-16.682 1330.4308,-12.3203"/>
<polygon fill="#191970" stroke="#191970" points="1330.6173,-8.8199 1320.2962,-11.2125 1329.8566,-15.7785 1330.6173,-8.8199"/>
</g>
<!-- Node49&#45;&gt;Node10 -->
<g id="edge56" class="edge">
<title>Node49&#45;&gt;Node10</title>
<path fill="none" stroke="#191970" d="M1526.4308,-110.4179C1532.7762,-102.6624 1542.0809,-91.29 1549.8426,-81.8035"/>
<polygon fill="#191970" stroke="#191970" points="1552.7842,-83.7354 1556.4077,-73.7795 1547.3664,-79.3027 1552.7842,-83.7354"/>
</g>
<!-- Node55&#45;&gt;Node3 -->
<g id="edge66" class="edge">
<title>Node55&#45;&gt;Node3</title>
<path fill="none" stroke="#191970" d="M1544.1018,-170.9758C1470.6643,-162.02 1275.8366,-138.2606 1178.7059,-126.4153"/>
<polygon fill="#191970" stroke="#191970" points="1178.8382,-122.9056 1168.4881,-125.1693 1177.9908,-129.8542 1178.8382,-122.9056"/>
</g>
<!-- Node55&#45;&gt;Node4 -->
<g id="edge63" class="edge">
<title>Node55&#45;&gt;Node4</title>
<path fill="none" stroke="#191970" d="M1601.8332,-169.568C1652.2521,-160.6563 1752.053,-141.6258 1762,-129 1767.2258,-122.3668 1766.2667,-117.2873 1762,-110 1717.9209,-34.7153 1430.4149,-15.2701 1330.3036,-10.7513"/>
<polygon fill="#191970" stroke="#191970" points="1330.2683,-7.2467 1320.1275,-10.3148 1329.9683,-14.2402 1330.2683,-7.2467"/>
</g>
<!-- Node55&#45;&gt;Node9 -->
<g id="edge60" class="edge">
<title>Node55&#45;&gt;Node9</title>
<path fill="none" stroke="#191970" d="M1544.2425,-165.5514C1516.9262,-156.8599 1474.8239,-142.9649 1439,-129 1419.5332,-121.4114 1416.2603,-115.1052 1396,-110 1291.2006,-83.5925 958.2405,-69.7027 847.3349,-65.7216"/>
<polygon fill="#191970" stroke="#191970" points="847.1282,-62.2122 837.0108,-65.3568 846.8809,-69.2079 847.1282,-62.2122"/>
</g>
<!-- Node55&#45;&gt;Node36 -->
<g id="edge64" class="edge">
<title>Node55&#45;&gt;Node36</title>
<path fill="none" stroke="#191970" d="M1544.1588,-170.8885C1528.7031,-169.0109 1509.3273,-166.7495 1492,-165 1306.6169,-146.2822 1254.7154,-165.1729 1067.3949,-128.6108"/>
<polygon fill="#191970" stroke="#191970" points="1067.9891,-125.1606 1057.4999,-126.6529 1066.6303,-132.0274 1067.9891,-125.1606"/>
</g>
<!-- Node55&#45;&gt;Node38 -->
<g id="edge65" class="edge">
<title>Node55&#45;&gt;Node38</title>
<path fill="none" stroke="#191970" d="M1544.0785,-166.8525C1505.2626,-156.5887 1436.5695,-138.4246 1396.4863,-127.8257"/>
<polygon fill="#191970" stroke="#191970" points="1397.2701,-124.4127 1386.7076,-125.24 1395.4806,-131.1801 1397.2701,-124.4127"/>
</g>
<!-- Node55&#45;&gt;Node41 -->
<g id="edge62" class="edge">
<title>Node55&#45;&gt;Node41</title>
<path fill="none" stroke="#191970" d="M1601.8689,-170.8731C1616.0642,-169.0944 1633.428,-166.9256 1649,-165 1770.0551,-150.0308 1913.3051,-132.5853 1981.3243,-124.3178"/>
<polygon fill="#191970" stroke="#191970" points="1982.0754,-127.7524 1991.5801,-123.0716 1981.2309,-120.8035 1982.0754,-127.7524"/>
</g>
<!-- Node56 -->
<g id="node35" class="node">
<title>Node56</title>
<polygon fill="#ffffff" stroke="#bfbfbf" points="1809.2734,-110.5 1809.2734,-128.5 1854.7266,-128.5 1854.7266,-110.5 1809.2734,-110.5"/>
<text text-anchor="middle" x="1832" y="-116.5" font-family="Helvetica,sans-Serif" font-size="10.00" fill="#000000">cstring</text>
</g>
<!-- Node55&#45;&gt;Node56 -->
<g id="edge61" class="edge">
<title>Node55&#45;&gt;Node56</title>
<path fill="none" stroke="#191970" d="M1601.8354,-169.0599C1644.2752,-160.947 1725.9955,-144.9199 1795,-129 1796.2722,-128.7065 1797.5676,-128.4019 1798.8751,-128.0898"/>
<polygon fill="#191970" stroke="#191970" points="1800.0793,-131.3977 1808.9502,-125.6048 1798.403,-124.6014 1800.0793,-131.3977"/>
</g>
<!-- Node58&#45;&gt;Node4 -->
<g id="edge75" class="edge">
<title>Node58&#45;&gt;Node4</title>
<path fill="none" stroke="#191970" d="M1657.8203,-167.4733C1599.4709,-158.5576 1504.909,-142.6917 1472,-129 1408.4148,-102.5456 1344.0816,-51.228 1313.8257,-25.3032"/>
<polygon fill="#191970" stroke="#191970" points="1316.071,-22.6176 1306.2246,-18.7062 1311.4828,-27.9042 1316.071,-22.6176"/>
</g>
<!-- Node58&#45;&gt;Node36 -->
<g id="edge76" class="edge">
<title>Node58&#45;&gt;Node36</title>
<path fill="none" stroke="#191970" d="M1657.6998,-169.3531C1642.7404,-167.8443 1626.197,-166.2623 1611,-165 1372.8264,-145.2162 1306.9047,-173.117 1067.5444,-128.5977"/>
<polygon fill="#191970" stroke="#191970" points="1067.965,-125.1154 1057.4899,-126.7043 1066.6695,-131.9945 1067.965,-125.1154"/>
</g>
<!-- Node58&#45;&gt;Node38 -->
<g id="edge74" class="edge">
<title>Node58&#45;&gt;Node38</title>
<path fill="none" stroke="#191970" d="M1657.8663,-166.7365C1587.0319,-155.3116 1456.6419,-134.281 1396.6823,-124.61"/>
<polygon fill="#191970" stroke="#191970" points="1397.1017,-121.1325 1386.6719,-122.9955 1395.987,-128.0432 1397.1017,-121.1325"/>
</g>
<!-- Node62&#45;&gt;Node4 -->
<g id="edge85" class="edge">
<title>Node62&#45;&gt;Node4</title>
<path fill="none" stroke="#191970" d="M235.8909,-221.5514C156.1211,-199.1933 -49.6042,-132.3227 25,-55 47.0873,-32.1078 1059.8822,-13.5512 1261.3604,-10.0826"/>
<polygon fill="#191970" stroke="#191970" points="1261.7076,-13.5773 1271.6462,-9.9066 1261.5877,-6.5783 1261.7076,-13.5773"/>
</g>
<!-- Node62&#45;&gt;Node5 -->
<g id="edge87" class="edge">
<title>Node62&#45;&gt;Node5</title>
<path fill="none" stroke="#191970" d="M235.7543,-227.1989C188.3618,-222.2648 104.4149,-207.4193 129,-165 153.6574,-122.456 178.0292,-124.5506 225,-110 411.8074,-52.1308 473.1861,-107.0328 670.1521,-73.7701"/>
<polygon fill="#191970" stroke="#191970" points="670.9952,-77.1759 680.2447,-72.0091 669.7919,-70.2801 670.9952,-77.1759"/>
</g>
<!-- Node62&#45;&gt;Node9 -->
<g id="edge80" class="edge">
<title>Node62&#45;&gt;Node9</title>
<path fill="none" stroke="#191970" d="M296.2241,-227.4899C375.5351,-221.9731 588.0985,-205.5609 655,-184 702.9077,-168.5604 714.769,-160.5351 754,-129 771.1982,-115.1756 787.5198,-95.8408 798.2545,-81.9513"/>
<polygon fill="#191970" stroke="#191970" points="801.2321,-83.8156 804.4551,-73.7229 795.6417,-79.6029 801.2321,-83.8156"/>
</g>
<!-- Node62&#45;&gt;Node29 -->
<g id="edge78" class="edge">
<title>Node62&#45;&gt;Node29</title>
<path fill="none" stroke="#191970" d="M296.0576,-224.7631C358.7788,-214.8787 503.6397,-192.0496 574.4944,-180.8834"/>
<polygon fill="#191970" stroke="#191970" points="575.0596,-184.3376 584.3929,-179.3235 573.9699,-177.4229 575.0596,-184.3376"/>
</g>
<!-- Node62&#45;&gt;Node30 -->
<g id="edge79" class="edge">
<title>Node62&#45;&gt;Node30</title>
<path fill="none" stroke="#191970" d="M235.8012,-227.2798C184.418,-222.8057 83.4465,-210.7569 62,-184 38.703,-154.9344 54.6565,-108.3761 66.4819,-82.7996"/>
<polygon fill="#191970" stroke="#191970" points="69.6271,-84.3349 70.8714,-73.8134 63.3374,-81.2625 69.6271,-84.3349"/>
</g>
<!-- Node62&#45;&gt;Node31 -->
<g id="edge81" class="edge">
<title>Node62&#45;&gt;Node31</title>
<path fill="none" stroke="#191970" d="M259.9928,-220.35C252.0989,-207.0578 240.5095,-182.1284 252,-165 252.6473,-164.0351 306.3766,-142.2871 338.8356,-129.213"/>
<polygon fill="#191970" stroke="#191970" points="340.1739,-132.4473 348.1439,-125.4667 337.5602,-125.9535 340.1739,-132.4473"/>
</g>
<!-- Node62&#45;&gt;Node32 -->
<g id="edge82" class="edge">
<title>Node62&#45;&gt;Node32</title>
<path fill="none" stroke="#191970" d="M266.9887,-220.2881C268.9486,-206.458 274.569,-180.3214 290,-165 293.5671,-161.4582 350.1141,-141.6836 385.9177,-129.3976"/>
<polygon fill="#191970" stroke="#191970" points="387.0769,-132.7003 395.4048,-126.1507 384.8102,-126.0774 387.0769,-132.7003"/>
</g>
<!-- Node62&#45;&gt;Node33 -->
<g id="edge83" class="edge">
<title>Node62&#45;&gt;Node33</title>
<path fill="none" stroke="#191970" d="M272.5213,-220.1771C282.767,-206.202 303.9634,-179.8786 328,-165 370.9593,-138.4084 389.9786,-144.9816 442.2363,-129.0495"/>
<polygon fill="#191970" stroke="#191970" points="443.56,-132.301 452.021,-125.9243 441.4301,-125.6328 443.56,-132.301"/>
</g>
<!-- Node62&#45;&gt;Node35 -->
<g id="edge84" class="edge">
<title>Node62&#45;&gt;Node35</title>
<path fill="none" stroke="#191970" d="M235.9822,-223.0194C201.9029,-214.9821 149.5261,-200.3298 138,-184 111.8043,-146.8868 191.8965,-129.2639 234.3736,-122.6964"/>
<polygon fill="#191970" stroke="#191970" points="234.8811,-126.1595 244.2749,-121.2598 233.8759,-119.2321 234.8811,-126.1595"/>
</g>
<!-- Node62&#45;&gt;Node36 -->
<g id="edge86" class="edge">
<title>Node62&#45;&gt;Node36</title>
<path fill="none" stroke="#191970" d="M296.0735,-228.0521C369.8097,-224.1714 565.291,-211.8823 726,-184 760.3049,-178.0483 768.0076,-172.5341 802,-165 875.0552,-148.808 961.6034,-132.8835 1006.52,-124.8611"/>
<polygon fill="#191970" stroke="#191970" points="1007.2589,-128.2847 1016.4916,-123.0879 1006.0333,-121.3928 1007.2589,-128.2847"/>
</g>
<!-- Node62&#45;&gt;Node37 -->
<g id="edge88" class="edge">
<title>Node62&#45;&gt;Node37</title>
<path fill="none" stroke="#191970" d="M235.8969,-221.5381C202.8748,-211.2732 156.9291,-191.5378 176,-165 203.5651,-126.6423 231.9308,-142.8337 281.8446,-129.0857"/>
<polygon fill="#191970" stroke="#191970" points="282.885,-132.4276 291.42,-126.1503 280.8333,-125.735 282.885,-132.4276"/>
</g>
<!-- Node62&#45;&gt;Node38 -->
<g id="edge89" class="edge">
<title>Node62&#45;&gt;Node38</title>
<path fill="none" stroke="#191970" d="M296.0249,-228.727C438.0442,-224.9595 1038.8351,-207.7344 1119,-184 1135.2276,-179.1955 1136.1996,-171.0636 1152,-165 1213.8357,-141.27 1290.7677,-128.7122 1333.1907,-123.1473"/>
<polygon fill="#191970" stroke="#191970" points="1333.7209,-126.6082 1343.2025,-121.8806 1332.8422,-119.6635 1333.7209,-126.6082"/>
</g>
<!-- Node66&#45;&gt;Node36 -->
<g id="edge127" class="edge">
<title>Node66&#45;&gt;Node36</title>
<path fill="none" stroke="#191970" d="M1468.3576,-400.5508C1387.6029,-388.1923 1147.1659,-348.4227 1083,-304 1029.0516,-266.651 1017.0735,-246.4695 997,-184 994.4166,-175.9604 994.0207,-172.9014 997,-165 1001.2304,-153.7808 1009.6252,-143.5309 1017.6366,-135.6118"/>
<polygon fill="#191970" stroke="#191970" points="1020.3581,-137.8643 1025.3518,-128.5201 1015.6209,-132.7106 1020.3581,-137.8643"/>
</g>
<!-- Node66&#45;&gt;Node45 -->
<g id="edge121" class="edge">
<title>Node66&#45;&gt;Node45</title>
<path fill="none" stroke="#191970" d="M1497.6679,-395.4761C1503.1771,-376.842 1515.9156,-333.7561 1523.3425,-308.6357"/>
<polygon fill="#191970" stroke="#191970" points="1526.7711,-309.3834 1526.25,-298.8014 1520.0584,-307.3987 1526.7711,-309.3834"/>
</g>
<!-- Node67 -->
<g id="node40" class="node">
<title>Node67</title>
<g id="a_node40"><a xlink:href="chainparams_8h.html" target="_top" xlink:title="chainparams.h">
<polygon fill="#ffffff" stroke="#000000" points="1092.2046,-280.5 1092.2046,-298.5 1173.7954,-298.5 1173.7954,-280.5 1092.2046,-280.5"/>
<text text-anchor="middle" x="1133" y="-286.5" font-family="Helvetica,sans-Serif" font-size="10.00" fill="#000000">chainparams.h</text>
</a>
</g>
</g>
<!-- Node66&#45;&gt;Node67 -->
<g id="edge92" class="edge">
<title>Node66&#45;&gt;Node67</title>
<path fill="none" stroke="#191970" d="M1468.0869,-395.9503C1404.4715,-375.7409 1244.6616,-324.9726 1171.12,-301.61"/>
<polygon fill="#191970" stroke="#191970" points="1171.9249,-298.1933 1161.3345,-298.5013 1169.8054,-304.8648 1171.9249,-298.1933"/>
</g>
<!-- Node74 -->
<g id="node45" class="node">
<title>Node74</title>
<g id="a_node45"><a xlink:href="key_8h.html" target="_top" xlink:title="key.h">
<polygon fill="#ffffff" stroke="#000000" points="1533.418,-340.5 1533.418,-358.5 1572.582,-358.5 1572.582,-340.5 1533.418,-340.5"/>
<text text-anchor="middle" x="1553" y="-346.5" font-family="Helvetica,sans-Serif" font-size="10.00" fill="#000000">key.h</text>
</a>
</g>
</g>
<!-- Node66&#45;&gt;Node74 -->
<g id="edge113" class="edge">
<title>Node66&#45;&gt;Node74</title>
<path fill="none" stroke="#191970" d="M1504.5775,-395.4179C1513.0064,-387.425 1525.4866,-375.5903 1535.6656,-365.9377"/>
<polygon fill="#191970" stroke="#191970" points="1538.3665,-368.2001 1543.2144,-358.7795 1533.5498,-363.1207 1538.3665,-368.2001"/>
</g>
<!-- Node66&#45;&gt;Node80 -->
<g id="edge122" class="edge">
<title>Node66&#45;&gt;Node80</title>
<path fill="none" stroke="#191970" d="M1521.7089,-401.3801C1597.116,-392.0896 1817.4973,-361.6055 1992,-304 2041.1069,-287.7892 2094.9511,-260.3487 2125.6905,-243.6798"/>
<polygon fill="#191970" stroke="#191970" points="2127.7365,-246.5497 2134.8237,-238.6742 2124.3722,-240.4112 2127.7365,-246.5497"/>
</g>
<!-- Node67&#45;&gt;Node34 -->
<g id="edge111" class="edge">
<title>Node67&#45;&gt;Node34</title>
<path fill="none" stroke="#191970" d="M1091.7981,-286.5094C948.3926,-275.6697 477.6126,-236.3097 437,-184 431.8214,-177.3299 432.4997,-172.1453 437,-165 443.8954,-154.052 472.1935,-141.3053 496.1269,-132.0933"/>
<polygon fill="#191970" stroke="#191970" points="497.5697,-135.2903 505.7034,-128.5009 495.1111,-128.7362 497.5697,-135.2903"/>
</g>
<!-- Node67&#45;&gt;Node38 -->
<g id="edge112" class="edge">
<title>Node67&#45;&gt;Node38</title>
<path fill="none" stroke="#191970" d="M1173.8963,-280.8701C1202.9752,-273.2957 1241.8815,-260.1212 1271,-239 1309.4611,-211.1022 1340.3093,-163.355 1355.235,-137.465"/>
<polygon fill="#191970" stroke="#191970" points="1358.3128,-139.1325 1360.1586,-128.6996 1352.2096,-135.7043 1358.3128,-139.1325"/>
</g>
<!-- Node68 -->
<g id="node41" class="node">
<title>Node68</title>
<g id="a_node41"><a xlink:href="chainparamsbase_8h.html" target="_top" xlink:title="chainparamsbase.h">
<polygon fill="#ffffff" stroke="#000000" points="1006.3623,-165.5 1006.3623,-183.5 1109.6377,-183.5 1109.6377,-165.5 1006.3623,-165.5"/>
<text text-anchor="middle" x="1058" y="-171.5" font-family="Helvetica,sans-Serif" font-size="10.00" fill="#000000">chainparamsbase.h</text>
</a>
</g>
</g>
<!-- Node67&#45;&gt;Node68 -->
<g id="edge93" class="edge">
<title>Node67&#45;&gt;Node68</title>
<path fill="none" stroke="#191970" d="M1121.2895,-280.1559C1110.1638,-270.7604 1093.6028,-255.3578 1083,-239 1073.9161,-224.9856 1067.3242,-207.1641 1063.1974,-193.8071"/>
<polygon fill="#191970" stroke="#191970" points="1066.4495,-192.4534 1060.3101,-183.8187 1059.7248,-194.3974 1066.4495,-192.4534"/>
</g>
<!-- Node69 -->
<g id="node42" class="node">
<title>Node69</title>
<g id="a_node42"><a xlink:href="params_8h.html" target="_top" xlink:title="consensus/params.h">
<polygon fill="#ffffff" stroke="#000000" points="851.8647,-220.5 851.8647,-238.5 960.1353,-238.5 960.1353,-220.5 851.8647,-220.5"/>
<text text-anchor="middle" x="906" y="-226.5" font-family="Helvetica,sans-Serif" font-size="10.00" fill="#000000">consensus/params.h</text>
</a>
</g>
</g>
<!-- Node67&#45;&gt;Node69 -->
<g id="edge97" class="edge">
<title>Node67&#45;&gt;Node69</title>
<path fill="none" stroke="#191970" d="M1098.5236,-280.3873C1058.711,-269.8641 993.1456,-252.5341 949.7674,-241.0685"/>
<polygon fill="#191970" stroke="#191970" points="950.6195,-237.6736 940.0571,-238.5019 948.8307,-244.4412 950.6195,-237.6736"/>
</g>
<!-- Node70 -->
<g id="node43" class="node">
<title>Node70</title>
<g id="a_node43"><a xlink:href="block_8h.html" target="_top" xlink:title="primitives/block.h">
<polygon fill="#ffffff" stroke="#ff0000" points="1169.6553,-220.5 1169.6553,-238.5 1262.3447,-238.5 1262.3447,-220.5 1169.6553,-220.5"/>
<text text-anchor="middle" x="1216" y="-226.5" font-family="Helvetica,sans-Serif" font-size="10.00" fill="#000000">primitives/block.h</text>
</a>
</g>
</g>
<!-- Node67&#45;&gt;Node70 -->
<g id="edge102" class="edge">
<title>Node67&#45;&gt;Node70</title>
<path fill="none" stroke="#191970" d="M1145.6059,-280.3873C1158.7226,-270.9054 1179.4842,-255.897 1195.0675,-244.6319"/>
<polygon fill="#191970" stroke="#191970" points="1197.4937,-247.1969 1203.5474,-238.5019 1193.3927,-241.5239 1197.4937,-247.1969"/>
</g>
<!-- Node71 -->
<g id="node44" class="node">
<title>Node71</title>
<g id="a_node44"><a xlink:href="protocol_8h.html" target="_top" xlink:title="protocol.h">
<polygon fill="#ffffff" stroke="#ff0000" points="1092.042,-220.5 1092.042,-238.5 1151.958,-238.5 1151.958,-220.5 1092.042,-220.5"/>
<text text-anchor="middle" x="1122" y="-226.5" font-family="Helvetica,sans-Serif" font-size="10.00" fill="#000000">protocol.h</text>
</a>
</g>
</g>
<!-- Node67&#45;&gt;Node71 -->
<g id="edge105" class="edge">
<title>Node67&#45;&gt;Node71</title>
<path fill="none" stroke="#191970" d="M1131.3293,-280.3873C1129.7949,-272.0174 1127.4709,-259.3414 1125.5264,-248.735"/>
<polygon fill="#191970" stroke="#191970" points="1128.9324,-247.9034 1123.6864,-238.6985 1122.0471,-249.1657 1128.9324,-247.9034"/>
</g>
<!-- Node68&#45;&gt;Node34 -->
<g id="edge94" class="edge">
<title>Node68&#45;&gt;Node34</title>
<path fill="none" stroke="#191970" d="M1006.1256,-169.0759C899.9187,-157.9706 660.0153,-132.8856 568.452,-123.3115"/>
<polygon fill="#191970" stroke="#191970" points="568.6009,-119.8081 558.2911,-122.2491 567.8729,-126.7701 568.6009,-119.8081"/>
</g>
<!-- Node68&#45;&gt;Node36 -->
<g id="edge95" class="edge">
<title>Node68&#45;&gt;Node36</title>
<path fill="none" stroke="#191970" d="M1054.5323,-165.4179C1051.7222,-158.0581 1047.6684,-147.441 1044.1665,-138.2695"/>
<polygon fill="#191970" stroke="#191970" points="1047.3799,-136.8732 1040.5431,-128.7795 1040.8404,-139.3701 1047.3799,-136.8732"/>
</g>
<!-- Node68&#45;&gt;Node38 -->
<g id="edge96" class="edge">
<title>Node68&#45;&gt;Node38</title>
<path fill="none" stroke="#191970" d="M1108.351,-165.4795C1172.1414,-154.0512 1280.1661,-134.6983 1333.4089,-125.1596"/>
<polygon fill="#191970" stroke="#191970" points="1334.0716,-128.5967 1343.2977,-123.388 1332.8372,-121.7064 1334.0716,-128.5967"/>
</g>
<!-- Node69&#45;&gt;Node32 -->
<g id="edge99" class="edge">
<title>Node69&#45;&gt;Node32</title>
<path fill="none" stroke="#191970" d="M851.7812,-225.5802C762.8368,-218.7029 590.0196,-203.3387 532,-184 515.9444,-178.6485 513.7751,-173.2532 499,-165 479.7547,-154.2498 457.8502,-142.3974 441.2356,-133.4851"/>
<polygon fill="#191970" stroke="#191970" points="442.5927,-130.2417 432.1245,-128.608 439.2891,-136.4131 442.5927,-130.2417"/>
</g>
<!-- Node69&#45;&gt;Node33 -->
<g id="edge100" class="edge">
<title>Node69&#45;&gt;Node33</title>
<path fill="none" stroke="#191970" d="M851.8061,-224.7823C771.4315,-217.3238 624.7657,-201.8132 575,-184 542.5401,-172.3813 509.3388,-149.831 489.1924,-134.7162"/>
<polygon fill="#191970" stroke="#191970" points="491.2172,-131.8584 481.1508,-128.5541 486.9595,-137.4147 491.2172,-131.8584"/>
</g>
<!-- Node69&#45;&gt;Node36 -->
<g id="edge101" class="edge">
<title>Node69&#45;&gt;Node36</title>
<path fill="none" stroke="#191970" d="M912.8088,-220.4269C922.9938,-207.2303 943.2306,-182.419 964,-165 978.361,-152.9556 996.1869,-141.7848 1010.6284,-133.5259"/>
<polygon fill="#191970" stroke="#191970" points="1012.5345,-136.4703 1019.5594,-128.5392 1009.1219,-130.3584 1012.5345,-136.4703"/>
</g>
<!-- Node69&#45;&gt;Node55 -->
<g id="edge98" class="edge">
<title>Node69&#45;&gt;Node55</title>
<path fill="none" stroke="#191970" d="M960.3006,-225.0224C1091.0535,-214.2407 1420.9241,-187.04 1534.146,-177.7039"/>
<polygon fill="#191970" stroke="#191970" points="1534.7341,-181.1673 1544.4126,-176.8573 1534.1588,-174.191 1534.7341,-181.1673"/>
</g>
<!-- Node70&#45;&gt;Node29 -->
<g id="edge103" class="edge">
<title>Node70&#45;&gt;Node29</title>
<path fill="none" stroke="#191970" d="M1169.5325,-221.1783C1166.6491,-220.7536 1163.7874,-220.3562 1161,-220 972.9008,-195.9649 746.6497,-181.7712 655.7365,-176.6668"/>
<polygon fill="#191970" stroke="#191970" points="655.7637,-173.163 645.585,-176.1032 655.3756,-180.1523 655.7637,-173.163"/>
</g>
<!-- Node70&#45;&gt;Node55 -->
<g id="edge104" class="edge">
<title>Node70&#45;&gt;Node55</title>
<path fill="none" stroke="#191970" d="M1262.6715,-222.3097C1333.8951,-211.3369 1468.3861,-190.617 1534.4298,-180.4422"/>
<polygon fill="#191970" stroke="#191970" points="1535.0711,-183.8848 1544.4215,-178.9028 1534.0052,-176.9664 1535.0711,-183.8848"/>
</g>
<!-- Node71&#45;&gt;Node4 -->
<g id="edge109" class="edge">
<title>Node71&#45;&gt;Node4</title>
<path fill="none" stroke="#191970" d="M1129.255,-220.327C1155.7309,-186.8517 1247.4171,-70.9266 1282.3435,-26.7669"/>
<polygon fill="#191970" stroke="#191970" points="1285.2558,-28.7268 1288.714,-18.7122 1279.7654,-24.3844 1285.2558,-28.7268"/>
</g>
<!-- Node71&#45;&gt;Node29 -->
<g id="edge106" class="edge">
<title>Node71&#45;&gt;Node29</title>
<path fill="none" stroke="#191970" d="M1091.8032,-226.2242C1005.0043,-216.8082 754.7224,-189.6573 655.8673,-178.9333"/>
<polygon fill="#191970" stroke="#191970" points="655.9988,-175.4272 645.6796,-177.8282 655.2438,-182.3863 655.9988,-175.4272"/>
</g>
<!-- Node71&#45;&gt;Node36 -->
<g id="edge110" class="edge">
<title>Node71&#45;&gt;Node36</title>
<path fill="none" stroke="#191970" d="M1124.1767,-220.3546C1126.7998,-207.068 1129.6386,-182.1456 1119,-165 1112.7844,-154.9827 1087.3594,-141.7381 1066.4479,-132.1233"/>
<polygon fill="#191970" stroke="#191970" points="1067.7986,-128.8932 1057.2427,-127.9858 1064.9288,-135.2779 1067.7986,-128.8932"/>
</g>
<!-- Node71&#45;&gt;Node55 -->
<g id="edge107" class="edge">
<title>Node71&#45;&gt;Node55</title>
<path fill="none" stroke="#191970" d="M1152.1525,-221.7483C1155.1311,-221.1051 1158.1175,-220.5081 1161,-220 1297.1096,-196.0099 1460.8787,-182.4069 1534.2009,-177.108"/>
<polygon fill="#191970" stroke="#191970" points="1534.6222,-180.587 1544.3486,-176.3862 1534.1255,-173.6046 1534.6222,-180.587"/>
</g>
<!-- Node71&#45;&gt;Node57 -->
<g id="edge108" class="edge">
<title>Node71&#45;&gt;Node57</title>
<path fill="none" stroke="#191970" d="M1152.2074,-222.0229C1155.1749,-221.3241 1158.1437,-220.639 1161,-220 1225.5705,-205.5537 1301.0838,-190.5382 1345.5956,-181.8795"/>
<polygon fill="#191970" stroke="#191970" points="1346.2627,-185.3154 1355.4131,-179.9751 1344.9296,-178.4435 1346.2627,-185.3154"/>
</g>
<!-- Node74&#45;&gt;Node29 -->
<g id="edge115" class="edge">
<title>Node74&#45;&gt;Node29</title>
<path fill="none" stroke="#191970" d="M1533.1349,-348.7709C1468.0613,-346.129 1255.5844,-335.4939 1083,-304 974.2858,-284.1614 949.5032,-268.4859 843,-239 777.2087,-220.7854 700.9056,-199.0818 655.3655,-186.0667"/>
<polygon fill="#191970" stroke="#191970" points="656.1555,-182.6524 645.5786,-183.268 654.2309,-189.3826 656.1555,-182.6524"/>
</g>
<!-- Node74&#45;&gt;Node38 -->
<g id="edge120" class="edge">
<title>Node74&#45;&gt;Node38</title>
<path fill="none" stroke="#191970" d="M1572.8424,-346.9663C1661.4743,-334.9344 2012.266,-279.3375 1907,-165 1874.151,-129.3201 1520.3212,-133.1446 1472,-129 1446.7259,-126.8322 1418.1025,-124.2861 1396.8239,-122.3757"/>
<polygon fill="#191970" stroke="#191970" points="1396.9929,-118.8768 1386.7195,-121.4667 1396.3657,-125.8487 1396.9929,-118.8768"/>
</g>
<!-- Node74&#45;&gt;Node41 -->
<g id="edge119" class="edge">
<title>Node74&#45;&gt;Node41</title>
<path fill="none" stroke="#191970" d="M1572.8973,-347.4595C1629.1516,-341.5105 1788.4145,-323.375 1837,-304 1884.5202,-285.0498 1895.1069,-274.4427 1932,-239 1965.1017,-207.1996 1995.0749,-162.0699 2010.3529,-137.3678"/>
<polygon fill="#191970" stroke="#191970" points="2013.4253,-139.0517 2015.6332,-128.6894 2007.4452,-135.4131 2013.4253,-139.0517"/>
</g>
<!-- Node74&#45;&gt;Node45 -->
<g id="edge114" class="edge">
<title>Node74&#45;&gt;Node45</title>
<path fill="none" stroke="#191970" d="M1549.3549,-340.3873C1545.9365,-331.8412 1540.7223,-318.8057 1536.4272,-308.0679"/>
<polygon fill="#191970" stroke="#191970" points="1539.643,-306.6834 1532.6794,-298.6985 1533.1437,-309.2831 1539.643,-306.6834"/>
</g>
<!-- Node74&#45;&gt;Node55 -->
<g id="edge118" class="edge">
<title>Node74&#45;&gt;Node55</title>
<path fill="none" stroke="#191970" d="M1556.3129,-340.2296C1559.4044,-331.1331 1563.8532,-316.8016 1566,-304 1572.4907,-265.295 1573.3878,-219.2612 1573.2994,-193.8221"/>
<polygon fill="#191970" stroke="#191970" points="1576.7981,-193.6507 1573.206,-183.6834 1569.7984,-193.7153 1576.7981,-193.6507"/>
</g>
<!-- Node75 -->
<g id="node46" class="node">
<title>Node75</title>
<g id="a_node46"><a xlink:href="secure_8h.html" target="_top" xlink:title="support/allocators\l/secure.h">
<polygon fill="#ffffff" stroke="#ff0000" points="1388.5347,-275.5 1388.5347,-303.5 1483.4653,-303.5 1483.4653,-275.5 1388.5347,-275.5"/>
<text text-anchor="start" x="1396.5347" y="-291.5" font-family="Helvetica,sans-Serif" font-size="10.00" fill="#000000">support/allocators</text>
<text text-anchor="middle" x="1436" y="-281.5" font-family="Helvetica,sans-Serif" font-size="10.00" fill="#000000">/secure.h</text>
</a>
</g>
</g>
<!-- Node74&#45;&gt;Node75 -->
<g id="edge116" class="edge">
<title>Node74&#45;&gt;Node75</title>
<path fill="none" stroke="#191970" d="M1535.2302,-340.3873C1518.6358,-331.8773 1493.3608,-318.9158 1472.4731,-308.2042"/>
<polygon fill="#191970" stroke="#191970" points="1474.026,-305.0671 1463.5307,-303.6183 1470.8317,-311.2959 1474.026,-305.0671"/>
</g>
<!-- Node75&#45;&gt;Node36 -->
<g id="edge117" class="edge">
<title>Node75&#45;&gt;Node36</title>
<path fill="none" stroke="#191970" d="M1403.0087,-275.4436C1326.8651,-243.0014 1139.8091,-163.3034 1066.8376,-132.2128"/>
<polygon fill="#191970" stroke="#191970" points="1067.8932,-128.8581 1057.3215,-128.1583 1065.1494,-135.298 1067.8932,-128.8581"/>
</g>
<!-- Node80&#45;&gt;Node4 -->
<g id="edge126" class="edge">
<title>Node80&#45;&gt;Node4</title>
<path fill="none" stroke="#191970" d="M2196.1373,-225.9964C2250.5619,-220.7254 2337.2176,-208.6287 2357,-184 2362.2882,-177.4164 2362.2797,-171.5904 2357,-165 2290.874,-82.4572 1506.1298,-23.929 1330.6554,-11.8211"/>
<polygon fill="#191970" stroke="#191970" points="1330.6629,-8.3135 1320.447,-11.1219 1330.1845,-15.2971 1330.6629,-8.3135"/>
</g>
<!-- Node80&#45;&gt;Node55 -->
<g id="edge124" class="edge">
<title>Node80&#45;&gt;Node55</title>
<path fill="none" stroke="#191970" d="M2105.9501,-225.9331C2018.0098,-218.8559 1817.3567,-202.1467 1649,-184 1636.9342,-182.6995 1623.8121,-181.1188 1611.9204,-179.623"/>
<polygon fill="#191970" stroke="#191970" points="1612.2064,-176.1313 1601.8443,-178.3396 1611.3219,-183.0752 1612.2064,-176.1313"/>
</g>
<!-- Node80&#45;&gt;Node58 -->
<g id="edge123" class="edge">
<title>Node80&#45;&gt;Node58</title>
<path fill="none" stroke="#191970" d="M2105.8821,-223.9236C2024.7138,-213.8916 1854.174,-192.8136 1764.2869,-181.704"/>
<polygon fill="#191970" stroke="#191970" points="1764.6172,-178.2183 1754.2634,-180.4651 1763.7585,-185.1654 1764.6172,-178.2183"/>
</g>
<!-- Node81 -->
<g id="node48" class="node">
<title>Node81</title>
<polygon fill="#ffffff" stroke="#bfbfbf" points="2143.6406,-165.5 2143.6406,-183.5 2236.3594,-183.5 2236.3594,-165.5 2143.6406,-165.5"/>
<text text-anchor="middle" x="2190" y="-171.5" font-family="Helvetica,sans-Serif" font-size="10.00" fill="#000000">boost/variant.hpp</text>
</g>
<!-- Node80&#45;&gt;Node81 -->
<g id="edge125" class="edge">
<title>Node80&#45;&gt;Node81</title>
<path fill="none" stroke="#191970" d="M2157.4401,-220.4179C2162.8833,-212.7415 2170.8392,-201.5217 2177.5239,-192.0945"/>
<polygon fill="#191970" stroke="#191970" points="2180.4908,-193.9613 2183.42,-183.7795 2174.7806,-189.9123 2180.4908,-193.9613"/>
</g>
<!-- Node83&#45;&gt;Node4 -->
<g id="edge134" class="edge">
<title>Node83&#45;&gt;Node4</title>
<path fill="none" stroke="#191970" d="M2271.065,-165.4187C2225.5923,-151.8754 2136.2276,-126.243 2059,-110 1780.939,-51.5166 1438.3058,-20.8445 1330.2809,-12.1366"/>
<polygon fill="#191970" stroke="#191970" points="1330.5274,-8.6453 1320.2809,-11.3396 1329.9711,-15.6231 1330.5274,-8.6453"/>
</g>
<!-- Node83&#45;&gt;Node36 -->
<g id="edge135" class="edge">
<title>Node83&#45;&gt;Node36</title>
<path fill="none" stroke="#191970" d="M2254.0096,-166.0465C2250.9666,-165.6483 2247.9438,-165.2933 2245,-165 1987.5714,-139.3538 1341.2203,-172.1319 1067.4497,-128.4582"/>
<polygon fill="#191970" stroke="#191970" points="1067.91,-124.9868 1057.4721,-126.8037 1066.7648,-131.8925 1067.91,-124.9868"/>
</g>
<!-- Node83&#45;&gt;Node38 -->
<g id="edge136" class="edge">
<title>Node83&#45;&gt;Node38</title>
<path fill="none" stroke="#191970" d="M2254.0039,-166.1015C2250.9623,-165.6898 2247.9413,-165.3168 2245,-165 1903.0497,-128.1705 1815.1437,-152.2131 1472,-129 1446.6909,-127.2879 1418.0697,-124.7132 1396.8009,-122.676"/>
<polygon fill="#191970" stroke="#191970" points="1396.9932,-119.1783 1386.7019,-121.6961 1396.3171,-126.1455 1396.9932,-119.1783"/>
</g>
</g>
</svg>
