<?xml version="1.0" encoding="UTF-8" standalone="no"?>
<!DOCTYPE svg PUBLIC "-//W3C//DTD SVG 1.1//EN"
 "http://www.w3.org/Graphics/SVG/1.1/DTD/svg11.dtd">
<!-- Generated by graphviz version 2.40.1 (20161225.0304)
 -->
<!-- Title: src/script Pages: 1 -->
<svg width="154pt" height="188pt"
 viewBox="0.00 0.00 154.11 188.00" xmlns="http://www.w3.org/2000/svg" xmlns:xlink="http://www.w3.org/1999/xlink">
<g id="graph0" class="graph" transform="scale(1 1) rotate(0) translate(4 184)">
<title>src/script</title>
<polygon fill="#ffffff" stroke="transparent" points="-4,4 -4,-184 150.1133,-184 150.1133,4 -4,4"/>
<g id="clust1" class="cluster">
<title>clusterdir_68267d1309a1af8e8297ef4c3efbcdba</title>
<g id="a_clust1"><a xlink:href="dir_68267d1309a1af8e8297ef4c3efbcdba.html" target="_top" xlink:title="src">
<polygon fill="#ddddee" stroke="#000000" points="8,-64 8,-134 78,-134 78,-64 8,-64"/>
<text text-anchor="middle" x="43" y="-122" font-family="Helvetica,sans-Serif" font-size="10.00" fill="#000000">src</text>
</a>
</g>
</g>
<!-- dir_fe414d616bd0c4668e6515f48824338f -->
<g id="node1" class="node">
<title>dir_fe414d616bd0c4668e6515f48824338f</title>
<g id="a_node1"><a xlink:href="dir_fe414d616bd0c4668e6515f48824338f.html" target="_top" xlink:title="script">
<polygon fill="#eeeeff" stroke="#000000" points="70,-108 16,-108 16,-72 70,-72 70,-108"/>
<text text-anchor="middle" x="43" y="-87" font-family="Helvetica,sans-Serif" font-size="10.00" fill="#000000">script</text>
</a>
</g>
</g>
<!-- dir_4261af1259721e3e39e0d2dd7354b511 -->
<g id="node2" class="node">
<title>dir_4261af1259721e3e39e0d2dd7354b511</title>
<g id="a_node2"><a xlink:href="dir_4261af1259721e3e39e0d2dd7354b511.html" target="_top" xlink:title="crypto">
<polygon fill="#ffffff" stroke="#ff0000" points="107,-36 53,-36 53,0 107,0 107,-36"/>
<text text-anchor="middle" x="80" y="-15" font-family="Helvetica,sans-Serif" font-size="10.00" fill="#000000">crypto</text>
</a>
</g>
</g>
<!-- dir_fe414d616bd0c4668e6515f48824338f&#45;&gt;dir_4261af1259721e3e39e0d2dd7354b511 -->
<g id="edge1" class="edge">
<title>dir_fe414d616bd0c4668e6515f48824338f&#45;&gt;dir_4261af1259721e3e39e0d2dd7354b511</title>
<path fill="none" stroke="#000000" d="M52.3367,-71.8314C56.4243,-63.8771 61.3104,-54.369 65.8309,-45.5723"/>
<polygon fill="#000000" stroke="#000000" points="69.0799,-46.9074 70.5376,-36.4133 62.8539,-43.7078 69.0799,-46.9074"/>
<g id="a_edge1&#45;headlabel"><a xlink:href="dir_000019_000008.html" target="_top" xlink:title="5">
<text text-anchor="middle" x="69.9623" y="-48.4022" font-family="Helvetica,sans-Serif" font-size="10.00" fill="#000000">5</text>
</a>
</g>
</g>
<!-- dir_bbf56bce9985720f86fc476f3812db24 -->
<g id="node3" class="node">
<title>dir_bbf56bce9985720f86fc476f3812db24</title>
<g id="a_node3"><a xlink:href="dir_bbf56bce9985720f86fc476f3812db24.html" target="_top" xlink:title="primitives">
<polygon fill="none" stroke="#000000" points="146.227,-108 87.773,-108 87.773,-72 146.227,-72 146.227,-108"/>
<text text-anchor="middle" x="117" y="-87" font-family="Helvetica,sans-Serif" font-size="10.00" fill="#000000">primitives</text>
</a>
</g>
</g>
<!-- dir_fe414d616bd0c4668e6515f48824338f&#45;&gt;dir_bbf56bce9985720f86fc476f3812db24 -->
<g id="edge2" class="edge">
<title>dir_fe414d616bd0c4668e6515f48824338f&#45;&gt;dir_bbf56bce9985720f86fc476f3812db24</title>
<path fill="none" stroke="#000000" d="M70.1719,-90C72.6413,-90 75.1108,-90 77.5802,-90"/>
<polygon fill="#000000" stroke="#000000" points="77.7325,-93.5001 87.7324,-90 77.7324,-86.5001 77.7325,-93.5001"/>
<g id="a_edge2&#45;headlabel"><a xlink:href="dir_000019_000017.html" target="_top" xlink:title="3">
<text text-anchor="middle" x="74.1378" y="-93.3393" font-family="Helvetica,sans-Serif" font-size="10.00" fill="#000000">3</text>
</a>
</g>
</g>
<!-- dir_f9a362818448b8ef6661813ae65d7e79 -->
<g id="node4" class="node">
<title>dir_f9a362818448b8ef6661813ae65d7e79</title>
<g id="a_node4"><a xlink:href="dir_f9a362818448b8ef6661813ae65d7e79.html" target="_top" xlink:title="policy">
<polygon fill="none" stroke="#000000" points="107,-180 53,-180 53,-144 107,-144 107,-180"/>
<text text-anchor="middle" x="80" y="-159" font-family="Helvetica,sans-Serif" font-size="10.00" fill="#000000">policy</text>
</a>
</g>
</g>
<!-- dir_fe414d616bd0c4668e6515f48824338f&#45;&gt;dir_f9a362818448b8ef6661813ae65d7e79 -->
<g id="edge3" class="edge">
<title>dir_fe414d616bd0c4668e6515f48824338f&#45;&gt;dir_f9a362818448b8ef6661813ae65d7e79</title>
<path fill="none" stroke="#000000" d="M46.4864,-108.4133C49.8621,-116.484 54.6184,-126.1182 59.5536,-134.9775"/>
<polygon fill="#000000" stroke="#000000" points="56.6532,-136.9521 64.7109,-143.8314 62.7019,-133.4287 56.6532,-136.9521"/>
<g id="a_edge3&#45;headlabel"><a xlink:href="dir_000019_000016.html" target="_top" xlink:title="1">
<text text-anchor="middle" x="52.3906" y="-132.2751" font-family="Helvetica,sans-Serif" font-size="10.00" fill="#000000">1</text>
</a>
</g>
</g>
<!-- dir_bbf56bce9985720f86fc476f3812db24&#45;&gt;dir_fe414d616bd0c4668e6515f48824338f -->
<g id="edge5" class="edge">
<title>dir_bbf56bce9985720f86fc476f3812db24&#45;&gt;dir_fe414d616bd0c4668e6515f48824338f</title>
<path fill="none" stroke="#000000" d="M87.7324,-90C85.263,-90 82.7935,-90 80.3241,-90"/>
<polygon fill="#000000" stroke="#000000" points="80.1719,-86.5001 70.1719,-90 80.1718,-93.5001 80.1719,-86.5001"/>
<g id="a_edge5&#45;headlabel"><a xlink:href="dir_000017_000019.html" target="_top" xlink:title="1">
<text text-anchor="middle" x="83.7665" y="-80.6607" font-family="Helvetica,sans-Serif" font-size="10.00" fill="#000000">1</text>
</a>
</g>
</g>
<!-- dir_bbf56bce9985720f86fc476f3812db24&#45;&gt;dir_4261af1259721e3e39e0d2dd7354b511 -->
<g id="edge4" class="edge">
<title>dir_bbf56bce9985720f86fc476f3812db24&#45;&gt;dir_4261af1259721e3e39e0d2dd7354b511</title>
<path fill="none" stroke="#000000" d="M107.6633,-71.8314C103.5757,-63.8771 98.6896,-54.369 94.1691,-45.5723"/>
<polygon fill="#000000" stroke="#000000" points="97.1461,-43.7078 89.4624,-36.4133 90.9201,-46.9074 97.1461,-43.7078"/>
<g id="a_edge4&#45;headlabel"><a xlink:href="dir_000017_000008.html" target="_top" xlink:title="1">
<text text-anchor="middle" x="101.3144" y="-42.6073" font-family="Helvetica,sans-Serif" font-size="10.00" fill="#000000">1</text>
</a>
</g>
</g>
<!-- dir_f9a362818448b8ef6661813ae65d7e79&#45;&gt;dir_fe414d616bd0c4668e6515f48824338f -->
<g id="edge6" class="edge">
<title>dir_f9a362818448b8ef6661813ae65d7e79&#45;&gt;dir_fe414d616bd0c4668e6515f48824338f</title>
<path fill="none" stroke="#000000" d="M76.6157,-143.8314C73.268,-135.7925 68.5277,-126.1666 63.5963,-117.2918"/>
<polygon fill="#000000" stroke="#000000" points="66.4881,-115.3019 58.4384,-108.4133 60.4353,-118.8182 66.4881,-115.3019"/>
<g id="a_edge6&#45;headlabel"><a xlink:href="dir_000016_000019.html" target="_top" xlink:title="2">
<text text-anchor="middle" x="70.7487" y="-113.9839" font-family="Helvetica,sans-Serif" font-size="10.00" fill="#000000">2</text>
</a>
</g>
</g>
<!-- dir_f9a362818448b8ef6661813ae65d7e79&#45;&gt;dir_bbf56bce9985720f86fc476f3812db24 -->
<g id="edge7" class="edge">
<title>dir_f9a362818448b8ef6661813ae65d7e79&#45;&gt;dir_bbf56bce9985720f86fc476f3812db24</title>
<path fill="none" stroke="#000000" d="M89.3367,-143.8314C93.4243,-135.8771 98.3104,-126.369 102.8309,-117.5723"/>
<polygon fill="#000000" stroke="#000000" points="106.0799,-118.9074 107.5376,-108.4133 99.8539,-115.7078 106.0799,-118.9074"/>
<g id="a_edge7&#45;headlabel"><a xlink:href="dir_000016_000017.html" target="_top" xlink:title="1">
<text text-anchor="middle" x="106.9623" y="-120.4022" font-family="Helvetica,sans-Serif" font-size="10.00" fill="#000000">1</text>
</a>
</g>
</g>
</g>
</svg>
