<?xml version="1.0" encoding="UTF-8" standalone="no"?>
<!DOCTYPE svg PUBLIC "-//W3C//DTD SVG 1.1//EN"
 "http://www.w3.org/Graphics/SVG/1.1/DTD/svg11.dtd">
<!-- Generated by graphviz version 2.40.1 (20161225.0304)
 -->
<!-- Title: src/policy Pages: 1 -->
<svg width="160pt" height="222pt"
 viewBox="0.00 0.00 159.90 222.00" xmlns="http://www.w3.org/2000/svg" xmlns:xlink="http://www.w3.org/1999/xlink">
<g id="graph0" class="graph" transform="scale(1 1) rotate(0) translate(4 218)">
<title>src/policy</title>
<polygon fill="#ffffff" stroke="transparent" points="-4,4 -4,-218 155.9038,-218 155.9038,4 -4,4"/>
<g id="clust1" class="cluster">
<title>clusterdir_68267d1309a1af8e8297ef4c3efbcdba</title>
<g id="a_clust1"><a xlink:href="dir_68267d1309a1af8e8297ef4c3efbcdba.html" target="_top" xlink:title="src">
<polygon fill="#ddddee" stroke="#000000" points="8,-136 8,-206 78,-206 78,-136 8,-136"/>
<text text-anchor="middle" x="43" y="-194" font-family="Helvetica,sans-Serif" font-size="10.00" fill="#000000">src</text>
</a>
</g>
</g>
<!-- dir_f9a362818448b8ef6661813ae65d7e79 -->
<g id="node1" class="node">
<title>dir_f9a362818448b8ef6661813ae65d7e79</title>
<g id="a_node1"><a xlink:href="dir_f9a362818448b8ef6661813ae65d7e79.html" target="_top" xlink:title="policy">
<polygon fill="#eeeeff" stroke="#000000" points="70,-180 16,-180 16,-144 70,-144 70,-180"/>
<text text-anchor="middle" x="43" y="-159" font-family="Helvetica,sans-Serif" font-size="10.00" fill="#000000">policy</text>
</a>
</g>
</g>
<!-- dir_fe414d616bd0c4668e6515f48824338f -->
<g id="node2" class="node">
<title>dir_fe414d616bd0c4668e6515f48824338f</title>
<g id="a_node2"><a xlink:href="dir_fe414d616bd0c4668e6515f48824338f.html" target="_top" xlink:title="script">
<polygon fill="none" stroke="#000000" points="109,-108 55,-108 55,-72 109,-72 109,-108"/>
<text text-anchor="middle" x="82" y="-87" font-family="Helvetica,sans-Serif" font-size="10.00" fill="#000000">script</text>
</a>
</g>
</g>
<!-- dir_f9a362818448b8ef6661813ae65d7e79&#45;&gt;dir_fe414d616bd0c4668e6515f48824338f -->
<g id="edge6" class="edge">
<title>dir_f9a362818448b8ef6661813ae65d7e79&#45;&gt;dir_fe414d616bd0c4668e6515f48824338f</title>
<path fill="none" stroke="#000000" d="M46.889,-143.8314C50.4975,-135.7079 55.5733,-125.9637 60.8092,-117.0118"/>
<polygon fill="#000000" stroke="#000000" points="63.8341,-118.7738 66.0501,-108.4133 57.8569,-115.1305 63.8341,-118.7738"/>
<g id="a_edge6&#45;headlabel"><a xlink:href="dir_000016_000019.html" target="_top" xlink:title="2">
<text text-anchor="middle" x="64.3877" y="-120.3209" font-family="Helvetica,sans-Serif" font-size="10.00" fill="#000000">2</text>
</a>
</g>
</g>
<!-- dir_bbf56bce9985720f86fc476f3812db24 -->
<g id="node3" class="node">
<title>dir_bbf56bce9985720f86fc476f3812db24</title>
<g id="a_node3"><a xlink:href="dir_bbf56bce9985720f86fc476f3812db24.html" target="_top" xlink:title="primitives">
<polygon fill="none" stroke="#000000" points="111.227,-36 52.773,-36 52.773,0 111.227,0 111.227,-36"/>
<text text-anchor="middle" x="82" y="-15" font-family="Helvetica,sans-Serif" font-size="10.00" fill="#000000">primitives</text>
</a>
</g>
</g>
<!-- dir_f9a362818448b8ef6661813ae65d7e79&#45;&gt;dir_bbf56bce9985720f86fc476f3812db24 -->
<g id="edge7" class="edge">
<title>dir_f9a362818448b8ef6661813ae65d7e79&#45;&gt;dir_bbf56bce9985720f86fc476f3812db24</title>
<path fill="none" stroke="#000000" d="M40.754,-143.9176C39.1029,-125.3839 38.3057,-95.9654 46,-72 49.1187,-62.2861 54.535,-52.6883 60.2333,-44.3396"/>
<polygon fill="#000000" stroke="#000000" points="63.1446,-46.2871 66.1892,-36.1391 57.4808,-42.1735 63.1446,-46.2871"/>
<g id="a_edge7&#45;headlabel"><a xlink:href="dir_000016_000017.html" target="_top" xlink:title="1">
<text text-anchor="middle" x="63.3295" y="-47.864" font-family="Helvetica,sans-Serif" font-size="10.00" fill="#000000">1</text>
</a>
</g>
</g>
<!-- dir_dee301ab18d354d094fb7852349ef839 -->
<g id="node4" class="node">
<title>dir_dee301ab18d354d094fb7852349ef839</title>
<g id="a_node4"><a xlink:href="dir_dee301ab18d354d094fb7852349ef839.html" target="_top" xlink:title="consensus">
<polygon fill="none" stroke="#000000" points="151.8079,-180 88.1921,-180 88.1921,-144 151.8079,-144 151.8079,-180"/>
<text text-anchor="middle" x="120" y="-159" font-family="Helvetica,sans-Serif" font-size="10.00" fill="#000000">consensus</text>
</a>
</g>
</g>
<!-- dir_f9a362818448b8ef6661813ae65d7e79&#45;&gt;dir_dee301ab18d354d094fb7852349ef839 -->
<g id="edge8" class="edge">
<title>dir_f9a362818448b8ef6661813ae65d7e79&#45;&gt;dir_dee301ab18d354d094fb7852349ef839</title>
<path fill="none" stroke="#000000" d="M70.0703,-162C72.6871,-162 75.3038,-162 77.9206,-162"/>
<polygon fill="#000000" stroke="#000000" points="78.0138,-165.5001 88.0138,-162 78.0138,-158.5001 78.0138,-165.5001"/>
<g id="a_edge8&#45;headlabel"><a xlink:href="dir_000016_000007.html" target="_top" xlink:title="2">
<text text-anchor="middle" x="74.4192" y="-165.3393" font-family="Helvetica,sans-Serif" font-size="10.00" fill="#000000">2</text>
</a>
</g>
</g>
<!-- dir_fe414d616bd0c4668e6515f48824338f&#45;&gt;dir_f9a362818448b8ef6661813ae65d7e79 -->
<g id="edge2" class="edge">
<title>dir_fe414d616bd0c4668e6515f48824338f&#45;&gt;dir_f9a362818448b8ef6661813ae65d7e79</title>
<path fill="none" stroke="#000000" d="M78.0022,-108.4133C74.3643,-116.569 69.2724,-126.3212 64.0334,-135.257"/>
<polygon fill="#000000" stroke="#000000" points="61.0216,-133.4734 58.7937,-143.8314 66.9947,-137.1235 61.0216,-133.4734"/>
<g id="a_edge2&#45;headlabel"><a xlink:href="dir_000019_000016.html" target="_top" xlink:title="1">
<text text-anchor="middle" x="60.4732" y="-125.9257" font-family="Helvetica,sans-Serif" font-size="10.00" fill="#000000">1</text>
</a>
</g>
</g>
<!-- dir_fe414d616bd0c4668e6515f48824338f&#45;&gt;dir_bbf56bce9985720f86fc476f3812db24 -->
<g id="edge1" class="edge">
<title>dir_fe414d616bd0c4668e6515f48824338f&#45;&gt;dir_bbf56bce9985720f86fc476f3812db24</title>
<path fill="none" stroke="#000000" d="M76.0476,-71.8314C75.2972,-64.131 75.0763,-54.9743 75.3849,-46.4166"/>
<polygon fill="#000000" stroke="#000000" points="78.8792,-46.6161 76.024,-36.4133 71.8935,-46.1697 78.8792,-46.6161"/>
<g id="a_edge1&#45;headlabel"><a xlink:href="dir_000019_000017.html" target="_top" xlink:title="3">
<text text-anchor="middle" x="81.4836" y="-47.3844" font-family="Helvetica,sans-Serif" font-size="10.00" fill="#000000">3</text>
</a>
</g>
</g>
<!-- dir_bbf56bce9985720f86fc476f3812db24&#45;&gt;dir_fe414d616bd0c4668e6515f48824338f -->
<g id="edge3" class="edge">
<title>dir_bbf56bce9985720f86fc476f3812db24&#45;&gt;dir_fe414d616bd0c4668e6515f48824338f</title>
<path fill="none" stroke="#000000" d="M87.976,-36.4133C88.7071,-44.0593 88.9203,-53.1084 88.6155,-61.5726"/>
<polygon fill="#000000" stroke="#000000" points="85.1048,-61.6264 87.9524,-71.8314 92.0902,-62.078 85.1048,-61.6264"/>
<g id="a_edge3&#45;headlabel"><a xlink:href="dir_000017_000019.html" target="_top" xlink:title="1">
<text text-anchor="middle" x="82.5032" y="-54.8562" font-family="Helvetica,sans-Serif" font-size="10.00" fill="#000000">1</text>
</a>
</g>
</g>
<!-- dir_dee301ab18d354d094fb7852349ef839&#45;&gt;dir_fe414d616bd0c4668e6515f48824338f -->
<g id="edge4" class="edge">
<title>dir_dee301ab18d354d094fb7852349ef839&#45;&gt;dir_fe414d616bd0c4668e6515f48824338f</title>
<path fill="none" stroke="#000000" d="M110.411,-143.8314C106.1683,-135.7925 101.0879,-126.1666 96.404,-117.2918"/>
<polygon fill="#000000" stroke="#000000" points="99.4811,-115.6235 91.7181,-108.4133 93.2904,-118.8908 99.4811,-115.6235"/>
<g id="a_edge4&#45;headlabel"><a xlink:href="dir_000007_000019.html" target="_top" xlink:title="1">
<text text-anchor="middle" x="103.6699" y="-114.4772" font-family="Helvetica,sans-Serif" font-size="10.00" fill="#000000">1</text>
</a>
</g>
</g>
<!-- dir_dee301ab18d354d094fb7852349ef839&#45;&gt;dir_bbf56bce9985720f86fc476f3812db24 -->
<g id="edge5" class="edge">
<title>dir_dee301ab18d354d094fb7852349ef839&#45;&gt;dir_bbf56bce9985720f86fc476f3812db24</title>
<path fill="none" stroke="#000000" d="M122.5009,-143.9321C124.4011,-125.4098 125.5588,-96.0003 118,-72 114.9353,-62.269 109.5348,-52.6661 103.8343,-44.3181"/>
<polygon fill="#000000" stroke="#000000" points="106.5837,-42.1477 97.8706,-36.1201 100.923,-46.2657 106.5837,-42.1477"/>
<g id="a_edge5&#45;headlabel"><a xlink:href="dir_000007_000017.html" target="_top" xlink:title="5">
<text text-anchor="middle" x="110.9942" y="-40.3843" font-family="Helvetica,sans-Serif" font-size="10.00" fill="#000000">5</text>
</a>
</g>
</g>
</g>
</svg>
