<?xml version="1.0" encoding="UTF-8" standalone="no"?>
<!DOCTYPE svg PUBLIC "-//W3C//DTD SVG 1.1//EN"
 "http://www.w3.org/Graphics/SVG/1.1/DTD/svg11.dtd">
<!-- Generated by graphviz version 2.40.1 (20161225.0304)
 -->
<!-- Title: src/secp256k1/src/ecmult_impl.h Pages: 1 -->
<svg width="283pt" height="312pt"
 viewBox="0.00 0.00 283.13 312.00" xmlns="http://www.w3.org/2000/svg" xmlns:xlink="http://www.w3.org/1999/xlink">
<g id="graph0" class="graph" transform="scale(1 1) rotate(0) translate(4 308)">
<title>src/secp256k1/src/ecmult_impl.h</title>
<polygon fill="#ffffff" stroke="transparent" points="-4,4 -4,-308 279.1279,-308 279.1279,4 -4,4"/>
<!-- Node0 -->
<g id="node1" class="node">
<title>Node0</title>
<polygon fill="#bfbfbf" stroke="#000000" points="38.9878,-275.5 38.9878,-303.5 167.8052,-303.5 167.8052,-275.5 38.9878,-275.5"/>
<text text-anchor="start" x="46.9878" y="-291.5" font-family="Helvetica,sans-Serif" font-size="10.00" fill="#000000">src/secp256k1/src/ecmult</text>
<text text-anchor="middle" x="103.3965" y="-281.5" font-family="Helvetica,sans-Serif" font-size="10.00" fill="#000000">_impl.h</text>
</g>
<!-- Node1 -->
<g id="node2" class="node">
<title>Node1</title>
<polygon fill="#ffffff" stroke="#bfbfbf" points="0,-220.5 0,-238.5 48.793,-238.5 48.793,-220.5 0,-220.5"/>
<text text-anchor="middle" x="24.3965" y="-226.5" font-family="Helvetica,sans-Serif" font-size="10.00" fill="#000000">string.h</text>
</g>
<!-- Node0&#45;&gt;Node1 -->
<g id="edge1" class="edge">
<title>Node0&#45;&gt;Node1</title>
<path fill="none" stroke="#191970" d="M84.6746,-275.2808C72.6317,-266.1344 56.9866,-254.252 44.6535,-244.8851"/>
<polygon fill="#191970" stroke="#191970" points="46.4378,-241.8452 36.3573,-238.5842 42.204,-247.4198 46.4378,-241.8452"/>
</g>
<!-- Node2 -->
<g id="node3" class="node">
<title>Node2</title>
<g id="a_node3"><a xlink:href="group_8h.html" target="_top" xlink:title="group.h">
<polygon fill="#ffffff" stroke="#000000" points="159.4385,-165.5 159.4385,-183.5 209.3545,-183.5 209.3545,-165.5 159.4385,-165.5"/>
<text text-anchor="middle" x="184.3965" y="-171.5" font-family="Helvetica,sans-Serif" font-size="10.00" fill="#000000">group.h</text>
</a>
</g>
</g>
<!-- Node0&#45;&gt;Node2 -->
<g id="edge2" class="edge">
<title>Node0&#45;&gt;Node2</title>
<path fill="none" stroke="#191970" d="M128.2649,-275.4058C141.7143,-266.5791 157.5422,-254.0331 167.3965,-239 176.3241,-225.3804 180.5733,-207.261 182.59,-193.6951"/>
<polygon fill="#191970" stroke="#191970" points="186.0886,-193.9169 183.8127,-183.5694 179.139,-193.0777 186.0886,-193.9169"/>
</g>
<!-- Node9 -->
<g id="node10" class="node">
<title>Node9</title>
<g id="a_node10"><a xlink:href="scalar_8h.html" target="_top" xlink:title="scalar.h">
<polygon fill="#ffffff" stroke="#000000" points="52.1626,-165.5 52.1626,-183.5 102.6304,-183.5 102.6304,-165.5 52.1626,-165.5"/>
<text text-anchor="middle" x="77.3965" y="-171.5" font-family="Helvetica,sans-Serif" font-size="10.00" fill="#000000">scalar.h</text>
</a>
</g>
</g>
<!-- Node0&#45;&gt;Node9 -->
<g id="edge9" class="edge">
<title>Node0&#45;&gt;Node9</title>
<path fill="none" stroke="#191970" d="M100.2084,-275.3987C95.5704,-254.8847 86.9489,-216.7512 81.7359,-193.6935"/>
<polygon fill="#191970" stroke="#191970" points="85.1021,-192.7106 79.483,-183.7286 78.2744,-194.2543 85.1021,-192.7106"/>
</g>
<!-- Node10 -->
<g id="node11" class="node">
<title>Node10</title>
<g id="a_node11"><a xlink:href="ecmult_8h.html" target="_top" xlink:title="ecmult.h">
<polygon fill="#ffffff" stroke="#000000" points="104.5,-220.5 104.5,-238.5 158.293,-238.5 158.293,-220.5 104.5,-220.5"/>
<text text-anchor="middle" x="131.3965" y="-226.5" font-family="Helvetica,sans-Serif" font-size="10.00" fill="#000000">ecmult.h</text>
</a>
</g>
</g>
<!-- Node0&#45;&gt;Node10 -->
<g id="edge11" class="edge">
<title>Node0&#45;&gt;Node10</title>
<path fill="none" stroke="#191970" d="M110.0321,-275.2808C113.886,-267.0224 118.7809,-256.5335 122.9126,-247.6796"/>
<polygon fill="#191970" stroke="#191970" points="126.0999,-249.1261 127.1572,-238.5842 119.7566,-246.1659 126.0999,-249.1261"/>
</g>
<!-- Node3 -->
<g id="node4" class="node">
<title>Node3</title>
<g id="a_node4"><a xlink:href="num_8h.html" target="_top" xlink:title="num.h">
<polygon fill="#ffffff" stroke="#000000" points="104.5,-110.5 104.5,-128.5 148.293,-128.5 148.293,-110.5 104.5,-110.5"/>
<text text-anchor="middle" x="126.3965" y="-116.5" font-family="Helvetica,sans-Serif" font-size="10.00" fill="#000000">num.h</text>
</a>
</g>
</g>
<!-- Node2&#45;&gt;Node3 -->
<g id="edge3" class="edge">
<title>Node2&#45;&gt;Node3</title>
<path fill="none" stroke="#191970" d="M174.819,-165.4179C166.3901,-157.425 153.9099,-145.5903 143.7308,-135.9377"/>
<polygon fill="#191970" stroke="#191970" points="145.8467,-133.1207 136.1821,-128.7795 141.03,-138.2001 145.8467,-133.1207"/>
</g>
<!-- Node4 -->
<g id="node5" class="node">
<title>Node4</title>
<g id="a_node5"><a xlink:href="field_8h.html" target="_top" xlink:title="field.h">
<polygon fill="#ffffff" stroke="#000000" points="166.0542,-110.5 166.0542,-128.5 208.7388,-128.5 208.7388,-110.5 166.0542,-110.5"/>
<text text-anchor="middle" x="187.3965" y="-116.5" font-family="Helvetica,sans-Serif" font-size="10.00" fill="#000000">field.h</text>
</a>
</g>
</g>
<!-- Node2&#45;&gt;Node4 -->
<g id="edge4" class="edge">
<title>Node2&#45;&gt;Node4</title>
<path fill="none" stroke="#191970" d="M184.8919,-165.4179C185.2847,-158.2164 185.8476,-147.8962 186.3403,-138.8632"/>
<polygon fill="#191970" stroke="#191970" points="189.8404,-138.9553 186.8903,-128.7795 182.8508,-138.574 189.8404,-138.9553"/>
</g>
<!-- Node5 -->
<g id="node6" class="node">
<title>Node5</title>
<g id="a_node6"><a xlink:href="secp256k1_2src_2util_8h.html" target="_top" xlink:title="util.h">
<polygon fill="#ffffff" stroke="#000000" points="168.835,-55.5 168.835,-73.5 205.958,-73.5 205.958,-55.5 168.835,-55.5"/>
<text text-anchor="middle" x="187.3965" y="-61.5" font-family="Helvetica,sans-Serif" font-size="10.00" fill="#000000">util.h</text>
</a>
</g>
</g>
<!-- Node4&#45;&gt;Node5 -->
<g id="edge5" class="edge">
<title>Node4&#45;&gt;Node5</title>
<path fill="none" stroke="#191970" d="M187.3965,-110.4179C187.3965,-103.2164 187.3965,-92.8962 187.3965,-83.8632"/>
<polygon fill="#191970" stroke="#191970" points="190.8966,-83.7794 187.3965,-73.7795 183.8966,-83.7795 190.8966,-83.7794"/>
</g>
<!-- Node6 -->
<g id="node7" class="node">
<title>Node6</title>
<polygon fill="#ffffff" stroke="#bfbfbf" points="97.5542,-.5 97.5542,-18.5 145.2388,-18.5 145.2388,-.5 97.5542,-.5"/>
<text text-anchor="middle" x="121.3965" y="-6.5" font-family="Helvetica,sans-Serif" font-size="10.00" fill="#000000">stdlib.h</text>
</g>
<!-- Node5&#45;&gt;Node6 -->
<g id="edge6" class="edge">
<title>Node5&#45;&gt;Node6</title>
<path fill="none" stroke="#191970" d="M176.4979,-55.4179C166.7165,-47.2667 152.1406,-35.1201 140.4368,-25.3669"/>
<polygon fill="#191970" stroke="#191970" points="142.4547,-22.4926 132.5318,-18.7795 137.9734,-27.8701 142.4547,-22.4926"/>
</g>
<!-- Node7 -->
<g id="node8" class="node">
<title>Node7</title>
<polygon fill="#ffffff" stroke="#bfbfbf" points="163.2759,-.5 163.2759,-18.5 211.5171,-18.5 211.5171,-.5 163.2759,-.5"/>
<text text-anchor="middle" x="187.3965" y="-6.5" font-family="Helvetica,sans-Serif" font-size="10.00" fill="#000000">stdint.h</text>
</g>
<!-- Node5&#45;&gt;Node7 -->
<g id="edge7" class="edge">
<title>Node5&#45;&gt;Node7</title>
<path fill="none" stroke="#191970" d="M187.3965,-55.4179C187.3965,-48.2164 187.3965,-37.8962 187.3965,-28.8632"/>
<polygon fill="#191970" stroke="#191970" points="190.8966,-28.7794 187.3965,-18.7795 183.8966,-28.7795 190.8966,-28.7794"/>
</g>
<!-- Node8 -->
<g id="node9" class="node">
<title>Node8</title>
<polygon fill="#ffffff" stroke="#bfbfbf" points="229.665,-.5 229.665,-18.5 275.1279,-18.5 275.1279,-.5 229.665,-.5"/>
<text text-anchor="middle" x="252.3965" y="-6.5" font-family="Helvetica,sans-Serif" font-size="10.00" fill="#000000">stdio.h</text>
</g>
<!-- Node5&#45;&gt;Node8 -->
<g id="edge8" class="edge">
<title>Node5&#45;&gt;Node8</title>
<path fill="none" stroke="#191970" d="M198.1299,-55.4179C207.7631,-47.2667 222.1181,-35.1201 233.6446,-25.3669"/>
<polygon fill="#191970" stroke="#191970" points="236.0568,-27.9108 241.4299,-18.7795 231.5352,-22.5671 236.0568,-27.9108"/>
</g>
<!-- Node9&#45;&gt;Node3 -->
<g id="edge10" class="edge">
<title>Node9&#45;&gt;Node3</title>
<path fill="none" stroke="#191970" d="M85.4878,-165.4179C92.4678,-157.5833 102.7361,-146.0575 111.2388,-136.5137"/>
<polygon fill="#191970" stroke="#191970" points="114.0906,-138.5743 118.1293,-128.7795 108.8639,-133.9178 114.0906,-138.5743"/>
</g>
<!-- Node10&#45;&gt;Node2 -->
<g id="edge13" class="edge">
<title>Node10&#45;&gt;Node2</title>
<path fill="none" stroke="#191970" d="M140.1484,-220.4179C147.7743,-212.5041 159.0294,-200.8243 168.2796,-191.2251"/>
<polygon fill="#191970" stroke="#191970" points="171.0358,-193.4089 175.4545,-183.7795 165.9952,-188.5516 171.0358,-193.4089"/>
</g>
<!-- Node10&#45;&gt;Node3 -->
<g id="edge12" class="edge">
<title>Node10&#45;&gt;Node3</title>
<path fill="none" stroke="#191970" d="M130.9873,-220.4982C130.1779,-202.6913 128.3566,-162.6225 127.267,-138.6515"/>
<polygon fill="#191970" stroke="#191970" points="130.7619,-138.4569 126.8113,-128.6261 123.7691,-138.7748 130.7619,-138.4569"/>
</g>
</g>
</svg>
