<?xml version="1.0" encoding="UTF-8" standalone="no"?>
<!DOCTYPE svg PUBLIC "-//W3C//DTD SVG 1.1//EN"
 "http://www.w3.org/Graphics/SVG/1.1/DTD/svg11.dtd">
<!-- Generated by graphviz version 2.40.1 (20161225.0304)
 -->
<!-- Title: src/secp256k1/src/field.h Pages: 1 -->
<svg width="1274pt" height="417pt"
 viewBox="0.00 0.00 1274.39 417.00" xmlns="http://www.w3.org/2000/svg" xmlns:xlink="http://www.w3.org/1999/xlink">
<g id="graph0" class="graph" transform="scale(1 1) rotate(0) translate(4 413)">
<title>src/secp256k1/src/field.h</title>
<polygon fill="#ffffff" stroke="transparent" points="-4,4 -4,-413 1270.3937,-413 1270.3937,4 -4,4"/>
<!-- Node5 -->
<g id="node1" class="node">
<title>Node5</title>
<polygon fill="#bfbfbf" stroke="#000000" points="773.2984,-390.5 773.2984,-408.5 899.3472,-408.5 899.3472,-390.5 773.2984,-390.5"/>
<text text-anchor="middle" x="836.3228" y="-396.5" font-family="Helvetica,sans-Serif" font-size="10.00" fill="#000000">src/secp256k1/src/field.h</text>
</g>
<!-- Node6 -->
<g id="node2" class="node">
<title>Node6</title>
<g id="a_node2"><a xlink:href="group__impl_8h.html" target="_top" xlink:title="src/secp256k1/src/group\l_impl.h">
<polygon fill="#ffffff" stroke="#000000" points="13.8526,-195.5 13.8526,-223.5 138.793,-223.5 138.793,-195.5 13.8526,-195.5"/>
<text text-anchor="start" x="21.8526" y="-211.5" font-family="Helvetica,sans-Serif" font-size="10.00" fill="#000000">src/secp256k1/src/group</text>
<text text-anchor="middle" x="76.3228" y="-201.5" font-family="Helvetica,sans-Serif" font-size="10.00" fill="#000000">_impl.h</text>
</a>
</g>
</g>
<!-- Node5&#45;&gt;Node6 -->
<g id="edge1" class="edge">
<title>Node5&#45;&gt;Node6</title>
<path fill="none" stroke="#191970" d="M762.7944,-397.1005C599.4031,-390.4007 212.5759,-366.5601 111.3228,-289 90.3722,-272.9518 81.7095,-241.6941 78.325,-223.5205"/>
<polygon fill="#191970" stroke="#191970" points="763.0964,-400.6153 773.2282,-397.5174 763.3759,-393.6209 763.0964,-400.6153"/>
</g>
<!-- Node12 -->
<g id="node8" class="node">
<title>Node12</title>
<g id="a_node8"><a xlink:href="group_8h.html" target="_top" xlink:title="src/secp256k1/src/group.h">
<polygon fill="#ffffff" stroke="#000000" points="704.6826,-330.5 704.6826,-348.5 837.9629,-348.5 837.9629,-330.5 704.6826,-330.5"/>
<text text-anchor="middle" x="771.3228" y="-336.5" font-family="Helvetica,sans-Serif" font-size="10.00" fill="#000000">src/secp256k1/src/group.h</text>
</a>
</g>
</g>
<!-- Node5&#45;&gt;Node12 -->
<g id="edge8" class="edge">
<title>Node5&#45;&gt;Node12</title>
<path fill="none" stroke="#191970" d="M818.7967,-383.3221C806.7726,-372.2229 791.2489,-357.8933 781.2878,-348.6985"/>
<polygon fill="#191970" stroke="#191970" points="816.7286,-386.1763 826.4507,-390.3873 821.4766,-381.0326 816.7286,-386.1763"/>
</g>
<!-- Node19 -->
<g id="node15" class="node">
<title>Node19</title>
<g id="a_node15"><a xlink:href="ecdsa__impl_8h.html" target="_top" xlink:title="src/secp256k1/src/ecdsa\l_impl.h">
<polygon fill="#ffffff" stroke="#000000" points="740.2984,-130.5 740.2984,-158.5 866.3472,-158.5 866.3472,-130.5 740.2984,-130.5"/>
<text text-anchor="start" x="748.2984" y="-146.5" font-family="Helvetica,sans-Serif" font-size="10.00" fill="#000000">src/secp256k1/src/ecdsa</text>
<text text-anchor="middle" x="803.3228" y="-136.5" font-family="Helvetica,sans-Serif" font-size="10.00" fill="#000000">_impl.h</text>
</a>
</g>
</g>
<!-- Node5&#45;&gt;Node19 -->
<g id="edge46" class="edge">
<title>Node5&#45;&gt;Node19</title>
<path fill="none" stroke="#191970" d="M851.9457,-382.5496C883.6306,-346.037 949.1905,-258.1546 909.3228,-195 898.387,-177.6765 879.701,-166.1718 861.0354,-158.5869"/>
<polygon fill="#191970" stroke="#191970" points="849.0814,-380.5035 845.0502,-390.3014 854.3116,-385.1559 849.0814,-380.5035"/>
</g>
<!-- Node22 -->
<g id="node18" class="node">
<title>Node22</title>
<g id="a_node18"><a xlink:href="eckey__impl_8h.html" target="_top" xlink:title="src/secp256k1/src/eckey\l_impl.h">
<polygon fill="#ffffff" stroke="#000000" points="198.5791,-130.5 198.5791,-158.5 324.0664,-158.5 324.0664,-130.5 198.5791,-130.5"/>
<text text-anchor="start" x="206.5791" y="-146.5" font-family="Helvetica,sans-Serif" font-size="10.00" fill="#000000">src/secp256k1/src/eckey</text>
<text text-anchor="middle" x="261.3228" y="-136.5" font-family="Helvetica,sans-Serif" font-size="10.00" fill="#000000">_impl.h</text>
</a>
</g>
</g>
<!-- Node5&#45;&gt;Node22 -->
<g id="edge47" class="edge">
<title>Node5&#45;&gt;Node22</title>
<path fill="none" stroke="#191970" d="M763.071,-398.8748C616.7075,-396.8888 293.171,-388.5981 188.3228,-354 93.581,-322.7368 48.4729,-313.9525 5.3228,-224 -.2518,-212.379 -2.8617,-204.9568 5.3228,-195 29.3067,-165.8227 130.6614,-153.2295 198.4175,-147.9951"/>
<polygon fill="#191970" stroke="#191970" points="763.253,-402.3773 773.2975,-399.0071 763.3437,-395.3779 763.253,-402.3773"/>
</g>
<!-- Node25 -->
<g id="node21" class="node">
<title>Node25</title>
<g id="a_node21"><a xlink:href="field__10x26__impl_8h.html" target="_top" xlink:title="src/secp256k1/src/field\l_10x26_impl.h">
<polygon fill="#ffffff" stroke="#000000" points="978.4683,-325.5 978.4683,-353.5 1096.1773,-353.5 1096.1773,-325.5 978.4683,-325.5"/>
<text text-anchor="start" x="986.4683" y="-341.5" font-family="Helvetica,sans-Serif" font-size="10.00" fill="#000000">src/secp256k1/src/field</text>
<text text-anchor="middle" x="1037.3228" y="-331.5" font-family="Helvetica,sans-Serif" font-size="10.00" fill="#000000">_10x26_impl.h</text>
</a>
</g>
</g>
<!-- Node5&#45;&gt;Node25 -->
<g id="edge48" class="edge">
<title>Node5&#45;&gt;Node25</title>
<path fill="none" stroke="#191970" d="M876.5792,-387.4832C909.4263,-377.6781 955.8811,-363.8109 990.4093,-353.504"/>
<polygon fill="#191970" stroke="#191970" points="875.4314,-384.1731 866.8504,-390.3873 877.4337,-390.8806 875.4314,-384.1731"/>
</g>
<!-- Node26 -->
<g id="node22" class="node">
<title>Node26</title>
<g id="a_node22"><a xlink:href="field__5x52__impl_8h.html" target="_top" xlink:title="src/secp256k1/src/field\l_5x52_impl.h">
<polygon fill="#ffffff" stroke="#000000" points="1114.4683,-325.5 1114.4683,-353.5 1232.1773,-353.5 1232.1773,-325.5 1114.4683,-325.5"/>
<text text-anchor="start" x="1122.4683" y="-341.5" font-family="Helvetica,sans-Serif" font-size="10.00" fill="#000000">src/secp256k1/src/field</text>
<text text-anchor="middle" x="1173.3228" y="-331.5" font-family="Helvetica,sans-Serif" font-size="10.00" fill="#000000">_5x52_impl.h</text>
</a>
</g>
</g>
<!-- Node5&#45;&gt;Node26 -->
<g id="edge49" class="edge">
<title>Node5&#45;&gt;Node26</title>
<path fill="none" stroke="#191970" d="M903.7957,-388.903C958.2878,-380.1486 1036.8901,-367.0775 1105.3228,-354 1108.2869,-353.4336 1111.3206,-352.8395 1114.382,-352.2285"/>
<polygon fill="#191970" stroke="#191970" points="903.2299,-385.4489 893.9093,-390.4865 904.337,-392.3609 903.2299,-385.4489"/>
</g>
<!-- Node7 -->
<g id="node3" class="node">
<title>Node7</title>
<g id="a_node3"><a xlink:href="bench__internal_8c.html" target="_top" xlink:title="src/secp256k1/src/bench\l_internal.c">
<polygon fill="#ffffff" stroke="#000000" points="668.0176,-.5 668.0176,-28.5 794.628,-28.5 794.628,-.5 668.0176,-.5"/>
<text text-anchor="start" x="676.0176" y="-16.5" font-family="Helvetica,sans-Serif" font-size="10.00" fill="#000000">src/secp256k1/src/bench</text>
<text text-anchor="middle" x="731.3228" y="-6.5" font-family="Helvetica,sans-Serif" font-size="10.00" fill="#000000">_internal.c</text>
</a>
</g>
</g>
<!-- Node6&#45;&gt;Node7 -->
<g id="edge2" class="edge">
<title>Node6&#45;&gt;Node7</title>
<path fill="none" stroke="#191970" d="M86.8278,-186.3495C96.336,-168.1142 112.1027,-143.5786 133.3228,-130 333.8342,-1.6947 425.7499,-74.9433 659.3228,-29 662.0753,-28.4586 664.8864,-27.9032 667.7258,-27.3401"/>
<polygon fill="#191970" stroke="#191970" points="83.6123,-184.9559 82.3123,-195.4707 89.8857,-188.0616 83.6123,-184.9559"/>
</g>
<!-- Node8 -->
<g id="node4" class="node">
<title>Node8</title>
<g id="a_node4"><a xlink:href="secp256k1_8c.html" target="_top" xlink:title="src/secp256k1/src/secp256k1.c">
<polygon fill="#ffffff" stroke="#000000" points="528.5669,-70.5 528.5669,-88.5 684.0786,-88.5 684.0786,-70.5 528.5669,-70.5"/>
<text text-anchor="middle" x="606.3228" y="-76.5" font-family="Helvetica,sans-Serif" font-size="10.00" fill="#000000">src/secp256k1/src/secp256k1.c</text>
</a>
</g>
</g>
<!-- Node6&#45;&gt;Node8 -->
<g id="edge3" class="edge">
<title>Node6&#45;&gt;Node8</title>
<path fill="none" stroke="#191970" d="M98.5639,-188.7506C120.0449,-170.027 154.3787,-143.4253 189.3228,-130 249.4828,-106.8868 425.3514,-91.6167 528.4733,-84.3774"/>
<polygon fill="#191970" stroke="#191970" points="96.1276,-186.2334 90.9859,-195.497 100.7822,-191.4618 96.1276,-186.2334"/>
</g>
<!-- Node11 -->
<g id="node7" class="node">
<title>Node11</title>
<g id="a_node7"><a xlink:href="gen__context_8c.html" target="_top" xlink:title="src/secp256k1/src/gen\l_context.c">
<polygon fill="#ffffff" stroke="#000000" points="462.2984,-130.5 462.2984,-158.5 578.3472,-158.5 578.3472,-130.5 462.2984,-130.5"/>
<text text-anchor="start" x="470.2984" y="-146.5" font-family="Helvetica,sans-Serif" font-size="10.00" fill="#000000">src/secp256k1/src/gen</text>
<text text-anchor="middle" x="520.3228" y="-136.5" font-family="Helvetica,sans-Serif" font-size="10.00" fill="#000000">_context.c</text>
</a>
</g>
</g>
<!-- Node6&#45;&gt;Node11 -->
<g id="edge7" class="edge">
<title>Node6&#45;&gt;Node11</title>
<path fill="none" stroke="#191970" d="M149.114,-198.8436C236.6458,-186.0293 381.7966,-164.7797 462.2063,-153.008"/>
<polygon fill="#191970" stroke="#191970" points="148.383,-195.4133 138.9954,-200.3249 149.397,-202.3394 148.383,-195.4133"/>
</g>
<!-- Node8&#45;&gt;Node7 -->
<g id="edge4" class="edge">
<title>Node8&#45;&gt;Node7</title>
<path fill="none" stroke="#191970" d="M632.6861,-65.7911C653.6261,-54.9023 682.81,-39.7267 703.9972,-28.7093"/>
<polygon fill="#191970" stroke="#191970" points="630.9609,-62.7432 623.7035,-70.462 634.1904,-68.9537 630.9609,-62.7432"/>
</g>
<!-- Node9 -->
<g id="node5" class="node">
<title>Node9</title>
<g id="a_node5"><a xlink:href="tests_8c.html" target="_top" xlink:title="src/secp256k1/src/tests.c">
<polygon fill="#ffffff" stroke="#000000" points="522.1924,-5.5 522.1924,-23.5 650.4532,-23.5 650.4532,-5.5 522.1924,-5.5"/>
<text text-anchor="middle" x="586.3228" y="-11.5" font-family="Helvetica,sans-Serif" font-size="10.00" fill="#000000">src/secp256k1/src/tests.c</text>
</a>
</g>
</g>
<!-- Node8&#45;&gt;Node9 -->
<g id="edge5" class="edge">
<title>Node8&#45;&gt;Node9</title>
<path fill="none" stroke="#191970" d="M600.5884,-60.8634C596.8662,-48.7661 592.1736,-33.5151 589.2096,-23.8821"/>
<polygon fill="#191970" stroke="#191970" points="597.2557,-61.9336 603.5419,-70.462 603.9462,-59.8749 597.2557,-61.9336"/>
</g>
<!-- Node10 -->
<g id="node6" class="node">
<title>Node10</title>
<g id="a_node6"><a xlink:href="tests__exhaustive_8c.html" target="_top" xlink:title="src/secp256k1/src/tests\l_exhaustive.c">
<polygon fill="#ffffff" stroke="#000000" points="1024.0816,-.5 1024.0816,-28.5 1144.564,-28.5 1144.564,-.5 1024.0816,-.5"/>
<text text-anchor="start" x="1032.0816" y="-16.5" font-family="Helvetica,sans-Serif" font-size="10.00" fill="#000000">src/secp256k1/src/tests</text>
<text text-anchor="middle" x="1084.3228" y="-6.5" font-family="Helvetica,sans-Serif" font-size="10.00" fill="#000000">_exhaustive.c</text>
</a>
</g>
</g>
<!-- Node8&#45;&gt;Node10 -->
<g id="edge6" class="edge">
<title>Node8&#45;&gt;Node10</title>
<path fill="none" stroke="#191970" d="M682.6346,-69.1229C777.4531,-56.2291 937.3009,-34.4925 1024.0087,-22.7017"/>
<polygon fill="#191970" stroke="#191970" points="681.9727,-65.6806 672.5355,-70.4962 682.916,-72.6167 681.9727,-65.6806"/>
</g>
<!-- Node12&#45;&gt;Node6 -->
<g id="edge9" class="edge">
<title>Node12&#45;&gt;Node6</title>
<path fill="none" stroke="#191970" d="M694.2659,-336.2749C539.1998,-329.3417 200.1364,-311.7821 152.3228,-289 121.9847,-274.5446 97.4396,-242.3892 85.0616,-223.7037"/>
<polygon fill="#191970" stroke="#191970" points="694.5123,-339.7891 704.6576,-336.7359 694.8226,-332.796 694.5123,-339.7891"/>
</g>
<!-- Node12&#45;&gt;Node10 -->
<g id="edge45" class="edge">
<title>Node12&#45;&gt;Node10</title>
<path fill="none" stroke="#191970" d="M848.4476,-333.607C978.9376,-323.3116 1230.6291,-301.9179 1245.3228,-289 1272.6066,-265.0136 1264.3228,-245.8284 1264.3228,-209.5 1264.3228,-209.5 1264.3228,-209.5 1264.3228,-144.5 1264.3228,-81.6669 1191.3488,-46.1444 1138.3287,-28.6274"/>
<polygon fill="#191970" stroke="#191970" points="847.8149,-330.1458 838.1199,-334.4186 848.3634,-337.1243 847.8149,-330.1458"/>
</g>
<!-- Node13 -->
<g id="node9" class="node">
<title>Node13</title>
<g id="a_node9"><a xlink:href="scalar__impl_8h.html" target="_top" xlink:title="src/secp256k1/src/scalar\l_impl.h">
<polygon fill="#ffffff" stroke="#000000" points="530.3033,-195.5 530.3033,-223.5 656.3423,-223.5 656.3423,-195.5 530.3033,-195.5"/>
<text text-anchor="start" x="538.3033" y="-211.5" font-family="Helvetica,sans-Serif" font-size="10.00" fill="#000000">src/secp256k1/src/scalar</text>
<text text-anchor="middle" x="593.3228" y="-201.5" font-family="Helvetica,sans-Serif" font-size="10.00" fill="#000000">_impl.h</text>
</a>
</g>
</g>
<!-- Node12&#45;&gt;Node13 -->
<g id="edge10" class="edge">
<title>Node12&#45;&gt;Node13</title>
<path fill="none" stroke="#191970" d="M721.6143,-327.5782C696.465,-319.7115 666.6276,-307.388 644.3228,-289 622.5601,-271.0589 607.0188,-241.3386 599.1629,-223.7663"/>
<polygon fill="#191970" stroke="#191970" points="720.77,-330.9786 731.3531,-330.4791 722.7684,-324.2699 720.77,-330.9786"/>
</g>
<!-- Node14 -->
<g id="node10" class="node">
<title>Node14</title>
<g id="a_node10"><a xlink:href="ecmult__const__impl_8h.html" target="_top" xlink:title="src/secp256k1/src/ecmult\l_const_impl.h">
<polygon fill="#ffffff" stroke="#000000" points="990.9141,-130.5 990.9141,-158.5 1119.7315,-158.5 1119.7315,-130.5 990.9141,-130.5"/>
<text text-anchor="start" x="998.9141" y="-146.5" font-family="Helvetica,sans-Serif" font-size="10.00" fill="#000000">src/secp256k1/src/ecmult</text>
<text text-anchor="middle" x="1055.3228" y="-136.5" font-family="Helvetica,sans-Serif" font-size="10.00" fill="#000000">_const_impl.h</text>
</a>
</g>
</g>
<!-- Node12&#45;&gt;Node14 -->
<g id="edge14" class="edge">
<title>Node12&#45;&gt;Node14</title>
<path fill="none" stroke="#191970" d="M831.2609,-328.473C921.0932,-310.5385 1083.5383,-272.1607 1115.3228,-224 1130.9433,-200.3314 1101.926,-174.3614 1079.0524,-158.7522"/>
<polygon fill="#191970" stroke="#191970" points="830.3438,-325.0864 821.2098,-330.4549 831.698,-331.9542 830.3438,-325.0864"/>
</g>
<!-- Node16 -->
<g id="node12" class="node">
<title>Node16</title>
<g id="a_node12"><a xlink:href="ecmult__const_8h.html" target="_top" xlink:title="src/secp256k1/src/ecmult\l_const.h">
<polygon fill="#ffffff" stroke="#000000" points="1107.9141,-260.5 1107.9141,-288.5 1236.7315,-288.5 1236.7315,-260.5 1107.9141,-260.5"/>
<text text-anchor="start" x="1115.9141" y="-276.5" font-family="Helvetica,sans-Serif" font-size="10.00" fill="#000000">src/secp256k1/src/ecmult</text>
<text text-anchor="middle" x="1172.3228" y="-266.5" font-family="Helvetica,sans-Serif" font-size="10.00" fill="#000000">_const.h</text>
</a>
</g>
</g>
<!-- Node12&#45;&gt;Node16 -->
<g id="edge18" class="edge">
<title>Node12&#45;&gt;Node16</title>
<path fill="none" stroke="#191970" d="M842.6421,-328.9504C908.1551,-319.117 1007.8963,-303.7863 1094.3228,-289 1098.6672,-288.2567 1103.1443,-287.4727 1107.653,-286.6697"/>
<polygon fill="#191970" stroke="#191970" points="841.7999,-325.5374 832.4288,-330.4804 842.8371,-332.4601 841.7999,-325.5374"/>
</g>
<!-- Node17 -->
<g id="node13" class="node">
<title>Node17</title>
<g id="a_node13"><a xlink:href="ecmult__impl_8h.html" target="_top" xlink:title="src/secp256k1/src/ecmult\l_impl.h">
<polygon fill="#ffffff" stroke="#000000" points="977.9141,-195.5 977.9141,-223.5 1106.7315,-223.5 1106.7315,-195.5 977.9141,-195.5"/>
<text text-anchor="start" x="985.9141" y="-211.5" font-family="Helvetica,sans-Serif" font-size="10.00" fill="#000000">src/secp256k1/src/ecmult</text>
<text text-anchor="middle" x="1042.3228" y="-201.5" font-family="Helvetica,sans-Serif" font-size="10.00" fill="#000000">_impl.h</text>
</a>
</g>
</g>
<!-- Node12&#45;&gt;Node17 -->
<g id="edge20" class="edge">
<title>Node12&#45;&gt;Node17</title>
<path fill="none" stroke="#191970" d="M818.9448,-327.7925C850.3306,-319.1658 891.8473,-305.9904 926.3228,-289 963.99,-270.4366 1003.4062,-240.9302 1025.2175,-223.5653"/>
<polygon fill="#191970" stroke="#191970" points="817.8795,-324.4546 809.1323,-330.4327 819.6983,-331.2142 817.8795,-324.4546"/>
</g>
<!-- Node18 -->
<g id="node14" class="node">
<title>Node18</title>
<g id="a_node14"><a xlink:href="ecmult_8h.html" target="_top" xlink:title="src/secp256k1/src/ecmult.h">
<polygon fill="#ffffff" stroke="#000000" points="653.7442,-265.5 653.7442,-283.5 790.9014,-283.5 790.9014,-265.5 653.7442,-265.5"/>
<text text-anchor="middle" x="722.3228" y="-271.5" font-family="Helvetica,sans-Serif" font-size="10.00" fill="#000000">src/secp256k1/src/ecmult.h</text>
</a>
</g>
</g>
<!-- Node12&#45;&gt;Node18 -->
<g id="edge24" class="edge">
<title>Node12&#45;&gt;Node18</title>
<path fill="none" stroke="#191970" d="M758.367,-322.3137C749.0901,-310.0077 736.9507,-293.9043 729.3955,-283.8821"/>
<polygon fill="#191970" stroke="#191970" points="755.695,-324.5837 764.5095,-330.462 761.2847,-320.3699 755.695,-324.5837"/>
</g>
<!-- Node12&#45;&gt;Node19 -->
<g id="edge41" class="edge">
<title>Node12&#45;&gt;Node19</title>
<path fill="none" stroke="#191970" d="M796.0746,-325.0013C825.6392,-306.0758 873.5753,-269.8886 893.3228,-224 898.4176,-212.1608 899.8356,-206.1224 893.3228,-195 883.4547,-178.1474 865.6738,-166.4908 848.5074,-158.6605"/>
<polygon fill="#191970" stroke="#191970" points="794.1816,-322.0569 787.5407,-330.3121 797.8802,-328 794.1816,-322.0569"/>
</g>
<!-- Node20 -->
<g id="node16" class="node">
<title>Node20</title>
<g id="a_node16"><a xlink:href="ecdsa_8h.html" target="_top" xlink:title="src/secp256k1/src/ecdsa.h">
<polygon fill="#ffffff" stroke="#000000" points="750.1284,-200.5 750.1284,-218.5 884.5171,-218.5 884.5171,-200.5 750.1284,-200.5"/>
<text text-anchor="middle" x="817.3228" y="-206.5" font-family="Helvetica,sans-Serif" font-size="10.00" fill="#000000">src/secp256k1/src/ecdsa.h</text>
</a>
</g>
</g>
<!-- Node12&#45;&gt;Node20 -->
<g id="edge42" class="edge">
<title>Node12&#45;&gt;Node20</title>
<path fill="none" stroke="#191970" d="M783.2861,-321.827C789.1714,-312.4282 795.927,-300.4704 800.3228,-289 809.7173,-264.4862 814.4346,-233.6265 816.3119,-218.583"/>
<polygon fill="#191970" stroke="#191970" points="780.3209,-319.9668 777.8106,-330.26 786.1919,-323.7788 780.3209,-319.9668"/>
</g>
<!-- Node21 -->
<g id="node17" class="node">
<title>Node21</title>
<g id="a_node17"><a xlink:href="eckey_8h.html" target="_top" xlink:title="src/secp256k1/src/eckey.h">
<polygon fill="#ffffff" stroke="#000000" points="194.7779,-200.5 194.7779,-218.5 327.8677,-218.5 327.8677,-200.5 194.7779,-200.5"/>
<text text-anchor="middle" x="261.3228" y="-206.5" font-family="Helvetica,sans-Serif" font-size="10.00" fill="#000000">src/secp256k1/src/eckey.h</text>
</a>
</g>
</g>
<!-- Node12&#45;&gt;Node21 -->
<g id="edge43" class="edge">
<title>Node12&#45;&gt;Node21</title>
<path fill="none" stroke="#191970" d="M694.1566,-334.0582C595.8317,-326.3676 431.8479,-310.7875 375.3228,-289 331.87,-272.2512 289.1412,-235.5707 270.7422,-218.5313"/>
<polygon fill="#191970" stroke="#191970" points="694.1013,-337.5643 704.3412,-334.845 694.6405,-330.5851 694.1013,-337.5643"/>
</g>
<!-- Node12&#45;&gt;Node22 -->
<g id="edge44" class="edge">
<title>Node12&#45;&gt;Node22</title>
<path fill="none" stroke="#191970" d="M694.3705,-334.025C584.5531,-325.6761 388.6079,-308.6443 320.3228,-289 256.3258,-270.5893 220.7543,-280.3842 185.3228,-224 178.4651,-213.0869 179.2324,-206.3592 185.3228,-195 194.081,-178.665 210.7083,-166.7129 226.1826,-158.5494"/>
<polygon fill="#191970" stroke="#191970" points="694.1623,-337.5192 704.3972,-334.7814 694.6889,-330.539 694.1623,-337.5192"/>
</g>
<!-- Node23 -->
<g id="node19" class="node">
<title>Node23</title>
<g id="a_node19"><a xlink:href="ecmult__gen__impl_8h.html" target="_top" xlink:title="src/secp256k1/src/ecmult\l_gen_impl.h">
<polygon fill="#ffffff" stroke="#000000" points="383.9141,-195.5 383.9141,-223.5 512.7315,-223.5 512.7315,-195.5 383.9141,-195.5"/>
<text text-anchor="start" x="391.9141" y="-211.5" font-family="Helvetica,sans-Serif" font-size="10.00" fill="#000000">src/secp256k1/src/ecmult</text>
<text text-anchor="middle" x="448.3228" y="-201.5" font-family="Helvetica,sans-Serif" font-size="10.00" fill="#000000">_gen_impl.h</text>
</a>
</g>
</g>
<!-- Node12&#45;&gt;Node23 -->
<g id="edge33" class="edge">
<title>Node12&#45;&gt;Node23</title>
<path fill="none" stroke="#191970" d="M729.1093,-327.6143C697.1874,-318.2209 652.4883,-304.1961 614.3228,-289 563.8544,-268.9054 507.2118,-240.4411 474.8506,-223.5844"/>
<polygon fill="#191970" stroke="#191970" points="728.4202,-331.059 739.0001,-330.4969 730.3789,-324.3386 728.4202,-331.059"/>
</g>
<!-- Node24 -->
<g id="node20" class="node">
<title>Node24</title>
<g id="a_node20"><a xlink:href="ecmult__gen_8h.html" target="_top" xlink:title="src/secp256k1/src/ecmult\l_gen.h">
<polygon fill="#ffffff" stroke="#000000" points="383.9141,-260.5 383.9141,-288.5 512.7315,-288.5 512.7315,-260.5 383.9141,-260.5"/>
<text text-anchor="start" x="391.9141" y="-276.5" font-family="Helvetica,sans-Serif" font-size="10.00" fill="#000000">src/secp256k1/src/ecmult</text>
<text text-anchor="middle" x="448.3228" y="-266.5" font-family="Helvetica,sans-Serif" font-size="10.00" fill="#000000">_gen.h</text>
</a>
</g>
</g>
<!-- Node12&#45;&gt;Node24 -->
<g id="edge36" class="edge">
<title>Node12&#45;&gt;Node24</title>
<path fill="none" stroke="#191970" d="M716.27,-328.4213C659.9446,-317.0864 572.4733,-299.4838 512.9103,-287.4975"/>
<polygon fill="#191970" stroke="#191970" points="715.917,-331.9203 726.411,-330.462 717.2981,-325.0579 715.917,-331.9203"/>
</g>
<!-- Node13&#45;&gt;Node7 -->
<g id="edge11" class="edge">
<title>Node13&#45;&gt;Node7</title>
<path fill="none" stroke="#191970" d="M615.1067,-187.9835C636.7743,-165.7997 670.0576,-129.5303 693.3228,-94 707.4015,-72.4991 719.3671,-44.9803 725.9299,-28.6018"/>
<polygon fill="#191970" stroke="#191970" points="612.4983,-185.6436 607.9625,-195.2184 617.4792,-190.5621 612.4983,-185.6436"/>
</g>
<!-- Node13&#45;&gt;Node8 -->
<g id="edge12" class="edge">
<title>Node13&#45;&gt;Node8</title>
<path fill="none" stroke="#191970" d="M595.7601,-185.1272C598.6838,-155.8902 603.4381,-108.3469 605.4154,-88.5736"/>
<polygon fill="#191970" stroke="#191970" points="592.2513,-185.0416 594.7388,-195.3402 599.2165,-185.7382 592.2513,-185.0416"/>
</g>
<!-- Node13&#45;&gt;Node11 -->
<g id="edge13" class="edge">
<title>Node13&#45;&gt;Node11</title>
<path fill="none" stroke="#191970" d="M569.848,-188.5978C558.8253,-178.7831 545.9785,-167.3442 536.1318,-158.5765"/>
<polygon fill="#191970" stroke="#191970" points="567.6869,-191.3599 577.4829,-195.396 572.3419,-186.132 567.6869,-191.3599"/>
</g>
<!-- Node14&#45;&gt;Node7 -->
<g id="edge15" class="edge">
<title>Node14&#45;&gt;Node7</title>
<path fill="none" stroke="#191970" d="M1028.4289,-124.0207C999.1326,-101.8517 955.2345,-69.0918 946.3228,-65 897.8884,-42.7617 838.6655,-29.7847 794.6489,-22.5679"/>
<polygon fill="#191970" stroke="#191970" points="1026.5468,-126.986 1036.63,-130.2384 1030.7758,-121.4079 1026.5468,-126.986"/>
</g>
<!-- Node14&#45;&gt;Node8 -->
<g id="edge16" class="edge">
<title>Node14&#45;&gt;Node8</title>
<path fill="none" stroke="#191970" d="M980.4017,-133.654C893.0118,-121.0029 750.1389,-100.3197 668.5815,-88.513"/>
<polygon fill="#191970" stroke="#191970" points="980.1155,-137.1489 990.5138,-135.1179 981.1185,-130.2212 980.1155,-137.1489"/>
</g>
<!-- Node15 -->
<g id="node11" class="node">
<title>Node15</title>
<g id="a_node11"><a xlink:href="ecdh_2main__impl_8h.html" target="_top" xlink:title="src/secp256k1/src/modules\l/ecdh/main_impl.h">
<polygon fill="#ffffff" stroke="#000000" points="998.7417,-65.5 998.7417,-93.5 1135.9038,-93.5 1135.9038,-65.5 998.7417,-65.5"/>
<text text-anchor="start" x="1006.7417" y="-81.5" font-family="Helvetica,sans-Serif" font-size="10.00" fill="#000000">src/secp256k1/src/modules</text>
<text text-anchor="middle" x="1067.3228" y="-71.5" font-family="Helvetica,sans-Serif" font-size="10.00" fill="#000000">/ecdh/main_impl.h</text>
</a>
</g>
</g>
<!-- Node14&#45;&gt;Node15 -->
<g id="edge17" class="edge">
<title>Node14&#45;&gt;Node15</title>
<path fill="none" stroke="#191970" d="M1059.7715,-120.4029C1061.439,-111.3703 1063.2783,-101.4078 1064.724,-93.5765"/>
<polygon fill="#191970" stroke="#191970" points="1056.3003,-119.9267 1057.9266,-130.396 1063.184,-121.1976 1056.3003,-119.9267"/>
</g>
<!-- Node16&#45;&gt;Node14 -->
<g id="edge19" class="edge">
<title>Node16&#45;&gt;Node14</title>
<path fill="none" stroke="#191970" d="M1169.8709,-250.0649C1167.072,-233.0492 1161.0905,-210.6838 1148.3228,-195 1134.9838,-178.6144 1114.8619,-166.7595 1096.7429,-158.6713"/>
<polygon fill="#191970" stroke="#191970" points="1166.456,-250.9224 1171.2899,-260.3502 1173.3903,-249.9656 1166.456,-250.9224"/>
</g>
<!-- Node17&#45;&gt;Node7 -->
<g id="edge22" class="edge">
<title>Node17&#45;&gt;Node7</title>
<path fill="none" stroke="#191970" d="M1011.3058,-190.0521C948.7327,-150.8181 808.6877,-63.0086 753.9043,-28.6589"/>
<polygon fill="#191970" stroke="#191970" points="1009.6248,-193.1291 1019.9564,-195.4761 1013.3434,-187.1985 1009.6248,-193.1291"/>
</g>
<!-- Node17&#45;&gt;Node8 -->
<g id="edge23" class="edge">
<title>Node17&#45;&gt;Node8</title>
<path fill="none" stroke="#191970" d="M992.412,-191.8812C969.3561,-183.0627 941.9209,-171.5884 918.3228,-159 897.9845,-148.1505 896.6478,-138.7523 875.3228,-130 813.8903,-104.7866 739.3662,-92.0518 684.3511,-85.6853"/>
<polygon fill="#191970" stroke="#191970" points="991.4091,-195.2434 1002.001,-195.4935 993.8769,-188.6928 991.4091,-195.2434"/>
</g>
<!-- Node17&#45;&gt;Node14 -->
<g id="edge21" class="edge">
<title>Node17&#45;&gt;Node14</title>
<path fill="none" stroke="#191970" d="M1047.1422,-185.4029C1048.9487,-176.3703 1050.9412,-166.4078 1052.5075,-158.5765"/>
<polygon fill="#191970" stroke="#191970" points="1043.6728,-184.9037 1045.1436,-195.396 1050.5369,-186.2766 1043.6728,-184.9037"/>
</g>
<!-- Node18&#45;&gt;Node17 -->
<g id="edge25" class="edge">
<title>Node18&#45;&gt;Node17</title>
<path fill="none" stroke="#191970" d="M776.8317,-263.4279C832.4476,-252.1309 918.7389,-234.603 977.7465,-222.617"/>
<polygon fill="#191970" stroke="#191970" points="775.9206,-260.0414 766.8174,-265.462 777.314,-266.9013 775.9206,-260.0414"/>
</g>
<!-- Node18&#45;&gt;Node19 -->
<g id="edge26" class="edge">
<title>Node18&#45;&gt;Node19</title>
<path fill="none" stroke="#191970" d="M723.4745,-255.0925C725.2567,-238.1098 729.7915,-213.3547 741.3228,-195 750.702,-180.0708 766.034,-167.5257 779.1043,-158.6734"/>
<polygon fill="#191970" stroke="#191970" points="719.9556,-255.1817 722.6282,-265.4339 726.9322,-255.7527 719.9556,-255.1817"/>
</g>
<!-- Node18&#45;&gt;Node20 -->
<g id="edge28" class="edge">
<title>Node18&#45;&gt;Node20</title>
<path fill="none" stroke="#191970" d="M743.9068,-259.732C762.3561,-247.1088 788.3228,-229.3421 803.9194,-218.6708"/>
<polygon fill="#191970" stroke="#191970" points="741.8088,-256.9266 735.5321,-265.462 745.7616,-262.7037 741.8088,-256.9266"/>
</g>
<!-- Node18&#45;&gt;Node21 -->
<g id="edge30" class="edge">
<title>Node18&#45;&gt;Node21</title>
<path fill="none" stroke="#191970" d="M648.1524,-264.0421C558.7021,-251.4298 409.8485,-230.4418 325.2488,-218.5134"/>
<polygon fill="#191970" stroke="#191970" points="647.832,-267.5315 658.2227,-265.462 648.8093,-260.6001 647.832,-267.5315"/>
</g>
<!-- Node19&#45;&gt;Node8 -->
<g id="edge27" class="edge">
<title>Node19&#45;&gt;Node8</title>
<path fill="none" stroke="#191970" d="M750.7883,-127.1663C713.1642,-114.7522 664.0063,-98.5326 633.8249,-88.5743"/>
<polygon fill="#191970" stroke="#191970" points="749.9836,-130.5863 760.5767,-130.396 752.177,-123.9388 749.9836,-130.5863"/>
</g>
<!-- Node20&#45;&gt;Node19 -->
<g id="edge29" class="edge">
<title>Node20&#45;&gt;Node19</title>
<path fill="none" stroke="#191970" d="M813.2494,-190.5879C811.0762,-180.4981 808.4441,-168.2774 806.4364,-158.9559"/>
<polygon fill="#191970" stroke="#191970" points="809.849,-191.4232 815.3761,-200.462 816.692,-189.9492 809.849,-191.4232"/>
</g>
<!-- Node21&#45;&gt;Node22 -->
<g id="edge31" class="edge">
<title>Node21&#45;&gt;Node22</title>
<path fill="none" stroke="#191970" d="M261.3228,-190.2652C261.3228,-180.2384 261.3228,-168.1782 261.3228,-158.9559"/>
<polygon fill="#191970" stroke="#191970" points="257.8229,-190.462 261.3228,-200.462 264.8229,-190.4621 257.8229,-190.462"/>
</g>
<!-- Node22&#45;&gt;Node8 -->
<g id="edge32" class="edge">
<title>Node22&#45;&gt;Node8</title>
<path fill="none" stroke="#191970" d="M334.3424,-130.7427C401.8487,-118.0241 500.2354,-99.4875 558.3201,-88.544"/>
<polygon fill="#191970" stroke="#191970" points="333.379,-127.3625 324.1999,-132.6536 334.6751,-134.2415 333.379,-127.3625"/>
</g>
<!-- Node23&#45;&gt;Node8 -->
<g id="edge34" class="edge">
<title>Node23&#45;&gt;Node8</title>
<path fill="none" stroke="#191970" d="M443.1971,-184.8639C441.1043,-167.7527 441.4689,-145.3559 453.3228,-130 466.7405,-112.6184 521.246,-97.5627 561.3959,-88.5174"/>
<polygon fill="#191970" stroke="#191970" points="439.815,-185.8859 444.8311,-195.218 446.7294,-184.7946 439.815,-185.8859"/>
</g>
<!-- Node23&#45;&gt;Node11 -->
<g id="edge35" class="edge">
<title>Node23&#45;&gt;Node11</title>
<path fill="none" stroke="#191970" d="M471.476,-188.5978C482.3477,-178.7831 495.0185,-167.3442 504.7303,-158.5765"/>
<polygon fill="#191970" stroke="#191970" points="469.023,-186.097 463.9457,-195.396 473.7138,-191.2929 469.023,-186.097"/>
</g>
<!-- Node24&#45;&gt;Node19 -->
<g id="edge38" class="edge">
<title>Node24&#45;&gt;Node19</title>
<path fill="none" stroke="#191970" d="M522.9862,-262.7393C565.6118,-254.6501 619.5181,-242.0643 665.3228,-224 688.6008,-214.8197 747.9475,-178.8794 780.723,-158.6086"/>
<polygon fill="#191970" stroke="#191970" points="522.156,-259.3335 512.962,-264.5986 523.4326,-266.2161 522.156,-259.3335"/>
</g>
<!-- Node24&#45;&gt;Node21 -->
<g id="edge39" class="edge">
<title>Node24&#45;&gt;Node21</title>
<path fill="none" stroke="#191970" d="M397.9985,-257.0076C362.344,-244.6143 315.9563,-228.4903 287.4289,-218.5743"/>
<polygon fill="#191970" stroke="#191970" points="397.1518,-260.4186 407.7466,-260.396 399.4501,-253.8067 397.1518,-260.4186"/>
</g>
<!-- Node24&#45;&gt;Node22 -->
<g id="edge40" class="edge">
<title>Node24&#45;&gt;Node22</title>
<path fill="none" stroke="#191970" d="M418.9836,-254.6639C405.5705,-245.4779 389.5364,-234.3314 375.3228,-224 358.1377,-211.5088 354.624,-207.3299 337.3228,-195 319.5197,-182.3123 298.8258,-168.6288 283.5312,-158.71"/>
<polygon fill="#191970" stroke="#191970" points="417.141,-257.6437 427.374,-260.389 421.0865,-251.8615 417.141,-257.6437"/>
</g>
<!-- Node24&#45;&gt;Node23 -->
<g id="edge37" class="edge">
<title>Node24&#45;&gt;Node23</title>
<path fill="none" stroke="#191970" d="M448.3228,-250.1081C448.3228,-241.1539 448.3228,-231.3227 448.3228,-223.5765"/>
<polygon fill="#191970" stroke="#191970" points="444.8229,-250.3959 448.3228,-260.396 451.8229,-250.396 444.8229,-250.3959"/>
</g>
</g>
</svg>
