<?xml version="1.0" encoding="UTF-8" standalone="no"?>
<!DOCTYPE svg PUBLIC "-//W3C//DTD SVG 1.1//EN"
 "http://www.w3.org/Graphics/SVG/1.1/DTD/svg11.dtd">
<!-- Generated by graphviz version 2.40.1 (20161225.0304)
 -->
<!-- Title: src/compat/glibc_compat.cpp Pages: 1 -->
<svg width="154pt" height="82pt"
 viewBox="0.00 0.00 153.50 82.00" xmlns="http://www.w3.org/2000/svg" xmlns:xlink="http://www.w3.org/1999/xlink">
<g id="graph0" class="graph" transform="scale(1 1) rotate(0) translate(4 78)">
<title>src/compat/glibc_compat.cpp</title>
<polygon fill="#ffffff" stroke="transparent" points="-4,4 -4,-78 149.502,-78 149.502,4 -4,4"/>
<!-- Node0 -->
<g id="node1" class="node">
<title>Node0</title>
<polygon fill="#bfbfbf" stroke="#000000" points="0,-55.5 0,-73.5 145.502,-73.5 145.502,-55.5 0,-55.5"/>
<text text-anchor="middle" x="72.751" y="-61.5" font-family="Helvetica,sans-Serif" font-size="10.00" fill="#000000">src/compat/glibc_compat.cpp</text>
</g>
<!-- Node1 -->
<g id="node2" class="node">
<title>Node1</title>
<polygon fill="#ffffff" stroke="#bfbfbf" points="16.6304,-.5 16.6304,-18.5 64.8716,-18.5 64.8716,-.5 16.6304,-.5"/>
<text text-anchor="middle" x="40.751" y="-6.5" font-family="Helvetica,sans-Serif" font-size="10.00" fill="#000000">cstddef</text>
</g>
<!-- Node0&#45;&gt;Node1 -->
<g id="edge1" class="edge">
<title>Node0&#45;&gt;Node1</title>
<path fill="none" stroke="#191970" d="M67.4668,-55.4179C63.0927,-47.8998 56.741,-36.9829 51.3283,-27.6799"/>
<polygon fill="#191970" stroke="#191970" points="54.2041,-25.6628 46.1499,-18.7795 48.1537,-29.1831 54.2041,-25.6628"/>
</g>
<!-- Node2 -->
<g id="node3" class="node">
<title>Node2</title>
<polygon fill="#ffffff" stroke="#bfbfbf" points="83.3003,-.5 83.3003,-18.5 128.2017,-18.5 128.2017,-.5 83.3003,-.5"/>
<text text-anchor="middle" x="105.751" y="-6.5" font-family="Helvetica,sans-Serif" font-size="10.00" fill="#000000">cstdint</text>
</g>
<!-- Node0&#45;&gt;Node2 -->
<g id="edge2" class="edge">
<title>Node0&#45;&gt;Node2</title>
<path fill="none" stroke="#191970" d="M78.2003,-55.4179C82.7586,-47.8207 89.3994,-36.7527 95.019,-27.3866"/>
<polygon fill="#191970" stroke="#191970" points="98.0395,-29.1552 100.1833,-18.7795 92.0371,-25.5536 98.0395,-29.1552"/>
</g>
</g>
</svg>
