<?xml version="1.0" encoding="UTF-8" standalone="no"?>
<!DOCTYPE svg PUBLIC "-//W3C//DTD SVG 1.1//EN"
 "http://www.w3.org/Graphics/SVG/1.1/DTD/svg11.dtd">
<!-- Generated by graphviz version 2.40.1 (20161225.0304)
 -->
<!-- Title: CWallet::AddCScript Pages: 1 -->
<svg width="1352pt" height="148pt"
 viewBox="0.00 0.00 1351.55 148.00" xmlns="http://www.w3.org/2000/svg" xmlns:xlink="http://www.w3.org/1999/xlink">
<g id="graph0" class="graph" transform="scale(1 1) rotate(0) translate(4 144)">
<title>CWallet::AddCScript</title>
<polygon fill="#ffffff" stroke="transparent" points="-4,4 -4,-144 1347.5498,-144 1347.5498,4 -4,4"/>
<!-- Node72 -->
<g id="node1" class="node">
<title>Node72</title>
<polygon fill="#bfbfbf" stroke="#000000" points="0,-34.5 0,-52.5 106.7715,-52.5 106.7715,-34.5 0,-34.5"/>
<text text-anchor="middle" x="53.3857" y="-40.5" font-family="Helvetica,sans-Serif" font-size="10.00" fill="#000000">CWallet::AddCScript</text>
</g>
<!-- Node73 -->
<g id="node2" class="node">
<title>Node73</title>
<g id="a_node2"><a xlink:href="class_c_wallet.html#a209237e7f3f95ca6f5faab3357c2340b" target="_top" xlink:title="Explicitly make the wallet learn the related scripts for outputs to the given key. ">
<polygon fill="#ffffff" stroke="#000000" points="142.7715,-34.5 142.7715,-52.5 289.5723,-52.5 289.5723,-34.5 142.7715,-34.5"/>
<text text-anchor="middle" x="216.1719" y="-40.5" font-family="Helvetica,sans-Serif" font-size="10.00" fill="#000000">CWallet::LearnRelatedScripts</text>
</a>
</g>
</g>
<!-- Node72&#45;&gt;Node73 -->
<g id="edge1" class="edge">
<title>Node72&#45;&gt;Node73</title>
<path fill="none" stroke="#191970" d="M117.1973,-43.5C125.57,-43.5 134.2033,-43.5 142.7195,-43.5"/>
<polygon fill="#191970" stroke="#191970" points="117.1392,-40.0001 107.1392,-43.5 117.1391,-47.0001 117.1392,-40.0001"/>
</g>
<!-- Node74 -->
<g id="node3" class="node">
<title>Node74</title>
<g id="a_node3"><a xlink:href="class_c_wallet.html#a3289f497f44df1ad3d758ee2291bece4" target="_top" xlink:title="Same as LearnRelatedScripts, but when the OutputType is not known (and could be anything). ">
<polygon fill="#ffffff" stroke="#000000" points="325.5723,-29.5 325.5723,-57.5 452.9248,-57.5 452.9248,-29.5 325.5723,-29.5"/>
<text text-anchor="start" x="333.5723" y="-45.5" font-family="Helvetica,sans-Serif" font-size="10.00" fill="#000000">CWallet::LearnAllRelated</text>
<text text-anchor="middle" x="389.2485" y="-35.5" font-family="Helvetica,sans-Serif" font-size="10.00" fill="#000000">Scripts</text>
</a>
</g>
</g>
<!-- Node73&#45;&gt;Node74 -->
<g id="edge2" class="edge">
<title>Node73&#45;&gt;Node74</title>
<path fill="none" stroke="#191970" d="M299.8952,-43.5C308.5074,-43.5 317.1567,-43.5 325.5016,-43.5"/>
<polygon fill="#191970" stroke="#191970" points="299.823,-40.0001 289.8229,-43.5 299.8229,-47.0001 299.823,-40.0001"/>
</g>
<!-- Node75 -->
<g id="node4" class="node">
<title>Node75</title>
<g id="a_node4"><a xlink:href="group___actions.html#ga23a900513e363e8e79d604cab9a7c7fc" target="_top" xlink:title="Marks all keys in the keypool up to and including reserve_key as used. ">
<polygon fill="#ffffff" stroke="#000000" points="488.9248,-50.5 488.9248,-78.5 626.8096,-78.5 626.8096,-50.5 488.9248,-50.5"/>
<text text-anchor="start" x="496.9248" y="-66.5" font-family="Helvetica,sans-Serif" font-size="10.00" fill="#000000">CWallet::MarkReserveKeys</text>
<text text-anchor="middle" x="557.8672" y="-56.5" font-family="Helvetica,sans-Serif" font-size="10.00" fill="#000000">AsUsed</text>
</a>
</g>
</g>
<!-- Node74&#45;&gt;Node75 -->
<g id="edge3" class="edge">
<title>Node74&#45;&gt;Node75</title>
<path fill="none" stroke="#191970" d="M462.9432,-52.678C471.493,-53.7428 480.1907,-54.8261 488.6772,-55.883"/>
<polygon fill="#191970" stroke="#191970" points="463.3519,-49.202 452.996,-51.4392 462.4868,-56.1483 463.3519,-49.202"/>
</g>
<!-- Node83 -->
<g id="node12" class="node">
<title>Node83</title>
<g id="a_node12"><a xlink:href="rpcwallet_8cpp.html#a2f46e2bb304dda9a197b5a68db6106f7" target="_top" xlink:title="importprivkey">
<polygon fill="#ffffff" stroke="#000000" points="520.1382,-13.5 520.1382,-31.5 595.5962,-31.5 595.5962,-13.5 520.1382,-13.5"/>
<text text-anchor="middle" x="557.8672" y="-19.5" font-family="Helvetica,sans-Serif" font-size="10.00" fill="#000000">importprivkey</text>
</a>
</g>
</g>
<!-- Node74&#45;&gt;Node83 -->
<g id="edge11" class="edge">
<title>Node74&#45;&gt;Node83</title>
<path fill="none" stroke="#191970" d="M463.1618,-34.2947C482.7785,-31.8516 503.1576,-29.3136 519.9635,-27.2206"/>
<polygon fill="#191970" stroke="#191970" points="462.4868,-30.8517 452.996,-35.5608 463.3519,-37.798 462.4868,-30.8517"/>
</g>
<!-- Node76 -->
<g id="node5" class="node">
<title>Node76</title>
<g id="a_node5"><a xlink:href="group__map_wallet.html#gaee8f634287d083737471595f658da519" target="_top" xlink:title="Add a transaction to the wallet, or update it. ">
<polygon fill="#ffffff" stroke="#000000" points="662.8096,-55.5 662.8096,-73.5 833.6924,-73.5 833.6924,-55.5 662.8096,-55.5"/>
<text text-anchor="middle" x="748.251" y="-61.5" font-family="Helvetica,sans-Serif" font-size="10.00" fill="#000000">CWallet::AddToWalletIfInvolvingMe</text>
</a>
</g>
</g>
<!-- Node75&#45;&gt;Node76 -->
<g id="edge4" class="edge">
<title>Node75&#45;&gt;Node76</title>
<path fill="none" stroke="#191970" d="M637.0505,-64.5C645.4827,-64.5 654.0873,-64.5 662.5895,-64.5"/>
<polygon fill="#191970" stroke="#191970" points="636.8693,-61.0001 626.8693,-64.5 636.8692,-68.0001 636.8693,-61.0001"/>
</g>
<!-- Node77 -->
<g id="node6" class="node">
<title>Node77</title>
<g id="a_node6"><a xlink:href="group__map_wallet.html#ga09e75fcbc98be305e68e99495570687c" target="_top" xlink:title="CWallet::SyncTransaction">
<polygon fill="#ffffff" stroke="#000000" points="869.6924,-55.5 869.6924,-73.5 999.999,-73.5 999.999,-55.5 869.6924,-55.5"/>
<text text-anchor="middle" x="934.8457" y="-61.5" font-family="Helvetica,sans-Serif" font-size="10.00" fill="#000000">CWallet::SyncTransaction</text>
</a>
</g>
</g>
<!-- Node76&#45;&gt;Node77 -->
<g id="edge5" class="edge">
<title>Node76&#45;&gt;Node77</title>
<path fill="none" stroke="#191970" d="M844.0296,-64.5C852.6603,-64.5 861.2626,-64.5 869.5409,-64.5"/>
<polygon fill="#191970" stroke="#191970" points="843.9027,-61.0001 833.9027,-64.5 843.9026,-68.0001 843.9027,-61.0001"/>
</g>
<!-- Node78 -->
<g id="node7" class="node">
<title>Node78</title>
<g id="a_node7"><a xlink:href="group__map_wallet.html#gae44ec090ec7c87725fb22d33887ad1a7" target="_top" xlink:title="Notifies listeners of a transaction having been added to mempool. ">
<polygon fill="#ffffff" stroke="#000000" points="1056.646,-111.5 1056.646,-139.5 1193.6372,-139.5 1193.6372,-111.5 1056.646,-111.5"/>
<text text-anchor="start" x="1064.646" y="-127.5" font-family="Helvetica,sans-Serif" font-size="10.00" fill="#000000">CWallet::TransactionAdded</text>
<text text-anchor="middle" x="1125.1416" y="-117.5" font-family="Helvetica,sans-Serif" font-size="10.00" fill="#000000">ToMempool</text>
</a>
</g>
</g>
<!-- Node77&#45;&gt;Node78 -->
<g id="edge6" class="edge">
<title>Node77&#45;&gt;Node78</title>
<path fill="none" stroke="#191970" d="M966.5483,-77.406C986.3326,-85.2105 1012.4322,-95.0565 1035.999,-102.5 1045.9056,-105.629 1056.5283,-108.6518 1066.8649,-111.4206"/>
<polygon fill="#191970" stroke="#191970" points="967.6895,-74.0933 957.1041,-73.6466 965.1006,-80.5969 967.6895,-74.0933"/>
</g>
<!-- Node79 -->
<g id="node8" class="node">
<title>Node79</title>
<g id="a_node8"><a xlink:href="group__map_wallet.html#ga8871fb58a2872900558d69d71baddfca" target="_top" xlink:title="Notifies listeners of a block being connected. ">
<polygon fill="#ffffff" stroke="#000000" points="1060.6328,-74.5 1060.6328,-92.5 1189.6504,-92.5 1189.6504,-74.5 1060.6328,-74.5"/>
<text text-anchor="middle" x="1125.1416" y="-80.5" font-family="Helvetica,sans-Serif" font-size="10.00" fill="#000000">CWallet::BlockConnected</text>
</a>
</g>
</g>
<!-- Node77&#45;&gt;Node79 -->
<g id="edge7" class="edge">
<title>Node77&#45;&gt;Node79</title>
<path fill="none" stroke="#191970" d="M1010.2558,-72.0293C1026.8211,-73.6832 1044.2213,-75.4205 1060.3265,-77.0286"/>
<polygon fill="#191970" stroke="#191970" points="1010.3668,-68.523 1000.0685,-71.0121 1009.6713,-75.4884 1010.3668,-68.523"/>
</g>
<!-- Node80 -->
<g id="node9" class="node">
<title>Node80</title>
<g id="a_node9"><a xlink:href="group__map_wallet.html#ga3aa53a08f7071c42c0ef82ea468d19ae" target="_top" xlink:title="Notifies listeners of a block being disconnected. ">
<polygon fill="#ffffff" stroke="#000000" points="1054.522,-37.5 1054.522,-55.5 1195.7612,-55.5 1195.7612,-37.5 1054.522,-37.5"/>
<text text-anchor="middle" x="1125.1416" y="-43.5" font-family="Helvetica,sans-Serif" font-size="10.00" fill="#000000">CWallet::BlockDisconnected</text>
</a>
</g>
</g>
<!-- Node77&#45;&gt;Node80 -->
<g id="edge8" class="edge">
<title>Node77&#45;&gt;Node80</title>
<path fill="none" stroke="#191970" d="M1010.0745,-57.3841C1024.7055,-56.0002 1039.9944,-54.554 1054.4721,-53.1846"/>
<polygon fill="#191970" stroke="#191970" points="1009.6945,-53.9044 1000.0685,-58.3306 1010.3537,-60.8733 1009.6945,-53.9044"/>
</g>
<!-- Node81 -->
<g id="node10" class="node">
<title>Node81</title>
<g id="a_node10"><a xlink:href="group__map_wallet.html#gaabb1db808d082d6df2b1e37cbf3f8f98" target="_top" xlink:title="Scan the block chain (starting in pindexStart) for transactions from or to us. ">
<polygon fill="#ffffff" stroke="#000000" points="1035.999,-.5 1035.999,-18.5 1214.2842,-18.5 1214.2842,-.5 1035.999,-.5"/>
<text text-anchor="middle" x="1125.1416" y="-6.5" font-family="Helvetica,sans-Serif" font-size="10.00" fill="#000000">CWallet::ScanForWalletTransactions</text>
</a>
</g>
</g>
<!-- Node77&#45;&gt;Node81 -->
<g id="edge9" class="edge">
<title>Node77&#45;&gt;Node81</title>
<path fill="none" stroke="#191970" d="M966.8909,-51.8722C986.612,-44.4082 1012.5244,-35.1476 1035.999,-28.5 1049.2448,-24.749 1063.7831,-21.3531 1077.2054,-18.5042"/>
<polygon fill="#191970" stroke="#191970" points="965.5546,-48.636 957.4671,-55.4802 968.0574,-55.1733 965.5546,-48.636"/>
</g>
<!-- Node82 -->
<g id="node11" class="node">
<title>Node82</title>
<g id="a_node11"><a xlink:href="rpcwallet_8cpp.html#a151535abf7394b299deb8d0a333de70b" target="_top" xlink:title="rescanblockchain">
<polygon fill="#ffffff" stroke="#000000" points="1250.2842,-.5 1250.2842,-18.5 1343.5498,-18.5 1343.5498,-.5 1250.2842,-.5"/>
<text text-anchor="middle" x="1296.917" y="-6.5" font-family="Helvetica,sans-Serif" font-size="10.00" fill="#000000">rescanblockchain</text>
</a>
</g>
</g>
<!-- Node81&#45;&gt;Node82 -->
<g id="edge10" class="edge">
<title>Node81&#45;&gt;Node82</title>
<path fill="none" stroke="#191970" d="M1224.444,-9.5C1233.3731,-9.5 1242.1039,-9.5 1250.2374,-9.5"/>
<polygon fill="#191970" stroke="#191970" points="1224.2997,-6.0001 1214.2997,-9.5 1224.2997,-13.0001 1224.2997,-6.0001"/>
</g>
</g>
</svg>
