<?xml version="1.0" encoding="UTF-8" standalone="no"?>
<!DOCTYPE svg PUBLIC "-//W3C//DTD SVG 1.1//EN"
 "http://www.w3.org/Graphics/SVG/1.1/DTD/svg11.dtd">
<!-- Generated by graphviz version 2.40.1 (20161225.0304)
 -->
<!-- Title: CWalletTx::GetConflicts Pages: 1 -->
<svg width="276pt" height="64pt"
 viewBox="0.00 0.00 276.42 64.00" xmlns="http://www.w3.org/2000/svg" xmlns:xlink="http://www.w3.org/1999/xlink">
<g id="graph0" class="graph" transform="scale(1 1) rotate(0) translate(4 60)">
<title>CWalletTx::GetConflicts</title>
<polygon fill="#ffffff" stroke="transparent" points="-4,4 -4,-60 272.4248,-60 272.4248,4 -4,4"/>
<!-- Node1220 -->
<g id="node1" class="node">
<title>Node1220</title>
<polygon fill="#bfbfbf" stroke="#000000" points="0,-18.5 0,-36.5 121.7666,-36.5 121.7666,-18.5 0,-18.5"/>
<text text-anchor="middle" x="60.8833" y="-24.5" font-family="Helvetica,sans-Serif" font-size="10.00" fill="#000000">CWalletTx::GetConflicts</text>
</g>
<!-- Node1221 -->
<g id="node2" class="node">
<title>Node1221</title>
<g id="a_node2"><a xlink:href="class_c_merkle_tx.html#a20142f81e7ff0242db646e63e0a973b3" target="_top" xlink:title="CMerkleTx::GetHash">
<polygon fill="#ffffff" stroke="#000000" points="158.4185,-37.5 158.4185,-55.5 267.7729,-55.5 267.7729,-37.5 158.4185,-37.5"/>
<text text-anchor="middle" x="213.0957" y="-43.5" font-family="Helvetica,sans-Serif" font-size="10.00" fill="#000000">CMerkleTx::GetHash</text>
</a>
</g>
</g>
<!-- Node1220&#45;&gt;Node1221 -->
<g id="edge1" class="edge">
<title>Node1220&#45;&gt;Node1221</title>
<path fill="none" stroke="#191970" d="M121.9169,-35.1185C130.4772,-36.1871 139.3025,-37.2887 147.9359,-38.3664"/>
<polygon fill="#191970" stroke="#191970" points="147.5987,-41.8514 157.9552,-39.6171 148.4658,-34.9053 147.5987,-41.8514"/>
</g>
<!-- Node1222 -->
<g id="node3" class="node">
<title>Node1222</title>
<g id="a_node3"><a xlink:href="group__map_wallet.html#gadff799a202f6ae33e17771f940e1232d" target="_top" xlink:title="Get wallet transactions that conflict with given transaction (spend same outputs) ...">
<polygon fill="#ffffff" stroke="#000000" points="157.7666,-.5 157.7666,-18.5 268.4248,-18.5 268.4248,-.5 157.7666,-.5"/>
<text text-anchor="middle" x="213.0957" y="-6.5" font-family="Helvetica,sans-Serif" font-size="10.00" fill="#000000">CWallet::GetConflicts</text>
</a>
</g>
</g>
<!-- Node1220&#45;&gt;Node1222 -->
<g id="edge2" class="edge">
<title>Node1220&#45;&gt;Node1222</title>
<path fill="none" stroke="#191970" d="M121.9169,-20.2824C130.2665,-19.295 138.8683,-18.2778 147.2982,-17.2809"/>
<polygon fill="#191970" stroke="#191970" points="147.9474,-20.7286 157.4671,-16.0784 147.1252,-13.7771 147.9474,-20.7286"/>
</g>
</g>
</svg>
