<?xml version="1.0" encoding="UTF-8" standalone="no"?>
<!DOCTYPE svg PUBLIC "-//W3C//DTD SVG 1.1//EN"
 "http://www.w3.org/Graphics/SVG/1.1/DTD/svg11.dtd">
<!-- Generated by graphviz version 2.40.1 (20161225.0304)
 -->
<!-- Title: CWallet::ListCoins Pages: 1 -->
<svg width="1734pt" height="353pt"
 viewBox="0.00 0.00 1733.73 353.00" xmlns="http://www.w3.org/2000/svg" xmlns:xlink="http://www.w3.org/1999/xlink">
<g id="graph0" class="graph" transform="scale(1 1) rotate(0) translate(4 349)">
<title>CWallet::ListCoins</title>
<polygon fill="#ffffff" stroke="transparent" points="-4,4 -4,-349 1729.7295,-349 1729.7295,4 -4,4"/>
<!-- Node543 -->
<g id="node1" class="node">
<title>Node543</title>
<polygon fill="#bfbfbf" stroke="#000000" points="0,-100.5 0,-118.5 97.3232,-118.5 97.3232,-100.5 0,-100.5"/>
<text text-anchor="middle" x="48.6616" y="-106.5" font-family="Helvetica,sans-Serif" font-size="10.00" fill="#000000">CWallet::ListCoins</text>
</g>
<!-- Node544 -->
<g id="node2" class="node">
<title>Node544</title>
<g id="a_node2"><a xlink:href="group___actions.html#gaa7b36dcdaf3f8053d2781dfcf33f1c59" target="_top" xlink:title="populate vCoins with vector of available COutputs. ">
<polygon fill="#ffffff" stroke="#000000" points="151.4824,-195.5 151.4824,-213.5 273.6494,-213.5 273.6494,-195.5 151.4824,-195.5"/>
<text text-anchor="middle" x="212.5659" y="-201.5" font-family="Helvetica,sans-Serif" font-size="10.00" fill="#000000">CWallet::AvailableCoins</text>
</a>
</g>
</g>
<!-- Node543&#45;&gt;Node544 -->
<g id="edge1" class="edge">
<title>Node543&#45;&gt;Node544</title>
<path fill="none" stroke="#191970" d="M57.151,-118.7139C71.4696,-133.7339 101.9426,-163.5204 133.3232,-180.5 142.1414,-185.2714 152.0369,-189.2243 161.7681,-192.4507"/>
<polygon fill="#191970" stroke="#191970" points="160.8105,-195.8181 171.3985,-195.4382 162.8846,-189.1324 160.8105,-195.8181"/>
</g>
<!-- Node545 -->
<g id="node3" class="node">
<title>Node545</title>
<g id="a_node3"><a xlink:href="standard_8cpp.html#a951f7e601746ae076afdf3169ecca2fc" target="_top" xlink:title="Parse a standard scriptPubKey for the destination address. ">
<polygon fill="#ffffff" stroke="#000000" points="462.8115,-138.5 462.8115,-156.5 559.959,-156.5 559.959,-138.5 462.8115,-138.5"/>
<text text-anchor="middle" x="511.3853" y="-144.5" font-family="Helvetica,sans-Serif" font-size="10.00" fill="#000000">ExtractDestination</text>
</a>
</g>
</g>
<!-- Node543&#45;&gt;Node545 -->
<g id="edge2" class="edge">
<title>Node543&#45;&gt;Node545</title>
<path fill="none" stroke="#191970" d="M75.4061,-118.5993C91.9051,-123.831 113.6122,-130.0343 133.3232,-133.5 244.8407,-153.1077 377.6066,-152.6562 452.4332,-150.2698"/>
<polygon fill="#191970" stroke="#191970" points="452.7242,-153.762 462.5987,-149.9222 452.4849,-146.7661 452.7242,-153.762"/>
</g>
<!-- Node578 -->
<g id="node36" class="node">
<title>Node578</title>
<g id="a_node36"><a xlink:href="group___actions.html#ga3fe7c57257caedccbe96c0bb085ca16f" target="_top" xlink:title="Find non&#45;change parent output. ">
<polygon fill="#ffffff" stroke="#000000" points="133.3232,-95.5 133.3232,-123.5 291.8086,-123.5 291.8086,-95.5 133.3232,-95.5"/>
<text text-anchor="start" x="141.3232" y="-111.5" font-family="Helvetica,sans-Serif" font-size="10.00" fill="#000000">CWallet::FindNonChangeParent</text>
<text text-anchor="middle" x="212.5659" y="-101.5" font-family="Helvetica,sans-Serif" font-size="10.00" fill="#000000">Output</text>
</a>
</g>
</g>
<!-- Node543&#45;&gt;Node578 -->
<g id="edge44" class="edge">
<title>Node543&#45;&gt;Node578</title>
<path fill="none" stroke="#191970" d="M97.3945,-109.5C105.6219,-109.5 114.387,-109.5 123.2681,-109.5"/>
<polygon fill="#191970" stroke="#191970" points="123.3219,-113.0001 133.3219,-109.5 123.3219,-106.0001 123.3219,-113.0001"/>
</g>
<!-- Node580 -->
<g id="node38" class="node">
<title>Node580</title>
<g id="a_node38"><a xlink:href="group__map_wallet.html#ga4eada57edc1c443564b8cc9b853d955c" target="_top" xlink:title="CWallet::IsMine">
<polygon fill="#ffffff" stroke="#000000" points="468.561,-81.5 468.561,-99.5 554.2095,-99.5 554.2095,-81.5 468.561,-81.5"/>
<text text-anchor="middle" x="511.3853" y="-87.5" font-family="Helvetica,sans-Serif" font-size="10.00" fill="#000000">CWallet::IsMine</text>
</a>
</g>
</g>
<!-- Node543&#45;&gt;Node580 -->
<g id="edge50" class="edge">
<title>Node543&#45;&gt;Node580</title>
<path fill="none" stroke="#191970" d="M73.8323,-100.3865C90.4687,-94.8584 112.8952,-88.3395 133.3232,-85.5 248.1204,-69.543 384.4088,-77.976 457.9336,-84.7456"/>
<polygon fill="#191970" stroke="#191970" points="458.0305,-88.2704 468.316,-85.7292 458.6908,-81.3016 458.0305,-88.2704"/>
</g>
<!-- Node581 -->
<g id="node39" class="node">
<title>Node581</title>
<g id="a_node39"><a xlink:href="group___actions.html#ga36d7d63b90c5af26e08b03481bf540fc" target="_top" xlink:title="CWallet::ListLockedCoins">
<polygon fill="#ffffff" stroke="#000000" points="147.7813,-5.5 147.7813,-23.5 277.3506,-23.5 277.3506,-5.5 147.7813,-5.5"/>
<text text-anchor="middle" x="212.5659" y="-11.5" font-family="Helvetica,sans-Serif" font-size="10.00" fill="#000000">CWallet::ListLockedCoins</text>
</a>
</g>
</g>
<!-- Node543&#45;&gt;Node581 -->
<g id="edge49" class="edge">
<title>Node543&#45;&gt;Node581</title>
<path fill="none" stroke="#191970" d="M57.151,-100.2861C71.4696,-85.2661 101.9426,-55.4796 133.3232,-38.5 142.1414,-33.7286 152.0369,-29.7757 161.7681,-26.5493"/>
<polygon fill="#191970" stroke="#191970" points="162.8846,-29.8676 171.3985,-23.5618 160.8105,-23.1819 162.8846,-29.8676"/>
</g>
<!-- Node546 -->
<g id="node4" class="node">
<title>Node546</title>
<g id="a_node4"><a xlink:href="standard_8cpp.html#a5a3369fceeb25173e2faa4a7ebc7a4e4" target="_top" xlink:title="Parse a scriptPubKey and identify script type for standard scripts. ">
<polygon fill="#ffffff" stroke="#000000" points="620.3267,-224.5 620.3267,-242.5 664.6714,-242.5 664.6714,-224.5 620.3267,-224.5"/>
<text text-anchor="middle" x="642.499" y="-230.5" font-family="Helvetica,sans-Serif" font-size="10.00" fill="#000000">Solver</text>
</a>
</g>
</g>
<!-- Node545&#45;&gt;Node546 -->
<g id="edge3" class="edge">
<title>Node545&#45;&gt;Node546</title>
<path fill="none" stroke="#191970" d="M525.4167,-156.7035C548.0894,-171.575 592.9745,-201.0159 620.1058,-218.8118"/>
<polygon fill="#191970" stroke="#191970" points="618.287,-221.8046 628.5684,-224.3627 622.1263,-215.9514 618.287,-221.8046"/>
</g>
<!-- Node557 -->
<g id="node15" class="node">
<title>Node557</title>
<g id="a_node15"><a xlink:href="class_c_pub_key.html#a4fa94293cf8577fd039b9a133f6c7f30" target="_top" xlink:title="CPubKey::IsValid">
<polygon fill="#ffffff" stroke="#000000" points="595.959,-157.5 595.959,-175.5 689.0391,-175.5 689.0391,-157.5 595.959,-157.5"/>
<text text-anchor="middle" x="642.499" y="-163.5" font-family="Helvetica,sans-Serif" font-size="10.00" fill="#000000">CPubKey::IsValid</text>
</a>
</g>
</g>
<!-- Node545&#45;&gt;Node557 -->
<g id="edge19" class="edge">
<title>Node545&#45;&gt;Node557</title>
<path fill="none" stroke="#191970" d="M560.2072,-154.5749C568.5801,-155.7882 577.3433,-157.0581 585.899,-158.298"/>
<polygon fill="#191970" stroke="#191970" points="585.413,-161.764 595.8117,-159.7344 586.417,-154.8364 585.413,-161.764"/>
</g>
<!-- Node560 -->
<g id="node18" class="node">
<title>Node560</title>
<g id="a_node18"><a xlink:href="class_c_pub_key.html#a2675f7e6f72eff68e7a5227289feb021" target="_top" xlink:title="Get the KeyID of this public key (hash of its serialization) ">
<polygon fill="#ffffff" stroke="#000000" points="597.5386,-120.5 597.5386,-138.5 687.4595,-138.5 687.4595,-120.5 597.5386,-120.5"/>
<text text-anchor="middle" x="642.499" y="-126.5" font-family="Helvetica,sans-Serif" font-size="10.00" fill="#000000">CPubKey::GetID</text>
</a>
</g>
</g>
<!-- Node545&#45;&gt;Node560 -->
<g id="edge22" class="edge">
<title>Node545&#45;&gt;Node560</title>
<path fill="none" stroke="#191970" d="M560.2072,-140.7975C569.0943,-139.5774 578.4211,-138.297 587.4728,-137.0543"/>
<polygon fill="#191970" stroke="#191970" points="588.1066,-140.5002 597.5376,-135.6725 587.1545,-133.5652 588.1066,-140.5002"/>
</g>
<!-- Node577 -->
<g id="node35" class="node">
<title>Node577</title>
<g id="a_node35"><a xlink:href="classbase__blob.html#aeee68e00ceeacf49086e98b661e017ff" target="_top" xlink:title="base_blob::begin">
<polygon fill="#ffffff" stroke="#000000" points="596.4106,-83.5 596.4106,-101.5 688.5874,-101.5 688.5874,-83.5 596.4106,-83.5"/>
<text text-anchor="middle" x="642.499" y="-89.5" font-family="Helvetica,sans-Serif" font-size="10.00" fill="#000000">base_blob::begin</text>
</a>
</g>
</g>
<!-- Node545&#45;&gt;Node577 -->
<g id="edge43" class="edge">
<title>Node545&#45;&gt;Node577</title>
<path fill="none" stroke="#191970" d="M532.5503,-138.388C549.6351,-131.0574 574.3075,-120.5272 595.959,-111.5 600.7694,-109.4944 605.8682,-107.3905 610.8589,-105.3435"/>
<polygon fill="#191970" stroke="#191970" points="612.2867,-108.541 620.219,-101.5175 609.6381,-102.0614 612.2867,-108.541"/>
</g>
<!-- Node547 -->
<g id="node5" class="node">
<title>Node547</title>
<g id="a_node5"><a xlink:href="class_c_script.html#a0c3729c606d318923dc06f95d85a0971" target="_top" xlink:title="CScript::IsPayToScriptHash">
<polygon fill="#ffffff" stroke="#000000" points="725.0391,-195.5 725.0391,-213.5 863.8564,-213.5 863.8564,-195.5 725.0391,-195.5"/>
<text text-anchor="middle" x="794.4478" y="-201.5" font-family="Helvetica,sans-Serif" font-size="10.00" fill="#000000">CScript::IsPayToScriptHash</text>
</a>
</g>
</g>
<!-- Node546&#45;&gt;Node547 -->
<g id="edge4" class="edge">
<title>Node546&#45;&gt;Node547</title>
<path fill="none" stroke="#191970" d="M664.9196,-229.221C683.9409,-225.5907 712.0747,-220.2212 737.2669,-215.4132"/>
<polygon fill="#191970" stroke="#191970" points="737.9489,-218.8463 747.1155,-213.5335 736.6366,-211.9704 737.9489,-218.8463"/>
</g>
<!-- Node550 -->
<g id="node8" class="node">
<title>Node550</title>
<g id="a_node8"><a xlink:href="classprevector.html#aa9210cbe708412a70868d6e0bca844c9" target="_top" xlink:title="prevector::begin">
<polygon fill="#ffffff" stroke="#000000" points="914.0215,-326.5 914.0215,-344.5 1001.7305,-344.5 1001.7305,-326.5 914.0215,-326.5"/>
<text text-anchor="middle" x="957.876" y="-332.5" font-family="Helvetica,sans-Serif" font-size="10.00" fill="#000000">prevector::begin</text>
</a>
</g>
</g>
<!-- Node546&#45;&gt;Node550 -->
<g id="edge7" class="edge">
<title>Node546&#45;&gt;Node550</title>
<path fill="none" stroke="#191970" d="M655.6327,-242.5603C671.4407,-253.0828 699.1052,-270.2978 725.0391,-280.5 784.2192,-303.7811 855.8967,-318.8878 903.9536,-327.2703"/>
<polygon fill="#191970" stroke="#191970" points="903.3905,-330.7248 913.8369,-328.9576 904.5685,-323.8246 903.3905,-330.7248"/>
</g>
<!-- Node554 -->
<g id="node12" class="node">
<title>Node554</title>
<g id="a_node12"><a xlink:href="class_c_script.html#ae6f2ab1af6361c5772f62b28b19f5eae" target="_top" xlink:title="CScript::IsWitnessProgram">
<polygon fill="#ffffff" stroke="#000000" points="726.4355,-252.5 726.4355,-270.5 862.46,-270.5 862.46,-252.5 726.4355,-252.5"/>
<text text-anchor="middle" x="794.4478" y="-258.5" font-family="Helvetica,sans-Serif" font-size="10.00" fill="#000000">CScript::IsWitnessProgram</text>
</a>
</g>
</g>
<!-- Node546&#45;&gt;Node554 -->
<g id="edge12" class="edge">
<title>Node546&#45;&gt;Node554</title>
<path fill="none" stroke="#191970" d="M664.9196,-237.6315C683.494,-241.0543 710.7576,-246.0782 735.4863,-250.635"/>
<polygon fill="#191970" stroke="#191970" points="735.0651,-254.1163 745.5338,-252.4865 736.3337,-247.2322 735.0651,-254.1163"/>
</g>
<!-- Node548 -->
<g id="node6" class="node">
<title>Node548</title>
<g id="a_node6"><a xlink:href="classprevector.html#a626f7d206dbc24e5610631809762758b" target="_top" xlink:title="prevector::size">
<polygon fill="#ffffff" stroke="#000000" points="1070.7896,-214.5 1070.7896,-232.5 1151.814,-232.5 1151.814,-214.5 1070.7896,-214.5"/>
<text text-anchor="middle" x="1111.3018" y="-220.5" font-family="Helvetica,sans-Serif" font-size="10.00" fill="#000000">prevector::size</text>
</a>
</g>
</g>
<!-- Node547&#45;&gt;Node548 -->
<g id="edge5" class="edge">
<title>Node547&#45;&gt;Node548</title>
<path fill="none" stroke="#191970" d="M863.8855,-203.8785C907.5841,-204.029 965.1221,-205.2179 1015.8955,-209.5 1030.393,-210.7227 1046.0424,-212.7286 1060.3909,-214.8452"/>
<polygon fill="#191970" stroke="#191970" points="1060.1608,-218.3504 1070.5739,-216.3962 1061.215,-211.4302 1060.1608,-218.3504"/>
</g>
<!-- Node549 -->
<g id="node7" class="node">
<title>Node549</title>
<g id="a_node7"><a xlink:href="classprevector.html#a933e204a7e29c6bbc85479d023c00ff8" target="_top" xlink:title="prevector::is_direct">
<polygon fill="#ffffff" stroke="#000000" points="1220.9829,-215.5 1220.9829,-233.5 1321.4604,-233.5 1321.4604,-215.5 1220.9829,-215.5"/>
<text text-anchor="middle" x="1271.2217" y="-221.5" font-family="Helvetica,sans-Serif" font-size="10.00" fill="#000000">prevector::is_direct</text>
</a>
</g>
</g>
<!-- Node548&#45;&gt;Node549 -->
<g id="edge6" class="edge">
<title>Node548&#45;&gt;Node549</title>
<path fill="none" stroke="#191970" d="M1152.0701,-223.7549C1169.8796,-223.8663 1191.1354,-223.9992 1210.7302,-224.1217"/>
<polygon fill="#191970" stroke="#191970" points="1210.7769,-227.622 1220.7987,-224.1847 1210.8208,-220.6221 1210.7769,-227.622"/>
</g>
<!-- Node551 -->
<g id="node9" class="node">
<title>Node551</title>
<g id="a_node9"><a xlink:href="classprevector.html#a59f1d7bcbc751cfa0faddd7ffa184846" target="_top" xlink:title="prevector::item_ptr">
<polygon fill="#ffffff" stroke="#000000" points="1061.6196,-252.5 1061.6196,-270.5 1160.9839,-270.5 1160.9839,-252.5 1061.6196,-252.5"/>
<text text-anchor="middle" x="1111.3018" y="-258.5" font-family="Helvetica,sans-Serif" font-size="10.00" fill="#000000">prevector::item_ptr</text>
</a>
</g>
</g>
<!-- Node550&#45;&gt;Node551 -->
<g id="edge8" class="edge">
<title>Node550&#45;&gt;Node551</title>
<path fill="none" stroke="#191970" d="M991.7994,-326.4108C999.8308,-323.8678 1008.2737,-320.8654 1015.8955,-317.5 1042.3185,-305.833 1070.6224,-288.5475 1089.4783,-276.2713"/>
<polygon fill="#191970" stroke="#191970" points="1091.5094,-279.1244 1097.9263,-270.6938 1087.6526,-273.2827 1091.5094,-279.1244"/>
</g>
<!-- Node551&#45;&gt;Node549 -->
<g id="edge9" class="edge">
<title>Node551&#45;&gt;Node549</title>
<path fill="none" stroke="#191970" d="M1150.4226,-252.4488C1172.0903,-247.4356 1199.2271,-241.1571 1222.2885,-235.8215"/>
<polygon fill="#191970" stroke="#191970" points="1223.2742,-239.1859 1232.2279,-233.5218 1221.6963,-232.3661 1223.2742,-239.1859"/>
</g>
<!-- Node552 -->
<g id="node10" class="node">
<title>Node552</title>
<g id="a_node10"><a xlink:href="classprevector.html#a20150a43dd87c33f0e855a55bd3418e8" target="_top" xlink:title="prevector::direct_ptr">
<polygon fill="#ffffff" stroke="#000000" points="1218.7588,-252.5 1218.7588,-270.5 1323.6846,-270.5 1323.6846,-252.5 1218.7588,-252.5"/>
<text text-anchor="middle" x="1271.2217" y="-258.5" font-family="Helvetica,sans-Serif" font-size="10.00" fill="#000000">prevector::direct_ptr</text>
</a>
</g>
</g>
<!-- Node551&#45;&gt;Node552 -->
<g id="edge10" class="edge">
<title>Node551&#45;&gt;Node552</title>
<path fill="none" stroke="#191970" d="M1161.0248,-261.5C1175.9923,-261.5 1192.6176,-261.5 1208.3219,-261.5"/>
<polygon fill="#191970" stroke="#191970" points="1208.4823,-265.0001 1218.4823,-261.5 1208.4823,-258.0001 1208.4823,-265.0001"/>
</g>
<!-- Node553 -->
<g id="node11" class="node">
<title>Node553</title>
<g id="a_node11"><a xlink:href="classprevector.html#ae3343cc65be9fd678b4a6f8305624de6" target="_top" xlink:title="prevector::indirect_ptr">
<polygon fill="#ffffff" stroke="#000000" points="1214.8672,-289.5 1214.8672,-307.5 1327.5762,-307.5 1327.5762,-289.5 1214.8672,-289.5"/>
<text text-anchor="middle" x="1271.2217" y="-295.5" font-family="Helvetica,sans-Serif" font-size="10.00" fill="#000000">prevector::indirect_ptr</text>
</a>
</g>
</g>
<!-- Node551&#45;&gt;Node553 -->
<g id="edge11" class="edge">
<title>Node551&#45;&gt;Node553</title>
<path fill="none" stroke="#191970" d="M1150.4226,-270.5512C1172.0903,-275.5644 1199.2271,-281.8429 1222.2885,-287.1785"/>
<polygon fill="#191970" stroke="#191970" points="1221.6963,-290.6339 1232.2279,-289.4782 1223.2742,-283.8141 1221.6963,-290.6339"/>
</g>
<!-- Node554&#45;&gt;Node548 -->
<g id="edge13" class="edge">
<title>Node554&#45;&gt;Node548</title>
<path fill="none" stroke="#191970" d="M842.6098,-252.4956C860.5372,-249.3498 881.0842,-245.9871 899.8564,-243.5 954.5628,-236.2521 1017.5708,-230.6433 1060.4771,-227.2341"/>
<polygon fill="#191970" stroke="#191970" points="1060.9683,-230.7064 1070.6643,-226.436 1060.4215,-223.7278 1060.9683,-230.7064"/>
</g>
<!-- Node554&#45;&gt;Node550 -->
<g id="edge15" class="edge">
<title>Node554&#45;&gt;Node550</title>
<path fill="none" stroke="#191970" d="M809.3736,-270.5842C829.414,-282.5092 866.379,-303.5591 899.8564,-317.5 904.7214,-319.5259 909.8977,-321.4467 915.0784,-323.2263"/>
<polygon fill="#191970" stroke="#191970" points="914.3733,-326.6782 924.9659,-326.4649 916.5522,-320.026 914.3733,-326.6782"/>
</g>
<!-- Node555 -->
<g id="node13" class="node">
<title>Node555</title>
<g id="a_node13"><a xlink:href="class_c_script.html#a7f975fca06b3e9a17da8ba23c7647e2e" target="_top" xlink:title="Encode/decode small integers: ">
<polygon fill="#ffffff" stroke="#000000" points="899.8564,-289.5 899.8564,-307.5 1015.8955,-307.5 1015.8955,-289.5 899.8564,-289.5"/>
<text text-anchor="middle" x="957.876" y="-295.5" font-family="Helvetica,sans-Serif" font-size="10.00" fill="#000000">CScript::DecodeOP_N</text>
</a>
</g>
</g>
<!-- Node554&#45;&gt;Node555 -->
<g id="edge14" class="edge">
<title>Node554&#45;&gt;Node555</title>
<path fill="none" stroke="#191970" d="M834.4268,-270.5512C856.6691,-275.5869 884.5508,-281.8992 908.1861,-287.2503"/>
<polygon fill="#191970" stroke="#191970" points="907.5007,-290.6836 918.0268,-289.4782 909.0465,-283.8564 907.5007,-290.6836"/>
</g>
<!-- Node556 -->
<g id="node14" class="node">
<title>Node556</title>
<g id="a_node14"><a xlink:href="classprevector.html#aab7f6e13a3cac85cc340fc6b90c5365c" target="_top" xlink:title="prevector::end">
<polygon fill="#ffffff" stroke="#000000" points="917.9131,-252.5 917.9131,-270.5 997.8389,-270.5 997.8389,-252.5 917.9131,-252.5"/>
<text text-anchor="middle" x="957.876" y="-258.5" font-family="Helvetica,sans-Serif" font-size="10.00" fill="#000000">prevector::end</text>
</a>
</g>
</g>
<!-- Node554&#45;&gt;Node556 -->
<g id="edge16" class="edge">
<title>Node554&#45;&gt;Node556</title>
<path fill="none" stroke="#191970" d="M862.8091,-261.5C877.8713,-261.5 893.5557,-261.5 907.7399,-261.5"/>
<polygon fill="#191970" stroke="#191970" points="907.7727,-265.0001 917.7727,-261.5 907.7727,-258.0001 907.7727,-265.0001"/>
</g>
<!-- Node556&#45;&gt;Node548 -->
<g id="edge18" class="edge">
<title>Node556&#45;&gt;Node548</title>
<path fill="none" stroke="#191970" d="M994.2357,-252.4945C1015.4632,-247.237 1042.4534,-240.5521 1065.1672,-234.9265"/>
<polygon fill="#191970" stroke="#191970" points="1066.0722,-238.3081 1074.9374,-232.5066 1064.3893,-231.5135 1066.0722,-238.3081"/>
</g>
<!-- Node556&#45;&gt;Node551 -->
<g id="edge17" class="edge">
<title>Node556&#45;&gt;Node551</title>
<path fill="none" stroke="#191970" d="M998.1868,-261.5C1014.3663,-261.5 1033.3582,-261.5 1051.1108,-261.5"/>
<polygon fill="#191970" stroke="#191970" points="1051.3894,-265.0001 1061.3894,-261.5 1051.3894,-258.0001 1051.3894,-265.0001"/>
</g>
<!-- Node558 -->
<g id="node16" class="node">
<title>Node558</title>
<g id="a_node16"><a xlink:href="class_c_pub_key.html#a6bb28fcf0a5f799c69f5b7269363b309" target="_top" xlink:title="Simple read&#45;only vector&#45;like interface to the pubkey data. ">
<polygon fill="#ffffff" stroke="#000000" points="753.6548,-138.5 753.6548,-156.5 835.2407,-156.5 835.2407,-138.5 753.6548,-138.5"/>
<text text-anchor="middle" x="794.4478" y="-144.5" font-family="Helvetica,sans-Serif" font-size="10.00" fill="#000000">CPubKey::size</text>
</a>
</g>
</g>
<!-- Node557&#45;&gt;Node558 -->
<g id="edge20" class="edge">
<title>Node557&#45;&gt;Node558</title>
<path fill="none" stroke="#191970" d="M689.3285,-160.6443C706.4584,-158.5024 725.9183,-156.0691 743.3984,-153.8833"/>
<polygon fill="#191970" stroke="#191970" points="743.9407,-157.3429 753.4291,-152.6291 743.0721,-150.3969 743.9407,-157.3429"/>
</g>
<!-- Node559 -->
<g id="node17" class="node">
<title>Node559</title>
<g id="a_node17"><a xlink:href="class_c_pub_key.html#a7dc71b3f037c84268dc22de97d7b65fb" target="_top" xlink:title="Compute the length of a pubkey with a given first byte. ">
<polygon fill="#ffffff" stroke="#000000" points="909.5732,-138.5 909.5732,-156.5 1006.1787,-156.5 1006.1787,-138.5 909.5732,-138.5"/>
<text text-anchor="middle" x="957.876" y="-144.5" font-family="Helvetica,sans-Serif" font-size="10.00" fill="#000000">CPubKey::GetLen</text>
</a>
</g>
</g>
<!-- Node558&#45;&gt;Node559 -->
<g id="edge21" class="edge">
<title>Node558&#45;&gt;Node559</title>
<path fill="none" stroke="#191970" d="M835.266,-147.5C854.6031,-147.5 878.057,-147.5 899.2527,-147.5"/>
<polygon fill="#191970" stroke="#191970" points="899.4486,-151.0001 909.4485,-147.5 899.4485,-144.0001 899.4486,-151.0001"/>
</g>
<!-- Node560&#45;&gt;Node558 -->
<g id="edge42" class="edge">
<title>Node560&#45;&gt;Node558</title>
<path fill="none" stroke="#191970" d="M687.6773,-134.8519C705.2367,-136.932 725.4381,-139.325 743.5112,-141.466"/>
<polygon fill="#191970" stroke="#191970" points="743.2431,-144.9586 753.5854,-142.6594 744.0666,-138.0072 743.2431,-144.9586"/>
</g>
<!-- Node561 -->
<g id="node19" class="node">
<title>Node561</title>
<g id="a_node19"><a xlink:href="_hash_8h.html#a3f56a9b8501ec9d021aad11389d419c4" target="_top" xlink:title="Compute the 160&#45;bit hash an object. ">
<polygon fill="#ffffff" stroke="#000000" points="766.4331,-101.5 766.4331,-119.5 822.4624,-119.5 822.4624,-101.5 766.4331,-101.5"/>
<text text-anchor="middle" x="794.4478" y="-107.5" font-family="Helvetica,sans-Serif" font-size="10.00" fill="#000000">Hash360</text>
</a>
</g>
</g>
<!-- Node560&#45;&gt;Node561 -->
<g id="edge23" class="edge">
<title>Node560&#45;&gt;Node561</title>
<path fill="none" stroke="#191970" d="M687.6773,-123.8508C709.5298,-121.1183 735.474,-117.8742 756.3158,-115.2681"/>
<polygon fill="#191970" stroke="#191970" points="756.9097,-118.7212 766.3982,-114.0074 756.0411,-111.7753 756.9097,-118.7212"/>
</g>
<!-- Node562 -->
<g id="node20" class="node">
<title>Node562</title>
<g id="a_node20"><a xlink:href="class_c_hash360.html#a9268162ed4d951b479493d16f0bfb5df" target="_top" xlink:title="CHash360::Write">
<polygon fill="#ffffff" stroke="#000000" points="911.895,-101.5 911.895,-119.5 1003.8569,-119.5 1003.8569,-101.5 911.895,-101.5"/>
<text text-anchor="middle" x="957.876" y="-107.5" font-family="Helvetica,sans-Serif" font-size="10.00" fill="#000000">CHash360::Write</text>
</a>
</g>
</g>
<!-- Node561&#45;&gt;Node562 -->
<g id="edge24" class="edge">
<title>Node561&#45;&gt;Node562</title>
<path fill="none" stroke="#191970" d="M822.5421,-110.5C844.2298,-110.5 874.9398,-110.5 901.6248,-110.5"/>
<polygon fill="#191970" stroke="#191970" points="901.6278,-114.0001 911.6278,-110.5 901.6277,-107.0001 901.6278,-114.0001"/>
</g>
<!-- Node567 -->
<g id="node25" class="node">
<title>Node567</title>
<g id="a_node25"><a xlink:href="class_c_hash360.html#abb6b8a5693cd0b09e52bb624bafc1efd" target="_top" xlink:title="CHash360::Finalize">
<polygon fill="#ffffff" stroke="#000000" points="906.2432,-55.5 906.2432,-73.5 1009.5088,-73.5 1009.5088,-55.5 906.2432,-55.5"/>
<text text-anchor="middle" x="957.876" y="-61.5" font-family="Helvetica,sans-Serif" font-size="10.00" fill="#000000">CHash360::Finalize</text>
</a>
</g>
</g>
<!-- Node561&#45;&gt;Node567 -->
<g id="edge29" class="edge">
<title>Node561&#45;&gt;Node567</title>
<path fill="none" stroke="#191970" d="M822.5421,-102.5923C848.1762,-95.3771 886.4149,-84.6141 915.7135,-76.3674"/>
<polygon fill="#191970" stroke="#191970" points="916.991,-79.6439 925.6686,-73.5654 915.0943,-72.9058 916.991,-79.6439"/>
</g>
<!-- Node563 -->
<g id="node21" class="node">
<title>Node563</title>
<g id="a_node21"><a xlink:href="class_c_s_h_a3.html#a439a0fade3fa1b7989c6cf053d39161b" target="_top" xlink:title="CSHA3::Write">
<polygon fill="#ffffff" stroke="#000000" points="1072.2739,-111.5 1072.2739,-129.5 1150.3296,-129.5 1150.3296,-111.5 1072.2739,-111.5"/>
<text text-anchor="middle" x="1111.3018" y="-117.5" font-family="Helvetica,sans-Serif" font-size="10.00" fill="#000000">CSHA3::Write</text>
</a>
</g>
</g>
<!-- Node562&#45;&gt;Node563 -->
<g id="edge25" class="edge">
<title>Node562&#45;&gt;Node563</title>
<path fill="none" stroke="#191970" d="M1003.9088,-113.5003C1022.2296,-114.6944 1043.3456,-116.0707 1061.9796,-117.2853"/>
<polygon fill="#191970" stroke="#191970" points="1061.8364,-120.7833 1072.0429,-117.9412 1062.2918,-113.7981 1061.8364,-120.7833"/>
</g>
<!-- Node564 -->
<g id="node22" class="node">
<title>Node564</title>
<g id="a_node22"><a xlink:href="class_s_h_a3__256.html#a8356957ea403c5da326fc6899b91ea71" target="_top" xlink:title="Updates the hash with more data. ">
<polygon fill="#ffffff" stroke="#000000" points="1220.9658,-111.5 1220.9658,-129.5 1321.4775,-129.5 1321.4775,-111.5 1220.9658,-111.5"/>
<text text-anchor="middle" x="1271.2217" y="-117.5" font-family="Helvetica,sans-Serif" font-size="10.00" fill="#000000">SHA3_256::update</text>
</a>
</g>
</g>
<!-- Node563&#45;&gt;Node564 -->
<g id="edge26" class="edge">
<title>Node563&#45;&gt;Node564</title>
<path fill="none" stroke="#191970" d="M1150.4226,-120.5C1168.5374,-120.5 1190.4749,-120.5 1210.6578,-120.5"/>
<polygon fill="#191970" stroke="#191970" points="1210.7104,-124.0001 1220.7104,-120.5 1210.7103,-117.0001 1210.7104,-124.0001"/>
</g>
<!-- Node565 -->
<g id="node23" class="node">
<title>Node565</title>
<g id="a_node23"><a xlink:href="class_keccak_core.html#aaaa0355ccec0f469ac8eb577bdf853ed" target="_top" xlink:title="Updates the Keccak sponge function with more input data. ">
<polygon fill="#ffffff" stroke="#000000" points="1371.7354,-111.5 1371.7354,-129.5 1478.3457,-129.5 1478.3457,-111.5 1371.7354,-111.5"/>
<text text-anchor="middle" x="1425.0405" y="-117.5" font-family="Helvetica,sans-Serif" font-size="10.00" fill="#000000">KeccakCore::update</text>
</a>
</g>
</g>
<!-- Node564&#45;&gt;Node565 -->
<g id="edge27" class="edge">
<title>Node564&#45;&gt;Node565</title>
<path fill="none" stroke="#191970" d="M1321.5877,-120.5C1334.3648,-120.5 1348.2559,-120.5 1361.5899,-120.5"/>
<polygon fill="#191970" stroke="#191970" points="1361.6503,-124.0001 1371.6503,-120.5 1361.6502,-117.0001 1361.6503,-124.0001"/>
</g>
<!-- Node566 -->
<g id="node24" class="node">
<title>Node566</title>
<g id="a_node24"><a xlink:href="class_keccak_core.html#aba3225c7a4ceff3580236a900b72a1c3" target="_top" xlink:title="Transform the state with the KECCAK&#45;p sponge function with b = 1600. ">
<polygon fill="#ffffff" stroke="#000000" points="1514.3457,-74.5 1514.3457,-92.5 1627.0547,-92.5 1627.0547,-74.5 1514.3457,-74.5"/>
<text text-anchor="middle" x="1570.7002" y="-80.5" font-family="Helvetica,sans-Serif" font-size="10.00" fill="#000000">KeccakCore::keccakp</text>
</a>
</g>
</g>
<!-- Node565&#45;&gt;Node566 -->
<g id="edge28" class="edge">
<title>Node565&#45;&gt;Node566</title>
<path fill="none" stroke="#191970" d="M1460.6729,-111.4488C1480.143,-106.5031 1504.4613,-100.3258 1525.2808,-95.0373"/>
<polygon fill="#191970" stroke="#191970" points="1526.3531,-98.3761 1535.1836,-92.5218 1524.6296,-91.5916 1526.3531,-98.3761"/>
</g>
<!-- Node568 -->
<g id="node26" class="node">
<title>Node568</title>
<g id="a_node26"><a xlink:href="class_c_s_h_a3.html#a7aa515a9a0fa6d72667d74897f699ae9" target="_top" xlink:title="CSHA3::Finalize">
<polygon fill="#ffffff" stroke="#000000" points="1066.6221,-74.5 1066.6221,-92.5 1155.9814,-92.5 1155.9814,-74.5 1066.6221,-74.5"/>
<text text-anchor="middle" x="1111.3018" y="-80.5" font-family="Helvetica,sans-Serif" font-size="10.00" fill="#000000">CSHA3::Finalize</text>
</a>
</g>
</g>
<!-- Node567&#45;&gt;Node568 -->
<g id="edge30" class="edge">
<title>Node567&#45;&gt;Node568</title>
<path fill="none" stroke="#191970" d="M1009.8189,-70.9325C1024.7933,-72.7869 1041.1781,-74.816 1056.3297,-76.6923"/>
<polygon fill="#191970" stroke="#191970" points="1056.2353,-80.2073 1066.5896,-77.9629 1057.0956,-73.2604 1056.2353,-80.2073"/>
</g>
<!-- Node574 -->
<g id="node32" class="node">
<title>Node574</title>
<g id="a_node32"><a xlink:href="class_c_r_i_p_e_m_d160.html#a221143b9d94af623d07c4f4ba1bf6007" target="_top" xlink:title="CRIPEMD160::Write">
<polygon fill="#ffffff" stroke="#000000" points="1057.5474,-37.5 1057.5474,-55.5 1165.0562,-55.5 1165.0562,-37.5 1057.5474,-37.5"/>
<text text-anchor="middle" x="1111.3018" y="-43.5" font-family="Helvetica,sans-Serif" font-size="10.00" fill="#000000">CRIPEMD160::Write</text>
</a>
</g>
</g>
<!-- Node567&#45;&gt;Node574 -->
<g id="edge38" class="edge">
<title>Node567&#45;&gt;Node574</title>
<path fill="none" stroke="#191970" d="M1009.8189,-58.406C1021.7723,-57.0036 1034.6245,-55.4958 1047.0307,-54.0403"/>
<polygon fill="#191970" stroke="#191970" points="1047.7934,-57.4749 1057.3175,-52.8335 1046.9777,-50.5226 1047.7934,-57.4749"/>
</g>
<!-- Node576 -->
<g id="node34" class="node">
<title>Node576</title>
<g id="a_node34"><a xlink:href="class_c_r_i_p_e_m_d160.html#a2a11566fbf9d1339b819833313fc4e51" target="_top" xlink:title="CRIPEMD160::Finalize">
<polygon fill="#ffffff" stroke="#000000" points="1051.8955,-.5 1051.8955,-18.5 1170.708,-18.5 1170.708,-.5 1051.8955,-.5"/>
<text text-anchor="middle" x="1111.3018" y="-6.5" font-family="Helvetica,sans-Serif" font-size="10.00" fill="#000000">CRIPEMD160::Finalize</text>
</a>
</g>
</g>
<!-- Node567&#45;&gt;Node576 -->
<g id="edge41" class="edge">
<title>Node567&#45;&gt;Node576</title>
<path fill="none" stroke="#191970" d="M979.3499,-55.4769C998.2876,-47.6573 1026.7111,-36.2549 1051.8955,-27.5 1057.634,-25.5051 1063.7259,-23.516 1069.7374,-21.6267"/>
<polygon fill="#191970" stroke="#191970" points="1071.1747,-24.8464 1079.7017,-18.5582 1069.1145,-18.1564 1071.1747,-24.8464"/>
</g>
<!-- Node569 -->
<g id="node27" class="node">
<title>Node569</title>
<g id="a_node27"><a xlink:href="class_s_h_a3__256.html#a8fe7cad1f83bd1bae1a0d521324247a1" target="_top" xlink:title="Finalizes the hashing process and returns the hash. ">
<polygon fill="#ffffff" stroke="#000000" points="1220.6948,-74.5 1220.6948,-92.5 1321.7485,-92.5 1321.7485,-74.5 1220.6948,-74.5"/>
<text text-anchor="middle" x="1271.2217" y="-80.5" font-family="Helvetica,sans-Serif" font-size="10.00" fill="#000000">SHA3_256::finalize</text>
</a>
</g>
</g>
<!-- Node568&#45;&gt;Node569 -->
<g id="edge31" class="edge">
<title>Node568&#45;&gt;Node569</title>
<path fill="none" stroke="#191970" d="M1156.2739,-83.5C1173.1105,-83.5 1192.525,-83.5 1210.549,-83.5"/>
<polygon fill="#191970" stroke="#191970" points="1210.6812,-87.0001 1220.6812,-83.5 1210.6812,-80.0001 1210.6812,-87.0001"/>
</g>
<!-- Node570 -->
<g id="node28" class="node">
<title>Node570</title>
<g id="a_node28"><a xlink:href="class_keccak_core.html#a97852ee4381ced17ee6d21704cf0b4d7" target="_top" xlink:title="Pads the last block of input data to blockSize(). ">
<polygon fill="#ffffff" stroke="#000000" points="1378.686,-74.5 1378.686,-92.5 1471.395,-92.5 1471.395,-74.5 1378.686,-74.5"/>
<text text-anchor="middle" x="1425.0405" y="-80.5" font-family="Helvetica,sans-Serif" font-size="10.00" fill="#000000">KeccakCore::pad</text>
</a>
</g>
</g>
<!-- Node569&#45;&gt;Node570 -->
<g id="edge32" class="edge">
<title>Node569&#45;&gt;Node570</title>
<path fill="none" stroke="#191970" d="M1322.014,-83.5C1336.8028,-83.5 1353.0536,-83.5 1368.19,-83.5"/>
<polygon fill="#191970" stroke="#191970" points="1368.4593,-87.0001 1378.4593,-83.5 1368.4593,-80.0001 1368.4593,-87.0001"/>
</g>
<!-- Node571 -->
<g id="node29" class="node">
<title>Node571</title>
<g id="a_node29"><a xlink:href="class_keccak_core.html#aad83ece853c0cc15fcab947fdcba924f" target="_top" xlink:title="Extracts data from the Keccak sponge function. ">
<polygon fill="#ffffff" stroke="#000000" points="1372.0234,-37.5 1372.0234,-55.5 1478.0576,-55.5 1478.0576,-37.5 1372.0234,-37.5"/>
<text text-anchor="middle" x="1425.0405" y="-43.5" font-family="Helvetica,sans-Serif" font-size="10.00" fill="#000000">KeccakCore::extract</text>
</a>
</g>
</g>
<!-- Node569&#45;&gt;Node571 -->
<g id="edge34" class="edge">
<title>Node569&#45;&gt;Node571</title>
<path fill="none" stroke="#191970" d="M1308.85,-74.4488C1329.5976,-69.4581 1355.5586,-63.2134 1377.6756,-57.8933"/>
<polygon fill="#191970" stroke="#191970" points="1378.6303,-61.2636 1387.5344,-55.5218 1376.9932,-54.4577 1378.6303,-61.2636"/>
</g>
<!-- Node570&#45;&gt;Node566 -->
<g id="edge33" class="edge">
<title>Node570&#45;&gt;Node566</title>
<path fill="none" stroke="#191970" d="M1471.5286,-83.5C1481.919,-83.5 1493.1361,-83.5 1504.1596,-83.5"/>
<polygon fill="#191970" stroke="#191970" points="1504.1995,-87.0001 1514.1995,-83.5 1504.1995,-80.0001 1504.1995,-87.0001"/>
</g>
<!-- Node571&#45;&gt;Node566 -->
<g id="edge35" class="edge">
<title>Node571&#45;&gt;Node566</title>
<path fill="none" stroke="#191970" d="M1460.6729,-55.5512C1480.143,-60.4969 1504.4613,-66.6742 1525.2808,-71.9627"/>
<polygon fill="#191970" stroke="#191970" points="1524.6296,-75.4084 1535.1836,-74.4782 1526.3531,-68.6239 1524.6296,-75.4084"/>
</g>
<!-- Node572 -->
<g id="node30" class="node">
<title>Node572</title>
<g id="a_node30"><a xlink:href="glibc__compat_8cpp.html#a0f46826ab0466591e136db24394923cf" target="_top" xlink:title="memcpy">
<polygon fill="#ffffff" stroke="#000000" points="1543.8086,-18.5 1543.8086,-36.5 1597.5918,-36.5 1597.5918,-18.5 1543.8086,-18.5"/>
<text text-anchor="middle" x="1570.7002" y="-24.5" font-family="Helvetica,sans-Serif" font-size="10.00" fill="#000000">memcpy</text>
</a>
</g>
</g>
<!-- Node571&#45;&gt;Node572 -->
<g id="edge36" class="edge">
<title>Node571&#45;&gt;Node572</title>
<path fill="none" stroke="#191970" d="M1478.4517,-39.533C1496.7406,-37.1474 1516.792,-34.5318 1533.5152,-32.3504"/>
<polygon fill="#191970" stroke="#191970" points="1533.989,-35.8184 1543.4523,-31.0542 1533.0835,-28.8772 1533.989,-35.8184"/>
</g>
<!-- Node573 -->
<g id="node31" class="node">
<title>Node573</title>
<g id="a_node31"><a xlink:href="glibc__compat_8cpp.html#a9778d49e9029dd75bc53ecbbf9f5e9a1" target="_top" xlink:title="memmove">
<polygon fill="#ffffff" stroke="#000000" points="1663.0547,-18.5 1663.0547,-36.5 1725.7295,-36.5 1725.7295,-18.5 1663.0547,-18.5"/>
<text text-anchor="middle" x="1694.3921" y="-24.5" font-family="Helvetica,sans-Serif" font-size="10.00" fill="#000000">memmove</text>
</a>
</g>
</g>
<!-- Node572&#45;&gt;Node573 -->
<g id="edge37" class="edge">
<title>Node572&#45;&gt;Node573</title>
<path fill="none" stroke="#191970" d="M1597.8449,-27.5C1613.9707,-27.5 1634.7503,-27.5 1652.8984,-27.5"/>
<polygon fill="#191970" stroke="#191970" points="1652.9432,-31.0001 1662.9432,-27.5 1652.9432,-24.0001 1652.9432,-31.0001"/>
</g>
<!-- Node574&#45;&gt;Node572 -->
<g id="edge39" class="edge">
<title>Node574&#45;&gt;Node572</title>
<path fill="none" stroke="#191970" d="M1147.7467,-37.4934C1165.4253,-33.5744 1187.0434,-29.439 1206.708,-27.5 1325.5536,-15.7811 1467.2895,-21.364 1533.3566,-25.0904"/>
<polygon fill="#191970" stroke="#191970" points="1533.483,-28.6036 1543.67,-25.6922 1533.8909,-21.6155 1533.483,-28.6036"/>
</g>
<!-- Node575 -->
<g id="node33" class="node">
<title>Node575</title>
<g id="a_node33"><a xlink:href="namespacesha256__shani.html#a97d2e267c87add9a1172d948e05ba471" target="_top" xlink:title="sha256_shani::Transform">
<polygon fill="#ffffff" stroke="#000000" points="1206.708,-37.5 1206.708,-55.5 1335.7354,-55.5 1335.7354,-37.5 1206.708,-37.5"/>
<text text-anchor="middle" x="1271.2217" y="-43.5" font-family="Helvetica,sans-Serif" font-size="10.00" fill="#000000">sha256_shani::Transform</text>
</a>
</g>
</g>
<!-- Node574&#45;&gt;Node575 -->
<g id="edge40" class="edge">
<title>Node574&#45;&gt;Node575</title>
<path fill="none" stroke="#191970" d="M1165.4433,-46.5C1175.4689,-46.5 1186.101,-46.5 1196.6094,-46.5"/>
<polygon fill="#191970" stroke="#191970" points="1196.6227,-50.0001 1206.6227,-46.5 1196.6227,-43.0001 1196.6227,-50.0001"/>
</g>
<!-- Node579 -->
<g id="node37" class="node">
<title>Node579</title>
<g id="a_node37"><a xlink:href="group__map_wallet.html#gaba1c6108b7d2d3800dd487bab4c4c82e" target="_top" xlink:title="CWallet::IsChange">
<polygon fill="#ffffff" stroke="#000000" points="327.8086,-119.5 327.8086,-137.5 426.8115,-137.5 426.8115,-119.5 327.8086,-119.5"/>
<text text-anchor="middle" x="377.3101" y="-125.5" font-family="Helvetica,sans-Serif" font-size="10.00" fill="#000000">CWallet::IsChange</text>
</a>
</g>
</g>
<!-- Node578&#45;&gt;Node579 -->
<g id="edge45" class="edge">
<title>Node578&#45;&gt;Node579</title>
<path fill="none" stroke="#191970" d="M292.0426,-118.6661C300.7002,-119.6646 309.4005,-120.668 317.7602,-121.6321"/>
<polygon fill="#191970" stroke="#191970" points="317.4275,-125.1168 327.7627,-122.7857 318.2296,-118.1629 317.4275,-125.1168"/>
</g>
<!-- Node578&#45;&gt;Node580 -->
<g id="edge48" class="edge">
<title>Node578&#45;&gt;Node580</title>
<path fill="none" stroke="#191970" d="M291.8595,-104.4582C344.4236,-101.116 411.9616,-96.8217 458.1597,-93.8843"/>
<polygon fill="#191970" stroke="#191970" points="458.502,-97.3697 468.2597,-93.2421 458.0577,-90.3838 458.502,-97.3697"/>
</g>
<!-- Node579&#45;&gt;Node545 -->
<g id="edge47" class="edge">
<title>Node579&#45;&gt;Node545</title>
<path fill="none" stroke="#191970" d="M426.8538,-135.5209C435.2178,-136.7062 443.9725,-137.9468 452.5456,-139.1617"/>
<polygon fill="#191970" stroke="#191970" points="452.0998,-142.6335 462.492,-140.5713 453.0821,-135.7027 452.0998,-142.6335"/>
</g>
<!-- Node579&#45;&gt;Node580 -->
<g id="edge46" class="edge">
<title>Node579&#45;&gt;Node580</title>
<path fill="none" stroke="#191970" d="M409.084,-119.4945C427.1523,-114.3736 449.9984,-107.8985 469.5151,-102.367"/>
<polygon fill="#191970" stroke="#191970" points="470.7081,-105.6668 479.3747,-99.5725 468.7993,-98.932 470.7081,-105.6668"/>
</g>
</g>
</svg>
