<?xml version="1.0" encoding="UTF-8" standalone="no"?>
<!DOCTYPE svg PUBLIC "-//W3C//DTD SVG 1.1//EN"
 "http://www.w3.org/Graphics/SVG/1.1/DTD/svg11.dtd">
<!-- Generated by graphviz version 2.40.1 (20161225.0304)
 -->
<!-- Title: CWallet::IsWalletFlagSet Pages: 1 -->
<svg width="1051pt" height="261pt"
 viewBox="0.00 0.00 1051.16 261.00" xmlns="http://www.w3.org/2000/svg" xmlns:xlink="http://www.w3.org/1999/xlink">
<g id="graph0" class="graph" transform="scale(1 1) rotate(0) translate(4 257)">
<title>CWallet::IsWalletFlagSet</title>
<polygon fill="#ffffff" stroke="transparent" points="-4,4 -4,-257 1047.1631,-257 1047.1631,4 -4,4"/>
<!-- Node1509 -->
<g id="node1" class="node">
<title>Node1509</title>
<polygon fill="#bfbfbf" stroke="#000000" points="0,-103.5 0,-121.5 125.8535,-121.5 125.8535,-103.5 0,-103.5"/>
<text text-anchor="middle" x="62.9268" y="-109.5" font-family="Helvetica,sans-Serif" font-size="10.00" fill="#000000">CWallet::IsWalletFlagSet</text>
</g>
<!-- Node1510 -->
<g id="node2" class="node">
<title>Node1510</title>
<g id="a_node2"><a xlink:href="group__map_wallet.html#ga5abb589b31879b8f4bf1890c22f15f64" target="_top" xlink:title="keystore implementation Generate a new key ">
<polygon fill="#ffffff" stroke="#000000" points="161.8535,-234.5 161.8535,-252.5 296.9795,-252.5 296.9795,-234.5 161.8535,-234.5"/>
<text text-anchor="middle" x="229.4165" y="-240.5" font-family="Helvetica,sans-Serif" font-size="10.00" fill="#000000">CWallet::GenerateNewKey</text>
</a>
</g>
</g>
<!-- Node1509&#45;&gt;Node1510 -->
<g id="edge1" class="edge">
<title>Node1509&#45;&gt;Node1510</title>
<path fill="none" stroke="#191970" d="M74.8194,-129.9113C91.6524,-153.3413 124.5619,-194.9101 161.8535,-219.5 171.518,-225.8727 183.0771,-230.7826 193.8789,-234.4515"/>
<polygon fill="#191970" stroke="#191970" points="77.6069,-127.7905 68.9931,-121.6217 71.8799,-131.8157 77.6069,-127.7905"/>
</g>
<!-- Node1511 -->
<g id="node3" class="node">
<title>Node1511</title>
<g id="a_node3"><a xlink:href="group___actions.html#gac452f46eafeb2b4adfe86f7208048032" target="_top" xlink:title="CWallet::GetKeyFromPool">
<polygon fill="#ffffff" stroke="#000000" points="553.4707,-196.5 553.4707,-214.5 686.3604,-214.5 686.3604,-196.5 553.4707,-196.5"/>
<text text-anchor="middle" x="619.9155" y="-202.5" font-family="Helvetica,sans-Serif" font-size="10.00" fill="#000000">CWallet::GetKeyFromPool</text>
</a>
</g>
</g>
<!-- Node1509&#45;&gt;Node1511 -->
<g id="edge23" class="edge">
<title>Node1509&#45;&gt;Node1511</title>
<path fill="none" stroke="#191970" d="M93.0426,-125.5077C112.4244,-133.518 138.305,-143.5485 161.8535,-150.5 236.3943,-172.5043 255.9842,-175.906 332.9795,-186.5 408.0326,-196.8268 494.9304,-201.5869 553.2583,-203.7513"/>
<polygon fill="#191970" stroke="#191970" points="94.3939,-122.2791 83.818,-121.6453 91.6903,-128.736 94.3939,-122.2791"/>
</g>
<!-- Node1512 -->
<g id="node4" class="node">
<title>Node1512</title>
<g id="a_node4"><a xlink:href="group__map_wallet.html#ga35c26d9e81464f04a45375647c251d67" target="_top" xlink:title="CWallet::GenerateNewSeed">
<polygon fill="#ffffff" stroke="#000000" points="347.9746,-47.5 347.9746,-65.5 489.2236,-65.5 489.2236,-47.5 347.9746,-47.5"/>
<text text-anchor="middle" x="418.5991" y="-53.5" font-family="Helvetica,sans-Serif" font-size="10.00" fill="#000000">CWallet::GenerateNewSeed</text>
</a>
</g>
</g>
<!-- Node1509&#45;&gt;Node1512 -->
<g id="edge3" class="edge">
<title>Node1509&#45;&gt;Node1512</title>
<path fill="none" stroke="#191970" d="M124.1025,-101.7962C136.5855,-99.6658 149.6369,-97.4773 161.8535,-95.5 228.5012,-84.7126 305.0294,-73.2006 357.0731,-65.503"/>
<polygon fill="#191970" stroke="#191970" points="123.5047,-98.3475 114.24,-103.4871 124.6877,-105.2468 123.5047,-98.3475"/>
</g>
<!-- Node1515 -->
<g id="node7" class="node">
<title>Node1515</title>
<g id="a_node7"><a xlink:href="group___actions.html#ga5d7b244b8ed0cbe24233ee0b6ca3cae0" target="_top" xlink:title="CWallet::LoadWallet">
<polygon fill="#ffffff" stroke="#000000" points="176.4873,-7.5 176.4873,-25.5 282.3457,-25.5 282.3457,-7.5 176.4873,-7.5"/>
<text text-anchor="middle" x="229.4165" y="-13.5" font-family="Helvetica,sans-Serif" font-size="10.00" fill="#000000">CWallet::LoadWallet</text>
</a>
</g>
</g>
<!-- Node1509&#45;&gt;Node1515 -->
<g id="edge6" class="edge">
<title>Node1509&#45;&gt;Node1515</title>
<path fill="none" stroke="#191970" d="M81.4725,-96.8568C100.641,-81.2665 131.9043,-57.4152 161.8535,-41.5 173.7814,-35.1614 187.6699,-29.7216 199.7419,-25.5503"/>
<polygon fill="#191970" stroke="#191970" points="79.0513,-94.317 73.5646,-103.3805 83.5058,-99.7167 79.0513,-94.317"/>
</g>
<!-- Node1517 -->
<g id="node9" class="node">
<title>Node1517</title>
<g id="a_node9"><a xlink:href="group___actions.html#ga7353ba1e79fc4167fbfbe79b41698fa7" target="_top" xlink:title="Mark old keypool keys as used, and generate all new keys. ">
<polygon fill="#ffffff" stroke="#000000" points="361.876,-84.5 361.876,-102.5 475.3223,-102.5 475.3223,-84.5 361.876,-84.5"/>
<text text-anchor="middle" x="418.5991" y="-90.5" font-family="Helvetica,sans-Serif" font-size="10.00" fill="#000000">CWallet::NewKeyPool</text>
</a>
</g>
</g>
<!-- Node1509&#45;&gt;Node1517 -->
<g id="edge8" class="edge">
<title>Node1509&#45;&gt;Node1517</title>
<path fill="none" stroke="#191970" d="M136.1605,-108.5879C203.0942,-105.0123 300.6994,-99.7982 361.8754,-96.5302"/>
<polygon fill="#191970" stroke="#191970" points="135.903,-105.0965 126.104,-109.1251 136.2765,-112.0866 135.903,-105.0965"/>
</g>
<!-- Node1518 -->
<g id="node10" class="node">
<title>Node1518</title>
<g id="a_node10"><a xlink:href="group___actions.html#ga9730278506e0a4f1c65239b951525b55" target="_top" xlink:title="CWallet::TopUpKeyPool">
<polygon fill="#ffffff" stroke="#000000" points="168.2427,-122.5 168.2427,-140.5 290.5903,-140.5 290.5903,-122.5 168.2427,-122.5"/>
<text text-anchor="middle" x="229.4165" y="-128.5" font-family="Helvetica,sans-Serif" font-size="10.00" fill="#000000">CWallet::TopUpKeyPool</text>
</a>
</g>
</g>
<!-- Node1509&#45;&gt;Node1518 -->
<g id="edge11" class="edge">
<title>Node1509&#45;&gt;Node1518</title>
<path fill="none" stroke="#191970" d="M136.0214,-120.8416C146.7069,-122.0611 157.6189,-123.3064 168.0389,-124.4955"/>
<polygon fill="#191970" stroke="#191970" points="136.2018,-117.3396 125.8694,-119.6831 135.408,-124.2945 136.2018,-117.3396"/>
</g>
<!-- Node1510&#45;&gt;Node1511 -->
<g id="edge2" class="edge">
<title>Node1510&#45;&gt;Node1511</title>
<path fill="none" stroke="#191970" d="M307.271,-237.3955C362.3276,-232.9088 437.853,-226.4114 504.2188,-219.5 520.1167,-217.8444 537.2204,-215.8773 553.2718,-213.9488"/>
<polygon fill="#191970" stroke="#191970" points="306.92,-233.9124 297.2358,-238.2096 307.486,-240.8895 306.92,-233.9124"/>
</g>
<!-- Node1513 -->
<g id="node5" class="node">
<title>Node1513</title>
<g id="a_node5"><a xlink:href="group__map_wallet.html#gab34fe5bf771619dcbe22a65f013e5469" target="_top" xlink:title="CWallet::EncryptWallet">
<polygon fill="#ffffff" stroke="#000000" points="561.1587,-47.5 561.1587,-65.5 678.6724,-65.5 678.6724,-47.5 561.1587,-47.5"/>
<text text-anchor="middle" x="619.9155" y="-53.5" font-family="Helvetica,sans-Serif" font-size="10.00" fill="#000000">CWallet::EncryptWallet</text>
</a>
</g>
</g>
<!-- Node1512&#45;&gt;Node1513 -->
<g id="edge4" class="edge">
<title>Node1512&#45;&gt;Node1513</title>
<path fill="none" stroke="#191970" d="M499.3122,-56.5C519.9456,-56.5 541.7438,-56.5 561.0485,-56.5"/>
<polygon fill="#191970" stroke="#191970" points="499.2927,-53.0001 489.2927,-56.5 499.2926,-60.0001 499.2927,-53.0001"/>
</g>
<!-- Node1514 -->
<g id="node6" class="node">
<title>Node1514</title>
<g id="a_node6"><a xlink:href="rpcwallet_8cpp.html#a61c7a90d1b36888fe11b751e746e18c0" target="_top" xlink:title="sethdseed">
<polygon fill="#ffffff" stroke="#000000" points="588.8418,-84.5 588.8418,-102.5 650.9893,-102.5 650.9893,-84.5 588.8418,-84.5"/>
<text text-anchor="middle" x="619.9155" y="-90.5" font-family="Helvetica,sans-Serif" font-size="10.00" fill="#000000">sethdseed</text>
</a>
</g>
</g>
<!-- Node1512&#45;&gt;Node1514 -->
<g id="edge5" class="edge">
<title>Node1512&#45;&gt;Node1514</title>
<path fill="none" stroke="#191970" d="M477.585,-67.341C513.9237,-74.0197 559.062,-82.3157 588.6376,-87.7514"/>
<polygon fill="#191970" stroke="#191970" points="478.0572,-63.8693 467.5892,-65.5039 476.7918,-70.754 478.0572,-63.8693"/>
</g>
<!-- Node1516 -->
<g id="node8" class="node">
<title>Node1516</title>
<g id="a_node8"><a xlink:href="struct_wallet_testing_setup.html#a0125ada997b4b16803624bfd537d8902" target="_top" xlink:title="WalletTestingSetup\l::WalletTestingSetup">
<polygon fill="#ffffff" stroke="#000000" points="365.2036,-.5 365.2036,-28.5 471.9946,-28.5 471.9946,-.5 365.2036,-.5"/>
<text text-anchor="start" x="373.2036" y="-16.5" font-family="Helvetica,sans-Serif" font-size="10.00" fill="#000000">WalletTestingSetup</text>
<text text-anchor="middle" x="418.5991" y="-6.5" font-family="Helvetica,sans-Serif" font-size="10.00" fill="#000000">::WalletTestingSetup</text>
</a>
</g>
</g>
<!-- Node1515&#45;&gt;Node1516 -->
<g id="edge7" class="edge">
<title>Node1515&#45;&gt;Node1516</title>
<path fill="none" stroke="#191970" d="M292.5777,-15.8323C316.0607,-15.584 342.4596,-15.3049 365.0055,-15.0666"/>
<polygon fill="#191970" stroke="#191970" points="292.3284,-12.3346 282.366,-15.9402 292.4024,-19.3342 292.3284,-12.3346"/>
</g>
<!-- Node1517&#45;&gt;Node1513 -->
<g id="edge9" class="edge">
<title>Node1517&#45;&gt;Node1513</title>
<path fill="none" stroke="#191970" d="M477.7792,-82.6233C507.3301,-77.1921 542.6615,-70.6985 570.7057,-65.5443"/>
<polygon fill="#191970" stroke="#191970" points="476.7918,-79.246 467.5892,-84.4961 478.0572,-86.1307 476.7918,-79.246"/>
</g>
<!-- Node1517&#45;&gt;Node1514 -->
<g id="edge10" class="edge">
<title>Node1517&#45;&gt;Node1514</title>
<path fill="none" stroke="#191970" d="M485.5995,-93.5C520.4306,-93.5 561.3382,-93.5 588.7755,-93.5"/>
<polygon fill="#191970" stroke="#191970" points="485.4811,-90.0001 475.4811,-93.5 485.4811,-97.0001 485.4811,-90.0001"/>
</g>
<!-- Node1518&#45;&gt;Node1517 -->
<g id="edge19" class="edge">
<title>Node1518&#45;&gt;Node1517</title>
<path fill="none" stroke="#191970" d="M284.4212,-120.4515C312.8076,-114.7497 346.9973,-107.8822 373.7599,-102.5066"/>
<polygon fill="#191970" stroke="#191970" points="283.365,-117.0937 274.2501,-122.4945 284.7436,-123.9566 283.365,-117.0937"/>
</g>
<!-- Node1519 -->
<g id="node11" class="node">
<title>Node1519</title>
<g id="a_node11"><a xlink:href="group__map_wallet.html#gaee8f634287d083737471595f658da519" target="_top" xlink:title="Add a transaction to the wallet, or update it. ">
<polygon fill="#ffffff" stroke="#000000" points="333.1577,-121.5 333.1577,-139.5 504.0405,-139.5 504.0405,-121.5 333.1577,-121.5"/>
<text text-anchor="middle" x="418.5991" y="-127.5" font-family="Helvetica,sans-Serif" font-size="10.00" fill="#000000">CWallet::AddToWalletIfInvolvingMe</text>
</a>
</g>
</g>
<!-- Node1518&#45;&gt;Node1519 -->
<g id="edge12" class="edge">
<title>Node1518&#45;&gt;Node1519</title>
<path fill="none" stroke="#191970" d="M301.1261,-131.121C311.5659,-131.0658 322.4013,-131.0085 333.0809,-130.952"/>
<polygon fill="#191970" stroke="#191970" points="300.82,-127.6224 290.8387,-131.1753 300.8571,-134.6223 300.82,-127.6224"/>
</g>
<!-- Node1526 -->
<g id="node18" class="node">
<title>Node1526</title>
<g id="a_node18"><a xlink:href="group___actions.html#gaa869ffae7560168064463f3157633a8b" target="_top" xlink:title="Reserves a key from the keypool and sets nIndex to its index. ">
<polygon fill="#ffffff" stroke="#000000" points="332.9795,-158.5 332.9795,-176.5 504.2188,-176.5 504.2188,-158.5 332.9795,-158.5"/>
<text text-anchor="middle" x="418.5991" y="-164.5" font-family="Helvetica,sans-Serif" font-size="10.00" fill="#000000">CWallet::ReserveKeyFromKeyPool</text>
</a>
</g>
</g>
<!-- Node1518&#45;&gt;Node1526 -->
<g id="edge20" class="edge">
<title>Node1518&#45;&gt;Node1526</title>
<path fill="none" stroke="#191970" d="M287.2143,-142.4985C314.1204,-147.6185 345.7316,-153.6339 371.2036,-158.481"/>
<polygon fill="#191970" stroke="#191970" points="287.6333,-139.0155 277.1553,-140.5843 286.3247,-145.8921 287.6333,-139.0155"/>
</g>
<!-- Node1520 -->
<g id="node12" class="node">
<title>Node1520</title>
<g id="a_node12"><a xlink:href="group__map_wallet.html#ga09e75fcbc98be305e68e99495570687c" target="_top" xlink:title="CWallet::SyncTransaction">
<polygon fill="#ffffff" stroke="#000000" points="554.7622,-121.5 554.7622,-139.5 685.0688,-139.5 685.0688,-121.5 554.7622,-121.5"/>
<text text-anchor="middle" x="619.9155" y="-127.5" font-family="Helvetica,sans-Serif" font-size="10.00" fill="#000000">CWallet::SyncTransaction</text>
</a>
</g>
</g>
<!-- Node1519&#45;&gt;Node1520 -->
<g id="edge13" class="edge">
<title>Node1519&#45;&gt;Node1520</title>
<path fill="none" stroke="#191970" d="M514.6261,-130.5C528.2226,-130.5 541.932,-130.5 554.7591,-130.5"/>
<polygon fill="#191970" stroke="#191970" points="514.2673,-127.0001 504.2673,-130.5 514.2673,-134.0001 514.2673,-127.0001"/>
</g>
<!-- Node1521 -->
<g id="node13" class="node">
<title>Node1521</title>
<g id="a_node13"><a xlink:href="group__map_wallet.html#gae44ec090ec7c87725fb22d33887ad1a7" target="_top" xlink:title="Notifies listeners of a transaction having been added to mempool. ">
<polygon fill="#ffffff" stroke="#000000" points="756.2593,-176.5 756.2593,-204.5 893.2505,-204.5 893.2505,-176.5 756.2593,-176.5"/>
<text text-anchor="start" x="764.2593" y="-192.5" font-family="Helvetica,sans-Serif" font-size="10.00" fill="#000000">CWallet::TransactionAdded</text>
<text text-anchor="middle" x="824.7549" y="-182.5" font-family="Helvetica,sans-Serif" font-size="10.00" fill="#000000">ToMempool</text>
</a>
</g>
</g>
<!-- Node1520&#45;&gt;Node1521 -->
<g id="edge14" class="edge">
<title>Node1520&#45;&gt;Node1521</title>
<path fill="none" stroke="#191970" d="M675.7597,-142.0842C683.8514,-144.2605 692.0097,-146.7348 699.6123,-149.5 716.4234,-155.6145 718.8584,-161.2305 735.6123,-167.5 744.4441,-170.805 753.9399,-173.8082 763.3245,-176.4732"/>
<polygon fill="#191970" stroke="#191970" points="676.5199,-138.6661 665.9644,-139.578 674.7848,-145.4476 676.5199,-138.6661"/>
</g>
<!-- Node1522 -->
<g id="node14" class="node">
<title>Node1522</title>
<g id="a_node14"><a xlink:href="group__map_wallet.html#ga8871fb58a2872900558d69d71baddfca" target="_top" xlink:title="Notifies listeners of a block being connected. ">
<polygon fill="#ffffff" stroke="#000000" points="760.2461,-139.5 760.2461,-157.5 889.2637,-157.5 889.2637,-139.5 760.2461,-139.5"/>
<text text-anchor="middle" x="824.7549" y="-145.5" font-family="Helvetica,sans-Serif" font-size="10.00" fill="#000000">CWallet::BlockConnected</text>
</a>
</g>
</g>
<!-- Node1520&#45;&gt;Node1522 -->
<g id="edge15" class="edge">
<title>Node1520&#45;&gt;Node1522</title>
<path fill="none" stroke="#191970" d="M695.5347,-137.1449C716.7055,-139.0053 739.5197,-141.0101 759.9996,-142.8097"/>
<polygon fill="#191970" stroke="#191970" points="695.5592,-133.6337 685.2912,-136.2448 694.9464,-140.6068 695.5592,-133.6337"/>
</g>
<!-- Node1523 -->
<g id="node15" class="node">
<title>Node1523</title>
<g id="a_node15"><a xlink:href="group__map_wallet.html#ga3aa53a08f7071c42c0ef82ea468d19ae" target="_top" xlink:title="Notifies listeners of a block being disconnected. ">
<polygon fill="#ffffff" stroke="#000000" points="754.1353,-102.5 754.1353,-120.5 895.3745,-120.5 895.3745,-102.5 754.1353,-102.5"/>
<text text-anchor="middle" x="824.7549" y="-108.5" font-family="Helvetica,sans-Serif" font-size="10.00" fill="#000000">CWallet::BlockDisconnected</text>
</a>
</g>
</g>
<!-- Node1520&#45;&gt;Node1523 -->
<g id="edge16" class="edge">
<title>Node1520&#45;&gt;Node1523</title>
<path fill="none" stroke="#191970" d="M695.4625,-123.4926C714.6011,-121.7174 735.0869,-119.8172 753.9796,-118.0648"/>
<polygon fill="#191970" stroke="#191970" points="694.9251,-120.0273 685.2912,-124.436 695.5717,-126.9974 694.9251,-120.0273"/>
</g>
<!-- Node1524 -->
<g id="node16" class="node">
<title>Node1524</title>
<g id="a_node16"><a xlink:href="group__map_wallet.html#gaabb1db808d082d6df2b1e37cbf3f8f98" target="_top" xlink:title="Scan the block chain (starting in pindexStart) for transactions from or to us. ">
<polygon fill="#ffffff" stroke="#000000" points="735.6123,-65.5 735.6123,-83.5 913.8975,-83.5 913.8975,-65.5 735.6123,-65.5"/>
<text text-anchor="middle" x="824.7549" y="-71.5" font-family="Helvetica,sans-Serif" font-size="10.00" fill="#000000">CWallet::ScanForWalletTransactions</text>
</a>
</g>
</g>
<!-- Node1520&#45;&gt;Node1524 -->
<g id="edge17" class="edge">
<title>Node1520&#45;&gt;Node1524</title>
<path fill="none" stroke="#191970" d="M679.4487,-118.8777C686.3257,-116.9998 693.1756,-114.8779 699.6123,-112.5 716.583,-106.2306 718.6039,-99.6664 735.6123,-93.5 746.6207,-89.5089 758.7134,-86.2376 770.3437,-83.6034"/>
<polygon fill="#191970" stroke="#191970" points="678.2153,-115.5807 669.3985,-121.4556 679.9546,-122.3611 678.2153,-115.5807"/>
</g>
<!-- Node1525 -->
<g id="node17" class="node">
<title>Node1525</title>
<g id="a_node17"><a xlink:href="rpcwallet_8cpp.html#a151535abf7394b299deb8d0a333de70b" target="_top" xlink:title="rescanblockchain">
<polygon fill="#ffffff" stroke="#000000" points="949.8975,-65.5 949.8975,-83.5 1043.1631,-83.5 1043.1631,-65.5 949.8975,-65.5"/>
<text text-anchor="middle" x="996.5303" y="-71.5" font-family="Helvetica,sans-Serif" font-size="10.00" fill="#000000">rescanblockchain</text>
</a>
</g>
</g>
<!-- Node1524&#45;&gt;Node1525 -->
<g id="edge18" class="edge">
<title>Node1524&#45;&gt;Node1525</title>
<path fill="none" stroke="#191970" d="M924.0573,-74.5C932.9864,-74.5 941.7172,-74.5 949.8507,-74.5"/>
<polygon fill="#191970" stroke="#191970" points="923.913,-71.0001 913.913,-74.5 923.913,-78.0001 923.913,-71.0001"/>
</g>
<!-- Node1526&#45;&gt;Node1511 -->
<g id="edge21" class="edge">
<title>Node1526&#45;&gt;Node1511</title>
<path fill="none" stroke="#191970" d="M476.3382,-178.3987C506.6999,-184.1297 543.4715,-191.0706 572.2004,-196.4934"/>
<polygon fill="#191970" stroke="#191970" points="476.784,-174.9211 466.3083,-176.5055 475.4856,-181.7996 476.784,-174.9211"/>
</g>
<!-- Node1527 -->
<g id="node19" class="node">
<title>Node1527</title>
<g id="a_node19"><a xlink:href="group___actions.html#gad2347fdc30dfbba5298f2386a219c13d" target="_top" xlink:title="CReserveKey::GetReservedKey">
<polygon fill="#ffffff" stroke="#000000" points="540.2188,-158.5 540.2188,-176.5 699.6123,-176.5 699.6123,-158.5 540.2188,-158.5"/>
<text text-anchor="middle" x="619.9155" y="-164.5" font-family="Helvetica,sans-Serif" font-size="10.00" fill="#000000">CReserveKey::GetReservedKey</text>
</a>
</g>
</g>
<!-- Node1526&#45;&gt;Node1527 -->
<g id="edge22" class="edge">
<title>Node1526&#45;&gt;Node1527</title>
<path fill="none" stroke="#191970" d="M514.3427,-167.5C522.9571,-167.5 531.6197,-167.5 540.0772,-167.5"/>
<polygon fill="#191970" stroke="#191970" points="514.2673,-164.0001 504.2673,-167.5 514.2673,-171.0001 514.2673,-164.0001"/>
</g>
</g>
</svg>
