<?xml version="1.0" encoding="UTF-8" standalone="no"?>
<!DOCTYPE svg PUBLIC "-//W3C//DTD SVG 1.1//EN"
 "http://www.w3.org/Graphics/SVG/1.1/DTD/svg11.dtd">
<!-- Generated by graphviz version 2.40.1 (20161225.0304)
 -->
<!-- Title: CWallet::GetImmatureBalance Pages: 1 -->
<svg width="1205pt" height="158pt"
 viewBox="0.00 0.00 1204.98 158.00" xmlns="http://www.w3.org/2000/svg" xmlns:xlink="http://www.w3.org/1999/xlink">
<g id="graph0" class="graph" transform="scale(1 1) rotate(0) translate(4 154)">
<title>CWallet::GetImmatureBalance</title>
<polygon fill="#ffffff" stroke="transparent" points="-4,4 -4,-154 1200.9795,-154 1200.9795,4 -4,4"/>
<!-- Node247 -->
<g id="node1" class="node">
<title>Node247</title>
<polygon fill="#bfbfbf" stroke="#000000" points="0,-75.5 0,-93.5 150.6826,-93.5 150.6826,-75.5 0,-75.5"/>
<text text-anchor="middle" x="75.3413" y="-81.5" font-family="Helvetica,sans-Serif" font-size="10.00" fill="#000000">CWallet::GetImmatureBalance</text>
</g>
<!-- Node248 -->
<g id="node2" class="node">
<title>Node248</title>
<g id="a_node2"><a xlink:href="group__map_wallet.html#gabb3eec7968dec62cf41937aab0985087" target="_top" xlink:title="CWalletTx::GetImmatureCredit">
<polygon fill="#ffffff" stroke="#000000" points="186.6826,-75.5 186.6826,-93.5 339.0107,-93.5 339.0107,-75.5 186.6826,-75.5"/>
<text text-anchor="middle" x="262.8467" y="-81.5" font-family="Helvetica,sans-Serif" font-size="10.00" fill="#000000">CWalletTx::GetImmatureCredit</text>
</a>
</g>
</g>
<!-- Node247&#45;&gt;Node248 -->
<g id="edge1" class="edge">
<title>Node247&#45;&gt;Node248</title>
<path fill="none" stroke="#191970" d="M150.7964,-84.5C159.2809,-84.5 167.9735,-84.5 176.5813,-84.5"/>
<polygon fill="#191970" stroke="#191970" points="176.6297,-88.0001 186.6296,-84.5 176.6296,-81.0001 176.6297,-88.0001"/>
</g>
<!-- Node249 -->
<g id="node3" class="node">
<title>Node249</title>
<g id="a_node3"><a xlink:href="class_c_merkle_tx.html#acb62dfe9de72cdf75520b0f367097eda" target="_top" xlink:title="CMerkleTx::IsImmatureCoinBase">
<polygon fill="#ffffff" stroke="#000000" points="375.0107,-112.5 375.0107,-130.5 538.2715,-130.5 538.2715,-112.5 375.0107,-112.5"/>
<text text-anchor="middle" x="456.6411" y="-118.5" font-family="Helvetica,sans-Serif" font-size="10.00" fill="#000000">CMerkleTx::IsImmatureCoinBase</text>
</a>
</g>
</g>
<!-- Node248&#45;&gt;Node249 -->
<g id="edge2" class="edge">
<title>Node248&#45;&gt;Node249</title>
<path fill="none" stroke="#191970" d="M310.2541,-93.5512C337.1003,-98.6768 370.8745,-105.1251 399.2151,-110.536"/>
<polygon fill="#191970" stroke="#191970" points="398.9086,-114.0406 409.3876,-112.4782 400.2214,-107.1648 398.9086,-114.0406"/>
</g>
<!-- Node258 -->
<g id="node12" class="node">
<title>Node258</title>
<g id="a_node12"><a xlink:href="class_c_merkle_tx.html#a68b39aa6c6a6a87d4c4db8d852389b76" target="_top" xlink:title="CMerkleTx::IsInMainChain">
<polygon fill="#ffffff" stroke="#000000" points="389.7349,-75.5 389.7349,-93.5 523.5474,-93.5 523.5474,-75.5 389.7349,-75.5"/>
<text text-anchor="middle" x="456.6411" y="-81.5" font-family="Helvetica,sans-Serif" font-size="10.00" fill="#000000">CMerkleTx::IsInMainChain</text>
</a>
</g>
</g>
<!-- Node248&#45;&gt;Node258 -->
<g id="edge11" class="edge">
<title>Node248&#45;&gt;Node258</title>
<path fill="none" stroke="#191970" d="M339.1612,-84.5C352.4128,-84.5 366.2028,-84.5 379.4769,-84.5"/>
<polygon fill="#191970" stroke="#191970" points="379.5097,-88.0001 389.5096,-84.5 379.5096,-81.0001 379.5097,-88.0001"/>
</g>
<!-- Node259 -->
<g id="node13" class="node">
<title>Node259</title>
<g id="a_node13"><a xlink:href="group__map_wallet.html#gaa60b69c7d4ea6063ed83b13d7c6fe695" target="_top" xlink:title="CWallet::GetCredit">
<polygon fill="#ffffff" stroke="#000000" points="407.147,-37.5 407.147,-55.5 506.1353,-55.5 506.1353,-37.5 407.147,-37.5"/>
<text text-anchor="middle" x="456.6411" y="-43.5" font-family="Helvetica,sans-Serif" font-size="10.00" fill="#000000">CWallet::GetCredit</text>
</a>
</g>
</g>
<!-- Node248&#45;&gt;Node259 -->
<g id="edge13" class="edge">
<title>Node248&#45;&gt;Node259</title>
<path fill="none" stroke="#191970" d="M308.7733,-75.4945C336.3073,-70.0955 371.5176,-63.1914 400.6717,-57.4747"/>
<polygon fill="#191970" stroke="#191970" points="401.5691,-60.8655 410.7088,-55.5066 400.2222,-53.9963 401.5691,-60.8655"/>
</g>
<!-- Node250 -->
<g id="node4" class="node">
<title>Node250</title>
<g id="a_node4"><a xlink:href="class_c_merkle_tx.html#adf7a2cf7e7e0fd77290f3bbdb41f5188" target="_top" xlink:title="CMerkleTx::GetBlocksToMaturity">
<polygon fill="#ffffff" stroke="#000000" points="574.2715,-113.5 574.2715,-131.5 735.8574,-131.5 735.8574,-113.5 574.2715,-113.5"/>
<text text-anchor="middle" x="655.0645" y="-119.5" font-family="Helvetica,sans-Serif" font-size="10.00" fill="#000000">CMerkleTx::GetBlocksToMaturity</text>
</a>
</g>
</g>
<!-- Node249&#45;&gt;Node250 -->
<g id="edge3" class="edge">
<title>Node249&#45;&gt;Node250</title>
<path fill="none" stroke="#191970" d="M538.4931,-121.9125C546.8415,-121.9546 555.3593,-121.9975 563.7998,-122.0401"/>
<polygon fill="#191970" stroke="#191970" points="564.023,-125.5411 574.0406,-122.0917 564.0584,-118.5412 564.023,-125.5411"/>
</g>
<!-- Node251 -->
<g id="node5" class="node">
<title>Node251</title>
<g id="a_node5"><a xlink:href="class_c_merkle_tx.html#a5e7ef444cc0c2b875fba9c729ce83b10" target="_top" xlink:title="CMerkleTx::IsCoinBase">
<polygon fill="#ffffff" stroke="#000000" points="782.6973,-117.5 782.6973,-135.5 903.7266,-135.5 903.7266,-117.5 782.6973,-117.5"/>
<text text-anchor="middle" x="843.2119" y="-123.5" font-family="Helvetica,sans-Serif" font-size="10.00" fill="#000000">CMerkleTx::IsCoinBase</text>
</a>
</g>
</g>
<!-- Node250&#45;&gt;Node251 -->
<g id="edge4" class="edge">
<title>Node250&#45;&gt;Node251</title>
<path fill="none" stroke="#191970" d="M735.9478,-124.2196C748.042,-124.4767 760.433,-124.7401 772.2996,-124.9924"/>
<polygon fill="#191970" stroke="#191970" points="772.5001,-128.4974 782.5722,-125.2108 772.6489,-121.4989 772.5001,-128.4974"/>
</g>
<!-- Node252 -->
<g id="node6" class="node">
<title>Node252</title>
<g id="a_node6"><a xlink:href="class_c_merkle_tx.html#a026579f00672e5b907faa77a1baa33c8" target="_top" xlink:title="Return depth of transaction in blockchain: &lt;0 : conflicts with a transaction this deep in the blockch...">
<polygon fill="#ffffff" stroke="#000000" points="771.8574,-70.5 771.8574,-98.5 914.5664,-98.5 914.5664,-70.5 771.8574,-70.5"/>
<text text-anchor="start" x="779.8574" y="-86.5" font-family="Helvetica,sans-Serif" font-size="10.00" fill="#000000">CMerkleTx::GetDepthInMain</text>
<text text-anchor="middle" x="843.2119" y="-76.5" font-family="Helvetica,sans-Serif" font-size="10.00" fill="#000000">Chain</text>
</a>
</g>
</g>
<!-- Node250&#45;&gt;Node252 -->
<g id="edge5" class="edge">
<title>Node250&#45;&gt;Node252</title>
<path fill="none" stroke="#191970" d="M699.6528,-113.4945C718.7825,-109.6309 741.7287,-104.9965 763.6055,-100.5781"/>
<polygon fill="#191970" stroke="#191970" points="764.455,-103.9772 773.5642,-98.5667 763.0692,-97.1158 764.455,-103.9772"/>
</g>
<!-- Node253 -->
<g id="node7" class="node">
<title>Node253</title>
<g id="a_node7"><a xlink:href="class_c_merkle_tx.html#aff66148b06d22c7ee555b79058211493" target="_top" xlink:title="CMerkleTx::hashUnset">
<polygon fill="#ffffff" stroke="#000000" points="950.5664,-131.5 950.5664,-149.5 1068.2656,-149.5 1068.2656,-131.5 950.5664,-131.5"/>
<text text-anchor="middle" x="1009.416" y="-137.5" font-family="Helvetica,sans-Serif" font-size="10.00" fill="#000000">CMerkleTx::hashUnset</text>
</a>
</g>
</g>
<!-- Node252&#45;&gt;Node253 -->
<g id="edge6" class="edge">
<title>Node252&#45;&gt;Node253</title>
<path fill="none" stroke="#191970" d="M888.7023,-98.5391C897.3355,-101.3794 906.2625,-104.4377 914.5664,-107.5 930.8291,-113.4973 934.2592,-116.6247 950.5664,-122.5 956.1687,-124.5184 962.1209,-126.5111 968.0053,-128.3937"/>
<polygon fill="#191970" stroke="#191970" points="967.1816,-131.8031 977.7704,-131.443 969.2682,-125.1213 967.1816,-131.8031"/>
</g>
<!-- Node255 -->
<g id="node9" class="node">
<title>Node255</title>
<g id="a_node9"><a xlink:href="validation_8h.html#a9d9b2d3b31edbd48ce62f4e2a73cc04c" target="_top" xlink:title="LookupBlockIndex">
<polygon fill="#ffffff" stroke="#000000" points="960.5542,-94.5 960.5542,-112.5 1058.2778,-112.5 1058.2778,-94.5 960.5542,-94.5"/>
<text text-anchor="middle" x="1009.416" y="-100.5" font-family="Helvetica,sans-Serif" font-size="10.00" fill="#000000">LookupBlockIndex</text>
</a>
</g>
</g>
<!-- Node252&#45;&gt;Node255 -->
<g id="edge8" class="edge">
<title>Node252&#45;&gt;Node255</title>
<path fill="none" stroke="#191970" d="M914.662,-92.668C926.3829,-94.0079 938.4193,-95.3838 949.8135,-96.6864"/>
<polygon fill="#191970" stroke="#191970" points="949.7367,-100.2003 960.0695,-97.8588 950.5318,-93.2456 949.7367,-100.2003"/>
</g>
<!-- Node256 -->
<g id="node10" class="node">
<title>Node256</title>
<g id="a_node10"><a xlink:href="class_c_chain.html#af1786dc229c215dea7f727c11df2c8dc" target="_top" xlink:title="Efficiently check whether a block is present in this chain. ">
<polygon fill="#ffffff" stroke="#000000" points="962.229,-57.5 962.229,-75.5 1056.603,-75.5 1056.603,-57.5 962.229,-57.5"/>
<text text-anchor="middle" x="1009.416" y="-63.5" font-family="Helvetica,sans-Serif" font-size="10.00" fill="#000000">CChain::Contains</text>
</a>
</g>
</g>
<!-- Node252&#45;&gt;Node256 -->
<g id="edge9" class="edge">
<title>Node252&#45;&gt;Node256</title>
<path fill="none" stroke="#191970" d="M914.662,-76.7619C927.0469,-75.4206 939.784,-74.0412 951.7436,-72.746"/>
<polygon fill="#191970" stroke="#191970" points="952.4599,-76.1889 962.0249,-71.6325 951.7062,-69.2296 952.4599,-76.1889"/>
</g>
<!-- Node257 -->
<g id="node11" class="node">
<title>Node257</title>
<g id="a_node11"><a xlink:href="class_c_chain.html#ad4758bc8872ce065a9579f77c3171d40" target="_top" xlink:title="Return the maximal height in the chain. ">
<polygon fill="#ffffff" stroke="#000000" points="967.5098,-20.5 967.5098,-38.5 1051.3223,-38.5 1051.3223,-20.5 967.5098,-20.5"/>
<text text-anchor="middle" x="1009.416" y="-26.5" font-family="Helvetica,sans-Serif" font-size="10.00" fill="#000000">CChain::Height</text>
</a>
</g>
</g>
<!-- Node252&#45;&gt;Node257 -->
<g id="edge10" class="edge">
<title>Node252&#45;&gt;Node257</title>
<path fill="none" stroke="#191970" d="M882.8669,-70.4613C903.0744,-63.402 928.0691,-54.8149 950.5664,-47.5 956.6342,-45.5271 963.0735,-43.4951 969.3808,-41.539"/>
<polygon fill="#191970" stroke="#191970" points="970.5816,-44.8316 979.1112,-38.5469 968.5242,-38.1407 970.5816,-44.8316"/>
</g>
<!-- Node254 -->
<g id="node8" class="node">
<title>Node254</title>
<g id="a_node8"><a xlink:href="classbase__blob.html#aba89c6722866a5850882a509d27d7bbd" target="_top" xlink:title="base_blob::IsNull">
<polygon fill="#ffffff" stroke="#000000" points="1104.2656,-131.5 1104.2656,-149.5 1196.9795,-149.5 1196.9795,-131.5 1104.2656,-131.5"/>
<text text-anchor="middle" x="1150.6226" y="-137.5" font-family="Helvetica,sans-Serif" font-size="10.00" fill="#000000">base_blob::IsNull</text>
</a>
</g>
</g>
<!-- Node253&#45;&gt;Node254 -->
<g id="edge7" class="edge">
<title>Node253&#45;&gt;Node254</title>
<path fill="none" stroke="#191970" d="M1068.4821,-140.5C1076.9713,-140.5 1085.6892,-140.5 1094.1268,-140.5"/>
<polygon fill="#191970" stroke="#191970" points="1094.2457,-144.0001 1104.2457,-140.5 1094.2457,-137.0001 1094.2457,-144.0001"/>
</g>
<!-- Node258&#45;&gt;Node252 -->
<g id="edge12" class="edge">
<title>Node258&#45;&gt;Node252</title>
<path fill="none" stroke="#191970" d="M523.9766,-84.5C590.0569,-84.5 690.9245,-84.5 761.5462,-84.5"/>
<polygon fill="#191970" stroke="#191970" points="761.7386,-88.0001 771.7385,-84.5 761.7385,-81.0001 761.7386,-88.0001"/>
</g>
<!-- Node260 -->
<g id="node14" class="node">
<title>Node260</title>
<g id="a_node14"><a xlink:href="amount_8h.html#a12db56a9a1c931941f0943ecbb278aae" target="_top" xlink:title="MoneyRange">
<polygon fill="#ffffff" stroke="#000000" points="617.3232,-37.5 617.3232,-55.5 692.8057,-55.5 692.8057,-37.5 617.3232,-37.5"/>
<text text-anchor="middle" x="655.0645" y="-43.5" font-family="Helvetica,sans-Serif" font-size="10.00" fill="#000000">MoneyRange</text>
</a>
</g>
</g>
<!-- Node259&#45;&gt;Node260 -->
<g id="edge14" class="edge">
<title>Node259&#45;&gt;Node260</title>
<path fill="none" stroke="#191970" d="M506.1999,-46.5C536.9017,-46.5 576.1509,-46.5 606.639,-46.5"/>
<polygon fill="#191970" stroke="#191970" points="607.0293,-50.0001 617.0293,-46.5 607.0293,-43.0001 607.0293,-50.0001"/>
</g>
<!-- Node261 -->
<g id="node15" class="node">
<title>Node261</title>
<g id="a_node15"><a xlink:href="group__map_wallet.html#ga4eada57edc1c443564b8cc9b853d955c" target="_top" xlink:title="CWallet::IsMine">
<polygon fill="#ffffff" stroke="#000000" points="612.2402,-.5 612.2402,-18.5 697.8887,-18.5 697.8887,-.5 612.2402,-.5"/>
<text text-anchor="middle" x="655.0645" y="-6.5" font-family="Helvetica,sans-Serif" font-size="10.00" fill="#000000">CWallet::IsMine</text>
</a>
</g>
</g>
<!-- Node259&#45;&gt;Node261 -->
<g id="edge15" class="edge">
<title>Node259&#45;&gt;Node261</title>
<path fill="none" stroke="#191970" d="M504.9272,-37.4961C534.3004,-32.0189 571.8445,-25.018 602.0404,-19.3874"/>
<polygon fill="#191970" stroke="#191970" points="602.7876,-22.8085 611.9766,-17.5346 601.5044,-15.9271 602.7876,-22.8085"/>
</g>
</g>
</svg>
