<?xml version="1.0" encoding="UTF-8" standalone="no"?>
<!DOCTYPE svg PUBLIC "-//W3C//DTD SVG 1.1//EN"
 "http://www.w3.org/Graphics/SVG/1.1/DTD/svg11.dtd">
<!-- Generated by graphviz version 2.40.1 (20161225.0304)
 -->
<!-- Title: CWallet::AddCScript Pages: 1 -->
<svg width="1178pt" height="269pt"
 viewBox="0.00 0.00 1178.17 269.00" xmlns="http://www.w3.org/2000/svg" xmlns:xlink="http://www.w3.org/1999/xlink">
<g id="graph0" class="graph" transform="scale(1 1) rotate(0) translate(4 265)">
<title>CWallet::AddCScript</title>
<polygon fill="#ffffff" stroke="transparent" points="-4,4 -4,-265 1174.166,-265 1174.166,4 -4,4"/>
<!-- Node48 -->
<g id="node1" class="node">
<title>Node48</title>
<polygon fill="#bfbfbf" stroke="#000000" points="0,-168.5 0,-186.5 106.7715,-186.5 106.7715,-168.5 0,-168.5"/>
<text text-anchor="middle" x="53.3857" y="-174.5" font-family="Helvetica,sans-Serif" font-size="10.00" fill="#000000">CWallet::AddCScript</text>
</g>
<!-- Node49 -->
<g id="node2" class="node">
<title>Node49</title>
<g id="a_node2"><a xlink:href="class_c_basic_key_store.html#a45baa35575b5818f6782266e0f4731e6" target="_top" xlink:title="Support for BIP 0013 : see https://github.com/bitcoin/bips/blob/master/bip&#45;0013.mediawiki. ">
<polygon fill="#ffffff" stroke="#000000" points="142.7715,-215.5 142.7715,-233.5 287.7119,-233.5 287.7119,-215.5 142.7715,-215.5"/>
<text text-anchor="middle" x="215.2417" y="-221.5" font-family="Helvetica,sans-Serif" font-size="10.00" fill="#000000">CBasicKeyStore::AddCScript</text>
</a>
</g>
</g>
<!-- Node48&#45;&gt;Node49 -->
<g id="edge1" class="edge">
<title>Node48&#45;&gt;Node49</title>
<path fill="none" stroke="#191970" d="M84.5932,-186.5621C110.1194,-193.9744 146.4207,-204.5157 174.2826,-212.6062"/>
<polygon fill="#191970" stroke="#191970" points="173.5507,-216.0382 184.13,-215.4657 175.5028,-209.3159 173.5507,-216.0382"/>
</g>
<!-- Node52 -->
<g id="node5" class="node">
<title>Node52</title>
<g id="a_node5"><a xlink:href="class_wallet_batch.html#a38766ecc7e69fba0f88cdbcb2a0f3590" target="_top" xlink:title="WalletBatch::WriteCScript">
<polygon fill="#ffffff" stroke="#000000" points="150.0005,-168.5 150.0005,-186.5 280.4829,-186.5 280.4829,-168.5 150.0005,-168.5"/>
<text text-anchor="middle" x="215.2417" y="-174.5" font-family="Helvetica,sans-Serif" font-size="10.00" fill="#000000">WalletBatch::WriteCScript</text>
</a>
</g>
</g>
<!-- Node48&#45;&gt;Node52 -->
<g id="edge4" class="edge">
<title>Node48&#45;&gt;Node52</title>
<path fill="none" stroke="#191970" d="M106.832,-177.5C117.3363,-177.5 128.5416,-177.5 139.614,-177.5"/>
<polygon fill="#191970" stroke="#191970" points="139.7213,-181.0001 149.7213,-177.5 139.7213,-174.0001 139.7213,-181.0001"/>
</g>
<!-- Node56 -->
<g id="node9" class="node">
<title>Node56</title>
<g id="a_node9"><a xlink:href="_hash_8h.html#a3f56a9b8501ec9d021aad11389d419c4" target="_top" xlink:title="Compute the 160&#45;bit hash an object. ">
<polygon fill="#ffffff" stroke="#000000" points="187.2271,-121.5 187.2271,-139.5 243.2563,-139.5 243.2563,-121.5 187.2271,-121.5"/>
<text text-anchor="middle" x="215.2417" y="-127.5" font-family="Helvetica,sans-Serif" font-size="10.00" fill="#000000">Hash360</text>
</a>
</g>
</g>
<!-- Node48&#45;&gt;Node56 -->
<g id="edge8" class="edge">
<title>Node48&#45;&gt;Node56</title>
<path fill="none" stroke="#191970" d="M84.5932,-168.4379C111.0194,-160.7642 148.9938,-149.7372 177.1972,-141.5474"/>
<polygon fill="#191970" stroke="#191970" points="178.4791,-144.8198 187.1063,-138.67 176.527,-138.0975 178.4791,-144.8198"/>
</g>
<!-- Node50 -->
<g id="node3" class="node">
<title>Node50</title>
<g id="a_node3"><a xlink:href="classprevector.html#a626f7d206dbc24e5610631809762758b" target="_top" xlink:title="prevector::size">
<polygon fill="#ffffff" stroke="#000000" points="337.0493,-236.5 337.0493,-254.5 418.0737,-254.5 418.0737,-236.5 337.0493,-236.5"/>
<text text-anchor="middle" x="377.5615" y="-242.5" font-family="Helvetica,sans-Serif" font-size="10.00" fill="#000000">prevector::size</text>
</a>
</g>
</g>
<!-- Node49&#45;&gt;Node50 -->
<g id="edge2" class="edge">
<title>Node49&#45;&gt;Node50</title>
<path fill="none" stroke="#191970" d="M285.0219,-233.5278C298.989,-235.3347 313.4147,-237.2011 326.6002,-238.9069"/>
<polygon fill="#191970" stroke="#191970" points="326.5099,-242.4243 336.8763,-240.2364 327.4081,-235.4822 326.5099,-242.4243"/>
</g>
<!-- Node51 -->
<g id="node4" class="node">
<title>Node51</title>
<g id="a_node4"><a xlink:href="classprevector.html#a933e204a7e29c6bbc85479d023c00ff8" target="_top" xlink:title="prevector::is_direct">
<polygon fill="#ffffff" stroke="#000000" points="491.0391,-242.5 491.0391,-260.5 591.5166,-260.5 591.5166,-242.5 491.0391,-242.5"/>
<text text-anchor="middle" x="541.2778" y="-248.5" font-family="Helvetica,sans-Serif" font-size="10.00" fill="#000000">prevector::is_direct</text>
</a>
</g>
</g>
<!-- Node50&#45;&gt;Node51 -->
<g id="edge3" class="edge">
<title>Node50&#45;&gt;Node51</title>
<path fill="none" stroke="#191970" d="M418.4517,-246.9986C437.3346,-247.6906 460.1361,-248.5263 480.9411,-249.2887"/>
<polygon fill="#191970" stroke="#191970" points="480.8467,-252.7875 490.9682,-249.6562 481.1031,-245.7922 480.8467,-252.7875"/>
</g>
<!-- Node53 -->
<g id="node6" class="node">
<title>Node53</title>
<g id="a_node6"><a xlink:href="class_wallet_batch.html#a552eb421cff45a9ed94b1ec77e5c76c3" target="_top" xlink:title="WalletBatch::WriteIC">
<polygon fill="#ffffff" stroke="#000000" points="323.7119,-168.5 323.7119,-186.5 431.4111,-186.5 431.4111,-168.5 323.7119,-168.5"/>
<text text-anchor="middle" x="377.5615" y="-174.5" font-family="Helvetica,sans-Serif" font-size="10.00" fill="#000000">WalletBatch::WriteIC</text>
</a>
</g>
</g>
<!-- Node52&#45;&gt;Node53 -->
<g id="edge5" class="edge">
<title>Node52&#45;&gt;Node53</title>
<path fill="none" stroke="#191970" d="M280.7955,-177.5C291.5974,-177.5 302.7825,-177.5 313.5461,-177.5"/>
<polygon fill="#191970" stroke="#191970" points="313.7105,-181.0001 323.7104,-177.5 313.7104,-174.0001 313.7105,-181.0001"/>
</g>
<!-- Node54 -->
<g id="node7" class="node">
<title>Node54</title>
<g id="a_node7"><a xlink:href="class_berkeley_batch.html#ac31c83ec96f7bd149f856d28e97dba23" target="_top" xlink:title="BerkeleyBatch::Write">
<polygon fill="#ffffff" stroke="#000000" points="486.6836,-205.5 486.6836,-223.5 595.8721,-223.5 595.8721,-205.5 486.6836,-205.5"/>
<text text-anchor="middle" x="541.2778" y="-211.5" font-family="Helvetica,sans-Serif" font-size="10.00" fill="#000000">BerkeleyBatch::Write</text>
</a>
</g>
</g>
<!-- Node53&#45;&gt;Node54 -->
<g id="edge6" class="edge">
<title>Node53&#45;&gt;Node54</title>
<path fill="none" stroke="#191970" d="M417.611,-186.5512C439.8926,-191.5869 467.8234,-197.8992 491.5004,-203.2503"/>
<polygon fill="#191970" stroke="#191970" points="490.8328,-206.6876 501.3584,-205.4782 492.3759,-199.8598 490.8328,-206.6876"/>
</g>
<!-- Node55 -->
<g id="node8" class="node">
<title>Node55</title>
<g id="a_node8"><a xlink:href="class_berkeley_database.html#a313cd767c211da5738bdb5578cd59af7" target="_top" xlink:title="BerkeleyDatabase::Increment\lUpdateCounter">
<polygon fill="#ffffff" stroke="#000000" points="467.4111,-158.5 467.4111,-186.5 615.1445,-186.5 615.1445,-158.5 467.4111,-158.5"/>
<text text-anchor="start" x="475.4111" y="-174.5" font-family="Helvetica,sans-Serif" font-size="10.00" fill="#000000">BerkeleyDatabase::Increment</text>
<text text-anchor="middle" x="541.2778" y="-164.5" font-family="Helvetica,sans-Serif" font-size="10.00" fill="#000000">UpdateCounter</text>
</a>
</g>
</g>
<!-- Node53&#45;&gt;Node55 -->
<g id="edge7" class="edge">
<title>Node53&#45;&gt;Node55</title>
<path fill="none" stroke="#191970" d="M431.6221,-175.849C439.8561,-175.5975 448.516,-175.333 457.2091,-175.0675"/>
<polygon fill="#191970" stroke="#191970" points="457.5173,-178.5598 467.4058,-174.7561 457.3035,-171.5631 457.5173,-178.5598"/>
</g>
<!-- Node57 -->
<g id="node10" class="node">
<title>Node57</title>
<g id="a_node10"><a xlink:href="class_c_hash360.html#a9268162ed4d951b479493d16f0bfb5df" target="_top" xlink:title="CHash360::Write">
<polygon fill="#ffffff" stroke="#000000" points="331.5806,-121.5 331.5806,-139.5 423.5425,-139.5 423.5425,-121.5 331.5806,-121.5"/>
<text text-anchor="middle" x="377.5615" y="-127.5" font-family="Helvetica,sans-Serif" font-size="10.00" fill="#000000">CHash360::Write</text>
</a>
</g>
</g>
<!-- Node56&#45;&gt;Node57 -->
<g id="edge9" class="edge">
<title>Node56&#45;&gt;Node57</title>
<path fill="none" stroke="#191970" d="M243.5157,-130.5C264.9256,-130.5 295.0326,-130.5 321.2911,-130.5"/>
<polygon fill="#191970" stroke="#191970" points="321.5153,-134.0001 331.5152,-130.5 321.5152,-127.0001 321.5153,-134.0001"/>
</g>
<!-- Node62 -->
<g id="node15" class="node">
<title>Node62</title>
<g id="a_node15"><a xlink:href="class_c_hash360.html#abb6b8a5693cd0b09e52bb624bafc1efd" target="_top" xlink:title="CHash360::Finalize">
<polygon fill="#ffffff" stroke="#000000" points="325.9287,-66.5 325.9287,-84.5 429.1943,-84.5 429.1943,-66.5 325.9287,-66.5"/>
<text text-anchor="middle" x="377.5615" y="-72.5" font-family="Helvetica,sans-Serif" font-size="10.00" fill="#000000">CHash360::Finalize</text>
</a>
</g>
</g>
<!-- Node56&#45;&gt;Node62 -->
<g id="edge14" class="edge">
<title>Node56&#45;&gt;Node62</title>
<path fill="none" stroke="#191970" d="M242.0455,-121.4179C269.1472,-112.2348 311.2148,-97.9807 341.2878,-87.7909"/>
<polygon fill="#191970" stroke="#191970" points="342.6398,-91.0283 350.9877,-84.5042 340.3934,-84.3986 342.6398,-91.0283"/>
</g>
<!-- Node58 -->
<g id="node11" class="node">
<title>Node58</title>
<g id="a_node11"><a xlink:href="class_c_s_h_a3.html#a439a0fade3fa1b7989c6cf053d39161b" target="_top" xlink:title="CSHA3::Write">
<polygon fill="#ffffff" stroke="#000000" points="502.25,-121.5 502.25,-139.5 580.3057,-139.5 580.3057,-121.5 502.25,-121.5"/>
<text text-anchor="middle" x="541.2778" y="-127.5" font-family="Helvetica,sans-Serif" font-size="10.00" fill="#000000">CSHA3::Write</text>
</a>
</g>
</g>
<!-- Node57&#45;&gt;Node58 -->
<g id="edge10" class="edge">
<title>Node57&#45;&gt;Node58</title>
<path fill="none" stroke="#191970" d="M423.6013,-130.5C444.9926,-130.5 470.4489,-130.5 492.2042,-130.5"/>
<polygon fill="#191970" stroke="#191970" points="492.2311,-134.0001 502.2311,-130.5 492.2311,-127.0001 492.2311,-134.0001"/>
</g>
<!-- Node59 -->
<g id="node12" class="node">
<title>Node59</title>
<g id="a_node12"><a xlink:href="class_s_h_a3__256.html#a8356957ea403c5da326fc6899b91ea71" target="_top" xlink:title="Updates the hash with more data. ">
<polygon fill="#ffffff" stroke="#000000" points="665.4023,-136.5 665.4023,-154.5 765.9141,-154.5 765.9141,-136.5 665.4023,-136.5"/>
<text text-anchor="middle" x="715.6582" y="-142.5" font-family="Helvetica,sans-Serif" font-size="10.00" fill="#000000">SHA3_256::update</text>
</a>
</g>
</g>
<!-- Node58&#45;&gt;Node59 -->
<g id="edge11" class="edge">
<title>Node58&#45;&gt;Node59</title>
<path fill="none" stroke="#191970" d="M580.4122,-133.8663C602.4763,-135.7642 630.5113,-138.1758 655.3286,-140.3105"/>
<polygon fill="#191970" stroke="#191970" points="655.116,-143.8051 665.3792,-141.1751 655.716,-136.8308 655.116,-143.8051"/>
</g>
<!-- Node60 -->
<g id="node13" class="node">
<title>Node60</title>
<g id="a_node13"><a xlink:href="class_keccak_core.html#aaaa0355ccec0f469ac8eb577bdf853ed" target="_top" xlink:title="Updates the Keccak sponge function with more input data. ">
<polygon fill="#ffffff" stroke="#000000" points="816.1719,-150.5 816.1719,-168.5 922.7822,-168.5 922.7822,-150.5 816.1719,-150.5"/>
<text text-anchor="middle" x="869.4771" y="-156.5" font-family="Helvetica,sans-Serif" font-size="10.00" fill="#000000">KeccakCore::update</text>
</a>
</g>
</g>
<!-- Node59&#45;&gt;Node60 -->
<g id="edge12" class="edge">
<title>Node59&#45;&gt;Node60</title>
<path fill="none" stroke="#191970" d="M766.0242,-150.0841C778.8013,-151.247 792.6924,-152.5114 806.0264,-153.725"/>
<polygon fill="#191970" stroke="#191970" points="805.8107,-157.2197 816.0868,-154.6406 806.4452,-150.2485 805.8107,-157.2197"/>
</g>
<!-- Node61 -->
<g id="node14" class="node">
<title>Node61</title>
<g id="a_node14"><a xlink:href="class_keccak_core.html#aba3225c7a4ceff3580236a900b72a1c3" target="_top" xlink:title="Transform the state with the KECCAK&#45;p sponge function with b = 1600. ">
<polygon fill="#ffffff" stroke="#000000" points="958.7822,-113.5 958.7822,-131.5 1071.4912,-131.5 1071.4912,-113.5 958.7822,-113.5"/>
<text text-anchor="middle" x="1015.1367" y="-119.5" font-family="Helvetica,sans-Serif" font-size="10.00" fill="#000000">KeccakCore::keccakp</text>
</a>
</g>
</g>
<!-- Node60&#45;&gt;Node61 -->
<g id="edge13" class="edge">
<title>Node60&#45;&gt;Node61</title>
<path fill="none" stroke="#191970" d="M905.1094,-150.4488C924.5795,-145.5031 948.8978,-139.3258 969.7173,-134.0373"/>
<polygon fill="#191970" stroke="#191970" points="970.7896,-137.3761 979.6201,-131.5218 969.0662,-130.5916 970.7896,-137.3761"/>
</g>
<!-- Node63 -->
<g id="node16" class="node">
<title>Node63</title>
<g id="a_node16"><a xlink:href="class_c_s_h_a3.html#a7aa515a9a0fa6d72667d74897f699ae9" target="_top" xlink:title="CSHA3::Finalize">
<polygon fill="#ffffff" stroke="#000000" points="496.5981,-75.5 496.5981,-93.5 585.9575,-93.5 585.9575,-75.5 496.5981,-75.5"/>
<text text-anchor="middle" x="541.2778" y="-81.5" font-family="Helvetica,sans-Serif" font-size="10.00" fill="#000000">CSHA3::Finalize</text>
</a>
</g>
</g>
<!-- Node62&#45;&gt;Node63 -->
<g id="edge15" class="edge">
<title>Node62&#45;&gt;Node63</title>
<path fill="none" stroke="#191970" d="M429.3624,-78.3477C447.542,-79.347 468.0185,-80.4727 486.439,-81.4853"/>
<polygon fill="#191970" stroke="#191970" points="486.2563,-84.9805 496.4334,-82.0348 486.6406,-77.991 486.2563,-84.9805"/>
</g>
<!-- Node69 -->
<g id="node22" class="node">
<title>Node69</title>
<g id="a_node22"><a xlink:href="class_c_r_i_p_e_m_d160.html#a221143b9d94af623d07c4f4ba1bf6007" target="_top" xlink:title="CRIPEMD160::Write">
<polygon fill="#ffffff" stroke="#000000" points="487.5234,-38.5 487.5234,-56.5 595.0322,-56.5 595.0322,-38.5 487.5234,-38.5"/>
<text text-anchor="middle" x="541.2778" y="-44.5" font-family="Helvetica,sans-Serif" font-size="10.00" fill="#000000">CRIPEMD160::Write</text>
</a>
</g>
</g>
<!-- Node62&#45;&gt;Node69 -->
<g id="edge23" class="edge">
<title>Node62&#45;&gt;Node69</title>
<path fill="none" stroke="#191970" d="M429.3624,-66.6406C444.9556,-63.9738 462.2386,-61.0179 478.4646,-58.2428"/>
<polygon fill="#191970" stroke="#191970" points="479.1396,-61.6783 488.4064,-56.5425 477.9595,-54.7784 479.1396,-61.6783"/>
</g>
<!-- Node71 -->
<g id="node24" class="node">
<title>Node71</title>
<g id="a_node24"><a xlink:href="class_c_r_i_p_e_m_d160.html#a2a11566fbf9d1339b819833313fc4e51" target="_top" xlink:title="CRIPEMD160::Finalize">
<polygon fill="#ffffff" stroke="#000000" points="481.8716,-1.5 481.8716,-19.5 600.6841,-19.5 600.6841,-1.5 481.8716,-1.5"/>
<text text-anchor="middle" x="541.2778" y="-7.5" font-family="Helvetica,sans-Serif" font-size="10.00" fill="#000000">CRIPEMD160::Finalize</text>
</a>
</g>
</g>
<!-- Node62&#45;&gt;Node71 -->
<g id="edge26" class="edge">
<title>Node62&#45;&gt;Node71</title>
<path fill="none" stroke="#191970" d="M392.6676,-66.4491C410.1488,-56.2908 440.047,-39.8771 467.4111,-29.5 474.4703,-26.823 482.0491,-24.396 489.5659,-22.2403"/>
<polygon fill="#191970" stroke="#191970" points="490.6383,-25.5757 499.3629,-19.5647 488.794,-18.823 490.6383,-25.5757"/>
</g>
<!-- Node64 -->
<g id="node17" class="node">
<title>Node64</title>
<g id="a_node17"><a xlink:href="class_s_h_a3__256.html#a8fe7cad1f83bd1bae1a0d521324247a1" target="_top" xlink:title="Finalizes the hashing process and returns the hash. ">
<polygon fill="#ffffff" stroke="#000000" points="665.1313,-76.5 665.1313,-94.5 766.1851,-94.5 766.1851,-76.5 665.1313,-76.5"/>
<text text-anchor="middle" x="715.6582" y="-82.5" font-family="Helvetica,sans-Serif" font-size="10.00" fill="#000000">SHA3_256::finalize</text>
</a>
</g>
</g>
<!-- Node63&#45;&gt;Node64 -->
<g id="edge16" class="edge">
<title>Node63&#45;&gt;Node64</title>
<path fill="none" stroke="#191970" d="M586.1851,-84.7575C607.1002,-84.8775 632.2983,-85.022 654.8847,-85.1515"/>
<polygon fill="#191970" stroke="#191970" points="655.0337,-88.6523 665.0537,-85.2098 655.0739,-81.6524 655.0337,-88.6523"/>
</g>
<!-- Node65 -->
<g id="node18" class="node">
<title>Node65</title>
<g id="a_node18"><a xlink:href="class_keccak_core.html#a97852ee4381ced17ee6d21704cf0b4d7" target="_top" xlink:title="Pads the last block of input data to blockSize(). ">
<polygon fill="#ffffff" stroke="#000000" points="823.1226,-113.5 823.1226,-131.5 915.8315,-131.5 915.8315,-113.5 823.1226,-113.5"/>
<text text-anchor="middle" x="869.4771" y="-119.5" font-family="Helvetica,sans-Serif" font-size="10.00" fill="#000000">KeccakCore::pad</text>
</a>
</g>
</g>
<!-- Node64&#45;&gt;Node65 -->
<g id="edge17" class="edge">
<title>Node64&#45;&gt;Node65</title>
<path fill="none" stroke="#191970" d="M753.2865,-94.5512C774.0341,-99.5419 799.9951,-105.7866 822.1121,-111.1067"/>
<polygon fill="#191970" stroke="#191970" points="821.4297,-114.5423 831.9709,-113.4782 823.0668,-107.7364 821.4297,-114.5423"/>
</g>
<!-- Node66 -->
<g id="node19" class="node">
<title>Node66</title>
<g id="a_node19"><a xlink:href="class_keccak_core.html#aad83ece853c0cc15fcab947fdcba924f" target="_top" xlink:title="Extracts data from the Keccak sponge function. ">
<polygon fill="#ffffff" stroke="#000000" points="816.46,-76.5 816.46,-94.5 922.4941,-94.5 922.4941,-76.5 816.46,-76.5"/>
<text text-anchor="middle" x="869.4771" y="-82.5" font-family="Helvetica,sans-Serif" font-size="10.00" fill="#000000">KeccakCore::extract</text>
</a>
</g>
</g>
<!-- Node64&#45;&gt;Node66 -->
<g id="edge19" class="edge">
<title>Node64&#45;&gt;Node66</title>
<path fill="none" stroke="#191970" d="M766.4505,-85.5C779.2117,-85.5 793.0613,-85.5 806.3442,-85.5"/>
<polygon fill="#191970" stroke="#191970" points="806.3639,-89.0001 816.3638,-85.5 806.3638,-82.0001 806.3639,-89.0001"/>
</g>
<!-- Node65&#45;&gt;Node61 -->
<g id="edge18" class="edge">
<title>Node65&#45;&gt;Node61</title>
<path fill="none" stroke="#191970" d="M915.9652,-122.5C926.3556,-122.5 937.5726,-122.5 948.5961,-122.5"/>
<polygon fill="#191970" stroke="#191970" points="948.6361,-126.0001 958.636,-122.5 948.636,-119.0001 948.6361,-126.0001"/>
</g>
<!-- Node66&#45;&gt;Node61 -->
<g id="edge20" class="edge">
<title>Node66&#45;&gt;Node61</title>
<path fill="none" stroke="#191970" d="M905.1094,-94.5512C924.5795,-99.4969 948.8978,-105.6742 969.7173,-110.9627"/>
<polygon fill="#191970" stroke="#191970" points="969.0662,-114.4084 979.6201,-113.4782 970.7896,-107.6239 969.0662,-114.4084"/>
</g>
<!-- Node67 -->
<g id="node20" class="node">
<title>Node67</title>
<g id="a_node20"><a xlink:href="glibc__compat_8cpp.html#a0f46826ab0466591e136db24394923cf" target="_top" xlink:title="memcpy">
<polygon fill="#ffffff" stroke="#000000" points="988.2451,-57.5 988.2451,-75.5 1042.0283,-75.5 1042.0283,-57.5 988.2451,-57.5"/>
<text text-anchor="middle" x="1015.1367" y="-63.5" font-family="Helvetica,sans-Serif" font-size="10.00" fill="#000000">memcpy</text>
</a>
</g>
</g>
<!-- Node66&#45;&gt;Node67 -->
<g id="edge21" class="edge">
<title>Node66&#45;&gt;Node67</title>
<path fill="none" stroke="#191970" d="M922.8882,-78.533C941.1771,-76.1474 961.2285,-73.5318 977.9518,-71.3504"/>
<polygon fill="#191970" stroke="#191970" points="978.4255,-74.8184 987.8888,-70.0542 977.52,-67.8772 978.4255,-74.8184"/>
</g>
<!-- Node68 -->
<g id="node21" class="node">
<title>Node68</title>
<g id="a_node21"><a xlink:href="glibc__compat_8cpp.html#a9778d49e9029dd75bc53ecbbf9f5e9a1" target="_top" xlink:title="memmove">
<polygon fill="#ffffff" stroke="#000000" points="1107.4912,-57.5 1107.4912,-75.5 1170.166,-75.5 1170.166,-57.5 1107.4912,-57.5"/>
<text text-anchor="middle" x="1138.8286" y="-63.5" font-family="Helvetica,sans-Serif" font-size="10.00" fill="#000000">memmove</text>
</a>
</g>
</g>
<!-- Node67&#45;&gt;Node68 -->
<g id="edge22" class="edge">
<title>Node67&#45;&gt;Node68</title>
<path fill="none" stroke="#191970" d="M1042.2814,-66.5C1058.4072,-66.5 1079.1868,-66.5 1097.3349,-66.5"/>
<polygon fill="#191970" stroke="#191970" points="1097.3798,-70.0001 1107.3797,-66.5 1097.3797,-63.0001 1097.3798,-70.0001"/>
</g>
<!-- Node69&#45;&gt;Node67 -->
<g id="edge24" class="edge">
<title>Node69&#45;&gt;Node67</title>
<path fill="none" stroke="#191970" d="M595.1741,-49.661C692.4113,-53.5599 894.8129,-61.6755 978.105,-65.0152"/>
<polygon fill="#191970" stroke="#191970" points="977.9888,-68.5132 988.121,-65.4168 978.2693,-61.5188 977.9888,-68.5132"/>
</g>
<!-- Node70 -->
<g id="node23" class="node">
<title>Node70</title>
<g id="a_node23"><a xlink:href="namespacesha256__shani.html#a97d2e267c87add9a1172d948e05ba471" target="_top" xlink:title="sha256_shani::Transform">
<polygon fill="#ffffff" stroke="#000000" points="651.1445,-.5 651.1445,-18.5 780.1719,-18.5 780.1719,-.5 651.1445,-.5"/>
<text text-anchor="middle" x="715.6582" y="-6.5" font-family="Helvetica,sans-Serif" font-size="10.00" fill="#000000">sha256_shani::Transform</text>
</a>
</g>
</g>
<!-- Node69&#45;&gt;Node70 -->
<g id="edge25" class="edge">
<title>Node69&#45;&gt;Node70</title>
<path fill="none" stroke="#191970" d="M582.6035,-38.4945C607.0547,-33.1663 638.2333,-26.372 664.2619,-20.7"/>
<polygon fill="#191970" stroke="#191970" points="665.3018,-24.0556 674.3273,-18.5066 663.8114,-17.2161 665.3018,-24.0556"/>
</g>
</g>
</svg>
