<?xml version="1.0" encoding="UTF-8" standalone="no"?>
<!DOCTYPE svg PUBLIC "-//W3C//DTD SVG 1.1//EN"
 "http://www.w3.org/Graphics/SVG/1.1/DTD/svg11.dtd">
<!-- Generated by graphviz version 2.40.1 (20161225.0304)
 -->
<!-- Title: COutput::ToString Pages: 1 -->
<svg width="249pt" height="101pt"
 viewBox="0.00 0.00 248.84 101.00" xmlns="http://www.w3.org/2000/svg" xmlns:xlink="http://www.w3.org/1999/xlink">
<g id="graph0" class="graph" transform="scale(1 1) rotate(0) translate(4 97)">
<title>COutput::ToString</title>
<polygon fill="#ffffff" stroke="transparent" points="-4,4 -4,-97 244.8369,-97 244.8369,4 -4,4"/>
<!-- Node2039 -->
<g id="node1" class="node">
<title>Node2039</title>
<polygon fill="#bfbfbf" stroke="#000000" points="0,-37.5 0,-55.5 95.4824,-55.5 95.4824,-37.5 0,-37.5"/>
<text text-anchor="middle" x="47.7412" y="-43.5" font-family="Helvetica,sans-Serif" font-size="10.00" fill="#000000">COutput::ToString</text>
</g>
<!-- Node2040 -->
<g id="node2" class="node">
<title>Node2040</title>
<g id="a_node2"><a xlink:href="class_c_merkle_tx.html#a20142f81e7ff0242db646e63e0a973b3" target="_top" xlink:title="CMerkleTx::GetHash">
<polygon fill="#ffffff" stroke="#000000" points="131.4824,-74.5 131.4824,-92.5 240.8369,-92.5 240.8369,-74.5 131.4824,-74.5"/>
<text text-anchor="middle" x="186.1597" y="-80.5" font-family="Helvetica,sans-Serif" font-size="10.00" fill="#000000">CMerkleTx::GetHash</text>
</a>
</g>
</g>
<!-- Node2039&#45;&gt;Node2040 -->
<g id="edge1" class="edge">
<title>Node2039&#45;&gt;Node2040</title>
<path fill="none" stroke="#191970" d="M81.6022,-55.5512C99.868,-60.4338 122.6241,-66.5166 142.2383,-71.7596"/>
<polygon fill="#191970" stroke="#191970" points="141.6039,-75.2128 152.1685,-74.414 143.4116,-68.4502 141.6039,-75.2128"/>
</g>
<!-- Node2041 -->
<g id="node3" class="node">
<title>Node2041</title>
<g id="a_node3"><a xlink:href="classbase__blob.html#a7a0d25782830d8b087c4da839f3ccdeb" target="_top" xlink:title="base_blob::ToString">
<polygon fill="#ffffff" stroke="#000000" points="133.9629,-37.5 133.9629,-55.5 238.3564,-55.5 238.3564,-37.5 133.9629,-37.5"/>
<text text-anchor="middle" x="186.1597" y="-43.5" font-family="Helvetica,sans-Serif" font-size="10.00" fill="#000000">base_blob::ToString</text>
</a>
</g>
</g>
<!-- Node2039&#45;&gt;Node2041 -->
<g id="edge2" class="edge">
<title>Node2039&#45;&gt;Node2041</title>
<path fill="none" stroke="#191970" d="M95.7648,-46.5C104.7102,-46.5 114.1782,-46.5 123.487,-46.5"/>
<polygon fill="#191970" stroke="#191970" points="123.4934,-50.0001 133.4934,-46.5 123.4933,-43.0001 123.4934,-50.0001"/>
</g>
<!-- Node2042 -->
<g id="node4" class="node">
<title>Node2042</title>
<g id="a_node4"><a xlink:href="utilmoneystr_8cpp.html#a0043c9abedcbce2d7d1d2cacaf595c9e" target="_top" xlink:title="Money parsing/formatting utilities. ">
<polygon fill="#ffffff" stroke="#000000" points="147.3174,-.5 147.3174,-18.5 225.002,-18.5 225.002,-.5 147.3174,-.5"/>
<text text-anchor="middle" x="186.1597" y="-6.5" font-family="Helvetica,sans-Serif" font-size="10.00" fill="#000000">FormatMoney</text>
</a>
</g>
</g>
<!-- Node2039&#45;&gt;Node2042 -->
<g id="edge3" class="edge">
<title>Node2039&#45;&gt;Node2042</title>
<path fill="none" stroke="#191970" d="M81.6022,-37.4488C99.868,-32.5662 122.6241,-26.4834 142.2383,-21.2404"/>
<polygon fill="#191970" stroke="#191970" points="143.4116,-24.5498 152.1685,-18.586 141.6039,-17.7872 143.4116,-24.5498"/>
</g>
</g>
</svg>
