<?xml version="1.0" encoding="UTF-8" standalone="no"?>
<!DOCTYPE svg PUBLIC "-//W3C//DTD SVG 1.1//EN"
 "http://www.w3.org/Graphics/SVG/1.1/DTD/svg11.dtd">
<!-- Generated by graphviz version 2.40.1 (20161225.0304)
 -->
<!-- Title: CWallet::EncryptWallet Pages: 1 -->
<svg width="1078pt" height="786pt"
 viewBox="0.00 0.00 1078.21 786.47" xmlns="http://www.w3.org/2000/svg" xmlns:xlink="http://www.w3.org/1999/xlink">
<g id="graph0" class="graph" transform="scale(1 1) rotate(0) translate(4 782.4711)">
<title>CWallet::EncryptWallet</title>
<polygon fill="#ffffff" stroke="transparent" points="-4,4 -4,-782.4711 1074.2139,-782.4711 1074.2139,4 -4,4"/>
<!-- Node771 -->
<g id="node1" class="node">
<title>Node771</title>
<polygon fill="#bfbfbf" stroke="#000000" points="0,-259.5 0,-277.5 117.5137,-277.5 117.5137,-259.5 0,-259.5"/>
<text text-anchor="middle" x="58.7568" y="-265.5" font-family="Helvetica,sans-Serif" font-size="10.00" fill="#000000">CWallet::EncryptWallet</text>
</g>
<!-- Node772 -->
<g id="node2" class="node">
<title>Node772</title>
<g id="a_node2"><a xlink:href="class_c_crypto_key_store.html#acc8fed44366c98fb481333ca6e867088" target="_top" xlink:title="CCryptoKeyStore::IsCrypted">
<polygon fill="#ffffff" stroke="#000000" points="744.3232,-745.5 744.3232,-763.5 886.4805,-763.5 886.4805,-745.5 744.3232,-745.5"/>
<text text-anchor="middle" x="815.4019" y="-751.5" font-family="Helvetica,sans-Serif" font-size="10.00" fill="#000000">CCryptoKeyStore::IsCrypted</text>
</a>
</g>
</g>
<!-- Node771&#45;&gt;Node772 -->
<g id="edge1" class="edge">
<title>Node771&#45;&gt;Node772</title>
<path fill="none" stroke="#191970" d="M59.9461,-277.7216C66.7544,-329.2036 102.2909,-580.7568 153.5137,-636.5 310.7286,-807.5893 623.6568,-783.9516 755.0747,-764.9744"/>
<polygon fill="#191970" stroke="#191970" points="755.5932,-768.4359 764.9703,-763.5042 754.5644,-761.5119 755.5932,-768.4359"/>
</g>
<!-- Node773 -->
<g id="node3" class="node">
<title>Node773</title>
<g id="a_node3"><a xlink:href="random_8cpp.html#ad3431dd191f6ae9977f482c150da3d6f" target="_top" xlink:title="Function to gather random data from multiple sources, failing whenever any of those sources fail to p...">
<polygon fill="#ffffff" stroke="#000000" points="567.2646,-185.5 567.2646,-203.5 677.7617,-203.5 677.7617,-185.5 567.2646,-185.5"/>
<text text-anchor="middle" x="622.5132" y="-191.5" font-family="Helvetica,sans-Serif" font-size="10.00" fill="#000000">GetStrongRandBytes</text>
</a>
</g>
</g>
<!-- Node771&#45;&gt;Node773 -->
<g id="edge2" class="edge">
<title>Node771&#45;&gt;Node773</title>
<path fill="none" stroke="#191970" d="M117.7579,-260.7554C223.8595,-246.8282 446.1037,-217.6559 556.8597,-203.1178"/>
<polygon fill="#191970" stroke="#191970" points="557.4404,-206.5717 566.8998,-201.7999 556.5293,-199.6313 557.4404,-206.5717"/>
</g>
<!-- Node774 -->
<g id="node4" class="node">
<title>Node774</title>
<g id="a_node4"><a xlink:href="utiltime_8cpp.html#a139d0fe6387b9e230a9b8bb12d9b43b9" target="_top" xlink:title="GetTimeMillis">
<polygon fill="#ffffff" stroke="#000000" points="186.043,-188.5 186.043,-206.5 262.2334,-206.5 262.2334,-188.5 186.043,-188.5"/>
<text text-anchor="middle" x="224.1382" y="-194.5" font-family="Helvetica,sans-Serif" font-size="10.00" fill="#000000">GetTimeMillis</text>
</a>
</g>
</g>
<!-- Node771&#45;&gt;Node774 -->
<g id="edge3" class="edge">
<title>Node771&#45;&gt;Node774</title>
<path fill="none" stroke="#191970" d="M75.2202,-259.4965C93.8801,-249.4904 125.3663,-233.2024 153.5137,-221.5 163.572,-217.3182 174.6455,-213.2933 184.981,-209.7737"/>
<polygon fill="#191970" stroke="#191970" points="186.2266,-213.0479 194.6069,-206.5655 184.0132,-206.4071 186.2266,-213.0479"/>
</g>
<!-- Node775 -->
<g id="node5" class="node">
<title>Node775</title>
<g id="a_node5"><a xlink:href="class_c_crypter.html#a5368279e4a1549d3c1d15d8aa2179708" target="_top" xlink:title="CCrypter::SetKeyFromPassphrase">
<polygon fill="#ffffff" stroke="#000000" points="330.7627,-150.5 330.7627,-168.5 500.7031,-168.5 500.7031,-150.5 330.7627,-150.5"/>
<text text-anchor="middle" x="415.7329" y="-156.5" font-family="Helvetica,sans-Serif" font-size="10.00" fill="#000000">CCrypter::SetKeyFromPassphrase</text>
</a>
</g>
</g>
<!-- Node771&#45;&gt;Node775 -->
<g id="edge4" class="edge">
<title>Node771&#45;&gt;Node775</title>
<path fill="none" stroke="#191970" d="M65.053,-259.3543C78.6472,-240.4688 112.828,-197.4306 153.5137,-179.5 205.509,-156.5851 268.9219,-151.2234 320.3627,-151.7637"/>
<polygon fill="#191970" stroke="#191970" points="320.4226,-155.2653 330.4843,-151.947 320.5494,-148.2664 320.4226,-155.2653"/>
</g>
<!-- Node778 -->
<g id="node8" class="node">
<title>Node778</title>
<g id="a_node8"><a xlink:href="class_c_wallet.html#a4083c9a8583aa7b355da55280a519cc8" target="_top" xlink:title="Prepends the wallet name in logging output to ease debugging in multi&#45;wallet use cases. ">
<polygon fill="#ffffff" stroke="#000000" points="353.9146,-369.5 353.9146,-387.5 477.5513,-387.5 477.5513,-369.5 353.9146,-369.5"/>
<text text-anchor="middle" x="415.7329" y="-375.5" font-family="Helvetica,sans-Serif" font-size="10.00" fill="#000000">CWallet::WalletLogPrintf</text>
</a>
</g>
</g>
<!-- Node771&#45;&gt;Node778 -->
<g id="edge7" class="edge">
<title>Node771&#45;&gt;Node778</title>
<path fill="none" stroke="#191970" d="M78.8083,-277.6178C97.7976,-286.0448 127.2362,-298.5745 153.5137,-307.5 226.5132,-332.2953 313.201,-354.3739 366.3323,-367.0955"/>
<polygon fill="#191970" stroke="#191970" points="365.6358,-370.5274 376.1743,-369.4368 367.2559,-363.7174 365.6358,-370.5274"/>
</g>
<!-- Node779 -->
<g id="node9" class="node">
<title>Node779</title>
<g id="a_node9"><a xlink:href="class_c_crypter.html#a0d86aa5dcc5b52200359948fed9f599e" target="_top" xlink:title="CCrypter::Encrypt">
<polygon fill="#ffffff" stroke="#000000" points="176.4067,-38.5 176.4067,-56.5 271.8696,-56.5 271.8696,-38.5 176.4067,-38.5"/>
<text text-anchor="middle" x="224.1382" y="-44.5" font-family="Helvetica,sans-Serif" font-size="10.00" fill="#000000">CCrypter::Encrypt</text>
</a>
</g>
</g>
<!-- Node771&#45;&gt;Node779 -->
<g id="edge8" class="edge">
<title>Node771&#45;&gt;Node779</title>
<path fill="none" stroke="#191970" d="M60.2357,-259.1059C65.8377,-226.7664 88.8185,-119.093 153.5137,-65.5 157.492,-62.2044 161.9977,-59.5021 166.7614,-57.2878"/>
<polygon fill="#191970" stroke="#191970" points="168.1345,-60.509 176.1695,-53.6032 165.5817,-53.991 168.1345,-60.509"/>
</g>
<!-- Node780 -->
<g id="node10" class="node">
<title>Node780</title>
<g id="a_node10"><a xlink:href="class_c_crypto_key_store.html#a8c0f6b63fb04193df16243c4459b7c61" target="_top" xlink:title="will encrypt previously unencrypted keys ">
<polygon fill="#ffffff" stroke="#000000" points="337.9844,-670.5 337.9844,-688.5 493.4814,-688.5 493.4814,-670.5 337.9844,-670.5"/>
<text text-anchor="middle" x="415.7329" y="-676.5" font-family="Helvetica,sans-Serif" font-size="10.00" fill="#000000">CCryptoKeyStore::EncryptKeys</text>
</a>
</g>
</g>
<!-- Node771&#45;&gt;Node780 -->
<g id="edge9" class="edge">
<title>Node771&#45;&gt;Node780</title>
<path fill="none" stroke="#191970" d="M60.3976,-277.6023C68.9737,-324.317 109.9175,-536.8322 153.5137,-585.5 197.8803,-635.0278 270.2301,-658.4696 327.7061,-669.5594"/>
<polygon fill="#191970" stroke="#191970" points="327.4215,-673.0655 337.8887,-671.4263 328.6839,-666.1802 327.4215,-673.0655"/>
</g>
<!-- Node786 -->
<g id="node16" class="node">
<title>Node786</title>
<g id="a_node16"><a xlink:href="group__map_wallet.html#gab520e9876bc48da8c3cf8582ab995e9a" target="_top" xlink:title="signify that a particular wallet feature is now used. this may change nWalletVersion and nWalletMaxVe...">
<polygon fill="#ffffff" stroke="#000000" points="163.7993,-557.5 163.7993,-575.5 284.4771,-575.5 284.4771,-557.5 163.7993,-557.5"/>
<text text-anchor="middle" x="224.1382" y="-563.5" font-family="Helvetica,sans-Serif" font-size="10.00" fill="#000000">CWallet::SetMinVersion</text>
</a>
</g>
</g>
<!-- Node771&#45;&gt;Node786 -->
<g id="edge16" class="edge">
<title>Node771&#45;&gt;Node786</title>
<path fill="none" stroke="#191970" d="M60.5344,-277.686C67.4364,-311.5339 95.026,-431.4171 153.5137,-510.5 165.9193,-527.2741 184.5596,-541.7656 199.5753,-551.8023"/>
<polygon fill="#191970" stroke="#191970" points="198.064,-554.9916 208.3682,-557.4564 201.8501,-549.1038 198.064,-554.9916"/>
</g>
<!-- Node791 -->
<g id="node21" class="node">
<title>Node791</title>
<g id="a_node21"><a xlink:href="class_c_crypto_key_store.html#ab73ebcbfa6e0aaf271d0fff9369a6685" target="_top" xlink:title="CCryptoKeyStore::Lock">
<polygon fill="#ffffff" stroke="#000000" points="163.8945,-112.5 163.8945,-130.5 284.3818,-130.5 284.3818,-112.5 163.8945,-112.5"/>
<text text-anchor="middle" x="224.1382" y="-118.5" font-family="Helvetica,sans-Serif" font-size="10.00" fill="#000000">CCryptoKeyStore::Lock</text>
</a>
</g>
</g>
<!-- Node771&#45;&gt;Node791 -->
<g id="edge21" class="edge">
<title>Node771&#45;&gt;Node791</title>
<path fill="none" stroke="#191970" d="M63.3616,-259.2972C75.173,-236.6043 108.7895,-177.4952 153.5137,-145.5 159.8824,-140.9439 167.1828,-137.2011 174.6194,-134.1416"/>
<polygon fill="#191970" stroke="#191970" points="175.9068,-137.3971 184.0522,-130.6219 173.4596,-130.8388 175.9068,-137.3971"/>
</g>
<!-- Node793 -->
<g id="node23" class="node">
<title>Node793</title>
<g id="a_node23"><a xlink:href="group__map_wallet.html#ga002c61a2b74f2c46063340c568e6cc1b" target="_top" xlink:title="CWallet::Unlock">
<polygon fill="#ffffff" stroke="#000000" points="180.7573,-75.5 180.7573,-93.5 267.519,-93.5 267.519,-75.5 180.7573,-75.5"/>
<text text-anchor="middle" x="224.1382" y="-81.5" font-family="Helvetica,sans-Serif" font-size="10.00" fill="#000000">CWallet::Unlock</text>
</a>
</g>
</g>
<!-- Node771&#45;&gt;Node793 -->
<g id="edge23" class="edge">
<title>Node771&#45;&gt;Node793</title>
<path fill="none" stroke="#191970" d="M61.2321,-259.2515C69.2908,-230.9925 97.5442,-145.1217 153.5137,-102.5 158.6665,-98.576 164.5823,-95.5016 170.75,-93.0939"/>
<polygon fill="#191970" stroke="#191970" points="172.1874,-96.3046 180.5759,-89.8328 169.9824,-89.661 172.1874,-96.3046"/>
</g>
<!-- Node797 -->
<g id="node27" class="node">
<title>Node797</title>
<g id="a_node27"><a xlink:href="group__map_wallet.html#gaa2d7f7fa5d6e003460484231b7894f03" target="_top" xlink:title="CWallet::IsHDEnabled">
<polygon fill="#ffffff" stroke="#000000" points="166.5801,-1.5 166.5801,-19.5 281.6963,-19.5 281.6963,-1.5 166.5801,-1.5"/>
<text text-anchor="middle" x="224.1382" y="-7.5" font-family="Helvetica,sans-Serif" font-size="10.00" fill="#000000">CWallet::IsHDEnabled</text>
</a>
</g>
</g>
<!-- Node771&#45;&gt;Node797 -->
<g id="edge29" class="edge">
<title>Node771&#45;&gt;Node797</title>
<path fill="none" stroke="#191970" d="M59.4641,-259.4613C62.7344,-224.0678 79.5617,-93.644 153.5137,-28.5 155.2108,-27.005 157.0153,-25.631 158.9039,-24.3683"/>
<polygon fill="#191970" stroke="#191970" points="160.6037,-27.4279 167.6505,-19.5163 157.208,-21.3067 160.6037,-27.4279"/>
</g>
<!-- Node799 -->
<g id="node29" class="node">
<title>Node799</title>
<g id="a_node29"><a xlink:href="group__map_wallet.html#ga61216d96cb2c06c11372d16f0ae61d4b" target="_top" xlink:title="CWallet::SetHDSeed">
<polygon fill="#ffffff" stroke="#000000" points="169.6367,-482.5 169.6367,-500.5 278.6396,-500.5 278.6396,-482.5 169.6367,-482.5"/>
<text text-anchor="middle" x="224.1382" y="-488.5" font-family="Helvetica,sans-Serif" font-size="10.00" fill="#000000">CWallet::SetHDSeed</text>
</a>
</g>
</g>
<!-- Node771&#45;&gt;Node799 -->
<g id="edge31" class="edge">
<title>Node771&#45;&gt;Node799</title>
<path fill="none" stroke="#191970" d="M62.4249,-277.5883C73.3855,-304.0163 107.9761,-382.3319 153.5137,-435.5 167.2538,-451.5425 186.1396,-466.2366 200.9245,-476.5441"/>
<polygon fill="#191970" stroke="#191970" points="199.2759,-479.6549 209.5175,-482.3679 203.2032,-473.8603 199.2759,-479.6549"/>
</g>
<!-- Node822 -->
<g id="node37" class="node">
<title>Node822</title>
<g id="a_node37"><a xlink:href="group__map_wallet.html#ga35c26d9e81464f04a45375647c251d67" target="_top" xlink:title="CWallet::GenerateNewSeed">
<polygon fill="#ffffff" stroke="#000000" points="153.5137,-279.5 153.5137,-297.5 294.7627,-297.5 294.7627,-279.5 153.5137,-279.5"/>
<text text-anchor="middle" x="224.1382" y="-285.5" font-family="Helvetica,sans-Serif" font-size="10.00" fill="#000000">CWallet::GenerateNewSeed</text>
</a>
</g>
</g>
<!-- Node771&#45;&gt;Node822 -->
<g id="edge40" class="edge">
<title>Node771&#45;&gt;Node822</title>
<path fill="none" stroke="#191970" d="M117.5298,-275.6076C125.8711,-276.6163 134.5677,-277.668 143.238,-278.7165"/>
<polygon fill="#191970" stroke="#191970" points="143.0334,-282.2172 153.3813,-279.9432 143.8738,-275.2678 143.0334,-282.2172"/>
</g>
<!-- Node862 -->
<g id="node45" class="node">
<title>Node862</title>
<g id="a_node45"><a xlink:href="group___actions.html#ga7353ba1e79fc4167fbfbe79b41698fa7" target="_top" xlink:title="Mark old keypool keys as used, and generate all new keys. ">
<polygon fill="#ffffff" stroke="#000000" points="167.415,-407.5 167.415,-425.5 280.8613,-425.5 280.8613,-407.5 167.415,-407.5"/>
<text text-anchor="middle" x="224.1382" y="-413.5" font-family="Helvetica,sans-Serif" font-size="10.00" fill="#000000">CWallet::NewKeyPool</text>
</a>
</g>
</g>
<!-- Node771&#45;&gt;Node862 -->
<g id="edge51" class="edge">
<title>Node771&#45;&gt;Node862</title>
<path fill="none" stroke="#191970" d="M65.6,-277.7438C80.2295,-297.0981 116.2609,-342.6431 153.5137,-373.5 166.8973,-384.5858 183.4167,-394.8029 197.1131,-402.4938"/>
<polygon fill="#191970" stroke="#191970" points="195.6182,-405.6654 206.071,-407.3943 198.9778,-399.5243 195.6182,-405.6654"/>
</g>
<!-- Node776 -->
<g id="node6" class="node">
<title>Node776</title>
<g id="a_node6"><a xlink:href="class_c_crypter.html#a55ab8ab7270b5e4df07bacf4fb630632" target="_top" xlink:title="CCrypter::BytesToKeySHA512AES">
<polygon fill="#ffffff" stroke="#000000" points="536.7031,-111.5 536.7031,-129.5 708.3232,-129.5 708.3232,-111.5 536.7031,-111.5"/>
<text text-anchor="middle" x="622.5132" y="-117.5" font-family="Helvetica,sans-Serif" font-size="10.00" fill="#000000">CCrypter::BytesToKeySHA512AES</text>
</a>
</g>
</g>
<!-- Node775&#45;&gt;Node776 -->
<g id="edge5" class="edge">
<title>Node775&#45;&gt;Node776</title>
<path fill="none" stroke="#191970" d="M463.6922,-150.4546C493.7281,-144.7896 532.6253,-137.4534 564.4076,-131.4591"/>
<polygon fill="#191970" stroke="#191970" points="565.2782,-134.8567 574.4562,-129.5638 563.9808,-127.9779 565.2782,-134.8567"/>
</g>
<!-- Node777 -->
<g id="node7" class="node">
<title>Node777</title>
<g id="a_node7"><a xlink:href="cleanse_8cpp.html#a5a4afb85dd16ecc1f6019c782db78663" target="_top" xlink:title="memory_cleanse">
<polygon fill="#ffffff" stroke="#000000" points="576.4419,-148.5 576.4419,-166.5 668.5845,-166.5 668.5845,-148.5 576.4419,-148.5"/>
<text text-anchor="middle" x="622.5132" y="-154.5" font-family="Helvetica,sans-Serif" font-size="10.00" fill="#000000">memory_cleanse</text>
</a>
</g>
</g>
<!-- Node775&#45;&gt;Node777 -->
<g id="edge6" class="edge">
<title>Node775&#45;&gt;Node777</title>
<path fill="none" stroke="#191970" d="M500.7335,-158.6779C522.7405,-158.465 545.8959,-158.241 566.037,-158.0462"/>
<polygon fill="#191970" stroke="#191970" points="566.3069,-161.5439 576.2726,-157.9472 566.2392,-154.5442 566.3069,-161.5439"/>
</g>
<!-- Node780&#45;&gt;Node772 -->
<g id="edge10" class="edge">
<title>Node780&#45;&gt;Node772</title>
<path fill="none" stroke="#191970" d="M430.7178,-688.6425C452.9371,-701.6758 496.3492,-725.1612 536.7031,-735.5 601.6068,-752.1286 677.6238,-756.3431 733.8578,-756.6995"/>
<polygon fill="#191970" stroke="#191970" points="734.1125,-760.2 744.1206,-756.7232 734.1287,-753.2 734.1125,-760.2"/>
</g>
<!-- Node781 -->
<g id="node11" class="node">
<title>Node781</title>
<g id="a_node11"><a xlink:href="class_c_key.html#aa1085c59603a62db6ec776300f250337" target="_top" xlink:title="Compute the public key from a private key. ">
<polygon fill="#ffffff" stroke="#000000" points="573.937,-407.5 573.937,-425.5 671.0894,-425.5 671.0894,-407.5 573.937,-407.5"/>
<text text-anchor="middle" x="622.5132" y="-413.5" font-family="Helvetica,sans-Serif" font-size="10.00" fill="#000000">CKey::GetPubKey</text>
</a>
</g>
</g>
<!-- Node780&#45;&gt;Node781 -->
<g id="edge11" class="edge">
<title>Node780&#45;&gt;Node781</title>
<path fill="none" stroke="#191970" d="M487.8748,-670.3043C492.6151,-667.689 496.975,-664.4641 500.7031,-660.5 570.0838,-586.7279 467.2456,-509.1997 536.7031,-435.5 543.9992,-427.7583 553.6857,-422.8242 563.9194,-419.7425"/>
<polygon fill="#191970" stroke="#191970" points="564.9521,-423.0933 573.8386,-417.3244 563.2942,-416.2925 564.9521,-423.0933"/>
</g>
<!-- Node783 -->
<g id="node13" class="node">
<title>Node783</title>
<g id="a_node13"><a xlink:href="class_c_key.html#ab8dee0ad9d933304a22284ee40040847" target="_top" xlink:title="CKey::begin">
<polygon fill="#ffffff" stroke="#000000" points="587.2744,-707.5 587.2744,-725.5 657.752,-725.5 657.752,-707.5 587.2744,-707.5"/>
<text text-anchor="middle" x="622.5132" y="-713.5" font-family="Helvetica,sans-Serif" font-size="10.00" fill="#000000">CKey::begin</text>
</a>
</g>
</g>
<!-- Node780&#45;&gt;Node783 -->
<g id="edge13" class="edge">
<title>Node780&#45;&gt;Node783</title>
<path fill="none" stroke="#191970" d="M466.0526,-688.5039C499.9243,-694.5647 544.2221,-702.4911 577.0337,-708.3622"/>
<polygon fill="#191970" stroke="#191970" points="576.7952,-711.875 587.2554,-710.1912 578.0283,-704.9845 576.7952,-711.875"/>
</g>
<!-- Node784 -->
<g id="node14" class="node">
<title>Node784</title>
<g id="a_node14"><a xlink:href="class_c_key.html#a41c700c4a732672e4b7cc60d811dbf41" target="_top" xlink:title="CKey::end">
<polygon fill="#ffffff" stroke="#000000" points="591.166,-670.5 591.166,-688.5 653.8604,-688.5 653.8604,-670.5 591.166,-670.5"/>
<text text-anchor="middle" x="622.5132" y="-676.5" font-family="Helvetica,sans-Serif" font-size="10.00" fill="#000000">CKey::end</text>
</a>
</g>
</g>
<!-- Node780&#45;&gt;Node784 -->
<g id="edge14" class="edge">
<title>Node780&#45;&gt;Node784</title>
<path fill="none" stroke="#191970" d="M493.613,-679.5C523.2644,-679.5 555.9017,-679.5 580.9164,-679.5"/>
<polygon fill="#191970" stroke="#191970" points="581.1394,-683.0001 591.1393,-679.5 581.1393,-676.0001 581.1394,-683.0001"/>
</g>
<!-- Node782 -->
<g id="node12" class="node">
<title>Node782</title>
<g id="a_node12"><a xlink:href="secp256k1_8h.html#a7438071aa8a6dc4697abe4f4659f2161" target="_top" xlink:title="Compute the public key for a secret key. ">
<polygon fill="#ffffff" stroke="#000000" points="756.252,-407.5 756.252,-435.5 874.5518,-435.5 874.5518,-407.5 756.252,-407.5"/>
<text text-anchor="start" x="764.252" y="-423.5" font-family="Helvetica,sans-Serif" font-size="10.00" fill="#000000">secp256k1_ec_pubkey</text>
<text text-anchor="middle" x="815.4019" y="-413.5" font-family="Helvetica,sans-Serif" font-size="10.00" fill="#000000">_create</text>
</a>
</g>
</g>
<!-- Node781&#45;&gt;Node782 -->
<g id="edge12" class="edge">
<title>Node781&#45;&gt;Node782</title>
<path fill="none" stroke="#191970" d="M671.1871,-417.7617C693.846,-418.3491 721.2113,-419.0584 745.9875,-419.7007"/>
<polygon fill="#191970" stroke="#191970" points="745.9745,-423.2014 756.0619,-419.9618 746.156,-416.2038 745.9745,-423.2014"/>
</g>
<!-- Node785 -->
<g id="node15" class="node">
<title>Node785</title>
<g id="a_node15"><a xlink:href="class_c_key.html#a468a9a8cd148ab4a43e7d76bbdc78abe" target="_top" xlink:title="Simple read&#45;only vector&#45;like interface. ">
<polygon fill="#ffffff" stroke="#000000" points="783.5054,-670.5 783.5054,-688.5 847.2983,-688.5 847.2983,-670.5 783.5054,-670.5"/>
<text text-anchor="middle" x="815.4019" y="-676.5" font-family="Helvetica,sans-Serif" font-size="10.00" fill="#000000">CKey::size</text>
</a>
</g>
</g>
<!-- Node784&#45;&gt;Node785 -->
<g id="edge15" class="edge">
<title>Node784&#45;&gt;Node785</title>
<path fill="none" stroke="#191970" d="M653.9334,-679.5C686.3853,-679.5 737.2226,-679.5 773.1732,-679.5"/>
<polygon fill="#191970" stroke="#191970" points="773.3524,-683.0001 783.3523,-679.5 773.3523,-676.0001 773.3524,-683.0001"/>
</g>
<!-- Node787 -->
<g id="node17" class="node">
<title>Node787</title>
<g id="a_node17"><a xlink:href="class_wallet_batch.html#a233ed69f35b247e75e7c992877dc805f" target="_top" xlink:title="WalletBatch::WriteMinVersion">
<polygon fill="#ffffff" stroke="#000000" points="342.147,-632.5 342.147,-650.5 489.3188,-650.5 489.3188,-632.5 342.147,-632.5"/>
<text text-anchor="middle" x="415.7329" y="-638.5" font-family="Helvetica,sans-Serif" font-size="10.00" fill="#000000">WalletBatch::WriteMinVersion</text>
</a>
</g>
</g>
<!-- Node786&#45;&gt;Node787 -->
<g id="edge17" class="edge">
<title>Node786&#45;&gt;Node787</title>
<path fill="none" stroke="#191970" d="M238.4074,-575.5639C258.3491,-587.8587 296.0204,-609.7472 330.7627,-622.5 338.4299,-625.3144 346.6457,-627.7871 354.837,-629.9371"/>
<polygon fill="#191970" stroke="#191970" points="354.2296,-633.3924 364.7779,-632.4008 355.9135,-626.5979 354.2296,-633.3924"/>
</g>
<!-- Node788 -->
<g id="node18" class="node">
<title>Node788</title>
<g id="a_node18"><a xlink:href="class_wallet_batch.html#a552eb421cff45a9ed94b1ec77e5c76c3" target="_top" xlink:title="WalletBatch::WriteIC">
<polygon fill="#ffffff" stroke="#000000" points="761.5522,-594.5 761.5522,-612.5 869.2515,-612.5 869.2515,-594.5 761.5522,-594.5"/>
<text text-anchor="middle" x="815.4019" y="-600.5" font-family="Helvetica,sans-Serif" font-size="10.00" fill="#000000">WalletBatch::WriteIC</text>
</a>
</g>
</g>
<!-- Node787&#45;&gt;Node788 -->
<g id="edge18" class="edge">
<title>Node787&#45;&gt;Node788</title>
<path fill="none" stroke="#191970" d="M489.5933,-638.9677C548.8775,-636.3907 634.161,-631.4597 708.3232,-622.5 725.4756,-620.4278 744.0473,-617.4093 760.8321,-614.3859"/>
<polygon fill="#191970" stroke="#191970" points="761.8217,-617.7627 771.0234,-612.5111 760.5552,-610.8782 761.8217,-617.7627"/>
</g>
<!-- Node789 -->
<g id="node19" class="node">
<title>Node789</title>
<g id="a_node19"><a xlink:href="class_berkeley_batch.html#ac31c83ec96f7bd149f856d28e97dba23" target="_top" xlink:title="BerkeleyBatch::Write">
<polygon fill="#ffffff" stroke="#000000" points="941.7529,-594.5 941.7529,-612.5 1050.9414,-612.5 1050.9414,-594.5 941.7529,-594.5"/>
<text text-anchor="middle" x="996.3472" y="-600.5" font-family="Helvetica,sans-Serif" font-size="10.00" fill="#000000">BerkeleyBatch::Write</text>
</a>
</g>
</g>
<!-- Node788&#45;&gt;Node789 -->
<g id="edge19" class="edge">
<title>Node788&#45;&gt;Node789</title>
<path fill="none" stroke="#191970" d="M869.6914,-603.5C889.105,-603.5 911.1799,-603.5 931.4016,-603.5"/>
<polygon fill="#191970" stroke="#191970" points="931.4706,-607.0001 941.4705,-603.5 931.4705,-600.0001 931.4706,-607.0001"/>
</g>
<!-- Node790 -->
<g id="node20" class="node">
<title>Node790</title>
<g id="a_node20"><a xlink:href="class_berkeley_database.html#a313cd767c211da5738bdb5578cd59af7" target="_top" xlink:title="BerkeleyDatabase::Increment\lUpdateCounter">
<polygon fill="#ffffff" stroke="#000000" points="922.4805,-538.5 922.4805,-566.5 1070.2139,-566.5 1070.2139,-538.5 922.4805,-538.5"/>
<text text-anchor="start" x="930.4805" y="-554.5" font-family="Helvetica,sans-Serif" font-size="10.00" fill="#000000">BerkeleyDatabase::Increment</text>
<text text-anchor="middle" x="996.3472" y="-544.5" font-family="Helvetica,sans-Serif" font-size="10.00" fill="#000000">UpdateCounter</text>
</a>
</g>
</g>
<!-- Node788&#45;&gt;Node790 -->
<g id="edge20" class="edge">
<title>Node788&#45;&gt;Node790</title>
<path fill="none" stroke="#191970" d="M847.3347,-594.4996C872.037,-587.5372 906.9429,-577.6989 936.7618,-569.2943"/>
<polygon fill="#191970" stroke="#191970" points="937.9817,-572.5869 946.6572,-566.5053 936.0827,-565.8494 937.9817,-572.5869"/>
</g>
<!-- Node792 -->
<g id="node22" class="node">
<title>Node792</title>
<g id="a_node22"><a xlink:href="class_c_crypto_key_store.html#af202f587051735be5a39344d9e333720" target="_top" xlink:title="CCryptoKeyStore::SetCrypted">
<polygon fill="#ffffff" stroke="#000000" points="547.8188,-74.5 547.8188,-92.5 697.2075,-92.5 697.2075,-74.5 547.8188,-74.5"/>
<text text-anchor="middle" x="622.5132" y="-80.5" font-family="Helvetica,sans-Serif" font-size="10.00" fill="#000000">CCryptoKeyStore::SetCrypted</text>
</a>
</g>
</g>
<!-- Node791&#45;&gt;Node792 -->
<g id="edge22" class="edge">
<title>Node791&#45;&gt;Node792</title>
<path fill="none" stroke="#191970" d="M284.4098,-118.4384C340.5146,-115.2812 426.4128,-109.6637 500.7031,-101.5 519.1701,-99.4707 539.1368,-96.7448 557.4568,-94.0291"/>
<polygon fill="#191970" stroke="#191970" points="558.0774,-97.4752 567.4452,-92.5259 557.0357,-90.5531 558.0774,-97.4752"/>
</g>
<!-- Node793&#45;&gt;Node775 -->
<g id="edge24" class="edge">
<title>Node793&#45;&gt;Node775</title>
<path fill="none" stroke="#191970" d="M265.2458,-93.568C275.0288,-96.1118 285.3555,-99.1199 294.7627,-102.5 328.7103,-114.6978 366.0116,-133.0861 390.0905,-145.6571"/>
<polygon fill="#191970" stroke="#191970" points="388.464,-148.7562 398.9417,-150.3277 391.7309,-142.5653 388.464,-148.7562"/>
</g>
<!-- Node794 -->
<g id="node24" class="node">
<title>Node794</title>
<g id="a_node24"><a xlink:href="class_c_crypter.html#a55859da12c03984ed0f9b24e0db6ec43" target="_top" xlink:title="CCrypter::Decrypt">
<polygon fill="#ffffff" stroke="#000000" points="367.7256,-37.5 367.7256,-55.5 463.7402,-55.5 463.7402,-37.5 367.7256,-37.5"/>
<text text-anchor="middle" x="415.7329" y="-43.5" font-family="Helvetica,sans-Serif" font-size="10.00" fill="#000000">CCrypter::Decrypt</text>
</a>
</g>
</g>
<!-- Node793&#45;&gt;Node794 -->
<g id="edge25" class="edge">
<title>Node793&#45;&gt;Node794</title>
<path fill="none" stroke="#191970" d="M267.614,-75.8772C294.9713,-70.4513 330.5405,-63.3967 359.9658,-57.5606"/>
<polygon fill="#191970" stroke="#191970" points="360.9661,-60.9304 370.0941,-55.5518 359.6042,-54.0642 360.9661,-60.9304"/>
</g>
<!-- Node796 -->
<g id="node26" class="node">
<title>Node796</title>
<g id="a_node26"><a xlink:href="class_c_crypto_key_store.html#a81bd70e18aa75f566526620a74f9cd88" target="_top" xlink:title="CCryptoKeyStore::Unlock">
<polygon fill="#ffffff" stroke="#000000" points="350.7676,-74.5 350.7676,-92.5 480.6982,-92.5 480.6982,-74.5 350.7676,-74.5"/>
<text text-anchor="middle" x="415.7329" y="-80.5" font-family="Helvetica,sans-Serif" font-size="10.00" fill="#000000">CCryptoKeyStore::Unlock</text>
</a>
</g>
</g>
<!-- Node793&#45;&gt;Node796 -->
<g id="edge27" class="edge">
<title>Node793&#45;&gt;Node796</title>
<path fill="none" stroke="#191970" d="M267.614,-84.2731C289.1563,-84.1606 315.7907,-84.0216 340.5074,-83.8926"/>
<polygon fill="#191970" stroke="#191970" points="340.6146,-87.3922 350.5962,-83.84 340.578,-80.3923 340.6146,-87.3922"/>
</g>
<!-- Node795 -->
<g id="node25" class="node">
<title>Node795</title>
<g id="a_node25"><a xlink:href="class_a_e_s256_c_b_c_decrypt.html#a3fce5ea3ae8ca711eaf8bc6447199037" target="_top" xlink:title="AES256CBCDecrypt::Decrypt">
<polygon fill="#ffffff" stroke="#000000" points="548.3779,-37.5 548.3779,-55.5 696.6484,-55.5 696.6484,-37.5 548.3779,-37.5"/>
<text text-anchor="middle" x="622.5132" y="-43.5" font-family="Helvetica,sans-Serif" font-size="10.00" fill="#000000">AES256CBCDecrypt::Decrypt</text>
</a>
</g>
</g>
<!-- Node794&#45;&gt;Node795 -->
<g id="edge26" class="edge">
<title>Node794&#45;&gt;Node795</title>
<path fill="none" stroke="#191970" d="M463.9527,-46.5C485.9793,-46.5 512.7305,-46.5 537.9375,-46.5"/>
<polygon fill="#191970" stroke="#191970" points="538.2522,-50.0001 548.2521,-46.5 538.2521,-43.0001 538.2522,-50.0001"/>
</g>
<!-- Node796&#45;&gt;Node792 -->
<g id="edge28" class="edge">
<title>Node796&#45;&gt;Node792</title>
<path fill="none" stroke="#191970" d="M480.8757,-83.5C498.8378,-83.5 518.5927,-83.5 537.5005,-83.5"/>
<polygon fill="#191970" stroke="#191970" points="537.5976,-87.0001 547.5975,-83.5 537.5975,-80.0001 537.5976,-87.0001"/>
</g>
<!-- Node798 -->
<g id="node28" class="node">
<title>Node798</title>
<g id="a_node28"><a xlink:href="classbase__blob.html#aba89c6722866a5850882a509d27d7bbd" target="_top" xlink:title="base_blob::IsNull">
<polygon fill="#ffffff" stroke="#000000" points="369.376,-.5 369.376,-18.5 462.0898,-18.5 462.0898,-.5 369.376,-.5"/>
<text text-anchor="middle" x="415.7329" y="-6.5" font-family="Helvetica,sans-Serif" font-size="10.00" fill="#000000">base_blob::IsNull</text>
</a>
</g>
</g>
<!-- Node797&#45;&gt;Node798 -->
<g id="edge30" class="edge">
<title>Node797&#45;&gt;Node798</title>
<path fill="none" stroke="#191970" d="M281.8827,-10.1986C306.3709,-10.0708 334.8203,-9.9223 359.1778,-9.7952"/>
<polygon fill="#191970" stroke="#191970" points="359.3611,-13.2944 369.3427,-9.7421 359.3245,-6.2945 359.3611,-13.2944"/>
</g>
<!-- Node800 -->
<g id="node30" class="node">
<title>Node800</title>
<g id="a_node30"><a xlink:href="class_c_wallet.html#a22312062d026a1c0a992773386101b50" target="_top" xlink:title="check whether we are allowed to upgrade (or already support) to the named feature ...">
<polygon fill="#ffffff" stroke="#000000" points="343.7192,-557.5 343.7192,-575.5 487.7466,-575.5 487.7466,-557.5 343.7192,-557.5"/>
<text text-anchor="middle" x="415.7329" y="-563.5" font-family="Helvetica,sans-Serif" font-size="10.00" fill="#000000">CWallet::CanSupportFeature</text>
</a>
</g>
</g>
<!-- Node799&#45;&gt;Node800 -->
<g id="edge32" class="edge">
<title>Node799&#45;&gt;Node800</title>
<path fill="none" stroke="#191970" d="M238.0263,-500.5836C257.8253,-513.1391 295.6632,-535.6939 330.7627,-548.5 337.4826,-550.9517 344.6297,-553.1129 351.8149,-555.0071"/>
<polygon fill="#191970" stroke="#191970" points="351.0522,-558.4238 361.6,-557.4266 352.7325,-551.6285 351.0522,-558.4238"/>
</g>
<!-- Node801 -->
<g id="node31" class="node">
<title>Node801</title>
<g id="a_node31"><a xlink:href="class_c_pub_key.html#a2675f7e6f72eff68e7a5227289feb021" target="_top" xlink:title="Get the KeyID of this public key (hash of its serialization) ">
<polygon fill="#ffffff" stroke="#000000" points="577.5527,-370.5 577.5527,-388.5 667.4736,-388.5 667.4736,-370.5 577.5527,-370.5"/>
<text text-anchor="middle" x="622.5132" y="-376.5" font-family="Helvetica,sans-Serif" font-size="10.00" fill="#000000">CPubKey::GetID</text>
</a>
</g>
</g>
<!-- Node799&#45;&gt;Node801 -->
<g id="edge33" class="edge">
<title>Node799&#45;&gt;Node801</title>
<path fill="none" stroke="#191970" d="M251.9693,-482.4908C306.3457,-465.0511 430.6541,-425.9802 536.7031,-398.5 547.001,-395.8315 558.0542,-393.2073 568.6876,-390.8012"/>
<polygon fill="#191970" stroke="#191970" points="569.7161,-394.1579 578.7155,-388.5668 568.1937,-387.3255 569.7161,-394.1579"/>
</g>
<!-- Node820 -->
<g id="node35" class="node">
<title>Node820</title>
<g id="a_node35"><a xlink:href="group__map_wallet.html#ga41223271c99bd3468e9f75c0c9155c21" target="_top" xlink:title="CWallet::SetHDChain">
<polygon fill="#ffffff" stroke="#000000" points="359.8447,-594.5 359.8447,-612.5 471.6211,-612.5 471.6211,-594.5 359.8447,-594.5"/>
<text text-anchor="middle" x="415.7329" y="-600.5" font-family="Helvetica,sans-Serif" font-size="10.00" fill="#000000">CWallet::SetHDChain</text>
</a>
</g>
</g>
<!-- Node799&#45;&gt;Node820 -->
<g id="edge37" class="edge">
<title>Node799&#45;&gt;Node820</title>
<path fill="none" stroke="#191970" d="M236.2452,-500.5602C250.6073,-511.4676 275.0818,-530.5631 294.7627,-548.5 311.7204,-563.955 310.6709,-574.4212 330.7627,-585.5 336.7069,-588.7777 343.1879,-591.4592 349.8332,-593.6529"/>
<polygon fill="#191970" stroke="#191970" points="349.0625,-597.0743 359.6434,-596.5305 351.0329,-590.3573 349.0625,-597.0743"/>
</g>
<!-- Node802 -->
<g id="node32" class="node">
<title>Node802</title>
<g id="a_node32"><a xlink:href="_hash_8h.html#a3f56a9b8501ec9d021aad11389d419c4" target="_top" xlink:title="Compute the 160&#45;bit hash an object. ">
<polygon fill="#ffffff" stroke="#ff0000" points="787.3872,-370.5 787.3872,-388.5 843.4165,-388.5 843.4165,-370.5 787.3872,-370.5"/>
<text text-anchor="middle" x="815.4019" y="-376.5" font-family="Helvetica,sans-Serif" font-size="10.00" fill="#000000">Hash360</text>
</a>
</g>
</g>
<!-- Node801&#45;&gt;Node802 -->
<g id="edge34" class="edge">
<title>Node801&#45;&gt;Node802</title>
<path fill="none" stroke="#191970" d="M667.737,-379.5C700.9511,-379.5 745.5829,-379.5 777.0561,-379.5"/>
<polygon fill="#191970" stroke="#191970" points="777.1897,-383.0001 787.1896,-379.5 777.1896,-376.0001 777.1897,-383.0001"/>
</g>
<!-- Node818 -->
<g id="node34" class="node">
<title>Node818</title>
<g id="a_node34"><a xlink:href="class_c_pub_key.html#a6bb28fcf0a5f799c69f5b7269363b309" target="_top" xlink:title="Simple read&#45;only vector&#45;like interface to the pubkey data. ">
<polygon fill="#ffffff" stroke="#ff0000" points="774.6089,-333.5 774.6089,-351.5 856.1948,-351.5 856.1948,-333.5 774.6089,-333.5"/>
<text text-anchor="middle" x="815.4019" y="-339.5" font-family="Helvetica,sans-Serif" font-size="10.00" fill="#000000">CPubKey::size</text>
</a>
</g>
</g>
<!-- Node801&#45;&gt;Node818 -->
<g id="edge36" class="edge">
<title>Node801&#45;&gt;Node818</title>
<path fill="none" stroke="#191970" d="M667.737,-370.8251C696.7494,-365.26 734.4733,-358.0238 764.5294,-352.2584"/>
<polygon fill="#191970" stroke="#191970" points="765.2432,-355.6854 774.4048,-350.3641 763.9245,-348.8107 765.2432,-355.6854"/>
</g>
<!-- Node803 -->
<g id="node33" class="node">
<title>Node803</title>
<g id="a_node33"><a xlink:href="class_c_hash360.html#a9268162ed4d951b479493d16f0bfb5df" target="_top" xlink:title="CHash360::Write">
<polygon fill="#ffffff" stroke="#ff0000" points="950.3662,-370.5 950.3662,-388.5 1042.3281,-388.5 1042.3281,-370.5 950.3662,-370.5"/>
<text text-anchor="middle" x="996.3472" y="-376.5" font-family="Helvetica,sans-Serif" font-size="10.00" fill="#000000">CHash360::Write</text>
</a>
</g>
</g>
<!-- Node802&#45;&gt;Node803 -->
<g id="edge35" class="edge">
<title>Node802&#45;&gt;Node803</title>
<path fill="none" stroke="#191970" d="M843.6746,-379.5C869.4155,-379.5 908.1763,-379.5 940.2004,-379.5"/>
<polygon fill="#191970" stroke="#191970" points="940.3361,-383.0001 950.336,-379.5 940.336,-376.0001 940.3361,-383.0001"/>
</g>
<!-- Node821 -->
<g id="node36" class="node">
<title>Node821</title>
<g id="a_node36"><a xlink:href="class_wallet_batch.html#a730373abe82d3c9dc4fe328caeafaeec" target="_top" xlink:title="write the hdchain model (external chain child index counter) ">
<polygon fill="#ffffff" stroke="#000000" points="553.3779,-594.5 553.3779,-612.5 691.6484,-612.5 691.6484,-594.5 553.3779,-594.5"/>
<text text-anchor="middle" x="622.5132" y="-600.5" font-family="Helvetica,sans-Serif" font-size="10.00" fill="#000000">WalletBatch::WriteHDChain</text>
</a>
</g>
</g>
<!-- Node820&#45;&gt;Node821 -->
<g id="edge38" class="edge">
<title>Node820&#45;&gt;Node821</title>
<path fill="none" stroke="#191970" d="M471.6906,-603.5C493.6684,-603.5 519.2971,-603.5 543.1253,-603.5"/>
<polygon fill="#191970" stroke="#191970" points="543.2113,-607.0001 553.2113,-603.5 543.2112,-600.0001 543.2113,-607.0001"/>
</g>
<!-- Node821&#45;&gt;Node788 -->
<g id="edge39" class="edge">
<title>Node821&#45;&gt;Node788</title>
<path fill="none" stroke="#191970" d="M691.8779,-603.5C711.287,-603.5 732.2884,-603.5 751.3733,-603.5"/>
<polygon fill="#191970" stroke="#191970" points="751.4573,-607.0001 761.4572,-603.5 751.4572,-600.0001 751.4573,-607.0001"/>
</g>
<!-- Node823 -->
<g id="node38" class="node">
<title>Node823</title>
<g id="a_node38"><a xlink:href="group__map_wallet.html#ga647681fa084c9d03742f9522f8779ca7" target="_top" xlink:title="check if a certain wallet flag is set ">
<polygon fill="#ffffff" stroke="#000000" points="559.5864,-444.5 559.5864,-462.5 685.4399,-462.5 685.4399,-444.5 559.5864,-444.5"/>
<text text-anchor="middle" x="622.5132" y="-450.5" font-family="Helvetica,sans-Serif" font-size="10.00" fill="#000000">CWallet::IsWalletFlagSet</text>
</a>
</g>
</g>
<!-- Node822&#45;&gt;Node823 -->
<g id="edge41" class="edge">
<title>Node822&#45;&gt;Node823</title>
<path fill="none" stroke="#191970" d="M274.3487,-297.511C281.284,-299.2335 288.2552,-301.2239 294.7627,-303.5 311.6482,-309.4059 313.9259,-315.4566 330.7627,-321.5 403.699,-347.6798 440.1767,-312.1096 500.7031,-360.5 529.5825,-383.5888 507.6078,-412.6839 536.7031,-435.5 540.7906,-438.7054 545.3132,-441.376 550.0822,-443.5976"/>
<polygon fill="#191970" stroke="#191970" points="548.9215,-446.9024 559.5073,-447.3387 551.504,-440.3962 548.9215,-446.9024"/>
</g>
<!-- Node824 -->
<g id="node39" class="node">
<title>Node824</title>
<g id="a_node39"><a xlink:href="class_c_key.html#a9d12ed9d297e4286250fd7ea6b59e1a5" target="_top" xlink:title="Generate a new private key using a cryptographic PRNG. ">
<polygon fill="#ffffff" stroke="#000000" points="361.8833,-256.5 361.8833,-274.5 469.5825,-274.5 469.5825,-256.5 361.8833,-256.5"/>
<text text-anchor="middle" x="415.7329" y="-262.5" font-family="Helvetica,sans-Serif" font-size="10.00" fill="#000000">CKey::MakeNewKey</text>
</a>
</g>
</g>
<!-- Node822&#45;&gt;Node824 -->
<g id="edge42" class="edge">
<title>Node822&#45;&gt;Node824</title>
<path fill="none" stroke="#191970" d="M294.9366,-280.001C313.5546,-277.766 333.5272,-275.3684 351.7635,-273.1792"/>
<polygon fill="#191970" stroke="#191970" points="352.1851,-276.6538 361.6966,-271.9868 351.3507,-269.7037 352.1851,-276.6538"/>
</g>
<!-- Node827 -->
<g id="node41" class="node">
<title>Node827</title>
<g id="a_node41"><a xlink:href="group__map_wallet.html#gaf72003c77abf215cc1576ab6c50125f7" target="_top" xlink:title="CWallet::DeriveNewSeed">
<polygon fill="#ffffff" stroke="#000000" points="351.5073,-293.5 351.5073,-311.5 479.9585,-311.5 479.9585,-293.5 351.5073,-293.5"/>
<text text-anchor="middle" x="415.7329" y="-299.5" font-family="Helvetica,sans-Serif" font-size="10.00" fill="#000000">CWallet::DeriveNewSeed</text>
</a>
</g>
</g>
<!-- Node822&#45;&gt;Node827 -->
<g id="edge45" class="edge">
<title>Node822&#45;&gt;Node827</title>
<path fill="none" stroke="#191970" d="M294.9366,-293.6733C309.9203,-294.7682 325.7813,-295.9272 340.9086,-297.0325"/>
<polygon fill="#191970" stroke="#191970" points="341.0158,-300.5496 351.2443,-297.7878 341.526,-293.5682 341.0158,-300.5496"/>
</g>
<!-- Node824&#45;&gt;Node773 -->
<g id="edge43" class="edge">
<title>Node824&#45;&gt;Node773</title>
<path fill="none" stroke="#191970" d="M460.174,-256.4061C473.6045,-252.7532 488.118,-247.8638 500.7031,-241.5 518.7919,-232.3533 518.3595,-222.124 536.7031,-213.5 543.1586,-210.465 550.118,-207.9049 557.182,-205.7474"/>
<polygon fill="#191970" stroke="#191970" points="558.1528,-209.1103 566.842,-203.0482 556.269,-202.3685 558.1528,-209.1103"/>
</g>
<!-- Node825 -->
<g id="node40" class="node">
<title>Node825</title>
<g id="a_node40"><a xlink:href="class_c_key.html#acec869bc75fa8f4d619ab025d367a97c" target="_top" xlink:title="Check whether the 32&#45;byte array pointed to by vch is valid keydata. ">
<polygon fill="#ffffff" stroke="#ff0000" points="585.3359,-222.5 585.3359,-240.5 659.6904,-240.5 659.6904,-222.5 585.3359,-222.5"/>
<text text-anchor="middle" x="622.5132" y="-228.5" font-family="Helvetica,sans-Serif" font-size="10.00" fill="#000000">CKey::Check</text>
</a>
</g>
</g>
<!-- Node824&#45;&gt;Node825 -->
<g id="edge44" class="edge">
<title>Node824&#45;&gt;Node825</title>
<path fill="none" stroke="#191970" d="M469.7919,-256.6113C502.3672,-251.2551 543.4762,-244.4957 574.8354,-239.3394"/>
<polygon fill="#191970" stroke="#191970" points="575.7705,-242.7328 585.0701,-237.6566 574.6347,-235.8255 575.7705,-242.7328"/>
</g>
<!-- Node827&#45;&gt;Node781 -->
<g id="edge47" class="edge">
<title>Node827&#45;&gt;Node781</title>
<path fill="none" stroke="#191970" d="M472.9087,-311.5687C482.9122,-315.0471 492.672,-319.8552 500.7031,-326.5 528.2684,-349.307 508.3729,-376.6505 536.7031,-398.5 544.6584,-404.6354 554.2153,-408.8037 564.0192,-411.6113"/>
<polygon fill="#191970" stroke="#191970" points="563.313,-415.0413 573.8553,-413.9878 564.957,-408.2371 563.313,-415.0413"/>
</g>
<!-- Node827&#45;&gt;Node801 -->
<g id="edge49" class="edge">
<title>Node827&#45;&gt;Node801</title>
<path fill="none" stroke="#191970" d="M463.7145,-311.6036C476.2583,-315.1553 489.4172,-319.9886 500.7031,-326.5 520.0322,-337.6519 517.0035,-351.0167 536.7031,-361.5 546.0716,-366.4855 556.7017,-370.0906 567.2114,-372.6973"/>
<polygon fill="#191970" stroke="#191970" points="566.6863,-376.1656 577.2057,-374.9031 568.195,-369.3301 566.6863,-376.1656"/>
</g>
<!-- Node828 -->
<g id="node42" class="node">
<title>Node828</title>
<g id="a_node42"><a xlink:href="utiltime_8cpp.html#a46fac5fba8ba905b5f9acb364f5d8c6f" target="_top" xlink:title="GetTimeMicros() and GetTimeMillis() both return the system time, but in different units...">
<polygon fill="#ffffff" stroke="#000000" points="595.5264,-296.5 595.5264,-314.5 649.5,-314.5 649.5,-296.5 595.5264,-296.5"/>
<text text-anchor="middle" x="622.5132" y="-302.5" font-family="Helvetica,sans-Serif" font-size="10.00" fill="#000000">GetTime</text>
</a>
</g>
</g>
<!-- Node827&#45;&gt;Node828 -->
<g id="edge46" class="edge">
<title>Node827&#45;&gt;Node828</title>
<path fill="none" stroke="#191970" d="M480.026,-303.4328C514.5537,-303.9337 555.9036,-304.5336 585.1431,-304.9578"/>
<polygon fill="#191970" stroke="#191970" points="585.2827,-308.4601 595.3325,-305.1057 585.3844,-301.4609 585.2827,-308.4601"/>
</g>
<!-- Node829 -->
<g id="node43" class="node">
<title>Node829</title>
<g id="a_node43"><a xlink:href="class_c_key.html#ac53425b8d0f89067bce781c485101b20" target="_top" xlink:title="Verify thoroughly whether a private key and a public key match. ">
<polygon fill="#ffffff" stroke="#ff0000" points="569.4888,-259.5 569.4888,-277.5 675.5376,-277.5 675.5376,-259.5 569.4888,-259.5"/>
<text text-anchor="middle" x="622.5132" y="-265.5" font-family="Helvetica,sans-Serif" font-size="10.00" fill="#000000">CKey::VerifyPubKey</text>
</a>
</g>
</g>
<!-- Node827&#45;&gt;Node829 -->
<g id="edge48" class="edge">
<title>Node827&#45;&gt;Node829</title>
<path fill="none" stroke="#191970" d="M470.6033,-293.4779C497.7765,-289.0099 530.7324,-283.5911 558.9944,-278.9441"/>
<polygon fill="#191970" stroke="#191970" points="559.8754,-282.3464 569.175,-277.2702 558.7396,-275.4391 559.8754,-282.3464"/>
</g>
<!-- Node838 -->
<g id="node44" class="node">
<title>Node838</title>
<g id="a_node44"><a xlink:href="group__map_wallet.html#ga2b0c518df362a1a765a241c1ca5c69a0" target="_top" xlink:title="Adds a key to the store, and saves it to disk. ">
<polygon fill="#ffffff" stroke="#ff0000" points="559.3911,-333.5 559.3911,-351.5 685.6353,-351.5 685.6353,-333.5 559.3911,-333.5"/>
<text text-anchor="middle" x="622.5132" y="-339.5" font-family="Helvetica,sans-Serif" font-size="10.00" fill="#000000">CWallet::AddKeyPubKey</text>
</a>
</g>
</g>
<!-- Node827&#45;&gt;Node838 -->
<g id="edge50" class="edge">
<title>Node827&#45;&gt;Node838</title>
<path fill="none" stroke="#191970" d="M462.3963,-311.5267C492.9218,-317.4316 533.0024,-325.1849 565.426,-331.4569"/>
<polygon fill="#191970" stroke="#191970" points="565.1795,-334.9741 575.6622,-333.4371 566.509,-328.1015 565.1795,-334.9741"/>
</g>
<!-- Node862&#45;&gt;Node778 -->
<g id="edge61" class="edge">
<title>Node862&#45;&gt;Node778</title>
<path fill="none" stroke="#191970" d="M269.5435,-407.4945C296.765,-402.0955 331.5756,-395.1914 360.3988,-389.4747"/>
<polygon fill="#191970" stroke="#191970" points="361.1939,-392.8853 370.3219,-387.5066 359.8321,-386.019 361.1939,-392.8853"/>
</g>
<!-- Node862&#45;&gt;Node823 -->
<g id="edge52" class="edge">
<title>Node862&#45;&gt;Node823</title>
<path fill="none" stroke="#191970" d="M281.2156,-421.8012C351.7365,-428.351 471.8458,-439.5064 549.1468,-446.6859"/>
<polygon fill="#191970" stroke="#191970" points="549.0106,-450.1883 559.2915,-447.6281 549.6581,-443.2183 549.0106,-450.1883"/>
</g>
<!-- Node863 -->
<g id="node46" class="node">
<title>Node863</title>
<g id="a_node46"><a xlink:href="class_wallet_batch.html#a12d883a8b0d8245a3d4f5a85c64fe9fc" target="_top" xlink:title="WalletBatch::ErasePool">
<polygon fill="#ffffff" stroke="#000000" points="355.3916,-520.5 355.3916,-538.5 476.0742,-538.5 476.0742,-520.5 355.3916,-520.5"/>
<text text-anchor="middle" x="415.7329" y="-526.5" font-family="Helvetica,sans-Serif" font-size="10.00" fill="#000000">WalletBatch::ErasePool</text>
</a>
</g>
</g>
<!-- Node862&#45;&gt;Node863 -->
<g id="edge53" class="edge">
<title>Node862&#45;&gt;Node863</title>
<path fill="none" stroke="#191970" d="M236.2868,-425.5149C250.6888,-436.3787 275.2018,-455.4324 294.7627,-473.5 311.8526,-489.2852 310.4654,-500.1309 330.7627,-511.5 335.3323,-514.0596 340.2262,-516.2559 345.2721,-518.1406"/>
<polygon fill="#191970" stroke="#191970" points="344.5249,-521.5797 355.1181,-521.394 346.7212,-514.9332 344.5249,-521.5797"/>
</g>
<!-- Node864 -->
<g id="node48" class="node">
<title>Node864</title>
<g id="a_node48"><a xlink:href="group___actions.html#ga9730278506e0a4f1c65239b951525b55" target="_top" xlink:title="CWallet::TopUpKeyPool">
<polygon fill="#ffffff" stroke="#000000" points="354.5591,-483.5 354.5591,-501.5 476.9067,-501.5 476.9067,-483.5 354.5591,-483.5"/>
<text text-anchor="middle" x="415.7329" y="-489.5" font-family="Helvetica,sans-Serif" font-size="10.00" fill="#000000">CWallet::TopUpKeyPool</text>
</a>
</g>
</g>
<!-- Node862&#45;&gt;Node864 -->
<g id="edge56" class="edge">
<title>Node862&#45;&gt;Node864</title>
<path fill="none" stroke="#191970" d="M246.869,-425.5166C280.7183,-438.9437 344.5323,-464.2568 383.2829,-479.628"/>
<polygon fill="#191970" stroke="#191970" points="382.4457,-483.0612 393.0317,-483.4951 385.0268,-476.5544 382.4457,-483.0612"/>
</g>
<!-- Node850 -->
<g id="node47" class="node">
<title>Node850</title>
<g id="a_node47"><a xlink:href="class_wallet_batch.html#a9142686ef26de3c4ab3062237a81f345" target="_top" xlink:title="WalletBatch::EraseIC">
<polygon fill="#ffffff" stroke="#ff0000" points="760.0679,-527.5 760.0679,-545.5 870.7358,-545.5 870.7358,-527.5 760.0679,-527.5"/>
<text text-anchor="middle" x="815.4019" y="-533.5" font-family="Helvetica,sans-Serif" font-size="10.00" fill="#000000">WalletBatch::EraseIC</text>
</a>
</g>
</g>
<!-- Node863&#45;&gt;Node850 -->
<g id="edge54" class="edge">
<title>Node863&#45;&gt;Node850</title>
<path fill="none" stroke="#191970" d="M476.434,-530.5631C550.0563,-531.8526 673.6965,-534.0181 749.5604,-535.3468"/>
<polygon fill="#191970" stroke="#191970" points="749.8781,-538.8528 759.9379,-535.5286 750.0008,-531.8539 749.8781,-538.8528"/>
</g>
<!-- Node850&#45;&gt;Node790 -->
<g id="edge55" class="edge">
<title>Node850&#45;&gt;Node790</title>
<path fill="none" stroke="#191970" d="M871.1679,-541.4311C884.203,-542.5837 898.3711,-543.8365 912.3331,-545.0711"/>
<polygon fill="#191970" stroke="#191970" points="912.1745,-548.5706 922.4439,-545.9651 912.7911,-541.5978 912.1745,-548.5706"/>
</g>
<!-- Node864&#45;&gt;Node823 -->
<g id="edge57" class="edge">
<title>Node864&#45;&gt;Node823</title>
<path fill="none" stroke="#191970" d="M463.6922,-483.4546C493.7281,-477.7896 532.6253,-470.4534 564.4076,-464.4591"/>
<polygon fill="#191970" stroke="#191970" points="565.2782,-467.8567 574.4562,-462.5638 563.9808,-460.9779 565.2782,-467.8567"/>
</g>
<!-- Node845 -->
<g id="node49" class="node">
<title>Node845</title>
<g id="a_node49"><a xlink:href="class_c_crypto_key_store.html#a52919fa284a3aa10f1b4bd6018b6dbee" target="_top" xlink:title="CCryptoKeyStore::IsLocked">
<polygon fill="#ffffff" stroke="#000000" points="552.8188,-557.5 552.8188,-575.5 692.2075,-575.5 692.2075,-557.5 552.8188,-557.5"/>
<text text-anchor="middle" x="622.5132" y="-563.5" font-family="Helvetica,sans-Serif" font-size="10.00" fill="#000000">CCryptoKeyStore::IsLocked</text>
</a>
</g>
</g>
<!-- Node864&#45;&gt;Node845 -->
<g id="edge58" class="edge">
<title>Node864&#45;&gt;Node845</title>
<path fill="none" stroke="#191970" d="M464.284,-501.5643C476.3173,-504.2994 489.0886,-507.6246 500.7031,-511.5 534.7075,-522.8463 572.0321,-540.5286 596.2854,-552.7673"/>
<polygon fill="#191970" stroke="#191970" points="594.7165,-555.8961 605.2144,-557.3258 597.8994,-549.6615 594.7165,-555.8961"/>
</g>
<!-- Node865 -->
<g id="node50" class="node">
<title>Node865</title>
<g id="a_node50"><a xlink:href="class_args_manager.html#adb5d644d273b3a259f792affcdca8283" target="_top" xlink:title="Return string argument or default value. ">
<polygon fill="#ffffff" stroke="#ff0000" points="565.8804,-481.5 565.8804,-499.5 679.146,-499.5 679.146,-481.5 565.8804,-481.5"/>
<text text-anchor="middle" x="622.5132" y="-487.5" font-family="Helvetica,sans-Serif" font-size="10.00" fill="#000000">ArgsManager::GetArg</text>
</a>
</g>
</g>
<!-- Node864&#45;&gt;Node865 -->
<g id="edge60" class="edge">
<title>Node864&#45;&gt;Node865</title>
<path fill="none" stroke="#191970" d="M476.9345,-491.9081C501.6366,-491.6691 530.2168,-491.3927 555.4787,-491.1484"/>
<polygon fill="#191970" stroke="#191970" points="555.7469,-494.646 565.7125,-491.0494 555.6791,-487.6464 555.7469,-494.646"/>
</g>
<!-- Node845&#45;&gt;Node772 -->
<g id="edge59" class="edge">
<title>Node845&#45;&gt;Node772</title>
<path fill="none" stroke="#191970" d="M692.2322,-575.0733C698.1024,-577.763 703.5914,-581.1781 708.3232,-585.5 747.2424,-621.0467 714.3026,-655.1753 744.3232,-698.5 756.2906,-715.7708 775.155,-730.2811 790.4429,-740.201"/>
<polygon fill="#191970" stroke="#191970" points="788.6125,-743.1842 798.9517,-745.4974 792.3116,-737.2415 788.6125,-743.1842"/>
</g>
</g>
</svg>
