<?xml version="1.0" encoding="UTF-8" standalone="no"?>
<!DOCTYPE svg PUBLIC "-//W3C//DTD SVG 1.1//EN"
 "http://www.w3.org/Graphics/SVG/1.1/DTD/svg11.dtd">
<!-- Generated by graphviz version 2.40.1 (20161225.0304)
 -->
<!-- Title: CWallet::SyncTransaction Pages: 1 -->
<svg width="482pt" height="148pt"
 viewBox="0.00 0.00 481.86 148.00" xmlns="http://www.w3.org/2000/svg" xmlns:xlink="http://www.w3.org/1999/xlink">
<g id="graph0" class="graph" transform="scale(1 1) rotate(0) translate(4 144)">
<title>CWallet::SyncTransaction</title>
<polygon fill="#ffffff" stroke="transparent" points="-4,4 -4,-144 477.8574,-144 477.8574,4 -4,4"/>
<!-- Node2033 -->
<g id="node1" class="node">
<title>Node2033</title>
<polygon fill="#bfbfbf" stroke="#000000" points="0,-55.5 0,-73.5 130.3066,-73.5 130.3066,-55.5 0,-55.5"/>
<text text-anchor="middle" x="65.1533" y="-61.5" font-family="Helvetica,sans-Serif" font-size="10.00" fill="#000000">CWallet::SyncTransaction</text>
</g>
<!-- Node2034 -->
<g id="node2" class="node">
<title>Node2034</title>
<g id="a_node2"><a xlink:href="group__map_wallet.html#gae44ec090ec7c87725fb22d33887ad1a7" target="_top" xlink:title="Notifies listeners of a transaction having been added to mempool. ">
<polygon fill="#ffffff" stroke="#000000" points="186.9536,-111.5 186.9536,-139.5 323.9448,-139.5 323.9448,-111.5 186.9536,-111.5"/>
<text text-anchor="start" x="194.9536" y="-127.5" font-family="Helvetica,sans-Serif" font-size="10.00" fill="#000000">CWallet::TransactionAdded</text>
<text text-anchor="middle" x="255.4492" y="-117.5" font-family="Helvetica,sans-Serif" font-size="10.00" fill="#000000">ToMempool</text>
</a>
</g>
</g>
<!-- Node2033&#45;&gt;Node2034 -->
<g id="edge1" class="edge">
<title>Node2033&#45;&gt;Node2034</title>
<path fill="none" stroke="#191970" d="M96.8559,-77.406C116.6402,-85.2105 142.7398,-95.0565 166.3066,-102.5 176.2132,-105.629 186.8359,-108.6518 197.1725,-111.4206"/>
<polygon fill="#191970" stroke="#191970" points="97.9971,-74.0933 87.4117,-73.6466 95.4082,-80.5969 97.9971,-74.0933"/>
</g>
<!-- Node2035 -->
<g id="node3" class="node">
<title>Node2035</title>
<g id="a_node3"><a xlink:href="group__map_wallet.html#ga8871fb58a2872900558d69d71baddfca" target="_top" xlink:title="Notifies listeners of a block being connected. ">
<polygon fill="#ffffff" stroke="#000000" points="190.9404,-74.5 190.9404,-92.5 319.958,-92.5 319.958,-74.5 190.9404,-74.5"/>
<text text-anchor="middle" x="255.4492" y="-80.5" font-family="Helvetica,sans-Serif" font-size="10.00" fill="#000000">CWallet::BlockConnected</text>
</a>
</g>
</g>
<!-- Node2033&#45;&gt;Node2035 -->
<g id="edge2" class="edge">
<title>Node2033&#45;&gt;Node2035</title>
<path fill="none" stroke="#191970" d="M140.5634,-72.0293C157.1287,-73.6832 174.5289,-75.4205 190.6341,-77.0286"/>
<polygon fill="#191970" stroke="#191970" points="140.6744,-68.523 130.3761,-71.0121 139.9789,-75.4884 140.6744,-68.523"/>
</g>
<!-- Node2036 -->
<g id="node4" class="node">
<title>Node2036</title>
<g id="a_node4"><a xlink:href="group__map_wallet.html#ga3aa53a08f7071c42c0ef82ea468d19ae" target="_top" xlink:title="Notifies listeners of a block being disconnected. ">
<polygon fill="#ffffff" stroke="#000000" points="184.8296,-37.5 184.8296,-55.5 326.0688,-55.5 326.0688,-37.5 184.8296,-37.5"/>
<text text-anchor="middle" x="255.4492" y="-43.5" font-family="Helvetica,sans-Serif" font-size="10.00" fill="#000000">CWallet::BlockDisconnected</text>
</a>
</g>
</g>
<!-- Node2033&#45;&gt;Node2036 -->
<g id="edge3" class="edge">
<title>Node2033&#45;&gt;Node2036</title>
<path fill="none" stroke="#191970" d="M140.3821,-57.3841C155.0132,-56.0002 170.302,-54.554 184.7797,-53.1846"/>
<polygon fill="#191970" stroke="#191970" points="140.0021,-53.9044 130.3761,-58.3306 140.6613,-60.8733 140.0021,-53.9044"/>
</g>
<!-- Node2037 -->
<g id="node5" class="node">
<title>Node2037</title>
<g id="a_node5"><a xlink:href="group__map_wallet.html#gaabb1db808d082d6df2b1e37cbf3f8f98" target="_top" xlink:title="Scan the block chain (starting in pindexStart) for transactions from or to us. ">
<polygon fill="#ffffff" stroke="#000000" points="166.3066,-.5 166.3066,-18.5 344.5918,-18.5 344.5918,-.5 166.3066,-.5"/>
<text text-anchor="middle" x="255.4492" y="-6.5" font-family="Helvetica,sans-Serif" font-size="10.00" fill="#000000">CWallet::ScanForWalletTransactions</text>
</a>
</g>
</g>
<!-- Node2033&#45;&gt;Node2037 -->
<g id="edge4" class="edge">
<title>Node2033&#45;&gt;Node2037</title>
<path fill="none" stroke="#191970" d="M97.1985,-51.8722C116.9196,-44.4082 142.832,-35.1476 166.3066,-28.5 179.5525,-24.749 194.0907,-21.3531 207.513,-18.5042"/>
<polygon fill="#191970" stroke="#191970" points="95.8622,-48.636 87.7747,-55.4802 98.3651,-55.1733 95.8622,-48.636"/>
</g>
<!-- Node2038 -->
<g id="node6" class="node">
<title>Node2038</title>
<g id="a_node6"><a xlink:href="rpcwallet_8cpp.html#a151535abf7394b299deb8d0a333de70b" target="_top" xlink:title="rescanblockchain">
<polygon fill="#ffffff" stroke="#000000" points="380.5918,-.5 380.5918,-18.5 473.8574,-18.5 473.8574,-.5 380.5918,-.5"/>
<text text-anchor="middle" x="427.2246" y="-6.5" font-family="Helvetica,sans-Serif" font-size="10.00" fill="#000000">rescanblockchain</text>
</a>
</g>
</g>
<!-- Node2037&#45;&gt;Node2038 -->
<g id="edge5" class="edge">
<title>Node2037&#45;&gt;Node2038</title>
<path fill="none" stroke="#191970" d="M354.7516,-9.5C363.6807,-9.5 372.4115,-9.5 380.545,-9.5"/>
<polygon fill="#191970" stroke="#191970" points="354.6074,-6.0001 344.6073,-9.5 354.6073,-13.0001 354.6074,-6.0001"/>
</g>
</g>
</svg>
