<?xml version="1.0" encoding="UTF-8" standalone="no"?>
<!DOCTYPE svg PUBLIC "-//W3C//DTD SVG 1.1//EN"
 "http://www.w3.org/Graphics/SVG/1.1/DTD/svg11.dtd">
<!-- Generated by graphviz version 2.40.1 (20161225.0304)
 -->
<!-- Title: CWallet::ReorderTransactions Pages: 1 -->
<svg width="683pt" height="85pt"
 viewBox="0.00 0.00 683.34 85.00" xmlns="http://www.w3.org/2000/svg" xmlns:xlink="http://www.w3.org/1999/xlink">
<g id="graph0" class="graph" transform="scale(1 1) rotate(0) translate(4 81)">
<title>CWallet::ReorderTransactions</title>
<polygon fill="#ffffff" stroke="transparent" points="-4,4 -4,-81 679.3447,-81 679.3447,4 -4,4"/>
<!-- Node1690 -->
<g id="node1" class="node">
<title>Node1690</title>
<polygon fill="#bfbfbf" stroke="#000000" points="0,-18.5 0,-36.5 149.2031,-36.5 149.2031,-18.5 0,-18.5"/>
<text text-anchor="middle" x="74.6016" y="-24.5" font-family="Helvetica,sans-Serif" font-size="10.00" fill="#000000">CWallet::ReorderTransactions</text>
</g>
<!-- Node1691 -->
<g id="node2" class="node">
<title>Node1691</title>
<g id="a_node2"><a xlink:href="class_wallet_batch.html#a8c3c129d34433dcc8a60b55e0f7fd64b" target="_top" xlink:title="WalletBatch::WriteTx">
<polygon fill="#ffffff" stroke="#000000" points="211.3262,-.5 211.3262,-18.5 320.1338,-18.5 320.1338,-.5 211.3262,-.5"/>
<text text-anchor="middle" x="265.73" y="-6.5" font-family="Helvetica,sans-Serif" font-size="10.00" fill="#000000">WalletBatch::WriteTx</text>
</a>
</g>
</g>
<!-- Node1690&#45;&gt;Node1691 -->
<g id="edge1" class="edge">
<title>Node1690&#45;&gt;Node1691</title>
<path fill="none" stroke="#191970" d="M149.318,-20.4634C166.3986,-18.8548 184.4134,-17.1582 201.0328,-15.593"/>
<polygon fill="#191970" stroke="#191970" points="201.5518,-19.0597 211.1796,-14.6374 200.8954,-12.0906 201.5518,-19.0597"/>
</g>
<!-- Node1696 -->
<g id="node7" class="node">
<title>Node1696</title>
<g id="a_node7"><a xlink:href="class_wallet_batch.html#a8a364359ac4e425166a814cde1a5672c" target="_top" xlink:title="WalletBatch::WriteOrderPosNext">
<polygon fill="#ffffff" stroke="#000000" points="185.2031,-37.5 185.2031,-55.5 346.2568,-55.5 346.2568,-37.5 185.2031,-37.5"/>
<text text-anchor="middle" x="265.73" y="-43.5" font-family="Helvetica,sans-Serif" font-size="10.00" fill="#000000">WalletBatch::WriteOrderPosNext</text>
</a>
</g>
</g>
<!-- Node1690&#45;&gt;Node1696 -->
<g id="edge6" class="edge">
<title>Node1690&#45;&gt;Node1696</title>
<path fill="none" stroke="#191970" d="M149.318,-34.9275C157.7462,-35.7654 166.402,-36.6258 175.0052,-37.4811"/>
<polygon fill="#191970" stroke="#191970" points="174.7667,-40.9745 185.0639,-38.481 175.4592,-34.0089 174.7667,-40.9745"/>
</g>
<!-- Node1692 -->
<g id="node3" class="node">
<title>Node1692</title>
<g id="a_node3"><a xlink:href="class_wallet_batch.html#a552eb421cff45a9ed94b1ec77e5c76c3" target="_top" xlink:title="WalletBatch::WriteIC">
<polygon fill="#ffffff" stroke="#000000" points="383.0845,-37.5 383.0845,-55.5 490.7837,-55.5 490.7837,-37.5 383.0845,-37.5"/>
<text text-anchor="middle" x="436.9341" y="-43.5" font-family="Helvetica,sans-Serif" font-size="10.00" fill="#000000">WalletBatch::WriteIC</text>
</a>
</g>
</g>
<!-- Node1691&#45;&gt;Node1692 -->
<g id="edge2" class="edge">
<title>Node1691&#45;&gt;Node1692</title>
<path fill="none" stroke="#191970" d="M307.6112,-18.5512C331.0159,-23.6093 360.381,-29.9556 385.2114,-35.3219"/>
<polygon fill="#191970" stroke="#191970" points="384.6751,-38.7867 395.1889,-37.4782 386.1539,-31.9447 384.6751,-38.7867"/>
</g>
<!-- Node1695 -->
<g id="node6" class="node">
<title>Node1695</title>
<g id="a_node6"><a xlink:href="class_c_merkle_tx.html#a20142f81e7ff0242db646e63e0a973b3" target="_top" xlink:title="CMerkleTx::GetHash">
<polygon fill="#ffffff" stroke="#000000" points="382.2568,-.5 382.2568,-18.5 491.6113,-18.5 491.6113,-.5 382.2568,-.5"/>
<text text-anchor="middle" x="436.9341" y="-6.5" font-family="Helvetica,sans-Serif" font-size="10.00" fill="#000000">CMerkleTx::GetHash</text>
</a>
</g>
</g>
<!-- Node1691&#45;&gt;Node1695 -->
<g id="edge5" class="edge">
<title>Node1691&#45;&gt;Node1695</title>
<path fill="none" stroke="#191970" d="M320.3707,-9.5C336.7408,-9.5 354.8567,-9.5 371.8302,-9.5"/>
<polygon fill="#191970" stroke="#191970" points="372.2252,-13.0001 382.2252,-9.5 372.2252,-6.0001 372.2252,-13.0001"/>
</g>
<!-- Node1693 -->
<g id="node4" class="node">
<title>Node1693</title>
<g id="a_node4"><a xlink:href="class_berkeley_batch.html#ac31c83ec96f7bd149f856d28e97dba23" target="_top" xlink:title="BerkeleyBatch::Write">
<polygon fill="#ffffff" stroke="#000000" points="546.8838,-58.5 546.8838,-76.5 656.0723,-76.5 656.0723,-58.5 546.8838,-58.5"/>
<text text-anchor="middle" x="601.478" y="-64.5" font-family="Helvetica,sans-Serif" font-size="10.00" fill="#000000">BerkeleyBatch::Write</text>
</a>
</g>
</g>
<!-- Node1692&#45;&gt;Node1693 -->
<g id="edge3" class="edge">
<title>Node1692&#45;&gt;Node1693</title>
<path fill="none" stroke="#191970" d="M490.8119,-53.3762C505.3571,-55.2325 521.2519,-57.2611 536.3418,-59.187"/>
<polygon fill="#191970" stroke="#191970" points="536.271,-62.7062 546.6337,-60.5005 537.1573,-55.7626 536.271,-62.7062"/>
</g>
<!-- Node1694 -->
<g id="node5" class="node">
<title>Node1694</title>
<g id="a_node5"><a xlink:href="class_berkeley_database.html#a313cd767c211da5738bdb5578cd59af7" target="_top" xlink:title="BerkeleyDatabase::Increment\lUpdateCounter">
<polygon fill="#ffffff" stroke="#000000" points="527.6113,-11.5 527.6113,-39.5 675.3447,-39.5 675.3447,-11.5 527.6113,-11.5"/>
<text text-anchor="start" x="535.6113" y="-27.5" font-family="Helvetica,sans-Serif" font-size="10.00" fill="#000000">BerkeleyDatabase::Increment</text>
<text text-anchor="middle" x="601.478" y="-17.5" font-family="Helvetica,sans-Serif" font-size="10.00" fill="#000000">UpdateCounter</text>
</a>
</g>
</g>
<!-- Node1692&#45;&gt;Node1694 -->
<g id="edge4" class="edge">
<title>Node1692&#45;&gt;Node1694</title>
<path fill="none" stroke="#191970" d="M490.8119,-39.6238C499.3242,-38.5374 508.2987,-37.3921 517.3036,-36.2428"/>
<polygon fill="#191970" stroke="#191970" points="517.9839,-39.6845 527.4603,-34.9465 517.0976,-32.7408 517.9839,-39.6845"/>
</g>
<!-- Node1696&#45;&gt;Node1692 -->
<g id="edge7" class="edge">
<title>Node1696&#45;&gt;Node1692</title>
<path fill="none" stroke="#191970" d="M346.3188,-46.5C355.0744,-46.5 363.9001,-46.5 372.4279,-46.5"/>
<polygon fill="#191970" stroke="#191970" points="372.6575,-50.0001 382.6575,-46.5 372.6574,-43.0001 372.6575,-50.0001"/>
</g>
</g>
</svg>
