<?xml version="1.0" encoding="UTF-8" standalone="no"?>
<!DOCTYPE svg PUBLIC "-//W3C//DTD SVG 1.1//EN"
 "http://www.w3.org/Graphics/SVG/1.1/DTD/svg11.dtd">
<!-- Generated by graphviz version 2.40.1 (20161225.0304)
 -->
<!-- Title: CWallet::IsFromMe Pages: 1 -->
<svg width="826pt" height="148pt"
 viewBox="0.00 0.00 825.94 148.00" xmlns="http://www.w3.org/2000/svg" xmlns:xlink="http://www.w3.org/1999/xlink">
<g id="graph0" class="graph" transform="scale(1 1) rotate(0) translate(4 144)">
<title>CWallet::IsFromMe</title>
<polygon fill="#ffffff" stroke="transparent" points="-4,4 -4,-144 821.9355,-144 821.9355,4 -4,4"/>
<!-- Node1421 -->
<g id="node1" class="node">
<title>Node1421</title>
<polygon fill="#bfbfbf" stroke="#000000" points="0,-55.5 0,-73.5 101.1953,-73.5 101.1953,-55.5 0,-55.5"/>
<text text-anchor="middle" x="50.5977" y="-61.5" font-family="Helvetica,sans-Serif" font-size="10.00" fill="#000000">CWallet::IsFromMe</text>
</g>
<!-- Node1422 -->
<g id="node2" class="node">
<title>Node1422</title>
<g id="a_node2"><a xlink:href="group__map_wallet.html#gaee8f634287d083737471595f658da519" target="_top" xlink:title="Add a transaction to the wallet, or update it. ">
<polygon fill="#ffffff" stroke="#000000" points="137.1953,-55.5 137.1953,-73.5 308.0781,-73.5 308.0781,-55.5 137.1953,-55.5"/>
<text text-anchor="middle" x="222.6367" y="-61.5" font-family="Helvetica,sans-Serif" font-size="10.00" fill="#000000">CWallet::AddToWalletIfInvolvingMe</text>
</a>
</g>
</g>
<!-- Node1421&#45;&gt;Node1422 -->
<g id="edge1" class="edge">
<title>Node1421&#45;&gt;Node1422</title>
<path fill="none" stroke="#191970" d="M111.3057,-64.5C119.6841,-64.5 128.4141,-64.5 137.137,-64.5"/>
<polygon fill="#191970" stroke="#191970" points="111.2846,-61.0001 101.2845,-64.5 111.2845,-68.0001 111.2846,-61.0001"/>
</g>
<!-- Node1423 -->
<g id="node3" class="node">
<title>Node1423</title>
<g id="a_node3"><a xlink:href="group__map_wallet.html#ga09e75fcbc98be305e68e99495570687c" target="_top" xlink:title="CWallet::SyncTransaction">
<polygon fill="#ffffff" stroke="#000000" points="344.0781,-55.5 344.0781,-73.5 474.3848,-73.5 474.3848,-55.5 344.0781,-55.5"/>
<text text-anchor="middle" x="409.2314" y="-61.5" font-family="Helvetica,sans-Serif" font-size="10.00" fill="#000000">CWallet::SyncTransaction</text>
</a>
</g>
</g>
<!-- Node1422&#45;&gt;Node1423 -->
<g id="edge2" class="edge">
<title>Node1422&#45;&gt;Node1423</title>
<path fill="none" stroke="#191970" d="M318.4154,-64.5C327.046,-64.5 335.6484,-64.5 343.9267,-64.5"/>
<polygon fill="#191970" stroke="#191970" points="318.2884,-61.0001 308.2884,-64.5 318.2884,-68.0001 318.2884,-61.0001"/>
</g>
<!-- Node1424 -->
<g id="node4" class="node">
<title>Node1424</title>
<g id="a_node4"><a xlink:href="group__map_wallet.html#gae44ec090ec7c87725fb22d33887ad1a7" target="_top" xlink:title="Notifies listeners of a transaction having been added to mempool. ">
<polygon fill="#ffffff" stroke="#000000" points="531.0317,-111.5 531.0317,-139.5 668.0229,-139.5 668.0229,-111.5 531.0317,-111.5"/>
<text text-anchor="start" x="539.0317" y="-127.5" font-family="Helvetica,sans-Serif" font-size="10.00" fill="#000000">CWallet::TransactionAdded</text>
<text text-anchor="middle" x="599.5273" y="-117.5" font-family="Helvetica,sans-Serif" font-size="10.00" fill="#000000">ToMempool</text>
</a>
</g>
</g>
<!-- Node1423&#45;&gt;Node1424 -->
<g id="edge3" class="edge">
<title>Node1423&#45;&gt;Node1424</title>
<path fill="none" stroke="#191970" d="M440.9341,-77.406C460.7184,-85.2105 486.818,-95.0565 510.3848,-102.5 520.2913,-105.629 530.9141,-108.6518 541.2507,-111.4206"/>
<polygon fill="#191970" stroke="#191970" points="442.0753,-74.0933 431.4898,-73.6466 439.4863,-80.5969 442.0753,-74.0933"/>
</g>
<!-- Node1425 -->
<g id="node5" class="node">
<title>Node1425</title>
<g id="a_node5"><a xlink:href="group__map_wallet.html#ga8871fb58a2872900558d69d71baddfca" target="_top" xlink:title="Notifies listeners of a block being connected. ">
<polygon fill="#ffffff" stroke="#000000" points="535.0186,-74.5 535.0186,-92.5 664.0361,-92.5 664.0361,-74.5 535.0186,-74.5"/>
<text text-anchor="middle" x="599.5273" y="-80.5" font-family="Helvetica,sans-Serif" font-size="10.00" fill="#000000">CWallet::BlockConnected</text>
</a>
</g>
</g>
<!-- Node1423&#45;&gt;Node1425 -->
<g id="edge4" class="edge">
<title>Node1423&#45;&gt;Node1425</title>
<path fill="none" stroke="#191970" d="M484.6416,-72.0293C501.2068,-73.6832 518.607,-75.4205 534.7123,-77.0286"/>
<polygon fill="#191970" stroke="#191970" points="484.7525,-68.523 474.4543,-71.0121 484.057,-75.4884 484.7525,-68.523"/>
</g>
<!-- Node1426 -->
<g id="node6" class="node">
<title>Node1426</title>
<g id="a_node6"><a xlink:href="group__map_wallet.html#ga3aa53a08f7071c42c0ef82ea468d19ae" target="_top" xlink:title="Notifies listeners of a block being disconnected. ">
<polygon fill="#ffffff" stroke="#000000" points="528.9077,-37.5 528.9077,-55.5 670.147,-55.5 670.147,-37.5 528.9077,-37.5"/>
<text text-anchor="middle" x="599.5273" y="-43.5" font-family="Helvetica,sans-Serif" font-size="10.00" fill="#000000">CWallet::BlockDisconnected</text>
</a>
</g>
</g>
<!-- Node1423&#45;&gt;Node1426 -->
<g id="edge5" class="edge">
<title>Node1423&#45;&gt;Node1426</title>
<path fill="none" stroke="#191970" d="M484.4603,-57.3841C499.0913,-56.0002 514.3802,-54.554 528.8578,-53.1846"/>
<polygon fill="#191970" stroke="#191970" points="484.0802,-53.9044 474.4543,-58.3306 484.7394,-60.8733 484.0802,-53.9044"/>
</g>
<!-- Node1427 -->
<g id="node7" class="node">
<title>Node1427</title>
<g id="a_node7"><a xlink:href="group__map_wallet.html#gaabb1db808d082d6df2b1e37cbf3f8f98" target="_top" xlink:title="Scan the block chain (starting in pindexStart) for transactions from or to us. ">
<polygon fill="#ffffff" stroke="#000000" points="510.3848,-.5 510.3848,-18.5 688.6699,-18.5 688.6699,-.5 510.3848,-.5"/>
<text text-anchor="middle" x="599.5273" y="-6.5" font-family="Helvetica,sans-Serif" font-size="10.00" fill="#000000">CWallet::ScanForWalletTransactions</text>
</a>
</g>
</g>
<!-- Node1423&#45;&gt;Node1427 -->
<g id="edge6" class="edge">
<title>Node1423&#45;&gt;Node1427</title>
<path fill="none" stroke="#191970" d="M441.2766,-51.8722C460.9977,-44.4082 486.9101,-35.1476 510.3848,-28.5 523.6306,-24.749 538.1688,-21.3531 551.5912,-18.5042"/>
<polygon fill="#191970" stroke="#191970" points="439.9403,-48.636 431.8528,-55.4802 442.4432,-55.1733 439.9403,-48.636"/>
</g>
<!-- Node1428 -->
<g id="node8" class="node">
<title>Node1428</title>
<g id="a_node8"><a xlink:href="rpcwallet_8cpp.html#a151535abf7394b299deb8d0a333de70b" target="_top" xlink:title="rescanblockchain">
<polygon fill="#ffffff" stroke="#000000" points="724.6699,-.5 724.6699,-18.5 817.9355,-18.5 817.9355,-.5 724.6699,-.5"/>
<text text-anchor="middle" x="771.3027" y="-6.5" font-family="Helvetica,sans-Serif" font-size="10.00" fill="#000000">rescanblockchain</text>
</a>
</g>
</g>
<!-- Node1427&#45;&gt;Node1428 -->
<g id="edge7" class="edge">
<title>Node1427&#45;&gt;Node1428</title>
<path fill="none" stroke="#191970" d="M698.8297,-9.5C707.7589,-9.5 716.4896,-9.5 724.6231,-9.5"/>
<polygon fill="#191970" stroke="#191970" points="698.6855,-6.0001 688.6854,-9.5 698.6854,-13.0001 698.6855,-6.0001"/>
</g>
</g>
</svg>
