<?xml version="1.0" encoding="UTF-8" standalone="no"?>
<!DOCTYPE svg PUBLIC "-//W3C//DTD SVG 1.1//EN"
 "http://www.w3.org/Graphics/SVG/1.1/DTD/svg11.dtd">
<!-- Generated by graphviz version 2.40.1 (20161225.0304)
 -->
<!-- Title: src/crypto/hmac_sha512.h Pages: 1 -->
<svg width="141pt" height="137pt"
 viewBox="0.00 0.00 141.28 137.00" xmlns="http://www.w3.org/2000/svg" xmlns:xlink="http://www.w3.org/1999/xlink">
<g id="graph0" class="graph" transform="scale(1 1) rotate(0) translate(4 133)">
<title>src/crypto/hmac_sha512.h</title>
<polygon fill="#ffffff" stroke="transparent" points="-4,4 -4,-133 137.2803,-133 137.2803,4 -4,4"/>
<!-- Node0 -->
<g id="node1" class="node">
<title>Node0</title>
<polygon fill="#bfbfbf" stroke="#000000" points="0,-110.5 0,-128.5 133.2803,-128.5 133.2803,-110.5 0,-110.5"/>
<text text-anchor="middle" x="66.6401" y="-116.5" font-family="Helvetica,sans-Serif" font-size="10.00" fill="#000000">src/crypto/hmac_sha512.h</text>
</g>
<!-- Node1 -->
<g id="node2" class="node">
<title>Node1</title>
<g id="a_node2"><a xlink:href="sha512_8h.html" target="_top" xlink:title="crypto/sha512.h">
<polygon fill="#ffffff" stroke="#000000" points="23.0615,-55.5 23.0615,-73.5 110.2188,-73.5 110.2188,-55.5 23.0615,-55.5"/>
<text text-anchor="middle" x="66.6401" y="-61.5" font-family="Helvetica,sans-Serif" font-size="10.00" fill="#000000">crypto/sha512.h</text>
</a>
</g>
</g>
<!-- Node0&#45;&gt;Node1 -->
<g id="edge1" class="edge">
<title>Node0&#45;&gt;Node1</title>
<path fill="none" stroke="#191970" d="M66.6401,-110.4179C66.6401,-103.2164 66.6401,-92.8962 66.6401,-83.8632"/>
<polygon fill="#191970" stroke="#191970" points="70.1402,-83.7794 66.6401,-73.7795 63.1402,-83.7795 70.1402,-83.7794"/>
</g>
<!-- Node2 -->
<g id="node3" class="node">
<title>Node2</title>
<polygon fill="#ffffff" stroke="#bfbfbf" points="7.5195,-.5 7.5195,-18.5 55.7607,-18.5 55.7607,-.5 7.5195,-.5"/>
<text text-anchor="middle" x="31.6401" y="-6.5" font-family="Helvetica,sans-Serif" font-size="10.00" fill="#000000">stdint.h</text>
</g>
<!-- Node0&#45;&gt;Node2 -->
<g id="edge4" class="edge">
<title>Node0&#45;&gt;Node2</title>
<path fill="none" stroke="#191970" d="M49.7876,-110.4285C37.2313,-102.6252 21.0322,-90.0885 13.6401,-74 6.6878,-58.8686 13.1502,-40.4778 20.1924,-27.2117"/>
<polygon fill="#191970" stroke="#191970" points="23.2144,-28.9772 25.2391,-18.5777 17.1711,-25.4448 23.2144,-28.9772"/>
</g>
<!-- Node3 -->
<g id="node4" class="node">
<title>Node3</title>
<polygon fill="#ffffff" stroke="#bfbfbf" points="76.7979,-.5 76.7979,-18.5 124.4824,-18.5 124.4824,-.5 76.7979,-.5"/>
<text text-anchor="middle" x="100.6401" y="-6.5" font-family="Helvetica,sans-Serif" font-size="10.00" fill="#000000">stdlib.h</text>
</g>
<!-- Node0&#45;&gt;Node3 -->
<g id="edge5" class="edge">
<title>Node0&#45;&gt;Node3</title>
<path fill="none" stroke="#191970" d="M83.4927,-110.4285C96.049,-102.6252 112.248,-90.0885 119.6401,-74 126.6211,-58.8063 119.8423,-40.4229 112.5157,-27.1755"/>
<polygon fill="#191970" stroke="#191970" points="115.46,-25.2809 107.273,-18.5561 109.4794,-28.9186 115.46,-25.2809"/>
</g>
<!-- Node1&#45;&gt;Node2 -->
<g id="edge2" class="edge">
<title>Node1&#45;&gt;Node2</title>
<path fill="none" stroke="#191970" d="M60.8606,-55.4179C56.026,-47.8207 48.9827,-36.7527 43.0225,-27.3866"/>
<polygon fill="#191970" stroke="#191970" points="45.8669,-25.337 37.5452,-18.7795 39.9612,-29.0952 45.8669,-25.337"/>
</g>
<!-- Node1&#45;&gt;Node3 -->
<g id="edge3" class="edge">
<title>Node1&#45;&gt;Node3</title>
<path fill="none" stroke="#191970" d="M72.2545,-55.4179C76.951,-47.8207 83.793,-36.7527 89.583,-27.3866"/>
<polygon fill="#191970" stroke="#191970" points="92.6226,-29.1258 94.9037,-18.7795 86.6684,-25.445 92.6226,-29.1258"/>
</g>
</g>
</svg>
