<?xml version="1.0" encoding="UTF-8" standalone="no"?>
<!DOCTYPE svg PUBLIC "-//W3C//DTD SVG 1.1//EN"
 "http://www.w3.org/Graphics/SVG/1.1/DTD/svg11.dtd">
<!-- Generated by graphviz version 2.40.1 (20161225.0304)
 -->
<!-- Title: Graphical Class Hierarchy Pages: 1 -->
<svg width="303pt" height="74pt"
 viewBox="0.00 0.00 302.74 74.00" xmlns="http://www.w3.org/2000/svg" xmlns:xlink="http://www.w3.org/1999/xlink">
<g id="graph0" class="graph" transform="scale(1 1) rotate(0) translate(4 70)">
<title>Graphical Class Hierarchy</title>
<polygon fill="#ffffff" stroke="transparent" points="-4,4 -4,-70 298.7383,-70 298.7383,4 -4,4"/>
<!-- Node139 -->
<g id="node1" class="node">
<title>Node139</title>
<polygon fill="#ffffff" stroke="#bfbfbf" points="0,-21.5 0,-39.5 117.1377,-39.5 117.1377,-21.5 0,-21.5"/>
<text text-anchor="middle" x="58.5688" y="-27.5" font-family="Helvetica,sans-Serif" font-size="10.00" fill="#000000">QSortFilterProxyModel</text>
</g>
<!-- Node0 -->
<g id="node2" class="node">
<title>Node0</title>
<g id="a_node2"><a xlink:href="class_address_book_sort_filter_proxy_model.html" target="_top" xlink:title="AddressBookSortFilterProxy\lModel">
<polygon fill="#ffffff" stroke="#000000" points="153.1377,-37.5 153.1377,-65.5 294.7383,-65.5 294.7383,-37.5 153.1377,-37.5"/>
<text text-anchor="start" x="161.1377" y="-53.5" font-family="Helvetica,sans-Serif" font-size="10.00" fill="#000000">AddressBookSortFilterProxy</text>
<text text-anchor="middle" x="223.938" y="-43.5" font-family="Helvetica,sans-Serif" font-size="10.00" fill="#000000">Model</text>
</a>
</g>
</g>
<!-- Node139&#45;&gt;Node0 -->
<g id="edge1" class="edge">
<title>Node139&#45;&gt;Node0</title>
<path fill="none" stroke="#191970" d="M127.4656,-39.2491C135.8682,-40.3161 144.4662,-41.408 152.8994,-42.4789"/>
<polygon fill="#191970" stroke="#191970" points="127.6987,-35.7507 117.3374,-37.9629 126.8168,-42.6949 127.6987,-35.7507"/>
</g>
<!-- Node141 -->
<g id="node3" class="node">
<title>Node141</title>
<g id="a_node3"><a xlink:href="class_transaction_filter_proxy.html" target="_top" xlink:title="Filter the transaction list according to pre&#45;specified rules. ">
<polygon fill="#ffffff" stroke="#000000" points="166.1064,-.5 166.1064,-18.5 281.7695,-18.5 281.7695,-.5 166.1064,-.5"/>
<text text-anchor="middle" x="223.938" y="-6.5" font-family="Helvetica,sans-Serif" font-size="10.00" fill="#000000">TransactionFilterProxy</text>
</a>
</g>
</g>
<!-- Node139&#45;&gt;Node141 -->
<g id="edge2" class="edge">
<title>Node139&#45;&gt;Node141</title>
<path fill="none" stroke="#191970" d="M127.47,-21.7503C140.2557,-20.1267 153.4939,-18.4456 165.9148,-16.8683"/>
<polygon fill="#191970" stroke="#191970" points="126.8168,-18.3051 117.3374,-23.0371 127.6987,-25.2493 126.8168,-18.3051"/>
</g>
</g>
</svg>
