<?xml version="1.0" encoding="UTF-8" standalone="no"?>
<!DOCTYPE svg PUBLIC "-//W3C//DTD SVG 1.1//EN"
 "http://www.w3.org/Graphics/SVG/1.1/DTD/svg11.dtd">
<!-- Generated by graphviz version 2.40.1 (20161225.0304)
 -->
<!-- Title: AppInitParameterInteraction Pages: 1 -->
<svg width="644pt" height="268pt"
 viewBox="0.00 0.00 643.57 268.00" xmlns="http://www.w3.org/2000/svg" xmlns:xlink="http://www.w3.org/1999/xlink">
<g id="graph0" class="graph" transform="scale(1 1) rotate(0) translate(4 264)">
<title>AppInitParameterInteraction</title>
<polygon fill="#ffffff" stroke="transparent" points="-4,4 -4,-264 639.5693,-264 639.5693,4 -4,4"/>
<!-- Node31 -->
<g id="node1" class="node">
<title>Node31</title>
<polygon fill="#bfbfbf" stroke="#000000" points="0,-148.5 0,-166.5 140.5117,-166.5 140.5117,-148.5 0,-148.5"/>
<text text-anchor="middle" x="70.2559" y="-154.5" font-family="Helvetica,sans-Serif" font-size="10.00" fill="#000000">AppInitParameterInteraction</text>
</g>
<!-- Node32 -->
<g id="node2" class="node">
<title>Node32</title>
<g id="a_node2"><a xlink:href="chainparams_8cpp.html#ace5c5b706d71a324a417dd2db394fd4a" target="_top" xlink:title="Return the currently selected parameters. ">
<polygon fill="#ffffff" stroke="#000000" points="217.9253,-241.5 217.9253,-259.5 268.3784,-259.5 268.3784,-241.5 217.9253,-241.5"/>
<text text-anchor="middle" x="243.1519" y="-247.5" font-family="Helvetica,sans-Serif" font-size="10.00" fill="#000000">Params</text>
</a>
</g>
</g>
<!-- Node31&#45;&gt;Node32 -->
<g id="edge1" class="edge">
<title>Node31&#45;&gt;Node32</title>
<path fill="none" stroke="#191970" d="M80.6318,-166.7431C98.7963,-182.4623 138.0912,-214.4488 176.5117,-232.5 186.2736,-237.0865 197.4082,-240.6728 207.7437,-243.3954"/>
<polygon fill="#191970" stroke="#191970" points="207.1875,-246.8623 217.7324,-245.835 208.8484,-240.0622 207.1875,-246.8623"/>
</g>
<!-- Node33 -->
<g id="node3" class="node">
<title>Node33</title>
<g id="a_node3"><a xlink:href="util_8cpp.html#aa0b7b38b2c52ff7a8ba0b40df9584352" target="_top" xlink:title="GetBlocksDir">
<polygon fill="#ffffff" stroke="#000000" points="205.9795,-204.5 205.9795,-222.5 280.3242,-222.5 280.3242,-204.5 205.9795,-204.5"/>
<text text-anchor="middle" x="243.1519" y="-210.5" font-family="Helvetica,sans-Serif" font-size="10.00" fill="#000000">GetBlocksDir</text>
</a>
</g>
</g>
<!-- Node31&#45;&gt;Node33 -->
<g id="edge2" class="edge">
<title>Node31&#45;&gt;Node33</title>
<path fill="none" stroke="#191970" d="M94.1258,-166.652C115.5409,-174.7149 147.908,-186.5379 176.5117,-195.5 183.4304,-197.6678 190.8009,-199.8163 198.0232,-201.8335"/>
<polygon fill="#191970" stroke="#191970" points="197.154,-205.2243 207.7235,-204.4924 199.0045,-198.4733 197.154,-205.2243"/>
</g>
<!-- Node34 -->
<g id="node4" class="node">
<title>Node34</title>
<g id="a_node4"><a xlink:href="ui__interface_8cpp.html#a36f8e669221ac80facf023671576ee82" target="_top" xlink:title="Show error message. ">
<polygon fill="#ffffff" stroke="#000000" points="217.3711,-167.5 217.3711,-185.5 268.9326,-185.5 268.9326,-167.5 217.3711,-167.5"/>
<text text-anchor="middle" x="243.1519" y="-173.5" font-family="Helvetica,sans-Serif" font-size="10.00" fill="#000000">InitError</text>
</a>
</g>
</g>
<!-- Node31&#45;&gt;Node34 -->
<g id="edge3" class="edge">
<title>Node31&#45;&gt;Node34</title>
<path fill="none" stroke="#191970" d="M140.5793,-165.228C163.4553,-167.7419 187.893,-170.4275 207.1751,-172.5464"/>
<polygon fill="#191970" stroke="#191970" points="206.9918,-176.0473 217.3143,-173.6606 207.7565,-169.0891 206.9918,-176.0473"/>
</g>
<!-- Node35 -->
<g id="node5" class="node">
<title>Node35</title>
<g id="a_node5"><a xlink:href="util_8h.html#aad133bb6103b53cebf03fd01e2f11ba1" target="_top" xlink:title="Translation function. ">
<polygon fill="#ffffff" stroke="#000000" points="228.6519,-130.5 228.6519,-148.5 257.6519,-148.5 257.6519,-130.5 228.6519,-130.5"/>
<text text-anchor="middle" x="243.1519" y="-136.5" font-family="Helvetica,sans-Serif" font-size="10.00" fill="#000000">_</text>
</a>
</g>
</g>
<!-- Node31&#45;&gt;Node35 -->
<g id="edge4" class="edge">
<title>Node31&#45;&gt;Node35</title>
<path fill="none" stroke="#191970" d="M140.5793,-150.1787C168.1576,-147.3076 198.0057,-144.2001 218.3539,-142.0817"/>
<polygon fill="#191970" stroke="#191970" points="218.7523,-145.5592 228.3361,-141.0425 218.0274,-138.5968 218.7523,-145.5592"/>
</g>
<!-- Node36 -->
<g id="node6" class="node">
<title>Node36</title>
<g id="a_node6"><a xlink:href="class_args_manager.html#adb5d644d273b3a259f792affcdca8283" target="_top" xlink:title="Return string argument or default value. ">
<polygon fill="#ffffff" stroke="#000000" points="186.519,-93.5 186.519,-111.5 299.7847,-111.5 299.7847,-93.5 186.519,-93.5"/>
<text text-anchor="middle" x="243.1519" y="-99.5" font-family="Helvetica,sans-Serif" font-size="10.00" fill="#000000">ArgsManager::GetArg</text>
</a>
</g>
</g>
<!-- Node31&#45;&gt;Node36 -->
<g id="edge5" class="edge">
<title>Node31&#45;&gt;Node36</title>
<path fill="none" stroke="#191970" d="M95.9062,-148.4168C117.3561,-140.9157 148.8058,-130.1374 176.5117,-121.5 184.1836,-119.1083 192.3888,-116.6711 200.3269,-114.3751"/>
<polygon fill="#191970" stroke="#191970" points="201.5271,-117.6722 210.1785,-111.5562 199.6015,-110.9422 201.5271,-117.6722"/>
</g>
<!-- Node42 -->
<g id="node12" class="node">
<title>Node42</title>
<g id="a_node12"><a xlink:href="class_args_manager.html#af81c6e2a9dcd6b12557a2387fd67b2a6" target="_top" xlink:title="Return boolean argument or default value. ">
<polygon fill="#ffffff" stroke="#000000" points="176.5117,-56.5 176.5117,-74.5 309.792,-74.5 309.792,-56.5 176.5117,-56.5"/>
<text text-anchor="middle" x="243.1519" y="-62.5" font-family="Helvetica,sans-Serif" font-size="10.00" fill="#000000">ArgsManager::GetBoolArg</text>
</a>
</g>
</g>
<!-- Node31&#45;&gt;Node42 -->
<g id="edge12" class="edge">
<title>Node31&#45;&gt;Node42</title>
<path fill="none" stroke="#191970" d="M80.999,-148.333C99.4014,-133.0584 138.6426,-102.3212 176.5117,-84.5 181.8813,-81.9731 187.6558,-79.7145 193.4798,-77.7147"/>
<polygon fill="#191970" stroke="#191970" points="194.8028,-80.9665 203.2653,-74.5919 192.6746,-74.2979 194.8028,-80.9665"/>
</g>
<!-- Node37 -->
<g id="node7" class="node">
<title>Node37</title>
<g id="a_node7"><a xlink:href="class_args_manager.html#a113a1b8c5471d2fff0108058be8b86af" target="_top" xlink:title="Return true if the argument was originally passed as a negated option, i.e. ">
<polygon fill="#ffffff" stroke="#000000" points="345.792,-96.5 345.792,-114.5 488.5254,-114.5 488.5254,-96.5 345.792,-96.5"/>
<text text-anchor="middle" x="417.1587" y="-102.5" font-family="Helvetica,sans-Serif" font-size="10.00" fill="#000000">ArgsManager::IsArgNegated</text>
</a>
</g>
</g>
<!-- Node36&#45;&gt;Node37 -->
<g id="edge6" class="edge">
<title>Node36&#45;&gt;Node37</title>
<path fill="none" stroke="#191970" d="M300.1282,-103.4823C311.5111,-103.6786 323.6757,-103.8883 335.6985,-104.0956"/>
<polygon fill="#191970" stroke="#191970" points="335.6851,-107.5958 345.744,-104.2688 335.8059,-100.5968 335.6851,-107.5958"/>
</g>
<!-- Node39 -->
<g id="node9" class="node">
<title>Node39</title>
<g id="a_node9"><a xlink:href="class_args_manager_helper.html#aa4f8f77dc468b29cffe50513c78a87cd" target="_top" xlink:title="ArgsManagerHelper::\lGetArg">
<polygon fill="#ffffff" stroke="#000000" points="361.6367,-49.5 361.6367,-77.5 472.6807,-77.5 472.6807,-49.5 361.6367,-49.5"/>
<text text-anchor="start" x="369.6367" y="-65.5" font-family="Helvetica,sans-Serif" font-size="10.00" fill="#000000">ArgsManagerHelper::</text>
<text text-anchor="middle" x="417.1587" y="-55.5" font-family="Helvetica,sans-Serif" font-size="10.00" fill="#000000">GetArg</text>
</a>
</g>
</g>
<!-- Node36&#45;&gt;Node39 -->
<g id="edge8" class="edge">
<title>Node36&#45;&gt;Node39</title>
<path fill="none" stroke="#191970" d="M283.5099,-93.4546C303.7121,-88.9267 328.6781,-83.3311 351.5431,-78.2064"/>
<polygon fill="#191970" stroke="#191970" points="352.5412,-81.5696 361.5336,-75.9672 351.0102,-74.739 352.5412,-81.5696"/>
</g>
<!-- Node38 -->
<g id="node8" class="node">
<title>Node38</title>
<g id="a_node8"><a xlink:href="class_args_manager_helper.html#a863ddbcfbd113cf88cf622a0a4e32c1d" target="_top" xlink:title="Convert regular argument into the network&#45;specific setting. ">
<polygon fill="#ffffff" stroke="#000000" points="524.5254,-94.5 524.5254,-122.5 635.5693,-122.5 635.5693,-94.5 524.5254,-94.5"/>
<text text-anchor="start" x="532.5254" y="-110.5" font-family="Helvetica,sans-Serif" font-size="10.00" fill="#000000">ArgsManagerHelper::</text>
<text text-anchor="middle" x="580.0474" y="-100.5" font-family="Helvetica,sans-Serif" font-size="10.00" fill="#000000">NetworkArg</text>
</a>
</g>
</g>
<!-- Node37&#45;&gt;Node38 -->
<g id="edge7" class="edge">
<title>Node37&#45;&gt;Node38</title>
<path fill="none" stroke="#191970" d="M488.604,-106.8158C497.112,-106.9725 505.7678,-107.132 514.1925,-107.2871"/>
<polygon fill="#191970" stroke="#191970" points="514.2657,-110.789 524.3285,-107.4738 514.3947,-103.7902 514.2657,-110.789"/>
</g>
<!-- Node39&#45;&gt;Node38 -->
<g id="edge10" class="edge">
<title>Node39&#45;&gt;Node38</title>
<path fill="none" stroke="#191970" d="M468.2508,-77.6148C484.4734,-82.0965 502.5709,-87.0962 519.3989,-91.7451"/>
<polygon fill="#191970" stroke="#191970" points="518.5656,-95.146 529.1366,-94.4353 520.4297,-88.3987 518.5656,-95.146"/>
</g>
<!-- Node40 -->
<g id="node10" class="node">
<title>Node40</title>
<g id="a_node10"><a xlink:href="class_args_manager_helper.html#a1804a95992b4e10d04f0b92c53032b29" target="_top" xlink:title="Return true/false if an argument is set in a map, and also return the first (or last) of the possibly...">
<polygon fill="#ffffff" stroke="#000000" points="524.5254,-.5 524.5254,-28.5 635.5693,-28.5 635.5693,-.5 524.5254,-.5"/>
<text text-anchor="start" x="532.5254" y="-16.5" font-family="Helvetica,sans-Serif" font-size="10.00" fill="#000000">ArgsManagerHelper::</text>
<text text-anchor="middle" x="580.0474" y="-6.5" font-family="Helvetica,sans-Serif" font-size="10.00" fill="#000000">GetArgHelper</text>
</a>
</g>
</g>
<!-- Node39&#45;&gt;Node40 -->
<g id="edge9" class="edge">
<title>Node39&#45;&gt;Node40</title>
<path fill="none" stroke="#191970" d="M463.836,-49.4586C482.4942,-43.8459 504.1492,-37.3316 523.6741,-31.4581"/>
<polygon fill="#191970" stroke="#191970" points="524.7953,-34.7759 533.3632,-28.5435 522.7788,-28.0726 524.7953,-34.7759"/>
</g>
<!-- Node41 -->
<g id="node11" class="node">
<title>Node41</title>
<g id="a_node11"><a xlink:href="class_args_manager_helper.html#a43f3488403e4f0433ade323e48008359" target="_top" xlink:title="Determine whether to use config settings in the default section, See also comments around ArgsManager...">
<polygon fill="#ffffff" stroke="#000000" points="524.5254,-47.5 524.5254,-75.5 635.5693,-75.5 635.5693,-47.5 524.5254,-47.5"/>
<text text-anchor="start" x="532.5254" y="-63.5" font-family="Helvetica,sans-Serif" font-size="10.00" fill="#000000">ArgsManagerHelper::</text>
<text text-anchor="middle" x="580.0474" y="-53.5" font-family="Helvetica,sans-Serif" font-size="10.00" fill="#000000">UseDefaultSection</text>
</a>
</g>
</g>
<!-- Node39&#45;&gt;Node41 -->
<g id="edge11" class="edge">
<title>Node39&#45;&gt;Node41</title>
<path fill="none" stroke="#191970" d="M472.7601,-62.8173C486.0533,-62.6541 500.3711,-62.4783 514.0813,-62.31"/>
<polygon fill="#191970" stroke="#191970" points="514.4639,-65.8056 524.4201,-62.183 514.3779,-58.8061 514.4639,-65.8056"/>
</g>
<!-- Node42&#45;&gt;Node37 -->
<g id="edge13" class="edge">
<title>Node42&#45;&gt;Node37</title>
<path fill="none" stroke="#191970" d="M282.6367,-74.5766C307.888,-80.3813 340.8429,-87.9568 367.8145,-94.1569"/>
<polygon fill="#191970" stroke="#191970" points="367.3001,-97.6299 377.8301,-96.4593 368.8684,-90.8079 367.3001,-97.6299"/>
</g>
<!-- Node42&#45;&gt;Node39 -->
<g id="edge14" class="edge">
<title>Node42&#45;&gt;Node39</title>
<path fill="none" stroke="#191970" d="M309.9298,-64.7325C323.5243,-64.5762 337.8163,-64.4119 351.3759,-64.2561"/>
<polygon fill="#191970" stroke="#191970" points="351.6194,-67.7536 361.5785,-64.1388 351.5389,-60.7541 351.6194,-67.7536"/>
</g>
</g>
</svg>
