<?xml version="1.0" encoding="UTF-8" standalone="no"?>
<!DOCTYPE svg PUBLIC "-//W3C//DTD SVG 1.1//EN"
 "http://www.w3.org/Graphics/SVG/1.1/DTD/svg11.dtd">
<!-- Generated by graphviz version 2.40.1 (20161225.0304)
 -->
<!-- Title: CastToBool Pages: 1 -->
<svg width="340pt" height="64pt"
 viewBox="0.00 0.00 340.30 64.00" xmlns="http://www.w3.org/2000/svg" xmlns:xlink="http://www.w3.org/1999/xlink">
<g id="graph0" class="graph" transform="scale(1 1) rotate(0) translate(4 60)">
<title>CastToBool</title>
<polygon fill="#ffffff" stroke="transparent" points="-4,4 -4,-60 336.3047,-60 336.3047,4 -4,4"/>
<!-- Node1 -->
<g id="node1" class="node">
<title>Node1</title>
<polygon fill="#bfbfbf" stroke="#000000" points="0,-18.5 0,-36.5 67.1377,-36.5 67.1377,-18.5 0,-18.5"/>
<text text-anchor="middle" x="33.5688" y="-24.5" font-family="Helvetica,sans-Serif" font-size="10.00" fill="#000000">CastToBool</text>
</g>
<!-- Node2 -->
<g id="node2" class="node">
<title>Node2</title>
<g id="a_node2"><a xlink:href="interpreter_8h.html#a20c210d3ade38906e6b8f57b30a1880b" target="_top" xlink:title="VerifyScript">
<polygon fill="#ffffff" stroke="#000000" points="103.1377,-18.5 103.1377,-36.5 169.7139,-36.5 169.7139,-18.5 103.1377,-18.5"/>
<text text-anchor="middle" x="136.4258" y="-24.5" font-family="Helvetica,sans-Serif" font-size="10.00" fill="#000000">VerifyScript</text>
</a>
</g>
</g>
<!-- Node1&#45;&gt;Node2 -->
<g id="edge1" class="edge">
<title>Node1&#45;&gt;Node2</title>
<path fill="none" stroke="#191970" d="M77.4781,-27.5C86.034,-27.5 94.8737,-27.5 103.0222,-27.5"/>
<polygon fill="#191970" stroke="#191970" points="77.2481,-24.0001 67.2481,-27.5 77.248,-31.0001 77.2481,-24.0001"/>
</g>
<!-- Node3 -->
<g id="node3" class="node">
<title>Node3</title>
<g id="a_node3"><a xlink:href="sign_8h.html#ac43070bee0b6bc72e2e2a738892dd1f3" target="_top" xlink:title="Extract signature data from a transaction input, and insert it. ">
<polygon fill="#ffffff" stroke="#000000" points="212.8428,-37.5 212.8428,-55.5 325.1758,-55.5 325.1758,-37.5 212.8428,-37.5"/>
<text text-anchor="middle" x="269.0093" y="-43.5" font-family="Helvetica,sans-Serif" font-size="10.00" fill="#000000">DataFromTransaction</text>
</a>
</g>
</g>
<!-- Node2&#45;&gt;Node3 -->
<g id="edge2" class="edge">
<title>Node2&#45;&gt;Node3</title>
<path fill="none" stroke="#191970" d="M179.9806,-33.7417C190.4089,-35.2361 201.6913,-36.8529 212.6077,-38.4173"/>
<polygon fill="#191970" stroke="#191970" points="180.2776,-30.2485 169.8822,-32.2945 179.2845,-37.1778 180.2776,-30.2485"/>
</g>
<!-- Node4 -->
<g id="node4" class="node">
<title>Node4</title>
<g id="a_node4"><a xlink:href="class_c_script_check.html#a108d4c713338308be3867ed4e65b80c5" target="_top" xlink:title="CScriptCheck::operator()">
<polygon fill="#ffffff" stroke="#000000" points="205.7139,-.5 205.7139,-18.5 332.3047,-18.5 332.3047,-.5 205.7139,-.5"/>
<text text-anchor="middle" x="269.0093" y="-6.5" font-family="Helvetica,sans-Serif" font-size="10.00" fill="#000000">CScriptCheck::operator()</text>
</a>
</g>
</g>
<!-- Node2&#45;&gt;Node4 -->
<g id="edge3" class="edge">
<title>Node2&#45;&gt;Node4</title>
<path fill="none" stroke="#191970" d="M179.9575,-21.59C188.1711,-20.4749 196.9152,-19.2877 205.5935,-18.1095"/>
<polygon fill="#191970" stroke="#191970" points="179.3204,-18.1443 169.8822,-22.9578 180.2622,-25.0806 179.3204,-18.1443"/>
</g>
</g>
</svg>
