<?xml version="1.0" encoding="UTF-8" standalone="no"?>
<!DOCTYPE svg PUBLIC "-//W3C//DTD SVG 1.1//EN"
 "http://www.w3.org/Graphics/SVG/1.1/DTD/svg11.dtd">
<!-- Generated by graphviz version 2.40.1 (20161225.0304)
 -->
<!-- Title: src/secp256k1/contrib/lax_der_privatekey_parsing.c Pages: 1 -->
<svg width="212pt" height="212pt"
 viewBox="0.00 0.00 212.36 212.00" xmlns="http://www.w3.org/2000/svg" xmlns:xlink="http://www.w3.org/1999/xlink">
<g id="graph0" class="graph" transform="scale(1 1) rotate(0) translate(4 208)">
<title>src/secp256k1/contrib/lax_der_privatekey_parsing.c</title>
<polygon fill="#ffffff" stroke="transparent" points="-4,4 -4,-208 208.3643,-208 208.3643,4 -4,4"/>
<!-- Node0 -->
<g id="node1" class="node">
<title>Node0</title>
<polygon fill="#bfbfbf" stroke="#000000" points="1.9707,-175.5 1.9707,-203.5 150.8223,-203.5 150.8223,-175.5 1.9707,-175.5"/>
<text text-anchor="start" x="9.9707" y="-191.5" font-family="Helvetica,sans-Serif" font-size="10.00" fill="#000000">src/secp256k1/contrib</text>
<text text-anchor="middle" x="76.3965" y="-181.5" font-family="Helvetica,sans-Serif" font-size="10.00" fill="#000000">/lax_der_privatekey_parsing.c</text>
</g>
<!-- Node1 -->
<g id="node2" class="node">
<title>Node1</title>
<polygon fill="#ffffff" stroke="#bfbfbf" points="0,-115.5 0,-133.5 48.793,-133.5 48.793,-115.5 0,-115.5"/>
<text text-anchor="middle" x="24.3965" y="-121.5" font-family="Helvetica,sans-Serif" font-size="10.00" fill="#000000">string.h</text>
</g>
<!-- Node0&#45;&gt;Node1 -->
<g id="edge1" class="edge">
<title>Node0&#45;&gt;Node1</title>
<path fill="none" stroke="#191970" d="M65.1133,-175.396C57.1789,-165.4781 46.5182,-152.1522 38.0956,-141.6239"/>
<polygon fill="#191970" stroke="#191970" points="40.636,-139.1966 31.6559,-133.5743 35.1699,-143.5695 40.636,-139.1966"/>
</g>
<!-- Node2 -->
<g id="node3" class="node">
<title>Node2</title>
<g id="a_node3"><a xlink:href="secp256k1_8h.html" target="_top" xlink:title="secp256k1.h">
<polygon fill="#ffffff" stroke="#000000" points="79.042,-55.5 79.042,-73.5 151.751,-73.5 151.751,-55.5 79.042,-55.5"/>
<text text-anchor="middle" x="115.3965" y="-61.5" font-family="Helvetica,sans-Serif" font-size="10.00" fill="#000000">secp256k1.h</text>
</a>
</g>
</g>
<!-- Node0&#45;&gt;Node2 -->
<g id="edge2" class="edge">
<title>Node0&#45;&gt;Node2</title>
<path fill="none" stroke="#191970" d="M78.9504,-175.4997C82.0593,-159.4501 87.8436,-132.4628 95.3965,-110 98.4516,-100.9139 102.6216,-91.1452 106.3634,-82.9974"/>
<polygon fill="#191970" stroke="#191970" points="109.6414,-84.253 110.758,-73.7172 103.3149,-81.2571 109.6414,-84.253"/>
</g>
<!-- Node4 -->
<g id="node5" class="node">
<title>Node4</title>
<g id="a_node5"><a xlink:href="lax__der__privatekey__parsing_8h.html" target="_top" xlink:title="lax_der_privatekey\l_parsing.h">
<polygon fill="#ffffff" stroke="#000000" points="104.4287,-110.5 104.4287,-138.5 204.3643,-138.5 204.3643,-110.5 104.4287,-110.5"/>
<text text-anchor="start" x="112.4287" y="-126.5" font-family="Helvetica,sans-Serif" font-size="10.00" fill="#000000">lax_der_privatekey</text>
<text text-anchor="middle" x="154.3965" y="-116.5" font-family="Helvetica,sans-Serif" font-size="10.00" fill="#000000">_parsing.h</text>
</a>
</g>
</g>
<!-- Node0&#45;&gt;Node4 -->
<g id="edge4" class="edge">
<title>Node0&#45;&gt;Node4</title>
<path fill="none" stroke="#191970" d="M93.3213,-175.396C103.9514,-166.5375 117.8441,-154.9604 129.6932,-145.0861"/>
<polygon fill="#191970" stroke="#191970" points="132.0631,-147.6672 137.5047,-138.5765 127.5818,-142.2896 132.0631,-147.6672"/>
</g>
<!-- Node3 -->
<g id="node4" class="node">
<title>Node3</title>
<polygon fill="#ffffff" stroke="#bfbfbf" points="89.606,-.5 89.606,-18.5 141.187,-18.5 141.187,-.5 89.606,-.5"/>
<text text-anchor="middle" x="115.3965" y="-6.5" font-family="Helvetica,sans-Serif" font-size="10.00" fill="#000000">stddef.h</text>
</g>
<!-- Node2&#45;&gt;Node3 -->
<g id="edge3" class="edge">
<title>Node2&#45;&gt;Node3</title>
<path fill="none" stroke="#191970" d="M115.3965,-55.4179C115.3965,-48.2164 115.3965,-37.8962 115.3965,-28.8632"/>
<polygon fill="#191970" stroke="#191970" points="118.8966,-28.7794 115.3965,-18.7795 111.8966,-28.7795 118.8966,-28.7794"/>
</g>
<!-- Node4&#45;&gt;Node2 -->
<g id="edge5" class="edge">
<title>Node4&#45;&gt;Node2</title>
<path fill="none" stroke="#191970" d="M145.154,-110.2808C139.6706,-101.8448 132.6743,-91.0813 126.8435,-82.1107"/>
<polygon fill="#191970" stroke="#191970" points="129.6857,-80.0612 121.3012,-73.5842 123.8166,-83.8761 129.6857,-80.0612"/>
</g>
</g>
</svg>
