<?xml version="1.0" encoding="UTF-8" standalone="no"?>
<!DOCTYPE svg PUBLIC "-//W3C//DTD SVG 1.1//EN"
 "http://www.w3.org/Graphics/SVG/1.1/DTD/svg11.dtd">
<!-- Generated by graphviz version 2.40.1 (20161225.0304)
 -->
<!-- Title: BlockWitnessMerkleRoot Pages: 1 -->
<svg width="386pt" height="64pt"
 viewBox="0.00 0.00 386.44 64.00" xmlns="http://www.w3.org/2000/svg" xmlns:xlink="http://www.w3.org/1999/xlink">
<g id="graph0" class="graph" transform="scale(1 1) rotate(0) translate(4 60)">
<title>BlockWitnessMerkleRoot</title>
<polygon fill="#ffffff" stroke="transparent" points="-4,4 -4,-60 382.4375,-60 382.4375,4 -4,4"/>
<!-- Node4 -->
<g id="node1" class="node">
<title>Node4</title>
<polygon fill="#bfbfbf" stroke="#000000" points="0,-18.5 0,-36.5 127.1426,-36.5 127.1426,-18.5 0,-18.5"/>
<text text-anchor="middle" x="63.5713" y="-24.5" font-family="Helvetica,sans-Serif" font-size="10.00" fill="#000000">BlockWitnessMerkleRoot</text>
</g>
<!-- Node5 -->
<g id="node2" class="node">
<title>Node5</title>
<g id="a_node2"><a xlink:href="classbase__blob.html#aa340be5328d911272eded433d03f30a3" target="_top" xlink:title="base_blob::SetNull">
<polygon fill="#ffffff" stroke="#000000" points="167.022,-37.5 167.022,-55.5 266.9673,-55.5 266.9673,-37.5 167.022,-37.5"/>
<text text-anchor="middle" x="216.9946" y="-43.5" font-family="Helvetica,sans-Serif" font-size="10.00" fill="#000000">base_blob::SetNull</text>
</a>
</g>
</g>
<!-- Node4&#45;&gt;Node5 -->
<g id="edge1" class="edge">
<title>Node4&#45;&gt;Node5</title>
<path fill="none" stroke="#191970" d="M127.3037,-35.3926C137.0804,-36.6034 147.1467,-37.85 156.8425,-39.0507"/>
<polygon fill="#191970" stroke="#191970" points="156.4303,-42.5263 166.7846,-40.282 157.2906,-35.5794 156.4303,-42.5263"/>
</g>
<!-- Node6 -->
<g id="node3" class="node">
<title>Node6</title>
<g id="a_node3"><a xlink:href="merkle_8cpp.html#a51ec3e995dfb6e2625e69443d11a3e8b" target="_top" xlink:title="ComputeMerkleRoot">
<polygon fill="#ffffff" stroke="#000000" points="163.1426,-.5 163.1426,-18.5 270.8467,-18.5 270.8467,-.5 163.1426,-.5"/>
<text text-anchor="middle" x="216.9946" y="-6.5" font-family="Helvetica,sans-Serif" font-size="10.00" fill="#000000">ComputeMerkleRoot</text>
</a>
</g>
</g>
<!-- Node4&#45;&gt;Node6 -->
<g id="edge2" class="edge">
<title>Node4&#45;&gt;Node6</title>
<path fill="none" stroke="#191970" d="M127.3037,-20.0228C135.7322,-19.0339 144.3761,-18.0198 152.8121,-17.0301"/>
<polygon fill="#191970" stroke="#191970" points="153.4467,-20.4797 162.9707,-15.8382 152.631,-13.5274 153.4467,-20.4797"/>
</g>
<!-- Node7 -->
<g id="node4" class="node">
<title>Node7</title>
<g id="a_node4"><a xlink:href="sha256_8cpp.html#a9477746efccf75568e463e17fe77fb96" target="_top" xlink:title="Compute multiple double&#45;SHA256&#39;s of 64&#45;byte blobs. ">
<polygon fill="#ffffff" stroke="#000000" points="306.8467,-.5 306.8467,-18.5 378.4375,-18.5 378.4375,-.5 306.8467,-.5"/>
<text text-anchor="middle" x="342.6421" y="-6.5" font-family="Helvetica,sans-Serif" font-size="10.00" fill="#000000">SHA256D64</text>
</a>
</g>
</g>
<!-- Node6&#45;&gt;Node7 -->
<g id="edge3" class="edge">
<title>Node6&#45;&gt;Node7</title>
<path fill="none" stroke="#191970" d="M271.0097,-9.5C279.5213,-9.5 288.253,-9.5 296.563,-9.5"/>
<polygon fill="#191970" stroke="#191970" points="296.8153,-13.0001 306.8152,-9.5 296.8152,-6.0001 296.8153,-13.0001"/>
</g>
</g>
</svg>
