<?xml version="1.0" encoding="UTF-8" standalone="no"?>
<!DOCTYPE svg PUBLIC "-//W3C//DTD SVG 1.1//EN"
 "http://www.w3.org/Graphics/SVG/1.1/DTD/svg11.dtd">
<!-- Generated by graphviz version 2.40.1 (20161225.0304)
 -->
<!-- Title: tinyformat::format Pages: 1 -->
<svg width="344pt" height="101pt"
 viewBox="0.00 0.00 344.19 101.00" xmlns="http://www.w3.org/2000/svg" xmlns:xlink="http://www.w3.org/1999/xlink">
<g id="graph0" class="graph" transform="scale(1 1) rotate(0) translate(4 97)">
<title>tinyformat::format</title>
<polygon fill="#ffffff" stroke="transparent" points="-4,4 -4,-97 340.1914,-97 340.1914,4 -4,4"/>
<!-- Node9 -->
<g id="node1" class="node">
<title>Node9</title>
<polygon fill="#bfbfbf" stroke="#000000" points="0,-37.5 0,-55.5 93.7979,-55.5 93.7979,-37.5 0,-37.5"/>
<text text-anchor="middle" x="46.8989" y="-43.5" font-family="Helvetica,sans-Serif" font-size="10.00" fill="#000000">tinyformat::format</text>
</g>
<!-- Node10 -->
<g id="node2" class="node">
<title>Node10</title>
<g id="a_node2"><a xlink:href="namespacetinyformat.html#aa2768ebf94f6989dfcea052b3d3f9b9f" target="_top" xlink:title="Format list of arguments according to the given format string and return the result as a string...">
<polygon fill="#ffffff" stroke="#000000" points="130.6353,-74.5 130.6353,-92.5 224.4331,-92.5 224.4331,-74.5 130.6353,-74.5"/>
<text text-anchor="middle" x="177.5342" y="-80.5" font-family="Helvetica,sans-Serif" font-size="10.00" fill="#000000">tinyformat::format</text>
</a>
</g>
</g>
<!-- Node9&#45;&gt;Node10 -->
<g id="edge1" class="edge">
<title>Node9&#45;&gt;Node10</title>
<path fill="none" stroke="#191970" d="M88.7286,-58.3475C107.1098,-63.5536 128.3539,-69.5706 145.4544,-74.414"/>
<polygon fill="#191970" stroke="#191970" points="89.4312,-54.9089 78.8559,-55.5512 87.5236,-61.6439 89.4312,-54.9089"/>
</g>
<!-- Node11 -->
<g id="node3" class="node">
<title>Node11</title>
<g id="a_node3"><a xlink:href="namespacetinyformat.html#a72cec9a050602495fc65c8f321e43478" target="_top" xlink:title="Format list of arguments to std::cout, according to the given format string. ">
<polygon fill="#ffffff" stroke="#000000" points="133.6895,-37.5 133.6895,-55.5 221.3789,-55.5 221.3789,-37.5 133.6895,-37.5"/>
<text text-anchor="middle" x="177.5342" y="-43.5" font-family="Helvetica,sans-Serif" font-size="10.00" fill="#000000">tinyformat::printf</text>
</a>
</g>
</g>
<!-- Node9&#45;&gt;Node11 -->
<g id="edge2" class="edge">
<title>Node9&#45;&gt;Node11</title>
<path fill="none" stroke="#191970" d="M104.1752,-46.5C114.0026,-46.5 124.0767,-46.5 133.4892,-46.5"/>
<polygon fill="#191970" stroke="#191970" points="104.0613,-43.0001 94.0613,-46.5 104.0612,-50.0001 104.0613,-43.0001"/>
</g>
<!-- Node13 -->
<g id="node5" class="node">
<title>Node13</title>
<g id="a_node5"><a xlink:href="namespacetinyformat.html#a3621ecff051629bf09d87813104568eb" target="_top" xlink:title="tinyformat::printfln">
<polygon fill="#ffffff" stroke="#000000" points="129.7979,-.5 129.7979,-18.5 225.2705,-18.5 225.2705,-.5 129.7979,-.5"/>
<text text-anchor="middle" x="177.5342" y="-6.5" font-family="Helvetica,sans-Serif" font-size="10.00" fill="#000000">tinyformat::printfln</text>
</a>
</g>
</g>
<!-- Node9&#45;&gt;Node13 -->
<g id="edge4" class="edge">
<title>Node9&#45;&gt;Node13</title>
<path fill="none" stroke="#191970" d="M88.7286,-34.6525C107.1098,-29.4464 128.3539,-23.4294 145.4544,-18.586"/>
<polygon fill="#191970" stroke="#191970" points="87.5236,-31.3561 78.8559,-37.4488 89.4312,-38.0911 87.5236,-31.3561"/>
</g>
<!-- Node12 -->
<g id="node4" class="node">
<title>Node12</title>
<g id="a_node4"><a xlink:href="secp256k1_2src_2bench_8h.html#aa394e0046305c3b181f7d7cebf5f7683" target="_top" xlink:title="print_number">
<polygon fill="#ffffff" stroke="#000000" points="261.2705,-37.5 261.2705,-55.5 336.1914,-55.5 336.1914,-37.5 261.2705,-37.5"/>
<text text-anchor="middle" x="298.731" y="-43.5" font-family="Helvetica,sans-Serif" font-size="10.00" fill="#000000">print_number</text>
</a>
</g>
</g>
<!-- Node11&#45;&gt;Node12 -->
<g id="edge3" class="edge">
<title>Node11&#45;&gt;Node12</title>
<path fill="none" stroke="#191970" d="M231.8557,-46.5C241.7891,-46.5 251.9499,-46.5 261.2549,-46.5"/>
<polygon fill="#191970" stroke="#191970" points="231.6319,-43.0001 221.6318,-46.5 231.6318,-50.0001 231.6319,-43.0001"/>
</g>
</g>
</svg>
