<?xml version="1.0" encoding="UTF-8" standalone="no"?>
<!DOCTYPE svg PUBLIC "-//W3C//DTD SVG 1.1//EN"
 "http://www.w3.org/Graphics/SVG/1.1/DTD/svg11.dtd">
<!-- Generated by graphviz version 2.40.1 (20161225.0304)
 -->
<!-- Title: GUIUtil::isDust Pages: 1 -->
<svg width="400pt" height="37pt"
 viewBox="0.00 0.00 399.80 37.00" xmlns="http://www.w3.org/2000/svg" xmlns:xlink="http://www.w3.org/1999/xlink">
<g id="graph0" class="graph" transform="scale(1 1) rotate(0) translate(4 33)">
<title>GUIUtil::isDust</title>
<polygon fill="#ffffff" stroke="transparent" points="-4,4 -4,-33 395.7969,-33 395.7969,4 -4,4"/>
<!-- Node246 -->
<g id="node1" class="node">
<title>Node246</title>
<polygon fill="#bfbfbf" stroke="#000000" points="0,-5.5 0,-23.5 81.5615,-23.5 81.5615,-5.5 0,-5.5"/>
<text text-anchor="middle" x="40.7808" y="-11.5" font-family="Helvetica,sans-Serif" font-size="10.00" fill="#000000">GUIUtil::isDust</text>
</g>
<!-- Node247 -->
<g id="node2" class="node">
<title>Node247</title>
<g id="a_node2"><a xlink:href="class_send_coins_entry.html#ad525c91a9eee6f73a79267d2df487fb9" target="_top" xlink:title="SendCoinsEntry::validate">
<polygon fill="#ffffff" stroke="#000000" points="117.5615,-5.5 117.5615,-23.5 245.8467,-23.5 245.8467,-5.5 117.5615,-5.5"/>
<text text-anchor="middle" x="181.7041" y="-11.5" font-family="Helvetica,sans-Serif" font-size="10.00" fill="#000000">SendCoinsEntry::validate</text>
</a>
</g>
</g>
<!-- Node246&#45;&gt;Node247 -->
<g id="edge1" class="edge">
<title>Node246&#45;&gt;Node247</title>
<path fill="none" stroke="#191970" d="M92.1098,-14.5C100.3428,-14.5 108.9528,-14.5 117.4419,-14.5"/>
<polygon fill="#191970" stroke="#191970" points="91.9205,-11.0001 81.9205,-14.5 91.9204,-18.0001 91.9205,-11.0001"/>
</g>
<!-- Node248 -->
<g id="node3" class="node">
<title>Node248</title>
<g id="a_node3"><a xlink:href="class_send_coins_dialog.html#a2cab7cf9ea5040b9e2189297f7d3c764" target="_top" xlink:title="SendCoinsDialog::on\l_sendButton_clicked">
<polygon fill="#ffffff" stroke="#000000" points="281.8467,-.5 281.8467,-28.5 391.7969,-28.5 391.7969,-.5 281.8467,-.5"/>
<text text-anchor="start" x="289.8467" y="-16.5" font-family="Helvetica,sans-Serif" font-size="10.00" fill="#000000">SendCoinsDialog::on</text>
<text text-anchor="middle" x="336.8218" y="-6.5" font-family="Helvetica,sans-Serif" font-size="10.00" fill="#000000">_sendButton_clicked</text>
</a>
</g>
</g>
<!-- Node247&#45;&gt;Node248 -->
<g id="edge2" class="edge">
<title>Node247&#45;&gt;Node248</title>
<path fill="none" stroke="#191970" d="M256.1874,-14.5C264.7874,-14.5 273.4379,-14.5 281.7151,-14.5"/>
<polygon fill="#191970" stroke="#191970" points="256.1404,-11.0001 246.1404,-14.5 256.1403,-18.0001 256.1404,-11.0001"/>
</g>
</g>
</svg>
