<?xml version="1.0" encoding="UTF-8" standalone="no"?>
<!DOCTYPE svg PUBLIC "-//W3C//DTD SVG 1.1//EN"
 "http://www.w3.org/Graphics/SVG/1.1/DTD/svg11.dtd">
<!-- Generated by graphviz version 2.40.1 (20161225.0304)
 -->
<!-- Title: GUIUtil::openDebugLogfile Pages: 1 -->
<svg width="322pt" height="64pt"
 viewBox="0.00 0.00 322.24 64.00" xmlns="http://www.w3.org/2000/svg" xmlns:xlink="http://www.w3.org/1999/xlink">
<g id="graph0" class="graph" transform="scale(1 1) rotate(0) translate(4 60)">
<title>GUIUtil::openDebugLogfile</title>
<polygon fill="#ffffff" stroke="transparent" points="-4,4 -4,-60 318.2354,-60 318.2354,4 -4,4"/>
<!-- Node266 -->
<g id="node1" class="node">
<title>Node266</title>
<polygon fill="#bfbfbf" stroke="#000000" points="0,-18.5 0,-36.5 134.96,-36.5 134.96,-18.5 0,-18.5"/>
<text text-anchor="middle" x="67.48" y="-24.5" font-family="Helvetica,sans-Serif" font-size="10.00" fill="#000000">GUIUtil::openDebugLogfile</text>
</g>
<!-- Node267 -->
<g id="node2" class="node">
<title>Node267</title>
<g id="a_node2"><a xlink:href="util_8cpp.html#a7ebe0bd091f7334aaead43904601e008" target="_top" xlink:title="GetDataDir">
<polygon fill="#ffffff" stroke="#000000" points="209.5903,-37.5 209.5903,-55.5 275.605,-55.5 275.605,-37.5 209.5903,-37.5"/>
<text text-anchor="middle" x="242.5977" y="-43.5" font-family="Helvetica,sans-Serif" font-size="10.00" fill="#000000">GetDataDir</text>
</a>
</g>
</g>
<!-- Node266&#45;&gt;Node267 -->
<g id="edge1" class="edge">
<title>Node266&#45;&gt;Node267</title>
<path fill="none" stroke="#191970" d="M135.185,-34.8459C156.7232,-37.1827 179.9531,-39.7032 199.2816,-41.8003"/>
<polygon fill="#191970" stroke="#191970" points="198.9731,-45.2873 209.2923,-42.8864 199.7282,-38.3281 198.9731,-45.2873"/>
</g>
<!-- Node268 -->
<g id="node3" class="node">
<title>Node268</title>
<g id="a_node3"><a xlink:href="namespace_g_u_i_util.html#a82887fd3dd003600d4e30dc07ee866d2" target="_top" xlink:title="GUIUtil::boostPathToQString">
<polygon fill="#ffffff" stroke="#000000" points="170.96,-.5 170.96,-18.5 314.2354,-18.5 314.2354,-.5 170.96,-.5"/>
<text text-anchor="middle" x="242.5977" y="-6.5" font-family="Helvetica,sans-Serif" font-size="10.00" fill="#000000">GUIUtil::boostPathToQString</text>
</a>
</g>
</g>
<!-- Node266&#45;&gt;Node268 -->
<g id="edge2" class="edge">
<title>Node266&#45;&gt;Node268</title>
<path fill="none" stroke="#191970" d="M135.185,-20.5407C143.5555,-19.6804 152.1814,-18.7937 160.7346,-17.9145"/>
<polygon fill="#191970" stroke="#191970" points="161.1325,-21.3922 170.7221,-16.8879 160.4166,-14.4289 161.1325,-21.3922"/>
</g>
</g>
</svg>
