<?xml version="1.0" encoding="UTF-8" standalone="no"?>
<!DOCTYPE svg PUBLIC "-//W3C//DTD SVG 1.1//EN"
 "http://www.w3.org/Graphics/SVG/1.1/DTD/svg11.dtd">
<!-- Generated by graphviz version 2.40.1 (20161225.0304)
 -->
<!-- Title: GUIUtil::parseBitcoinURI Pages: 1 -->
<svg width="296pt" height="64pt"
 viewBox="0.00 0.00 296.06 64.00" xmlns="http://www.w3.org/2000/svg" xmlns:xlink="http://www.w3.org/1999/xlink">
<g id="graph0" class="graph" transform="scale(1 1) rotate(0) translate(4 60)">
<title>GUIUtil::parseBitcoinURI</title>
<polygon fill="#ffffff" stroke="transparent" points="-4,4 -4,-60 292.0586,-60 292.0586,4 -4,4"/>
<!-- Node276 -->
<g id="node1" class="node">
<title>Node276</title>
<polygon fill="#bfbfbf" stroke="#000000" points="0,-18.5 0,-36.5 126.0293,-36.5 126.0293,-18.5 0,-18.5"/>
<text text-anchor="middle" x="63.0146" y="-24.5" font-family="Helvetica,sans-Serif" font-size="10.00" fill="#000000">GUIUtil::parseBitcoinURI</text>
</g>
<!-- Node277 -->
<g id="node2" class="node">
<title>Node277</title>
<g id="a_node2"><a xlink:href="namespace_g_u_i_util.html#a8f3da194579b804909f4ffc73c77fd9e" target="_top" xlink:title="GUIUtil::parseBitcoinURI">
<polygon fill="#ffffff" stroke="#000000" points="162.0293,-37.5 162.0293,-55.5 288.0586,-55.5 288.0586,-37.5 162.0293,-37.5"/>
<text text-anchor="middle" x="225.0439" y="-43.5" font-family="Helvetica,sans-Serif" font-size="10.00" fill="#000000">GUIUtil::parseBitcoinURI</text>
</a>
</g>
</g>
<!-- Node276&#45;&gt;Node277 -->
<g id="edge1" class="edge">
<title>Node276&#45;&gt;Node277</title>
<path fill="none" stroke="#191970" d="M136.1216,-36.0727C144.7053,-37.0793 153.4085,-38.0998 161.8409,-39.0886"/>
<polygon fill="#191970" stroke="#191970" points="136.463,-32.5889 126.1234,-34.9003 135.6477,-39.5412 136.463,-32.5889"/>
</g>
<!-- Node278 -->
<g id="node3" class="node">
<title>Node278</title>
<g id="a_node3"><a xlink:href="class_open_u_r_i_dialog.html#a3c0c5b376623e9570cc17e23778c239c" target="_top" xlink:title="OpenURIDialog::accept">
<polygon fill="#ffffff" stroke="#000000" points="164.5171,-.5 164.5171,-18.5 285.5708,-18.5 285.5708,-.5 164.5171,-.5"/>
<text text-anchor="middle" x="225.0439" y="-6.5" font-family="Helvetica,sans-Serif" font-size="10.00" fill="#000000">OpenURIDialog::accept</text>
</a>
</g>
</g>
<!-- Node276&#45;&gt;Node278 -->
<g id="edge2" class="edge">
<title>Node276&#45;&gt;Node278</title>
<path fill="none" stroke="#191970" d="M136.2827,-19.3606C145.7191,-18.3123 155.2969,-17.2483 164.4978,-16.2261"/>
<polygon fill="#191970" stroke="#191970" points="135.6758,-15.9064 126.1234,-20.4892 136.4487,-22.8636 135.6758,-15.9064"/>
</g>
</g>
</svg>
