<?xml version="1.0" encoding="UTF-8" standalone="no"?>
<!DOCTYPE svg PUBLIC "-//W3C//DTD SVG 1.1//EN"
 "http://www.w3.org/Graphics/SVG/1.1/DTD/svg11.dtd">
<!-- Generated by graphviz version 2.40.1 (20161225.0304)
 -->
<!-- Title: tinyformat::printf Pages: 1 -->
<svg width="841pt" height="131pt"
 viewBox="0.00 0.00 840.86 131.00" xmlns="http://www.w3.org/2000/svg" xmlns:xlink="http://www.w3.org/1999/xlink">
<g id="graph0" class="graph" transform="scale(1 1) rotate(0) translate(4 127)">
<title>tinyformat::printf</title>
<polygon fill="#ffffff" stroke="transparent" points="-4,4 -4,-127 836.8604,-127 836.8604,4 -4,4"/>
<!-- Node47 -->
<g id="node1" class="node">
<title>Node47</title>
<polygon fill="#bfbfbf" stroke="#000000" points="0,-33.5 0,-51.5 87.6895,-51.5 87.6895,-33.5 0,-33.5"/>
<text text-anchor="middle" x="43.8447" y="-39.5" font-family="Helvetica,sans-Serif" font-size="10.00" fill="#000000">tinyformat::printf</text>
</g>
<!-- Node48 -->
<g id="node2" class="node">
<title>Node48</title>
<g id="a_node2"><a xlink:href="namespacetinyformat.html#a05144619d8b16e2b31b2594ca9c6bf1d" target="_top" xlink:title="Format list of arguments to the stream according to given format string. ">
<polygon fill="#ffffff" stroke="#000000" points="123.6895,-33.5 123.6895,-51.5 217.4873,-51.5 217.4873,-33.5 123.6895,-33.5"/>
<text text-anchor="middle" x="170.5884" y="-39.5" font-family="Helvetica,sans-Serif" font-size="10.00" fill="#000000">tinyformat::format</text>
</a>
</g>
</g>
<!-- Node47&#45;&gt;Node48 -->
<g id="edge1" class="edge">
<title>Node47&#45;&gt;Node48</title>
<path fill="none" stroke="#191970" d="M87.8178,-42.5C96.1428,-42.5 104.962,-42.5 113.6202,-42.5"/>
<polygon fill="#191970" stroke="#191970" points="113.6709,-46.0001 123.6709,-42.5 113.6708,-39.0001 113.6709,-46.0001"/>
</g>
<!-- Node49 -->
<g id="node3" class="node">
<title>Node49</title>
<g id="a_node3"><a xlink:href="namespacetinyformat.html#a86ed74eb3ed66a662e96220d877da964" target="_top" xlink:title="Format list of arguments to the stream according to the given format string. ">
<polygon fill="#ffffff" stroke="#000000" points="272.6597,-52.5 272.6597,-70.5 371.4575,-70.5 371.4575,-52.5 272.6597,-52.5"/>
<text text-anchor="middle" x="322.0586" y="-58.5" font-family="Helvetica,sans-Serif" font-size="10.00" fill="#000000">tinyformat::vformat</text>
</a>
</g>
</g>
<!-- Node48&#45;&gt;Node49 -->
<g id="edge2" class="edge">
<title>Node48&#45;&gt;Node49</title>
<path fill="none" stroke="#191970" d="M217.6842,-48.4076C231.867,-50.1866 247.6213,-52.1628 262.5015,-54.0293"/>
<polygon fill="#191970" stroke="#191970" points="262.2756,-57.5283 272.6335,-55.3003 263.1469,-50.5828 262.2756,-57.5283"/>
</g>
<!-- Node56 -->
<g id="node10" class="node">
<title>Node56</title>
<g id="a_node10"><a xlink:href="namespacetinyformat.html#a37afaa5249c69dacd619269358f06f69" target="_top" xlink:title="Make type&#45;agnostic format list from list of template arguments. ">
<polygon fill="#ffffff" stroke="#000000" points="253.4873,-15.5 253.4873,-33.5 390.6299,-33.5 390.6299,-15.5 253.4873,-15.5"/>
<text text-anchor="middle" x="322.0586" y="-21.5" font-family="Helvetica,sans-Serif" font-size="10.00" fill="#000000">tinyformat::makeFormatList</text>
</a>
</g>
</g>
<!-- Node48&#45;&gt;Node56 -->
<g id="edge9" class="edge">
<title>Node48&#45;&gt;Node56</title>
<path fill="none" stroke="#191970" d="M217.6842,-36.9034C225.7987,-35.9391 234.4277,-34.9136 243.113,-33.8815"/>
<polygon fill="#191970" stroke="#191970" points="243.7903,-37.3258 253.3073,-32.6701 242.9642,-30.3747 243.7903,-37.3258"/>
</g>
<!-- Node50 -->
<g id="node4" class="node">
<title>Node50</title>
<g id="a_node4"><a xlink:href="namespacetinyformat_1_1detail.html#a079a316938c0e8693efbeb0183b1390d" target="_top" xlink:title="tinyformat::detail\l::formatImpl">
<polygon fill="#ffffff" stroke="#000000" points="426.6299,-47.5 426.6299,-75.5 515.9941,-75.5 515.9941,-47.5 426.6299,-47.5"/>
<text text-anchor="start" x="434.6299" y="-63.5" font-family="Helvetica,sans-Serif" font-size="10.00" fill="#000000">tinyformat::detail</text>
<text text-anchor="middle" x="471.312" y="-53.5" font-family="Helvetica,sans-Serif" font-size="10.00" fill="#000000">::formatImpl</text>
</a>
</g>
</g>
<!-- Node49&#45;&gt;Node50 -->
<g id="edge3" class="edge">
<title>Node49&#45;&gt;Node50</title>
<path fill="none" stroke="#191970" d="M371.7578,-61.5C385.9513,-61.5 401.504,-61.5 416.0104,-61.5"/>
<polygon fill="#191970" stroke="#191970" points="416.354,-65.0001 426.354,-61.5 416.3539,-58.0001 416.354,-65.0001"/>
</g>
<!-- Node51 -->
<g id="node5" class="node">
<title>Node51</title>
<g id="a_node5"><a xlink:href="namespacetinyformat_1_1detail.html#ad3d636b9f85202b515c8940b7fcb62a6" target="_top" xlink:title="tinyformat::detail\l::printFormatStringLiteral">
<polygon fill="#ffffff" stroke="#000000" points="554.2085,-94.5 554.2085,-122.5 680.2476,-122.5 680.2476,-94.5 554.2085,-94.5"/>
<text text-anchor="start" x="562.2085" y="-110.5" font-family="Helvetica,sans-Serif" font-size="10.00" fill="#000000">tinyformat::detail</text>
<text text-anchor="middle" x="617.228" y="-100.5" font-family="Helvetica,sans-Serif" font-size="10.00" fill="#000000">::printFormatStringLiteral</text>
</a>
</g>
</g>
<!-- Node50&#45;&gt;Node51 -->
<g id="edge4" class="edge">
<title>Node50&#45;&gt;Node51</title>
<path fill="none" stroke="#191970" d="M515.0916,-75.6015C530.4551,-80.5502 547.8853,-86.1645 563.9418,-91.3363"/>
<polygon fill="#191970" stroke="#191970" points="563.1394,-94.7549 573.7309,-94.4894 565.2856,-88.092 563.1394,-94.7549"/>
</g>
<!-- Node52 -->
<g id="node6" class="node">
<title>Node52</title>
<g id="a_node6"><a xlink:href="namespacetinyformat_1_1detail.html#a681e8ceb825485cc5e3b057c11e4b1b5" target="_top" xlink:title="tinyformat::detail\l::streamStateFromFormat">
<polygon fill="#ffffff" stroke="#000000" points="551.9941,-47.5 551.9941,-75.5 682.4619,-75.5 682.4619,-47.5 551.9941,-47.5"/>
<text text-anchor="start" x="559.9941" y="-63.5" font-family="Helvetica,sans-Serif" font-size="10.00" fill="#000000">tinyformat::detail</text>
<text text-anchor="middle" x="617.228" y="-53.5" font-family="Helvetica,sans-Serif" font-size="10.00" fill="#000000">::streamStateFromFormat</text>
</a>
</g>
</g>
<!-- Node50&#45;&gt;Node52 -->
<g id="edge5" class="edge">
<title>Node50&#45;&gt;Node52</title>
<path fill="none" stroke="#191970" d="M516.2823,-61.5C524.3472,-61.5 532.95,-61.5 541.6029,-61.5"/>
<polygon fill="#191970" stroke="#191970" points="541.7544,-65.0001 551.7544,-61.5 541.7543,-58.0001 541.7544,-65.0001"/>
</g>
<!-- Node55 -->
<g id="node9" class="node">
<title>Node55</title>
<g id="a_node9"><a xlink:href="classtinyformat_1_1detail_1_1_format_arg.html#acbf435711bbe4a4da7fc81758d7108a9" target="_top" xlink:title="tinyformat::detail\l::FormatArg::format">
<polygon fill="#ffffff" stroke="#000000" points="565.8857,-.5 565.8857,-28.5 668.5703,-28.5 668.5703,-.5 565.8857,-.5"/>
<text text-anchor="start" x="573.8857" y="-16.5" font-family="Helvetica,sans-Serif" font-size="10.00" fill="#000000">tinyformat::detail</text>
<text text-anchor="middle" x="617.228" y="-6.5" font-family="Helvetica,sans-Serif" font-size="10.00" fill="#000000">::FormatArg::format</text>
</a>
</g>
</g>
<!-- Node50&#45;&gt;Node55 -->
<g id="edge8" class="edge">
<title>Node50&#45;&gt;Node55</title>
<path fill="none" stroke="#191970" d="M515.0916,-47.3985C530.4551,-42.4498 547.8853,-36.8355 563.9418,-31.6637"/>
<polygon fill="#191970" stroke="#191970" points="565.2856,-34.908 573.7309,-28.5106 563.1394,-28.2451 565.2856,-34.908"/>
</g>
<!-- Node53 -->
<g id="node7" class="node">
<title>Node53</title>
<g id="a_node7"><a xlink:href="namespacetinyformat_1_1detail.html#a67285e0adb9f4164f9fc30a3eb11c771" target="_top" xlink:title="tinyformat::detail\l::parseIntAndAdvance">
<polygon fill="#ffffff" stroke="#000000" points="718.4619,-70.5 718.4619,-98.5 832.8604,-98.5 832.8604,-70.5 718.4619,-70.5"/>
<text text-anchor="start" x="726.4619" y="-86.5" font-family="Helvetica,sans-Serif" font-size="10.00" fill="#000000">tinyformat::detail</text>
<text text-anchor="middle" x="775.6611" y="-76.5" font-family="Helvetica,sans-Serif" font-size="10.00" fill="#000000">::parseIntAndAdvance</text>
</a>
</g>
</g>
<!-- Node52&#45;&gt;Node53 -->
<g id="edge6" class="edge">
<title>Node52&#45;&gt;Node53</title>
<path fill="none" stroke="#191970" d="M682.5835,-70.9878C691.0994,-72.224 699.8359,-73.4923 708.3826,-74.7331"/>
<polygon fill="#191970" stroke="#191970" points="707.9048,-78.2003 718.3039,-76.1734 708.9105,-71.2729 707.9048,-78.2003"/>
</g>
<!-- Node54 -->
<g id="node8" class="node">
<title>Node54</title>
<g id="a_node8"><a xlink:href="classtinyformat_1_1detail_1_1_format_arg.html#a91b69f66ce9dc8ca2914dce8985d7a1a" target="_top" xlink:title="tinyformat::detail\l::FormatArg::toInt">
<polygon fill="#ffffff" stroke="#000000" points="728.7598,-23.5 728.7598,-51.5 822.5625,-51.5 822.5625,-23.5 728.7598,-23.5"/>
<text text-anchor="start" x="736.7598" y="-39.5" font-family="Helvetica,sans-Serif" font-size="10.00" fill="#000000">tinyformat::detail</text>
<text text-anchor="middle" x="775.6611" y="-29.5" font-family="Helvetica,sans-Serif" font-size="10.00" fill="#000000">::FormatArg::toInt</text>
</a>
</g>
</g>
<!-- Node52&#45;&gt;Node54 -->
<g id="edge7" class="edge">
<title>Node52&#45;&gt;Node54</title>
<path fill="none" stroke="#191970" d="M682.5835,-51.5997C694.4504,-49.8021 706.7455,-47.9396 718.3587,-46.1804"/>
<polygon fill="#191970" stroke="#191970" points="718.9977,-49.6236 728.3607,-44.6652 717.9492,-42.7025 718.9977,-49.6236"/>
</g>
</g>
</svg>
