<?xml version="1.0" encoding="UTF-8" standalone="no"?>
<!DOCTYPE svg PUBLIC "-//W3C//DTD SVG 1.1//EN"
 "http://www.w3.org/Graphics/SVG/1.1/DTD/svg11.dtd">
<!-- Generated by graphviz version 2.40.1 (20161225.0304)
 -->
<!-- Title: tinyformat::detail::formatImpl Pages: 1 -->
<svg width="414pt" height="131pt"
 viewBox="0.00 0.00 414.23 131.00" xmlns="http://www.w3.org/2000/svg" xmlns:xlink="http://www.w3.org/1999/xlink">
<g id="graph0" class="graph" transform="scale(1 1) rotate(0) translate(4 127)">
<title>tinyformat::detail::formatImpl</title>
<polygon fill="#ffffff" stroke="transparent" points="-4,4 -4,-127 410.2305,-127 410.2305,4 -4,4"/>
<!-- Node0 -->
<g id="node1" class="node">
<title>Node0</title>
<polygon fill="#bfbfbf" stroke="#000000" points="0,-47.5 0,-75.5 89.3643,-75.5 89.3643,-47.5 0,-47.5"/>
<text text-anchor="start" x="8" y="-63.5" font-family="Helvetica,sans-Serif" font-size="10.00" fill="#000000">tinyformat::detail</text>
<text text-anchor="middle" x="44.6821" y="-53.5" font-family="Helvetica,sans-Serif" font-size="10.00" fill="#000000">::formatImpl</text>
</g>
<!-- Node1 -->
<g id="node2" class="node">
<title>Node1</title>
<g id="a_node2"><a xlink:href="namespacetinyformat_1_1detail.html#ad3d636b9f85202b515c8940b7fcb62a6" target="_top" xlink:title="tinyformat::detail\l::printFormatStringLiteral">
<polygon fill="#ffffff" stroke="#000000" points="127.5786,-94.5 127.5786,-122.5 253.6177,-122.5 253.6177,-94.5 127.5786,-94.5"/>
<text text-anchor="start" x="135.5786" y="-110.5" font-family="Helvetica,sans-Serif" font-size="10.00" fill="#000000">tinyformat::detail</text>
<text text-anchor="middle" x="190.5981" y="-100.5" font-family="Helvetica,sans-Serif" font-size="10.00" fill="#000000">::printFormatStringLiteral</text>
</a>
</g>
</g>
<!-- Node0&#45;&gt;Node1 -->
<g id="edge1" class="edge">
<title>Node0&#45;&gt;Node1</title>
<path fill="none" stroke="#191970" d="M88.4617,-75.6015C103.8252,-80.5502 121.2555,-86.1645 137.3119,-91.3363"/>
<polygon fill="#191970" stroke="#191970" points="136.5095,-94.7549 147.101,-94.4894 138.6557,-88.092 136.5095,-94.7549"/>
</g>
<!-- Node2 -->
<g id="node3" class="node">
<title>Node2</title>
<g id="a_node3"><a xlink:href="namespacetinyformat_1_1detail.html#a681e8ceb825485cc5e3b057c11e4b1b5" target="_top" xlink:title="tinyformat::detail\l::streamStateFromFormat">
<polygon fill="#ffffff" stroke="#000000" points="125.3643,-47.5 125.3643,-75.5 255.832,-75.5 255.832,-47.5 125.3643,-47.5"/>
<text text-anchor="start" x="133.3643" y="-63.5" font-family="Helvetica,sans-Serif" font-size="10.00" fill="#000000">tinyformat::detail</text>
<text text-anchor="middle" x="190.5981" y="-53.5" font-family="Helvetica,sans-Serif" font-size="10.00" fill="#000000">::streamStateFromFormat</text>
</a>
</g>
</g>
<!-- Node0&#45;&gt;Node2 -->
<g id="edge2" class="edge">
<title>Node0&#45;&gt;Node2</title>
<path fill="none" stroke="#191970" d="M89.6524,-61.5C97.7173,-61.5 106.3201,-61.5 114.973,-61.5"/>
<polygon fill="#191970" stroke="#191970" points="115.1245,-65.0001 125.1245,-61.5 115.1245,-58.0001 115.1245,-65.0001"/>
</g>
<!-- Node5 -->
<g id="node6" class="node">
<title>Node5</title>
<g id="a_node6"><a xlink:href="classtinyformat_1_1detail_1_1_format_arg.html#acbf435711bbe4a4da7fc81758d7108a9" target="_top" xlink:title="tinyformat::detail\l::FormatArg::format">
<polygon fill="#ffffff" stroke="#000000" points="139.2559,-.5 139.2559,-28.5 241.9404,-28.5 241.9404,-.5 139.2559,-.5"/>
<text text-anchor="start" x="147.2559" y="-16.5" font-family="Helvetica,sans-Serif" font-size="10.00" fill="#000000">tinyformat::detail</text>
<text text-anchor="middle" x="190.5981" y="-6.5" font-family="Helvetica,sans-Serif" font-size="10.00" fill="#000000">::FormatArg::format</text>
</a>
</g>
</g>
<!-- Node0&#45;&gt;Node5 -->
<g id="edge5" class="edge">
<title>Node0&#45;&gt;Node5</title>
<path fill="none" stroke="#191970" d="M88.4617,-47.3985C103.8252,-42.4498 121.2555,-36.8355 137.3119,-31.6637"/>
<polygon fill="#191970" stroke="#191970" points="138.6557,-34.908 147.101,-28.5106 136.5095,-28.2451 138.6557,-34.908"/>
</g>
<!-- Node3 -->
<g id="node4" class="node">
<title>Node3</title>
<g id="a_node4"><a xlink:href="namespacetinyformat_1_1detail.html#a67285e0adb9f4164f9fc30a3eb11c771" target="_top" xlink:title="tinyformat::detail\l::parseIntAndAdvance">
<polygon fill="#ffffff" stroke="#000000" points="291.832,-70.5 291.832,-98.5 406.2305,-98.5 406.2305,-70.5 291.832,-70.5"/>
<text text-anchor="start" x="299.832" y="-86.5" font-family="Helvetica,sans-Serif" font-size="10.00" fill="#000000">tinyformat::detail</text>
<text text-anchor="middle" x="349.0313" y="-76.5" font-family="Helvetica,sans-Serif" font-size="10.00" fill="#000000">::parseIntAndAdvance</text>
</a>
</g>
</g>
<!-- Node2&#45;&gt;Node3 -->
<g id="edge3" class="edge">
<title>Node2&#45;&gt;Node3</title>
<path fill="none" stroke="#191970" d="M255.9537,-70.9878C264.4695,-72.224 273.206,-73.4923 281.7527,-74.7331"/>
<polygon fill="#191970" stroke="#191970" points="281.2749,-78.2003 291.674,-76.1734 282.2806,-71.2729 281.2749,-78.2003"/>
</g>
<!-- Node4 -->
<g id="node5" class="node">
<title>Node4</title>
<g id="a_node5"><a xlink:href="classtinyformat_1_1detail_1_1_format_arg.html#a91b69f66ce9dc8ca2914dce8985d7a1a" target="_top" xlink:title="tinyformat::detail\l::FormatArg::toInt">
<polygon fill="#ffffff" stroke="#000000" points="302.1299,-23.5 302.1299,-51.5 395.9326,-51.5 395.9326,-23.5 302.1299,-23.5"/>
<text text-anchor="start" x="310.1299" y="-39.5" font-family="Helvetica,sans-Serif" font-size="10.00" fill="#000000">tinyformat::detail</text>
<text text-anchor="middle" x="349.0313" y="-29.5" font-family="Helvetica,sans-Serif" font-size="10.00" fill="#000000">::FormatArg::toInt</text>
</a>
</g>
</g>
<!-- Node2&#45;&gt;Node4 -->
<g id="edge4" class="edge">
<title>Node2&#45;&gt;Node4</title>
<path fill="none" stroke="#191970" d="M255.9537,-51.5997C267.8205,-49.8021 280.1156,-47.9396 291.7288,-46.1804"/>
<polygon fill="#191970" stroke="#191970" points="292.3678,-49.6236 301.7308,-44.6652 291.3194,-42.7025 292.3678,-49.6236"/>
</g>
</g>
</svg>
