<?xml version="1.0" encoding="UTF-8" standalone="no"?>
<!DOCTYPE svg PUBLIC "-//W3C//DTD SVG 1.1//EN"
 "http://www.w3.org/Graphics/SVG/1.1/DTD/svg11.dtd">
<!-- Generated by graphviz version 2.40.1 (20161225.0304)
 -->
<!-- Title: GUIUtil::getSaveFileName Pages: 1 -->
<svg width="857pt" height="152pt"
 viewBox="0.00 0.00 857.24 152.00" xmlns="http://www.w3.org/2000/svg" xmlns:xlink="http://www.w3.org/1999/xlink">
<g id="graph0" class="graph" transform="scale(1 1) rotate(0) translate(4 148)">
<title>GUIUtil::getSaveFileName</title>
<polygon fill="#ffffff" stroke="transparent" points="-4,4 -4,-148 853.2441,-148 853.2441,4 -4,4"/>
<!-- Node200 -->
<g id="node1" class="node">
<title>Node200</title>
<polygon fill="#bfbfbf" stroke="#000000" points="0,-58.5 0,-76.5 133.2607,-76.5 133.2607,-58.5 0,-58.5"/>
<text text-anchor="middle" x="66.6304" y="-64.5" font-family="Helvetica,sans-Serif" font-size="10.00" fill="#000000">GUIUtil::getSaveFileName</text>
</g>
<!-- Node201 -->
<g id="node2" class="node">
<title>Node201</title>
<g id="a_node2"><a xlink:href="class_address_book_page.html#a4f1d34f71ac7d4f64d4ba6bc87ee0525" target="_top" xlink:title="Export button clicked. ">
<polygon fill="#ffffff" stroke="#000000" points="189.2632,-115.5 189.2632,-143.5 304.7749,-143.5 304.7749,-115.5 189.2632,-115.5"/>
<text text-anchor="start" x="197.2632" y="-131.5" font-family="Helvetica,sans-Serif" font-size="10.00" fill="#000000">AddressBookPage::on</text>
<text text-anchor="middle" x="247.019" y="-121.5" font-family="Helvetica,sans-Serif" font-size="10.00" fill="#000000">_exportButton_clicked</text>
</a>
</g>
</g>
<!-- Node200&#45;&gt;Node201 -->
<g id="edge1" class="edge">
<title>Node200&#45;&gt;Node201</title>
<path fill="none" stroke="#191970" d="M98.2123,-80.2094C118.3952,-88.1551 145.2032,-98.384 169.2607,-106.5 178.3314,-109.5601 188.0697,-112.6173 197.4808,-115.4573"/>
<polygon fill="#191970" stroke="#191970" points="99.4637,-76.9406 88.8776,-76.5115 96.8856,-83.4486 99.4637,-76.9406"/>
</g>
<!-- Node202 -->
<g id="node3" class="node">
<title>Node202</title>
<g id="a_node3"><a xlink:href="class_q_r_image_widget.html#a957f368bcd679206f0376931d4a58182" target="_top" xlink:title="QRImageWidget::saveImage">
<polygon fill="#ffffff" stroke="#000000" points="174.8247,-78.5 174.8247,-96.5 319.2134,-96.5 319.2134,-78.5 174.8247,-78.5"/>
<text text-anchor="middle" x="247.019" y="-84.5" font-family="Helvetica,sans-Serif" font-size="10.00" fill="#000000">QRImageWidget::saveImage</text>
</a>
</g>
</g>
<!-- Node200&#45;&gt;Node202 -->
<g id="edge2" class="edge">
<title>Node200&#45;&gt;Node202</title>
<path fill="none" stroke="#191970" d="M143.4947,-76.0221C153.8011,-77.1648 164.3449,-78.3338 174.5719,-79.4677"/>
<polygon fill="#191970" stroke="#191970" points="143.6128,-72.5138 133.2879,-74.8904 142.8413,-79.4712 143.6128,-72.5138"/>
</g>
<!-- Node205 -->
<g id="node6" class="node">
<title>Node205</title>
<g id="a_node6"><a xlink:href="class_transaction_view.html#a5983022ff1e5395f87de3c5728eff8da" target="_top" xlink:title="TransactionView::exportClicked">
<polygon fill="#ffffff" stroke="#000000" points="169.2607,-40.5 169.2607,-58.5 324.7773,-58.5 324.7773,-40.5 169.2607,-40.5"/>
<text text-anchor="middle" x="247.019" y="-46.5" font-family="Helvetica,sans-Serif" font-size="10.00" fill="#000000">TransactionView::exportClicked</text>
</a>
</g>
</g>
<!-- Node200&#45;&gt;Node205 -->
<g id="edge5" class="edge">
<title>Node200&#45;&gt;Node205</title>
<path fill="none" stroke="#191970" d="M143.5043,-59.8292C151.9617,-58.9853 160.5789,-58.1254 169.0495,-57.2802"/>
<polygon fill="#191970" stroke="#191970" points="142.891,-56.3729 133.2879,-60.8486 143.5861,-63.3383 142.891,-56.3729"/>
</g>
<!-- Node207 -->
<g id="node8" class="node">
<title>Node207</title>
<g id="a_node8"><a xlink:href="class_wallet_view.html#a9800d793b552076b4207276d9e08c8b6" target="_top" xlink:title="Backup the wallet. ">
<polygon fill="#ffffff" stroke="#000000" points="181.9512,-2.5 181.9512,-20.5 312.0869,-20.5 312.0869,-2.5 181.9512,-2.5"/>
<text text-anchor="middle" x="247.019" y="-8.5" font-family="Helvetica,sans-Serif" font-size="10.00" fill="#000000">WalletView::backupWallet</text>
</a>
</g>
</g>
<!-- Node200&#45;&gt;Node207 -->
<g id="edge7" class="edge">
<title>Node200&#45;&gt;Node207</title>
<path fill="none" stroke="#191970" d="M100.0532,-54.9617C120.0034,-47.6822 145.9201,-38.5811 169.2607,-31.5 182.1993,-27.5747 196.4966,-23.7526 209.2654,-20.5191"/>
<polygon fill="#191970" stroke="#191970" points="98.6712,-51.7407 90.4935,-58.4769 101.0871,-58.3106 98.6712,-51.7407"/>
</g>
<!-- Node203 -->
<g id="node4" class="node">
<title>Node203</title>
<g id="a_node4"><a xlink:href="class_q_r_image_widget.html#a6e4e5dbe06f17431e053d484e1f54ba9" target="_top" xlink:title="QRImageWidget::QRImageWidget">
<polygon fill="#ffffff" stroke="#000000" points="360.7773,-121.5 360.7773,-139.5 530.166,-139.5 530.166,-121.5 360.7773,-121.5"/>
<text text-anchor="middle" x="445.4717" y="-127.5" font-family="Helvetica,sans-Serif" font-size="10.00" fill="#000000">QRImageWidget::QRImageWidget</text>
</a>
</g>
</g>
<!-- Node202&#45;&gt;Node203 -->
<g id="edge3" class="edge">
<title>Node202&#45;&gt;Node203</title>
<path fill="none" stroke="#191970" d="M297.7894,-98.7361C317.4558,-103.0679 340.1596,-108.0436 360.7773,-112.5 374.4418,-115.4535 389.3556,-118.6366 402.8076,-121.4927"/>
<polygon fill="#191970" stroke="#191970" points="298.3283,-95.2709 287.8092,-96.5357 296.8211,-102.1068 298.3283,-95.2709"/>
</g>
<!-- Node204 -->
<g id="node5" class="node">
<title>Node204</title>
<g id="a_node5"><a xlink:href="class_receive_request_dialog.html#afb469cd7a503978ef5e212aa660ab950" target="_top" xlink:title="ReceiveRequestDialog\l::ReceiveRequestDialog">
<polygon fill="#ffffff" stroke="#000000" points="383.8315,-74.5 383.8315,-102.5 507.1118,-102.5 507.1118,-74.5 383.8315,-74.5"/>
<text text-anchor="start" x="391.8315" y="-90.5" font-family="Helvetica,sans-Serif" font-size="10.00" fill="#000000">ReceiveRequestDialog</text>
<text text-anchor="middle" x="445.4717" y="-80.5" font-family="Helvetica,sans-Serif" font-size="10.00" fill="#000000">::ReceiveRequestDialog</text>
</a>
</g>
</g>
<!-- Node202&#45;&gt;Node204 -->
<g id="edge4" class="edge">
<title>Node202&#45;&gt;Node204</title>
<path fill="none" stroke="#191970" d="M329.2625,-87.9144C347.5029,-88.0063 366.5325,-88.1022 383.7859,-88.1892"/>
<polygon fill="#191970" stroke="#191970" points="329.2439,-84.4144 319.2264,-87.8639 329.2086,-91.4143 329.2439,-84.4144"/>
</g>
<!-- Node206 -->
<g id="node7" class="node">
<title>Node206</title>
<g id="a_node7"><a xlink:href="class_wallet_view.html#a8c584ab249ed6d5ca68c4f936ad74161" target="_top" xlink:title="WalletView::WalletView">
<polygon fill="#ffffff" stroke="#000000" points="385.7773,-37.5 385.7773,-55.5 505.166,-55.5 505.166,-37.5 385.7773,-37.5"/>
<text text-anchor="middle" x="445.4717" y="-43.5" font-family="Helvetica,sans-Serif" font-size="10.00" fill="#000000">WalletView::WalletView</text>
</a>
</g>
</g>
<!-- Node205&#45;&gt;Node206 -->
<g id="edge6" class="edge">
<title>Node205&#45;&gt;Node206</title>
<path fill="none" stroke="#191970" d="M334.9085,-48.1714C352.0522,-47.9122 369.6533,-47.6461 385.6287,-47.4046"/>
<polygon fill="#191970" stroke="#191970" points="334.8291,-44.6721 324.8832,-48.3229 334.935,-51.6713 334.8291,-44.6721"/>
</g>
<!-- Node208 -->
<g id="node9" class="node">
<title>Node208</title>
<g id="a_node9"><a xlink:href="class_wallet_frame.html#a76aa3543635fedea052661a4cd44b81d" target="_top" xlink:title="Backup the wallet. ">
<polygon fill="#ffffff" stroke="#000000" points="376.7075,-.5 376.7075,-18.5 514.2358,-18.5 514.2358,-.5 376.7075,-.5"/>
<text text-anchor="middle" x="445.4717" y="-6.5" font-family="Helvetica,sans-Serif" font-size="10.00" fill="#000000">WalletFrame::backupWallet</text>
</a>
</g>
</g>
<!-- Node207&#45;&gt;Node208 -->
<g id="edge8" class="edge">
<title>Node207&#45;&gt;Node208</title>
<path fill="none" stroke="#191970" d="M322.5548,-10.7388C340.2555,-10.5604 359.0244,-10.3712 376.4249,-10.1959"/>
<polygon fill="#191970" stroke="#191970" points="322.2389,-7.2417 312.2747,-10.8424 322.3095,-14.2413 322.2389,-7.2417"/>
</g>
<!-- Node209 -->
<g id="node10" class="node">
<title>Node209</title>
<g id="a_node10"><a xlink:href="class_bitcoin_g_u_i.html#a7340679e1356b1bb3cfaeb64a3e93218" target="_top" xlink:title="Create the main UI actions. ">
<polygon fill="#ffffff" stroke="#000000" points="566.166,-.5 566.166,-18.5 696.1016,-18.5 696.1016,-.5 566.166,-.5"/>
<text text-anchor="middle" x="631.1338" y="-6.5" font-family="Helvetica,sans-Serif" font-size="10.00" fill="#000000">BitcoinGUI::createActions</text>
</a>
</g>
</g>
<!-- Node208&#45;&gt;Node209 -->
<g id="edge9" class="edge">
<title>Node208&#45;&gt;Node209</title>
<path fill="none" stroke="#191970" d="M524.3704,-9.5C538.2722,-9.5 552.6005,-9.5 566.0698,-9.5"/>
<polygon fill="#191970" stroke="#191970" points="524.3416,-6.0001 514.3416,-9.5 524.3415,-13.0001 524.3416,-6.0001"/>
</g>
<!-- Node210 -->
<g id="node11" class="node">
<title>Node210</title>
<g id="a_node11"><a xlink:href="class_bitcoin_g_u_i.html#a58564e8398e33db7beca224c0f71c2b6" target="_top" xlink:title="BitcoinGUI::BitcoinGUI">
<polygon fill="#ffffff" stroke="#000000" points="732.1016,-.5 732.1016,-18.5 849.2441,-18.5 849.2441,-.5 732.1016,-.5"/>
<text text-anchor="middle" x="790.6729" y="-6.5" font-family="Helvetica,sans-Serif" font-size="10.00" fill="#000000">BitcoinGUI::BitcoinGUI</text>
</a>
</g>
</g>
<!-- Node209&#45;&gt;Node210 -->
<g id="edge10" class="edge">
<title>Node209&#45;&gt;Node210</title>
<path fill="none" stroke="#191970" d="M706.5111,-9.5C715.0991,-9.5 723.7551,-9.5 732.0795,-9.5"/>
<polygon fill="#191970" stroke="#191970" points="706.4848,-6.0001 696.4848,-9.5 706.4847,-13.0001 706.4848,-6.0001"/>
</g>
</g>
</svg>
