<?xml version="1.0" encoding="UTF-8" standalone="no"?>
<!DOCTYPE svg PUBLIC "-//W3C//DTD SVG 1.1//EN"
 "http://www.w3.org/Graphics/SVG/1.1/DTD/svg11.dtd">
<!-- Generated by graphviz version 2.40.1 (20161225.0304)
 -->
<!-- Title: tinyformat::detail::parseIntAndAdvance Pages: 1 -->
<svg width="921pt" height="101pt"
 viewBox="0.00 0.00 921.22 101.00" xmlns="http://www.w3.org/2000/svg" xmlns:xlink="http://www.w3.org/1999/xlink">
<g id="graph0" class="graph" transform="scale(1 1) rotate(0) translate(4 97)">
<title>tinyformat::detail::parseIntAndAdvance</title>
<polygon fill="#ffffff" stroke="transparent" points="-4,4 -4,-97 917.2197,-97 917.2197,4 -4,4"/>
<!-- Node18 -->
<g id="node1" class="node">
<title>Node18</title>
<polygon fill="#bfbfbf" stroke="#000000" points="0,-32.5 0,-60.5 114.3984,-60.5 114.3984,-32.5 0,-32.5"/>
<text text-anchor="start" x="8" y="-48.5" font-family="Helvetica,sans-Serif" font-size="10.00" fill="#000000">tinyformat::detail</text>
<text text-anchor="middle" x="57.1992" y="-38.5" font-family="Helvetica,sans-Serif" font-size="10.00" fill="#000000">::parseIntAndAdvance</text>
</g>
<!-- Node19 -->
<g id="node2" class="node">
<title>Node19</title>
<g id="a_node2"><a xlink:href="namespacetinyformat_1_1detail.html#a681e8ceb825485cc5e3b057c11e4b1b5" target="_top" xlink:title="tinyformat::detail\l::streamStateFromFormat">
<polygon fill="#ffffff" stroke="#000000" points="150.3984,-32.5 150.3984,-60.5 280.8662,-60.5 280.8662,-32.5 150.3984,-32.5"/>
<text text-anchor="start" x="158.3984" y="-48.5" font-family="Helvetica,sans-Serif" font-size="10.00" fill="#000000">tinyformat::detail</text>
<text text-anchor="middle" x="215.6323" y="-38.5" font-family="Helvetica,sans-Serif" font-size="10.00" fill="#000000">::streamStateFromFormat</text>
</a>
</g>
</g>
<!-- Node18&#45;&gt;Node19 -->
<g id="edge1" class="edge">
<title>Node18&#45;&gt;Node19</title>
<path fill="none" stroke="#191970" d="M124.9584,-46.5C133.3416,-46.5 141.8997,-46.5 150.2464,-46.5"/>
<polygon fill="#191970" stroke="#191970" points="124.8454,-43.0001 114.8454,-46.5 124.8454,-50.0001 124.8454,-43.0001"/>
</g>
<!-- Node20 -->
<g id="node3" class="node">
<title>Node20</title>
<g id="a_node3"><a xlink:href="namespacetinyformat_1_1detail.html#a079a316938c0e8693efbeb0183b1390d" target="_top" xlink:title="tinyformat::detail\l::formatImpl">
<polygon fill="#ffffff" stroke="#000000" points="316.8662,-32.5 316.8662,-60.5 406.2305,-60.5 406.2305,-32.5 316.8662,-32.5"/>
<text text-anchor="start" x="324.8662" y="-48.5" font-family="Helvetica,sans-Serif" font-size="10.00" fill="#000000">tinyformat::detail</text>
<text text-anchor="middle" x="361.5483" y="-38.5" font-family="Helvetica,sans-Serif" font-size="10.00" fill="#000000">::formatImpl</text>
</a>
</g>
</g>
<!-- Node19&#45;&gt;Node20 -->
<g id="edge2" class="edge">
<title>Node19&#45;&gt;Node20</title>
<path fill="none" stroke="#191970" d="M291.1898,-46.5C299.9545,-46.5 308.6691,-46.5 316.8268,-46.5"/>
<polygon fill="#191970" stroke="#191970" points="290.9083,-43.0001 280.9082,-46.5 290.9082,-50.0001 290.9083,-43.0001"/>
</g>
<!-- Node21 -->
<g id="node4" class="node">
<title>Node21</title>
<g id="a_node4"><a xlink:href="namespacetinyformat.html#a86ed74eb3ed66a662e96220d877da964" target="_top" xlink:title="Format list of arguments to the stream according to the given format string. ">
<polygon fill="#ffffff" stroke="#000000" points="442.2305,-37.5 442.2305,-55.5 541.0283,-55.5 541.0283,-37.5 442.2305,-37.5"/>
<text text-anchor="middle" x="491.6294" y="-43.5" font-family="Helvetica,sans-Serif" font-size="10.00" fill="#000000">tinyformat::vformat</text>
</a>
</g>
</g>
<!-- Node20&#45;&gt;Node21 -->
<g id="edge3" class="edge">
<title>Node20&#45;&gt;Node21</title>
<path fill="none" stroke="#191970" d="M416.4516,-46.5C424.889,-46.5 433.5599,-46.5 441.8771,-46.5"/>
<polygon fill="#191970" stroke="#191970" points="416.3149,-43.0001 406.3149,-46.5 416.3148,-50.0001 416.3149,-43.0001"/>
</g>
<!-- Node22 -->
<g id="node5" class="node">
<title>Node22</title>
<g id="a_node5"><a xlink:href="namespacetinyformat.html#a05144619d8b16e2b31b2594ca9c6bf1d" target="_top" xlink:title="Format list of arguments to the stream according to given format string. ">
<polygon fill="#ffffff" stroke="#000000" points="577.0283,-37.5 577.0283,-55.5 670.8262,-55.5 670.8262,-37.5 577.0283,-37.5"/>
<text text-anchor="middle" x="623.9272" y="-43.5" font-family="Helvetica,sans-Serif" font-size="10.00" fill="#000000">tinyformat::format</text>
</a>
</g>
</g>
<!-- Node21&#45;&gt;Node22 -->
<g id="edge4" class="edge">
<title>Node21&#45;&gt;Node22</title>
<path fill="none" stroke="#191970" d="M551.4582,-46.5C559.8988,-46.5 568.4778,-46.5 576.639,-46.5"/>
<polygon fill="#191970" stroke="#191970" points="551.2687,-43.0001 541.2686,-46.5 551.2686,-50.0001 551.2687,-43.0001"/>
</g>
<!-- Node23 -->
<g id="node6" class="node">
<title>Node23</title>
<g id="a_node6"><a xlink:href="namespacetinyformat.html#aa2768ebf94f6989dfcea052b3d3f9b9f" target="_top" xlink:title="Format list of arguments according to the given format string and return the result as a string...">
<polygon fill="#ffffff" stroke="#000000" points="707.6636,-74.5 707.6636,-92.5 801.4614,-92.5 801.4614,-74.5 707.6636,-74.5"/>
<text text-anchor="middle" x="754.5625" y="-80.5" font-family="Helvetica,sans-Serif" font-size="10.00" fill="#000000">tinyformat::format</text>
</a>
</g>
</g>
<!-- Node22&#45;&gt;Node23 -->
<g id="edge5" class="edge">
<title>Node22&#45;&gt;Node23</title>
<path fill="none" stroke="#191970" d="M665.757,-58.3475C684.1381,-63.5536 705.3822,-69.5706 722.4827,-74.414"/>
<polygon fill="#191970" stroke="#191970" points="666.4596,-54.9089 655.8842,-55.5512 664.5519,-61.6439 666.4596,-54.9089"/>
</g>
<!-- Node24 -->
<g id="node7" class="node">
<title>Node24</title>
<g id="a_node7"><a xlink:href="namespacetinyformat.html#a72cec9a050602495fc65c8f321e43478" target="_top" xlink:title="Format list of arguments to std::cout, according to the given format string. ">
<polygon fill="#ffffff" stroke="#000000" points="710.7178,-37.5 710.7178,-55.5 798.4072,-55.5 798.4072,-37.5 710.7178,-37.5"/>
<text text-anchor="middle" x="754.5625" y="-43.5" font-family="Helvetica,sans-Serif" font-size="10.00" fill="#000000">tinyformat::printf</text>
</a>
</g>
</g>
<!-- Node22&#45;&gt;Node24 -->
<g id="edge6" class="edge">
<title>Node22&#45;&gt;Node24</title>
<path fill="none" stroke="#191970" d="M681.2035,-46.5C691.031,-46.5 701.105,-46.5 710.5175,-46.5"/>
<polygon fill="#191970" stroke="#191970" points="681.0896,-43.0001 671.0896,-46.5 681.0895,-50.0001 681.0896,-43.0001"/>
</g>
<!-- Node26 -->
<g id="node9" class="node">
<title>Node26</title>
<g id="a_node9"><a xlink:href="namespacetinyformat.html#a3621ecff051629bf09d87813104568eb" target="_top" xlink:title="tinyformat::printfln">
<polygon fill="#ffffff" stroke="#000000" points="706.8262,-.5 706.8262,-18.5 802.2988,-18.5 802.2988,-.5 706.8262,-.5"/>
<text text-anchor="middle" x="754.5625" y="-6.5" font-family="Helvetica,sans-Serif" font-size="10.00" fill="#000000">tinyformat::printfln</text>
</a>
</g>
</g>
<!-- Node22&#45;&gt;Node26 -->
<g id="edge8" class="edge">
<title>Node22&#45;&gt;Node26</title>
<path fill="none" stroke="#191970" d="M665.757,-34.6525C684.1381,-29.4464 705.3822,-23.4294 722.4827,-18.586"/>
<polygon fill="#191970" stroke="#191970" points="664.5519,-31.3561 655.8842,-37.4488 666.4596,-38.0911 664.5519,-31.3561"/>
</g>
<!-- Node25 -->
<g id="node8" class="node">
<title>Node25</title>
<g id="a_node8"><a xlink:href="secp256k1_2src_2bench_8h.html#aa394e0046305c3b181f7d7cebf5f7683" target="_top" xlink:title="print_number">
<polygon fill="#ffffff" stroke="#000000" points="838.2988,-37.5 838.2988,-55.5 913.2197,-55.5 913.2197,-37.5 838.2988,-37.5"/>
<text text-anchor="middle" x="875.7593" y="-43.5" font-family="Helvetica,sans-Serif" font-size="10.00" fill="#000000">print_number</text>
</a>
</g>
</g>
<!-- Node24&#45;&gt;Node25 -->
<g id="edge7" class="edge">
<title>Node24&#45;&gt;Node25</title>
<path fill="none" stroke="#191970" d="M808.884,-46.5C818.8174,-46.5 828.9782,-46.5 838.2832,-46.5"/>
<polygon fill="#191970" stroke="#191970" points="808.6602,-43.0001 798.6602,-46.5 808.6601,-50.0001 808.6602,-43.0001"/>
</g>
</g>
</svg>
