<?xml version="1.0" encoding="UTF-8" standalone="no"?>
<!DOCTYPE svg PUBLIC "-//W3C//DTD SVG 1.1//EN"
 "http://www.w3.org/Graphics/SVG/1.1/DTD/svg11.dtd">
<!-- Generated by graphviz version 2.40.1 (20161225.0304)
 -->
<!-- Title: src/net_processing.h Pages: 1 -->
<svg width="2671pt" height="357pt"
 viewBox="0.00 0.00 2671.50 357.00" xmlns="http://www.w3.org/2000/svg" xmlns:xlink="http://www.w3.org/1999/xlink">
<g id="graph0" class="graph" transform="scale(1 1) rotate(0) translate(4 353)">
<title>src/net_processing.h</title>
<polygon fill="#ffffff" stroke="transparent" points="-4,4 -4,-353 2667.4953,-353 2667.4953,4 -4,4"/>
<!-- Node0 -->
<g id="node1" class="node">
<title>Node0</title>
<polygon fill="#bfbfbf" stroke="#000000" points="2412.4927,-330.5 2412.4927,-348.5 2520.7632,-348.5 2520.7632,-330.5 2412.4927,-330.5"/>
<text text-anchor="middle" x="2466.6279" y="-336.5" font-family="Helvetica,sans-Serif" font-size="10.00" fill="#000000">src/net_processing.h</text>
</g>
<!-- Node1 -->
<g id="node2" class="node">
<title>Node1</title>
<g id="a_node2"><a xlink:href="net_8h.html" target="_top" xlink:title="net.h">
<polygon fill="#ffffff" stroke="#000000" points="1624.5073,-275.5 1624.5073,-293.5 1662.7485,-293.5 1662.7485,-275.5 1624.5073,-275.5"/>
<text text-anchor="middle" x="1643.6279" y="-281.5" font-family="Helvetica,sans-Serif" font-size="10.00" fill="#000000">net.h</text>
</a>
</g>
</g>
<!-- Node0&#45;&gt;Node1 -->
<g id="edge1" class="edge">
<title>Node0&#45;&gt;Node1</title>
<path fill="none" stroke="#191970" d="M2412.3103,-335.87C2253.5336,-325.2592 1793.8067,-294.5362 1672.9953,-286.4626"/>
<polygon fill="#191970" stroke="#191970" points="1673.2116,-282.9693 1663.0004,-285.7946 1672.7448,-289.9537 1673.2116,-282.9693"/>
</g>
<!-- Node54 -->
<g id="node32" class="node">
<title>Node54</title>
<g id="a_node32"><a xlink:href="sync_8h.html" target="_top" xlink:title="sync.h">
<polygon fill="#ffffff" stroke="#000000" points="2208.1772,-110.5 2208.1772,-128.5 2253.0786,-128.5 2253.0786,-110.5 2208.1772,-110.5"/>
<text text-anchor="middle" x="2230.6279" y="-116.5" font-family="Helvetica,sans-Serif" font-size="10.00" fill="#000000">sync.h</text>
</a>
</g>
</g>
<!-- Node0&#45;&gt;Node54 -->
<g id="edge125" class="edge">
<title>Node0&#45;&gt;Node54</title>
<path fill="none" stroke="#191970" d="M2462.9693,-330.4272C2453.997,-309.0532 2429.0942,-254.7264 2394.6279,-220 2355.0643,-180.1378 2296.6992,-149.2747 2261.3138,-132.7918"/>
<polygon fill="#191970" stroke="#191970" points="2262.5278,-129.4985 2251.9774,-128.5286 2259.6202,-135.8661 2262.5278,-129.4985"/>
</g>
<!-- Node92 -->
<g id="node47" class="node">
<title>Node92</title>
<g id="a_node47"><a xlink:href="validationinterface_8h.html" target="_top" xlink:title="validationinterface.h">
<polygon fill="#ffffff" stroke="#000000" points="2532.1553,-165.5 2532.1553,-183.5 2637.1006,-183.5 2637.1006,-165.5 2532.1553,-165.5"/>
<text text-anchor="middle" x="2584.6279" y="-171.5" font-family="Helvetica,sans-Serif" font-size="10.00" fill="#000000">validationinterface.h</text>
</a>
</g>
</g>
<!-- Node0&#45;&gt;Node92 -->
<g id="edge111" class="edge">
<title>Node0&#45;&gt;Node92</title>
<path fill="none" stroke="#191970" d="M2479.2945,-330.437C2490.5734,-321.928 2507.0365,-308.3844 2518.6279,-294 2544.7825,-261.5435 2566.1511,-217.2807 2576.9652,-192.7528"/>
<polygon fill="#191970" stroke="#191970" points="2580.1916,-194.1097 2580.9368,-183.5411 2573.7636,-191.3382 2580.1916,-194.1097"/>
</g>
<!-- Node97 -->
<g id="node50" class="node">
<title>Node97</title>
<g id="a_node50"><a xlink:href="params_8h.html" target="_top" xlink:title="consensus/params.h">
<polygon fill="#ffffff" stroke="#000000" points="2338.4927,-110.5 2338.4927,-128.5 2446.7632,-128.5 2446.7632,-110.5 2338.4927,-110.5"/>
<text text-anchor="middle" x="2392.6279" y="-116.5" font-family="Helvetica,sans-Serif" font-size="10.00" fill="#000000">consensus/params.h</text>
</a>
</g>
</g>
<!-- Node0&#45;&gt;Node97 -->
<g id="edge120" class="edge">
<title>Node0&#45;&gt;Node97</title>
<path fill="none" stroke="#191970" d="M2467.4794,-330.1265C2469.5287,-302.8448 2472.5434,-221.8252 2442.6279,-165 2436.3062,-152.9918 2425.4952,-142.549 2415.5398,-134.7071"/>
<polygon fill="#191970" stroke="#191970" points="2417.6161,-131.8896 2407.4958,-128.7545 2413.4522,-137.5165 2417.6161,-131.8896"/>
</g>
<!-- Node2 -->
<g id="node3" class="node">
<title>Node2</title>
<g id="a_node3"><a xlink:href="addrdb_8h.html" target="_top" xlink:title="addrdb.h">
<polygon fill="#ffffff" stroke="#000000" points="1902.8892,-110.5 1902.8892,-128.5 1958.3667,-128.5 1958.3667,-110.5 1902.8892,-110.5"/>
<text text-anchor="middle" x="1930.6279" y="-116.5" font-family="Helvetica,sans-Serif" font-size="10.00" fill="#000000">addrdb.h</text>
</a>
</g>
</g>
<!-- Node1&#45;&gt;Node2 -->
<g id="edge2" class="edge">
<title>Node1&#45;&gt;Node2</title>
<path fill="none" stroke="#191970" d="M1659.4671,-275.3939C1706.9988,-248.0673 1848.6635,-166.6224 1906.0652,-133.6214"/>
<polygon fill="#191970" stroke="#191970" points="1907.9128,-136.5965 1914.8377,-128.578 1904.4238,-130.5279 1907.9128,-136.5965"/>
</g>
<!-- Node17 -->
<g id="node9" class="node">
<title>Node17</title>
<polygon fill="#ffffff" stroke="#bfbfbf" points="2600.5713,-.5 2600.5713,-18.5 2652.6846,-18.5 2652.6846,-.5 2600.5713,-.5"/>
<text text-anchor="middle" x="2626.6279" y="-6.5" font-family="Helvetica,sans-Serif" font-size="10.00" fill="#000000">memory</text>
</g>
<!-- Node1&#45;&gt;Node17 -->
<g id="edge108" class="edge">
<title>Node1&#45;&gt;Node17</title>
<path fill="none" stroke="#191970" d="M1663.1356,-284.1664C1797.4269,-281.6647 2581.5131,-263.6851 2645.6279,-184 2682.489,-138.1872 2652.9901,-62.3016 2636.2246,-27.7024"/>
<polygon fill="#191970" stroke="#191970" points="2639.3313,-26.0897 2631.708,-18.7319 2633.079,-29.2376 2639.3313,-26.0897"/>
</g>
<!-- Node11 -->
<g id="node11" class="node">
<title>Node11</title>
<polygon fill="#ffffff" stroke="#bfbfbf" points="1071.5073,-.5 1071.5073,-18.5 1119.7485,-18.5 1119.7485,-.5 1071.5073,-.5"/>
<text text-anchor="middle" x="1095.6279" y="-6.5" font-family="Helvetica,sans-Serif" font-size="10.00" fill="#000000">stdint.h</text>
</g>
<!-- Node1&#45;&gt;Node11 -->
<g id="edge106" class="edge">
<title>Node1&#45;&gt;Node11</title>
<path fill="none" stroke="#191970" d="M1624.4329,-284.4353C1487.2077,-283.7274 660.6279,-275.2811 660.6279,-174.5 660.6279,-174.5 660.6279,-174.5 660.6279,-119.5 660.6279,-56.1932 727.3059,-74.2096 787.6279,-55 838.1054,-38.9254 991.853,-20.7918 1061.1342,-13.1762"/>
<polygon fill="#191970" stroke="#191970" points="1061.9377,-16.6094 1071.4994,-12.0461 1061.179,-9.6506 1061.9377,-16.6094"/>
</g>
<!-- Node43 -->
<g id="node13" class="node">
<title>Node43</title>
<g id="a_node13"><a xlink:href="addrman_8h.html" target="_top" xlink:title="addrman.h">
<polygon fill="#ffffff" stroke="#000000" points="1196.7241,-220.5 1196.7241,-238.5 1260.5317,-238.5 1260.5317,-220.5 1196.7241,-220.5"/>
<text text-anchor="middle" x="1228.6279" y="-226.5" font-family="Helvetica,sans-Serif" font-size="10.00" fill="#000000">addrman.h</text>
</a>
</g>
</g>
<!-- Node1&#45;&gt;Node43 -->
<g id="edge15" class="edge">
<title>Node1&#45;&gt;Node43</title>
<path fill="none" stroke="#191970" d="M1624.4625,-282.3875C1570.6354,-276.3877 1413.5338,-258.4183 1283.6279,-239 1279.4232,-238.3715 1275.0441,-237.6793 1270.6741,-236.9639"/>
<polygon fill="#191970" stroke="#191970" points="1271.021,-233.4732 1260.5798,-235.271 1269.8632,-240.3768 1271.021,-233.4732"/>
</g>
<!-- Node44 -->
<g id="node14" class="node">
<title>Node44</title>
<g id="a_node14"><a xlink:href="netaddress_8h.html" target="_top" xlink:title="netaddress.h">
<polygon fill="#ffffff" stroke="#ff0000" points="764.7192,-110.5 764.7192,-128.5 838.5366,-128.5 838.5366,-110.5 764.7192,-110.5"/>
<text text-anchor="middle" x="801.6279" y="-116.5" font-family="Helvetica,sans-Serif" font-size="10.00" fill="#000000">netaddress.h</text>
</a>
</g>
</g>
<!-- Node1&#45;&gt;Node44 -->
<g id="edge82" class="edge">
<title>Node1&#45;&gt;Node44</title>
<path fill="none" stroke="#191970" d="M1624.1855,-284.0058C1517.0071,-281.1815 1000.7509,-266.2438 935.6279,-239 882.4068,-216.7353 836.1011,-164.2042 814.5289,-136.8067"/>
<polygon fill="#191970" stroke="#191970" points="817.0573,-134.353 808.1871,-128.559 811.5081,-138.6199 817.0573,-134.353"/>
</g>
<!-- Node27 -->
<g id="node15" class="node">
<title>Node27</title>
<g id="a_node15"><a xlink:href="compat_8h.html" target="_top" xlink:title="compat.h">
<polygon fill="#ffffff" stroke="#ff0000" points="499.0615,-55.5 499.0615,-73.5 556.1943,-73.5 556.1943,-55.5 499.0615,-55.5"/>
<text text-anchor="middle" x="527.6279" y="-61.5" font-family="Helvetica,sans-Serif" font-size="10.00" fill="#000000">compat.h</text>
</a>
</g>
</g>
<!-- Node1&#45;&gt;Node27 -->
<g id="edge75" class="edge">
<title>Node1&#45;&gt;Node27</title>
<path fill="none" stroke="#191970" d="M1624.2201,-284.1058C1488.941,-281.2977 690.9333,-263.7214 646.6279,-239 583.967,-204.0367 547.5701,-120.5658 533.8976,-83.1734"/>
<polygon fill="#191970" stroke="#191970" points="537.1286,-81.8108 530.5096,-73.5381 530.525,-84.1329 537.1286,-81.8108"/>
</g>
<!-- Node36 -->
<g id="node25" class="node">
<title>Node36</title>
<polygon fill="#ffffff" stroke="#bfbfbf" points="0,-.5 0,-18.5 63.2559,-18.5 63.2559,-.5 0,-.5"/>
<text text-anchor="middle" x="31.6279" y="-6.5" font-family="Helvetica,sans-Serif" font-size="10.00" fill="#000000">arpa/inet.h</text>
</g>
<!-- Node1&#45;&gt;Node36 -->
<g id="edge110" class="edge">
<title>Node1&#45;&gt;Node36</title>
<path fill="none" stroke="#191970" d="M1624.4864,-283.9934C1501.7323,-280.6928 823.6578,-261.6743 617.6279,-239 453.8809,-220.9791 252.6279,-339.2356 252.6279,-174.5 252.6279,-174.5 252.6279,-174.5 252.6279,-119.5 252.6279,-79.8354 137.0928,-40.0226 73.095,-21.0119"/>
<polygon fill="#191970" stroke="#191970" points="73.8724,-17.5927 63.2918,-18.1426 71.906,-24.3108 73.8724,-17.5927"/>
</g>
<!-- Node45 -->
<g id="node28" class="node">
<title>Node45</title>
<g id="a_node28"><a xlink:href="protocol_8h.html" target="_top" xlink:title="protocol.h">
<polygon fill="#ffffff" stroke="#ff0000" points="1256.6699,-165.5 1256.6699,-183.5 1316.5859,-183.5 1316.5859,-165.5 1256.6699,-165.5"/>
<text text-anchor="middle" x="1286.6279" y="-171.5" font-family="Helvetica,sans-Serif" font-size="10.00" fill="#000000">protocol.h</text>
</a>
</g>
</g>
<!-- Node1&#45;&gt;Node45 -->
<g id="edge87" class="edge">
<title>Node1&#45;&gt;Node45</title>
<path fill="none" stroke="#191970" d="M1624.3004,-283.702C1563.9736,-280.905 1380.2304,-269.9772 1330.6279,-239 1313.4393,-228.2655 1301.3208,-208.0717 1294.2126,-193.1275"/>
<polygon fill="#191970" stroke="#191970" points="1297.3347,-191.5331 1290.0913,-183.8011 1290.9319,-194.3625 1297.3347,-191.5331"/>
</g>
<!-- Node46 -->
<g id="node29" class="node">
<title>Node46</title>
<g id="a_node29"><a xlink:href="uint256_8h.html" target="_top" xlink:title="uint256.h">
<polygon fill="#ffffff" stroke="#ff0000" points="1143.0542,-55.5 1143.0542,-73.5 1200.2017,-73.5 1200.2017,-55.5 1143.0542,-55.5"/>
<text text-anchor="middle" x="1171.6279" y="-61.5" font-family="Helvetica,sans-Serif" font-size="10.00" fill="#000000">uint256.h</text>
</a>
</g>
</g>
<!-- Node1&#45;&gt;Node46 -->
<g id="edge98" class="edge">
<title>Node1&#45;&gt;Node46</title>
<path fill="none" stroke="#191970" d="M1624.3334,-284.2243C1542.403,-282.8355 1223.2925,-275.163 1130.6279,-239 1055.9309,-209.849 1023.0492,-200.9358 987.6279,-129 983.8976,-121.4242 982.4226,-116.6493 987.6279,-110 1005.2973,-87.4291 1084.1328,-74.5065 1132.7,-68.5533"/>
<polygon fill="#191970" stroke="#191970" points="1133.3446,-72.0017 1142.8659,-67.3544 1132.5247,-65.0498 1133.3446,-72.0017"/>
</g>
<!-- Node51 -->
<g id="node30" class="node">
<title>Node51</title>
<polygon fill="#ffffff" stroke="#bfbfbf" points="1620.9014,-110.5 1620.9014,-128.5 1666.3545,-128.5 1666.3545,-110.5 1620.9014,-110.5"/>
<text text-anchor="middle" x="1643.6279" y="-116.5" font-family="Helvetica,sans-Serif" font-size="10.00" fill="#000000">atomic</text>
</g>
<!-- Node1&#45;&gt;Node51 -->
<g id="edge104" class="edge">
<title>Node1&#45;&gt;Node51</title>
<path fill="none" stroke="#191970" d="M1643.6279,-275.1561C1643.6279,-248.9504 1643.6279,-174.3557 1643.6279,-138.8021"/>
<polygon fill="#191970" stroke="#191970" points="1647.128,-138.7414 1643.6279,-128.7414 1640.128,-138.7414 1647.128,-138.7414"/>
</g>
<!-- Node52 -->
<g id="node31" class="node">
<title>Node52</title>
<g id="a_node31"><a xlink:href="random_8h.html" target="_top" xlink:title="random.h">
<polygon fill="#ffffff" stroke="#ff0000" points="1142.5049,-110.5 1142.5049,-128.5 1200.751,-128.5 1200.751,-110.5 1142.5049,-110.5"/>
<text text-anchor="middle" x="1171.6279" y="-116.5" font-family="Helvetica,sans-Serif" font-size="10.00" fill="#000000">random.h</text>
</a>
</g>
</g>
<!-- Node1&#45;&gt;Node52 -->
<g id="edge88" class="edge">
<title>Node1&#45;&gt;Node52</title>
<path fill="none" stroke="#191970" d="M1624.4392,-283.9637C1541.8635,-281.4743 1219.5146,-269.8314 1187.6279,-239 1160.7676,-213.0286 1163.5859,-165.1767 1167.7541,-138.5841"/>
<polygon fill="#191970" stroke="#191970" points="1171.2218,-139.0752 1169.5405,-128.6146 1164.3315,-137.8405 1171.2218,-139.0752"/>
</g>
<!-- Node1&#45;&gt;Node54 -->
<g id="edge97" class="edge">
<title>Node1&#45;&gt;Node54</title>
<path fill="none" stroke="#191970" d="M1662.9605,-283.6046C1751.7974,-279.3842 2118.4896,-260.7685 2164.6279,-239 2195.6096,-224.3826 2202.8063,-214.3843 2218.6279,-184 2225.8702,-170.0917 2228.7935,-152.4887 2229.9486,-139.1873"/>
<polygon fill="#191970" stroke="#191970" points="2233.4661,-138.9985 2230.5726,-128.8065 2226.4788,-138.5784 2233.4661,-138.9985"/>
</g>
<!-- Node56 -->
<g id="node34" class="node">
<title>Node56</title>
<polygon fill="#ffffff" stroke="#bfbfbf" points="2094.3228,-55.5 2094.3228,-73.5 2190.9331,-73.5 2190.9331,-55.5 2094.3228,-55.5"/>
<text text-anchor="middle" x="2142.6279" y="-61.5" font-family="Helvetica,sans-Serif" font-size="10.00" fill="#000000">condition_variable</text>
</g>
<!-- Node1&#45;&gt;Node56 -->
<g id="edge109" class="edge">
<title>Node1&#45;&gt;Node56</title>
<path fill="none" stroke="#191970" d="M1662.9968,-280.227C1694.1509,-273.1176 1757.1166,-257.769 1808.6279,-239 1932.1426,-193.9953 2067.5319,-112.1343 2120.0606,-79.0006"/>
<polygon fill="#191970" stroke="#191970" points="2122.0377,-81.8913 2128.6057,-73.5779 2118.2869,-75.9809 2122.0377,-81.8913"/>
</g>
<!-- Node57 -->
<g id="node35" class="node">
<title>Node57</title>
<polygon fill="#ffffff" stroke="#bfbfbf" points="2032.4507,-55.5 2032.4507,-73.5 2076.8052,-73.5 2076.8052,-55.5 2032.4507,-55.5"/>
<text text-anchor="middle" x="2054.6279" y="-61.5" font-family="Helvetica,sans-Serif" font-size="10.00" fill="#000000">thread</text>
</g>
<!-- Node1&#45;&gt;Node57 -->
<g id="edge107" class="edge">
<title>Node1&#45;&gt;Node57</title>
<path fill="none" stroke="#191970" d="M1662.8243,-278.598C1717.2103,-261.3213 1875.6925,-207.1007 1988.6279,-129 2008.2704,-115.4162 2027.4152,-95.783 2039.9822,-81.7508"/>
<polygon fill="#191970" stroke="#191970" points="2042.9515,-83.6723 2046.9025,-73.8417 2037.6834,-79.0628 2042.9515,-83.6723"/>
</g>
<!-- Node73 -->
<g id="node39" class="node">
<title>Node73</title>
<g id="a_node39"><a xlink:href="amount_8h.html" target="_top" xlink:title="amount.h">
<polygon fill="#ffffff" stroke="#000000" points="1332.7808,-55.5 1332.7808,-73.5 1390.4751,-73.5 1390.4751,-55.5 1332.7808,-55.5"/>
<text text-anchor="middle" x="1361.6279" y="-61.5" font-family="Helvetica,sans-Serif" font-size="10.00" fill="#000000">amount.h</text>
</a>
</g>
</g>
<!-- Node1&#45;&gt;Node73 -->
<g id="edge70" class="edge">
<title>Node1&#45;&gt;Node73</title>
<path fill="none" stroke="#191970" d="M1624.227,-280.793C1570.6844,-269.3964 1420.9021,-229.3734 1361.6279,-129 1353.6207,-115.4407 1354.4105,-97.3153 1356.7487,-83.7318"/>
<polygon fill="#191970" stroke="#191970" points="1360.2489,-84.1007 1358.918,-73.5898 1353.4037,-82.6366 1360.2489,-84.1007"/>
</g>
<!-- Node74 -->
<g id="node40" class="node">
<title>Node74</title>
<g id="a_node40"><a xlink:href="bloom_8h.html" target="_top" xlink:title="bloom.h">
<polygon fill="#ffffff" stroke="#000000" points="996.8398,-110.5 996.8398,-128.5 1048.416,-128.5 1048.416,-110.5 996.8398,-110.5"/>
<text text-anchor="middle" x="1022.6279" y="-116.5" font-family="Helvetica,sans-Serif" font-size="10.00" fill="#000000">bloom.h</text>
</a>
</g>
</g>
<!-- Node1&#45;&gt;Node74 -->
<g id="edge72" class="edge">
<title>Node1&#45;&gt;Node74</title>
<path fill="none" stroke="#191970" d="M1624.4748,-284.1304C1546.6502,-282.4054 1254.2442,-273.6965 1169.6279,-239 1113.0933,-215.8183 1061.1961,-163.3479 1036.9795,-136.3077"/>
<polygon fill="#191970" stroke="#191970" points="1039.6075,-133.9959 1030.3782,-128.7929 1034.3484,-138.6157 1039.6075,-133.9959"/>
</g>
<!-- Node75 -->
<g id="node41" class="node">
<title>Node75</title>
<g id="a_node41"><a xlink:href="_hash_8h.html" target="_top" xlink:title="hash.h">
<polygon fill="#ffffff" stroke="#ff0000" points="894.6157,-110.5 894.6157,-128.5 940.6401,-128.5 940.6401,-110.5 894.6157,-110.5"/>
<text text-anchor="middle" x="917.6279" y="-116.5" font-family="Helvetica,sans-Serif" font-size="10.00" fill="#000000">hash.h</text>
</a>
</g>
</g>
<!-- Node1&#45;&gt;Node75 -->
<g id="edge76" class="edge">
<title>Node1&#45;&gt;Node75</title>
<path fill="none" stroke="#191970" d="M1624.233,-283.8358C1515.1152,-280.022 981.6507,-260.3315 954.6279,-239 924.05,-214.862 918.1575,-165.8808 917.3696,-138.7216"/>
<polygon fill="#191970" stroke="#191970" points="920.8682,-138.5253 917.2874,-128.554 913.8685,-138.582 920.8682,-138.5253"/>
</g>
<!-- Node84 -->
<g id="node42" class="node">
<title>Node84</title>
<g id="a_node42"><a xlink:href="limitedmap_8h.html" target="_top" xlink:title="limitedmap.h">
<polygon fill="#ffffff" stroke="#ff0000" points="2313.2832,-220.5 2313.2832,-238.5 2385.9727,-238.5 2385.9727,-220.5 2313.2832,-220.5"/>
<text text-anchor="middle" x="2349.6279" y="-226.5" font-family="Helvetica,sans-Serif" font-size="10.00" fill="#000000">limitedmap.h</text>
</a>
</g>
</g>
<!-- Node1&#45;&gt;Node84 -->
<g id="edge80" class="edge">
<title>Node1&#45;&gt;Node84</title>
<path fill="none" stroke="#191970" d="M1662.8016,-283.4005C1739.2172,-278.9552 2029.4479,-261.4704 2267.6279,-239 2278.9888,-237.9282 2291.2153,-236.6041 2302.6699,-235.2883"/>
<polygon fill="#191970" stroke="#191970" points="2303.3994,-238.7269 2312.9255,-234.0897 2302.5868,-231.7743 2303.3994,-238.7269"/>
</g>
<!-- Node85 -->
<g id="node43" class="node">
<title>Node85</title>
<g id="a_node43"><a xlink:href="feerate_8h.html" target="_top" xlink:title="policy/feerate.h">
<polygon fill="#ffffff" stroke="#000000" points="1684.7192,-110.5 1684.7192,-128.5 1768.5366,-128.5 1768.5366,-110.5 1684.7192,-110.5"/>
<text text-anchor="middle" x="1726.6279" y="-116.5" font-family="Helvetica,sans-Serif" font-size="10.00" fill="#000000">policy/feerate.h</text>
</a>
</g>
</g>
<!-- Node1&#45;&gt;Node85 -->
<g id="edge83" class="edge">
<title>Node1&#45;&gt;Node85</title>
<path fill="none" stroke="#191970" d="M1648.3282,-275.1561C1661.6246,-248.7235 1699.6854,-173.0604 1717.3785,-137.8875"/>
<polygon fill="#191970" stroke="#191970" points="1720.6121,-139.2477 1721.9792,-128.7414 1714.3587,-136.102 1720.6121,-139.2477"/>
</g>
<!-- Node86 -->
<g id="node44" class="node">
<title>Node86</title>
<g id="a_node44"><a xlink:href="streams_8h.html" target="_top" xlink:title="streams.h">
<polygon fill="#ffffff" stroke="#ff0000" points="1786.6772,-110.5 1786.6772,-128.5 1846.5786,-128.5 1846.5786,-110.5 1786.6772,-110.5"/>
<text text-anchor="middle" x="1816.6279" y="-116.5" font-family="Helvetica,sans-Serif" font-size="10.00" fill="#000000">streams.h</text>
</a>
</g>
</g>
<!-- Node1&#45;&gt;Node86 -->
<g id="edge89" class="edge">
<title>Node1&#45;&gt;Node86</title>
<path fill="none" stroke="#191970" d="M1653.1756,-275.3939C1681.2296,-248.6372 1763.6837,-169.996 1799.5917,-135.7484"/>
<polygon fill="#191970" stroke="#191970" points="1802.0757,-138.2159 1806.8965,-128.7814 1797.2445,-133.1504 1802.0757,-138.2159"/>
</g>
<!-- Node89 -->
<g id="node45" class="node">
<title>Node89</title>
<g id="a_node45"><a xlink:href="threadinterrupt_8h.html" target="_top" xlink:title="threadinterrupt.h">
<polygon fill="#ffffff" stroke="#ff0000" points="2097.9385,-165.5 2097.9385,-183.5 2187.3174,-183.5 2187.3174,-165.5 2097.9385,-165.5"/>
<text text-anchor="middle" x="2142.6279" y="-171.5" font-family="Helvetica,sans-Serif" font-size="10.00" fill="#000000">threadinterrupt.h</text>
</a>
</g>
</g>
<!-- Node1&#45;&gt;Node89 -->
<g id="edge99" class="edge">
<title>Node1&#45;&gt;Node89</title>
<path fill="none" stroke="#191970" d="M1662.8363,-284.2606C1751.0349,-282.9663 2114.3285,-275.4411 2147.6279,-239 2158.7239,-226.8572 2155.4878,-207.4983 2150.6865,-193.1538"/>
<polygon fill="#191970" stroke="#191970" points="2153.9386,-191.859 2147.0963,-183.7699 2147.4007,-194.3604 2153.9386,-191.859"/>
</g>
<!-- Node91 -->
<g id="node46" class="node">
<title>Node91</title>
<polygon fill="#ffffff" stroke="#bfbfbf" points="2094.7241,-220.5 2094.7241,-238.5 2138.5317,-238.5 2138.5317,-220.5 2094.7241,-220.5"/>
<text text-anchor="middle" x="2116.6279" y="-226.5" font-family="Helvetica,sans-Serif" font-size="10.00" fill="#000000">deque</text>
</g>
<!-- Node1&#45;&gt;Node91 -->
<g id="edge105" class="edge">
<title>Node1&#45;&gt;Node91</title>
<path fill="none" stroke="#191970" d="M1662.9465,-283.5539C1724.4131,-280.3171 1920.8059,-268.2274 2080.6279,-239 2081.9155,-238.7645 2083.2247,-238.5069 2084.5439,-238.232"/>
<polygon fill="#191970" stroke="#191970" points="2085.7211,-241.5514 2094.6643,-235.8708 2084.1306,-234.7345 2085.7211,-241.5514"/>
</g>
<!-- Node3 -->
<g id="node4" class="node">
<title>Node3</title>
<g id="a_node4"><a xlink:href="fs_8h.html" target="_top" xlink:title="fs.h">
<polygon fill="#ffffff" stroke="#ff0000" points="1868.5688,-55.5 1868.5688,-73.5 1900.687,-73.5 1900.687,-55.5 1868.5688,-55.5"/>
<text text-anchor="middle" x="1884.6279" y="-61.5" font-family="Helvetica,sans-Serif" font-size="10.00" fill="#000000">fs.h</text>
</a>
</g>
</g>
<!-- Node2&#45;&gt;Node3 -->
<g id="edge3" class="edge">
<title>Node2&#45;&gt;Node3</title>
<path fill="none" stroke="#191970" d="M1923.032,-110.4179C1916.4794,-102.5833 1906.8397,-91.0575 1898.8576,-81.5137"/>
<polygon fill="#191970" stroke="#191970" points="1901.4893,-79.2048 1892.3889,-73.7795 1896.1197,-83.6957 1901.4893,-79.2048"/>
</g>
<!-- Node5 -->
<g id="node5" class="node">
<title>Node5</title>
<polygon fill="#ffffff" stroke="#bfbfbf" points="1592.4014,-.5 1592.4014,-18.5 1632.8545,-18.5 1632.8545,-.5 1592.4014,-.5"/>
<text text-anchor="middle" x="1612.6279" y="-6.5" font-family="Helvetica,sans-Serif" font-size="10.00" fill="#000000">string</text>
</g>
<!-- Node2&#45;&gt;Node5 -->
<g id="edge13" class="edge">
<title>Node2&#45;&gt;Node5</title>
<path fill="none" stroke="#191970" d="M1930.4984,-110.3922C1929.7673,-96.2104 1926.1447,-69.026 1909.6279,-55 1889.4887,-37.8978 1715.2086,-19.3675 1643.3768,-12.381"/>
<polygon fill="#191970" stroke="#191970" points="1643.4483,-8.8718 1633.1591,-11.3981 1642.778,-15.8396 1643.4483,-8.8718"/>
</g>
<!-- Node8 -->
<g id="node6" class="node">
<title>Node8</title>
<g id="a_node6"><a xlink:href="serialize_8h.html" target="_top" xlink:title="serialize.h">
<polygon fill="#ffffff" stroke="#ff0000" points="1485.1182,-55.5 1485.1182,-73.5 1546.1377,-73.5 1546.1377,-55.5 1485.1182,-55.5"/>
<text text-anchor="middle" x="1515.6279" y="-61.5" font-family="Helvetica,sans-Serif" font-size="10.00" fill="#000000">serialize.h</text>
</a>
</g>
</g>
<!-- Node2&#45;&gt;Node8 -->
<g id="edge5" class="edge">
<title>Node2&#45;&gt;Node8</title>
<path fill="none" stroke="#191970" d="M1902.7542,-115.8059C1831.0519,-106.3032 1639.9751,-80.9797 1556.0801,-69.8611"/>
<polygon fill="#191970" stroke="#191970" points="1556.5315,-66.3904 1546.1583,-68.5462 1555.6118,-73.3298 1556.5315,-66.3904"/>
</g>
<!-- Node16 -->
<g id="node8" class="node">
<title>Node16</title>
<polygon fill="#ffffff" stroke="#bfbfbf" points="1986.9014,-.5 1986.9014,-18.5 2022.3545,-18.5 2022.3545,-.5 1986.9014,-.5"/>
<text text-anchor="middle" x="2004.6279" y="-6.5" font-family="Helvetica,sans-Serif" font-size="10.00" fill="#000000">map</text>
</g>
<!-- Node2&#45;&gt;Node16 -->
<g id="edge14" class="edge">
<title>Node2&#45;&gt;Node16</title>
<path fill="none" stroke="#191970" d="M1936.6837,-110.4982C1948.9339,-92.2885 1976.8456,-50.798 1992.8218,-27.0496"/>
<polygon fill="#191970" stroke="#191970" points="1995.8107,-28.877 1998.4885,-18.6261 1990.0027,-24.9697 1995.8107,-28.877"/>
</g>
<!-- Node3&#45;&gt;Node5 -->
<g id="edge4" class="edge">
<title>Node3&#45;&gt;Node5</title>
<path fill="none" stroke="#191970" d="M1868.4277,-61.2242C1824.1765,-52.2764 1700.7241,-27.3136 1643.046,-15.6507"/>
<polygon fill="#191970" stroke="#191970" points="1643.571,-12.1861 1633.0756,-13.6346 1642.1835,-19.0472 1643.571,-12.1861"/>
</g>
<!-- Node8&#45;&gt;Node5 -->
<g id="edge11" class="edge">
<title>Node8&#45;&gt;Node5</title>
<path fill="none" stroke="#191970" d="M1531.6455,-55.4179C1546.8098,-46.8195 1569.815,-33.7754 1587.4354,-23.7844"/>
<polygon fill="#191970" stroke="#191970" points="1589.614,-26.5727 1596.5866,-18.5956 1586.1613,-20.4834 1589.614,-26.5727"/>
</g>
<!-- Node15 -->
<g id="node7" class="node">
<title>Node15</title>
<polygon fill="#ffffff" stroke="#bfbfbf" points="1745.2412,-.5 1745.2412,-18.5 1784.0146,-18.5 1784.0146,-.5 1745.2412,-.5"/>
<text text-anchor="middle" x="1764.6279" y="-6.5" font-family="Helvetica,sans-Serif" font-size="10.00" fill="#000000">limits</text>
</g>
<!-- Node8&#45;&gt;Node15 -->
<g id="edge6" class="edge">
<title>Node8&#45;&gt;Node15</title>
<path fill="none" stroke="#191970" d="M1546.1602,-57.7559C1594.3325,-47.1155 1687.3775,-26.5634 1734.9885,-16.0469"/>
<polygon fill="#191970" stroke="#191970" points="1735.9626,-19.4161 1744.9724,-13.8416 1734.4528,-12.5809 1735.9626,-19.4161"/>
</g>
<!-- Node8&#45;&gt;Node16 -->
<g id="edge7" class="edge">
<title>Node8&#45;&gt;Node16</title>
<path fill="none" stroke="#191970" d="M1546.2171,-61.0595C1634.8442,-51.0912 1890.9102,-22.2903 1976.436,-12.6709"/>
<polygon fill="#191970" stroke="#191970" points="1976.9013,-16.1407 1986.4475,-11.5448 1976.1189,-9.1846 1976.9013,-16.1407"/>
</g>
<!-- Node8&#45;&gt;Node17 -->
<g id="edge8" class="edge">
<title>Node8&#45;&gt;Node17</title>
<path fill="none" stroke="#191970" d="M1546.2107,-62.986C1703.4334,-55.2027 2419.9431,-19.7319 2590.236,-11.3016"/>
<polygon fill="#191970" stroke="#191970" points="2590.6132,-14.7873 2600.4279,-10.797 2590.267,-7.7958 2590.6132,-14.7873"/>
</g>
<!-- Node18 -->
<g id="node10" class="node">
<title>Node18</title>
<polygon fill="#ffffff" stroke="#bfbfbf" points="1451.958,-.5 1451.958,-18.5 1481.2979,-18.5 1481.2979,-.5 1451.958,-.5"/>
<text text-anchor="middle" x="1466.6279" y="-6.5" font-family="Helvetica,sans-Serif" font-size="10.00" fill="#000000">set</text>
</g>
<!-- Node8&#45;&gt;Node18 -->
<g id="edge9" class="edge">
<title>Node8&#45;&gt;Node18</title>
<path fill="none" stroke="#191970" d="M1507.5366,-55.4179C1500.5567,-47.5833 1490.2883,-36.0575 1481.7856,-26.5137"/>
<polygon fill="#191970" stroke="#191970" points="1484.1605,-23.9178 1474.8951,-18.7795 1478.9339,-28.5743 1484.1605,-23.9178"/>
</g>
<!-- Node8&#45;&gt;Node11 -->
<g id="edge10" class="edge">
<title>Node8&#45;&gt;Node11</title>
<path fill="none" stroke="#191970" d="M1484.7099,-57.6022C1480.005,-56.6601 1475.1966,-55.7579 1470.6279,-55 1345.9117,-34.31 1196.3891,-18.9802 1130.1342,-12.6696"/>
<polygon fill="#191970" stroke="#191970" points="1130.1464,-9.1552 1119.8618,-11.7001 1129.4887,-16.1243 1130.1464,-9.1552"/>
</g>
<!-- Node21 -->
<g id="node12" class="node">
<title>Node21</title>
<polygon fill="#ffffff" stroke="#bfbfbf" points="943.0122,-.5 943.0122,-18.5 986.2437,-18.5 986.2437,-.5 943.0122,-.5"/>
<text text-anchor="middle" x="964.6279" y="-6.5" font-family="Helvetica,sans-Serif" font-size="10.00" fill="#000000">vector</text>
</g>
<!-- Node8&#45;&gt;Node21 -->
<g id="edge12" class="edge">
<title>Node8&#45;&gt;Node21</title>
<path fill="none" stroke="#191970" d="M1484.7311,-57.4678C1480.0232,-56.5442 1475.2084,-55.6831 1470.6279,-55 1290.581,-28.1509 1243.8905,-35.7823 1062.6279,-19 1040.5115,-16.9523 1015.5989,-14.5359 996.4265,-12.6526"/>
<polygon fill="#191970" stroke="#191970" points="996.7148,-9.1641 986.4199,-11.6668 996.0286,-16.1304 996.7148,-9.1641"/>
</g>
<!-- Node43&#45;&gt;Node16 -->
<g id="edge66" class="edge">
<title>Node43&#45;&gt;Node16</title>
<path fill="none" stroke="#191970" d="M1260.7204,-228.8118C1408.813,-225.5154 2027.0906,-210.402 2218.6279,-184 2325.7476,-169.2344 2388.362,-213.6637 2455.6279,-129 2468.3771,-112.9534 2465.9415,-74.3918 2444.6279,-55 2414.1287,-27.2508 2125.1202,-14.0375 2032.8179,-10.5012"/>
<polygon fill="#191970" stroke="#191970" points="2032.6912,-6.9941 2022.5673,-10.1175 2032.4294,-13.9892 2032.6912,-6.9941"/>
</g>
<!-- Node43&#45;&gt;Node18 -->
<g id="edge67" class="edge">
<title>Node43&#45;&gt;Node18</title>
<path fill="none" stroke="#191970" d="M1229.6653,-220.1501C1233.4506,-190.7494 1249.2826,-99.4941 1303.6279,-55 1324.8162,-37.6525 1401.5731,-21.4436 1441.7384,-13.9131"/>
<polygon fill="#191970" stroke="#191970" points="1442.5891,-17.3155 1451.7922,-12.0665 1441.3245,-10.4307 1442.5891,-17.3155"/>
</g>
<!-- Node43&#45;&gt;Node11 -->
<g id="edge68" class="edge">
<title>Node43&#45;&gt;Node11</title>
<path fill="none" stroke="#191970" d="M1196.4843,-223.8121C1092.2956,-205.2285 769.7943,-146.4925 755.6279,-129 750.3134,-122.4376 750.6485,-116.8201 755.6279,-110 755.9977,-109.4936 927.0266,-55.1775 927.6279,-55 973.7222,-41.3958 1027.3873,-27.1333 1061.4244,-18.2814"/>
<polygon fill="#191970" stroke="#191970" points="1062.5254,-21.6118 1071.3274,-15.7147 1060.7691,-14.8357 1062.5254,-21.6118"/>
</g>
<!-- Node43&#45;&gt;Node21 -->
<g id="edge69" class="edge">
<title>Node43&#45;&gt;Node21</title>
<path fill="none" stroke="#191970" d="M1196.4846,-228.7206C1092.6658,-225.4229 769.7914,-208.8052 713.6279,-129 694.6375,-102.0157 686.2093,-80.1005 707.6279,-55 738.8979,-18.3547 869.2628,-29.1314 932.7607,-18.5979"/>
<polygon fill="#191970" stroke="#191970" points="933.5845,-22.0029 942.7152,-16.6288 932.226,-15.136 933.5845,-22.0029"/>
</g>
<!-- Node43&#45;&gt;Node44 -->
<g id="edge16" class="edge">
<title>Node43&#45;&gt;Node44</title>
<path fill="none" stroke="#191970" d="M1216.139,-220.486C1195.6334,-206.1788 1153.059,-178.5118 1112.6279,-165 1001.9851,-128.0237 967.7796,-147.6865 852.6279,-129 851.3527,-128.7931 850.0604,-128.5795 848.7567,-128.3607"/>
<polygon fill="#191970" stroke="#191970" points="849.0913,-124.8665 838.6399,-126.6037 847.8935,-131.7632 849.0913,-124.8665"/>
</g>
<!-- Node43&#45;&gt;Node45 -->
<g id="edge34" class="edge">
<title>Node43&#45;&gt;Node45</title>
<path fill="none" stroke="#191970" d="M1238.2055,-220.4179C1246.6343,-212.425 1259.1145,-200.5903 1269.2936,-190.9377"/>
<polygon fill="#191970" stroke="#191970" points="1271.9944,-193.2001 1276.8423,-183.7795 1267.1777,-188.1207 1271.9944,-193.2001"/>
</g>
<!-- Node43&#45;&gt;Node52 -->
<g id="edge44" class="edge">
<title>Node43&#45;&gt;Node52</title>
<path fill="none" stroke="#191970" d="M1223.9634,-220.4982C1214.6109,-202.4496 1193.4074,-161.5306 1181.0507,-137.6843"/>
<polygon fill="#191970" stroke="#191970" points="1184.0654,-135.8946 1176.3569,-128.6261 1177.8502,-139.1152 1184.0654,-135.8946"/>
</g>
<!-- Node43&#45;&gt;Node54 -->
<g id="edge48" class="edge">
<title>Node43&#45;&gt;Node54</title>
<path fill="none" stroke="#191970" d="M1260.7162,-228.8829C1423.9777,-225.631 2156.276,-209.6556 2196.6279,-184 2212.4442,-173.9441 2221.3386,-153.9443 2226.0271,-138.8669"/>
<polygon fill="#191970" stroke="#191970" points="2229.4716,-139.54 2228.7367,-128.9707 2222.7201,-137.6915 2229.4716,-139.54"/>
</g>
<!-- Node59 -->
<g id="node37" class="node">
<title>Node59</title>
<g id="a_node37"><a xlink:href="timedata_8h.html" target="_top" xlink:title="timedata.h">
<polygon fill="#ffffff" stroke="#ff0000" points="796.2808,-55.5 796.2808,-73.5 858.9751,-73.5 858.9751,-55.5 796.2808,-55.5"/>
<text text-anchor="middle" x="827.6279" y="-61.5" font-family="Helvetica,sans-Serif" font-size="10.00" fill="#000000">timedata.h</text>
</a>
</g>
</g>
<!-- Node43&#45;&gt;Node59 -->
<g id="edge53" class="edge">
<title>Node43&#45;&gt;Node59</title>
<path fill="none" stroke="#191970" d="M1196.5709,-225.5029C1090.0948,-211.9108 753.2086,-166.2518 722.6279,-129 700.6967,-102.2845 748.2678,-83.5997 786.35,-73.4497"/>
<polygon fill="#191970" stroke="#191970" points="787.4423,-76.7836 796.2756,-70.9335 785.7221,-69.9982 787.4423,-76.7836"/>
</g>
<!-- Node60 -->
<g id="node38" class="node">
<title>Node60</title>
<g id="a_node38"><a xlink:href="util_8h.html" target="_top" xlink:title="util.h">
<polygon fill="#ffffff" stroke="#ff0000" points="1555.0664,-165.5 1555.0664,-183.5 1592.1895,-183.5 1592.1895,-165.5 1555.0664,-165.5"/>
<text text-anchor="middle" x="1573.6279" y="-171.5" font-family="Helvetica,sans-Serif" font-size="10.00" fill="#000000">util.h</text>
</a>
</g>
</g>
<!-- Node43&#45;&gt;Node60 -->
<g id="edge56" class="edge">
<title>Node43&#45;&gt;Node60</title>
<path fill="none" stroke="#191970" d="M1260.7749,-224.3751C1327.6638,-213.7117 1480.8971,-189.2832 1544.8078,-179.0945"/>
<polygon fill="#191970" stroke="#191970" points="1545.6446,-182.5054 1554.9689,-177.4746 1544.5425,-175.5927 1545.6446,-182.5054"/>
</g>
<!-- Node44&#45;&gt;Node5 -->
<g id="edge32" class="edge">
<title>Node44&#45;&gt;Node5</title>
<path fill="none" stroke="#191970" d="M838.7692,-111.0581C899.9326,-97.4333 1025.8251,-70.5543 1133.6279,-55 1221.021,-42.3905 1490.7311,-19.578 1582.0433,-12.0131"/>
<polygon fill="#191970" stroke="#191970" points="1582.5926,-15.4797 1592.2703,-11.1678 1582.0159,-8.5035 1582.5926,-15.4797"/>
</g>
<!-- Node44&#45;&gt;Node8 -->
<g id="edge30" class="edge">
<title>Node44&#45;&gt;Node8</title>
<path fill="none" stroke="#191970" d="M838.8091,-114.9495C853.3933,-113.2551 870.282,-111.4045 885.6279,-110 1113.6788,-89.1276 1171.2818,-91.3463 1399.6279,-74 1424.6747,-72.0973 1452.7495,-69.8024 1475.0053,-67.9448"/>
<polygon fill="#191970" stroke="#191970" points="1475.4336,-71.4213 1485.1064,-67.0984 1474.849,-64.4457 1475.4336,-71.4213"/>
</g>
<!-- Node44&#45;&gt;Node11 -->
<g id="edge31" class="edge">
<title>Node44&#45;&gt;Node11</title>
<path fill="none" stroke="#191970" d="M825.6872,-110.4982C877.9103,-90.959 1001.7735,-44.6156 1061.8239,-22.1478"/>
<polygon fill="#191970" stroke="#191970" points="1063.0968,-25.4085 1071.2362,-18.6261 1060.6438,-18.8524 1063.0968,-25.4085"/>
</g>
<!-- Node44&#45;&gt;Node21 -->
<g id="edge33" class="edge">
<title>Node44&#45;&gt;Node21</title>
<path fill="none" stroke="#191970" d="M771.8351,-110.4891C739.9114,-99.3404 696.3832,-78.88 716.6279,-55 746.5089,-19.7534 871.2888,-28.9706 932.7167,-18.6168"/>
<polygon fill="#191970" stroke="#191970" points="933.5953,-22.0104 942.711,-16.611 932.2178,-15.1472 933.5953,-22.0104"/>
</g>
<!-- Node44&#45;&gt;Node27 -->
<g id="edge17" class="edge">
<title>Node44&#45;&gt;Node27</title>
<path fill="none" stroke="#191970" d="M764.6751,-112.0825C712.9098,-101.6916 619.2432,-82.8899 566.4768,-72.2981"/>
<polygon fill="#191970" stroke="#191970" points="566.9866,-68.8307 556.4934,-70.2942 565.6089,-75.6938 566.9866,-68.8307"/>
</g>
<!-- Node26 -->
<g id="node16" class="node">
<title>Node26</title>
<polygon fill="#ffffff" stroke="#bfbfbf" points="802.5615,-.5 802.5615,-18.5 864.6943,-18.5 864.6943,-.5 802.5615,-.5"/>
<text text-anchor="middle" x="833.6279" y="-6.5" font-family="Helvetica,sans-Serif" font-size="10.00" fill="#000000">type_traits</text>
</g>
<!-- Node27&#45;&gt;Node26 -->
<g id="edge18" class="edge">
<title>Node27&#45;&gt;Node26</title>
<path fill="none" stroke="#191970" d="M556.2618,-57.934C561.0492,-56.9052 565.972,-55.8894 570.6279,-55 666.0613,-36.7704 693.4213,-38.4765 792.1293,-19.1841"/>
<polygon fill="#191970" stroke="#191970" points="793.1019,-22.5596 802.2326,-17.1855 791.7435,-15.6927 793.1019,-22.5596"/>
</g>
<!-- Node28 -->
<g id="node17" class="node">
<title>Node28</title>
<polygon fill="#ffffff" stroke="#bfbfbf" points="882.2881,-.5 882.2881,-18.5 924.9678,-18.5 924.9678,-.5 882.2881,-.5"/>
<text text-anchor="middle" x="903.6279" y="-6.5" font-family="Helvetica,sans-Serif" font-size="10.00" fill="#000000">fcntl.h</text>
</g>
<!-- Node27&#45;&gt;Node28 -->
<g id="edge19" class="edge">
<title>Node27&#45;&gt;Node28</title>
<path fill="none" stroke="#191970" d="M556.2315,-57.766C561.0225,-56.7574 565.9545,-55.7919 570.6279,-55 701.0716,-32.8974 739.2124,-46.875 871.9804,-19.0136"/>
<polygon fill="#191970" stroke="#191970" points="873.0825,-22.3571 882.1287,-16.8421 871.6177,-15.5121 873.0825,-22.3571"/>
</g>
<!-- Node29 -->
<g id="node18" class="node">
<title>Node29</title>
<polygon fill="#ffffff" stroke="#bfbfbf" points="81.6772,-.5 81.6772,-18.5 151.5786,-18.5 151.5786,-.5 81.6772,-.5"/>
<text text-anchor="middle" x="116.6279" y="-6.5" font-family="Helvetica,sans-Serif" font-size="10.00" fill="#000000">sys/mman.h</text>
</g>
<!-- Node27&#45;&gt;Node29 -->
<g id="edge20" class="edge">
<title>Node27&#45;&gt;Node29</title>
<path fill="none" stroke="#191970" d="M498.9492,-61.8249C438.474,-55.9958 293.2804,-41.0115 161.5042,-19.0182"/>
<polygon fill="#191970" stroke="#191970" points="162.0807,-15.5661 151.6378,-17.3539 160.9163,-22.4686 162.0807,-15.5661"/>
</g>
<!-- Node30 -->
<g id="node19" class="node">
<title>Node30</title>
<polygon fill="#ffffff" stroke="#bfbfbf" points="169.5073,-.5 169.5073,-18.5 237.7485,-18.5 237.7485,-.5 169.5073,-.5"/>
<text text-anchor="middle" x="203.6279" y="-6.5" font-family="Helvetica,sans-Serif" font-size="10.00" fill="#000000">sys/select.h</text>
</g>
<!-- Node27&#45;&gt;Node30 -->
<g id="edge21" class="edge">
<title>Node27&#45;&gt;Node30</title>
<path fill="none" stroke="#191970" d="M498.812,-60.3873C449.5037,-53.2307 345.5721,-37.6285 247.898,-19.1596"/>
<polygon fill="#191970" stroke="#191970" points="248.3376,-15.6805 237.8592,-17.2469 247.0273,-22.5568 248.3376,-15.6805"/>
</g>
<!-- Node31 -->
<g id="node20" class="node">
<title>Node31</title>
<polygon fill="#ffffff" stroke="#bfbfbf" points="256.1182,-.5 256.1182,-18.5 327.1377,-18.5 327.1377,-.5 256.1182,-.5"/>
<text text-anchor="middle" x="291.6279" y="-6.5" font-family="Helvetica,sans-Serif" font-size="10.00" fill="#000000">sys/socket.h</text>
</g>
<!-- Node27&#45;&gt;Node31 -->
<g id="edge22" class="edge">
<title>Node27&#45;&gt;Node31</title>
<path fill="none" stroke="#191970" d="M498.6897,-57.7559C458.3563,-48.3562 384.833,-31.2215 337.1261,-20.1034"/>
<polygon fill="#191970" stroke="#191970" points="337.8925,-16.6883 327.3591,-17.8272 336.3037,-23.5056 337.8925,-16.6883"/>
</g>
<!-- Node32 -->
<g id="node21" class="node">
<title>Node32</title>
<polygon fill="#ffffff" stroke="#bfbfbf" points="345.6182,-.5 345.6182,-18.5 411.6377,-18.5 411.6377,-.5 345.6182,-.5"/>
<text text-anchor="middle" x="378.6279" y="-6.5" font-family="Helvetica,sans-Serif" font-size="10.00" fill="#000000">sys/types.h</text>
</g>
<!-- Node27&#45;&gt;Node32 -->
<g id="edge23" class="edge">
<title>Node27&#45;&gt;Node32</title>
<path fill="none" stroke="#191970" d="M503.0236,-55.4179C478.4359,-46.3419 440.4285,-32.3123 412.8947,-22.1488"/>
<polygon fill="#191970" stroke="#191970" points="413.8621,-18.7751 403.2688,-18.5956 411.4381,-25.342 413.8621,-18.7751"/>
</g>
<!-- Node33 -->
<g id="node22" class="node">
<title>Node33</title>
<polygon fill="#ffffff" stroke="#bfbfbf" points="429.6182,-.5 429.6182,-18.5 475.6377,-18.5 475.6377,-.5 429.6182,-.5"/>
<text text-anchor="middle" x="452.6279" y="-6.5" font-family="Helvetica,sans-Serif" font-size="10.00" fill="#000000">net/if.h</text>
</g>
<!-- Node27&#45;&gt;Node33 -->
<g id="edge24" class="edge">
<title>Node27&#45;&gt;Node33</title>
<path fill="none" stroke="#191970" d="M515.2432,-55.4179C503.8439,-47.0584 486.7142,-34.4966 473.2514,-24.6239"/>
<polygon fill="#191970" stroke="#191970" points="475.1649,-21.6869 465.0311,-18.5956 471.0253,-27.3317 475.1649,-21.6869"/>
</g>
<!-- Node34 -->
<g id="node23" class="node">
<title>Node34</title>
<polygon fill="#ffffff" stroke="#bfbfbf" points="493.165,-.5 493.165,-18.5 558.0908,-18.5 558.0908,-.5 493.165,-.5"/>
<text text-anchor="middle" x="525.6279" y="-6.5" font-family="Helvetica,sans-Serif" font-size="10.00" fill="#000000">netinet/in.h</text>
</g>
<!-- Node27&#45;&gt;Node34 -->
<g id="edge25" class="edge">
<title>Node27&#45;&gt;Node34</title>
<path fill="none" stroke="#191970" d="M527.2977,-55.4179C527.0358,-48.2164 526.6605,-37.8962 526.332,-28.8632"/>
<polygon fill="#191970" stroke="#191970" points="529.8265,-28.6456 525.9654,-18.7795 522.8312,-28.9001 529.8265,-28.6456"/>
</g>
<!-- Node35 -->
<g id="node24" class="node">
<title>Node35</title>
<polygon fill="#ffffff" stroke="#bfbfbf" points="576.3867,-.5 576.3867,-18.5 646.8691,-18.5 646.8691,-.5 576.3867,-.5"/>
<text text-anchor="middle" x="611.6279" y="-6.5" font-family="Helvetica,sans-Serif" font-size="10.00" fill="#000000">netinet/tcp.h</text>
</g>
<!-- Node27&#45;&gt;Node35 -->
<g id="edge26" class="edge">
<title>Node27&#45;&gt;Node35</title>
<path fill="none" stroke="#191970" d="M541.4988,-55.4179C554.3876,-46.9788 573.8173,-34.257 588.9593,-24.3426"/>
<polygon fill="#191970" stroke="#191970" points="591.2875,-27.0017 597.7364,-18.5956 587.453,-21.1454 591.2875,-27.0017"/>
</g>
<!-- Node27&#45;&gt;Node36 -->
<g id="edge27" class="edge">
<title>Node27&#45;&gt;Node36</title>
<path fill="none" stroke="#191970" d="M498.9781,-62.9129C428.3526,-58.7294 240.1534,-45.935 73.2781,-18.9011"/>
<polygon fill="#191970" stroke="#191970" points="73.7669,-15.4345 63.332,-17.2685 72.633,-22.3421 73.7669,-15.4345"/>
</g>
<!-- Node37 -->
<g id="node26" class="node">
<title>Node37</title>
<polygon fill="#ffffff" stroke="#bfbfbf" points="664.4507,-.5 664.4507,-18.5 718.8052,-18.5 718.8052,-.5 664.4507,-.5"/>
<text text-anchor="middle" x="691.6279" y="-6.5" font-family="Helvetica,sans-Serif" font-size="10.00" fill="#000000">ifaddrs.h</text>
</g>
<!-- Node27&#45;&gt;Node37 -->
<g id="edge28" class="edge">
<title>Node27&#45;&gt;Node37</title>
<path fill="none" stroke="#191970" d="M554.7092,-55.4179C582.0914,-46.2348 624.5944,-31.9807 654.9787,-21.7909"/>
<polygon fill="#191970" stroke="#191970" points="656.4109,-25.0023 664.779,-18.5042 654.1851,-18.3655 656.4109,-25.0023"/>
</g>
<!-- Node38 -->
<g id="node27" class="node">
<title>Node38</title>
<polygon fill="#ffffff" stroke="#bfbfbf" points="737.0713,-.5 737.0713,-18.5 784.1846,-18.5 784.1846,-.5 737.0713,-.5"/>
<text text-anchor="middle" x="760.6279" y="-6.5" font-family="Helvetica,sans-Serif" font-size="10.00" fill="#000000">limits.h</text>
</g>
<!-- Node27&#45;&gt;Node38 -->
<g id="edge29" class="edge">
<title>Node27&#45;&gt;Node38</title>
<path fill="none" stroke="#191970" d="M556.5767,-58.0096C602.7188,-47.6517 690.7286,-27.8397 726.7801,-19.0424"/>
<polygon fill="#191970" stroke="#191970" points="728.0301,-22.3374 736.8789,-16.5108 726.3279,-15.5475 728.0301,-22.3374"/>
</g>
<!-- Node45&#45;&gt;Node5 -->
<g id="edge43" class="edge">
<title>Node45&#45;&gt;Node5</title>
<path fill="none" stroke="#191970" d="M1286.4407,-165.3C1286.5222,-142.6616 1290.1254,-83.9919 1323.6279,-55 1343.0356,-38.2053 1511.9548,-19.567 1582.1944,-12.4659"/>
<polygon fill="#191970" stroke="#191970" points="1582.5959,-15.9433 1592.1979,-11.4653 1581.8991,-8.9781 1582.5959,-15.9433"/>
</g>
<!-- Node45&#45;&gt;Node8 -->
<g id="edge36" class="edge">
<title>Node45&#45;&gt;Node8</title>
<path fill="none" stroke="#191970" d="M1316.7125,-171.8127C1368.5834,-166.5799 1471.7821,-153.3457 1497.6279,-129 1509.781,-117.5523 1513.9634,-98.6507 1515.2934,-84.2606"/>
<polygon fill="#191970" stroke="#191970" points="1518.8075,-84.0884 1515.8462,-73.9158 1511.8174,-83.7148 1518.8075,-84.0884"/>
</g>
<!-- Node45&#45;&gt;Node11 -->
<g id="edge42" class="edge">
<title>Node45&#45;&gt;Node11</title>
<path fill="none" stroke="#191970" d="M1256.3681,-169.7815C1210.423,-162.1761 1125.7489,-146.2991 1100.6279,-129 1070.1777,-108.031 1051.2176,-90.167 1062.6279,-55 1066.0701,-44.3911 1073.0167,-34.1855 1079.6524,-26.1379"/>
<polygon fill="#191970" stroke="#191970" points="1082.3055,-28.4211 1086.2949,-18.606 1077.0555,-23.791 1082.3055,-28.4211"/>
</g>
<!-- Node45&#45;&gt;Node44 -->
<g id="edge35" class="edge">
<title>Node45&#45;&gt;Node44</title>
<path fill="none" stroke="#191970" d="M1256.5338,-172.1765C1185.8315,-166.5365 1003.6978,-150.9536 852.6279,-129 851.3495,-128.8142 850.0542,-128.6194 848.748,-128.4172"/>
<polygon fill="#191970" stroke="#191970" points="849.0536,-124.9205 838.6176,-126.7484 847.9157,-131.8274 849.0536,-124.9205"/>
</g>
<!-- Node45&#45;&gt;Node46 -->
<g id="edge37" class="edge">
<title>Node45&#45;&gt;Node46</title>
<path fill="none" stroke="#191970" d="M1277.217,-165.4982C1257.8425,-146.9662 1213.2601,-104.3221 1188.6746,-80.8056"/>
<polygon fill="#191970" stroke="#191970" points="1190.8146,-78.0091 1181.1689,-73.6261 1185.9761,-83.0677 1190.8146,-78.0091"/>
</g>
<!-- Node45&#45;&gt;Node51 -->
<g id="edge41" class="edge">
<title>Node45&#45;&gt;Node51</title>
<path fill="none" stroke="#191970" d="M1316.7579,-169.8581C1383.1369,-159.6317 1541.5537,-135.2257 1610.5587,-124.5947"/>
<polygon fill="#191970" stroke="#191970" points="1611.4877,-127.993 1620.8381,-123.011 1610.4218,-121.0746 1611.4877,-127.993"/>
</g>
<!-- Node46&#45;&gt;Node5 -->
<g id="edge39" class="edge">
<title>Node46&#45;&gt;Node5</title>
<path fill="none" stroke="#191970" d="M1200.2234,-60.9337C1279.3171,-51.0694 1500.5337,-23.48 1582.0028,-13.3195"/>
<polygon fill="#191970" stroke="#191970" points="1582.6156,-16.7702 1592.1055,-12.0595 1581.7492,-9.8241 1582.6156,-16.7702"/>
</g>
<!-- Node46&#45;&gt;Node11 -->
<g id="edge38" class="edge">
<title>Node46&#45;&gt;Node11</title>
<path fill="none" stroke="#191970" d="M1159.0781,-55.4179C1147.5268,-47.0584 1130.1687,-34.4966 1116.5264,-24.6239"/>
<polygon fill="#191970" stroke="#191970" points="1118.3496,-21.6229 1108.1964,-18.5956 1114.2457,-27.2938 1118.3496,-21.6229"/>
</g>
<!-- Node46&#45;&gt;Node21 -->
<g id="edge40" class="edge">
<title>Node46&#45;&gt;Node21</title>
<path fill="none" stroke="#191970" d="M1142.8455,-56.8525C1104.3184,-46.6158 1036.2148,-28.5207 996.28,-17.91"/>
<polygon fill="#191970" stroke="#191970" points="997.0931,-14.5046 986.5296,-15.3193 995.2955,-21.2699 997.0931,-14.5046"/>
</g>
<!-- Node52&#45;&gt;Node15 -->
<g id="edge47" class="edge">
<title>Node52&#45;&gt;Node15</title>
<path fill="none" stroke="#191970" d="M1200.8235,-117.8529C1265.3896,-113.8164 1424.9304,-101.6714 1555.6279,-74 1621.0729,-60.1439 1695.4172,-34.8143 1735.4217,-20.3635"/>
<polygon fill="#191970" stroke="#191970" points="1736.8621,-23.5638 1745.0596,-16.8518 1734.4656,-16.9868 1736.8621,-23.5638"/>
</g>
<!-- Node52&#45;&gt;Node11 -->
<g id="edge46" class="edge">
<title>Node52&#45;&gt;Node11</title>
<path fill="none" stroke="#191970" d="M1163.3048,-110.4444C1155.2769,-101.507 1142.9981,-87.29 1133.6279,-74 1123.005,-58.9332 1112.4879,-40.7611 1105.2205,-27.5505"/>
<polygon fill="#191970" stroke="#191970" points="1108.1867,-25.6775 1100.3487,-18.5489 1102.0305,-29.0094 1108.1867,-25.6775"/>
</g>
<!-- Node52&#45;&gt;Node46 -->
<g id="edge45" class="edge">
<title>Node52&#45;&gt;Node46</title>
<path fill="none" stroke="#191970" d="M1171.6279,-110.4179C1171.6279,-103.2164 1171.6279,-92.8962 1171.6279,-83.8632"/>
<polygon fill="#191970" stroke="#191970" points="1175.128,-83.7794 1171.6279,-73.7795 1168.128,-83.7795 1175.128,-83.7794"/>
</g>
<!-- Node55 -->
<g id="node33" class="node">
<title>Node55</title>
<g id="a_node33"><a xlink:href="threadsafety_8h.html" target="_top" xlink:title="threadsafety.h">
<polygon fill="#ffffff" stroke="#000000" points="2270.3096,-55.5 2270.3096,-73.5 2348.9463,-73.5 2348.9463,-55.5 2270.3096,-55.5"/>
<text text-anchor="middle" x="2309.6279" y="-61.5" font-family="Helvetica,sans-Serif" font-size="10.00" fill="#000000">threadsafety.h</text>
</a>
</g>
</g>
<!-- Node54&#45;&gt;Node55 -->
<g id="edge49" class="edge">
<title>Node54&#45;&gt;Node55</title>
<path fill="none" stroke="#191970" d="M2243.6732,-110.4179C2255.7948,-101.9788 2274.0679,-89.257 2288.3086,-79.3426"/>
<polygon fill="#191970" stroke="#191970" points="2290.3562,-82.1818 2296.5633,-73.5956 2286.3565,-76.4369 2290.3562,-82.1818"/>
</g>
<!-- Node54&#45;&gt;Node56 -->
<g id="edge50" class="edge">
<title>Node54&#45;&gt;Node56</title>
<path fill="none" stroke="#191970" d="M2216.0965,-110.4179C2202.4666,-101.8992 2181.8544,-89.0166 2165.9283,-79.0627"/>
<polygon fill="#191970" stroke="#191970" points="2167.5159,-75.9277 2157.1809,-73.5956 2163.8059,-81.8637 2167.5159,-75.9277"/>
</g>
<!-- Node54&#45;&gt;Node57 -->
<g id="edge51" class="edge">
<title>Node54&#45;&gt;Node57</title>
<path fill="none" stroke="#191970" d="M2207.9793,-112.4223C2177.1367,-102.784 2121.7578,-85.4781 2086.6675,-74.5124"/>
<polygon fill="#191970" stroke="#191970" points="2087.501,-71.106 2076.9122,-71.4638 2085.413,-77.7873 2087.501,-71.106"/>
</g>
<!-- Node58 -->
<g id="node36" class="node">
<title>Node58</title>
<polygon fill="#ffffff" stroke="#bfbfbf" points="2209.0122,-55.5 2209.0122,-73.5 2252.2437,-73.5 2252.2437,-55.5 2209.0122,-55.5"/>
<text text-anchor="middle" x="2230.6279" y="-61.5" font-family="Helvetica,sans-Serif" font-size="10.00" fill="#000000">mutex</text>
</g>
<!-- Node54&#45;&gt;Node58 -->
<g id="edge52" class="edge">
<title>Node54&#45;&gt;Node58</title>
<path fill="none" stroke="#191970" d="M2230.6279,-110.4179C2230.6279,-103.2164 2230.6279,-92.8962 2230.6279,-83.8632"/>
<polygon fill="#191970" stroke="#191970" points="2234.128,-83.7794 2230.6279,-73.7795 2227.128,-83.7795 2234.128,-83.7794"/>
</g>
<!-- Node59&#45;&gt;Node11 -->
<g id="edge54" class="edge">
<title>Node59&#45;&gt;Node11</title>
<path fill="none" stroke="#191970" d="M859.0935,-57.8289C863.6338,-56.8745 868.2498,-55.9088 872.6279,-55 939.4264,-41.1346 1017.5586,-25.2752 1061.3515,-16.4185"/>
<polygon fill="#191970" stroke="#191970" points="1062.09,-19.8401 1071.1983,-14.4281 1060.703,-12.9789 1062.09,-19.8401"/>
</g>
<!-- Node59&#45;&gt;Node21 -->
<g id="edge55" class="edge">
<title>Node59&#45;&gt;Node21</title>
<path fill="none" stroke="#191970" d="M850.2507,-55.4179C872.9283,-46.3137 908.0213,-32.2253 933.356,-22.0544"/>
<polygon fill="#191970" stroke="#191970" points="934.9012,-25.2057 942.8773,-18.232 932.2932,-18.7096 934.9012,-25.2057"/>
</g>
<!-- Node60&#45;&gt;Node3 -->
<g id="edge58" class="edge">
<title>Node60&#45;&gt;Node3</title>
<path fill="none" stroke="#191970" d="M1592.4559,-173.746C1648.6773,-171.15 1814.0099,-160.9094 1855.6279,-129 1869.9142,-118.0464 1877.3488,-98.4812 1881.0938,-83.7624"/>
<polygon fill="#191970" stroke="#191970" points="1884.5826,-84.1901 1883.2908,-73.6743 1877.7429,-82.7005 1884.5826,-84.1901"/>
</g>
<!-- Node60&#45;&gt;Node5 -->
<g id="edge64" class="edge">
<title>Node60&#45;&gt;Node5</title>
<path fill="none" stroke="#191970" d="M1575.8365,-165.1561C1582.0306,-138.9504 1599.662,-64.3557 1608.0656,-28.8021"/>
<polygon fill="#191970" stroke="#191970" points="1611.5494,-29.2784 1610.4436,-18.7414 1604.7371,-27.6681 1611.5494,-29.2784"/>
</g>
<!-- Node60&#45;&gt;Node16 -->
<g id="edge61" class="edge">
<title>Node60&#45;&gt;Node16</title>
<path fill="none" stroke="#191970" d="M1592.3182,-173.53C1666.6089,-169.516 1938.3868,-153.2694 1967.6279,-129 1997.4588,-104.2411 2003.6782,-55.9108 2004.7099,-28.9175"/>
<polygon fill="#191970" stroke="#191970" points="2008.2116,-28.8462 2004.8882,-18.7861 2001.2127,-28.723 2008.2116,-28.8462"/>
</g>
<!-- Node60&#45;&gt;Node18 -->
<g id="edge62" class="edge">
<title>Node60&#45;&gt;Node18</title>
<path fill="none" stroke="#191970" d="M1560.4787,-165.451C1538.7311,-149.6843 1495.6847,-114.9212 1475.6279,-74 1468.7773,-60.0228 1466.6921,-42.4251 1466.228,-29.1432"/>
<polygon fill="#191970" stroke="#191970" points="1469.7256,-28.7579 1466.1585,-18.7817 1462.7258,-28.805 1469.7256,-28.7579"/>
</g>
<!-- Node60&#45;&gt;Node11 -->
<g id="edge63" class="edge">
<title>Node60&#45;&gt;Node11</title>
<path fill="none" stroke="#191970" d="M1554.9671,-173.7626C1475.3709,-170.4593 1166.8013,-155.9899 1133.6279,-129 1103.4845,-104.4753 1096.9022,-56.0526 1095.6794,-28.9819"/>
<polygon fill="#191970" stroke="#191970" points="1099.1744,-28.7305 1095.4304,-18.8193 1092.1765,-28.902 1099.1744,-28.7305"/>
</g>
<!-- Node60&#45;&gt;Node21 -->
<g id="edge65" class="edge">
<title>Node60&#45;&gt;Node21</title>
<path fill="none" stroke="#191970" d="M1554.8251,-173.7221C1451.1604,-169.3713 951.6697,-147.5819 885.6279,-129 882.4584,-128.1082 782.3324,-76.817 780.6279,-74 731.4437,7.2864 732.4659,-70.8909 933.2862,-18.9029"/>
<polygon fill="#191970" stroke="#191970" points="934.2314,-22.2733 943.0007,-16.3277 932.4377,-15.507 934.2314,-22.2733"/>
</g>
<!-- Node60&#45;&gt;Node27 -->
<g id="edge57" class="edge">
<title>Node60&#45;&gt;Node27</title>
<path fill="none" stroke="#191970" d="M1554.8165,-173.7025C1440.0902,-168.8055 836.819,-142.5719 755.6279,-129 685.6143,-117.2965 606.3946,-92.0649 562.1905,-76.8601"/>
<polygon fill="#191970" stroke="#191970" points="563.1138,-73.4758 552.519,-73.5007 560.8169,-80.0882 563.1138,-73.4758"/>
</g>
<!-- Node60&#45;&gt;Node51 -->
<g id="edge60" class="edge">
<title>Node60&#45;&gt;Node51</title>
<path fill="none" stroke="#191970" d="M1585.187,-165.4179C1595.6619,-157.1876 1611.3211,-144.8839 1623.7943,-135.0836"/>
<polygon fill="#191970" stroke="#191970" points="1626.1169,-137.7098 1631.8177,-128.7795 1621.7921,-132.2056 1626.1169,-137.7098"/>
</g>
<!-- Node60&#45;&gt;Node54 -->
<g id="edge59" class="edge">
<title>Node60&#45;&gt;Node54</title>
<path fill="none" stroke="#191970" d="M1592.2323,-172.9426C1683.0549,-165.3394 2080.2301,-132.0904 2197.7551,-122.2519"/>
<polygon fill="#191970" stroke="#191970" points="2198.2534,-125.7225 2207.9265,-121.4004 2197.6694,-118.7469 2198.2534,-125.7225"/>
</g>
<!-- Node73&#45;&gt;Node11 -->
<g id="edge71" class="edge">
<title>Node73&#45;&gt;Node11</title>
<path fill="none" stroke="#191970" d="M1332.6549,-58.5093C1283.1706,-48.2776 1182.6074,-27.4845 1129.7856,-16.5627"/>
<polygon fill="#191970" stroke="#191970" points="1130.3887,-13.1134 1119.8871,-14.516 1128.9712,-19.9684 1130.3887,-13.1134"/>
</g>
<!-- Node74&#45;&gt;Node8 -->
<g id="edge73" class="edge">
<title>Node74&#45;&gt;Node8</title>
<path fill="none" stroke="#191970" d="M1048.4396,-116.6204C1129.0122,-107.6316 1376.3422,-80.039 1474.6844,-69.0677"/>
<polygon fill="#191970" stroke="#191970" points="1475.2755,-72.5236 1484.8257,-67.9364 1474.4993,-65.5668 1475.2755,-72.5236"/>
</g>
<!-- Node74&#45;&gt;Node21 -->
<g id="edge74" class="edge">
<title>Node74&#45;&gt;Node21</title>
<path fill="none" stroke="#191970" d="M1013.8824,-110.4117C1005.8712,-101.675 994.1481,-87.7972 986.6279,-74 978.7539,-59.5535 972.9426,-41.7694 969.2766,-28.5366"/>
<polygon fill="#191970" stroke="#191970" points="972.6126,-27.4586 966.7035,-18.6647 965.8389,-29.2242 972.6126,-27.4586"/>
</g>
<!-- Node75&#45;&gt;Node8 -->
<g id="edge77" class="edge">
<title>Node75&#45;&gt;Node8</title>
<path fill="none" stroke="#191970" d="M940.926,-116.0475C954.5254,-114.105 972.0254,-111.73 987.6279,-110 1035.5693,-104.6844 1359.2628,-77.5463 1474.7723,-67.9045"/>
<polygon fill="#191970" stroke="#191970" points="1475.2927,-71.3733 1484.967,-67.0538 1474.7106,-64.3976 1475.2927,-71.3733"/>
</g>
<!-- Node75&#45;&gt;Node21 -->
<g id="edge79" class="edge">
<title>Node75&#45;&gt;Node21</title>
<path fill="none" stroke="#191970" d="M894.3635,-112.9398C858.7166,-102.658 794.01,-82.9954 787.6279,-74 782.7416,-67.1129 782.4204,-61.6476 787.6279,-55 826.9909,-4.7522 865.5806,-33.8821 933.2483,-18.7411"/>
<polygon fill="#191970" stroke="#191970" points="934.1441,-22.125 942.9926,-16.298 932.4416,-15.3351 934.1441,-22.125"/>
</g>
<!-- Node75&#45;&gt;Node46 -->
<g id="edge78" class="edge">
<title>Node75&#45;&gt;Node46</title>
<path fill="none" stroke="#191970" d="M940.6815,-113.4114C945.2917,-112.2417 950.1068,-111.0539 954.6279,-110 1016.751,-95.5195 1089.3756,-80.7203 1132.8747,-72.0828"/>
<polygon fill="#191970" stroke="#191970" points="1133.6243,-75.5025 1142.7546,-70.1276 1132.2653,-68.6356 1133.6243,-75.5025"/>
</g>
<!-- Node84&#45;&gt;Node16 -->
<g id="edge81" class="edge">
<title>Node84&#45;&gt;Node16</title>
<path fill="none" stroke="#191970" d="M2369.1577,-220.3382C2422.286,-194.2709 2561.7337,-117.5383 2504.6279,-55 2472.6228,-19.9502 2133.1206,-11.6052 2032.5483,-9.8955"/>
<polygon fill="#191970" stroke="#191970" points="2032.5878,-6.3958 2022.5327,-9.7341 2032.4749,-13.3949 2032.5878,-6.3958"/>
</g>
<!-- Node85&#45;&gt;Node5 -->
<g id="edge86" class="edge">
<title>Node85&#45;&gt;Node5</title>
<path fill="none" stroke="#191970" d="M1717.2988,-110.4982C1698.0929,-91.9662 1653.8981,-49.3221 1629.5264,-25.8056"/>
<polygon fill="#191970" stroke="#191970" points="1631.7125,-23.0512 1622.0859,-18.6261 1626.8518,-28.0885 1631.7125,-23.0512"/>
</g>
<!-- Node85&#45;&gt;Node8 -->
<g id="edge85" class="edge">
<title>Node85&#45;&gt;Node8</title>
<path fill="none" stroke="#191970" d="M1691.7856,-110.4179C1654.5292,-100.7065 1595.5155,-85.3238 1556.1944,-75.0742"/>
<polygon fill="#191970" stroke="#191970" points="1556.9604,-71.657 1546.4009,-72.5214 1555.1947,-78.4306 1556.9604,-71.657"/>
</g>
<!-- Node85&#45;&gt;Node73 -->
<g id="edge84" class="edge">
<title>Node85&#45;&gt;Node73</title>
<path fill="none" stroke="#191970" d="M1684.6268,-111.5377C1681.5839,-111.0034 1678.5602,-110.4853 1675.6279,-110 1576.9413,-93.6653 1460.2607,-77.6097 1400.7732,-69.6567"/>
<polygon fill="#191970" stroke="#191970" points="1401.0675,-66.1651 1390.6928,-68.3136 1400.1429,-73.1038 1401.0675,-66.1651"/>
</g>
<!-- Node86&#45;&gt;Node5 -->
<g id="edge95" class="edge">
<title>Node86&#45;&gt;Node5</title>
<path fill="none" stroke="#191970" d="M1800.8974,-110.2907C1779.026,-97.5573 1738.1134,-73.9952 1702.6279,-55 1682.05,-43.9847 1658.4976,-32.1031 1640.6491,-23.2446"/>
<polygon fill="#191970" stroke="#191970" points="1641.8905,-19.954 1631.3751,-18.6589 1638.7878,-26.2288 1641.8905,-19.954"/>
</g>
<!-- Node86&#45;&gt;Node8 -->
<g id="edge90" class="edge">
<title>Node86&#45;&gt;Node8</title>
<path fill="none" stroke="#191970" d="M1786.4396,-111.9349C1783.4682,-111.254 1780.4933,-110.5971 1777.6279,-110 1699.8271,-93.7876 1608.1922,-78.8054 1556.5059,-70.7295"/>
<polygon fill="#191970" stroke="#191970" points="1556.8286,-67.2377 1546.4097,-69.1605 1555.7536,-74.1547 1556.8286,-67.2377"/>
</g>
<!-- Node86&#45;&gt;Node15 -->
<g id="edge91" class="edge">
<title>Node86&#45;&gt;Node15</title>
<path fill="none" stroke="#191970" d="M1812.3726,-110.4982C1803.8405,-92.4496 1784.4969,-51.5306 1773.2241,-27.6843"/>
<polygon fill="#191970" stroke="#191970" points="1776.3802,-26.171 1768.9421,-18.6261 1770.0517,-29.1627 1776.3802,-26.171"/>
</g>
<!-- Node86&#45;&gt;Node16 -->
<g id="edge92" class="edge">
<title>Node86&#45;&gt;Node16</title>
<path fill="none" stroke="#191970" d="M1820.4174,-110.1311C1826.5653,-96.0959 1840.0317,-69.6949 1859.6279,-55 1894.7485,-28.6636 1945.4669,-17.3412 1976.6726,-12.6415"/>
<polygon fill="#191970" stroke="#191970" points="1977.4101,-16.073 1986.8392,-11.2415 1976.4552,-9.1385 1977.4101,-16.073"/>
</g>
<!-- Node86&#45;&gt;Node18 -->
<g id="edge93" class="edge">
<title>Node86&#45;&gt;Node18</title>
<path fill="none" stroke="#191970" d="M1791.2532,-110.4328C1754.9447,-97.5622 1685.9913,-73.5041 1626.6279,-55 1579.0684,-40.1753 1522.9557,-24.6702 1491.4106,-16.1327"/>
<polygon fill="#191970" stroke="#191970" points="1492.2688,-12.7391 1481.7025,-13.5155 1490.4467,-19.4979 1492.2688,-12.7391"/>
</g>
<!-- Node86&#45;&gt;Node11 -->
<g id="edge94" class="edge">
<title>Node86&#45;&gt;Node11</title>
<path fill="none" stroke="#191970" d="M1786.3978,-112.1208C1783.4349,-111.4022 1780.4734,-110.6857 1777.6279,-110 1710.5562,-93.8358 1693.5132,-90.9191 1626.6279,-74 1594.9595,-65.9892 1587.7659,-60.8493 1555.6279,-55 1398.0273,-26.3157 1206.5276,-14.7004 1129.8114,-10.9751"/>
<polygon fill="#191970" stroke="#191970" points="1129.9176,-7.4763 1119.7637,-10.5008 1129.5875,-14.4685 1129.9176,-7.4763"/>
</g>
<!-- Node86&#45;&gt;Node21 -->
<g id="edge96" class="edge">
<title>Node86&#45;&gt;Node21</title>
<path fill="none" stroke="#191970" d="M1786.4708,-111.7744C1783.4931,-111.126 1780.5082,-110.5205 1777.6279,-110 1644.6102,-85.9609 1608.5725,-98.4408 1475.6279,-74 1441.3845,-67.7046 1433.9159,-61.0482 1399.6279,-55 1360.1611,-48.0383 1089.9578,-21.6155 996.4179,-12.5638"/>
<polygon fill="#191970" stroke="#191970" points="996.7039,-9.0752 986.4135,-11.5968 996.0303,-16.0428 996.7039,-9.0752"/>
</g>
<!-- Node89&#45;&gt;Node51 -->
<g id="edge101" class="edge">
<title>Node89&#45;&gt;Node51</title>
<path fill="none" stroke="#191970" d="M2097.7878,-172.9843C2015.8156,-169.5976 1836.2925,-159.3316 1676.574,-128.8259"/>
<polygon fill="#191970" stroke="#191970" points="1677.0528,-125.3536 1666.569,-126.883 1675.7184,-132.2252 1677.0528,-125.3536"/>
</g>
<!-- Node89&#45;&gt;Node54 -->
<g id="edge100" class="edge">
<title>Node89&#45;&gt;Node54</title>
<path fill="none" stroke="#191970" d="M2157.1593,-165.4179C2170.7893,-156.8992 2191.4014,-144.0166 2207.3276,-134.0627"/>
<polygon fill="#191970" stroke="#191970" points="2209.4499,-136.8637 2216.0749,-128.5956 2205.7399,-130.9277 2209.4499,-136.8637"/>
</g>
<!-- Node89&#45;&gt;Node56 -->
<g id="edge102" class="edge">
<title>Node89&#45;&gt;Node56</title>
<path fill="none" stroke="#191970" d="M2142.6279,-165.4982C2142.6279,-147.6913 2142.6279,-107.6225 2142.6279,-83.6515"/>
<polygon fill="#191970" stroke="#191970" points="2146.128,-83.6261 2142.6279,-73.6261 2139.128,-83.6262 2146.128,-83.6261"/>
</g>
<!-- Node89&#45;&gt;Node58 -->
<g id="edge103" class="edge">
<title>Node89&#45;&gt;Node58</title>
<path fill="none" stroke="#191970" d="M2149.8293,-165.4982C2164.4616,-147.2079 2197.8836,-105.4304 2216.8396,-81.7354"/>
<polygon fill="#191970" stroke="#191970" points="2219.8131,-83.6213 2223.327,-73.6261 2214.347,-79.2484 2219.8131,-83.6213"/>
</g>
<!-- Node92&#45;&gt;Node17 -->
<g id="edge119" class="edge">
<title>Node92&#45;&gt;Node17</title>
<path fill="none" stroke="#191970" d="M2590.2667,-165.4514C2595.5713,-156.5193 2603.3237,-142.306 2607.6279,-129 2618.6849,-94.8184 2623.4481,-52.9769 2625.3921,-28.9636"/>
<polygon fill="#191970" stroke="#191970" points="2628.9025,-28.9462 2626.1351,-18.7191 2621.9208,-28.4397 2628.9025,-28.9462"/>
</g>
<!-- Node92&#45;&gt;Node54 -->
<g id="edge117" class="edge">
<title>Node92&#45;&gt;Node54</title>
<path fill="none" stroke="#191970" d="M2532.0128,-166.3253C2457.7277,-154.7839 2324.3377,-134.0594 2263.0431,-124.5363"/>
<polygon fill="#191970" stroke="#191970" points="2263.5733,-121.0767 2253.1545,-122.9999 2262.4986,-127.9937 2263.5733,-121.0767"/>
</g>
<!-- Node93 -->
<g id="node48" class="node">
<title>Node93</title>
<g id="a_node48"><a xlink:href="transaction_8h.html" target="_top" xlink:title="primitives/transaction.h">
<polygon fill="#ffffff" stroke="#ff0000" points="1370.4976,-110.5 1370.4976,-128.5 1488.7583,-128.5 1488.7583,-110.5 1370.4976,-110.5"/>
<text text-anchor="middle" x="1429.6279" y="-116.5" font-family="Helvetica,sans-Serif" font-size="10.00" fill="#000000">primitives/transaction.h</text>
</a>
</g>
</g>
<!-- Node92&#45;&gt;Node93 -->
<g id="edge112" class="edge">
<title>Node92&#45;&gt;Node93</title>
<path fill="none" stroke="#191970" d="M2532.1505,-172.1462C2386.2113,-165.5788 1963.1543,-146.3935 1611.6279,-129 1574.5405,-127.1649 1533.2078,-125.0158 1499.3166,-123.2263"/>
<polygon fill="#191970" stroke="#191970" points="1499.2215,-119.7165 1489.0505,-122.6832 1498.8516,-126.7067 1499.2215,-119.7165"/>
</g>
<!-- Node96 -->
<g id="node49" class="node">
<title>Node96</title>
<polygon fill="#ffffff" stroke="#bfbfbf" points="2540.2241,-110.5 2540.2241,-128.5 2599.0317,-128.5 2599.0317,-110.5 2540.2241,-110.5"/>
<text text-anchor="middle" x="2569.6279" y="-116.5" font-family="Helvetica,sans-Serif" font-size="10.00" fill="#000000">functional</text>
</g>
<!-- Node92&#45;&gt;Node96 -->
<g id="edge118" class="edge">
<title>Node92&#45;&gt;Node96</title>
<path fill="none" stroke="#191970" d="M2582.151,-165.4179C2580.1654,-158.1372 2577.3104,-147.669 2574.8277,-138.5659"/>
<polygon fill="#191970" stroke="#191970" points="2578.1666,-137.5062 2572.1587,-128.7795 2571.4133,-139.348 2578.1666,-137.5062"/>
</g>
<!-- Node93&#45;&gt;Node8 -->
<g id="edge115" class="edge">
<title>Node93&#45;&gt;Node8</title>
<path fill="none" stroke="#191970" d="M1443.8291,-110.4179C1457.1493,-101.8992 1477.2929,-89.0166 1492.8571,-79.0627"/>
<polygon fill="#191970" stroke="#191970" points="1494.8669,-81.932 1501.4057,-73.5956 1491.0954,-76.0348 1494.8669,-81.932"/>
</g>
<!-- Node93&#45;&gt;Node11 -->
<g id="edge113" class="edge">
<title>Node93&#45;&gt;Node11</title>
<path fill="none" stroke="#191970" d="M1402.2953,-110.4982C1341.685,-90.5368 1196.1324,-42.6003 1129.7119,-20.7252"/>
<polygon fill="#191970" stroke="#191970" points="1130.7236,-17.3736 1120.1306,-17.5697 1128.5339,-24.0223 1130.7236,-17.3736"/>
</g>
<!-- Node93&#45;&gt;Node46 -->
<g id="edge116" class="edge">
<title>Node93&#45;&gt;Node46</title>
<path fill="none" stroke="#191970" d="M1387.3134,-110.4795C1338.1683,-100.0028 1257.7821,-82.8662 1210.2634,-72.7363"/>
<polygon fill="#191970" stroke="#191970" points="1210.8696,-69.2869 1200.3596,-70.625 1209.4101,-76.1331 1210.8696,-69.2869"/>
</g>
<!-- Node93&#45;&gt;Node73 -->
<g id="edge114" class="edge">
<title>Node93&#45;&gt;Node73</title>
<path fill="none" stroke="#191970" d="M1418.3991,-110.4179C1408.2235,-102.1876 1393.0117,-89.8839 1380.8949,-80.0836"/>
<polygon fill="#191970" stroke="#191970" points="1383.0769,-77.3469 1373.1007,-73.7795 1378.6748,-82.7895 1383.0769,-77.3469"/>
</g>
<!-- Node97&#45;&gt;Node5 -->
<g id="edge124" class="edge">
<title>Node97&#45;&gt;Node5</title>
<path fill="none" stroke="#191970" d="M2390.5757,-110.0458C2386.8405,-95.3894 2377.4173,-67.5665 2357.6279,-55 2299.2818,-17.9496 1805.5878,-23.64 1736.6279,-19 1704.7725,-16.8566 1668.3444,-14.0196 1643.2554,-12.0055"/>
<polygon fill="#191970" stroke="#191970" points="1643.4929,-8.5133 1633.2436,-11.1971 1642.9294,-15.4906 1643.4929,-8.5133"/>
</g>
<!-- Node97&#45;&gt;Node15 -->
<g id="edge122" class="edge">
<title>Node97&#45;&gt;Node15</title>
<path fill="none" stroke="#191970" d="M2395.7615,-110.1359C2399.7992,-96.1071 2404.7432,-69.7144 2390.6279,-55 2380.1592,-44.0869 1916.8852,-17.8738 1794.1872,-11.1128"/>
<polygon fill="#191970" stroke="#191970" points="1794.2072,-7.6087 1784.0302,-10.5547 1793.8231,-14.5981 1794.2072,-7.6087"/>
</g>
<!-- Node97&#45;&gt;Node16 -->
<g id="edge123" class="edge">
<title>Node97&#45;&gt;Node16</title>
<path fill="none" stroke="#191970" d="M2404.3416,-110.3613C2419.9899,-97.0831 2444.0549,-72.1711 2428.6279,-55 2402.1214,-25.4968 2122.9018,-13.5049 2032.6171,-10.3804"/>
<polygon fill="#191970" stroke="#191970" points="2032.685,-6.8808 2022.573,-10.0427 2032.4497,-13.8768 2032.685,-6.8808"/>
</g>
<!-- Node97&#45;&gt;Node46 -->
<g id="edge121" class="edge">
<title>Node97&#45;&gt;Node46</title>
<path fill="none" stroke="#191970" d="M2338.4791,-115.1576C2314.8852,-113.373 2286.9002,-111.4009 2261.6279,-110 1845.0716,-86.9089 1740.2942,-95.0135 1323.6279,-74 1285.2426,-72.0641 1241.4417,-69.2637 1210.7513,-67.2048"/>
<polygon fill="#191970" stroke="#191970" points="1210.6862,-63.6925 1200.4729,-66.51 1210.2141,-70.6765 1210.6862,-63.6925"/>
</g>
</g>
</svg>
