<?xml version="1.0" encoding="UTF-8" standalone="no"?>
<!DOCTYPE svg PUBLIC "-//W3C//DTD SVG 1.1//EN"
 "http://www.w3.org/Graphics/SVG/1.1/DTD/svg11.dtd">
<!-- Generated by graphviz version 2.40.1 (20161225.0304)
 -->
<!-- Title: IsLocal Pages: 1 -->
<svg width="858pt" height="113pt"
 viewBox="0.00 0.00 857.92 113.00" xmlns="http://www.w3.org/2000/svg" xmlns:xlink="http://www.w3.org/1999/xlink">
<g id="graph0" class="graph" transform="scale(1 1) rotate(0) translate(4 109)">
<title>IsLocal</title>
<polygon fill="#ffffff" stroke="transparent" points="-4,4 -4,-109 853.918,-109 853.918,4 -4,4"/>
<!-- Node176 -->
<g id="node1" class="node">
<title>Node176</title>
<polygon fill="#bfbfbf" stroke="#000000" points="0,-48.5 0,-66.5 47.6846,-66.5 47.6846,-48.5 0,-48.5"/>
<text text-anchor="middle" x="23.8423" y="-54.5" font-family="Helvetica,sans-Serif" font-size="10.00" fill="#000000">IsLocal</text>
</g>
<!-- Node177 -->
<g id="node2" class="node">
<title>Node177</title>
<g id="a_node2"><a xlink:href="class_c_connman.html#a65aba17d8735bd9612d4ca9abb35789f" target="_top" xlink:title="CConnman::ConnectNode">
<polygon fill="#ffffff" stroke="#000000" points="83.6846,-67.5 83.6846,-85.5 216.9746,-85.5 216.9746,-67.5 83.6846,-67.5"/>
<text text-anchor="middle" x="150.3296" y="-73.5" font-family="Helvetica,sans-Serif" font-size="10.00" fill="#000000">CConnman::ConnectNode</text>
</a>
</g>
</g>
<!-- Node176&#45;&gt;Node177 -->
<g id="edge1" class="edge">
<title>Node176&#45;&gt;Node177</title>
<path fill="none" stroke="#191970" d="M57.8721,-62.6117C67.9038,-64.1186 79.1923,-65.8143 90.3452,-67.4896"/>
<polygon fill="#191970" stroke="#191970" points="58.3403,-59.1429 47.9313,-61.1185 57.3004,-66.0652 58.3403,-59.1429"/>
</g>
<!-- Node178 -->
<g id="node3" class="node">
<title>Node178</title>
<g id="a_node3"><a xlink:href="class_c_connman.html#a5e42e06d446f31b4f2012796ff8d3e42" target="_top" xlink:title="CConnman::OpenNetworkConnection">
<polygon fill="#ffffff" stroke="#000000" points="252.9746,-48.5 252.9746,-66.5 436.8408,-66.5 436.8408,-48.5 252.9746,-48.5"/>
<text text-anchor="middle" x="344.9077" y="-54.5" font-family="Helvetica,sans-Serif" font-size="10.00" fill="#000000">CConnman::OpenNetworkConnection</text>
</a>
</g>
</g>
<!-- Node176&#45;&gt;Node178 -->
<g id="edge7" class="edge">
<title>Node176&#45;&gt;Node178</title>
<path fill="none" stroke="#191970" d="M57.7332,-57.5C103.6796,-57.5 187.4853,-57.5 252.7491,-57.5"/>
<polygon fill="#191970" stroke="#191970" points="57.7121,-54.0001 47.7121,-57.5 57.712,-61.0001 57.7121,-54.0001"/>
</g>
<!-- Node177&#45;&gt;Node178 -->
<g id="edge2" class="edge">
<title>Node177&#45;&gt;Node178</title>
<path fill="none" stroke="#191970" d="M227.1798,-68.9958C235.611,-68.1725 244.2566,-67.3283 252.8477,-66.4894"/>
<polygon fill="#191970" stroke="#191970" points="226.6326,-65.5325 217.0201,-69.9879 227.313,-72.4994 226.6326,-65.5325"/>
</g>
<!-- Node179 -->
<g id="node4" class="node">
<title>Node179</title>
<g id="a_node4"><a xlink:href="class_c_connman.html#a161f1b41271db1a10cec61a825524b5d" target="_top" xlink:title="CConnman::ProcessOneShot">
<polygon fill="#ffffff" stroke="#000000" points="477.5747,-86.5 477.5747,-104.5 625.3081,-104.5 625.3081,-86.5 477.5747,-86.5"/>
<text text-anchor="middle" x="551.4414" y="-92.5" font-family="Helvetica,sans-Serif" font-size="10.00" fill="#000000">CConnman::ProcessOneShot</text>
</a>
</g>
</g>
<!-- Node178&#45;&gt;Node179 -->
<g id="edge3" class="edge">
<title>Node178&#45;&gt;Node179</title>
<path fill="none" stroke="#191970" d="M403.7373,-68.324C434.9635,-74.0693 472.8882,-81.047 502.4897,-86.4934"/>
<polygon fill="#191970" stroke="#191970" points="404.3216,-64.8728 393.8533,-66.5055 403.0549,-71.7573 404.3216,-64.8728"/>
</g>
<!-- Node180 -->
<g id="node5" class="node">
<title>Node180</title>
<g id="a_node5"><a xlink:href="class_c_connman.html#a55e9feafc3bab78e5c9d408c207faa45" target="_top" xlink:title="CConnman::ThreadOpenConnections">
<polygon fill="#ffffff" stroke="#000000" points="666.042,-67.5 666.042,-85.5 849.918,-85.5 849.918,-67.5 666.042,-67.5"/>
<text text-anchor="middle" x="757.98" y="-73.5" font-family="Helvetica,sans-Serif" font-size="10.00" fill="#000000">CConnman::ThreadOpenConnections</text>
</a>
</g>
</g>
<!-- Node178&#45;&gt;Node180 -->
<g id="edge5" class="edge">
<title>Node178&#45;&gt;Node180</title>
<path fill="none" stroke="#191970" d="M447.2417,-62.207C514.1798,-65.286 600.9043,-69.275 665.7179,-72.2562"/>
<polygon fill="#191970" stroke="#191970" points="447.2453,-58.7036 437.0951,-61.7403 446.9236,-65.6962 447.2453,-58.7036"/>
</g>
<!-- Node181 -->
<g id="node6" class="node">
<title>Node181</title>
<g id="a_node6"><a xlink:href="class_c_connman.html#a0b787caf95e52a346a2b31a580d60a62" target="_top" xlink:title="CConnman::ThreadOpenAdded\lConnections">
<polygon fill="#ffffff" stroke="#000000" points="472.8408,-.5 472.8408,-28.5 630.042,-28.5 630.042,-.5 472.8408,-.5"/>
<text text-anchor="start" x="480.8408" y="-16.5" font-family="Helvetica,sans-Serif" font-size="10.00" fill="#000000">CConnman::ThreadOpenAdded</text>
<text text-anchor="middle" x="551.4414" y="-6.5" font-family="Helvetica,sans-Serif" font-size="10.00" fill="#000000">Connections</text>
</a>
</g>
</g>
<!-- Node178&#45;&gt;Node181 -->
<g id="edge6" class="edge">
<title>Node178&#45;&gt;Node181</title>
<path fill="none" stroke="#191970" d="M398.275,-46.389C424.3627,-40.9576 456.0436,-34.3617 483.8078,-28.5812"/>
<polygon fill="#191970" stroke="#191970" points="397.2806,-43.0209 388.2039,-48.4858 398.7074,-49.874 397.2806,-43.0209"/>
</g>
<!-- Node179&#45;&gt;Node180 -->
<g id="edge4" class="edge">
<title>Node179&#45;&gt;Node180</title>
<path fill="none" stroke="#191970" d="M635.6597,-87.7525C645.5826,-86.8397 655.7485,-85.9045 665.7737,-84.9823"/>
<polygon fill="#191970" stroke="#191970" points="635.0605,-84.2928 625.4232,-88.6942 635.7018,-91.2634 635.0605,-84.2928"/>
</g>
</g>
</svg>
