<?xml version="1.0" encoding="UTF-8" standalone="no"?>
<!DOCTYPE svg PUBLIC "-//W3C//DTD SVG 1.1//EN"
 "http://www.w3.org/Graphics/SVG/1.1/DTD/svg11.dtd">
<!-- Generated by graphviz version 2.40.1 (20161225.0304)
 -->
<!-- Title: PoissonNextSend Pages: 1 -->
<svg width="323pt" height="74pt"
 viewBox="0.00 0.00 323.37 74.00" xmlns="http://www.w3.org/2000/svg" xmlns:xlink="http://www.w3.org/1999/xlink">
<g id="graph0" class="graph" transform="scale(1 1) rotate(0) translate(4 70)">
<title>PoissonNextSend</title>
<polygon fill="#ffffff" stroke="transparent" points="-4,4 -4,-70 319.3682,-70 319.3682,4 -4,4"/>
<!-- Node228 -->
<g id="node1" class="node">
<title>Node228</title>
<polygon fill="#bfbfbf" stroke="#000000" points="0,-26.5 0,-44.5 95.4922,-44.5 95.4922,-26.5 0,-26.5"/>
<text text-anchor="middle" x="47.7461" y="-32.5" font-family="Helvetica,sans-Serif" font-size="10.00" fill="#000000">PoissonNextSend</text>
</g>
<!-- Node229 -->
<g id="node2" class="node">
<title>Node229</title>
<g id="a_node2"><a xlink:href="class_c_connman.html#a55e9feafc3bab78e5c9d408c207faa45" target="_top" xlink:title="CConnman::ThreadOpenConnections">
<polygon fill="#ffffff" stroke="#000000" points="131.4922,-47.5 131.4922,-65.5 315.3682,-65.5 315.3682,-47.5 131.4922,-47.5"/>
<text text-anchor="middle" x="223.4302" y="-53.5" font-family="Helvetica,sans-Serif" font-size="10.00" fill="#000000">CConnman::ThreadOpenConnections</text>
</a>
</g>
</g>
<!-- Node228&#45;&gt;Node229 -->
<g id="edge1" class="edge">
<title>Node228&#45;&gt;Node229</title>
<path fill="none" stroke="#191970" d="M105.8535,-42.4457C119.3663,-44.061 133.9435,-45.8034 148.0801,-47.4932"/>
<polygon fill="#191970" stroke="#191970" points="106.0973,-38.95 95.7525,-41.2383 105.2664,-45.9006 106.0973,-38.95"/>
</g>
<!-- Node230 -->
<g id="node3" class="node">
<title>Node230</title>
<g id="a_node3"><a xlink:href="class_c_connman.html#abbed3e0e20b469953fc8d72b4c2167fe" target="_top" xlink:title="Attempts to obfuscate tx time through exponentially distributed emitting. ">
<polygon fill="#ffffff" stroke="#000000" points="147.6152,-.5 147.6152,-28.5 299.2451,-28.5 299.2451,-.5 147.6152,-.5"/>
<text text-anchor="start" x="155.6152" y="-16.5" font-family="Helvetica,sans-Serif" font-size="10.00" fill="#000000">CConnman::PoissonNextSend</text>
<text text-anchor="middle" x="223.4302" y="-6.5" font-family="Helvetica,sans-Serif" font-size="10.00" fill="#000000">Inbound</text>
</a>
</g>
</g>
<!-- Node228&#45;&gt;Node230 -->
<g id="edge2" class="edge">
<title>Node228&#45;&gt;Node230</title>
<path fill="none" stroke="#191970" d="M105.7235,-28.5698C119.0597,-26.9757 133.4382,-25.257 147.4103,-23.5869"/>
<polygon fill="#191970" stroke="#191970" points="105.2664,-25.0994 95.7525,-29.7617 106.0973,-32.05 105.2664,-25.0994"/>
</g>
</g>
</svg>
