<?xml version="1.0" encoding="UTF-8" standalone="no"?>
<!DOCTYPE svg PUBLIC "-//W3C//DTD SVG 1.1//EN"
 "http://www.w3.org/Graphics/SVG/1.1/DTD/svg11.dtd">
<!-- Generated by graphviz version 2.40.1 (20161225.0304)
 -->
<!-- Title: Lookup Pages: 1 -->
<svg width="268pt" height="27pt"
 viewBox="0.00 0.00 267.53 27.00" xmlns="http://www.w3.org/2000/svg" xmlns:xlink="http://www.w3.org/1999/xlink">
<g id="graph0" class="graph" transform="scale(1 1) rotate(0) translate(4 23)">
<title>Lookup</title>
<polygon fill="#ffffff" stroke="transparent" points="-4,4 -4,-23 263.5264,-23 263.5264,4 -4,4"/>
<!-- Node36 -->
<g id="node1" class="node">
<title>Node36</title>
<polygon fill="#bfbfbf" stroke="#000000" points="0,-.5 0,-18.5 48.8076,-18.5 48.8076,-.5 0,-.5"/>
<text text-anchor="middle" x="24.4038" y="-6.5" font-family="Helvetica,sans-Serif" font-size="10.00" fill="#000000">Lookup</text>
</g>
<!-- Node37 -->
<g id="node2" class="node">
<title>Node37</title>
<g id="a_node2"><a xlink:href="utilstrencodings_8cpp.html#a1b1ce2ba1ffe40785e65ec3ad5a20e79" target="_top" xlink:title="SplitHostPort">
<polygon fill="#ffffff" stroke="#000000" points="84.8076,-.5 84.8076,-18.5 159.1621,-18.5 159.1621,-.5 84.8076,-.5"/>
<text text-anchor="middle" x="121.9849" y="-6.5" font-family="Helvetica,sans-Serif" font-size="10.00" fill="#000000">SplitHostPort</text>
</a>
</g>
</g>
<!-- Node36&#45;&gt;Node37 -->
<g id="edge1" class="edge">
<title>Node36&#45;&gt;Node37</title>
<path fill="none" stroke="#191970" d="M49.0276,-9.5C56.738,-9.5 65.5255,-9.5 74.2672,-9.5"/>
<polygon fill="#191970" stroke="#191970" points="74.4407,-13.0001 84.4407,-9.5 74.4406,-6.0001 74.4407,-13.0001"/>
</g>
<!-- Node38 -->
<g id="node3" class="node">
<title>Node38</title>
<g id="a_node3"><a xlink:href="utilstrencodings_8cpp.html#a880a215d9e931432b095084c756a49bb" target="_top" xlink:title="Convert string to signed 32&#45;bit integer with strict parse error feedback. ">
<polygon fill="#ffffff" stroke="#000000" points="195.1621,-.5 195.1621,-18.5 259.5264,-18.5 259.5264,-.5 195.1621,-.5"/>
<text text-anchor="middle" x="227.3442" y="-6.5" font-family="Helvetica,sans-Serif" font-size="10.00" fill="#000000">ParseInt32</text>
</a>
</g>
</g>
<!-- Node37&#45;&gt;Node38 -->
<g id="edge2" class="edge">
<title>Node37&#45;&gt;Node38</title>
<path fill="none" stroke="#191970" d="M159.4273,-9.5C167.6691,-9.5 176.4553,-9.5 184.8791,-9.5"/>
<polygon fill="#191970" stroke="#191970" points="184.9137,-13.0001 194.9137,-9.5 184.9136,-6.0001 184.9137,-13.0001"/>
</g>
</g>
</svg>
