<?xml version="1.0" encoding="UTF-8" standalone="no"?>
<!DOCTYPE svg PUBLIC "-//W3C//DTD SVG 1.1//EN"
 "http://www.w3.org/Graphics/SVG/1.1/DTD/svg11.dtd">
<!-- Generated by graphviz version 2.40.1 (20161225.0304)
 -->
<!-- Title: src/netbase.h Pages: 1 -->
<svg width="1551pt" height="302pt"
 viewBox="0.00 0.00 1551.12 302.00" xmlns="http://www.w3.org/2000/svg" xmlns:xlink="http://www.w3.org/1999/xlink">
<g id="graph0" class="graph" transform="scale(1 1) rotate(0) translate(4 298)">
<title>src/netbase.h</title>
<polygon fill="#ffffff" stroke="transparent" points="-4,4 -4,-298 1547.1206,-298 1547.1206,4 -4,4"/>
<!-- Node0 -->
<g id="node1" class="node">
<title>Node0</title>
<polygon fill="#bfbfbf" stroke="#000000" points="1353.1035,-275.5 1353.1035,-293.5 1429.1377,-293.5 1429.1377,-275.5 1353.1035,-275.5"/>
<text text-anchor="middle" x="1391.1206" y="-281.5" font-family="Helvetica,sans-Serif" font-size="10.00" fill="#000000">src/netbase.h</text>
</g>
<!-- Node1 -->
<g id="node2" class="node">
<title>Node1</title>
<g id="a_node2"><a xlink:href="compat_8h.html" target="_top" xlink:title="compat.h">
<polygon fill="#ffffff" stroke="#000000" points="575.5542,-55.5 575.5542,-73.5 632.687,-73.5 632.687,-55.5 575.5542,-55.5"/>
<text text-anchor="middle" x="604.1206" y="-61.5" font-family="Helvetica,sans-Serif" font-size="10.00" fill="#000000">compat.h</text>
</a>
</g>
</g>
<!-- Node0&#45;&gt;Node1 -->
<g id="edge1" class="edge">
<title>Node0&#45;&gt;Node1</title>
<path fill="none" stroke="#191970" d="M1352.7776,-282.0391C1252.0923,-274.8221 972.6104,-249.9101 750.1206,-184 692.704,-166.991 667.7822,-172.9615 627.1206,-129 615.5277,-116.4663 609.7035,-97.6971 606.824,-83.6326"/>
<polygon fill="#191970" stroke="#191970" points="610.2378,-82.8321 605.0921,-73.5708 603.3393,-84.0196 610.2378,-82.8321"/>
</g>
<!-- Node17 -->
<g id="node18" class="node">
<title>Node17</title>
<g id="a_node18"><a xlink:href="netaddress_8h.html" target="_top" xlink:title="netaddress.h">
<polygon fill="#ffffff" stroke="#000000" points="1316.2119,-220.5 1316.2119,-238.5 1390.0293,-238.5 1390.0293,-220.5 1316.2119,-220.5"/>
<text text-anchor="middle" x="1353.1206" y="-226.5" font-family="Helvetica,sans-Serif" font-size="10.00" fill="#000000">netaddress.h</text>
</a>
</g>
</g>
<!-- Node0&#45;&gt;Node17 -->
<g id="edge17" class="edge">
<title>Node0&#45;&gt;Node17</title>
<path fill="none" stroke="#191970" d="M1384.8457,-275.4179C1379.542,-267.7415 1371.7902,-256.5217 1365.2768,-247.0945"/>
<polygon fill="#191970" stroke="#191970" points="1368.0958,-245.0173 1359.5319,-238.7795 1362.3367,-248.9963 1368.0958,-245.0173"/>
</g>
<!-- Node18 -->
<g id="node19" class="node">
<title>Node18</title>
<g id="a_node19"><a xlink:href="serialize_8h.html" target="_top" xlink:title="serialize.h">
<polygon fill="#ffffff" stroke="#000000" points="1049.6108,-165.5 1049.6108,-183.5 1110.6304,-183.5 1110.6304,-165.5 1049.6108,-165.5"/>
<text text-anchor="middle" x="1080.1206" y="-171.5" font-family="Helvetica,sans-Serif" font-size="10.00" fill="#000000">serialize.h</text>
</a>
</g>
</g>
<!-- Node0&#45;&gt;Node18 -->
<g id="edge53" class="edge">
<title>Node0&#45;&gt;Node18</title>
<path fill="none" stroke="#191970" d="M1365.6702,-275.4982C1310.3135,-255.9187 1178.8614,-209.4244 1115.4873,-187.0091"/>
<polygon fill="#191970" stroke="#191970" points="1116.5175,-183.6611 1105.9227,-183.6261 1114.1833,-190.2604 1116.5175,-183.6611"/>
</g>
<!-- Node21 -->
<g id="node22" class="node">
<title>Node21</title>
<polygon fill="#ffffff" stroke="#bfbfbf" points="1320,-.5 1320,-18.5 1368.2412,-18.5 1368.2412,-.5 1320,-.5"/>
<text text-anchor="middle" x="1344.1206" y="-6.5" font-family="Helvetica,sans-Serif" font-size="10.00" fill="#000000">stdint.h</text>
</g>
<!-- Node0&#45;&gt;Node21 -->
<g id="edge54" class="edge">
<title>Node0&#45;&gt;Node21</title>
<path fill="none" stroke="#191970" d="M1427.5284,-275.4355C1472.4962,-261.8021 1543.1206,-231.3419 1543.1206,-174.5 1543.1206,-174.5 1543.1206,-174.5 1543.1206,-119.5 1543.1206,-45.1751 1435.4772,-20.6769 1378.5282,-12.9168"/>
<polygon fill="#191970" stroke="#191970" points="1378.8814,-9.4337 1368.5219,-11.6544 1378.0051,-16.3787 1378.8814,-9.4337"/>
</g>
<!-- Node29 -->
<g id="node30" class="node">
<title>Node29</title>
<polygon fill="#ffffff" stroke="#bfbfbf" points="1471.894,-110.5 1471.894,-128.5 1512.3472,-128.5 1512.3472,-110.5 1471.894,-110.5"/>
<text text-anchor="middle" x="1492.1206" y="-116.5" font-family="Helvetica,sans-Serif" font-size="10.00" fill="#000000">string</text>
</g>
<!-- Node0&#45;&gt;Node29 -->
<g id="edge55" class="edge">
<title>Node0&#45;&gt;Node29</title>
<path fill="none" stroke="#191970" d="M1396.8402,-275.1561C1413.0896,-248.6101 1459.7333,-172.41 1481.1411,-137.4369"/>
<polygon fill="#191970" stroke="#191970" points="1484.2281,-139.0977 1486.4638,-128.7414 1478.2578,-135.4431 1484.2281,-139.0977"/>
</g>
<!-- Node32 -->
<g id="node33" class="node">
<title>Node32</title>
<polygon fill="#ffffff" stroke="#bfbfbf" points="1410.5049,-110.5 1410.5049,-128.5 1453.7363,-128.5 1453.7363,-110.5 1410.5049,-110.5"/>
<text text-anchor="middle" x="1432.1206" y="-116.5" font-family="Helvetica,sans-Serif" font-size="10.00" fill="#000000">vector</text>
</g>
<!-- Node0&#45;&gt;Node32 -->
<g id="edge56" class="edge">
<title>Node0&#45;&gt;Node32</title>
<path fill="none" stroke="#191970" d="M1393.4424,-275.1561C1399.9541,-248.9504 1418.4898,-174.3557 1427.3243,-138.8021"/>
<polygon fill="#191970" stroke="#191970" points="1430.8094,-139.2903 1429.8243,-128.7414 1424.016,-137.6022 1430.8094,-139.2903"/>
</g>
<!-- Node2 -->
<g id="node3" class="node">
<title>Node2</title>
<polygon fill="#ffffff" stroke="#bfbfbf" points="1064.0542,-.5 1064.0542,-18.5 1126.187,-18.5 1126.187,-.5 1064.0542,-.5"/>
<text text-anchor="middle" x="1095.1206" y="-6.5" font-family="Helvetica,sans-Serif" font-size="10.00" fill="#000000">type_traits</text>
</g>
<!-- Node1&#45;&gt;Node2 -->
<g id="edge2" class="edge">
<title>Node1&#45;&gt;Node2</title>
<path fill="none" stroke="#191970" d="M633.0675,-56.7624C636.1104,-56.0993 639.1696,-55.4943 642.1206,-55 820.6462,-25.0963 871.4473,-47.5461 1053.8461,-18.9874"/>
<polygon fill="#191970" stroke="#191970" points="1054.4412,-22.4368 1063.7648,-17.4048 1053.3382,-15.5242 1054.4412,-22.4368"/>
</g>
<!-- Node3 -->
<g id="node4" class="node">
<title>Node3</title>
<polygon fill="#ffffff" stroke="#bfbfbf" points="915.7808,-.5 915.7808,-18.5 958.4604,-18.5 958.4604,-.5 915.7808,-.5"/>
<text text-anchor="middle" x="937.1206" y="-6.5" font-family="Helvetica,sans-Serif" font-size="10.00" fill="#000000">fcntl.h</text>
</g>
<!-- Node1&#45;&gt;Node3 -->
<g id="edge3" class="edge">
<title>Node1&#45;&gt;Node3</title>
<path fill="none" stroke="#191970" d="M633.0937,-56.908C636.1315,-56.2166 639.1823,-55.5651 642.1206,-55 755.6496,-33.166 789.318,-44.3806 905.6048,-19.0245"/>
<polygon fill="#191970" stroke="#191970" points="906.6106,-22.3864 915.6116,-16.7978 905.0901,-15.5535 906.6106,-22.3864"/>
</g>
<!-- Node4 -->
<g id="node5" class="node">
<title>Node4</title>
<polygon fill="#ffffff" stroke="#bfbfbf" points="976.1699,-.5 976.1699,-18.5 1046.0713,-18.5 1046.0713,-.5 976.1699,-.5"/>
<text text-anchor="middle" x="1011.1206" y="-6.5" font-family="Helvetica,sans-Serif" font-size="10.00" fill="#000000">sys/mman.h</text>
</g>
<!-- Node1&#45;&gt;Node4 -->
<g id="edge4" class="edge">
<title>Node1&#45;&gt;Node4</title>
<path fill="none" stroke="#191970" d="M633.0798,-56.8333C636.1204,-56.1564 639.1756,-55.5288 642.1206,-55 781.9485,-29.8951 821.9002,-41.7994 966.0161,-19.0214"/>
<polygon fill="#191970" stroke="#191970" points="966.8009,-22.4402 976.1176,-17.3955 965.6885,-15.5291 966.8009,-22.4402"/>
</g>
<!-- Node5 -->
<g id="node6" class="node">
<title>Node5</title>
<polygon fill="#ffffff" stroke="#bfbfbf" points="0,-.5 0,-18.5 68.2412,-18.5 68.2412,-.5 0,-.5"/>
<text text-anchor="middle" x="34.1206" y="-6.5" font-family="Helvetica,sans-Serif" font-size="10.00" fill="#000000">sys/select.h</text>
</g>
<!-- Node1&#45;&gt;Node5 -->
<g id="edge5" class="edge">
<title>Node1&#45;&gt;Node5</title>
<path fill="none" stroke="#191970" d="M575.4007,-63.3471C497.1894,-59.9269 273.7518,-48.2882 78.4715,-19.0212"/>
<polygon fill="#191970" stroke="#191970" points="78.7241,-15.5195 68.312,-17.4786 77.6732,-22.4402 78.7241,-15.5195"/>
</g>
<!-- Node6 -->
<g id="node7" class="node">
<title>Node6</title>
<polygon fill="#ffffff" stroke="#bfbfbf" points="86.6108,-.5 86.6108,-18.5 157.6304,-18.5 157.6304,-.5 86.6108,-.5"/>
<text text-anchor="middle" x="122.1206" y="-6.5" font-family="Helvetica,sans-Serif" font-size="10.00" fill="#000000">sys/socket.h</text>
</g>
<!-- Node1&#45;&gt;Node6 -->
<g id="edge6" class="edge">
<title>Node1&#45;&gt;Node6</title>
<path fill="none" stroke="#191970" d="M575.4297,-61.9076C494.3136,-54.5179 263.5401,-33.0625 167.8302,-18.9245"/>
<polygon fill="#191970" stroke="#191970" points="168.3338,-15.461 157.9197,-17.4093 167.2758,-22.3805 168.3338,-15.461"/>
</g>
<!-- Node7 -->
<g id="node8" class="node">
<title>Node7</title>
<polygon fill="#ffffff" stroke="#bfbfbf" points="176.1108,-.5 176.1108,-18.5 242.1304,-18.5 242.1304,-.5 176.1108,-.5"/>
<text text-anchor="middle" x="209.1206" y="-6.5" font-family="Helvetica,sans-Serif" font-size="10.00" fill="#000000">sys/types.h</text>
</g>
<!-- Node1&#45;&gt;Node7 -->
<g id="edge7" class="edge">
<title>Node1&#45;&gt;Node7</title>
<path fill="none" stroke="#191970" d="M575.1534,-61.701C516.2709,-55.8116 378.2156,-40.9878 252.7015,-19.1461"/>
<polygon fill="#191970" stroke="#191970" points="252.9891,-15.643 242.5337,-17.3562 251.7754,-22.537 252.9891,-15.643"/>
</g>
<!-- Node8 -->
<g id="node9" class="node">
<title>Node8</title>
<polygon fill="#ffffff" stroke="#bfbfbf" points="260.1108,-.5 260.1108,-18.5 306.1304,-18.5 306.1304,-.5 260.1108,-.5"/>
<text text-anchor="middle" x="283.1206" y="-6.5" font-family="Helvetica,sans-Serif" font-size="10.00" fill="#000000">net/if.h</text>
</g>
<!-- Node1&#45;&gt;Node8 -->
<g id="edge8" class="edge">
<title>Node1&#45;&gt;Node8</title>
<path fill="none" stroke="#191970" d="M575.1674,-61.2306C524.5348,-55.2372 416.5067,-41.2255 316.4154,-19.0549"/>
<polygon fill="#191970" stroke="#191970" points="316.9694,-15.5922 306.4451,-16.813 315.4336,-22.4217 316.9694,-15.5922"/>
</g>
<!-- Node9 -->
<g id="node10" class="node">
<title>Node9</title>
<polygon fill="#ffffff" stroke="#bfbfbf" points="323.6577,-.5 323.6577,-18.5 388.5835,-18.5 388.5835,-.5 323.6577,-.5"/>
<text text-anchor="middle" x="356.1206" y="-6.5" font-family="Helvetica,sans-Serif" font-size="10.00" fill="#000000">netinet/in.h</text>
</g>
<!-- Node1&#45;&gt;Node9 -->
<g id="edge9" class="edge">
<title>Node1&#45;&gt;Node9</title>
<path fill="none" stroke="#191970" d="M575.4506,-58.2156C537.4328,-49.8717 467.9891,-34.5945 398.4813,-19.0721"/>
<polygon fill="#191970" stroke="#191970" points="399.1989,-15.6462 388.6763,-16.8809 397.6722,-22.4777 399.1989,-15.6462"/>
</g>
<!-- Node10 -->
<g id="node11" class="node">
<title>Node10</title>
<polygon fill="#ffffff" stroke="#bfbfbf" points="406.8794,-.5 406.8794,-18.5 477.3618,-18.5 477.3618,-.5 406.8794,-.5"/>
<text text-anchor="middle" x="442.1206" y="-6.5" font-family="Helvetica,sans-Serif" font-size="10.00" fill="#000000">netinet/tcp.h</text>
</g>
<!-- Node1&#45;&gt;Node10 -->
<g id="edge10" class="edge">
<title>Node1&#45;&gt;Node10</title>
<path fill="none" stroke="#191970" d="M577.3696,-55.4179C550.3214,-46.2348 508.3366,-31.9807 478.3229,-21.7909"/>
<polygon fill="#191970" stroke="#191970" points="479.2365,-18.4049 468.6421,-18.5042 476.986,-25.0333 479.2365,-18.4049"/>
</g>
<!-- Node11 -->
<g id="node12" class="node">
<title>Node11</title>
<polygon fill="#ffffff" stroke="#bfbfbf" points="495.4927,-.5 495.4927,-18.5 558.7485,-18.5 558.7485,-.5 495.4927,-.5"/>
<text text-anchor="middle" x="527.1206" y="-6.5" font-family="Helvetica,sans-Serif" font-size="10.00" fill="#000000">arpa/inet.h</text>
</g>
<!-- Node1&#45;&gt;Node11 -->
<g id="edge11" class="edge">
<title>Node1&#45;&gt;Node11</title>
<path fill="none" stroke="#191970" d="M591.4056,-55.4179C579.7023,-47.0584 562.1159,-34.4966 548.2941,-24.6239"/>
<polygon fill="#191970" stroke="#191970" points="550.0262,-21.56 539.8545,-18.5956 545.9575,-27.2561 550.0262,-21.56"/>
</g>
<!-- Node12 -->
<g id="node13" class="node">
<title>Node12</title>
<polygon fill="#ffffff" stroke="#bfbfbf" points="576.9434,-.5 576.9434,-18.5 631.2979,-18.5 631.2979,-.5 576.9434,-.5"/>
<text text-anchor="middle" x="604.1206" y="-6.5" font-family="Helvetica,sans-Serif" font-size="10.00" fill="#000000">ifaddrs.h</text>
</g>
<!-- Node1&#45;&gt;Node12 -->
<g id="edge12" class="edge">
<title>Node1&#45;&gt;Node12</title>
<path fill="none" stroke="#191970" d="M604.1206,-55.4179C604.1206,-48.2164 604.1206,-37.8962 604.1206,-28.8632"/>
<polygon fill="#191970" stroke="#191970" points="607.6207,-28.7794 604.1206,-18.7795 600.6207,-28.7795 607.6207,-28.7794"/>
</g>
<!-- Node13 -->
<g id="node14" class="node">
<title>Node13</title>
<polygon fill="#ffffff" stroke="#bfbfbf" points="649.564,-.5 649.564,-18.5 696.6772,-18.5 696.6772,-.5 649.564,-.5"/>
<text text-anchor="middle" x="673.1206" y="-6.5" font-family="Helvetica,sans-Serif" font-size="10.00" fill="#000000">limits.h</text>
</g>
<!-- Node1&#45;&gt;Node13 -->
<g id="edge13" class="edge">
<title>Node1&#45;&gt;Node13</title>
<path fill="none" stroke="#191970" d="M615.5146,-55.4179C625.8398,-47.1876 641.2753,-34.8839 653.5703,-25.0836"/>
<polygon fill="#191970" stroke="#191970" points="655.841,-27.7495 661.4791,-18.7795 651.4777,-22.2757 655.841,-27.7495"/>
</g>
<!-- Node14 -->
<g id="node15" class="node">
<title>Node14</title>
<polygon fill="#ffffff" stroke="#bfbfbf" points="714.4385,-.5 714.4385,-18.5 763.8027,-18.5 763.8027,-.5 714.4385,-.5"/>
<text text-anchor="middle" x="739.1206" y="-6.5" font-family="Helvetica,sans-Serif" font-size="10.00" fill="#000000">netdb.h</text>
</g>
<!-- Node1&#45;&gt;Node14 -->
<g id="edge14" class="edge">
<title>Node1&#45;&gt;Node14</title>
<path fill="none" stroke="#191970" d="M626.4131,-55.4179C648.4952,-46.4215 682.5236,-32.5581 707.4148,-22.4172"/>
<polygon fill="#191970" stroke="#191970" points="708.8546,-25.61 716.795,-18.5956 706.2135,-19.1273 708.8546,-25.61"/>
</g>
<!-- Node15 -->
<g id="node16" class="node">
<title>Node15</title>
<polygon fill="#ffffff" stroke="#bfbfbf" points="781.6084,-.5 781.6084,-18.5 832.6328,-18.5 832.6328,-.5 781.6084,-.5"/>
<text text-anchor="middle" x="807.1206" y="-6.5" font-family="Helvetica,sans-Serif" font-size="10.00" fill="#000000">unistd.h</text>
</g>
<!-- Node1&#45;&gt;Node15 -->
<g id="edge15" class="edge">
<title>Node1&#45;&gt;Node15</title>
<path fill="none" stroke="#191970" d="M632.8496,-56.854C664.5883,-48.3876 717.4664,-34.2252 771.7242,-19.3672"/>
<polygon fill="#191970" stroke="#191970" points="772.7896,-22.7043 781.508,-16.6844 770.9385,-15.9535 772.7896,-22.7043"/>
</g>
<!-- Node16 -->
<g id="node17" class="node">
<title>Node16</title>
<polygon fill="#ffffff" stroke="#bfbfbf" points="850.2783,-.5 850.2783,-18.5 897.9629,-18.5 897.9629,-.5 850.2783,-.5"/>
<text text-anchor="middle" x="874.1206" y="-6.5" font-family="Helvetica,sans-Serif" font-size="10.00" fill="#000000">errno.h</text>
</g>
<!-- Node1&#45;&gt;Node16 -->
<g id="edge16" class="edge">
<title>Node1&#45;&gt;Node16</title>
<path fill="none" stroke="#191970" d="M632.7067,-57.1358C635.876,-56.3843 639.0622,-55.6568 642.1206,-55 727.3204,-36.7035 752.4959,-39.6416 840.2382,-19.2678"/>
<polygon fill="#191970" stroke="#191970" points="841.155,-22.6477 850.0846,-16.9457 839.5482,-15.8346 841.155,-22.6477"/>
</g>
<!-- Node17&#45;&gt;Node1 -->
<g id="edge18" class="edge">
<title>Node17&#45;&gt;Node1</title>
<path fill="none" stroke="#191970" d="M1315.8517,-227.9473C1187.4649,-222.0256 765.1873,-197.6291 651.1206,-129 633.3715,-118.3211 620.3241,-98.1179 612.5399,-83.1564"/>
<polygon fill="#191970" stroke="#191970" points="615.5194,-81.2799 607.9988,-73.8173 609.2242,-84.341 615.5194,-81.2799"/>
</g>
<!-- Node17&#45;&gt;Node18 -->
<g id="edge19" class="edge">
<title>Node17&#45;&gt;Node18</title>
<path fill="none" stroke="#191970" d="M1316.0185,-222.0252C1265.0384,-211.7545 1173.657,-193.3443 1120.8416,-182.7039"/>
<polygon fill="#191970" stroke="#191970" points="1121.3105,-179.2281 1110.8162,-180.6841 1119.9279,-186.0902 1121.3105,-179.2281"/>
</g>
<!-- Node17&#45;&gt;Node21 -->
<g id="edge50" class="edge">
<title>Node17&#45;&gt;Node21</title>
<path fill="none" stroke="#191970" d="M1357.5124,-220.1428C1369.3601,-193.5614 1399.7341,-115.6062 1379.1206,-55 1375.5003,-44.3559 1368.274,-34.2572 1361.3228,-26.2901"/>
<polygon fill="#191970" stroke="#191970" points="1363.7284,-23.7383 1354.3413,-18.8258 1358.6161,-28.52 1363.7284,-23.7383"/>
</g>
<!-- Node17&#45;&gt;Node29 -->
<g id="edge51" class="edge">
<title>Node17&#45;&gt;Node29</title>
<path fill="none" stroke="#191970" d="M1364.4956,-220.4982C1388.2188,-201.7244 1443.2109,-158.2055 1472.6667,-134.8952"/>
<polygon fill="#191970" stroke="#191970" points="1474.9188,-137.5763 1480.5885,-128.6261 1470.5749,-132.0872 1474.9188,-137.5763"/>
</g>
<!-- Node17&#45;&gt;Node32 -->
<g id="edge52" class="edge">
<title>Node17&#45;&gt;Node32</title>
<path fill="none" stroke="#191970" d="M1359.5855,-220.4982C1372.6634,-202.2885 1402.4611,-160.798 1419.5168,-137.0496"/>
<polygon fill="#191970" stroke="#191970" points="1422.5758,-138.7902 1425.5664,-128.6261 1416.8902,-134.7068 1422.5758,-138.7902"/>
</g>
<!-- Node37 -->
<g id="node38" class="node">
<title>Node37</title>
<g id="a_node38"><a xlink:href="span_8h.html" target="_top" xlink:title="span.h">
<polygon fill="#ffffff" stroke="#000000" points="1124.1084,-110.5 1124.1084,-128.5 1170.1328,-128.5 1170.1328,-110.5 1124.1084,-110.5"/>
<text text-anchor="middle" x="1147.1206" y="-116.5" font-family="Helvetica,sans-Serif" font-size="10.00" fill="#000000">span.h</text>
</a>
</g>
</g>
<!-- Node17&#45;&gt;Node37 -->
<g id="edge49" class="edge">
<title>Node17&#45;&gt;Node37</title>
<path fill="none" stroke="#191970" d="M1336.2628,-220.4982C1300.3501,-201.3216 1216.0863,-156.3263 1173.1944,-133.4229"/>
<polygon fill="#191970" stroke="#191970" points="1174.6812,-130.2491 1164.2114,-128.6261 1171.3839,-136.4239 1174.6812,-130.2491"/>
</g>
<!-- Node19 -->
<g id="node20" class="node">
<title>Node19</title>
<g id="a_node20"><a xlink:href="endian_8h.html" target="_top" xlink:title="compat/endian.h">
<polygon fill="#ffffff" stroke="#000000" points="1264.1504,-110.5 1264.1504,-128.5 1354.0908,-128.5 1354.0908,-110.5 1264.1504,-110.5"/>
<text text-anchor="middle" x="1309.1206" y="-116.5" font-family="Helvetica,sans-Serif" font-size="10.00" fill="#000000">compat/endian.h</text>
</a>
</g>
</g>
<!-- Node18&#45;&gt;Node19 -->
<g id="edge20" class="edge">
<title>Node18&#45;&gt;Node19</title>
<path fill="none" stroke="#191970" d="M1111.0046,-167.0825C1149.7082,-157.7868 1216.4384,-141.7599 1261.6491,-130.9015"/>
<polygon fill="#191970" stroke="#191970" points="1262.6102,-134.2702 1271.5163,-128.5316 1260.9754,-127.4638 1262.6102,-134.2702"/>
</g>
<!-- Node18&#45;&gt;Node21 -->
<g id="edge31" class="edge">
<title>Node18&#45;&gt;Node21</title>
<path fill="none" stroke="#191970" d="M1110.6366,-168.0462C1135.7146,-161.533 1171.0667,-149.4508 1196.1206,-129 1226.4896,-104.2106 1214.4217,-80.5884 1244.1206,-55 1263.2443,-38.5231 1289.3209,-26.9221 1310.0506,-19.5592"/>
<polygon fill="#191970" stroke="#191970" points="1311.3912,-22.8007 1319.7436,-16.2824 1309.1494,-16.1694 1311.3912,-22.8007"/>
</g>
<!-- Node22 -->
<g id="node23" class="node">
<title>Node22</title>
<polygon fill="#ffffff" stroke="#bfbfbf" points="1129.5566,-55.5 1129.5566,-73.5 1186.6846,-73.5 1186.6846,-55.5 1129.5566,-55.5"/>
<text text-anchor="middle" x="1158.1206" y="-61.5" font-family="Helvetica,sans-Serif" font-size="10.00" fill="#000000">algorithm</text>
</g>
<!-- Node18&#45;&gt;Node22 -->
<g id="edge24" class="edge">
<title>Node18&#45;&gt;Node22</title>
<path fill="none" stroke="#191970" d="M1110.9934,-169.3958C1134.113,-163.7805 1164.2176,-152.251 1179.1206,-129 1188.3114,-114.6609 1180.4153,-95.9376 1171.8052,-82.3601"/>
<polygon fill="#191970" stroke="#191970" points="1174.5095,-80.118 1165.9315,-73.8996 1168.7594,-84.1101 1174.5095,-80.118"/>
</g>
<!-- Node23 -->
<g id="node24" class="node">
<title>Node23</title>
<polygon fill="#ffffff" stroke="#bfbfbf" points="925.335,-55.5 925.335,-73.5 976.9063,-73.5 976.9063,-55.5 925.335,-55.5"/>
<text text-anchor="middle" x="951.1206" y="-61.5" font-family="Helvetica,sans-Serif" font-size="10.00" fill="#000000">assert.h</text>
</g>
<!-- Node18&#45;&gt;Node23 -->
<g id="edge25" class="edge">
<title>Node18&#45;&gt;Node23</title>
<path fill="none" stroke="#191970" d="M1049.5755,-171.8255C1000.3714,-166.8146 907.0462,-154.1693 887.1206,-129 872.1663,-110.1103 897.8338,-90.8026 920.9767,-78.2989"/>
<polygon fill="#191970" stroke="#191970" points="922.6552,-81.3716 929.9585,-73.6961 919.4628,-75.142 922.6552,-81.3716"/>
</g>
<!-- Node24 -->
<g id="node25" class="node">
<title>Node24</title>
<polygon fill="#ffffff" stroke="#bfbfbf" points="896.6206,-110.5 896.6206,-128.5 925.6206,-128.5 925.6206,-110.5 896.6206,-110.5"/>
<text text-anchor="middle" x="911.0122" y="-116.5" font-family="Helvetica,sans-Serif" font-size="10.00" fill="#000000">ios</text>
</g>
<!-- Node18&#45;&gt;Node24 -->
<g id="edge26" class="edge">
<title>Node18&#45;&gt;Node24</title>
<path fill="none" stroke="#191970" d="M1049.3553,-165.5554C1021.8147,-157.3927 980.1622,-144.6664 935.3795,-128.9069"/>
<polygon fill="#191970" stroke="#191970" points="936.3745,-125.5461 925.7798,-125.4984 934.0324,-132.1427 936.3745,-125.5461"/>
</g>
<!-- Node25 -->
<g id="node26" class="node">
<title>Node25</title>
<polygon fill="#ffffff" stroke="#bfbfbf" points="943.7339,-110.5 943.7339,-128.5 982.5073,-128.5 982.5073,-110.5 943.7339,-110.5"/>
<text text-anchor="middle" x="963.1206" y="-116.5" font-family="Helvetica,sans-Serif" font-size="10.00" fill="#000000">limits</text>
</g>
<!-- Node18&#45;&gt;Node25 -->
<g id="edge27" class="edge">
<title>Node18&#45;&gt;Node25</title>
<path fill="none" stroke="#191970" d="M1060.8004,-165.4179C1042.0014,-156.5807 1013.2121,-143.0473 991.7517,-132.9591"/>
<polygon fill="#191970" stroke="#191970" points="993.0084,-129.6824 982.4695,-128.5956 990.0304,-136.0174 993.0084,-129.6824"/>
</g>
<!-- Node26 -->
<g id="node27" class="node">
<title>Node26</title>
<polygon fill="#ffffff" stroke="#bfbfbf" points="1000.394,-110.5 1000.394,-128.5 1035.8472,-128.5 1035.8472,-110.5 1000.394,-110.5"/>
<text text-anchor="middle" x="1018.1206" y="-116.5" font-family="Helvetica,sans-Serif" font-size="10.00" fill="#000000">map</text>
</g>
<!-- Node18&#45;&gt;Node26 -->
<g id="edge28" class="edge">
<title>Node18&#45;&gt;Node26</title>
<path fill="none" stroke="#191970" d="M1069.8826,-165.4179C1060.7832,-157.3458 1047.2669,-145.3556 1036.328,-135.6517"/>
<polygon fill="#191970" stroke="#191970" points="1038.3845,-132.7974 1028.5811,-128.7795 1033.7392,-138.0339 1038.3845,-132.7974"/>
</g>
<!-- Node27 -->
<g id="node28" class="node">
<title>Node27</title>
<polygon fill="#ffffff" stroke="#bfbfbf" points="1054.064,-110.5 1054.064,-128.5 1106.1772,-128.5 1106.1772,-110.5 1054.064,-110.5"/>
<text text-anchor="middle" x="1080.1206" y="-116.5" font-family="Helvetica,sans-Serif" font-size="10.00" fill="#000000">memory</text>
</g>
<!-- Node18&#45;&gt;Node27 -->
<g id="edge29" class="edge">
<title>Node18&#45;&gt;Node27</title>
<path fill="none" stroke="#191970" d="M1080.1206,-165.4179C1080.1206,-158.2164 1080.1206,-147.8962 1080.1206,-138.8632"/>
<polygon fill="#191970" stroke="#191970" points="1083.6207,-138.7794 1080.1206,-128.7795 1076.6207,-138.7795 1083.6207,-138.7794"/>
</g>
<!-- Node28 -->
<g id="node29" class="node">
<title>Node28</title>
<polygon fill="#ffffff" stroke="#bfbfbf" points="670.4507,-110.5 670.4507,-128.5 699.7905,-128.5 699.7905,-110.5 670.4507,-110.5"/>
<text text-anchor="middle" x="685.1206" y="-116.5" font-family="Helvetica,sans-Serif" font-size="10.00" fill="#000000">set</text>
</g>
<!-- Node18&#45;&gt;Node28 -->
<g id="edge30" class="edge">
<title>Node18&#45;&gt;Node28</title>
<path fill="none" stroke="#191970" d="M1049.3376,-173.3708C986.7111,-170.5132 840.0782,-160.964 709.6635,-128.5108"/>
<polygon fill="#191970" stroke="#191970" points="710.4586,-125.1017 699.9047,-126.0311 708.7347,-131.8861 710.4586,-125.1017"/>
</g>
<!-- Node18&#45;&gt;Node29 -->
<g id="edge32" class="edge">
<title>Node18&#45;&gt;Node29</title>
<path fill="none" stroke="#191970" d="M1110.7501,-172.9267C1174.5486,-169.2111 1326.3345,-158.0869 1461.5469,-128.977"/>
<polygon fill="#191970" stroke="#191970" points="1462.6474,-132.3189 1471.6653,-126.7576 1461.1476,-125.4814 1462.6474,-132.3189"/>
</g>
<!-- Node30 -->
<g id="node31" class="node">
<title>Node30</title>
<polygon fill="#ffffff" stroke="#bfbfbf" points="650.7241,-55.5 650.7241,-73.5 699.5171,-73.5 699.5171,-55.5 650.7241,-55.5"/>
<text text-anchor="middle" x="675.1206" y="-61.5" font-family="Helvetica,sans-Serif" font-size="10.00" fill="#000000">string.h</text>
</g>
<!-- Node18&#45;&gt;Node30 -->
<g id="edge33" class="edge">
<title>Node18&#45;&gt;Node30</title>
<path fill="none" stroke="#191970" d="M1049.5377,-173.4877C957.37,-170.1256 687.0201,-157.8642 661.1206,-129 649.8043,-116.3883 656.2327,-96.8252 663.6817,-82.5496"/>
<polygon fill="#191970" stroke="#191970" points="666.8421,-84.0747 668.7962,-73.6616 660.775,-80.5833 666.8421,-84.0747"/>
</g>
<!-- Node31 -->
<g id="node32" class="node">
<title>Node31</title>
<polygon fill="#ffffff" stroke="#bfbfbf" points="717.729,-110.5 717.729,-128.5 756.5122,-128.5 756.5122,-110.5 717.729,-110.5"/>
<text text-anchor="middle" x="737.1206" y="-116.5" font-family="Helvetica,sans-Serif" font-size="10.00" fill="#000000">utility</text>
</g>
<!-- Node18&#45;&gt;Node31 -->
<g id="edge34" class="edge">
<title>Node18&#45;&gt;Node31</title>
<path fill="none" stroke="#191970" d="M1049.3595,-171.9478C994.2472,-166.9712 875.0063,-154.3694 766.3736,-128.9453"/>
<polygon fill="#191970" stroke="#191970" points="767.1077,-125.5223 756.5686,-126.6081 765.4845,-132.3315 767.1077,-125.5223"/>
</g>
<!-- Node18&#45;&gt;Node32 -->
<g id="edge35" class="edge">
<title>Node18&#45;&gt;Node32</title>
<path fill="none" stroke="#191970" d="M1110.7425,-169.7153C1176.9499,-159.3704 1332.8677,-135.0083 1400.2163,-124.4851"/>
<polygon fill="#191970" stroke="#191970" points="1400.8978,-127.9211 1410.2375,-122.9192 1399.8171,-121.005 1400.8978,-127.9211"/>
</g>
<!-- Node33 -->
<g id="node34" class="node">
<title>Node33</title>
<g id="a_node34"><a xlink:href="prevector_8h.html" target="_top" xlink:title="prevector.h">
<polygon fill="#ffffff" stroke="#000000" points="774.3818,-110.5 774.3818,-128.5 839.8594,-128.5 839.8594,-110.5 774.3818,-110.5"/>
<text text-anchor="middle" x="807.1206" y="-116.5" font-family="Helvetica,sans-Serif" font-size="10.00" fill="#000000">prevector.h</text>
</a>
</g>
</g>
<!-- Node18&#45;&gt;Node33 -->
<g id="edge36" class="edge">
<title>Node18&#45;&gt;Node33</title>
<path fill="none" stroke="#191970" d="M1049.4131,-168.3255C1005.9381,-159.582 923.9555,-143.0876 854.1206,-129 852.8353,-128.7407 851.5303,-128.4774 850.2129,-128.2115"/>
<polygon fill="#191970" stroke="#191970" points="850.4849,-124.6959 839.9899,-126.1471 849.0993,-131.5574 850.4849,-124.6959"/>
</g>
<!-- Node18&#45;&gt;Node37 -->
<g id="edge45" class="edge">
<title>Node18&#45;&gt;Node37</title>
<path fill="none" stroke="#191970" d="M1091.1843,-165.4179C1101.1139,-157.2667 1115.9106,-145.1201 1127.7918,-135.3669"/>
<polygon fill="#191970" stroke="#191970" points="1130.308,-137.8297 1135.8165,-128.7795 1125.8665,-132.4192 1130.308,-137.8297"/>
</g>
<!-- Node20 -->
<g id="node21" class="node">
<title>Node20</title>
<g id="a_node21"><a xlink:href="byteswap_8h.html" target="_top" xlink:title="compat/byteswap.h">
<polygon fill="#ffffff" stroke="#000000" points="1253.042,-55.5 1253.042,-73.5 1355.1992,-73.5 1355.1992,-55.5 1253.042,-55.5"/>
<text text-anchor="middle" x="1304.1206" y="-61.5" font-family="Helvetica,sans-Serif" font-size="10.00" fill="#000000">compat/byteswap.h</text>
</a>
</g>
</g>
<!-- Node19&#45;&gt;Node20 -->
<g id="edge21" class="edge">
<title>Node19&#45;&gt;Node20</title>
<path fill="none" stroke="#191970" d="M1308.295,-110.4179C1307.6403,-103.2164 1306.7021,-92.8962 1305.8809,-83.8632"/>
<polygon fill="#191970" stroke="#191970" points="1309.3553,-83.4215 1304.9642,-73.7795 1302.384,-84.0553 1309.3553,-83.4215"/>
</g>
<!-- Node19&#45;&gt;Node21 -->
<g id="edge23" class="edge">
<title>Node19&#45;&gt;Node21</title>
<path fill="none" stroke="#191970" d="M1326.8591,-110.4258C1339.841,-102.6967 1356.4697,-90.259 1364.1206,-74 1371.2706,-58.8056 1364.1586,-40.4222 1356.5057,-27.175"/>
<polygon fill="#191970" stroke="#191970" points="1359.3484,-25.1224 1351.0339,-18.5558 1353.4387,-28.8741 1359.3484,-25.1224"/>
</g>
<!-- Node20&#45;&gt;Node21 -->
<g id="edge22" class="edge">
<title>Node20&#45;&gt;Node21</title>
<path fill="none" stroke="#191970" d="M1310.7258,-55.4179C1316.3086,-47.7415 1324.4685,-36.5217 1331.3246,-27.0945"/>
<polygon fill="#191970" stroke="#191970" points="1334.3207,-28.9255 1337.3719,-18.7795 1328.6596,-24.8082 1334.3207,-28.9255"/>
</g>
<!-- Node33&#45;&gt;Node1 -->
<g id="edge44" class="edge">
<title>Node33&#45;&gt;Node1</title>
<path fill="none" stroke="#191970" d="M774.0533,-110.5409C738.0601,-100.789 680.5766,-85.2147 642.5893,-74.9225"/>
<polygon fill="#191970" stroke="#191970" points="643.469,-71.5348 632.9017,-72.2978 641.6384,-78.2912 643.469,-71.5348"/>
</g>
<!-- Node33&#45;&gt;Node2 -->
<g id="edge43" class="edge">
<title>Node33&#45;&gt;Node2</title>
<path fill="none" stroke="#191970" d="M814.9867,-110.3847C827.77,-96.1926 854.5181,-68.9943 883.1206,-55 950.3973,-22.0835 976.7211,-34.8495 1053.5535,-19.2152"/>
<polygon fill="#191970" stroke="#191970" points="1054.6485,-22.5602 1063.6961,-17.0475 1053.1854,-15.7148 1054.6485,-22.5602"/>
</g>
<!-- Node33&#45;&gt;Node21 -->
<g id="edge39" class="edge">
<title>Node33&#45;&gt;Node21</title>
<path fill="none" stroke="#191970" d="M822.3044,-110.4024C851.6649,-92.8258 913.5769,-55.8433 916.1206,-55 989.1343,-30.7944 1221.5285,-16.094 1309.7252,-11.2657"/>
<polygon fill="#191970" stroke="#191970" points="1309.9485,-14.7589 1319.7457,-10.7259 1309.5718,-7.769 1309.9485,-14.7589"/>
</g>
<!-- Node33&#45;&gt;Node23 -->
<g id="edge37" class="edge">
<title>Node33&#45;&gt;Node23</title>
<path fill="none" stroke="#191970" d="M830.8993,-110.4179C854.5577,-101.3817 891.0719,-87.4353 917.653,-77.2828"/>
<polygon fill="#191970" stroke="#191970" points="919.2136,-80.4334 927.3066,-73.5956 916.716,-73.8941 919.2136,-80.4334"/>
</g>
<!-- Node33&#45;&gt;Node30 -->
<g id="edge40" class="edge">
<title>Node33&#45;&gt;Node30</title>
<path fill="none" stroke="#191970" d="M785.3235,-110.4179C763.8277,-101.4613 730.7542,-87.6806 706.4454,-77.552"/>
<polygon fill="#191970" stroke="#191970" points="707.5271,-74.2111 696.9501,-73.5956 704.8347,-80.6726 707.5271,-74.2111"/>
</g>
<!-- Node34 -->
<g id="node35" class="node">
<title>Node34</title>
<polygon fill="#ffffff" stroke="#bfbfbf" points="783.2783,-55.5 783.2783,-73.5 830.9629,-73.5 830.9629,-55.5 783.2783,-55.5"/>
<text text-anchor="middle" x="807.1206" y="-61.5" font-family="Helvetica,sans-Serif" font-size="10.00" fill="#000000">stdlib.h</text>
</g>
<!-- Node33&#45;&gt;Node34 -->
<g id="edge38" class="edge">
<title>Node33&#45;&gt;Node34</title>
<path fill="none" stroke="#191970" d="M807.1206,-110.4179C807.1206,-103.2164 807.1206,-92.8962 807.1206,-83.8632"/>
<polygon fill="#191970" stroke="#191970" points="810.6207,-83.7794 807.1206,-73.7795 803.6207,-83.7795 810.6207,-83.7794"/>
</g>
<!-- Node35 -->
<g id="node36" class="node">
<title>Node35</title>
<polygon fill="#ffffff" stroke="#bfbfbf" points="1010,-55.5 1010,-73.5 1058.2412,-73.5 1058.2412,-55.5 1010,-55.5"/>
<text text-anchor="middle" x="1034.1206" y="-61.5" font-family="Helvetica,sans-Serif" font-size="10.00" fill="#000000">cstddef</text>
</g>
<!-- Node33&#45;&gt;Node35 -->
<g id="edge41" class="edge">
<title>Node33&#45;&gt;Node35</title>
<path fill="none" stroke="#191970" d="M840.1284,-111.5025C882.8177,-101.1593 956.8066,-83.2325 1000.0216,-72.7619"/>
<polygon fill="#191970" stroke="#191970" points="1000.8952,-76.1516 1009.7898,-70.3951 999.2468,-69.3484 1000.8952,-76.1516"/>
</g>
<!-- Node36 -->
<g id="node37" class="node">
<title>Node36</title>
<polygon fill="#ffffff" stroke="#bfbfbf" points="718.5591,-55.5 718.5591,-73.5 765.6821,-73.5 765.6821,-55.5 718.5591,-55.5"/>
<text text-anchor="middle" x="742.1206" y="-61.5" font-family="Helvetica,sans-Serif" font-size="10.00" fill="#000000">iterator</text>
</g>
<!-- Node33&#45;&gt;Node36 -->
<g id="edge42" class="edge">
<title>Node33&#45;&gt;Node36</title>
<path fill="none" stroke="#191970" d="M796.3872,-110.4179C786.754,-102.2667 772.3989,-90.1201 760.8724,-80.3669"/>
<polygon fill="#191970" stroke="#191970" points="762.9819,-77.5671 753.0872,-73.7795 758.4603,-82.9108 762.9819,-77.5671"/>
</g>
<!-- Node37&#45;&gt;Node2 -->
<g id="edge46" class="edge">
<title>Node37&#45;&gt;Node2</title>
<path fill="none" stroke="#191970" d="M1141.0703,-110.3394C1135.2652,-101.3243 1126.468,-87.0513 1120.1206,-74 1112.8983,-59.1499 1106.2222,-41.6447 1101.5891,-28.6206"/>
<polygon fill="#191970" stroke="#191970" points="1104.7972,-27.1895 1098.2106,-18.8909 1098.1845,-29.4857 1104.7972,-27.1895"/>
</g>
<!-- Node37&#45;&gt;Node22 -->
<g id="edge48" class="edge">
<title>Node37&#45;&gt;Node22</title>
<path fill="none" stroke="#191970" d="M1148.937,-110.4179C1150.3773,-103.2164 1152.4414,-92.8962 1154.248,-83.8632"/>
<polygon fill="#191970" stroke="#191970" points="1157.7355,-84.2717 1156.2647,-73.7795 1150.8714,-82.8988 1157.7355,-84.2717"/>
</g>
<!-- Node37&#45;&gt;Node35 -->
<g id="edge47" class="edge">
<title>Node37&#45;&gt;Node35</title>
<path fill="none" stroke="#191970" d="M1128.461,-110.4179C1110.3864,-101.6205 1082.7499,-88.1691 1062.0534,-78.0956"/>
<polygon fill="#191970" stroke="#191970" points="1063.3313,-74.825 1052.808,-73.5956 1060.2677,-81.1191 1063.3313,-74.825"/>
</g>
</g>
</svg>
