<?xml version="1.0" encoding="UTF-8" standalone="no"?>
<!DOCTYPE svg PUBLIC "-//W3C//DTD SVG 1.1//EN"
 "http://www.w3.org/Graphics/SVG/1.1/DTD/svg11.dtd">
<!-- Generated by graphviz version 2.40.1 (20161225.0304)
 -->
<!-- Title: LookupNumeric Pages: 1 -->
<svg width="481pt" height="148pt"
 viewBox="0.00 0.00 480.99 148.00" xmlns="http://www.w3.org/2000/svg" xmlns:xlink="http://www.w3.org/1999/xlink">
<g id="graph0" class="graph" transform="scale(1 1) rotate(0) translate(4 144)">
<title>LookupNumeric</title>
<polygon fill="#ffffff" stroke="transparent" points="-4,4 -4,-144 476.9932,-144 476.9932,4 -4,4"/>
<!-- Node71 -->
<g id="node1" class="node">
<title>Node71</title>
<polygon fill="#bfbfbf" stroke="#000000" points="0,-65.5 0,-83.5 86.0342,-83.5 86.0342,-65.5 0,-65.5"/>
<text text-anchor="middle" x="43.0171" y="-71.5" font-family="Helvetica,sans-Serif" font-size="10.00" fill="#000000">LookupNumeric</text>
</g>
<!-- Node72 -->
<g id="node2" class="node">
<title>Node72</title>
<g id="a_node2"><a xlink:href="class_h_t_t_p_request.html#adf2ae069a064fd7cc102914f2da3a674" target="_top" xlink:title="Get CService (address:ip) for the origin of the http request. ">
<polygon fill="#ffffff" stroke="#000000" points="139.8369,-121.5 139.8369,-139.5 261.9893,-139.5 261.9893,-121.5 139.8369,-121.5"/>
<text text-anchor="middle" x="200.9131" y="-127.5" font-family="Helvetica,sans-Serif" font-size="10.00" fill="#000000">HTTPRequest::GetPeer</text>
</a>
</g>
</g>
<!-- Node71&#45;&gt;Node72 -->
<g id="edge1" class="edge">
<title>Node71&#45;&gt;Node72</title>
<path fill="none" stroke="#191970" d="M68.4513,-88.5318C83.6435,-96.4529 103.528,-106.0305 122.0342,-112.5 131.9787,-115.9765 142.8666,-118.9609 153.2916,-121.4432"/>
<polygon fill="#191970" stroke="#191970" points="69.6795,-85.2208 59.207,-83.6151 66.3924,-91.4011 69.6795,-85.2208"/>
</g>
<!-- Node73 -->
<g id="node3" class="node">
<title>Node73</title>
<g id="a_node3"><a xlink:href="net_8h.html#a0cde2b3256757536c42c0bd3037847d1" target="_top" xlink:title="AdvertiseLocal">
<polygon fill="#ffffff" stroke="#000000" points="160.1177,-84.5 160.1177,-102.5 241.7085,-102.5 241.7085,-84.5 160.1177,-84.5"/>
<text text-anchor="middle" x="200.9131" y="-90.5" font-family="Helvetica,sans-Serif" font-size="10.00" fill="#000000">AdvertiseLocal</text>
</a>
</g>
</g>
<!-- Node71&#45;&gt;Node73 -->
<g id="edge2" class="edge">
<title>Node71&#45;&gt;Node73</title>
<path fill="none" stroke="#191970" d="M96.1459,-80.8931C116.9834,-83.4005 140.5174,-86.2324 159.9942,-88.5761"/>
<polygon fill="#191970" stroke="#191970" points="96.5094,-77.4117 86.1629,-79.6918 95.6731,-84.3616 96.5094,-77.4117"/>
</g>
<!-- Node74 -->
<g id="node4" class="node">
<title>Node74</title>
<g id="a_node4"><a xlink:href="class_c_connman.html#ad86a46ddbc6c99900d58ab89b65eaece" target="_top" xlink:title="CConnman::GetAddedNodeInfo">
<polygon fill="#ffffff" stroke="#000000" points="122.0342,-47.5 122.0342,-65.5 279.792,-65.5 279.792,-47.5 122.0342,-47.5"/>
<text text-anchor="middle" x="200.9131" y="-53.5" font-family="Helvetica,sans-Serif" font-size="10.00" fill="#000000">CConnman::GetAddedNodeInfo</text>
</a>
</g>
</g>
<!-- Node71&#45;&gt;Node74 -->
<g id="edge3" class="edge">
<title>Node71&#45;&gt;Node74</title>
<path fill="none" stroke="#191970" d="M96.3716,-68.4176C104.633,-67.4758 113.3137,-66.4862 121.994,-65.4967"/>
<polygon fill="#191970" stroke="#191970" points="95.7021,-64.9712 86.1629,-69.5814 96.495,-71.9262 95.7021,-64.9712"/>
</g>
<!-- Node76 -->
<g id="node6" class="node">
<title>Node76</title>
<g id="a_node6"><a xlink:href="class_proxy_address_validator.html#a8d97c3857f7dfcd118fb1b1634b38369" target="_top" xlink:title="ProxyAddressValidator\l::validate">
<polygon fill="#ffffff" stroke="#000000" points="142.4248,-.5 142.4248,-28.5 259.4014,-28.5 259.4014,-.5 142.4248,-.5"/>
<text text-anchor="start" x="150.4248" y="-16.5" font-family="Helvetica,sans-Serif" font-size="10.00" fill="#000000">ProxyAddressValidator</text>
<text text-anchor="middle" x="200.9131" y="-6.5" font-family="Helvetica,sans-Serif" font-size="10.00" fill="#000000">::validate</text>
</a>
</g>
</g>
<!-- Node71&#45;&gt;Node76 -->
<g id="edge5" class="edge">
<title>Node71&#45;&gt;Node76</title>
<path fill="none" stroke="#191970" d="M70.479,-60.9057C85.5046,-53.7444 104.5677,-45.103 122.0342,-38.5 131.2728,-35.0075 141.2615,-31.6541 150.9249,-28.6186"/>
<polygon fill="#191970" stroke="#191970" points="68.7304,-57.8633 61.2455,-65.3617 71.7728,-64.1676 68.7304,-57.8633"/>
</g>
<!-- Node75 -->
<g id="node5" class="node">
<title>Node75</title>
<g id="a_node5"><a xlink:href="class_c_connman.html#a0b787caf95e52a346a2b31a580d60a62" target="_top" xlink:title="CConnman::ThreadOpenAdded\lConnections">
<polygon fill="#ffffff" stroke="#000000" points="315.792,-42.5 315.792,-70.5 472.9932,-70.5 472.9932,-42.5 315.792,-42.5"/>
<text text-anchor="start" x="323.792" y="-58.5" font-family="Helvetica,sans-Serif" font-size="10.00" fill="#000000">CConnman::ThreadOpenAdded</text>
<text text-anchor="middle" x="394.3926" y="-48.5" font-family="Helvetica,sans-Serif" font-size="10.00" fill="#000000">Connections</text>
</a>
</g>
</g>
<!-- Node74&#45;&gt;Node75 -->
<g id="edge4" class="edge">
<title>Node74&#45;&gt;Node75</title>
<path fill="none" stroke="#191970" d="M289.9206,-56.5C298.5131,-56.5 307.1875,-56.5 315.6704,-56.5"/>
<polygon fill="#191970" stroke="#191970" points="289.8877,-53.0001 279.8877,-56.5 289.8876,-60.0001 289.8877,-53.0001"/>
</g>
</g>
</svg>
