<?xml version="1.0" encoding="UTF-8" standalone="no"?>
<!DOCTYPE svg PUBLIC "-//W3C//DTD SVG 1.1//EN"
 "http://www.w3.org/Graphics/SVG/1.1/DTD/svg11.dtd">
<!-- Generated by graphviz version 2.40.1 (20161225.0304)
 -->
<!-- Title: src/qt/networkstyle.h Pages: 1 -->
<svg width="496pt" height="82pt"
 viewBox="0.00 0.00 496.04 82.00" xmlns="http://www.w3.org/2000/svg" xmlns:xlink="http://www.w3.org/1999/xlink">
<g id="graph0" class="graph" transform="scale(1 1) rotate(0) translate(4 78)">
<title>src/qt/networkstyle.h</title>
<polygon fill="#ffffff" stroke="transparent" points="-4,4 -4,-78 492.0415,-78 492.0415,4 -4,4"/>
<!-- Node4 -->
<g id="node1" class="node">
<title>Node4</title>
<polygon fill="#bfbfbf" stroke="#000000" points="171.9458,-55.5 171.9458,-73.5 279.0884,-73.5 279.0884,-55.5 171.9458,-55.5"/>
<text text-anchor="middle" x="225.5171" y="-61.5" font-family="Helvetica,sans-Serif" font-size="10.00" fill="#000000">src/qt/networkstyle.h</text>
</g>
<!-- Node5 -->
<g id="node2" class="node">
<title>Node5</title>
<g id="a_node2"><a xlink:href="bitcoin_8cpp.html" target="_top" xlink:title="src/qt/bitcoin.cpp">
<polygon fill="#ffffff" stroke="#000000" points="0,-.5 0,-18.5 91.0342,-18.5 91.0342,-.5 0,-.5"/>
<text text-anchor="middle" x="45.5171" y="-6.5" font-family="Helvetica,sans-Serif" font-size="10.00" fill="#000000">src/qt/bitcoin.cpp</text>
</a>
</g>
</g>
<!-- Node4&#45;&gt;Node5 -->
<g id="edge1" class="edge">
<title>Node4&#45;&gt;Node5</title>
<path fill="none" stroke="#191970" d="M185.8775,-52.3879C152.3973,-42.1578 105.2053,-27.7381 74.9854,-18.5042"/>
<polygon fill="#191970" stroke="#191970" points="185.2074,-55.8428 195.7938,-55.4179 187.253,-49.1484 185.2074,-55.8428"/>
</g>
<!-- Node6 -->
<g id="node3" class="node">
<title>Node6</title>
<g id="a_node3"><a xlink:href="bitcoingui_8cpp.html" target="_top" xlink:title="src/qt/bitcoingui.cpp">
<polygon fill="#ffffff" stroke="#000000" points="109.3276,-.5 109.3276,-18.5 213.7065,-18.5 213.7065,-.5 109.3276,-.5"/>
<text text-anchor="middle" x="161.5171" y="-6.5" font-family="Helvetica,sans-Serif" font-size="10.00" fill="#000000">src/qt/bitcoingui.cpp</text>
</a>
</g>
</g>
<!-- Node4&#45;&gt;Node6 -->
<g id="edge2" class="edge">
<title>Node4&#45;&gt;Node6</title>
<path fill="none" stroke="#191970" d="M207.3269,-48.8678C196.0229,-39.1535 181.8742,-26.9944 172.315,-18.7795"/>
<polygon fill="#191970" stroke="#191970" points="205.0834,-51.5546 214.9488,-55.4179 209.6458,-46.2457 205.0834,-51.5546"/>
</g>
<!-- Node7 -->
<g id="node4" class="node">
<title>Node7</title>
<g id="a_node4"><a xlink:href="networkstyle_8cpp.html" target="_top" xlink:title="src/qt/networkstyle.cpp">
<polygon fill="#ffffff" stroke="#000000" points="231.665,-.5 231.665,-18.5 349.3691,-18.5 349.3691,-.5 231.665,-.5"/>
<text text-anchor="middle" x="290.5171" y="-6.5" font-family="Helvetica,sans-Serif" font-size="10.00" fill="#000000">src/qt/networkstyle.cpp</text>
</a>
</g>
</g>
<!-- Node4&#45;&gt;Node7 -->
<g id="edge3" class="edge">
<title>Node4&#45;&gt;Node7</title>
<path fill="none" stroke="#191970" d="M243.9915,-48.8678C255.4721,-39.1535 269.8419,-26.9944 279.5505,-18.7795"/>
<polygon fill="#191970" stroke="#191970" points="241.6236,-46.2866 236.2505,-55.4179 246.1452,-51.6303 241.6236,-46.2866"/>
</g>
<!-- Node8 -->
<g id="node5" class="node">
<title>Node8</title>
<g id="a_node5"><a xlink:href="splashscreen_8cpp.html" target="_top" xlink:title="src/qt/splashscreen.cpp">
<polygon fill="#ffffff" stroke="#000000" points="366.9927,-.5 366.9927,-18.5 488.0415,-18.5 488.0415,-.5 366.9927,-.5"/>
<text text-anchor="middle" x="427.5171" y="-6.5" font-family="Helvetica,sans-Serif" font-size="10.00" fill="#000000">src/qt/splashscreen.cpp</text>
</a>
</g>
</g>
<!-- Node4&#45;&gt;Node8 -->
<g id="edge4" class="edge">
<title>Node4&#45;&gt;Node8</title>
<path fill="none" stroke="#191970" d="M268.5517,-52.7826C306.2009,-42.5316 360.0952,-27.8575 394.4471,-18.5042"/>
<polygon fill="#191970" stroke="#191970" points="267.6025,-49.4136 258.8733,-55.4179 269.4415,-56.1677 267.6025,-49.4136"/>
</g>
</g>
</svg>
