<?xml version="1.0" encoding="UTF-8" standalone="no"?>
<!DOCTYPE svg PUBLIC "-//W3C//DTD SVG 1.1//EN"
 "http://www.w3.org/Graphics/SVG/1.1/DTD/svg11.dtd">
<!-- Generated by graphviz version 2.40.1 (20161225.0304)
 -->
<!-- Title: src/qt/networkstyle.cpp Pages: 1 -->
<svg width="343pt" height="137pt"
 viewBox="0.00 0.00 342.69 137.00" xmlns="http://www.w3.org/2000/svg" xmlns:xlink="http://www.w3.org/1999/xlink">
<g id="graph0" class="graph" transform="scale(1 1) rotate(0) translate(4 133)">
<title>src/qt/networkstyle.cpp</title>
<polygon fill="#ffffff" stroke="transparent" points="-4,4 -4,-133 338.6895,-133 338.6895,4 -4,4"/>
<!-- Node0 -->
<g id="node1" class="node">
<title>Node0</title>
<polygon fill="#bfbfbf" stroke="#000000" points="139.4878,-110.5 139.4878,-128.5 257.1919,-128.5 257.1919,-110.5 139.4878,-110.5"/>
<text text-anchor="middle" x="198.3398" y="-116.5" font-family="Helvetica,sans-Serif" font-size="10.00" fill="#000000">src/qt/networkstyle.cpp</text>
</g>
<!-- Node1 -->
<g id="node2" class="node">
<title>Node1</title>
<g id="a_node2"><a xlink:href="networkstyle_8h.html" target="_top" xlink:title="qt/networkstyle.h">
<polygon fill="#ffffff" stroke="#000000" points="43.8228,-55.5 43.8228,-73.5 134.8569,-73.5 134.8569,-55.5 43.8228,-55.5"/>
<text text-anchor="middle" x="89.3398" y="-61.5" font-family="Helvetica,sans-Serif" font-size="10.00" fill="#000000">qt/networkstyle.h</text>
</a>
</g>
</g>
<!-- Node0&#45;&gt;Node1 -->
<g id="edge1" class="edge">
<title>Node0&#45;&gt;Node1</title>
<path fill="none" stroke="#191970" d="M180.3407,-110.4179C162.9848,-101.6603 136.4888,-88.2907 116.5553,-78.2326"/>
<polygon fill="#191970" stroke="#191970" points="117.8703,-74.9758 107.3657,-73.5956 114.7168,-81.2253 117.8703,-74.9758"/>
</g>
<!-- Node5 -->
<g id="node6" class="node">
<title>Node5</title>
<g id="a_node6"><a xlink:href="guiconstants_8h.html" target="_top" xlink:title="qt/guiconstants.h">
<polygon fill="#ffffff" stroke="#000000" points="152.5371,-55.5 152.5371,-73.5 244.1426,-73.5 244.1426,-55.5 152.5371,-55.5"/>
<text text-anchor="middle" x="198.3398" y="-61.5" font-family="Helvetica,sans-Serif" font-size="10.00" fill="#000000">qt/guiconstants.h</text>
</a>
</g>
</g>
<!-- Node0&#45;&gt;Node5 -->
<g id="edge5" class="edge">
<title>Node0&#45;&gt;Node5</title>
<path fill="none" stroke="#191970" d="M198.3398,-110.4179C198.3398,-103.2164 198.3398,-92.8962 198.3398,-83.8632"/>
<polygon fill="#191970" stroke="#191970" points="201.8399,-83.7794 198.3398,-73.7795 194.8399,-83.7795 201.8399,-83.7794"/>
</g>
<!-- Node6 -->
<g id="node7" class="node">
<title>Node6</title>
<polygon fill="#ffffff" stroke="#bfbfbf" points="261.9902,-55.5 261.9902,-73.5 334.6895,-73.5 334.6895,-55.5 261.9902,-55.5"/>
<text text-anchor="middle" x="298.3398" y="-61.5" font-family="Helvetica,sans-Serif" font-size="10.00" fill="#000000">QApplication</text>
</g>
<!-- Node0&#45;&gt;Node6 -->
<g id="edge6" class="edge">
<title>Node0&#45;&gt;Node6</title>
<path fill="none" stroke="#191970" d="M214.8528,-110.4179C230.6309,-101.7399 254.6427,-88.5334 272.8713,-78.5077"/>
<polygon fill="#191970" stroke="#191970" points="274.7269,-81.4816 281.8023,-73.5956 271.3534,-75.3481 274.7269,-81.4816"/>
</g>
<!-- Node2 -->
<g id="node3" class="node">
<title>Node2</title>
<polygon fill="#ffffff" stroke="#bfbfbf" points="0,-.5 0,-18.5 42.6797,-18.5 42.6797,-.5 0,-.5"/>
<text text-anchor="middle" x="21.3398" y="-6.5" font-family="Helvetica,sans-Serif" font-size="10.00" fill="#000000">QIcon</text>
</g>
<!-- Node1&#45;&gt;Node2 -->
<g id="edge2" class="edge">
<title>Node1&#45;&gt;Node2</title>
<path fill="none" stroke="#191970" d="M78.111,-55.4179C67.9354,-47.1876 52.7236,-34.8839 40.6068,-25.0836"/>
<polygon fill="#191970" stroke="#191970" points="42.7888,-22.3469 32.8126,-18.7795 38.3867,-27.7895 42.7888,-22.3469"/>
</g>
<!-- Node3 -->
<g id="node4" class="node">
<title>Node3</title>
<polygon fill="#ffffff" stroke="#bfbfbf" points="60.7783,-.5 60.7783,-18.5 117.9014,-18.5 117.9014,-.5 60.7783,-.5"/>
<text text-anchor="middle" x="89.3398" y="-6.5" font-family="Helvetica,sans-Serif" font-size="10.00" fill="#000000">QPixmap</text>
</g>
<!-- Node1&#45;&gt;Node3 -->
<g id="edge3" class="edge">
<title>Node1&#45;&gt;Node3</title>
<path fill="none" stroke="#191970" d="M89.3398,-55.4179C89.3398,-48.2164 89.3398,-37.8962 89.3398,-28.8632"/>
<polygon fill="#191970" stroke="#191970" points="92.8399,-28.7794 89.3398,-18.7795 85.8399,-28.7795 92.8399,-28.7794"/>
</g>
<!-- Node4 -->
<g id="node5" class="node">
<title>Node4</title>
<polygon fill="#ffffff" stroke="#bfbfbf" points="136.3892,-.5 136.3892,-18.5 186.2905,-18.5 186.2905,-.5 136.3892,-.5"/>
<text text-anchor="middle" x="161.3398" y="-6.5" font-family="Helvetica,sans-Serif" font-size="10.00" fill="#000000">QString</text>
</g>
<!-- Node1&#45;&gt;Node4 -->
<g id="edge4" class="edge">
<title>Node1&#45;&gt;Node4</title>
<path fill="none" stroke="#191970" d="M101.2292,-55.4179C112.0034,-47.1876 128.11,-34.8839 140.9396,-25.0836"/>
<polygon fill="#191970" stroke="#191970" points="143.3701,-27.6313 149.1922,-18.7795 139.1208,-22.0685 143.3701,-27.6313"/>
</g>
</g>
</svg>
