<?xml version="1.0" encoding="UTF-8" standalone="no"?>
<!DOCTYPE svg PUBLIC "-//W3C//DTD SVG 1.1//EN"
 "http://www.w3.org/Graphics/SVG/1.1/DTD/svg11.dtd">
<!-- Generated by graphviz version 2.40.1 (20161225.0304)
 -->
<!-- Title: src/interfaces/node.h Pages: 1 -->
<svg width="3209pt" height="82pt"
 viewBox="0.00 0.00 3209.27 82.00" xmlns="http://www.w3.org/2000/svg" xmlns:xlink="http://www.w3.org/1999/xlink">
<g id="graph0" class="graph" transform="scale(1 1) rotate(0) translate(4 78)">
<title>src/interfaces/node.h</title>
<polygon fill="#ffffff" stroke="transparent" points="-4,4 -4,-78 3205.2705,-78 3205.2705,4 -4,4"/>
<!-- Node94 -->
<g id="node1" class="node">
<title>Node94</title>
<polygon fill="#bfbfbf" stroke="#000000" points="1459.2808,-55.5 1459.2808,-73.5 1568.1079,-73.5 1568.1079,-55.5 1459.2808,-55.5"/>
<text text-anchor="middle" x="1513.6943" y="-61.5" font-family="Helvetica,sans-Serif" font-size="10.00" fill="#000000">src/interfaces/node.h</text>
</g>
<!-- Node95 -->
<g id="node2" class="node">
<title>Node95</title>
<g id="a_node2"><a xlink:href="node_8cpp.html" target="_top" xlink:title="src/interfaces/node.cpp">
<polygon fill="#ffffff" stroke="#000000" points="0,-.5 0,-18.5 119.3887,-18.5 119.3887,-.5 0,-.5"/>
<text text-anchor="middle" x="59.6943" y="-6.5" font-family="Helvetica,sans-Serif" font-size="10.00" fill="#000000">src/interfaces/node.cpp</text>
</a>
</g>
</g>
<!-- Node94&#45;&gt;Node95 -->
<g id="edge1" class="edge">
<title>Node94&#45;&gt;Node95</title>
<path fill="none" stroke="#191970" d="M1448.9077,-63.2672C1211.6052,-58.612 390.1432,-41.2322 128.6943,-19 125.6822,-18.7439 122.6003,-18.4472 119.491,-18.1202"/>
<polygon fill="#191970" stroke="#191970" points="1449.0335,-66.7702 1459.1,-63.4663 1449.1703,-59.7716 1449.0335,-66.7702"/>
</g>
<!-- Node96 -->
<g id="node3" class="node">
<title>Node96</title>
<g id="a_node3"><a xlink:href="addresstablemodel_8cpp.html" target="_top" xlink:title="src/qt/addresstablemodel.cpp">
<polygon fill="#ffffff" stroke="#000000" points="137.3818,-.5 137.3818,-18.5 284.0068,-18.5 284.0068,-.5 137.3818,-.5"/>
<text text-anchor="middle" x="210.6943" y="-6.5" font-family="Helvetica,sans-Serif" font-size="10.00" fill="#000000">src/qt/addresstablemodel.cpp</text>
</a>
</g>
</g>
<!-- Node94&#45;&gt;Node96 -->
<g id="edge2" class="edge">
<title>Node94&#45;&gt;Node96</title>
<path fill="none" stroke="#191970" d="M1448.932,-63.866C1266.6644,-61.698 733.8518,-52.7229 292.6943,-19 289.9793,-18.7925 287.2156,-18.5634 284.4254,-18.3171"/>
<polygon fill="#191970" stroke="#191970" points="1449.1073,-67.3682 1459.1474,-63.9847 1449.1887,-60.3687 1449.1073,-67.3682"/>
</g>
<!-- Node97 -->
<g id="node4" class="node">
<title>Node97</title>
<g id="a_node4"><a xlink:href="bantablemodel_8cpp.html" target="_top" xlink:title="src/qt/bantablemodel.cpp">
<polygon fill="#ffffff" stroke="#000000" points="301.8276,-.5 301.8276,-18.5 429.561,-18.5 429.561,-.5 301.8276,-.5"/>
<text text-anchor="middle" x="365.6943" y="-6.5" font-family="Helvetica,sans-Serif" font-size="10.00" fill="#000000">src/qt/bantablemodel.cpp</text>
</a>
</g>
</g>
<!-- Node94&#45;&gt;Node97 -->
<g id="edge3" class="edge">
<title>Node94&#45;&gt;Node97</title>
<path fill="none" stroke="#191970" d="M1449.1612,-63.7702C1281.8389,-61.4448 820.3829,-52.2717 437.6943,-19 435.0565,-18.7707 432.367,-18.515 429.652,-18.2389"/>
<polygon fill="#191970" stroke="#191970" points="1449.2342,-67.2714 1459.2808,-63.9074 1449.3292,-60.2721 1449.2342,-67.2714"/>
</g>
<!-- Node98 -->
<g id="node5" class="node">
<title>Node98</title>
<g id="a_node5"><a xlink:href="bitcoin_8cpp.html" target="_top" xlink:title="src/qt/bitcoin.cpp">
<polygon fill="#ffffff" stroke="#000000" points="447.1772,-.5 447.1772,-18.5 538.2114,-18.5 538.2114,-.5 447.1772,-.5"/>
<text text-anchor="middle" x="492.6943" y="-6.5" font-family="Helvetica,sans-Serif" font-size="10.00" fill="#000000">src/qt/bitcoin.cpp</text>
</a>
</g>
</g>
<!-- Node94&#45;&gt;Node98 -->
<g id="edge4" class="edge">
<title>Node94&#45;&gt;Node98</title>
<path fill="none" stroke="#191970" d="M1449.0424,-62.5025C1262.1127,-56.5607 723.1653,-38.2119 547.6943,-19 544.612,-18.6625 541.4408,-18.261 538.2512,-17.8166"/>
<polygon fill="#191970" stroke="#191970" points="1449.1563,-66.0078 1459.2621,-62.8261 1449.3779,-59.0113 1449.1563,-66.0078"/>
</g>
<!-- Node99 -->
<g id="node6" class="node">
<title>Node99</title>
<g id="a_node6"><a xlink:href="bitcoingui_8cpp.html" target="_top" xlink:title="src/qt/bitcoingui.cpp">
<polygon fill="#ffffff" stroke="#000000" points="556.5049,-.5 556.5049,-18.5 660.8838,-18.5 660.8838,-.5 556.5049,-.5"/>
<text text-anchor="middle" x="608.6943" y="-6.5" font-family="Helvetica,sans-Serif" font-size="10.00" fill="#000000">src/qt/bitcoingui.cpp</text>
</a>
</g>
</g>
<!-- Node94&#45;&gt;Node99 -->
<g id="edge5" class="edge">
<title>Node94&#45;&gt;Node99</title>
<path fill="none" stroke="#191970" d="M1448.5576,-63.1605C1306.7905,-59.7681 959.7795,-48.8764 670.6943,-19 667.5531,-18.6754 664.3279,-18.3024 661.0782,-17.8961"/>
<polygon fill="#191970" stroke="#191970" points="1448.7316,-66.6655 1458.811,-63.4013 1448.896,-59.6674 1448.7316,-66.6655"/>
</g>
<!-- Node100 -->
<g id="node7" class="node">
<title>Node100</title>
<g id="a_node7"><a xlink:href="clientmodel_8cpp.html" target="_top" xlink:title="src/qt/clientmodel.cpp">
<polygon fill="#ffffff" stroke="#000000" points="679.3398,-.5 679.3398,-18.5 792.0488,-18.5 792.0488,-.5 679.3398,-.5"/>
<text text-anchor="middle" x="735.6943" y="-6.5" font-family="Helvetica,sans-Serif" font-size="10.00" fill="#000000">src/qt/clientmodel.cpp</text>
</a>
</g>
</g>
<!-- Node94&#45;&gt;Node100 -->
<g id="edge6" class="edge">
<title>Node94&#45;&gt;Node100</title>
<path fill="none" stroke="#191970" d="M1448.803,-62.1288C1323.3415,-57.1527 1038.8699,-43.9629 800.6943,-19 797.9721,-18.7147 795.1891,-18.3994 792.3805,-18.0622"/>
<polygon fill="#191970" stroke="#191970" points="1448.8729,-65.6342 1459.0025,-62.5291 1449.1475,-58.6396 1448.8729,-65.6342"/>
</g>
<!-- Node101 -->
<g id="node8" class="node">
<title>Node101</title>
<g id="a_node8"><a xlink:href="coincontroldialog_8cpp.html" target="_top" xlink:title="src/qt/coincontroldialog.cpp">
<polygon fill="#ffffff" stroke="#000000" points="810.106,-.5 810.106,-18.5 947.2827,-18.5 947.2827,-.5 810.106,-.5"/>
<text text-anchor="middle" x="878.6943" y="-6.5" font-family="Helvetica,sans-Serif" font-size="10.00" fill="#000000">src/qt/coincontroldialog.cpp</text>
</a>
</g>
</g>
<!-- Node94&#45;&gt;Node101 -->
<g id="edge7" class="edge">
<title>Node94&#45;&gt;Node101</title>
<path fill="none" stroke="#191970" d="M1449.0574,-60.0567C1345.1693,-52.7269 1134.6497,-37.0982 956.6943,-19 953.7086,-18.6963 950.6599,-18.3747 947.5812,-18.0405"/>
<polygon fill="#191970" stroke="#191970" points="1448.8549,-63.551 1459.0758,-60.7611 1449.346,-56.5682 1448.8549,-63.551"/>
</g>
<!-- Node102 -->
<g id="node9" class="node">
<title>Node102</title>
<g id="a_node9"><a xlink:href="guiutil_8cpp.html" target="_top" xlink:title="src/qt/guiutil.cpp">
<polygon fill="#ffffff" stroke="#000000" points="965.5664,-.5 965.5664,-18.5 1053.8223,-18.5 1053.8223,-.5 965.5664,-.5"/>
<text text-anchor="middle" x="1009.6943" y="-6.5" font-family="Helvetica,sans-Serif" font-size="10.00" fill="#000000">src/qt/guiutil.cpp</text>
</a>
</g>
</g>
<!-- Node94&#45;&gt;Node102 -->
<g id="edge8" class="edge">
<title>Node94&#45;&gt;Node102</title>
<path fill="none" stroke="#191970" d="M1448.9643,-59.542C1361.2073,-52.4617 1199.7006,-38.1611 1062.6943,-19 1059.8244,-18.5986 1056.8723,-18.1551 1053.9001,-17.6857"/>
<polygon fill="#191970" stroke="#191970" points="1448.7877,-63.0389 1459.0353,-60.3489 1449.3468,-56.0613 1448.7877,-63.0389"/>
</g>
<!-- Node103 -->
<g id="node10" class="node">
<title>Node103</title>
<g id="a_node10"><a xlink:href="intro_8cpp.html" target="_top" xlink:title="src/qt/intro.cpp">
<polygon fill="#ffffff" stroke="#000000" points="1071.9038,-.5 1071.9038,-18.5 1153.4849,-18.5 1153.4849,-.5 1071.9038,-.5"/>
<text text-anchor="middle" x="1112.6943" y="-6.5" font-family="Helvetica,sans-Serif" font-size="10.00" fill="#000000">src/qt/intro.cpp</text>
</a>
</g>
</g>
<!-- Node94&#45;&gt;Node103 -->
<g id="edge9" class="edge">
<title>Node94&#45;&gt;Node103</title>
<path fill="none" stroke="#191970" d="M1449.1758,-57.3947C1378.4492,-49.3184 1261.7111,-35.1432 1161.6943,-19 1159.0424,-18.572 1156.3142,-18.1083 1153.5671,-17.6239"/>
<polygon fill="#191970" stroke="#191970" points="1448.9383,-60.8901 1459.2696,-58.5415 1449.7287,-53.9349 1448.9383,-60.8901"/>
</g>
<!-- Node104 -->
<g id="node11" class="node">
<title>Node104</title>
<g id="a_node11"><a xlink:href="optionsdialog_8cpp.html" target="_top" xlink:title="src/qt/optionsdialog.cpp">
<polygon fill="#ffffff" stroke="#000000" points="1171.1626,-.5 1171.1626,-18.5 1292.2261,-18.5 1292.2261,-.5 1171.1626,-.5"/>
<text text-anchor="middle" x="1231.6943" y="-6.5" font-family="Helvetica,sans-Serif" font-size="10.00" fill="#000000">src/qt/optionsdialog.cpp</text>
</a>
</g>
</g>
<!-- Node94&#45;&gt;Node104 -->
<g id="edge10" class="edge">
<title>Node94&#45;&gt;Node104</title>
<path fill="none" stroke="#191970" d="M1457.5933,-53.5583C1404.9516,-43.2913 1327.1563,-28.1185 1277.9704,-18.5255"/>
<polygon fill="#191970" stroke="#191970" points="1456.9585,-57.0004 1467.4435,-55.4795 1458.2985,-50.1298 1456.9585,-57.0004"/>
</g>
<!-- Node105 -->
<g id="node12" class="node">
<title>Node105</title>
<g id="a_node12"><a xlink:href="optionsmodel_8cpp.html" target="_top" xlink:title="src/qt/optionsmodel.cpp">
<polygon fill="#ffffff" stroke="#000000" points="1309.8892,-.5 1309.8892,-18.5 1431.4995,-18.5 1431.4995,-.5 1309.8892,-.5"/>
<text text-anchor="middle" x="1370.6943" y="-6.5" font-family="Helvetica,sans-Serif" font-size="10.00" fill="#000000">src/qt/optionsmodel.cpp</text>
</a>
</g>
</g>
<!-- Node94&#45;&gt;Node105 -->
<g id="edge11" class="edge">
<title>Node94&#45;&gt;Node105</title>
<path fill="none" stroke="#191970" d="M1480.4985,-51.7324C1454.1118,-41.5837 1417.8498,-27.6367 1394.343,-18.5956"/>
<polygon fill="#191970" stroke="#191970" points="1479.4909,-55.0947 1490.0808,-55.4179 1482.0038,-48.5613 1479.4909,-55.0947"/>
</g>
<!-- Node106 -->
<g id="node13" class="node">
<title>Node106</title>
<g id="a_node13"><a xlink:href="paymentserver_8cpp.html" target="_top" xlink:title="src/qt/paymentserver.cpp">
<polygon fill="#ffffff" stroke="#000000" points="1449.835,-.5 1449.835,-18.5 1577.5537,-18.5 1577.5537,-.5 1449.835,-.5"/>
<text text-anchor="middle" x="1513.6943" y="-6.5" font-family="Helvetica,sans-Serif" font-size="10.00" fill="#000000">src/qt/paymentserver.cpp</text>
</a>
</g>
</g>
<!-- Node94&#45;&gt;Node106 -->
<g id="edge12" class="edge">
<title>Node94&#45;&gt;Node106</title>
<path fill="none" stroke="#191970" d="M1513.6943,-45.383C1513.6943,-36.3738 1513.6943,-26.0373 1513.6943,-18.7795"/>
<polygon fill="#191970" stroke="#191970" points="1510.1944,-45.4178 1513.6943,-55.4179 1517.1944,-45.4179 1510.1944,-45.4178"/>
</g>
<!-- Node107 -->
<g id="node14" class="node">
<title>Node107</title>
<g id="a_node14"><a xlink:href="peertablemodel_8cpp.html" target="_top" xlink:title="src/qt/peertablemodel.cpp">
<polygon fill="#ffffff" stroke="#000000" points="1595.1626,-.5 1595.1626,-18.5 1726.2261,-18.5 1726.2261,-.5 1595.1626,-.5"/>
<text text-anchor="middle" x="1660.6943" y="-6.5" font-family="Helvetica,sans-Serif" font-size="10.00" fill="#000000">src/qt/peertablemodel.cpp</text>
</a>
</g>
</g>
<!-- Node94&#45;&gt;Node107 -->
<g id="edge13" class="edge">
<title>Node94&#45;&gt;Node107</title>
<path fill="none" stroke="#191970" d="M1547.4608,-51.8663C1574.6148,-41.7066 1612.1134,-27.6765 1636.3842,-18.5956"/>
<polygon fill="#191970" stroke="#191970" points="1546.1078,-48.6355 1537.9684,-55.4179 1548.5608,-55.1916 1546.1078,-48.6355"/>
</g>
<!-- Node108 -->
<g id="node15" class="node">
<title>Node108</title>
<g id="a_node15"><a xlink:href="rpcconsole_8cpp.html" target="_top" xlink:title="src/qt/rpcconsole.cpp">
<polygon fill="#ffffff" stroke="#000000" points="1744.4507,-.5 1744.4507,-18.5 1854.938,-18.5 1854.938,-.5 1744.4507,-.5"/>
<text text-anchor="middle" x="1799.6943" y="-6.5" font-family="Helvetica,sans-Serif" font-size="10.00" fill="#000000">src/qt/rpcconsole.cpp</text>
</a>
</g>
</g>
<!-- Node94&#45;&gt;Node108 -->
<g id="edge14" class="edge">
<title>Node94&#45;&gt;Node108</title>
<path fill="none" stroke="#191970" d="M1570.5912,-53.5583C1623.9795,-43.2913 1702.8783,-28.1185 1752.7619,-18.5255"/>
<polygon fill="#191970" stroke="#191970" points="1569.7602,-50.1539 1560.6012,-55.4795 1571.0822,-57.0279 1569.7602,-50.1539"/>
</g>
<!-- Node109 -->
<g id="node16" class="node">
<title>Node109</title>
<g id="a_node16"><a xlink:href="sendcoinsdialog_8cpp.html" target="_top" xlink:title="src/qt/sendcoinsdialog.cpp">
<polygon fill="#ffffff" stroke="#000000" points="1872.771,-.5 1872.771,-18.5 2006.6177,-18.5 2006.6177,-.5 1872.771,-.5"/>
<text text-anchor="middle" x="1939.6943" y="-6.5" font-family="Helvetica,sans-Serif" font-size="10.00" fill="#000000">src/qt/sendcoinsdialog.cpp</text>
</a>
</g>
</g>
<!-- Node94&#45;&gt;Node109 -->
<g id="edge15" class="edge">
<title>Node94&#45;&gt;Node109</title>
<path fill="none" stroke="#191970" d="M1578.8842,-56.0835C1658.3777,-45.8202 1792.0528,-28.5617 1872.4615,-18.1803"/>
<polygon fill="#191970" stroke="#191970" points="1577.9838,-52.6706 1568.5143,-57.4223 1578.8801,-59.613 1577.9838,-52.6706"/>
</g>
<!-- Node110 -->
<g id="node17" class="node">
<title>Node110</title>
<g id="a_node17"><a xlink:href="splashscreen_8cpp.html" target="_top" xlink:title="src/qt/splashscreen.cpp">
<polygon fill="#ffffff" stroke="#000000" points="2024.1699,-.5 2024.1699,-18.5 2145.2188,-18.5 2145.2188,-.5 2024.1699,-.5"/>
<text text-anchor="middle" x="2084.6943" y="-6.5" font-family="Helvetica,sans-Serif" font-size="10.00" fill="#000000">src/qt/splashscreen.cpp</text>
</a>
</g>
</g>
<!-- Node94&#45;&gt;Node110 -->
<g id="edge16" class="edge">
<title>Node94&#45;&gt;Node110</title>
<path fill="none" stroke="#191970" d="M1578.4812,-59.5949C1674.2111,-52.128 1859.0312,-36.8748 2015.6943,-19 2018.4576,-18.6847 2021.2813,-18.3494 2024.1323,-18.0002"/>
<polygon fill="#191970" stroke="#191970" points="1578.0761,-56.1157 1568.3773,-60.3799 1578.6184,-63.0947 1578.0761,-56.1157"/>
</g>
<!-- Node111 -->
<g id="node18" class="node">
<title>Node111</title>
<g id="a_node18"><a xlink:href="trafficgraphwidget_8cpp.html" target="_top" xlink:title="src/qt/trafficgraphwidget.cpp">
<polygon fill="#ffffff" stroke="#000000" points="2163.165,-.5 2163.165,-18.5 2304.2236,-18.5 2304.2236,-.5 2163.165,-.5"/>
<text text-anchor="middle" x="2233.6943" y="-6.5" font-family="Helvetica,sans-Serif" font-size="10.00" fill="#000000">src/qt/trafficgraphwidget.cpp</text>
</a>
</g>
</g>
<!-- Node94&#45;&gt;Node111 -->
<g id="edge17" class="edge">
<title>Node94&#45;&gt;Node111</title>
<path fill="none" stroke="#191970" d="M1578.3251,-60.9587C1694.043,-54.3848 1944.2048,-39.1145 2154.6943,-19 2157.4446,-18.7372 2160.2474,-18.4574 2163.0776,-18.165"/>
<polygon fill="#191970" stroke="#191970" points="1578.0063,-57.471 1568.2198,-61.53 1578.4015,-64.4598 1578.0063,-57.471"/>
</g>
<!-- Node112 -->
<g id="node19" class="node">
<title>Node112</title>
<g id="a_node19"><a xlink:href="transactiondesc_8cpp.html" target="_top" xlink:title="src/qt/transactiondesc.cpp">
<polygon fill="#ffffff" stroke="#000000" points="2322.6108,-.5 2322.6108,-18.5 2454.7778,-18.5 2454.7778,-.5 2322.6108,-.5"/>
<text text-anchor="middle" x="2388.6943" y="-6.5" font-family="Helvetica,sans-Serif" font-size="10.00" fill="#000000">src/qt/transactiondesc.cpp</text>
</a>
</g>
</g>
<!-- Node94&#45;&gt;Node112 -->
<g id="edge18" class="edge">
<title>Node94&#45;&gt;Node112</title>
<path fill="none" stroke="#191970" d="M1578.3658,-62.3401C1714.585,-57.4568 2040.9637,-43.9985 2313.6943,-19 2316.5698,-18.7364 2319.5049,-18.448 2322.4681,-18.141"/>
<polygon fill="#191970" stroke="#191970" points="1577.9803,-58.8515 1568.1109,-62.7044 1578.2289,-65.8471 1577.9803,-58.8515"/>
</g>
<!-- Node113 -->
<g id="node20" class="node">
<title>Node113</title>
<g id="a_node20"><a xlink:href="transactiontablemodel_8cpp.html" target="_top" xlink:title="src/qt/transactiontablemodel.cpp">
<polygon fill="#ffffff" stroke="#000000" points="2472.7119,-.5 2472.7119,-18.5 2632.6768,-18.5 2632.6768,-.5 2472.7119,-.5"/>
<text text-anchor="middle" x="2552.6943" y="-6.5" font-family="Helvetica,sans-Serif" font-size="10.00" fill="#000000">src/qt/transactiontablemodel.cpp</text>
</a>
</g>
</g>
<!-- Node94&#45;&gt;Node113 -->
<g id="edge19" class="edge">
<title>Node94&#45;&gt;Node113</title>
<path fill="none" stroke="#191970" d="M1578.3177,-62.7087C1731.974,-58.1651 2131.1699,-44.6881 2463.6943,-19 2466.638,-18.7726 2469.635,-18.5266 2472.6611,-18.2661"/>
<polygon fill="#191970" stroke="#191970" points="1578.0118,-59.2161 1568.1187,-63.0078 1578.2171,-66.2131 1578.0118,-59.2161"/>
</g>
<!-- Node114 -->
<g id="node21" class="node">
<title>Node114</title>
<g id="a_node21"><a xlink:href="utilitydialog_8cpp.html" target="_top" xlink:title="src/qt/utilitydialog.cpp">
<polygon fill="#ffffff" stroke="#000000" points="2650.894,-.5 2650.894,-18.5 2762.4946,-18.5 2762.4946,-.5 2650.894,-.5"/>
<text text-anchor="middle" x="2706.6943" y="-6.5" font-family="Helvetica,sans-Serif" font-size="10.00" fill="#000000">src/qt/utilitydialog.cpp</text>
</a>
</g>
</g>
<!-- Node94&#45;&gt;Node114 -->
<g id="edge20" class="edge">
<title>Node94&#45;&gt;Node114</title>
<path fill="none" stroke="#191970" d="M1578.2779,-62.7869C1785.6124,-57.1467 2432.9912,-38.4067 2641.6943,-19 2644.6468,-18.7255 2647.67,-18.4087 2650.7192,-18.0611"/>
<polygon fill="#191970" stroke="#191970" points="1578.0592,-59.2914 1568.1578,-63.0613 1578.249,-66.2889 1578.0592,-59.2914"/>
</g>
<!-- Node115 -->
<g id="node22" class="node">
<title>Node115</title>
<g id="a_node22"><a xlink:href="walletmodel_8cpp.html" target="_top" xlink:title="src/qt/walletmodel.cpp">
<polygon fill="#ffffff" stroke="#000000" points="2780.229,-.5 2780.229,-18.5 2895.1597,-18.5 2895.1597,-.5 2780.229,-.5"/>
<text text-anchor="middle" x="2837.6943" y="-6.5" font-family="Helvetica,sans-Serif" font-size="10.00" fill="#000000">src/qt/walletmodel.cpp</text>
</a>
</g>
</g>
<!-- Node94&#45;&gt;Node115 -->
<g id="edge21" class="edge">
<title>Node94&#45;&gt;Node115</title>
<path fill="none" stroke="#191970" d="M1578.4179,-63.0743C1801.3284,-58.0208 2536.4005,-40.1283 2771.6943,-19 2774.4615,-18.7515 2777.29,-18.4661 2780.1438,-18.1529"/>
<polygon fill="#191970" stroke="#191970" points="1578.1126,-59.5802 1568.1943,-63.3052 1578.2708,-66.5784 1578.1126,-59.5802"/>
</g>
<!-- Node116 -->
<g id="node23" class="node">
<title>Node116</title>
<g id="a_node23"><a xlink:href="walletmodeltransaction_8cpp.html" target="_top" xlink:title="src/qt/walletmodeltransaction.cpp">
<polygon fill="#ffffff" stroke="#000000" points="2912.771,-.5 2912.771,-18.5 3076.6177,-18.5 3076.6177,-.5 2912.771,-.5"/>
<text text-anchor="middle" x="2994.6943" y="-6.5" font-family="Helvetica,sans-Serif" font-size="10.00" fill="#000000">src/qt/walletmodeltransaction.cpp</text>
</a>
</g>
</g>
<!-- Node94&#45;&gt;Node116 -->
<g id="edge22" class="edge">
<title>Node94&#45;&gt;Node116</title>
<path fill="none" stroke="#191970" d="M1578.6602,-64.0182C1777.2958,-62.1922 2394.0088,-53.9018 2903.6943,-19 2906.5469,-18.8047 2909.4481,-18.5898 2912.3772,-18.3592"/>
<polygon fill="#191970" stroke="#191970" points="1578.3706,-60.5206 1568.4024,-64.1102 1578.4334,-67.5203 1578.3706,-60.5206"/>
</g>
<!-- Node117 -->
<g id="node24" class="node">
<title>Node117</title>
<g id="a_node24"><a xlink:href="walletview_8cpp.html" target="_top" xlink:title="src/qt/walletview.cpp">
<polygon fill="#ffffff" stroke="#000000" points="3094.1182,-.5 3094.1182,-18.5 3201.2705,-18.5 3201.2705,-.5 3094.1182,-.5"/>
<text text-anchor="middle" x="3147.6943" y="-6.5" font-family="Helvetica,sans-Serif" font-size="10.00" fill="#000000">src/qt/walletview.cpp</text>
</a>
</g>
</g>
<!-- Node94&#45;&gt;Node117 -->
<g id="edge23" class="edge">
<title>Node94&#45;&gt;Node117</title>
<path fill="none" stroke="#191970" d="M1578.4672,-63.6902C1835.7233,-60.3087 2785.8173,-46.2101 3085.6943,-19 3088.4056,-18.754 3091.1786,-18.4654 3093.9754,-18.145"/>
<polygon fill="#191970" stroke="#191970" points="1578.1258,-60.1942 1568.1724,-63.8246 1578.2173,-67.1936 1578.1258,-60.1942"/>
</g>
</g>
</svg>
