<?xml version="1.0" encoding="UTF-8" standalone="no"?>
<!DOCTYPE svg PUBLIC "-//W3C//DTD SVG 1.1//EN"
 "http://www.w3.org/Graphics/SVG/1.1/DTD/svg11.dtd">
<!-- Generated by graphviz version 2.40.1 (20161225.0304)
 -->
<!-- Title: src/univalue/test/object.cpp Pages: 1 -->
<svg width="432pt" height="137pt"
 viewBox="0.00 0.00 432.24 137.00" xmlns="http://www.w3.org/2000/svg" xmlns:xlink="http://www.w3.org/1999/xlink">
<g id="graph0" class="graph" transform="scale(1 1) rotate(0) translate(4 133)">
<title>src/univalue/test/object.cpp</title>
<polygon fill="#ffffff" stroke="transparent" points="-4,4 -4,-133 428.2363,-133 428.2363,4 -4,4"/>
<!-- Node0 -->
<g id="node1" class="node">
<title>Node0</title>
<polygon fill="#bfbfbf" stroke="#000000" points="141.8105,-110.5 141.8105,-128.5 278.4307,-128.5 278.4307,-110.5 141.8105,-110.5"/>
<text text-anchor="middle" x="210.1206" y="-116.5" font-family="Helvetica,sans-Serif" font-size="10.00" fill="#000000">src/univalue/test/object.cpp</text>
</g>
<!-- Node1 -->
<g id="node2" class="node">
<title>Node1</title>
<polygon fill="#ffffff" stroke="#bfbfbf" points="0,-.5 0,-18.5 48.2412,-18.5 48.2412,-.5 0,-.5"/>
<text text-anchor="middle" x="24.1206" y="-6.5" font-family="Helvetica,sans-Serif" font-size="10.00" fill="#000000">stdint.h</text>
</g>
<!-- Node0&#45;&gt;Node1 -->
<g id="edge1" class="edge">
<title>Node0&#45;&gt;Node1</title>
<path fill="none" stroke="#191970" d="M194.8994,-110.4982C162.7459,-91.4827 87.6662,-47.0807 48.6472,-24.005"/>
<polygon fill="#191970" stroke="#191970" points="49.9412,-20.704 39.5521,-18.6261 46.3779,-26.7292 49.9412,-20.704"/>
</g>
<!-- Node2 -->
<g id="node3" class="node">
<title>Node2</title>
<polygon fill="#ffffff" stroke="#bfbfbf" points="66.5049,-.5 66.5049,-18.5 109.7363,-18.5 109.7363,-.5 66.5049,-.5"/>
<text text-anchor="middle" x="88.1206" y="-6.5" font-family="Helvetica,sans-Serif" font-size="10.00" fill="#000000">vector</text>
</g>
<!-- Node0&#45;&gt;Node2 -->
<g id="edge2" class="edge">
<title>Node0&#45;&gt;Node2</title>
<path fill="none" stroke="#191970" d="M199.2938,-110.1688C188.7256,-101.0271 172.2229,-86.6631 158.1206,-74 140.0306,-57.7562 119.6133,-38.8796 105.5187,-25.7616"/>
<polygon fill="#191970" stroke="#191970" points="107.717,-23.026 98.016,-18.7668 102.9436,-28.146 107.717,-23.026"/>
</g>
<!-- Node3 -->
<g id="node4" class="node">
<title>Node3</title>
<polygon fill="#ffffff" stroke="#bfbfbf" points="127.894,-.5 127.894,-18.5 168.3472,-18.5 168.3472,-.5 127.894,-.5"/>
<text text-anchor="middle" x="148.1206" y="-6.5" font-family="Helvetica,sans-Serif" font-size="10.00" fill="#000000">string</text>
</g>
<!-- Node0&#45;&gt;Node3 -->
<g id="edge3" class="edge">
<title>Node0&#45;&gt;Node3</title>
<path fill="none" stroke="#191970" d="M199.9965,-110.2618C191.0643,-101.6349 178.2381,-88.0165 170.1206,-74 161.8751,-59.7623 156.0959,-41.9601 152.5367,-28.6673"/>
<polygon fill="#191970" stroke="#191970" points="155.8771,-27.5966 150.0637,-18.7391 149.0846,-29.2886 155.8771,-27.5966"/>
</g>
<!-- Node4 -->
<g id="node5" class="node">
<title>Node4</title>
<polygon fill="#ffffff" stroke="#bfbfbf" points="322.394,-.5 322.394,-18.5 357.8472,-18.5 357.8472,-.5 322.394,-.5"/>
<text text-anchor="middle" x="340.1206" y="-6.5" font-family="Helvetica,sans-Serif" font-size="10.00" fill="#000000">map</text>
</g>
<!-- Node0&#45;&gt;Node4 -->
<g id="edge4" class="edge">
<title>Node0&#45;&gt;Node4</title>
<path fill="none" stroke="#191970" d="M220.7591,-110.4982C242.851,-91.805 293.9368,-48.5786 321.5703,-25.1964"/>
<polygon fill="#191970" stroke="#191970" points="323.9621,-27.7575 329.3352,-18.6261 319.4405,-22.4137 323.9621,-27.7575"/>
</g>
<!-- Node5 -->
<g id="node6" class="node">
<title>Node5</title>
<polygon fill="#ffffff" stroke="#bfbfbf" points="376.0049,-.5 376.0049,-18.5 424.2363,-18.5 424.2363,-.5 376.0049,-.5"/>
<text text-anchor="middle" x="400.1206" y="-6.5" font-family="Helvetica,sans-Serif" font-size="10.00" fill="#000000">cassert</text>
</g>
<!-- Node0&#45;&gt;Node5 -->
<g id="edge5" class="edge">
<title>Node0&#45;&gt;Node5</title>
<path fill="none" stroke="#191970" d="M225.8692,-110.4533C241.8212,-101.2842 267.2005,-86.6811 289.1206,-74 318.8308,-56.8123 352.9643,-36.9625 375.4479,-23.8732"/>
<polygon fill="#191970" stroke="#191970" points="377.4431,-26.7616 384.3236,-18.7049 373.9207,-20.7124 377.4431,-26.7616"/>
</g>
<!-- Node6 -->
<g id="node7" class="node">
<title>Node6</title>
<polygon fill="#ffffff" stroke="#bfbfbf" points="334.7192,-55.5 334.7192,-73.5 393.522,-73.5 393.522,-55.5 334.7192,-55.5"/>
<text text-anchor="middle" x="364.1206" y="-61.5" font-family="Helvetica,sans-Serif" font-size="10.00" fill="#000000">stdexcept</text>
</g>
<!-- Node0&#45;&gt;Node6 -->
<g id="edge6" class="edge">
<title>Node0&#45;&gt;Node6</title>
<path fill="none" stroke="#191970" d="M235.5506,-110.4179C261.1513,-101.2748 300.8277,-87.1046 329.3333,-76.924"/>
<polygon fill="#191970" stroke="#191970" points="330.6686,-80.1637 338.9088,-73.5042 328.3142,-73.5715 330.6686,-80.1637"/>
</g>
<!-- Node7 -->
<g id="node8" class="node">
<title>Node7</title>
<g id="a_node8"><a xlink:href="univalue_8h.html" target="_top" xlink:title="univalue.h">
<polygon fill="#ffffff" stroke="#000000" points="179.3252,-55.5 179.3252,-73.5 240.916,-73.5 240.916,-55.5 179.3252,-55.5"/>
<text text-anchor="middle" x="210.1206" y="-61.5" font-family="Helvetica,sans-Serif" font-size="10.00" fill="#000000">univalue.h</text>
</a>
</g>
</g>
<!-- Node0&#45;&gt;Node7 -->
<g id="edge7" class="edge">
<title>Node0&#45;&gt;Node7</title>
<path fill="none" stroke="#191970" d="M210.1206,-110.4179C210.1206,-103.2164 210.1206,-92.8962 210.1206,-83.8632"/>
<polygon fill="#191970" stroke="#191970" points="213.6207,-83.7794 210.1206,-73.7795 206.6207,-83.7795 213.6207,-83.7794"/>
</g>
<!-- Node7&#45;&gt;Node1 -->
<g id="edge8" class="edge">
<title>Node7&#45;&gt;Node1</title>
<path fill="none" stroke="#191970" d="M179.4065,-55.4179C145.9739,-45.5319 92.666,-29.7688 58.0281,-19.5264"/>
<polygon fill="#191970" stroke="#191970" points="58.9354,-16.1449 48.3534,-16.6656 56.9504,-22.8576 58.9354,-16.1449"/>
</g>
<!-- Node7&#45;&gt;Node2 -->
<g id="edge11" class="edge">
<title>Node7&#45;&gt;Node2</title>
<path fill="none" stroke="#191970" d="M189.9748,-55.4179C170.284,-46.5409 140.0821,-32.9253 117.6733,-22.823"/>
<polygon fill="#191970" stroke="#191970" points="118.8512,-19.5148 108.2964,-18.5956 115.9743,-25.8963 118.8512,-19.5148"/>
</g>
<!-- Node7&#45;&gt;Node3 -->
<g id="edge10" class="edge">
<title>Node7&#45;&gt;Node3</title>
<path fill="none" stroke="#191970" d="M199.8826,-55.4179C190.7832,-47.3458 177.2669,-35.3556 166.328,-25.6517"/>
<polygon fill="#191970" stroke="#191970" points="168.3845,-22.7974 158.5811,-18.7795 163.7392,-28.0339 168.3845,-22.7974"/>
</g>
<!-- Node7&#45;&gt;Node4 -->
<g id="edge12" class="edge">
<title>Node7&#45;&gt;Node4</title>
<path fill="none" stroke="#191970" d="M231.5875,-55.4179C253.8985,-45.9786 288.8739,-31.1813 313.0627,-20.9476"/>
<polygon fill="#191970" stroke="#191970" points="314.5392,-24.1233 322.3851,-17.0035 311.8117,-17.6765 314.5392,-24.1233"/>
</g>
<!-- Node7&#45;&gt;Node5 -->
<g id="edge13" class="edge">
<title>Node7&#45;&gt;Node5</title>
<path fill="none" stroke="#191970" d="M241.0703,-55.5409C275.3331,-45.6227 330.4022,-29.6816 365.9188,-19.4005"/>
<polygon fill="#191970" stroke="#191970" points="367.1938,-22.6752 375.8262,-16.5326 365.2473,-15.9513 367.1938,-22.6752"/>
</g>
<!-- Node8 -->
<g id="node9" class="node">
<title>Node8</title>
<polygon fill="#ffffff" stroke="#bfbfbf" points="255.7241,-.5 255.7241,-18.5 304.5171,-18.5 304.5171,-.5 255.7241,-.5"/>
<text text-anchor="middle" x="280.1206" y="-6.5" font-family="Helvetica,sans-Serif" font-size="10.00" fill="#000000">string.h</text>
</g>
<!-- Node7&#45;&gt;Node8 -->
<g id="edge9" class="edge">
<title>Node7&#45;&gt;Node8</title>
<path fill="none" stroke="#191970" d="M221.6797,-55.4179C232.1546,-47.1876 247.8138,-34.8839 260.287,-25.0836"/>
<polygon fill="#191970" stroke="#191970" points="262.6096,-27.7098 268.3104,-18.7795 258.2848,-22.2056 262.6096,-27.7098"/>
</g>
<!-- Node9 -->
<g id="node10" class="node">
<title>Node9</title>
<polygon fill="#ffffff" stroke="#bfbfbf" points="186.3398,-.5 186.3398,-18.5 237.9014,-18.5 237.9014,-.5 186.3398,-.5"/>
<text text-anchor="middle" x="212.1206" y="-6.5" font-family="Helvetica,sans-Serif" font-size="10.00" fill="#000000">sstream</text>
</g>
<!-- Node7&#45;&gt;Node9 -->
<g id="edge14" class="edge">
<title>Node7&#45;&gt;Node9</title>
<path fill="none" stroke="#191970" d="M210.4509,-55.4179C210.7127,-48.2164 211.088,-37.8962 211.4165,-28.8632"/>
<polygon fill="#191970" stroke="#191970" points="214.9174,-28.9001 211.7832,-18.7795 207.922,-28.6456 214.9174,-28.9001"/>
</g>
</g>
</svg>
