<?xml version="1.0" encoding="UTF-8" standalone="no"?>
<!DOCTYPE svg PUBLIC "-//W3C//DTD SVG 1.1//EN"
 "http://www.w3.org/Graphics/SVG/1.1/DTD/svg11.dtd">
<!-- Generated by graphviz version 2.40.1 (20161225.0304)
 -->
<!-- Title: GetDustThreshold Pages: 1 -->
<svg width="1627pt" height="359pt"
 viewBox="0.00 0.00 1626.70 359.00" xmlns="http://www.w3.org/2000/svg" xmlns:xlink="http://www.w3.org/1999/xlink">
<g id="graph0" class="graph" transform="scale(1 1) rotate(0) translate(4 355)">
<title>GetDustThreshold</title>
<polygon fill="#ffffff" stroke="transparent" points="-4,4 -4,-355 1622.6973,-355 1622.6973,4 -4,4"/>
<!-- Node30 -->
<g id="node1" class="node">
<title>Node30</title>
<polygon fill="#bfbfbf" stroke="#000000" points="0,-189.5 0,-207.5 97.1475,-207.5 97.1475,-189.5 0,-189.5"/>
<text text-anchor="middle" x="48.5737" y="-195.5" font-family="Helvetica,sans-Serif" font-size="10.00" fill="#000000">GetDustThreshold</text>
</g>
<!-- Node31 -->
<g id="node2" class="node">
<title>Node31</title>
<g id="a_node2"><a xlink:href="policy_8h.html#aa14f53785ebd18ba831b2b7a4e821e1c" target="_top" xlink:title="IsDust">
<polygon fill="#ffffff" stroke="#000000" points="133.1475,-189.5 133.1475,-207.5 177.4873,-207.5 177.4873,-189.5 133.1475,-189.5"/>
<text text-anchor="middle" x="155.3174" y="-195.5" font-family="Helvetica,sans-Serif" font-size="10.00" fill="#000000">IsDust</text>
</a>
</g>
</g>
<!-- Node30&#45;&gt;Node31 -->
<g id="edge1" class="edge">
<title>Node30&#45;&gt;Node31</title>
<path fill="none" stroke="#191970" d="M107.2714,-198.5C116.4687,-198.5 125.453,-198.5 133.117,-198.5"/>
<polygon fill="#191970" stroke="#191970" points="107.2601,-195.0001 97.26,-198.5 107.26,-202.0001 107.2601,-195.0001"/>
</g>
<!-- Node32 -->
<g id="node3" class="node">
<title>Node32</title>
<g id="a_node3"><a xlink:href="class_coin_control_dialog.html#a4fc60e89b097952ff22dc0f9c58c87d9" target="_top" xlink:title="CoinControlDialog::\lupdateLabels">
<polygon fill="#ffffff" stroke="#000000" points="213.4873,-228.5 213.4873,-256.5 316.1963,-256.5 316.1963,-228.5 213.4873,-228.5"/>
<text text-anchor="start" x="221.4873" y="-244.5" font-family="Helvetica,sans-Serif" font-size="10.00" fill="#000000">CoinControlDialog::</text>
<text text-anchor="middle" x="264.8418" y="-234.5" font-family="Helvetica,sans-Serif" font-size="10.00" fill="#000000">updateLabels</text>
</a>
</g>
</g>
<!-- Node31&#45;&gt;Node32 -->
<g id="edge2" class="edge">
<title>Node31&#45;&gt;Node32</title>
<path fill="none" stroke="#191970" d="M187.0651,-211.2542C200.494,-216.6491 216.18,-222.9508 229.9336,-228.4761"/>
<polygon fill="#191970" stroke="#191970" points="188.3295,-207.9904 177.7456,-207.5102 185.72,-214.4858 188.3295,-207.9904"/>
</g>
<!-- Node56 -->
<g id="node27" class="node">
<title>Node56</title>
<g id="a_node27"><a xlink:href="namespace_g_u_i_util.html#a63bbc490504f4afac35edd0fe0425450" target="_top" xlink:title="GUIUtil::isDust">
<polygon fill="#ffffff" stroke="#000000" points="224.061,-168.5 224.061,-186.5 305.6226,-186.5 305.6226,-168.5 224.061,-168.5"/>
<text text-anchor="middle" x="264.8418" y="-174.5" font-family="Helvetica,sans-Serif" font-size="10.00" fill="#000000">GUIUtil::isDust</text>
</a>
</g>
</g>
<!-- Node31&#45;&gt;Node56 -->
<g id="edge37" class="edge">
<title>Node31&#45;&gt;Node56</title>
<path fill="none" stroke="#191970" d="M187.6532,-192.3C198.9941,-190.1255 211.8862,-187.6536 223.8423,-185.3612"/>
<polygon fill="#191970" stroke="#191970" points="186.9076,-188.8791 177.7456,-194.1997 188.2258,-195.7539 186.9076,-188.8791"/>
</g>
<!-- Node33 -->
<g id="node4" class="node">
<title>Node33</title>
<g id="a_node4"><a xlink:href="class_coin_control_dialog.html#a4c34a48574814089c54f763a22f5317a" target="_top" xlink:title="CoinControlDialog::\lsetModel">
<polygon fill="#ffffff" stroke="#000000" points="375.5459,-228.5 375.5459,-256.5 478.2549,-256.5 478.2549,-228.5 375.5459,-228.5"/>
<text text-anchor="start" x="383.5459" y="-244.5" font-family="Helvetica,sans-Serif" font-size="10.00" fill="#000000">CoinControlDialog::</text>
<text text-anchor="middle" x="426.9004" y="-234.5" font-family="Helvetica,sans-Serif" font-size="10.00" fill="#000000">setModel</text>
</a>
</g>
</g>
<!-- Node32&#45;&gt;Node33 -->
<g id="edge3" class="edge">
<title>Node32&#45;&gt;Node33</title>
<path fill="none" stroke="#191970" d="M326.9078,-242.5C342.9212,-242.5 359.9816,-242.5 375.3918,-242.5"/>
<polygon fill="#191970" stroke="#191970" points="326.5638,-239.0001 316.5637,-242.5 326.5637,-246.0001 326.5638,-239.0001"/>
</g>
<!-- Node36 -->
<g id="node7" class="node">
<title>Node36</title>
<g id="a_node7"><a xlink:href="class_coin_control_dialog.html#ae106a71c5b87ac8bea8c52e7c4f4a129" target="_top" xlink:title="CoinControlDialog::\lbuttonSelectAllClicked">
<polygon fill="#ffffff" stroke="#000000" points="369.1519,-275.5 369.1519,-303.5 484.6489,-303.5 484.6489,-275.5 369.1519,-275.5"/>
<text text-anchor="start" x="377.1519" y="-291.5" font-family="Helvetica,sans-Serif" font-size="10.00" fill="#000000">CoinControlDialog::</text>
<text text-anchor="middle" x="426.9004" y="-281.5" font-family="Helvetica,sans-Serif" font-size="10.00" fill="#000000">buttonSelectAllClicked</text>
</a>
</g>
</g>
<!-- Node32&#45;&gt;Node36 -->
<g id="edge6" class="edge">
<title>Node32&#45;&gt;Node36</title>
<path fill="none" stroke="#191970" d="M323.0909,-259.3933C341.2885,-264.671 361.1546,-270.4325 378.5912,-275.4894"/>
<polygon fill="#191970" stroke="#191970" points="324.0439,-256.0255 313.4647,-256.6015 322.094,-262.7485 324.0439,-256.0255"/>
</g>
<!-- Node38 -->
<g id="node9" class="node">
<title>Node38</title>
<g id="a_node9"><a xlink:href="class_coin_control_dialog.html#ac3c37dabd83f71d9c96bf5567fe85234" target="_top" xlink:title="CoinControlDialog::\lviewItemChanged">
<polygon fill="#ffffff" stroke="#000000" points="375.5459,-322.5 375.5459,-350.5 478.2549,-350.5 478.2549,-322.5 375.5459,-322.5"/>
<text text-anchor="start" x="383.5459" y="-338.5" font-family="Helvetica,sans-Serif" font-size="10.00" fill="#000000">CoinControlDialog::</text>
<text text-anchor="middle" x="426.9004" y="-328.5" font-family="Helvetica,sans-Serif" font-size="10.00" fill="#000000">viewItemChanged</text>
</a>
</g>
</g>
<!-- Node32&#45;&gt;Node38 -->
<g id="edge8" class="edge">
<title>Node32&#45;&gt;Node38</title>
<path fill="none" stroke="#191970" d="M286.2872,-263.9232C303.0016,-279.5736 327.4566,-300.2858 352.1963,-313.5 359.3782,-317.3361 367.2971,-320.6374 375.2132,-323.4439"/>
<polygon fill="#191970" stroke="#191970" points="288.3826,-261.0842 278.7365,-256.702 283.5445,-266.1431 288.3826,-261.0842"/>
</g>
<!-- Node39 -->
<g id="node10" class="node">
<title>Node39</title>
<g id="a_node10"><a xlink:href="class_send_coins_dialog.html#ae4f429aabcaf309aa314b90049be2a74" target="_top" xlink:title="SendCoinsDialog::coinControl\lUpdateLabels">
<polygon fill="#ffffff" stroke="#000000" points="352.1963,-181.5 352.1963,-209.5 501.6045,-209.5 501.6045,-181.5 352.1963,-181.5"/>
<text text-anchor="start" x="360.1963" y="-197.5" font-family="Helvetica,sans-Serif" font-size="10.00" fill="#000000">SendCoinsDialog::coinControl</text>
<text text-anchor="middle" x="426.9004" y="-187.5" font-family="Helvetica,sans-Serif" font-size="10.00" fill="#000000">UpdateLabels</text>
</a>
</g>
</g>
<!-- Node32&#45;&gt;Node39 -->
<g id="edge10" class="edge">
<title>Node32&#45;&gt;Node39</title>
<path fill="none" stroke="#191970" d="M323.0909,-225.6067C341.2885,-220.329 361.1546,-214.5675 378.5912,-209.5106"/>
<polygon fill="#191970" stroke="#191970" points="322.094,-222.2515 313.4647,-228.3985 324.0439,-228.9745 322.094,-222.2515"/>
</g>
<!-- Node34 -->
<g id="node5" class="node">
<title>Node34</title>
<g id="a_node5"><a xlink:href="class_send_coins_dialog.html#a59d757d9e4bea5b380eb480fd79cfb49" target="_top" xlink:title="SendCoinsDialog::coinControl\lButtonClicked">
<polygon fill="#ffffff" stroke="#000000" points="538.1685,-269.5 538.1685,-297.5 687.5767,-297.5 687.5767,-269.5 538.1685,-269.5"/>
<text text-anchor="start" x="546.1685" y="-285.5" font-family="Helvetica,sans-Serif" font-size="10.00" fill="#000000">SendCoinsDialog::coinControl</text>
<text text-anchor="middle" x="612.8726" y="-275.5" font-family="Helvetica,sans-Serif" font-size="10.00" fill="#000000">ButtonClicked</text>
</a>
</g>
</g>
<!-- Node33&#45;&gt;Node34 -->
<g id="edge4" class="edge">
<title>Node33&#45;&gt;Node34</title>
<path fill="none" stroke="#191970" d="M488.6492,-256.1133C508.0658,-260.394 529.5384,-265.1279 549.0931,-269.439"/>
<polygon fill="#191970" stroke="#191970" points="489.2231,-252.6559 478.704,-253.9208 487.716,-259.4917 489.2231,-252.6559"/>
</g>
<!-- Node35 -->
<g id="node6" class="node">
<title>Node35</title>
<g id="a_node6"><a xlink:href="class_send_coins_dialog.html#affacd36b4df87a68e2fe706ef388c0a6" target="_top" xlink:title="SendCoinsDialog::SendCoins\lDialog">
<polygon fill="#ffffff" stroke="#000000" points="1101.3413,-270.5 1101.3413,-298.5 1249.0894,-298.5 1249.0894,-270.5 1101.3413,-270.5"/>
<text text-anchor="start" x="1109.3413" y="-286.5" font-family="Helvetica,sans-Serif" font-size="10.00" fill="#000000">SendCoinsDialog::SendCoins</text>
<text text-anchor="middle" x="1175.2153" y="-276.5" font-family="Helvetica,sans-Serif" font-size="10.00" fill="#000000">Dialog</text>
</a>
</g>
</g>
<!-- Node34&#45;&gt;Node35 -->
<g id="edge5" class="edge">
<title>Node34&#45;&gt;Node35</title>
<path fill="none" stroke="#191970" d="M678.5097,-299.8951C784.4019,-325.047 987.8608,-367.6377 1055.0557,-341.5 1075.2843,-333.6314 1072.1113,-319.0935 1091.0557,-308.5 1097.9514,-304.644 1105.5182,-301.3642 1113.1988,-298.5857"/>
<polygon fill="#191970" stroke="#191970" points="679.1144,-296.441 668.5745,-297.5183 677.4857,-303.2489 679.1144,-296.441"/>
</g>
<!-- Node37 -->
<g id="node8" class="node">
<title>Node37</title>
<g id="a_node8"><a xlink:href="class_coin_control_dialog.html#a3cec3ece6aa5eec3e7829e042356a659" target="_top" xlink:title="CoinControlDialog::\lCoinControlDialog">
<polygon fill="#ffffff" stroke="#000000" points="561.5181,-320.5 561.5181,-348.5 664.2271,-348.5 664.2271,-320.5 561.5181,-320.5"/>
<text text-anchor="start" x="569.5181" y="-336.5" font-family="Helvetica,sans-Serif" font-size="10.00" fill="#000000">CoinControlDialog::</text>
<text text-anchor="middle" x="612.8726" y="-326.5" font-family="Helvetica,sans-Serif" font-size="10.00" fill="#000000">CoinControlDialog</text>
</a>
</g>
</g>
<!-- Node36&#45;&gt;Node37 -->
<g id="edge7" class="edge">
<title>Node36&#45;&gt;Node37</title>
<path fill="none" stroke="#191970" d="M494.6779,-305.9002C516.698,-311.2285 540.7582,-317.0504 561.3892,-322.0425"/>
<polygon fill="#191970" stroke="#191970" points="495.2664,-302.4417 484.7237,-303.4916 493.6201,-309.2454 495.2664,-302.4417"/>
</g>
<!-- Node38&#45;&gt;Node37 -->
<g id="edge9" class="edge">
<title>Node38&#45;&gt;Node37</title>
<path fill="none" stroke="#191970" d="M488.9205,-335.833C512.4256,-335.5802 538.9109,-335.2954 561.3468,-335.0541"/>
<polygon fill="#191970" stroke="#191970" points="488.6658,-332.3355 478.704,-335.9429 488.7411,-339.3351 488.6658,-332.3355"/>
</g>
<!-- Node39&#45;&gt;Node34 -->
<g id="edge36" class="edge">
<title>Node39&#45;&gt;Node34</title>
<path fill="none" stroke="#191970" d="M490.219,-213.5C494.1618,-215.3328 497.9921,-217.3293 501.6045,-219.5 520.7321,-230.9939 518.8116,-242.4666 537.6045,-254.5 546.8032,-260.3901 557.384,-265.3831 567.6506,-269.4789"/>
<polygon fill="#191970" stroke="#191970" points="491.4364,-210.2143 480.8646,-209.5157 488.6934,-216.6545 491.4364,-210.2143"/>
</g>
<!-- Node40 -->
<g id="node11" class="node">
<title>Node40</title>
<g id="a_node11"><a xlink:href="class_send_coins_dialog.html#a73a6c1b1850a334ee652ac167713a2aa" target="_top" xlink:title="SendCoinsDialog::setModel">
<polygon fill="#ffffff" stroke="#000000" points="724.1406,-72.5 724.1406,-90.5 863.5439,-90.5 863.5439,-72.5 724.1406,-72.5"/>
<text text-anchor="middle" x="793.8423" y="-78.5" font-family="Helvetica,sans-Serif" font-size="10.00" fill="#000000">SendCoinsDialog::setModel</text>
</a>
</g>
</g>
<!-- Node39&#45;&gt;Node40 -->
<g id="edge11" class="edge">
<title>Node39&#45;&gt;Node40</title>
<path fill="none" stroke="#191970" d="M445.6742,-173.4915C474.0293,-140.5395 525.7396,-81.6674 537.6045,-76.5 612.0522,-44.0764 710.5771,-60.4228 761.0152,-72.482"/>
<polygon fill="#191970" stroke="#191970" points="442.8624,-171.3938 439.007,-181.2622 448.1749,-175.9519 442.8624,-171.3938"/>
</g>
<!-- Node43 -->
<g id="node14" class="node">
<title>Node43</title>
<g id="a_node14"><a xlink:href="class_send_coins_dialog.html#a127bddff45f49ff5e6e263efe218ae26" target="_top" xlink:title="SendCoinsDialog::clear">
<polygon fill="#ffffff" stroke="#000000" points="917.0488,-163.5 917.0488,-181.5 1037.5508,-181.5 1037.5508,-163.5 917.0488,-163.5"/>
<text text-anchor="middle" x="977.2998" y="-169.5" font-family="Helvetica,sans-Serif" font-size="10.00" fill="#000000">SendCoinsDialog::clear</text>
</a>
</g>
</g>
<!-- Node39&#45;&gt;Node43 -->
<g id="edge14" class="edge">
<title>Node39&#45;&gt;Node43</title>
<path fill="none" stroke="#191970" d="M496.1555,-179.5994C509.8225,-177.068 524.1106,-174.8433 537.6045,-173.5 672.6247,-160.0587 832.1243,-164.8009 917.0159,-168.9557"/>
<polygon fill="#191970" stroke="#191970" points="495.4927,-176.1627 486.3339,-181.4887 496.815,-183.0367 495.4927,-176.1627"/>
</g>
<!-- Node46 -->
<g id="node17" class="node">
<title>Node46</title>
<g id="a_node17"><a xlink:href="class_send_coins_dialog.html#a3d680a76b967641115c6ff2fa83fb62a" target="_top" xlink:title="SendCoinsDialog::addEntry">
<polygon fill="#ffffff" stroke="#000000" points="724.4165,-239.5 724.4165,-257.5 863.2681,-257.5 863.2681,-239.5 724.4165,-239.5"/>
<text text-anchor="middle" x="793.8423" y="-245.5" font-family="Helvetica,sans-Serif" font-size="10.00" fill="#000000">SendCoinsDialog::addEntry</text>
</a>
</g>
</g>
<!-- Node39&#45;&gt;Node46 -->
<g id="edge18" class="edge">
<title>Node39&#45;&gt;Node46</title>
<path fill="none" stroke="#191970" d="M490.5768,-211.8976C505.9021,-215.4433 522.2758,-218.9029 537.6045,-221.5 600.3417,-232.1293 672.4739,-239.2825 724.1893,-243.5408"/>
<polygon fill="#191970" stroke="#191970" points="491.2153,-208.4522 480.6789,-209.5633 489.6085,-215.2653 491.2153,-208.4522"/>
</g>
<!-- Node54 -->
<g id="node25" class="node">
<title>Node54</title>
<g id="a_node25"><a xlink:href="class_send_coins_dialog.html#a3b834c739f7d02d8086a2bf58525c5f0" target="_top" xlink:title="SendCoinsDialog::updateTabs\lAndLabels">
<polygon fill="#ffffff" stroke="#000000" points="537.6045,-183.5 537.6045,-211.5 688.1406,-211.5 688.1406,-183.5 537.6045,-183.5"/>
<text text-anchor="start" x="545.6045" y="-199.5" font-family="Helvetica,sans-Serif" font-size="10.00" fill="#000000">SendCoinsDialog::updateTabs</text>
<text text-anchor="middle" x="612.8726" y="-189.5" font-family="Helvetica,sans-Serif" font-size="10.00" fill="#000000">AndLabels</text>
</a>
</g>
</g>
<!-- Node39&#45;&gt;Node54 -->
<g id="edge29" class="edge">
<title>Node39&#45;&gt;Node54</title>
<path fill="none" stroke="#191970" d="M511.7809,-196.4128C520.3872,-196.5054 529.0868,-196.5989 537.5819,-196.6903"/>
<polygon fill="#191970" stroke="#191970" points="511.7756,-192.9127 501.7385,-196.3048 511.7003,-199.9123 511.7756,-192.9127"/>
</g>
<!-- Node55 -->
<g id="node26" class="node">
<title>Node55</title>
<g id="a_node26"><a xlink:href="class_send_coins_dialog.html#af13ddd00abec4f060632d887b5e838a3" target="_top" xlink:title="SendCoinsDialog::coinControl\lFeatureChanged">
<polygon fill="#ffffff" stroke="#000000" points="538.1685,-86.5 538.1685,-114.5 687.5767,-114.5 687.5767,-86.5 538.1685,-86.5"/>
<text text-anchor="start" x="546.1685" y="-102.5" font-family="Helvetica,sans-Serif" font-size="10.00" fill="#000000">SendCoinsDialog::coinControl</text>
<text text-anchor="middle" x="612.8726" y="-92.5" font-family="Helvetica,sans-Serif" font-size="10.00" fill="#000000">FeatureChanged</text>
</a>
</g>
</g>
<!-- Node39&#45;&gt;Node55 -->
<g id="edge34" class="edge">
<title>Node39&#45;&gt;Node55</title>
<path fill="none" stroke="#191970" d="M456.4386,-176.0134C478.3112,-162.0528 509.1309,-143.3487 537.6045,-129.5 548.6865,-124.11 561.0436,-118.9989 572.4897,-114.6118"/>
<polygon fill="#191970" stroke="#191970" points="454.4493,-173.1315 447.937,-181.4886 458.2394,-179.0167 454.4493,-173.1315"/>
</g>
<!-- Node41 -->
<g id="node12" class="node">
<title>Node41</title>
<g id="a_node12"><a xlink:href="class_wallet_view.html#a0a37ff693a4f9c1e5ddc23f9cd3913be" target="_top" xlink:title="Set the wallet model. ">
<polygon fill="#ffffff" stroke="#000000" points="908.0669,-72.5 908.0669,-90.5 1046.5327,-90.5 1046.5327,-72.5 908.0669,-72.5"/>
<text text-anchor="middle" x="977.2998" y="-78.5" font-family="Helvetica,sans-Serif" font-size="10.00" fill="#000000">WalletView::setWalletModel</text>
</a>
</g>
</g>
<!-- Node40&#45;&gt;Node41 -->
<g id="edge12" class="edge">
<title>Node40&#45;&gt;Node41</title>
<path fill="none" stroke="#191970" d="M874.0114,-81.5C885.3089,-81.5 896.8442,-81.5 907.9168,-81.5"/>
<polygon fill="#191970" stroke="#191970" points="873.7231,-78.0001 863.7231,-81.5 873.723,-85.0001 873.7231,-78.0001"/>
</g>
<!-- Node42 -->
<g id="node13" class="node">
<title>Node42</title>
<g id="a_node13"><a xlink:href="class_wallet_frame.html#a06cb28194836995e50cc46716b2227ff" target="_top" xlink:title="WalletFrame::addWallet">
<polygon fill="#ffffff" stroke="#000000" points="1114.2319,-72.5 1114.2319,-90.5 1236.1987,-90.5 1236.1987,-72.5 1114.2319,-72.5"/>
<text text-anchor="middle" x="1175.2153" y="-78.5" font-family="Helvetica,sans-Serif" font-size="10.00" fill="#000000">WalletFrame::addWallet</text>
</a>
</g>
</g>
<!-- Node41&#45;&gt;Node42 -->
<g id="edge13" class="edge">
<title>Node41&#45;&gt;Node42</title>
<path fill="none" stroke="#191970" d="M1056.9581,-81.5C1076.0106,-81.5 1096.056,-81.5 1114.1195,-81.5"/>
<polygon fill="#191970" stroke="#191970" points="1056.7992,-78.0001 1046.7991,-81.5 1056.7991,-85.0001 1056.7992,-78.0001"/>
</g>
<!-- Node43&#45;&gt;Node35 -->
<g id="edge15" class="edge">
<title>Node43&#45;&gt;Node35</title>
<path fill="none" stroke="#191970" d="M1047.1366,-185.2542C1049.9159,-186.8131 1052.5724,-188.5547 1055.0557,-190.5 1082.9076,-212.3179 1063.6377,-239.1392 1091.0557,-261.5 1095.2814,-264.9463 1099.9829,-267.8782 1104.9429,-270.3721"/>
<polygon fill="#191970" stroke="#191970" points="1048.439,-181.9982 1037.9042,-180.8723 1045.4375,-188.3221 1048.439,-181.9982"/>
</g>
<!-- Node44 -->
<g id="node15" class="node">
<title>Node44</title>
<g id="a_node15"><a xlink:href="class_send_coins_dialog.html#a4879553d77d29f522ac92ac04580f4ad" target="_top" xlink:title="SendCoinsDialog::reject">
<polygon fill="#ffffff" stroke="#000000" points="1113.5752,-143.5 1113.5752,-161.5 1236.8555,-161.5 1236.8555,-143.5 1113.5752,-143.5"/>
<text text-anchor="middle" x="1175.2153" y="-149.5" font-family="Helvetica,sans-Serif" font-size="10.00" fill="#000000">SendCoinsDialog::reject</text>
</a>
</g>
</g>
<!-- Node43&#45;&gt;Node44 -->
<g id="edge16" class="edge">
<title>Node43&#45;&gt;Node44</title>
<path fill="none" stroke="#191970" d="M1047.777,-165.3781C1069.2145,-163.2117 1092.6012,-160.8484 1113.4204,-158.7446"/>
<polygon fill="#191970" stroke="#191970" points="1047.3538,-161.9029 1037.7564,-166.3907 1048.0577,-168.8674 1047.3538,-161.9029"/>
</g>
<!-- Node45 -->
<g id="node16" class="node">
<title>Node45</title>
<g id="a_node16"><a xlink:href="class_send_coins_dialog.html#af2185c3d29e43d37c30669f0def46060" target="_top" xlink:title="SendCoinsDialog::accept">
<polygon fill="#ffffff" stroke="#000000" points="1111.0703,-180.5 1111.0703,-198.5 1239.3604,-198.5 1239.3604,-180.5 1111.0703,-180.5"/>
<text text-anchor="middle" x="1175.2153" y="-186.5" font-family="Helvetica,sans-Serif" font-size="10.00" fill="#000000">SendCoinsDialog::accept</text>
</a>
</g>
</g>
<!-- Node43&#45;&gt;Node45 -->
<g id="edge17" class="edge">
<title>Node43&#45;&gt;Node45</title>
<path fill="none" stroke="#191970" d="M1047.7205,-178.5488C1068.3497,-180.3207 1090.7882,-182.2481 1111.0091,-183.985"/>
<polygon fill="#191970" stroke="#191970" points="1048.0193,-175.0617 1037.7564,-177.6929 1047.4201,-182.036 1048.0193,-175.0617"/>
</g>
<!-- Node46&#45;&gt;Node35 -->
<g id="edge19" class="edge">
<title>Node46&#45;&gt;Node35</title>
<path fill="none" stroke="#191970" d="M854.0636,-259.153C868.8967,-261.5095 884.7655,-263.8058 899.5439,-265.5 967.6992,-273.3131 1045.7291,-278.326 1101.3356,-281.2292"/>
<polygon fill="#191970" stroke="#191970" points="854.4175,-255.6648 843.9861,-257.5187 853.2968,-262.5745 854.4175,-255.6648"/>
</g>
<!-- Node46&#45;&gt;Node43 -->
<g id="edge20" class="edge">
<title>Node46&#45;&gt;Node43</title>
<path fill="none" stroke="#191970" d="M816.0425,-233.9568C836.8543,-220.906 869.222,-202.0752 899.5439,-190.5 908.8644,-186.942 919.0927,-183.9615 928.981,-181.5151"/>
<polygon fill="#191970" stroke="#191970" points="814.1616,-231.0052 807.6065,-239.3287 817.9215,-236.9097 814.1616,-231.0052"/>
</g>
<!-- Node47 -->
<g id="node18" class="node">
<title>Node47</title>
<g id="a_node18"><a xlink:href="class_send_coins_dialog.html#aabd82a79bd2358493f36425f1d62136b" target="_top" xlink:title="SendCoinsDialog::removeEntry">
<polygon fill="#ffffff" stroke="#000000" points="899.5439,-200.5 899.5439,-218.5 1055.0557,-218.5 1055.0557,-200.5 899.5439,-200.5"/>
<text text-anchor="middle" x="977.2998" y="-206.5" font-family="Helvetica,sans-Serif" font-size="10.00" fill="#000000">SendCoinsDialog::removeEntry</text>
</a>
</g>
</g>
<!-- Node46&#45;&gt;Node47 -->
<g id="edge21" class="edge">
<title>Node46&#45;&gt;Node47</title>
<path fill="none" stroke="#191970" d="M825.1538,-236.6152C846.7439,-230.7271 876.3761,-223.9604 903.7562,-218.5034"/>
<polygon fill="#191970" stroke="#191970" points="823.9116,-233.3294 815.2462,-239.4255 825.8218,-240.0637 823.9116,-233.3294"/>
</g>
<!-- Node48 -->
<g id="node19" class="node">
<title>Node48</title>
<g id="a_node19"><a xlink:href="class_send_coins_dialog.html#a920b2dbf121ca3cfac2adc56e96295f8" target="_top" xlink:title="SendCoinsDialog::setAddress">
<polygon fill="#ffffff" stroke="#000000" points="902.874,-237.5 902.874,-255.5 1051.7256,-255.5 1051.7256,-237.5 902.874,-237.5"/>
<text text-anchor="middle" x="977.2998" y="-243.5" font-family="Helvetica,sans-Serif" font-size="10.00" fill="#000000">SendCoinsDialog::setAddress</text>
</a>
</g>
</g>
<!-- Node46&#45;&gt;Node48 -->
<g id="edge23" class="edge">
<title>Node46&#45;&gt;Node48</title>
<path fill="none" stroke="#191970" d="M873.5224,-247.6314C883.259,-247.5252 893.18,-247.417 902.8361,-247.3118"/>
<polygon fill="#191970" stroke="#191970" points="873.4225,-244.1321 863.4613,-247.741 873.4989,-251.1317 873.4225,-244.1321"/>
</g>
<!-- Node50 -->
<g id="node21" class="node">
<title>Node50</title>
<g id="a_node21"><a xlink:href="class_send_coins_dialog.html#a4440d15ced5d217baaad33a17d56b409" target="_top" xlink:title="SendCoinsDialog::pasteEntry">
<polygon fill="#ffffff" stroke="#000000" points="903.9849,-313.5 903.9849,-331.5 1050.6147,-331.5 1050.6147,-313.5 903.9849,-313.5"/>
<text text-anchor="middle" x="977.2998" y="-319.5" font-family="Helvetica,sans-Serif" font-size="10.00" fill="#000000">SendCoinsDialog::pasteEntry</text>
</a>
</g>
</g>
<!-- Node46&#45;&gt;Node50 -->
<g id="edge25" class="edge">
<title>Node46&#45;&gt;Node50</title>
<path fill="none" stroke="#191970" d="M820.0761,-262.1937C841.1906,-272.8999 871.8125,-287.7245 899.5439,-298.5 914.0293,-304.1285 930.4225,-309.3512 944.4095,-313.4776"/>
<polygon fill="#191970" stroke="#191970" points="821.5849,-259.0342 811.0884,-257.5938 818.3957,-265.2655 821.5849,-259.0342"/>
</g>
<!-- Node47&#45;&gt;Node46 -->
<g id="edge22" class="edge">
<title>Node47&#45;&gt;Node46</title>
<path fill="none" stroke="#191970" d="M946.0782,-221.3602C923.4457,-227.5365 891.9416,-234.6836 863.4613,-240.2728"/>
<polygon fill="#191970" stroke="#191970" points="947.1445,-224.6959 955.8099,-218.5999 945.2344,-217.9616 947.1445,-224.6959"/>
</g>
<!-- Node49 -->
<g id="node20" class="node">
<title>Node49</title>
<g id="a_node20"><a xlink:href="class_wallet_view.html#a2a70c2b00b097dd7b83b6915bb037ea3" target="_top" xlink:title="Switch to send coins page. ">
<polygon fill="#ffffff" stroke="#000000" points="1094.1099,-233.5 1094.1099,-251.5 1256.3208,-251.5 1256.3208,-233.5 1094.1099,-233.5"/>
<text text-anchor="middle" x="1175.2153" y="-239.5" font-family="Helvetica,sans-Serif" font-size="10.00" fill="#000000">WalletView::gotoSendCoinsPage</text>
</a>
</g>
</g>
<!-- Node48&#45;&gt;Node49 -->
<g id="edge24" class="edge">
<title>Node48&#45;&gt;Node49</title>
<path fill="none" stroke="#191970" d="M1061.8938,-244.7903C1072.4672,-244.5766 1083.2641,-244.3584 1093.7878,-244.1457"/>
<polygon fill="#191970" stroke="#191970" points="1061.7684,-241.292 1051.8412,-244.9935 1061.9099,-248.2906 1061.7684,-241.292"/>
</g>
<!-- Node51 -->
<g id="node22" class="node">
<title>Node51</title>
<g id="a_node22"><a xlink:href="class_send_coins_dialog.html#a82ed6a3badadaa523415e1924ebd292a" target="_top" xlink:title="SendCoinsDialog::handlePayment\lRequest">
<polygon fill="#ffffff" stroke="#000000" points="1091.0557,-317.5 1091.0557,-345.5 1259.375,-345.5 1259.375,-317.5 1091.0557,-317.5"/>
<text text-anchor="start" x="1099.0557" y="-333.5" font-family="Helvetica,sans-Serif" font-size="10.00" fill="#000000">SendCoinsDialog::handlePayment</text>
<text text-anchor="middle" x="1175.2153" y="-323.5" font-family="Helvetica,sans-Serif" font-size="10.00" fill="#000000">Request</text>
</a>
</g>
</g>
<!-- Node50&#45;&gt;Node51 -->
<g id="edge26" class="edge">
<title>Node50&#45;&gt;Node51</title>
<path fill="none" stroke="#191970" d="M1060.9506,-326.3039C1070.8621,-326.7546 1080.9835,-327.2149 1090.9041,-327.666"/>
<polygon fill="#191970" stroke="#191970" points="1060.8637,-322.7965 1050.715,-325.8385 1060.5456,-329.7892 1060.8637,-322.7965"/>
</g>
<!-- Node52 -->
<g id="node23" class="node">
<title>Node52</title>
<g id="a_node23"><a xlink:href="class_wallet_view.html#a0ae21d91a9d7755026ce2a6846cef68d" target="_top" xlink:title="WalletView::handlePayment\lRequest">
<polygon fill="#ffffff" stroke="#000000" points="1295.375,-317.5 1295.375,-345.5 1435.3398,-345.5 1435.3398,-317.5 1295.375,-317.5"/>
<text text-anchor="start" x="1303.375" y="-333.5" font-family="Helvetica,sans-Serif" font-size="10.00" fill="#000000">WalletView::handlePayment</text>
<text text-anchor="middle" x="1365.3574" y="-323.5" font-family="Helvetica,sans-Serif" font-size="10.00" fill="#000000">Request</text>
</a>
</g>
</g>
<!-- Node51&#45;&gt;Node52 -->
<g id="edge27" class="edge">
<title>Node51&#45;&gt;Node52</title>
<path fill="none" stroke="#191970" d="M1269.5402,-331.5C1278.1576,-331.5 1286.7832,-331.5 1295.1337,-331.5"/>
<polygon fill="#191970" stroke="#191970" points="1269.4448,-328.0001 1259.4448,-331.5 1269.4447,-335.0001 1269.4448,-328.0001"/>
</g>
<!-- Node53 -->
<g id="node24" class="node">
<title>Node53</title>
<g id="a_node24"><a xlink:href="class_wallet_frame.html#aa8c5b10f2240df164795619ca41c619c" target="_top" xlink:title="WalletFrame::handlePayment\lRequest">
<polygon fill="#ffffff" stroke="#000000" points="1471.3398,-317.5 1471.3398,-345.5 1618.6973,-345.5 1618.6973,-317.5 1471.3398,-317.5"/>
<text text-anchor="start" x="1479.3398" y="-333.5" font-family="Helvetica,sans-Serif" font-size="10.00" fill="#000000">WalletFrame::handlePayment</text>
<text text-anchor="middle" x="1545.0186" y="-323.5" font-family="Helvetica,sans-Serif" font-size="10.00" fill="#000000">Request</text>
</a>
</g>
</g>
<!-- Node52&#45;&gt;Node53 -->
<g id="edge28" class="edge">
<title>Node52&#45;&gt;Node53</title>
<path fill="none" stroke="#191970" d="M1445.8438,-331.5C1454.3116,-331.5 1462.8914,-331.5 1471.2777,-331.5"/>
<polygon fill="#191970" stroke="#191970" points="1445.591,-328.0001 1435.591,-331.5 1445.591,-335.0001 1445.591,-328.0001"/>
</g>
<!-- Node54&#45;&gt;Node43 -->
<g id="edge30" class="edge">
<title>Node54&#45;&gt;Node43</title>
<path fill="none" stroke="#191970" d="M698.5172,-191.6247C765.6393,-187.0201 857.3486,-180.7287 916.9464,-176.6403"/>
<polygon fill="#191970" stroke="#191970" points="698.1191,-188.1437 688.3821,-192.32 698.5982,-195.1273 698.1191,-188.1437"/>
</g>
<!-- Node54&#45;&gt;Node46 -->
<g id="edge31" class="edge">
<title>Node54&#45;&gt;Node46</title>
<path fill="none" stroke="#191970" d="M672.6648,-214.3503C702.3766,-222.7236 737.0969,-232.5083 761.7377,-239.4525"/>
<polygon fill="#191970" stroke="#191970" points="673.3769,-210.9148 662.8024,-211.571 671.4781,-217.6523 673.3769,-210.9148"/>
</g>
<!-- Node54&#45;&gt;Node47 -->
<g id="edge32" class="edge">
<title>Node54&#45;&gt;Node47</title>
<path fill="none" stroke="#191970" d="M698.7246,-200.327C759.5266,-202.3291 840.4253,-204.9929 899.3726,-206.934"/>
<polygon fill="#191970" stroke="#191970" points="698.4919,-196.8175 688.3821,-199.9864 698.2615,-203.8137 698.4919,-196.8175"/>
</g>
<!-- Node54&#45;&gt;Node50 -->
<g id="edge33" class="edge">
<title>Node54&#45;&gt;Node50</title>
<path fill="none" stroke="#191970" d="M639.1289,-217.7275C660.817,-233.4933 692.9917,-254.7783 724.1406,-267.5 782.3294,-291.2652 852.4305,-305.4739 904.0977,-313.4777"/>
<polygon fill="#191970" stroke="#191970" points="641.1955,-214.9028 631.0732,-211.7738 637.0349,-220.5321 641.1955,-214.9028"/>
</g>
<!-- Node55&#45;&gt;Node40 -->
<g id="edge35" class="edge">
<title>Node55&#45;&gt;Node40</title>
<path fill="none" stroke="#191970" d="M697.9471,-91.568C706.6454,-90.6548 715.4106,-89.7345 723.9197,-88.8412"/>
<polygon fill="#191970" stroke="#191970" points="697.3661,-88.1097 687.7862,-92.6348 698.097,-95.0714 697.3661,-88.1097"/>
</g>
<!-- Node57 -->
<g id="node28" class="node">
<title>Node57</title>
<g id="a_node28"><a xlink:href="class_send_coins_entry.html#ad525c91a9eee6f73a79267d2df487fb9" target="_top" xlink:title="SendCoinsEntry::validate">
<polygon fill="#ffffff" stroke="#000000" points="362.7578,-83.5 362.7578,-101.5 491.043,-101.5 491.043,-83.5 362.7578,-83.5"/>
<text text-anchor="middle" x="426.9004" y="-89.5" font-family="Helvetica,sans-Serif" font-size="10.00" fill="#000000">SendCoinsEntry::validate</text>
</a>
</g>
</g>
<!-- Node56&#45;&gt;Node57 -->
<g id="edge38" class="edge">
<title>Node56&#45;&gt;Node57</title>
<path fill="none" stroke="#191970" d="M291.3663,-163.5879C324.8178,-146.0425 381.3754,-116.3779 409.682,-101.5311"/>
<polygon fill="#191970" stroke="#191970" points="289.415,-160.659 282.1849,-168.4035 292.6664,-166.8581 289.415,-160.659"/>
</g>
<!-- Node58 -->
<g id="node29" class="node">
<title>Node58</title>
<g id="a_node29"><a xlink:href="class_send_coins_dialog.html#a2cab7cf9ea5040b9e2189297f7d3c764" target="_top" xlink:title="SendCoinsDialog::on\l_sendButton_clicked">
<polygon fill="#ffffff" stroke="#000000" points="557.8975,-.5 557.8975,-28.5 667.8477,-28.5 667.8477,-.5 557.8975,-.5"/>
<text text-anchor="start" x="565.8975" y="-16.5" font-family="Helvetica,sans-Serif" font-size="10.00" fill="#000000">SendCoinsDialog::on</text>
<text text-anchor="middle" x="612.8726" y="-6.5" font-family="Helvetica,sans-Serif" font-size="10.00" fill="#000000">_sendButton_clicked</text>
</a>
</g>
</g>
<!-- Node57&#45;&gt;Node58 -->
<g id="edge39" class="edge">
<title>Node57&#45;&gt;Node58</title>
<path fill="none" stroke="#191970" d="M455.9935,-79.1564C478.2235,-69.0743 509.6894,-55.0475 537.6045,-43.5 549.7683,-38.4682 563.1475,-33.2217 575.2095,-28.5965"/>
<polygon fill="#191970" stroke="#191970" points="454.425,-76.0247 446.7728,-83.3523 457.3244,-82.3961 454.425,-76.0247"/>
</g>
</g>
</svg>
