<?xml version="1.0" encoding="UTF-8" standalone="no"?>
<!DOCTYPE svg PUBLIC "-//W3C//DTD SVG 1.1//EN"
 "http://www.w3.org/Graphics/SVG/1.1/DTD/svg11.dtd">
<!-- Generated by graphviz version 2.40.1 (20161225.0304)
 -->
<!-- Title: src/pubkey.h Pages: 1 -->
<svg width="1921pt" height="357pt"
 viewBox="0.00 0.00 1921.24 357.00" xmlns="http://www.w3.org/2000/svg" xmlns:xlink="http://www.w3.org/1999/xlink">
<g id="graph0" class="graph" transform="scale(1 1) rotate(0) translate(4 353)">
<title>src/pubkey.h</title>
<polygon fill="#ffffff" stroke="transparent" points="-4,4 -4,-353 1917.2437,-353 1917.2437,4 -4,4"/>
<!-- Node0 -->
<g id="node1" class="node">
<title>Node0</title>
<polygon fill="#bfbfbf" stroke="#000000" points="1524.8638,-330.5 1524.8638,-348.5 1596.8208,-348.5 1596.8208,-330.5 1524.8638,-330.5"/>
<text text-anchor="middle" x="1560.8423" y="-336.5" font-family="Helvetica,sans-Serif" font-size="10.00" fill="#000000">src/pubkey.h</text>
</g>
<!-- Node1 -->
<g id="node2" class="node">
<title>Node1</title>
<g id="a_node2"><a xlink:href="_hash_8h.html" target="_top" xlink:title="hash.h">
<polygon fill="#ffffff" stroke="#000000" points="979.8301,-275.5 979.8301,-293.5 1025.8545,-293.5 1025.8545,-275.5 979.8301,-275.5"/>
<text text-anchor="middle" x="1002.8423" y="-281.5" font-family="Helvetica,sans-Serif" font-size="10.00" fill="#000000">hash.h</text>
</a>
</g>
</g>
<!-- Node0&#45;&gt;Node1 -->
<g id="edge1" class="edge">
<title>Node0&#45;&gt;Node1</title>
<path fill="none" stroke="#191970" d="M1524.6603,-335.9337C1422.717,-325.8855 1134.1781,-297.4453 1036.0145,-287.7697"/>
<polygon fill="#191970" stroke="#191970" points="1036.3557,-284.2864 1026.0606,-286.7885 1035.669,-291.2527 1036.3557,-284.2864"/>
</g>
<!-- Node34 -->
<g id="node34" class="node">
<title>Node34</title>
<g id="a_node34"><a xlink:href="serialize_8h.html" target="_top" xlink:title="serialize.h">
<polygon fill="#ffffff" stroke="#000000" points="1186.3325,-220.5 1186.3325,-238.5 1247.3521,-238.5 1247.3521,-220.5 1186.3325,-220.5"/>
<text text-anchor="middle" x="1216.8423" y="-226.5" font-family="Helvetica,sans-Serif" font-size="10.00" fill="#000000">serialize.h</text>
</a>
</g>
</g>
<!-- Node0&#45;&gt;Node34 -->
<g id="edge76" class="edge">
<title>Node0&#45;&gt;Node34</title>
<path fill="none" stroke="#191970" d="M1532.6913,-330.4982C1471.2088,-310.8381 1324.8622,-264.0413 1255.1001,-241.7336"/>
<polygon fill="#191970" stroke="#191970" points="1255.9731,-238.3382 1245.3822,-238.6261 1253.8411,-245.0057 1255.9731,-238.3382"/>
</g>
<!-- Node44 -->
<g id="node44" class="node">
<title>Node44</title>
<polygon fill="#ffffff" stroke="#bfbfbf" points="1543.2266,-165.5 1543.2266,-183.5 1586.458,-183.5 1586.458,-165.5 1543.2266,-165.5"/>
<text text-anchor="middle" x="1564.8423" y="-171.5" font-family="Helvetica,sans-Serif" font-size="10.00" fill="#000000">vector</text>
</g>
<!-- Node0&#45;&gt;Node44 -->
<g id="edge79" class="edge">
<title>Node0&#45;&gt;Node44</title>
<path fill="none" stroke="#191970" d="M1561.0688,-330.1561C1561.7041,-303.9504 1563.5124,-229.3557 1564.3744,-193.8021"/>
<polygon fill="#191970" stroke="#191970" points="1567.8748,-193.8233 1564.6183,-183.7414 1560.8768,-193.6536 1567.8748,-193.8233"/>
</g>
<!-- Node46 -->
<g id="node46" class="node">
<title>Node46</title>
<g id="a_node46"><a xlink:href="uint256_8h.html" target="_top" xlink:title="uint256.h">
<polygon fill="#ffffff" stroke="#000000" points="1589.2686,-220.5 1589.2686,-238.5 1646.416,-238.5 1646.416,-220.5 1589.2686,-220.5"/>
<text text-anchor="middle" x="1617.8423" y="-226.5" font-family="Helvetica,sans-Serif" font-size="10.00" fill="#000000">uint256.h</text>
</a>
</g>
</g>
<!-- Node0&#45;&gt;Node46 -->
<g id="edge77" class="edge">
<title>Node0&#45;&gt;Node46</title>
<path fill="none" stroke="#191970" d="M1565.5068,-330.4982C1574.8593,-312.4496 1596.0628,-271.5306 1608.4195,-247.6843"/>
<polygon fill="#191970" stroke="#191970" points="1611.62,-249.1152 1613.1133,-238.6261 1605.4048,-245.8946 1611.62,-249.1152"/>
</g>
<!-- Node48 -->
<g id="node48" class="node">
<title>Node48</title>
<polygon fill="#ffffff" stroke="#bfbfbf" points="1854.4409,-165.5 1854.4409,-183.5 1913.2437,-183.5 1913.2437,-165.5 1854.4409,-165.5"/>
<text text-anchor="middle" x="1883.8423" y="-171.5" font-family="Helvetica,sans-Serif" font-size="10.00" fill="#000000">stdexcept</text>
</g>
<!-- Node0&#45;&gt;Node48 -->
<g id="edge78" class="edge">
<title>Node0&#45;&gt;Node48</title>
<path fill="none" stroke="#191970" d="M1578.6683,-330.3939C1632.3827,-302.9546 1792.9133,-220.9498 1856.9929,-188.2156"/>
<polygon fill="#191970" stroke="#191970" points="1858.7583,-191.2441 1866.0714,-183.578 1855.5738,-185.0104 1858.7583,-191.2441"/>
</g>
<!-- Node2 -->
<g id="node3" class="node">
<title>Node2</title>
<g id="a_node3"><a xlink:href="ripemd160_8h.html" target="_top" xlink:title="crypto/ripemd160.h">
<polygon fill="#ffffff" stroke="#000000" points="212.042,-165.5 212.042,-183.5 313.6426,-183.5 313.6426,-165.5 212.042,-165.5"/>
<text text-anchor="middle" x="262.8423" y="-171.5" font-family="Helvetica,sans-Serif" font-size="10.00" fill="#000000">crypto/ripemd160.h</text>
</a>
</g>
</g>
<!-- Node1&#45;&gt;Node2 -->
<g id="edge2" class="edge">
<title>Node1&#45;&gt;Node2</title>
<path fill="none" stroke="#191970" d="M979.628,-276.5728C954.3968,-267.8357 912.9789,-253.1392 877.8423,-239 858.4592,-231.2001 855.1193,-225.0384 834.8423,-220 616.0384,-165.6321 553.0104,-208.0761 328.8423,-184 327.3316,-183.8377 325.8023,-183.6672 324.2603,-183.4895"/>
<polygon fill="#191970" stroke="#191970" points="324.3125,-179.9699 313.9612,-182.2283 323.4616,-186.9179 324.3125,-179.9699"/>
</g>
<!-- Node5 -->
<g id="node6" class="node">
<title>Node5</title>
<g id="a_node6"><a xlink:href="sha256_8h.html" target="_top" xlink:title="crypto/sha256.h">
<polygon fill="#ffffff" stroke="#000000" points="887.2637,-220.5 887.2637,-238.5 974.4209,-238.5 974.4209,-220.5 887.2637,-220.5"/>
<text text-anchor="middle" x="930.8423" y="-226.5" font-family="Helvetica,sans-Serif" font-size="10.00" fill="#000000">crypto/sha256.h</text>
</a>
</g>
</g>
<!-- Node1&#45;&gt;Node5 -->
<g id="edge5" class="edge">
<title>Node1&#45;&gt;Node5</title>
<path fill="none" stroke="#191970" d="M990.9529,-275.4179C980.1787,-267.1876 964.0721,-254.8839 951.2426,-245.0836"/>
<polygon fill="#191970" stroke="#191970" points="953.0613,-242.0685 942.9899,-238.7795 948.812,-247.6313 953.0613,-242.0685"/>
</g>
<!-- Node7 -->
<g id="node8" class="node">
<title>Node7</title>
<g id="a_node8"><a xlink:href="_s_h_a3_8h.html" target="_top" xlink:title="crypto/sha3.h">
<polygon fill="#ffffff" stroke="#000000" points="117.8252,-165.5 117.8252,-183.5 193.8594,-183.5 193.8594,-165.5 117.8252,-165.5"/>
<text text-anchor="middle" x="155.8423" y="-171.5" font-family="Helvetica,sans-Serif" font-size="10.00" fill="#000000">crypto/sha3.h</text>
</a>
</g>
</g>
<!-- Node1&#45;&gt;Node7 -->
<g id="edge9" class="edge">
<title>Node1&#45;&gt;Node7</title>
<path fill="none" stroke="#191970" d="M979.6708,-280.2003C946.683,-273.6413 884.6592,-259.6784 834.8423,-239 819.2114,-232.5118 818.0537,-224.8592 801.8423,-220 549.4876,-144.3599 469.2602,-216.6931 203.9104,-183.9361"/>
<polygon fill="#191970" stroke="#191970" points="204.3494,-180.4638 193.9874,-182.6731 203.4654,-187.4078 204.3494,-180.4638"/>
</g>
<!-- Node13 -->
<g id="node13" class="node">
<title>Node13</title>
<g id="a_node13"><a xlink:href="prevector_8h.html" target="_top" xlink:title="prevector.h">
<polygon fill="#ffffff" stroke="#000000" points="815.1035,-165.5 815.1035,-183.5 880.5811,-183.5 880.5811,-165.5 815.1035,-165.5"/>
<text text-anchor="middle" x="847.8423" y="-171.5" font-family="Helvetica,sans-Serif" font-size="10.00" fill="#000000">prevector.h</text>
</a>
</g>
</g>
<!-- Node1&#45;&gt;Node13 -->
<g id="edge17" class="edge">
<title>Node1&#45;&gt;Node13</title>
<path fill="none" stroke="#191970" d="M1002.6941,-275.2812C1001.9714,-261.4422 998.5898,-235.294 983.8423,-220 970.7476,-206.42 925.4997,-192.9738 890.7538,-184.2615"/>
<polygon fill="#191970" stroke="#191970" points="891.358,-180.8061 880.8123,-181.8243 889.6913,-187.6048 891.358,-180.8061"/>
</g>
<!-- Node1&#45;&gt;Node34 -->
<g id="edge41" class="edge">
<title>Node1&#45;&gt;Node34</title>
<path fill="none" stroke="#191970" d="M1026.1514,-278.5093C1062.1304,-269.2624 1131.6733,-251.3892 1176.0952,-239.9724"/>
<polygon fill="#191970" stroke="#191970" points="1177.1768,-243.3082 1185.9908,-237.4291 1175.4343,-236.5285 1177.1768,-243.3082"/>
</g>
<!-- Node1&#45;&gt;Node44 -->
<g id="edge75" class="edge">
<title>Node1&#45;&gt;Node44</title>
<path fill="none" stroke="#191970" d="M1025.9959,-280.5709C1070.6929,-272.9377 1171.9514,-255.4097 1256.8423,-239 1374.9438,-216.1706 1404.2233,-209.1975 1521.8423,-184 1525.496,-183.2173 1529.322,-182.3871 1533.1212,-181.5562"/>
<polygon fill="#191970" stroke="#191970" points="1533.9647,-184.9544 1542.9789,-179.387 1532.4603,-178.118 1533.9647,-184.9544"/>
</g>
<!-- Node1&#45;&gt;Node46 -->
<g id="edge63" class="edge">
<title>Node1&#45;&gt;Node46</title>
<path fill="none" stroke="#191970" d="M1026.2,-282.4111C1118.9661,-274.1149 1461.974,-243.4394 1578.6741,-233.0028"/>
<polygon fill="#191970" stroke="#191970" points="1579.2791,-236.4628 1588.9275,-232.0859 1578.6555,-229.4906 1579.2791,-236.4628"/>
</g>
<!-- Node50 -->
<g id="node50" class="node">
<title>Node50</title>
<g id="a_node50"><a xlink:href="version_8h.html" target="_top" xlink:title="version.h">
<polygon fill="#ffffff" stroke="#000000" points="736.5542,-220.5 736.5542,-238.5 793.1304,-238.5 793.1304,-220.5 736.5542,-220.5"/>
<text text-anchor="middle" x="764.8423" y="-226.5" font-family="Helvetica,sans-Serif" font-size="10.00" fill="#000000">version.h</text>
</a>
</g>
</g>
<!-- Node1&#45;&gt;Node50 -->
<g id="edge74" class="edge">
<title>Node1&#45;&gt;Node50</title>
<path fill="none" stroke="#191970" d="M979.5885,-279.1262C938.5531,-269.6432 852.9263,-249.8555 803.0844,-238.3375"/>
<polygon fill="#191970" stroke="#191970" points="803.8502,-234.9223 793.3189,-236.0807 802.274,-241.7425 803.8502,-234.9223"/>
</g>
<!-- Node3 -->
<g id="node4" class="node">
<title>Node3</title>
<polygon fill="#ffffff" stroke="#bfbfbf" points="1452.7217,-.5 1452.7217,-18.5 1500.9629,-18.5 1500.9629,-.5 1452.7217,-.5"/>
<text text-anchor="middle" x="1476.8423" y="-6.5" font-family="Helvetica,sans-Serif" font-size="10.00" fill="#000000">stdint.h</text>
</g>
<!-- Node2&#45;&gt;Node3 -->
<g id="edge3" class="edge">
<title>Node2&#45;&gt;Node3</title>
<path fill="none" stroke="#191970" d="M256.8152,-165.2083C243.1484,-142.8721 213.2095,-85.7456 242.8423,-55 264.2527,-32.7856 1245.5026,-13.7221 1442.5831,-10.1136"/>
<polygon fill="#191970" stroke="#191970" points="1442.7195,-13.6118 1452.6541,-9.9302 1442.5919,-6.6129 1442.7195,-13.6118"/>
</g>
<!-- Node4 -->
<g id="node5" class="node">
<title>Node4</title>
<polygon fill="#ffffff" stroke="#bfbfbf" points="255,-110.5 255,-128.5 302.6846,-128.5 302.6846,-110.5 255,-110.5"/>
<text text-anchor="middle" x="278.8423" y="-116.5" font-family="Helvetica,sans-Serif" font-size="10.00" fill="#000000">stdlib.h</text>
</g>
<!-- Node2&#45;&gt;Node4 -->
<g id="edge4" class="edge">
<title>Node2&#45;&gt;Node4</title>
<path fill="none" stroke="#191970" d="M265.4844,-165.4179C267.6024,-158.1372 270.6477,-147.669 273.2959,-138.5659"/>
<polygon fill="#191970" stroke="#191970" points="276.7101,-139.3591 276.1428,-128.7795 269.9888,-137.4037 276.7101,-139.3591"/>
</g>
<!-- Node5&#45;&gt;Node3 -->
<g id="edge6" class="edge">
<title>Node5&#45;&gt;Node3</title>
<path fill="none" stroke="#191970" d="M886.8672,-222.2781C746.2732,-198.7585 314.6155,-123.0558 275.8423,-74 270.606,-67.3751 269.9853,-61.0831 275.8423,-55 296.6263,-33.4136 1247.6885,-13.9211 1442.2831,-10.1548"/>
<polygon fill="#191970" stroke="#191970" points="1442.5665,-13.6501 1452.4972,-9.9581 1442.4317,-6.6513 1442.5665,-13.6501"/>
</g>
<!-- Node5&#45;&gt;Node4 -->
<g id="edge7" class="edge">
<title>Node5&#45;&gt;Node4</title>
<path fill="none" stroke="#191970" d="M887.1983,-221.9125C882.3632,-221.2027 877.5041,-220.5461 872.8423,-220 760.6591,-206.8577 471.7724,-223.1994 365.8423,-184 337.9121,-173.6644 311.2393,-151.4274 294.9599,-135.9726"/>
<polygon fill="#191970" stroke="#191970" points="297.0351,-133.1059 287.4425,-128.6079 292.1364,-138.1062 297.0351,-133.1059"/>
</g>
<!-- Node6 -->
<g id="node7" class="node">
<title>Node6</title>
<polygon fill="#ffffff" stroke="#bfbfbf" points="1252.6157,-165.5 1252.6157,-183.5 1293.0688,-183.5 1293.0688,-165.5 1252.6157,-165.5"/>
<text text-anchor="middle" x="1272.8423" y="-171.5" font-family="Helvetica,sans-Serif" font-size="10.00" fill="#000000">string</text>
</g>
<!-- Node5&#45;&gt;Node6 -->
<g id="edge8" class="edge">
<title>Node5&#45;&gt;Node6</title>
<path fill="none" stroke="#191970" d="M974.5757,-225.5438C1033.5309,-219.686 1141.8185,-207.0801 1242.3558,-184.0274"/>
<polygon fill="#191970" stroke="#191970" points="1243.4288,-187.3711 1252.3714,-181.6896 1241.8376,-180.5543 1243.4288,-187.3711"/>
</g>
<!-- Node7&#45;&gt;Node3 -->
<g id="edge10" class="edge">
<title>Node7&#45;&gt;Node3</title>
<path fill="none" stroke="#191970" d="M158.162,-165.4996C164.6885,-142.259 185.6174,-80.2931 228.8423,-55 282.6191,-23.5325 1246.3347,-11.8881 1442.2567,-9.8411"/>
<polygon fill="#191970" stroke="#191970" points="1442.5707,-13.3381 1452.534,-9.7352 1442.4985,-6.3385 1442.5707,-13.3381"/>
</g>
<!-- Node7&#45;&gt;Node4 -->
<g id="edge11" class="edge">
<title>Node7&#45;&gt;Node4</title>
<path fill="none" stroke="#191970" d="M176.1532,-165.4179C196.0944,-156.5011 226.7282,-142.803 249.3508,-132.6873"/>
<polygon fill="#191970" stroke="#191970" points="250.801,-135.8728 258.5012,-128.5956 247.9435,-129.4826 250.801,-135.8728"/>
</g>
<!-- Node8 -->
<g id="node9" class="node">
<title>Node8</title>
<g id="a_node9"><a xlink:href="keccak_2_s_h_a3_8h.html" target="_top" xlink:title="crypto/keccak/SHA3.h">
<polygon fill="#ffffff" stroke="#000000" points="38.6553,-110.5 38.6553,-128.5 153.0293,-128.5 153.0293,-110.5 38.6553,-110.5"/>
<text text-anchor="middle" x="95.8423" y="-116.5" font-family="Helvetica,sans-Serif" font-size="10.00" fill="#000000">crypto/keccak/SHA3.h</text>
</a>
</g>
</g>
<!-- Node7&#45;&gt;Node8 -->
<g id="edge12" class="edge">
<title>Node7&#45;&gt;Node8</title>
<path fill="none" stroke="#191970" d="M145.9345,-165.4179C137.1287,-157.3458 124.0484,-145.3556 113.4623,-135.6517"/>
<polygon fill="#191970" stroke="#191970" points="115.7019,-132.9567 105.9653,-128.7795 110.9718,-138.1168 115.7019,-132.9567"/>
</g>
<!-- Node9 -->
<g id="node10" class="node">
<title>Node9</title>
<g id="a_node10"><a xlink:href="_keccak_core_8h.html" target="_top" xlink:title="KeccakCore.h">
<polygon fill="#ffffff" stroke="#ff0000" points="65.4385,-55.5 65.4385,-73.5 144.2461,-73.5 144.2461,-55.5 65.4385,-55.5"/>
<text text-anchor="middle" x="104.8423" y="-61.5" font-family="Helvetica,sans-Serif" font-size="10.00" fill="#000000">KeccakCore.h</text>
</a>
</g>
</g>
<!-- Node8&#45;&gt;Node9 -->
<g id="edge13" class="edge">
<title>Node8&#45;&gt;Node9</title>
<path fill="none" stroke="#191970" d="M97.3285,-110.4179C98.5069,-103.2164 100.1956,-92.8962 101.6738,-83.8632"/>
<polygon fill="#191970" stroke="#191970" points="105.1629,-84.2134 103.3238,-73.7795 98.2548,-83.083 105.1629,-84.2134"/>
</g>
<!-- Node12 -->
<g id="node12" class="node">
<title>Node12</title>
<g id="a_node12"><a xlink:href="crypto_2keccak_2_hash_8h.html" target="_top" xlink:title="Hash.h">
<polygon fill="#ffffff" stroke="#ff0000" points="0,-55.5 0,-73.5 47.6846,-73.5 47.6846,-55.5 0,-55.5"/>
<text text-anchor="middle" x="23.8423" y="-61.5" font-family="Helvetica,sans-Serif" font-size="10.00" fill="#000000">Hash.h</text>
</a>
</g>
</g>
<!-- Node8&#45;&gt;Node12 -->
<g id="edge15" class="edge">
<title>Node8&#45;&gt;Node12</title>
<path fill="none" stroke="#191970" d="M83.9529,-110.4179C73.1787,-102.1876 57.0721,-89.8839 44.2426,-80.0836"/>
<polygon fill="#191970" stroke="#191970" points="46.0613,-77.0685 35.9899,-73.7795 41.812,-82.6313 46.0613,-77.0685"/>
</g>
<!-- Node10 -->
<g id="node11" class="node">
<title>Node10</title>
<polygon fill="#ffffff" stroke="#bfbfbf" points="35.4409,-.5 35.4409,-18.5 94.2437,-18.5 94.2437,-.5 35.4409,-.5"/>
<text text-anchor="middle" x="64.8423" y="-6.5" font-family="Helvetica,sans-Serif" font-size="10.00" fill="#000000">inttypes.h</text>
</g>
<!-- Node9&#45;&gt;Node10 -->
<g id="edge14" class="edge">
<title>Node9&#45;&gt;Node10</title>
<path fill="none" stroke="#191970" d="M98.2371,-55.4179C92.6543,-47.7415 84.4944,-36.5217 77.6383,-27.0945"/>
<polygon fill="#191970" stroke="#191970" points="80.3033,-24.8082 71.591,-18.7795 74.6422,-28.9255 80.3033,-24.8082"/>
</g>
<!-- Node12&#45;&gt;Node10 -->
<g id="edge16" class="edge">
<title>Node12&#45;&gt;Node10</title>
<path fill="none" stroke="#191970" d="M30.6126,-55.4179C36.394,-47.6624 44.8716,-36.29 51.9433,-26.8035"/>
<polygon fill="#191970" stroke="#191970" points="54.7543,-28.8888 57.9249,-18.7795 49.1421,-24.7051 54.7543,-28.8888"/>
</g>
<!-- Node13&#45;&gt;Node3 -->
<g id="edge20" class="edge">
<title>Node13&#45;&gt;Node3</title>
<path fill="none" stroke="#191970" d="M863.7354,-165.2665C893.82,-147.8219 956.5687,-111.612 961.8423,-110 1059.4743,-80.1555 1328.4875,-119.5743 1419.8423,-74 1440.4398,-63.7245 1456.8863,-42.4636 1466.7202,-27.1569"/>
<polygon fill="#191970" stroke="#191970" points="1469.7518,-28.9078 1471.9666,-18.5471 1463.7741,-25.2653 1469.7518,-28.9078"/>
</g>
<!-- Node13&#45;&gt;Node4 -->
<g id="edge19" class="edge">
<title>Node13&#45;&gt;Node4</title>
<path fill="none" stroke="#191970" d="M814.791,-171.3052C714.5695,-161.6177 414.7378,-132.6358 313.0274,-122.8044"/>
<polygon fill="#191970" stroke="#191970" points="313.2815,-119.3127 302.9911,-121.8342 312.6079,-126.2802 313.2815,-119.3127"/>
</g>
<!-- Node14 -->
<g id="node14" class="node">
<title>Node14</title>
<polygon fill="#ffffff" stroke="#bfbfbf" points="1150.0566,-110.5 1150.0566,-128.5 1201.6279,-128.5 1201.6279,-110.5 1150.0566,-110.5"/>
<text text-anchor="middle" x="1175.8423" y="-116.5" font-family="Helvetica,sans-Serif" font-size="10.00" fill="#000000">assert.h</text>
</g>
<!-- Node13&#45;&gt;Node14 -->
<g id="edge18" class="edge">
<title>Node13&#45;&gt;Node14</title>
<path fill="none" stroke="#191970" d="M880.8056,-166.7804C883.8542,-166.1461 886.9014,-165.5417 889.8423,-165 997.9562,-145.0839 1029.3593,-151.8551 1140.0548,-129.173"/>
<polygon fill="#191970" stroke="#191970" points="1140.8639,-132.5797 1149.9397,-127.1133 1139.436,-125.7269 1140.8639,-132.5797"/>
</g>
<!-- Node15 -->
<g id="node15" class="node">
<title>Node15</title>
<polygon fill="#ffffff" stroke="#bfbfbf" points="1400.4458,-110.5 1400.4458,-128.5 1449.2388,-128.5 1449.2388,-110.5 1400.4458,-110.5"/>
<text text-anchor="middle" x="1424.8423" y="-116.5" font-family="Helvetica,sans-Serif" font-size="10.00" fill="#000000">string.h</text>
</g>
<!-- Node13&#45;&gt;Node15 -->
<g id="edge21" class="edge">
<title>Node13&#45;&gt;Node15</title>
<path fill="none" stroke="#191970" d="M880.7752,-166.6007C883.8301,-166.0042 886.8872,-165.4576 889.8423,-165 1077.3456,-135.9622 1304.8974,-124.336 1390.2777,-120.7907"/>
<polygon fill="#191970" stroke="#191970" points="1390.5882,-124.2811 1400.4384,-120.3794 1390.305,-117.2868 1390.5882,-124.2811"/>
</g>
<!-- Node16 -->
<g id="node16" class="node">
<title>Node16</title>
<polygon fill="#ffffff" stroke="#bfbfbf" points="970.7217,-110.5 970.7217,-128.5 1018.9629,-128.5 1018.9629,-110.5 970.7217,-110.5"/>
<text text-anchor="middle" x="994.8423" y="-116.5" font-family="Helvetica,sans-Serif" font-size="10.00" fill="#000000">cstddef</text>
</g>
<!-- Node13&#45;&gt;Node16 -->
<g id="edge22" class="edge">
<title>Node13&#45;&gt;Node16</title>
<path fill="none" stroke="#191970" d="M872.1163,-165.4179C896.3741,-156.3419 933.8712,-142.3123 961.0355,-132.1488"/>
<polygon fill="#191970" stroke="#191970" points="962.3928,-135.378 970.5322,-128.5956 959.9397,-128.8219 962.3928,-135.378"/>
</g>
<!-- Node17 -->
<g id="node17" class="node">
<title>Node17</title>
<polygon fill="#ffffff" stroke="#bfbfbf" points="754.2808,-110.5 754.2808,-128.5 801.4038,-128.5 801.4038,-110.5 754.2808,-110.5"/>
<text text-anchor="middle" x="777.8423" y="-116.5" font-family="Helvetica,sans-Serif" font-size="10.00" fill="#000000">iterator</text>
</g>
<!-- Node13&#45;&gt;Node17 -->
<g id="edge23" class="edge">
<title>Node13&#45;&gt;Node17</title>
<path fill="none" stroke="#191970" d="M836.2832,-165.4179C825.8083,-157.1876 810.1491,-144.8839 797.6759,-135.0836"/>
<polygon fill="#191970" stroke="#191970" points="799.6781,-132.2056 789.6525,-128.7795 795.3533,-137.7098 799.6781,-132.2056"/>
</g>
<!-- Node18 -->
<g id="node18" class="node">
<title>Node18</title>
<polygon fill="#ffffff" stroke="#bfbfbf" points="1348.7759,-55.5 1348.7759,-73.5 1410.9087,-73.5 1410.9087,-55.5 1348.7759,-55.5"/>
<text text-anchor="middle" x="1379.8423" y="-61.5" font-family="Helvetica,sans-Serif" font-size="10.00" fill="#000000">type_traits</text>
</g>
<!-- Node13&#45;&gt;Node18 -->
<g id="edge24" class="edge">
<title>Node13&#45;&gt;Node18</title>
<path fill="none" stroke="#191970" d="M855.7339,-165.451C869.1015,-150.8302 897.7906,-122.3997 928.8423,-110 1096.1397,-43.1942 1156.6936,-101.1493 1338.6039,-73.9467"/>
<polygon fill="#191970" stroke="#191970" points="1339.146,-77.4046 1348.4863,-72.4036 1338.066,-70.4884 1339.146,-77.4046"/>
</g>
<!-- Node19 -->
<g id="node19" class="node">
<title>Node19</title>
<g id="a_node19"><a xlink:href="compat_8h.html" target="_top" xlink:title="compat.h">
<polygon fill="#ffffff" stroke="#000000" points="819.2759,-110.5 819.2759,-128.5 876.4087,-128.5 876.4087,-110.5 819.2759,-110.5"/>
<text text-anchor="middle" x="847.8423" y="-116.5" font-family="Helvetica,sans-Serif" font-size="10.00" fill="#000000">compat.h</text>
</a>
</g>
</g>
<!-- Node13&#45;&gt;Node19 -->
<g id="edge25" class="edge">
<title>Node13&#45;&gt;Node19</title>
<path fill="none" stroke="#191970" d="M847.8423,-165.4179C847.8423,-158.2164 847.8423,-147.8962 847.8423,-138.8632"/>
<polygon fill="#191970" stroke="#191970" points="851.3424,-138.7794 847.8423,-128.7795 844.3424,-138.7795 851.3424,-138.7794"/>
</g>
<!-- Node19&#45;&gt;Node18 -->
<g id="edge26" class="edge">
<title>Node19&#45;&gt;Node18</title>
<path fill="none" stroke="#191970" d="M876.4212,-112.6118C881.2152,-111.6217 886.1545,-110.7024 890.8423,-110 1085.5414,-80.8285 1140.2873,-104.4102 1338.3357,-74.0119"/>
<polygon fill="#191970" stroke="#191970" points="1339.1499,-77.4273 1348.4898,-72.4257 1338.0694,-70.5111 1339.1499,-77.4273"/>
</g>
<!-- Node20 -->
<g id="node20" class="node">
<title>Node20</title>
<polygon fill="#ffffff" stroke="#bfbfbf" points="1200.5024,-55.5 1200.5024,-73.5 1243.1821,-73.5 1243.1821,-55.5 1200.5024,-55.5"/>
<text text-anchor="middle" x="1221.8423" y="-61.5" font-family="Helvetica,sans-Serif" font-size="10.00" fill="#000000">fcntl.h</text>
</g>
<!-- Node19&#45;&gt;Node20 -->
<g id="edge27" class="edge">
<title>Node19&#45;&gt;Node20</title>
<path fill="none" stroke="#191970" d="M876.4464,-112.7692C881.2374,-111.7602 886.1691,-110.7937 890.8423,-110 1020.4284,-87.9908 1058.3131,-101.7512 1190.2573,-74.0025"/>
<polygon fill="#191970" stroke="#191970" points="1191.2987,-77.3588 1200.3426,-71.84 1189.8311,-70.5144 1191.2987,-77.3588"/>
</g>
<!-- Node21 -->
<g id="node21" class="node">
<title>Node21</title>
<polygon fill="#ffffff" stroke="#bfbfbf" points="1260.8916,-55.5 1260.8916,-73.5 1330.793,-73.5 1330.793,-55.5 1260.8916,-55.5"/>
<text text-anchor="middle" x="1295.8423" y="-61.5" font-family="Helvetica,sans-Serif" font-size="10.00" fill="#000000">sys/mman.h</text>
</g>
<!-- Node19&#45;&gt;Node21 -->
<g id="edge28" class="edge">
<title>Node19&#45;&gt;Node21</title>
<path fill="none" stroke="#191970" d="M876.4333,-112.69C881.2259,-111.6906 886.1616,-110.7478 890.8423,-110 1046.7983,-85.0853 1090.7684,-98.4771 1250.6481,-74.0172"/>
<polygon fill="#191970" stroke="#191970" points="1251.502,-77.4265 1260.8449,-72.4303 1250.4256,-70.5097 1251.502,-77.4265"/>
</g>
<!-- Node22 -->
<g id="node22" class="node">
<title>Node22</title>
<polygon fill="#ffffff" stroke="#bfbfbf" points="284.7217,-55.5 284.7217,-73.5 352.9629,-73.5 352.9629,-55.5 284.7217,-55.5"/>
<text text-anchor="middle" x="318.8423" y="-61.5" font-family="Helvetica,sans-Serif" font-size="10.00" fill="#000000">sys/select.h</text>
</g>
<!-- Node19&#45;&gt;Node22 -->
<g id="edge29" class="edge">
<title>Node19&#45;&gt;Node22</title>
<path fill="none" stroke="#191970" d="M819.2626,-111.6462C816.4313,-111.0237 813.5896,-110.4593 810.8423,-110 616.6654,-77.5336 561.6463,-102.7946 363.2049,-74.0026"/>
<polygon fill="#191970" stroke="#191970" points="363.4353,-70.4987 353.0308,-72.4977 362.411,-77.4234 363.4353,-70.4987"/>
</g>
<!-- Node23 -->
<g id="node23" class="node">
<title>Node23</title>
<polygon fill="#ffffff" stroke="#bfbfbf" points="371.3325,-55.5 371.3325,-73.5 442.3521,-73.5 442.3521,-55.5 371.3325,-55.5"/>
<text text-anchor="middle" x="406.8423" y="-61.5" font-family="Helvetica,sans-Serif" font-size="10.00" fill="#000000">sys/socket.h</text>
</g>
<!-- Node19&#45;&gt;Node23 -->
<g id="edge30" class="edge">
<title>Node19&#45;&gt;Node23</title>
<path fill="none" stroke="#191970" d="M819.2527,-111.7035C816.4234,-111.0694 813.5849,-110.4867 810.8423,-110 656.1914,-82.5549 612.0982,-97.9346 452.7988,-73.9788"/>
<polygon fill="#191970" stroke="#191970" points="453.0543,-70.4772 442.6394,-72.4217 451.9937,-77.3964 453.0543,-70.4772"/>
</g>
<!-- Node24 -->
<g id="node24" class="node">
<title>Node24</title>
<polygon fill="#ffffff" stroke="#bfbfbf" points="460.8325,-55.5 460.8325,-73.5 526.8521,-73.5 526.8521,-55.5 460.8325,-55.5"/>
<text text-anchor="middle" x="493.8423" y="-61.5" font-family="Helvetica,sans-Serif" font-size="10.00" fill="#000000">sys/types.h</text>
</g>
<!-- Node19&#45;&gt;Node24 -->
<g id="edge31" class="edge">
<title>Node19&#45;&gt;Node24</title>
<path fill="none" stroke="#191970" d="M819.2366,-111.7903C816.4106,-111.1386 813.5772,-110.5281 810.8423,-110 693.0041,-87.2459 658.9779,-95.1686 537.3353,-74.1248"/>
<polygon fill="#191970" stroke="#191970" points="537.7119,-70.6373 527.2564,-72.3502 536.498,-77.5313 537.7119,-70.6373"/>
</g>
<!-- Node25 -->
<g id="node25" class="node">
<title>Node25</title>
<polygon fill="#ffffff" stroke="#bfbfbf" points="544.8325,-55.5 544.8325,-73.5 590.8521,-73.5 590.8521,-55.5 544.8325,-55.5"/>
<text text-anchor="middle" x="567.8423" y="-61.5" font-family="Helvetica,sans-Serif" font-size="10.00" fill="#000000">net/if.h</text>
</g>
<!-- Node19&#45;&gt;Node25 -->
<g id="edge32" class="edge">
<title>Node19&#45;&gt;Node25</title>
<path fill="none" stroke="#191970" d="M819.2141,-111.9014C816.3926,-111.2272 813.5664,-110.5811 810.8423,-110 720.8917,-90.8128 694.2514,-95.2437 601.0213,-74.0536"/>
<polygon fill="#191970" stroke="#191970" points="601.7063,-70.6198 591.1749,-71.7778 600.1298,-77.4399 601.7063,-70.6198"/>
</g>
<!-- Node26 -->
<g id="node26" class="node">
<title>Node26</title>
<polygon fill="#ffffff" stroke="#bfbfbf" points="608.3794,-55.5 608.3794,-73.5 673.3052,-73.5 673.3052,-55.5 608.3794,-55.5"/>
<text text-anchor="middle" x="640.8423" y="-61.5" font-family="Helvetica,sans-Serif" font-size="10.00" fill="#000000">netinet/in.h</text>
</g>
<!-- Node19&#45;&gt;Node26 -->
<g id="edge33" class="edge">
<title>Node19&#45;&gt;Node26</title>
<path fill="none" stroke="#191970" d="M819.0598,-111.8525C783.8305,-102.492 723.8713,-86.5608 683.3321,-75.7896"/>
<polygon fill="#191970" stroke="#191970" points="684.0342,-72.3547 673.4708,-73.1694 682.2366,-79.12 684.0342,-72.3547"/>
</g>
<!-- Node27 -->
<g id="node27" class="node">
<title>Node27</title>
<polygon fill="#ffffff" stroke="#bfbfbf" points="691.6011,-55.5 691.6011,-73.5 762.0835,-73.5 762.0835,-55.5 691.6011,-55.5"/>
<text text-anchor="middle" x="726.8423" y="-61.5" font-family="Helvetica,sans-Serif" font-size="10.00" fill="#000000">netinet/tcp.h</text>
</g>
<!-- Node19&#45;&gt;Node27 -->
<g id="edge34" class="edge">
<title>Node19&#45;&gt;Node27</title>
<path fill="none" stroke="#191970" d="M827.8616,-110.4179C808.3322,-101.5409 778.3778,-87.9253 756.1528,-77.823"/>
<polygon fill="#191970" stroke="#191970" points="757.4047,-74.5474 746.8527,-73.5956 754.508,-80.92 757.4047,-74.5474"/>
</g>
<!-- Node28 -->
<g id="node28" class="node">
<title>Node28</title>
<polygon fill="#ffffff" stroke="#bfbfbf" points="780.2144,-55.5 780.2144,-73.5 843.4702,-73.5 843.4702,-55.5 780.2144,-55.5"/>
<text text-anchor="middle" x="811.8423" y="-61.5" font-family="Helvetica,sans-Serif" font-size="10.00" fill="#000000">arpa/inet.h</text>
</g>
<!-- Node19&#45;&gt;Node28 -->
<g id="edge35" class="edge">
<title>Node19&#45;&gt;Node28</title>
<path fill="none" stroke="#191970" d="M841.8976,-110.4179C836.9249,-102.8207 829.6804,-91.7527 823.5499,-82.3866"/>
<polygon fill="#191970" stroke="#191970" points="826.3212,-80.2297 817.9161,-73.7795 820.4643,-84.0633 826.3212,-80.2297"/>
</g>
<!-- Node29 -->
<g id="node29" class="node">
<title>Node29</title>
<polygon fill="#ffffff" stroke="#bfbfbf" points="861.665,-55.5 861.665,-73.5 916.0195,-73.5 916.0195,-55.5 861.665,-55.5"/>
<text text-anchor="middle" x="888.8423" y="-61.5" font-family="Helvetica,sans-Serif" font-size="10.00" fill="#000000">ifaddrs.h</text>
</g>
<!-- Node19&#45;&gt;Node29 -->
<g id="edge36" class="edge">
<title>Node19&#45;&gt;Node29</title>
<path fill="none" stroke="#191970" d="M854.6126,-110.4179C860.394,-102.6624 868.8716,-91.29 875.9433,-81.8035"/>
<polygon fill="#191970" stroke="#191970" points="878.7543,-83.8888 881.9249,-73.7795 873.1421,-79.7051 878.7543,-83.8888"/>
</g>
<!-- Node30 -->
<g id="node30" class="node">
<title>Node30</title>
<polygon fill="#ffffff" stroke="#bfbfbf" points="934.2856,-55.5 934.2856,-73.5 981.3989,-73.5 981.3989,-55.5 934.2856,-55.5"/>
<text text-anchor="middle" x="957.8423" y="-61.5" font-family="Helvetica,sans-Serif" font-size="10.00" fill="#000000">limits.h</text>
</g>
<!-- Node19&#45;&gt;Node30 -->
<g id="edge37" class="edge">
<title>Node19&#45;&gt;Node30</title>
<path fill="none" stroke="#191970" d="M866.0065,-110.4179C883.6013,-101.6205 910.5041,-88.1691 930.6511,-78.0956"/>
<polygon fill="#191970" stroke="#191970" points="932.272,-81.1983 939.651,-73.5956 929.1415,-74.9373 932.272,-81.1983"/>
</g>
<!-- Node31 -->
<g id="node31" class="node">
<title>Node31</title>
<polygon fill="#ffffff" stroke="#bfbfbf" points="999.1602,-55.5 999.1602,-73.5 1048.5244,-73.5 1048.5244,-55.5 999.1602,-55.5"/>
<text text-anchor="middle" x="1023.8423" y="-61.5" font-family="Helvetica,sans-Serif" font-size="10.00" fill="#000000">netdb.h</text>
</g>
<!-- Node19&#45;&gt;Node31 -->
<g id="edge38" class="edge">
<title>Node19&#45;&gt;Node31</title>
<path fill="none" stroke="#191970" d="M876.5114,-110.5409C907.319,-100.9135 956.2859,-85.6114 989.2206,-75.3193"/>
<polygon fill="#191970" stroke="#191970" points="990.3884,-78.6213 998.8892,-72.2978 988.3004,-71.94 990.3884,-78.6213"/>
</g>
<!-- Node32 -->
<g id="node32" class="node">
<title>Node32</title>
<polygon fill="#ffffff" stroke="#bfbfbf" points="1066.3301,-55.5 1066.3301,-73.5 1117.3545,-73.5 1117.3545,-55.5 1066.3301,-55.5"/>
<text text-anchor="middle" x="1091.8423" y="-61.5" font-family="Helvetica,sans-Serif" font-size="10.00" fill="#000000">unistd.h</text>
</g>
<!-- Node19&#45;&gt;Node32 -->
<g id="edge39" class="edge">
<title>Node19&#45;&gt;Node32</title>
<path fill="none" stroke="#191970" d="M876.5189,-113.1431C881.3012,-112.0891 886.2112,-111.0107 890.8423,-110 961.9807,-94.4742 982.4743,-92.3791 1056.47,-74.2415"/>
<polygon fill="#191970" stroke="#191970" points="1057.396,-77.6181 1066.2661,-71.824 1055.7188,-70.822 1057.396,-77.6181"/>
</g>
<!-- Node33 -->
<g id="node33" class="node">
<title>Node33</title>
<polygon fill="#ffffff" stroke="#bfbfbf" points="1135,-55.5 1135,-73.5 1182.6846,-73.5 1182.6846,-55.5 1135,-55.5"/>
<text text-anchor="middle" x="1158.8423" y="-61.5" font-family="Helvetica,sans-Serif" font-size="10.00" fill="#000000">errno.h</text>
</g>
<!-- Node19&#45;&gt;Node33 -->
<g id="edge40" class="edge">
<title>Node19&#45;&gt;Node33</title>
<path fill="none" stroke="#191970" d="M876.4695,-112.8992C881.2577,-111.8745 886.1826,-110.8692 890.8423,-110 991.9879,-91.1338 1021.5227,-96.7765 1124.9185,-74.213"/>
<polygon fill="#191970" stroke="#191970" points="1125.8179,-77.5986 1134.8224,-72.0157 1124.3017,-70.7648 1125.8179,-77.5986"/>
</g>
<!-- Node34&#45;&gt;Node3 -->
<g id="edge53" class="edge">
<title>Node34&#45;&gt;Node3</title>
<path fill="none" stroke="#191970" d="M1247.4462,-221.2774C1249.2691,-220.8332 1251.078,-220.404 1252.8423,-220 1334.4936,-201.3034 1374.1609,-238.4167 1437.8423,-184 1483.414,-145.0583 1482.4259,-65.5785 1479.1893,-28.8734"/>
<polygon fill="#191970" stroke="#191970" points="1482.6328,-28.1484 1478.1157,-18.5648 1475.6705,-28.8736 1482.6328,-28.1484"/>
</g>
<!-- Node34&#45;&gt;Node6 -->
<g id="edge54" class="edge">
<title>Node34&#45;&gt;Node6</title>
<path fill="none" stroke="#191970" d="M1226.0895,-220.4179C1234.2278,-212.425 1246.2776,-200.5903 1256.1057,-190.9377"/>
<polygon fill="#191970" stroke="#191970" points="1258.7121,-193.2836 1263.3941,-183.7795 1253.8071,-188.2895 1258.7121,-193.2836"/>
</g>
<!-- Node34&#45;&gt;Node13 -->
<g id="edge58" class="edge">
<title>Node34&#45;&gt;Node13</title>
<path fill="none" stroke="#191970" d="M1186.0483,-226.0919C1129.5588,-219.6516 1005.4022,-204.6236 890.7979,-184.0445"/>
<polygon fill="#191970" stroke="#191970" points="891.2678,-180.5727 880.8035,-182.2311 890.018,-187.4602 891.2678,-180.5727"/>
</g>
<!-- Node34&#45;&gt;Node14 -->
<g id="edge47" class="edge">
<title>Node34&#45;&gt;Node14</title>
<path fill="none" stroke="#191970" d="M1186.0556,-223.0166C1151.4438,-215.03 1098.534,-200.4793 1086.8423,-184 1081.956,-177.1129 1082.435,-172.2031 1086.8423,-165 1093.2615,-154.5088 1119.859,-141.6856 1142.3208,-132.3296"/>
<polygon fill="#191970" stroke="#191970" points="1143.6768,-135.5566 1151.6231,-128.549 1141.0412,-129.0717 1143.6768,-135.5566"/>
</g>
<!-- Node34&#45;&gt;Node15 -->
<g id="edge55" class="edge">
<title>Node34&#45;&gt;Node15</title>
<path fill="none" stroke="#191970" d="M1247.4971,-227.0063C1298.5541,-222.1712 1397.6137,-209.6617 1419.8423,-184 1430.4029,-171.8084 1430.6885,-152.9975 1428.9038,-138.8304"/>
<polygon fill="#191970" stroke="#191970" points="1432.3055,-137.955 1427.1854,-128.6795 1425.4037,-139.1234 1432.3055,-137.955"/>
</g>
<!-- Node35 -->
<g id="node35" class="node">
<title>Node35</title>
<g id="a_node35"><a xlink:href="endian_8h.html" target="_top" xlink:title="compat/endian.h">
<polygon fill="#ffffff" stroke="#000000" points="1536.8721,-110.5 1536.8721,-128.5 1626.8125,-128.5 1626.8125,-110.5 1536.8721,-110.5"/>
<text text-anchor="middle" x="1581.8423" y="-116.5" font-family="Helvetica,sans-Serif" font-size="10.00" fill="#000000">compat/endian.h</text>
</a>
</g>
</g>
<!-- Node34&#45;&gt;Node35 -->
<g id="edge42" class="edge">
<title>Node34&#45;&gt;Node35</title>
<path fill="none" stroke="#191970" d="M1247.7397,-226.1384C1309.7453,-219.1049 1447.1448,-201.9917 1490.8423,-184 1519.1566,-172.3421 1547.2114,-150.4775 1564.5247,-135.4629"/>
<polygon fill="#191970" stroke="#191970" points="1566.9655,-137.9762 1572.1152,-128.7171 1562.3154,-132.7439 1566.9655,-137.9762"/>
</g>
<!-- Node37 -->
<g id="node37" class="node">
<title>Node37</title>
<polygon fill="#ffffff" stroke="#bfbfbf" points="1075.2783,-110.5 1075.2783,-128.5 1132.4063,-128.5 1132.4063,-110.5 1075.2783,-110.5"/>
<text text-anchor="middle" x="1103.8423" y="-116.5" font-family="Helvetica,sans-Serif" font-size="10.00" fill="#000000">algorithm</text>
</g>
<!-- Node34&#45;&gt;Node37 -->
<g id="edge46" class="edge">
<title>Node34&#45;&gt;Node37</title>
<path fill="none" stroke="#191970" d="M1186.2281,-227.9431C1130.5169,-224.4004 1016.0665,-213.6132 991.8423,-184 986.4956,-177.4638 987.1269,-172.0053 991.8423,-165 1000.4912,-152.151 1036.3973,-138.9935 1065.2552,-130.1543"/>
<polygon fill="#191970" stroke="#191970" points="1066.5292,-133.4268 1075.1124,-127.2155 1064.5292,-126.7186 1066.5292,-133.4268"/>
</g>
<!-- Node38 -->
<g id="node38" class="node">
<title>Node38</title>
<polygon fill="#ffffff" stroke="#bfbfbf" points="1095.3423,-165.5 1095.3423,-183.5 1124.3423,-183.5 1124.3423,-165.5 1095.3423,-165.5"/>
<text text-anchor="middle" x="1109.7339" y="-171.5" font-family="Helvetica,sans-Serif" font-size="10.00" fill="#000000">ios</text>
</g>
<!-- Node34&#45;&gt;Node38 -->
<g id="edge48" class="edge">
<title>Node34&#45;&gt;Node38</title>
<path fill="none" stroke="#191970" d="M1199.1734,-220.4179C1181.2178,-211.1883 1153.2966,-196.8363 1133.4532,-186.6365"/>
<polygon fill="#191970" stroke="#191970" points="1134.9339,-183.4623 1124.4399,-182.0035 1131.7337,-189.688 1134.9339,-183.4623"/>
</g>
<!-- Node39 -->
<g id="node39" class="node">
<title>Node39</title>
<polygon fill="#ffffff" stroke="#bfbfbf" points="1142.4556,-165.5 1142.4556,-183.5 1181.229,-183.5 1181.229,-165.5 1142.4556,-165.5"/>
<text text-anchor="middle" x="1161.8423" y="-171.5" font-family="Helvetica,sans-Serif" font-size="10.00" fill="#000000">limits</text>
</g>
<!-- Node34&#45;&gt;Node39 -->
<g id="edge49" class="edge">
<title>Node34&#45;&gt;Node39</title>
<path fill="none" stroke="#191970" d="M1207.7602,-220.4179C1199.7673,-212.425 1187.9326,-200.5903 1178.28,-190.9377"/>
<polygon fill="#191970" stroke="#191970" points="1180.6677,-188.3757 1171.1217,-183.7795 1175.718,-193.3254 1180.6677,-188.3757"/>
</g>
<!-- Node40 -->
<g id="node40" class="node">
<title>Node40</title>
<polygon fill="#ffffff" stroke="#bfbfbf" points="1199.1157,-165.5 1199.1157,-183.5 1234.5688,-183.5 1234.5688,-165.5 1199.1157,-165.5"/>
<text text-anchor="middle" x="1216.8423" y="-171.5" font-family="Helvetica,sans-Serif" font-size="10.00" fill="#000000">map</text>
</g>
<!-- Node34&#45;&gt;Node40 -->
<g id="edge50" class="edge">
<title>Node34&#45;&gt;Node40</title>
<path fill="none" stroke="#191970" d="M1216.8423,-220.4179C1216.8423,-213.2164 1216.8423,-202.8962 1216.8423,-193.8632"/>
<polygon fill="#191970" stroke="#191970" points="1220.3424,-193.7794 1216.8423,-183.7795 1213.3424,-193.7795 1220.3424,-193.7794"/>
</g>
<!-- Node41 -->
<g id="node41" class="node">
<title>Node41</title>
<polygon fill="#ffffff" stroke="#bfbfbf" points="1310.7856,-165.5 1310.7856,-183.5 1362.8989,-183.5 1362.8989,-165.5 1310.7856,-165.5"/>
<text text-anchor="middle" x="1336.8423" y="-171.5" font-family="Helvetica,sans-Serif" font-size="10.00" fill="#000000">memory</text>
</g>
<!-- Node34&#45;&gt;Node41 -->
<g id="edge51" class="edge">
<title>Node34&#45;&gt;Node41</title>
<path fill="none" stroke="#191970" d="M1236.6578,-220.4179C1256.0258,-211.5409 1285.7326,-197.9253 1307.774,-187.823"/>
<polygon fill="#191970" stroke="#191970" points="1309.3649,-190.944 1316.9973,-183.5956 1306.4483,-184.5805 1309.3649,-190.944"/>
</g>
<!-- Node42 -->
<g id="node42" class="node">
<title>Node42</title>
<polygon fill="#ffffff" stroke="#bfbfbf" points="1381.1724,-165.5 1381.1724,-183.5 1410.5122,-183.5 1410.5122,-165.5 1381.1724,-165.5"/>
<text text-anchor="middle" x="1395.8423" y="-171.5" font-family="Helvetica,sans-Serif" font-size="10.00" fill="#000000">set</text>
</g>
<!-- Node34&#45;&gt;Node42 -->
<g id="edge52" class="edge">
<title>Node34&#45;&gt;Node42</title>
<path fill="none" stroke="#191970" d="M1247.3955,-221.4191C1276.8802,-213.427 1322.9301,-200.4376 1371.2517,-183.9795"/>
<polygon fill="#191970" stroke="#191970" points="1372.6268,-187.2077 1380.942,-180.6421 1370.3473,-180.5892 1372.6268,-187.2077"/>
</g>
<!-- Node43 -->
<g id="node43" class="node">
<title>Node43</title>
<polygon fill="#ffffff" stroke="#bfbfbf" points="1000.4507,-165.5 1000.4507,-183.5 1039.2339,-183.5 1039.2339,-165.5 1000.4507,-165.5"/>
<text text-anchor="middle" x="1019.8423" y="-171.5" font-family="Helvetica,sans-Serif" font-size="10.00" fill="#000000">utility</text>
</g>
<!-- Node34&#45;&gt;Node43 -->
<g id="edge56" class="edge">
<title>Node34&#45;&gt;Node43</title>
<path fill="none" stroke="#191970" d="M1186.2895,-221.1184C1153.3338,-212.0554 1099.3314,-197.1402 1052.8423,-184 1051.616,-183.6534 1050.3644,-183.2984 1049.1003,-182.9389"/>
<polygon fill="#191970" stroke="#191970" points="1049.954,-179.5428 1039.377,-180.1574 1048.0287,-186.2729 1049.954,-179.5428"/>
</g>
<!-- Node34&#45;&gt;Node44 -->
<g id="edge57" class="edge">
<title>Node34&#45;&gt;Node44</title>
<path fill="none" stroke="#191970" d="M1247.5993,-226.1853C1303.7909,-219.8704 1426.6712,-204.8611 1528.8423,-184 1530.1248,-183.7381 1531.4296,-183.4583 1532.7453,-183.1649"/>
<polygon fill="#191970" stroke="#191970" points="1533.9511,-186.4744 1542.8505,-180.7254 1532.3084,-179.6699 1533.9511,-186.4744"/>
</g>
<!-- Node45 -->
<g id="node45" class="node">
<title>Node45</title>
<g id="a_node45"><a xlink:href="span_8h.html" target="_top" xlink:title="span.h">
<polygon fill="#ffffff" stroke="#000000" points="898.8301,-165.5 898.8301,-183.5 944.8545,-183.5 944.8545,-165.5 898.8301,-165.5"/>
<text text-anchor="middle" x="921.8423" y="-171.5" font-family="Helvetica,sans-Serif" font-size="10.00" fill="#000000">span.h</text>
</a>
</g>
</g>
<!-- Node34&#45;&gt;Node45 -->
<g id="edge59" class="edge">
<title>Node34&#45;&gt;Node45</title>
<path fill="none" stroke="#191970" d="M1186.113,-224.8632C1137.6072,-217.3684 1040.4182,-201.6386 958.8423,-184 957.5661,-183.7241 956.2674,-183.4344 954.9571,-183.1347"/>
<polygon fill="#191970" stroke="#191970" points="955.4116,-179.6441 944.8699,-180.7038 953.7716,-186.4493 955.4116,-179.6441"/>
</g>
<!-- Node35&#45;&gt;Node3 -->
<g id="edge45" class="edge">
<title>Node35&#45;&gt;Node3</title>
<path fill="none" stroke="#191970" d="M1593.0709,-110.2662C1607.4631,-97.3001 1629.0663,-73.2433 1615.8423,-55 1603.3783,-37.8053 1547.8569,-23.6549 1510.868,-15.9117"/>
<polygon fill="#191970" stroke="#191970" points="1511.4748,-12.4636 1500.9779,-13.9005 1510.0798,-19.3232 1511.4748,-12.4636"/>
</g>
<!-- Node36 -->
<g id="node36" class="node">
<title>Node36</title>
<g id="a_node36"><a xlink:href="byteswap_8h.html" target="_top" xlink:title="compat/byteswap.h">
<polygon fill="#ffffff" stroke="#000000" points="1504.7637,-55.5 1504.7637,-73.5 1606.9209,-73.5 1606.9209,-55.5 1504.7637,-55.5"/>
<text text-anchor="middle" x="1555.8423" y="-61.5" font-family="Helvetica,sans-Serif" font-size="10.00" fill="#000000">compat/byteswap.h</text>
</a>
</g>
</g>
<!-- Node35&#45;&gt;Node36 -->
<g id="edge43" class="edge">
<title>Node35&#45;&gt;Node36</title>
<path fill="none" stroke="#191970" d="M1577.5489,-110.4179C1574.0323,-102.9789 1568.9427,-92.2123 1564.5755,-82.9742"/>
<polygon fill="#191970" stroke="#191970" points="1567.667,-81.3243 1560.2289,-73.7795 1561.3385,-84.316 1567.667,-81.3243"/>
</g>
<!-- Node36&#45;&gt;Node3 -->
<g id="edge44" class="edge">
<title>Node36&#45;&gt;Node3</title>
<path fill="none" stroke="#191970" d="M1542.797,-55.4179C1530.6754,-46.9788 1512.4023,-34.257 1498.1616,-24.3426"/>
<polygon fill="#191970" stroke="#191970" points="1500.1137,-21.4369 1489.9069,-18.5956 1496.1141,-27.1818 1500.1137,-21.4369"/>
</g>
<!-- Node45&#45;&gt;Node16 -->
<g id="edge61" class="edge">
<title>Node45&#45;&gt;Node16</title>
<path fill="none" stroke="#191970" d="M933.8968,-165.4179C944.9256,-157.1084 961.4655,-144.6469 974.533,-134.8015"/>
<polygon fill="#191970" stroke="#191970" points="976.6452,-137.5924 982.5259,-128.7795 972.4329,-132.0016 976.6452,-137.5924"/>
</g>
<!-- Node45&#45;&gt;Node18 -->
<g id="edge60" class="edge">
<title>Node45&#45;&gt;Node18</title>
<path fill="none" stroke="#191970" d="M943.9326,-165.4582C965.4905,-156.5311 999.1413,-142.3214 1027.8423,-129 1044.9697,-121.0504 1047.7874,-115.5286 1065.8423,-110 1180.1875,-74.9865 1217.1019,-95.0906 1338.4187,-74.0735"/>
<polygon fill="#191970" stroke="#191970" points="1339.2379,-77.4825 1348.4638,-72.2736 1338.0033,-70.5922 1339.2379,-77.4825"/>
</g>
<!-- Node45&#45;&gt;Node37 -->
<g id="edge62" class="edge">
<title>Node45&#45;&gt;Node37</title>
<path fill="none" stroke="#191970" d="M944.8927,-167.5342C975.144,-158.3923 1028.6715,-142.2165 1065.1767,-131.1847"/>
<polygon fill="#191970" stroke="#191970" points="1066.4282,-134.4629 1074.9881,-128.2197 1064.4032,-127.7621 1066.4282,-134.4629"/>
</g>
<!-- Node46&#45;&gt;Node3 -->
<g id="edge67" class="edge">
<title>Node46&#45;&gt;Node3</title>
<path fill="none" stroke="#191970" d="M1646.7581,-226.8733C1694.8839,-221.8373 1788.0962,-209.0331 1807.8423,-184 1813.0721,-177.3699 1811.7063,-172.5085 1807.8423,-165 1750.2463,-53.0802 1583.3502,-21.2489 1510.9824,-12.583"/>
<polygon fill="#191970" stroke="#191970" points="1511.343,-9.1016 1501.0153,-11.4658 1510.5632,-16.058 1511.343,-9.1016"/>
</g>
<!-- Node46&#45;&gt;Node6 -->
<g id="edge68" class="edge">
<title>Node46&#45;&gt;Node6</title>
<path fill="none" stroke="#191970" d="M1589.2078,-227.0564C1535.0084,-222.0736 1413.6602,-209.2121 1303.2748,-184.0089"/>
<polygon fill="#191970" stroke="#191970" points="1303.8451,-180.5482 1293.3123,-181.6931 1302.2601,-187.3664 1303.8451,-180.5482"/>
</g>
<!-- Node46&#45;&gt;Node14 -->
<g id="edge64" class="edge">
<title>Node46&#45;&gt;Node14</title>
<path fill="none" stroke="#191970" d="M1617.6336,-220.292C1616.7677,-205.973 1612.8381,-178.6038 1595.8423,-165 1566.1083,-141.2002 1308.1234,-126.0674 1211.8593,-121.2054"/>
<polygon fill="#191970" stroke="#191970" points="1211.8971,-117.7031 1201.7356,-120.702 1211.5494,-124.6945 1211.8971,-117.7031"/>
</g>
<!-- Node46&#45;&gt;Node44 -->
<g id="edge69" class="edge">
<title>Node46&#45;&gt;Node44</title>
<path fill="none" stroke="#191970" d="M1609.0904,-220.4179C1601.4644,-212.5041 1590.2093,-200.8243 1580.9592,-191.2251"/>
<polygon fill="#191970" stroke="#191970" points="1583.2436,-188.5516 1573.7843,-183.7795 1578.203,-193.4089 1583.2436,-188.5516"/>
</g>
<!-- Node47 -->
<g id="node47" class="node">
<title>Node47</title>
<polygon fill="#ffffff" stroke="#bfbfbf" points="1753.1157,-165.5 1753.1157,-183.5 1798.5688,-183.5 1798.5688,-165.5 1753.1157,-165.5"/>
<text text-anchor="middle" x="1775.8423" y="-171.5" font-family="Helvetica,sans-Serif" font-size="10.00" fill="#000000">cstring</text>
</g>
<!-- Node46&#45;&gt;Node47 -->
<g id="edge65" class="edge">
<title>Node46&#45;&gt;Node47</title>
<path fill="none" stroke="#191970" d="M1643.9328,-220.4179C1671.1393,-210.9472 1713.8403,-196.083 1743.249,-185.8458"/>
<polygon fill="#191970" stroke="#191970" points="1744.7561,-189.0272 1753.0496,-182.4342 1742.4548,-182.4163 1744.7561,-189.0272"/>
</g>
<!-- Node46&#45;&gt;Node48 -->
<g id="edge66" class="edge">
<title>Node46&#45;&gt;Node48</title>
<path fill="none" stroke="#191970" d="M1646.7402,-223.7589C1689.2871,-215.271 1771.272,-198.7815 1840.8423,-184 1841.9266,-183.7696 1843.0261,-183.5348 1844.1355,-183.2969"/>
<polygon fill="#191970" stroke="#191970" points="1845.2167,-186.6439 1854.2478,-181.1042 1843.7332,-179.8029 1845.2167,-186.6439"/>
</g>
<!-- Node49 -->
<g id="node49" class="node">
<title>Node49</title>
<g id="a_node49"><a xlink:href="common_8h.html" target="_top" xlink:title="crypto/common.h">
<polygon fill="#ffffff" stroke="#000000" points="1642.4951,-165.5 1642.4951,-183.5 1735.1895,-183.5 1735.1895,-165.5 1642.4951,-165.5"/>
<text text-anchor="middle" x="1688.8423" y="-171.5" font-family="Helvetica,sans-Serif" font-size="10.00" fill="#000000">crypto/common.h</text>
</a>
</g>
</g>
<!-- Node46&#45;&gt;Node49 -->
<g id="edge70" class="edge">
<title>Node46&#45;&gt;Node49</title>
<path fill="none" stroke="#191970" d="M1629.5665,-220.4179C1640.1911,-212.1876 1656.074,-199.8839 1668.7253,-190.0836"/>
<polygon fill="#191970" stroke="#191970" points="1671.1012,-192.6704 1676.8634,-183.7795 1666.8144,-187.1365 1671.1012,-192.6704"/>
</g>
<!-- Node49&#45;&gt;Node3 -->
<g id="edge71" class="edge">
<title>Node49&#45;&gt;Node3</title>
<path fill="none" stroke="#191970" d="M1687.1604,-165.4755C1682.5384,-143.2375 1667.5359,-85.4093 1631.8423,-55 1613.6275,-39.4818 1550.8243,-24.4348 1510.9699,-16.126"/>
<polygon fill="#191970" stroke="#191970" points="1511.6268,-12.688 1501.1284,-14.1135 1510.2244,-19.5461 1511.6268,-12.688"/>
</g>
<!-- Node49&#45;&gt;Node15 -->
<g id="edge72" class="edge">
<title>Node49&#45;&gt;Node15</title>
<path fill="none" stroke="#191970" d="M1645.5437,-165.4795C1593.4841,-154.6337 1507.1645,-136.6505 1459.3653,-126.6923"/>
<polygon fill="#191970" stroke="#191970" points="1459.9981,-123.249 1449.4944,-124.6359 1458.5703,-130.1019 1459.9981,-123.249"/>
</g>
<!-- Node49&#45;&gt;Node35 -->
<g id="edge73" class="edge">
<title>Node49&#45;&gt;Node35</title>
<path fill="none" stroke="#191970" d="M1671.1734,-165.4179C1654.136,-156.6603 1628.1261,-143.2907 1608.5583,-133.2326"/>
<polygon fill="#191970" stroke="#191970" points="1610.0313,-130.0544 1599.5374,-128.5956 1606.8312,-136.2801 1610.0313,-130.0544"/>
</g>
</g>
</svg>
