<?xml version="1.0" encoding="UTF-8" standalone="no"?>
<!DOCTYPE svg PUBLIC "-//W3C//DTD SVG 1.1//EN"
 "http://www.w3.org/Graphics/SVG/1.1/DTD/svg11.dtd">
<!-- Generated by graphviz version 2.40.1 (20161225.0304)
 -->
<!-- Title: ConstructTransaction Pages: 1 -->
<svg width="274pt" height="64pt"
 viewBox="0.00 0.00 273.52 64.00" xmlns="http://www.w3.org/2000/svg" xmlns:xlink="http://www.w3.org/1999/xlink">
<g id="graph0" class="graph" transform="scale(1 1) rotate(0) translate(4 60)">
<title>ConstructTransaction</title>
<polygon fill="#ffffff" stroke="transparent" points="-4,4 -4,-60 269.5195,-60 269.5195,4 -4,4"/>
<!-- Node23 -->
<g id="node1" class="node">
<title>Node23</title>
<polygon fill="#bfbfbf" stroke="#000000" points="0,-18.5 0,-36.5 110.6729,-36.5 110.6729,-18.5 0,-18.5"/>
<text text-anchor="middle" x="55.3364" y="-24.5" font-family="Helvetica,sans-Serif" font-size="10.00" fill="#000000">ConstructTransaction</text>
</g>
<!-- Node24 -->
<g id="node2" class="node">
<title>Node24</title>
<g id="a_node2"><a xlink:href="rawtransaction_8cpp.html#ab96b0b3cf82a8f50975ee74c26c4dbf8" target="_top" xlink:title="createpsbt">
<polygon fill="#ffffff" stroke="#000000" points="174.749,-37.5 174.749,-55.5 237.4434,-55.5 237.4434,-37.5 174.749,-37.5"/>
<text text-anchor="middle" x="206.0962" y="-43.5" font-family="Helvetica,sans-Serif" font-size="10.00" fill="#000000">createpsbt</text>
</a>
</g>
</g>
<!-- Node23&#45;&gt;Node24 -->
<g id="edge1" class="edge">
<title>Node23&#45;&gt;Node24</title>
<path fill="none" stroke="#191970" d="M120.9916,-35.7744C139.634,-38.1239 159.0833,-40.575 174.6755,-42.5401"/>
<polygon fill="#191970" stroke="#191970" points="121.4047,-32.2989 111.0455,-34.5209 120.5293,-39.2439 121.4047,-32.2989"/>
</g>
<!-- Node25 -->
<g id="node3" class="node">
<title>Node25</title>
<g id="a_node3"><a xlink:href="rpcwallet_8cpp.html#afca55ac7a3c6c274b8b7b3e6eab9cd86" target="_top" xlink:title="walletcreatefundedpsbt">
<polygon fill="#ffffff" stroke="#000000" points="146.6729,-.5 146.6729,-18.5 265.5195,-18.5 265.5195,-.5 146.6729,-.5"/>
<text text-anchor="middle" x="206.0962" y="-6.5" font-family="Helvetica,sans-Serif" font-size="10.00" fill="#000000">walletcreatefundedpsbt</text>
</a>
</g>
</g>
<!-- Node23&#45;&gt;Node25 -->
<g id="edge2" class="edge">
<title>Node23&#45;&gt;Node25</title>
<path fill="none" stroke="#191970" d="M121.2212,-19.6337C129.6527,-18.627 138.2452,-17.6011 146.5677,-16.6074"/>
<polygon fill="#191970" stroke="#191970" points="120.56,-16.1877 111.0455,-20.8486 121.3899,-23.1383 120.56,-16.1877"/>
</g>
</g>
</svg>
