<?xml version="1.0" encoding="UTF-8" standalone="no"?>
<!DOCTYPE svg PUBLIC "-//W3C//DTD SVG 1.1//EN"
 "http://www.w3.org/Graphics/SVG/1.1/DTD/svg11.dtd">
<!-- Generated by graphviz version 2.40.1 (20161225.0304)
 -->
<!-- Title: src/qt/receiverequestdialog.h Pages: 1 -->
<svg width="1781pt" height="532pt"
 viewBox="0.00 0.00 1780.50 532.00" xmlns="http://www.w3.org/2000/svg" xmlns:xlink="http://www.w3.org/1999/xlink">
<g id="graph0" class="graph" transform="scale(1 1) rotate(0) translate(4 528)">
<title>src/qt/receiverequestdialog.h</title>
<polygon fill="#ffffff" stroke="transparent" points="-4,4 -4,-528 1776.5,-528 1776.5,4 -4,4"/>
<!-- Node0 -->
<g id="node1" class="node">
<title>Node0</title>
<polygon fill="#bfbfbf" stroke="#000000" points="1293.5767,-505.5 1293.5767,-523.5 1437.4233,-523.5 1437.4233,-505.5 1293.5767,-505.5"/>
<text text-anchor="middle" x="1365.5" y="-511.5" font-family="Helvetica,sans-Serif" font-size="10.00" fill="#000000">src/qt/receiverequestdialog.h</text>
</g>
<!-- Node1 -->
<g id="node2" class="node">
<title>Node1</title>
<g id="a_node2"><a xlink:href="walletmodel_8h.html" target="_top" xlink:title="qt/walletmodel.h">
<polygon fill="#ffffff" stroke="#000000" points="1163.3696,-450.5 1163.3696,-468.5 1251.6304,-468.5 1251.6304,-450.5 1163.3696,-450.5"/>
<text text-anchor="middle" x="1207.5" y="-456.5" font-family="Helvetica,sans-Serif" font-size="10.00" fill="#000000">qt/walletmodel.h</text>
</a>
</g>
</g>
<!-- Node0&#45;&gt;Node1 -->
<g id="edge1" class="edge">
<title>Node0&#45;&gt;Node1</title>
<path fill="none" stroke="#191970" d="M1339.4095,-505.4179C1313.1438,-496.2748 1272.4368,-482.1046 1243.1909,-471.924"/>
<polygon fill="#191970" stroke="#191970" points="1243.9615,-468.4863 1233.3666,-468.5042 1241.6602,-475.0973 1243.9615,-468.4863"/>
</g>
<!-- Node75 -->
<g id="node47" class="node">
<title>Node75</title>
<polygon fill="#ffffff" stroke="#bfbfbf" points="1269.436,-450.5 1269.436,-468.5 1321.564,-468.5 1321.564,-450.5 1269.436,-450.5"/>
<text text-anchor="middle" x="1295.5" y="-456.5" font-family="Helvetica,sans-Serif" font-size="10.00" fill="#000000">QDialog</text>
</g>
<!-- Node0&#45;&gt;Node75 -->
<g id="edge107" class="edge">
<title>Node0&#45;&gt;Node75</title>
<path fill="none" stroke="#191970" d="M1353.9409,-505.4179C1343.466,-497.1876 1327.8068,-484.8839 1315.3336,-475.0836"/>
<polygon fill="#191970" stroke="#191970" points="1317.3358,-472.2056 1307.3102,-468.7795 1313.011,-477.7098 1317.3358,-472.2056"/>
</g>
<!-- Node76 -->
<g id="node48" class="node">
<title>Node76</title>
<polygon fill="#ffffff" stroke="#bfbfbf" points="1339.7144,-450.5 1339.7144,-468.5 1391.2856,-468.5 1391.2856,-450.5 1339.7144,-450.5"/>
<text text-anchor="middle" x="1365.5" y="-456.5" font-family="Helvetica,sans-Serif" font-size="10.00" fill="#000000">QImage</text>
</g>
<!-- Node0&#45;&gt;Node76 -->
<g id="edge108" class="edge">
<title>Node0&#45;&gt;Node76</title>
<path fill="none" stroke="#191970" d="M1365.5,-505.4179C1365.5,-498.2164 1365.5,-487.8962 1365.5,-478.8632"/>
<polygon fill="#191970" stroke="#191970" points="1369.0001,-478.7794 1365.5,-468.7795 1362.0001,-478.7795 1369.0001,-478.7794"/>
</g>
<!-- Node77 -->
<g id="node49" class="node">
<title>Node77</title>
<polygon fill="#ffffff" stroke="#bfbfbf" points="1409.377,-450.5 1409.377,-468.5 1457.623,-468.5 1457.623,-450.5 1409.377,-450.5"/>
<text text-anchor="middle" x="1433.5" y="-456.5" font-family="Helvetica,sans-Serif" font-size="10.00" fill="#000000">QLabel</text>
</g>
<!-- Node0&#45;&gt;Node77 -->
<g id="edge109" class="edge">
<title>Node0&#45;&gt;Node77</title>
<path fill="none" stroke="#191970" d="M1376.7288,-505.4179C1386.9045,-497.1876 1402.1163,-484.8839 1414.2331,-475.0836"/>
<polygon fill="#191970" stroke="#191970" points="1416.4531,-477.7895 1422.0272,-468.7795 1412.051,-472.3469 1416.4531,-477.7895"/>
</g>
<!-- Node78 -->
<g id="node50" class="node">
<title>Node78</title>
<polygon fill="#ffffff" stroke="#bfbfbf" points="1475.7686,-450.5 1475.7686,-468.5 1531.2314,-468.5 1531.2314,-450.5 1475.7686,-450.5"/>
<text text-anchor="middle" x="1503.5" y="-456.5" font-family="Helvetica,sans-Serif" font-size="10.00" fill="#000000">QPainter</text>
</g>
<!-- Node0&#45;&gt;Node78 -->
<g id="edge110" class="edge">
<title>Node0&#45;&gt;Node78</title>
<path fill="none" stroke="#191970" d="M1388.2879,-505.4179C1410.8607,-496.4215 1445.6452,-482.5581 1471.0897,-472.4172"/>
<polygon fill="#191970" stroke="#191970" points="1472.6847,-475.5493 1480.6783,-468.5956 1470.093,-469.0467 1472.6847,-475.5493"/>
</g>
<!-- Node2 -->
<g id="node3" class="node">
<title>Node2</title>
<g id="a_node3"><a xlink:href="amount_8h.html" target="_top" xlink:title="amount.h">
<polygon fill="#ffffff" stroke="#000000" points="1580.6528,-340.5 1580.6528,-358.5 1638.3472,-358.5 1638.3472,-340.5 1580.6528,-340.5"/>
<text text-anchor="middle" x="1609.5" y="-346.5" font-family="Helvetica,sans-Serif" font-size="10.00" fill="#000000">amount.h</text>
</a>
</g>
</g>
<!-- Node1&#45;&gt;Node2 -->
<g id="edge2" class="edge">
<title>Node1&#45;&gt;Node2</title>
<path fill="none" stroke="#191970" d="M1251.7082,-451.3318C1254.6798,-450.8581 1257.6311,-450.4089 1260.5,-450 1335.4989,-439.3101 1544.6613,-466.2669 1599.5,-414 1611.5273,-402.5368 1613.0577,-383.0457 1612.17,-368.4833"/>
<polygon fill="#191970" stroke="#191970" points="1615.6507,-368.1156 1611.1536,-358.5226 1608.6869,-368.8262 1615.6507,-368.1156"/>
</g>
<!-- Node4 -->
<g id="node5" class="node">
<title>Node4</title>
<g id="a_node5"><a xlink:href="key_8h.html" target="_top" xlink:title="key.h">
<polygon fill="#ffffff" stroke="#000000" points="656.918,-395.5 656.918,-413.5 696.082,-413.5 696.082,-395.5 656.918,-395.5"/>
<text text-anchor="middle" x="676.5" y="-401.5" font-family="Helvetica,sans-Serif" font-size="10.00" fill="#000000">key.h</text>
</a>
</g>
</g>
<!-- Node1&#45;&gt;Node4 -->
<g id="edge4" class="edge">
<title>Node1&#45;&gt;Node4</title>
<path fill="none" stroke="#191970" d="M1163.1406,-454.9053C1057.858,-444.0004 795.0918,-416.7835 706.3315,-407.5899"/>
<polygon fill="#191970" stroke="#191970" points="706.4648,-404.0851 696.1574,-406.5361 705.7435,-411.0478 706.4648,-404.0851"/>
</g>
<!-- Node38 -->
<g id="node16" class="node">
<title>Node38</title>
<g id="a_node16"><a xlink:href="serialize_8h.html" target="_top" xlink:title="serialize.h">
<polygon fill="#ffffff" stroke="#000000" points="327.9902,-220.5 327.9902,-238.5 389.0098,-238.5 389.0098,-220.5 327.9902,-220.5"/>
<text text-anchor="middle" x="358.5" y="-226.5" font-family="Helvetica,sans-Serif" font-size="10.00" fill="#000000">serialize.h</text>
</a>
</g>
</g>
<!-- Node1&#45;&gt;Node38 -->
<g id="edge67" class="edge">
<title>Node1&#45;&gt;Node38</title>
<path fill="none" stroke="#191970" d="M1163.1233,-458.7254C1007.852,-455.7668 494.734,-443.8096 427.5,-414 373.8607,-390.2178 363.2618,-362.0172 354.5,-304 351.6948,-285.4252 353.3519,-263.9856 355.3156,-248.8889"/>
<polygon fill="#191970" stroke="#191970" points="358.8168,-249.1358 356.8081,-238.7332 351.8912,-248.1179 358.8168,-249.1358"/>
</g>
<!-- Node44 -->
<g id="node22" class="node">
<title>Node44</title>
<polygon fill="#ffffff" stroke="#bfbfbf" points="971.7734,-165.5 971.7734,-183.5 1007.2266,-183.5 1007.2266,-165.5 971.7734,-165.5"/>
<text text-anchor="middle" x="989.5" y="-171.5" font-family="Helvetica,sans-Serif" font-size="10.00" fill="#000000">map</text>
</g>
<!-- Node1&#45;&gt;Node44 -->
<g id="edge104" class="edge">
<title>Node1&#45;&gt;Node44</title>
<path fill="none" stroke="#191970" d="M1175.7544,-450.461C1116.7408,-432.1564 989.3566,-385.3754 914.5,-304 887.6612,-274.824 862.7435,-253.1392 884.5,-220 893.4339,-206.392 933.9564,-191.5612 961.9645,-182.6493"/>
<polygon fill="#191970" stroke="#191970" points="963.1227,-185.9546 971.6354,-179.647 961.0473,-179.2694 963.1227,-185.9546"/>
</g>
<!-- Node48 -->
<g id="node27" class="node">
<title>Node48</title>
<polygon fill="#ffffff" stroke="#bfbfbf" points="659.8843,-165.5 659.8843,-183.5 703.1157,-183.5 703.1157,-165.5 659.8843,-165.5"/>
<text text-anchor="middle" x="681.5" y="-171.5" font-family="Helvetica,sans-Serif" font-size="10.00" fill="#000000">vector</text>
</g>
<!-- Node1&#45;&gt;Node48 -->
<g id="edge105" class="edge">
<title>Node1&#45;&gt;Node48</title>
<path fill="none" stroke="#191970" d="M1162.9899,-457.5058C1038.7854,-451.7143 694.432,-434.0285 647.5,-414 581.5296,-385.8468 548.7678,-344.7476 565.5,-275 571.8988,-248.327 574.1654,-239.4568 593.5,-220 609.3256,-204.0744 631.8931,-192.5596 650.212,-185.0982"/>
<polygon fill="#191970" stroke="#191970" points="651.5469,-188.3346 659.6135,-181.4659 649.0241,-181.805 651.5469,-188.3346"/>
</g>
<!-- Node55 -->
<g id="node33" class="node">
<title>Node55</title>
<g id="a_node33"><a xlink:href="secure_8h.html" target="_top" xlink:title="support/allocators\l/secure.h">
<polygon fill="#ffffff" stroke="#000000" points="990.0347,-275.5 990.0347,-303.5 1084.9653,-303.5 1084.9653,-275.5 990.0347,-275.5"/>
<text text-anchor="start" x="998.0347" y="-291.5" font-family="Helvetica,sans-Serif" font-size="10.00" fill="#000000">support/allocators</text>
<text text-anchor="middle" x="1037.5" y="-281.5" font-family="Helvetica,sans-Serif" font-size="10.00" fill="#000000">/secure.h</text>
</a>
</g>
</g>
<!-- Node1&#45;&gt;Node55 -->
<g id="edge103" class="edge">
<title>Node1&#45;&gt;Node55</title>
<path fill="none" stroke="#191970" d="M1191.5545,-450.4331C1164.8635,-434.6401 1110.6171,-399.8391 1075.5,-359 1063.6256,-345.1908 1053.8672,-327.069 1047.2134,-312.7924"/>
<polygon fill="#191970" stroke="#191970" points="1050.391,-311.3246 1043.115,-303.6233 1044.0004,-314.1811 1050.391,-311.3246"/>
</g>
<!-- Node61 -->
<g id="node36" class="node">
<title>Node61</title>
<g id="a_node36"><a xlink:href="standard_8h.html" target="_top" xlink:title="script/standard.h">
<polygon fill="#ffffff" stroke="#000000" points="1501.5371,-280.5 1501.5371,-298.5 1591.4629,-298.5 1591.4629,-280.5 1501.5371,-280.5"/>
<text text-anchor="middle" x="1546.5" y="-286.5" font-family="Helvetica,sans-Serif" font-size="10.00" fill="#000000">script/standard.h</text>
</a>
</g>
</g>
<!-- Node1&#45;&gt;Node61 -->
<g id="edge68" class="edge">
<title>Node1&#45;&gt;Node61</title>
<path fill="none" stroke="#191970" d="M1241.0648,-450.4485C1317.3218,-429.6368 1498.641,-378.6648 1519.5,-359 1533.5973,-345.7098 1540.4397,-324.2033 1543.6916,-308.6309"/>
<polygon fill="#191970" stroke="#191970" points="1547.1806,-308.9998 1545.4774,-298.5428 1540.2878,-307.7796 1547.1806,-308.9998"/>
</g>
<!-- Node68 -->
<g id="node40" class="node">
<title>Node68</title>
<g id="a_node40"><a xlink:href="walletmodeltransaction_8h.html" target="_top" xlink:title="qt/walletmodeltransaction.h">
<polygon fill="#ffffff" stroke="#000000" points="1452.9116,-395.5 1452.9116,-413.5 1590.0884,-413.5 1590.0884,-395.5 1452.9116,-395.5"/>
<text text-anchor="middle" x="1521.5" y="-401.5" font-family="Helvetica,sans-Serif" font-size="10.00" fill="#000000">qt/walletmodeltransaction.h</text>
</a>
</g>
</g>
<!-- Node1&#45;&gt;Node68 -->
<g id="edge77" class="edge">
<title>Node1&#45;&gt;Node68</title>
<path fill="none" stroke="#191970" d="M1248.7142,-450.4932C1249.65,-450.3273 1250.5795,-450.1627 1251.5,-450 1319.6168,-437.9579 1397.7753,-424.3618 1452.4942,-415.1934"/>
<polygon fill="#191970" stroke="#191970" points="1453.1438,-418.6335 1462.4309,-413.5344 1451.991,-411.7291 1453.1438,-418.6335"/>
</g>
<!-- Node69 -->
<g id="node41" class="node">
<title>Node69</title>
<polygon fill="#ffffff" stroke="#bfbfbf" points="1656.1602,-340.5 1656.1602,-358.5 1708.8398,-358.5 1708.8398,-340.5 1656.1602,-340.5"/>
<text text-anchor="middle" x="1682.5" y="-346.5" font-family="Helvetica,sans-Serif" font-size="10.00" fill="#000000">QObject</text>
</g>
<!-- Node1&#45;&gt;Node69 -->
<g id="edge106" class="edge">
<title>Node1&#45;&gt;Node69</title>
<path fill="none" stroke="#191970" d="M1251.7056,-451.3133C1254.6779,-450.844 1257.63,-450.4009 1260.5,-450 1339.6879,-438.9383 1546.3217,-448.4004 1618.5,-414 1640.4034,-403.5608 1659.0902,-382.3817 1670.5185,-367.1369"/>
<polygon fill="#191970" stroke="#191970" points="1673.3906,-369.1377 1676.3781,-358.9728 1667.7037,-365.0561 1673.3906,-369.1377"/>
</g>
<!-- Node70 -->
<g id="node42" class="node">
<title>Node70</title>
<g id="a_node42"><a xlink:href="interfaces_2wallet_8h.html" target="_top" xlink:title="interfaces/wallet.h">
<polygon fill="#ffffff" stroke="#000000" points="1159.4805,-395.5 1159.4805,-413.5 1255.5195,-413.5 1255.5195,-395.5 1159.4805,-395.5"/>
<text text-anchor="middle" x="1207.5" y="-401.5" font-family="Helvetica,sans-Serif" font-size="10.00" fill="#000000">interfaces/wallet.h</text>
</a>
</g>
</g>
<!-- Node1&#45;&gt;Node70 -->
<g id="edge82" class="edge">
<title>Node1&#45;&gt;Node70</title>
<path fill="none" stroke="#191970" d="M1207.5,-450.4179C1207.5,-443.2164 1207.5,-432.8962 1207.5,-423.8632"/>
<polygon fill="#191970" stroke="#191970" points="1211.0001,-423.7794 1207.5,-413.7795 1204.0001,-423.7795 1211.0001,-423.7794"/>
</g>
<!-- Node3 -->
<g id="node4" class="node">
<title>Node3</title>
<polygon fill="#ffffff" stroke="#bfbfbf" points="1049.3794,-.5 1049.3794,-18.5 1097.6206,-18.5 1097.6206,-.5 1049.3794,-.5"/>
<text text-anchor="middle" x="1073.5" y="-6.5" font-family="Helvetica,sans-Serif" font-size="10.00" fill="#000000">stdint.h</text>
</g>
<!-- Node2&#45;&gt;Node3 -->
<g id="edge3" class="edge">
<title>Node2&#45;&gt;Node3</title>
<path fill="none" stroke="#191970" d="M1638.6411,-342.3678C1685.5257,-328.9532 1772.5,-295.2123 1772.5,-229.5 1772.5,-229.5 1772.5,-229.5 1772.5,-119.5 1772.5,-42.4158 1686.5065,-72.7766 1611.5,-55 1515.0391,-32.1387 1210.7077,-15.994 1107.8525,-11.0733"/>
<polygon fill="#191970" stroke="#191970" points="1107.8621,-7.5699 1097.7078,-10.5933 1107.5311,-14.5621 1107.8621,-7.5699"/>
</g>
<!-- Node5 -->
<g id="node6" class="node">
<title>Node5</title>
<g id="a_node6"><a xlink:href="pubkey_8h.html" target="_top" xlink:title="pubkey.h">
<polygon fill="#ffffff" stroke="#000000" points="648.5757,-340.5 648.5757,-358.5 704.4243,-358.5 704.4243,-340.5 648.5757,-340.5"/>
<text text-anchor="middle" x="676.5" y="-346.5" font-family="Helvetica,sans-Serif" font-size="10.00" fill="#000000">pubkey.h</text>
</a>
</g>
</g>
<!-- Node4&#45;&gt;Node5 -->
<g id="edge5" class="edge">
<title>Node4&#45;&gt;Node5</title>
<path fill="none" stroke="#191970" d="M676.5,-395.4179C676.5,-388.2164 676.5,-377.8962 676.5,-368.8632"/>
<polygon fill="#191970" stroke="#191970" points="680.0001,-368.7794 676.5,-358.7795 673.0001,-368.7795 680.0001,-368.7794"/>
</g>
<!-- Node4&#45;&gt;Node38 -->
<g id="edge55" class="edge">
<title>Node4&#45;&gt;Node38</title>
<path fill="none" stroke="#191970" d="M656.6351,-404.127C598.2046,-402.6166 428.5685,-395.1438 389.5,-359 358.7757,-330.5758 356.0046,-277.582 357.0153,-248.9898"/>
<polygon fill="#191970" stroke="#191970" points="360.5273,-248.8674 357.5852,-238.6893 353.538,-248.4807 360.5273,-248.8674"/>
</g>
<!-- Node4&#45;&gt;Node48 -->
<g id="edge66" class="edge">
<title>Node4&#45;&gt;Node48</title>
<path fill="none" stroke="#191970" d="M659.439,-395.4301C624.951,-375.7854 552.0547,-326.8752 574.5,-275 591.1575,-236.5016 630.6267,-205.9634 656.6884,-189.0639"/>
<polygon fill="#191970" stroke="#191970" points="658.6803,-191.946 665.2883,-183.6644 654.9581,-186.0176 658.6803,-191.946"/>
</g>
<!-- Node50 -->
<g id="node29" class="node">
<title>Node50</title>
<g id="a_node29"><a xlink:href="uint256_8h.html" target="_top" xlink:title="uint256.h">
<polygon fill="#ffffff" stroke="#000000" points="749.9263,-220.5 749.9263,-238.5 807.0737,-238.5 807.0737,-220.5 749.9263,-220.5"/>
<text text-anchor="middle" x="778.5" y="-226.5" font-family="Helvetica,sans-Serif" font-size="10.00" fill="#000000">uint256.h</text>
</a>
</g>
</g>
<!-- Node4&#45;&gt;Node50 -->
<g id="edge64" class="edge">
<title>Node4&#45;&gt;Node50</title>
<path fill="none" stroke="#191970" d="M685.0614,-395.1901C692.9934,-386.2969 704.8381,-372.3133 713.5,-359 737.8563,-321.5646 759.6921,-273.7688 770.7891,-247.9877"/>
<polygon fill="#191970" stroke="#191970" points="774.0586,-249.2425 774.7428,-238.6698 767.6147,-246.5082 774.0586,-249.2425"/>
</g>
<!-- Node52 -->
<g id="node31" class="node">
<title>Node52</title>
<polygon fill="#ffffff" stroke="#bfbfbf" points="583.0986,-165.5 583.0986,-183.5 641.9014,-183.5 641.9014,-165.5 583.0986,-165.5"/>
<text text-anchor="middle" x="612.5" y="-171.5" font-family="Helvetica,sans-Serif" font-size="10.00" fill="#000000">stdexcept</text>
</g>
<!-- Node4&#45;&gt;Node52 -->
<g id="edge65" class="edge">
<title>Node4&#45;&gt;Node52</title>
<path fill="none" stroke="#191970" d="M656.7262,-398.4421C636.7993,-391.5285 606.1237,-378.5802 585.5,-359 541.0434,-316.7929 533.1274,-298.2757 517.5,-239 515.3473,-230.8346 512.9997,-227.1453 517.5,-220 524.3954,-209.052 552.6935,-196.3053 576.6269,-187.0933"/>
<polygon fill="#191970" stroke="#191970" points="578.0697,-190.2903 586.2034,-183.5009 575.6111,-183.7362 578.0697,-190.2903"/>
</g>
<!-- Node4&#45;&gt;Node55 -->
<g id="edge56" class="edge">
<title>Node4&#45;&gt;Node55</title>
<path fill="none" stroke="#191970" d="M696.1653,-398.2354C750.175,-381.0301 902.1919,-332.6037 983.9217,-306.5679"/>
<polygon fill="#191970" stroke="#191970" points="985.0632,-309.8776 993.529,-303.5074 982.9384,-303.2079 985.0632,-309.8776"/>
</g>
<!-- Node6 -->
<g id="node7" class="node">
<title>Node6</title>
<g id="a_node7"><a xlink:href="_hash_8h.html" target="_top" xlink:title="hash.h">
<polygon fill="#ffffff" stroke="#ff0000" points="583.4878,-280.5 583.4878,-298.5 629.5122,-298.5 629.5122,-280.5 583.4878,-280.5"/>
<text text-anchor="middle" x="606.5" y="-286.5" font-family="Helvetica,sans-Serif" font-size="10.00" fill="#000000">hash.h</text>
</a>
</g>
</g>
<!-- Node5&#45;&gt;Node6 -->
<g id="edge6" class="edge">
<title>Node5&#45;&gt;Node6</title>
<path fill="none" stroke="#191970" d="M665.8685,-340.3873C655.0758,-331.1364 638.1458,-316.625 625.1221,-305.4618"/>
<polygon fill="#191970" stroke="#191970" points="627.1019,-302.549 617.2315,-298.6985 622.5464,-307.8638 627.1019,-302.549"/>
</g>
<!-- Node5&#45;&gt;Node38 -->
<g id="edge51" class="edge">
<title>Node5&#45;&gt;Node38</title>
<path fill="none" stroke="#191970" d="M652.5983,-340.4805C596.6585,-319.3711 457.0758,-266.6984 392.3929,-242.2898"/>
<polygon fill="#191970" stroke="#191970" points="393.2708,-238.8802 382.679,-238.6242 390.7993,-245.4294 393.2708,-238.8802"/>
</g>
<!-- Node5&#45;&gt;Node48 -->
<g id="edge54" class="edge">
<title>Node5&#45;&gt;Node48</title>
<path fill="none" stroke="#191970" d="M676.7688,-340.0912C677.5593,-312.4255 679.8872,-230.9483 680.9543,-193.5988"/>
<polygon fill="#191970" stroke="#191970" points="684.4548,-193.6286 681.2419,-183.5326 677.4577,-193.4286 684.4548,-193.6286"/>
</g>
<!-- Node5&#45;&gt;Node50 -->
<g id="edge52" class="edge">
<title>Node5&#45;&gt;Node50</title>
<path fill="none" stroke="#191970" d="M684.1666,-340.4805C701.1496,-320.5004 742.1677,-272.2439 764.1004,-246.4407"/>
<polygon fill="#191970" stroke="#191970" points="766.9347,-248.5104 770.7445,-238.6242 761.6011,-243.9768 766.9347,-248.5104"/>
</g>
<!-- Node5&#45;&gt;Node52 -->
<g id="edge53" class="edge">
<title>Node5&#45;&gt;Node52</title>
<path fill="none" stroke="#191970" d="M673.0591,-340.0912C662.8977,-312.3062 632.8867,-230.2449 619.309,-193.1183"/>
<polygon fill="#191970" stroke="#191970" points="622.5252,-191.7221 615.8034,-183.5326 615.951,-194.1265 622.5252,-191.7221"/>
</g>
<!-- Node17 -->
<g id="node8" class="node">
<title>Node17</title>
<g id="a_node8"><a xlink:href="prevector_8h.html" target="_top" xlink:title="prevector.h">
<polygon fill="#ffffff" stroke="#000000" points="328.7612,-165.5 328.7612,-183.5 394.2388,-183.5 394.2388,-165.5 328.7612,-165.5"/>
<text text-anchor="middle" x="361.5" y="-171.5" font-family="Helvetica,sans-Serif" font-size="10.00" fill="#000000">prevector.h</text>
</a>
</g>
</g>
<!-- Node6&#45;&gt;Node17 -->
<g id="edge7" class="edge">
<title>Node6&#45;&gt;Node17</title>
<path fill="none" stroke="#191970" d="M587.2753,-280.4761C544.3552,-260.33 440.5448,-211.6027 390.0438,-187.8981"/>
<polygon fill="#191970" stroke="#191970" points="391.514,-184.7219 380.9744,-183.6411 388.5396,-191.0585 391.514,-184.7219"/>
</g>
<!-- Node6&#45;&gt;Node38 -->
<g id="edge17" class="edge">
<title>Node6&#45;&gt;Node38</title>
<path fill="none" stroke="#191970" d="M583.1688,-283.8553C541.004,-273.6542 451.6345,-252.0325 399.2088,-239.3489"/>
<polygon fill="#191970" stroke="#191970" points="399.7838,-235.8871 389.2412,-236.9374 398.1377,-242.6908 399.7838,-235.8871"/>
</g>
<!-- Node6&#45;&gt;Node48 -->
<g id="edge50" class="edge">
<title>Node6&#45;&gt;Node48</title>
<path fill="none" stroke="#191970" d="M612.3851,-280.4761C624.7558,-261.5078 653.6505,-217.2025 669.8903,-192.3015"/>
<polygon fill="#191970" stroke="#191970" points="672.9028,-194.0894 675.4339,-183.8014 667.0395,-190.2655 672.9028,-194.0894"/>
</g>
<!-- Node6&#45;&gt;Node50 -->
<g id="edge39" class="edge">
<title>Node6&#45;&gt;Node50</title>
<path fill="none" stroke="#191970" d="M629.6967,-281.4081C658.8236,-271.2476 709.0836,-253.715 743.0439,-241.8684"/>
<polygon fill="#191970" stroke="#191970" points="744.2992,-245.1374 752.5884,-238.5389 741.9936,-238.528 744.2992,-245.1374"/>
</g>
<!-- Node17&#45;&gt;Node3 -->
<g id="edge10" class="edge">
<title>Node17&#45;&gt;Node3</title>
<path fill="none" stroke="#191970" d="M360.9178,-165.4732C360.0014,-142.7119 361.1255,-82.8147 395.5,-55 420.7529,-34.5662 904.562,-15.6086 1039.0667,-10.7166"/>
<polygon fill="#191970" stroke="#191970" points="1039.3427,-14.209 1049.2098,-10.3503 1039.09,-7.2135 1039.3427,-14.209"/>
</g>
<!-- Node18 -->
<g id="node9" class="node">
<title>Node18</title>
<polygon fill="#ffffff" stroke="#bfbfbf" points="582.7144,-110.5 582.7144,-128.5 634.2856,-128.5 634.2856,-110.5 582.7144,-110.5"/>
<text text-anchor="middle" x="608.5" y="-116.5" font-family="Helvetica,sans-Serif" font-size="10.00" fill="#000000">assert.h</text>
</g>
<!-- Node17&#45;&gt;Node18 -->
<g id="edge8" class="edge">
<title>Node17&#45;&gt;Node18</title>
<path fill="none" stroke="#191970" d="M394.5526,-167.7012C441.784,-157.9445 527.1847,-140.141 572.6855,-129.3219"/>
<polygon fill="#191970" stroke="#191970" points="573.662,-132.6866 582.5551,-126.9279 572.0118,-125.8839 573.662,-132.6866"/>
</g>
<!-- Node8 -->
<g id="node10" class="node">
<title>Node8</title>
<polygon fill="#ffffff" stroke="#bfbfbf" points="718.6577,-110.5 718.6577,-128.5 766.3423,-128.5 766.3423,-110.5 718.6577,-110.5"/>
<text text-anchor="middle" x="742.5" y="-116.5" font-family="Helvetica,sans-Serif" font-size="10.00" fill="#000000">stdlib.h</text>
</g>
<!-- Node17&#45;&gt;Node8 -->
<g id="edge9" class="edge">
<title>Node17&#45;&gt;Node8</title>
<path fill="none" stroke="#191970" d="M394.3999,-171.8592C454.846,-166.651 587.7163,-153.548 708.6563,-128.9025"/>
<polygon fill="#191970" stroke="#191970" points="709.3709,-132.3288 718.454,-126.8747 707.9522,-125.4741 709.3709,-132.3288"/>
</g>
<!-- Node19 -->
<g id="node11" class="node">
<title>Node19</title>
<polygon fill="#ffffff" stroke="#bfbfbf" points="652.1035,-110.5 652.1035,-128.5 700.8965,-128.5 700.8965,-110.5 652.1035,-110.5"/>
<text text-anchor="middle" x="676.5" y="-116.5" font-family="Helvetica,sans-Serif" font-size="10.00" fill="#000000">string.h</text>
</g>
<!-- Node17&#45;&gt;Node19 -->
<g id="edge11" class="edge">
<title>Node17&#45;&gt;Node19</title>
<path fill="none" stroke="#191970" d="M394.3105,-170.5102C445.3952,-164.0166 547.1618,-149.954 642.2998,-129.0623"/>
<polygon fill="#191970" stroke="#191970" points="643.0758,-132.4754 652.0761,-126.8857 641.5545,-125.6427 643.0758,-132.4754"/>
</g>
<!-- Node20 -->
<g id="node12" class="node">
<title>Node20</title>
<polygon fill="#ffffff" stroke="#bfbfbf" points="300.3794,-110.5 300.3794,-128.5 348.6206,-128.5 348.6206,-110.5 300.3794,-110.5"/>
<text text-anchor="middle" x="324.5" y="-116.5" font-family="Helvetica,sans-Serif" font-size="10.00" fill="#000000">cstddef</text>
</g>
<!-- Node17&#45;&gt;Node20 -->
<g id="edge12" class="edge">
<title>Node17&#45;&gt;Node20</title>
<path fill="none" stroke="#191970" d="M355.3902,-165.4179C350.2261,-157.7415 342.6782,-146.5217 336.3363,-137.0945"/>
<polygon fill="#191970" stroke="#191970" points="339.2284,-135.1231 330.7425,-128.7795 333.4203,-139.0303 339.2284,-135.1231"/>
</g>
<!-- Node21 -->
<g id="node13" class="node">
<title>Node21</title>
<polygon fill="#ffffff" stroke="#bfbfbf" points="517.9385,-110.5 517.9385,-128.5 565.0615,-128.5 565.0615,-110.5 517.9385,-110.5"/>
<text text-anchor="middle" x="541.5" y="-116.5" font-family="Helvetica,sans-Serif" font-size="10.00" fill="#000000">iterator</text>
</g>
<!-- Node17&#45;&gt;Node21 -->
<g id="edge13" class="edge">
<title>Node17&#45;&gt;Node21</title>
<path fill="none" stroke="#191970" d="M391.2233,-165.4179C423.3481,-155.602 474.4353,-139.992 507.9707,-129.7451"/>
<polygon fill="#191970" stroke="#191970" points="509.2336,-133.019 517.7744,-126.7495 507.188,-126.3245 509.2336,-133.019"/>
</g>
<!-- Node22 -->
<g id="node14" class="node">
<title>Node22</title>
<polygon fill="#ffffff" stroke="#bfbfbf" points="404.4336,-55.5 404.4336,-73.5 466.5664,-73.5 466.5664,-55.5 404.4336,-55.5"/>
<text text-anchor="middle" x="435.5" y="-61.5" font-family="Helvetica,sans-Serif" font-size="10.00" fill="#000000">type_traits</text>
</g>
<!-- Node17&#45;&gt;Node22 -->
<g id="edge14" class="edge">
<title>Node17&#45;&gt;Node22</title>
<path fill="none" stroke="#191970" d="M367.5557,-165.4982C379.8059,-147.2885 407.7177,-105.798 423.6939,-82.0496"/>
<polygon fill="#191970" stroke="#191970" points="426.6828,-83.877 429.3606,-73.6261 420.8748,-79.9697 426.6828,-83.877"/>
</g>
<!-- Node23 -->
<g id="node15" class="node">
<title>Node23</title>
<g id="a_node15"><a xlink:href="compat_8h.html" target="_top" xlink:title="compat.h">
<polygon fill="#ffffff" stroke="#ff0000" points="442.9336,-110.5 442.9336,-128.5 500.0664,-128.5 500.0664,-110.5 442.9336,-110.5"/>
<text text-anchor="middle" x="471.5" y="-116.5" font-family="Helvetica,sans-Serif" font-size="10.00" fill="#000000">compat.h</text>
</a>
</g>
</g>
<!-- Node17&#45;&gt;Node23 -->
<g id="edge15" class="edge">
<title>Node17&#45;&gt;Node23</title>
<path fill="none" stroke="#191970" d="M379.6643,-165.4179C397.259,-156.6205 424.1618,-143.1691 444.3088,-133.0956"/>
<polygon fill="#191970" stroke="#191970" points="445.9297,-136.1983 453.3088,-128.5956 442.7992,-129.9373 445.9297,-136.1983"/>
</g>
<!-- Node23&#45;&gt;Node22 -->
<g id="edge16" class="edge">
<title>Node23&#45;&gt;Node22</title>
<path fill="none" stroke="#191970" d="M465.5553,-110.4179C460.5826,-102.8207 453.3381,-91.7527 447.2076,-82.3866"/>
<polygon fill="#191970" stroke="#191970" points="449.9789,-80.2297 441.5738,-73.7795 444.122,-84.0633 449.9789,-80.2297"/>
</g>
<!-- Node38&#45;&gt;Node3 -->
<g id="edge29" class="edge">
<title>Node38&#45;&gt;Node3</title>
<path fill="none" stroke="#191970" d="M327.884,-223.0133C265.3147,-208.3681 132.3458,-169.3269 177.5,-110 233.0739,-36.9829 286.0227,-70.2907 376.5,-55 506.2038,-33.08 916.656,-15.6347 1038.8514,-10.8229"/>
<polygon fill="#191970" stroke="#191970" points="1039.2564,-14.3098 1049.1121,-10.4219 1038.983,-7.3152 1039.2564,-14.3098"/>
</g>
<!-- Node38&#45;&gt;Node17 -->
<g id="edge34" class="edge">
<title>Node38&#45;&gt;Node17</title>
<path fill="none" stroke="#191970" d="M358.9954,-220.4179C359.3882,-213.2164 359.9511,-202.8962 360.4438,-193.8632"/>
<polygon fill="#191970" stroke="#191970" points="363.9439,-193.9553 360.9938,-183.7795 356.9543,-193.574 363.9439,-193.9553"/>
</g>
<!-- Node38&#45;&gt;Node18 -->
<g id="edge23" class="edge">
<title>Node38&#45;&gt;Node18</title>
<path fill="none" stroke="#191970" d="M368.2834,-220.459C383.7578,-206.6147 415.3346,-180.1761 446.5,-165 447.2303,-164.6444 525.2159,-142.7997 572.7051,-129.5115"/>
<polygon fill="#191970" stroke="#191970" points="573.9364,-132.8015 582.6235,-126.7365 572.0503,-126.0604 573.9364,-132.8015"/>
</g>
<!-- Node38&#45;&gt;Node19 -->
<g id="edge31" class="edge">
<title>Node38&#45;&gt;Node19</title>
<path fill="none" stroke="#191970" d="M375.849,-220.4738C409.0686,-203.2109 478.8832,-167.0369 484.5,-165 549.688,-141.36 571.4565,-146.5092 642.2012,-129.1868"/>
<polygon fill="#191970" stroke="#191970" points="643.1907,-132.547 652.0346,-126.713 641.4829,-125.7585 643.1907,-132.547"/>
</g>
<!-- Node39 -->
<g id="node17" class="node">
<title>Node39</title>
<g id="a_node17"><a xlink:href="endian_8h.html" target="_top" xlink:title="compat/endian.h">
<polygon fill="#ffffff" stroke="#000000" points="784.5298,-110.5 784.5298,-128.5 874.4702,-128.5 874.4702,-110.5 784.5298,-110.5"/>
<text text-anchor="middle" x="829.5" y="-116.5" font-family="Helvetica,sans-Serif" font-size="10.00" fill="#000000">compat/endian.h</text>
</a>
</g>
</g>
<!-- Node38&#45;&gt;Node39 -->
<g id="edge18" class="edge">
<title>Node38&#45;&gt;Node39</title>
<path fill="none" stroke="#191970" d="M385.517,-220.4487C410.4825,-211.8446 448.4452,-198.1493 480.5,-184 497.4116,-176.5351 499.8757,-170.578 517.5,-165 624.8629,-131.0202 659.2592,-146.1438 774.5226,-129.0689"/>
<polygon fill="#191970" stroke="#191970" points="775.0836,-132.5239 784.4387,-127.5507 774.0242,-125.6045 775.0836,-132.5239"/>
</g>
<!-- Node41 -->
<g id="node19" class="node">
<title>Node41</title>
<polygon fill="#ffffff" stroke="#bfbfbf" points="186.936,-110.5 186.936,-128.5 244.064,-128.5 244.064,-110.5 186.936,-110.5"/>
<text text-anchor="middle" x="215.5" y="-116.5" font-family="Helvetica,sans-Serif" font-size="10.00" fill="#000000">algorithm</text>
</g>
<!-- Node38&#45;&gt;Node41 -->
<g id="edge22" class="edge">
<title>Node38&#45;&gt;Node41</title>
<path fill="none" stroke="#191970" d="M327.525,-222.4282C304.1066,-215.7755 272.362,-203.8093 250.5,-184 236.8075,-171.5931 227.3959,-152.5424 221.8095,-138.3577"/>
<polygon fill="#191970" stroke="#191970" points="224.9851,-136.8492 218.2755,-128.6497 218.4074,-139.2438 224.9851,-136.8492"/>
</g>
<!-- Node42 -->
<g id="node20" class="node">
<title>Node42</title>
<polygon fill="#ffffff" stroke="#bfbfbf" points="0,-165.5 0,-183.5 29,-183.5 29,-165.5 0,-165.5"/>
<text text-anchor="middle" x="14.3916" y="-171.5" font-family="Helvetica,sans-Serif" font-size="10.00" fill="#000000">ios</text>
</g>
<!-- Node38&#45;&gt;Node42 -->
<g id="edge24" class="edge">
<title>Node38&#45;&gt;Node42</title>
<path fill="none" stroke="#191970" d="M327.5767,-227.5331C271.5954,-223.456 149.7854,-212.2146 39.0344,-183.5322"/>
<polygon fill="#191970" stroke="#191970" points="39.6017,-180.0619 29.039,-180.8873 37.8109,-186.829 39.6017,-180.0619"/>
</g>
<!-- Node43 -->
<g id="node21" class="node">
<title>Node43</title>
<polygon fill="#ffffff" stroke="#bfbfbf" points="47.1133,-165.5 47.1133,-183.5 85.8867,-183.5 85.8867,-165.5 47.1133,-165.5"/>
<text text-anchor="middle" x="66.5" y="-171.5" font-family="Helvetica,sans-Serif" font-size="10.00" fill="#000000">limits</text>
</g>
<!-- Node38&#45;&gt;Node43 -->
<g id="edge25" class="edge">
<title>Node38&#45;&gt;Node43</title>
<path fill="none" stroke="#191970" d="M327.6846,-225.7811C279.8245,-219.6631 184.6629,-206.1327 95.6664,-183.993"/>
<polygon fill="#191970" stroke="#191970" points="96.5182,-180.5983 85.9652,-181.5386 94.8012,-187.3845 96.5182,-180.5983"/>
</g>
<!-- Node38&#45;&gt;Node44 -->
<g id="edge26" class="edge">
<title>Node38&#45;&gt;Node44</title>
<path fill="none" stroke="#191970" d="M389.2443,-227.7325C474.446,-222.6824 720.7519,-207.0542 924.5,-184 936.7336,-182.6158 950.2081,-180.7096 961.7016,-178.9679"/>
<polygon fill="#191970" stroke="#191970" points="962.2607,-182.4232 971.6074,-177.4343 961.1897,-175.5056 962.2607,-182.4232"/>
</g>
<!-- Node45 -->
<g id="node23" class="node">
<title>Node45</title>
<polygon fill="#ffffff" stroke="#bfbfbf" points="1254.4434,-165.5 1254.4434,-183.5 1306.5566,-183.5 1306.5566,-165.5 1254.4434,-165.5"/>
<text text-anchor="middle" x="1280.5" y="-171.5" font-family="Helvetica,sans-Serif" font-size="10.00" fill="#000000">memory</text>
</g>
<!-- Node38&#45;&gt;Node45 -->
<g id="edge27" class="edge">
<title>Node38&#45;&gt;Node45</title>
<path fill="none" stroke="#191970" d="M389.2487,-228.4281C498.7444,-224.4826 879.8687,-209.6495 1193.5,-184 1210.1104,-182.6416 1228.4586,-180.7032 1244.006,-178.9312"/>
<polygon fill="#191970" stroke="#191970" points="1244.7366,-182.37 1254.2663,-177.7402 1243.9294,-175.4167 1244.7366,-182.37"/>
</g>
<!-- Node46 -->
<g id="node24" class="node">
<title>Node46</title>
<polygon fill="#ffffff" stroke="#bfbfbf" points="103.8301,-165.5 103.8301,-183.5 133.1699,-183.5 133.1699,-165.5 103.8301,-165.5"/>
<text text-anchor="middle" x="118.5" y="-171.5" font-family="Helvetica,sans-Serif" font-size="10.00" fill="#000000">set</text>
</g>
<!-- Node38&#45;&gt;Node46 -->
<g id="edge28" class="edge">
<title>Node38&#45;&gt;Node46</title>
<path fill="none" stroke="#191970" d="M327.8607,-223.9321C286.5876,-216.1959 210.98,-201.1918 147.5,-184 146.0618,-183.6105 144.5895,-183.1919 143.1081,-182.7553"/>
<polygon fill="#191970" stroke="#191970" points="144.0509,-179.383 133.4618,-179.7308 141.9566,-186.0624 144.0509,-179.383"/>
</g>
<!-- Node10 -->
<g id="node25" class="node">
<title>Node10</title>
<polygon fill="#ffffff" stroke="#bfbfbf" points="1144.2734,-165.5 1144.2734,-183.5 1184.7266,-183.5 1184.7266,-165.5 1144.2734,-165.5"/>
<text text-anchor="middle" x="1164.5" y="-171.5" font-family="Helvetica,sans-Serif" font-size="10.00" fill="#000000">string</text>
</g>
<!-- Node38&#45;&gt;Node10 -->
<g id="edge30" class="edge">
<title>Node38&#45;&gt;Node10</title>
<path fill="none" stroke="#191970" d="M389.1119,-227.4111C516.8007,-218.6978 1006.2547,-185.2984 1133.9072,-176.5876"/>
<polygon fill="#191970" stroke="#191970" points="1134.3904,-180.0629 1144.1289,-175.8901 1133.9138,-173.0791 1134.3904,-180.0629"/>
</g>
<!-- Node47 -->
<g id="node26" class="node">
<title>Node47</title>
<polygon fill="#ffffff" stroke="#bfbfbf" points="526.1084,-165.5 526.1084,-183.5 564.8916,-183.5 564.8916,-165.5 526.1084,-165.5"/>
<text text-anchor="middle" x="545.5" y="-171.5" font-family="Helvetica,sans-Serif" font-size="10.00" fill="#000000">utility</text>
</g>
<!-- Node38&#45;&gt;Node47 -->
<g id="edge32" class="edge">
<title>Node38&#45;&gt;Node47</title>
<path fill="none" stroke="#191970" d="M389.3792,-220.4179C424.5395,-210.0766 481.5649,-193.3045 516.0983,-183.1476"/>
<polygon fill="#191970" stroke="#191970" points="517.4383,-186.4018 526.0443,-180.2223 515.4631,-179.6862 517.4383,-186.4018"/>
</g>
<!-- Node38&#45;&gt;Node48 -->
<g id="edge33" class="edge">
<title>Node38&#45;&gt;Node48</title>
<path fill="none" stroke="#191970" d="M389.0383,-226.1977C440.7575,-220.2927 548.9766,-206.59 649.5681,-183.9315"/>
<polygon fill="#191970" stroke="#191970" points="650.6222,-187.2809 659.5894,-181.6381 649.0606,-180.4573 650.6222,-187.2809"/>
</g>
<!-- Node49 -->
<g id="node28" class="node">
<title>Node49</title>
<g id="a_node28"><a xlink:href="span_8h.html" target="_top" xlink:title="span.h">
<polygon fill="#ffffff" stroke="#000000" points="259.4878,-165.5 259.4878,-183.5 305.5122,-183.5 305.5122,-165.5 259.4878,-165.5"/>
<text text-anchor="middle" x="282.5" y="-171.5" font-family="Helvetica,sans-Serif" font-size="10.00" fill="#000000">span.h</text>
</a>
</g>
</g>
<!-- Node38&#45;&gt;Node49 -->
<g id="edge35" class="edge">
<title>Node38&#45;&gt;Node49</title>
<path fill="none" stroke="#191970" d="M345.9501,-220.4179C334.3989,-212.0584 317.0408,-199.4966 303.3985,-189.6239"/>
<polygon fill="#191970" stroke="#191970" points="305.2216,-186.6229 295.0685,-183.5956 301.1177,-192.2938 305.2216,-186.6229"/>
</g>
<!-- Node39&#45;&gt;Node3 -->
<g id="edge21" class="edge">
<title>Node39&#45;&gt;Node3</title>
<path fill="none" stroke="#191970" d="M810.0344,-110.3045C786.4838,-97.9727 752.0316,-75.2775 769.5,-55 786.9646,-34.7269 963.6628,-18.2917 1039.3675,-12.1246"/>
<polygon fill="#191970" stroke="#191970" points="1039.6645,-15.6121 1049.3524,-11.3232 1039.1044,-8.6346 1039.6645,-15.6121"/>
</g>
<!-- Node40 -->
<g id="node18" class="node">
<title>Node40</title>
<g id="a_node18"><a xlink:href="byteswap_8h.html" target="_top" xlink:title="compat/byteswap.h">
<polygon fill="#ffffff" stroke="#000000" points="778.4214,-55.5 778.4214,-73.5 880.5786,-73.5 880.5786,-55.5 778.4214,-55.5"/>
<text text-anchor="middle" x="829.5" y="-61.5" font-family="Helvetica,sans-Serif" font-size="10.00" fill="#000000">compat/byteswap.h</text>
</a>
</g>
</g>
<!-- Node39&#45;&gt;Node40 -->
<g id="edge19" class="edge">
<title>Node39&#45;&gt;Node40</title>
<path fill="none" stroke="#191970" d="M829.5,-110.4179C829.5,-103.2164 829.5,-92.8962 829.5,-83.8632"/>
<polygon fill="#191970" stroke="#191970" points="833.0001,-83.7794 829.5,-73.7795 826.0001,-83.7795 833.0001,-83.7794"/>
</g>
<!-- Node40&#45;&gt;Node3 -->
<g id="edge20" class="edge">
<title>Node40&#45;&gt;Node3</title>
<path fill="none" stroke="#191970" d="M869.5184,-55.4795C916.8052,-44.8205 994.6749,-27.2679 1039.2778,-17.214"/>
<polygon fill="#191970" stroke="#191970" points="1040.0795,-20.6212 1049.0651,-15.0079 1038.5402,-13.7925 1040.0795,-20.6212"/>
</g>
<!-- Node49&#45;&gt;Node20 -->
<g id="edge37" class="edge">
<title>Node49&#45;&gt;Node20</title>
<path fill="none" stroke="#191970" d="M289.4354,-165.4179C295.3578,-157.6624 304.0422,-146.29 311.2864,-136.8035"/>
<polygon fill="#191970" stroke="#191970" points="314.1264,-138.8514 317.4139,-128.7795 308.563,-134.6029 314.1264,-138.8514"/>
</g>
<!-- Node49&#45;&gt;Node22 -->
<g id="edge36" class="edge">
<title>Node49&#45;&gt;Node22</title>
<path fill="none" stroke="#191970" d="M280.9916,-165.3871C279.2718,-151.6863 278.2168,-125.7162 291.5,-110 304.8427,-94.2133 356.377,-80.6125 393.9951,-72.4938"/>
<polygon fill="#191970" stroke="#191970" points="395.126,-75.8327 404.1931,-70.352 393.6872,-68.9822 395.126,-75.8327"/>
</g>
<!-- Node49&#45;&gt;Node41 -->
<g id="edge38" class="edge">
<title>Node49&#45;&gt;Node41</title>
<path fill="none" stroke="#191970" d="M271.4363,-165.4179C261.5067,-157.2667 246.71,-145.1201 234.8288,-135.3669"/>
<polygon fill="#191970" stroke="#191970" points="236.7541,-132.4192 226.8041,-128.7795 232.3126,-137.8297 236.7541,-132.4192"/>
</g>
<!-- Node50&#45;&gt;Node3 -->
<g id="edge43" class="edge">
<title>Node50&#45;&gt;Node3</title>
<path fill="none" stroke="#191970" d="M807.2757,-222.5587C844.0024,-213.3564 905.1076,-196.7909 924.5,-184 989.2446,-141.2955 1041.6911,-62.6155 1063.0971,-27.3813"/>
<polygon fill="#191970" stroke="#191970" points="1066.1812,-29.0431 1068.296,-18.6615 1060.1687,-25.4584 1066.1812,-29.0431"/>
</g>
<!-- Node50&#45;&gt;Node18 -->
<g id="edge40" class="edge">
<title>Node50&#45;&gt;Node18</title>
<path fill="none" stroke="#191970" d="M770.8256,-220.0835C759.3274,-206.4592 736.4124,-181.1203 712.5,-165 691.3391,-150.7347 664.9761,-139.2592 644.088,-131.4012"/>
<polygon fill="#191970" stroke="#191970" points="645.212,-128.0856 634.6181,-127.9432 642.8109,-134.661 645.212,-128.0856"/>
</g>
<!-- Node50&#45;&gt;Node10 -->
<g id="edge44" class="edge">
<title>Node50&#45;&gt;Node10</title>
<path fill="none" stroke="#191970" d="M807.1974,-225.411C878.139,-215.3027 1061.2693,-189.209 1134.0354,-178.8408"/>
<polygon fill="#191970" stroke="#191970" points="1134.5378,-182.3047 1143.9441,-177.429 1133.5503,-175.3747 1134.5378,-182.3047"/>
</g>
<!-- Node50&#45;&gt;Node48 -->
<g id="edge45" class="edge">
<title>Node50&#45;&gt;Node48</title>
<path fill="none" stroke="#191970" d="M762.4824,-220.4179C747.3181,-211.8195 724.3129,-198.7754 706.6925,-188.7844"/>
<polygon fill="#191970" stroke="#191970" points="707.9667,-185.4834 697.5414,-183.5956 704.514,-191.5727 707.9667,-185.4834"/>
</g>
<!-- Node51 -->
<g id="node30" class="node">
<title>Node51</title>
<polygon fill="#ffffff" stroke="#bfbfbf" points="869.7734,-165.5 869.7734,-183.5 915.2266,-183.5 915.2266,-165.5 869.7734,-165.5"/>
<text text-anchor="middle" x="892.5" y="-171.5" font-family="Helvetica,sans-Serif" font-size="10.00" fill="#000000">cstring</text>
</g>
<!-- Node50&#45;&gt;Node51 -->
<g id="edge41" class="edge">
<title>Node50&#45;&gt;Node51</title>
<path fill="none" stroke="#191970" d="M797.3248,-220.4179C815.6418,-211.5807 843.6929,-198.0473 864.603,-187.9591"/>
<polygon fill="#191970" stroke="#191970" points="866.1615,-191.0933 873.6473,-183.5956 863.1198,-184.7887 866.1615,-191.0933"/>
</g>
<!-- Node50&#45;&gt;Node52 -->
<g id="edge42" class="edge">
<title>Node50&#45;&gt;Node52</title>
<path fill="none" stroke="#191970" d="M751.0885,-220.4179C723.2519,-211.1949 679.9766,-196.8567 649.1957,-186.6582"/>
<polygon fill="#191970" stroke="#191970" points="650.2697,-183.327 639.6763,-183.5042 648.0681,-189.9718 650.2697,-183.327"/>
</g>
<!-- Node53 -->
<g id="node32" class="node">
<title>Node53</title>
<g id="a_node32"><a xlink:href="common_8h.html" target="_top" xlink:title="crypto/common.h">
<polygon fill="#ffffff" stroke="#000000" points="759.1528,-165.5 759.1528,-183.5 851.8472,-183.5 851.8472,-165.5 759.1528,-165.5"/>
<text text-anchor="middle" x="805.5" y="-171.5" font-family="Helvetica,sans-Serif" font-size="10.00" fill="#000000">crypto/common.h</text>
</a>
</g>
</g>
<!-- Node50&#45;&gt;Node53 -->
<g id="edge46" class="edge">
<title>Node50&#45;&gt;Node53</title>
<path fill="none" stroke="#191970" d="M782.9585,-220.4179C786.6103,-212.9789 791.8958,-202.2123 796.4309,-192.9742"/>
<polygon fill="#191970" stroke="#191970" points="799.6797,-194.2985 800.9446,-183.7795 793.396,-191.2138 799.6797,-194.2985"/>
</g>
<!-- Node53&#45;&gt;Node3 -->
<g id="edge47" class="edge">
<title>Node53&#45;&gt;Node3</title>
<path fill="none" stroke="#191970" d="M826.7694,-165.3857C843.516,-157.4797 866.7482,-144.8263 883.5,-129 912.173,-101.9111 901.075,-78.8415 932.5,-55 964.0289,-31.0797 1008.5908,-19.4769 1039.1309,-14.026"/>
<polygon fill="#191970" stroke="#191970" points="1040.0089,-17.4284 1049.3042,-12.3444 1038.8673,-10.5222 1040.0089,-17.4284"/>
</g>
<!-- Node53&#45;&gt;Node19 -->
<g id="edge48" class="edge">
<title>Node53&#45;&gt;Node19</title>
<path fill="none" stroke="#191970" d="M784.1983,-165.4179C763.191,-156.4613 730.8692,-142.6806 707.1129,-132.552"/>
<polygon fill="#191970" stroke="#191970" points="708.4049,-129.2981 697.8334,-128.5956 705.6595,-135.7372 708.4049,-129.2981"/>
</g>
<!-- Node53&#45;&gt;Node39 -->
<g id="edge49" class="edge">
<title>Node53&#45;&gt;Node39</title>
<path fill="none" stroke="#191970" d="M809.4631,-165.4179C812.7092,-157.9789 817.4073,-147.2123 821.4385,-137.9742"/>
<polygon fill="#191970" stroke="#191970" points="824.6592,-139.3447 825.4508,-128.7795 818.2434,-136.545 824.6592,-139.3447"/>
</g>
<!-- Node55&#45;&gt;Node10 -->
<g id="edge63" class="edge">
<title>Node55&#45;&gt;Node10</title>
<path fill="none" stroke="#191970" d="M1075.7256,-275.3281C1094.3125,-266.9648 1115.9393,-254.8764 1131.5,-239 1144.129,-226.1148 1152.9659,-207.4197 1158.2953,-193.4706"/>
<polygon fill="#191970" stroke="#191970" points="1161.6445,-194.4982 1161.6919,-183.9035 1155.0479,-192.1562 1161.6445,-194.4982"/>
</g>
<!-- Node56 -->
<g id="node34" class="node">
<title>Node56</title>
<g id="a_node34"><a xlink:href="lockedpool_8h.html" target="_top" xlink:title="support/lockedpool.h">
<polygon fill="#ffffff" stroke="#ff0000" points="1014.3574,-220.5 1014.3574,-238.5 1122.6426,-238.5 1122.6426,-220.5 1014.3574,-220.5"/>
<text text-anchor="middle" x="1068.5" y="-226.5" font-family="Helvetica,sans-Serif" font-size="10.00" fill="#000000">support/lockedpool.h</text>
</a>
</g>
</g>
<!-- Node55&#45;&gt;Node56 -->
<g id="edge57" class="edge">
<title>Node55&#45;&gt;Node56</title>
<path fill="none" stroke="#191970" d="M1044.8466,-275.2808C1049.1134,-267.0224 1054.5327,-256.5335 1059.1072,-247.6796"/>
<polygon fill="#191970" stroke="#191970" points="1062.3257,-249.075 1063.8065,-238.5842 1056.1068,-245.8619 1062.3257,-249.075"/>
</g>
<!-- Node60 -->
<g id="node35" class="node">
<title>Node60</title>
<g id="a_node35"><a xlink:href="cleanse_8h.html" target="_top" xlink:title="support/cleanse.h">
<polygon fill="#ffffff" stroke="#000000" points="901.0298,-220.5 901.0298,-238.5 995.9702,-238.5 995.9702,-220.5 901.0298,-220.5"/>
<text text-anchor="middle" x="948.5" y="-226.5" font-family="Helvetica,sans-Serif" font-size="10.00" fill="#000000">support/cleanse.h</text>
</a>
</g>
</g>
<!-- Node55&#45;&gt;Node60 -->
<g id="edge61" class="edge">
<title>Node55&#45;&gt;Node60</title>
<path fill="none" stroke="#191970" d="M1016.4082,-275.2808C1002.5775,-265.9568 984.5295,-253.7895 970.5161,-244.3423"/>
<polygon fill="#191970" stroke="#191970" points="972.2231,-241.272 961.9749,-238.5842 968.3101,-247.0763 972.2231,-241.272"/>
</g>
<!-- Node56&#45;&gt;Node3 -->
<g id="edge58" class="edge">
<title>Node56&#45;&gt;Node3</title>
<path fill="none" stroke="#191970" d="M1068.7085,-220.327C1069.4582,-187.3409 1072.0273,-74.2972 1073.0625,-28.7484"/>
<polygon fill="#191970" stroke="#191970" points="1076.5624,-28.7892 1073.2906,-18.7122 1069.5642,-28.6301 1076.5624,-28.7892"/>
</g>
<!-- Node56&#45;&gt;Node44 -->
<g id="edge59" class="edge">
<title>Node56&#45;&gt;Node44</title>
<path fill="none" stroke="#191970" d="M1055.4548,-220.4179C1043.3331,-211.9788 1025.06,-199.257 1010.8193,-189.3426"/>
<polygon fill="#191970" stroke="#191970" points="1012.7714,-186.4369 1002.5646,-183.5956 1008.7718,-192.1818 1012.7714,-186.4369"/>
</g>
<!-- Node56&#45;&gt;Node45 -->
<g id="edge60" class="edge">
<title>Node56&#45;&gt;Node45</title>
<path fill="none" stroke="#191970" d="M1103.5075,-220.4179C1142.4551,-210.3135 1205.068,-194.0696 1244.437,-183.856"/>
<polygon fill="#191970" stroke="#191970" points="1245.3582,-187.2329 1254.1588,-181.3338 1243.6003,-180.4572 1245.3582,-187.2329"/>
</g>
<!-- Node60&#45;&gt;Node8 -->
<g id="edge62" class="edge">
<title>Node60&#45;&gt;Node8</title>
<path fill="none" stroke="#191970" d="M970.6497,-220.488C996.9258,-208.5375 1034.9821,-186.4479 1016.5,-165 982.9468,-126.0624 843.6212,-138.9842 776.6559,-128.6865"/>
<polygon fill="#191970" stroke="#191970" points="777.0261,-125.1958 766.557,-126.823 775.7558,-132.0796 777.0261,-125.1958"/>
</g>
<!-- Node61&#45;&gt;Node3 -->
<g id="edge76" class="edge">
<title>Node61&#45;&gt;Node3</title>
<path fill="none" stroke="#191970" d="M1591.8591,-281.0135C1635.7449,-271.936 1698.1032,-256.4647 1715.5,-239 1736.5903,-217.8273 1734.5,-204.3846 1734.5,-174.5 1734.5,-174.5 1734.5,-174.5 1734.5,-119.5 1734.5,-55.3622 1243.9895,-20.0976 1108.0561,-11.5563"/>
<polygon fill="#191970" stroke="#191970" points="1108.0067,-8.0467 1097.8093,-10.9212 1107.5735,-15.0332 1108.0067,-8.0467"/>
</g>
<!-- Node61&#45;&gt;Node50 -->
<g id="edge74" class="edge">
<title>Node61&#45;&gt;Node50</title>
<path fill="none" stroke="#191970" d="M1501.298,-286.1047C1395.0696,-278.1047 1121.2317,-257.3613 892.5,-239 867.3777,-236.9833 839.1489,-234.6316 817.0669,-232.7725"/>
<polygon fill="#191970" stroke="#191970" points="817.3335,-229.2827 807.0747,-231.9296 816.7451,-236.2579 817.3335,-229.2827"/>
</g>
<!-- Node62 -->
<g id="node37" class="node">
<title>Node62</title>
<g id="a_node37"><a xlink:href="interpreter_8h.html" target="_top" xlink:title="script/interpreter.h">
<polygon fill="#ffffff" stroke="#ff0000" points="1610.4805,-220.5 1610.4805,-238.5 1706.5195,-238.5 1706.5195,-220.5 1610.4805,-220.5"/>
<text text-anchor="middle" x="1658.5" y="-226.5" font-family="Helvetica,sans-Serif" font-size="10.00" fill="#000000">script/interpreter.h</text>
</a>
</g>
</g>
<!-- Node61&#45;&gt;Node62 -->
<g id="edge69" class="edge">
<title>Node61&#45;&gt;Node62</title>
<path fill="none" stroke="#191970" d="M1563.5104,-280.3873C1581.9544,-270.5066 1611.6004,-254.6248 1632.8685,-243.2312"/>
<polygon fill="#191970" stroke="#191970" points="1634.5345,-246.3093 1641.6965,-238.5019 1631.2289,-240.139 1634.5345,-246.3093"/>
</g>
<!-- Node67 -->
<g id="node39" class="node">
<title>Node67</title>
<polygon fill="#ffffff" stroke="#bfbfbf" points="1500.1406,-220.5 1500.1406,-238.5 1592.8594,-238.5 1592.8594,-220.5 1500.1406,-220.5"/>
<text text-anchor="middle" x="1546.5" y="-226.5" font-family="Helvetica,sans-Serif" font-size="10.00" fill="#000000">boost/variant.hpp</text>
</g>
<!-- Node61&#45;&gt;Node67 -->
<g id="edge75" class="edge">
<title>Node61&#45;&gt;Node67</title>
<path fill="none" stroke="#191970" d="M1546.5,-280.3873C1546.5,-272.0174 1546.5,-259.3414 1546.5,-248.735"/>
<polygon fill="#191970" stroke="#191970" points="1550.0001,-248.6984 1546.5,-238.6985 1543.0001,-248.6985 1550.0001,-248.6984"/>
</g>
<!-- Node62&#45;&gt;Node3 -->
<g id="edge72" class="edge">
<title>Node62&#45;&gt;Node3</title>
<path fill="none" stroke="#191970" d="M1643.9817,-220.479C1630.6986,-211.8958 1610.8388,-198.2142 1595.5,-184 1540.4447,-132.9815 1552.7461,-90.2907 1486.5,-55 1421.1061,-20.1633 1194.7122,-11.9373 1107.8234,-10.0468"/>
<polygon fill="#191970" stroke="#191970" points="1107.77,-6.5451 1097.7012,-9.8419 1107.6282,-13.5437 1107.77,-6.5451"/>
</g>
<!-- Node62&#45;&gt;Node10 -->
<g id="edge73" class="edge">
<title>Node62&#45;&gt;Node10</title>
<path fill="none" stroke="#191970" d="M1610.3308,-221.2479C1607.3455,-220.8059 1604.3837,-220.3857 1601.5,-220 1443.8746,-198.917 1403.5894,-201.2628 1245.5,-184 1228.8506,-182.1819 1210.2935,-180.0157 1195.1464,-178.2112"/>
<polygon fill="#191970" stroke="#191970" points="1195.141,-174.6856 1184.7957,-176.9714 1194.3084,-181.636 1195.141,-174.6856"/>
</g>
<!-- Node62&#45;&gt;Node48 -->
<g id="edge71" class="edge">
<title>Node62&#45;&gt;Node48</title>
<path fill="none" stroke="#191970" d="M1610.3545,-221.0486C1607.3633,-220.6561 1604.3937,-220.3012 1601.5,-220 1224.9737,-180.8086 1127.5437,-217.8546 750.5,-184 738.3283,-182.9071 725.0133,-181.1966 713.3546,-179.5263"/>
<polygon fill="#191970" stroke="#191970" points="713.5983,-176.0244 703.1936,-178.0227 712.5735,-182.949 713.5983,-176.0244"/>
</g>
<!-- Node63 -->
<g id="node38" class="node">
<title>Node63</title>
<g id="a_node38"><a xlink:href="script__error_8h.html" target="_top" xlink:title="script/script_error.h">
<polygon fill="#ffffff" stroke="#000000" points="1604.9854,-165.5 1604.9854,-183.5 1706.0146,-183.5 1706.0146,-165.5 1604.9854,-165.5"/>
<text text-anchor="middle" x="1655.5" y="-171.5" font-family="Helvetica,sans-Serif" font-size="10.00" fill="#000000">script/script_error.h</text>
</a>
</g>
</g>
<!-- Node62&#45;&gt;Node63 -->
<g id="edge70" class="edge">
<title>Node62&#45;&gt;Node63</title>
<path fill="none" stroke="#191970" d="M1658.0046,-220.4179C1657.6118,-213.2164 1657.0489,-202.8962 1656.5562,-193.8632"/>
<polygon fill="#191970" stroke="#191970" points="1660.0457,-193.574 1656.0062,-183.7795 1653.0561,-193.9553 1660.0457,-193.574"/>
</g>
<!-- Node68&#45;&gt;Node1 -->
<g id="edge78" class="edge">
<title>Node68&#45;&gt;Node1</title>
<path fill="none" stroke="#191970" d="M1475.8195,-413.5773C1425.2815,-422.7089 1341.7432,-437.2284 1269.5,-450 1267.0031,-450.4414 1264.4402,-450.896 1261.8428,-451.3559"/>
<polygon fill="#191970" stroke="#191970" points="1260.9598,-447.9575 1251.7191,-453.1401 1262.1748,-454.8512 1260.9598,-447.9575"/>
</g>
<!-- Node68&#45;&gt;Node2 -->
<g id="edge80" class="edge">
<title>Node68&#45;&gt;Node2</title>
<path fill="none" stroke="#191970" d="M1536.0314,-395.4179C1549.6614,-386.8992 1570.2735,-374.0166 1586.1996,-364.0627"/>
<polygon fill="#191970" stroke="#191970" points="1588.322,-366.8637 1594.947,-358.5956 1584.612,-360.9277 1588.322,-366.8637"/>
</g>
<!-- Node68&#45;&gt;Node45 -->
<g id="edge79" class="edge">
<title>Node68&#45;&gt;Node45</title>
<path fill="none" stroke="#191970" d="M1476.3394,-395.4899C1451.1059,-388.7119 1420.2587,-377.3539 1397.5,-359 1339.9945,-312.6245 1302.2657,-230.0159 1287.5081,-193.1543"/>
<polygon fill="#191970" stroke="#191970" points="1290.6999,-191.705 1283.8124,-183.6543 1284.1762,-194.2429 1290.6999,-191.705"/>
</g>
<!-- Node68&#45;&gt;Node69 -->
<g id="edge81" class="edge">
<title>Node68&#45;&gt;Node69</title>
<path fill="none" stroke="#191970" d="M1548.0859,-395.4179C1574.9671,-386.2348 1616.6927,-371.9807 1646.5212,-361.7909"/>
<polygon fill="#191970" stroke="#191970" points="1647.8106,-365.0491 1656.1422,-358.5042 1645.5477,-358.4249 1647.8106,-365.0491"/>
</g>
<!-- Node70&#45;&gt;Node2 -->
<g id="edge83" class="edge">
<title>Node70&#45;&gt;Node2</title>
<path fill="none" stroke="#191970" d="M1255.5913,-397.9203C1336.0392,-386.9138 1496.3508,-364.9806 1570.3736,-354.8531"/>
<polygon fill="#191970" stroke="#191970" points="1571.2158,-358.2706 1580.6491,-353.4473 1570.2669,-351.3352 1571.2158,-358.2706"/>
</g>
<!-- Node70&#45;&gt;Node3 -->
<g id="edge98" class="edge">
<title>Node70&#45;&gt;Node3</title>
<path fill="none" stroke="#191970" d="M1210.0624,-395.3429C1215.2486,-375.9757 1226.5,-329.3648 1226.5,-289.5 1226.5,-289.5 1226.5,-289.5 1226.5,-119.5 1226.5,-61.2558 1152.5015,-30.8219 1107.429,-17.6868"/>
<polygon fill="#191970" stroke="#191970" points="1108.3151,-14.3005 1097.7433,-14.9988 1106.4432,-21.0456 1108.3151,-14.3005"/>
</g>
<!-- Node70&#45;&gt;Node5 -->
<g id="edge84" class="edge">
<title>Node70&#45;&gt;Node5</title>
<path fill="none" stroke="#191970" d="M1159.4408,-399.5221C1054.9843,-388.7027 809.0585,-363.2302 714.4811,-353.434"/>
<polygon fill="#191970" stroke="#191970" points="714.8057,-349.949 704.4982,-352.4 714.0844,-356.9117 714.8057,-349.949"/>
</g>
<!-- Node70&#45;&gt;Node44 -->
<g id="edge96" class="edge">
<title>Node70&#45;&gt;Node44</title>
<path fill="none" stroke="#191970" d="M1159.2855,-396.7006C1084.5674,-381.6146 944.0486,-340.4805 892.5,-239 888.6756,-231.4712 887.9709,-227.1271 892.5,-220 900.4706,-207.4572 936.2819,-192.8456 962.0736,-183.6345"/>
<polygon fill="#191970" stroke="#191970" points="963.4359,-186.8662 971.7264,-180.2692 961.1315,-180.2563 963.4359,-186.8662"/>
</g>
<!-- Node70&#45;&gt;Node45 -->
<g id="edge97" class="edge">
<title>Node70&#45;&gt;Node45</title>
<path fill="none" stroke="#191970" d="M1215.8277,-395.4572C1223.3911,-386.7527 1234.2859,-372.8967 1240.5,-359 1265.8631,-302.2801 1275.5971,-228.3921 1278.9411,-193.8649"/>
<polygon fill="#191970" stroke="#191970" points="1282.4413,-194.0177 1279.8435,-183.7463 1275.4689,-193.3958 1282.4413,-194.0177"/>
</g>
<!-- Node70&#45;&gt;Node10 -->
<g id="edge99" class="edge">
<title>Node70&#45;&gt;Node10</title>
<path fill="none" stroke="#191970" d="M1205.8143,-395.4837C1199.4606,-361.4984 1176.8738,-240.6856 1168.0596,-193.5397"/>
<polygon fill="#191970" stroke="#191970" points="1171.4989,-192.8903 1166.2207,-183.7039 1164.6181,-194.1768 1171.4989,-192.8903"/>
</g>
<!-- Node70&#45;&gt;Node47 -->
<g id="edge101" class="edge">
<title>Node70&#45;&gt;Node47</title>
<path fill="none" stroke="#191970" d="M1159.1725,-402.3259C1030.6448,-396.3053 686.9434,-378.5627 639.5,-359 604.5144,-344.5741 594.0998,-336.372 574.5,-304 553.3992,-269.1489 547.6122,-220.6555 546.051,-193.9954"/>
<polygon fill="#191970" stroke="#191970" points="549.5347,-193.5459 545.5995,-183.709 542.5414,-193.8529 549.5347,-193.5459"/>
</g>
<!-- Node70&#45;&gt;Node48 -->
<g id="edge102" class="edge">
<title>Node70&#45;&gt;Node48</title>
<path fill="none" stroke="#191970" d="M1159.3226,-397.3015C1116.0074,-390.0828 1051.0046,-377.3872 996.5,-359 877.435,-318.8333 841.7289,-313.4482 740.5,-239 722.4479,-225.7237 705.5921,-206.3048 694.5581,-192.2458"/>
<polygon fill="#191970" stroke="#191970" points="697.0406,-189.7292 688.1938,-183.8996 691.4742,-193.9738 697.0406,-189.7292"/>
</g>
<!-- Node70&#45;&gt;Node55 -->
<g id="edge89" class="edge">
<title>Node70&#45;&gt;Node55</title>
<path fill="none" stroke="#191970" d="M1198.1876,-395.4606C1184.3553,-382.3061 1157.2382,-357.5465 1131.5,-340 1114.3229,-328.2898 1094.1426,-317.1422 1076.8926,-308.3142"/>
<polygon fill="#191970" stroke="#191970" points="1078.1542,-305.0308 1067.6485,-303.6595 1075.0061,-311.283 1078.1542,-305.0308"/>
</g>
<!-- Node70&#45;&gt;Node61 -->
<g id="edge88" class="edge">
<title>Node70&#45;&gt;Node61</title>
<path fill="none" stroke="#191970" d="M1255.6268,-401.3228C1326.8388,-395.8889 1456.108,-383.0006 1495.5,-359 1515.398,-346.8766 1529.9563,-323.7943 1538.3103,-307.5664"/>
<polygon fill="#191970" stroke="#191970" points="1541.4892,-309.0324 1542.7024,-298.5072 1535.1904,-305.9786 1541.4892,-309.0324"/>
</g>
<!-- Node71 -->
<g id="node43" class="node">
<title>Node71</title>
<g id="a_node43"><a xlink:href="ismine_8h.html" target="_top" xlink:title="script/ismine.h">
<polygon fill="#ffffff" stroke="#000000" points="1406.5469,-340.5 1406.5469,-358.5 1486.4531,-358.5 1486.4531,-340.5 1406.5469,-340.5"/>
<text text-anchor="middle" x="1446.5" y="-346.5" font-family="Helvetica,sans-Serif" font-size="10.00" fill="#000000">script/ismine.h</text>
</a>
</g>
</g>
<!-- Node70&#45;&gt;Node71 -->
<g id="edge85" class="edge">
<title>Node70&#45;&gt;Node71</title>
<path fill="none" stroke="#191970" d="M1246.6984,-395.4795C1287.9428,-385.9881 1352.9403,-371.0305 1397.532,-360.7688"/>
<polygon fill="#191970" stroke="#191970" points="1398.3199,-364.179 1407.2802,-358.5255 1396.75,-357.3573 1398.3199,-364.179"/>
</g>
<!-- Node72 -->
<g id="node44" class="node">
<title>Node72</title>
<g id="a_node44"><a xlink:href="ui__interface_8h.html" target="_top" xlink:title="ui_interface.h">
<polygon fill="#ffffff" stroke="#000000" points="1330.4805,-220.5 1330.4805,-238.5 1406.5195,-238.5 1406.5195,-220.5 1330.4805,-220.5"/>
<text text-anchor="middle" x="1368.5" y="-226.5" font-family="Helvetica,sans-Serif" font-size="10.00" fill="#000000">ui_interface.h</text>
</a>
</g>
</g>
<!-- Node70&#45;&gt;Node72 -->
<g id="edge90" class="edge">
<title>Node70&#45;&gt;Node72</title>
<path fill="none" stroke="#191970" d="M1225.8028,-395.3935C1241.0262,-387.2377 1262.6837,-374.235 1278.5,-359 1314.1696,-324.6414 1344.3666,-274.1807 1359.0156,-247.5284"/>
<polygon fill="#191970" stroke="#191970" points="1362.1843,-249.026 1363.8476,-238.5626 1356.0223,-245.705 1362.1843,-249.026"/>
</g>
<!-- Node73 -->
<g id="node45" class="node">
<title>Node73</title>
<polygon fill="#ffffff" stroke="#bfbfbf" points="1380.0962,-165.5 1380.0962,-183.5 1438.9038,-183.5 1438.9038,-165.5 1380.0962,-165.5"/>
<text text-anchor="middle" x="1409.5" y="-171.5" font-family="Helvetica,sans-Serif" font-size="10.00" fill="#000000">functional</text>
</g>
<!-- Node70&#45;&gt;Node73 -->
<g id="edge95" class="edge">
<title>Node70&#45;&gt;Node73</title>
<path fill="none" stroke="#191970" d="M1230.5064,-395.4709C1277.2357,-375.6212 1381.6915,-323.1413 1415.5,-239 1421.3309,-224.4883 1419.0565,-206.7098 1415.762,-193.4958"/>
<polygon fill="#191970" stroke="#191970" points="1419.0522,-192.2743 1412.9102,-183.6414 1412.3281,-194.2203 1419.0522,-192.2743"/>
</g>
<!-- Node74 -->
<g id="node46" class="node">
<title>Node74</title>
<polygon fill="#ffffff" stroke="#bfbfbf" points="1084.6577,-340.5 1084.6577,-358.5 1122.3423,-358.5 1122.3423,-340.5 1084.6577,-340.5"/>
<text text-anchor="middle" x="1103.5" y="-346.5" font-family="Helvetica,sans-Serif" font-size="10.00" fill="#000000">tuple</text>
</g>
<!-- Node70&#45;&gt;Node74 -->
<g id="edge100" class="edge">
<title>Node70&#45;&gt;Node74</title>
<path fill="none" stroke="#191970" d="M1190.3265,-395.4179C1173.842,-386.7001 1148.7158,-373.4122 1129.7268,-363.3699"/>
<polygon fill="#191970" stroke="#191970" points="1131.1752,-360.1767 1120.699,-358.5956 1127.9027,-366.3646 1131.1752,-360.1767"/>
</g>
<!-- Node71&#45;&gt;Node3 -->
<g id="edge87" class="edge">
<title>Node71&#45;&gt;Node3</title>
<path fill="none" stroke="#191970" d="M1449.899,-340.3116C1456.9467,-320.4098 1472.5,-271.7071 1472.5,-229.5 1472.5,-229.5 1472.5,-229.5 1472.5,-119.5 1472.5,-44.1811 1204.9248,-18.4535 1108.0147,-11.6055"/>
<polygon fill="#191970" stroke="#191970" points="1108.0735,-8.1014 1097.8586,-10.9133 1107.5975,-15.0852 1108.0735,-8.1014"/>
</g>
<!-- Node71&#45;&gt;Node61 -->
<g id="edge86" class="edge">
<title>Node71&#45;&gt;Node61</title>
<path fill="none" stroke="#191970" d="M1461.6878,-340.3873C1477.9341,-330.6395 1503.915,-315.051 1522.8443,-303.6934"/>
<polygon fill="#191970" stroke="#191970" points="1524.7227,-306.6481 1531.4969,-298.5019 1521.1212,-300.6456 1524.7227,-306.6481"/>
</g>
<!-- Node72&#45;&gt;Node3 -->
<g id="edge93" class="edge">
<title>Node72&#45;&gt;Node3</title>
<path fill="none" stroke="#191970" d="M1364.4621,-220.2197C1351.27,-191.0256 1306.4608,-100.3163 1240.5,-55 1200.1486,-27.2778 1143.5209,-16.4127 1107.6757,-12.1766"/>
<polygon fill="#191970" stroke="#191970" points="1108.0202,-8.6936 1097.7037,-11.1061 1107.273,-15.6536 1108.0202,-8.6936"/>
</g>
<!-- Node72&#45;&gt;Node45 -->
<g id="edge92" class="edge">
<title>Node72&#45;&gt;Node45</title>
<path fill="none" stroke="#191970" d="M1353.9686,-220.4179C1340.3386,-211.8992 1319.7265,-199.0166 1303.8004,-189.0627"/>
<polygon fill="#191970" stroke="#191970" points="1305.388,-185.9277 1295.053,-183.5956 1301.678,-191.8637 1305.388,-185.9277"/>
</g>
<!-- Node72&#45;&gt;Node10 -->
<g id="edge94" class="edge">
<title>Node72&#45;&gt;Node10</title>
<path fill="none" stroke="#191970" d="M1334.8135,-220.4179C1295.8159,-209.9038 1232.1616,-192.7421 1194.7067,-182.644"/>
<polygon fill="#191970" stroke="#191970" points="1195.4459,-179.2184 1184.8795,-179.9945 1193.6237,-185.977 1195.4459,-179.2184"/>
</g>
<!-- Node72&#45;&gt;Node73 -->
<g id="edge91" class="edge">
<title>Node72&#45;&gt;Node73</title>
<path fill="none" stroke="#191970" d="M1375.2703,-220.4179C1381.0517,-212.6624 1389.5293,-201.29 1396.601,-191.8035"/>
<polygon fill="#191970" stroke="#191970" points="1399.412,-193.8888 1402.5826,-183.7795 1393.7998,-189.7051 1399.412,-193.8888"/>
</g>
</g>
</svg>
