<?xml version="1.0" encoding="UTF-8" standalone="no"?>
<!DOCTYPE svg PUBLIC "-//W3C//DTD SVG 1.1//EN"
 "http://www.w3.org/Graphics/SVG/1.1/DTD/svg11.dtd">
<!-- Generated by graphviz version 2.40.1 (20161225.0304)
 -->
<!-- Title: src/rest.cpp Pages: 1 -->
<svg width="3004pt" height="477pt"
 viewBox="0.00 0.00 3004.19 477.00" xmlns="http://www.w3.org/2000/svg" xmlns:xlink="http://www.w3.org/1999/xlink">
<g id="graph0" class="graph" transform="scale(1 1) rotate(0) translate(4 473)">
<title>src/rest.cpp</title>
<polygon fill="#ffffff" stroke="transparent" points="-4,4 -4,-473 3000.1921,-473 3000.1921,4 -4,4"/>
<!-- Node0 -->
<g id="node1" class="node">
<title>Node0</title>
<polygon fill="#bfbfbf" stroke="#000000" points="2188.1602,-450.5 2188.1602,-468.5 2255.8398,-468.5 2255.8398,-450.5 2188.1602,-450.5"/>
<text text-anchor="middle" x="2222" y="-456.5" font-family="Helvetica,sans-Serif" font-size="10.00" fill="#000000">src/rest.cpp</text>
</g>
<!-- Node1 -->
<g id="node2" class="node">
<title>Node1</title>
<g id="a_node2"><a xlink:href="chain_8h.html" target="_top" xlink:title="chain.h">
<polygon fill="#ffffff" stroke="#000000" points="994.877,-285.5 994.877,-303.5 1043.123,-303.5 1043.123,-285.5 994.877,-285.5"/>
<text text-anchor="middle" x="1019" y="-291.5" font-family="Helvetica,sans-Serif" font-size="10.00" fill="#000000">chain.h</text>
</a>
</g>
</g>
<!-- Node0&#45;&gt;Node1 -->
<g id="edge1" class="edge">
<title>Node0&#45;&gt;Node1</title>
<path fill="none" stroke="#191970" d="M2188.0263,-459.0184C2004.9624,-456.3121 1142.4853,-442.1042 1094,-414 1055.6485,-391.7698 1034.0391,-341.2487 1024.6672,-313.5464"/>
<polygon fill="#191970" stroke="#191970" points="1027.9447,-312.3039 1021.5714,-303.8403 1021.2757,-314.431 1027.9447,-312.3039"/>
</g>
<!-- Node17 -->
<g id="node11" class="node">
<title>Node17</title>
<g id="a_node11"><a xlink:href="block_8h.html" target="_top" xlink:title="primitives/block.h">
<polygon fill="#ffffff" stroke="#000000" points="1136.6553,-230.5 1136.6553,-248.5 1229.3447,-248.5 1229.3447,-230.5 1136.6553,-230.5"/>
<text text-anchor="middle" x="1183" y="-236.5" font-family="Helvetica,sans-Serif" font-size="10.00" fill="#000000">primitives/block.h</text>
</a>
</g>
</g>
<!-- Node0&#45;&gt;Node17 -->
<g id="edge84" class="edge">
<title>Node0&#45;&gt;Node17</title>
<path fill="none" stroke="#191970" d="M2188.0571,-458.6254C2072.7863,-455.4167 1697.0121,-442.9377 1580,-414 1430.8445,-377.1131 1267.1995,-288.14 1206.9583,-253.5688"/>
<polygon fill="#191970" stroke="#191970" points="1208.6051,-250.4781 1198.1959,-248.5038 1205.102,-256.5385 1208.6051,-250.4781"/>
</g>
<!-- Node18 -->
<g id="node12" class="node">
<title>Node18</title>
<g id="a_node12"><a xlink:href="transaction_8h.html" target="_top" xlink:title="primitives/transaction.h">
<polygon fill="#ffffff" stroke="#000000" points="1578.8696,-175.5 1578.8696,-193.5 1697.1304,-193.5 1697.1304,-175.5 1578.8696,-175.5"/>
<text text-anchor="middle" x="1638" y="-181.5" font-family="Helvetica,sans-Serif" font-size="10.00" fill="#000000">primitives/transaction.h</text>
</a>
</g>
</g>
<!-- Node0&#45;&gt;Node18 -->
<g id="edge85" class="edge">
<title>Node0&#45;&gt;Node18</title>
<path fill="none" stroke="#191970" d="M2188.0519,-456.0097C2092.244,-445.5846 1822.2275,-412.0678 1753,-359 1697.4162,-316.3911 1660.2717,-238.8253 1645.3616,-203.2453"/>
<polygon fill="#191970" stroke="#191970" points="1648.4628,-201.5802 1641.4524,-193.6363 1641.9788,-204.2181 1648.4628,-201.5802"/>
</g>
<!-- Node53 -->
<g id="node22" class="node">
<title>Node53</title>
<g id="a_node22"><a xlink:href="chainparams_8h.html" target="_top" xlink:title="chainparams.h">
<polygon fill="#ffffff" stroke="#000000" points="363.2046,-285.5 363.2046,-303.5 444.7954,-303.5 444.7954,-285.5 363.2046,-285.5"/>
<text text-anchor="middle" x="404" y="-291.5" font-family="Helvetica,sans-Serif" font-size="10.00" fill="#000000">chainparams.h</text>
</a>
</g>
</g>
<!-- Node0&#45;&gt;Node53 -->
<g id="edge44" class="edge">
<title>Node0&#45;&gt;Node53</title>
<path fill="none" stroke="#191970" d="M2188.0828,-459.2228C1943.9143,-457.1573 463.0108,-443.428 428,-414 398.9437,-389.577 398.823,-340.7102 401.3539,-313.645"/>
<polygon fill="#191970" stroke="#191970" points="404.8533,-313.8508 402.5242,-303.5152 397.8995,-313.0474 404.8533,-313.8508"/>
</g>
<!-- Node57 -->
<g id="node25" class="node">
<title>Node57</title>
<g id="a_node25"><a xlink:href="version_8h.html" target="_top" xlink:title="version.h">
<polygon fill="#ffffff" stroke="#000000" points="1466.7119,-175.5 1466.7119,-193.5 1523.2881,-193.5 1523.2881,-175.5 1466.7119,-175.5"/>
<text text-anchor="middle" x="1495" y="-181.5" font-family="Helvetica,sans-Serif" font-size="10.00" fill="#000000">version.h</text>
</a>
</g>
</g>
<!-- Node0&#45;&gt;Node57 -->
<g id="edge169" class="edge">
<title>Node0&#45;&gt;Node57</title>
<path fill="none" stroke="#191970" d="M2214.6987,-450.3701C2196.2075,-427.8917 2145.003,-369.5583 2089,-340 2013.5449,-300.1749 1798.4165,-271.0685 1716,-249 1651.5267,-231.7361 1577.1287,-209.5496 1533.1882,-196.2086"/>
<polygon fill="#191970" stroke="#191970" points="1534.0793,-192.8214 1523.4935,-193.2586 1532.0415,-199.5182 1534.0793,-192.8214"/>
</g>
<!-- Node59 -->
<g id="node27" class="node">
<title>Node59</title>
<g id="a_node27"><a xlink:href="core__io_8h.html" target="_top" xlink:title="core_io.h">
<polygon fill="#ffffff" stroke="#000000" points="604.4312,-175.5 604.4312,-193.5 661.5688,-193.5 661.5688,-175.5 604.4312,-175.5"/>
<text text-anchor="middle" x="633" y="-181.5" font-family="Helvetica,sans-Serif" font-size="10.00" fill="#000000">core_io.h</text>
</a>
</g>
</g>
<!-- Node0&#45;&gt;Node59 -->
<g id="edge60" class="edge">
<title>Node0&#45;&gt;Node59</title>
<path fill="none" stroke="#191970" d="M2187.98,-459.2192C1954.0007,-457.2098 591.4034,-444.2203 562,-414 504.9721,-355.3875 522.7619,-301.7494 562,-230 569.7622,-215.8063 584.0517,-205.3885 597.7874,-198.1314"/>
<polygon fill="#191970" stroke="#191970" points="599.6509,-201.1176 607.1213,-193.6046 596.5963,-194.8192 599.6509,-201.1176"/>
</g>
<!-- Node60 -->
<g id="node28" class="node">
<title>Node60</title>
<g id="a_node28"><a xlink:href="txindex_8h.html" target="_top" xlink:title="index/txindex.h">
<polygon fill="#ffffff" stroke="#000000" points="1102.6455,-395.5 1102.6455,-413.5 1185.3545,-413.5 1185.3545,-395.5 1102.6455,-395.5"/>
<text text-anchor="middle" x="1144" y="-401.5" font-family="Helvetica,sans-Serif" font-size="10.00" fill="#000000">index/txindex.h</text>
</a>
</g>
</g>
<!-- Node0&#45;&gt;Node60 -->
<g id="edge64" class="edge">
<title>Node0&#45;&gt;Node60</title>
<path fill="none" stroke="#191970" d="M2187.8946,-458.3124C2063.5614,-453.8925 1622.9054,-437.4356 1260,-414 1238.9653,-412.6416 1215.8121,-410.8129 1195.7596,-409.1226"/>
<polygon fill="#191970" stroke="#191970" points="1195.8451,-405.6173 1185.5837,-408.2546 1195.25,-412.592 1195.8451,-405.6173"/>
</g>
<!-- Node108 -->
<g id="node32" class="node">
<title>Node108</title>
<g id="a_node32"><a xlink:href="validation_8h.html" target="_top" xlink:title="validation.h">
<polygon fill="#ffffff" stroke="#000000" points="1927.7046,-395.5 1927.7046,-413.5 1994.2954,-413.5 1994.2954,-395.5 1927.7046,-395.5"/>
<text text-anchor="middle" x="1961" y="-401.5" font-family="Helvetica,sans-Serif" font-size="10.00" fill="#000000">validation.h</text>
</a>
</g>
</g>
<!-- Node0&#45;&gt;Node108 -->
<g id="edge86" class="edge">
<title>Node0&#45;&gt;Node108</title>
<path fill="none" stroke="#191970" d="M2188.1464,-452.3661C2141.0777,-442.4474 2055.8473,-424.487 2004.2342,-413.6107"/>
<polygon fill="#191970" stroke="#191970" points="2004.8879,-410.1716 1994.3811,-411.5343 2003.4445,-417.0212 2004.8879,-410.1716"/>
</g>
<!-- Node76 -->
<g id="node36" class="node">
<title>Node76</title>
<g id="a_node36"><a xlink:href="sync_8h.html" target="_top" xlink:title="sync.h">
<polygon fill="#ffffff" stroke="#ff0000" points="2433.5493,-230.5 2433.5493,-248.5 2478.4507,-248.5 2478.4507,-230.5 2433.5493,-230.5"/>
<text text-anchor="middle" x="2456" y="-236.5" font-family="Helvetica,sans-Serif" font-size="10.00" fill="#000000">sync.h</text>
</a>
</g>
</g>
<!-- Node0&#45;&gt;Node76 -->
<g id="edge152" class="edge">
<title>Node0&#45;&gt;Node76</title>
<path fill="none" stroke="#191970" d="M2255.8716,-453.9081C2298.5377,-446.253 2368.6302,-431.4523 2388,-414 2434.4266,-372.1694 2449.4705,-294.7898 2454.0854,-258.8185"/>
<polygon fill="#191970" stroke="#191970" points="2457.5845,-259.0252 2455.2438,-248.6921 2450.6298,-258.2295 2457.5845,-259.0252"/>
</g>
<!-- Node112 -->
<g id="node39" class="node">
<title>Node112</title>
<g id="a_node39"><a xlink:href="httpserver_8h.html" target="_top" xlink:title="httpserver.h">
<polygon fill="#ffffff" stroke="#000000" points="2507.8721,-60.5 2507.8721,-78.5 2576.1279,-78.5 2576.1279,-60.5 2507.8721,-60.5"/>
<text text-anchor="middle" x="2542" y="-66.5" font-family="Helvetica,sans-Serif" font-size="10.00" fill="#000000">httpserver.h</text>
</a>
</g>
</g>
<!-- Node0&#45;&gt;Node112 -->
<g id="edge111" class="edge">
<title>Node0&#45;&gt;Node112</title>
<path fill="none" stroke="#191970" d="M2256.006,-458.8288C2342.8261,-456.6361 2570.5059,-447.7394 2637,-414 2671.646,-396.4205 2696,-388.3508 2696,-349.5 2696,-349.5 2696,-349.5 2696,-294.5 2696,-201.0585 2604.4335,-117.9393 2562.5134,-84.7827"/>
<polygon fill="#191970" stroke="#191970" points="2564.6513,-82.0115 2554.6025,-78.6542 2560.3644,-87.5453 2564.6513,-82.0115"/>
</g>
<!-- Node113 -->
<g id="node41" class="node">
<title>Node113</title>
<g id="a_node41"><a xlink:href="blockchain_8h.html" target="_top" xlink:title="rpc/blockchain.h">
<polygon fill="#ffffff" stroke="#000000" points="2196.8696,-175.5 2196.8696,-193.5 2285.1304,-193.5 2285.1304,-175.5 2196.8696,-175.5"/>
<text text-anchor="middle" x="2241" y="-181.5" font-family="Helvetica,sans-Serif" font-size="10.00" fill="#000000">rpc/blockchain.h</text>
</a>
</g>
</g>
<!-- Node0&#45;&gt;Node113 -->
<g id="edge115" class="edge">
<title>Node0&#45;&gt;Node113</title>
<path fill="none" stroke="#191970" d="M2256.1889,-454.415C2303.4475,-446.8573 2385.6666,-431.6408 2410,-414 2481.7729,-361.9672 2543.6986,-298.1472 2487,-230 2463.1039,-201.2788 2360.2192,-190.6116 2295.3079,-186.704"/>
<polygon fill="#191970" stroke="#191970" points="2295.416,-183.2046 2285.234,-186.1332 2295.0199,-190.1934 2295.416,-183.2046"/>
</g>
<!-- Node114 -->
<g id="node42" class="node">
<title>Node114</title>
<g id="a_node42"><a xlink:href="server_8h.html" target="_top" xlink:title="rpc/server.h">
<polygon fill="#ffffff" stroke="#000000" points="2416.877,-175.5 2416.877,-193.5 2485.123,-193.5 2485.123,-175.5 2416.877,-175.5"/>
<text text-anchor="middle" x="2451" y="-181.5" font-family="Helvetica,sans-Serif" font-size="10.00" fill="#000000">rpc/server.h</text>
</a>
</g>
</g>
<!-- Node0&#45;&gt;Node114 -->
<g id="edge119" class="edge">
<title>Node0&#45;&gt;Node114</title>
<path fill="none" stroke="#191970" d="M2256.1083,-458.9143C2339.2814,-456.9518 2550.0989,-448.6065 2610,-414 2640.9412,-396.1245 2658,-385.2336 2658,-349.5 2658,-349.5 2658,-349.5 2658,-294.5 2658,-221.4052 2556.106,-196.7304 2495.2956,-188.5129"/>
<polygon fill="#191970" stroke="#191970" points="2495.5394,-185.0162 2485.1818,-187.2458 2494.6691,-191.9619 2495.5394,-185.0162"/>
</g>
<!-- Node116 -->
<g id="node45" class="node">
<title>Node116</title>
<g id="a_node45"><a xlink:href="univalue_8h.html" target="_top" xlink:title="univalue.h">
<polygon fill="#ffffff" stroke="#ff0000" points="2314.2046,-60.5 2314.2046,-78.5 2375.7954,-78.5 2375.7954,-60.5 2314.2046,-60.5"/>
<text text-anchor="middle" x="2345" y="-66.5" font-family="Helvetica,sans-Serif" font-size="10.00" fill="#000000">univalue.h</text>
</a>
</g>
</g>
<!-- Node0&#45;&gt;Node116 -->
<g id="edge171" class="edge">
<title>Node0&#45;&gt;Node116</title>
<path fill="none" stroke="#191970" d="M2256.1373,-457.8493C2300.0276,-454.5101 2377.5435,-444.4265 2436,-414 2491.0467,-385.3483 2507.9628,-364.4485 2522,-304 2529.5907,-271.312 2529.73,-254.6875 2507,-230 2475.2878,-195.5567 2444.1215,-223.7865 2408,-194 2374.326,-166.2318 2356.8452,-115.8796 2349.4441,-88.4881"/>
<polygon fill="#191970" stroke="#191970" points="2352.7869,-87.4304 2346.9431,-78.593 2346.0004,-89.1458 2352.7869,-87.4304"/>
</g>
<!-- Node68 -->
<g id="node46" class="node">
<title>Node68</title>
<g id="a_node46"><a xlink:href="streams_8h.html" target="_top" xlink:title="streams.h">
<polygon fill="#ffffff" stroke="#ff0000" points="1863.0493,-120.5 1863.0493,-138.5 1922.9507,-138.5 1922.9507,-120.5 1863.0493,-120.5"/>
<text text-anchor="middle" x="1893" y="-126.5" font-family="Helvetica,sans-Serif" font-size="10.00" fill="#000000">streams.h</text>
</a>
</g>
</g>
<!-- Node0&#45;&gt;Node68 -->
<g id="edge138" class="edge">
<title>Node0&#45;&gt;Node68</title>
<path fill="none" stroke="#191970" d="M2232.5069,-450.2334C2241.2225,-441.7902 2252.971,-428.4612 2258,-414 2263.3954,-398.4852 2263.7137,-357.8762 2254,-340 2186.4552,-215.6969 2012.3608,-158.6278 1933.223,-138.4875"/>
<polygon fill="#191970" stroke="#191970" points="1933.7042,-135.001 1923.1561,-135.9953 1932.0219,-141.7959 1933.7042,-135.001"/>
</g>
<!-- Node117 -->
<g id="node48" class="node">
<title>Node117</title>
<g id="a_node48"><a xlink:href="txmempool_8h.html" target="_top" xlink:title="txmempool.h">
<polygon fill="#ffffff" stroke="#ff0000" points="1999.377,-285.5 1999.377,-303.5 2072.623,-303.5 2072.623,-285.5 1999.377,-285.5"/>
<text text-anchor="middle" x="2036" y="-291.5" font-family="Helvetica,sans-Serif" font-size="10.00" fill="#000000">txmempool.h</text>
</a>
</g>
</g>
<!-- Node0&#45;&gt;Node117 -->
<g id="edge153" class="edge">
<title>Node0&#45;&gt;Node117</title>
<path fill="none" stroke="#191970" d="M2227.1192,-450.1941C2238.3869,-428.3164 2262.3196,-372.9798 2236,-340 2217.2066,-316.4509 2135.8714,-304.1537 2082.8876,-298.5225"/>
<polygon fill="#191970" stroke="#191970" points="2082.9991,-295.0158 2072.6957,-297.4838 2082.2893,-301.9798 2082.9991,-295.0158"/>
</g>
<!-- Node85 -->
<g id="node49" class="node">
<title>Node85</title>
<g id="a_node49"><a xlink:href="utilstrencodings_8h.html" target="_top" xlink:title="utilstrencodings.h">
<polygon fill="#ffffff" stroke="#000000" points="932.0889,-60.5 932.0889,-78.5 1025.9111,-78.5 1025.9111,-60.5 932.0889,-60.5"/>
<text text-anchor="middle" x="979" y="-66.5" font-family="Helvetica,sans-Serif" font-size="10.00" fill="#000000">utilstrencodings.h</text>
</a>
</g>
</g>
<!-- Node0&#45;&gt;Node85 -->
<g id="edge165" class="edge">
<title>Node0&#45;&gt;Node85</title>
<path fill="none" stroke="#191970" d="M2187.9988,-459.0637C1952.7196,-455.8286 576,-433.3171 576,-349.5 576,-349.5 576,-349.5 576,-294.5 576,-211.4127 840.454,-115.2904 940.9095,-81.7747"/>
<polygon fill="#191970" stroke="#191970" points="942.2685,-85.0117 950.6618,-78.5461 940.0685,-78.3663 942.2685,-85.0117"/>
</g>
<!-- Node125 -->
<g id="node50" class="node">
<title>Node125</title>
<polygon fill="#ffffff" stroke="#bfbfbf" points="2724.4683,-395.5 2724.4683,-413.5 2855.5317,-413.5 2855.5317,-395.5 2724.4683,-395.5"/>
<text text-anchor="middle" x="2790" y="-401.5" font-family="Helvetica,sans-Serif" font-size="10.00" fill="#000000">boost/algorithm/string.hpp</text>
</g>
<!-- Node0&#45;&gt;Node125 -->
<g id="edge170" class="edge">
<title>Node0&#45;&gt;Node125</title>
<path fill="none" stroke="#191970" d="M2256.0481,-456.6231C2335.575,-449.8384 2539.7106,-432.0467 2710,-414 2711.2909,-413.8632 2712.5933,-413.7238 2713.9048,-413.5823"/>
<polygon fill="#191970" stroke="#191970" points="2714.5371,-417.0339 2724.0937,-412.4598 2713.7705,-410.076 2714.5371,-417.0339"/>
</g>
<!-- Node2 -->
<g id="node3" class="node">
<title>Node2</title>
<g id="a_node3"><a xlink:href="arith__uint256_8h.html" target="_top" xlink:title="arith_uint256.h">
<polygon fill="#ffffff" stroke="#ff0000" points="831.9189,-60.5 831.9189,-78.5 914.0811,-78.5 914.0811,-60.5 831.9189,-60.5"/>
<text text-anchor="middle" x="873" y="-66.5" font-family="Helvetica,sans-Serif" font-size="10.00" fill="#000000">arith_uint256.h</text>
</a>
</g>
</g>
<!-- Node1&#45;&gt;Node2 -->
<g id="edge2" class="edge">
<title>Node1&#45;&gt;Node2</title>
<path fill="none" stroke="#191970" d="M994.6397,-289.1535C954.6541,-278.8421 876.8583,-251.9094 850,-194 833.6622,-158.7739 850.8259,-112.8774 863.034,-87.8123"/>
<polygon fill="#191970" stroke="#191970" points="866.2475,-89.2159 867.6972,-78.7207 860.0191,-86.0212 866.2475,-89.2159"/>
</g>
<!-- Node8 -->
<g id="node7" class="node">
<title>Node8</title>
<polygon fill="#ffffff" stroke="#bfbfbf" points="573.3843,-.5 573.3843,-18.5 616.6157,-18.5 616.6157,-.5 573.3843,-.5"/>
<text text-anchor="middle" x="595" y="-6.5" font-family="Helvetica,sans-Serif" font-size="10.00" fill="#000000">vector</text>
</g>
<!-- Node1&#45;&gt;Node8 -->
<g id="edge43" class="edge">
<title>Node1&#45;&gt;Node8</title>
<path fill="none" stroke="#191970" d="M994.7035,-292.265C909.7733,-283.9943 627.7619,-252.5351 562,-194 514.1613,-151.4185 493.2705,-111.191 524,-55 532.5283,-39.4054 548.936,-28.3688 563.8315,-21.0743"/>
<polygon fill="#191970" stroke="#191970" points="565.6213,-24.107 573.3036,-16.8109 562.7482,-17.7238 565.6213,-24.107"/>
</g>
<!-- Node9 -->
<g id="node8" class="node">
<title>Node9</title>
<g id="a_node8"><a xlink:href="params_8h.html" target="_top" xlink:title="consensus/params.h">
<polygon fill="#ffffff" stroke="#ff0000" points="858.8647,-175.5 858.8647,-193.5 967.1353,-193.5 967.1353,-175.5 858.8647,-175.5"/>
<text text-anchor="middle" x="913" y="-181.5" font-family="Helvetica,sans-Serif" font-size="10.00" fill="#000000">consensus/params.h</text>
</a>
</g>
</g>
<!-- Node1&#45;&gt;Node9 -->
<g id="edge7" class="edge">
<title>Node1&#45;&gt;Node9</title>
<path fill="none" stroke="#191970" d="M994.7883,-288.6352C973.9718,-282.3271 944.736,-270.2193 928,-249 917.988,-236.3059 914.4492,-218.0952 913.2932,-204.259"/>
<polygon fill="#191970" stroke="#191970" points="916.7705,-203.7024 912.7927,-193.8826 909.7786,-204.0397 916.7705,-203.7024"/>
</g>
<!-- Node10 -->
<g id="node9" class="node">
<title>Node10</title>
<g id="a_node9"><a xlink:href="uint256_8h.html" target="_top" xlink:title="uint256.h">
<polygon fill="#ffffff" stroke="#ff0000" points="1157.4263,-120.5 1157.4263,-138.5 1214.5737,-138.5 1214.5737,-120.5 1157.4263,-120.5"/>
<text text-anchor="middle" x="1186" y="-126.5" font-family="Helvetica,sans-Serif" font-size="10.00" fill="#000000">uint256.h</text>
</a>
</g>
</g>
<!-- Node1&#45;&gt;Node10 -->
<g id="edge42" class="edge">
<title>Node1&#45;&gt;Node10</title>
<path fill="none" stroke="#191970" d="M1028.4571,-285.1561C1055.6694,-258.2698 1134.4344,-180.448 1169.1864,-146.1123"/>
<polygon fill="#191970" stroke="#191970" points="1171.993,-148.2595 1176.6466,-138.7414 1167.0731,-143.28 1171.993,-148.2595"/>
</g>
<!-- Node1&#45;&gt;Node17 -->
<g id="edge15" class="edge">
<title>Node1&#45;&gt;Node17</title>
<path fill="none" stroke="#191970" d="M1043.1988,-286.3846C1070.3737,-277.271 1114.7807,-262.3784 1146.247,-251.8257"/>
<polygon fill="#191970" stroke="#191970" points="1147.6023,-255.0628 1155.9704,-248.5648 1145.3765,-248.4261 1147.6023,-255.0628"/>
</g>
<!-- Node49 -->
<g id="node21" class="node">
<title>Node49</title>
<g id="a_node21"><a xlink:href="tinyformat_8h.html" target="_top" xlink:title="tinyformat.h">
<polygon fill="#ffffff" stroke="#ff0000" points="936.8794,-230.5 936.8794,-248.5 1005.1206,-248.5 1005.1206,-230.5 936.8794,-230.5"/>
<text text-anchor="middle" x="971" y="-236.5" font-family="Helvetica,sans-Serif" font-size="10.00" fill="#000000">tinyformat.h</text>
</a>
</g>
</g>
<!-- Node1&#45;&gt;Node49 -->
<g id="edge40" class="edge">
<title>Node1&#45;&gt;Node49</title>
<path fill="none" stroke="#191970" d="M1011.0738,-285.4179C1004.2363,-277.5833 994.1775,-266.0575 985.8483,-256.5137"/>
<polygon fill="#191970" stroke="#191970" points="988.3108,-254.0123 979.0984,-248.7795 983.0368,-258.6151 988.3108,-254.0123"/>
</g>
<!-- Node3 -->
<g id="node4" class="node">
<title>Node3</title>
<polygon fill="#ffffff" stroke="#bfbfbf" points="1066.2144,-.5 1066.2144,-18.5 1117.7856,-18.5 1117.7856,-.5 1066.2144,-.5"/>
<text text-anchor="middle" x="1092" y="-6.5" font-family="Helvetica,sans-Serif" font-size="10.00" fill="#000000">assert.h</text>
</g>
<!-- Node2&#45;&gt;Node3 -->
<g id="edge3" class="edge">
<title>Node2&#45;&gt;Node3</title>
<path fill="none" stroke="#191970" d="M903.913,-60.4344C910.2218,-58.6127 916.8199,-56.7279 923,-55 968.8786,-42.1729 1021.9489,-27.9916 1056.1946,-18.9258"/>
<polygon fill="#191970" stroke="#191970" points="1057.416,-22.2232 1066.1894,-16.2837 1055.627,-15.4557 1057.416,-22.2232"/>
</g>
<!-- Node6 -->
<g id="node5" class="node">
<title>Node6</title>
<polygon fill="#ffffff" stroke="#bfbfbf" points="2090.8794,-.5 2090.8794,-18.5 2139.1206,-18.5 2139.1206,-.5 2090.8794,-.5"/>
<text text-anchor="middle" x="2115" y="-6.5" font-family="Helvetica,sans-Serif" font-size="10.00" fill="#000000">stdint.h</text>
</g>
<!-- Node2&#45;&gt;Node6 -->
<g id="edge4" class="edge">
<title>Node2&#45;&gt;Node6</title>
<path fill="none" stroke="#191970" d="M899.7086,-60.4305C907.163,-58.2636 915.3243,-56.2252 923,-55 1153.3327,-18.2351 1739.0469,-30.7322 1972,-19 2009.1812,-17.1274 2051.7496,-14.1985 2080.7065,-12.0878"/>
<polygon fill="#191970" stroke="#191970" points="2081.0076,-15.5752 2090.7237,-11.3506 2080.4938,-8.594 2081.0076,-15.5752"/>
</g>
<!-- Node7 -->
<g id="node6" class="node">
<title>Node7</title>
<polygon fill="#ffffff" stroke="#bfbfbf" points="1413.7734,-.5 1413.7734,-18.5 1454.2266,-18.5 1454.2266,-.5 1413.7734,-.5"/>
<text text-anchor="middle" x="1434" y="-6.5" font-family="Helvetica,sans-Serif" font-size="10.00" fill="#000000">string</text>
</g>
<!-- Node2&#45;&gt;Node7 -->
<g id="edge5" class="edge">
<title>Node2&#45;&gt;Node7</title>
<path fill="none" stroke="#191970" d="M900.5392,-60.4802C907.7791,-58.3946 915.627,-56.3838 923,-55 1102.7515,-21.2623 1322.9124,-12.3735 1403.0062,-10.1766"/>
<polygon fill="#191970" stroke="#191970" points="1403.4531,-13.6663 1413.3594,-9.9092 1403.2723,-6.6687 1403.4531,-13.6663"/>
</g>
<!-- Node2&#45;&gt;Node8 -->
<g id="edge6" class="edge">
<title>Node2&#45;&gt;Node8</title>
<path fill="none" stroke="#191970" d="M839.9197,-60.4552C832.7134,-58.5755 825.1158,-56.6625 818,-55 750.2851,-39.1791 670.283,-23.6074 626.8896,-15.4192"/>
<polygon fill="#191970" stroke="#191970" points="627.4042,-11.9547 616.9299,-13.5483 626.1119,-18.8344 627.4042,-11.9547"/>
</g>
<!-- Node9&#45;&gt;Node7 -->
<g id="edge14" class="edge">
<title>Node9&#45;&gt;Node7</title>
<path fill="none" stroke="#191970" d="M926.1287,-175.3818C961.2689,-151.4482 1061.1163,-86.5126 1154,-55 1241.5168,-25.3082 1351.1789,-14.6978 1403.4965,-11.1486"/>
<polygon fill="#191970" stroke="#191970" points="1404.0046,-14.6235 1413.7615,-10.4941 1403.5591,-7.6376 1404.0046,-14.6235"/>
</g>
<!-- Node9&#45;&gt;Node10 -->
<g id="edge8" class="edge">
<title>Node9&#45;&gt;Node10</title>
<path fill="none" stroke="#191970" d="M957.7747,-175.4795C1010.4509,-164.867 1097.0471,-147.4209 1147.0554,-137.346"/>
<polygon fill="#191970" stroke="#191970" points="1148.0341,-140.7192 1157.1459,-135.3131 1146.6516,-133.8571 1148.0341,-140.7192"/>
</g>
<!-- Node16 -->
<g id="node10" class="node">
<title>Node16</title>
<polygon fill="#ffffff" stroke="#bfbfbf" points="2805.2734,-.5 2805.2734,-18.5 2840.7266,-18.5 2840.7266,-.5 2805.2734,-.5"/>
<text text-anchor="middle" x="2823" y="-6.5" font-family="Helvetica,sans-Serif" font-size="10.00" fill="#000000">map</text>
</g>
<!-- Node9&#45;&gt;Node16 -->
<g id="edge13" class="edge">
<title>Node9&#45;&gt;Node16</title>
<path fill="none" stroke="#191970" d="M967.142,-182.9365C1032.3442,-181.0537 1145.1849,-177.7953 1242,-175 1519.1111,-166.9992 2213.7488,-172.0354 2489,-139 2605.4078,-125.0288 2643.7036,-139.4602 2747,-84 2773.1997,-69.9333 2796.4956,-44.1074 2810.1834,-26.8681"/>
<polygon fill="#191970" stroke="#191970" points="2813.1094,-28.8046 2816.4299,-18.7435 2807.56,-24.5379 2813.1094,-28.8046"/>
</g>
<!-- Node10&#45;&gt;Node3 -->
<g id="edge9" class="edge">
<title>Node10&#45;&gt;Node3</title>
<path fill="none" stroke="#191970" d="M1164.4855,-120.3532C1148.9598,-112.7304 1128.5938,-100.4623 1116,-84 1103.5225,-67.6896 1097.4129,-44.6737 1094.5012,-28.5532"/>
<polygon fill="#191970" stroke="#191970" points="1097.9577,-28.0023 1092.9573,-18.6617 1091.0414,-29.0818 1097.9577,-28.0023"/>
</g>
<!-- Node10&#45;&gt;Node6 -->
<g id="edge10" class="edge">
<title>Node10&#45;&gt;Node6</title>
<path fill="none" stroke="#191970" d="M1213.8441,-120.4809C1264.835,-104.3743 1376.9029,-70.8686 1474,-55 1489.0935,-52.5333 1948.8564,-20.8936 2080.2474,-11.881"/>
<polygon fill="#191970" stroke="#191970" points="2080.7957,-15.3517 2090.5328,-11.1757 2080.3168,-8.3681 2080.7957,-15.3517"/>
</g>
<!-- Node10&#45;&gt;Node7 -->
<g id="edge11" class="edge">
<title>Node10&#45;&gt;Node7</title>
<path fill="none" stroke="#191970" d="M1198.7914,-120.2723C1220.1773,-105.1453 1264.9018,-74.7802 1306,-55 1338.2686,-39.4694 1377.2899,-26.3549 1403.7008,-18.2542"/>
<polygon fill="#191970" stroke="#191970" points="1404.9416,-21.5358 1413.5064,-15.2993 1402.9219,-14.8335 1404.9416,-21.5358"/>
</g>
<!-- Node10&#45;&gt;Node8 -->
<g id="edge12" class="edge">
<title>Node10&#45;&gt;Node8</title>
<path fill="none" stroke="#191970" d="M1157.2354,-128.4565C1068.0027,-124.9494 796.9115,-112.1889 714,-84 675.088,-70.7704 635.8093,-42.6478 613.5284,-24.9905"/>
<polygon fill="#191970" stroke="#191970" points="615.5702,-22.1404 605.5946,-18.5714 611.1673,-27.5823 615.5702,-22.1404"/>
</g>
<!-- Node17&#45;&gt;Node10 -->
<g id="edge39" class="edge">
<title>Node17&#45;&gt;Node10</title>
<path fill="none" stroke="#191970" d="M1179.2856,-230.339C1174.6854,-217.8569 1167.8216,-194.7929 1171,-175 1172.4488,-165.978 1175.4165,-156.3202 1178.3327,-148.2336"/>
<polygon fill="#191970" stroke="#191970" points="1181.6787,-149.2838 1182.0045,-138.6939 1175.1459,-146.7693 1181.6787,-149.2838"/>
</g>
<!-- Node17&#45;&gt;Node18 -->
<g id="edge16" class="edge">
<title>Node17&#45;&gt;Node18</title>
<path fill="none" stroke="#191970" d="M1229.5547,-233.8725C1309.8645,-224.1647 1474.8336,-204.2234 1568.6848,-192.8788"/>
<polygon fill="#191970" stroke="#191970" points="1569.1454,-196.3487 1578.653,-191.6738 1568.3053,-189.3992 1569.1454,-196.3487"/>
</g>
<!-- Node41 -->
<g id="node15" class="node">
<title>Node41</title>
<g id="a_node15"><a xlink:href="serialize_8h.html" target="_top" xlink:title="serialize.h">
<polygon fill="#ffffff" stroke="#ff0000" points="1538.4902,-60.5 1538.4902,-78.5 1599.5098,-78.5 1599.5098,-60.5 1538.4902,-60.5"/>
<text text-anchor="middle" x="1569" y="-66.5" font-family="Helvetica,sans-Serif" font-size="10.00" fill="#000000">serialize.h</text>
</a>
</g>
</g>
<!-- Node17&#45;&gt;Node41 -->
<g id="edge38" class="edge">
<title>Node17&#45;&gt;Node41</title>
<path fill="none" stroke="#191970" d="M1188.535,-230.1936C1197.6757,-215.7397 1217.3871,-188.1891 1242,-175 1333.9725,-125.7155 1377.6008,-178.9385 1474,-139 1504.3396,-126.4302 1534.0243,-102.2541 1551.9205,-85.9967"/>
<polygon fill="#191970" stroke="#191970" points="1554.7806,-88.1156 1559.7102,-78.7374 1550.0082,-82.9946 1554.7806,-88.1156"/>
</g>
<!-- Node18&#45;&gt;Node6 -->
<g id="edge17" class="edge">
<title>Node18&#45;&gt;Node6</title>
<path fill="none" stroke="#191970" d="M1697.3397,-181.0175C1786.218,-175.1443 1949.2213,-161.6419 2003,-139 2039.1442,-123.7826 2046.4177,-113.7241 2072,-84 2086.7039,-66.9155 2099.017,-44.0788 2106.647,-28.2119"/>
<polygon fill="#191970" stroke="#191970" points="2109.9237,-29.4658 2110.9628,-18.922 2103.5753,-26.5165 2109.9237,-29.4658"/>
</g>
<!-- Node18&#45;&gt;Node10 -->
<g id="edge37" class="edge">
<title>Node18&#45;&gt;Node10</title>
<path fill="none" stroke="#191970" d="M1578.6518,-176.6623C1574.0339,-176.0874 1569.442,-175.5269 1565,-175 1415.8577,-157.3081 1377.2195,-163.237 1229,-139 1227.5381,-138.761 1226.0513,-138.5037 1224.5515,-138.2323"/>
<polygon fill="#191970" stroke="#191970" points="1225.0824,-134.7698 1214.5958,-136.2804 1223.7356,-141.639 1225.0824,-134.7698"/>
</g>
<!-- Node19 -->
<g id="node13" class="node">
<title>Node19</title>
<g id="a_node13"><a xlink:href="amount_8h.html" target="_top" xlink:title="amount.h">
<polygon fill="#ffffff" stroke="#000000" points="2131.1528,-120.5 2131.1528,-138.5 2188.8472,-138.5 2188.8472,-120.5 2131.1528,-120.5"/>
<text text-anchor="middle" x="2160" y="-126.5" font-family="Helvetica,sans-Serif" font-size="10.00" fill="#000000">amount.h</text>
</a>
</g>
</g>
<!-- Node18&#45;&gt;Node19 -->
<g id="edge18" class="edge">
<title>Node18&#45;&gt;Node19</title>
<path fill="none" stroke="#191970" d="M1697.3718,-178.2443C1805.2005,-166.8831 2030.4245,-143.1526 2121.0203,-133.6071"/>
<polygon fill="#191970" stroke="#191970" points="2121.5545,-137.0702 2131.1327,-132.5416 2120.8209,-130.1088 2121.5545,-137.0702"/>
</g>
<!-- Node20 -->
<g id="node14" class="node">
<title>Node20</title>
<g id="a_node14"><a xlink:href="script_8h.html" target="_top" xlink:title="script/script.h">
<polygon fill="#ffffff" stroke="#ff0000" points="1390.5493,-120.5 1390.5493,-138.5 1465.4507,-138.5 1465.4507,-120.5 1390.5493,-120.5"/>
<text text-anchor="middle" x="1428" y="-126.5" font-family="Helvetica,sans-Serif" font-size="10.00" fill="#000000">script/script.h</text>
</a>
</g>
</g>
<!-- Node18&#45;&gt;Node20 -->
<g id="edge20" class="edge">
<title>Node18&#45;&gt;Node20</title>
<path fill="none" stroke="#191970" d="M1603.3228,-175.4179C1567.498,-166.0352 1511.4601,-151.3586 1472.4138,-141.1322"/>
<polygon fill="#191970" stroke="#191970" points="1472.9402,-137.6521 1462.3797,-138.5042 1471.1667,-144.4237 1472.9402,-137.6521"/>
</g>
<!-- Node18&#45;&gt;Node41 -->
<g id="edge36" class="edge">
<title>Node18&#45;&gt;Node41</title>
<path fill="none" stroke="#191970" d="M1632.5857,-175.4761C1621.2548,-156.5914 1594.8554,-112.5924 1579.8791,-87.6318"/>
<polygon fill="#191970" stroke="#191970" points="1582.7271,-85.5756 1574.5808,-78.8014 1576.7246,-89.1771 1582.7271,-85.5756"/>
</g>
<!-- Node19&#45;&gt;Node6 -->
<g id="edge19" class="edge">
<title>Node19&#45;&gt;Node6</title>
<path fill="none" stroke="#191970" d="M2159.8801,-120.4186C2159.3993,-106.0093 2157.2447,-77.2622 2148,-55 2143.7676,-44.8079 2136.8343,-34.7411 2130.4126,-26.678"/>
<polygon fill="#191970" stroke="#191970" points="2132.9095,-24.2089 2123.797,-18.8039 2127.55,-28.7118 2132.9095,-24.2089"/>
</g>
<!-- Node20&#45;&gt;Node3 -->
<g id="edge32" class="edge">
<title>Node20&#45;&gt;Node3</title>
<path fill="none" stroke="#191970" d="M1390.2651,-123.938C1349.7607,-117.2578 1283.9622,-104.3392 1230,-84 1187.1548,-67.851 1141.0481,-40.7691 1114.4547,-24.0874"/>
<polygon fill="#191970" stroke="#191970" points="1116.2177,-21.0609 1105.8994,-18.6556 1112.4656,-26.9704 1116.2177,-21.0609"/>
</g>
<!-- Node20&#45;&gt;Node6 -->
<g id="edge33" class="edge">
<title>Node20&#45;&gt;Node6</title>
<path fill="none" stroke="#191970" d="M1436.6846,-120.3394C1452.9731,-103.8466 1490.0001,-69.5245 1529,-55 1542.023,-50.1499 1957.4265,-20.5921 2080.7881,-11.9013"/>
<polygon fill="#191970" stroke="#191970" points="2081.0835,-15.3892 2090.8131,-11.1957 2080.592,-8.4065 2081.0835,-15.3892"/>
</g>
<!-- Node20&#45;&gt;Node7 -->
<g id="edge34" class="edge">
<title>Node20&#45;&gt;Node7</title>
<path fill="none" stroke="#191970" d="M1428.451,-120.4805C1429.4196,-101.1085 1431.7172,-55.155 1433.0321,-28.8576"/>
<polygon fill="#191970" stroke="#191970" points="1436.54,-28.7865 1433.5438,-18.6242 1429.5487,-28.4369 1436.54,-28.7865"/>
</g>
<!-- Node20&#45;&gt;Node8 -->
<g id="edge35" class="edge">
<title>Node20&#45;&gt;Node8</title>
<path fill="none" stroke="#191970" d="M1390.5474,-127.3152C1258.1747,-119.5299 818.7427,-93.1227 790,-84 766.2433,-76.4598 764.7398,-65.2048 742,-55 703.7358,-37.8285 657.1203,-24.6065 626.7861,-16.9477"/>
<polygon fill="#191970" stroke="#191970" points="627.3236,-13.4753 616.7759,-14.4733 625.6438,-20.2708 627.3236,-13.4753"/>
</g>
<!-- Node20&#45;&gt;Node41 -->
<g id="edge21" class="edge">
<title>Node20&#45;&gt;Node41</title>
<path fill="none" stroke="#191970" d="M1449.4149,-120.3873C1473.1551,-110.2851 1511.6375,-93.9096 1538.5166,-82.4717"/>
<polygon fill="#191970" stroke="#191970" points="1540.0145,-85.638 1547.8456,-78.5019 1537.2736,-79.1969 1540.0145,-85.638"/>
</g>
<!-- Node41&#45;&gt;Node3 -->
<g id="edge23" class="edge">
<title>Node41&#45;&gt;Node3</title>
<path fill="none" stroke="#191970" d="M1538.4359,-65.6555C1454.0778,-55.0444 1218.2736,-25.3835 1127.8876,-14.0142"/>
<polygon fill="#191970" stroke="#191970" points="1128.2124,-10.5275 1117.8538,-12.752 1127.3387,-17.4728 1128.2124,-10.5275"/>
</g>
<!-- Node41&#45;&gt;Node6 -->
<g id="edge28" class="edge">
<title>Node41&#45;&gt;Node6</title>
<path fill="none" stroke="#191970" d="M1599.6473,-63.166C1613.983,-60.3671 1631.3161,-57.2159 1647,-55 1808.3464,-32.2038 2002.6144,-17.2943 2080.3683,-11.8321"/>
<polygon fill="#191970" stroke="#191970" points="2080.8177,-15.3094 2090.5509,-11.1242 2080.3322,-8.3263 2080.8177,-15.3094"/>
</g>
<!-- Node41&#45;&gt;Node7 -->
<g id="edge29" class="edge">
<title>Node41&#45;&gt;Node7</title>
<path fill="none" stroke="#191970" d="M1548.4964,-60.3873C1525.8661,-50.3294 1489.2445,-34.0531 1463.5255,-22.6225"/>
<polygon fill="#191970" stroke="#191970" points="1464.8138,-19.365 1454.2542,-18.5019 1461.9708,-25.7617 1464.8138,-19.365"/>
</g>
<!-- Node41&#45;&gt;Node8 -->
<g id="edge31" class="edge">
<title>Node41&#45;&gt;Node8</title>
<path fill="none" stroke="#191970" d="M1538.2414,-67.6052C1392.8113,-58.6465 775.0689,-20.5925 626.9945,-11.4709"/>
<polygon fill="#191970" stroke="#191970" points="626.9712,-7.9629 616.7749,-10.8414 626.5408,-14.9497 626.9712,-7.9629"/>
</g>
<!-- Node41&#45;&gt;Node16 -->
<g id="edge25" class="edge">
<title>Node41&#45;&gt;Node16</title>
<path fill="none" stroke="#191970" d="M1599.5908,-62.7145C1613.9145,-59.8206 1631.2539,-56.7199 1647,-55 2117.8036,-3.576 2239.2368,-47.2024 2712,-19 2740.2063,-17.3174 2772.3689,-14.4613 2794.7863,-12.3191"/>
<polygon fill="#191970" stroke="#191970" points="2795.3331,-15.7826 2804.9483,-11.3331 2794.657,-8.8153 2795.3331,-15.7826"/>
</g>
<!-- Node42 -->
<g id="node16" class="node">
<title>Node42</title>
<polygon fill="#ffffff" stroke="#bfbfbf" points="1651.436,-.5 1651.436,-18.5 1708.564,-18.5 1708.564,-.5 1651.436,-.5"/>
<text text-anchor="middle" x="1680" y="-6.5" font-family="Helvetica,sans-Serif" font-size="10.00" fill="#000000">algorithm</text>
</g>
<!-- Node41&#45;&gt;Node42 -->
<g id="edge22" class="edge">
<title>Node41&#45;&gt;Node42</title>
<path fill="none" stroke="#191970" d="M1585.8585,-60.3873C1604.0558,-50.5509 1633.2558,-34.7671 1654.3133,-23.3847"/>
<polygon fill="#191970" stroke="#191970" points="1656.2138,-26.3361 1663.3465,-18.5019 1652.8851,-20.1781 1656.2138,-26.3361"/>
</g>
<!-- Node43 -->
<g id="node17" class="node">
<title>Node43</title>
<polygon fill="#ffffff" stroke="#bfbfbf" points="1790.5,-.5 1790.5,-18.5 1819.5,-18.5 1819.5,-.5 1790.5,-.5"/>
<text text-anchor="middle" x="1804.8916" y="-6.5" font-family="Helvetica,sans-Serif" font-size="10.00" fill="#000000">ios</text>
</g>
<!-- Node41&#45;&gt;Node43 -->
<g id="edge24" class="edge">
<title>Node41&#45;&gt;Node43</title>
<path fill="none" stroke="#191970" d="M1599.8529,-61.656C1647.3076,-49.5913 1737.2487,-26.7249 1780.5273,-15.7219"/>
<polygon fill="#191970" stroke="#191970" points="1781.6414,-19.05 1790.4707,-13.1939 1779.9166,-12.2659 1781.6414,-19.05"/>
</g>
<!-- Node44 -->
<g id="node18" class="node">
<title>Node44</title>
<polygon fill="#ffffff" stroke="#bfbfbf" points="87.9434,-.5 87.9434,-18.5 140.0566,-18.5 140.0566,-.5 87.9434,-.5"/>
<text text-anchor="middle" x="114" y="-6.5" font-family="Helvetica,sans-Serif" font-size="10.00" fill="#000000">memory</text>
</g>
<!-- Node41&#45;&gt;Node44 -->
<g id="edge26" class="edge">
<title>Node41&#45;&gt;Node44</title>
<path fill="none" stroke="#191970" d="M1538.2746,-68.233C1349.9818,-60.4683 353.4246,-19.3732 150.2009,-10.9928"/>
<polygon fill="#191970" stroke="#191970" points="150.1992,-7.4899 140.0634,-10.5748 149.9107,-14.4839 150.1992,-7.4899"/>
</g>
<!-- Node45 -->
<g id="node19" class="node">
<title>Node45</title>
<polygon fill="#ffffff" stroke="#bfbfbf" points="2673.3301,-.5 2673.3301,-18.5 2702.6699,-18.5 2702.6699,-.5 2673.3301,-.5"/>
<text text-anchor="middle" x="2688" y="-6.5" font-family="Helvetica,sans-Serif" font-size="10.00" fill="#000000">set</text>
</g>
<!-- Node41&#45;&gt;Node45 -->
<g id="edge27" class="edge">
<title>Node41&#45;&gt;Node45</title>
<path fill="none" stroke="#191970" d="M1599.5946,-62.7487C1613.9191,-59.862 1631.2581,-56.7575 1647,-55 2059.413,-8.9569 2165.852,-45.1889 2580,-19 2608.4437,-17.2013 2641.023,-14.2069 2662.8949,-12.0605"/>
<polygon fill="#191970" stroke="#191970" points="2663.3882,-15.5287 2672.9921,-11.055 2662.6945,-8.5632 2663.3882,-15.5287"/>
</g>
<!-- Node46 -->
<g id="node20" class="node">
<title>Node46</title>
<polygon fill="#ffffff" stroke="#bfbfbf" points="1924.6084,-.5 1924.6084,-18.5 1963.3916,-18.5 1963.3916,-.5 1924.6084,-.5"/>
<text text-anchor="middle" x="1944" y="-6.5" font-family="Helvetica,sans-Serif" font-size="10.00" fill="#000000">utility</text>
</g>
<!-- Node41&#45;&gt;Node46 -->
<g id="edge30" class="edge">
<title>Node41&#45;&gt;Node46</title>
<path fill="none" stroke="#191970" d="M1599.7083,-63.5584C1614.0567,-60.842 1631.383,-57.6471 1647,-55 1744.6747,-38.4437 1860.8832,-21.4111 1914.3707,-13.7208"/>
<polygon fill="#191970" stroke="#191970" points="1915.1039,-17.1515 1924.5059,-12.2676 1914.1103,-10.2224 1915.1039,-17.1515"/>
</g>
<!-- Node49&#45;&gt;Node42 -->
<g id="edge41" class="edge">
<title>Node49&#45;&gt;Node42</title>
<path fill="none" stroke="#191970" d="M982.3397,-230.2173C1009.4642,-208.3898 1080.8423,-153.1538 1148,-120 1318.4596,-35.8491 1550.2151,-15.7104 1641.1346,-10.9499"/>
<polygon fill="#191970" stroke="#191970" points="1641.4426,-14.4392 1651.2593,-10.4538 1641.0999,-7.4475 1641.4426,-14.4392"/>
</g>
<!-- Node53&#45;&gt;Node8 -->
<g id="edge59" class="edge">
<title>Node53&#45;&gt;Node8</title>
<path fill="none" stroke="#191970" d="M372.9295,-285.4109C331.6843,-271.2089 264,-239.5208 264,-184.5 264,-184.5 264,-184.5 264,-129.5 264,-95.329 257.604,-77.8626 283,-55 303.6481,-36.4117 487.7627,-18.6908 563.0907,-12.1516"/>
<polygon fill="#191970" stroke="#191970" points="563.7185,-15.6107 573.3829,-11.2692 563.1204,-8.6363 563.7185,-15.6107"/>
</g>
<!-- Node53&#45;&gt;Node9 -->
<g id="edge49" class="edge">
<title>Node53&#45;&gt;Node9</title>
<path fill="none" stroke="#191970" d="M445.2225,-285.5914C537.3195,-265.6883 759.6335,-217.644 861.0272,-195.7318"/>
<polygon fill="#191970" stroke="#191970" points="862.0007,-199.1023 871.0358,-193.5689 860.5221,-192.2603 862.0007,-199.1023"/>
</g>
<!-- Node53&#45;&gt;Node17 -->
<g id="edge50" class="edge">
<title>Node53&#45;&gt;Node17</title>
<path fill="none" stroke="#191970" d="M445.0586,-291.6011C574.8395,-282.4382 976.448,-254.0833 1126.0606,-243.5201"/>
<polygon fill="#191970" stroke="#191970" points="1126.6613,-246.9865 1136.39,-242.7908 1126.1683,-240.0039 1126.6613,-246.9865"/>
</g>
<!-- Node53&#45;&gt;Node44 -->
<g id="edge58" class="edge">
<title>Node53&#45;&gt;Node44</title>
<path fill="none" stroke="#191970" d="M363.1218,-289.5456C275.1956,-277.7486 76,-244.4113 76,-184.5 76,-184.5 76,-184.5 76,-129.5 76,-91.8088 93.249,-50.435 104.5044,-27.4496"/>
<polygon fill="#191970" stroke="#191970" points="107.6291,-29.0264 109.0322,-18.5249 101.3865,-25.8593 107.6291,-29.0264"/>
</g>
<!-- Node54 -->
<g id="node23" class="node">
<title>Node54</title>
<g id="a_node23"><a xlink:href="chainparamsbase_8h.html" target="_top" xlink:title="chainparamsbase.h">
<polygon fill="#ffffff" stroke="#000000" points="292.3623,-60.5 292.3623,-78.5 395.6377,-78.5 395.6377,-60.5 292.3623,-60.5"/>
<text text-anchor="middle" x="344" y="-66.5" font-family="Helvetica,sans-Serif" font-size="10.00" fill="#000000">chainparamsbase.h</text>
</a>
</g>
</g>
<!-- Node53&#45;&gt;Node54 -->
<g id="edge45" class="edge">
<title>Node53&#45;&gt;Node54</title>
<path fill="none" stroke="#191970" d="M401.5736,-285.4011C392.643,-251.9114 361.4804,-135.0514 349.1138,-88.6768"/>
<polygon fill="#191970" stroke="#191970" points="352.4816,-87.7222 346.5231,-78.9617 345.718,-89.5259 352.4816,-87.7222"/>
</g>
<!-- Node55 -->
<g id="node24" class="node">
<title>Node55</title>
<g id="a_node24"><a xlink:href="protocol_8h.html" target="_top" xlink:title="protocol.h">
<polygon fill="#ffffff" stroke="#ff0000" points="1399.042,-230.5 1399.042,-248.5 1458.958,-248.5 1458.958,-230.5 1399.042,-230.5"/>
<text text-anchor="middle" x="1429" y="-236.5" font-family="Helvetica,sans-Serif" font-size="10.00" fill="#000000">protocol.h</text>
</a>
</g>
</g>
<!-- Node53&#45;&gt;Node55 -->
<g id="edge51" class="edge">
<title>Node53&#45;&gt;Node55</title>
<path fill="none" stroke="#191970" d="M444.8137,-292.31C609.6774,-283.4636 1225.4471,-250.4224 1388.936,-241.6498"/>
<polygon fill="#191970" stroke="#191970" points="1389.243,-245.1384 1399.0411,-241.1076 1388.8679,-238.1485 1389.243,-245.1384"/>
</g>
<!-- Node54&#45;&gt;Node7 -->
<g id="edge47" class="edge">
<title>Node54&#45;&gt;Node7</title>
<path fill="none" stroke="#191970" d="M395.8397,-66.6464C587.3567,-56.1042 1251.7295,-19.5332 1403.1267,-11.1995"/>
<polygon fill="#191970" stroke="#191970" points="1403.7211,-14.6721 1413.5136,-10.6277 1403.3363,-7.6827 1403.7211,-14.6721"/>
</g>
<!-- Node54&#45;&gt;Node8 -->
<g id="edge48" class="edge">
<title>Node54&#45;&gt;Node8</title>
<path fill="none" stroke="#191970" d="M381.849,-60.4524C431.3773,-48.613 517.2834,-28.0777 563.4659,-17.038"/>
<polygon fill="#191970" stroke="#191970" points="564.3175,-20.4331 573.2298,-14.704 562.69,-13.625 564.3175,-20.4331"/>
</g>
<!-- Node54&#45;&gt;Node44 -->
<g id="edge46" class="edge">
<title>Node54&#45;&gt;Node44</title>
<path fill="none" stroke="#191970" d="M309.068,-60.3873C266.1382,-49.1882 193.656,-30.2798 150.168,-18.9351"/>
<polygon fill="#191970" stroke="#191970" points="150.8578,-15.498 140.2981,-16.3604 149.0908,-22.2713 150.8578,-15.498"/>
</g>
<!-- Node55&#45;&gt;Node6 -->
<g id="edge56" class="edge">
<title>Node55&#45;&gt;Node6</title>
<path fill="none" stroke="#191970" d="M1430.2037,-230.1438C1432.6178,-215.6216 1439.5097,-187.9793 1458,-175 1544.4616,-114.3082 1831.8057,-172.4697 1932,-139 2002.1864,-115.5544 2069.0581,-55.5058 2098.8261,-26.1543"/>
<polygon fill="#191970" stroke="#191970" points="2101.6299,-28.2993 2106.2102,-18.7457 2096.6719,-23.3577 2101.6299,-28.2993"/>
</g>
<!-- Node55&#45;&gt;Node7 -->
<g id="edge57" class="edge">
<title>Node55&#45;&gt;Node7</title>
<path fill="none" stroke="#191970" d="M1421.1347,-230.2134C1405.4162,-210.5213 1372.4191,-162.8604 1382,-120 1389.7813,-85.1899 1409.7925,-48.4106 1422.5989,-27.2835"/>
<polygon fill="#191970" stroke="#191970" points="1425.6018,-29.0824 1427.9062,-18.7412 1419.6559,-25.3883 1425.6018,-29.0824"/>
</g>
<!-- Node55&#45;&gt;Node10 -->
<g id="edge53" class="edge">
<title>Node55&#45;&gt;Node10</title>
<path fill="none" stroke="#191970" d="M1412.994,-230.3098C1389.8142,-217.1853 1345.362,-192.7053 1306,-175 1278.3184,-162.5486 1246.1163,-150.4644 1222.0438,-141.8826"/>
<polygon fill="#191970" stroke="#191970" points="1223.1847,-138.5737 1212.5899,-138.5431 1220.8532,-145.174 1223.1847,-138.5737"/>
</g>
<!-- Node55&#45;&gt;Node41 -->
<g id="edge52" class="edge">
<title>Node55&#45;&gt;Node41</title>
<path fill="none" stroke="#191970" d="M1424.9643,-230.1052C1419.8199,-216.5079 1412.945,-191.2023 1425,-175 1458.2381,-130.327 1504.8274,-177.5566 1545,-139 1558.7843,-125.7702 1564.6542,-104.2535 1567.1523,-88.6621"/>
<polygon fill="#191970" stroke="#191970" points="1570.6474,-88.922 1568.4403,-78.5596 1563.7036,-88.0366 1570.6474,-88.922"/>
</g>
<!-- Node55&#45;&gt;Node57 -->
<g id="edge54" class="edge">
<title>Node55&#45;&gt;Node57</title>
<path fill="none" stroke="#191970" d="M1439.8986,-230.4179C1449.6799,-222.2667 1464.2558,-210.1201 1475.9597,-200.3669"/>
<polygon fill="#191970" stroke="#191970" points="1478.4231,-202.8701 1483.8647,-193.7795 1473.9418,-197.4926 1478.4231,-202.8701"/>
</g>
<!-- Node58 -->
<g id="node26" class="node">
<title>Node58</title>
<polygon fill="#ffffff" stroke="#bfbfbf" points="1251.2734,-175.5 1251.2734,-193.5 1296.7266,-193.5 1296.7266,-175.5 1251.2734,-175.5"/>
<text text-anchor="middle" x="1274" y="-181.5" font-family="Helvetica,sans-Serif" font-size="10.00" fill="#000000">atomic</text>
</g>
<!-- Node55&#45;&gt;Node58 -->
<g id="edge55" class="edge">
<title>Node55&#45;&gt;Node58</title>
<path fill="none" stroke="#191970" d="M1403.4049,-230.4179C1376.9457,-221.0291 1335.5479,-206.3396 1306.7256,-196.1123"/>
<polygon fill="#191970" stroke="#191970" points="1307.6951,-192.7426 1297.1004,-192.6969 1305.3542,-199.3396 1307.6951,-192.7426"/>
</g>
<!-- Node59&#45;&gt;Node7 -->
<g id="edge62" class="edge">
<title>Node59&#45;&gt;Node7</title>
<path fill="none" stroke="#191970" d="M637.0039,-175.4009C643.4318,-161.7181 657.2591,-135.7712 676,-120 730.657,-74.004 753.7036,-72.35 823,-55 934.8548,-26.9945 1295.4764,-13.7905 1403.2828,-10.4037"/>
<polygon fill="#191970" stroke="#191970" points="1403.5879,-13.8961 1413.4752,-10.0893 1403.372,-6.8994 1403.5879,-13.8961"/>
</g>
<!-- Node59&#45;&gt;Node8 -->
<g id="edge63" class="edge">
<title>Node59&#45;&gt;Node8</title>
<path fill="none" stroke="#191970" d="M630.957,-175.0912C624.9495,-147.4255 607.2573,-65.9483 599.1472,-28.5988"/>
<polygon fill="#191970" stroke="#191970" points="602.5037,-27.5622 596.9614,-18.5326 595.6631,-29.0476 602.5037,-27.5622"/>
</g>
<!-- Node59&#45;&gt;Node19 -->
<g id="edge61" class="edge">
<title>Node59&#45;&gt;Node19</title>
<path fill="none" stroke="#191970" d="M661.7792,-183.1439C703.3316,-181.2078 782.5497,-177.5985 850,-175 1330.7983,-156.4776 1451.1824,-157.0155 1932,-139 1998.2957,-136.516 2075.4166,-133.2168 2120.8341,-131.2318"/>
<polygon fill="#191970" stroke="#191970" points="2121.0131,-134.7274 2130.8502,-130.7929 2120.7065,-127.7341 2121.0131,-134.7274"/>
</g>
<!-- Node60&#45;&gt;Node1 -->
<g id="edge65" class="edge">
<title>Node60&#45;&gt;Node1</title>
<path fill="none" stroke="#191970" d="M1132.2224,-395.3196C1120.7539,-386.2898 1102.919,-372.0062 1088,-359 1069.8148,-343.1463 1049.742,-324.2115 1035.9577,-310.9733"/>
<polygon fill="#191970" stroke="#191970" points="1038.2568,-308.3281 1028.6301,-303.9035 1033.3965,-313.3657 1038.2568,-308.3281"/>
</g>
<!-- Node61 -->
<g id="node29" class="node">
<title>Node61</title>
<g id="a_node29"><a xlink:href="base_8h.html" target="_top" xlink:title="index/base.h">
<polygon fill="#ffffff" stroke="#ff0000" points="1146.6455,-285.5 1146.6455,-303.5 1219.3545,-303.5 1219.3545,-285.5 1146.6455,-285.5"/>
<text text-anchor="middle" x="1183" y="-291.5" font-family="Helvetica,sans-Serif" font-size="10.00" fill="#000000">index/base.h</text>
</a>
</g>
</g>
<!-- Node60&#45;&gt;Node61 -->
<g id="edge66" class="edge">
<title>Node60&#45;&gt;Node61</title>
<path fill="none" stroke="#191970" d="M1147.1915,-395.4982C1153.5335,-377.6108 1167.8398,-337.2594 1176.325,-313.3271"/>
<polygon fill="#191970" stroke="#191970" points="1179.7215,-314.2209 1179.7644,-303.6261 1173.1239,-311.8817 1179.7215,-314.2209"/>
</g>
<!-- Node92 -->
<g id="node30" class="node">
<title>Node92</title>
<g id="a_node30"><a xlink:href="txdb_8h.html" target="_top" xlink:title="txdb.h">
<polygon fill="#ffffff" stroke="#ff0000" points="1097.3794,-340.5 1097.3794,-358.5 1140.6206,-358.5 1140.6206,-340.5 1097.3794,-340.5"/>
<text text-anchor="middle" x="1119" y="-346.5" font-family="Helvetica,sans-Serif" font-size="10.00" fill="#000000">txdb.h</text>
</a>
</g>
</g>
<!-- Node60&#45;&gt;Node92 -->
<g id="edge70" class="edge">
<title>Node60&#45;&gt;Node92</title>
<path fill="none" stroke="#191970" d="M1139.8718,-395.4179C1136.4904,-387.9789 1131.5965,-377.2123 1127.3973,-367.9742"/>
<polygon fill="#191970" stroke="#191970" points="1130.5423,-366.4348 1123.2179,-358.7795 1124.1697,-369.3315 1130.5423,-366.4348"/>
</g>
<!-- Node61&#45;&gt;Node10 -->
<g id="edge69" class="edge">
<title>Node61&#45;&gt;Node10</title>
<path fill="none" stroke="#191970" d="M1165.2615,-285.4258C1152.2796,-277.6967 1135.6509,-265.259 1128,-249 1124.4045,-241.3592 1125.8151,-238.1569 1128,-230 1136.5492,-198.0825 1157.9532,-165.8081 1172.2298,-146.7369"/>
<polygon fill="#191970" stroke="#191970" points="1175.0719,-148.7827 1178.3972,-138.7232 1169.5245,-144.5134 1175.0719,-148.7827"/>
</g>
<!-- Node61&#45;&gt;Node17 -->
<g id="edge67" class="edge">
<title>Node61&#45;&gt;Node17</title>
<path fill="none" stroke="#191970" d="M1183,-285.4179C1183,-278.2164 1183,-267.8962 1183,-258.8632"/>
<polygon fill="#191970" stroke="#191970" points="1186.5001,-258.7794 1183,-248.7795 1179.5001,-258.7795 1186.5001,-258.7794"/>
</g>
<!-- Node61&#45;&gt;Node18 -->
<g id="edge68" class="edge">
<title>Node61&#45;&gt;Node18</title>
<path fill="none" stroke="#191970" d="M1219.4876,-291.0865C1274.1834,-285.4306 1380.3678,-272.3565 1468,-249 1518.8037,-235.4594 1575.4616,-212.2351 1608.8505,-197.6598"/>
<polygon fill="#191970" stroke="#191970" points="1610.291,-200.8498 1618.03,-193.6139 1607.4678,-194.4444 1610.291,-200.8498"/>
</g>
<!-- Node92&#45;&gt;Node1 -->
<g id="edge77" class="edge">
<title>Node92&#45;&gt;Node1</title>
<path fill="none" stroke="#191970" d="M1102.487,-340.4179C1086.7089,-331.7399 1062.6972,-318.5334 1044.4685,-308.5077"/>
<polygon fill="#191970" stroke="#191970" points="1045.9864,-305.3481 1035.5375,-303.5956 1042.6129,-311.4816 1045.9864,-305.3481"/>
</g>
<!-- Node92&#45;&gt;Node7 -->
<g id="edge81" class="edge">
<title>Node92&#45;&gt;Node7</title>
<path fill="none" stroke="#191970" d="M1117.2886,-340.0823C1111.7352,-306.5119 1097.3655,-190.9296 1148,-120 1179.4509,-75.9431 1201.2123,-76.2451 1251,-55 1302.2492,-33.1312 1366.2417,-20.2294 1403.3801,-14.0376"/>
<polygon fill="#191970" stroke="#191970" points="1404.2393,-17.4443 1413.5551,-12.3979 1403.1256,-10.5335 1404.2393,-17.4443"/>
</g>
<!-- Node92&#45;&gt;Node8 -->
<g id="edge83" class="edge">
<title>Node92&#45;&gt;Node8</title>
<path fill="none" stroke="#191970" d="M1097.1454,-347.3927C1027.717,-340.1909 806.7094,-313.3487 636,-249 589.6262,-231.5194 573.9987,-229.0883 539,-194 494.3678,-149.2536 475.9782,-108.8872 509,-55 520.9498,-35.4994 544.3164,-23.8986 563.6802,-17.2962"/>
<polygon fill="#191970" stroke="#191970" points="564.8515,-20.5973 573.3598,-14.2838 562.7714,-13.9135 564.8515,-20.5973"/>
</g>
<!-- Node92&#45;&gt;Node16 -->
<g id="edge79" class="edge">
<title>Node92&#45;&gt;Node16</title>
<path fill="none" stroke="#191970" d="M1140.888,-349.0452C1265.9862,-346.3581 1891.5266,-331.7216 2082,-304 2217.898,-284.2213 2246.7856,-254.0109 2382,-230 2525.9593,-204.4362 2568.6801,-235.0865 2709,-194 2761.8388,-178.5285 2782.6471,-179.4483 2820,-139 2846.1826,-110.6477 2849.5834,-92.8401 2842,-55 2840.1313,-45.6754 2836.3064,-35.8752 2832.575,-27.7682"/>
<polygon fill="#191970" stroke="#191970" points="2835.6052,-25.9986 2828.0529,-18.5681 2829.3231,-29.0865 2835.6052,-25.9986"/>
</g>
<!-- Node92&#45;&gt;Node17 -->
<g id="edge78" class="edge">
<title>Node92&#45;&gt;Node17</title>
<path fill="none" stroke="#191970" d="M1120.2753,-340.1692C1122.3784,-327.0879 1127.4387,-302.8949 1138,-285 1144.5716,-273.8652 1154.4678,-263.4513 1163.3078,-255.4039"/>
<polygon fill="#191970" stroke="#191970" points="1165.7447,-257.9234 1171.0037,-248.7259 1161.1569,-252.6363 1165.7447,-257.9234"/>
</g>
<!-- Node92&#45;&gt;Node44 -->
<g id="edge80" class="edge">
<title>Node92&#45;&gt;Node44</title>
<path fill="none" stroke="#191970" d="M1097.2929,-349.3343C1006.27,-348.403 646.5282,-342.3567 354,-304 211.8763,-285.3645 38,-382.8402 38,-239.5 38,-239.5 38,-239.5 38,-129.5 38,-86.6723 72.9778,-46.7256 95.4751,-25.4617"/>
<polygon fill="#191970" stroke="#191970" points="98.0779,-27.8252 103.1111,-18.5022 93.3625,-22.6516 98.0779,-27.8252"/>
</g>
<!-- Node92&#45;&gt;Node46 -->
<g id="edge82" class="edge">
<title>Node92&#45;&gt;Node46</title>
<path fill="none" stroke="#191970" d="M1140.8351,-347.6395C1241.5421,-338.8399 1661.3985,-299.7022 1782,-249 1858.2104,-216.9603 1891.2653,-210.9392 1932,-139 1951.7614,-104.1006 1949.8771,-55.2864 1946.8711,-28.6684"/>
<polygon fill="#191970" stroke="#191970" points="1950.3382,-28.1881 1945.574,-18.7249 1943.397,-29.0937 1950.3382,-28.1881"/>
</g>
<!-- Node93 -->
<g id="node31" class="node">
<title>Node93</title>
<g id="a_node31"><a xlink:href="coins_8h.html" target="_top" xlink:title="coins.h">
<polygon fill="#ffffff" stroke="#ff0000" points="1725.1577,-230.5 1725.1577,-248.5 1772.8423,-248.5 1772.8423,-230.5 1725.1577,-230.5"/>
<text text-anchor="middle" x="1749" y="-236.5" font-family="Helvetica,sans-Serif" font-size="10.00" fill="#000000">coins.h</text>
</a>
</g>
</g>
<!-- Node92&#45;&gt;Node93 -->
<g id="edge71" class="edge">
<title>Node92&#45;&gt;Node93</title>
<path fill="none" stroke="#191970" d="M1140.686,-345.7136C1233.949,-329.4295 1601.3308,-265.2835 1715.1786,-245.4053"/>
<polygon fill="#191970" stroke="#191970" points="1715.8348,-248.8438 1725.0837,-243.6759 1714.6307,-241.9481 1715.8348,-248.8438"/>
</g>
<!-- Node93&#45;&gt;Node3 -->
<g id="edge75" class="edge">
<title>Node93&#45;&gt;Node3</title>
<path fill="none" stroke="#191970" d="M1724.9948,-238.6783C1583.832,-233.7982 867.3775,-208.3521 850,-194 801.477,-153.9249 782.3799,-103.0677 823,-55 837.903,-37.3645 986.1657,-20.1971 1055.987,-13.0161"/>
<polygon fill="#191970" stroke="#191970" points="1056.4956,-16.4825 1066.091,-11.9904 1055.7886,-9.5183 1056.4956,-16.4825"/>
</g>
<!-- Node93&#45;&gt;Node6 -->
<g id="edge76" class="edge">
<title>Node93&#45;&gt;Node6</title>
<path fill="none" stroke="#191970" d="M1773.2074,-231.1022C1840.9818,-207.5727 2028.0809,-142.4867 2034,-139 2065.7383,-120.3046 2076.8273,-115.4523 2096,-84 2106.2868,-67.1247 2111.0302,-44.8487 2113.2014,-29.0641"/>
<polygon fill="#191970" stroke="#191970" points="2116.7062,-29.2219 2114.3702,-18.8878 2109.7519,-28.4231 2116.7062,-29.2219"/>
</g>
<!-- Node93&#45;&gt;Node10 -->
<g id="edge74" class="edge">
<title>Node93&#45;&gt;Node10</title>
<path fill="none" stroke="#191970" d="M1725.0507,-235.1171C1690.2424,-228.3677 1623.9415,-214.0751 1570,-194 1552.3035,-187.414 1550.0887,-180.4167 1532,-175 1402.0859,-136.0972 1362.708,-161.6557 1229,-139 1227.5395,-138.7525 1226.0538,-138.4881 1224.5551,-138.2107"/>
<polygon fill="#191970" stroke="#191970" points="1225.0939,-134.7494 1214.6036,-136.234 1223.73,-141.6153 1225.0939,-134.7494"/>
</g>
<!-- Node93&#45;&gt;Node18 -->
<g id="edge72" class="edge">
<title>Node93&#45;&gt;Node18</title>
<path fill="none" stroke="#191970" d="M1730.6706,-230.4179C1712.9159,-221.6205 1685.7686,-208.1691 1665.4384,-198.0956"/>
<polygon fill="#191970" stroke="#191970" points="1666.8709,-194.8994 1656.3566,-193.5956 1663.763,-201.1716 1666.8709,-194.8994"/>
</g>
<!-- Node93&#45;&gt;Node41 -->
<g id="edge73" class="edge">
<title>Node93&#45;&gt;Node41</title>
<path fill="none" stroke="#191970" d="M1744.0109,-230.0611C1736.753,-216.8515 1722.3516,-192.507 1706,-175 1670.8693,-137.387 1621.3475,-102.8357 1592.4667,-84.1151"/>
<polygon fill="#191970" stroke="#191970" points="1594.1695,-81.0495 1583.8595,-78.6094 1590.3975,-86.9463 1594.1695,-81.0495"/>
</g>
<!-- Node108&#45;&gt;Node6 -->
<g id="edge106" class="edge">
<title>Node108&#45;&gt;Node6</title>
<path fill="none" stroke="#191970" d="M1994.5668,-400.2418C2036.7358,-394.2154 2110.86,-381.3634 2171,-359 2246.8179,-330.8067 2289.2248,-325.3302 2316,-249 2352.232,-145.7104 2206.6736,-56.5422 2143.2331,-23.3353"/>
<polygon fill="#191970" stroke="#191970" points="2144.6424,-20.1245 2134.148,-18.6694 2141.4444,-26.3514 2144.6424,-20.1245"/>
</g>
<!-- Node108&#45;&gt;Node7 -->
<g id="edge107" class="edge">
<title>Node108&#45;&gt;Node7</title>
<path fill="none" stroke="#191970" d="M1927.679,-402.6686C1868.1742,-398.7763 1740.1159,-387.5734 1636,-359 1452.9228,-308.7566 1347.1656,-352.0566 1242,-194 1215.8013,-154.6251 1354.1328,-60.3311 1410.7273,-24.0598"/>
<polygon fill="#191970" stroke="#191970" points="1412.8154,-26.8798 1419.3767,-18.5611 1409.0599,-20.9725 1412.8154,-26.8798"/>
</g>
<!-- Node108&#45;&gt;Node8 -->
<g id="edge109" class="edge">
<title>Node108&#45;&gt;Node8</title>
<path fill="none" stroke="#191970" d="M1927.5961,-404.0493C1811.3721,-402.2066 1413.9876,-393.6065 1088,-359 934.9072,-342.7478 895.4161,-341.0995 746,-304 597.85,-267.2149 424,-337.1486 424,-184.5 424,-184.5 424,-184.5 424,-129.5 424,-62.1192 514.0613,-29.3371 563.4647,-16.4233"/>
<polygon fill="#191970" stroke="#191970" points="564.4846,-19.7763 573.3427,-13.9639 562.7933,-12.9837 564.4846,-19.7763"/>
</g>
<!-- Node108&#45;&gt;Node16 -->
<g id="edge103" class="edge">
<title>Node108&#45;&gt;Node16</title>
<path fill="none" stroke="#191970" d="M1994.5163,-403.6736C2062.8267,-401.3216 2222.6372,-392.3991 2352,-359 2542.7254,-309.7582 2908.3605,-208.7146 2990,-84 3024.2324,-31.7057 2907.0441,-15.7832 2851.0872,-11.2178"/>
<polygon fill="#191970" stroke="#191970" points="2851.0079,-7.7023 2840.7752,-10.4488 2850.4872,-14.6829 2851.0079,-7.7023"/>
</g>
<!-- Node108&#45;&gt;Node19 -->
<g id="edge87" class="edge">
<title>Node108&#45;&gt;Node19</title>
<path fill="none" stroke="#191970" d="M1994.4483,-397.8103C2031.8089,-389.6801 2089.0217,-375.0447 2104,-359 2160.0068,-299.0058 2162.6715,-192.5676 2161.166,-148.9571"/>
<polygon fill="#191970" stroke="#191970" points="2164.6568,-148.6762 2160.6976,-138.8489 2157.6643,-149.0002 2164.6568,-148.6762"/>
</g>
<!-- Node108&#45;&gt;Node42 -->
<g id="edge101" class="edge">
<title>Node108&#45;&gt;Node42</title>
<path fill="none" stroke="#191970" d="M1927.4703,-399.1398C1886.1678,-391.8363 1819.4378,-377.5205 1803,-359 1764.441,-315.5555 1799.0176,-285.5394 1782,-230 1757.942,-151.4832 1711.4804,-64.8569 1690.6076,-27.8706"/>
<polygon fill="#191970" stroke="#191970" points="1693.4318,-25.7573 1685.4389,-18.8028 1687.3504,-29.2238 1693.4318,-25.7573"/>
</g>
<!-- Node108&#45;&gt;Node44 -->
<g id="edge104" class="edge">
<title>Node108&#45;&gt;Node44</title>
<path fill="none" stroke="#191970" d="M1927.335,-403.5927C1678.2825,-396.7747 129.2152,-352.5076 44,-304 13.8422,-286.8331 0,-274.2015 0,-239.5 0,-239.5 0,-239.5 0,-129.5 0,-79.7256 52.1909,-42.3701 85.9459,-23.4152"/>
<polygon fill="#191970" stroke="#191970" points="87.7883,-26.398 94.919,-18.5619 84.458,-20.2409 87.7883,-26.398"/>
</g>
<!-- Node108&#45;&gt;Node45 -->
<g id="edge105" class="edge">
<title>Node108&#45;&gt;Node45</title>
<path fill="none" stroke="#191970" d="M1994.645,-403.7117C2058.0326,-401.4498 2198.9402,-392.7121 2312,-359 2411.8392,-329.23 2654.3283,-214.6127 2726,-139 2754.0642,-109.3926 2783.0126,-90.5484 2763,-55 2752.2578,-35.9186 2729.9238,-23.9184 2712.4075,-17.0643"/>
<polygon fill="#191970" stroke="#191970" points="2713.3695,-13.691 2702.775,-13.6087 2711.0058,-20.2799 2713.3695,-13.691"/>
</g>
<!-- Node108&#45;&gt;Node46 -->
<g id="edge108" class="edge">
<title>Node108&#45;&gt;Node46</title>
<path fill="none" stroke="#191970" d="M1994.4379,-397.7536C2092.5954,-376.3146 2368.464,-303.4806 2294,-175 2225.555,-56.9045 2045.4568,-22.0271 1973.9161,-12.6535"/>
<polygon fill="#191970" stroke="#191970" points="1974.1399,-9.1547 1963.7865,-11.4038 1973.2827,-16.102 1974.1399,-9.1547"/>
</g>
<!-- Node108&#45;&gt;Node55 -->
<g id="edge91" class="edge">
<title>Node108&#45;&gt;Node55</title>
<path fill="none" stroke="#191970" d="M1927.4869,-401.5545C1876.272,-396.4394 1775.8536,-383.9812 1694,-359 1602.0675,-330.9428 1500.2525,-278.4923 1454.1414,-253.4726"/>
<polygon fill="#191970" stroke="#191970" points="1455.6242,-250.2944 1445.1709,-248.5687 1452.2665,-256.4365 1455.6242,-250.2944"/>
</g>
<!-- Node108&#45;&gt;Node58 -->
<g id="edge110" class="edge">
<title>Node108&#45;&gt;Node58</title>
<path fill="none" stroke="#191970" d="M1927.6263,-402.8571C1868.0391,-399.2603 1739.8557,-388.5048 1636,-359 1520.7929,-326.2703 1496.9394,-302.9247 1390,-249 1357.8115,-232.7688 1321.6433,-212.2876 1298.3806,-198.8126"/>
<polygon fill="#191970" stroke="#191970" points="1299.948,-195.6753 1289.5444,-193.6714 1296.4276,-201.7257 1299.948,-195.6753"/>
</g>
<!-- Node108&#45;&gt;Node93 -->
<g id="edge88" class="edge">
<title>Node108&#45;&gt;Node93</title>
<path fill="none" stroke="#191970" d="M1927.6795,-400.9529C1878.8328,-395.052 1791.2675,-381.5813 1770,-359 1744.4618,-331.8842 1744.1848,-285.2112 1746.4558,-258.9371"/>
<polygon fill="#191970" stroke="#191970" points="1749.9627,-259.0608 1747.5578,-248.7425 1743.0033,-258.3084 1749.9627,-259.0608"/>
</g>
<!-- Node64 -->
<g id="node33" class="node">
<title>Node64</title>
<g id="a_node33"><a xlink:href="fs_8h.html" target="_top" xlink:title="fs.h">
<polygon fill="#ffffff" stroke="#ff0000" points="1655.9409,-60.5 1655.9409,-78.5 1688.0591,-78.5 1688.0591,-60.5 1655.9409,-60.5"/>
<text text-anchor="middle" x="1672" y="-66.5" font-family="Helvetica,sans-Serif" font-size="10.00" fill="#000000">fs.h</text>
</a>
</g>
</g>
<!-- Node108&#45;&gt;Node64 -->
<g id="edge89" class="edge">
<title>Node108&#45;&gt;Node64</title>
<path fill="none" stroke="#191970" d="M1927.5075,-399.0292C1872.0483,-389.6992 1765.9366,-370.5968 1753,-359 1690.1519,-302.6611 1724.6699,-257.3127 1706,-175 1698.9679,-143.9964 1686.8526,-109.0727 1679.1433,-88.1997"/>
<polygon fill="#191970" stroke="#191970" points="1682.3539,-86.7933 1675.5637,-78.6604 1675.8002,-89.2526 1682.3539,-86.7933"/>
</g>
<!-- Node109 -->
<g id="node34" class="node">
<title>Node109</title>
<g id="a_node34"><a xlink:href="feerate_8h.html" target="_top" xlink:title="policy/feerate.h">
<polygon fill="#ffffff" stroke="#000000" points="1943.0913,-175.5 1943.0913,-193.5 2026.9087,-193.5 2026.9087,-175.5 1943.0913,-175.5"/>
<text text-anchor="middle" x="1985" y="-181.5" font-family="Helvetica,sans-Serif" font-size="10.00" fill="#000000">policy/feerate.h</text>
</a>
</g>
</g>
<!-- Node108&#45;&gt;Node109 -->
<g id="edge92" class="edge">
<title>Node108&#45;&gt;Node109</title>
<path fill="none" stroke="#191970" d="M1994.391,-397.2163C2028.4532,-389.0294 2077.8479,-374.7999 2089,-359 2093.8695,-352.101 2093.8446,-346.9166 2089,-340 2062.1402,-301.6522 2017.6557,-341.7778 1990,-304 1968.4173,-274.5179 1974.142,-229.1073 1979.8314,-203.5938"/>
<polygon fill="#191970" stroke="#191970" points="1983.2775,-204.2369 1982.2663,-193.6904 1976.4799,-202.5656 1983.2775,-204.2369"/>
</g>
<!-- Node110 -->
<g id="node35" class="node">
<title>Node110</title>
<g id="a_node35"><a xlink:href="script__error_8h.html" target="_top" xlink:title="script/script_error.h">
<polygon fill="#ffffff" stroke="#000000" points="1812.4854,-340.5 1812.4854,-358.5 1913.5146,-358.5 1913.5146,-340.5 1812.4854,-340.5"/>
<text text-anchor="middle" x="1863" y="-346.5" font-family="Helvetica,sans-Serif" font-size="10.00" fill="#000000">script/script_error.h</text>
</a>
</g>
</g>
<!-- Node108&#45;&gt;Node110 -->
<g id="edge96" class="edge">
<title>Node108&#45;&gt;Node110</title>
<path fill="none" stroke="#191970" d="M1944.8173,-395.4179C1929.3548,-386.7399 1905.8232,-373.5334 1887.9591,-363.5077"/>
<polygon fill="#191970" stroke="#191970" points="1889.6402,-360.4377 1879.2067,-358.5956 1886.2143,-366.542 1889.6402,-360.4377"/>
</g>
<!-- Node108&#45;&gt;Node76 -->
<g id="edge97" class="edge">
<title>Node108&#45;&gt;Node76</title>
<path fill="none" stroke="#191970" d="M1994.6953,-403.1924C2052.9299,-400.1481 2175.6149,-390.2653 2274,-359 2325.3361,-342.6862 2337.36,-334.1463 2382,-304 2403.4501,-289.5143 2425.4941,-269.5149 2439.8778,-255.6422"/>
<polygon fill="#191970" stroke="#191970" points="2442.3327,-258.137 2447.0283,-248.6394 2437.4349,-253.1358 2442.3327,-258.137"/>
</g>
<!-- Node111 -->
<g id="node37" class="node">
<title>Node111</title>
<g id="a_node37"><a xlink:href="versionbits_8h.html" target="_top" xlink:title="versionbits.h">
<polygon fill="#ffffff" stroke="#000000" points="2007.9312,-340.5 2007.9312,-358.5 2080.0688,-358.5 2080.0688,-340.5 2007.9312,-340.5"/>
<text text-anchor="middle" x="2044" y="-346.5" font-family="Helvetica,sans-Serif" font-size="10.00" fill="#000000">versionbits.h</text>
</a>
</g>
</g>
<!-- Node108&#45;&gt;Node111 -->
<g id="edge98" class="edge">
<title>Node108&#45;&gt;Node111</title>
<path fill="none" stroke="#191970" d="M1974.7058,-395.4179C1987.4411,-386.9788 2006.6395,-374.257 2021.6012,-364.3426"/>
<polygon fill="#191970" stroke="#191970" points="2023.8713,-367.037 2030.2739,-358.5956 2020.0046,-361.2019 2023.8713,-367.037"/>
</g>
<!-- Node82 -->
<g id="node38" class="node">
<title>Node82</title>
<polygon fill="#ffffff" stroke="#bfbfbf" points="1931.5962,-340.5 1931.5962,-358.5 1990.4038,-358.5 1990.4038,-340.5 1931.5962,-340.5"/>
<text text-anchor="middle" x="1961" y="-346.5" font-family="Helvetica,sans-Serif" font-size="10.00" fill="#000000">exception</text>
</g>
<!-- Node108&#45;&gt;Node82 -->
<g id="edge102" class="edge">
<title>Node108&#45;&gt;Node82</title>
<path fill="none" stroke="#191970" d="M1961,-395.4179C1961,-388.2164 1961,-377.8962 1961,-368.8632"/>
<polygon fill="#191970" stroke="#191970" points="1964.5001,-368.7794 1961,-358.7795 1957.5001,-368.7795 1964.5001,-368.7794"/>
</g>
<!-- Node64&#45;&gt;Node7 -->
<g id="edge90" class="edge">
<title>Node64&#45;&gt;Node7</title>
<path fill="none" stroke="#191970" d="M1655.7898,-60.8087C1651.4013,-58.6943 1646.5926,-56.5874 1642,-55 1580.6141,-33.7822 1505.5091,-20.2561 1464.4344,-13.8585"/>
<polygon fill="#191970" stroke="#191970" points="1464.9256,-10.3931 1454.513,-12.3495 1463.873,-17.3135 1464.9256,-10.3931"/>
</g>
<!-- Node109&#45;&gt;Node7 -->
<g id="edge95" class="edge">
<title>Node109&#45;&gt;Node7</title>
<path fill="none" stroke="#191970" d="M1949.6069,-175.4216C1916.2543,-166.6919 1864.9742,-152.8189 1821,-139 1796.728,-131.3725 1791.1913,-127.8798 1767,-120 1714.0562,-102.7547 1696.602,-109.3 1647,-84 1628.0745,-74.3469 1628.1013,-64.3005 1609,-55 1561.4246,-31.8352 1500.6293,-19.4494 1464.6497,-13.6909"/>
<polygon fill="#191970" stroke="#191970" points="1464.7365,-10.1636 1454.3224,-12.1119 1463.6785,-17.0832 1464.7365,-10.1636"/>
</g>
<!-- Node109&#45;&gt;Node19 -->
<g id="edge93" class="edge">
<title>Node109&#45;&gt;Node19</title>
<path fill="none" stroke="#191970" d="M2013.8977,-175.4179C2043.3705,-166.155 2089.2604,-151.7325 2121.7355,-141.526"/>
<polygon fill="#191970" stroke="#191970" points="2122.8597,-144.8415 2131.3502,-138.5042 2120.7609,-138.1636 2122.8597,-144.8415"/>
</g>
<!-- Node109&#45;&gt;Node41 -->
<g id="edge94" class="edge">
<title>Node109&#45;&gt;Node41</title>
<path fill="none" stroke="#191970" d="M1942.9381,-176.2087C1901.882,-167.8381 1837.7737,-154.0285 1783,-139 1719.0046,-121.4412 1645.7063,-96.5813 1603.6329,-81.8424"/>
<polygon fill="#191970" stroke="#191970" points="1604.7317,-78.5188 1594.1369,-78.5017 1602.4086,-85.1221 1604.7317,-78.5188"/>
</g>
<!-- Node111&#45;&gt;Node1 -->
<g id="edge99" class="edge">
<title>Node111&#45;&gt;Node1</title>
<path fill="none" stroke="#191970" d="M2007.7384,-341.3043C2004.7919,-340.8034 2001.8521,-340.3582 1999,-340 1618.9836,-292.2792 1520.2951,-327.2435 1138,-304 1109.4758,-302.2657 1077.1569,-299.6437 1053.4056,-297.5934"/>
<polygon fill="#191970" stroke="#191970" points="1053.4068,-294.0802 1043.1402,-296.6968 1052.7977,-301.0537 1053.4068,-294.0802"/>
</g>
<!-- Node111&#45;&gt;Node16 -->
<g id="edge100" class="edge">
<title>Node111&#45;&gt;Node16</title>
<path fill="none" stroke="#191970" d="M2080.3251,-347.5842C2131.9972,-343.8912 2228.9955,-333.3492 2306,-304 2364.1972,-281.8189 2365.8151,-249.3923 2425,-230 2523.9115,-197.591 2801.4389,-245.308 2892,-194 2953.6351,-159.0803 3012.0384,-112.0179 2970,-55 2955.7986,-35.7382 2889.4794,-21.1522 2850.9449,-14.1312"/>
<polygon fill="#191970" stroke="#191970" points="2851.3356,-10.6461 2840.8794,-12.3539 2850.1184,-17.5395 2851.3356,-10.6461"/>
</g>
<!-- Node112&#45;&gt;Node6 -->
<g id="edge113" class="edge">
<title>Node112&#45;&gt;Node6</title>
<path fill="none" stroke="#191970" d="M2515.0506,-60.4624C2508.2412,-58.4275 2500.9016,-56.4452 2494,-55 2368.6551,-28.7519 2216.589,-16.2047 2149.5646,-11.6303"/>
<polygon fill="#191970" stroke="#191970" points="2149.3911,-8.1111 2139.1808,-10.9395 2148.9264,-15.0957 2149.3911,-8.1111"/>
</g>
<!-- Node112&#45;&gt;Node7 -->
<g id="edge112" class="edge">
<title>Node112&#45;&gt;Node7</title>
<path fill="none" stroke="#191970" d="M2507.8531,-64.8533C2482.9831,-61.6287 2448.46,-57.4821 2418,-55 2405.8157,-54.0071 1629.7808,-18.4614 1464.6729,-10.9037"/>
<polygon fill="#191970" stroke="#191970" points="1464.4257,-7.3888 1454.2761,-10.4278 1464.1056,-14.3815 1464.4257,-7.3888"/>
</g>
<!-- Node91 -->
<g id="node40" class="node">
<title>Node91</title>
<polygon fill="#ffffff" stroke="#bfbfbf" points="2512.5962,-.5 2512.5962,-18.5 2571.4038,-18.5 2571.4038,-.5 2512.5962,-.5"/>
<text text-anchor="middle" x="2542" y="-6.5" font-family="Helvetica,sans-Serif" font-size="10.00" fill="#000000">functional</text>
</g>
<!-- Node112&#45;&gt;Node91 -->
<g id="edge114" class="edge">
<title>Node112&#45;&gt;Node91</title>
<path fill="none" stroke="#191970" d="M2542,-60.3873C2542,-52.0174 2542,-39.3414 2542,-28.735"/>
<polygon fill="#191970" stroke="#191970" points="2545.5001,-28.6984 2542,-18.6985 2538.5001,-28.6985 2545.5001,-28.6984"/>
</g>
<!-- Node113&#45;&gt;Node6 -->
<g id="edge117" class="edge">
<title>Node113&#45;&gt;Node6</title>
<path fill="none" stroke="#191970" d="M2236.8634,-175.4307C2226.5939,-153.4455 2198.3407,-96.0951 2165,-55 2156.1924,-44.1439 2144.7568,-33.5402 2135.0453,-25.3041"/>
<polygon fill="#191970" stroke="#191970" points="2137.0078,-22.3861 2127.0641,-18.7289 2132.5568,-27.7888 2137.0078,-22.3861"/>
</g>
<!-- Node113&#45;&gt;Node8 -->
<g id="edge116" class="edge">
<title>Node113&#45;&gt;Node8</title>
<path fill="none" stroke="#191970" d="M2196.6178,-182.3236C2032.2331,-174.2384 1463.3204,-146.0353 1382,-139 1311.5351,-132.9038 1294.3949,-126.8579 1224,-120 1117.0967,-109.5854 843.4756,-119.2064 742,-84 720.2223,-76.4443 719.1974,-66.1096 699,-55 675.2976,-41.9625 647.1139,-29.8252 626.0687,-21.3709"/>
<polygon fill="#191970" stroke="#191970" points="627.2393,-18.07 616.6531,-17.6423 624.6619,-24.5783 627.2393,-18.07"/>
</g>
<!-- Node113&#45;&gt;Node19 -->
<g id="edge118" class="edge">
<title>Node113&#45;&gt;Node19</title>
<path fill="none" stroke="#191970" d="M2227.6245,-175.4179C2215.196,-166.9788 2196.4603,-154.257 2181.8591,-144.3426"/>
<polygon fill="#191970" stroke="#191970" points="2183.6346,-141.3176 2173.3954,-138.5956 2179.7023,-147.1088 2183.6346,-141.3176"/>
</g>
<!-- Node114&#45;&gt;Node6 -->
<g id="edge135" class="edge">
<title>Node114&#45;&gt;Node6</title>
<path fill="none" stroke="#191970" d="M2462.408,-175.4872C2476.0431,-163.5357 2496.1777,-141.4451 2489,-120 2477.5174,-85.6927 2471.1785,-73.3505 2440,-55 2391.2119,-26.2852 2222.3236,-14.7331 2149.1967,-11.0014"/>
<polygon fill="#191970" stroke="#191970" points="2149.2878,-7.5018 2139.128,-10.5065 2148.9441,-14.4933 2149.2878,-7.5018"/>
</g>
<!-- Node114&#45;&gt;Node7 -->
<g id="edge136" class="edge">
<title>Node114&#45;&gt;Node7</title>
<path fill="none" stroke="#191970" d="M2416.8369,-182.2191C2294.126,-173.9844 1881.4358,-145.9112 1854,-139 1846.6922,-137.1591 1736.3478,-88.0618 1730,-84 1713.5535,-73.4763 1714.6141,-63.4249 1697,-55 1656.1851,-35.4781 1524.609,-19.2642 1464.4843,-12.6705"/>
<polygon fill="#191970" stroke="#191970" points="1464.7803,-9.1822 1454.4623,-11.5883 1464.0287,-16.1418 1464.7803,-9.1822"/>
</g>
<!-- Node114&#45;&gt;Node10 -->
<g id="edge132" class="edge">
<title>Node114&#45;&gt;Node10</title>
<path fill="none" stroke="#191970" d="M2416.7094,-182.2174C2384.9109,-180.15 2336.2728,-177.1131 2294,-175 1888.8568,-154.7485 1787.2574,-156.8194 1382,-139 1327.4811,-136.6028 1264.4497,-133.486 1224.9046,-131.4888"/>
<polygon fill="#191970" stroke="#191970" points="1225.0529,-127.9919 1214.8886,-130.9815 1224.6988,-134.9829 1225.0529,-127.9919"/>
</g>
<!-- Node114&#45;&gt;Node16 -->
<g id="edge134" class="edge">
<title>Node114&#45;&gt;Node16</title>
<path fill="none" stroke="#191970" d="M2485.184,-181.6813C2563.8438,-174.9167 2752.6535,-156.9851 2775,-139 2808.9696,-111.6602 2818.8993,-57.8118 2821.8016,-28.9146"/>
<polygon fill="#191970" stroke="#191970" points="2825.2981,-29.0985 2822.6257,-18.8463 2818.3215,-28.5274 2825.2981,-29.0985"/>
</g>
<!-- Node114&#45;&gt;Node19 -->
<g id="edge120" class="edge">
<title>Node114&#45;&gt;Node19</title>
<path fill="none" stroke="#191970" d="M2416.7629,-178.0291C2362.3093,-167.7371 2256.2831,-147.6978 2198.9876,-136.8688"/>
<polygon fill="#191970" stroke="#191970" points="2199.3558,-133.3765 2188.8798,-134.9584 2198.0558,-140.2547 2199.3558,-133.3765"/>
</g>
<!-- Node115 -->
<g id="node43" class="node">
<title>Node115</title>
<g id="a_node43"><a xlink:href="rpc_2protocol_8h.html" target="_top" xlink:title="rpc/protocol.h">
<polygon fill="#ffffff" stroke="#000000" points="2403.707,-120.5 2403.707,-138.5 2480.293,-138.5 2480.293,-120.5 2403.707,-120.5"/>
<text text-anchor="middle" x="2442" y="-126.5" font-family="Helvetica,sans-Serif" font-size="10.00" fill="#000000">rpc/protocol.h</text>
</a>
</g>
</g>
<!-- Node114&#45;&gt;Node115 -->
<g id="edge121" class="edge">
<title>Node114&#45;&gt;Node115</title>
<path fill="none" stroke="#191970" d="M2449.5138,-175.4179C2448.3354,-168.2164 2446.6466,-157.8962 2445.1685,-148.8632"/>
<polygon fill="#191970" stroke="#191970" points="2448.5875,-148.083 2443.5185,-138.7795 2441.6794,-149.2134 2448.5875,-148.083"/>
</g>
<!-- Node74 -->
<g id="node44" class="node">
<title>Node74</title>
<polygon fill="#ffffff" stroke="#bfbfbf" points="2708.5,-60.5 2708.5,-78.5 2737.5,-78.5 2737.5,-60.5 2708.5,-60.5"/>
<text text-anchor="middle" x="2722.6108" y="-66.5" font-family="Helvetica,sans-Serif" font-size="10.00" fill="#000000">list</text>
</g>
<!-- Node114&#45;&gt;Node74 -->
<g id="edge133" class="edge">
<title>Node114&#45;&gt;Node74</title>
<path fill="none" stroke="#191970" d="M2474.3557,-175.4844C2517.9411,-158.5182 2614.4566,-120.2786 2694,-84 2695.6197,-83.2613 2697.2817,-82.4838 2698.951,-81.6884"/>
<polygon fill="#191970" stroke="#191970" points="2700.9074,-84.6273 2708.3452,-77.0821 2697.8256,-78.3422 2700.9074,-84.6273"/>
</g>
<!-- Node114&#45;&gt;Node116 -->
<g id="edge137" class="edge">
<title>Node114&#45;&gt;Node116</title>
<path fill="none" stroke="#191970" d="M2437.7172,-175.2707C2425.8118,-166.6498 2408.235,-153.0352 2395,-139 2379.7752,-122.8547 2365.3028,-101.9032 2355.8833,-87.2426"/>
<polygon fill="#191970" stroke="#191970" points="2358.7532,-85.2315 2350.4659,-78.6307 2352.828,-88.9588 2358.7532,-85.2315"/>
</g>
<!-- Node115&#45;&gt;Node6 -->
<g id="edge125" class="edge">
<title>Node115&#45;&gt;Node6</title>
<path fill="none" stroke="#191970" d="M2441.9512,-120.2785C2441.3277,-104.3093 2437.5751,-71.6255 2418,-55 2378.0858,-21.1001 2220.3341,-12.4311 2149.6159,-10.2351"/>
<polygon fill="#191970" stroke="#191970" points="2149.5363,-6.7315 2139.4408,-9.9456 2149.3371,-13.7287 2149.5363,-6.7315"/>
</g>
<!-- Node115&#45;&gt;Node7 -->
<g id="edge126" class="edge">
<title>Node115&#45;&gt;Node7</title>
<path fill="none" stroke="#191970" d="M2438.1704,-120.323C2430.7199,-103.8035 2412.5505,-69.4397 2385,-55 2382.3865,-53.6302 1626.7825,-18.4561 1464.4744,-10.9149"/>
<polygon fill="#191970" stroke="#191970" points="1464.394,-7.4075 1454.2424,-10.4396 1464.0691,-14.4 1464.394,-7.4075"/>
</g>
<!-- Node115&#45;&gt;Node16 -->
<g id="edge124" class="edge">
<title>Node115&#45;&gt;Node16</title>
<path fill="none" stroke="#191970" d="M2480.3918,-125.7001C2524.242,-120.3801 2597.4798,-108.4746 2656,-84 2677.6074,-74.9632 2679.1029,-65.5762 2700,-55 2731.4244,-39.0958 2769.7818,-25.799 2795.2201,-17.7654"/>
<polygon fill="#191970" stroke="#191970" points="2796.4309,-21.0545 2804.947,-14.7516 2794.3591,-14.3681 2796.4309,-21.0545"/>
</g>
<!-- Node115&#45;&gt;Node64 -->
<g id="edge122" class="edge">
<title>Node115&#45;&gt;Node64</title>
<path fill="none" stroke="#191970" d="M2403.5521,-126.5041C2267.8295,-115.9283 1813.1749,-80.5006 1698.4597,-71.5618"/>
<polygon fill="#191970" stroke="#191970" points="1698.3967,-68.0464 1688.155,-70.7588 1697.8528,-75.0252 1698.3967,-68.0464"/>
</g>
<!-- Node115&#45;&gt;Node74 -->
<g id="edge123" class="edge">
<title>Node115&#45;&gt;Node74</title>
<path fill="none" stroke="#191970" d="M2480.4093,-126.0013C2530.5596,-120.6621 2620.5988,-108.4172 2694,-84 2695.6524,-83.4503 2697.329,-82.8217 2698.9998,-82.1413"/>
<polygon fill="#191970" stroke="#191970" points="2700.6731,-85.2242 2708.2964,-77.8665 2697.7486,-78.8644 2700.6731,-85.2242"/>
</g>
<!-- Node115&#45;&gt;Node116 -->
<g id="edge127" class="edge">
<title>Node115&#45;&gt;Node116</title>
<path fill="none" stroke="#191970" d="M2427.2678,-120.3873C2411.5805,-110.6838 2386.5364,-95.1926 2368.1968,-83.8486"/>
<polygon fill="#191970" stroke="#191970" points="2369.8988,-80.7859 2359.553,-78.5019 2366.2164,-86.739 2369.8988,-80.7859"/>
</g>
<!-- Node116&#45;&gt;Node6 -->
<g id="edge128" class="edge">
<title>Node116&#45;&gt;Node6</title>
<path fill="none" stroke="#191970" d="M2317.9667,-60.448C2312.0686,-58.5687 2305.8434,-56.6578 2300,-55 2247.7925,-40.1886 2186.5133,-25.6728 2149.2362,-17.1578"/>
<polygon fill="#191970" stroke="#191970" points="2149.913,-13.7224 2139.3861,-14.9199 2148.3622,-20.5485 2149.913,-13.7224"/>
</g>
<!-- Node116&#45;&gt;Node7 -->
<g id="edge129" class="edge">
<title>Node116&#45;&gt;Node7</title>
<path fill="none" stroke="#191970" d="M2314.1674,-67.4693C2174.8137,-58.2912 1604.5685,-20.7339 1464.9575,-11.5389"/>
<polygon fill="#191970" stroke="#191970" points="1464.788,-8.0203 1454.5796,-10.8554 1464.3279,-15.0051 1464.788,-8.0203"/>
</g>
<!-- Node116&#45;&gt;Node8 -->
<g id="edge130" class="edge">
<title>Node116&#45;&gt;Node8</title>
<path fill="none" stroke="#191970" d="M2313.8828,-68.4331C2099.4522,-61.0812 842.9706,-18.0019 626.691,-10.5865"/>
<polygon fill="#191970" stroke="#191970" points="626.7509,-7.0866 616.6368,-10.2418 626.5109,-14.0825 626.7509,-7.0866"/>
</g>
<!-- Node116&#45;&gt;Node16 -->
<g id="edge131" class="edge">
<title>Node116&#45;&gt;Node16</title>
<path fill="none" stroke="#191970" d="M2375.9946,-65.6095C2463.3974,-54.6384 2710.9181,-23.5689 2794.7998,-13.0398"/>
<polygon fill="#191970" stroke="#191970" points="2795.3735,-16.4953 2804.8597,-11.777 2794.5016,-9.5498 2795.3735,-16.4953"/>
</g>
<!-- Node68&#45;&gt;Node3 -->
<g id="edge144" class="edge">
<title>Node68&#45;&gt;Node3</title>
<path fill="none" stroke="#191970" d="M1862.7372,-126.1784C1800.2542,-119.2187 1652.486,-102.2346 1529,-84 1379.8725,-61.979 1203.1274,-30.0434 1128.3229,-16.2555"/>
<polygon fill="#191970" stroke="#191970" points="1128.5107,-12.7311 1118.0413,-14.3563 1127.2391,-19.6146 1128.5107,-12.7311"/>
</g>
<!-- Node68&#45;&gt;Node6 -->
<g id="edge148" class="edge">
<title>Node68&#45;&gt;Node6</title>
<path fill="none" stroke="#191970" d="M1909.6861,-120.4805C1948.0956,-99.7186 2042.9907,-48.424 2089.067,-23.5178"/>
<polygon fill="#191970" stroke="#191970" points="2090.9875,-26.4584 2098.1203,-18.6242 2087.6589,-20.3004 2090.9875,-26.4584"/>
</g>
<!-- Node68&#45;&gt;Node7 -->
<g id="edge149" class="edge">
<title>Node68&#45;&gt;Node7</title>
<path fill="none" stroke="#191970" d="M1874.8741,-120.4442C1838.8334,-102.5672 1759.1389,-63.7149 1730,-55 1635.6679,-26.787 1518.921,-15.4162 1464.5427,-11.4086"/>
<polygon fill="#191970" stroke="#191970" points="1464.7451,-7.9142 1454.5237,-10.7024 1464.2528,-14.8969 1464.7451,-7.9142"/>
</g>
<!-- Node68&#45;&gt;Node8 -->
<g id="edge151" class="edge">
<title>Node68&#45;&gt;Node8</title>
<path fill="none" stroke="#191970" d="M1862.8816,-128.6819C1694.3248,-124.045 873.6938,-100.6827 823,-84 801.104,-76.7943 801.0735,-64.3416 780,-55 728.8679,-32.334 664.5656,-19.7591 626.8029,-13.8338"/>
<polygon fill="#191970" stroke="#191970" points="627.2992,-10.3692 616.8886,-12.3361 626.2535,-17.2907 627.2992,-10.3692"/>
</g>
<!-- Node68&#45;&gt;Node16 -->
<g id="edge146" class="edge">
<title>Node68&#45;&gt;Node16</title>
<path fill="none" stroke="#191970" d="M1923.0905,-128.1139C2056.079,-121.9239 2585.9888,-96.5645 2619,-84 2638.527,-76.5678 2637.3285,-64.3764 2656,-55 2701.7977,-32.0015 2760.6907,-19.4525 2794.9063,-13.6372"/>
<polygon fill="#191970" stroke="#191970" points="2795.7909,-17.0395 2805.1002,-11.981 2794.6683,-10.1301 2795.7909,-17.0395"/>
</g>
<!-- Node68&#45;&gt;Node41 -->
<g id="edge142" class="edge">
<title>Node68&#45;&gt;Node41</title>
<path fill="none" stroke="#191970" d="M1862.7011,-123.9051C1816.2697,-115.3291 1724.7226,-98.412 1647,-84 1634.9543,-81.7664 1621.8631,-79.3345 1609.907,-77.1117"/>
<polygon fill="#191970" stroke="#191970" points="1610.2185,-73.6097 1599.7472,-75.2225 1608.9388,-80.4918 1610.2185,-73.6097"/>
</g>
<!-- Node68&#45;&gt;Node42 -->
<g id="edge143" class="edge">
<title>Node68&#45;&gt;Node42</title>
<path fill="none" stroke="#191970" d="M1883.3888,-120.4879C1864.4632,-102.8758 1822.7542,-64.7569 1806,-55 1778.4988,-38.9845 1744.3982,-27.0904 1718.6104,-19.4875"/>
<polygon fill="#191970" stroke="#191970" points="1719.3922,-16.0709 1708.8153,-16.6871 1717.4679,-22.8012 1719.3922,-16.0709"/>
</g>
<!-- Node68&#45;&gt;Node43 -->
<g id="edge145" class="edge">
<title>Node68&#45;&gt;Node43</title>
<path fill="none" stroke="#191970" d="M1887.3314,-120.0668C1878.5616,-105.669 1860.9435,-77.5113 1844,-55 1836.586,-45.1496 1827.6793,-34.6694 1820.2504,-26.253"/>
<polygon fill="#191970" stroke="#191970" points="1822.7007,-23.7425 1813.4241,-18.6243 1817.4842,-28.4103 1822.7007,-23.7425"/>
</g>
<!-- Node68&#45;&gt;Node45 -->
<g id="edge147" class="edge">
<title>Node68&#45;&gt;Node45</title>
<path fill="none" stroke="#191970" d="M1922.9581,-127.994C2051.7675,-121.4594 2553.4271,-95.3794 2585,-84 2594.2735,-80.6577 2640.7715,-45.6936 2668.0187,-24.8738"/>
<polygon fill="#191970" stroke="#191970" points="2670.3077,-27.5293 2676.1171,-18.6692 2666.0505,-21.9726 2670.3077,-27.5293"/>
</g>
<!-- Node68&#45;&gt;Node46 -->
<g id="edge150" class="edge">
<title>Node68&#45;&gt;Node46</title>
<path fill="none" stroke="#191970" d="M1896.8333,-120.4805C1905.1402,-100.9348 1924.9478,-54.3286 1936.0717,-28.1548"/>
<polygon fill="#191970" stroke="#191970" points="1939.4319,-29.1965 1940.1222,-18.6242 1932.9896,-26.4585 1939.4319,-29.1965"/>
</g>
<!-- Node69 -->
<g id="node47" class="node">
<title>Node69</title>
<g id="a_node47"><a xlink:href="zeroafterfree_8h.html" target="_top" xlink:title="support/allocators\l/zeroafterfree.h">
<polygon fill="#ffffff" stroke="#ff0000" points="141.5347,-55.5 141.5347,-83.5 236.4653,-83.5 236.4653,-55.5 141.5347,-55.5"/>
<text text-anchor="start" x="149.5347" y="-71.5" font-family="Helvetica,sans-Serif" font-size="10.00" fill="#000000">support/allocators</text>
<text text-anchor="middle" x="189" y="-61.5" font-family="Helvetica,sans-Serif" font-size="10.00" fill="#000000">/zeroafterfree.h</text>
</a>
</g>
</g>
<!-- Node68&#45;&gt;Node69 -->
<g id="edge139" class="edge">
<title>Node68&#45;&gt;Node69</title>
<path fill="none" stroke="#191970" d="M1862.9097,-128.7566C1649.0055,-123.4588 364.6722,-91.424 283,-84 271.1804,-82.9256 258.588,-81.3115 246.5885,-79.5455"/>
<polygon fill="#191970" stroke="#191970" points="247.0916,-76.0818 236.6784,-78.0348 246.0367,-83.0019 247.0916,-76.0818"/>
</g>
<!-- Node69&#45;&gt;Node8 -->
<g id="edge141" class="edge">
<title>Node69&#45;&gt;Node8</title>
<path fill="none" stroke="#191970" d="M236.5199,-57.7083C241.0631,-56.7306 245.6109,-55.8089 250,-55 364.3393,-33.9278 501.7356,-18.8246 562.9086,-12.6243"/>
<polygon fill="#191970" stroke="#191970" points="563.4806,-16.0846 573.0816,-11.6044 562.7823,-9.1195 563.4806,-16.0846"/>
</g>
<!-- Node69&#45;&gt;Node44 -->
<g id="edge140" class="edge">
<title>Node69&#45;&gt;Node44</title>
<path fill="none" stroke="#191970" d="M171.226,-55.2808C159.793,-46.1344 144.94,-34.252 133.2314,-24.8851"/>
<polygon fill="#191970" stroke="#191970" points="135.3504,-22.0981 125.3552,-18.5842 130.9775,-27.5642 135.3504,-22.0981"/>
</g>
<!-- Node117&#45;&gt;Node7 -->
<g id="edge159" class="edge">
<title>Node117&#45;&gt;Node7</title>
<path fill="none" stroke="#191970" d="M2011.7304,-285.4298C1923.2759,-252.2177 1618.6689,-136.4524 1529,-84 1499.6616,-66.8383 1469.3722,-41.5248 1451.1091,-25.2734"/>
<polygon fill="#191970" stroke="#191970" points="1453.3795,-22.6078 1443.6108,-18.506 1448.6895,-27.8043 1453.3795,-22.6078"/>
</g>
<!-- Node117&#45;&gt;Node8 -->
<g id="edge157" class="edge">
<title>Node117&#45;&gt;Node8</title>
<path fill="none" stroke="#191970" d="M1999.3495,-293.9689C1900.4575,-292.0945 1620.1055,-283.8618 1390,-249 1353.4401,-243.461 1345.6133,-235.1742 1309,-230 1230.3474,-218.8848 649.7359,-251.5652 595,-194 552.0098,-148.7877 574.4364,-65.5723 587.6228,-28.3539"/>
<polygon fill="#191970" stroke="#191970" points="590.9862,-29.3505 591.1859,-18.7575 584.4239,-26.9139 590.9862,-29.3505"/>
</g>
<!-- Node117&#45;&gt;Node16 -->
<g id="edge156" class="edge">
<title>Node117&#45;&gt;Node16</title>
<path fill="none" stroke="#191970" d="M2069.3576,-285.4457C2121.5761,-271.5837 2225.9731,-245.1216 2316,-230 2464.549,-205.0485 2506.5324,-229.1659 2653,-194 2719.6162,-178.0059 2745.0985,-183.7187 2797,-139 2827.1477,-113.0245 2830.1767,-94.735 2828,-55 2827.5219,-46.2715 2826.5315,-36.6434 2825.5573,-28.5002"/>
<polygon fill="#191970" stroke="#191970" points="2829.0242,-28.0179 2824.2886,-18.5404 2822.0804,-28.9025 2829.0242,-28.0179"/>
</g>
<!-- Node117&#45;&gt;Node18 -->
<g id="edge163" class="edge">
<title>Node117&#45;&gt;Node18</title>
<path fill="none" stroke="#191970" d="M2003.43,-285.4982C1931.7698,-265.6927 1760.4656,-218.3473 1680.4864,-196.2425"/>
<polygon fill="#191970" stroke="#191970" points="1681.3115,-192.8394 1670.7405,-193.5489 1679.4467,-199.5864 1681.3115,-192.8394"/>
</g>
<!-- Node117&#45;&gt;Node19 -->
<g id="edge160" class="edge">
<title>Node117&#45;&gt;Node19</title>
<path fill="none" stroke="#191970" d="M2043.0221,-285.1561C2063.0571,-258.4967 2120.7275,-181.7578 2146.8554,-146.9907"/>
<polygon fill="#191970" stroke="#191970" points="2149.8451,-148.8383 2153.055,-138.7414 2144.2492,-144.6329 2149.8451,-148.8383"/>
</g>
<!-- Node117&#45;&gt;Node44 -->
<g id="edge154" class="edge">
<title>Node117&#45;&gt;Node44</title>
<path fill="none" stroke="#191970" d="M1999.0664,-293.1615C1870.6524,-288.3557 1444.1031,-271.079 1309,-249 1276.7618,-243.7315 1270.2589,-235.1406 1238,-230 948.3293,-183.8395 869.1106,-237.3097 579,-194 377.0756,-163.8553 277.9335,-227.7931 133,-84 118.5259,-69.6398 114.5601,-45.8925 113.7156,-29.0729"/>
<polygon fill="#191970" stroke="#191970" points="117.2094,-28.6745 113.5388,-18.7358 110.2104,-28.7942 117.2094,-28.6745"/>
</g>
<!-- Node117&#45;&gt;Node45 -->
<g id="edge155" class="edge">
<title>Node117&#45;&gt;Node45</title>
<path fill="none" stroke="#191970" d="M2054.9147,-285.3597C2085.2118,-271.1335 2146.8315,-243.8892 2202,-230 2445.175,-168.7782 2609.5056,-293.7081 2747,-84 2754.067,-73.2213 2752.6866,-66.5666 2747,-55 2739.6522,-40.0545 2724.7719,-28.6334 2711.7943,-20.9719"/>
<polygon fill="#191970" stroke="#191970" points="2713.2687,-17.7891 2702.8157,-16.061 2709.9096,-23.9304 2713.2687,-17.7891"/>
</g>
<!-- Node117&#45;&gt;Node46 -->
<g id="edge158" class="edge">
<title>Node117&#45;&gt;Node46</title>
<path fill="none" stroke="#191970" d="M2037.541,-285.309C2040.614,-265.0061 2046.3613,-214.9643 2036,-175 2020.7388,-116.1363 1979.4973,-55.9289 1957.7894,-27.0537"/>
<polygon fill="#191970" stroke="#191970" points="1960.3439,-24.6328 1951.4854,-18.821 1954.7861,-28.8886 1960.3439,-24.6328"/>
</g>
<!-- Node117&#45;&gt;Node93 -->
<g id="edge161" class="edge">
<title>Node117&#45;&gt;Node93</title>
<path fill="none" stroke="#191970" d="M1999.1485,-288.5273C1950.418,-280.4556 1861.9533,-265.1998 1787,-249 1785.7288,-248.7253 1784.4355,-248.4385 1783.1304,-248.1432"/>
<polygon fill="#191970" stroke="#191970" points="1783.6052,-244.659 1773.0682,-245.7647 1781.9949,-251.4713 1783.6052,-244.659"/>
</g>
<!-- Node117&#45;&gt;Node109 -->
<g id="edge162" class="edge">
<title>Node117&#45;&gt;Node109</title>
<path fill="none" stroke="#191970" d="M2031.8265,-285.4982C2023.4958,-267.5302 2004.6561,-226.8954 1993.5794,-203.0046"/>
<polygon fill="#191970" stroke="#191970" points="1996.6129,-201.2263 1989.2312,-193.6261 1990.2622,-204.1707 1996.6129,-201.2263"/>
</g>
<!-- Node117&#45;&gt;Node76 -->
<g id="edge164" class="edge">
<title>Node117&#45;&gt;Node76</title>
<path fill="none" stroke="#191970" d="M2072.9041,-289.6673C2153.9641,-279.0523 2346.4493,-253.8459 2423.394,-243.7698"/>
<polygon fill="#191970" stroke="#191970" points="2423.9999,-247.2205 2433.4608,-242.4516 2423.091,-240.2797 2423.9999,-247.2205"/>
</g>
<!-- Node85&#45;&gt;Node6 -->
<g id="edge166" class="edge">
<title>Node85&#45;&gt;Node6</title>
<path fill="none" stroke="#191970" d="M1026.0494,-67.3671C1168.5505,-60.851 1607.9685,-40.3473 1972,-19 2009.1645,-16.8206 2051.7357,-13.9435 2080.6978,-11.9288"/>
<polygon fill="#191970" stroke="#191970" points="2080.9855,-15.4174 2090.7171,-11.2285 2080.4973,-8.4344 2080.9855,-15.4174"/>
</g>
<!-- Node85&#45;&gt;Node7 -->
<g id="edge167" class="edge">
<title>Node85&#45;&gt;Node7</title>
<path fill="none" stroke="#191970" d="M1026.06,-62.4276C1042.4851,-60.0069 1061.0483,-57.3245 1078,-55 1198.2536,-38.5102 1341.6338,-20.7696 1403.3116,-13.2302"/>
<polygon fill="#191970" stroke="#191970" points="1404.0126,-16.6707 1413.5149,-11.985 1403.1646,-9.7223 1404.0126,-16.6707"/>
</g>
<!-- Node85&#45;&gt;Node8 -->
<g id="edge168" class="edge">
<title>Node85&#45;&gt;Node8</title>
<path fill="none" stroke="#191970" d="M946.573,-60.4262C938.8844,-58.4633 930.684,-56.5225 923,-55 815.229,-33.6468 685.5765,-18.8183 626.7695,-12.6726"/>
<polygon fill="#191970" stroke="#191970" points="626.9412,-9.1718 616.6346,-11.6265 626.2224,-16.1348 626.9412,-9.1718"/>
</g>
</g>
</svg>
