<?xml version="1.0" encoding="UTF-8" standalone="no"?>
<!DOCTYPE svg PUBLIC "-//W3C//DTD SVG 1.1//EN"
 "http://www.w3.org/Graphics/SVG/1.1/DTD/svg11.dtd">
<!-- Generated by graphviz version 2.40.1 (20161225.0304)
 -->
<!-- Title: DescribeAddress Pages: 1 -->
<svg width="466pt" height="37pt"
 viewBox="0.00 0.00 466.48 37.00" xmlns="http://www.w3.org/2000/svg" xmlns:xlink="http://www.w3.org/1999/xlink">
<g id="graph0" class="graph" transform="scale(1 1) rotate(0) translate(4 33)">
<title>DescribeAddress</title>
<polygon fill="#ffffff" stroke="transparent" points="-4,4 -4,-33 462.4766,-33 462.4766,4 -4,4"/>
<!-- Node56 -->
<g id="node1" class="node">
<title>Node56</title>
<polygon fill="#bfbfbf" stroke="#000000" points="0,-5.5 0,-23.5 92.1426,-23.5 92.1426,-5.5 0,-5.5"/>
<text text-anchor="middle" x="46.0713" y="-11.5" font-family="Helvetica,sans-Serif" font-size="10.00" fill="#000000">DescribeAddress</text>
</g>
<!-- Node57 -->
<g id="node2" class="node">
<title>Node57</title>
<g id="a_node2"><a xlink:href="class_describe_wallet_address_visitor.html#a73b166e4069fbc72e6cbe3a55c761967" target="_top" xlink:title="DescribeWalletAddressVisitor\l::ProcessSubScript">
<polygon fill="#ffffff" stroke="#000000" points="128.1426,-.5 128.1426,-28.5 275.3096,-28.5 275.3096,-.5 128.1426,-.5"/>
<text text-anchor="start" x="136.1426" y="-16.5" font-family="Helvetica,sans-Serif" font-size="10.00" fill="#000000">DescribeWalletAddressVisitor</text>
<text text-anchor="middle" x="201.7261" y="-6.5" font-family="Helvetica,sans-Serif" font-size="10.00" fill="#000000">::ProcessSubScript</text>
</a>
</g>
</g>
<!-- Node56&#45;&gt;Node57 -->
<g id="edge1" class="edge">
<title>Node56&#45;&gt;Node57</title>
<path fill="none" stroke="#191970" d="M102.5747,-14.5C110.8161,-14.5 119.4031,-14.5 127.9256,-14.5"/>
<polygon fill="#191970" stroke="#191970" points="102.3515,-11.0001 92.3514,-14.5 102.3514,-18.0001 102.3515,-11.0001"/>
</g>
<!-- Node58 -->
<g id="node3" class="node">
<title>Node58</title>
<g id="a_node3"><a xlink:href="class_describe_wallet_address_visitor.html#a0c910e5a846a6c5d0cad64d9ccc44132" target="_top" xlink:title="DescribeWalletAddressVisitor\l::operator()">
<polygon fill="#ffffff" stroke="#000000" points="311.3096,-.5 311.3096,-28.5 458.4766,-28.5 458.4766,-.5 311.3096,-.5"/>
<text text-anchor="start" x="319.3096" y="-16.5" font-family="Helvetica,sans-Serif" font-size="10.00" fill="#000000">DescribeWalletAddressVisitor</text>
<text text-anchor="middle" x="384.8931" y="-6.5" font-family="Helvetica,sans-Serif" font-size="10.00" fill="#000000">::operator()</text>
</a>
</g>
</g>
<!-- Node57&#45;&gt;Node58 -->
<g id="edge2" class="edge">
<title>Node57&#45;&gt;Node58</title>
<path fill="none" stroke="#191970" d="M285.6901,-14.5C294.1487,-14.5 302.6946,-14.5 311.0365,-14.5"/>
<polygon fill="#191970" stroke="#191970" points="285.4354,-11.0001 275.4353,-14.5 285.4353,-18.0001 285.4354,-11.0001"/>
</g>
</g>
</svg>
