<?xml version="1.0" encoding="UTF-8" standalone="no"?>
<!DOCTYPE svg PUBLIC "-//W3C//DTD SVG 1.1//EN"
 "http://www.w3.org/Graphics/SVG/1.1/DTD/svg11.dtd">
<!-- Generated by graphviz version 2.40.1 (20161225.0304)
 -->
<!-- Title: FONT_RANGE Pages: 1 -->
<svg width="600pt" height="64pt"
 viewBox="0.00 0.00 599.60 64.00" xmlns="http://www.w3.org/2000/svg" xmlns:xlink="http://www.w3.org/1999/xlink">
<g id="graph0" class="graph" transform="scale(1 1) rotate(0) translate(4 60)">
<title>FONT_RANGE</title>
<polygon fill="#ffffff" stroke="transparent" points="-4,4 -4,-60 595.5996,-60 595.5996,4 -4,4"/>
<!-- Node1 -->
<g id="node1" class="node">
<title>Node1</title>
<polygon fill="#bfbfbf" stroke="#000000" points="0,-18.5 0,-36.5 84.3398,-36.5 84.3398,-18.5 0,-18.5"/>
<text text-anchor="middle" x="42.1699" y="-24.5" font-family="Helvetica,sans-Serif" font-size="10.00" fill="#000000">FONT_RANGE</text>
</g>
<!-- Node2 -->
<g id="node2" class="node">
<title>Node2</title>
<g id="a_node2"><a xlink:href="class_r_p_c_console.html#a385a3c3b75604e379ce4ed26b697cb36" target="_top" xlink:title="RPCConsole::setFontSize">
<polygon fill="#ffffff" stroke="#000000" points="120.3398,-18.5 120.3398,-36.5 252.502,-36.5 252.502,-18.5 120.3398,-18.5"/>
<text text-anchor="middle" x="186.4209" y="-24.5" font-family="Helvetica,sans-Serif" font-size="10.00" fill="#000000">RPCConsole::setFontSize</text>
</a>
</g>
</g>
<!-- Node1&#45;&gt;Node2 -->
<g id="edge1" class="edge">
<title>Node1&#45;&gt;Node2</title>
<path fill="none" stroke="#191970" d="M94.854,-27.5C103.076,-27.5 111.6623,-27.5 120.1402,-27.5"/>
<polygon fill="#191970" stroke="#191970" points="94.6698,-24.0001 84.6698,-27.5 94.6697,-31.0001 94.6698,-24.0001"/>
</g>
<!-- Node3 -->
<g id="node3" class="node">
<title>Node3</title>
<g id="a_node3"><a xlink:href="class_r_p_c_console.html#ad120baf8f0d43b56fca2a8e8d4dda50f" target="_top" xlink:title="RPCConsole::fontBigger">
<polygon fill="#ffffff" stroke="#000000" points="290.9971,-37.5 290.9971,-55.5 415.9424,-55.5 415.9424,-37.5 290.9971,-37.5"/>
<text text-anchor="middle" x="353.4697" y="-43.5" font-family="Helvetica,sans-Serif" font-size="10.00" fill="#000000">RPCConsole::fontBigger</text>
</a>
</g>
</g>
<!-- Node2&#45;&gt;Node3 -->
<g id="edge2" class="edge">
<title>Node2&#45;&gt;Node3</title>
<path fill="none" stroke="#191970" d="M262.9458,-36.2039C272.245,-37.2616 281.6607,-38.3325 290.7275,-39.3638"/>
<polygon fill="#191970" stroke="#191970" points="263.2545,-32.7165 252.923,-35.0639 262.4634,-39.6717 263.2545,-32.7165"/>
</g>
<!-- Node5 -->
<g id="node5" class="node">
<title>Node5</title>
<g id="a_node5"><a xlink:href="class_r_p_c_console.html#a259454bfa74826c944fec35953f2d328" target="_top" xlink:title="RPCConsole::fontSmaller">
<polygon fill="#ffffff" stroke="#000000" points="288.502,-.5 288.502,-18.5 418.4375,-18.5 418.4375,-.5 288.502,-.5"/>
<text text-anchor="middle" x="353.4697" y="-6.5" font-family="Helvetica,sans-Serif" font-size="10.00" fill="#000000">RPCConsole::fontSmaller</text>
</a>
</g>
</g>
<!-- Node2&#45;&gt;Node5 -->
<g id="edge4" class="edge">
<title>Node2&#45;&gt;Node5</title>
<path fill="none" stroke="#191970" d="M263.1148,-19.236C271.5271,-18.3296 280.0324,-17.4131 288.2863,-16.5237"/>
<polygon fill="#191970" stroke="#191970" points="262.4905,-15.7829 252.923,-20.3342 263.2405,-22.7426 262.4905,-15.7829"/>
</g>
<!-- Node4 -->
<g id="node4" class="node">
<title>Node4</title>
<g id="a_node4"><a xlink:href="class_r_p_c_console.html#a0f58ae3018a64fb4fd15be25345df9e9" target="_top" xlink:title="RPCConsole::RPCConsole">
<polygon fill="#ffffff" stroke="#000000" points="454.4375,-18.5 454.4375,-36.5 591.5996,-36.5 591.5996,-18.5 454.4375,-18.5"/>
<text text-anchor="middle" x="523.0186" y="-24.5" font-family="Helvetica,sans-Serif" font-size="10.00" fill="#000000">RPCConsole::RPCConsole</text>
</a>
</g>
</g>
<!-- Node3&#45;&gt;Node4 -->
<g id="edge3" class="edge">
<title>Node3&#45;&gt;Node4</title>
<path fill="none" stroke="#191970" d="M426.1671,-38.3534C435.5174,-37.3056 445.0677,-36.2353 454.3506,-35.1951"/>
<polygon fill="#191970" stroke="#191970" points="425.6697,-34.8871 416.1217,-39.4791 426.4493,-41.8436 425.6697,-34.8871"/>
</g>
<!-- Node5&#45;&gt;Node4 -->
<g id="edge5" class="edge">
<title>Node5&#45;&gt;Node4</title>
<path fill="none" stroke="#191970" d="M428.4902,-17.4645C437.0395,-18.3721 445.7229,-19.294 454.1864,-20.1925"/>
<polygon fill="#191970" stroke="#191970" points="428.8505,-13.9831 418.5368,-16.4078 428.1114,-20.944 428.8505,-13.9831"/>
</g>
</g>
</svg>
