<?xml version="1.0" encoding="UTF-8" standalone="no"?>
<!DOCTYPE svg PUBLIC "-//W3C//DTD SVG 1.1//EN"
 "http://www.w3.org/Graphics/SVG/1.1/DTD/svg11.dtd">
<!-- Generated by graphviz version 2.40.1 (20161225.0304)
 -->
<!-- Title: GetWalletForJSONRPCRequest Pages: 1 -->
<svg width="471pt" height="138pt"
 viewBox="0.00 0.00 471.25 138.00" xmlns="http://www.w3.org/2000/svg" xmlns:xlink="http://www.w3.org/1999/xlink">
<g id="graph0" class="graph" transform="scale(1 1) rotate(0) translate(4 134)">
<title>GetWalletForJSONRPCRequest</title>
<polygon fill="#ffffff" stroke="transparent" points="-4,4 -4,-134 467.2471,-134 467.2471,4 -4,4"/>
<!-- Node373 -->
<g id="node1" class="node">
<title>Node373</title>
<polygon fill="#bfbfbf" stroke="#000000" points="0,-55.5 0,-73.5 159.5645,-73.5 159.5645,-55.5 0,-55.5"/>
<text text-anchor="middle" x="79.7822" y="-61.5" font-family="Helvetica,sans-Serif" font-size="10.00" fill="#000000">GetWalletForJSONRPCRequest</text>
</g>
<!-- Node374 -->
<g id="node2" class="node">
<title>Node374</title>
<g id="a_node2"><a xlink:href="rpcwallet_8cpp.html#af704ea42262521346e3be551cfbc5a7f" target="_top" xlink:title="GetWalletNameFromJSONRPCRequest">
<polygon fill="#ffffff" stroke="#000000" points="195.5645,-111.5 195.5645,-129.5 390.1338,-129.5 390.1338,-111.5 195.5645,-111.5"/>
<text text-anchor="middle" x="292.8491" y="-117.5" font-family="Helvetica,sans-Serif" font-size="10.00" fill="#000000">GetWalletNameFromJSONRPCRequest</text>
</a>
</g>
</g>
<!-- Node373&#45;&gt;Node374 -->
<g id="edge1" class="edge">
<title>Node373&#45;&gt;Node374</title>
<path fill="none" stroke="#191970" d="M104.3429,-73.6268C127.5881,-82.0091 163.5874,-94.3335 195.5645,-102.5 205.6538,-105.0767 216.4204,-107.4424 226.9777,-109.5526"/>
<polygon fill="#191970" stroke="#191970" points="226.5233,-113.0296 237.0066,-111.4961 227.8551,-106.1575 226.5233,-113.0296"/>
</g>
<!-- Node375 -->
<g id="node3" class="node">
<title>Node375</title>
<g id="a_node3"><a xlink:href="wallet_2wallet_8cpp.html#a59fb74ca7a0b34f8f86ec58464a72f8a" target="_top" xlink:title="GetWallet">
<polygon fill="#ffffff" stroke="#000000" points="263.0815,-74.5 263.0815,-92.5 322.6167,-92.5 322.6167,-74.5 263.0815,-74.5"/>
<text text-anchor="middle" x="292.8491" y="-80.5" font-family="Helvetica,sans-Serif" font-size="10.00" fill="#000000">GetWallet</text>
</a>
</g>
</g>
<!-- Node373&#45;&gt;Node375 -->
<g id="edge2" class="edge">
<title>Node373&#45;&gt;Node375</title>
<path fill="none" stroke="#191970" d="M159.7267,-71.629C191.3808,-74.4517 226.3807,-77.5728 252.5457,-79.906"/>
<polygon fill="#191970" stroke="#191970" points="252.5543,-83.4206 262.8257,-80.8227 253.1761,-76.4482 252.5543,-83.4206"/>
</g>
<!-- Node376 -->
<g id="node4" class="node">
<title>Node376</title>
<g id="a_node4"><a xlink:href="rpc_2protocol_8cpp.html#a40b75d3d265c4a2e1d5fe3e129743884" target="_top" xlink:title="JSONRPCError">
<polygon fill="#ffffff" stroke="#000000" points="249.8467,-37.5 249.8467,-55.5 335.8516,-55.5 335.8516,-37.5 249.8467,-37.5"/>
<text text-anchor="middle" x="292.8491" y="-43.5" font-family="Helvetica,sans-Serif" font-size="10.00" fill="#000000">JSONRPCError</text>
</a>
</g>
</g>
<!-- Node373&#45;&gt;Node376 -->
<g id="edge3" class="edge">
<title>Node373&#45;&gt;Node376</title>
<path fill="none" stroke="#191970" d="M159.7267,-57.7463C186.384,-55.4942 215.414,-53.0418 239.5421,-51.0034"/>
<polygon fill="#191970" stroke="#191970" points="239.8915,-54.4864 249.5614,-50.157 239.3022,-47.5113 239.8915,-54.4864"/>
</g>
<!-- Node378 -->
<g id="node6" class="node">
<title>Node378</title>
<g id="a_node6"><a xlink:href="dummywallet_8cpp.html#ab8562a8762a7793fdf5b8ae9465e1b85" target="_top" xlink:title="GetWallets">
<polygon fill="#ffffff" stroke="#000000" points="260.5815,-.5 260.5815,-18.5 325.1167,-18.5 325.1167,-.5 260.5815,-.5"/>
<text text-anchor="middle" x="292.8491" y="-6.5" font-family="Helvetica,sans-Serif" font-size="10.00" fill="#000000">GetWallets</text>
</a>
</g>
</g>
<!-- Node373&#45;&gt;Node378 -->
<g id="edge5" class="edge">
<title>Node373&#45;&gt;Node378</title>
<path fill="none" stroke="#191970" d="M106.2217,-55.379C129.5396,-47.5517 164.5403,-36.3281 195.5645,-28.5 213.2514,-24.0372 232.9706,-20.0126 250.0067,-16.8285"/>
<polygon fill="#191970" stroke="#191970" points="251.0188,-20.2015 260.2252,-14.9582 249.7584,-13.3159 251.0188,-20.2015"/>
</g>
<!-- Node377 -->
<g id="node5" class="node">
<title>Node377</title>
<g id="a_node5"><a xlink:href="util_8h.html#a96c5fc7111f69f7dcaba992d95d13e03" target="_top" xlink:title="error">
<polygon fill="#ffffff" stroke="#000000" points="426.1338,-37.5 426.1338,-55.5 463.2471,-55.5 463.2471,-37.5 426.1338,-37.5"/>
<text text-anchor="middle" x="444.6904" y="-43.5" font-family="Helvetica,sans-Serif" font-size="10.00" fill="#000000">error</text>
</a>
</g>
</g>
<!-- Node376&#45;&gt;Node377 -->
<g id="edge4" class="edge">
<title>Node376&#45;&gt;Node377</title>
<path fill="none" stroke="#191970" d="M335.9546,-46.5C361.4222,-46.5 392.9902,-46.5 415.54,-46.5"/>
<polygon fill="#191970" stroke="#191970" points="415.8192,-50.0001 425.8192,-46.5 415.8192,-43.0001 415.8192,-50.0001"/>
</g>
</g>
</svg>
