<?xml version="1.0" encoding="UTF-8" standalone="no"?>
<!DOCTYPE svg PUBLIC "-//W3C//DTD SVG 1.1//EN"
 "http://www.w3.org/Graphics/SVG/1.1/DTD/svg11.dtd">
<!-- Generated by graphviz version 2.40.1 (20161225.0304)
 -->
<!-- Title: if Pages: 1 -->
<svg width="326pt" height="119pt"
 viewBox="0.00 0.00 326.32 119.00" xmlns="http://www.w3.org/2000/svg" xmlns:xlink="http://www.w3.org/1999/xlink">
<g id="graph0" class="graph" transform="scale(1 1) rotate(0) translate(4 115)">
<title>if</title>
<polygon fill="#ffffff" stroke="transparent" points="-4,4 -4,-115 322.3174,-115 322.3174,4 -4,4"/>
<!-- Node445 -->
<g id="node1" class="node">
<title>Node445</title>
<polygon fill="#bfbfbf" stroke="#000000" points="0,-37.5 0,-55.5 29,-55.5 29,-37.5 0,-37.5"/>
<text text-anchor="middle" x="14.5" y="-43.5" font-family="Helvetica,sans-Serif" font-size="10.00" fill="#000000">if</text>
</g>
<!-- Node446 -->
<g id="node2" class="node">
<title>Node446</title>
<g id="a_node2"><a xlink:href="class_uni_value.html#abab649c2dbd593233de6364254456026" target="_top" xlink:title="UniValue::pushKV">
<polygon fill="#ffffff" stroke="#000000" points="71.6724,-74.5 71.6724,-92.5 168.0972,-92.5 168.0972,-74.5 71.6724,-74.5"/>
<text text-anchor="middle" x="119.8848" y="-80.5" font-family="Helvetica,sans-Serif" font-size="10.00" fill="#000000">UniValue::pushKV</text>
</a>
</g>
</g>
<!-- Node445&#45;&gt;Node446 -->
<g id="edge1" class="edge">
<title>Node445&#45;&gt;Node446</title>
<path fill="none" stroke="#191970" d="M29.0248,-52.1538C39.084,-56.0228 52.8061,-61.2088 65,-65.5 70.38,-67.3933 76.0785,-69.3338 81.6884,-71.2071"/>
<polygon fill="#191970" stroke="#191970" points="81.0095,-74.6688 91.6027,-74.4816 83.2049,-68.0219 81.0095,-74.6688"/>
</g>
<!-- Node449 -->
<g id="node5" class="node">
<title>Node449</title>
<g id="a_node5"><a xlink:href="core__io_8h.html#a513e384f1d458abddd1bf9be05125947" target="_top" xlink:title="ValueFromAmount">
<polygon fill="#ffffff" stroke="#000000" points="70.5688,-37.5 70.5688,-55.5 169.2007,-55.5 169.2007,-37.5 70.5688,-37.5"/>
<text text-anchor="middle" x="119.8848" y="-43.5" font-family="Helvetica,sans-Serif" font-size="10.00" fill="#000000">ValueFromAmount</text>
</a>
</g>
</g>
<!-- Node445&#45;&gt;Node449 -->
<g id="edge4" class="edge">
<title>Node445&#45;&gt;Node449</title>
<path fill="none" stroke="#191970" d="M29.1533,-46.5C37.4644,-46.5 48.4791,-46.5 59.9606,-46.5"/>
<polygon fill="#191970" stroke="#191970" points="60.1145,-50.0001 70.1145,-46.5 60.1144,-43.0001 60.1145,-50.0001"/>
</g>
<!-- Node450 -->
<g id="node6" class="node">
<title>Node450</title>
<g id="a_node6"><a xlink:href="class_uni_value.html#a944cd1b59b040cd24c9f46b55a68d49a" target="_top" xlink:title="UniValue::push_back">
<polygon fill="#ffffff" stroke="#000000" points="65,-.5 65,-18.5 174.7695,-18.5 174.7695,-.5 65,-.5"/>
<text text-anchor="middle" x="119.8848" y="-6.5" font-family="Helvetica,sans-Serif" font-size="10.00" fill="#000000">UniValue::push_back</text>
</a>
</g>
</g>
<!-- Node445&#45;&gt;Node450 -->
<g id="edge5" class="edge">
<title>Node445&#45;&gt;Node450</title>
<path fill="none" stroke="#191970" d="M29.0728,-41.2661C39.1535,-37.6552 52.8815,-32.7572 65,-28.5 71.1183,-26.3506 77.6264,-24.0821 83.9424,-21.8899"/>
<polygon fill="#191970" stroke="#191970" points="85.3218,-25.1161 93.6255,-18.5359 83.0307,-18.5017 85.3218,-25.1161"/>
</g>
<!-- Node447 -->
<g id="node3" class="node">
<title>Node447</title>
<g id="a_node3"><a xlink:href="class_uni_value.html#a85f3a2f520375b464fb506b2ede5c3df" target="_top" xlink:title="UniValue::findKey">
<polygon fill="#ffffff" stroke="#000000" points="217.166,-92.5 217.166,-110.5 311.9209,-110.5 311.9209,-92.5 217.166,-92.5"/>
<text text-anchor="middle" x="264.5435" y="-98.5" font-family="Helvetica,sans-Serif" font-size="10.00" fill="#000000">UniValue::findKey</text>
</a>
</g>
</g>
<!-- Node446&#45;&gt;Node447 -->
<g id="edge2" class="edge">
<title>Node446&#45;&gt;Node447</title>
<path fill="none" stroke="#191970" d="M168.4564,-89.5438C180.762,-91.075 194.0997,-92.7346 206.8099,-94.3162"/>
<polygon fill="#191970" stroke="#191970" points="206.4813,-97.8022 216.837,-95.5638 207.3457,-90.8558 206.4813,-97.8022"/>
</g>
<!-- Node448 -->
<g id="node4" class="node">
<title>Node448</title>
<g id="a_node4"><a xlink:href="class_uni_value.html#a505a2087cb7d9ee51d24a97a5cc7910c" target="_top" xlink:title="UniValue::__pushKV">
<polygon fill="#ffffff" stroke="#000000" points="210.7695,-55.5 210.7695,-73.5 318.3174,-73.5 318.3174,-55.5 210.7695,-55.5"/>
<text text-anchor="middle" x="264.5435" y="-61.5" font-family="Helvetica,sans-Serif" font-size="10.00" fill="#000000">UniValue::__pushKV</text>
</a>
</g>
</g>
<!-- Node446&#45;&gt;Node448 -->
<g id="edge3" class="edge">
<title>Node446&#45;&gt;Node448</title>
<path fill="none" stroke="#191970" d="M168.4564,-77.1204C178.7196,-75.7724 189.7007,-74.3301 200.437,-72.92"/>
<polygon fill="#191970" stroke="#191970" points="201.165,-76.3545 210.6241,-71.582 200.2534,-69.4141 201.165,-76.3545"/>
</g>
</g>
</svg>
