<?xml version="1.0" encoding="UTF-8" standalone="no"?>
<!DOCTYPE svg PUBLIC "-//W3C//DTD SVG 1.1//EN"
 "http://www.w3.org/Graphics/SVG/1.1/DTD/svg11.dtd">
<!-- Generated by graphviz version 2.40.1 (20161225.0304)
 -->
<!-- Title: src/secp256k1/src/scalar_impl.h Pages: 1 -->
<svg width="193pt" height="257pt"
 viewBox="0.00 0.00 192.75 257.00" xmlns="http://www.w3.org/2000/svg" xmlns:xlink="http://www.w3.org/1999/xlink">
<g id="graph0" class="graph" transform="scale(1 1) rotate(0) translate(4 253)">
<title>src/secp256k1/src/scalar_impl.h</title>
<polygon fill="#ffffff" stroke="transparent" points="-4,4 -4,-253 188.751,-253 188.751,4 -4,4"/>
<!-- Node0 -->
<g id="node1" class="node">
<title>Node0</title>
<polygon fill="#bfbfbf" stroke="#000000" points="0,-220.5 0,-248.5 126.0391,-248.5 126.0391,-220.5 0,-220.5"/>
<text text-anchor="start" x="8" y="-236.5" font-family="Helvetica,sans-Serif" font-size="10.00" fill="#000000">src/secp256k1/src/scalar</text>
<text text-anchor="middle" x="63.0195" y="-226.5" font-family="Helvetica,sans-Serif" font-size="10.00" fill="#000000">_impl.h</text>
</g>
<!-- Node1 -->
<g id="node2" class="node">
<title>Node1</title>
<g id="a_node2"><a xlink:href="group_8h.html" target="_top" xlink:title="group.h">
<polygon fill="#ffffff" stroke="#000000" points="72.0615,-165.5 72.0615,-183.5 121.9775,-183.5 121.9775,-165.5 72.0615,-165.5"/>
<text text-anchor="middle" x="97.0195" y="-171.5" font-family="Helvetica,sans-Serif" font-size="10.00" fill="#000000">group.h</text>
</a>
</g>
</g>
<!-- Node0&#45;&gt;Node1 -->
<g id="edge1" class="edge">
<title>Node0&#45;&gt;Node1</title>
<path fill="none" stroke="#191970" d="M71.0771,-220.2808C75.8072,-211.9336 81.8285,-201.3076 86.8792,-192.3946"/>
<polygon fill="#191970" stroke="#191970" points="89.9867,-194.01 91.8718,-183.5842 83.8966,-190.5589 89.9867,-194.01"/>
</g>
<!-- Node8 -->
<g id="node9" class="node">
<title>Node8</title>
<g id="a_node9"><a xlink:href="scalar_8h.html" target="_top" xlink:title="scalar.h">
<polygon fill="#ffffff" stroke="#000000" points="3.7856,-165.5 3.7856,-183.5 54.2534,-183.5 54.2534,-165.5 3.7856,-165.5"/>
<text text-anchor="middle" x="29.0195" y="-171.5" font-family="Helvetica,sans-Serif" font-size="10.00" fill="#000000">scalar.h</text>
</a>
</g>
</g>
<!-- Node0&#45;&gt;Node8 -->
<g id="edge8" class="edge">
<title>Node0&#45;&gt;Node8</title>
<path fill="none" stroke="#191970" d="M54.962,-220.2808C50.2319,-211.9336 44.2105,-201.3076 39.1598,-192.3946"/>
<polygon fill="#191970" stroke="#191970" points="42.1425,-190.5589 34.1672,-183.5842 36.0523,-194.01 42.1425,-190.5589"/>
</g>
<!-- Node2 -->
<g id="node3" class="node">
<title>Node2</title>
<g id="a_node3"><a xlink:href="num_8h.html" target="_top" xlink:title="num.h">
<polygon fill="#ffffff" stroke="#000000" points="11.123,-110.5 11.123,-128.5 54.916,-128.5 54.916,-110.5 11.123,-110.5"/>
<text text-anchor="middle" x="33.0195" y="-116.5" font-family="Helvetica,sans-Serif" font-size="10.00" fill="#000000">num.h</text>
</a>
</g>
</g>
<!-- Node1&#45;&gt;Node2 -->
<g id="edge2" class="edge">
<title>Node1&#45;&gt;Node2</title>
<path fill="none" stroke="#191970" d="M86.4512,-165.4179C76.9662,-157.2667 62.832,-145.1201 51.4829,-135.3669"/>
<polygon fill="#191970" stroke="#191970" points="53.6829,-132.6427 43.8174,-128.7795 49.1205,-137.9516 53.6829,-132.6427"/>
</g>
<!-- Node3 -->
<g id="node4" class="node">
<title>Node3</title>
<g id="a_node4"><a xlink:href="field_8h.html" target="_top" xlink:title="field.h">
<polygon fill="#ffffff" stroke="#000000" points="75.6772,-110.5 75.6772,-128.5 118.3618,-128.5 118.3618,-110.5 75.6772,-110.5"/>
<text text-anchor="middle" x="97.0195" y="-116.5" font-family="Helvetica,sans-Serif" font-size="10.00" fill="#000000">field.h</text>
</a>
</g>
</g>
<!-- Node1&#45;&gt;Node3 -->
<g id="edge3" class="edge">
<title>Node1&#45;&gt;Node3</title>
<path fill="none" stroke="#191970" d="M97.0195,-165.4179C97.0195,-158.2164 97.0195,-147.8962 97.0195,-138.8632"/>
<polygon fill="#191970" stroke="#191970" points="100.5196,-138.7794 97.0195,-128.7795 93.5196,-138.7795 100.5196,-138.7794"/>
</g>
<!-- Node4 -->
<g id="node5" class="node">
<title>Node4</title>
<g id="a_node5"><a xlink:href="secp256k1_2src_2util_8h.html" target="_top" xlink:title="util.h">
<polygon fill="#ffffff" stroke="#000000" points="78.458,-55.5 78.458,-73.5 115.5811,-73.5 115.5811,-55.5 78.458,-55.5"/>
<text text-anchor="middle" x="97.0195" y="-61.5" font-family="Helvetica,sans-Serif" font-size="10.00" fill="#000000">util.h</text>
</a>
</g>
</g>
<!-- Node3&#45;&gt;Node4 -->
<g id="edge4" class="edge">
<title>Node3&#45;&gt;Node4</title>
<path fill="none" stroke="#191970" d="M97.0195,-110.4179C97.0195,-103.2164 97.0195,-92.8962 97.0195,-83.8632"/>
<polygon fill="#191970" stroke="#191970" points="100.5196,-83.7794 97.0195,-73.7795 93.5196,-83.7795 100.5196,-83.7794"/>
</g>
<!-- Node5 -->
<g id="node6" class="node">
<title>Node5</title>
<polygon fill="#ffffff" stroke="#bfbfbf" points="7.1772,-.5 7.1772,-18.5 54.8618,-18.5 54.8618,-.5 7.1772,-.5"/>
<text text-anchor="middle" x="31.0195" y="-6.5" font-family="Helvetica,sans-Serif" font-size="10.00" fill="#000000">stdlib.h</text>
</g>
<!-- Node4&#45;&gt;Node5 -->
<g id="edge5" class="edge">
<title>Node4&#45;&gt;Node5</title>
<path fill="none" stroke="#191970" d="M86.121,-55.4179C76.3396,-47.2667 61.7637,-35.1201 50.0599,-25.3669"/>
<polygon fill="#191970" stroke="#191970" points="52.0778,-22.4926 42.1549,-18.7795 47.5965,-27.8701 52.0778,-22.4926"/>
</g>
<!-- Node6 -->
<g id="node7" class="node">
<title>Node6</title>
<polygon fill="#ffffff" stroke="#bfbfbf" points="72.8989,-.5 72.8989,-18.5 121.1401,-18.5 121.1401,-.5 72.8989,-.5"/>
<text text-anchor="middle" x="97.0195" y="-6.5" font-family="Helvetica,sans-Serif" font-size="10.00" fill="#000000">stdint.h</text>
</g>
<!-- Node4&#45;&gt;Node6 -->
<g id="edge6" class="edge">
<title>Node4&#45;&gt;Node6</title>
<path fill="none" stroke="#191970" d="M97.0195,-55.4179C97.0195,-48.2164 97.0195,-37.8962 97.0195,-28.8632"/>
<polygon fill="#191970" stroke="#191970" points="100.5196,-28.7794 97.0195,-18.7795 93.5196,-28.7795 100.5196,-28.7794"/>
</g>
<!-- Node7 -->
<g id="node8" class="node">
<title>Node7</title>
<polygon fill="#ffffff" stroke="#bfbfbf" points="139.2881,-.5 139.2881,-18.5 184.751,-18.5 184.751,-.5 139.2881,-.5"/>
<text text-anchor="middle" x="162.0195" y="-6.5" font-family="Helvetica,sans-Serif" font-size="10.00" fill="#000000">stdio.h</text>
</g>
<!-- Node4&#45;&gt;Node7 -->
<g id="edge7" class="edge">
<title>Node4&#45;&gt;Node7</title>
<path fill="none" stroke="#191970" d="M107.753,-55.4179C117.3861,-47.2667 131.7412,-35.1201 143.2677,-25.3669"/>
<polygon fill="#191970" stroke="#191970" points="145.6798,-27.9108 151.0529,-18.7795 141.1582,-22.5671 145.6798,-27.9108"/>
</g>
<!-- Node8&#45;&gt;Node2 -->
<g id="edge9" class="edge">
<title>Node8&#45;&gt;Node2</title>
<path fill="none" stroke="#191970" d="M29.68,-165.4179C30.2038,-158.2164 30.9544,-147.8962 31.6113,-138.8632"/>
<polygon fill="#191970" stroke="#191970" points="35.11,-139.007 32.3447,-128.7795 28.1284,-138.4992 35.11,-139.007"/>
</g>
</g>
</svg>
