<?xml version="1.0" encoding="UTF-8" standalone="no"?>
<!DOCTYPE svg PUBLIC "-//W3C//DTD SVG 1.1//EN"
 "http://www.w3.org/Graphics/SVG/1.1/DTD/svg11.dtd">
<!-- Generated by graphviz version 2.40.1 (20161225.0304)
 -->
<!-- Title: src/secp256k1/src/scalar_impl.h Pages: 1 -->
<svg width="419pt" height="167pt"
 viewBox="0.00 0.00 418.55 167.00" xmlns="http://www.w3.org/2000/svg" xmlns:xlink="http://www.w3.org/1999/xlink">
<g id="graph0" class="graph" transform="scale(1 1) rotate(0) translate(4 163)">
<title>src/secp256k1/src/scalar_impl.h</title>
<polygon fill="#ffffff" stroke="transparent" points="-4,4 -4,-163 414.5464,-163 414.5464,4 -4,4"/>
<!-- Node9 -->
<g id="node1" class="node">
<title>Node9</title>
<polygon fill="#bfbfbf" stroke="#000000" points="135.2856,-130.5 135.2856,-158.5 261.3247,-158.5 261.3247,-130.5 135.2856,-130.5"/>
<text text-anchor="start" x="143.2856" y="-146.5" font-family="Helvetica,sans-Serif" font-size="10.00" fill="#000000">src/secp256k1/src/scalar</text>
<text text-anchor="middle" x="198.3052" y="-136.5" font-family="Helvetica,sans-Serif" font-size="10.00" fill="#000000">_impl.h</text>
</g>
<!-- Node10 -->
<g id="node2" class="node">
<title>Node10</title>
<g id="a_node2"><a xlink:href="bench__internal_8c.html" target="_top" xlink:title="src/secp256k1/src/bench\l_internal.c">
<polygon fill="#ffffff" stroke="#000000" points="0,-.5 0,-28.5 126.6104,-28.5 126.6104,-.5 0,-.5"/>
<text text-anchor="start" x="8" y="-16.5" font-family="Helvetica,sans-Serif" font-size="10.00" fill="#000000">src/secp256k1/src/bench</text>
<text text-anchor="middle" x="63.3052" y="-6.5" font-family="Helvetica,sans-Serif" font-size="10.00" fill="#000000">_internal.c</text>
</a>
</g>
</g>
<!-- Node9&#45;&gt;Node10 -->
<g id="edge1" class="edge">
<title>Node9&#45;&gt;Node10</title>
<path fill="none" stroke="#191970" d="M156.1992,-125.5817C140.8895,-117.3535 124.1983,-106.6725 111.3052,-94 91.6428,-74.6742 76.8314,-45.6949 69.1634,-28.5815"/>
<polygon fill="#191970" stroke="#191970" points="155.015,-128.9091 165.5067,-130.3837 158.2246,-122.6882 155.015,-128.9091"/>
</g>
<!-- Node11 -->
<g id="node3" class="node">
<title>Node11</title>
<g id="a_node3"><a xlink:href="secp256k1_8c.html" target="_top" xlink:title="src/secp256k1/src/secp256k1.c">
<polygon fill="#ffffff" stroke="#000000" points="120.5493,-70.5 120.5493,-88.5 276.061,-88.5 276.061,-70.5 120.5493,-70.5"/>
<text text-anchor="middle" x="198.3052" y="-76.5" font-family="Helvetica,sans-Serif" font-size="10.00" fill="#000000">src/secp256k1/src/secp256k1.c</text>
</a>
</g>
</g>
<!-- Node9&#45;&gt;Node11 -->
<g id="edge2" class="edge">
<title>Node9&#45;&gt;Node11</title>
<path fill="none" stroke="#191970" d="M198.3052,-120.3747C198.3052,-109.2832 198.3052,-96.7952 198.3052,-88.5743"/>
<polygon fill="#191970" stroke="#191970" points="194.8053,-120.3959 198.3052,-130.396 201.8053,-120.396 194.8053,-120.3959"/>
</g>
<!-- Node14 -->
<g id="node6" class="node">
<title>Node14</title>
<g id="a_node6"><a xlink:href="gen__context_8c.html" target="_top" xlink:title="src/secp256k1/src/gen\l_context.c">
<polygon fill="#ffffff" stroke="#000000" points="294.2808,-65.5 294.2808,-93.5 410.3296,-93.5 410.3296,-65.5 294.2808,-65.5"/>
<text text-anchor="start" x="302.2808" y="-81.5" font-family="Helvetica,sans-Serif" font-size="10.00" fill="#000000">src/secp256k1/src/gen</text>
<text text-anchor="middle" x="352.3052" y="-71.5" font-family="Helvetica,sans-Serif" font-size="10.00" fill="#000000">_context.c</text>
</a>
</g>
</g>
<!-- Node9&#45;&gt;Node14 -->
<g id="edge6" class="edge">
<title>Node9&#45;&gt;Node14</title>
<path fill="none" stroke="#191970" d="M241.1726,-126.4066C265.7586,-116.0294 296.1653,-103.1954 318.9547,-93.5765"/>
<polygon fill="#191970" stroke="#191970" points="239.5728,-123.2828 231.7209,-130.396 242.2949,-129.7319 239.5728,-123.2828"/>
</g>
<!-- Node11&#45;&gt;Node10 -->
<g id="edge3" class="edge">
<title>Node11&#45;&gt;Node10</title>
<path fill="none" stroke="#191970" d="M170.4105,-66.0692C147.6733,-55.1217 115.6594,-39.7076 92.5618,-28.5865"/>
<polygon fill="#191970" stroke="#191970" points="169.0056,-69.2773 179.534,-70.462 172.0424,-62.9703 169.0056,-69.2773"/>
</g>
<!-- Node12 -->
<g id="node4" class="node">
<title>Node12</title>
<g id="a_node4"><a xlink:href="tests_8c.html" target="_top" xlink:title="src/secp256k1/src/tests.c">
<polygon fill="#ffffff" stroke="#000000" points="144.1748,-5.5 144.1748,-23.5 272.4355,-23.5 272.4355,-5.5 144.1748,-5.5"/>
<text text-anchor="middle" x="208.3052" y="-11.5" font-family="Helvetica,sans-Serif" font-size="10.00" fill="#000000">src/secp256k1/src/tests.c</text>
</a>
</g>
</g>
<!-- Node11&#45;&gt;Node12 -->
<g id="edge4" class="edge">
<title>Node11&#45;&gt;Node12</title>
<path fill="none" stroke="#191970" d="M201.2289,-60.4959C203.0808,-48.4586 205.3947,-33.4178 206.8618,-23.8821"/>
<polygon fill="#191970" stroke="#191970" points="197.757,-60.0461 199.6956,-70.462 204.6756,-61.1105 197.757,-60.0461"/>
</g>
<!-- Node13 -->
<g id="node5" class="node">
<title>Node13</title>
<g id="a_node5"><a xlink:href="tests__exhaustive_8c.html" target="_top" xlink:title="src/secp256k1/src/tests\l_exhaustive.c">
<polygon fill="#ffffff" stroke="#000000" points="290.064,-.5 290.064,-28.5 410.5464,-28.5 410.5464,-.5 290.064,-.5"/>
<text text-anchor="start" x="298.064" y="-16.5" font-family="Helvetica,sans-Serif" font-size="10.00" fill="#000000">src/secp256k1/src/tests</text>
<text text-anchor="middle" x="350.3052" y="-6.5" font-family="Helvetica,sans-Serif" font-size="10.00" fill="#000000">_exhaustive.c</text>
</a>
</g>
</g>
<!-- Node11&#45;&gt;Node13 -->
<g id="edge5" class="edge">
<title>Node11&#45;&gt;Node13</title>
<path fill="none" stroke="#191970" d="M228.6896,-66.5067C254.3456,-55.5353 291.01,-39.8565 317.3644,-28.5865"/>
<polygon fill="#191970" stroke="#191970" points="227.2585,-63.312 219.4401,-70.462 230.0109,-69.7482 227.2585,-63.312"/>
</g>
</g>
</svg>
