<?xml version="1.0" encoding="UTF-8" standalone="no"?>
<!DOCTYPE svg PUBLIC "-//W3C//DTD SVG 1.1//EN"
 "http://www.w3.org/Graphics/SVG/1.1/DTD/svg11.dtd">
<!-- Generated by graphviz version 2.40.1 (20161225.0304)
 -->
<!-- Title: secp256k1_ec_privkey_tweak_add Pages: 1 -->
<svg width="883pt" height="37pt"
 viewBox="0.00 0.00 883.12 37.00" xmlns="http://www.w3.org/2000/svg" xmlns:xlink="http://www.w3.org/1999/xlink">
<g id="graph0" class="graph" transform="scale(1 1) rotate(0) translate(4 33)">
<title>secp256k1_ec_privkey_tweak_add</title>
<polygon fill="#ffffff" stroke="transparent" points="-4,4 -4,-33 879.1211,-33 879.1211,4 -4,4"/>
<!-- Node35 -->
<g id="node1" class="node">
<title>Node35</title>
<polygon fill="#bfbfbf" stroke="#000000" points="0,-.5 0,-28.5 117.7285,-28.5 117.7285,-.5 0,-.5"/>
<text text-anchor="start" x="8" y="-16.5" font-family="Helvetica,sans-Serif" font-size="10.00" fill="#000000">secp256k1_ec_privkey</text>
<text text-anchor="middle" x="58.8643" y="-6.5" font-family="Helvetica,sans-Serif" font-size="10.00" fill="#000000">_tweak_add</text>
</g>
<!-- Node36 -->
<g id="node2" class="node">
<title>Node36</title>
<g id="a_node2"><a xlink:href="class_c_key.html#ae79008cec2eb799a2efd37e010996acf" target="_top" xlink:title="Derive BIP32 child key. ">
<polygon fill="#ffffff" stroke="#000000" points="153.7285,-5.5 153.7285,-23.5 228.6348,-23.5 228.6348,-5.5 153.7285,-5.5"/>
<text text-anchor="middle" x="191.1816" y="-11.5" font-family="Helvetica,sans-Serif" font-size="10.00" fill="#000000">CKey::Derive</text>
</a>
</g>
</g>
<!-- Node35&#45;&gt;Node36 -->
<g id="edge1" class="edge">
<title>Node35&#45;&gt;Node36</title>
<path fill="none" stroke="#191970" d="M128.313,-14.5C137.0509,-14.5 145.7122,-14.5 153.685,-14.5"/>
<polygon fill="#191970" stroke="#191970" points="128.0568,-11.0001 118.0568,-14.5 128.0567,-18.0001 128.0568,-11.0001"/>
</g>
<!-- Node37 -->
<g id="node3" class="node">
<title>Node37</title>
<g id="a_node3"><a xlink:href="struct_c_ext_key.html#a589df63664c6d12bfe071b747a245b1d" target="_top" xlink:title="CExtKey::Derive">
<polygon fill="#ffffff" stroke="#000000" points="264.6348,-5.5 264.6348,-23.5 353.9893,-23.5 353.9893,-5.5 264.6348,-5.5"/>
<text text-anchor="middle" x="309.312" y="-11.5" font-family="Helvetica,sans-Serif" font-size="10.00" fill="#000000">CExtKey::Derive</text>
</a>
</g>
</g>
<!-- Node36&#45;&gt;Node37 -->
<g id="edge2" class="edge">
<title>Node36&#45;&gt;Node37</title>
<path fill="none" stroke="#191970" d="M238.9767,-14.5C247.4209,-14.5 256.1843,-14.5 264.5415,-14.5"/>
<polygon fill="#191970" stroke="#191970" points="238.8837,-11.0001 228.8836,-14.5 238.8836,-18.0001 238.8837,-11.0001"/>
</g>
<!-- Node38 -->
<g id="node4" class="node">
<title>Node38</title>
<g id="a_node4"><a xlink:href="group__map_wallet.html#gafb01fcc10d890174b2db560a7f27b58a" target="_top" xlink:title="CWallet::DeriveNewChildKey">
<polygon fill="#ffffff" stroke="#000000" points="389.9893,-5.5 389.9893,-23.5 535.1055,-23.5 535.1055,-5.5 389.9893,-5.5"/>
<text text-anchor="middle" x="462.5474" y="-11.5" font-family="Helvetica,sans-Serif" font-size="10.00" fill="#000000">CWallet::DeriveNewChildKey</text>
</a>
</g>
</g>
<!-- Node37&#45;&gt;Node38 -->
<g id="edge3" class="edge">
<title>Node37&#45;&gt;Node38</title>
<path fill="none" stroke="#191970" d="M364.299,-14.5C372.5739,-14.5 381.2155,-14.5 389.7924,-14.5"/>
<polygon fill="#191970" stroke="#191970" points="364.046,-11.0001 354.0459,-14.5 364.0459,-18.0001 364.046,-11.0001"/>
</g>
<!-- Node39 -->
<g id="node5" class="node">
<title>Node39</title>
<g id="a_node5"><a xlink:href="group__map_wallet.html#ga5abb589b31879b8f4bf1890c22f15f64" target="_top" xlink:title="keystore implementation Generate a new key ">
<polygon fill="#ffffff" stroke="#000000" points="571.1055,-5.5 571.1055,-23.5 706.2314,-23.5 706.2314,-5.5 571.1055,-5.5"/>
<text text-anchor="middle" x="638.6685" y="-11.5" font-family="Helvetica,sans-Serif" font-size="10.00" fill="#000000">CWallet::GenerateNewKey</text>
</a>
</g>
</g>
<!-- Node38&#45;&gt;Node39 -->
<g id="edge4" class="edge">
<title>Node38&#45;&gt;Node39</title>
<path fill="none" stroke="#191970" d="M545.2643,-14.5C553.8818,-14.5 562.5678,-14.5 570.9906,-14.5"/>
<polygon fill="#191970" stroke="#191970" points="545.1994,-11.0001 535.1994,-14.5 545.1993,-18.0001 545.1994,-11.0001"/>
</g>
<!-- Node40 -->
<g id="node6" class="node">
<title>Node40</title>
<g id="a_node6"><a xlink:href="group___actions.html#gac452f46eafeb2b4adfe86f7208048032" target="_top" xlink:title="CWallet::GetKeyFromPool">
<polygon fill="#ffffff" stroke="#000000" points="742.2314,-5.5 742.2314,-23.5 875.1211,-23.5 875.1211,-5.5 742.2314,-5.5"/>
<text text-anchor="middle" x="808.6763" y="-11.5" font-family="Helvetica,sans-Serif" font-size="10.00" fill="#000000">CWallet::GetKeyFromPool</text>
</a>
</g>
</g>
<!-- Node39&#45;&gt;Node40 -->
<g id="edge5" class="edge">
<title>Node39&#45;&gt;Node40</title>
<path fill="none" stroke="#191970" d="M716.3593,-14.5C724.9443,-14.5 733.6295,-14.5 742.0612,-14.5"/>
<polygon fill="#191970" stroke="#191970" points="716.3486,-11.0001 706.3485,-14.5 716.3485,-18.0001 716.3486,-11.0001"/>
</g>
</g>
</svg>
