<?xml version="1.0" encoding="UTF-8" standalone="no"?>
<!DOCTYPE svg PUBLIC "-//W3C//DTD SVG 1.1//EN"
 "http://www.w3.org/Graphics/SVG/1.1/DTD/svg11.dtd">
<!-- Generated by graphviz version 2.40.1 (20161225.0304)
 -->
<!-- Title: Serialize Pages: 1 -->
<svg width="295pt" height="64pt"
 viewBox="0.00 0.00 295.35 64.00" xmlns="http://www.w3.org/2000/svg" xmlns:xlink="http://www.w3.org/1999/xlink">
<g id="graph0" class="graph" transform="scale(1 1) rotate(0) translate(4 60)">
<title>Serialize</title>
<polygon fill="#ffffff" stroke="transparent" points="-4,4 -4,-60 291.3486,-60 291.3486,4 -4,4"/>
<!-- Node265 -->
<g id="node1" class="node">
<title>Node265</title>
<polygon fill="#bfbfbf" stroke="#000000" points="0,-18.5 0,-36.5 54.3496,-36.5 54.3496,-18.5 0,-18.5"/>
<text text-anchor="middle" x="27.1748" y="-24.5" font-family="Helvetica,sans-Serif" font-size="10.00" fill="#000000">Serialize</text>
</g>
<!-- Node266 -->
<g id="node2" class="node">
<title>Node266</title>
<g id="a_node2"><a xlink:href="serialize_8h.html#aea5bd540bb61fbf26586fd71974df5e1" target="_top" xlink:title="ser_writedata64">
<polygon fill="#ffffff" stroke="#000000" points="102.8691,-37.5 102.8691,-55.5 190.0215,-55.5 190.0215,-37.5 102.8691,-37.5"/>
<text text-anchor="middle" x="146.4453" y="-43.5" font-family="Helvetica,sans-Serif" font-size="10.00" fill="#000000">ser_writedata64</text>
</a>
</g>
</g>
<!-- Node265&#45;&gt;Node266 -->
<g id="edge1" class="edge">
<title>Node265&#45;&gt;Node266</title>
<path fill="none" stroke="#191970" d="M54.5379,-31.859C65.9373,-33.6749 79.5881,-35.8495 92.8379,-37.9602"/>
<polygon fill="#191970" stroke="#191970" points="92.4218,-41.438 102.848,-39.5549 93.5231,-34.5252 92.4218,-41.438"/>
</g>
<!-- Node268 -->
<g id="node4" class="node">
<title>Node268</title>
<g id="a_node4"><a xlink:href="serialize_8h.html#adda9ffcaeecf5875154f1ea3aba87a64" target="_top" xlink:title="ser_double_to_uint64">
<polygon fill="#ffffff" stroke="#000000" points="90.3496,-.5 90.3496,-18.5 202.541,-18.5 202.541,-.5 90.3496,-.5"/>
<text text-anchor="middle" x="146.4453" y="-6.5" font-family="Helvetica,sans-Serif" font-size="10.00" fill="#000000">ser_double_to_uint64</text>
</a>
</g>
</g>
<!-- Node265&#45;&gt;Node268 -->
<g id="edge3" class="edge">
<title>Node265&#45;&gt;Node268</title>
<path fill="none" stroke="#191970" d="M54.5379,-23.3704C62.2331,-22.2091 70.9543,-20.8929 79.8856,-19.545"/>
<polygon fill="#191970" stroke="#191970" points="80.6492,-22.9695 90.0149,-18.0163 79.6046,-16.0479 80.6492,-22.9695"/>
</g>
<!-- Node267 -->
<g id="node3" class="node">
<title>Node267</title>
<g id="a_node3"><a xlink:href="endian_8h.html#aac7228dc3b0fe1141e61ca04e370ad6e" target="_top" xlink:title="htole64">
<polygon fill="#ffffff" stroke="#000000" points="238.541,-37.5 238.541,-55.5 287.3486,-55.5 287.3486,-37.5 238.541,-37.5"/>
<text text-anchor="middle" x="262.9448" y="-43.5" font-family="Helvetica,sans-Serif" font-size="10.00" fill="#000000">htole64</text>
</a>
</g>
</g>
<!-- Node266&#45;&gt;Node267 -->
<g id="edge2" class="edge">
<title>Node266&#45;&gt;Node267</title>
<path fill="none" stroke="#191970" d="M190.1569,-46.5C202.741,-46.5 216.2922,-46.5 228.2505,-46.5"/>
<polygon fill="#191970" stroke="#191970" points="228.285,-50.0001 238.285,-46.5 228.285,-43.0001 228.285,-50.0001"/>
</g>
</g>
</svg>
