<?xml version="1.0" encoding="UTF-8" standalone="no"?>
<!DOCTYPE svg PUBLIC "-//W3C//DTD SVG 1.1//EN"
 "http://www.w3.org/Graphics/SVG/1.1/DTD/svg11.dtd">
<!-- Generated by graphviz version 2.40.1 (20161225.0304)
 -->
<!-- Title: ParseHexO Pages: 1 -->
<svg width="378pt" height="27pt"
 viewBox="0.00 0.00 378.30 27.00" xmlns="http://www.w3.org/2000/svg" xmlns:xlink="http://www.w3.org/1999/xlink">
<g id="graph0" class="graph" transform="scale(1 1) rotate(0) translate(4 23)">
<title>ParseHexO</title>
<polygon fill="#ffffff" stroke="transparent" points="-4,4 -4,-23 374.3027,-23 374.3027,4 -4,4"/>
<!-- Node141 -->
<g id="node1" class="node">
<title>Node141</title>
<polygon fill="#bfbfbf" stroke="#000000" points="0,-.5 0,-18.5 67.6846,-18.5 67.6846,-.5 0,-.5"/>
<text text-anchor="middle" x="33.8423" y="-6.5" font-family="Helvetica,sans-Serif" font-size="10.00" fill="#000000">ParseHexO</text>
</g>
<!-- Node142 -->
<g id="node2" class="node">
<title>Node142</title>
<g id="a_node2"><a xlink:href="rawtransaction_8h.html#a69f132a19b8e91bd9b0b1330b5323f0a" target="_top" xlink:title="Sign a transaction with the given keystore and previous transactions. ">
<polygon fill="#ffffff" stroke="#000000" points="103.6846,-.5 103.6846,-18.5 191.5791,-18.5 191.5791,-.5 103.6846,-.5"/>
<text text-anchor="middle" x="147.6318" y="-6.5" font-family="Helvetica,sans-Serif" font-size="10.00" fill="#000000">SignTransaction</text>
</a>
</g>
</g>
<!-- Node141&#45;&gt;Node142 -->
<g id="edge1" class="edge">
<title>Node141&#45;&gt;Node142</title>
<path fill="none" stroke="#191970" d="M78.2059,-9.5C86.4782,-9.5 95.1224,-9.5 103.3909,-9.5"/>
<polygon fill="#191970" stroke="#191970" points="77.9829,-6.0001 67.9829,-9.5 77.9829,-13.0001 77.9829,-6.0001"/>
</g>
<!-- Node143 -->
<g id="node3" class="node">
<title>Node143</title>
<g id="a_node3"><a xlink:href="rpcwallet_8h.html#a7c13054932c9e3b351bd6277fa9361d7" target="_top" xlink:title="signrawtransactionwithwallet">
<polygon fill="#ffffff" stroke="#000000" points="227.5791,-.5 227.5791,-18.5 370.3027,-18.5 370.3027,-.5 227.5791,-.5"/>
<text text-anchor="middle" x="298.9409" y="-6.5" font-family="Helvetica,sans-Serif" font-size="10.00" fill="#000000">signrawtransactionwithwallet</text>
</a>
</g>
</g>
<!-- Node142&#45;&gt;Node143 -->
<g id="edge2" class="edge">
<title>Node142&#45;&gt;Node143</title>
<path fill="none" stroke="#191970" d="M202.0091,-9.5C210.2467,-9.5 218.8507,-9.5 227.385,-9.5"/>
<polygon fill="#191970" stroke="#191970" points="201.8035,-6.0001 191.8034,-9.5 201.8034,-13.0001 201.8035,-6.0001"/>
</g>
</g>
</svg>
