<?xml version="1.0" encoding="UTF-8" standalone="no"?>
<!DOCTYPE svg PUBLIC "-//W3C//DTD SVG 1.1//EN"
 "http://www.w3.org/Graphics/SVG/1.1/DTD/svg11.dtd">
<!-- Generated by graphviz version 2.40.1 (20161225.0304)
 -->
<!-- Title: HelpExampleCli Pages: 1 -->
<svg width="274pt" height="989pt"
 viewBox="0.00 0.00 273.86 989.00" xmlns="http://www.w3.org/2000/svg" xmlns:xlink="http://www.w3.org/1999/xlink">
<g id="graph0" class="graph" transform="scale(1 1) rotate(0) translate(4 985)">
<title>HelpExampleCli</title>
<polygon fill="#ffffff" stroke="transparent" points="-4,4 -4,-985 269.8613,-985 269.8613,4 -4,4"/>
<!-- Node11 -->
<g id="node1" class="node">
<title>Node11</title>
<polygon fill="#bfbfbf" stroke="#000000" points="0,-481.5 0,-499.5 87.1377,-499.5 87.1377,-481.5 0,-481.5"/>
<text text-anchor="middle" x="43.5688" y="-487.5" font-family="Helvetica,sans-Serif" font-size="10.00" fill="#000000">HelpExampleCli</text>
</g>
<!-- Node12 -->
<g id="node2" class="node">
<title>Node12</title>
<g id="a_node2"><a xlink:href="blockchain_8cpp.html#a0d3ec9ae23b08828dd7ca646766ca637" target="_top" xlink:title="gettxout">
<polygon fill="#ffffff" stroke="#000000" points="168.709,-962.5 168.709,-980.5 220.29,-980.5 220.29,-962.5 168.709,-962.5"/>
<text text-anchor="middle" x="194.4995" y="-968.5" font-family="Helvetica,sans-Serif" font-size="10.00" fill="#000000">gettxout</text>
</a>
</g>
</g>
<!-- Node11&#45;&gt;Node12 -->
<g id="edge1" class="edge">
<title>Node11&#45;&gt;Node12</title>
<path fill="none" stroke="#191970" d="M44.167,-509.7402C47.0155,-588.7462 61.7401,-887.1903 123.1377,-953.5 134.5965,-965.8756 153.2114,-970.2745 168.556,-971.6324"/>
<polygon fill="#191970" stroke="#191970" points="47.6646,-509.6057 43.8288,-499.7296 40.6686,-509.8421 47.6646,-509.6057"/>
</g>
<!-- Node13 -->
<g id="node3" class="node">
<title>Node13</title>
<g id="a_node3"><a xlink:href="blockchain_8cpp.html#a474625d5c1ef0c47e33c078fb53f6ba4" target="_top" xlink:title="Implementation of IsSuperMajority with better feedback. ">
<polygon fill="#ffffff" stroke="#000000" points="147.8618,-925.5 147.8618,-943.5 241.1372,-943.5 241.1372,-925.5 147.8618,-925.5"/>
<text text-anchor="middle" x="194.4995" y="-931.5" font-family="Helvetica,sans-Serif" font-size="10.00" fill="#000000">getblockchaininfo</text>
</a>
</g>
</g>
<!-- Node11&#45;&gt;Node13 -->
<g id="edge2" class="edge">
<title>Node11&#45;&gt;Node13</title>
<path fill="none" stroke="#191970" d="M44.4989,-510.0879C48.4788,-585.5542 66.5375,-856.2513 123.1377,-916.5 129.6991,-923.4843 138.5409,-927.9212 147.7639,-930.7039"/>
<polygon fill="#191970" stroke="#191970" points="47.9751,-509.526 43.9773,-499.7145 40.984,-509.8776 47.9751,-509.526"/>
</g>
<!-- Node14 -->
<g id="node4" class="node">
<title>Node14</title>
<g id="a_node4"><a xlink:href="mining_8cpp.html#aa7706103db6454604a722eac326489b3" target="_top" xlink:title="getgenerate">
<polygon fill="#ffffff" stroke="#000000" points="159.8101,-888.5 159.8101,-906.5 229.189,-906.5 229.189,-888.5 159.8101,-888.5"/>
<text text-anchor="middle" x="194.4995" y="-894.5" font-family="Helvetica,sans-Serif" font-size="10.00" fill="#000000">getgenerate</text>
</a>
</g>
</g>
<!-- Node11&#45;&gt;Node14 -->
<g id="edge3" class="edge">
<title>Node11&#45;&gt;Node14</title>
<path fill="none" stroke="#191970" d="M44.8522,-509.7416C49.9592,-580.5152 71.1431,-825.0941 123.1377,-879.5 132.5835,-889.3839 146.6,-894.15 159.7161,-896.3498"/>
<polygon fill="#191970" stroke="#191970" points="48.3323,-509.3332 44.1462,-499.6005 41.3492,-509.8194 48.3323,-509.3332"/>
</g>
<!-- Node15 -->
<g id="node5" class="node">
<title>Node15</title>
<g id="a_node5"><a xlink:href="mining_8cpp.html#a10cdffdab4c77633047f774c424a3713" target="_top" xlink:title="setgenerate">
<polygon fill="#ffffff" stroke="#000000" points="160.0908,-851.5 160.0908,-869.5 228.9082,-869.5 228.9082,-851.5 160.0908,-851.5"/>
<text text-anchor="middle" x="194.4995" y="-857.5" font-family="Helvetica,sans-Serif" font-size="10.00" fill="#000000">setgenerate</text>
</a>
</g>
</g>
<!-- Node11&#45;&gt;Node15 -->
<g id="edge4" class="edge">
<title>Node11&#45;&gt;Node15</title>
<path fill="none" stroke="#191970" d="M45.3263,-510.021C51.7192,-576.7112 75.881,-794.058 123.1377,-842.5 132.6845,-852.2863 146.7176,-857.0364 159.8188,-859.2507"/>
<polygon fill="#191970" stroke="#191970" points="48.778,-509.3394 44.3657,-499.707 41.8082,-509.9885 48.778,-509.3394"/>
</g>
<!-- Node16 -->
<g id="node6" class="node">
<title>Node16</title>
<g id="a_node6"><a xlink:href="misc_8cpp.html#a102e2c91951128d7a170700149aae5c3" target="_top" xlink:title="logging">
<polygon fill="#ffffff" stroke="#000000" points="170.374,-814.5 170.374,-832.5 218.625,-832.5 218.625,-814.5 170.374,-814.5"/>
<text text-anchor="middle" x="194.4995" y="-820.5" font-family="Helvetica,sans-Serif" font-size="10.00" fill="#000000">logging</text>
</a>
</g>
</g>
<!-- Node11&#45;&gt;Node16 -->
<g id="edge5" class="edge">
<title>Node11&#45;&gt;Node16</title>
<path fill="none" stroke="#191970" d="M45.8742,-509.9464C53.5991,-571.8706 80.5087,-762.8856 123.1377,-805.5 135.4272,-817.7853 154.7993,-822.0976 170.2603,-823.4409"/>
<polygon fill="#191970" stroke="#191970" points="49.3043,-509.1597 44.6206,-499.6564 42.3557,-510.0063 49.3043,-509.1597"/>
</g>
<!-- Node17 -->
<g id="node7" class="node">
<title>Node17</title>
<g id="a_node7"><a xlink:href="rawtransaction_8cpp.html#a0e9b5930a41831d5be26d74565f07340" target="_top" xlink:title="decodepsbt">
<polygon fill="#ffffff" stroke="#000000" points="160.645,-777.5 160.645,-795.5 228.354,-795.5 228.354,-777.5 160.645,-777.5"/>
<text text-anchor="middle" x="194.4995" y="-783.5" font-family="Helvetica,sans-Serif" font-size="10.00" fill="#000000">decodepsbt</text>
</a>
</g>
</g>
<!-- Node11&#45;&gt;Node17 -->
<g id="edge6" class="edge">
<title>Node11&#45;&gt;Node17</title>
<path fill="none" stroke="#191970" d="M46.5586,-509.8614C55.7201,-566.7419 85.1048,-731.6534 123.1377,-768.5 133.0487,-778.1019 147.2982,-782.8058 160.4616,-785.0354"/>
<polygon fill="#191970" stroke="#191970" points="49.9743,-509.0522 44.9569,-499.7208 43.06,-510.1444 49.9743,-509.0522"/>
</g>
<!-- Node18 -->
<g id="node8" class="node">
<title>Node18</title>
<g id="a_node8"><a xlink:href="rawtransaction_8cpp.html#a220a68cf9c7fa672caf17951c5d280bd" target="_top" xlink:title="combinepsbt">
<polygon fill="#ffffff" stroke="#000000" points="158.1499,-740.5 158.1499,-758.5 230.8491,-758.5 230.8491,-740.5 158.1499,-740.5"/>
<text text-anchor="middle" x="194.4995" y="-746.5" font-family="Helvetica,sans-Serif" font-size="10.00" fill="#000000">combinepsbt</text>
</a>
</g>
</g>
<!-- Node11&#45;&gt;Node18 -->
<g id="edge7" class="edge">
<title>Node11&#45;&gt;Node18</title>
<path fill="none" stroke="#191970" d="M47.407,-509.6072C58.0957,-560.9836 89.6274,-700.3137 123.1377,-731.5 132.5846,-740.2918 145.6851,-744.9481 158.0859,-747.3636"/>
<polygon fill="#191970" stroke="#191970" points="50.7816,-508.6397 45.3477,-499.5445 43.9238,-510.0432 50.7816,-508.6397"/>
</g>
<!-- Node19 -->
<g id="node9" class="node">
<title>Node19</title>
<g id="a_node9"><a xlink:href="rawtransaction_8cpp.html#a5edaef38949646889470912893a56b88" target="_top" xlink:title="finalizepsbt">
<polygon fill="#ffffff" stroke="#000000" points="161.4849,-703.5 161.4849,-721.5 227.5142,-721.5 227.5142,-703.5 161.4849,-703.5"/>
<text text-anchor="middle" x="194.4995" y="-709.5" font-family="Helvetica,sans-Serif" font-size="10.00" fill="#000000">finalizepsbt</text>
</a>
</g>
</g>
<!-- Node11&#45;&gt;Node19 -->
<g id="edge8" class="edge">
<title>Node11&#45;&gt;Node19</title>
<path fill="none" stroke="#191970" d="M45.3506,-510.107C50.1322,-550.8414 66.9783,-644.9463 123.1377,-694.5 133.5807,-703.7147 148.068,-708.3457 161.2624,-710.6258"/>
<polygon fill="#191970" stroke="#191970" points="48.8047,-509.4859 44.28,-499.9059 41.8429,-510.2166 48.8047,-509.4859"/>
</g>
<!-- Node20 -->
<g id="node10" class="node">
<title>Node20</title>
<g id="a_node10"><a xlink:href="rawtransaction_8cpp.html#ab96b0b3cf82a8f50975ee74c26c4dbf8" target="_top" xlink:title="createpsbt">
<polygon fill="#ffffff" stroke="#000000" points="163.1523,-666.5 163.1523,-684.5 225.8467,-684.5 225.8467,-666.5 163.1523,-666.5"/>
<text text-anchor="middle" x="194.4995" y="-672.5" font-family="Helvetica,sans-Serif" font-size="10.00" fill="#000000">createpsbt</text>
</a>
</g>
</g>
<!-- Node11&#45;&gt;Node20 -->
<g id="edge9" class="edge">
<title>Node11&#45;&gt;Node20</title>
<path fill="none" stroke="#191970" d="M47.1424,-509.6479C54.6891,-544.5622 75.6231,-618.5538 123.1377,-657.5 134.3042,-666.6528 149.5168,-671.2325 163.028,-673.493"/>
<polygon fill="#191970" stroke="#191970" points="50.5594,-508.8865 45.1459,-499.7791 43.6984,-510.2746 50.5594,-508.8865"/>
</g>
<!-- Node21 -->
<g id="node11" class="node">
<title>Node21</title>
<g id="a_node11"><a xlink:href="rawtransaction_8cpp.html#a6b6a0c0d5bd5b55553ea48b3da2e796c" target="_top" xlink:title="converttopsbt">
<polygon fill="#ffffff" stroke="#000000" points="156.4824,-629.5 156.4824,-647.5 232.5166,-647.5 232.5166,-629.5 156.4824,-629.5"/>
<text text-anchor="middle" x="194.4995" y="-635.5" font-family="Helvetica,sans-Serif" font-size="10.00" fill="#000000">converttopsbt</text>
</a>
</g>
</g>
<!-- Node11&#45;&gt;Node21 -->
<g id="edge10" class="edge">
<title>Node11&#45;&gt;Node21</title>
<path fill="none" stroke="#191970" d="M49.8319,-509.3406C60.3208,-537.9017 84.2045,-591.8551 123.1377,-620.5 132.7091,-627.5421 144.7441,-631.8432 156.1896,-634.4654"/>
<polygon fill="#191970" stroke="#191970" points="53.078,-508.0204 46.4644,-499.7432 46.4728,-510.3381 53.078,-508.0204"/>
</g>
<!-- Node22 -->
<g id="node12" class="node">
<title>Node22</title>
<g id="a_node12"><a xlink:href="rpcwallet_8cpp.html#a2f46e2bb304dda9a197b5a68db6106f7" target="_top" xlink:title="importprivkey">
<polygon fill="#ffffff" stroke="#000000" points="156.7705,-592.5 156.7705,-610.5 232.2285,-610.5 232.2285,-592.5 156.7705,-592.5"/>
<text text-anchor="middle" x="194.4995" y="-598.5" font-family="Helvetica,sans-Serif" font-size="10.00" fill="#000000">importprivkey</text>
</a>
</g>
</g>
<!-- Node11&#45;&gt;Node22 -->
<g id="edge11" class="edge">
<title>Node11&#45;&gt;Node22</title>
<path fill="none" stroke="#191970" d="M53.8849,-508.1775C67.1773,-529.3561 92.2871,-564.3692 123.1377,-583.5 133.1279,-589.695 145.154,-593.7621 156.4625,-596.4306"/>
<polygon fill="#191970" stroke="#191970" points="56.8137,-506.2572 48.631,-499.5271 50.8307,-509.891 56.8137,-506.2572"/>
</g>
<!-- Node23 -->
<g id="node13" class="node">
<title>Node23</title>
<g id="a_node13"><a xlink:href="rpcwallet_8cpp.html#a9df6d8c784683e22309cb2627d21b1f2" target="_top" xlink:title="abortrescan">
<polygon fill="#ffffff" stroke="#000000" points="160.0957,-555.5 160.0957,-573.5 228.9033,-573.5 228.9033,-555.5 160.0957,-555.5"/>
<text text-anchor="middle" x="194.4995" y="-561.5" font-family="Helvetica,sans-Serif" font-size="10.00" fill="#000000">abortrescan</text>
</a>
</g>
</g>
<!-- Node11&#45;&gt;Node23 -->
<g id="edge12" class="edge">
<title>Node11&#45;&gt;Node23</title>
<path fill="none" stroke="#191970" d="M61.8163,-506.2969C77.2154,-518.8708 100.3381,-536.0388 123.1377,-546.5 134.6347,-551.7752 147.9118,-555.6623 159.8727,-558.446"/>
<polygon fill="#191970" stroke="#191970" points="64.0252,-503.5816 54.107,-499.8559 59.5371,-508.9535 64.0252,-503.5816"/>
</g>
<!-- Node24 -->
<g id="node14" class="node">
<title>Node24</title>
<g id="a_node14"><a xlink:href="rpcwallet_8cpp.html#aba44e0021b6111a1f0a8c54bbff34130" target="_top" xlink:title="importaddress">
<polygon fill="#ffffff" stroke="#000000" points="154.8198,-518.5 154.8198,-536.5 234.1792,-536.5 234.1792,-518.5 154.8198,-518.5"/>
<text text-anchor="middle" x="194.4995" y="-524.5" font-family="Helvetica,sans-Serif" font-size="10.00" fill="#000000">importaddress</text>
</a>
</g>
</g>
<!-- Node11&#45;&gt;Node24 -->
<g id="edge13" class="edge">
<title>Node11&#45;&gt;Node24</title>
<path fill="none" stroke="#191970" d="M90.4661,-501.9967C112.1182,-507.3046 137.4513,-513.5149 157.6976,-518.4782"/>
<polygon fill="#191970" stroke="#191970" points="91.0364,-498.5329 80.4906,-499.5512 89.3697,-505.3316 91.0364,-498.5329"/>
</g>
<!-- Node25 -->
<g id="node15" class="node">
<title>Node25</title>
<g id="a_node15"><a xlink:href="rpcwallet_8cpp.html#a85478b0b9837a3e5467dce66fcb5ffb0" target="_top" xlink:title="removeprunedfunds">
<polygon fill="#ffffff" stroke="#000000" points="142.0269,-481.5 142.0269,-499.5 246.9722,-499.5 246.9722,-481.5 142.0269,-481.5"/>
<text text-anchor="middle" x="194.4995" y="-487.5" font-family="Helvetica,sans-Serif" font-size="10.00" fill="#000000">removeprunedfunds</text>
</a>
</g>
</g>
<!-- Node11&#45;&gt;Node25 -->
<g id="edge14" class="edge">
<title>Node11&#45;&gt;Node25</title>
<path fill="none" stroke="#191970" d="M97.4929,-490.5C111.9198,-490.5 127.4932,-490.5 141.8504,-490.5"/>
<polygon fill="#191970" stroke="#191970" points="97.2243,-487.0001 87.2242,-490.5 97.2242,-494.0001 97.2243,-487.0001"/>
</g>
<!-- Node26 -->
<g id="node16" class="node">
<title>Node26</title>
<g id="a_node16"><a xlink:href="rpcwallet_8cpp.html#a1e79cb342ad4f0bf7b02a2b1e18af7ff" target="_top" xlink:title="importpubkey">
<polygon fill="#ffffff" stroke="#000000" points="156.4849,-444.5 156.4849,-462.5 232.5142,-462.5 232.5142,-444.5 156.4849,-444.5"/>
<text text-anchor="middle" x="194.4995" y="-450.5" font-family="Helvetica,sans-Serif" font-size="10.00" fill="#000000">importpubkey</text>
</a>
</g>
</g>
<!-- Node11&#45;&gt;Node26 -->
<g id="edge15" class="edge">
<title>Node11&#45;&gt;Node26</title>
<path fill="none" stroke="#191970" d="M90.4661,-479.0033C112.1182,-473.6954 137.4513,-467.4851 157.6976,-462.5218"/>
<polygon fill="#191970" stroke="#191970" points="89.3697,-475.6684 80.4906,-481.4488 91.0364,-482.4671 89.3697,-475.6684"/>
</g>
<!-- Node27 -->
<g id="node17" class="node">
<title>Node27</title>
<g id="a_node17"><a xlink:href="wallet__tests_8cpp.html#a8c64ef6e0ced69002923098229448758" target="_top" xlink:title="importwallet">
<polygon fill="#ffffff" stroke="#000000" points="159.8247,-407.5 159.8247,-425.5 229.1743,-425.5 229.1743,-407.5 159.8247,-407.5"/>
<text text-anchor="middle" x="194.4995" y="-413.5" font-family="Helvetica,sans-Serif" font-size="10.00" fill="#000000">importwallet</text>
</a>
</g>
</g>
<!-- Node11&#45;&gt;Node27 -->
<g id="edge16" class="edge">
<title>Node11&#45;&gt;Node27</title>
<path fill="none" stroke="#191970" d="M62.3312,-474.7368C77.7771,-462.4744 100.7061,-445.8559 123.1377,-435.5 134.5451,-430.2336 147.6765,-426.2149 159.5402,-423.2604"/>
<polygon fill="#191970" stroke="#191970" points="59.7169,-472.3512 54.162,-481.373 64.1306,-477.7844 59.7169,-472.3512"/>
</g>
<!-- Node28 -->
<g id="node18" class="node">
<title>Node28</title>
<g id="a_node18"><a xlink:href="rpcwallet_8cpp.html#ab3f51d8e8fe414dbf91c37485e481ae3" target="_top" xlink:title="dumpprivkey">
<polygon fill="#ffffff" stroke="#000000" points="158.1548,-370.5 158.1548,-388.5 230.8442,-388.5 230.8442,-370.5 158.1548,-370.5"/>
<text text-anchor="middle" x="194.4995" y="-376.5" font-family="Helvetica,sans-Serif" font-size="10.00" fill="#000000">dumpprivkey</text>
</a>
</g>
</g>
<!-- Node11&#45;&gt;Node28 -->
<g id="edge17" class="edge">
<title>Node11&#45;&gt;Node28</title>
<path fill="none" stroke="#191970" d="M54.1777,-472.7621C67.6098,-451.8485 92.7077,-417.5344 123.1377,-398.5 133.5724,-391.9729 146.2164,-387.6693 157.9452,-384.8394"/>
<polygon fill="#191970" stroke="#191970" points="51.1611,-470.9853 48.8498,-481.325 57.1045,-474.6834 51.1611,-470.9853"/>
</g>
<!-- Node29 -->
<g id="node19" class="node">
<title>Node29</title>
<g id="a_node19"><a xlink:href="wallet__tests_8cpp.html#a73ce3a42e0b56b2e4516e55871d8590e" target="_top" xlink:title="dumpwallet">
<polygon fill="#ffffff" stroke="#000000" points="161.209,-333.5 161.209,-351.5 227.79,-351.5 227.79,-333.5 161.209,-333.5"/>
<text text-anchor="middle" x="194.4995" y="-339.5" font-family="Helvetica,sans-Serif" font-size="10.00" fill="#000000">dumpwallet</text>
</a>
</g>
</g>
<!-- Node11&#45;&gt;Node29 -->
<g id="edge18" class="edge">
<title>Node11&#45;&gt;Node29</title>
<path fill="none" stroke="#191970" d="M49.9196,-471.8653C60.5248,-443.6046 84.5606,-390.172 123.1377,-361.5 134.045,-353.3932 148.1546,-348.7424 160.9444,-346.0754"/>
<polygon fill="#191970" stroke="#191970" points="46.5958,-470.7653 46.5103,-481.3598 53.1839,-473.131 46.5958,-470.7653"/>
</g>
<!-- Node30 -->
<g id="node20" class="node">
<title>Node30</title>
<g id="a_node20"><a xlink:href="wallet__tests_8cpp.html#af0e3c9469f1d8f368d3d5f38e5580367" target="_top" xlink:title="importmulti">
<polygon fill="#ffffff" stroke="#000000" points="162.0513,-296.5 162.0513,-314.5 226.9478,-314.5 226.9478,-296.5 162.0513,-296.5"/>
<text text-anchor="middle" x="194.4995" y="-302.5" font-family="Helvetica,sans-Serif" font-size="10.00" fill="#000000">importmulti</text>
</a>
</g>
</g>
<!-- Node11&#45;&gt;Node30 -->
<g id="edge19" class="edge">
<title>Node11&#45;&gt;Node30</title>
<path fill="none" stroke="#191970" d="M47.3276,-471.0722C55.096,-436.2772 76.2685,-363.342 123.1377,-324.5 133.9964,-315.5011 148.699,-310.7276 161.9373,-308.2098"/>
<polygon fill="#191970" stroke="#191970" points="43.8087,-470.8012 45.1892,-481.3057 50.6607,-472.233 43.8087,-470.8012"/>
</g>
<!-- Node31 -->
<g id="node21" class="node">
<title>Node31</title>
<g id="a_node21"><a xlink:href="rpcwallet_8cpp.html#a74b85c92ee6a84277c73b74f2e212bff" target="_top" xlink:title="listtransactions">
<polygon fill="#ffffff" stroke="#000000" points="153.4307,-259.5 153.4307,-277.5 235.5684,-277.5 235.5684,-259.5 153.4307,-259.5"/>
<text text-anchor="middle" x="194.4995" y="-265.5" font-family="Helvetica,sans-Serif" font-size="10.00" fill="#000000">listtransactions</text>
</a>
</g>
</g>
<!-- Node11&#45;&gt;Node31 -->
<g id="edge20" class="edge">
<title>Node11&#45;&gt;Node31</title>
<path fill="none" stroke="#191970" d="M45.4338,-471.0451C50.373,-430.6166 67.5009,-337.1626 123.1377,-287.5 131.4589,-280.0723 142.3662,-275.4987 153.1407,-272.6972"/>
<polygon fill="#191970" stroke="#191970" points="41.9347,-470.8461 44.322,-481.1685 48.8929,-471.6104 41.9347,-470.8461"/>
</g>
<!-- Node32 -->
<g id="node22" class="node">
<title>Node32</title>
<g id="a_node22"><a xlink:href="rpcwallet_8h.html#a7c13054932c9e3b351bd6277fa9361d7" target="_top" xlink:title="signrawtransactionwithwallet">
<polygon fill="#ffffff" stroke="#000000" points="123.1377,-222.5 123.1377,-240.5 265.8613,-240.5 265.8613,-222.5 123.1377,-222.5"/>
<text text-anchor="middle" x="194.4995" y="-228.5" font-family="Helvetica,sans-Serif" font-size="10.00" fill="#000000">signrawtransactionwithwallet</text>
</a>
</g>
</g>
<!-- Node11&#45;&gt;Node32 -->
<g id="edge21" class="edge">
<title>Node11&#45;&gt;Node32</title>
<path fill="none" stroke="#191970" d="M47.5127,-471.1502C58.3547,-419.7685 90.0124,-281.6976 123.1377,-250.5 127.5243,-246.3687 132.7056,-243.1139 138.2418,-240.5531"/>
<polygon fill="#191970" stroke="#191970" points="44.0245,-470.7341 45.4183,-481.2369 50.8783,-472.1573 44.0245,-470.7341"/>
</g>
<!-- Node33 -->
<g id="node23" class="node">
<title>Node33</title>
<g id="a_node23"><a xlink:href="rpcwallet_8cpp.html#a236a42206aa464fbb10bae6e6243092b" target="_top" xlink:title="generate">
<polygon fill="#ffffff" stroke="#000000" points="166.7607,-185.5 166.7607,-203.5 222.2383,-203.5 222.2383,-185.5 166.7607,-185.5"/>
<text text-anchor="middle" x="194.4995" y="-191.5" font-family="Helvetica,sans-Serif" font-size="10.00" fill="#000000">generate</text>
</a>
</g>
</g>
<!-- Node11&#45;&gt;Node33 -->
<g id="edge22" class="edge">
<title>Node11&#45;&gt;Node33</title>
<path fill="none" stroke="#191970" d="M46.5912,-471.2305C55.8435,-414.6168 85.4555,-250.4542 123.1377,-213.5 134.5798,-202.279 151.862,-197.486 166.553,-195.519"/>
<polygon fill="#191970" stroke="#191970" points="43.1003,-470.8953 44.9729,-481.3233 50.012,-472.0036 43.1003,-470.8953"/>
</g>
<!-- Node34 -->
<g id="node24" class="node">
<title>Node34</title>
<g id="a_node24"><a xlink:href="rpcwallet_8cpp.html#a151535abf7394b299deb8d0a333de70b" target="_top" xlink:title="rescanblockchain">
<polygon fill="#ffffff" stroke="#000000" points="147.8667,-148.5 147.8667,-166.5 241.1323,-166.5 241.1323,-148.5 147.8667,-148.5"/>
<text text-anchor="middle" x="194.4995" y="-154.5" font-family="Helvetica,sans-Serif" font-size="10.00" fill="#000000">rescanblockchain</text>
</a>
</g>
</g>
<!-- Node11&#45;&gt;Node34 -->
<g id="edge23" class="edge">
<title>Node11&#45;&gt;Node34</title>
<path fill="none" stroke="#191970" d="M45.9062,-471.1374C53.7282,-409.477 80.8996,-219.2494 123.1377,-176.5 129.8058,-169.7512 138.5817,-165.3164 147.6897,-162.4218"/>
<polygon fill="#191970" stroke="#191970" points="42.393,-471.0287 44.6361,-481.3834 49.3398,-471.8899 42.393,-471.0287"/>
</g>
<!-- Node35 -->
<g id="node25" class="node">
<title>Node35</title>
<g id="a_node25"><a xlink:href="rpcwallet_8h.html#a3f008088e017b871e32cfae02b622bc8" target="_top" xlink:title="getaddressinfo">
<polygon fill="#ffffff" stroke="#000000" points="153.6992,-111.5 153.6992,-129.5 235.2998,-129.5 235.2998,-111.5 153.6992,-111.5"/>
<text text-anchor="middle" x="194.4995" y="-117.5" font-family="Helvetica,sans-Serif" font-size="10.00" fill="#000000">getaddressinfo</text>
</a>
</g>
</g>
<!-- Node11&#45;&gt;Node35 -->
<g id="edge24" class="edge">
<title>Node11&#45;&gt;Node35</title>
<path fill="none" stroke="#191970" d="M45.3578,-471.0564C51.8538,-404.6276 76.312,-188.1051 123.1377,-139.5 131.1433,-131.1902 142.34,-126.3749 153.4946,-123.6241"/>
<polygon fill="#191970" stroke="#191970" points="41.8433,-471.0433 44.381,-481.3298 48.8119,-471.706 41.8433,-471.0433"/>
</g>
<!-- Node36 -->
<g id="node26" class="node">
<title>Node36</title>
<g id="a_node26"><a xlink:href="rpcwallet_8cpp.html#a61c7a90d1b36888fe11b751e746e18c0" target="_top" xlink:title="sethdseed">
<polygon fill="#ffffff" stroke="#000000" points="163.4258,-74.5 163.4258,-92.5 225.5732,-92.5 225.5732,-74.5 163.4258,-74.5"/>
<text text-anchor="middle" x="194.4995" y="-80.5" font-family="Helvetica,sans-Serif" font-size="10.00" fill="#000000">sethdseed</text>
</a>
</g>
</g>
<!-- Node11&#45;&gt;Node36 -->
<g id="edge25" class="edge">
<title>Node11&#45;&gt;Node36</title>
<path fill="none" stroke="#191970" d="M44.8828,-471.3294C50.098,-400.8139 71.615,-157.098 123.1377,-102.5 133.4328,-91.5904 149.2235,-86.6841 163.3359,-84.5726"/>
<polygon fill="#191970" stroke="#191970" points="41.3825,-471.2093 44.161,-481.4333 48.3648,-471.7082 41.3825,-471.2093"/>
</g>
<!-- Node37 -->
<g id="node27" class="node">
<title>Node37</title>
<g id="a_node27"><a xlink:href="rpcwallet_8cpp.html#a9c99ceacf389a1ce91977c6f7ffa5022" target="_top" xlink:title="walletprocesspsbt">
<polygon fill="#ffffff" stroke="#000000" points="146.7583,-37.5 146.7583,-55.5 242.2407,-55.5 242.2407,-37.5 146.7583,-37.5"/>
<text text-anchor="middle" x="194.4995" y="-43.5" font-family="Helvetica,sans-Serif" font-size="10.00" fill="#000000">walletprocesspsbt</text>
</a>
</g>
</g>
<!-- Node11&#45;&gt;Node37 -->
<g id="edge26" class="edge">
<title>Node11&#45;&gt;Node37</title>
<path fill="none" stroke="#191970" d="M44.5297,-470.9798C48.6236,-395.7716 67.0489,-125.9696 123.1377,-65.5 129.4152,-58.7322 137.8065,-54.2683 146.6259,-51.3478"/>
<polygon fill="#191970" stroke="#191970" points="41.0162,-471.1494 43.9921,-481.3177 48.0068,-471.5129 41.0162,-471.1494"/>
</g>
<!-- Node38 -->
<g id="node28" class="node">
<title>Node38</title>
<g id="a_node28"><a xlink:href="rpcwallet_8cpp.html#afca55ac7a3c6c274b8b7b3e6eab9cd86" target="_top" xlink:title="walletcreatefundedpsbt">
<polygon fill="#ffffff" stroke="#000000" points="135.0762,-.5 135.0762,-18.5 253.9229,-18.5 253.9229,-.5 135.0762,-.5"/>
<text text-anchor="middle" x="194.4995" y="-6.5" font-family="Helvetica,sans-Serif" font-size="10.00" fill="#000000">walletcreatefundedpsbt</text>
</a>
</g>
</g>
<!-- Node11&#45;&gt;Node38 -->
<g id="edge27" class="edge">
<title>Node11&#45;&gt;Node38</title>
<path fill="none" stroke="#191970" d="M44.2153,-470.8358C47.2262,-391.3535 62.4173,-94.924 123.1377,-28.5 126.8573,-24.431 131.3408,-21.1928 136.2265,-18.6212"/>
<polygon fill="#191970" stroke="#191970" points="40.7009,-471.1828 43.8434,-481.3008 47.6965,-471.4314 40.7009,-471.1828"/>
</g>
</g>
</svg>
