<?xml version="1.0" encoding="UTF-8" standalone="no"?>
<!DOCTYPE svg PUBLIC "-//W3C//DTD SVG 1.1//EN"
 "http://www.w3.org/Graphics/SVG/1.1/DTD/svg11.dtd">
<!-- Generated by graphviz version 2.40.1 (20161225.0304)
 -->
<!-- Title: src/crypto/sha3512.h Pages: 1 -->
<svg width="564pt" height="137pt"
 viewBox="0.00 0.00 564.44 137.00" xmlns="http://www.w3.org/2000/svg" xmlns:xlink="http://www.w3.org/1999/xlink">
<g id="graph0" class="graph" transform="scale(1 1) rotate(0) translate(4 133)">
<title>src/crypto/sha3512.h</title>
<polygon fill="#ffffff" stroke="transparent" points="-4,4 -4,-133 560.4404,-133 560.4404,4 -4,4"/>
<!-- Node8 -->
<g id="node1" class="node">
<title>Node8</title>
<polygon fill="#bfbfbf" stroke="#000000" points="241.3423,-110.5 241.3423,-128.5 350.1694,-128.5 350.1694,-110.5 241.3423,-110.5"/>
<text text-anchor="middle" x="295.7559" y="-116.5" font-family="Helvetica,sans-Serif" font-size="10.00" fill="#000000">src/crypto/sha3512.h</text>
</g>
<!-- Node9 -->
<g id="node2" class="node">
<title>Node9</title>
<g id="a_node2"><a xlink:href="crypto__hash_8cpp.html" target="_top" xlink:title="src/bench/crypto_hash.cpp">
<polygon fill="#ffffff" stroke="#000000" points="0,-55.5 0,-73.5 135.5117,-73.5 135.5117,-55.5 0,-55.5"/>
<text text-anchor="middle" x="67.7559" y="-61.5" font-family="Helvetica,sans-Serif" font-size="10.00" fill="#000000">src/bench/crypto_hash.cpp</text>
</a>
</g>
</g>
<!-- Node8&#45;&gt;Node9 -->
<g id="edge1" class="edge">
<title>Node8&#45;&gt;Node9</title>
<path fill="none" stroke="#191970" d="M248.5266,-108.107C206.0104,-97.8509 144.3591,-82.9789 105.1705,-73.5255"/>
<polygon fill="#191970" stroke="#191970" points="247.8197,-111.5368 258.3616,-110.4795 249.4612,-104.732 247.8197,-111.5368"/>
</g>
<!-- Node10 -->
<g id="node3" class="node">
<title>Node10</title>
<g id="a_node3"><a xlink:href="hmac__sha3512_8h.html" target="_top" xlink:title="src/crypto/hmac_sha3512.h">
<polygon fill="#ffffff" stroke="#000000" points="153.335,-55.5 153.335,-73.5 292.1768,-73.5 292.1768,-55.5 153.335,-55.5"/>
<text text-anchor="middle" x="222.7559" y="-61.5" font-family="Helvetica,sans-Serif" font-size="10.00" fill="#000000">src/crypto/hmac_sha3512.h</text>
</a>
</g>
</g>
<!-- Node8&#45;&gt;Node10 -->
<g id="edge2" class="edge">
<title>Node8&#45;&gt;Node10</title>
<path fill="none" stroke="#191970" d="M275.3822,-104.15C262.428,-94.3899 246.0816,-82.0742 235.0722,-73.7795"/>
<polygon fill="#191970" stroke="#191970" points="273.6084,-107.1957 283.7014,-110.4179 277.8207,-101.6049 273.6084,-107.1957"/>
</g>
<!-- Node14 -->
<g id="node7" class="node">
<title>Node14</title>
<g id="a_node7"><a xlink:href="sha3512_8cpp.html" target="_top" xlink:title="src/crypto/sha3512.cpp">
<polygon fill="#ffffff" stroke="#000000" points="310.0615,-55.5 310.0615,-73.5 429.4502,-73.5 429.4502,-55.5 310.0615,-55.5"/>
<text text-anchor="middle" x="369.7559" y="-61.5" font-family="Helvetica,sans-Serif" font-size="10.00" fill="#000000">src/crypto/sha3512.cpp</text>
</a>
</g>
</g>
<!-- Node8&#45;&gt;Node14 -->
<g id="edge6" class="edge">
<title>Node8&#45;&gt;Node14</title>
<path fill="none" stroke="#191970" d="M316.083,-104.392C329.3624,-94.5222 346.2647,-81.9596 357.5181,-73.5956"/>
<polygon fill="#191970" stroke="#191970" points="313.9136,-101.6435 307.9755,-110.4179 318.0893,-107.2617 313.9136,-101.6435"/>
</g>
<!-- Node15 -->
<g id="node8" class="node">
<title>Node15</title>
<g id="a_node8"><a xlink:href="crypter_8cpp.html" target="_top" xlink:title="src/wallet/crypter.cpp">
<polygon fill="#ffffff" stroke="#000000" points="447.0713,-55.5 447.0713,-73.5 556.4404,-73.5 556.4404,-55.5 447.0713,-55.5"/>
<text text-anchor="middle" x="501.7559" y="-61.5" font-family="Helvetica,sans-Serif" font-size="10.00" fill="#000000">src/wallet/crypter.cpp</text>
</a>
</g>
</g>
<!-- Node8&#45;&gt;Node15 -->
<g id="edge7" class="edge">
<title>Node8&#45;&gt;Node15</title>
<path fill="none" stroke="#191970" d="M339.6427,-107.7826C378.0374,-97.5316 432.9988,-82.8575 468.031,-73.5042"/>
<polygon fill="#191970" stroke="#191970" points="338.5313,-104.4567 329.7726,-110.4179 340.337,-111.2198 338.5313,-104.4567"/>
</g>
<!-- Node11 -->
<g id="node4" class="node">
<title>Node11</title>
<g id="a_node4"><a xlink:href="hmac__sha3512_8cpp.html" target="_top" xlink:title="src/crypto/hmac_sha3512.cpp">
<polygon fill="#ffffff" stroke="#000000" points="19.0542,-.5 19.0542,-18.5 168.4575,-18.5 168.4575,-.5 19.0542,-.5"/>
<text text-anchor="middle" x="93.7559" y="-6.5" font-family="Helvetica,sans-Serif" font-size="10.00" fill="#000000">src/crypto/hmac_sha3512.cpp</text>
</a>
</g>
</g>
<!-- Node10&#45;&gt;Node11 -->
<g id="edge3" class="edge">
<title>Node10&#45;&gt;Node11</title>
<path fill="none" stroke="#191970" d="M192.1788,-51.4633C168.4311,-41.3383 136.1079,-27.5571 115.0892,-18.5956"/>
<polygon fill="#191970" stroke="#191970" points="190.8826,-54.7154 201.4541,-55.4179 193.628,-48.2762 190.8826,-54.7154"/>
</g>
<!-- Node12 -->
<g id="node5" class="node">
<title>Node12</title>
<g id="a_node5"><a xlink:href="_hash_8cpp.html" target="_top" xlink:title="src/hash.cpp">
<polygon fill="#ffffff" stroke="#000000" points="186.4087,-.5 186.4087,-18.5 259.103,-18.5 259.103,-.5 186.4087,-.5"/>
<text text-anchor="middle" x="222.7559" y="-6.5" font-family="Helvetica,sans-Serif" font-size="10.00" fill="#000000">src/hash.cpp</text>
</a>
</g>
</g>
<!-- Node10&#45;&gt;Node12 -->
<g id="edge4" class="edge">
<title>Node10&#45;&gt;Node12</title>
<path fill="none" stroke="#191970" d="M222.7559,-45.383C222.7559,-36.3738 222.7559,-26.0373 222.7559,-18.7795"/>
<polygon fill="#191970" stroke="#191970" points="219.256,-45.4178 222.7559,-55.4179 226.256,-45.4179 219.256,-45.4178"/>
</g>
<!-- Node13 -->
<g id="node6" class="node">
<title>Node13</title>
<g id="a_node6"><a xlink:href="key_8cpp.html" target="_top" xlink:title="src/key.cpp">
<polygon fill="#ffffff" stroke="#000000" points="276.8389,-.5 276.8389,-18.5 342.6729,-18.5 342.6729,-.5 276.8389,-.5"/>
<text text-anchor="middle" x="309.7559" y="-6.5" font-family="Helvetica,sans-Serif" font-size="10.00" fill="#000000">src/key.cpp</text>
</a>
</g>
</g>
<!-- Node10&#45;&gt;Node13 -->
<g id="edge5" class="edge">
<title>Node10&#45;&gt;Node13</title>
<path fill="none" stroke="#191970" d="M245.7665,-49.953C261.5068,-40.0023 281.8859,-27.1189 295.3682,-18.5956"/>
<polygon fill="#191970" stroke="#191970" points="243.7045,-47.1158 237.1221,-55.4179 247.445,-53.0326 243.7045,-47.1158"/>
</g>
</g>
</svg>
