<?xml version="1.0" encoding="UTF-8" standalone="no"?>
<!DOCTYPE svg PUBLIC "-//W3C//DTD SVG 1.1//EN"
 "http://www.w3.org/Graphics/SVG/1.1/DTD/svg11.dtd">
<!-- Generated by graphviz version 2.40.1 (20161225.0304)
 -->
<!-- Title: src/shutdown.h Pages: 1 -->
<svg width="1355pt" height="82pt"
 viewBox="0.00 0.00 1355.37 82.00" xmlns="http://www.w3.org/2000/svg" xmlns:xlink="http://www.w3.org/1999/xlink">
<g id="graph0" class="graph" transform="scale(1 1) rotate(0) translate(4 78)">
<title>src/shutdown.h</title>
<polygon fill="#ffffff" stroke="transparent" points="-4,4 -4,-78 1351.3691,-78 1351.3691,4 -4,4"/>
<!-- Node1 -->
<g id="node1" class="node">
<title>Node1</title>
<polygon fill="#bfbfbf" stroke="#000000" points="630.2808,-55.5 630.2808,-73.5 713.5366,-73.5 713.5366,-55.5 630.2808,-55.5"/>
<text text-anchor="middle" x="671.9087" y="-61.5" font-family="Helvetica,sans-Serif" font-size="10.00" fill="#000000">src/shutdown.h</text>
</g>
<!-- Node2 -->
<g id="node2" class="node">
<title>Node2</title>
<g id="a_node2"><a xlink:href="bsha3d_8cpp.html" target="_top" xlink:title="src/bsha3d.cpp">
<polygon fill="#ffffff" stroke="#000000" points="0,-.5 0,-18.5 83.8174,-18.5 83.8174,-.5 0,-.5"/>
<text text-anchor="middle" x="41.9087" y="-6.5" font-family="Helvetica,sans-Serif" font-size="10.00" fill="#000000">src/bsha3d.cpp</text>
</a>
</g>
</g>
<!-- Node1&#45;&gt;Node2 -->
<g id="edge1" class="edge">
<title>Node1&#45;&gt;Node2</title>
<path fill="none" stroke="#191970" d="M619.9734,-62.2631C518.3945,-57.4808 286.438,-44.5561 92.9087,-19 89.9621,-18.6109 86.9278,-18.1643 83.8772,-17.6814"/>
<polygon fill="#191970" stroke="#191970" points="619.8194,-65.7596 629.9709,-62.7272 620.144,-58.7671 619.8194,-65.7596"/>
</g>
<!-- Node3 -->
<g id="node3" class="node">
<title>Node3</title>
<g id="a_node3"><a xlink:href="base_8cpp.html" target="_top" xlink:title="src/index/base.cpp">
<polygon fill="#ffffff" stroke="#000000" points="102.2192,-.5 102.2192,-18.5 201.5981,-18.5 201.5981,-.5 102.2192,-.5"/>
<text text-anchor="middle" x="151.9087" y="-6.5" font-family="Helvetica,sans-Serif" font-size="10.00" fill="#000000">src/index/base.cpp</text>
</a>
</g>
</g>
<!-- Node1&#45;&gt;Node3 -->
<g id="edge2" class="edge">
<title>Node1&#45;&gt;Node3</title>
<path fill="none" stroke="#191970" d="M620.0987,-60.4891C534.5152,-53.619 358.3091,-38.4407 209.9087,-19 207.2782,-18.6554 204.5838,-18.2828 201.8656,-17.8915"/>
<polygon fill="#191970" stroke="#191970" points="619.8318,-63.9789 630.0785,-61.2855 620.3887,-57.0011 619.8318,-63.9789"/>
</g>
<!-- Node4 -->
<g id="node4" class="node">
<title>Node4</title>
<g id="a_node4"><a xlink:href="txindex_8cpp.html" target="_top" xlink:title="src/index/txindex.cpp">
<polygon fill="#ffffff" stroke="#000000" points="219.2192,-.5 219.2192,-18.5 328.5981,-18.5 328.5981,-.5 219.2192,-.5"/>
<text text-anchor="middle" x="273.9087" y="-6.5" font-family="Helvetica,sans-Serif" font-size="10.00" fill="#000000">src/index/txindex.cpp</text>
</a>
</g>
</g>
<!-- Node1&#45;&gt;Node4 -->
<g id="edge3" class="edge">
<title>Node1&#45;&gt;Node4</title>
<path fill="none" stroke="#191970" d="M620.1384,-57.6428C554.4627,-48.8988 437.7258,-33.2067 337.9087,-19 334.9061,-18.5726 331.8249,-18.1298 328.7152,-17.6794"/>
<polygon fill="#191970" stroke="#191970" points="619.8559,-61.136 630.2301,-58.9852 620.779,-54.1971 619.8559,-61.136"/>
</g>
<!-- Node5 -->
<g id="node5" class="node">
<title>Node5</title>
<g id="a_node5"><a xlink:href="init_8cpp.html" target="_top" xlink:title="src/init.cpp">
<polygon fill="#ffffff" stroke="#000000" points="347.0122,-.5 347.0122,-18.5 410.8052,-18.5 410.8052,-.5 347.0122,-.5"/>
<text text-anchor="middle" x="378.9087" y="-6.5" font-family="Helvetica,sans-Serif" font-size="10.00" fill="#000000">src/init.cpp</text>
</a>
</g>
</g>
<!-- Node1&#45;&gt;Node5 -->
<g id="edge4" class="edge">
<title>Node1&#45;&gt;Node5</title>
<path fill="none" stroke="#191970" d="M619.7447,-55.85C568.6828,-47.2018 488.7536,-33.1822 419.9087,-19 417.0461,-18.4103 414.0772,-17.773 411.1049,-17.1173"/>
<polygon fill="#191970" stroke="#191970" points="619.4311,-59.3465 629.8741,-57.5592 620.5959,-52.4441 619.4311,-59.3465"/>
</g>
<!-- Node6 -->
<g id="node6" class="node">
<title>Node6</title>
<g id="a_node6"><a xlink:href="node_8cpp.html" target="_top" xlink:title="src/interfaces/node.cpp">
<polygon fill="#ffffff" stroke="#000000" points="429.2144,-.5 429.2144,-18.5 548.603,-18.5 548.603,-.5 429.2144,-.5"/>
<text text-anchor="middle" x="488.9087" y="-6.5" font-family="Helvetica,sans-Serif" font-size="10.00" fill="#000000">src/interfaces/node.cpp</text>
</a>
</g>
</g>
<!-- Node1&#45;&gt;Node6 -->
<g id="edge5" class="edge">
<title>Node1&#45;&gt;Node6</title>
<path fill="none" stroke="#191970" d="M632.0478,-52.52C597.9842,-42.2822 549.7241,-27.7779 518.8682,-18.5042"/>
<polygon fill="#191970" stroke="#191970" points="631.1057,-55.8914 641.69,-55.4179 633.1206,-49.1876 631.1057,-55.8914"/>
</g>
<!-- Node7 -->
<g id="node7" class="node">
<title>Node7</title>
<g id="a_node7"><a xlink:href="mining_8cpp.html" target="_top" xlink:title="src/rpc/mining.cpp">
<polygon fill="#ffffff" stroke="#000000" points="566.3398,-.5 566.3398,-18.5 663.4775,-18.5 663.4775,-.5 566.3398,-.5"/>
<text text-anchor="middle" x="614.9087" y="-6.5" font-family="Helvetica,sans-Serif" font-size="10.00" fill="#000000">src/rpc/mining.cpp</text>
</a>
</g>
</g>
<!-- Node1&#45;&gt;Node7 -->
<g id="edge6" class="edge">
<title>Node1&#45;&gt;Node7</title>
<path fill="none" stroke="#191970" d="M655.1187,-48.2992C645.1526,-38.6828 632.874,-26.8349 624.5256,-18.7795"/>
<polygon fill="#191970" stroke="#191970" points="652.8698,-50.9928 662.4963,-55.4179 657.7304,-45.9555 652.8698,-50.9928"/>
</g>
<!-- Node8 -->
<g id="node8" class="node">
<title>Node8</title>
<g id="a_node8"><a xlink:href="server_8cpp.html" target="_top" xlink:title="src/rpc/server.cpp">
<polygon fill="#ffffff" stroke="#000000" points="681.4507,-.5 681.4507,-18.5 776.3667,-18.5 776.3667,-.5 681.4507,-.5"/>
<text text-anchor="middle" x="728.9087" y="-6.5" font-family="Helvetica,sans-Serif" font-size="10.00" fill="#000000">src/rpc/server.cpp</text>
</a>
</g>
</g>
<!-- Node1&#45;&gt;Node8 -->
<g id="edge7" class="edge">
<title>Node1&#45;&gt;Node8</title>
<path fill="none" stroke="#191970" d="M688.6986,-48.2992C698.6647,-38.6828 710.9434,-26.8349 719.2918,-18.7795"/>
<polygon fill="#191970" stroke="#191970" points="686.087,-45.9555 681.3211,-55.4179 690.9476,-50.9928 686.087,-45.9555"/>
</g>
<!-- Node9 -->
<g id="node9" class="node">
<title>Node9</title>
<g id="a_node9"><a xlink:href="shutdown_8cpp.html" target="_top" xlink:title="src/shutdown.cpp">
<polygon fill="#ffffff" stroke="#000000" points="794,-.5 794,-18.5 887.8174,-18.5 887.8174,-.5 794,-.5"/>
<text text-anchor="middle" x="840.9087" y="-6.5" font-family="Helvetica,sans-Serif" font-size="10.00" fill="#000000">src/shutdown.cpp</text>
</a>
</g>
</g>
<!-- Node1&#45;&gt;Node9 -->
<g id="edge8" class="edge">
<title>Node1&#45;&gt;Node9</title>
<path fill="none" stroke="#191970" d="M709.533,-52.2554C740.9417,-42.0336 784.9904,-27.6983 813.2412,-18.5042"/>
<polygon fill="#191970" stroke="#191970" points="708.2415,-48.9949 699.8156,-55.4179 710.4079,-55.6513 708.2415,-48.9949"/>
</g>
<!-- Node10 -->
<g id="node10" class="node">
<title>Node10</title>
<g id="a_node10"><a xlink:href="txdb_8cpp.html" target="_top" xlink:title="src/txdb.cpp">
<polygon fill="#ffffff" stroke="#000000" points="905.9531,-.5 905.9531,-18.5 975.8643,-18.5 975.8643,-.5 905.9531,-.5"/>
<text text-anchor="middle" x="940.9087" y="-6.5" font-family="Helvetica,sans-Serif" font-size="10.00" fill="#000000">src/txdb.cpp</text>
</a>
</g>
</g>
<!-- Node1&#45;&gt;Node10 -->
<g id="edge9" class="edge">
<title>Node1&#45;&gt;Node10</title>
<path fill="none" stroke="#191970" d="M723.7774,-54.2116C769.4067,-45.113 837.6122,-31.3963 896.9087,-19 899.8155,-18.3923 902.8289,-17.7557 905.8531,-17.1122"/>
<polygon fill="#191970" stroke="#191970" points="722.9489,-50.8078 713.8255,-56.1942 724.3166,-57.6729 722.9489,-50.8078"/>
</g>
<!-- Node11 -->
<g id="node11" class="node">
<title>Node11</title>
<g id="a_node11"><a xlink:href="validation_8cpp.html" target="_top" xlink:title="src/validation.cpp">
<polygon fill="#ffffff" stroke="#000000" points="994.2783,-.5 994.2783,-18.5 1087.5391,-18.5 1087.5391,-.5 994.2783,-.5"/>
<text text-anchor="middle" x="1040.9087" y="-6.5" font-family="Helvetica,sans-Serif" font-size="10.00" fill="#000000">src/validation.cpp</text>
</a>
</g>
</g>
<!-- Node1&#45;&gt;Node11 -->
<g id="edge10" class="edge">
<title>Node1&#45;&gt;Node11</title>
<path fill="none" stroke="#191970" d="M723.668,-57.3586C785.7839,-48.6998 893.0626,-33.4642 984.9087,-19 987.9284,-18.5244 991.038,-18.0248 994.1713,-17.5138"/>
<polygon fill="#191970" stroke="#191970" points="723.1466,-53.8973 713.7244,-58.7422 724.1114,-60.8305 723.1466,-53.8973"/>
</g>
<!-- Node12 -->
<g id="node12" class="node">
<title>Node12</title>
<g id="a_node12"><a xlink:href="rpcwallet_8cpp.html" target="_top" xlink:title="src/wallet/rpcwallet.cpp">
<polygon fill="#ffffff" stroke="#000000" points="1105.5024,-.5 1105.5024,-18.5 1224.3149,-18.5 1224.3149,-.5 1105.5024,-.5"/>
<text text-anchor="middle" x="1164.9087" y="-6.5" font-family="Helvetica,sans-Serif" font-size="10.00" fill="#000000">src/wallet/rpcwallet.cpp</text>
</a>
</g>
</g>
<!-- Node1&#45;&gt;Node12 -->
<g id="edge11" class="edge">
<title>Node1&#45;&gt;Node12</title>
<path fill="none" stroke="#191970" d="M723.8984,-59.4777C804.0614,-51.6111 962.6374,-35.5624 1096.9087,-19 1099.6297,-18.6644 1102.4107,-18.3124 1105.2189,-17.9496"/>
<polygon fill="#191970" stroke="#191970" points="723.1959,-56.0297 713.5844,-60.4871 723.8778,-62.9964 723.1959,-56.0297"/>
</g>
<!-- Node13 -->
<g id="node13" class="node">
<title>Node13</title>
<g id="a_node13"><a xlink:href="wallet_2wallet_8cpp.html" target="_top" xlink:title="src/wallet/wallet.cpp">
<polygon fill="#ffffff" stroke="#000000" points="1242.4482,-.5 1242.4482,-18.5 1347.3691,-18.5 1347.3691,-.5 1242.4482,-.5"/>
<text text-anchor="middle" x="1294.9087" y="-6.5" font-family="Helvetica,sans-Serif" font-size="10.00" fill="#000000">src/wallet/wallet.cpp</text>
</a>
</g>
</g>
<!-- Node1&#45;&gt;Node13 -->
<g id="edge12" class="edge">
<title>Node1&#45;&gt;Node13</title>
<path fill="none" stroke="#191970" d="M723.9437,-61.52C823.1561,-55.5635 1046.1393,-40.8549 1232.9087,-19 1235.9371,-18.6456 1239.0447,-18.2551 1242.178,-17.8406"/>
<polygon fill="#191970" stroke="#191970" points="723.6568,-58.0308 713.8827,-62.1195 724.0732,-65.0184 723.6568,-58.0308"/>
</g>
</g>
</svg>
