<?xml version="1.0" encoding="UTF-8" standalone="no"?>
<!DOCTYPE svg PUBLIC "-//W3C//DTD SVG 1.1//EN"
 "http://www.w3.org/Graphics/SVG/1.1/DTD/svg11.dtd">
<!-- Generated by graphviz version 2.40.1 (20161225.0304)
 -->
<!-- Title: UnserializeFromVector Pages: 1 -->
<svg width="467pt" height="138pt"
 viewBox="0.00 0.00 467.38 138.00" xmlns="http://www.w3.org/2000/svg" xmlns:xlink="http://www.w3.org/1999/xlink">
<g id="graph0" class="graph" transform="scale(1 1) rotate(0) translate(4 134)">
<title>UnserializeFromVector</title>
<polygon fill="#ffffff" stroke="transparent" points="-4,4 -4,-134 463.3828,-134 463.3828,4 -4,4"/>
<!-- Node119 -->
<g id="node1" class="node">
<title>Node119</title>
<polygon fill="#bfbfbf" stroke="#000000" points="0,-36.5 0,-54.5 117.1475,-54.5 117.1475,-36.5 0,-36.5"/>
<text text-anchor="middle" x="58.5737" y="-42.5" font-family="Helvetica,sans-Serif" font-size="10.00" fill="#000000">UnserializeFromVector</text>
</g>
<!-- Node120 -->
<g id="node2" class="node">
<title>Node120</title>
<g id="a_node2"><a xlink:href="serialize_8h.html#ae3fd928949b7361accfec79c314aa90f" target="_top" xlink:title="ReadCompactSize">
<polygon fill="#ffffff" stroke="#000000" points="153.1475,-55.5 153.1475,-73.5 252.5215,-73.5 252.5215,-55.5 153.1475,-55.5"/>
<text text-anchor="middle" x="202.8345" y="-61.5" font-family="Helvetica,sans-Serif" font-size="10.00" fill="#000000">ReadCompactSize</text>
</a>
</g>
</g>
<!-- Node119&#45;&gt;Node120 -->
<g id="edge1" class="edge">
<title>Node119&#45;&gt;Node120</title>
<path fill="none" stroke="#191970" d="M117.2501,-53.228C125.6797,-54.3383 134.3634,-55.482 142.8186,-56.5955"/>
<polygon fill="#191970" stroke="#191970" points="142.6147,-60.0988 152.9861,-57.9347 143.5288,-53.1588 142.6147,-60.0988"/>
</g>
<!-- Node128 -->
<g id="node10" class="node">
<title>Node128</title>
<g id="a_node10"><a xlink:href="serialize_8h.html#add59187e3016a2ec53a821b074f9e007" target="_top" xlink:title="UnserializeMany">
<polygon fill="#ffffff" stroke="#000000" points="157.8765,-18.5 157.8765,-36.5 247.7925,-36.5 247.7925,-18.5 157.8765,-18.5"/>
<text text-anchor="middle" x="202.8345" y="-24.5" font-family="Helvetica,sans-Serif" font-size="10.00" fill="#000000">UnserializeMany</text>
</a>
</g>
</g>
<!-- Node119&#45;&gt;Node128 -->
<g id="edge9" class="edge">
<title>Node119&#45;&gt;Node128</title>
<path fill="none" stroke="#191970" d="M117.2501,-38.1787C127.2081,-36.9362 137.5208,-35.6494 147.3923,-34.4177"/>
<polygon fill="#191970" stroke="#191970" points="147.9967,-37.8696 157.4864,-33.1583 147.13,-30.9234 147.9967,-37.8696"/>
</g>
<!-- Node121 -->
<g id="node3" class="node">
<title>Node121</title>
<g id="a_node3"><a xlink:href="serialize_8h.html#a1d1f53d2d72386236484546b49409188" target="_top" xlink:title="ser_readdata8">
<polygon fill="#ffffff" stroke="#000000" points="291.3022,-111.5 291.3022,-129.5 371.7944,-129.5 371.7944,-111.5 291.3022,-111.5"/>
<text text-anchor="middle" x="331.5483" y="-117.5" font-family="Helvetica,sans-Serif" font-size="10.00" fill="#000000">ser_readdata8</text>
</a>
</g>
</g>
<!-- Node120&#45;&gt;Node121 -->
<g id="edge2" class="edge">
<title>Node120&#45;&gt;Node121</title>
<path fill="none" stroke="#191970" d="M222.8652,-73.5269C240.1973,-81.3031 265.9541,-92.7768 288.5215,-102.5 292.2629,-104.112 296.1957,-105.7856 300.1,-107.4344"/>
<polygon fill="#191970" stroke="#191970" points="299.0463,-110.788 309.6215,-111.4324 301.7563,-104.3338 299.0463,-110.788"/>
</g>
<!-- Node122 -->
<g id="node4" class="node">
<title>Node122</title>
<g id="a_node4"><a xlink:href="serialize_8h.html#a9d79b9c324578a126d1a393047cec9a4" target="_top" xlink:title="ser_readdata16">
<polygon fill="#ffffff" stroke="#000000" points="288.5215,-74.5 288.5215,-92.5 374.5752,-92.5 374.5752,-74.5 288.5215,-74.5"/>
<text text-anchor="middle" x="331.5483" y="-80.5" font-family="Helvetica,sans-Serif" font-size="10.00" fill="#000000">ser_readdata16</text>
</a>
</g>
</g>
<!-- Node120&#45;&gt;Node122 -->
<g id="edge3" class="edge">
<title>Node120&#45;&gt;Node122</title>
<path fill="none" stroke="#191970" d="M252.5986,-71.8459C260.9473,-73.0783 269.6419,-74.3617 278.0793,-75.6072"/>
<polygon fill="#191970" stroke="#191970" points="277.799,-79.1037 288.203,-77.1016 278.8213,-72.1787 277.799,-79.1037"/>
</g>
<!-- Node124 -->
<g id="node6" class="node">
<title>Node124</title>
<g id="a_node6"><a xlink:href="serialize_8h.html#ac0bbdc7ba802bbaafbf0cf7774b291d6" target="_top" xlink:title="ser_readdata32">
<polygon fill="#ffffff" stroke="#000000" points="288.5215,-37.5 288.5215,-55.5 374.5752,-55.5 374.5752,-37.5 288.5215,-37.5"/>
<text text-anchor="middle" x="331.5483" y="-43.5" font-family="Helvetica,sans-Serif" font-size="10.00" fill="#000000">ser_readdata32</text>
</a>
</g>
</g>
<!-- Node120&#45;&gt;Node124 -->
<g id="edge5" class="edge">
<title>Node120&#45;&gt;Node124</title>
<path fill="none" stroke="#191970" d="M252.5986,-57.5407C260.9473,-56.3732 269.6419,-55.1573 278.0793,-53.9774"/>
<polygon fill="#191970" stroke="#191970" points="278.7841,-57.413 288.203,-52.5616 277.8146,-50.4804 278.7841,-57.413"/>
</g>
<!-- Node126 -->
<g id="node8" class="node">
<title>Node126</title>
<g id="a_node8"><a xlink:href="serialize_8h.html#aa69ce8c2279c2779e04d7b24babe10fc" target="_top" xlink:title="ser_readdata64">
<polygon fill="#ffffff" stroke="#000000" points="288.5215,-.5 288.5215,-18.5 374.5752,-18.5 374.5752,-.5 288.5215,-.5"/>
<text text-anchor="middle" x="331.5483" y="-6.5" font-family="Helvetica,sans-Serif" font-size="10.00" fill="#000000">ser_readdata64</text>
</a>
</g>
</g>
<!-- Node120&#45;&gt;Node126 -->
<g id="edge7" class="edge">
<title>Node120&#45;&gt;Node126</title>
<path fill="none" stroke="#191970" d="M229.6171,-55.4414C237.0992,-52.7372 245.187,-49.6495 252.5215,-46.5 268.9586,-39.4416 272.3348,-36.1152 288.5215,-28.5 292.6224,-26.5707 296.9674,-24.5849 301.258,-22.6578"/>
<polygon fill="#191970" stroke="#191970" points="302.7287,-25.8344 310.448,-18.5775 299.8881,-19.4366 302.7287,-25.8344"/>
</g>
<!-- Node123 -->
<g id="node5" class="node">
<title>Node123</title>
<g id="a_node5"><a xlink:href="endian_8h.html#a43af2810e0abe8dcaefe0920e64a99f4" target="_top" xlink:title="le16toh">
<polygon fill="#ffffff" stroke="#000000" points="410.5752,-74.5 410.5752,-92.5 459.3828,-92.5 459.3828,-74.5 410.5752,-74.5"/>
<text text-anchor="middle" x="434.979" y="-80.5" font-family="Helvetica,sans-Serif" font-size="10.00" fill="#000000">le16toh</text>
</a>
</g>
</g>
<!-- Node122&#45;&gt;Node123 -->
<g id="edge4" class="edge">
<title>Node122&#45;&gt;Node123</title>
<path fill="none" stroke="#191970" d="M374.813,-83.5C383.2808,-83.5 392.0594,-83.5 400.2071,-83.5"/>
<polygon fill="#191970" stroke="#191970" points="400.4756,-87.0001 410.4756,-83.5 400.4755,-80.0001 400.4756,-87.0001"/>
</g>
<!-- Node125 -->
<g id="node7" class="node">
<title>Node125</title>
<g id="a_node7"><a xlink:href="endian_8h.html#a3b4e83868bbf53b2572b736fc146a319" target="_top" xlink:title="le32toh">
<polygon fill="#ffffff" stroke="#000000" points="410.5752,-37.5 410.5752,-55.5 459.3828,-55.5 459.3828,-37.5 410.5752,-37.5"/>
<text text-anchor="middle" x="434.979" y="-43.5" font-family="Helvetica,sans-Serif" font-size="10.00" fill="#000000">le32toh</text>
</a>
</g>
</g>
<!-- Node124&#45;&gt;Node125 -->
<g id="edge6" class="edge">
<title>Node124&#45;&gt;Node125</title>
<path fill="none" stroke="#191970" d="M374.813,-46.5C383.2808,-46.5 392.0594,-46.5 400.2071,-46.5"/>
<polygon fill="#191970" stroke="#191970" points="400.4756,-50.0001 410.4756,-46.5 400.4755,-43.0001 400.4756,-50.0001"/>
</g>
<!-- Node127 -->
<g id="node9" class="node">
<title>Node127</title>
<g id="a_node9"><a xlink:href="endian_8h.html#afc03933561fbd136419c5e9649f975df" target="_top" xlink:title="le64toh">
<polygon fill="#ffffff" stroke="#000000" points="410.5752,-.5 410.5752,-18.5 459.3828,-18.5 459.3828,-.5 410.5752,-.5"/>
<text text-anchor="middle" x="434.979" y="-6.5" font-family="Helvetica,sans-Serif" font-size="10.00" fill="#000000">le64toh</text>
</a>
</g>
</g>
<!-- Node126&#45;&gt;Node127 -->
<g id="edge8" class="edge">
<title>Node126&#45;&gt;Node127</title>
<path fill="none" stroke="#191970" d="M374.813,-9.5C383.2808,-9.5 392.0594,-9.5 400.2071,-9.5"/>
<polygon fill="#191970" stroke="#191970" points="400.4756,-13.0001 410.4756,-9.5 400.4755,-6.0001 400.4756,-13.0001"/>
</g>
</g>
</svg>
