<?xml version="1.0" encoding="UTF-8" standalone="no"?>
<!DOCTYPE svg PUBLIC "-//W3C//DTD SVG 1.1//EN"
 "http://www.w3.org/Graphics/SVG/1.1/DTD/svg11.dtd">
<!-- Generated by graphviz version 2.40.1 (20161225.0304)
 -->
<!-- Title: CBlockTemplate Pages: 1 -->
<svg width="129pt" height="279pt"
 viewBox="0.00 0.00 128.85 279.00" xmlns="http://www.w3.org/2000/svg" xmlns:xlink="http://www.w3.org/1999/xlink">
<g id="graph0" class="graph" transform="scale(1 1) rotate(0) translate(4 275)">
<title>CBlockTemplate</title>
<polygon fill="#ffffff" stroke="transparent" points="-4,4 -4,-275 124.8491,-275 124.8491,4 -4,4"/>
<!-- Node1 -->
<g id="node1" class="node">
<title>Node1</title>
<polygon fill="#bfbfbf" stroke="#000000" points="3.9111,-.5 3.9111,-18.5 92.1621,-18.5 92.1621,-.5 3.9111,-.5"/>
<text text-anchor="middle" x="48.0366" y="-6.5" font-family="Helvetica,sans-Serif" font-size="10.00" fill="#000000">CBlockTemplate</text>
</g>
<!-- Node2 -->
<g id="node2" class="node">
<title>Node2</title>
<g id="a_node2"><a xlink:href="class_c_block.html" target="_top" xlink:title="CBlock">
<polygon fill="#ffffff" stroke="#000000" points="24.1992,-65.5 24.1992,-83.5 71.874,-83.5 71.874,-65.5 24.1992,-65.5"/>
<text text-anchor="middle" x="48.0366" y="-71.5" font-family="Helvetica,sans-Serif" font-size="10.00" fill="#000000">CBlock</text>
</a>
</g>
</g>
<!-- Node2&#45;&gt;Node1 -->
<g id="edge1" class="edge">
<title>Node2&#45;&gt;Node1</title>
<path fill="none" stroke="#9a32cd" stroke-dasharray="5,2" d="M48.0366,-55.1265C48.0366,-43.1522 48.0366,-28.3205 48.0366,-18.8821"/>
<polygon fill="#9a32cd" stroke="#9a32cd" points="44.5367,-55.462 48.0366,-65.462 51.5367,-55.4621 44.5367,-55.462"/>
<text text-anchor="middle" x="61.0981" y="-39" font-family="Helvetica,sans-Serif" font-size="10.00" fill="#000000"> block</text>
</g>
<!-- Node3 -->
<g id="node3" class="node">
<title>Node3</title>
<g id="a_node3"><a xlink:href="class_c_block_header.html" target="_top" xlink:title="Nodes collect new transactions into a block, hash them into a hash tree, and scan through nonce value...">
<polygon fill="#ffffff" stroke="#000000" points="7.8003,-121.5 7.8003,-139.5 88.2729,-139.5 88.2729,-121.5 7.8003,-121.5"/>
<text text-anchor="middle" x="48.0366" y="-127.5" font-family="Helvetica,sans-Serif" font-size="10.00" fill="#000000">CBlockHeader</text>
</a>
</g>
</g>
<!-- Node3&#45;&gt;Node2 -->
<g id="edge2" class="edge">
<title>Node3&#45;&gt;Node2</title>
<path fill="none" stroke="#191970" d="M48.0366,-111.2065C48.0366,-101.8384 48.0366,-91.0262 48.0366,-83.5752"/>
<polygon fill="#191970" stroke="#191970" points="44.5367,-111.2527 48.0366,-121.2527 51.5367,-111.2528 44.5367,-111.2527"/>
</g>
<!-- Node4 -->
<g id="node4" class="node">
<title>Node4</title>
<g id="a_node4"><a xlink:href="classuint256.html" target="_top" xlink:title="256&#45;bit opaque blob. ">
<polygon fill="#ffffff" stroke="#000000" points="23.6328,-196.5 23.6328,-214.5 72.4404,-214.5 72.4404,-196.5 23.6328,-196.5"/>
<text text-anchor="middle" x="48.0366" y="-202.5" font-family="Helvetica,sans-Serif" font-size="10.00" fill="#000000">uint256</text>
</a>
</g>
</g>
<!-- Node4&#45;&gt;Node3 -->
<g id="edge3" class="edge">
<title>Node4&#45;&gt;Node3</title>
<path fill="none" stroke="#9a32cd" stroke-dasharray="5,2" d="M48.0366,-186.1079C48.0366,-171.2042 48.0366,-151.2791 48.0366,-139.7717"/>
<polygon fill="#9a32cd" stroke="#9a32cd" points="44.5367,-186.3035 48.0366,-196.3035 51.5367,-186.3036 44.5367,-186.3035"/>
<text text-anchor="middle" x="84.4429" y="-170" font-family="Helvetica,sans-Serif" font-size="10.00" fill="#000000"> hashPrevBlock</text>
<text text-anchor="middle" x="84.4429" y="-160" font-family="Helvetica,sans-Serif" font-size="10.00" fill="#000000">hashMerkleRoot</text>
</g>
<!-- Node5 -->
<g id="node5" class="node">
<title>Node5</title>
<g id="a_node5"><a xlink:href="classbase__blob.html" target="_top" xlink:title="base_blob\&lt; 256 \&gt;">
<polygon fill="#ffffff" stroke="#000000" points="0,-252.5 0,-270.5 96.0732,-270.5 96.0732,-252.5 0,-252.5"/>
<text text-anchor="middle" x="48.0366" y="-258.5" font-family="Helvetica,sans-Serif" font-size="10.00" fill="#000000">base_blob&lt; 256 &gt;</text>
</a>
</g>
</g>
<!-- Node5&#45;&gt;Node4 -->
<g id="edge4" class="edge">
<title>Node5&#45;&gt;Node4</title>
<path fill="none" stroke="#191970" d="M48.0366,-242.2065C48.0366,-232.8384 48.0366,-222.0262 48.0366,-214.5752"/>
<polygon fill="#191970" stroke="#191970" points="44.5367,-242.2527 48.0366,-252.2527 51.5367,-242.2528 44.5367,-242.2527"/>
</g>
</g>
</svg>
