<?xml version="1.0" encoding="UTF-8" standalone="no"?>
<!DOCTYPE svg PUBLIC "-//W3C//DTD SVG 1.1//EN"
 "http://www.w3.org/Graphics/SVG/1.1/DTD/svg11.dtd">
<!-- Generated by graphviz version 2.40.1 (20161225.0304)
 -->
<!-- Title: SignatureData::MergeSignatureData Pages: 1 -->
<svg width="566pt" height="27pt"
 viewBox="0.00 0.00 565.74 27.00" xmlns="http://www.w3.org/2000/svg" xmlns:xlink="http://www.w3.org/1999/xlink">
<g id="graph0" class="graph" transform="scale(1 1) rotate(0) translate(4 23)">
<title>SignatureData::MergeSignatureData</title>
<polygon fill="#ffffff" stroke="transparent" points="-4,4 -4,-23 561.7373,-23 561.7373,4 -4,4"/>
<!-- Node4 -->
<g id="node1" class="node">
<title>Node4</title>
<polygon fill="#bfbfbf" stroke="#000000" points="0,-.5 0,-18.5 177.7627,-18.5 177.7627,-.5 0,-.5"/>
<text text-anchor="middle" x="88.8813" y="-6.5" font-family="Helvetica,sans-Serif" font-size="10.00" fill="#000000">SignatureData::MergeSignatureData</text>
</g>
<!-- Node5 -->
<g id="node2" class="node">
<title>Node5</title>
<g id="a_node2"><a xlink:href="classprevector.html#a0057a2d5ac2bbff636af5fbd87ae5235" target="_top" xlink:title="prevector::empty">
<polygon fill="#ffffff" stroke="#000000" points="213.7627,-.5 213.7627,-18.5 304.2354,-18.5 304.2354,-.5 213.7627,-.5"/>
<text text-anchor="middle" x="258.999" y="-6.5" font-family="Helvetica,sans-Serif" font-size="10.00" fill="#000000">prevector::empty</text>
</a>
</g>
</g>
<!-- Node4&#45;&gt;Node5 -->
<g id="edge1" class="edge">
<title>Node4&#45;&gt;Node5</title>
<path fill="none" stroke="#191970" d="M177.926,-9.5C186.6308,-9.5 195.2799,-9.5 203.5074,-9.5"/>
<polygon fill="#191970" stroke="#191970" points="203.676,-13.0001 213.6759,-9.5 203.6759,-6.0001 203.676,-13.0001"/>
</g>
<!-- Node6 -->
<g id="node3" class="node">
<title>Node6</title>
<g id="a_node3"><a xlink:href="classprevector.html#a626f7d206dbc24e5610631809762758b" target="_top" xlink:title="prevector::size">
<polygon fill="#ffffff" stroke="#000000" points="340.2354,-.5 340.2354,-18.5 421.2598,-18.5 421.2598,-.5 340.2354,-.5"/>
<text text-anchor="middle" x="380.7476" y="-6.5" font-family="Helvetica,sans-Serif" font-size="10.00" fill="#000000">prevector::size</text>
</a>
</g>
</g>
<!-- Node5&#45;&gt;Node6 -->
<g id="edge2" class="edge">
<title>Node5&#45;&gt;Node6</title>
<path fill="none" stroke="#191970" d="M304.3337,-9.5C312.6969,-9.5 321.4795,-9.5 329.9906,-9.5"/>
<polygon fill="#191970" stroke="#191970" points="330.1912,-13.0001 340.1912,-9.5 330.1912,-6.0001 330.1912,-13.0001"/>
</g>
<!-- Node7 -->
<g id="node4" class="node">
<title>Node7</title>
<g id="a_node4"><a xlink:href="classprevector.html#a933e204a7e29c6bbc85479d023c00ff8" target="_top" xlink:title="prevector::is_direct">
<polygon fill="#ffffff" stroke="#000000" points="457.2598,-.5 457.2598,-18.5 557.7373,-18.5 557.7373,-.5 457.2598,-.5"/>
<text text-anchor="middle" x="507.4985" y="-6.5" font-family="Helvetica,sans-Serif" font-size="10.00" fill="#000000">prevector::is_direct</text>
</a>
</g>
</g>
<!-- Node6&#45;&gt;Node7 -->
<g id="edge3" class="edge">
<title>Node6&#45;&gt;Node7</title>
<path fill="none" stroke="#191970" d="M421.5501,-9.5C429.6645,-9.5 438.3469,-9.5 446.9593,-9.5"/>
<polygon fill="#191970" stroke="#191970" points="446.9992,-13.0001 456.9991,-9.5 446.9991,-6.0001 446.9992,-13.0001"/>
</g>
</g>
</svg>
