<?xml version="1.0" encoding="UTF-8" standalone="no"?>
<!DOCTYPE svg PUBLIC "-//W3C//DTD SVG 1.1//EN"
 "http://www.w3.org/Graphics/SVG/1.1/DTD/svg11.dtd">
<!-- Generated by graphviz version 2.40.1 (20161225.0304)
 -->
<!-- Title: PSBTOutput::FromSignatureData Pages: 1 -->
<svg width="553pt" height="27pt"
 viewBox="0.00 0.00 552.75 27.00" xmlns="http://www.w3.org/2000/svg" xmlns:xlink="http://www.w3.org/1999/xlink">
<g id="graph0" class="graph" transform="scale(1 1) rotate(0) translate(4 23)">
<title>PSBTOutput::FromSignatureData</title>
<polygon fill="#ffffff" stroke="transparent" points="-4,4 -4,-23 548.7539,-23 548.7539,4 -4,4"/>
<!-- Node13 -->
<g id="node1" class="node">
<title>Node13</title>
<polygon fill="#bfbfbf" stroke="#000000" points="0,-.5 0,-18.5 164.7793,-18.5 164.7793,-.5 0,-.5"/>
<text text-anchor="middle" x="82.3896" y="-6.5" font-family="Helvetica,sans-Serif" font-size="10.00" fill="#000000">PSBTOutput::FromSignatureData</text>
</g>
<!-- Node14 -->
<g id="node2" class="node">
<title>Node14</title>
<g id="a_node2"><a xlink:href="classprevector.html#a0057a2d5ac2bbff636af5fbd87ae5235" target="_top" xlink:title="prevector::empty">
<polygon fill="#ffffff" stroke="#000000" points="200.7793,-.5 200.7793,-18.5 291.252,-18.5 291.252,-.5 200.7793,-.5"/>
<text text-anchor="middle" x="246.0156" y="-6.5" font-family="Helvetica,sans-Serif" font-size="10.00" fill="#000000">prevector::empty</text>
</a>
</g>
</g>
<!-- Node13&#45;&gt;Node14 -->
<g id="edge1" class="edge">
<title>Node13&#45;&gt;Node14</title>
<path fill="none" stroke="#191970" d="M165.1614,-9.5C173.7444,-9.5 182.3134,-9.5 190.4904,-9.5"/>
<polygon fill="#191970" stroke="#191970" points="190.6099,-13.0001 200.6098,-9.5 190.6098,-6.0001 190.6099,-13.0001"/>
</g>
<!-- Node15 -->
<g id="node3" class="node">
<title>Node15</title>
<g id="a_node3"><a xlink:href="classprevector.html#a626f7d206dbc24e5610631809762758b" target="_top" xlink:title="prevector::size">
<polygon fill="#ffffff" stroke="#000000" points="327.252,-.5 327.252,-18.5 408.2764,-18.5 408.2764,-.5 327.252,-.5"/>
<text text-anchor="middle" x="367.7642" y="-6.5" font-family="Helvetica,sans-Serif" font-size="10.00" fill="#000000">prevector::size</text>
</a>
</g>
</g>
<!-- Node14&#45;&gt;Node15 -->
<g id="edge2" class="edge">
<title>Node14&#45;&gt;Node15</title>
<path fill="none" stroke="#191970" d="M291.3503,-9.5C299.7135,-9.5 308.4961,-9.5 317.0072,-9.5"/>
<polygon fill="#191970" stroke="#191970" points="317.2078,-13.0001 327.2078,-9.5 317.2078,-6.0001 317.2078,-13.0001"/>
</g>
<!-- Node16 -->
<g id="node4" class="node">
<title>Node16</title>
<g id="a_node4"><a xlink:href="classprevector.html#a933e204a7e29c6bbc85479d023c00ff8" target="_top" xlink:title="prevector::is_direct">
<polygon fill="#ffffff" stroke="#000000" points="444.2764,-.5 444.2764,-18.5 544.7539,-18.5 544.7539,-.5 444.2764,-.5"/>
<text text-anchor="middle" x="494.5151" y="-6.5" font-family="Helvetica,sans-Serif" font-size="10.00" fill="#000000">prevector::is_direct</text>
</a>
</g>
</g>
<!-- Node15&#45;&gt;Node16 -->
<g id="edge3" class="edge">
<title>Node15&#45;&gt;Node16</title>
<path fill="none" stroke="#191970" d="M408.5667,-9.5C416.6811,-9.5 425.3635,-9.5 433.9759,-9.5"/>
<polygon fill="#191970" stroke="#191970" points="434.0158,-13.0001 444.0157,-9.5 434.0157,-6.0001 434.0158,-13.0001"/>
</g>
</g>
</svg>
