<?xml version="1.0" encoding="UTF-8" standalone="no"?>
<!DOCTYPE svg PUBLIC "-//W3C//DTD SVG 1.1//EN"
 "http://www.w3.org/Graphics/SVG/1.1/DTD/svg11.dtd">
<!-- Generated by graphviz version 2.40.1 (20161225.0304)
 -->
<!-- Title: secp256k1_hmac_sha256_t Pages: 1 -->
<svg width="149pt" height="102pt"
 viewBox="0.00 0.00 149.09 102.00" xmlns="http://www.w3.org/2000/svg" xmlns:xlink="http://www.w3.org/1999/xlink">
<g id="graph0" class="graph" transform="scale(1 1) rotate(0) translate(4 98)">
<title>secp256k1_hmac_sha256_t</title>
<polygon fill="#ffffff" stroke="transparent" points="-4,4 -4,-98 145.0928,-98 145.0928,4 -4,4"/>
<!-- Node1 -->
<g id="node1" class="node">
<title>Node1</title>
<polygon fill="#bfbfbf" stroke="#000000" points="0,-.5 0,-18.5 141.0928,-18.5 141.0928,-.5 0,-.5"/>
<text text-anchor="middle" x="70.5464" y="-6.5" font-family="Helvetica,sans-Serif" font-size="10.00" fill="#000000">secp256k1_hmac_sha256_t</text>
</g>
<!-- Node2 -->
<g id="node2" class="node">
<title>Node2</title>
<g id="a_node2"><a xlink:href="structsecp256k1__sha256__t.html" target="_top" xlink:title="secp256k1_sha256_t">
<polygon fill="#ffffff" stroke="#000000" points="15.0073,-75.5 15.0073,-93.5 126.0854,-93.5 126.0854,-75.5 15.0073,-75.5"/>
<text text-anchor="middle" x="70.5464" y="-81.5" font-family="Helvetica,sans-Serif" font-size="10.00" fill="#000000">secp256k1_sha256_t</text>
</a>
</g>
</g>
<!-- Node2&#45;&gt;Node1 -->
<g id="edge1" class="edge">
<title>Node2&#45;&gt;Node1</title>
<path fill="none" stroke="#9a32cd" stroke-dasharray="5,2" d="M70.5464,-65.1079C70.5464,-50.2042 70.5464,-30.2791 70.5464,-18.7717"/>
<polygon fill="#9a32cd" stroke="#9a32cd" points="67.0465,-65.3035 70.5464,-75.3035 74.0465,-65.3036 67.0465,-65.3035"/>
<text text-anchor="middle" x="83.332" y="-49" font-family="Helvetica,sans-Serif" font-size="10.00" fill="#000000"> outer</text>
<text text-anchor="middle" x="83.332" y="-39" font-family="Helvetica,sans-Serif" font-size="10.00" fill="#000000">inner</text>
</g>
</g>
</svg>
