<?xml version="1.0" encoding="UTF-8" standalone="no"?>
<!DOCTYPE svg PUBLIC "-//W3C//DTD SVG 1.1//EN"
 "http://www.w3.org/Graphics/SVG/1.1/DTD/svg11.dtd">
<!-- Generated by graphviz version 2.40.1 (20161225.0304)
 -->
<!-- Title: bench_inv_t Pages: 1 -->
<svg width="224pt" height="188pt"
 viewBox="0.00 0.00 223.77 188.00" xmlns="http://www.w3.org/2000/svg" xmlns:xlink="http://www.w3.org/1999/xlink">
<g id="graph0" class="graph" transform="scale(1 1) rotate(0) translate(4 184)">
<title>bench_inv_t</title>
<polygon fill="#ffffff" stroke="transparent" points="-4,4 -4,-184 219.7749,-184 219.7749,4 -4,4"/>
<!-- Node1 -->
<g id="node1" class="node">
<title>Node1</title>
<polygon fill="#bfbfbf" stroke="#000000" points="40.2827,-.5 40.2827,-18.5 110.2134,-18.5 110.2134,-.5 40.2827,-.5"/>
<text text-anchor="middle" x="75.2481" y="-6.5" font-family="Helvetica,sans-Serif" font-size="10.00" fill="#000000">bench_inv_t</text>
</g>
<!-- Node2 -->
<g id="node2" class="node">
<title>Node2</title>
<g id="a_node2"><a xlink:href="structsecp256k1__gej.html" target="_top" xlink:title="A group element of the secp256k1 curve, in jacobian coordinates. ">
<polygon fill="#ffffff" stroke="#000000" points="33.6104,-76 33.6104,-94 116.8858,-94 116.8858,-76 33.6104,-76"/>
<text text-anchor="middle" x="75.2481" y="-82" font-family="Helvetica,sans-Serif" font-size="10.00" fill="#000000">secp256k1_gej</text>
</a>
</g>
</g>
<!-- Node2&#45;&gt;Node1 -->
<g id="edge1" class="edge">
<title>Node2&#45;&gt;Node1</title>
<path fill="none" stroke="#9a32cd" stroke-dasharray="5,2" d="M75.2481,-65.4786C75.2481,-50.4756 75.2481,-30.4177 75.2481,-18.8335"/>
<polygon fill="#9a32cd" stroke="#9a32cd" points="71.7482,-65.7422 75.2481,-75.7422 78.7482,-65.7423 71.7482,-65.7422"/>
<text text-anchor="middle" x="88.5903" y="-49" font-family="Helvetica,sans-Serif" font-size="10.00" fill="#000000"> gej_x</text>
<text text-anchor="middle" x="88.5903" y="-39" font-family="Helvetica,sans-Serif" font-size="10.00" fill="#000000">gej_y</text>
</g>
<!-- Node3 -->
<g id="node3" class="node">
<title>Node3</title>
<g id="a_node3"><a xlink:href="structsecp256k1__fe.html" target="_top" xlink:title="secp256k1_fe">
<polygon fill="#ffffff" stroke="#000000" points="36.1128,-161.5 36.1128,-179.5 114.3833,-179.5 114.3833,-161.5 36.1128,-161.5"/>
<text text-anchor="middle" x="75.2481" y="-167.5" font-family="Helvetica,sans-Serif" font-size="10.00" fill="#000000">secp256k1_fe</text>
</a>
</g>
</g>
<!-- Node3&#45;&gt;Node1 -->
<g id="edge3" class="edge">
<title>Node3&#45;&gt;Node1</title>
<path fill="none" stroke="#9a32cd" stroke-dasharray="5,2" d="M53.5692,-155.5111C36.0916,-141.9946 12.7984,-120.3778 2.5684,-95 -10.6883,-62.114 31.639,-32.7734 57.2172,-18.5586"/>
<polygon fill="#9a32cd" stroke="#9a32cd" points="51.4847,-158.3227 61.5992,-161.4767 55.6593,-152.7036 51.4847,-158.3227"/>
<text text-anchor="middle" x="14.0879" y="-87" font-family="Helvetica,sans-Serif" font-size="10.00" fill="#000000"> fe_x</text>
<text text-anchor="middle" x="14.0879" y="-77" font-family="Helvetica,sans-Serif" font-size="10.00" fill="#000000">fe_y</text>
</g>
<!-- Node3&#45;&gt;Node2 -->
<g id="edge2" class="edge">
<title>Node3&#45;&gt;Node2</title>
<path fill="none" stroke="#9a32cd" stroke-dasharray="5,2" d="M75.2481,-151.2036C75.2481,-133.3555 75.2481,-107.6083 75.2481,-94.0842"/>
<polygon fill="#9a32cd" stroke="#9a32cd" points="71.7482,-151.35 75.2481,-161.35 78.7482,-151.35 71.7482,-151.35"/>
<text text-anchor="middle" x="79.1372" y="-135" font-family="Helvetica,sans-Serif" font-size="10.00" fill="#000000"> x</text>
<text text-anchor="middle" x="79.1372" y="-125" font-family="Helvetica,sans-Serif" font-size="10.00" fill="#000000">y</text>
<text text-anchor="middle" x="79.1372" y="-115" font-family="Helvetica,sans-Serif" font-size="10.00" fill="#000000">z</text>
</g>
<!-- Node4 -->
<g id="node4" class="node">
<title>Node4</title>
<g id="a_node4"><a xlink:href="structsecp256k1__ge.html" target="_top" xlink:title="A group element of the secp256k1 curve, in affine coordinates. ">
<polygon fill="#ffffff" stroke="#000000" points="134.7212,-76 134.7212,-94 215.7749,-94 215.7749,-76 134.7212,-76"/>
<text text-anchor="middle" x="175.2481" y="-82" font-family="Helvetica,sans-Serif" font-size="10.00" fill="#000000">secp256k1_ge</text>
</a>
</g>
</g>
<!-- Node3&#45;&gt;Node4 -->
<g id="edge5" class="edge">
<title>Node3&#45;&gt;Node4</title>
<path fill="none" stroke="#9a32cd" stroke-dasharray="5,2" d="M93.7906,-154.6461C114.6329,-136.826 147.7561,-108.5056 164.6233,-94.0842"/>
<polygon fill="#9a32cd" stroke="#9a32cd" points="91.2759,-152.1912 85.9498,-161.35 95.8249,-157.5117 91.2759,-152.1912"/>
<text text-anchor="middle" x="144.1372" y="-130" font-family="Helvetica,sans-Serif" font-size="10.00" fill="#000000"> x</text>
<text text-anchor="middle" x="144.1372" y="-120" font-family="Helvetica,sans-Serif" font-size="10.00" fill="#000000">y</text>
</g>
<!-- Node4&#45;&gt;Node1 -->
<g id="edge4" class="edge">
<title>Node4&#45;&gt;Node1</title>
<path fill="none" stroke="#9a32cd" stroke-dasharray="5,2" d="M154.9796,-69.6973C134.6647,-54.3596 104.0671,-31.2584 87.298,-18.5977"/>
<polygon fill="#9a32cd" stroke="#9a32cd" points="152.8963,-72.51 162.9861,-75.7422 157.1142,-66.9234 152.8963,-72.51"/>
<text text-anchor="middle" x="149.4795" y="-49" font-family="Helvetica,sans-Serif" font-size="10.00" fill="#000000"> ge_x</text>
<text text-anchor="middle" x="149.4795" y="-39" font-family="Helvetica,sans-Serif" font-size="10.00" fill="#000000">ge_y</text>
</g>
</g>
</svg>
