<?xml version="1.0" encoding="UTF-8" standalone="no"?>
<!DOCTYPE svg PUBLIC "-//W3C//DTD SVG 1.1//EN"
 "http://www.w3.org/Graphics/SVG/1.1/DTD/svg11.dtd">
<!-- Generated by graphviz version 2.40.1 (20161225.0304)
 -->
<!-- Title: CExtPubKey::Encode Pages: 1 -->
<svg width="381pt" height="138pt"
 viewBox="0.00 0.00 380.95 138.00" xmlns="http://www.w3.org/2000/svg" xmlns:xlink="http://www.w3.org/1999/xlink">
<g id="graph0" class="graph" transform="scale(1 1) rotate(0) translate(4 134)">
<title>CExtPubKey::Encode</title>
<polygon fill="#ffffff" stroke="transparent" points="-4,4 -4,-134 376.9492,-134 376.9492,4 -4,4"/>
<!-- Node48 -->
<g id="node1" class="node">
<title>Node48</title>
<polygon fill="#bfbfbf" stroke="#000000" points="0,-55.5 0,-73.5 112.167,-73.5 112.167,-55.5 0,-55.5"/>
<text text-anchor="middle" x="56.0835" y="-61.5" font-family="Helvetica,sans-Serif" font-size="10.00" fill="#000000">CExtPubKey::Encode</text>
</g>
<!-- Node49 -->
<g id="node2" class="node">
<title>Node49</title>
<g id="a_node2"><a xlink:href="glibc__compat_8cpp.html#a0f46826ab0466591e136db24394923cf" target="_top" xlink:title="memcpy">
<polygon fill="#ffffff" stroke="#000000" points="167.3638,-111.5 167.3638,-129.5 221.147,-129.5 221.147,-111.5 167.3638,-111.5"/>
<text text-anchor="middle" x="194.2554" y="-117.5" font-family="Helvetica,sans-Serif" font-size="10.00" fill="#000000">memcpy</text>
</a>
</g>
</g>
<!-- Node48&#45;&gt;Node49 -->
<g id="edge1" class="edge">
<title>Node48&#45;&gt;Node49</title>
<path fill="none" stroke="#191970" d="M77.6187,-73.5227C96.2505,-81.2963 123.9333,-92.7685 148.167,-102.5 152.4067,-104.2026 156.8742,-105.9746 161.2917,-107.7139"/>
<polygon fill="#191970" stroke="#191970" points="160.1872,-111.0401 170.7749,-111.4291 162.7407,-104.5224 160.1872,-111.0401"/>
</g>
<!-- Node51 -->
<g id="node4" class="node">
<title>Node51</title>
<g id="a_node4"><a xlink:href="classbase__blob.html#aeee68e00ceeacf49086e98b661e017ff" target="_top" xlink:title="base_blob::begin">
<polygon fill="#ffffff" stroke="#000000" points="148.167,-74.5 148.167,-92.5 240.3438,-92.5 240.3438,-74.5 148.167,-74.5"/>
<text text-anchor="middle" x="194.2554" y="-80.5" font-family="Helvetica,sans-Serif" font-size="10.00" fill="#000000">base_blob::begin</text>
</a>
</g>
</g>
<!-- Node48&#45;&gt;Node51 -->
<g id="edge3" class="edge">
<title>Node48&#45;&gt;Node51</title>
<path fill="none" stroke="#191970" d="M112.2833,-72.228C120.6758,-73.3821 129.3313,-74.5723 137.7305,-75.7273"/>
<polygon fill="#191970" stroke="#191970" points="137.4301,-79.2188 147.8137,-77.1138 138.3837,-72.2841 137.4301,-79.2188"/>
</g>
<!-- Node52 -->
<g id="node5" class="node">
<title>Node52</title>
<g id="a_node5"><a xlink:href="class_c_pub_key.html#a6bb28fcf0a5f799c69f5b7269363b309" target="_top" xlink:title="Simple read&#45;only vector&#45;like interface to the pubkey data. ">
<polygon fill="#ffffff" stroke="#000000" points="153.4624,-37.5 153.4624,-55.5 235.0483,-55.5 235.0483,-37.5 153.4624,-37.5"/>
<text text-anchor="middle" x="194.2554" y="-43.5" font-family="Helvetica,sans-Serif" font-size="10.00" fill="#000000">CPubKey::size</text>
</a>
</g>
</g>
<!-- Node48&#45;&gt;Node52 -->
<g id="edge4" class="edge">
<title>Node48&#45;&gt;Node52</title>
<path fill="none" stroke="#191970" d="M112.2833,-57.1787C122.5938,-55.8355 133.3014,-54.4406 143.4429,-53.1195"/>
<polygon fill="#191970" stroke="#191970" points="143.896,-56.5901 153.3601,-51.8275 142.9917,-49.6488 143.896,-56.5901"/>
</g>
<!-- Node54 -->
<g id="node7" class="node">
<title>Node54</title>
<g id="a_node7"><a xlink:href="class_c_pub_key.html#a859ab9909d68092d6d4fc739237ab358" target="_top" xlink:title="CPubKey::begin">
<polygon fill="#ffffff" stroke="#000000" points="150.1201,-.5 150.1201,-18.5 238.3906,-18.5 238.3906,-.5 150.1201,-.5"/>
<text text-anchor="middle" x="194.2554" y="-6.5" font-family="Helvetica,sans-Serif" font-size="10.00" fill="#000000">CPubKey::begin</text>
</a>
</g>
</g>
<!-- Node48&#45;&gt;Node54 -->
<g id="edge6" class="edge">
<title>Node48&#45;&gt;Node54</title>
<path fill="none" stroke="#191970" d="M78.8998,-55.4179C101.5007,-46.4215 136.3285,-32.5581 161.8047,-22.4172"/>
<polygon fill="#191970" stroke="#191970" points="163.4086,-25.5459 171.4052,-18.5956 160.8198,-19.0422 163.4086,-25.5459"/>
</g>
<!-- Node50 -->
<g id="node3" class="node">
<title>Node50</title>
<g id="a_node3"><a xlink:href="glibc__compat_8cpp.html#a9778d49e9029dd75bc53ecbbf9f5e9a1" target="_top" xlink:title="memmove">
<polygon fill="#ffffff" stroke="#000000" points="293.3091,-111.5 293.3091,-129.5 355.9839,-129.5 355.9839,-111.5 293.3091,-111.5"/>
<text text-anchor="middle" x="324.6465" y="-117.5" font-family="Helvetica,sans-Serif" font-size="10.00" fill="#000000">memmove</text>
</a>
</g>
</g>
<!-- Node49&#45;&gt;Node50 -->
<g id="edge2" class="edge">
<title>Node49&#45;&gt;Node50</title>
<path fill="none" stroke="#191970" d="M221.2725,-120.5C239.0586,-120.5 262.698,-120.5 282.8816,-120.5"/>
<polygon fill="#191970" stroke="#191970" points="283.0721,-124.0001 293.072,-120.5 283.072,-117.0001 283.0721,-124.0001"/>
</g>
<!-- Node53 -->
<g id="node6" class="node">
<title>Node53</title>
<g id="a_node6"><a xlink:href="class_c_pub_key.html#a7dc71b3f037c84268dc22de97d7b65fb" target="_top" xlink:title="Compute the length of a pubkey with a given first byte. ">
<polygon fill="#ffffff" stroke="#000000" points="276.3438,-37.5 276.3438,-55.5 372.9492,-55.5 372.9492,-37.5 276.3438,-37.5"/>
<text text-anchor="middle" x="324.6465" y="-43.5" font-family="Helvetica,sans-Serif" font-size="10.00" fill="#000000">CPubKey::GetLen</text>
</a>
</g>
</g>
<!-- Node52&#45;&gt;Node53 -->
<g id="edge5" class="edge">
<title>Node52&#45;&gt;Node53</title>
<path fill="none" stroke="#191970" d="M235.1542,-46.5C244.9008,-46.5 255.4928,-46.5 265.866,-46.5"/>
<polygon fill="#191970" stroke="#191970" points="266.127,-50.0001 276.127,-46.5 266.1269,-43.0001 266.127,-50.0001"/>
</g>
</g>
</svg>
