<?xml version="1.0" encoding="UTF-8" standalone="no"?>
<!DOCTYPE svg PUBLIC "-//W3C//DTD SVG 1.1//EN"
 "http://www.w3.org/Graphics/SVG/1.1/DTD/svg11.dtd">
<!-- Generated by graphviz version 2.40.1 (20161225.0304)
 -->
<!-- Title: PSBTOutput::FillSignatureData Pages: 1 -->
<svg width="542pt" height="27pt"
 viewBox="0.00 0.00 542.20 27.00" xmlns="http://www.w3.org/2000/svg" xmlns:xlink="http://www.w3.org/1999/xlink">
<g id="graph0" class="graph" transform="scale(1 1) rotate(0) translate(4 23)">
<title>PSBTOutput::FillSignatureData</title>
<polygon fill="#ffffff" stroke="transparent" points="-4,4 -4,-23 538.1973,-23 538.1973,4 -4,4"/>
<!-- Node5 -->
<g id="node1" class="node">
<title>Node5</title>
<polygon fill="#bfbfbf" stroke="#000000" points="0,-.5 0,-18.5 154.2227,-18.5 154.2227,-.5 0,-.5"/>
<text text-anchor="middle" x="77.1113" y="-6.5" font-family="Helvetica,sans-Serif" font-size="10.00" fill="#000000">PSBTOutput::FillSignatureData</text>
</g>
<!-- Node6 -->
<g id="node2" class="node">
<title>Node6</title>
<g id="a_node2"><a xlink:href="classprevector.html#a0057a2d5ac2bbff636af5fbd87ae5235" target="_top" xlink:title="prevector::empty">
<polygon fill="#ffffff" stroke="#000000" points="190.2227,-.5 190.2227,-18.5 280.6953,-18.5 280.6953,-.5 190.2227,-.5"/>
<text text-anchor="middle" x="235.459" y="-6.5" font-family="Helvetica,sans-Serif" font-size="10.00" fill="#000000">prevector::empty</text>
</a>
</g>
</g>
<!-- Node5&#45;&gt;Node6 -->
<g id="edge1" class="edge">
<title>Node5&#45;&gt;Node6</title>
<path fill="none" stroke="#191970" d="M154.4297,-9.5C163.0409,-9.5 171.6815,-9.5 179.9435,-9.5"/>
<polygon fill="#191970" stroke="#191970" points="180.1757,-13.0001 190.1756,-9.5 180.1756,-6.0001 180.1757,-13.0001"/>
</g>
<!-- Node7 -->
<g id="node3" class="node">
<title>Node7</title>
<g id="a_node3"><a xlink:href="classprevector.html#a626f7d206dbc24e5610631809762758b" target="_top" xlink:title="prevector::size">
<polygon fill="#ffffff" stroke="#000000" points="316.6953,-.5 316.6953,-18.5 397.7197,-18.5 397.7197,-.5 316.6953,-.5"/>
<text text-anchor="middle" x="357.2075" y="-6.5" font-family="Helvetica,sans-Serif" font-size="10.00" fill="#000000">prevector::size</text>
</a>
</g>
</g>
<!-- Node6&#45;&gt;Node7 -->
<g id="edge2" class="edge">
<title>Node6&#45;&gt;Node7</title>
<path fill="none" stroke="#191970" d="M280.7936,-9.5C289.1569,-9.5 297.9394,-9.5 306.4505,-9.5"/>
<polygon fill="#191970" stroke="#191970" points="306.6512,-13.0001 316.6512,-9.5 306.6511,-6.0001 306.6512,-13.0001"/>
</g>
<!-- Node8 -->
<g id="node4" class="node">
<title>Node8</title>
<g id="a_node4"><a xlink:href="classprevector.html#a933e204a7e29c6bbc85479d023c00ff8" target="_top" xlink:title="prevector::is_direct">
<polygon fill="#ffffff" stroke="#000000" points="433.7197,-.5 433.7197,-18.5 534.1973,-18.5 534.1973,-.5 433.7197,-.5"/>
<text text-anchor="middle" x="483.9585" y="-6.5" font-family="Helvetica,sans-Serif" font-size="10.00" fill="#000000">prevector::is_direct</text>
</a>
</g>
</g>
<!-- Node7&#45;&gt;Node8 -->
<g id="edge3" class="edge">
<title>Node7&#45;&gt;Node8</title>
<path fill="none" stroke="#191970" d="M398.01,-9.5C406.1245,-9.5 414.8069,-9.5 423.4193,-9.5"/>
<polygon fill="#191970" stroke="#191970" points="423.4591,-13.0001 433.4591,-9.5 423.4591,-6.0001 423.4591,-13.0001"/>
</g>
</g>
</svg>
