<?xml version="1.0" encoding="UTF-8" standalone="no"?>
<!DOCTYPE svg PUBLIC "-//W3C//DTD SVG 1.1//EN"
 "http://www.w3.org/Graphics/SVG/1.1/DTD/svg11.dtd">
<!-- Generated by graphviz version 2.40.1 (20161225.0304)
 -->
<!-- Title: mempoolentry_txid::operator() Pages: 1 -->
<svg width="283pt" height="64pt"
 viewBox="0.00 0.00 282.73 64.00" xmlns="http://www.w3.org/2000/svg" xmlns:xlink="http://www.w3.org/1999/xlink">
<g id="graph0" class="graph" transform="scale(1 1) rotate(0) translate(4 60)">
<title>mempoolentry_txid::operator()</title>
<polygon fill="#ffffff" stroke="transparent" points="-4,4 -4,-60 278.7285,-60 278.7285,4 -4,4"/>
<!-- Node0 -->
<g id="node1" class="node">
<title>Node0</title>
<polygon fill="#bfbfbf" stroke="#000000" points="0,-13.5 0,-41.5 106.0391,-41.5 106.0391,-13.5 0,-13.5"/>
<text text-anchor="start" x="8" y="-29.5" font-family="Helvetica,sans-Serif" font-size="10.00" fill="#000000">mempoolentry_txid::</text>
<text text-anchor="middle" x="53.0195" y="-19.5" font-family="Helvetica,sans-Serif" font-size="10.00" fill="#000000">operator()</text>
</g>
<!-- Node1 -->
<g id="node2" class="node">
<title>Node1</title>
<g id="a_node2"><a xlink:href="class_c_tx_mem_pool_entry.html#a2deed4202061edf8b040a3f554417c20" target="_top" xlink:title="CTxMemPoolEntry::GetTx">
<polygon fill="#ffffff" stroke="#000000" points="142.0391,-37.5 142.0391,-55.5 274.7285,-55.5 274.7285,-37.5 142.0391,-37.5"/>
<text text-anchor="middle" x="208.3838" y="-43.5" font-family="Helvetica,sans-Serif" font-size="10.00" fill="#000000">CTxMemPoolEntry::GetTx</text>
</a>
</g>
</g>
<!-- Node0&#45;&gt;Node1 -->
<g id="edge1" class="edge">
<title>Node0&#45;&gt;Node1</title>
<path fill="none" stroke="#191970" d="M106.0526,-33.9856C114.3294,-34.9978 123.0228,-36.0609 131.6996,-37.122"/>
<polygon fill="#191970" stroke="#191970" points="131.5009,-40.6237 141.8518,-38.3636 132.3507,-33.6755 131.5009,-40.6237"/>
</g>
<!-- Node2 -->
<g id="node3" class="node">
<title>Node2</title>
<g id="a_node3"><a xlink:href="class_c_transaction.html#a7efd1379de830341417c0bfa23a149aa" target="_top" xlink:title="CTransaction::GetHash">
<polygon fill="#ffffff" stroke="#000000" points="148.3232,-.5 148.3232,-18.5 268.4443,-18.5 268.4443,-.5 148.3232,-.5"/>
<text text-anchor="middle" x="208.3838" y="-6.5" font-family="Helvetica,sans-Serif" font-size="10.00" fill="#000000">CTransaction::GetHash</text>
</a>
</g>
</g>
<!-- Node0&#45;&gt;Node2 -->
<g id="edge2" class="edge">
<title>Node0&#45;&gt;Node2</title>
<path fill="none" stroke="#191970" d="M106.0526,-21.3558C116.3115,-20.1672 127.2102,-18.9045 137.9241,-17.6632"/>
<polygon fill="#191970" stroke="#191970" points="138.5819,-21.1105 148.1127,-16.4828 137.7763,-14.157 138.5819,-21.1105"/>
</g>
</g>
</svg>
