<?xml version="1.0" encoding="UTF-8" standalone="no"?>
<!DOCTYPE svg PUBLIC "-//W3C//DTD SVG 1.1//EN"
 "http://www.w3.org/Graphics/SVG/1.1/DTD/svg11.dtd">
<!-- Generated by graphviz version 2.40.1 (20161225.0304)
 -->
<!-- Title: PSBTInput Pages: 1 -->
<svg width="326pt" height="299pt"
 viewBox="0.00 0.00 325.72 299.00" xmlns="http://www.w3.org/2000/svg" xmlns:xlink="http://www.w3.org/1999/xlink">
<g id="graph0" class="graph" transform="scale(1 1) rotate(0) translate(4 295)">
<title>PSBTInput</title>
<polygon fill="#ffffff" stroke="transparent" points="-4,4 -4,-295 321.7231,-295 321.7231,4 -4,4"/>
<!-- Node1 -->
<g id="node1" class="node">
<title>Node1</title>
<polygon fill="#bfbfbf" stroke="#000000" points="126.061,-.5 126.061,-18.5 190.4204,-18.5 190.4204,-.5 126.061,-.5"/>
<text text-anchor="middle" x="158.2407" y="-6.5" font-family="Helvetica,sans-Serif" font-size="10.00" fill="#000000">PSBTInput</text>
</g>
<!-- Node2 -->
<g id="node2" class="node">
<title>Node2</title>
<g id="a_node2"><a xlink:href="class_c_script.html" target="_top" xlink:title="Serialized script, used inside transaction inputs and outputs. ">
<polygon fill="#ffffff" stroke="#000000" points="37.8491,-141.5 37.8491,-159.5 86.6323,-159.5 86.6323,-141.5 37.8491,-141.5"/>
<text text-anchor="middle" x="62.2407" y="-147.5" font-family="Helvetica,sans-Serif" font-size="10.00" fill="#000000">CScript</text>
</a>
</g>
</g>
<!-- Node2&#45;&gt;Node1 -->
<g id="edge1" class="edge">
<title>Node2&#45;&gt;Node1</title>
<path fill="none" stroke="#9a32cd" stroke-dasharray="5,2" d="M54.8608,-131.9633C48.84,-113.6248 43.1332,-85.4172 55.3198,-65 70.5105,-39.5499 101.85,-25.0771 125.9777,-17.3384"/>
<polygon fill="#9a32cd" stroke="#9a32cd" points="51.6136,-133.2758 58.3092,-141.4867 58.1955,-130.8925 51.6136,-133.2758"/>
<text text-anchor="middle" x="90.7012" y="-87" font-family="Helvetica,sans-Serif" font-size="10.00" fill="#000000"> final_script_sig</text>
<text text-anchor="middle" x="90.7012" y="-77" font-family="Helvetica,sans-Serif" font-size="10.00" fill="#000000">redeem_script</text>
<text text-anchor="middle" x="90.7012" y="-67" font-family="Helvetica,sans-Serif" font-size="10.00" fill="#000000">witness_script</text>
</g>
<!-- Node6 -->
<g id="node6" class="node">
<title>Node6</title>
<g id="a_node6"><a xlink:href="class_c_tx_out.html" target="_top" xlink:title="An output of a transaction. ">
<polygon fill="#ffffff" stroke="#000000" points="133.0166,-71 133.0166,-89 183.4648,-89 183.4648,-71 133.0166,-71"/>
<text text-anchor="middle" x="158.2407" y="-77" font-family="Helvetica,sans-Serif" font-size="10.00" fill="#000000">CTxOut</text>
</a>
</g>
</g>
<!-- Node2&#45;&gt;Node6 -->
<g id="edge6" class="edge">
<title>Node2&#45;&gt;Node6</title>
<path fill="none" stroke="#9a32cd" stroke-dasharray="5,2" d="M82.8789,-135.3439C101.9697,-121.324 129.731,-100.9368 145.6873,-89.2189"/>
<polygon fill="#9a32cd" stroke="#9a32cd" points="80.7794,-132.5432 74.791,-141.2834 84.9228,-138.1852 80.7794,-132.5432"/>
<text text-anchor="middle" x="144.0879" y="-115" font-family="Helvetica,sans-Serif" font-size="10.00" fill="#000000"> scriptPubKey</text>
</g>
<!-- Node3 -->
<g id="node3" class="node">
<title>Node3</title>
<g id="a_node3"><a xlink:href="classprevector.html" target="_top" xlink:title="Implements a drop&#45;in replacement for std::vector&lt;T&gt; which stores up to N elements directly (without h...">
<polygon fill="#ffffff" stroke="#000000" points="26.4526,-197.5 26.4526,-215.5 98.0288,-215.5 98.0288,-197.5 26.4526,-197.5"/>
<text text-anchor="middle" x="62.2407" y="-203.5" font-family="Helvetica,sans-Serif" font-size="10.00" fill="#000000">CScriptBase</text>
</a>
</g>
</g>
<!-- Node3&#45;&gt;Node2 -->
<g id="edge2" class="edge">
<title>Node3&#45;&gt;Node2</title>
<path fill="none" stroke="#191970" d="M62.2407,-187.2065C62.2407,-177.8384 62.2407,-167.0262 62.2407,-159.5752"/>
<polygon fill="#191970" stroke="#191970" points="58.7408,-187.2527 62.2407,-197.2527 65.7408,-187.2528 58.7408,-187.2527"/>
</g>
<!-- Node4 -->
<g id="node4" class="node">
<title>Node4</title>
<g id="a_node4"><a xlink:href="unionprevector_1_1direct__or__indirect.html" target="_top" xlink:title="prevector\&lt; N, T, Size,\l Diff \&gt;::direct_or_indirect">
<polygon fill="#ffffff" stroke="#000000" points="0,-262.5 0,-290.5 124.4814,-290.5 124.4814,-262.5 0,-262.5"/>
<text text-anchor="start" x="8" y="-278.5" font-family="Helvetica,sans-Serif" font-size="10.00" fill="#000000">prevector&lt; N, T, Size,</text>
<text text-anchor="middle" x="62.2407" y="-268.5" font-family="Helvetica,sans-Serif" font-size="10.00" fill="#000000"> Diff &gt;::direct_or_indirect</text>
</a>
</g>
</g>
<!-- Node4&#45;&gt;Node3 -->
<g id="edge3" class="edge">
<title>Node4&#45;&gt;Node3</title>
<path fill="none" stroke="#9a32cd" stroke-dasharray="5,2" d="M62.2407,-252.007C62.2407,-239.4648 62.2407,-224.9386 62.2407,-215.7368"/>
<polygon fill="#9a32cd" stroke="#9a32cd" points="58.7408,-252.3344 62.2407,-262.3345 65.7408,-252.3345 58.7408,-252.3344"/>
<text text-anchor="middle" x="78.6445" y="-236" font-family="Helvetica,sans-Serif" font-size="10.00" fill="#000000"> _union</text>
</g>
<!-- Node5 -->
<g id="node5" class="node">
<title>Node5</title>
<g id="a_node5"><a xlink:href="struct_c_script_witness.html" target="_top" xlink:title="CScriptWitness">
<polygon fill="#ffffff" stroke="#000000" points="201.0684,-71 201.0684,-89 285.4131,-89 285.4131,-71 201.0684,-71"/>
<text text-anchor="middle" x="243.2407" y="-77" font-family="Helvetica,sans-Serif" font-size="10.00" fill="#000000">CScriptWitness</text>
</a>
</g>
</g>
<!-- Node5&#45;&gt;Node1 -->
<g id="edge4" class="edge">
<title>Node5&#45;&gt;Node1</title>
<path fill="none" stroke="#9a32cd" stroke-dasharray="5,2" d="M237.1103,-61.5927C233.561,-53.2146 228.3629,-43.6982 221.2407,-37 212.5473,-28.824 201.0325,-22.8393 190.2272,-18.5816"/>
<polygon fill="#9a32cd" stroke="#9a32cd" points="233.845,-62.8532 240.6405,-70.9816 240.3971,-60.3896 233.845,-62.8532"/>
<text text-anchor="middle" x="272.9819" y="-39" font-family="Helvetica,sans-Serif" font-size="10.00" fill="#000000"> final_script_witness</text>
</g>
<!-- Node6&#45;&gt;Node1 -->
<g id="edge5" class="edge">
<title>Node6&#45;&gt;Node1</title>
<path fill="none" stroke="#9a32cd" stroke-dasharray="5,2" d="M158.2407,-60.5661C158.2407,-47.0192 158.2407,-29.5407 158.2407,-18.9439"/>
<polygon fill="#9a32cd" stroke="#9a32cd" points="154.7408,-60.7833 158.2407,-70.7834 161.7408,-60.7834 154.7408,-60.7833"/>
<text text-anchor="middle" x="188.5337" y="-39" font-family="Helvetica,sans-Serif" font-size="10.00" fill="#000000"> witness_utxo</text>
</g>
</g>
</svg>
