<?xml version="1.0" encoding="UTF-8" standalone="no"?>
<!DOCTYPE svg PUBLIC "-//W3C//DTD SVG 1.1//EN"
 "http://www.w3.org/Graphics/SVG/1.1/DTD/svg11.dtd">
<!-- Generated by graphviz version 2.40.1 (20161225.0304)
 -->
<!-- Title: src/torcontrol.h Pages: 1 -->
<svg width="182pt" height="82pt"
 viewBox="0.00 0.00 182.24 82.00" xmlns="http://www.w3.org/2000/svg" xmlns:xlink="http://www.w3.org/1999/xlink">
<g id="graph0" class="graph" transform="scale(1 1) rotate(0) translate(4 78)">
<title>src/torcontrol.h</title>
<polygon fill="#ffffff" stroke="transparent" points="-4,4 -4,-78 178.2437,-78 178.2437,4 -4,4"/>
<!-- Node10 -->
<g id="node1" class="node">
<title>Node10</title>
<polygon fill="#bfbfbf" stroke="#000000" points="38.8301,-55.5 38.8301,-73.5 120.9629,-73.5 120.9629,-55.5 38.8301,-55.5"/>
<text text-anchor="middle" x="79.8965" y="-61.5" font-family="Helvetica,sans-Serif" font-size="10.00" fill="#000000">src/torcontrol.h</text>
</g>
<!-- Node11 -->
<g id="node2" class="node">
<title>Node11</title>
<g id="a_node2"><a xlink:href="init_8cpp.html" target="_top" xlink:title="src/init.cpp">
<polygon fill="#ffffff" stroke="#000000" points="0,-.5 0,-18.5 63.793,-18.5 63.793,-.5 0,-.5"/>
<text text-anchor="middle" x="31.8965" y="-6.5" font-family="Helvetica,sans-Serif" font-size="10.00" fill="#000000">src/init.cpp</text>
</a>
</g>
</g>
<!-- Node10&#45;&gt;Node11 -->
<g id="edge1" class="edge">
<title>Node10&#45;&gt;Node11</title>
<path fill="none" stroke="#191970" d="M65.2568,-47.7253C56.9569,-38.215 46.8859,-26.6754 39.9949,-18.7795"/>
<polygon fill="#191970" stroke="#191970" points="62.7579,-50.185 71.9703,-55.4179 68.0319,-45.5822 62.7579,-50.185"/>
</g>
<!-- Node12 -->
<g id="node3" class="node">
<title>Node12</title>
<g id="a_node3"><a xlink:href="torcontrol_8cpp.html" target="_top" xlink:title="src/torcontrol.cpp">
<polygon fill="#ffffff" stroke="#000000" points="81.5493,-.5 81.5493,-18.5 174.2437,-18.5 174.2437,-.5 81.5493,-.5"/>
<text text-anchor="middle" x="127.8965" y="-6.5" font-family="Helvetica,sans-Serif" font-size="10.00" fill="#000000">src/torcontrol.cpp</text>
</a>
</g>
</g>
<!-- Node10&#45;&gt;Node12 -->
<g id="edge2" class="edge">
<title>Node10&#45;&gt;Node12</title>
<path fill="none" stroke="#191970" d="M94.5362,-47.7253C102.8361,-38.215 112.907,-26.6754 119.798,-18.7795"/>
<polygon fill="#191970" stroke="#191970" points="91.7611,-45.5822 87.8227,-55.4179 97.0351,-50.185 91.7611,-45.5822"/>
</g>
</g>
</svg>
