<?xml version="1.0" encoding="UTF-8" standalone="no"?>
<!DOCTYPE svg PUBLIC "-//W3C//DTD SVG 1.1//EN"
 "http://www.w3.org/Graphics/SVG/1.1/DTD/svg11.dtd">
<!-- Generated by graphviz version 2.40.1 (20161225.0304)
 -->
<!-- Title: src/qt/transactionrecord.cpp Pages: 1 -->
<svg width="2445pt" height="477pt"
 viewBox="0.00 0.00 2445.33 477.00" xmlns="http://www.w3.org/2000/svg" xmlns:xlink="http://www.w3.org/1999/xlink">
<g id="graph0" class="graph" transform="scale(1 1) rotate(0) translate(4 473)">
<title>src/qt/transactionrecord.cpp</title>
<polygon fill="#ffffff" stroke="transparent" points="-4,4 -4,-473 2441.3343,-473 2441.3343,4 -4,4"/>
<!-- Node0 -->
<g id="node1" class="node">
<title>Node0</title>
<polygon fill="#bfbfbf" stroke="#000000" points="2046.7095,-450.5 2046.7095,-468.5 2186.0981,-468.5 2186.0981,-450.5 2046.7095,-450.5"/>
<text text-anchor="middle" x="2116.4038" y="-456.5" font-family="Helvetica,sans-Serif" font-size="10.00" fill="#000000">src/qt/transactionrecord.cpp</text>
</g>
<!-- Node1 -->
<g id="node2" class="node">
<title>Node1</title>
<g id="a_node2"><a xlink:href="transactionrecord_8h.html" target="_top" xlink:title="qt/transactionrecord.h">
<polygon fill="#ffffff" stroke="#000000" points="2060.0444,-340.5 2060.0444,-358.5 2172.7632,-358.5 2172.7632,-340.5 2060.0444,-340.5"/>
<text text-anchor="middle" x="2116.4038" y="-346.5" font-family="Helvetica,sans-Serif" font-size="10.00" fill="#000000">qt/transactionrecord.h</text>
</a>
</g>
</g>
<!-- Node0&#45;&gt;Node1 -->
<g id="edge1" class="edge">
<title>Node0&#45;&gt;Node1</title>
<path fill="none" stroke="#191970" d="M2116.4038,-450.4982C2116.4038,-432.6913 2116.4038,-392.6225 2116.4038,-368.6515"/>
<polygon fill="#191970" stroke="#191970" points="2119.9039,-368.6261 2116.4038,-358.6261 2112.9039,-368.6262 2119.9039,-368.6261"/>
</g>
<!-- Node3 -->
<g id="node4" class="node">
<title>Node3</title>
<polygon fill="#ffffff" stroke="#bfbfbf" points="1030.2832,-.5 1030.2832,-18.5 1078.5244,-18.5 1078.5244,-.5 1030.2832,-.5"/>
<text text-anchor="middle" x="1054.4038" y="-6.5" font-family="Helvetica,sans-Serif" font-size="10.00" fill="#000000">stdint.h</text>
</g>
<!-- Node0&#45;&gt;Node3 -->
<g id="edge129" class="edge">
<title>Node0&#45;&gt;Node3</title>
<path fill="none" stroke="#191970" d="M2164.594,-450.411C2215.7832,-437.6392 2289.4038,-408.9386 2289.4038,-349.5 2289.4038,-349.5 2289.4038,-349.5 2289.4038,-119.5 2289.4038,-90.3949 2728.7585,-164.7214 2090.4038,-55 1891.373,-20.7903 1245.5487,-11.5964 1088.8775,-9.8458"/>
<polygon fill="#191970" stroke="#191970" points="1088.9017,-6.346 1078.8641,-9.7367 1088.8253,-13.3456 1088.9017,-6.346"/>
</g>
<!-- Node16 -->
<g id="node16" class="node">
<title>Node16</title>
<g id="a_node16"><a xlink:href="consensus_8h.html" target="_top" xlink:title="consensus/consensus.h">
<polygon fill="#ffffff" stroke="#000000" points="2139.0371,-110.5 2139.0371,-128.5 2261.7705,-128.5 2261.7705,-110.5 2139.0371,-110.5"/>
<text text-anchor="middle" x="2200.4038" y="-116.5" font-family="Helvetica,sans-Serif" font-size="10.00" fill="#000000">consensus/consensus.h</text>
</a>
</g>
</g>
<!-- Node0&#45;&gt;Node16 -->
<g id="edge18" class="edge">
<title>Node0&#45;&gt;Node16</title>
<path fill="none" stroke="#191970" d="M2130.2747,-450.4393C2154.1331,-433.6332 2200.4038,-395.1545 2200.4038,-349.5 2200.4038,-349.5 2200.4038,-349.5 2200.4038,-234.5 2200.4038,-200.853 2200.4038,-161.6686 2200.4038,-138.819"/>
<polygon fill="#191970" stroke="#191970" points="2203.9039,-138.742 2200.4038,-128.742 2196.9039,-138.7421 2203.9039,-138.742"/>
</g>
<!-- Node18 -->
<g id="node18" class="node">
<title>Node18</title>
<g id="a_node18"><a xlink:href="interfaces_2wallet_8h.html" target="_top" xlink:title="interfaces/wallet.h">
<polygon fill="#ffffff" stroke="#000000" points="415.3843,-340.5 415.3843,-358.5 511.4233,-358.5 511.4233,-340.5 415.3843,-340.5"/>
<text text-anchor="middle" x="463.4038" y="-346.5" font-family="Helvetica,sans-Serif" font-size="10.00" fill="#000000">interfaces/wallet.h</text>
</a>
</g>
</g>
<!-- Node0&#45;&gt;Node18 -->
<g id="edge21" class="edge">
<title>Node0&#45;&gt;Node18</title>
<path fill="none" stroke="#191970" d="M2046.6469,-455.9888C1907.3952,-448.8808 1585.0601,-431.9329 1314.4038,-414 1016.5001,-394.2617 660.3311,-365.6353 522.1838,-354.3414"/>
<polygon fill="#191970" stroke="#191970" points="522.0877,-350.8219 511.8355,-353.4944 521.5166,-357.7986 522.0877,-350.8219"/>
</g>
<!-- Node75 -->
<g id="node42" class="node">
<title>Node75</title>
<g id="a_node42"><a xlink:href="key__io_8h.html" target="_top" xlink:title="key_io.h">
<polygon fill="#ffffff" stroke="#000000" points="1323.7808,-395.5 1323.7808,-413.5 1377.0269,-413.5 1377.0269,-395.5 1323.7808,-395.5"/>
<text text-anchor="middle" x="1350.4038" y="-401.5" font-family="Helvetica,sans-Serif" font-size="10.00" fill="#000000">key_io.h</text>
</a>
</g>
</g>
<!-- Node0&#45;&gt;Node75 -->
<g id="edge92" class="edge">
<title>Node0&#45;&gt;Node75</title>
<path fill="none" stroke="#191970" d="M2046.3958,-454.4733C1888.1145,-443.1085 1507.1702,-415.7561 1387.2174,-407.1433"/>
<polygon fill="#191970" stroke="#191970" points="1387.308,-403.6409 1377.083,-406.4156 1386.8066,-410.6229 1387.308,-403.6409"/>
</g>
<!-- Node84 -->
<g id="node49" class="node">
<title>Node84</title>
<g id="a_node49"><a xlink:href="timedata_8h.html" target="_top" xlink:title="timedata.h">
<polygon fill="#ffffff" stroke="#000000" points="1857.0566,-165.5 1857.0566,-183.5 1919.751,-183.5 1919.751,-165.5 1857.0566,-165.5"/>
<text text-anchor="middle" x="1888.4038" y="-171.5" font-family="Helvetica,sans-Serif" font-size="10.00" fill="#000000">timedata.h</text>
</a>
</g>
</g>
<!-- Node0&#45;&gt;Node84 -->
<g id="edge123" class="edge">
<title>Node0&#45;&gt;Node84</title>
<path fill="none" stroke="#191970" d="M2102.5329,-450.4393C2078.6746,-433.6332 2032.4038,-395.1545 2032.4038,-349.5 2032.4038,-349.5 2032.4038,-349.5 2032.4038,-294.5 2032.4038,-239.0995 1968.724,-204.3148 1926.0581,-187.2263"/>
<polygon fill="#191970" stroke="#191970" points="1927.1002,-183.8772 1916.5103,-183.5537 1924.5871,-190.4105 1927.1002,-183.8772"/>
</g>
<!-- Node85 -->
<g id="node50" class="node">
<title>Node85</title>
<polygon fill="#ffffff" stroke="#bfbfbf" points="2317.1084,-395.5 2317.1084,-413.5 2383.6992,-413.5 2383.6992,-395.5 2317.1084,-395.5"/>
<text text-anchor="middle" x="2350.4038" y="-401.5" font-family="Helvetica,sans-Serif" font-size="10.00" fill="#000000">validation.h</text>
</g>
<!-- Node0&#45;&gt;Node85 -->
<g id="edge128" class="edge">
<title>Node0&#45;&gt;Node85</title>
<path fill="none" stroke="#191970" d="M2154.7821,-450.4795C2196.6426,-440.6405 2263.4939,-424.9276 2307.1746,-414.6607"/>
<polygon fill="#191970" stroke="#191970" points="2308.0037,-418.0613 2316.9376,-412.366 2306.402,-411.247 2308.0037,-418.0613"/>
</g>
<!-- Node2 -->
<g id="node3" class="node">
<title>Node2</title>
<g id="a_node3"><a xlink:href="amount_8h.html" target="_top" xlink:title="amount.h">
<polygon fill="#ffffff" stroke="#000000" points="683.5566,-285.5 683.5566,-303.5 741.251,-303.5 741.251,-285.5 683.5566,-285.5"/>
<text text-anchor="middle" x="712.4038" y="-291.5" font-family="Helvetica,sans-Serif" font-size="10.00" fill="#000000">amount.h</text>
</a>
</g>
</g>
<!-- Node1&#45;&gt;Node2 -->
<g id="edge2" class="edge">
<title>Node1&#45;&gt;Node2</title>
<path fill="none" stroke="#191970" d="M2059.6264,-347.2758C1826.7674,-338.1538 947.9685,-303.728 751.5169,-296.0322"/>
<polygon fill="#191970" stroke="#191970" points="751.5041,-292.5291 741.3747,-295.6349 751.23,-299.5237 751.5041,-292.5291"/>
</g>
<!-- Node4 -->
<g id="node5" class="node">
<title>Node4</title>
<g id="a_node5"><a xlink:href="uint256_8h.html" target="_top" xlink:title="uint256.h">
<polygon fill="#ffffff" stroke="#000000" points="1182.8301,-165.5 1182.8301,-183.5 1239.9775,-183.5 1239.9775,-165.5 1182.8301,-165.5"/>
<text text-anchor="middle" x="1211.4038" y="-171.5" font-family="Helvetica,sans-Serif" font-size="10.00" fill="#000000">uint256.h</text>
</a>
</g>
</g>
<!-- Node1&#45;&gt;Node4 -->
<g id="edge4" class="edge">
<title>Node1&#45;&gt;Node4</title>
<path fill="none" stroke="#191970" d="M2059.7884,-348.1813C1951.1455,-345.0159 1706.1174,-334.8046 1502.4038,-304 1394.6304,-287.703 1353.7437,-309.9868 1263.4038,-249 1252.4501,-241.6053 1233.5548,-211.9683 1221.8088,-192.3773"/>
<polygon fill="#191970" stroke="#191970" points="1224.7855,-190.5348 1216.683,-183.7084 1218.76,-194.0976 1224.7855,-190.5348"/>
</g>
<!-- Node14 -->
<g id="node14" class="node">
<title>Node14</title>
<polygon fill="#ffffff" stroke="#bfbfbf" points="2130.7339,-285.5 2130.7339,-303.5 2170.0737,-303.5 2170.0737,-285.5 2130.7339,-285.5"/>
<text text-anchor="middle" x="2150.4038" y="-291.5" font-family="Helvetica,sans-Serif" font-size="10.00" fill="#000000">QList</text>
</g>
<!-- Node1&#45;&gt;Node14 -->
<g id="edge16" class="edge">
<title>Node1&#45;&gt;Node14</title>
<path fill="none" stroke="#191970" d="M2122.0182,-340.4179C2126.7147,-332.8207 2133.5567,-321.7527 2139.3466,-312.3866"/>
<polygon fill="#191970" stroke="#191970" points="2142.3862,-314.1258 2144.6674,-303.7795 2136.4321,-310.445 2142.3862,-314.1258"/>
</g>
<!-- Node15 -->
<g id="node15" class="node">
<title>Node15</title>
<polygon fill="#ffffff" stroke="#bfbfbf" points="2062.4531,-285.5 2062.4531,-303.5 2112.3545,-303.5 2112.3545,-285.5 2062.4531,-285.5"/>
<text text-anchor="middle" x="2087.4038" y="-291.5" font-family="Helvetica,sans-Serif" font-size="10.00" fill="#000000">QString</text>
</g>
<!-- Node1&#45;&gt;Node15 -->
<g id="edge17" class="edge">
<title>Node1&#45;&gt;Node15</title>
<path fill="none" stroke="#191970" d="M2111.615,-340.4179C2107.651,-332.8998 2101.8948,-321.9829 2096.9895,-312.6799"/>
<polygon fill="#191970" stroke="#191970" points="2100.0568,-310.9927 2092.2966,-303.7795 2093.8648,-314.2576 2100.0568,-310.9927"/>
</g>
<!-- Node2&#45;&gt;Node3 -->
<g id="edge3" class="edge">
<title>Node2&#45;&gt;Node3</title>
<path fill="none" stroke="#191970" d="M683.6142,-285.4052C666.6091,-278.3794 646.4897,-266.7935 636.4038,-249 616.4598,-213.8149 641.6808,-192.428 671.4038,-165 775.7104,-68.7474 947.4411,-28.407 1020.1645,-15.0357"/>
<polygon fill="#191970" stroke="#191970" points="1020.9251,-18.4553 1030.1559,-13.2551 1019.697,-11.5639 1020.9251,-18.4553"/>
</g>
<!-- Node4&#45;&gt;Node3 -->
<g id="edge8" class="edge">
<title>Node4&#45;&gt;Node3</title>
<path fill="none" stroke="#191970" d="M1182.5924,-167.9813C1128.875,-155.7957 1018.7032,-130.6394 1017.4038,-129 993.1339,-98.3793 1021.2489,-51.7791 1040.1072,-26.7815"/>
<polygon fill="#191970" stroke="#191970" points="1043.0948,-28.6441 1046.5219,-18.6188 1037.591,-24.3188 1043.0948,-28.6441"/>
</g>
<!-- Node5 -->
<g id="node6" class="node">
<title>Node5</title>
<polygon fill="#ffffff" stroke="#bfbfbf" points="1415.6182,-55.5 1415.6182,-73.5 1467.1895,-73.5 1467.1895,-55.5 1415.6182,-55.5"/>
<text text-anchor="middle" x="1441.4038" y="-61.5" font-family="Helvetica,sans-Serif" font-size="10.00" fill="#000000">assert.h</text>
</g>
<!-- Node4&#45;&gt;Node5 -->
<g id="edge5" class="edge">
<title>Node4&#45;&gt;Node5</title>
<path fill="none" stroke="#191970" d="M1230.2257,-165.4982C1270.5751,-146.2007 1365.5913,-100.7581 1413.1922,-77.9925"/>
<polygon fill="#191970" stroke="#191970" points="1414.8106,-81.0982 1422.3219,-73.6261 1411.7904,-74.7833 1414.8106,-81.0982"/>
</g>
<!-- Node6 -->
<g id="node7" class="node">
<title>Node6</title>
<polygon fill="#ffffff" stroke="#bfbfbf" points="1136.6772,-110.5 1136.6772,-128.5 1182.1304,-128.5 1182.1304,-110.5 1136.6772,-110.5"/>
<text text-anchor="middle" x="1159.4038" y="-116.5" font-family="Helvetica,sans-Serif" font-size="10.00" fill="#000000">cstring</text>
</g>
<!-- Node4&#45;&gt;Node6 -->
<g id="edge6" class="edge">
<title>Node4&#45;&gt;Node6</title>
<path fill="none" stroke="#191970" d="M1202.8171,-165.4179C1195.335,-157.5041 1184.2922,-145.8243 1175.2166,-136.2251"/>
<polygon fill="#191970" stroke="#191970" points="1177.5905,-133.6414 1168.1771,-128.7795 1172.504,-138.4505 1177.5905,-133.6414"/>
</g>
<!-- Node7 -->
<g id="node8" class="node">
<title>Node7</title>
<polygon fill="#ffffff" stroke="#bfbfbf" points="2062.0024,-110.5 2062.0024,-128.5 2120.8052,-128.5 2120.8052,-110.5 2062.0024,-110.5"/>
<text text-anchor="middle" x="2091.4038" y="-116.5" font-family="Helvetica,sans-Serif" font-size="10.00" fill="#000000">stdexcept</text>
</g>
<!-- Node4&#45;&gt;Node7 -->
<g id="edge7" class="edge">
<title>Node4&#45;&gt;Node7</title>
<path fill="none" stroke="#191970" d="M1240.3733,-166.465C1243.0736,-165.897 1245.7805,-165.3941 1248.4038,-165 1585.881,-114.3009 1675.39,-158.1862 2015.4038,-129 2027.2901,-127.9797 2040.1797,-126.5077 2051.9093,-125.026"/>
<polygon fill="#191970" stroke="#191970" points="2052.3987,-128.4919 2061.8643,-123.7324 2051.4966,-121.5503 2052.3987,-128.4919"/>
</g>
<!-- Node8 -->
<g id="node9" class="node">
<title>Node8</title>
<polygon fill="#ffffff" stroke="#bfbfbf" points="892.1772,-110.5 892.1772,-128.5 932.6304,-128.5 932.6304,-110.5 892.1772,-110.5"/>
<text text-anchor="middle" x="912.4038" y="-116.5" font-family="Helvetica,sans-Serif" font-size="10.00" fill="#000000">string</text>
</g>
<!-- Node4&#45;&gt;Node8 -->
<g id="edge9" class="edge">
<title>Node4&#45;&gt;Node8</title>
<path fill="none" stroke="#191970" d="M1182.7344,-169.2264C1126.18,-158.8234 1000.7211,-135.7457 942.797,-125.0907"/>
<polygon fill="#191970" stroke="#191970" points="943.2673,-121.6186 932.7991,-123.2516 942.0008,-128.5031 943.2673,-121.6186"/>
</g>
<!-- Node9 -->
<g id="node10" class="node">
<title>Node9</title>
<polygon fill="#ffffff" stroke="#bfbfbf" points="1437.7881,-110.5 1437.7881,-128.5 1481.0195,-128.5 1481.0195,-110.5 1437.7881,-110.5"/>
<text text-anchor="middle" x="1459.4038" y="-116.5" font-family="Helvetica,sans-Serif" font-size="10.00" fill="#000000">vector</text>
</g>
<!-- Node4&#45;&gt;Node9 -->
<g id="edge10" class="edge">
<title>Node4&#45;&gt;Node9</title>
<path fill="none" stroke="#191970" d="M1240.0492,-166.9793C1242.8672,-166.2894 1245.6879,-165.6183 1248.4038,-165 1325.2539,-147.5055 1348.1886,-149.239 1427.5625,-129.2783"/>
<polygon fill="#191970" stroke="#191970" points="1428.706,-132.5987 1437.5294,-126.7338 1426.9744,-125.8163 1428.706,-132.5987"/>
</g>
<!-- Node10 -->
<g id="node11" class="node">
<title>Node10</title>
<g id="a_node11"><a xlink:href="common_8h.html" target="_top" xlink:title="crypto/common.h">
<polygon fill="#ffffff" stroke="#000000" points="1026.0566,-110.5 1026.0566,-128.5 1118.751,-128.5 1118.751,-110.5 1026.0566,-110.5"/>
<text text-anchor="middle" x="1072.4038" y="-116.5" font-family="Helvetica,sans-Serif" font-size="10.00" fill="#000000">crypto/common.h</text>
</a>
</g>
</g>
<!-- Node4&#45;&gt;Node10 -->
<g id="edge11" class="edge">
<title>Node4&#45;&gt;Node10</title>
<path fill="none" stroke="#191970" d="M1188.4508,-165.4179C1165.6138,-156.3817 1130.3675,-142.4353 1104.7093,-132.2828"/>
<polygon fill="#191970" stroke="#191970" points="1105.9773,-129.0205 1095.3909,-128.5956 1103.4017,-135.5295 1105.9773,-129.0205"/>
</g>
<!-- Node10&#45;&gt;Node3 -->
<g id="edge12" class="edge">
<title>Node10&#45;&gt;Node3</title>
<path fill="none" stroke="#191970" d="M1070.9308,-110.4982C1068.0169,-92.6913 1061.4602,-52.6225 1057.5377,-28.6515"/>
<polygon fill="#191970" stroke="#191970" points="1060.9662,-27.9297 1055.8972,-18.6261 1054.0581,-29.0601 1060.9662,-27.9297"/>
</g>
<!-- Node11 -->
<g id="node12" class="node">
<title>Node11</title>
<polygon fill="#ffffff" stroke="#bfbfbf" points="1314.0073,-55.5 1314.0073,-73.5 1362.8003,-73.5 1362.8003,-55.5 1314.0073,-55.5"/>
<text text-anchor="middle" x="1338.4038" y="-61.5" font-family="Helvetica,sans-Serif" font-size="10.00" fill="#000000">string.h</text>
</g>
<!-- Node10&#45;&gt;Node11 -->
<g id="edge13" class="edge">
<title>Node10&#45;&gt;Node11</title>
<path fill="none" stroke="#191970" d="M1116.0304,-110.4795C1168.6218,-99.6053 1255.9135,-81.5563 1303.9967,-71.6143"/>
<polygon fill="#191970" stroke="#191970" points="1304.8344,-75.0152 1313.9185,-69.5627 1303.417,-68.1602 1304.8344,-75.0152"/>
</g>
<!-- Node12 -->
<g id="node13" class="node">
<title>Node12</title>
<g id="a_node13"><a xlink:href="endian_8h.html" target="_top" xlink:title="compat/endian.h">
<polygon fill="#ffffff" stroke="#ff0000" points="1082.4336,-55.5 1082.4336,-73.5 1172.374,-73.5 1172.374,-55.5 1082.4336,-55.5"/>
<text text-anchor="middle" x="1127.4038" y="-61.5" font-family="Helvetica,sans-Serif" font-size="10.00" fill="#000000">compat/endian.h</text>
</a>
</g>
</g>
<!-- Node10&#45;&gt;Node12 -->
<g id="edge14" class="edge">
<title>Node10&#45;&gt;Node12</title>
<path fill="none" stroke="#191970" d="M1081.4859,-110.4179C1089.4788,-102.425 1101.3135,-90.5903 1110.9661,-80.9377"/>
<polygon fill="#191970" stroke="#191970" points="1113.5281,-83.3254 1118.1244,-73.7795 1108.5784,-78.3757 1113.5281,-83.3254"/>
</g>
<!-- Node12&#45;&gt;Node3 -->
<g id="edge15" class="edge">
<title>Node12&#45;&gt;Node3</title>
<path fill="none" stroke="#191970" d="M1115.3493,-55.4179C1104.3205,-47.1084 1087.7806,-34.6469 1074.7131,-24.8015"/>
<polygon fill="#191970" stroke="#191970" points="1076.8132,-22.0016 1066.7202,-18.7795 1072.6009,-27.5924 1076.8132,-22.0016"/>
</g>
<!-- Node16&#45;&gt;Node3 -->
<g id="edge20" class="edge">
<title>Node16&#45;&gt;Node3</title>
<path fill="none" stroke="#191970" d="M2184.1869,-110.3209C2157.0773,-95.5129 2100.3969,-66.8194 2048.4038,-55 1953.3156,-33.3839 1252.7036,-14.503 1088.6858,-10.3481"/>
<polygon fill="#191970" stroke="#191970" points="1088.7553,-6.8489 1078.6703,-10.0959 1088.579,-13.8467 1088.7553,-6.8489"/>
</g>
<!-- Node17 -->
<g id="node17" class="node">
<title>Node17</title>
<polygon fill="#ffffff" stroke="#bfbfbf" points="1761.5615,-55.5 1761.5615,-73.5 1809.2461,-73.5 1809.2461,-55.5 1761.5615,-55.5"/>
<text text-anchor="middle" x="1785.4038" y="-61.5" font-family="Helvetica,sans-Serif" font-size="10.00" fill="#000000">stdlib.h</text>
</g>
<!-- Node16&#45;&gt;Node17 -->
<g id="edge19" class="edge">
<title>Node16&#45;&gt;Node17</title>
<path fill="none" stroke="#191970" d="M2138.831,-111.2556C2135.6428,-110.8305 2132.4857,-110.41 2129.4038,-110 2015.9383,-94.9051 1881.3997,-77.1522 1819.5765,-69.0026"/>
<polygon fill="#191970" stroke="#191970" points="1819.9667,-65.5238 1809.5951,-67.687 1819.0519,-72.4638 1819.9667,-65.5238"/>
</g>
<!-- Node18&#45;&gt;Node2 -->
<g id="edge22" class="edge">
<title>Node18&#45;&gt;Node2</title>
<path fill="none" stroke="#191970" d="M504.2423,-340.4795C551.0604,-330.1381 627.2563,-313.3077 673.3236,-303.1322"/>
<polygon fill="#191970" stroke="#191970" points="674.2234,-306.5179 683.2331,-300.9433 672.7135,-299.6826 674.2234,-306.5179"/>
</g>
<!-- Node18&#45;&gt;Node3 -->
<g id="edge87" class="edge">
<title>Node18&#45;&gt;Node3</title>
<path fill="none" stroke="#191970" d="M446.0745,-340.3641C380.2479,-305.5966 149.4038,-183.0617 149.4038,-174.5 149.4038,-174.5 149.4038,-174.5 149.4038,-119.5 149.4038,-30.0603 854.9544,-12.806 1020.1132,-9.9922"/>
<polygon fill="#191970" stroke="#191970" points="1020.2559,-13.4905 1030.1972,-9.8272 1020.1413,-6.4914 1020.2559,-13.4905"/>
</g>
<!-- Node18&#45;&gt;Node8 -->
<g id="edge88" class="edge">
<title>Node18&#45;&gt;Node8</title>
<path fill="none" stroke="#191970" d="M477.2293,-340.3327C490.7048,-331.3125 511.6951,-317.0359 529.4038,-304 578.0934,-268.1582 581.9981,-246.369 636.4038,-220 697.7103,-190.2863 722.1293,-209.2532 785.4038,-184 801.1221,-177.7267 803.4443,-172.9141 818.4038,-165 839.9666,-153.5926 864.8291,-141.6077 883.5666,-132.8034"/>
<polygon fill="#191970" stroke="#191970" points="885.1788,-135.9134 892.7569,-128.5091 882.2155,-129.5715 885.1788,-135.9134"/>
</g>
<!-- Node18&#45;&gt;Node9 -->
<g id="edge91" class="edge">
<title>Node18&#45;&gt;Node9</title>
<path fill="none" stroke="#191970" d="M511.4274,-349.0714C628.4611,-347.4697 937.4957,-339.8866 1192.4038,-304 1359.4117,-280.4882 1468.5263,-330.3182 1552.4038,-184 1556.6035,-176.6739 1556.8743,-172.164 1552.4038,-165 1545.2949,-153.6078 1514.8041,-140.0143 1490.6467,-130.6698"/>
<polygon fill="#191970" stroke="#191970" points="1491.6918,-127.3233 1481.1,-127.0662 1489.2197,-133.8722 1491.6918,-127.3233"/>
</g>
<!-- Node19 -->
<g id="node19" class="node">
<title>Node19</title>
<g id="a_node19"><a xlink:href="pubkey_8h.html" target="_top" xlink:title="pubkey.h">
<polygon fill="#ffffff" stroke="#000000" points="1511.4795,-285.5 1511.4795,-303.5 1567.3281,-303.5 1567.3281,-285.5 1511.4795,-285.5"/>
<text text-anchor="middle" x="1539.4038" y="-291.5" font-family="Helvetica,sans-Serif" font-size="10.00" fill="#000000">pubkey.h</text>
</a>
</g>
</g>
<!-- Node18&#45;&gt;Node19 -->
<g id="edge23" class="edge">
<title>Node18&#45;&gt;Node19</title>
<path fill="none" stroke="#191970" d="M511.77,-347.6254C651.3458,-342.1194 1066.8473,-325.0513 1411.4038,-304 1441.704,-302.1488 1476.0032,-299.5775 1501.4648,-297.5769"/>
<polygon fill="#191970" stroke="#191970" points="1501.7597,-301.0646 1511.452,-296.7858 1501.2069,-294.0864 1501.7597,-301.0646"/>
</g>
<!-- Node52 -->
<g id="node28" class="node">
<title>Node52</title>
<polygon fill="#ffffff" stroke="#bfbfbf" points="818.6772,-110.5 818.6772,-128.5 854.1304,-128.5 854.1304,-110.5 818.6772,-110.5"/>
<text text-anchor="middle" x="836.4038" y="-116.5" font-family="Helvetica,sans-Serif" font-size="10.00" fill="#000000">map</text>
</g>
<!-- Node18&#45;&gt;Node52 -->
<g id="edge85" class="edge">
<title>Node18&#45;&gt;Node52</title>
<path fill="none" stroke="#191970" d="M448.2661,-340.4476C436.5756,-332.4956 421.2714,-319.749 414.4038,-304 399.4611,-269.7333 448.1179,-223.2505 452.4038,-220 481.4659,-197.9585 725.1055,-143.6351 808.5205,-125.5019"/>
<polygon fill="#191970" stroke="#191970" points="809.5026,-128.8704 818.5344,-123.3318 808.0199,-122.0292 809.5026,-128.8704"/>
</g>
<!-- Node53 -->
<g id="node29" class="node">
<title>Node53</title>
<polygon fill="#ffffff" stroke="#bfbfbf" points="478.3472,-110.5 478.3472,-128.5 530.4604,-128.5 530.4604,-110.5 478.3472,-110.5"/>
<text text-anchor="middle" x="504.4038" y="-116.5" font-family="Helvetica,sans-Serif" font-size="10.00" fill="#000000">memory</text>
</g>
<!-- Node18&#45;&gt;Node53 -->
<g id="edge86" class="edge">
<title>Node18&#45;&gt;Node53</title>
<path fill="none" stroke="#191970" d="M415.0527,-346.13C358.4582,-341.0615 269.8407,-329.2389 249.4038,-304 210.5272,-255.9885 209.7421,-212.365 249.4038,-165 276.8891,-132.1764 404.5473,-123.0089 468.167,-120.4659"/>
<polygon fill="#191970" stroke="#191970" points="468.3032,-123.9634 478.1685,-120.0999 468.0471,-116.9681 468.3032,-123.9634"/>
</g>
<!-- Node55 -->
<g id="node30" class="node">
<title>Node55</title>
<polygon fill="#ffffff" stroke="#bfbfbf" points="548.0122,-110.5 548.0122,-128.5 586.7954,-128.5 586.7954,-110.5 548.0122,-110.5"/>
<text text-anchor="middle" x="567.4038" y="-116.5" font-family="Helvetica,sans-Serif" font-size="10.00" fill="#000000">utility</text>
</g>
<!-- Node18&#45;&gt;Node55 -->
<g id="edge90" class="edge">
<title>Node18&#45;&gt;Node55</title>
<path fill="none" stroke="#191970" d="M415.0849,-344.0333C367.1584,-337.4983 298.5917,-324.7608 282.4038,-304 253.1398,-266.469 179.7486,-286.7615 320.4038,-165 392.578,-102.5207 440.5425,-149.6655 538.0365,-128.8685"/>
<polygon fill="#191970" stroke="#191970" points="538.9997,-132.2379 547.9436,-126.5583 537.41,-125.4208 538.9997,-132.2379"/>
</g>
<!-- Node58 -->
<g id="node32" class="node">
<title>Node58</title>
<g id="a_node32"><a xlink:href="ismine_8h.html" target="_top" xlink:title="script/ismine.h">
<polygon fill="#ffffff" stroke="#000000" points="423.4507,-285.5 423.4507,-303.5 503.3569,-303.5 503.3569,-285.5 423.4507,-285.5"/>
<text text-anchor="middle" x="463.4038" y="-291.5" font-family="Helvetica,sans-Serif" font-size="10.00" fill="#000000">script/ismine.h</text>
</a>
</g>
</g>
<!-- Node18&#45;&gt;Node58 -->
<g id="edge60" class="edge">
<title>Node18&#45;&gt;Node58</title>
<path fill="none" stroke="#191970" d="M463.4038,-340.4179C463.4038,-333.2164 463.4038,-322.8962 463.4038,-313.8632"/>
<polygon fill="#191970" stroke="#191970" points="466.9039,-313.7794 463.4038,-303.7795 459.9039,-313.7795 466.9039,-313.7794"/>
</g>
<!-- Node59 -->
<g id="node33" class="node">
<title>Node59</title>
<g id="a_node33"><a xlink:href="standard_8h.html" target="_top" xlink:title="script/standard.h">
<polygon fill="#ffffff" stroke="#000000" points="461.4409,-225.5 461.4409,-243.5 551.3667,-243.5 551.3667,-225.5 461.4409,-225.5"/>
<text text-anchor="middle" x="506.4038" y="-231.5" font-family="Helvetica,sans-Serif" font-size="10.00" fill="#000000">script/standard.h</text>
</a>
</g>
</g>
<!-- Node18&#45;&gt;Node59 -->
<g id="edge70" class="edge">
<title>Node18&#45;&gt;Node59</title>
<path fill="none" stroke="#191970" d="M478.5415,-340.4476C490.232,-332.4956 505.5362,-319.749 512.4038,-304 519.3475,-288.0766 516.6264,-268.1783 512.8911,-253.7583"/>
<polygon fill="#191970" stroke="#191970" points="516.1821,-252.5457 509.9802,-243.9558 509.4717,-254.5384 516.1821,-252.5457"/>
</g>
<!-- Node66 -->
<g id="node36" class="node">
<title>Node66</title>
<g id="a_node36"><a xlink:href="secure_8h.html" target="_top" xlink:title="support/allocators\l/secure.h">
<polygon fill="#ffffff" stroke="#000000" points="644.9385,-220.5 644.9385,-248.5 739.8691,-248.5 739.8691,-220.5 644.9385,-220.5"/>
<text text-anchor="start" x="652.9385" y="-236.5" font-family="Helvetica,sans-Serif" font-size="10.00" fill="#000000">support/allocators</text>
<text text-anchor="middle" x="692.4038" y="-226.5" font-family="Helvetica,sans-Serif" font-size="10.00" fill="#000000">/secure.h</text>
</a>
</g>
</g>
<!-- Node18&#45;&gt;Node66 -->
<g id="edge71" class="edge">
<title>Node18&#45;&gt;Node66</title>
<path fill="none" stroke="#191970" d="M497.3059,-340.4306C524.1716,-332.5896 562.2411,-320.0016 593.4038,-304 620.2542,-290.2127 648.1615,-269.9991 667.4751,-254.9213"/>
<polygon fill="#191970" stroke="#191970" points="669.7872,-257.5549 675.4534,-248.6025 665.4412,-252.0674 669.7872,-257.5549"/>
</g>
<!-- Node72 -->
<g id="node39" class="node">
<title>Node72</title>
<g id="a_node39"><a xlink:href="ui__interface_8h.html" target="_top" xlink:title="ui_interface.h">
<polygon fill="#ffffff" stroke="#000000" points="45.3843,-165.5 45.3843,-183.5 121.4233,-183.5 121.4233,-165.5 45.3843,-165.5"/>
<text text-anchor="middle" x="83.4038" y="-171.5" font-family="Helvetica,sans-Serif" font-size="10.00" fill="#000000">ui_interface.h</text>
</a>
</g>
</g>
<!-- Node18&#45;&gt;Node72 -->
<g id="edge79" class="edge">
<title>Node18&#45;&gt;Node72</title>
<path fill="none" stroke="#191970" d="M415.1614,-346.506C343.4167,-341.2977 212.8159,-328.684 173.4038,-304 130.6256,-277.2078 102.7852,-221.8431 90.5533,-192.9541"/>
<polygon fill="#191970" stroke="#191970" points="93.7631,-191.5559 86.7543,-183.6107 87.2786,-194.1925 93.7631,-191.5559"/>
</g>
<!-- Node73 -->
<g id="node40" class="node">
<title>Node73</title>
<polygon fill="#ffffff" stroke="#bfbfbf" points="0,-110.5 0,-128.5 58.8076,-128.5 58.8076,-110.5 0,-110.5"/>
<text text-anchor="middle" x="29.4038" y="-116.5" font-family="Helvetica,sans-Serif" font-size="10.00" fill="#000000">functional</text>
</g>
<!-- Node18&#45;&gt;Node73 -->
<g id="edge84" class="edge">
<title>Node18&#45;&gt;Node73</title>
<path fill="none" stroke="#191970" d="M415.2079,-346.5473C338.3588,-341.1846 192.0691,-328.1059 146.4038,-304 82.4211,-270.2246 66.237,-249.9132 36.4038,-184 30.0096,-169.8728 28.4683,-152.2863 28.4096,-139.047"/>
<polygon fill="#191970" stroke="#191970" points="31.9162,-138.808 28.6549,-128.7276 24.9181,-138.6416 31.9162,-138.808"/>
</g>
<!-- Node74 -->
<g id="node41" class="node">
<title>Node74</title>
<polygon fill="#ffffff" stroke="#bfbfbf" points="291.5615,-285.5 291.5615,-303.5 329.2461,-303.5 329.2461,-285.5 291.5615,-285.5"/>
<text text-anchor="middle" x="310.4038" y="-291.5" font-family="Helvetica,sans-Serif" font-size="10.00" fill="#000000">tuple</text>
</g>
<!-- Node18&#45;&gt;Node74 -->
<g id="edge89" class="edge">
<title>Node18&#45;&gt;Node74</title>
<path fill="none" stroke="#191970" d="M438.139,-340.4179C410.9257,-330.6353 367.7038,-315.0981 339.1949,-304.8497"/>
<polygon fill="#191970" stroke="#191970" points="340.0087,-301.4231 329.4142,-301.3338 337.6407,-308.0104 340.0087,-301.4231"/>
</g>
<!-- Node19&#45;&gt;Node4 -->
<g id="edge57" class="edge">
<title>Node19&#45;&gt;Node4</title>
<path fill="none" stroke="#191970" d="M1511.2809,-289.3716C1451.349,-278.3928 1315.7273,-253.2641 1306.4038,-249 1289.8521,-241.4302 1252.0357,-209.8437 1229.4244,-190.3106"/>
<polygon fill="#191970" stroke="#191970" points="1231.6929,-187.645 1221.8494,-183.7263 1227.1007,-192.9282 1231.6929,-187.645"/>
</g>
<!-- Node19&#45;&gt;Node7 -->
<g id="edge58" class="edge">
<title>Node19&#45;&gt;Node7</title>
<path fill="none" stroke="#191970" d="M1567.5667,-289.3118C1636.5224,-276.1504 1818.7496,-238.5895 1963.4038,-184 2000.9761,-169.821 2042.0451,-147.8862 2067.2707,-133.609"/>
<polygon fill="#191970" stroke="#191970" points="2069.1812,-136.5484 2076.1226,-128.5442 2065.7048,-130.4726 2069.1812,-136.5484"/>
</g>
<!-- Node19&#45;&gt;Node9 -->
<g id="edge59" class="edge">
<title>Node19&#45;&gt;Node9</title>
<path fill="none" stroke="#191970" d="M1548.081,-285.2435C1568.0026,-262.8427 1613.2343,-204.6393 1585.4038,-165 1582.5484,-160.933 1527.3333,-142.0124 1490.9521,-129.8867"/>
<polygon fill="#191970" stroke="#191970" points="1491.8427,-126.4946 1481.2493,-126.6648 1489.6367,-133.1379 1491.8427,-126.4946"/>
</g>
<!-- Node20 -->
<g id="node20" class="node">
<title>Node20</title>
<g id="a_node20"><a xlink:href="_hash_8h.html" target="_top" xlink:title="hash.h">
<polygon fill="#ffffff" stroke="#000000" points="1637.3916,-225.5 1637.3916,-243.5 1683.416,-243.5 1683.416,-225.5 1637.3916,-225.5"/>
<text text-anchor="middle" x="1660.4038" y="-231.5" font-family="Helvetica,sans-Serif" font-size="10.00" fill="#000000">hash.h</text>
</a>
</g>
</g>
<!-- Node19&#45;&gt;Node20 -->
<g id="edge24" class="edge">
<title>Node19&#45;&gt;Node20</title>
<path fill="none" stroke="#191970" d="M1557.7811,-285.3873C1577.7965,-275.4623 1610.023,-259.4822 1633.0212,-248.0782"/>
<polygon fill="#191970" stroke="#191970" points="1634.8459,-251.0801 1642.25,-243.5019 1631.7361,-244.8088 1634.8459,-251.0801"/>
</g>
<!-- Node48 -->
<g id="node25" class="node">
<title>Node48</title>
<g id="a_node25"><a xlink:href="serialize_8h.html" target="_top" xlink:title="serialize.h">
<polygon fill="#ffffff" stroke="#ff0000" points="1257.894,-165.5 1257.894,-183.5 1318.9136,-183.5 1318.9136,-165.5 1257.894,-165.5"/>
<text text-anchor="middle" x="1288.4038" y="-171.5" font-family="Helvetica,sans-Serif" font-size="10.00" fill="#000000">serialize.h</text>
</a>
</g>
</g>
<!-- Node19&#45;&gt;Node48 -->
<g id="edge56" class="edge">
<title>Node19&#45;&gt;Node48</title>
<path fill="none" stroke="#191970" d="M1530.8737,-285.275C1515.8782,-269.595 1483.1672,-237.7254 1449.4038,-220 1438.6374,-214.3478 1373.0675,-196.6215 1328.9975,-185.0356"/>
<polygon fill="#191970" stroke="#191970" points="1329.6872,-181.5982 1319.1265,-182.4485 1327.9124,-188.3695 1329.6872,-181.5982"/>
</g>
<!-- Node20&#45;&gt;Node4 -->
<g id="edge53" class="edge">
<title>Node20&#45;&gt;Node4</title>
<path fill="none" stroke="#191970" d="M1637.01,-232.7002C1575.2479,-227.7239 1402.6177,-212.3604 1250.0256,-184.1125"/>
<polygon fill="#191970" stroke="#191970" points="1250.4788,-180.6366 1240.005,-182.2332 1249.1884,-187.5166 1250.4788,-180.6366"/>
</g>
<!-- Node20&#45;&gt;Node9 -->
<g id="edge55" class="edge">
<title>Node20&#45;&gt;Node9</title>
<path fill="none" stroke="#191970" d="M1658.0803,-225.3031C1653.8168,-210.345 1643.3005,-180.8288 1623.4038,-165 1577.5958,-128.5573 1551.344,-144.4612 1491.2655,-129.2807"/>
<polygon fill="#191970" stroke="#191970" points="1491.8936,-125.8241 1481.3247,-126.5647 1490.0486,-132.5766 1491.8936,-125.8241"/>
</g>
<!-- Node21 -->
<g id="node21" class="node">
<title>Node21</title>
<g id="a_node21"><a xlink:href="ripemd160_8h.html" target="_top" xlink:title="crypto/ripemd160.h">
<polygon fill="#ffffff" stroke="#000000" points="1904.6035,-110.5 1904.6035,-128.5 2006.2041,-128.5 2006.2041,-110.5 1904.6035,-110.5"/>
<text text-anchor="middle" x="1955.4038" y="-116.5" font-family="Helvetica,sans-Serif" font-size="10.00" fill="#000000">crypto/ripemd160.h</text>
</a>
</g>
</g>
<!-- Node20&#45;&gt;Node21 -->
<g id="edge25" class="edge">
<title>Node20&#45;&gt;Node21</title>
<path fill="none" stroke="#191970" d="M1683.6209,-233.7003C1744.7371,-231.0978 1907.8828,-220.7797 1944.4038,-184 1955.8984,-172.424 1957.9582,-153.538 1957.5514,-139.1864"/>
<polygon fill="#191970" stroke="#191970" points="1961.0194,-138.6061 1956.8294,-128.875 1954.0365,-139.0951 1961.0194,-138.6061"/>
</g>
<!-- Node22 -->
<g id="node22" class="node">
<title>Node22</title>
<g id="a_node22"><a xlink:href="sha256_8h.html" target="_top" xlink:title="crypto/sha256.h">
<polygon fill="#ffffff" stroke="#000000" points="1751.8252,-165.5 1751.8252,-183.5 1838.9824,-183.5 1838.9824,-165.5 1751.8252,-165.5"/>
<text text-anchor="middle" x="1795.4038" y="-171.5" font-family="Helvetica,sans-Serif" font-size="10.00" fill="#000000">crypto/sha256.h</text>
</a>
</g>
</g>
<!-- Node20&#45;&gt;Node22 -->
<g id="edge28" class="edge">
<title>Node20&#45;&gt;Node22</title>
<path fill="none" stroke="#191970" d="M1680.9074,-225.3873C1703.5377,-215.3294 1740.1593,-199.0531 1765.8783,-187.6225"/>
<polygon fill="#191970" stroke="#191970" points="1767.433,-190.7617 1775.1496,-183.5019 1764.59,-184.365 1767.433,-190.7617"/>
</g>
<!-- Node23 -->
<g id="node23" class="node">
<title>Node23</title>
<g id="a_node23"><a xlink:href="_s_h_a3_8h.html" target="_top" xlink:title="crypto/sha3.h">
<polygon fill="#ffffff" stroke="#ff0000" points="1810.3867,-110.5 1810.3867,-128.5 1886.4209,-128.5 1886.4209,-110.5 1810.3867,-110.5"/>
<text text-anchor="middle" x="1848.4038" y="-116.5" font-family="Helvetica,sans-Serif" font-size="10.00" fill="#000000">crypto/sha3.h</text>
</a>
</g>
</g>
<!-- Node20&#45;&gt;Node23 -->
<g id="edge32" class="edge">
<title>Node20&#45;&gt;Node23</title>
<path fill="none" stroke="#191970" d="M1683.5182,-233.7694C1742.7088,-231.3642 1897.2764,-221.5407 1928.4038,-184 1945.7966,-163.0238 1913.9593,-144.1181 1885.4442,-132.279"/>
<polygon fill="#191970" stroke="#191970" points="1886.5637,-128.9581 1875.9771,-128.5421 1883.9936,-135.4692 1886.5637,-128.9581"/>
</g>
<!-- Node29 -->
<g id="node24" class="node">
<title>Node29</title>
<g id="a_node24"><a xlink:href="prevector_8h.html" target="_top" xlink:title="prevector.h">
<polygon fill="#ffffff" stroke="#ff0000" points="1498.665,-110.5 1498.665,-128.5 1564.1426,-128.5 1564.1426,-110.5 1498.665,-110.5"/>
<text text-anchor="middle" x="1531.4038" y="-116.5" font-family="Helvetica,sans-Serif" font-size="10.00" fill="#000000">prevector.h</text>
</a>
</g>
</g>
<!-- Node20&#45;&gt;Node29 -->
<g id="edge35" class="edge">
<title>Node20&#45;&gt;Node29</title>
<path fill="none" stroke="#191970" d="M1663.6455,-225.397C1668.1142,-211.0901 1674.2518,-183.1089 1661.4038,-165 1651.0276,-150.3749 1608.1871,-137.2689 1574.4841,-128.922"/>
<polygon fill="#191970" stroke="#191970" points="1574.9051,-125.4236 1564.3639,-126.488 1573.2682,-132.2295 1574.9051,-125.4236"/>
</g>
<!-- Node20&#45;&gt;Node48 -->
<g id="edge40" class="edge">
<title>Node20&#45;&gt;Node48</title>
<path fill="none" stroke="#191970" d="M1637.2539,-231.0322C1570.368,-221.0063 1378.893,-192.2576 1328.7806,-183.7804"/>
<polygon fill="#191970" stroke="#191970" points="1329.382,-180.3324 1318.9226,-182.0212 1328.1522,-187.2236 1329.382,-180.3324"/>
</g>
<!-- Node57 -->
<g id="node31" class="node">
<title>Node57</title>
<g id="a_node31"><a xlink:href="version_8h.html" target="_top" xlink:title="version.h">
<polygon fill="#ffffff" stroke="#000000" points="1487.1157,-165.5 1487.1157,-183.5 1543.6919,-183.5 1543.6919,-165.5 1487.1157,-165.5"/>
<text text-anchor="middle" x="1515.4038" y="-171.5" font-family="Helvetica,sans-Serif" font-size="10.00" fill="#000000">version.h</text>
</a>
</g>
</g>
<!-- Node20&#45;&gt;Node57 -->
<g id="edge54" class="edge">
<title>Node20&#45;&gt;Node57</title>
<path fill="none" stroke="#191970" d="M1638.3814,-225.3873C1613.9677,-215.2851 1574.3936,-198.9096 1546.752,-187.4717"/>
<polygon fill="#191970" stroke="#191970" points="1547.7368,-184.0914 1537.1583,-183.5019 1545.0603,-190.5595 1547.7368,-184.0914"/>
</g>
<!-- Node21&#45;&gt;Node3 -->
<g id="edge26" class="edge">
<title>Node21&#45;&gt;Node3</title>
<path fill="none" stroke="#191970" d="M1943.4775,-110.3501C1923.4602,-95.5843 1881.27,-66.95 1840.4038,-55 1767.6825,-33.7349 1231.3178,-15.174 1088.9916,-10.585"/>
<polygon fill="#191970" stroke="#191970" points="1088.7923,-7.0769 1078.6854,-10.2549 1088.5682,-14.0733 1088.7923,-7.0769"/>
</g>
<!-- Node21&#45;&gt;Node17 -->
<g id="edge27" class="edge">
<title>Node21&#45;&gt;Node17</title>
<path fill="none" stroke="#191970" d="M1927.3318,-110.4179C1897.6331,-100.8095 1850.7745,-85.6493 1819.1008,-75.402"/>
<polygon fill="#191970" stroke="#191970" points="1819.9835,-72.009 1809.3917,-72.2608 1817.8287,-78.6691 1819.9835,-72.009"/>
</g>
<!-- Node22&#45;&gt;Node3 -->
<g id="edge29" class="edge">
<title>Node22&#45;&gt;Node3</title>
<path fill="none" stroke="#191970" d="M1782.6745,-165.4459C1763.038,-151.822 1723.8104,-125.9509 1687.4038,-110 1608.4448,-75.4056 1585.9838,-71.6591 1501.4038,-55 1349.6737,-25.1148 1164.8739,-14.2295 1089.2188,-10.8392"/>
<polygon fill="#191970" stroke="#191970" points="1089.0072,-7.3269 1078.8655,-10.392 1088.7051,-14.3204 1089.0072,-7.3269"/>
</g>
<!-- Node22&#45;&gt;Node8 -->
<g id="edge31" class="edge">
<title>Node22&#45;&gt;Node8</title>
<path fill="none" stroke="#191970" d="M1751.5033,-172.423C1632.9976,-166.7102 1296.7021,-149.7968 1017.4038,-129 992.3785,-127.1366 964.0422,-124.5443 943.119,-122.5384"/>
<polygon fill="#191970" stroke="#191970" points="943.2008,-119.03 932.91,-121.5498 942.5261,-125.9974 943.2008,-119.03"/>
</g>
<!-- Node22&#45;&gt;Node17 -->
<g id="edge30" class="edge">
<title>Node22&#45;&gt;Node17</title>
<path fill="none" stroke="#191970" d="M1794.5855,-165.4982C1792.9667,-147.6913 1789.324,-107.6225 1787.1449,-83.6515"/>
<polygon fill="#191970" stroke="#191970" points="1790.6245,-83.2682 1786.2335,-73.6261 1783.6533,-83.902 1790.6245,-83.2682"/>
</g>
<!-- Node23&#45;&gt;Node3 -->
<g id="edge33" class="edge">
<title>Node23&#45;&gt;Node3</title>
<path fill="none" stroke="#191970" d="M1847.0778,-110.0973C1844.4697,-95.5114 1837.1911,-67.7832 1818.4038,-55 1787.8594,-34.2169 1233.6086,-15.1995 1088.7884,-10.5697"/>
<polygon fill="#191970" stroke="#191970" points="1088.8059,-7.0686 1078.6998,-10.2493 1088.5837,-14.065 1088.8059,-7.0686"/>
</g>
<!-- Node23&#45;&gt;Node17 -->
<g id="edge34" class="edge">
<title>Node23&#45;&gt;Node17</title>
<path fill="none" stroke="#191970" d="M1838.0006,-110.4179C1828.6639,-102.2667 1814.7505,-90.1201 1803.5787,-80.3669"/>
<polygon fill="#191970" stroke="#191970" points="1805.868,-77.7194 1796.033,-73.7795 1801.2644,-82.9927 1805.868,-77.7194"/>
</g>
<!-- Node29&#45;&gt;Node3 -->
<g id="edge38" class="edge">
<title>Node29&#45;&gt;Node3</title>
<path fill="none" stroke="#191970" d="M1526.4807,-110.0655C1518.2841,-95.4362 1500.3455,-67.6495 1476.4038,-55 1409.2561,-19.5227 1176.6621,-11.6783 1088.5743,-9.9684"/>
<polygon fill="#191970" stroke="#191970" points="1088.6302,-6.4689 1078.569,-9.7888 1088.5046,-13.4678 1088.6302,-6.4689"/>
</g>
<!-- Node29&#45;&gt;Node5 -->
<g id="edge36" class="edge">
<title>Node29&#45;&gt;Node5</title>
<path fill="none" stroke="#191970" d="M1516.5421,-110.4179C1502.6024,-101.8992 1481.5218,-89.0166 1465.2337,-79.0627"/>
<polygon fill="#191970" stroke="#191970" points="1466.6455,-75.8237 1456.2876,-73.5956 1462.9953,-81.7967 1466.6455,-75.8237"/>
</g>
<!-- Node29&#45;&gt;Node11 -->
<g id="edge39" class="edge">
<title>Node29&#45;&gt;Node11</title>
<path fill="none" stroke="#191970" d="M1499.5338,-110.4179C1464.6481,-100.4763 1408.9067,-84.5915 1372.9835,-74.3543"/>
<polygon fill="#191970" stroke="#191970" points="1373.5401,-70.8736 1362.9637,-71.4989 1371.6216,-77.6056 1373.5401,-70.8736"/>
</g>
<!-- Node29&#45;&gt;Node17 -->
<g id="edge37" class="edge">
<title>Node29&#45;&gt;Node17</title>
<path fill="none" stroke="#191970" d="M1564.3495,-112.3661C1612.7219,-101.8918 1702.5101,-82.4494 1751.4504,-71.8521"/>
<polygon fill="#191970" stroke="#191970" points="1752.2114,-75.2685 1761.2441,-69.7314 1750.7299,-68.4271 1752.2114,-75.2685"/>
</g>
<!-- Node48&#45;&gt;Node3 -->
<g id="edge47" class="edge">
<title>Node48&#45;&gt;Node3</title>
<path fill="none" stroke="#191970" d="M1282.5751,-165.3128C1268.1058,-143.2087 1228.3061,-86.5585 1181.4038,-55 1152.9736,-35.8705 1115.5577,-23.7449 1088.7134,-16.8659"/>
<polygon fill="#191970" stroke="#191970" points="1089.5291,-13.4622 1078.9835,-14.4826 1087.8637,-20.2613 1089.5291,-13.4622"/>
</g>
<!-- Node48&#45;&gt;Node5 -->
<g id="edge43" class="edge">
<title>Node48&#45;&gt;Node5</title>
<path fill="none" stroke="#191970" d="M1300.9244,-165.4982C1327.1492,-146.6439 1388.0882,-102.8315 1420.4064,-79.5962"/>
<polygon fill="#191970" stroke="#191970" points="1422.6339,-82.3054 1428.7102,-73.6261 1418.5477,-76.6219 1422.6339,-82.3054"/>
</g>
<!-- Node48&#45;&gt;Node8 -->
<g id="edge48" class="edge">
<title>Node48&#45;&gt;Node8</title>
<path fill="none" stroke="#191970" d="M1257.8128,-166.7276C1254.9783,-166.1045 1252.143,-165.5171 1249.4038,-165 1137.1719,-143.8145 1002.1127,-128.6645 942.8209,-122.5267"/>
<polygon fill="#191970" stroke="#191970" points="942.9586,-119.0225 932.6542,-121.486 942.2458,-125.9862 942.9586,-119.0225"/>
</g>
<!-- Node48&#45;&gt;Node9 -->
<g id="edge51" class="edge">
<title>Node48&#45;&gt;Node9</title>
<path fill="none" stroke="#191970" d="M1316.641,-165.4179C1347.2848,-155.5617 1396.091,-139.8638 1427.9424,-129.6192"/>
<polygon fill="#191970" stroke="#191970" points="1429.1955,-132.8928 1437.6435,-126.4989 1427.0521,-126.229 1429.1955,-132.8928"/>
</g>
<!-- Node48&#45;&gt;Node11 -->
<g id="edge49" class="edge">
<title>Node48&#45;&gt;Node11</title>
<path fill="none" stroke="#191970" d="M1292.4955,-165.4982C1300.6628,-147.5302 1319.1332,-106.8954 1329.9926,-83.0046"/>
<polygon fill="#191970" stroke="#191970" points="1333.3038,-84.1781 1334.2556,-73.6261 1326.9312,-81.2815 1333.3038,-84.1781"/>
</g>
<!-- Node48&#45;&gt;Node12 -->
<g id="edge41" class="edge">
<title>Node48&#45;&gt;Node12</title>
<path fill="none" stroke="#191970" d="M1275.2285,-165.4982C1247.5146,-146.5633 1182.9584,-102.4566 1149.0648,-79.2994"/>
<polygon fill="#191970" stroke="#191970" points="1150.9925,-76.3776 1140.7612,-73.6261 1147.0435,-82.1574 1150.9925,-76.3776"/>
</g>
<!-- Node48&#45;&gt;Node29 -->
<g id="edge52" class="edge">
<title>Node48&#45;&gt;Node29</title>
<path fill="none" stroke="#191970" d="M1318.968,-167.1928C1322.1528,-166.4458 1325.3431,-165.7035 1328.4038,-165 1397.1971,-149.188 1416.8143,-145.6203 1488.335,-129.4551"/>
<polygon fill="#191970" stroke="#191970" points="1489.312,-132.8226 1498.2914,-127.1994 1487.7652,-125.9956 1489.312,-132.8226"/>
</g>
<!-- Node49 -->
<g id="node26" class="node">
<title>Node49</title>
<polygon fill="#ffffff" stroke="#bfbfbf" points="1620.8398,-110.5 1620.8398,-128.5 1677.9678,-128.5 1677.9678,-110.5 1620.8398,-110.5"/>
<text text-anchor="middle" x="1649.4038" y="-116.5" font-family="Helvetica,sans-Serif" font-size="10.00" fill="#000000">algorithm</text>
</g>
<!-- Node48&#45;&gt;Node49 -->
<g id="edge42" class="edge">
<title>Node48&#45;&gt;Node49</title>
<path fill="none" stroke="#191970" d="M1318.9164,-166.9466C1322.1113,-166.2476 1325.318,-165.5838 1328.4038,-165 1381.8412,-154.8895 1537.5161,-134.1161 1610.627,-124.5392"/>
<polygon fill="#191970" stroke="#191970" points="1611.331,-127.9771 1620.7928,-123.2101 1610.4234,-121.0361 1611.331,-127.9771"/>
</g>
<!-- Node50 -->
<g id="node27" class="node">
<title>Node50</title>
<polygon fill="#ffffff" stroke="#bfbfbf" points="1390.9038,-110.5 1390.9038,-128.5 1419.9038,-128.5 1419.9038,-110.5 1390.9038,-110.5"/>
<text text-anchor="middle" x="1405.2954" y="-116.5" font-family="Helvetica,sans-Serif" font-size="10.00" fill="#000000">ios</text>
</g>
<!-- Node48&#45;&gt;Node50 -->
<g id="edge44" class="edge">
<title>Node48&#45;&gt;Node50</title>
<path fill="none" stroke="#191970" d="M1307.724,-165.4179C1327.9865,-155.8928 1359.855,-140.9118 1381.643,-130.6696"/>
<polygon fill="#191970" stroke="#191970" points="1383.3055,-133.7556 1390.8664,-126.3338 1380.3275,-127.4206 1383.3055,-133.7556"/>
</g>
<!-- Node48&#45;&gt;Node52 -->
<g id="edge45" class="edge">
<title>Node48&#45;&gt;Node52</title>
<path fill="none" stroke="#191970" d="M1257.8318,-166.6217C1254.9933,-166.0208 1252.1519,-165.4675 1249.4038,-165 1088.2668,-137.59 1045.0507,-153.2227 883.4038,-129 877.1803,-128.0674 870.5341,-126.8572 864.2575,-125.6147"/>
<polygon fill="#191970" stroke="#191970" points="864.6841,-122.1291 854.1832,-123.5364 863.2698,-128.9847 864.6841,-122.1291"/>
</g>
<!-- Node48&#45;&gt;Node53 -->
<g id="edge46" class="edge">
<title>Node48&#45;&gt;Node53</title>
<path fill="none" stroke="#191970" d="M1257.8538,-166.4824C1255.0107,-165.9107 1252.1622,-165.4022 1249.4038,-165 940.108,-119.8987 853.2956,-177.4071 540.9026,-128.8892"/>
<polygon fill="#191970" stroke="#191970" points="541.0689,-125.3723 530.6456,-127.2709 539.9779,-132.2867 541.0689,-125.3723"/>
</g>
<!-- Node48&#45;&gt;Node55 -->
<g id="edge50" class="edge">
<title>Node48&#45;&gt;Node55</title>
<path fill="none" stroke="#191970" d="M1257.8468,-166.5293C1255.0051,-165.9478 1252.1589,-165.4242 1249.4038,-165 1120.5886,-145.1655 710.6992,-125.8691 596.9371,-120.791"/>
<polygon fill="#191970" stroke="#191970" points="597.0171,-117.2912 586.8717,-120.3444 596.7067,-124.2843 597.0171,-117.2912"/>
</g>
<!-- Node58&#45;&gt;Node3 -->
<g id="edge69" class="edge">
<title>Node58&#45;&gt;Node3</title>
<path fill="none" stroke="#191970" d="M439.9939,-285.4327C404.9245,-270.4095 340.0291,-236.6838 313.4038,-184 299.5504,-156.588 339.6739,-112.8273 342.4038,-110 376.5598,-74.6257 391.3837,-69.3905 438.4038,-55 548.419,-21.3298 906.7901,-12.137 1019.8818,-10.0436"/>
<polygon fill="#191970" stroke="#191970" points="1020.1078,-13.5403 1030.0438,-9.8626 1019.9831,-6.5414 1020.1078,-13.5403"/>
</g>
<!-- Node58&#45;&gt;Node59 -->
<g id="edge61" class="edge">
<title>Node58&#45;&gt;Node59</title>
<path fill="none" stroke="#191970" d="M469.9346,-285.3873C476.2487,-276.5769 485.9823,-262.9951 493.8059,-252.0784"/>
<polygon fill="#191970" stroke="#191970" points="496.8312,-253.8655 499.8116,-243.6985 491.1415,-249.7878 496.8312,-253.8655"/>
</g>
<!-- Node59&#45;&gt;Node3 -->
<g id="edge68" class="edge">
<title>Node59&#45;&gt;Node3</title>
<path fill="none" stroke="#191970" d="M471.0958,-225.4885C417.8065,-211.8078 322.7412,-187.0567 320.4038,-184 315.2743,-177.2921 316.2199,-172.3351 320.4038,-165 367.9882,-81.5756 414.8954,-84.1568 506.4038,-55 602.821,-24.2791 915.3539,-13.2363 1019.9444,-10.3478"/>
<polygon fill="#191970" stroke="#191970" points="1020.346,-13.8384 1030.2485,-10.0713 1020.1582,-6.8409 1020.346,-13.8384"/>
</g>
<!-- Node59&#45;&gt;Node4 -->
<g id="edge66" class="edge">
<title>Node59&#45;&gt;Node4</title>
<path fill="none" stroke="#191970" d="M551.4894,-229.111C576.4884,-226.2135 608.1451,-222.6933 636.4038,-220 837.9773,-200.7881 1079.8571,-183.5388 1172.6086,-177.1379"/>
<polygon fill="#191970" stroke="#191970" points="1172.9209,-180.6248 1182.6571,-176.4467 1172.4404,-173.6413 1172.9209,-180.6248"/>
</g>
<!-- Node60 -->
<g id="node34" class="node">
<title>Node60</title>
<g id="a_node34"><a xlink:href="interpreter_8h.html" target="_top" xlink:title="script/interpreter.h">
<polygon fill="#ffffff" stroke="#ff0000" points="680.3843,-165.5 680.3843,-183.5 776.4233,-183.5 776.4233,-165.5 680.3843,-165.5"/>
<text text-anchor="middle" x="728.4038" y="-171.5" font-family="Helvetica,sans-Serif" font-size="10.00" fill="#000000">script/interpreter.h</text>
</a>
</g>
</g>
<!-- Node59&#45;&gt;Node60 -->
<g id="edge62" class="edge">
<title>Node59&#45;&gt;Node60</title>
<path fill="none" stroke="#191970" d="M540.1208,-225.3873C578.9746,-214.8863 642.9079,-197.607 685.3323,-186.141"/>
<polygon fill="#191970" stroke="#191970" points="686.3564,-189.4898 695.0969,-183.5019 684.53,-182.7323 686.3564,-189.4898"/>
</g>
<!-- Node65 -->
<g id="node35" class="node">
<title>Node65</title>
<polygon fill="#ffffff" stroke="#bfbfbf" points="329.0444,-165.5 329.0444,-183.5 421.7632,-183.5 421.7632,-165.5 329.0444,-165.5"/>
<text text-anchor="middle" x="375.4038" y="-171.5" font-family="Helvetica,sans-Serif" font-size="10.00" fill="#000000">boost/variant.hpp</text>
</g>
<!-- Node59&#45;&gt;Node65 -->
<g id="edge67" class="edge">
<title>Node59&#45;&gt;Node65</title>
<path fill="none" stroke="#191970" d="M486.5077,-225.3873C464.6447,-215.3737 429.3243,-199.1964 404.385,-187.7738"/>
<polygon fill="#191970" stroke="#191970" points="405.6071,-184.484 395.0579,-183.5019 402.6922,-190.8482 405.6071,-184.484"/>
</g>
<!-- Node60&#45;&gt;Node3 -->
<g id="edge64" class="edge">
<title>Node60&#45;&gt;Node3</title>
<path fill="none" stroke="#191970" d="M738.2039,-165.1527C752.7908,-151.6147 781.5,-126.3821 809.4038,-110 880.2852,-68.386 971.6557,-35.8799 1020.3267,-20.0564"/>
<polygon fill="#191970" stroke="#191970" points="1021.5913,-23.3264 1030.0417,-16.9358 1019.4504,-16.6618 1021.5913,-23.3264"/>
</g>
<!-- Node60&#45;&gt;Node8 -->
<g id="edge65" class="edge">
<title>Node60&#45;&gt;Node8</title>
<path fill="none" stroke="#191970" d="M758.7877,-165.4179C792.9214,-155.2149 847.9979,-138.7518 882.0992,-128.5584"/>
<polygon fill="#191970" stroke="#191970" points="883.3838,-131.8276 891.9625,-125.6102 881.379,-125.1208 883.3838,-131.8276"/>
</g>
<!-- Node60&#45;&gt;Node9 -->
<g id="edge63" class="edge">
<title>Node60&#45;&gt;Node9</title>
<path fill="none" stroke="#191970" d="M776.4696,-172.0551C918.4633,-164.7421 1331.6503,-142.782 1427.5255,-128.7454"/>
<polygon fill="#191970" stroke="#191970" points="1428.3122,-132.1628 1437.6051,-127.0744 1427.1673,-125.2571 1428.3122,-132.1628"/>
</g>
<!-- Node66&#45;&gt;Node8 -->
<g id="edge78" class="edge">
<title>Node66&#45;&gt;Node8</title>
<path fill="none" stroke="#191970" d="M734.0073,-220.4503C759.074,-211.3483 791.2869,-198.5087 818.4038,-184 845.5483,-169.4765 874.4098,-148.7898 892.8805,-134.7912"/>
<polygon fill="#191970" stroke="#191970" points="895.2586,-137.3781 901.0602,-128.5128 890.9964,-131.8252 895.2586,-137.3781"/>
</g>
<!-- Node67 -->
<g id="node37" class="node">
<title>Node67</title>
<g id="a_node37"><a xlink:href="lockedpool_8h.html" target="_top" xlink:title="support/lockedpool.h">
<polygon fill="#ffffff" stroke="#ff0000" points="440.2612,-165.5 440.2612,-183.5 548.5464,-183.5 548.5464,-165.5 440.2612,-165.5"/>
<text text-anchor="middle" x="494.4038" y="-171.5" font-family="Helvetica,sans-Serif" font-size="10.00" fill="#000000">support/lockedpool.h</text>
</a>
</g>
</g>
<!-- Node66&#45;&gt;Node67 -->
<g id="edge72" class="edge">
<title>Node66&#45;&gt;Node67</title>
<path fill="none" stroke="#191970" d="M645.9816,-220.4327C612.0485,-210.1499 566.5058,-196.3491 534.2248,-186.567"/>
<polygon fill="#191970" stroke="#191970" points="534.8268,-183.0923 524.2415,-183.5417 532.7967,-189.7915 534.8268,-183.0923"/>
</g>
<!-- Node71 -->
<g id="node38" class="node">
<title>Node71</title>
<g id="a_node38"><a xlink:href="cleanse_8h.html" target="_top" xlink:title="support/cleanse.h">
<polygon fill="#ffffff" stroke="#000000" points="1336.9336,-165.5 1336.9336,-183.5 1431.874,-183.5 1431.874,-165.5 1336.9336,-165.5"/>
<text text-anchor="middle" x="1384.4038" y="-171.5" font-family="Helvetica,sans-Serif" font-size="10.00" fill="#000000">support/cleanse.h</text>
</a>
</g>
</g>
<!-- Node66&#45;&gt;Node71 -->
<g id="edge76" class="edge">
<title>Node66&#45;&gt;Node71</title>
<path fill="none" stroke="#191970" d="M740.0215,-232.1678C844.4719,-226.7398 1101.7088,-211.6678 1326.7718,-184.1109"/>
<polygon fill="#191970" stroke="#191970" points="1327.2919,-187.5733 1336.7873,-182.8736 1326.4336,-180.6262 1327.2919,-187.5733"/>
</g>
<!-- Node67&#45;&gt;Node3 -->
<g id="edge73" class="edge">
<title>Node67&#45;&gt;Node3</title>
<path fill="none" stroke="#191970" d="M485.5597,-165.1435C474.2791,-152.0318 457.57,-127.8029 469.4038,-110 504.3595,-57.4124 539.2009,-70.5424 600.4038,-55 679.9806,-34.7915 928.3604,-17.477 1019.9951,-11.6199"/>
<polygon fill="#191970" stroke="#191970" points="1020.3634,-15.1037 1030.1222,-10.9786 1019.921,-8.1177 1020.3634,-15.1037"/>
</g>
<!-- Node67&#45;&gt;Node52 -->
<g id="edge74" class="edge">
<title>Node67&#45;&gt;Node52</title>
<path fill="none" stroke="#191970" d="M548.5947,-165.7851C622.3808,-153.9189 751.7484,-133.1142 808.4449,-123.9963"/>
<polygon fill="#191970" stroke="#191970" points="809.1497,-127.428 818.4671,-122.3846 808.0382,-120.5168 809.1497,-127.428"/>
</g>
<!-- Node67&#45;&gt;Node53 -->
<g id="edge75" class="edge">
<title>Node67&#45;&gt;Node53</title>
<path fill="none" stroke="#191970" d="M496.0551,-165.4179C497.3645,-158.2164 499.2409,-147.8962 500.8832,-138.8632"/>
<polygon fill="#191970" stroke="#191970" points="504.3712,-139.2443 502.7166,-128.7795 497.4842,-137.992 504.3712,-139.2443"/>
</g>
<!-- Node71&#45;&gt;Node17 -->
<g id="edge77" class="edge">
<title>Node71&#45;&gt;Node17</title>
<path fill="none" stroke="#191970" d="M1431.882,-166.1824C1470.6437,-158.6568 1526.4813,-146.1252 1573.4038,-129 1591.1417,-122.5262 1593.7299,-116.6466 1611.4038,-110 1658.7518,-92.1939 1715.8574,-78.7024 1751.4081,-71.1958"/>
<polygon fill="#191970" stroke="#191970" points="1752.1949,-74.6072 1761.2758,-69.1493 1750.7734,-67.753 1752.1949,-74.6072"/>
</g>
<!-- Node72&#45;&gt;Node3 -->
<g id="edge82" class="edge">
<title>Node72&#45;&gt;Node3</title>
<path fill="none" stroke="#191970" d="M84.2303,-165.3021C86.8576,-142.1392 97.2519,-81.3774 135.4038,-55 172.4123,-29.4131 856.2172,-13.6191 1019.5706,-10.2013"/>
<polygon fill="#191970" stroke="#191970" points="1020.0669,-13.6918 1029.9922,-9.9853 1019.9218,-6.6933 1020.0669,-13.6918"/>
</g>
<!-- Node72&#45;&gt;Node8 -->
<g id="edge83" class="edge">
<title>Node72&#45;&gt;Node8</title>
<path fill="none" stroke="#191970" d="M121.5585,-172.9497C257.4058,-167.3243 717.2049,-147.3535 863.4038,-129 869.4626,-128.2394 875.8987,-127.1777 882.0452,-126.0383"/>
<polygon fill="#191970" stroke="#191970" points="882.8587,-129.4455 891.9984,-124.0868 881.5118,-122.5763 882.8587,-129.4455"/>
</g>
<!-- Node72&#45;&gt;Node53 -->
<g id="edge81" class="edge">
<title>Node72&#45;&gt;Node53</title>
<path fill="none" stroke="#191970" d="M121.5073,-169.5221C202.1879,-158.9819 389.3177,-134.535 468.2502,-124.2232"/>
<polygon fill="#191970" stroke="#191970" points="468.7459,-127.6882 478.2082,-122.9222 467.839,-120.7472 468.7459,-127.6882"/>
</g>
<!-- Node72&#45;&gt;Node73 -->
<g id="edge80" class="edge">
<title>Node72&#45;&gt;Node73</title>
<path fill="none" stroke="#191970" d="M74.4868,-165.4179C66.6392,-157.425 55.0198,-145.5903 45.5427,-135.9377"/>
<polygon fill="#191970" stroke="#191970" points="48.018,-133.463 38.5145,-128.7795 43.023,-138.3672 48.018,-133.463"/>
</g>
<!-- Node75&#45;&gt;Node8 -->
<g id="edge122" class="edge">
<title>Node75&#45;&gt;Node8</title>
<path fill="none" stroke="#191970" d="M1323.4465,-401.1018C1223.5776,-388.1543 880.4038,-340.3293 880.4038,-294.5 880.4038,-294.5 880.4038,-294.5 880.4038,-234.5 880.4038,-199.2558 894.5262,-160.0863 904.0073,-137.761"/>
<polygon fill="#191970" stroke="#191970" points="907.2569,-139.0661 908.0881,-128.5039 900.8517,-136.2424 907.2569,-139.0661"/>
</g>
<!-- Node75&#45;&gt;Node19 -->
<g id="edge120" class="edge">
<title>Node75&#45;&gt;Node19</title>
<path fill="none" stroke="#191970" d="M1377.377,-396.539C1401.2488,-388.8538 1436.5234,-375.9028 1464.4038,-359 1486.7076,-345.4781 1508.9443,-325.2989 1523.3436,-311.1205"/>
<polygon fill="#191970" stroke="#191970" points="1525.9148,-313.4987 1530.4875,-303.9415 1520.9529,-308.5611 1525.9148,-313.4987"/>
</g>
<!-- Node75&#45;&gt;Node59 -->
<g id="edge121" class="edge">
<title>Node75&#45;&gt;Node59</title>
<path fill="none" stroke="#191970" d="M1323.6906,-402.6445C1235.6926,-396.4294 955.4573,-375.7909 866.4038,-359 779.1753,-342.5532 758.2167,-333.2353 674.4038,-304 624.7646,-286.685 568.6025,-262.4812 535.4179,-247.6821"/>
<polygon fill="#191970" stroke="#191970" points="536.8476,-244.4875 526.2908,-243.5902 533.9838,-250.8749 536.8476,-244.4875"/>
</g>
<!-- Node76 -->
<g id="node43" class="node">
<title>Node76</title>
<g id="a_node43"><a xlink:href="chainparams_8h.html" target="_top" xlink:title="chainparams.h">
<polygon fill="#ffffff" stroke="#000000" points="1101.6084,-285.5 1101.6084,-303.5 1183.1992,-303.5 1183.1992,-285.5 1101.6084,-285.5"/>
<text text-anchor="middle" x="1142.4038" y="-291.5" font-family="Helvetica,sans-Serif" font-size="10.00" fill="#000000">chainparams.h</text>
</a>
</g>
</g>
<!-- Node75&#45;&gt;Node76 -->
<g id="edge93" class="edge">
<title>Node75&#45;&gt;Node76</title>
<path fill="none" stroke="#191970" d="M1333.3823,-395.4982C1297.1209,-376.3216 1212.0391,-331.3263 1168.7308,-308.4229"/>
<polygon fill="#191970" stroke="#191970" points="1170.1367,-305.2072 1159.6605,-303.6261 1166.8642,-311.3952 1170.1367,-305.2072"/>
</g>
<!-- Node83 -->
<g id="node48" class="node">
<title>Node83</title>
<g id="a_node48"><a xlink:href="key_8h.html" target="_top" xlink:title="key.h">
<polygon fill="#ffffff" stroke="#000000" points="1415.8218,-340.5 1415.8218,-358.5 1454.9858,-358.5 1454.9858,-340.5 1415.8218,-340.5"/>
<text text-anchor="middle" x="1435.4038" y="-346.5" font-family="Helvetica,sans-Serif" font-size="10.00" fill="#000000">key.h</text>
</a>
</g>
</g>
<!-- Node75&#45;&gt;Node83 -->
<g id="edge113" class="edge">
<title>Node75&#45;&gt;Node83</title>
<path fill="none" stroke="#191970" d="M1364.4398,-395.4179C1377.6051,-386.8992 1397.5146,-374.0166 1412.8978,-364.0627"/>
<polygon fill="#191970" stroke="#191970" points="1414.8526,-366.9667 1421.3469,-358.5956 1411.0498,-361.0897 1414.8526,-366.9667"/>
</g>
<!-- Node76&#45;&gt;Node9 -->
<g id="edge112" class="edge">
<title>Node76&#45;&gt;Node9</title>
<path fill="none" stroke="#191970" d="M1183.2749,-292.6573C1250.7728,-288.8231 1381.5618,-277.8047 1416.4038,-249 1449.6079,-221.5494 1457.3364,-167.7476 1459.0279,-138.8868"/>
<polygon fill="#191970" stroke="#191970" points="1462.5276,-138.9632 1459.4279,-128.8319 1455.5331,-138.6849 1462.5276,-138.9632"/>
</g>
<!-- Node76&#45;&gt;Node53 -->
<g id="edge111" class="edge">
<title>Node76&#45;&gt;Node53</title>
<path fill="none" stroke="#191970" d="M1101.5767,-286.8993C1019.2631,-271.1433 827.895,-232.3242 671.4038,-184 622.6919,-168.9579 567.841,-146.7112 534.7172,-132.6683"/>
<polygon fill="#191970" stroke="#191970" points="535.737,-129.2981 525.1658,-128.5905 532.9885,-135.7359 535.737,-129.2981"/>
</g>
<!-- Node77 -->
<g id="node44" class="node">
<title>Node77</title>
<g id="a_node44"><a xlink:href="chainparamsbase_8h.html" target="_top" xlink:title="chainparamsbase.h">
<polygon fill="#ffffff" stroke="#000000" points="946.7661,-165.5 946.7661,-183.5 1050.0415,-183.5 1050.0415,-165.5 946.7661,-165.5"/>
<text text-anchor="middle" x="998.4038" y="-171.5" font-family="Helvetica,sans-Serif" font-size="10.00" fill="#000000">chainparamsbase.h</text>
</a>
</g>
</g>
<!-- Node76&#45;&gt;Node77 -->
<g id="edge94" class="edge">
<title>Node76&#45;&gt;Node77</title>
<path fill="none" stroke="#191970" d="M1101.5836,-288.0545C1060.719,-280.6701 1002.0047,-267.2006 988.4038,-249 976.4847,-233.05 982.3256,-209.6483 988.9903,-193.3434"/>
<polygon fill="#191970" stroke="#191970" points="992.3736,-194.3565 993.3105,-183.8031 985.997,-191.4688 992.3736,-194.3565"/>
</g>
<!-- Node78 -->
<g id="node45" class="node">
<title>Node78</title>
<g id="a_node45"><a xlink:href="params_8h.html" target="_top" xlink:title="consensus/params.h">
<polygon fill="#ffffff" stroke="#ff0000" points="997.2686,-225.5 997.2686,-243.5 1105.5391,-243.5 1105.5391,-225.5 997.2686,-225.5"/>
<text text-anchor="middle" x="1051.4038" y="-231.5" font-family="Helvetica,sans-Serif" font-size="10.00" fill="#000000">consensus/params.h</text>
</a>
</g>
</g>
<!-- Node76&#45;&gt;Node78 -->
<g id="edge98" class="edge">
<title>Node76&#45;&gt;Node78</title>
<path fill="none" stroke="#191970" d="M1128.5829,-285.3873C1114.0675,-275.8168 1091.013,-260.6159 1073.8764,-249.3171"/>
<polygon fill="#191970" stroke="#191970" points="1075.3319,-246.0845 1065.0567,-243.5019 1071.4787,-251.9285 1075.3319,-246.0845"/>
</g>
<!-- Node79 -->
<g id="node46" class="node">
<title>Node79</title>
<g id="a_node46"><a xlink:href="block_8h.html" target="_top" xlink:title="primitives/block.h">
<polygon fill="#ffffff" stroke="#ff0000" points="1315.0591,-225.5 1315.0591,-243.5 1407.7485,-243.5 1407.7485,-225.5 1315.0591,-225.5"/>
<text text-anchor="middle" x="1361.4038" y="-231.5" font-family="Helvetica,sans-Serif" font-size="10.00" fill="#000000">primitives/block.h</text>
</a>
</g>
</g>
<!-- Node76&#45;&gt;Node79 -->
<g id="edge102" class="edge">
<title>Node76&#45;&gt;Node79</title>
<path fill="none" stroke="#191970" d="M1175.6652,-285.3873C1213.913,-274.9084 1276.7972,-257.6799 1318.6491,-246.2136"/>
<polygon fill="#191970" stroke="#191970" points="1319.8272,-249.5199 1328.547,-243.5019 1317.9775,-242.7687 1319.8272,-249.5199"/>
</g>
<!-- Node80 -->
<g id="node47" class="node">
<title>Node80</title>
<g id="a_node47"><a xlink:href="protocol_8h.html" target="_top" xlink:title="protocol.h">
<polygon fill="#ffffff" stroke="#ff0000" points="1123.4458,-225.5 1123.4458,-243.5 1183.3618,-243.5 1183.3618,-225.5 1123.4458,-225.5"/>
<text text-anchor="middle" x="1153.4038" y="-231.5" font-family="Helvetica,sans-Serif" font-size="10.00" fill="#000000">protocol.h</text>
</a>
</g>
</g>
<!-- Node76&#45;&gt;Node80 -->
<g id="edge105" class="edge">
<title>Node76&#45;&gt;Node80</title>
<path fill="none" stroke="#191970" d="M1144.0745,-285.3873C1145.6089,-277.0174 1147.9329,-264.3414 1149.8774,-253.735"/>
<polygon fill="#191970" stroke="#191970" points="1153.3567,-254.1657 1151.7174,-243.6985 1146.4714,-252.9034 1153.3567,-254.1657"/>
</g>
<!-- Node77&#45;&gt;Node8 -->
<g id="edge96" class="edge">
<title>Node77&#45;&gt;Node8</title>
<path fill="none" stroke="#191970" d="M984.2027,-165.4179C970.8825,-156.8992 950.7388,-144.0166 935.1746,-134.0627"/>
<polygon fill="#191970" stroke="#191970" points="936.9363,-131.0348 926.6261,-128.5956 933.1648,-136.932 936.9363,-131.0348"/>
</g>
<!-- Node77&#45;&gt;Node9 -->
<g id="edge97" class="edge">
<title>Node77&#45;&gt;Node9</title>
<path fill="none" stroke="#191970" d="M1050.342,-172.3955C1129.9392,-168.4332 1286.859,-157.7118 1427.4884,-129.0632"/>
<polygon fill="#191970" stroke="#191970" points="1428.5034,-132.4272 1437.5842,-126.9694 1427.0818,-125.5731 1428.5034,-132.4272"/>
</g>
<!-- Node77&#45;&gt;Node53 -->
<g id="edge95" class="edge">
<title>Node77&#45;&gt;Node53</title>
<path fill="none" stroke="#191970" d="M946.7296,-172.1811C863.1785,-167.82 693.1999,-156.4155 540.6887,-128.9637"/>
<polygon fill="#191970" stroke="#191970" points="541.1358,-125.4875 530.6694,-127.1322 539.877,-132.3734 541.1358,-125.4875"/>
</g>
<!-- Node78&#45;&gt;Node4 -->
<g id="edge99" class="edge">
<title>Node78&#45;&gt;Node4</title>
<path fill="none" stroke="#191970" d="M1075.7044,-225.3873C1102.9981,-215.1521 1147.4636,-198.4776 1178.0098,-187.0228"/>
<polygon fill="#191970" stroke="#191970" points="1179.2645,-190.2903 1187.3988,-183.5019 1176.8066,-183.736 1179.2645,-190.2903"/>
</g>
<!-- Node78&#45;&gt;Node8 -->
<g id="edge101" class="edge">
<title>Node78&#45;&gt;Node8</title>
<path fill="none" stroke="#191970" d="M1056.0934,-225.3682C1062.7308,-211.0218 1072.6658,-182.9876 1059.4038,-165 1057.6142,-162.5728 985.1831,-140.9235 942.6766,-128.3827"/>
<polygon fill="#191970" stroke="#191970" points="943.4104,-124.9503 932.829,-125.4823 941.4327,-131.6651 943.4104,-124.9503"/>
</g>
<!-- Node78&#45;&gt;Node52 -->
<g id="edge100" class="edge">
<title>Node78&#45;&gt;Node52</title>
<path fill="none" stroke="#191970" d="M1028.2073,-225.4324C1004.8218,-216.0126 967.9195,-200.3814 937.4038,-184 908.9492,-168.7251 877.8676,-148.2598 857.8065,-134.5146"/>
<polygon fill="#191970" stroke="#191970" points="859.6303,-131.5206 849.4137,-128.7149 855.6508,-137.2793 859.6303,-131.5206"/>
</g>
<!-- Node79&#45;&gt;Node4 -->
<g id="edge104" class="edge">
<title>Node79&#45;&gt;Node4</title>
<path fill="none" stroke="#191970" d="M1338.622,-225.3873C1313.2557,-215.2407 1272.0684,-198.7658 1243.4575,-187.3215"/>
<polygon fill="#191970" stroke="#191970" points="1244.4932,-183.9662 1233.9085,-183.5019 1241.8934,-190.4655 1244.4932,-183.9662"/>
</g>
<!-- Node79&#45;&gt;Node48 -->
<g id="edge103" class="edge">
<title>Node79&#45;&gt;Node48</title>
<path fill="none" stroke="#191970" d="M1350.3167,-225.3873C1338.9542,-216.0483 1321.069,-201.3481 1307.4371,-190.1438"/>
<polygon fill="#191970" stroke="#191970" points="1309.5431,-187.3443 1299.5953,-183.6985 1305.0983,-192.7521 1309.5431,-187.3443"/>
</g>
<!-- Node80&#45;&gt;Node3 -->
<g id="edge109" class="edge">
<title>Node80&#45;&gt;Node3</title>
<path fill="none" stroke="#191970" d="M1149.3096,-225.4936C1142.2005,-210.8094 1126.2186,-181.678 1104.4038,-165 1067.2097,-136.5641 1032.2636,-167.3478 1005.4038,-129 997.8319,-118.1896 995.826,-86.8155 1010.4038,-55 1015.6606,-43.5272 1025.0559,-33.1911 1033.8186,-25.2808"/>
<polygon fill="#191970" stroke="#191970" points="1036.1801,-27.8675 1041.5513,-18.7351 1031.6574,-22.5247 1036.1801,-27.8675"/>
</g>
<!-- Node80&#45;&gt;Node4 -->
<g id="edge107" class="edge">
<title>Node80&#45;&gt;Node4</title>
<path fill="none" stroke="#191970" d="M1162.2128,-225.3873C1170.985,-216.3126 1184.6504,-202.1759 1195.3539,-191.1033"/>
<polygon fill="#191970" stroke="#191970" points="1198.0782,-193.321 1202.512,-183.6985 1193.0452,-188.4558 1198.0782,-193.321"/>
</g>
<!-- Node80&#45;&gt;Node8 -->
<g id="edge110" class="edge">
<title>Node80&#45;&gt;Node8</title>
<path fill="none" stroke="#191970" d="M1145.9945,-225.3581C1133.4451,-210.4791 1106.5172,-181.0742 1077.4038,-165 1024.5447,-135.8153 1004.5917,-145.1244 946.4038,-129 945.1746,-128.6594 943.9205,-128.3113 942.6537,-127.9593"/>
<polygon fill="#191970" stroke="#191970" points="943.4687,-124.5532 932.8962,-125.2411 941.5901,-131.2964 943.4687,-124.5532"/>
</g>
<!-- Node80&#45;&gt;Node48 -->
<g id="edge106" class="edge">
<title>Node80&#45;&gt;Node48</title>
<path fill="none" stroke="#191970" d="M1173.9074,-225.3873C1196.5377,-215.3294 1233.1593,-199.0531 1258.8783,-187.6225"/>
<polygon fill="#191970" stroke="#191970" points="1260.433,-190.7617 1268.1496,-183.5019 1257.59,-184.365 1260.433,-190.7617"/>
</g>
<!-- Node80&#45;&gt;Node57 -->
<g id="edge108" class="edge">
<title>Node80&#45;&gt;Node57</title>
<path fill="none" stroke="#191970" d="M1183.6451,-229.4876C1249.2399,-218.6156 1404.5045,-192.8811 1476.9428,-180.8748"/>
<polygon fill="#191970" stroke="#191970" points="1477.7158,-184.2945 1487.0089,-179.2063 1476.5711,-177.3887 1477.7158,-184.2945"/>
</g>
<!-- Node83&#45;&gt;Node4 -->
<g id="edge117" class="edge">
<title>Node83&#45;&gt;Node4</title>
<path fill="none" stroke="#191970" d="M1415.761,-345.0576C1375.8687,-335.0236 1284.958,-306.8397 1235.4038,-249 1222.0428,-233.4051 1216.0929,-210.2599 1213.4602,-193.9134"/>
<polygon fill="#191970" stroke="#191970" points="1216.9105,-193.3078 1212.1173,-183.8592 1209.9721,-194.2346 1216.9105,-193.3078"/>
</g>
<!-- Node83&#45;&gt;Node7 -->
<g id="edge118" class="edge">
<title>Node83&#45;&gt;Node7</title>
<path fill="none" stroke="#191970" d="M1455.0883,-346.4453C1529.565,-334.3363 1799.9247,-285.3532 1998.4038,-184 2025.6236,-170.1003 2054.0997,-149.2793 2072.2563,-135.0794"/>
<polygon fill="#191970" stroke="#191970" points="2074.6354,-137.6595 2080.2899,-128.6997 2070.2822,-132.1777 2074.6354,-137.6595"/>
</g>
<!-- Node83&#45;&gt;Node9 -->
<g id="edge119" class="edge">
<title>Node83&#45;&gt;Node9</title>
<path fill="none" stroke="#191970" d="M1455.1059,-344.9549C1510.5417,-331.7131 1665.5759,-291.4109 1692.4038,-249 1715.3906,-212.6614 1681.2679,-187.1342 1644.4038,-165 1586.4949,-130.2299 1560.0319,-146.0861 1491.2882,-129.2529"/>
<polygon fill="#191970" stroke="#191970" points="1491.8592,-125.785 1481.2999,-126.6521 1490.0952,-132.5591 1491.8592,-125.785"/>
</g>
<!-- Node83&#45;&gt;Node19 -->
<g id="edge114" class="edge">
<title>Node83&#45;&gt;Node19</title>
<path fill="none" stroke="#191970" d="M1452.5773,-340.4179C1469.0618,-331.7001 1494.188,-318.4122 1513.1771,-308.3699"/>
<polygon fill="#191970" stroke="#191970" points="1515.0011,-311.3646 1522.2048,-303.5956 1511.7286,-305.1767 1515.0011,-311.3646"/>
</g>
<!-- Node83&#45;&gt;Node48 -->
<g id="edge115" class="edge">
<title>Node83&#45;&gt;Node48</title>
<path fill="none" stroke="#191970" d="M1436.9617,-340.4155C1440.3656,-317.3864 1445.9645,-256.0018 1416.4038,-220 1410.5385,-212.8566 1363.8599,-197.4005 1328.5514,-186.4908"/>
<polygon fill="#191970" stroke="#191970" points="1329.5241,-183.1283 1318.9374,-183.5449 1327.4733,-189.8211 1329.5241,-183.1283"/>
</g>
<!-- Node83&#45;&gt;Node66 -->
<g id="edge116" class="edge">
<title>Node83&#45;&gt;Node66</title>
<path fill="none" stroke="#191970" d="M1415.7474,-347.3448C1334.0376,-338.2299 1013.3652,-300.9143 753.4038,-249 752.3097,-248.7815 751.2053,-248.5573 750.0934,-248.3281"/>
<polygon fill="#191970" stroke="#191970" points="750.4616,-244.8276 739.9501,-246.154 748.9945,-251.6721 750.4616,-244.8276"/>
</g>
<!-- Node84&#45;&gt;Node3 -->
<g id="edge126" class="edge">
<title>Node84&#45;&gt;Node3</title>
<path fill="none" stroke="#191970" d="M1920.0844,-170.8249C1965.4556,-164.1941 2040.8207,-147.2931 2015.4038,-110 1977.7542,-54.7583 1940.7184,-69.2527 1875.4038,-55 1721.787,-21.4783 1224.6423,-11.9566 1088.9151,-9.9523"/>
<polygon fill="#191970" stroke="#191970" points="1088.7465,-6.4496 1078.6973,-9.8057 1088.646,-13.4489 1088.7465,-6.4496"/>
</g>
<!-- Node84&#45;&gt;Node5 -->
<g id="edge125" class="edge">
<title>Node84&#45;&gt;Node5</title>
<path fill="none" stroke="#191970" d="M1863.6317,-165.4189C1825.981,-151.876 1751.9069,-126.244 1687.4038,-110 1613.6353,-91.4226 1525.6567,-76.9673 1477.443,-69.6896"/>
<polygon fill="#191970" stroke="#191970" points="1477.9006,-66.2192 1467.4934,-68.2047 1476.8673,-73.1425 1477.9006,-66.2192"/>
</g>
<!-- Node84&#45;&gt;Node9 -->
<g id="edge127" class="edge">
<title>Node84&#45;&gt;Node9</title>
<path fill="none" stroke="#191970" d="M1857.0416,-166.6343C1854.1316,-166.0307 1851.2193,-165.4733 1848.4038,-165 1693.5103,-138.9593 1648.3018,-160.4568 1491.2353,-129.0276"/>
<polygon fill="#191970" stroke="#191970" points="1491.7186,-125.5541 1481.2206,-126.983 1490.3183,-132.4127 1491.7186,-125.5541"/>
</g>
<!-- Node84&#45;&gt;Node49 -->
<g id="edge124" class="edge">
<title>Node84&#45;&gt;Node49</title>
<path fill="none" stroke="#191970" d="M1856.9668,-167.0074C1854.0725,-166.3255 1851.1843,-165.648 1848.4038,-165 1792.6804,-152.0127 1728.0948,-137.3101 1687.9872,-128.2209"/>
<polygon fill="#191970" stroke="#191970" points="1688.6178,-124.7752 1678.0916,-125.9798 1687.0715,-131.6023 1688.6178,-124.7752"/>
</g>
</g>
</svg>
