<?xml version="1.0" encoding="UTF-8" standalone="no"?>
<!DOCTYPE svg PUBLIC "-//W3C//DTD SVG 1.1//EN"
 "http://www.w3.org/Graphics/SVG/1.1/DTD/svg11.dtd">
<!-- Generated by graphviz version 2.40.1 (20161225.0304)
 -->
<!-- Title: src/undo.h Pages: 1 -->
<svg width="283pt" height="137pt"
 viewBox="0.00 0.00 282.88 137.00" xmlns="http://www.w3.org/2000/svg" xmlns:xlink="http://www.w3.org/1999/xlink">
<g id="graph0" class="graph" transform="scale(1 1) rotate(0) translate(4 133)">
<title>src/undo.h</title>
<polygon fill="#ffffff" stroke="transparent" points="-4,4 -4,-133 278.8813,-133 278.8813,4 -4,4"/>
<!-- Node64 -->
<g id="node1" class="node">
<title>Node64</title>
<polygon fill="#bfbfbf" stroke="#000000" points="143.9038,-110.5 143.9038,-128.5 206.5981,-128.5 206.5981,-110.5 143.9038,-110.5"/>
<text text-anchor="middle" x="175.251" y="-116.5" font-family="Helvetica,sans-Serif" font-size="10.00" fill="#000000">src/undo.h</text>
</g>
<!-- Node65 -->
<g id="node2" class="node">
<title>Node65</title>
<g id="a_node2"><a xlink:href="blockfilter_8h.html" target="_top" xlink:title="src/blockfilter.h">
<polygon fill="#ffffff" stroke="#000000" points="81.1821,-55.5 81.1821,-73.5 163.3198,-73.5 163.3198,-55.5 81.1821,-55.5"/>
<text text-anchor="middle" x="122.251" y="-61.5" font-family="Helvetica,sans-Serif" font-size="10.00" fill="#000000">src/blockfilter.h</text>
</a>
</g>
</g>
<!-- Node64&#45;&gt;Node65 -->
<g id="edge1" class="edge">
<title>Node64&#45;&gt;Node65</title>
<path fill="none" stroke="#191970" d="M159.3634,-103.0129C150.1468,-93.4485 138.8787,-81.7552 131.193,-73.7795"/>
<polygon fill="#191970" stroke="#191970" points="157.0399,-105.6457 166.4991,-110.4179 162.0804,-100.7884 157.0399,-105.6457"/>
</g>
<!-- Node68 -->
<g id="node5" class="node">
<title>Node68</title>
<g id="a_node5"><a xlink:href="validation_8cpp.html" target="_top" xlink:title="src/validation.cpp">
<polygon fill="#ffffff" stroke="#000000" points="181.6206,-55.5 181.6206,-73.5 274.8813,-73.5 274.8813,-55.5 181.6206,-55.5"/>
<text text-anchor="middle" x="228.251" y="-61.5" font-family="Helvetica,sans-Serif" font-size="10.00" fill="#000000">src/validation.cpp</text>
</a>
</g>
</g>
<!-- Node64&#45;&gt;Node68 -->
<g id="edge4" class="edge">
<title>Node64&#45;&gt;Node68</title>
<path fill="none" stroke="#191970" d="M191.1386,-103.0129C200.3551,-93.4485 211.6233,-81.7552 219.309,-73.7795"/>
<polygon fill="#191970" stroke="#191970" points="188.4215,-100.7884 184.0028,-110.4179 193.4621,-105.6457 188.4215,-100.7884"/>
</g>
<!-- Node66 -->
<g id="node3" class="node">
<title>Node66</title>
<g id="a_node3"><a xlink:href="gcs__filter_8cpp.html" target="_top" xlink:title="src/bench/gcs_filter.cpp">
<polygon fill="#ffffff" stroke="#000000" points="0,-.5 0,-18.5 120.502,-18.5 120.502,-.5 0,-.5"/>
<text text-anchor="middle" x="60.251" y="-6.5" font-family="Helvetica,sans-Serif" font-size="10.00" fill="#000000">src/bench/gcs_filter.cpp</text>
</a>
</g>
</g>
<!-- Node65&#45;&gt;Node66 -->
<g id="edge2" class="edge">
<title>Node65&#45;&gt;Node66</title>
<path fill="none" stroke="#191970" d="M104.3095,-48.5841C93.4128,-38.9177 79.8821,-26.9147 70.7115,-18.7795"/>
<polygon fill="#191970" stroke="#191970" points="102.2095,-51.4 112.0129,-55.4179 106.8548,-46.1634 102.2095,-51.4"/>
</g>
<!-- Node67 -->
<g id="node4" class="node">
<title>Node67</title>
<g id="a_node4"><a xlink:href="blockfilter_8cpp.html" target="_top" xlink:title="src/blockfilter.cpp">
<polygon fill="#ffffff" stroke="#000000" points="138.9014,-.5 138.9014,-18.5 231.6006,-18.5 231.6006,-.5 138.9014,-.5"/>
<text text-anchor="middle" x="185.251" y="-6.5" font-family="Helvetica,sans-Serif" font-size="10.00" fill="#000000">src/blockfilter.cpp</text>
</a>
</g>
</g>
<!-- Node65&#45;&gt;Node67 -->
<g id="edge3" class="edge">
<title>Node65&#45;&gt;Node67</title>
<path fill="none" stroke="#191970" d="M140.4819,-48.5841C151.5543,-38.9177 165.3033,-26.9147 174.6218,-18.7795"/>
<polygon fill="#191970" stroke="#191970" points="137.8855,-46.2046 132.6541,-55.4179 142.4892,-51.4779 137.8855,-46.2046"/>
</g>
</g>
</svg>
