<?xml version="1.0" encoding="UTF-8" standalone="no"?>
<!DOCTYPE svg PUBLIC "-//W3C//DTD SVG 1.1//EN"
 "http://www.w3.org/Graphics/SVG/1.1/DTD/svg11.dtd">
<!-- Generated by graphviz version 2.40.1 (20161225.0304)
 -->
<!-- Title: src/univalue/test/unitester.cpp Pages: 1 -->
<svg width="513pt" height="137pt"
 viewBox="0.00 0.00 512.96 137.00" xmlns="http://www.w3.org/2000/svg" xmlns:xlink="http://www.w3.org/1999/xlink">
<g id="graph0" class="graph" transform="scale(1 1) rotate(0) translate(4 133)">
<title>src/univalue/test/unitester.cpp</title>
<polygon fill="#ffffff" stroke="transparent" points="-4,4 -4,-133 508.9629,-133 508.9629,4 -4,4"/>
<!-- Node0 -->
<g id="node1" class="node">
<title>Node0</title>
<polygon fill="#bfbfbf" stroke="#000000" points="84.9707,-110.5 84.9707,-128.5 232.7139,-128.5 232.7139,-110.5 84.9707,-110.5"/>
<text text-anchor="middle" x="158.8423" y="-116.5" font-family="Helvetica,sans-Serif" font-size="10.00" fill="#000000">src/univalue/test/unitester.cpp</text>
</g>
<!-- Node1 -->
<g id="node2" class="node">
<title>Node1</title>
<polygon fill="#ffffff" stroke="#bfbfbf" points="0,-55.5 0,-73.5 47.6846,-73.5 47.6846,-55.5 0,-55.5"/>
<text text-anchor="middle" x="23.8423" y="-61.5" font-family="Helvetica,sans-Serif" font-size="10.00" fill="#000000">stdlib.h</text>
</g>
<!-- Node0&#45;&gt;Node1 -->
<g id="edge1" class="edge">
<title>Node0&#45;&gt;Node1</title>
<path fill="none" stroke="#191970" d="M136.5498,-110.4179C114.4677,-101.4215 80.4393,-87.5581 55.548,-77.4172"/>
<polygon fill="#191970" stroke="#191970" points="56.7494,-74.1273 46.1679,-73.5956 54.1083,-80.61 56.7494,-74.1273"/>
</g>
<!-- Node2 -->
<g id="node3" class="node">
<title>Node2</title>
<polygon fill="#ffffff" stroke="#bfbfbf" points="66.1108,-55.5 66.1108,-73.5 111.5737,-73.5 111.5737,-55.5 66.1108,-55.5"/>
<text text-anchor="middle" x="88.8423" y="-61.5" font-family="Helvetica,sans-Serif" font-size="10.00" fill="#000000">stdio.h</text>
</g>
<!-- Node0&#45;&gt;Node2 -->
<g id="edge2" class="edge">
<title>Node0&#45;&gt;Node2</title>
<path fill="none" stroke="#191970" d="M147.2832,-110.4179C136.8083,-102.1876 121.1491,-89.8839 108.6759,-80.0836"/>
<polygon fill="#191970" stroke="#191970" points="110.6781,-77.2056 100.6525,-73.7795 106.3533,-82.7098 110.6781,-77.2056"/>
</g>
<!-- Node3 -->
<g id="node4" class="node">
<title>Node3</title>
<polygon fill="#ffffff" stroke="#bfbfbf" points="80.4458,-.5 80.4458,-18.5 129.2388,-18.5 129.2388,-.5 80.4458,-.5"/>
<text text-anchor="middle" x="104.8423" y="-6.5" font-family="Helvetica,sans-Serif" font-size="10.00" fill="#000000">string.h</text>
</g>
<!-- Node0&#45;&gt;Node3 -->
<g id="edge3" class="edge">
<title>Node0&#45;&gt;Node3</title>
<path fill="none" stroke="#191970" d="M154.4232,-110.4982C145.563,-92.4496 125.4755,-51.5306 113.7691,-27.6843"/>
<polygon fill="#191970" stroke="#191970" points="116.871,-26.0605 109.3224,-18.6261 110.5873,-29.1452 116.871,-26.0605"/>
</g>
<!-- Node4 -->
<g id="node5" class="node">
<title>Node4</title>
<polygon fill="#ffffff" stroke="#bfbfbf" points="147.7266,-.5 147.7266,-18.5 195.958,-18.5 195.958,-.5 147.7266,-.5"/>
<text text-anchor="middle" x="171.8423" y="-6.5" font-family="Helvetica,sans-Serif" font-size="10.00" fill="#000000">cassert</text>
</g>
<!-- Node0&#45;&gt;Node4 -->
<g id="edge4" class="edge">
<title>Node0&#45;&gt;Node4</title>
<path fill="none" stroke="#191970" d="M159.9061,-110.4982C162.0106,-92.6913 166.746,-52.6225 169.5789,-28.6515"/>
<polygon fill="#191970" stroke="#191970" points="173.0658,-28.9678 170.7637,-18.6261 166.1142,-28.1462 173.0658,-28.9678"/>
</g>
<!-- Node5 -->
<g id="node6" class="node">
<title>Node5</title>
<polygon fill="#ffffff" stroke="#bfbfbf" points="213.6157,-.5 213.6157,-18.5 254.0688,-18.5 254.0688,-.5 213.6157,-.5"/>
<text text-anchor="middle" x="233.8423" y="-6.5" font-family="Helvetica,sans-Serif" font-size="10.00" fill="#000000">string</text>
</g>
<!-- Node0&#45;&gt;Node5 -->
<g id="edge5" class="edge">
<title>Node0&#45;&gt;Node5</title>
<path fill="none" stroke="#191970" d="M164.9798,-110.4982C177.3956,-92.2885 205.6845,-50.798 221.8766,-27.0496"/>
<polygon fill="#191970" stroke="#191970" points="224.8783,-28.8601 227.6199,-18.6261 219.0947,-24.9167 224.8783,-28.8601"/>
</g>
<!-- Node6 -->
<g id="node7" class="node">
<title>Node6</title>
<g id="a_node7"><a xlink:href="univalue_8h.html" target="_top" xlink:title="univalue.h">
<polygon fill="#ffffff" stroke="#000000" points="256.0469,-55.5 256.0469,-73.5 317.6377,-73.5 317.6377,-55.5 256.0469,-55.5"/>
<text text-anchor="middle" x="286.8423" y="-61.5" font-family="Helvetica,sans-Serif" font-size="10.00" fill="#000000">univalue.h</text>
</a>
</g>
</g>
<!-- Node0&#45;&gt;Node6 -->
<g id="edge6" class="edge">
<title>Node0&#45;&gt;Node6</title>
<path fill="none" stroke="#191970" d="M179.9789,-110.4179C200.8233,-101.4613 232.8946,-87.6806 256.4667,-77.552"/>
<polygon fill="#191970" stroke="#191970" points="257.8683,-80.7592 265.6743,-73.5956 255.1048,-74.3278 257.8683,-80.7592"/>
</g>
<!-- Node6&#45;&gt;Node3 -->
<g id="edge8" class="edge">
<title>Node6&#45;&gt;Node3</title>
<path fill="none" stroke="#191970" d="M256.7887,-55.4179C224.49,-45.6573 173.2335,-30.1677 139.3189,-19.9187"/>
<polygon fill="#191970" stroke="#191970" points="139.9755,-16.4609 129.3906,-16.9184 137.9505,-23.1616 139.9755,-16.4609"/>
</g>
<!-- Node6&#45;&gt;Node4 -->
<g id="edge12" class="edge">
<title>Node6&#45;&gt;Node4</title>
<path fill="none" stroke="#191970" d="M267.8524,-55.4179C249.3746,-46.5807 221.0775,-33.0473 199.984,-22.9591"/>
<polygon fill="#191970" stroke="#191970" points="201.3919,-19.7528 190.8604,-18.5956 198.3716,-26.0677 201.3919,-19.7528"/>
</g>
<!-- Node6&#45;&gt;Node5 -->
<g id="edge9" class="edge">
<title>Node6&#45;&gt;Node5</title>
<path fill="none" stroke="#191970" d="M278.0904,-55.4179C270.4644,-47.5041 259.2093,-35.8243 249.9592,-26.2251"/>
<polygon fill="#191970" stroke="#191970" points="252.2436,-23.5516 242.7843,-18.7795 247.203,-28.4089 252.2436,-23.5516"/>
</g>
<!-- Node7 -->
<g id="node8" class="node">
<title>Node7</title>
<polygon fill="#ffffff" stroke="#bfbfbf" points="456.7217,-.5 456.7217,-18.5 504.9629,-18.5 504.9629,-.5 456.7217,-.5"/>
<text text-anchor="middle" x="480.8423" y="-6.5" font-family="Helvetica,sans-Serif" font-size="10.00" fill="#000000">stdint.h</text>
</g>
<!-- Node6&#45;&gt;Node7 -->
<g id="edge7" class="edge">
<title>Node6&#45;&gt;Node7</title>
<path fill="none" stroke="#191970" d="M317.7197,-55.822C348.1763,-47.2516 396.314,-33.6776 446.8905,-19.2625"/>
<polygon fill="#191970" stroke="#191970" points="448.0391,-22.5746 456.6956,-16.466 446.1191,-15.843 448.0391,-22.5746"/>
</g>
<!-- Node8 -->
<g id="node9" class="node">
<title>Node8</title>
<polygon fill="#ffffff" stroke="#bfbfbf" points="272.2266,-.5 272.2266,-18.5 315.458,-18.5 315.458,-.5 272.2266,-.5"/>
<text text-anchor="middle" x="293.8423" y="-6.5" font-family="Helvetica,sans-Serif" font-size="10.00" fill="#000000">vector</text>
</g>
<!-- Node6&#45;&gt;Node8 -->
<g id="edge10" class="edge">
<title>Node6&#45;&gt;Node8</title>
<path fill="none" stroke="#191970" d="M287.9982,-55.4179C288.9147,-48.2164 290.2282,-37.8962 291.3779,-28.8632"/>
<polygon fill="#191970" stroke="#191970" points="294.8706,-29.1414 292.6613,-18.7795 287.9266,-28.2575 294.8706,-29.1414"/>
</g>
<!-- Node9 -->
<g id="node10" class="node">
<title>Node9</title>
<polygon fill="#ffffff" stroke="#bfbfbf" points="333.1157,-.5 333.1157,-18.5 368.5688,-18.5 368.5688,-.5 333.1157,-.5"/>
<text text-anchor="middle" x="350.8423" y="-6.5" font-family="Helvetica,sans-Serif" font-size="10.00" fill="#000000">map</text>
</g>
<!-- Node6&#45;&gt;Node9 -->
<g id="edge11" class="edge">
<title>Node6&#45;&gt;Node9</title>
<path fill="none" stroke="#191970" d="M297.4106,-55.4179C306.8956,-47.2667 321.0298,-35.1201 332.3789,-25.3669"/>
<polygon fill="#191970" stroke="#191970" points="334.7413,-27.9516 340.0444,-18.7795 330.179,-22.6427 334.7413,-27.9516"/>
</g>
<!-- Node10 -->
<g id="node11" class="node">
<title>Node10</title>
<polygon fill="#ffffff" stroke="#bfbfbf" points="387.0615,-.5 387.0615,-18.5 438.623,-18.5 438.623,-.5 387.0615,-.5"/>
<text text-anchor="middle" x="412.8423" y="-6.5" font-family="Helvetica,sans-Serif" font-size="10.00" fill="#000000">sstream</text>
</g>
<!-- Node6&#45;&gt;Node10 -->
<g id="edge13" class="edge">
<title>Node6&#45;&gt;Node10</title>
<path fill="none" stroke="#191970" d="M307.6486,-55.4179C328.0762,-46.5011 359.4571,-32.803 382.6315,-22.6873"/>
<polygon fill="#191970" stroke="#191970" points="384.2403,-25.804 392.005,-18.5956 381.4399,-19.3885 384.2403,-25.804"/>
</g>
</g>
</svg>
