<?xml version="1.0" encoding="UTF-8" standalone="no"?>
<!DOCTYPE svg PUBLIC "-//W3C//DTD SVG 1.1//EN"
 "http://www.w3.org/Graphics/SVG/1.1/DTD/svg11.dtd">
<!-- Generated by graphviz version 2.40.1 (20161225.0304)
 -->
<!-- Title: src/univalue/include/univalue.h Pages: 1 -->
<svg width="433pt" height="92pt"
 viewBox="0.00 0.00 432.90 92.00" xmlns="http://www.w3.org/2000/svg" xmlns:xlink="http://www.w3.org/1999/xlink">
<g id="graph0" class="graph" transform="scale(1 1) rotate(0) translate(4 88)">
<title>src/univalue/include/univalue.h</title>
<polygon fill="#ffffff" stroke="transparent" points="-4,4 -4,-88 428.9014,-88 428.9014,4 -4,4"/>
<!-- Node0 -->
<g id="node1" class="node">
<title>Node0</title>
<polygon fill="#bfbfbf" stroke="#000000" points="162.207,-55.5 162.207,-83.5 266.0342,-83.5 266.0342,-55.5 162.207,-55.5"/>
<text text-anchor="start" x="170.207" y="-71.5" font-family="Helvetica,sans-Serif" font-size="10.00" fill="#000000">src/univalue/include</text>
<text text-anchor="middle" x="214.1206" y="-61.5" font-family="Helvetica,sans-Serif" font-size="10.00" fill="#000000">/univalue.h</text>
</g>
<!-- Node1 -->
<g id="node2" class="node">
<title>Node1</title>
<polygon fill="#ffffff" stroke="#bfbfbf" points="0,-.5 0,-18.5 48.2412,-18.5 48.2412,-.5 0,-.5"/>
<text text-anchor="middle" x="24.1206" y="-6.5" font-family="Helvetica,sans-Serif" font-size="10.00" fill="#000000">stdint.h</text>
</g>
<!-- Node0&#45;&gt;Node1 -->
<g id="edge1" class="edge">
<title>Node0&#45;&gt;Node1</title>
<path fill="none" stroke="#191970" d="M169.574,-55.4327C135.5762,-44.6965 89.4338,-30.1252 58.3114,-20.2971"/>
<polygon fill="#191970" stroke="#191970" points="58.9618,-16.8322 48.3719,-17.1583 56.8538,-23.5072 58.9618,-16.8322"/>
</g>
<!-- Node2 -->
<g id="node3" class="node">
<title>Node2</title>
<polygon fill="#ffffff" stroke="#bfbfbf" points="66.7241,-.5 66.7241,-18.5 115.5171,-18.5 115.5171,-.5 66.7241,-.5"/>
<text text-anchor="middle" x="91.1206" y="-6.5" font-family="Helvetica,sans-Serif" font-size="10.00" fill="#000000">string.h</text>
</g>
<!-- Node0&#45;&gt;Node2 -->
<g id="edge2" class="edge">
<title>Node0&#45;&gt;Node2</title>
<path fill="none" stroke="#191970" d="M185.2826,-55.4327C165.2677,-45.6693 138.7511,-32.7344 118.9579,-23.0792"/>
<polygon fill="#191970" stroke="#191970" points="120.3615,-19.8697 109.8393,-18.6311 117.2925,-26.161 120.3615,-19.8697"/>
</g>
<!-- Node3 -->
<g id="node4" class="node">
<title>Node3</title>
<polygon fill="#ffffff" stroke="#bfbfbf" points="133.894,-.5 133.894,-18.5 174.3472,-18.5 174.3472,-.5 133.894,-.5"/>
<text text-anchor="middle" x="154.1206" y="-6.5" font-family="Helvetica,sans-Serif" font-size="10.00" fill="#000000">string</text>
</g>
<!-- Node0&#45;&gt;Node3 -->
<g id="edge3" class="edge">
<title>Node0&#45;&gt;Node3</title>
<path fill="none" stroke="#191970" d="M199.9014,-55.2808C191.0214,-46.4008 179.5625,-34.9419 170.3304,-25.7098"/>
<polygon fill="#191970" stroke="#191970" points="172.7508,-23.1804 163.2048,-18.5842 167.801,-28.1302 172.7508,-23.1804"/>
</g>
<!-- Node4 -->
<g id="node5" class="node">
<title>Node4</title>
<polygon fill="#ffffff" stroke="#bfbfbf" points="192.5049,-.5 192.5049,-18.5 235.7363,-18.5 235.7363,-.5 192.5049,-.5"/>
<text text-anchor="middle" x="214.1206" y="-6.5" font-family="Helvetica,sans-Serif" font-size="10.00" fill="#000000">vector</text>
</g>
<!-- Node0&#45;&gt;Node4 -->
<g id="edge4" class="edge">
<title>Node0&#45;&gt;Node4</title>
<path fill="none" stroke="#191970" d="M214.1206,-55.2808C214.1206,-47.3776 214.1206,-37.4316 214.1206,-28.8308"/>
<polygon fill="#191970" stroke="#191970" points="217.6207,-28.5842 214.1206,-18.5842 210.6207,-28.5842 217.6207,-28.5842"/>
</g>
<!-- Node5 -->
<g id="node6" class="node">
<title>Node5</title>
<polygon fill="#ffffff" stroke="#bfbfbf" points="253.394,-.5 253.394,-18.5 288.8472,-18.5 288.8472,-.5 253.394,-.5"/>
<text text-anchor="middle" x="271.1206" y="-6.5" font-family="Helvetica,sans-Serif" font-size="10.00" fill="#000000">map</text>
</g>
<!-- Node0&#45;&gt;Node5 -->
<g id="edge5" class="edge">
<title>Node0&#45;&gt;Node5</title>
<path fill="none" stroke="#191970" d="M227.6288,-55.2808C235.9805,-46.4896 246.7334,-35.1708 255.4575,-25.9875"/>
<polygon fill="#191970" stroke="#191970" points="258.1406,-28.2448 262.4906,-18.5842 253.0656,-23.4236 258.1406,-28.2448"/>
</g>
<!-- Node6 -->
<g id="node7" class="node">
<title>Node6</title>
<polygon fill="#ffffff" stroke="#bfbfbf" points="307.0049,-.5 307.0049,-18.5 355.2363,-18.5 355.2363,-.5 307.0049,-.5"/>
<text text-anchor="middle" x="331.1206" y="-6.5" font-family="Helvetica,sans-Serif" font-size="10.00" fill="#000000">cassert</text>
</g>
<!-- Node0&#45;&gt;Node6 -->
<g id="edge6" class="edge">
<title>Node0&#45;&gt;Node6</title>
<path fill="none" stroke="#191970" d="M241.5519,-55.4327C260.5039,-45.7137 285.5844,-32.8519 304.3841,-23.211"/>
<polygon fill="#191970" stroke="#191970" points="306.014,-26.3086 313.315,-18.6311 302.8197,-20.0799 306.014,-26.3086"/>
</g>
<!-- Node7 -->
<g id="node8" class="node">
<title>Node7</title>
<polygon fill="#ffffff" stroke="#bfbfbf" points="373.3398,-.5 373.3398,-18.5 424.9014,-18.5 424.9014,-.5 373.3398,-.5"/>
<text text-anchor="middle" x="399.1206" y="-6.5" font-family="Helvetica,sans-Serif" font-size="10.00" fill="#000000">sstream</text>
</g>
<!-- Node0&#45;&gt;Node7 -->
<g id="edge7" class="edge">
<title>Node0&#45;&gt;Node7</title>
<path fill="none" stroke="#191970" d="M257.4949,-55.4327C289.7344,-44.9766 333.1902,-30.8828 363.4286,-21.0758"/>
<polygon fill="#191970" stroke="#191970" points="364.7089,-24.3401 373.1414,-17.9257 362.5493,-17.6815 364.7089,-24.3401"/>
</g>
</g>
</svg>
