<?xml version="1.0" encoding="UTF-8" standalone="no"?>
<!DOCTYPE svg PUBLIC "-//W3C//DTD SVG 1.1//EN"
 "http://www.w3.org/Graphics/SVG/1.1/DTD/svg11.dtd">
<!-- Generated by graphviz version 2.40.1 (20161225.0304)
 -->
<!-- Title: src/univalue/lib/univalue_write.cpp Pages: 1 -->
<svg width="444pt" height="147pt"
 viewBox="0.00 0.00 443.63 147.00" xmlns="http://www.w3.org/2000/svg" xmlns:xlink="http://www.w3.org/1999/xlink">
<g id="graph0" class="graph" transform="scale(1 1) rotate(0) translate(4 143)">
<title>src/univalue/lib/univalue_write.cpp</title>
<polygon fill="#ffffff" stroke="transparent" points="-4,4 -4,-143 439.6255,-143 439.6255,4 -4,4"/>
<!-- Node0 -->
<g id="node1" class="node">
<title>Node0</title>
<polygon fill="#bfbfbf" stroke="#000000" points="69.4238,-110.5 69.4238,-138.5 191.5957,-138.5 191.5957,-110.5 69.4238,-110.5"/>
<text text-anchor="start" x="77.4238" y="-126.5" font-family="Helvetica,sans-Serif" font-size="10.00" fill="#000000">src/univalue/lib/univalue</text>
<text text-anchor="middle" x="130.5098" y="-116.5" font-family="Helvetica,sans-Serif" font-size="10.00" fill="#000000">_write.cpp</text>
</g>
<!-- Node1 -->
<g id="node2" class="node">
<title>Node1</title>
<polygon fill="#ffffff" stroke="#bfbfbf" points="0,-55.5 0,-73.5 51.0195,-73.5 51.0195,-55.5 0,-55.5"/>
<text text-anchor="middle" x="25.5098" y="-61.5" font-family="Helvetica,sans-Serif" font-size="10.00" fill="#000000">iomanip</text>
</g>
<!-- Node0&#45;&gt;Node1 -->
<g id="edge1" class="edge">
<title>Node0&#45;&gt;Node1</title>
<path fill="none" stroke="#191970" d="M105.8919,-110.4327C89.1168,-100.8468 66.9912,-88.2037 50.2006,-78.609"/>
<polygon fill="#191970" stroke="#191970" points="51.9081,-75.5536 41.4891,-73.6311 48.4351,-81.6314 51.9081,-75.5536"/>
</g>
<!-- Node2 -->
<g id="node3" class="node">
<title>Node2</title>
<polygon fill="#ffffff" stroke="#bfbfbf" points="10.729,-.5 10.729,-18.5 62.2905,-18.5 62.2905,-.5 10.729,-.5"/>
<text text-anchor="middle" x="36.5098" y="-6.5" font-family="Helvetica,sans-Serif" font-size="10.00" fill="#000000">sstream</text>
</g>
<!-- Node0&#45;&gt;Node2 -->
<g id="edge2" class="edge">
<title>Node0&#45;&gt;Node2</title>
<path fill="none" stroke="#191970" d="M118.9835,-110.3987C101.682,-89.232 69.0474,-49.3067 50.4376,-26.5394"/>
<polygon fill="#191970" stroke="#191970" points="53.0918,-24.2562 44.0532,-18.7286 47.672,-28.6863 53.0918,-24.2562"/>
</g>
<!-- Node3 -->
<g id="node4" class="node">
<title>Node3</title>
<polygon fill="#ffffff" stroke="#bfbfbf" points="107.7783,-55.5 107.7783,-73.5 153.2412,-73.5 153.2412,-55.5 107.7783,-55.5"/>
<text text-anchor="middle" x="130.5098" y="-61.5" font-family="Helvetica,sans-Serif" font-size="10.00" fill="#000000">stdio.h</text>
</g>
<!-- Node0&#45;&gt;Node3 -->
<g id="edge3" class="edge">
<title>Node0&#45;&gt;Node3</title>
<path fill="none" stroke="#191970" d="M130.5098,-110.2808C130.5098,-102.3776 130.5098,-92.4316 130.5098,-83.8308"/>
<polygon fill="#191970" stroke="#191970" points="134.0099,-83.5842 130.5098,-73.5842 127.0099,-83.5842 134.0099,-83.5842"/>
</g>
<!-- Node4 -->
<g id="node5" class="node">
<title>Node4</title>
<g id="a_node5"><a xlink:href="univalue_8h.html" target="_top" xlink:title="univalue.h">
<polygon fill="#ffffff" stroke="#000000" points="171.7144,-55.5 171.7144,-73.5 233.3052,-73.5 233.3052,-55.5 171.7144,-55.5"/>
<text text-anchor="middle" x="202.5098" y="-61.5" font-family="Helvetica,sans-Serif" font-size="10.00" fill="#000000">univalue.h</text>
</a>
</g>
</g>
<!-- Node0&#45;&gt;Node4 -->
<g id="edge4" class="edge">
<title>Node0&#45;&gt;Node4</title>
<path fill="none" stroke="#191970" d="M147.5728,-110.2808C158.442,-101.2232 172.5308,-89.4825 183.7194,-80.1586"/>
<polygon fill="#191970" stroke="#191970" points="186.1672,-82.6749 191.6087,-73.5842 181.6858,-77.2973 186.1672,-82.6749"/>
</g>
<!-- Node11 -->
<g id="node12" class="node">
<title>Node11</title>
<g id="a_node12"><a xlink:href="univalue__escapes_8h.html" target="_top" xlink:title="univalue_escapes.h">
<polygon fill="#ffffff" stroke="#000000" points="251.3105,-55.5 251.3105,-73.5 355.709,-73.5 355.709,-55.5 251.3105,-55.5"/>
<text text-anchor="middle" x="303.5098" y="-61.5" font-family="Helvetica,sans-Serif" font-size="10.00" fill="#000000">univalue_escapes.h</text>
</a>
</g>
</g>
<!-- Node0&#45;&gt;Node11 -->
<g id="edge12" class="edge">
<title>Node0&#45;&gt;Node11</title>
<path fill="none" stroke="#191970" d="M171.0706,-110.4327C200.4625,-100.2389 239.8233,-86.5878 267.9815,-76.822"/>
<polygon fill="#191970" stroke="#191970" points="269.1384,-80.1253 277.4395,-73.5417 266.8447,-73.5118 269.1384,-80.1253"/>
</g>
<!-- Node4&#45;&gt;Node2 -->
<g id="edge11" class="edge">
<title>Node4&#45;&gt;Node2</title>
<path fill="none" stroke="#191970" d="M175.0982,-55.4179C146.8462,-46.0572 102.6911,-31.4276 71.8357,-21.2044"/>
<polygon fill="#191970" stroke="#191970" points="72.9154,-17.875 62.322,-18.0522 70.7137,-24.5198 72.9154,-17.875"/>
</g>
<!-- Node5 -->
<g id="node6" class="node">
<title>Node5</title>
<polygon fill="#ffffff" stroke="#bfbfbf" points="80.3892,-.5 80.3892,-18.5 128.6304,-18.5 128.6304,-.5 80.3892,-.5"/>
<text text-anchor="middle" x="104.5098" y="-6.5" font-family="Helvetica,sans-Serif" font-size="10.00" fill="#000000">stdint.h</text>
</g>
<!-- Node4&#45;&gt;Node5 -->
<g id="edge5" class="edge">
<title>Node4&#45;&gt;Node5</title>
<path fill="none" stroke="#191970" d="M186.3271,-55.4179C170.8645,-46.7399 147.333,-33.5334 129.4689,-23.5077"/>
<polygon fill="#191970" stroke="#191970" points="131.15,-20.4377 120.7165,-18.5956 127.7241,-26.542 131.15,-20.4377"/>
</g>
<!-- Node6 -->
<g id="node7" class="node">
<title>Node6</title>
<polygon fill="#ffffff" stroke="#bfbfbf" points="147.1133,-.5 147.1133,-18.5 195.9063,-18.5 195.9063,-.5 147.1133,-.5"/>
<text text-anchor="middle" x="171.5098" y="-6.5" font-family="Helvetica,sans-Serif" font-size="10.00" fill="#000000">string.h</text>
</g>
<!-- Node4&#45;&gt;Node6 -->
<g id="edge6" class="edge">
<title>Node4&#45;&gt;Node6</title>
<path fill="none" stroke="#191970" d="M197.3907,-55.4179C193.1533,-47.8998 187.0001,-36.9829 181.7566,-27.6799"/>
<polygon fill="#191970" stroke="#191970" points="184.6992,-25.7724 176.74,-18.7795 178.6011,-29.2096 184.6992,-25.7724"/>
</g>
<!-- Node7 -->
<g id="node8" class="node">
<title>Node7</title>
<polygon fill="#ffffff" stroke="#bfbfbf" points="214.2832,-.5 214.2832,-18.5 254.7363,-18.5 254.7363,-.5 214.2832,-.5"/>
<text text-anchor="middle" x="234.5098" y="-6.5" font-family="Helvetica,sans-Serif" font-size="10.00" fill="#000000">string</text>
</g>
<!-- Node4&#45;&gt;Node7 -->
<g id="edge7" class="edge">
<title>Node4&#45;&gt;Node7</title>
<path fill="none" stroke="#191970" d="M207.7939,-55.4179C212.1681,-47.8998 218.5197,-36.9829 223.9324,-27.6799"/>
<polygon fill="#191970" stroke="#191970" points="227.107,-29.1831 229.1108,-18.7795 221.0566,-25.6628 227.107,-29.1831"/>
</g>
<!-- Node8 -->
<g id="node9" class="node">
<title>Node8</title>
<polygon fill="#ffffff" stroke="#bfbfbf" points="272.894,-.5 272.894,-18.5 316.1255,-18.5 316.1255,-.5 272.894,-.5"/>
<text text-anchor="middle" x="294.5098" y="-6.5" font-family="Helvetica,sans-Serif" font-size="10.00" fill="#000000">vector</text>
</g>
<!-- Node4&#45;&gt;Node8 -->
<g id="edge8" class="edge">
<title>Node4&#45;&gt;Node8</title>
<path fill="none" stroke="#191970" d="M217.7017,-55.4179C232.0844,-46.8195 253.9037,-33.7754 270.6158,-23.7844"/>
<polygon fill="#191970" stroke="#191970" points="272.5081,-26.731 279.2953,-18.5956 268.9162,-20.7228 272.5081,-26.731"/>
</g>
<!-- Node9 -->
<g id="node10" class="node">
<title>Node9</title>
<polygon fill="#ffffff" stroke="#bfbfbf" points="333.7832,-.5 333.7832,-18.5 369.2363,-18.5 369.2363,-.5 333.7832,-.5"/>
<text text-anchor="middle" x="351.5098" y="-6.5" font-family="Helvetica,sans-Serif" font-size="10.00" fill="#000000">map</text>
</g>
<!-- Node4&#45;&gt;Node9 -->
<g id="edge9" class="edge">
<title>Node4&#45;&gt;Node9</title>
<path fill="none" stroke="#191970" d="M227.1141,-55.4179C253.7631,-45.581 296.1759,-29.9252 323.9328,-19.6794"/>
<polygon fill="#191970" stroke="#191970" points="325.2702,-22.9166 333.4395,-16.1702 322.8462,-16.3497 325.2702,-22.9166"/>
</g>
<!-- Node10 -->
<g id="node11" class="node">
<title>Node10</title>
<polygon fill="#ffffff" stroke="#bfbfbf" points="387.394,-.5 387.394,-18.5 435.6255,-18.5 435.6255,-.5 387.394,-.5"/>
<text text-anchor="middle" x="411.5098" y="-6.5" font-family="Helvetica,sans-Serif" font-size="10.00" fill="#000000">cassert</text>
</g>
<!-- Node4&#45;&gt;Node10 -->
<g id="edge10" class="edge">
<title>Node4&#45;&gt;Node10</title>
<path fill="none" stroke="#191970" d="M233.4167,-56.7817C266.6915,-48.4124 321.4156,-34.4769 377.6159,-19.1937"/>
<polygon fill="#191970" stroke="#191970" points="378.6551,-22.5382 387.3806,-16.5286 376.8119,-15.7852 378.6551,-22.5382"/>
</g>
</g>
</svg>
