<?xml version="1.0" encoding="UTF-8" standalone="no"?>
<!DOCTYPE svg PUBLIC "-//W3C//DTD SVG 1.1//EN"
 "http://www.w3.org/Graphics/SVG/1.1/DTD/svg11.dtd">
<!-- Generated by graphviz version 2.40.1 (20161225.0304)
 -->
<!-- Title: runCommand Pages: 1 -->
<svg width="949pt" height="148pt"
 viewBox="0.00 0.00 949.29 148.00" xmlns="http://www.w3.org/2000/svg" xmlns:xlink="http://www.w3.org/1999/xlink">
<g id="graph0" class="graph" transform="scale(1 1) rotate(0) translate(4 144)">
<title>runCommand</title>
<polygon fill="#ffffff" stroke="transparent" points="-4,4 -4,-144 945.2881,-144 945.2881,4 -4,4"/>
<!-- Node264 -->
<g id="node1" class="node">
<title>Node264</title>
<polygon fill="#bfbfbf" stroke="#000000" points="0,-36.5 0,-54.5 76.5811,-54.5 76.5811,-36.5 0,-36.5"/>
<text text-anchor="middle" x="38.2905" y="-42.5" font-family="Helvetica,sans-Serif" font-size="10.00" fill="#000000">runCommand</text>
</g>
<!-- Node265 -->
<g id="node2" class="node">
<title>Node265</title>
<g id="a_node2"><a xlink:href="group__map_wallet.html#ga71c829a50abbcd74c1884b1f86527755" target="_top" xlink:title="CWallet::AddToWallet">
<polygon fill="#ffffff" stroke="#000000" points="112.5811,-36.5 112.5811,-54.5 224.5479,-54.5 224.5479,-36.5 112.5811,-36.5"/>
<text text-anchor="middle" x="168.5645" y="-42.5" font-family="Helvetica,sans-Serif" font-size="10.00" fill="#000000">CWallet::AddToWallet</text>
</a>
</g>
</g>
<!-- Node264&#45;&gt;Node265 -->
<g id="edge1" class="edge">
<title>Node264&#45;&gt;Node265</title>
<path fill="none" stroke="#191970" d="M86.8544,-45.5C95.0867,-45.5 103.6973,-45.5 112.1111,-45.5"/>
<polygon fill="#191970" stroke="#191970" points="86.6724,-42.0001 76.6724,-45.5 86.6724,-49.0001 86.6724,-42.0001"/>
</g>
<!-- Node266 -->
<g id="node3" class="node">
<title>Node266</title>
<g id="a_node3"><a xlink:href="group__map_wallet.html#gaee8f634287d083737471595f658da519" target="_top" xlink:title="Add a transaction to the wallet, or update it. ">
<polygon fill="#ffffff" stroke="#000000" points="260.5479,-55.5 260.5479,-73.5 431.4307,-73.5 431.4307,-55.5 260.5479,-55.5"/>
<text text-anchor="middle" x="345.9893" y="-61.5" font-family="Helvetica,sans-Serif" font-size="10.00" fill="#000000">CWallet::AddToWalletIfInvolvingMe</text>
</a>
</g>
</g>
<!-- Node265&#45;&gt;Node266 -->
<g id="edge2" class="edge">
<title>Node265&#45;&gt;Node266</title>
<path fill="none" stroke="#191970" d="M234.828,-52.596C243.5948,-53.5348 252.6747,-54.5072 261.6935,-55.473"/>
<polygon fill="#191970" stroke="#191970" points="235.0186,-49.0965 224.7028,-51.5117 234.2732,-56.0567 235.0186,-49.0965"/>
</g>
<!-- Node273 -->
<g id="node10" class="node">
<title>Node273</title>
<g id="a_node10"><a xlink:href="group___actions.html#ga2faeb244cf83bbae1304ae2f4acc7d93" target="_top" xlink:title="Call after CreateTransaction unless you want to abort. ">
<polygon fill="#ffffff" stroke="#000000" points="274.73,-18.5 274.73,-36.5 417.2485,-36.5 417.2485,-18.5 274.73,-18.5"/>
<text text-anchor="middle" x="345.9893" y="-24.5" font-family="Helvetica,sans-Serif" font-size="10.00" fill="#000000">CWallet::CommitTransaction</text>
</a>
</g>
</g>
<!-- Node265&#45;&gt;Node273 -->
<g id="edge9" class="edge">
<title>Node265&#45;&gt;Node273</title>
<path fill="none" stroke="#191970" d="M234.9167,-38.7685C247.863,-37.455 261.489,-36.0727 274.5907,-34.7435"/>
<polygon fill="#191970" stroke="#191970" points="234.2984,-35.3131 224.7028,-39.8047 235.005,-42.2774 234.2984,-35.3131"/>
</g>
<!-- Node267 -->
<g id="node4" class="node">
<title>Node267</title>
<g id="a_node4"><a xlink:href="group__map_wallet.html#ga09e75fcbc98be305e68e99495570687c" target="_top" xlink:title="CWallet::SyncTransaction">
<polygon fill="#ffffff" stroke="#000000" points="467.4307,-55.5 467.4307,-73.5 597.7373,-73.5 597.7373,-55.5 467.4307,-55.5"/>
<text text-anchor="middle" x="532.584" y="-61.5" font-family="Helvetica,sans-Serif" font-size="10.00" fill="#000000">CWallet::SyncTransaction</text>
</a>
</g>
</g>
<!-- Node266&#45;&gt;Node267 -->
<g id="edge3" class="edge">
<title>Node266&#45;&gt;Node267</title>
<path fill="none" stroke="#191970" d="M441.7679,-64.5C450.3986,-64.5 459.0009,-64.5 467.2792,-64.5"/>
<polygon fill="#191970" stroke="#191970" points="441.641,-61.0001 431.641,-64.5 441.6409,-68.0001 441.641,-61.0001"/>
</g>
<!-- Node268 -->
<g id="node5" class="node">
<title>Node268</title>
<g id="a_node5"><a xlink:href="group__map_wallet.html#gae44ec090ec7c87725fb22d33887ad1a7" target="_top" xlink:title="Notifies listeners of a transaction having been added to mempool. ">
<polygon fill="#ffffff" stroke="#000000" points="654.3843,-111.5 654.3843,-139.5 791.3755,-139.5 791.3755,-111.5 654.3843,-111.5"/>
<text text-anchor="start" x="662.3843" y="-127.5" font-family="Helvetica,sans-Serif" font-size="10.00" fill="#000000">CWallet::TransactionAdded</text>
<text text-anchor="middle" x="722.8799" y="-117.5" font-family="Helvetica,sans-Serif" font-size="10.00" fill="#000000">ToMempool</text>
</a>
</g>
</g>
<!-- Node267&#45;&gt;Node268 -->
<g id="edge4" class="edge">
<title>Node267&#45;&gt;Node268</title>
<path fill="none" stroke="#191970" d="M564.2866,-77.406C584.0709,-85.2105 610.1705,-95.0565 633.7373,-102.5 643.6438,-105.629 654.2666,-108.6518 664.6032,-111.4206"/>
<polygon fill="#191970" stroke="#191970" points="565.4278,-74.0933 554.8424,-73.6466 562.8389,-80.5969 565.4278,-74.0933"/>
</g>
<!-- Node269 -->
<g id="node6" class="node">
<title>Node269</title>
<g id="a_node6"><a xlink:href="group__map_wallet.html#ga8871fb58a2872900558d69d71baddfca" target="_top" xlink:title="Notifies listeners of a block being connected. ">
<polygon fill="#ffffff" stroke="#000000" points="658.3711,-74.5 658.3711,-92.5 787.3887,-92.5 787.3887,-74.5 658.3711,-74.5"/>
<text text-anchor="middle" x="722.8799" y="-80.5" font-family="Helvetica,sans-Serif" font-size="10.00" fill="#000000">CWallet::BlockConnected</text>
</a>
</g>
</g>
<!-- Node267&#45;&gt;Node269 -->
<g id="edge5" class="edge">
<title>Node267&#45;&gt;Node269</title>
<path fill="none" stroke="#191970" d="M607.9941,-72.0293C624.5594,-73.6832 641.9595,-75.4205 658.0648,-77.0286"/>
<polygon fill="#191970" stroke="#191970" points="608.1051,-68.523 597.8068,-71.0121 607.4096,-75.4884 608.1051,-68.523"/>
</g>
<!-- Node270 -->
<g id="node7" class="node">
<title>Node270</title>
<g id="a_node7"><a xlink:href="group__map_wallet.html#ga3aa53a08f7071c42c0ef82ea468d19ae" target="_top" xlink:title="Notifies listeners of a block being disconnected. ">
<polygon fill="#ffffff" stroke="#000000" points="652.2603,-37.5 652.2603,-55.5 793.4995,-55.5 793.4995,-37.5 652.2603,-37.5"/>
<text text-anchor="middle" x="722.8799" y="-43.5" font-family="Helvetica,sans-Serif" font-size="10.00" fill="#000000">CWallet::BlockDisconnected</text>
</a>
</g>
</g>
<!-- Node267&#45;&gt;Node270 -->
<g id="edge6" class="edge">
<title>Node267&#45;&gt;Node270</title>
<path fill="none" stroke="#191970" d="M607.8128,-57.3841C622.4438,-56.0002 637.7327,-54.554 652.2103,-53.1846"/>
<polygon fill="#191970" stroke="#191970" points="607.4327,-53.9044 597.8068,-58.3306 608.092,-60.8733 607.4327,-53.9044"/>
</g>
<!-- Node271 -->
<g id="node8" class="node">
<title>Node271</title>
<g id="a_node8"><a xlink:href="group__map_wallet.html#gaabb1db808d082d6df2b1e37cbf3f8f98" target="_top" xlink:title="Scan the block chain (starting in pindexStart) for transactions from or to us. ">
<polygon fill="#ffffff" stroke="#000000" points="633.7373,-.5 633.7373,-18.5 812.0225,-18.5 812.0225,-.5 633.7373,-.5"/>
<text text-anchor="middle" x="722.8799" y="-6.5" font-family="Helvetica,sans-Serif" font-size="10.00" fill="#000000">CWallet::ScanForWalletTransactions</text>
</a>
</g>
</g>
<!-- Node267&#45;&gt;Node271 -->
<g id="edge7" class="edge">
<title>Node267&#45;&gt;Node271</title>
<path fill="none" stroke="#191970" d="M564.6292,-51.8722C584.3502,-44.4082 610.2626,-35.1476 633.7373,-28.5 646.9831,-24.749 661.5213,-21.3531 674.9437,-18.5042"/>
<polygon fill="#191970" stroke="#191970" points="563.2928,-48.636 555.2053,-55.4802 565.7957,-55.1733 563.2928,-48.636"/>
</g>
<!-- Node272 -->
<g id="node9" class="node">
<title>Node272</title>
<g id="a_node9"><a xlink:href="rpcwallet_8cpp.html#a151535abf7394b299deb8d0a333de70b" target="_top" xlink:title="rescanblockchain">
<polygon fill="#ffffff" stroke="#000000" points="848.0225,-.5 848.0225,-18.5 941.2881,-18.5 941.2881,-.5 848.0225,-.5"/>
<text text-anchor="middle" x="894.6553" y="-6.5" font-family="Helvetica,sans-Serif" font-size="10.00" fill="#000000">rescanblockchain</text>
</a>
</g>
</g>
<!-- Node271&#45;&gt;Node272 -->
<g id="edge8" class="edge">
<title>Node271&#45;&gt;Node272</title>
<path fill="none" stroke="#191970" d="M822.1823,-9.5C831.1114,-9.5 839.8422,-9.5 847.9757,-9.5"/>
<polygon fill="#191970" stroke="#191970" points="822.038,-6.0001 812.038,-9.5 822.038,-13.0001 822.038,-6.0001"/>
</g>
</g>
</svg>
