<?xml version="1.0" encoding="UTF-8" standalone="no"?>
<!DOCTYPE svg PUBLIC "-//W3C//DTD SVG 1.1//EN"
 "http://www.w3.org/Graphics/SVG/1.1/DTD/svg11.dtd">
<!-- Generated by graphviz version 2.40.1 (20161225.0304)
 -->
<!-- Title: src/util.h Pages: 1 -->
<svg width="2305pt" height="202pt"
 viewBox="0.00 0.00 2305.32 202.00" xmlns="http://www.w3.org/2000/svg" xmlns:xlink="http://www.w3.org/1999/xlink">
<g id="graph0" class="graph" transform="scale(1 1) rotate(0) translate(4 198)">
<title>src/util.h</title>
<polygon fill="#ffffff" stroke="transparent" points="-4,4 -4,-198 2301.3223,-198 2301.3223,4 -4,4"/>
<!-- Node0 -->
<g id="node1" class="node">
<title>Node0</title>
<polygon fill="#bfbfbf" stroke="#000000" points="1662.5049,-175.5 1662.5049,-193.5 1715.7363,-193.5 1715.7363,-175.5 1662.5049,-175.5"/>
<text text-anchor="middle" x="1689.1206" y="-181.5" font-family="Helvetica,sans-Serif" font-size="10.00" fill="#000000">src/util.h</text>
</g>
<!-- Node1 -->
<g id="node2" class="node">
<title>Node1</title>
<g id="a_node2"><a xlink:href="compat_8h.html" target="_top" xlink:title="compat.h">
<polygon fill="#ffffff" stroke="#000000" points="610.5542,-115.5 610.5542,-133.5 667.687,-133.5 667.687,-115.5 610.5542,-115.5"/>
<text text-anchor="middle" x="639.1206" y="-121.5" font-family="Helvetica,sans-Serif" font-size="10.00" fill="#000000">compat.h</text>
</a>
</g>
</g>
<!-- Node0&#45;&gt;Node1 -->
<g id="edge1" class="edge">
<title>Node0&#45;&gt;Node1</title>
<path fill="none" stroke="#191970" d="M1662.3759,-182.9717C1519.6528,-174.8161 847.8837,-136.4293 678.1517,-126.7303"/>
<polygon fill="#191970" stroke="#191970" points="678.1176,-123.2228 667.9341,-126.1465 677.7182,-130.2114 678.1176,-123.2228"/>
</g>
<!-- Node17 -->
<g id="node18" class="node">
<title>Node17</title>
<g id="a_node18"><a xlink:href="fs_8h.html" target="_top" xlink:title="fs.h">
<polygon fill="#ffffff" stroke="#000000" points="1144.0615,-55.5 1144.0615,-73.5 1176.1797,-73.5 1176.1797,-55.5 1144.0615,-55.5"/>
<text text-anchor="middle" x="1160.1206" y="-61.5" font-family="Helvetica,sans-Serif" font-size="10.00" fill="#000000">fs.h</text>
</a>
</g>
</g>
<!-- Node0&#45;&gt;Node17 -->
<g id="edge17" class="edge">
<title>Node0&#45;&gt;Node17</title>
<path fill="none" stroke="#191970" d="M1662.2534,-183.6714C1564.0378,-180.4241 1228.2073,-167.3249 1190.1206,-139 1172.6824,-126.0313 1165.3578,-101.2391 1162.2957,-83.8275"/>
<polygon fill="#191970" stroke="#191970" points="1165.7203,-83.0513 1160.8356,-73.6497 1158.7913,-84.0454 1165.7203,-83.0513"/>
</g>
<!-- Node19 -->
<g id="node20" class="node">
<title>Node19</title>
<polygon fill="#ffffff" stroke="#bfbfbf" points="1331.894,-.5 1331.894,-18.5 1372.3472,-18.5 1372.3472,-.5 1331.894,-.5"/>
<text text-anchor="middle" x="1352.1206" y="-6.5" font-family="Helvetica,sans-Serif" font-size="10.00" fill="#000000">string</text>
</g>
<!-- Node0&#45;&gt;Node19 -->
<g id="edge53" class="edge">
<title>Node0&#45;&gt;Node19</title>
<path fill="none" stroke="#191970" d="M1662.4245,-182.8021C1570.7557,-176.3221 1271.7922,-149.5871 1223.1206,-74 1218.5489,-66.9001 1218.2426,-61.893 1223.1206,-55 1224.6239,-52.8757 1284.5787,-32.3183 1322.2141,-19.5736"/>
<polygon fill="#191970" stroke="#191970" points="1323.3589,-22.8812 1331.7112,-16.3628 1321.117,-16.2499 1323.3589,-22.8812"/>
</g>
<!-- Node22 -->
<g id="node23" class="node">
<title>Node22</title>
<g id="a_node23"><a xlink:href="logging_8h.html" target="_top" xlink:title="logging.h">
<polygon fill="#ffffff" stroke="#000000" points="1374.8252,-115.5 1374.8252,-133.5 1431.416,-133.5 1431.416,-115.5 1374.8252,-115.5"/>
<text text-anchor="middle" x="1403.1206" y="-121.5" font-family="Helvetica,sans-Serif" font-size="10.00" fill="#000000">logging.h</text>
</a>
</g>
</g>
<!-- Node0&#45;&gt;Node22 -->
<g id="edge22" class="edge">
<title>Node0&#45;&gt;Node22</title>
<path fill="none" stroke="#191970" d="M1662.427,-179.9522C1618.9815,-172.4017 1530.3622,-156.3793 1456.1206,-139 1451.3777,-137.8897 1446.4182,-136.6455 1441.5173,-135.3649"/>
<polygon fill="#191970" stroke="#191970" points="1442.1928,-131.9225 1431.6278,-132.7165 1440.382,-138.6843 1442.1928,-131.9225"/>
</g>
<!-- Node23 -->
<g id="node24" class="node">
<title>Node23</title>
<g id="a_node24"><a xlink:href="tinyformat_8h.html" target="_top" xlink:title="tinyformat.h">
<polygon fill="#ffffff" stroke="#000000" points="1543,-55.5 1543,-73.5 1611.2412,-73.5 1611.2412,-55.5 1543,-55.5"/>
<text text-anchor="middle" x="1577.1206" y="-61.5" font-family="Helvetica,sans-Serif" font-size="10.00" fill="#000000">tinyformat.h</text>
</a>
</g>
</g>
<!-- Node0&#45;&gt;Node23 -->
<g id="edge41" class="edge">
<title>Node0&#45;&gt;Node23</title>
<path fill="none" stroke="#191970" d="M1662.392,-178.0587C1641.3656,-171.6218 1612.9048,-159.6393 1596.1206,-139 1583.3934,-123.3496 1579.0714,-100.2144 1577.6662,-83.8855"/>
<polygon fill="#191970" stroke="#191970" points="1581.1573,-83.6277 1577.0919,-73.8439 1574.1687,-84.0274 1581.1573,-83.6277"/>
</g>
<!-- Node29 -->
<g id="node30" class="node">
<title>Node29</title>
<polygon fill="#ffffff" stroke="#bfbfbf" points="1380.394,-55.5 1380.394,-73.5 1425.8472,-73.5 1425.8472,-55.5 1380.394,-55.5"/>
<text text-anchor="middle" x="1403.1206" y="-61.5" font-family="Helvetica,sans-Serif" font-size="10.00" fill="#000000">atomic</text>
</g>
<!-- Node0&#45;&gt;Node29 -->
<g id="edge48" class="edge">
<title>Node0&#45;&gt;Node29</title>
<path fill="none" stroke="#191970" d="M1662.2834,-179.2685C1629.5274,-172.3657 1572.8524,-158.7358 1527.1206,-139 1488.6809,-122.4111 1447.7228,-95.836 1423.8262,-79.3148"/>
<polygon fill="#191970" stroke="#191970" points="1425.7432,-76.3844 1415.5438,-73.5169 1421.7288,-82.119 1425.7432,-76.3844"/>
</g>
<!-- Node33 -->
<g id="node34" class="node">
<title>Node33</title>
<polygon fill="#ffffff" stroke="#bfbfbf" points="1443.5049,-55.5 1443.5049,-73.5 1486.7363,-73.5 1486.7363,-55.5 1443.5049,-55.5"/>
<text text-anchor="middle" x="1465.1206" y="-61.5" font-family="Helvetica,sans-Serif" font-size="10.00" fill="#000000">vector</text>
</g>
<!-- Node0&#45;&gt;Node33 -->
<g id="edge56" class="edge">
<title>Node0&#45;&gt;Node33</title>
<path fill="none" stroke="#191970" d="M1663.6102,-175.4964C1640.9153,-167.1262 1607.0861,-153.756 1579.1206,-139 1544.9364,-120.9627 1507.9235,-95.582 1485.6343,-79.5919"/>
<polygon fill="#191970" stroke="#191970" points="1487.4582,-76.5913 1477.3059,-73.5612 1483.3527,-82.261 1487.4582,-76.5913"/>
</g>
<!-- Node34 -->
<g id="node35" class="node">
<title>Node34</title>
<g id="a_node35"><a xlink:href="sync_8h.html" target="_top" xlink:title="sync.h">
<polygon fill="#ffffff" stroke="#000000" points="1716.6699,-115.5 1716.6699,-133.5 1761.5713,-133.5 1761.5713,-115.5 1716.6699,-115.5"/>
<text text-anchor="middle" x="1739.1206" y="-121.5" font-family="Helvetica,sans-Serif" font-size="10.00" fill="#000000">sync.h</text>
</a>
</g>
</g>
<!-- Node0&#45;&gt;Node34 -->
<g id="edge36" class="edge">
<title>Node0&#45;&gt;Node34</title>
<path fill="none" stroke="#191970" d="M1696.7145,-175.3873C1704.2034,-166.4007 1715.829,-152.4499 1725.015,-141.4267"/>
<polygon fill="#191970" stroke="#191970" points="1727.7421,-143.6214 1731.4552,-133.6985 1722.3646,-139.14 1727.7421,-143.6214"/>
</g>
<!-- Node38 -->
<g id="node39" class="node">
<title>Node38</title>
<g id="a_node39"><a xlink:href="utilmemory_8h.html" target="_top" xlink:title="utilmemory.h">
<polygon fill="#ffffff" stroke="#000000" points="1779.8711,-115.5 1779.8711,-133.5 1852.3701,-133.5 1852.3701,-115.5 1779.8711,-115.5"/>
<text text-anchor="middle" x="1816.1206" y="-121.5" font-family="Helvetica,sans-Serif" font-size="10.00" fill="#000000">utilmemory.h</text>
</a>
</g>
</g>
<!-- Node0&#45;&gt;Node38 -->
<g id="edge42" class="edge">
<title>Node0&#45;&gt;Node38</title>
<path fill="none" stroke="#191970" d="M1708.4092,-175.3873C1729.6047,-165.3737 1763.8466,-149.1964 1788.0244,-137.7738"/>
<polygon fill="#191970" stroke="#191970" points="1789.52,-140.9382 1797.0666,-133.5019 1786.5298,-134.609 1789.52,-140.9382"/>
</g>
<!-- Node40 -->
<g id="node41" class="node">
<title>Node40</title>
<polygon fill="#ffffff" stroke="#bfbfbf" points="2099.729,-55.5 2099.729,-73.5 2138.5122,-73.5 2138.5122,-55.5 2099.729,-55.5"/>
<text text-anchor="middle" x="2119.1206" y="-61.5" font-family="Helvetica,sans-Serif" font-size="10.00" fill="#000000">utility</text>
</g>
<!-- Node0&#45;&gt;Node40 -->
<g id="edge55" class="edge">
<title>Node0&#45;&gt;Node40</title>
<path fill="none" stroke="#191970" d="M1715.8989,-180.7593C1750.7367,-175.1583 1812.8487,-162.6307 1861.1206,-139 1880.2021,-129.659 1879.7098,-118.6359 1899.1206,-110 1975.5783,-75.9836 2004.9952,-94.5378 2089.8622,-73.9826"/>
<polygon fill="#191970" stroke="#191970" points="2090.8131,-77.3523 2099.6457,-71.5012 2089.0922,-70.5671 2090.8131,-77.3523"/>
</g>
<!-- Node41 -->
<g id="node42" class="node">
<title>Node41</title>
<g id="a_node42"><a xlink:href="utiltime_8h.html" target="_top" xlink:title="utiltime.h">
<polygon fill="#ffffff" stroke="#000000" points="1605.1133,-115.5 1605.1133,-133.5 1661.1279,-133.5 1661.1279,-115.5 1605.1133,-115.5"/>
<text text-anchor="middle" x="1633.1206" y="-121.5" font-family="Helvetica,sans-Serif" font-size="10.00" fill="#000000">utiltime.h</text>
</a>
</g>
</g>
<!-- Node0&#45;&gt;Node41 -->
<g id="edge45" class="edge">
<title>Node0&#45;&gt;Node41</title>
<path fill="none" stroke="#191970" d="M1680.6154,-175.3873C1672.1457,-166.3126 1658.9515,-152.1759 1648.617,-141.1033"/>
<polygon fill="#191970" stroke="#191970" points="1651.0878,-138.6209 1641.7058,-133.6985 1645.9704,-143.3972 1651.0878,-138.6209"/>
</g>
<!-- Node42 -->
<g id="node43" class="node">
<title>Node42</title>
<polygon fill="#ffffff" stroke="#bfbfbf" points="1691,-55.5 1691,-73.5 1739.2412,-73.5 1739.2412,-55.5 1691,-55.5"/>
<text text-anchor="middle" x="1715.1206" y="-61.5" font-family="Helvetica,sans-Serif" font-size="10.00" fill="#000000">stdint.h</text>
</g>
<!-- Node0&#45;&gt;Node42 -->
<g id="edge52" class="edge">
<title>Node0&#45;&gt;Node42</title>
<path fill="none" stroke="#191970" d="M1691.0748,-175.4805C1695.2909,-156.0216 1705.3181,-109.7423 1711.0028,-83.505"/>
<polygon fill="#191970" stroke="#191970" points="1714.4467,-84.1386 1713.1437,-73.6242 1707.6055,-82.6562 1714.4467,-84.1386"/>
</g>
<!-- Node43 -->
<g id="node44" class="node">
<title>Node43</title>
<polygon fill="#ffffff" stroke="#bfbfbf" points="1907.7168,-115.5 1907.7168,-133.5 1966.5244,-133.5 1966.5244,-115.5 1907.7168,-115.5"/>
<text text-anchor="middle" x="1937.1206" y="-121.5" font-family="Helvetica,sans-Serif" font-size="10.00" fill="#000000">exception</text>
</g>
<!-- Node0&#45;&gt;Node43 -->
<g id="edge49" class="edge">
<title>Node0&#45;&gt;Node43</title>
<path fill="none" stroke="#191970" d="M1715.8823,-179.509C1755.2396,-171.9555 1830.9086,-156.6186 1894.1206,-139 1896.7341,-138.2716 1899.4225,-137.4767 1902.1185,-136.6465"/>
<polygon fill="#191970" stroke="#191970" points="1903.3424,-139.9296 1911.7941,-133.5406 1901.2029,-133.2646 1903.3424,-139.9296"/>
</g>
<!-- Node44 -->
<g id="node45" class="node">
<title>Node44</title>
<polygon fill="#ffffff" stroke="#bfbfbf" points="1984.394,-115.5 1984.394,-133.5 2019.8472,-133.5 2019.8472,-115.5 1984.394,-115.5"/>
<text text-anchor="middle" x="2002.1206" y="-121.5" font-family="Helvetica,sans-Serif" font-size="10.00" fill="#000000">map</text>
</g>
<!-- Node0&#45;&gt;Node44 -->
<g id="edge50" class="edge">
<title>Node0&#45;&gt;Node44</title>
<path fill="none" stroke="#191970" d="M1715.8525,-183.224C1767.3108,-180.1247 1883.1747,-170.012 1975.1206,-139 1976.1541,-138.6514 1977.1953,-138.2657 1978.2362,-137.8509"/>
<polygon fill="#191970" stroke="#191970" points="1979.8201,-140.974 1987.3862,-133.5574 1976.8465,-134.6369 1979.8201,-140.974"/>
</g>
<!-- Node45 -->
<g id="node46" class="node">
<title>Node45</title>
<polygon fill="#ffffff" stroke="#bfbfbf" points="2037.4507,-115.5 2037.4507,-133.5 2066.7905,-133.5 2066.7905,-115.5 2037.4507,-115.5"/>
<text text-anchor="middle" x="2052.1206" y="-121.5" font-family="Helvetica,sans-Serif" font-size="10.00" fill="#000000">set</text>
</g>
<!-- Node0&#45;&gt;Node45 -->
<g id="edge51" class="edge">
<title>Node0&#45;&gt;Node45</title>
<path fill="none" stroke="#191970" d="M1715.8563,-182.4049C1785.5375,-176.7093 1971.3121,-159.9555 2029.1206,-139 2029.7031,-138.7889 2030.2863,-138.5613 2030.8686,-138.3194"/>
<polygon fill="#191970" stroke="#191970" points="2032.7648,-141.2761 2039.9727,-133.5111 2029.4957,-135.0864 2032.7648,-141.2761"/>
</g>
<!-- Node46 -->
<g id="node47" class="node">
<title>Node46</title>
<polygon fill="#ffffff" stroke="#bfbfbf" points="2084.8745,-115.5 2084.8745,-133.5 2165.3667,-133.5 2165.3667,-115.5 2084.8745,-115.5"/>
<text text-anchor="middle" x="2125.1206" y="-121.5" font-family="Helvetica,sans-Serif" font-size="10.00" fill="#000000">unordered_set</text>
</g>
<!-- Node0&#45;&gt;Node46 -->
<g id="edge54" class="edge">
<title>Node0&#45;&gt;Node46</title>
<path fill="none" stroke="#191970" d="M1716.1156,-182.9168C1779.5021,-178.8548 1942.5871,-166.3983 2076.1206,-139 2079.9702,-138.2101 2083.9548,-137.2595 2087.9122,-136.2273"/>
<polygon fill="#191970" stroke="#191970" points="2088.9012,-139.5852 2097.6014,-133.5389 2087.0296,-132.84 2088.9012,-139.5852"/>
</g>
<!-- Node47 -->
<g id="node48" class="node">
<title>Node47</title>
<polygon fill="#ffffff" stroke="#bfbfbf" points="2182.9189,-110.5 2182.9189,-138.5 2297.3223,-138.5 2297.3223,-110.5 2182.9189,-110.5"/>
<text text-anchor="start" x="2190.9189" y="-126.5" font-family="Helvetica,sans-Serif" font-size="10.00" fill="#000000">boost/thread/condition</text>
<text text-anchor="middle" x="2240.1206" y="-116.5" font-family="Helvetica,sans-Serif" font-size="10.00" fill="#000000">_variable.hpp</text>
</g>
<!-- Node0&#45;&gt;Node47 -->
<g id="edge57" class="edge">
<title>Node0&#45;&gt;Node47</title>
<path fill="none" stroke="#191970" d="M1715.8129,-183.1491C1787.9504,-179.2546 1992.9397,-166.5763 2172.7102,-139.1028"/>
<polygon fill="#191970" stroke="#191970" points="2173.2592,-142.5596 2182.6062,-137.5713 2172.1886,-135.6419 2173.2592,-142.5596"/>
</g>
<!-- Node2 -->
<g id="node3" class="node">
<title>Node2</title>
<polygon fill="#ffffff" stroke="#bfbfbf" points="916.0542,-55.5 916.0542,-73.5 978.187,-73.5 978.187,-55.5 916.0542,-55.5"/>
<text text-anchor="middle" x="947.1206" y="-61.5" font-family="Helvetica,sans-Serif" font-size="10.00" fill="#000000">type_traits</text>
</g>
<!-- Node1&#45;&gt;Node2 -->
<g id="edge2" class="edge">
<title>Node1&#45;&gt;Node2</title>
<path fill="none" stroke="#191970" d="M667.7662,-119.5575C715.2077,-111.2738 813.2855,-93.7342 905.8995,-74.1895"/>
<polygon fill="#191970" stroke="#191970" points="906.6539,-77.6075 915.7092,-72.1073 905.2003,-70.76 906.6539,-77.6075"/>
</g>
<!-- Node3 -->
<g id="node4" class="node">
<title>Node3</title>
<polygon fill="#ffffff" stroke="#bfbfbf" points="995.7808,-55.5 995.7808,-73.5 1038.4604,-73.5 1038.4604,-55.5 995.7808,-55.5"/>
<text text-anchor="middle" x="1017.1206" y="-61.5" font-family="Helvetica,sans-Serif" font-size="10.00" fill="#000000">fcntl.h</text>
</g>
<!-- Node1&#45;&gt;Node3 -->
<g id="edge3" class="edge">
<title>Node1&#45;&gt;Node3</title>
<path fill="none" stroke="#191970" d="M667.8295,-121.9289C726.1545,-116.3666 862.7376,-101.6159 985.6521,-74.0423"/>
<polygon fill="#191970" stroke="#191970" points="986.6339,-77.4084 995.6062,-71.7738 985.0785,-70.5833 986.6339,-77.4084"/>
</g>
<!-- Node4 -->
<g id="node5" class="node">
<title>Node4</title>
<polygon fill="#ffffff" stroke="#bfbfbf" points="1056.1699,-55.5 1056.1699,-73.5 1126.0713,-73.5 1126.0713,-55.5 1056.1699,-55.5"/>
<text text-anchor="middle" x="1091.1206" y="-61.5" font-family="Helvetica,sans-Serif" font-size="10.00" fill="#000000">sys/mman.h</text>
</g>
<!-- Node1&#45;&gt;Node4 -->
<g id="edge4" class="edge">
<title>Node1&#45;&gt;Node4</title>
<path fill="none" stroke="#191970" d="M667.9395,-121.8284C733.3216,-115.5766 898.0539,-98.7524 1045.9446,-74.0685"/>
<polygon fill="#191970" stroke="#191970" points="1046.8319,-77.4684 1056.1108,-72.3546 1045.6681,-70.5658 1046.8319,-77.4684"/>
</g>
<!-- Node5 -->
<g id="node6" class="node">
<title>Node5</title>
<polygon fill="#ffffff" stroke="#bfbfbf" points="0,-55.5 0,-73.5 68.2412,-73.5 68.2412,-55.5 0,-55.5"/>
<text text-anchor="middle" x="34.1206" y="-61.5" font-family="Helvetica,sans-Serif" font-size="10.00" fill="#000000">sys/select.h</text>
</g>
<!-- Node1&#45;&gt;Node5 -->
<g id="edge5" class="edge">
<title>Node1&#45;&gt;Node5</title>
<path fill="none" stroke="#191970" d="M610.3048,-123.2133C528.4775,-119.2844 287.6244,-105.815 78.2589,-73.9967"/>
<polygon fill="#191970" stroke="#191970" points="78.7294,-70.528 68.3137,-72.4677 77.6656,-77.4467 78.7294,-70.528"/>
</g>
<!-- Node6 -->
<g id="node7" class="node">
<title>Node6</title>
<polygon fill="#ffffff" stroke="#bfbfbf" points="86.6108,-55.5 86.6108,-73.5 157.6304,-73.5 157.6304,-55.5 86.6108,-55.5"/>
<text text-anchor="middle" x="122.1206" y="-61.5" font-family="Helvetica,sans-Serif" font-size="10.00" fill="#000000">sys/socket.h</text>
</g>
<!-- Node1&#45;&gt;Node6 -->
<g id="edge6" class="edge">
<title>Node1&#45;&gt;Node6</title>
<path fill="none" stroke="#191970" d="M610.5231,-122.4574C538.1716,-117.0741 341.8515,-101.1246 168.0183,-73.9928"/>
<polygon fill="#191970" stroke="#191970" points="168.3444,-70.501 157.9211,-72.4 167.2536,-77.4155 168.3444,-70.501"/>
</g>
<!-- Node7 -->
<g id="node8" class="node">
<title>Node7</title>
<polygon fill="#ffffff" stroke="#bfbfbf" points="176.1108,-55.5 176.1108,-73.5 242.1304,-73.5 242.1304,-55.5 176.1108,-55.5"/>
<text text-anchor="middle" x="209.1206" y="-61.5" font-family="Helvetica,sans-Serif" font-size="10.00" fill="#000000">sys/types.h</text>
</g>
<!-- Node1&#45;&gt;Node7 -->
<g id="edge7" class="edge">
<title>Node1&#45;&gt;Node7</title>
<path fill="none" stroke="#191970" d="M610.2623,-121.6724C547.1642,-115.2921 392.0462,-98.5305 252.5496,-74.123"/>
<polygon fill="#191970" stroke="#191970" points="252.991,-70.6468 242.5343,-72.3525 251.7723,-77.5399 252.991,-70.6468"/>
</g>
<!-- Node8 -->
<g id="node9" class="node">
<title>Node8</title>
<polygon fill="#ffffff" stroke="#bfbfbf" points="260.1108,-55.5 260.1108,-73.5 306.1304,-73.5 306.1304,-55.5 260.1108,-55.5"/>
<text text-anchor="middle" x="283.1206" y="-61.5" font-family="Helvetica,sans-Serif" font-size="10.00" fill="#000000">net/if.h</text>
</g>
<!-- Node1&#45;&gt;Node8 -->
<g id="edge8" class="edge">
<title>Node1&#45;&gt;Node8</title>
<path fill="none" stroke="#191970" d="M610.272,-121.32C554.9861,-114.945 430.1957,-99.2004 316.3671,-74.0411"/>
<polygon fill="#191970" stroke="#191970" points="316.9676,-70.5889 306.4442,-71.8172 315.4367,-77.4194 316.9676,-70.5889"/>
</g>
<!-- Node9 -->
<g id="node10" class="node">
<title>Node9</title>
<polygon fill="#ffffff" stroke="#bfbfbf" points="323.6577,-55.5 323.6577,-73.5 388.5835,-73.5 388.5835,-55.5 323.6577,-55.5"/>
<text text-anchor="middle" x="356.1206" y="-61.5" font-family="Helvetica,sans-Serif" font-size="10.00" fill="#000000">netinet/in.h</text>
</g>
<!-- Node1&#45;&gt;Node9 -->
<g id="edge9" class="edge">
<title>Node1&#45;&gt;Node9</title>
<path fill="none" stroke="#191970" d="M610.5234,-118.6609C567.0791,-109.757 481.6019,-92.1089 398.5228,-74.0608"/>
<polygon fill="#191970" stroke="#191970" points="399.1842,-70.6229 388.6686,-71.9157 397.6953,-77.4627 399.1842,-70.6229"/>
</g>
<!-- Node10 -->
<g id="node11" class="node">
<title>Node10</title>
<polygon fill="#ffffff" stroke="#bfbfbf" points="406.8794,-55.5 406.8794,-73.5 477.3618,-73.5 477.3618,-55.5 406.8794,-55.5"/>
<text text-anchor="middle" x="442.1206" y="-61.5" font-family="Helvetica,sans-Serif" font-size="10.00" fill="#000000">netinet/tcp.h</text>
</g>
<!-- Node1&#45;&gt;Node10 -->
<g id="edge10" class="edge">
<title>Node1&#45;&gt;Node10</title>
<path fill="none" stroke="#191970" d="M610.4751,-115.7755C576.483,-105.4226 519.6238,-88.105 481.5073,-76.496"/>
<polygon fill="#191970" stroke="#191970" points="482.3535,-73.095 471.7676,-73.5295 480.314,-79.7913 482.3535,-73.095"/>
</g>
<!-- Node11 -->
<g id="node12" class="node">
<title>Node11</title>
<polygon fill="#ffffff" stroke="#bfbfbf" points="495.4927,-55.5 495.4927,-73.5 558.7485,-73.5 558.7485,-55.5 495.4927,-55.5"/>
<text text-anchor="middle" x="527.1206" y="-61.5" font-family="Helvetica,sans-Serif" font-size="10.00" fill="#000000">arpa/inet.h</text>
</g>
<!-- Node1&#45;&gt;Node11 -->
<g id="edge11" class="edge">
<title>Node1&#45;&gt;Node11</title>
<path fill="none" stroke="#191970" d="M622.1102,-115.3873C603.6662,-105.5066 574.0202,-89.6248 552.7521,-78.2312"/>
<polygon fill="#191970" stroke="#191970" points="554.3917,-75.139 543.9241,-73.5019 551.0861,-81.3093 554.3917,-75.139"/>
</g>
<!-- Node12 -->
<g id="node13" class="node">
<title>Node12</title>
<polygon fill="#ffffff" stroke="#bfbfbf" points="576.9434,-55.5 576.9434,-73.5 631.2979,-73.5 631.2979,-55.5 576.9434,-55.5"/>
<text text-anchor="middle" x="604.1206" y="-61.5" font-family="Helvetica,sans-Serif" font-size="10.00" fill="#000000">ifaddrs.h</text>
</g>
<!-- Node1&#45;&gt;Node12 -->
<g id="edge12" class="edge">
<title>Node1&#45;&gt;Node12</title>
<path fill="none" stroke="#191970" d="M633.8049,-115.3873C628.7169,-106.665 620.9009,-93.2663 614.5662,-82.4067"/>
<polygon fill="#191970" stroke="#191970" points="617.5484,-80.5727 609.4864,-73.6985 611.5019,-84.0998 617.5484,-80.5727"/>
</g>
<!-- Node13 -->
<g id="node14" class="node">
<title>Node13</title>
<polygon fill="#ffffff" stroke="#bfbfbf" points="649.564,-55.5 649.564,-73.5 696.6772,-73.5 696.6772,-55.5 649.564,-55.5"/>
<text text-anchor="middle" x="673.1206" y="-61.5" font-family="Helvetica,sans-Serif" font-size="10.00" fill="#000000">limits.h</text>
</g>
<!-- Node1&#45;&gt;Node13 -->
<g id="edge13" class="edge">
<title>Node1&#45;&gt;Node13</title>
<path fill="none" stroke="#191970" d="M644.2845,-115.3873C649.2271,-106.665 656.8197,-93.2663 662.9735,-82.4067"/>
<polygon fill="#191970" stroke="#191970" points="666.023,-84.1243 667.9081,-73.6985 659.9329,-80.6731 666.023,-84.1243"/>
</g>
<!-- Node14 -->
<g id="node15" class="node">
<title>Node14</title>
<polygon fill="#ffffff" stroke="#bfbfbf" points="714.4385,-55.5 714.4385,-73.5 763.8027,-73.5 763.8027,-55.5 714.4385,-55.5"/>
<text text-anchor="middle" x="739.1206" y="-61.5" font-family="Helvetica,sans-Serif" font-size="10.00" fill="#000000">netdb.h</text>
</g>
<!-- Node1&#45;&gt;Node14 -->
<g id="edge14" class="edge">
<title>Node1&#45;&gt;Node14</title>
<path fill="none" stroke="#191970" d="M654.3085,-115.3873C670.5547,-105.6395 696.5356,-90.051 715.4649,-78.6934"/>
<polygon fill="#191970" stroke="#191970" points="717.3433,-81.6481 724.1175,-73.5019 713.7418,-75.6456 717.3433,-81.6481"/>
</g>
<!-- Node15 -->
<g id="node16" class="node">
<title>Node15</title>
<polygon fill="#ffffff" stroke="#bfbfbf" points="781.6084,-55.5 781.6084,-73.5 832.6328,-73.5 832.6328,-55.5 781.6084,-55.5"/>
<text text-anchor="middle" x="807.1206" y="-61.5" font-family="Helvetica,sans-Serif" font-size="10.00" fill="#000000">unistd.h</text>
</g>
<!-- Node1&#45;&gt;Node15 -->
<g id="edge15" class="edge">
<title>Node1&#45;&gt;Node15</title>
<path fill="none" stroke="#191970" d="M664.6362,-115.3873C693.4187,-105.1078 740.388,-88.3331 772.4726,-76.8743"/>
<polygon fill="#191970" stroke="#191970" points="773.6751,-80.1614 781.9154,-73.5019 771.3207,-73.5692 773.6751,-80.1614"/>
</g>
<!-- Node16 -->
<g id="node17" class="node">
<title>Node16</title>
<polygon fill="#ffffff" stroke="#bfbfbf" points="850.2783,-55.5 850.2783,-73.5 897.9629,-73.5 897.9629,-55.5 850.2783,-55.5"/>
<text text-anchor="middle" x="874.1206" y="-61.5" font-family="Helvetica,sans-Serif" font-size="10.00" fill="#000000">errno.h</text>
</g>
<!-- Node1&#45;&gt;Node16 -->
<g id="edge16" class="edge">
<title>Node1&#45;&gt;Node16</title>
<path fill="none" stroke="#191970" d="M667.8009,-117.793C705.3682,-108.9149 773.5028,-92.496 840.2126,-74.4482"/>
<polygon fill="#191970" stroke="#191970" points="841.3105,-77.7768 850.0409,-71.7743 839.4728,-71.0223 841.3105,-77.7768"/>
</g>
<!-- Node18 -->
<g id="node19" class="node">
<title>Node18</title>
<polygon fill="#ffffff" stroke="#bfbfbf" points="982.3892,-.5 982.3892,-18.5 1027.8521,-18.5 1027.8521,-.5 982.3892,-.5"/>
<text text-anchor="middle" x="1005.1206" y="-6.5" font-family="Helvetica,sans-Serif" font-size="10.00" fill="#000000">stdio.h</text>
</g>
<!-- Node17&#45;&gt;Node18 -->
<g id="edge18" class="edge">
<title>Node17&#45;&gt;Node18</title>
<path fill="none" stroke="#191970" d="M1144.006,-58.3048C1141.0554,-57.1908 1137.9993,-56.0505 1135.1206,-55 1102.0562,-42.9339 1064.0362,-29.7009 1037.6905,-20.632"/>
<polygon fill="#191970" stroke="#191970" points="1038.7942,-17.3104 1028.1995,-17.3712 1036.5197,-23.9306 1038.7942,-17.3104"/>
</g>
<!-- Node17&#45;&gt;Node19 -->
<g id="edge19" class="edge">
<title>Node17&#45;&gt;Node19</title>
<path fill="none" stroke="#191970" d="M1176.2744,-59.2466C1180.7476,-57.8296 1185.6124,-56.3233 1190.1206,-55 1245.896,-38.6283 1262.755,-36.7027 1321.9972,-19.2228"/>
<polygon fill="#191970" stroke="#191970" points="1323.2964,-22.4879 1331.8815,-16.2793 1321.2985,-15.7791 1323.2964,-22.4879"/>
</g>
<!-- Node20 -->
<g id="node21" class="node">
<title>Node20</title>
<polygon fill="#ffffff" stroke="#bfbfbf" points="1045.542,-.5 1045.542,-18.5 1152.6992,-18.5 1152.6992,-.5 1045.542,-.5"/>
<text text-anchor="middle" x="1099.1206" y="-6.5" font-family="Helvetica,sans-Serif" font-size="10.00" fill="#000000">boost/filesystem.hpp</text>
</g>
<!-- Node17&#45;&gt;Node20 -->
<g id="edge20" class="edge">
<title>Node17&#45;&gt;Node20</title>
<path fill="none" stroke="#191970" d="M1150.0477,-55.4179C1141.0951,-47.3458 1127.7968,-35.3556 1117.0343,-25.6517"/>
<polygon fill="#191970" stroke="#191970" points="1119.183,-22.8764 1109.4124,-18.7795 1114.4955,-28.0753 1119.183,-22.8764"/>
</g>
<!-- Node21 -->
<g id="node22" class="node">
<title>Node21</title>
<polygon fill="#ffffff" stroke="#bfbfbf" points="1170.4829,-.5 1170.4829,-18.5 1313.7583,-18.5 1313.7583,-.5 1170.4829,-.5"/>
<text text-anchor="middle" x="1242.1206" y="-6.5" font-family="Helvetica,sans-Serif" font-size="10.00" fill="#000000">boost/filesystem/fstream.hpp</text>
</g>
<!-- Node17&#45;&gt;Node21 -->
<g id="edge21" class="edge">
<title>Node17&#45;&gt;Node21</title>
<path fill="none" stroke="#191970" d="M1173.6612,-55.4179C1186.2432,-46.9788 1205.2102,-34.257 1219.9917,-24.3426"/>
<polygon fill="#191970" stroke="#191970" points="1222.2046,-27.0727 1228.5599,-18.5956 1218.3053,-21.2593 1222.2046,-27.0727"/>
</g>
<!-- Node22&#45;&gt;Node17 -->
<g id="edge23" class="edge">
<title>Node22&#45;&gt;Node17</title>
<path fill="none" stroke="#191970" d="M1374.7698,-117.4998C1327.2648,-105.7702 1232.28,-82.3171 1186.2812,-70.9594"/>
<polygon fill="#191970" stroke="#191970" points="1187.0167,-67.536 1176.4693,-68.5367 1185.3387,-74.3319 1187.0167,-67.536"/>
</g>
<!-- Node22&#45;&gt;Node19 -->
<g id="edge34" class="edge">
<title>Node22&#45;&gt;Node19</title>
<path fill="none" stroke="#191970" d="M1396.1539,-115.2683C1389.0336,-105.4692 1378.0634,-89.3143 1371.1206,-74 1364.4177,-59.2148 1359.3905,-41.4599 1356.1963,-28.3245"/>
<polygon fill="#191970" stroke="#191970" points="1359.5994,-27.5055 1353.9478,-18.5439 1352.7774,-29.0739 1359.5994,-27.5055"/>
</g>
<!-- Node22&#45;&gt;Node23 -->
<g id="edge24" class="edge">
<title>Node22&#45;&gt;Node23</title>
<path fill="none" stroke="#191970" d="M1429.5475,-115.3873C1459.3579,-105.1078 1508.0047,-88.3331 1541.2351,-76.8743"/>
<polygon fill="#191970" stroke="#191970" points="1542.7024,-80.0707 1551.0152,-73.5019 1540.4204,-73.453 1542.7024,-80.0707"/>
</g>
<!-- Node22&#45;&gt;Node29 -->
<g id="edge30" class="edge">
<title>Node22&#45;&gt;Node29</title>
<path fill="none" stroke="#191970" d="M1403.1206,-115.3873C1403.1206,-107.0174 1403.1206,-94.3414 1403.1206,-83.735"/>
<polygon fill="#191970" stroke="#191970" points="1406.6207,-83.6984 1403.1206,-73.6985 1399.6207,-83.6985 1406.6207,-83.6984"/>
</g>
<!-- Node30 -->
<g id="node31" class="node">
<title>Node30</title>
<polygon fill="#ffffff" stroke="#bfbfbf" points="1231.6699,-55.5 1231.6699,-73.5 1276.5713,-73.5 1276.5713,-55.5 1231.6699,-55.5"/>
<text text-anchor="middle" x="1254.1206" y="-61.5" font-family="Helvetica,sans-Serif" font-size="10.00" fill="#000000">cstdint</text>
</g>
<!-- Node22&#45;&gt;Node30 -->
<g id="edge31" class="edge">
<title>Node22&#45;&gt;Node30</title>
<path fill="none" stroke="#191970" d="M1380.4907,-115.3873C1355.2935,-105.2407 1314.3807,-88.7658 1285.9606,-77.3215"/>
<polygon fill="#191970" stroke="#191970" points="1287.0588,-73.9906 1276.4753,-73.5019 1284.444,-80.484 1287.0588,-73.9906"/>
</g>
<!-- Node31 -->
<g id="node32" class="node">
<title>Node31</title>
<polygon fill="#ffffff" stroke="#bfbfbf" points="1294.6206,-55.5 1294.6206,-73.5 1323.6206,-73.5 1323.6206,-55.5 1294.6206,-55.5"/>
<text text-anchor="middle" x="1308.7314" y="-61.5" font-family="Helvetica,sans-Serif" font-size="10.00" fill="#000000">list</text>
</g>
<!-- Node22&#45;&gt;Node31 -->
<g id="edge32" class="edge">
<title>Node22&#45;&gt;Node31</title>
<path fill="none" stroke="#191970" d="M1388.844,-115.3873C1373.7114,-105.7281 1349.5938,-90.334 1331.8439,-79.0042"/>
<polygon fill="#191970" stroke="#191970" points="1333.5359,-75.932 1323.2235,-73.5019 1329.7696,-81.8325 1333.5359,-75.932"/>
</g>
<!-- Node32 -->
<g id="node33" class="node">
<title>Node32</title>
<polygon fill="#ffffff" stroke="#bfbfbf" points="1629.5049,-55.5 1629.5049,-73.5 1672.7363,-73.5 1672.7363,-55.5 1629.5049,-55.5"/>
<text text-anchor="middle" x="1651.1206" y="-61.5" font-family="Helvetica,sans-Serif" font-size="10.00" fill="#000000">mutex</text>
</g>
<!-- Node22&#45;&gt;Node32 -->
<g id="edge33" class="edge">
<title>Node22&#45;&gt;Node32</title>
<path fill="none" stroke="#191970" d="M1431.7119,-118.5023C1471.5755,-109.9981 1546.297,-93.5446 1619.6295,-73.9871"/>
<polygon fill="#191970" stroke="#191970" points="1620.747,-77.311 1629.4952,-71.3345 1618.9294,-70.5511 1620.747,-77.311"/>
</g>
<!-- Node22&#45;&gt;Node33 -->
<g id="edge35" class="edge">
<title>Node22&#45;&gt;Node33</title>
<path fill="none" stroke="#191970" d="M1412.5371,-115.3873C1422.0053,-106.2245 1436.8063,-91.9009 1448.2962,-80.7817"/>
<polygon fill="#191970" stroke="#191970" points="1450.8635,-83.1678 1455.6155,-73.6985 1445.9955,-78.1376 1450.8635,-83.1678"/>
</g>
<!-- Node24 -->
<g id="node25" class="node">
<title>Node24</title>
<polygon fill="#ffffff" stroke="#bfbfbf" points="1624.5566,-.5 1624.5566,-18.5 1681.6846,-18.5 1681.6846,-.5 1624.5566,-.5"/>
<text text-anchor="middle" x="1653.1206" y="-6.5" font-family="Helvetica,sans-Serif" font-size="10.00" fill="#000000">algorithm</text>
</g>
<!-- Node23&#45;&gt;Node24 -->
<g id="edge25" class="edge">
<title>Node23&#45;&gt;Node24</title>
<path fill="none" stroke="#191970" d="M1589.6705,-55.4179C1601.2218,-47.0584 1618.5798,-34.4966 1632.2221,-24.6239"/>
<polygon fill="#191970" stroke="#191970" points="1634.5029,-27.2938 1640.5521,-18.5956 1630.399,-21.6229 1634.5029,-27.2938"/>
</g>
<!-- Node25 -->
<g id="node26" class="node">
<title>Node25</title>
<polygon fill="#ffffff" stroke="#bfbfbf" points="1700.0049,-.5 1700.0049,-18.5 1748.2363,-18.5 1748.2363,-.5 1700.0049,-.5"/>
<text text-anchor="middle" x="1724.1206" y="-6.5" font-family="Helvetica,sans-Serif" font-size="10.00" fill="#000000">cassert</text>
</g>
<!-- Node23&#45;&gt;Node25 -->
<g id="edge26" class="edge">
<title>Node23&#45;&gt;Node25</title>
<path fill="none" stroke="#191970" d="M1601.3947,-55.4179C1625.6524,-46.3419 1663.1495,-32.3123 1690.3138,-22.1488"/>
<polygon fill="#191970" stroke="#191970" points="1691.6711,-25.378 1699.8105,-18.5956 1689.2181,-18.8219 1691.6711,-25.378"/>
</g>
<!-- Node26 -->
<g id="node27" class="node">
<title>Node26</title>
<polygon fill="#ffffff" stroke="#bfbfbf" points="1405.9482,-.5 1405.9482,-18.5 1460.293,-18.5 1460.293,-.5 1405.9482,-.5"/>
<text text-anchor="middle" x="1433.1206" y="-6.5" font-family="Helvetica,sans-Serif" font-size="10.00" fill="#000000">iostream</text>
</g>
<!-- Node23&#45;&gt;Node26 -->
<g id="edge27" class="edge">
<title>Node23&#45;&gt;Node26</title>
<path fill="none" stroke="#191970" d="M1553.3419,-55.4179C1529.6835,-46.3817 1493.1693,-32.4353 1466.5882,-22.2828"/>
<polygon fill="#191970" stroke="#191970" points="1467.5252,-18.8941 1456.9346,-18.5956 1465.0276,-25.4334 1467.5252,-18.8941"/>
</g>
<!-- Node27 -->
<g id="node28" class="node">
<title>Node27</title>
<polygon fill="#ffffff" stroke="#bfbfbf" points="1478.3398,-.5 1478.3398,-18.5 1529.9014,-18.5 1529.9014,-.5 1478.3398,-.5"/>
<text text-anchor="middle" x="1504.1206" y="-6.5" font-family="Helvetica,sans-Serif" font-size="10.00" fill="#000000">sstream</text>
</g>
<!-- Node23&#45;&gt;Node27 -->
<g id="edge28" class="edge">
<title>Node23&#45;&gt;Node27</title>
<path fill="none" stroke="#191970" d="M1565.0661,-55.4179C1554.0373,-47.1084 1537.4974,-34.6469 1524.4299,-24.8015"/>
<polygon fill="#191970" stroke="#191970" points="1526.53,-22.0016 1516.437,-18.7795 1522.3177,-27.5924 1526.53,-22.0016"/>
</g>
<!-- Node28 -->
<g id="node29" class="node">
<title>Node28</title>
<polygon fill="#ffffff" stroke="#bfbfbf" points="1547.7192,-.5 1547.7192,-18.5 1606.522,-18.5 1606.522,-.5 1547.7192,-.5"/>
<text text-anchor="middle" x="1577.1206" y="-6.5" font-family="Helvetica,sans-Serif" font-size="10.00" fill="#000000">stdexcept</text>
</g>
<!-- Node23&#45;&gt;Node28 -->
<g id="edge29" class="edge">
<title>Node23&#45;&gt;Node28</title>
<path fill="none" stroke="#191970" d="M1577.1206,-55.4179C1577.1206,-48.2164 1577.1206,-37.8962 1577.1206,-28.8632"/>
<polygon fill="#191970" stroke="#191970" points="1580.6207,-28.7794 1577.1206,-18.7795 1573.6207,-28.7795 1580.6207,-28.7794"/>
</g>
<!-- Node34&#45;&gt;Node32 -->
<g id="edge40" class="edge">
<title>Node34&#45;&gt;Node32</title>
<path fill="none" stroke="#191970" d="M1725.7553,-115.3873C1711.7185,-105.8168 1689.424,-90.6159 1672.8523,-79.3171"/>
<polygon fill="#191970" stroke="#191970" points="1674.5573,-76.2435 1664.3234,-73.5019 1670.614,-82.0271 1674.5573,-76.2435"/>
</g>
<!-- Node35 -->
<g id="node36" class="node">
<title>Node35</title>
<g id="a_node36"><a xlink:href="threadsafety_8h.html" target="_top" xlink:title="threadsafety.h">
<polygon fill="#ffffff" stroke="#000000" points="1756.8022,-55.5 1756.8022,-73.5 1835.439,-73.5 1835.439,-55.5 1756.8022,-55.5"/>
<text text-anchor="middle" x="1796.1206" y="-61.5" font-family="Helvetica,sans-Serif" font-size="10.00" fill="#000000">threadsafety.h</text>
</a>
</g>
</g>
<!-- Node34&#45;&gt;Node35 -->
<g id="edge37" class="edge">
<title>Node34&#45;&gt;Node35</title>
<path fill="none" stroke="#191970" d="M1747.7777,-115.3873C1756.3986,-106.3126 1769.8285,-92.1759 1780.3475,-81.1033"/>
<polygon fill="#191970" stroke="#191970" points="1783.032,-83.3591 1787.3821,-73.6985 1777.957,-78.5379 1783.032,-83.3591"/>
</g>
<!-- Node36 -->
<g id="node37" class="node">
<title>Node36</title>
<polygon fill="#ffffff" stroke="#bfbfbf" points="1853.8154,-55.5 1853.8154,-73.5 1950.4258,-73.5 1950.4258,-55.5 1853.8154,-55.5"/>
<text text-anchor="middle" x="1902.1206" y="-61.5" font-family="Helvetica,sans-Serif" font-size="10.00" fill="#000000">condition_variable</text>
</g>
<!-- Node34&#45;&gt;Node36 -->
<g id="edge38" class="edge">
<title>Node34&#45;&gt;Node36</title>
<path fill="none" stroke="#191970" d="M1758.289,-115.472C1762.4867,-113.5912 1766.9289,-111.6736 1771.1206,-110 1802.0501,-97.651 1837.8028,-85.3627 1864.1357,-76.6751"/>
<polygon fill="#191970" stroke="#191970" points="1865.3241,-79.9689 1873.7372,-73.5291 1863.1445,-73.3168 1865.3241,-79.9689"/>
</g>
<!-- Node37 -->
<g id="node38" class="node">
<title>Node37</title>
<polygon fill="#ffffff" stroke="#bfbfbf" points="1967.9434,-55.5 1967.9434,-73.5 2012.2979,-73.5 2012.2979,-55.5 1967.9434,-55.5"/>
<text text-anchor="middle" x="1990.1206" y="-61.5" font-family="Helvetica,sans-Serif" font-size="10.00" fill="#000000">thread</text>
</g>
<!-- Node34&#45;&gt;Node37 -->
<g id="edge39" class="edge">
<title>Node34&#45;&gt;Node37</title>
<path fill="none" stroke="#191970" d="M1757.104,-115.4561C1761.6007,-113.4456 1766.4698,-111.4761 1771.1206,-110 1849.1992,-85.2194 1874.6672,-93.7837 1957.9564,-74.0512"/>
<polygon fill="#191970" stroke="#191970" points="1958.9632,-77.4083 1967.8501,-71.6401 1957.3057,-70.6074 1958.9632,-77.4083"/>
</g>
<!-- Node39 -->
<g id="node40" class="node">
<title>Node39</title>
<polygon fill="#ffffff" stroke="#bfbfbf" points="2030.064,-55.5 2030.064,-73.5 2082.1772,-73.5 2082.1772,-55.5 2030.064,-55.5"/>
<text text-anchor="middle" x="2056.1206" y="-61.5" font-family="Helvetica,sans-Serif" font-size="10.00" fill="#000000">memory</text>
</g>
<!-- Node38&#45;&gt;Node39 -->
<g id="edge43" class="edge">
<title>Node38&#45;&gt;Node39</title>
<path fill="none" stroke="#191970" d="M1846.1895,-115.4947C1852.7409,-113.6126 1859.649,-111.6886 1866.1206,-110 1931.478,-92.9466 1950.8203,-91.379 2019.7145,-74.2815"/>
<polygon fill="#191970" stroke="#191970" points="2020.9241,-77.5867 2029.7746,-71.7626 2019.2239,-70.7963 2020.9241,-77.5867"/>
</g>
<!-- Node38&#45;&gt;Node40 -->
<g id="edge44" class="edge">
<title>Node38&#45;&gt;Node40</title>
<path fill="none" stroke="#191970" d="M1845.0466,-115.4539C1851.9125,-113.4899 1859.2414,-111.5416 1866.1206,-110 1961.8534,-88.5464 1991.0093,-97.731 2089.8734,-73.9733"/>
<polygon fill="#191970" stroke="#191970" points="2090.7864,-77.3532 2099.6631,-71.5692 2089.1169,-70.5552 2090.7864,-77.3532"/>
</g>
<!-- Node41&#45;&gt;Node19 -->
<g id="edge47" class="edge">
<title>Node41&#45;&gt;Node19</title>
<path fill="none" stroke="#191970" d="M1615.4055,-115.4659C1579.0543,-96.9345 1499.1683,-56.2448 1496.1206,-55 1457.6905,-39.3038 1411.7139,-25.6185 1382.226,-17.4608"/>
<polygon fill="#191970" stroke="#191970" points="1383.0916,-14.0691 1372.5229,-14.8117 1381.2479,-20.822 1383.0916,-14.0691"/>
</g>
<!-- Node41&#45;&gt;Node42 -->
<g id="edge46" class="edge">
<title>Node41&#45;&gt;Node42</title>
<path fill="none" stroke="#191970" d="M1645.5746,-115.3873C1658.5333,-105.9054 1679.0448,-90.897 1694.4403,-79.6319"/>
<polygon fill="#191970" stroke="#191970" points="1696.8145,-82.2316 1702.818,-73.5019 1692.6809,-76.5824 1696.8145,-82.2316"/>
</g>
</g>
</svg>
