<?xml version="1.0" encoding="UTF-8" standalone="no"?>
<!DOCTYPE svg PUBLIC "-//W3C//DTD SVG 1.1//EN"
 "http://www.w3.org/Graphics/SVG/1.1/DTD/svg11.dtd">
<!-- Generated by graphviz version 2.40.1 (20161225.0304)
 -->
<!-- Title: src/utiltime.cpp Pages: 1 -->
<svg width="678pt" height="147pt"
 viewBox="0.00 0.00 677.52 147.00" xmlns="http://www.w3.org/2000/svg" xmlns:xlink="http://www.w3.org/1999/xlink">
<g id="graph0" class="graph" transform="scale(1 1) rotate(0) translate(4 143)">
<title>src/utiltime.cpp</title>
<polygon fill="#ffffff" stroke="transparent" points="-4,4 -4,-143 673.522,-143 673.522,4 -4,4"/>
<!-- Node0 -->
<g id="node1" class="node">
<title>Node0</title>
<polygon fill="#bfbfbf" stroke="#000000" points="239.7783,-120.5 239.7783,-138.5 322.4629,-138.5 322.4629,-120.5 239.7783,-120.5"/>
<text text-anchor="middle" x="281.1206" y="-126.5" font-family="Helvetica,sans-Serif" font-size="10.00" fill="#000000">src/utiltime.cpp</text>
</g>
<!-- Node1 -->
<g id="node2" class="node">
<title>Node1</title>
<g id="a_node2"><a xlink:href="utiltime_8h.html" target="_top" xlink:title="utiltime.h">
<polygon fill="#ffffff" stroke="#000000" points="27.1133,-60.5 27.1133,-78.5 83.1279,-78.5 83.1279,-60.5 27.1133,-60.5"/>
<text text-anchor="middle" x="55.1206" y="-66.5" font-family="Helvetica,sans-Serif" font-size="10.00" fill="#000000">utiltime.h</text>
</a>
</g>
</g>
<!-- Node0&#45;&gt;Node1 -->
<g id="edge1" class="edge">
<title>Node0&#45;&gt;Node1</title>
<path fill="none" stroke="#191970" d="M239.752,-121.2523C201.16,-113.1565 142.1816,-99.7533 92.1206,-84 90.245,-83.4098 88.3284,-82.7713 86.4032,-82.1025"/>
<polygon fill="#191970" stroke="#191970" points="87.4492,-78.758 76.8556,-78.5905 85.0326,-85.3277 87.4492,-78.758"/>
</g>
<!-- Node4 -->
<g id="node5" class="node">
<title>Node4</title>
<polygon fill="#ffffff" stroke="#bfbfbf" points="101.394,-60.5 101.394,-78.5 146.8472,-78.5 146.8472,-60.5 101.394,-60.5"/>
<text text-anchor="middle" x="124.1206" y="-66.5" font-family="Helvetica,sans-Serif" font-size="10.00" fill="#000000">atomic</text>
</g>
<!-- Node0&#45;&gt;Node4 -->
<g id="edge4" class="edge">
<title>Node0&#45;&gt;Node4</title>
<path fill="none" stroke="#191970" d="M253.8113,-120.4412C228.104,-111.7254 188.65,-97.8618 155.1206,-84 154.1048,-83.58 153.0739,-83.1451 152.0354,-82.6994"/>
<polygon fill="#191970" stroke="#191970" points="153.2439,-79.4058 142.6862,-78.5186 150.3862,-85.796 153.2439,-79.4058"/>
</g>
<!-- Node5 -->
<g id="node6" class="node">
<title>Node5</title>
<polygon fill="#ffffff" stroke="#bfbfbf" points="164.4805,-55.5 164.4805,-83.5 277.7607,-83.5 277.7607,-55.5 164.4805,-55.5"/>
<text text-anchor="start" x="172.4805" y="-71.5" font-family="Helvetica,sans-Serif" font-size="10.00" fill="#000000">boost/date_time/posix</text>
<text text-anchor="middle" x="221.1206" y="-61.5" font-family="Helvetica,sans-Serif" font-size="10.00" fill="#000000">_time/posix_time.hpp</text>
</g>
<!-- Node0&#45;&gt;Node5 -->
<g id="edge5" class="edge">
<title>Node0&#45;&gt;Node5</title>
<path fill="none" stroke="#191970" d="M272.0079,-120.3873C264.2752,-112.6546 252.8671,-101.2465 242.8112,-91.1906"/>
<polygon fill="#191970" stroke="#191970" points="245.0142,-88.4439 235.4683,-83.8477 240.0645,-93.3936 245.0142,-88.4439"/>
</g>
<!-- Node6 -->
<g id="node7" class="node">
<title>Node6</title>
<polygon fill="#ffffff" stroke="#bfbfbf" points="295.5913,-60.5 295.5913,-78.5 386.6499,-78.5 386.6499,-60.5 295.5913,-60.5"/>
<text text-anchor="middle" x="341.1206" y="-66.5" font-family="Helvetica,sans-Serif" font-size="10.00" fill="#000000">boost/thread.hpp</text>
</g>
<!-- Node0&#45;&gt;Node6 -->
<g id="edge6" class="edge">
<title>Node0&#45;&gt;Node6</title>
<path fill="none" stroke="#191970" d="M290.2333,-120.3873C299.3961,-111.2245 313.7197,-96.9009 324.8389,-85.7817"/>
<polygon fill="#191970" stroke="#191970" points="327.3259,-88.2444 331.9221,-78.6985 322.3762,-83.2947 327.3259,-88.2444"/>
</g>
<!-- Node7 -->
<g id="node8" class="node">
<title>Node7</title>
<polygon fill="#ffffff" stroke="#bfbfbf" points="404.1748,-60.5 404.1748,-78.5 444.0664,-78.5 444.0664,-60.5 404.1748,-60.5"/>
<text text-anchor="middle" x="424.1206" y="-66.5" font-family="Helvetica,sans-Serif" font-size="10.00" fill="#000000">ctime</text>
</g>
<!-- Node0&#45;&gt;Node7 -->
<g id="edge7" class="edge">
<title>Node0&#45;&gt;Node7</title>
<path fill="none" stroke="#191970" d="M306.1001,-120.4498C329.6015,-111.7401 365.6371,-97.8806 396.1206,-84 396.8119,-83.6852 397.5105,-83.362 398.2135,-83.0321"/>
<polygon fill="#191970" stroke="#191970" points="399.9516,-86.0776 407.377,-78.5202 396.8594,-79.7976 399.9516,-86.0776"/>
</g>
<!-- Node8 -->
<g id="node9" class="node">
<title>Node8</title>
<g id="a_node9"><a xlink:href="tinyformat_8h.html" target="_top" xlink:title="tinyformat.h">
<polygon fill="#ffffff" stroke="#000000" points="462,-60.5 462,-78.5 530.2412,-78.5 530.2412,-60.5 462,-60.5"/>
<text text-anchor="middle" x="496.1206" y="-66.5" font-family="Helvetica,sans-Serif" font-size="10.00" fill="#000000">tinyformat.h</text>
</a>
</g>
</g>
<!-- Node0&#45;&gt;Node8 -->
<g id="edge8" class="edge">
<title>Node0&#45;&gt;Node8</title>
<path fill="none" stroke="#191970" d="M318.2275,-120.4438C353.1981,-111.7299 406.9735,-97.8676 453.1206,-84 455.5633,-83.266 458.0759,-82.4857 460.6016,-81.6826"/>
<polygon fill="#191970" stroke="#191970" points="461.8674,-84.9512 470.2882,-78.5216 459.6958,-78.2966 461.8674,-84.9512"/>
</g>
<!-- Node2 -->
<g id="node3" class="node">
<title>Node2</title>
<polygon fill="#ffffff" stroke="#bfbfbf" points="0,-.5 0,-18.5 48.2412,-18.5 48.2412,-.5 0,-.5"/>
<text text-anchor="middle" x="24.1206" y="-6.5" font-family="Helvetica,sans-Serif" font-size="10.00" fill="#000000">stdint.h</text>
</g>
<!-- Node1&#45;&gt;Node2 -->
<g id="edge2" class="edge">
<title>Node1&#45;&gt;Node2</title>
<path fill="none" stroke="#191970" d="M50.4124,-60.3873C45.9514,-51.7531 39.1228,-38.5365 33.5428,-27.7366"/>
<polygon fill="#191970" stroke="#191970" points="36.5729,-25.9761 28.8731,-18.6985 30.3539,-29.1893 36.5729,-25.9761"/>
</g>
<!-- Node3 -->
<g id="node4" class="node">
<title>Node3</title>
<polygon fill="#ffffff" stroke="#bfbfbf" points="65.894,-.5 65.894,-18.5 106.3472,-18.5 106.3472,-.5 65.894,-.5"/>
<text text-anchor="middle" x="86.1206" y="-6.5" font-family="Helvetica,sans-Serif" font-size="10.00" fill="#000000">string</text>
</g>
<!-- Node1&#45;&gt;Node3 -->
<g id="edge3" class="edge">
<title>Node1&#45;&gt;Node3</title>
<path fill="none" stroke="#191970" d="M59.8288,-60.3873C64.2898,-51.7531 71.1184,-38.5365 76.6984,-27.7366"/>
<polygon fill="#191970" stroke="#191970" points="79.8873,-29.1893 81.3681,-18.6985 73.6683,-25.9761 79.8873,-29.1893"/>
</g>
<!-- Node9 -->
<g id="node10" class="node">
<title>Node9</title>
<polygon fill="#ffffff" stroke="#bfbfbf" points="327.5566,-.5 327.5566,-18.5 384.6846,-18.5 384.6846,-.5 327.5566,-.5"/>
<text text-anchor="middle" x="356.1206" y="-6.5" font-family="Helvetica,sans-Serif" font-size="10.00" fill="#000000">algorithm</text>
</g>
<!-- Node8&#45;&gt;Node9 -->
<g id="edge9" class="edge">
<title>Node8&#45;&gt;Node9</title>
<path fill="none" stroke="#191970" d="M474.8576,-60.3873C451.2857,-50.2851 413.0763,-33.9096 386.3879,-22.4717"/>
<polygon fill="#191970" stroke="#191970" points="387.6952,-19.2241 377.125,-18.5019 384.9377,-25.6581 387.6952,-19.2241"/>
</g>
<!-- Node10 -->
<g id="node11" class="node">
<title>Node10</title>
<polygon fill="#ffffff" stroke="#bfbfbf" points="403.0049,-.5 403.0049,-18.5 451.2363,-18.5 451.2363,-.5 403.0049,-.5"/>
<text text-anchor="middle" x="427.1206" y="-6.5" font-family="Helvetica,sans-Serif" font-size="10.00" fill="#000000">cassert</text>
</g>
<!-- Node8&#45;&gt;Node10 -->
<g id="edge10" class="edge">
<title>Node8&#45;&gt;Node10</title>
<path fill="none" stroke="#191970" d="M485.641,-60.3873C475.0024,-51.1364 458.3144,-36.625 445.4767,-25.4618"/>
<polygon fill="#191970" stroke="#191970" points="447.5416,-22.6192 437.6988,-18.6985 442.9483,-27.9014 447.5416,-22.6192"/>
</g>
<!-- Node11 -->
<g id="node12" class="node">
<title>Node11</title>
<polygon fill="#ffffff" stroke="#bfbfbf" points="468.9482,-.5 468.9482,-18.5 523.293,-18.5 523.293,-.5 468.9482,-.5"/>
<text text-anchor="middle" x="496.1206" y="-6.5" font-family="Helvetica,sans-Serif" font-size="10.00" fill="#000000">iostream</text>
</g>
<!-- Node8&#45;&gt;Node11 -->
<g id="edge11" class="edge">
<title>Node8&#45;&gt;Node11</title>
<path fill="none" stroke="#191970" d="M496.1206,-60.3873C496.1206,-52.0174 496.1206,-39.3414 496.1206,-28.735"/>
<polygon fill="#191970" stroke="#191970" points="499.6207,-28.6984 496.1206,-18.6985 492.6207,-28.6985 499.6207,-28.6984"/>
</g>
<!-- Node12 -->
<g id="node13" class="node">
<title>Node12</title>
<polygon fill="#ffffff" stroke="#bfbfbf" points="541.3398,-.5 541.3398,-18.5 592.9014,-18.5 592.9014,-.5 541.3398,-.5"/>
<text text-anchor="middle" x="567.1206" y="-6.5" font-family="Helvetica,sans-Serif" font-size="10.00" fill="#000000">sstream</text>
</g>
<!-- Node8&#45;&gt;Node12 -->
<g id="edge12" class="edge">
<title>Node8&#45;&gt;Node12</title>
<path fill="none" stroke="#191970" d="M506.904,-60.3873C517.8509,-51.1364 535.0227,-36.625 548.2324,-25.4618"/>
<polygon fill="#191970" stroke="#191970" points="550.8569,-27.8264 556.2358,-18.6985 546.3387,-22.4798 550.8569,-27.8264"/>
</g>
<!-- Node13 -->
<g id="node14" class="node">
<title>Node13</title>
<polygon fill="#ffffff" stroke="#bfbfbf" points="610.7192,-.5 610.7192,-18.5 669.522,-18.5 669.522,-.5 610.7192,-.5"/>
<text text-anchor="middle" x="640.1206" y="-6.5" font-family="Helvetica,sans-Serif" font-size="10.00" fill="#000000">stdexcept</text>
</g>
<!-- Node8&#45;&gt;Node13 -->
<g id="edge13" class="edge">
<title>Node8&#45;&gt;Node13</title>
<path fill="none" stroke="#191970" d="M517.9911,-60.3873C542.2365,-50.2851 581.5376,-33.9096 608.9886,-22.4717"/>
<polygon fill="#191970" stroke="#191970" points="610.6315,-25.5789 618.5161,-18.5019 607.9392,-19.1173 610.6315,-25.5789"/>
</g>
</g>
</svg>
