<?xml version="1.0" encoding="UTF-8" standalone="no"?>
<!DOCTYPE svg PUBLIC "-//W3C//DTD SVG 1.1//EN"
 "http://www.w3.org/Graphics/SVG/1.1/DTD/svg11.dtd">
<!-- Generated by graphviz version 2.40.1 (20161225.0304)
 -->
<!-- Title: src/utilmoneystr.h Pages: 1 -->
<svg width="151pt" height="137pt"
 viewBox="0.00 0.00 150.75 137.00" xmlns="http://www.w3.org/2000/svg" xmlns:xlink="http://www.w3.org/1999/xlink">
<g id="graph0" class="graph" transform="scale(1 1) rotate(0) translate(4 133)">
<title>src/utilmoneystr.h</title>
<polygon fill="#ffffff" stroke="transparent" points="-4,4 -4,-133 146.751,-133 146.751,4 -4,4"/>
<!-- Node0 -->
<g id="node1" class="node">
<title>Node0</title>
<polygon fill="#bfbfbf" stroke="#000000" points="0,-110.5 0,-128.5 93.8076,-128.5 93.8076,-110.5 0,-110.5"/>
<text text-anchor="middle" x="46.9038" y="-116.5" font-family="Helvetica,sans-Serif" font-size="10.00" fill="#000000">src/utilmoneystr.h</text>
</g>
<!-- Node1 -->
<g id="node2" class="node">
<title>Node1</title>
<polygon fill="#ffffff" stroke="#bfbfbf" points="31.7832,-.5 31.7832,-18.5 80.0244,-18.5 80.0244,-.5 31.7832,-.5"/>
<text text-anchor="middle" x="55.9038" y="-6.5" font-family="Helvetica,sans-Serif" font-size="10.00" fill="#000000">stdint.h</text>
</g>
<!-- Node0&#45;&gt;Node1 -->
<g id="edge1" class="edge">
<title>Node0&#45;&gt;Node1</title>
<path fill="none" stroke="#191970" d="M38.0194,-110.4917C27.0064,-98.1826 10.5367,-75.3141 17.9038,-55 21.9039,-43.9702 29.8769,-33.741 37.4913,-25.7867"/>
<polygon fill="#191970" stroke="#191970" points="40.1026,-28.1291 44.8256,-18.6452 35.2192,-23.1138 40.1026,-28.1291"/>
</g>
<!-- Node2 -->
<g id="node3" class="node">
<title>Node2</title>
<polygon fill="#ffffff" stroke="#bfbfbf" points="26.6772,-55.5 26.6772,-73.5 67.1304,-73.5 67.1304,-55.5 26.6772,-55.5"/>
<text text-anchor="middle" x="46.9038" y="-61.5" font-family="Helvetica,sans-Serif" font-size="10.00" fill="#000000">string</text>
</g>
<!-- Node0&#45;&gt;Node2 -->
<g id="edge2" class="edge">
<title>Node0&#45;&gt;Node2</title>
<path fill="none" stroke="#191970" d="M46.9038,-110.4179C46.9038,-103.2164 46.9038,-92.8962 46.9038,-83.8632"/>
<polygon fill="#191970" stroke="#191970" points="50.4039,-83.7794 46.9038,-73.7795 43.4039,-83.7795 50.4039,-83.7794"/>
</g>
<!-- Node3 -->
<g id="node4" class="node">
<title>Node3</title>
<g id="a_node4"><a xlink:href="amount_8h.html" target="_top" xlink:title="amount.h">
<polygon fill="#ffffff" stroke="#000000" points="85.0566,-55.5 85.0566,-73.5 142.751,-73.5 142.751,-55.5 85.0566,-55.5"/>
<text text-anchor="middle" x="113.9038" y="-61.5" font-family="Helvetica,sans-Serif" font-size="10.00" fill="#000000">amount.h</text>
</a>
</g>
</g>
<!-- Node0&#45;&gt;Node3 -->
<g id="edge3" class="edge">
<title>Node0&#45;&gt;Node3</title>
<path fill="none" stroke="#191970" d="M57.9675,-110.4179C67.8971,-102.2667 82.6938,-90.1201 94.575,-80.3669"/>
<polygon fill="#191970" stroke="#191970" points="97.0912,-82.8297 102.5997,-73.7795 92.6497,-77.4192 97.0912,-82.8297"/>
</g>
<!-- Node3&#45;&gt;Node1 -->
<g id="edge4" class="edge">
<title>Node3&#45;&gt;Node1</title>
<path fill="none" stroke="#191970" d="M104.3263,-55.4179C95.8974,-47.425 83.4173,-35.5903 73.2382,-25.9377"/>
<polygon fill="#191970" stroke="#191970" points="75.354,-23.1207 65.6894,-18.7795 70.5374,-28.2001 75.354,-23.1207"/>
</g>
</g>
</svg>
