<?xml version="1.0" encoding="UTF-8" standalone="no"?>
<!DOCTYPE svg PUBLIC "-//W3C//DTD SVG 1.1//EN"
 "http://www.w3.org/Graphics/SVG/1.1/DTD/svg11.dtd">
<!-- Generated by graphviz version 2.40.1 (20161225.0304)
 -->
<!-- Title: CopyrightHolders Pages: 1 -->
<svg width="430pt" height="69pt"
 viewBox="0.00 0.00 430.38 69.00" xmlns="http://www.w3.org/2000/svg" xmlns:xlink="http://www.w3.org/1999/xlink">
<g id="graph0" class="graph" transform="scale(1 1) rotate(0) translate(4 65)">
<title>CopyrightHolders</title>
<polygon fill="#ffffff" stroke="transparent" points="-4,4 -4,-65 426.3828,-65 426.3828,4 -4,4"/>
<!-- Node45 -->
<g id="node1" class="node">
<title>Node45</title>
<polygon fill="#bfbfbf" stroke="#000000" points="0,-18.5 0,-36.5 93.2559,-36.5 93.2559,-18.5 0,-18.5"/>
<text text-anchor="middle" x="46.6279" y="-24.5" font-family="Helvetica,sans-Serif" font-size="10.00" fill="#000000">CopyrightHolders</text>
</g>
<!-- Node46 -->
<g id="node2" class="node">
<title>Node46</title>
<g id="a_node2"><a xlink:href="init_8h.html#ac9e2081343d328ca68b7c4c4793442d2" target="_top" xlink:title="Returns licensing information (for &#45;version) ">
<polygon fill="#ffffff" stroke="#000000" points="168.7212,-37.5 168.7212,-55.5 235.8687,-55.5 235.8687,-37.5 168.7212,-37.5"/>
<text text-anchor="middle" x="202.2949" y="-43.5" font-family="Helvetica,sans-Serif" font-size="10.00" fill="#000000">LicenseInfo</text>
</a>
</g>
</g>
<!-- Node45&#45;&gt;Node46 -->
<g id="edge1" class="edge">
<title>Node45&#45;&gt;Node46</title>
<path fill="none" stroke="#191970" d="M103.4898,-34.4403C125.3066,-37.1032 149.499,-40.056 168.4845,-42.3733"/>
<polygon fill="#191970" stroke="#191970" points="103.6836,-30.9381 93.3332,-33.2006 102.8354,-37.8865 103.6836,-30.9381"/>
</g>
<!-- Node48 -->
<g id="node4" class="node">
<title>Node48</title>
<g id="a_node4"><a xlink:href="class_splash_screen.html#ac8b0ad09e1db84737a70f03f04b1ec69" target="_top" xlink:title="SplashScreen::SplashScreen">
<polygon fill="#ffffff" stroke="#000000" points="129.2559,-.5 129.2559,-18.5 275.334,-18.5 275.334,-.5 129.2559,-.5"/>
<text text-anchor="middle" x="202.2949" y="-6.5" font-family="Helvetica,sans-Serif" font-size="10.00" fill="#000000">SplashScreen::SplashScreen</text>
</a>
</g>
</g>
<!-- Node45&#45;&gt;Node48 -->
<g id="edge3" class="edge">
<title>Node45&#45;&gt;Node48</title>
<path fill="none" stroke="#191970" d="M103.3516,-20.941C111.7322,-19.9719 120.4661,-18.962 129.1228,-17.961"/>
<polygon fill="#191970" stroke="#191970" points="102.8649,-17.4738 93.3332,-22.0994 103.669,-24.4275 102.8649,-17.4738"/>
</g>
<!-- Node47 -->
<g id="node3" class="node">
<title>Node47</title>
<g id="a_node3"><a xlink:href="class_help_message_dialog.html#a4dbaaa9a299692aab191ec4270fc9a99" target="_top" xlink:title="&quot;Help message&quot; or &quot;About&quot; dialog box ">
<polygon fill="#ffffff" stroke="#000000" points="311.334,-32.5 311.334,-60.5 422.3828,-60.5 422.3828,-32.5 311.334,-32.5"/>
<text text-anchor="start" x="319.334" y="-48.5" font-family="Helvetica,sans-Serif" font-size="10.00" fill="#000000">HelpMessageDialog::</text>
<text text-anchor="middle" x="366.8584" y="-38.5" font-family="Helvetica,sans-Serif" font-size="10.00" fill="#000000">HelpMessageDialog</text>
</a>
</g>
</g>
<!-- Node46&#45;&gt;Node47 -->
<g id="edge2" class="edge">
<title>Node46&#45;&gt;Node47</title>
<path fill="none" stroke="#191970" d="M246.0514,-46.5C266.0331,-46.5 289.9297,-46.5 311.1752,-46.5"/>
<polygon fill="#191970" stroke="#191970" points="245.9939,-43.0001 235.9939,-46.5 245.9939,-50.0001 245.9939,-43.0001"/>
</g>
</g>
</svg>
