<?xml version="1.0" encoding="UTF-8" standalone="no"?>
<!DOCTYPE svg PUBLIC "-//W3C//DTD SVG 1.1//EN"
 "http://www.w3.org/Graphics/SVG/1.1/DTD/svg11.dtd">
<!-- Generated by graphviz version 2.40.1 (20161225.0304)
 -->
<!-- Title: RenameThread Pages: 1 -->
<svg width="231pt" height="64pt"
 viewBox="0.00 0.00 231.07 64.00" xmlns="http://www.w3.org/2000/svg" xmlns:xlink="http://www.w3.org/1999/xlink">
<g id="graph0" class="graph" transform="scale(1 1) rotate(0) translate(4 60)">
<title>RenameThread</title>
<polygon fill="#ffffff" stroke="transparent" points="-4,4 -4,-60 227.0732,-60 227.0732,4 -4,4"/>
<!-- Node141 -->
<g id="node1" class="node">
<title>Node141</title>
<polygon fill="#bfbfbf" stroke="#000000" points="0,-18.5 0,-36.5 85.4824,-36.5 85.4824,-18.5 0,-18.5"/>
<text text-anchor="middle" x="42.7412" y="-24.5" font-family="Helvetica,sans-Serif" font-size="10.00" fill="#000000">RenameThread</text>
</g>
<!-- Node142 -->
<g id="node2" class="node">
<title>Node142</title>
<g id="a_node2"><a xlink:href="util_8h.html#ac481a378af0229bf71e3d9fee7b938ad" target="_top" xlink:title="TraceThread">
<polygon fill="#ffffff" stroke="#000000" points="135.8379,-37.5 135.8379,-55.5 208.7178,-55.5 208.7178,-37.5 135.8379,-37.5"/>
<text text-anchor="middle" x="172.2778" y="-43.5" font-family="Helvetica,sans-Serif" font-size="10.00" fill="#000000">TraceThread</text>
</a>
</g>
</g>
<!-- Node141&#45;&gt;Node142 -->
<g id="edge1" class="edge">
<title>Node141&#45;&gt;Node142</title>
<path fill="none" stroke="#191970" d="M95.613,-35.2551C109.0505,-37.226 123.1955,-39.3008 135.6259,-41.124"/>
<polygon fill="#191970" stroke="#191970" points="95.9174,-31.7623 85.5153,-33.774 94.9015,-38.6882 95.9174,-31.7623"/>
</g>
<!-- Node143 -->
<g id="node3" class="node">
<title>Node143</title>
<g id="a_node3"><a xlink:href="validation_8h.html#a8b6fddfd4e56e9c3e73c5dc0cf4de80c" target="_top" xlink:title="Run an instance of the script checking thread. ">
<polygon fill="#ffffff" stroke="#000000" points="121.4824,-.5 121.4824,-18.5 223.0732,-18.5 223.0732,-.5 121.4824,-.5"/>
<text text-anchor="middle" x="172.2778" y="-6.5" font-family="Helvetica,sans-Serif" font-size="10.00" fill="#000000">ThreadScriptCheck</text>
</a>
</g>
</g>
<!-- Node141&#45;&gt;Node143 -->
<g id="edge2" class="edge">
<title>Node141&#45;&gt;Node143</title>
<path fill="none" stroke="#191970" d="M95.4263,-20.1791C104.0163,-18.9854 112.9003,-17.7509 121.4446,-16.5636"/>
<polygon fill="#191970" stroke="#191970" points="94.9384,-16.7131 85.5153,-21.5562 95.9019,-23.6465 94.9384,-16.7131"/>
</g>
</g>
</svg>
