<?xml version="1.0" encoding="UTF-8" standalone="no"?>
<!DOCTYPE svg PUBLIC "-//W3C//DTD SVG 1.1//EN"
 "http://www.w3.org/Graphics/SVG/1.1/DTD/svg11.dtd">
<!-- Generated by graphviz version 2.40.1 (20161225.0304)
 -->
<!-- Title: src/versionbits.h Pages: 1 -->
<svg width="2029pt" height="467pt"
 viewBox="0.00 0.00 2029.34 467.00" xmlns="http://www.w3.org/2000/svg" xmlns:xlink="http://www.w3.org/1999/xlink">
<g id="graph0" class="graph" transform="scale(1 1) rotate(0) translate(4 463)">
<title>src/versionbits.h</title>
<polygon fill="#ffffff" stroke="transparent" points="-4,4 -4,-463 2025.3398,-463 2025.3398,4 -4,4"/>
<!-- Node0 -->
<g id="node1" class="node">
<title>Node0</title>
<polygon fill="#bfbfbf" stroke="#000000" points="982.877,-440.5 982.877,-458.5 1071.123,-458.5 1071.123,-440.5 982.877,-440.5"/>
<text text-anchor="middle" x="1027" y="-446.5" font-family="Helvetica,sans-Serif" font-size="10.00" fill="#000000">src/versionbits.h</text>
</g>
<!-- Node1 -->
<g id="node2" class="node">
<title>Node1</title>
<g id="a_node2"><a xlink:href="chain_8h.html" target="_top" xlink:title="chain.h">
<polygon fill="#ffffff" stroke="#000000" points="622.877,-385.5 622.877,-403.5 671.123,-403.5 671.123,-385.5 622.877,-385.5"/>
<text text-anchor="middle" x="647" y="-391.5" font-family="Helvetica,sans-Serif" font-size="10.00" fill="#000000">chain.h</text>
</a>
</g>
</g>
<!-- Node0&#45;&gt;Node1 -->
<g id="edge1" class="edge">
<title>Node0&#45;&gt;Node1</title>
<path fill="none" stroke="#191970" d="M982.6655,-443.0832C905.9423,-431.9785 750.0231,-409.4112 681.0873,-399.4337"/>
<polygon fill="#191970" stroke="#191970" points="681.5793,-395.9685 671.1811,-397.9999 680.5765,-402.8963 681.5793,-395.9685"/>
</g>
<!-- Node16 -->
<g id="node17" class="node">
<title>Node16</title>
<polygon fill="#ffffff" stroke="#bfbfbf" points="1383.2734,-110.5 1383.2734,-128.5 1418.7266,-128.5 1418.7266,-110.5 1383.2734,-110.5"/>
<text text-anchor="middle" x="1401" y="-116.5" font-family="Helvetica,sans-Serif" font-size="10.00" fill="#000000">map</text>
</g>
<!-- Node0&#45;&gt;Node16 -->
<g id="edge94" class="edge">
<title>Node0&#45;&gt;Node16</title>
<path fill="none" stroke="#191970" d="M1071.1588,-446.9851C1176.9172,-439.758 1436,-414.4089 1436,-339.5 1436,-339.5 1436,-339.5 1436,-229.5 1436,-195.9163 1421.0024,-159.1651 1410.6421,-137.784"/>
<polygon fill="#191970" stroke="#191970" points="1413.6412,-135.9581 1406.0146,-128.6038 1407.3904,-139.1089 1413.6412,-135.9581"/>
</g>
<!-- Node2 -->
<g id="node3" class="node">
<title>Node2</title>
<g id="a_node3"><a xlink:href="arith__uint256_8h.html" target="_top" xlink:title="arith_uint256.h">
<polygon fill="#ffffff" stroke="#000000" points="255.9189,-220.5 255.9189,-238.5 338.0811,-238.5 338.0811,-220.5 255.9189,-220.5"/>
<text text-anchor="middle" x="297" y="-226.5" font-family="Helvetica,sans-Serif" font-size="10.00" fill="#000000">arith_uint256.h</text>
</a>
</g>
</g>
<!-- Node1&#45;&gt;Node2 -->
<g id="edge2" class="edge">
<title>Node1&#45;&gt;Node2</title>
<path fill="none" stroke="#191970" d="M622.7972,-386.4822C597.9196,-378.0074 558.2339,-363.836 525,-349 448.9015,-315.0287 362.6912,-267.1424 321.4774,-243.6377"/>
<polygon fill="#191970" stroke="#191970" points="323.1087,-240.5387 312.6915,-238.6069 319.6304,-246.6133 323.1087,-240.5387"/>
</g>
<!-- Node8 -->
<g id="node9" class="node">
<title>Node8</title>
<polygon fill="#ffffff" stroke="#bfbfbf" points="312.3843,-110.5 312.3843,-128.5 355.6157,-128.5 355.6157,-110.5 312.3843,-110.5"/>
<text text-anchor="middle" x="334" y="-116.5" font-family="Helvetica,sans-Serif" font-size="10.00" fill="#000000">vector</text>
</g>
<!-- Node1&#45;&gt;Node8 -->
<g id="edge93" class="edge">
<title>Node1&#45;&gt;Node8</title>
<path fill="none" stroke="#191970" d="M622.79,-391.7407C523.4091,-380.0942 152,-333.3038 152,-284.5 152,-284.5 152,-284.5 152,-229.5 152,-160.2465 249.7128,-133.4231 301.9455,-124.0318"/>
<polygon fill="#191970" stroke="#191970" points="302.7666,-127.4429 312.0465,-122.3309 301.6042,-120.5401 302.7666,-127.4429"/>
</g>
<!-- Node9 -->
<g id="node10" class="node">
<title>Node9</title>
<g id="a_node10"><a xlink:href="params_8h.html" target="_top" xlink:title="consensus/params.h">
<polygon fill="#ffffff" stroke="#000000" points="984.8647,-275.5 984.8647,-293.5 1093.1353,-293.5 1093.1353,-275.5 984.8647,-275.5"/>
<text text-anchor="middle" x="1039" y="-281.5" font-family="Helvetica,sans-Serif" font-size="10.00" fill="#000000">consensus/params.h</text>
</a>
</g>
</g>
<!-- Node1&#45;&gt;Node9 -->
<g id="edge9" class="edge">
<title>Node1&#45;&gt;Node9</title>
<path fill="none" stroke="#191970" d="M671.2255,-387.702C736.2029,-369.4686 914.962,-319.3066 996.9318,-296.3048"/>
<polygon fill="#191970" stroke="#191970" points="997.9856,-299.6444 1006.6681,-293.5727 996.0943,-292.9047 997.9856,-299.6444"/>
</g>
<!-- Node10 -->
<g id="node11" class="node">
<title>Node10</title>
<g id="a_node11"><a xlink:href="uint256_8h.html" target="_top" xlink:title="uint256.h">
<polygon fill="#ffffff" stroke="#000000" points="444.4263,-220.5 444.4263,-238.5 501.5737,-238.5 501.5737,-220.5 444.4263,-220.5"/>
<text text-anchor="middle" x="473" y="-226.5" font-family="Helvetica,sans-Serif" font-size="10.00" fill="#000000">uint256.h</text>
</a>
</g>
</g>
<!-- Node1&#45;&gt;Node10 -->
<g id="edge92" class="edge">
<title>Node1&#45;&gt;Node10</title>
<path fill="none" stroke="#191970" d="M623.2562,-385.4201C589.127,-371.1576 526.5219,-340.2686 492,-294 482.1831,-280.8427 477.4181,-262.6776 475.1171,-248.9767"/>
<polygon fill="#191970" stroke="#191970" points="478.5372,-248.1556 473.707,-238.7259 471.6025,-249.1096 478.5372,-248.1556"/>
</g>
<!-- Node17 -->
<g id="node18" class="node">
<title>Node17</title>
<g id="a_node18"><a xlink:href="block_8h.html" target="_top" xlink:title="primitives/block.h">
<polygon fill="#ffffff" stroke="#000000" points="600.6553,-330.5 600.6553,-348.5 693.3447,-348.5 693.3447,-330.5 600.6553,-330.5"/>
<text text-anchor="middle" x="647" y="-336.5" font-family="Helvetica,sans-Serif" font-size="10.00" fill="#000000">primitives/block.h</text>
</a>
</g>
</g>
<!-- Node1&#45;&gt;Node17 -->
<g id="edge27" class="edge">
<title>Node1&#45;&gt;Node17</title>
<path fill="none" stroke="#191970" d="M647,-385.4179C647,-378.2164 647,-367.8962 647,-358.8632"/>
<polygon fill="#191970" stroke="#191970" points="650.5001,-358.7794 647,-348.7795 643.5001,-358.7795 650.5001,-358.7794"/>
</g>
<!-- Node49 -->
<g id="node47" class="node">
<title>Node49</title>
<g id="a_node47"><a xlink:href="tinyformat_8h.html" target="_top" xlink:title="tinyformat.h">
<polygon fill="#ffffff" stroke="#000000" points="1217.8794,-220.5 1217.8794,-238.5 1286.1206,-238.5 1286.1206,-220.5 1217.8794,-220.5"/>
<text text-anchor="middle" x="1252" y="-226.5" font-family="Helvetica,sans-Serif" font-size="10.00" fill="#000000">tinyformat.h</text>
</a>
</g>
</g>
<!-- Node1&#45;&gt;Node49 -->
<g id="edge86" class="edge">
<title>Node1&#45;&gt;Node49</title>
<path fill="none" stroke="#191970" d="M671.6088,-390.7758C740.6406,-379.9658 941.5487,-346.0104 1102,-294 1146.0934,-279.7071 1195.0559,-257.3582 1224.6782,-243.0758"/>
<polygon fill="#191970" stroke="#191970" points="1226.4875,-246.0878 1233.9477,-238.5647 1223.4243,-239.7936 1226.4875,-246.0878"/>
</g>
<!-- Node3 -->
<g id="node4" class="node">
<title>Node3</title>
<polygon fill="#ffffff" stroke="#bfbfbf" points="682.2144,-55.5 682.2144,-73.5 733.7856,-73.5 733.7856,-55.5 682.2144,-55.5"/>
<text text-anchor="middle" x="708" y="-61.5" font-family="Helvetica,sans-Serif" font-size="10.00" fill="#000000">assert.h</text>
</g>
<!-- Node2&#45;&gt;Node3 -->
<g id="edge3" class="edge">
<title>Node2&#45;&gt;Node3</title>
<path fill="none" stroke="#191970" d="M261.9251,-220.4807C230.0969,-210.3898 190.3552,-191.8556 206,-165 230.9465,-122.1774 255.7491,-124.9484 303,-110 457.4492,-61.1379 508.4862,-102.0781 672.1981,-73.8182"/>
<polygon fill="#191970" stroke="#191970" points="672.8892,-77.2503 682.1176,-72.0457 671.6578,-70.3594 672.8892,-77.2503"/>
</g>
<!-- Node4 -->
<g id="node5" class="node">
<title>Node4</title>
<polygon fill="#ffffff" stroke="#bfbfbf" points="256.2734,-165.5 256.2734,-183.5 301.7266,-183.5 301.7266,-165.5 256.2734,-165.5"/>
<text text-anchor="middle" x="279" y="-171.5" font-family="Helvetica,sans-Serif" font-size="10.00" fill="#000000">cstring</text>
</g>
<!-- Node2&#45;&gt;Node4 -->
<g id="edge4" class="edge">
<title>Node2&#45;&gt;Node4</title>
<path fill="none" stroke="#191970" d="M294.0277,-220.4179C291.6449,-213.1372 288.2189,-202.669 285.2397,-193.5659"/>
<polygon fill="#191970" stroke="#191970" points="288.4738,-192.1948 282.0369,-183.7795 281.821,-194.3721 288.4738,-192.1948"/>
</g>
<!-- Node5 -->
<g id="node6" class="node">
<title>Node5</title>
<polygon fill="#ffffff" stroke="#bfbfbf" points="471.5986,-165.5 471.5986,-183.5 530.4014,-183.5 530.4014,-165.5 471.5986,-165.5"/>
<text text-anchor="middle" x="501" y="-171.5" font-family="Helvetica,sans-Serif" font-size="10.00" fill="#000000">stdexcept</text>
</g>
<!-- Node2&#45;&gt;Node5 -->
<g id="edge5" class="edge">
<title>Node2&#45;&gt;Node5</title>
<path fill="none" stroke="#191970" d="M330.6865,-220.4179C366.7343,-210.6991 423.8496,-195.3004 461.8661,-185.0508"/>
<polygon fill="#191970" stroke="#191970" points="462.8274,-188.4167 471.5715,-182.4342 461.0051,-181.658 462.8274,-188.4167"/>
</g>
<!-- Node6 -->
<g id="node7" class="node">
<title>Node6</title>
<polygon fill="#ffffff" stroke="#bfbfbf" points="426.8794,-.5 426.8794,-18.5 475.1206,-18.5 475.1206,-.5 426.8794,-.5"/>
<text text-anchor="middle" x="451" y="-6.5" font-family="Helvetica,sans-Serif" font-size="10.00" fill="#000000">stdint.h</text>
</g>
<!-- Node2&#45;&gt;Node6 -->
<g id="edge6" class="edge">
<title>Node2&#45;&gt;Node6</title>
<path fill="none" stroke="#191970" d="M255.9732,-220.4288C224.0091,-211.0278 186.9205,-193.6166 199,-165 226.2566,-100.4286 252.0344,-91.2839 312,-55 344.9394,-35.069 387.6205,-22.7863 416.9487,-16.0837"/>
<polygon fill="#191970" stroke="#191970" points="417.708,-19.5005 426.7278,-13.9423 416.2105,-12.6625 417.708,-19.5005"/>
</g>
<!-- Node7 -->
<g id="node8" class="node">
<title>Node7</title>
<polygon fill="#ffffff" stroke="#bfbfbf" points="449.7734,-110.5 449.7734,-128.5 490.2266,-128.5 490.2266,-110.5 449.7734,-110.5"/>
<text text-anchor="middle" x="470" y="-116.5" font-family="Helvetica,sans-Serif" font-size="10.00" fill="#000000">string</text>
</g>
<!-- Node2&#45;&gt;Node7 -->
<g id="edge7" class="edge">
<title>Node2&#45;&gt;Node7</title>
<path fill="none" stroke="#191970" d="M281.1227,-220.4134C261.1125,-207.8225 231.1383,-184.4248 247,-165 259.1459,-150.1257 381.4387,-131.6041 439.5885,-123.5518"/>
<polygon fill="#191970" stroke="#191970" points="440.226,-126.9973 449.6589,-122.1734 439.2766,-120.062 440.226,-126.9973"/>
</g>
<!-- Node2&#45;&gt;Node8 -->
<g id="edge8" class="edge">
<title>Node2&#45;&gt;Node8</title>
<path fill="none" stroke="#191970" d="M267.0564,-220.4334C236.7986,-209.6497 196.7903,-189.9306 214,-165 219.2766,-157.3561 268.5927,-140.3655 302.3378,-129.4476"/>
<polygon fill="#191970" stroke="#191970" points="303.7906,-132.6573 312.2445,-126.2713 301.6533,-125.9916 303.7906,-132.6573"/>
</g>
<!-- Node9&#45;&gt;Node7 -->
<g id="edge26" class="edge">
<title>Node9&#45;&gt;Node7</title>
<path fill="none" stroke="#191970" d="M1026.7737,-275.3973C995.2549,-252.4578 907.892,-192.177 825,-165 702.4238,-124.8121 664.8637,-146.0553 537,-129 525.0528,-127.4064 511.9208,-125.5643 500.4725,-123.9289"/>
<polygon fill="#191970" stroke="#191970" points="500.9105,-120.456 490.5144,-122.4981 499.9149,-127.3848 500.9105,-120.456"/>
</g>
<!-- Node9&#45;&gt;Node10 -->
<g id="edge10" class="edge">
<title>Node9&#45;&gt;Node10</title>
<path fill="none" stroke="#191970" d="M984.7295,-279.2264C871.137,-268.1882 610.6966,-242.8804 511.9384,-233.2838"/>
<polygon fill="#191970" stroke="#191970" points="512.0935,-229.7824 501.8018,-232.2988 511.4164,-236.7496 512.0935,-229.7824"/>
</g>
<!-- Node15 -->
<g id="node16" class="node">
<title>Node15</title>
<polygon fill="#ffffff" stroke="#bfbfbf" points="1205.6133,-110.5 1205.6133,-128.5 1244.3867,-128.5 1244.3867,-110.5 1205.6133,-110.5"/>
<text text-anchor="middle" x="1225" y="-116.5" font-family="Helvetica,sans-Serif" font-size="10.00" fill="#000000">limits</text>
</g>
<!-- Node9&#45;&gt;Node15 -->
<g id="edge24" class="edge">
<title>Node9&#45;&gt;Node15</title>
<path fill="none" stroke="#191970" d="M1049.2651,-275.3939C1079.4272,-248.6372 1168.0773,-169.996 1206.6836,-135.7484"/>
<polygon fill="#191970" stroke="#191970" points="1209.3792,-138.0358 1214.5373,-128.7814 1204.7339,-132.7993 1209.3792,-138.0358"/>
</g>
<!-- Node9&#45;&gt;Node16 -->
<g id="edge25" class="edge">
<title>Node9&#45;&gt;Node16</title>
<path fill="none" stroke="#191970" d="M1055.1416,-275.4377C1070.5654,-266.6092 1094.3137,-252.5706 1114,-239 1158.0648,-208.6242 1160.5246,-187.6832 1209,-165 1274.5726,-134.3165 1300.3552,-148.6913 1373.5457,-129.0759"/>
<polygon fill="#191970" stroke="#191970" points="1374.5209,-132.4375 1383.2038,-126.3663 1372.63,-125.6977 1374.5209,-132.4375"/>
</g>
<!-- Node10&#45;&gt;Node3 -->
<g id="edge11" class="edge">
<title>Node10&#45;&gt;Node3</title>
<path fill="none" stroke="#191970" d="M465.5613,-220.1895C449.0153,-198.302 412.7723,-142.9457 441,-110 473.1554,-72.4701 606.7763,-83.4744 671.8782,-73.7137"/>
<polygon fill="#191970" stroke="#191970" points="672.8617,-77.0931 682.0845,-71.8785 671.6229,-70.2036 672.8617,-77.0931"/>
</g>
<!-- Node10&#45;&gt;Node4 -->
<g id="edge12" class="edge">
<title>Node10&#45;&gt;Node4</title>
<path fill="none" stroke="#191970" d="M444.3746,-221.3846C409.0173,-211.3606 348.9995,-194.3452 311.8144,-183.8031"/>
<polygon fill="#191970" stroke="#191970" points="312.5468,-180.3728 301.9712,-181.0125 310.6374,-187.1074 312.5468,-180.3728"/>
</g>
<!-- Node10&#45;&gt;Node5 -->
<g id="edge13" class="edge">
<title>Node10&#45;&gt;Node5</title>
<path fill="none" stroke="#191970" d="M477.6236,-220.4179C481.4107,-212.9789 486.8919,-202.2123 491.595,-192.9742"/>
<polygon fill="#191970" stroke="#191970" points="494.8581,-194.279 496.2759,-183.7795 488.62,-191.1032 494.8581,-194.279"/>
</g>
<!-- Node10&#45;&gt;Node6 -->
<g id="edge14" class="edge">
<title>Node10&#45;&gt;Node6</title>
<path fill="none" stroke="#191970" d="M444.2118,-223.0555C402.9958,-212.0186 329.249,-185.0428 303,-129 277.1298,-73.766 365.6164,-36.0315 416.9223,-19.2945"/>
<polygon fill="#191970" stroke="#191970" points="418.1591,-22.5745 426.6429,-16.2281 416.0532,-15.8988 418.1591,-22.5745"/>
</g>
<!-- Node10&#45;&gt;Node7 -->
<g id="edge15" class="edge">
<title>Node10&#45;&gt;Node7</title>
<path fill="none" stroke="#191970" d="M470.3321,-220.1868C467.8655,-211.0585 464.3796,-196.7041 463,-184 461.3447,-168.7569 463.429,-151.4874 465.7439,-138.6565"/>
<polygon fill="#191970" stroke="#191970" points="469.2087,-139.1797 467.7495,-128.6858 462.3462,-137.7993 469.2087,-139.1797"/>
</g>
<!-- Node10&#45;&gt;Node8 -->
<g id="edge16" class="edge">
<title>Node10&#45;&gt;Node8</title>
<path fill="none" stroke="#191970" d="M452.8939,-220.4979C435.7775,-212.3166 411.0126,-199.2215 392,-184 374.6415,-170.1028 358.0118,-150.7792 347.045,-136.9122"/>
<polygon fill="#191970" stroke="#191970" points="349.5865,-134.4766 340.7053,-128.6994 344.0453,-138.754 349.5865,-134.4766"/>
</g>
<!-- Node11 -->
<g id="node12" class="node">
<title>Node11</title>
<g id="a_node12"><a xlink:href="common_8h.html" target="_top" xlink:title="crypto/common.h">
<polygon fill="#ffffff" stroke="#000000" points="661.6528,-165.5 661.6528,-183.5 754.3472,-183.5 754.3472,-165.5 661.6528,-165.5"/>
<text text-anchor="middle" x="708" y="-171.5" font-family="Helvetica,sans-Serif" font-size="10.00" fill="#000000">crypto/common.h</text>
</a>
</g>
</g>
<!-- Node10&#45;&gt;Node11 -->
<g id="edge17" class="edge">
<title>Node10&#45;&gt;Node11</title>
<path fill="none" stroke="#191970" d="M501.8156,-222.7559C541.0628,-213.5704 611.8697,-196.9986 659.407,-185.8728"/>
<polygon fill="#191970" stroke="#191970" points="660.2388,-189.2728 669.1781,-183.586 658.6436,-182.457 660.2388,-189.2728"/>
</g>
<!-- Node11&#45;&gt;Node6 -->
<g id="edge18" class="edge">
<title>Node11&#45;&gt;Node6</title>
<path fill="none" stroke="#191970" d="M661.6141,-165.8232C618.2028,-157.0561 557.1082,-142.8611 537,-129 499.0993,-102.8741 471.9628,-54.3664 459.2026,-27.8973"/>
<polygon fill="#191970" stroke="#191970" points="462.2808,-26.2162 454.8894,-18.6255 455.9339,-29.1687 462.2808,-26.2162"/>
</g>
<!-- Node12 -->
<g id="node13" class="node">
<title>Node12</title>
<polygon fill="#ffffff" stroke="#bfbfbf" points="1154.6035,-55.5 1154.6035,-73.5 1203.3965,-73.5 1203.3965,-55.5 1154.6035,-55.5"/>
<text text-anchor="middle" x="1179" y="-61.5" font-family="Helvetica,sans-Serif" font-size="10.00" fill="#000000">string.h</text>
</g>
<!-- Node11&#45;&gt;Node12 -->
<g id="edge19" class="edge">
<title>Node11&#45;&gt;Node12</title>
<path fill="none" stroke="#191970" d="M717.5234,-165.089C732.947,-150.4917 765.0065,-122.7483 798,-110 927.3815,-60.0085 970.3666,-91.1982 1108,-74 1119.81,-72.5243 1132.7126,-70.8242 1144.2404,-69.2738"/>
<polygon fill="#191970" stroke="#191970" points="1144.9297,-72.7125 1154.3698,-67.9028 1143.9907,-65.7758 1144.9297,-72.7125"/>
</g>
<!-- Node13 -->
<g id="node14" class="node">
<title>Node13</title>
<g id="a_node14"><a xlink:href="endian_8h.html" target="_top" xlink:title="compat/endian.h">
<polygon fill="#ffffff" stroke="#000000" points="546.0298,-110.5 546.0298,-128.5 635.9702,-128.5 635.9702,-110.5 546.0298,-110.5"/>
<text text-anchor="middle" x="591" y="-116.5" font-family="Helvetica,sans-Serif" font-size="10.00" fill="#000000">compat/endian.h</text>
</a>
</g>
</g>
<!-- Node11&#45;&gt;Node13 -->
<g id="edge20" class="edge">
<title>Node11&#45;&gt;Node13</title>
<path fill="none" stroke="#191970" d="M688.6798,-165.4179C669.8807,-156.5807 641.0915,-143.0473 619.6311,-132.9591"/>
<polygon fill="#191970" stroke="#191970" points="620.8878,-129.6824 610.3489,-128.5956 617.9098,-136.0174 620.8878,-129.6824"/>
</g>
<!-- Node13&#45;&gt;Node6 -->
<g id="edge23" class="edge">
<title>Node13&#45;&gt;Node6</title>
<path fill="none" stroke="#191970" d="M579.7747,-110.4709C564.1783,-97.9467 535.044,-74.6261 510,-55 497.0188,-44.8271 482.3331,-33.5011 470.8608,-24.6939"/>
<polygon fill="#191970" stroke="#191970" points="472.8613,-21.8174 462.7956,-18.5108 468.6023,-27.3727 472.8613,-21.8174"/>
</g>
<!-- Node14 -->
<g id="node15" class="node">
<title>Node14</title>
<g id="a_node15"><a xlink:href="byteswap_8h.html" target="_top" xlink:title="compat/byteswap.h">
<polygon fill="#ffffff" stroke="#000000" points="561.9214,-55.5 561.9214,-73.5 664.0786,-73.5 664.0786,-55.5 561.9214,-55.5"/>
<text text-anchor="middle" x="613" y="-61.5" font-family="Helvetica,sans-Serif" font-size="10.00" fill="#000000">compat/byteswap.h</text>
</a>
</g>
</g>
<!-- Node13&#45;&gt;Node14 -->
<g id="edge21" class="edge">
<title>Node13&#45;&gt;Node14</title>
<path fill="none" stroke="#191970" d="M594.6329,-110.4179C597.5768,-103.0581 601.8236,-92.441 605.4922,-83.2695"/>
<polygon fill="#191970" stroke="#191970" points="608.8239,-84.3641 609.2882,-73.7795 602.3246,-81.7643 608.8239,-84.3641"/>
</g>
<!-- Node14&#45;&gt;Node6 -->
<g id="edge22" class="edge">
<title>Node14&#45;&gt;Node6</title>
<path fill="none" stroke="#191970" d="M586.249,-55.4179C558.4741,-45.9881 514.9493,-31.2112 484.8097,-20.9786"/>
<polygon fill="#191970" stroke="#191970" points="485.738,-17.5976 475.1437,-17.6969 483.4876,-24.226 485.738,-17.5976"/>
</g>
<!-- Node17&#45;&gt;Node10 -->
<g id="edge85" class="edge">
<title>Node17&#45;&gt;Node10</title>
<path fill="none" stroke="#191970" d="M646.9227,-330.2116C646.2926,-316.2816 643.0303,-290.0161 628,-275 611.6649,-258.6803 552.2144,-244.5299 511.8729,-236.5103"/>
<polygon fill="#191970" stroke="#191970" points="512.297,-233.0274 501.8133,-234.558 510.9633,-239.8991 512.297,-233.0274"/>
</g>
<!-- Node18 -->
<g id="node19" class="node">
<title>Node18</title>
<g id="a_node19"><a xlink:href="transaction_8h.html" target="_top" xlink:title="primitives/transaction.h">
<polygon fill="#ffffff" stroke="#000000" points="500.8696,-275.5 500.8696,-293.5 619.1304,-293.5 619.1304,-275.5 500.8696,-275.5"/>
<text text-anchor="middle" x="560" y="-281.5" font-family="Helvetica,sans-Serif" font-size="10.00" fill="#000000">primitives/transaction.h</text>
</a>
</g>
</g>
<!-- Node17&#45;&gt;Node18 -->
<g id="edge28" class="edge">
<title>Node17&#45;&gt;Node18</title>
<path fill="none" stroke="#191970" d="M632.6337,-330.4179C619.1587,-321.8992 598.7807,-309.0166 583.0356,-299.0627"/>
<polygon fill="#191970" stroke="#191970" points="584.7105,-295.9808 574.3876,-293.5956 580.9699,-301.8977 584.7105,-295.9808"/>
</g>
<!-- Node41 -->
<g id="node39" class="node">
<title>Node41</title>
<g id="a_node39"><a xlink:href="serialize_8h.html" target="_top" xlink:title="serialize.h">
<polygon fill="#ffffff" stroke="#000000" points="910.4902,-165.5 910.4902,-183.5 971.5098,-183.5 971.5098,-165.5 910.4902,-165.5"/>
<text text-anchor="middle" x="941" y="-171.5" font-family="Helvetica,sans-Serif" font-size="10.00" fill="#000000">serialize.h</text>
</a>
</g>
</g>
<!-- Node17&#45;&gt;Node41 -->
<g id="edge84" class="edge">
<title>Node17&#45;&gt;Node41</title>
<path fill="none" stroke="#191970" d="M664.8045,-330.403C698.3954,-313.1475 773.2908,-274.2325 835,-239 864.0069,-222.4387 896.7621,-202.2772 918.0838,-188.9523"/>
<polygon fill="#191970" stroke="#191970" points="920.1357,-191.7969 926.7492,-183.5197 916.4174,-185.8661 920.1357,-191.7969"/>
</g>
<!-- Node18&#45;&gt;Node6 -->
<g id="edge29" class="edge">
<title>Node18&#45;&gt;Node6</title>
<path fill="none" stroke="#191970" d="M500.5548,-282.0552C423.5599,-277.8673 285.6304,-266.8776 171,-239 92.0738,-219.8055 0,-255.7267 0,-174.5 0,-174.5 0,-174.5 0,-119.5 0,-33.7903 311.3239,-14.5702 416.6503,-10.5203"/>
<polygon fill="#191970" stroke="#191970" points="416.8855,-14.0142 426.7523,-10.1546 416.6322,-7.0187 416.8855,-14.0142"/>
</g>
<!-- Node18&#45;&gt;Node10 -->
<g id="edge83" class="edge">
<title>Node18&#45;&gt;Node10</title>
<path fill="none" stroke="#191970" d="M545.6337,-275.4179C532.1587,-266.8992 511.7807,-254.0166 496.0356,-244.0627"/>
<polygon fill="#191970" stroke="#191970" points="497.7105,-240.9808 487.3876,-238.5956 493.9699,-246.8977 497.7105,-240.9808"/>
</g>
<!-- Node19 -->
<g id="node20" class="node">
<title>Node19</title>
<g id="a_node20"><a xlink:href="amount_8h.html" target="_top" xlink:title="amount.h">
<polygon fill="#ffffff" stroke="#000000" points="180.1528,-220.5 180.1528,-238.5 237.8472,-238.5 237.8472,-220.5 180.1528,-220.5"/>
<text text-anchor="middle" x="209" y="-226.5" font-family="Helvetica,sans-Serif" font-size="10.00" fill="#000000">amount.h</text>
</a>
</g>
</g>
<!-- Node18&#45;&gt;Node19 -->
<g id="edge30" class="edge">
<title>Node18&#45;&gt;Node19</title>
<path fill="none" stroke="#191970" d="M500.8574,-277.7035C439.8555,-270.2883 341.8016,-257.2443 247.9275,-239.0182"/>
<polygon fill="#191970" stroke="#191970" points="248.4657,-235.5571 237.9786,-237.0638 247.1163,-242.4259 248.4657,-235.5571"/>
</g>
<!-- Node20 -->
<g id="node21" class="node">
<title>Node20</title>
<g id="a_node21"><a xlink:href="script_8h.html" target="_top" xlink:title="script/script.h">
<polygon fill="#ffffff" stroke="#000000" points="713.5493,-220.5 713.5493,-238.5 788.4507,-238.5 788.4507,-220.5 713.5493,-220.5"/>
<text text-anchor="middle" x="751" y="-226.5" font-family="Helvetica,sans-Serif" font-size="10.00" fill="#000000">script/script.h</text>
</a>
</g>
</g>
<!-- Node18&#45;&gt;Node20 -->
<g id="edge32" class="edge">
<title>Node18&#45;&gt;Node20</title>
<path fill="none" stroke="#191970" d="M591.5398,-275.4179C623.8459,-266.115 674.2248,-251.608 709.6945,-241.3943"/>
<polygon fill="#191970" stroke="#191970" points="711.0898,-244.6348 719.7308,-238.5042 709.1528,-237.9081 711.0898,-244.6348"/>
</g>
<!-- Node18&#45;&gt;Node41 -->
<g id="edge82" class="edge">
<title>Node18&#45;&gt;Node41</title>
<path fill="none" stroke="#191970" d="M619.3764,-276.9934C667.8896,-269.9383 737.8614,-257.6441 797,-239 839.7676,-225.5171 886.7208,-202.9036 915.0191,-188.3498"/>
<polygon fill="#191970" stroke="#191970" points="916.9575,-191.2868 924.2131,-183.5663 913.7266,-185.077 916.9575,-191.2868"/>
</g>
<!-- Node19&#45;&gt;Node6 -->
<g id="edge31" class="edge">
<title>Node19&#45;&gt;Node6</title>
<path fill="none" stroke="#191970" d="M204.7397,-220.3351C200.7992,-211.3167 195.2262,-197.0414 193,-184 187.2265,-150.1777 195.1533,-137.9891 215,-110 236.4995,-79.68 245.16,-72.4088 278,-55 322.7033,-31.3024 380.5739,-19.3394 416.7475,-13.7728"/>
<polygon fill="#191970" stroke="#191970" points="417.4027,-17.2144 426.7921,-12.3062 416.3913,-10.2878 417.4027,-17.2144"/>
</g>
<!-- Node20&#45;&gt;Node3 -->
<g id="edge74" class="edge">
<title>Node20&#45;&gt;Node3</title>
<path fill="none" stroke="#191970" d="M776.9627,-220.3581C803.7674,-209.3709 839.7535,-189.3383 825,-165 807.0694,-135.4206 782.3224,-151.4405 756,-129 740.465,-115.756 727.0141,-96.5934 718.3363,-82.5971"/>
<polygon fill="#191970" stroke="#191970" points="721.2562,-80.6601 713.1241,-73.8689 715.2463,-84.2491 721.2562,-80.6601"/>
</g>
<!-- Node20&#45;&gt;Node5 -->
<g id="edge77" class="edge">
<title>Node20&#45;&gt;Node5</title>
<path fill="none" stroke="#191970" d="M713.2246,-221.2094C671.7262,-212.0988 603.1102,-197.026 544,-184 542.9174,-183.7614 541.8195,-183.5194 540.7115,-183.2751"/>
<polygon fill="#191970" stroke="#191970" points="541.1264,-179.7825 530.6071,-181.0455 539.618,-186.6181 541.1264,-179.7825"/>
</g>
<!-- Node20&#45;&gt;Node6 -->
<g id="edge78" class="edge">
<title>Node20&#45;&gt;Node6</title>
<path fill="none" stroke="#191970" d="M717.3607,-220.4291C688.4161,-212.2048 645.7913,-199.0852 610,-184 593.3286,-176.9734 590.8346,-171.6262 574,-165 517.0169,-142.5711 478.2177,-177.6309 441,-129 418.5363,-99.6475 432.0399,-53.5331 442.4274,-28.0232"/>
<polygon fill="#191970" stroke="#191970" points="445.6808,-29.3178 446.4412,-18.7503 439.2568,-26.5371 445.6808,-29.3178"/>
</g>
<!-- Node20&#45;&gt;Node7 -->
<g id="edge80" class="edge">
<title>Node20&#45;&gt;Node7</title>
<path fill="none" stroke="#191970" d="M731.5057,-220.4316C695.7141,-203.8042 622.0703,-169.7043 610,-165 572.8862,-150.5353 529.0704,-136.8181 500.4703,-128.2999"/>
<polygon fill="#191970" stroke="#191970" points="501.2442,-124.8791 490.6624,-125.405 499.2626,-131.5927 501.2442,-124.8791"/>
</g>
<!-- Node20&#45;&gt;Node8 -->
<g id="edge81" class="edge">
<title>Node20&#45;&gt;Node8</title>
<path fill="none" stroke="#191970" d="M713.2416,-221.0873C678.6557,-212.9703 626.2649,-199.6347 582,-184 562.2992,-177.0415 558.8787,-171.4329 539,-165 465.9342,-141.3553 444.7044,-146.8026 370,-129 368.5459,-128.6535 367.0608,-128.2921 365.5621,-127.9212"/>
<polygon fill="#191970" stroke="#191970" points="366.2143,-124.4756 355.6595,-125.3962 364.4846,-131.2586 366.2143,-124.4756"/>
</g>
<!-- Node20&#45;&gt;Node11 -->
<g id="edge33" class="edge">
<title>Node20&#45;&gt;Node11</title>
<path fill="none" stroke="#191970" d="M743.8994,-220.4179C737.8361,-212.6624 728.9449,-201.29 721.5282,-191.8035"/>
<polygon fill="#191970" stroke="#191970" points="724.1714,-189.5018 715.2548,-183.7795 718.6568,-193.8133 724.1714,-189.5018"/>
</g>
<!-- Node20&#45;&gt;Node12 -->
<g id="edge79" class="edge">
<title>Node20&#45;&gt;Node12</title>
<path fill="none" stroke="#191970" d="M788.8681,-223.7061C840.4116,-215.6586 935.4649,-200.2444 1016,-184 1042.4994,-178.6549 1236.1835,-150.1659 1253,-129 1269.2403,-108.5593 1239.5475,-89.4861 1213.0781,-77.463"/>
<polygon fill="#191970" stroke="#191970" points="1214.1318,-74.106 1203.5631,-73.363 1211.3617,-80.5346 1214.1318,-74.106"/>
</g>
<!-- Node20&#45;&gt;Node15 -->
<g id="edge76" class="edge">
<title>Node20&#45;&gt;Node15</title>
<path fill="none" stroke="#191970" d="M788.6819,-224.6534C834.7687,-218.1339 914.8163,-204.886 981,-184 1000.925,-177.7122 1004.1627,-171.5593 1024,-165 1040.1683,-159.6538 1143.4553,-137.0947 1195.3408,-125.8816"/>
<polygon fill="#191970" stroke="#191970" points="1196.2508,-129.2658 1205.2874,-123.7349 1194.774,-122.4234 1196.2508,-129.2658"/>
</g>
<!-- Node21 -->
<g id="node22" class="node">
<title>Node21</title>
<g id="a_node22"><a xlink:href="prevector_8h.html" target="_top" xlink:title="prevector.h">
<polygon fill="#ffffff" stroke="#000000" points="1300.2612,-110.5 1300.2612,-128.5 1365.7388,-128.5 1365.7388,-110.5 1300.2612,-110.5"/>
<text text-anchor="middle" x="1333" y="-116.5" font-family="Helvetica,sans-Serif" font-size="10.00" fill="#000000">prevector.h</text>
</a>
</g>
</g>
<!-- Node20&#45;&gt;Node21 -->
<g id="edge34" class="edge">
<title>Node20&#45;&gt;Node21</title>
<path fill="none" stroke="#191970" d="M788.5035,-228.1549C856.9457,-225.0024 1006.2684,-214.8899 1128,-184 1150.239,-178.3568 1154.2904,-172.4238 1176,-165 1214.2829,-151.9088 1258.6194,-139.2869 1290.3932,-130.6719"/>
<polygon fill="#191970" stroke="#191970" points="1291.4979,-133.9992 1300.2443,-128.0201 1289.6783,-127.2398 1291.4979,-133.9992"/>
</g>
<!-- Node20&#45;&gt;Node41 -->
<g id="edge55" class="edge">
<title>Node20&#45;&gt;Node41</title>
<path fill="none" stroke="#191970" d="M782.3746,-220.4179C814.6076,-211.0873 864.9262,-196.5214 900.2263,-186.3029"/>
<polygon fill="#191970" stroke="#191970" points="901.5768,-189.5558 910.2092,-183.4131 899.6303,-182.8318 901.5768,-189.5558"/>
</g>
<!-- Node48 -->
<g id="node46" class="node">
<title>Node48</title>
<polygon fill="#ffffff" stroke="#bfbfbf" points="772.1133,-165.5 772.1133,-183.5 815.8867,-183.5 815.8867,-165.5 772.1133,-165.5"/>
<text text-anchor="middle" x="794" y="-171.5" font-family="Helvetica,sans-Serif" font-size="10.00" fill="#000000">climits</text>
</g>
<!-- Node20&#45;&gt;Node48 -->
<g id="edge75" class="edge">
<title>Node20&#45;&gt;Node48</title>
<path fill="none" stroke="#191970" d="M758.1006,-220.4179C764.1639,-212.6624 773.0551,-201.29 780.4718,-191.8035"/>
<polygon fill="#191970" stroke="#191970" points="783.3432,-193.8133 786.7452,-183.7795 777.8286,-189.5018 783.3432,-193.8133"/>
</g>
<!-- Node21&#45;&gt;Node3 -->
<g id="edge35" class="edge">
<title>Node21&#45;&gt;Node3</title>
<path fill="none" stroke="#191970" d="M1299.9443,-115.3121C1285.538,-113.5548 1268.4463,-111.5614 1253,-110 1061.4312,-90.6349 831.3739,-73.3984 744.0172,-67.07"/>
<polygon fill="#191970" stroke="#191970" points="744.0705,-63.5648 733.8444,-66.3357 743.5664,-70.5466 744.0705,-63.5648"/>
</g>
<!-- Node21&#45;&gt;Node6 -->
<g id="edge37" class="edge">
<title>Node21&#45;&gt;Node6</title>
<path fill="none" stroke="#191970" d="M1328.5434,-110.3983C1320.7886,-95.7017 1303.2878,-67.1648 1279,-55 1207.3404,-19.1085 633.8707,-11.2305 485.7923,-9.7877"/>
<polygon fill="#191970" stroke="#191970" points="485.5214,-6.2851 475.489,-9.6911 485.4558,-13.2848 485.5214,-6.2851"/>
</g>
<!-- Node21&#45;&gt;Node12 -->
<g id="edge38" class="edge">
<title>Node21&#45;&gt;Node12</title>
<path fill="none" stroke="#191970" d="M1307.57,-110.4179C1281.74,-101.1929 1241.5811,-86.8504 1213.0242,-76.6515"/>
<polygon fill="#191970" stroke="#191970" points="1214.0442,-73.2993 1203.4496,-73.232 1211.6898,-79.8915 1214.0442,-73.2993"/>
</g>
<!-- Node22 -->
<g id="node23" class="node">
<title>Node22</title>
<polygon fill="#ffffff" stroke="#bfbfbf" points="1326.1577,-55.5 1326.1577,-73.5 1373.8423,-73.5 1373.8423,-55.5 1326.1577,-55.5"/>
<text text-anchor="middle" x="1350" y="-61.5" font-family="Helvetica,sans-Serif" font-size="10.00" fill="#000000">stdlib.h</text>
</g>
<!-- Node21&#45;&gt;Node22 -->
<g id="edge36" class="edge">
<title>Node21&#45;&gt;Node22</title>
<path fill="none" stroke="#191970" d="M1335.8072,-110.4179C1338.0576,-103.1372 1341.2932,-92.669 1344.1069,-83.5659"/>
<polygon fill="#191970" stroke="#191970" points="1347.5226,-84.3671 1347.1318,-73.7795 1340.8348,-82.2999 1347.5226,-84.3671"/>
</g>
<!-- Node23 -->
<g id="node24" class="node">
<title>Node23</title>
<polygon fill="#ffffff" stroke="#bfbfbf" points="1221.8794,-55.5 1221.8794,-73.5 1270.1206,-73.5 1270.1206,-55.5 1221.8794,-55.5"/>
<text text-anchor="middle" x="1246" y="-61.5" font-family="Helvetica,sans-Serif" font-size="10.00" fill="#000000">cstddef</text>
</g>
<!-- Node21&#45;&gt;Node23 -->
<g id="edge39" class="edge">
<title>Node21&#45;&gt;Node23</title>
<path fill="none" stroke="#191970" d="M1318.6337,-110.4179C1305.1587,-101.8992 1284.7807,-89.0166 1269.0356,-79.0627"/>
<polygon fill="#191970" stroke="#191970" points="1270.7105,-75.9808 1260.3876,-73.5956 1266.9699,-81.8977 1270.7105,-75.9808"/>
</g>
<!-- Node24 -->
<g id="node25" class="node">
<title>Node24</title>
<polygon fill="#ffffff" stroke="#bfbfbf" points="1391.4385,-55.5 1391.4385,-73.5 1438.5615,-73.5 1438.5615,-55.5 1391.4385,-55.5"/>
<text text-anchor="middle" x="1415" y="-61.5" font-family="Helvetica,sans-Serif" font-size="10.00" fill="#000000">iterator</text>
</g>
<!-- Node21&#45;&gt;Node24 -->
<g id="edge40" class="edge">
<title>Node21&#45;&gt;Node24</title>
<path fill="none" stroke="#191970" d="M1346.5406,-110.4179C1359.1226,-101.9788 1378.0896,-89.257 1392.8711,-79.3426"/>
<polygon fill="#191970" stroke="#191970" points="1395.084,-82.0727 1401.4393,-73.5956 1391.1847,-76.2593 1395.084,-82.0727"/>
</g>
<!-- Node25 -->
<g id="node26" class="node">
<title>Node25</title>
<polygon fill="#ffffff" stroke="#bfbfbf" points="1095.9336,-.5 1095.9336,-18.5 1158.0664,-18.5 1158.0664,-.5 1095.9336,-.5"/>
<text text-anchor="middle" x="1127" y="-6.5" font-family="Helvetica,sans-Serif" font-size="10.00" fill="#000000">type_traits</text>
</g>
<!-- Node21&#45;&gt;Node25 -->
<g id="edge41" class="edge">
<title>Node21&#45;&gt;Node25</title>
<path fill="none" stroke="#191970" d="M1365.8866,-110.9333C1396.3658,-102.2498 1438.4038,-88.1168 1448,-74 1452.7473,-67.0163 1453.5788,-61.3392 1448,-55 1408.2771,-9.8634 1244.6051,-28.4043 1168.5107,-18.8303"/>
<polygon fill="#191970" stroke="#191970" points="1168.7904,-15.3325 1158.3767,-17.2832 1167.7339,-22.2524 1168.7904,-15.3325"/>
</g>
<!-- Node26 -->
<g id="node27" class="node">
<title>Node26</title>
<g id="a_node27"><a xlink:href="compat_8h.html" target="_top" xlink:title="compat.h">
<polygon fill="#ffffff" stroke="#ff0000" points="1518.4336,-55.5 1518.4336,-73.5 1575.5664,-73.5 1575.5664,-55.5 1518.4336,-55.5"/>
<text text-anchor="middle" x="1547" y="-61.5" font-family="Helvetica,sans-Serif" font-size="10.00" fill="#000000">compat.h</text>
</a>
</g>
</g>
<!-- Node21&#45;&gt;Node26 -->
<g id="edge42" class="edge">
<title>Node21&#45;&gt;Node26</title>
<path fill="none" stroke="#191970" d="M1365.9685,-111.0268C1404.3383,-101.1654 1467.62,-84.9014 1508.2901,-74.4488"/>
<polygon fill="#191970" stroke="#191970" points="1509.2998,-77.8031 1518.1138,-71.924 1507.5573,-71.0235 1509.2998,-77.8031"/>
</g>
<!-- Node26&#45;&gt;Node25 -->
<g id="edge43" class="edge">
<title>Node26&#45;&gt;Node25</title>
<path fill="none" stroke="#191970" d="M1518.1104,-60.1577C1506.577,-58.4723 1493.1698,-56.5732 1481,-55 1344.9545,-37.4138 1307.1165,-42.9913 1168.525,-19.0952"/>
<polygon fill="#191970" stroke="#191970" points="1168.8224,-15.5943 1158.3696,-17.323 1167.619,-22.4901 1168.8224,-15.5943"/>
</g>
<!-- Node27 -->
<g id="node28" class="node">
<title>Node27</title>
<polygon fill="#ffffff" stroke="#bfbfbf" points="1978.6602,-.5 1978.6602,-18.5 2021.3398,-18.5 2021.3398,-.5 1978.6602,-.5"/>
<text text-anchor="middle" x="2000" y="-6.5" font-family="Helvetica,sans-Serif" font-size="10.00" fill="#000000">fcntl.h</text>
</g>
<!-- Node26&#45;&gt;Node27 -->
<g id="edge44" class="edge">
<title>Node26&#45;&gt;Node27</title>
<path fill="none" stroke="#191970" d="M1575.7769,-63.3836C1643.1096,-60.3532 1816.1527,-50.1416 1968.5032,-18.9561"/>
<polygon fill="#191970" stroke="#191970" points="1969.4314,-22.338 1978.507,-16.8715 1968.0033,-15.4852 1969.4314,-22.338"/>
</g>
<!-- Node28 -->
<g id="node29" class="node">
<title>Node28</title>
<polygon fill="#ffffff" stroke="#bfbfbf" points="1176.0493,-.5 1176.0493,-18.5 1245.9507,-18.5 1245.9507,-.5 1176.0493,-.5"/>
<text text-anchor="middle" x="1211" y="-6.5" font-family="Helvetica,sans-Serif" font-size="10.00" fill="#000000">sys/mman.h</text>
</g>
<!-- Node26&#45;&gt;Node28 -->
<g id="edge45" class="edge">
<title>Node26&#45;&gt;Node28</title>
<path fill="none" stroke="#191970" d="M1517.9613,-60.1949C1457.8875,-51.2546 1320.8177,-30.6719 1256.1319,-19.0999"/>
<polygon fill="#191970" stroke="#191970" points="1256.4936,-15.6082 1246.0275,-17.2546 1255.236,-22.4943 1256.4936,-15.6082"/>
</g>
<!-- Node29 -->
<g id="node30" class="node">
<title>Node29</title>
<polygon fill="#ffffff" stroke="#bfbfbf" points="1263.8794,-.5 1263.8794,-18.5 1332.1206,-18.5 1332.1206,-.5 1263.8794,-.5"/>
<text text-anchor="middle" x="1298" y="-6.5" font-family="Helvetica,sans-Serif" font-size="10.00" fill="#000000">sys/select.h</text>
</g>
<!-- Node26&#45;&gt;Node29 -->
<g id="edge46" class="edge">
<title>Node26&#45;&gt;Node29</title>
<path fill="none" stroke="#191970" d="M1517.9492,-58.0832C1474.7422,-48.5394 1393.2048,-30.5292 1342.4611,-19.3207"/>
<polygon fill="#191970" stroke="#191970" points="1342.954,-15.8453 1332.4344,-17.106 1341.4441,-22.6805 1342.954,-15.8453"/>
</g>
<!-- Node30 -->
<g id="node31" class="node">
<title>Node30</title>
<polygon fill="#ffffff" stroke="#bfbfbf" points="1350.4902,-.5 1350.4902,-18.5 1421.5098,-18.5 1421.5098,-.5 1350.4902,-.5"/>
<text text-anchor="middle" x="1386" y="-6.5" font-family="Helvetica,sans-Serif" font-size="10.00" fill="#000000">sys/socket.h</text>
</g>
<!-- Node26&#45;&gt;Node30 -->
<g id="edge47" class="edge">
<title>Node26&#45;&gt;Node30</title>
<path fill="none" stroke="#191970" d="M1520.4141,-55.4179C1493.5329,-46.2348 1451.8073,-31.9807 1421.9788,-21.7909"/>
<polygon fill="#191970" stroke="#191970" points="1422.9523,-18.4249 1412.3578,-18.5042 1420.6894,-25.0491 1422.9523,-18.4249"/>
</g>
<!-- Node31 -->
<g id="node32" class="node">
<title>Node31</title>
<polygon fill="#ffffff" stroke="#bfbfbf" points="1439.9902,-.5 1439.9902,-18.5 1506.0098,-18.5 1506.0098,-.5 1439.9902,-.5"/>
<text text-anchor="middle" x="1473" y="-6.5" font-family="Helvetica,sans-Serif" font-size="10.00" fill="#000000">sys/types.h</text>
</g>
<!-- Node26&#45;&gt;Node31 -->
<g id="edge48" class="edge">
<title>Node26&#45;&gt;Node31</title>
<path fill="none" stroke="#191970" d="M1534.7804,-55.4179C1523.5331,-47.0584 1506.6318,-34.4966 1493.3485,-24.6239"/>
<polygon fill="#191970" stroke="#191970" points="1495.3516,-21.7518 1485.2377,-18.5956 1491.1759,-27.37 1495.3516,-21.7518"/>
</g>
<!-- Node32 -->
<g id="node33" class="node">
<title>Node32</title>
<polygon fill="#ffffff" stroke="#bfbfbf" points="1523.9902,-.5 1523.9902,-18.5 1570.0098,-18.5 1570.0098,-.5 1523.9902,-.5"/>
<text text-anchor="middle" x="1547" y="-6.5" font-family="Helvetica,sans-Serif" font-size="10.00" fill="#000000">net/if.h</text>
</g>
<!-- Node26&#45;&gt;Node32 -->
<g id="edge49" class="edge">
<title>Node26&#45;&gt;Node32</title>
<path fill="none" stroke="#191970" d="M1547,-55.4179C1547,-48.2164 1547,-37.8962 1547,-28.8632"/>
<polygon fill="#191970" stroke="#191970" points="1550.5001,-28.7794 1547,-18.7795 1543.5001,-28.7795 1550.5001,-28.7794"/>
</g>
<!-- Node33 -->
<g id="node34" class="node">
<title>Node33</title>
<polygon fill="#ffffff" stroke="#bfbfbf" points="1587.5371,-.5 1587.5371,-18.5 1652.4629,-18.5 1652.4629,-.5 1587.5371,-.5"/>
<text text-anchor="middle" x="1620" y="-6.5" font-family="Helvetica,sans-Serif" font-size="10.00" fill="#000000">netinet/in.h</text>
</g>
<!-- Node26&#45;&gt;Node33 -->
<g id="edge50" class="edge">
<title>Node26&#45;&gt;Node33</title>
<path fill="none" stroke="#191970" d="M1559.0545,-55.4179C1570.0833,-47.1084 1586.6232,-34.6469 1599.6907,-24.8015"/>
<polygon fill="#191970" stroke="#191970" points="1601.8029,-27.5924 1607.6836,-18.7795 1597.5906,-22.0016 1601.8029,-27.5924"/>
</g>
<!-- Node34 -->
<g id="node35" class="node">
<title>Node34</title>
<polygon fill="#ffffff" stroke="#bfbfbf" points="1670.7588,-.5 1670.7588,-18.5 1741.2412,-18.5 1741.2412,-.5 1670.7588,-.5"/>
<text text-anchor="middle" x="1706" y="-6.5" font-family="Helvetica,sans-Serif" font-size="10.00" fill="#000000">netinet/tcp.h</text>
</g>
<!-- Node26&#45;&gt;Node34 -->
<g id="edge51" class="edge">
<title>Node26&#45;&gt;Node34</title>
<path fill="none" stroke="#191970" d="M1573.2556,-55.4179C1599.803,-46.2348 1641.0102,-31.9807 1670.4681,-21.7909"/>
<polygon fill="#191970" stroke="#191970" points="1671.6633,-25.081 1679.9696,-18.5042 1669.3749,-18.4656 1671.6633,-25.081"/>
</g>
<!-- Node35 -->
<g id="node36" class="node">
<title>Node35</title>
<polygon fill="#ffffff" stroke="#bfbfbf" points="1759.3721,-.5 1759.3721,-18.5 1822.6279,-18.5 1822.6279,-.5 1759.3721,-.5"/>
<text text-anchor="middle" x="1791" y="-6.5" font-family="Helvetica,sans-Serif" font-size="10.00" fill="#000000">arpa/inet.h</text>
</g>
<!-- Node26&#45;&gt;Node35 -->
<g id="edge52" class="edge">
<title>Node26&#45;&gt;Node35</title>
<path fill="none" stroke="#191970" d="M1575.5902,-58.1599C1613.059,-49.836 1681.0819,-34.6739 1749.1773,-19.1755"/>
<polygon fill="#191970" stroke="#191970" points="1750.2485,-22.5212 1759.2211,-16.8872 1748.6934,-15.6961 1750.2485,-22.5212"/>
</g>
<!-- Node36 -->
<g id="node37" class="node">
<title>Node36</title>
<polygon fill="#ffffff" stroke="#bfbfbf" points="1840.8228,-.5 1840.8228,-18.5 1895.1772,-18.5 1895.1772,-.5 1840.8228,-.5"/>
<text text-anchor="middle" x="1868" y="-6.5" font-family="Helvetica,sans-Serif" font-size="10.00" fill="#000000">ifaddrs.h</text>
</g>
<!-- Node26&#45;&gt;Node36 -->
<g id="edge53" class="edge">
<title>Node26&#45;&gt;Node36</title>
<path fill="none" stroke="#191970" d="M1575.8963,-60.8566C1625.905,-54.343 1731.9731,-39.6126 1830.7127,-19.1123"/>
<polygon fill="#191970" stroke="#191970" points="1831.4835,-22.5269 1840.55,-17.0453 1830.044,-15.6765 1831.4835,-22.5269"/>
</g>
<!-- Node37 -->
<g id="node38" class="node">
<title>Node37</title>
<polygon fill="#ffffff" stroke="#bfbfbf" points="1913.4434,-.5 1913.4434,-18.5 1960.5566,-18.5 1960.5566,-.5 1913.4434,-.5"/>
<text text-anchor="middle" x="1937" y="-6.5" font-family="Helvetica,sans-Serif" font-size="10.00" fill="#000000">limits.h</text>
</g>
<!-- Node26&#45;&gt;Node37 -->
<g id="edge54" class="edge">
<title>Node26&#45;&gt;Node37</title>
<path fill="none" stroke="#191970" d="M1575.9379,-62.3282C1635.4771,-57.5369 1776.0734,-44.5613 1903.3934,-18.8269"/>
<polygon fill="#191970" stroke="#191970" points="1904.2239,-22.2295 1913.3156,-16.7896 1902.8159,-15.3726 1904.2239,-22.2295"/>
</g>
<!-- Node41&#45;&gt;Node3 -->
<g id="edge58" class="edge">
<title>Node41&#45;&gt;Node3</title>
<path fill="none" stroke="#191970" d="M910.3002,-166.6989C872.5833,-156.865 811.0115,-139.9278 790,-129 765.0955,-116.0474 740.2912,-95.1376 724.5938,-80.6526"/>
<polygon fill="#191970" stroke="#191970" points="726.9396,-78.0539 717.2629,-73.7397 722.1371,-83.1468 726.9396,-78.0539"/>
</g>
<!-- Node41&#45;&gt;Node6 -->
<g id="edge64" class="edge">
<title>Node41&#45;&gt;Node6</title>
<path fill="none" stroke="#191970" d="M967.6489,-165.4729C997.094,-154.0827 1038.0024,-133.1627 1019,-110 950.8538,-26.9341 597.8863,-12.5107 485.4472,-10.0178"/>
<polygon fill="#191970" stroke="#191970" points="485.4037,-6.5163 475.3345,-9.8119 485.2611,-13.5149 485.4037,-6.5163"/>
</g>
<!-- Node41&#45;&gt;Node7 -->
<g id="edge65" class="edge">
<title>Node41&#45;&gt;Node7</title>
<path fill="none" stroke="#191970" d="M910.0957,-167.5168C905.3889,-166.5865 900.5763,-165.7104 896,-165 737.542,-140.4027 696.1949,-148.2599 537,-129 525.0342,-127.5523 511.8986,-125.7392 500.4525,-124.0861"/>
<polygon fill="#191970" stroke="#191970" points="500.8995,-120.6143 490.4978,-122.628 499.885,-127.5404 500.8995,-120.6143"/>
</g>
<!-- Node41&#45;&gt;Node8 -->
<g id="edge68" class="edge">
<title>Node41&#45;&gt;Node8</title>
<path fill="none" stroke="#191970" d="M910.4828,-171.7348C807.1693,-162.3737 471.1601,-131.928 365.8592,-122.3867"/>
<polygon fill="#191970" stroke="#191970" points="366.1202,-118.8961 355.8451,-121.4794 365.4885,-125.8676 366.1202,-118.8961"/>
</g>
<!-- Node41&#45;&gt;Node12 -->
<g id="edge66" class="edge">
<title>Node41&#45;&gt;Node12</title>
<path fill="none" stroke="#191970" d="M971.9827,-167.9469C976.6787,-166.9572 981.4674,-165.95 986,-165 1062.8657,-148.8889 1100.8789,-181.819 1159,-129 1171.46,-117.6766 1176.2344,-98.7599 1178.0249,-84.3325"/>
<polygon fill="#191970" stroke="#191970" points="1181.5475,-84.2169 1178.911,-73.9553 1174.5728,-83.6212 1181.5475,-84.2169"/>
</g>
<!-- Node41&#45;&gt;Node13 -->
<g id="edge56" class="edge">
<title>Node41&#45;&gt;Node13</title>
<path fill="none" stroke="#191970" d="M910.0626,-167.7141C905.3604,-166.7566 900.5579,-165.8203 896,-165 809.0829,-149.3568 707.5409,-134.9816 646.3099,-126.7354"/>
<polygon fill="#191970" stroke="#191970" points="646.4747,-123.2263 636.0984,-125.3668 645.5447,-130.1643 646.4747,-123.2263"/>
</g>
<!-- Node41&#45;&gt;Node15 -->
<g id="edge60" class="edge">
<title>Node41&#45;&gt;Node15</title>
<path fill="none" stroke="#191970" d="M971.9563,-167.8159C976.656,-166.8443 981.4527,-165.8771 986,-165 1077.2611,-147.3982 1101.4341,-149.8861 1192,-129 1193.2418,-128.7136 1194.5062,-128.4089 1195.7809,-128.0907"/>
<polygon fill="#191970" stroke="#191970" points="1196.7927,-131.4432 1205.5467,-125.4751 1194.9817,-124.6815 1196.7927,-131.4432"/>
</g>
<!-- Node41&#45;&gt;Node16 -->
<g id="edge61" class="edge">
<title>Node41&#45;&gt;Node16</title>
<path fill="none" stroke="#191970" d="M971.6789,-173.8631C1041.7115,-171.8647 1218.6366,-163.731 1373.1301,-128.9595"/>
<polygon fill="#191970" stroke="#191970" points="1374.3095,-132.2798 1383.2725,-126.6304 1372.7428,-125.4574 1374.3095,-132.2798"/>
</g>
<!-- Node41&#45;&gt;Node21 -->
<g id="edge69" class="edge">
<title>Node41&#45;&gt;Node21</title>
<path fill="none" stroke="#191970" d="M971.7596,-170.1842C1041.1985,-160.4415 1210.2494,-136.7227 1290.0042,-125.5326"/>
<polygon fill="#191970" stroke="#191970" points="1290.7729,-128.9591 1300.1896,-124.1035 1289.8002,-122.027 1290.7729,-128.9591"/>
</g>
<!-- Node42 -->
<g id="node40" class="node">
<title>Node42</title>
<polygon fill="#ffffff" stroke="#bfbfbf" points="1041.436,-55.5 1041.436,-73.5 1098.564,-73.5 1098.564,-55.5 1041.436,-55.5"/>
<text text-anchor="middle" x="1070" y="-61.5" font-family="Helvetica,sans-Serif" font-size="10.00" fill="#000000">algorithm</text>
</g>
<!-- Node41&#45;&gt;Node42 -->
<g id="edge57" class="edge">
<title>Node41&#45;&gt;Node42</title>
<path fill="none" stroke="#191970" d="M910.1561,-166.7461C870.1888,-156.3917 804.7854,-138.2796 798,-129 793.0156,-122.1835 792.5436,-116.4449 798,-110 812.9275,-92.3681 959.9566,-75.4597 1031.4097,-68.2062"/>
<polygon fill="#191970" stroke="#191970" points="1031.7778,-71.687 1041.3789,-67.2072 1031.0797,-64.7219 1031.7778,-71.687"/>
</g>
<!-- Node43 -->
<g id="node41" class="node">
<title>Node43</title>
<polygon fill="#ffffff" stroke="#bfbfbf" points="806.5,-110.5 806.5,-128.5 835.5,-128.5 835.5,-110.5 806.5,-110.5"/>
<text text-anchor="middle" x="820.8916" y="-116.5" font-family="Helvetica,sans-Serif" font-size="10.00" fill="#000000">ios</text>
</g>
<!-- Node41&#45;&gt;Node43 -->
<g id="edge59" class="edge">
<title>Node41&#45;&gt;Node43</title>
<path fill="none" stroke="#191970" d="M921.1844,-165.4179C900.1928,-155.7967 867.0562,-140.6091 844.6971,-130.3612"/>
<polygon fill="#191970" stroke="#191970" points="846.1022,-127.1551 835.5532,-126.1702 843.1856,-133.5186 846.1022,-127.1551"/>
</g>
<!-- Node44 -->
<g id="node42" class="node">
<title>Node44</title>
<polygon fill="#ffffff" stroke="#bfbfbf" points="853.9434,-110.5 853.9434,-128.5 906.0566,-128.5 906.0566,-110.5 853.9434,-110.5"/>
<text text-anchor="middle" x="880" y="-116.5" font-family="Helvetica,sans-Serif" font-size="10.00" fill="#000000">memory</text>
</g>
<!-- Node41&#45;&gt;Node44 -->
<g id="edge62" class="edge">
<title>Node41&#45;&gt;Node44</title>
<path fill="none" stroke="#191970" d="M930.9271,-165.4179C921.9745,-157.3458 908.6762,-145.3556 897.9137,-135.6517"/>
<polygon fill="#191970" stroke="#191970" points="900.0624,-132.8764 890.2918,-128.7795 895.3749,-138.0753 900.0624,-132.8764"/>
</g>
<!-- Node45 -->
<g id="node43" class="node">
<title>Node45</title>
<polygon fill="#ffffff" stroke="#bfbfbf" points="924.3301,-110.5 924.3301,-128.5 953.6699,-128.5 953.6699,-110.5 924.3301,-110.5"/>
<text text-anchor="middle" x="939" y="-116.5" font-family="Helvetica,sans-Serif" font-size="10.00" fill="#000000">set</text>
</g>
<!-- Node41&#45;&gt;Node45 -->
<g id="edge63" class="edge">
<title>Node41&#45;&gt;Node45</title>
<path fill="none" stroke="#191970" d="M940.6697,-165.4179C940.4079,-158.2164 940.0326,-147.8962 939.7041,-138.8632"/>
<polygon fill="#191970" stroke="#191970" points="943.1986,-138.6456 939.3374,-128.7795 936.2032,-138.9001 943.1986,-138.6456"/>
</g>
<!-- Node46 -->
<g id="node44" class="node">
<title>Node46</title>
<polygon fill="#ffffff" stroke="#bfbfbf" points="971.6084,-110.5 971.6084,-128.5 1010.3916,-128.5 1010.3916,-110.5 971.6084,-110.5"/>
<text text-anchor="middle" x="991" y="-116.5" font-family="Helvetica,sans-Serif" font-size="10.00" fill="#000000">utility</text>
</g>
<!-- Node41&#45;&gt;Node46 -->
<g id="edge67" class="edge">
<title>Node41&#45;&gt;Node46</title>
<path fill="none" stroke="#191970" d="M949.2565,-165.4179C956.4508,-157.5041 967.0688,-145.8243 975.7954,-136.2251"/>
<polygon fill="#191970" stroke="#191970" points="978.4272,-138.5332 982.5641,-128.7795 973.2476,-133.8245 978.4272,-138.5332"/>
</g>
<!-- Node47 -->
<g id="node45" class="node">
<title>Node47</title>
<g id="a_node45"><a xlink:href="span_8h.html" target="_top" xlink:title="span.h">
<polygon fill="#ffffff" stroke="#000000" points="1103.9878,-110.5 1103.9878,-128.5 1150.0122,-128.5 1150.0122,-110.5 1103.9878,-110.5"/>
<text text-anchor="middle" x="1127" y="-116.5" font-family="Helvetica,sans-Serif" font-size="10.00" fill="#000000">span.h</text>
</a>
</g>
</g>
<!-- Node41&#45;&gt;Node47 -->
<g id="edge70" class="edge">
<title>Node41&#45;&gt;Node47</title>
<path fill="none" stroke="#191970" d="M971.7141,-165.4179C1005.5224,-155.4208 1059.6551,-139.4138 1094.253,-129.1833"/>
<polygon fill="#191970" stroke="#191970" points="1095.2922,-132.5258 1103.8893,-126.3338 1093.3073,-125.8132 1095.2922,-132.5258"/>
</g>
<!-- Node47&#45;&gt;Node23 -->
<g id="edge72" class="edge">
<title>Node47&#45;&gt;Node23</title>
<path fill="none" stroke="#191970" d="M1146.6504,-110.4179C1165.857,-101.5409 1195.3163,-87.9253 1217.174,-77.823"/>
<polygon fill="#191970" stroke="#191970" points="1218.7114,-80.9682 1226.3204,-73.5956 1215.7746,-74.614 1218.7114,-80.9682"/>
</g>
<!-- Node47&#45;&gt;Node25 -->
<g id="edge71" class="edge">
<title>Node47&#45;&gt;Node25</title>
<path fill="none" stroke="#191970" d="M1127,-110.4982C1127,-92.6913 1127,-52.6225 1127,-28.6515"/>
<polygon fill="#191970" stroke="#191970" points="1130.5001,-28.6261 1127,-18.6261 1123.5001,-28.6262 1130.5001,-28.6261"/>
</g>
<!-- Node47&#45;&gt;Node42 -->
<g id="edge73" class="edge">
<title>Node47&#45;&gt;Node42</title>
<path fill="none" stroke="#191970" d="M1117.5876,-110.4179C1109.3041,-102.425 1097.0391,-90.5903 1087.0355,-80.9377"/>
<polygon fill="#191970" stroke="#191970" points="1089.2434,-78.2045 1079.6169,-73.7795 1084.3828,-83.2419 1089.2434,-78.2045"/>
</g>
<!-- Node49&#45;&gt;Node5 -->
<g id="edge91" class="edge">
<title>Node49&#45;&gt;Node5</title>
<path fill="none" stroke="#191970" d="M1217.7796,-226.9938C1094.2926,-217.9502 672.0071,-187.0238 540.4549,-177.3895"/>
<polygon fill="#191970" stroke="#191970" points="540.6474,-173.8943 530.4184,-176.6545 540.1361,-180.8756 540.6474,-173.8943"/>
</g>
<!-- Node49&#45;&gt;Node42 -->
<g id="edge87" class="edge">
<title>Node49&#45;&gt;Node42</title>
<path fill="none" stroke="#191970" d="M1229.2985,-220.4716C1195.5626,-205.9805 1132.189,-174.467 1095,-129 1084.2006,-115.7967 1077.689,-97.39 1074.0317,-83.6179"/>
<polygon fill="#191970" stroke="#191970" points="1077.4044,-82.6718 1071.6831,-73.7545 1070.5947,-84.2933 1077.4044,-82.6718"/>
</g>
<!-- Node50 -->
<g id="node48" class="node">
<title>Node50</title>
<polygon fill="#ffffff" stroke="#bfbfbf" points="1217.8843,-165.5 1217.8843,-183.5 1266.1157,-183.5 1266.1157,-165.5 1217.8843,-165.5"/>
<text text-anchor="middle" x="1242" y="-171.5" font-family="Helvetica,sans-Serif" font-size="10.00" fill="#000000">cassert</text>
</g>
<!-- Node49&#45;&gt;Node50 -->
<g id="edge88" class="edge">
<title>Node49&#45;&gt;Node50</title>
<path fill="none" stroke="#191970" d="M1250.3487,-220.4179C1249.0393,-213.2164 1247.1629,-202.8962 1245.5206,-193.8632"/>
<polygon fill="#191970" stroke="#191970" points="1248.9197,-192.992 1243.6872,-183.7795 1242.0326,-194.2443 1248.9197,-192.992"/>
</g>
<!-- Node51 -->
<g id="node49" class="node">
<title>Node51</title>
<polygon fill="#ffffff" stroke="#bfbfbf" points="1283.8276,-165.5 1283.8276,-183.5 1338.1724,-183.5 1338.1724,-165.5 1283.8276,-165.5"/>
<text text-anchor="middle" x="1311" y="-171.5" font-family="Helvetica,sans-Serif" font-size="10.00" fill="#000000">iostream</text>
</g>
<!-- Node49&#45;&gt;Node51 -->
<g id="edge89" class="edge">
<title>Node49&#45;&gt;Node51</title>
<path fill="none" stroke="#191970" d="M1261.7427,-220.4179C1270.4017,-212.3458 1283.264,-200.3556 1293.6736,-190.6517"/>
<polygon fill="#191970" stroke="#191970" points="1296.1176,-193.1584 1301.0457,-183.7795 1291.3444,-188.0381 1296.1176,-193.1584"/>
</g>
<!-- Node52 -->
<g id="node50" class="node">
<title>Node52</title>
<polygon fill="#ffffff" stroke="#bfbfbf" points="1356.2192,-165.5 1356.2192,-183.5 1407.7808,-183.5 1407.7808,-165.5 1356.2192,-165.5"/>
<text text-anchor="middle" x="1382" y="-171.5" font-family="Helvetica,sans-Serif" font-size="10.00" fill="#000000">sstream</text>
</g>
<!-- Node49&#45;&gt;Node52 -->
<g id="edge90" class="edge">
<title>Node49&#45;&gt;Node52</title>
<path fill="none" stroke="#191970" d="M1273.4669,-220.4179C1294.637,-211.4613 1327.2094,-197.6806 1351.1498,-187.552"/>
<polygon fill="#191970" stroke="#191970" points="1352.6553,-190.7155 1360.5013,-183.5956 1349.9278,-184.2687 1352.6553,-190.7155"/>
</g>
</g>
</svg>
