<?xml version="1.0" encoding="UTF-8" standalone="no"?>
<!DOCTYPE svg PUBLIC "-//W3C//DTD SVG 1.1//EN"
 "http://www.w3.org/Graphics/SVG/1.1/DTD/svg11.dtd">
<!-- Generated by graphviz version 2.40.1 (20161225.0304)
 -->
<!-- Title: src/versionbits.cpp Pages: 1 -->
<svg width="1508pt" height="522pt"
 viewBox="0.00 0.00 1508.19 522.00" xmlns="http://www.w3.org/2000/svg" xmlns:xlink="http://www.w3.org/1999/xlink">
<g id="graph0" class="graph" transform="scale(1 1) rotate(0) translate(4 518)">
<title>src/versionbits.cpp</title>
<polygon fill="#ffffff" stroke="transparent" points="-4,4 -4,-518 1504.1928,-518 1504.1928,4 -4,4"/>
<!-- Node0 -->
<g id="node1" class="node">
<title>Node0</title>
<polygon fill="#bfbfbf" stroke="#000000" points="818.0992,-495.5 818.0992,-513.5 916.9068,-513.5 916.9068,-495.5 818.0992,-495.5"/>
<text text-anchor="middle" x="867.503" y="-501.5" font-family="Helvetica,sans-Serif" font-size="10.00" fill="#000000">src/versionbits.cpp</text>
</g>
<!-- Node1 -->
<g id="node2" class="node">
<title>Node1</title>
<g id="a_node2"><a xlink:href="versionbits_8h.html" target="_top" xlink:title="versionbits.h">
<polygon fill="#ffffff" stroke="#000000" points="793.4342,-440.5 793.4342,-458.5 865.5719,-458.5 865.5719,-440.5 793.4342,-440.5"/>
<text text-anchor="middle" x="829.503" y="-446.5" font-family="Helvetica,sans-Serif" font-size="10.00" fill="#000000">versionbits.h</text>
</a>
</g>
</g>
<!-- Node0&#45;&gt;Node1 -->
<g id="edge1" class="edge">
<title>Node0&#45;&gt;Node1</title>
<path fill="none" stroke="#191970" d="M861.2281,-495.4179C855.9245,-487.7415 848.1726,-476.5217 841.6592,-467.0945"/>
<polygon fill="#191970" stroke="#191970" points="844.4782,-465.0173 835.9143,-458.7795 838.7191,-468.9963 844.4782,-465.0173"/>
</g>
<!-- Node10 -->
<g id="node11" class="node">
<title>Node10</title>
<g id="a_node11"><a xlink:href="params_8h.html" target="_top" xlink:title="consensus/params.h">
<polygon fill="#ffffff" stroke="#000000" points="736.3678,-275.5 736.3678,-293.5 844.6383,-293.5 844.6383,-275.5 736.3678,-275.5"/>
<text text-anchor="middle" x="790.503" y="-281.5" font-family="Helvetica,sans-Serif" font-size="10.00" fill="#000000">consensus/params.h</text>
</a>
</g>
</g>
<!-- Node0&#45;&gt;Node10 -->
<g id="edge95" class="edge">
<title>Node0&#45;&gt;Node10</title>
<path fill="none" stroke="#191970" d="M869.3065,-495.4826C871.0374,-486.3362 873.528,-471.7504 874.503,-459 877.0436,-425.7785 875.9614,-415.4794 862.503,-385 848.2183,-352.649 822.496,-320.31 805.9762,-301.3686"/>
<polygon fill="#191970" stroke="#191970" points="808.3723,-298.7966 799.1077,-293.6567 803.145,-303.4522 808.3723,-298.7966"/>
</g>
<!-- Node2 -->
<g id="node3" class="node">
<title>Node2</title>
<g id="a_node3"><a xlink:href="chain_8h.html" target="_top" xlink:title="chain.h">
<polygon fill="#ffffff" stroke="#000000" points="805.38,-385.5 805.38,-403.5 853.6261,-403.5 853.6261,-385.5 805.38,-385.5"/>
<text text-anchor="middle" x="829.503" y="-391.5" font-family="Helvetica,sans-Serif" font-size="10.00" fill="#000000">chain.h</text>
</a>
</g>
</g>
<!-- Node1&#45;&gt;Node2 -->
<g id="edge2" class="edge">
<title>Node1&#45;&gt;Node2</title>
<path fill="none" stroke="#191970" d="M829.503,-440.4179C829.503,-433.2164 829.503,-422.8962 829.503,-413.8632"/>
<polygon fill="#191970" stroke="#191970" points="833.0031,-413.7794 829.503,-403.7795 826.0031,-413.7795 833.0031,-413.7794"/>
</g>
<!-- Node17 -->
<g id="node18" class="node">
<title>Node17</title>
<polygon fill="#ffffff" stroke="#bfbfbf" points="328.7765,-110.5 328.7765,-128.5 364.2296,-128.5 364.2296,-110.5 328.7765,-110.5"/>
<text text-anchor="middle" x="346.503" y="-116.5" font-family="Helvetica,sans-Serif" font-size="10.00" fill="#000000">map</text>
</g>
<!-- Node1&#45;&gt;Node17 -->
<g id="edge94" class="edge">
<title>Node1&#45;&gt;Node17</title>
<path fill="none" stroke="#191970" d="M793.0827,-446.9967C659.2656,-437.3202 202.503,-399.8697 202.503,-339.5 202.503,-339.5 202.503,-339.5 202.503,-284.5 202.503,-254.6154 203.0484,-243.5056 221.503,-220 241.18,-194.9376 258.3624,-203.5769 283.503,-184 301.9128,-169.6644 320.2433,-150.1549 332.3451,-136.3573"/>
<polygon fill="#191970" stroke="#191970" points="335.1495,-138.4642 339.0203,-128.6017 329.8441,-133.8978 335.1495,-138.4642"/>
</g>
<!-- Node3 -->
<g id="node4" class="node">
<title>Node3</title>
<g id="a_node4"><a xlink:href="arith__uint256_8h.html" target="_top" xlink:title="arith_uint256.h">
<polygon fill="#ffffff" stroke="#000000" points="1073.422,-220.5 1073.422,-238.5 1155.5841,-238.5 1155.5841,-220.5 1073.422,-220.5"/>
<text text-anchor="middle" x="1114.503" y="-226.5" font-family="Helvetica,sans-Serif" font-size="10.00" fill="#000000">arith_uint256.h</text>
</a>
</g>
</g>
<!-- Node2&#45;&gt;Node3 -->
<g id="edge3" class="edge">
<title>Node2&#45;&gt;Node3</title>
<path fill="none" stroke="#191970" d="M845.2318,-385.3939C892.4323,-358.0673 1033.1098,-276.6224 1090.1115,-243.6214"/>
<polygon fill="#191970" stroke="#191970" points="1091.9222,-246.6174 1098.8229,-238.578 1088.4149,-240.5594 1091.9222,-246.6174"/>
</g>
<!-- Node9 -->
<g id="node10" class="node">
<title>Node9</title>
<polygon fill="#ffffff" stroke="#bfbfbf" points="1133.8873,-110.5 1133.8873,-128.5 1177.1188,-128.5 1177.1188,-110.5 1133.8873,-110.5"/>
<text text-anchor="middle" x="1155.503" y="-116.5" font-family="Helvetica,sans-Serif" font-size="10.00" fill="#000000">vector</text>
</g>
<!-- Node2&#45;&gt;Node9 -->
<g id="edge93" class="edge">
<title>Node2&#45;&gt;Node9</title>
<path fill="none" stroke="#191970" d="M853.8616,-393.0867C940.4904,-387.4057 1228.503,-362.6424 1228.503,-284.5 1228.503,-284.5 1228.503,-284.5 1228.503,-229.5 1228.503,-190.682 1196.5523,-155.0811 1174.9264,-135.4305"/>
<polygon fill="#191970" stroke="#191970" points="1177.065,-132.6512 1167.2318,-128.7067 1172.4589,-137.9223 1177.065,-132.6512"/>
</g>
<!-- Node2&#45;&gt;Node10 -->
<g id="edge10" class="edge">
<title>Node2&#45;&gt;Node10</title>
<path fill="none" stroke="#191970" d="M826.3115,-385.4982C819.9696,-367.6108 805.6632,-327.2594 797.1781,-303.3271"/>
<polygon fill="#191970" stroke="#191970" points="800.3792,-301.8817 793.7387,-293.6261 793.7816,-304.2209 800.3792,-301.8817"/>
</g>
<!-- Node11 -->
<g id="node12" class="node">
<title>Node11</title>
<g id="a_node12"><a xlink:href="uint256_8h.html" target="_top" xlink:title="uint256.h">
<polygon fill="#ffffff" stroke="#000000" points="622.9293,-220.5 622.9293,-238.5 680.0768,-238.5 680.0768,-220.5 622.9293,-220.5"/>
<text text-anchor="middle" x="651.503" y="-226.5" font-family="Helvetica,sans-Serif" font-size="10.00" fill="#000000">uint256.h</text>
</a>
</g>
</g>
<!-- Node2&#45;&gt;Node11 -->
<g id="edge92" class="edge">
<title>Node2&#45;&gt;Node11</title>
<path fill="none" stroke="#191970" d="M805.3654,-391.8891C761.4484,-386.5896 671.2687,-372.9918 652.503,-349 629.9104,-320.1155 638.0383,-274.1516 645.2358,-248.4616"/>
<polygon fill="#191970" stroke="#191970" points="648.6124,-249.3874 648.1712,-238.8017 641.9148,-247.3521 648.6124,-249.3874"/>
</g>
<!-- Node18 -->
<g id="node19" class="node">
<title>Node18</title>
<g id="a_node19"><a xlink:href="block_8h.html" target="_top" xlink:title="primitives/block.h">
<polygon fill="#ffffff" stroke="#000000" points="661.1583,-330.5 661.1583,-348.5 753.8478,-348.5 753.8478,-330.5 661.1583,-330.5"/>
<text text-anchor="middle" x="707.503" y="-336.5" font-family="Helvetica,sans-Serif" font-size="10.00" fill="#000000">primitives/block.h</text>
</a>
</g>
</g>
<!-- Node2&#45;&gt;Node18 -->
<g id="edge28" class="edge">
<title>Node2&#45;&gt;Node18</title>
<path fill="none" stroke="#191970" d="M809.3572,-385.4179C789.6665,-376.5409 759.4645,-362.9253 737.0558,-352.823"/>
<polygon fill="#191970" stroke="#191970" points="738.2337,-349.5148 727.6788,-348.5956 735.3567,-355.8963 738.2337,-349.5148"/>
</g>
<!-- Node50 -->
<g id="node47" class="node">
<title>Node50</title>
<g id="a_node47"><a xlink:href="tinyformat_8h.html" target="_top" xlink:title="tinyformat.h">
<polygon fill="#ffffff" stroke="#000000" points="1320.3824,-220.5 1320.3824,-238.5 1388.6236,-238.5 1388.6236,-220.5 1320.3824,-220.5"/>
<text text-anchor="middle" x="1354.503" y="-226.5" font-family="Helvetica,sans-Serif" font-size="10.00" fill="#000000">tinyformat.h</text>
</a>
</g>
</g>
<!-- Node2&#45;&gt;Node50 -->
<g id="edge86" class="edge">
<title>Node2&#45;&gt;Node50</title>
<path fill="none" stroke="#191970" d="M853.6307,-394.0157C931.2509,-392.1237 1173.4707,-383.5255 1242.503,-349 1289.1381,-325.6762 1326.431,-274.4494 1343.8363,-247.2626"/>
<polygon fill="#191970" stroke="#191970" points="1346.832,-249.0731 1349.1462,-238.734 1340.8896,-245.3734 1346.832,-249.0731"/>
</g>
<!-- Node4 -->
<g id="node5" class="node">
<title>Node4</title>
<polygon fill="#ffffff" stroke="#bfbfbf" points="641.7174,-55.5 641.7174,-73.5 693.2887,-73.5 693.2887,-55.5 641.7174,-55.5"/>
<text text-anchor="middle" x="667.503" y="-61.5" font-family="Helvetica,sans-Serif" font-size="10.00" fill="#000000">assert.h</text>
</g>
<!-- Node3&#45;&gt;Node4 -->
<g id="edge4" class="edge">
<title>Node3&#45;&gt;Node4</title>
<path fill="none" stroke="#191970" d="M1127.6075,-220.2857C1156.2743,-199.0691 1219.4505,-145.8422 1186.503,-110 1154.281,-74.947 806.9078,-78.4455 759.503,-74 741.1005,-72.2743 720.6465,-70.1798 703.7066,-68.397"/>
<polygon fill="#191970" stroke="#191970" points="703.976,-64.906 693.663,-67.3334 703.2387,-71.8671 703.976,-64.906"/>
</g>
<!-- Node5 -->
<g id="node6" class="node">
<title>Node5</title>
<polygon fill="#ffffff" stroke="#bfbfbf" points="1040.7765,-165.5 1040.7765,-183.5 1086.2296,-183.5 1086.2296,-165.5 1040.7765,-165.5"/>
<text text-anchor="middle" x="1063.503" y="-171.5" font-family="Helvetica,sans-Serif" font-size="10.00" fill="#000000">cstring</text>
</g>
<!-- Node3&#45;&gt;Node5 -->
<g id="edge5" class="edge">
<title>Node3&#45;&gt;Node5</title>
<path fill="none" stroke="#191970" d="M1106.0814,-220.4179C1098.7432,-212.5041 1087.9129,-200.8243 1079.0118,-191.2251"/>
<polygon fill="#191970" stroke="#191970" points="1081.4735,-188.7324 1072.1076,-183.7795 1076.3406,-193.492 1081.4735,-188.7324"/>
</g>
<!-- Node6 -->
<g id="node7" class="node">
<title>Node6</title>
<polygon fill="#ffffff" stroke="#bfbfbf" points="926.1017,-165.5 926.1017,-183.5 984.9044,-183.5 984.9044,-165.5 926.1017,-165.5"/>
<text text-anchor="middle" x="955.503" y="-171.5" font-family="Helvetica,sans-Serif" font-size="10.00" fill="#000000">stdexcept</text>
</g>
<!-- Node3&#45;&gt;Node6 -->
<g id="edge6" class="edge">
<title>Node3&#45;&gt;Node6</title>
<path fill="none" stroke="#191970" d="M1088.2474,-220.4179C1061.7001,-211.2348 1020.4928,-196.9807 991.0349,-186.7909"/>
<polygon fill="#191970" stroke="#191970" points="992.1282,-183.4656 981.5334,-183.5042 989.8398,-190.081 992.1282,-183.4656"/>
</g>
<!-- Node7 -->
<g id="node8" class="node">
<title>Node7</title>
<polygon fill="#ffffff" stroke="#bfbfbf" points="149.3824,-.5 149.3824,-18.5 197.6236,-18.5 197.6236,-.5 149.3824,-.5"/>
<text text-anchor="middle" x="173.503" y="-6.5" font-family="Helvetica,sans-Serif" font-size="10.00" fill="#000000">stdint.h</text>
</g>
<!-- Node3&#45;&gt;Node7 -->
<g id="edge7" class="edge">
<title>Node3&#45;&gt;Node7</title>
<path fill="none" stroke="#191970" d="M1139.6141,-220.4169C1156.4239,-213.0826 1177.7324,-201.1417 1190.503,-184 1210.5006,-157.158 1227.1179,-134.6771 1204.503,-110 1173.4563,-76.1222 837.7987,-81.74 792.503,-74 759.0325,-68.2807 751.9846,-60.6547 718.503,-55 668.2803,-46.5179 319.3487,-20.2881 207.7463,-12.022"/>
<polygon fill="#191970" stroke="#191970" points="207.936,-8.5265 197.705,-11.2793 207.4196,-15.5075 207.936,-8.5265"/>
</g>
<!-- Node8 -->
<g id="node9" class="node">
<title>Node8</title>
<polygon fill="#ffffff" stroke="#bfbfbf" points="1075.2765,-110.5 1075.2765,-128.5 1115.7296,-128.5 1115.7296,-110.5 1075.2765,-110.5"/>
<text text-anchor="middle" x="1095.503" y="-116.5" font-family="Helvetica,sans-Serif" font-size="10.00" fill="#000000">string</text>
</g>
<!-- Node3&#45;&gt;Node8 -->
<g id="edge8" class="edge">
<title>Node3&#45;&gt;Node8</title>
<path fill="none" stroke="#191970" d="M1112.9482,-220.4982C1109.8725,-202.6913 1102.9515,-162.6225 1098.811,-138.6515"/>
<polygon fill="#191970" stroke="#191970" points="1102.2305,-137.8845 1097.0794,-128.6261 1095.3326,-139.076 1102.2305,-137.8845"/>
</g>
<!-- Node3&#45;&gt;Node9 -->
<g id="edge9" class="edge">
<title>Node3&#45;&gt;Node9</title>
<path fill="none" stroke="#191970" d="M1117.8582,-220.4982C1124.5554,-202.5302 1139.7011,-161.8954 1148.6059,-138.0046"/>
<polygon fill="#191970" stroke="#191970" points="1151.8885,-139.2188 1152.1015,-128.6261 1145.3293,-136.774 1151.8885,-139.2188"/>
</g>
<!-- Node10&#45;&gt;Node8 -->
<g id="edge27" class="edge">
<title>Node10&#45;&gt;Node8</title>
<path fill="none" stroke="#191970" d="M810.4528,-275.4673C847.2463,-258.6237 928.0151,-220.7848 993.503,-184 1021.8587,-168.0725 1053.3291,-147.746 1073.7115,-134.2112"/>
<polygon fill="#191970" stroke="#191970" points="1075.874,-136.9758 1082.2452,-128.5106 1071.9857,-131.155 1075.874,-136.9758"/>
</g>
<!-- Node10&#45;&gt;Node11 -->
<g id="edge11" class="edge">
<title>Node10&#45;&gt;Node11</title>
<path fill="none" stroke="#191970" d="M767.55,-275.4179C744.713,-266.3817 709.4667,-252.4353 683.8086,-242.2828"/>
<polygon fill="#191970" stroke="#191970" points="685.0765,-239.0205 674.4902,-238.5956 682.5009,-245.5295 685.0765,-239.0205"/>
</g>
<!-- Node16 -->
<g id="node17" class="node">
<title>Node16</title>
<polygon fill="#ffffff" stroke="#bfbfbf" points="1018.1163,-110.5 1018.1163,-128.5 1056.8898,-128.5 1056.8898,-110.5 1018.1163,-110.5"/>
<text text-anchor="middle" x="1037.503" y="-116.5" font-family="Helvetica,sans-Serif" font-size="10.00" fill="#000000">limits</text>
</g>
<!-- Node10&#45;&gt;Node16 -->
<g id="edge25" class="edge">
<title>Node10&#45;&gt;Node16</title>
<path fill="none" stroke="#191970" d="M797.8785,-275.4439C816.0676,-253.6308 865.3903,-197.5778 917.503,-165 946.0636,-147.1457 982.7382,-134.5116 1007.9847,-127.1585"/>
<polygon fill="#191970" stroke="#191970" points="1009.0396,-130.4977 1017.718,-124.4201 1007.1438,-123.7593 1009.0396,-130.4977"/>
</g>
<!-- Node10&#45;&gt;Node17 -->
<g id="edge26" class="edge">
<title>Node10&#45;&gt;Node17</title>
<path fill="none" stroke="#191970" d="M736.0907,-280.1376C660.3099,-273.4362 527.3531,-259.2278 483.503,-239 430.489,-214.5449 382.558,-163.0378 360.0441,-136.3417"/>
<polygon fill="#191970" stroke="#191970" points="362.7226,-134.0886 353.6532,-128.6116 357.3277,-138.5489 362.7226,-134.0886"/>
</g>
<!-- Node11&#45;&gt;Node4 -->
<g id="edge12" class="edge">
<title>Node11&#45;&gt;Node4</title>
<path fill="none" stroke="#191970" d="M638.884,-220.282C628.7853,-212.0582 615.3749,-199.0182 609.503,-184 603.5628,-168.8069 604.6678,-129.0763 614.503,-110 620.8852,-97.6213 632.2074,-87.1921 642.7529,-79.4545"/>
<polygon fill="#191970" stroke="#191970" points="645.0264,-82.1398 651.303,-73.6043 641.0736,-76.3627 645.0264,-82.1398"/>
</g>
<!-- Node11&#45;&gt;Node5 -->
<g id="edge13" class="edge">
<title>Node11&#45;&gt;Node5</title>
<path fill="none" stroke="#191970" d="M680.3321,-225.6905C739.195,-217.9067 877.4453,-199.5955 993.503,-184 1005.5079,-182.3868 1018.6689,-180.6044 1030.307,-179.0233"/>
<polygon fill="#191970" stroke="#191970" points="1031.0529,-182.4542 1040.4901,-177.6387 1030.1096,-175.518 1031.0529,-182.4542"/>
</g>
<!-- Node11&#45;&gt;Node6 -->
<g id="edge14" class="edge">
<title>Node11&#45;&gt;Node6</title>
<path fill="none" stroke="#191970" d="M680.1603,-224.9359C728.287,-217.1743 828.3468,-200.6231 912.503,-184 913.5906,-183.7852 914.6929,-183.5642 915.8048,-183.3385"/>
<polygon fill="#191970" stroke="#191970" points="916.8622,-186.693 925.9315,-181.216 915.4262,-179.8419 916.8622,-186.693"/>
</g>
<!-- Node11&#45;&gt;Node7 -->
<g id="edge15" class="edge">
<title>Node11&#45;&gt;Node7</title>
<path fill="none" stroke="#191970" d="M622.6595,-225.6531C608.4702,-223.8222 591.1042,-221.6731 575.503,-220 530.9133,-215.2181 206.6161,-214.243 173.503,-184 130.1204,-144.3776 152.4684,-64.6413 165.8538,-28.3088"/>
<polygon fill="#191970" stroke="#191970" points="169.297,-29.1085 169.6375,-18.5191 162.7677,-26.5849 169.297,-29.1085"/>
</g>
<!-- Node11&#45;&gt;Node8 -->
<g id="edge16" class="edge">
<title>Node11&#45;&gt;Node8</title>
<path fill="none" stroke="#191970" d="M680.385,-220.7646C724.2443,-207.6679 810.3846,-182.6045 884.503,-165 964.3031,-146.046 986.0633,-149.4117 1065.503,-129 1065.6023,-128.9745 1065.7016,-128.9489 1065.8011,-128.9231"/>
<polygon fill="#191970" stroke="#191970" points="1066.5899,-132.3375 1075.2575,-126.2445 1064.6821,-125.6025 1066.5899,-132.3375"/>
</g>
<!-- Node11&#45;&gt;Node9 -->
<g id="edge17" class="edge">
<title>Node11&#45;&gt;Node9</title>
<path fill="none" stroke="#191970" d="M680.0952,-224.4647C720.9132,-217.0216 798.0803,-202.0033 862.503,-184 887.4107,-177.0394 892.4606,-171.4586 917.503,-165 1004.8346,-142.4767 1031.8475,-150.1425 1123.592,-128.9504"/>
<polygon fill="#191970" stroke="#191970" points="1124.6542,-132.2959 1133.581,-126.5895 1123.0441,-125.4836 1124.6542,-132.2959"/>
</g>
<!-- Node12 -->
<g id="node13" class="node">
<title>Node12</title>
<g id="a_node13"><a xlink:href="common_8h.html" target="_top" xlink:title="crypto/common.h">
<polygon fill="#ffffff" stroke="#000000" points="182.1559,-165.5 182.1559,-183.5 274.8502,-183.5 274.8502,-165.5 182.1559,-165.5"/>
<text text-anchor="middle" x="228.503" y="-171.5" font-family="Helvetica,sans-Serif" font-size="10.00" fill="#000000">crypto/common.h</text>
</a>
</g>
</g>
<!-- Node11&#45;&gt;Node12 -->
<g id="edge18" class="edge">
<title>Node11&#45;&gt;Node12</title>
<path fill="none" stroke="#191970" d="M622.7611,-225.7629C553.5587,-216.7649 376.6565,-193.7635 285.1842,-181.8699"/>
<polygon fill="#191970" stroke="#191970" points="285.3679,-178.3644 275.0001,-180.5457 284.4653,-185.306 285.3679,-178.3644"/>
</g>
<!-- Node12&#45;&gt;Node7 -->
<g id="edge19" class="edge">
<title>Node12&#45;&gt;Node7</title>
<path fill="none" stroke="#191970" d="M210.7645,-165.4258C197.7827,-157.6967 181.1539,-145.259 173.503,-129 158.1825,-96.4423 163.621,-53.15 168.7225,-28.612"/>
<polygon fill="#191970" stroke="#191970" points="172.1574,-29.2912 170.9669,-18.7634 165.3323,-27.7357 172.1574,-29.2912"/>
</g>
<!-- Node13 -->
<g id="node14" class="node">
<title>Node13</title>
<polygon fill="#ffffff" stroke="#bfbfbf" points="340.1066,-55.5 340.1066,-73.5 388.8995,-73.5 388.8995,-55.5 340.1066,-55.5"/>
<text text-anchor="middle" x="364.503" y="-61.5" font-family="Helvetica,sans-Serif" font-size="10.00" fill="#000000">string.h</text>
</g>
<!-- Node12&#45;&gt;Node13 -->
<g id="edge20" class="edge">
<title>Node12&#45;&gt;Node13</title>
<path fill="none" stroke="#191970" d="M239.6325,-165.4982C262.7441,-146.805 316.1877,-103.5786 345.0965,-80.1964"/>
<polygon fill="#191970" stroke="#191970" points="347.6457,-82.6362 353.2198,-73.6261 343.2436,-77.1936 347.6457,-82.6362"/>
</g>
<!-- Node14 -->
<g id="node15" class="node">
<title>Node14</title>
<g id="a_node15"><a xlink:href="endian_8h.html" target="_top" xlink:title="compat/endian.h">
<polygon fill="#ffffff" stroke="#000000" points="182.5328,-110.5 182.5328,-128.5 272.4733,-128.5 272.4733,-110.5 182.5328,-110.5"/>
<text text-anchor="middle" x="227.503" y="-116.5" font-family="Helvetica,sans-Serif" font-size="10.00" fill="#000000">compat/endian.h</text>
</a>
</g>
</g>
<!-- Node12&#45;&gt;Node14 -->
<g id="edge21" class="edge">
<title>Node12&#45;&gt;Node14</title>
<path fill="none" stroke="#191970" d="M228.3379,-165.4179C228.207,-158.2164 228.0193,-147.8962 227.8551,-138.8632"/>
<polygon fill="#191970" stroke="#191970" points="231.3531,-138.7141 227.6718,-128.7795 224.3542,-138.8415 231.3531,-138.7141"/>
</g>
<!-- Node14&#45;&gt;Node7 -->
<g id="edge24" class="edge">
<title>Node14&#45;&gt;Node7</title>
<path fill="none" stroke="#191970" d="M223.084,-110.4982C214.2238,-92.4496 194.1362,-51.5306 182.4299,-27.6843"/>
<polygon fill="#191970" stroke="#191970" points="185.5318,-26.0605 177.9831,-18.6261 179.2481,-29.1452 185.5318,-26.0605"/>
</g>
<!-- Node15 -->
<g id="node16" class="node">
<title>Node15</title>
<g id="a_node16"><a xlink:href="byteswap_8h.html" target="_top" xlink:title="compat/byteswap.h">
<polygon fill="#ffffff" stroke="#000000" points="220.4244,-55.5 220.4244,-73.5 322.5817,-73.5 322.5817,-55.5 220.4244,-55.5"/>
<text text-anchor="middle" x="271.503" y="-61.5" font-family="Helvetica,sans-Serif" font-size="10.00" fill="#000000">compat/byteswap.h</text>
</a>
</g>
</g>
<!-- Node14&#45;&gt;Node15 -->
<g id="edge22" class="edge">
<title>Node14&#45;&gt;Node15</title>
<path fill="none" stroke="#191970" d="M234.7687,-110.4179C240.9731,-102.6624 250.071,-91.29 257.6602,-81.8035"/>
<polygon fill="#191970" stroke="#191970" points="260.5655,-83.7746 264.0795,-73.7795 255.0994,-79.4017 260.5655,-83.7746"/>
</g>
<!-- Node15&#45;&gt;Node7 -->
<g id="edge23" class="edge">
<title>Node15&#45;&gt;Node7</title>
<path fill="none" stroke="#191970" d="M255.3203,-55.4179C239.8578,-46.7399 216.3263,-33.5334 198.4622,-23.5077"/>
<polygon fill="#191970" stroke="#191970" points="200.1433,-20.4377 189.7098,-18.5956 196.7173,-26.542 200.1433,-20.4377"/>
</g>
<!-- Node18&#45;&gt;Node11 -->
<g id="edge85" class="edge">
<title>Node18&#45;&gt;Node11</title>
<path fill="none" stroke="#191970" d="M702.9203,-330.4982C693.7319,-312.4496 672.9004,-271.5306 660.7605,-247.6843"/>
<polygon fill="#191970" stroke="#191970" points="663.805,-245.9499 656.1491,-238.6261 657.5669,-249.1257 663.805,-245.9499"/>
</g>
<!-- Node19 -->
<g id="node20" class="node">
<title>Node19</title>
<g id="a_node20"><a xlink:href="transaction_8h.html" target="_top" xlink:title="primitives/transaction.h">
<polygon fill="#ffffff" stroke="#000000" points="478.3727,-275.5 478.3727,-293.5 596.6334,-293.5 596.6334,-275.5 478.3727,-275.5"/>
<text text-anchor="middle" x="537.503" y="-281.5" font-family="Helvetica,sans-Serif" font-size="10.00" fill="#000000">primitives/transaction.h</text>
</a>
</g>
</g>
<!-- Node18&#45;&gt;Node19 -->
<g id="edge29" class="edge">
<title>Node18&#45;&gt;Node19</title>
<path fill="none" stroke="#191970" d="M679.431,-330.4179C650.9236,-321.1949 606.6056,-306.8567 575.083,-296.6582"/>
<polygon fill="#191970" stroke="#191970" points="575.9261,-293.2524 565.3342,-293.5042 573.7713,-299.9125 575.9261,-293.2524"/>
</g>
<!-- Node42 -->
<g id="node39" class="node">
<title>Node42</title>
<g id="a_node39"><a xlink:href="serialize_8h.html" target="_top" xlink:title="serialize.h">
<polygon fill="#ffffff" stroke="#000000" points="618.9933,-165.5 618.9933,-183.5 680.0128,-183.5 680.0128,-165.5 618.9933,-165.5"/>
<text text-anchor="middle" x="649.503" y="-171.5" font-family="Helvetica,sans-Serif" font-size="10.00" fill="#000000">serialize.h</text>
</a>
</g>
</g>
<!-- Node18&#45;&gt;Node42 -->
<g id="edge84" class="edge">
<title>Node18&#45;&gt;Node42</title>
<path fill="none" stroke="#191970" d="M707.8362,-330.3088C708.2311,-309.5828 707.1985,-258.0474 689.503,-220 684.4466,-209.128 675.9614,-198.9161 668.1039,-190.9323"/>
<polygon fill="#191970" stroke="#191970" points="670.2483,-188.1397 660.6059,-183.7493 665.4059,-193.1945 670.2483,-188.1397"/>
</g>
<!-- Node19&#45;&gt;Node7 -->
<g id="edge30" class="edge">
<title>Node19&#45;&gt;Node7</title>
<path fill="none" stroke="#191970" d="M503.8917,-275.4702C414.3052,-251.3704 176.3749,-187.1413 173.503,-184 134.0441,-140.8399 154.0915,-63.5542 166.341,-28.1453"/>
<polygon fill="#191970" stroke="#191970" points="169.6893,-29.1789 169.8177,-18.5849 163.1108,-26.7865 169.6893,-29.1789"/>
</g>
<!-- Node19&#45;&gt;Node11 -->
<g id="edge83" class="edge">
<title>Node19&#45;&gt;Node11</title>
<path fill="none" stroke="#191970" d="M556.3278,-275.4179C574.6449,-266.5807 602.696,-253.0473 623.6061,-242.9591"/>
<polygon fill="#191970" stroke="#191970" points="625.1646,-246.0933 632.6503,-238.5956 622.1228,-239.7887 625.1646,-246.0933"/>
</g>
<!-- Node20 -->
<g id="node21" class="node">
<title>Node20</title>
<g id="a_node21"><a xlink:href="amount_8h.html" target="_top" xlink:title="amount.h">
<polygon fill="#ffffff" stroke="#000000" points="230.6559,-220.5 230.6559,-238.5 288.3502,-238.5 288.3502,-220.5 230.6559,-220.5"/>
<text text-anchor="middle" x="259.503" y="-226.5" font-family="Helvetica,sans-Serif" font-size="10.00" fill="#000000">amount.h</text>
</a>
</g>
</g>
<!-- Node19&#45;&gt;Node20 -->
<g id="edge31" class="edge">
<title>Node19&#45;&gt;Node20</title>
<path fill="none" stroke="#191970" d="M488.8207,-275.4592C441.2436,-266.5329 366.7959,-252.3238 302.503,-239 301.2397,-238.7382 299.9561,-238.4696 298.6604,-238.1963"/>
<polygon fill="#191970" stroke="#191970" points="299.137,-234.719 288.6251,-236.0421 297.6678,-241.5631 299.137,-234.719"/>
</g>
<!-- Node21 -->
<g id="node22" class="node">
<title>Node21</title>
<g id="a_node22"><a xlink:href="script_8h.html" target="_top" xlink:title="script/script.h">
<polygon fill="#ffffff" stroke="#000000" points="492.0524,-220.5 492.0524,-238.5 566.9537,-238.5 566.9537,-220.5 492.0524,-220.5"/>
<text text-anchor="middle" x="529.503" y="-226.5" font-family="Helvetica,sans-Serif" font-size="10.00" fill="#000000">script/script.h</text>
</a>
</g>
</g>
<!-- Node19&#45;&gt;Node21 -->
<g id="edge33" class="edge">
<title>Node19&#45;&gt;Node21</title>
<path fill="none" stroke="#191970" d="M536.182,-275.4179C535.1345,-268.2164 533.6334,-257.8962 532.3195,-248.8632"/>
<polygon fill="#191970" stroke="#191970" points="535.7558,-248.1715 530.8528,-238.7795 528.8287,-249.1791 535.7558,-248.1715"/>
</g>
<!-- Node19&#45;&gt;Node42 -->
<g id="edge82" class="edge">
<title>Node19&#45;&gt;Node42</title>
<path fill="none" stroke="#191970" d="M546.6685,-275.4982C565.5375,-256.9662 608.957,-214.3221 632.901,-190.8056"/>
<polygon fill="#191970" stroke="#191970" points="635.5289,-193.1303 640.211,-183.6261 630.624,-188.1362 635.5289,-193.1303"/>
</g>
<!-- Node20&#45;&gt;Node7 -->
<g id="edge32" class="edge">
<title>Node20&#45;&gt;Node7</title>
<path fill="none" stroke="#191970" d="M230.4714,-228.2645C173.8682,-225.1822 52.0505,-215.0189 26.503,-184 -9.9463,-139.7444 -7.5202,-101.1468 26.503,-55 39.9647,-36.7415 100.256,-22.6844 139.3216,-15.2895"/>
<polygon fill="#191970" stroke="#191970" points="140.0342,-18.7172 149.2375,-13.4684 138.7697,-11.8324 140.0342,-18.7172"/>
</g>
<!-- Node21&#45;&gt;Node4 -->
<g id="edge74" class="edge">
<title>Node21&#45;&gt;Node4</title>
<path fill="none" stroke="#191970" d="M533.8446,-220.32C544.1445,-199.1755 571.7417,-146.0896 605.503,-110 616.6593,-98.0743 631.3082,-87.1579 643.5655,-79.0086"/>
<polygon fill="#191970" stroke="#191970" points="645.4704,-81.9449 651.984,-73.5888 641.6811,-76.0591 645.4704,-81.9449"/>
</g>
<!-- Node21&#45;&gt;Node6 -->
<g id="edge77" class="edge">
<title>Node21&#45;&gt;Node6</title>
<path fill="none" stroke="#191970" d="M567.3077,-224.6191C647.4849,-214.2676 833.9244,-190.1968 915.7725,-179.6295"/>
<polygon fill="#191970" stroke="#191970" points="916.4453,-183.0718 925.9148,-178.3201 915.5489,-176.1294 916.4453,-183.0718"/>
</g>
<!-- Node21&#45;&gt;Node7 -->
<g id="edge78" class="edge">
<title>Node21&#45;&gt;Node7</title>
<path fill="none" stroke="#191970" d="M491.8535,-227.5183C407.1644,-222.6723 204.0988,-208.772 140.503,-184 101.6515,-168.8664 83.4669,-166.1327 64.503,-129 49.5444,-99.7098 46.2685,-82.3711 64.503,-55 80.9906,-30.2512 113.7767,-18.9409 139.1048,-13.7856"/>
<polygon fill="#191970" stroke="#191970" points="139.8664,-17.2048 149.0868,-11.9863 138.6245,-10.3159 139.8664,-17.2048"/>
</g>
<!-- Node21&#45;&gt;Node8 -->
<g id="edge80" class="edge">
<title>Node21&#45;&gt;Node8</title>
<path fill="none" stroke="#191970" d="M567.024,-220.7808C641.7421,-203.4237 802.5072,-166.1108 808.503,-165 918.8097,-144.5647 951.2568,-153.9479 1065.1673,-128.7126"/>
<polygon fill="#191970" stroke="#191970" points="1065.9863,-132.1159 1074.9709,-126.5008 1064.4457,-125.2875 1065.9863,-132.1159"/>
</g>
<!-- Node21&#45;&gt;Node9 -->
<g id="edge81" class="edge">
<title>Node21&#45;&gt;Node9</title>
<path fill="none" stroke="#191970" d="M567.378,-223.5024C616.9848,-215.461 706.5795,-200.2984 782.503,-184 816.5448,-176.6923 824.3106,-171.567 858.503,-165 972.4582,-143.1137 1006.1433,-153.9284 1123.5049,-128.8917"/>
<polygon fill="#191970" stroke="#191970" points="1124.5779,-132.2402 1133.6049,-126.6937 1123.0893,-125.4003 1124.5779,-132.2402"/>
</g>
<!-- Node21&#45;&gt;Node12 -->
<g id="edge34" class="edge">
<title>Node21&#45;&gt;Node12</title>
<path fill="none" stroke="#191970" d="M491.9898,-222.6454C439.9972,-213.1451 345.608,-195.8979 285.0475,-184.832"/>
<polygon fill="#191970" stroke="#191970" points="285.3576,-181.3308 274.8913,-182.9763 284.0993,-188.2168 285.3576,-181.3308"/>
</g>
<!-- Node21&#45;&gt;Node13 -->
<g id="edge79" class="edge">
<title>Node21&#45;&gt;Node13</title>
<path fill="none" stroke="#191970" d="M514.5839,-220.467C500.9207,-211.8756 480.4576,-198.1885 464.503,-184 428.4739,-151.959 394.1414,-106.6096 376.6069,-82.0134"/>
<polygon fill="#191970" stroke="#191970" points="379.3568,-79.8392 370.7406,-73.6738 373.6314,-83.8667 379.3568,-79.8392"/>
</g>
<!-- Node21&#45;&gt;Node16 -->
<g id="edge76" class="edge">
<title>Node21&#45;&gt;Node16</title>
<path fill="none" stroke="#191970" d="M566.8251,-220.4557C599.5515,-212.155 648.2166,-198.9101 689.503,-184 709.1544,-176.9031 712.4049,-170.7103 732.503,-165 844.7196,-133.117 877.5828,-149.0608 992.503,-129 997.4535,-128.1358 1002.6898,-127.1224 1007.772,-126.0853"/>
<polygon fill="#191970" stroke="#191970" points="1008.7829,-129.4492 1017.8469,-123.9635 1007.3403,-122.5995 1008.7829,-129.4492"/>
</g>
<!-- Node22 -->
<g id="node23" class="node">
<title>Node22</title>
<g id="a_node23"><a xlink:href="prevector_8h.html" target="_top" xlink:title="prevector.h">
<polygon fill="#ffffff" stroke="#000000" points="458.7643,-110.5 458.7643,-128.5 524.2418,-128.5 524.2418,-110.5 458.7643,-110.5"/>
<text text-anchor="middle" x="491.503" y="-116.5" font-family="Helvetica,sans-Serif" font-size="10.00" fill="#000000">prevector.h</text>
</a>
</g>
</g>
<!-- Node21&#45;&gt;Node22 -->
<g id="edge35" class="edge">
<title>Node21&#45;&gt;Node22</title>
<path fill="none" stroke="#191970" d="M510.2573,-220.3502C496.6688,-212.7258 479.5095,-200.4571 471.503,-184 464.1566,-168.8996 471.292,-150.505 479.0035,-137.2298"/>
<polygon fill="#191970" stroke="#191970" points="482.0895,-138.9003 484.5218,-128.5884 476.1898,-135.1328 482.0895,-138.9003"/>
</g>
<!-- Node21&#45;&gt;Node42 -->
<g id="edge55" class="edge">
<title>Node21&#45;&gt;Node42</title>
<path fill="none" stroke="#191970" d="M549.3186,-220.4179C568.6866,-211.5409 598.3934,-197.9253 620.4348,-187.823"/>
<polygon fill="#191970" stroke="#191970" points="622.0257,-190.944 629.658,-183.5956 619.1091,-184.5805 622.0257,-190.944"/>
</g>
<!-- Node49 -->
<g id="node46" class="node">
<title>Node49</title>
<polygon fill="#ffffff" stroke="#bfbfbf" points="480.6163,-165.5 480.6163,-183.5 524.3898,-183.5 524.3898,-165.5 480.6163,-165.5"/>
<text text-anchor="middle" x="502.503" y="-171.5" font-family="Helvetica,sans-Serif" font-size="10.00" fill="#000000">climits</text>
</g>
<!-- Node21&#45;&gt;Node49 -->
<g id="edge75" class="edge">
<title>Node21&#45;&gt;Node49</title>
<path fill="none" stroke="#191970" d="M525.0445,-220.4179C521.3927,-212.9789 516.1073,-202.2123 511.5722,-192.9742"/>
<polygon fill="#191970" stroke="#191970" points="514.607,-191.2138 507.0584,-183.7795 508.3234,-194.2985 514.607,-191.2138"/>
</g>
<!-- Node22&#45;&gt;Node4 -->
<g id="edge36" class="edge">
<title>Node22&#45;&gt;Node4</title>
<path fill="none" stroke="#191970" d="M520.5659,-110.4179C551.0919,-100.8785 599.1292,-85.8668 631.9078,-75.6235"/>
<polygon fill="#191970" stroke="#191970" points="633.0535,-78.9325 641.5543,-72.609 630.9655,-72.2511 633.0535,-78.9325"/>
</g>
<!-- Node22&#45;&gt;Node7 -->
<g id="edge38" class="edge">
<title>Node22&#45;&gt;Node7</title>
<path fill="none" stroke="#191970" d="M503.4087,-110.4336C519.3256,-97.2454 543.8543,-72.4444 528.503,-55 507.4917,-31.1238 293.0153,-16.3351 207.9718,-11.3702"/>
<polygon fill="#191970" stroke="#191970" points="207.9793,-7.865 197.7954,-10.7871 207.5788,-14.8535 207.9793,-7.865"/>
</g>
<!-- Node22&#45;&gt;Node13 -->
<g id="edge39" class="edge">
<title>Node22&#45;&gt;Node13</title>
<path fill="none" stroke="#191970" d="M470.5316,-110.4179C449.9419,-101.5011 418.3119,-87.803 394.9536,-77.6873"/>
<polygon fill="#191970" stroke="#191970" points="396.073,-74.358 385.5057,-73.5956 393.2912,-80.7815 396.073,-74.358"/>
</g>
<!-- Node23 -->
<g id="node24" class="node">
<title>Node23</title>
<polygon fill="#ffffff" stroke="#bfbfbf" points="406.6608,-55.5 406.6608,-73.5 454.3453,-73.5 454.3453,-55.5 406.6608,-55.5"/>
<text text-anchor="middle" x="430.503" y="-61.5" font-family="Helvetica,sans-Serif" font-size="10.00" fill="#000000">stdlib.h</text>
</g>
<!-- Node22&#45;&gt;Node23 -->
<g id="edge37" class="edge">
<title>Node22&#45;&gt;Node23</title>
<path fill="none" stroke="#191970" d="M481.4301,-110.4179C472.4775,-102.3458 459.1793,-90.3556 448.4167,-80.6517"/>
<polygon fill="#191970" stroke="#191970" points="450.5655,-77.8764 440.7948,-73.7795 445.878,-83.0753 450.5655,-77.8764"/>
</g>
<!-- Node24 -->
<g id="node25" class="node">
<title>Node24</title>
<polygon fill="#ffffff" stroke="#bfbfbf" points="575.3824,-55.5 575.3824,-73.5 623.6236,-73.5 623.6236,-55.5 575.3824,-55.5"/>
<text text-anchor="middle" x="599.503" y="-61.5" font-family="Helvetica,sans-Serif" font-size="10.00" fill="#000000">cstddef</text>
</g>
<!-- Node22&#45;&gt;Node24 -->
<g id="edge40" class="edge">
<title>Node22&#45;&gt;Node24</title>
<path fill="none" stroke="#191970" d="M509.337,-110.4179C526.5337,-101.6603 552.7867,-88.2907 572.5373,-78.2326"/>
<polygon fill="#191970" stroke="#191970" points="574.3198,-81.2526 581.6425,-73.5956 571.1432,-75.0148 574.3198,-81.2526"/>
</g>
<!-- Node25 -->
<g id="node26" class="node">
<title>Node25</title>
<polygon fill="#ffffff" stroke="#bfbfbf" points="471.9415,-55.5 471.9415,-73.5 519.0646,-73.5 519.0646,-55.5 471.9415,-55.5"/>
<text text-anchor="middle" x="495.503" y="-61.5" font-family="Helvetica,sans-Serif" font-size="10.00" fill="#000000">iterator</text>
</g>
<!-- Node22&#45;&gt;Node25 -->
<g id="edge41" class="edge">
<title>Node22&#45;&gt;Node25</title>
<path fill="none" stroke="#191970" d="M492.1636,-110.4179C492.6873,-103.2164 493.4379,-92.8962 494.0948,-83.8632"/>
<polygon fill="#191970" stroke="#191970" points="497.5935,-84.007 494.8282,-73.7795 490.6119,-83.4992 497.5935,-84.007"/>
</g>
<!-- Node26 -->
<g id="node27" class="node">
<title>Node26</title>
<polygon fill="#ffffff" stroke="#bfbfbf" points="1123.4366,-.5 1123.4366,-18.5 1185.5694,-18.5 1185.5694,-.5 1123.4366,-.5"/>
<text text-anchor="middle" x="1154.503" y="-6.5" font-family="Helvetica,sans-Serif" font-size="10.00" fill="#000000">type_traits</text>
</g>
<!-- Node22&#45;&gt;Node26 -->
<g id="edge42" class="edge">
<title>Node22&#45;&gt;Node26</title>
<path fill="none" stroke="#191970" d="M524.2496,-117.0039C589.9414,-111.6767 742.3193,-97.7078 868.503,-74 901.8748,-67.73 909.4325,-62.7023 942.503,-55 1015.4483,-38.0107 1036.5685,-36.156 1112.9645,-19.2955"/>
<polygon fill="#191970" stroke="#191970" points="1114.0762,-22.6339 1123.0786,-17.0475 1112.5573,-15.8007 1114.0762,-22.6339"/>
</g>
<!-- Node27 -->
<g id="node28" class="node">
<title>Node27</title>
<g id="a_node28"><a xlink:href="compat_8h.html" target="_top" xlink:title="compat.h">
<polygon fill="#ffffff" stroke="#ff0000" points="801.9366,-55.5 801.9366,-73.5 859.0694,-73.5 859.0694,-55.5 801.9366,-55.5"/>
<text text-anchor="middle" x="830.503" y="-61.5" font-family="Helvetica,sans-Serif" font-size="10.00" fill="#000000">compat.h</text>
</a>
</g>
</g>
<!-- Node22&#45;&gt;Node27 -->
<g id="edge43" class="edge">
<title>Node22&#45;&gt;Node27</title>
<path fill="none" stroke="#191970" d="M524.3158,-114.1764C587.0908,-103.9917 723.9303,-81.7906 791.3565,-70.8512"/>
<polygon fill="#191970" stroke="#191970" points="792.2497,-74.2522 801.56,-69.1958 791.1286,-67.3425 792.2497,-74.2522"/>
</g>
<!-- Node27&#45;&gt;Node26 -->
<g id="edge44" class="edge">
<title>Node27&#45;&gt;Node26</title>
<path fill="none" stroke="#191970" d="M859.2912,-58.8514C866.2285,-57.5397 873.6236,-56.1824 880.503,-55 981.0667,-37.7163 1009.5248,-39.0708 1113.1799,-19.1379"/>
<polygon fill="#191970" stroke="#191970" points="1113.9635,-22.5512 1123.1121,-17.2076 1112.628,-15.6798 1113.9635,-22.5512"/>
</g>
<!-- Node28 -->
<g id="node29" class="node">
<title>Node28</title>
<polygon fill="#ffffff" stroke="#bfbfbf" points="326.1632,-.5 326.1632,-18.5 368.8429,-18.5 368.8429,-.5 326.1632,-.5"/>
<text text-anchor="middle" x="347.503" y="-6.5" font-family="Helvetica,sans-Serif" font-size="10.00" fill="#000000">fcntl.h</text>
</g>
<!-- Node27&#45;&gt;Node28 -->
<g id="edge45" class="edge">
<title>Node27&#45;&gt;Node28</title>
<path fill="none" stroke="#191970" d="M801.9195,-57.6424C797.126,-56.6486 792.1881,-55.7201 787.503,-55 609.9693,-27.7127 558.7265,-53.8465 379.0357,-18.9142"/>
<polygon fill="#191970" stroke="#191970" points="379.4749,-15.4333 368.9854,-16.9234 378.1146,-22.2999 379.4749,-15.4333"/>
</g>
<!-- Node29 -->
<g id="node30" class="node">
<title>Node29</title>
<polygon fill="#ffffff" stroke="#bfbfbf" points="386.5524,-.5 386.5524,-18.5 456.4537,-18.5 456.4537,-.5 386.5524,-.5"/>
<text text-anchor="middle" x="421.503" y="-6.5" font-family="Helvetica,sans-Serif" font-size="10.00" fill="#000000">sys/mman.h</text>
</g>
<!-- Node27&#45;&gt;Node29 -->
<g id="edge46" class="edge">
<title>Node27&#45;&gt;Node29</title>
<path fill="none" stroke="#191970" d="M801.9041,-57.7382C797.1125,-56.7329 792.1792,-55.7757 787.503,-55 648.6325,-31.9634 609.3721,-41.758 466.52,-19.0124"/>
<polygon fill="#191970" stroke="#191970" points="466.9372,-15.5345 456.5065,-17.3922 465.8191,-22.4446 466.9372,-15.5345"/>
</g>
<!-- Node30 -->
<g id="node31" class="node">
<title>Node30</title>
<polygon fill="#ffffff" stroke="#bfbfbf" points="474.3824,-.5 474.3824,-18.5 542.6236,-18.5 542.6236,-.5 474.3824,-.5"/>
<text text-anchor="middle" x="508.503" y="-6.5" font-family="Helvetica,sans-Serif" font-size="10.00" fill="#000000">sys/select.h</text>
</g>
<!-- Node27&#45;&gt;Node30 -->
<g id="edge47" class="edge">
<title>Node27&#45;&gt;Node30</title>
<path fill="none" stroke="#191970" d="M801.8758,-57.8992C797.0876,-56.8745 792.1628,-55.8692 787.503,-55 686.3574,-36.1338 657.5354,-38.2995 552.7676,-19.1339"/>
<polygon fill="#191970" stroke="#191970" points="553.199,-15.6544 542.7289,-17.2753 551.9246,-22.5374 553.199,-15.6544"/>
</g>
<!-- Node31 -->
<g id="node32" class="node">
<title>Node31</title>
<polygon fill="#ffffff" stroke="#bfbfbf" points="560.9933,-.5 560.9933,-18.5 632.0128,-18.5 632.0128,-.5 560.9933,-.5"/>
<text text-anchor="middle" x="596.503" y="-6.5" font-family="Helvetica,sans-Serif" font-size="10.00" fill="#000000">sys/socket.h</text>
</g>
<!-- Node27&#45;&gt;Node31 -->
<g id="edge48" class="edge">
<title>Node27&#45;&gt;Node31</title>
<path fill="none" stroke="#191970" d="M801.81,-57.7559C762.0158,-48.4026 689.637,-31.3905 642.3178,-20.2684"/>
<polygon fill="#191970" stroke="#191970" points="642.8648,-16.8017 632.3292,-17.9207 641.2631,-23.616 642.8648,-16.8017"/>
</g>
<!-- Node32 -->
<g id="node33" class="node">
<title>Node32</title>
<polygon fill="#ffffff" stroke="#bfbfbf" points="650.4933,-.5 650.4933,-18.5 716.5128,-18.5 716.5128,-.5 650.4933,-.5"/>
<text text-anchor="middle" x="683.503" y="-6.5" font-family="Helvetica,sans-Serif" font-size="10.00" fill="#000000">sys/types.h</text>
</g>
<!-- Node27&#45;&gt;Node32 -->
<g id="edge49" class="edge">
<title>Node27&#45;&gt;Node32</title>
<path fill="none" stroke="#191970" d="M806.229,-55.4179C781.9713,-46.3419 744.4741,-32.3123 717.3099,-22.1488"/>
<polygon fill="#191970" stroke="#191970" points="718.4056,-18.8219 707.8132,-18.5956 715.9526,-25.378 718.4056,-18.8219"/>
</g>
<!-- Node33 -->
<g id="node34" class="node">
<title>Node33</title>
<polygon fill="#ffffff" stroke="#bfbfbf" points="734.4933,-.5 734.4933,-18.5 780.5128,-18.5 780.5128,-.5 734.4933,-.5"/>
<text text-anchor="middle" x="757.503" y="-6.5" font-family="Helvetica,sans-Serif" font-size="10.00" fill="#000000">net/if.h</text>
</g>
<!-- Node27&#45;&gt;Node33 -->
<g id="edge50" class="edge">
<title>Node27&#45;&gt;Node33</title>
<path fill="none" stroke="#191970" d="M818.4486,-55.4179C807.4197,-47.1084 790.8799,-34.6469 777.8124,-24.8015"/>
<polygon fill="#191970" stroke="#191970" points="779.9124,-22.0016 769.8194,-18.7795 775.7001,-27.5924 779.9124,-22.0016"/>
</g>
<!-- Node34 -->
<g id="node35" class="node">
<title>Node34</title>
<polygon fill="#ffffff" stroke="#bfbfbf" points="798.0401,-.5 798.0401,-18.5 862.9659,-18.5 862.9659,-.5 798.0401,-.5"/>
<text text-anchor="middle" x="830.503" y="-6.5" font-family="Helvetica,sans-Serif" font-size="10.00" fill="#000000">netinet/in.h</text>
</g>
<!-- Node27&#45;&gt;Node34 -->
<g id="edge51" class="edge">
<title>Node27&#45;&gt;Node34</title>
<path fill="none" stroke="#191970" d="M830.503,-55.4179C830.503,-48.2164 830.503,-37.8962 830.503,-28.8632"/>
<polygon fill="#191970" stroke="#191970" points="834.0031,-28.7794 830.503,-18.7795 827.0031,-28.7795 834.0031,-28.7794"/>
</g>
<!-- Node35 -->
<g id="node36" class="node">
<title>Node35</title>
<polygon fill="#ffffff" stroke="#bfbfbf" points="881.2618,-.5 881.2618,-18.5 951.7443,-18.5 951.7443,-.5 881.2618,-.5"/>
<text text-anchor="middle" x="916.503" y="-6.5" font-family="Helvetica,sans-Serif" font-size="10.00" fill="#000000">netinet/tcp.h</text>
</g>
<!-- Node27&#45;&gt;Node35 -->
<g id="edge52" class="edge">
<title>Node27&#45;&gt;Node35</title>
<path fill="none" stroke="#191970" d="M844.7042,-55.4179C858.0244,-46.8992 878.1681,-34.0166 893.7322,-24.0627"/>
<polygon fill="#191970" stroke="#191970" points="895.742,-26.932 902.2808,-18.5956 891.9706,-21.0348 895.742,-26.932"/>
</g>
<!-- Node36 -->
<g id="node37" class="node">
<title>Node36</title>
<polygon fill="#ffffff" stroke="#bfbfbf" points="969.8751,-.5 969.8751,-18.5 1033.131,-18.5 1033.131,-.5 969.8751,-.5"/>
<text text-anchor="middle" x="1001.503" y="-6.5" font-family="Helvetica,sans-Serif" font-size="10.00" fill="#000000">arpa/inet.h</text>
</g>
<!-- Node27&#45;&gt;Node36 -->
<g id="edge53" class="edge">
<title>Node27&#45;&gt;Node36</title>
<path fill="none" stroke="#191970" d="M858.7402,-55.4179C887.4153,-46.1949 931.994,-31.8567 963.7021,-21.6582"/>
<polygon fill="#191970" stroke="#191970" points="965.0601,-24.8981 973.5081,-18.5042 962.9167,-18.2343 965.0601,-24.8981"/>
</g>
<!-- Node37 -->
<g id="node38" class="node">
<title>Node37</title>
<polygon fill="#ffffff" stroke="#bfbfbf" points="1051.3258,-.5 1051.3258,-18.5 1105.6803,-18.5 1105.6803,-.5 1051.3258,-.5"/>
<text text-anchor="middle" x="1078.503" y="-6.5" font-family="Helvetica,sans-Serif" font-size="10.00" fill="#000000">ifaddrs.h</text>
</g>
<!-- Node27&#45;&gt;Node37 -->
<g id="edge54" class="edge">
<title>Node27&#45;&gt;Node37</title>
<path fill="none" stroke="#191970" d="M859.403,-58.742C898.4605,-50.8639 970.4861,-35.997 1041.0721,-19.2663"/>
<polygon fill="#191970" stroke="#191970" points="1042.1039,-22.6185 1051.0189,-16.8937 1040.4797,-15.8095 1042.1039,-22.6185"/>
</g>
<!-- Node42&#45;&gt;Node4 -->
<g id="edge58" class="edge">
<title>Node42&#45;&gt;Node4</title>
<path fill="none" stroke="#191970" d="M680.4838,-167.9376C685.1801,-166.9492 689.9693,-165.9449 694.503,-165 772.2392,-148.7989 819.3289,-190.5463 869.503,-129 874.8388,-122.4549 874.7775,-116.5946 869.503,-110 849.1271,-84.524 756.1103,-72.3014 703.6946,-67.3449"/>
<polygon fill="#191970" stroke="#191970" points="703.7507,-63.8358 693.4764,-66.422 703.121,-70.8074 703.7507,-63.8358"/>
</g>
<!-- Node42&#45;&gt;Node7 -->
<g id="edge64" class="edge">
<title>Node42&#45;&gt;Node7</title>
<path fill="none" stroke="#191970" d="M646.4179,-165.071C642.6907,-151.873 638.0192,-127.5424 647.503,-110 661.397,-84.3 688.609,-99.7 702.503,-74 706.519,-66.5716 708.2126,-61.2217 702.503,-55 694.0983,-45.8413 324.0805,-19.7997 207.9758,-11.8399"/>
<polygon fill="#191970" stroke="#191970" points="208.0785,-8.3388 197.863,-11.1483 207.6009,-15.3225 208.0785,-8.3388"/>
</g>
<!-- Node42&#45;&gt;Node8 -->
<g id="edge65" class="edge">
<title>Node42&#45;&gt;Node8</title>
<path fill="none" stroke="#191970" d="M680.096,-171.9452C760.0708,-165.1451 974.817,-146.0771 1065.1181,-128.5979"/>
<polygon fill="#191970" stroke="#191970" points="1065.8903,-132.0125 1074.9892,-126.5848 1064.4915,-125.1537 1065.8903,-132.0125"/>
</g>
<!-- Node42&#45;&gt;Node9 -->
<g id="edge68" class="edge">
<title>Node42&#45;&gt;Node9</title>
<path fill="none" stroke="#191970" d="M680.1048,-172.3806C768.03,-166.1671 1021.1054,-147.383 1123.6119,-128.7236"/>
<polygon fill="#191970" stroke="#191970" points="1124.4662,-132.1237 1133.6276,-126.8021 1123.1472,-125.249 1124.4662,-132.1237"/>
</g>
<!-- Node42&#45;&gt;Node13 -->
<g id="edge66" class="edge">
<title>Node42&#45;&gt;Node13</title>
<path fill="none" stroke="#191970" d="M618.721,-171.5877C578.2864,-166.8644 505.8176,-155.2651 449.503,-129 423.1977,-116.7312 397.2508,-95.318 381.0779,-80.5504"/>
<polygon fill="#191970" stroke="#191970" points="383.2547,-77.794 373.5614,-73.5173 378.4721,-82.9054 383.2547,-77.794"/>
</g>
<!-- Node42&#45;&gt;Node14 -->
<g id="edge56" class="edge">
<title>Node42&#45;&gt;Node14</title>
<path fill="none" stroke="#191970" d="M618.8139,-170.5002C548.0454,-161.2768 372.6059,-138.4115 282.6369,-126.6857"/>
<polygon fill="#191970" stroke="#191970" points="282.995,-123.2028 272.6265,-125.381 282.0903,-130.1441 282.995,-123.2028"/>
</g>
<!-- Node42&#45;&gt;Node16 -->
<g id="edge60" class="edge">
<title>Node42&#45;&gt;Node16</title>
<path fill="none" stroke="#191970" d="M680.4176,-167.5811C685.123,-166.6419 689.9324,-165.7462 694.503,-165 831.3944,-142.6509 868.5081,-156.2782 1004.503,-129 1005.7525,-128.7494 1007.0234,-128.4744 1008.3034,-128.1808"/>
<polygon fill="#191970" stroke="#191970" points="1009.2774,-131.5443 1018.0904,-125.6637 1007.5338,-124.7649 1009.2774,-131.5443"/>
</g>
<!-- Node42&#45;&gt;Node17 -->
<g id="edge61" class="edge">
<title>Node42&#45;&gt;Node17</title>
<path fill="none" stroke="#191970" d="M618.7823,-168.9236C559.7011,-158.1993 431.079,-134.8521 374.3428,-124.5534"/>
<polygon fill="#191970" stroke="#191970" points="374.771,-121.074 364.3067,-122.7317 373.5208,-127.9615 374.771,-121.074"/>
</g>
<!-- Node42&#45;&gt;Node22 -->
<g id="edge69" class="edge">
<title>Node42&#45;&gt;Node22</title>
<path fill="none" stroke="#191970" d="M623.4126,-165.4179C597.1469,-156.2748 556.4399,-142.1046 527.1939,-131.924"/>
<polygon fill="#191970" stroke="#191970" points="527.9645,-128.4863 517.3697,-128.5042 525.6632,-135.0973 527.9645,-128.4863"/>
</g>
<!-- Node43 -->
<g id="node40" class="node">
<title>Node43</title>
<polygon fill="#ffffff" stroke="#bfbfbf" points="967.9391,-55.5 967.9391,-73.5 1025.067,-73.5 1025.067,-55.5 967.9391,-55.5"/>
<text text-anchor="middle" x="996.503" y="-61.5" font-family="Helvetica,sans-Serif" font-size="10.00" fill="#000000">algorithm</text>
</g>
<!-- Node42&#45;&gt;Node43 -->
<g id="edge57" class="edge">
<title>Node42&#45;&gt;Node43</title>
<path fill="none" stroke="#191970" d="M680.4269,-167.637C685.131,-166.6901 689.9376,-165.7773 694.503,-165 755.6956,-154.581 922.6617,-167.3094 971.503,-129 985.3585,-118.1323 991.5436,-98.5546 994.2996,-83.8094"/>
<polygon fill="#191970" stroke="#191970" points="997.7938,-84.1071 995.8089,-73.6999 990.8705,-83.0734 997.7938,-84.1071"/>
</g>
<!-- Node44 -->
<g id="node41" class="node">
<title>Node44</title>
<polygon fill="#ffffff" stroke="#bfbfbf" points="657.003,-110.5 657.003,-128.5 686.003,-128.5 686.003,-110.5 657.003,-110.5"/>
<text text-anchor="middle" x="671.3946" y="-116.5" font-family="Helvetica,sans-Serif" font-size="10.00" fill="#000000">ios</text>
</g>
<!-- Node42&#45;&gt;Node44 -->
<g id="edge59" class="edge">
<title>Node42&#45;&gt;Node44</title>
<path fill="none" stroke="#191970" d="M653.1359,-165.4179C656.0798,-158.0581 660.3266,-147.441 663.9952,-138.2695"/>
<polygon fill="#191970" stroke="#191970" points="667.327,-139.3641 667.7913,-128.7795 660.8276,-136.7643 667.327,-139.3641"/>
</g>
<!-- Node45 -->
<g id="node42" class="node">
<title>Node45</title>
<polygon fill="#ffffff" stroke="#bfbfbf" points="704.4464,-110.5 704.4464,-128.5 756.5597,-128.5 756.5597,-110.5 704.4464,-110.5"/>
<text text-anchor="middle" x="730.503" y="-116.5" font-family="Helvetica,sans-Serif" font-size="10.00" fill="#000000">memory</text>
</g>
<!-- Node42&#45;&gt;Node45 -->
<g id="edge62" class="edge">
<title>Node42&#45;&gt;Node45</title>
<path fill="none" stroke="#191970" d="M662.8785,-165.4179C675.307,-156.9788 694.0428,-144.257 708.644,-134.3426"/>
<polygon fill="#191970" stroke="#191970" points="710.8007,-137.1088 717.1077,-128.5956 706.8684,-131.3176 710.8007,-137.1088"/>
</g>
<!-- Node46 -->
<g id="node43" class="node">
<title>Node46</title>
<polygon fill="#ffffff" stroke="#bfbfbf" points="774.8331,-110.5 774.8331,-128.5 804.173,-128.5 804.173,-110.5 774.8331,-110.5"/>
<text text-anchor="middle" x="789.503" y="-116.5" font-family="Helvetica,sans-Serif" font-size="10.00" fill="#000000">set</text>
</g>
<!-- Node42&#45;&gt;Node46 -->
<g id="edge63" class="edge">
<title>Node42&#45;&gt;Node46</title>
<path fill="none" stroke="#191970" d="M672.6207,-165.4567C694.2091,-157.0063 727.5628,-143.9372 765.1422,-129.1342"/>
<polygon fill="#191970" stroke="#191970" points="766.7623,-132.2578 774.7828,-125.3351 764.1959,-125.7452 766.7623,-132.2578"/>
</g>
<!-- Node47 -->
<g id="node44" class="node">
<title>Node47</title>
<polygon fill="#ffffff" stroke="#bfbfbf" points="822.1114,-110.5 822.1114,-128.5 860.8946,-128.5 860.8946,-110.5 822.1114,-110.5"/>
<text text-anchor="middle" x="841.503" y="-116.5" font-family="Helvetica,sans-Serif" font-size="10.00" fill="#000000">utility</text>
</g>
<!-- Node42&#45;&gt;Node47 -->
<g id="edge67" class="edge">
<title>Node42&#45;&gt;Node47</title>
<path fill="none" stroke="#191970" d="M680.1812,-166.543C711.3057,-158.3488 761.0675,-144.9167 812.373,-129.2382"/>
<polygon fill="#191970" stroke="#191970" points="813.4388,-132.5723 821.9667,-126.2853 811.3795,-125.882 813.4388,-132.5723"/>
</g>
<!-- Node48 -->
<g id="node45" class="node">
<title>Node48</title>
<g id="a_node45"><a xlink:href="span_8h.html" target="_top" xlink:title="span.h">
<polygon fill="#ffffff" stroke="#000000" points="916.4908,-110.5 916.4908,-128.5 962.5152,-128.5 962.5152,-110.5 916.4908,-110.5"/>
<text text-anchor="middle" x="939.503" y="-116.5" font-family="Helvetica,sans-Serif" font-size="10.00" fill="#000000">span.h</text>
</a>
</g>
</g>
<!-- Node42&#45;&gt;Node48 -->
<g id="edge70" class="edge">
<title>Node42&#45;&gt;Node48</title>
<path fill="none" stroke="#191970" d="M680.4581,-167.8093C685.1579,-166.8386 689.955,-165.8733 694.503,-165 786.6385,-147.3075 810.7719,-148.6816 902.503,-129 903.7797,-128.7261 905.0787,-128.4381 906.3893,-128.1399"/>
<polygon fill="#191970" stroke="#191970" points="907.5726,-131.4552 916.4778,-125.7152 905.9368,-124.649 907.5726,-131.4552"/>
</g>
<!-- Node48&#45;&gt;Node24 -->
<g id="edge72" class="edge">
<title>Node48&#45;&gt;Node24</title>
<path fill="none" stroke="#191970" d="M916.4824,-116.2689C854.6021,-107.5599 686.2818,-83.7083 633.754,-73.8944"/>
<polygon fill="#191970" stroke="#191970" points="634.4122,-70.4568 623.9191,-71.9212 633.0352,-77.32 634.4122,-70.4568"/>
</g>
<!-- Node48&#45;&gt;Node26 -->
<g id="edge71" class="edge">
<title>Node48&#45;&gt;Node26</title>
<path fill="none" stroke="#191970" d="M939.4714,-110.0993C939.9593,-96.0227 943.0383,-69.5684 958.503,-55 1008.0707,-8.3053 1042.1886,-32.8715 1113.2631,-19.0854"/>
<polygon fill="#191970" stroke="#191970" points="1114.0191,-22.5029 1123.0646,-16.9866 1112.5534,-15.6581 1114.0191,-22.5029"/>
</g>
<!-- Node48&#45;&gt;Node43 -->
<g id="edge73" class="edge">
<title>Node48&#45;&gt;Node43</title>
<path fill="none" stroke="#191970" d="M948.9154,-110.4179C957.199,-102.425 969.464,-90.5903 979.4676,-80.9377"/>
<polygon fill="#191970" stroke="#191970" points="982.1202,-83.2419 986.8861,-73.7795 977.2596,-78.2045 982.1202,-83.2419"/>
</g>
<!-- Node50&#45;&gt;Node6 -->
<g id="edge91" class="edge">
<title>Node50&#45;&gt;Node6</title>
<path fill="none" stroke="#191970" d="M1320.1392,-224.7631C1246.3292,-214.5888 1073.0229,-190.6995 994.9075,-179.9317"/>
<polygon fill="#191970" stroke="#191970" points="995.3635,-176.4615 984.9792,-178.5631 994.4075,-183.396 995.3635,-176.4615"/>
</g>
<!-- Node50&#45;&gt;Node43 -->
<g id="edge87" class="edge">
<title>Node50&#45;&gt;Node43</title>
<path fill="none" stroke="#191970" d="M1388.8817,-226.1537C1439.1474,-219.8984 1523.6267,-203.4148 1493.503,-165 1436.7924,-92.6805 1141.9725,-71.4754 1035.1791,-66.1142"/>
<polygon fill="#191970" stroke="#191970" points="1035.309,-62.6165 1025.1518,-65.6301 1034.9713,-69.6084 1035.309,-62.6165"/>
</g>
<!-- Node51 -->
<g id="node48" class="node">
<title>Node51</title>
<polygon fill="#ffffff" stroke="#bfbfbf" points="1364.3873,-165.5 1364.3873,-183.5 1412.6188,-183.5 1412.6188,-165.5 1364.3873,-165.5"/>
<text text-anchor="middle" x="1388.503" y="-171.5" font-family="Helvetica,sans-Serif" font-size="10.00" fill="#000000">cassert</text>
</g>
<!-- Node50&#45;&gt;Node51 -->
<g id="edge88" class="edge">
<title>Node50&#45;&gt;Node51</title>
<path fill="none" stroke="#191970" d="M1360.1174,-220.4179C1364.8139,-212.8207 1371.6559,-201.7527 1377.4459,-192.3866"/>
<polygon fill="#191970" stroke="#191970" points="1380.4855,-194.1258 1382.7666,-183.7795 1374.5313,-190.445 1380.4855,-194.1258"/>
</g>
<!-- Node52 -->
<g id="node49" class="node">
<title>Node52</title>
<polygon fill="#ffffff" stroke="#bfbfbf" points="1430.3307,-165.5 1430.3307,-183.5 1484.6754,-183.5 1484.6754,-165.5 1430.3307,-165.5"/>
<text text-anchor="middle" x="1457.503" y="-171.5" font-family="Helvetica,sans-Serif" font-size="10.00" fill="#000000">iostream</text>
</g>
<!-- Node50&#45;&gt;Node52 -->
<g id="edge89" class="edge">
<title>Node50&#45;&gt;Node52</title>
<path fill="none" stroke="#191970" d="M1371.5114,-220.4179C1387.8374,-211.7001 1412.722,-198.4122 1431.5285,-188.3699"/>
<polygon fill="#191970" stroke="#191970" points="1433.2969,-191.3934 1440.4694,-183.5956 1429.9996,-185.2186 1433.2969,-191.3934"/>
</g>
<!-- Node53 -->
<g id="node50" class="node">
<title>Node53</title>
<polygon fill="#ffffff" stroke="#bfbfbf" points="1294.7223,-165.5 1294.7223,-183.5 1346.2838,-183.5 1346.2838,-165.5 1294.7223,-165.5"/>
<text text-anchor="middle" x="1320.503" y="-171.5" font-family="Helvetica,sans-Serif" font-size="10.00" fill="#000000">sstream</text>
</g>
<!-- Node50&#45;&gt;Node53 -->
<g id="edge90" class="edge">
<title>Node50&#45;&gt;Node53</title>
<path fill="none" stroke="#191970" d="M1348.8886,-220.4179C1344.1922,-212.8207 1337.3501,-201.7527 1331.5602,-192.3866"/>
<polygon fill="#191970" stroke="#191970" points="1334.4748,-190.445 1326.2394,-183.7795 1328.5206,-194.1258 1334.4748,-190.445"/>
</g>
</g>
</svg>
