<?xml version="1.0" encoding="UTF-8" standalone="no"?>
<!DOCTYPE svg PUBLIC "-//W3C//DTD SVG 1.1//EN"
 "http://www.w3.org/Graphics/SVG/1.1/DTD/svg11.dtd">
<!-- Generated by graphviz version 2.40.1 (20161225.0304)
 -->
<!-- Title: src/versionbits.h Pages: 1 -->
<svg width="5692pt" height="202pt"
 viewBox="0.00 0.00 5692.29 202.00" xmlns="http://www.w3.org/2000/svg" xmlns:xlink="http://www.w3.org/1999/xlink">
<g id="graph0" class="graph" transform="scale(1 1) rotate(0) translate(4 198)">
<title>src/versionbits.h</title>
<polygon fill="#ffffff" stroke="transparent" points="-4,4 -4,-198 5688.2852,-198 5688.2852,4 -4,4"/>
<!-- Node53 -->
<g id="node1" class="node">
<title>Node53</title>
<polygon fill="#bfbfbf" stroke="#000000" points="2671.7979,-175.5 2671.7979,-193.5 2760.0439,-193.5 2760.0439,-175.5 2671.7979,-175.5"/>
<text text-anchor="middle" x="2715.9209" y="-181.5" font-family="Helvetica,sans-Serif" font-size="10.00" fill="#000000">src/versionbits.h</text>
</g>
<!-- Node54 -->
<g id="node2" class="node">
<title>Node54</title>
<g id="a_node2"><a xlink:href="validation_8h.html" target="_top" xlink:title="src/validation.h">
<polygon fill="#ffffff" stroke="#000000" points="2620.5713,-120.5 2620.5713,-138.5 2703.2705,-138.5 2703.2705,-120.5 2620.5713,-120.5"/>
<text text-anchor="middle" x="2661.9209" y="-126.5" font-family="Helvetica,sans-Serif" font-size="10.00" fill="#000000">src/validation.h</text>
</a>
</g>
</g>
<!-- Node53&#45;&gt;Node54 -->
<g id="edge1" class="edge">
<title>Node53&#45;&gt;Node54</title>
<path fill="none" stroke="#191970" d="M2699.7336,-168.0129C2690.3431,-158.4485 2678.8623,-146.7552 2671.0316,-138.7795"/>
<polygon fill="#191970" stroke="#191970" points="2697.5005,-170.7343 2707.0039,-175.4179 2702.4955,-165.8301 2697.5005,-170.7343"/>
</g>
<!-- Node100 -->
<g id="node48" class="node">
<title>Node100</title>
<g id="a_node48"><a xlink:href="versionbits_8cpp.html" target="_top" xlink:title="src/versionbits.cpp">
<polygon fill="#ffffff" stroke="#000000" points="2721.5171,-120.5 2721.5171,-138.5 2820.3247,-138.5 2820.3247,-120.5 2721.5171,-120.5"/>
<text text-anchor="middle" x="2770.9209" y="-126.5" font-family="Helvetica,sans-Serif" font-size="10.00" fill="#000000">src/versionbits.cpp</text>
</a>
</g>
</g>
<!-- Node53&#45;&gt;Node100 -->
<g id="edge50" class="edge">
<title>Node53&#45;&gt;Node100</title>
<path fill="none" stroke="#191970" d="M2732.1217,-168.2992C2741.7381,-158.6828 2753.586,-146.8349 2761.6414,-138.7795"/>
<polygon fill="#191970" stroke="#191970" points="2729.5992,-165.8719 2725.003,-175.4179 2734.549,-170.8217 2729.5992,-165.8719"/>
</g>
<!-- Node55 -->
<g id="node3" class="node">
<title>Node55</title>
<g id="a_node3"><a xlink:href="bench_2base58_8cpp.html" target="_top" xlink:title="src/bench/base58.cpp">
<polygon fill="#ffffff" stroke="#000000" points="0,-60.5 0,-78.5 113.8418,-78.5 113.8418,-60.5 0,-60.5"/>
<text text-anchor="middle" x="56.9209" y="-66.5" font-family="Helvetica,sans-Serif" font-size="10.00" fill="#000000">src/bench/base58.cpp</text>
</a>
</g>
</g>
<!-- Node54&#45;&gt;Node55 -->
<g id="edge2" class="edge">
<title>Node54&#45;&gt;Node55</title>
<path fill="none" stroke="#191970" d="M2610.1281,-129.1896C2271.3917,-127.0779 377.9268,-113.9958 122.9209,-84 112.7843,-82.8077 101.9148,-80.7511 91.9813,-78.5554"/>
<polygon fill="#191970" stroke="#191970" points="2610.1305,-132.6896 2620.152,-129.2517 2610.174,-125.6897 2610.1305,-132.6896"/>
</g>
<!-- Node56 -->
<g id="node4" class="node">
<title>Node56</title>
<g id="a_node4"><a xlink:href="bench_2bech32_8cpp.html" target="_top" xlink:title="src/bench/bech32.cpp">
<polygon fill="#ffffff" stroke="#000000" points="132,-60.5 132,-78.5 245.8418,-78.5 245.8418,-60.5 132,-60.5"/>
<text text-anchor="middle" x="188.9209" y="-66.5" font-family="Helvetica,sans-Serif" font-size="10.00" fill="#000000">src/bench/bech32.cpp</text>
</a>
</g>
</g>
<!-- Node54&#45;&gt;Node56 -->
<g id="edge3" class="edge">
<title>Node54&#45;&gt;Node56</title>
<path fill="none" stroke="#191970" d="M2610.2696,-129.136C2282.3102,-126.744 496.0271,-112.4809 254.9209,-84 244.7849,-82.8027 233.9156,-80.7445 223.9821,-78.5489"/>
<polygon fill="#191970" stroke="#191970" points="2610.4085,-132.6371 2620.4337,-129.2098 2610.4593,-125.6372 2610.4085,-132.6371"/>
</g>
<!-- Node57 -->
<g id="node5" class="node">
<title>Node57</title>
<g id="a_node5"><a xlink:href="bench__bitcoin_8cpp.html" target="_top" xlink:title="src/bench/bench_bitcoin.cpp">
<polygon fill="#ffffff" stroke="#000000" points="263.5469,-60.5 263.5469,-78.5 406.2949,-78.5 406.2949,-60.5 263.5469,-60.5"/>
<text text-anchor="middle" x="334.9209" y="-66.5" font-family="Helvetica,sans-Serif" font-size="10.00" fill="#000000">src/bench/bench_bitcoin.cpp</text>
</a>
</g>
</g>
<!-- Node54&#45;&gt;Node57 -->
<g id="edge4" class="edge">
<title>Node54&#45;&gt;Node57</title>
<path fill="none" stroke="#191970" d="M2609.8887,-128.9085C2294.4314,-125.2605 644.1057,-105.2774 419.9209,-84 406.9552,-82.7694 392.9851,-80.7006 380.1908,-78.5054"/>
<polygon fill="#191970" stroke="#191970" points="2610.0772,-132.4108 2620.1169,-129.0264 2610.158,-125.4113 2610.0772,-132.4108"/>
</g>
<!-- Node58 -->
<g id="node6" class="node">
<title>Node58</title>
<g id="a_node6"><a xlink:href="block__assemble_8cpp.html" target="_top" xlink:title="src/bench/block_assemble.cpp">
<polygon fill="#ffffff" stroke="#000000" points="269.5518,-.5 269.5518,-18.5 422.29,-18.5 422.29,-.5 269.5518,-.5"/>
<text text-anchor="middle" x="345.9209" y="-6.5" font-family="Helvetica,sans-Serif" font-size="10.00" fill="#000000">src/bench/block_assemble.cpp</text>
</a>
</g>
</g>
<!-- Node54&#45;&gt;Node58 -->
<g id="edge5" class="edge">
<title>Node54&#45;&gt;Node58</title>
<path fill="none" stroke="#191970" d="M2609.978,-129.1785C2288.0998,-127.0916 575.9189,-114.5816 469.9209,-84 457.9764,-80.5539 390.3311,-37.8722 360.2924,-18.7089"/>
<polygon fill="#191970" stroke="#191970" points="2610.3809,-132.6811 2620.4033,-129.2456 2610.426,-125.6812 2610.3809,-132.6811"/>
</g>
<!-- Node59 -->
<g id="node7" class="node">
<title>Node59</title>
<g id="a_node7"><a xlink:href="checkblock_8cpp.html" target="_top" xlink:title="src/bench/checkblock.cpp">
<polygon fill="#ffffff" stroke="#000000" points="619.6699,-60.5 619.6699,-78.5 750.1719,-78.5 750.1719,-60.5 619.6699,-60.5"/>
<text text-anchor="middle" x="684.9209" y="-66.5" font-family="Helvetica,sans-Serif" font-size="10.00" fill="#000000">src/bench/checkblock.cpp</text>
</a>
</g>
</g>
<!-- Node54&#45;&gt;Node59 -->
<g id="edge6" class="edge">
<title>Node54&#45;&gt;Node59</title>
<path fill="none" stroke="#191970" d="M2610.2033,-129.4317C2344.7624,-128.9029 1133.4099,-124.2856 759.9209,-84 748.5814,-82.7769 736.3966,-80.7392 725.2141,-78.5722"/>
<polygon fill="#191970" stroke="#191970" points="2610.3246,-132.9318 2620.3312,-129.4507 2610.3379,-125.9318 2610.3246,-132.9318"/>
</g>
<!-- Node60 -->
<g id="node8" class="node">
<title>Node60</title>
<g id="a_node8"><a xlink:href="checkqueue_8cpp.html" target="_top" xlink:title="src/bench/checkqueue.cpp">
<polygon fill="#ffffff" stroke="#000000" points="768.4385,-60.5 768.4385,-78.5 903.4033,-78.5 903.4033,-60.5 768.4385,-60.5"/>
<text text-anchor="middle" x="835.9209" y="-66.5" font-family="Helvetica,sans-Serif" font-size="10.00" fill="#000000">src/bench/checkqueue.cpp</text>
</a>
</g>
</g>
<!-- Node54&#45;&gt;Node60 -->
<g id="edge7" class="edge">
<title>Node54&#45;&gt;Node60</title>
<path fill="none" stroke="#191970" d="M2609.9503,-129.2886C2357.066,-128.0859 1253.5712,-120.7862 911.9209,-84 900.4354,-82.7633 888.0898,-80.7212 876.7582,-78.5543"/>
<polygon fill="#191970" stroke="#191970" points="2610.2999,-132.7902 2620.316,-129.3368 2610.3324,-125.7903 2610.2999,-132.7902"/>
</g>
<!-- Node61 -->
<g id="node9" class="node">
<title>Node61</title>
<g id="a_node9"><a xlink:href="examples_8cpp.html" target="_top" xlink:title="src/bench/examples.cpp">
<polygon fill="#ffffff" stroke="#000000" points="921.0049,-60.5 921.0049,-78.5 1044.8369,-78.5 1044.8369,-60.5 921.0049,-60.5"/>
<text text-anchor="middle" x="982.9209" y="-66.5" font-family="Helvetica,sans-Serif" font-size="10.00" fill="#000000">src/bench/examples.cpp</text>
</a>
</g>
</g>
<!-- Node54&#45;&gt;Node61 -->
<g id="edge8" class="edge">
<title>Node54&#45;&gt;Node61</title>
<path fill="none" stroke="#191970" d="M2610.3259,-129.2425C2370.8179,-127.8628 1365.9087,-119.9971 1053.9209,-84 1043.1727,-82.7599 1031.6333,-80.7166 1021.0473,-78.5497"/>
<polygon fill="#191970" stroke="#191970" points="2610.4757,-132.7433 2620.4953,-129.2998 2610.5153,-125.7434 2610.4757,-132.7433"/>
</g>
<!-- Node62 -->
<g id="node10" class="node">
<title>Node62</title>
<g id="a_node10"><a xlink:href="blockencodings_8cpp.html" target="_top" xlink:title="src/blockencodings.cpp">
<polygon fill="#ffffff" stroke="#000000" points="1062.9482,-60.5 1062.9482,-78.5 1182.8936,-78.5 1182.8936,-60.5 1062.9482,-60.5"/>
<text text-anchor="middle" x="1122.9209" y="-66.5" font-family="Helvetica,sans-Serif" font-size="10.00" fill="#000000">src/blockencodings.cpp</text>
</a>
</g>
</g>
<!-- Node54&#45;&gt;Node62 -->
<g id="edge9" class="edge">
<title>Node54&#45;&gt;Node62</title>
<path fill="none" stroke="#191970" d="M2610.0414,-129.1204C2382.9238,-127.2699 1475.0182,-117.8591 1191.9209,-84 1181.4683,-82.7498 1170.2516,-80.7033 1159.9638,-78.5364"/>
<polygon fill="#191970" stroke="#191970" points="2610.309,-132.6225 2620.3367,-129.2029 2610.3651,-125.6228 2610.309,-132.6225"/>
</g>
<!-- Node63 -->
<g id="node11" class="node">
<title>Node63</title>
<g id="a_node11"><a xlink:href="checkpoints_8cpp.html" target="_top" xlink:title="src/checkpoints.cpp">
<polygon fill="#ffffff" stroke="#000000" points="1201.0122,-60.5 1201.0122,-78.5 1304.8296,-78.5 1304.8296,-60.5 1201.0122,-60.5"/>
<text text-anchor="middle" x="1252.9209" y="-66.5" font-family="Helvetica,sans-Serif" font-size="10.00" fill="#000000">src/checkpoints.cpp</text>
</a>
</g>
</g>
<!-- Node54&#45;&gt;Node63 -->
<g id="edge10" class="edge">
<title>Node54&#45;&gt;Node63</title>
<path fill="none" stroke="#191970" d="M2610.5052,-129.1367C2395.9836,-127.4093 1571.5127,-118.6093 1313.9209,-84 1304.6429,-82.7534 1294.7144,-80.708 1285.6196,-78.5412"/>
<polygon fill="#191970" stroke="#191970" points="2610.5217,-132.6369 2620.549,-129.216 2610.577,-125.6371 2610.5217,-132.6369"/>
</g>
<!-- Node64 -->
<g id="node12" class="node">
<title>Node64</title>
<g id="a_node12"><a xlink:href="base_8cpp.html" target="_top" xlink:title="src/index/base.cpp">
<polygon fill="#ffffff" stroke="#000000" points="1323.2314,-60.5 1323.2314,-78.5 1422.6104,-78.5 1422.6104,-60.5 1323.2314,-60.5"/>
<text text-anchor="middle" x="1372.9209" y="-66.5" font-family="Helvetica,sans-Serif" font-size="10.00" fill="#000000">src/index/base.cpp</text>
</a>
</g>
</g>
<!-- Node54&#45;&gt;Node64 -->
<g id="edge11" class="edge">
<title>Node54&#45;&gt;Node64</title>
<path fill="none" stroke="#191970" d="M2610.3719,-129.023C2407.541,-126.9249 1664.1469,-117.0955 1430.9209,-84 1422.0832,-82.7459 1412.6378,-80.698 1403.9904,-78.5312"/>
<polygon fill="#191970" stroke="#191970" points="2610.4209,-132.5236 2620.456,-129.1255 2610.4921,-125.5239 2610.4209,-132.5236"/>
</g>
<!-- Node65 -->
<g id="node13" class="node">
<title>Node65</title>
<g id="a_node13"><a xlink:href="txindex_8cpp.html" target="_top" xlink:title="src/index/txindex.cpp">
<polygon fill="#ffffff" stroke="#000000" points="1440.2314,-60.5 1440.2314,-78.5 1549.6104,-78.5 1549.6104,-60.5 1440.2314,-60.5"/>
<text text-anchor="middle" x="1494.9209" y="-66.5" font-family="Helvetica,sans-Serif" font-size="10.00" fill="#000000">src/index/txindex.cpp</text>
</a>
</g>
</g>
<!-- Node54&#45;&gt;Node65 -->
<g id="edge12" class="edge">
<title>Node54&#45;&gt;Node65</title>
<path fill="none" stroke="#191970" d="M2610.1941,-128.6383C2420.7753,-125.2852 1765.2687,-111.8898 1557.9209,-84 1548.4661,-82.7283 1538.3445,-80.7025 1529.0411,-78.5636"/>
<polygon fill="#191970" stroke="#191970" points="2610.3715,-132.1419 2620.4313,-128.8178 2610.4943,-125.143 2610.3715,-132.1419"/>
</g>
<!-- Node66 -->
<g id="node14" class="node">
<title>Node66</title>
<g id="a_node14"><a xlink:href="init_8cpp.html" target="_top" xlink:title="src/init.cpp">
<polygon fill="#ffffff" stroke="#000000" points="440.0244,-.5 440.0244,-18.5 503.8174,-18.5 503.8174,-.5 440.0244,-.5"/>
<text text-anchor="middle" x="471.9209" y="-6.5" font-family="Helvetica,sans-Serif" font-size="10.00" fill="#000000">src/init.cpp</text>
</a>
</g>
</g>
<!-- Node54&#45;&gt;Node66 -->
<g id="edge13" class="edge">
<title>Node54&#45;&gt;Node66</title>
<path fill="none" stroke="#191970" d="M2610.3466,-129.276C2285.4086,-127.7608 533.7751,-118.0227 490.9209,-84 471.0583,-68.2307 470.2132,-34.8312 471.0977,-18.6577"/>
<polygon fill="#191970" stroke="#191970" points="2610.4072,-132.7762 2620.4232,-129.3224 2610.4395,-125.7763 2610.4072,-132.7762"/>
</g>
<!-- Node67 -->
<g id="node15" class="node">
<title>Node67</title>
<g id="a_node15"><a xlink:href="node_8cpp.html" target="_top" xlink:title="src/interfaces/node.cpp">
<polygon fill="#ffffff" stroke="#000000" points="1567.2266,-60.5 1567.2266,-78.5 1686.6152,-78.5 1686.6152,-60.5 1567.2266,-60.5"/>
<text text-anchor="middle" x="1626.9209" y="-66.5" font-family="Helvetica,sans-Serif" font-size="10.00" fill="#000000">src/interfaces/node.cpp</text>
</a>
</g>
</g>
<!-- Node54&#45;&gt;Node67 -->
<g id="edge14" class="edge">
<title>Node54&#45;&gt;Node67</title>
<path fill="none" stroke="#191970" d="M2610.1519,-128.156C2436.4495,-123.4749 1875.2434,-106.9152 1695.9209,-84 1685.6001,-82.6811 1674.5261,-80.6395 1664.3369,-78.5005"/>
<polygon fill="#191970" stroke="#191970" points="2610.2155,-131.6589 2620.3057,-128.428 2610.403,-124.6614 2610.2155,-131.6589"/>
</g>
<!-- Node68 -->
<g id="node16" class="node">
<title>Node68</title>
<g id="a_node16"><a xlink:href="interfaces_2wallet_8cpp.html" target="_top" xlink:title="src/interfaces/wallet.cpp">
<polygon fill="#ffffff" stroke="#000000" points="1704.5664,-60.5 1704.5664,-78.5 1827.2754,-78.5 1827.2754,-60.5 1704.5664,-60.5"/>
<text text-anchor="middle" x="1765.9209" y="-66.5" font-family="Helvetica,sans-Serif" font-size="10.00" fill="#000000">src/interfaces/wallet.cpp</text>
</a>
</g>
</g>
<!-- Node54&#45;&gt;Node68 -->
<g id="edge15" class="edge">
<title>Node54&#45;&gt;Node68</title>
<path fill="none" stroke="#191970" d="M2610.2876,-127.6439C2454.0161,-121.8693 1987.641,-103.4404 1836.9209,-84 1826.4398,-82.6481 1815.1927,-80.6222 1804.8106,-78.5102"/>
<polygon fill="#191970" stroke="#191970" points="2610.4389,-131.1517 2620.5608,-128.0217 2610.6962,-124.1564 2610.4389,-131.1517"/>
</g>
<!-- Node69 -->
<g id="node17" class="node">
<title>Node69</title>
<g id="a_node17"><a xlink:href="miner_8h.html" target="_top" xlink:title="src/miner.h">
<polygon fill="#ffffff" stroke="#000000" points="499.4678,-60.5 499.4678,-78.5 564.374,-78.5 564.374,-60.5 499.4678,-60.5"/>
<text text-anchor="middle" x="531.9209" y="-66.5" font-family="Helvetica,sans-Serif" font-size="10.00" fill="#000000">src/miner.h</text>
</a>
</g>
</g>
<!-- Node54&#45;&gt;Node69 -->
<g id="edge16" class="edge">
<title>Node54&#45;&gt;Node69</title>
<path fill="none" stroke="#191970" d="M2610.1974,-129.2469C2308.6366,-127.6547 783.6915,-117.9664 577.9209,-84 570.8159,-82.8272 563.2932,-80.806 556.4354,-78.6387"/>
<polygon fill="#191970" stroke="#191970" points="2610.3865,-132.7478 2620.4046,-129.3002 2610.4231,-125.7479 2610.3865,-132.7478"/>
</g>
<!-- Node71 -->
<g id="node19" class="node">
<title>Node71</title>
<g id="a_node19"><a xlink:href="mining_8cpp.html" target="_top" xlink:title="src/rpc/mining.cpp">
<polygon fill="#ffffff" stroke="#000000" points="615.3521,-.5 615.3521,-18.5 712.4897,-18.5 712.4897,-.5 615.3521,-.5"/>
<text text-anchor="middle" x="663.9209" y="-6.5" font-family="Helvetica,sans-Serif" font-size="10.00" fill="#000000">src/rpc/mining.cpp</text>
</a>
</g>
</g>
<!-- Node54&#45;&gt;Node71 -->
<g id="edge34" class="edge">
<title>Node54&#45;&gt;Node71</title>
<path fill="none" stroke="#191970" d="M2610.133,-129.3418C2294.9671,-128.259 646.9528,-120.8401 610.9209,-84 590.3881,-63.0067 627.2099,-33.449 649.2139,-18.6685"/>
<polygon fill="#191970" stroke="#191970" points="2610.3401,-132.8424 2620.3519,-129.3763 2610.3638,-125.8424 2610.3401,-132.8424"/>
</g>
<!-- Node72 -->
<g id="node20" class="node">
<title>Node72</title>
<g id="a_node20"><a xlink:href="net__processing_8cpp.html" target="_top" xlink:title="src/net_processing.cpp">
<polygon fill="#ffffff" stroke="#000000" points="1845.5049,-60.5 1845.5049,-78.5 1964.3369,-78.5 1964.3369,-60.5 1845.5049,-60.5"/>
<text text-anchor="middle" x="1904.9209" y="-66.5" font-family="Helvetica,sans-Serif" font-size="10.00" fill="#000000">src/net_processing.cpp</text>
</a>
</g>
</g>
<!-- Node54&#45;&gt;Node72 -->
<g id="edge21" class="edge">
<title>Node54&#45;&gt;Node72</title>
<path fill="none" stroke="#191970" d="M2609.9473,-128.5628C2494.8498,-125.9412 2209.9592,-116.4411 1973.9209,-84 1963.8556,-82.6166 1953.0639,-80.6061 1943.0749,-78.5205"/>
<polygon fill="#191970" stroke="#191970" points="2610.1492,-132.068 2620.2237,-128.7887 2610.3031,-125.0697 2610.1492,-132.068"/>
</g>
<!-- Node73 -->
<g id="node21" class="node">
<title>Node73</title>
<g id="a_node21"><a xlink:href="policy_8cpp.html" target="_top" xlink:title="src/policy/policy.cpp">
<polygon fill="#ffffff" stroke="#000000" points="1982.8291,-60.5 1982.8291,-78.5 2087.0127,-78.5 2087.0127,-60.5 1982.8291,-60.5"/>
<text text-anchor="middle" x="2034.9209" y="-66.5" font-family="Helvetica,sans-Serif" font-size="10.00" fill="#000000">src/policy/policy.cpp</text>
</a>
</g>
</g>
<!-- Node54&#45;&gt;Node73 -->
<g id="edge22" class="edge">
<title>Node54&#45;&gt;Node73</title>
<path fill="none" stroke="#191970" d="M2610.3562,-127.9963C2510.501,-124.5022 2284.0078,-113.7352 2095.9209,-84 2087.1044,-82.6062 2077.6774,-80.6176 2068.9355,-78.5582"/>
<polygon fill="#191970" stroke="#191970" points="2610.3612,-131.4984 2620.4745,-128.3405 2610.5993,-124.5025 2610.3612,-131.4984"/>
</g>
<!-- Node74 -->
<g id="node22" class="node">
<title>Node74</title>
<g id="a_node22"><a xlink:href="clientmodel_8cpp.html" target="_top" xlink:title="src/qt/clientmodel.cpp">
<polygon fill="#ffffff" stroke="#000000" points="2104.5664,-60.5 2104.5664,-78.5 2217.2754,-78.5 2217.2754,-60.5 2104.5664,-60.5"/>
<text text-anchor="middle" x="2160.9209" y="-66.5" font-family="Helvetica,sans-Serif" font-size="10.00" fill="#000000">src/qt/clientmodel.cpp</text>
</a>
</g>
</g>
<!-- Node54&#45;&gt;Node74 -->
<g id="edge23" class="edge">
<title>Node54&#45;&gt;Node74</title>
<path fill="none" stroke="#191970" d="M2610.4998,-126.0672C2528.6949,-120.1724 2364.0414,-106.5354 2225.9209,-84 2216.7919,-82.5105 2207.0209,-80.536 2197.9006,-78.525"/>
<polygon fill="#191970" stroke="#191970" points="2610.3096,-129.5624 2620.5329,-126.7812 2610.8066,-122.5801 2610.3096,-129.5624"/>
</g>
<!-- Node75 -->
<g id="node23" class="node">
<title>Node75</title>
<g id="a_node23"><a xlink:href="coincontroldialog_8cpp.html" target="_top" xlink:title="src/qt/coincontroldialog.cpp">
<polygon fill="#ffffff" stroke="#000000" points="2235.3325,-60.5 2235.3325,-78.5 2372.5093,-78.5 2372.5093,-60.5 2235.3325,-60.5"/>
<text text-anchor="middle" x="2303.9209" y="-66.5" font-family="Helvetica,sans-Serif" font-size="10.00" fill="#000000">src/qt/coincontroldialog.cpp</text>
</a>
</g>
</g>
<!-- Node54&#45;&gt;Node75 -->
<g id="edge24" class="edge">
<title>Node54&#45;&gt;Node75</title>
<path fill="none" stroke="#191970" d="M2610.3475,-121.5546C2553.9364,-112.7694 2460.8895,-98.0015 2380.9209,-84 2371.1395,-82.2874 2360.6754,-80.3725 2350.7132,-78.5098"/>
<polygon fill="#191970" stroke="#191970" points="2610.0239,-125.0463 2620.4429,-123.1239 2611.0992,-118.1293 2610.0239,-125.0463"/>
</g>
<!-- Node76 -->
<g id="node24" class="node">
<title>Node76</title>
<g id="a_node24"><a xlink:href="optionsdialog_8cpp.html" target="_top" xlink:title="src/qt/optionsdialog.cpp">
<polygon fill="#ffffff" stroke="#000000" points="2390.3892,-60.5 2390.3892,-78.5 2511.4526,-78.5 2511.4526,-60.5 2390.3892,-60.5"/>
<text text-anchor="middle" x="2450.9209" y="-66.5" font-family="Helvetica,sans-Serif" font-size="10.00" fill="#000000">src/qt/optionsdialog.cpp</text>
</a>
</g>
</g>
<!-- Node54&#45;&gt;Node76 -->
<g id="edge25" class="edge">
<title>Node54&#45;&gt;Node76</title>
<path fill="none" stroke="#191970" d="M2620.0429,-117.5916C2579.578,-106.085 2519.1823,-88.9108 2482.5775,-78.5019"/>
<polygon fill="#191970" stroke="#191970" points="2619.2985,-121.0186 2629.8745,-120.3873 2621.2132,-114.2855 2619.2985,-121.0186"/>
</g>
<!-- Node77 -->
<g id="node25" class="node">
<title>Node77</title>
<g id="a_node25"><a xlink:href="optionsmodel_8cpp.html" target="_top" xlink:title="src/qt/optionsmodel.cpp">
<polygon fill="#ffffff" stroke="#000000" points="2529.1157,-60.5 2529.1157,-78.5 2650.7261,-78.5 2650.7261,-60.5 2529.1157,-60.5"/>
<text text-anchor="middle" x="2589.9209" y="-66.5" font-family="Helvetica,sans-Serif" font-size="10.00" fill="#000000">src/qt/optionsmodel.cpp</text>
</a>
</g>
</g>
<!-- Node54&#45;&gt;Node77 -->
<g id="edge26" class="edge">
<title>Node54&#45;&gt;Node77</title>
<path fill="none" stroke="#191970" d="M2643.2715,-113.9588C2629.852,-102.7759 2612.2051,-88.0702 2600.9591,-78.6985"/>
<polygon fill="#191970" stroke="#191970" points="2641.0628,-116.6742 2650.9856,-120.3873 2645.5441,-111.2966 2641.0628,-116.6742"/>
</g>
<!-- Node78 -->
<g id="node26" class="node">
<title>Node78</title>
<g id="a_node26"><a xlink:href="peertablemodel_8cpp.html" target="_top" xlink:title="src/qt/peertablemodel.cpp">
<polygon fill="#ffffff" stroke="#000000" points="2668.3892,-60.5 2668.3892,-78.5 2799.4526,-78.5 2799.4526,-60.5 2668.3892,-60.5"/>
<text text-anchor="middle" x="2733.9209" y="-66.5" font-family="Helvetica,sans-Serif" font-size="10.00" fill="#000000">src/qt/peertablemodel.cpp</text>
</a>
</g>
</g>
<!-- Node54&#45;&gt;Node78 -->
<g id="edge27" class="edge">
<title>Node54&#45;&gt;Node78</title>
<path fill="none" stroke="#191970" d="M2680.5703,-113.9588C2693.9898,-102.7759 2711.6367,-88.0702 2722.8827,-78.6985"/>
<polygon fill="#191970" stroke="#191970" points="2678.2977,-111.2966 2672.8561,-120.3873 2682.779,-116.6742 2678.2977,-111.2966"/>
</g>
<!-- Node79 -->
<g id="node27" class="node">
<title>Node79</title>
<g id="a_node27"><a xlink:href="signverifymessagedialog_8cpp.html" target="_top" xlink:title="src/qt/signverifymessagedialog.cpp">
<polygon fill="#ffffff" stroke="#000000" points="2817.106,-60.5 2817.106,-78.5 2988.7358,-78.5 2988.7358,-60.5 2817.106,-60.5"/>
<text text-anchor="middle" x="2902.9209" y="-66.5" font-family="Helvetica,sans-Serif" font-size="10.00" fill="#000000">src/qt/signverifymessagedialog.cpp</text>
</a>
</g>
</g>
<!-- Node54&#45;&gt;Node79 -->
<g id="edge28" class="edge">
<title>Node54&#45;&gt;Node79</title>
<path fill="none" stroke="#191970" d="M2708.0202,-118.023C2754.2011,-106.5257 2824.3348,-89.065 2866.6788,-78.5229"/>
<polygon fill="#191970" stroke="#191970" points="2707.1202,-114.6401 2698.262,-120.4524 2708.8113,-121.4328 2707.1202,-114.6401"/>
</g>
<!-- Node80 -->
<g id="node28" class="node">
<title>Node80</title>
<g id="a_node28"><a xlink:href="transactiondesc_8cpp.html" target="_top" xlink:title="src/qt/transactiondesc.cpp">
<polygon fill="#ffffff" stroke="#000000" points="3006.8374,-60.5 3006.8374,-78.5 3139.0044,-78.5 3139.0044,-60.5 3006.8374,-60.5"/>
<text text-anchor="middle" x="3072.9209" y="-66.5" font-family="Helvetica,sans-Serif" font-size="10.00" fill="#000000">src/qt/transactiondesc.cpp</text>
</a>
</g>
</g>
<!-- Node54&#45;&gt;Node80 -->
<g id="edge29" class="edge">
<title>Node54&#45;&gt;Node80</title>
<path fill="none" stroke="#191970" d="M2713.4996,-119.9991C2840.79,-100.4804 2875.0455,-103.617 2997.9209,-84 3007.8739,-82.411 3018.5275,-80.4875 3028.5884,-78.5682"/>
<polygon fill="#191970" stroke="#191970" points="2712.704,-116.5806 2703.3584,-121.5715 2713.7766,-123.4979 2712.704,-116.5806"/>
</g>
<!-- Node81 -->
<g id="node29" class="node">
<title>Node81</title>
<g id="a_node29"><a xlink:href="transactionrecord_8cpp.html" target="_top" xlink:title="src/qt/transactionrecord.cpp">
<polygon fill="#ffffff" stroke="#000000" points="3157.2266,-60.5 3157.2266,-78.5 3296.6152,-78.5 3296.6152,-60.5 3157.2266,-60.5"/>
<text text-anchor="middle" x="3226.9209" y="-66.5" font-family="Helvetica,sans-Serif" font-size="10.00" fill="#000000">src/qt/transactionrecord.cpp</text>
</a>
</g>
</g>
<!-- Node54&#45;&gt;Node81 -->
<g id="edge30" class="edge">
<title>Node54&#45;&gt;Node81</title>
<path fill="none" stroke="#191970" d="M2713.2661,-120.1006C2906.9058,-94.7022 2958.808,-109.118 3147.9209,-84 3158.9793,-82.5312 3170.841,-80.5644 3181.9241,-78.5543"/>
<polygon fill="#191970" stroke="#191970" points="2712.7877,-116.6333 2703.3366,-121.4213 2713.7108,-123.5722 2712.7877,-116.6333"/>
</g>
<!-- Node82 -->
<g id="node30" class="node">
<title>Node82</title>
<g id="a_node30"><a xlink:href="transactiontablemodel_8cpp.html" target="_top" xlink:title="src/qt/transactiontablemodel.cpp">
<polygon fill="#ffffff" stroke="#000000" points="3314.9385,-60.5 3314.9385,-78.5 3474.9033,-78.5 3474.9033,-60.5 3314.9385,-60.5"/>
<text text-anchor="middle" x="3394.9209" y="-66.5" font-family="Helvetica,sans-Serif" font-size="10.00" fill="#000000">src/qt/transactiontablemodel.cpp</text>
</a>
</g>
</g>
<!-- Node54&#45;&gt;Node82 -->
<g id="edge31" class="edge">
<title>Node54&#45;&gt;Node82</title>
<path fill="none" stroke="#191970" d="M2713.5757,-120.094C2976.7573,-88.4011 3046.8385,-112.8947 3305.9209,-84 3318.679,-82.5771 3332.3953,-80.5781 3345.1471,-78.518"/>
<polygon fill="#191970" stroke="#191970" points="2712.8291,-116.659 2703.3267,-121.3446 2713.677,-123.6075 2712.8291,-116.659"/>
</g>
<!-- Node83 -->
<g id="node31" class="node">
<title>Node83</title>
<g id="a_node31"><a xlink:href="rest_8cpp.html" target="_top" xlink:title="src/rest.cpp">
<polygon fill="#ffffff" stroke="#000000" points="3493.0811,-60.5 3493.0811,-78.5 3560.7607,-78.5 3560.7607,-60.5 3493.0811,-60.5"/>
<text text-anchor="middle" x="3526.9209" y="-66.5" font-family="Helvetica,sans-Serif" font-size="10.00" fill="#000000">src/rest.cpp</text>
</a>
</g>
</g>
<!-- Node54&#45;&gt;Node83 -->
<g id="edge32" class="edge">
<title>Node54&#45;&gt;Node83</title>
<path fill="none" stroke="#191970" d="M2713.2591,-120.1595C3055.4741,-81.7597 3150.0043,-146.8164 3483.9209,-84 3490.5794,-82.7474 3497.617,-80.7 3504.0275,-78.5332"/>
<polygon fill="#191970" stroke="#191970" points="2712.8585,-116.6824 2703.3209,-121.2957 2713.6537,-123.637 2712.8585,-116.6824"/>
</g>
<!-- Node84 -->
<g id="node32" class="node">
<title>Node84</title>
<g id="a_node32"><a xlink:href="blockchain_8cpp.html" target="_top" xlink:title="src/rpc/blockchain.cpp">
<polygon fill="#ffffff" stroke="#000000" points="3578.4556,-60.5 3578.4556,-78.5 3693.3862,-78.5 3693.3862,-60.5 3578.4556,-60.5"/>
<text text-anchor="middle" x="3635.9209" y="-66.5" font-family="Helvetica,sans-Serif" font-size="10.00" fill="#000000">src/rpc/blockchain.cpp</text>
</a>
</g>
</g>
<!-- Node54&#45;&gt;Node84 -->
<g id="edge33" class="edge">
<title>Node54&#45;&gt;Node84</title>
<path fill="none" stroke="#191970" d="M2713.4934,-120.1346C3093.4933,-77.9636 3195.1924,-132.6563 3569.9209,-84 3579.8097,-82.716 3590.4079,-80.6861 3600.1542,-78.5472"/>
<polygon fill="#191970" stroke="#191970" points="2712.8649,-116.6831 2703.319,-121.2794 2713.6476,-123.6392 2712.8649,-116.6831"/>
</g>
<!-- Node85 -->
<g id="node33" class="node">
<title>Node85</title>
<g id="a_node33"><a xlink:href="misc_8cpp.html" target="_top" xlink:title="src/rpc/misc.cpp">
<polygon fill="#ffffff" stroke="#000000" points="3711.8052,-60.5 3711.8052,-78.5 3800.0366,-78.5 3800.0366,-60.5 3711.8052,-60.5"/>
<text text-anchor="middle" x="3755.9209" y="-66.5" font-family="Helvetica,sans-Serif" font-size="10.00" fill="#000000">src/rpc/misc.cpp</text>
</a>
</g>
</g>
<!-- Node54&#45;&gt;Node85 -->
<g id="edge35" class="edge">
<title>Node54&#45;&gt;Node85</title>
<path fill="none" stroke="#191970" d="M2713.4045,-120.1539C3151.8832,-72.7648 3270.2629,-148.955 3701.9209,-84 3710.1761,-82.7578 3718.9789,-80.7138 3727.0298,-78.5469"/>
<polygon fill="#191970" stroke="#191970" points="2712.8758,-116.6908 2703.3168,-121.2598 2713.6387,-123.6491 2712.8758,-116.6908"/>
</g>
<!-- Node86 -->
<g id="node34" class="node">
<title>Node86</title>
<g id="a_node34"><a xlink:href="rpc_2net_8cpp.html" target="_top" xlink:title="src/rpc/net.cpp">
<polygon fill="#ffffff" stroke="#000000" points="3818.1304,-60.5 3818.1304,-78.5 3899.7114,-78.5 3899.7114,-60.5 3818.1304,-60.5"/>
<text text-anchor="middle" x="3858.9209" y="-66.5" font-family="Helvetica,sans-Serif" font-size="10.00" fill="#000000">src/rpc/net.cpp</text>
</a>
</g>
</g>
<!-- Node54&#45;&gt;Node86 -->
<g id="edge36" class="edge">
<title>Node54&#45;&gt;Node86</title>
<path fill="none" stroke="#191970" d="M2713.3978,-120.16C3199.2247,-68.4908 3330.8735,-159.9439 3808.9209,-84 3816.6868,-82.7663 3824.9489,-80.6965 3832.4732,-78.5013"/>
<polygon fill="#191970" stroke="#191970" points="2712.8824,-116.6952 2703.3154,-121.2473 2713.6331,-123.6548 2712.8824,-116.6952"/>
</g>
<!-- Node87 -->
<g id="node35" class="node">
<title>Node87</title>
<g id="a_node35"><a xlink:href="rawtransaction_8cpp.html" target="_top" xlink:title="src/rpc/rawtransaction.cpp">
<polygon fill="#ffffff" stroke="#000000" points="3917.5664,-60.5 3917.5664,-78.5 4050.2754,-78.5 4050.2754,-60.5 3917.5664,-60.5"/>
<text text-anchor="middle" x="3983.9209" y="-66.5" font-family="Helvetica,sans-Serif" font-size="10.00" fill="#000000">src/rpc/rawtransaction.cpp</text>
</a>
</g>
</g>
<!-- Node54&#45;&gt;Node87 -->
<g id="edge37" class="edge">
<title>Node54&#45;&gt;Node87</title>
<path fill="none" stroke="#191970" d="M2713.5181,-120.1479C3243.4452,-64.1429 3383.725,-142.2897 3908.9209,-84 3920.2566,-82.7419 3932.4401,-80.6927 3943.6226,-78.5259"/>
<polygon fill="#191970" stroke="#191970" points="2712.8861,-116.6954 2703.3144,-121.2377 2713.6296,-123.6558 2712.8861,-116.6954"/>
</g>
<!-- Node88 -->
<g id="node36" class="node">
<title>Node88</title>
<g id="a_node36"><a xlink:href="txmempool_8cpp.html" target="_top" xlink:title="src/txmempool.cpp">
<polygon fill="#ffffff" stroke="#000000" points="4067.9629,-60.5 4067.9629,-78.5 4167.8789,-78.5 4167.8789,-60.5 4067.9629,-60.5"/>
<text text-anchor="middle" x="4117.9209" y="-66.5" font-family="Helvetica,sans-Serif" font-size="10.00" fill="#000000">src/txmempool.cpp</text>
</a>
</g>
</g>
<!-- Node54&#45;&gt;Node88 -->
<g id="edge38" class="edge">
<title>Node54&#45;&gt;Node88</title>
<path fill="none" stroke="#191970" d="M2713.4579,-120.1604C3309.8188,-58.205 3469.1688,-163.421 4058.9209,-84 4068.0154,-82.7753 4077.7427,-80.7083 4086.6222,-78.513"/>
<polygon fill="#191970" stroke="#191970" points="2712.8927,-116.7004 2703.3131,-121.226 2713.6241,-123.6621 2712.8927,-116.7004"/>
</g>
<!-- Node89 -->
<g id="node37" class="node">
<title>Node89</title>
<g id="a_node37"><a xlink:href="validation_8cpp.html" target="_top" xlink:title="src/validation.cpp">
<polygon fill="#ffffff" stroke="#000000" points="4186.2905,-60.5 4186.2905,-78.5 4279.5513,-78.5 4279.5513,-60.5 4186.2905,-60.5"/>
<text text-anchor="middle" x="4232.9209" y="-66.5" font-family="Helvetica,sans-Serif" font-size="10.00" fill="#000000">src/validation.cpp</text>
</a>
</g>
</g>
<!-- Node54&#45;&gt;Node89 -->
<g id="edge39" class="edge">
<title>Node54&#45;&gt;Node89</title>
<path fill="none" stroke="#191970" d="M2713.3784,-120.1717C3362.0192,-53.4349 3535.6376,-173.7004 4176.9209,-84 4185.5739,-82.7896 4194.8133,-80.7273 4203.241,-78.5318"/>
<polygon fill="#191970" stroke="#191970" points="2712.8967,-116.7028 2703.3123,-121.2184 2713.6207,-123.6653 2712.8967,-116.7028"/>
</g>
<!-- Node90 -->
<g id="node38" class="node">
<title>Node90</title>
<g id="a_node38"><a xlink:href="validationinterface_8cpp.html" target="_top" xlink:title="src/validationinterface.cpp">
<polygon fill="#ffffff" stroke="#000000" points="4297.1133,-60.5 4297.1133,-78.5 4428.7285,-78.5 4428.7285,-60.5 4297.1133,-60.5"/>
<text text-anchor="middle" x="4362.9209" y="-66.5" font-family="Helvetica,sans-Serif" font-size="10.00" fill="#000000">src/validationinterface.cpp</text>
</a>
</g>
</g>
<!-- Node54&#45;&gt;Node90 -->
<g id="edge40" class="edge">
<title>Node54&#45;&gt;Node90</title>
<path fill="none" stroke="#191970" d="M2713.3664,-120.1737C3411.5488,-48.676 3595.7044,-159.2766 4288.9209,-84 4300.244,-82.7704 4312.4174,-80.7019 4323.5555,-78.5067"/>
<polygon fill="#191970" stroke="#191970" points="2712.8991,-116.7033 2703.3117,-121.2123 2713.6184,-123.6662 2712.8991,-116.7033"/>
</g>
<!-- Node91 -->
<g id="node39" class="node">
<title>Node91</title>
<g id="a_node39"><a xlink:href="feebumper_8cpp.html" target="_top" xlink:title="src/wallet/feebumper.cpp">
<polygon fill="#ffffff" stroke="#000000" points="4446.6133,-60.5 4446.6133,-78.5 4573.2285,-78.5 4573.2285,-60.5 4446.6133,-60.5"/>
<text text-anchor="middle" x="4509.9209" y="-66.5" font-family="Helvetica,sans-Serif" font-size="10.00" fill="#000000">src/wallet/feebumper.cpp</text>
</a>
</g>
</g>
<!-- Node54&#45;&gt;Node91 -->
<g id="edge41" class="edge">
<title>Node54&#45;&gt;Node91</title>
<path fill="none" stroke="#191970" d="M2713.4611,-120.1668C3477.497,-42.6333 3679.0546,-167.6589 4437.9209,-84 4448.9474,-82.7844 4460.7949,-80.7204 4471.6319,-78.525"/>
<polygon fill="#191970" stroke="#191970" points="2712.9027,-116.7056 2703.311,-121.2054 2713.6153,-123.6693 2712.9027,-116.7056"/>
</g>
<!-- Node92 -->
<g id="node40" class="node">
<title>Node92</title>
<g id="a_node40"><a xlink:href="wallet_2fees_8cpp.html" target="_top" xlink:title="src/wallet/fees.cpp">
<polygon fill="#ffffff" stroke="#000000" points="4590.793,-60.5 4590.793,-78.5 4689.0488,-78.5 4689.0488,-60.5 4590.793,-60.5"/>
<text text-anchor="middle" x="4639.9209" y="-66.5" font-family="Helvetica,sans-Serif" font-size="10.00" fill="#000000">src/wallet/fees.cpp</text>
</a>
</g>
</g>
<!-- Node54&#45;&gt;Node92 -->
<g id="edge42" class="edge">
<title>Node54&#45;&gt;Node92</title>
<path fill="none" stroke="#191970" d="M2713.3346,-120.2021C3142.4574,-78.7653 4173.3479,-138.2965 4581.9209,-84 4590.8722,-82.8104 4600.4381,-80.7547 4609.167,-78.559"/>
<polygon fill="#191970" stroke="#191970" points="2712.9146,-116.7265 2703.3104,-121.1998 2713.6079,-123.6921 2712.9146,-116.7265"/>
</g>
<!-- Node93 -->
<g id="node41" class="node">
<title>Node93</title>
<g id="a_node41"><a xlink:href="wallet_2init_8cpp.html" target="_top" xlink:title="src/wallet/init.cpp">
<polygon fill="#ffffff" stroke="#000000" points="4706.8521,-60.5 4706.8521,-78.5 4798.9897,-78.5 4798.9897,-60.5 4706.8521,-60.5"/>
<text text-anchor="middle" x="4752.9209" y="-66.5" font-family="Helvetica,sans-Serif" font-size="10.00" fill="#000000">src/wallet/init.cpp</text>
</a>
</g>
</g>
<!-- Node54&#45;&gt;Node93 -->
<g id="edge43" class="edge">
<title>Node54&#45;&gt;Node93</title>
<path fill="none" stroke="#191970" d="M2713.2714,-120.2091C3168.0598,-76.4578 4264.1293,-144.2252 4697.9209,-84 4706.4304,-82.8186 4715.5083,-80.7655 4723.7854,-78.5697"/>
<polygon fill="#191970" stroke="#191970" points="2712.9163,-116.727 2703.31,-121.1958 2713.6063,-123.693 2712.9163,-116.727"/>
</g>
<!-- Node94 -->
<g id="node42" class="node">
<title>Node94</title>
<g id="a_node42"><a xlink:href="rpcdump_8cpp.html" target="_top" xlink:title="src/wallet/rpcdump.cpp">
<polygon fill="#ffffff" stroke="#000000" points="4816.7905,-60.5 4816.7905,-78.5 4935.0513,-78.5 4935.0513,-60.5 4816.7905,-60.5"/>
<text text-anchor="middle" x="4875.9209" y="-66.5" font-family="Helvetica,sans-Serif" font-size="10.00" fill="#000000">src/wallet/rpcdump.cpp</text>
</a>
</g>
</g>
<!-- Node54&#45;&gt;Node94 -->
<g id="edge44" class="edge">
<title>Node54&#45;&gt;Node94</title>
<path fill="none" stroke="#191970" d="M2713.4579,-120.1899C3192.707,-74.098 4348.5751,-136.4238 4807.9209,-84 4818.3549,-82.8092 4829.5506,-80.7531 4839.7853,-78.5574"/>
<polygon fill="#191970" stroke="#191970" points="2712.9171,-116.7262 2703.3097,-121.1925 2713.6053,-123.6923 2712.9171,-116.7262"/>
</g>
<!-- Node95 -->
<g id="node43" class="node">
<title>Node95</title>
<g id="a_node43"><a xlink:href="rpcwallet_8cpp.html" target="_top" xlink:title="src/wallet/rpcwallet.cpp">
<polygon fill="#ffffff" stroke="#000000" points="4953.5146,-60.5 4953.5146,-78.5 5072.3271,-78.5 5072.3271,-60.5 4953.5146,-60.5"/>
<text text-anchor="middle" x="5012.9209" y="-66.5" font-family="Helvetica,sans-Serif" font-size="10.00" fill="#000000">src/wallet/rpcwallet.cpp</text>
</a>
</g>
</g>
<!-- Node54&#45;&gt;Node95 -->
<g id="edge45" class="edge">
<title>Node54&#45;&gt;Node95</title>
<path fill="none" stroke="#191970" d="M2713.352,-120.2004C3222.6581,-71.3265 4454.4131,-138.8733 4943.9209,-84 4954.5041,-82.8136 4965.8631,-80.759 4976.2483,-78.5632"/>
<polygon fill="#191970" stroke="#191970" points="2712.9184,-116.7261 2703.3093,-121.1888 2713.604,-123.6925 2712.9184,-116.7261"/>
</g>
<!-- Node96 -->
<g id="node44" class="node">
<title>Node96</title>
<g id="a_node44"><a xlink:href="wallet__tests_8cpp.html" target="_top" xlink:title="src/wallet/test/wallet\l_tests.cpp">
<polygon fill="#ffffff" stroke="#000000" points="5090.4629,-55.5 5090.4629,-83.5 5195.3789,-83.5 5195.3789,-55.5 5090.4629,-55.5"/>
<text text-anchor="start" x="5098.4629" y="-71.5" font-family="Helvetica,sans-Serif" font-size="10.00" fill="#000000">src/wallet/test/wallet</text>
<text text-anchor="middle" x="5142.9209" y="-61.5" font-family="Helvetica,sans-Serif" font-size="10.00" fill="#000000">_tests.cpp</text>
</a>
</g>
</g>
<!-- Node54&#45;&gt;Node96 -->
<g id="edge46" class="edge">
<title>Node54&#45;&gt;Node96</title>
<path fill="none" stroke="#191970" d="M2713.5592,-120.1818C3253.3422,-68.6438 4561.8955,-147.8856 5080.9209,-84 5083.9929,-83.6219 5087.1347,-83.153 5090.2941,-82.6177"/>
<polygon fill="#191970" stroke="#191970" points="2712.9202,-116.7275 2703.309,-121.1855 2713.6025,-123.6942 2712.9202,-116.7275"/>
</g>
<!-- Node97 -->
<g id="node45" class="node">
<title>Node97</title>
<g id="a_node45"><a xlink:href="wallet_2wallet_8cpp.html" target="_top" xlink:title="src/wallet/wallet.cpp">
<polygon fill="#ffffff" stroke="#000000" points="5213.4604,-60.5 5213.4604,-78.5 5318.3813,-78.5 5318.3813,-60.5 5213.4604,-60.5"/>
<text text-anchor="middle" x="5265.9209" y="-66.5" font-family="Helvetica,sans-Serif" font-size="10.00" fill="#000000">src/wallet/wallet.cpp</text>
</a>
</g>
</g>
<!-- Node54&#45;&gt;Node97 -->
<g id="edge47" class="edge">
<title>Node54&#45;&gt;Node97</title>
<path fill="none" stroke="#191970" d="M2713.6641,-120.1721C3280.7507,-66.1603 4657.7827,-151.0148 5203.9209,-84 5213.5763,-82.8152 5223.9198,-80.7316 5233.3374,-78.5071"/>
<polygon fill="#191970" stroke="#191970" points="2712.9213,-116.7279 2703.3087,-121.1829 2713.6015,-123.6947 2712.9213,-116.7279"/>
</g>
<!-- Node98 -->
<g id="node46" class="node">
<title>Node98</title>
<g id="a_node46"><a xlink:href="zmqnotificationinterface_8cpp.html" target="_top" xlink:title="src/zmq/zmqnotificationinterface.cpp">
<polygon fill="#ffffff" stroke="#000000" points="5336.0542,-60.5 5336.0542,-78.5 5513.7876,-78.5 5513.7876,-60.5 5336.0542,-60.5"/>
<text text-anchor="middle" x="5424.9209" y="-66.5" font-family="Helvetica,sans-Serif" font-size="10.00" fill="#000000">src/zmq/zmqnotificationinterface.cpp</text>
</a>
</g>
</g>
<!-- Node54&#45;&gt;Node98 -->
<g id="edge48" class="edge">
<title>Node54&#45;&gt;Node98</title>
<path fill="none" stroke="#191970" d="M2713.2908,-120.2056C3307.3553,-63.3595 4751.102,-130.3566 5326.9209,-84 5341.9216,-82.7924 5358.1168,-80.7163 5372.9374,-78.5065"/>
<polygon fill="#191970" stroke="#191970" points="2712.9209,-116.725 2703.3085,-121.1805 2713.6013,-123.6919 2712.9209,-116.725"/>
</g>
<!-- Node99 -->
<g id="node47" class="node">
<title>Node99</title>
<g id="a_node47"><a xlink:href="zmqpublishnotifier_8cpp.html" target="_top" xlink:title="src/zmq/zmqpublishnotifier.cpp">
<polygon fill="#ffffff" stroke="#000000" points="5531.5566,-60.5 5531.5566,-78.5 5684.2852,-78.5 5684.2852,-60.5 5531.5566,-60.5"/>
<text text-anchor="middle" x="5607.9209" y="-66.5" font-family="Helvetica,sans-Serif" font-size="10.00" fill="#000000">src/zmq/zmqpublishnotifier.cpp</text>
</a>
</g>
</g>
<!-- Node54&#45;&gt;Node99 -->
<g id="edge49" class="edge">
<title>Node54&#45;&gt;Node99</title>
<path fill="none" stroke="#191970" d="M2713.5576,-120.1812C3351.1919,-59.4723 4904.3431,-140.3755 5522.9209,-84 5535.8911,-82.8179 5549.8627,-80.7646 5562.6569,-78.5688"/>
<polygon fill="#191970" stroke="#191970" points="2712.9227,-116.7263 2703.3081,-121.1772 2713.5998,-123.6935 2712.9227,-116.7263"/>
</g>
<!-- Node69&#45;&gt;Node58 -->
<g id="edge17" class="edge">
<title>Node69&#45;&gt;Node58</title>
<path fill="none" stroke="#191970" d="M494.0941,-57.2978C458.4334,-45.7944 405.821,-28.8226 373.8267,-18.5019"/>
<polygon fill="#191970" stroke="#191970" points="493.0799,-60.6482 503.6715,-60.3873 495.2289,-53.9862 493.0799,-60.6482"/>
</g>
<!-- Node69&#45;&gt;Node66 -->
<g id="edge18" class="edge">
<title>Node69&#45;&gt;Node66</title>
<path fill="none" stroke="#191970" d="M515.422,-53.0011C504.3687,-41.9478 490.2258,-27.8049 481.1194,-18.6985"/>
<polygon fill="#191970" stroke="#191970" points="513.2622,-55.7911 522.8082,-60.3873 518.212,-50.8413 513.2622,-55.7911"/>
</g>
<!-- Node70 -->
<g id="node18" class="node">
<title>Node70</title>
<g id="a_node18"><a xlink:href="miner_8cpp.html" target="_top" xlink:title="src/miner.cpp">
<polygon fill="#ffffff" stroke="#000000" points="522.187,-.5 522.187,-18.5 597.6548,-18.5 597.6548,-.5 522.187,-.5"/>
<text text-anchor="middle" x="559.9209" y="-6.5" font-family="Helvetica,sans-Serif" font-size="10.00" fill="#000000">src/miner.cpp</text>
</a>
</g>
</g>
<!-- Node69&#45;&gt;Node70 -->
<g id="edge19" class="edge">
<title>Node69&#45;&gt;Node70</title>
<path fill="none" stroke="#191970" d="M540.5358,-51.0396C545.5395,-40.3172 551.6262,-27.2744 555.6283,-18.6985"/>
<polygon fill="#191970" stroke="#191970" points="537.2308,-49.8453 536.1735,-60.3873 543.5741,-52.8056 537.2308,-49.8453"/>
</g>
<!-- Node69&#45;&gt;Node71 -->
<g id="edge20" class="edge">
<title>Node69&#45;&gt;Node71</title>
<path fill="none" stroke="#191970" d="M561.4025,-56.0993C586.6092,-44.6417 622.1874,-28.4698 644.1168,-18.5019"/>
<polygon fill="#191970" stroke="#191970" points="559.6242,-53.0629 551.9689,-60.3873 562.5209,-59.4355 559.6242,-53.0629"/>
</g>
</g>
</svg>
