<?xml version="1.0" encoding="UTF-8" standalone="no"?>
<!DOCTYPE svg PUBLIC "-//W3C//DTD SVG 1.1//EN"
 "http://www.w3.org/Graphics/SVG/1.1/DTD/svg11.dtd">
<!-- Generated by graphviz version 2.40.1 (20161225.0304)
 -->
<!-- Title: src/qt/walletframe.h Pages: 1 -->
<svg width="122pt" height="82pt"
 viewBox="0.00 0.00 121.95 82.00" xmlns="http://www.w3.org/2000/svg" xmlns:xlink="http://www.w3.org/1999/xlink">
<g id="graph0" class="graph" transform="scale(1 1) rotate(0) translate(4 78)">
<title>src/qt/walletframe.h</title>
<polygon fill="#ffffff" stroke="transparent" points="-4,4 -4,-78 117.9507,-78 117.9507,4 -4,4"/>
<!-- Node0 -->
<g id="node1" class="node">
<title>Node0</title>
<polygon fill="#bfbfbf" stroke="#000000" points="7.9878,-55.5 7.9878,-73.5 110.6821,-73.5 110.6821,-55.5 7.9878,-55.5"/>
<text text-anchor="middle" x="59.335" y="-61.5" font-family="Helvetica,sans-Serif" font-size="10.00" fill="#000000">src/qt/walletframe.h</text>
</g>
<!-- Node1 -->
<g id="node2" class="node">
<title>Node1</title>
<polygon fill="#ffffff" stroke="#bfbfbf" points="0,-.5 0,-18.5 52.6699,-18.5 52.6699,-.5 0,-.5"/>
<text text-anchor="middle" x="26.335" y="-6.5" font-family="Helvetica,sans-Serif" font-size="10.00" fill="#000000">QFrame</text>
</g>
<!-- Node0&#45;&gt;Node1 -->
<g id="edge1" class="edge">
<title>Node0&#45;&gt;Node1</title>
<path fill="none" stroke="#191970" d="M53.8857,-55.4179C49.3274,-47.8207 42.6866,-36.7527 37.0669,-27.3866"/>
<polygon fill="#191970" stroke="#191970" points="40.0489,-25.5536 31.9026,-18.7795 34.0464,-29.1552 40.0489,-25.5536"/>
</g>
<!-- Node2 -->
<g id="node3" class="node">
<title>Node2</title>
<polygon fill="#ffffff" stroke="#bfbfbf" points="70.7192,-.5 70.7192,-18.5 113.9507,-18.5 113.9507,-.5 70.7192,-.5"/>
<text text-anchor="middle" x="92.335" y="-6.5" font-family="Helvetica,sans-Serif" font-size="10.00" fill="#000000">QMap</text>
</g>
<!-- Node0&#45;&gt;Node2 -->
<g id="edge2" class="edge">
<title>Node0&#45;&gt;Node2</title>
<path fill="none" stroke="#191970" d="M64.7842,-55.4179C69.3426,-47.8207 75.9834,-36.7527 81.603,-27.3866"/>
<polygon fill="#191970" stroke="#191970" points="84.6235,-29.1552 86.7673,-18.7795 78.6211,-25.5536 84.6235,-29.1552"/>
</g>
</g>
</svg>
