<?xml version="1.0" encoding="UTF-8" standalone="no"?>
<!DOCTYPE svg PUBLIC "-//W3C//DTD SVG 1.1//EN"
 "http://www.w3.org/Graphics/SVG/1.1/DTD/svg11.dtd">
<!-- Generated by graphviz version 2.40.1 (20161225.0304)
 -->
<!-- Title: HasWallets Pages: 1 -->
<svg width="412pt" height="656pt"
 viewBox="0.00 0.00 412.21 656.00" xmlns="http://www.w3.org/2000/svg" xmlns:xlink="http://www.w3.org/1999/xlink">
<g id="graph0" class="graph" transform="scale(1 1) rotate(0) translate(4 652)">
<title>HasWallets</title>
<polygon fill="#ffffff" stroke="transparent" points="-4,4 -4,-652 408.209,-652 408.209,4 -4,4"/>
<!-- Node29 -->
<g id="node1" class="node">
<title>Node29</title>
<polygon fill="#bfbfbf" stroke="#000000" points="0,-314.5 0,-332.5 66.2002,-332.5 66.2002,-314.5 0,-314.5"/>
<text text-anchor="middle" x="33.1001" y="-320.5" font-family="Helvetica,sans-Serif" font-size="10.00" fill="#000000">HasWallets</text>
</g>
<!-- Node30 -->
<g id="node2" class="node">
<title>Node30</title>
<g id="a_node2"><a xlink:href="rpcwallet_8h.html#a2fb6c6dc387554e482ce3284dd9faec8" target="_top" xlink:title="EnsureWalletIsAvailable">
<polygon fill="#ffffff" stroke="#000000" points="102.2002,-314.5 102.2002,-332.5 225.4854,-332.5 225.4854,-314.5 102.2002,-314.5"/>
<text text-anchor="middle" x="163.8428" y="-320.5" font-family="Helvetica,sans-Serif" font-size="10.00" fill="#000000">EnsureWalletIsAvailable</text>
</a>
</g>
</g>
<!-- Node29&#45;&gt;Node30 -->
<g id="edge1" class="edge">
<title>Node29&#45;&gt;Node30</title>
<path fill="none" stroke="#191970" d="M76.5044,-323.5C84.7147,-323.5 93.4481,-323.5 102.0966,-323.5"/>
<polygon fill="#191970" stroke="#191970" points="76.4303,-320.0001 66.4303,-323.5 76.4302,-327.0001 76.4303,-320.0001"/>
</g>
<!-- Node31 -->
<g id="node3" class="node">
<title>Node31</title>
<g id="a_node3"><a xlink:href="rpcwallet_8cpp.html#a2f46e2bb304dda9a197b5a68db6106f7" target="_top" xlink:title="importprivkey">
<polygon fill="#ffffff" stroke="#000000" points="295.1182,-629.5 295.1182,-647.5 370.5762,-647.5 370.5762,-629.5 295.1182,-629.5"/>
<text text-anchor="middle" x="332.8472" y="-635.5" font-family="Helvetica,sans-Serif" font-size="10.00" fill="#000000">importprivkey</text>
</a>
</g>
</g>
<!-- Node30&#45;&gt;Node31 -->
<g id="edge2" class="edge">
<title>Node30&#45;&gt;Node31</title>
<path fill="none" stroke="#191970" d="M167.6388,-342.6664C179.762,-402.0157 219.2369,-581.1318 261.4854,-620.5 270.5528,-628.9493 282.9942,-633.5799 294.951,-636.0725"/>
<polygon fill="#191970" stroke="#191970" points="171.0478,-341.8653 165.6422,-332.7532 164.1856,-343.2475 171.0478,-341.8653"/>
</g>
<!-- Node32 -->
<g id="node4" class="node">
<title>Node32</title>
<g id="a_node4"><a xlink:href="rpcwallet_8cpp.html#a9df6d8c784683e22309cb2627d21b1f2" target="_top" xlink:title="abortrescan">
<polygon fill="#ffffff" stroke="#000000" points="298.4434,-592.5 298.4434,-610.5 367.251,-610.5 367.251,-592.5 298.4434,-592.5"/>
<text text-anchor="middle" x="332.8472" y="-598.5" font-family="Helvetica,sans-Serif" font-size="10.00" fill="#000000">abortrescan</text>
</a>
</g>
</g>
<!-- Node30&#45;&gt;Node32 -->
<g id="edge3" class="edge">
<title>Node30&#45;&gt;Node32</title>
<path fill="none" stroke="#191970" d="M165.1731,-342.7653C169.5729,-390.9925 187.9171,-517.7534 261.4854,-583.5 271.4888,-592.4399 285.2914,-597.0744 298.0937,-599.4313"/>
<polygon fill="#191970" stroke="#191970" points="168.6391,-342.2019 164.346,-332.5159 161.6618,-342.765 168.6391,-342.2019"/>
</g>
<!-- Node33 -->
<g id="node5" class="node">
<title>Node33</title>
<g id="a_node5"><a xlink:href="rpcwallet_8cpp.html#aba44e0021b6111a1f0a8c54bbff34130" target="_top" xlink:title="importaddress">
<polygon fill="#ffffff" stroke="#000000" points="293.1675,-555.5 293.1675,-573.5 372.5269,-573.5 372.5269,-555.5 293.1675,-555.5"/>
<text text-anchor="middle" x="332.8472" y="-561.5" font-family="Helvetica,sans-Serif" font-size="10.00" fill="#000000">importaddress</text>
</a>
</g>
</g>
<!-- Node30&#45;&gt;Node33 -->
<g id="edge4" class="edge">
<title>Node30&#45;&gt;Node33</title>
<path fill="none" stroke="#191970" d="M166.5425,-342.9267C173.6388,-386.3713 196.938,-491.8469 261.4854,-546.5 270.2615,-553.9309 281.687,-558.3617 292.8143,-560.9834"/>
<polygon fill="#191970" stroke="#191970" points="169.9734,-342.2069 165.0104,-332.8464 163.0529,-343.2588 169.9734,-342.2069"/>
</g>
<!-- Node34 -->
<g id="node6" class="node">
<title>Node34</title>
<g id="a_node6"><a xlink:href="rpcwallet_8cpp.html#a4b35e53468d94704834a928013d7e716" target="_top" xlink:title="importprunedfunds">
<polygon fill="#ffffff" stroke="#000000" points="283.1553,-518.5 283.1553,-536.5 382.5391,-536.5 382.5391,-518.5 283.1553,-518.5"/>
<text text-anchor="middle" x="332.8472" y="-524.5" font-family="Helvetica,sans-Serif" font-size="10.00" fill="#000000">importprunedfunds</text>
</a>
</g>
</g>
<!-- Node30&#45;&gt;Node34 -->
<g id="edge5" class="edge">
<title>Node30&#45;&gt;Node34</title>
<path fill="none" stroke="#191970" d="M168.3405,-342.7444C178.252,-380.743 205.6642,-465.5265 261.4854,-509.5 267.8087,-514.4812 275.3416,-518.1009 283.1057,-520.7274"/>
<polygon fill="#191970" stroke="#191970" points="171.6171,-341.4152 165.8143,-332.5507 164.8226,-343.099 171.6171,-341.4152"/>
</g>
<!-- Node35 -->
<g id="node7" class="node">
<title>Node35</title>
<g id="a_node7"><a xlink:href="rpcwallet_8cpp.html#a85478b0b9837a3e5467dce66fcb5ffb0" target="_top" xlink:title="removeprunedfunds">
<polygon fill="#ffffff" stroke="#000000" points="280.3745,-481.5 280.3745,-499.5 385.3198,-499.5 385.3198,-481.5 280.3745,-481.5"/>
<text text-anchor="middle" x="332.8472" y="-487.5" font-family="Helvetica,sans-Serif" font-size="10.00" fill="#000000">removeprunedfunds</text>
</a>
</g>
</g>
<!-- Node30&#45;&gt;Node35 -->
<g id="edge6" class="edge">
<title>Node30&#45;&gt;Node35</title>
<path fill="none" stroke="#191970" d="M170.6892,-341.9731C183.4487,-373.762 213.9563,-438.6485 261.4854,-472.5 267.1053,-476.5027 273.5296,-479.6177 280.1688,-482.0413"/>
<polygon fill="#191970" stroke="#191970" points="173.9172,-340.6165 167.0435,-332.554 167.3891,-343.1432 173.9172,-340.6165"/>
</g>
<!-- Node36 -->
<g id="node8" class="node">
<title>Node36</title>
<g id="a_node8"><a xlink:href="rpcwallet_8cpp.html#a1e79cb342ad4f0bf7b02a2b1e18af7ff" target="_top" xlink:title="importpubkey">
<polygon fill="#ffffff" stroke="#000000" points="294.8325,-444.5 294.8325,-462.5 370.8618,-462.5 370.8618,-444.5 294.8325,-444.5"/>
<text text-anchor="middle" x="332.8472" y="-450.5" font-family="Helvetica,sans-Serif" font-size="10.00" fill="#000000">importpubkey</text>
</a>
</g>
</g>
<!-- Node30&#45;&gt;Node36 -->
<g id="edge7" class="edge">
<title>Node30&#45;&gt;Node36</title>
<path fill="none" stroke="#191970" d="M174.5262,-341.5292C190.3133,-366.5519 222.2777,-411.4384 261.4854,-435.5 271.3953,-441.5817 283.277,-445.6141 294.4765,-448.2857"/>
<polygon fill="#191970" stroke="#191970" points="177.328,-339.4031 169.1153,-332.7096 171.3614,-343.0637 177.328,-339.4031"/>
</g>
<!-- Node37 -->
<g id="node9" class="node">
<title>Node37</title>
<g id="a_node9"><a xlink:href="wallet__tests_8cpp.html#a8c64ef6e0ced69002923098229448758" target="_top" xlink:title="importwallet">
<polygon fill="#ffffff" stroke="#000000" points="298.1724,-407.5 298.1724,-425.5 367.522,-425.5 367.522,-407.5 298.1724,-407.5"/>
<text text-anchor="middle" x="332.8472" y="-413.5" font-family="Helvetica,sans-Serif" font-size="10.00" fill="#000000">importwallet</text>
</a>
</g>
</g>
<!-- Node30&#45;&gt;Node37 -->
<g id="edge8" class="edge">
<title>Node30&#45;&gt;Node37</title>
<path fill="none" stroke="#191970" d="M180.4207,-339.708C198.7749,-356.7698 229.955,-383.2288 261.4854,-398.5 272.8698,-404.0139 286.1214,-407.955 298.0934,-410.7153"/>
<polygon fill="#191970" stroke="#191970" points="182.5979,-336.949 172.935,-332.604 177.7793,-342.0265 182.5979,-336.949"/>
</g>
<!-- Node38 -->
<g id="node10" class="node">
<title>Node38</title>
<g id="a_node10"><a xlink:href="rpcwallet_8cpp.html#ab3f51d8e8fe414dbf91c37485e481ae3" target="_top" xlink:title="dumpprivkey">
<polygon fill="#ffffff" stroke="#000000" points="296.5024,-370.5 296.5024,-388.5 369.1919,-388.5 369.1919,-370.5 296.5024,-370.5"/>
<text text-anchor="middle" x="332.8472" y="-376.5" font-family="Helvetica,sans-Serif" font-size="10.00" fill="#000000">dumpprivkey</text>
</a>
</g>
</g>
<!-- Node30&#45;&gt;Node38 -->
<g id="edge9" class="edge">
<title>Node30&#45;&gt;Node38</title>
<path fill="none" stroke="#191970" d="M194.2802,-336.4697C213.3698,-344.3219 238.6135,-354.1959 261.4854,-361.5 272.6833,-365.076 285.0491,-368.4065 296.2972,-371.206"/>
<polygon fill="#191970" stroke="#191970" points="195.4812,-333.1787 184.9037,-332.5722 192.7943,-339.6425 195.4812,-333.1787"/>
</g>
<!-- Node39 -->
<g id="node11" class="node">
<title>Node39</title>
<g id="a_node11"><a xlink:href="wallet__tests_8cpp.html#a73ce3a42e0b56b2e4516e55871d8590e" target="_top" xlink:title="dumpwallet">
<polygon fill="#ffffff" stroke="#000000" points="299.5566,-333.5 299.5566,-351.5 366.1377,-351.5 366.1377,-333.5 299.5566,-333.5"/>
<text text-anchor="middle" x="332.8472" y="-339.5" font-family="Helvetica,sans-Serif" font-size="10.00" fill="#000000">dumpwallet</text>
</a>
</g>
</g>
<!-- Node30&#45;&gt;Node39 -->
<g id="edge10" class="edge">
<title>Node30&#45;&gt;Node39</title>
<path fill="none" stroke="#191970" d="M235.8498,-331.5953C257.9189,-334.0763 281.1506,-336.6881 299.3437,-338.7334"/>
<polygon fill="#191970" stroke="#191970" points="236.1426,-328.1062 225.8141,-330.467 235.3605,-335.0624 236.1426,-328.1062"/>
</g>
<!-- Node40 -->
<g id="node12" class="node">
<title>Node40</title>
<g id="a_node12"><a xlink:href="wallet__tests_8cpp.html#af0e3c9469f1d8f368d3d5f38e5580367" target="_top" xlink:title="importmulti">
<polygon fill="#ffffff" stroke="#000000" points="300.3989,-296.5 300.3989,-314.5 365.2954,-314.5 365.2954,-296.5 300.3989,-296.5"/>
<text text-anchor="middle" x="332.8472" y="-302.5" font-family="Helvetica,sans-Serif" font-size="10.00" fill="#000000">importmulti</text>
</a>
</g>
</g>
<!-- Node30&#45;&gt;Node40 -->
<g id="edge11" class="edge">
<title>Node30&#45;&gt;Node40</title>
<path fill="none" stroke="#191970" d="M236.0035,-315.8144C258.4123,-313.4278 282.0045,-310.915 300.2927,-308.9673"/>
<polygon fill="#191970" stroke="#191970" points="235.3872,-312.3602 225.8141,-316.8997 236.1286,-319.3208 235.3872,-312.3602"/>
</g>
<!-- Node41 -->
<g id="node13" class="node">
<title>Node41</title>
<g id="a_node13"><a xlink:href="rpcwallet_8cpp.html#a74b85c92ee6a84277c73b74f2e212bff" target="_top" xlink:title="listtransactions">
<polygon fill="#ffffff" stroke="#000000" points="291.7783,-259.5 291.7783,-277.5 373.916,-277.5 373.916,-259.5 291.7783,-259.5"/>
<text text-anchor="middle" x="332.8472" y="-265.5" font-family="Helvetica,sans-Serif" font-size="10.00" fill="#000000">listtransactions</text>
</a>
</g>
</g>
<!-- Node30&#45;&gt;Node41 -->
<g id="edge12" class="edge">
<title>Node30&#45;&gt;Node41</title>
<path fill="none" stroke="#191970" d="M195.8698,-310.8364C214.8044,-303.565 239.3376,-294.5145 261.4854,-287.5 272.73,-283.9386 285.109,-280.4832 296.3547,-277.5174"/>
<polygon fill="#191970" stroke="#191970" points="194.5822,-307.5817 186.5208,-314.4566 197.11,-314.1094 194.5822,-307.5817"/>
</g>
<!-- Node42 -->
<g id="node14" class="node">
<title>Node42</title>
<g id="a_node14"><a xlink:href="rpcwallet_8h.html#a7c13054932c9e3b351bd6277fa9361d7" target="_top" xlink:title="signrawtransactionwithwallet">
<polygon fill="#ffffff" stroke="#000000" points="261.4854,-222.5 261.4854,-240.5 404.209,-240.5 404.209,-222.5 261.4854,-222.5"/>
<text text-anchor="middle" x="332.8472" y="-228.5" font-family="Helvetica,sans-Serif" font-size="10.00" fill="#000000">signrawtransactionwithwallet</text>
</a>
</g>
</g>
<!-- Node30&#45;&gt;Node42 -->
<g id="edge13" class="edge">
<title>Node30&#45;&gt;Node42</title>
<path fill="none" stroke="#191970" d="M180.8352,-307.5619C199.329,-291.0325 230.4304,-265.5432 261.4854,-250.5 269.793,-246.4757 279.0724,-243.2122 288.1198,-240.5998"/>
<polygon fill="#191970" stroke="#191970" points="178.3039,-305.1333 173.2707,-314.4562 183.0192,-310.3069 178.3039,-305.1333"/>
</g>
<!-- Node43 -->
<g id="node15" class="node">
<title>Node43</title>
<g id="a_node15"><a xlink:href="rpcwallet_8cpp.html#a236a42206aa464fbb10bae6e6243092b" target="_top" xlink:title="generate">
<polygon fill="#ffffff" stroke="#000000" points="305.1084,-185.5 305.1084,-203.5 360.5859,-203.5 360.5859,-185.5 305.1084,-185.5"/>
<text text-anchor="middle" x="332.8472" y="-191.5" font-family="Helvetica,sans-Serif" font-size="10.00" fill="#000000">generate</text>
</a>
</g>
</g>
<!-- Node30&#45;&gt;Node43 -->
<g id="edge14" class="edge">
<title>Node30&#45;&gt;Node43</title>
<path fill="none" stroke="#191970" d="M174.6494,-305.8667C190.5841,-281.3794 222.724,-237.3997 261.4854,-213.5 274.5811,-205.4254 291.0796,-200.7459 304.9134,-198.0528"/>
<polygon fill="#191970" stroke="#191970" points="171.578,-304.1748 169.1828,-314.4953 177.4912,-307.9211 171.578,-304.1748"/>
</g>
<!-- Node44 -->
<g id="node16" class="node">
<title>Node44</title>
<g id="a_node16"><a xlink:href="rpcwallet_8cpp.html#a151535abf7394b299deb8d0a333de70b" target="_top" xlink:title="rescanblockchain">
<polygon fill="#ffffff" stroke="#000000" points="286.2144,-148.5 286.2144,-166.5 379.48,-166.5 379.48,-148.5 286.2144,-148.5"/>
<text text-anchor="middle" x="332.8472" y="-154.5" font-family="Helvetica,sans-Serif" font-size="10.00" fill="#000000">rescanblockchain</text>
</a>
</g>
</g>
<!-- Node30&#45;&gt;Node44 -->
<g id="edge15" class="edge">
<title>Node30&#45;&gt;Node44</title>
<path fill="none" stroke="#191970" d="M170.9918,-304.8882C184.0376,-273.4628 214.7417,-210.0365 261.4854,-176.5 268.7773,-171.2683 277.4171,-167.4772 286.1223,-164.7298"/>
<polygon fill="#191970" stroke="#191970" points="167.7194,-303.645 167.2469,-314.2293 174.2167,-306.2499 167.7194,-303.645"/>
</g>
<!-- Node45 -->
<g id="node17" class="node">
<title>Node45</title>
<g id="a_node17"><a xlink:href="rpcwallet_8h.html#a3f008088e017b871e32cfae02b622bc8" target="_top" xlink:title="getaddressinfo">
<polygon fill="#ffffff" stroke="#000000" points="292.0469,-111.5 292.0469,-129.5 373.6475,-129.5 373.6475,-111.5 292.0469,-111.5"/>
<text text-anchor="middle" x="332.8472" y="-117.5" font-family="Helvetica,sans-Serif" font-size="10.00" fill="#000000">getaddressinfo</text>
</a>
</g>
</g>
<!-- Node30&#45;&gt;Node45 -->
<g id="edge16" class="edge">
<title>Node30&#45;&gt;Node45</title>
<path fill="none" stroke="#191970" d="M168.5957,-303.995C178.8259,-266.2583 206.5803,-183.1388 261.4854,-139.5 270.2173,-132.5598 281.2561,-128.1424 292.0254,-125.3346"/>
<polygon fill="#191970" stroke="#191970" points="165.0835,-303.5981 165.9728,-314.1555 171.8613,-305.3478 165.0835,-303.5981"/>
</g>
<!-- Node46 -->
<g id="node18" class="node">
<title>Node46</title>
<g id="a_node18"><a xlink:href="rpcwallet_8cpp.html#a61c7a90d1b36888fe11b751e746e18c0" target="_top" xlink:title="sethdseed">
<polygon fill="#ffffff" stroke="#000000" points="301.7734,-74.5 301.7734,-92.5 363.9209,-92.5 363.9209,-74.5 301.7734,-74.5"/>
<text text-anchor="middle" x="332.8472" y="-80.5" font-family="Helvetica,sans-Serif" font-size="10.00" fill="#000000">sethdseed</text>
</a>
</g>
</g>
<!-- Node30&#45;&gt;Node46 -->
<g id="edge17" class="edge">
<title>Node30&#45;&gt;Node46</title>
<path fill="none" stroke="#191970" d="M166.6501,-304.3037C173.9672,-261.364 197.6903,-157.0557 261.4854,-102.5 272.5933,-93.0008 287.9595,-88.1941 301.5887,-85.7843"/>
<polygon fill="#191970" stroke="#191970" points="163.1799,-303.8399 165.0646,-314.2657 170.0929,-304.9402 163.1799,-303.8399"/>
</g>
<!-- Node47 -->
<g id="node19" class="node">
<title>Node47</title>
<g id="a_node19"><a xlink:href="rpcwallet_8cpp.html#a9c99ceacf389a1ce91977c6f7ffa5022" target="_top" xlink:title="walletprocesspsbt">
<polygon fill="#ffffff" stroke="#000000" points="285.106,-37.5 285.106,-55.5 380.5884,-55.5 380.5884,-37.5 285.106,-37.5"/>
<text text-anchor="middle" x="332.8472" y="-43.5" font-family="Helvetica,sans-Serif" font-size="10.00" fill="#000000">walletprocesspsbt</text>
</a>
</g>
</g>
<!-- Node30&#45;&gt;Node47 -->
<g id="edge18" class="edge">
<title>Node30&#45;&gt;Node47</title>
<path fill="none" stroke="#191970" d="M165.3064,-304.1127C169.9963,-256.1403 188.9236,-131.041 261.4854,-65.5 268.0502,-59.5703 276.2604,-55.4568 284.7521,-52.6113"/>
<polygon fill="#191970" stroke="#191970" points="161.7976,-304.0629 164.4146,-314.3294 168.771,-304.6716 161.7976,-304.0629"/>
</g>
<!-- Node48 -->
<g id="node20" class="node">
<title>Node48</title>
<g id="a_node20"><a xlink:href="rpcwallet_8cpp.html#afca55ac7a3c6c274b8b7b3e6eab9cd86" target="_top" xlink:title="walletcreatefundedpsbt">
<polygon fill="#ffffff" stroke="#000000" points="273.4238,-.5 273.4238,-18.5 392.2705,-18.5 392.2705,-.5 273.4238,-.5"/>
<text text-anchor="middle" x="332.8472" y="-6.5" font-family="Helvetica,sans-Serif" font-size="10.00" fill="#000000">walletcreatefundedpsbt</text>
</a>
</g>
</g>
<!-- Node30&#45;&gt;Node48 -->
<g id="edge19" class="edge">
<title>Node30&#45;&gt;Node48</title>
<path fill="none" stroke="#191970" d="M167.6794,-304.4848C179.9223,-245.6004 219.7118,-67.8619 261.4854,-28.5 265.8709,-24.3676 271.0516,-21.1121 276.5875,-18.5509"/>
<polygon fill="#191970" stroke="#191970" points="164.2428,-303.8207 165.6623,-314.32 171.1001,-305.2271 164.2428,-303.8207"/>
</g>
</g>
</svg>
