<?xml version="1.0" encoding="UTF-8" standalone="no"?>
<!DOCTYPE svg PUBLIC "-//W3C//DTD SVG 1.1//EN"
 "http://www.w3.org/Graphics/SVG/1.1/DTD/svg11.dtd">
<!-- Generated by graphviz version 2.40.1 (20161225.0304)
 -->
<!-- Title: src/zmq/zmqrpc.cpp Pages: 1 -->
<svg width="2026pt" height="522pt"
 viewBox="0.00 0.00 2026.01 522.00" xmlns="http://www.w3.org/2000/svg" xmlns:xlink="http://www.w3.org/1999/xlink">
<g id="graph0" class="graph" transform="scale(1 1) rotate(0) translate(4 518)">
<title>src/zmq/zmqrpc.cpp</title>
<polygon fill="#ffffff" stroke="transparent" points="-4,4 -4,-518 2022.0122,-518 2022.0122,4 -4,4"/>
<!-- Node0 -->
<g id="node1" class="node">
<title>Node0</title>
<polygon fill="#bfbfbf" stroke="#000000" points="629.2686,-495.5 629.2686,-513.5 734.7314,-513.5 734.7314,-495.5 629.2686,-495.5"/>
<text text-anchor="middle" x="682" y="-501.5" font-family="Helvetica,sans-Serif" font-size="10.00" fill="#000000">src/zmq/zmqrpc.cpp</text>
</g>
<!-- Node1 -->
<g id="node2" class="node">
<title>Node1</title>
<g id="a_node2"><a xlink:href="zmqrpc_8h.html" target="_top" xlink:title="zmq/zmqrpc.h">
<polygon fill="#ffffff" stroke="#000000" points="471.6035,-440.5 471.6035,-458.5 550.3965,-458.5 550.3965,-440.5 471.6035,-440.5"/>
<text text-anchor="middle" x="511" y="-446.5" font-family="Helvetica,sans-Serif" font-size="10.00" fill="#000000">zmq/zmqrpc.h</text>
</a>
</g>
</g>
<!-- Node0&#45;&gt;Node1 -->
<g id="edge1" class="edge">
<title>Node0&#45;&gt;Node1</title>
<path fill="none" stroke="#191970" d="M653.7628,-495.4179C625.0878,-486.1949 580.509,-471.8567 548.801,-461.6582"/>
<polygon fill="#191970" stroke="#191970" points="549.5863,-458.2343 538.9949,-458.5042 547.4429,-464.8981 549.5863,-458.2343"/>
</g>
<!-- Node2 -->
<g id="node3" class="node">
<title>Node2</title>
<g id="a_node3"><a xlink:href="server_8h.html" target="_top" xlink:title="rpc/server.h">
<polygon fill="#ffffff" stroke="#000000" points="682.877,-275.5 682.877,-293.5 751.123,-293.5 751.123,-275.5 682.877,-275.5"/>
<text text-anchor="middle" x="717" y="-281.5" font-family="Helvetica,sans-Serif" font-size="10.00" fill="#000000">rpc/server.h</text>
</a>
</g>
</g>
<!-- Node0&#45;&gt;Node2 -->
<g id="edge2" class="edge">
<title>Node0&#45;&gt;Node2</title>
<path fill="none" stroke="#191970" d="M693.9939,-495.2779C713.7245,-479.2561 752.3063,-444.1269 767,-404 780.5769,-366.923 752.0136,-324.4955 732.7255,-301.4956"/>
<polygon fill="#191970" stroke="#191970" points="735.1119,-298.9076 725.8945,-293.6836 729.8423,-303.5154 735.1119,-298.9076"/>
</g>
<!-- Node13 -->
<g id="node14" class="node">
<title>Node13</title>
<g id="a_node14"><a xlink:href="univalue_8h.html" target="_top" xlink:title="univalue.h">
<polygon fill="#ffffff" stroke="#000000" points="575.2046,-165.5 575.2046,-183.5 636.7954,-183.5 636.7954,-165.5 575.2046,-165.5"/>
<text text-anchor="middle" x="606" y="-171.5" font-family="Helvetica,sans-Serif" font-size="10.00" fill="#000000">univalue.h</text>
</a>
</g>
</g>
<!-- Node0&#45;&gt;Node13 -->
<g id="edge100" class="edge">
<title>Node0&#45;&gt;Node13</title>
<path fill="none" stroke="#191970" d="M662.9248,-495.289C632.9009,-479.3013 578,-443.3832 578,-394.5 578,-394.5 578,-394.5 578,-339.5 578,-285.9337 592.5214,-223.9468 600.6489,-193.4482"/>
<polygon fill="#191970" stroke="#191970" points="604.05,-194.2798 603.3152,-183.7105 597.2985,-192.4311 604.05,-194.2798"/>
</g>
<!-- Node25 -->
<g id="node26" class="node">
<title>Node25</title>
<g id="a_node26"><a xlink:href="zmqabstractnotifier_8h.html" target="_top" xlink:title="zmq/zmqabstractnotifier.h">
<polygon fill="#ffffff" stroke="#000000" points="815.0298,-440.5 815.0298,-458.5 944.9702,-458.5 944.9702,-440.5 815.0298,-440.5"/>
<text text-anchor="middle" x="880" y="-446.5" font-family="Helvetica,sans-Serif" font-size="10.00" fill="#000000">zmq/zmqabstractnotifier.h</text>
</a>
</g>
</g>
<!-- Node0&#45;&gt;Node25 -->
<g id="edge42" class="edge">
<title>Node0&#45;&gt;Node25</title>
<path fill="none" stroke="#191970" d="M714.6957,-495.4179C748.3296,-486.0751 800.8597,-471.4834 837.6533,-461.263"/>
<polygon fill="#191970" stroke="#191970" points="838.8864,-464.553 847.5848,-458.5042 837.0129,-457.8084 838.8864,-464.553"/>
</g>
<!-- Node60 -->
<g id="node43" class="node">
<title>Node60</title>
<g id="a_node43"><a xlink:href="zmqnotificationinterface_8h.html" target="_top" xlink:title="zmq/zmqnotificationinterface.h">
<polygon fill="#ffffff" stroke="#000000" points="606.4683,-385.5 606.4683,-403.5 757.5317,-403.5 757.5317,-385.5 606.4683,-385.5"/>
<text text-anchor="middle" x="682" y="-391.5" font-family="Helvetica,sans-Serif" font-size="10.00" fill="#000000">zmq/zmqnotificationinterface.h</text>
</a>
</g>
</g>
<!-- Node0&#45;&gt;Node60 -->
<g id="edge87" class="edge">
<title>Node0&#45;&gt;Node60</title>
<path fill="none" stroke="#191970" d="M682,-495.4982C682,-477.6913 682,-437.6225 682,-413.6515"/>
<polygon fill="#191970" stroke="#191970" points="685.5001,-413.6261 682,-403.6261 678.5001,-413.6262 685.5001,-413.6261"/>
</g>
<!-- Node3 -->
<g id="node4" class="node">
<title>Node3</title>
<g id="a_node4"><a xlink:href="amount_8h.html" target="_top" xlink:title="amount.h">
<polygon fill="#ffffff" stroke="#000000" points="845.1528,-220.5 845.1528,-238.5 902.8472,-238.5 902.8472,-220.5 845.1528,-220.5"/>
<text text-anchor="middle" x="874" y="-226.5" font-family="Helvetica,sans-Serif" font-size="10.00" fill="#000000">amount.h</text>
</a>
</g>
</g>
<!-- Node2&#45;&gt;Node3 -->
<g id="edge3" class="edge">
<title>Node2&#45;&gt;Node3</title>
<path fill="none" stroke="#191970" d="M742.9254,-275.4179C769.0248,-266.2748 809.4742,-252.1046 838.535,-241.924"/>
<polygon fill="#191970" stroke="#191970" points="840.0166,-245.1136 848.2971,-238.5042 837.7022,-238.5073 840.0166,-245.1136"/>
</g>
<!-- Node4 -->
<g id="node5" class="node">
<title>Node4</title>
<polygon fill="#ffffff" stroke="#bfbfbf" points="1045.8794,-.5 1045.8794,-18.5 1094.1206,-18.5 1094.1206,-.5 1045.8794,-.5"/>
<text text-anchor="middle" x="1070" y="-6.5" font-family="Helvetica,sans-Serif" font-size="10.00" fill="#000000">stdint.h</text>
</g>
<!-- Node2&#45;&gt;Node4 -->
<g id="edge39" class="edge">
<title>Node2&#45;&gt;Node4</title>
<path fill="none" stroke="#191970" d="M717.1317,-275.1532C717.5088,-262.4606 718.9078,-239.1589 724,-220 739.3947,-162.0785 752.5908,-143.921 802,-110 877.084,-58.4525 982.0261,-29.2014 1035.5868,-16.7428"/>
<polygon fill="#191970" stroke="#191970" points="1036.6121,-20.0992 1045.5898,-14.4733 1035.0632,-13.2727 1036.6121,-20.0992"/>
</g>
<!-- Node5 -->
<g id="node6" class="node">
<title>Node5</title>
<g id="a_node6"><a xlink:href="rpc_2protocol_8h.html" target="_top" xlink:title="rpc/protocol.h">
<polygon fill="#ffffff" stroke="#000000" points="476.707,-220.5 476.707,-238.5 553.293,-238.5 553.293,-220.5 476.707,-220.5"/>
<text text-anchor="middle" x="515" y="-226.5" font-family="Helvetica,sans-Serif" font-size="10.00" fill="#000000">rpc/protocol.h</text>
</a>
</g>
</g>
<!-- Node2&#45;&gt;Node5 -->
<g id="edge5" class="edge">
<title>Node2&#45;&gt;Node5</title>
<path fill="none" stroke="#191970" d="M683.6438,-275.4179C649.1838,-266.0352 595.2807,-251.3586 557.7219,-241.1322"/>
<polygon fill="#191970" stroke="#191970" points="558.6383,-237.7544 548.07,-238.5042 556.7992,-244.5085 558.6383,-237.7544"/>
</g>
<!-- Node8 -->
<g id="node9" class="node">
<title>Node8</title>
<polygon fill="#ffffff" stroke="#bfbfbf" points="810.7734,-110.5 810.7734,-128.5 851.2266,-128.5 851.2266,-110.5 810.7734,-110.5"/>
<text text-anchor="middle" x="831" y="-116.5" font-family="Helvetica,sans-Serif" font-size="10.00" fill="#000000">string</text>
</g>
<!-- Node2&#45;&gt;Node8 -->
<g id="edge40" class="edge">
<title>Node2&#45;&gt;Node8</title>
<path fill="none" stroke="#191970" d="M718.741,-275.4998C723.2143,-254.2827 736.7927,-200.2703 765,-165 775.2822,-152.1432 790.1536,-141.4533 803.1779,-133.6728"/>
<polygon fill="#191970" stroke="#191970" points="805.2709,-136.5096 812.2432,-128.5322 801.8179,-130.4204 805.2709,-136.5096"/>
</g>
<!-- Node11 -->
<g id="node12" class="node">
<title>Node11</title>
<polygon fill="#ffffff" stroke="#bfbfbf" points="387.5,-165.5 387.5,-183.5 416.5,-183.5 416.5,-165.5 387.5,-165.5"/>
<text text-anchor="middle" x="401.6108" y="-171.5" font-family="Helvetica,sans-Serif" font-size="10.00" fill="#000000">list</text>
</g>
<!-- Node2&#45;&gt;Node11 -->
<g id="edge37" class="edge">
<title>Node2&#45;&gt;Node11</title>
<path fill="none" stroke="#191970" d="M682.439,-276.9054C679.2511,-276.245 676.0678,-275.6003 673,-275 582.2165,-257.2352 550.312,-281.2133 468,-239 446.0725,-227.7546 426.6686,-206.738 414.6716,-191.7515"/>
<polygon fill="#191970" stroke="#191970" points="417.3771,-189.5284 408.5007,-183.7439 411.8325,-193.8013 417.3771,-189.5284"/>
</g>
<!-- Node12 -->
<g id="node13" class="node">
<title>Node12</title>
<polygon fill="#ffffff" stroke="#bfbfbf" points="120.2734,-110.5 120.2734,-128.5 155.7266,-128.5 155.7266,-110.5 120.2734,-110.5"/>
<text text-anchor="middle" x="138" y="-116.5" font-family="Helvetica,sans-Serif" font-size="10.00" fill="#000000">map</text>
</g>
<!-- Node2&#45;&gt;Node12 -->
<g id="edge38" class="edge">
<title>Node2&#45;&gt;Node12</title>
<path fill="none" stroke="#191970" d="M682.4529,-276.8318C679.2621,-276.1868 676.0743,-275.5658 673,-275 568.6504,-255.7948 539.1026,-267.8572 437,-239 416.1087,-233.0955 412.0948,-228.2164 392,-220 309.8006,-186.39 211.9489,-148.176 165.326,-130.0771"/>
<polygon fill="#191970" stroke="#191970" points="166.5059,-126.7807 155.9169,-126.4277 163.9746,-133.3071 166.5059,-126.7807"/>
</g>
<!-- Node2&#45;&gt;Node13 -->
<g id="edge41" class="edge">
<title>Node2&#45;&gt;Node13</title>
<path fill="none" stroke="#191970" d="M700.5993,-275.4589C686.4552,-267.1602 666.0002,-253.9165 651,-239 636.9767,-225.0548 624.4164,-206.2418 616.1528,-192.5336"/>
<polygon fill="#191970" stroke="#191970" points="618.9999,-190.4682 610.9356,-183.5967 612.9546,-193.9974 618.9999,-190.4682"/>
</g>
<!-- Node18 -->
<g id="node19" class="node">
<title>Node18</title>
<g id="a_node19"><a xlink:href="uint256_8h.html" target="_top" xlink:title="uint256.h">
<polygon fill="#ffffff" stroke="#000000" points="1053.4263,-220.5 1053.4263,-238.5 1110.5737,-238.5 1110.5737,-220.5 1053.4263,-220.5"/>
<text text-anchor="middle" x="1082" y="-226.5" font-family="Helvetica,sans-Serif" font-size="10.00" fill="#000000">uint256.h</text>
</a>
</g>
</g>
<!-- Node2&#45;&gt;Node18 -->
<g id="edge23" class="edge">
<title>Node2&#45;&gt;Node18</title>
<path fill="none" stroke="#191970" d="M751.3383,-279.3257C819.504,-269.0542 971.4952,-246.1514 1043.1728,-235.3507"/>
<polygon fill="#191970" stroke="#191970" points="1043.7791,-238.7989 1053.1459,-233.8479 1042.736,-231.8771 1043.7791,-238.7989"/>
</g>
<!-- Node3&#45;&gt;Node4 -->
<g id="edge4" class="edge">
<title>Node3&#45;&gt;Node4</title>
<path fill="none" stroke="#191970" d="M873.2477,-220.4327C872.5087,-207.6644 872.3144,-183.8411 879,-165 898.8717,-108.9984 908.4777,-91.9694 955,-55 978.6809,-36.1818 1011.1235,-24.2962 1035.5137,-17.4119"/>
<polygon fill="#191970" stroke="#191970" points="1036.668,-20.7263 1045.4246,-14.762 1034.8599,-13.9638 1036.668,-20.7263"/>
</g>
<!-- Node5&#45;&gt;Node4 -->
<g id="edge13" class="edge">
<title>Node5&#45;&gt;Node4</title>
<path fill="none" stroke="#191970" d="M515.1666,-220.3363C516.0651,-198.2846 521.4023,-141.7416 552,-110 619.4589,-40.019 931.0276,-17.0001 1035.6399,-11.1728"/>
<polygon fill="#191970" stroke="#191970" points="1035.8705,-14.6656 1045.6675,-10.6321 1035.4935,-7.6757 1035.8705,-14.6656"/>
</g>
<!-- Node6 -->
<g id="node7" class="node">
<title>Node6</title>
<g id="a_node7"><a xlink:href="fs_8h.html" target="_top" xlink:title="fs.h">
<polygon fill="#ffffff" stroke="#000000" points="472.9409,-165.5 472.9409,-183.5 505.0591,-183.5 505.0591,-165.5 472.9409,-165.5"/>
<text text-anchor="middle" x="489" y="-171.5" font-family="Helvetica,sans-Serif" font-size="10.00" fill="#000000">fs.h</text>
</a>
</g>
</g>
<!-- Node5&#45;&gt;Node6 -->
<g id="edge6" class="edge">
<title>Node5&#45;&gt;Node6</title>
<path fill="none" stroke="#191970" d="M510.7066,-220.4179C507.19,-212.9789 502.1004,-202.2123 497.7332,-192.9742"/>
<polygon fill="#191970" stroke="#191970" points="500.8248,-191.3243 493.3867,-183.7795 494.4962,-194.316 500.8248,-191.3243"/>
</g>
<!-- Node5&#45;&gt;Node8 -->
<g id="edge14" class="edge">
<title>Node5&#45;&gt;Node8</title>
<path fill="none" stroke="#191970" d="M541.1008,-220.4446C567.542,-211.2687 609.6186,-196.6603 646,-184 700.7637,-164.9429 764.6276,-142.6648 801.1877,-129.9061"/>
<polygon fill="#191970" stroke="#191970" points="802.457,-133.1702 810.7452,-126.5706 800.1504,-126.5612 802.457,-133.1702"/>
</g>
<!-- Node5&#45;&gt;Node11 -->
<g id="edge11" class="edge">
<title>Node5&#45;&gt;Node11</title>
<path fill="none" stroke="#191970" d="M496.3403,-220.4179C477.0752,-211.041 446.947,-196.3769 425.9381,-186.1513"/>
<polygon fill="#191970" stroke="#191970" points="427.2453,-182.895 416.7221,-181.6656 424.1818,-189.1891 427.2453,-182.895"/>
</g>
<!-- Node5&#45;&gt;Node12 -->
<g id="edge12" class="edge">
<title>Node5&#45;&gt;Node12</title>
<path fill="none" stroke="#191970" d="M505.572,-220.1685C490.3055,-205.6803 458.583,-178.0835 426,-165 319.9089,-122.3997 280.2504,-155.4148 165.5968,-128.9301"/>
<polygon fill="#191970" stroke="#191970" points="166.2883,-125.4965 155.7462,-126.5523 164.6458,-132.3011 166.2883,-125.4965"/>
</g>
<!-- Node5&#45;&gt;Node13 -->
<g id="edge15" class="edge">
<title>Node5&#45;&gt;Node13</title>
<path fill="none" stroke="#191970" d="M530.0268,-220.4179C544.2531,-211.8195 565.8353,-198.7754 582.3658,-188.7844"/>
<polygon fill="#191970" stroke="#191970" points="584.203,-191.7637 590.9509,-183.5956 580.5822,-185.7729 584.203,-191.7637"/>
</g>
<!-- Node7 -->
<g id="node8" class="node">
<title>Node7</title>
<polygon fill="#ffffff" stroke="#bfbfbf" points="173.2686,-110.5 173.2686,-128.5 218.7314,-128.5 218.7314,-110.5 173.2686,-110.5"/>
<text text-anchor="middle" x="196" y="-116.5" font-family="Helvetica,sans-Serif" font-size="10.00" fill="#000000">stdio.h</text>
</g>
<!-- Node6&#45;&gt;Node7 -->
<g id="edge7" class="edge">
<title>Node6&#45;&gt;Node7</title>
<path fill="none" stroke="#191970" d="M472.9337,-168.9149C468.4609,-167.4966 463.5743,-166.0725 459,-165 360.5848,-141.9245 330.5653,-151.6829 228.9825,-129.2042"/>
<polygon fill="#191970" stroke="#191970" points="229.4499,-125.7215 218.9238,-126.926 227.9036,-132.5486 229.4499,-125.7215"/>
</g>
<!-- Node6&#45;&gt;Node8 -->
<g id="edge8" class="edge">
<title>Node6&#45;&gt;Node8</title>
<path fill="none" stroke="#191970" d="M505.4954,-171.8472C559.307,-163.1933 730.3057,-135.6935 800.4898,-124.4066"/>
<polygon fill="#191970" stroke="#191970" points="801.1546,-127.8448 810.472,-122.8013 800.0431,-120.9336 801.1546,-127.8448"/>
</g>
<!-- Node9 -->
<g id="node10" class="node">
<title>Node9</title>
<polygon fill="#ffffff" stroke="#bfbfbf" points="236.4214,-110.5 236.4214,-128.5 343.5786,-128.5 343.5786,-110.5 236.4214,-110.5"/>
<text text-anchor="middle" x="290" y="-116.5" font-family="Helvetica,sans-Serif" font-size="10.00" fill="#000000">boost/filesystem.hpp</text>
</g>
<!-- Node6&#45;&gt;Node9 -->
<g id="edge9" class="edge">
<title>Node6&#45;&gt;Node9</title>
<path fill="none" stroke="#191970" d="M472.8474,-169.2426C468.3742,-167.8256 463.5091,-166.3202 459,-165 417.1982,-152.7605 369.2203,-139.9616 335.0902,-131.0674"/>
<polygon fill="#191970" stroke="#191970" points="335.9658,-127.6788 325.407,-128.5519 334.2057,-134.4539 335.9658,-127.6788"/>
</g>
<!-- Node10 -->
<g id="node11" class="node">
<title>Node10</title>
<polygon fill="#ffffff" stroke="#bfbfbf" points="361.3623,-110.5 361.3623,-128.5 504.6377,-128.5 504.6377,-110.5 361.3623,-110.5"/>
<text text-anchor="middle" x="433" y="-116.5" font-family="Helvetica,sans-Serif" font-size="10.00" fill="#000000">boost/filesystem/fstream.hpp</text>
</g>
<!-- Node6&#45;&gt;Node10 -->
<g id="edge10" class="edge">
<title>Node6&#45;&gt;Node10</title>
<path fill="none" stroke="#191970" d="M479.7527,-165.4179C471.6145,-157.425 459.5647,-145.5903 449.7366,-135.9377"/>
<polygon fill="#191970" stroke="#191970" points="452.0352,-133.2895 442.4482,-128.7795 447.1302,-138.2836 452.0352,-133.2895"/>
</g>
<!-- Node13&#45;&gt;Node4 -->
<g id="edge16" class="edge">
<title>Node13&#45;&gt;Node4</title>
<path fill="none" stroke="#191970" d="M629.7395,-165.4179C647.4062,-157.7576 671.2589,-145.4127 688,-129 715.1623,-102.3706 699.3694,-76.1286 731,-55 780.4007,-22.0012 959.6716,-12.7903 1035.6218,-10.3409"/>
<polygon fill="#191970" stroke="#191970" points="1035.739,-13.8391 1045.6287,-10.0384 1035.5274,-6.8423 1035.739,-13.8391"/>
</g>
<!-- Node13&#45;&gt;Node8 -->
<g id="edge18" class="edge">
<title>Node13&#45;&gt;Node8</title>
<path fill="none" stroke="#191970" d="M636.8554,-167.5355C674.6923,-158.9063 740.7331,-143.557 797,-129 798.2349,-128.6805 799.4938,-128.3502 800.7645,-128.0129"/>
<polygon fill="#191970" stroke="#191970" points="801.807,-131.3566 810.5382,-125.3551 799.9701,-124.6019 801.807,-131.3566"/>
</g>
<!-- Node13&#45;&gt;Node12 -->
<g id="edge20" class="edge">
<title>Node13&#45;&gt;Node12</title>
<path fill="none" stroke="#191970" d="M574.9134,-171.2869C557.0856,-169.4449 534.2851,-167.0906 514,-165 361.7896,-149.3133 318.2452,-163.4668 166.185,-129.0659"/>
<polygon fill="#191970" stroke="#191970" points="166.5396,-125.5563 156.0099,-126.7289 164.9726,-132.3787 166.5396,-125.5563"/>
</g>
<!-- Node14 -->
<g id="node15" class="node">
<title>Node14</title>
<polygon fill="#ffffff" stroke="#bfbfbf" points="1245.6035,-55.5 1245.6035,-73.5 1294.3965,-73.5 1294.3965,-55.5 1245.6035,-55.5"/>
<text text-anchor="middle" x="1270" y="-61.5" font-family="Helvetica,sans-Serif" font-size="10.00" fill="#000000">string.h</text>
</g>
<!-- Node13&#45;&gt;Node14 -->
<g id="edge17" class="edge">
<title>Node13&#45;&gt;Node14</title>
<path fill="none" stroke="#191970" d="M628.1918,-165.4014C664.0671,-151.1051 737.3233,-123.6109 802,-110 961.647,-76.4031 1157.249,-67.5326 1235.3737,-65.2577"/>
<polygon fill="#191970" stroke="#191970" points="1235.701,-68.7502 1245.6018,-64.9786 1235.51,-61.7528 1235.701,-68.7502"/>
</g>
<!-- Node15 -->
<g id="node16" class="node">
<title>Node15</title>
<polygon fill="#ffffff" stroke="#bfbfbf" points="1061.3843,-110.5 1061.3843,-128.5 1104.6157,-128.5 1104.6157,-110.5 1061.3843,-110.5"/>
<text text-anchor="middle" x="1083" y="-116.5" font-family="Helvetica,sans-Serif" font-size="10.00" fill="#000000">vector</text>
</g>
<!-- Node13&#45;&gt;Node15 -->
<g id="edge19" class="edge">
<title>Node13&#45;&gt;Node15</title>
<path fill="none" stroke="#191970" d="M636.9298,-170.9337C722.9402,-161.0163 964.3331,-133.1828 1051.2833,-123.1571"/>
<polygon fill="#191970" stroke="#191970" points="1051.8014,-126.6206 1061.3346,-121.9981 1050.9995,-119.6667 1051.8014,-126.6206"/>
</g>
<!-- Node16 -->
<g id="node17" class="node">
<title>Node16</title>
<polygon fill="#ffffff" stroke="#bfbfbf" points="630.8843,-110.5 630.8843,-128.5 679.1157,-128.5 679.1157,-110.5 630.8843,-110.5"/>
<text text-anchor="middle" x="655" y="-116.5" font-family="Helvetica,sans-Serif" font-size="10.00" fill="#000000">cassert</text>
</g>
<!-- Node13&#45;&gt;Node16 -->
<g id="edge21" class="edge">
<title>Node13&#45;&gt;Node16</title>
<path fill="none" stroke="#191970" d="M614.0914,-165.4179C621.0713,-157.5833 631.3397,-146.0575 639.8423,-136.5137"/>
<polygon fill="#191970" stroke="#191970" points="642.6941,-138.5743 646.7328,-128.7795 637.4674,-133.9178 642.6941,-138.5743"/>
</g>
<!-- Node17 -->
<g id="node18" class="node">
<title>Node17</title>
<polygon fill="#ffffff" stroke="#bfbfbf" points="561.2192,-110.5 561.2192,-128.5 612.7808,-128.5 612.7808,-110.5 561.2192,-110.5"/>
<text text-anchor="middle" x="587" y="-116.5" font-family="Helvetica,sans-Serif" font-size="10.00" fill="#000000">sstream</text>
</g>
<!-- Node13&#45;&gt;Node17 -->
<g id="edge22" class="edge">
<title>Node13&#45;&gt;Node17</title>
<path fill="none" stroke="#191970" d="M602.8625,-165.4179C600.3201,-158.0581 596.6524,-147.441 593.484,-138.2695"/>
<polygon fill="#191970" stroke="#191970" points="596.7791,-137.0885 590.2056,-128.7795 590.1627,-139.3742 596.7791,-137.0885"/>
</g>
<!-- Node18&#45;&gt;Node4 -->
<g id="edge27" class="edge">
<title>Node18&#45;&gt;Node4</title>
<path fill="none" stroke="#191970" d="M1063.6743,-220.3461C1050.5022,-212.6482 1033.7525,-200.2877 1026,-184 1000.3356,-130.0799 1037.5209,-59.4031 1058.0132,-27.0478"/>
<polygon fill="#191970" stroke="#191970" points="1060.9688,-28.9231 1063.5173,-18.6394 1055.112,-25.0893 1060.9688,-28.9231"/>
</g>
<!-- Node18&#45;&gt;Node8 -->
<g id="edge28" class="edge">
<title>Node18&#45;&gt;Node8</title>
<path fill="none" stroke="#191970" d="M1061.4596,-220.4982C1017.1323,-201.0719 912.3479,-155.1505 860.7544,-132.5398"/>
<polygon fill="#191970" stroke="#191970" points="862.0361,-129.2802 851.4722,-128.4719 859.2264,-135.6915 862.0361,-129.2802"/>
</g>
<!-- Node18&#45;&gt;Node15 -->
<g id="edge29" class="edge">
<title>Node18&#45;&gt;Node15</title>
<path fill="none" stroke="#191970" d="M1084.0607,-220.4969C1086.0385,-211.3616 1088.8847,-196.7842 1090,-184 1091.3326,-168.7254 1089.2688,-151.4578 1087.0438,-138.6357"/>
<polygon fill="#191970" stroke="#191970" points="1090.4537,-137.8331 1085.1283,-128.6739 1083.5796,-139.1549 1090.4537,-137.8331"/>
</g>
<!-- Node19 -->
<g id="node20" class="node">
<title>Node19</title>
<polygon fill="#ffffff" stroke="#bfbfbf" points="1582.2144,-55.5 1582.2144,-73.5 1633.7856,-73.5 1633.7856,-55.5 1582.2144,-55.5"/>
<text text-anchor="middle" x="1608" y="-61.5" font-family="Helvetica,sans-Serif" font-size="10.00" fill="#000000">assert.h</text>
</g>
<!-- Node18&#45;&gt;Node19 -->
<g id="edge24" class="edge">
<title>Node18&#45;&gt;Node19</title>
<path fill="none" stroke="#191970" d="M1110.7146,-228.1356C1170.5938,-224.7672 1312.7972,-214.031 1428,-184 1491.89,-167.3452 1514.9287,-170.8454 1566,-129 1581.1377,-116.5969 1592.7011,-97.2755 1599.8255,-83.0108"/>
<polygon fill="#191970" stroke="#191970" points="1603.1215,-84.2269 1604.2163,-73.6888 1596.7888,-81.2441 1603.1215,-84.2269"/>
</g>
<!-- Node20 -->
<g id="node21" class="node">
<title>Node20</title>
<polygon fill="#ffffff" stroke="#bfbfbf" points="1035.2734,-165.5 1035.2734,-183.5 1080.7266,-183.5 1080.7266,-165.5 1035.2734,-165.5"/>
<text text-anchor="middle" x="1058" y="-171.5" font-family="Helvetica,sans-Serif" font-size="10.00" fill="#000000">cstring</text>
</g>
<!-- Node18&#45;&gt;Node20 -->
<g id="edge25" class="edge">
<title>Node18&#45;&gt;Node20</title>
<path fill="none" stroke="#191970" d="M1078.0369,-220.4179C1074.7908,-212.9789 1070.0927,-202.2123 1066.0615,-192.9742"/>
<polygon fill="#191970" stroke="#191970" points="1069.2566,-191.545 1062.0492,-183.7795 1062.8408,-194.3447 1069.2566,-191.545"/>
</g>
<!-- Node21 -->
<g id="node22" class="node">
<title>Node21</title>
<polygon fill="#ffffff" stroke="#bfbfbf" points="1136.5986,-165.5 1136.5986,-183.5 1195.4014,-183.5 1195.4014,-165.5 1136.5986,-165.5"/>
<text text-anchor="middle" x="1166" y="-171.5" font-family="Helvetica,sans-Serif" font-size="10.00" fill="#000000">stdexcept</text>
</g>
<!-- Node18&#45;&gt;Node21 -->
<g id="edge26" class="edge">
<title>Node18&#45;&gt;Node21</title>
<path fill="none" stroke="#191970" d="M1095.8709,-220.4179C1108.7597,-211.9788 1128.1894,-199.257 1143.3314,-189.3426"/>
<polygon fill="#191970" stroke="#191970" points="1145.6596,-192.0017 1152.1085,-183.5956 1141.825,-186.1454 1145.6596,-192.0017"/>
</g>
<!-- Node22 -->
<g id="node23" class="node">
<title>Node22</title>
<g id="a_node23"><a xlink:href="common_8h.html" target="_top" xlink:title="crypto/common.h">
<polygon fill="#ffffff" stroke="#000000" points="1326.6528,-165.5 1326.6528,-183.5 1419.3472,-183.5 1419.3472,-165.5 1326.6528,-165.5"/>
<text text-anchor="middle" x="1373" y="-171.5" font-family="Helvetica,sans-Serif" font-size="10.00" fill="#000000">crypto/common.h</text>
</a>
</g>
</g>
<!-- Node18&#45;&gt;Node22 -->
<g id="edge30" class="edge">
<title>Node18&#45;&gt;Node22</title>
<path fill="none" stroke="#191970" d="M1110.6986,-224.0759C1158.3739,-215.0651 1254.7451,-196.8506 1316.4612,-185.186"/>
<polygon fill="#191970" stroke="#191970" points="1317.2558,-188.5979 1326.4318,-183.3016 1315.9557,-181.7197 1317.2558,-188.5979"/>
</g>
<!-- Node22&#45;&gt;Node4 -->
<g id="edge31" class="edge">
<title>Node22&#45;&gt;Node4</title>
<path fill="none" stroke="#191970" d="M1326.3437,-167.156C1294.4183,-160.6379 1252.0543,-148.9573 1219,-129 1179.7172,-105.2821 1183.07,-83.366 1147,-55 1131.5353,-42.8384 1112.5168,-31.5695 1097.2504,-23.2888"/>
<polygon fill="#191970" stroke="#191970" points="1098.7692,-20.1325 1088.2951,-18.5377 1095.4886,-26.3162 1098.7692,-20.1325"/>
</g>
<!-- Node22&#45;&gt;Node14 -->
<g id="edge32" class="edge">
<title>Node22&#45;&gt;Node14</title>
<path fill="none" stroke="#191970" d="M1326.5277,-166.0758C1288.7608,-158.1726 1239.8679,-145.1625 1228,-129 1216.0792,-112.7655 1232.7554,-93.2886 1248.4865,-80.0152"/>
<polygon fill="#191970" stroke="#191970" points="1250.8058,-82.643 1256.4703,-73.6895 1246.4587,-77.1564 1250.8058,-82.643"/>
</g>
<!-- Node23 -->
<g id="node24" class="node">
<title>Node23</title>
<g id="a_node24"><a xlink:href="endian_8h.html" target="_top" xlink:title="compat/endian.h">
<polygon fill="#ffffff" stroke="#000000" points="1383.0298,-110.5 1383.0298,-128.5 1472.9702,-128.5 1472.9702,-110.5 1383.0298,-110.5"/>
<text text-anchor="middle" x="1428" y="-116.5" font-family="Helvetica,sans-Serif" font-size="10.00" fill="#000000">compat/endian.h</text>
</a>
</g>
</g>
<!-- Node22&#45;&gt;Node23 -->
<g id="edge33" class="edge">
<title>Node22&#45;&gt;Node23</title>
<path fill="none" stroke="#191970" d="M1382.0821,-165.4179C1390.075,-157.425 1401.9097,-145.5903 1411.5623,-135.9377"/>
<polygon fill="#191970" stroke="#191970" points="1414.1243,-138.3254 1418.7205,-128.7795 1409.1746,-133.3757 1414.1243,-138.3254"/>
</g>
<!-- Node23&#45;&gt;Node4 -->
<g id="edge36" class="edge">
<title>Node23&#45;&gt;Node4</title>
<path fill="none" stroke="#191970" d="M1410.7949,-110.4587C1377.8499,-93.169 1308.6079,-56.9498 1303,-55 1234.7401,-31.2672 1150.6799,-18.6997 1104.4861,-13.1363"/>
<polygon fill="#191970" stroke="#191970" points="1104.7439,-9.6427 1094.4059,-11.9617 1103.9336,-16.5957 1104.7439,-9.6427"/>
</g>
<!-- Node24 -->
<g id="node25" class="node">
<title>Node24</title>
<g id="a_node25"><a xlink:href="byteswap_8h.html" target="_top" xlink:title="compat/byteswap.h">
<polygon fill="#ffffff" stroke="#000000" points="1349.9214,-55.5 1349.9214,-73.5 1452.0786,-73.5 1452.0786,-55.5 1349.9214,-55.5"/>
<text text-anchor="middle" x="1401" y="-61.5" font-family="Helvetica,sans-Serif" font-size="10.00" fill="#000000">compat/byteswap.h</text>
</a>
</g>
</g>
<!-- Node23&#45;&gt;Node24 -->
<g id="edge34" class="edge">
<title>Node23&#45;&gt;Node24</title>
<path fill="none" stroke="#191970" d="M1423.5415,-110.4179C1419.8897,-102.9789 1414.6042,-92.2123 1410.0691,-82.9742"/>
<polygon fill="#191970" stroke="#191970" points="1413.104,-81.2138 1405.5554,-73.7795 1406.8203,-84.2985 1413.104,-81.2138"/>
</g>
<!-- Node24&#45;&gt;Node4 -->
<g id="edge35" class="edge">
<title>Node24&#45;&gt;Node4</title>
<path fill="none" stroke="#191970" d="M1349.6444,-55.9666C1281.4371,-44.6331 1162.798,-24.9196 1104.4348,-15.2218"/>
<polygon fill="#191970" stroke="#191970" points="1104.7027,-11.7184 1094.2643,-13.5318 1103.5553,-18.6237 1104.7027,-11.7184"/>
</g>
<!-- Node26 -->
<g id="node27" class="node">
<title>Node26</title>
<g id="a_node27"><a xlink:href="zmqconfig_8h.html" target="_top" xlink:title="zmq/zmqconfig.h">
<polygon fill="#ffffff" stroke="#000000" points="837.207,-385.5 837.207,-403.5 928.793,-403.5 928.793,-385.5 837.207,-385.5"/>
<text text-anchor="middle" x="883" y="-391.5" font-family="Helvetica,sans-Serif" font-size="10.00" fill="#000000">zmq/zmqconfig.h</text>
</a>
</g>
</g>
<!-- Node25&#45;&gt;Node26 -->
<g id="edge43" class="edge">
<title>Node25&#45;&gt;Node26</title>
<path fill="none" stroke="#191970" d="M880.4954,-440.4179C880.8882,-433.2164 881.4511,-422.8962 881.9438,-413.8632"/>
<polygon fill="#191970" stroke="#191970" points="885.4439,-413.9553 882.4938,-403.7795 878.4543,-413.574 885.4439,-413.9553"/>
</g>
<!-- Node26&#45;&gt;Node8 -->
<g id="edge45" class="edge">
<title>Node26&#45;&gt;Node8</title>
<path fill="none" stroke="#191970" d="M873.4847,-385.3684C865.2269,-376.8132 853.7238,-363.2404 848,-349 818.6444,-275.9654 824.4039,-179.418 828.6163,-138.8048"/>
<polygon fill="#191970" stroke="#191970" points="832.1138,-139.0231 829.7582,-128.6935 825.158,-138.2375 832.1138,-139.0231"/>
</g>
<!-- Node27 -->
<g id="node28" class="node">
<title>Node27</title>
<polygon fill="#ffffff" stroke="#bfbfbf" points="856.9336,-330.5 856.9336,-348.5 909.0664,-348.5 909.0664,-330.5 856.9336,-330.5"/>
<text text-anchor="middle" x="883" y="-336.5" font-family="Helvetica,sans-Serif" font-size="10.00" fill="#000000">stdarg.h</text>
</g>
<!-- Node26&#45;&gt;Node27 -->
<g id="edge44" class="edge">
<title>Node26&#45;&gt;Node27</title>
<path fill="none" stroke="#191970" d="M883,-385.4179C883,-378.2164 883,-367.8962 883,-358.8632"/>
<polygon fill="#191970" stroke="#191970" points="886.5001,-358.7794 883,-348.7795 879.5001,-358.7795 886.5001,-358.7794"/>
</g>
<!-- Node28 -->
<g id="node29" class="node">
<title>Node28</title>
<g id="a_node29"><a xlink:href="block_8h.html" target="_top" xlink:title="primitives/block.h">
<polygon fill="#ffffff" stroke="#000000" points="1014.6553,-330.5 1014.6553,-348.5 1107.3447,-348.5 1107.3447,-330.5 1014.6553,-330.5"/>
<text text-anchor="middle" x="1061" y="-336.5" font-family="Helvetica,sans-Serif" font-size="10.00" fill="#000000">primitives/block.h</text>
</a>
</g>
</g>
<!-- Node26&#45;&gt;Node28 -->
<g id="edge46" class="edge">
<title>Node26&#45;&gt;Node28</title>
<path fill="none" stroke="#191970" d="M912.3931,-385.4179C942.3712,-376.155 989.0477,-361.7325 1022.0795,-351.526"/>
<polygon fill="#191970" stroke="#191970" points="1023.3381,-354.8005 1031.8591,-348.5042 1021.2715,-348.1124 1023.3381,-354.8005"/>
</g>
<!-- Node29 -->
<g id="node30" class="node">
<title>Node29</title>
<g id="a_node30"><a xlink:href="transaction_8h.html" target="_top" xlink:title="primitives/transaction.h">
<polygon fill="#ffffff" stroke="#000000" points="958.8696,-275.5 958.8696,-293.5 1077.1304,-293.5 1077.1304,-275.5 958.8696,-275.5"/>
<text text-anchor="middle" x="1018" y="-281.5" font-family="Helvetica,sans-Serif" font-size="10.00" fill="#000000">primitives/transaction.h</text>
</a>
</g>
</g>
<!-- Node26&#45;&gt;Node29 -->
<g id="edge86" class="edge">
<title>Node26&#45;&gt;Node29</title>
<path fill="none" stroke="#191970" d="M894.0476,-385.4982C916.9893,-366.805 970.0399,-323.5786 998.7362,-300.1964"/>
<polygon fill="#191970" stroke="#191970" points="1001.2582,-302.6562 1006.7997,-293.6261 996.8365,-297.2296 1001.2582,-302.6562"/>
</g>
<!-- Node28&#45;&gt;Node18 -->
<g id="edge85" class="edge">
<title>Node28&#45;&gt;Node18</title>
<path fill="none" stroke="#191970" d="M1067.8639,-330.3302C1073.986,-321.5359 1082.5049,-307.6192 1086,-294 1089.7964,-279.2069 1088.4244,-261.9088 1086.3071,-248.9525"/>
<polygon fill="#191970" stroke="#191970" points="1089.6911,-248.0155 1084.3658,-238.8563 1082.8171,-249.3373 1089.6911,-248.0155"/>
</g>
<!-- Node28&#45;&gt;Node29 -->
<g id="edge47" class="edge">
<title>Node28&#45;&gt;Node29</title>
<path fill="none" stroke="#191970" d="M1053.8994,-330.4179C1047.8361,-322.6624 1038.9449,-311.29 1031.5282,-301.8035"/>
<polygon fill="#191970" stroke="#191970" points="1034.1714,-299.5018 1025.2548,-293.7795 1028.6568,-303.8133 1034.1714,-299.5018"/>
</g>
<!-- Node51 -->
<g id="node34" class="node">
<title>Node51</title>
<g id="a_node34"><a xlink:href="serialize_8h.html" target="_top" xlink:title="serialize.h">
<polygon fill="#ffffff" stroke="#000000" points="1689.4902,-165.5 1689.4902,-183.5 1750.5098,-183.5 1750.5098,-165.5 1689.4902,-165.5"/>
<text text-anchor="middle" x="1720" y="-171.5" font-family="Helvetica,sans-Serif" font-size="10.00" fill="#000000">serialize.h</text>
</a>
</g>
</g>
<!-- Node28&#45;&gt;Node51 -->
<g id="edge84" class="edge">
<title>Node28&#45;&gt;Node51</title>
<path fill="none" stroke="#191970" d="M1106.3165,-330.4713C1187.3552,-314.0681 1362.2675,-277.4952 1508,-239 1569.9829,-222.6273 1641.1007,-200.2397 1683.1974,-186.6055"/>
<polygon fill="#191970" stroke="#191970" points="1684.3144,-189.9227 1692.7426,-183.5027 1682.1505,-183.2656 1684.3144,-189.9227"/>
</g>
<!-- Node29&#45;&gt;Node3 -->
<g id="edge49" class="edge">
<title>Node29&#45;&gt;Node3</title>
<path fill="none" stroke="#191970" d="M994.2213,-275.4179C970.5629,-266.3817 934.0487,-252.4353 907.4676,-242.2828"/>
<polygon fill="#191970" stroke="#191970" points="908.4046,-238.8941 897.814,-238.5956 905.907,-245.4334 908.4046,-238.8941"/>
</g>
<!-- Node29&#45;&gt;Node4 -->
<g id="edge48" class="edge">
<title>Node29&#45;&gt;Node4</title>
<path fill="none" stroke="#191970" d="M1010.7699,-275.4059C997.1397,-257.3161 969,-215.0582 969,-174.5 969,-174.5 969,-174.5 969,-119.5 969,-75.5631 1013.2609,-41.5926 1043.1825,-23.6475"/>
<polygon fill="#191970" stroke="#191970" points="1045.026,-26.6247 1051.9432,-18.5995 1041.5312,-20.5595 1045.026,-26.6247"/>
</g>
<!-- Node29&#45;&gt;Node18 -->
<g id="edge83" class="edge">
<title>Node29&#45;&gt;Node18</title>
<path fill="none" stroke="#191970" d="M1028.5683,-275.4179C1038.0533,-267.2667 1052.1875,-255.1201 1063.5366,-245.3669"/>
<polygon fill="#191970" stroke="#191970" points="1065.8991,-247.9516 1071.2021,-238.7795 1061.3367,-242.6427 1065.8991,-247.9516"/>
</g>
<!-- Node30 -->
<g id="node31" class="node">
<title>Node30</title>
<g id="a_node31"><a xlink:href="script_8h.html" target="_top" xlink:title="script/script.h">
<polygon fill="#ffffff" stroke="#000000" points="1365.5493,-220.5 1365.5493,-238.5 1440.4507,-238.5 1440.4507,-220.5 1365.5493,-220.5"/>
<text text-anchor="middle" x="1403" y="-226.5" font-family="Helvetica,sans-Serif" font-size="10.00" fill="#000000">script/script.h</text>
</a>
</g>
</g>
<!-- Node29&#45;&gt;Node30 -->
<g id="edge50" class="edge">
<title>Node29&#45;&gt;Node30</title>
<path fill="none" stroke="#191970" d="M1077.3125,-276.0268C1153.8088,-265.0987 1285.343,-246.3081 1355.5648,-236.2765"/>
<polygon fill="#191970" stroke="#191970" points="1356.0622,-239.741 1365.4667,-234.8619 1355.0722,-232.8114 1356.0622,-239.741"/>
</g>
<!-- Node29&#45;&gt;Node51 -->
<g id="edge82" class="edge">
<title>Node29&#45;&gt;Node51</title>
<path fill="none" stroke="#191970" d="M1077.238,-280.6662C1160.6236,-274.7214 1317.1718,-261.5504 1449,-239 1531.6784,-224.8571 1626.7163,-200.2725 1679.418,-185.886"/>
<polygon fill="#191970" stroke="#191970" points="1680.6616,-189.1741 1689.3776,-183.1508 1678.8078,-182.4241 1680.6616,-189.1741"/>
</g>
<!-- Node30&#45;&gt;Node4 -->
<g id="edge78" class="edge">
<title>Node30&#45;&gt;Node4</title>
<path fill="none" stroke="#191970" d="M1385.7755,-220.3931C1361.3512,-207.5779 1315.1532,-183.6992 1275,-165 1238.1795,-147.8528 1224.7048,-151.6663 1191,-129 1146.7297,-99.2285 1104.6714,-51.9486 1083.7584,-26.7091"/>
<polygon fill="#191970" stroke="#191970" points="1086.3092,-24.299 1077.2741,-18.7656 1080.8865,-28.7256 1086.3092,-24.299"/>
</g>
<!-- Node30&#45;&gt;Node8 -->
<g id="edge80" class="edge">
<title>Node30&#45;&gt;Node8</title>
<path fill="none" stroke="#191970" d="M1365.5038,-222.0917C1331.2538,-214.6592 1279.6139,-201.7645 1237,-184 1221.379,-177.4881 1220.0547,-170.3541 1204,-165 1140.4608,-143.8102 938.8685,-127.3395 861.573,-121.6507"/>
<polygon fill="#191970" stroke="#191970" points="861.7459,-118.1541 851.5185,-120.9201 861.2385,-125.1357 861.7459,-118.1541"/>
</g>
<!-- Node30&#45;&gt;Node14 -->
<g id="edge79" class="edge">
<title>Node30&#45;&gt;Node14</title>
<path fill="none" stroke="#191970" d="M1411.9478,-220.073C1423.3516,-206.8775 1440.2061,-182.5497 1428,-165 1401.7434,-127.2487 1369.3548,-154.3668 1331,-129 1311.6246,-116.1856 1293.9196,-96.103 1282.6342,-81.7522"/>
<polygon fill="#191970" stroke="#191970" points="1285.3237,-79.507 1276.4794,-73.6737 1279.7556,-83.7492 1285.3237,-79.507"/>
</g>
<!-- Node30&#45;&gt;Node15 -->
<g id="edge81" class="edge">
<title>Node30&#45;&gt;Node15</title>
<path fill="none" stroke="#191970" d="M1379.4684,-220.4969C1355.6347,-211.3617 1317.7213,-196.7844 1285,-184 1263.6294,-175.6504 1258.6902,-172.4803 1237,-165 1195.0888,-150.5462 1145.8226,-136.4922 1114.5115,-127.9187"/>
<polygon fill="#191970" stroke="#191970" points="1115.1858,-124.475 1104.6178,-125.2285 1113.3491,-131.2298 1115.1858,-124.475"/>
</g>
<!-- Node30&#45;&gt;Node19 -->
<g id="edge74" class="edge">
<title>Node30&#45;&gt;Node19</title>
<path fill="none" stroke="#191970" d="M1440.8066,-220.9418C1499.0314,-207.7616 1604,-184 1604,-184 1627.4935,-155.5821 1620.3109,-109.0694 1613.7109,-83.253"/>
<polygon fill="#191970" stroke="#191970" points="1617.0678,-82.2606 1611.0091,-73.569 1610.3253,-84.1418 1617.0678,-82.2606"/>
</g>
<!-- Node30&#45;&gt;Node21 -->
<g id="edge77" class="edge">
<title>Node30&#45;&gt;Node21</title>
<path fill="none" stroke="#191970" d="M1365.4466,-220.7851C1321.733,-210.6406 1249.8686,-193.9632 1205.3858,-183.6402"/>
<polygon fill="#191970" stroke="#191970" points="1206.0479,-180.2009 1195.5156,-181.3496 1204.4655,-187.0197 1206.0479,-180.2009"/>
</g>
<!-- Node30&#45;&gt;Node22 -->
<g id="edge51" class="edge">
<title>Node30&#45;&gt;Node22</title>
<path fill="none" stroke="#191970" d="M1398.0461,-220.4179C1393.9454,-212.8998 1387.9907,-201.9829 1382.9163,-192.6799"/>
<polygon fill="#191970" stroke="#191970" points="1385.9227,-190.8824 1378.0615,-183.7795 1379.7775,-194.2344 1385.9227,-190.8824"/>
</g>
<!-- Node31 -->
<g id="node32" class="node">
<title>Node31</title>
<g id="a_node32"><a xlink:href="prevector_8h.html" target="_top" xlink:title="prevector.h">
<polygon fill="#ffffff" stroke="#ff0000" points="1491.2612,-110.5 1491.2612,-128.5 1556.7388,-128.5 1556.7388,-110.5 1491.2612,-110.5"/>
<text text-anchor="middle" x="1524" y="-116.5" font-family="Helvetica,sans-Serif" font-size="10.00" fill="#000000">prevector.h</text>
</a>
</g>
</g>
<!-- Node30&#45;&gt;Node31 -->
<g id="edge52" class="edge">
<title>Node30&#45;&gt;Node31</title>
<path fill="none" stroke="#191970" d="M1415.833,-220.1986C1427.8517,-211.3113 1446.1383,-197.3318 1461,-184 1478.1757,-168.5924 1496.4595,-149.5433 1508.8806,-136.1546"/>
<polygon fill="#191970" stroke="#191970" points="1511.6039,-138.3638 1515.7946,-128.633 1506.4503,-133.6266 1511.6039,-138.3638"/>
</g>
<!-- Node30&#45;&gt;Node51 -->
<g id="edge57" class="edge">
<title>Node30&#45;&gt;Node51</title>
<path fill="none" stroke="#191970" d="M1440.4868,-223.7434C1493.0253,-215.5585 1591.4959,-199.7913 1675,-184 1676.2798,-183.758 1677.5793,-183.5082 1678.8906,-183.2527"/>
<polygon fill="#191970" stroke="#191970" points="1679.9336,-186.6132 1689.0493,-181.2137 1678.5561,-179.7501 1679.9336,-186.6132"/>
</g>
<!-- Node54 -->
<g id="node37" class="node">
<title>Node54</title>
<polygon fill="#ffffff" stroke="#bfbfbf" points="1650.6133,-110.5 1650.6133,-128.5 1689.3867,-128.5 1689.3867,-110.5 1650.6133,-110.5"/>
<text text-anchor="middle" x="1670" y="-116.5" font-family="Helvetica,sans-Serif" font-size="10.00" fill="#000000">limits</text>
</g>
<!-- Node30&#45;&gt;Node54 -->
<g id="edge76" class="edge">
<title>Node30&#45;&gt;Node54</title>
<path fill="none" stroke="#191970" d="M1440.8972,-226.159C1499.0004,-220.3808 1606.5736,-206.8897 1637,-184 1651.8827,-172.8038 1660.5889,-152.9827 1665.2847,-138.2587"/>
<polygon fill="#191970" stroke="#191970" points="1668.6527,-139.2108 1668.0262,-128.6345 1661.9205,-137.293 1668.6527,-139.2108"/>
</g>
<!-- Node59 -->
<g id="node42" class="node">
<title>Node59</title>
<polygon fill="#ffffff" stroke="#bfbfbf" points="1551.1133,-165.5 1551.1133,-183.5 1594.8867,-183.5 1594.8867,-165.5 1551.1133,-165.5"/>
<text text-anchor="middle" x="1573" y="-171.5" font-family="Helvetica,sans-Serif" font-size="10.00" fill="#000000">climits</text>
</g>
<!-- Node30&#45;&gt;Node59 -->
<g id="edge75" class="edge">
<title>Node30&#45;&gt;Node59</title>
<path fill="none" stroke="#191970" d="M1431.072,-220.4179C1461.4515,-210.5892 1509.7866,-194.9514 1541.4568,-184.7051"/>
<polygon fill="#191970" stroke="#191970" points="1542.6729,-187.9904 1551.1099,-181.5821 1540.5181,-181.3303 1542.6729,-187.9904"/>
</g>
<!-- Node31&#45;&gt;Node4 -->
<g id="edge55" class="edge">
<title>Node31&#45;&gt;Node4</title>
<path fill="none" stroke="#191970" d="M1517.9879,-110.0766C1508.0879,-95.4624 1486.8525,-67.6963 1461,-55 1398.4876,-24.3 1187.673,-13.6431 1104.3244,-10.5741"/>
<polygon fill="#191970" stroke="#191970" points="1104.2396,-7.069 1094.1221,-10.2132 1103.9921,-14.0647 1104.2396,-7.069"/>
</g>
<!-- Node31&#45;&gt;Node14 -->
<g id="edge56" class="edge">
<title>Node31&#45;&gt;Node14</title>
<path fill="none" stroke="#191970" d="M1490.9927,-111.9979C1487.9533,-111.318 1484.9203,-110.6436 1482,-110 1419.474,-96.2193 1346.4502,-80.6655 1304.4786,-71.7778"/>
<polygon fill="#191970" stroke="#191970" points="1305.0101,-68.3129 1294.5022,-69.667 1303.5611,-75.1613 1305.0101,-68.3129"/>
</g>
<!-- Node31&#45;&gt;Node19 -->
<g id="edge53" class="edge">
<title>Node31&#45;&gt;Node19</title>
<path fill="none" stroke="#191970" d="M1537.8709,-110.4179C1550.7597,-101.9788 1570.1894,-89.257 1585.3314,-79.3426"/>
<polygon fill="#191970" stroke="#191970" points="1587.6596,-82.0017 1594.1085,-73.5956 1583.825,-76.1454 1587.6596,-82.0017"/>
</g>
<!-- Node32 -->
<g id="node33" class="node">
<title>Node32</title>
<polygon fill="#ffffff" stroke="#bfbfbf" points="1508.1577,-55.5 1508.1577,-73.5 1555.8423,-73.5 1555.8423,-55.5 1508.1577,-55.5"/>
<text text-anchor="middle" x="1532" y="-61.5" font-family="Helvetica,sans-Serif" font-size="10.00" fill="#000000">stdlib.h</text>
</g>
<!-- Node31&#45;&gt;Node32 -->
<g id="edge54" class="edge">
<title>Node31&#45;&gt;Node32</title>
<path fill="none" stroke="#191970" d="M1525.321,-110.4179C1526.3685,-103.2164 1527.8696,-92.8962 1529.1835,-83.8632"/>
<polygon fill="#191970" stroke="#191970" points="1532.6743,-84.1791 1530.6503,-73.7795 1525.7472,-83.1715 1532.6743,-84.1791"/>
</g>
<!-- Node51&#45;&gt;Node4 -->
<g id="edge66" class="edge">
<title>Node51&#45;&gt;Node4</title>
<path fill="none" stroke="#191970" d="M1721.9449,-165.0911C1724.1628,-151.9171 1726.3742,-127.6148 1717,-110 1697.7488,-73.8254 1681.3628,-69.4049 1643,-55 1543.4331,-17.6135 1212.4292,-10.9413 1104.4152,-9.7552"/>
<polygon fill="#191970" stroke="#191970" points="1104.4181,-6.2551 1094.3833,-9.654 1104.3474,-13.2548 1104.4181,-6.2551"/>
</g>
<!-- Node51&#45;&gt;Node8 -->
<g id="edge67" class="edge">
<title>Node51&#45;&gt;Node8</title>
<path fill="none" stroke="#191970" d="M1689.4852,-171.8088C1666.1003,-169.7931 1633.0253,-167.0425 1604,-165 1315.1738,-144.6754 965.1937,-126.344 861.3965,-121.0381"/>
<polygon fill="#191970" stroke="#191970" points="861.4804,-117.5379 851.3152,-120.5242 861.124,-124.5289 861.4804,-117.5379"/>
</g>
<!-- Node51&#45;&gt;Node12 -->
<g id="edge63" class="edge">
<title>Node51&#45;&gt;Node12</title>
<path fill="none" stroke="#191970" d="M1689.0143,-171.4819C1665.6677,-169.3246 1632.8539,-166.5409 1604,-165 1287.6331,-148.1044 494.9561,-187.8859 166.043,-128.7847"/>
<polygon fill="#191970" stroke="#191970" points="166.4413,-125.299 155.9706,-126.9158 165.1642,-132.1815 166.4413,-125.299"/>
</g>
<!-- Node51&#45;&gt;Node14 -->
<g id="edge68" class="edge">
<title>Node51&#45;&gt;Node14</title>
<path fill="none" stroke="#191970" d="M1689.3682,-172.1377C1615.9973,-166.2132 1431.9858,-149.704 1374,-129 1341.7552,-117.4869 1308.8944,-94.9093 1288.9709,-79.7597"/>
<polygon fill="#191970" stroke="#191970" points="1291.0638,-76.9536 1281.0197,-73.5821 1286.769,-82.4813 1291.0638,-76.9536"/>
</g>
<!-- Node51&#45;&gt;Node15 -->
<g id="edge70" class="edge">
<title>Node51&#45;&gt;Node15</title>
<path fill="none" stroke="#191970" d="M1689.2762,-171.8472C1581.8872,-162.575 1223.9256,-131.6678 1114.8321,-122.2485"/>
<polygon fill="#191970" stroke="#191970" points="1115.0441,-118.7538 1104.7801,-121.3805 1114.4419,-125.7279 1115.0441,-118.7538"/>
</g>
<!-- Node51&#45;&gt;Node19 -->
<g id="edge60" class="edge">
<title>Node51&#45;&gt;Node19</title>
<path fill="none" stroke="#191970" d="M1719.0291,-165.0704C1717.1734,-151.4299 1711.9738,-126.0709 1698,-110 1683.6851,-93.5369 1661.9831,-82.3206 1643.4765,-75.1439"/>
<polygon fill="#191970" stroke="#191970" points="1644.4636,-71.7788 1633.8694,-71.6588 1642.0764,-78.3592 1644.4636,-71.7788"/>
</g>
<!-- Node51&#45;&gt;Node23 -->
<g id="edge58" class="edge">
<title>Node51&#45;&gt;Node23</title>
<path fill="none" stroke="#191970" d="M1689.3028,-168.718C1640.3403,-159.4956 1543.8778,-141.3263 1482.8435,-129.8301"/>
<polygon fill="#191970" stroke="#191970" points="1483.4689,-126.3864 1472.9938,-127.9749 1482.1731,-133.2655 1483.4689,-126.3864"/>
</g>
<!-- Node51&#45;&gt;Node31 -->
<g id="edge71" class="edge">
<title>Node51&#45;&gt;Node31</title>
<path fill="none" stroke="#191970" d="M1689.375,-165.9063C1656.3081,-156.6273 1603.4058,-141.7823 1566.3631,-131.3876"/>
<polygon fill="#191970" stroke="#191970" points="1566.9392,-127.9141 1556.3654,-128.5821 1565.0479,-134.6538 1566.9392,-127.9141"/>
</g>
<!-- Node52 -->
<g id="node35" class="node">
<title>Node52</title>
<polygon fill="#ffffff" stroke="#bfbfbf" points="1874.436,-55.5 1874.436,-73.5 1931.564,-73.5 1931.564,-55.5 1874.436,-55.5"/>
<text text-anchor="middle" x="1903" y="-61.5" font-family="Helvetica,sans-Serif" font-size="10.00" fill="#000000">algorithm</text>
</g>
<!-- Node51&#45;&gt;Node52 -->
<g id="edge59" class="edge">
<title>Node51&#45;&gt;Node52</title>
<path fill="none" stroke="#191970" d="M1731.9785,-165.3897C1749.3543,-152.3623 1782.7831,-127.9994 1813,-110 1832.7988,-98.2063 1856.0306,-86.5119 1873.9311,-77.9325"/>
<polygon fill="#191970" stroke="#191970" points="1875.7341,-80.9512 1883.2717,-73.5058 1872.7362,-74.6257 1875.7341,-80.9512"/>
</g>
<!-- Node53 -->
<g id="node36" class="node">
<title>Node53</title>
<polygon fill="#ffffff" stroke="#bfbfbf" points="1821.5,-110.5 1821.5,-128.5 1850.5,-128.5 1850.5,-110.5 1821.5,-110.5"/>
<text text-anchor="middle" x="1835.8916" y="-116.5" font-family="Helvetica,sans-Serif" font-size="10.00" fill="#000000">ios</text>
</g>
<!-- Node51&#45;&gt;Node53 -->
<g id="edge61" class="edge">
<title>Node51&#45;&gt;Node53</title>
<path fill="none" stroke="#191970" d="M1739.155,-165.4179C1759.1327,-155.9457 1790.4898,-141.0781 1812.0813,-130.8408"/>
<polygon fill="#191970" stroke="#191970" points="1813.7023,-133.9457 1821.2386,-126.4989 1810.7033,-127.6207 1813.7023,-133.9457"/>
</g>
<!-- Node51&#45;&gt;Node54 -->
<g id="edge62" class="edge">
<title>Node51&#45;&gt;Node54</title>
<path fill="none" stroke="#191970" d="M1711.7435,-165.4179C1704.5492,-157.5041 1693.9312,-145.8243 1685.2046,-136.2251"/>
<polygon fill="#191970" stroke="#191970" points="1687.7524,-133.8245 1678.4359,-128.7795 1682.5728,-138.5332 1687.7524,-133.8245"/>
</g>
<!-- Node55 -->
<g id="node38" class="node">
<title>Node55</title>
<polygon fill="#ffffff" stroke="#bfbfbf" points="1236.9434,-110.5 1236.9434,-128.5 1289.0566,-128.5 1289.0566,-110.5 1236.9434,-110.5"/>
<text text-anchor="middle" x="1263" y="-116.5" font-family="Helvetica,sans-Serif" font-size="10.00" fill="#000000">memory</text>
</g>
<!-- Node51&#45;&gt;Node55 -->
<g id="edge64" class="edge">
<title>Node51&#45;&gt;Node55</title>
<path fill="none" stroke="#191970" d="M1689.0476,-170.8023C1624.3932,-163.0745 1470.2809,-144.6331 1341,-129 1327.4284,-127.3589 1312.5298,-125.5469 1299.4228,-123.9492"/>
<polygon fill="#191970" stroke="#191970" points="1299.7051,-120.4578 1289.3549,-122.7213 1298.8576,-127.4063 1299.7051,-120.4578"/>
</g>
<!-- Node56 -->
<g id="node39" class="node">
<title>Node56</title>
<polygon fill="#ffffff" stroke="#bfbfbf" points="1868.3301,-110.5 1868.3301,-128.5 1897.6699,-128.5 1897.6699,-110.5 1868.3301,-110.5"/>
<text text-anchor="middle" x="1883" y="-116.5" font-family="Helvetica,sans-Serif" font-size="10.00" fill="#000000">set</text>
</g>
<!-- Node51&#45;&gt;Node56 -->
<g id="edge65" class="edge">
<title>Node51&#45;&gt;Node56</title>
<path fill="none" stroke="#191970" d="M1749.9985,-165.4886C1776.5001,-157.3663 1816.363,-144.7588 1858.4014,-129.4273"/>
<polygon fill="#191970" stroke="#191970" points="1859.7976,-132.6429 1867.972,-125.9027 1857.3785,-126.0742 1859.7976,-132.6429"/>
</g>
<!-- Node57 -->
<g id="node40" class="node">
<title>Node57</title>
<polygon fill="#ffffff" stroke="#bfbfbf" points="1915.6084,-110.5 1915.6084,-128.5 1954.3916,-128.5 1954.3916,-110.5 1915.6084,-110.5"/>
<text text-anchor="middle" x="1935" y="-116.5" font-family="Helvetica,sans-Serif" font-size="10.00" fill="#000000">utility</text>
</g>
<!-- Node51&#45;&gt;Node57 -->
<g id="edge69" class="edge">
<title>Node51&#45;&gt;Node57</title>
<path fill="none" stroke="#191970" d="M1750.6657,-167.9133C1786.0002,-160.1333 1845.9695,-146.3472 1905.8772,-129.1541"/>
<polygon fill="#191970" stroke="#191970" points="1906.859,-132.5137 1915.4878,-126.3659 1904.9085,-125.7909 1906.859,-132.5137"/>
</g>
<!-- Node58 -->
<g id="node41" class="node">
<title>Node58</title>
<g id="a_node41"><a xlink:href="span_8h.html" target="_top" xlink:title="span.h">
<polygon fill="#ffffff" stroke="#ff0000" points="1971.9878,-110.5 1971.9878,-128.5 2018.0122,-128.5 2018.0122,-110.5 1971.9878,-110.5"/>
<text text-anchor="middle" x="1995" y="-116.5" font-family="Helvetica,sans-Serif" font-size="10.00" fill="#000000">span.h</text>
</a>
</g>
</g>
<!-- Node51&#45;&gt;Node58 -->
<g id="edge72" class="edge">
<title>Node51&#45;&gt;Node58</title>
<path fill="none" stroke="#191970" d="M1750.5213,-169.8266C1794.9719,-162.7954 1880.2713,-148.4562 1961.7433,-129.1168"/>
<polygon fill="#191970" stroke="#191970" points="1962.752,-132.4741 1971.6569,-126.7337 1961.1158,-125.668 1962.752,-132.4741"/>
</g>
<!-- Node58&#45;&gt;Node52 -->
<g id="edge73" class="edge">
<title>Node58&#45;&gt;Node52</title>
<path fill="none" stroke="#191970" d="M1979.8081,-110.4179C1965.4254,-101.8195 1943.6061,-88.7754 1926.8939,-78.7844"/>
<polygon fill="#191970" stroke="#191970" points="1928.5936,-75.7228 1918.2145,-73.5956 1925.0017,-81.731 1928.5936,-75.7228"/>
</g>
<!-- Node60&#45;&gt;Node8 -->
<g id="edge97" class="edge">
<title>Node60&#45;&gt;Node8</title>
<path fill="none" stroke="#191970" d="M693.3482,-385.1797C703.475,-376.4975 718.3123,-362.8442 729,-349 781.9626,-280.3956 814.1736,-179.9637 825.9277,-138.4918"/>
<polygon fill="#191970" stroke="#191970" points="829.3596,-139.2124 828.6451,-128.6417 822.6117,-137.3508 829.3596,-139.2124"/>
</g>
<!-- Node60&#45;&gt;Node11 -->
<g id="edge99" class="edge">
<title>Node60&#45;&gt;Node11</title>
<path fill="none" stroke="#191970" d="M606.184,-387.3834C454.499,-371.3797 122.5616,-326.8889 57,-239 17.5587,-186.1268 291.6027,-176.5522 377.0886,-174.8565"/>
<polygon fill="#191970" stroke="#191970" points="377.2648,-178.354 387.2007,-174.6759 377.1398,-171.3551 377.2648,-178.354"/>
</g>
<!-- Node60&#45;&gt;Node12 -->
<g id="edge98" class="edge">
<title>Node60&#45;&gt;Node12</title>
<path fill="none" stroke="#191970" d="M606.4083,-390.1343C428.8412,-378.8703 0,-345.366 0,-284.5 0,-284.5 0,-284.5 0,-229.5 0,-173.4343 70.5122,-141.3162 110.7305,-127.5568"/>
<polygon fill="#191970" stroke="#191970" points="111.822,-130.8824 120.2414,-124.4508 109.6489,-124.2282 111.822,-130.8824"/>
</g>
<!-- Node61 -->
<g id="node44" class="node">
<title>Node61</title>
<g id="a_node44"><a xlink:href="validationinterface_8h.html" target="_top" xlink:title="validationinterface.h">
<polygon fill="#ffffff" stroke="#000000" points="615.5273,-330.5 615.5273,-348.5 720.4727,-348.5 720.4727,-330.5 615.5273,-330.5"/>
<text text-anchor="middle" x="668" y="-336.5" font-family="Helvetica,sans-Serif" font-size="10.00" fill="#000000">validationinterface.h</text>
</a>
</g>
</g>
<!-- Node60&#45;&gt;Node61 -->
<g id="edge88" class="edge">
<title>Node60&#45;&gt;Node61</title>
<path fill="none" stroke="#191970" d="M679.6882,-385.4179C677.8349,-378.1372 675.1703,-367.669 672.8531,-358.5659"/>
<polygon fill="#191970" stroke="#191970" points="676.2208,-357.607 670.362,-348.7795 669.4371,-359.3338 676.2208,-357.607"/>
</g>
<!-- Node61&#45;&gt;Node29 -->
<g id="edge89" class="edge">
<title>Node61&#45;&gt;Node29</title>
<path fill="none" stroke="#191970" d="M720.7775,-331.2064C782.173,-321.5585 883.656,-305.6112 950.6755,-295.0796"/>
<polygon fill="#191970" stroke="#191970" points="951.3788,-298.5121 960.7142,-293.502 950.2921,-291.5969 951.3788,-298.5121"/>
</g>
<!-- Node61&#45;&gt;Node55 -->
<g id="edge96" class="edge">
<title>Node61&#45;&gt;Node55</title>
<path fill="none" stroke="#191970" d="M694.358,-330.4652C739.892,-314.4608 835.7324,-279.0198 912,-239 965.4886,-210.933 969.9649,-187.5579 1026,-165 1093.75,-137.7261 1179.1215,-126.4987 1226.704,-122.1106"/>
<polygon fill="#191970" stroke="#191970" points="1227.1693,-125.5835 1236.8276,-121.2284 1226.5615,-118.6099 1227.1693,-125.5835"/>
</g>
<!-- Node62 -->
<g id="node45" class="node">
<title>Node62</title>
<g id="a_node45"><a xlink:href="sync_8h.html" target="_top" xlink:title="sync.h">
<polygon fill="#ffffff" stroke="#000000" points="250.5493,-275.5 250.5493,-293.5 295.4507,-293.5 295.4507,-275.5 250.5493,-275.5"/>
<text text-anchor="middle" x="273" y="-281.5" font-family="Helvetica,sans-Serif" font-size="10.00" fill="#000000">sync.h</text>
</a>
</g>
</g>
<!-- Node61&#45;&gt;Node62 -->
<g id="edge90" class="edge">
<title>Node61&#45;&gt;Node62</title>
<path fill="none" stroke="#191970" d="M615.1384,-332.1395C532.3264,-320.6087 374.4126,-298.6207 305.9826,-289.0925"/>
<polygon fill="#191970" stroke="#191970" points="306.1807,-285.5864 295.7935,-287.6738 305.2153,-292.5195 306.1807,-285.5864"/>
</g>
<!-- Node67 -->
<g id="node50" class="node">
<title>Node67</title>
<polygon fill="#ffffff" stroke="#bfbfbf" points="605.5962,-275.5 605.5962,-293.5 664.4038,-293.5 664.4038,-275.5 605.5962,-275.5"/>
<text text-anchor="middle" x="635" y="-281.5" font-family="Helvetica,sans-Serif" font-size="10.00" fill="#000000">functional</text>
</g>
<!-- Node61&#45;&gt;Node67 -->
<g id="edge95" class="edge">
<title>Node61&#45;&gt;Node67</title>
<path fill="none" stroke="#191970" d="M662.5507,-330.4179C657.9924,-322.8207 651.3516,-311.7527 645.732,-302.3866"/>
<polygon fill="#191970" stroke="#191970" points="648.7139,-300.5536 640.5677,-293.7795 642.7114,-304.1552 648.7139,-300.5536"/>
</g>
<!-- Node63 -->
<g id="node46" class="node">
<title>Node63</title>
<g id="a_node46"><a xlink:href="threadsafety_8h.html" target="_top" xlink:title="threadsafety.h">
<polygon fill="#ffffff" stroke="#000000" points="127.6816,-220.5 127.6816,-238.5 206.3184,-238.5 206.3184,-220.5 127.6816,-220.5"/>
<text text-anchor="middle" x="167" y="-226.5" font-family="Helvetica,sans-Serif" font-size="10.00" fill="#000000">threadsafety.h</text>
</a>
</g>
</g>
<!-- Node62&#45;&gt;Node63 -->
<g id="edge91" class="edge">
<title>Node62&#45;&gt;Node63</title>
<path fill="none" stroke="#191970" d="M255.4963,-275.4179C238.618,-266.6603 212.8512,-253.2907 193.4664,-243.2326"/>
<polygon fill="#191970" stroke="#191970" points="195.018,-240.0946 184.5297,-238.5956 191.7941,-246.308 195.018,-240.0946"/>
</g>
<!-- Node64 -->
<g id="node47" class="node">
<title>Node64</title>
<polygon fill="#ffffff" stroke="#bfbfbf" points="224.6948,-220.5 224.6948,-238.5 321.3052,-238.5 321.3052,-220.5 224.6948,-220.5"/>
<text text-anchor="middle" x="273" y="-226.5" font-family="Helvetica,sans-Serif" font-size="10.00" fill="#000000">condition_variable</text>
</g>
<!-- Node62&#45;&gt;Node64 -->
<g id="edge92" class="edge">
<title>Node62&#45;&gt;Node64</title>
<path fill="none" stroke="#191970" d="M273,-275.4179C273,-268.2164 273,-257.8962 273,-248.8632"/>
<polygon fill="#191970" stroke="#191970" points="276.5001,-248.7794 273,-238.7795 269.5001,-248.7795 276.5001,-248.7794"/>
</g>
<!-- Node65 -->
<g id="node48" class="node">
<title>Node65</title>
<polygon fill="#ffffff" stroke="#bfbfbf" points="338.8228,-220.5 338.8228,-238.5 383.1772,-238.5 383.1772,-220.5 338.8228,-220.5"/>
<text text-anchor="middle" x="361" y="-226.5" font-family="Helvetica,sans-Serif" font-size="10.00" fill="#000000">thread</text>
</g>
<!-- Node62&#45;&gt;Node65 -->
<g id="edge93" class="edge">
<title>Node62&#45;&gt;Node65</title>
<path fill="none" stroke="#191970" d="M287.5314,-275.4179C301.1614,-266.8992 321.7735,-254.0166 337.6996,-244.0627"/>
<polygon fill="#191970" stroke="#191970" points="339.822,-246.8637 346.447,-238.5956 336.112,-240.9277 339.822,-246.8637"/>
</g>
<!-- Node66 -->
<g id="node49" class="node">
<title>Node66</title>
<polygon fill="#ffffff" stroke="#bfbfbf" points="66.3843,-220.5 66.3843,-238.5 109.6157,-238.5 109.6157,-220.5 66.3843,-220.5"/>
<text text-anchor="middle" x="88" y="-226.5" font-family="Helvetica,sans-Serif" font-size="10.00" fill="#000000">mutex</text>
</g>
<!-- Node62&#45;&gt;Node66 -->
<g id="edge94" class="edge">
<title>Node62&#45;&gt;Node66</title>
<path fill="none" stroke="#191970" d="M250.5353,-277.9397C222.2862,-269.6737 172.0558,-254.9211 119.5061,-239.1309"/>
<polygon fill="#191970" stroke="#191970" points="120.2561,-235.7016 109.6717,-236.1718 118.2392,-242.4048 120.2561,-235.7016"/>
</g>
</g>
</svg>
