<?xml version="1.0" encoding="UTF-8" standalone="no"?>
<!DOCTYPE svg PUBLIC "-//W3C//DTD SVG 1.1//EN"
 "http://www.w3.org/Graphics/SVG/1.1/DTD/svg11.dtd">
<!-- Generated by graphviz version 2.40.1 (20161225.0304)
 -->
<!-- Title: src/crypto/keccak/Crypto.h Pages: 1 -->
<svg width="142pt" height="82pt"
 viewBox="0.00 0.00 141.81 82.00" xmlns="http://www.w3.org/2000/svg" xmlns:xlink="http://www.w3.org/1999/xlink">
<g id="graph0" class="graph" transform="scale(1 1) rotate(0) translate(4 78)">
<title>src/crypto/keccak/Crypto.h</title>
<polygon fill="#ffffff" stroke="transparent" points="-4,4 -4,-78 137.8125,-78 137.8125,4 -4,4"/>
<!-- Node0 -->
<g id="node1" class="node">
<title>Node0</title>
<polygon fill="#bfbfbf" stroke="#000000" points="0,-55.5 0,-73.5 133.8125,-73.5 133.8125,-55.5 0,-55.5"/>
<text text-anchor="middle" x="66.9063" y="-61.5" font-family="Helvetica,sans-Serif" font-size="10.00" fill="#000000">src/crypto/keccak/Crypto.h</text>
</g>
<!-- Node1 -->
<g id="node2" class="node">
<title>Node1</title>
<polygon fill="#ffffff" stroke="#bfbfbf" points="1.5049,-.5 1.5049,-18.5 60.3076,-18.5 60.3076,-.5 1.5049,-.5"/>
<text text-anchor="middle" x="30.9063" y="-6.5" font-family="Helvetica,sans-Serif" font-size="10.00" fill="#000000">inttypes.h</text>
</g>
<!-- Node0&#45;&gt;Node1 -->
<g id="edge1" class="edge">
<title>Node0&#45;&gt;Node1</title>
<path fill="none" stroke="#191970" d="M60.9616,-55.4179C55.9889,-47.8207 48.7444,-36.7527 42.6139,-27.3866"/>
<polygon fill="#191970" stroke="#191970" points="45.3852,-25.2297 36.9801,-18.7795 39.5283,-29.0633 45.3852,-25.2297"/>
</g>
<!-- Node2 -->
<g id="node3" class="node">
<title>Node2</title>
<polygon fill="#ffffff" stroke="#bfbfbf" points="78.1157,-.5 78.1157,-18.5 129.6968,-18.5 129.6968,-.5 78.1157,-.5"/>
<text text-anchor="middle" x="103.9063" y="-6.5" font-family="Helvetica,sans-Serif" font-size="10.00" fill="#000000">stddef.h</text>
</g>
<!-- Node0&#45;&gt;Node2 -->
<g id="edge2" class="edge">
<title>Node0&#45;&gt;Node2</title>
<path fill="none" stroke="#191970" d="M73.016,-55.4179C78.1801,-47.7415 85.728,-36.5217 92.07,-27.0945"/>
<polygon fill="#191970" stroke="#191970" points="94.9859,-29.0303 97.6637,-18.7795 89.1779,-25.1231 94.9859,-29.0303"/>
</g>
</g>
</svg>
