<?xml version="1.0" encoding="UTF-8" standalone="no"?>
<!DOCTYPE svg PUBLIC "-//W3C//DTD SVG 1.1//EN"
 "http://www.w3.org/Graphics/SVG/1.1/DTD/svg11.dtd">
<!-- Generated by graphviz version 2.40.1 (20161225.0304)
 -->
<!-- Title: EncodeBase58Check Pages: 1 -->
<svg width="1021pt" height="138pt"
 viewBox="0.00 0.00 1020.56 138.00" xmlns="http://www.w3.org/2000/svg" xmlns:xlink="http://www.w3.org/1999/xlink">
<g id="graph0" class="graph" transform="scale(1 1) rotate(0) translate(4 134)">
<title>EncodeBase58Check</title>
<polygon fill="#ffffff" stroke="transparent" points="-4,4 -4,-134 1016.5586,-134 1016.5586,4 -4,4"/>
<!-- Node76 -->
<g id="node1" class="node">
<title>Node76</title>
<polygon fill="#bfbfbf" stroke="#000000" points="0,-69.5 0,-87.5 112.1768,-87.5 112.1768,-69.5 0,-69.5"/>
<text text-anchor="middle" x="56.0884" y="-75.5" font-family="Helvetica,sans-Serif" font-size="10.00" fill="#000000">EncodeBase58Check</text>
</g>
<!-- Node77 -->
<g id="node2" class="node">
<title>Node77</title>
<g id="a_node2"><a xlink:href="_hash_8h.html#ab3f6c437460137530d86e09c2c102e99" target="_top" xlink:title="Compute the 256&#45;bit hash of an object. ">
<polygon fill="#ffffff" stroke="#000000" points="170.4204,-88.5 170.4204,-106.5 209.7651,-106.5 209.7651,-88.5 170.4204,-88.5"/>
<text text-anchor="middle" x="190.0928" y="-94.5" font-family="Helvetica,sans-Serif" font-size="10.00" fill="#000000">Hash</text>
</a>
</g>
</g>
<!-- Node76&#45;&gt;Node77 -->
<g id="edge1" class="edge">
<title>Node76&#45;&gt;Node77</title>
<path fill="none" stroke="#191970" d="M112.5299,-86.5026C128.9457,-88.8302 146.2289,-91.2807 160.3038,-93.2763"/>
<polygon fill="#191970" stroke="#191970" points="159.9816,-96.7656 170.374,-94.7041 160.9644,-89.8349 159.9816,-96.7656"/>
</g>
<!-- Node93 -->
<g id="node18" class="node">
<title>Node93</title>
<g id="a_node18"><a xlink:href="base58_8cpp.html#a8d6f0e9d5df175b4966dcede31dc90ad" target="_top" xlink:title="Why base&#45;58 instead of standard base&#45;64 encoding? ">
<polygon fill="#ffffff" stroke="#000000" points="148.1768,-51.5 148.1768,-69.5 232.0088,-69.5 232.0088,-51.5 148.1768,-51.5"/>
<text text-anchor="middle" x="190.0928" y="-57.5" font-family="Helvetica,sans-Serif" font-size="10.00" fill="#000000">EncodeBase58</text>
</a>
</g>
</g>
<!-- Node76&#45;&gt;Node93 -->
<g id="edge20" class="edge">
<title>Node76&#45;&gt;Node93</title>
<path fill="none" stroke="#191970" d="M112.5299,-70.9185C120.9714,-69.7847 129.6422,-68.62 137.9883,-67.4989"/>
<polygon fill="#191970" stroke="#191970" points="138.5252,-70.9583 147.9702,-66.1581 137.5932,-64.0206 138.5252,-70.9583"/>
</g>
<!-- Node78 -->
<g id="node3" class="node">
<title>Node78</title>
<g id="a_node3"><a xlink:href="class_c_hash3.html#a3dc880cbca561109d8de7c7ffdd5691e" target="_top" xlink:title="CHash3::Write">
<polygon fill="#ffffff" stroke="#000000" points="273.6606,-106.5 273.6606,-124.5 354.4995,-124.5 354.4995,-106.5 273.6606,-106.5"/>
<text text-anchor="middle" x="314.0801" y="-112.5" font-family="Helvetica,sans-Serif" font-size="10.00" fill="#000000">CHash3::Write</text>
</a>
</g>
</g>
<!-- Node77&#45;&gt;Node78 -->
<g id="edge2" class="edge">
<title>Node77&#45;&gt;Node78</title>
<path fill="none" stroke="#191970" d="M210.0135,-100.392C224.4618,-102.4896 244.683,-105.4252 263.462,-108.1515"/>
<polygon fill="#191970" stroke="#191970" points="263.0064,-111.6219 273.4055,-109.595 264.0122,-104.6946 263.0064,-111.6219"/>
</g>
<!-- Node83 -->
<g id="node8" class="node">
<title>Node83</title>
<g id="a_node8"><a xlink:href="class_c_hash3.html#a28921734337c77f3589c0b1a740e2f30" target="_top" xlink:title="CHash3::Finalize">
<polygon fill="#ffffff" stroke="#000000" points="268.0088,-69.5 268.0088,-87.5 360.1514,-87.5 360.1514,-69.5 268.0088,-69.5"/>
<text text-anchor="middle" x="314.0801" y="-75.5" font-family="Helvetica,sans-Serif" font-size="10.00" fill="#000000">CHash3::Finalize</text>
</a>
</g>
</g>
<!-- Node77&#45;&gt;Node83 -->
<g id="edge7" class="edge">
<title>Node77&#45;&gt;Node83</title>
<path fill="none" stroke="#191970" d="M210.0135,-94.4473C223.0603,-92.448 240.8145,-89.7273 257.9634,-87.0994"/>
<polygon fill="#191970" stroke="#191970" points="258.5959,-90.5434 267.9503,-85.569 257.5355,-83.6242 258.5959,-90.5434"/>
</g>
<!-- Node79 -->
<g id="node4" class="node">
<title>Node79</title>
<g id="a_node4"><a xlink:href="class_c_s_h_a3.html#a439a0fade3fa1b7989c6cf053d39161b" target="_top" xlink:title="CSHA3::Write">
<polygon fill="#ffffff" stroke="#000000" points="401.8032,-106.5 401.8032,-124.5 479.8589,-124.5 479.8589,-106.5 401.8032,-106.5"/>
<text text-anchor="middle" x="440.8311" y="-112.5" font-family="Helvetica,sans-Serif" font-size="10.00" fill="#000000">CSHA3::Write</text>
</a>
</g>
</g>
<!-- Node78&#45;&gt;Node79 -->
<g id="edge3" class="edge">
<title>Node78&#45;&gt;Node79</title>
<path fill="none" stroke="#191970" d="M354.5334,-115.5C366.3065,-115.5 379.2994,-115.5 391.5519,-115.5"/>
<polygon fill="#191970" stroke="#191970" points="391.6268,-119.0001 401.6267,-115.5 391.6267,-112.0001 391.6268,-119.0001"/>
</g>
<!-- Node80 -->
<g id="node5" class="node">
<title>Node80</title>
<g id="a_node5"><a xlink:href="class_s_h_a3__256.html#a8356957ea403c5da326fc6899b91ea71" target="_top" xlink:title="Updates the hash with more data. ">
<polygon fill="#ffffff" stroke="#000000" points="521.7817,-108.5 521.7817,-126.5 622.2935,-126.5 622.2935,-108.5 521.7817,-108.5"/>
<text text-anchor="middle" x="572.0376" y="-114.5" font-family="Helvetica,sans-Serif" font-size="10.00" fill="#000000">SHA3_256::update</text>
</a>
</g>
</g>
<!-- Node79&#45;&gt;Node80 -->
<g id="edge4" class="edge">
<title>Node79&#45;&gt;Node80</title>
<path fill="none" stroke="#191970" d="M480.1973,-116.1001C490.0362,-116.25 500.8177,-116.4144 511.4242,-116.5761"/>
<polygon fill="#191970" stroke="#191970" points="511.451,-120.0768 521.5033,-116.7297 511.5578,-113.0776 511.451,-120.0768"/>
</g>
<!-- Node81 -->
<g id="node6" class="node">
<title>Node81</title>
<g id="a_node6"><a xlink:href="class_keccak_core.html#aaaa0355ccec0f469ac8eb577bdf853ed" target="_top" xlink:title="Updates the Keccak sponge function with more input data. ">
<polygon fill="#ffffff" stroke="#000000" points="658.5645,-111.5 658.5645,-129.5 765.1748,-129.5 765.1748,-111.5 658.5645,-111.5"/>
<text text-anchor="middle" x="711.8696" y="-117.5" font-family="Helvetica,sans-Serif" font-size="10.00" fill="#000000">KeccakCore::update</text>
</a>
</g>
</g>
<!-- Node80&#45;&gt;Node81 -->
<g id="edge5" class="edge">
<title>Node80&#45;&gt;Node81</title>
<path fill="none" stroke="#191970" d="M622.5202,-118.5831C630.8418,-118.7616 639.5624,-118.9487 648.1569,-119.1331"/>
<polygon fill="#191970" stroke="#191970" points="648.0841,-122.6322 658.1569,-119.3476 648.2343,-115.6338 648.0841,-122.6322"/>
</g>
<!-- Node82 -->
<g id="node7" class="node">
<title>Node82</title>
<g id="a_node7"><a xlink:href="class_keccak_core.html#aba3225c7a4ceff3580236a900b72a1c3" target="_top" xlink:title="Transform the state with the KECCAK&#45;p sponge function with b = 1600. ">
<polygon fill="#ffffff" stroke="#000000" points="801.1748,-74.5 801.1748,-92.5 913.8838,-92.5 913.8838,-74.5 801.1748,-74.5"/>
<text text-anchor="middle" x="857.5293" y="-80.5" font-family="Helvetica,sans-Serif" font-size="10.00" fill="#000000">KeccakCore::keccakp</text>
</a>
</g>
</g>
<!-- Node81&#45;&gt;Node82 -->
<g id="edge6" class="edge">
<title>Node81&#45;&gt;Node82</title>
<path fill="none" stroke="#191970" d="M747.502,-111.4488C766.9721,-106.5031 791.2904,-100.3258 812.1099,-95.0373"/>
<polygon fill="#191970" stroke="#191970" points="813.1822,-98.3761 822.0127,-92.5218 811.4587,-91.5916 813.1822,-98.3761"/>
</g>
<!-- Node83&#45;&gt;Node79 -->
<g id="edge19" class="edge">
<title>Node83&#45;&gt;Node79</title>
<path fill="none" stroke="#191970" d="M345.0869,-87.5512C361.5061,-92.3442 381.8876,-98.2938 399.6204,-103.4702"/>
<polygon fill="#191970" stroke="#191970" points="399.1249,-106.9715 409.7051,-106.414 401.0865,-100.252 399.1249,-106.9715"/>
</g>
<!-- Node84 -->
<g id="node9" class="node">
<title>Node84</title>
<g id="a_node9"><a xlink:href="class_c_s_h_a3.html#a7aa515a9a0fa6d72667d74897f699ae9" target="_top" xlink:title="CSHA3::Finalize">
<polygon fill="#ffffff" stroke="#000000" points="396.1514,-69.5 396.1514,-87.5 485.5107,-87.5 485.5107,-69.5 396.1514,-69.5"/>
<text text-anchor="middle" x="440.8311" y="-75.5" font-family="Helvetica,sans-Serif" font-size="10.00" fill="#000000">CSHA3::Finalize</text>
</a>
</g>
</g>
<!-- Node83&#45;&gt;Node84 -->
<g id="edge8" class="edge">
<title>Node83&#45;&gt;Node84</title>
<path fill="none" stroke="#191970" d="M360.1986,-78.5C368.4516,-78.5 377.1271,-78.5 385.6049,-78.5"/>
<polygon fill="#191970" stroke="#191970" points="385.8061,-82.0001 395.806,-78.5 385.806,-75.0001 385.8061,-82.0001"/>
</g>
<!-- Node90 -->
<g id="node15" class="node">
<title>Node90</title>
<g id="a_node15"><a xlink:href="class_c_s_h_a3.html#a9d77a24312b66dcd026dfbed1d917dc1" target="_top" xlink:title="CSHA3::Reset">
<polygon fill="#ffffff" stroke="#000000" points="400.3188,-27.5 400.3188,-45.5 481.3433,-45.5 481.3433,-27.5 400.3188,-27.5"/>
<text text-anchor="middle" x="440.8311" y="-33.5" font-family="Helvetica,sans-Serif" font-size="10.00" fill="#000000">CSHA3::Reset</text>
</a>
</g>
</g>
<!-- Node83&#45;&gt;Node90 -->
<g id="edge16" class="edge">
<title>Node83&#45;&gt;Node90</title>
<path fill="none" stroke="#191970" d="M341.2713,-69.4899C359.4419,-63.469 383.5805,-55.4704 403.5386,-48.8572"/>
<polygon fill="#191970" stroke="#191970" points="404.8559,-52.1079 413.2474,-45.6401 402.654,-45.4632 404.8559,-52.1079"/>
</g>
<!-- Node85 -->
<g id="node10" class="node">
<title>Node85</title>
<g id="a_node10"><a xlink:href="class_s_h_a3__256.html#a8fe7cad1f83bd1bae1a0d521324247a1" target="_top" xlink:title="Finalizes the hashing process and returns the hash. ">
<polygon fill="#ffffff" stroke="#000000" points="521.5107,-69.5 521.5107,-87.5 622.5645,-87.5 622.5645,-69.5 521.5107,-69.5"/>
<text text-anchor="middle" x="572.0376" y="-75.5" font-family="Helvetica,sans-Serif" font-size="10.00" fill="#000000">SHA3_256::finalize</text>
</a>
</g>
</g>
<!-- Node84&#45;&gt;Node85 -->
<g id="edge9" class="edge">
<title>Node84&#45;&gt;Node85</title>
<path fill="none" stroke="#191970" d="M485.6179,-78.5C493.8351,-78.5 502.5383,-78.5 511.1334,-78.5"/>
<polygon fill="#191970" stroke="#191970" points="511.1381,-82.0001 521.1381,-78.5 511.138,-75.0001 511.1381,-82.0001"/>
</g>
<!-- Node86 -->
<g id="node11" class="node">
<title>Node86</title>
<g id="a_node11"><a xlink:href="class_keccak_core.html#a97852ee4381ced17ee6d21704cf0b4d7" target="_top" xlink:title="Pads the last block of input data to blockSize(). ">
<polygon fill="#ffffff" stroke="#000000" points="665.5151,-74.5 665.5151,-92.5 758.2241,-92.5 758.2241,-74.5 665.5151,-74.5"/>
<text text-anchor="middle" x="711.8696" y="-80.5" font-family="Helvetica,sans-Serif" font-size="10.00" fill="#000000">KeccakCore::pad</text>
</a>
</g>
</g>
<!-- Node85&#45;&gt;Node86 -->
<g id="edge10" class="edge">
<title>Node85&#45;&gt;Node86</title>
<path fill="none" stroke="#191970" d="M622.9157,-80.3193C633.4492,-80.6959 644.6067,-81.0949 655.3283,-81.4782"/>
<polygon fill="#191970" stroke="#191970" points="655.3209,-84.9801 665.4396,-81.8398 655.5711,-77.9846 655.3209,-84.9801"/>
</g>
<!-- Node87 -->
<g id="node12" class="node">
<title>Node87</title>
<g id="a_node12"><a xlink:href="class_keccak_core.html#aad83ece853c0cc15fcab947fdcba924f" target="_top" xlink:title="Extracts data from the Keccak sponge function. ">
<polygon fill="#ffffff" stroke="#000000" points="658.8525,-37.5 658.8525,-55.5 764.8867,-55.5 764.8867,-37.5 658.8525,-37.5"/>
<text text-anchor="middle" x="711.8696" y="-43.5" font-family="Helvetica,sans-Serif" font-size="10.00" fill="#000000">KeccakCore::extract</text>
</a>
</g>
</g>
<!-- Node85&#45;&gt;Node87 -->
<g id="edge12" class="edge">
<title>Node85&#45;&gt;Node87</title>
<path fill="none" stroke="#191970" d="M611.7338,-69.4157C627.3803,-65.835 645.5272,-61.6822 662.0404,-57.9032"/>
<polygon fill="#191970" stroke="#191970" points="663.107,-61.2497 672.0742,-55.607 661.5453,-54.4261 663.107,-61.2497"/>
</g>
<!-- Node86&#45;&gt;Node82 -->
<g id="edge11" class="edge">
<title>Node86&#45;&gt;Node82</title>
<path fill="none" stroke="#191970" d="M758.3577,-83.5C768.7481,-83.5 779.9652,-83.5 790.9887,-83.5"/>
<polygon fill="#191970" stroke="#191970" points="791.0286,-87.0001 801.0286,-83.5 791.0286,-80.0001 791.0286,-87.0001"/>
</g>
<!-- Node87&#45;&gt;Node82 -->
<g id="edge13" class="edge">
<title>Node87&#45;&gt;Node82</title>
<path fill="none" stroke="#191970" d="M747.502,-55.5512C766.9721,-60.4969 791.2904,-66.6742 812.1099,-71.9627"/>
<polygon fill="#191970" stroke="#191970" points="811.4587,-75.4084 822.0127,-74.4782 813.1822,-68.6239 811.4587,-75.4084"/>
</g>
<!-- Node88 -->
<g id="node13" class="node">
<title>Node88</title>
<g id="a_node13"><a xlink:href="glibc__compat_8cpp.html#a0f46826ab0466591e136db24394923cf" target="_top" xlink:title="memcpy">
<polygon fill="#ffffff" stroke="#000000" points="830.6377,-37.5 830.6377,-55.5 884.4209,-55.5 884.4209,-37.5 830.6377,-37.5"/>
<text text-anchor="middle" x="857.5293" y="-43.5" font-family="Helvetica,sans-Serif" font-size="10.00" fill="#000000">memcpy</text>
</a>
</g>
</g>
<!-- Node87&#45;&gt;Node88 -->
<g id="edge14" class="edge">
<title>Node87&#45;&gt;Node88</title>
<path fill="none" stroke="#191970" d="M765.2808,-46.5C783.3972,-46.5 803.2429,-46.5 819.8702,-46.5"/>
<polygon fill="#191970" stroke="#191970" points="820.2814,-50.0001 830.2814,-46.5 820.2813,-43.0001 820.2814,-50.0001"/>
</g>
<!-- Node89 -->
<g id="node14" class="node">
<title>Node89</title>
<g id="a_node14"><a xlink:href="glibc__compat_8cpp.html#a9778d49e9029dd75bc53ecbbf9f5e9a1" target="_top" xlink:title="memmove">
<polygon fill="#ffffff" stroke="#000000" points="949.8838,-37.5 949.8838,-55.5 1012.5586,-55.5 1012.5586,-37.5 949.8838,-37.5"/>
<text text-anchor="middle" x="981.2212" y="-43.5" font-family="Helvetica,sans-Serif" font-size="10.00" fill="#000000">memmove</text>
</a>
</g>
</g>
<!-- Node88&#45;&gt;Node89 -->
<g id="edge15" class="edge">
<title>Node88&#45;&gt;Node89</title>
<path fill="none" stroke="#191970" d="M884.674,-46.5C900.7998,-46.5 921.5794,-46.5 939.7275,-46.5"/>
<polygon fill="#191970" stroke="#191970" points="939.7723,-50.0001 949.7723,-46.5 939.7723,-43.0001 939.7723,-50.0001"/>
</g>
<!-- Node91 -->
<g id="node16" class="node">
<title>Node91</title>
<g id="a_node16"><a xlink:href="class_s_h_a3__256.html#a57b5f29347a733e04fe47d60621f3202" target="_top" xlink:title="Resets the hash ready for a new hashing process. ">
<polygon fill="#ffffff" stroke="#000000" points="525.959,-18.5 525.959,-36.5 618.1162,-36.5 618.1162,-18.5 525.959,-18.5"/>
<text text-anchor="middle" x="572.0376" y="-24.5" font-family="Helvetica,sans-Serif" font-size="10.00" fill="#000000">SHA3_256::reset</text>
</a>
</g>
</g>
<!-- Node90&#45;&gt;Node91 -->
<g id="edge17" class="edge">
<title>Node90&#45;&gt;Node91</title>
<path fill="none" stroke="#191970" d="M481.6264,-33.7017C492.3391,-32.9668 504.0869,-32.161 515.4652,-31.3805"/>
<polygon fill="#191970" stroke="#191970" points="516.0334,-34.8499 525.7704,-30.6737 515.5543,-27.8663 516.0334,-34.8499"/>
</g>
<!-- Node92 -->
<g id="node17" class="node">
<title>Node92</title>
<g id="a_node17"><a xlink:href="class_keccak_core.html#a5a322eb7e3b5c1eaad127c9c6e6a529b" target="_top" xlink:title="Resets the Keccak sponge function ready for a new session. ">
<polygon fill="#ffffff" stroke="#000000" points="662.7417,-.5 662.7417,-18.5 760.9976,-18.5 760.9976,-.5 662.7417,-.5"/>
<text text-anchor="middle" x="711.8696" y="-6.5" font-family="Helvetica,sans-Serif" font-size="10.00" fill="#000000">KeccakCore::reset</text>
</a>
</g>
</g>
<!-- Node91&#45;&gt;Node92 -->
<g id="edge18" class="edge">
<title>Node91&#45;&gt;Node92</title>
<path fill="none" stroke="#191970" d="M618.2114,-21.5562C629.1633,-20.1464 640.9971,-18.6231 652.4468,-17.1493"/>
<polygon fill="#191970" stroke="#191970" points="652.9066,-20.619 662.3779,-15.8709 652.0129,-13.6763 652.9066,-20.619"/>
</g>
</g>
</svg>
