<?xml version="1.0" encoding="UTF-8" standalone="no"?>
<!DOCTYPE svg PUBLIC "-//W3C//DTD SVG 1.1//EN"
 "http://www.w3.org/Graphics/SVG/1.1/DTD/svg11.dtd">
<!-- Generated by graphviz version 2.40.1 (20161225.0304)
 -->
<!-- Title: main Pages: 1 -->
<svg width="404pt" height="1073pt"
 viewBox="0.00 0.00 404.31 1073.00" xmlns="http://www.w3.org/2000/svg" xmlns:xlink="http://www.w3.org/1999/xlink">
<g id="graph0" class="graph" transform="scale(1 1) rotate(0) translate(4 1069)">
<title>main</title>
<polygon fill="#ffffff" stroke="transparent" points="-4,4 -4,-1069 400.3086,-1069 400.3086,4 -4,4"/>
<!-- Node88 -->
<g id="node1" class="node">
<title>Node88</title>
<polygon fill="#bfbfbf" stroke="#000000" points="0,-528.5 0,-546.5 37.6748,-546.5 37.6748,-528.5 0,-528.5"/>
<text text-anchor="middle" x="18.8374" y="-534.5" font-family="Helvetica,sans-Serif" font-size="10.00" fill="#000000">main</text>
</g>
<!-- Node89 -->
<g id="node2" class="node">
<title>Node89</title>
<g id="a_node2"><a xlink:href="bench__internal_8c.html#a11ad6602b2858a905ba935d8002639db" target="_top" xlink:title="have_flag">
<polygon fill="#ffffff" stroke="#000000" points="117.0439,-1046.5 117.0439,-1064.5 176.4131,-1064.5 176.4131,-1046.5 117.0439,-1046.5"/>
<text text-anchor="middle" x="146.7285" y="-1052.5" font-family="Helvetica,sans-Serif" font-size="10.00" fill="#000000">have_flag</text>
</a>
</g>
</g>
<!-- Node88&#45;&gt;Node89 -->
<g id="edge1" class="edge">
<title>Node88&#45;&gt;Node89</title>
<path fill="none" stroke="#191970" d="M19.2191,-546.6727C21.9964,-611.4884 39.9475,-998.9853 73.6748,-1037.5 82.0113,-1047.0198 94.4998,-1051.9123 106.804,-1054.3164"/>
<polygon fill="#191970" stroke="#191970" points="106.6018,-1057.8236 117.0011,-1055.7974 107.608,-1050.8963 106.6018,-1057.8236"/>
</g>
<!-- Node90 -->
<g id="node3" class="node">
<title>Node90</title>
<g id="a_node3"><a xlink:href="secp256k1_2src_2bench_8h.html#a62a3537c97d14006568dd6f8b2bc5472" target="_top" xlink:title="run_benchmark">
<polygon fill="#ffffff" stroke="#000000" points="103.9873,-1009.5 103.9873,-1027.5 189.4697,-1027.5 189.4697,-1009.5 103.9873,-1009.5"/>
<text text-anchor="middle" x="146.7285" y="-1015.5" font-family="Helvetica,sans-Serif" font-size="10.00" fill="#000000">run_benchmark</text>
</a>
</g>
</g>
<!-- Node88&#45;&gt;Node90 -->
<g id="edge2" class="edge">
<title>Node88&#45;&gt;Node90</title>
<path fill="none" stroke="#191970" d="M19.3088,-546.7803C22.5543,-609.0853 42.3923,-965.0874 73.6748,-1000.5 79.1466,-1006.6942 86.3764,-1010.9261 94.1608,-1013.7873"/>
<polygon fill="#191970" stroke="#191970" points="93.269,-1017.1732 103.8503,-1016.6372 95.2443,-1010.4576 93.269,-1017.1732"/>
</g>
<!-- Node91 -->
<g id="node4" class="node">
<title>Node91</title>
<g id="a_node4"><a xlink:href="bench__internal_8c.html#a0b539623bdc89b13ef2b6c7652eb49ff" target="_top" xlink:title="bench_scalar_add">
<polygon fill="#ffffff" stroke="#000000" points="97.8643,-972.5 97.8643,-990.5 195.5928,-990.5 195.5928,-972.5 97.8643,-972.5"/>
<text text-anchor="middle" x="146.7285" y="-978.5" font-family="Helvetica,sans-Serif" font-size="10.00" fill="#000000">bench_scalar_add</text>
</a>
</g>
</g>
<!-- Node88&#45;&gt;Node91 -->
<g id="edge3" class="edge">
<title>Node88&#45;&gt;Node91</title>
<path fill="none" stroke="#191970" d="M19.4093,-546.7927C23.1447,-606.1841 44.8153,-931.162 73.6748,-963.5 77.7422,-968.0576 82.7614,-971.5508 88.249,-974.2163"/>
<polygon fill="#191970" stroke="#191970" points="87.2529,-977.5847 97.841,-977.9626 89.7996,-971.0643 87.2529,-977.5847"/>
</g>
<!-- Node92 -->
<g id="node5" class="node">
<title>Node92</title>
<g id="a_node5"><a xlink:href="bench__internal_8c.html#af48be8297385d0d32de62ae12a07d55c" target="_top" xlink:title="bench_setup">
<polygon fill="#ffffff" stroke="#000000" points="110.0933,-935.5 110.0933,-953.5 183.3638,-953.5 183.3638,-935.5 110.0933,-935.5"/>
<text text-anchor="middle" x="146.7285" y="-941.5" font-family="Helvetica,sans-Serif" font-size="10.00" fill="#000000">bench_setup</text>
</a>
</g>
</g>
<!-- Node88&#45;&gt;Node92 -->
<g id="edge4" class="edge">
<title>Node88&#45;&gt;Node92</title>
<path fill="none" stroke="#191970" d="M19.521,-546.7018C23.767,-602.7876 47.2161,-897.2086 73.6748,-926.5 80.57,-934.1334 90.136,-938.7738 100.0771,-941.5402"/>
<polygon fill="#191970" stroke="#191970" points="99.5413,-945.0057 110.0583,-943.7235 101.0372,-938.1674 99.5413,-945.0057"/>
</g>
<!-- Node93 -->
<g id="node6" class="node">
<title>Node93</title>
<g id="a_node6"><a xlink:href="bench__internal_8c.html#ae3fb5f28fb450096dcd04f36abfdb462" target="_top" xlink:title="bench_scalar_negate">
<polygon fill="#ffffff" stroke="#000000" points="90.9136,-898.5 90.9136,-916.5 202.5435,-916.5 202.5435,-898.5 90.9136,-898.5"/>
<text text-anchor="middle" x="146.7285" y="-904.5" font-family="Helvetica,sans-Serif" font-size="10.00" fill="#000000">bench_scalar_negate</text>
</a>
</g>
</g>
<!-- Node88&#45;&gt;Node93 -->
<g id="edge5" class="edge">
<title>Node88&#45;&gt;Node93</title>
<path fill="none" stroke="#191970" d="M18.9419,-546.6785C19.7016,-596.8223 25.826,-837.2943 73.6748,-889.5 76.0867,-892.1316 78.8162,-894.4064 81.768,-896.3707"/>
<polygon fill="#191970" stroke="#191970" points="80.1316,-899.4647 90.5959,-901.1226 83.4495,-893.3009 80.1316,-899.4647"/>
</g>
<!-- Node94 -->
<g id="node7" class="node">
<title>Node94</title>
<g id="a_node7"><a xlink:href="bench__internal_8c.html#abe9892c7c25aa6262dfd2d3c8eb6cc68" target="_top" xlink:title="bench_scalar_sqr">
<polygon fill="#ffffff" stroke="#000000" points="99.2607,-861.5 99.2607,-879.5 194.1963,-879.5 194.1963,-861.5 99.2607,-861.5"/>
<text text-anchor="middle" x="146.7285" y="-867.5" font-family="Helvetica,sans-Serif" font-size="10.00" fill="#000000">bench_scalar_sqr</text>
</a>
</g>
</g>
<!-- Node88&#45;&gt;Node94 -->
<g id="edge6" class="edge">
<title>Node88&#45;&gt;Node94</title>
<path fill="none" stroke="#191970" d="M19.1234,-546.6264C20.7763,-593.4533 30.598,-806.3331 73.6748,-852.5 78.1193,-857.2633 83.6049,-860.8538 89.5571,-863.5477"/>
<polygon fill="#191970" stroke="#191970" points="88.6186,-866.9312 99.2124,-867.0826 91.0252,-860.3579 88.6186,-866.9312"/>
</g>
<!-- Node95 -->
<g id="node8" class="node">
<title>Node95</title>
<g id="a_node8"><a xlink:href="bench__internal_8c.html#a01cf2d68b95f3289092b392a96afb45f" target="_top" xlink:title="bench_scalar_mul">
<polygon fill="#ffffff" stroke="#000000" points="98.1499,-824.5 98.1499,-842.5 195.3071,-842.5 195.3071,-824.5 98.1499,-824.5"/>
<text text-anchor="middle" x="146.7285" y="-830.5" font-family="Helvetica,sans-Serif" font-size="10.00" fill="#000000">bench_scalar_mul</text>
</a>
</g>
</g>
<!-- Node88&#45;&gt;Node95 -->
<g id="edge7" class="edge">
<title>Node88&#45;&gt;Node95</title>
<path fill="none" stroke="#191970" d="M19.3565,-546.6891C22.0016,-590.2344 35.3832,-775.3721 73.6748,-815.5 77.8342,-819.8589 82.8663,-823.2313 88.3216,-825.8314"/>
<polygon fill="#191970" stroke="#191970" points="87.2337,-829.1634 97.8227,-829.5156 89.7645,-822.6369 87.2337,-829.1634"/>
</g>
<!-- Node96 -->
<g id="node9" class="node">
<title>Node96</title>
<g id="a_node9"><a xlink:href="bench__internal_8c.html#a3514e9903b441b8d32d09a56ea1ab203" target="_top" xlink:title="bench_scalar_inverse">
<polygon fill="#ffffff" stroke="#000000" points="90.0884,-787.5 90.0884,-805.5 203.3687,-805.5 203.3687,-787.5 90.0884,-787.5"/>
<text text-anchor="middle" x="146.7285" y="-793.5" font-family="Helvetica,sans-Serif" font-size="10.00" fill="#000000">bench_scalar_inverse</text>
</a>
</g>
</g>
<!-- Node88&#45;&gt;Node96 -->
<g id="edge8" class="edge">
<title>Node88&#45;&gt;Node96</title>
<path fill="none" stroke="#191970" d="M19.6397,-546.5124C23.3451,-586.1215 40.0718,-744.2918 73.6748,-778.5 75.8917,-780.7568 78.343,-782.7477 80.9644,-784.5028"/>
<polygon fill="#191970" stroke="#191970" points="79.3823,-787.6267 89.8373,-789.3426 82.7343,-781.4814 79.3823,-787.6267"/>
</g>
<!-- Node97 -->
<g id="node10" class="node">
<title>Node97</title>
<g id="a_node10"><a xlink:href="bench__internal_8c.html#a9587e1fb40ba7e4d0c50b1d67419dd0d" target="_top" xlink:title="bench_scalar_inverse_var">
<polygon fill="#ffffff" stroke="#000000" points="80.3618,-750.5 80.3618,-768.5 213.0952,-768.5 213.0952,-750.5 80.3618,-750.5"/>
<text text-anchor="middle" x="146.7285" y="-756.5" font-family="Helvetica,sans-Serif" font-size="10.00" fill="#000000">bench_scalar_inverse_var</text>
</a>
</g>
</g>
<!-- Node88&#45;&gt;Node97 -->
<g id="edge9" class="edge">
<title>Node88&#45;&gt;Node97</title>
<path fill="none" stroke="#191970" d="M20.0757,-546.7935C25.0693,-582.9028 44.8509,-713.2758 73.6748,-741.5 74.9581,-742.7566 76.3143,-743.9301 77.7318,-745.0259"/>
<polygon fill="#191970" stroke="#191970" points="76.1099,-748.14 86.4412,-750.4883 79.8292,-742.2099 76.1099,-748.14"/>
</g>
<!-- Node98 -->
<g id="node11" class="node">
<title>Node98</title>
<g id="a_node11"><a xlink:href="bench__internal_8c.html#ac3485538e4fa9af40a4cef001232ddd3" target="_top" xlink:title="bench_field_normalize">
<polygon fill="#ffffff" stroke="#000000" points="88.6968,-713.5 88.6968,-731.5 204.7603,-731.5 204.7603,-713.5 88.6968,-713.5"/>
<text text-anchor="middle" x="146.7285" y="-719.5" font-family="Helvetica,sans-Serif" font-size="10.00" fill="#000000">bench_field_normalize</text>
</a>
</g>
</g>
<!-- Node88&#45;&gt;Node98 -->
<g id="edge10" class="edge">
<title>Node88&#45;&gt;Node98</title>
<path fill="none" stroke="#191970" d="M20.6652,-546.8163C27.0823,-578.6085 49.5053,-682.094 73.6748,-704.5 75.426,-706.1234 77.2997,-707.6068 79.2693,-708.9618"/>
<polygon fill="#191970" stroke="#191970" points="78.0063,-712.2669 88.4383,-714.1172 81.437,-706.1653 78.0063,-712.2669"/>
</g>
<!-- Node99 -->
<g id="node12" class="node">
<title>Node99</title>
<g id="a_node12"><a xlink:href="bench__internal_8c.html#a2c64e320d361391c4173beb301ffedd5" target="_top" xlink:title="bench_field_normalize_weak">
<polygon fill="#ffffff" stroke="#000000" points="74.2437,-676.5 74.2437,-694.5 219.2134,-694.5 219.2134,-676.5 74.2437,-676.5"/>
<text text-anchor="middle" x="146.7285" y="-682.5" font-family="Helvetica,sans-Serif" font-size="10.00" fill="#000000">bench_field_normalize_weak</text>
</a>
</g>
</g>
<!-- Node88&#45;&gt;Node99 -->
<g id="edge11" class="edge">
<title>Node88&#45;&gt;Node99</title>
<path fill="none" stroke="#191970" d="M19.9038,-546.6909C23.1747,-570.5247 35.2961,-634.7386 73.6748,-667.5 75.4103,-668.9815 77.2491,-670.3446 79.169,-671.5986"/>
<polygon fill="#191970" stroke="#191970" points="77.5815,-674.7193 88.0379,-676.4265 80.9283,-668.5712 77.5815,-674.7193"/>
</g>
<!-- Node100 -->
<g id="node13" class="node">
<title>Node100</title>
<g id="a_node13"><a xlink:href="bench__internal_8c.html#a8254149a8227aa2a8a608a2ad33bfeb0" target="_top" xlink:title="bench_field_sqr">
<polygon fill="#ffffff" stroke="#000000" points="103.4258,-639.5 103.4258,-657.5 190.0313,-657.5 190.0313,-639.5 103.4258,-639.5"/>
<text text-anchor="middle" x="146.7285" y="-645.5" font-family="Helvetica,sans-Serif" font-size="10.00" fill="#000000">bench_field_sqr</text>
</a>
</g>
</g>
<!-- Node88&#45;&gt;Node100 -->
<g id="edge12" class="edge">
<title>Node88&#45;&gt;Node100</title>
<path fill="none" stroke="#191970" d="M21.5129,-546.5295C27.5475,-565.2658 44.053,-608.4544 73.6748,-630.5 79.5822,-634.8965 86.4305,-638.2295 93.5188,-640.7543"/>
<polygon fill="#191970" stroke="#191970" points="92.6819,-644.158 103.2677,-643.7201 94.7193,-637.4611 92.6819,-644.158"/>
</g>
<!-- Node101 -->
<g id="node14" class="node">
<title>Node101</title>
<g id="a_node14"><a xlink:href="bench__internal_8c.html#af8408941f23caa6b2f966d5ad5a3bcf5" target="_top" xlink:title="bench_field_mul">
<polygon fill="#ffffff" stroke="#000000" points="102.3149,-602.5 102.3149,-620.5 191.1421,-620.5 191.1421,-602.5 102.3149,-602.5"/>
<text text-anchor="middle" x="146.7285" y="-608.5" font-family="Helvetica,sans-Serif" font-size="10.00" fill="#000000">bench_field_mul</text>
</a>
</g>
</g>
<!-- Node88&#45;&gt;Node101 -->
<g id="edge13" class="edge">
<title>Node88&#45;&gt;Node101</title>
<path fill="none" stroke="#191970" d="M25.1494,-546.5839C34.3451,-559.1087 52.6401,-581.4917 73.6748,-593.5 79.4673,-596.8068 85.8555,-599.5106 92.3712,-601.7204"/>
<polygon fill="#191970" stroke="#191970" points="91.3694,-605.0739 101.9544,-604.6171 93.3949,-598.3733 91.3694,-605.0739"/>
</g>
<!-- Node102 -->
<g id="node15" class="node">
<title>Node102</title>
<g id="a_node15"><a xlink:href="bench__internal_8c.html#aadfd2513d7e62f1bea711ca496f8a3c2" target="_top" xlink:title="bench_field_inverse">
<polygon fill="#ffffff" stroke="#000000" points="94.2534,-565.5 94.2534,-583.5 199.2036,-583.5 199.2036,-565.5 94.2534,-565.5"/>
<text text-anchor="middle" x="146.7285" y="-571.5" font-family="Helvetica,sans-Serif" font-size="10.00" fill="#000000">bench_field_inverse</text>
</a>
</g>
</g>
<!-- Node88&#45;&gt;Node102 -->
<g id="edge14" class="edge">
<title>Node88&#45;&gt;Node102</title>
<path fill="none" stroke="#191970" d="M37.7322,-544.5279C48.2401,-548.3144 61.5974,-552.928 73.6748,-556.5 81.2491,-558.7401 89.3211,-560.9263 97.2331,-562.959"/>
<polygon fill="#191970" stroke="#191970" points="96.5683,-566.4007 107.1199,-565.4441 98.2748,-559.6118 96.5683,-566.4007"/>
</g>
<!-- Node103 -->
<g id="node16" class="node">
<title>Node103</title>
<g id="a_node16"><a xlink:href="bench__internal_8c.html#afe3b788c31c7bb78714db48b2d43fd60" target="_top" xlink:title="bench_field_inverse_var">
<polygon fill="#ffffff" stroke="#000000" points="84.5269,-528.5 84.5269,-546.5 208.9302,-546.5 208.9302,-528.5 84.5269,-528.5"/>
<text text-anchor="middle" x="146.7285" y="-534.5" font-family="Helvetica,sans-Serif" font-size="10.00" fill="#000000">bench_field_inverse_var</text>
</a>
</g>
</g>
<!-- Node88&#45;&gt;Node103 -->
<g id="edge15" class="edge">
<title>Node88&#45;&gt;Node103</title>
<path fill="none" stroke="#191970" d="M37.7082,-537.5C47.6746,-537.5 60.6132,-537.5 74.0765,-537.5"/>
<polygon fill="#191970" stroke="#191970" points="74.4338,-541.0001 84.4337,-537.5 74.4337,-534.0001 74.4338,-541.0001"/>
</g>
<!-- Node104 -->
<g id="node17" class="node">
<title>Node104</title>
<g id="a_node17"><a xlink:href="bench__internal_8c.html#a5f6c9dacf8329d164f273f6014e7d416" target="_top" xlink:title="bench_field_sqrt">
<polygon fill="#ffffff" stroke="#000000" points="102.0366,-491.5 102.0366,-509.5 191.4204,-509.5 191.4204,-491.5 102.0366,-491.5"/>
<text text-anchor="middle" x="146.7285" y="-497.5" font-family="Helvetica,sans-Serif" font-size="10.00" fill="#000000">bench_field_sqrt</text>
</a>
</g>
</g>
<!-- Node88&#45;&gt;Node104 -->
<g id="edge16" class="edge">
<title>Node88&#45;&gt;Node104</title>
<path fill="none" stroke="#191970" d="M37.7796,-530.9577C48.3018,-527.4055 61.6577,-523.0312 73.6748,-519.5 82.262,-516.9767 91.4668,-514.4474 100.3486,-512.095"/>
<polygon fill="#191970" stroke="#191970" points="101.3986,-515.4382 110.1889,-509.5239 99.6289,-508.6656 101.3986,-515.4382"/>
</g>
<!-- Node105 -->
<g id="node18" class="node">
<title>Node105</title>
<g id="a_node18"><a xlink:href="bench__internal_8c.html#a2e04291c03d8680c2c4d55933e8fbe49" target="_top" xlink:title="bench_group_double_var">
<polygon fill="#ffffff" stroke="#000000" points="82.0146,-454.5 82.0146,-472.5 211.4424,-472.5 211.4424,-454.5 82.0146,-454.5"/>
<text text-anchor="middle" x="146.7285" y="-460.5" font-family="Helvetica,sans-Serif" font-size="10.00" fill="#000000">bench_group_double_var</text>
</a>
</g>
</g>
<!-- Node88&#45;&gt;Node105 -->
<g id="edge17" class="edge">
<title>Node88&#45;&gt;Node105</title>
<path fill="none" stroke="#191970" d="M25.5247,-528.2023C34.8888,-515.8744 53.0879,-494.3054 73.6748,-482.5 77.9273,-480.0615 82.4968,-477.9299 87.1998,-476.0676"/>
<polygon fill="#191970" stroke="#191970" points="88.7195,-479.2428 96.9823,-472.6113 86.3875,-472.6427 88.7195,-479.2428"/>
</g>
<!-- Node106 -->
<g id="node19" class="node">
<title>Node106</title>
<g id="a_node19"><a xlink:href="bench__internal_8c.html#a6bedf8eeeb6567d891a777f3828b42e6" target="_top" xlink:title="bench_group_add_var">
<polygon fill="#ffffff" stroke="#000000" points="88.687,-417.5 88.687,-435.5 204.77,-435.5 204.77,-417.5 88.687,-417.5"/>
<text text-anchor="middle" x="146.7285" y="-423.5" font-family="Helvetica,sans-Serif" font-size="10.00" fill="#000000">bench_group_add_var</text>
</a>
</g>
</g>
<!-- Node88&#45;&gt;Node106 -->
<g id="edge18" class="edge">
<title>Node88&#45;&gt;Node106</title>
<path fill="none" stroke="#191970" d="M21.6589,-528.3131C27.867,-509.6838 44.5268,-467.3775 73.6748,-445.5 76.5391,-443.3502 79.6243,-441.4428 82.8507,-439.7507"/>
<polygon fill="#191970" stroke="#191970" points="84.5625,-442.8187 92.2508,-435.529 81.6946,-436.4332 84.5625,-442.8187"/>
</g>
<!-- Node107 -->
<g id="node20" class="node">
<title>Node107</title>
<g id="a_node20"><a xlink:href="bench__internal_8c.html#a035c2e84ac8291dcfc8e3cc11c9af781" target="_top" xlink:title="bench_group_add_affine">
<polygon fill="#ffffff" stroke="#000000" points="83.4014,-380.5 83.4014,-398.5 210.0557,-398.5 210.0557,-380.5 83.4014,-380.5"/>
<text text-anchor="middle" x="146.7285" y="-386.5" font-family="Helvetica,sans-Serif" font-size="10.00" fill="#000000">bench_group_add_affine</text>
</a>
</g>
</g>
<!-- Node88&#45;&gt;Node107 -->
<g id="edge19" class="edge">
<title>Node88&#45;&gt;Node107</title>
<path fill="none" stroke="#191970" d="M19.9513,-528.4061C23.3369,-504.8192 35.7112,-441.2395 73.6748,-408.5 75.9077,-406.5743 78.3125,-404.8404 80.8416,-403.2793"/>
<polygon fill="#191970" stroke="#191970" points="82.5825,-406.3193 89.8507,-398.6106 79.3617,-400.1042 82.5825,-406.3193"/>
</g>
<!-- Node108 -->
<g id="node21" class="node">
<title>Node108</title>
<g id="a_node21"><a xlink:href="bench__internal_8c.html#a4964d22380325912e3235e21b5525be3" target="_top" xlink:title="bench_group_add_affine_var">
<polygon fill="#ffffff" stroke="#000000" points="73.6748,-343.5 73.6748,-361.5 219.7822,-361.5 219.7822,-343.5 73.6748,-343.5"/>
<text text-anchor="middle" x="146.7285" y="-349.5" font-family="Helvetica,sans-Serif" font-size="10.00" fill="#000000">bench_group_add_affine_var</text>
</a>
</g>
</g>
<!-- Node88&#45;&gt;Node108 -->
<g id="edge20" class="edge">
<title>Node88&#45;&gt;Node108</title>
<path fill="none" stroke="#191970" d="M20.6838,-528.2502C27.1618,-496.6833 49.7597,-393.9177 73.6748,-371.5 75.599,-369.6963 77.6721,-368.0588 79.8588,-366.5725"/>
<polygon fill="#191970" stroke="#191970" points="81.7792,-369.5081 88.7819,-361.5574 78.3495,-363.4059 81.7792,-369.5081"/>
</g>
<!-- Node109 -->
<g id="node22" class="node">
<title>Node109</title>
<g id="a_node22"><a xlink:href="bench__internal_8c.html#a8357476f6355cda3bf16d401576115b3" target="_top" xlink:title="bench_group_jacobi_var">
<polygon fill="#ffffff" stroke="#000000" points="83.9653,-306.5 83.9653,-324.5 209.4917,-324.5 209.4917,-306.5 83.9653,-306.5"/>
<text text-anchor="middle" x="146.7285" y="-312.5" font-family="Helvetica,sans-Serif" font-size="10.00" fill="#000000">bench_group_jacobi_var</text>
</a>
</g>
</g>
<!-- Node88&#45;&gt;Node109 -->
<g id="edge21" class="edge">
<title>Node88&#45;&gt;Node109</title>
<path fill="none" stroke="#191970" d="M20.0932,-528.2625C25.1524,-492.3692 45.1465,-362.7616 73.6748,-334.5 75.339,-332.8514 77.1269,-331.3404 79.0132,-329.9558"/>
<polygon fill="#191970" stroke="#191970" points="81.0626,-332.8078 87.835,-324.6601 77.4598,-326.8061 81.0626,-332.8078"/>
</g>
<!-- Node110 -->
<g id="node23" class="node">
<title>Node110</title>
<g id="a_node23"><a xlink:href="bench__internal_8c.html#a3326bba18d9522d84a82ea50974b3811" target="_top" xlink:title="bench_wnaf_const">
<polygon fill="#ffffff" stroke="#000000" points="97.0317,-269.5 97.0317,-287.5 196.4253,-287.5 196.4253,-269.5 97.0317,-269.5"/>
<text text-anchor="middle" x="146.7285" y="-275.5" font-family="Helvetica,sans-Serif" font-size="10.00" fill="#000000">bench_wnaf_const</text>
</a>
</g>
</g>
<!-- Node88&#45;&gt;Node110 -->
<g id="edge22" class="edge">
<title>Node88&#45;&gt;Node110</title>
<path fill="none" stroke="#191970" d="M19.6815,-528.2687C23.5067,-488.4292 40.4832,-331.6962 73.6748,-297.5 77.611,-293.4447 82.2941,-290.2165 87.3608,-287.6518"/>
<polygon fill="#191970" stroke="#191970" points="88.9291,-290.7902 96.8167,-283.7167 86.2395,-284.3275 88.9291,-290.7902"/>
</g>
<!-- Node111 -->
<g id="node24" class="node">
<title>Node111</title>
<g id="a_node24"><a xlink:href="bench__internal_8c.html#ac942d1b5df119c9d41304dfa566ddea5" target="_top" xlink:title="bench_ecmult_wnaf">
<polygon fill="#ffffff" stroke="#000000" points="94.2559,-232.5 94.2559,-250.5 199.2012,-250.5 199.2012,-232.5 94.2559,-232.5"/>
<text text-anchor="middle" x="146.7285" y="-238.5" font-family="Helvetica,sans-Serif" font-size="10.00" fill="#000000">bench_ecmult_wnaf</text>
</a>
</g>
</g>
<!-- Node88&#45;&gt;Node111 -->
<g id="edge23" class="edge">
<title>Node88&#45;&gt;Node111</title>
<path fill="none" stroke="#191970" d="M19.3726,-528.354C22.0914,-485.0118 35.76,-300.7206 73.6748,-260.5 76.8969,-257.082 80.6488,-254.2487 84.7191,-251.9033"/>
<polygon fill="#191970" stroke="#191970" points="86.4973,-254.9347 94.056,-247.5107 83.5174,-248.6007 86.4973,-254.9347"/>
</g>
<!-- Node112 -->
<g id="node25" class="node">
<title>Node112</title>
<g id="a_node25"><a xlink:href="bench__internal_8c.html#ac8924b9ed09efcfbc1fd3c0039188d46" target="_top" xlink:title="bench_sha256">
<polygon fill="#ffffff" stroke="#000000" points="105.9209,-195.5 105.9209,-213.5 187.5361,-213.5 187.5361,-195.5 105.9209,-195.5"/>
<text text-anchor="middle" x="146.7285" y="-201.5" font-family="Helvetica,sans-Serif" font-size="10.00" fill="#000000">bench_sha256</text>
</a>
</g>
</g>
<!-- Node88&#45;&gt;Node112 -->
<g id="edge24" class="edge">
<title>Node88&#45;&gt;Node112</title>
<path fill="none" stroke="#191970" d="M19.1389,-528.4125C20.8692,-481.784 31.0152,-269.7884 73.6748,-223.5 79.6758,-216.9885 87.5984,-212.5907 96.0101,-209.6445"/>
<polygon fill="#191970" stroke="#191970" points="96.9815,-213.0071 105.6387,-206.8995 95.0623,-206.2753 96.9815,-213.0071"/>
</g>
<!-- Node113 -->
<g id="node26" class="node">
<title>Node113</title>
<g id="a_node26"><a xlink:href="bench__internal_8c.html#a85fea17693c6843a3b0c33b693736d15" target="_top" xlink:title="bench_hmac_sha256">
<polygon fill="#ffffff" stroke="#000000" points="90.9136,-158.5 90.9136,-176.5 202.5435,-176.5 202.5435,-158.5 90.9136,-158.5"/>
<text text-anchor="middle" x="146.7285" y="-164.5" font-family="Helvetica,sans-Serif" font-size="10.00" fill="#000000">bench_hmac_sha256</text>
</a>
</g>
</g>
<!-- Node88&#45;&gt;Node113 -->
<g id="edge25" class="edge">
<title>Node88&#45;&gt;Node113</title>
<path fill="none" stroke="#191970" d="M18.9572,-528.3576C19.798,-478.4093 26.2832,-238.8565 73.6748,-186.5 76.0782,-183.8449 78.8009,-181.5401 81.7474,-179.5411"/>
<polygon fill="#191970" stroke="#191970" points="83.4969,-182.5733 90.5645,-174.6804 80.1174,-176.4432 83.4969,-182.5733"/>
</g>
<!-- Node114 -->
<g id="node27" class="node">
<title>Node114</title>
<g id="a_node27"><a xlink:href="bench__internal_8c.html#a6dca5af2be4140aa38f95f36baab0014" target="_top" xlink:title="bench_rfc6979_hmac\l_sha256">
<polygon fill="#ffffff" stroke="#000000" points="90.6401,-111.5 90.6401,-139.5 202.8169,-139.5 202.8169,-111.5 90.6401,-111.5"/>
<text text-anchor="start" x="98.6401" y="-127.5" font-family="Helvetica,sans-Serif" font-size="10.00" fill="#000000">bench_rfc6979_hmac</text>
<text text-anchor="middle" x="146.7285" y="-117.5" font-family="Helvetica,sans-Serif" font-size="10.00" fill="#000000">_sha256</text>
</a>
</g>
</g>
<!-- Node88&#45;&gt;Node114 -->
<g id="edge26" class="edge">
<title>Node88&#45;&gt;Node114</title>
<path fill="none" stroke="#191970" d="M19.5537,-528.3486C23.9944,-472.5672 48.404,-179.6926 73.6748,-149.5 76.0164,-146.7024 78.6905,-144.2285 81.5996,-142.0413"/>
<polygon fill="#191970" stroke="#191970" points="83.6963,-144.8589 90.3386,-136.6048 79.9987,-138.9152 83.6963,-144.8589"/>
</g>
<!-- Node115 -->
<g id="node28" class="node">
<title>Node115</title>
<g id="a_node28"><a xlink:href="bench__internal_8c.html#a0267a6fcf26df5e2625c0f93eed876a9" target="_top" xlink:title="bench_context_verify">
<polygon fill="#ffffff" stroke="#000000" points="91.4775,-37.5 91.4775,-55.5 201.9795,-55.5 201.9795,-37.5 91.4775,-37.5"/>
<text text-anchor="middle" x="146.7285" y="-43.5" font-family="Helvetica,sans-Serif" font-size="10.00" fill="#000000">bench_context_verify</text>
</a>
</g>
</g>
<!-- Node88&#45;&gt;Node115 -->
<g id="edge27" class="edge">
<title>Node88&#45;&gt;Node115</title>
<path fill="none" stroke="#191970" d="M19.2809,-528.4483C22.4132,-466.1186 41.9981,-101.9089 73.6748,-65.5 76.2338,-62.5587 79.1847,-60.0444 82.4017,-57.8976"/>
<polygon fill="#191970" stroke="#191970" points="84.3017,-60.85 91.4528,-53.0324 80.9875,-54.6842 84.3017,-60.85"/>
</g>
<!-- Node118 -->
<g id="node31" class="node">
<title>Node118</title>
<g id="a_node31"><a xlink:href="bench__internal_8c.html#a0d6ae07fc12e8c74ebdcb49871cbfc0e" target="_top" xlink:title="bench_context_sign">
<polygon fill="#ffffff" stroke="#000000" points="94.251,-74.5 94.251,-92.5 199.2061,-92.5 199.2061,-74.5 94.251,-74.5"/>
<text text-anchor="middle" x="146.7285" y="-80.5" font-family="Helvetica,sans-Serif" font-size="10.00" fill="#000000">bench_context_sign</text>
</a>
</g>
</g>
<!-- Node88&#45;&gt;Node118 -->
<g id="edge30" class="edge">
<title>Node88&#45;&gt;Node118</title>
<path fill="none" stroke="#191970" d="M19.3771,-528.4037C22.9897,-468.8324 44.4091,-135.8087 73.6748,-102.5 76.9104,-98.8175 80.7601,-95.8054 84.9755,-93.3466"/>
<polygon fill="#191970" stroke="#191970" points="86.5253,-96.4853 94.0619,-89.0388 83.5266,-90.1601 86.5253,-96.4853"/>
</g>
<!-- Node119 -->
<g id="node32" class="node">
<title>Node119</title>
<g id="a_node32"><a xlink:href="bench__internal_8c.html#aa18e799792fa096f2ce13764bfb4b3ae" target="_top" xlink:title="bench_num_jacobi">
<polygon fill="#ffffff" stroke="#000000" points="96.7534,-.5 96.7534,-18.5 196.7036,-18.5 196.7036,-.5 96.7534,-.5"/>
<text text-anchor="middle" x="146.7285" y="-6.5" font-family="Helvetica,sans-Serif" font-size="10.00" fill="#000000">bench_num_jacobi</text>
</a>
</g>
</g>
<!-- Node88&#45;&gt;Node119 -->
<g id="edge33" class="edge">
<title>Node88&#45;&gt;Node119</title>
<path fill="none" stroke="#191970" d="M19.2059,-528.1444C21.8915,-462.0364 39.3226,-66.8125 73.6748,-27.5 77.4351,-23.1967 82.0438,-19.8386 87.101,-17.2282"/>
<polygon fill="#191970" stroke="#191970" points="88.7017,-20.3537 96.6022,-13.2945 86.0239,-13.8861 88.7017,-20.3537"/>
</g>
<!-- Node116 -->
<g id="node29" class="node">
<title>Node116</title>
<g id="a_node29"><a xlink:href="secp256k1_8h.html#af8569fb9aa73c0acf46afce4df662950" target="_top" xlink:title="Destroy a secp256k1 context object. ">
<polygon fill="#ffffff" stroke="#000000" points="255.7822,-74.5 255.7822,-92.5 396.3086,-92.5 396.3086,-74.5 255.7822,-74.5"/>
<text text-anchor="middle" x="326.0454" y="-80.5" font-family="Helvetica,sans-Serif" font-size="10.00" fill="#000000">secp256k1_context_destroy</text>
</a>
</g>
</g>
<!-- Node115&#45;&gt;Node116 -->
<g id="edge28" class="edge">
<title>Node115&#45;&gt;Node116</title>
<path fill="none" stroke="#191970" d="M190.5944,-55.5512C215.217,-60.6318 246.1383,-67.0121 272.2182,-72.3934"/>
<polygon fill="#191970" stroke="#191970" points="271.821,-75.8851 282.322,-74.4782 273.2356,-69.0295 271.821,-75.8851"/>
</g>
<!-- Node117 -->
<g id="node30" class="node">
<title>Node117</title>
<g id="a_node30"><a xlink:href="secp256k1_8h.html#a769d478f352afbb55200e33970533a3c" target="_top" xlink:title="Create a secp256k1 context object. ">
<polygon fill="#ffffff" stroke="#000000" points="258.2822,-37.5 258.2822,-55.5 393.8086,-55.5 393.8086,-37.5 258.2822,-37.5"/>
<text text-anchor="middle" x="326.0454" y="-43.5" font-family="Helvetica,sans-Serif" font-size="10.00" fill="#000000">secp256k1_context_create</text>
</a>
</g>
</g>
<!-- Node115&#45;&gt;Node117 -->
<g id="edge29" class="edge">
<title>Node115&#45;&gt;Node117</title>
<path fill="none" stroke="#191970" d="M201.9927,-46.5C216.512,-46.5 232.4497,-46.5 247.9214,-46.5"/>
<polygon fill="#191970" stroke="#191970" points="248.0017,-50.0001 258.0017,-46.5 248.0017,-43.0001 248.0017,-50.0001"/>
</g>
<!-- Node118&#45;&gt;Node116 -->
<g id="edge31" class="edge">
<title>Node118&#45;&gt;Node116</title>
<path fill="none" stroke="#191970" d="M199.5596,-83.5C213.9664,-83.5 229.9085,-83.5 245.481,-83.5"/>
<polygon fill="#191970" stroke="#191970" points="245.6411,-87.0001 255.6411,-83.5 245.641,-80.0001 245.6411,-87.0001"/>
</g>
<!-- Node118&#45;&gt;Node117 -->
<g id="edge32" class="edge">
<title>Node118&#45;&gt;Node117</title>
<path fill="none" stroke="#191970" d="M190.5944,-74.4488C215.217,-69.3682 246.1383,-62.9879 272.2182,-57.6066"/>
<polygon fill="#191970" stroke="#191970" points="273.2356,-60.9705 282.322,-55.5218 271.821,-54.1149 273.2356,-60.9705"/>
</g>
</g>
</svg>
