<?xml version="1.0" encoding="UTF-8" standalone="no"?>
<!DOCTYPE svg PUBLIC "-//W3C//DTD SVG 1.1//EN"
 "http://www.w3.org/Graphics/SVG/1.1/DTD/svg11.dtd">
<!-- Generated by graphviz version 2.40.1 (20161225.0304)
 -->
<!-- Title: bswap_16 Pages: 1 -->
<svg width="445pt" height="64pt"
 viewBox="0.00 0.00 444.62 64.00" xmlns="http://www.w3.org/2000/svg" xmlns:xlink="http://www.w3.org/1999/xlink">
<g id="graph0" class="graph" transform="scale(1 1) rotate(0) translate(4 60)">
<title>bswap_16</title>
<polygon fill="#ffffff" stroke="transparent" points="-4,4 -4,-60 440.624,-60 440.624,4 -4,4"/>
<!-- Node1 -->
<g id="node1" class="node">
<title>Node1</title>
<polygon fill="#bfbfbf" stroke="#000000" points="0,-18.5 0,-36.5 61.5908,-36.5 61.5908,-18.5 0,-18.5"/>
<text text-anchor="middle" x="30.7954" y="-24.5" font-family="Helvetica,sans-Serif" font-size="10.00" fill="#000000">bswap_16</text>
</g>
<!-- Node2 -->
<g id="node2" class="node">
<title>Node2</title>
<g id="a_node2"><a xlink:href="endian_8h.html#a2a7867e242f08a0b90f7e143b3084c8c" target="_top" xlink:title="htobe16">
<polygon fill="#ffffff" stroke="#000000" points="97.5908,-37.5 97.5908,-55.5 149.7383,-55.5 149.7383,-37.5 97.5908,-37.5"/>
<text text-anchor="middle" x="123.6646" y="-43.5" font-family="Helvetica,sans-Serif" font-size="10.00" fill="#000000">htobe16</text>
</a>
</g>
</g>
<!-- Node1&#45;&gt;Node2 -->
<g id="edge1" class="edge">
<title>Node1&#45;&gt;Node2</title>
<path fill="none" stroke="#191970" d="M71.7851,-35.886C80.5261,-37.6743 89.528,-39.516 97.5288,-41.1529"/>
<polygon fill="#191970" stroke="#191970" points="72.2181,-32.4022 61.7195,-33.8267 70.815,-39.2601 72.2181,-32.4022"/>
</g>
<!-- Node5 -->
<g id="node5" class="node">
<title>Node5</title>
<g id="a_node5"><a xlink:href="endian_8h.html#a14a66ea10b9e007a9ef51822f940a9d0" target="_top" xlink:title="be16toh">
<polygon fill="#ffffff" stroke="#000000" points="97.5908,-.5 97.5908,-18.5 149.7383,-18.5 149.7383,-.5 97.5908,-.5"/>
<text text-anchor="middle" x="123.6646" y="-6.5" font-family="Helvetica,sans-Serif" font-size="10.00" fill="#000000">be16toh</text>
</a>
</g>
</g>
<!-- Node1&#45;&gt;Node5 -->
<g id="edge4" class="edge">
<title>Node1&#45;&gt;Node5</title>
<path fill="none" stroke="#191970" d="M71.7851,-19.5553C80.5261,-17.8612 89.528,-16.1164 97.5288,-14.5657"/>
<polygon fill="#191970" stroke="#191970" points="70.8708,-16.1673 61.7195,-21.5063 72.2028,-23.0394 70.8708,-16.1673"/>
</g>
<!-- Node3 -->
<g id="node3" class="node">
<title>Node3</title>
<g id="a_node3"><a xlink:href="serialize_8h.html#a974cae187a5ec05d525c2a381648afed" target="_top" xlink:title="ser_writedata16be">
<polygon fill="#ffffff" stroke="#000000" points="185.7383,-37.5 185.7383,-55.5 284.0137,-55.5 284.0137,-37.5 185.7383,-37.5"/>
<text text-anchor="middle" x="234.876" y="-43.5" font-family="Helvetica,sans-Serif" font-size="10.00" fill="#000000">ser_writedata16be</text>
</a>
</g>
</g>
<!-- Node2&#45;&gt;Node3 -->
<g id="edge2" class="edge">
<title>Node2&#45;&gt;Node3</title>
<path fill="none" stroke="#191970" d="M159.9789,-46.5C168.0953,-46.5 176.8376,-46.5 185.3848,-46.5"/>
<polygon fill="#191970" stroke="#191970" points="159.7387,-43.0001 149.7387,-46.5 159.7387,-50.0001 159.7387,-43.0001"/>
</g>
<!-- Node4 -->
<g id="node4" class="node">
<title>Node4</title>
<g id="a_node4"><a xlink:href="class_big_endian.html#a95cd301a8a1855307dea6b77d38c18e4" target="_top" xlink:title="BigEndian::Serialize">
<polygon fill="#ffffff" stroke="#000000" points="325.5703,-37.5 325.5703,-55.5 431.0674,-55.5 431.0674,-37.5 325.5703,-37.5"/>
<text text-anchor="middle" x="378.3188" y="-43.5" font-family="Helvetica,sans-Serif" font-size="10.00" fill="#000000">BigEndian::Serialize</text>
</a>
</g>
</g>
<!-- Node3&#45;&gt;Node4 -->
<g id="edge3" class="edge">
<title>Node3&#45;&gt;Node4</title>
<path fill="none" stroke="#191970" d="M294.3896,-46.5C304.6863,-46.5 315.3289,-46.5 325.4344,-46.5"/>
<polygon fill="#191970" stroke="#191970" points="294.2409,-43.0001 284.2409,-46.5 294.2408,-50.0001 294.2409,-43.0001"/>
</g>
<!-- Node6 -->
<g id="node6" class="node">
<title>Node6</title>
<g id="a_node6"><a xlink:href="serialize_8h.html#acda7470e5f016501d0f6ec0d324806ab" target="_top" xlink:title="ser_readdata16be">
<polygon fill="#ffffff" stroke="#000000" points="186.2876,-.5 186.2876,-18.5 283.4644,-18.5 283.4644,-.5 186.2876,-.5"/>
<text text-anchor="middle" x="234.876" y="-6.5" font-family="Helvetica,sans-Serif" font-size="10.00" fill="#000000">ser_readdata16be</text>
</a>
</g>
</g>
<!-- Node5&#45;&gt;Node6 -->
<g id="edge5" class="edge">
<title>Node5&#45;&gt;Node6</title>
<path fill="none" stroke="#191970" d="M159.9558,-9.5C168.3599,-9.5 177.4362,-9.5 186.2727,-9.5"/>
<polygon fill="#191970" stroke="#191970" points="159.7387,-6.0001 149.7387,-9.5 159.7387,-13.0001 159.7387,-6.0001"/>
</g>
<!-- Node7 -->
<g id="node7" class="node">
<title>Node7</title>
<g id="a_node7"><a xlink:href="class_big_endian.html#aef3beb50209e95401f114947a83c650c" target="_top" xlink:title="BigEndian::Unserialize">
<polygon fill="#ffffff" stroke="#000000" points="320.0137,-.5 320.0137,-18.5 436.624,-18.5 436.624,-.5 320.0137,-.5"/>
<text text-anchor="middle" x="378.3188" y="-6.5" font-family="Helvetica,sans-Serif" font-size="10.00" fill="#000000">BigEndian::Unserialize</text>
</a>
</g>
</g>
<!-- Node6&#45;&gt;Node7 -->
<g id="edge6" class="edge">
<title>Node6&#45;&gt;Node7</title>
<path fill="none" stroke="#191970" d="M294.0928,-9.5C302.6252,-9.5 311.4014,-9.5 319.9178,-9.5"/>
<polygon fill="#191970" stroke="#191970" points="293.8397,-6.0001 283.8397,-9.5 293.8396,-13.0001 293.8397,-6.0001"/>
</g>
</g>
</svg>
