<?xml version="1.0" encoding="UTF-8" standalone="no"?>
<!DOCTYPE svg PUBLIC "-//W3C//DTD SVG 1.1//EN"
 "http://www.w3.org/Graphics/SVG/1.1/DTD/svg11.dtd">
<!-- Generated by graphviz version 2.40.1 (20161225.0304)
 -->
<!-- Title: CCryptoKeyStore::EncryptKeys Pages: 1 -->
<svg width="496pt" height="138pt"
 viewBox="0.00 0.00 495.95 138.00" xmlns="http://www.w3.org/2000/svg" xmlns:xlink="http://www.w3.org/1999/xlink">
<g id="graph0" class="graph" transform="scale(1 1) rotate(0) translate(4 134)">
<title>CCryptoKeyStore::EncryptKeys</title>
<polygon fill="#ffffff" stroke="transparent" points="-4,4 -4,-134 491.9541,-134 491.9541,4 -4,4"/>
<!-- Node72 -->
<g id="node1" class="node">
<title>Node72</title>
<polygon fill="#bfbfbf" stroke="#000000" points="0,-55.5 0,-73.5 155.4971,-73.5 155.4971,-55.5 0,-55.5"/>
<text text-anchor="middle" x="77.7485" y="-61.5" font-family="Helvetica,sans-Serif" font-size="10.00" fill="#000000">CCryptoKeyStore::EncryptKeys</text>
</g>
<!-- Node73 -->
<g id="node2" class="node">
<title>Node73</title>
<g id="a_node2"><a xlink:href="class_c_crypto_key_store.html#acc8fed44366c98fb481333ca6e867088" target="_top" xlink:title="CCryptoKeyStore::IsCrypted">
<polygon fill="#ffffff" stroke="#000000" points="191.4971,-111.5 191.4971,-129.5 333.6543,-129.5 333.6543,-111.5 191.4971,-111.5"/>
<text text-anchor="middle" x="262.5757" y="-117.5" font-family="Helvetica,sans-Serif" font-size="10.00" fill="#000000">CCryptoKeyStore::IsCrypted</text>
</a>
</g>
</g>
<!-- Node72&#45;&gt;Node73 -->
<g id="edge1" class="edge">
<title>Node72&#45;&gt;Node73</title>
<path fill="none" stroke="#191970" d="M103.3268,-73.6515C126.2685,-81.7141 160.9282,-93.5368 191.4971,-102.5 199.0553,-104.7162 207.1122,-106.9126 214.9852,-108.9693"/>
<polygon fill="#191970" stroke="#191970" points="214.2516,-112.3944 224.8078,-111.4908 215.9921,-105.6143 214.2516,-112.3944"/>
</g>
<!-- Node74 -->
<g id="node3" class="node">
<title>Node74</title>
<g id="a_node3"><a xlink:href="class_c_key.html#aa1085c59603a62db6ec776300f250337" target="_top" xlink:title="Compute the public key from a private key. ">
<polygon fill="#ffffff" stroke="#000000" points="213.9995,-74.5 213.9995,-92.5 311.1519,-92.5 311.1519,-74.5 213.9995,-74.5"/>
<text text-anchor="middle" x="262.5757" y="-80.5" font-family="Helvetica,sans-Serif" font-size="10.00" fill="#000000">CKey::GetPubKey</text>
</a>
</g>
</g>
<!-- Node72&#45;&gt;Node74 -->
<g id="edge2" class="edge">
<title>Node72&#45;&gt;Node74</title>
<path fill="none" stroke="#191970" d="M155.5962,-72.5026C171.6278,-74.1507 188.2594,-75.8604 203.4951,-77.4266"/>
<polygon fill="#191970" stroke="#191970" points="203.4899,-80.9444 213.7954,-78.4855 204.2058,-73.9811 203.4899,-80.9444"/>
</g>
<!-- Node76 -->
<g id="node5" class="node">
<title>Node76</title>
<g id="a_node5"><a xlink:href="class_c_key.html#ab8dee0ad9d933304a22284ee40040847" target="_top" xlink:title="CKey::begin">
<polygon fill="#ffffff" stroke="#000000" points="227.3369,-37.5 227.3369,-55.5 297.8145,-55.5 297.8145,-37.5 227.3369,-37.5"/>
<text text-anchor="middle" x="262.5757" y="-43.5" font-family="Helvetica,sans-Serif" font-size="10.00" fill="#000000">CKey::begin</text>
</a>
</g>
</g>
<!-- Node72&#45;&gt;Node76 -->
<g id="edge4" class="edge">
<title>Node72&#45;&gt;Node76</title>
<path fill="none" stroke="#191970" d="M155.5962,-56.9185C176.4759,-54.8851 198.3731,-52.7526 216.8791,-50.9503"/>
<polygon fill="#191970" stroke="#191970" points="217.452,-54.4112 227.0656,-49.9583 216.7734,-47.4441 217.452,-54.4112"/>
</g>
<!-- Node77 -->
<g id="node6" class="node">
<title>Node77</title>
<g id="a_node6"><a xlink:href="class_c_key.html#a41c700c4a732672e4b7cc60d811dbf41" target="_top" xlink:title="CKey::end">
<polygon fill="#ffffff" stroke="#000000" points="231.2285,-.5 231.2285,-18.5 293.9229,-18.5 293.9229,-.5 231.2285,-.5"/>
<text text-anchor="middle" x="262.5757" y="-6.5" font-family="Helvetica,sans-Serif" font-size="10.00" fill="#000000">CKey::end</text>
</a>
</g>
</g>
<!-- Node72&#45;&gt;Node77 -->
<g id="edge5" class="edge">
<title>Node72&#45;&gt;Node77</title>
<path fill="none" stroke="#191970" d="M105.2242,-55.42C128.1965,-47.9208 161.8691,-37.1435 191.4971,-28.5 201.0529,-25.7122 211.3776,-22.861 221.1175,-20.2434"/>
<polygon fill="#191970" stroke="#191970" points="222.2362,-23.5675 230.999,-17.6125 220.4351,-16.8032 222.2362,-23.5675"/>
</g>
<!-- Node75 -->
<g id="node4" class="node">
<title>Node75</title>
<g id="a_node4"><a xlink:href="secp256k1_8h.html#a7438071aa8a6dc4697abe4f4659f2161" target="_top" xlink:title="Compute the public key for a secret key. ">
<polygon fill="#ffffff" stroke="#000000" points="369.6543,-69.5 369.6543,-97.5 487.9541,-97.5 487.9541,-69.5 369.6543,-69.5"/>
<text text-anchor="start" x="377.6543" y="-85.5" font-family="Helvetica,sans-Serif" font-size="10.00" fill="#000000">secp256k1_ec_pubkey</text>
<text text-anchor="middle" x="428.8042" y="-75.5" font-family="Helvetica,sans-Serif" font-size="10.00" fill="#000000">_create</text>
</a>
</g>
</g>
<!-- Node74&#45;&gt;Node75 -->
<g id="edge3" class="edge">
<title>Node74&#45;&gt;Node75</title>
<path fill="none" stroke="#191970" d="M311.5506,-83.5C326.477,-83.5 343.1814,-83.5 359.1981,-83.5"/>
<polygon fill="#191970" stroke="#191970" points="359.5985,-87.0001 369.5984,-83.5 359.5984,-80.0001 359.5985,-87.0001"/>
</g>
<!-- Node78 -->
<g id="node7" class="node">
<title>Node78</title>
<g id="a_node7"><a xlink:href="class_c_key.html#a468a9a8cd148ab4a43e7d76bbdc78abe" target="_top" xlink:title="Simple read&#45;only vector&#45;like interface. ">
<polygon fill="#ffffff" stroke="#000000" points="396.9077,-.5 396.9077,-18.5 460.7007,-18.5 460.7007,-.5 396.9077,-.5"/>
<text text-anchor="middle" x="428.8042" y="-6.5" font-family="Helvetica,sans-Serif" font-size="10.00" fill="#000000">CKey::size</text>
</a>
</g>
</g>
<!-- Node77&#45;&gt;Node78 -->
<g id="edge6" class="edge">
<title>Node77&#45;&gt;Node78</title>
<path fill="none" stroke="#191970" d="M294.2333,-9.5C320.4087,-9.5 357.8099,-9.5 386.5419,-9.5"/>
<polygon fill="#191970" stroke="#191970" points="386.6983,-13.0001 396.6983,-9.5 386.6982,-6.0001 386.6983,-13.0001"/>
</g>
</g>
</svg>
