<?xml version="1.0" encoding="UTF-8" standalone="no"?>
<!DOCTYPE svg PUBLIC "-//W3C//DTD SVG 1.1//EN"
 "http://www.w3.org/Graphics/SVG/1.1/DTD/svg11.dtd">
<!-- Generated by graphviz version 2.40.1 (20161225.0304)
 -->
<!-- Title: prevector::insert Pages: 1 -->
<svg width="554pt" height="263pt"
 viewBox="0.00 0.00 554.06 263.00" xmlns="http://www.w3.org/2000/svg" xmlns:xlink="http://www.w3.org/1999/xlink">
<g id="graph0" class="graph" transform="scale(1 1) rotate(0) translate(4 259)">
<title>prevector::insert</title>
<polygon fill="#ffffff" stroke="transparent" points="-4,4 -4,-259 550.0625,-259 550.0625,4 -4,4"/>
<!-- Node895 -->
<g id="node1" class="node">
<title>Node895</title>
<polygon fill="#bfbfbf" stroke="#000000" points="0,-112.5 0,-130.5 87.6943,-130.5 87.6943,-112.5 0,-112.5"/>
<text text-anchor="middle" x="43.8472" y="-118.5" font-family="Helvetica,sans-Serif" font-size="10.00" fill="#000000">prevector::insert</text>
</g>
<!-- Node896 -->
<g id="node2" class="node">
<title>Node896</title>
<g id="a_node2"><a xlink:href="classprevector.html#aa9210cbe708412a70868d6e0bca844c9" target="_top" xlink:title="prevector::begin">
<polygon fill="#ffffff" stroke="#000000" points="148.9873,-94.5 148.9873,-112.5 236.6963,-112.5 236.6963,-94.5 148.9873,-94.5"/>
<text text-anchor="middle" x="192.8418" y="-100.5" font-family="Helvetica,sans-Serif" font-size="10.00" fill="#000000">prevector::begin</text>
</a>
</g>
</g>
<!-- Node895&#45;&gt;Node896 -->
<g id="edge1" class="edge">
<title>Node895&#45;&gt;Node896</title>
<path fill="none" stroke="#191970" d="M87.7446,-116.1968C103.6678,-114.2731 121.8485,-112.0767 138.5606,-110.0577"/>
<polygon fill="#191970" stroke="#191970" points="139.2352,-113.5017 148.7432,-108.8275 138.3956,-106.5523 139.2352,-113.5017"/>
</g>
<!-- Node897 -->
<g id="node3" class="node">
<title>Node897</title>
<g id="a_node3"><a xlink:href="classprevector.html#a59f1d7bcbc751cfa0faddd7ffa184846" target="_top" xlink:title="prevector::item_ptr">
<polygon fill="#ffffff" stroke="#000000" points="297.9893,-56.5 297.9893,-74.5 397.3535,-74.5 397.3535,-56.5 297.9893,-56.5"/>
<text text-anchor="middle" x="347.6714" y="-62.5" font-family="Helvetica,sans-Serif" font-size="10.00" fill="#000000">prevector::item_ptr</text>
</a>
</g>
</g>
<!-- Node895&#45;&gt;Node897 -->
<g id="edge17" class="edge">
<title>Node895&#45;&gt;Node897</title>
<path fill="none" stroke="#191970" d="M59.1431,-112.437C74.7828,-103.6537 100.0661,-90.7674 123.6943,-84.5 178.0497,-70.0823 242.1799,-65.8757 287.8578,-64.953"/>
<polygon fill="#191970" stroke="#191970" points="287.9485,-68.4521 297.8929,-64.797 287.8396,-61.4529 287.9485,-68.4521"/>
</g>
<!-- Node901 -->
<g id="node7" class="node">
<title>Node901</title>
<g id="a_node7"><a xlink:href="classprevector.html#a626f7d206dbc24e5610631809762758b" target="_top" xlink:title="prevector::size">
<polygon fill="#ffffff" stroke="#000000" points="307.1592,-208.5 307.1592,-226.5 388.1836,-226.5 388.1836,-208.5 307.1592,-208.5"/>
<text text-anchor="middle" x="347.6714" y="-214.5" font-family="Helvetica,sans-Serif" font-size="10.00" fill="#000000">prevector::size</text>
</a>
</g>
</g>
<!-- Node895&#45;&gt;Node901 -->
<g id="edge6" class="edge">
<title>Node895&#45;&gt;Node901</title>
<path fill="none" stroke="#191970" d="M61.2313,-130.6432C77.1596,-138.7563 101.5581,-150.5261 123.6943,-158.5 181.9035,-179.468 251.0503,-196.5442 296.9599,-206.8323"/>
<polygon fill="#191970" stroke="#191970" points="296.4425,-210.3025 306.9629,-209.0489 297.9569,-203.4682 296.4425,-210.3025"/>
</g>
<!-- Node902 -->
<g id="node8" class="node">
<title>Node902</title>
<g id="a_node8"><a xlink:href="classprevector.html#a833f4c9e5c4804fb8ac57b708657af24" target="_top" xlink:title="prevector::capacity">
<polygon fill="#ffffff" stroke="#000000" points="142.8789,-236.5 142.8789,-254.5 242.8047,-254.5 242.8047,-236.5 142.8789,-236.5"/>
<text text-anchor="middle" x="192.8418" y="-242.5" font-family="Helvetica,sans-Serif" font-size="10.00" fill="#000000">prevector::capacity</text>
</a>
</g>
</g>
<!-- Node895&#45;&gt;Node902 -->
<g id="edge8" class="edge">
<title>Node895&#45;&gt;Node902</title>
<path fill="none" stroke="#191970" d="M50.148,-130.7303C62.528,-148.3217 91.6268,-187.0692 123.6943,-211.5 134.5258,-219.752 147.6758,-226.8171 159.5881,-232.3345"/>
<polygon fill="#191970" stroke="#191970" points="158.2477,-235.5688 168.8083,-236.4207 161.084,-229.1691 158.2477,-235.5688"/>
</g>
<!-- Node903 -->
<g id="node9" class="node">
<title>Node903</title>
<g id="a_node9"><a xlink:href="classprevector.html#a0e673654d3b7d8d6f79534e17f68741a" target="_top" xlink:title="prevector::change_capacity">
<polygon fill="#ffffff" stroke="#000000" points="123.6943,-131.5 123.6943,-149.5 261.9893,-149.5 261.9893,-131.5 123.6943,-131.5"/>
<text text-anchor="middle" x="192.8418" y="-137.5" font-family="Helvetica,sans-Serif" font-size="10.00" fill="#000000">prevector::change_capacity</text>
</a>
</g>
</g>
<!-- Node895&#45;&gt;Node903 -->
<g id="edge10" class="edge">
<title>Node895&#45;&gt;Node903</title>
<path fill="none" stroke="#191970" d="M87.7446,-127.0979C95.9148,-128.1397 104.6792,-129.2574 113.5347,-130.3867"/>
<polygon fill="#191970" stroke="#191970" points="113.1823,-133.87 123.5447,-131.6631 114.0678,-126.9262 113.1823,-133.87"/>
</g>
<!-- Node905 -->
<g id="node11" class="node">
<title>Node905</title>
<g id="a_node11"><a xlink:href="glibc__compat_8cpp.html#a9778d49e9029dd75bc53ecbbf9f5e9a1" target="_top" xlink:title="memmove">
<polygon fill="#ffffff" stroke="#000000" points="458.3706,-.5 458.3706,-18.5 521.0454,-18.5 521.0454,-.5 458.3706,-.5"/>
<text text-anchor="middle" x="489.708" y="-6.5" font-family="Helvetica,sans-Serif" font-size="10.00" fill="#000000">memmove</text>
</a>
</g>
</g>
<!-- Node895&#45;&gt;Node905 -->
<g id="edge18" class="edge">
<title>Node895&#45;&gt;Node905</title>
<path fill="none" stroke="#191970" d="M53.9335,-112.2435C68.3873,-99.4208 96.2823,-76.2792 123.6943,-62.5 196.0357,-26.1361 217.903,-21.4072 297.9893,-9.5 349.1479,-1.8937 408.8378,-3.5214 447.8531,-5.9756"/>
<polygon fill="#191970" stroke="#191970" points="448.0711,-9.4983 458.2849,-6.6827 448.5446,-2.5143 448.0711,-9.4983"/>
</g>
<!-- Node896&#45;&gt;Node897 -->
<g id="edge2" class="edge">
<title>Node896&#45;&gt;Node897</title>
<path fill="none" stroke="#191970" d="M229.5342,-94.4945C250.9559,-89.237 278.1931,-82.5521 301.1147,-76.9265"/>
<polygon fill="#191970" stroke="#191970" points="302.0968,-80.2894 310.9743,-74.5066 300.4283,-73.4911 302.0968,-80.2894"/>
</g>
<!-- Node898 -->
<g id="node4" class="node">
<title>Node898</title>
<g id="a_node4"><a xlink:href="classprevector.html#a933e204a7e29c6bbc85479d023c00ff8" target="_top" xlink:title="prevector::is_direct">
<polygon fill="#ffffff" stroke="#000000" points="439.4692,-189.5 439.4692,-207.5 539.9468,-207.5 539.9468,-189.5 439.4692,-189.5"/>
<text text-anchor="middle" x="489.708" y="-195.5" font-family="Helvetica,sans-Serif" font-size="10.00" fill="#000000">prevector::is_direct</text>
</a>
</g>
</g>
<!-- Node897&#45;&gt;Node898 -->
<g id="edge3" class="edge">
<title>Node897&#45;&gt;Node898</title>
<path fill="none" stroke="#191970" d="M357.4341,-74.6416C381.1521,-96.8506 442.068,-153.891 472.2389,-182.1423"/>
<polygon fill="#191970" stroke="#191970" points="470.1852,-185.0141 479.8769,-189.2944 474.9697,-179.9045 470.1852,-185.0141"/>
</g>
<!-- Node899 -->
<g id="node5" class="node">
<title>Node899</title>
<g id="a_node5"><a xlink:href="classprevector.html#a20150a43dd87c33f0e855a55bd3418e8" target="_top" xlink:title="prevector::direct_ptr">
<polygon fill="#ffffff" stroke="#000000" points="437.2451,-113.5 437.2451,-131.5 542.1709,-131.5 542.1709,-113.5 437.2451,-113.5"/>
<text text-anchor="middle" x="489.708" y="-119.5" font-family="Helvetica,sans-Serif" font-size="10.00" fill="#000000">prevector::direct_ptr</text>
</a>
</g>
</g>
<!-- Node897&#45;&gt;Node899 -->
<g id="edge4" class="edge">
<title>Node897&#45;&gt;Node899</title>
<path fill="none" stroke="#191970" d="M370.1775,-74.5318C393.7253,-83.9816 430.9033,-98.9014 457.5436,-109.5922"/>
<polygon fill="#191970" stroke="#191970" points="456.2527,-112.8455 466.8368,-113.3217 458.8598,-106.3491 456.2527,-112.8455"/>
</g>
<!-- Node900 -->
<g id="node6" class="node">
<title>Node900</title>
<g id="a_node6"><a xlink:href="classprevector.html#ae3343cc65be9fd678b4a6f8305624de6" target="_top" xlink:title="prevector::indirect_ptr">
<polygon fill="#ffffff" stroke="#000000" points="433.3535,-66.5 433.3535,-84.5 546.0625,-84.5 546.0625,-66.5 433.3535,-66.5"/>
<text text-anchor="middle" x="489.708" y="-72.5" font-family="Helvetica,sans-Serif" font-size="10.00" fill="#000000">prevector::indirect_ptr</text>
</a>
</g>
</g>
<!-- Node897&#45;&gt;Node900 -->
<g id="edge5" class="edge">
<title>Node897&#45;&gt;Node900</title>
<path fill="none" stroke="#191970" d="M397.7482,-69.0256C406.0147,-69.6076 414.6969,-70.2189 423.289,-70.8238"/>
<polygon fill="#191970" stroke="#191970" points="423.0824,-74.3178 433.3036,-71.5289 423.5741,-67.3351 423.0824,-74.3178"/>
</g>
<!-- Node901&#45;&gt;Node898 -->
<g id="edge7" class="edge">
<title>Node901&#45;&gt;Node898</title>
<path fill="none" stroke="#191970" d="M388.3734,-212.0554C401.1706,-210.3435 415.5845,-208.4154 429.4397,-206.562"/>
<polygon fill="#191970" stroke="#191970" points="429.9509,-210.0249 439.3985,-205.2298 429.0227,-203.0867 429.9509,-210.0249"/>
</g>
<!-- Node902&#45;&gt;Node898 -->
<g id="edge9" class="edge">
<title>Node902&#45;&gt;Node898</title>
<path fill="none" stroke="#191970" d="M243.0577,-248.0771C284.8462,-249.0865 345.6429,-247.9095 397.3535,-236.5 420.4957,-231.3939 445.2541,-220.9071 463.3053,-212.2412"/>
<polygon fill="#191970" stroke="#191970" points="465.1715,-215.2234 472.5908,-207.6599 462.0743,-208.9458 465.1715,-215.2234"/>
</g>
<!-- Node903&#45;&gt;Node898 -->
<g id="edge11" class="edge">
<title>Node903&#45;&gt;Node898</title>
<path fill="none" stroke="#191970" d="M239.2271,-149.5625C291.5769,-159.7903 376.7495,-176.4308 433.0061,-187.4219"/>
<polygon fill="#191970" stroke="#191970" points="432.6739,-190.9231 443.1595,-189.4056 434.0162,-184.053 432.6739,-190.9231"/>
</g>
<!-- Node903&#45;&gt;Node899 -->
<g id="edge13" class="edge">
<title>Node903&#45;&gt;Node899</title>
<path fill="none" stroke="#191970" d="M262.0691,-136.3025C311.9747,-133.2766 378.7738,-129.2263 427.0923,-126.2966"/>
<polygon fill="#191970" stroke="#191970" points="427.34,-129.7881 437.1098,-125.6892 426.9162,-122.8009 427.34,-129.7881"/>
</g>
<!-- Node903&#45;&gt;Node900 -->
<g id="edge12" class="edge">
<title>Node903&#45;&gt;Node900</title>
<path fill="none" stroke="#191970" d="M234.1198,-131.462C287.4741,-119.7799 380.38,-99.4378 438.2705,-86.7624"/>
<polygon fill="#191970" stroke="#191970" points="439.2832,-90.1237 448.3032,-84.5658 437.7859,-83.2857 439.2832,-90.1237"/>
</g>
<!-- Node903&#45;&gt;Node901 -->
<g id="edge16" class="edge">
<title>Node903&#45;&gt;Node901</title>
<path fill="none" stroke="#191970" d="M210.6564,-149.5945C231.5329,-160.2254 267.1919,-178.3009 297.9893,-193.5 304.9578,-196.9391 312.499,-200.6087 319.55,-204.0173"/>
<polygon fill="#191970" stroke="#191970" points="318.2336,-207.2681 328.7615,-208.4575 321.2732,-200.9624 318.2336,-207.2681"/>
</g>
<!-- Node904 -->
<g id="node10" class="node">
<title>Node904</title>
<g id="a_node10"><a xlink:href="glibc__compat_8cpp.html#a0f46826ab0466591e136db24394923cf" target="_top" xlink:title="memcpy">
<polygon fill="#ffffff" stroke="#000000" points="320.7798,-19.5 320.7798,-37.5 374.563,-37.5 374.563,-19.5 320.7798,-19.5"/>
<text text-anchor="middle" x="347.6714" y="-25.5" font-family="Helvetica,sans-Serif" font-size="10.00" fill="#000000">memcpy</text>
</a>
</g>
</g>
<!-- Node903&#45;&gt;Node904 -->
<g id="edge14" class="edge">
<title>Node903&#45;&gt;Node904</title>
<path fill="none" stroke="#191970" d="M245.1226,-131.4379C251.2164,-128.8969 257.02,-125.6493 261.9893,-121.5 290.3707,-97.8017 270.5712,-71.3065 297.9893,-46.5 301.8446,-43.0119 306.4277,-40.186 311.2275,-37.9001"/>
<polygon fill="#191970" stroke="#191970" points="312.6165,-41.114 320.5903,-34.1376 310.0064,-34.6188 312.6165,-41.114"/>
</g>
<!-- Node904&#45;&gt;Node905 -->
<g id="edge15" class="edge">
<title>Node904&#45;&gt;Node905</title>
<path fill="none" stroke="#191970" d="M374.7217,-24.8815C395.4754,-22.1053 424.4881,-18.2244 448.1778,-15.0554"/>
<polygon fill="#191970" stroke="#191970" points="448.8535,-18.4963 458.3011,-13.7012 447.9253,-11.5581 448.8535,-18.4963"/>
</g>
</g>
</svg>
