<?xml version="1.0" encoding="UTF-8" standalone="no"?>
<!DOCTYPE svg PUBLIC "-//W3C//DTD SVG 1.1//EN"
 "http://www.w3.org/Graphics/SVG/1.1/DTD/svg11.dtd">
<!-- Generated by graphviz version 2.40.1 (20161225.0304)
 -->
<!-- Title: CSHA3512::Reset Pages: 1 -->
<svg width="368pt" height="27pt"
 viewBox="0.00 0.00 368.12 27.00" xmlns="http://www.w3.org/2000/svg" xmlns:xlink="http://www.w3.org/1999/xlink">
<g id="graph0" class="graph" transform="scale(1 1) rotate(0) translate(4 23)">
<title>CSHA3512::Reset</title>
<polygon fill="#ffffff" stroke="transparent" points="-4,4 -4,-23 364.1221,-23 364.1221,4 -4,4"/>
<!-- Node27 -->
<g id="node1" class="node">
<title>Node27</title>
<polygon fill="#bfbfbf" stroke="#000000" points="0,-.5 0,-18.5 97.709,-18.5 97.709,-.5 0,-.5"/>
<text text-anchor="middle" x="48.8545" y="-6.5" font-family="Helvetica,sans-Serif" font-size="10.00" fill="#000000">CSHA3512::Reset</text>
</g>
<!-- Node28 -->
<g id="node2" class="node">
<title>Node28</title>
<g id="a_node2"><a xlink:href="class_s_h_a3__512.html#a435746d5a8b012f7c65050337cc4a23f" target="_top" xlink:title="Resets the hash ready for a new hashing process. ">
<polygon fill="#ffffff" stroke="#000000" points="133.709,-.5 133.709,-18.5 225.8662,-18.5 225.8662,-.5 133.709,-.5"/>
<text text-anchor="middle" x="179.7876" y="-6.5" font-family="Helvetica,sans-Serif" font-size="10.00" fill="#000000">SHA3_512::reset</text>
</a>
</g>
</g>
<!-- Node27&#45;&gt;Node28 -->
<g id="edge1" class="edge">
<title>Node27&#45;&gt;Node28</title>
<path fill="none" stroke="#191970" d="M97.9817,-9.5C106.2358,-9.5 114.8602,-9.5 123.2829,-9.5"/>
<polygon fill="#191970" stroke="#191970" points="123.4182,-13.0001 133.4182,-9.5 123.4181,-6.0001 123.4182,-13.0001"/>
</g>
<!-- Node29 -->
<g id="node3" class="node">
<title>Node29</title>
<g id="a_node3"><a xlink:href="class_keccak_core.html#a5a322eb7e3b5c1eaad127c9c6e6a529b" target="_top" xlink:title="Resets the Keccak sponge function ready for a new session. ">
<polygon fill="#ffffff" stroke="#000000" points="261.8662,-.5 261.8662,-18.5 360.1221,-18.5 360.1221,-.5 261.8662,-.5"/>
<text text-anchor="middle" x="310.9941" y="-6.5" font-family="Helvetica,sans-Serif" font-size="10.00" fill="#000000">KeccakCore::reset</text>
</a>
</g>
</g>
<!-- Node28&#45;&gt;Node29 -->
<g id="edge2" class="edge">
<title>Node28&#45;&gt;Node29</title>
<path fill="none" stroke="#191970" d="M226.0461,-9.5C234.2287,-9.5 242.8523,-9.5 251.3419,-9.5"/>
<polygon fill="#191970" stroke="#191970" points="251.5922,-13.0001 261.5921,-9.5 251.5921,-6.0001 251.5922,-13.0001"/>
</g>
</g>
</svg>
