<?xml version="1.0" encoding="UTF-8" standalone="no"?>
<!DOCTYPE svg PUBLIC "-//W3C//DTD SVG 1.1//EN"
 "http://www.w3.org/Graphics/SVG/1.1/DTD/svg11.dtd">
<!-- Generated by graphviz version 2.40.1 (20161225.0304)
 -->
<!-- Title: prevector::shrink_to_fit Pages: 1 -->
<svg width="814pt" height="146pt"
 viewBox="0.00 0.00 813.68 146.00" xmlns="http://www.w3.org/2000/svg" xmlns:xlink="http://www.w3.org/1999/xlink">
<g id="graph0" class="graph" transform="scale(1 1) rotate(0) translate(4 142)">
<title>prevector::shrink_to_fit</title>
<polygon fill="#ffffff" stroke="transparent" points="-4,4 -4,-142 809.6777,-142 809.6777,4 -4,4"/>
<!-- Node1402 -->
<g id="node1" class="node">
<title>Node1402</title>
<polygon fill="#bfbfbf" stroke="#000000" points="0,-64.5 0,-82.5 117.1572,-82.5 117.1572,-64.5 0,-64.5"/>
<text text-anchor="middle" x="58.5786" y="-70.5" font-family="Helvetica,sans-Serif" font-size="10.00" fill="#000000">prevector::shrink_to_fit</text>
</g>
<!-- Node1403 -->
<g id="node2" class="node">
<title>Node1403</title>
<g id="a_node2"><a xlink:href="class_c_script.html#a7b2baf842621f07c4939408acf63377c" target="_top" xlink:title="CScript::clear">
<polygon fill="#ffffff" stroke="#000000" points="153.1572,-64.5 153.1572,-82.5 229.1719,-82.5 229.1719,-64.5 153.1572,-64.5"/>
<text text-anchor="middle" x="191.1646" y="-70.5" font-family="Helvetica,sans-Serif" font-size="10.00" fill="#000000">CScript::clear</text>
</a>
</g>
</g>
<!-- Node1402&#45;&gt;Node1403 -->
<g id="edge1" class="edge">
<title>Node1402&#45;&gt;Node1403</title>
<path fill="none" stroke="#191970" d="M127.7005,-73.5C136.3908,-73.5 145.0162,-73.5 152.9778,-73.5"/>
<polygon fill="#191970" stroke="#191970" points="127.5049,-70.0001 117.5049,-73.5 127.5048,-77.0001 127.5049,-70.0001"/>
</g>
<!-- Node1404 -->
<g id="node3" class="node">
<title>Node1404</title>
<g id="a_node3"><a xlink:href="class_c_tx_out.html#a9fe5e6a1be651f130d3dc84a64e78a24" target="_top" xlink:title="CTxOut::SetNull">
<polygon fill="#ffffff" stroke="#000000" points="299.6396,-101.5 299.6396,-119.5 387.8809,-119.5 387.8809,-101.5 299.6396,-101.5"/>
<text text-anchor="middle" x="343.7603" y="-107.5" font-family="Helvetica,sans-Serif" font-size="10.00" fill="#000000">CTxOut::SetNull</text>
</a>
</g>
</g>
<!-- Node1403&#45;&gt;Node1404 -->
<g id="edge2" class="edge">
<title>Node1403&#45;&gt;Node1404</title>
<path fill="none" stroke="#191970" d="M235.6455,-85.1207C245.3644,-87.6035 255.6047,-90.1767 265.1719,-92.5 277.5495,-95.5058 291.0577,-98.6491 303.3287,-101.4524"/>
<polygon fill="#191970" stroke="#191970" points="236.3125,-81.6784 225.7562,-82.5802 234.5708,-88.4583 236.3125,-81.6784"/>
</g>
<!-- Node1412 -->
<g id="node11" class="node">
<title>Node1412</title>
<g id="a_node11"><a xlink:href="rawtransaction_8cpp.html#a6b6a0c0d5bd5b55553ea48b3da2e796c" target="_top" xlink:title="converttopsbt">
<polygon fill="#ffffff" stroke="#000000" points="305.7432,-64.5 305.7432,-82.5 381.7773,-82.5 381.7773,-64.5 305.7432,-64.5"/>
<text text-anchor="middle" x="343.7603" y="-70.5" font-family="Helvetica,sans-Serif" font-size="10.00" fill="#000000">converttopsbt</text>
</a>
</g>
</g>
<!-- Node1403&#45;&gt;Node1412 -->
<g id="edge10" class="edge">
<title>Node1403&#45;&gt;Node1412</title>
<path fill="none" stroke="#191970" d="M239.4534,-73.5C260.8116,-73.5 285.57,-73.5 305.6045,-73.5"/>
<polygon fill="#191970" stroke="#191970" points="239.2773,-70.0001 229.2773,-73.5 239.2772,-77.0001 239.2773,-70.0001"/>
</g>
<!-- Node1413 -->
<g id="node12" class="node">
<title>Node1413</title>
<g id="a_node12"><a xlink:href="struct_p_s_b_t_input.html#ad4eae111b69112fac6fd802b9e647d8e" target="_top" xlink:title="PSBTInput::FromSignatureData">
<polygon fill="#ffffff" stroke="#000000" points="265.1719,-27.5 265.1719,-45.5 422.3486,-45.5 422.3486,-27.5 265.1719,-27.5"/>
<text text-anchor="middle" x="343.7603" y="-33.5" font-family="Helvetica,sans-Serif" font-size="10.00" fill="#000000">PSBTInput::FromSignatureData</text>
</a>
</g>
</g>
<!-- Node1403&#45;&gt;Node1413 -->
<g id="edge11" class="edge">
<title>Node1403&#45;&gt;Node1413</title>
<path fill="none" stroke="#191970" d="M238.3128,-62.0224C247.2333,-59.8537 256.4887,-57.6056 265.1719,-55.5 278.5406,-52.2582 293.1907,-48.714 306.1819,-45.5741"/>
<polygon fill="#191970" stroke="#191970" points="237.3217,-58.6613 228.4319,-64.4253 238.9758,-65.4631 237.3217,-58.6613"/>
</g>
<!-- Node1405 -->
<g id="node4" class="node">
<title>Node1405</title>
<g id="a_node4"><a xlink:href="class_coin.html#a43f443512a1a3444555149d14a9a3d48" target="_top" xlink:title="Coin::Clear">
<polygon fill="#ffffff" stroke="#000000" points="470.5654,-119.5 470.5654,-137.5 536.585,-137.5 536.585,-119.5 470.5654,-119.5"/>
<text text-anchor="middle" x="503.5752" y="-125.5" font-family="Helvetica,sans-Serif" font-size="10.00" fill="#000000">Coin::Clear</text>
</a>
</g>
</g>
<!-- Node1404&#45;&gt;Node1405 -->
<g id="edge3" class="edge">
<title>Node1404&#45;&gt;Node1405</title>
<path fill="none" stroke="#191970" d="M398.3103,-116.644C422.2724,-119.3428 449.6284,-122.424 470.4463,-124.7687"/>
<polygon fill="#191970" stroke="#191970" points="398.6066,-113.1553 388.2776,-115.514 397.823,-120.1113 398.6066,-113.1553"/>
</g>
<!-- Node1406 -->
<g id="node5" class="node">
<title>Node1406</title>
<g id="a_node5"><a xlink:href="class_c_tx_out.html#a46110a759b21c75968297768f759be59" target="_top" xlink:title="CTxOut::CTxOut">
<polygon fill="#ffffff" stroke="#000000" points="458.3486,-82.5 458.3486,-100.5 548.8018,-100.5 548.8018,-82.5 458.3486,-82.5"/>
<text text-anchor="middle" x="503.5752" y="-88.5" font-family="Helvetica,sans-Serif" font-size="10.00" fill="#000000">CTxOut::CTxOut</text>
</a>
</g>
</g>
<!-- Node1404&#45;&gt;Node1406 -->
<g id="edge4" class="edge">
<title>Node1404&#45;&gt;Node1406</title>
<path fill="none" stroke="#191970" d="M398.2466,-104.0223C417.7579,-101.7026 439.5264,-99.1146 458.1861,-96.8962"/>
<polygon fill="#191970" stroke="#191970" points="397.7945,-100.5513 388.2776,-105.2074 398.6209,-107.5023 397.7945,-100.5513"/>
</g>
<!-- Node1407 -->
<g id="node6" class="node">
<title>Node1407</title>
<g id="a_node6"><a xlink:href="sign_8h.html#a0672ff731255ff8be6d4f8c5abd68d6c" target="_top" xlink:title="Signs a PSBTInput, verifying that all provided data matches what is being signed. ...">
<polygon fill="#ffffff" stroke="#000000" points="461.3882,-36.5 461.3882,-54.5 545.7622,-54.5 545.7622,-36.5 461.3882,-36.5"/>
<text text-anchor="middle" x="503.5752" y="-42.5" font-family="Helvetica,sans-Serif" font-size="10.00" fill="#000000">SignPSBTInput</text>
</a>
</g>
</g>
<!-- Node1404&#45;&gt;Node1407 -->
<g id="edge5" class="edge">
<title>Node1404&#45;&gt;Node1407</title>
<path fill="none" stroke="#191970" d="M397.8222,-100.3722C406.1618,-98.1672 414.5783,-95.5573 422.3486,-92.5 435.7662,-87.2207 469.4595,-66.7737 488.9769,-54.6568"/>
<polygon fill="#191970" stroke="#191970" points="396.9763,-96.9758 388.1109,-102.7771 398.6591,-103.7706 396.9763,-96.9758"/>
</g>
<!-- Node1408 -->
<g id="node7" class="node">
<title>Node1408</title>
<g id="a_node7"><a xlink:href="rawtransaction_8cpp.html#a5edaef38949646889470912893a56b88" target="_top" xlink:title="finalizepsbt">
<polygon fill="#ffffff" stroke="#000000" points="584.8018,-55.5 584.8018,-73.5 650.8311,-73.5 650.8311,-55.5 584.8018,-55.5"/>
<text text-anchor="middle" x="617.8164" y="-61.5" font-family="Helvetica,sans-Serif" font-size="10.00" fill="#000000">finalizepsbt</text>
</a>
</g>
</g>
<!-- Node1407&#45;&gt;Node1408 -->
<g id="edge6" class="edge">
<title>Node1407&#45;&gt;Node1408</title>
<path fill="none" stroke="#191970" d="M555.8868,-54.2002C565.6887,-55.8304 575.6808,-57.4922 584.6976,-58.9919"/>
<polygon fill="#191970" stroke="#191970" points="556.2286,-50.709 545.7898,-52.5209 555.0801,-57.6142 556.2286,-50.709"/>
</g>
<!-- Node1409 -->
<g id="node8" class="node">
<title>Node1409</title>
<g id="a_node8"><a xlink:href="rpcwallet_8h.html#ab2cdd07070dae2e6b1a2ea36a619b233" target="_top" xlink:title="FillPSBT">
<polygon fill="#ffffff" stroke="#000000" points="590.3706,-18.5 590.3706,-36.5 645.2622,-36.5 645.2622,-18.5 590.3706,-18.5"/>
<text text-anchor="middle" x="617.8164" y="-24.5" font-family="Helvetica,sans-Serif" font-size="10.00" fill="#000000">FillPSBT</text>
</a>
</g>
</g>
<!-- Node1407&#45;&gt;Node1409 -->
<g id="edge7" class="edge">
<title>Node1407&#45;&gt;Node1409</title>
<path fill="none" stroke="#191970" d="M555.7121,-37.2852C567.6616,-35.4025 579.9042,-33.4735 590.3267,-31.8313"/>
<polygon fill="#191970" stroke="#191970" points="555.1232,-33.8348 545.7898,-38.8486 556.2127,-40.7495 555.1232,-33.8348"/>
</g>
<!-- Node1410 -->
<g id="node9" class="node">
<title>Node1410</title>
<g id="a_node9"><a xlink:href="rpcwallet_8cpp.html#a9c99ceacf389a1ce91977c6f7ffa5022" target="_top" xlink:title="walletprocesspsbt">
<polygon fill="#ffffff" stroke="#000000" points="698.5132,-37.5 698.5132,-55.5 793.9956,-55.5 793.9956,-37.5 698.5132,-37.5"/>
<text text-anchor="middle" x="746.2544" y="-43.5" font-family="Helvetica,sans-Serif" font-size="10.00" fill="#000000">walletprocesspsbt</text>
</a>
</g>
</g>
<!-- Node1409&#45;&gt;Node1410 -->
<g id="edge8" class="edge">
<title>Node1409&#45;&gt;Node1410</title>
<path fill="none" stroke="#191970" d="M655.6268,-33.0933C668.9803,-35.0687 684.1786,-37.3171 698.2626,-39.4005"/>
<polygon fill="#191970" stroke="#191970" points="655.7741,-29.5771 645.3696,-31.576 654.7497,-36.5018 655.7741,-29.5771"/>
</g>
<!-- Node1411 -->
<g id="node10" class="node">
<title>Node1411</title>
<g id="a_node10"><a xlink:href="rpcwallet_8cpp.html#afca55ac7a3c6c274b8b7b3e6eab9cd86" target="_top" xlink:title="walletcreatefundedpsbt">
<polygon fill="#ffffff" stroke="#000000" points="686.8311,-.5 686.8311,-18.5 805.6777,-18.5 805.6777,-.5 686.8311,-.5"/>
<text text-anchor="middle" x="746.2544" y="-6.5" font-family="Helvetica,sans-Serif" font-size="10.00" fill="#000000">walletcreatefundedpsbt</text>
</a>
</g>
</g>
<!-- Node1409&#45;&gt;Node1411 -->
<g id="edge9" class="edge">
<title>Node1409&#45;&gt;Node1411</title>
<path fill="none" stroke="#191970" d="M655.5642,-22.2098C665.3716,-20.8354 676.1774,-19.321 686.8078,-17.8312"/>
<polygon fill="#191970" stroke="#191970" points="654.787,-18.7844 645.3696,-23.6385 655.7586,-25.7167 654.787,-18.7844"/>
</g>
<!-- Node1413&#45;&gt;Node1407 -->
<g id="edge12" class="edge">
<title>Node1413&#45;&gt;Node1407</title>
<path fill="none" stroke="#191970" d="M432.9316,-41.5217C442.6787,-42.0706 452.2395,-42.609 461.0232,-43.1037"/>
<polygon fill="#191970" stroke="#191970" points="432.9123,-38.0152 422.7313,-40.9473 432.5187,-45.0041 432.9123,-38.0152"/>
</g>
</g>
</svg>
