<?xml version="1.0" encoding="UTF-8" standalone="no"?>
<!DOCTYPE svg PUBLIC "-//W3C//DTD SVG 1.1//EN"
 "http://www.w3.org/Graphics/SVG/1.1/DTD/svg11.dtd">
<!-- Generated by graphviz version 2.40.1 (20161225.0304)
 -->
<!-- Title: EditAddressDialog Pages: 1 -->
<svg width="1034pt" height="391pt"
 viewBox="0.00 0.00 1033.93 391.41" xmlns="http://www.w3.org/2000/svg" xmlns:xlink="http://www.w3.org/1999/xlink">
<g id="graph0" class="graph" transform="scale(1 1) rotate(0) translate(4 387.4078)">
<title>EditAddressDialog</title>
<polygon fill="#ffffff" stroke="transparent" points="-4,4 -4,-387.4078 1029.9287,-387.4078 1029.9287,4 -4,4"/>
<!-- Node2 -->
<g id="node1" class="node">
<title>Node2</title>
<polygon fill="#bfbfbf" stroke="#000000" points="450.4893,-338.6536 450.4893,-356.6536 548.7549,-356.6536 548.7549,-338.6536 450.4893,-338.6536"/>
<text text-anchor="middle" x="499.6221" y="-344.6536" font-family="Helvetica,sans-Serif" font-size="10.00" fill="#000000">EditAddressDialog</text>
</g>
<!-- Node3 -->
<g id="node2" class="node">
<title>Node3</title>
<polygon fill="#ffffff" stroke="#bfbfbf" points="227.1855,-347.6536 227.1855,-365.6536 279.3135,-365.6536 279.3135,-347.6536 227.1855,-347.6536"/>
<text text-anchor="middle" x="253.2495" y="-353.6536" font-family="Helvetica,sans-Serif" font-size="10.00" fill="#000000">QDialog</text>
</g>
<!-- Node3&#45;&gt;Node2 -->
<g id="edge1" class="edge">
<title>Node3&#45;&gt;Node2</title>
<path fill="none" stroke="#191970" d="M289.7923,-355.3186C332.3058,-353.7656 402.7079,-351.1938 450.1075,-349.4623"/>
<polygon fill="#191970" stroke="#191970" points="289.4812,-351.8276 279.6157,-355.6904 289.7368,-358.8229 289.4812,-351.8276"/>
</g>
<!-- Node4 -->
<g id="node3" class="node">
<title>Node4</title>
<g id="a_node3"><a xlink:href="class_address_table_model.html" target="_top" xlink:title="Qt model of the address book in the core. ">
<polygon fill="#ffffff" stroke="#000000" points="201.3359,-263.6536 201.3359,-281.6536 305.1631,-281.6536 305.1631,-263.6536 201.3359,-263.6536"/>
<text text-anchor="middle" x="253.2495" y="-269.6536" font-family="Helvetica,sans-Serif" font-size="10.00" fill="#000000">AddressTableModel</text>
</a>
</g>
</g>
<!-- Node4&#45;&gt;Node2 -->
<g id="edge2" class="edge">
<title>Node4&#45;&gt;Node2</title>
<path fill="none" stroke="#9a32cd" stroke-dasharray="5,2" d="M288.2614,-285.0978C303.4793,-290.3869 321.5509,-296.5075 337.9824,-301.6536 381.9746,-315.4311 433.2358,-329.7243 466.0358,-338.6485"/>
<polygon fill="#9a32cd" stroke="#9a32cd" points="289.314,-281.7581 278.7192,-281.7609 287.0032,-288.3658 289.314,-281.7581"/>
<text text-anchor="middle" x="385.2358" y="-329.6536" font-family="Helvetica,sans-Serif" font-size="10.00" fill="#000000"> model</text>
</g>
<!-- Node6 -->
<g id="node5" class="node">
<title>Node6</title>
<g id="a_node5"><a xlink:href="class_address_table_priv.html" target="_top" xlink:title="AddressTablePriv">
<polygon fill="#ffffff" stroke="#000000" points="452.7158,-279.6536 452.7158,-297.6536 546.5283,-297.6536 546.5283,-279.6536 452.7158,-279.6536"/>
<text text-anchor="middle" x="499.6221" y="-285.6536" font-family="Helvetica,sans-Serif" font-size="10.00" fill="#000000">AddressTablePriv</text>
</a>
</g>
</g>
<!-- Node4&#45;&gt;Node6 -->
<g id="edge5" class="edge">
<title>Node4&#45;&gt;Node6</title>
<path fill="none" stroke="#9a32cd" stroke-dasharray="5,2" d="M315.7325,-281.4691C323.2189,-282.3169 330.7647,-283.0748 337.9824,-283.6536 376.4632,-286.739 420.2381,-287.9524 452.5188,-288.4147"/>
<polygon fill="#9a32cd" stroke="#9a32cd" points="315.9398,-277.9692 305.5969,-280.2657 315.1145,-284.9204 315.9398,-277.9692"/>
<text text-anchor="middle" x="385.2358" y="-289.6536" font-family="Helvetica,sans-Serif" font-size="10.00" fill="#000000"> parent</text>
</g>
<!-- Node7 -->
<g id="node6" class="node">
<title>Node7</title>
<g id="a_node6"><a xlink:href="class_wallet_model.html" target="_top" xlink:title="Interface to Bitcoin wallet from Qt view code. ">
<polygon fill="#ffffff" stroke="#000000" points="464.2954,-151.6536 464.2954,-169.6536 534.9487,-169.6536 534.9487,-151.6536 464.2954,-151.6536"/>
<text text-anchor="middle" x="499.6221" y="-157.6536" font-family="Helvetica,sans-Serif" font-size="10.00" fill="#000000">WalletModel</text>
</a>
</g>
</g>
<!-- Node4&#45;&gt;Node7 -->
<g id="edge15" class="edge">
<title>Node4&#45;&gt;Node7</title>
<path fill="none" stroke="#9a32cd" stroke-dasharray="5,2" d="M310.578,-261.3377C346.9768,-252.6655 394.2549,-238.5828 432.4893,-217.6536 456.3619,-204.5858 479.4926,-182.1332 491.3717,-169.6643"/>
<polygon fill="#9a32cd" stroke="#9a32cd" points="309.5709,-257.9781 300.6167,-263.6414 311.1482,-264.7981 309.5709,-257.9781"/>
<text text-anchor="middle" x="385.2358" y="-254.6536" font-family="Helvetica,sans-Serif" font-size="10.00" fill="#000000"> addressTableModel</text>
</g>
<!-- Node5 -->
<g id="node4" class="node">
<title>Node5</title>
<polygon fill="#ffffff" stroke="#bfbfbf" points="0,-263.6536 0,-281.6536 111.6006,-281.6536 111.6006,-263.6536 0,-263.6536"/>
<text text-anchor="middle" x="55.8003" y="-269.6536" font-family="Helvetica,sans-Serif" font-size="10.00" fill="#000000">QAbstractTableModel</text>
</g>
<!-- Node5&#45;&gt;Node4 -->
<g id="edge3" class="edge">
<title>Node5&#45;&gt;Node4</title>
<path fill="none" stroke="#191970" d="M121.9287,-272.6536C147.7216,-272.6536 176.8582,-272.6536 201.1219,-272.6536"/>
<polygon fill="#191970" stroke="#191970" points="121.8532,-269.1537 111.8532,-272.6536 121.8531,-276.1537 121.8532,-269.1537"/>
</g>
<!-- Node10 -->
<g id="node9" class="node">
<title>Node10</title>
<g id="a_node9"><a xlink:href="class_transaction_table_model.html" target="_top" xlink:title="UI model for the transaction table of a wallet. ">
<polygon fill="#ffffff" stroke="#000000" points="719.7402,-90.6536 719.7402,-108.6536 838.7627,-108.6536 838.7627,-90.6536 719.7402,-90.6536"/>
<text text-anchor="middle" x="779.2515" y="-96.6536" font-family="Helvetica,sans-Serif" font-size="10.00" fill="#000000">TransactionTableModel</text>
</a>
</g>
</g>
<!-- Node5&#45;&gt;Node10 -->
<g id="edge10" class="edge">
<title>Node5&#45;&gt;Node10</title>
<path fill="none" stroke="#191970" d="M65.988,-254.7692C85.1383,-222.939 129.7392,-156.791 186.5166,-124.6536 276.1508,-73.9183 587.5082,-87.1981 719.4379,-95.4358"/>
<polygon fill="#191970" stroke="#191970" points="62.924,-253.075 60.8766,-263.4701 68.9596,-256.6207 62.924,-253.075"/>
</g>
<!-- Node14 -->
<g id="node13" class="node">
<title>Node14</title>
<g id="a_node13"><a xlink:href="class_recent_requests_table_model.html" target="_top" xlink:title="Model for list of recently generated payment requests / bitcoin: URIs. ">
<polygon fill="#ffffff" stroke="#000000" points="708.7148,-205.6536 708.7148,-223.6536 849.7881,-223.6536 849.7881,-205.6536 708.7148,-205.6536"/>
<text text-anchor="middle" x="779.2515" y="-211.6536" font-family="Helvetica,sans-Serif" font-size="10.00" fill="#000000">RecentRequestsTableModel</text>
</a>
</g>
</g>
<!-- Node5&#45;&gt;Node14 -->
<g id="edge18" class="edge">
<title>Node5&#45;&gt;Node14</title>
<path fill="none" stroke="#191970" d="M70.2735,-289.7091C92.3719,-314.2781 137.1889,-358.5545 186.5166,-375.6536 231.4274,-391.2215 510.2793,-379.0273 548.7549,-366.6536 645.4963,-335.5415 740.0822,-251.7186 769.7383,-223.8235"/>
<polygon fill="#191970" stroke="#191970" points="72.6616,-287.1241 63.4343,-281.9174 67.4007,-291.7418 72.6616,-287.1241"/>
</g>
<!-- Node6&#45;&gt;Node4 -->
<g id="edge4" class="edge">
<title>Node6&#45;&gt;Node4</title>
<path fill="none" stroke="#9a32cd" stroke-dasharray="5,2" d="M455.7834,-277.4456C448.0692,-275.8791 440.0802,-274.5127 432.4893,-273.6536 389.8182,-268.8239 341.0669,-268.9107 305.1903,-270.0167"/>
<polygon fill="#9a32cd" stroke="#9a32cd" points="455.1955,-280.8993 465.7096,-279.5943 456.6765,-274.0577 455.1955,-280.8993"/>
<text text-anchor="middle" x="385.2358" y="-275.6536" font-family="Helvetica,sans-Serif" font-size="10.00" fill="#000000"> priv</text>
</g>
<!-- Node7&#45;&gt;Node4 -->
<g id="edge6" class="edge">
<title>Node7&#45;&gt;Node4</title>
<path fill="none" stroke="#9a32cd" stroke-dasharray="5,2" d="M463.5957,-172.886C453.5621,-176.1764 442.6331,-179.6525 432.4893,-182.6536 390.8265,-194.9794 376.9815,-188.5019 337.9824,-207.6536 307.694,-222.5276 277.6452,-249.1057 262.804,-263.2283"/>
<polygon fill="#9a32cd" stroke="#9a32cd" points="464.8763,-176.1489 473.2686,-169.682 462.6752,-169.504 464.8763,-176.1489"/>
<text text-anchor="middle" x="385.2358" y="-209.6536" font-family="Helvetica,sans-Serif" font-size="10.00" fill="#000000"> walletModel</text>
</g>
<!-- Node7&#45;&gt;Node10 -->
<g id="edge14" class="edge">
<title>Node7&#45;&gt;Node10</title>
<path fill="none" stroke="#9a32cd" stroke-dasharray="5,2" d="M545.1368,-153.2026C592.605,-145.3159 663.7784,-133.1324 690.7148,-126.6536 711.6513,-121.6178 734.9278,-114.4562 752.3582,-108.774"/>
<polygon fill="#9a32cd" stroke="#9a32cd" points="544.3913,-149.7783 535.0976,-154.8653 545.5351,-156.6842 544.3913,-149.7783"/>
<text text-anchor="middle" x="628.7349" y="-150.6536" font-family="Helvetica,sans-Serif" font-size="10.00" fill="#000000"> walletModel</text>
</g>
<!-- Node7&#45;&gt;Node14 -->
<g id="edge19" class="edge">
<title>Node7&#45;&gt;Node14</title>
<path fill="none" stroke="#9a32cd" stroke-dasharray="5,2" d="M545.2984,-162.4992C584.3536,-164.8284 641.8281,-170.0463 690.7148,-181.6536 714.9744,-187.4136 741.6383,-197.9674 759.299,-205.5917"/>
<polygon fill="#9a32cd" stroke="#9a32cd" points="545.468,-159.0034 535.2888,-161.9415 545.0786,-165.9925 545.468,-159.0034"/>
<text text-anchor="middle" x="628.7349" y="-183.6536" font-family="Helvetica,sans-Serif" font-size="10.00" fill="#000000"> walletModel</text>
</g>
<!-- Node8 -->
<g id="node7" class="node">
<title>Node8</title>
<polygon fill="#ffffff" stroke="#bfbfbf" points="226.9097,-170.6536 226.9097,-188.6536 279.5894,-188.6536 279.5894,-170.6536 226.9097,-170.6536"/>
<text text-anchor="middle" x="253.2495" y="-176.6536" font-family="Helvetica,sans-Serif" font-size="10.00" fill="#000000">QObject</text>
</g>
<!-- Node8&#45;&gt;Node7 -->
<g id="edge7" class="edge">
<title>Node8&#45;&gt;Node7</title>
<path fill="none" stroke="#191970" d="M289.6338,-176.8476C336.4953,-173.2337 417.43,-166.9921 463.9455,-163.4049"/>
<polygon fill="#191970" stroke="#191970" points="289.3169,-173.3616 279.6157,-177.6202 289.8552,-180.3409 289.3169,-173.3616"/>
</g>
<!-- Node9 -->
<g id="node8" class="node">
<title>Node9</title>
<g id="a_node8"><a xlink:href="structinterfaces_1_1_wallet_balances.html" target="_top" xlink:title="Collection of wallet balances. ">
<polygon fill="#ffffff" stroke="#000000" points="186.5166,-133.6536 186.5166,-151.6536 319.9824,-151.6536 319.9824,-133.6536 186.5166,-133.6536"/>
<text text-anchor="middle" x="253.2495" y="-139.6536" font-family="Helvetica,sans-Serif" font-size="10.00" fill="#000000">interfaces::WalletBalances</text>
</a>
</g>
</g>
<!-- Node9&#45;&gt;Node7 -->
<g id="edge8" class="edge">
<title>Node9&#45;&gt;Node7</title>
<path fill="none" stroke="#9a32cd" stroke-dasharray="5,2" d="M330.3005,-143.5806C362.0141,-144.503 399.0793,-146.277 432.4893,-149.6536 442.8298,-150.6986 453.9938,-152.325 464.1934,-154.0096"/>
<polygon fill="#9a32cd" stroke="#9a32cd" points="330.2935,-140.0792 320.2034,-143.3101 330.106,-147.0767 330.2935,-140.0792"/>
<text text-anchor="middle" x="385.2358" y="-151.6536" font-family="Helvetica,sans-Serif" font-size="10.00" fill="#000000"> m_cached_balances</text>
</g>
<!-- Node10&#45;&gt;Node7 -->
<g id="edge9" class="edge">
<title>Node10&#45;&gt;Node7</title>
<path fill="none" stroke="#9a32cd" stroke-dasharray="5,2" d="M709.274,-96.6193C666.9581,-96.877 612.524,-100.9764 566.7549,-116.6536 544.6069,-124.2399 522.6164,-140.8184 510.1151,-151.3197"/>
<polygon fill="#9a32cd" stroke="#9a32cd" points="709.4788,-100.1194 719.4823,-96.6296 709.4859,-93.1194 709.4788,-100.1194"/>
<text text-anchor="middle" x="628.7349" y="-118.6536" font-family="Helvetica,sans-Serif" font-size="10.00" fill="#000000"> transactionTableModel</text>
</g>
<!-- Node11 -->
<g id="node10" class="node">
<title>Node11</title>
<g id="a_node10"><a xlink:href="class_transaction_table_priv.html" target="_top" xlink:title="TransactionTablePriv">
<polygon fill="#ffffff" stroke="#000000" points="916.9209,-90.6536 916.9209,-108.6536 1025.9287,-108.6536 1025.9287,-90.6536 916.9209,-90.6536"/>
<text text-anchor="middle" x="971.4248" y="-96.6536" font-family="Helvetica,sans-Serif" font-size="10.00" fill="#000000">TransactionTablePriv</text>
</a>
</g>
</g>
<!-- Node10&#45;&gt;Node11 -->
<g id="edge12" class="edge">
<title>Node10&#45;&gt;Node11</title>
<path fill="none" stroke="#9a32cd" stroke-dasharray="5,2" d="M849.0617,-99.6536C871.3077,-99.6536 895.5891,-99.6536 916.6148,-99.6536"/>
<polygon fill="#9a32cd" stroke="#9a32cd" points="849.0029,-96.1537 839.0029,-99.6536 849.0029,-103.1537 849.0029,-96.1537"/>
<text text-anchor="middle" x="883.3545" y="-101.6536" font-family="Helvetica,sans-Serif" font-size="10.00" fill="#000000"> parent</text>
</g>
<!-- Node11&#45;&gt;Node10 -->
<g id="edge11" class="edge">
<title>Node11&#45;&gt;Node10</title>
<path fill="none" stroke="#9a32cd" stroke-dasharray="5,2" d="M925.1687,-88.6205C916.4953,-86.9691 907.4684,-85.5285 898.9209,-84.6536 871.2174,-81.8179 839.9993,-85.9773 816.396,-90.6289"/>
<polygon fill="#9a32cd" stroke="#9a32cd" points="924.643,-92.0849 935.138,-90.6345 926.0292,-85.2235 924.643,-92.0849"/>
<text text-anchor="middle" x="883.3545" y="-86.6536" font-family="Helvetica,sans-Serif" font-size="10.00" fill="#000000"> priv</text>
</g>
<!-- Node12 -->
<g id="node11" class="node">
<title>Node12</title>
<g id="a_node11"><a xlink:href="class_platform_style.html" target="_top" xlink:title="PlatformStyle">
<polygon fill="#ffffff" stroke="#000000" points="461.8906,-35.6536 461.8906,-53.6536 537.3535,-53.6536 537.3535,-35.6536 461.8906,-35.6536"/>
<text text-anchor="middle" x="499.6221" y="-41.6536" font-family="Helvetica,sans-Serif" font-size="10.00" fill="#000000">PlatformStyle</text>
</a>
</g>
</g>
<!-- Node12&#45;&gt;Node10 -->
<g id="edge13" class="edge">
<title>Node12&#45;&gt;Node10</title>
<path fill="none" stroke="#9a32cd" stroke-dasharray="5,2" d="M547.6742,-43.4367C586.7913,-43.568 643.122,-46.3282 690.7148,-58.6536 717.9357,-65.7031 747.0816,-80.8496 764.2104,-90.6282"/>
<polygon fill="#9a32cd" stroke="#9a32cd" points="547.6104,-39.9367 537.6184,-43.4595 547.6263,-46.9367 547.6104,-39.9367"/>
<text text-anchor="middle" x="628.7349" y="-60.6536" font-family="Helvetica,sans-Serif" font-size="10.00" fill="#000000"> platformStyle</text>
</g>
<!-- Node13 -->
<g id="node12" class="node">
<title>Node13</title>
<g id="a_node12"><a xlink:href="classinterfaces_1_1_node.html" target="_top" xlink:title="Top&#45;level interface for a bitcoin node (bsha3d process). ">
<polygon fill="#ffffff" stroke="#000000" points="11.3916,-1.6536 11.3916,-19.6536 100.209,-19.6536 100.209,-1.6536 11.3916,-1.6536"/>
<text text-anchor="middle" x="55.8003" y="-7.6536" font-family="Helvetica,sans-Serif" font-size="10.00" fill="#000000">interfaces::Node</text>
</a>
</g>
</g>
<!-- Node13&#45;&gt;Node7 -->
<g id="edge16" class="edge">
<title>Node13&#45;&gt;Node7</title>
<path fill="none" stroke="#9a32cd" stroke-dasharray="5,2" d="M110.3354,-3.8631C164.5685,1.085 249.6092,3.9296 319.9824,-15.6536 375.6168,-31.1352 388.2563,-43.5279 432.4893,-80.6536 458.7372,-102.684 482.8198,-135.7898 493.6276,-151.6097"/>
<polygon fill="#9a32cd" stroke="#9a32cd" points="109.8615,-.3926 100.2457,-4.8406 110.5366,-7.36 109.8615,-.3926"/>
<text text-anchor="middle" x="253.2495" y="-17.6536" font-family="Helvetica,sans-Serif" font-size="10.00" fill="#000000"> m_node</text>
</g>
<!-- Node15 -->
<g id="node14" class="node">
<title>Node15</title>
<g id="a_node14"><a xlink:href="class_options_model.html" target="_top" xlink:title="Interface from Qt to configuration data structure for Bitcoin client. ">
<polygon fill="#ffffff" stroke="#000000" points="214.3999,-35.6536 214.3999,-53.6536 292.0991,-53.6536 292.0991,-35.6536 214.3999,-35.6536"/>
<text text-anchor="middle" x="253.2495" y="-41.6536" font-family="Helvetica,sans-Serif" font-size="10.00" fill="#000000">OptionsModel</text>
</a>
</g>
</g>
<!-- Node13&#45;&gt;Node15 -->
<g id="edge22" class="edge">
<title>Node13&#45;&gt;Node15</title>
<path fill="none" stroke="#9a32cd" stroke-dasharray="5,2" d="M110.5443,-20.0803C143.4923,-25.7538 184.6549,-32.8418 214.2933,-37.9455"/>
<polygon fill="#9a32cd" stroke="#9a32cd" points="111.0535,-16.6165 100.6046,-18.3687 109.8656,-23.515 111.0535,-16.6165"/>
<text text-anchor="middle" x="149.0586" y="-32.6536" font-family="Helvetica,sans-Serif" font-size="10.00" fill="#000000"> m_node</text>
</g>
<!-- Node14&#45;&gt;Node7 -->
<g id="edge17" class="edge">
<title>Node14&#45;&gt;Node7</title>
<path fill="none" stroke="#9a32cd" stroke-dasharray="5,2" d="M698.2427,-212.7504C658.084,-210.1815 609.2166,-204.5876 566.7549,-192.6536 547.9859,-187.3785 528.0019,-177.193 514.7663,-169.7252"/>
<polygon fill="#9a32cd" stroke="#9a32cd" points="698.0671,-216.2461 708.2557,-213.3404 698.4789,-209.2582 698.0671,-216.2461"/>
<text text-anchor="middle" x="628.7349" y="-213.6536" font-family="Helvetica,sans-Serif" font-size="10.00" fill="#000000"> recentRequestsTableModel</text>
</g>
<!-- Node15&#45;&gt;Node7 -->
<g id="edge20" class="edge">
<title>Node15&#45;&gt;Node7</title>
<path fill="none" stroke="#9a32cd" stroke-dasharray="5,2" d="M281.6833,-58.0411C332.4015,-81.9208 437.1976,-131.2621 480.3794,-151.5935"/>
<polygon fill="#9a32cd" stroke="#9a32cd" points="283.1202,-54.8491 272.582,-53.7559 280.1384,-61.1823 283.1202,-54.8491"/>
<text text-anchor="middle" x="385.2358" y="-127.6536" font-family="Helvetica,sans-Serif" font-size="10.00" fill="#000000"> optionsModel</text>
</g>
<!-- Node16 -->
<g id="node15" class="node">
<title>Node16</title>
<polygon fill="#ffffff" stroke="#bfbfbf" points="4.1724,-48.6536 4.1724,-66.6536 107.4282,-66.6536 107.4282,-48.6536 4.1724,-48.6536"/>
<text text-anchor="middle" x="55.8003" y="-54.6536" font-family="Helvetica,sans-Serif" font-size="10.00" fill="#000000">QAbstractListModel</text>
</g>
<!-- Node16&#45;&gt;Node15 -->
<g id="edge21" class="edge">
<title>Node16&#45;&gt;Node15</title>
<path fill="none" stroke="#191970" d="M117.6982,-53.5782C149.2569,-51.5004 186.6762,-49.0367 214.1957,-47.2249"/>
<polygon fill="#191970" stroke="#191970" points="117.4262,-50.0885 107.6778,-54.238 117.8861,-57.0733 117.4262,-50.0885"/>
</g>
</g>
</svg>
