<?xml version="1.0" encoding="UTF-8" standalone="no"?>
<!DOCTYPE svg PUBLIC "-//W3C//DTD SVG 1.1//EN"
 "http://www.w3.org/Graphics/SVG/1.1/DTD/svg11.dtd">
<!-- Generated by graphviz version 2.40.1 (20161225.0304)
 -->
<!-- Title: CHMAC_SHA512::Write Pages: 1 -->
<svg width="521pt" height="64pt"
 viewBox="0.00 0.00 521.06 64.00" xmlns="http://www.w3.org/2000/svg" xmlns:xlink="http://www.w3.org/1999/xlink">
<g id="graph0" class="graph" transform="scale(1 1) rotate(0) translate(4 60)">
<title>CHMAC_SHA512::Write</title>
<polygon fill="#ffffff" stroke="transparent" points="-4,4 -4,-60 517.0645,-60 517.0645,4 -4,4"/>
<!-- Node14 -->
<g id="node1" class="node">
<title>Node14</title>
<polygon fill="#bfbfbf" stroke="#000000" points="0,-18.5 0,-36.5 124.1836,-36.5 124.1836,-18.5 0,-18.5"/>
<text text-anchor="middle" x="62.0918" y="-24.5" font-family="Helvetica,sans-Serif" font-size="10.00" fill="#000000">CHMAC_SHA512::Write</text>
</g>
<!-- Node15 -->
<g id="node2" class="node">
<title>Node15</title>
<g id="a_node2"><a xlink:href="class_c_s_h_a512.html#aefd8260a2c205f11d44670ae68f1aff0" target="_top" xlink:title="CSHA512::Write">
<polygon fill="#ffffff" stroke="#000000" points="160.1836,-18.5 160.1836,-36.5 249.3623,-36.5 249.3623,-18.5 160.1836,-18.5"/>
<text text-anchor="middle" x="204.7729" y="-24.5" font-family="Helvetica,sans-Serif" font-size="10.00" fill="#000000">CSHA512::Write</text>
</a>
</g>
</g>
<!-- Node14&#45;&gt;Node15 -->
<g id="edge1" class="edge">
<title>Node14&#45;&gt;Node15</title>
<path fill="none" stroke="#191970" d="M124.2588,-27.5C132.801,-27.5 141.5217,-27.5 149.92,-27.5"/>
<polygon fill="#191970" stroke="#191970" points="149.9704,-31.0001 159.9703,-27.5 149.9703,-24.0001 149.9704,-31.0001"/>
</g>
<!-- Node16 -->
<g id="node3" class="node">
<title>Node16</title>
<g id="a_node3"><a xlink:href="glibc__compat_8cpp.html#a0f46826ab0466591e136db24394923cf" target="_top" xlink:title="memcpy">
<polygon fill="#ffffff" stroke="#000000" points="322.9844,-37.5 322.9844,-55.5 376.7676,-55.5 376.7676,-37.5 322.9844,-37.5"/>
<text text-anchor="middle" x="349.876" y="-43.5" font-family="Helvetica,sans-Serif" font-size="10.00" fill="#000000">memcpy</text>
</a>
</g>
</g>
<!-- Node15&#45;&gt;Node16 -->
<g id="edge2" class="edge">
<title>Node15&#45;&gt;Node16</title>
<path fill="none" stroke="#191970" d="M249.4926,-33.3557C269.8212,-36.0175 293.5857,-39.1293 312.8881,-41.6568"/>
<polygon fill="#191970" stroke="#191970" points="312.4474,-45.1288 322.8172,-42.9569 313.3562,-38.1881 312.4474,-45.1288"/>
</g>
<!-- Node18 -->
<g id="node5" class="node">
<title>Node18</title>
<g id="a_node5"><a xlink:href="namespacesha256__shani.html#a97d2e267c87add9a1172d948e05ba471" target="_top" xlink:title="sha256_shani::Transform">
<polygon fill="#ffffff" stroke="#000000" points="285.3623,-.5 285.3623,-18.5 414.3896,-18.5 414.3896,-.5 285.3623,-.5"/>
<text text-anchor="middle" x="349.876" y="-6.5" font-family="Helvetica,sans-Serif" font-size="10.00" fill="#000000">sha256_shani::Transform</text>
</a>
</g>
</g>
<!-- Node15&#45;&gt;Node18 -->
<g id="edge4" class="edge">
<title>Node15&#45;&gt;Node18</title>
<path fill="none" stroke="#191970" d="M249.4926,-21.9525C257.7208,-20.9318 266.512,-19.8413 275.3423,-18.7459"/>
<polygon fill="#191970" stroke="#191970" points="275.8077,-22.2151 285.3008,-17.5105 274.9459,-15.2683 275.8077,-22.2151"/>
</g>
<!-- Node17 -->
<g id="node4" class="node">
<title>Node17</title>
<g id="a_node4"><a xlink:href="glibc__compat_8cpp.html#a9778d49e9029dd75bc53ecbbf9f5e9a1" target="_top" xlink:title="memmove">
<polygon fill="#ffffff" stroke="#000000" points="450.3896,-37.5 450.3896,-55.5 513.0645,-55.5 513.0645,-37.5 450.3896,-37.5"/>
<text text-anchor="middle" x="481.7271" y="-43.5" font-family="Helvetica,sans-Serif" font-size="10.00" fill="#000000">memmove</text>
</a>
</g>
</g>
<!-- Node16&#45;&gt;Node17 -->
<g id="edge3" class="edge">
<title>Node16&#45;&gt;Node17</title>
<path fill="none" stroke="#191970" d="M376.8762,-46.5C395.0517,-46.5 419.3771,-46.5 440.0219,-46.5"/>
<polygon fill="#191970" stroke="#191970" points="440.1232,-50.0001 450.1232,-46.5 440.1231,-43.0001 440.1232,-50.0001"/>
</g>
</g>
</svg>
