<?xml version="1.0" encoding="UTF-8" standalone="no"?>
<!DOCTYPE svg PUBLIC "-//W3C//DTD SVG 1.1//EN"
 "http://www.w3.org/Graphics/SVG/1.1/DTD/svg11.dtd">
<!-- Generated by graphviz version 2.40.1 (20161225.0304)
 -->
<!-- Title: PartiallyDownloadedBlock::FillBlock Pages: 1 -->
<svg width="454pt" height="222pt"
 viewBox="0.00 0.00 453.56 222.00" xmlns="http://www.w3.org/2000/svg" xmlns:xlink="http://www.w3.org/1999/xlink">
<g id="graph0" class="graph" transform="scale(1 1) rotate(0) translate(4 218)">
<title>PartiallyDownloadedBlock::FillBlock</title>
<polygon fill="#ffffff" stroke="transparent" points="-4,4 -4,-218 449.5615,-218 449.5615,4 -4,4"/>
<!-- Node2 -->
<g id="node1" class="node">
<title>Node2</title>
<polygon fill="#bfbfbf" stroke="#000000" points="0,-97.5 0,-125.5 131.6152,-125.5 131.6152,-97.5 0,-97.5"/>
<text text-anchor="start" x="8" y="-113.5" font-family="Helvetica,sans-Serif" font-size="10.00" fill="#000000">PartiallyDownloadedBlock</text>
<text text-anchor="middle" x="65.8076" y="-103.5" font-family="Helvetica,sans-Serif" font-size="10.00" fill="#000000">::FillBlock</text>
</g>
<!-- Node3 -->
<g id="node2" class="node">
<title>Node3</title>
<g id="a_node2"><a xlink:href="class_c_block_header.html#afb875dba7ce6e26c01509244e3cd950f" target="_top" xlink:title="CBlockHeader::IsNull">
<polygon fill="#ffffff" stroke="#000000" points="183.0986,-195.5 183.0986,-213.5 294.1328,-213.5 294.1328,-195.5 183.0986,-195.5"/>
<text text-anchor="middle" x="238.6157" y="-201.5" font-family="Helvetica,sans-Serif" font-size="10.00" fill="#000000">CBlockHeader::IsNull</text>
</a>
</g>
</g>
<!-- Node2&#45;&gt;Node3 -->
<g id="edge1" class="edge">
<title>Node2&#45;&gt;Node3</title>
<path fill="none" stroke="#191970" d="M80.8009,-125.508C99.6531,-142.3819 133.6765,-170.4557 167.6152,-186.5 172.239,-188.6858 177.1623,-190.6292 182.177,-192.3522"/>
<polygon fill="#191970" stroke="#191970" points="181.2891,-195.7418 191.8784,-195.4 183.3872,-189.0636 181.2891,-195.7418"/>
</g>
<!-- Node4 -->
<g id="node3" class="node">
<title>Node4</title>
<g id="a_node3"><a xlink:href="class_c_block_header.html#af0239f86a13f622a826e9eea66b2d7f3" target="_top" xlink:title="CBlockHeader::GetHash">
<polygon fill="#ffffff" stroke="#000000" points="175.8696,-158.5 175.8696,-176.5 301.3618,-176.5 301.3618,-158.5 175.8696,-158.5"/>
<text text-anchor="middle" x="238.6157" y="-164.5" font-family="Helvetica,sans-Serif" font-size="10.00" fill="#000000">CBlockHeader::GetHash</text>
</a>
</g>
</g>
<!-- Node2&#45;&gt;Node4 -->
<g id="edge2" class="edge">
<title>Node2&#45;&gt;Node4</title>
<path fill="none" stroke="#191970" d="M100.8176,-125.6443C120.3049,-133.244 145.1053,-142.4687 167.6152,-149.5 174.789,-151.7408 182.4347,-153.9064 189.952,-155.912"/>
<polygon fill="#191970" stroke="#191970" points="189.1509,-159.32 199.7099,-158.4493 190.9125,-152.5453 189.1509,-159.32"/>
</g>
<!-- Node6 -->
<g id="node5" class="node">
<title>Node6</title>
<g id="a_node5"><a xlink:href="class_c_block_header.html#ae39c04a4357417d98954a51f53beb78a" target="_top" xlink:title="CBlockHeader::SetNull">
<polygon fill="#ffffff" stroke="#000000" points="179.4829,-121.5 179.4829,-139.5 297.7485,-139.5 297.7485,-121.5 179.4829,-121.5"/>
<text text-anchor="middle" x="238.6157" y="-127.5" font-family="Helvetica,sans-Serif" font-size="10.00" fill="#000000">CBlockHeader::SetNull</text>
</a>
</g>
</g>
<!-- Node2&#45;&gt;Node6 -->
<g id="edge4" class="edge">
<title>Node2&#45;&gt;Node6</title>
<path fill="none" stroke="#191970" d="M131.6319,-118.7373C143.8527,-120.0809 156.6567,-121.4887 168.9867,-122.8444"/>
<polygon fill="#191970" stroke="#191970" points="168.8866,-126.3544 179.2092,-123.9683 169.6517,-119.3963 168.8866,-126.3544"/>
</g>
<!-- Node8 -->
<g id="node7" class="node">
<title>Node8</title>
<g id="a_node7"><a xlink:href="validation_8cpp.html#abc9c65975a473d224b3b97b89d571942" target="_top" xlink:title="Functions for validating blocks and updating the block tree. ">
<polygon fill="#ffffff" stroke="#000000" points="204.2168,-84.5 204.2168,-102.5 273.0146,-102.5 273.0146,-84.5 204.2168,-84.5"/>
<text text-anchor="middle" x="238.6157" y="-90.5" font-family="Helvetica,sans-Serif" font-size="10.00" fill="#000000">CheckBlock</text>
</a>
</g>
</g>
<!-- Node2&#45;&gt;Node8 -->
<g id="edge6" class="edge">
<title>Node2&#45;&gt;Node8</title>
<path fill="none" stroke="#191970" d="M131.6319,-104.6436C152.3954,-102.4809 174.8423,-100.1428 193.7877,-98.1694"/>
<polygon fill="#191970" stroke="#191970" points="194.3362,-101.6313 203.9198,-97.114 193.611,-94.6689 194.3362,-101.6313"/>
</g>
<!-- Node9 -->
<g id="node8" class="node">
<title>Node9</title>
<g id="a_node8"><a xlink:href="chainparams_8cpp.html#ace5c5b706d71a324a417dd2db394fd4a" target="_top" xlink:title="Return the currently selected parameters. ">
<polygon fill="#ffffff" stroke="#000000" points="213.3892,-47.5 213.3892,-65.5 263.8423,-65.5 263.8423,-47.5 213.3892,-47.5"/>
<text text-anchor="middle" x="238.6157" y="-53.5" font-family="Helvetica,sans-Serif" font-size="10.00" fill="#000000">Params</text>
</a>
</g>
</g>
<!-- Node2&#45;&gt;Node9 -->
<g id="edge7" class="edge">
<title>Node2&#45;&gt;Node9</title>
<path fill="none" stroke="#191970" d="M103.2843,-97.4561C122.4148,-90.4895 146.1277,-82.1629 167.6152,-75.5 179.2098,-71.9047 191.9918,-68.3577 203.4776,-65.3196"/>
<polygon fill="#191970" stroke="#191970" points="204.381,-68.7012 213.1751,-62.7924 202.6157,-61.9274 204.381,-68.7012"/>
</g>
<!-- Node10 -->
<g id="node9" class="node">
<title>Node10</title>
<g id="a_node9"><a xlink:href="class_c_validation_state.html#add2b2dc505a8527fda32295b65bb636b" target="_top" xlink:title="CValidationState::Corruption\lPossible">
<polygon fill="#ffffff" stroke="#000000" points="167.6152,-.5 167.6152,-28.5 309.6162,-28.5 309.6162,-.5 167.6152,-.5"/>
<text text-anchor="start" x="175.6152" y="-16.5" font-family="Helvetica,sans-Serif" font-size="10.00" fill="#000000">CValidationState::Corruption</text>
<text text-anchor="middle" x="238.6157" y="-6.5" font-family="Helvetica,sans-Serif" font-size="10.00" fill="#000000">Possible</text>
</a>
</g>
</g>
<!-- Node2&#45;&gt;Node10 -->
<g id="edge8" class="edge">
<title>Node2&#45;&gt;Node10</title>
<path fill="none" stroke="#191970" d="M82.1025,-97.4649C101.4199,-81.405 135.1054,-55.1786 167.6152,-38.5 171.877,-36.3136 176.3813,-34.2597 180.9702,-32.3454"/>
<polygon fill="#191970" stroke="#191970" points="182.4323,-35.5314 190.4577,-28.6145 179.8705,-29.017 182.4323,-35.5314"/>
</g>
<!-- Node5 -->
<g id="node4" class="node">
<title>Node5</title>
<g id="a_node4"><a xlink:href="_hash_8h.html#a6de694e43f17c62025c6883965b65e63" target="_top" xlink:title="Compute the 256&#45;bit hash of an object&#39;s serialization. ">
<polygon fill="#ffffff" stroke="#000000" points="356.7417,-158.5 356.7417,-176.5 434.436,-176.5 434.436,-158.5 356.7417,-158.5"/>
<text text-anchor="middle" x="395.5889" y="-164.5" font-family="Helvetica,sans-Serif" font-size="10.00" fill="#000000">SerializeHash</text>
</a>
</g>
</g>
<!-- Node4&#45;&gt;Node5 -->
<g id="edge3" class="edge">
<title>Node4&#45;&gt;Node5</title>
<path fill="none" stroke="#191970" d="M301.5582,-167.5C316.5209,-167.5 332.2687,-167.5 346.5071,-167.5"/>
<polygon fill="#191970" stroke="#191970" points="346.5754,-171.0001 356.5754,-167.5 346.5753,-164.0001 346.5754,-171.0001"/>
</g>
<!-- Node7 -->
<g id="node6" class="node">
<title>Node7</title>
<g id="a_node6"><a xlink:href="classbase__blob.html#aa340be5328d911272eded433d03f30a3" target="_top" xlink:title="base_blob::SetNull">
<polygon fill="#ffffff" stroke="#000000" points="345.6162,-121.5 345.6162,-139.5 445.5615,-139.5 445.5615,-121.5 345.6162,-121.5"/>
<text text-anchor="middle" x="395.5889" y="-127.5" font-family="Helvetica,sans-Serif" font-size="10.00" fill="#000000">base_blob::SetNull</text>
</a>
</g>
</g>
<!-- Node6&#45;&gt;Node7 -->
<g id="edge5" class="edge">
<title>Node6&#45;&gt;Node7</title>
<path fill="none" stroke="#191970" d="M297.9605,-130.5C310.1697,-130.5 323.0369,-130.5 335.2797,-130.5"/>
<polygon fill="#191970" stroke="#191970" points="335.3887,-134.0001 345.3887,-130.5 335.3887,-127.0001 335.3887,-134.0001"/>
</g>
</g>
</svg>
