<?xml version="1.0" encoding="UTF-8" standalone="no"?>
<!DOCTYPE svg PUBLIC "-//W3C//DTD SVG 1.1//EN"
 "http://www.w3.org/Graphics/SVG/1.1/DTD/svg11.dtd">
<!-- Generated by graphviz version 2.40.1 (20161225.0304)
 -->
<!-- Title: tinyformat::FormatList Pages: 1 -->
<svg width="226pt" height="92pt"
 viewBox="0.00 0.00 225.64 92.00" xmlns="http://www.w3.org/2000/svg" xmlns:xlink="http://www.w3.org/1999/xlink">
<g id="graph0" class="graph" transform="scale(1 1) rotate(0) translate(4 88)">
<title>tinyformat::FormatList</title>
<polygon fill="#ffffff" stroke="transparent" points="-4,4 -4,-88 221.6377,-88 221.6377,4 -4,4"/>
<!-- Node0 -->
<g id="node1" class="node">
<title>Node0</title>
<polygon fill="#bfbfbf" stroke="#000000" points="52.8892,-65.5 52.8892,-83.5 165.5786,-83.5 165.5786,-65.5 52.8892,-65.5"/>
<text text-anchor="middle" x="109.2339" y="-71.5" font-family="Helvetica,sans-Serif" font-size="10.00" fill="#000000">tinyformat::FormatList</text>
</g>
<!-- Node1 -->
<g id="node2" class="node">
<title>Node1</title>
<g id="a_node2"><a xlink:href="classtinyformat_1_1detail_1_1_format_list_n.html" target="_top" xlink:title="tinyformat::detail\l::FormatListN\&lt; N \&gt;">
<polygon fill="#ffffff" stroke="#000000" points="0,-.5 0,-28.5 100.4678,-28.5 100.4678,-.5 0,-.5"/>
<text text-anchor="start" x="8" y="-16.5" font-family="Helvetica,sans-Serif" font-size="10.00" fill="#000000">tinyformat::detail</text>
<text text-anchor="middle" x="50.2339" y="-6.5" font-family="Helvetica,sans-Serif" font-size="10.00" fill="#000000">::FormatListN&lt; N &gt;</text>
</a>
</g>
</g>
<!-- Node0&#45;&gt;Node1 -->
<g id="edge1" class="edge">
<title>Node0&#45;&gt;Node1</title>
<path fill="none" stroke="#191970" d="M93.0246,-58.016C84.0377,-48.8768 72.9702,-37.6216 64.3424,-28.8477"/>
<polygon fill="#191970" stroke="#191970" points="90.766,-60.711 100.2731,-65.3873 95.7572,-55.803 90.766,-60.711"/>
</g>
<!-- Node2 -->
<g id="node3" class="node">
<title>Node2</title>
<g id="a_node3"><a xlink:href="classtinyformat_1_1detail_1_1_format_list_n_3_010_01_4.html" target="_top" xlink:title="tinyformat::detail\l::FormatListN\&lt; 0 \&gt;">
<polygon fill="#ffffff" stroke="#000000" points="118.8301,-.5 118.8301,-28.5 217.6377,-28.5 217.6377,-.5 118.8301,-.5"/>
<text text-anchor="start" x="126.8301" y="-16.5" font-family="Helvetica,sans-Serif" font-size="10.00" fill="#000000">tinyformat::detail</text>
<text text-anchor="middle" x="168.2339" y="-6.5" font-family="Helvetica,sans-Serif" font-size="10.00" fill="#000000">::FormatListN&lt; 0 &gt;</text>
</a>
</g>
</g>
<!-- Node0&#45;&gt;Node2 -->
<g id="edge2" class="edge">
<title>Node0&#45;&gt;Node2</title>
<path fill="none" stroke="#191970" d="M125.4431,-58.016C134.4301,-48.8768 145.4976,-37.6216 154.1254,-28.8477"/>
<polygon fill="#191970" stroke="#191970" points="122.7106,-55.803 118.1947,-65.3873 127.7017,-60.711 122.7106,-55.803"/>
</g>
</g>
</svg>
