<?xml version="1.0" encoding="UTF-8" standalone="no"?>
<!DOCTYPE svg PUBLIC "-//W3C//DTD SVG 1.1//EN"
 "http://www.w3.org/Graphics/SVG/1.1/DTD/svg11.dtd">
<!-- Generated by graphviz version 2.40.1 (20161225.0304)
 -->
<!-- Title: RPCConsole::peerLayoutAboutToChange Pages: 1 -->
<svg width="914pt" height="84pt"
 viewBox="0.00 0.00 913.79 84.00" xmlns="http://www.w3.org/2000/svg" xmlns:xlink="http://www.w3.org/1999/xlink">
<g id="graph0" class="graph" transform="scale(1 1) rotate(0) translate(4 80)">
<title>RPCConsole::peerLayoutAboutToChange</title>
<polygon fill="#ffffff" stroke="transparent" points="-4,4 -4,-80 909.7852,-80 909.7852,4 -4,4"/>
<!-- Node167 -->
<g id="node1" class="node">
<title>Node167</title>
<polygon fill="#bfbfbf" stroke="#000000" points="0,-25.5 0,-53.5 155.5313,-53.5 155.5313,-25.5 0,-25.5"/>
<text text-anchor="start" x="8" y="-41.5" font-family="Helvetica,sans-Serif" font-size="10.00" fill="#000000">RPCConsole::peerLayoutAbout</text>
<text text-anchor="middle" x="77.7656" y="-31.5" font-family="Helvetica,sans-Serif" font-size="10.00" fill="#000000">ToChange</text>
</g>
<!-- Node168 -->
<g id="node2" class="node">
<title>Node168</title>
<g id="a_node2"><a xlink:href="class_r_p_c_console.html#a355349a33664a07628e9ca22a60f5fa7" target="_top" xlink:title="RPCConsole::setClientModel">
<polygon fill="#ffffff" stroke="#000000" points="191.5313,-30.5 191.5313,-48.5 337.0332,-48.5 337.0332,-30.5 191.5313,-30.5"/>
<text text-anchor="middle" x="264.2822" y="-36.5" font-family="Helvetica,sans-Serif" font-size="10.00" fill="#000000">RPCConsole::setClientModel</text>
</a>
</g>
</g>
<!-- Node167&#45;&gt;Node168 -->
<g id="edge1" class="edge">
<title>Node167&#45;&gt;Node168</title>
<path fill="none" stroke="#191970" d="M165.7853,-39.5C174.3422,-39.5 182.9581,-39.5 191.3436,-39.5"/>
<polygon fill="#191970" stroke="#191970" points="165.7848,-36.0001 155.7847,-39.5 165.7847,-43.0001 165.7848,-36.0001"/>
</g>
<!-- Node169 -->
<g id="node3" class="node">
<title>Node169</title>
<g id="a_node3"><a xlink:href="class_bitcoin_g_u_i.html#a99d71e1f8478ab937ce2522c8d3815e3" target="_top" xlink:title="Set the client model. ">
<polygon fill="#ffffff" stroke="#000000" points="373.0332,-30.5 373.0332,-48.5 508.5254,-48.5 508.5254,-30.5 373.0332,-30.5"/>
<text text-anchor="middle" x="440.7793" y="-36.5" font-family="Helvetica,sans-Serif" font-size="10.00" fill="#000000">BitcoinGUI::setClientModel</text>
</a>
</g>
</g>
<!-- Node168&#45;&gt;Node169 -->
<g id="edge2" class="edge">
<title>Node168&#45;&gt;Node169</title>
<path fill="none" stroke="#191970" d="M347.1757,-39.5C355.8117,-39.5 364.5162,-39.5 372.957,-39.5"/>
<polygon fill="#191970" stroke="#191970" points="347.0894,-36.0001 337.0893,-39.5 347.0893,-43.0001 347.0894,-36.0001"/>
</g>
<!-- Node170 -->
<g id="node4" class="node">
<title>Node170</title>
<g id="a_node4"><a xlink:href="class_bitcoin_application.html#a37c560d4c04d14a6da151b82caf8888f" target="_top" xlink:title="Request core shutdown. ">
<polygon fill="#ffffff" stroke="#000000" points="806.3965,-47.5 806.3965,-75.5 905.7852,-75.5 905.7852,-47.5 806.3965,-47.5"/>
<text text-anchor="start" x="814.3965" y="-63.5" font-family="Helvetica,sans-Serif" font-size="10.00" fill="#000000">BitcoinApplication</text>
<text text-anchor="middle" x="856.0908" y="-53.5" font-family="Helvetica,sans-Serif" font-size="10.00" fill="#000000">::requestShutdown</text>
</a>
</g>
</g>
<!-- Node169&#45;&gt;Node170 -->
<g id="edge3" class="edge">
<title>Node169&#45;&gt;Node170</title>
<path fill="none" stroke="#191970" d="M518.9331,-43.64C603.2359,-48.1057 734.9332,-55.082 806.2163,-58.858"/>
<polygon fill="#191970" stroke="#191970" points="519.0657,-40.1422 508.8945,-43.1082 518.6953,-47.1324 519.0657,-40.1422"/>
</g>
<!-- Node171 -->
<g id="node5" class="node">
<title>Node171</title>
<g id="a_node5"><a xlink:href="class_bitcoin_application.html#a5bcf1bf32a7508326e0dd630a59a887d" target="_top" xlink:title="BitcoinApplication\l::initializeResult">
<polygon fill="#ffffff" stroke="#000000" points="544.5254,-4.5 544.5254,-32.5 639.4609,-32.5 639.4609,-4.5 544.5254,-4.5"/>
<text text-anchor="start" x="552.5254" y="-20.5" font-family="Helvetica,sans-Serif" font-size="10.00" fill="#000000">BitcoinApplication</text>
<text text-anchor="middle" x="591.9932" y="-10.5" font-family="Helvetica,sans-Serif" font-size="10.00" fill="#000000">::initializeResult</text>
</a>
</g>
</g>
<!-- Node169&#45;&gt;Node171 -->
<g id="edge4" class="edge">
<title>Node169&#45;&gt;Node171</title>
<path fill="none" stroke="#191970" d="M515.8726,-29.0713C525.5822,-27.7229 535.303,-26.3729 544.3946,-25.1103"/>
<polygon fill="#191970" stroke="#191970" points="515.2086,-25.6299 505.7852,-30.4722 516.1716,-32.5633 515.2086,-25.6299"/>
</g>
<!-- Node172 -->
<g id="node6" class="node">
<title>Node172</title>
<g id="a_node6"><a xlink:href="class_bitcoin_application.html#a61afce9356e452c53ad4c83f5ca19df8" target="_top" xlink:title="BitcoinApplication\l::startThread">
<polygon fill="#ffffff" stroke="#000000" points="675.4609,-4.5 675.4609,-32.5 770.3965,-32.5 770.3965,-4.5 675.4609,-4.5"/>
<text text-anchor="start" x="683.4609" y="-20.5" font-family="Helvetica,sans-Serif" font-size="10.00" fill="#000000">BitcoinApplication</text>
<text text-anchor="middle" x="722.9287" y="-10.5" font-family="Helvetica,sans-Serif" font-size="10.00" fill="#000000">::startThread</text>
</a>
</g>
</g>
<!-- Node171&#45;&gt;Node172 -->
<g id="edge5" class="edge">
<title>Node171&#45;&gt;Node172</title>
<path fill="none" stroke="#191970" d="M649.8154,-18.5C658.2637,-18.5 666.8841,-18.5 675.1036,-18.5"/>
<polygon fill="#191970" stroke="#191970" points="649.6343,-15.0001 639.6343,-18.5 649.6343,-22.0001 649.6343,-15.0001"/>
</g>
<!-- Node172&#45;&gt;Node170 -->
<g id="edge7" class="edge">
<title>Node172&#45;&gt;Node170</title>
<path fill="none" stroke="#191970" d="M776.3971,-35.7657C788.3493,-39.6253 800.8885,-43.6744 812.3906,-47.3886"/>
<polygon fill="#191970" stroke="#191970" points="777.1227,-32.3221 766.531,-32.5798 774.9716,-38.9834 777.1227,-32.3221"/>
</g>
<!-- Node173 -->
<g id="node7" class="node">
<title>Node173</title>
<g id="a_node7"><a xlink:href="class_bitcoin_application.html#ade19c44b87b00b6b19b433caf4c22ba6" target="_top" xlink:title="Request core initialization. ">
<polygon fill="#ffffff" stroke="#000000" points="808.623,-.5 808.623,-28.5 903.5586,-28.5 903.5586,-.5 808.623,-.5"/>
<text text-anchor="start" x="816.623" y="-16.5" font-family="Helvetica,sans-Serif" font-size="10.00" fill="#000000">BitcoinApplication</text>
<text text-anchor="middle" x="856.0908" y="-6.5" font-family="Helvetica,sans-Serif" font-size="10.00" fill="#000000">::requestInitialize</text>
</a>
</g>
</g>
<!-- Node172&#45;&gt;Node173 -->
<g id="edge6" class="edge">
<title>Node172&#45;&gt;Node173</title>
<path fill="none" stroke="#191970" d="M780.8373,-16.7605C789.9979,-16.4853 799.3813,-16.2035 808.2778,-15.9362"/>
<polygon fill="#191970" stroke="#191970" points="780.5175,-13.2684 770.6272,-17.0672 780.7278,-20.2653 780.5175,-13.2684"/>
</g>
</g>
</svg>
