<?xml version="1.0" encoding="UTF-8" standalone="no"?>
<!DOCTYPE svg PUBLIC "-//W3C//DTD SVG 1.1//EN"
 "http://www.w3.org/Graphics/SVG/1.1/DTD/svg11.dtd">
<!-- Generated by graphviz version 2.40.1 (20161225.0304)
 -->
<!-- Title: WalletModel::getWalletName Pages: 1 -->
<svg width="870pt" height="233pt"
 viewBox="0.00 0.00 869.56 233.00" xmlns="http://www.w3.org/2000/svg" xmlns:xlink="http://www.w3.org/1999/xlink">
<g id="graph0" class="graph" transform="scale(1 1) rotate(0) translate(4 229)">
<title>WalletModel::getWalletName</title>
<polygon fill="#ffffff" stroke="transparent" points="-4,4 -4,-229 865.5635,-229 865.5635,4 -4,4"/>
<!-- Node245 -->
<g id="node1" class="node">
<title>Node245</title>
<polygon fill="#bfbfbf" stroke="#000000" points="0,-59.5 0,-77.5 144.2031,-77.5 144.2031,-59.5 0,-59.5"/>
<text text-anchor="middle" x="72.1016" y="-65.5" font-family="Helvetica,sans-Serif" font-size="10.00" fill="#000000">WalletModel::getWalletName</text>
</g>
<!-- Node246 -->
<g id="node2" class="node">
<title>Node246</title>
<g id="a_node2"><a xlink:href="class_bitcoin_application.html#a988801064ef82983ed3f5a8eb75411f5" target="_top" xlink:title="BitcoinApplication\l::addWallet">
<polygon fill="#ffffff" stroke="#000000" points="221.4214,-146.5 221.4214,-174.5 316.3569,-174.5 316.3569,-146.5 221.4214,-146.5"/>
<text text-anchor="start" x="229.4214" y="-162.5" font-family="Helvetica,sans-Serif" font-size="10.00" fill="#000000">BitcoinApplication</text>
<text text-anchor="middle" x="268.8892" y="-152.5" font-family="Helvetica,sans-Serif" font-size="10.00" fill="#000000">::addWallet</text>
</a>
</g>
</g>
<!-- Node245&#45;&gt;Node246 -->
<g id="edge1" class="edge">
<title>Node245&#45;&gt;Node246</title>
<path fill="none" stroke="#191970" d="M100.8988,-81.963C137.7795,-99.205 201.3915,-128.9442 238.8575,-146.4599"/>
<polygon fill="#191970" stroke="#191970" points="102.231,-78.7222 91.6898,-77.6577 99.2664,-85.0635 102.231,-78.7222"/>
</g>
<!-- Node251 -->
<g id="node7" class="node">
<title>Node251</title>
<g id="a_node7"><a xlink:href="class_receive_request_dialog.html#a8e1c0ee2fbacf42b4dc7ea05986c86c9" target="_top" xlink:title="ReceiveRequestDialog\l::update">
<polygon fill="#ffffff" stroke="#000000" points="210.0273,-76.5 210.0273,-104.5 327.751,-104.5 327.751,-76.5 210.0273,-76.5"/>
<text text-anchor="start" x="218.0273" y="-92.5" font-family="Helvetica,sans-Serif" font-size="10.00" fill="#000000">ReceiveRequestDialog</text>
<text text-anchor="middle" x="268.8892" y="-82.5" font-family="Helvetica,sans-Serif" font-size="10.00" fill="#000000">::update</text>
</a>
</g>
</g>
<!-- Node245&#45;&gt;Node251 -->
<g id="edge6" class="edge">
<title>Node245&#45;&gt;Node251</title>
<path fill="none" stroke="#191970" d="M154.2474,-77.6835C172.9448,-79.7738 192.4473,-81.9541 209.9526,-83.9112"/>
<polygon fill="#191970" stroke="#191970" points="154.5876,-74.1999 144.2606,-76.5671 153.8098,-81.1565 154.5876,-74.1999"/>
</g>
<!-- Node256 -->
<g id="node12" class="node">
<title>Node256</title>
<g id="a_node12"><a xlink:href="class_wallet_frame.html#a06cb28194836995e50cc46716b2227ff" target="_top" xlink:title="WalletFrame::addWallet">
<polygon fill="#ffffff" stroke="#000000" points="571.9473,-27.5 571.9473,-45.5 693.9141,-45.5 693.9141,-27.5 571.9473,-27.5"/>
<text text-anchor="middle" x="632.9307" y="-33.5" font-family="Helvetica,sans-Serif" font-size="10.00" fill="#000000">WalletFrame::addWallet</text>
</a>
</g>
</g>
<!-- Node245&#45;&gt;Node256 -->
<g id="edge12" class="edge">
<title>Node245&#45;&gt;Node256</title>
<path fill="none" stroke="#191970" d="M154.315,-63.809C267.9749,-57.3238 470.5216,-45.7668 571.7744,-39.9895"/>
<polygon fill="#191970" stroke="#191970" points="154.0564,-60.318 144.272,-64.3821 154.4552,-67.3066 154.0564,-60.318"/>
</g>
<!-- Node257 -->
<g id="node13" class="node">
<title>Node257</title>
<g id="a_node13"><a xlink:href="class_wallet_view.html#addde7d2260658ee06f47f9c095a8cb2a" target="_top" xlink:title="Show incoming transaction notification for new transactions. ">
<polygon fill="#ffffff" stroke="#000000" points="180.2031,-.5 180.2031,-18.5 357.5752,-18.5 357.5752,-.5 180.2031,-.5"/>
<text text-anchor="middle" x="268.8892" y="-6.5" font-family="Helvetica,sans-Serif" font-size="10.00" fill="#000000">WalletView::processNewTransaction</text>
</a>
</g>
</g>
<!-- Node245&#45;&gt;Node257 -->
<g id="edge13" class="edge">
<title>Node245&#45;&gt;Node257</title>
<path fill="none" stroke="#191970" d="M108.8233,-56.1184C129.6779,-49.2107 156.314,-40.5951 180.2031,-33.5 197.7873,-28.2775 217.4698,-22.9039 233.817,-18.5689"/>
<polygon fill="#191970" stroke="#191970" points="107.4707,-52.8797 99.0874,-59.3581 109.681,-59.5216 107.4707,-52.8797"/>
</g>
<!-- Node247 -->
<g id="node3" class="node">
<title>Node247</title>
<g id="a_node3"><a xlink:href="class_bitcoin_application.html#a5bcf1bf32a7508326e0dd630a59a887d" target="_top" xlink:title="BitcoinApplication\l::initializeResult">
<polygon fill="#ffffff" stroke="#000000" points="415.3403,-170.5 415.3403,-198.5 510.2759,-198.5 510.2759,-170.5 415.3403,-170.5"/>
<text text-anchor="start" x="423.3403" y="-186.5" font-family="Helvetica,sans-Serif" font-size="10.00" fill="#000000">BitcoinApplication</text>
<text text-anchor="middle" x="462.8081" y="-176.5" font-family="Helvetica,sans-Serif" font-size="10.00" fill="#000000">::initializeResult</text>
</a>
</g>
</g>
<!-- Node246&#45;&gt;Node247 -->
<g id="edge2" class="edge">
<title>Node246&#45;&gt;Node247</title>
<path fill="none" stroke="#191970" d="M326.9319,-167.6836C355.0715,-171.1662 388.4543,-175.2977 415.0888,-178.5941"/>
<polygon fill="#191970" stroke="#191970" points="327.1784,-164.1874 316.8242,-166.4326 326.3186,-171.1344 327.1784,-164.1874"/>
</g>
<!-- Node248 -->
<g id="node4" class="node">
<title>Node248</title>
<g id="a_node4"><a xlink:href="class_bitcoin_application.html#a61afce9356e452c53ad4c83f5ca19df8" target="_top" xlink:title="BitcoinApplication\l::startThread">
<polygon fill="#ffffff" stroke="#000000" points="585.4629,-170.5 585.4629,-198.5 680.3984,-198.5 680.3984,-170.5 585.4629,-170.5"/>
<text text-anchor="start" x="593.4629" y="-186.5" font-family="Helvetica,sans-Serif" font-size="10.00" fill="#000000">BitcoinApplication</text>
<text text-anchor="middle" x="632.9307" y="-176.5" font-family="Helvetica,sans-Serif" font-size="10.00" fill="#000000">::startThread</text>
</a>
</g>
</g>
<!-- Node247&#45;&gt;Node248 -->
<g id="edge3" class="edge">
<title>Node247&#45;&gt;Node248</title>
<path fill="none" stroke="#191970" d="M520.7684,-184.5C541.8399,-184.5 565.389,-184.5 585.4484,-184.5"/>
<polygon fill="#191970" stroke="#191970" points="520.6495,-181.0001 510.6494,-184.5 520.6494,-188.0001 520.6495,-181.0001"/>
</g>
<!-- Node249 -->
<g id="node5" class="node">
<title>Node249</title>
<g id="a_node5"><a xlink:href="class_bitcoin_application.html#ade19c44b87b00b6b19b433caf4c22ba6" target="_top" xlink:title="Request core initialization. ">
<polygon fill="#ffffff" stroke="#000000" points="750.2241,-196.5 750.2241,-224.5 845.1597,-224.5 845.1597,-196.5 750.2241,-196.5"/>
<text text-anchor="start" x="758.2241" y="-212.5" font-family="Helvetica,sans-Serif" font-size="10.00" fill="#000000">BitcoinApplication</text>
<text text-anchor="middle" x="797.6919" y="-202.5" font-family="Helvetica,sans-Serif" font-size="10.00" fill="#000000">::requestInitialize</text>
</a>
</g>
</g>
<!-- Node248&#45;&gt;Node249 -->
<g id="edge4" class="edge">
<title>Node248&#45;&gt;Node249</title>
<path fill="none" stroke="#191970" d="M690.5583,-193.5939C710.032,-196.6669 731.54,-200.061 750.1432,-202.9966"/>
<polygon fill="#191970" stroke="#191970" points="691.0098,-190.1219 680.5864,-192.0203 689.9186,-197.0363 691.0098,-190.1219"/>
</g>
<!-- Node250 -->
<g id="node6" class="node">
<title>Node250</title>
<g id="a_node6"><a xlink:href="class_bitcoin_application.html#a37c560d4c04d14a6da151b82caf8888f" target="_top" xlink:title="Request core shutdown. ">
<polygon fill="#ffffff" stroke="#000000" points="747.9976,-149.5 747.9976,-177.5 847.3862,-177.5 847.3862,-149.5 747.9976,-149.5"/>
<text text-anchor="start" x="755.9976" y="-165.5" font-family="Helvetica,sans-Serif" font-size="10.00" fill="#000000">BitcoinApplication</text>
<text text-anchor="middle" x="797.6919" y="-155.5" font-family="Helvetica,sans-Serif" font-size="10.00" fill="#000000">::requestShutdown</text>
</a>
</g>
</g>
<!-- Node248&#45;&gt;Node250 -->
<g id="edge5" class="edge">
<title>Node248&#45;&gt;Node250</title>
<path fill="none" stroke="#191970" d="M690.7215,-177.1341C709.3562,-174.759 729.8389,-172.1483 747.8494,-169.8528"/>
<polygon fill="#191970" stroke="#191970" points="690.0636,-173.6896 680.5864,-178.4259 690.9487,-180.6334 690.0636,-173.6896"/>
</g>
<!-- Node252 -->
<g id="node8" class="node">
<title>Node252</title>
<g id="a_node8"><a xlink:href="class_receive_request_dialog.html#a2392a9b3bf94d7267dee0695049711a6" target="_top" xlink:title="ReceiveRequestDialog\l::setModel">
<polygon fill="#ffffff" stroke="#000000" points="403.9463,-123.5 403.9463,-151.5 521.6699,-151.5 521.6699,-123.5 403.9463,-123.5"/>
<text text-anchor="start" x="411.9463" y="-139.5" font-family="Helvetica,sans-Serif" font-size="10.00" fill="#000000">ReceiveRequestDialog</text>
<text text-anchor="middle" x="462.8081" y="-129.5" font-family="Helvetica,sans-Serif" font-size="10.00" fill="#000000">::setModel</text>
</a>
</g>
</g>
<!-- Node251&#45;&gt;Node252 -->
<g id="edge7" class="edge">
<title>Node251&#45;&gt;Node252</title>
<path fill="none" stroke="#191970" d="M336.5312,-106.8944C358.8079,-112.2935 383.3637,-118.2451 404.8523,-123.4533"/>
<polygon fill="#191970" stroke="#191970" points="337.3516,-103.4919 326.8086,-104.5379 335.7027,-110.295 337.3516,-103.4919"/>
</g>
<!-- Node255 -->
<g id="node11" class="node">
<title>Node255</title>
<g id="a_node11"><a xlink:href="class_receive_request_dialog.html#a43344270ef71e68ad9c7a931cc0ca9ed" target="_top" xlink:title="ReceiveRequestDialog\l::setInfo">
<polygon fill="#ffffff" stroke="#000000" points="403.9463,-76.5 403.9463,-104.5 521.6699,-104.5 521.6699,-76.5 403.9463,-76.5"/>
<text text-anchor="start" x="411.9463" y="-92.5" font-family="Helvetica,sans-Serif" font-size="10.00" fill="#000000">ReceiveRequestDialog</text>
<text text-anchor="middle" x="462.8081" y="-82.5" font-family="Helvetica,sans-Serif" font-size="10.00" fill="#000000">::setInfo</text>
</a>
</g>
</g>
<!-- Node251&#45;&gt;Node255 -->
<g id="edge10" class="edge">
<title>Node251&#45;&gt;Node255</title>
<path fill="none" stroke="#191970" d="M337.9221,-90.5C359.4563,-90.5 382.9997,-90.5 403.7826,-90.5"/>
<polygon fill="#191970" stroke="#191970" points="337.8611,-87.0001 327.8611,-90.5 337.861,-94.0001 337.8611,-87.0001"/>
</g>
<!-- Node253 -->
<g id="node9" class="node">
<title>Node253</title>
<g id="a_node9"><a xlink:href="class_receive_coins_dialog.html#a5eabd6106c8e3b275305b84c0303f314" target="_top" xlink:title="ReceiveCoinsDialog\l::on_recentRequestsView\l_doubleClicked">
<polygon fill="#ffffff" stroke="#000000" points="568.041,-81.5 568.041,-119.5 697.8203,-119.5 697.8203,-81.5 568.041,-81.5"/>
<text text-anchor="start" x="576.041" y="-107.5" font-family="Helvetica,sans-Serif" font-size="10.00" fill="#000000">ReceiveCoinsDialog</text>
<text text-anchor="start" x="576.041" y="-97.5" font-family="Helvetica,sans-Serif" font-size="10.00" fill="#000000">::on_recentRequestsView</text>
<text text-anchor="middle" x="632.9307" y="-87.5" font-family="Helvetica,sans-Serif" font-size="10.00" fill="#000000">_doubleClicked</text>
</a>
</g>
</g>
<!-- Node252&#45;&gt;Node253 -->
<g id="edge8" class="edge">
<title>Node252&#45;&gt;Node253</title>
<path fill="none" stroke="#191970" d="M531.74,-122.508C543.6854,-119.91 556.0713,-117.2162 567.9083,-114.6417"/>
<polygon fill="#191970" stroke="#191970" points="530.859,-119.1177 521.8313,-124.663 532.3467,-125.9578 530.859,-119.1177"/>
</g>
<!-- Node254 -->
<g id="node10" class="node">
<title>Node254</title>
<g id="a_node10"><a xlink:href="class_receive_coins_dialog.html#a56df78045de75af55f4c4045ad4b7fcd" target="_top" xlink:title="ReceiveCoinsDialog\l::on_showRequestButton\l_clicked">
<polygon fill="#ffffff" stroke="#000000" points="733.8203,-81.5 733.8203,-119.5 861.5635,-119.5 861.5635,-81.5 733.8203,-81.5"/>
<text text-anchor="start" x="741.8203" y="-107.5" font-family="Helvetica,sans-Serif" font-size="10.00" fill="#000000">ReceiveCoinsDialog</text>
<text text-anchor="start" x="741.8203" y="-97.5" font-family="Helvetica,sans-Serif" font-size="10.00" fill="#000000">::on_showRequestButton</text>
<text text-anchor="middle" x="797.6919" y="-87.5" font-family="Helvetica,sans-Serif" font-size="10.00" fill="#000000">_clicked</text>
</a>
</g>
</g>
<!-- Node253&#45;&gt;Node254 -->
<g id="edge9" class="edge">
<title>Node253&#45;&gt;Node254</title>
<path fill="none" stroke="#191970" d="M708.2866,-100.5C716.74,-100.5 725.2928,-100.5 733.5855,-100.5"/>
<polygon fill="#191970" stroke="#191970" points="708.0487,-97.0001 698.0487,-100.5 708.0486,-104.0001 708.0487,-97.0001"/>
</g>
<!-- Node255&#45;&gt;Node253 -->
<g id="edge11" class="edge">
<title>Node255&#45;&gt;Node253</title>
<path fill="none" stroke="#191970" d="M532.0985,-94.573C543.9331,-95.2686 556.1897,-95.9891 567.9083,-96.6779"/>
<polygon fill="#191970" stroke="#191970" points="532.0195,-91.0624 521.8313,-93.9695 531.6086,-98.0503 532.0195,-91.0624"/>
</g>
<!-- Node258 -->
<g id="node14" class="node">
<title>Node258</title>
<g id="a_node14"><a xlink:href="class_wallet_view.html#a0a37ff693a4f9c1e5ddc23f9cd3913be" target="_top" xlink:title="Set the wallet model. ">
<polygon fill="#ffffff" stroke="#000000" points="393.5752,-.5 393.5752,-18.5 532.041,-18.5 532.041,-.5 393.5752,-.5"/>
<text text-anchor="middle" x="462.8081" y="-6.5" font-family="Helvetica,sans-Serif" font-size="10.00" fill="#000000">WalletView::setWalletModel</text>
</a>
</g>
</g>
<!-- Node257&#45;&gt;Node258 -->
<g id="edge14" class="edge">
<title>Node257&#45;&gt;Node258</title>
<path fill="none" stroke="#191970" d="M367.7408,-9.5C376.3687,-9.5 384.9766,-9.5 393.2911,-9.5"/>
<polygon fill="#191970" stroke="#191970" points="367.6197,-6.0001 357.6197,-9.5 367.6196,-13.0001 367.6197,-6.0001"/>
</g>
<!-- Node258&#45;&gt;Node256 -->
<g id="edge15" class="edge">
<title>Node258&#45;&gt;Node256</title>
<path fill="none" stroke="#191970" d="M529.8211,-20.1356C545.0848,-22.5581 561.1612,-25.1095 575.9598,-27.4582"/>
<polygon fill="#191970" stroke="#191970" points="530.3547,-16.6765 519.9297,-18.5657 529.2575,-23.59 530.3547,-16.6765"/>
</g>
</g>
</svg>
