<?xml version="1.0" encoding="UTF-8" standalone="no"?>
<!DOCTYPE svg PUBLIC "-//W3C//DTD SVG 1.1//EN"
 "http://www.w3.org/Graphics/SVG/1.1/DTD/svg11.dtd">
<!-- Generated by graphviz version 2.40.1 (20161225.0304)
 -->
<!-- Title: TransactionTableModel::unsubscribeFromCoreSignals Pages: 1 -->
<svg width="328pt" height="37pt"
 viewBox="0.00 0.00 327.70 37.00" xmlns="http://www.w3.org/2000/svg" xmlns:xlink="http://www.w3.org/1999/xlink">
<g id="graph0" class="graph" transform="scale(1 1) rotate(0) translate(4 33)">
<title>TransactionTableModel::unsubscribeFromCoreSignals</title>
<polygon fill="#ffffff" stroke="transparent" points="-4,4 -4,-33 323.6992,-33 323.6992,4 -4,4"/>
<!-- Node336 -->
<g id="node1" class="node">
<title>Node336</title>
<polygon fill="#bfbfbf" stroke="#000000" points="0,-.5 0,-28.5 153.2803,-28.5 153.2803,-.5 0,-.5"/>
<text text-anchor="start" x="8" y="-16.5" font-family="Helvetica,sans-Serif" font-size="10.00" fill="#000000">TransactionTableModel</text>
<text text-anchor="middle" x="76.6401" y="-6.5" font-family="Helvetica,sans-Serif" font-size="10.00" fill="#000000">::unsubscribeFromCoreSignals</text>
</g>
<!-- Node337 -->
<g id="node2" class="node">
<title>Node337</title>
<g id="a_node2"><a xlink:href="class_transaction_table_model.html#a02b12458092e9584bc19ec7b65d8bd58" target="_top" xlink:title="TransactionTableModel\l::~TransactionTableModel">
<polygon fill="#ffffff" stroke="#000000" points="189.2803,-.5 189.2803,-28.5 319.6992,-28.5 319.6992,-.5 189.2803,-.5"/>
<text text-anchor="start" x="197.2803" y="-16.5" font-family="Helvetica,sans-Serif" font-size="10.00" fill="#000000">TransactionTableModel</text>
<text text-anchor="middle" x="254.4897" y="-6.5" font-family="Helvetica,sans-Serif" font-size="10.00" fill="#000000">::~TransactionTableModel</text>
</a>
</g>
</g>
<!-- Node336&#45;&gt;Node337 -->
<g id="edge1" class="edge">
<title>Node336&#45;&gt;Node337</title>
<path fill="none" stroke="#191970" d="M163.4803,-14.5C172.1328,-14.5 180.8116,-14.5 189.1888,-14.5"/>
<polygon fill="#191970" stroke="#191970" points="163.3548,-11.0001 153.3548,-14.5 163.3548,-18.0001 163.3548,-11.0001"/>
</g>
</g>
</svg>
