<?xml version="1.0" encoding="UTF-8" standalone="no"?>
<!DOCTYPE svg PUBLIC "-//W3C//DTD SVG 1.1//EN"
 "http://www.w3.org/Graphics/SVG/1.1/DTD/svg11.dtd">
<!-- Generated by graphviz version 2.40.1 (20161225.0304)
 -->
<!-- Title: SendCoinsEntry::removeEntry Pages: 1 -->
<svg width="1104pt" height="232pt"
 viewBox="0.00 0.00 1103.51 232.00" xmlns="http://www.w3.org/2000/svg" xmlns:xlink="http://www.w3.org/1999/xlink">
<g id="graph0" class="graph" transform="scale(1 1) rotate(0) translate(4 228)">
<title>SendCoinsEntry::removeEntry</title>
<polygon fill="#ffffff" stroke="transparent" points="-4,4 -4,-228 1099.5068,-228 1099.5068,4 -4,4"/>
<!-- Node122 -->
<g id="node1" class="node">
<title>Node122</title>
<polygon fill="#bfbfbf" stroke="#000000" points="0,-63.5 0,-81.5 150.502,-81.5 150.502,-63.5 0,-63.5"/>
<text text-anchor="middle" x="75.251" y="-69.5" font-family="Helvetica,sans-Serif" font-size="10.00" fill="#000000">SendCoinsEntry::removeEntry</text>
</g>
<!-- Node123 -->
<g id="node2" class="node">
<title>Node123</title>
<g id="a_node2"><a xlink:href="class_send_coins_dialog.html#a3d680a76b967641115c6ff2fa83fb62a" target="_top" xlink:title="SendCoinsDialog::addEntry">
<polygon fill="#ffffff" stroke="#000000" points="194.002,-121.5 194.002,-139.5 332.8535,-139.5 332.8535,-121.5 194.002,-121.5"/>
<text text-anchor="middle" x="263.4277" y="-127.5" font-family="Helvetica,sans-Serif" font-size="10.00" fill="#000000">SendCoinsDialog::addEntry</text>
</a>
</g>
</g>
<!-- Node122&#45;&gt;Node123 -->
<g id="edge1" class="edge">
<title>Node122&#45;&gt;Node123</title>
<path fill="none" stroke="#191970" d="M114.2315,-84.5146C149.8226,-95.4845 201.6603,-111.462 233.9217,-121.4056"/>
<polygon fill="#191970" stroke="#191970" points="115.2409,-81.1633 104.6536,-81.5625 113.179,-87.8528 115.2409,-81.1633"/>
</g>
<!-- Node135 -->
<g id="node14" class="node">
<title>Node135</title>
<g id="a_node14"><a xlink:href="class_send_coins_entry.html#aa749b51119d0504f204bbf7c90744e2e" target="_top" xlink:title="SendCoinsEntry::deleteClicked">
<polygon fill="#ffffff" stroke="#000000" points="186.502,-45.5 186.502,-63.5 340.3535,-63.5 340.3535,-45.5 186.502,-45.5"/>
<text text-anchor="middle" x="263.4277" y="-51.5" font-family="Helvetica,sans-Serif" font-size="10.00" fill="#000000">SendCoinsEntry::deleteClicked</text>
</a>
</g>
</g>
<!-- Node122&#45;&gt;Node135 -->
<g id="edge15" class="edge">
<title>Node122&#45;&gt;Node135</title>
<path fill="none" stroke="#191970" d="M160.7056,-64.3259C169.2767,-63.506 177.9442,-62.6769 186.4204,-61.8661"/>
<polygon fill="#191970" stroke="#191970" points="160.3267,-60.846 150.7054,-65.2824 160.9933,-67.8142 160.3267,-60.846"/>
</g>
<!-- Node124 -->
<g id="node3" class="node">
<title>Node124</title>
<g id="a_node3"><a xlink:href="class_send_coins_dialog.html#affacd36b4df87a68e2fe706ef388c0a6" target="_top" xlink:title="SendCoinsDialog::SendCoins\lDialog">
<polygon fill="#ffffff" stroke="#000000" points="578.1509,-195.5 578.1509,-223.5 725.8989,-223.5 725.8989,-195.5 578.1509,-195.5"/>
<text text-anchor="start" x="586.1509" y="-211.5" font-family="Helvetica,sans-Serif" font-size="10.00" fill="#000000">SendCoinsDialog::SendCoins</text>
<text text-anchor="middle" x="652.0249" y="-201.5" font-family="Helvetica,sans-Serif" font-size="10.00" fill="#000000">Dialog</text>
</a>
</g>
</g>
<!-- Node123&#45;&gt;Node124 -->
<g id="edge2" class="edge">
<title>Node123&#45;&gt;Node124</title>
<path fill="none" stroke="#191970" d="M285.9711,-144.8821C308.0603,-158.1827 343.1524,-177.2469 376.3535,-186.5 442.8563,-205.0342 521.5949,-210.0057 577.859,-210.8021"/>
<polygon fill="#191970" stroke="#191970" points="287.6961,-141.8341 277.3438,-139.5801 284.031,-147.7979 287.6961,-141.8341"/>
</g>
<!-- Node125 -->
<g id="node4" class="node">
<title>Node125</title>
<g id="a_node4"><a xlink:href="class_send_coins_dialog.html#a127bddff45f49ff5e6e263efe218ae26" target="_top" xlink:title="SendCoinsDialog::clear">
<polygon fill="#ffffff" stroke="#000000" points="393.8584,-158.5 393.8584,-176.5 514.3604,-176.5 514.3604,-158.5 393.8584,-158.5"/>
<text text-anchor="middle" x="454.1094" y="-164.5" font-family="Helvetica,sans-Serif" font-size="10.00" fill="#000000">SendCoinsDialog::clear</text>
</a>
</g>
</g>
<!-- Node123&#45;&gt;Node125 -->
<g id="edge3" class="edge">
<title>Node123&#45;&gt;Node125</title>
<path fill="none" stroke="#191970" d="M320.0914,-141.4951C347.9972,-146.9099 381.2261,-153.3577 407.6149,-158.4782"/>
<polygon fill="#191970" stroke="#191970" points="320.5573,-138.0203 310.0737,-139.5512 319.2239,-144.8921 320.5573,-138.0203"/>
</g>
<!-- Node128 -->
<g id="node7" class="node">
<title>Node128</title>
<g id="a_node7"><a xlink:href="class_send_coins_dialog.html#aabd82a79bd2358493f36425f1d62136b" target="_top" xlink:title="SendCoinsDialog::removeEntry">
<polygon fill="#ffffff" stroke="#000000" points="376.3535,-121.5 376.3535,-139.5 531.8652,-139.5 531.8652,-121.5 376.3535,-121.5"/>
<text text-anchor="middle" x="454.1094" y="-127.5" font-family="Helvetica,sans-Serif" font-size="10.00" fill="#000000">SendCoinsDialog::removeEntry</text>
</a>
</g>
</g>
<!-- Node123&#45;&gt;Node128 -->
<g id="edge7" class="edge">
<title>Node123&#45;&gt;Node128</title>
<path fill="none" stroke="#191970" d="M343.4032,-123.8285C354.2804,-123.7165 365.4316,-123.7243 376.2704,-123.8521"/>
<polygon fill="#191970" stroke="#191970" points="343.0277,-120.3333 333.0776,-123.9727 343.1255,-127.3327 343.0277,-120.3333"/>
</g>
<!-- Node129 -->
<g id="node8" class="node">
<title>Node129</title>
<g id="a_node8"><a xlink:href="class_send_coins_dialog.html#a920b2dbf121ca3cfac2adc56e96295f8" target="_top" xlink:title="SendCoinsDialog::setAddress">
<polygon fill="#ffffff" stroke="#000000" points="379.6836,-84.5 379.6836,-102.5 528.5352,-102.5 528.5352,-84.5 379.6836,-84.5"/>
<text text-anchor="middle" x="454.1094" y="-90.5" font-family="Helvetica,sans-Serif" font-size="10.00" fill="#000000">SendCoinsDialog::setAddress</text>
</a>
</g>
</g>
<!-- Node123&#45;&gt;Node129 -->
<g id="edge9" class="edge">
<title>Node123&#45;&gt;Node129</title>
<path fill="none" stroke="#191970" d="M320.0914,-119.5049C347.9972,-114.0901 381.2261,-107.6423 407.6149,-102.5218"/>
<polygon fill="#191970" stroke="#191970" points="319.2239,-116.1079 310.0737,-121.4488 320.5573,-122.9797 319.2239,-116.1079"/>
</g>
<!-- Node131 -->
<g id="node10" class="node">
<title>Node131</title>
<g id="a_node10"><a xlink:href="class_send_coins_dialog.html#a4440d15ced5d217baaad33a17d56b409" target="_top" xlink:title="SendCoinsDialog::pasteEntry">
<polygon fill="#ffffff" stroke="#000000" points="380.7944,-47.5 380.7944,-65.5 527.4243,-65.5 527.4243,-47.5 380.7944,-47.5"/>
<text text-anchor="middle" x="454.1094" y="-53.5" font-family="Helvetica,sans-Serif" font-size="10.00" fill="#000000">SendCoinsDialog::pasteEntry</text>
</a>
</g>
</g>
<!-- Node123&#45;&gt;Node131 -->
<g id="edge11" class="edge">
<title>Node123&#45;&gt;Node131</title>
<path fill="none" stroke="#191970" d="M288.2636,-116.486C310.7085,-104.2905 344.9457,-86.8384 376.3535,-75.5 387.0716,-71.6307 398.9011,-68.2908 410.0305,-65.5381"/>
<polygon fill="#191970" stroke="#191970" points="286.4834,-113.4706 279.409,-121.3576 289.8577,-119.6037 286.4834,-113.4706"/>
</g>
<!-- Node125&#45;&gt;Node124 -->
<g id="edge4" class="edge">
<title>Node125&#45;&gt;Node124</title>
<path fill="none" stroke="#191970" d="M506.6644,-178.6528C530.9697,-183.8107 560.1027,-189.993 585.8844,-195.4642"/>
<polygon fill="#191970" stroke="#191970" points="507.076,-175.1623 496.5672,-176.5101 505.6228,-182.0098 507.076,-175.1623"/>
</g>
<!-- Node126 -->
<g id="node5" class="node">
<title>Node126</title>
<g id="a_node5"><a xlink:href="class_send_coins_dialog.html#a4879553d77d29f522ac92ac04580f4ad" target="_top" xlink:title="SendCoinsDialog::reject">
<polygon fill="#ffffff" stroke="#000000" points="590.3848,-158.5 590.3848,-176.5 713.665,-176.5 713.665,-158.5 590.3848,-158.5"/>
<text text-anchor="middle" x="652.0249" y="-164.5" font-family="Helvetica,sans-Serif" font-size="10.00" fill="#000000">SendCoinsDialog::reject</text>
</a>
</g>
</g>
<!-- Node125&#45;&gt;Node126 -->
<g id="edge5" class="edge">
<title>Node125&#45;&gt;Node126</title>
<path fill="none" stroke="#191970" d="M524.5866,-167.5C546.0241,-167.5 569.4108,-167.5 590.23,-167.5"/>
<polygon fill="#191970" stroke="#191970" points="524.566,-164.0001 514.566,-167.5 524.5659,-171.0001 524.566,-164.0001"/>
</g>
<!-- Node127 -->
<g id="node6" class="node">
<title>Node127</title>
<g id="a_node6"><a xlink:href="class_send_coins_dialog.html#af2185c3d29e43d37c30669f0def46060" target="_top" xlink:title="SendCoinsDialog::accept">
<polygon fill="#ffffff" stroke="#000000" points="587.8799,-121.5 587.8799,-139.5 716.1699,-139.5 716.1699,-121.5 587.8799,-121.5"/>
<text text-anchor="middle" x="652.0249" y="-127.5" font-family="Helvetica,sans-Serif" font-size="10.00" fill="#000000">SendCoinsDialog::accept</text>
</a>
</g>
</g>
<!-- Node125&#45;&gt;Node127 -->
<g id="edge6" class="edge">
<title>Node125&#45;&gt;Node127</title>
<path fill="none" stroke="#191970" d="M512.2897,-156.6233C541.3414,-151.1921 576.0759,-144.6985 603.6464,-139.5443"/>
<polygon fill="#191970" stroke="#191970" points="511.4584,-153.218 502.2719,-158.4961 512.7448,-160.0988 511.4584,-153.218"/>
</g>
<!-- Node128&#45;&gt;Node123 -->
<g id="edge8" class="edge">
<title>Node128&#45;&gt;Node123</title>
<path fill="none" stroke="#191970" d="M366.1415,-137.232C355.0524,-137.2862 343.8295,-137.2179 333.0776,-137.0273"/>
<polygon fill="#191970" stroke="#191970" points="366.2998,-140.7309 376.2704,-137.1479 366.2416,-133.7312 366.2998,-140.7309"/>
</g>
<!-- Node130 -->
<g id="node9" class="node">
<title>Node130</title>
<g id="a_node9"><a xlink:href="class_wallet_view.html#a2a70c2b00b097dd7b83b6915bb037ea3" target="_top" xlink:title="Switch to send coins page. ">
<polygon fill="#ffffff" stroke="#000000" points="570.9194,-84.5 570.9194,-102.5 733.1304,-102.5 733.1304,-84.5 570.9194,-84.5"/>
<text text-anchor="middle" x="652.0249" y="-90.5" font-family="Helvetica,sans-Serif" font-size="10.00" fill="#000000">WalletView::gotoSendCoinsPage</text>
</a>
</g>
</g>
<!-- Node129&#45;&gt;Node130 -->
<g id="edge10" class="edge">
<title>Node129&#45;&gt;Node130</title>
<path fill="none" stroke="#191970" d="M538.7034,-93.5C549.2768,-93.5 560.0737,-93.5 570.5974,-93.5"/>
<polygon fill="#191970" stroke="#191970" points="538.6508,-90.0001 528.6507,-93.5 538.6507,-97.0001 538.6508,-90.0001"/>
</g>
<!-- Node132 -->
<g id="node11" class="node">
<title>Node132</title>
<g id="a_node11"><a xlink:href="class_send_coins_dialog.html#a82ed6a3badadaa523415e1924ebd292a" target="_top" xlink:title="SendCoinsDialog::handlePayment\lRequest">
<polygon fill="#ffffff" stroke="#000000" points="567.8652,-37.5 567.8652,-65.5 736.1846,-65.5 736.1846,-37.5 567.8652,-37.5"/>
<text text-anchor="start" x="575.8652" y="-53.5" font-family="Helvetica,sans-Serif" font-size="10.00" fill="#000000">SendCoinsDialog::handlePayment</text>
<text text-anchor="middle" x="652.0249" y="-43.5" font-family="Helvetica,sans-Serif" font-size="10.00" fill="#000000">Request</text>
</a>
</g>
</g>
<!-- Node131&#45;&gt;Node132 -->
<g id="edge12" class="edge">
<title>Node131&#45;&gt;Node132</title>
<path fill="none" stroke="#191970" d="M537.7601,-54.3867C547.6716,-54.1363 557.7931,-53.8806 567.7137,-53.63"/>
<polygon fill="#191970" stroke="#191970" points="537.4329,-50.8938 527.5246,-54.6453 537.6098,-57.8915 537.4329,-50.8938"/>
</g>
<!-- Node133 -->
<g id="node12" class="node">
<title>Node133</title>
<g id="a_node12"><a xlink:href="class_wallet_view.html#a0ae21d91a9d7755026ce2a6846cef68d" target="_top" xlink:title="WalletView::handlePayment\lRequest">
<polygon fill="#ffffff" stroke="#000000" points="772.1846,-37.5 772.1846,-65.5 912.1494,-65.5 912.1494,-37.5 772.1846,-37.5"/>
<text text-anchor="start" x="780.1846" y="-53.5" font-family="Helvetica,sans-Serif" font-size="10.00" fill="#000000">WalletView::handlePayment</text>
<text text-anchor="middle" x="842.167" y="-43.5" font-family="Helvetica,sans-Serif" font-size="10.00" fill="#000000">Request</text>
</a>
</g>
</g>
<!-- Node132&#45;&gt;Node133 -->
<g id="edge13" class="edge">
<title>Node132&#45;&gt;Node133</title>
<path fill="none" stroke="#191970" d="M746.3497,-51.5C754.9671,-51.5 763.5927,-51.5 771.9433,-51.5"/>
<polygon fill="#191970" stroke="#191970" points="746.2544,-48.0001 736.2543,-51.5 746.2543,-55.0001 746.2544,-48.0001"/>
</g>
<!-- Node134 -->
<g id="node13" class="node">
<title>Node134</title>
<g id="a_node13"><a xlink:href="class_wallet_frame.html#aa8c5b10f2240df164795619ca41c619c" target="_top" xlink:title="WalletFrame::handlePayment\lRequest">
<polygon fill="#ffffff" stroke="#000000" points="948.1494,-37.5 948.1494,-65.5 1095.5068,-65.5 1095.5068,-37.5 948.1494,-37.5"/>
<text text-anchor="start" x="956.1494" y="-53.5" font-family="Helvetica,sans-Serif" font-size="10.00" fill="#000000">WalletFrame::handlePayment</text>
<text text-anchor="middle" x="1021.8281" y="-43.5" font-family="Helvetica,sans-Serif" font-size="10.00" fill="#000000">Request</text>
</a>
</g>
</g>
<!-- Node133&#45;&gt;Node134 -->
<g id="edge14" class="edge">
<title>Node133&#45;&gt;Node134</title>
<path fill="none" stroke="#191970" d="M922.6534,-51.5C931.1212,-51.5 939.7009,-51.5 948.0873,-51.5"/>
<polygon fill="#191970" stroke="#191970" points="922.4006,-48.0001 912.4006,-51.5 922.4005,-55.0001 922.4006,-48.0001"/>
</g>
<!-- Node136 -->
<g id="node15" class="node">
<title>Node136</title>
<g id="a_node15"><a xlink:href="class_send_coins_entry.html#a6eae20cd564011773931fc724f4d787c" target="_top" xlink:title="SendCoinsEntry::SendCoins\lEntry">
<polygon fill="#ffffff" stroke="#000000" points="382.7402,-.5 382.7402,-28.5 525.4785,-28.5 525.4785,-.5 382.7402,-.5"/>
<text text-anchor="start" x="390.7402" y="-16.5" font-family="Helvetica,sans-Serif" font-size="10.00" fill="#000000">SendCoinsEntry::SendCoins</text>
<text text-anchor="middle" x="454.1094" y="-6.5" font-family="Helvetica,sans-Serif" font-size="10.00" fill="#000000">Entry</text>
</a>
</g>
</g>
<!-- Node135&#45;&gt;Node136 -->
<g id="edge16" class="edge">
<title>Node135&#45;&gt;Node136</title>
<path fill="none" stroke="#191970" d="M316.7552,-43.3133C338.5579,-38.7397 364.0246,-33.3974 387.0665,-28.5638"/>
<polygon fill="#191970" stroke="#191970" points="315.7647,-39.9448 306.6964,-45.4234 317.2019,-46.7957 315.7647,-39.9448"/>
</g>
</g>
</svg>
