<?xml version="1.0" encoding="UTF-8" standalone="no"?>
<!DOCTYPE svg PUBLIC "-//W3C//DTD SVG 1.1//EN"
 "http://www.w3.org/Graphics/SVG/1.1/DTD/svg11.dtd">
<!-- Generated by graphviz version 2.40.1 (20161225.0304)
 -->
<!-- Title: TransactionView::editLabel Pages: 1 -->
<svg width="643pt" height="301pt"
 viewBox="0.00 0.00 642.65 301.00" xmlns="http://www.w3.org/2000/svg" xmlns:xlink="http://www.w3.org/1999/xlink">
<g id="graph0" class="graph" transform="scale(1 1) rotate(0) translate(4 297)">
<title>TransactionView::editLabel</title>
<polygon fill="#ffffff" stroke="transparent" points="-4,4 -4,-297 638.6465,-297 638.6465,4 -4,4"/>
<!-- Node202 -->
<g id="node1" class="node">
<title>Node202</title>
<polygon fill="#bfbfbf" stroke="#000000" points="0,-141.5 0,-159.5 135.5264,-159.5 135.5264,-141.5 0,-141.5"/>
<text text-anchor="middle" x="67.7632" y="-147.5" font-family="Helvetica,sans-Serif" font-size="10.00" fill="#000000">TransactionView::editLabel</text>
</g>
<!-- Node203 -->
<g id="node2" class="node">
<title>Node203</title>
<g id="a_node2"><a xlink:href="class_wallet_model.html#a89ed202e2dbc04aaa70d72872b95b351" target="_top" xlink:title="WalletModel::getAddressTable\lModel">
<polygon fill="#ffffff" stroke="#000000" points="171.5264,-264.5 171.5264,-292.5 322.2285,-292.5 322.2285,-264.5 171.5264,-264.5"/>
<text text-anchor="start" x="179.5264" y="-280.5" font-family="Helvetica,sans-Serif" font-size="10.00" fill="#000000">WalletModel::getAddressTable</text>
<text text-anchor="middle" x="246.8774" y="-270.5" font-family="Helvetica,sans-Serif" font-size="10.00" fill="#000000">Model</text>
</a>
</g>
</g>
<!-- Node202&#45;&gt;Node203 -->
<g id="edge1" class="edge">
<title>Node202&#45;&gt;Node203</title>
<path fill="none" stroke="#191970" d="M75.1544,-159.6691C90.9806,-178.7758 130.0903,-223.2524 171.5264,-249.5 177.8763,-253.5224 184.8723,-257.132 191.965,-260.3255"/>
<polygon fill="#191970" stroke="#191970" points="191.0719,-263.748 201.6453,-264.4218 193.7999,-257.3014 191.0719,-263.748"/>
</g>
<!-- Node204 -->
<g id="node3" class="node">
<title>Node204</title>
<g id="a_node3"><a xlink:href="class_address_table_model.html#a79b07007c147962c0119310ebd4931c1" target="_top" xlink:title="AddressTableModel::data">
<polygon fill="#ffffff" stroke="#000000" points="182.4541,-141.5 182.4541,-159.5 311.3008,-159.5 311.3008,-141.5 182.4541,-141.5"/>
<text text-anchor="middle" x="246.8774" y="-147.5" font-family="Helvetica,sans-Serif" font-size="10.00" fill="#000000">AddressTableModel::data</text>
</a>
</g>
</g>
<!-- Node202&#45;&gt;Node204 -->
<g id="edge2" class="edge">
<title>Node202&#45;&gt;Node204</title>
<path fill="none" stroke="#191970" d="M135.734,-150.5C147.6407,-150.5 160.0888,-150.5 172.1663,-150.5"/>
<polygon fill="#191970" stroke="#191970" points="172.2042,-154.0001 182.2042,-150.5 172.2041,-147.0001 172.2042,-154.0001"/>
</g>
<!-- Node205 -->
<g id="node4" class="node">
<title>Node205</title>
<g id="a_node4"><a xlink:href="class_address_table_model.html#a74e9123471948255f87271c823c82854" target="_top" xlink:title="AddressTableModel::\lindex">
<polygon fill="#ffffff" stroke="#000000" points="362.1079,-178.5 362.1079,-206.5 471.4917,-206.5 471.4917,-178.5 362.1079,-178.5"/>
<text text-anchor="start" x="370.1079" y="-194.5" font-family="Helvetica,sans-Serif" font-size="10.00" fill="#000000">AddressTableModel::</text>
<text text-anchor="middle" x="416.7998" y="-184.5" font-family="Helvetica,sans-Serif" font-size="10.00" fill="#000000">index</text>
</a>
</g>
</g>
<!-- Node202&#45;&gt;Node205 -->
<g id="edge9" class="edge">
<title>Node202&#45;&gt;Node205</title>
<path fill="none" stroke="#191970" d="M77.68,-159.6218C95.0928,-174.9463 132.9882,-205.2821 171.5264,-216.5 235.6506,-235.1656 312.7652,-222.146 363.1884,-209.1412"/>
<polygon fill="#191970" stroke="#191970" points="364.145,-212.5085 372.9054,-206.5498 362.3412,-205.7449 364.145,-212.5085"/>
</g>
<!-- Node208 -->
<g id="node7" class="node">
<title>Node208</title>
<g id="a_node7"><a xlink:href="class_address_table_model.html#a0beb94d838781d9055e393b37bf68f83" target="_top" xlink:title="AddressTableModel::\llookupAddress">
<polygon fill="#ffffff" stroke="#000000" points="192.1855,-178.5 192.1855,-206.5 301.5693,-206.5 301.5693,-178.5 192.1855,-178.5"/>
<text text-anchor="start" x="200.1855" y="-194.5" font-family="Helvetica,sans-Serif" font-size="10.00" fill="#000000">AddressTableModel::</text>
<text text-anchor="middle" x="246.8774" y="-184.5" font-family="Helvetica,sans-Serif" font-size="10.00" fill="#000000">lookupAddress</text>
</a>
</g>
</g>
<!-- Node202&#45;&gt;Node208 -->
<g id="edge7" class="edge">
<title>Node202&#45;&gt;Node208</title>
<path fill="none" stroke="#191970" d="M106.1877,-159.5101C128.239,-164.6808 156.5103,-171.3101 181.9182,-177.2679"/>
<polygon fill="#191970" stroke="#191970" points="181.3288,-180.7245 191.8637,-179.6 182.9269,-173.9094 181.3288,-180.7245"/>
</g>
<!-- Node209 -->
<g id="node8" class="node">
<title>Node209</title>
<g id="a_node8"><a xlink:href="class_edit_address_dialog.html#a57d26af2c34bd45c06596e9b3fc9a446" target="_top" xlink:title="EditAddressDialog::\lsetModel">
<polygon fill="#ffffff" stroke="#000000" points="194.9663,-94.5 194.9663,-122.5 298.7886,-122.5 298.7886,-94.5 194.9663,-94.5"/>
<text text-anchor="start" x="202.9663" y="-110.5" font-family="Helvetica,sans-Serif" font-size="10.00" fill="#000000">EditAddressDialog::</text>
<text text-anchor="middle" x="246.8774" y="-100.5" font-family="Helvetica,sans-Serif" font-size="10.00" fill="#000000">setModel</text>
</a>
</g>
</g>
<!-- Node202&#45;&gt;Node209 -->
<g id="edge10" class="edge">
<title>Node202&#45;&gt;Node209</title>
<path fill="none" stroke="#191970" d="M106.1877,-141.4899C129.1569,-136.1039 158.8747,-129.1355 185.0755,-122.9918"/>
<polygon fill="#191970" stroke="#191970" points="185.9867,-126.3731 194.9236,-120.6825 184.3886,-119.558 185.9867,-126.3731"/>
</g>
<!-- Node210 -->
<g id="node9" class="node">
<title>Node210</title>
<g id="a_node9"><a xlink:href="class_edit_address_dialog.html#a45d90d6f757fb4b20788710c8533036b" target="_top" xlink:title="EditAddressDialog::\lloadRow">
<polygon fill="#ffffff" stroke="#000000" points="194.9663,-47.5 194.9663,-75.5 298.7886,-75.5 298.7886,-47.5 194.9663,-47.5"/>
<text text-anchor="start" x="202.9663" y="-63.5" font-family="Helvetica,sans-Serif" font-size="10.00" fill="#000000">EditAddressDialog::</text>
<text text-anchor="middle" x="246.8774" y="-53.5" font-family="Helvetica,sans-Serif" font-size="10.00" fill="#000000">loadRow</text>
</a>
</g>
</g>
<!-- Node202&#45;&gt;Node210 -->
<g id="edge11" class="edge">
<title>Node202&#45;&gt;Node210</title>
<path fill="none" stroke="#191970" d="M79.6057,-141.4457C98.2624,-127.5429 136.0356,-100.8364 171.5264,-84.5 175.8789,-82.4966 180.4511,-80.6107 185.1015,-78.8479"/>
<polygon fill="#191970" stroke="#191970" points="186.4786,-82.0724 194.7114,-75.4037 184.1169,-75.4828 186.4786,-82.0724"/>
</g>
<!-- Node211 -->
<g id="node10" class="node">
<title>Node211</title>
<g id="a_node10"><a xlink:href="class_edit_address_dialog.html#afcaca5a8e493b9493d2ca2430f7ac5eb" target="_top" xlink:title="EditAddressDialog::\lsetAddress">
<polygon fill="#ffffff" stroke="#000000" points="194.9663,-.5 194.9663,-28.5 298.7886,-28.5 298.7886,-.5 194.9663,-.5"/>
<text text-anchor="start" x="202.9663" y="-16.5" font-family="Helvetica,sans-Serif" font-size="10.00" fill="#000000">EditAddressDialog::</text>
<text text-anchor="middle" x="246.8774" y="-6.5" font-family="Helvetica,sans-Serif" font-size="10.00" fill="#000000">setAddress</text>
</a>
</g>
</g>
<!-- Node202&#45;&gt;Node211 -->
<g id="edge12" class="edge">
<title>Node202&#45;&gt;Node211</title>
<path fill="none" stroke="#191970" d="M73.5896,-141.3651C87.7164,-119.9533 126.0036,-66.1751 171.5264,-37.5 175.8283,-34.7902 180.4696,-32.3824 185.261,-30.2461"/>
<polygon fill="#191970" stroke="#191970" points="186.6526,-33.4587 194.6105,-26.4643 184.0277,-26.9695 186.6526,-33.4587"/>
</g>
<!-- Node204&#45;&gt;Node205 -->
<g id="edge3" class="edge">
<title>Node204&#45;&gt;Node205</title>
<path fill="none" stroke="#191970" d="M311.4262,-156.8672C315.082,-157.7459 318.7024,-158.6315 322.2285,-159.5 341.7522,-164.309 363.5033,-169.8184 381.2186,-175.2419"/>
<polygon fill="#191970" stroke="#191970" points="380.5443,-178.701 391.1354,-178.4193 382.6802,-172.0349 380.5443,-178.701"/>
</g>
<!-- Node207 -->
<g id="node6" class="node">
<title>Node207</title>
<g id="a_node6"><a xlink:href="namespace_g_u_i_util.html#af6b9624383a5313a5d856c59913b599b" target="_top" xlink:title="GUIUtil::fixedPitchFont">
<polygon fill="#ffffff" stroke="#000000" points="358.2285,-141.5 358.2285,-159.5 475.3711,-159.5 475.3711,-141.5 358.2285,-141.5"/>
<text text-anchor="middle" x="416.7998" y="-147.5" font-family="Helvetica,sans-Serif" font-size="10.00" fill="#000000">GUIUtil::fixedPitchFont</text>
</a>
</g>
</g>
<!-- Node204&#45;&gt;Node207 -->
<g id="edge6" class="edge">
<title>Node204&#45;&gt;Node207</title>
<path fill="none" stroke="#191970" d="M311.6025,-150.5C323.4265,-150.5 335.8058,-150.5 347.7499,-150.5"/>
<polygon fill="#191970" stroke="#191970" points="348.1094,-154.0001 358.1093,-150.5 348.1093,-147.0001 348.1094,-154.0001"/>
</g>
<!-- Node205&#45;&gt;Node204 -->
<g id="edge4" class="edge">
<title>Node205&#45;&gt;Node204</title>
<path fill="none" stroke="#191970" d="M361.8239,-187.155C348.8484,-184.1224 335.0575,-180.66 322.2285,-177.5 303.9778,-173.0046 283.1982,-168.0531 268.0895,-163.0191"/>
<polygon fill="#191970" stroke="#191970" points="269.2296,-159.7092 258.6364,-159.5254 266.8029,-166.2751 269.2296,-159.7092"/>
</g>
<!-- Node206 -->
<g id="node5" class="node">
<title>Node206</title>
<g id="a_node5"><a xlink:href="class_address_table_priv.html#af311eb7d0189a74a508d7ad0f563f307" target="_top" xlink:title="AddressTablePriv::index">
<polygon fill="#ffffff" stroke="#000000" points="511.3711,-183.5 511.3711,-201.5 634.6465,-201.5 634.6465,-183.5 511.3711,-183.5"/>
<text text-anchor="middle" x="573.0088" y="-189.5" font-family="Helvetica,sans-Serif" font-size="10.00" fill="#000000">AddressTablePriv::index</text>
</a>
</g>
</g>
<!-- Node205&#45;&gt;Node206 -->
<g id="edge5" class="edge">
<title>Node205&#45;&gt;Node206</title>
<path fill="none" stroke="#191970" d="M471.8732,-192.5C481.3262,-192.5 491.2735,-192.5 501.0897,-192.5"/>
<polygon fill="#191970" stroke="#191970" points="501.2455,-196.0001 511.2455,-192.5 501.2454,-189.0001 501.2455,-196.0001"/>
</g>
<!-- Node208&#45;&gt;Node205 -->
<g id="edge8" class="edge">
<title>Node208&#45;&gt;Node205</title>
<path fill="none" stroke="#191970" d="M301.5773,-192.5C317.5657,-192.5 335.1988,-192.5 351.7614,-192.5"/>
<polygon fill="#191970" stroke="#191970" points="351.9114,-196.0001 361.9113,-192.5 351.9113,-189.0001 351.9114,-196.0001"/>
</g>
</g>
</svg>
