<?xml version="1.0" encoding="UTF-8" standalone="no"?>
<!DOCTYPE svg PUBLIC "-//W3C//DTD SVG 1.1//EN"
 "http://www.w3.org/Graphics/SVG/1.1/DTD/svg11.dtd">
<!-- Generated by graphviz version 2.40.1 (20161225.0304)
 -->
<!-- Title: ReceiveCoinsDialog::selectedRow Pages: 1 -->
<svg width="570pt" height="212pt"
 viewBox="0.00 0.00 570.19 212.00" xmlns="http://www.w3.org/2000/svg" xmlns:xlink="http://www.w3.org/1999/xlink">
<g id="graph0" class="graph" transform="scale(1 1) rotate(0) translate(4 208)">
<title>ReceiveCoinsDialog::selectedRow</title>
<polygon fill="#ffffff" stroke="transparent" points="-4,4 -4,-208 566.1904,-208 566.1904,4 -4,4"/>
<!-- Node237 -->
<g id="node1" class="node">
<title>Node237</title>
<polygon fill="#bfbfbf" stroke="#000000" points="0,-47.5 0,-75.5 106.0439,-75.5 106.0439,-47.5 0,-47.5"/>
<text text-anchor="start" x="8" y="-63.5" font-family="Helvetica,sans-Serif" font-size="10.00" fill="#000000">ReceiveCoinsDialog</text>
<text text-anchor="middle" x="53.022" y="-53.5" font-family="Helvetica,sans-Serif" font-size="10.00" fill="#000000">::selectedRow</text>
</g>
<!-- Node238 -->
<g id="node2" class="node">
<title>Node238</title>
<g id="a_node2"><a xlink:href="class_receive_coins_dialog.html#adcf53aced7dfa041a55278b4807a20a2" target="_top" xlink:title="ReceiveCoinsDialog\l::copyColumnToClipboard">
<polygon fill="#ffffff" stroke="#000000" points="142.0439,-111.5 142.0439,-139.5 272.5459,-139.5 272.5459,-111.5 142.0439,-111.5"/>
<text text-anchor="start" x="150.0439" y="-127.5" font-family="Helvetica,sans-Serif" font-size="10.00" fill="#000000">ReceiveCoinsDialog</text>
<text text-anchor="middle" x="207.2949" y="-117.5" font-family="Helvetica,sans-Serif" font-size="10.00" fill="#000000">::copyColumnToClipboard</text>
</a>
</g>
</g>
<!-- Node237&#45;&gt;Node238 -->
<g id="edge1" class="edge">
<title>Node237&#45;&gt;Node238</title>
<path fill="none" stroke="#191970" d="M96.2813,-79.4461C120.7229,-89.5857 150.8275,-102.0745 173.518,-111.4877"/>
<polygon fill="#191970" stroke="#191970" points="97.4557,-76.1441 86.8778,-75.5451 94.7734,-82.6098 97.4557,-76.1441"/>
</g>
<!-- Node243 -->
<g id="node7" class="node">
<title>Node243</title>
<g id="a_node7"><a xlink:href="class_receive_coins_dialog.html#a9b485c40590668ac2e7d0a4a827a334f" target="_top" xlink:title="ReceiveCoinsDialog\l::showMenu">
<polygon fill="#ffffff" stroke="#000000" points="154.2729,-47.5 154.2729,-75.5 260.3169,-75.5 260.3169,-47.5 154.2729,-47.5"/>
<text text-anchor="start" x="162.2729" y="-63.5" font-family="Helvetica,sans-Serif" font-size="10.00" fill="#000000">ReceiveCoinsDialog</text>
<text text-anchor="middle" x="207.2949" y="-53.5" font-family="Helvetica,sans-Serif" font-size="10.00" fill="#000000">::showMenu</text>
</a>
</g>
</g>
<!-- Node237&#45;&gt;Node243 -->
<g id="edge8" class="edge">
<title>Node237&#45;&gt;Node243</title>
<path fill="none" stroke="#191970" d="M116.4722,-61.5C128.978,-61.5 141.9797,-61.5 154.1051,-61.5"/>
<polygon fill="#191970" stroke="#191970" points="116.114,-58.0001 106.114,-61.5 116.1139,-65.0001 116.114,-58.0001"/>
</g>
<!-- Node244 -->
<g id="node8" class="node">
<title>Node244</title>
<g id="a_node8"><a xlink:href="class_receive_coins_dialog.html#aa3ed79752a859f8aea8e43f5197c798d" target="_top" xlink:title="ReceiveCoinsDialog\l::copyURI">
<polygon fill="#ffffff" stroke="#000000" points="154.2729,-.5 154.2729,-28.5 260.3169,-28.5 260.3169,-.5 154.2729,-.5"/>
<text text-anchor="start" x="162.2729" y="-16.5" font-family="Helvetica,sans-Serif" font-size="10.00" fill="#000000">ReceiveCoinsDialog</text>
<text text-anchor="middle" x="207.2949" y="-6.5" font-family="Helvetica,sans-Serif" font-size="10.00" fill="#000000">::copyURI</text>
</a>
</g>
</g>
<!-- Node237&#45;&gt;Node244 -->
<g id="edge10" class="edge">
<title>Node237&#45;&gt;Node244</title>
<path fill="none" stroke="#191970" d="M109.192,-44.3875C126.3185,-39.1699 144.9372,-33.4976 161.3066,-28.5106"/>
<polygon fill="#191970" stroke="#191970" points="107.8548,-41.136 99.3089,-47.3985 109.8949,-47.8322 107.8548,-41.136"/>
</g>
<!-- Node239 -->
<g id="node3" class="node">
<title>Node239</title>
<g id="a_node3"><a xlink:href="class_receive_coins_dialog.html#abdd69012e01da1d61b0bf622f9e156b1" target="_top" xlink:title="ReceiveCoinsDialog\l::copyLabel">
<polygon fill="#ffffff" stroke="#000000" points="308.5459,-175.5 308.5459,-203.5 414.5898,-203.5 414.5898,-175.5 308.5459,-175.5"/>
<text text-anchor="start" x="316.5459" y="-191.5" font-family="Helvetica,sans-Serif" font-size="10.00" fill="#000000">ReceiveCoinsDialog</text>
<text text-anchor="middle" x="361.5679" y="-181.5" font-family="Helvetica,sans-Serif" font-size="10.00" fill="#000000">::copyLabel</text>
</a>
</g>
</g>
<!-- Node238&#45;&gt;Node239 -->
<g id="edge2" class="edge">
<title>Node238&#45;&gt;Node239</title>
<path fill="none" stroke="#191970" d="M250.5542,-143.4461C274.9959,-153.5857 305.1004,-166.0745 327.791,-175.4877"/>
<polygon fill="#191970" stroke="#191970" points="251.7287,-140.1441 241.1508,-139.5451 249.0463,-146.6098 251.7287,-140.1441"/>
</g>
<!-- Node241 -->
<g id="node5" class="node">
<title>Node241</title>
<g id="a_node5"><a xlink:href="class_receive_coins_dialog.html#a99b4d3cbb14744e8b3eff41f83413cb7" target="_top" xlink:title="ReceiveCoinsDialog\l::copyMessage">
<polygon fill="#ffffff" stroke="#000000" points="308.5459,-128.5 308.5459,-156.5 414.5898,-156.5 414.5898,-128.5 308.5459,-128.5"/>
<text text-anchor="start" x="316.5459" y="-144.5" font-family="Helvetica,sans-Serif" font-size="10.00" fill="#000000">ReceiveCoinsDialog</text>
<text text-anchor="middle" x="361.5679" y="-134.5" font-family="Helvetica,sans-Serif" font-size="10.00" fill="#000000">::copyMessage</text>
</a>
</g>
</g>
<!-- Node238&#45;&gt;Node241 -->
<g id="edge4" class="edge">
<title>Node238&#45;&gt;Node241</title>
<path fill="none" stroke="#191970" d="M282.7622,-133.8161C291.3488,-134.7623 299.9629,-135.7115 308.1788,-136.6168"/>
<polygon fill="#191970" stroke="#191970" points="283.0438,-130.326 272.7205,-132.7095 282.277,-137.2839 283.0438,-130.326"/>
</g>
<!-- Node242 -->
<g id="node6" class="node">
<title>Node242</title>
<g id="a_node6"><a xlink:href="class_receive_coins_dialog.html#a3f8309dfaa944576bae760ba33222463" target="_top" xlink:title="ReceiveCoinsDialog\l::copyAmount">
<polygon fill="#ffffff" stroke="#000000" points="308.5459,-81.5 308.5459,-109.5 414.5898,-109.5 414.5898,-81.5 308.5459,-81.5"/>
<text text-anchor="start" x="316.5459" y="-97.5" font-family="Helvetica,sans-Serif" font-size="10.00" fill="#000000">ReceiveCoinsDialog</text>
<text text-anchor="middle" x="361.5679" y="-87.5" font-family="Helvetica,sans-Serif" font-size="10.00" fill="#000000">::copyAmount</text>
</a>
</g>
</g>
<!-- Node238&#45;&gt;Node242 -->
<g id="edge6" class="edge">
<title>Node238&#45;&gt;Node242</title>
<path fill="none" stroke="#191970" d="M282.7622,-110.8246C291.3488,-109.1548 299.9629,-107.4797 308.1788,-105.8821"/>
<polygon fill="#191970" stroke="#191970" points="281.8685,-107.4327 272.7205,-112.7773 283.2048,-114.304 281.8685,-107.4327"/>
</g>
<!-- Node240 -->
<g id="node4" class="node">
<title>Node240</title>
<g id="a_node4"><a xlink:href="class_receive_coins_dialog.html#af6363e303b255dae972e71b7f730bac1" target="_top" xlink:title="ReceiveCoinsDialog\l::ReceiveCoinsDialog">
<polygon fill="#ffffff" stroke="#000000" points="450.5898,-81.5 450.5898,-109.5 562.1904,-109.5 562.1904,-81.5 450.5898,-81.5"/>
<text text-anchor="start" x="458.5898" y="-97.5" font-family="Helvetica,sans-Serif" font-size="10.00" fill="#000000">ReceiveCoinsDialog</text>
<text text-anchor="middle" x="506.3901" y="-87.5" font-family="Helvetica,sans-Serif" font-size="10.00" fill="#000000">::ReceiveCoinsDialog</text>
</a>
</g>
</g>
<!-- Node239&#45;&gt;Node240 -->
<g id="edge3" class="edge">
<title>Node239&#45;&gt;Node240</title>
<path fill="none" stroke="#191970" d="M406.3743,-171.0285C409.193,-169.5713 411.9539,-168.0579 414.5898,-166.5 443.2092,-149.5849 473.0721,-124.9796 490.6865,-109.6241"/>
<polygon fill="#191970" stroke="#191970" points="404.7096,-167.9463 397.2578,-175.4776 407.7797,-174.2371 404.7096,-167.9463"/>
</g>
<!-- Node241&#45;&gt;Node240 -->
<g id="edge5" class="edge">
<title>Node241&#45;&gt;Node240</title>
<path fill="none" stroke="#191970" d="M414.7032,-125.2557C430.5812,-120.1027 447.7928,-114.5169 462.9693,-109.5916"/>
<polygon fill="#191970" stroke="#191970" points="413.4505,-121.9824 405.0193,-128.3985 415.6114,-128.6406 413.4505,-121.9824"/>
</g>
<!-- Node242&#45;&gt;Node240 -->
<g id="edge7" class="edge">
<title>Node242&#45;&gt;Node240</title>
<path fill="none" stroke="#191970" d="M424.9004,-95.5C433.3806,-95.5 442.0296,-95.5 450.3722,-95.5"/>
<polygon fill="#191970" stroke="#191970" points="424.672,-92.0001 414.672,-95.5 424.672,-99.0001 424.672,-92.0001"/>
</g>
<!-- Node243&#45;&gt;Node240 -->
<g id="edge9" class="edge">
<title>Node243&#45;&gt;Node240</title>
<path fill="none" stroke="#191970" d="M270.576,-61.7087C311.7929,-62.618 366.6224,-65.2871 414.5898,-72.5 428.7252,-74.6255 443.8552,-77.9627 457.6714,-81.4425"/>
<polygon fill="#191970" stroke="#191970" points="270.4682,-58.2061 260.4029,-61.5137 270.334,-65.2048 270.4682,-58.2061"/>
</g>
<!-- Node244&#45;&gt;Node240 -->
<g id="edge11" class="edge">
<title>Node244&#45;&gt;Node240</title>
<path fill="none" stroke="#191970" d="M270.2966,-24.9254C311.7577,-32.5044 366.9648,-43.9689 414.5898,-58.5 435.2984,-64.8185 457.8605,-73.8804 475.4349,-81.4546"/>
<polygon fill="#191970" stroke="#191970" points="270.7953,-21.459 260.3331,-23.1304 269.5541,-28.3481 270.7953,-21.459"/>
</g>
</g>
</svg>
