<?xml version="1.0" encoding="UTF-8" standalone="no"?>
<!DOCTYPE svg PUBLIC "-//W3C//DTD SVG 1.1//EN"
 "http://www.w3.org/Graphics/SVG/1.1/DTD/svg11.dtd">
<!-- Generated by graphviz version 2.40.1 (20161225.0304)
 -->
<!-- Title: BitcoinAmountField Pages: 1 -->
<svg width="284pt" height="148pt"
 viewBox="0.00 0.00 284.49 148.00" xmlns="http://www.w3.org/2000/svg" xmlns:xlink="http://www.w3.org/1999/xlink">
<g id="graph0" class="graph" transform="scale(1 1) rotate(0) translate(4 144)">
<title>BitcoinAmountField</title>
<polygon fill="#ffffff" stroke="transparent" points="-4,4 -4,-144 280.4932,-144 280.4932,4 -4,4"/>
<!-- Node2 -->
<g id="node1" class="node">
<title>Node2</title>
<polygon fill="#bfbfbf" stroke="#000000" points="65.3745,-.5 65.3745,-18.5 167.5269,-18.5 167.5269,-.5 65.3745,-.5"/>
<text text-anchor="middle" x="116.4507" y="-6.5" font-family="Helvetica,sans-Serif" font-size="10.00" fill="#000000">BitcoinAmountField</text>
</g>
<!-- Node3 -->
<g id="node2" class="node">
<title>Node3</title>
<polygon fill="#ffffff" stroke="#bfbfbf" points="0,-65.5 0,-83.5 54.9014,-83.5 54.9014,-65.5 0,-65.5"/>
<text text-anchor="middle" x="27.4507" y="-71.5" font-family="Helvetica,sans-Serif" font-size="10.00" fill="#000000">QWidget</text>
</g>
<!-- Node3&#45;&gt;Node2 -->
<g id="edge1" class="edge">
<title>Node3&#45;&gt;Node2</title>
<path fill="none" stroke="#191970" d="M48.1446,-59.3865C65.397,-46.7864 89.4151,-29.2451 103.8938,-18.6708"/>
<polygon fill="#191970" stroke="#191970" points="45.8371,-56.7376 39.8258,-65.462 49.9656,-62.3906 45.8371,-56.7376"/>
</g>
<!-- Node4 -->
<g id="node3" class="node">
<title>Node4</title>
<g id="a_node3"><a xlink:href="class_amount_spin_box.html" target="_top" xlink:title="QSpinBox that uses fixed&#45;point numbers internally and uses our own formatting/parsing functions...">
<polygon fill="#ffffff" stroke="#000000" points="72.5962,-65.5 72.5962,-83.5 160.3052,-83.5 160.3052,-65.5 72.5962,-65.5"/>
<text text-anchor="middle" x="116.4507" y="-71.5" font-family="Helvetica,sans-Serif" font-size="10.00" fill="#000000">AmountSpinBox</text>
</a>
</g>
</g>
<!-- Node4&#45;&gt;Node2 -->
<g id="edge2" class="edge">
<title>Node4&#45;&gt;Node2</title>
<path fill="none" stroke="#9a32cd" stroke-dasharray="5,2" d="M116.4507,-55.1265C116.4507,-43.1522 116.4507,-28.3205 116.4507,-18.8821"/>
<polygon fill="#9a32cd" stroke="#9a32cd" points="112.9508,-55.462 116.4507,-65.462 119.9508,-55.4621 112.9508,-55.462"/>
<text text-anchor="middle" x="134.5171" y="-39" font-family="Helvetica,sans-Serif" font-size="10.00" fill="#000000"> amount</text>
</g>
<!-- Node5 -->
<g id="node4" class="node">
<title>Node5</title>
<polygon fill="#ffffff" stroke="#bfbfbf" points="67.5986,-121.5 67.5986,-139.5 165.3027,-139.5 165.3027,-121.5 67.5986,-121.5"/>
<text text-anchor="middle" x="116.4507" y="-127.5" font-family="Helvetica,sans-Serif" font-size="10.00" fill="#000000">QAbstractSpinBox</text>
</g>
<!-- Node5&#45;&gt;Node4 -->
<g id="edge3" class="edge">
<title>Node5&#45;&gt;Node4</title>
<path fill="none" stroke="#191970" d="M116.4507,-111.2065C116.4507,-101.8384 116.4507,-91.0262 116.4507,-83.5752"/>
<polygon fill="#191970" stroke="#191970" points="112.9508,-111.2527 116.4507,-121.2527 119.9508,-111.2528 112.9508,-111.2527"/>
</g>
<!-- Node6 -->
<g id="node5" class="node">
<title>Node6</title>
<g id="a_node5"><a xlink:href="class_q_value_combo_box.html" target="_top" xlink:title="QValueComboBox">
<polygon fill="#ffffff" stroke="#000000" points="178.4082,-65.5 178.4082,-83.5 276.4932,-83.5 276.4932,-65.5 178.4082,-65.5"/>
<text text-anchor="middle" x="227.4507" y="-71.5" font-family="Helvetica,sans-Serif" font-size="10.00" fill="#000000">QValueComboBox</text>
</a>
</g>
</g>
<!-- Node6&#45;&gt;Node2 -->
<g id="edge4" class="edge">
<title>Node6&#45;&gt;Node2</title>
<path fill="none" stroke="#9a32cd" stroke-dasharray="5,2" d="M203.1084,-60.2455C181.5047,-47.5947 150.5834,-29.4876 132.1115,-18.6708"/>
<polygon fill="#9a32cd" stroke="#9a32cd" points="201.6186,-63.429 212.0166,-65.462 205.1559,-57.3885 201.6186,-63.429"/>
<text text-anchor="middle" x="188.9014" y="-39" font-family="Helvetica,sans-Serif" font-size="10.00" fill="#000000"> unit</text>
</g>
<!-- Node7 -->
<g id="node6" class="node">
<title>Node7</title>
<polygon fill="#ffffff" stroke="#bfbfbf" points="190.8276,-121.5 190.8276,-139.5 264.0737,-139.5 264.0737,-121.5 190.8276,-121.5"/>
<text text-anchor="middle" x="227.4507" y="-127.5" font-family="Helvetica,sans-Serif" font-size="10.00" fill="#000000">QComboBox</text>
</g>
<!-- Node7&#45;&gt;Node6 -->
<g id="edge5" class="edge">
<title>Node7&#45;&gt;Node6</title>
<path fill="none" stroke="#191970" d="M227.4507,-111.2065C227.4507,-101.8384 227.4507,-91.0262 227.4507,-83.5752"/>
<polygon fill="#191970" stroke="#191970" points="223.9508,-111.2527 227.4507,-121.2527 230.9508,-111.2528 223.9508,-111.2527"/>
</g>
</g>
</svg>
