<?xml version="1.0" encoding="UTF-8" standalone="no"?>
<!DOCTYPE svg PUBLIC "-//W3C//DTD SVG 1.1//EN"
 "http://www.w3.org/Graphics/SVG/1.1/DTD/svg11.dtd">
<!-- Generated by graphviz version 2.40.1 (20161225.0304)
 -->
<!-- Title: TorController::reconnect_cb Pages: 1 -->
<svg width="648pt" height="129pt"
 viewBox="0.00 0.00 648.01 129.00" xmlns="http://www.w3.org/2000/svg" xmlns:xlink="http://www.w3.org/1999/xlink">
<g id="graph0" class="graph" transform="scale(1 1) rotate(0) translate(4 125)">
<title>TorController::reconnect_cb</title>
<polygon fill="#ffffff" stroke="transparent" points="-4,4 -4,-125 644.0127,-125 644.0127,4 -4,4"/>
<!-- Node38 -->
<g id="node1" class="node">
<title>Node38</title>
<polygon fill="#bfbfbf" stroke="#000000" points="0,-55.5 0,-73.5 138.8369,-73.5 138.8369,-55.5 0,-55.5"/>
<text text-anchor="middle" x="69.4185" y="-61.5" font-family="Helvetica,sans-Serif" font-size="10.00" fill="#000000">TorController::reconnect_cb</text>
</g>
<!-- Node39 -->
<g id="node2" class="node">
<title>Node39</title>
<g id="a_node2"><a xlink:href="class_tor_controller.html#ae5d4304836fce79574ec540c5ada8269" target="_top" xlink:title="Reconnect, after getting disconnected. ">
<polygon fill="#ffffff" stroke="#000000" points="174.8369,-55.5 174.8369,-73.5 301.4424,-73.5 301.4424,-55.5 174.8369,-55.5"/>
<text text-anchor="middle" x="238.1396" y="-61.5" font-family="Helvetica,sans-Serif" font-size="10.00" fill="#000000">TorController::Reconnect</text>
</a>
</g>
</g>
<!-- Node38&#45;&gt;Node39 -->
<g id="edge1" class="edge">
<title>Node38&#45;&gt;Node39</title>
<path fill="none" stroke="#191970" d="M139.0179,-64.5C147.4074,-64.5 155.9979,-64.5 164.4435,-64.5"/>
<polygon fill="#191970" stroke="#191970" points="164.6502,-68.0001 174.6501,-64.5 164.6501,-61.0001 164.6502,-68.0001"/>
</g>
<!-- Node40 -->
<g id="node3" class="node">
<title>Node40</title>
<g id="a_node3"><a xlink:href="class_tor_control_connection.html#a36b6359caf9a304efe310b9b7141a939" target="_top" xlink:title="Connect to a Tor control port. ">
<polygon fill="#ffffff" stroke="#000000" points="358.0088,-92.5 358.0088,-120.5 470.7275,-120.5 470.7275,-92.5 358.0088,-92.5"/>
<text text-anchor="start" x="366.0088" y="-108.5" font-family="Helvetica,sans-Serif" font-size="10.00" fill="#000000">TorControlConnection</text>
<text text-anchor="middle" x="414.3682" y="-98.5" font-family="Helvetica,sans-Serif" font-size="10.00" fill="#000000">::Connect</text>
</a>
</g>
</g>
<!-- Node39&#45;&gt;Node40 -->
<g id="edge2" class="edge">
<title>Node39&#45;&gt;Node40</title>
<path fill="none" stroke="#191970" d="M275.9451,-73.5101C296.9229,-78.5096 323.6221,-84.8728 347.9639,-90.6741"/>
<polygon fill="#191970" stroke="#191970" points="347.3308,-94.1212 357.8698,-93.0349 348.9537,-87.3119 347.3308,-94.1212"/>
</g>
<!-- Node42 -->
<g id="node5" class="node">
<title>Node42</title>
<g id="a_node5"><a xlink:href="class_tor_controller.html#a59d56a1525a08235b07dd9eadbae0d1f" target="_top" xlink:title="Callback after successful connection. ">
<polygon fill="#ffffff" stroke="#000000" points="343.834,-55.5 343.834,-73.5 484.9023,-73.5 484.9023,-55.5 343.834,-55.5"/>
<text text-anchor="middle" x="414.3682" y="-61.5" font-family="Helvetica,sans-Serif" font-size="10.00" fill="#000000">TorController::connected_cb</text>
</a>
</g>
</g>
<!-- Node39&#45;&gt;Node42 -->
<g id="edge4" class="edge">
<title>Node39&#45;&gt;Node42</title>
<path fill="none" stroke="#191970" d="M301.7622,-64.5C312.0726,-64.5 322.8691,-64.5 333.5228,-64.5"/>
<polygon fill="#191970" stroke="#191970" points="333.673,-68.0001 343.673,-64.5 333.673,-61.0001 333.673,-68.0001"/>
</g>
<!-- Node43 -->
<g id="node6" class="node">
<title>Node43</title>
<g id="a_node6"><a xlink:href="class_tor_controller.html#a81392f33f0c7e069762668ec3a757075" target="_top" xlink:title="Callback after connection lost or failed connection attempt. ">
<polygon fill="#ffffff" stroke="#000000" points="337.4424,-18.5 337.4424,-36.5 491.2939,-36.5 491.2939,-18.5 337.4424,-18.5"/>
<text text-anchor="middle" x="414.3682" y="-24.5" font-family="Helvetica,sans-Serif" font-size="10.00" fill="#000000">TorController::disconnected_cb</text>
</a>
</g>
</g>
<!-- Node39&#45;&gt;Node43 -->
<g id="edge5" class="edge">
<title>Node39&#45;&gt;Node43</title>
<path fill="none" stroke="#191970" d="M281.25,-55.4488C305.4486,-50.3682 335.8373,-43.9879 361.468,-38.6066"/>
<polygon fill="#191970" stroke="#191970" points="362.3304,-42.002 371.3978,-36.5218 360.892,-35.1513 362.3304,-42.002"/>
</g>
<!-- Node41 -->
<g id="node4" class="node">
<title>Node41</title>
<g id="a_node4"><a xlink:href="class_tor_control_connection.html#ab956fc8db185b0559a2c17acab81b8e9" target="_top" xlink:title="Disconnect from Tor control port. ">
<polygon fill="#ffffff" stroke="#000000" points="527.2939,-92.5 527.2939,-120.5 640.0127,-120.5 640.0127,-92.5 527.2939,-92.5"/>
<text text-anchor="start" x="535.2939" y="-108.5" font-family="Helvetica,sans-Serif" font-size="10.00" fill="#000000">TorControlConnection</text>
<text text-anchor="middle" x="583.6533" y="-98.5" font-family="Helvetica,sans-Serif" font-size="10.00" fill="#000000">::Disconnect</text>
</a>
</g>
</g>
<!-- Node40&#45;&gt;Node41 -->
<g id="edge3" class="edge">
<title>Node40&#45;&gt;Node41</title>
<path fill="none" stroke="#191970" d="M470.7377,-106.5C485.5076,-106.5 501.5752,-106.5 516.8334,-106.5"/>
<polygon fill="#191970" stroke="#191970" points="517.2416,-110.0001 527.2415,-106.5 517.2415,-103.0001 517.2416,-110.0001"/>
</g>
<!-- Node44 -->
<g id="node7" class="node">
<title>Node44</title>
<g id="a_node7"><a xlink:href="class_c_net_addr.html#a6fe20b8da9701ca5dc2af078e2e8ac25" target="_top" xlink:title="CNetAddr::IsValid">
<polygon fill="#ffffff" stroke="#000000" points="536.2832,-37.5 536.2832,-55.5 631.0234,-55.5 631.0234,-37.5 536.2832,-37.5"/>
<text text-anchor="middle" x="583.6533" y="-43.5" font-family="Helvetica,sans-Serif" font-size="10.00" fill="#000000">CNetAddr::IsValid</text>
</a>
</g>
</g>
<!-- Node43&#45;&gt;Node44 -->
<g id="edge6" class="edge">
<title>Node43&#45;&gt;Node44</title>
<path fill="none" stroke="#191970" d="M491.58,-36.166C503.1969,-37.4698 515.0019,-38.7948 526.1107,-40.0416"/>
<polygon fill="#191970" stroke="#191970" points="525.7635,-43.5245 536.0915,-41.1618 526.5443,-36.5682 525.7635,-43.5245"/>
</g>
<!-- Node45 -->
<g id="node8" class="node">
<title>Node45</title>
<g id="a_node8"><a xlink:href="net_8cpp.html#a298d283732067adcbd421b66327413f8" target="_top" xlink:title="RemoveLocal">
<polygon fill="#ffffff" stroke="#000000" points="545.082,-.5 545.082,-18.5 622.2246,-18.5 622.2246,-.5 545.082,-.5"/>
<text text-anchor="middle" x="583.6533" y="-6.5" font-family="Helvetica,sans-Serif" font-size="10.00" fill="#000000">RemoveLocal</text>
</a>
</g>
</g>
<!-- Node43&#45;&gt;Node45 -->
<g id="edge7" class="edge">
<title>Node43&#45;&gt;Node45</title>
<path fill="none" stroke="#191970" d="M491.58,-19.2901C506.3116,-17.7237 521.3458,-16.1251 534.879,-14.6862"/>
<polygon fill="#191970" stroke="#191970" points="535.3316,-18.1578 544.9054,-13.62 534.5914,-11.1971 535.3316,-18.1578"/>
</g>
</g>
</svg>
