<?xml version="1.0" encoding="UTF-8" standalone="no"?>
<!DOCTYPE svg PUBLIC "-//W3C//DTD SVG 1.1//EN"
 "http://www.w3.org/Graphics/SVG/1.1/DTD/svg11.dtd">
<!-- Generated by graphviz version 2.40.1 (20161225.0304)
 -->
<!-- Title: OverrideStream::operator&lt;&lt; Pages: 1 -->
<svg width="357pt" height="27pt"
 viewBox="0.00 0.00 357.00 27.00" xmlns="http://www.w3.org/2000/svg" xmlns:xlink="http://www.w3.org/1999/xlink">
<g id="graph0" class="graph" transform="scale(1 1) rotate(0) translate(4 23)">
<title>OverrideStream::operator&lt;&lt;</title>
<polygon fill="#ffffff" stroke="transparent" points="-4,4 -4,-23 352.999,-23 352.999,4 -4,4"/>
<!-- Node8 -->
<g id="node1" class="node">
<title>Node8</title>
<polygon fill="#bfbfbf" stroke="#000000" points="0,-.5 0,-18.5 141.0586,-18.5 141.0586,-.5 0,-.5"/>
<text text-anchor="middle" x="70.5293" y="-6.5" font-family="Helvetica,sans-Serif" font-size="10.00" fill="#000000">OverrideStream::operator&lt;&lt;</text>
</g>
<!-- Node9 -->
<g id="node2" class="node">
<title>Node9</title>
<g id="a_node2"><a xlink:href="serialize_8h.html#a4d807cadf9c9de8c09c7f87412daf808" target="_top" xlink:title="Serialize">
<polygon fill="#ffffff" stroke="#000000" points="177.0586,-.5 177.0586,-18.5 231.4082,-18.5 231.4082,-.5 177.0586,-.5"/>
<text text-anchor="middle" x="204.2334" y="-6.5" font-family="Helvetica,sans-Serif" font-size="10.00" fill="#000000">Serialize</text>
</a>
</g>
</g>
<!-- Node8&#45;&gt;Node9 -->
<g id="edge1" class="edge">
<title>Node8&#45;&gt;Node9</title>
<path fill="none" stroke="#191970" d="M141.2965,-9.5C150.0943,-9.5 158.8015,-9.5 166.8056,-9.5"/>
<polygon fill="#191970" stroke="#191970" points="166.8715,-13.0001 176.8714,-9.5 166.8714,-6.0001 166.8715,-13.0001"/>
</g>
<!-- Node10 -->
<g id="node3" class="node">
<title>Node10</title>
<g id="a_node3"><a xlink:href="serialize_8h.html#ab121fe5d3f3371e3c57b45235a8d7802" target="_top" xlink:title="ser_writedata8">
<polygon fill="#ffffff" stroke="#000000" points="267.4082,-.5 267.4082,-18.5 348.999,-18.5 348.999,-.5 267.4082,-.5"/>
<text text-anchor="middle" x="308.2036" y="-6.5" font-family="Helvetica,sans-Serif" font-size="10.00" fill="#000000">ser_writedata8</text>
</a>
</g>
</g>
<!-- Node9&#45;&gt;Node10 -->
<g id="edge2" class="edge">
<title>Node9&#45;&gt;Node10</title>
<path fill="none" stroke="#191970" d="M231.5503,-9.5C239.4207,-9.5 248.2731,-9.5 257.092,-9.5"/>
<polygon fill="#191970" stroke="#191970" points="257.3683,-13.0001 267.3683,-9.5 257.3683,-6.0001 257.3683,-13.0001"/>
</g>
</g>
</svg>
