<?xml version="1.0" encoding="UTF-8" standalone="no"?>
<!DOCTYPE svg PUBLIC "-//W3C//DTD SVG 1.1//EN"
 "http://www.w3.org/Graphics/SVG/1.1/DTD/svg11.dtd">
<!-- Generated by graphviz version 2.40.1 (20161225.0304)
 -->
<!-- Title: CChainState::DisconnectBlock Pages: 1 -->
<svg width="653pt" height="121pt"
 viewBox="0.00 0.00 653.21 121.00" xmlns="http://www.w3.org/2000/svg" xmlns:xlink="http://www.w3.org/1999/xlink">
<g id="graph0" class="graph" transform="scale(1 1) rotate(0) translate(4 117)">
<title>CChainState::DisconnectBlock</title>
<polygon fill="#ffffff" stroke="transparent" points="-4,4 -4,-117 649.208,-117 649.208,4 -4,4"/>
<!-- Node129 -->
<g id="node1" class="node">
<title>Node129</title>
<polygon fill="#bfbfbf" stroke="#000000" points="0,-47.5 0,-65.5 152.1768,-65.5 152.1768,-47.5 0,-47.5"/>
<text text-anchor="middle" x="76.0884" y="-53.5" font-family="Helvetica,sans-Serif" font-size="10.00" fill="#000000">CChainState::DisconnectBlock</text>
</g>
<!-- Node130 -->
<g id="node2" class="node">
<title>Node130</title>
<g id="a_node2"><a xlink:href="class_c_chain_state.html#a57682556dc35715fba5f0c6075efcc6e" target="_top" xlink:title="Disconnect chainActive&#39;s tip. ">
<polygon fill="#ffffff" stroke="#000000" points="188.1768,-47.5 188.1768,-65.5 329.4258,-65.5 329.4258,-47.5 188.1768,-47.5"/>
<text text-anchor="middle" x="258.8013" y="-53.5" font-family="Helvetica,sans-Serif" font-size="10.00" fill="#000000">CChainState::DisconnectTip</text>
</a>
</g>
</g>
<!-- Node129&#45;&gt;Node130 -->
<g id="edge1" class="edge">
<title>Node129&#45;&gt;Node130</title>
<path fill="none" stroke="#191970" d="M162.3137,-56.5C170.9244,-56.5 179.596,-56.5 188.0213,-56.5"/>
<polygon fill="#191970" stroke="#191970" points="162.2521,-53.0001 152.252,-56.5 162.252,-60.0001 162.2521,-53.0001"/>
</g>
<!-- Node131 -->
<g id="node3" class="node">
<title>Node131</title>
<g id="a_node3"><a xlink:href="class_c_chain_state.html#afb6986710de5db645a000d4bac55cf9f" target="_top" xlink:title="Try to make some progress towards making pindexMostWork the active block. ">
<polygon fill="#ffffff" stroke="#000000" points="371.2656,-84.5 371.2656,-112.5 505.1025,-112.5 505.1025,-84.5 371.2656,-84.5"/>
<text text-anchor="start" x="379.2656" y="-100.5" font-family="Helvetica,sans-Serif" font-size="10.00" fill="#000000">CChainState::ActivateBest</text>
<text text-anchor="middle" x="438.1841" y="-90.5" font-family="Helvetica,sans-Serif" font-size="10.00" fill="#000000">ChainStep</text>
</a>
</g>
</g>
<!-- Node130&#45;&gt;Node131 -->
<g id="edge2" class="edge">
<title>Node130&#45;&gt;Node131</title>
<path fill="none" stroke="#191970" d="M307.0261,-67.7912C328.9357,-72.921 355.0781,-79.0419 378.2369,-84.4642"/>
<polygon fill="#191970" stroke="#191970" points="307.818,-64.382 297.2834,-65.5101 306.2221,-71.1977 307.818,-64.382"/>
</g>
<!-- Node132 -->
<g id="node4" class="node">
<title>Node132</title>
<g id="a_node4"><a xlink:href="class_c_chain_state.html#a657a2d93faf38567ef34aeb75295ef4e" target="_top" xlink:title="CChainState::InvalidateBlock">
<polygon fill="#ffffff" stroke="#000000" points="365.4258,-47.5 365.4258,-65.5 510.9424,-65.5 510.9424,-47.5 365.4258,-47.5"/>
<text text-anchor="middle" x="438.1841" y="-53.5" font-family="Helvetica,sans-Serif" font-size="10.00" fill="#000000">CChainState::InvalidateBlock</text>
</a>
</g>
</g>
<!-- Node130&#45;&gt;Node132 -->
<g id="edge3" class="edge">
<title>Node130&#45;&gt;Node132</title>
<path fill="none" stroke="#191970" d="M339.4571,-56.5C348.0498,-56.5 356.7542,-56.5 365.2505,-56.5"/>
<polygon fill="#191970" stroke="#191970" points="339.4406,-53.0001 329.4406,-56.5 339.4406,-60.0001 339.4406,-53.0001"/>
</g>
<!-- Node134 -->
<g id="node6" class="node">
<title>Node134</title>
<g id="a_node6"><a xlink:href="class_c_chain_state.html#afc0586502e4dd4092c4a0707d329f6eb" target="_top" xlink:title="CChainState::RewindBlock\lIndex">
<polygon fill="#ffffff" stroke="#000000" points="370.1548,-.5 370.1548,-28.5 506.2134,-28.5 506.2134,-.5 370.1548,-.5"/>
<text text-anchor="start" x="378.1548" y="-16.5" font-family="Helvetica,sans-Serif" font-size="10.00" fill="#000000">CChainState::RewindBlock</text>
<text text-anchor="middle" x="438.1841" y="-6.5" font-family="Helvetica,sans-Serif" font-size="10.00" fill="#000000">Index</text>
</a>
</g>
</g>
<!-- Node130&#45;&gt;Node134 -->
<g id="edge5" class="edge">
<title>Node130&#45;&gt;Node134</title>
<path fill="none" stroke="#191970" d="M307.0261,-45.2088C328.9357,-40.079 355.0781,-33.9581 378.2369,-28.5358"/>
<polygon fill="#191970" stroke="#191970" points="306.2221,-41.8023 297.2834,-47.4899 307.818,-48.618 306.2221,-41.8023"/>
</g>
<!-- Node133 -->
<g id="node5" class="node">
<title>Node133</title>
<g id="a_node5"><a xlink:href="validation_8h.html#ac1125805255945a06f6f6fe1d9c6c154" target="_top" xlink:title="Mark a block as invalid. ">
<polygon fill="#ffffff" stroke="#000000" points="554.4448,-47.5 554.4448,-65.5 637.7056,-65.5 637.7056,-47.5 554.4448,-47.5"/>
<text text-anchor="middle" x="596.0752" y="-53.5" font-family="Helvetica,sans-Serif" font-size="10.00" fill="#000000">InvalidateBlock</text>
</a>
</g>
</g>
<!-- Node132&#45;&gt;Node133 -->
<g id="edge4" class="edge">
<title>Node132&#45;&gt;Node133</title>
<path fill="none" stroke="#191970" d="M521.1359,-56.5C532.5263,-56.5 543.8052,-56.5 554.0209,-56.5"/>
<polygon fill="#191970" stroke="#191970" points="521.1214,-53.0001 511.1214,-56.5 521.1213,-60.0001 521.1214,-53.0001"/>
</g>
<!-- Node135 -->
<g id="node7" class="node">
<title>Node135</title>
<g id="a_node7"><a xlink:href="validation_8h.html#a2e51de180124822c526ac8f82777fa32" target="_top" xlink:title="When there are blocks in the active chain with missing data, rewind the chainstate and remove them fr...">
<polygon fill="#ffffff" stroke="#000000" points="546.9424,-5.5 546.9424,-23.5 645.208,-23.5 645.208,-5.5 546.9424,-5.5"/>
<text text-anchor="middle" x="596.0752" y="-11.5" font-family="Helvetica,sans-Serif" font-size="10.00" fill="#000000">RewindBlockIndex</text>
</a>
</g>
</g>
<!-- Node134&#45;&gt;Node135 -->
<g id="edge6" class="edge">
<title>Node134&#45;&gt;Node135</title>
<path fill="none" stroke="#191970" d="M516.6991,-14.5C526.9077,-14.5 537.1258,-14.5 546.6707,-14.5"/>
<polygon fill="#191970" stroke="#191970" points="516.5192,-11.0001 506.5191,-14.5 516.5191,-18.0001 516.5192,-11.0001"/>
</g>
</g>
</svg>
