<?xml version="1.0" encoding="UTF-8" standalone="no"?>
<!DOCTYPE svg PUBLIC "-//W3C//DTD SVG 1.1//EN"
 "http://www.w3.org/Graphics/SVG/1.1/DTD/svg11.dtd">
<!-- Generated by graphviz version 2.40.1 (20161225.0304)
 -->
<!-- Title: CSHA3512::Write Pages: 1 -->
<svg width="1233pt" height="172pt"
 viewBox="0.00 0.00 1233.32 172.04" xmlns="http://www.w3.org/2000/svg" xmlns:xlink="http://www.w3.org/1999/xlink">
<g id="graph0" class="graph" transform="scale(1 1) rotate(0) translate(4 168.0418)">
<title>CSHA3512::Write</title>
<polygon fill="#ffffff" stroke="transparent" points="-4,4 -4,-168.0418 1229.3174,-168.0418 1229.3174,4 -4,4"/>
<!-- Node35 -->
<g id="node1" class="node">
<title>Node35</title>
<polygon fill="#bfbfbf" stroke="#000000" points="0,-98.5418 0,-116.5418 94.7402,-116.5418 94.7402,-98.5418 0,-98.5418"/>
<text text-anchor="middle" x="47.3701" y="-104.5418" font-family="Helvetica,sans-Serif" font-size="10.00" fill="#000000">CSHA3512::Write</text>
</g>
<!-- Node36 -->
<g id="node2" class="node">
<title>Node36</title>
<g id="a_node2"><a xlink:href="class_c_h_m_a_c___s_h_a3512.html#a511989b1718c2333fb823dd7acee46bd" target="_top" xlink:title="CHMAC_SHA3512::CHMAC\l_SHA3512">
<polygon fill="#ffffff" stroke="#000000" points="130.7402,-135.5418 130.7402,-163.5418 273.9961,-163.5418 273.9961,-135.5418 130.7402,-135.5418"/>
<text text-anchor="start" x="138.7402" y="-151.5418" font-family="Helvetica,sans-Serif" font-size="10.00" fill="#000000">CHMAC_SHA3512::CHMAC</text>
<text text-anchor="middle" x="202.3682" y="-141.5418" font-family="Helvetica,sans-Serif" font-size="10.00" fill="#000000">_SHA3512</text>
</a>
</g>
</g>
<!-- Node35&#45;&gt;Node36 -->
<g id="edge1" class="edge">
<title>Node35&#45;&gt;Node36</title>
<path fill="none" stroke="#191970" d="M90.3241,-119.1811C108.9869,-124.2382 131.01,-130.2058 150.57,-135.506"/>
<polygon fill="#191970" stroke="#191970" points="91.1884,-115.7892 80.6211,-116.5519 89.3576,-122.5455 91.1884,-115.7892"/>
</g>
<!-- Node37 -->
<g id="node3" class="node">
<title>Node37</title>
<g id="a_node3"><a xlink:href="class_c_h_m_a_c___s_h_a3512.html#a7fcc43a245c713be2d70271efd44ebbc" target="_top" xlink:title="CHMAC_SHA3512::Finalize">
<polygon fill="#ffffff" stroke="#000000" points="131.8438,-61.5418 131.8438,-79.5418 272.8926,-79.5418 272.8926,-61.5418 131.8438,-61.5418"/>
<text text-anchor="middle" x="202.3682" y="-67.5418" font-family="Helvetica,sans-Serif" font-size="10.00" fill="#000000">CHMAC_SHA3512::Finalize</text>
</a>
</g>
</g>
<!-- Node35&#45;&gt;Node37 -->
<g id="edge2" class="edge">
<title>Node35&#45;&gt;Node37</title>
<path fill="none" stroke="#191970" d="M95.2295,-96.1172C117.5313,-90.7935 143.6885,-84.5494 164.5745,-79.5637"/>
<polygon fill="#191970" stroke="#191970" points="94.2009,-92.7643 85.2869,-98.4906 95.8263,-99.573 94.2009,-92.7643"/>
</g>
<!-- Node50 -->
<g id="node16" class="node">
<title>Node50</title>
<g id="a_node16"><a xlink:href="class_c_h_m_a_c___s_h_a3512.html#ae162a47bdbb23782dedd8da0ef81dccd" target="_top" xlink:title="CHMAC_SHA3512::Write">
<polygon fill="#ffffff" stroke="#000000" points="137.4956,-98.5418 137.4956,-116.5418 267.2407,-116.5418 267.2407,-98.5418 137.4956,-98.5418"/>
<text text-anchor="middle" x="202.3682" y="-104.5418" font-family="Helvetica,sans-Serif" font-size="10.00" fill="#000000">CHMAC_SHA3512::Write</text>
</a>
</g>
</g>
<!-- Node35&#45;&gt;Node50 -->
<g id="edge16" class="edge">
<title>Node35&#45;&gt;Node50</title>
<path fill="none" stroke="#191970" d="M105.3754,-107.5418C115.8101,-107.5418 126.7491,-107.5418 137.3666,-107.5418"/>
<polygon fill="#191970" stroke="#191970" points="105.1394,-104.0419 95.1394,-107.5418 105.1393,-111.0419 105.1394,-104.0419"/>
</g>
<!-- Node38 -->
<g id="node4" class="node">
<title>Node38</title>
<g id="a_node4"><a xlink:href="_hash_8h.html#a391c1a6a1f947abbc53cc51fc709110e" target="_top" xlink:title="BIP32Hash">
<polygon fill="#ffffff" stroke="#000000" points="326.1143,-98.5418 326.1143,-116.5418 392.7002,-116.5418 392.7002,-98.5418 326.1143,-98.5418"/>
<text text-anchor="middle" x="359.4072" y="-104.5418" font-family="Helvetica,sans-Serif" font-size="10.00" fill="#000000">BIP32Hash</text>
</a>
</g>
</g>
<!-- Node37&#45;&gt;Node38 -->
<g id="edge3" class="edge">
<title>Node37&#45;&gt;Node38</title>
<path fill="none" stroke="#191970" d="M250.5754,-81.9C274.9731,-87.6483 303.9835,-94.4834 325.9148,-99.6507"/>
<polygon fill="#191970" stroke="#191970" points="251.3204,-78.4797 240.7842,-79.5931 249.715,-85.2932 251.3204,-78.4797"/>
</g>
<!-- Node46 -->
<g id="node12" class="node">
<title>Node46</title>
<g id="a_node12"><a xlink:href="struct_c_ext_key.html#a8593d6ce0dadfca0f8c2f71ebb4e1fe0" target="_top" xlink:title="CExtKey::SetSeed">
<polygon fill="#ffffff" stroke="#000000" points="309.9961,-61.5418 309.9961,-79.5418 408.8184,-79.5418 408.8184,-61.5418 309.9961,-61.5418"/>
<text text-anchor="middle" x="359.4072" y="-67.5418" font-family="Helvetica,sans-Serif" font-size="10.00" fill="#000000">CExtKey::SetSeed</text>
</a>
</g>
</g>
<!-- Node37&#45;&gt;Node46 -->
<g id="edge11" class="edge">
<title>Node37&#45;&gt;Node46</title>
<path fill="none" stroke="#191970" d="M283.2619,-70.5418C292.2889,-70.5418 301.2739,-70.5418 309.7393,-70.5418"/>
<polygon fill="#191970" stroke="#191970" points="283.0779,-67.0419 273.0779,-70.5418 283.0779,-74.0419 283.0779,-67.0419"/>
</g>
<!-- Node39 -->
<g id="node5" class="node">
<title>Node39</title>
<g id="a_node5"><a xlink:href="class_c_key.html#ae79008cec2eb799a2efd37e010996acf" target="_top" xlink:title="Derive BIP32 child key. ">
<polygon fill="#ffffff" stroke="#000000" points="465.4751,-98.5418 465.4751,-116.5418 540.3813,-116.5418 540.3813,-98.5418 465.4751,-98.5418"/>
<text text-anchor="middle" x="502.9282" y="-104.5418" font-family="Helvetica,sans-Serif" font-size="10.00" fill="#000000">CKey::Derive</text>
</a>
</g>
</g>
<!-- Node38&#45;&gt;Node39 -->
<g id="edge4" class="edge">
<title>Node38&#45;&gt;Node39</title>
<path fill="none" stroke="#191970" d="M403.1158,-107.5418C423.0255,-107.5418 446.3542,-107.5418 465.4497,-107.5418"/>
<polygon fill="#191970" stroke="#191970" points="403.0566,-104.0419 393.0565,-107.5418 403.0565,-111.0419 403.0566,-104.0419"/>
</g>
<!-- Node44 -->
<g id="node10" class="node">
<title>Node44</title>
<g id="a_node10"><a xlink:href="class_c_pub_key.html#ac28722f47ab8a613bf9982608d13aa1f" target="_top" xlink:title="Derive BIP32 child pubkey. ">
<polygon fill="#ffffff" stroke="#000000" points="456.5786,-135.5418 456.5786,-153.5418 549.2778,-153.5418 549.2778,-135.5418 456.5786,-135.5418"/>
<text text-anchor="middle" x="502.9282" y="-141.5418" font-family="Helvetica,sans-Serif" font-size="10.00" fill="#000000">CPubKey::Derive</text>
</a>
</g>
</g>
<!-- Node38&#45;&gt;Node44 -->
<g id="edge9" class="edge">
<title>Node38&#45;&gt;Node44</title>
<path fill="none" stroke="#191970" d="M402.9444,-118.7658C423.783,-124.138 448.3987,-130.484 467.9911,-135.535"/>
<polygon fill="#191970" stroke="#191970" points="403.6137,-115.324 393.0565,-116.2167 401.8662,-122.1024 403.6137,-115.324"/>
</g>
<!-- Node40 -->
<g id="node6" class="node">
<title>Node40</title>
<g id="a_node6"><a xlink:href="struct_c_ext_key.html#a589df63664c6d12bfe071b747a245b1d" target="_top" xlink:title="CExtKey::Derive">
<polygon fill="#ffffff" stroke="#000000" points="605.9346,-98.5418 605.9346,-116.5418 695.2891,-116.5418 695.2891,-98.5418 605.9346,-98.5418"/>
<text text-anchor="middle" x="650.6118" y="-104.5418" font-family="Helvetica,sans-Serif" font-size="10.00" fill="#000000">CExtKey::Derive</text>
</a>
</g>
</g>
<!-- Node39&#45;&gt;Node40 -->
<g id="edge5" class="edge">
<title>Node39&#45;&gt;Node40</title>
<path fill="none" stroke="#191970" d="M550.6725,-107.5418C568.3288,-107.5418 588.2697,-107.5418 605.669,-107.5418"/>
<polygon fill="#191970" stroke="#191970" points="550.5772,-104.0419 540.5771,-107.5418 550.5771,-111.0419 550.5772,-104.0419"/>
</g>
<!-- Node41 -->
<g id="node7" class="node">
<title>Node41</title>
<g id="a_node7"><a xlink:href="group__map_wallet.html#gafb01fcc10d890174b2db560a7f27b58a" target="_top" xlink:title="CWallet::DeriveNewChildKey">
<polygon fill="#ffffff" stroke="#000000" points="740.1855,-42.5418 740.1855,-60.5418 885.3018,-60.5418 885.3018,-42.5418 740.1855,-42.5418"/>
<text text-anchor="middle" x="812.7437" y="-48.5418" font-family="Helvetica,sans-Serif" font-size="10.00" fill="#000000">CWallet::DeriveNewChildKey</text>
</a>
</g>
</g>
<!-- Node40&#45;&gt;Node41 -->
<g id="edge6" class="edge">
<title>Node40&#45;&gt;Node41</title>
<path fill="none" stroke="#191970" d="M687.6657,-95.1598C693.2068,-93.2886 698.8489,-91.3723 704.1855,-89.5418 732.5176,-79.824 764.9185,-68.448 786.893,-60.6933"/>
<polygon fill="#191970" stroke="#191970" points="686.2494,-91.9435 677.8886,-98.451 688.4827,-98.5777 686.2494,-91.9435"/>
</g>
<!-- Node42 -->
<g id="node8" class="node">
<title>Node42</title>
<g id="a_node8"><a xlink:href="group__map_wallet.html#ga5abb589b31879b8f4bf1890c22f15f64" target="_top" xlink:title="keystore implementation Generate a new key ">
<polygon fill="#ffffff" stroke="#000000" points="921.3018,-42.5418 921.3018,-60.5418 1056.4277,-60.5418 1056.4277,-42.5418 921.3018,-42.5418"/>
<text text-anchor="middle" x="988.8647" y="-48.5418" font-family="Helvetica,sans-Serif" font-size="10.00" fill="#000000">CWallet::GenerateNewKey</text>
</a>
</g>
</g>
<!-- Node41&#45;&gt;Node42 -->
<g id="edge7" class="edge">
<title>Node41&#45;&gt;Node42</title>
<path fill="none" stroke="#191970" d="M895.4606,-51.5418C904.0781,-51.5418 912.7641,-51.5418 921.1869,-51.5418"/>
<polygon fill="#191970" stroke="#191970" points="895.3957,-48.0419 885.3957,-51.5418 895.3956,-55.0419 895.3957,-48.0419"/>
</g>
<!-- Node43 -->
<g id="node9" class="node">
<title>Node43</title>
<g id="a_node9"><a xlink:href="group___actions.html#gac452f46eafeb2b4adfe86f7208048032" target="_top" xlink:title="CWallet::GetKeyFromPool">
<polygon fill="#ffffff" stroke="#000000" points="1092.4277,-42.5418 1092.4277,-60.5418 1225.3174,-60.5418 1225.3174,-42.5418 1092.4277,-42.5418"/>
<text text-anchor="middle" x="1158.8726" y="-48.5418" font-family="Helvetica,sans-Serif" font-size="10.00" fill="#000000">CWallet::GetKeyFromPool</text>
</a>
</g>
</g>
<!-- Node42&#45;&gt;Node43 -->
<g id="edge8" class="edge">
<title>Node42&#45;&gt;Node43</title>
<path fill="none" stroke="#191970" d="M1066.5556,-51.5418C1075.1406,-51.5418 1083.8258,-51.5418 1092.2575,-51.5418"/>
<polygon fill="#191970" stroke="#191970" points="1066.5449,-48.0419 1056.5448,-51.5418 1066.5448,-55.0419 1066.5449,-48.0419"/>
</g>
<!-- Node45 -->
<g id="node11" class="node">
<title>Node45</title>
<g id="a_node11"><a xlink:href="struct_c_ext_pub_key.html#a2dae8fcc00b9617589dd0b1444f95ec8" target="_top" xlink:title="CExtPubKey::Derive">
<polygon fill="#ffffff" stroke="#000000" points="597.0381,-135.5418 597.0381,-153.5418 704.1855,-153.5418 704.1855,-135.5418 597.0381,-135.5418"/>
<text text-anchor="middle" x="650.6118" y="-141.5418" font-family="Helvetica,sans-Serif" font-size="10.00" fill="#000000">CExtPubKey::Derive</text>
</a>
</g>
</g>
<!-- Node44&#45;&gt;Node45 -->
<g id="edge10" class="edge">
<title>Node44&#45;&gt;Node45</title>
<path fill="none" stroke="#191970" d="M559.746,-144.5418C571.9801,-144.5418 584.8735,-144.5418 596.9814,-144.5418"/>
<polygon fill="#191970" stroke="#191970" points="559.6563,-141.0419 549.6562,-144.5418 559.6562,-148.0419 559.6563,-141.0419"/>
</g>
<!-- Node46&#45;&gt;Node41 -->
<g id="edge12" class="edge">
<title>Node46&#45;&gt;Node41</title>
<path fill="none" stroke="#191970" d="M376.5084,-54.9376C392.7328,-41.272 418.4864,-22.4045 444.8184,-14.5418 569.3849,22.6534 727.0962,-22.1465 787.5743,-42.496"/>
<polygon fill="#191970" stroke="#191970" points="374.186,-52.3189 368.9402,-61.5239 378.7814,-57.5994 374.186,-52.3189"/>
</g>
<!-- Node47 -->
<g id="node13" class="node">
<title>Node47</title>
<g id="a_node13"><a xlink:href="class_c_wallet.html#a4fded992ac1b212e1b59ab777646b1e4" target="_top" xlink:title="Implement lookup of key origin information through wallet key metadata. ">
<polygon fill="#ffffff" stroke="#000000" points="444.8184,-61.5418 444.8184,-79.5418 561.0381,-79.5418 561.0381,-61.5418 444.8184,-61.5418"/>
<text text-anchor="middle" x="502.9282" y="-67.5418" font-family="Helvetica,sans-Serif" font-size="10.00" fill="#000000">CWallet::GetKeyOrigin</text>
</a>
</g>
</g>
<!-- Node46&#45;&gt;Node47 -->
<g id="edge13" class="edge">
<title>Node46&#45;&gt;Node47</title>
<path fill="none" stroke="#191970" d="M419.202,-70.5418C427.5162,-70.5418 436.0509,-70.5418 444.3425,-70.5418"/>
<polygon fill="#191970" stroke="#191970" points="419.2012,-67.0419 409.2011,-70.5418 419.2011,-74.0419 419.2012,-67.0419"/>
</g>
<!-- Node49 -->
<g id="node15" class="node">
<title>Node49</title>
<g id="a_node15"><a xlink:href="wallet__tests_8cpp.html#a73ce3a42e0b56b2e4516e55871d8590e" target="_top" xlink:title="dumpwallet">
<polygon fill="#ffffff" stroke="#000000" points="469.6377,-24.5418 469.6377,-42.5418 536.2188,-42.5418 536.2188,-24.5418 469.6377,-24.5418"/>
<text text-anchor="middle" x="502.9282" y="-30.5418" font-family="Helvetica,sans-Serif" font-size="10.00" fill="#000000">dumpwallet</text>
</a>
</g>
</g>
<!-- Node46&#45;&gt;Node49 -->
<g id="edge15" class="edge">
<title>Node46&#45;&gt;Node49</title>
<path fill="none" stroke="#191970" d="M404.4692,-58.9248C425.3993,-53.5289 449.8635,-47.222 469.1698,-42.2448"/>
<polygon fill="#191970" stroke="#191970" points="403.326,-55.605 394.5164,-61.4906 405.0736,-62.3833 403.326,-55.605"/>
</g>
<!-- Node48 -->
<g id="node14" class="node">
<title>Node48</title>
<g id="a_node14"><a xlink:href="rpcwallet_8cpp.html#a614a0b6d4fe51abf85bdb57475cb9d48" target="_top" xlink:title="AddKeypathToMap">
<polygon fill="#ffffff" stroke="#000000" points="600.3608,-61.5418 600.3608,-79.5418 700.8628,-79.5418 700.8628,-61.5418 600.3608,-61.5418"/>
<text text-anchor="middle" x="650.6118" y="-67.5418" font-family="Helvetica,sans-Serif" font-size="10.00" fill="#000000">AddKeypathToMap</text>
</a>
</g>
</g>
<!-- Node47&#45;&gt;Node48 -->
<g id="edge14" class="edge">
<title>Node47&#45;&gt;Node48</title>
<path fill="none" stroke="#191970" d="M571.3769,-70.5418C581.1211,-70.5418 590.9913,-70.5418 600.3037,-70.5418"/>
<polygon fill="#191970" stroke="#191970" points="571.2967,-67.0419 561.2967,-70.5418 571.2967,-74.0419 571.2967,-67.0419"/>
</g>
<!-- Node50&#45;&gt;Node38 -->
<g id="edge17" class="edge">
<title>Node50&#45;&gt;Node38</title>
<path fill="none" stroke="#191970" d="M278.022,-107.5418C294.8371,-107.5418 311.8276,-107.5418 325.9035,-107.5418"/>
<polygon fill="#191970" stroke="#191970" points="277.6026,-104.0419 267.6026,-107.5418 277.6025,-111.0419 277.6026,-104.0419"/>
</g>
<!-- Node50&#45;&gt;Node46 -->
<g id="edge18" class="edge">
<title>Node50&#45;&gt;Node46</title>
<path fill="none" stroke="#191970" d="M250.5527,-96.1891C273.2143,-90.8498 299.8596,-84.5719 321.1159,-79.5637"/>
<polygon fill="#191970" stroke="#191970" points="249.715,-92.7905 240.7842,-98.4906 251.3204,-99.604 249.715,-92.7905"/>
</g>
</g>
</svg>
