<?xml version="1.0" encoding="UTF-8" standalone="no"?>
<!DOCTYPE svg PUBLIC "-//W3C//DTD SVG 1.1//EN"
 "http://www.w3.org/Graphics/SVG/1.1/DTD/svg11.dtd">
<!-- Generated by graphviz version 2.40.1 (20161225.0304)
 -->
<!-- Title: OptionsModel::getCoinControlFeatures Pages: 1 -->
<svg width="1279pt" height="224pt"
 viewBox="0.00 0.00 1279.32 224.00" xmlns="http://www.w3.org/2000/svg" xmlns:xlink="http://www.w3.org/1999/xlink">
<g id="graph0" class="graph" transform="scale(1 1) rotate(0) translate(4 220)">
<title>OptionsModel::getCoinControlFeatures</title>
<polygon fill="#ffffff" stroke="transparent" points="-4,4 -4,-220 1275.3203,-220 1275.3203,4 -4,4"/>
<!-- Node72 -->
<g id="node1" class="node">
<title>Node72</title>
<polygon fill="#bfbfbf" stroke="#000000" points="0,-135.5 0,-163.5 149.96,-163.5 149.96,-135.5 0,-135.5"/>
<text text-anchor="start" x="8" y="-151.5" font-family="Helvetica,sans-Serif" font-size="10.00" fill="#000000">OptionsModel::getCoinControl</text>
<text text-anchor="middle" x="74.98" y="-141.5" font-family="Helvetica,sans-Serif" font-size="10.00" fill="#000000">Features</text>
</g>
<!-- Node73 -->
<g id="node2" class="node">
<title>Node73</title>
<g id="a_node2"><a xlink:href="class_send_coins_dialog.html#a73a6c1b1850a334ee652ac167713a2aa" target="_top" xlink:title="SendCoinsDialog::setModel">
<polygon fill="#ffffff" stroke="#000000" points="193.936,-179.5 193.936,-197.5 333.3394,-197.5 333.3394,-179.5 193.936,-179.5"/>
<text text-anchor="middle" x="263.6377" y="-185.5" font-family="Helvetica,sans-Serif" font-size="10.00" fill="#000000">SendCoinsDialog::setModel</text>
</a>
</g>
</g>
<!-- Node72&#45;&gt;Node73 -->
<g id="edge1" class="edge">
<title>Node72&#45;&gt;Node73</title>
<path fill="none" stroke="#191970" d="M152.874,-165.6025C175.7516,-170.3319 199.9599,-175.3363 219.8904,-179.4564"/>
<polygon fill="#191970" stroke="#191970" points="153.3247,-162.1218 142.8232,-163.5248 151.9076,-168.9768 153.3247,-162.1218"/>
</g>
<!-- Node76 -->
<g id="node5" class="node">
<title>Node76</title>
<g id="a_node5"><a xlink:href="class_send_coins_dialog.html#a014c6a4f6319e0620c6972e729792a0a" target="_top" xlink:title="SendCoinsDialog::useAvailable\lBalance">
<polygon fill="#ffffff" stroke="#000000" points="185.96,-114.5 185.96,-142.5 341.3154,-142.5 341.3154,-114.5 185.96,-114.5"/>
<text text-anchor="start" x="193.96" y="-130.5" font-family="Helvetica,sans-Serif" font-size="10.00" fill="#000000">SendCoinsDialog::useAvailable</text>
<text text-anchor="middle" x="263.6377" y="-120.5" font-family="Helvetica,sans-Serif" font-size="10.00" fill="#000000">Balance</text>
</a>
</g>
</g>
<!-- Node72&#45;&gt;Node76 -->
<g id="edge4" class="edge">
<title>Node72&#45;&gt;Node76</title>
<path fill="none" stroke="#191970" d="M160.0493,-140.0307C168.5924,-139.0798 177.2377,-138.1174 185.7013,-137.1753"/>
<polygon fill="#191970" stroke="#191970" points="159.636,-136.555 150.0846,-141.1399 160.4104,-143.512 159.636,-136.555"/>
</g>
<!-- Node74 -->
<g id="node3" class="node">
<title>Node74</title>
<g id="a_node3"><a xlink:href="class_wallet_view.html#a0a37ff693a4f9c1e5ddc23f9cd3913be" target="_top" xlink:title="Set the wallet model. ">
<polygon fill="#ffffff" stroke="#000000" points="377.5083,-188.5 377.5083,-206.5 515.9741,-206.5 515.9741,-188.5 377.5083,-188.5"/>
<text text-anchor="middle" x="446.7412" y="-194.5" font-family="Helvetica,sans-Serif" font-size="10.00" fill="#000000">WalletView::setWalletModel</text>
</a>
</g>
</g>
<!-- Node73&#45;&gt;Node74 -->
<g id="edge2" class="edge">
<title>Node73&#45;&gt;Node74</title>
<path fill="none" stroke="#191970" d="M343.6521,-192.4329C354.9279,-192.9871 366.4408,-193.553 377.4921,-194.0962"/>
<polygon fill="#191970" stroke="#191970" points="343.5434,-188.9234 333.3836,-191.9282 343.1997,-195.915 343.5434,-188.9234"/>
</g>
<!-- Node75 -->
<g id="node4" class="node">
<title>Node75</title>
<g id="a_node4"><a xlink:href="class_wallet_frame.html#a06cb28194836995e50cc46716b2227ff" target="_top" xlink:title="WalletFrame::addWallet">
<polygon fill="#ffffff" stroke="#000000" points="568.9395,-197.5 568.9395,-215.5 690.9063,-215.5 690.9063,-197.5 568.9395,-197.5"/>
<text text-anchor="middle" x="629.9229" y="-203.5" font-family="Helvetica,sans-Serif" font-size="10.00" fill="#000000">WalletFrame::addWallet</text>
</a>
</g>
</g>
<!-- Node74&#45;&gt;Node75 -->
<g id="edge3" class="edge">
<title>Node74&#45;&gt;Node75</title>
<path fill="none" stroke="#191970" d="M526.2556,-201.4067C540.4713,-202.1051 555.0819,-202.8229 568.6853,-203.4913"/>
<polygon fill="#191970" stroke="#191970" points="526.1541,-197.8975 515.9943,-200.9025 525.8105,-204.8891 526.1541,-197.8975"/>
</g>
<!-- Node77 -->
<g id="node6" class="node">
<title>Node77</title>
<g id="a_node6"><a xlink:href="class_send_coins_dialog.html#a3d680a76b967641115c6ff2fa83fb62a" target="_top" xlink:title="SendCoinsDialog::addEntry">
<polygon fill="#ffffff" stroke="#000000" points="377.3154,-84.5 377.3154,-102.5 516.167,-102.5 516.167,-84.5 377.3154,-84.5"/>
<text text-anchor="middle" x="446.7412" y="-90.5" font-family="Helvetica,sans-Serif" font-size="10.00" fill="#000000">SendCoinsDialog::addEntry</text>
</a>
</g>
</g>
<!-- Node76&#45;&gt;Node77 -->
<g id="edge5" class="edge">
<title>Node76&#45;&gt;Node77</title>
<path fill="none" stroke="#191970" d="M347.025,-112.5606C365.0773,-109.1099 383.5564,-105.5777 399.6247,-102.5063"/>
<polygon fill="#191970" stroke="#191970" points="346.2229,-109.1505 337.0579,-114.4658 347.5372,-116.026 346.2229,-109.1505"/>
</g>
<!-- Node78 -->
<g id="node7" class="node">
<title>Node78</title>
<g id="a_node7"><a xlink:href="class_send_coins_dialog.html#affacd36b4df87a68e2fe706ef388c0a6" target="_top" xlink:title="SendCoinsDialog::SendCoins\lDialog">
<polygon fill="#ffffff" stroke="#000000" points="753.9644,-158.5 753.9644,-186.5 901.7124,-186.5 901.7124,-158.5 753.9644,-158.5"/>
<text text-anchor="start" x="761.9644" y="-174.5" font-family="Helvetica,sans-Serif" font-size="10.00" fill="#000000">SendCoinsDialog::SendCoins</text>
<text text-anchor="middle" x="827.8384" y="-164.5" font-family="Helvetica,sans-Serif" font-size="10.00" fill="#000000">Dialog</text>
</a>
</g>
</g>
<!-- Node77&#45;&gt;Node78 -->
<g id="edge6" class="edge">
<title>Node77&#45;&gt;Node78</title>
<path fill="none" stroke="#191970" d="M468.1968,-108.2632C488.7452,-121.5624 521.1285,-140.3809 552.167,-149.5 618.5198,-168.9945 697.4499,-173.835 753.8133,-174.3391"/>
<polygon fill="#191970" stroke="#191970" points="469.9062,-105.1974 459.6357,-102.5958 466.0421,-111.0343 469.9062,-105.1974"/>
</g>
<!-- Node79 -->
<g id="node8" class="node">
<title>Node79</title>
<g id="a_node8"><a xlink:href="class_send_coins_dialog.html#a127bddff45f49ff5e6e263efe218ae26" target="_top" xlink:title="SendCoinsDialog::clear">
<polygon fill="#ffffff" stroke="#000000" points="569.6719,-121.5 569.6719,-139.5 690.1738,-139.5 690.1738,-121.5 569.6719,-121.5"/>
<text text-anchor="middle" x="629.9229" y="-127.5" font-family="Helvetica,sans-Serif" font-size="10.00" fill="#000000">SendCoinsDialog::clear</text>
</a>
</g>
</g>
<!-- Node77&#45;&gt;Node79 -->
<g id="edge7" class="edge">
<title>Node77&#45;&gt;Node79</title>
<path fill="none" stroke="#191970" d="M501.5292,-104.5664C528.2642,-109.9665 560.0174,-116.3801 585.2571,-121.4782"/>
<polygon fill="#191970" stroke="#191970" points="502.0475,-101.1004 491.5525,-102.5512 500.6615,-107.9619 502.0475,-101.1004"/>
</g>
<!-- Node82 -->
<g id="node11" class="node">
<title>Node82</title>
<g id="a_node11"><a xlink:href="class_send_coins_dialog.html#aabd82a79bd2358493f36425f1d62136b" target="_top" xlink:title="SendCoinsDialog::removeEntry">
<polygon fill="#ffffff" stroke="#000000" points="552.167,-84.5 552.167,-102.5 707.6787,-102.5 707.6787,-84.5 552.167,-84.5"/>
<text text-anchor="middle" x="629.9229" y="-90.5" font-family="Helvetica,sans-Serif" font-size="10.00" fill="#000000">SendCoinsDialog::removeEntry</text>
</a>
</g>
</g>
<!-- Node77&#45;&gt;Node82 -->
<g id="edge11" class="edge">
<title>Node77&#45;&gt;Node82</title>
<path fill="none" stroke="#191970" d="M526.4562,-86.8007C534.8906,-86.7283 543.4617,-86.7334 551.8768,-86.816"/>
<polygon fill="#191970" stroke="#191970" points="526.2113,-83.3034 516.2555,-86.9274 526.2983,-90.3028 526.2113,-83.3034"/>
</g>
<!-- Node83 -->
<g id="node12" class="node">
<title>Node83</title>
<g id="a_node12"><a xlink:href="class_send_coins_dialog.html#a920b2dbf121ca3cfac2adc56e96295f8" target="_top" xlink:title="SendCoinsDialog::setAddress">
<polygon fill="#ffffff" stroke="#000000" points="555.4971,-47.5 555.4971,-65.5 704.3486,-65.5 704.3486,-47.5 555.4971,-47.5"/>
<text text-anchor="middle" x="629.9229" y="-53.5" font-family="Helvetica,sans-Serif" font-size="10.00" fill="#000000">SendCoinsDialog::setAddress</text>
</a>
</g>
</g>
<!-- Node77&#45;&gt;Node83 -->
<g id="edge13" class="edge">
<title>Node77&#45;&gt;Node83</title>
<path fill="none" stroke="#191970" d="M501.5292,-82.4336C528.2642,-77.0335 560.0174,-70.6199 585.2571,-65.5218"/>
<polygon fill="#191970" stroke="#191970" points="500.6615,-79.0381 491.5525,-84.4488 502.0475,-85.8996 500.6615,-79.0381"/>
</g>
<!-- Node85 -->
<g id="node14" class="node">
<title>Node85</title>
<g id="a_node14"><a xlink:href="class_send_coins_dialog.html#a4440d15ced5d217baaad33a17d56b409" target="_top" xlink:title="SendCoinsDialog::pasteEntry">
<polygon fill="#ffffff" stroke="#000000" points="556.6079,-8.5 556.6079,-26.5 703.2378,-26.5 703.2378,-8.5 556.6079,-8.5"/>
<text text-anchor="middle" x="629.9229" y="-14.5" font-family="Helvetica,sans-Serif" font-size="10.00" fill="#000000">SendCoinsDialog::pasteEntry</text>
</a>
</g>
</g>
<!-- Node77&#45;&gt;Node85 -->
<g id="edge15" class="edge">
<title>Node77&#45;&gt;Node85</title>
<path fill="none" stroke="#191970" d="M470.0038,-79.0762C490.8768,-66.6432 522.6763,-48.939 552.167,-37.5 563.343,-33.165 575.7851,-29.4855 587.3815,-26.5103"/>
<polygon fill="#191970" stroke="#191970" points="467.9797,-76.2098 461.2299,-84.3762 471.5992,-82.2014 467.9797,-76.2098"/>
</g>
<!-- Node79&#45;&gt;Node78 -->
<g id="edge8" class="edge">
<title>Node79&#45;&gt;Node78</title>
<path fill="none" stroke="#191970" d="M682.4778,-141.6528C706.7831,-146.8107 735.9162,-152.993 761.6978,-158.4642"/>
<polygon fill="#191970" stroke="#191970" points="682.8894,-138.1623 672.3807,-139.5101 681.4363,-145.0098 682.8894,-138.1623"/>
</g>
<!-- Node80 -->
<g id="node9" class="node">
<title>Node80</title>
<g id="a_node9"><a xlink:href="class_send_coins_dialog.html#a4879553d77d29f522ac92ac04580f4ad" target="_top" xlink:title="SendCoinsDialog::reject">
<polygon fill="#ffffff" stroke="#000000" points="766.1982,-121.5 766.1982,-139.5 889.4785,-139.5 889.4785,-121.5 766.1982,-121.5"/>
<text text-anchor="middle" x="827.8384" y="-127.5" font-family="Helvetica,sans-Serif" font-size="10.00" fill="#000000">SendCoinsDialog::reject</text>
</a>
</g>
</g>
<!-- Node79&#45;&gt;Node80 -->
<g id="edge9" class="edge">
<title>Node79&#45;&gt;Node80</title>
<path fill="none" stroke="#191970" d="M700.4001,-130.5C721.8375,-130.5 745.2243,-130.5 766.0435,-130.5"/>
<polygon fill="#191970" stroke="#191970" points="700.3795,-127.0001 690.3794,-130.5 700.3794,-134.0001 700.3795,-127.0001"/>
</g>
<!-- Node81 -->
<g id="node10" class="node">
<title>Node81</title>
<g id="a_node10"><a xlink:href="class_send_coins_dialog.html#af2185c3d29e43d37c30669f0def46060" target="_top" xlink:title="SendCoinsDialog::accept">
<polygon fill="#ffffff" stroke="#000000" points="763.6934,-84.5 763.6934,-102.5 891.9834,-102.5 891.9834,-84.5 763.6934,-84.5"/>
<text text-anchor="middle" x="827.8384" y="-90.5" font-family="Helvetica,sans-Serif" font-size="10.00" fill="#000000">SendCoinsDialog::accept</text>
</a>
</g>
</g>
<!-- Node79&#45;&gt;Node81 -->
<g id="edge10" class="edge">
<title>Node79&#45;&gt;Node81</title>
<path fill="none" stroke="#191970" d="M688.1032,-119.6233C717.1549,-114.1921 751.8894,-107.6985 779.4599,-102.5443"/>
<polygon fill="#191970" stroke="#191970" points="687.2719,-116.218 678.0854,-121.4961 688.5583,-123.0988 687.2719,-116.218"/>
</g>
<!-- Node82&#45;&gt;Node77 -->
<g id="edge12" class="edge">
<title>Node82&#45;&gt;Node77</title>
<path fill="none" stroke="#191970" d="M541.8345,-100.2456C533.2485,-100.2671 524.6214,-100.2095 516.2555,-100.0726"/>
<polygon fill="#191970" stroke="#191970" points="541.8985,-103.7454 551.8768,-100.184 541.8554,-96.7455 541.8985,-103.7454"/>
</g>
<!-- Node84 -->
<g id="node13" class="node">
<title>Node84</title>
<g id="a_node13"><a xlink:href="class_wallet_view.html#a2a70c2b00b097dd7b83b6915bb037ea3" target="_top" xlink:title="Switch to send coins page. ">
<polygon fill="#ffffff" stroke="#000000" points="746.7329,-47.5 746.7329,-65.5 908.9438,-65.5 908.9438,-47.5 746.7329,-47.5"/>
<text text-anchor="middle" x="827.8384" y="-53.5" font-family="Helvetica,sans-Serif" font-size="10.00" fill="#000000">WalletView::gotoSendCoinsPage</text>
</a>
</g>
</g>
<!-- Node83&#45;&gt;Node84 -->
<g id="edge14" class="edge">
<title>Node83&#45;&gt;Node84</title>
<path fill="none" stroke="#191970" d="M714.5169,-56.5C725.0903,-56.5 735.8872,-56.5 746.4109,-56.5"/>
<polygon fill="#191970" stroke="#191970" points="714.4642,-53.0001 704.4642,-56.5 714.4642,-60.0001 714.4642,-53.0001"/>
</g>
<!-- Node86 -->
<g id="node15" class="node">
<title>Node86</title>
<g id="a_node15"><a xlink:href="class_send_coins_dialog.html#a82ed6a3badadaa523415e1924ebd292a" target="_top" xlink:title="SendCoinsDialog::handlePayment\lRequest">
<polygon fill="#ffffff" stroke="#000000" points="743.6787,-.5 743.6787,-28.5 911.998,-28.5 911.998,-.5 743.6787,-.5"/>
<text text-anchor="start" x="751.6787" y="-16.5" font-family="Helvetica,sans-Serif" font-size="10.00" fill="#000000">SendCoinsDialog::handlePayment</text>
<text text-anchor="middle" x="827.8384" y="-6.5" font-family="Helvetica,sans-Serif" font-size="10.00" fill="#000000">Request</text>
</a>
</g>
</g>
<!-- Node85&#45;&gt;Node86 -->
<g id="edge16" class="edge">
<title>Node85&#45;&gt;Node86</title>
<path fill="none" stroke="#191970" d="M713.5736,-16.232C723.4851,-16.0818 733.6065,-15.9284 743.5271,-15.778"/>
<polygon fill="#191970" stroke="#191970" points="713.2838,-12.7359 703.338,-16.3872 713.39,-19.7351 713.2838,-12.7359"/>
</g>
<!-- Node87 -->
<g id="node16" class="node">
<title>Node87</title>
<g id="a_node16"><a xlink:href="class_wallet_view.html#a0ae21d91a9d7755026ce2a6846cef68d" target="_top" xlink:title="WalletView::handlePayment\lRequest">
<polygon fill="#ffffff" stroke="#000000" points="947.998,-.5 947.998,-28.5 1087.9629,-28.5 1087.9629,-.5 947.998,-.5"/>
<text text-anchor="start" x="955.998" y="-16.5" font-family="Helvetica,sans-Serif" font-size="10.00" fill="#000000">WalletView::handlePayment</text>
<text text-anchor="middle" x="1017.9805" y="-6.5" font-family="Helvetica,sans-Serif" font-size="10.00" fill="#000000">Request</text>
</a>
</g>
</g>
<!-- Node86&#45;&gt;Node87 -->
<g id="edge17" class="edge">
<title>Node86&#45;&gt;Node87</title>
<path fill="none" stroke="#191970" d="M922.1632,-14.5C930.7806,-14.5 939.4062,-14.5 947.7568,-14.5"/>
<polygon fill="#191970" stroke="#191970" points="922.0679,-11.0001 912.0678,-14.5 922.0678,-18.0001 922.0679,-11.0001"/>
</g>
<!-- Node88 -->
<g id="node17" class="node">
<title>Node88</title>
<g id="a_node17"><a xlink:href="class_wallet_frame.html#aa8c5b10f2240df164795619ca41c619c" target="_top" xlink:title="WalletFrame::handlePayment\lRequest">
<polygon fill="#ffffff" stroke="#000000" points="1123.9629,-.5 1123.9629,-28.5 1271.3203,-28.5 1271.3203,-.5 1123.9629,-.5"/>
<text text-anchor="start" x="1131.9629" y="-16.5" font-family="Helvetica,sans-Serif" font-size="10.00" fill="#000000">WalletFrame::handlePayment</text>
<text text-anchor="middle" x="1197.6416" y="-6.5" font-family="Helvetica,sans-Serif" font-size="10.00" fill="#000000">Request</text>
</a>
</g>
</g>
<!-- Node87&#45;&gt;Node88 -->
<g id="edge18" class="edge">
<title>Node87&#45;&gt;Node88</title>
<path fill="none" stroke="#191970" d="M1098.4668,-14.5C1106.9346,-14.5 1115.5144,-14.5 1123.9008,-14.5"/>
<polygon fill="#191970" stroke="#191970" points="1098.2141,-11.0001 1088.2141,-14.5 1098.214,-18.0001 1098.2141,-11.0001"/>
</g>
</g>
</svg>
