<?xml version="1.0" encoding="UTF-8" standalone="no"?>
<!DOCTYPE svg PUBLIC "-//W3C//DTD SVG 1.1//EN"
 "http://www.w3.org/Graphics/SVG/1.1/DTD/svg11.dtd">
<!-- Generated by graphviz version 2.40.1 (20161225.0304)
 -->
<!-- Title: WalletBatch::ErasePool Pages: 1 -->
<svg width="459pt" height="74pt"
 viewBox="0.00 0.00 459.08 74.00" xmlns="http://www.w3.org/2000/svg" xmlns:xlink="http://www.w3.org/1999/xlink">
<g id="graph0" class="graph" transform="scale(1 1) rotate(0) translate(4 70)">
<title>WalletBatch::ErasePool</title>
<polygon fill="#ffffff" stroke="transparent" points="-4,4 -4,-70 455.084,-70 455.084,4 -4,4"/>
<!-- Node60 -->
<g id="node1" class="node">
<title>Node60</title>
<polygon fill="#bfbfbf" stroke="#000000" points="0,-26.5 0,-44.5 120.6826,-44.5 120.6826,-26.5 0,-26.5"/>
<text text-anchor="middle" x="60.3413" y="-32.5" font-family="Helvetica,sans-Serif" font-size="10.00" fill="#000000">WalletBatch::ErasePool</text>
</g>
<!-- Node61 -->
<g id="node2" class="node">
<title>Node61</title>
<g id="a_node2"><a xlink:href="class_wallet_batch.html#a9142686ef26de3c4ab3062237a81f345" target="_top" xlink:title="WalletBatch::EraseIC">
<polygon fill="#ffffff" stroke="#000000" points="156.6826,-26.5 156.6826,-44.5 267.3506,-44.5 267.3506,-26.5 156.6826,-26.5"/>
<text text-anchor="middle" x="212.0166" y="-32.5" font-family="Helvetica,sans-Serif" font-size="10.00" fill="#000000">WalletBatch::EraseIC</text>
</a>
</g>
</g>
<!-- Node60&#45;&gt;Node61 -->
<g id="edge1" class="edge">
<title>Node60&#45;&gt;Node61</title>
<path fill="none" stroke="#191970" d="M120.7232,-35.5C129.0632,-35.5 137.6635,-35.5 146.0974,-35.5"/>
<polygon fill="#191970" stroke="#191970" points="146.2736,-39.0001 156.2736,-35.5 146.2735,-32.0001 146.2736,-39.0001"/>
</g>
<!-- Node62 -->
<g id="node3" class="node">
<title>Node62</title>
<g id="a_node3"><a xlink:href="class_berkeley_batch.html#af17c19ee65042d1c497f61d4560e9639" target="_top" xlink:title="BerkeleyBatch::Erase">
<polygon fill="#ffffff" stroke="#000000" points="321.1387,-47.5 321.1387,-65.5 433.2959,-65.5 433.2959,-47.5 321.1387,-47.5"/>
<text text-anchor="middle" x="377.2173" y="-53.5" font-family="Helvetica,sans-Serif" font-size="10.00" fill="#000000">BerkeleyBatch::Erase</text>
</a>
</g>
</g>
<!-- Node61&#45;&gt;Node62 -->
<g id="edge2" class="edge">
<title>Node61&#45;&gt;Node62</title>
<path fill="none" stroke="#191970" d="M267.4856,-42.5511C281.3643,-44.3153 296.3926,-46.2257 310.745,-48.0502"/>
<polygon fill="#191970" stroke="#191970" points="310.6886,-51.5711 321.0501,-49.3601 311.5714,-44.627 310.6886,-51.5711"/>
</g>
<!-- Node63 -->
<g id="node4" class="node">
<title>Node63</title>
<g id="a_node4"><a xlink:href="class_berkeley_database.html#a313cd767c211da5738bdb5578cd59af7" target="_top" xlink:title="BerkeleyDatabase::Increment\lUpdateCounter">
<polygon fill="#ffffff" stroke="#000000" points="303.3506,-.5 303.3506,-28.5 451.084,-28.5 451.084,-.5 303.3506,-.5"/>
<text text-anchor="start" x="311.3506" y="-16.5" font-family="Helvetica,sans-Serif" font-size="10.00" fill="#000000">BerkeleyDatabase::Increment</text>
<text text-anchor="middle" x="377.2173" y="-6.5" font-family="Helvetica,sans-Serif" font-size="10.00" fill="#000000">UpdateCounter</text>
</a>
</g>
</g>
<!-- Node61&#45;&gt;Node63 -->
<g id="edge3" class="edge">
<title>Node61&#45;&gt;Node63</title>
<path fill="none" stroke="#191970" d="M267.4856,-28.4489C275.705,-27.404 284.3277,-26.308 292.9743,-25.2088"/>
<polygon fill="#191970" stroke="#191970" points="293.6342,-28.6532 303.113,-23.92 292.7515,-21.7091 293.6342,-28.6532"/>
</g>
</g>
</svg>
