<?xml version="1.0" encoding="UTF-8" standalone="no"?>
<!DOCTYPE svg PUBLIC "-//W3C//DTD SVG 1.1//EN"
 "http://www.w3.org/Graphics/SVG/1.1/DTD/svg11.dtd">
<!-- Generated by graphviz version 2.40.1 (20161225.0304)
 -->
<!-- Title: interfaces::Wallet::delAddressBook Pages: 1 -->
<svg width="248pt" height="37pt"
 viewBox="0.00 0.00 247.76 37.00" xmlns="http://www.w3.org/2000/svg" xmlns:xlink="http://www.w3.org/1999/xlink">
<g id="graph0" class="graph" transform="scale(1 1) rotate(0) translate(4 33)">
<title>interfaces::Wallet::delAddressBook</title>
<polygon fill="#ffffff" stroke="transparent" points="-4,4 -4,-33 243.7627,-33 243.7627,4 -4,4"/>
<!-- Node28 -->
<g id="node1" class="node">
<title>Node28</title>
<polygon fill="#bfbfbf" stroke="#000000" points="0,-.5 0,-28.5 94.3789,-28.5 94.3789,-.5 0,-.5"/>
<text text-anchor="start" x="8" y="-16.5" font-family="Helvetica,sans-Serif" font-size="10.00" fill="#000000">interfaces::Wallet</text>
<text text-anchor="middle" x="47.1895" y="-6.5" font-family="Helvetica,sans-Serif" font-size="10.00" fill="#000000">::delAddressBook</text>
</g>
<!-- Node29 -->
<g id="node2" class="node">
<title>Node29</title>
<g id="a_node2"><a xlink:href="class_address_table_model.html#a5c6bd467fd1fc499d126fe2b7380ce5c" target="_top" xlink:title="AddressTableModel::\lsetData">
<polygon fill="#ffffff" stroke="#000000" points="130.3789,-.5 130.3789,-28.5 239.7627,-28.5 239.7627,-.5 130.3789,-.5"/>
<text text-anchor="start" x="138.3789" y="-16.5" font-family="Helvetica,sans-Serif" font-size="10.00" fill="#000000">AddressTableModel::</text>
<text text-anchor="middle" x="185.0708" y="-6.5" font-family="Helvetica,sans-Serif" font-size="10.00" fill="#000000">setData</text>
</a>
</g>
</g>
<!-- Node28&#45;&gt;Node29 -->
<g id="edge1" class="edge">
<title>Node28&#45;&gt;Node29</title>
<path fill="none" stroke="#191970" d="M104.6861,-14.5C113.0438,-14.5 121.6323,-14.5 129.9417,-14.5"/>
<polygon fill="#191970" stroke="#191970" points="104.6404,-11.0001 94.6404,-14.5 104.6404,-18.0001 104.6404,-11.0001"/>
</g>
</g>
</svg>
