<?xml version="1.0" encoding="UTF-8" standalone="no"?>
<!DOCTYPE svg PUBLIC "-//W3C//DTD SVG 1.1//EN"
 "http://www.w3.org/Graphics/SVG/1.1/DTD/svg11.dtd">
<!-- Generated by graphviz version 2.40.1 (20161225.0304)
 -->
<!-- Title: ProxyAddressValidator::validate Pages: 1 -->
<svg width="543pt" height="37pt"
 viewBox="0.00 0.00 542.54 37.00" xmlns="http://www.w3.org/2000/svg" xmlns:xlink="http://www.w3.org/1999/xlink">
<g id="graph0" class="graph" transform="scale(1 1) rotate(0) translate(4 33)">
<title>ProxyAddressValidator::validate</title>
<polygon fill="#ffffff" stroke="transparent" points="-4,4 -4,-33 538.5371,-33 538.5371,4 -4,4"/>
<!-- Node2 -->
<g id="node1" class="node">
<title>Node2</title>
<polygon fill="#bfbfbf" stroke="#000000" points="0,-.5 0,-28.5 116.9766,-28.5 116.9766,-.5 0,-.5"/>
<text text-anchor="start" x="8" y="-16.5" font-family="Helvetica,sans-Serif" font-size="10.00" fill="#000000">ProxyAddressValidator</text>
<text text-anchor="middle" x="58.4883" y="-6.5" font-family="Helvetica,sans-Serif" font-size="10.00" fill="#000000">::validate</text>
</g>
<!-- Node3 -->
<g id="node2" class="node">
<title>Node3</title>
<g id="a_node2"><a xlink:href="netbase_8cpp.html#a82f06e9cca43021fa1c4f234a7fe5e2a" target="_top" xlink:title="LookupNumeric">
<polygon fill="#ffffff" stroke="#000000" points="152.9766,-5.5 152.9766,-23.5 239.0107,-23.5 239.0107,-5.5 152.9766,-5.5"/>
<text text-anchor="middle" x="195.9937" y="-11.5" font-family="Helvetica,sans-Serif" font-size="10.00" fill="#000000">LookupNumeric</text>
</a>
</g>
</g>
<!-- Node2&#45;&gt;Node3 -->
<g id="edge1" class="edge">
<title>Node2&#45;&gt;Node3</title>
<path fill="none" stroke="#191970" d="M117.2018,-14.5C125.7126,-14.5 134.4331,-14.5 142.8265,-14.5"/>
<polygon fill="#191970" stroke="#191970" points="142.8663,-18.0001 152.8663,-14.5 142.8663,-11.0001 142.8663,-18.0001"/>
</g>
<!-- Node4 -->
<g id="node3" class="node">
<title>Node4</title>
<g id="a_node3"><a xlink:href="netbase_8cpp.html#a56a2f4bcb9fb77b5efe358f804f642cc" target="_top" xlink:title="Lookup">
<polygon fill="#ffffff" stroke="#000000" points="275.0107,-5.5 275.0107,-23.5 323.8184,-23.5 323.8184,-5.5 275.0107,-5.5"/>
<text text-anchor="middle" x="299.4146" y="-11.5" font-family="Helvetica,sans-Serif" font-size="10.00" fill="#000000">Lookup</text>
</a>
</g>
</g>
<!-- Node3&#45;&gt;Node4 -->
<g id="edge2" class="edge">
<title>Node3&#45;&gt;Node4</title>
<path fill="none" stroke="#191970" d="M239.2542,-14.5C247.7212,-14.5 256.499,-14.5 264.6459,-14.5"/>
<polygon fill="#191970" stroke="#191970" points="264.9135,-18.0001 274.9134,-14.5 264.9134,-11.0001 264.9135,-18.0001"/>
</g>
<!-- Node5 -->
<g id="node4" class="node">
<title>Node5</title>
<g id="a_node4"><a xlink:href="utilstrencodings_8cpp.html#a1b1ce2ba1ffe40785e65ec3ad5a20e79" target="_top" xlink:title="SplitHostPort">
<polygon fill="#ffffff" stroke="#000000" points="359.8184,-5.5 359.8184,-23.5 434.1729,-23.5 434.1729,-5.5 359.8184,-5.5"/>
<text text-anchor="middle" x="396.9956" y="-11.5" font-family="Helvetica,sans-Serif" font-size="10.00" fill="#000000">SplitHostPort</text>
</a>
</g>
</g>
<!-- Node4&#45;&gt;Node5 -->
<g id="edge3" class="edge">
<title>Node4&#45;&gt;Node5</title>
<path fill="none" stroke="#191970" d="M324.0384,-14.5C331.7487,-14.5 340.5363,-14.5 349.2779,-14.5"/>
<polygon fill="#191970" stroke="#191970" points="349.4514,-18.0001 359.4514,-14.5 349.4514,-11.0001 349.4514,-18.0001"/>
</g>
<!-- Node6 -->
<g id="node5" class="node">
<title>Node6</title>
<g id="a_node5"><a xlink:href="utilstrencodings_8cpp.html#a880a215d9e931432b095084c756a49bb" target="_top" xlink:title="Convert string to signed 32&#45;bit integer with strict parse error feedback. ">
<polygon fill="#ffffff" stroke="#000000" points="470.1729,-5.5 470.1729,-23.5 534.5371,-23.5 534.5371,-5.5 470.1729,-5.5"/>
<text text-anchor="middle" x="502.355" y="-11.5" font-family="Helvetica,sans-Serif" font-size="10.00" fill="#000000">ParseInt32</text>
</a>
</g>
</g>
<!-- Node5&#45;&gt;Node6 -->
<g id="edge4" class="edge">
<title>Node5&#45;&gt;Node6</title>
<path fill="none" stroke="#191970" d="M434.438,-14.5C442.6798,-14.5 451.466,-14.5 459.8899,-14.5"/>
<polygon fill="#191970" stroke="#191970" points="459.9245,-18.0001 469.9244,-14.5 459.9244,-11.0001 459.9245,-18.0001"/>
</g>
</g>
</svg>
