<?xml version="1.0" encoding="UTF-8" standalone="no"?>
<!DOCTYPE svg PUBLIC "-//W3C//DTD SVG 1.1//EN"
 "http://www.w3.org/Graphics/SVG/1.1/DTD/svg11.dtd">
<!-- Generated by graphviz version 2.40.1 (20161225.0304)
 -->
<!-- Title: CCheckQueueControl::Wait Pages: 1 -->
<svg width="283pt" height="37pt"
 viewBox="0.00 0.00 283.05 37.00" xmlns="http://www.w3.org/2000/svg" xmlns:xlink="http://www.w3.org/1999/xlink">
<g id="graph0" class="graph" transform="scale(1 1) rotate(0) translate(4 33)">
<title>CCheckQueueControl::Wait</title>
<polygon fill="#ffffff" stroke="transparent" points="-4,4 -4,-33 279.0508,-33 279.0508,4 -4,4"/>
<!-- Node14 -->
<g id="node1" class="node">
<title>Node14</title>
<polygon fill="#bfbfbf" stroke="#000000" points="0,-.5 0,-28.5 113.8271,-28.5 113.8271,-.5 0,-.5"/>
<text text-anchor="start" x="8" y="-16.5" font-family="Helvetica,sans-Serif" font-size="10.00" fill="#000000">CCheckQueueControl</text>
<text text-anchor="middle" x="56.9136" y="-6.5" font-family="Helvetica,sans-Serif" font-size="10.00" fill="#000000">::Wait</text>
</g>
<!-- Node15 -->
<g id="node2" class="node">
<title>Node15</title>
<g id="a_node2"><a xlink:href="class_c_check_queue_control.html#afc8a9f044b4559a04ff3569cff5d2f94" target="_top" xlink:title="CCheckQueueControl\l::~CCheckQueueControl">
<polygon fill="#ffffff" stroke="#000000" points="149.8271,-.5 149.8271,-28.5 275.0508,-28.5 275.0508,-.5 149.8271,-.5"/>
<text text-anchor="start" x="157.8271" y="-16.5" font-family="Helvetica,sans-Serif" font-size="10.00" fill="#000000">CCheckQueueControl</text>
<text text-anchor="middle" x="212.439" y="-6.5" font-family="Helvetica,sans-Serif" font-size="10.00" fill="#000000">::~CCheckQueueControl</text>
</a>
</g>
</g>
<!-- Node14&#45;&gt;Node15 -->
<g id="edge1" class="edge">
<title>Node14&#45;&gt;Node15</title>
<path fill="none" stroke="#191970" d="M124.1557,-14.5C132.6203,-14.5 141.2544,-14.5 149.6466,-14.5"/>
<polygon fill="#191970" stroke="#191970" points="123.9424,-11.0001 113.9424,-14.5 123.9423,-18.0001 123.9424,-11.0001"/>
</g>
</g>
</svg>
