<?xml version="1.0" encoding="UTF-8" standalone="no"?>
<!DOCTYPE svg PUBLIC "-//W3C//DTD SVG 1.1//EN"
 "http://www.w3.org/Graphics/SVG/1.1/DTD/svg11.dtd">
<!-- Generated by graphviz version 2.40.1 (20161225.0304)
 -->
<!-- Title: CScript::IsUnspendable Pages: 1 -->
<svg width="1913pt" height="392pt"
 viewBox="0.00 0.00 1912.89 392.00" xmlns="http://www.w3.org/2000/svg" xmlns:xlink="http://www.w3.org/1999/xlink">
<g id="graph0" class="graph" transform="scale(1 1) rotate(0) translate(4 388)">
<title>CScript::IsUnspendable</title>
<polygon fill="#ffffff" stroke="transparent" points="-4,4 -4,-388 1908.8867,-388 1908.8867,4 -4,4"/>
<!-- Node344 -->
<g id="node1" class="node">
<title>Node344</title>
<polygon fill="#bfbfbf" stroke="#000000" points="0,-272.5 0,-290.5 121.0537,-290.5 121.0537,-272.5 0,-272.5"/>
<text text-anchor="middle" x="60.5269" y="-278.5" font-family="Helvetica,sans-Serif" font-size="10.00" fill="#000000">CScript::IsUnspendable</text>
</g>
<!-- Node345 -->
<g id="node2" class="node">
<title>Node345</title>
<g id="a_node2"><a xlink:href="core__write_8cpp.html#accaf6e3c14d2f3045f85984aa9cec2c8" target="_top" xlink:title="Create the assembly string representation of a CScript object. ">
<polygon fill="#ffffff" stroke="#000000" points="176.3311,-328.5 176.3311,-346.5 261.2324,-346.5 261.2324,-328.5 176.3311,-328.5"/>
<text text-anchor="middle" x="218.7817" y="-334.5" font-family="Helvetica,sans-Serif" font-size="10.00" fill="#000000">ScriptToAsmStr</text>
</a>
</g>
</g>
<!-- Node344&#45;&gt;Node345 -->
<g id="edge1" class="edge">
<title>Node344&#45;&gt;Node345</title>
<path fill="none" stroke="#191970" d="M91.0653,-294.3488C109.923,-302.0759 134.7051,-311.8603 157.0537,-319.5 166.2434,-322.6414 176.3162,-325.7265 185.6105,-328.4308"/>
<polygon fill="#191970" stroke="#191970" points="92.3671,-291.0998 81.7882,-290.5179 89.6952,-297.5698 92.3671,-291.0998"/>
</g>
<!-- Node351 -->
<g id="node8" class="node">
<title>Node351</title>
<g id="a_node8"><a xlink:href="group__map_wallet.html#gab0c6bd4121e6f00b656838efb3d38c56" target="_top" xlink:title="CWalletTx::GetAmounts">
<polygon fill="#ffffff" stroke="#000000" points="157.3394,-291.5 157.3394,-309.5 280.2241,-309.5 280.2241,-291.5 157.3394,-291.5"/>
<text text-anchor="middle" x="218.7817" y="-297.5" font-family="Helvetica,sans-Serif" font-size="10.00" fill="#000000">CWalletTx::GetAmounts</text>
</a>
</g>
</g>
<!-- Node344&#45;&gt;Node351 -->
<g id="edge7" class="edge">
<title>Node344&#45;&gt;Node351</title>
<path fill="none" stroke="#191970" d="M131.2998,-289.997C139.9262,-291.0326 148.6864,-292.0844 157.1644,-293.1023"/>
<polygon fill="#191970" stroke="#191970" points="131.6057,-286.5086 121.2597,-288.7916 130.7712,-293.4587 131.6057,-286.5086"/>
</g>
<!-- Node352 -->
<g id="node9" class="node">
<title>Node352</title>
<g id="a_node9"><a xlink:href="group___actions.html#ga5d04322c16261cffd9f94bab8655ddac" target="_top" xlink:title="CWallet::GetLabelName">
<polygon fill="#ffffff" stroke="#000000" points="157.0537,-254.5 157.0537,-272.5 280.5098,-272.5 280.5098,-254.5 157.0537,-254.5"/>
<text text-anchor="middle" x="218.7817" y="-260.5" font-family="Helvetica,sans-Serif" font-size="10.00" fill="#000000">CWallet::GetLabelName</text>
</a>
</g>
</g>
<!-- Node344&#45;&gt;Node352 -->
<g id="edge8" class="edge">
<title>Node344&#45;&gt;Node352</title>
<path fill="none" stroke="#191970" d="M131.2248,-273.4588C139.7865,-272.485 148.4813,-271.496 156.9022,-270.5382"/>
<polygon fill="#191970" stroke="#191970" points="130.8001,-269.9844 121.2597,-274.5922 131.5912,-276.9396 130.8001,-269.9844"/>
</g>
<!-- Node353 -->
<g id="node10" class="node">
<title>Node353</title>
<g id="a_node10"><a xlink:href="policy_8h.html#aca93e8f8f4f044b4dfe7499833ae1457" target="_top" xlink:title="GetDustThreshold">
<polygon fill="#ffffff" stroke="#000000" points="170.208,-217.5 170.208,-235.5 267.3555,-235.5 267.3555,-217.5 170.208,-217.5"/>
<text text-anchor="middle" x="218.7817" y="-223.5" font-family="Helvetica,sans-Serif" font-size="10.00" fill="#000000">GetDustThreshold</text>
</a>
</g>
</g>
<!-- Node344&#45;&gt;Node353 -->
<g id="edge9" class="edge">
<title>Node344&#45;&gt;Node353</title>
<path fill="none" stroke="#191970" d="M93.2823,-268.7419C111.8875,-261.6319 135.6667,-252.7727 157.0537,-245.5 167.1388,-242.0705 178.2394,-238.5699 188.2131,-235.5231"/>
<polygon fill="#191970" stroke="#191970" points="91.8757,-265.5329 83.7962,-272.3866 94.3863,-272.0672 91.8757,-265.5329"/>
</g>
<!-- Node346 -->
<g id="node3" class="node">
<title>Node346</title>
<g id="a_node3"><a xlink:href="core__write_8cpp.html#a0008f40d9c179d229ead567d0d356023" target="_top" xlink:title="ScriptToUniv">
<polygon fill="#ffffff" stroke="#000000" points="334.022,-291.5 334.022,-309.5 406.1499,-309.5 406.1499,-291.5 334.022,-291.5"/>
<text text-anchor="middle" x="370.0859" y="-297.5" font-family="Helvetica,sans-Serif" font-size="10.00" fill="#000000">ScriptToUniv</text>
</a>
</g>
</g>
<!-- Node345&#45;&gt;Node346 -->
<g id="edge2" class="edge">
<title>Node345&#45;&gt;Node346</title>
<path fill="none" stroke="#191970" d="M265.6122,-326.0481C287.6382,-320.6618 313.4967,-314.3384 333.977,-309.3301"/>
<polygon fill="#191970" stroke="#191970" points="264.6773,-322.6735 255.7949,-328.4488 266.3401,-329.4731 264.6773,-322.6735"/>
</g>
<!-- Node348 -->
<g id="node5" class="node">
<title>Node348</title>
<g id="a_node5"><a xlink:href="core__write_8cpp.html#a4a51bf7268adbdcd58e7af445ea4db61" target="_top" xlink:title="ScriptPubKeyToUniv">
<polygon fill="#ffffff" stroke="#000000" points="316.5098,-365.5 316.5098,-383.5 423.6621,-383.5 423.6621,-365.5 316.5098,-365.5"/>
<text text-anchor="middle" x="370.0859" y="-371.5" font-family="Helvetica,sans-Serif" font-size="10.00" fill="#000000">ScriptPubKeyToUniv</text>
</a>
</g>
</g>
<!-- Node345&#45;&gt;Node348 -->
<g id="edge4" class="edge">
<title>Node345&#45;&gt;Node348</title>
<path fill="none" stroke="#191970" d="M265.795,-348.9967C287.5008,-354.3046 312.8966,-360.5149 333.193,-365.4782"/>
<polygon fill="#191970" stroke="#191970" points="266.3401,-345.5269 255.7949,-346.5512 264.6773,-352.3265 266.3401,-345.5269"/>
</g>
<!-- Node349 -->
<g id="node6" class="node">
<title>Node349</title>
<g id="a_node6"><a xlink:href="rawtransaction_8h.html#a69f132a19b8e91bd9b0b1330b5323f0a" target="_top" xlink:title="Sign a transaction with the given keystore and previous transactions. ">
<polygon fill="#ffffff" stroke="#000000" points="326.1387,-328.5 326.1387,-346.5 414.0332,-346.5 414.0332,-328.5 326.1387,-328.5"/>
<text text-anchor="middle" x="370.0859" y="-334.5" font-family="Helvetica,sans-Serif" font-size="10.00" fill="#000000">SignTransaction</text>
</a>
</g>
</g>
<!-- Node345&#45;&gt;Node349 -->
<g id="edge5" class="edge">
<title>Node345&#45;&gt;Node349</title>
<path fill="none" stroke="#191970" d="M271.5514,-337.5C289.3325,-337.5 308.9753,-337.5 326.0136,-337.5"/>
<polygon fill="#191970" stroke="#191970" points="271.3311,-334.0001 261.331,-337.5 271.331,-341.0001 271.3311,-334.0001"/>
</g>
<!-- Node347 -->
<g id="node4" class="node">
<title>Node347</title>
<g id="a_node4"><a xlink:href="rawtransaction_8cpp.html#a0e9b5930a41831d5be26d74565f07340" target="_top" xlink:title="decodepsbt">
<polygon fill="#ffffff" stroke="#000000" points="497.1694,-291.5 497.1694,-309.5 564.8784,-309.5 564.8784,-291.5 497.1694,-291.5"/>
<text text-anchor="middle" x="531.0239" y="-297.5" font-family="Helvetica,sans-Serif" font-size="10.00" fill="#000000">decodepsbt</text>
</a>
</g>
</g>
<!-- Node346&#45;&gt;Node347 -->
<g id="edge3" class="edge">
<title>Node346&#45;&gt;Node347</title>
<path fill="none" stroke="#191970" d="M416.4634,-300.5C442.1558,-300.5 473.5365,-300.5 496.9538,-300.5"/>
<polygon fill="#191970" stroke="#191970" points="416.2036,-297.0001 406.2036,-300.5 416.2035,-304.0001 416.2036,-297.0001"/>
</g>
<!-- Node350 -->
<g id="node7" class="node">
<title>Node350</title>
<g id="a_node7"><a xlink:href="rpcwallet_8h.html#a7c13054932c9e3b351bd6277fa9361d7" target="_top" xlink:title="signrawtransactionwithwallet">
<polygon fill="#ffffff" stroke="#000000" points="459.6621,-328.5 459.6621,-346.5 602.3857,-346.5 602.3857,-328.5 459.6621,-328.5"/>
<text text-anchor="middle" x="531.0239" y="-334.5" font-family="Helvetica,sans-Serif" font-size="10.00" fill="#000000">signrawtransactionwithwallet</text>
</a>
</g>
</g>
<!-- Node349&#45;&gt;Node350 -->
<g id="edge6" class="edge">
<title>Node349&#45;&gt;Node350</title>
<path fill="none" stroke="#191970" d="M424.2246,-337.5C435.5621,-337.5 447.6833,-337.5 459.5409,-337.5"/>
<polygon fill="#191970" stroke="#191970" points="424.063,-334.0001 414.063,-337.5 424.0629,-341.0001 424.063,-334.0001"/>
</g>
<!-- Node354 -->
<g id="node11" class="node">
<title>Node354</title>
<g id="a_node11"><a xlink:href="policy_8h.html#aa14f53785ebd18ba831b2b7a4e821e1c" target="_top" xlink:title="IsDust">
<polygon fill="#ffffff" stroke="#000000" points="347.916,-217.5 347.916,-235.5 392.2559,-235.5 392.2559,-217.5 347.916,-217.5"/>
<text text-anchor="middle" x="370.0859" y="-223.5" font-family="Helvetica,sans-Serif" font-size="10.00" fill="#000000">IsDust</text>
</a>
</g>
</g>
<!-- Node353&#45;&gt;Node354 -->
<g id="edge10" class="edge">
<title>Node353&#45;&gt;Node354</title>
<path fill="none" stroke="#191970" d="M277.8097,-226.5C302.3177,-226.5 329.2745,-226.5 347.6893,-226.5"/>
<polygon fill="#191970" stroke="#191970" points="277.4882,-223.0001 267.4882,-226.5 277.4882,-230.0001 277.4882,-223.0001"/>
</g>
<!-- Node355 -->
<g id="node12" class="node">
<title>Node355</title>
<g id="a_node12"><a xlink:href="class_coin_control_dialog.html#a4fc60e89b097952ff22dc0f9c58c87d9" target="_top" xlink:title="CoinControlDialog::\lupdateLabels">
<polygon fill="#ffffff" stroke="#000000" points="479.6694,-228.5 479.6694,-256.5 582.3784,-256.5 582.3784,-228.5 479.6694,-228.5"/>
<text text-anchor="start" x="487.6694" y="-244.5" font-family="Helvetica,sans-Serif" font-size="10.00" fill="#000000">CoinControlDialog::</text>
<text text-anchor="middle" x="531.0239" y="-234.5" font-family="Helvetica,sans-Serif" font-size="10.00" fill="#000000">updateLabels</text>
</a>
</g>
</g>
<!-- Node354&#45;&gt;Node355 -->
<g id="edge11" class="edge">
<title>Node354&#45;&gt;Node355</title>
<path fill="none" stroke="#191970" d="M402.6098,-229.7334C424.6158,-231.9212 454.1511,-234.8575 479.348,-237.3625"/>
<polygon fill="#191970" stroke="#191970" points="402.7609,-226.2313 392.4637,-228.7247 402.0683,-233.1969 402.7609,-226.2313"/>
</g>
<!-- Node379 -->
<g id="node36" class="node">
<title>Node379</title>
<g id="a_node36"><a xlink:href="namespace_g_u_i_util.html#a63bbc490504f4afac35edd0fe0425450" target="_top" xlink:title="GUIUtil::isDust">
<polygon fill="#ffffff" stroke="#000000" points="490.2432,-168.5 490.2432,-186.5 571.8047,-186.5 571.8047,-168.5 490.2432,-168.5"/>
<text text-anchor="middle" x="531.0239" y="-174.5" font-family="Helvetica,sans-Serif" font-size="10.00" fill="#000000">GUIUtil::isDust</text>
</a>
</g>
</g>
<!-- Node354&#45;&gt;Node379 -->
<g id="edge46" class="edge">
<title>Node354&#45;&gt;Node379</title>
<path fill="none" stroke="#191970" d="M402.0691,-216.7623C430.9136,-207.9801 473.0114,-195.1628 501.1769,-186.5874"/>
<polygon fill="#191970" stroke="#191970" points="401.0107,-213.4258 392.4637,-219.6868 403.0496,-220.1223 401.0107,-213.4258"/>
</g>
<!-- Node356 -->
<g id="node13" class="node">
<title>Node356</title>
<g id="a_node13"><a xlink:href="class_coin_control_dialog.html#a4c34a48574814089c54f763a22f5317a" target="_top" xlink:title="CoinControlDialog::\lsetModel">
<polygon fill="#ffffff" stroke="#000000" points="661.7354,-228.5 661.7354,-256.5 764.4443,-256.5 764.4443,-228.5 661.7354,-228.5"/>
<text text-anchor="start" x="669.7354" y="-244.5" font-family="Helvetica,sans-Serif" font-size="10.00" fill="#000000">CoinControlDialog::</text>
<text text-anchor="middle" x="713.0898" y="-234.5" font-family="Helvetica,sans-Serif" font-size="10.00" fill="#000000">setModel</text>
</a>
</g>
</g>
<!-- Node355&#45;&gt;Node356 -->
<g id="edge12" class="edge">
<title>Node355&#45;&gt;Node356</title>
<path fill="none" stroke="#191970" d="M592.7842,-242.5C615.1646,-242.5 640.1867,-242.5 661.5902,-242.5"/>
<polygon fill="#191970" stroke="#191970" points="592.7097,-239.0001 582.7097,-242.5 592.7097,-246.0001 592.7097,-239.0001"/>
</g>
<!-- Node359 -->
<g id="node16" class="node">
<title>Node359</title>
<g id="a_node16"><a xlink:href="class_coin_control_dialog.html#ae106a71c5b87ac8bea8c52e7c4f4a129" target="_top" xlink:title="CoinControlDialog::\lbuttonSelectAllClicked">
<polygon fill="#ffffff" stroke="#000000" points="655.3413,-275.5 655.3413,-303.5 770.8384,-303.5 770.8384,-275.5 655.3413,-275.5"/>
<text text-anchor="start" x="663.3413" y="-291.5" font-family="Helvetica,sans-Serif" font-size="10.00" fill="#000000">CoinControlDialog::</text>
<text text-anchor="middle" x="713.0898" y="-281.5" font-family="Helvetica,sans-Serif" font-size="10.00" fill="#000000">buttonSelectAllClicked</text>
</a>
</g>
</g>
<!-- Node355&#45;&gt;Node359 -->
<g id="edge15" class="edge">
<title>Node355&#45;&gt;Node359</title>
<path fill="none" stroke="#191970" d="M592.6813,-258.4167C614.0998,-263.9459 637.9484,-270.1024 658.7338,-275.4681"/>
<polygon fill="#191970" stroke="#191970" points="593.2672,-254.9533 582.7097,-255.8426 591.5174,-261.7311 593.2672,-254.9533"/>
</g>
<!-- Node361 -->
<g id="node18" class="node">
<title>Node361</title>
<g id="a_node18"><a xlink:href="class_coin_control_dialog.html#ac3c37dabd83f71d9c96bf5567fe85234" target="_top" xlink:title="CoinControlDialog::\lviewItemChanged">
<polygon fill="#ffffff" stroke="#000000" points="661.7354,-322.5 661.7354,-350.5 764.4443,-350.5 764.4443,-322.5 661.7354,-322.5"/>
<text text-anchor="start" x="669.7354" y="-338.5" font-family="Helvetica,sans-Serif" font-size="10.00" fill="#000000">CoinControlDialog::</text>
<text text-anchor="middle" x="713.0898" y="-328.5" font-family="Helvetica,sans-Serif" font-size="10.00" fill="#000000">viewItemChanged</text>
</a>
</g>
</g>
<!-- Node355&#45;&gt;Node361 -->
<g id="edge17" class="edge">
<title>Node355&#45;&gt;Node361</title>
<path fill="none" stroke="#191970" d="M568.0653,-261.422C579.3707,-267.6804 591.6453,-274.9789 602.3857,-282.5 619.6814,-294.6114 619.9046,-303.2885 638.3857,-313.5 645.6311,-317.5034 653.6652,-320.9048 661.7007,-323.7638"/>
<polygon fill="#191970" stroke="#191970" points="569.713,-258.334 559.2542,-256.6415 566.3748,-264.4868 569.713,-258.334"/>
</g>
<!-- Node362 -->
<g id="node19" class="node">
<title>Node362</title>
<g id="a_node19"><a xlink:href="class_send_coins_dialog.html#ae4f429aabcaf309aa314b90049be2a74" target="_top" xlink:title="SendCoinsDialog::coinControl\lUpdateLabels">
<polygon fill="#ffffff" stroke="#000000" points="638.3857,-181.5 638.3857,-209.5 787.7939,-209.5 787.7939,-181.5 638.3857,-181.5"/>
<text text-anchor="start" x="646.3857" y="-197.5" font-family="Helvetica,sans-Serif" font-size="10.00" fill="#000000">SendCoinsDialog::coinControl</text>
<text text-anchor="middle" x="713.0898" y="-187.5" font-family="Helvetica,sans-Serif" font-size="10.00" fill="#000000">UpdateLabels</text>
</a>
</g>
</g>
<!-- Node355&#45;&gt;Node362 -->
<g id="edge19" class="edge">
<title>Node355&#45;&gt;Node362</title>
<path fill="none" stroke="#191970" d="M592.6813,-226.5833C614.0998,-221.0541 637.9484,-214.8976 658.7338,-209.5319"/>
<polygon fill="#191970" stroke="#191970" points="591.5174,-223.2689 582.7097,-229.1574 593.2672,-230.0467 591.5174,-223.2689"/>
</g>
<!-- Node357 -->
<g id="node14" class="node">
<title>Node357</title>
<g id="a_node14"><a xlink:href="class_send_coins_dialog.html#a59d757d9e4bea5b380eb480fd79cfb49" target="_top" xlink:title="SendCoinsDialog::coinControl\lButtonClicked">
<polygon fill="#ffffff" stroke="#000000" points="824.3579,-269.5 824.3579,-297.5 973.7661,-297.5 973.7661,-269.5 824.3579,-269.5"/>
<text text-anchor="start" x="832.3579" y="-285.5" font-family="Helvetica,sans-Serif" font-size="10.00" fill="#000000">SendCoinsDialog::coinControl</text>
<text text-anchor="middle" x="899.062" y="-275.5" font-family="Helvetica,sans-Serif" font-size="10.00" fill="#000000">ButtonClicked</text>
</a>
</g>
</g>
<!-- Node356&#45;&gt;Node357 -->
<g id="edge13" class="edge">
<title>Node356&#45;&gt;Node357</title>
<path fill="none" stroke="#191970" d="M774.8386,-256.1133C794.2552,-260.394 815.7279,-265.1279 835.2825,-269.439"/>
<polygon fill="#191970" stroke="#191970" points="775.4125,-252.6559 764.8935,-253.9208 773.9054,-259.4917 775.4125,-252.6559"/>
</g>
<!-- Node358 -->
<g id="node15" class="node">
<title>Node358</title>
<g id="a_node15"><a xlink:href="class_send_coins_dialog.html#affacd36b4df87a68e2fe706ef388c0a6" target="_top" xlink:title="SendCoinsDialog::SendCoins\lDialog">
<polygon fill="#ffffff" stroke="#000000" points="1387.5308,-270.5 1387.5308,-298.5 1535.2788,-298.5 1535.2788,-270.5 1387.5308,-270.5"/>
<text text-anchor="start" x="1395.5308" y="-286.5" font-family="Helvetica,sans-Serif" font-size="10.00" fill="#000000">SendCoinsDialog::SendCoins</text>
<text text-anchor="middle" x="1461.4048" y="-276.5" font-family="Helvetica,sans-Serif" font-size="10.00" fill="#000000">Dialog</text>
</a>
</g>
</g>
<!-- Node357&#45;&gt;Node358 -->
<g id="edge14" class="edge">
<title>Node357&#45;&gt;Node358</title>
<path fill="none" stroke="#191970" d="M964.6991,-299.8951C1070.5914,-325.047 1274.0502,-367.6377 1341.2451,-341.5 1361.4737,-333.6314 1358.3008,-319.0935 1377.2451,-308.5 1384.1409,-304.644 1391.7076,-301.3642 1399.3883,-298.5857"/>
<polygon fill="#191970" stroke="#191970" points="965.3038,-296.441 954.7639,-297.5183 963.6752,-303.2489 965.3038,-296.441"/>
</g>
<!-- Node360 -->
<g id="node17" class="node">
<title>Node360</title>
<g id="a_node17"><a xlink:href="class_coin_control_dialog.html#a3cec3ece6aa5eec3e7829e042356a659" target="_top" xlink:title="CoinControlDialog::\lCoinControlDialog">
<polygon fill="#ffffff" stroke="#000000" points="847.7075,-320.5 847.7075,-348.5 950.4165,-348.5 950.4165,-320.5 847.7075,-320.5"/>
<text text-anchor="start" x="855.7075" y="-336.5" font-family="Helvetica,sans-Serif" font-size="10.00" fill="#000000">CoinControlDialog::</text>
<text text-anchor="middle" x="899.062" y="-326.5" font-family="Helvetica,sans-Serif" font-size="10.00" fill="#000000">CoinControlDialog</text>
</a>
</g>
</g>
<!-- Node359&#45;&gt;Node360 -->
<g id="edge16" class="edge">
<title>Node359&#45;&gt;Node360</title>
<path fill="none" stroke="#191970" d="M780.8673,-305.9002C802.8874,-311.2285 826.9477,-317.0504 847.5786,-322.0425"/>
<polygon fill="#191970" stroke="#191970" points="781.4559,-302.4417 770.9132,-303.4916 779.8095,-309.2454 781.4559,-302.4417"/>
</g>
<!-- Node361&#45;&gt;Node360 -->
<g id="edge18" class="edge">
<title>Node361&#45;&gt;Node360</title>
<path fill="none" stroke="#191970" d="M775.1099,-335.833C798.615,-335.5802 825.1003,-335.2954 847.5362,-335.0541"/>
<polygon fill="#191970" stroke="#191970" points="774.8552,-332.3355 764.8935,-335.9429 774.9306,-339.3351 774.8552,-332.3355"/>
</g>
<!-- Node362&#45;&gt;Node357 -->
<g id="edge45" class="edge">
<title>Node362&#45;&gt;Node357</title>
<path fill="none" stroke="#191970" d="M776.4085,-213.5C780.3513,-215.3328 784.1816,-217.3293 787.7939,-219.5 806.9216,-230.9939 805.0011,-242.4666 823.7939,-254.5 832.9927,-260.3901 843.5734,-265.3831 853.84,-269.4789"/>
<polygon fill="#191970" stroke="#191970" points="777.6259,-210.2143 767.0541,-209.5157 774.8828,-216.6545 777.6259,-210.2143"/>
</g>
<!-- Node363 -->
<g id="node20" class="node">
<title>Node363</title>
<g id="a_node20"><a xlink:href="class_send_coins_dialog.html#a73a6c1b1850a334ee652ac167713a2aa" target="_top" xlink:title="SendCoinsDialog::setModel">
<polygon fill="#ffffff" stroke="#000000" points="1010.3301,-72.5 1010.3301,-90.5 1149.7334,-90.5 1149.7334,-72.5 1010.3301,-72.5"/>
<text text-anchor="middle" x="1080.0317" y="-78.5" font-family="Helvetica,sans-Serif" font-size="10.00" fill="#000000">SendCoinsDialog::setModel</text>
</a>
</g>
</g>
<!-- Node362&#45;&gt;Node363 -->
<g id="edge20" class="edge">
<title>Node362&#45;&gt;Node363</title>
<path fill="none" stroke="#191970" d="M731.8637,-173.4915C760.2188,-140.5395 811.929,-81.6674 823.7939,-76.5 898.2416,-44.0764 996.7666,-60.4228 1047.2046,-72.482"/>
<polygon fill="#191970" stroke="#191970" points="729.0518,-171.3938 725.1964,-181.2622 734.3644,-175.9519 729.0518,-171.3938"/>
</g>
<!-- Node366 -->
<g id="node23" class="node">
<title>Node366</title>
<g id="a_node23"><a xlink:href="class_send_coins_dialog.html#a127bddff45f49ff5e6e263efe218ae26" target="_top" xlink:title="SendCoinsDialog::clear">
<polygon fill="#ffffff" stroke="#000000" points="1203.2383,-163.5 1203.2383,-181.5 1323.7402,-181.5 1323.7402,-163.5 1203.2383,-163.5"/>
<text text-anchor="middle" x="1263.4893" y="-169.5" font-family="Helvetica,sans-Serif" font-size="10.00" fill="#000000">SendCoinsDialog::clear</text>
</a>
</g>
</g>
<!-- Node362&#45;&gt;Node366 -->
<g id="edge23" class="edge">
<title>Node362&#45;&gt;Node366</title>
<path fill="none" stroke="#191970" d="M782.345,-179.5994C796.0119,-177.068 810.3001,-174.8433 823.7939,-173.5 958.8141,-160.0587 1118.3137,-164.8009 1203.2053,-168.9557"/>
<polygon fill="#191970" stroke="#191970" points="781.6821,-176.1627 772.5233,-181.4887 783.0045,-183.0367 781.6821,-176.1627"/>
</g>
<!-- Node369 -->
<g id="node26" class="node">
<title>Node369</title>
<g id="a_node26"><a xlink:href="class_send_coins_dialog.html#a3d680a76b967641115c6ff2fa83fb62a" target="_top" xlink:title="SendCoinsDialog::addEntry">
<polygon fill="#ffffff" stroke="#000000" points="1010.606,-239.5 1010.606,-257.5 1149.4575,-257.5 1149.4575,-239.5 1010.606,-239.5"/>
<text text-anchor="middle" x="1080.0317" y="-245.5" font-family="Helvetica,sans-Serif" font-size="10.00" fill="#000000">SendCoinsDialog::addEntry</text>
</a>
</g>
</g>
<!-- Node362&#45;&gt;Node369 -->
<g id="edge27" class="edge">
<title>Node362&#45;&gt;Node369</title>
<path fill="none" stroke="#191970" d="M776.7663,-211.8976C792.0915,-215.4433 808.4652,-218.9029 823.7939,-221.5 886.5312,-232.1293 958.6634,-239.2825 1010.3788,-243.5408"/>
<polygon fill="#191970" stroke="#191970" points="777.4047,-208.4522 766.8683,-209.5633 775.7979,-215.2653 777.4047,-208.4522"/>
</g>
<!-- Node377 -->
<g id="node34" class="node">
<title>Node377</title>
<g id="a_node34"><a xlink:href="class_send_coins_dialog.html#a3b834c739f7d02d8086a2bf58525c5f0" target="_top" xlink:title="SendCoinsDialog::updateTabs\lAndLabels">
<polygon fill="#ffffff" stroke="#000000" points="823.7939,-183.5 823.7939,-211.5 974.3301,-211.5 974.3301,-183.5 823.7939,-183.5"/>
<text text-anchor="start" x="831.7939" y="-199.5" font-family="Helvetica,sans-Serif" font-size="10.00" fill="#000000">SendCoinsDialog::updateTabs</text>
<text text-anchor="middle" x="899.062" y="-189.5" font-family="Helvetica,sans-Serif" font-size="10.00" fill="#000000">AndLabels</text>
</a>
</g>
</g>
<!-- Node362&#45;&gt;Node377 -->
<g id="edge38" class="edge">
<title>Node362&#45;&gt;Node377</title>
<path fill="none" stroke="#191970" d="M797.9703,-196.4128C806.5767,-196.5054 815.2763,-196.5989 823.7713,-196.6903"/>
<polygon fill="#191970" stroke="#191970" points="797.9651,-192.9127 787.928,-196.3048 797.8897,-199.9123 797.9651,-192.9127"/>
</g>
<!-- Node378 -->
<g id="node35" class="node">
<title>Node378</title>
<g id="a_node35"><a xlink:href="class_send_coins_dialog.html#af13ddd00abec4f060632d887b5e838a3" target="_top" xlink:title="SendCoinsDialog::coinControl\lFeatureChanged">
<polygon fill="#ffffff" stroke="#000000" points="824.3579,-86.5 824.3579,-114.5 973.7661,-114.5 973.7661,-86.5 824.3579,-86.5"/>
<text text-anchor="start" x="832.3579" y="-102.5" font-family="Helvetica,sans-Serif" font-size="10.00" fill="#000000">SendCoinsDialog::coinControl</text>
<text text-anchor="middle" x="899.062" y="-92.5" font-family="Helvetica,sans-Serif" font-size="10.00" fill="#000000">FeatureChanged</text>
</a>
</g>
</g>
<!-- Node362&#45;&gt;Node378 -->
<g id="edge43" class="edge">
<title>Node362&#45;&gt;Node378</title>
<path fill="none" stroke="#191970" d="M742.628,-176.0134C764.5006,-162.0528 795.3204,-143.3487 823.7939,-129.5 834.876,-124.11 847.2331,-118.9989 858.6792,-114.6118"/>
<polygon fill="#191970" stroke="#191970" points="740.6387,-173.1315 734.1264,-181.4886 744.4289,-179.0167 740.6387,-173.1315"/>
</g>
<!-- Node364 -->
<g id="node21" class="node">
<title>Node364</title>
<g id="a_node21"><a xlink:href="class_wallet_view.html#a0a37ff693a4f9c1e5ddc23f9cd3913be" target="_top" xlink:title="Set the wallet model. ">
<polygon fill="#ffffff" stroke="#000000" points="1194.2563,-72.5 1194.2563,-90.5 1332.7222,-90.5 1332.7222,-72.5 1194.2563,-72.5"/>
<text text-anchor="middle" x="1263.4893" y="-78.5" font-family="Helvetica,sans-Serif" font-size="10.00" fill="#000000">WalletView::setWalletModel</text>
</a>
</g>
</g>
<!-- Node363&#45;&gt;Node364 -->
<g id="edge21" class="edge">
<title>Node363&#45;&gt;Node364</title>
<path fill="none" stroke="#191970" d="M1160.2009,-81.5C1171.4984,-81.5 1183.0336,-81.5 1194.1063,-81.5"/>
<polygon fill="#191970" stroke="#191970" points="1159.9125,-78.0001 1149.9125,-81.5 1159.9125,-85.0001 1159.9125,-78.0001"/>
</g>
<!-- Node365 -->
<g id="node22" class="node">
<title>Node365</title>
<g id="a_node22"><a xlink:href="class_wallet_frame.html#a06cb28194836995e50cc46716b2227ff" target="_top" xlink:title="WalletFrame::addWallet">
<polygon fill="#ffffff" stroke="#000000" points="1400.4214,-72.5 1400.4214,-90.5 1522.3882,-90.5 1522.3882,-72.5 1400.4214,-72.5"/>
<text text-anchor="middle" x="1461.4048" y="-78.5" font-family="Helvetica,sans-Serif" font-size="10.00" fill="#000000">WalletFrame::addWallet</text>
</a>
</g>
</g>
<!-- Node364&#45;&gt;Node365 -->
<g id="edge22" class="edge">
<title>Node364&#45;&gt;Node365</title>
<path fill="none" stroke="#191970" d="M1343.1476,-81.5C1362.2,-81.5 1382.2455,-81.5 1400.309,-81.5"/>
<polygon fill="#191970" stroke="#191970" points="1342.9886,-78.0001 1332.9886,-81.5 1342.9885,-85.0001 1342.9886,-78.0001"/>
</g>
<!-- Node366&#45;&gt;Node358 -->
<g id="edge24" class="edge">
<title>Node366&#45;&gt;Node358</title>
<path fill="none" stroke="#191970" d="M1333.3261,-185.2542C1336.1054,-186.8131 1338.7619,-188.5547 1341.2451,-190.5 1369.0971,-212.3179 1349.8271,-239.1392 1377.2451,-261.5 1381.4708,-264.9463 1386.1724,-267.8782 1391.1323,-270.3721"/>
<polygon fill="#191970" stroke="#191970" points="1334.6285,-181.9982 1324.0936,-180.8723 1331.627,-188.3221 1334.6285,-181.9982"/>
</g>
<!-- Node367 -->
<g id="node24" class="node">
<title>Node367</title>
<g id="a_node24"><a xlink:href="class_send_coins_dialog.html#a4879553d77d29f522ac92ac04580f4ad" target="_top" xlink:title="SendCoinsDialog::reject">
<polygon fill="#ffffff" stroke="#000000" points="1399.7646,-143.5 1399.7646,-161.5 1523.0449,-161.5 1523.0449,-143.5 1399.7646,-143.5"/>
<text text-anchor="middle" x="1461.4048" y="-149.5" font-family="Helvetica,sans-Serif" font-size="10.00" fill="#000000">SendCoinsDialog::reject</text>
</a>
</g>
</g>
<!-- Node366&#45;&gt;Node367 -->
<g id="edge25" class="edge">
<title>Node366&#45;&gt;Node367</title>
<path fill="none" stroke="#191970" d="M1333.9665,-165.3781C1355.4039,-163.2117 1378.7907,-160.8484 1399.6099,-158.7446"/>
<polygon fill="#191970" stroke="#191970" points="1333.5433,-161.9029 1323.9459,-166.3907 1334.2471,-168.8674 1333.5433,-161.9029"/>
</g>
<!-- Node368 -->
<g id="node25" class="node">
<title>Node368</title>
<g id="a_node25"><a xlink:href="class_send_coins_dialog.html#af2185c3d29e43d37c30669f0def46060" target="_top" xlink:title="SendCoinsDialog::accept">
<polygon fill="#ffffff" stroke="#000000" points="1397.2598,-180.5 1397.2598,-198.5 1525.5498,-198.5 1525.5498,-180.5 1397.2598,-180.5"/>
<text text-anchor="middle" x="1461.4048" y="-186.5" font-family="Helvetica,sans-Serif" font-size="10.00" fill="#000000">SendCoinsDialog::accept</text>
</a>
</g>
</g>
<!-- Node366&#45;&gt;Node368 -->
<g id="edge26" class="edge">
<title>Node366&#45;&gt;Node368</title>
<path fill="none" stroke="#191970" d="M1333.9099,-178.5488C1354.5391,-180.3207 1376.9776,-182.2481 1397.1986,-183.985"/>
<polygon fill="#191970" stroke="#191970" points="1334.2087,-175.0617 1323.9459,-177.6929 1333.6096,-182.036 1334.2087,-175.0617"/>
</g>
<!-- Node369&#45;&gt;Node358 -->
<g id="edge28" class="edge">
<title>Node369&#45;&gt;Node358</title>
<path fill="none" stroke="#191970" d="M1140.253,-259.153C1155.0861,-261.5095 1170.9549,-263.8058 1185.7334,-265.5 1253.8886,-273.3131 1331.9186,-278.326 1387.5251,-281.2292"/>
<polygon fill="#191970" stroke="#191970" points="1140.6069,-255.6648 1130.1756,-257.5187 1139.4863,-262.5745 1140.6069,-255.6648"/>
</g>
<!-- Node369&#45;&gt;Node366 -->
<g id="edge29" class="edge">
<title>Node369&#45;&gt;Node366</title>
<path fill="none" stroke="#191970" d="M1102.232,-233.9568C1123.0437,-220.906 1155.4115,-202.0752 1185.7334,-190.5 1195.0539,-186.942 1205.2822,-183.9615 1215.1704,-181.5151"/>
<polygon fill="#191970" stroke="#191970" points="1100.351,-231.0052 1093.7959,-239.3287 1104.1109,-236.9097 1100.351,-231.0052"/>
</g>
<!-- Node370 -->
<g id="node27" class="node">
<title>Node370</title>
<g id="a_node27"><a xlink:href="class_send_coins_dialog.html#aabd82a79bd2358493f36425f1d62136b" target="_top" xlink:title="SendCoinsDialog::removeEntry">
<polygon fill="#ffffff" stroke="#000000" points="1185.7334,-200.5 1185.7334,-218.5 1341.2451,-218.5 1341.2451,-200.5 1185.7334,-200.5"/>
<text text-anchor="middle" x="1263.4893" y="-206.5" font-family="Helvetica,sans-Serif" font-size="10.00" fill="#000000">SendCoinsDialog::removeEntry</text>
</a>
</g>
</g>
<!-- Node369&#45;&gt;Node370 -->
<g id="edge30" class="edge">
<title>Node369&#45;&gt;Node370</title>
<path fill="none" stroke="#191970" d="M1111.3433,-236.6152C1132.9333,-230.7271 1162.5655,-223.9604 1189.9457,-218.5034"/>
<polygon fill="#191970" stroke="#191970" points="1110.101,-233.3294 1101.4357,-239.4255 1112.0113,-240.0637 1110.101,-233.3294"/>
</g>
<!-- Node371 -->
<g id="node28" class="node">
<title>Node371</title>
<g id="a_node28"><a xlink:href="class_send_coins_dialog.html#a920b2dbf121ca3cfac2adc56e96295f8" target="_top" xlink:title="SendCoinsDialog::setAddress">
<polygon fill="#ffffff" stroke="#000000" points="1189.0635,-237.5 1189.0635,-255.5 1337.915,-255.5 1337.915,-237.5 1189.0635,-237.5"/>
<text text-anchor="middle" x="1263.4893" y="-243.5" font-family="Helvetica,sans-Serif" font-size="10.00" fill="#000000">SendCoinsDialog::setAddress</text>
</a>
</g>
</g>
<!-- Node369&#45;&gt;Node371 -->
<g id="edge32" class="edge">
<title>Node369&#45;&gt;Node371</title>
<path fill="none" stroke="#191970" d="M1159.7118,-247.6314C1169.4485,-247.5252 1179.3694,-247.417 1189.0256,-247.3118"/>
<polygon fill="#191970" stroke="#191970" points="1159.612,-244.1321 1149.6507,-247.741 1159.6883,-251.1317 1159.612,-244.1321"/>
</g>
<!-- Node373 -->
<g id="node30" class="node">
<title>Node373</title>
<g id="a_node30"><a xlink:href="class_send_coins_dialog.html#a4440d15ced5d217baaad33a17d56b409" target="_top" xlink:title="SendCoinsDialog::pasteEntry">
<polygon fill="#ffffff" stroke="#000000" points="1190.1743,-313.5 1190.1743,-331.5 1336.8042,-331.5 1336.8042,-313.5 1190.1743,-313.5"/>
<text text-anchor="middle" x="1263.4893" y="-319.5" font-family="Helvetica,sans-Serif" font-size="10.00" fill="#000000">SendCoinsDialog::pasteEntry</text>
</a>
</g>
</g>
<!-- Node369&#45;&gt;Node373 -->
<g id="edge34" class="edge">
<title>Node369&#45;&gt;Node373</title>
<path fill="none" stroke="#191970" d="M1106.2655,-262.1937C1127.38,-272.8999 1158.002,-287.7245 1185.7334,-298.5 1200.2188,-304.1285 1216.6119,-309.3512 1230.5989,-313.4776"/>
<polygon fill="#191970" stroke="#191970" points="1107.7743,-259.0342 1097.2779,-257.5938 1104.5851,-265.2655 1107.7743,-259.0342"/>
</g>
<!-- Node370&#45;&gt;Node369 -->
<g id="edge31" class="edge">
<title>Node370&#45;&gt;Node369</title>
<path fill="none" stroke="#191970" d="M1232.2677,-221.3602C1209.6352,-227.5365 1178.1311,-234.6836 1149.6507,-240.2728"/>
<polygon fill="#191970" stroke="#191970" points="1233.334,-224.6959 1241.9994,-218.5999 1231.4238,-217.9616 1233.334,-224.6959"/>
</g>
<!-- Node372 -->
<g id="node29" class="node">
<title>Node372</title>
<g id="a_node29"><a xlink:href="class_wallet_view.html#a2a70c2b00b097dd7b83b6915bb037ea3" target="_top" xlink:title="Switch to send coins page. ">
<polygon fill="#ffffff" stroke="#000000" points="1380.2993,-233.5 1380.2993,-251.5 1542.5103,-251.5 1542.5103,-233.5 1380.2993,-233.5"/>
<text text-anchor="middle" x="1461.4048" y="-239.5" font-family="Helvetica,sans-Serif" font-size="10.00" fill="#000000">WalletView::gotoSendCoinsPage</text>
</a>
</g>
</g>
<!-- Node371&#45;&gt;Node372 -->
<g id="edge33" class="edge">
<title>Node371&#45;&gt;Node372</title>
<path fill="none" stroke="#191970" d="M1348.0833,-244.7903C1358.6567,-244.5766 1369.4536,-244.3584 1379.9773,-244.1457"/>
<polygon fill="#191970" stroke="#191970" points="1347.9578,-241.292 1338.0306,-244.9935 1348.0993,-248.2906 1347.9578,-241.292"/>
</g>
<!-- Node374 -->
<g id="node31" class="node">
<title>Node374</title>
<g id="a_node31"><a xlink:href="class_send_coins_dialog.html#a82ed6a3badadaa523415e1924ebd292a" target="_top" xlink:title="SendCoinsDialog::handlePayment\lRequest">
<polygon fill="#ffffff" stroke="#000000" points="1377.2451,-317.5 1377.2451,-345.5 1545.5645,-345.5 1545.5645,-317.5 1377.2451,-317.5"/>
<text text-anchor="start" x="1385.2451" y="-333.5" font-family="Helvetica,sans-Serif" font-size="10.00" fill="#000000">SendCoinsDialog::handlePayment</text>
<text text-anchor="middle" x="1461.4048" y="-323.5" font-family="Helvetica,sans-Serif" font-size="10.00" fill="#000000">Request</text>
</a>
</g>
</g>
<!-- Node373&#45;&gt;Node374 -->
<g id="edge35" class="edge">
<title>Node373&#45;&gt;Node374</title>
<path fill="none" stroke="#191970" d="M1347.14,-326.3039C1357.0515,-326.7546 1367.1729,-327.2149 1377.0935,-327.666"/>
<polygon fill="#191970" stroke="#191970" points="1347.0531,-322.7965 1336.9044,-325.8385 1346.7351,-329.7892 1347.0531,-322.7965"/>
</g>
<!-- Node375 -->
<g id="node32" class="node">
<title>Node375</title>
<g id="a_node32"><a xlink:href="class_wallet_view.html#a0ae21d91a9d7755026ce2a6846cef68d" target="_top" xlink:title="WalletView::handlePayment\lRequest">
<polygon fill="#ffffff" stroke="#000000" points="1581.5645,-317.5 1581.5645,-345.5 1721.5293,-345.5 1721.5293,-317.5 1581.5645,-317.5"/>
<text text-anchor="start" x="1589.5645" y="-333.5" font-family="Helvetica,sans-Serif" font-size="10.00" fill="#000000">WalletView::handlePayment</text>
<text text-anchor="middle" x="1651.5469" y="-323.5" font-family="Helvetica,sans-Serif" font-size="10.00" fill="#000000">Request</text>
</a>
</g>
</g>
<!-- Node374&#45;&gt;Node375 -->
<g id="edge36" class="edge">
<title>Node374&#45;&gt;Node375</title>
<path fill="none" stroke="#191970" d="M1555.7296,-331.5C1564.347,-331.5 1572.9726,-331.5 1581.3232,-331.5"/>
<polygon fill="#191970" stroke="#191970" points="1555.6343,-328.0001 1545.6342,-331.5 1555.6342,-335.0001 1555.6343,-328.0001"/>
</g>
<!-- Node376 -->
<g id="node33" class="node">
<title>Node376</title>
<g id="a_node33"><a xlink:href="class_wallet_frame.html#aa8c5b10f2240df164795619ca41c619c" target="_top" xlink:title="WalletFrame::handlePayment\lRequest">
<polygon fill="#ffffff" stroke="#000000" points="1757.5293,-317.5 1757.5293,-345.5 1904.8867,-345.5 1904.8867,-317.5 1757.5293,-317.5"/>
<text text-anchor="start" x="1765.5293" y="-333.5" font-family="Helvetica,sans-Serif" font-size="10.00" fill="#000000">WalletFrame::handlePayment</text>
<text text-anchor="middle" x="1831.208" y="-323.5" font-family="Helvetica,sans-Serif" font-size="10.00" fill="#000000">Request</text>
</a>
</g>
</g>
<!-- Node375&#45;&gt;Node376 -->
<g id="edge37" class="edge">
<title>Node375&#45;&gt;Node376</title>
<path fill="none" stroke="#191970" d="M1732.0333,-331.5C1740.5011,-331.5 1749.0808,-331.5 1757.4672,-331.5"/>
<polygon fill="#191970" stroke="#191970" points="1731.7805,-328.0001 1721.7805,-331.5 1731.7804,-335.0001 1731.7805,-328.0001"/>
</g>
<!-- Node377&#45;&gt;Node366 -->
<g id="edge39" class="edge">
<title>Node377&#45;&gt;Node366</title>
<path fill="none" stroke="#191970" d="M984.7066,-191.6247C1051.8287,-187.0201 1143.5381,-180.7287 1203.1359,-176.6403"/>
<polygon fill="#191970" stroke="#191970" points="984.3086,-188.1437 974.5716,-192.32 984.7877,-195.1273 984.3086,-188.1437"/>
</g>
<!-- Node377&#45;&gt;Node369 -->
<g id="edge40" class="edge">
<title>Node377&#45;&gt;Node369</title>
<path fill="none" stroke="#191970" d="M958.8542,-214.3503C988.566,-222.7236 1023.2864,-232.5083 1047.9272,-239.4525"/>
<polygon fill="#191970" stroke="#191970" points="959.5663,-210.9148 948.9918,-211.571 957.6675,-217.6523 959.5663,-210.9148"/>
</g>
<!-- Node377&#45;&gt;Node370 -->
<g id="edge41" class="edge">
<title>Node377&#45;&gt;Node370</title>
<path fill="none" stroke="#191970" d="M984.9141,-200.327C1045.716,-202.3291 1126.6148,-204.9929 1185.562,-206.934"/>
<polygon fill="#191970" stroke="#191970" points="984.6814,-196.8175 974.5716,-199.9864 984.4509,-203.8137 984.6814,-196.8175"/>
</g>
<!-- Node377&#45;&gt;Node373 -->
<g id="edge42" class="edge">
<title>Node377&#45;&gt;Node373</title>
<path fill="none" stroke="#191970" d="M925.3183,-217.7275C947.0065,-233.4933 979.1812,-254.7783 1010.3301,-267.5 1068.5188,-291.2652 1138.62,-305.4739 1190.2871,-313.4777"/>
<polygon fill="#191970" stroke="#191970" points="927.385,-214.9028 917.2627,-211.7738 923.2244,-220.5321 927.385,-214.9028"/>
</g>
<!-- Node378&#45;&gt;Node363 -->
<g id="edge44" class="edge">
<title>Node378&#45;&gt;Node363</title>
<path fill="none" stroke="#191970" d="M984.1366,-91.568C992.8349,-90.6548 1001.6001,-89.7345 1010.1091,-88.8412"/>
<polygon fill="#191970" stroke="#191970" points="983.5555,-88.1097 973.9757,-92.6348 984.2865,-95.0714 983.5555,-88.1097"/>
</g>
<!-- Node380 -->
<g id="node37" class="node">
<title>Node380</title>
<g id="a_node37"><a xlink:href="class_send_coins_entry.html#ad525c91a9eee6f73a79267d2df487fb9" target="_top" xlink:title="SendCoinsEntry::validate">
<polygon fill="#ffffff" stroke="#000000" points="648.9473,-83.5 648.9473,-101.5 777.2324,-101.5 777.2324,-83.5 648.9473,-83.5"/>
<text text-anchor="middle" x="713.0898" y="-89.5" font-family="Helvetica,sans-Serif" font-size="10.00" fill="#000000">SendCoinsEntry::validate</text>
</a>
</g>
</g>
<!-- Node379&#45;&gt;Node380 -->
<g id="edge47" class="edge">
<title>Node379&#45;&gt;Node380</title>
<path fill="none" stroke="#191970" d="M559.8611,-164.037C597.3112,-146.5529 661.6715,-116.5054 693.7457,-101.5311"/>
<polygon fill="#191970" stroke="#191970" points="558.0887,-161.0017 550.5082,-168.4035 561.05,-167.3445 558.0887,-161.0017"/>
</g>
<!-- Node381 -->
<g id="node38" class="node">
<title>Node381</title>
<g id="a_node38"><a xlink:href="class_send_coins_dialog.html#a2cab7cf9ea5040b9e2189297f7d3c764" target="_top" xlink:title="SendCoinsDialog::on\l_sendButton_clicked">
<polygon fill="#ffffff" stroke="#000000" points="844.0869,-.5 844.0869,-28.5 954.0371,-28.5 954.0371,-.5 844.0869,-.5"/>
<text text-anchor="start" x="852.0869" y="-16.5" font-family="Helvetica,sans-Serif" font-size="10.00" fill="#000000">SendCoinsDialog::on</text>
<text text-anchor="middle" x="899.062" y="-6.5" font-family="Helvetica,sans-Serif" font-size="10.00" fill="#000000">_sendButton_clicked</text>
</a>
</g>
</g>
<!-- Node380&#45;&gt;Node381 -->
<g id="edge48" class="edge">
<title>Node380&#45;&gt;Node381</title>
<path fill="none" stroke="#191970" d="M742.183,-79.1564C764.413,-69.0743 795.8788,-55.0475 823.7939,-43.5 835.9578,-38.4682 849.337,-33.2217 861.3989,-28.5965"/>
<polygon fill="#191970" stroke="#191970" points="740.6145,-76.0247 732.9622,-83.3523 743.5138,-82.3961 740.6145,-76.0247"/>
</g>
</g>
</svg>
