<?xml version="1.0" encoding="UTF-8" standalone="no"?>
<!DOCTYPE svg PUBLIC "-//W3C//DTD SVG 1.1//EN"
 "http://www.w3.org/Graphics/SVG/1.1/DTD/svg11.dtd">
<!-- Generated by graphviz version 2.40.1 (20161225.0304)
 -->
<!-- Title: CChainState::AddToBlockIndex Pages: 1 -->
<svg width="505pt" height="138pt"
 viewBox="0.00 0.00 504.69 138.00" xmlns="http://www.w3.org/2000/svg" xmlns:xlink="http://www.w3.org/1999/xlink">
<g id="graph0" class="graph" transform="scale(1 1) rotate(0) translate(4 134)">
<title>CChainState::AddToBlockIndex</title>
<polygon fill="#ffffff" stroke="transparent" points="-4,4 -4,-134 500.6895,-134 500.6895,4 -4,4"/>
<!-- Node71 -->
<g id="node1" class="node">
<title>Node71</title>
<polygon fill="#bfbfbf" stroke="#000000" points="0,-55.5 0,-73.5 155.5264,-73.5 155.5264,-55.5 0,-55.5"/>
<text text-anchor="middle" x="77.7632" y="-61.5" font-family="Helvetica,sans-Serif" font-size="10.00" fill="#000000">CChainState::AddToBlockIndex</text>
</g>
<!-- Node72 -->
<g id="node2" class="node">
<title>Node72</title>
<g id="a_node2"><a xlink:href="class_c_block_header.html#af0239f86a13f622a826e9eea66b2d7f3" target="_top" xlink:title="CBlockHeader::GetHash">
<polygon fill="#ffffff" stroke="#000000" points="196.1602,-111.5 196.1602,-129.5 321.6523,-129.5 321.6523,-111.5 196.1602,-111.5"/>
<text text-anchor="middle" x="258.9063" y="-117.5" font-family="Helvetica,sans-Serif" font-size="10.00" fill="#000000">CBlockHeader::GetHash</text>
</a>
</g>
</g>
<!-- Node71&#45;&gt;Node72 -->
<g id="edge1" class="edge">
<title>Node71&#45;&gt;Node72</title>
<path fill="none" stroke="#191970" d="M103.3735,-73.5547C126.337,-81.5537 161.0128,-93.3375 191.5264,-102.5 198.7027,-104.6549 206.3467,-106.8198 213.8131,-108.8639"/>
<polygon fill="#191970" stroke="#191970" points="212.9052,-112.244 223.4717,-111.4705 214.7291,-105.4858 212.9052,-112.244"/>
</g>
<!-- Node74 -->
<g id="node4" class="node">
<title>Node74</title>
<g id="a_node4"><a xlink:href="class_c_block_index.html#a21209a71e50daf10e283bd4049e46f64" target="_top" xlink:title="Build the skiplist pointer for this entry. ">
<polygon fill="#ffffff" stroke="#000000" points="199.2144,-74.5 199.2144,-92.5 318.5981,-92.5 318.5981,-74.5 199.2144,-74.5"/>
<text text-anchor="middle" x="258.9063" y="-80.5" font-family="Helvetica,sans-Serif" font-size="10.00" fill="#000000">CBlockIndex::BuildSkip</text>
</a>
</g>
</g>
<!-- Node71&#45;&gt;Node74 -->
<g id="edge3" class="edge">
<title>Node71&#45;&gt;Node74</title>
<path fill="none" stroke="#191970" d="M155.6354,-72.668C166.7947,-73.8385 178.2163,-75.0365 189.2046,-76.189"/>
<polygon fill="#191970" stroke="#191970" points="188.8434,-79.6703 199.154,-77.2326 189.5737,-72.7085 188.8434,-79.6703"/>
</g>
<!-- Node76 -->
<g id="node6" class="node">
<title>Node76</title>
<g id="a_node6"><a xlink:href="chain_8cpp.html#a334aa8015cc7185f7fdf484783e40f38" target="_top" xlink:title="GetBlockProof">
<polygon fill="#ffffff" stroke="#000000" points="218.6699,-37.5 218.6699,-55.5 299.1426,-55.5 299.1426,-37.5 218.6699,-37.5"/>
<text text-anchor="middle" x="258.9063" y="-43.5" font-family="Helvetica,sans-Serif" font-size="10.00" fill="#000000">GetBlockProof</text>
</a>
</g>
</g>
<!-- Node71&#45;&gt;Node76 -->
<g id="edge5" class="edge">
<title>Node71&#45;&gt;Node76</title>
<path fill="none" stroke="#191970" d="M155.6354,-56.7619C173.4126,-54.9954 191.8557,-53.1627 208.1517,-51.5434"/>
<polygon fill="#191970" stroke="#191970" points="208.917,-54.9847 218.5219,-50.513 208.2248,-48.019 208.917,-54.9847"/>
</g>
<!-- Node78 -->
<g id="node8" class="node">
<title>Node78</title>
<g id="a_node8"><a xlink:href="class_c_block_index.html#a076aff906933e9d75a37aa9b81c01384" target="_top" xlink:title="Raise the validity level of this block index entry. ">
<polygon fill="#ffffff" stroke="#000000" points="191.5264,-.5 191.5264,-18.5 326.2861,-18.5 326.2861,-.5 191.5264,-.5"/>
<text text-anchor="middle" x="258.9063" y="-6.5" font-family="Helvetica,sans-Serif" font-size="10.00" fill="#000000">CBlockIndex::RaiseValidity</text>
</a>
</g>
</g>
<!-- Node71&#45;&gt;Node78 -->
<g id="edge7" class="edge">
<title>Node71&#45;&gt;Node78</title>
<path fill="none" stroke="#191970" d="M105.7381,-55.3759C128.7196,-47.9459 162.1529,-37.2866 191.5264,-28.5 199.4736,-26.1227 207.9724,-23.6626 216.1639,-21.3327"/>
<polygon fill="#191970" stroke="#191970" points="217.2736,-24.6563 225.9456,-18.5697 215.3707,-17.9199 217.2736,-24.6563"/>
</g>
<!-- Node73 -->
<g id="node3" class="node">
<title>Node73</title>
<g id="a_node3"><a xlink:href="_hash_8h.html#a6de694e43f17c62025c6883965b65e63" target="_top" xlink:title="Compute the 256&#45;bit hash of an object&#39;s serialization. ">
<polygon fill="#ffffff" stroke="#000000" points="390.6406,-111.5 390.6406,-129.5 468.335,-129.5 468.335,-111.5 390.6406,-111.5"/>
<text text-anchor="middle" x="429.4878" y="-117.5" font-family="Helvetica,sans-Serif" font-size="10.00" fill="#000000">SerializeHash</text>
</a>
</g>
</g>
<!-- Node72&#45;&gt;Node73 -->
<g id="edge2" class="edge">
<title>Node72&#45;&gt;Node73</title>
<path fill="none" stroke="#191970" d="M321.9399,-120.5C341.229,-120.5 362.151,-120.5 380.3702,-120.5"/>
<polygon fill="#191970" stroke="#191970" points="380.4683,-124.0001 390.4682,-120.5 380.4682,-117.0001 380.4683,-124.0001"/>
</g>
<!-- Node75 -->
<g id="node5" class="node">
<title>Node75</title>
<g id="a_node5"><a xlink:href="class_c_block_index.html#ae1f702384690c6b8302e026a84172ef3" target="_top" xlink:title="Efficiently find an ancestor of this block. ">
<polygon fill="#ffffff" stroke="#000000" points="362.8501,-74.5 362.8501,-92.5 496.1255,-92.5 496.1255,-74.5 362.8501,-74.5"/>
<text text-anchor="middle" x="429.4878" y="-80.5" font-family="Helvetica,sans-Serif" font-size="10.00" fill="#000000">CBlockIndex::GetAncestor</text>
</a>
</g>
</g>
<!-- Node74&#45;&gt;Node75 -->
<g id="edge4" class="edge">
<title>Node74&#45;&gt;Node75</title>
<path fill="none" stroke="#191970" d="M319.0469,-83.5C329.8425,-83.5 341.2285,-83.5 352.4236,-83.5"/>
<polygon fill="#191970" stroke="#191970" points="352.6288,-87.0001 362.6288,-83.5 352.6288,-80.0001 352.6288,-87.0001"/>
</g>
<!-- Node77 -->
<g id="node7" class="node">
<title>Node77</title>
<g id="a_node7"><a xlink:href="classarith__uint256.html#a06c0f1937edece69b8d33f88e8d35bc8" target="_top" xlink:title="The &quot;compact&quot; format is a representation of a whole number N using an unsigned 32bit number similar t...">
<polygon fill="#ffffff" stroke="#000000" points="362.2861,-37.5 362.2861,-55.5 496.6895,-55.5 496.6895,-37.5 362.2861,-37.5"/>
<text text-anchor="middle" x="429.4878" y="-43.5" font-family="Helvetica,sans-Serif" font-size="10.00" fill="#000000">arith_uint256::SetCompact</text>
</a>
</g>
</g>
<!-- Node76&#45;&gt;Node77 -->
<g id="edge6" class="edge">
<title>Node76&#45;&gt;Node77</title>
<path fill="none" stroke="#191970" d="M299.3317,-46.5C315.126,-46.5 333.7898,-46.5 351.9778,-46.5"/>
<polygon fill="#191970" stroke="#191970" points="352.0121,-50.0001 362.012,-46.5 352.012,-43.0001 352.0121,-50.0001"/>
</g>
</g>
</svg>
