<?xml version="1.0" encoding="UTF-8" standalone="no"?>
<!DOCTYPE svg PUBLIC "-//W3C//DTD SVG 1.1//EN"
 "http://www.w3.org/Graphics/SVG/1.1/DTD/svg11.dtd">
<!-- Generated by graphviz version 2.40.1 (20161225.0304)
 -->
<!-- Title: CBasicKeyStore::AddKey Pages: 1 -->
<svg width="1644pt" height="223pt"
 viewBox="0.00 0.00 1644.13 223.00" xmlns="http://www.w3.org/2000/svg" xmlns:xlink="http://www.w3.org/1999/xlink">
<g id="graph0" class="graph" transform="scale(1 1) rotate(0) translate(4 219)">
<title>CBasicKeyStore::AddKey</title>
<polygon fill="#ffffff" stroke="transparent" points="-4,4 -4,-219 1640.127,-219 1640.127,4 -4,4"/>
<!-- Node16 -->
<g id="node1" class="node">
<title>Node16</title>
<polygon fill="#bfbfbf" stroke="#000000" points="0,-44.5 0,-62.5 129.3887,-62.5 129.3887,-44.5 0,-44.5"/>
<text text-anchor="middle" x="64.6943" y="-50.5" font-family="Helvetica,sans-Serif" font-size="10.00" fill="#000000">CBasicKeyStore::AddKey</text>
</g>
<!-- Node17 -->
<g id="node2" class="node">
<title>Node17</title>
<g id="a_node2"><a xlink:href="class_c_basic_key_store.html#a62dbf1659066ca8d3da145843ba44815" target="_top" xlink:title="Add a key to the store. ">
<polygon fill="#ffffff" stroke="#000000" points="165.3887,-68.5 165.3887,-86.5 329.8018,-86.5 329.8018,-68.5 165.3887,-68.5"/>
<text text-anchor="middle" x="247.5952" y="-74.5" font-family="Helvetica,sans-Serif" font-size="10.00" fill="#000000">CBasicKeyStore::AddKeyPubKey</text>
</a>
</g>
</g>
<!-- Node16&#45;&gt;Node17 -->
<g id="edge1" class="edge">
<title>Node16&#45;&gt;Node17</title>
<path fill="none" stroke="#191970" d="M129.4357,-61.9953C142.2105,-63.6716 155.7475,-65.4479 168.9235,-67.1768"/>
<polygon fill="#191970" stroke="#191970" points="168.5399,-70.6564 178.9103,-68.4873 169.4507,-63.7159 168.5399,-70.6564"/>
</g>
<!-- Node41 -->
<g id="node26" class="node">
<title>Node41</title>
<g id="a_node26"><a xlink:href="class_c_key.html#aa1085c59603a62db6ec776300f250337" target="_top" xlink:title="Compute the public key from a private key. ">
<polygon fill="#ffffff" stroke="#000000" points="199.019,-26.5 199.019,-44.5 296.1714,-44.5 296.1714,-26.5 199.019,-26.5"/>
<text text-anchor="middle" x="247.5952" y="-32.5" font-family="Helvetica,sans-Serif" font-size="10.00" fill="#000000">CKey::GetPubKey</text>
</a>
</g>
</g>
<!-- Node16&#45;&gt;Node41 -->
<g id="edge30" class="edge">
<title>Node16&#45;&gt;Node41</title>
<path fill="none" stroke="#191970" d="M129.4357,-47.1285C148.7737,-45.2254 169.8583,-43.1504 188.7934,-41.2869"/>
<polygon fill="#191970" stroke="#191970" points="189.1626,-44.7676 198.7717,-40.3049 188.4769,-37.8012 189.1626,-44.7676"/>
</g>
<!-- Node18 -->
<g id="node3" class="node">
<title>Node18</title>
<g id="a_node3"><a xlink:href="class_c_pub_key.html#a2675f7e6f72eff68e7a5227289feb021" target="_top" xlink:title="Get the KeyID of this public key (hash of its serialization) ">
<polygon fill="#ffffff" stroke="#000000" points="557.0107,-111.5 557.0107,-129.5 646.9316,-129.5 646.9316,-111.5 557.0107,-111.5"/>
<text text-anchor="middle" x="601.9712" y="-117.5" font-family="Helvetica,sans-Serif" font-size="10.00" fill="#000000">CPubKey::GetID</text>
</a>
</g>
</g>
<!-- Node17&#45;&gt;Node18 -->
<g id="edge2" class="edge">
<title>Node17&#45;&gt;Node18</title>
<path fill="none" stroke="#191970" d="M285.99,-86.5113C309.0164,-91.6109 338.95,-97.7079 365.8018,-101.5 427.4635,-110.208 498.7888,-115.2614 546.7836,-117.9372"/>
<polygon fill="#191970" stroke="#191970" points="546.7839,-121.4423 556.9586,-118.4884 547.1626,-114.4525 546.7839,-121.4423"/>
</g>
<!-- Node37 -->
<g id="node22" class="node">
<title>Node37</title>
<g id="a_node22"><a xlink:href="class_c_basic_key_store.html#abbd18b3adbe681247f7ae685cb629fc1" target="_top" xlink:title="CBasicKeyStore::Implicitly\lLearnRelatedKeyScripts">
<polygon fill="#ffffff" stroke="#000000" points="365.8018,-63.5 365.8018,-91.5 498.501,-91.5 498.501,-63.5 365.8018,-63.5"/>
<text text-anchor="start" x="373.8018" y="-79.5" font-family="Helvetica,sans-Serif" font-size="10.00" fill="#000000">CBasicKeyStore::Implicitly</text>
<text text-anchor="middle" x="432.1514" y="-69.5" font-family="Helvetica,sans-Serif" font-size="10.00" fill="#000000">LearnRelatedKeyScripts</text>
</a>
</g>
</g>
<!-- Node17&#45;&gt;Node37 -->
<g id="edge24" class="edge">
<title>Node17&#45;&gt;Node37</title>
<path fill="none" stroke="#191970" d="M329.8879,-77.5C338.4301,-77.5 347.0877,-77.5 355.5635,-77.5"/>
<polygon fill="#191970" stroke="#191970" points="355.7918,-81.0001 365.7918,-77.5 355.7917,-74.0001 355.7918,-81.0001"/>
</g>
<!-- Node19 -->
<g id="node4" class="node">
<title>Node19</title>
<g id="a_node4"><a xlink:href="_hash_8h.html#a3f56a9b8501ec9d021aad11389d419c4" target="_top" xlink:title="Compute the 160&#45;bit hash an object. ">
<polygon fill="#ffffff" stroke="#000000" points="718.2197,-111.5 718.2197,-129.5 774.249,-129.5 774.249,-111.5 718.2197,-111.5"/>
<text text-anchor="middle" x="746.2344" y="-117.5" font-family="Helvetica,sans-Serif" font-size="10.00" fill="#000000">Hash360</text>
</a>
</g>
</g>
<!-- Node18&#45;&gt;Node19 -->
<g id="edge3" class="edge">
<title>Node18&#45;&gt;Node19</title>
<path fill="none" stroke="#191970" d="M647.2211,-120.5C666.6526,-120.5 689.1213,-120.5 707.7382,-120.5"/>
<polygon fill="#191970" stroke="#191970" points="707.9209,-124.0001 717.9209,-120.5 707.9208,-117.0001 707.9209,-124.0001"/>
</g>
<!-- Node35 -->
<g id="node20" class="node">
<title>Node35</title>
<g id="a_node20"><a xlink:href="class_c_pub_key.html#a6bb28fcf0a5f799c69f5b7269363b309" target="_top" xlink:title="Simple read&#45;only vector&#45;like interface to the pubkey data. ">
<polygon fill="#ffffff" stroke="#000000" points="705.4414,-47.5 705.4414,-65.5 787.0273,-65.5 787.0273,-47.5 705.4414,-47.5"/>
<text text-anchor="middle" x="746.2344" y="-53.5" font-family="Helvetica,sans-Serif" font-size="10.00" fill="#000000">CPubKey::size</text>
</a>
</g>
</g>
<!-- Node18&#45;&gt;Node35 -->
<g id="edge22" class="edge">
<title>Node18&#45;&gt;Node35</title>
<path fill="none" stroke="#191970" d="M643.2597,-111.4424C652.0558,-108.9738 661.1791,-105.9952 669.4414,-102.5 689.2358,-94.1263 710.0547,-81.3753 725.0144,-71.4202"/>
<polygon fill="#191970" stroke="#191970" points="727.2062,-74.1624 733.5102,-65.6471 723.272,-68.3726 727.2062,-74.1624"/>
</g>
<!-- Node20 -->
<g id="node5" class="node">
<title>Node20</title>
<g id="a_node5"><a xlink:href="class_c_hash360.html#a9268162ed4d951b479493d16f0bfb5df" target="_top" xlink:title="CHash360::Write">
<polygon fill="#ffffff" stroke="#000000" points="828.6792,-157.5 828.6792,-175.5 920.6411,-175.5 920.6411,-157.5 828.6792,-157.5"/>
<text text-anchor="middle" x="874.6602" y="-163.5" font-family="Helvetica,sans-Serif" font-size="10.00" fill="#000000">CHash360::Write</text>
</a>
</g>
</g>
<!-- Node19&#45;&gt;Node20 -->
<g id="edge4" class="edge">
<title>Node19&#45;&gt;Node20</title>
<path fill="none" stroke="#191970" d="M771.6072,-129.5881C791.1317,-136.5815 818.3302,-146.3235 839.8827,-154.0433"/>
<polygon fill="#191970" stroke="#191970" points="838.7455,-157.3537 849.3401,-157.4308 841.106,-150.7636 838.7455,-157.3537"/>
</g>
<!-- Node25 -->
<g id="node10" class="node">
<title>Node25</title>
<g id="a_node10"><a xlink:href="class_c_hash360.html#abb6b8a5693cd0b09e52bb624bafc1efd" target="_top" xlink:title="CHash360::Finalize">
<polygon fill="#ffffff" stroke="#000000" points="823.0273,-102.5 823.0273,-120.5 926.293,-120.5 926.293,-102.5 823.0273,-102.5"/>
<text text-anchor="middle" x="874.6602" y="-108.5" font-family="Helvetica,sans-Serif" font-size="10.00" fill="#000000">CHash360::Finalize</text>
</a>
</g>
</g>
<!-- Node19&#45;&gt;Node25 -->
<g id="edge9" class="edge">
<title>Node19&#45;&gt;Node25</title>
<path fill="none" stroke="#191970" d="M774.418,-118.5249C785.7738,-117.7291 799.3523,-116.7775 812.7936,-115.8356"/>
<polygon fill="#191970" stroke="#191970" points="813.2755,-119.3105 823.0063,-115.1199 812.7861,-112.3276 813.2755,-119.3105"/>
</g>
<!-- Node21 -->
<g id="node6" class="node">
<title>Node21</title>
<g id="a_node6"><a xlink:href="class_c_s_h_a3.html#a439a0fade3fa1b7989c6cf053d39161b" target="_top" xlink:title="CSHA3::Write">
<polygon fill="#ffffff" stroke="#000000" points="982.6714,-177.5 982.6714,-195.5 1060.7271,-195.5 1060.7271,-177.5 982.6714,-177.5"/>
<text text-anchor="middle" x="1021.6992" y="-183.5" font-family="Helvetica,sans-Serif" font-size="10.00" fill="#000000">CSHA3::Write</text>
</a>
</g>
</g>
<!-- Node20&#45;&gt;Node21 -->
<g id="edge5" class="edge">
<title>Node20&#45;&gt;Node21</title>
<path fill="none" stroke="#191970" d="M920.7808,-172.7733C937.241,-175.0121 955.8394,-177.5419 972.5452,-179.8142"/>
<polygon fill="#191970" stroke="#191970" points="972.2859,-183.311 982.6664,-181.1908 973.2294,-176.3749 972.2859,-183.311"/>
</g>
<!-- Node22 -->
<g id="node7" class="node">
<title>Node22</title>
<g id="a_node7"><a xlink:href="class_s_h_a3__256.html#a8356957ea403c5da326fc6899b91ea71" target="_top" xlink:title="Updates the hash with more data. ">
<polygon fill="#ffffff" stroke="#000000" points="1131.3633,-187.5 1131.3633,-205.5 1231.875,-205.5 1231.875,-187.5 1131.3633,-187.5"/>
<text text-anchor="middle" x="1181.6191" y="-193.5" font-family="Helvetica,sans-Serif" font-size="10.00" fill="#000000">SHA3_256::update</text>
</a>
</g>
</g>
<!-- Node21&#45;&gt;Node22 -->
<g id="edge6" class="edge">
<title>Node21&#45;&gt;Node22</title>
<path fill="none" stroke="#191970" d="M1060.82,-188.9463C1078.9349,-190.079 1100.8724,-191.4508 1121.0553,-192.7129"/>
<polygon fill="#191970" stroke="#191970" points="1120.9088,-196.2105 1131.1078,-193.3415 1121.3458,-189.2241 1120.9088,-196.2105"/>
</g>
<!-- Node23 -->
<g id="node8" class="node">
<title>Node23</title>
<g id="a_node8"><a xlink:href="class_keccak_core.html#aaaa0355ccec0f469ac8eb577bdf853ed" target="_top" xlink:title="Updates the Keccak sponge function with more input data. ">
<polygon fill="#ffffff" stroke="#000000" points="1282.1328,-196.5 1282.1328,-214.5 1388.7432,-214.5 1388.7432,-196.5 1282.1328,-196.5"/>
<text text-anchor="middle" x="1335.438" y="-202.5" font-family="Helvetica,sans-Serif" font-size="10.00" fill="#000000">KeccakCore::update</text>
</a>
</g>
</g>
<!-- Node22&#45;&gt;Node23 -->
<g id="edge7" class="edge">
<title>Node22&#45;&gt;Node23</title>
<path fill="none" stroke="#191970" d="M1231.9852,-199.4469C1244.7623,-200.1945 1258.6534,-201.0073 1271.9874,-201.7875"/>
<polygon fill="#191970" stroke="#191970" points="1271.8603,-205.2859 1282.0477,-202.3761 1272.2693,-198.2979 1271.8603,-205.2859"/>
</g>
<!-- Node24 -->
<g id="node9" class="node">
<title>Node24</title>
<g id="a_node9"><a xlink:href="class_keccak_core.html#aba3225c7a4ceff3580236a900b72a1c3" target="_top" xlink:title="Transform the state with the KECCAK&#45;p sponge function with b = 1600. ">
<polygon fill="#ffffff" stroke="#000000" points="1424.7432,-159.5 1424.7432,-177.5 1537.4521,-177.5 1537.4521,-159.5 1424.7432,-159.5"/>
<text text-anchor="middle" x="1481.0977" y="-165.5" font-family="Helvetica,sans-Serif" font-size="10.00" fill="#000000">KeccakCore::keccakp</text>
</a>
</g>
</g>
<!-- Node23&#45;&gt;Node24 -->
<g id="edge8" class="edge">
<title>Node23&#45;&gt;Node24</title>
<path fill="none" stroke="#191970" d="M1371.0704,-196.4488C1390.5404,-191.5031 1414.8588,-185.3258 1435.6782,-180.0373"/>
<polygon fill="#191970" stroke="#191970" points="1436.7505,-183.3761 1445.581,-177.5218 1435.0271,-176.5916 1436.7505,-183.3761"/>
</g>
<!-- Node26 -->
<g id="node11" class="node">
<title>Node26</title>
<g id="a_node11"><a xlink:href="class_c_s_h_a3.html#a7aa515a9a0fa6d72667d74897f699ae9" target="_top" xlink:title="CSHA3::Finalize">
<polygon fill="#ffffff" stroke="#000000" points="977.0195,-121.5 977.0195,-139.5 1066.3789,-139.5 1066.3789,-121.5 977.0195,-121.5"/>
<text text-anchor="middle" x="1021.6992" y="-127.5" font-family="Helvetica,sans-Serif" font-size="10.00" fill="#000000">CSHA3::Finalize</text>
</a>
</g>
</g>
<!-- Node25&#45;&gt;Node26 -->
<g id="edge10" class="edge">
<title>Node25&#45;&gt;Node26</title>
<path fill="none" stroke="#191970" d="M926.5006,-118.1987C939.4185,-119.8679 953.317,-121.6638 966.3948,-123.3537"/>
<polygon fill="#191970" stroke="#191970" points="966.3065,-126.8713 976.6726,-124.6818 967.2036,-119.929 966.3065,-126.8713"/>
</g>
<!-- Node32 -->
<g id="node17" class="node">
<title>Node32</title>
<g id="a_node17"><a xlink:href="class_c_r_i_p_e_m_d160.html#a221143b9d94af623d07c4f4ba1bf6007" target="_top" xlink:title="CRIPEMD160::Write">
<polygon fill="#ffffff" stroke="#000000" points="967.9448,-84.5 967.9448,-102.5 1075.4536,-102.5 1075.4536,-84.5 967.9448,-84.5"/>
<text text-anchor="middle" x="1021.6992" y="-90.5" font-family="Helvetica,sans-Serif" font-size="10.00" fill="#000000">CRIPEMD160::Write</text>
</a>
</g>
</g>
<!-- Node25&#45;&gt;Node32 -->
<g id="edge18" class="edge">
<title>Node25&#45;&gt;Node32</title>
<path fill="none" stroke="#191970" d="M926.5006,-105.1539C936.6512,-103.9113 947.4073,-102.5946 957.8949,-101.3107"/>
<polygon fill="#191970" stroke="#191970" points="958.3386,-104.7826 967.8392,-100.0934 957.488,-97.8345 958.3386,-104.7826"/>
</g>
<!-- Node34 -->
<g id="node19" class="node">
<title>Node34</title>
<g id="a_node19"><a xlink:href="class_c_r_i_p_e_m_d160.html#a2a11566fbf9d1339b819833313fc4e51" target="_top" xlink:title="CRIPEMD160::Finalize">
<polygon fill="#ffffff" stroke="#000000" points="962.293,-47.5 962.293,-65.5 1081.1055,-65.5 1081.1055,-47.5 962.293,-47.5"/>
<text text-anchor="middle" x="1021.6992" y="-53.5" font-family="Helvetica,sans-Serif" font-size="10.00" fill="#000000">CRIPEMD160::Finalize</text>
</a>
</g>
</g>
<!-- Node25&#45;&gt;Node34 -->
<g id="edge21" class="edge">
<title>Node25&#45;&gt;Node34</title>
<path fill="none" stroke="#191970" d="M895.3696,-102.4422C913.0118,-94.8591 939.1143,-83.9522 962.293,-75.5 968.7178,-73.1572 975.5883,-70.8139 982.2934,-68.613"/>
<polygon fill="#191970" stroke="#191970" points="983.484,-71.9066 991.9277,-65.507 981.3361,-65.2443 983.484,-71.9066"/>
</g>
<!-- Node27 -->
<g id="node12" class="node">
<title>Node27</title>
<g id="a_node12"><a xlink:href="class_s_h_a3__256.html#a8fe7cad1f83bd1bae1a0d521324247a1" target="_top" xlink:title="Finalizes the hashing process and returns the hash. ">
<polygon fill="#ffffff" stroke="#000000" points="1131.0923,-122.5 1131.0923,-140.5 1232.146,-140.5 1232.146,-122.5 1131.0923,-122.5"/>
<text text-anchor="middle" x="1181.6191" y="-128.5" font-family="Helvetica,sans-Serif" font-size="10.00" fill="#000000">SHA3_256::finalize</text>
</a>
</g>
</g>
<!-- Node26&#45;&gt;Node27 -->
<g id="edge11" class="edge">
<title>Node26&#45;&gt;Node27</title>
<path fill="none" stroke="#191970" d="M1066.6714,-130.7812C1083.5079,-130.8865 1102.9224,-131.0079 1120.9465,-131.1206"/>
<polygon fill="#191970" stroke="#191970" points="1121.0569,-134.6213 1131.0787,-131.184 1121.1008,-127.6214 1121.0569,-134.6213"/>
</g>
<!-- Node28 -->
<g id="node13" class="node">
<title>Node28</title>
<g id="a_node13"><a xlink:href="class_keccak_core.html#a97852ee4381ced17ee6d21704cf0b4d7" target="_top" xlink:title="Pads the last block of input data to blockSize(). ">
<polygon fill="#ffffff" stroke="#000000" points="1289.0835,-159.5 1289.0835,-177.5 1381.7925,-177.5 1381.7925,-159.5 1289.0835,-159.5"/>
<text text-anchor="middle" x="1335.438" y="-165.5" font-family="Helvetica,sans-Serif" font-size="10.00" fill="#000000">KeccakCore::pad</text>
</a>
</g>
</g>
<!-- Node27&#45;&gt;Node28 -->
<g id="edge12" class="edge">
<title>Node27&#45;&gt;Node28</title>
<path fill="none" stroke="#191970" d="M1219.2475,-140.5512C1239.9951,-145.5419 1265.9561,-151.7866 1288.073,-157.1067"/>
<polygon fill="#191970" stroke="#191970" points="1287.3906,-160.5423 1297.9319,-159.4782 1289.0278,-153.7364 1287.3906,-160.5423"/>
</g>
<!-- Node29 -->
<g id="node14" class="node">
<title>Node29</title>
<g id="a_node14"><a xlink:href="class_keccak_core.html#aad83ece853c0cc15fcab947fdcba924f" target="_top" xlink:title="Extracts data from the Keccak sponge function. ">
<polygon fill="#ffffff" stroke="#000000" points="1282.4209,-122.5 1282.4209,-140.5 1388.4551,-140.5 1388.4551,-122.5 1282.4209,-122.5"/>
<text text-anchor="middle" x="1335.438" y="-128.5" font-family="Helvetica,sans-Serif" font-size="10.00" fill="#000000">KeccakCore::extract</text>
</a>
</g>
</g>
<!-- Node27&#45;&gt;Node29 -->
<g id="edge14" class="edge">
<title>Node27&#45;&gt;Node29</title>
<path fill="none" stroke="#191970" d="M1232.4115,-131.5C1245.1726,-131.5 1259.0222,-131.5 1272.3051,-131.5"/>
<polygon fill="#191970" stroke="#191970" points="1272.3248,-135.0001 1282.3248,-131.5 1272.3247,-128.0001 1272.3248,-135.0001"/>
</g>
<!-- Node28&#45;&gt;Node24 -->
<g id="edge13" class="edge">
<title>Node28&#45;&gt;Node24</title>
<path fill="none" stroke="#191970" d="M1381.9261,-168.5C1392.3165,-168.5 1403.5336,-168.5 1414.5571,-168.5"/>
<polygon fill="#191970" stroke="#191970" points="1414.597,-172.0001 1424.597,-168.5 1414.5969,-165.0001 1414.597,-172.0001"/>
</g>
<!-- Node29&#45;&gt;Node24 -->
<g id="edge15" class="edge">
<title>Node29&#45;&gt;Node24</title>
<path fill="none" stroke="#191970" d="M1371.0704,-140.5512C1390.5404,-145.4969 1414.8588,-151.6742 1435.6782,-156.9627"/>
<polygon fill="#191970" stroke="#191970" points="1435.0271,-160.4084 1445.581,-159.4782 1436.7505,-153.6239 1435.0271,-160.4084"/>
</g>
<!-- Node30 -->
<g id="node15" class="node">
<title>Node30</title>
<g id="a_node15"><a xlink:href="glibc__compat_8cpp.html#a0f46826ab0466591e136db24394923cf" target="_top" xlink:title="memcpy">
<polygon fill="#ffffff" stroke="#000000" points="1454.2061,-103.5 1454.2061,-121.5 1507.9893,-121.5 1507.9893,-103.5 1454.2061,-103.5"/>
<text text-anchor="middle" x="1481.0977" y="-109.5" font-family="Helvetica,sans-Serif" font-size="10.00" fill="#000000">memcpy</text>
</a>
</g>
</g>
<!-- Node29&#45;&gt;Node30 -->
<g id="edge16" class="edge">
<title>Node29&#45;&gt;Node30</title>
<path fill="none" stroke="#191970" d="M1388.8492,-124.533C1407.1381,-122.1474 1427.1894,-119.5318 1443.9127,-117.3504"/>
<polygon fill="#191970" stroke="#191970" points="1444.3865,-120.8184 1453.8497,-116.0542 1443.481,-113.8772 1444.3865,-120.8184"/>
</g>
<!-- Node31 -->
<g id="node16" class="node">
<title>Node31</title>
<g id="a_node16"><a xlink:href="glibc__compat_8cpp.html#a9778d49e9029dd75bc53ecbbf9f5e9a1" target="_top" xlink:title="memmove">
<polygon fill="#ffffff" stroke="#000000" points="1573.4521,-103.5 1573.4521,-121.5 1636.127,-121.5 1636.127,-103.5 1573.4521,-103.5"/>
<text text-anchor="middle" x="1604.7896" y="-109.5" font-family="Helvetica,sans-Serif" font-size="10.00" fill="#000000">memmove</text>
</a>
</g>
</g>
<!-- Node30&#45;&gt;Node31 -->
<g id="edge17" class="edge">
<title>Node30&#45;&gt;Node31</title>
<path fill="none" stroke="#191970" d="M1508.2424,-112.5C1524.3682,-112.5 1545.1478,-112.5 1563.2959,-112.5"/>
<polygon fill="#191970" stroke="#191970" points="1563.3407,-116.0001 1573.3407,-112.5 1563.3406,-109.0001 1563.3407,-116.0001"/>
</g>
<!-- Node32&#45;&gt;Node30 -->
<g id="edge19" class="edge">
<title>Node32&#45;&gt;Node30</title>
<path fill="none" stroke="#191970" d="M1075.749,-95.7354C1170.1779,-99.6408 1362.8445,-107.6092 1443.8761,-110.9606"/>
<polygon fill="#191970" stroke="#191970" points="1443.9603,-114.467 1454.0964,-111.3833 1444.2496,-107.4729 1443.9603,-114.467"/>
</g>
<!-- Node33 -->
<g id="node18" class="node">
<title>Node33</title>
<g id="a_node18"><a xlink:href="namespacesha256__shani.html#a97d2e267c87add9a1172d948e05ba471" target="_top" xlink:title="sha256_shani::Transform">
<polygon fill="#ffffff" stroke="#000000" points="1117.1055,-46.5 1117.1055,-64.5 1246.1328,-64.5 1246.1328,-46.5 1117.1055,-46.5"/>
<text text-anchor="middle" x="1181.6191" y="-52.5" font-family="Helvetica,sans-Serif" font-size="10.00" fill="#000000">sha256_shani::Transform</text>
</a>
</g>
</g>
<!-- Node32&#45;&gt;Node33 -->
<g id="edge20" class="edge">
<title>Node32&#45;&gt;Node33</title>
<path fill="none" stroke="#191970" d="M1059.598,-84.4945C1081.8232,-79.2134 1110.1091,-72.4921 1133.8501,-66.8508"/>
<polygon fill="#191970" stroke="#191970" points="1134.7957,-70.2237 1143.7156,-64.5066 1133.1773,-63.4133 1134.7957,-70.2237"/>
</g>
<!-- Node36 -->
<g id="node21" class="node">
<title>Node36</title>
<g id="a_node21"><a xlink:href="class_c_pub_key.html#a7dc71b3f037c84268dc22de97d7b65fb" target="_top" xlink:title="Compute the length of a pubkey with a given first byte. ">
<polygon fill="#ffffff" stroke="#000000" points="826.3574,-47.5 826.3574,-65.5 922.9629,-65.5 922.9629,-47.5 826.3574,-47.5"/>
<text text-anchor="middle" x="874.6602" y="-53.5" font-family="Helvetica,sans-Serif" font-size="10.00" fill="#000000">CPubKey::GetLen</text>
</a>
</g>
</g>
<!-- Node35&#45;&gt;Node36 -->
<g id="edge23" class="edge">
<title>Node35&#45;&gt;Node36</title>
<path fill="none" stroke="#191970" d="M787.2222,-56.5C796.3752,-56.5 806.2558,-56.5 815.9668,-56.5"/>
<polygon fill="#191970" stroke="#191970" points="815.9878,-60.0001 825.9877,-56.5 815.9877,-53.0001 815.9878,-60.0001"/>
</g>
<!-- Node37&#45;&gt;Node18 -->
<g id="edge25" class="edge">
<title>Node37&#45;&gt;Node18</title>
<path fill="none" stroke="#191970" d="M487.7567,-91.5798C510.053,-97.2254 535.422,-103.6491 556.5783,-109.0061"/>
<polygon fill="#191970" stroke="#191970" points="555.7309,-112.4019 566.2841,-111.4637 557.4491,-105.6161 555.7309,-112.4019"/>
</g>
<!-- Node38 -->
<g id="node23" class="node">
<title>Node38</title>
<g id="a_node23"><a xlink:href="class_c_basic_key_store.html#aac2aa969bf475ebc2675317afa71975c" target="_top" xlink:title="Check whether a key corresponding to a given address is present in the store. ">
<polygon fill="#ffffff" stroke="#000000" points="534.501,-74.5 534.501,-92.5 669.4414,-92.5 669.4414,-74.5 534.501,-74.5"/>
<text text-anchor="middle" x="601.9712" y="-80.5" font-family="Helvetica,sans-Serif" font-size="10.00" fill="#000000">CBasicKeyStore::HaveKey</text>
</a>
</g>
</g>
<!-- Node37&#45;&gt;Node38 -->
<g id="edge26" class="edge">
<title>Node37&#45;&gt;Node38</title>
<path fill="none" stroke="#191970" d="M498.7813,-79.8541C507.105,-80.1482 515.6748,-80.451 524.1498,-80.7504"/>
<polygon fill="#191970" stroke="#191970" points="524.3001,-84.2578 534.4174,-81.1132 524.5473,-77.2622 524.3001,-84.2578"/>
</g>
<!-- Node39 -->
<g id="node24" class="node">
<title>Node39</title>
<g id="a_node24"><a xlink:href="class_c_pub_key.html#a25f8b70340ad20ddab0f80ec4cee9396" target="_top" xlink:title="Check whether this is a compressed public key. ">
<polygon fill="#ffffff" stroke="#000000" points="537.8359,-37.5 537.8359,-55.5 666.1064,-55.5 666.1064,-37.5 537.8359,-37.5"/>
<text text-anchor="middle" x="601.9712" y="-43.5" font-family="Helvetica,sans-Serif" font-size="10.00" fill="#000000">CPubKey::IsCompressed</text>
</a>
</g>
</g>
<!-- Node37&#45;&gt;Node39 -->
<g id="edge27" class="edge">
<title>Node37&#45;&gt;Node39</title>
<path fill="none" stroke="#191970" d="M498.7813,-65.337C513.2125,-62.7026 528.3832,-59.9332 542.5171,-57.3531"/>
<polygon fill="#191970" stroke="#191970" points="543.3912,-60.7515 552.6001,-55.5125 542.1341,-53.8653 543.3912,-60.7515"/>
</g>
<!-- Node40 -->
<g id="node25" class="node">
<title>Node40</title>
<g id="a_node25"><a xlink:href="standard_8cpp.html#ae40f28d3b46c21033f6ee1f1200d0321" target="_top" xlink:title="Generate a Bitcoin scriptPubKey for the given CTxDestination. ">
<polygon fill="#ffffff" stroke="#000000" points="540.6167,-.5 540.6167,-18.5 663.3257,-18.5 663.3257,-.5 540.6167,-.5"/>
<text text-anchor="middle" x="601.9712" y="-6.5" font-family="Helvetica,sans-Serif" font-size="10.00" fill="#000000">GetScriptForDestination</text>
</a>
</g>
</g>
<!-- Node37&#45;&gt;Node40 -->
<g id="edge29" class="edge">
<title>Node37&#45;&gt;Node40</title>
<path fill="none" stroke="#191970" d="M478.6219,-63.4633C485.437,-60.8148 492.2573,-57.819 498.501,-54.5 516.1609,-45.1123 516.5104,-36.2372 534.501,-27.5 538.904,-25.3617 543.5964,-23.4501 548.3774,-21.7469"/>
<polygon fill="#191970" stroke="#191970" points="549.8227,-24.9575 558.2512,-18.5378 547.659,-18.3003 549.8227,-24.9575"/>
</g>
<!-- Node39&#45;&gt;Node35 -->
<g id="edge28" class="edge">
<title>Node39&#45;&gt;Node35</title>
<path fill="none" stroke="#191970" d="M666.5077,-50.9735C676.101,-51.6385 685.8756,-52.3161 695.1424,-52.9584"/>
<polygon fill="#191970" stroke="#191970" points="695.1343,-56.4662 705.3525,-53.6662 695.6185,-49.4829 695.1343,-56.4662"/>
</g>
<!-- Node42 -->
<g id="node27" class="node">
<title>Node42</title>
<g id="a_node27"><a xlink:href="secp256k1_8h.html#a7438071aa8a6dc4697abe4f4659f2161" target="_top" xlink:title="Compute the public key for a secret key. ">
<polygon fill="#ffffff" stroke="#000000" points="373.0015,-16.5 373.0015,-44.5 491.3013,-44.5 491.3013,-16.5 373.0015,-16.5"/>
<text text-anchor="start" x="381.0015" y="-32.5" font-family="Helvetica,sans-Serif" font-size="10.00" fill="#000000">secp256k1_ec_pubkey</text>
<text text-anchor="middle" x="432.1514" y="-22.5" font-family="Helvetica,sans-Serif" font-size="10.00" fill="#000000">_create</text>
</a>
</g>
</g>
<!-- Node41&#45;&gt;Node42 -->
<g id="edge31" class="edge">
<title>Node41&#45;&gt;Node42</title>
<path fill="none" stroke="#191970" d="M296.5683,-34.1732C316.7576,-33.6263 340.5235,-32.9824 362.472,-32.3878"/>
<polygon fill="#191970" stroke="#191970" points="362.8402,-35.8792 372.7418,-32.1095 362.6506,-28.8817 362.8402,-35.8792"/>
</g>
</g>
</svg>
