<?xml version="1.0" encoding="UTF-8" standalone="no"?>
<!DOCTYPE svg PUBLIC "-//W3C//DTD SVG 1.1//EN"
 "http://www.w3.org/Graphics/SVG/1.1/DTD/svg11.dtd">
<!-- Generated by graphviz version 2.40.1 (20161225.0304)
 -->
<!-- Title: SendCoinsDialog::processSendCoinsReturn Pages: 1 -->
<svg width="645pt" height="255pt"
 viewBox="0.00 0.00 644.85 255.00" xmlns="http://www.w3.org/2000/svg" xmlns:xlink="http://www.w3.org/1999/xlink">
<g id="graph0" class="graph" transform="scale(1 1) rotate(0) translate(4 251)">
<title>SendCoinsDialog::processSendCoinsReturn</title>
<polygon fill="#ffffff" stroke="transparent" points="-4,4 -4,-251 640.8486,-251 640.8486,4 -4,4"/>
<!-- Node627 -->
<g id="node1" class="node">
<title>Node627</title>
<polygon fill="#bfbfbf" stroke="#000000" points="0,-79.5 0,-107.5 133.8418,-107.5 133.8418,-79.5 0,-79.5"/>
<text text-anchor="start" x="8" y="-95.5" font-family="Helvetica,sans-Serif" font-size="10.00" fill="#000000">SendCoinsDialog::process</text>
<text text-anchor="middle" x="66.9209" y="-85.5" font-family="Helvetica,sans-Serif" font-size="10.00" fill="#000000">SendCoinsReturn</text>
</g>
<!-- Node628 -->
<g id="node2" class="node">
<title>Node628</title>
<g id="a_node2"><a xlink:href="class_bitcoin_units.html#aef9fb7509257bc84ee459d7f0c663020" target="_top" xlink:title="Format as string (with unit) ">
<polygon fill="#ffffff" stroke="#000000" points="175.5083,-158.5 175.5083,-176.5 315.9858,-176.5 315.9858,-158.5 175.5083,-158.5"/>
<text text-anchor="middle" x="245.7471" y="-164.5" font-family="Helvetica,sans-Serif" font-size="10.00" fill="#000000">BitcoinUnits::formatWithUnit</text>
</a>
</g>
</g>
<!-- Node627&#45;&gt;Node628 -->
<g id="edge1" class="edge">
<title>Node627&#45;&gt;Node628</title>
<path fill="none" stroke="#191970" d="M88.59,-107.5086C108.8767,-120.0769 140.3953,-138.2285 169.8418,-149.5 176.0455,-151.8746 182.6583,-154.0001 189.2957,-155.8847"/>
<polygon fill="#191970" stroke="#191970" points="188.4286,-159.2757 198.9931,-158.4744 190.2347,-152.5127 188.4286,-159.2757"/>
</g>
<!-- Node635 -->
<g id="node9" class="node">
<title>Node635</title>
<g id="a_node9"><a xlink:href="class_wallet_model.html#a96d53e56b3f8f07537ea2523f7a7d300" target="_top" xlink:title="WalletModel::getOptionsModel">
<polygon fill="#ffffff" stroke="#000000" points="169.8418,-121.5 169.8418,-139.5 321.6523,-139.5 321.6523,-121.5 169.8418,-121.5"/>
<text text-anchor="middle" x="245.7471" y="-127.5" font-family="Helvetica,sans-Serif" font-size="10.00" fill="#000000">WalletModel::getOptionsModel</text>
</a>
</g>
</g>
<!-- Node627&#45;&gt;Node635 -->
<g id="edge8" class="edge">
<title>Node627&#45;&gt;Node635</title>
<path fill="none" stroke="#191970" d="M134.0179,-107.3827C153.2508,-111.3621 173.9554,-115.646 192.253,-119.4318"/>
<polygon fill="#191970" stroke="#191970" points="191.6443,-122.8799 202.146,-121.4787 193.0626,-116.0251 191.6443,-122.8799"/>
</g>
<!-- Node636 -->
<g id="node10" class="node">
<title>Node636</title>
<g id="a_node10"><a xlink:href="class_options_model.html#a00a1f0842f764f64086e7d5d42bbce63" target="_top" xlink:title="OptionsModel::getDisplayUnit">
<polygon fill="#ffffff" stroke="#000000" points="171.8828,-84.5 171.8828,-102.5 319.6113,-102.5 319.6113,-84.5 171.8828,-84.5"/>
<text text-anchor="middle" x="245.7471" y="-90.5" font-family="Helvetica,sans-Serif" font-size="10.00" fill="#000000">OptionsModel::getDisplayUnit</text>
</a>
</g>
</g>
<!-- Node627&#45;&gt;Node636 -->
<g id="edge9" class="edge">
<title>Node627&#45;&gt;Node636</title>
<path fill="none" stroke="#191970" d="M134.0179,-93.5C143.0428,-93.5 152.3918,-93.5 161.664,-93.5"/>
<polygon fill="#191970" stroke="#191970" points="161.6764,-97.0001 171.6763,-93.5 161.6763,-90.0001 161.6764,-97.0001"/>
</g>
<!-- Node637 -->
<g id="node11" class="node">
<title>Node637</title>
<g id="a_node11"><a xlink:href="class_wallet_model.html#ae61543ccde5a5911137f8e7ecf52126e" target="_top" xlink:title="WalletModel::node">
<polygon fill="#ffffff" stroke="#000000" points="196.519,-47.5 196.519,-65.5 294.9751,-65.5 294.9751,-47.5 196.519,-47.5"/>
<text text-anchor="middle" x="245.7471" y="-53.5" font-family="Helvetica,sans-Serif" font-size="10.00" fill="#000000">WalletModel::node</text>
</a>
</g>
</g>
<!-- Node627&#45;&gt;Node637 -->
<g id="edge10" class="edge">
<title>Node627&#45;&gt;Node637</title>
<path fill="none" stroke="#191970" d="M134.0179,-79.6173C153.2508,-75.6379 173.9554,-71.354 192.253,-67.5682"/>
<polygon fill="#191970" stroke="#191970" points="193.0626,-70.9749 202.146,-65.5213 191.6443,-64.1201 193.0626,-70.9749"/>
</g>
<!-- Node638 -->
<g id="node12" class="node">
<title>Node638</title>
<g id="a_node12"><a xlink:href="classinterfaces_1_1_node.html#a2309d9280b583a2d48586fc270fb38d9" target="_top" xlink:title="Get max tx fee. ">
<polygon fill="#ffffff" stroke="#000000" points="182.1636,-.5 182.1636,-28.5 309.3306,-28.5 309.3306,-.5 182.1636,-.5"/>
<text text-anchor="start" x="190.1636" y="-16.5" font-family="Helvetica,sans-Serif" font-size="10.00" fill="#000000">interfaces::Node::getMax</text>
<text text-anchor="middle" x="245.7471" y="-6.5" font-family="Helvetica,sans-Serif" font-size="10.00" fill="#000000">TxFee</text>
</a>
</g>
</g>
<!-- Node627&#45;&gt;Node638 -->
<g id="edge11" class="edge">
<title>Node627&#45;&gt;Node638</title>
<path fill="none" stroke="#191970" d="M90.431,-79.3235C110.9055,-67.3733 141.6471,-50.371 169.8418,-38.5 175.3092,-36.198 181.077,-33.9933 186.8908,-31.9179"/>
<polygon fill="#191970" stroke="#191970" points="188.3557,-35.1154 196.6735,-28.553 186.0788,-28.496 188.3557,-35.1154"/>
</g>
<!-- Node629 -->
<g id="node3" class="node">
<title>Node629</title>
<g id="a_node3"><a xlink:href="class_bitcoin_units.html#ab07437e5a788c80a82d75e3714bd3925" target="_top" xlink:title="Format as string. ">
<polygon fill="#ffffff" stroke="#000000" points="367.9355,-181.5 367.9355,-199.5 470.6299,-199.5 470.6299,-181.5 367.9355,-181.5"/>
<text text-anchor="middle" x="419.2827" y="-187.5" font-family="Helvetica,sans-Serif" font-size="10.00" fill="#000000">BitcoinUnits::format</text>
</a>
</g>
</g>
<!-- Node628&#45;&gt;Node629 -->
<g id="edge2" class="edge">
<title>Node628&#45;&gt;Node629</title>
<path fill="none" stroke="#191970" d="M313.8349,-176.5242C328.2762,-178.4382 343.4423,-180.4483 357.6283,-182.3285"/>
<polygon fill="#191970" stroke="#191970" points="357.3872,-185.827 367.7604,-183.6714 358.307,-178.8877 357.3872,-185.827"/>
</g>
<!-- Node633 -->
<g id="node7" class="node">
<title>Node633</title>
<g id="a_node7"><a xlink:href="class_bitcoin_units.html#af65eb534385613f176593cc7545136d0" target="_top" xlink:title="Short name. ">
<polygon fill="#ffffff" stroke="#000000" points="357.6523,-135.5 357.6523,-153.5 480.9131,-153.5 480.9131,-135.5 357.6523,-135.5"/>
<text text-anchor="middle" x="419.2827" y="-141.5" font-family="Helvetica,sans-Serif" font-size="10.00" fill="#000000">BitcoinUnits::shortName</text>
</a>
</g>
</g>
<!-- Node628&#45;&gt;Node633 -->
<g id="edge6" class="edge">
<title>Node628&#45;&gt;Node633</title>
<path fill="none" stroke="#191970" d="M313.8349,-158.4758C324.8853,-157.0112 336.36,-155.4904 347.4953,-154.0145"/>
<polygon fill="#191970" stroke="#191970" points="348.1509,-157.4583 357.6043,-152.6747 347.2311,-150.519 348.1509,-157.4583"/>
</g>
<!-- Node630 -->
<g id="node4" class="node">
<title>Node630</title>
<g id="a_node4"><a xlink:href="class_bitcoin_units.html#a81cbc41480adfb600dad79711d336e5f" target="_top" xlink:title="Is unit ID valid? ">
<polygon fill="#ffffff" stroke="#000000" points="529.4204,-228.5 529.4204,-246.5 624.3413,-246.5 624.3413,-228.5 529.4204,-228.5"/>
<text text-anchor="middle" x="576.8809" y="-234.5" font-family="Helvetica,sans-Serif" font-size="10.00" fill="#000000">BitcoinUnits::valid</text>
</a>
</g>
</g>
<!-- Node629&#45;&gt;Node630 -->
<g id="edge3" class="edge">
<title>Node629&#45;&gt;Node630</title>
<path fill="none" stroke="#191970" d="M449.6692,-199.5621C474.5239,-206.9744 509.8703,-217.5157 536.9992,-225.6062"/>
<polygon fill="#191970" stroke="#191970" points="536.0044,-228.9618 546.5876,-228.4657 538.005,-222.2538 536.0044,-228.9618"/>
</g>
<!-- Node631 -->
<g id="node5" class="node">
<title>Node631</title>
<g id="a_node5"><a xlink:href="class_bitcoin_units.html#ae967b9e6ecbb8f041bfe398d27533b09" target="_top" xlink:title="Number of Satoshis (1e&#45;8) per unit. ">
<polygon fill="#ffffff" stroke="#000000" points="527.1987,-191.5 527.1987,-209.5 626.563,-209.5 626.563,-191.5 527.1987,-191.5"/>
<text text-anchor="middle" x="576.8809" y="-197.5" font-family="Helvetica,sans-Serif" font-size="10.00" fill="#000000">BitcoinUnits::factor</text>
</a>
</g>
</g>
<!-- Node629&#45;&gt;Node631 -->
<g id="edge4" class="edge">
<title>Node629&#45;&gt;Node631</title>
<path fill="none" stroke="#191970" d="M470.8862,-193.7744C485.5468,-194.7046 501.6389,-195.7257 516.7577,-196.685"/>
<polygon fill="#191970" stroke="#191970" points="516.8379,-200.1971 527.0395,-197.3374 517.2812,-193.2111 516.8379,-200.1971"/>
</g>
<!-- Node632 -->
<g id="node6" class="node">
<title>Node632</title>
<g id="a_node6"><a xlink:href="class_bitcoin_units.html#a3f0fc21634520ea06c684ba0d7e25f2f" target="_top" xlink:title="Number of decimals left. ">
<polygon fill="#ffffff" stroke="#000000" points="519.9746,-154.5 519.9746,-172.5 633.7871,-172.5 633.7871,-154.5 519.9746,-154.5"/>
<text text-anchor="middle" x="576.8809" y="-160.5" font-family="Helvetica,sans-Serif" font-size="10.00" fill="#000000">BitcoinUnits::decimals</text>
</a>
</g>
</g>
<!-- Node629&#45;&gt;Node632 -->
<g id="edge5" class="edge">
<title>Node629&#45;&gt;Node632</title>
<path fill="none" stroke="#191970" d="M470.8862,-181.6592C484.6112,-179.3078 499.5909,-176.7415 513.852,-174.2982"/>
<polygon fill="#191970" stroke="#191970" points="514.8157,-177.6842 524.0811,-172.5458 513.6336,-170.7847 514.8157,-177.6842"/>
</g>
<!-- Node634 -->
<g id="node8" class="node">
<title>Node634</title>
<g id="a_node8"><a xlink:href="class_bitcoin_units.html#a97f983970ff33cae20996ba26ab257cd" target="_top" xlink:title="Long name. ">
<polygon fill="#ffffff" stroke="#000000" points="516.9131,-117.5 516.9131,-135.5 636.8486,-135.5 636.8486,-117.5 516.9131,-117.5"/>
<text text-anchor="middle" x="576.8809" y="-123.5" font-family="Helvetica,sans-Serif" font-size="10.00" fill="#000000">BitcoinUnits::longName</text>
</a>
</g>
</g>
<!-- Node633&#45;&gt;Node634 -->
<g id="edge7" class="edge">
<title>Node633&#45;&gt;Node634</title>
<path fill="none" stroke="#191970" d="M481.1173,-137.4376C489.5468,-136.4748 498.2481,-135.481 506.8102,-134.5031"/>
<polygon fill="#191970" stroke="#191970" points="507.2346,-137.9775 516.7728,-133.3652 506.4402,-131.0227 507.2346,-137.9775"/>
</g>
</g>
</svg>
