<?xml version="1.0" encoding="UTF-8" standalone="no"?>
<!DOCTYPE svg PUBLIC "-//W3C//DTD SVG 1.1//EN"
 "http://www.w3.org/Graphics/SVG/1.1/DTD/svg11.dtd">
<!-- Generated by graphviz version 2.40.1 (20161225.0304)
 -->
<!-- Title: UnitDisplayStatusBarControl::createContextMenu Pages: 1 -->
<svg width="513pt" height="111pt"
 viewBox="0.00 0.00 512.60 111.00" xmlns="http://www.w3.org/2000/svg" xmlns:xlink="http://www.w3.org/1999/xlink">
<g id="graph0" class="graph" transform="scale(1 1) rotate(0) translate(4 107)">
<title>UnitDisplayStatusBarControl::createContextMenu</title>
<polygon fill="#ffffff" stroke="transparent" points="-4,4 -4,-107 508.6045,-107 508.6045,4 -4,4"/>
<!-- Node8 -->
<g id="node1" class="node">
<title>Node8</title>
<polygon fill="#bfbfbf" stroke="#000000" points="0,-42.5 0,-70.5 142.7188,-70.5 142.7188,-42.5 0,-42.5"/>
<text text-anchor="start" x="8" y="-58.5" font-family="Helvetica,sans-Serif" font-size="10.00" fill="#000000">UnitDisplayStatusBarControl</text>
<text text-anchor="middle" x="71.3594" y="-48.5" font-family="Helvetica,sans-Serif" font-size="10.00" fill="#000000">::createContextMenu</text>
</g>
<!-- Node9 -->
<g id="node2" class="node">
<title>Node9</title>
<g id="a_node2"><a xlink:href="class_bitcoin_units.html#acb8409daeca006436380f69b4ad4903a" target="_top" xlink:title="Get list of units, for drop&#45;down box. ">
<polygon fill="#ffffff" stroke="#000000" points="181.7729,-84.5 181.7729,-102.5 318.3833,-102.5 318.3833,-84.5 181.7729,-84.5"/>
<text text-anchor="middle" x="250.0781" y="-90.5" font-family="Helvetica,sans-Serif" font-size="10.00" fill="#000000">BitcoinUnits::availableUnits</text>
</a>
</g>
</g>
<!-- Node8&#45;&gt;Node9 -->
<g id="edge1" class="edge">
<title>Node8&#45;&gt;Node9</title>
<path fill="none" stroke="#191970" d="M139.1801,-70.5409C158.0885,-74.4555 178.3651,-78.6533 196.3417,-82.375"/>
<polygon fill="#191970" stroke="#191970" points="195.8477,-85.8469 206.3497,-84.4469 197.2669,-78.9922 195.8477,-85.8469"/>
</g>
<!-- Node10 -->
<g id="node3" class="node">
<title>Node10</title>
<g id="a_node3"><a xlink:href="class_bitcoin_units.html#a97f983970ff33cae20996ba26ab257cd" target="_top" xlink:title="Long name. ">
<polygon fill="#ffffff" stroke="#000000" points="190.1104,-47.5 190.1104,-65.5 310.0459,-65.5 310.0459,-47.5 190.1104,-47.5"/>
<text text-anchor="middle" x="250.0781" y="-53.5" font-family="Helvetica,sans-Serif" font-size="10.00" fill="#000000">BitcoinUnits::longName</text>
</a>
</g>
</g>
<!-- Node8&#45;&gt;Node10 -->
<g id="edge2" class="edge">
<title>Node8&#45;&gt;Node10</title>
<path fill="none" stroke="#191970" d="M142.7642,-56.5C154.9936,-56.5 167.6908,-56.5 179.888,-56.5"/>
<polygon fill="#191970" stroke="#191970" points="179.9949,-60.0001 189.9949,-56.5 179.9948,-53.0001 179.9949,-60.0001"/>
</g>
<!-- Node11 -->
<g id="node4" class="node">
<title>Node11</title>
<g id="a_node4"><a xlink:href="class_unit_display_status_bar_control.html#a8989bed2d30e0e376046356adc216a12" target="_top" xlink:title="Tells underlying optionsModel to update its current display unit. ">
<polygon fill="#ffffff" stroke="#000000" points="178.7188,-.5 178.7188,-28.5 321.4375,-28.5 321.4375,-.5 178.7188,-.5"/>
<text text-anchor="start" x="186.7188" y="-16.5" font-family="Helvetica,sans-Serif" font-size="10.00" fill="#000000">UnitDisplayStatusBarControl</text>
<text text-anchor="middle" x="250.0781" y="-6.5" font-family="Helvetica,sans-Serif" font-size="10.00" fill="#000000">::onMenuSelection</text>
</a>
</g>
</g>
<!-- Node8&#45;&gt;Node11 -->
<g id="edge3" class="edge">
<title>Node8&#45;&gt;Node11</title>
<path fill="none" stroke="#191970" d="M131.3673,-42.3978C147.0709,-38.7073 164.135,-34.6972 180.3,-30.8983"/>
<polygon fill="#191970" stroke="#191970" points="181.2945,-34.26 190.2286,-28.565 179.693,-27.4456 181.2945,-34.26"/>
</g>
<!-- Node12 -->
<g id="node5" class="node">
<title>Node12</title>
<g id="a_node5"><a xlink:href="class_options_model.html#a42efacc748130848acc20247a7ed4617" target="_top" xlink:title="Updates current unit in memory, settings and emits displayUnitChanged(newUnit) signal. ">
<polygon fill="#ffffff" stroke="#000000" points="357.4375,-5.5 357.4375,-23.5 504.6045,-23.5 504.6045,-5.5 357.4375,-5.5"/>
<text text-anchor="middle" x="431.021" y="-11.5" font-family="Helvetica,sans-Serif" font-size="10.00" fill="#000000">OptionsModel::setDisplayUnit</text>
</a>
</g>
</g>
<!-- Node11&#45;&gt;Node12 -->
<g id="edge4" class="edge">
<title>Node11&#45;&gt;Node12</title>
<path fill="none" stroke="#191970" d="M321.5915,-14.5C330.0405,-14.5 338.7205,-14.5 347.3184,-14.5"/>
<polygon fill="#191970" stroke="#191970" points="347.3553,-18.0001 357.3553,-14.5 347.3553,-11.0001 347.3553,-18.0001"/>
</g>
</g>
</svg>
