<?xml version="1.0" encoding="UTF-8" standalone="no"?>
<!DOCTYPE svg PUBLIC "-//W3C//DTD SVG 1.1//EN"
 "http://www.w3.org/Graphics/SVG/1.1/DTD/svg11.dtd">
<!-- Generated by graphviz version 2.40.1 (20161225.0304)
 -->
<!-- Title: ClientModel::dataDir Pages: 1 -->
<svg width="294pt" height="64pt"
 viewBox="0.00 0.00 293.87 64.00" xmlns="http://www.w3.org/2000/svg" xmlns:xlink="http://www.w3.org/1999/xlink">
<g id="graph0" class="graph" transform="scale(1 1) rotate(0) translate(4 60)">
<title>ClientModel::dataDir</title>
<polygon fill="#ffffff" stroke="transparent" points="-4,4 -4,-60 289.8711,-60 289.8711,4 -4,4"/>
<!-- Node36 -->
<g id="node1" class="node">
<title>Node36</title>
<polygon fill="#bfbfbf" stroke="#000000" points="0,-18.5 0,-36.5 106.5957,-36.5 106.5957,-18.5 0,-18.5"/>
<text text-anchor="middle" x="53.2979" y="-24.5" font-family="Helvetica,sans-Serif" font-size="10.00" fill="#000000">ClientModel::dataDir</text>
</g>
<!-- Node37 -->
<g id="node2" class="node">
<title>Node37</title>
<g id="a_node2"><a xlink:href="namespace_g_u_i_util.html#a82887fd3dd003600d4e30dc07ee866d2" target="_top" xlink:title="GUIUtil::boostPathToQString">
<polygon fill="#ffffff" stroke="#000000" points="142.5957,-37.5 142.5957,-55.5 285.8711,-55.5 285.8711,-37.5 142.5957,-37.5"/>
<text text-anchor="middle" x="214.2334" y="-43.5" font-family="Helvetica,sans-Serif" font-size="10.00" fill="#000000">GUIUtil::boostPathToQString</text>
</a>
</g>
</g>
<!-- Node36&#45;&gt;Node37 -->
<g id="edge1" class="edge">
<title>Node36&#45;&gt;Node37</title>
<path fill="none" stroke="#191970" d="M106.8871,-33.8267C115.1022,-34.7966 123.7396,-35.8163 132.3981,-36.8386"/>
<polygon fill="#191970" stroke="#191970" points="132.2067,-40.3402 142.5481,-38.0369 133.0275,-33.3885 132.2067,-40.3402"/>
</g>
<!-- Node38 -->
<g id="node3" class="node">
<title>Node38</title>
<g id="a_node3"><a xlink:href="util_8cpp.html#a7ebe0bd091f7334aaead43904601e008" target="_top" xlink:title="GetDataDir">
<polygon fill="#ffffff" stroke="#000000" points="181.2261,-.5 181.2261,-18.5 247.2407,-18.5 247.2407,-.5 181.2261,-.5"/>
<text text-anchor="middle" x="214.2334" y="-6.5" font-family="Helvetica,sans-Serif" font-size="10.00" fill="#000000">GetDataDir</text>
</a>
</g>
</g>
<!-- Node36&#45;&gt;Node38 -->
<g id="edge2" class="edge">
<title>Node36&#45;&gt;Node38</title>
<path fill="none" stroke="#191970" d="M106.8871,-21.5063C127.7549,-19.1723 151.3475,-16.5335 171.0897,-14.3255"/>
<polygon fill="#191970" stroke="#191970" points="171.4788,-17.8039 181.0277,-13.2139 170.7006,-10.8472 171.4788,-17.8039"/>
</g>
</g>
</svg>
