<?xml version="1.0" encoding="UTF-8" standalone="no"?>
<!DOCTYPE svg PUBLIC "-//W3C//DTD SVG 1.1//EN"
 "http://www.w3.org/Graphics/SVG/1.1/DTD/svg11.dtd">
<!-- Generated by graphviz version 2.40.1 (20161225.0304)
 -->
<!-- Title: SendCoinsEntry::useAvailableBalanceClicked Pages: 1 -->
<svg width="337pt" height="37pt"
 viewBox="0.00 0.00 337.08 37.00" xmlns="http://www.w3.org/2000/svg" xmlns:xlink="http://www.w3.org/1999/xlink">
<g id="graph0" class="graph" transform="scale(1 1) rotate(0) translate(4 33)">
<title>SendCoinsEntry::useAvailableBalanceClicked</title>
<polygon fill="#ffffff" stroke="transparent" points="-4,4 -4,-33 333.084,-33 333.084,4 -4,4"/>
<!-- Node276 -->
<g id="node1" class="node">
<title>Node276</title>
<polygon fill="#bfbfbf" stroke="#000000" points="0,-.5 0,-28.5 150.3457,-28.5 150.3457,-.5 0,-.5"/>
<text text-anchor="start" x="8" y="-16.5" font-family="Helvetica,sans-Serif" font-size="10.00" fill="#000000">SendCoinsEntry::useAvailable</text>
<text text-anchor="middle" x="75.1729" y="-6.5" font-family="Helvetica,sans-Serif" font-size="10.00" fill="#000000">BalanceClicked</text>
</g>
<!-- Node277 -->
<g id="node2" class="node">
<title>Node277</title>
<g id="a_node2"><a xlink:href="class_send_coins_entry.html#a6eae20cd564011773931fc724f4d787c" target="_top" xlink:title="SendCoinsEntry::SendCoins\lEntry">
<polygon fill="#ffffff" stroke="#000000" points="186.3457,-.5 186.3457,-28.5 329.084,-28.5 329.084,-.5 186.3457,-.5"/>
<text text-anchor="start" x="194.3457" y="-16.5" font-family="Helvetica,sans-Serif" font-size="10.00" fill="#000000">SendCoinsEntry::SendCoins</text>
<text text-anchor="middle" x="257.7148" y="-6.5" font-family="Helvetica,sans-Serif" font-size="10.00" fill="#000000">Entry</text>
</a>
</g>
</g>
<!-- Node276&#45;&gt;Node277 -->
<g id="edge1" class="edge">
<title>Node276&#45;&gt;Node277</title>
<path fill="none" stroke="#191970" d="M160.4861,-14.5C169.0583,-14.5 177.7009,-14.5 186.1097,-14.5"/>
<polygon fill="#191970" stroke="#191970" points="160.4736,-11.0001 150.4736,-14.5 160.4735,-18.0001 160.4736,-11.0001"/>
</g>
</g>
</svg>
