<?xml version="1.0" encoding="UTF-8" standalone="no"?>
<!DOCTYPE svg PUBLIC "-//W3C//DTD SVG 1.1//EN"
 "http://www.w3.org/Graphics/SVG/1.1/DTD/svg11.dtd">
<!-- Generated by graphviz version 2.40.1 (20161225.0304)
 -->
<!-- Title: CReserveKey Pages: 1 -->
<svg width="1078pt" height="315pt"
 viewBox="0.00 0.00 1078.06 315.38" xmlns="http://www.w3.org/2000/svg" xmlns:xlink="http://www.w3.org/1999/xlink">
<g id="graph0" class="graph" transform="scale(1 1) rotate(0) translate(4 311.3769)">
<title>CReserveKey</title>
<polygon fill="#ffffff" stroke="transparent" points="-4,4 -4,-311.3769 1074.0566,-311.3769 1074.0566,4 -4,4"/>
<!-- Node2 -->
<g id="node1" class="node">
<title>Node2</title>
<polygon fill="#bfbfbf" stroke="#000000" points="992.3672,-198.8769 992.3672,-216.8769 1070.0566,-216.8769 1070.0566,-198.8769 992.3672,-198.8769"/>
<text text-anchor="middle" x="1031.2119" y="-204.8769" font-family="Helvetica,sans-Serif" font-size="10.00" fill="#000000">CReserveKey</text>
</g>
<!-- Node3 -->
<g id="node2" class="node">
<title>Node3</title>
<g id="a_node2"><a xlink:href="class_c_reserve_script.html" target="_top" xlink:title="CReserveScript">
<polygon fill="#ffffff" stroke="#000000" points="816.9834,-240.8769 816.9834,-258.8769 903.0029,-258.8769 903.0029,-240.8769 816.9834,-240.8769"/>
<text text-anchor="middle" x="859.9932" y="-246.8769" font-family="Helvetica,sans-Serif" font-size="10.00" fill="#000000">CReserveScript</text>
</a>
</g>
</g>
<!-- Node3&#45;&gt;Node2 -->
<g id="edge1" class="edge">
<title>Node3&#45;&gt;Node2</title>
<path fill="none" stroke="#191970" d="M906.6581,-238.4684C927.3948,-233.3947 952.1021,-227.3441 974.3672,-221.8769 980.8818,-220.2773 987.8156,-218.5719 994.5194,-216.9217"/>
<polygon fill="#191970" stroke="#191970" points="905.7071,-235.0978 896.8253,-240.8738 907.3706,-241.8973 905.7071,-235.0978"/>
</g>
<!-- Node4 -->
<g id="node3" class="node">
<title>Node4</title>
<g id="a_node3"><a xlink:href="class_c_script.html" target="_top" xlink:title="Serialized script, used inside transaction inputs and outputs. ">
<polygon fill="#ffffff" stroke="#000000" points="591.0967,-271.8769 591.0967,-289.8769 639.8799,-289.8769 639.8799,-271.8769 591.0967,-271.8769"/>
<text text-anchor="middle" x="615.4883" y="-277.8769" font-family="Helvetica,sans-Serif" font-size="10.00" fill="#000000">CScript</text>
</a>
</g>
</g>
<!-- Node4&#45;&gt;Node3 -->
<g id="edge2" class="edge">
<title>Node4&#45;&gt;Node3</title>
<path fill="none" stroke="#9a32cd" stroke-dasharray="5,2" d="M650.4423,-276.4452C694.2433,-270.8919 769.3001,-261.3756 816.6931,-255.3668"/>
<polygon fill="#9a32cd" stroke="#9a32cd" points="649.7586,-273.0038 640.2783,-277.7339 650.6391,-279.9482 649.7586,-273.0038"/>
<text text-anchor="middle" x="742.5649" y="-272.8769" font-family="Helvetica,sans-Serif" font-size="10.00" fill="#000000"> reserveScript</text>
</g>
<!-- Node5 -->
<g id="node4" class="node">
<title>Node5</title>
<g id="a_node4"><a xlink:href="classprevector.html" target="_top" xlink:title="Implements a drop&#45;in replacement for std::vector&lt;T&gt; which stores up to N elements directly (without h...">
<polygon fill="#ffffff" stroke="#000000" points="373.8257,-280.8769 373.8257,-298.8769 445.4019,-298.8769 445.4019,-280.8769 373.8257,-280.8769"/>
<text text-anchor="middle" x="409.6138" y="-286.8769" font-family="Helvetica,sans-Serif" font-size="10.00" fill="#000000">CScriptBase</text>
</a>
</g>
</g>
<!-- Node5&#45;&gt;Node4 -->
<g id="edge3" class="edge">
<title>Node5&#45;&gt;Node4</title>
<path fill="none" stroke="#191970" d="M455.6976,-287.8623C497.5666,-286.032 557.7194,-283.4024 590.9997,-281.9475"/>
<polygon fill="#191970" stroke="#191970" points="455.3119,-284.3758 445.4744,-288.3093 455.6177,-291.3691 455.3119,-284.3758"/>
</g>
<!-- Node6 -->
<g id="node5" class="node">
<title>Node6</title>
<g id="a_node5"><a xlink:href="unionprevector_1_1direct__or__indirect.html" target="_top" xlink:title="prevector\&lt; N, T, Size,\l Diff \&gt;::direct_or_indirect">
<polygon fill="#ffffff" stroke="#000000" points="145.2559,-278.8769 145.2559,-306.8769 269.7373,-306.8769 269.7373,-278.8769 145.2559,-278.8769"/>
<text text-anchor="start" x="153.2559" y="-294.8769" font-family="Helvetica,sans-Serif" font-size="10.00" fill="#000000">prevector&lt; N, T, Size,</text>
<text text-anchor="middle" x="207.4966" y="-284.8769" font-family="Helvetica,sans-Serif" font-size="10.00" fill="#000000"> Diff &gt;::direct_or_indirect</text>
</a>
</g>
</g>
<!-- Node6&#45;&gt;Node5 -->
<g id="edge4" class="edge">
<title>Node6&#45;&gt;Node5</title>
<path fill="none" stroke="#9a32cd" stroke-dasharray="5,2" d="M279.9589,-291.8014C311.7877,-291.329 347.7407,-290.7953 373.6994,-290.41"/>
<polygon fill="#9a32cd" stroke="#9a32cd" points="279.7345,-288.3042 269.7876,-291.9524 279.8385,-295.3035 279.7345,-288.3042"/>
<text text-anchor="middle" x="317.4736" y="-292.8769" font-family="Helvetica,sans-Serif" font-size="10.00" fill="#000000"> _union</text>
</g>
<!-- Node7 -->
<g id="node6" class="node">
<title>Node7</title>
<g id="a_node6"><a xlink:href="class_c_pub_key.html" target="_top" xlink:title="An encapsulated public key. ">
<polygon fill="#ffffff" stroke="#000000" points="830.8701,-198.8769 830.8701,-216.8769 889.1162,-216.8769 889.1162,-198.8769 830.8701,-198.8769"/>
<text text-anchor="middle" x="859.9932" y="-204.8769" font-family="Helvetica,sans-Serif" font-size="10.00" fill="#000000">CPubKey</text>
</a>
</g>
</g>
<!-- Node7&#45;&gt;Node2 -->
<g id="edge5" class="edge">
<title>Node7&#45;&gt;Node2</title>
<path fill="none" stroke="#9a32cd" stroke-dasharray="5,2" d="M899.6069,-207.8769C927.4496,-207.8769 964.5243,-207.8769 992.2267,-207.8769"/>
<polygon fill="#9a32cd" stroke="#9a32cd" points="899.4268,-204.377 889.4267,-207.8769 899.4267,-211.377 899.4268,-204.377"/>
<text text-anchor="middle" x="947.6851" y="-209.8769" font-family="Helvetica,sans-Serif" font-size="10.00" fill="#000000"> vchPubKey</text>
</g>
<!-- Node8 -->
<g id="node7" class="node">
<title>Node8</title>
<g id="a_node7"><a xlink:href="class_c_wallet.html" target="_top" xlink:title="A CWallet is an extension of a keystore, which also maintains a set of transactions and balances...">
<polygon fill="#ffffff" stroke="#000000" points="834.6738,-150.8769 834.6738,-168.8769 885.3125,-168.8769 885.3125,-150.8769 834.6738,-150.8769"/>
<text text-anchor="middle" x="859.9932" y="-156.8769" font-family="Helvetica,sans-Serif" font-size="10.00" fill="#000000">CWallet</text>
</a>
</g>
</g>
<!-- Node8&#45;&gt;Node2 -->
<g id="edge6" class="edge">
<title>Node8&#45;&gt;Node2</title>
<path fill="none" stroke="#9a32cd" stroke-dasharray="5,2" d="M895.4168,-169.8077C925.8838,-178.3489 969.459,-190.5649 998.9661,-198.8371"/>
<polygon fill="#9a32cd" stroke="#9a32cd" points="896.1999,-166.3924 885.6263,-167.063 894.3103,-173.1325 896.1999,-166.3924"/>
<text text-anchor="middle" x="947.6851" y="-192.8769" font-family="Helvetica,sans-Serif" font-size="10.00" fill="#000000"> pwallet</text>
</g>
<!-- Node9 -->
<g id="node8" class="node">
<title>Node9</title>
<g id="a_node8"><a xlink:href="class_c_crypto_key_store.html" target="_top" xlink:title="Keystore which keeps the private keys encrypted. ">
<polygon fill="#ffffff" stroke="#000000" points="568.5845,-226.8769 568.5845,-244.8769 662.3921,-244.8769 662.3921,-226.8769 568.5845,-226.8769"/>
<text text-anchor="middle" x="615.4883" y="-232.8769" font-family="Helvetica,sans-Serif" font-size="10.00" fill="#000000">CCryptoKeyStore</text>
</a>
</g>
</g>
<!-- Node9&#45;&gt;Node8 -->
<g id="edge7" class="edge">
<title>Node9&#45;&gt;Node8</title>
<path fill="none" stroke="#191970" d="M672.9295,-239.0058C710.9228,-238.6124 760.6144,-233.2163 798.9834,-211.8769 810.0242,-205.7365 807.7144,-198.4612 816.9834,-189.8769 825.5331,-181.9588 836.2856,-174.4588 844.9006,-168.9384"/>
<polygon fill="#191970" stroke="#191970" points="672.547,-235.5054 662.5427,-238.9932 672.5385,-242.5054 672.547,-235.5054"/>
</g>
<!-- Node10 -->
<g id="node9" class="node">
<title>Node10</title>
<g id="a_node9"><a xlink:href="class_c_basic_key_store.html" target="_top" xlink:title="Basic key store, that keeps keys in an address&#45;&gt;secret map. ">
<polygon fill="#ffffff" stroke="#000000" points="365.21,-226.8769 365.21,-244.8769 454.0176,-244.8769 454.0176,-226.8769 365.21,-226.8769"/>
<text text-anchor="middle" x="409.6138" y="-232.8769" font-family="Helvetica,sans-Serif" font-size="10.00" fill="#000000">CBasicKeyStore</text>
</a>
</g>
</g>
<!-- Node10&#45;&gt;Node9 -->
<g id="edge8" class="edge">
<title>Node10&#45;&gt;Node9</title>
<path fill="none" stroke="#191970" d="M464.2373,-235.8769C496.6332,-235.8769 537.2863,-235.8769 568.2853,-235.8769"/>
<polygon fill="#191970" stroke="#191970" points="464.032,-232.377 454.032,-235.8769 464.032,-239.377 464.032,-232.377"/>
</g>
<!-- Node11 -->
<g id="node10" class="node">
<title>Node11</title>
<g id="a_node10"><a xlink:href="class_c_key_store.html" target="_top" xlink:title="A virtual base class for key stores. ">
<polygon fill="#ffffff" stroke="#000000" points="175.3193,-241.8769 175.3193,-259.8769 239.6738,-259.8769 239.6738,-241.8769 175.3193,-241.8769"/>
<text text-anchor="middle" x="207.4966" y="-247.8769" font-family="Helvetica,sans-Serif" font-size="10.00" fill="#000000">CKeyStore</text>
</a>
</g>
</g>
<!-- Node11&#45;&gt;Node10 -->
<g id="edge9" class="edge">
<title>Node11&#45;&gt;Node10</title>
<path fill="none" stroke="#191970" d="M249.8421,-248.4972C277.5577,-246.8538 314.555,-244.4979 347.21,-241.8769 352.96,-241.4154 359.0039,-240.8878 364.9735,-240.3413"/>
<polygon fill="#191970" stroke="#191970" points="249.4809,-245.0123 239.7027,-249.0912 249.8904,-252.0003 249.4809,-245.0123"/>
</g>
<!-- Node12 -->
<g id="node11" class="node">
<title>Node12</title>
<g id="a_node11"><a xlink:href="class_signing_provider.html" target="_top" xlink:title="An interface to be implemented by keystores that support signing. ">
<polygon fill="#ffffff" stroke="#000000" points="10.8301,-241.8769 10.8301,-259.8769 97.4258,-259.8769 97.4258,-241.8769 10.8301,-241.8769"/>
<text text-anchor="middle" x="54.1279" y="-247.8769" font-family="Helvetica,sans-Serif" font-size="10.00" fill="#000000">SigningProvider</text>
</a>
</g>
</g>
<!-- Node12&#45;&gt;Node11 -->
<g id="edge10" class="edge">
<title>Node12&#45;&gt;Node11</title>
<path fill="none" stroke="#191970" d="M107.7437,-250.8769C130.1888,-250.8769 155.5412,-250.8769 175.0706,-250.8769"/>
<polygon fill="#191970" stroke="#191970" points="107.667,-247.377 97.667,-250.8769 107.667,-254.377 107.667,-247.377"/>
</g>
<!-- Node13 -->
<g id="node12" class="node">
<title>Node13</title>
<g id="a_node12"><a xlink:href="class_annotated_mixin.html" target="_top" xlink:title="AnnotatedMixin\&lt; std\l::recursive_mutex \&gt;">
<polygon fill="#ffffff" stroke="#000000" points="154.0522,-188.8769 154.0522,-216.8769 260.9409,-216.8769 260.9409,-188.8769 154.0522,-188.8769"/>
<text text-anchor="start" x="162.0522" y="-204.8769" font-family="Helvetica,sans-Serif" font-size="10.00" fill="#000000">AnnotatedMixin&lt; std</text>
<text text-anchor="middle" x="207.4966" y="-194.8769" font-family="Helvetica,sans-Serif" font-size="10.00" fill="#000000">::recursive_mutex &gt;</text>
</a>
</g>
</g>
<!-- Node13&#45;&gt;Node8 -->
<g id="edge25" class="edge">
<title>Node13&#45;&gt;Node8</title>
<path fill="none" stroke="#9a32cd" stroke-dasharray="5,2" d="M271.3674,-203.426C380.1968,-203.5412 608.3188,-200.2167 798.9834,-173.8769 810.8249,-172.2411 823.7545,-169.4262 834.6507,-166.7475"/>
<polygon fill="#9a32cd" stroke="#9a32cd" points="271.2205,-199.9258 261.2132,-203.4048 271.2058,-206.9258 271.2205,-199.9258"/>
<text text-anchor="middle" x="508.4238" y="-200.8769" font-family="Helvetica,sans-Serif" font-size="10.00" fill="#000000"> cs_wallet</text>
</g>
<!-- Node13&#45;&gt;Node10 -->
<g id="edge11" class="edge">
<title>Node13&#45;&gt;Node10</title>
<path fill="none" stroke="#9a32cd" stroke-dasharray="5,2" d="M271.2407,-213.2846C301.708,-218.259 337.4393,-224.0929 364.9601,-228.5863"/>
<polygon fill="#9a32cd" stroke="#9a32cd" points="271.563,-209.7909 261.1296,-211.6337 270.4349,-216.6994 271.563,-209.7909"/>
<text text-anchor="middle" x="317.4736" y="-226.8769" font-family="Helvetica,sans-Serif" font-size="10.00" fill="#000000"> cs_KeyStore</text>
</g>
<!-- Node14 -->
<g id="node13" class="node">
<title>Node14</title>
<polygon fill="#ffffff" stroke="#bfbfbf" points="0,-193.8769 0,-211.8769 108.2559,-211.8769 108.2559,-193.8769 0,-193.8769"/>
<text text-anchor="middle" x="54.1279" y="-199.8769" font-family="Helvetica,sans-Serif" font-size="10.00" fill="#000000">std::recursive_mutex</text>
</g>
<!-- Node14&#45;&gt;Node13 -->
<g id="edge12" class="edge">
<title>Node14&#45;&gt;Node13</title>
<path fill="none" stroke="#191970" d="M118.7942,-202.8769C130.5029,-202.8769 142.5948,-202.8769 153.9415,-202.8769"/>
<polygon fill="#191970" stroke="#191970" points="118.6319,-199.377 108.6318,-202.8769 118.6318,-206.377 118.6319,-199.377"/>
</g>
<!-- Node15 -->
<g id="node14" class="node">
<title>Node15</title>
<g id="a_node14"><a xlink:href="class_c_validation_interface.html" target="_top" xlink:title="Implement this to subscribe to events generated in validation. ">
<polygon fill="#ffffff" stroke="#000000" points="562.8301,-150.8769 562.8301,-168.8769 668.1465,-168.8769 668.1465,-150.8769 562.8301,-150.8769"/>
<text text-anchor="middle" x="615.4883" y="-156.8769" font-family="Helvetica,sans-Serif" font-size="10.00" fill="#000000">CValidationInterface</text>
</a>
</g>
</g>
<!-- Node15&#45;&gt;Node8 -->
<g id="edge13" class="edge">
<title>Node15&#45;&gt;Node8</title>
<path fill="none" stroke="#191970" d="M678.4655,-159.8769C729.2546,-159.8769 798.0511,-159.8769 834.6432,-159.8769"/>
<polygon fill="#191970" stroke="#191970" points="678.2412,-156.377 668.2412,-159.8769 678.2411,-163.377 678.2412,-156.377"/>
</g>
<!-- Node16 -->
<g id="node15" class="node">
<title>Node16</title>
<g id="a_node15"><a xlink:href="class_c_block_index.html" target="_top" xlink:title="The block chain is a tree shaped structure starting with the genesis block at the root...">
<polygon fill="#ffffff" stroke="#000000" points="579.4194,-75.8769 579.4194,-93.8769 651.5571,-93.8769 651.5571,-75.8769 579.4194,-75.8769"/>
<text text-anchor="middle" x="615.4883" y="-81.8769" font-family="Helvetica,sans-Serif" font-size="10.00" fill="#000000">CBlockIndex</text>
</a>
</g>
</g>
<!-- Node16&#45;&gt;Node8 -->
<g id="edge14" class="edge">
<title>Node16&#45;&gt;Node8</title>
<path fill="none" stroke="#9a32cd" stroke-dasharray="5,2" d="M654.5824,-96.8688C705.1081,-112.3671 791.6604,-138.9164 834.4731,-152.0489"/>
<polygon fill="#9a32cd" stroke="#9a32cd" points="655.568,-93.5102 644.9813,-93.9237 653.5152,-100.2025 655.568,-93.5102"/>
<text text-anchor="middle" x="742.5649" y="-140.8769" font-family="Helvetica,sans-Serif" font-size="10.00" fill="#000000"> m_last_block_processed</text>
</g>
<!-- Node16&#45;&gt;Node16 -->
<g id="edge15" class="edge">
<title>Node16&#45;&gt;Node16</title>
<path fill="none" stroke="#9a32cd" stroke-dasharray="5,2" d="M595.7082,-103.2344C596.5604,-108.4051 603.1537,-112.3769 615.4883,-112.3769 634.7422,-112.3769 640.0069,-102.6989 631.2825,-93.8904"/>
<polygon fill="#9a32cd" stroke="#9a32cd" points="598.9897,-104.4618 599.6941,-93.8904 592.551,-101.7152 598.9897,-104.4618"/>
<text text-anchor="middle" x="615.4883" y="-124.3769" font-family="Helvetica,sans-Serif" font-size="10.00" fill="#000000"> pskip</text>
<text text-anchor="middle" x="615.4883" y="-114.3769" font-family="Helvetica,sans-Serif" font-size="10.00" fill="#000000">pprev</text>
</g>
<!-- Node17 -->
<g id="node16" class="node">
<title>Node17</title>
<g id="a_node16"><a xlink:href="classuint256.html" target="_top" xlink:title="256&#45;bit opaque blob. ">
<polygon fill="#ffffff" stroke="#000000" points="385.21,-94.8769 385.21,-112.8769 434.0176,-112.8769 434.0176,-94.8769 385.21,-94.8769"/>
<text text-anchor="middle" x="409.6138" y="-100.8769" font-family="Helvetica,sans-Serif" font-size="10.00" fill="#000000">uint256</text>
</a>
</g>
</g>
<!-- Node17&#45;&gt;Node16 -->
<g id="edge16" class="edge">
<title>Node17&#45;&gt;Node16</title>
<path fill="none" stroke="#9a32cd" stroke-dasharray="5,2" d="M444.4644,-100.6606C481.9685,-97.1994 541.3361,-91.7204 579.3368,-88.2133"/>
<polygon fill="#9a32cd" stroke="#9a32cd" points="443.6747,-97.2185 434.0387,-101.6228 444.3181,-104.1889 443.6747,-97.2185"/>
<text text-anchor="middle" x="508.4238" y="-108.8769" font-family="Helvetica,sans-Serif" font-size="10.00" fill="#000000"> phashBlock</text>
<text text-anchor="middle" x="508.4238" y="-98.8769" font-family="Helvetica,sans-Serif" font-size="10.00" fill="#000000">hashMerkleRoot</text>
</g>
<!-- Node18 -->
<g id="node17" class="node">
<title>Node18</title>
<g id="a_node17"><a xlink:href="classbase__blob.html" target="_top" xlink:title="base_blob\&lt; 256 \&gt;">
<polygon fill="#ffffff" stroke="#000000" points="159.46,-94.8769 159.46,-112.8769 255.5332,-112.8769 255.5332,-94.8769 159.46,-94.8769"/>
<text text-anchor="middle" x="207.4966" y="-100.8769" font-family="Helvetica,sans-Serif" font-size="10.00" fill="#000000">base_blob&lt; 256 &gt;</text>
</a>
</g>
</g>
<!-- Node18&#45;&gt;Node17 -->
<g id="edge17" class="edge">
<title>Node18&#45;&gt;Node17</title>
<path fill="none" stroke="#191970" d="M265.728,-103.8769C305.3292,-103.8769 355.6959,-103.8769 385.1264,-103.8769"/>
<polygon fill="#191970" stroke="#191970" points="265.6519,-100.377 255.6519,-103.8769 265.6519,-107.377 265.6519,-100.377"/>
</g>
<!-- Node19 -->
<g id="node18" class="node">
<title>Node19</title>
<g id="a_node18"><a xlink:href="classarith__uint256.html" target="_top" xlink:title="256&#45;bit unsigned big integer. ">
<polygon fill="#ffffff" stroke="#000000" points="372.7026,-57.8769 372.7026,-75.8769 446.5249,-75.8769 446.5249,-57.8769 372.7026,-57.8769"/>
<text text-anchor="middle" x="409.6138" y="-63.8769" font-family="Helvetica,sans-Serif" font-size="10.00" fill="#000000">arith_uint256</text>
</a>
</g>
</g>
<!-- Node19&#45;&gt;Node16 -->
<g id="edge18" class="edge">
<title>Node19&#45;&gt;Node16</title>
<path fill="none" stroke="#9a32cd" stroke-dasharray="5,2" d="M457.0802,-66.3592C483.0718,-66.5583 515.8074,-67.5955 544.8301,-70.8769 556.1381,-72.1555 568.335,-74.2941 579.3601,-76.5197"/>
<polygon fill="#9a32cd" stroke="#9a32cd" points="456.7613,-62.8581 446.7484,-66.321 456.7353,-69.8581 456.7613,-62.8581"/>
<text text-anchor="middle" x="508.4238" y="-72.8769" font-family="Helvetica,sans-Serif" font-size="10.00" fill="#000000"> nChainWork</text>
</g>
<!-- Node20 -->
<g id="node19" class="node">
<title>Node20</title>
<g id="a_node19"><a xlink:href="classbase__uint.html" target="_top" xlink:title="base_uint\&lt; 256 \&gt;">
<polygon fill="#ffffff" stroke="#000000" points="160.8516,-57.8769 160.8516,-75.8769 254.1416,-75.8769 254.1416,-57.8769 160.8516,-57.8769"/>
<text text-anchor="middle" x="207.4966" y="-63.8769" font-family="Helvetica,sans-Serif" font-size="10.00" fill="#000000">base_uint&lt; 256 &gt;</text>
</a>
</g>
</g>
<!-- Node20&#45;&gt;Node19 -->
<g id="edge19" class="edge">
<title>Node20&#45;&gt;Node19</title>
<path fill="none" stroke="#191970" d="M264.7945,-66.8769C299.3201,-66.8769 342.2912,-66.8769 372.4247,-66.8769"/>
<polygon fill="#191970" stroke="#191970" points="264.3744,-63.377 254.3743,-66.8769 264.3743,-70.377 264.3744,-63.377"/>
</g>
<!-- Node21 -->
<g id="node20" class="node">
<title>Node21</title>
<g id="a_node20"><a xlink:href="class_c_fee_rate.html" target="_top" xlink:title="Fee rate in satoshis per kilobyte: CAmount / kB. ">
<polygon fill="#ffffff" stroke="#000000" points="584.7002,-38.8769 584.7002,-56.8769 646.2764,-56.8769 646.2764,-38.8769 584.7002,-38.8769"/>
<text text-anchor="middle" x="615.4883" y="-44.8769" font-family="Helvetica,sans-Serif" font-size="10.00" fill="#000000">CFeeRate</text>
</a>
</g>
</g>
<!-- Node21&#45;&gt;Node8 -->
<g id="edge20" class="edge">
<title>Node21&#45;&gt;Node8</title>
<path fill="none" stroke="#9a32cd" stroke-dasharray="5,2" d="M656.6728,-41.2611C696.1145,-37.1027 755.8399,-36.6944 798.9834,-62.8769 832.8283,-83.4165 850.9209,-130.637 857.2999,-150.6466"/>
<polygon fill="#9a32cd" stroke="#9a32cd" points="656.1317,-37.8006 646.6113,-42.4494 656.9528,-44.7523 656.1317,-37.8006"/>
<text text-anchor="middle" x="742.5649" y="-94.8769" font-family="Helvetica,sans-Serif" font-size="10.00" fill="#000000"> m_pay_tx_fee</text>
<text text-anchor="middle" x="742.5649" y="-84.8769" font-family="Helvetica,sans-Serif" font-size="10.00" fill="#000000">m_discard_rate</text>
<text text-anchor="middle" x="742.5649" y="-74.8769" font-family="Helvetica,sans-Serif" font-size="10.00" fill="#000000">m_fallback_fee</text>
<text text-anchor="middle" x="742.5649" y="-64.8769" font-family="Helvetica,sans-Serif" font-size="10.00" fill="#000000">m_min_fee</text>
</g>
<!-- Node22 -->
<g id="node21" class="node">
<title>Node22</title>
<g id="a_node21"><a xlink:href="class_c_h_d_chain.html" target="_top" xlink:title="CHDChain">
<polygon fill="#ffffff" stroke="#000000" points="583.5918,-1.8769 583.5918,-19.8769 647.3848,-19.8769 647.3848,-1.8769 583.5918,-1.8769"/>
<text text-anchor="middle" x="615.4883" y="-7.8769" font-family="Helvetica,sans-Serif" font-size="10.00" fill="#000000">CHDChain</text>
</a>
</g>
</g>
<!-- Node22&#45;&gt;Node8 -->
<g id="edge21" class="edge">
<title>Node22&#45;&gt;Node8</title>
<path fill="none" stroke="#9a32cd" stroke-dasharray="5,2" d="M657.5835,-3.0005C697.629,2.071 757.7249,3.1166 798.9834,-25.8769 842.4847,-56.4466 855.5724,-125.8015 858.9509,-150.7349"/>
<polygon fill="#9a32cd" stroke="#9a32cd" points="657.0243,.4554 647.6072,-4.3993 657.9964,-6.4768 657.0243,.4554"/>
<text text-anchor="middle" x="742.5649" y="-27.8769" font-family="Helvetica,sans-Serif" font-size="10.00" fill="#000000"> hdChain</text>
</g>
<!-- Node23 -->
<g id="node22" class="node">
<title>Node23</title>
<g id="a_node22"><a xlink:href="class_c_key_i_d.html" target="_top" xlink:title="A reference to a CKey: the Hash360 of its serialized public key. ">
<polygon fill="#ffffff" stroke="#000000" points="384.3872,-1.8769 384.3872,-19.8769 434.8403,-19.8769 434.8403,-1.8769 384.3872,-1.8769"/>
<text text-anchor="middle" x="409.6138" y="-7.8769" font-family="Helvetica,sans-Serif" font-size="10.00" fill="#000000">CKeyID</text>
</a>
</g>
</g>
<!-- Node23&#45;&gt;Node22 -->
<g id="edge22" class="edge">
<title>Node23&#45;&gt;Node22</title>
<path fill="none" stroke="#9a32cd" stroke-dasharray="5,2" d="M445.1756,-10.8769C484.0437,-10.8769 545.7673,-10.8769 583.2638,-10.8769"/>
<polygon fill="#9a32cd" stroke="#9a32cd" points="444.8581,-7.377 434.858,-10.8769 444.858,-14.377 444.8581,-7.377"/>
<text text-anchor="middle" x="508.4238" y="-12.8769" font-family="Helvetica,sans-Serif" font-size="10.00" fill="#000000"> seed_id</text>
</g>
<!-- Node24 -->
<g id="node23" class="node">
<title>Node24</title>
<g id="a_node23"><a xlink:href="classuint160.html" target="_top" xlink:title="160&#45;bit opaque blob. ">
<polygon fill="#ffffff" stroke="#000000" points="183.0928,-1.8769 183.0928,-19.8769 231.9004,-19.8769 231.9004,-1.8769 183.0928,-1.8769"/>
<text text-anchor="middle" x="207.4966" y="-7.8769" font-family="Helvetica,sans-Serif" font-size="10.00" fill="#000000">uint160</text>
</a>
</g>
</g>
<!-- Node24&#45;&gt;Node23 -->
<g id="edge23" class="edge">
<title>Node24&#45;&gt;Node23</title>
<path fill="none" stroke="#191970" d="M242.4811,-10.8769C282.925,-10.8769 348.5054,-10.8769 384.3095,-10.8769"/>
<polygon fill="#191970" stroke="#191970" points="242.2802,-7.377 232.2801,-10.8769 242.2801,-14.377 242.2802,-7.377"/>
</g>
<!-- Node25 -->
<g id="node24" class="node">
<title>Node25</title>
<g id="a_node24"><a xlink:href="classbase__blob.html" target="_top" xlink:title="base_blob\&lt; 160 \&gt;">
<polygon fill="#ffffff" stroke="#000000" points="6.0913,-1.8769 6.0913,-19.8769 102.1646,-19.8769 102.1646,-1.8769 6.0913,-1.8769"/>
<text text-anchor="middle" x="54.1279" y="-7.8769" font-family="Helvetica,sans-Serif" font-size="10.00" fill="#000000">base_blob&lt; 160 &gt;</text>
</a>
</g>
</g>
<!-- Node25&#45;&gt;Node24 -->
<g id="edge24" class="edge">
<title>Node25&#45;&gt;Node24</title>
<path fill="none" stroke="#191970" d="M112.4706,-10.8769C136.8022,-10.8769 163.7509,-10.8769 182.7168,-10.8769"/>
<polygon fill="#191970" stroke="#191970" points="112.234,-7.377 102.2339,-10.8769 112.2339,-14.377 112.234,-7.377"/>
</g>
</g>
</svg>
