<?xml version="1.0" encoding="UTF-8" standalone="no"?>
<!DOCTYPE svg PUBLIC "-//W3C//DTD SVG 1.1//EN"
 "http://www.w3.org/Graphics/SVG/1.1/DTD/svg11.dtd">
<!-- Generated by graphviz version 2.40.1 (20161225.0304)
 -->
<!-- Title: CSemaphoreGrant::CSemaphoreGrant Pages: 1 -->
<svg width="513pt" height="64pt"
 viewBox="0.00 0.00 512.80 64.00" xmlns="http://www.w3.org/2000/svg" xmlns:xlink="http://www.w3.org/1999/xlink">
<g id="graph0" class="graph" transform="scale(1 1) rotate(0) translate(4 60)">
<title>CSemaphoreGrant::CSemaphoreGrant</title>
<polygon fill="#ffffff" stroke="transparent" points="-4,4 -4,-60 508.8047,-60 508.8047,4 -4,4"/>
<!-- Node2 -->
<g id="node1" class="node">
<title>Node2</title>
<polygon fill="#bfbfbf" stroke="#000000" points="0,-13.5 0,-41.5 164.4082,-41.5 164.4082,-13.5 0,-13.5"/>
<text text-anchor="start" x="8" y="-29.5" font-family="Helvetica,sans-Serif" font-size="10.00" fill="#000000">CSemaphoreGrant::CSemaphore</text>
<text text-anchor="middle" x="82.2041" y="-19.5" font-family="Helvetica,sans-Serif" font-size="10.00" fill="#000000">Grant</text>
</g>
<!-- Node3 -->
<g id="node2" class="node">
<title>Node3</title>
<g id="a_node2"><a xlink:href="class_c_semaphore_grant.html#a9952d9ea087ced803c099f69992ebb1d" target="_top" xlink:title="CSemaphoreGrant::TryAcquire">
<polygon fill="#ffffff" stroke="#000000" points="200.4082,-37.5 200.4082,-55.5 353.874,-55.5 353.874,-37.5 200.4082,-37.5"/>
<text text-anchor="middle" x="277.1411" y="-43.5" font-family="Helvetica,sans-Serif" font-size="10.00" fill="#000000">CSemaphoreGrant::TryAcquire</text>
</a>
</g>
</g>
<!-- Node2&#45;&gt;Node3 -->
<g id="edge1" class="edge">
<title>Node2&#45;&gt;Node3</title>
<path fill="none" stroke="#191970" d="M164.5924,-35.5302C173.1067,-36.36 181.7782,-37.2052 190.3388,-38.0396"/>
<polygon fill="#191970" stroke="#191970" points="190.0285,-41.5259 200.3209,-39.0125 190.7077,-34.5589 190.0285,-41.5259"/>
</g>
<!-- Node5 -->
<g id="node4" class="node">
<title>Node5</title>
<g id="a_node4"><a xlink:href="class_c_semaphore_grant.html#ac52976968379ea8e2470cfba877c3e89" target="_top" xlink:title="CSemaphoreGrant::Acquire">
<polygon fill="#ffffff" stroke="#000000" points="207.4443,-.5 207.4443,-18.5 346.8379,-18.5 346.8379,-.5 207.4443,-.5"/>
<text text-anchor="middle" x="277.1411" y="-6.5" font-family="Helvetica,sans-Serif" font-size="10.00" fill="#000000">CSemaphoreGrant::Acquire</text>
</a>
</g>
</g>
<!-- Node2&#45;&gt;Node5 -->
<g id="edge3" class="edge">
<title>Node2&#45;&gt;Node5</title>
<path fill="none" stroke="#191970" d="M164.5924,-19.8925C175.3805,-18.8963 186.4213,-17.8768 197.1686,-16.8845"/>
<polygon fill="#191970" stroke="#191970" points="197.7292,-20.3477 207.3649,-15.943 197.0855,-13.3773 197.7292,-20.3477"/>
</g>
<!-- Node4 -->
<g id="node3" class="node">
<title>Node4</title>
<g id="a_node3"><a xlink:href="class_c_semaphore.html#abb8a07e6cac29dc72f044cd536a9f9e5" target="_top" xlink:title="CSemaphore::try_wait">
<polygon fill="#ffffff" stroke="#000000" points="389.874,-37.5 389.874,-55.5 504.8047,-55.5 504.8047,-37.5 389.874,-37.5"/>
<text text-anchor="middle" x="447.3394" y="-43.5" font-family="Helvetica,sans-Serif" font-size="10.00" fill="#000000">CSemaphore::try_wait</text>
</a>
</g>
</g>
<!-- Node3&#45;&gt;Node4 -->
<g id="edge2" class="edge">
<title>Node3&#45;&gt;Node4</title>
<path fill="none" stroke="#191970" d="M354.2726,-46.5C362.7766,-46.5 371.3877,-46.5 379.7621,-46.5"/>
<polygon fill="#191970" stroke="#191970" points="379.8367,-50.0001 389.8367,-46.5 379.8366,-43.0001 379.8367,-50.0001"/>
</g>
<!-- Node6 -->
<g id="node5" class="node">
<title>Node6</title>
<g id="a_node5"><a xlink:href="class_c_semaphore.html#a1c108bd981fe68527ec8ef5e7b0d116c" target="_top" xlink:title="CSemaphore::wait">
<polygon fill="#ffffff" stroke="#000000" points="398.209,-.5 398.209,-18.5 496.4697,-18.5 496.4697,-.5 398.209,-.5"/>
<text text-anchor="middle" x="447.3394" y="-6.5" font-family="Helvetica,sans-Serif" font-size="10.00" fill="#000000">CSemaphore::wait</text>
</a>
</g>
</g>
<!-- Node5&#45;&gt;Node6 -->
<g id="edge4" class="edge">
<title>Node5&#45;&gt;Node6</title>
<path fill="none" stroke="#191970" d="M346.8583,-9.5C360.4041,-9.5 374.4878,-9.5 387.6742,-9.5"/>
<polygon fill="#191970" stroke="#191970" points="388.0298,-13.0001 398.0297,-9.5 388.0297,-6.0001 388.0298,-13.0001"/>
</g>
</g>
</svg>
