<?xml version="1.0" encoding="UTF-8" standalone="no"?>
<!DOCTYPE svg PUBLIC "-//W3C//DTD SVG 1.1//EN"
 "http://www.w3.org/Graphics/SVG/1.1/DTD/svg11.dtd">
<!-- Generated by graphviz version 2.40.1 (20161225.0304)
 -->
<!-- Title: interfaces::Wallet::getCoins Pages: 1 -->
<svg width="1542pt" height="386pt"
 viewBox="0.00 0.00 1541.54 386.37" xmlns="http://www.w3.org/2000/svg" xmlns:xlink="http://www.w3.org/1999/xlink">
<g id="graph0" class="graph" transform="scale(1 1) rotate(0) translate(4 382.3702)">
<title>interfaces::Wallet::getCoins</title>
<polygon fill="#ffffff" stroke="transparent" points="-4,4 -4,-382.3702 1537.5381,-382.3702 1537.5381,4 -4,4"/>
<!-- Node103 -->
<g id="node1" class="node">
<title>Node103</title>
<polygon fill="#bfbfbf" stroke="#000000" points="0,-96.5 0,-124.5 92.3281,-124.5 92.3281,-96.5 0,-96.5"/>
<text text-anchor="start" x="8" y="-112.5" font-family="Helvetica,sans-Serif" font-size="10.00" fill="#000000">interfaces::Wallet</text>
<text text-anchor="middle" x="46.1641" y="-102.5" font-family="Helvetica,sans-Serif" font-size="10.00" fill="#000000">::getCoins</text>
</g>
<!-- Node104 -->
<g id="node2" class="node">
<title>Node104</title>
<g id="a_node2"><a xlink:href="class_coin_control_dialog.html#a4fc60e89b097952ff22dc0f9c58c87d9" target="_top" xlink:title="CoinControlDialog::\lupdateLabels">
<polygon fill="#ffffff" stroke="#000000" points="128.3281,-96.5 128.3281,-124.5 231.0371,-124.5 231.0371,-96.5 128.3281,-96.5"/>
<text text-anchor="start" x="136.3281" y="-112.5" font-family="Helvetica,sans-Serif" font-size="10.00" fill="#000000">CoinControlDialog::</text>
<text text-anchor="middle" x="179.6826" y="-102.5" font-family="Helvetica,sans-Serif" font-size="10.00" fill="#000000">updateLabels</text>
</a>
</g>
</g>
<!-- Node103&#45;&gt;Node104 -->
<g id="edge1" class="edge">
<title>Node103&#45;&gt;Node104</title>
<path fill="none" stroke="#191970" d="M102.601,-110.5C111.0136,-110.5 119.6504,-110.5 127.9593,-110.5"/>
<polygon fill="#191970" stroke="#191970" points="102.4877,-107.0001 92.4877,-110.5 102.4876,-114.0001 102.4877,-107.0001"/>
</g>
<!-- Node105 -->
<g id="node3" class="node">
<title>Node105</title>
<g id="a_node3"><a xlink:href="class_coin_control_dialog.html#a4c34a48574814089c54f763a22f5317a" target="_top" xlink:title="CoinControlDialog::\lsetModel">
<polygon fill="#ffffff" stroke="#000000" points="290.3867,-216.5 290.3867,-244.5 393.0957,-244.5 393.0957,-216.5 290.3867,-216.5"/>
<text text-anchor="start" x="298.3867" y="-232.5" font-family="Helvetica,sans-Serif" font-size="10.00" fill="#000000">CoinControlDialog::</text>
<text text-anchor="middle" x="341.7412" y="-222.5" font-family="Helvetica,sans-Serif" font-size="10.00" fill="#000000">setModel</text>
</a>
</g>
</g>
<!-- Node104&#45;&gt;Node105 -->
<g id="edge2" class="edge">
<title>Node104&#45;&gt;Node105</title>
<path fill="none" stroke="#191970" d="M206.8382,-130.6079C239.6577,-154.9099 294.037,-195.1763 322.7038,-216.4033"/>
<polygon fill="#191970" stroke="#191970" points="208.7094,-127.6385 198.59,-124.5004 204.5438,-133.2641 208.7094,-127.6385"/>
</g>
<!-- Node108 -->
<g id="node6" class="node">
<title>Node108</title>
<g id="a_node6"><a xlink:href="class_coin_control_dialog.html#ae106a71c5b87ac8bea8c52e7c4f4a129" target="_top" xlink:title="CoinControlDialog::\lbuttonSelectAllClicked">
<polygon fill="#ffffff" stroke="#000000" points="283.9927,-73.5 283.9927,-101.5 399.4897,-101.5 399.4897,-73.5 283.9927,-73.5"/>
<text text-anchor="start" x="291.9927" y="-89.5" font-family="Helvetica,sans-Serif" font-size="10.00" fill="#000000">CoinControlDialog::</text>
<text text-anchor="middle" x="341.7412" y="-79.5" font-family="Helvetica,sans-Serif" font-size="10.00" fill="#000000">buttonSelectAllClicked</text>
</a>
</g>
</g>
<!-- Node104&#45;&gt;Node108 -->
<g id="edge5" class="edge">
<title>Node104&#45;&gt;Node108</title>
<path fill="none" stroke="#191970" d="M241.3679,-101.7454C255.282,-99.7706 270.0043,-97.6812 283.76,-95.7289"/>
<polygon fill="#191970" stroke="#191970" points="240.8135,-98.2889 231.4045,-103.1594 241.7972,-105.2195 240.8135,-98.2889"/>
</g>
<!-- Node110 -->
<g id="node8" class="node">
<title>Node110</title>
<g id="a_node8"><a xlink:href="class_coin_control_dialog.html#ac3c37dabd83f71d9c96bf5567fe85234" target="_top" xlink:title="CoinControlDialog::\lviewItemChanged">
<polygon fill="#ffffff" stroke="#000000" points="290.3867,-9.5 290.3867,-37.5 393.0957,-37.5 393.0957,-9.5 290.3867,-9.5"/>
<text text-anchor="start" x="298.3867" y="-25.5" font-family="Helvetica,sans-Serif" font-size="10.00" fill="#000000">CoinControlDialog::</text>
<text text-anchor="middle" x="341.7412" y="-15.5" font-family="Helvetica,sans-Serif" font-size="10.00" fill="#000000">viewItemChanged</text>
</a>
</g>
</g>
<!-- Node104&#45;&gt;Node110 -->
<g id="edge7" class="edge">
<title>Node104&#45;&gt;Node110</title>
<path fill="none" stroke="#191970" d="M215.0145,-91.4693C230.9111,-82.9123 249.9131,-72.6912 267.0371,-63.5 283.1106,-54.8727 301.1399,-45.2183 315.4592,-37.556"/>
<polygon fill="#191970" stroke="#191970" points="213.1973,-88.4726 206.0514,-96.2948 216.5156,-94.6361 213.1973,-88.4726"/>
</g>
<!-- Node111 -->
<g id="node9" class="node">
<title>Node111</title>
<g id="a_node9"><a xlink:href="class_send_coins_dialog.html#ae4f429aabcaf309aa314b90049be2a74" target="_top" xlink:title="SendCoinsDialog::coinControl\lUpdateLabels">
<polygon fill="#ffffff" stroke="#000000" points="267.0371,-128.5 267.0371,-156.5 416.4453,-156.5 416.4453,-128.5 267.0371,-128.5"/>
<text text-anchor="start" x="275.0371" y="-144.5" font-family="Helvetica,sans-Serif" font-size="10.00" fill="#000000">SendCoinsDialog::coinControl</text>
<text text-anchor="middle" x="341.7412" y="-134.5" font-family="Helvetica,sans-Serif" font-size="10.00" fill="#000000">UpdateLabels</text>
</a>
</g>
</g>
<!-- Node104&#45;&gt;Node111 -->
<g id="edge9" class="edge">
<title>Node104&#45;&gt;Node111</title>
<path fill="none" stroke="#191970" d="M241.2666,-122.6603C250.8889,-124.5604 260.9,-126.5371 270.7125,-128.4747"/>
<polygon fill="#191970" stroke="#191970" points="241.8932,-119.2166 231.4045,-120.713 240.5371,-126.084 241.8932,-119.2166"/>
</g>
<!-- Node106 -->
<g id="node4" class="node">
<title>Node106</title>
<g id="a_node4"><a xlink:href="class_send_coins_dialog.html#a59d757d9e4bea5b380eb480fd79cfb49" target="_top" xlink:title="SendCoinsDialog::coinControl\lButtonClicked">
<polygon fill="#ffffff" stroke="#000000" points="453.0093,-271.5 453.0093,-299.5 602.4175,-299.5 602.4175,-271.5 453.0093,-271.5"/>
<text text-anchor="start" x="461.0093" y="-287.5" font-family="Helvetica,sans-Serif" font-size="10.00" fill="#000000">SendCoinsDialog::coinControl</text>
<text text-anchor="middle" x="527.7134" y="-277.5" font-family="Helvetica,sans-Serif" font-size="10.00" fill="#000000">ButtonClicked</text>
</a>
</g>
</g>
<!-- Node105&#45;&gt;Node106 -->
<g id="edge3" class="edge">
<title>Node105&#45;&gt;Node106</title>
<path fill="none" stroke="#191970" d="M398.8816,-247.3989C424.89,-255.0907 455.316,-264.089 480.0671,-271.4089"/>
<polygon fill="#191970" stroke="#191970" points="399.7331,-244.0009 389.151,-244.5211 397.7478,-250.7135 399.7331,-244.0009"/>
</g>
<!-- Node107 -->
<g id="node5" class="node">
<title>Node107</title>
<g id="a_node5"><a xlink:href="class_send_coins_dialog.html#affacd36b4df87a68e2fe706ef388c0a6" target="_top" xlink:title="SendCoinsDialog::SendCoins\lDialog">
<polygon fill="#ffffff" stroke="#000000" points="1016.1821,-230.5 1016.1821,-258.5 1163.9302,-258.5 1163.9302,-230.5 1016.1821,-230.5"/>
<text text-anchor="start" x="1024.1821" y="-246.5" font-family="Helvetica,sans-Serif" font-size="10.00" fill="#000000">SendCoinsDialog::SendCoins</text>
<text text-anchor="middle" x="1090.0562" y="-236.5" font-family="Helvetica,sans-Serif" font-size="10.00" fill="#000000">Dialog</text>
</a>
</g>
</g>
<!-- Node106&#45;&gt;Node107 -->
<g id="edge4" class="edge">
<title>Node106&#45;&gt;Node107</title>
<path fill="none" stroke="#191970" d="M562.956,-304.2073C642.3651,-343.5357 838.5791,-424.6482 969.8965,-342.5 1000.9035,-323.103 977.8737,-292.0032 1005.8965,-268.5 1010.5529,-264.5946 1015.8089,-261.3236 1021.3634,-258.5843"/>
<polygon fill="#191970" stroke="#191970" points="564.3694,-301.0004 553.8633,-299.6321 561.223,-307.2534 564.3694,-301.0004"/>
</g>
<!-- Node109 -->
<g id="node7" class="node">
<title>Node109</title>
<g id="a_node7"><a xlink:href="class_coin_control_dialog.html#a3cec3ece6aa5eec3e7829e042356a659" target="_top" xlink:title="CoinControlDialog::\lCoinControlDialog">
<polygon fill="#ffffff" stroke="#000000" points="476.3589,-.5 476.3589,-28.5 579.0679,-28.5 579.0679,-.5 476.3589,-.5"/>
<text text-anchor="start" x="484.3589" y="-16.5" font-family="Helvetica,sans-Serif" font-size="10.00" fill="#000000">CoinControlDialog::</text>
<text text-anchor="middle" x="527.7134" y="-6.5" font-family="Helvetica,sans-Serif" font-size="10.00" fill="#000000">CoinControlDialog</text>
</a>
</g>
</g>
<!-- Node108&#45;&gt;Node109 -->
<g id="edge6" class="edge">
<title>Node108&#45;&gt;Node109</title>
<path fill="none" stroke="#191970" d="M379.7243,-68.894C400.8596,-58.9106 427.8024,-46.7868 452.4453,-37.5 460.7562,-34.368 469.6992,-31.3437 478.4174,-28.5743"/>
<polygon fill="#191970" stroke="#191970" points="377.9733,-65.8513 370.4512,-73.3125 380.9843,-72.1706 377.9733,-65.8513"/>
</g>
<!-- Node110&#45;&gt;Node109 -->
<g id="edge8" class="edge">
<title>Node110&#45;&gt;Node109</title>
<path fill="none" stroke="#191970" d="M403.7613,-20.4986C427.2664,-19.3611 453.7517,-18.0793 476.1876,-16.9936"/>
<polygon fill="#191970" stroke="#191970" points="403.3639,-17.0136 393.5448,-20.993 403.7024,-24.0054 403.3639,-17.0136"/>
</g>
<!-- Node111&#45;&gt;Node106 -->
<g id="edge35" class="edge">
<title>Node111&#45;&gt;Node106</title>
<path fill="none" stroke="#191970" d="M368.5054,-162.8335C383.3964,-174.764 401.8196,-190.5853 416.4453,-206.5 434.9743,-226.6619 430.7672,-239.7702 452.4453,-256.5 460.3166,-262.5745 469.6113,-267.5102 478.9345,-271.4716"/>
<polygon fill="#191970" stroke="#191970" points="370.6612,-160.0761 360.6425,-156.6298 366.3253,-165.5717 370.6612,-160.0761"/>
</g>
<!-- Node112 -->
<g id="node10" class="node">
<title>Node112</title>
<g id="a_node10"><a xlink:href="class_send_coins_dialog.html#a73a6c1b1850a334ee652ac167713a2aa" target="_top" xlink:title="SendCoinsDialog::setModel">
<polygon fill="#ffffff" stroke="#000000" points="638.9814,-74.5 638.9814,-92.5 778.3848,-92.5 778.3848,-74.5 638.9814,-74.5"/>
<text text-anchor="middle" x="708.6831" y="-80.5" font-family="Helvetica,sans-Serif" font-size="10.00" fill="#000000">SendCoinsDialog::setModel</text>
</a>
</g>
</g>
<!-- Node111&#45;&gt;Node112 -->
<g id="edge10" class="edge">
<title>Node111&#45;&gt;Node112</title>
<path fill="none" stroke="#191970" d="M426.9244,-128.8035C496.3446,-117.6416 592.4013,-102.1968 652.5101,-92.532"/>
<polygon fill="#191970" stroke="#191970" points="426.2004,-125.3749 416.8828,-130.4181 427.3117,-132.2861 426.2004,-125.3749"/>
</g>
<!-- Node115 -->
<g id="node13" class="node">
<title>Node115</title>
<g id="a_node13"><a xlink:href="class_send_coins_dialog.html#a127bddff45f49ff5e6e263efe218ae26" target="_top" xlink:title="SendCoinsDialog::clear">
<polygon fill="#ffffff" stroke="#000000" points="831.8896,-164.5 831.8896,-182.5 952.3916,-182.5 952.3916,-164.5 831.8896,-164.5"/>
<text text-anchor="middle" x="892.1406" y="-170.5" font-family="Helvetica,sans-Serif" font-size="10.00" fill="#000000">SendCoinsDialog::clear</text>
</a>
</g>
</g>
<!-- Node111&#45;&gt;Node115 -->
<g id="edge13" class="edge">
<title>Node111&#45;&gt;Node115</title>
<path fill="none" stroke="#191970" d="M426.8058,-147.2911C539.0161,-153.6111 733.7238,-164.5775 831.8831,-170.1061"/>
<polygon fill="#191970" stroke="#191970" points="426.7244,-143.781 416.5433,-146.7131 426.3307,-150.7699 426.7244,-143.781"/>
</g>
<!-- Node118 -->
<g id="node16" class="node">
<title>Node118</title>
<g id="a_node16"><a xlink:href="class_send_coins_dialog.html#a3d680a76b967641115c6ff2fa83fb62a" target="_top" xlink:title="SendCoinsDialog::addEntry">
<polygon fill="#ffffff" stroke="#000000" points="639.2573,-240.5 639.2573,-258.5 778.1089,-258.5 778.1089,-240.5 639.2573,-240.5"/>
<text text-anchor="middle" x="708.6831" y="-246.5" font-family="Helvetica,sans-Serif" font-size="10.00" fill="#000000">SendCoinsDialog::addEntry</text>
</a>
</g>
</g>
<!-- Node111&#45;&gt;Node118 -->
<g id="edge17" class="edge">
<title>Node111&#45;&gt;Node118</title>
<path fill="none" stroke="#191970" d="M362.963,-163.4808C383.8311,-182.6925 417.5492,-210.1095 452.4453,-223.5 512.6642,-246.6075 586.3762,-251.9291 639.2554,-252.1719"/>
<polygon fill="#191970" stroke="#191970" points="365.2986,-160.8726 355.6186,-156.5659 360.5001,-165.9692 365.2986,-160.8726"/>
</g>
<!-- Node126 -->
<g id="node24" class="node">
<title>Node126</title>
<g id="a_node24"><a xlink:href="class_send_coins_dialog.html#a3b834c739f7d02d8086a2bf58525c5f0" target="_top" xlink:title="SendCoinsDialog::updateTabs\lAndLabels">
<polygon fill="#ffffff" stroke="#000000" points="452.4453,-185.5 452.4453,-213.5 602.9814,-213.5 602.9814,-185.5 452.4453,-185.5"/>
<text text-anchor="start" x="460.4453" y="-201.5" font-family="Helvetica,sans-Serif" font-size="10.00" fill="#000000">SendCoinsDialog::updateTabs</text>
<text text-anchor="middle" x="527.7134" y="-191.5" font-family="Helvetica,sans-Serif" font-size="10.00" fill="#000000">AndLabels</text>
</a>
</g>
</g>
<!-- Node111&#45;&gt;Node126 -->
<g id="edge28" class="edge">
<title>Node111&#45;&gt;Node126</title>
<path fill="none" stroke="#191970" d="M397.4054,-159.5609C424.3918,-167.8322 456.4066,-177.6446 481.9496,-185.4735"/>
<polygon fill="#191970" stroke="#191970" points="398.2985,-156.174 387.7119,-156.5899 396.2472,-162.8667 398.2985,-156.174"/>
</g>
<!-- Node127 -->
<g id="node25" class="node">
<title>Node127</title>
<g id="a_node25"><a xlink:href="class_send_coins_dialog.html#af13ddd00abec4f060632d887b5e838a3" target="_top" xlink:title="SendCoinsDialog::coinControl\lFeatureChanged">
<polygon fill="#ffffff" stroke="#000000" points="453.0093,-47.5 453.0093,-75.5 602.4175,-75.5 602.4175,-47.5 453.0093,-47.5"/>
<text text-anchor="start" x="461.0093" y="-63.5" font-family="Helvetica,sans-Serif" font-size="10.00" fill="#000000">SendCoinsDialog::coinControl</text>
<text text-anchor="middle" x="527.7134" y="-53.5" font-family="Helvetica,sans-Serif" font-size="10.00" fill="#000000">FeatureChanged</text>
</a>
</g>
</g>
<!-- Node111&#45;&gt;Node127 -->
<g id="edge33" class="edge">
<title>Node111&#45;&gt;Node127</title>
<path fill="none" stroke="#191970" d="M386.1103,-124.3805C396.1732,-120.0265 406.7492,-115.2546 416.4453,-110.5 432.8792,-102.4415 435.8653,-98.2535 452.4453,-90.5 463.862,-85.1611 476.5542,-79.9918 488.2139,-75.5327"/>
<polygon fill="#191970" stroke="#191970" points="384.4878,-121.2675 376.6649,-128.4127 387.2361,-127.7054 384.4878,-121.2675"/>
</g>
<!-- Node113 -->
<g id="node11" class="node">
<title>Node113</title>
<g id="a_node11"><a xlink:href="class_wallet_view.html#a0a37ff693a4f9c1e5ddc23f9cd3913be" target="_top" xlink:title="Set the wallet model. ">
<polygon fill="#ffffff" stroke="#000000" points="822.9077,-74.5 822.9077,-92.5 961.3735,-92.5 961.3735,-74.5 822.9077,-74.5"/>
<text text-anchor="middle" x="892.1406" y="-80.5" font-family="Helvetica,sans-Serif" font-size="10.00" fill="#000000">WalletView::setWalletModel</text>
</a>
</g>
</g>
<!-- Node112&#45;&gt;Node113 -->
<g id="edge11" class="edge">
<title>Node112&#45;&gt;Node113</title>
<path fill="none" stroke="#191970" d="M788.8522,-83.5C800.1498,-83.5 811.685,-83.5 822.7577,-83.5"/>
<polygon fill="#191970" stroke="#191970" points="788.5639,-80.0001 778.5639,-83.5 788.5638,-87.0001 788.5639,-80.0001"/>
</g>
<!-- Node114 -->
<g id="node12" class="node">
<title>Node114</title>
<g id="a_node12"><a xlink:href="class_wallet_frame.html#a06cb28194836995e50cc46716b2227ff" target="_top" xlink:title="WalletFrame::addWallet">
<polygon fill="#ffffff" stroke="#000000" points="1029.0728,-74.5 1029.0728,-92.5 1151.0396,-92.5 1151.0396,-74.5 1029.0728,-74.5"/>
<text text-anchor="middle" x="1090.0562" y="-80.5" font-family="Helvetica,sans-Serif" font-size="10.00" fill="#000000">WalletFrame::addWallet</text>
</a>
</g>
</g>
<!-- Node113&#45;&gt;Node114 -->
<g id="edge12" class="edge">
<title>Node113&#45;&gt;Node114</title>
<path fill="none" stroke="#191970" d="M971.799,-83.5C990.8514,-83.5 1010.8969,-83.5 1028.9603,-83.5"/>
<polygon fill="#191970" stroke="#191970" points="971.64,-80.0001 961.6399,-83.5 971.6399,-87.0001 971.64,-80.0001"/>
</g>
<!-- Node115&#45;&gt;Node107 -->
<g id="edge14" class="edge">
<title>Node115&#45;&gt;Node107</title>
<path fill="none" stroke="#191970" d="M947.6189,-184.9942C955.1678,-186.9496 962.7665,-189.1257 969.8965,-191.5 978.8469,-194.4805 1026.4445,-215.7582 1058.9789,-230.4298"/>
<polygon fill="#191970" stroke="#191970" points="948.3157,-181.5611 937.7673,-182.5527 946.6317,-188.3555 948.3157,-181.5611"/>
</g>
<!-- Node116 -->
<g id="node14" class="node">
<title>Node116</title>
<g id="a_node14"><a xlink:href="class_send_coins_dialog.html#a4879553d77d29f522ac92ac04580f4ad" target="_top" xlink:title="SendCoinsDialog::reject">
<polygon fill="#ffffff" stroke="#000000" points="1028.416,-179.5 1028.416,-197.5 1151.6963,-197.5 1151.6963,-179.5 1028.416,-179.5"/>
<text text-anchor="middle" x="1090.0562" y="-185.5" font-family="Helvetica,sans-Serif" font-size="10.00" fill="#000000">SendCoinsDialog::reject</text>
</a>
</g>
</g>
<!-- Node115&#45;&gt;Node116 -->
<g id="edge15" class="edge">
<title>Node115&#45;&gt;Node116</title>
<path fill="none" stroke="#191970" d="M962.6178,-178.8415C984.0553,-180.4662 1007.442,-182.2387 1028.2612,-183.8166"/>
<polygon fill="#191970" stroke="#191970" points="962.8332,-175.3478 952.5972,-178.082 962.3041,-182.3278 962.8332,-175.3478"/>
</g>
<!-- Node117 -->
<g id="node15" class="node">
<title>Node117</title>
<g id="a_node15"><a xlink:href="class_send_coins_dialog.html#af2185c3d29e43d37c30669f0def46060" target="_top" xlink:title="SendCoinsDialog::accept">
<polygon fill="#ffffff" stroke="#000000" points="1025.9111,-142.5 1025.9111,-160.5 1154.2012,-160.5 1154.2012,-142.5 1025.9111,-142.5"/>
<text text-anchor="middle" x="1090.0562" y="-148.5" font-family="Helvetica,sans-Serif" font-size="10.00" fill="#000000">SendCoinsDialog::accept</text>
</a>
</g>
</g>
<!-- Node115&#45;&gt;Node117 -->
<g id="edge16" class="edge">
<title>Node115&#45;&gt;Node117</title>
<path fill="none" stroke="#191970" d="M962.5613,-165.6721C983.1905,-163.379 1005.629,-160.8848 1025.8499,-158.6371"/>
<polygon fill="#191970" stroke="#191970" points="962.1493,-162.1963 952.5972,-166.7797 962.9227,-169.1534 962.1493,-162.1963"/>
</g>
<!-- Node118&#45;&gt;Node107 -->
<g id="edge18" class="edge">
<title>Node118&#45;&gt;Node107</title>
<path fill="none" stroke="#191970" d="M788.2942,-248.4563C855.4059,-247.5764 950.6991,-246.327 1016.147,-245.469"/>
<polygon fill="#191970" stroke="#191970" points="788.1426,-244.9578 778.1893,-248.5887 788.2344,-251.9572 788.1426,-244.9578"/>
</g>
<!-- Node118&#45;&gt;Node115 -->
<g id="edge19" class="edge">
<title>Node118&#45;&gt;Node115</title>
<path fill="none" stroke="#191970" d="M730.8833,-234.9568C751.6951,-221.906 784.0629,-203.0752 814.3848,-191.5 823.7052,-187.942 833.9336,-184.9615 843.8218,-182.5151"/>
<polygon fill="#191970" stroke="#191970" points="729.0024,-232.0052 722.4473,-240.3287 732.7623,-237.9097 729.0024,-232.0052"/>
</g>
<!-- Node119 -->
<g id="node17" class="node">
<title>Node119</title>
<g id="a_node17"><a xlink:href="class_send_coins_dialog.html#aabd82a79bd2358493f36425f1d62136b" target="_top" xlink:title="SendCoinsDialog::removeEntry">
<polygon fill="#ffffff" stroke="#000000" points="814.3848,-201.5 814.3848,-219.5 969.8965,-219.5 969.8965,-201.5 814.3848,-201.5"/>
<text text-anchor="middle" x="892.1406" y="-207.5" font-family="Helvetica,sans-Serif" font-size="10.00" fill="#000000">SendCoinsDialog::removeEntry</text>
</a>
</g>
</g>
<!-- Node118&#45;&gt;Node119 -->
<g id="edge20" class="edge">
<title>Node118&#45;&gt;Node119</title>
<path fill="none" stroke="#191970" d="M739.9947,-237.6152C761.5847,-231.7271 791.2169,-224.9604 818.5971,-219.5034"/>
<polygon fill="#191970" stroke="#191970" points="738.7524,-234.3294 730.0871,-240.4255 740.6627,-241.0637 738.7524,-234.3294"/>
</g>
<!-- Node120 -->
<g id="node18" class="node">
<title>Node120</title>
<g id="a_node18"><a xlink:href="class_send_coins_dialog.html#a920b2dbf121ca3cfac2adc56e96295f8" target="_top" xlink:title="SendCoinsDialog::setAddress">
<polygon fill="#ffffff" stroke="#000000" points="817.7148,-277.5 817.7148,-295.5 966.5664,-295.5 966.5664,-277.5 817.7148,-277.5"/>
<text text-anchor="middle" x="892.1406" y="-283.5" font-family="Helvetica,sans-Serif" font-size="10.00" fill="#000000">SendCoinsDialog::setAddress</text>
</a>
</g>
</g>
<!-- Node118&#45;&gt;Node120 -->
<g id="edge22" class="edge">
<title>Node118&#45;&gt;Node120</title>
<path fill="none" stroke="#191970" d="M763.5536,-260.5664C790.3289,-265.9665 822.1299,-272.3801 847.4076,-277.4782"/>
<polygon fill="#191970" stroke="#191970" points="764.0565,-257.0974 753.5619,-258.5512 762.6725,-263.9592 764.0565,-257.0974"/>
</g>
<!-- Node122 -->
<g id="node20" class="node">
<title>Node122</title>
<g id="a_node20"><a xlink:href="class_send_coins_dialog.html#a4440d15ced5d217baaad33a17d56b409" target="_top" xlink:title="SendCoinsDialog::pasteEntry">
<polygon fill="#ffffff" stroke="#000000" points="818.8257,-314.5 818.8257,-332.5 965.4556,-332.5 965.4556,-314.5 818.8257,-314.5"/>
<text text-anchor="middle" x="892.1406" y="-320.5" font-family="Helvetica,sans-Serif" font-size="10.00" fill="#000000">SendCoinsDialog::pasteEntry</text>
</a>
</g>
</g>
<!-- Node118&#45;&gt;Node122 -->
<g id="edge24" class="edge">
<title>Node118&#45;&gt;Node122</title>
<path fill="none" stroke="#191970" d="M731.59,-263.8828C752.4704,-276.4391 784.5222,-294.3502 814.3848,-305.5 823.8609,-309.0381 834.2553,-312.022 844.2737,-314.4802"/>
<polygon fill="#191970" stroke="#191970" points="733.1891,-260.7584 722.8304,-258.534 729.5411,-266.7326 733.1891,-260.7584"/>
</g>
<!-- Node119&#45;&gt;Node118 -->
<g id="edge21" class="edge">
<title>Node119&#45;&gt;Node118</title>
<path fill="none" stroke="#191970" d="M860.9191,-222.3602C838.2866,-228.5365 806.7824,-235.6836 778.3021,-241.2728"/>
<polygon fill="#191970" stroke="#191970" points="861.9854,-225.6959 870.6508,-219.5999 860.0752,-218.9616 861.9854,-225.6959"/>
</g>
<!-- Node121 -->
<g id="node19" class="node">
<title>Node121</title>
<g id="a_node19"><a xlink:href="class_wallet_view.html#a2a70c2b00b097dd7b83b6915bb037ea3" target="_top" xlink:title="Switch to send coins page. ">
<polygon fill="#ffffff" stroke="#000000" points="1008.9507,-277.5 1008.9507,-295.5 1171.1616,-295.5 1171.1616,-277.5 1008.9507,-277.5"/>
<text text-anchor="middle" x="1090.0562" y="-283.5" font-family="Helvetica,sans-Serif" font-size="10.00" fill="#000000">WalletView::gotoSendCoinsPage</text>
</a>
</g>
</g>
<!-- Node120&#45;&gt;Node121 -->
<g id="edge23" class="edge">
<title>Node120&#45;&gt;Node121</title>
<path fill="none" stroke="#191970" d="M976.7347,-286.5C987.308,-286.5 998.105,-286.5 1008.6287,-286.5"/>
<polygon fill="#191970" stroke="#191970" points="976.682,-283.0001 966.682,-286.5 976.6819,-290.0001 976.682,-283.0001"/>
</g>
<!-- Node123 -->
<g id="node21" class="node">
<title>Node123</title>
<g id="a_node21"><a xlink:href="class_send_coins_dialog.html#a82ed6a3badadaa523415e1924ebd292a" target="_top" xlink:title="SendCoinsDialog::handlePayment\lRequest">
<polygon fill="#ffffff" stroke="#000000" points="1005.8965,-314.5 1005.8965,-342.5 1174.2158,-342.5 1174.2158,-314.5 1005.8965,-314.5"/>
<text text-anchor="start" x="1013.8965" y="-330.5" font-family="Helvetica,sans-Serif" font-size="10.00" fill="#000000">SendCoinsDialog::handlePayment</text>
<text text-anchor="middle" x="1090.0562" y="-320.5" font-family="Helvetica,sans-Serif" font-size="10.00" fill="#000000">Request</text>
</a>
</g>
</g>
<!-- Node122&#45;&gt;Node123 -->
<g id="edge25" class="edge">
<title>Node122&#45;&gt;Node123</title>
<path fill="none" stroke="#191970" d="M975.7914,-325.6133C985.7029,-325.8637 995.8243,-326.1194 1005.7449,-326.37"/>
<polygon fill="#191970" stroke="#191970" points="975.641,-322.1085 965.5558,-325.3547 975.4642,-329.1062 975.641,-322.1085"/>
</g>
<!-- Node124 -->
<g id="node22" class="node">
<title>Node124</title>
<g id="a_node22"><a xlink:href="class_wallet_view.html#a0ae21d91a9d7755026ce2a6846cef68d" target="_top" xlink:title="WalletView::handlePayment\lRequest">
<polygon fill="#ffffff" stroke="#000000" points="1210.2158,-314.5 1210.2158,-342.5 1350.1807,-342.5 1350.1807,-314.5 1210.2158,-314.5"/>
<text text-anchor="start" x="1218.2158" y="-330.5" font-family="Helvetica,sans-Serif" font-size="10.00" fill="#000000">WalletView::handlePayment</text>
<text text-anchor="middle" x="1280.1982" y="-320.5" font-family="Helvetica,sans-Serif" font-size="10.00" fill="#000000">Request</text>
</a>
</g>
</g>
<!-- Node123&#45;&gt;Node124 -->
<g id="edge26" class="edge">
<title>Node123&#45;&gt;Node124</title>
<path fill="none" stroke="#191970" d="M1184.381,-328.5C1192.9984,-328.5 1201.624,-328.5 1209.9745,-328.5"/>
<polygon fill="#191970" stroke="#191970" points="1184.2856,-325.0001 1174.2856,-328.5 1184.2856,-332.0001 1184.2856,-325.0001"/>
</g>
<!-- Node125 -->
<g id="node23" class="node">
<title>Node125</title>
<g id="a_node23"><a xlink:href="class_wallet_frame.html#aa8c5b10f2240df164795619ca41c619c" target="_top" xlink:title="WalletFrame::handlePayment\lRequest">
<polygon fill="#ffffff" stroke="#000000" points="1386.1807,-314.5 1386.1807,-342.5 1533.5381,-342.5 1533.5381,-314.5 1386.1807,-314.5"/>
<text text-anchor="start" x="1394.1807" y="-330.5" font-family="Helvetica,sans-Serif" font-size="10.00" fill="#000000">WalletFrame::handlePayment</text>
<text text-anchor="middle" x="1459.8594" y="-320.5" font-family="Helvetica,sans-Serif" font-size="10.00" fill="#000000">Request</text>
</a>
</g>
</g>
<!-- Node124&#45;&gt;Node125 -->
<g id="edge27" class="edge">
<title>Node124&#45;&gt;Node125</title>
<path fill="none" stroke="#191970" d="M1360.6846,-328.5C1369.1524,-328.5 1377.7322,-328.5 1386.1185,-328.5"/>
<polygon fill="#191970" stroke="#191970" points="1360.4319,-325.0001 1350.4318,-328.5 1360.4318,-332.0001 1360.4319,-325.0001"/>
</g>
<!-- Node126&#45;&gt;Node115 -->
<g id="edge29" class="edge">
<title>Node126&#45;&gt;Node115</title>
<path fill="none" stroke="#191970" d="M613.358,-193.3897C680.4801,-188.6009 772.1894,-182.0579 831.7872,-177.8059"/>
<polygon fill="#191970" stroke="#191970" points="612.9485,-189.9099 603.2229,-194.1128 613.4467,-196.8922 612.9485,-189.9099"/>
</g>
<!-- Node126&#45;&gt;Node118 -->
<g id="edge30" class="edge">
<title>Node126&#45;&gt;Node118</title>
<path fill="none" stroke="#191970" d="M588.3514,-216.2536C617.6845,-224.3581 651.7303,-233.7645 676.1064,-240.4994"/>
<polygon fill="#191970" stroke="#191970" points="589.1761,-212.8504 578.6051,-213.5608 587.3119,-219.5976 589.1761,-212.8504"/>
</g>
<!-- Node126&#45;&gt;Node119 -->
<g id="edge31" class="edge">
<title>Node126&#45;&gt;Node119</title>
<path fill="none" stroke="#191970" d="M613.5654,-202.0914C674.3674,-203.9267 755.2661,-206.3685 814.2134,-208.1478"/>
<polygon fill="#191970" stroke="#191970" points="613.324,-198.5826 603.2229,-201.7792 613.1128,-205.5794 613.324,-198.5826"/>
</g>
<!-- Node126&#45;&gt;Node122 -->
<g id="edge32" class="edge">
<title>Node126&#45;&gt;Node122</title>
<path fill="none" stroke="#191970" d="M554.3043,-219.6288C576.0146,-235.1391 608.0547,-255.9855 638.9814,-268.5 697.5594,-292.2035 768.0935,-306.4554 819.8157,-314.4905"/>
<polygon fill="#191970" stroke="#191970" points="556.0961,-216.6044 545.9489,-213.5575 551.9813,-222.2673 556.0961,-216.6044"/>
</g>
<!-- Node127&#45;&gt;Node112 -->
<g id="edge34" class="edge">
<title>Node127&#45;&gt;Node112</title>
<path fill="none" stroke="#191970" d="M612.788,-71.8423C621.4863,-72.8997 630.2514,-73.9653 638.7605,-74.9997"/>
<polygon fill="#191970" stroke="#191970" points="612.9763,-68.3395 602.627,-70.607 612.1315,-75.2883 612.9763,-68.3395"/>
</g>
</g>
</svg>
