<?xml version="1.0" encoding="UTF-8" standalone="no"?>
<!DOCTYPE svg PUBLIC "-//W3C//DTD SVG 1.1//EN"
 "http://www.w3.org/Graphics/SVG/1.1/DTD/svg11.dtd">
<!-- Generated by graphviz version 2.40.1 (20161225.0304)
 -->
<!-- Title: KeccakCore::reset Pages: 1 -->
<svg width="1293pt" height="584pt"
 viewBox="0.00 0.00 1292.66 584.00" xmlns="http://www.w3.org/2000/svg" xmlns:xlink="http://www.w3.org/1999/xlink">
<g id="graph0" class="graph" transform="scale(1 1) rotate(0) translate(4 580)">
<title>KeccakCore::reset</title>
<polygon fill="#ffffff" stroke="transparent" points="-4,4 -4,-580 1288.6582,-580 1288.6582,4 -4,4"/>
<!-- Node527 -->
<g id="node1" class="node">
<title>Node527</title>
<polygon fill="#bfbfbf" stroke="#000000" points="0,-112.5 0,-130.5 98.2559,-130.5 98.2559,-112.5 0,-112.5"/>
<text text-anchor="middle" x="49.1279" y="-118.5" font-family="Helvetica,sans-Serif" font-size="10.00" fill="#000000">KeccakCore::reset</text>
</g>
<!-- Node528 -->
<g id="node2" class="node">
<title>Node528</title>
<g id="a_node2"><a xlink:href="class_keccak_core.html#ab3c1905f2002e49aca085d6f0b5546f7" target="_top" xlink:title="Sets the capacity of the Keccak sponge function in bits. ">
<polygon fill="#ffffff" stroke="#000000" points="138.1401,-260.5 138.1401,-278.5 266.4106,-278.5 266.4106,-260.5 138.1401,-260.5"/>
<text text-anchor="middle" x="202.2754" y="-266.5" font-family="Helvetica,sans-Serif" font-size="10.00" fill="#000000">KeccakCore::setCapacity</text>
</a>
</g>
</g>
<!-- Node527&#45;&gt;Node528 -->
<g id="edge1" class="edge">
<title>Node527&#45;&gt;Node528</title>
<path fill="none" stroke="#191970" d="M66.0477,-137.8511C98.239,-168.9604 167.3486,-235.7471 192.699,-260.2454"/>
<polygon fill="#191970" stroke="#191970" points="68.3311,-135.1905 58.708,-130.7581 63.4667,-140.2241 68.3311,-135.1905"/>
</g>
<!-- Node531 -->
<g id="node5" class="node">
<title>Node531</title>
<g id="a_node5"><a xlink:href="class_keccak_core.html#aeff6b3357916bf426b60d3629db52628" target="_top" xlink:title="Sets a HMAC key for a Keccak&#45;based hash algorithm. ">
<polygon fill="#ffffff" stroke="#000000" points="134.2559,-149.5 134.2559,-167.5 270.2949,-167.5 270.2949,-149.5 134.2559,-149.5"/>
<text text-anchor="middle" x="202.2754" y="-155.5" font-family="Helvetica,sans-Serif" font-size="10.00" fill="#000000">KeccakCore::setHMACKey</text>
</a>
</g>
</g>
<!-- Node527&#45;&gt;Node531 -->
<g id="edge4" class="edge">
<title>Node527&#45;&gt;Node531</title>
<path fill="none" stroke="#191970" d="M96.4159,-132.9247C118.4514,-138.2484 144.2964,-144.4924 164.933,-149.4782"/>
<polygon fill="#191970" stroke="#191970" points="97.1343,-129.4976 86.592,-130.5512 95.4904,-136.3018 97.1343,-129.4976"/>
</g>
<!-- Node536 -->
<g id="node10" class="node">
<title>Node536</title>
<g id="a_node10"><a xlink:href="class_s_h_a3__256.html#a57b5f29347a733e04fe47d60621f3202" target="_top" xlink:title="Resets the hash ready for a new hashing process. ">
<polygon fill="#ffffff" stroke="#000000" points="156.1968,-75.5 156.1968,-93.5 248.354,-93.5 248.354,-75.5 156.1968,-75.5"/>
<text text-anchor="middle" x="202.2754" y="-81.5" font-family="Helvetica,sans-Serif" font-size="10.00" fill="#000000">SHA3_256::reset</text>
</a>
</g>
</g>
<!-- Node527&#45;&gt;Node536 -->
<g id="edge9" class="edge">
<title>Node527&#45;&gt;Node536</title>
<path fill="none" stroke="#191970" d="M96.4159,-110.0753C118.4514,-104.7516 144.2964,-98.5076 164.933,-93.5218"/>
<polygon fill="#191970" stroke="#191970" points="95.4904,-106.6982 86.592,-112.4488 97.1343,-113.5024 95.4904,-106.6982"/>
</g>
<!-- Node594 -->
<g id="node49" class="node">
<title>Node594</title>
<g id="a_node49"><a xlink:href="class_s_h_a3__512.html#a435746d5a8b012f7c65050337cc4a23f" target="_top" xlink:title="Resets the hash ready for a new hashing process. ">
<polygon fill="#ffffff" stroke="#000000" points="156.1968,-20.5 156.1968,-38.5 248.354,-38.5 248.354,-20.5 156.1968,-20.5"/>
<text text-anchor="middle" x="202.2754" y="-26.5" font-family="Helvetica,sans-Serif" font-size="10.00" fill="#000000">SHA3_512::reset</text>
</a>
</g>
</g>
<!-- Node527&#45;&gt;Node594 -->
<g id="edge51" class="edge">
<title>Node527&#45;&gt;Node594</title>
<path fill="none" stroke="#191970" d="M71.1436,-106.6249C88.1642,-95.2846 112.428,-79.4631 134.2559,-66.5 151.1311,-56.4782 170.8818,-45.853 184.7393,-38.5723"/>
<polygon fill="#191970" stroke="#191970" points="68.8556,-103.9448 62.4944,-112.4174 72.7508,-109.7609 68.8556,-103.9448"/>
</g>
<!-- Node529 -->
<g id="node3" class="node">
<title>Node529</title>
<g id="a_node3"><a xlink:href="class_s_h_a3__256.html#ac091b276c6d80a981fa64a9e8c68ca87" target="_top" xlink:title="Constructs a new SHA3&#45;256 hash object. ">
<polygon fill="#ffffff" stroke="#000000" points="312.396,-297.5 312.396,-315.5 430.6909,-315.5 430.6909,-297.5 312.396,-297.5"/>
<text text-anchor="middle" x="371.5435" y="-303.5" font-family="Helvetica,sans-Serif" font-size="10.00" fill="#000000">SHA3_256::SHA3_256</text>
</a>
</g>
</g>
<!-- Node528&#45;&gt;Node529 -->
<g id="edge2" class="edge">
<title>Node528&#45;&gt;Node529</title>
<path fill="none" stroke="#191970" d="M253.556,-280.7093C278.1229,-286.0794 307.1532,-292.4251 330.2703,-297.4782"/>
<polygon fill="#191970" stroke="#191970" points="254.1998,-277.2675 243.683,-278.5512 252.7049,-284.106 254.1998,-277.2675"/>
</g>
<!-- Node530 -->
<g id="node4" class="node">
<title>Node530</title>
<g id="a_node4"><a xlink:href="class_s_h_a3__512.html#a5f8bc4180e9d19597f499468098a82a4" target="_top" xlink:title="Constructs a new SHA3&#45;512 hash object. ">
<polygon fill="#ffffff" stroke="#000000" points="312.396,-260.5 312.396,-278.5 430.6909,-278.5 430.6909,-260.5 312.396,-260.5"/>
<text text-anchor="middle" x="371.5435" y="-266.5" font-family="Helvetica,sans-Serif" font-size="10.00" fill="#000000">SHA3_512::SHA3_512</text>
</a>
</g>
</g>
<!-- Node528&#45;&gt;Node530 -->
<g id="edge3" class="edge">
<title>Node528&#45;&gt;Node530</title>
<path fill="none" stroke="#191970" d="M277.0253,-269.5C288.8191,-269.5 300.8725,-269.5 312.2525,-269.5"/>
<polygon fill="#191970" stroke="#191970" points="276.7513,-266.0001 266.7513,-269.5 276.7512,-273.0001 276.7513,-266.0001"/>
</g>
<!-- Node532 -->
<g id="node6" class="node">
<title>Node532</title>
<g id="a_node6"><a xlink:href="class_s_h_a3__256.html#a324fe4d268bbf23d7b492033fe3bc632" target="_top" xlink:title="Resets the hash ready for a new HMAC hashing process. ">
<polygon fill="#ffffff" stroke="#000000" points="310.7432,-223.5 310.7432,-241.5 432.3438,-241.5 432.3438,-223.5 310.7432,-223.5"/>
<text text-anchor="middle" x="371.5435" y="-229.5" font-family="Helvetica,sans-Serif" font-size="10.00" fill="#000000">SHA3_256::resetHMAC</text>
</a>
</g>
</g>
<!-- Node531&#45;&gt;Node532 -->
<g id="edge5" class="edge">
<title>Node531&#45;&gt;Node532</title>
<path fill="none" stroke="#191970" d="M225.2497,-172.8182C245.8587,-185.1823 277.2427,-202.845 306.2949,-214.5 314.8017,-217.9127 324.182,-220.9168 333.1137,-223.4445"/>
<polygon fill="#191970" stroke="#191970" points="226.949,-169.7552 216.5861,-167.5508 223.3125,-175.7365 226.949,-169.7552"/>
</g>
<!-- Node533 -->
<g id="node7" class="node">
<title>Node533</title>
<g id="a_node7"><a xlink:href="class_s_h_a3__256.html#a001215fa1b7d2c30717b4b5b1618d68c" target="_top" xlink:title="Finalizes the HMAC hashing process and returns the hash. ">
<polygon fill="#ffffff" stroke="#000000" points="306.2949,-186.5 306.2949,-204.5 436.792,-204.5 436.792,-186.5 306.2949,-186.5"/>
<text text-anchor="middle" x="371.5435" y="-192.5" font-family="Helvetica,sans-Serif" font-size="10.00" fill="#000000">SHA3_256::finalizeHMAC</text>
</a>
</g>
</g>
<!-- Node531&#45;&gt;Node533 -->
<g id="edge6" class="edge">
<title>Node531&#45;&gt;Node533</title>
<path fill="none" stroke="#191970" d="M253.556,-169.7093C278.1229,-175.0794 307.1532,-181.4251 330.2703,-186.4782"/>
<polygon fill="#191970" stroke="#191970" points="254.1998,-166.2675 243.683,-167.5512 252.7049,-173.106 254.1998,-166.2675"/>
</g>
<!-- Node534 -->
<g id="node8" class="node">
<title>Node534</title>
<g id="a_node8"><a xlink:href="class_s_h_a3__512.html#aac7133f420f2be0288965c2e863f389b" target="_top" xlink:title="Resets the hash ready for a new HMAC hashing process. ">
<polygon fill="#ffffff" stroke="#000000" points="310.7432,-149.5 310.7432,-167.5 432.3438,-167.5 432.3438,-149.5 310.7432,-149.5"/>
<text text-anchor="middle" x="371.5435" y="-155.5" font-family="Helvetica,sans-Serif" font-size="10.00" fill="#000000">SHA3_512::resetHMAC</text>
</a>
</g>
</g>
<!-- Node531&#45;&gt;Node534 -->
<g id="edge7" class="edge">
<title>Node531&#45;&gt;Node534</title>
<path fill="none" stroke="#191970" d="M280.9408,-158.5C290.8907,-158.5 300.9511,-158.5 310.5683,-158.5"/>
<polygon fill="#191970" stroke="#191970" points="280.6353,-155.0001 270.6353,-158.5 280.6352,-162.0001 280.6353,-155.0001"/>
</g>
<!-- Node535 -->
<g id="node9" class="node">
<title>Node535</title>
<g id="a_node9"><a xlink:href="class_s_h_a3__512.html#a25c9d2da26d01d46ba6b72c8a7905ea0" target="_top" xlink:title="Finalizes the HMAC hashing process and returns the hash. ">
<polygon fill="#ffffff" stroke="#000000" points="306.2949,-112.5 306.2949,-130.5 436.792,-130.5 436.792,-112.5 306.2949,-112.5"/>
<text text-anchor="middle" x="371.5435" y="-118.5" font-family="Helvetica,sans-Serif" font-size="10.00" fill="#000000">SHA3_512::finalizeHMAC</text>
</a>
</g>
</g>
<!-- Node531&#45;&gt;Node535 -->
<g id="edge8" class="edge">
<title>Node531&#45;&gt;Node535</title>
<path fill="none" stroke="#191970" d="M253.556,-147.2907C278.1229,-141.9206 307.1532,-135.5749 330.2703,-130.5218"/>
<polygon fill="#191970" stroke="#191970" points="252.7049,-143.894 243.683,-149.4488 254.1998,-150.7325 252.7049,-143.894"/>
</g>
<!-- Node537 -->
<g id="node11" class="node">
<title>Node537</title>
<g id="a_node11"><a xlink:href="class_c_s_h_a3.html#a9f6f836938f5028d8904deba27e57fc9" target="_top" xlink:title="CSHA3::CSHA3">
<polygon fill="#ffffff" stroke="#000000" points="327.4204,-75.5 327.4204,-93.5 415.6665,-93.5 415.6665,-75.5 327.4204,-75.5"/>
<text text-anchor="middle" x="371.5435" y="-81.5" font-family="Helvetica,sans-Serif" font-size="10.00" fill="#000000">CSHA3::CSHA3</text>
</a>
</g>
</g>
<!-- Node536&#45;&gt;Node537 -->
<g id="edge10" class="edge">
<title>Node536&#45;&gt;Node537</title>
<path fill="none" stroke="#191970" d="M258.5812,-84.5C280.9759,-84.5 306.362,-84.5 327.388,-84.5"/>
<polygon fill="#191970" stroke="#191970" points="258.5287,-81.0001 248.5286,-84.5 258.5286,-88.0001 258.5287,-81.0001"/>
</g>
<!-- Node538 -->
<g id="node12" class="node">
<title>Node538</title>
<g id="a_node12"><a xlink:href="class_c_s_h_a3.html#a9d77a24312b66dcd026dfbed1d917dc1" target="_top" xlink:title="CSHA3::Reset">
<polygon fill="#ffffff" stroke="#000000" points="331.0313,-38.5 331.0313,-56.5 412.0557,-56.5 412.0557,-38.5 331.0313,-38.5"/>
<text text-anchor="middle" x="371.5435" y="-44.5" font-family="Helvetica,sans-Serif" font-size="10.00" fill="#000000">CSHA3::Reset</text>
</a>
</g>
</g>
<!-- Node536&#45;&gt;Node538 -->
<g id="edge11" class="edge">
<title>Node536&#45;&gt;Node538</title>
<path fill="none" stroke="#191970" d="M253.6315,-73.2742C278.3903,-67.8622 307.6683,-61.4624 330.8557,-56.3939"/>
<polygon fill="#191970" stroke="#191970" points="252.7049,-69.894 243.683,-75.4488 254.1998,-76.7325 252.7049,-69.894"/>
</g>
<!-- Node539 -->
<g id="node13" class="node">
<title>Node539</title>
<g id="a_node13"><a xlink:href="class_c_hash3.html#a28921734337c77f3589c0b1a740e2f30" target="_top" xlink:title="CHash3::Finalize">
<polygon fill="#ffffff" stroke="#000000" points="474.186,-75.5 474.186,-93.5 566.3286,-93.5 566.3286,-75.5 474.186,-75.5"/>
<text text-anchor="middle" x="520.2573" y="-81.5" font-family="Helvetica,sans-Serif" font-size="10.00" fill="#000000">CHash3::Finalize</text>
</a>
</g>
</g>
<!-- Node538&#45;&gt;Node539 -->
<g id="edge12" class="edge">
<title>Node538&#45;&gt;Node539</title>
<path fill="none" stroke="#191970" d="M417.7519,-58.9967C439.086,-64.3046 464.047,-70.5149 483.996,-75.4782"/>
<polygon fill="#191970" stroke="#191970" points="418.4722,-55.5692 407.923,-56.5512 416.7821,-62.3621 418.4722,-55.5692"/>
</g>
<!-- Node592 -->
<g id="node47" class="node">
<title>Node592</title>
<g id="a_node47"><a xlink:href="class_c_hash3.html#a5396e9a10d63f0734a878466335025f7" target="_top" xlink:title="CHash3::Reset">
<polygon fill="#ffffff" stroke="#000000" points="478.3535,-38.5 478.3535,-56.5 562.1611,-56.5 562.1611,-38.5 478.3535,-38.5"/>
<text text-anchor="middle" x="520.2573" y="-44.5" font-family="Helvetica,sans-Serif" font-size="10.00" fill="#000000">CHash3::Reset</text>
</a>
</g>
</g>
<!-- Node538&#45;&gt;Node592 -->
<g id="edge49" class="edge">
<title>Node538&#45;&gt;Node592</title>
<path fill="none" stroke="#191970" d="M422.3124,-47.5C440.4836,-47.5 460.7514,-47.5 478.1142,-47.5"/>
<polygon fill="#191970" stroke="#191970" points="422.1802,-44.0001 412.1802,-47.5 422.1801,-51.0001 422.1802,-44.0001"/>
</g>
<!-- Node593 -->
<g id="node48" class="node">
<title>Node593</title>
<g id="a_node48"><a xlink:href="class_c_hash360.html#aa42955d05b850cf7d393ab37ccbfcc21" target="_top" xlink:title="CHash360::Reset">
<polygon fill="#ffffff" stroke="#000000" points="472.792,-1.5 472.792,-19.5 567.7227,-19.5 567.7227,-1.5 472.792,-1.5"/>
<text text-anchor="middle" x="520.2573" y="-7.5" font-family="Helvetica,sans-Serif" font-size="10.00" fill="#000000">CHash360::Reset</text>
</a>
</g>
</g>
<!-- Node538&#45;&gt;Node593 -->
<g id="edge50" class="edge">
<title>Node538&#45;&gt;Node593</title>
<path fill="none" stroke="#191970" d="M417.7519,-36.0033C439.086,-30.6954 464.047,-24.4851 483.996,-19.5218"/>
<polygon fill="#191970" stroke="#191970" points="416.7821,-32.6379 407.923,-38.4488 418.4722,-39.4308 416.7821,-32.6379"/>
</g>
<!-- Node540 -->
<g id="node14" class="node">
<title>Node540</title>
<g id="a_node14"><a xlink:href="_hash_8h.html#ab3f6c437460137530d86e09c2c102e99" target="_top" xlink:title="Compute the 256&#45;bit hash of an object. ">
<polygon fill="#ffffff" stroke="#000000" points="666.5278,-217.5 666.5278,-235.5 705.8726,-235.5 705.8726,-217.5 666.5278,-217.5"/>
<text text-anchor="middle" x="686.2002" y="-223.5" font-family="Helvetica,sans-Serif" font-size="10.00" fill="#000000">Hash</text>
</a>
</g>
</g>
<!-- Node539&#45;&gt;Node540 -->
<g id="edge13" class="edge">
<title>Node539&#45;&gt;Node540</title>
<path fill="none" stroke="#191970" d="M539.1488,-100.6658C574.1214,-130.5923 647.8975,-193.7238 675.4879,-217.3333"/>
<polygon fill="#191970" stroke="#191970" points="541.0188,-97.6594 531.1453,-93.817 536.4676,-102.978 541.0188,-97.6594"/>
</g>
<!-- Node586 -->
<g id="node41" class="node">
<title>Node586</title>
<g id="a_node41"><a xlink:href="class_c_hash_writer.html#ae94a937211502eabf19477630090093a" target="_top" xlink:title="CHashWriter::GetHash">
<polygon fill="#ffffff" stroke="#000000" points="627.165,-75.5 627.165,-93.5 745.2354,-93.5 745.2354,-75.5 627.165,-75.5"/>
<text text-anchor="middle" x="686.2002" y="-81.5" font-family="Helvetica,sans-Serif" font-size="10.00" fill="#000000">CHashWriter::GetHash</text>
</a>
</g>
</g>
<!-- Node539&#45;&gt;Node586 -->
<g id="edge43" class="edge">
<title>Node539&#45;&gt;Node586</title>
<path fill="none" stroke="#191970" d="M576.8896,-84.5C593.1013,-84.5 610.8097,-84.5 627.1619,-84.5"/>
<polygon fill="#191970" stroke="#191970" points="576.4817,-81.0001 566.4817,-84.5 576.4816,-88.0001 576.4817,-81.0001"/>
</g>
<!-- Node591 -->
<g id="node46" class="node">
<title>Node591</title>
<g id="a_node46"><a xlink:href="class_c_net_message.html#a5e41101ee1e29382da16dd5f3b4f14d9" target="_top" xlink:title="CNetMessage::GetMessageHash">
<polygon fill="#ffffff" stroke="#000000" points="603.7227,-38.5 603.7227,-56.5 768.6777,-56.5 768.6777,-38.5 603.7227,-38.5"/>
<text text-anchor="middle" x="686.2002" y="-44.5" font-family="Helvetica,sans-Serif" font-size="10.00" fill="#000000">CNetMessage::GetMessageHash</text>
</a>
</g>
</g>
<!-- Node539&#45;&gt;Node591 -->
<g id="edge48" class="edge">
<title>Node539&#45;&gt;Node591</title>
<path fill="none" stroke="#191970" d="M570.8519,-73.219C594.8677,-67.8643 623.1756,-61.5525 645.7378,-56.5218"/>
<polygon fill="#191970" stroke="#191970" points="569.8501,-69.8563 560.8515,-75.4488 571.3736,-76.6886 569.8501,-69.8563"/>
</g>
<!-- Node541 -->
<g id="node15" class="node">
<title>Node541</title>
<g id="a_node15"><a xlink:href="base58_8h.html#ace9a5807ee51604f33044339f073ec76" target="_top" xlink:title="Encode a byte vector into a base58&#45;encoded string, including checksum. ">
<polygon fill="#ffffff" stroke="#000000" points="814.3994,-501.5 814.3994,-519.5 926.5762,-519.5 926.5762,-501.5 814.3994,-501.5"/>
<text text-anchor="middle" x="870.4878" y="-507.5" font-family="Helvetica,sans-Serif" font-size="10.00" fill="#000000">EncodeBase58Check</text>
</a>
</g>
</g>
<!-- Node540&#45;&gt;Node541 -->
<g id="edge14" class="edge">
<title>Node540&#45;&gt;Node541</title>
<path fill="none" stroke="#191970" d="M697.6587,-244.1583C732.7899,-298.298 838.1988,-460.7404 864.4944,-501.2637"/>
<polygon fill="#191970" stroke="#191970" points="700.5025,-242.111 692.1231,-235.6275 694.6305,-245.9214 700.5025,-242.111"/>
</g>
<!-- Node547 -->
<g id="node21" class="node">
<title>Node547</title>
<g id="a_node21"><a xlink:href="base58_8h.html#ae2dc7ad63e243509e0871ec4a5890678" target="_top" xlink:title="Decode a base58&#45;encoded string (psz) that includes a checksum into a byte vector (vchRet), return true if decoding is successful. ">
<polygon fill="#ffffff" stroke="#000000" points="814.1235,-372.5 814.1235,-390.5 926.8521,-390.5 926.8521,-372.5 814.1235,-372.5"/>
<text text-anchor="middle" x="870.4878" y="-378.5" font-family="Helvetica,sans-Serif" font-size="10.00" fill="#000000">DecodeBase58Check</text>
</a>
</g>
</g>
<!-- Node540&#45;&gt;Node547 -->
<g id="edge21" class="edge">
<title>Node540&#45;&gt;Node547</title>
<path fill="none" stroke="#191970" d="M704.6956,-242.056C742.889,-274.1796 829.4358,-346.9721 859.7536,-372.4717"/>
<polygon fill="#191970" stroke="#191970" points="706.8107,-239.2617 696.9048,-235.5034 702.305,-244.6188 706.8107,-239.2617"/>
</g>
<!-- Node555 -->
<g id="node29" class="node">
<title>Node555</title>
<g id="a_node29"><a xlink:href="class_c_partial_merkle_tree.html#a69e7771f95c498f6a340dcc227abcde4" target="_top" xlink:title="calculate the hash of a node in the merkle tree (at leaf level: the txid&#39;s themselves) ...">
<polygon fill="#ffffff" stroke="#000000" points="819.6045,-280.5 819.6045,-308.5 921.3711,-308.5 921.3711,-280.5 819.6045,-280.5"/>
<text text-anchor="start" x="827.6045" y="-296.5" font-family="Helvetica,sans-Serif" font-size="10.00" fill="#000000">CPartialMerkleTree</text>
<text text-anchor="middle" x="870.4878" y="-286.5" font-family="Helvetica,sans-Serif" font-size="10.00" fill="#000000">::CalcHash</text>
</a>
</g>
</g>
<!-- Node540&#45;&gt;Node555 -->
<g id="edge29" class="edge">
<title>Node540&#45;&gt;Node555</title>
<path fill="none" stroke="#191970" d="M715.8192,-238.0017C739.7357,-247.2281 774.2903,-260.4213 804.6777,-271.5 812.7511,-274.4434 821.4083,-277.5233 829.7046,-280.4375"/>
<polygon fill="#191970" stroke="#191970" points="716.8531,-234.649 706.2637,-234.3081 714.3292,-241.1782 716.8531,-234.649"/>
</g>
<!-- Node558 -->
<g id="node32" class="node">
<title>Node558</title>
<g id="a_node32"><a xlink:href="class_c_partial_merkle_tree.html#ae91d33a101afde8870f56b2cd5526441" target="_top" xlink:title="recursive function that traverses tree nodes, consuming the bits and hashes produced by TraverseAndBu...">
<polygon fill="#ffffff" stroke="#000000" points="815.7104,-233.5 815.7104,-261.5 925.2651,-261.5 925.2651,-233.5 815.7104,-233.5"/>
<text text-anchor="start" x="823.7104" y="-249.5" font-family="Helvetica,sans-Serif" font-size="10.00" fill="#000000">CPartialMerkleTree</text>
<text text-anchor="middle" x="870.4878" y="-239.5" font-family="Helvetica,sans-Serif" font-size="10.00" fill="#000000">::TraverseAndExtract</text>
</a>
</g>
</g>
<!-- Node540&#45;&gt;Node558 -->
<g id="edge33" class="edge">
<title>Node540&#45;&gt;Node558</title>
<path fill="none" stroke="#191970" d="M716.1875,-229.9171C742.9595,-232.9679 782.8465,-237.5131 815.3593,-241.218"/>
<polygon fill="#191970" stroke="#191970" points="716.2542,-226.4022 705.9222,-228.7474 715.4616,-233.3571 716.2542,-226.4022"/>
</g>
<!-- Node559 -->
<g id="node33" class="node">
<title>Node559</title>
<g id="a_node33"><a xlink:href="class_c_net_addr.html#a8fae7d32e83e9fbb9ce0216f896133c9" target="_top" xlink:title="CNetAddr::GetHash">
<polygon fill="#ffffff" stroke="#000000" points="818.0249,-196.5 818.0249,-214.5 922.9507,-214.5 922.9507,-196.5 818.0249,-196.5"/>
<text text-anchor="middle" x="870.4878" y="-202.5" font-family="Helvetica,sans-Serif" font-size="10.00" fill="#000000">CNetAddr::GetHash</text>
</a>
</g>
</g>
<!-- Node540&#45;&gt;Node559 -->
<g id="edge34" class="edge">
<title>Node540&#45;&gt;Node559</title>
<path fill="none" stroke="#191970" d="M716.0609,-223.0973C743.4877,-219.972 784.7556,-215.2694 817.7323,-211.5116"/>
<polygon fill="#191970" stroke="#191970" points="715.4616,-219.6429 705.9222,-224.2526 716.2542,-226.5978 715.4616,-219.6429"/>
</g>
<!-- Node576 -->
<g id="node38" class="node">
<title>Node576</title>
<g id="a_node38"><a xlink:href="class_c_pub_key.html#ab1aaa3f6085a3e9bc034d3e1269d870d" target="_top" xlink:title="Get the 256&#45;bit hash of this public key. ">
<polygon fill="#ffffff" stroke="#000000" points="818.855,-159.5 818.855,-177.5 922.1206,-177.5 922.1206,-159.5 818.855,-159.5"/>
<text text-anchor="middle" x="870.4878" y="-165.5" font-family="Helvetica,sans-Serif" font-size="10.00" fill="#000000">CPubKey::GetHash</text>
</a>
</g>
</g>
<!-- Node540&#45;&gt;Node576 -->
<g id="edge40" class="edge">
<title>Node540&#45;&gt;Node576</title>
<path fill="none" stroke="#191970" d="M715.8041,-216.4185C739.7121,-208.3581 774.2626,-196.893 804.6777,-187.5 815.5857,-184.1313 827.5673,-180.6173 838.2833,-177.5406"/>
<polygon fill="#191970" stroke="#191970" points="714.6043,-213.1294 706.2525,-219.6485 716.8468,-219.7606 714.6043,-213.1294"/>
</g>
<!-- Node577 -->
<g id="node39" class="node">
<title>Node577</title>
<g id="a_node39"><a xlink:href="class_wallet_batch.html#a59805739add3be261c2693ed1f43258e" target="_top" xlink:title="WalletBatch::WriteKey">
<polygon fill="#ffffff" stroke="#000000" points="813.0225,-122.5 813.0225,-140.5 927.9531,-140.5 927.9531,-122.5 813.0225,-122.5"/>
<text text-anchor="middle" x="870.4878" y="-128.5" font-family="Helvetica,sans-Serif" font-size="10.00" fill="#000000">WalletBatch::WriteKey</text>
</a>
</g>
</g>
<!-- Node540&#45;&gt;Node577 -->
<g id="edge41" class="edge">
<title>Node540&#45;&gt;Node577</title>
<path fill="none" stroke="#191970" d="M706.1482,-211.1268C728.899,-194.2247 767.7396,-167.2493 804.6777,-150.5 813.3422,-146.5712 823.0181,-143.2424 832.2272,-140.5223"/>
<polygon fill="#191970" stroke="#191970" points="703.8633,-208.466 697.9808,-217.2777 708.0745,-214.0576 703.8633,-208.466"/>
</g>
<!-- Node542 -->
<g id="node16" class="node">
<title>Node542</title>
<g id="a_node16"><a xlink:href="key__io_8h.html#a675809f738ce55f530880389fa330f66" target="_top" xlink:title="EncodeSecret">
<polygon fill="#ffffff" stroke="#000000" points="1012.957,-557.5 1012.957,-575.5 1091.7744,-575.5 1091.7744,-557.5 1012.957,-557.5"/>
<text text-anchor="middle" x="1052.3657" y="-563.5" font-family="Helvetica,sans-Serif" font-size="10.00" fill="#000000">EncodeSecret</text>
</a>
</g>
</g>
<!-- Node541&#45;&gt;Node542 -->
<g id="edge15" class="edge">
<title>Node541&#45;&gt;Node542</title>
<path fill="none" stroke="#191970" d="M901.5518,-523.3507C921.5262,-531.2993 948.1655,-541.3201 972.2979,-548.5 985.2711,-552.3598 999.6419,-555.8337 1012.5865,-558.6766"/>
<polygon fill="#191970" stroke="#191970" points="902.6264,-520.0104 892.0427,-519.5231 900.0125,-526.504 902.6264,-520.0104"/>
</g>
<!-- Node545 -->
<g id="node19" class="node">
<title>Node545</title>
<g id="a_node19"><a xlink:href="key__io_8h.html#a49ce9e0a355e46193fdaf2756b0648f0" target="_top" xlink:title="EncodeExtPubKey">
<polygon fill="#ffffff" stroke="#000000" points="1002.6714,-520.5 1002.6714,-538.5 1102.0601,-538.5 1102.0601,-520.5 1002.6714,-520.5"/>
<text text-anchor="middle" x="1052.3657" y="-526.5" font-family="Helvetica,sans-Serif" font-size="10.00" fill="#000000">EncodeExtPubKey</text>
</a>
</g>
</g>
<!-- Node541&#45;&gt;Node545 -->
<g id="edge18" class="edge">
<title>Node541&#45;&gt;Node545</title>
<path fill="none" stroke="#191970" d="M937.1529,-517.4642C958.801,-519.7257 982.4293,-522.194 1002.6217,-524.3035"/>
<polygon fill="#191970" stroke="#191970" points="937.3477,-513.9656 927.0381,-516.4076 936.6203,-520.9277 937.3477,-513.9656"/>
</g>
<!-- Node546 -->
<g id="node20" class="node">
<title>Node546</title>
<g id="a_node20"><a xlink:href="key__io_8h.html#a69ad05a28e10f3f8b4a3ba691eea7288" target="_top" xlink:title="EncodeExtKey">
<polygon fill="#ffffff" stroke="#000000" points="1011.5679,-483.5 1011.5679,-501.5 1093.1636,-501.5 1093.1636,-483.5 1011.5679,-483.5"/>
<text text-anchor="middle" x="1052.3657" y="-489.5" font-family="Helvetica,sans-Serif" font-size="10.00" fill="#000000">EncodeExtKey</text>
</a>
</g>
</g>
<!-- Node541&#45;&gt;Node546 -->
<g id="edge19" class="edge">
<title>Node541&#45;&gt;Node546</title>
<path fill="none" stroke="#191970" d="M937.1554,-503.9021C962.0455,-501.4388 989.553,-498.7164 1011.4461,-496.5497"/>
<polygon fill="#191970" stroke="#191970" points="936.6448,-500.4354 927.0381,-504.9034 937.3342,-507.4014 936.6448,-500.4354"/>
</g>
<!-- Node543 -->
<g id="node17" class="node">
<title>Node543</title>
<g id="a_node17"><a xlink:href="rpcwallet_8cpp.html#ab3f51d8e8fe414dbf91c37485e481ae3" target="_top" xlink:title="dumpprivkey">
<polygon fill="#ffffff" stroke="#000000" points="1190.2012,-557.5 1190.2012,-575.5 1262.8906,-575.5 1262.8906,-557.5 1190.2012,-557.5"/>
<text text-anchor="middle" x="1226.5459" y="-563.5" font-family="Helvetica,sans-Serif" font-size="10.00" fill="#000000">dumpprivkey</text>
</a>
</g>
</g>
<!-- Node542&#45;&gt;Node543 -->
<g id="edge16" class="edge">
<title>Node542&#45;&gt;Node543</title>
<path fill="none" stroke="#191970" d="M1101.9213,-566.5C1130.0185,-566.5 1164.561,-566.5 1190.148,-566.5"/>
<polygon fill="#191970" stroke="#191970" points="1101.8899,-563.0001 1091.8899,-566.5 1101.8899,-570.0001 1101.8899,-563.0001"/>
</g>
<!-- Node544 -->
<g id="node18" class="node">
<title>Node544</title>
<g id="a_node18"><a xlink:href="wallet__tests_8cpp.html#a73ce3a42e0b56b2e4516e55871d8590e" target="_top" xlink:title="dumpwallet">
<polygon fill="#ffffff" stroke="#000000" points="1193.2554,-502.5 1193.2554,-520.5 1259.8364,-520.5 1259.8364,-502.5 1193.2554,-502.5"/>
<text text-anchor="middle" x="1226.5459" y="-508.5" font-family="Helvetica,sans-Serif" font-size="10.00" fill="#000000">dumpwallet</text>
</a>
</g>
</g>
<!-- Node542&#45;&gt;Node544 -->
<g id="edge17" class="edge">
<title>Node542&#45;&gt;Node544</title>
<path fill="none" stroke="#191970" d="M1101.7974,-556.6363C1112.0031,-554.2515 1122.627,-551.5105 1132.4336,-548.5 1158.4476,-540.5139 1187.4611,-528.6346 1206.3054,-520.5041"/>
<polygon fill="#191970" stroke="#191970" points="1100.7602,-553.2823 1091.7768,-558.8993 1102.3022,-560.1104 1100.7602,-553.2823"/>
</g>
<!-- Node546&#45;&gt;Node544 -->
<g id="edge20" class="edge">
<title>Node546&#45;&gt;Node544</title>
<path fill="none" stroke="#191970" d="M1103.5164,-498.0796C1132.3754,-501.2276 1167.6194,-505.0722 1192.9767,-507.8382"/>
<polygon fill="#191970" stroke="#191970" points="1103.5238,-494.5598 1093.2032,-496.9547 1102.7647,-501.5185 1103.5238,-494.5598"/>
</g>
<!-- Node548 -->
<g id="node22" class="node">
<title>Node548</title>
<g id="a_node22"><a xlink:href="base58_8h.html#a96597527b13547236b99430e6ac195b3" target="_top" xlink:title="Decode a base58&#45;encoded string (str) that includes a checksum into a byte vector (vchRet), return true if decoding is successful. ">
<polygon fill="#ffffff" stroke="#000000" points="996.0015,-446.5 996.0015,-464.5 1108.73,-464.5 1108.73,-446.5 996.0015,-446.5"/>
<text text-anchor="middle" x="1052.3657" y="-452.5" font-family="Helvetica,sans-Serif" font-size="10.00" fill="#000000">DecodeBase58Check</text>
</a>
</g>
</g>
<!-- Node547&#45;&gt;Node548 -->
<g id="edge22" class="edge">
<title>Node547&#45;&gt;Node548</title>
<path fill="none" stroke="#191970" d="M892.7297,-396.1421C912.7856,-408.748 943.4715,-426.5836 972.2979,-437.5 981.758,-441.0825 992.1296,-444.0624 1002.1792,-446.4984"/>
<polygon fill="#191970" stroke="#191970" points="894.3613,-393.0311 884.0504,-390.5947 890.5914,-398.9293 894.3613,-393.0311"/>
</g>
<!-- Node549 -->
<g id="node23" class="node">
<title>Node549</title>
<g id="a_node23"><a xlink:href="key__io_8h.html#a7941777b013d8d31958b7ffbc8c3563f" target="_top" xlink:title="DecodeSecret">
<polygon fill="#ffffff" stroke="#000000" points="1012.6812,-409.5 1012.6812,-427.5 1092.0503,-427.5 1092.0503,-409.5 1012.6812,-409.5"/>
<text text-anchor="middle" x="1052.3657" y="-415.5" font-family="Helvetica,sans-Serif" font-size="10.00" fill="#000000">DecodeSecret</text>
</a>
</g>
</g>
<!-- Node547&#45;&gt;Node549 -->
<g id="edge23" class="edge">
<title>Node547&#45;&gt;Node549</title>
<path fill="none" stroke="#191970" d="M925.0829,-392.6064C953.2573,-398.3381 987.0026,-405.203 1012.6661,-410.4238"/>
<polygon fill="#191970" stroke="#191970" points="925.4772,-389.115 914.9801,-390.5512 924.0817,-395.9745 925.4772,-389.115"/>
</g>
<!-- Node553 -->
<g id="node27" class="node">
<title>Node553</title>
<g id="a_node27"><a xlink:href="key__io_8h.html#a43d8040d92cf6b2c3e779bdc4c0da099" target="_top" xlink:title="DecodeExtPubKey">
<polygon fill="#ffffff" stroke="#000000" points="1002.3955,-372.5 1002.3955,-390.5 1102.3359,-390.5 1102.3359,-372.5 1002.3955,-372.5"/>
<text text-anchor="middle" x="1052.3657" y="-378.5" font-family="Helvetica,sans-Serif" font-size="10.00" fill="#000000">DecodeExtPubKey</text>
</a>
</g>
</g>
<!-- Node547&#45;&gt;Node553 -->
<g id="edge27" class="edge">
<title>Node547&#45;&gt;Node553</title>
<path fill="none" stroke="#191970" d="M937.1086,-381.5C958.6607,-381.5 982.1796,-381.5 1002.319,-381.5"/>
<polygon fill="#191970" stroke="#191970" points="937.0382,-378.0001 927.0381,-381.5 937.0381,-385.0001 937.0382,-378.0001"/>
</g>
<!-- Node554 -->
<g id="node28" class="node">
<title>Node554</title>
<g id="a_node28"><a xlink:href="key__io_8h.html#af3acecb2bc3e58b2622d2eadad870d3a" target="_top" xlink:title="DecodeExtKey">
<polygon fill="#ffffff" stroke="#000000" points="1011.292,-335.5 1011.292,-353.5 1093.4395,-353.5 1093.4395,-335.5 1011.292,-335.5"/>
<text text-anchor="middle" x="1052.3657" y="-341.5" font-family="Helvetica,sans-Serif" font-size="10.00" fill="#000000">DecodeExtKey</text>
</a>
</g>
</g>
<!-- Node547&#45;&gt;Node554 -->
<g id="edge28" class="edge">
<title>Node547&#45;&gt;Node554</title>
<path fill="none" stroke="#191970" d="M924.9002,-370.4307C952.5549,-364.8048 985.6145,-358.0794 1011.1348,-352.8877"/>
<polygon fill="#191970" stroke="#191970" points="924.0817,-367.0255 914.9801,-372.4488 925.4772,-373.885 924.0817,-367.0255"/>
</g>
<!-- Node550 -->
<g id="node24" class="node">
<title>Node550</title>
<g id="a_node24"><a xlink:href="rpcwallet_8cpp.html#a2f46e2bb304dda9a197b5a68db6106f7" target="_top" xlink:title="importprivkey">
<polygon fill="#ffffff" stroke="#000000" points="1188.8169,-446.5 1188.8169,-464.5 1264.2749,-464.5 1264.2749,-446.5 1188.8169,-446.5"/>
<text text-anchor="middle" x="1226.5459" y="-452.5" font-family="Helvetica,sans-Serif" font-size="10.00" fill="#000000">importprivkey</text>
</a>
</g>
</g>
<!-- Node549&#45;&gt;Node550 -->
<g id="edge24" class="edge">
<title>Node549&#45;&gt;Node550</title>
<path fill="none" stroke="#191970" d="M1102.1472,-429.0748C1129.6267,-434.9121 1163.2171,-442.0475 1188.5634,-447.4316"/>
<polygon fill="#191970" stroke="#191970" points="1102.8352,-425.6429 1092.3262,-426.9885 1101.3806,-432.4901 1102.8352,-425.6429"/>
</g>
<!-- Node551 -->
<g id="node25" class="node">
<title>Node551</title>
<g id="a_node25"><a xlink:href="wallet__tests_8cpp.html#a8c64ef6e0ced69002923098229448758" target="_top" xlink:title="importwallet">
<polygon fill="#ffffff" stroke="#000000" points="1191.8711,-409.5 1191.8711,-427.5 1261.2207,-427.5 1261.2207,-409.5 1191.8711,-409.5"/>
<text text-anchor="middle" x="1226.5459" y="-415.5" font-family="Helvetica,sans-Serif" font-size="10.00" fill="#000000">importwallet</text>
</a>
</g>
</g>
<!-- Node549&#45;&gt;Node551 -->
<g id="edge25" class="edge">
<title>Node549&#45;&gt;Node551</title>
<path fill="none" stroke="#191970" d="M1102.5342,-418.5C1131.1226,-418.5 1166.2248,-418.5 1191.7777,-418.5"/>
<polygon fill="#191970" stroke="#191970" points="1102.3262,-415.0001 1092.3262,-418.5 1102.3261,-422.0001 1102.3262,-415.0001"/>
</g>
<!-- Node552 -->
<g id="node26" class="node">
<title>Node552</title>
<g id="a_node26"><a xlink:href="rpcwallet_8cpp.html#a61c7a90d1b36888fe11b751e746e18c0" target="_top" xlink:title="sethdseed">
<polygon fill="#ffffff" stroke="#000000" points="1195.4722,-372.5 1195.4722,-390.5 1257.6196,-390.5 1257.6196,-372.5 1195.4722,-372.5"/>
<text text-anchor="middle" x="1226.5459" y="-378.5" font-family="Helvetica,sans-Serif" font-size="10.00" fill="#000000">sethdseed</text>
</a>
</g>
</g>
<!-- Node549&#45;&gt;Node552 -->
<g id="edge26" class="edge">
<title>Node549&#45;&gt;Node552</title>
<path fill="none" stroke="#191970" d="M1102.2074,-407.9124C1132.2479,-401.5311 1169.5738,-393.6022 1195.4499,-388.1055"/>
<polygon fill="#191970" stroke="#191970" points="1101.3806,-404.5099 1092.3262,-410.0115 1102.8352,-411.3571 1101.3806,-404.5099"/>
</g>
<!-- Node556 -->
<g id="node30" class="node">
<title>Node556</title>
<g id="a_node30"><a xlink:href="class_c_partial_merkle_tree.html#a62bdcaf5b5ee6c6327ef67fb027a5fef" target="_top" xlink:title="recursive function that traverses tree nodes, storing the data as bits and hashes ...">
<polygon fill="#ffffff" stroke="#000000" points="1001.4824,-270.5 1001.4824,-298.5 1103.249,-298.5 1103.249,-270.5 1001.4824,-270.5"/>
<text text-anchor="start" x="1009.4824" y="-286.5" font-family="Helvetica,sans-Serif" font-size="10.00" fill="#000000">CPartialMerkleTree</text>
<text text-anchor="middle" x="1052.3657" y="-276.5" font-family="Helvetica,sans-Serif" font-size="10.00" fill="#000000">::TraverseAndBuild</text>
</a>
</g>
</g>
<!-- Node555&#45;&gt;Node556 -->
<g id="edge30" class="edge">
<title>Node555&#45;&gt;Node556</title>
<path fill="none" stroke="#191970" d="M931.7956,-291.1292C954.3799,-289.8874 979.7016,-288.4952 1001.2877,-287.3084"/>
<polygon fill="#191970" stroke="#191970" points="931.4277,-287.644 921.6349,-291.6878 931.812,-294.6335 931.4277,-287.644"/>
</g>
<!-- Node556&#45;&gt;Node556 -->
<g id="edge31" class="edge">
<title>Node556&#45;&gt;Node556</title>
<path fill="none" stroke="#191970" d="M1020.9117,-308.4873C1024.2517,-313.4413 1034.7363,-317 1052.3657,-317 1080.5728,-317 1090.4893,-307.8898 1082.1153,-298.5305"/>
<polygon fill="#191970" stroke="#191970" points="1024.3786,-308.9777 1022.6161,-298.5305 1017.479,-307.7965 1024.3786,-308.9777"/>
</g>
<!-- Node557 -->
<g id="node31" class="node">
<title>Node557</title>
<g id="a_node31"><a xlink:href="class_c_partial_merkle_tree.html#a0656767dc0d8f3d603c54e5be21d3890" target="_top" xlink:title="Construct a partial merkle tree from a list of transaction ids, and a mask that selects a subset of t...">
<polygon fill="#ffffff" stroke="#000000" points="1172.8843,-270.5 1172.8843,-298.5 1280.2075,-298.5 1280.2075,-270.5 1172.8843,-270.5"/>
<text text-anchor="start" x="1180.8843" y="-286.5" font-family="Helvetica,sans-Serif" font-size="10.00" fill="#000000">CPartialMerkleTree</text>
<text text-anchor="middle" x="1226.5459" y="-276.5" font-family="Helvetica,sans-Serif" font-size="10.00" fill="#000000">::CPartialMerkleTree</text>
</a>
</g>
</g>
<!-- Node556&#45;&gt;Node557 -->
<g id="edge32" class="edge">
<title>Node556&#45;&gt;Node557</title>
<path fill="none" stroke="#191970" d="M1113.8625,-284.5C1133.1164,-284.5 1154.202,-284.5 1172.8723,-284.5"/>
<polygon fill="#191970" stroke="#191970" points="1113.6835,-281.0001 1103.6834,-284.5 1113.6834,-288.0001 1113.6835,-281.0001"/>
</g>
<!-- Node560 -->
<g id="node34" class="node">
<title>Node560</title>
<g id="a_node34"><a xlink:href="class_c_addr_info.html#a11e2712f11c0d92c75976e90f2c5003e" target="_top" xlink:title="Calculate in which &quot;tried&quot; bucket this entry belongs. ">
<polygon fill="#ffffff" stroke="#ff0000" points="984.522,-233.5 984.522,-251.5 1120.2095,-251.5 1120.2095,-233.5 984.522,-233.5"/>
<text text-anchor="middle" x="1052.3657" y="-239.5" font-family="Helvetica,sans-Serif" font-size="10.00" fill="#000000">CAddrInfo::GetTriedBucket</text>
</a>
</g>
</g>
<!-- Node559&#45;&gt;Node560 -->
<g id="edge35" class="edge">
<title>Node559&#45;&gt;Node560</title>
<path fill="none" stroke="#191970" d="M924.8859,-216.5664C951.4306,-221.9665 982.9578,-228.3801 1008.0179,-233.4782"/>
<polygon fill="#191970" stroke="#191970" points="925.4772,-213.115 914.9801,-214.5512 924.0817,-219.9745 925.4772,-213.115"/>
</g>
<!-- Node570 -->
<g id="node36" class="node">
<title>Node570</title>
<g id="a_node36"><a xlink:href="class_c_addr_info.html#ae4459cd7719834bbcf77874757c6875e" target="_top" xlink:title="Calculate in which &quot;new&quot; bucket this entry belongs, given a certain source. ">
<polygon fill="#ffffff" stroke="#ff0000" points="985.728,-196.5 985.728,-214.5 1119.0034,-214.5 1119.0034,-196.5 985.728,-196.5"/>
<text text-anchor="middle" x="1052.3657" y="-202.5" font-family="Helvetica,sans-Serif" font-size="10.00" fill="#000000">CAddrInfo::GetNewBucket</text>
</a>
</g>
</g>
<!-- Node559&#45;&gt;Node570 -->
<g id="edge37" class="edge">
<title>Node559&#45;&gt;Node570</title>
<path fill="none" stroke="#191970" d="M933.388,-205.5C950.2541,-205.5 968.5466,-205.5 985.6134,-205.5"/>
<polygon fill="#191970" stroke="#191970" points="933.0945,-202.0001 923.0944,-205.5 933.0944,-209.0001 933.0945,-202.0001"/>
</g>
<!-- Node575 -->
<g id="node37" class="node">
<title>Node575</title>
<g id="a_node37"><a xlink:href="class_c_addr_info.html#a3a133ffb3fbf67cbeb5f4bc683fa9126" target="_top" xlink:title="Calculate in which position of a bucket to store this entry. ">
<polygon fill="#ffffff" stroke="#ff0000" points="977.9424,-159.5 977.9424,-177.5 1126.7891,-177.5 1126.7891,-159.5 977.9424,-159.5"/>
<text text-anchor="middle" x="1052.3657" y="-165.5" font-family="Helvetica,sans-Serif" font-size="10.00" fill="#000000">CAddrInfo::GetBucketPosition</text>
</a>
</g>
</g>
<!-- Node559&#45;&gt;Node575 -->
<g id="edge38" class="edge">
<title>Node559&#45;&gt;Node575</title>
<path fill="none" stroke="#191970" d="M924.8859,-194.4336C951.4306,-189.0335 982.9578,-182.6199 1008.0179,-177.5218"/>
<polygon fill="#191970" stroke="#191970" points="924.0817,-191.0255 914.9801,-196.4488 925.4772,-197.885 924.0817,-191.0255"/>
</g>
<!-- Node561 -->
<g id="node35" class="node">
<title>Node561</title>
<g id="a_node35"><a xlink:href="class_c_addr_man.html#af7a45c248782cf74daced27458da236b" target="_top" xlink:title="Move an entry from the &quot;new&quot; table(s) to the &quot;tried&quot; table. ">
<polygon fill="#ffffff" stroke="#000000" points="1168.4336,-196.5 1168.4336,-214.5 1284.6582,-214.5 1284.6582,-196.5 1168.4336,-196.5"/>
<text text-anchor="middle" x="1226.5459" y="-202.5" font-family="Helvetica,sans-Serif" font-size="10.00" fill="#000000">CAddrMan::MakeTried</text>
</a>
</g>
</g>
<!-- Node560&#45;&gt;Node561 -->
<g id="edge36" class="edge">
<title>Node560&#45;&gt;Node561</title>
<path fill="none" stroke="#191970" d="M1104.7977,-231.3622C1130.1486,-225.9771 1160.1813,-219.5974 1184.075,-214.5218"/>
<polygon fill="#191970" stroke="#191970" points="1104.0294,-227.9472 1094.975,-233.4488 1105.484,-234.7944 1104.0294,-227.9472"/>
</g>
<!-- Node575&#45;&gt;Node561 -->
<g id="edge39" class="edge">
<title>Node575&#45;&gt;Node561</title>
<path fill="none" stroke="#191970" d="M1104.7977,-179.6378C1130.1486,-185.0229 1160.1813,-191.4026 1184.075,-196.4782"/>
<polygon fill="#191970" stroke="#191970" points="1105.484,-176.2056 1094.975,-177.5512 1104.0294,-183.0528 1105.484,-176.2056"/>
</g>
<!-- Node578 -->
<g id="node40" class="node">
<title>Node578</title>
<g id="a_node40"><a xlink:href="group__map_wallet.html#gaf482ede71b2fde291b8c6ec262b22ef4" target="_top" xlink:title="CWallet::AddKeyPubKeyWithDB">
<polygon fill="#ffffff" stroke="#ff0000" points="972.2979,-122.5 972.2979,-140.5 1132.4336,-140.5 1132.4336,-122.5 972.2979,-122.5"/>
<text text-anchor="middle" x="1052.3657" y="-128.5" font-family="Helvetica,sans-Serif" font-size="10.00" fill="#000000">CWallet::AddKeyPubKeyWithDB</text>
</a>
</g>
</g>
<!-- Node577&#45;&gt;Node578 -->
<g id="edge42" class="edge">
<title>Node577&#45;&gt;Node578</title>
<path fill="none" stroke="#191970" d="M938.0963,-131.5C949.2277,-131.5 960.8594,-131.5 972.2606,-131.5"/>
<polygon fill="#191970" stroke="#191970" points="938.0351,-128.0001 928.0351,-131.5 938.0351,-135.0001 938.0351,-128.0001"/>
</g>
<!-- Node587 -->
<g id="node42" class="node">
<title>Node587</title>
<g id="a_node42"><a xlink:href="class_sign_verify_message_dialog.html#ae37dec200b27f23c409221511447ae1e" target="_top" xlink:title="SignVerifyMessageDialog\l::on_verifyMessageButton\l_VM_clicked">
<polygon fill="#ffffff" stroke="#000000" points="804.6777,-65.5 804.6777,-103.5 936.2979,-103.5 936.2979,-65.5 804.6777,-65.5"/>
<text text-anchor="start" x="812.6777" y="-91.5" font-family="Helvetica,sans-Serif" font-size="10.00" fill="#000000">SignVerifyMessageDialog</text>
<text text-anchor="start" x="812.6777" y="-81.5" font-family="Helvetica,sans-Serif" font-size="10.00" fill="#000000">::on_verifyMessageButton</text>
<text text-anchor="middle" x="870.4878" y="-71.5" font-family="Helvetica,sans-Serif" font-size="10.00" fill="#000000">_VM_clicked</text>
</a>
</g>
</g>
<!-- Node586&#45;&gt;Node587 -->
<g id="edge44" class="edge">
<title>Node586&#45;&gt;Node587</title>
<path fill="none" stroke="#191970" d="M755.6132,-84.5C771.599,-84.5 788.5584,-84.5 804.3985,-84.5"/>
<polygon fill="#191970" stroke="#191970" points="755.2704,-81.0001 745.2704,-84.5 755.2703,-88.0001 755.2704,-81.0001"/>
</g>
<!-- Node588 -->
<g id="node43" class="node">
<title>Node588</title>
<g id="a_node43"><a xlink:href="interpreter_8h.html#ad7fa04f3c495a5f5ae7a97bc15cf0ce0" target="_top" xlink:title="SignatureHash">
<polygon fill="#ffffff" stroke="#000000" points="829.4116,-28.5 829.4116,-46.5 911.564,-46.5 911.564,-28.5 829.4116,-28.5"/>
<text text-anchor="middle" x="870.4878" y="-34.5" font-family="Helvetica,sans-Serif" font-size="10.00" fill="#000000">SignatureHash</text>
</a>
</g>
</g>
<!-- Node586&#45;&gt;Node588 -->
<g id="edge45" class="edge">
<title>Node586&#45;&gt;Node588</title>
<path fill="none" stroke="#191970" d="M739.859,-73.3C749.479,-71.1469 759.3941,-68.8328 768.6777,-66.5 775.6292,-64.7532 811.9145,-54.3665 839.2017,-46.5185"/>
<polygon fill="#191970" stroke="#191970" points="738.9907,-69.9073 729.9795,-75.4795 740.4988,-76.7429 738.9907,-69.9073"/>
</g>
<!-- Node589 -->
<g id="node44" class="node">
<title>Node589</title>
<g id="a_node44"><a xlink:href="class_generic_transaction_signature_checker.html#ac2f7d09fbb8afa5bde71fbc5ff6e1e19" target="_top" xlink:title="GenericTransactionSignature\lChecker::CheckSig">
<polygon fill="#ffffff" stroke="#000000" points="979.5146,-47.5 979.5146,-75.5 1125.2168,-75.5 1125.2168,-47.5 979.5146,-47.5"/>
<text text-anchor="start" x="987.5146" y="-63.5" font-family="Helvetica,sans-Serif" font-size="10.00" fill="#000000">GenericTransactionSignature</text>
<text text-anchor="middle" x="1052.3657" y="-53.5" font-family="Helvetica,sans-Serif" font-size="10.00" fill="#000000">Checker::CheckSig</text>
</a>
</g>
</g>
<!-- Node588&#45;&gt;Node589 -->
<g id="edge46" class="edge">
<title>Node588&#45;&gt;Node589</title>
<path fill="none" stroke="#191970" d="M921.7077,-44.2588C939.6315,-46.624 960.1173,-49.3272 979.4677,-51.8806"/>
<polygon fill="#191970" stroke="#191970" points="922.1307,-40.7844 911.7587,-42.946 921.2149,-47.7242 922.1307,-40.7844"/>
</g>
<!-- Node590 -->
<g id="node45" class="node">
<title>Node590</title>
<g id="a_node45"><a xlink:href="class_mutable_transaction_signature_creator.html#ad66cfa8bc9e1222e30125c90d1ecaddf" target="_top" xlink:title="Create a singular (non&#45;script) signature. ">
<polygon fill="#ffffff" stroke="#000000" points="979.2339,-.5 979.2339,-28.5 1125.4976,-28.5 1125.4976,-.5 979.2339,-.5"/>
<text text-anchor="start" x="987.2339" y="-16.5" font-family="Helvetica,sans-Serif" font-size="10.00" fill="#000000">MutableTransactionSignature</text>
<text text-anchor="middle" x="1052.3657" y="-6.5" font-family="Helvetica,sans-Serif" font-size="10.00" fill="#000000">Creator::CreateSig</text>
</a>
</g>
</g>
<!-- Node588&#45;&gt;Node590 -->
<g id="edge47" class="edge">
<title>Node588&#45;&gt;Node590</title>
<path fill="none" stroke="#191970" d="M921.9029,-30.9981C939.6683,-28.7515 959.9322,-26.189 979.1056,-23.7644"/>
<polygon fill="#191970" stroke="#191970" points="921.2406,-27.5539 911.7587,-32.2809 922.1188,-34.4986 921.2406,-27.5539"/>
</g>
<!-- Node595 -->
<g id="node50" class="node">
<title>Node595</title>
<g id="a_node50"><a xlink:href="class_c_s_h_a3512.html#a4d16a07bc687ed694e67160aae3f1831" target="_top" xlink:title="CSHA3512::Reset">
<polygon fill="#ffffff" stroke="#000000" points="322.689,-1.5 322.689,-19.5 420.3979,-19.5 420.3979,-1.5 322.689,-1.5"/>
<text text-anchor="middle" x="371.5435" y="-7.5" font-family="Helvetica,sans-Serif" font-size="10.00" fill="#000000">CSHA3512::Reset</text>
</a>
</g>
</g>
<!-- Node594&#45;&gt;Node595 -->
<g id="edge52" class="edge">
<title>Node594&#45;&gt;Node595</title>
<path fill="none" stroke="#191970" d="M258.492,-23.1898C279.2629,-20.8583 302.6173,-18.2368 322.6835,-15.9844"/>
<polygon fill="#191970" stroke="#191970" points="258.0758,-19.7144 248.5286,-24.3082 258.8567,-26.6708 258.0758,-19.7144"/>
</g>
</g>
</svg>
