<?xml version="1.0" encoding="UTF-8" standalone="no"?>
<!DOCTYPE svg PUBLIC "-//W3C//DTD SVG 1.1//EN"
 "http://www.w3.org/Graphics/SVG/1.1/DTD/svg11.dtd">
<!-- Generated by graphviz version 2.40.1 (20161225.0304)
 -->
<!-- Title: org.bitcoin.NativeSecp256k1.createECDHSecret Pages: 1 -->
<svg width="540pt" height="37pt"
 viewBox="0.00 0.00 540.47 37.00" xmlns="http://www.w3.org/2000/svg" xmlns:xlink="http://www.w3.org/1999/xlink">
<g id="graph0" class="graph" transform="scale(1 1) rotate(0) translate(4 33)">
<title>org.bitcoin.NativeSecp256k1.createECDHSecret</title>
<polygon fill="#ffffff" stroke="transparent" points="-4,4 -4,-33 536.4707,-33 536.4707,4 -4,4"/>
<!-- Node19 -->
<g id="node1" class="node">
<title>Node19</title>
<polygon fill="#bfbfbf" stroke="#000000" points="0,-.5 0,-28.5 173.8711,-28.5 173.8711,-.5 0,-.5"/>
<text text-anchor="start" x="8" y="-16.5" font-family="Helvetica,sans-Serif" font-size="10.00" fill="#000000">org.bitcoin.NativeSecp256k1.create</text>
<text text-anchor="middle" x="86.9355" y="-6.5" font-family="Helvetica,sans-Serif" font-size="10.00" fill="#000000">ECDHSecret</text>
</g>
<!-- Node20 -->
<g id="node2" class="node">
<title>Node20</title>
<g id="a_node2"><a xlink:href="classorg_1_1bitcoin_1_1_native_secp256k1_test.html#a7cce6002525d8c92702efef9e2e60db7" target="_top" xlink:title="org.bitcoin.NativeSecp256k1\lTest.testCreateECDHSecret">
<polygon fill="#ffffff" stroke="#000000" points="209.8711,-.5 209.8711,-28.5 353.1709,-28.5 353.1709,-.5 209.8711,-.5"/>
<text text-anchor="start" x="217.8711" y="-16.5" font-family="Helvetica,sans-Serif" font-size="10.00" fill="#000000">org.bitcoin.NativeSecp256k1</text>
<text text-anchor="middle" x="281.521" y="-6.5" font-family="Helvetica,sans-Serif" font-size="10.00" fill="#000000">Test.testCreateECDHSecret</text>
</a>
</g>
</g>
<!-- Node19&#45;&gt;Node20 -->
<g id="edge1" class="edge">
<title>Node19&#45;&gt;Node20</title>
<path fill="none" stroke="#191970" d="M184.0917,-14.5C192.7166,-14.5 201.3428,-14.5 209.6994,-14.5"/>
<polygon fill="#191970" stroke="#191970" points="183.9839,-11.0001 173.9838,-14.5 183.9838,-18.0001 183.9839,-11.0001"/>
</g>
<!-- Node21 -->
<g id="node3" class="node">
<title>Node21</title>
<g id="a_node3"><a xlink:href="classorg_1_1bitcoin_1_1_native_secp256k1_test.html#a1b8253d7aa2a0c18848c6afd070075ac" target="_top" xlink:title="org.bitcoin.NativeSecp256k1\lTest.main">
<polygon fill="#ffffff" stroke="#000000" points="389.1709,-.5 389.1709,-28.5 532.4707,-28.5 532.4707,-.5 389.1709,-.5"/>
<text text-anchor="start" x="397.1709" y="-16.5" font-family="Helvetica,sans-Serif" font-size="10.00" fill="#000000">org.bitcoin.NativeSecp256k1</text>
<text text-anchor="middle" x="460.8208" y="-6.5" font-family="Helvetica,sans-Serif" font-size="10.00" fill="#000000">Test.main</text>
</a>
</g>
</g>
<!-- Node20&#45;&gt;Node21 -->
<g id="edge2" class="edge">
<title>Node20&#45;&gt;Node21</title>
<path fill="none" stroke="#191970" d="M363.6394,-14.5C372.0738,-14.5 380.5977,-14.5 388.9097,-14.5"/>
<polygon fill="#191970" stroke="#191970" points="363.416,-11.0001 353.416,-14.5 363.4159,-18.0001 363.416,-11.0001"/>
</g>
</g>
</svg>
