<?xml version="1.0" encoding="UTF-8" standalone="no"?>
<!DOCTYPE svg PUBLIC "-//W3C//DTD SVG 1.1//EN"
 "http://www.w3.org/Graphics/SVG/1.1/DTD/svg11.dtd">
<!-- Generated by graphviz version 2.40.1 (20161225.0304)
 -->
<!-- Title: SendCoinsDialog::minimizeFeeSection Pages: 1 -->
<svg width="330pt" height="131pt"
 viewBox="0.00 0.00 330.02 131.00" xmlns="http://www.w3.org/2000/svg" xmlns:xlink="http://www.w3.org/1999/xlink">
<g id="graph0" class="graph" transform="scale(1 1) rotate(0) translate(4 127)">
<title>SendCoinsDialog::minimizeFeeSection</title>
<polygon fill="#ffffff" stroke="transparent" points="-4,4 -4,-127 326.0234,-127 326.0234,4 -4,4"/>
<!-- Node532 -->
<g id="node1" class="node">
<title>Node532</title>
<polygon fill="#bfbfbf" stroke="#000000" points="0,-47.5 0,-75.5 138.2754,-75.5 138.2754,-47.5 0,-47.5"/>
<text text-anchor="start" x="8" y="-63.5" font-family="Helvetica,sans-Serif" font-size="10.00" fill="#000000">SendCoinsDialog::minimize</text>
<text text-anchor="middle" x="69.1377" y="-53.5" font-family="Helvetica,sans-Serif" font-size="10.00" fill="#000000">FeeSection</text>
</g>
<!-- Node533 -->
<g id="node2" class="node">
<title>Node533</title>
<g id="a_node2"><a xlink:href="class_send_coins_dialog.html#affacd36b4df87a68e2fe706ef388c0a6" target="_top" xlink:title="SendCoinsDialog::SendCoins\lDialog">
<polygon fill="#ffffff" stroke="#000000" points="174.2754,-94.5 174.2754,-122.5 322.0234,-122.5 322.0234,-94.5 174.2754,-94.5"/>
<text text-anchor="start" x="182.2754" y="-110.5" font-family="Helvetica,sans-Serif" font-size="10.00" fill="#000000">SendCoinsDialog::SendCoins</text>
<text text-anchor="middle" x="248.1494" y="-100.5" font-family="Helvetica,sans-Serif" font-size="10.00" fill="#000000">Dialog</text>
</a>
</g>
</g>
<!-- Node532&#45;&gt;Node533 -->
<g id="edge1" class="edge">
<title>Node532&#45;&gt;Node533</title>
<path fill="none" stroke="#191970" d="M132.6477,-78.1747C152.9743,-83.5115 175.2597,-89.3626 194.7866,-94.4894"/>
<polygon fill="#191970" stroke="#191970" points="133.4081,-74.7558 122.8471,-75.6015 131.6305,-81.5263 133.4081,-74.7558"/>
</g>
<!-- Node534 -->
<g id="node3" class="node">
<title>Node534</title>
<g id="a_node3"><a xlink:href="class_send_coins_dialog.html#a315ae10ff0556586cca53dac04e8e327" target="_top" xlink:title="SendCoinsDialog::on\l_buttonChooseFee_clicked">
<polygon fill="#ffffff" stroke="#000000" points="179.5537,-47.5 179.5537,-75.5 316.7451,-75.5 316.7451,-47.5 179.5537,-47.5"/>
<text text-anchor="start" x="187.5537" y="-63.5" font-family="Helvetica,sans-Serif" font-size="10.00" fill="#000000">SendCoinsDialog::on</text>
<text text-anchor="middle" x="248.1494" y="-53.5" font-family="Helvetica,sans-Serif" font-size="10.00" fill="#000000">_buttonChooseFee_clicked</text>
</a>
</g>
</g>
<!-- Node532&#45;&gt;Node534 -->
<g id="edge2" class="edge">
<title>Node532&#45;&gt;Node534</title>
<path fill="none" stroke="#191970" d="M148.5585,-61.5C158.8493,-61.5 169.3202,-61.5 179.4178,-61.5"/>
<polygon fill="#191970" stroke="#191970" points="148.3483,-58.0001 138.3483,-61.5 148.3483,-65.0001 148.3483,-58.0001"/>
</g>
<!-- Node535 -->
<g id="node4" class="node">
<title>Node535</title>
<g id="a_node4"><a xlink:href="class_send_coins_dialog.html#ae2cdacd5d72154fda0c88b818d5c7c59" target="_top" xlink:title="SendCoinsDialog::on\l_buttonMinimizeFee_clicked">
<polygon fill="#ffffff" stroke="#000000" points="177.0635,-.5 177.0635,-28.5 319.2354,-28.5 319.2354,-.5 177.0635,-.5"/>
<text text-anchor="start" x="185.0635" y="-16.5" font-family="Helvetica,sans-Serif" font-size="10.00" fill="#000000">SendCoinsDialog::on</text>
<text text-anchor="middle" x="248.1494" y="-6.5" font-family="Helvetica,sans-Serif" font-size="10.00" fill="#000000">_buttonMinimizeFee_clicked</text>
</a>
</g>
</g>
<!-- Node532&#45;&gt;Node535 -->
<g id="edge3" class="edge">
<title>Node532&#45;&gt;Node535</title>
<path fill="none" stroke="#191970" d="M132.6477,-44.8253C152.9743,-39.4885 175.2597,-33.6374 194.7866,-28.5106"/>
<polygon fill="#191970" stroke="#191970" points="131.6305,-41.4737 122.8471,-47.3985 133.4081,-48.2442 131.6305,-41.4737"/>
</g>
</g>
</svg>
