<?xml version="1.0" encoding="UTF-8" standalone="no"?>
<!DOCTYPE svg PUBLIC "-//W3C//DTD SVG 1.1//EN"
 "http://www.w3.org/Graphics/SVG/1.1/DTD/svg11.dtd">
<!-- Generated by graphviz version 2.40.1 (20161225.0304)
 -->
<!-- Title: CConnman::SocketSendData Pages: 1 -->
<svg width="445pt" height="27pt"
 viewBox="0.00 0.00 445.17 27.00" xmlns="http://www.w3.org/2000/svg" xmlns:xlink="http://www.w3.org/1999/xlink">
<g id="graph0" class="graph" transform="scale(1 1) rotate(0) translate(4 23)">
<title>CConnman::SocketSendData</title>
<polygon fill="#ffffff" stroke="transparent" points="-4,4 -4,-23 441.1729,-23 441.1729,4 -4,4"/>
<!-- Node544 -->
<g id="node1" class="node">
<title>Node544</title>
<polygon fill="#bfbfbf" stroke="#000000" points="0,-.5 0,-18.5 147.1865,-18.5 147.1865,-.5 0,-.5"/>
<text text-anchor="middle" x="73.5933" y="-6.5" font-family="Helvetica,sans-Serif" font-size="10.00" fill="#000000">CConnman::SocketSendData</text>
</g>
<!-- Node545 -->
<g id="node2" class="node">
<title>Node545</title>
<g id="a_node2"><a xlink:href="utiltime_8cpp.html#a1c4021a78be4eeffa05732694ab4bab0" target="_top" xlink:title="GetSystemTimeInSeconds">
<polygon fill="#ffffff" stroke="#000000" points="183.1865,-.5 183.1865,-18.5 317.7559,-18.5 317.7559,-.5 183.1865,-.5"/>
<text text-anchor="middle" x="250.4712" y="-6.5" font-family="Helvetica,sans-Serif" font-size="10.00" fill="#000000">GetSystemTimeInSeconds</text>
</a>
</g>
</g>
<!-- Node544&#45;&gt;Node545 -->
<g id="edge1" class="edge">
<title>Node544&#45;&gt;Node545</title>
<path fill="none" stroke="#191970" d="M147.3246,-9.5C155.7485,-9.5 164.3555,-9.5 172.8283,-9.5"/>
<polygon fill="#191970" stroke="#191970" points="173.0755,-13.0001 183.0754,-9.5 173.0754,-6.0001 173.0755,-13.0001"/>
</g>
<!-- Node546 -->
<g id="node3" class="node">
<title>Node546</title>
<g id="a_node3"><a xlink:href="utiltime_8cpp.html#a0c5a06b50cd805b1923552114494c029" target="_top" xlink:title="GetTimeMicros">
<polygon fill="#ffffff" stroke="#000000" points="353.7559,-.5 353.7559,-18.5 437.1729,-18.5 437.1729,-.5 353.7559,-.5"/>
<text text-anchor="middle" x="395.4644" y="-6.5" font-family="Helvetica,sans-Serif" font-size="10.00" fill="#000000">GetTimeMicros</text>
</a>
</g>
</g>
<!-- Node545&#45;&gt;Node546 -->
<g id="edge2" class="edge">
<title>Node545&#45;&gt;Node546</title>
<path fill="none" stroke="#191970" d="M317.8741,-9.5C326.4018,-9.5 335.024,-9.5 343.2655,-9.5"/>
<polygon fill="#191970" stroke="#191970" points="343.4655,-13.0001 353.4655,-9.5 343.4655,-6.0001 343.4655,-13.0001"/>
</g>
</g>
</svg>
