<?xml version="1.0" encoding="UTF-8" standalone="no"?>
<!DOCTYPE svg PUBLIC "-//W3C//DTD SVG 1.1//EN"
 "http://www.w3.org/Graphics/SVG/1.1/DTD/svg11.dtd">
<!-- Generated by graphviz version 2.40.1 (20161225.0304)
 -->
<!-- Title: SingleThreadedSchedulerClient Pages: 1 -->
<svg width="241pt" height="158pt"
 viewBox="0.00 0.00 241.11 158.00" xmlns="http://www.w3.org/2000/svg" xmlns:xlink="http://www.w3.org/1999/xlink">
<g id="graph0" class="graph" transform="scale(1 1) rotate(0) translate(4 154)">
<title>SingleThreadedSchedulerClient</title>
<polygon fill="#ffffff" stroke="transparent" points="-4,4 -4,-154 237.1123,-154 237.1123,4 -4,4"/>
<!-- Node1 -->
<g id="node1" class="node">
<title>Node1</title>
<polygon fill="#bfbfbf" stroke="#000000" points="0,-.5 0,-18.5 157.2012,-18.5 157.2012,-.5 0,-.5"/>
<text text-anchor="middle" x="78.6006" y="-6.5" font-family="Helvetica,sans-Serif" font-size="10.00" fill="#000000">SingleThreadedSchedulerClient</text>
</g>
<!-- Node2 -->
<g id="node2" class="node">
<title>Node2</title>
<g id="a_node2"><a xlink:href="class_c_scheduler.html" target="_top" xlink:title="CScheduler">
<polygon fill="#ffffff" stroke="#000000" points=".4751,-70.5 .4751,-88.5 68.7261,-88.5 68.7261,-70.5 .4751,-70.5"/>
<text text-anchor="middle" x="34.6006" y="-76.5" font-family="Helvetica,sans-Serif" font-size="10.00" fill="#000000">CScheduler</text>
</a>
</g>
</g>
<!-- Node2&#45;&gt;Node1 -->
<g id="edge1" class="edge">
<title>Node2&#45;&gt;Node1</title>
<path fill="none" stroke="#9a32cd" stroke-dasharray="5,2" d="M36.0359,-60.4102C37.3019,-52.6873 39.6548,-43.9696 44.0098,-37 48.6443,-29.5829 56.0107,-23.3183 62.7568,-18.6506"/>
<polygon fill="#9a32cd" stroke="#9a32cd" points="32.5554,-60.0409 34.8746,-70.3787 39.5083,-60.8509 32.5554,-60.0409"/>
<text text-anchor="middle" x="77.396" y="-39" font-family="Helvetica,sans-Serif" font-size="10.00" fill="#000000"> m_pscheduler</text>
</g>
<!-- Node3 -->
<g id="node3" class="node">
<title>Node3</title>
<g id="a_node3"><a xlink:href="class_annotated_mixin.html" target="_top" xlink:title="AnnotatedMixin\&lt; std\l::recursive_mutex \&gt;">
<polygon fill="#ffffff" stroke="#000000" points="87.1563,-65.5 87.1563,-93.5 194.0449,-93.5 194.0449,-65.5 87.1563,-65.5"/>
<text text-anchor="start" x="95.1563" y="-81.5" font-family="Helvetica,sans-Serif" font-size="10.00" fill="#000000">AnnotatedMixin&lt; std</text>
<text text-anchor="middle" x="140.6006" y="-71.5" font-family="Helvetica,sans-Serif" font-size="10.00" fill="#000000">::recursive_mutex &gt;</text>
</a>
</g>
</g>
<!-- Node3&#45;&gt;Node1 -->
<g id="edge2" class="edge">
<title>Node3&#45;&gt;Node1</title>
<path fill="none" stroke="#9a32cd" stroke-dasharray="5,2" d="M125.2748,-56.6004C120.5254,-50.0433 115.0904,-43.0405 109.6006,-37 103.6006,-30.3981 96.1399,-23.7398 90.0412,-18.6286"/>
<polygon fill="#9a32cd" stroke="#9a32cd" points="122.6557,-58.9611 131.267,-65.1333 128.3843,-54.9381 122.6557,-58.9611"/>
<text text-anchor="middle" x="175.8564" y="-39" font-family="Helvetica,sans-Serif" font-size="10.00" fill="#000000"> m_cs_callbacks_pending</text>
</g>
<!-- Node4 -->
<g id="node4" class="node">
<title>Node4</title>
<polygon fill="#ffffff" stroke="#bfbfbf" points="86.4727,-131.5 86.4727,-149.5 194.7285,-149.5 194.7285,-131.5 86.4727,-131.5"/>
<text text-anchor="middle" x="140.6006" y="-137.5" font-family="Helvetica,sans-Serif" font-size="10.00" fill="#000000">std::recursive_mutex</text>
</g>
<!-- Node4&#45;&gt;Node3 -->
<g id="edge3" class="edge">
<title>Node4&#45;&gt;Node3</title>
<path fill="none" stroke="#191970" d="M140.6006,-121.2842C140.6006,-112.3664 140.6006,-101.9504 140.6006,-93.7488"/>
<polygon fill="#191970" stroke="#191970" points="137.1007,-121.4992 140.6006,-131.4992 144.1007,-121.4993 137.1007,-121.4992"/>
</g>
</g>
</svg>
