<?xml version="1.0" encoding="UTF-8" standalone="no"?>
<!DOCTYPE svg PUBLIC "-//W3C//DTD SVG 1.1//EN"
 "http://www.w3.org/Graphics/SVG/1.1/DTD/svg11.dtd">
<!-- Generated by graphviz version 2.40.1 (20161225.0304)
 -->
<!-- Title: KeccakCore::blockSize Pages: 1 -->
<svg width="465pt" height="156pt"
 viewBox="0.00 0.00 465.36 156.00" xmlns="http://www.w3.org/2000/svg" xmlns:xlink="http://www.w3.org/1999/xlink">
<g id="graph0" class="graph" transform="scale(1 1) rotate(0) translate(4 152)">
<title>KeccakCore::blockSize</title>
<polygon fill="#ffffff" stroke="transparent" points="-4,4 -4,-152 461.3584,-152 461.3584,4 -4,4"/>
<!-- Node6 -->
<g id="node1" class="node">
<title>Node6</title>
<polygon fill="#bfbfbf" stroke="#000000" points="0,-37.5 0,-55.5 118.8223,-55.5 118.8223,-37.5 0,-37.5"/>
<text text-anchor="middle" x="59.4111" y="-43.5" font-family="Helvetica,sans-Serif" font-size="10.00" fill="#000000">KeccakCore::blockSize</text>
</g>
<!-- Node7 -->
<g id="node2" class="node">
<title>Node7</title>
<g id="a_node2"><a xlink:href="class_keccak_core.html#aeff6b3357916bf426b60d3629db52628" target="_top" xlink:title="Sets a HMAC key for a Keccak&#45;based hash algorithm. ">
<polygon fill="#ffffff" stroke="#000000" points="154.8223,-74.5 154.8223,-92.5 290.8613,-92.5 290.8613,-74.5 154.8223,-74.5"/>
<text text-anchor="middle" x="222.8418" y="-80.5" font-family="Helvetica,sans-Serif" font-size="10.00" fill="#000000">KeccakCore::setHMACKey</text>
</a>
</g>
</g>
<!-- Node6&#45;&gt;Node7 -->
<g id="edge1" class="edge">
<title>Node6&#45;&gt;Node7</title>
<path fill="none" stroke="#191970" d="M109.2398,-57.781C132.892,-63.1357 160.7713,-69.4475 182.992,-74.4782"/>
<polygon fill="#191970" stroke="#191970" points="109.9168,-54.3458 99.3908,-55.5512 108.3711,-61.173 109.9168,-54.3458"/>
</g>
<!-- Node12 -->
<g id="node7" class="node">
<title>Node12</title>
<g id="a_node7"><a xlink:href="class_s_h_a3__256.html#a027a55196ea8061761b1ebbaca92881d" target="_top" xlink:title="Size of the internal block used by the hash algorithm. ">
<polygon fill="#ffffff" stroke="#000000" points="166.48,-37.5 166.48,-55.5 279.2036,-55.5 279.2036,-37.5 166.48,-37.5"/>
<text text-anchor="middle" x="222.8418" y="-43.5" font-family="Helvetica,sans-Serif" font-size="10.00" fill="#000000">SHA3_256::blockSize</text>
</a>
</g>
</g>
<!-- Node6&#45;&gt;Node12 -->
<g id="edge6" class="edge">
<title>Node6&#45;&gt;Node12</title>
<path fill="none" stroke="#191970" d="M129.198,-46.5C141.6227,-46.5 154.4234,-46.5 166.4177,-46.5"/>
<polygon fill="#191970" stroke="#191970" points="128.8757,-43.0001 118.8757,-46.5 128.8756,-50.0001 128.8757,-43.0001"/>
</g>
<!-- Node13 -->
<g id="node8" class="node">
<title>Node13</title>
<g id="a_node8"><a xlink:href="class_s_h_a3__512.html#adf7107b04683a6477dc7bc7d3df84342" target="_top" xlink:title="Size of the internal block used by the hash algorithm. ">
<polygon fill="#ffffff" stroke="#000000" points="166.48,-.5 166.48,-18.5 279.2036,-18.5 279.2036,-.5 166.48,-.5"/>
<text text-anchor="middle" x="222.8418" y="-6.5" font-family="Helvetica,sans-Serif" font-size="10.00" fill="#000000">SHA3_512::blockSize</text>
</a>
</g>
</g>
<!-- Node6&#45;&gt;Node13 -->
<g id="edge7" class="edge">
<title>Node6&#45;&gt;Node13</title>
<path fill="none" stroke="#191970" d="M109.2398,-35.219C132.892,-29.8643 160.7713,-23.5525 182.992,-18.5218"/>
<polygon fill="#191970" stroke="#191970" points="108.3711,-31.827 99.3908,-37.4488 109.9168,-38.6542 108.3711,-31.827"/>
</g>
<!-- Node8 -->
<g id="node3" class="node">
<title>Node8</title>
<g id="a_node3"><a xlink:href="class_s_h_a3__256.html#a324fe4d268bbf23d7b492033fe3bc632" target="_top" xlink:title="Resets the hash ready for a new HMAC hashing process. ">
<polygon fill="#ffffff" stroke="#000000" points="331.3096,-129.5 331.3096,-147.5 452.9102,-147.5 452.9102,-129.5 331.3096,-129.5"/>
<text text-anchor="middle" x="392.1099" y="-135.5" font-family="Helvetica,sans-Serif" font-size="10.00" fill="#000000">SHA3_256::resetHMAC</text>
</a>
</g>
</g>
<!-- Node7&#45;&gt;Node8 -->
<g id="edge2" class="edge">
<title>Node7&#45;&gt;Node8</title>
<path fill="none" stroke="#191970" d="M256.0701,-96.0131C276.3902,-103.4916 302.983,-112.9705 326.8613,-120.5 336.7235,-123.6098 347.5155,-126.7086 357.4327,-129.4365"/>
<polygon fill="#191970" stroke="#191970" points="257.2312,-92.7108 246.638,-92.5198 254.8,-99.2751 257.2312,-92.7108"/>
</g>
<!-- Node9 -->
<g id="node4" class="node">
<title>Node9</title>
<g id="a_node4"><a xlink:href="class_s_h_a3__256.html#a001215fa1b7d2c30717b4b5b1618d68c" target="_top" xlink:title="Finalizes the HMAC hashing process and returns the hash. ">
<polygon fill="#ffffff" stroke="#000000" points="326.8613,-92.5 326.8613,-110.5 457.3584,-110.5 457.3584,-92.5 326.8613,-92.5"/>
<text text-anchor="middle" x="392.1099" y="-98.5" font-family="Helvetica,sans-Serif" font-size="10.00" fill="#000000">SHA3_256::finalizeHMAC</text>
</a>
</g>
</g>
<!-- Node7&#45;&gt;Node9 -->
<g id="edge3" class="edge">
<title>Node7&#45;&gt;Node9</title>
<path fill="none" stroke="#191970" d="M301.1931,-91.8319C309.756,-92.7425 318.4053,-93.6622 326.7875,-94.5536"/>
<polygon fill="#191970" stroke="#191970" points="301.5158,-88.3466 291.2017,-90.7694 300.7755,-95.3073 301.5158,-88.3466"/>
</g>
<!-- Node10 -->
<g id="node5" class="node">
<title>Node10</title>
<g id="a_node5"><a xlink:href="class_s_h_a3__512.html#aac7133f420f2be0288965c2e863f389b" target="_top" xlink:title="Resets the hash ready for a new HMAC hashing process. ">
<polygon fill="#ffffff" stroke="#000000" points="331.3096,-55.5 331.3096,-73.5 452.9102,-73.5 452.9102,-55.5 331.3096,-55.5"/>
<text text-anchor="middle" x="392.1099" y="-61.5" font-family="Helvetica,sans-Serif" font-size="10.00" fill="#000000">SHA3_512::resetHMAC</text>
</a>
</g>
</g>
<!-- Node7&#45;&gt;Node10 -->
<g id="edge4" class="edge">
<title>Node7&#45;&gt;Node10</title>
<path fill="none" stroke="#191970" d="M301.1931,-74.7052C311.2453,-73.5769 321.4163,-72.4352 331.1347,-71.3443"/>
<polygon fill="#191970" stroke="#191970" points="300.7488,-71.233 291.2017,-75.8267 301.5297,-78.1893 300.7488,-71.233"/>
</g>
<!-- Node11 -->
<g id="node6" class="node">
<title>Node11</title>
<g id="a_node6"><a xlink:href="class_s_h_a3__512.html#a25c9d2da26d01d46ba6b72c8a7905ea0" target="_top" xlink:title="Finalizes the HMAC hashing process and returns the hash. ">
<polygon fill="#ffffff" stroke="#000000" points="326.8613,-18.5 326.8613,-36.5 457.3584,-36.5 457.3584,-18.5 326.8613,-18.5"/>
<text text-anchor="middle" x="392.1099" y="-24.5" font-family="Helvetica,sans-Serif" font-size="10.00" fill="#000000">SHA3_512::finalizeHMAC</text>
</a>
</g>
</g>
<!-- Node7&#45;&gt;Node11 -->
<g id="edge5" class="edge">
<title>Node7&#45;&gt;Node11</title>
<path fill="none" stroke="#191970" d="M273.283,-71.5316C279.2727,-69.7061 285.2482,-67.6911 290.8613,-65.5 307.7145,-58.9213 310.0905,-53.2859 326.8613,-46.5 336.1577,-42.7384 346.4741,-39.3801 356.1081,-36.572"/>
<polygon fill="#191970" stroke="#191970" points="271.8907,-68.2903 263.2507,-74.4223 273.8289,-75.0166 271.8907,-68.2903"/>
</g>
</g>
</svg>
