<?xml version="1.0" encoding="UTF-8" standalone="no"?>
<!DOCTYPE svg PUBLIC "-//W3C//DTD SVG 1.1//EN"
 "http://www.w3.org/Graphics/SVG/1.1/DTD/svg11.dtd">
<!-- Generated by graphviz version 2.40.1 (20161225.0304)
 -->
<!-- Title: TransactionView::updateWatchOnlyColumn Pages: 1 -->
<svg width="665pt" height="37pt"
 viewBox="0.00 0.00 665.44 37.00" xmlns="http://www.w3.org/2000/svg" xmlns:xlink="http://www.w3.org/1999/xlink">
<g id="graph0" class="graph" transform="scale(1 1) rotate(0) translate(4 33)">
<title>TransactionView::updateWatchOnlyColumn</title>
<polygon fill="#ffffff" stroke="transparent" points="-4,4 -4,-33 661.4395,-33 661.4395,4 -4,4"/>
<!-- Node305 -->
<g id="node1" class="node">
<title>Node305</title>
<polygon fill="#bfbfbf" stroke="#000000" points="0,-.5 0,-28.5 153.4951,-28.5 153.4951,-.5 0,-.5"/>
<text text-anchor="start" x="8" y="-16.5" font-family="Helvetica,sans-Serif" font-size="10.00" fill="#000000">TransactionView::updateWatch</text>
<text text-anchor="middle" x="76.7476" y="-6.5" font-family="Helvetica,sans-Serif" font-size="10.00" fill="#000000">OnlyColumn</text>
</g>
<!-- Node306 -->
<g id="node2" class="node">
<title>Node306</title>
<g id="a_node2"><a xlink:href="class_transaction_view.html#a4920c2cd57d72eb50248948fa160c83c" target="_top" xlink:title="TransactionView::setModel">
<polygon fill="#ffffff" stroke="#000000" points="189.4951,-5.5 189.4951,-23.5 325.0068,-23.5 325.0068,-5.5 189.4951,-5.5"/>
<text text-anchor="middle" x="257.251" y="-11.5" font-family="Helvetica,sans-Serif" font-size="10.00" fill="#000000">TransactionView::setModel</text>
</a>
</g>
</g>
<!-- Node305&#45;&gt;Node306 -->
<g id="edge1" class="edge">
<title>Node305&#45;&gt;Node306</title>
<path fill="none" stroke="#191970" d="M163.6549,-14.5C172.2872,-14.5 180.9604,-14.5 189.358,-14.5"/>
<polygon fill="#191970" stroke="#191970" points="163.559,-11.0001 153.559,-14.5 163.559,-18.0001 163.559,-11.0001"/>
</g>
<!-- Node307 -->
<g id="node3" class="node">
<title>Node307</title>
<g id="a_node3"><a xlink:href="class_wallet_view.html#a0a37ff693a4f9c1e5ddc23f9cd3913be" target="_top" xlink:title="Set the wallet model. ">
<polygon fill="#ffffff" stroke="#000000" points="361.0068,-5.5 361.0068,-23.5 499.4727,-23.5 499.4727,-5.5 361.0068,-5.5"/>
<text text-anchor="middle" x="430.2397" y="-11.5" font-family="Helvetica,sans-Serif" font-size="10.00" fill="#000000">WalletView::setWalletModel</text>
</a>
</g>
</g>
<!-- Node306&#45;&gt;Node307 -->
<g id="edge2" class="edge">
<title>Node306&#45;&gt;Node307</title>
<path fill="none" stroke="#191970" d="M335.4008,-14.5C343.888,-14.5 352.4834,-14.5 360.8559,-14.5"/>
<polygon fill="#191970" stroke="#191970" points="335.1243,-11.0001 325.1242,-14.5 335.1242,-18.0001 335.1243,-11.0001"/>
</g>
<!-- Node308 -->
<g id="node4" class="node">
<title>Node308</title>
<g id="a_node4"><a xlink:href="class_wallet_frame.html#a06cb28194836995e50cc46716b2227ff" target="_top" xlink:title="WalletFrame::addWallet">
<polygon fill="#ffffff" stroke="#000000" points="535.4727,-5.5 535.4727,-23.5 657.4395,-23.5 657.4395,-5.5 535.4727,-5.5"/>
<text text-anchor="middle" x="596.4561" y="-11.5" font-family="Helvetica,sans-Serif" font-size="10.00" fill="#000000">WalletFrame::addWallet</text>
</a>
</g>
</g>
<!-- Node307&#45;&gt;Node308 -->
<g id="edge3" class="edge">
<title>Node307&#45;&gt;Node308</title>
<path fill="none" stroke="#191970" d="M509.8178,-14.5C518.4179,-14.5 527.0685,-14.5 535.4003,-14.5"/>
<polygon fill="#191970" stroke="#191970" points="509.7674,-11.0001 499.7673,-14.5 509.7673,-18.0001 509.7674,-11.0001"/>
</g>
</g>
</svg>
