<?xml version="1.0" encoding="UTF-8" standalone="no"?>
<!DOCTYPE svg PUBLIC "-//W3C//DTD SVG 1.1//EN"
 "http://www.w3.org/Graphics/SVG/1.1/DTD/svg11.dtd">
<!-- Generated by graphviz version 2.40.1 (20161225.0304)
 -->
<!-- Title: CBlockPolicyEstimator::processBlockTx Pages: 1 -->
<svg width="311pt" height="148pt"
 viewBox="0.00 0.00 311.07 148.00" xmlns="http://www.w3.org/2000/svg" xmlns:xlink="http://www.w3.org/1999/xlink">
<g id="graph0" class="graph" transform="scale(1 1) rotate(0) translate(4 144)">
<title>CBlockPolicyEstimator::processBlockTx</title>
<polygon fill="#ffffff" stroke="transparent" points="-4,4 -4,-144 307.0684,-144 307.0684,4 -4,4"/>
<!-- Node81 -->
<g id="node1" class="node">
<title>Node81</title>
<polygon fill="#bfbfbf" stroke="#000000" points="0,-50.5 0,-78.5 116.5811,-78.5 116.5811,-50.5 0,-50.5"/>
<text text-anchor="start" x="8" y="-66.5" font-family="Helvetica,sans-Serif" font-size="10.00" fill="#000000">CBlockPolicyEstimator</text>
<text text-anchor="middle" x="58.2905" y="-56.5" font-family="Helvetica,sans-Serif" font-size="10.00" fill="#000000">::processBlockTx</text>
</g>
<!-- Node82 -->
<g id="node2" class="node">
<title>Node82</title>
<g id="a_node2"><a xlink:href="class_c_block_policy_estimator.html#a7ee67e2a7b6a0a642526a14f7799c075" target="_top" xlink:title="Remove a transaction from the mempool tracking stats. ">
<polygon fill="#ffffff" stroke="#000000" points="169.5342,-111.5 169.5342,-139.5 286.1152,-139.5 286.1152,-111.5 169.5342,-111.5"/>
<text text-anchor="start" x="177.5342" y="-127.5" font-family="Helvetica,sans-Serif" font-size="10.00" fill="#000000">CBlockPolicyEstimator</text>
<text text-anchor="middle" x="227.8247" y="-117.5" font-family="Helvetica,sans-Serif" font-size="10.00" fill="#000000">::removeTx</text>
</a>
</g>
</g>
<!-- Node81&#45;&gt;Node82 -->
<g id="edge1" class="edge">
<title>Node81&#45;&gt;Node82</title>
<path fill="none" stroke="#191970" d="M91.1878,-78.5711C109.1807,-86.0606 131.9479,-95.2042 152.5811,-102.5 158.1087,-104.4546 163.898,-106.4003 169.7057,-108.2851"/>
<polygon fill="#191970" stroke="#191970" points="168.8637,-111.6901 179.4543,-111.3906 170.9884,-105.0204 168.8637,-111.6901"/>
</g>
<!-- Node83 -->
<g id="node3" class="node">
<title>Node83</title>
<g id="a_node3"><a xlink:href="class_c_tx_mem_pool_entry.html#a2deed4202061edf8b040a3f554417c20" target="_top" xlink:title="CTxMemPoolEntry::GetTx">
<polygon fill="#ffffff" stroke="#000000" points="161.48,-74.5 161.48,-92.5 294.1694,-92.5 294.1694,-74.5 161.48,-74.5"/>
<text text-anchor="middle" x="227.8247" y="-80.5" font-family="Helvetica,sans-Serif" font-size="10.00" fill="#000000">CTxMemPoolEntry::GetTx</text>
</a>
</g>
</g>
<!-- Node81&#45;&gt;Node83 -->
<g id="edge2" class="edge">
<title>Node81&#45;&gt;Node83</title>
<path fill="none" stroke="#191970" d="M116.6346,-71.0387C127.7467,-72.2841 139.532,-73.6049 151.1148,-74.903"/>
<polygon fill="#191970" stroke="#191970" points="150.8919,-78.3998 161.2195,-76.0354 151.6716,-71.4434 150.8919,-78.3998"/>
</g>
<!-- Node84 -->
<g id="node4" class="node">
<title>Node84</title>
<g id="a_node4"><a xlink:href="class_c_transaction.html#a7efd1379de830341417c0bfa23a149aa" target="_top" xlink:title="CTransaction::GetHash">
<polygon fill="#ffffff" stroke="#000000" points="167.7642,-37.5 167.7642,-55.5 287.8853,-55.5 287.8853,-37.5 167.7642,-37.5"/>
<text text-anchor="middle" x="227.8247" y="-43.5" font-family="Helvetica,sans-Serif" font-size="10.00" fill="#000000">CTransaction::GetHash</text>
</a>
</g>
</g>
<!-- Node81&#45;&gt;Node84 -->
<g id="edge3" class="edge">
<title>Node81&#45;&gt;Node84</title>
<path fill="none" stroke="#191970" d="M116.6346,-58.3054C129.7626,-56.9116 143.8302,-55.418 157.3934,-53.9779"/>
<polygon fill="#191970" stroke="#191970" points="158.0686,-57.426 167.6431,-52.8897 157.3294,-50.4651 158.0686,-57.426"/>
</g>
<!-- Node85 -->
<g id="node5" class="node">
<title>Node85</title>
<g id="a_node5"><a xlink:href="class_c_tx_mem_pool_entry.html#a319f8093929fc5b6c3c66ba53ac172b5" target="_top" xlink:title="CTxMemPoolEntry::GetHeight">
<polygon fill="#ffffff" stroke="#000000" points="152.5811,-.5 152.5811,-18.5 303.0684,-18.5 303.0684,-.5 152.5811,-.5"/>
<text text-anchor="middle" x="227.8247" y="-6.5" font-family="Helvetica,sans-Serif" font-size="10.00" fill="#000000">CTxMemPoolEntry::GetHeight</text>
</a>
</g>
</g>
<!-- Node81&#45;&gt;Node85 -->
<g id="edge4" class="edge">
<title>Node81&#45;&gt;Node85</title>
<path fill="none" stroke="#191970" d="M92.4328,-50.354C110.1935,-43.2796 132.364,-34.8877 152.5811,-28.5 160.7992,-25.9034 169.6085,-23.4182 178.2002,-21.1507"/>
<polygon fill="#191970" stroke="#191970" points="179.3246,-24.4755 188.1379,-18.5953 177.5813,-17.6961 179.3246,-24.4755"/>
</g>
</g>
</svg>
