<?xml version="1.0" encoding="UTF-8" standalone="no"?>
<!DOCTYPE svg PUBLIC "-//W3C//DTD SVG 1.1//EN"
 "http://www.w3.org/Graphics/SVG/1.1/DTD/svg11.dtd">
<!-- Generated by graphviz version 2.40.1 (20161225.0304)
 -->
<!-- Title: prevector::operator= Pages: 1 -->
<svg width="950pt" height="361pt"
 viewBox="0.00 0.00 950.47 361.16" xmlns="http://www.w3.org/2000/svg" xmlns:xlink="http://www.w3.org/1999/xlink">
<g id="graph0" class="graph" transform="scale(1 1) rotate(0) translate(4 357.1609)">
<title>prevector::operator=</title>
<polygon fill="#ffffff" stroke="transparent" points="-4,4 -4,-357.1609 946.4678,-357.1609 946.4678,4 -4,4"/>
<!-- Node1257 -->
<g id="node1" class="node">
<title>Node1257</title>
<polygon fill="#bfbfbf" stroke="#000000" points="0,-69.6609 0,-87.6609 106.3271,-87.6609 106.3271,-69.6609 0,-69.6609"/>
<text text-anchor="middle" x="53.1636" y="-75.6609" font-family="Helvetica,sans-Serif" font-size="10.00" fill="#000000">prevector::operator=</text>
</g>
<!-- Node1258 -->
<g id="node2" class="node">
<title>Node1258</title>
<g id="a_node2"><a xlink:href="classprevector.html#aecbf4de43de23c1b01a2e39bf974f14e" target="_top" xlink:title="prevector::assign">
<polygon fill="#ffffff" stroke="#000000" points="142.3271,-164.6609 142.3271,-182.6609 234.4746,-182.6609 234.4746,-164.6609 142.3271,-164.6609"/>
<text text-anchor="middle" x="188.4009" y="-170.6609" font-family="Helvetica,sans-Serif" font-size="10.00" fill="#000000">prevector::assign</text>
</a>
</g>
</g>
<!-- Node1257&#45;&gt;Node1258 -->
<g id="edge1" class="edge">
<title>Node1257&#45;&gt;Node1258</title>
<path fill="none" stroke="#191970" d="M66.1307,-87.7699C89.3961,-104.1131 138.4429,-138.567 166.8392,-158.5145"/>
<polygon fill="#191970" stroke="#191970" points="165.0796,-161.5557 175.2743,-164.4399 169.1033,-155.8277 165.0796,-161.5557"/>
</g>
<!-- Node1267 -->
<g id="node11" class="node">
<title>Node1267</title>
<g id="a_node11"><a xlink:href="classprevector.html#aab7f6e13a3cac85cc340fc6b90c5365c" target="_top" xlink:title="prevector::end">
<polygon fill="#ffffff" stroke="#000000" points="549.2842,-71.6609 549.2842,-89.6609 629.21,-89.6609 629.21,-71.6609 549.2842,-71.6609"/>
<text text-anchor="middle" x="589.2471" y="-77.6609" font-family="Helvetica,sans-Serif" font-size="10.00" fill="#000000">prevector::end</text>
</a>
</g>
</g>
<!-- Node1257&#45;&gt;Node1267 -->
<g id="edge30" class="edge">
<title>Node1257&#45;&gt;Node1267</title>
<path fill="none" stroke="#191970" d="M106.5252,-78.86C210.2456,-79.247 437.7333,-80.0957 538.9563,-80.4733"/>
<polygon fill="#191970" stroke="#191970" points="539.2044,-83.9742 549.2174,-80.5116 539.2305,-76.9742 539.2044,-83.9742"/>
</g>
<!-- Node1273 -->
<g id="node17" class="node">
<title>Node1273</title>
<g id="a_node17"><a xlink:href="classprevector.html#aa9210cbe708412a70868d6e0bca844c9" target="_top" xlink:title="prevector::begin">
<polygon fill="#ffffff" stroke="#000000" points="270.4746,-13.6609 270.4746,-31.6609 358.1836,-31.6609 358.1836,-13.6609 270.4746,-13.6609"/>
<text text-anchor="middle" x="314.3291" y="-19.6609" font-family="Helvetica,sans-Serif" font-size="10.00" fill="#000000">prevector::begin</text>
</a>
</g>
</g>
<!-- Node1257&#45;&gt;Node1273 -->
<g id="edge28" class="edge">
<title>Node1257&#45;&gt;Node1273</title>
<path fill="none" stroke="#191970" d="M95.4146,-69.6013C140.8353,-59.8621 213.0973,-44.3674 262.0619,-33.8682"/>
<polygon fill="#191970" stroke="#191970" points="263.0949,-37.2264 272.1388,-31.7075 261.6272,-30.382 263.0949,-37.2264"/>
</g>
<!-- Node1259 -->
<g id="node3" class="node">
<title>Node1259</title>
<g id="a_node3"><a xlink:href="classprevector.html#a412f07b8bf5485dabe2fe9d6d5dfe763" target="_top" xlink:title="prevector::clear">
<polygon fill="#ffffff" stroke="#000000" points="271.8711,-183.6609 271.8711,-201.6609 356.7871,-201.6609 356.7871,-183.6609 271.8711,-183.6609"/>
<text text-anchor="middle" x="314.3291" y="-189.6609" font-family="Helvetica,sans-Serif" font-size="10.00" fill="#000000">prevector::clear</text>
</a>
</g>
</g>
<!-- Node1258&#45;&gt;Node1259 -->
<g id="edge2" class="edge">
<title>Node1258&#45;&gt;Node1259</title>
<path fill="none" stroke="#191970" d="M234.5768,-180.6279C243.349,-181.9515 252.5902,-183.3458 261.5489,-184.6975"/>
<polygon fill="#191970" stroke="#191970" points="261.0931,-188.1682 271.5034,-186.1994 262.1375,-181.2466 261.0931,-188.1682"/>
</g>
<!-- Node1264 -->
<g id="node8" class="node">
<title>Node1264</title>
<g id="a_node8"><a xlink:href="classprevector.html#a59f1d7bcbc751cfa0faddd7ffa184846" target="_top" xlink:title="prevector::item_ptr">
<polygon fill="#ffffff" stroke="#000000" points="694.3945,-107.6609 694.3945,-125.6609 793.7588,-125.6609 793.7588,-107.6609 694.3945,-107.6609"/>
<text text-anchor="middle" x="744.0767" y="-113.6609" font-family="Helvetica,sans-Serif" font-size="10.00" fill="#000000">prevector::item_ptr</text>
</a>
</g>
</g>
<!-- Node1258&#45;&gt;Node1264 -->
<g id="edge27" class="edge">
<title>Node1258&#45;&gt;Node1264</title>
<path fill="none" stroke="#191970" d="M208.0099,-164.5016C258.4086,-141.5285 397.147,-81.8586 520.0996,-61.6609 580.7511,-51.6976 599.4152,-44.3601 658.3945,-61.6609 684.3935,-69.2874 709.9762,-87.499 726.3202,-100.8858"/>
<polygon fill="#191970" stroke="#191970" points="724.0833,-103.5778 733.9782,-107.3648 728.6045,-98.2338 724.0833,-103.5778"/>
</g>
<!-- Node1268 -->
<g id="node12" class="node">
<title>Node1268</title>
<g id="a_node12"><a xlink:href="classprevector.html#a833f4c9e5c4804fb8ac57b708657af24" target="_top" xlink:title="prevector::capacity">
<polygon fill="#ffffff" stroke="#000000" points="539.2842,-296.6609 539.2842,-314.6609 639.21,-314.6609 639.21,-296.6609 539.2842,-296.6609"/>
<text text-anchor="middle" x="589.2471" y="-302.6609" font-family="Helvetica,sans-Serif" font-size="10.00" fill="#000000">prevector::capacity</text>
</a>
</g>
</g>
<!-- Node1258&#45;&gt;Node1268 -->
<g id="edge24" class="edge">
<title>Node1258&#45;&gt;Node1268</title>
<path fill="none" stroke="#191970" d="M197.5772,-182.9581C211.8501,-196.8578 240.824,-222.8907 270.4746,-236.6609 355.0525,-275.9403 462.736,-293.2376 528.7934,-300.5797"/>
<polygon fill="#191970" stroke="#191970" points="528.7123,-304.0909 539.0278,-301.6744 529.4568,-297.1306 528.7123,-304.0909"/>
</g>
<!-- Node1269 -->
<g id="node13" class="node">
<title>Node1269</title>
<g id="a_node13"><a xlink:href="classprevector.html#a0e673654d3b7d8d6f79534e17f68741a" target="_top" xlink:title="prevector::change_capacity">
<polygon fill="#ffffff" stroke="#000000" points="520.0996,-259.6609 520.0996,-277.6609 658.3945,-277.6609 658.3945,-259.6609 520.0996,-259.6609"/>
<text text-anchor="middle" x="589.2471" y="-265.6609" font-family="Helvetica,sans-Serif" font-size="10.00" fill="#000000">prevector::change_capacity</text>
</a>
</g>
</g>
<!-- Node1258&#45;&gt;Node1269 -->
<g id="edge25" class="edge">
<title>Node1258&#45;&gt;Node1269</title>
<path fill="none" stroke="#191970" d="M204.5653,-182.6616C220.7691,-191.3157 246.6627,-204.1572 270.4746,-211.6609 350.0026,-236.7223 444.3778,-251.877 509.7027,-260.1921"/>
<polygon fill="#191970" stroke="#191970" points="509.5743,-263.7031 519.9307,-261.4684 510.4411,-256.757 509.5743,-263.7031"/>
</g>
<!-- Node1272 -->
<g id="node16" class="node">
<title>Node1272</title>
<g id="a_node16"><a xlink:href="classprevector.html#adf0c95f81b436240afdae73855be7da8" target="_top" xlink:title="prevector::fill">
<polygon fill="#ffffff" stroke="#000000" points="552.9048,-108.6609 552.9048,-126.6609 625.5894,-126.6609 625.5894,-108.6609 552.9048,-108.6609"/>
<text text-anchor="middle" x="589.2471" y="-114.6609" font-family="Helvetica,sans-Serif" font-size="10.00" fill="#000000">prevector::fill</text>
</a>
</g>
</g>
<!-- Node1258&#45;&gt;Node1272 -->
<g id="edge26" class="edge">
<title>Node1258&#45;&gt;Node1272</title>
<path fill="none" stroke="#191970" d="M234.7746,-167.1823C311.8912,-156.4088 465.6278,-134.9311 542.7957,-124.1504"/>
<polygon fill="#191970" stroke="#191970" points="543.2934,-127.6149 552.7129,-122.7649 542.3248,-120.6823 543.2934,-127.6149"/>
</g>
<!-- Node1260 -->
<g id="node4" class="node">
<title>Node1260</title>
<g id="a_node4"><a xlink:href="classprevector.html#ad2d97a45e0d2872260e868a540d31860" target="_top" xlink:title="prevector::resize">
<polygon fill="#ffffff" stroke="#000000" points="394.1836,-183.6609 394.1836,-201.6609 484.0996,-201.6609 484.0996,-183.6609 394.1836,-183.6609"/>
<text text-anchor="middle" x="439.1416" y="-189.6609" font-family="Helvetica,sans-Serif" font-size="10.00" fill="#000000">prevector::resize</text>
</a>
</g>
</g>
<!-- Node1259&#45;&gt;Node1260 -->
<g id="edge3" class="edge">
<title>Node1259&#45;&gt;Node1260</title>
<path fill="none" stroke="#191970" d="M356.9334,-192.6609C365.656,-192.6609 374.9544,-192.6609 384.0432,-192.6609"/>
<polygon fill="#191970" stroke="#191970" points="384.1738,-196.161 394.1737,-192.6609 384.1737,-189.161 384.1738,-196.161"/>
</g>
<!-- Node1261 -->
<g id="node5" class="node">
<title>Node1261</title>
<g id="a_node5"><a xlink:href="classprevector.html#a626f7d206dbc24e5610631809762758b" target="_top" xlink:title="prevector::size">
<polygon fill="#ffffff" stroke="#000000" points="703.5645,-144.6609 703.5645,-162.6609 784.5889,-162.6609 784.5889,-144.6609 703.5645,-144.6609"/>
<text text-anchor="middle" x="744.0767" y="-150.6609" font-family="Helvetica,sans-Serif" font-size="10.00" fill="#000000">prevector::size</text>
</a>
</g>
</g>
<!-- Node1260&#45;&gt;Node1261 -->
<g id="edge4" class="edge">
<title>Node1260&#45;&gt;Node1261</title>
<path fill="none" stroke="#191970" d="M468.52,-201.6677C511.5555,-213.2978 593.6472,-229.496 658.3945,-206.6609 677.7705,-199.8274 677.0316,-188.6452 694.3945,-177.6609 700.3773,-173.876 707.0465,-170.2762 713.5071,-167.0701"/>
<polygon fill="#191970" stroke="#191970" points="715.1984,-170.1412 722.7191,-162.6787 712.1862,-163.8224 715.1984,-170.1412"/>
</g>
<!-- Node1263 -->
<g id="node7" class="node">
<title>Node1263</title>
<g id="a_node7"><a xlink:href="classprevector.html#a780af143deebcaaecb164fa1a2d98156" target="_top" xlink:title="prevector::erase">
<polygon fill="#ffffff" stroke="#000000" points="545.1191,-145.6609 545.1191,-163.6609 633.375,-163.6609 633.375,-145.6609 545.1191,-145.6609"/>
<text text-anchor="middle" x="589.2471" y="-151.6609" font-family="Helvetica,sans-Serif" font-size="10.00" fill="#000000">prevector::erase</text>
</a>
</g>
</g>
<!-- Node1260&#45;&gt;Node1263 -->
<g id="edge6" class="edge">
<title>Node1260&#45;&gt;Node1263</title>
<path fill="none" stroke="#191970" d="M474.7145,-183.6555C495.3894,-178.4215 521.652,-171.773 543.8117,-166.1631"/>
<polygon fill="#191970" stroke="#191970" points="544.8345,-169.5147 553.6697,-163.6675 543.1165,-162.7288 544.8345,-169.5147"/>
</g>
<!-- Node1260&#45;&gt;Node1264 -->
<g id="edge7" class="edge">
<title>Node1260&#45;&gt;Node1264</title>
<path fill="none" stroke="#191970" d="M484.4951,-197.9423C530.6832,-201.2767 603.1636,-200.7442 658.3945,-173.6609 679.5742,-163.2752 674.7474,-147.716 694.3945,-134.6609 696.9853,-132.9394 699.7613,-131.3582 702.6281,-129.9102"/>
<polygon fill="#191970" stroke="#191970" points="704.2765,-133.0072 711.9776,-125.7309 701.4198,-126.6166 704.2765,-133.0072"/>
</g>
<!-- Node1260&#45;&gt;Node1267 -->
<g id="edge11" class="edge">
<title>Node1260&#45;&gt;Node1267</title>
<path fill="none" stroke="#191970" d="M444.3217,-183.5592C455.5594,-164.6683 484.0889,-121.0992 520.0996,-98.6609 525.9708,-95.0026 532.5652,-92.084 539.2892,-89.7564"/>
<polygon fill="#191970" stroke="#191970" points="540.6162,-93.0111 549.1643,-86.7517 538.5785,-86.3142 540.6162,-93.0111"/>
</g>
<!-- Node1260&#45;&gt;Node1268 -->
<g id="edge14" class="edge">
<title>Node1260&#45;&gt;Node1268</title>
<path fill="none" stroke="#191970" d="M444.296,-201.8606C455.485,-220.9544 483.9276,-264.9906 520.0996,-287.6609 523.2267,-289.6208 526.5607,-291.3682 530.0115,-292.9261"/>
<polygon fill="#191970" stroke="#191970" points="528.7701,-296.1988 539.3564,-296.623 531.3452,-289.6897 528.7701,-296.1988"/>
</g>
<!-- Node1260&#45;&gt;Node1269 -->
<g id="edge16" class="edge">
<title>Node1260&#45;&gt;Node1269</title>
<path fill="none" stroke="#191970" d="M451.2243,-201.7251C466.5961,-212.9432 494.2592,-232.0985 520.0996,-244.6609 529.0057,-248.9907 538.8972,-252.9084 548.3489,-256.2637"/>
<polygon fill="#191970" stroke="#191970" points="547.3851,-259.6329 557.9796,-259.5503 549.646,-253.0081 547.3851,-259.6329"/>
</g>
<!-- Node1260&#45;&gt;Node1272 -->
<g id="edge23" class="edge">
<title>Node1260&#45;&gt;Node1272</title>
<path fill="none" stroke="#191970" d="M458.5807,-183.6344C466.7392,-179.5074 476.1568,-174.2853 484.0996,-168.6609 501.8134,-156.1177 501.034,-146.0346 520.0996,-135.6609 527.1482,-131.8258 535.0497,-128.7795 542.923,-126.3683"/>
<polygon fill="#191970" stroke="#191970" points="544.1039,-129.6734 552.8145,-123.6422 542.2439,-122.925 544.1039,-129.6734"/>
</g>
<!-- Node1262 -->
<g id="node6" class="node">
<title>Node1262</title>
<g id="a_node6"><a xlink:href="classprevector.html#a933e204a7e29c6bbc85479d023c00ff8" target="_top" xlink:title="prevector::is_direct">
<polygon fill="#ffffff" stroke="#000000" points="835.8745,-248.6609 835.8745,-266.6609 936.3521,-266.6609 936.3521,-248.6609 835.8745,-248.6609"/>
<text text-anchor="middle" x="886.1133" y="-254.6609" font-family="Helvetica,sans-Serif" font-size="10.00" fill="#000000">prevector::is_direct</text>
</a>
</g>
</g>
<!-- Node1261&#45;&gt;Node1262 -->
<g id="edge5" class="edge">
<title>Node1261&#45;&gt;Node1262</title>
<path fill="none" stroke="#191970" d="M752.9144,-162.962C767.7593,-178.2319 799.0965,-208.9814 829.7588,-229.6609 837.6558,-234.9869 846.7104,-239.9328 855.2181,-244.1398"/>
<polygon fill="#191970" stroke="#191970" points="853.9666,-247.4203 864.5004,-248.5566 856.9743,-241.0994 853.9666,-247.4203"/>
</g>
<!-- Node1264&#45;&gt;Node1262 -->
<g id="edge8" class="edge">
<title>Node1264&#45;&gt;Node1262</title>
<path fill="none" stroke="#191970" d="M780.7147,-125.7275C785.5052,-128.0622 790.0342,-130.9905 793.7588,-134.6609 825.9189,-166.3539 799.4486,-196.1944 829.7588,-229.6609 834.952,-235.3949 841.5841,-240.0991 848.4617,-243.9045"/>
<polygon fill="#191970" stroke="#191970" points="847.3636,-247.2654 857.8804,-248.5489 850.4594,-240.9872 847.3636,-247.2654"/>
</g>
<!-- Node1265 -->
<g id="node9" class="node">
<title>Node1265</title>
<g id="a_node9"><a xlink:href="classprevector.html#a20150a43dd87c33f0e855a55bd3418e8" target="_top" xlink:title="prevector::direct_ptr">
<polygon fill="#ffffff" stroke="#000000" points="833.6504,-201.6609 833.6504,-219.6609 938.5762,-219.6609 938.5762,-201.6609 833.6504,-201.6609"/>
<text text-anchor="middle" x="886.1133" y="-207.6609" font-family="Helvetica,sans-Serif" font-size="10.00" fill="#000000">prevector::direct_ptr</text>
</a>
</g>
</g>
<!-- Node1264&#45;&gt;Node1265 -->
<g id="edge9" class="edge">
<title>Node1264&#45;&gt;Node1265</title>
<path fill="none" stroke="#191970" d="M776.1757,-125.7309C782.2719,-128.1506 788.4101,-131.1069 793.7588,-134.6609 813.4059,-147.716 811.7652,-158.4072 829.7588,-173.6609 839.465,-181.8891 851.0909,-189.8017 861.2554,-196.1828"/>
<polygon fill="#191970" stroke="#191970" points="859.7245,-199.349 870.0824,-201.5775 863.3749,-193.3762 859.7245,-199.349"/>
</g>
<!-- Node1266 -->
<g id="node10" class="node">
<title>Node1266</title>
<g id="a_node10"><a xlink:href="classprevector.html#ae3343cc65be9fd678b4a6f8305624de6" target="_top" xlink:title="prevector::indirect_ptr">
<polygon fill="#ffffff" stroke="#000000" points="829.7588,-145.6609 829.7588,-163.6609 942.4678,-163.6609 942.4678,-145.6609 829.7588,-145.6609"/>
<text text-anchor="middle" x="886.1133" y="-151.6609" font-family="Helvetica,sans-Serif" font-size="10.00" fill="#000000">prevector::indirect_ptr</text>
</a>
</g>
</g>
<!-- Node1264&#45;&gt;Node1266 -->
<g id="edge10" class="edge">
<title>Node1264&#45;&gt;Node1266</title>
<path fill="none" stroke="#191970" d="M777.7374,-125.6664C797.0541,-130.8343 821.5257,-137.3814 842.3251,-142.946"/>
<polygon fill="#191970" stroke="#191970" points="841.6371,-146.385 852.202,-145.5884 843.4463,-139.6228 841.6371,-146.385"/>
</g>
<!-- Node1267&#45;&gt;Node1261 -->
<g id="edge13" class="edge">
<title>Node1267&#45;&gt;Node1261</title>
<path fill="none" stroke="#191970" d="M629.4219,-87.2985C639.3004,-89.9432 649.5673,-93.6064 658.3945,-98.6609 678.0307,-109.9046 675.4099,-122.349 694.3945,-134.6609 697.6995,-136.8043 701.2825,-138.7609 704.959,-140.5334"/>
<polygon fill="#191970" stroke="#191970" points="703.6207,-143.7681 714.1858,-144.562 706.4218,-137.353 703.6207,-143.7681"/>
</g>
<!-- Node1267&#45;&gt;Node1264 -->
<g id="edge12" class="edge">
<title>Node1267&#45;&gt;Node1264</title>
<path fill="none" stroke="#191970" d="M628.3171,-89.7452C648.6565,-94.4744 673.7204,-100.3021 695.319,-105.3241"/>
<polygon fill="#191970" stroke="#191970" points="694.7547,-108.7862 705.2876,-107.6419 696.3401,-101.9681 694.7547,-108.7862"/>
</g>
<!-- Node1268&#45;&gt;Node1262 -->
<g id="edge15" class="edge">
<title>Node1268&#45;&gt;Node1262</title>
<path fill="none" stroke="#191970" d="M639.3916,-299.4328C680.8772,-294.0686 741.2903,-285.7691 793.7588,-276.6609 807.1252,-274.3406 821.5162,-271.5314 834.8677,-268.793"/>
<polygon fill="#191970" stroke="#191970" points="835.7613,-272.1822 844.8408,-266.722 834.338,-265.3284 835.7613,-272.1822"/>
</g>
<!-- Node1269&#45;&gt;Node1261 -->
<g id="edge22" class="edge">
<title>Node1269&#45;&gt;Node1261</title>
<path fill="none" stroke="#191970" d="M631.3869,-259.5786C641.0043,-256.0726 650.6581,-251.2558 658.3945,-244.6609 684.1202,-222.7313 669.9826,-201.0442 694.3945,-177.6609 698.5018,-173.7267 703.3765,-170.3264 708.4415,-167.424"/>
<polygon fill="#191970" stroke="#191970" points="710.3237,-170.3929 717.6397,-162.7295 707.1416,-164.158 710.3237,-170.3929"/>
</g>
<!-- Node1269&#45;&gt;Node1262 -->
<g id="edge17" class="edge">
<title>Node1269&#45;&gt;Node1262</title>
<path fill="none" stroke="#191970" d="M658.4743,-266.0958C709.1797,-264.217 777.3244,-261.692 825.8062,-259.8955"/>
<polygon fill="#191970" stroke="#191970" points="825.9764,-263.3917 835.8399,-259.5237 825.7172,-256.3965 825.9764,-263.3917"/>
</g>
<!-- Node1269&#45;&gt;Node1265 -->
<g id="edge19" class="edge">
<title>Node1269&#45;&gt;Node1265</title>
<path fill="none" stroke="#191970" d="M635.6324,-259.5984C687.9822,-249.3706 773.1548,-232.7301 829.4114,-221.739"/>
<polygon fill="#191970" stroke="#191970" points="830.4215,-225.1079 839.5648,-219.7553 829.0792,-218.2378 830.4215,-225.1079"/>
</g>
<!-- Node1269&#45;&gt;Node1266 -->
<g id="edge18" class="edge">
<title>Node1269&#45;&gt;Node1266</title>
<path fill="none" stroke="#191970" d="M610.0785,-259.6091C631.2095,-250.5062 664.9122,-236.2047 694.3945,-224.6609 748.4587,-203.4922 811.8581,-180.7442 850.4929,-167.1112"/>
<polygon fill="#191970" stroke="#191970" points="851.9624,-170.3045 860.2328,-163.6824 849.6379,-163.7017 851.9624,-170.3045"/>
</g>
<!-- Node1270 -->
<g id="node14" class="node">
<title>Node1270</title>
<g id="a_node14"><a xlink:href="glibc__compat_8cpp.html#a0f46826ab0466591e136db24394923cf" target="_top" xlink:title="memcpy">
<polygon fill="#ffffff" stroke="#000000" points="717.1851,-334.6609 717.1851,-352.6609 770.9683,-352.6609 770.9683,-334.6609 717.1851,-334.6609"/>
<text text-anchor="middle" x="744.0767" y="-340.6609" font-family="Helvetica,sans-Serif" font-size="10.00" fill="#000000">memcpy</text>
</a>
</g>
</g>
<!-- Node1269&#45;&gt;Node1270 -->
<g id="edge20" class="edge">
<title>Node1269&#45;&gt;Node1270</title>
<path fill="none" stroke="#191970" d="M630.5724,-277.7598C639.9174,-280.4326 649.6552,-283.7212 658.3945,-287.6609 682.5891,-298.5679 707.7145,-315.8074 724.4507,-328.2791"/>
<polygon fill="#191970" stroke="#191970" points="722.7474,-331.3807 732.8263,-334.6467 726.9839,-325.8083 722.7474,-331.3807"/>
</g>
<!-- Node1271 -->
<g id="node15" class="node">
<title>Node1271</title>
<g id="a_node15"><a xlink:href="glibc__compat_8cpp.html#a9778d49e9029dd75bc53ecbbf9f5e9a1" target="_top" xlink:title="memmove">
<polygon fill="#ffffff" stroke="#000000" points="854.7759,-334.6609 854.7759,-352.6609 917.4507,-352.6609 917.4507,-334.6609 854.7759,-334.6609"/>
<text text-anchor="middle" x="886.1133" y="-340.6609" font-family="Helvetica,sans-Serif" font-size="10.00" fill="#000000">memmove</text>
</a>
</g>
</g>
<!-- Node1270&#45;&gt;Node1271 -->
<g id="edge21" class="edge">
<title>Node1270&#45;&gt;Node1271</title>
<path fill="none" stroke="#191970" d="M771.127,-343.6609C791.8807,-343.6609 820.8934,-343.6609 844.5831,-343.6609"/>
<polygon fill="#191970" stroke="#191970" points="844.7064,-347.161 854.7064,-343.6609 844.7064,-340.161 844.7064,-347.161"/>
</g>
<!-- Node1273&#45;&gt;Node1264 -->
<g id="edge29" class="edge">
<title>Node1273&#45;&gt;Node1264</title>
<path fill="none" stroke="#191970" d="M355.9064,-13.6173C422.8042,-1.1535 557.0839,15.142 658.3945,-28.6609 691.9817,-43.1828 719.0407,-77.7782 733.2313,-99.0099"/>
<polygon fill="#191970" stroke="#191970" points="730.3088,-100.9362 738.6652,-107.4493 736.1943,-97.1466 730.3088,-100.9362"/>
</g>
</g>
</svg>
