<?xml version="1.0" encoding="UTF-8" standalone="no"?>
<!DOCTYPE svg PUBLIC "-//W3C//DTD SVG 1.1//EN"
 "http://www.w3.org/Graphics/SVG/1.1/DTD/svg11.dtd">
<!-- Generated by graphviz version 2.40.1 (20161225.0304)
 -->
<!-- Title: CConnman::GetUseAddrmanOutgoing Pages: 1 -->
<svg width="372pt" height="47pt"
 viewBox="0.00 0.00 371.88 47.00" xmlns="http://www.w3.org/2000/svg" xmlns:xlink="http://www.w3.org/1999/xlink">
<g id="graph0" class="graph" transform="scale(1 1) rotate(0) translate(4 43)">
<title>CConnman::GetUseAddrmanOutgoing</title>
<polygon fill="#ffffff" stroke="transparent" points="-4,4 -4,-43 367.8838,-43 367.8838,4 -4,4"/>
<!-- Node332 -->
<g id="node1" class="node">
<title>Node332</title>
<polygon fill="#bfbfbf" stroke="#000000" points="0,-10.5 0,-28.5 187.2012,-28.5 187.2012,-10.5 0,-10.5"/>
<text text-anchor="middle" x="93.6006" y="-16.5" font-family="Helvetica,sans-Serif" font-size="10.00" fill="#000000">CConnman::GetUseAddrmanOutgoing</text>
</g>
<!-- Node333 -->
<g id="node2" class="node">
<title>Node333</title>
<g id="a_node2"><a xlink:href="class_peer_logic_validation.html#ad9ba8b8657346c1ce86e061d5fdaeb53" target="_top" xlink:title="Evict extra outbound peers. ">
<polygon fill="#ffffff" stroke="#000000" points="223.2012,-.5 223.2012,-38.5 363.8838,-38.5 363.8838,-.5 223.2012,-.5"/>
<text text-anchor="start" x="231.2012" y="-26.5" font-family="Helvetica,sans-Serif" font-size="10.00" fill="#000000">PeerLogicValidation</text>
<text text-anchor="start" x="231.2012" y="-16.5" font-family="Helvetica,sans-Serif" font-size="10.00" fill="#000000">::CheckForStaleTipAndEvict</text>
<text text-anchor="middle" x="293.5425" y="-6.5" font-family="Helvetica,sans-Serif" font-size="10.00" fill="#000000">Peers</text>
</a>
</g>
</g>
<!-- Node332&#45;&gt;Node333 -->
<g id="edge1" class="edge">
<title>Node332&#45;&gt;Node333</title>
<path fill="none" stroke="#191970" d="M197.5388,-19.5C206.1524,-19.5 214.7267,-19.5 223.0054,-19.5"/>
<polygon fill="#191970" stroke="#191970" points="197.4245,-16.0001 187.4244,-19.5 197.4244,-23.0001 197.4245,-16.0001"/>
</g>
</g>
</svg>
