<?xml version="1.0" encoding="UTF-8" standalone="no"?>
<!DOCTYPE svg PUBLIC "-//W3C//DTD SVG 1.1//EN"
 "http://www.w3.org/Graphics/SVG/1.1/DTD/svg11.dtd">
<!-- Generated by graphviz version 2.40.1 (20161225.0304)
 -->
<!-- Title: CPubKey::Decompress Pages: 1 -->
<svg width="557pt" height="215pt"
 viewBox="0.00 0.00 557.45 215.00" xmlns="http://www.w3.org/2000/svg" xmlns:xlink="http://www.w3.org/1999/xlink">
<g id="graph0" class="graph" transform="scale(1 1) rotate(0) translate(4 211)">
<title>CPubKey::Decompress</title>
<polygon fill="#ffffff" stroke="transparent" points="-4,4 -4,-211 553.4463,-211 553.4463,4 -4,4"/>
<!-- Node48 -->
<g id="node1" class="node">
<title>Node48</title>
<polygon fill="#bfbfbf" stroke="#000000" points="0,-107.5 0,-125.5 119.9307,-125.5 119.9307,-107.5 0,-107.5"/>
<text text-anchor="middle" x="59.9653" y="-113.5" font-family="Helvetica,sans-Serif" font-size="10.00" fill="#000000">CPubKey::Decompress</text>
</g>
<!-- Node49 -->
<g id="node2" class="node">
<title>Node49</title>
<g id="a_node2"><a xlink:href="class_c_pub_key.html#a4fa94293cf8577fd039b9a133f6c7f30" target="_top" xlink:title="CPubKey::IsValid">
<polygon fill="#ffffff" stroke="#000000" points="168.5405,-188.5 168.5405,-206.5 261.6206,-206.5 261.6206,-188.5 168.5405,-188.5"/>
<text text-anchor="middle" x="215.0806" y="-194.5" font-family="Helvetica,sans-Serif" font-size="10.00" fill="#000000">CPubKey::IsValid</text>
</a>
</g>
</g>
<!-- Node48&#45;&gt;Node49 -->
<g id="edge1" class="edge">
<title>Node48&#45;&gt;Node49</title>
<path fill="none" stroke="#191970" d="M73.8996,-125.6841C92.2488,-137.5642 125.7286,-158.5096 155.9307,-173.5 163.9217,-177.4662 172.7359,-181.3112 181.0654,-184.719"/>
<polygon fill="#191970" stroke="#191970" points="179.9575,-188.0452 190.5425,-188.4997 182.5512,-181.5434 179.9575,-188.0452"/>
</g>
<!-- Node50 -->
<g id="node3" class="node">
<title>Node50</title>
<g id="a_node3"><a xlink:href="class_c_pub_key.html#a6bb28fcf0a5f799c69f5b7269363b309" target="_top" xlink:title="Simple read&#45;only vector&#45;like interface to the pubkey data. ">
<polygon fill="#ffffff" stroke="#000000" points="322.7427,-150.5 322.7427,-168.5 404.3286,-168.5 404.3286,-150.5 322.7427,-150.5"/>
<text text-anchor="middle" x="363.5356" y="-156.5" font-family="Helvetica,sans-Serif" font-size="10.00" fill="#000000">CPubKey::size</text>
</a>
</g>
</g>
<!-- Node48&#45;&gt;Node50 -->
<g id="edge5" class="edge">
<title>Node48&#45;&gt;Node50</title>
<path fill="none" stroke="#191970" d="M90.8271,-125.5031C109.5167,-130.6327 133.9197,-136.7632 155.9307,-140.5 209.0037,-149.5101 270.4854,-154.4641 312.6894,-157.0338"/>
<polygon fill="#191970" stroke="#191970" points="312.5324,-160.5305 322.7201,-157.6217 312.9421,-153.5425 312.5324,-160.5305"/>
</g>
<!-- Node52 -->
<g id="node5" class="node">
<title>Node52</title>
<g id="a_node5"><a xlink:href="secp256k1_8h.html#a4e5dc8952c9a7e791376505ef2023ca1" target="_top" xlink:title="Parse a variable&#45;length public key into the pubkey object. ">
<polygon fill="#ffffff" stroke="#000000" points="155.9307,-102.5 155.9307,-130.5 274.2305,-130.5 274.2305,-102.5 155.9307,-102.5"/>
<text text-anchor="start" x="163.9307" y="-118.5" font-family="Helvetica,sans-Serif" font-size="10.00" fill="#000000">secp256k1_ec_pubkey</text>
<text text-anchor="middle" x="215.0806" y="-108.5" font-family="Helvetica,sans-Serif" font-size="10.00" fill="#000000">_parse</text>
</a>
</g>
</g>
<!-- Node48&#45;&gt;Node52 -->
<g id="edge4" class="edge">
<title>Node48&#45;&gt;Node52</title>
<path fill="none" stroke="#191970" d="M119.9369,-116.5C128.3929,-116.5 137.1434,-116.5 145.7568,-116.5"/>
<polygon fill="#191970" stroke="#191970" points="145.7794,-120.0001 155.7794,-116.5 145.7793,-113.0001 145.7794,-120.0001"/>
</g>
<!-- Node53 -->
<g id="node6" class="node">
<title>Node53</title>
<g id="a_node6"><a xlink:href="secp256k1_8h.html#a34977bf00322e510e881160c421836d7" target="_top" xlink:title="Serialize a pubkey object into a serialized byte sequence. ">
<polygon fill="#ffffff" stroke="#000000" points="155.9307,-55.5 155.9307,-83.5 274.2305,-83.5 274.2305,-55.5 155.9307,-55.5"/>
<text text-anchor="start" x="163.9307" y="-71.5" font-family="Helvetica,sans-Serif" font-size="10.00" fill="#000000">secp256k1_ec_pubkey</text>
<text text-anchor="middle" x="215.0806" y="-61.5" font-family="Helvetica,sans-Serif" font-size="10.00" fill="#000000">_serialize</text>
</a>
</g>
</g>
<!-- Node48&#45;&gt;Node53 -->
<g id="edge6" class="edge">
<title>Node48&#45;&gt;Node53</title>
<path fill="none" stroke="#191970" d="M89.8731,-107.4379C109.4392,-101.5094 135.6112,-93.5793 158.9673,-86.5023"/>
<polygon fill="#191970" stroke="#191970" points="160.2219,-89.7794 168.7772,-83.5299 158.192,-83.0802 160.2219,-89.7794"/>
</g>
<!-- Node54 -->
<g id="node7" class="node">
<title>Node54</title>
<g id="a_node7"><a xlink:href="class_c_pub_key.html#af59bc1d3be119c1f8b49d3c1e2c0797b" target="_top" xlink:title="Initialize a public key using begin/end iterators to byte data. ">
<polygon fill="#ffffff" stroke="#000000" points="175.6743,-18.5 175.6743,-36.5 254.4868,-36.5 254.4868,-18.5 175.6743,-18.5"/>
<text text-anchor="middle" x="215.0806" y="-24.5" font-family="Helvetica,sans-Serif" font-size="10.00" fill="#000000">CPubKey::Set</text>
</a>
</g>
</g>
<!-- Node48&#45;&gt;Node54 -->
<g id="edge7" class="edge">
<title>Node48&#45;&gt;Node54</title>
<path fill="none" stroke="#191970" d="M69.843,-107.364C86.4398,-92.456 121.4961,-62.8269 155.9307,-45.5 159.9773,-43.4638 164.2973,-41.6097 168.6905,-39.9331"/>
<polygon fill="#191970" stroke="#191970" points="170.0704,-43.1582 178.3473,-36.5444 167.7525,-36.5531 170.0704,-43.1582"/>
</g>
<!-- Node49&#45;&gt;Node50 -->
<g id="edge2" class="edge">
<title>Node49&#45;&gt;Node50</title>
<path fill="none" stroke="#191970" d="M250.2623,-188.4945C270.7099,-183.2606 296.6838,-176.6121 318.5999,-171.0022"/>
<polygon fill="#191970" stroke="#191970" points="319.5297,-174.3771 328.3495,-168.5066 317.7938,-167.5957 319.5297,-174.3771"/>
</g>
<!-- Node51 -->
<g id="node4" class="node">
<title>Node51</title>
<g id="a_node4"><a xlink:href="class_c_pub_key.html#a7dc71b3f037c84268dc22de97d7b65fb" target="_top" xlink:title="Compute the length of a pubkey with a given first byte. ">
<polygon fill="#ffffff" stroke="#000000" points="452.8408,-122.5 452.8408,-140.5 549.4463,-140.5 549.4463,-122.5 452.8408,-122.5"/>
<text text-anchor="middle" x="501.1436" y="-128.5" font-family="Helvetica,sans-Serif" font-size="10.00" fill="#000000">CPubKey::GetLen</text>
</a>
</g>
</g>
<!-- Node50&#45;&gt;Node51 -->
<g id="edge3" class="edge">
<title>Node50&#45;&gt;Node51</title>
<path fill="none" stroke="#191970" d="M404.45,-151.1749C417.7102,-148.4767 432.6341,-145.4401 446.7168,-142.5746"/>
<polygon fill="#191970" stroke="#191970" points="447.6855,-145.9493 456.7868,-140.5256 446.2897,-139.0898 447.6855,-145.9493"/>
</g>
<!-- Node54&#45;&gt;Node51 -->
<g id="edge8" class="edge">
<title>Node54&#45;&gt;Node51</title>
<path fill="none" stroke="#191970" d="M248.9415,-36.5944C257.3166,-39.173 266.1905,-42.1903 274.2305,-45.5 290.9601,-52.3869 293.6496,-57.2625 310.2305,-64.5 361.1687,-86.7344 422.0713,-107.0788 461.1617,-119.3756"/>
<polygon fill="#191970" stroke="#191970" points="460.2646,-122.7621 470.8533,-122.3999 462.3499,-116.0799 460.2646,-122.7621"/>
</g>
<!-- Node55 -->
<g id="node8" class="node">
<title>Node55</title>
<g id="a_node8"><a xlink:href="glibc__compat_8cpp.html#a0f46826ab0466591e136db24394923cf" target="_top" xlink:title="memcpy">
<polygon fill="#ffffff" stroke="#000000" points="336.644,-37.5 336.644,-55.5 390.4272,-55.5 390.4272,-37.5 336.644,-37.5"/>
<text text-anchor="middle" x="363.5356" y="-43.5" font-family="Helvetica,sans-Serif" font-size="10.00" fill="#000000">memcpy</text>
</a>
</g>
</g>
<!-- Node54&#45;&gt;Node55 -->
<g id="edge9" class="edge">
<title>Node54&#45;&gt;Node55</title>
<path fill="none" stroke="#191970" d="M254.8638,-32.5917C277.0066,-35.4256 304.4038,-38.932 326.1495,-41.7151"/>
<polygon fill="#191970" stroke="#191970" points="325.9594,-45.2193 336.3229,-43.0172 326.8482,-38.2759 325.9594,-45.2193"/>
</g>
<!-- Node57 -->
<g id="node10" class="node">
<title>Node57</title>
<g id="a_node10"><a xlink:href="class_c_pub_key.html#a99917e80a362af54a3677ea9cf1328ee" target="_top" xlink:title="Set this key data to be invalid. ">
<polygon fill="#ffffff" stroke="#000000" points="310.2305,-.5 310.2305,-18.5 416.8408,-18.5 416.8408,-.5 310.2305,-.5"/>
<text text-anchor="middle" x="363.5356" y="-6.5" font-family="Helvetica,sans-Serif" font-size="10.00" fill="#000000">CPubKey::Invalidate</text>
</a>
</g>
</g>
<!-- Node54&#45;&gt;Node57 -->
<g id="edge11" class="edge">
<title>Node54&#45;&gt;Node57</title>
<path fill="none" stroke="#191970" d="M254.8638,-22.6763C268.7433,-20.9935 284.6873,-19.0603 300.0098,-17.2024"/>
<polygon fill="#191970" stroke="#191970" points="300.4553,-20.6741 309.9613,-15.9958 299.6127,-13.725 300.4553,-20.6741"/>
</g>
<!-- Node56 -->
<g id="node9" class="node">
<title>Node56</title>
<g id="a_node9"><a xlink:href="glibc__compat_8cpp.html#a9778d49e9029dd75bc53ecbbf9f5e9a1" target="_top" xlink:title="memmove">
<polygon fill="#ffffff" stroke="#000000" points="469.8062,-37.5 469.8062,-55.5 532.481,-55.5 532.481,-37.5 469.8062,-37.5"/>
<text text-anchor="middle" x="501.1436" y="-43.5" font-family="Helvetica,sans-Serif" font-size="10.00" fill="#000000">memmove</text>
</a>
</g>
</g>
<!-- Node55&#45;&gt;Node56 -->
<g id="edge10" class="edge">
<title>Node55&#45;&gt;Node56</title>
<path fill="none" stroke="#191970" d="M390.7225,-46.5C410.3317,-46.5 437.1649,-46.5 459.4691,-46.5"/>
<polygon fill="#191970" stroke="#191970" points="459.6787,-50.0001 469.6787,-46.5 459.6786,-43.0001 459.6787,-50.0001"/>
</g>
</g>
</svg>
