<?xml version="1.0" encoding="UTF-8" standalone="no"?>
<!DOCTYPE svg PUBLIC "-//W3C//DTD SVG 1.1//EN"
 "http://www.w3.org/Graphics/SVG/1.1/DTD/svg11.dtd">
<!-- Generated by graphviz version 2.40.1 (20161225.0304)
 -->
<!-- Title: interfaces::Wallet::getWalletTxDetails Pages: 1 -->
<svg width="425pt" height="37pt"
 viewBox="0.00 0.00 425.34 37.00" xmlns="http://www.w3.org/2000/svg" xmlns:xlink="http://www.w3.org/1999/xlink">
<g id="graph0" class="graph" transform="scale(1 1) rotate(0) translate(4 33)">
<title>interfaces::Wallet::getWalletTxDetails</title>
<polygon fill="#ffffff" stroke="transparent" points="-4,4 -4,-33 421.3389,-33 421.3389,4 -4,4"/>
<!-- Node193 -->
<g id="node1" class="node">
<title>Node193</title>
<polygon fill="#bfbfbf" stroke="#000000" points="0,-.5 0,-28.5 104.5498,-28.5 104.5498,-.5 0,-.5"/>
<text text-anchor="start" x="8" y="-16.5" font-family="Helvetica,sans-Serif" font-size="10.00" fill="#000000">interfaces::Wallet</text>
<text text-anchor="middle" x="52.2749" y="-6.5" font-family="Helvetica,sans-Serif" font-size="10.00" fill="#000000">::getWalletTxDetails</text>
</g>
<!-- Node194 -->
<g id="node2" class="node">
<title>Node194</title>
<g id="a_node2"><a xlink:href="class_transaction_desc.html#a6ae7f995de691f91a24e0b1bcf0a1a95" target="_top" xlink:title="TransactionDesc::toHTML">
<polygon fill="#ffffff" stroke="#000000" points="140.5498,-5.5 140.5498,-23.5 272.3311,-23.5 272.3311,-5.5 140.5498,-5.5"/>
<text text-anchor="middle" x="206.4404" y="-11.5" font-family="Helvetica,sans-Serif" font-size="10.00" fill="#000000">TransactionDesc::toHTML</text>
</a>
</g>
</g>
<!-- Node193&#45;&gt;Node194 -->
<g id="edge1" class="edge">
<title>Node193&#45;&gt;Node194</title>
<path fill="none" stroke="#191970" d="M114.9805,-14.5C123.3643,-14.5 131.9834,-14.5 140.4218,-14.5"/>
<polygon fill="#191970" stroke="#191970" points="114.8988,-11.0001 104.8987,-14.5 114.8987,-18.0001 114.8988,-11.0001"/>
</g>
<!-- Node195 -->
<g id="node3" class="node">
<title>Node195</title>
<g id="a_node3"><a xlink:href="class_transaction_table_priv.html#a5abfd796c5a65c0a2be564465556b99f" target="_top" xlink:title="TransactionTablePriv\l::describe">
<polygon fill="#ffffff" stroke="#000000" points="308.3311,-.5 308.3311,-28.5 417.3389,-28.5 417.3389,-.5 308.3311,-.5"/>
<text text-anchor="start" x="316.3311" y="-16.5" font-family="Helvetica,sans-Serif" font-size="10.00" fill="#000000">TransactionTablePriv</text>
<text text-anchor="middle" x="362.835" y="-6.5" font-family="Helvetica,sans-Serif" font-size="10.00" fill="#000000">::describe</text>
</a>
</g>
</g>
<!-- Node194&#45;&gt;Node195 -->
<g id="edge2" class="edge">
<title>Node194&#45;&gt;Node195</title>
<path fill="none" stroke="#191970" d="M282.8036,-14.5C291.3871,-14.5 300,-14.5 308.2284,-14.5"/>
<polygon fill="#191970" stroke="#191970" points="282.7658,-11.0001 272.7658,-14.5 282.7658,-18.0001 282.7658,-11.0001"/>
</g>
</g>
</svg>
