<?xml version="1.0" encoding="UTF-8" standalone="no"?>
<!DOCTYPE svg PUBLIC "-//W3C//DTD SVG 1.1//EN"
 "http://www.w3.org/Graphics/SVG/1.1/DTD/svg11.dtd">
<!-- Generated by graphviz version 2.40.1 (20161225.0304)
 -->
<!-- Title: CConnman::ConnectNode Pages: 1 -->
<svg width="293pt" height="64pt"
 viewBox="0.00 0.00 292.79 64.00" xmlns="http://www.w3.org/2000/svg" xmlns:xlink="http://www.w3.org/1999/xlink">
<g id="graph0" class="graph" transform="scale(1 1) rotate(0) translate(4 60)">
<title>CConnman::ConnectNode</title>
<polygon fill="#ffffff" stroke="transparent" points="-4,4 -4,-60 288.7871,-60 288.7871,4 -4,4"/>
<!-- Node162 -->
<g id="node1" class="node">
<title>Node162</title>
<polygon fill="#bfbfbf" stroke="#000000" points="0,-18.5 0,-36.5 133.29,-36.5 133.29,-18.5 0,-18.5"/>
<text text-anchor="middle" x="66.645" y="-24.5" font-family="Helvetica,sans-Serif" font-size="10.00" fill="#000000">CConnman::ConnectNode</text>
</g>
<!-- Node163 -->
<g id="node2" class="node">
<title>Node163</title>
<g id="a_node2"><a xlink:href="net_8cpp.html#a16fa1bd4d34c4c29c90903fc3cdf7517" target="_top" xlink:title="check whether a given address is potentially local ">
<polygon fill="#ffffff" stroke="#000000" points="203.1963,-37.5 203.1963,-55.5 250.8809,-55.5 250.8809,-37.5 203.1963,-37.5"/>
<text text-anchor="middle" x="227.0386" y="-43.5" font-family="Helvetica,sans-Serif" font-size="10.00" fill="#000000">IsLocal</text>
</a>
</g>
</g>
<!-- Node162&#45;&gt;Node163 -->
<g id="edge1" class="edge">
<title>Node162&#45;&gt;Node163</title>
<path fill="none" stroke="#191970" d="M133.737,-35.4476C154.0685,-37.8561 175.5551,-40.4013 192.7774,-42.4415"/>
<polygon fill="#191970" stroke="#191970" points="192.5589,-45.94 202.9013,-43.6407 193.3825,-38.9886 192.5589,-45.94"/>
</g>
<!-- Node164 -->
<g id="node3" class="node">
<title>Node164</title>
<g id="a_node3"><a xlink:href="class_c_connman.html#a7ffb96b5277edc1e41cb705a5cbef72e" target="_top" xlink:title="CConnman::FindNode">
<polygon fill="#ffffff" stroke="#000000" points="169.29,-.5 169.29,-18.5 284.7871,-18.5 284.7871,-.5 169.29,-.5"/>
<text text-anchor="middle" x="227.0386" y="-6.5" font-family="Helvetica,sans-Serif" font-size="10.00" fill="#000000">CConnman::FindNode</text>
</a>
</g>
</g>
<!-- Node162&#45;&gt;Node164 -->
<g id="edge2" class="edge">
<title>Node162&#45;&gt;Node164</title>
<path fill="none" stroke="#191970" d="M133.737,-19.9707C142.098,-19.0324 150.6544,-18.0721 159.0292,-17.1323"/>
<polygon fill="#191970" stroke="#191970" points="159.582,-20.5923 169.1293,-15.9988 158.8013,-13.636 159.582,-20.5923"/>
</g>
</g>
</svg>
