<?xml version="1.0" encoding="UTF-8" standalone="no"?>
<!DOCTYPE svg PUBLIC "-//W3C//DTD SVG 1.1//EN"
 "http://www.w3.org/Graphics/SVG/1.1/DTD/svg11.dtd">
<!-- Generated by graphviz version 2.40.1 (20161225.0304)
 -->
<!-- Title: WalletBatch::WriteWatchOnly Pages: 1 -->
<svg width="471pt" height="27pt"
 viewBox="0.00 0.00 471.28 27.00" xmlns="http://www.w3.org/2000/svg" xmlns:xlink="http://www.w3.org/1999/xlink">
<g id="graph0" class="graph" transform="scale(1 1) rotate(0) translate(4 23)">
<title>WalletBatch::WriteWatchOnly</title>
<polygon fill="#ffffff" stroke="transparent" points="-4,4 -4,-23 467.2813,-23 467.2813,4 -4,4"/>
<!-- Node434 -->
<g id="node1" class="node">
<title>Node434</title>
<polygon fill="#bfbfbf" stroke="#000000" points="0,-.5 0,-18.5 146.2344,-18.5 146.2344,-.5 0,-.5"/>
<text text-anchor="middle" x="73.1172" y="-6.5" font-family="Helvetica,sans-Serif" font-size="10.00" fill="#000000">WalletBatch::WriteWatchOnly</text>
</g>
<!-- Node435 -->
<g id="node2" class="node">
<title>Node435</title>
<g id="a_node2"><a xlink:href="group__map_wallet.html#ga84e18fec1f19c9963fd810d076b71e82" target="_top" xlink:title="Private version of AddWatchOnly method which does not accept a timestamp, and which will reset the wa...">
<polygon fill="#ffffff" stroke="#000000" points="182.2344,-.5 182.2344,-18.5 304.7578,-18.5 304.7578,-.5 182.2344,-.5"/>
<text text-anchor="middle" x="243.4961" y="-6.5" font-family="Helvetica,sans-Serif" font-size="10.00" fill="#000000">CWallet::AddWatchOnly</text>
</a>
</g>
</g>
<!-- Node434&#45;&gt;Node435 -->
<g id="edge1" class="edge">
<title>Node434&#45;&gt;Node435</title>
<path fill="none" stroke="#191970" d="M156.4613,-9.5C165.0923,-9.5 173.7487,-9.5 182.0757,-9.5"/>
<polygon fill="#191970" stroke="#191970" points="156.362,-6.0001 146.362,-9.5 156.3619,-13.0001 156.362,-6.0001"/>
</g>
<!-- Node436 -->
<g id="node3" class="node">
<title>Node436</title>
<g id="a_node3"><a xlink:href="group__map_wallet.html#gaf96e275eac457df2013e8ceb1810b703" target="_top" xlink:title="Adds a watch&#45;only address to the store, and saves it to disk. ">
<polygon fill="#ffffff" stroke="#000000" points="340.7578,-.5 340.7578,-18.5 463.2813,-18.5 463.2813,-.5 340.7578,-.5"/>
<text text-anchor="middle" x="402.0195" y="-6.5" font-family="Helvetica,sans-Serif" font-size="10.00" fill="#000000">CWallet::AddWatchOnly</text>
</a>
</g>
</g>
<!-- Node435&#45;&gt;Node436 -->
<g id="edge2" class="edge">
<title>Node435&#45;&gt;Node436</title>
<path fill="none" stroke="#191970" d="M314.8171,-9.5C323.4332,-9.5 332.1757,-9.5 340.6319,-9.5"/>
<polygon fill="#191970" stroke="#191970" points="314.7854,-6.0001 304.7854,-9.5 314.7854,-13.0001 314.7854,-6.0001"/>
</g>
</g>
</svg>
