<?xml version="1.0" encoding="UTF-8" standalone="no"?>
<!DOCTYPE svg PUBLIC "-//W3C//DTD SVG 1.1//EN"
 "http://www.w3.org/Graphics/SVG/1.1/DTD/svg11.dtd">
<!-- Generated by graphviz version 2.40.1 (20161225.0304)
 -->
<!-- Title: CDiskBlockIndex Pages: 1 -->
<svg width="227pt" height="215pt"
 viewBox="0.00 0.00 227.23 215.00" xmlns="http://www.w3.org/2000/svg" xmlns:xlink="http://www.w3.org/1999/xlink">
<g id="graph0" class="graph" transform="scale(1 1) rotate(0) translate(4 211)">
<title>CDiskBlockIndex</title>
<polygon fill="#ffffff" stroke="transparent" points="-4,4 -4,-211 223.2285,-211 223.2285,4 -4,4"/>
<!-- Node2 -->
<g id="node1" class="node">
<title>Node2</title>
<polygon fill="#bfbfbf" stroke="#000000" points="6.2461,-.5 6.2461,-18.5 97.8271,-18.5 97.8271,-.5 6.2461,-.5"/>
<text text-anchor="middle" x="52.0366" y="-6.5" font-family="Helvetica,sans-Serif" font-size="10.00" fill="#000000">CDiskBlockIndex</text>
</g>
<!-- Node3 -->
<g id="node2" class="node">
<title>Node3</title>
<g id="a_node2"><a xlink:href="class_c_block_index.html" target="_top" xlink:title="The block chain is a tree shaped structure starting with the genesis block at the root...">
<polygon fill="#ffffff" stroke="#000000" points="102.9678,-57 102.9678,-75 175.1055,-75 175.1055,-57 102.9678,-57"/>
<text text-anchor="middle" x="139.0366" y="-63" font-family="Helvetica,sans-Serif" font-size="10.00" fill="#000000">CBlockIndex</text>
</a>
</g>
</g>
<!-- Node3&#45;&gt;Node2 -->
<g id="edge1" class="edge">
<title>Node3&#45;&gt;Node2</title>
<path fill="none" stroke="#191970" d="M116.3208,-51.2478C100.3677,-40.8874 79.5392,-27.3609 65.98,-18.5552"/>
<polygon fill="#191970" stroke="#191970" points="114.7656,-54.4111 125.0586,-56.9223 118.5782,-48.5404 114.7656,-54.4111"/>
</g>
<!-- Node3&#45;&gt;Node3 -->
<g id="edge2" class="edge">
<title>Node3&#45;&gt;Node3</title>
<path fill="none" stroke="#9a32cd" stroke-dasharray="5,2" d="M185.3039,-70.3285C190.063,-69.4765 193.1055,-68.0337 193.1055,-66 193.1055,-62.7461 185.3167,-61.0047 175.17,-60.776"/>
<polygon fill="#9a32cd" stroke="#9a32cd" points="184.823,-66.8573 175.17,-71.224 185.4393,-73.8301 184.823,-66.8573"/>
<text text-anchor="middle" x="206.167" y="-68" font-family="Helvetica,sans-Serif" font-size="10.00" fill="#000000"> pskip</text>
<text text-anchor="middle" x="206.167" y="-58" font-family="Helvetica,sans-Serif" font-size="10.00" fill="#000000">pprev</text>
</g>
<!-- Node4 -->
<g id="node3" class="node">
<title>Node4</title>
<g id="a_node3"><a xlink:href="classuint256.html" target="_top" xlink:title="256&#45;bit opaque blob. ">
<polygon fill="#ffffff" stroke="#000000" points="23.6328,-132.5 23.6328,-150.5 72.4404,-150.5 72.4404,-132.5 23.6328,-132.5"/>
<text text-anchor="middle" x="48.0366" y="-138.5" font-family="Helvetica,sans-Serif" font-size="10.00" fill="#000000">uint256</text>
</a>
</g>
</g>
<!-- Node4&#45;&gt;Node2 -->
<g id="edge7" class="edge">
<title>Node4&#45;&gt;Node2</title>
<path fill="none" stroke="#9a32cd" stroke-dasharray="5,2" d="M47.9624,-121.7748C47.9686,-104.4406 48.1513,-78.5383 49.0122,-56 49.5063,-43.0655 50.5642,-28.135 51.2881,-18.7561"/>
<polygon fill="#9a32cd" stroke="#9a32cd" points="44.4631,-122.2658 47.9801,-132.2599 51.4631,-122.2539 44.4631,-122.2658"/>
<text text-anchor="middle" x="71.5488" y="-63" font-family="Helvetica,sans-Serif" font-size="10.00" fill="#000000"> hashPrev</text>
</g>
<!-- Node4&#45;&gt;Node3 -->
<g id="edge3" class="edge">
<title>Node4&#45;&gt;Node3</title>
<path fill="none" stroke="#9a32cd" stroke-dasharray="5,2" d="M54.9152,-122.7528C59.231,-113.1258 65.6241,-101.8112 74.2241,-94 83.4789,-85.594 95.648,-79.4415 106.9397,-75.0812"/>
<polygon fill="#9a32cd" stroke="#9a32cd" points="51.5615,-121.7089 51.0411,-132.291 58.047,-124.3431 51.5615,-121.7089"/>
<text text-anchor="middle" x="111.4429" y="-106" font-family="Helvetica,sans-Serif" font-size="10.00" fill="#000000"> phashBlock</text>
<text text-anchor="middle" x="111.4429" y="-96" font-family="Helvetica,sans-Serif" font-size="10.00" fill="#000000">hashMerkleRoot</text>
</g>
<!-- Node5 -->
<g id="node4" class="node">
<title>Node5</title>
<g id="a_node4"><a xlink:href="classbase__blob.html" target="_top" xlink:title="base_blob\&lt; 256 \&gt;">
<polygon fill="#ffffff" stroke="#000000" points="0,-188.5 0,-206.5 96.0732,-206.5 96.0732,-188.5 0,-188.5"/>
<text text-anchor="middle" x="48.0366" y="-194.5" font-family="Helvetica,sans-Serif" font-size="10.00" fill="#000000">base_blob&lt; 256 &gt;</text>
</a>
</g>
</g>
<!-- Node5&#45;&gt;Node4 -->
<g id="edge4" class="edge">
<title>Node5&#45;&gt;Node4</title>
<path fill="none" stroke="#191970" d="M48.0366,-178.2065C48.0366,-168.8384 48.0366,-158.0262 48.0366,-150.5752"/>
<polygon fill="#191970" stroke="#191970" points="44.5367,-178.2527 48.0366,-188.2527 51.5367,-178.2528 44.5367,-178.2527"/>
</g>
<!-- Node6 -->
<g id="node5" class="node">
<title>Node6</title>
<g id="a_node5"><a xlink:href="classarith__uint256.html" target="_top" xlink:title="256&#45;bit unsigned big integer. ">
<polygon fill="#ffffff" stroke="#000000" points="132.1255,-132.5 132.1255,-150.5 205.9478,-150.5 205.9478,-132.5 132.1255,-132.5"/>
<text text-anchor="middle" x="169.0366" y="-138.5" font-family="Helvetica,sans-Serif" font-size="10.00" fill="#000000">arith_uint256</text>
</a>
</g>
</g>
<!-- Node6&#45;&gt;Node3 -->
<g id="edge5" class="edge">
<title>Node6&#45;&gt;Node3</title>
<path fill="none" stroke="#9a32cd" stroke-dasharray="5,2" d="M161.6281,-122.8552C155.6321,-107.7654 147.4385,-87.1448 142.7453,-75.3335"/>
<polygon fill="#9a32cd" stroke="#9a32cd" points="158.4127,-124.2414 165.358,-132.2422 164.9179,-121.6565 158.4127,-124.2414"/>
<text text-anchor="middle" x="186.8477" y="-101" font-family="Helvetica,sans-Serif" font-size="10.00" fill="#000000"> nChainWork</text>
</g>
<!-- Node7 -->
<g id="node6" class="node">
<title>Node7</title>
<g id="a_node6"><a xlink:href="classbase__uint.html" target="_top" xlink:title="base_uint\&lt; 256 \&gt;">
<polygon fill="#ffffff" stroke="#000000" points="122.3916,-188.5 122.3916,-206.5 215.6816,-206.5 215.6816,-188.5 122.3916,-188.5"/>
<text text-anchor="middle" x="169.0366" y="-194.5" font-family="Helvetica,sans-Serif" font-size="10.00" fill="#000000">base_uint&lt; 256 &gt;</text>
</a>
</g>
</g>
<!-- Node7&#45;&gt;Node6 -->
<g id="edge6" class="edge">
<title>Node7&#45;&gt;Node6</title>
<path fill="none" stroke="#191970" d="M169.0366,-178.2065C169.0366,-168.8384 169.0366,-158.0262 169.0366,-150.5752"/>
<polygon fill="#191970" stroke="#191970" points="165.5367,-178.2527 169.0366,-188.2527 172.5367,-178.2528 165.5367,-178.2527"/>
</g>
</g>
</svg>
