<?xml version="1.0" encoding="UTF-8" standalone="no"?>
<!DOCTYPE svg PUBLIC "-//W3C//DTD SVG 1.1//EN"
 "http://www.w3.org/Graphics/SVG/1.1/DTD/svg11.dtd">
<!-- Generated by graphviz version 2.40.1 (20161225.0304)
 -->
<!-- Title: CBlockIndex::GetMedianTimePast Pages: 1 -->
<svg width="559pt" height="269pt"
 viewBox="0.00 0.00 558.92 269.00" xmlns="http://www.w3.org/2000/svg" xmlns:xlink="http://www.w3.org/1999/xlink">
<g id="graph0" class="graph" transform="scale(1 1) rotate(0) translate(4 265)">
<title>CBlockIndex::GetMedianTimePast</title>
<polygon fill="#ffffff" stroke="transparent" points="-4,4 -4,-265 554.9229,-265 554.9229,4 -4,4"/>
<!-- Node113 -->
<g id="node1" class="node">
<title>Node113</title>
<polygon fill="#bfbfbf" stroke="#000000" points="0,-121.5 0,-139.5 168.4756,-139.5 168.4756,-121.5 0,-121.5"/>
<text text-anchor="middle" x="84.2378" y="-127.5" font-family="Helvetica,sans-Serif" font-size="10.00" fill="#000000">CBlockIndex::GetMedianTimePast</text>
</g>
<!-- Node114 -->
<g id="node2" class="node">
<title>Node114</title>
<g id="a_node2"><a xlink:href="tx__verify_8h.html#ab6bb0246e751e82b8d6e3c97ed88b839" target="_top" xlink:title="EvaluateSequenceLocks">
<polygon fill="#ffffff" stroke="#000000" points="213.0693,-242.5 213.0693,-260.5 339.1475,-260.5 339.1475,-242.5 213.0693,-242.5"/>
<text text-anchor="middle" x="276.1084" y="-248.5" font-family="Helvetica,sans-Serif" font-size="10.00" fill="#000000">EvaluateSequenceLocks</text>
</a>
</g>
</g>
<!-- Node113&#45;&gt;Node114 -->
<g id="edge1" class="edge">
<title>Node113&#45;&gt;Node114</title>
<path fill="none" stroke="#191970" d="M98.7747,-147.0517C119.8048,-169.9509 160.9861,-211.0102 204.4756,-233.5 211.5374,-237.1519 219.3802,-240.0907 227.2116,-242.4476"/>
<polygon fill="#191970" stroke="#191970" points="101.2668,-144.5889 91.9715,-139.5048 96.0675,-149.2759 101.2668,-144.5889"/>
</g>
<!-- Node116 -->
<g id="node4" class="node">
<title>Node116</title>
<g id="a_node4"><a xlink:href="miner_8h.html#a9c09903c7d6401b5405db02af064179c" target="_top" xlink:title="UpdateTime">
<polygon fill="#ffffff" stroke="#000000" points="241.0576,-205.5 241.0576,-223.5 311.1592,-223.5 311.1592,-205.5 241.0576,-205.5"/>
<text text-anchor="middle" x="276.1084" y="-211.5" font-family="Helvetica,sans-Serif" font-size="10.00" fill="#000000">UpdateTime</text>
</a>
</g>
</g>
<!-- Node113&#45;&gt;Node116 -->
<g id="edge3" class="edge">
<title>Node113&#45;&gt;Node116</title>
<path fill="none" stroke="#191970" d="M106.6364,-145.0807C130.1681,-159.8423 168.6658,-182.4417 204.4756,-196.5 216.0535,-201.0453 229.1419,-204.7304 240.9338,-207.5545"/>
<polygon fill="#191970" stroke="#191970" points="108.4151,-142.0641 98.0978,-139.6548 104.6608,-147.9722 108.4151,-142.0641"/>
</g>
<!-- Node117 -->
<g id="node5" class="node">
<title>Node117</title>
<g id="a_node5"><a xlink:href="class_block_assembler.html#a24b566785f9f88bc72d744095b89c607" target="_top" xlink:title="Construct a new block template with coinbase to scriptPubKeyIn. ">
<polygon fill="#ffffff" stroke="#000000" points="204.4756,-158.5 204.4756,-186.5 347.7412,-186.5 347.7412,-158.5 204.4756,-158.5"/>
<text text-anchor="start" x="212.4756" y="-174.5" font-family="Helvetica,sans-Serif" font-size="10.00" fill="#000000">BlockAssembler::CreateNew</text>
<text text-anchor="middle" x="276.1084" y="-164.5" font-family="Helvetica,sans-Serif" font-size="10.00" fill="#000000">Block</text>
</a>
</g>
</g>
<!-- Node113&#45;&gt;Node117 -->
<g id="edge4" class="edge">
<title>Node113&#45;&gt;Node117</title>
<path fill="none" stroke="#191970" d="M135.1876,-141.6528C158.7505,-146.8107 186.9938,-152.993 211.988,-158.4642"/>
<polygon fill="#191970" stroke="#191970" points="135.916,-138.2294 125.3989,-139.5101 134.4191,-145.0675 135.916,-138.2294"/>
</g>
<!-- Node118 -->
<g id="node6" class="node">
<title>Node118</title>
<g id="a_node6"><a xlink:href="blockchain_8h.html#aa1e97ce578bfdae0125555bda5a2d48d" target="_top" xlink:title="Block header to JSON. ">
<polygon fill="#ffffff" stroke="#000000" points="222.2515,-121.5 222.2515,-139.5 329.9653,-139.5 329.9653,-121.5 222.2515,-121.5"/>
<text text-anchor="middle" x="276.1084" y="-127.5" font-family="Helvetica,sans-Serif" font-size="10.00" fill="#000000">blockheaderToJSON</text>
</a>
</g>
</g>
<!-- Node113&#45;&gt;Node118 -->
<g id="edge5" class="edge">
<title>Node113&#45;&gt;Node118</title>
<path fill="none" stroke="#191970" d="M178.895,-130.5C193.6928,-130.5 208.5311,-130.5 222.0013,-130.5"/>
<polygon fill="#191970" stroke="#191970" points="178.6743,-127.0001 168.6742,-130.5 178.6742,-134.0001 178.6743,-127.0001"/>
</g>
<!-- Node119 -->
<g id="node7" class="node">
<title>Node119</title>
<g id="a_node7"><a xlink:href="blockchain_8cpp.html#a474625d5c1ef0c47e33c078fb53f6ba4" target="_top" xlink:title="Implementation of IsSuperMajority with better feedback. ">
<polygon fill="#ffffff" stroke="#000000" points="229.4707,-84.5 229.4707,-102.5 322.7461,-102.5 322.7461,-84.5 229.4707,-84.5"/>
<text text-anchor="middle" x="276.1084" y="-90.5" font-family="Helvetica,sans-Serif" font-size="10.00" fill="#000000">getblockchaininfo</text>
</a>
</g>
</g>
<!-- Node113&#45;&gt;Node119 -->
<g id="edge6" class="edge">
<title>Node113&#45;&gt;Node119</title>
<path fill="none" stroke="#191970" d="M141.2548,-119.5049C169.3346,-114.0901 202.7707,-107.6423 229.324,-102.5218"/>
<polygon fill="#191970" stroke="#191970" points="140.331,-116.1185 131.1746,-121.4488 141.6565,-122.9919 140.331,-116.1185"/>
</g>
<!-- Node120 -->
<g id="node8" class="node">
<title>Node120</title>
<g id="a_node8"><a xlink:href="class_abstract_threshold_condition_checker.html#a7986d06396d52f6961d7c983dc68b8f3" target="_top" xlink:title="AbstractThresholdCondition\lChecker::GetStateFor">
<polygon fill="#ffffff" stroke="#000000" points="206.4092,-37.5 206.4092,-65.5 345.8076,-65.5 345.8076,-37.5 206.4092,-37.5"/>
<text text-anchor="start" x="214.4092" y="-53.5" font-family="Helvetica,sans-Serif" font-size="10.00" fill="#000000">AbstractThresholdCondition</text>
<text text-anchor="middle" x="276.1084" y="-43.5" font-family="Helvetica,sans-Serif" font-size="10.00" fill="#000000">Checker::GetStateFor</text>
</a>
</g>
</g>
<!-- Node113&#45;&gt;Node120 -->
<g id="edge7" class="edge">
<title>Node113&#45;&gt;Node120</title>
<path fill="none" stroke="#191970" d="M111.9745,-116.7982C136.1153,-105.1186 172.2004,-88.2473 204.4756,-75.5 213.1367,-72.0793 222.5035,-68.7099 231.5185,-65.6265"/>
<polygon fill="#191970" stroke="#191970" points="110.1761,-113.781 102.7177,-121.3058 113.2408,-120.0745 110.1761,-113.781"/>
</g>
<!-- Node122 -->
<g id="node10" class="node">
<title>Node122</title>
<g id="a_node10"><a xlink:href="wallet__tests_8cpp.html#af0e3c9469f1d8f368d3d5f38e5580367" target="_top" xlink:title="importmulti">
<polygon fill="#ffffff" stroke="#000000" points="243.6602,-.5 243.6602,-18.5 308.5566,-18.5 308.5566,-.5 243.6602,-.5"/>
<text text-anchor="middle" x="276.1084" y="-6.5" font-family="Helvetica,sans-Serif" font-size="10.00" fill="#000000">importmulti</text>
</a>
</g>
</g>
<!-- Node113&#45;&gt;Node122 -->
<g id="edge9" class="edge">
<title>Node113&#45;&gt;Node122</title>
<path fill="none" stroke="#191970" d="M99.1683,-113.8537C120.3828,-91.2128 161.4733,-50.9637 204.4756,-28.5 216.5639,-22.1853 230.9228,-17.8424 243.5995,-14.9211"/>
<polygon fill="#191970" stroke="#191970" points="96.4815,-111.6046 92.285,-121.3329 101.6322,-116.3449 96.4815,-111.6046"/>
</g>
<!-- Node115 -->
<g id="node3" class="node">
<title>Node115</title>
<g id="a_node3"><a xlink:href="tx__verify_8h.html#af23a43e92a13ed6bac9f342aa5f935c6" target="_top" xlink:title="Check if transaction is final per BIP 68 sequence numbers and can be included in a block...">
<polygon fill="#ffffff" stroke="#000000" points="423.751,-242.5 423.751,-260.5 510.9131,-260.5 510.9131,-242.5 423.751,-242.5"/>
<text text-anchor="middle" x="467.332" y="-248.5" font-family="Helvetica,sans-Serif" font-size="10.00" fill="#000000">SequenceLocks</text>
</a>
</g>
</g>
<!-- Node114&#45;&gt;Node115 -->
<g id="edge2" class="edge">
<title>Node114&#45;&gt;Node115</title>
<path fill="none" stroke="#191970" d="M349.4516,-251.5C374.4713,-251.5 401.6452,-251.5 423.5907,-251.5"/>
<polygon fill="#191970" stroke="#191970" points="349.2522,-248.0001 339.2521,-251.5 349.2521,-255.0001 349.2522,-248.0001"/>
</g>
<!-- Node121 -->
<g id="node9" class="node">
<title>Node121</title>
<g id="a_node9"><a xlink:href="class_abstract_threshold_condition_checker.html#aa00a2bee3e85de7445422cab3dfd1ced" target="_top" xlink:title="AbstractThresholdCondition\lChecker::GetStateSinceHeightFor">
<polygon fill="#ffffff" stroke="#000000" points="383.7412,-37.5 383.7412,-65.5 550.9229,-65.5 550.9229,-37.5 383.7412,-37.5"/>
<text text-anchor="start" x="391.7412" y="-53.5" font-family="Helvetica,sans-Serif" font-size="10.00" fill="#000000">AbstractThresholdCondition</text>
<text text-anchor="middle" x="467.332" y="-43.5" font-family="Helvetica,sans-Serif" font-size="10.00" fill="#000000">Checker::GetStateSinceHeightFor</text>
</a>
</g>
</g>
<!-- Node120&#45;&gt;Node121 -->
<g id="edge8" class="edge">
<title>Node120&#45;&gt;Node121</title>
<path fill="none" stroke="#191970" d="M356.1399,-51.5C365.2489,-51.5 374.5518,-51.5 383.7058,-51.5"/>
<polygon fill="#191970" stroke="#191970" points="355.9563,-48.0001 345.9562,-51.5 355.9562,-55.0001 355.9563,-48.0001"/>
</g>
</g>
</svg>
