<?xml version="1.0" encoding="UTF-8" standalone="no"?>
<!DOCTYPE svg PUBLIC "-//W3C//DTD SVG 1.1//EN"
 "http://www.w3.org/Graphics/SVG/1.1/DTD/svg11.dtd">
<!-- Generated by graphviz version 2.40.1 (20161225.0304)
 -->
<!-- Title: TransactionTableModel::index Pages: 1 -->
<svg width="880pt" height="207pt"
 viewBox="0.00 0.00 879.54 207.00" xmlns="http://www.w3.org/2000/svg" xmlns:xlink="http://www.w3.org/1999/xlink">
<g id="graph0" class="graph" transform="scale(1 1) rotate(0) translate(4 203)">
<title>TransactionTableModel::index</title>
<polygon fill="#ffffff" stroke="transparent" points="-4,4 -4,-203 875.5439,-203 875.5439,4 -4,4"/>
<!-- Node248 -->
<g id="node1" class="node">
<title>Node248</title>
<polygon fill="#bfbfbf" stroke="#000000" points="0,-101.5 0,-129.5 119.0225,-129.5 119.0225,-101.5 0,-101.5"/>
<text text-anchor="start" x="8" y="-117.5" font-family="Helvetica,sans-Serif" font-size="10.00" fill="#000000">TransactionTableModel</text>
<text text-anchor="middle" x="59.5112" y="-107.5" font-family="Helvetica,sans-Serif" font-size="10.00" fill="#000000">::index</text>
</g>
<!-- Node249 -->
<g id="node2" class="node">
<title>Node249</title>
<g id="a_node2"><a xlink:href="class_transaction_table_model.html#a5899d9eda6465bfb16d2846b6459567e" target="_top" xlink:title="TransactionTableModel\l::updateConfirmations">
<polygon fill="#ffffff" stroke="#000000" points="180.8696,-170.5 180.8696,-198.5 299.8921,-198.5 299.8921,-170.5 180.8696,-170.5"/>
<text text-anchor="start" x="188.8696" y="-186.5" font-family="Helvetica,sans-Serif" font-size="10.00" fill="#000000">TransactionTableModel</text>
<text text-anchor="middle" x="240.3809" y="-176.5" font-family="Helvetica,sans-Serif" font-size="10.00" fill="#000000">::updateConfirmations</text>
</a>
</g>
</g>
<!-- Node248&#45;&gt;Node249 -->
<g id="edge1" class="edge">
<title>Node248&#45;&gt;Node249</title>
<path fill="none" stroke="#191970" d="M94.1799,-134.1199C112.0155,-143.2012 134.3096,-153.7976 155.0225,-161.5 163.7975,-164.7631 173.2371,-167.777 182.5265,-170.4753"/>
<polygon fill="#191970" stroke="#191970" points="95.7829,-131.0086 85.2914,-129.5324 92.5724,-137.229 95.7829,-131.0086"/>
</g>
<!-- Node252 -->
<g id="node5" class="node">
<title>Node252</title>
<g id="a_node5"><a xlink:href="class_transaction_table_model.html#a02173c31b6014bff182e320217e30e10" target="_top" xlink:title="TransactionTableModel\l::data">
<polygon fill="#ffffff" stroke="#000000" points="180.8696,-123.5 180.8696,-151.5 299.8921,-151.5 299.8921,-123.5 180.8696,-123.5"/>
<text text-anchor="start" x="188.8696" y="-139.5" font-family="Helvetica,sans-Serif" font-size="10.00" fill="#000000">TransactionTableModel</text>
<text text-anchor="middle" x="240.3809" y="-129.5" font-family="Helvetica,sans-Serif" font-size="10.00" fill="#000000">::data</text>
</a>
</g>
</g>
<!-- Node248&#45;&gt;Node252 -->
<g id="edge4" class="edge">
<title>Node248&#45;&gt;Node252</title>
<path fill="none" stroke="#191970" d="M129.5969,-117.4291C146.4805,-119.2228 164.3621,-121.4664 180.7188,-123.8531"/>
<polygon fill="#191970" stroke="#191970" points="129.5393,-113.9052 119.236,-116.3731 128.8295,-120.8691 129.5393,-113.9052"/>
</g>
<!-- Node253 -->
<g id="node6" class="node">
<title>Node253</title>
<g id="a_node6"><a xlink:href="class_wallet_view.html#addde7d2260658ee06f47f9c095a8cb2a" target="_top" xlink:title="Show incoming transaction notification for new transactions. ">
<polygon fill="#ffffff" stroke="#000000" points="361.7393,-106.5 361.7393,-124.5 539.1113,-124.5 539.1113,-106.5 361.7393,-106.5"/>
<text text-anchor="middle" x="450.4253" y="-112.5" font-family="Helvetica,sans-Serif" font-size="10.00" fill="#000000">WalletView::processNewTransaction</text>
</a>
</g>
</g>
<!-- Node248&#45;&gt;Node253 -->
<g id="edge12" class="edge">
<title>Node248&#45;&gt;Node253</title>
<path fill="none" stroke="#191970" d="M129.2473,-114.6853C137.9266,-114.6088 146.6794,-114.5437 155.0225,-114.5 230.8956,-114.1028 249.8657,-114.1957 325.7393,-114.5 337.3206,-114.5464 349.5069,-114.6171 361.5395,-114.6999"/>
<polygon fill="#191970" stroke="#191970" points="129.0882,-111.1865 119.1213,-114.7796 129.1535,-118.1862 129.0882,-111.1865"/>
</g>
<!-- Node256 -->
<g id="node9" class="node">
<title>Node256</title>
<g id="a_node9"><a xlink:href="class_transaction_table_model.html#a8b73ff7d72ec2dd69790bc61bbe8575e" target="_top" xlink:title="TransactionTableModel\l::updateDisplayUnit">
<polygon fill="#ffffff" stroke="#000000" points="180.8696,-37.5 180.8696,-65.5 299.8921,-65.5 299.8921,-37.5 180.8696,-37.5"/>
<text text-anchor="start" x="188.8696" y="-53.5" font-family="Helvetica,sans-Serif" font-size="10.00" fill="#000000">TransactionTableModel</text>
<text text-anchor="middle" x="240.3809" y="-43.5" font-family="Helvetica,sans-Serif" font-size="10.00" fill="#000000">::updateDisplayUnit</text>
</a>
</g>
</g>
<!-- Node248&#45;&gt;Node256 -->
<g id="edge9" class="edge">
<title>Node248&#45;&gt;Node256</title>
<path fill="none" stroke="#191970" d="M106.8775,-97.8907C122.2116,-92.2575 139.3129,-86.0461 155.0225,-80.5 169.0429,-75.5502 184.4123,-70.2805 198.1987,-65.6099"/>
<polygon fill="#191970" stroke="#191970" points="105.2625,-94.7556 97.0884,-101.4962 107.6819,-101.3242 105.2625,-94.7556"/>
</g>
<!-- Node258 -->
<g id="node11" class="node">
<title>Node258</title>
<g id="a_node11"><a xlink:href="class_transaction_view.html#a03be25d0d7808e8f96dffc8fb83e637e" target="_top" xlink:title="TransactionView::focusTransaction">
<polygon fill="#ffffff" stroke="#000000" points="155.0225,-.5 155.0225,-18.5 325.7393,-18.5 325.7393,-.5 155.0225,-.5"/>
<text text-anchor="middle" x="240.3809" y="-6.5" font-family="Helvetica,sans-Serif" font-size="10.00" fill="#000000">TransactionView::focusTransaction</text>
</a>
</g>
</g>
<!-- Node248&#45;&gt;Node258 -->
<g id="edge11" class="edge">
<title>Node248&#45;&gt;Node258</title>
<path fill="none" stroke="#191970" d="M77.0913,-93.6029C94.6473,-73.2692 123.4964,-43.7593 155.0225,-27.5 162.1565,-23.8207 169.9951,-20.8934 177.941,-18.5643"/>
<polygon fill="#191970" stroke="#191970" points="74.2667,-91.5234 70.5004,-101.4262 79.6201,-96.0334 74.2667,-91.5234"/>
</g>
<!-- Node250 -->
<g id="node3" class="node">
<title>Node250</title>
<g id="a_node3"><a xlink:href="class_wallet_model.html#a51469b2d95cfd4bc0a14ee456fca7b95" target="_top" xlink:title="WalletModel::pollBalance\lChanged">
<polygon fill="#ffffff" stroke="#000000" points="386.4683,-170.5 386.4683,-198.5 514.3823,-198.5 514.3823,-170.5 386.4683,-170.5"/>
<text text-anchor="start" x="394.4683" y="-186.5" font-family="Helvetica,sans-Serif" font-size="10.00" fill="#000000">WalletModel::pollBalance</text>
<text text-anchor="middle" x="450.4253" y="-176.5" font-family="Helvetica,sans-Serif" font-size="10.00" fill="#000000">Changed</text>
</a>
</g>
</g>
<!-- Node249&#45;&gt;Node250 -->
<g id="edge2" class="edge">
<title>Node249&#45;&gt;Node250</title>
<path fill="none" stroke="#191970" d="M310.3192,-184.5C334.8296,-184.5 362.2205,-184.5 386.2369,-184.5"/>
<polygon fill="#191970" stroke="#191970" points="310.0094,-181.0001 300.0093,-184.5 310.0093,-188.0001 310.0094,-181.0001"/>
</g>
<!-- Node251 -->
<g id="node4" class="node">
<title>Node251</title>
<g id="a_node4"><a xlink:href="class_wallet_model.html#ac0d2832c06b91e9f0aecb2c7d45fce81" target="_top" xlink:title="WalletModel::WalletModel">
<polygon fill="#ffffff" stroke="#000000" points="578.9126,-175.5 578.9126,-193.5 709.7759,-193.5 709.7759,-175.5 578.9126,-175.5"/>
<text text-anchor="middle" x="644.3442" y="-181.5" font-family="Helvetica,sans-Serif" font-size="10.00" fill="#000000">WalletModel::WalletModel</text>
</a>
</g>
</g>
<!-- Node250&#45;&gt;Node251 -->
<g id="edge3" class="edge">
<title>Node250&#45;&gt;Node251</title>
<path fill="none" stroke="#191970" d="M524.7757,-184.5C542.541,-184.5 561.3788,-184.5 578.7185,-184.5"/>
<polygon fill="#191970" stroke="#191970" points="524.4591,-181.0001 514.459,-184.5 524.459,-188.0001 524.4591,-181.0001"/>
</g>
<!-- Node252&#45;&gt;Node248 -->
<g id="edge5" class="edge">
<title>Node252&#45;&gt;Node248</title>
<path fill="none" stroke="#191970" d="M170.3599,-135.5778C153.4789,-133.7852 135.5966,-131.5424 119.236,-129.1561"/>
<polygon fill="#191970" stroke="#191970" points="170.4156,-139.1015 180.7188,-136.633 171.125,-132.1375 170.4156,-139.1015"/>
</g>
<!-- Node252&#45;&gt;Node253 -->
<g id="edge6" class="edge">
<title>Node252&#45;&gt;Node253</title>
<path fill="none" stroke="#191970" d="M310.062,-130.2016C327.4516,-128.3802 346.3045,-126.4056 364.3814,-124.5122"/>
<polygon fill="#191970" stroke="#191970" points="309.5903,-126.7318 300.0093,-131.2545 310.3195,-133.6937 309.5903,-126.7318"/>
</g>
<!-- Node254 -->
<g id="node7" class="node">
<title>Node254</title>
<g id="a_node7"><a xlink:href="class_wallet_view.html#a0a37ff693a4f9c1e5ddc23f9cd3913be" target="_top" xlink:title="Set the wallet model. ">
<polygon fill="#ffffff" stroke="#000000" points="575.1113,-106.5 575.1113,-124.5 713.5771,-124.5 713.5771,-106.5 575.1113,-106.5"/>
<text text-anchor="middle" x="644.3442" y="-112.5" font-family="Helvetica,sans-Serif" font-size="10.00" fill="#000000">WalletView::setWalletModel</text>
</a>
</g>
</g>
<!-- Node253&#45;&gt;Node254 -->
<g id="edge7" class="edge">
<title>Node253&#45;&gt;Node254</title>
<path fill="none" stroke="#191970" d="M549.277,-115.5C557.9048,-115.5 566.5127,-115.5 574.8272,-115.5"/>
<polygon fill="#191970" stroke="#191970" points="549.1558,-112.0001 539.1558,-115.5 549.1558,-119.0001 549.1558,-112.0001"/>
</g>
<!-- Node255 -->
<g id="node8" class="node">
<title>Node255</title>
<g id="a_node8"><a xlink:href="class_wallet_frame.html#a06cb28194836995e50cc46716b2227ff" target="_top" xlink:title="WalletFrame::addWallet">
<polygon fill="#ffffff" stroke="#000000" points="749.5771,-106.5 749.5771,-124.5 871.5439,-124.5 871.5439,-106.5 749.5771,-106.5"/>
<text text-anchor="middle" x="810.5605" y="-112.5" font-family="Helvetica,sans-Serif" font-size="10.00" fill="#000000">WalletFrame::addWallet</text>
</a>
</g>
</g>
<!-- Node254&#45;&gt;Node255 -->
<g id="edge8" class="edge">
<title>Node254&#45;&gt;Node255</title>
<path fill="none" stroke="#191970" d="M723.9223,-115.5C732.5224,-115.5 741.1729,-115.5 749.5048,-115.5"/>
<polygon fill="#191970" stroke="#191970" points="723.8719,-112.0001 713.8718,-115.5 723.8718,-119.0001 723.8719,-112.0001"/>
</g>
<!-- Node257 -->
<g id="node10" class="node">
<title>Node257</title>
<g id="a_node10"><a xlink:href="class_transaction_table_model.html#addebfd4c35896f17a6a9fec9f40eeeb7" target="_top" xlink:title="TransactionTableModel\l::TransactionTableModel">
<polygon fill="#ffffff" stroke="#000000" points="388.1357,-37.5 388.1357,-65.5 512.7148,-65.5 512.7148,-37.5 388.1357,-37.5"/>
<text text-anchor="start" x="396.1357" y="-53.5" font-family="Helvetica,sans-Serif" font-size="10.00" fill="#000000">TransactionTableModel</text>
<text text-anchor="middle" x="450.4253" y="-43.5" font-family="Helvetica,sans-Serif" font-size="10.00" fill="#000000">::TransactionTableModel</text>
</a>
</g>
</g>
<!-- Node256&#45;&gt;Node257 -->
<g id="edge10" class="edge">
<title>Node256&#45;&gt;Node257</title>
<path fill="none" stroke="#191970" d="M310.2201,-51.5C335.3865,-51.5 363.6003,-51.5 388.0846,-51.5"/>
<polygon fill="#191970" stroke="#191970" points="310.0094,-48.0001 300.0093,-51.5 310.0093,-55.0001 310.0094,-48.0001"/>
</g>
</g>
</svg>
