<?xml version="1.0" encoding="UTF-8" standalone="no"?>
<!DOCTYPE svg PUBLIC "-//W3C//DTD SVG 1.1//EN"
 "http://www.w3.org/Graphics/SVG/1.1/DTD/svg11.dtd">
<!-- Generated by graphviz version 2.40.1 (20161225.0304)
 -->
<!-- Title: src/clientversion.h Pages: 1 -->
<svg width="3010pt" height="312pt"
 viewBox="0.00 0.00 3010.10 312.00" xmlns="http://www.w3.org/2000/svg" xmlns:xlink="http://www.w3.org/1999/xlink">
<g id="graph0" class="graph" transform="scale(1 1) rotate(0) translate(4 308)">
<title>src/clientversion.h</title>
<polygon fill="#ffffff" stroke="transparent" points="-4,4 -4,-308 3006.0957,-308 3006.0957,4 -4,4"/>
<!-- Node3 -->
<g id="node1" class="node">
<title>Node3</title>
<polygon fill="#bfbfbf" stroke="#000000" points="794.0591,-285.5 794.0591,-303.5 890.0884,-303.5 890.0884,-285.5 794.0591,-285.5"/>
<text text-anchor="middle" x="842.0737" y="-291.5" font-family="Helvetica,sans-Serif" font-size="10.00" fill="#000000">src/clientversion.h</text>
</g>
<!-- Node4 -->
<g id="node2" class="node">
<title>Node4</title>
<g id="a_node2"><a xlink:href="addrdb_8cpp.html" target="_top" xlink:title="src/addrdb.cpp">
<polygon fill="#ffffff" stroke="#000000" points="0,-230.5 0,-248.5 82.1475,-248.5 82.1475,-230.5 0,-230.5"/>
<text text-anchor="middle" x="41.0737" y="-236.5" font-family="Helvetica,sans-Serif" font-size="10.00" fill="#000000">src/addrdb.cpp</text>
</a>
</g>
</g>
<!-- Node3&#45;&gt;Node4 -->
<g id="edge1" class="edge">
<title>Node3&#45;&gt;Node4</title>
<path fill="none" stroke="#191970" d="M783.7568,-293.4904C657.1735,-290.7463 347.9448,-281.052 91.0737,-249 88.1803,-248.639 85.2021,-248.2132 82.2089,-247.7453"/>
<polygon fill="#191970" stroke="#191970" points="783.9229,-296.9946 793.9943,-293.7057 784.0701,-289.9961 783.9229,-296.9946"/>
</g>
<!-- Node5 -->
<g id="node3" class="node">
<title>Node5</title>
<g id="a_node3"><a xlink:href="bsha3-cli_8cpp.html" target="_top" xlink:title="src/bsha3&#45;cli.cpp">
<polygon fill="#ffffff" stroke="#000000" points="100.5591,-230.5 100.5591,-248.5 191.5884,-248.5 191.5884,-230.5 100.5591,-230.5"/>
<text text-anchor="middle" x="146.0737" y="-236.5" font-family="Helvetica,sans-Serif" font-size="10.00" fill="#000000">src/bsha3&#45;cli.cpp</text>
</a>
</g>
</g>
<!-- Node3&#45;&gt;Node5 -->
<g id="edge2" class="edge">
<title>Node3&#45;&gt;Node5</title>
<path fill="none" stroke="#191970" d="M783.8387,-292.3907C670.8967,-287.8538 414.355,-275.3704 200.0737,-249 197.3339,-248.6628 194.5218,-248.2801 191.6891,-247.8666"/>
<polygon fill="#191970" stroke="#191970" points="783.8602,-295.8942 793.9908,-292.7925 784.1371,-288.8996 783.8602,-295.8942"/>
</g>
<!-- Node6 -->
<g id="node4" class="node">
<title>Node6</title>
<g id="a_node4"><a xlink:href="bsha3-tx_8cpp.html" target="_top" xlink:title="src/bsha3&#45;tx.cpp">
<polygon fill="#ffffff" stroke="#000000" points="209.3916,-230.5 209.3916,-248.5 298.7559,-248.5 298.7559,-230.5 209.3916,-230.5"/>
<text text-anchor="middle" x="254.0737" y="-236.5" font-family="Helvetica,sans-Serif" font-size="10.00" fill="#000000">src/bsha3&#45;tx.cpp</text>
</a>
</g>
</g>
<!-- Node3&#45;&gt;Node6 -->
<g id="edge3" class="edge">
<title>Node3&#45;&gt;Node6</title>
<path fill="none" stroke="#191970" d="M784.0282,-291.2545C685.7647,-285.3802 480.503,-271.4679 308.0737,-249 305.0532,-248.6064 301.944,-248.1628 298.8156,-247.6878"/>
<polygon fill="#191970" stroke="#191970" points="783.863,-294.7507 794.0524,-291.8479 784.2768,-287.763 783.863,-294.7507"/>
</g>
<!-- Node7 -->
<g id="node5" class="node">
<title>Node7</title>
<g id="a_node5"><a xlink:href="bsha3d_8cpp.html" target="_top" xlink:title="src/bsha3d.cpp">
<polygon fill="#ffffff" stroke="#000000" points="317.165,-230.5 317.165,-248.5 400.9824,-248.5 400.9824,-230.5 317.165,-230.5"/>
<text text-anchor="middle" x="359.0737" y="-236.5" font-family="Helvetica,sans-Serif" font-size="10.00" fill="#000000">src/bsha3d.cpp</text>
</a>
</g>
</g>
<!-- Node3&#45;&gt;Node7 -->
<g id="edge4" class="edge">
<title>Node3&#45;&gt;Node7</title>
<path fill="none" stroke="#191970" d="M783.9689,-289.8525C700.8517,-282.8704 543.3246,-268.3968 410.0737,-249 407.1326,-248.5719 404.1023,-248.0963 401.0546,-247.5925"/>
<polygon fill="#191970" stroke="#191970" points="783.7173,-293.3436 793.9736,-290.6868 784.2992,-286.3678 783.7173,-293.3436"/>
</g>
<!-- Node8 -->
<g id="node6" class="node">
<title>Node8</title>
<g id="a_node6"><a xlink:href="clientversion_8cpp.html" target="_top" xlink:title="src/clientversion.cpp">
<polygon fill="#ffffff" stroke="#000000" points="418.7783,-230.5 418.7783,-248.5 525.3691,-248.5 525.3691,-230.5 418.7783,-230.5"/>
<text text-anchor="middle" x="472.0737" y="-236.5" font-family="Helvetica,sans-Serif" font-size="10.00" fill="#000000">src/clientversion.cpp</text>
</a>
</g>
</g>
<!-- Node3&#45;&gt;Node8 -->
<g id="edge5" class="edge">
<title>Node3&#45;&gt;Node8</title>
<path fill="none" stroke="#191970" d="M784.0779,-286.0273C722.1547,-276.9587 621.1609,-262.1045 534.0737,-249 531.274,-248.5787 528.4034,-248.145 525.5053,-247.7057"/>
<polygon fill="#191970" stroke="#191970" points="783.6457,-289.5013 794.0473,-287.4868 784.6597,-282.5751 783.6457,-289.5013"/>
</g>
<!-- Node9 -->
<g id="node7" class="node">
<title>Node9</title>
<g id="a_node7"><a xlink:href="dbwrapper_8h.html" target="_top" xlink:title="src/dbwrapper.h">
<polygon fill="#ffffff" stroke="#000000" points="543.4976,-230.5 543.4976,-248.5 630.6499,-248.5 630.6499,-230.5 543.4976,-230.5"/>
<text text-anchor="middle" x="587.0737" y="-236.5" font-family="Helvetica,sans-Serif" font-size="10.00" fill="#000000">src/dbwrapper.h</text>
</a>
</g>
</g>
<!-- Node3&#45;&gt;Node9 -->
<g id="edge6" class="edge">
<title>Node3&#45;&gt;Node9</title>
<path fill="none" stroke="#191970" d="M790.4507,-283.3656C742.866,-273.1023 673.1183,-258.0586 628.9191,-248.5255"/>
<polygon fill="#191970" stroke="#191970" points="789.738,-286.7923 800.2512,-285.4795 791.214,-279.9497 789.738,-286.7923"/>
</g>
<!-- Node25 -->
<g id="node23" class="node">
<title>Node25</title>
<g id="a_node23"><a xlink:href="net_8cpp.html" target="_top" xlink:title="src/net.cpp">
<polygon fill="#ffffff" stroke="#000000" points="648.6182,-230.5 648.6182,-248.5 713.5293,-248.5 713.5293,-230.5 648.6182,-230.5"/>
<text text-anchor="middle" x="681.0737" y="-236.5" font-family="Helvetica,sans-Serif" font-size="10.00" fill="#000000">src/net.cpp</text>
</a>
</g>
</g>
<!-- Node3&#45;&gt;Node25 -->
<g id="edge26" class="edge">
<title>Node3&#45;&gt;Node25</title>
<path fill="none" stroke="#191970" d="M805.8411,-282.1224C775.9455,-271.9096 734.2285,-257.6584 707.4315,-248.5042"/>
<polygon fill="#191970" stroke="#191970" points="804.8933,-285.4972 815.4879,-285.4179 807.1563,-278.873 804.8933,-285.4972"/>
</g>
<!-- Node26 -->
<g id="node24" class="node">
<title>Node26</title>
<g id="a_node24"><a xlink:href="policy_2fees_8cpp.html" target="_top" xlink:title="src/policy/fees.cpp">
<polygon fill="#ffffff" stroke="#000000" points="731.9458,-230.5 731.9458,-248.5 830.2017,-248.5 830.2017,-230.5 731.9458,-230.5"/>
<text text-anchor="middle" x="781.0737" y="-236.5" font-family="Helvetica,sans-Serif" font-size="10.00" fill="#000000">src/policy/fees.cpp</text>
</a>
</g>
</g>
<!-- Node3&#45;&gt;Node26 -->
<g id="edge27" class="edge">
<title>Node3&#45;&gt;Node26</title>
<path fill="none" stroke="#191970" d="M824.4216,-278.5841C813.7007,-268.9177 800.3882,-256.9147 791.3655,-248.7795"/>
<polygon fill="#191970" stroke="#191970" points="822.2302,-281.3209 832.0008,-285.4179 826.9177,-276.122 822.2302,-281.3209"/>
</g>
<!-- Node27 -->
<g id="node25" class="node">
<title>Node27</title>
<g id="a_node25"><a xlink:href="clientmodel_8cpp.html" target="_top" xlink:title="src/qt/clientmodel.cpp">
<polygon fill="#ffffff" stroke="#000000" points="847.7192,-230.5 847.7192,-248.5 960.4282,-248.5 960.4282,-230.5 847.7192,-230.5"/>
<text text-anchor="middle" x="904.0737" y="-236.5" font-family="Helvetica,sans-Serif" font-size="10.00" fill="#000000">src/qt/clientmodel.cpp</text>
</a>
</g>
</g>
<!-- Node3&#45;&gt;Node27 -->
<g id="edge28" class="edge">
<title>Node3&#45;&gt;Node27</title>
<path fill="none" stroke="#191970" d="M860.0152,-278.5841C870.9119,-268.9177 884.4426,-256.9147 893.6133,-248.7795"/>
<polygon fill="#191970" stroke="#191970" points="857.4699,-276.1634 852.3118,-285.4179 862.1152,-281.4 857.4699,-276.1634"/>
</g>
<!-- Node28 -->
<g id="node26" class="node">
<title>Node28</title>
<g id="a_node26"><a xlink:href="recentrequeststablemodel_8cpp.html" target="_top" xlink:title="src/qt/recentrequeststablemodel.cpp">
<polygon fill="#ffffff" stroke="#000000" points="978.4756,-230.5 978.4756,-248.5 1155.6719,-248.5 1155.6719,-230.5 978.4756,-230.5"/>
<text text-anchor="middle" x="1067.0737" y="-236.5" font-family="Helvetica,sans-Serif" font-size="10.00" fill="#000000">src/qt/recentrequeststablemodel.cpp</text>
</a>
</g>
</g>
<!-- Node3&#45;&gt;Node28 -->
<g id="edge29" class="edge">
<title>Node3&#45;&gt;Node28</title>
<path fill="none" stroke="#191970" d="M888.9474,-283.042C930.895,-272.7881 991.56,-257.9589 1030.1514,-248.5255"/>
<polygon fill="#191970" stroke="#191970" points="887.8588,-279.705 878.976,-285.4795 889.5211,-286.5047 887.8588,-279.705"/>
</g>
<!-- Node29 -->
<g id="node27" class="node">
<title>Node29</title>
<g id="a_node27"><a xlink:href="splashscreen_8cpp.html" target="_top" xlink:title="src/qt/splashscreen.cpp">
<polygon fill="#ffffff" stroke="#000000" points="1173.5493,-230.5 1173.5493,-248.5 1294.5981,-248.5 1294.5981,-230.5 1173.5493,-230.5"/>
<text text-anchor="middle" x="1234.0737" y="-236.5" font-family="Helvetica,sans-Serif" font-size="10.00" fill="#000000">src/qt/splashscreen.cpp</text>
</a>
</g>
</g>
<!-- Node3&#45;&gt;Node29 -->
<g id="edge30" class="edge">
<title>Node3&#45;&gt;Node29</title>
<path fill="none" stroke="#191970" d="M900.1241,-286.3552C973.4073,-276.0731 1098.8786,-258.4687 1173.388,-248.0146"/>
<polygon fill="#191970" stroke="#191970" points="899.5573,-282.9003 890.1406,-287.7559 900.53,-289.8324 899.5573,-282.9003"/>
</g>
<!-- Node30 -->
<g id="node28" class="node">
<title>Node30</title>
<g id="a_node28"><a xlink:href="utilitydialog_8cpp.html" target="_top" xlink:title="src/qt/utilitydialog.cpp">
<polygon fill="#ffffff" stroke="#000000" points="1312.2734,-230.5 1312.2734,-248.5 1423.874,-248.5 1423.874,-230.5 1312.2734,-230.5"/>
<text text-anchor="middle" x="1368.0737" y="-236.5" font-family="Helvetica,sans-Serif" font-size="10.00" fill="#000000">src/qt/utilitydialog.cpp</text>
</a>
</g>
</g>
<!-- Node3&#45;&gt;Node30 -->
<g id="edge31" class="edge">
<title>Node3&#45;&gt;Node30</title>
<path fill="none" stroke="#191970" d="M900.4035,-289.6821C988.1384,-282.2259 1159.228,-266.8718 1304.0737,-249 1306.7493,-248.6699 1309.4857,-248.3181 1312.2481,-247.9518"/>
<polygon fill="#191970" stroke="#191970" points="900.0503,-286.1994 890.3811,-290.5303 900.6406,-293.1745 900.0503,-286.1994"/>
</g>
<!-- Node31 -->
<g id="node29" class="node">
<title>Node31</title>
<g id="a_node29"><a xlink:href="misc_8cpp.html" target="_top" xlink:title="src/rpc/misc.cpp">
<polygon fill="#ffffff" stroke="#000000" points="1441.958,-230.5 1441.958,-248.5 1530.1895,-248.5 1530.1895,-230.5 1441.958,-230.5"/>
<text text-anchor="middle" x="1486.0737" y="-236.5" font-family="Helvetica,sans-Serif" font-size="10.00" fill="#000000">src/rpc/misc.cpp</text>
</a>
</g>
</g>
<!-- Node3&#45;&gt;Node31 -->
<g id="edge32" class="edge">
<title>Node3&#45;&gt;Node31</title>
<path fill="none" stroke="#191970" d="M900.3049,-291.9614C1006.5234,-286.8989 1238.7081,-273.8376 1433.0737,-249 1435.9482,-248.6327 1438.9038,-248.215 1441.8785,-247.7646"/>
<polygon fill="#191970" stroke="#191970" points="899.9433,-288.4744 890.1189,-292.4407 900.2724,-295.4667 899.9433,-288.4744"/>
</g>
<!-- Node32 -->
<g id="node30" class="node">
<title>Node32</title>
<g id="a_node30"><a xlink:href="rpc_2net_8cpp.html" target="_top" xlink:title="src/rpc/net.cpp">
<polygon fill="#ffffff" stroke="#000000" points="1548.2832,-230.5 1548.2832,-248.5 1629.8643,-248.5 1629.8643,-230.5 1548.2832,-230.5"/>
<text text-anchor="middle" x="1589.0737" y="-236.5" font-family="Helvetica,sans-Serif" font-size="10.00" fill="#000000">src/rpc/net.cpp</text>
</a>
</g>
</g>
<!-- Node3&#45;&gt;Node32 -->
<g id="edge33" class="edge">
<title>Node3&#45;&gt;Node32</title>
<path fill="none" stroke="#191970" d="M900.5127,-293.1033C1020.5803,-289.7018 1303.5422,-278.9486 1539.0737,-249 1542.0539,-248.6211 1545.1245,-248.1752 1548.2088,-247.6869"/>
<polygon fill="#191970" stroke="#191970" points="900.3339,-289.6068 890.4346,-293.3822 900.5277,-296.6041 900.3339,-289.6068"/>
</g>
<!-- Node33 -->
<g id="node31" class="node">
<title>Node33</title>
<g id="a_node31"><a xlink:href="db_8h.html" target="_top" xlink:title="src/wallet/db.h">
<polygon fill="#ffffff" stroke="#000000" points="1648.1157,-230.5 1648.1157,-248.5 1728.0317,-248.5 1728.0317,-230.5 1648.1157,-230.5"/>
<text text-anchor="middle" x="1688.0737" y="-236.5" font-family="Helvetica,sans-Serif" font-size="10.00" fill="#000000">src/wallet/db.h</text>
</a>
</g>
</g>
<!-- Node3&#45;&gt;Node33 -->
<g id="edge34" class="edge">
<title>Node3&#45;&gt;Node33</title>
<path fill="none" stroke="#191970" d="M900.6378,-293.8478C1032.8264,-291.788 1364.247,-283.3281 1639.0737,-249 1641.9972,-248.6348 1645.0085,-248.1991 1648.0326,-247.718"/>
<polygon fill="#191970" stroke="#191970" points="900.2883,-290.3525 890.3417,-294.0014 900.3928,-297.3517 900.2883,-290.3525"/>
</g>
<!-- Node63 -->
<g id="node50" class="node">
<title>Node63</title>
<g id="a_node50"><a xlink:href="warnings_8cpp.html" target="_top" xlink:title="src/warnings.cpp">
<polygon fill="#ffffff" stroke="#000000" points="1745.5591,-230.5 1745.5591,-248.5 1836.5884,-248.5 1836.5884,-230.5 1745.5591,-230.5"/>
<text text-anchor="middle" x="1791.0737" y="-236.5" font-family="Helvetica,sans-Serif" font-size="10.00" fill="#000000">src/warnings.cpp</text>
</a>
</g>
</g>
<!-- Node3&#45;&gt;Node63 -->
<g id="edge60" class="edge">
<title>Node3&#45;&gt;Node63</title>
<path fill="none" stroke="#191970" d="M900.5681,-294.019C1043.7311,-292.3003 1422.9802,-284.4755 1737.0737,-249 1739.8168,-248.6902 1742.6313,-248.3286 1745.466,-247.9311"/>
<polygon fill="#191970" stroke="#191970" points="900.2276,-290.5226 890.2684,-294.1369 900.3078,-297.5221 900.2276,-290.5226"/>
</g>
<!-- Node10 -->
<g id="node8" class="node">
<title>Node10</title>
<g id="a_node8"><a xlink:href="dbwrapper_8cpp.html" target="_top" xlink:title="src/dbwrapper.cpp">
<polygon fill="#ffffff" stroke="#000000" points="427.2168,-170.5 427.2168,-188.5 524.9307,-188.5 524.9307,-170.5 427.2168,-170.5"/>
<text text-anchor="middle" x="476.0737" y="-176.5" font-family="Helvetica,sans-Serif" font-size="10.00" fill="#000000">src/dbwrapper.cpp</text>
</a>
</g>
</g>
<!-- Node9&#45;&gt;Node10 -->
<g id="edge7" class="edge">
<title>Node9&#45;&gt;Node10</title>
<path fill="none" stroke="#191970" d="M561.1488,-225.4865C540.0304,-214.0712 510.8414,-198.2933 492.7272,-188.5019"/>
<polygon fill="#191970" stroke="#191970" points="559.7538,-228.711 570.2152,-230.3873 563.0825,-222.5531 559.7538,-228.711"/>
</g>
<!-- Node11 -->
<g id="node9" class="node">
<title>Node11</title>
<g id="a_node9"><a xlink:href="base_8h.html" target="_top" xlink:title="src/index/base.h">
<polygon fill="#ffffff" stroke="#000000" points="542.665,-170.5 542.665,-188.5 631.4824,-188.5 631.4824,-170.5 542.665,-170.5"/>
<text text-anchor="middle" x="587.0737" y="-176.5" font-family="Helvetica,sans-Serif" font-size="10.00" fill="#000000">src/index/base.h</text>
</a>
</g>
</g>
<!-- Node9&#45;&gt;Node11 -->
<g id="edge8" class="edge">
<title>Node9&#45;&gt;Node11</title>
<path fill="none" stroke="#191970" d="M587.0737,-220.3734C587.0737,-209.7812 587.0737,-197.0976 587.0737,-188.6985"/>
<polygon fill="#191970" stroke="#191970" points="583.5738,-220.3873 587.0737,-230.3873 590.5738,-220.3873 583.5738,-220.3873"/>
</g>
<!-- Node20 -->
<g id="node18" class="node">
<title>Node20</title>
<g id="a_node18"><a xlink:href="txdb_8h.html" target="_top" xlink:title="src/txdb.h">
<polygon fill="#ffffff" stroke="#000000" points="672.3989,-170.5 672.3989,-188.5 731.7485,-188.5 731.7485,-170.5 672.3989,-170.5"/>
<text text-anchor="middle" x="702.0737" y="-176.5" font-family="Helvetica,sans-Serif" font-size="10.00" fill="#000000">src/txdb.h</text>
</a>
</g>
</g>
<!-- Node9&#45;&gt;Node20 -->
<g id="edge17" class="edge">
<title>Node9&#45;&gt;Node20</title>
<path fill="none" stroke="#191970" d="M613.6377,-225.6405C635.5397,-214.2134 665.9686,-198.3374 684.8201,-188.5019"/>
<polygon fill="#191970" stroke="#191970" points="611.7866,-222.6585 604.5398,-230.3873 615.0246,-228.8646 611.7866,-222.6585"/>
</g>
<!-- Node12 -->
<g id="node10" class="node">
<title>Node12</title>
<g id="a_node10"><a xlink:href="base_8cpp.html" target="_top" xlink:title="src/index/base.cpp">
<polygon fill="#ffffff" stroke="#000000" points="382.3843,-110.5 382.3843,-128.5 481.7632,-128.5 481.7632,-110.5 382.3843,-110.5"/>
<text text-anchor="middle" x="432.0737" y="-116.5" font-family="Helvetica,sans-Serif" font-size="10.00" fill="#000000">src/index/base.cpp</text>
</a>
</g>
</g>
<!-- Node11&#45;&gt;Node12 -->
<g id="edge9" class="edge">
<title>Node11&#45;&gt;Node12</title>
<path fill="none" stroke="#191970" d="M554.0152,-166.7032C524.3403,-155.2161 481.5347,-138.6462 455.3286,-128.5019"/>
<polygon fill="#191970" stroke="#191970" points="552.9434,-170.0413 563.5326,-170.3873 555.4704,-163.5133 552.9434,-170.0413"/>
</g>
<!-- Node13 -->
<g id="node11" class="node">
<title>Node13</title>
<g id="a_node11"><a xlink:href="txindex_8h.html" target="_top" xlink:title="src/index/txindex.h">
<polygon fill="#ffffff" stroke="#000000" points="537.665,-110.5 537.665,-128.5 636.4824,-128.5 636.4824,-110.5 537.665,-110.5"/>
<text text-anchor="middle" x="587.0737" y="-116.5" font-family="Helvetica,sans-Serif" font-size="10.00" fill="#000000">src/index/txindex.h</text>
</a>
</g>
</g>
<!-- Node11&#45;&gt;Node13 -->
<g id="edge10" class="edge">
<title>Node11&#45;&gt;Node13</title>
<path fill="none" stroke="#191970" d="M587.0737,-160.3734C587.0737,-149.7812 587.0737,-137.0976 587.0737,-128.6985"/>
<polygon fill="#191970" stroke="#191970" points="583.5738,-160.3873 587.0737,-170.3873 590.5738,-160.3873 583.5738,-160.3873"/>
</g>
<!-- Node14 -->
<g id="node12" class="node">
<title>Node14</title>
<g id="a_node12"><a xlink:href="txindex_8cpp.html" target="_top" xlink:title="src/index/txindex.cpp">
<polygon fill="#ffffff" stroke="#000000" points="307.3843,-55.5 307.3843,-73.5 416.7632,-73.5 416.7632,-55.5 307.3843,-55.5"/>
<text text-anchor="middle" x="362.0737" y="-61.5" font-family="Helvetica,sans-Serif" font-size="10.00" fill="#000000">src/index/txindex.cpp</text>
</a>
</g>
</g>
<!-- Node13&#45;&gt;Node14 -->
<g id="edge11" class="edge">
<title>Node13&#45;&gt;Node14</title>
<path fill="none" stroke="#191970" d="M540.2001,-108.042C498.2525,-97.7881 437.5875,-82.9589 398.9961,-73.5255"/>
<polygon fill="#191970" stroke="#191970" points="539.6264,-111.5047 550.1715,-110.4795 541.2886,-104.705 539.6264,-111.5047"/>
</g>
<!-- Node15 -->
<g id="node13" class="node">
<title>Node15</title>
<g id="a_node13"><a xlink:href="init_8cpp.html" target="_top" xlink:title="src/init.cpp">
<polygon fill="#ffffff" stroke="#000000" points="225.1772,-55.5 225.1772,-73.5 288.9702,-73.5 288.9702,-55.5 225.1772,-55.5"/>
<text text-anchor="middle" x="257.0737" y="-61.5" font-family="Helvetica,sans-Serif" font-size="10.00" fill="#000000">src/init.cpp</text>
</a>
</g>
</g>
<!-- Node13&#45;&gt;Node15 -->
<g id="edge12" class="edge">
<title>Node13&#45;&gt;Node15</title>
<path fill="none" stroke="#191970" d="M527.2322,-110.313C449.2186,-98.2998 320.083,-78.2767 298.0737,-74 295.2047,-73.4425 292.2313,-72.8273 289.2562,-72.186"/>
<polygon fill="#191970" stroke="#191970" points="527.0006,-113.8185 537.4167,-111.8805 528.0655,-106.8999 527.0006,-113.8185"/>
</g>
<!-- Node16 -->
<g id="node14" class="node">
<title>Node16</title>
<g id="a_node14"><a xlink:href="rest_8cpp.html" target="_top" xlink:title="src/rest.cpp">
<polygon fill="#ffffff" stroke="#000000" points="435.2339,-55.5 435.2339,-73.5 502.9136,-73.5 502.9136,-55.5 435.2339,-55.5"/>
<text text-anchor="middle" x="469.0737" y="-61.5" font-family="Helvetica,sans-Serif" font-size="10.00" fill="#000000">src/rest.cpp</text>
</a>
</g>
</g>
<!-- Node13&#45;&gt;Node16 -->
<g id="edge13" class="edge">
<title>Node13&#45;&gt;Node16</title>
<path fill="none" stroke="#191970" d="M558.5229,-106.1924C536.8565,-96.0937 507.6434,-82.4774 488.588,-73.5956"/>
<polygon fill="#191970" stroke="#191970" points="557.046,-109.3655 567.5884,-110.4179 560.0033,-103.0208 557.046,-109.3655"/>
</g>
<!-- Node17 -->
<g id="node15" class="node">
<title>Node17</title>
<g id="a_node15"><a xlink:href="blockchain_8cpp.html" target="_top" xlink:title="src/rpc/blockchain.cpp">
<polygon fill="#ffffff" stroke="#000000" points="671.6084,-55.5 671.6084,-73.5 786.5391,-73.5 786.5391,-55.5 671.6084,-55.5"/>
<text text-anchor="middle" x="729.0737" y="-61.5" font-family="Helvetica,sans-Serif" font-size="10.00" fill="#000000">src/rpc/blockchain.cpp</text>
</a>
</g>
</g>
<!-- Node13&#45;&gt;Node17 -->
<g id="edge14" class="edge">
<title>Node13&#45;&gt;Node17</title>
<path fill="none" stroke="#191970" d="M620.0374,-106.7324C646.2396,-96.5837 682.248,-82.6367 705.5905,-73.5956"/>
<polygon fill="#191970" stroke="#191970" points="618.583,-103.5423 610.5221,-110.4179 621.1113,-110.0698 618.583,-103.5423"/>
</g>
<!-- Node18 -->
<g id="node16" class="node">
<title>Node18</title>
<g id="a_node16"><a xlink:href="rawtransaction_8cpp.html" target="_top" xlink:title="src/rpc/rawtransaction.cpp">
<polygon fill="#ffffff" stroke="#000000" points="520.7192,-55.5 520.7192,-73.5 653.4282,-73.5 653.4282,-55.5 520.7192,-55.5"/>
<text text-anchor="middle" x="587.0737" y="-61.5" font-family="Helvetica,sans-Serif" font-size="10.00" fill="#000000">src/rpc/rawtransaction.cpp</text>
</a>
</g>
</g>
<!-- Node13&#45;&gt;Node18 -->
<g id="edge15" class="edge">
<title>Node13&#45;&gt;Node18</title>
<path fill="none" stroke="#191970" d="M587.0737,-100.383C587.0737,-91.3738 587.0737,-81.0373 587.0737,-73.7795"/>
<polygon fill="#191970" stroke="#191970" points="583.5738,-100.4178 587.0737,-110.4179 590.5738,-100.4179 583.5738,-100.4178"/>
</g>
<!-- Node19 -->
<g id="node17" class="node">
<title>Node19</title>
<g id="a_node17"><a xlink:href="validation_8cpp.html" target="_top" xlink:title="src/validation.cpp">
<polygon fill="#ffffff" stroke="#000000" points="804.4434,-55.5 804.4434,-73.5 897.7041,-73.5 897.7041,-55.5 804.4434,-55.5"/>
<text text-anchor="middle" x="851.0737" y="-61.5" font-family="Helvetica,sans-Serif" font-size="10.00" fill="#000000">src/validation.cpp</text>
</a>
</g>
</g>
<!-- Node13&#45;&gt;Node19 -->
<g id="edge16" class="edge">
<title>Node13&#45;&gt;Node19</title>
<path fill="none" stroke="#191970" d="M640.2098,-108.43C689.4807,-98.1652 761.8965,-83.0786 807.7515,-73.5255"/>
<polygon fill="#191970" stroke="#191970" points="639.4483,-105.0134 630.3723,-110.4795 640.876,-111.8663 639.4483,-105.0134"/>
</g>
<!-- Node20&#45;&gt;Node13 -->
<g id="edge19" class="edge">
<title>Node20&#45;&gt;Node13</title>
<path fill="none" stroke="#191970" d="M675.5098,-165.6405C653.6078,-154.2134 623.1788,-138.3374 604.3273,-128.5019"/>
<polygon fill="#191970" stroke="#191970" points="674.1228,-168.8646 684.6077,-170.3873 677.3608,-162.6585 674.1228,-168.8646"/>
</g>
<!-- Node20&#45;&gt;Node15 -->
<g id="edge20" class="edge">
<title>Node20&#45;&gt;Node15</title>
<path fill="none" stroke="#191970" d="M662.1705,-170.0268C626.6637,-161.0877 573.6111,-146.4711 529.0737,-129 511.4955,-122.1044 508.9735,-116.0119 491.0737,-110 408.3573,-82.2183 383.4852,-91.8523 298.0737,-74 295.2129,-73.402 292.2451,-72.759 289.2736,-72.0996"/>
<polygon fill="#191970" stroke="#191970" points="661.5985,-173.4911 672.1474,-172.5054 663.2862,-166.6975 661.5985,-173.4911"/>
</g>
<!-- Node20&#45;&gt;Node17 -->
<g id="edge23" class="edge">
<title>Node20&#45;&gt;Node17</title>
<path fill="none" stroke="#191970" d="M692.8321,-160.9826C687.0045,-146.7012 681.6816,-126.6425 688.0737,-110 693.7925,-95.1106 706.8858,-82.0485 716.7483,-73.7843"/>
<polygon fill="#191970" stroke="#191970" points="689.7011,-162.5537 697.0044,-170.2292 696.0817,-159.6747 689.7011,-162.5537"/>
</g>
<!-- Node20&#45;&gt;Node19 -->
<g id="edge25" class="edge">
<title>Node20&#45;&gt;Node19</title>
<path fill="none" stroke="#191970" d="M702.6221,-160.077C704.0667,-144.6707 708.4426,-123.5452 721.0737,-110 733.8346,-96.3156 779.5772,-82.3582 813.2072,-73.5757"/>
<polygon fill="#191970" stroke="#191970" points="699.1265,-159.9 702.0122,-170.0942 706.1136,-160.3255 699.1265,-159.9"/>
</g>
<!-- Node21 -->
<g id="node19" class="node">
<title>Node21</title>
<g id="a_node19"><a xlink:href="block__assemble_8cpp.html" target="_top" xlink:title="src/bench/block_assemble.cpp">
<polygon fill="#ffffff" stroke="#000000" points="729.7046,-110.5 729.7046,-128.5 882.4429,-128.5 882.4429,-110.5 729.7046,-110.5"/>
<text text-anchor="middle" x="806.0737" y="-116.5" font-family="Helvetica,sans-Serif" font-size="10.00" fill="#000000">src/bench/block_assemble.cpp</text>
</a>
</g>
</g>
<!-- Node20&#45;&gt;Node21 -->
<g id="edge18" class="edge">
<title>Node20&#45;&gt;Node21</title>
<path fill="none" stroke="#191970" d="M726.6316,-165.332C746.3965,-153.9291 773.5751,-138.2492 790.4705,-128.5019"/>
<polygon fill="#191970" stroke="#191970" points="724.7819,-162.3584 717.8691,-170.3873 728.28,-168.4217 724.7819,-162.3584"/>
</g>
<!-- Node22 -->
<g id="node20" class="node">
<title>Node22</title>
<g id="a_node20"><a xlink:href="optionsdialog_8cpp.html" target="_top" xlink:title="src/qt/optionsdialog.cpp">
<polygon fill="#ffffff" stroke="#000000" points="900.542,-110.5 900.542,-128.5 1021.6055,-128.5 1021.6055,-110.5 900.542,-110.5"/>
<text text-anchor="middle" x="961.0737" y="-116.5" font-family="Helvetica,sans-Serif" font-size="10.00" fill="#000000">src/qt/optionsdialog.cpp</text>
</a>
</g>
</g>
<!-- Node20&#45;&gt;Node22 -->
<g id="edge21" class="edge">
<title>Node20&#45;&gt;Node22</title>
<path fill="none" stroke="#191970" d="M741.6903,-170.3224C790.6312,-158.9848 873.3698,-139.8175 922.0403,-128.5425"/>
<polygon fill="#191970" stroke="#191970" points="740.7364,-166.9506 731.7843,-172.6172 742.3163,-173.77 740.7364,-166.9506"/>
</g>
<!-- Node23 -->
<g id="node21" class="node">
<title>Node23</title>
<g id="a_node21"><a xlink:href="optionsmodel_8cpp.html" target="_top" xlink:title="src/qt/optionsmodel.cpp">
<polygon fill="#ffffff" stroke="#000000" points="1039.2686,-110.5 1039.2686,-128.5 1160.8789,-128.5 1160.8789,-110.5 1039.2686,-110.5"/>
<text text-anchor="middle" x="1100.0737" y="-116.5" font-family="Helvetica,sans-Serif" font-size="10.00" fill="#000000">src/qt/optionsmodel.cpp</text>
</a>
</g>
</g>
<!-- Node20&#45;&gt;Node23 -->
<g id="edge22" class="edge">
<title>Node20&#45;&gt;Node23</title>
<path fill="none" stroke="#191970" d="M742.1951,-173.4516C812.4625,-162.8585 958.1222,-140.8997 1040.299,-128.5113"/>
<polygon fill="#191970" stroke="#191970" points="741.3549,-170.0386 731.9884,-174.9902 742.3985,-176.9604 741.3549,-170.0386"/>
</g>
<!-- Node24 -->
<g id="node22" class="node">
<title>Node24</title>
<g id="a_node22"><a xlink:href="txdb_8cpp.html" target="_top" xlink:title="src/txdb.cpp">
<polygon fill="#ffffff" stroke="#000000" points="1179.1182,-110.5 1179.1182,-128.5 1249.0293,-128.5 1249.0293,-110.5 1179.1182,-110.5"/>
<text text-anchor="middle" x="1214.0737" y="-116.5" font-family="Helvetica,sans-Serif" font-size="10.00" fill="#000000">src/txdb.cpp</text>
</a>
</g>
</g>
<!-- Node20&#45;&gt;Node24 -->
<g id="edge24" class="edge">
<title>Node20&#45;&gt;Node24</title>
<path fill="none" stroke="#191970" d="M742.0374,-176.6132C823.1052,-170.4436 1012.5646,-154.4297 1170.0737,-129 1173.0054,-128.5267 1176.0363,-127.9846 1179.0722,-127.4045"/>
<polygon fill="#191970" stroke="#191970" points="741.4953,-173.144 731.7862,-177.3846 742.0207,-180.1242 741.4953,-173.144"/>
</g>
<!-- Node34 -->
<g id="node32" class="node">
<title>Node34</title>
<g id="a_node32"><a xlink:href="transactiondesc_8cpp.html" target="_top" xlink:title="src/qt/transactiondesc.cpp">
<polygon fill="#ffffff" stroke="#000000" points="1351.9902,-55.5 1351.9902,-73.5 1484.1572,-73.5 1484.1572,-55.5 1351.9902,-55.5"/>
<text text-anchor="middle" x="1418.0737" y="-61.5" font-family="Helvetica,sans-Serif" font-size="10.00" fill="#000000">src/qt/transactiondesc.cpp</text>
</a>
</g>
</g>
<!-- Node33&#45;&gt;Node34 -->
<g id="edge35" class="edge">
<title>Node33&#45;&gt;Node34</title>
<path fill="none" stroke="#191970" d="M1649.4204,-227.0533C1627.1895,-219.1091 1599.1765,-207.7305 1576.0737,-194 1513.8767,-157.0347 1450.4747,-96.7491 1427.2838,-73.7832"/>
<polygon fill="#191970" stroke="#191970" points="1648.2803,-230.3624 1658.8751,-230.3509 1650.5856,-223.7528 1648.2803,-230.3624"/>
</g>
<!-- Node35 -->
<g id="node33" class="node">
<title>Node35</title>
<g id="a_node33"><a xlink:href="db_8cpp.html" target="_top" xlink:title="src/wallet/db.cpp">
<polygon fill="#ffffff" stroke="#000000" points="1584.835,-170.5 1584.835,-188.5 1675.3125,-188.5 1675.3125,-170.5 1584.835,-170.5"/>
<text text-anchor="middle" x="1630.0737" y="-176.5" font-family="Helvetica,sans-Serif" font-size="10.00" fill="#000000">src/wallet/db.cpp</text>
</a>
</g>
</g>
<!-- Node33&#45;&gt;Node35 -->
<g id="edge36" class="edge">
<title>Node33&#45;&gt;Node35</title>
<path fill="none" stroke="#191970" d="M1672.1248,-223.0011C1661.4399,-211.9478 1647.7685,-197.8049 1638.9656,-188.6985"/>
<polygon fill="#191970" stroke="#191970" points="1669.7981,-225.63 1679.2648,-230.3873 1674.831,-220.7648 1669.7981,-225.63"/>
</g>
<!-- Node36 -->
<g id="node34" class="node">
<title>Node36</title>
<g id="a_node34"><a xlink:href="wallet__test__fixture_8cpp.html" target="_top" xlink:title="src/wallet/test/wallet\l_test_fixture.cpp">
<polygon fill="#ffffff" stroke="#000000" points="1693.6157,-165.5 1693.6157,-193.5 1798.5317,-193.5 1798.5317,-165.5 1693.6157,-165.5"/>
<text text-anchor="start" x="1701.6157" y="-181.5" font-family="Helvetica,sans-Serif" font-size="10.00" fill="#000000">src/wallet/test/wallet</text>
<text text-anchor="middle" x="1746.0737" y="-171.5" font-family="Helvetica,sans-Serif" font-size="10.00" fill="#000000">_test_fixture.cpp</text>
</a>
</g>
</g>
<!-- Node33&#45;&gt;Node36 -->
<g id="edge37" class="edge">
<title>Node33&#45;&gt;Node36</title>
<path fill="none" stroke="#191970" d="M1704.0082,-223.016C1712.8429,-213.8768 1723.7228,-202.6216 1732.2043,-193.8477"/>
<polygon fill="#191970" stroke="#191970" points="1701.3165,-220.7648 1696.8827,-230.3873 1706.3494,-225.63 1701.3165,-220.7648"/>
</g>
<!-- Node37 -->
<g id="node35" class="node">
<title>Node37</title>
<g id="a_node35"><a xlink:href="walletdb_8h.html" target="_top" xlink:title="src/wallet/walletdb.h">
<polygon fill="#ffffff" stroke="#000000" points="1956.3325,-170.5 1956.3325,-188.5 2061.8149,-188.5 2061.8149,-170.5 1956.3325,-170.5"/>
<text text-anchor="middle" x="2009.0737" y="-176.5" font-family="Helvetica,sans-Serif" font-size="10.00" fill="#000000">src/wallet/walletdb.h</text>
</a>
</g>
</g>
<!-- Node33&#45;&gt;Node37 -->
<g id="edge38" class="edge">
<title>Node33&#45;&gt;Node37</title>
<path fill="none" stroke="#191970" d="M1737.9613,-229.6529C1820.7914,-213.8367 1906.5509,-198.1116 1959.2225,-188.5288"/>
<polygon fill="#191970" stroke="#191970" points="1737.3031,-226.2153 1728.1387,-231.5317 1738.6182,-233.0907 1737.3031,-226.2153"/>
</g>
<!-- Node38 -->
<g id="node36" class="node">
<title>Node38</title>
<g id="a_node36"><a xlink:href="rpcwallet_8cpp.html" target="_top" xlink:title="src/wallet/rpcwallet.cpp">
<polygon fill="#ffffff" stroke="#000000" points="1490.6675,-.5 1490.6675,-18.5 1609.48,-18.5 1609.48,-.5 1490.6675,-.5"/>
<text text-anchor="middle" x="1550.0737" y="-6.5" font-family="Helvetica,sans-Serif" font-size="10.00" fill="#000000">src/wallet/rpcwallet.cpp</text>
</a>
</g>
</g>
<!-- Node37&#45;&gt;Node38 -->
<g id="edge39" class="edge">
<title>Node37&#45;&gt;Node38</title>
<path fill="none" stroke="#191970" d="M1945.6892,-174.2209C1832.1957,-163.3316 1601.492,-134.1875 1552.0737,-74 1539.1348,-58.2413 1543.5825,-32.2892 1547.235,-18.6023"/>
<polygon fill="#191970" stroke="#191970" points="1945.6828,-177.7357 1955.9667,-175.1878 1946.3385,-170.7665 1945.6828,-177.7357"/>
</g>
<!-- Node39 -->
<g id="node37" class="node">
<title>Node39</title>
<g id="a_node37"><a xlink:href="wallet_2wallet_8h.html" target="_top" xlink:title="src/wallet/wallet.h">
<polygon fill="#ffffff" stroke="#ff0000" points="2101.894,-110.5 2101.894,-128.5 2196.2534,-128.5 2196.2534,-110.5 2101.894,-110.5"/>
<text text-anchor="middle" x="2149.0737" y="-116.5" font-family="Helvetica,sans-Serif" font-size="10.00" fill="#000000">src/wallet/wallet.h</text>
</a>
</g>
</g>
<!-- Node37&#45;&gt;Node39 -->
<g id="edge40" class="edge">
<title>Node37&#45;&gt;Node39</title>
<path fill="none" stroke="#191970" d="M2039.6349,-166.4023C2066.4075,-154.9284 2104.6051,-138.558 2128.0694,-128.5019"/>
<polygon fill="#191970" stroke="#191970" points="2038.1494,-163.231 2030.3367,-170.3873 2040.9069,-169.665 2038.1494,-163.231"/>
</g>
<!-- Node62 -->
<g id="node49" class="node">
<title>Node62</title>
<g id="a_node49"><a xlink:href="walletdb_8cpp.html" target="_top" xlink:title="src/wallet/walletdb.cpp">
<polygon fill="#ffffff" stroke="#000000" points="2886.0518,-55.5 2886.0518,-73.5 3002.0957,-73.5 3002.0957,-55.5 2886.0518,-55.5"/>
<text text-anchor="middle" x="2944.0737" y="-61.5" font-family="Helvetica,sans-Serif" font-size="10.00" fill="#000000">src/wallet/walletdb.cpp</text>
</a>
</g>
</g>
<!-- Node37&#45;&gt;Node62 -->
<g id="edge59" class="edge">
<title>Node37&#45;&gt;Node62</title>
<path fill="none" stroke="#191970" d="M2072.1804,-171.7382C2244.2131,-150.5791 2719.6037,-92.1086 2885.8007,-71.6673"/>
<polygon fill="#191970" stroke="#191970" points="2071.5203,-168.2929 2062.0223,-172.9876 2072.3749,-175.2406 2071.5203,-168.2929"/>
</g>
<!-- Node39&#45;&gt;Node34 -->
<g id="edge49" class="edge">
<title>Node39&#45;&gt;Node34</title>
<path fill="none" stroke="#191970" d="M2091.6886,-115.3607C1983.167,-107.5062 1740.4169,-89.8092 1536.0737,-74 1519.271,-72.7 1501.1257,-71.2582 1484.2219,-69.8987"/>
<polygon fill="#191970" stroke="#191970" points="2091.5394,-118.859 2101.7659,-116.0897 2092.0446,-111.8772 2091.5394,-118.859"/>
</g>
<!-- Node39&#45;&gt;Node38 -->
<g id="edge57" class="edge">
<title>Node39&#45;&gt;Node38</title>
<path fill="none" stroke="#191970" d="M2091.7475,-118.6425C1953.2879,-116.0631 1609.0655,-106.4264 1569.0737,-74 1552.3895,-60.472 1549.8734,-33.0697 1549.7779,-18.726"/>
<polygon fill="#191970" stroke="#191970" points="2091.6862,-122.1419 2101.7478,-118.8232 2091.8126,-115.1431 2091.6862,-122.1419"/>
</g>
<!-- Node40 -->
<g id="node38" class="node">
<title>Node40</title>
<g id="a_node38"><a xlink:href="coin__selection_8cpp.html" target="_top" xlink:title="src/bench/coin_selection.cpp">
<polygon fill="#ffffff" stroke="#000000" points="1577.8696,-55.5 1577.8696,-73.5 1722.2778,-73.5 1722.2778,-55.5 1577.8696,-55.5"/>
<text text-anchor="middle" x="1650.0737" y="-61.5" font-family="Helvetica,sans-Serif" font-size="10.00" fill="#000000">src/bench/coin_selection.cpp</text>
</a>
</g>
</g>
<!-- Node39&#45;&gt;Node40 -->
<g id="edge41" class="edge">
<title>Node39&#45;&gt;Node40</title>
<path fill="none" stroke="#191970" d="M2091.4405,-113.3341C2010.9678,-104.6967 1860.377,-88.4318 1732.0737,-74 1728.9406,-73.6476 1725.7404,-73.2856 1722.5077,-72.9182"/>
<polygon fill="#191970" stroke="#191970" points="2091.531,-116.8638 2101.8473,-114.4505 2092.2777,-109.9037 2091.531,-116.8638"/>
</g>
<!-- Node41 -->
<g id="node39" class="node">
<title>Node41</title>
<g id="a_node39"><a xlink:href="interfaces_2wallet_8cpp.html" target="_top" xlink:title="src/interfaces/wallet.cpp">
<polygon fill="#ffffff" stroke="#000000" points="1740.7192,-55.5 1740.7192,-73.5 1863.4282,-73.5 1863.4282,-55.5 1740.7192,-55.5"/>
<text text-anchor="middle" x="1802.0737" y="-61.5" font-family="Helvetica,sans-Serif" font-size="10.00" fill="#000000">src/interfaces/wallet.cpp</text>
</a>
</g>
</g>
<!-- Node39&#45;&gt;Node41 -->
<g id="edge42" class="edge">
<title>Node39&#45;&gt;Node41</title>
<path fill="none" stroke="#191970" d="M2091.5618,-110.3843C2027.1305,-100.1718 1923.3235,-83.7183 1859.0936,-73.5377"/>
<polygon fill="#191970" stroke="#191970" points="2091.1278,-113.8591 2101.5524,-111.9678 2092.2237,-106.9454 2091.1278,-113.8591"/>
</g>
<!-- Node42 -->
<g id="node40" class="node">
<title>Node42</title>
<g id="a_node40"><a xlink:href="miner_8cpp.html" target="_top" xlink:title="src/miner.cpp">
<polygon fill="#ffffff" stroke="#000000" points="1881.3398,-55.5 1881.3398,-73.5 1956.8076,-73.5 1956.8076,-55.5 1881.3398,-55.5"/>
<text text-anchor="middle" x="1919.0737" y="-61.5" font-family="Helvetica,sans-Serif" font-size="10.00" fill="#000000">src/miner.cpp</text>
</a>
</g>
</g>
<!-- Node39&#45;&gt;Node42 -->
<g id="edge43" class="edge">
<title>Node39&#45;&gt;Node42</title>
<path fill="none" stroke="#191970" d="M2101.4301,-108.107C2058.541,-97.8509 1996.349,-82.9789 1956.8166,-73.5255"/>
<polygon fill="#191970" stroke="#191970" points="2100.8116,-111.5577 2111.3515,-110.4795 2102.4397,-104.7496 2100.8116,-111.5577"/>
</g>
<!-- Node43 -->
<g id="node41" class="node">
<title>Node43</title>
<g id="a_node41"><a xlink:href="addresstablemodel_8cpp.html" target="_top" xlink:title="src/qt/addresstablemodel.cpp">
<polygon fill="#ffffff" stroke="#000000" points="1974.7612,-55.5 1974.7612,-73.5 2121.3862,-73.5 2121.3862,-55.5 1974.7612,-55.5"/>
<text text-anchor="middle" x="2048.0737" y="-61.5" font-family="Helvetica,sans-Serif" font-size="10.00" fill="#000000">src/qt/addresstablemodel.cpp</text>
</a>
</g>
</g>
<!-- Node39&#45;&gt;Node43 -->
<g id="edge44" class="edge">
<title>Node39&#45;&gt;Node43</title>
<path fill="none" stroke="#191970" d="M2123.3791,-105.5079C2104.9743,-95.4854 2080.7211,-82.2783 2064.7766,-73.5956"/>
<polygon fill="#191970" stroke="#191970" points="2121.9395,-108.7092 2132.3956,-110.4179 2125.2872,-102.5616 2121.9395,-108.7092"/>
</g>
<!-- Node44 -->
<g id="node42" class="node">
<title>Node44</title>
<g id="a_node42"><a xlink:href="coincontroldialog_8cpp.html" target="_top" xlink:title="src/qt/coincontroldialog.cpp">
<polygon fill="#ffffff" stroke="#000000" points="2296.4854,-.5 2296.4854,-18.5 2433.6621,-18.5 2433.6621,-.5 2296.4854,-.5"/>
<text text-anchor="middle" x="2365.0737" y="-6.5" font-family="Helvetica,sans-Serif" font-size="10.00" fill="#000000">src/qt/coincontroldialog.cpp</text>
</a>
</g>
</g>
<!-- Node39&#45;&gt;Node44 -->
<g id="edge45" class="edge">
<title>Node39&#45;&gt;Node44</title>
<path fill="none" stroke="#191970" d="M2149.7893,-99.7676C2151.381,-85.3921 2155.8722,-66.4965 2168.0737,-55 2186.564,-37.5782 2247.1274,-25.3112 2296.2736,-17.9395"/>
<polygon fill="#191970" stroke="#191970" points="2146.2726,-99.8734 2149.0424,-110.0997 2153.2544,-100.3781 2146.2726,-99.8734"/>
</g>
<!-- Node45 -->
<g id="node43" class="node">
<title>Node45</title>
<g id="a_node43"><a xlink:href="paymentserver_8cpp.html" target="_top" xlink:title="src/qt/paymentserver.cpp">
<polygon fill="#ffffff" stroke="#000000" points="2177.2144,-55.5 2177.2144,-73.5 2304.9331,-73.5 2304.9331,-55.5 2177.2144,-55.5"/>
<text text-anchor="middle" x="2241.0737" y="-61.5" font-family="Helvetica,sans-Serif" font-size="10.00" fill="#000000">src/qt/paymentserver.cpp</text>
</a>
</g>
</g>
<!-- Node39&#45;&gt;Node45 -->
<g id="edge46" class="edge">
<title>Node39&#45;&gt;Node45</title>
<path fill="none" stroke="#191970" d="M2172.9415,-105.2313C2189.6483,-95.2435 2211.4688,-82.1986 2225.8592,-73.5956"/>
<polygon fill="#191970" stroke="#191970" points="2171.0529,-102.2825 2164.2657,-110.4179 2174.6448,-108.2907 2171.0529,-102.2825"/>
</g>
<!-- Node46 -->
<g id="node44" class="node">
<title>Node46</title>
<g id="a_node44"><a xlink:href="receivecoinsdialog_8cpp.html" target="_top" xlink:title="src/qt/receivecoinsdialog.cpp">
<polygon fill="#ffffff" stroke="#000000" points="2322.8745,-55.5 2322.8745,-73.5 2467.2729,-73.5 2467.2729,-55.5 2322.8745,-55.5"/>
<text text-anchor="middle" x="2395.0737" y="-61.5" font-family="Helvetica,sans-Serif" font-size="10.00" fill="#000000">src/qt/receivecoinsdialog.cpp</text>
</a>
</g>
</g>
<!-- Node39&#45;&gt;Node46 -->
<g id="edge47" class="edge">
<title>Node39&#45;&gt;Node46</title>
<path fill="none" stroke="#191970" d="M2199.4521,-108.2365C2245.3426,-97.9765 2312.2444,-83.0187 2354.7053,-73.5255"/>
<polygon fill="#191970" stroke="#191970" points="2198.4155,-104.8818 2189.4202,-110.4795 2199.9429,-111.7131 2198.4155,-104.8818"/>
</g>
<!-- Node47 -->
<g id="node45" class="node">
<title>Node47</title>
<g id="a_node45"><a xlink:href="signverifymessagedialog_8cpp.html" target="_top" xlink:title="src/qt/signverifymessagedialog.cpp">
<polygon fill="#ffffff" stroke="#000000" points="2485.2588,-55.5 2485.2588,-73.5 2656.8887,-73.5 2656.8887,-55.5 2485.2588,-55.5"/>
<text text-anchor="middle" x="2571.0737" y="-61.5" font-family="Helvetica,sans-Serif" font-size="10.00" fill="#000000">src/qt/signverifymessagedialog.cpp</text>
</a>
</g>
</g>
<!-- Node39&#45;&gt;Node47 -->
<g id="edge48" class="edge">
<title>Node39&#45;&gt;Node47</title>
<path fill="none" stroke="#191970" d="M2206.2277,-112.051C2283.024,-102.042 2419.3856,-84.2698 2501.8892,-73.5169"/>
<polygon fill="#191970" stroke="#191970" points="2205.7179,-108.5878 2196.2541,-113.3509 2206.6226,-115.5291 2205.7179,-108.5878"/>
</g>
<!-- Node48 -->
<g id="node46" class="node">
<title>Node48</title>
<g id="a_node46"><a xlink:href="walletmodel_8cpp.html" target="_top" xlink:title="src/qt/walletmodel.cpp">
<polygon fill="#ffffff" stroke="#000000" points="2668.6084,-.5 2668.6084,-18.5 2783.5391,-18.5 2783.5391,-.5 2668.6084,-.5"/>
<text text-anchor="middle" x="2726.0737" y="-6.5" font-family="Helvetica,sans-Serif" font-size="10.00" fill="#000000">src/qt/walletmodel.cpp</text>
</a>
</g>
</g>
<!-- Node39&#45;&gt;Node48 -->
<g id="edge50" class="edge">
<title>Node39&#45;&gt;Node48</title>
<path fill="none" stroke="#191970" d="M2206.6367,-117.5934C2362.2386,-112.1621 2780.9309,-95.5975 2801.0737,-74 2821.3378,-52.2726 2779.9627,-30.4552 2751.0034,-18.592"/>
<polygon fill="#191970" stroke="#191970" points="2206.2085,-114.1061 2196.3356,-117.9501 2206.4508,-121.1019 2206.2085,-114.1061"/>
</g>
<!-- Node49 -->
<g id="node47" class="node">
<title>Node49</title>
<g id="a_node47"><a xlink:href="coincontrol_8h.html" target="_top" xlink:title="src/wallet/coincontrol.h">
<polygon fill="#ffffff" stroke="#ff0000" points="2674.4976,-55.5 2674.4976,-73.5 2791.6499,-73.5 2791.6499,-55.5 2674.4976,-55.5"/>
<text text-anchor="middle" x="2733.0737" y="-61.5" font-family="Helvetica,sans-Serif" font-size="10.00" fill="#000000">src/wallet/coincontrol.h</text>
</a>
</g>
</g>
<!-- Node39&#45;&gt;Node49 -->
<g id="edge51" class="edge">
<title>Node39&#45;&gt;Node49</title>
<path fill="none" stroke="#191970" d="M2206.5936,-115.4397C2302.1547,-108.4694 2499.598,-93.1143 2666.0737,-74 2668.7582,-73.6918 2671.5011,-73.3623 2674.2703,-73.0177"/>
<polygon fill="#191970" stroke="#191970" points="2206.2803,-111.9531 2196.5599,-116.168 2206.7871,-118.9347 2206.2803,-111.9531"/>
</g>
<!-- Node52 -->
<g id="node48" class="node">
<title>Node52</title>
<g id="a_node48"><a xlink:href="feebumper_8cpp.html" target="_top" xlink:title="src/wallet/feebumper.cpp">
<polygon fill="#ffffff" stroke="#000000" points="2801.7661,-.5 2801.7661,-18.5 2928.3813,-18.5 2928.3813,-.5 2801.7661,-.5"/>
<text text-anchor="middle" x="2865.0737" y="-6.5" font-family="Helvetica,sans-Serif" font-size="10.00" fill="#000000">src/wallet/feebumper.cpp</text>
</a>
</g>
</g>
<!-- Node39&#45;&gt;Node52 -->
<g id="edge56" class="edge">
<title>Node39&#45;&gt;Node52</title>
<path fill="none" stroke="#191970" d="M2206.5248,-118.3226C2358.6964,-114.8211 2764.1772,-102.8644 2817.0737,-74 2839.8641,-61.5638 2854.8761,-33.1499 2861.3818,-18.5408"/>
<polygon fill="#191970" stroke="#191970" points="2206.3622,-114.8252 2196.444,-118.5506 2206.5206,-121.8234 2206.3622,-114.8252"/>
</g>
<!-- Node39&#45;&gt;Node62 -->
<g id="edge58" class="edge">
<title>Node39&#45;&gt;Node62</title>
<path fill="none" stroke="#191970" d="M2206.8164,-117.2078C2329.5093,-112.0423 2625.1595,-98.0306 2872.0737,-74 2876.5914,-73.5603 2881.2623,-73.0564 2885.954,-72.5151"/>
<polygon fill="#191970" stroke="#191970" points="2206.3801,-113.7228 2196.5348,-117.6369 2206.6721,-120.7167 2206.3801,-113.7228"/>
</g>
<!-- Node49&#45;&gt;Node38 -->
<g id="edge55" class="edge">
<title>Node49&#45;&gt;Node38</title>
<path fill="none" stroke="#191970" d="M2664.0398,-54.898C2255.371,-18.2217 1774.9911,-11.2024 1609.4939,-9.8317"/>
<polygon fill="#191970" stroke="#191970" points="2664.0117,-58.4096 2674.2865,-55.8252 2664.6426,-51.4381 2664.0117,-58.4096"/>
</g>
<!-- Node49&#45;&gt;Node44 -->
<g id="edge52" class="edge">
<title>Node49&#45;&gt;Node44</title>
<path fill="none" stroke="#191970" d="M2664.066,-54.1863C2595.3499,-43.9163 2490.9215,-28.3088 2425.4165,-18.5186"/>
<polygon fill="#191970" stroke="#191970" points="2663.9486,-57.7076 2674.3561,-55.7243 2664.9833,-50.7845 2663.9486,-57.7076"/>
</g>
<!-- Node49&#45;&gt;Node48 -->
<g id="edge53" class="edge">
<title>Node49&#45;&gt;Node48</title>
<path fill="none" stroke="#191970" d="M2730.6407,-45.383C2729.494,-36.3738 2728.1785,-26.0373 2727.2548,-18.7795"/>
<polygon fill="#191970" stroke="#191970" points="2727.1832,-45.9398 2731.9178,-55.4179 2734.1272,-45.056 2727.1832,-45.9398"/>
</g>
<!-- Node49&#45;&gt;Node52 -->
<g id="edge54" class="edge">
<title>Node49&#45;&gt;Node52</title>
<path fill="none" stroke="#191970" d="M2764.3619,-51.4633C2788.6619,-41.3383 2821.7368,-27.5571 2843.2442,-18.5956"/>
<polygon fill="#191970" stroke="#191970" points="2762.7554,-48.3409 2754.8708,-55.4179 2765.4478,-54.8024 2762.7554,-48.3409"/>
</g>
</g>
</svg>
