<?xml version="1.0" encoding="UTF-8" standalone="no"?>
<!DOCTYPE svg PUBLIC "-//W3C//DTD SVG 1.1//EN"
 "http://www.w3.org/Graphics/SVG/1.1/DTD/svg11.dtd">
<!-- Generated by graphviz version 2.40.1 (20161225.0304)
 -->
<!-- Title: ValueFromAmount Pages: 1 -->
<svg width="210pt" height="101pt"
 viewBox="0.00 0.00 210.34 101.00" xmlns="http://www.w3.org/2000/svg" xmlns:xlink="http://www.w3.org/1999/xlink">
<g id="graph0" class="graph" transform="scale(1 1) rotate(0) translate(4 97)">
<title>ValueFromAmount</title>
<polygon fill="#ffffff" stroke="transparent" points="-4,4 -4,-97 206.3408,-97 206.3408,4 -4,4"/>
<!-- Node205 -->
<g id="node1" class="node">
<title>Node205</title>
<polygon fill="#bfbfbf" stroke="#000000" points="0,-37.5 0,-55.5 98.6318,-55.5 98.6318,-37.5 0,-37.5"/>
<text text-anchor="middle" x="49.3159" y="-43.5" font-family="Helvetica,sans-Serif" font-size="10.00" fill="#000000">ValueFromAmount</text>
</g>
<!-- Node206 -->
<g id="node2" class="node">
<title>Node206</title>
<g id="a_node2"><a xlink:href="rawtransaction_8cpp.html#a0e9b5930a41831d5be26d74565f07340" target="_top" xlink:title="decodepsbt">
<polygon fill="#ffffff" stroke="#000000" points="134.6318,-74.5 134.6318,-92.5 202.3408,-92.5 202.3408,-74.5 134.6318,-74.5"/>
<text text-anchor="middle" x="168.4863" y="-80.5" font-family="Helvetica,sans-Serif" font-size="10.00" fill="#000000">decodepsbt</text>
</a>
</g>
</g>
<!-- Node205&#45;&gt;Node206 -->
<g id="edge1" class="edge">
<title>Node205&#45;&gt;Node206</title>
<path fill="none" stroke="#191970" d="M88.4088,-58.6375C104.959,-63.7761 123.9111,-69.6603 139.2219,-74.414"/>
<polygon fill="#191970" stroke="#191970" points="89.0564,-55.1739 78.4683,-55.5512 86.9807,-61.8591 89.0564,-55.1739"/>
</g>
<!-- Node207 -->
<g id="node3" class="node">
<title>Node207</title>
<g id="a_node3"><a xlink:href="rpcwallet_8cpp.html#a87e0cb6784e0e0fcfbaa3d178f462a56" target="_top" xlink:title="for">
<polygon fill="#ffffff" stroke="#000000" points="153.9863,-37.5 153.9863,-55.5 182.9863,-55.5 182.9863,-37.5 153.9863,-37.5"/>
<text text-anchor="middle" x="168.4863" y="-43.5" font-family="Helvetica,sans-Serif" font-size="10.00" fill="#000000">for</text>
</a>
</g>
</g>
<!-- Node205&#45;&gt;Node207 -->
<g id="edge2" class="edge">
<title>Node205&#45;&gt;Node207</title>
<path fill="none" stroke="#191970" d="M109.131,-46.5C125.7613,-46.5 142.3676,-46.5 153.7682,-46.5"/>
<polygon fill="#191970" stroke="#191970" points="108.8196,-43.0001 98.8196,-46.5 108.8196,-50.0001 108.8196,-43.0001"/>
</g>
<!-- Node208 -->
<g id="node4" class="node">
<title>Node208</title>
<g id="a_node4"><a xlink:href="rpcwallet_8cpp.html#a57ff1fb90c70234799757c5bcd4a4029" target="_top" xlink:title="if">
<polygon fill="#ffffff" stroke="#000000" points="153.9863,-.5 153.9863,-18.5 182.9863,-18.5 182.9863,-.5 153.9863,-.5"/>
<text text-anchor="middle" x="168.4863" y="-6.5" font-family="Helvetica,sans-Serif" font-size="10.00" fill="#000000">if</text>
</a>
</g>
</g>
<!-- Node205&#45;&gt;Node208 -->
<g id="edge3" class="edge">
<title>Node205&#45;&gt;Node208</title>
<path fill="none" stroke="#191970" d="M88.0822,-34.4638C110.5148,-27.499 137.4502,-19.1361 153.7532,-14.0743"/>
<polygon fill="#191970" stroke="#191970" points="86.9807,-31.1409 78.4683,-37.4488 89.0564,-37.8261 86.9807,-31.1409"/>
</g>
</g>
</svg>
