<?xml version="1.0" encoding="UTF-8" standalone="no"?>
<!DOCTYPE svg PUBLIC "-//W3C//DTD SVG 1.1//EN"
 "http://www.w3.org/Graphics/SVG/1.1/DTD/svg11.dtd">
<!-- Generated by graphviz version 2.40.1 (20161225.0304)
 -->
<!-- Title: src/dummywallet.cpp Pages: 1 -->
<svg width="2356pt" height="257pt"
 viewBox="0.00 0.00 2355.77 257.00" xmlns="http://www.w3.org/2000/svg" xmlns:xlink="http://www.w3.org/1999/xlink">
<g id="graph0" class="graph" transform="scale(1 1) rotate(0) translate(4 253)">
<title>src/dummywallet.cpp</title>
<polygon fill="#ffffff" stroke="transparent" points="-4,4 -4,-253 2351.7711,-253 2351.7711,4 -4,4"/>
<!-- Node0 -->
<g id="node1" class="node">
<title>Node0</title>
<polygon fill="#bfbfbf" stroke="#000000" points="694.0518,-230.5 694.0518,-248.5 803.4111,-248.5 803.4111,-230.5 694.0518,-230.5"/>
<text text-anchor="middle" x="748.7314" y="-236.5" font-family="Helvetica,sans-Serif" font-size="10.00" fill="#000000">src/dummywallet.cpp</text>
</g>
<!-- Node1 -->
<g id="node2" class="node">
<title>Node1</title>
<polygon fill="#ffffff" stroke="#bfbfbf" points="0,-.5 0,-18.5 45.4629,-18.5 45.4629,-.5 0,-.5"/>
<text text-anchor="middle" x="22.7314" y="-6.5" font-family="Helvetica,sans-Serif" font-size="10.00" fill="#000000">stdio.h</text>
</g>
<!-- Node0&#45;&gt;Node1 -->
<g id="edge1" class="edge">
<title>Node0&#45;&gt;Node1</title>
<path fill="none" stroke="#191970" d="M693.9319,-235.0689C598.3113,-225.9675 395.9903,-200.5889 236.7314,-139 159.8145,-109.2545 79.2508,-52.377 42.7782,-24.9906"/>
<polygon fill="#191970" stroke="#191970" points="44.5666,-21.9541 34.4845,-18.6978 40.3354,-27.5306 44.5666,-21.9541"/>
</g>
<!-- Node2 -->
<g id="node3" class="node">
<title>Node2</title>
<g id="a_node3"><a xlink:href="util_8h.html" target="_top" xlink:title="util.h">
<polygon fill="#ffffff" stroke="#000000" points="730.1699,-175.5 730.1699,-193.5 767.293,-193.5 767.293,-175.5 730.1699,-175.5"/>
<text text-anchor="middle" x="748.7314" y="-181.5" font-family="Helvetica,sans-Serif" font-size="10.00" fill="#000000">util.h</text>
</a>
</g>
</g>
<!-- Node0&#45;&gt;Node2 -->
<g id="edge2" class="edge">
<title>Node0&#45;&gt;Node2</title>
<path fill="none" stroke="#191970" d="M748.7314,-230.4179C748.7314,-223.2164 748.7314,-212.8962 748.7314,-203.8632"/>
<polygon fill="#191970" stroke="#191970" points="752.2315,-203.7794 748.7314,-193.7795 745.2315,-203.7795 752.2315,-203.7794"/>
</g>
<!-- Node49 -->
<g id="node50" class="node">
<title>Node49</title>
<g id="a_node50"><a xlink:href="walletinitinterface_8h.html" target="_top" xlink:title="walletinitinterface.h">
<polygon fill="#ffffff" stroke="#000000" points="1545.2095,-175.5 1545.2095,-193.5 1646.2534,-193.5 1646.2534,-175.5 1545.2095,-175.5"/>
<text text-anchor="middle" x="1595.7314" y="-181.5" font-family="Helvetica,sans-Serif" font-size="10.00" fill="#000000">walletinitinterface.h</text>
</a>
</g>
</g>
<!-- Node0&#45;&gt;Node49 -->
<g id="edge60" class="edge">
<title>Node0&#45;&gt;Node49</title>
<path fill="none" stroke="#191970" d="M803.6529,-235.9337C954.9378,-226.11 1376.9465,-198.7068 1534.966,-188.4458"/>
<polygon fill="#191970" stroke="#191970" points="1535.2349,-191.9358 1544.9871,-187.7951 1534.7813,-184.9505 1535.2349,-191.9358"/>
</g>
<!-- Node3 -->
<g id="node4" class="node">
<title>Node3</title>
<g id="a_node4"><a xlink:href="compat_8h.html" target="_top" xlink:title="compat.h">
<polygon fill="#ffffff" stroke="#000000" points="1658.165,-115.5 1658.165,-133.5 1715.2979,-133.5 1715.2979,-115.5 1658.165,-115.5"/>
<text text-anchor="middle" x="1686.7314" y="-121.5" font-family="Helvetica,sans-Serif" font-size="10.00" fill="#000000">compat.h</text>
</a>
</g>
</g>
<!-- Node2&#45;&gt;Node3 -->
<g id="edge3" class="edge">
<title>Node2&#45;&gt;Node3</title>
<path fill="none" stroke="#191970" d="M767.4684,-183.3015C881.9349,-175.9795 1487.3445,-137.254 1647.7188,-126.9955"/>
<polygon fill="#191970" stroke="#191970" points="1648.3012,-130.4655 1658.0573,-126.3342 1647.8543,-123.4797 1648.3012,-130.4655"/>
</g>
<!-- Node19 -->
<g id="node20" class="node">
<title>Node19</title>
<g id="a_node20"><a xlink:href="fs_8h.html" target="_top" xlink:title="fs.h">
<polygon fill="#ffffff" stroke="#000000" points="252.6724,-55.5 252.6724,-73.5 284.7905,-73.5 284.7905,-55.5 252.6724,-55.5"/>
<text text-anchor="middle" x="268.7314" y="-61.5" font-family="Helvetica,sans-Serif" font-size="10.00" fill="#000000">fs.h</text>
</a>
</g>
</g>
<!-- Node2&#45;&gt;Node19 -->
<g id="edge19" class="edge">
<title>Node2&#45;&gt;Node19</title>
<path fill="none" stroke="#191970" d="M730.0959,-183.7873C649.1467,-180.5378 330.5386,-166.1036 295.7314,-139 278.8136,-125.8264 272.4877,-101.0788 270.1274,-83.7334"/>
<polygon fill="#191970" stroke="#191970" points="273.5895,-83.186 269.0775,-73.5999 266.6268,-83.9074 273.5895,-83.186"/>
</g>
<!-- Node20 -->
<g id="node21" class="node">
<title>Node20</title>
<polygon fill="#ffffff" stroke="#bfbfbf" points="923.5049,-.5 923.5049,-18.5 963.958,-18.5 963.958,-.5 923.5049,-.5"/>
<text text-anchor="middle" x="943.7314" y="-6.5" font-family="Helvetica,sans-Serif" font-size="10.00" fill="#000000">string</text>
</g>
<!-- Node2&#45;&gt;Node20 -->
<g id="edge55" class="edge">
<title>Node2&#45;&gt;Node20</title>
<path fill="none" stroke="#191970" d="M767.5842,-181.803C806.6216,-175.8399 894.3639,-160.3527 914.7314,-139 943.3834,-108.9621 946.0694,-57.0583 945.1469,-28.9469"/>
<polygon fill="#191970" stroke="#191970" points="948.634,-28.6062 944.6186,-18.8018 941.6435,-28.9703 948.634,-28.6062"/>
</g>
<!-- Node23 -->
<g id="node24" class="node">
<title>Node23</title>
<g id="a_node24"><a xlink:href="logging_8h.html" target="_top" xlink:title="logging.h">
<polygon fill="#ffffff" stroke="#000000" points="304.436,-115.5 304.436,-133.5 361.0269,-133.5 361.0269,-115.5 304.436,-115.5"/>
<text text-anchor="middle" x="332.7314" y="-121.5" font-family="Helvetica,sans-Serif" font-size="10.00" fill="#000000">logging.h</text>
</a>
</g>
</g>
<!-- Node2&#45;&gt;Node23 -->
<g id="edge24" class="edge">
<title>Node2&#45;&gt;Node23</title>
<path fill="none" stroke="#191970" d="M729.8089,-183.6118C674.5008,-180.7148 508.575,-169.8793 374.7314,-139 371.746,-138.3112 368.6759,-137.4871 365.6193,-136.5863"/>
<polygon fill="#191970" stroke="#191970" points="366.6131,-133.2295 356.0222,-133.5192 364.4821,-139.8973 366.6131,-133.2295"/>
</g>
<!-- Node24 -->
<g id="node25" class="node">
<title>Node24</title>
<g id="a_node25"><a xlink:href="tinyformat_8h.html" target="_top" xlink:title="tinyformat.h">
<polygon fill="#ffffff" stroke="#000000" points="413.6108,-55.5 413.6108,-73.5 481.8521,-73.5 481.8521,-55.5 413.6108,-55.5"/>
<text text-anchor="middle" x="447.7314" y="-61.5" font-family="Helvetica,sans-Serif" font-size="10.00" fill="#000000">tinyformat.h</text>
</a>
</g>
</g>
<!-- Node2&#45;&gt;Node24 -->
<g id="edge43" class="edge">
<title>Node2&#45;&gt;Node24</title>
<path fill="none" stroke="#191970" d="M729.8388,-183.409C661.3758,-179.2657 429.1722,-163.4917 407.7314,-139 392.2748,-121.344 411.7146,-96.6917 428.4989,-80.6633"/>
<polygon fill="#191970" stroke="#191970" points="431.2897,-82.8586 436.3605,-73.5561 426.5953,-77.666 431.2897,-82.8586"/>
</g>
<!-- Node30 -->
<g id="node31" class="node">
<title>Node30</title>
<polygon fill="#ffffff" stroke="#bfbfbf" points="189.0049,-55.5 189.0049,-73.5 234.458,-73.5 234.458,-55.5 189.0049,-55.5"/>
<text text-anchor="middle" x="211.7314" y="-61.5" font-family="Helvetica,sans-Serif" font-size="10.00" fill="#000000">atomic</text>
</g>
<!-- Node2&#45;&gt;Node30 -->
<g id="edge50" class="edge">
<title>Node2&#45;&gt;Node30</title>
<path fill="none" stroke="#191970" d="M729.9665,-183.5464C646.915,-179.2129 314.7035,-160.6496 273.7314,-139 249.755,-126.3308 231.3956,-100.0889 221.0829,-82.3834"/>
<polygon fill="#191970" stroke="#191970" points="224.1052,-80.6162 216.1969,-73.5657 217.9823,-84.009 224.1052,-80.6162"/>
</g>
<!-- Node34 -->
<g id="node35" class="node">
<title>Node34</title>
<polygon fill="#ffffff" stroke="#bfbfbf" points="538.1157,-55.5 538.1157,-73.5 581.3472,-73.5 581.3472,-55.5 538.1157,-55.5"/>
<text text-anchor="middle" x="559.7314" y="-61.5" font-family="Helvetica,sans-Serif" font-size="10.00" fill="#000000">vector</text>
</g>
<!-- Node2&#45;&gt;Node34 -->
<g id="edge58" class="edge">
<title>Node2&#45;&gt;Node34</title>
<path fill="none" stroke="#191970" d="M767.378,-177.4854C783.1894,-170.4219 804.8304,-157.8516 814.7314,-139 820.7245,-127.5892 823.0944,-119.8074 814.7314,-110 783.6731,-73.5773 654.3008,-84.2793 591.7373,-73.8638"/>
<polygon fill="#191970" stroke="#191970" points="592.0744,-70.3619 581.5819,-71.8309 590.7003,-77.2257 592.0744,-70.3619"/>
</g>
<!-- Node35 -->
<g id="node36" class="node">
<title>Node35</title>
<g id="a_node36"><a xlink:href="sync_8h.html" target="_top" xlink:title="sync.h">
<polygon fill="#ffffff" stroke="#000000" points="861.2808,-115.5 861.2808,-133.5 906.1821,-133.5 906.1821,-115.5 861.2808,-115.5"/>
<text text-anchor="middle" x="883.7314" y="-121.5" font-family="Helvetica,sans-Serif" font-size="10.00" fill="#000000">sync.h</text>
</a>
</g>
</g>
<!-- Node2&#45;&gt;Node35 -->
<g id="edge38" class="edge">
<title>Node2&#45;&gt;Node35</title>
<path fill="none" stroke="#191970" d="M767.5026,-176.1573C789.9575,-166.1773 827.8179,-149.3505 854.2039,-137.6234"/>
<polygon fill="#191970" stroke="#191970" points="855.6395,-140.8155 863.3561,-133.5557 852.7965,-134.4188 855.6395,-140.8155"/>
</g>
<!-- Node39 -->
<g id="node40" class="node">
<title>Node39</title>
<g id="a_node40"><a xlink:href="utilmemory_8h.html" target="_top" xlink:title="utilmemory.h">
<polygon fill="#ffffff" stroke="#000000" points="961.4819,-115.5 961.4819,-133.5 1033.981,-133.5 1033.981,-115.5 961.4819,-115.5"/>
<text text-anchor="middle" x="997.7314" y="-121.5" font-family="Helvetica,sans-Serif" font-size="10.00" fill="#000000">utilmemory.h</text>
</a>
</g>
</g>
<!-- Node2&#45;&gt;Node39 -->
<g id="edge44" class="edge">
<title>Node2&#45;&gt;Node39</title>
<path fill="none" stroke="#191970" d="M767.4745,-180.5906C802.8589,-173.127 881.8613,-156.0665 947.7314,-139 951.0699,-138.135 954.5239,-137.2058 957.9848,-136.2507"/>
<polygon fill="#191970" stroke="#191970" points="958.9912,-139.6035 967.6669,-133.5221 957.0924,-132.8659 958.9912,-139.6035"/>
</g>
<!-- Node41 -->
<g id="node42" class="node">
<title>Node41</title>
<polygon fill="#ffffff" stroke="#bfbfbf" points="1041.3398,-55.5 1041.3398,-73.5 1080.123,-73.5 1080.123,-55.5 1041.3398,-55.5"/>
<text text-anchor="middle" x="1060.7314" y="-61.5" font-family="Helvetica,sans-Serif" font-size="10.00" fill="#000000">utility</text>
</g>
<!-- Node2&#45;&gt;Node41 -->
<g id="edge57" class="edge">
<title>Node2&#45;&gt;Node41</title>
<path fill="none" stroke="#191970" d="M767.4025,-184.2319C825.6017,-183.0081 1002.246,-176.2377 1042.7314,-139 1057.7706,-125.1673 1061.244,-101.1229 1061.6157,-84.0951"/>
<polygon fill="#191970" stroke="#191970" points="1065.1097,-83.5937 1061.4816,-73.6395 1058.1103,-83.6836 1065.1097,-83.5937"/>
</g>
<!-- Node42 -->
<g id="node43" class="node">
<title>Node42</title>
<g id="a_node43"><a xlink:href="utiltime_8h.html" target="_top" xlink:title="utiltime.h">
<polygon fill="#ffffff" stroke="#000000" points="1089.7241,-115.5 1089.7241,-133.5 1145.7388,-133.5 1145.7388,-115.5 1089.7241,-115.5"/>
<text text-anchor="middle" x="1117.7314" y="-121.5" font-family="Helvetica,sans-Serif" font-size="10.00" fill="#000000">utiltime.h</text>
</a>
</g>
</g>
<!-- Node2&#45;&gt;Node42 -->
<g id="edge47" class="edge">
<title>Node2&#45;&gt;Node42</title>
<path fill="none" stroke="#191970" d="M767.4046,-183.178C817.7632,-179.3397 960.3542,-166.6657 1075.7314,-139 1078.5444,-138.3255 1081.4346,-137.5374 1084.3188,-136.6836"/>
<polygon fill="#191970" stroke="#191970" points="1085.5214,-139.9738 1093.982,-133.5966 1083.3911,-133.3058 1085.5214,-139.9738"/>
</g>
<!-- Node43 -->
<g id="node44" class="node">
<title>Node43</title>
<polygon fill="#ffffff" stroke="#bfbfbf" points="1135.6108,-55.5 1135.6108,-73.5 1183.8521,-73.5 1183.8521,-55.5 1135.6108,-55.5"/>
<text text-anchor="middle" x="1159.7314" y="-61.5" font-family="Helvetica,sans-Serif" font-size="10.00" fill="#000000">stdint.h</text>
</g>
<!-- Node2&#45;&gt;Node43 -->
<g id="edge54" class="edge">
<title>Node2&#45;&gt;Node43</title>
<path fill="none" stroke="#191970" d="M767.386,-183.7902C843.4707,-180.7132 1127.5851,-167.3846 1154.7314,-139 1168.549,-124.5522 1167.5332,-100.4751 1164.5413,-83.6136"/>
<polygon fill="#191970" stroke="#191970" points="1167.945,-82.7927 1162.4259,-73.7489 1161.1006,-84.2605 1167.945,-82.7927"/>
</g>
<!-- Node44 -->
<g id="node45" class="node">
<title>Node44</title>
<polygon fill="#ffffff" stroke="#bfbfbf" points="416.3276,-115.5 416.3276,-133.5 475.1353,-133.5 475.1353,-115.5 416.3276,-115.5"/>
<text text-anchor="middle" x="445.7314" y="-121.5" font-family="Helvetica,sans-Serif" font-size="10.00" fill="#000000">exception</text>
</g>
<!-- Node2&#45;&gt;Node44 -->
<g id="edge51" class="edge">
<title>Node2&#45;&gt;Node44</title>
<path fill="none" stroke="#191970" d="M730.149,-182.5693C686.537,-177.7666 574.4521,-163.8425 483.7314,-139 481.4329,-138.3706 479.08,-137.6551 476.7269,-136.8872"/>
<polygon fill="#191970" stroke="#191970" points="477.7871,-133.5498 467.1923,-133.5214 475.457,-140.1506 477.7871,-133.5498"/>
</g>
<!-- Node45 -->
<g id="node46" class="node">
<title>Node45</title>
<polygon fill="#ffffff" stroke="#bfbfbf" points="493.0049,-115.5 493.0049,-133.5 528.458,-133.5 528.458,-115.5 493.0049,-115.5"/>
<text text-anchor="middle" x="510.7314" y="-121.5" font-family="Helvetica,sans-Serif" font-size="10.00" fill="#000000">map</text>
</g>
<!-- Node2&#45;&gt;Node45 -->
<g id="edge52" class="edge">
<title>Node2&#45;&gt;Node45</title>
<path fill="none" stroke="#191970" d="M730.0586,-182.3864C692.4759,-177.7255 605.4293,-164.8638 536.7314,-139 536.0059,-138.7268 535.2761,-138.4359 534.5451,-138.1302"/>
<polygon fill="#191970" stroke="#191970" points="535.7357,-134.8165 525.2143,-133.5712 532.6626,-141.106 535.7357,-134.8165"/>
</g>
<!-- Node46 -->
<g id="node47" class="node">
<title>Node46</title>
<polygon fill="#ffffff" stroke="#bfbfbf" points="546.0615,-115.5 546.0615,-133.5 575.4014,-133.5 575.4014,-115.5 546.0615,-115.5"/>
<text text-anchor="middle" x="560.7314" y="-121.5" font-family="Helvetica,sans-Serif" font-size="10.00" fill="#000000">set</text>
</g>
<!-- Node2&#45;&gt;Node46 -->
<g id="edge53" class="edge">
<title>Node2&#45;&gt;Node46</title>
<path fill="none" stroke="#191970" d="M729.9715,-181.0351C698.9056,-174.9183 635.1995,-160.7585 584.7314,-139 584.2956,-138.8121 583.8581,-138.6175 583.4198,-138.4169"/>
<polygon fill="#191970" stroke="#191970" points="584.8216,-135.1985 574.3478,-133.6016 581.5398,-141.3815 584.8216,-135.1985"/>
</g>
<!-- Node47 -->
<g id="node48" class="node">
<title>Node47</title>
<polygon fill="#ffffff" stroke="#bfbfbf" points="593.4854,-115.5 593.4854,-133.5 673.9775,-133.5 673.9775,-115.5 593.4854,-115.5"/>
<text text-anchor="middle" x="633.7314" y="-121.5" font-family="Helvetica,sans-Serif" font-size="10.00" fill="#000000">unordered_set</text>
</g>
<!-- Node2&#45;&gt;Node47 -->
<g id="edge56" class="edge">
<title>Node2&#45;&gt;Node47</title>
<path fill="none" stroke="#191970" d="M731.2654,-175.3873C712.3274,-165.5066 681.8873,-149.6248 660.0495,-138.2312"/>
<polygon fill="#191970" stroke="#191970" points="661.4699,-135.0245 650.985,-133.5019 658.2319,-141.2306 661.4699,-135.0245"/>
</g>
<!-- Node48 -->
<g id="node49" class="node">
<title>Node48</title>
<polygon fill="#ffffff" stroke="#bfbfbf" points="691.5298,-110.5 691.5298,-138.5 805.9331,-138.5 805.9331,-110.5 691.5298,-110.5"/>
<text text-anchor="start" x="699.5298" y="-126.5" font-family="Helvetica,sans-Serif" font-size="10.00" fill="#000000">boost/thread/condition</text>
<text text-anchor="middle" x="748.7314" y="-116.5" font-family="Helvetica,sans-Serif" font-size="10.00" fill="#000000">_variable.hpp</text>
</g>
<!-- Node2&#45;&gt;Node48 -->
<g id="edge59" class="edge">
<title>Node2&#45;&gt;Node48</title>
<path fill="none" stroke="#191970" d="M748.7314,-175.3873C748.7314,-168.3369 748.7314,-158.2311 748.7314,-148.8806"/>
<polygon fill="#191970" stroke="#191970" points="752.2315,-148.8476 748.7314,-138.8477 745.2315,-148.8477 752.2315,-148.8476"/>
</g>
<!-- Node4 -->
<g id="node5" class="node">
<title>Node4</title>
<polygon fill="#ffffff" stroke="#bfbfbf" points="1468.665,-55.5 1468.665,-73.5 1530.7979,-73.5 1530.7979,-55.5 1468.665,-55.5"/>
<text text-anchor="middle" x="1499.7314" y="-61.5" font-family="Helvetica,sans-Serif" font-size="10.00" fill="#000000">type_traits</text>
</g>
<!-- Node3&#45;&gt;Node4 -->
<g id="edge4" class="edge">
<title>Node3&#45;&gt;Node4</title>
<path fill="none" stroke="#191970" d="M1658.3302,-115.3873C1626.0163,-105.0192 1573.1083,-88.0434 1537.3781,-76.5791"/>
<polygon fill="#191970" stroke="#191970" points="1538.3785,-73.2244 1527.7873,-73.5019 1536.2398,-79.8897 1538.3785,-73.2244"/>
</g>
<!-- Node5 -->
<g id="node6" class="node">
<title>Node5</title>
<polygon fill="#ffffff" stroke="#bfbfbf" points="1548.3916,-55.5 1548.3916,-73.5 1591.0713,-73.5 1591.0713,-55.5 1548.3916,-55.5"/>
<text text-anchor="middle" x="1569.7314" y="-61.5" font-family="Helvetica,sans-Serif" font-size="10.00" fill="#000000">fcntl.h</text>
</g>
<!-- Node3&#45;&gt;Node5 -->
<g id="edge5" class="edge">
<title>Node3&#45;&gt;Node5</title>
<path fill="none" stroke="#191970" d="M1668.9617,-115.3873C1649.6079,-105.4623 1618.4468,-89.4822 1596.2089,-78.0782"/>
<polygon fill="#191970" stroke="#191970" points="1597.7804,-74.9507 1587.2851,-73.5019 1594.5862,-81.1795 1597.7804,-74.9507"/>
</g>
<!-- Node6 -->
<g id="node7" class="node">
<title>Node6</title>
<polygon fill="#ffffff" stroke="#bfbfbf" points="1608.7808,-55.5 1608.7808,-73.5 1678.6821,-73.5 1678.6821,-55.5 1608.7808,-55.5"/>
<text text-anchor="middle" x="1643.7314" y="-61.5" font-family="Helvetica,sans-Serif" font-size="10.00" fill="#000000">sys/mman.h</text>
</g>
<!-- Node3&#45;&gt;Node6 -->
<g id="edge6" class="edge">
<title>Node3&#45;&gt;Node6</title>
<path fill="none" stroke="#191970" d="M1680.2007,-115.3873C1673.8866,-106.5769 1664.1529,-92.9951 1656.3293,-82.0784"/>
<polygon fill="#191970" stroke="#191970" points="1658.9938,-79.7878 1650.3237,-73.6985 1653.304,-83.8655 1658.9938,-79.7878"/>
</g>
<!-- Node7 -->
<g id="node8" class="node">
<title>Node7</title>
<polygon fill="#ffffff" stroke="#bfbfbf" points="1696.6108,-55.5 1696.6108,-73.5 1764.8521,-73.5 1764.8521,-55.5 1696.6108,-55.5"/>
<text text-anchor="middle" x="1730.7314" y="-61.5" font-family="Helvetica,sans-Serif" font-size="10.00" fill="#000000">sys/select.h</text>
</g>
<!-- Node3&#45;&gt;Node7 -->
<g id="edge7" class="edge">
<title>Node3&#45;&gt;Node7</title>
<path fill="none" stroke="#191970" d="M1693.4141,-115.3873C1699.875,-106.5769 1709.835,-92.9951 1717.8406,-82.0784"/>
<polygon fill="#191970" stroke="#191970" points="1720.8947,-83.8323 1723.9859,-73.6985 1715.2498,-79.6927 1720.8947,-83.8323"/>
</g>
<!-- Node8 -->
<g id="node9" class="node">
<title>Node8</title>
<polygon fill="#ffffff" stroke="#bfbfbf" points="1783.2217,-55.5 1783.2217,-73.5 1854.2412,-73.5 1854.2412,-55.5 1783.2217,-55.5"/>
<text text-anchor="middle" x="1818.7314" y="-61.5" font-family="Helvetica,sans-Serif" font-size="10.00" fill="#000000">sys/socket.h</text>
</g>
<!-- Node3&#45;&gt;Node8 -->
<g id="edge8" class="edge">
<title>Node3&#45;&gt;Node8</title>
<path fill="none" stroke="#191970" d="M1706.7794,-115.3873C1728.8094,-105.3737 1764.3994,-89.1964 1789.5291,-77.7738"/>
<polygon fill="#191970" stroke="#191970" points="1791.272,-80.8262 1798.9273,-73.5019 1788.3753,-74.4537 1791.272,-80.8262"/>
</g>
<!-- Node9 -->
<g id="node10" class="node">
<title>Node9</title>
<polygon fill="#ffffff" stroke="#bfbfbf" points="1872.7217,-55.5 1872.7217,-73.5 1938.7412,-73.5 1938.7412,-55.5 1872.7217,-55.5"/>
<text text-anchor="middle" x="1905.7314" y="-61.5" font-family="Helvetica,sans-Serif" font-size="10.00" fill="#000000">sys/types.h</text>
</g>
<!-- Node3&#45;&gt;Node9 -->
<g id="edge9" class="edge">
<title>Node3&#45;&gt;Node9</title>
<path fill="none" stroke="#191970" d="M1715.3619,-116.656C1753.0092,-106.3417 1819.4721,-88.1327 1863.0594,-76.191"/>
<polygon fill="#191970" stroke="#191970" points="1864.0845,-79.5392 1872.8042,-73.5212 1862.2348,-72.788 1864.0845,-79.5392"/>
</g>
<!-- Node10 -->
<g id="node11" class="node">
<title>Node10</title>
<polygon fill="#ffffff" stroke="#bfbfbf" points="1956.7217,-55.5 1956.7217,-73.5 2002.7412,-73.5 2002.7412,-55.5 1956.7217,-55.5"/>
<text text-anchor="middle" x="1979.7314" y="-61.5" font-family="Helvetica,sans-Serif" font-size="10.00" fill="#000000">net/if.h</text>
</g>
<!-- Node3&#45;&gt;Node10 -->
<g id="edge10" class="edge">
<title>Node3&#45;&gt;Node10</title>
<path fill="none" stroke="#191970" d="M1715.5092,-119.8762C1762.1133,-112.1851 1857.1318,-95.664 1946.6262,-74.0949"/>
<polygon fill="#191970" stroke="#191970" points="1947.4972,-77.4851 1956.3844,-71.7172 1945.84,-70.6841 1947.4972,-77.4851"/>
</g>
<!-- Node11 -->
<g id="node12" class="node">
<title>Node11</title>
<polygon fill="#ffffff" stroke="#bfbfbf" points="2020.2686,-55.5 2020.2686,-73.5 2085.1943,-73.5 2085.1943,-55.5 2020.2686,-55.5"/>
<text text-anchor="middle" x="2052.7314" y="-61.5" font-family="Helvetica,sans-Serif" font-size="10.00" fill="#000000">netinet/in.h</text>
</g>
<!-- Node3&#45;&gt;Node11 -->
<g id="edge11" class="edge">
<title>Node3&#45;&gt;Node11</title>
<path fill="none" stroke="#191970" d="M1715.548,-120.7475C1770.7983,-113.3974 1895.633,-96.0413 2010.1217,-74.2083"/>
<polygon fill="#191970" stroke="#191970" points="2010.9452,-77.6141 2020.1039,-72.288 2009.6227,-70.7401 2010.9452,-77.6141"/>
</g>
<!-- Node12 -->
<g id="node13" class="node">
<title>Node12</title>
<polygon fill="#ffffff" stroke="#bfbfbf" points="2103.4902,-55.5 2103.4902,-73.5 2173.9727,-73.5 2173.9727,-55.5 2103.4902,-55.5"/>
<text text-anchor="middle" x="2138.7314" y="-61.5" font-family="Helvetica,sans-Serif" font-size="10.00" fill="#000000">netinet/tcp.h</text>
</g>
<!-- Node3&#45;&gt;Node12 -->
<g id="edge12" class="edge">
<title>Node3&#45;&gt;Node12</title>
<path fill="none" stroke="#191970" d="M1715.4719,-121.7785C1780.6778,-115.424 1944.9753,-98.401 2093.22,-73.9485"/>
<polygon fill="#191970" stroke="#191970" points="2094.1227,-77.3464 2103.4118,-72.2512 2092.9727,-70.4415 2094.1227,-77.3464"/>
</g>
<!-- Node13 -->
<g id="node14" class="node">
<title>Node13</title>
<polygon fill="#ffffff" stroke="#bfbfbf" points="2192.1035,-55.5 2192.1035,-73.5 2255.3594,-73.5 2255.3594,-55.5 2192.1035,-55.5"/>
<text text-anchor="middle" x="2223.7314" y="-61.5" font-family="Helvetica,sans-Serif" font-size="10.00" fill="#000000">arpa/inet.h</text>
</g>
<!-- Node3&#45;&gt;Node13 -->
<g id="edge13" class="edge">
<title>Node3&#45;&gt;Node13</title>
<path fill="none" stroke="#191970" d="M1715.416,-122.8505C1790.4317,-118.2677 1998.699,-103.8187 2181.9387,-73.9283"/>
<polygon fill="#191970" stroke="#191970" points="2182.7302,-77.3451 2192.0265,-72.2628 2181.5899,-70.4386 2182.7302,-77.3451"/>
</g>
<!-- Node14 -->
<g id="node15" class="node">
<title>Node14</title>
<polygon fill="#ffffff" stroke="#bfbfbf" points="2273.5542,-55.5 2273.5542,-73.5 2327.9087,-73.5 2327.9087,-55.5 2273.5542,-55.5"/>
<text text-anchor="middle" x="2300.7314" y="-61.5" font-family="Helvetica,sans-Serif" font-size="10.00" fill="#000000">ifaddrs.h</text>
</g>
<!-- Node3&#45;&gt;Node14 -->
<g id="edge14" class="edge">
<title>Node3&#45;&gt;Node14</title>
<path fill="none" stroke="#191970" d="M1715.5231,-123.7224C1799.0066,-121.1021 2048.3888,-110.69 2263.4307,-73.9619"/>
<polygon fill="#191970" stroke="#191970" points="2264.0645,-77.4043 2273.3208,-72.2497 2262.8703,-70.5069 2264.0645,-77.4043"/>
</g>
<!-- Node15 -->
<g id="node16" class="node">
<title>Node15</title>
<polygon fill="#ffffff" stroke="#bfbfbf" points="1202.1748,-55.5 1202.1748,-73.5 1249.2881,-73.5 1249.2881,-55.5 1202.1748,-55.5"/>
<text text-anchor="middle" x="1225.7314" y="-61.5" font-family="Helvetica,sans-Serif" font-size="10.00" fill="#000000">limits.h</text>
</g>
<!-- Node3&#45;&gt;Node15 -->
<g id="edge15" class="edge">
<title>Node3&#45;&gt;Node15</title>
<path fill="none" stroke="#191970" d="M1658.0999,-122.8307C1590.2692,-118.5163 1414.4354,-105.2248 1259.5524,-74.09"/>
<polygon fill="#191970" stroke="#191970" points="1259.8803,-70.5848 1249.3822,-72.0133 1258.4798,-77.4432 1259.8803,-70.5848"/>
</g>
<!-- Node16 -->
<g id="node17" class="node">
<title>Node16</title>
<polygon fill="#ffffff" stroke="#bfbfbf" points="1267.0493,-55.5 1267.0493,-73.5 1316.4136,-73.5 1316.4136,-55.5 1267.0493,-55.5"/>
<text text-anchor="middle" x="1291.7314" y="-61.5" font-family="Helvetica,sans-Serif" font-size="10.00" fill="#000000">netdb.h</text>
</g>
<!-- Node3&#45;&gt;Node16 -->
<g id="edge16" class="edge">
<title>Node3&#45;&gt;Node16</title>
<path fill="none" stroke="#191970" d="M1657.8648,-121.8762C1597.7806,-116.1165 1454.8226,-100.8597 1326.5003,-74.1498"/>
<polygon fill="#191970" stroke="#191970" points="1327.01,-70.6803 1316.5026,-72.0389 1325.5638,-77.5293 1327.01,-70.6803"/>
</g>
<!-- Node17 -->
<g id="node18" class="node">
<title>Node17</title>
<polygon fill="#ffffff" stroke="#bfbfbf" points="1334.2192,-55.5 1334.2192,-73.5 1385.2437,-73.5 1385.2437,-55.5 1334.2192,-55.5"/>
<text text-anchor="middle" x="1359.7314" y="-61.5" font-family="Helvetica,sans-Serif" font-size="10.00" fill="#000000">unistd.h</text>
</g>
<!-- Node3&#45;&gt;Node17 -->
<g id="edge17" class="edge">
<title>Node3&#45;&gt;Node17</title>
<path fill="none" stroke="#191970" d="M1657.8434,-120.5179C1606.7165,-113.2565 1496.8118,-96.6883 1395.096,-74.1399"/>
<polygon fill="#191970" stroke="#191970" points="1395.8039,-70.7118 1385.2804,-71.9393 1394.2724,-77.5423 1395.8039,-70.7118"/>
</g>
<!-- Node18 -->
<g id="node19" class="node">
<title>Node18</title>
<polygon fill="#ffffff" stroke="#bfbfbf" points="1402.8892,-55.5 1402.8892,-73.5 1450.5737,-73.5 1450.5737,-55.5 1402.8892,-55.5"/>
<text text-anchor="middle" x="1426.7314" y="-61.5" font-family="Helvetica,sans-Serif" font-size="10.00" fill="#000000">errno.h</text>
</g>
<!-- Node3&#45;&gt;Node18 -->
<g id="edge18" class="edge">
<title>Node3&#45;&gt;Node18</title>
<path fill="none" stroke="#191970" d="M1657.9301,-118.6843C1616.4712,-110.1848 1537.3769,-93.4936 1460.6625,-74.1236"/>
<polygon fill="#191970" stroke="#191970" points="1461.3897,-70.6972 1450.8354,-71.624 1459.664,-77.4812 1461.3897,-70.6972"/>
</g>
<!-- Node19&#45;&gt;Node1 -->
<g id="edge20" class="edge">
<title>Node19&#45;&gt;Node1</title>
<path fill="none" stroke="#191970" d="M252.4635,-57.847C249.5836,-56.805 246.5912,-55.8075 243.7314,-55 164.0881,-32.5115 139.0188,-39.0736 55.5885,-19.2518"/>
<polygon fill="#191970" stroke="#191970" points="56.2199,-15.8034 45.6759,-16.8393 54.5646,-22.6049 56.2199,-15.8034"/>
</g>
<!-- Node19&#45;&gt;Node20 -->
<g id="edge21" class="edge">
<title>Node19&#45;&gt;Node20</title>
<path fill="none" stroke="#191970" d="M284.9277,-57.5616C287.8157,-56.5513 290.8293,-55.6384 293.7314,-55 414.152,-28.5118 800.8039,-14.1424 912.9639,-10.4595"/>
<polygon fill="#191970" stroke="#191970" points="913.3539,-13.9488 923.2355,-10.127 913.1274,-6.9524 913.3539,-13.9488"/>
</g>
<!-- Node21 -->
<g id="node22" class="node">
<title>Node21</title>
<polygon fill="#ffffff" stroke="#bfbfbf" points="224.1528,-.5 224.1528,-18.5 331.3101,-18.5 331.3101,-.5 224.1528,-.5"/>
<text text-anchor="middle" x="277.7314" y="-6.5" font-family="Helvetica,sans-Serif" font-size="10.00" fill="#000000">boost/filesystem.hpp</text>
</g>
<!-- Node19&#45;&gt;Node21 -->
<g id="edge22" class="edge">
<title>Node19&#45;&gt;Node21</title>
<path fill="none" stroke="#191970" d="M270.2176,-55.4179C271.396,-48.2164 273.0848,-37.8962 274.5629,-28.8632"/>
<polygon fill="#191970" stroke="#191970" points="278.0521,-29.2134 276.213,-18.7795 271.144,-28.083 278.0521,-29.2134"/>
</g>
<!-- Node22 -->
<g id="node23" class="node">
<title>Node22</title>
<polygon fill="#ffffff" stroke="#bfbfbf" points="63.0938,-.5 63.0938,-18.5 206.3691,-18.5 206.3691,-.5 63.0938,-.5"/>
<text text-anchor="middle" x="134.7314" y="-6.5" font-family="Helvetica,sans-Serif" font-size="10.00" fill="#000000">boost/filesystem/fstream.hpp</text>
</g>
<!-- Node19&#45;&gt;Node22 -->
<g id="edge23" class="edge">
<title>Node19&#45;&gt;Node22</title>
<path fill="none" stroke="#191970" d="M252.5679,-57.8657C231.2414,-49.1123 193.2444,-33.5165 166.1641,-22.4015"/>
<polygon fill="#191970" stroke="#191970" points="167.3123,-19.0894 156.7322,-18.5302 164.6543,-25.5652 167.3123,-19.0894"/>
</g>
<!-- Node23&#45;&gt;Node19 -->
<g id="edge25" class="edge">
<title>Node23&#45;&gt;Node19</title>
<path fill="none" stroke="#191970" d="M323.0112,-115.3873C313.2376,-106.2245 297.9591,-91.9009 286.0986,-80.7817"/>
<polygon fill="#191970" stroke="#191970" points="288.2323,-77.9845 278.5431,-73.6985 283.4447,-83.0913 288.2323,-77.9845"/>
</g>
<!-- Node23&#45;&gt;Node20 -->
<g id="edge36" class="edge">
<title>Node23&#45;&gt;Node20</title>
<path fill="none" stroke="#191970" d="M361.1676,-116.8453C393.1643,-107.904 446.4538,-92.0198 490.7314,-74 508.2209,-66.8823 510.6184,-60.3347 528.7314,-55 601.0843,-33.6904 830.0919,-16.9562 913.212,-11.4427"/>
<polygon fill="#191970" stroke="#191970" points="913.5262,-14.9297 923.2758,-10.7829 913.0682,-7.9447 913.5262,-14.9297"/>
</g>
<!-- Node23&#45;&gt;Node24 -->
<g id="edge26" class="edge">
<title>Node23&#45;&gt;Node24</title>
<path fill="none" stroke="#191970" d="M350.1975,-115.3873C369.1355,-105.5066 399.5756,-89.6248 421.4134,-78.2312"/>
<polygon fill="#191970" stroke="#191970" points="423.231,-81.2306 430.4779,-73.5019 419.993,-75.0245 423.231,-81.2306"/>
</g>
<!-- Node23&#45;&gt;Node30 -->
<g id="edge32" class="edge">
<title>Node23&#45;&gt;Node30</title>
<path fill="none" stroke="#191970" d="M314.3541,-115.3873C294.3387,-105.4623 262.1123,-89.4822 239.1141,-78.0782"/>
<polygon fill="#191970" stroke="#191970" points="240.3992,-74.8088 229.8852,-73.5019 237.2894,-81.0801 240.3992,-74.8088"/>
</g>
<!-- Node31 -->
<g id="node32" class="node">
<title>Node31</title>
<polygon fill="#ffffff" stroke="#bfbfbf" points="350.2808,-55.5 350.2808,-73.5 395.1821,-73.5 395.1821,-55.5 350.2808,-55.5"/>
<text text-anchor="middle" x="372.7314" y="-61.5" font-family="Helvetica,sans-Serif" font-size="10.00" fill="#000000">cstdint</text>
</g>
<!-- Node23&#45;&gt;Node31 -->
<g id="edge33" class="edge">
<title>Node23&#45;&gt;Node31</title>
<path fill="none" stroke="#191970" d="M338.8066,-115.3873C344.6802,-106.5769 353.7347,-92.9951 361.0125,-82.0784"/>
<polygon fill="#191970" stroke="#191970" points="363.9643,-83.9605 366.5991,-73.6985 358.1399,-80.0775 363.9643,-83.9605"/>
</g>
<!-- Node32 -->
<g id="node33" class="node">
<title>Node32</title>
<polygon fill="#ffffff" stroke="#bfbfbf" points="303.2314,-55.5 303.2314,-73.5 332.2314,-73.5 332.2314,-55.5 303.2314,-55.5"/>
<text text-anchor="middle" x="317.3423" y="-61.5" font-family="Helvetica,sans-Serif" font-size="10.00" fill="#000000">list</text>
</g>
<!-- Node23&#45;&gt;Node32 -->
<g id="edge34" class="edge">
<title>Node23&#45;&gt;Node32</title>
<path fill="none" stroke="#191970" d="M330.4533,-115.3873C328.3388,-106.9293 325.125,-94.074 322.4566,-83.4007"/>
<polygon fill="#191970" stroke="#191970" points="325.852,-82.551 320.0311,-73.6985 319.061,-84.2488 325.852,-82.551"/>
</g>
<!-- Node33 -->
<g id="node34" class="node">
<title>Node33</title>
<polygon fill="#ffffff" stroke="#bfbfbf" points="599.1157,-55.5 599.1157,-73.5 642.3472,-73.5 642.3472,-55.5 599.1157,-55.5"/>
<text text-anchor="middle" x="620.7314" y="-61.5" font-family="Helvetica,sans-Serif" font-size="10.00" fill="#000000">mutex</text>
</g>
<!-- Node23&#45;&gt;Node33 -->
<g id="edge35" class="edge">
<title>Node23&#45;&gt;Node33</title>
<path fill="none" stroke="#191970" d="M361.0925,-118.9924C419.4985,-107.6451 550.4826,-82.169 588.978,-73.9718"/>
<polygon fill="#191970" stroke="#191970" points="589.875,-77.3574 598.859,-71.7416 588.3338,-70.5292 589.875,-77.3574"/>
</g>
<!-- Node23&#45;&gt;Node34 -->
<g id="edge37" class="edge">
<title>Node23&#45;&gt;Node34</title>
<path fill="none" stroke="#191970" d="M361.4812,-116.901C404.1138,-105.6324 483.8105,-84.5672 528.0654,-72.8699"/>
<polygon fill="#191970" stroke="#191970" points="529.2147,-76.1864 537.9882,-70.2471 527.4258,-69.4188 529.2147,-76.1864"/>
</g>
<!-- Node25 -->
<g id="node26" class="node">
<title>Node25</title>
<polygon fill="#ffffff" stroke="#bfbfbf" points="568.1675,-.5 568.1675,-18.5 625.2954,-18.5 625.2954,-.5 568.1675,-.5"/>
<text text-anchor="middle" x="596.7314" y="-6.5" font-family="Helvetica,sans-Serif" font-size="10.00" fill="#000000">algorithm</text>
</g>
<!-- Node24&#45;&gt;Node25 -->
<g id="edge27" class="edge">
<title>Node24&#45;&gt;Node25</title>
<path fill="none" stroke="#191970" d="M472.3358,-55.4179C496.9235,-46.3419 534.9308,-32.3123 562.4647,-22.1488"/>
<polygon fill="#191970" stroke="#191970" points="563.9213,-25.342 572.0906,-18.5956 561.4973,-18.7751 563.9213,-25.342"/>
</g>
<!-- Node26 -->
<g id="node27" class="node">
<title>Node26</title>
<polygon fill="#ffffff" stroke="#bfbfbf" points="643.6157,-.5 643.6157,-18.5 691.8472,-18.5 691.8472,-.5 643.6157,-.5"/>
<text text-anchor="middle" x="667.7314" y="-6.5" font-family="Helvetica,sans-Serif" font-size="10.00" fill="#000000">cassert</text>
</g>
<!-- Node24&#45;&gt;Node26 -->
<g id="edge28" class="edge">
<title>Node24&#45;&gt;Node26</title>
<path fill="none" stroke="#191970" d="M481.9627,-56.6222C517.5612,-48.3302 575.1302,-34.6435 633.8067,-19.169"/>
<polygon fill="#191970" stroke="#191970" points="634.8442,-22.5149 643.613,-16.5686 633.05,-15.7488 634.8442,-22.5149"/>
</g>
<!-- Node27 -->
<g id="node28" class="node">
<title>Node27</title>
<polygon fill="#ffffff" stroke="#bfbfbf" points="349.5591,-.5 349.5591,-18.5 403.9038,-18.5 403.9038,-.5 349.5591,-.5"/>
<text text-anchor="middle" x="376.7314" y="-6.5" font-family="Helvetica,sans-Serif" font-size="10.00" fill="#000000">iostream</text>
</g>
<!-- Node24&#45;&gt;Node27 -->
<g id="edge29" class="edge">
<title>Node24&#45;&gt;Node27</title>
<path fill="none" stroke="#191970" d="M436.0072,-55.4179C425.3827,-47.1876 409.4998,-34.8839 396.8484,-25.0836"/>
<polygon fill="#191970" stroke="#191970" points="398.7593,-22.1365 388.7104,-18.7795 394.4725,-27.6704 398.7593,-22.1365"/>
</g>
<!-- Node28 -->
<g id="node29" class="node">
<title>Node28</title>
<polygon fill="#ffffff" stroke="#bfbfbf" points="421.9507,-.5 421.9507,-18.5 473.5122,-18.5 473.5122,-.5 421.9507,-.5"/>
<text text-anchor="middle" x="447.7314" y="-6.5" font-family="Helvetica,sans-Serif" font-size="10.00" fill="#000000">sstream</text>
</g>
<!-- Node24&#45;&gt;Node28 -->
<g id="edge30" class="edge">
<title>Node24&#45;&gt;Node28</title>
<path fill="none" stroke="#191970" d="M447.7314,-55.4179C447.7314,-48.2164 447.7314,-37.8962 447.7314,-28.8632"/>
<polygon fill="#191970" stroke="#191970" points="451.2315,-28.7794 447.7314,-18.7795 444.2315,-28.7795 451.2315,-28.7794"/>
</g>
<!-- Node29 -->
<g id="node30" class="node">
<title>Node29</title>
<polygon fill="#ffffff" stroke="#bfbfbf" points="491.3301,-.5 491.3301,-18.5 550.1328,-18.5 550.1328,-.5 491.3301,-.5"/>
<text text-anchor="middle" x="520.7314" y="-6.5" font-family="Helvetica,sans-Serif" font-size="10.00" fill="#000000">stdexcept</text>
</g>
<!-- Node24&#45;&gt;Node29 -->
<g id="edge31" class="edge">
<title>Node24&#45;&gt;Node29</title>
<path fill="none" stroke="#191970" d="M459.7859,-55.4179C470.8148,-47.1084 487.3546,-34.6469 500.4221,-24.8015"/>
<polygon fill="#191970" stroke="#191970" points="502.5343,-27.5924 508.4151,-18.7795 498.3221,-22.0016 502.5343,-27.5924"/>
</g>
<!-- Node35&#45;&gt;Node33 -->
<g id="edge42" class="edge">
<title>Node35&#45;&gt;Node33</title>
<path fill="none" stroke="#191970" d="M863.4219,-115.492C858.3655,-113.4805 852.9085,-111.5014 847.7314,-110 765.6588,-86.1975 739.5965,-94.3723 652.4364,-73.9164"/>
<polygon fill="#191970" stroke="#191970" points="653.2012,-70.5006 642.6598,-71.5634 651.5631,-77.3062 653.2012,-70.5006"/>
</g>
<!-- Node36 -->
<g id="node37" class="node">
<title>Node36</title>
<g id="a_node37"><a xlink:href="threadsafety_8h.html" target="_top" xlink:title="threadsafety.h">
<polygon fill="#ffffff" stroke="#000000" points="722.4131,-55.5 722.4131,-73.5 801.0498,-73.5 801.0498,-55.5 722.4131,-55.5"/>
<text text-anchor="middle" x="761.7314" y="-61.5" font-family="Helvetica,sans-Serif" font-size="10.00" fill="#000000">threadsafety.h</text>
</a>
</g>
</g>
<!-- Node35&#45;&gt;Node36 -->
<g id="edge39" class="edge">
<title>Node35&#45;&gt;Node36</title>
<path fill="none" stroke="#191970" d="M865.2023,-115.3873C844.9313,-105.418 812.2383,-89.3394 789.0304,-77.9257"/>
<polygon fill="#191970" stroke="#191970" points="790.5534,-74.7744 780.0353,-73.5019 787.4641,-81.0559 790.5534,-74.7744"/>
</g>
<!-- Node37 -->
<g id="node38" class="node">
<title>Node37</title>
<polygon fill="#ffffff" stroke="#bfbfbf" points="819.4263,-55.5 819.4263,-73.5 916.0366,-73.5 916.0366,-55.5 819.4263,-55.5"/>
<text text-anchor="middle" x="867.7314" y="-61.5" font-family="Helvetica,sans-Serif" font-size="10.00" fill="#000000">condition_variable</text>
</g>
<!-- Node35&#45;&gt;Node37 -->
<g id="edge40" class="edge">
<title>Node35&#45;&gt;Node37</title>
<path fill="none" stroke="#191970" d="M881.3014,-115.3873C879.0459,-106.9293 875.6179,-94.074 872.7716,-83.4007"/>
<polygon fill="#191970" stroke="#191970" points="876.1429,-82.459 870.1844,-73.6985 869.3792,-84.2627 876.1429,-82.459"/>
</g>
<!-- Node38 -->
<g id="node39" class="node">
<title>Node38</title>
<polygon fill="#ffffff" stroke="#bfbfbf" points="660.5542,-55.5 660.5542,-73.5 704.9087,-73.5 704.9087,-55.5 660.5542,-55.5"/>
<text text-anchor="middle" x="682.7314" y="-61.5" font-family="Helvetica,sans-Serif" font-size="10.00" fill="#000000">thread</text>
</g>
<!-- Node35&#45;&gt;Node38 -->
<g id="edge41" class="edge">
<title>Node35&#45;&gt;Node38</title>
<path fill="none" stroke="#191970" d="M862.5691,-115.4835C857.7338,-113.5615 852.588,-111.6239 847.7314,-110 792.2167,-91.4378 774.7578,-91.0287 715.018,-74.277"/>
<polygon fill="#191970" stroke="#191970" points="715.6308,-70.8125 705.0548,-71.4428 713.7155,-77.5454 715.6308,-70.8125"/>
</g>
<!-- Node40 -->
<g id="node41" class="node">
<title>Node40</title>
<polygon fill="#ffffff" stroke="#bfbfbf" points="971.6748,-55.5 971.6748,-73.5 1023.7881,-73.5 1023.7881,-55.5 971.6748,-55.5"/>
<text text-anchor="middle" x="997.7314" y="-61.5" font-family="Helvetica,sans-Serif" font-size="10.00" fill="#000000">memory</text>
</g>
<!-- Node39&#45;&gt;Node40 -->
<g id="edge45" class="edge">
<title>Node39&#45;&gt;Node40</title>
<path fill="none" stroke="#191970" d="M997.7314,-115.3873C997.7314,-107.0174 997.7314,-94.3414 997.7314,-83.735"/>
<polygon fill="#191970" stroke="#191970" points="1001.2315,-83.6984 997.7314,-73.6985 994.2315,-83.6985 1001.2315,-83.6984"/>
</g>
<!-- Node39&#45;&gt;Node41 -->
<g id="edge46" class="edge">
<title>Node39&#45;&gt;Node41</title>
<path fill="none" stroke="#191970" d="M1007.2998,-115.3873C1016.9207,-106.2245 1031.9605,-91.9009 1043.6357,-80.7817"/>
<polygon fill="#191970" stroke="#191970" points="1046.2455,-83.1295 1051.0731,-73.6985 1041.4178,-78.0606 1046.2455,-83.1295"/>
</g>
<!-- Node42&#45;&gt;Node20 -->
<g id="edge49" class="edge">
<title>Node42&#45;&gt;Node20</title>
<path fill="none" stroke="#191970" d="M1116.4413,-115.4297C1113.8632,-100.6537 1106.6932,-71.3934 1088.7314,-55 1071.8092,-39.5553 1011.1133,-24.1255 973.8245,-15.7985"/>
<polygon fill="#191970" stroke="#191970" points="974.5009,-12.3638 963.9837,-13.6442 973.0038,-19.2019 974.5009,-12.3638"/>
</g>
<!-- Node42&#45;&gt;Node43 -->
<g id="edge48" class="edge">
<title>Node42&#45;&gt;Node43</title>
<path fill="none" stroke="#191970" d="M1124.1103,-115.3873C1130.2776,-106.5769 1139.7849,-92.9951 1147.4266,-82.0784"/>
<polygon fill="#191970" stroke="#191970" points="1150.4252,-83.8979 1153.2925,-73.6985 1144.6905,-79.8837 1150.4252,-83.8979"/>
</g>
<!-- Node49&#45;&gt;Node20 -->
<g id="edge61" class="edge">
<title>Node49&#45;&gt;Node20</title>
<path fill="none" stroke="#191970" d="M1646.4092,-183.5482C1828.7793,-179.2742 2435.7309,-157.2859 2336.7314,-55 2312.2034,-29.6577 1176.3513,-12.7285 974.304,-9.9151"/>
<polygon fill="#191970" stroke="#191970" points="974.1602,-6.4129 964.1128,-9.7742 974.0634,-13.4122 974.1602,-6.4129"/>
</g>
</g>
</svg>
