<?xml version="1.0" encoding="UTF-8" standalone="no"?>
<!DOCTYPE svg PUBLIC "-//W3C//DTD SVG 1.1//EN"
 "http://www.w3.org/Graphics/SVG/1.1/DTD/svg11.dtd">
<!-- Generated by graphviz version 2.40.1 (20161225.0304)
 -->
<!-- Title: src/secp256k1/src/group.h Pages: 1 -->
<svg width="1111pt" height="352pt"
 viewBox="0.00 0.00 1111.47 352.00" xmlns="http://www.w3.org/2000/svg" xmlns:xlink="http://www.w3.org/1999/xlink">
<g id="graph0" class="graph" transform="scale(1 1) rotate(0) translate(4 348)">
<title>src/secp256k1/src/group.h</title>
<polygon fill="#ffffff" stroke="transparent" points="-4,4 -4,-348 1107.4702,-348 1107.4702,4 -4,4"/>
<!-- Node7 -->
<g id="node1" class="node">
<title>Node7</title>
<polygon fill="#bfbfbf" stroke="#000000" points="525.8301,-325.5 525.8301,-343.5 659.1104,-343.5 659.1104,-325.5 525.8301,-325.5"/>
<text text-anchor="middle" x="592.4702" y="-331.5" font-family="Helvetica,sans-Serif" font-size="10.00" fill="#000000">src/secp256k1/src/group.h</text>
</g>
<!-- Node8 -->
<g id="node2" class="node">
<title>Node8</title>
<g id="a_node2"><a xlink:href="group__impl_8h.html" target="_top" xlink:title="src/secp256k1/src/group\l_impl.h">
<polygon fill="#ffffff" stroke="#000000" points="0,-130.5 0,-158.5 124.9404,-158.5 124.9404,-130.5 0,-130.5"/>
<text text-anchor="start" x="8" y="-146.5" font-family="Helvetica,sans-Serif" font-size="10.00" fill="#000000">src/secp256k1/src/group</text>
<text text-anchor="middle" x="62.4702" y="-136.5" font-family="Helvetica,sans-Serif" font-size="10.00" fill="#000000">_impl.h</text>
</a>
</g>
</g>
<!-- Node7&#45;&gt;Node8 -->
<g id="edge1" class="edge">
<title>Node7&#45;&gt;Node8</title>
<path fill="none" stroke="#191970" d="M515.748,-330.2671C397.6039,-323.2002 181.554,-307.8939 151.4702,-289 102.0677,-257.9732 75.8444,-188.5003 66.4978,-158.613"/>
<polygon fill="#191970" stroke="#191970" points="515.6321,-333.7663 525.8216,-330.8639 516.0462,-326.7785 515.6321,-333.7663"/>
</g>
<!-- Node12 -->
<g id="node6" class="node">
<title>Node12</title>
<g id="a_node6"><a xlink:href="tests__exhaustive_8c.html" target="_top" xlink:title="src/secp256k1/src/tests\l_exhaustive.c">
<polygon fill="#ffffff" stroke="#000000" points="864.229,-.5 864.229,-28.5 984.7114,-28.5 984.7114,-.5 864.229,-.5"/>
<text text-anchor="start" x="872.229" y="-16.5" font-family="Helvetica,sans-Serif" font-size="10.00" fill="#000000">src/secp256k1/src/tests</text>
<text text-anchor="middle" x="924.4702" y="-6.5" font-family="Helvetica,sans-Serif" font-size="10.00" fill="#000000">_exhaustive.c</text>
</a>
</g>
</g>
<!-- Node7&#45;&gt;Node12 -->
<g id="edge43" class="edge">
<title>Node7&#45;&gt;Node12</title>
<path fill="none" stroke="#191970" d="M669.5532,-331.6046C773.3447,-326.7753 951.8948,-314.922 1011.4702,-289 1061.0229,-267.439 1103.4702,-263.5402 1103.4702,-209.5 1103.4702,-209.5 1103.4702,-209.5 1103.4702,-144.5 1103.4702,-81.704 1030.4558,-46.0929 977.6915,-28.5568"/>
<polygon fill="#191970" stroke="#191970" points="669.2713,-328.1137 659.4404,-332.064 669.5889,-335.1065 669.2713,-328.1137"/>
</g>
<!-- Node14 -->
<g id="node8" class="node">
<title>Node14</title>
<g id="a_node8"><a xlink:href="scalar__impl_8h.html" target="_top" xlink:title="src/secp256k1/src/scalar\l_impl.h">
<polygon fill="#ffffff" stroke="#000000" points="180.4507,-130.5 180.4507,-158.5 306.4897,-158.5 306.4897,-130.5 180.4507,-130.5"/>
<text text-anchor="start" x="188.4507" y="-146.5" font-family="Helvetica,sans-Serif" font-size="10.00" fill="#000000">src/secp256k1/src/scalar</text>
<text text-anchor="middle" x="243.4702" y="-136.5" font-family="Helvetica,sans-Serif" font-size="10.00" fill="#000000">_impl.h</text>
</a>
</g>
</g>
<!-- Node7&#45;&gt;Node14 -->
<g id="edge8" class="edge">
<title>Node7&#45;&gt;Node14</title>
<path fill="none" stroke="#191970" d="M515.3824,-331.7282C399.1898,-326.7471 190.2499,-314.3486 167.4702,-289 130.7147,-248.0994 193.312,-186.2053 225.7885,-158.6244"/>
<polygon fill="#191970" stroke="#191970" points="515.5036,-335.2363 525.6417,-332.1591 515.7974,-328.2425 515.5036,-335.2363"/>
</g>
<!-- Node15 -->
<g id="node9" class="node">
<title>Node15</title>
<g id="a_node9"><a xlink:href="ecmult__const__impl_8h.html" target="_top" xlink:title="src/secp256k1/src/ecmult\l_const_impl.h">
<polygon fill="#ffffff" stroke="#000000" points="324.0615,-130.5 324.0615,-158.5 452.8789,-158.5 452.8789,-130.5 324.0615,-130.5"/>
<text text-anchor="start" x="332.0615" y="-146.5" font-family="Helvetica,sans-Serif" font-size="10.00" fill="#000000">src/secp256k1/src/ecmult</text>
<text text-anchor="middle" x="388.4702" y="-136.5" font-family="Helvetica,sans-Serif" font-size="10.00" fill="#000000">_const_impl.h</text>
</a>
</g>
</g>
<!-- Node7&#45;&gt;Node15 -->
<g id="edge12" class="edge">
<title>Node7&#45;&gt;Node15</title>
<path fill="none" stroke="#191970" d="M542.2451,-323.0963C465.6553,-304.5587 325.5646,-265.7375 297.4702,-224 279.0201,-196.5901 317.717,-172.8154 350.2269,-158.578"/>
<polygon fill="#191970" stroke="#191970" points="541.6215,-326.5458 552.1614,-325.469 543.2504,-319.738 541.6215,-326.5458"/>
</g>
<!-- Node17 -->
<g id="node11" class="node">
<title>Node17</title>
<g id="a_node11"><a xlink:href="ecmult__const_8h.html" target="_top" xlink:title="src/secp256k1/src/ecmult\l_const.h">
<polygon fill="#ffffff" stroke="#000000" points="176.0615,-260.5 176.0615,-288.5 304.8789,-288.5 304.8789,-260.5 176.0615,-260.5"/>
<text text-anchor="start" x="184.0615" y="-276.5" font-family="Helvetica,sans-Serif" font-size="10.00" fill="#000000">src/secp256k1/src/ecmult</text>
<text text-anchor="middle" x="240.4702" y="-266.5" font-family="Helvetica,sans-Serif" font-size="10.00" fill="#000000">_const.h</text>
</a>
</g>
</g>
<!-- Node7&#45;&gt;Node17 -->
<g id="edge16" class="edge">
<title>Node7&#45;&gt;Node17</title>
<path fill="none" stroke="#191970" d="M526.2063,-323.8626C470.6752,-314.8604 389.3333,-301.4691 318.4702,-289 314.1293,-288.2362 309.6549,-287.4367 305.1482,-286.6225"/>
<polygon fill="#191970" stroke="#191970" points="525.8356,-327.3481 536.2665,-325.4913 526.9543,-320.4381 525.8356,-327.3481"/>
</g>
<!-- Node18 -->
<g id="node12" class="node">
<title>Node18</title>
<g id="a_node12"><a xlink:href="ecmult__impl_8h.html" target="_top" xlink:title="src/secp256k1/src/ecmult\l_impl.h">
<polygon fill="#ffffff" stroke="#000000" points="453.0615,-195.5 453.0615,-223.5 581.8789,-223.5 581.8789,-195.5 453.0615,-195.5"/>
<text text-anchor="start" x="461.0615" y="-211.5" font-family="Helvetica,sans-Serif" font-size="10.00" fill="#000000">src/secp256k1/src/ecmult</text>
<text text-anchor="middle" x="517.4702" y="-201.5" font-family="Helvetica,sans-Serif" font-size="10.00" fill="#000000">_impl.h</text>
</a>
</g>
</g>
<!-- Node7&#45;&gt;Node18 -->
<g id="edge18" class="edge">
<title>Node7&#45;&gt;Node18</title>
<path fill="none" stroke="#191970" d="M581.525,-316.258C566.5005,-291.2171 539.7952,-246.7083 526.0977,-223.8791"/>
<polygon fill="#191970" stroke="#191970" points="578.6868,-318.3305 586.833,-325.1047 584.6893,-314.729 578.6868,-318.3305"/>
</g>
<!-- Node19 -->
<g id="node13" class="node">
<title>Node19</title>
<g id="a_node13"><a xlink:href="ecmult_8h.html" target="_top" xlink:title="src/secp256k1/src/ecmult.h">
<polygon fill="#ffffff" stroke="#000000" points="804.8916,-265.5 804.8916,-283.5 942.0488,-283.5 942.0488,-265.5 804.8916,-265.5"/>
<text text-anchor="middle" x="873.4702" y="-271.5" font-family="Helvetica,sans-Serif" font-size="10.00" fill="#000000">src/secp256k1/src/ecmult.h</text>
</a>
</g>
</g>
<!-- Node7&#45;&gt;Node19 -->
<g id="edge22" class="edge">
<title>Node7&#45;&gt;Node19</title>
<path fill="none" stroke="#191970" d="M644.8722,-323.311C698.6929,-311.819 781.4268,-294.1534 831.2128,-283.5229"/>
<polygon fill="#191970" stroke="#191970" points="643.8917,-319.9413 634.843,-325.4524 645.3534,-326.787 643.8917,-319.9413"/>
</g>
<!-- Node20 -->
<g id="node14" class="node">
<title>Node20</title>
<g id="a_node14"><a xlink:href="ecdsa__impl_8h.html" target="_top" xlink:title="src/secp256k1/src/ecdsa\l_impl.h">
<polygon fill="#ffffff" stroke="#000000" points="812.4458,-130.5 812.4458,-158.5 938.4946,-158.5 938.4946,-130.5 812.4458,-130.5"/>
<text text-anchor="start" x="820.4458" y="-146.5" font-family="Helvetica,sans-Serif" font-size="10.00" fill="#000000">src/secp256k1/src/ecdsa</text>
<text text-anchor="middle" x="875.4702" y="-136.5" font-family="Helvetica,sans-Serif" font-size="10.00" fill="#000000">_impl.h</text>
</a>
</g>
</g>
<!-- Node7&#45;&gt;Node20 -->
<g id="edge39" class="edge">
<title>Node7&#45;&gt;Node20</title>
<path fill="none" stroke="#191970" d="M669.3706,-330.7567C764.6313,-325.185 920.7997,-312.7221 973.4702,-289 1013.0802,-271.1602 1028.6908,-263.6371 1046.4702,-224 1067.9087,-176.2055 995.7522,-157.0994 938.62,-149.491"/>
<polygon fill="#191970" stroke="#191970" points="668.9916,-327.2726 659.2081,-331.3385 669.3918,-334.2612 668.9916,-327.2726"/>
</g>
<!-- Node21 -->
<g id="node15" class="node">
<title>Node21</title>
<g id="a_node15"><a xlink:href="ecdsa_8h.html" target="_top" xlink:title="src/secp256k1/src/ecdsa.h">
<polygon fill="#ffffff" stroke="#000000" points="903.2759,-200.5 903.2759,-218.5 1037.6646,-218.5 1037.6646,-200.5 903.2759,-200.5"/>
<text text-anchor="middle" x="970.4702" y="-206.5" font-family="Helvetica,sans-Serif" font-size="10.00" fill="#000000">src/secp256k1/src/ecdsa.h</text>
</a>
</g>
</g>
<!-- Node7&#45;&gt;Node21 -->
<g id="edge40" class="edge">
<title>Node7&#45;&gt;Node21</title>
<path fill="none" stroke="#191970" d="M669.3698,-329.3793C768.5595,-322.0748 930.8691,-307.4785 951.4702,-289 971.7528,-270.8072 972.299,-235.1849 971.3045,-218.5107"/>
<polygon fill="#191970" stroke="#191970" points="669.1016,-325.8895 659.3819,-330.1059 669.6096,-332.871 669.1016,-325.8895"/>
</g>
<!-- Node22 -->
<g id="node16" class="node">
<title>Node22</title>
<g id="a_node16"><a xlink:href="eckey_8h.html" target="_top" xlink:title="src/secp256k1/src/eckey.h">
<polygon fill="#ffffff" stroke="#000000" points="713.9253,-200.5 713.9253,-218.5 847.0151,-218.5 847.0151,-200.5 713.9253,-200.5"/>
<text text-anchor="middle" x="780.4702" y="-206.5" font-family="Helvetica,sans-Serif" font-size="10.00" fill="#000000">src/secp256k1/src/eckey.h</text>
</a>
</g>
</g>
<!-- Node7&#45;&gt;Node22 -->
<g id="edge41" class="edge">
<title>Node7&#45;&gt;Node22</title>
<path fill="none" stroke="#191970" d="M656.5814,-323.4804C696.508,-315.3907 742.9492,-303.3399 757.4702,-289 776.9968,-269.717 780.1891,-234.9537 780.5514,-218.5436"/>
<polygon fill="#191970" stroke="#191970" points="655.7277,-320.0813 646.5943,-325.4508 657.0827,-326.9489 655.7277,-320.0813"/>
</g>
<!-- Node23 -->
<g id="node17" class="node">
<title>Node23</title>
<g id="a_node17"><a xlink:href="eckey__impl_8h.html" target="_top" xlink:title="src/secp256k1/src/eckey\l_impl.h">
<polygon fill="#ffffff" stroke="#000000" points="584.7266,-130.5 584.7266,-158.5 710.2139,-158.5 710.2139,-130.5 584.7266,-130.5"/>
<text text-anchor="start" x="592.7266" y="-146.5" font-family="Helvetica,sans-Serif" font-size="10.00" fill="#000000">src/secp256k1/src/eckey</text>
<text text-anchor="middle" x="647.4702" y="-136.5" font-family="Helvetica,sans-Serif" font-size="10.00" fill="#000000">_impl.h</text>
</a>
</g>
</g>
<!-- Node7&#45;&gt;Node23 -->
<g id="edge42" class="edge">
<title>Node7&#45;&gt;Node23</title>
<path fill="none" stroke="#191970" d="M597.1124,-315.1403C600.7997,-300.0592 606.1961,-278.6265 611.4702,-260 621.8846,-223.2196 635.6866,-180.3589 642.7957,-158.6533"/>
<polygon fill="#191970" stroke="#191970" points="593.6081,-314.7402 594.6561,-325.2831 600.4115,-316.3879 593.6081,-314.7402"/>
</g>
<!-- Node24 -->
<g id="node18" class="node">
<title>Node24</title>
<g id="a_node18"><a xlink:href="ecmult__gen__impl_8h.html" target="_top" xlink:title="src/secp256k1/src/ecmult\l_gen_impl.h">
<polygon fill="#ffffff" stroke="#000000" points="306.0615,-195.5 306.0615,-223.5 434.8789,-223.5 434.8789,-195.5 306.0615,-195.5"/>
<text text-anchor="start" x="314.0615" y="-211.5" font-family="Helvetica,sans-Serif" font-size="10.00" fill="#000000">src/secp256k1/src/ecmult</text>
<text text-anchor="middle" x="370.4702" y="-201.5" font-family="Helvetica,sans-Serif" font-size="10.00" fill="#000000">_gen_impl.h</text>
</a>
</g>
</g>
<!-- Node7&#45;&gt;Node24 -->
<g id="edge31" class="edge">
<title>Node7&#45;&gt;Node24</title>
<path fill="none" stroke="#191970" d="M567.2125,-320.2783C524.3796,-296.1607 438.0054,-247.5266 395.3975,-223.5356"/>
<polygon fill="#191970" stroke="#191970" points="565.7151,-323.4518 576.146,-325.3085 569.1496,-317.3523 565.7151,-323.4518"/>
</g>
<!-- Node25 -->
<g id="node19" class="node">
<title>Node25</title>
<g id="a_node19"><a xlink:href="ecmult__gen_8h.html" target="_top" xlink:title="src/secp256k1/src/ecmult\l_gen.h">
<polygon fill="#ffffff" stroke="#000000" points="620.0615,-260.5 620.0615,-288.5 748.8789,-288.5 748.8789,-260.5 620.0615,-260.5"/>
<text text-anchor="start" x="628.0615" y="-276.5" font-family="Helvetica,sans-Serif" font-size="10.00" fill="#000000">src/secp256k1/src/ecmult</text>
<text text-anchor="middle" x="684.4702" y="-266.5" font-family="Helvetica,sans-Serif" font-size="10.00" fill="#000000">_gen.h</text>
</a>
</g>
</g>
<!-- Node7&#45;&gt;Node25 -->
<g id="edge34" class="edge">
<title>Node7&#45;&gt;Node25</title>
<path fill="none" stroke="#191970" d="M614.8851,-319.8816C629.4705,-310.3694 648.3924,-298.029 662.8222,-288.6183"/>
<polygon fill="#191970" stroke="#191970" points="612.9072,-316.9929 606.443,-325.3873 616.7311,-322.8562 612.9072,-316.9929"/>
</g>
<!-- Node9 -->
<g id="node3" class="node">
<title>Node9</title>
<g id="a_node3"><a xlink:href="bench__internal_8c.html" target="_top" xlink:title="src/secp256k1/src/bench\l_internal.c">
<polygon fill="#ffffff" stroke="#000000" points="385.165,-.5 385.165,-28.5 511.7754,-28.5 511.7754,-.5 385.165,-.5"/>
<text text-anchor="start" x="393.165" y="-16.5" font-family="Helvetica,sans-Serif" font-size="10.00" fill="#000000">src/secp256k1/src/bench</text>
<text text-anchor="middle" x="448.4702" y="-6.5" font-family="Helvetica,sans-Serif" font-size="10.00" fill="#000000">_internal.c</text>
</a>
</g>
</g>
<!-- Node8&#45;&gt;Node9 -->
<g id="edge2" class="edge">
<title>Node8&#45;&gt;Node9</title>
<path fill="none" stroke="#191970" d="M62.8177,-120.2303C64.4506,-102.258 69.7457,-78.6172 85.4702,-65 107.6859,-45.7614 286.8946,-27.9895 384.9286,-19.5872"/>
<polygon fill="#191970" stroke="#191970" points="59.3191,-120.1031 62.2208,-130.2928 66.3069,-120.5176 59.3191,-120.1031"/>
</g>
<!-- Node10 -->
<g id="node4" class="node">
<title>Node10</title>
<g id="a_node4"><a xlink:href="secp256k1_8c.html" target="_top" xlink:title="src/secp256k1/src/secp256k1.c">
<polygon fill="#ffffff" stroke="#000000" points="525.7144,-70.5 525.7144,-88.5 681.2261,-88.5 681.2261,-70.5 525.7144,-70.5"/>
<text text-anchor="middle" x="603.4702" y="-76.5" font-family="Helvetica,sans-Serif" font-size="10.00" fill="#000000">src/secp256k1/src/secp256k1.c</text>
</a>
</g>
</g>
<!-- Node8&#45;&gt;Node10 -->
<g id="edge3" class="edge">
<title>Node8&#45;&gt;Node10</title>
<path fill="none" stroke="#191970" d="M135.0886,-134.6763C147.2324,-133.0804 159.7048,-131.4701 171.4702,-130 295.1014,-114.5517 438.826,-98.0385 525.3833,-88.2506"/>
<polygon fill="#191970" stroke="#191970" points="134.4435,-131.231 124.9877,-136.0101 135.3599,-138.1708 134.4435,-131.231"/>
</g>
<!-- Node13 -->
<g id="node7" class="node">
<title>Node13</title>
<g id="a_node7"><a xlink:href="gen__context_8c.html" target="_top" xlink:title="src/secp256k1/src/gen\l_context.c">
<polygon fill="#ffffff" stroke="#000000" points="94.4458,-65.5 94.4458,-93.5 210.4946,-93.5 210.4946,-65.5 94.4458,-65.5"/>
<text text-anchor="start" x="102.4458" y="-81.5" font-family="Helvetica,sans-Serif" font-size="10.00" fill="#000000">src/secp256k1/src/gen</text>
<text text-anchor="middle" x="152.4702" y="-71.5" font-family="Helvetica,sans-Serif" font-size="10.00" fill="#000000">_context.c</text>
</a>
</g>
</g>
<!-- Node8&#45;&gt;Node13 -->
<g id="edge7" class="edge">
<title>Node8&#45;&gt;Node13</title>
<path fill="none" stroke="#191970" d="M90.2302,-124.4511C104.0756,-114.4517 120.4862,-102.5995 132.9797,-93.5765"/>
<polygon fill="#191970" stroke="#191970" points="88.0565,-121.7036 81.9989,-130.396 92.1549,-127.3784 88.0565,-121.7036"/>
</g>
<!-- Node10&#45;&gt;Node9 -->
<g id="edge4" class="edge">
<title>Node10&#45;&gt;Node9</title>
<path fill="none" stroke="#191970" d="M572.4861,-66.5067C546.3237,-55.5353 508.9357,-39.8565 482.0611,-28.5865"/>
<polygon fill="#191970" stroke="#191970" points="571.3426,-69.8224 581.9181,-70.462 574.0497,-63.367 571.3426,-69.8224"/>
</g>
<!-- Node11 -->
<g id="node5" class="node">
<title>Node11</title>
<g id="a_node5"><a xlink:href="tests_8c.html" target="_top" xlink:title="src/secp256k1/src/tests.c">
<polygon fill="#ffffff" stroke="#000000" points="539.3398,-5.5 539.3398,-23.5 667.6006,-23.5 667.6006,-5.5 539.3398,-5.5"/>
<text text-anchor="middle" x="603.4702" y="-11.5" font-family="Helvetica,sans-Serif" font-size="10.00" fill="#000000">src/secp256k1/src/tests.c</text>
</a>
</g>
</g>
<!-- Node10&#45;&gt;Node11 -->
<g id="edge5" class="edge">
<title>Node10&#45;&gt;Node11</title>
<path fill="none" stroke="#191970" d="M603.4702,-60.1265C603.4702,-48.1522 603.4702,-33.3205 603.4702,-23.8821"/>
<polygon fill="#191970" stroke="#191970" points="599.9703,-60.462 603.4702,-70.462 606.9703,-60.4621 599.9703,-60.462"/>
</g>
<!-- Node10&#45;&gt;Node12 -->
<g id="edge6" class="edge">
<title>Node10&#45;&gt;Node12</title>
<path fill="none" stroke="#191970" d="M658.039,-68.4503C715.2171,-56.8721 804.8048,-38.7313 864.0749,-26.7296"/>
<polygon fill="#191970" stroke="#191970" points="657.2103,-65.0469 648.1039,-70.462 658.5996,-71.9077 657.2103,-65.0469"/>
</g>
<!-- Node14&#45;&gt;Node9 -->
<g id="edge9" class="edge">
<title>Node14&#45;&gt;Node9</title>
<path fill="none" stroke="#191970" d="M246.7649,-120.1675C250.3973,-102.5244 257.9408,-79.3357 273.4702,-65 289.9671,-49.7712 342.0064,-35.8991 385.0826,-26.5642"/>
<polygon fill="#191970" stroke="#191970" points="243.2667,-119.8508 244.9723,-130.3074 250.1598,-121.0694 243.2667,-119.8508"/>
</g>
<!-- Node14&#45;&gt;Node10 -->
<g id="edge10" class="edge">
<title>Node14&#45;&gt;Node10</title>
<path fill="none" stroke="#191970" d="M316.7313,-129.7878C403.8859,-113.4604 493.7476,-97.986 549.5209,-88.5433"/>
<polygon fill="#191970" stroke="#191970" points="315.8502,-126.392 306.6688,-131.679 317.1432,-133.2716 315.8502,-126.392"/>
</g>
<!-- Node14&#45;&gt;Node13 -->
<g id="edge11" class="edge">
<title>Node14&#45;&gt;Node13</title>
<path fill="none" stroke="#191970" d="M215.4018,-124.4511C201.4026,-114.4517 184.8096,-102.5995 172.1773,-93.5765"/>
<polygon fill="#191970" stroke="#191970" points="213.5529,-127.4316 223.7246,-130.396 217.6216,-121.7355 213.5529,-127.4316"/>
</g>
<!-- Node15&#45;&gt;Node9 -->
<g id="edge13" class="edge">
<title>Node15&#45;&gt;Node9</title>
<path fill="none" stroke="#191970" d="M409.6945,-122.765C416.8973,-114.3559 424.3969,-104.2845 429.4702,-94 440.0172,-72.6194 444.9039,-45.063 447.0172,-28.6445"/>
<polygon fill="#191970" stroke="#191970" points="407.0356,-120.4876 402.9686,-130.2707 412.2488,-125.1591 407.0356,-120.4876"/>
</g>
<!-- Node15&#45;&gt;Node10 -->
<g id="edge14" class="edge">
<title>Node15&#45;&gt;Node10</title>
<path fill="none" stroke="#191970" d="M444.5216,-127.5542C485.8425,-115.0619 540.4347,-98.5573 573.6958,-88.5016"/>
<polygon fill="#191970" stroke="#191970" points="443.4165,-124.2318 434.8573,-130.476 445.4423,-130.9323 443.4165,-124.2318"/>
</g>
<!-- Node16 -->
<g id="node10" class="node">
<title>Node16</title>
<g id="a_node10"><a xlink:href="ecdh_2main__impl_8h.html" target="_top" xlink:title="src/secp256k1/src/modules\l/ecdh/main_impl.h">
<polygon fill="#ffffff" stroke="#000000" points="282.8892,-65.5 282.8892,-93.5 420.0513,-93.5 420.0513,-65.5 282.8892,-65.5"/>
<text text-anchor="start" x="290.8892" y="-81.5" font-family="Helvetica,sans-Serif" font-size="10.00" fill="#000000">src/secp256k1/src/modules</text>
<text text-anchor="middle" x="351.4702" y="-71.5" font-family="Helvetica,sans-Serif" font-size="10.00" fill="#000000">/ecdh/main_impl.h</text>
</a>
</g>
</g>
<!-- Node15&#45;&gt;Node16 -->
<g id="edge15" class="edge">
<title>Node15&#45;&gt;Node16</title>
<path fill="none" stroke="#191970" d="M375.4209,-121.5756C370.1072,-112.2406 364.1346,-101.7483 359.483,-93.5765"/>
<polygon fill="#191970" stroke="#191970" points="372.453,-123.4368 380.4418,-130.396 378.5365,-119.9738 372.453,-123.4368"/>
</g>
<!-- Node17&#45;&gt;Node15 -->
<g id="edge17" class="edge">
<title>Node17&#45;&gt;Node15</title>
<path fill="none" stroke="#191970" d="M242.2864,-250.4107C244.7739,-233.0828 250.6443,-210.1841 264.4702,-195 280.2765,-177.6411 302.9119,-166.1188 324.5274,-158.5298"/>
<polygon fill="#191970" stroke="#191970" points="238.8077,-250.0248 241.1338,-260.3611 245.7613,-250.8303 238.8077,-250.0248"/>
</g>
<!-- Node18&#45;&gt;Node9 -->
<g id="edge20" class="edge">
<title>Node18&#45;&gt;Node9</title>
<path fill="none" stroke="#191970" d="M509.169,-186.0399C494.6887,-145.1176 465.2363,-61.8823 453.4803,-28.6589"/>
<polygon fill="#191970" stroke="#191970" points="505.8725,-187.2164 512.5079,-195.4761 512.4716,-184.8813 505.8725,-187.2164"/>
</g>
<!-- Node18&#45;&gt;Node10 -->
<g id="edge21" class="edge">
<title>Node18&#45;&gt;Node10</title>
<path fill="none" stroke="#191970" d="M532.5827,-186.6555C551.821,-157.5743 584.1564,-108.6954 597.4677,-88.5736"/>
<polygon fill="#191970" stroke="#191970" points="529.4358,-185.069 526.8374,-195.3402 535.2739,-188.9311 529.4358,-185.069"/>
</g>
<!-- Node18&#45;&gt;Node15 -->
<g id="edge19" class="edge">
<title>Node18&#45;&gt;Node15</title>
<path fill="none" stroke="#191970" d="M480.4637,-190.8533C460.0674,-180.5761 435.1586,-168.0252 416.4067,-158.5765"/>
<polygon fill="#191970" stroke="#191970" points="478.9738,-194.0217 489.4791,-195.396 482.1237,-187.7705 478.9738,-194.0217"/>
</g>
<!-- Node19&#45;&gt;Node18 -->
<g id="edge23" class="edge">
<title>Node19&#45;&gt;Node18</title>
<path fill="none" stroke="#191970" d="M814.0044,-263.6425C749.825,-251.9243 647.9566,-233.3248 581.9069,-221.2651"/>
<polygon fill="#191970" stroke="#191970" points="813.5039,-267.1089 823.9699,-265.462 814.7612,-260.2227 813.5039,-267.1089"/>
</g>
<!-- Node19&#45;&gt;Node20 -->
<g id="edge24" class="edge">
<title>Node19&#45;&gt;Node20</title>
<path fill="none" stroke="#191970" d="M873.7722,-254.8703C874.1787,-228.446 874.8923,-182.064 875.2511,-158.7413"/>
<polygon fill="#191970" stroke="#191970" points="870.2684,-255.098 873.614,-265.1507 877.2676,-255.2058 870.2684,-255.098"/>
</g>
<!-- Node19&#45;&gt;Node21 -->
<g id="edge26" class="edge">
<title>Node19&#45;&gt;Node21</title>
<path fill="none" stroke="#191970" d="M895.5086,-259.732C914.3463,-247.1088 940.8597,-229.3421 956.7846,-218.6708"/>
<polygon fill="#191970" stroke="#191970" points="893.3166,-256.9877 886.9576,-265.462 897.2133,-262.8028 893.3166,-256.9877"/>
</g>
<!-- Node19&#45;&gt;Node22 -->
<g id="edge28" class="edge">
<title>Node19&#45;&gt;Node22</title>
<path fill="none" stroke="#191970" d="M852.3406,-259.732C834.2798,-247.1088 808.8597,-229.3421 793.5914,-218.6708"/>
<polygon fill="#191970" stroke="#191970" points="850.3374,-262.602 860.539,-265.462 854.3476,-256.8645 850.3374,-262.602"/>
</g>
<!-- Node20&#45;&gt;Node10 -->
<g id="edge25" class="edge">
<title>Node20&#45;&gt;Node10</title>
<path fill="none" stroke="#191970" d="M806.8636,-128.105C754.3287,-115.5507 683.8389,-98.7058 641.1383,-88.5016"/>
<polygon fill="#191970" stroke="#191970" points="806.2455,-131.5558 816.7851,-130.476 807.8725,-124.7475 806.2455,-131.5558"/>
</g>
<!-- Node21&#45;&gt;Node20 -->
<g id="edge27" class="edge">
<title>Node21&#45;&gt;Node20</title>
<path fill="none" stroke="#191970" d="M948.6898,-194.5976C932.9291,-183.814 911.7597,-169.3296 896.2376,-158.7093"/>
<polygon fill="#191970" stroke="#191970" points="947.0314,-197.7037 957.2609,-200.462 950.9842,-191.9266 947.0314,-197.7037"/>
</g>
<!-- Node22&#45;&gt;Node23 -->
<g id="edge29" class="edge">
<title>Node22&#45;&gt;Node23</title>
<path fill="none" stroke="#191970" d="M752.9888,-196.0692C730.5884,-185.1217 699.0488,-169.7076 676.2934,-158.5865"/>
<polygon fill="#191970" stroke="#191970" points="751.4559,-199.2156 761.9771,-200.462 754.5295,-192.9265 751.4559,-199.2156"/>
</g>
<!-- Node23&#45;&gt;Node10 -->
<g id="edge30" class="edge">
<title>Node23&#45;&gt;Node10</title>
<path fill="none" stroke="#191970" d="M632.2922,-122.0779C624.5103,-110.582 615.4646,-97.219 609.6128,-88.5743"/>
<polygon fill="#191970" stroke="#191970" points="629.4188,-124.0769 637.9229,-130.396 635.2156,-120.1529 629.4188,-124.0769"/>
</g>
<!-- Node24&#45;&gt;Node10 -->
<g id="edge32" class="edge">
<title>Node24&#45;&gt;Node10</title>
<path fill="none" stroke="#191970" d="M405.0026,-190.3763C422.0141,-180.9452 442.8276,-169.3914 461.4702,-159 507.1256,-133.5517 560.9517,-103.3667 587.2965,-88.5809"/>
<polygon fill="#191970" stroke="#191970" points="403.0305,-187.4676 395.9807,-195.3765 406.4239,-193.5901 403.0305,-187.4676"/>
</g>
<!-- Node24&#45;&gt;Node13 -->
<g id="edge33" class="edge">
<title>Node24&#45;&gt;Node13</title>
<path fill="none" stroke="#191970" d="M296.0602,-198.7937C247.1373,-190.2666 189.0312,-176.8073 171.4702,-159 154.232,-141.52 151.6154,-111.3592 151.7307,-93.6393"/>
<polygon fill="#191970" stroke="#191970" points="295.5798,-202.2622 306.0246,-200.4857 296.7517,-195.361 295.5798,-202.2622"/>
</g>
<!-- Node25&#45;&gt;Node20 -->
<g id="edge36" class="edge">
<title>Node25&#45;&gt;Node20</title>
<path fill="none" stroke="#191970" d="M684.4743,-250.3841C685.7693,-232.8524 690.3488,-209.7081 704.4702,-195 719.5844,-179.2578 769.9239,-165.5369 812.1008,-156.3863"/>
<polygon fill="#191970" stroke="#191970" points="680.9745,-250.3066 684.0366,-260.4492 687.9679,-250.6108 680.9745,-250.3066"/>
</g>
<!-- Node25&#45;&gt;Node22 -->
<g id="edge37" class="edge">
<title>Node25&#45;&gt;Node22</title>
<path fill="none" stroke="#191970" d="M713.6465,-254.7452C731.4258,-242.7072 753.2993,-227.897 767.0682,-218.5743"/>
<polygon fill="#191970" stroke="#191970" points="711.619,-251.8912 705.3008,-260.396 715.5436,-257.6875 711.619,-251.8912"/>
</g>
<!-- Node25&#45;&gt;Node23 -->
<g id="edge38" class="edge">
<title>Node25&#45;&gt;Node23</title>
<path fill="none" stroke="#191970" d="M677.6495,-250.5352C669.9787,-223.5838 657.7754,-180.7075 651.4953,-158.6423"/>
<polygon fill="#191970" stroke="#191970" points="674.3363,-251.6803 680.4401,-260.3402 681.0689,-249.7641 674.3363,-251.6803"/>
</g>
<!-- Node25&#45;&gt;Node24 -->
<g id="edge35" class="edge">
<title>Node25&#45;&gt;Node24</title>
<path fill="none" stroke="#191970" d="M609.7355,-259.0294C556.5502,-248.0197 485.8112,-233.3763 435.0666,-222.8719"/>
<polygon fill="#191970" stroke="#191970" points="609.288,-262.5109 619.7899,-261.1108 610.7071,-255.6563 609.288,-262.5109"/>
</g>
</g>
</svg>
