<?xml version="1.0" encoding="UTF-8" standalone="no"?>
<!DOCTYPE svg PUBLIC "-//W3C//DTD SVG 1.1//EN"
 "http://www.w3.org/Graphics/SVG/1.1/DTD/svg11.dtd">
<!-- Generated by graphviz version 2.40.1 (20161225.0304)
 -->
<!-- Title: CWallet::IsFromMe Pages: 1 -->
<svg width="363pt" height="27pt"
 viewBox="0.00 0.00 362.50 27.00" xmlns="http://www.w3.org/2000/svg" xmlns:xlink="http://www.w3.org/1999/xlink">
<g id="graph0" class="graph" transform="scale(1 1) rotate(0) translate(4 23)">
<title>CWallet::IsFromMe</title>
<polygon fill="#ffffff" stroke="transparent" points="-4,4 -4,-23 358.502,-23 358.502,4 -4,4"/>
<!-- Node1418 -->
<g id="node1" class="node">
<title>Node1418</title>
<polygon fill="#bfbfbf" stroke="#000000" points="0,-.5 0,-18.5 101.1953,-18.5 101.1953,-.5 0,-.5"/>
<text text-anchor="middle" x="50.5977" y="-6.5" font-family="Helvetica,sans-Serif" font-size="10.00" fill="#000000">CWallet::IsFromMe</text>
</g>
<!-- Node1419 -->
<g id="node2" class="node">
<title>Node1419</title>
<g id="a_node2"><a xlink:href="group__map_wallet.html#ga5ab4855aac6f4b335421944403e44d6d" target="_top" xlink:title="Returns amount of debit if the input matches the filter, otherwise returns 0. ">
<polygon fill="#ffffff" stroke="#000000" points="137.1953,-.5 137.1953,-18.5 232.8535,-18.5 232.8535,-.5 137.1953,-.5"/>
<text text-anchor="middle" x="185.0244" y="-6.5" font-family="Helvetica,sans-Serif" font-size="10.00" fill="#000000">CWallet::GetDebit</text>
</a>
</g>
</g>
<!-- Node1418&#45;&gt;Node1419 -->
<g id="edge1" class="edge">
<title>Node1418&#45;&gt;Node1419</title>
<path fill="none" stroke="#191970" d="M101.4186,-9.5C109.6646,-9.5 118.261,-9.5 126.6692,-9.5"/>
<polygon fill="#191970" stroke="#191970" points="126.7959,-13.0001 136.7959,-9.5 126.7958,-6.0001 126.7959,-13.0001"/>
</g>
<!-- Node1420 -->
<g id="node3" class="node">
<title>Node1420</title>
<g id="a_node3"><a xlink:href="group__map_wallet.html#ga4eada57edc1c443564b8cc9b853d955c" target="_top" xlink:title="CWallet::IsMine">
<polygon fill="#ffffff" stroke="#000000" points="268.8535,-.5 268.8535,-18.5 354.502,-18.5 354.502,-.5 268.8535,-.5"/>
<text text-anchor="middle" x="311.6777" y="-6.5" font-family="Helvetica,sans-Serif" font-size="10.00" fill="#000000">CWallet::IsMine</text>
</a>
</g>
</g>
<!-- Node1419&#45;&gt;Node1420 -->
<g id="edge2" class="edge">
<title>Node1419&#45;&gt;Node1420</title>
<path fill="none" stroke="#191970" d="M232.9066,-9.5C241.2733,-9.5 250.023,-9.5 258.5218,-9.5"/>
<polygon fill="#191970" stroke="#191970" points="258.7214,-13.0001 268.7214,-9.5 258.7214,-6.0001 258.7214,-13.0001"/>
</g>
</g>
</svg>
