<?xml version="1.0" encoding="UTF-8" standalone="no"?>
<!DOCTYPE svg PUBLIC "-//W3C//DTD SVG 1.1//EN"
 "http://www.w3.org/Graphics/SVG/1.1/DTD/svg11.dtd">
<!-- Generated by graphviz version 2.40.1 (20161225.0304)
 -->
<!-- Title: CWallet::AddToWallet Pages: 1 -->
<svg width="837pt" height="148pt"
 viewBox="0.00 0.00 836.71 148.00" xmlns="http://www.w3.org/2000/svg" xmlns:xlink="http://www.w3.org/1999/xlink">
<g id="graph0" class="graph" transform="scale(1 1) rotate(0) translate(4 144)">
<title>CWallet::AddToWallet</title>
<polygon fill="#ffffff" stroke="transparent" points="-4,4 -4,-144 832.707,-144 832.707,4 -4,4"/>
<!-- Node256 -->
<g id="node1" class="node">
<title>Node256</title>
<polygon fill="#bfbfbf" stroke="#000000" points="0,-36.5 0,-54.5 111.9668,-54.5 111.9668,-36.5 0,-36.5"/>
<text text-anchor="middle" x="55.9834" y="-42.5" font-family="Helvetica,sans-Serif" font-size="10.00" fill="#000000">CWallet::AddToWallet</text>
</g>
<!-- Node257 -->
<g id="node2" class="node">
<title>Node257</title>
<g id="a_node2"><a xlink:href="group__map_wallet.html#gaee8f634287d083737471595f658da519" target="_top" xlink:title="Add a transaction to the wallet, or update it. ">
<polygon fill="#ffffff" stroke="#000000" points="147.9668,-55.5 147.9668,-73.5 318.8496,-73.5 318.8496,-55.5 147.9668,-55.5"/>
<text text-anchor="middle" x="233.4082" y="-61.5" font-family="Helvetica,sans-Serif" font-size="10.00" fill="#000000">CWallet::AddToWalletIfInvolvingMe</text>
</a>
</g>
</g>
<!-- Node256&#45;&gt;Node257 -->
<g id="edge1" class="edge">
<title>Node256&#45;&gt;Node257</title>
<path fill="none" stroke="#191970" d="M122.2469,-52.596C131.0137,-53.5348 140.0936,-54.5072 149.1125,-55.473"/>
<polygon fill="#191970" stroke="#191970" points="122.4376,-49.0965 112.1217,-51.5117 121.6922,-56.0567 122.4376,-49.0965"/>
</g>
<!-- Node264 -->
<g id="node9" class="node">
<title>Node264</title>
<g id="a_node9"><a xlink:href="group___actions.html#ga2faeb244cf83bbae1304ae2f4acc7d93" target="_top" xlink:title="Call after CreateTransaction unless you want to abort. ">
<polygon fill="#ffffff" stroke="#000000" points="162.1489,-18.5 162.1489,-36.5 304.6675,-36.5 304.6675,-18.5 162.1489,-18.5"/>
<text text-anchor="middle" x="233.4082" y="-24.5" font-family="Helvetica,sans-Serif" font-size="10.00" fill="#000000">CWallet::CommitTransaction</text>
</a>
</g>
</g>
<!-- Node256&#45;&gt;Node264 -->
<g id="edge8" class="edge">
<title>Node256&#45;&gt;Node264</title>
<path fill="none" stroke="#191970" d="M122.3357,-38.7685C135.282,-37.455 148.9079,-36.0727 162.0097,-34.7435"/>
<polygon fill="#191970" stroke="#191970" points="121.7174,-35.3131 112.1217,-39.8047 122.4239,-42.2774 121.7174,-35.3131"/>
</g>
<!-- Node258 -->
<g id="node3" class="node">
<title>Node258</title>
<g id="a_node3"><a xlink:href="group__map_wallet.html#ga09e75fcbc98be305e68e99495570687c" target="_top" xlink:title="CWallet::SyncTransaction">
<polygon fill="#ffffff" stroke="#000000" points="354.8496,-55.5 354.8496,-73.5 485.1563,-73.5 485.1563,-55.5 354.8496,-55.5"/>
<text text-anchor="middle" x="420.0029" y="-61.5" font-family="Helvetica,sans-Serif" font-size="10.00" fill="#000000">CWallet::SyncTransaction</text>
</a>
</g>
</g>
<!-- Node257&#45;&gt;Node258 -->
<g id="edge2" class="edge">
<title>Node257&#45;&gt;Node258</title>
<path fill="none" stroke="#191970" d="M329.1868,-64.5C337.8175,-64.5 346.4199,-64.5 354.6982,-64.5"/>
<polygon fill="#191970" stroke="#191970" points="329.0599,-61.0001 319.0599,-64.5 329.0599,-68.0001 329.0599,-61.0001"/>
</g>
<!-- Node259 -->
<g id="node4" class="node">
<title>Node259</title>
<g id="a_node4"><a xlink:href="group__map_wallet.html#gae44ec090ec7c87725fb22d33887ad1a7" target="_top" xlink:title="Notifies listeners of a transaction having been added to mempool. ">
<polygon fill="#ffffff" stroke="#000000" points="541.8032,-111.5 541.8032,-139.5 678.7944,-139.5 678.7944,-111.5 541.8032,-111.5"/>
<text text-anchor="start" x="549.8032" y="-127.5" font-family="Helvetica,sans-Serif" font-size="10.00" fill="#000000">CWallet::TransactionAdded</text>
<text text-anchor="middle" x="610.2988" y="-117.5" font-family="Helvetica,sans-Serif" font-size="10.00" fill="#000000">ToMempool</text>
</a>
</g>
</g>
<!-- Node258&#45;&gt;Node259 -->
<g id="edge3" class="edge">
<title>Node258&#45;&gt;Node259</title>
<path fill="none" stroke="#191970" d="M451.7055,-77.406C471.4899,-85.2105 497.5895,-95.0565 521.1563,-102.5 531.0628,-105.629 541.6855,-108.6518 552.0222,-111.4206"/>
<polygon fill="#191970" stroke="#191970" points="452.8467,-74.0933 442.2613,-73.6466 450.2578,-80.5969 452.8467,-74.0933"/>
</g>
<!-- Node260 -->
<g id="node5" class="node">
<title>Node260</title>
<g id="a_node5"><a xlink:href="group__map_wallet.html#ga8871fb58a2872900558d69d71baddfca" target="_top" xlink:title="Notifies listeners of a block being connected. ">
<polygon fill="#ffffff" stroke="#000000" points="545.79,-74.5 545.79,-92.5 674.8076,-92.5 674.8076,-74.5 545.79,-74.5"/>
<text text-anchor="middle" x="610.2988" y="-80.5" font-family="Helvetica,sans-Serif" font-size="10.00" fill="#000000">CWallet::BlockConnected</text>
</a>
</g>
</g>
<!-- Node258&#45;&gt;Node260 -->
<g id="edge4" class="edge">
<title>Node258&#45;&gt;Node260</title>
<path fill="none" stroke="#191970" d="M495.413,-72.0293C511.9783,-73.6832 529.3785,-75.4205 545.4838,-77.0286"/>
<polygon fill="#191970" stroke="#191970" points="495.524,-68.523 485.2257,-71.0121 494.8285,-75.4884 495.524,-68.523"/>
</g>
<!-- Node261 -->
<g id="node6" class="node">
<title>Node261</title>
<g id="a_node6"><a xlink:href="group__map_wallet.html#ga3aa53a08f7071c42c0ef82ea468d19ae" target="_top" xlink:title="Notifies listeners of a block being disconnected. ">
<polygon fill="#ffffff" stroke="#000000" points="539.6792,-37.5 539.6792,-55.5 680.9185,-55.5 680.9185,-37.5 539.6792,-37.5"/>
<text text-anchor="middle" x="610.2988" y="-43.5" font-family="Helvetica,sans-Serif" font-size="10.00" fill="#000000">CWallet::BlockDisconnected</text>
</a>
</g>
</g>
<!-- Node258&#45;&gt;Node261 -->
<g id="edge5" class="edge">
<title>Node258&#45;&gt;Node261</title>
<path fill="none" stroke="#191970" d="M495.2318,-57.3841C509.8628,-56.0002 525.1517,-54.554 539.6293,-53.1846"/>
<polygon fill="#191970" stroke="#191970" points="494.8517,-53.9044 485.2257,-58.3306 495.5109,-60.8733 494.8517,-53.9044"/>
</g>
<!-- Node262 -->
<g id="node7" class="node">
<title>Node262</title>
<g id="a_node7"><a xlink:href="group__map_wallet.html#gaabb1db808d082d6df2b1e37cbf3f8f98" target="_top" xlink:title="Scan the block chain (starting in pindexStart) for transactions from or to us. ">
<polygon fill="#ffffff" stroke="#000000" points="521.1563,-.5 521.1563,-18.5 699.4414,-18.5 699.4414,-.5 521.1563,-.5"/>
<text text-anchor="middle" x="610.2988" y="-6.5" font-family="Helvetica,sans-Serif" font-size="10.00" fill="#000000">CWallet::ScanForWalletTransactions</text>
</a>
</g>
</g>
<!-- Node258&#45;&gt;Node262 -->
<g id="edge6" class="edge">
<title>Node258&#45;&gt;Node262</title>
<path fill="none" stroke="#191970" d="M452.0481,-51.8722C471.7692,-44.4082 497.6816,-35.1476 521.1563,-28.5 534.4021,-24.749 548.9403,-21.3531 562.3627,-18.5042"/>
<polygon fill="#191970" stroke="#191970" points="450.7118,-48.636 442.6243,-55.4802 453.2147,-55.1733 450.7118,-48.636"/>
</g>
<!-- Node263 -->
<g id="node8" class="node">
<title>Node263</title>
<g id="a_node8"><a xlink:href="rpcwallet_8cpp.html#a151535abf7394b299deb8d0a333de70b" target="_top" xlink:title="rescanblockchain">
<polygon fill="#ffffff" stroke="#000000" points="735.4414,-.5 735.4414,-18.5 828.707,-18.5 828.707,-.5 735.4414,-.5"/>
<text text-anchor="middle" x="782.0742" y="-6.5" font-family="Helvetica,sans-Serif" font-size="10.00" fill="#000000">rescanblockchain</text>
</a>
</g>
</g>
<!-- Node262&#45;&gt;Node263 -->
<g id="edge7" class="edge">
<title>Node262&#45;&gt;Node263</title>
<path fill="none" stroke="#191970" d="M709.6012,-9.5C718.5303,-9.5 727.2611,-9.5 735.3946,-9.5"/>
<polygon fill="#191970" stroke="#191970" points="709.457,-6.0001 699.4569,-9.5 709.4569,-13.0001 709.457,-6.0001"/>
</g>
</g>
</svg>
