<?xml version="1.0" encoding="UTF-8" standalone="no"?>
<!DOCTYPE svg PUBLIC "-//W3C//DTD SVG 1.1//EN"
 "http://www.w3.org/Graphics/SVG/1.1/DTD/svg11.dtd">
<!-- Generated by graphviz version 2.40.1 (20161225.0304)
 -->
<!-- Title: Interrupt Pages: 1 -->
<svg width="206pt" height="212pt"
 viewBox="0.00 0.00 206.04 212.00" xmlns="http://www.w3.org/2000/svg" xmlns:xlink="http://www.w3.org/1999/xlink">
<g id="graph0" class="graph" transform="scale(1 1) rotate(0) translate(4 208)">
<title>Interrupt</title>
<polygon fill="#ffffff" stroke="transparent" points="-4,4 -4,-208 202.0439,-208 202.0439,4 -4,4"/>
<!-- Node72 -->
<g id="node1" class="node">
<title>Node72</title>
<polygon fill="#bfbfbf" stroke="#000000" points="0,-92.5 0,-110.5 53.2412,-110.5 53.2412,-92.5 0,-92.5"/>
<text text-anchor="middle" x="26.6206" y="-98.5" font-family="Helvetica,sans-Serif" font-size="10.00" fill="#000000">Interrupt</text>
</g>
<!-- Node73 -->
<g id="node2" class="node">
<title>Node73</title>
<g id="a_node2"><a xlink:href="httpserver_8cpp.html#a0a02b6576090c9fde2eed21b9aa7dc0c" target="_top" xlink:title="Interrupt HTTP server threads. ">
<polygon fill="#ffffff" stroke="#000000" points="89.2412,-185.5 89.2412,-203.5 198.0439,-203.5 198.0439,-185.5 89.2412,-185.5"/>
<text text-anchor="middle" x="143.6426" y="-191.5" font-family="Helvetica,sans-Serif" font-size="10.00" fill="#000000">InterruptHTTPServer</text>
</a>
</g>
</g>
<!-- Node72&#45;&gt;Node73 -->
<g id="edge1" class="edge">
<title>Node72&#45;&gt;Node73</title>
<path fill="none" stroke="#191970" d="M31.947,-110.7675C41.4615,-126.5236 62.8732,-158.5641 89.2412,-176.5 91.831,-178.2616 94.6066,-179.8622 97.4832,-181.3147"/>
<polygon fill="#191970" stroke="#191970" points="96.3479,-184.639 106.9105,-185.4655 99.1688,-178.2325 96.3479,-184.639"/>
</g>
<!-- Node74 -->
<g id="node3" class="node">
<title>Node74</title>
<g id="a_node3"><a xlink:href="httprpc_8cpp.html#a44465681e657da4c937c546967f60a32" target="_top" xlink:title="Interrupt HTTP RPC subsystem. ">
<polygon fill="#ffffff" stroke="#000000" points="93.4111,-148.5 93.4111,-166.5 193.874,-166.5 193.874,-148.5 93.4111,-148.5"/>
<text text-anchor="middle" x="143.6426" y="-154.5" font-family="Helvetica,sans-Serif" font-size="10.00" fill="#000000">InterruptHTTPRPC</text>
</a>
</g>
</g>
<!-- Node72&#45;&gt;Node74 -->
<g id="edge2" class="edge">
<title>Node72&#45;&gt;Node74</title>
<path fill="none" stroke="#191970" d="M39.576,-110.5589C51.9162,-118.8933 71.2296,-131.1854 89.2412,-139.5 93.4187,-141.4284 97.8623,-143.2476 102.3396,-144.934"/>
<polygon fill="#191970" stroke="#191970" points="101.51,-148.3535 112.1047,-148.4046 103.8543,-141.7577 101.51,-148.3535"/>
</g>
<!-- Node75 -->
<g id="node4" class="node">
<title>Node75</title>
<g id="a_node4"><a xlink:href="server_8cpp.html#a9fb02940fce37b3228c69c74e706e3ae" target="_top" xlink:title="InterruptRPC">
<polygon fill="#ffffff" stroke="#000000" points="106.4653,-111.5 106.4653,-129.5 180.8198,-129.5 180.8198,-111.5 106.4653,-111.5"/>
<text text-anchor="middle" x="143.6426" y="-117.5" font-family="Helvetica,sans-Serif" font-size="10.00" fill="#000000">InterruptRPC</text>
</a>
</g>
</g>
<!-- Node72&#45;&gt;Node75 -->
<g id="edge3" class="edge">
<title>Node72&#45;&gt;Node75</title>
<path fill="none" stroke="#191970" d="M53.4678,-105.859C66.1875,-107.9242 81.764,-110.4532 96.3697,-112.8247"/>
<polygon fill="#191970" stroke="#191970" points="95.8476,-116.2856 106.2793,-114.4336 96.9695,-109.3761 95.8476,-116.2856"/>
</g>
<!-- Node76 -->
<g id="node5" class="node">
<title>Node76</title>
<g id="a_node5"><a xlink:href="httprpc_8h.html#aaf0700868c430b2f0fdd719977f4b115" target="_top" xlink:title="Interrupt RPC REST subsystem. ">
<polygon fill="#ffffff" stroke="#000000" points="103.687,-74.5 103.687,-92.5 183.5981,-92.5 183.5981,-74.5 103.687,-74.5"/>
<text text-anchor="middle" x="143.6426" y="-80.5" font-family="Helvetica,sans-Serif" font-size="10.00" fill="#000000">InterruptREST</text>
</a>
</g>
</g>
<!-- Node72&#45;&gt;Node76 -->
<g id="edge4" class="edge">
<title>Node72&#45;&gt;Node76</title>
<path fill="none" stroke="#191970" d="M53.4678,-97.3704C65.4136,-95.533 79.8792,-93.3079 93.6939,-91.183"/>
<polygon fill="#191970" stroke="#191970" points="94.2411,-94.64 103.5928,-89.6604 93.1769,-87.7214 94.2411,-94.64"/>
</g>
<!-- Node77 -->
<g id="node6" class="node">
<title>Node77</title>
<g id="a_node6"><a xlink:href="torcontrol_8cpp.html#aa3f2e0ce7300bbbedc6da69566e426e6" target="_top" xlink:title="InterruptTorControl">
<polygon fill="#ffffff" stroke="#000000" points="93.958,-37.5 93.958,-55.5 193.3271,-55.5 193.3271,-37.5 93.958,-37.5"/>
<text text-anchor="middle" x="143.6426" y="-43.5" font-family="Helvetica,sans-Serif" font-size="10.00" fill="#000000">InterruptTorControl</text>
</a>
</g>
</g>
<!-- Node72&#45;&gt;Node77 -->
<g id="edge5" class="edge">
<title>Node72&#45;&gt;Node77</title>
<path fill="none" stroke="#191970" d="M40.6454,-92.4278C53.0806,-84.6318 71.9065,-73.4266 89.2412,-65.5 94.2452,-63.2119 99.61,-61.0299 104.9497,-59.0141"/>
<polygon fill="#191970" stroke="#191970" points="106.2371,-62.2705 114.4507,-55.5781 103.8564,-55.6877 106.2371,-62.2705"/>
</g>
<!-- Node78 -->
<g id="node7" class="node">
<title>Node78</title>
<g id="a_node7"><a xlink:href="net_8cpp.html#acad6f7f5cf86480487dbf26f8dc701f4" target="_top" xlink:title="InterruptMapPort">
<polygon fill="#ffffff" stroke="#000000" points="98.1255,-.5 98.1255,-18.5 189.1597,-18.5 189.1597,-.5 98.1255,-.5"/>
<text text-anchor="middle" x="143.6426" y="-6.5" font-family="Helvetica,sans-Serif" font-size="10.00" fill="#000000">InterruptMapPort</text>
</a>
</g>
</g>
<!-- Node72&#45;&gt;Node78 -->
<g id="edge6" class="edge">
<title>Node72&#45;&gt;Node78</title>
<path fill="none" stroke="#191970" d="M32.3523,-92.0378C42.1556,-76.611 63.5889,-46.0082 89.2412,-28.5 92.4948,-26.2794 96.0345,-24.2924 99.6953,-22.5197"/>
<polygon fill="#191970" stroke="#191970" points="101.1442,-25.7066 108.9507,-18.5436 98.3811,-19.275 101.1442,-25.7066"/>
</g>
</g>
</svg>
