<?xml version="1.0" encoding="UTF-8" standalone="no"?>
<!DOCTYPE svg PUBLIC "-//W3C//DTD SVG 1.1//EN"
 "http://www.w3.org/Graphics/SVG/1.1/DTD/svg11.dtd">
<!-- Generated by graphviz version 2.40.1 (20161225.0304)
 -->
<!-- Title: EncodeExtKey Pages: 1 -->
<svg width="1183pt" height="251pt"
 viewBox="0.00 0.00 1183.16 251.00" xmlns="http://www.w3.org/2000/svg" xmlns:xlink="http://www.w3.org/1999/xlink">
<g id="graph0" class="graph" transform="scale(1 1) rotate(0) translate(4 247)">
<title>EncodeExtKey</title>
<polygon fill="#ffffff" stroke="transparent" points="-4,4 -4,-247 1179.1592,-247 1179.1592,4 -4,4"/>
<!-- Node180 -->
<g id="node1" class="node">
<title>Node180</title>
<polygon fill="#bfbfbf" stroke="#000000" points="0,-130.5 0,-148.5 81.5957,-148.5 81.5957,-130.5 0,-130.5"/>
<text text-anchor="middle" x="40.7979" y="-136.5" font-family="Helvetica,sans-Serif" font-size="10.00" fill="#000000">EncodeExtKey</text>
</g>
<!-- Node181 -->
<g id="node2" class="node">
<title>Node181</title>
<g id="a_node2"><a xlink:href="chainparams_8cpp.html#ace5c5b706d71a324a417dd2db394fd4a" target="_top" xlink:title="Return the currently selected parameters. ">
<polygon fill="#ffffff" stroke="#000000" points="166.7876,-204.5 166.7876,-222.5 217.2407,-222.5 217.2407,-204.5 166.7876,-204.5"/>
<text text-anchor="middle" x="192.0142" y="-210.5" font-family="Helvetica,sans-Serif" font-size="10.00" fill="#000000">Params</text>
</a>
</g>
</g>
<!-- Node180&#45;&gt;Node181 -->
<g id="edge1" class="edge">
<title>Node180&#45;&gt;Node181</title>
<path fill="none" stroke="#191970" d="M50.8891,-148.9129C64.8258,-161.4038 91.2422,-183.2961 117.5957,-195.5 129.8734,-201.1856 144.1528,-205.1956 156.9011,-207.9636"/>
<polygon fill="#191970" stroke="#191970" points="156.2375,-211.4001 166.7292,-209.9255 157.6079,-204.5356 156.2375,-211.4001"/>
</g>
<!-- Node182 -->
<g id="node3" class="node">
<title>Node182</title>
<g id="a_node3"><a xlink:href="class_c_chain_params.html#a103c58eca4a26a71201882b3ed6c4cb4" target="_top" xlink:title="CChainParams::Base58Prefix">
<polygon fill="#ffffff" stroke="#000000" points="117.5957,-167.5 117.5957,-185.5 266.4326,-185.5 266.4326,-167.5 117.5957,-167.5"/>
<text text-anchor="middle" x="192.0142" y="-173.5" font-family="Helvetica,sans-Serif" font-size="10.00" fill="#000000">CChainParams::Base58Prefix</text>
</a>
</g>
</g>
<!-- Node180&#45;&gt;Node182 -->
<g id="edge2" class="edge">
<title>Node180&#45;&gt;Node182</title>
<path fill="none" stroke="#191970" d="M77.1199,-148.5274C89.9099,-151.6953 104.3876,-155.2688 117.5957,-158.5 126.3202,-160.6343 135.6236,-162.896 144.5926,-165.069"/>
<polygon fill="#191970" stroke="#191970" points="143.9853,-168.5231 154.528,-167.4734 145.6318,-161.7194 143.9853,-168.5231"/>
</g>
<!-- Node183 -->
<g id="node4" class="node">
<title>Node183</title>
<g id="a_node4"><a xlink:href="struct_c_ext_key.html#aaeb1d3aa4f5e00b32fa0728e0f8af512" target="_top" xlink:title="CExtKey::Encode">
<polygon fill="#ffffff" stroke="#000000" points="144.8271,-130.5 144.8271,-148.5 239.2012,-148.5 239.2012,-130.5 144.8271,-130.5"/>
<text text-anchor="middle" x="192.0142" y="-136.5" font-family="Helvetica,sans-Serif" font-size="10.00" fill="#000000">CExtKey::Encode</text>
</a>
</g>
</g>
<!-- Node180&#45;&gt;Node183 -->
<g id="edge3" class="edge">
<title>Node180&#45;&gt;Node183</title>
<path fill="none" stroke="#191970" d="M81.7192,-139.5C97.9512,-139.5 116.9065,-139.5 134.4783,-139.5"/>
<polygon fill="#191970" stroke="#191970" points="134.6335,-143.0001 144.6334,-139.5 134.6334,-136.0001 134.6335,-143.0001"/>
</g>
<!-- Node189 -->
<g id="node10" class="node">
<title>Node189</title>
<g id="a_node10"><a xlink:href="base58_8cpp.html#ace9a5807ee51604f33044339f073ec76" target="_top" xlink:title="Encode a byte vector into a base58&#45;encoded string, including checksum. ">
<polygon fill="#ffffff" stroke="#000000" points="135.9258,-75.5 135.9258,-93.5 248.1025,-93.5 248.1025,-75.5 135.9258,-75.5"/>
<text text-anchor="middle" x="192.0142" y="-81.5" font-family="Helvetica,sans-Serif" font-size="10.00" fill="#000000">EncodeBase58Check</text>
</a>
</g>
</g>
<!-- Node180&#45;&gt;Node189 -->
<g id="edge9" class="edge">
<title>Node180&#45;&gt;Node189</title>
<path fill="none" stroke="#191970" d="M65.7681,-130.4179C90.9061,-121.2748 129.8654,-107.1046 157.8557,-96.924"/>
<polygon fill="#191970" stroke="#191970" points="159.0568,-100.2116 167.2581,-93.5042 156.664,-93.6332 159.0568,-100.2116"/>
</g>
<!-- Node205 -->
<g id="node26" class="node">
<title>Node205</title>
<g id="a_node26"><a xlink:href="cleanse_8cpp.html#a5a4afb85dd16ecc1f6019c782db78663" target="_top" xlink:title="memory_cleanse">
<polygon fill="#ffffff" stroke="#000000" points="145.9429,-38.5 145.9429,-56.5 238.0854,-56.5 238.0854,-38.5 145.9429,-38.5"/>
<text text-anchor="middle" x="192.0142" y="-44.5" font-family="Helvetica,sans-Serif" font-size="10.00" fill="#000000">memory_cleanse</text>
</a>
</g>
</g>
<!-- Node180&#45;&gt;Node205 -->
<g id="edge29" class="edge">
<title>Node180&#45;&gt;Node205</title>
<path fill="none" stroke="#191970" d="M47.7686,-130.326C60.0992,-114.7582 87.3295,-83.232 117.5957,-66.5 123.2628,-63.3671 129.4578,-60.739 135.7765,-58.5371"/>
<polygon fill="#191970" stroke="#191970" points="137.2512,-61.743 145.7496,-55.4162 135.1606,-55.0625 137.2512,-61.743"/>
</g>
<!-- Node184 -->
<g id="node5" class="node">
<title>Node184</title>
<g id="a_node5"><a xlink:href="glibc__compat_8cpp.html#a0f46826ab0466591e136db24394923cf" target="_top" xlink:title="memcpy">
<polygon fill="#ffffff" stroke="#000000" points="993.2383,-130.5 993.2383,-148.5 1047.0215,-148.5 1047.0215,-130.5 993.2383,-130.5"/>
<text text-anchor="middle" x="1020.1299" y="-136.5" font-family="Helvetica,sans-Serif" font-size="10.00" fill="#000000">memcpy</text>
</a>
</g>
</g>
<!-- Node183&#45;&gt;Node184 -->
<g id="edge4" class="edge">
<title>Node183&#45;&gt;Node184</title>
<path fill="none" stroke="#191970" d="M239.2964,-144.5917C295.7261,-150.2197 392.9729,-158.5 476.6807,-158.5 476.6807,-158.5 476.6807,-158.5 734.6382,-158.5 823.8188,-158.5 928.3244,-149.1555 982.8001,-143.5731"/>
<polygon fill="#191970" stroke="#191970" points="983.4248,-147.027 993.0088,-142.5106 982.7002,-140.0646 983.4248,-147.027"/>
</g>
<!-- Node186 -->
<g id="node7" class="node">
<title>Node186</title>
<g id="a_node7"><a xlink:href="classbase__blob.html#aeee68e00ceeacf49086e98b661e017ff" target="_top" xlink:title="base_blob::begin">
<polygon fill="#ffffff" stroke="#000000" points="302.4326,-111.5 302.4326,-129.5 394.6094,-129.5 394.6094,-111.5 302.4326,-111.5"/>
<text text-anchor="middle" x="348.521" y="-117.5" font-family="Helvetica,sans-Serif" font-size="10.00" fill="#000000">base_blob::begin</text>
</a>
</g>
</g>
<!-- Node183&#45;&gt;Node186 -->
<g id="edge6" class="edge">
<title>Node183&#45;&gt;Node186</title>
<path fill="none" stroke="#191970" d="M239.3961,-133.7478C256.0923,-131.7209 275.0215,-129.4229 292.3715,-127.3166"/>
<polygon fill="#191970" stroke="#191970" points="292.8704,-130.7818 302.3756,-126.1021 292.0267,-123.8328 292.8704,-130.7818"/>
</g>
<!-- Node187 -->
<g id="node8" class="node">
<title>Node187</title>
<g id="a_node8"><a xlink:href="class_c_key.html#a468a9a8cd148ab4a43e7d76bbdc78abe" target="_top" xlink:title="Simple read&#45;only vector&#45;like interface. ">
<polygon fill="#ffffff" stroke="#000000" points="316.6245,-224.5 316.6245,-242.5 380.4175,-242.5 380.4175,-224.5 316.6245,-224.5"/>
<text text-anchor="middle" x="348.521" y="-230.5" font-family="Helvetica,sans-Serif" font-size="10.00" fill="#000000">CKey::size</text>
</a>
</g>
</g>
<!-- Node183&#45;&gt;Node187 -->
<g id="edge7" class="edge">
<title>Node183&#45;&gt;Node187</title>
<path fill="none" stroke="#191970" d="M239.2721,-145.8558C248.8671,-148.661 258.4521,-152.6968 266.4326,-158.5 290.666,-176.1217 279.3221,-196.4296 302.4326,-215.5 304.2091,-216.9659 306.119,-218.3222 308.115,-219.5758"/>
<polygon fill="#191970" stroke="#191970" points="306.7957,-222.838 317.2694,-224.4353 310.0778,-216.6551 306.7957,-222.838"/>
</g>
<!-- Node188 -->
<g id="node9" class="node">
<title>Node188</title>
<g id="a_node9"><a xlink:href="class_c_key.html#ab8dee0ad9d933304a22284ee40040847" target="_top" xlink:title="CKey::begin">
<polygon fill="#ffffff" stroke="#000000" points="313.2822,-187.5 313.2822,-205.5 383.7598,-205.5 383.7598,-187.5 313.2822,-187.5"/>
<text text-anchor="middle" x="348.521" y="-193.5" font-family="Helvetica,sans-Serif" font-size="10.00" fill="#000000">CKey::begin</text>
</a>
</g>
</g>
<!-- Node183&#45;&gt;Node188 -->
<g id="edge8" class="edge">
<title>Node183&#45;&gt;Node188</title>
<path fill="none" stroke="#191970" d="M232.9741,-148.5225C243.9623,-151.3307 255.7539,-154.7014 266.4326,-158.5 285.5474,-165.2994 306.2747,-174.9134 322.1193,-182.7698"/>
<polygon fill="#191970" stroke="#191970" points="320.7904,-186.0193 331.2957,-187.3935 323.9402,-179.768 320.7904,-186.0193"/>
</g>
<!-- Node185 -->
<g id="node6" class="node">
<title>Node185</title>
<g id="a_node6"><a xlink:href="glibc__compat_8cpp.html#a9778d49e9029dd75bc53ecbbf9f5e9a1" target="_top" xlink:title="memmove">
<polygon fill="#ffffff" stroke="#000000" points="1112.4844,-130.5 1112.4844,-148.5 1175.1592,-148.5 1175.1592,-130.5 1112.4844,-130.5"/>
<text text-anchor="middle" x="1143.8218" y="-136.5" font-family="Helvetica,sans-Serif" font-size="10.00" fill="#000000">memmove</text>
</a>
</g>
</g>
<!-- Node184&#45;&gt;Node185 -->
<g id="edge5" class="edge">
<title>Node184&#45;&gt;Node185</title>
<path fill="none" stroke="#191970" d="M1047.2746,-139.5C1063.4004,-139.5 1084.18,-139.5 1102.3281,-139.5"/>
<polygon fill="#191970" stroke="#191970" points="1102.3729,-143.0001 1112.3729,-139.5 1102.3729,-136.0001 1102.3729,-143.0001"/>
</g>
<!-- Node190 -->
<g id="node11" class="node">
<title>Node190</title>
<g id="a_node11"><a xlink:href="_hash_8h.html#ab3f6c437460137530d86e09c2c102e99" target="_top" xlink:title="Compute the 256&#45;bit hash of an object. ">
<polygon fill="#ffffff" stroke="#000000" points="328.8486,-69.5 328.8486,-87.5 368.1934,-87.5 368.1934,-69.5 328.8486,-69.5"/>
<text text-anchor="middle" x="348.521" y="-75.5" font-family="Helvetica,sans-Serif" font-size="10.00" fill="#000000">Hash</text>
</a>
</g>
</g>
<!-- Node189&#45;&gt;Node190 -->
<g id="edge10" class="edge">
<title>Node189&#45;&gt;Node190</title>
<path fill="none" stroke="#191970" d="M248.5167,-82.3339C272.1573,-81.4276 298.6748,-80.411 318.4607,-79.6524"/>
<polygon fill="#191970" stroke="#191970" points="318.8408,-83.1405 328.6993,-79.2599 318.5725,-76.1457 318.8408,-83.1405"/>
</g>
<!-- Node204 -->
<g id="node25" class="node">
<title>Node204</title>
<g id="a_node25"><a xlink:href="base58_8cpp.html#a8d6f0e9d5df175b4966dcede31dc90ad" target="_top" xlink:title="Why base&#45;58 instead of standard base&#45;64 encoding? ">
<polygon fill="#ffffff" stroke="#000000" points="306.605,-32.5 306.605,-50.5 390.437,-50.5 390.437,-32.5 306.605,-32.5"/>
<text text-anchor="middle" x="348.521" y="-38.5" font-family="Helvetica,sans-Serif" font-size="10.00" fill="#000000">EncodeBase58</text>
</a>
</g>
</g>
<!-- Node189&#45;&gt;Node204 -->
<g id="edge28" class="edge">
<title>Node189&#45;&gt;Node204</title>
<path fill="none" stroke="#191970" d="M231.1328,-75.4911C242.548,-72.74 255.0199,-69.6153 266.4326,-66.5 280.8887,-62.554 296.6578,-57.8494 310.4762,-53.5914"/>
<polygon fill="#191970" stroke="#191970" points="311.6354,-56.8964 320.1468,-50.5871 309.5586,-50.2115 311.6354,-56.8964"/>
</g>
<!-- Node191 -->
<g id="node12" class="node">
<title>Node191</title>
<g id="a_node12"><a xlink:href="class_c_hash3.html#a3dc880cbca561109d8de7c7ffdd5691e" target="_top" xlink:title="CHash3::Write">
<polygon fill="#ffffff" stroke="#000000" points="436.2612,-14.5 436.2612,-32.5 517.1001,-32.5 517.1001,-14.5 436.2612,-14.5"/>
<text text-anchor="middle" x="476.6807" y="-20.5" font-family="Helvetica,sans-Serif" font-size="10.00" fill="#000000">CHash3::Write</text>
</a>
</g>
</g>
<!-- Node190&#45;&gt;Node191 -->
<g id="edge11" class="edge">
<title>Node190&#45;&gt;Node191</title>
<path fill="none" stroke="#191970" d="M368.4209,-71.1838C376.6033,-68.0579 386.1308,-64.2659 394.6094,-60.5 410.9578,-53.2386 414.33,-49.9149 430.6094,-42.5 435.0039,-40.4984 439.6721,-38.4665 444.2857,-36.5126"/>
<polygon fill="#191970" stroke="#191970" points="445.6871,-39.7204 453.5742,-32.6462 442.997,-33.2579 445.6871,-39.7204"/>
</g>
<!-- Node196 -->
<g id="node17" class="node">
<title>Node196</title>
<g id="a_node17"><a xlink:href="class_c_hash3.html#a28921734337c77f3589c0b1a740e2f30" target="_top" xlink:title="CHash3::Finalize">
<polygon fill="#ffffff" stroke="#000000" points="430.6094,-51.5 430.6094,-69.5 522.752,-69.5 522.752,-51.5 430.6094,-51.5"/>
<text text-anchor="middle" x="476.6807" y="-57.5" font-family="Helvetica,sans-Serif" font-size="10.00" fill="#000000">CHash3::Finalize</text>
</a>
</g>
</g>
<!-- Node190&#45;&gt;Node196 -->
<g id="edge16" class="edge">
<title>Node190&#45;&gt;Node196</title>
<path fill="none" stroke="#191970" d="M368.2651,-75.7269C382.3113,-73.7542 401.932,-70.9984 420.6268,-68.3728"/>
<polygon fill="#191970" stroke="#191970" points="421.163,-71.8319 430.579,-66.975 420.1894,-64.8999 421.163,-71.8319"/>
</g>
<!-- Node192 -->
<g id="node13" class="node">
<title>Node192</title>
<g id="a_node13"><a xlink:href="class_c_s_h_a3.html#a439a0fade3fa1b7989c6cf053d39161b" target="_top" xlink:title="CSHA3::Write">
<polygon fill="#ffffff" stroke="#000000" points="564.4038,-5.5 564.4038,-23.5 642.4595,-23.5 642.4595,-5.5 564.4038,-5.5"/>
<text text-anchor="middle" x="603.4316" y="-11.5" font-family="Helvetica,sans-Serif" font-size="10.00" fill="#000000">CSHA3::Write</text>
</a>
</g>
</g>
<!-- Node191&#45;&gt;Node192 -->
<g id="edge12" class="edge">
<title>Node191&#45;&gt;Node192</title>
<path fill="none" stroke="#191970" d="M517.134,-20.6276C528.9071,-19.7916 541.9,-18.8691 554.1525,-17.9991"/>
<polygon fill="#191970" stroke="#191970" points="554.5004,-21.4833 564.2273,-17.2837 554.0045,-14.5009 554.5004,-21.4833"/>
</g>
<!-- Node193 -->
<g id="node14" class="node">
<title>Node193</title>
<g id="a_node14"><a xlink:href="class_s_h_a3__256.html#a8356957ea403c5da326fc6899b91ea71" target="_top" xlink:title="Updates the hash with more data. ">
<polygon fill="#ffffff" stroke="#000000" points="684.3823,-5.5 684.3823,-23.5 784.894,-23.5 784.894,-5.5 684.3823,-5.5"/>
<text text-anchor="middle" x="734.6382" y="-11.5" font-family="Helvetica,sans-Serif" font-size="10.00" fill="#000000">SHA3_256::update</text>
</a>
</g>
</g>
<!-- Node192&#45;&gt;Node193 -->
<g id="edge13" class="edge">
<title>Node192&#45;&gt;Node193</title>
<path fill="none" stroke="#191970" d="M642.7979,-14.5C652.6368,-14.5 663.4183,-14.5 674.0248,-14.5"/>
<polygon fill="#191970" stroke="#191970" points="674.1039,-18.0001 684.1039,-14.5 674.1038,-11.0001 674.1039,-18.0001"/>
</g>
<!-- Node194 -->
<g id="node15" class="node">
<title>Node194</title>
<g id="a_node15"><a xlink:href="class_keccak_core.html#aaaa0355ccec0f469ac8eb577bdf853ed" target="_top" xlink:title="Updates the Keccak sponge function with more input data. ">
<polygon fill="#ffffff" stroke="#000000" points="821.165,-.5 821.165,-18.5 927.7754,-18.5 927.7754,-.5 821.165,-.5"/>
<text text-anchor="middle" x="874.4702" y="-6.5" font-family="Helvetica,sans-Serif" font-size="10.00" fill="#000000">KeccakCore::update</text>
</a>
</g>
</g>
<!-- Node193&#45;&gt;Node194 -->
<g id="edge14" class="edge">
<title>Node193&#45;&gt;Node194</title>
<path fill="none" stroke="#191970" d="M785.1208,-12.6949C793.4424,-12.3973 802.1629,-12.0855 810.7575,-11.7782"/>
<polygon fill="#191970" stroke="#191970" points="810.8889,-15.2758 820.7574,-11.4206 810.6387,-8.2803 810.8889,-15.2758"/>
</g>
<!-- Node195 -->
<g id="node16" class="node">
<title>Node195</title>
<g id="a_node16"><a xlink:href="class_keccak_core.html#aba3225c7a4ceff3580236a900b72a1c3" target="_top" xlink:title="Transform the state with the KECCAK&#45;p sponge function with b = 1600. ">
<polygon fill="#ffffff" stroke="#000000" points="963.7754,-74.5 963.7754,-92.5 1076.4844,-92.5 1076.4844,-74.5 963.7754,-74.5"/>
<text text-anchor="middle" x="1020.1299" y="-80.5" font-family="Helvetica,sans-Serif" font-size="10.00" fill="#000000">KeccakCore::keccakp</text>
</a>
</g>
</g>
<!-- Node194&#45;&gt;Node195 -->
<g id="edge15" class="edge">
<title>Node194&#45;&gt;Node195</title>
<path fill="none" stroke="#191970" d="M905.0858,-18.5564C912.6309,-21.1359 920.6016,-24.1632 927.7754,-27.5 953.2284,-39.3391 980.4956,-56.4824 998.7506,-68.6774"/>
<polygon fill="#191970" stroke="#191970" points="996.9366,-71.676 1007.1792,-74.3853 1000.8617,-65.88 996.9366,-71.676"/>
</g>
<!-- Node196&#45;&gt;Node192 -->
<g id="edge27" class="edge">
<title>Node196&#45;&gt;Node192</title>
<path fill="none" stroke="#191970" d="M501.7226,-51.4119C520.9057,-44.45 547.5946,-34.7642 568.8199,-27.0612"/>
<polygon fill="#191970" stroke="#191970" points="570.2357,-30.2708 578.4417,-23.5692 567.8476,-23.6907 570.2357,-30.2708"/>
</g>
<!-- Node197 -->
<g id="node18" class="node">
<title>Node197</title>
<g id="a_node18"><a xlink:href="class_c_s_h_a3.html#a7aa515a9a0fa6d72667d74897f699ae9" target="_top" xlink:title="CSHA3::Finalize">
<polygon fill="#ffffff" stroke="#000000" points="558.752,-79.5 558.752,-97.5 648.1113,-97.5 648.1113,-79.5 558.752,-79.5"/>
<text text-anchor="middle" x="603.4316" y="-85.5" font-family="Helvetica,sans-Serif" font-size="10.00" fill="#000000">CSHA3::Finalize</text>
</a>
</g>
</g>
<!-- Node196&#45;&gt;Node197 -->
<g id="edge17" class="edge">
<title>Node196&#45;&gt;Node197</title>
<path fill="none" stroke="#191970" d="M517.4832,-69.5135C528.5659,-71.9617 540.7081,-74.644 552.2844,-77.2013"/>
<polygon fill="#191970" stroke="#191970" points="551.7514,-80.6679 562.271,-79.4074 553.2614,-73.8327 551.7514,-80.6679"/>
</g>
<!-- Node201 -->
<g id="node22" class="node">
<title>Node201</title>
<g id="a_node22"><a xlink:href="class_c_s_h_a3.html#a9d77a24312b66dcd026dfbed1d917dc1" target="_top" xlink:title="CSHA3::Reset">
<polygon fill="#ffffff" stroke="#000000" points="562.9194,-42.5 562.9194,-60.5 643.9438,-60.5 643.9438,-42.5 562.9194,-42.5"/>
<text text-anchor="middle" x="603.4316" y="-48.5" font-family="Helvetica,sans-Serif" font-size="10.00" fill="#000000">CSHA3::Reset</text>
</a>
</g>
</g>
<!-- Node196&#45;&gt;Node201 -->
<g id="edge24" class="edge">
<title>Node196&#45;&gt;Node201</title>
<path fill="none" stroke="#191970" d="M522.7992,-57.2253C532.4656,-56.539 542.7118,-55.8114 552.5408,-55.1135"/>
<polygon fill="#191970" stroke="#191970" points="552.8639,-58.5995 562.5909,-54.3999 552.3681,-51.6171 552.8639,-58.5995"/>
</g>
<!-- Node198 -->
<g id="node19" class="node">
<title>Node198</title>
<g id="a_node19"><a xlink:href="class_s_h_a3__256.html#a8fe7cad1f83bd1bae1a0d521324247a1" target="_top" xlink:title="Finalizes the hashing process and returns the hash. ">
<polygon fill="#ffffff" stroke="#000000" points="684.1113,-79.5 684.1113,-97.5 785.165,-97.5 785.165,-79.5 684.1113,-79.5"/>
<text text-anchor="middle" x="734.6382" y="-85.5" font-family="Helvetica,sans-Serif" font-size="10.00" fill="#000000">SHA3_256::finalize</text>
</a>
</g>
</g>
<!-- Node197&#45;&gt;Node198 -->
<g id="edge18" class="edge">
<title>Node197&#45;&gt;Node198</title>
<path fill="none" stroke="#191970" d="M648.2185,-88.5C656.4357,-88.5 665.1389,-88.5 673.734,-88.5"/>
<polygon fill="#191970" stroke="#191970" points="673.7387,-92.0001 683.7387,-88.5 673.7386,-85.0001 673.7387,-92.0001"/>
</g>
<!-- Node199 -->
<g id="node20" class="node">
<title>Node199</title>
<g id="a_node20"><a xlink:href="class_keccak_core.html#a97852ee4381ced17ee6d21704cf0b4d7" target="_top" xlink:title="Pads the last block of input data to blockSize(). ">
<polygon fill="#ffffff" stroke="#000000" points="828.1157,-74.5 828.1157,-92.5 920.8247,-92.5 920.8247,-74.5 828.1157,-74.5"/>
<text text-anchor="middle" x="874.4702" y="-80.5" font-family="Helvetica,sans-Serif" font-size="10.00" fill="#000000">KeccakCore::pad</text>
</a>
</g>
</g>
<!-- Node198&#45;&gt;Node199 -->
<g id="edge19" class="edge">
<title>Node198&#45;&gt;Node199</title>
<path fill="none" stroke="#191970" d="M785.5163,-86.6807C796.0498,-86.3041 807.2073,-85.9051 817.9289,-85.5218"/>
<polygon fill="#191970" stroke="#191970" points="818.1717,-89.0154 828.0402,-85.1602 817.9215,-82.0199 818.1717,-89.0154"/>
</g>
<!-- Node200 -->
<g id="node21" class="node">
<title>Node200</title>
<g id="a_node21"><a xlink:href="class_keccak_core.html#aad83ece853c0cc15fcab947fdcba924f" target="_top" xlink:title="Extracts data from the Keccak sponge function. ">
<polygon fill="#ffffff" stroke="#000000" points="821.4531,-111.5 821.4531,-129.5 927.4873,-129.5 927.4873,-111.5 821.4531,-111.5"/>
<text text-anchor="middle" x="874.4702" y="-117.5" font-family="Helvetica,sans-Serif" font-size="10.00" fill="#000000">KeccakCore::extract</text>
</a>
</g>
</g>
<!-- Node198&#45;&gt;Node200 -->
<g id="edge21" class="edge">
<title>Node198&#45;&gt;Node200</title>
<path fill="none" stroke="#191970" d="M774.3344,-97.5843C789.9809,-101.165 808.1277,-105.3178 824.641,-109.0968"/>
<polygon fill="#191970" stroke="#191970" points="824.1459,-112.5739 834.6747,-111.393 825.7075,-105.7503 824.1459,-112.5739"/>
</g>
<!-- Node199&#45;&gt;Node195 -->
<g id="edge20" class="edge">
<title>Node199&#45;&gt;Node195</title>
<path fill="none" stroke="#191970" d="M920.9583,-83.5C931.3487,-83.5 942.5658,-83.5 953.5893,-83.5"/>
<polygon fill="#191970" stroke="#191970" points="953.6292,-87.0001 963.6292,-83.5 953.6292,-80.0001 953.6292,-87.0001"/>
</g>
<!-- Node200&#45;&gt;Node184 -->
<g id="edge23" class="edge">
<title>Node200&#45;&gt;Node184</title>
<path fill="none" stroke="#191970" d="M927.8814,-127.467C946.1703,-129.8526 966.2217,-132.4682 982.9449,-134.6496"/>
<polygon fill="#191970" stroke="#191970" points="982.5132,-138.1228 992.8819,-135.9458 983.4187,-131.1816 982.5132,-138.1228"/>
</g>
<!-- Node200&#45;&gt;Node195 -->
<g id="edge22" class="edge">
<title>Node200&#45;&gt;Node195</title>
<path fill="none" stroke="#191970" d="M910.1026,-111.4488C929.5726,-106.5031 953.891,-100.3258 974.7104,-95.0373"/>
<polygon fill="#191970" stroke="#191970" points="975.7828,-98.3761 984.6132,-92.5218 974.0593,-91.5916 975.7828,-98.3761"/>
</g>
<!-- Node202 -->
<g id="node23" class="node">
<title>Node202</title>
<g id="a_node23"><a xlink:href="class_s_h_a3__256.html#a57b5f29347a733e04fe47d60621f3202" target="_top" xlink:title="Resets the hash ready for a new hashing process. ">
<polygon fill="#ffffff" stroke="#000000" points="688.5596,-42.5 688.5596,-60.5 780.7168,-60.5 780.7168,-42.5 688.5596,-42.5"/>
<text text-anchor="middle" x="734.6382" y="-48.5" font-family="Helvetica,sans-Serif" font-size="10.00" fill="#000000">SHA3_256::reset</text>
</a>
</g>
</g>
<!-- Node201&#45;&gt;Node202 -->
<g id="edge25" class="edge">
<title>Node201&#45;&gt;Node202</title>
<path fill="none" stroke="#191970" d="M644.227,-51.5C654.9397,-51.5 666.6875,-51.5 678.0657,-51.5"/>
<polygon fill="#191970" stroke="#191970" points="678.371,-55.0001 688.371,-51.5 678.371,-48.0001 678.371,-55.0001"/>
</g>
<!-- Node203 -->
<g id="node24" class="node">
<title>Node203</title>
<g id="a_node24"><a xlink:href="class_keccak_core.html#a5a322eb7e3b5c1eaad127c9c6e6a529b" target="_top" xlink:title="Resets the Keccak sponge function ready for a new session. ">
<polygon fill="#ffffff" stroke="#000000" points="825.3423,-37.5 825.3423,-55.5 923.5981,-55.5 923.5981,-37.5 825.3423,-37.5"/>
<text text-anchor="middle" x="874.4702" y="-43.5" font-family="Helvetica,sans-Serif" font-size="10.00" fill="#000000">KeccakCore::reset</text>
</a>
</g>
</g>
<!-- Node202&#45;&gt;Node203 -->
<g id="edge26" class="edge">
<title>Node202&#45;&gt;Node203</title>
<path fill="none" stroke="#191970" d="M780.812,-49.849C791.6532,-49.4613 803.3587,-49.0427 814.7003,-48.6372"/>
<polygon fill="#191970" stroke="#191970" points="815.11,-52.1249 824.9785,-48.2697 814.8598,-45.1294 815.11,-52.1249"/>
</g>
</g>
</svg>
