<?xml version="1.0" encoding="UTF-8" standalone="no"?>
<!DOCTYPE svg PUBLIC "-//W3C//DTD SVG 1.1//EN"
 "http://www.w3.org/Graphics/SVG/1.1/DTD/svg11.dtd">
<!-- Generated by graphviz version 2.40.1 (20161225.0304)
 -->
<!-- Title: src/logging.h Pages: 1 -->
<svg width="4953pt" height="192pt"
 viewBox="0.00 0.00 4952.65 192.00" xmlns="http://www.w3.org/2000/svg" xmlns:xlink="http://www.w3.org/1999/xlink">
<g id="graph0" class="graph" transform="scale(1 1) rotate(0) translate(4 188)">
<title>src/logging.h</title>
<polygon fill="#ffffff" stroke="transparent" points="-4,4 -4,-188 4948.6475,-188 4948.6475,4 -4,4"/>
<!-- Node17 -->
<g id="node1" class="node">
<title>Node17</title>
<polygon fill="#bfbfbf" stroke="#000000" points="1994.7241,-165.5 1994.7241,-183.5 2067.4233,-183.5 2067.4233,-165.5 1994.7241,-165.5"/>
<text text-anchor="middle" x="2031.0737" y="-171.5" font-family="Helvetica,sans-Serif" font-size="10.00" fill="#000000">src/logging.h</text>
</g>
<!-- Node18 -->
<g id="node2" class="node">
<title>Node18</title>
<g id="a_node2"><a xlink:href="logging_8cpp.html" target="_top" xlink:title="src/logging.cpp">
<polygon fill="#ffffff" stroke="#000000" points="1800.4434,-110.5 1800.4434,-128.5 1883.7041,-128.5 1883.7041,-110.5 1800.4434,-110.5"/>
<text text-anchor="middle" x="1842.0737" y="-116.5" font-family="Helvetica,sans-Serif" font-size="10.00" fill="#000000">src/logging.cpp</text>
</a>
</g>
</g>
<!-- Node17&#45;&gt;Node18 -->
<g id="edge1" class="edge">
<title>Node17&#45;&gt;Node18</title>
<path fill="none" stroke="#191970" d="M1989.906,-162.52C1954.7254,-152.2822 1904.8831,-137.7779 1873.0155,-128.5042"/>
<polygon fill="#191970" stroke="#191970" points="1989.2845,-165.9843 1999.8642,-165.4179 1991.2405,-159.2631 1989.2845,-165.9843"/>
</g>
<!-- Node19 -->
<g id="node3" class="node">
<title>Node19</title>
<g id="a_node3"><a xlink:href="pow_8cpp.html" target="_top" xlink:title="src/pow.cpp">
<polygon fill="#ffffff" stroke="#000000" points="1901.6699,-110.5 1901.6699,-128.5 1970.4775,-128.5 1970.4775,-110.5 1901.6699,-110.5"/>
<text text-anchor="middle" x="1936.0737" y="-116.5" font-family="Helvetica,sans-Serif" font-size="10.00" fill="#000000">src/pow.cpp</text>
</a>
</g>
</g>
<!-- Node17&#45;&gt;Node19 -->
<g id="edge2" class="edge">
<title>Node17&#45;&gt;Node19</title>
<path fill="none" stroke="#191970" d="M2006.4277,-160.2313C1989.1761,-150.2435 1966.644,-137.1986 1951.7844,-128.5956"/>
<polygon fill="#191970" stroke="#191970" points="2004.9785,-163.4365 2015.3864,-165.4179 2008.4858,-157.3785 2004.9785,-163.4365"/>
</g>
<!-- Node20 -->
<g id="node4" class="node">
<title>Node20</title>
<g id="a_node4"><a xlink:href="random_8cpp.html" target="_top" xlink:title="src/random.cpp">
<polygon fill="#ffffff" stroke="#000000" points="1988.6157,-110.5 1988.6157,-128.5 2073.5317,-128.5 2073.5317,-110.5 1988.6157,-110.5"/>
<text text-anchor="middle" x="2031.0737" y="-116.5" font-family="Helvetica,sans-Serif" font-size="10.00" fill="#000000">src/random.cpp</text>
</a>
</g>
</g>
<!-- Node17&#45;&gt;Node20 -->
<g id="edge3" class="edge">
<title>Node17&#45;&gt;Node20</title>
<path fill="none" stroke="#191970" d="M2031.0737,-155.383C2031.0737,-146.3738 2031.0737,-136.0373 2031.0737,-128.7795"/>
<polygon fill="#191970" stroke="#191970" points="2027.5738,-155.4178 2031.0737,-165.4179 2034.5738,-155.4179 2027.5738,-155.4178"/>
</g>
<!-- Node21 -->
<g id="node5" class="node">
<title>Node21</title>
<g id="a_node5"><a xlink:href="sync_8cpp.html" target="_top" xlink:title="src/sync.cpp">
<polygon fill="#ffffff" stroke="#000000" points="2091.2881,-110.5 2091.2881,-128.5 2162.8594,-128.5 2162.8594,-110.5 2091.2881,-110.5"/>
<text text-anchor="middle" x="2127.0737" y="-116.5" font-family="Helvetica,sans-Serif" font-size="10.00" fill="#000000">src/sync.cpp</text>
</a>
</g>
</g>
<!-- Node17&#45;&gt;Node21 -->
<g id="edge4" class="edge">
<title>Node17&#45;&gt;Node21</title>
<path fill="none" stroke="#191970" d="M2055.9792,-160.2313C2073.4124,-150.2435 2096.1816,-137.1986 2111.1977,-128.5956"/>
<polygon fill="#191970" stroke="#191970" points="2053.8631,-157.4098 2046.9262,-165.4179 2057.343,-163.4836 2053.8631,-157.4098"/>
</g>
<!-- Node22 -->
<g id="node6" class="node">
<title>Node22</title>
<g id="a_node6"><a xlink:href="util_8h.html" target="_top" xlink:title="src/util.h">
<polygon fill="#ffffff" stroke="#ff0000" points="2180.458,-110.5 2180.458,-128.5 2233.6895,-128.5 2233.6895,-110.5 2180.458,-110.5"/>
<text text-anchor="middle" x="2207.0737" y="-116.5" font-family="Helvetica,sans-Serif" font-size="10.00" fill="#000000">src/util.h</text>
</a>
</g>
</g>
<!-- Node17&#45;&gt;Node22 -->
<g id="edge5" class="edge">
<title>Node17&#45;&gt;Node22</title>
<path fill="none" stroke="#191970" d="M2070.0449,-162.3215C2103.5242,-151.8592 2150.9091,-137.0514 2180.2773,-127.8739"/>
<polygon fill="#191970" stroke="#191970" points="2068.6374,-159.0944 2060.1366,-165.4179 2070.7253,-165.7757 2068.6374,-159.0944"/>
</g>
<!-- Node23 -->
<g id="node7" class="node">
<title>Node23</title>
<g id="a_node7"><a xlink:href="addrdb_8cpp.html" target="_top" xlink:title="src/addrdb.cpp">
<polygon fill="#ffffff" stroke="#000000" points="0,-.5 0,-18.5 82.1475,-18.5 82.1475,-.5 0,-.5"/>
<text text-anchor="middle" x="41.0737" y="-6.5" font-family="Helvetica,sans-Serif" font-size="10.00" fill="#000000">src/addrdb.cpp</text>
</a>
</g>
</g>
<!-- Node22&#45;&gt;Node23 -->
<g id="edge6" class="edge">
<title>Node22&#45;&gt;Node23</title>
<path fill="none" stroke="#191970" d="M2169.9085,-110.385C1980.3786,-94.8231 215.0957,-115.668 111.0737,-74 82.5408,-62.5706 58.5173,-33.7004 47.5128,-18.7666"/>
<polygon fill="#191970" stroke="#191970" points="2169.7659,-113.8894 2180.0793,-111.4637 2170.5043,-106.9284 2169.7659,-113.8894"/>
</g>
<!-- Node24 -->
<g id="node8" class="node">
<title>Node24</title>
<g id="a_node8"><a xlink:href="addrman_8h.html" target="_top" xlink:title="src/addrman.h">
<polygon fill="#ffffff" stroke="#ff0000" points="120.1157,-55.5 120.1157,-73.5 200.0317,-73.5 200.0317,-55.5 120.1157,-55.5"/>
<text text-anchor="middle" x="160.0737" y="-61.5" font-family="Helvetica,sans-Serif" font-size="10.00" fill="#000000">src/addrman.h</text>
</a>
</g>
</g>
<!-- Node22&#45;&gt;Node24 -->
<g id="edge7" class="edge">
<title>Node22&#45;&gt;Node24</title>
<path fill="none" stroke="#191970" d="M2170.0084,-110.0602C1724.9594,-49.5656 644.8094,-114.8252 215.0737,-74 210.2504,-73.5418 205.2132,-72.9002 200.2295,-72.1643"/>
<polygon fill="#191970" stroke="#191970" points="2169.691,-113.5497 2180.079,-111.4662 2170.659,-106.617 2169.691,-113.5497"/>
</g>
<!-- Node26 -->
<g id="node9" class="node">
<title>Node26</title>
<g id="a_node9"><a xlink:href="init_8cpp.html" target="_top" xlink:title="src/init.cpp">
<polygon fill="#ffffff" stroke="#000000" points="236.1772,-.5 236.1772,-18.5 299.9702,-18.5 299.9702,-.5 236.1772,-.5"/>
<text text-anchor="middle" x="268.0737" y="-6.5" font-family="Helvetica,sans-Serif" font-size="10.00" fill="#000000">src/init.cpp</text>
</a>
</g>
</g>
<!-- Node22&#45;&gt;Node26 -->
<g id="edge27" class="edge">
<title>Node22&#45;&gt;Node26</title>
<path fill="none" stroke="#191970" d="M2170.0843,-110.4262C1994.5188,-96.5282 405.6725,-120.102 316.0737,-74 292.9878,-62.1214 278.1097,-33.4548 271.6994,-18.6659"/>
<polygon fill="#191970" stroke="#191970" points="2169.7693,-113.9123 2180.0786,-111.469 2170.4958,-106.9501 2169.7693,-113.9123"/>
</g>
<!-- Node56 -->
<g id="node10" class="node">
<title>Node56</title>
<g id="a_node10"><a xlink:href="net__processing_8cpp.html" target="_top" xlink:title="src/net_processing.cpp">
<polygon fill="#ffffff" stroke="#000000" points="99.6577,-.5 99.6577,-18.5 218.4897,-18.5 218.4897,-.5 99.6577,-.5"/>
<text text-anchor="middle" x="159.0737" y="-6.5" font-family="Helvetica,sans-Serif" font-size="10.00" fill="#000000">src/net_processing.cpp</text>
</a>
</g>
</g>
<!-- Node22&#45;&gt;Node56 -->
<g id="edge36" class="edge">
<title>Node22&#45;&gt;Node56</title>
<path fill="none" stroke="#191970" d="M2169.8327,-110.1498C1922.3224,-81.6274 491.3006,-122.3258 291.0737,-74 244.7084,-62.8095 195.6468,-33.5514 172.5678,-18.5924"/>
<polygon fill="#191970" stroke="#191970" points="2169.7137,-113.6633 2180.0787,-111.4683 2170.6072,-106.7205 2169.7137,-113.6633"/>
</g>
<!-- Node71 -->
<g id="node11" class="node">
<title>Node71</title>
<g id="a_node11"><a xlink:href="bench__bitcoin_8cpp.html" target="_top" xlink:title="src/bench/bench_bitcoin.cpp">
<polygon fill="#ffffff" stroke="#000000" points="481.6997,-55.5 481.6997,-73.5 624.4478,-73.5 624.4478,-55.5 481.6997,-55.5"/>
<text text-anchor="middle" x="553.0737" y="-61.5" font-family="Helvetica,sans-Serif" font-size="10.00" fill="#000000">src/bench/bench_bitcoin.cpp</text>
</a>
</g>
</g>
<!-- Node22&#45;&gt;Node71 -->
<g id="edge11" class="edge">
<title>Node22&#45;&gt;Node71</title>
<path fill="none" stroke="#191970" d="M2170.0459,-110.0579C1817.4474,-61.5655 971.8589,-97.7097 634.0737,-74 630.9664,-73.7819 627.795,-73.5311 624.5934,-73.2549"/>
<polygon fill="#191970" stroke="#191970" points="2169.6847,-113.5416 2180.077,-111.48 2170.6673,-106.6109 2169.6847,-113.5416"/>
</g>
<!-- Node72 -->
<g id="node12" class="node">
<title>Node72</title>
<g id="a_node12"><a xlink:href="checkqueue_8cpp.html" target="_top" xlink:title="src/bench/checkqueue.cpp">
<polygon fill="#ffffff" stroke="#000000" points="642.5913,-55.5 642.5913,-73.5 777.5562,-73.5 777.5562,-55.5 642.5913,-55.5"/>
<text text-anchor="middle" x="710.0737" y="-61.5" font-family="Helvetica,sans-Serif" font-size="10.00" fill="#000000">src/bench/checkqueue.cpp</text>
</a>
</g>
</g>
<!-- Node22&#45;&gt;Node72 -->
<g id="edge12" class="edge">
<title>Node22&#45;&gt;Node72</title>
<path fill="none" stroke="#191970" d="M2169.8354,-110.0263C1850.6524,-66.0043 1090.0074,-96.8873 786.0737,-74 783.2892,-73.7903 780.4501,-73.5511 777.5841,-73.2886"/>
<polygon fill="#191970" stroke="#191970" points="2169.6819,-113.5397 2180.076,-111.487 2170.6704,-106.6099 2169.6819,-113.5397"/>
</g>
<!-- Node73 -->
<g id="node13" class="node">
<title>Node73</title>
<g id="a_node13"><a xlink:href="blockencodings_8cpp.html" target="_top" xlink:title="src/blockencodings.cpp">
<polygon fill="#ffffff" stroke="#000000" points="795.1011,-55.5 795.1011,-73.5 915.0464,-73.5 915.0464,-55.5 795.1011,-55.5"/>
<text text-anchor="middle" x="855.0737" y="-61.5" font-family="Helvetica,sans-Serif" font-size="10.00" fill="#000000">src/blockencodings.cpp</text>
</a>
</g>
</g>
<!-- Node22&#45;&gt;Node73 -->
<g id="edge13" class="edge">
<title>Node22&#45;&gt;Node73</title>
<path fill="none" stroke="#191970" d="M2169.915,-109.9982C1620.9153,-29.8128 1473.0884,-120.2057 923.0737,-74 920.4605,-73.7805 917.7942,-73.5285 915.1033,-73.2513"/>
<polygon fill="#191970" stroke="#191970" points="2169.6715,-113.5 2180.0748,-111.4948 2170.6917,-106.5747 2169.6715,-113.5"/>
</g>
<!-- Node74 -->
<g id="node14" class="node">
<title>Node74</title>
<g id="a_node14"><a xlink:href="bsha3-cli_8cpp.html" target="_top" xlink:title="src/bsha3&#45;cli.cpp">
<polygon fill="#ffffff" stroke="#000000" points="932.5591,-55.5 932.5591,-73.5 1023.5884,-73.5 1023.5884,-55.5 932.5591,-55.5"/>
<text text-anchor="middle" x="978.0737" y="-61.5" font-family="Helvetica,sans-Serif" font-size="10.00" fill="#000000">src/bsha3&#45;cli.cpp</text>
</a>
</g>
</g>
<!-- Node22&#45;&gt;Node74 -->
<g id="edge14" class="edge">
<title>Node22&#45;&gt;Node74</title>
<path fill="none" stroke="#191970" d="M2170.4256,-110.0967C1668.931,-36.2891 1532.99,-125.7048 1032.0737,-74 1029.3278,-73.7166 1026.5111,-73.3754 1023.6748,-72.9933"/>
<polygon fill="#191970" stroke="#191970" points="2170.0513,-113.5795 2180.4572,-111.5876 2171.0804,-106.6555 2170.0513,-113.5795"/>
</g>
<!-- Node75 -->
<g id="node15" class="node">
<title>Node75</title>
<g id="a_node15"><a xlink:href="bsha3-tx_8cpp.html" target="_top" xlink:title="src/bsha3&#45;tx.cpp">
<polygon fill="#ffffff" stroke="#000000" points="1041.3916,-55.5 1041.3916,-73.5 1130.7559,-73.5 1130.7559,-55.5 1041.3916,-55.5"/>
<text text-anchor="middle" x="1086.0737" y="-61.5" font-family="Helvetica,sans-Serif" font-size="10.00" fill="#000000">src/bsha3&#45;tx.cpp</text>
</a>
</g>
</g>
<!-- Node22&#45;&gt;Node75 -->
<g id="edge15" class="edge">
<title>Node22&#45;&gt;Node75</title>
<path fill="none" stroke="#191970" d="M2170.3551,-110.0794C1716.4769,-42.6073 1593.1724,-121.525 1140.0737,-74 1137.0443,-73.6822 1133.9284,-73.2955 1130.7951,-72.862"/>
<polygon fill="#191970" stroke="#191970" points="2170.0468,-113.5723 2180.4558,-111.5969 2171.0868,-106.65 2170.0468,-113.5723"/>
</g>
<!-- Node76 -->
<g id="node16" class="node">
<title>Node76</title>
<g id="a_node16"><a xlink:href="bsha3d_8cpp.html" target="_top" xlink:title="src/bsha3d.cpp">
<polygon fill="#ffffff" stroke="#000000" points="318.165,-.5 318.165,-18.5 401.9824,-18.5 401.9824,-.5 318.165,-.5"/>
<text text-anchor="middle" x="360.0737" y="-6.5" font-family="Helvetica,sans-Serif" font-size="10.00" fill="#000000">src/bsha3d.cpp</text>
</a>
</g>
</g>
<!-- Node22&#45;&gt;Node76 -->
<g id="edge16" class="edge">
<title>Node22&#45;&gt;Node76</title>
<path fill="none" stroke="#191970" d="M2169.6856,-110.6963C2012.9437,-103.1753 359.881,-109.4923 325.0737,-74 308.9275,-57.536 333.1093,-32.11 348.6642,-18.6251"/>
<polygon fill="#191970" stroke="#191970" points="2169.8465,-114.2179 2180.0785,-111.4692 2170.3657,-107.2371 2169.8465,-114.2179"/>
</g>
<!-- Node77 -->
<g id="node17" class="node">
<title>Node77</title>
<g id="a_node17"><a xlink:href="chainparams_8cpp.html" target="_top" xlink:title="src/chainparams.cpp">
<polygon fill="#ffffff" stroke="#000000" points="1148.9434,-55.5 1148.9434,-73.5 1257.2041,-73.5 1257.2041,-55.5 1148.9434,-55.5"/>
<text text-anchor="middle" x="1203.0737" y="-61.5" font-family="Helvetica,sans-Serif" font-size="10.00" fill="#000000">src/chainparams.cpp</text>
</a>
</g>
</g>
<!-- Node22&#45;&gt;Node77 -->
<g id="edge17" class="edge">
<title>Node22&#45;&gt;Node77</title>
<path fill="none" stroke="#191970" d="M2170.3878,-110.0732C1771.9703,-49.8746 1663.9228,-111.7854 1266.0737,-74 1263.2107,-73.7281 1260.2794,-73.4134 1257.3232,-73.0675"/>
<polygon fill="#191970" stroke="#191970" points="2170.0399,-113.5605 2180.4537,-111.6106 2171.0968,-106.6408 2170.0399,-113.5605"/>
</g>
<!-- Node78 -->
<g id="node18" class="node">
<title>Node78</title>
<g id="a_node18"><a xlink:href="chainparamsbase_8cpp.html" target="_top" xlink:title="src/chainparamsbase.cpp">
<polygon fill="#ffffff" stroke="#000000" points="1275.1011,-55.5 1275.1011,-73.5 1405.0464,-73.5 1405.0464,-55.5 1275.1011,-55.5"/>
<text text-anchor="middle" x="1340.0737" y="-61.5" font-family="Helvetica,sans-Serif" font-size="10.00" fill="#000000">src/chainparamsbase.cpp</text>
</a>
</g>
</g>
<!-- Node22&#45;&gt;Node78 -->
<g id="edge18" class="edge">
<title>Node22&#45;&gt;Node78</title>
<path fill="none" stroke="#191970" d="M2170.5162,-110.0754C1837.1546,-58.4067 1746.769,-103.2084 1414.0737,-74 1411.2351,-73.7508 1408.3378,-73.4742 1405.4129,-73.1769"/>
<polygon fill="#191970" stroke="#191970" points="2170.029,-113.5417 2180.4503,-111.6324 2171.1129,-106.6261 2170.029,-113.5417"/>
</g>
<!-- Node79 -->
<g id="node19" class="node">
<title>Node79</title>
<g id="a_node19"><a xlink:href="core__read_8cpp.html" target="_top" xlink:title="src/core_read.cpp">
<polygon fill="#ffffff" stroke="#000000" points="1423.0542,-55.5 1423.0542,-73.5 1519.0933,-73.5 1519.0933,-55.5 1423.0542,-55.5"/>
<text text-anchor="middle" x="1471.0737" y="-61.5" font-family="Helvetica,sans-Serif" font-size="10.00" fill="#000000">src/core_read.cpp</text>
</a>
</g>
</g>
<!-- Node22&#45;&gt;Node79 -->
<g id="edge19" class="edge">
<title>Node22&#45;&gt;Node79</title>
<path fill="none" stroke="#191970" d="M2170.2914,-110.0241C1887.2744,-65.1636 1809.6557,-105.2408 1528.0737,-74 1525.1821,-73.6792 1522.2141,-73.3091 1519.2243,-72.9051"/>
<polygon fill="#191970" stroke="#191970" points="2170.0179,-113.5249 2180.4466,-111.656 2171.1286,-106.6136 2170.0179,-113.5249"/>
</g>
<!-- Node80 -->
<g id="node20" class="node">
<title>Node80</title>
<g id="a_node20"><a xlink:href="core__write_8cpp.html" target="_top" xlink:title="src/core_write.cpp">
<polygon fill="#ffffff" stroke="#000000" points="1537.5049,-55.5 1537.5049,-73.5 1634.6426,-73.5 1634.6426,-55.5 1537.5049,-55.5"/>
<text text-anchor="middle" x="1586.0737" y="-61.5" font-family="Helvetica,sans-Serif" font-size="10.00" fill="#000000">src/core_write.cpp</text>
</a>
</g>
</g>
<!-- Node22&#45;&gt;Node80 -->
<g id="edge20" class="edge">
<title>Node22&#45;&gt;Node80</title>
<path fill="none" stroke="#191970" d="M2170.3194,-110.0017C1937.8718,-71.7965 1873.8157,-101.015 1643.0737,-74 1640.3834,-73.685 1637.6265,-73.3308 1634.847,-72.9491"/>
<polygon fill="#191970" stroke="#191970" points="2170.0013,-113.4969 2180.4409,-111.69 2171.1531,-106.5923 2170.0013,-113.4969"/>
</g>
<!-- Node81 -->
<g id="node21" class="node">
<title>Node81</title>
<g id="a_node21"><a xlink:href="dbwrapper_8h.html" target="_top" xlink:title="src/dbwrapper.h">
<polygon fill="#ffffff" stroke="#ff0000" points="1652.4976,-55.5 1652.4976,-73.5 1739.6499,-73.5 1739.6499,-55.5 1652.4976,-55.5"/>
<text text-anchor="middle" x="1696.0737" y="-61.5" font-family="Helvetica,sans-Serif" font-size="10.00" fill="#000000">src/dbwrapper.h</text>
</a>
</g>
</g>
<!-- Node22&#45;&gt;Node81 -->
<g id="edge21" class="edge">
<title>Node22&#45;&gt;Node81</title>
<path fill="none" stroke="#191970" d="M2170.581,-110.0101C1984.0763,-77.8317 1932.3298,-98.5955 1748.0737,-74 1745.3448,-73.6357 1742.5413,-73.2264 1739.7183,-72.7875"/>
<polygon fill="#191970" stroke="#191970" points="2169.9787,-113.4578 2180.4328,-111.7371 2171.1874,-106.5629 2169.9787,-113.4578"/>
</g>
<!-- Node93 -->
<g id="node22" class="node">
<title>Node93</title>
<g id="a_node22"><a xlink:href="dummywallet_8cpp.html" target="_top" xlink:title="src/dummywallet.cpp">
<polygon fill="#ffffff" stroke="#000000" points="1757.394,-55.5 1757.394,-73.5 1866.7534,-73.5 1866.7534,-55.5 1757.394,-55.5"/>
<text text-anchor="middle" x="1812.0737" y="-61.5" font-family="Helvetica,sans-Serif" font-size="10.00" fill="#000000">src/dummywallet.cpp</text>
</a>
</g>
</g>
<!-- Node22&#45;&gt;Node93 -->
<g id="edge22" class="edge">
<title>Node22&#45;&gt;Node93</title>
<path fill="none" stroke="#191970" d="M2170.4282,-109.898C2039.8177,-84.8644 2003.6108,-91.4777 1875.0737,-74 1872.4433,-73.6423 1869.7523,-73.2682 1867.0353,-72.8839"/>
<polygon fill="#191970" stroke="#191970" points="2169.9302,-113.3666 2180.4141,-111.8377 2171.265,-106.495 2169.9302,-113.3666"/>
</g>
<!-- Node94 -->
<g id="node23" class="node">
<title>Node94</title>
<g id="a_node23"><a xlink:href="httprpc_8cpp.html" target="_top" xlink:title="src/httprpc.cpp">
<polygon fill="#ffffff" stroke="#000000" points="1884.2832,-55.5 1884.2832,-73.5 1965.8643,-73.5 1965.8643,-55.5 1884.2832,-55.5"/>
<text text-anchor="middle" x="1925.0737" y="-61.5" font-family="Helvetica,sans-Serif" font-size="10.00" fill="#000000">src/httprpc.cpp</text>
</a>
</g>
</g>
<!-- Node22&#45;&gt;Node94 -->
<g id="edge23" class="edge">
<title>Node22&#45;&gt;Node94</title>
<path fill="none" stroke="#191970" d="M2170.6103,-109.7974C2083.5941,-90.3036 2059.4965,-89.7337 1975.0737,-74 1972.1204,-73.4496 1969.0696,-72.8778 1965.9993,-72.3001"/>
<polygon fill="#191970" stroke="#191970" points="2169.8532,-113.2145 2180.3788,-112.0054 2171.3965,-106.3868 2169.8532,-113.2145"/>
</g>
<!-- Node95 -->
<g id="node24" class="node">
<title>Node95</title>
<g id="a_node24"><a xlink:href="httpserver_8cpp.html" target="_top" xlink:title="src/httpserver.cpp">
<polygon fill="#ffffff" stroke="#000000" points="1983.6108,-55.5 1983.6108,-73.5 2078.5366,-73.5 2078.5366,-55.5 1983.6108,-55.5"/>
<text text-anchor="middle" x="2031.0737" y="-61.5" font-family="Helvetica,sans-Serif" font-size="10.00" fill="#000000">src/httpserver.cpp</text>
</a>
</g>
</g>
<!-- Node22&#45;&gt;Node95 -->
<g id="edge24" class="edge">
<title>Node22&#45;&gt;Node95</title>
<path fill="none" stroke="#191970" d="M2170.6838,-108.1282C2137.9181,-97.8889 2090.3894,-83.0362 2060.1103,-73.5739"/>
<polygon fill="#191970" stroke="#191970" points="2169.7543,-111.5045 2180.3431,-111.1467 2171.8423,-104.8232 2169.7543,-111.5045"/>
</g>
<!-- Node84 -->
<g id="node25" class="node">
<title>Node84</title>
<g id="a_node25"><a xlink:href="base_8cpp.html" target="_top" xlink:title="src/index/base.cpp">
<polygon fill="#ffffff" stroke="#000000" points="2096.3843,-55.5 2096.3843,-73.5 2195.7632,-73.5 2195.7632,-55.5 2096.3843,-55.5"/>
<text text-anchor="middle" x="2146.0737" y="-61.5" font-family="Helvetica,sans-Serif" font-size="10.00" fill="#000000">src/index/base.cpp</text>
</a>
</g>
</g>
<!-- Node22&#45;&gt;Node84 -->
<g id="edge25" class="edge">
<title>Node22&#45;&gt;Node84</title>
<path fill="none" stroke="#191970" d="M2189.4216,-103.5841C2178.7007,-93.9177 2165.3882,-81.9147 2156.3655,-73.7795"/>
<polygon fill="#191970" stroke="#191970" points="2187.2302,-106.3209 2197.0008,-110.4179 2191.9177,-101.122 2187.2302,-106.3209"/>
</g>
<!-- Node86 -->
<g id="node26" class="node">
<title>Node86</title>
<g id="a_node26"><a xlink:href="txindex_8cpp.html" target="_top" xlink:title="src/index/txindex.cpp">
<polygon fill="#ffffff" stroke="#000000" points="2213.3843,-55.5 2213.3843,-73.5 2322.7632,-73.5 2322.7632,-55.5 2213.3843,-55.5"/>
<text text-anchor="middle" x="2268.0737" y="-61.5" font-family="Helvetica,sans-Serif" font-size="10.00" fill="#000000">src/index/txindex.cpp</text>
</a>
</g>
</g>
<!-- Node22&#45;&gt;Node86 -->
<g id="edge26" class="edge">
<title>Node22&#45;&gt;Node86</title>
<path fill="none" stroke="#191970" d="M2224.7259,-103.5841C2235.4468,-93.9177 2248.7593,-81.9147 2257.782,-73.7795"/>
<polygon fill="#191970" stroke="#191970" points="2222.2298,-101.122 2217.1466,-110.4179 2226.9173,-106.3209 2222.2298,-101.122"/>
</g>
<!-- Node96 -->
<g id="node27" class="node">
<title>Node96</title>
<g id="a_node27"><a xlink:href="init_8h.html" target="_top" xlink:title="src/init.h">
<polygon fill="#ffffff" stroke="#ff0000" points="334.458,-55.5 334.458,-73.5 387.6895,-73.5 387.6895,-55.5 334.458,-55.5"/>
<text text-anchor="middle" x="361.0737" y="-61.5" font-family="Helvetica,sans-Serif" font-size="10.00" fill="#000000">src/init.h</text>
</a>
</g>
</g>
<!-- Node22&#45;&gt;Node96 -->
<g id="edge28" class="edge">
<title>Node22&#45;&gt;Node96</title>
<path fill="none" stroke="#191970" d="M2170.0596,-110.0676C1766.2599,-55.1851 789.2265,-122.2595 402.0737,-74 397.4334,-73.4216 392.5507,-72.5386 387.8369,-71.5395"/>
<polygon fill="#191970" stroke="#191970" points="2169.6892,-113.5499 2180.0782,-111.4716 2170.6607,-106.6176 2169.6892,-113.5499"/>
</g>
<!-- Node28 -->
<g id="node28" class="node">
<title>Node28</title>
<g id="a_node28"><a xlink:href="node_8cpp.html" target="_top" xlink:title="src/interfaces/node.cpp">
<polygon fill="#ffffff" stroke="#000000" points="420.3794,-.5 420.3794,-18.5 539.7681,-18.5 539.7681,-.5 420.3794,-.5"/>
<text text-anchor="middle" x="480.0737" y="-6.5" font-family="Helvetica,sans-Serif" font-size="10.00" fill="#000000">src/interfaces/node.cpp</text>
</a>
</g>
</g>
<!-- Node22&#45;&gt;Node28 -->
<g id="edge33" class="edge">
<title>Node22&#45;&gt;Node28</title>
<path fill="none" stroke="#191970" d="M2169.9685,-110.7155C2021.8409,-103.4954 496.2041,-106.8147 464.0737,-74 449.3833,-58.9966 463.6677,-32.7258 473.1534,-18.7916"/>
<polygon fill="#191970" stroke="#191970" points="2169.8442,-114.2159 2180.0779,-111.4736 2170.3677,-107.2355 2169.8442,-114.2159"/>
</g>
<!-- Node48 -->
<g id="node29" class="node">
<title>Node48</title>
<g id="a_node29"><a xlink:href="utilitydialog_8cpp.html" target="_top" xlink:title="src/qt/utilitydialog.cpp">
<polygon fill="#ffffff" stroke="#000000" points="557.2734,-.5 557.2734,-18.5 668.874,-18.5 668.874,-.5 557.2734,-.5"/>
<text text-anchor="middle" x="613.0737" y="-6.5" font-family="Helvetica,sans-Serif" font-size="10.00" fill="#000000">src/qt/utilitydialog.cpp</text>
</a>
</g>
</g>
<!-- Node22&#45;&gt;Node48 -->
<g id="edge53" class="edge">
<title>Node22&#45;&gt;Node48</title>
<path fill="none" stroke="#191970" d="M2170.0178,-110.7183C2022.6327,-103.5153 505.0331,-106.6437 473.0737,-74 467.1662,-67.966 468.1105,-61.8319 473.0737,-55 484.3021,-39.5443 530.1614,-26.6231 566.3744,-18.5472"/>
<polygon fill="#191970" stroke="#191970" points="2169.8438,-114.215 2180.0779,-111.4739 2170.3681,-107.2346 2169.8438,-114.215"/>
</g>
<!-- Node98 -->
<g id="node30" class="node">
<title>Node98</title>
<g id="a_node30"><a xlink:href="keystore_8cpp.html" target="_top" xlink:title="src/keystore.cpp">
<polygon fill="#ffffff" stroke="#000000" points="2340.6724,-55.5 2340.6724,-73.5 2429.4751,-73.5 2429.4751,-55.5 2340.6724,-55.5"/>
<text text-anchor="middle" x="2385.0737" y="-61.5" font-family="Helvetica,sans-Serif" font-size="10.00" fill="#000000">src/keystore.cpp</text>
</a>
</g>
</g>
<!-- Node22&#45;&gt;Node98 -->
<g id="edge34" class="edge">
<title>Node22&#45;&gt;Node98</title>
<path fill="none" stroke="#191970" d="M2243.5033,-108.2437C2276.7122,-97.9825 2325.1418,-83.0183 2355.8722,-73.5229"/>
<polygon fill="#191970" stroke="#191970" points="2242.2432,-104.9697 2233.7221,-111.2659 2244.3097,-111.6577 2242.2432,-104.9697"/>
</g>
<!-- Node53 -->
<g id="node31" class="node">
<title>Node53</title>
<g id="a_node31"><a xlink:href="miner_8cpp.html" target="_top" xlink:title="src/miner.cpp">
<polygon fill="#ffffff" stroke="#000000" points="2447.3398,-55.5 2447.3398,-73.5 2522.8076,-73.5 2522.8076,-55.5 2447.3398,-55.5"/>
<text text-anchor="middle" x="2485.0737" y="-61.5" font-family="Helvetica,sans-Serif" font-size="10.00" fill="#000000">src/miner.cpp</text>
</a>
</g>
</g>
<!-- Node22&#45;&gt;Node53 -->
<g id="edge35" class="edge">
<title>Node22&#45;&gt;Node53</title>
<path fill="none" stroke="#191970" d="M2243.7585,-112.3325C2289.3315,-103.4149 2369.4624,-87.6912 2438.0737,-74 2441.0127,-73.4135 2444.0545,-72.8042 2447.1122,-72.1899"/>
<polygon fill="#191970" stroke="#191970" points="2242.9017,-108.9336 2233.7596,-114.2883 2244.2456,-115.8035 2242.9017,-108.9336"/>
</g>
<!-- Node99 -->
<g id="node32" class="node">
<title>Node99</title>
<g id="a_node32"><a xlink:href="netbase_8cpp.html" target="_top" xlink:title="src/netbase.cpp">
<polygon fill="#ffffff" stroke="#000000" points="2540.7759,-55.5 2540.7759,-73.5 2627.3716,-73.5 2627.3716,-55.5 2540.7759,-55.5"/>
<text text-anchor="middle" x="2584.0737" y="-61.5" font-family="Helvetica,sans-Serif" font-size="10.00" fill="#000000">src/netbase.cpp</text>
</a>
</g>
</g>
<!-- Node22&#45;&gt;Node99 -->
<g id="edge37" class="edge">
<title>Node22&#45;&gt;Node99</title>
<path fill="none" stroke="#191970" d="M2244.2913,-114.8016C2304.7646,-107.0523 2428.0737,-90.7726 2532.0737,-74 2534.8824,-73.547 2537.7733,-73.0645 2540.6854,-72.5661"/>
<polygon fill="#191970" stroke="#191970" points="2243.572,-111.3649 2234.0959,-116.1034 2244.4587,-118.3085 2243.572,-111.3649"/>
</g>
<!-- Node100 -->
<g id="node33" class="node">
<title>Node100</title>
<g id="a_node33"><a xlink:href="noui_8cpp.html" target="_top" xlink:title="src/noui.cpp">
<polygon fill="#ffffff" stroke="#000000" points="2645.1157,-55.5 2645.1157,-73.5 2715.0317,-73.5 2715.0317,-55.5 2645.1157,-55.5"/>
<text text-anchor="middle" x="2680.0737" y="-61.5" font-family="Helvetica,sans-Serif" font-size="10.00" fill="#000000">src/noui.cpp</text>
</a>
</g>
</g>
<!-- Node22&#45;&gt;Node100 -->
<g id="edge38" class="edge">
<title>Node22&#45;&gt;Node100</title>
<path fill="none" stroke="#191970" d="M2244.0748,-116.9163C2318.5924,-111.4179 2491.9342,-97.1362 2636.0737,-74 2639.0059,-73.5294 2642.037,-72.9891 2645.0732,-72.4103"/>
<polygon fill="#191970" stroke="#191970" points="2243.532,-113.4465 2233.8127,-117.6638 2244.0406,-120.428 2243.532,-113.4465"/>
</g>
<!-- Node101 -->
<g id="node34" class="node">
<title>Node101</title>
<g id="a_node34"><a xlink:href="policy_2fees_8cpp.html" target="_top" xlink:title="src/policy/fees.cpp">
<polygon fill="#ffffff" stroke="#000000" points="2732.9458,-55.5 2732.9458,-73.5 2831.2017,-73.5 2831.2017,-55.5 2732.9458,-55.5"/>
<text text-anchor="middle" x="2782.0737" y="-61.5" font-family="Helvetica,sans-Serif" font-size="10.00" fill="#000000">src/policy/fees.cpp</text>
</a>
</g>
</g>
<!-- Node22&#45;&gt;Node101 -->
<g id="edge39" class="edge">
<title>Node22&#45;&gt;Node101</title>
<path fill="none" stroke="#191970" d="M2243.9488,-117.203C2328.8615,-111.7066 2544.6768,-96.5543 2724.0737,-74 2726.9084,-73.6436 2729.8169,-73.2515 2732.7491,-72.8358"/>
<polygon fill="#191970" stroke="#191970" points="2243.5405,-113.7219 2233.7851,-117.8551 2243.9887,-120.7075 2243.5405,-113.7219"/>
</g>
<!-- Node102 -->
<g id="node35" class="node">
<title>Node102</title>
<g id="a_node35"><a xlink:href="policy_8cpp.html" target="_top" xlink:title="src/policy/policy.cpp">
<polygon fill="#ffffff" stroke="#000000" points="2848.9819,-55.5 2848.9819,-73.5 2953.1655,-73.5 2953.1655,-55.5 2848.9819,-55.5"/>
<text text-anchor="middle" x="2901.0737" y="-61.5" font-family="Helvetica,sans-Serif" font-size="10.00" fill="#000000">src/policy/policy.cpp</text>
</a>
</g>
</g>
<!-- Node22&#45;&gt;Node102 -->
<g id="edge40" class="edge">
<title>Node22&#45;&gt;Node102</title>
<path fill="none" stroke="#191970" d="M2244.2359,-117.9048C2342.0287,-113.4742 2614.5259,-99.6249 2840.0737,-74 2842.9491,-73.6733 2845.8964,-73.3099 2848.8687,-72.9211"/>
<polygon fill="#191970" stroke="#191970" points="2243.8197,-114.4198 2233.9862,-118.3635 2244.1327,-121.4128 2243.8197,-114.4198"/>
</g>
<!-- Node103 -->
<g id="node36" class="node">
<title>Node103</title>
<g id="a_node36"><a xlink:href="protocol_8cpp.html" target="_top" xlink:title="src/protocol.cpp">
<polygon fill="#ffffff" stroke="#000000" points="2970.7808,-55.5 2970.7808,-73.5 3057.3667,-73.5 3057.3667,-55.5 2970.7808,-55.5"/>
<text text-anchor="middle" x="3014.0737" y="-61.5" font-family="Helvetica,sans-Serif" font-size="10.00" fill="#000000">src/protocol.cpp</text>
</a>
</g>
</g>
<!-- Node22&#45;&gt;Node103 -->
<g id="edge41" class="edge">
<title>Node22&#45;&gt;Node103</title>
<path fill="none" stroke="#191970" d="M2244.1548,-118.8462C2354.0864,-116.5688 2687.672,-107.2113 2962.0737,-74 2964.8981,-73.6582 2967.8009,-73.2598 2970.7218,-72.8237"/>
<polygon fill="#191970" stroke="#191970" points="2243.8551,-115.3514 2233.9271,-119.0508 2243.9952,-122.35 2243.8551,-115.3514"/>
</g>
<!-- Node32 -->
<g id="node37" class="node">
<title>Node32</title>
<g id="a_node37"><a xlink:href="bitcoin_8cpp.html" target="_top" xlink:title="src/qt/bitcoin.cpp">
<polygon fill="#ffffff" stroke="#000000" points="3075.5566,-55.5 3075.5566,-73.5 3166.5908,-73.5 3166.5908,-55.5 3075.5566,-55.5"/>
<text text-anchor="middle" x="3121.0737" y="-61.5" font-family="Helvetica,sans-Serif" font-size="10.00" fill="#000000">src/qt/bitcoin.cpp</text>
</a>
</g>
</g>
<!-- Node22&#45;&gt;Node32 -->
<g id="edge42" class="edge">
<title>Node22&#45;&gt;Node32</title>
<path fill="none" stroke="#191970" d="M2243.9484,-119.1015C2363.2131,-117.4807 2749.1465,-109.6384 3066.0737,-74 3069.1551,-73.6535 3072.3255,-73.2452 3075.5146,-72.7959"/>
<polygon fill="#191970" stroke="#191970" points="2243.8415,-115.6025 2233.8878,-119.2318 2243.9323,-122.6019 2243.8415,-115.6025"/>
</g>
<!-- Node33 -->
<g id="node38" class="node">
<title>Node33</title>
<g id="a_node38"><a xlink:href="bitcoingui_8cpp.html" target="_top" xlink:title="src/qt/bitcoingui.cpp">
<polygon fill="#ffffff" stroke="#000000" points="3184.8843,-55.5 3184.8843,-73.5 3289.2632,-73.5 3289.2632,-55.5 3184.8843,-55.5"/>
<text text-anchor="middle" x="3237.0737" y="-61.5" font-family="Helvetica,sans-Serif" font-size="10.00" fill="#000000">src/qt/bitcoingui.cpp</text>
</a>
</g>
</g>
<!-- Node22&#45;&gt;Node33 -->
<g id="edge43" class="edge">
<title>Node22&#45;&gt;Node33</title>
<path fill="none" stroke="#191970" d="M2243.8348,-119.1966C2372.4193,-117.8329 2813.8519,-110.6028 3176.0737,-74 3178.9529,-73.7091 3181.9033,-73.3738 3184.8779,-73.0068"/>
<polygon fill="#191970" stroke="#191970" points="2243.705,-115.6977 2233.7407,-119.2983 2243.7755,-122.6973 2243.705,-115.6977"/>
</g>
<!-- Node34 -->
<g id="node39" class="node">
<title>Node34</title>
<g id="a_node39"><a xlink:href="clientmodel_8cpp.html" target="_top" xlink:title="src/qt/clientmodel.cpp">
<polygon fill="#ffffff" stroke="#000000" points="3307.7192,-55.5 3307.7192,-73.5 3420.4282,-73.5 3420.4282,-55.5 3307.7192,-55.5"/>
<text text-anchor="middle" x="3364.0737" y="-61.5" font-family="Helvetica,sans-Serif" font-size="10.00" fill="#000000">src/qt/clientmodel.cpp</text>
</a>
</g>
</g>
<!-- Node22&#45;&gt;Node34 -->
<g id="edge44" class="edge">
<title>Node22&#45;&gt;Node34</title>
<path fill="none" stroke="#191970" d="M2243.7884,-119.316C2382.1969,-118.3367 2885.5116,-112.1959 3298.0737,-74 3301.1861,-73.7119 3304.376,-73.3788 3307.5927,-73.0136"/>
<polygon fill="#191970" stroke="#191970" points="2243.6986,-115.8164 2233.722,-119.3825 2243.7449,-122.8162 2243.6986,-115.8164"/>
</g>
<!-- Node36 -->
<g id="node40" class="node">
<title>Node36</title>
<g id="a_node40"><a xlink:href="guiutil_8cpp.html" target="_top" xlink:title="src/qt/guiutil.cpp">
<polygon fill="#ffffff" stroke="#000000" points="3437.9458,-55.5 3437.9458,-73.5 3526.2017,-73.5 3526.2017,-55.5 3437.9458,-55.5"/>
<text text-anchor="middle" x="3482.0737" y="-61.5" font-family="Helvetica,sans-Serif" font-size="10.00" fill="#000000">src/qt/guiutil.cpp</text>
</a>
</g>
</g>
<!-- Node22&#45;&gt;Node36 -->
<g id="edge45" class="edge">
<title>Node22&#45;&gt;Node36</title>
<path fill="none" stroke="#191970" d="M2243.9284,-118.8252C2421.5752,-115.4657 3190.6752,-99.6762 3429.0737,-74 3431.955,-73.6897 3434.9156,-73.3152 3437.8941,-72.8967"/>
<polygon fill="#191970" stroke="#191970" points="2243.7238,-115.3283 2233.7913,-119.0155 2243.8552,-122.3271 2243.7238,-115.3283"/>
</g>
<!-- Node37 -->
<g id="node41" class="node">
<title>Node37</title>
<g id="a_node41"><a xlink:href="intro_8cpp.html" target="_top" xlink:title="src/qt/intro.cpp">
<polygon fill="#ffffff" stroke="#000000" points="3544.2832,-55.5 3544.2832,-73.5 3625.8643,-73.5 3625.8643,-55.5 3544.2832,-55.5"/>
<text text-anchor="middle" x="3585.0737" y="-61.5" font-family="Helvetica,sans-Serif" font-size="10.00" fill="#000000">src/qt/intro.cpp</text>
</a>
</g>
</g>
<!-- Node22&#45;&gt;Node37 -->
<g id="edge46" class="edge">
<title>Node22&#45;&gt;Node37</title>
<path fill="none" stroke="#191970" d="M2244.0932,-119.0005C2431.2703,-116.3576 3274.7462,-103.017 3535.0737,-74 3538.0594,-73.6672 3541.134,-73.2552 3544.2212,-72.791"/>
<polygon fill="#191970" stroke="#191970" points="2243.8935,-115.5028 2233.9435,-119.1423 2243.9914,-122.5021 2243.8935,-115.5028"/>
</g>
<!-- Node104 -->
<g id="node42" class="node">
<title>Node104</title>
<g id="a_node42"><a xlink:href="paymentrequestplus_8cpp.html" target="_top" xlink:title="src/qt/paymentrequestplus.cpp">
<polygon fill="#ffffff" stroke="#000000" points="3643.9829,-55.5 3643.9829,-73.5 3796.1646,-73.5 3796.1646,-55.5 3643.9829,-55.5"/>
<text text-anchor="middle" x="3720.0737" y="-61.5" font-family="Helvetica,sans-Serif" font-size="10.00" fill="#000000">src/qt/paymentrequestplus.cpp</text>
</a>
</g>
</g>
<!-- Node22&#45;&gt;Node104 -->
<g id="edge47" class="edge">
<title>Node22&#45;&gt;Node104</title>
<path fill="none" stroke="#191970" d="M2243.8762,-119.4018C2407.168,-118.7401 3082.4988,-113.6195 3635.0737,-74 3637.8878,-73.7982 3640.7523,-73.5741 3643.6444,-73.332"/>
<polygon fill="#191970" stroke="#191970" points="2243.8545,-115.9018 2233.8677,-119.4393 2243.8807,-122.9017 2243.8545,-115.9018"/>
</g>
<!-- Node40 -->
<g id="node43" class="node">
<title>Node40</title>
<g id="a_node43"><a xlink:href="paymentserver_8cpp.html" target="_top" xlink:title="src/qt/paymentserver.cpp">
<polygon fill="#ffffff" stroke="#000000" points="3814.2144,-55.5 3814.2144,-73.5 3941.9331,-73.5 3941.9331,-55.5 3814.2144,-55.5"/>
<text text-anchor="middle" x="3878.0737" y="-61.5" font-family="Helvetica,sans-Serif" font-size="10.00" fill="#000000">src/qt/paymentserver.cpp</text>
</a>
</g>
</g>
<!-- Node22&#45;&gt;Node40 -->
<g id="edge48" class="edge">
<title>Node22&#45;&gt;Node40</title>
<path fill="none" stroke="#191970" d="M2243.9937,-118.9562C2452.7586,-115.804 3487.2318,-99.1419 3805.0737,-74 3808.0041,-73.7682 3810.9971,-73.5014 3814.018,-73.2077"/>
<polygon fill="#191970" stroke="#191970" points="2243.8076,-115.4585 2233.8613,-119.1083 2243.9128,-122.4577 2243.8076,-115.4585"/>
</g>
<!-- Node42 -->
<g id="node44" class="node">
<title>Node42</title>
<g id="a_node44"><a xlink:href="rpcconsole_8cpp.html" target="_top" xlink:title="src/qt/rpcconsole.cpp">
<polygon fill="#ffffff" stroke="#000000" points="3959.8301,-55.5 3959.8301,-73.5 4070.3174,-73.5 4070.3174,-55.5 3959.8301,-55.5"/>
<text text-anchor="middle" x="4015.0737" y="-61.5" font-family="Helvetica,sans-Serif" font-size="10.00" fill="#000000">src/qt/rpcconsole.cpp</text>
</a>
</g>
</g>
<!-- Node22&#45;&gt;Node42 -->
<g id="edge49" class="edge">
<title>Node22&#45;&gt;Node42</title>
<path fill="none" stroke="#191970" d="M2243.8433,-119.1489C2463.3193,-116.9616 3602.6102,-104.2956 3951.0737,-74 3953.8714,-73.7568 3956.733,-73.4704 3959.6193,-73.1518"/>
<polygon fill="#191970" stroke="#191970" points="2243.7727,-115.6494 2233.8078,-119.248 2243.8419,-122.649 2243.7727,-115.6494"/>
</g>
<!-- Node44 -->
<g id="node45" class="node">
<title>Node44</title>
<g id="a_node45"><a xlink:href="splashscreen_8cpp.html" target="_top" xlink:title="src/qt/splashscreen.cpp">
<polygon fill="#ffffff" stroke="#000000" points="4088.5493,-55.5 4088.5493,-73.5 4209.5981,-73.5 4209.5981,-55.5 4088.5493,-55.5"/>
<text text-anchor="middle" x="4149.0737" y="-61.5" font-family="Helvetica,sans-Serif" font-size="10.00" fill="#000000">src/qt/splashscreen.cpp</text>
</a>
</g>
</g>
<!-- Node22&#45;&gt;Node44 -->
<g id="edge50" class="edge">
<title>Node22&#45;&gt;Node44</title>
<path fill="none" stroke="#191970" d="M2243.9671,-119.1608C2473.044,-116.9706 3703.4475,-103.9614 4079.0737,-74 4082.1301,-73.7562 4085.257,-73.4694 4088.4117,-73.1504"/>
<polygon fill="#191970" stroke="#191970" points="2243.7893,-115.6622 2233.823,-119.257 2243.8558,-122.6619 2243.7893,-115.6622"/>
</g>
<!-- Node46 -->
<g id="node46" class="node">
<title>Node46</title>
<g id="a_node46"><a xlink:href="transactiondesc_8cpp.html" target="_top" xlink:title="src/qt/transactiondesc.cpp">
<polygon fill="#ffffff" stroke="#000000" points="4227.9902,-55.5 4227.9902,-73.5 4360.1572,-73.5 4360.1572,-55.5 4227.9902,-55.5"/>
<text text-anchor="middle" x="4294.0737" y="-61.5" font-family="Helvetica,sans-Serif" font-size="10.00" fill="#000000">src/qt/transactiondesc.cpp</text>
</a>
</g>
</g>
<!-- Node22&#45;&gt;Node46 -->
<g id="edge51" class="edge">
<title>Node22&#45;&gt;Node46</title>
<path fill="none" stroke="#191970" d="M2244.0466,-119.1871C2483.1561,-117.0849 3813.7199,-104.1746 4219.0737,-74 4221.9532,-73.7856 4224.8917,-73.538 4227.8578,-73.2643"/>
<polygon fill="#191970" stroke="#191970" points="2243.7715,-115.6893 2233.8025,-119.2764 2243.8326,-122.689 2243.7715,-115.6893"/>
</g>
<!-- Node47 -->
<g id="node47" class="node">
<title>Node47</title>
<g id="a_node47"><a xlink:href="transactiontablemodel_8cpp.html" target="_top" xlink:title="src/qt/transactiontablemodel.cpp">
<polygon fill="#ffffff" stroke="#000000" points="4378.0913,-55.5 4378.0913,-73.5 4538.0562,-73.5 4538.0562,-55.5 4378.0913,-55.5"/>
<text text-anchor="middle" x="4458.0737" y="-61.5" font-family="Helvetica,sans-Serif" font-size="10.00" fill="#000000">src/qt/transactiontablemodel.cpp</text>
</a>
</g>
</g>
<!-- Node22&#45;&gt;Node47 -->
<g id="edge52" class="edge">
<title>Node22&#45;&gt;Node47</title>
<path fill="none" stroke="#191970" d="M2244.0131,-119.1547C2493.1717,-116.7609 3931.5945,-101.901 4369.0737,-74 4372.0202,-73.8121 4375.0195,-73.5997 4378.0477,-73.3676"/>
<polygon fill="#191970" stroke="#191970" points="2243.6627,-115.6578 2233.6967,-119.2532 2243.7296,-122.6575 2243.6627,-115.6578"/>
</g>
<!-- Node49 -->
<g id="node48" class="node">
<title>Node49</title>
<g id="a_node48"><a xlink:href="walletmodel_8cpp.html" target="_top" xlink:title="src/qt/walletmodel.cpp">
<polygon fill="#ffffff" stroke="#000000" points="4555.6084,-55.5 4555.6084,-73.5 4670.5391,-73.5 4670.5391,-55.5 4555.6084,-55.5"/>
<text text-anchor="middle" x="4613.0737" y="-61.5" font-family="Helvetica,sans-Serif" font-size="10.00" fill="#000000">src/qt/walletmodel.cpp</text>
</a>
</g>
</g>
<!-- Node22&#45;&gt;Node49 -->
<g id="edge54" class="edge">
<title>Node22&#45;&gt;Node49</title>
<path fill="none" stroke="#191970" d="M2243.7699,-119.4088C2503.8625,-118.6691 4072.2263,-112.6425 4547.0737,-74 4549.8429,-73.7746 4552.673,-73.5081 4555.5281,-73.2099"/>
<polygon fill="#191970" stroke="#191970" points="2243.7049,-115.9089 2233.7147,-119.4366 2243.7243,-122.9088 2243.7049,-115.9089"/>
</g>
<!-- Node105 -->
<g id="node49" class="node">
<title>Node105</title>
<g id="a_node49"><a xlink:href="descriptor_8cpp.html" target="_top" xlink:title="src/script/descriptor.cpp">
<polygon fill="#ffffff" stroke="#000000" points="4688.5542,-55.5 4688.5542,-73.5 4809.5933,-73.5 4809.5933,-55.5 4688.5542,-55.5"/>
<text text-anchor="middle" x="4749.0737" y="-61.5" font-family="Helvetica,sans-Serif" font-size="10.00" fill="#000000">src/script/descriptor.cpp</text>
</a>
</g>
</g>
<!-- Node22&#45;&gt;Node105 -->
<g id="edge55" class="edge">
<title>Node22&#45;&gt;Node105</title>
<path fill="none" stroke="#191970" d="M2244.1213,-119.4113C2513.6025,-118.677 4176.2139,-112.6184 4679.0737,-74 4682.1308,-73.7652 4685.2583,-73.4857 4688.4134,-73.1724"/>
<polygon fill="#191970" stroke="#191970" points="2243.7156,-115.9122 2233.725,-119.4388 2243.7342,-122.9122 2243.7156,-115.9122"/>
</g>
<!-- Node106 -->
<g id="node50" class="node">
<title>Node106</title>
<g id="a_node50"><a xlink:href="sigcache_8cpp.html" target="_top" xlink:title="src/script/sigcache.cpp">
<polygon fill="#ffffff" stroke="#000000" points="4827.5,-55.5 4827.5,-73.5 4944.6475,-73.5 4944.6475,-55.5 4827.5,-55.5"/>
<text text-anchor="middle" x="4886.0737" y="-61.5" font-family="Helvetica,sans-Serif" font-size="10.00" fill="#000000">src/script/sigcache.cpp</text>
</a>
</g>
</g>
<!-- Node22&#45;&gt;Node106 -->
<g id="edge56" class="edge">
<title>Node22&#45;&gt;Node106</title>
<path fill="none" stroke="#191970" d="M2244.342,-119.1296C2543.6367,-116.1189 4551.3913,-95.2274 4819.0737,-74 4821.7674,-73.7864 4824.5178,-73.5345 4827.2931,-73.2529"/>
<polygon fill="#191970" stroke="#191970" points="2243.9997,-115.6328 2234.0353,-119.233 2244.07,-122.6325 2243.9997,-115.6328"/>
</g>
<!-- Node24&#45;&gt;Node23 -->
<g id="edge8" class="edge">
<title>Node24&#45;&gt;Node23</title>
<path fill="none" stroke="#191970" d="M131.2809,-51.1924C109.4309,-41.0937 79.9703,-27.4774 60.7534,-18.5956"/>
<polygon fill="#191970" stroke="#191970" points="129.8775,-54.3995 140.4233,-55.4179 132.8143,-48.0453 129.8775,-54.3995"/>
</g>
<!-- Node24&#45;&gt;Node26 -->
<g id="edge9" class="edge">
<title>Node24&#45;&gt;Node26</title>
<path fill="none" stroke="#191970" d="M187.0091,-50.7829C206.753,-40.7282 233.0073,-27.3579 250.2132,-18.5956"/>
<polygon fill="#191970" stroke="#191970" points="185.2304,-47.7609 177.9077,-55.4179 188.4071,-53.9987 185.2304,-47.7609"/>
</g>
<!-- Node24&#45;&gt;Node56 -->
<g id="edge10" class="edge">
<title>Node24&#45;&gt;Node56</title>
<path fill="none" stroke="#191970" d="M159.7261,-45.383C159.5623,-36.3738 159.3744,-26.0373 159.2424,-18.7795"/>
<polygon fill="#191970" stroke="#191970" points="156.2273,-45.4832 159.9086,-55.4179 163.2261,-45.3559 156.2273,-45.4832"/>
</g>
<!-- Node96&#45;&gt;Node26 -->
<g id="edge30" class="edge">
<title>Node96&#45;&gt;Node26</title>
<path fill="none" stroke="#191970" d="M336.9466,-50.2313C320.0582,-40.2435 298.0005,-27.1986 283.4536,-18.5956"/>
<polygon fill="#191970" stroke="#191970" points="335.3276,-53.34 345.7167,-55.4179 338.8909,-47.3148 335.3276,-53.34"/>
</g>
<!-- Node96&#45;&gt;Node76 -->
<g id="edge29" class="edge">
<title>Node96&#45;&gt;Node76</title>
<path fill="none" stroke="#191970" d="M360.7261,-45.383C360.5623,-36.3738 360.3744,-26.0373 360.2424,-18.7795"/>
<polygon fill="#191970" stroke="#191970" points="357.2273,-45.4832 360.9086,-55.4179 364.2261,-45.3559 357.2273,-45.4832"/>
</g>
<!-- Node96&#45;&gt;Node28 -->
<g id="edge31" class="edge">
<title>Node96&#45;&gt;Node28</title>
<path fill="none" stroke="#191970" d="M389.8665,-51.1924C411.7166,-41.0937 441.1772,-27.4774 460.3941,-18.5956"/>
<polygon fill="#191970" stroke="#191970" points="388.3331,-48.0453 380.7242,-55.4179 391.2699,-54.3995 388.3331,-48.0453"/>
</g>
<!-- Node96&#45;&gt;Node48 -->
<g id="edge32" class="edge">
<title>Node96&#45;&gt;Node48</title>
<path fill="none" stroke="#191970" d="M397.9555,-56.4504C444.2572,-46.3449 523.4546,-29.0597 571.752,-18.5186"/>
<polygon fill="#191970" stroke="#191970" points="397.0658,-53.0621 388.0421,-58.614 398.5585,-59.9011 397.0658,-53.0621"/>
</g>
</g>
</svg>
