<?xml version="1.0" encoding="UTF-8" standalone="no"?>
<!DOCTYPE svg PUBLIC "-//W3C//DTD SVG 1.1//EN"
 "http://www.w3.org/Graphics/SVG/1.1/DTD/svg11.dtd">
<!-- Generated by graphviz version 2.40.1 (20161225.0304)
 -->
<!-- Title: src/miner.cpp Pages: 1 -->
<svg width="3669pt" height="477pt"
 viewBox="0.00 0.00 3668.53 477.00" xmlns="http://www.w3.org/2000/svg" xmlns:xlink="http://www.w3.org/1999/xlink">
<g id="graph0" class="graph" transform="scale(1 1) rotate(0) translate(4 473)">
<title>src/miner.cpp</title>
<polygon fill="#ffffff" stroke="transparent" points="-4,4 -4,-473 3664.5293,-473 3664.5293,4 -4,4"/>
<!-- Node0 -->
<g id="node1" class="node">
<title>Node0</title>
<polygon fill="#bfbfbf" stroke="#000000" points="2469.2661,-450.5 2469.2661,-468.5 2544.7339,-468.5 2544.7339,-450.5 2469.2661,-450.5"/>
<text text-anchor="middle" x="2507" y="-456.5" font-family="Helvetica,sans-Serif" font-size="10.00" fill="#000000">src/miner.cpp</text>
</g>
<!-- Node1 -->
<g id="node2" class="node">
<title>Node1</title>
<g id="a_node2"><a xlink:href="miner_8h.html" target="_top" xlink:title="miner.h">
<polygon fill="#ffffff" stroke="#000000" points="608.6011,-395.5 608.6011,-413.5 657.3989,-413.5 657.3989,-395.5 608.6011,-395.5"/>
<text text-anchor="middle" x="633" y="-401.5" font-family="Helvetica,sans-Serif" font-size="10.00" fill="#000000">miner.h</text>
</a>
</g>
</g>
<!-- Node0&#45;&gt;Node1 -->
<g id="edge1" class="edge">
<title>Node0&#45;&gt;Node1</title>
<path fill="none" stroke="#191970" d="M2469.0021,-458.9844C2223.0452,-455.5901 860.6213,-435.9084 677,-414 673.9179,-413.6323 670.733,-413.15 667.5514,-412.5975"/>
<polygon fill="#191970" stroke="#191970" points="668.0144,-409.122 657.5301,-410.6481 666.6777,-415.9932 668.0144,-409.122"/>
</g>
<!-- Node3 -->
<g id="node4" class="node">
<title>Node3</title>
<g id="a_node4"><a xlink:href="transaction_8h.html" target="_top" xlink:title="primitives/transaction.h">
<polygon fill="#ffffff" stroke="#ff0000" points="1866.8696,-110.5 1866.8696,-128.5 1985.1304,-128.5 1985.1304,-110.5 1866.8696,-110.5"/>
<text text-anchor="middle" x="1926" y="-116.5" font-family="Helvetica,sans-Serif" font-size="10.00" fill="#000000">primitives/transaction.h</text>
</a>
</g>
</g>
<!-- Node0&#45;&gt;Node3 -->
<g id="edge147" class="edge">
<title>Node0&#45;&gt;Node3</title>
<path fill="none" stroke="#191970" d="M2497.6017,-450.4655C2454.6936,-409.7823 2271.5869,-242.2228 2088,-165 2052.8889,-150.2311 2011.5185,-138.7032 1979.3733,-130.9461"/>
<polygon fill="#191970" stroke="#191970" points="1979.8172,-127.4547 1969.2803,-128.5608 1978.2071,-134.267 1979.8172,-127.4547"/>
</g>
<!-- Node5 -->
<g id="node6" class="node">
<title>Node5</title>
<g id="a_node6"><a xlink:href="amount_8h.html" target="_top" xlink:title="amount.h">
<polygon fill="#ffffff" stroke="#000000" points="2695.1528,-55.5 2695.1528,-73.5 2752.8472,-73.5 2752.8472,-55.5 2695.1528,-55.5"/>
<text text-anchor="middle" x="2724" y="-61.5" font-family="Helvetica,sans-Serif" font-size="10.00" fill="#000000">amount.h</text>
</a>
</g>
</g>
<!-- Node0&#45;&gt;Node5 -->
<g id="edge82" class="edge">
<title>Node0&#45;&gt;Node5</title>
<path fill="none" stroke="#191970" d="M2544.7488,-458.8256C2657.3329,-455.8033 2983,-439.2998 2983,-349.5 2983,-349.5 2983,-349.5 2983,-229.5 2983,-181.8572 2845.5788,-134.964 2805,-110 2786.8554,-98.8375 2765.8726,-87.0818 2749.81,-78.3162"/>
<polygon fill="#191970" stroke="#191970" points="2751.439,-75.2181 2740.9798,-73.5278 2748.1021,-81.3716 2751.439,-75.2181"/>
</g>
<!-- Node33 -->
<g id="node8" class="node">
<title>Node33</title>
<polygon fill="#ffffff" stroke="#bfbfbf" points="3245.436,-.5 3245.436,-18.5 3302.564,-18.5 3302.564,-.5 3245.436,-.5"/>
<text text-anchor="middle" x="3274" y="-6.5" font-family="Helvetica,sans-Serif" font-size="10.00" fill="#000000">algorithm</text>
</g>
<!-- Node0&#45;&gt;Node33 -->
<g id="edge178" class="edge">
<title>Node0&#45;&gt;Node33</title>
<path fill="none" stroke="#191970" d="M2544.8653,-459.2661C2686.3434,-458.1073 3183.6528,-451.404 3337,-414 3404.7356,-397.4781 3480,-419.2215 3480,-349.5 3480,-349.5 3480,-349.5 3480,-119.5 3480,-44.5361 3372.5383,-20.4765 3312.8453,-12.8946"/>
<polygon fill="#191970" stroke="#191970" points="3312.9827,-9.3868 3302.6434,-11.6996 3312.1683,-16.3393 3312.9827,-9.3868"/>
</g>
<!-- Node40 -->
<g id="node12" class="node">
<title>Node40</title>
<polygon fill="#ffffff" stroke="#bfbfbf" points="383.6084,-.5 383.6084,-18.5 422.3916,-18.5 422.3916,-.5 383.6084,-.5"/>
<text text-anchor="middle" x="403" y="-6.5" font-family="Helvetica,sans-Serif" font-size="10.00" fill="#000000">utility</text>
</g>
<!-- Node0&#45;&gt;Node40 -->
<g id="edge180" class="edge">
<title>Node0&#45;&gt;Node40</title>
<path fill="none" stroke="#191970" d="M2469.2147,-459.0284C2235.3704,-456.0447 982.9218,-439.1065 600,-414 466.1858,-405.2264 0,-483.6015 0,-349.5 0,-349.5 0,-349.5 0,-119.5 0,-42.0635 280.4165,-17.2753 373.4252,-11.1833"/>
<polygon fill="#191970" stroke="#191970" points="373.802,-14.6666 383.5625,-10.5455 373.3624,-7.6805 373.802,-14.6666"/>
</g>
<!-- Node48 -->
<g id="node16" class="node">
<title>Node48</title>
<g id="a_node16"><a xlink:href="coins_8h.html" target="_top" xlink:title="coins.h">
<polygon fill="#ffffff" stroke="#000000" points="1025.1577,-280.5 1025.1577,-298.5 1072.8423,-298.5 1072.8423,-280.5 1025.1577,-280.5"/>
<text text-anchor="middle" x="1049" y="-286.5" font-family="Helvetica,sans-Serif" font-size="10.00" fill="#000000">coins.h</text>
</a>
</g>
</g>
<!-- Node0&#45;&gt;Node48 -->
<g id="edge107" class="edge">
<title>Node0&#45;&gt;Node48</title>
<path fill="none" stroke="#191970" d="M2469.0563,-458.9522C2319.1492,-456.2405 1754.0781,-440.8443 1298,-359 1219.5978,-344.9305 1130.2279,-316.9655 1082.7796,-301.1339"/>
<polygon fill="#191970" stroke="#191970" points="1083.627,-297.7263 1073.033,-297.8552 1081.3951,-304.361 1083.627,-297.7263"/>
</g>
<!-- Node55 -->
<g id="node22" class="node">
<title>Node55</title>
<g id="a_node22"><a xlink:href="_hash_8h.html" target="_top" xlink:title="hash.h">
<polygon fill="#ffffff" stroke="#ff0000" points="1268.9878,-110.5 1268.9878,-128.5 1315.0122,-128.5 1315.0122,-110.5 1268.9878,-110.5"/>
<text text-anchor="middle" x="1292" y="-116.5" font-family="Helvetica,sans-Serif" font-size="10.00" fill="#000000">hash.h</text>
</a>
</g>
</g>
<!-- Node0&#45;&gt;Node55 -->
<g id="edge127" class="edge">
<title>Node0&#45;&gt;Node55</title>
<path fill="none" stroke="#191970" d="M2469.087,-459.0127C2222.7131,-455.6047 859,-432.9705 859,-349.5 859,-349.5 859,-349.5 859,-229.5 859,-147.0986 1157.295,-125.7045 1258.7142,-120.8119"/>
<polygon fill="#191970" stroke="#191970" points="1258.8911,-124.3076 1268.72,-120.3525 1258.57,-117.3149 1258.8911,-124.3076"/>
</g>
<!-- Node65 -->
<g id="node25" class="node">
<title>Node65</title>
<g id="a_node25"><a xlink:href="feerate_8h.html" target="_top" xlink:title="policy/feerate.h">
<polygon fill="#ffffff" stroke="#000000" points="2193.0913,-110.5 2193.0913,-128.5 2276.9087,-128.5 2276.9087,-110.5 2193.0913,-110.5"/>
<text text-anchor="middle" x="2235" y="-116.5" font-family="Helvetica,sans-Serif" font-size="10.00" fill="#000000">policy/feerate.h</text>
</a>
</g>
</g>
<!-- Node0&#45;&gt;Node65 -->
<g id="edge136" class="edge">
<title>Node0&#45;&gt;Node65</title>
<path fill="none" stroke="#191970" d="M2504.6505,-450.3706C2493.9796,-410.6543 2446.3775,-251.0564 2350,-165 2332.2225,-149.1263 2308.2411,-138.4639 2286.7778,-131.478"/>
<polygon fill="#191970" stroke="#191970" points="2287.7115,-128.1035 2277.1249,-128.5214 2285.6614,-134.7966 2287.7115,-128.1035"/>
</g>
<!-- Node88 -->
<g id="node30" class="node">
<title>Node88</title>
<g id="a_node30"><a xlink:href="chain_8h.html" target="_top" xlink:title="chain.h">
<polygon fill="#ffffff" stroke="#000000" points="1898.877,-220.5 1898.877,-238.5 1947.123,-238.5 1947.123,-220.5 1898.877,-220.5"/>
<text text-anchor="middle" x="1923" y="-226.5" font-family="Helvetica,sans-Serif" font-size="10.00" fill="#000000">chain.h</text>
</a>
</g>
</g>
<!-- Node0&#45;&gt;Node88 -->
<g id="edge83" class="edge">
<title>Node0&#45;&gt;Node88</title>
<path fill="none" stroke="#191970" d="M2469.2215,-455.0067C2414.1888,-447.922 2315.2364,-432.9871 2285,-414 2219.2053,-372.684 2245.3314,-315.4487 2179,-275 2142.2789,-252.6076 2018.3799,-238.3407 1957.4348,-232.5099"/>
<polygon fill="#191970" stroke="#191970" points="1957.4527,-228.9964 1947.1705,-231.5509 1956.8015,-235.9661 1957.4527,-228.9964"/>
</g>
<!-- Node96 -->
<g id="node34" class="node">
<title>Node96</title>
<g id="a_node34"><a xlink:href="chainparams_8h.html" target="_top" xlink:title="chainparams.h">
<polygon fill="#ffffff" stroke="#000000" points="704.2046,-220.5 704.2046,-238.5 785.7954,-238.5 785.7954,-220.5 704.2046,-220.5"/>
<text text-anchor="middle" x="745" y="-226.5" font-family="Helvetica,sans-Serif" font-size="10.00" fill="#000000">chainparams.h</text>
</a>
</g>
</g>
<!-- Node0&#45;&gt;Node96 -->
<g id="edge97" class="edge">
<title>Node0&#45;&gt;Node96</title>
<path fill="none" stroke="#191970" d="M2469.2493,-458.986C2225.3213,-455.602 880.7808,-435.9739 845,-414 783.8337,-376.4362 757.5864,-287.4158 748.7384,-248.388"/>
<polygon fill="#191970" stroke="#191970" points="752.1576,-247.6397 746.6496,-238.5892 745.3114,-249.0992 752.1576,-247.6397"/>
</g>
<!-- Node98 -->
<g id="node36" class="node">
<title>Node98</title>
<g id="a_node36"><a xlink:href="consensus_8h.html" target="_top" xlink:title="consensus/consensus.h">
<polygon fill="#ffffff" stroke="#000000" points="2294.6333,-110.5 2294.6333,-128.5 2417.3667,-128.5 2417.3667,-110.5 2294.6333,-110.5"/>
<text text-anchor="middle" x="2356" y="-116.5" font-family="Helvetica,sans-Serif" font-size="10.00" fill="#000000">consensus/consensus.h</text>
</a>
</g>
</g>
<!-- Node0&#45;&gt;Node98 -->
<g id="edge108" class="edge">
<title>Node0&#45;&gt;Node98</title>
<path fill="none" stroke="#191970" d="M2501.5555,-450.4507C2491.0482,-432.0998 2469,-388.899 2469,-349.5 2469,-349.5 2469,-349.5 2469,-229.5 2469,-183.4007 2420.1152,-150.3562 2386.6516,-133.1364"/>
<polygon fill="#191970" stroke="#191970" points="2387.7712,-129.7861 2377.2544,-128.5023 2384.6751,-136.0643 2387.7712,-129.7861"/>
</g>
<!-- Node99 -->
<g id="node37" class="node">
<title>Node99</title>
<g id="a_node37"><a xlink:href="tx__verify_8h.html" target="_top" xlink:title="consensus/tx_verify.h">
<polygon fill="#ffffff" stroke="#000000" points="2940.29,-110.5 2940.29,-128.5 3051.71,-128.5 3051.71,-110.5 2940.29,-110.5"/>
<text text-anchor="middle" x="2996" y="-116.5" font-family="Helvetica,sans-Serif" font-size="10.00" fill="#000000">consensus/tx_verify.h</text>
</a>
</g>
</g>
<!-- Node0&#45;&gt;Node99 -->
<g id="edge111" class="edge">
<title>Node0&#45;&gt;Node99</title>
<path fill="none" stroke="#191970" d="M2544.7401,-458.7001C2710.5283,-454.697 3366,-433.5549 3366,-349.5 3366,-349.5 3366,-349.5 3366,-229.5 3366,-197.2751 3157.1264,-151.3769 3053.2526,-130.5438"/>
<polygon fill="#191970" stroke="#191970" points="3053.7279,-127.0698 3043.2366,-128.5474 3052.3595,-133.9348 3053.7279,-127.0698"/>
</g>
<!-- Node100 -->
<g id="node38" class="node">
<title>Node100</title>
<g id="a_node38"><a xlink:href="merkle_8h.html" target="_top" xlink:title="consensus/merkle.h">
<polygon fill="#ffffff" stroke="#000000" points="1738.5347,-220.5 1738.5347,-238.5 1843.4653,-238.5 1843.4653,-220.5 1738.5347,-220.5"/>
<text text-anchor="middle" x="1791" y="-226.5" font-family="Helvetica,sans-Serif" font-size="10.00" fill="#000000">consensus/merkle.h</text>
</a>
</g>
</g>
<!-- Node0&#45;&gt;Node100 -->
<g id="edge115" class="edge">
<title>Node0&#45;&gt;Node100</title>
<path fill="none" stroke="#191970" d="M2469.1887,-458.0524C2395.1925,-454.5887 2234.5008,-443.7735 2189,-414 2128.2116,-374.2231 2163.7348,-314.8588 2103,-275 2102.3487,-274.5726 1944.6332,-251.7131 1853.7187,-238.5635"/>
<polygon fill="#191970" stroke="#191970" points="1854.1857,-235.0947 1843.7877,-237.1273 1853.1838,-242.0227 1854.1857,-235.0947"/>
</g>
<!-- Node101 -->
<g id="node39" class="node">
<title>Node101</title>
<g id="a_node39"><a xlink:href="consensus_2validation_8h.html" target="_top" xlink:title="consensus/validation.h">
<polygon fill="#ffffff" stroke="#000000" points="2047.4116,-220.5 2047.4116,-238.5 2164.5884,-238.5 2164.5884,-220.5 2047.4116,-220.5"/>
<text text-anchor="middle" x="2106" y="-226.5" font-family="Helvetica,sans-Serif" font-size="10.00" fill="#000000">consensus/validation.h</text>
</a>
</g>
</g>
<!-- Node0&#45;&gt;Node101 -->
<g id="edge121" class="edge">
<title>Node0&#45;&gt;Node101</title>
<path fill="none" stroke="#191970" d="M2468.8733,-455.4454C2416.8073,-449.1811 2327.1576,-435.57 2303,-414 2254.2481,-370.4701 2302.042,-320.3724 2255,-275 2241.2981,-261.7844 2197.6141,-249.3454 2161.0631,-240.8247"/>
<polygon fill="#191970" stroke="#191970" points="2161.5013,-237.335 2150.9738,-238.5279 2159.9475,-244.1603 2161.5013,-237.335"/>
</g>
<!-- Node102 -->
<g id="node40" class="node">
<title>Node102</title>
<g id="a_node40"><a xlink:href="net_8h.html" target="_top" xlink:title="net.h">
<polygon fill="#ffffff" stroke="#ff0000" points="1668.8794,-165.5 1668.8794,-183.5 1707.1206,-183.5 1707.1206,-165.5 1668.8794,-165.5"/>
<text text-anchor="middle" x="1688" y="-171.5" font-family="Helvetica,sans-Serif" font-size="10.00" fill="#000000">net.h</text>
</a>
</g>
</g>
<!-- Node0&#45;&gt;Node102 -->
<g id="edge128" class="edge">
<title>Node0&#45;&gt;Node102</title>
<path fill="none" stroke="#191970" d="M2468.8617,-455.5399C2408.38,-448.7633 2293.6592,-433.7412 2258,-414 2184.7894,-373.4701 2204.8587,-314.3366 2131,-275 2035.4122,-224.0906 1993.2698,-271.6212 1890,-239 1871.9946,-233.3124 1869.624,-226.7778 1852,-220 1827.3275,-210.5116 1757.0301,-192.06 1716.937,-181.8094"/>
<polygon fill="#191970" stroke="#191970" points="1717.7579,-178.4068 1707.2034,-179.3303 1716.0301,-185.1903 1717.7579,-178.4068"/>
</g>
<!-- Node121 -->
<g id="node41" class="node">
<title>Node121</title>
<g id="a_node41"><a xlink:href="policy_8h.html" target="_top" xlink:title="policy/policy.h">
<polygon fill="#ffffff" stroke="#ff0000" points="2535.2432,-165.5 2535.2432,-183.5 2612.7568,-183.5 2612.7568,-165.5 2535.2432,-165.5"/>
<text text-anchor="middle" x="2574" y="-171.5" font-family="Helvetica,sans-Serif" font-size="10.00" fill="#000000">policy/policy.h</text>
</a>
</g>
</g>
<!-- Node0&#45;&gt;Node121 -->
<g id="edge137" class="edge">
<title>Node0&#45;&gt;Node121</title>
<path fill="none" stroke="#191970" d="M2544.9916,-457.1717C2644.8384,-450.0192 2907,-424.1333 2907,-349.5 2907,-349.5 2907,-349.5 2907,-289.5 2907,-257.4776 2911.9917,-241.2093 2888,-220 2868.4639,-202.7296 2706.0406,-186.1148 2622.7934,-178.6343"/>
<polygon fill="#191970" stroke="#191970" points="2623.0768,-175.1458 2612.8062,-177.7466 2622.457,-182.1183 2623.0768,-175.1458"/>
</g>
<!-- Node123 -->
<g id="node42" class="node">
<title>Node123</title>
<g id="a_node42"><a xlink:href="standard_8h.html" target="_top" xlink:title="script/standard.h">
<polygon fill="#ffffff" stroke="#ff0000" points="2511.0371,-110.5 2511.0371,-128.5 2600.9629,-128.5 2600.9629,-110.5 2511.0371,-110.5"/>
<text text-anchor="middle" x="2556" y="-116.5" font-family="Helvetica,sans-Serif" font-size="10.00" fill="#000000">script/standard.h</text>
</a>
</g>
</g>
<!-- Node0&#45;&gt;Node123 -->
<g id="edge148" class="edge">
<title>Node0&#45;&gt;Node123</title>
<path fill="none" stroke="#191970" d="M2545.1034,-458.0596C2651.6661,-453.0036 2945,-431.6272 2945,-349.5 2945,-349.5 2945,-349.5 2945,-289.5 2945,-254.7132 2935.9371,-242.0118 2909,-220 2863.2583,-182.6219 2698.61,-146.6697 2611.2857,-129.6843"/>
<polygon fill="#191970" stroke="#191970" points="2611.7707,-126.2135 2601.289,-127.7571 2610.4456,-133.0869 2611.7707,-126.2135"/>
</g>
<!-- Node125 -->
<g id="node43" class="node">
<title>Node125</title>
<g id="a_node43"><a xlink:href="pow_8h.html" target="_top" xlink:title="pow.h">
<polygon fill="#ffffff" stroke="#000000" points="2836.9312,-220.5 2836.9312,-238.5 2879.0688,-238.5 2879.0688,-220.5 2836.9312,-220.5"/>
<text text-anchor="middle" x="2858" y="-226.5" font-family="Helvetica,sans-Serif" font-size="10.00" fill="#000000">pow.h</text>
</a>
</g>
</g>
<!-- Node0&#45;&gt;Node125 -->
<g id="edge144" class="edge">
<title>Node0&#45;&gt;Node125</title>
<path fill="none" stroke="#191970" d="M2520.7596,-450.4837C2574.2655,-415.4229 2768.7967,-287.9523 2835.4288,-244.2902"/>
<polygon fill="#191970" stroke="#191970" points="2837.5081,-247.1122 2843.9541,-238.7039 2833.6715,-241.2573 2837.5081,-247.1122"/>
</g>
<!-- Node105 -->
<g id="node44" class="node">
<title>Node105</title>
<g id="a_node44"><a xlink:href="timedata_8h.html" target="_top" xlink:title="timedata.h">
<polygon fill="#ffffff" stroke="#000000" points="2770.6528,-55.5 2770.6528,-73.5 2833.3472,-73.5 2833.3472,-55.5 2770.6528,-55.5"/>
<text text-anchor="middle" x="2802" y="-61.5" font-family="Helvetica,sans-Serif" font-size="10.00" fill="#000000">timedata.h</text>
</a>
</g>
</g>
<!-- Node0&#45;&gt;Node105 -->
<g id="edge149" class="edge">
<title>Node0&#45;&gt;Node105</title>
<path fill="none" stroke="#191970" d="M2545.0409,-458.3027C2637.2951,-454.9575 2870.584,-443.7286 2942,-414 2983.8465,-396.5804 3021,-394.8273 3021,-349.5 3021,-349.5 3021,-349.5 3021,-229.5 3021,-151.0896 2941.0193,-172.8256 2876,-129 2854.5372,-114.5332 2832.4955,-94.5302 2818.1158,-80.6516"/>
<polygon fill="#191970" stroke="#191970" points="2820.5593,-78.1457 2810.9677,-73.6454 2815.6594,-83.1448 2820.5593,-78.1457"/>
</g>
<!-- Node106 -->
<g id="node45" class="node">
<title>Node106</title>
<g id="a_node45"><a xlink:href="util_8h.html" target="_top" xlink:title="util.h">
<polygon fill="#ffffff" stroke="#ff0000" points="2885.4385,-110.5 2885.4385,-128.5 2922.5615,-128.5 2922.5615,-110.5 2885.4385,-110.5"/>
<text text-anchor="middle" x="2904" y="-116.5" font-family="Helvetica,sans-Serif" font-size="10.00" fill="#000000">util.h</text>
</a>
</g>
</g>
<!-- Node0&#45;&gt;Node106 -->
<g id="edge154" class="edge">
<title>Node0&#45;&gt;Node106</title>
<path fill="none" stroke="#191970" d="M2545.0345,-458.5969C2650.3761,-455.7213 2944.1315,-445.0645 3035,-414 3085.044,-396.8918 3135,-402.3875 3135,-349.5 3135,-349.5 3135,-349.5 3135,-229.5 3135,-131.5865 3033.1071,-160.3187 2932.3322,-129.253"/>
<polygon fill="#191970" stroke="#191970" points="2933.1796,-125.8475 2922.5868,-126.0537 2930.9962,-132.4983 2933.1796,-125.8475"/>
</g>
<!-- Node126 -->
<g id="node46" class="node">
<title>Node126</title>
<g id="a_node46"><a xlink:href="utilmoneystr_8h.html" target="_top" xlink:title="utilmoneystr.h">
<polygon fill="#ffffff" stroke="#000000" points="3070.1504,-110.5 3070.1504,-128.5 3147.8496,-128.5 3147.8496,-110.5 3070.1504,-110.5"/>
<text text-anchor="middle" x="3109" y="-116.5" font-family="Helvetica,sans-Serif" font-size="10.00" fill="#000000">utilmoneystr.h</text>
</a>
</g>
</g>
<!-- Node0&#45;&gt;Node126 -->
<g id="edge160" class="edge">
<title>Node0&#45;&gt;Node126</title>
<path fill="none" stroke="#191970" d="M2544.8111,-459.0961C2719.7348,-456.7387 3442,-441.4383 3442,-349.5 3442,-349.5 3442,-349.5 3442,-229.5 3442,-170.3748 3250.3324,-137.6488 3157.8216,-125.2968"/>
<polygon fill="#191970" stroke="#191970" points="3158.2204,-121.8192 3147.851,-123.9932 3157.3129,-128.7601 3158.2204,-121.8192"/>
</g>
<!-- Node127 -->
<g id="node47" class="node">
<title>Node127</title>
<g id="a_node47"><a xlink:href="validationinterface_8h.html" target="_top" xlink:title="validationinterface.h">
<polygon fill="#ffffff" stroke="#ff0000" points="1262.5273,-165.5 1262.5273,-183.5 1367.4727,-183.5 1367.4727,-165.5 1262.5273,-165.5"/>
<text text-anchor="middle" x="1315" y="-171.5" font-family="Helvetica,sans-Serif" font-size="10.00" fill="#000000">validationinterface.h</text>
</a>
</g>
</g>
<!-- Node0&#45;&gt;Node127 -->
<g id="edge164" class="edge">
<title>Node0&#45;&gt;Node127</title>
<path fill="none" stroke="#191970" d="M2469.2573,-456.2511C2405.9154,-450.404 2274.406,-436.5714 2165,-414 1844.7476,-347.9291 1468.1219,-225.7087 1351.3505,-186.7607"/>
<polygon fill="#191970" stroke="#191970" points="1352.4042,-183.4226 1341.8104,-183.5709 1350.1845,-190.0614 1352.4042,-183.4226"/>
</g>
<!-- Node129 -->
<g id="node48" class="node">
<title>Node129</title>
<g id="a_node48"><a xlink:href="wallet_2wallet_8h.html" target="_top" xlink:title="wallet/wallet.h">
<polygon fill="#ffffff" stroke="#ff0000" points="2496.8745,-220.5 2496.8745,-238.5 2575.1255,-238.5 2575.1255,-220.5 2496.8745,-220.5"/>
<text text-anchor="middle" x="2536" y="-226.5" font-family="Helvetica,sans-Serif" font-size="10.00" fill="#000000">wallet/wallet.h</text>
</a>
</g>
</g>
<!-- Node0&#45;&gt;Node129 -->
<g id="edge167" class="edge">
<title>Node0&#45;&gt;Node129</title>
<path fill="none" stroke="#191970" d="M2510.501,-450.2394C2513.7808,-441.1501 2518.5362,-426.8238 2521,-414 2532.3901,-354.7145 2535.141,-283.0908 2535.7985,-249.1589"/>
<polygon fill="#191970" stroke="#191970" points="2539.3033,-248.8624 2535.9545,-238.8107 2532.3041,-248.7568 2539.3033,-248.8624"/>
</g>
<!-- Node150 -->
<g id="node49" class="node">
<title>Node150</title>
<polygon fill="#ffffff" stroke="#bfbfbf" points="3508.0962,-395.5 3508.0962,-413.5 3551.9038,-413.5 3551.9038,-395.5 3508.0962,-395.5"/>
<text text-anchor="middle" x="3530" y="-401.5" font-family="Helvetica,sans-Serif" font-size="10.00" fill="#000000">queue</text>
</g>
<!-- Node0&#45;&gt;Node150 -->
<g id="edge179" class="edge">
<title>Node0&#45;&gt;Node150</title>
<path fill="none" stroke="#191970" d="M2544.9114,-458.8264C2702.4492,-455.8618 3305.8972,-442.821 3494,-414 3495.2939,-413.8018 3496.6083,-413.5754 3497.9319,-413.3267"/>
<polygon fill="#191970" stroke="#191970" points="3499.067,-416.66 3508.0708,-411.0759 3497.5499,-409.8264 3499.067,-416.66"/>
</g>
<!-- Node151 -->
<g id="node50" class="node">
<title>Node151</title>
<polygon fill="#ffffff" stroke="#bfbfbf" points="3569.4707,-395.5 3569.4707,-413.5 3660.5293,-413.5 3660.5293,-395.5 3569.4707,-395.5"/>
<text text-anchor="middle" x="3615" y="-401.5" font-family="Helvetica,sans-Serif" font-size="10.00" fill="#000000">boost/thread.hpp</text>
</g>
<!-- Node0&#45;&gt;Node151 -->
<g id="edge181" class="edge">
<title>Node0&#45;&gt;Node151</title>
<path fill="none" stroke="#191970" d="M2544.9066,-458.5306C2706.3182,-454.3016 3337.8184,-436.7054 3559.1681,-414.039"/>
<polygon fill="#191970" stroke="#191970" points="3559.8193,-417.4897 3569.395,-412.9559 3559.082,-410.5286 3559.8193,-417.4897"/>
</g>
<!-- Node2 -->
<g id="node3" class="node">
<title>Node2</title>
<g id="a_node3"><a xlink:href="block_8h.html" target="_top" xlink:title="primitives/block.h">
<polygon fill="#ffffff" stroke="#000000" points="1114.6553,-165.5 1114.6553,-183.5 1207.3447,-183.5 1207.3447,-165.5 1114.6553,-165.5"/>
<text text-anchor="middle" x="1161" y="-171.5" font-family="Helvetica,sans-Serif" font-size="10.00" fill="#000000">primitives/block.h</text>
</a>
</g>
</g>
<!-- Node1&#45;&gt;Node2 -->
<g id="edge2" class="edge">
<title>Node1&#45;&gt;Node2</title>
<path fill="none" stroke="#191970" d="M657.7013,-401.8169C761.3218,-389.9731 1158.4979,-338.4958 1222,-239 1234.4794,-219.4471 1211.2032,-200.592 1189.8991,-188.3719"/>
<polygon fill="#191970" stroke="#191970" points="1191.4605,-185.2373 1180.9995,-183.5583 1188.1302,-191.3944 1191.4605,-185.2373"/>
</g>
<!-- Node4 -->
<g id="node5" class="node">
<title>Node4</title>
<polygon fill="#ffffff" stroke="#bfbfbf" points="2623.8794,-.5 2623.8794,-18.5 2672.1206,-18.5 2672.1206,-.5 2623.8794,-.5"/>
<text text-anchor="middle" x="2648" y="-6.5" font-family="Helvetica,sans-Serif" font-size="10.00" fill="#000000">stdint.h</text>
</g>
<!-- Node1&#45;&gt;Node4 -->
<g id="edge78" class="edge">
<title>Node1&#45;&gt;Node4</title>
<path fill="none" stroke="#191970" d="M657.7106,-404.2491C857.1796,-402.0743 2207.0524,-384.5109 2605,-304 2687.9576,-287.2164 2705.336,-270.235 2784,-239 2803.7973,-231.1391 2807.5644,-226.0097 2828,-220 3011.6554,-165.9907 3118.1734,-268.7523 3249,-129 3271.7235,-104.7261 3282.6231,-79.3675 3260,-55 3240.2114,-33.6855 2808.8187,-15.625 2682.4738,-10.7778"/>
<polygon fill="#191970" stroke="#191970" points="2682.3475,-7.2705 2672.2217,-10.3879 2682.0814,-14.2655 2682.3475,-7.2705"/>
</g>
<!-- Node37 -->
<g id="node10" class="node">
<title>Node37</title>
<polygon fill="#ffffff" stroke="#bfbfbf" points="702.9434,-.5 702.9434,-18.5 755.0566,-18.5 755.0566,-.5 702.9434,-.5"/>
<text text-anchor="middle" x="729" y="-6.5" font-family="Helvetica,sans-Serif" font-size="10.00" fill="#000000">memory</text>
</g>
<!-- Node1&#45;&gt;Node37 -->
<g id="edge79" class="edge">
<title>Node1&#45;&gt;Node37</title>
<path fill="none" stroke="#191970" d="M608.5371,-403.5915C491.1963,-398.7387 -5.7792,-372.3304 57,-275 185.5172,-75.7519 318.8855,-132.3899 543,-55 593.8391,-37.4445 654.7089,-23.9056 692.6252,-16.3183"/>
<polygon fill="#191970" stroke="#191970" points="693.5481,-19.7039 702.6835,-14.3377 692.1957,-12.8357 693.5481,-19.7039"/>
</g>
<!-- Node47 -->
<g id="node15" class="node">
<title>Node47</title>
<g id="a_node15"><a xlink:href="txmempool_8h.html" target="_top" xlink:title="txmempool.h">
<polygon fill="#ffffff" stroke="#ff0000" points="589.377,-340.5 589.377,-358.5 662.623,-358.5 662.623,-340.5 589.377,-340.5"/>
<text text-anchor="middle" x="626" y="-346.5" font-family="Helvetica,sans-Serif" font-size="10.00" fill="#000000">txmempool.h</text>
</a>
</g>
</g>
<!-- Node1&#45;&gt;Node47 -->
<g id="edge22" class="edge">
<title>Node1&#45;&gt;Node47</title>
<path fill="none" stroke="#191970" d="M631.8441,-395.4179C630.9275,-388.2164 629.6141,-377.8962 628.4644,-368.8632"/>
<polygon fill="#191970" stroke="#191970" points="631.9156,-368.2575 627.181,-358.7795 624.9717,-369.1414 631.9156,-368.2575"/>
</g>
<!-- Node73 -->
<g id="node26" class="node">
<title>Node73</title>
<polygon fill="#ffffff" stroke="#bfbfbf" points="66.2813,-280.5 66.2813,-298.5 225.7188,-298.5 225.7188,-280.5 66.2813,-280.5"/>
<text text-anchor="middle" x="146" y="-286.5" font-family="Helvetica,sans-Serif" font-size="10.00" fill="#000000">boost/multi_index_container.hpp</text>
</g>
<!-- Node1&#45;&gt;Node73 -->
<g id="edge80" class="edge">
<title>Node1&#45;&gt;Node73</title>
<path fill="none" stroke="#191970" d="M608.5158,-398.7183C531.983,-380.6459 296.2917,-324.9898 194.0941,-300.8569"/>
<polygon fill="#191970" stroke="#191970" points="194.8762,-297.4454 184.3395,-298.5535 193.2674,-304.2581 194.8762,-297.4454"/>
</g>
<!-- Node75 -->
<g id="node27" class="node">
<title>Node75</title>
<polygon fill="#ffffff" stroke="#bfbfbf" points="243.4658,-275.5 243.4658,-303.5 374.5342,-303.5 374.5342,-275.5 243.4658,-275.5"/>
<text text-anchor="start" x="251.4658" y="-291.5" font-family="Helvetica,sans-Serif" font-size="10.00" fill="#000000">boost/multi_index/ordered</text>
<text text-anchor="middle" x="309" y="-281.5" font-family="Helvetica,sans-Serif" font-size="10.00" fill="#000000">_index.hpp</text>
</g>
<!-- Node1&#45;&gt;Node75 -->
<g id="edge81" class="edge">
<title>Node1&#45;&gt;Node75</title>
<path fill="none" stroke="#191970" d="M608.3814,-395.7619C555.138,-376.8638 428.4252,-331.8886 358.117,-306.9335"/>
<polygon fill="#191970" stroke="#191970" points="359.1788,-303.5965 348.5841,-303.5499 356.8373,-310.1933 359.1788,-303.5965"/>
</g>
<!-- Node78 -->
<g id="node28" class="node">
<title>Node78</title>
<g id="a_node28"><a xlink:href="validation_8h.html" target="_top" xlink:title="validation.h">
<polygon fill="#ffffff" stroke="#ff0000" points="1306.7046,-340.5 1306.7046,-358.5 1373.2954,-358.5 1373.2954,-340.5 1306.7046,-340.5"/>
<text text-anchor="middle" x="1340" y="-346.5" font-family="Helvetica,sans-Serif" font-size="10.00" fill="#000000">validation.h</text>
</a>
</g>
</g>
<!-- Node1&#45;&gt;Node78 -->
<g id="edge62" class="edge">
<title>Node1&#45;&gt;Node78</title>
<path fill="none" stroke="#191970" d="M657.6227,-403.0388C741.3769,-397.996 1022.9279,-380.449 1255,-359 1268.417,-357.76 1283.002,-356.2054 1296.2413,-354.7151"/>
<polygon fill="#191970" stroke="#191970" points="1296.9841,-358.1531 1306.5224,-353.5409 1296.1898,-351.1983 1296.9841,-358.1531"/>
</g>
<!-- Node2&#45;&gt;Node3 -->
<g id="edge3" class="edge">
<title>Node2&#45;&gt;Node3</title>
<path fill="none" stroke="#191970" d="M1207.8052,-169.4034C1222.5744,-167.8798 1238.9603,-166.2769 1254,-165 1473.6368,-146.3519 1734.1811,-130.4962 1856.2984,-123.4318"/>
<polygon fill="#191970" stroke="#191970" points="1856.8369,-126.9066 1866.6188,-122.8366 1856.4338,-119.9182 1856.8369,-126.9066"/>
</g>
<!-- Node32 -->
<g id="node7" class="node">
<title>Node32</title>
<g id="a_node7"><a xlink:href="serialize_8h.html" target="_top" xlink:title="serialize.h">
<polygon fill="#ffffff" stroke="#ff0000" points="1485.4902,-55.5 1485.4902,-73.5 1546.5098,-73.5 1546.5098,-55.5 1485.4902,-55.5"/>
<text text-anchor="middle" x="1516" y="-61.5" font-family="Helvetica,sans-Serif" font-size="10.00" fill="#000000">serialize.h</text>
</a>
</g>
</g>
<!-- Node2&#45;&gt;Node32 -->
<g id="edge20" class="edge">
<title>Node2&#45;&gt;Node32</title>
<path fill="none" stroke="#191970" d="M1207.4916,-165.8542C1247.5582,-157.8956 1306.7139,-144.9274 1357,-129 1403.3817,-114.3092 1455.2987,-92.1103 1486.8096,-77.963"/>
<polygon fill="#191970" stroke="#191970" points="1488.6231,-80.984 1496.2905,-73.6723 1485.737,-74.6067 1488.6231,-80.984"/>
</g>
<!-- Node45 -->
<g id="node14" class="node">
<title>Node45</title>
<g id="a_node14"><a xlink:href="uint256_8h.html" target="_top" xlink:title="uint256.h">
<polygon fill="#ffffff" stroke="#ff0000" points="1603.4263,-55.5 1603.4263,-73.5 1660.5737,-73.5 1660.5737,-55.5 1603.4263,-55.5"/>
<text text-anchor="middle" x="1632" y="-61.5" font-family="Helvetica,sans-Serif" font-size="10.00" fill="#000000">uint256.h</text>
</a>
</g>
</g>
<!-- Node2&#45;&gt;Node45 -->
<g id="edge21" class="edge">
<title>Node2&#45;&gt;Node45</title>
<path fill="none" stroke="#191970" d="M1207.5491,-169.6537C1317.6333,-158.1764 1584.9668,-130.2023 1587,-129 1604.5705,-118.6101 1616.9659,-98.3583 1624.2384,-83.3064"/>
<polygon fill="#191970" stroke="#191970" points="1627.5575,-84.4584 1628.4553,-73.9017 1621.1702,-81.5944 1627.5575,-84.4584"/>
</g>
<!-- Node3&#45;&gt;Node4 -->
<g id="edge4" class="edge">
<title>Node3&#45;&gt;Node4</title>
<path fill="none" stroke="#191970" d="M1985.0843,-110.4982C2129.9273,-88.4307 2499.1773,-32.1738 2613.6378,-14.7352"/>
<polygon fill="#191970" stroke="#191970" points="2614.2394,-18.1841 2623.5981,-13.2177 2613.185,-11.2639 2614.2394,-18.1841"/>
</g>
<!-- Node3&#45;&gt;Node5 -->
<g id="edge5" class="edge">
<title>Node3&#45;&gt;Node5</title>
<path fill="none" stroke="#191970" d="M1985.3278,-115.411C2140.4404,-104.7203 2554.9864,-76.1488 2684.663,-67.2112"/>
<polygon fill="#191970" stroke="#191970" points="2685.1764,-70.6842 2694.9121,-66.5048 2684.6951,-63.7008 2685.1764,-70.6842"/>
</g>
<!-- Node3&#45;&gt;Node32 -->
<g id="edge7" class="edge">
<title>Node3&#45;&gt;Node32</title>
<path fill="none" stroke="#191970" d="M1866.8203,-111.5613C1782.3797,-100.2339 1629.5016,-79.7258 1556.6827,-69.9574"/>
<polygon fill="#191970" stroke="#191970" points="1556.9141,-66.4572 1546.5375,-68.5965 1555.9834,-73.3951 1556.9141,-66.4572"/>
</g>
<!-- Node3&#45;&gt;Node45 -->
<g id="edge15" class="edge">
<title>Node3&#45;&gt;Node45</title>
<path fill="none" stroke="#191970" d="M1873.0037,-110.4972C1822.1269,-101.7118 1743.1662,-87.7032 1675,-74 1673.5478,-73.7081 1672.0691,-73.4059 1670.5762,-73.0967"/>
<polygon fill="#191970" stroke="#191970" points="1671.1579,-69.6423 1660.649,-70.9888 1669.7039,-76.4896 1671.1579,-69.6423"/>
</g>
<!-- Node5&#45;&gt;Node4 -->
<g id="edge6" class="edge">
<title>Node5&#45;&gt;Node4</title>
<path fill="none" stroke="#191970" d="M2711.4501,-55.4179C2699.8989,-47.0584 2682.5408,-34.4966 2668.8985,-24.6239"/>
<polygon fill="#191970" stroke="#191970" points="2670.7216,-21.6229 2660.5685,-18.5956 2666.6177,-27.2938 2670.7216,-21.6229"/>
</g>
<!-- Node32&#45;&gt;Node4 -->
<g id="edge11" class="edge">
<title>Node32&#45;&gt;Node4</title>
<path fill="none" stroke="#191970" d="M1546.6918,-60.2007C1561.0368,-58.3355 1578.3649,-56.2876 1594,-55 1993.9252,-22.064 2481.3049,-12.1771 2613.5291,-10.0108"/>
<polygon fill="#191970" stroke="#191970" points="2613.886,-13.5056 2623.8287,-9.846 2613.774,-6.5065 2613.886,-13.5056"/>
</g>
<!-- Node32&#45;&gt;Node33 -->
<g id="edge8" class="edge">
<title>Node32&#45;&gt;Node33</title>
<path fill="none" stroke="#191970" d="M1546.6829,-60.0864C1561.026,-58.1971 1578.3551,-56.162 1594,-55 1928.2361,-30.1751 3015.5631,-13.2632 3235.1382,-10.0545"/>
<polygon fill="#191970" stroke="#191970" points="3235.2729,-13.553 3245.221,-9.9079 3235.1711,-6.5538 3235.2729,-13.553"/>
</g>
<!-- Node12 -->
<g id="node9" class="node">
<title>Node12</title>
<polygon fill="#ffffff" stroke="#bfbfbf" points="1606.2144,-.5 1606.2144,-18.5 1657.7856,-18.5 1657.7856,-.5 1606.2144,-.5"/>
<text text-anchor="middle" x="1632" y="-6.5" font-family="Helvetica,sans-Serif" font-size="10.00" fill="#000000">assert.h</text>
</g>
<!-- Node32&#45;&gt;Node12 -->
<g id="edge9" class="edge">
<title>Node32&#45;&gt;Node12</title>
<path fill="none" stroke="#191970" d="M1535.155,-55.4179C1553.7934,-46.5807 1582.3367,-33.0473 1603.6136,-22.9591"/>
<polygon fill="#191970" stroke="#191970" points="1605.2802,-26.0424 1612.8165,-18.5956 1602.2812,-19.7174 1605.2802,-26.0424"/>
</g>
<!-- Node32&#45;&gt;Node37 -->
<g id="edge10" class="edge">
<title>Node32&#45;&gt;Node37</title>
<path fill="none" stroke="#191970" d="M1485.0934,-56.6038C1482.0345,-55.9898 1478.9655,-55.4391 1476,-55 1336.2991,-34.3137 895.1994,-15.95 765.3192,-10.8812"/>
<polygon fill="#191970" stroke="#191970" points="765.2451,-7.3758 755.1169,-10.4855 764.9737,-14.3705 765.2451,-7.3758"/>
</g>
<!-- Node39 -->
<g id="node11" class="node">
<title>Node39</title>
<polygon fill="#ffffff" stroke="#bfbfbf" points="2015.7734,-.5 2015.7734,-18.5 2056.2266,-18.5 2056.2266,-.5 2015.7734,-.5"/>
<text text-anchor="middle" x="2036" y="-6.5" font-family="Helvetica,sans-Serif" font-size="10.00" fill="#000000">string</text>
</g>
<!-- Node32&#45;&gt;Node39 -->
<g id="edge12" class="edge">
<title>Node32&#45;&gt;Node39</title>
<path fill="none" stroke="#191970" d="M1546.9015,-57.4986C1551.6087,-56.5708 1556.4221,-55.7002 1561,-55 1727.6405,-29.5118 1929.4887,-15.795 2005.2798,-11.2404"/>
<polygon fill="#191970" stroke="#191970" points="2005.7522,-14.7187 2015.5282,-10.6346 2005.339,-7.7309 2005.7522,-14.7187"/>
</g>
<!-- Node32&#45;&gt;Node40 -->
<g id="edge13" class="edge">
<title>Node32&#45;&gt;Node40</title>
<path fill="none" stroke="#191970" d="M1485.1038,-56.5309C1482.0428,-55.9317 1478.9704,-55.4043 1476,-55 1052.0549,2.709 941.0488,-45.25 514,-19 486.4604,-17.3072 455.1451,-14.551 432.8139,-12.4422"/>
<polygon fill="#191970" stroke="#191970" points="432.9172,-8.9362 422.6289,-11.4665 432.2496,-15.9043 432.9172,-8.9362"/>
</g>
<!-- Node41 -->
<g id="node13" class="node">
<title>Node41</title>
<polygon fill="#ffffff" stroke="#bfbfbf" points="1255.3843,-.5 1255.3843,-18.5 1298.6157,-18.5 1298.6157,-.5 1255.3843,-.5"/>
<text text-anchor="middle" x="1277" y="-6.5" font-family="Helvetica,sans-Serif" font-size="10.00" fill="#000000">vector</text>
</g>
<!-- Node32&#45;&gt;Node41 -->
<g id="edge14" class="edge">
<title>Node32&#45;&gt;Node41</title>
<path fill="none" stroke="#191970" d="M1485.4314,-57.2121C1482.2474,-56.4613 1479.0586,-55.7129 1476,-55 1416.9097,-41.228 1347.8539,-25.5271 1308.5887,-16.6365"/>
<polygon fill="#191970" stroke="#191970" points="1309.3302,-13.2159 1298.8043,-14.4224 1307.7852,-20.0433 1309.3302,-13.2159"/>
</g>
<!-- Node45&#45;&gt;Node4 -->
<g id="edge17" class="edge">
<title>Node45&#45;&gt;Node4</title>
<path fill="none" stroke="#191970" d="M1660.8516,-62.6123C1691.4219,-60.632 1741.1054,-57.4699 1784,-55 2106.4681,-36.4324 2496.8183,-16.9541 2613.4835,-11.1959"/>
<polygon fill="#191970" stroke="#191970" points="2613.7838,-14.6854 2623.5993,-10.6972 2613.439,-7.6939 2613.7838,-14.6854"/>
</g>
<!-- Node45&#45;&gt;Node12 -->
<g id="edge16" class="edge">
<title>Node45&#45;&gt;Node12</title>
<path fill="none" stroke="#191970" d="M1632,-55.4179C1632,-48.2164 1632,-37.8962 1632,-28.8632"/>
<polygon fill="#191970" stroke="#191970" points="1635.5001,-28.7794 1632,-18.7795 1628.5001,-28.7795 1635.5001,-28.7794"/>
</g>
<!-- Node45&#45;&gt;Node39 -->
<g id="edge18" class="edge">
<title>Node45&#45;&gt;Node39</title>
<path fill="none" stroke="#191970" d="M1660.7308,-60.5886C1734.4409,-50.5538 1929.7602,-23.9633 2005.4398,-13.6604"/>
<polygon fill="#191970" stroke="#191970" points="2006.2723,-17.0795 2015.7088,-12.2624 2005.328,-10.1434 2006.2723,-17.0795"/>
</g>
<!-- Node45&#45;&gt;Node41 -->
<g id="edge19" class="edge">
<title>Node45&#45;&gt;Node41</title>
<path fill="none" stroke="#191970" d="M1603.2496,-60.0457C1537.7562,-49.8988 1377.8433,-25.1236 1309.1831,-14.4861"/>
<polygon fill="#191970" stroke="#191970" points="1309.3935,-10.977 1298.9755,-12.9047 1308.3217,-17.8945 1309.3935,-10.977"/>
</g>
<!-- Node47&#45;&gt;Node3 -->
<g id="edge59" class="edge">
<title>Node47&#45;&gt;Node3</title>
<path fill="none" stroke="#191970" d="M662.8089,-347.8806C874.5128,-338.3941 1929.1707,-288.7368 1975,-239 1981.7685,-231.6544 1992.1094,-206.0856 1974,-165 1968.6987,-152.9728 1958.5413,-142.6043 1948.9305,-134.8157"/>
<polygon fill="#191970" stroke="#191970" points="1950.8536,-131.8823 1940.7611,-128.6585 1946.6404,-137.4724 1950.8536,-131.8823"/>
</g>
<!-- Node47&#45;&gt;Node5 -->
<g id="edge27" class="edge">
<title>Node47&#45;&gt;Node5</title>
<path fill="none" stroke="#191970" d="M662.65,-348.8424C861.1096,-345.2095 1808.8714,-326.9248 2101,-304 2158.3895,-299.4964 2563.8574,-265.4248 2615,-239 2673.9654,-208.5333 2688.1458,-189.2435 2716,-129 2722.5194,-114.8997 2724.3405,-97.3112 2724.6311,-84.0642"/>
<polygon fill="#191970" stroke="#191970" points="2728.1292,-83.7172 2724.5721,-73.7373 2721.1293,-83.7572 2728.1292,-83.7172"/>
</g>
<!-- Node47&#45;&gt;Node37 -->
<g id="edge23" class="edge">
<title>Node47&#45;&gt;Node37</title>
<path fill="none" stroke="#191970" d="M589.2849,-342.8296C562.9043,-336.5063 527.769,-324.7797 503,-304 453.935,-262.8375 439.9639,-223.9485 465,-165 492.5235,-100.195 518.2884,-90.6558 579,-55 614.7348,-34.013 661.0344,-21.894 692.6843,-15.5191"/>
<polygon fill="#191970" stroke="#191970" points="693.6592,-18.8959 702.8197,-13.5729 692.3391,-12.0215 693.6592,-18.8959"/>
</g>
<!-- Node47&#45;&gt;Node39 -->
<g id="edge26" class="edge">
<title>Node47&#45;&gt;Node39</title>
<path fill="none" stroke="#191970" d="M662.7141,-348.838C794.4693,-346.2512 1255.7824,-335.3715 1635,-304 1665.0587,-301.5133 2153.9901,-261.568 2174,-239 2206.2979,-202.5732 2093.3972,-72.1557 2051.2479,-25.9075"/>
<polygon fill="#191970" stroke="#191970" points="2053.8102,-23.523 2044.4678,-18.5259 2048.6548,-28.2583 2053.8102,-23.523"/>
</g>
<!-- Node47&#45;&gt;Node40 -->
<g id="edge25" class="edge">
<title>Node47&#45;&gt;Node40</title>
<path fill="none" stroke="#191970" d="M589.1017,-344.6488C534.3001,-335.2339 433.1301,-308.8528 389,-239 344.4006,-168.4044 316.495,-131.0411 351,-55 356.6539,-42.54 367.5926,-32.1506 377.9844,-24.4602"/>
<polygon fill="#191970" stroke="#191970" points="380.19,-27.1916 386.4568,-18.6489 376.2305,-21.4191 380.19,-27.1916"/>
</g>
<!-- Node47&#45;&gt;Node41 -->
<g id="edge24" class="edge">
<title>Node47&#45;&gt;Node41</title>
<path fill="none" stroke="#191970" d="M621.9957,-340.2709C612.9627,-317.9308 593.4784,-259.8521 616,-220 685.9393,-96.2418 755.1196,-99.8873 890,-55 1038.2092,-5.677 1088.7487,-49.3722 1245.2139,-18.9889"/>
<polygon fill="#191970" stroke="#191970" points="1246.0706,-22.3867 1255.183,-16.9815 1244.6888,-15.5245 1246.0706,-22.3867"/>
</g>
<!-- Node47&#45;&gt;Node48 -->
<g id="edge28" class="edge">
<title>Node47&#45;&gt;Node48</title>
<path fill="none" stroke="#191970" d="M662.7985,-344.2804C743.7152,-332.8028 936.1406,-305.5084 1014.7018,-294.365"/>
<polygon fill="#191970" stroke="#191970" points="1015.5987,-297.7729 1025.008,-292.9031 1014.6155,-290.8423 1015.5987,-297.7729"/>
</g>
<!-- Node47&#45;&gt;Node65 -->
<g id="edge55" class="edge">
<title>Node47&#45;&gt;Node65</title>
<path fill="none" stroke="#191970" d="M662.839,-348.9858C870.4222,-345.9976 1889.6778,-330.0888 2027,-304 2111.3835,-287.9686 2138.5316,-288.11 2209,-239 2235.1444,-220.7798 2244.1249,-213.9539 2255,-184 2260.6113,-168.5443 2254.0715,-150.6644 2247.0103,-137.6553"/>
<polygon fill="#191970" stroke="#191970" points="2249.8378,-135.5638 2241.7017,-128.7775 2243.8299,-139.1564 2249.8378,-135.5638"/>
</g>
<!-- Node47&#45;&gt;Node73 -->
<g id="edge60" class="edge">
<title>Node47&#45;&gt;Node73</title>
<path fill="none" stroke="#191970" d="M589.1751,-345.8185C519.6337,-338.7346 364.2673,-322.2818 234,-304 225.7343,-302.84 217.0477,-301.5256 208.4839,-300.1732"/>
<polygon fill="#191970" stroke="#191970" points="208.9479,-296.703 198.5198,-298.5752 207.8394,-303.6147 208.9479,-296.703"/>
</g>
<!-- Node47&#45;&gt;Node75 -->
<g id="edge61" class="edge">
<title>Node47&#45;&gt;Node75</title>
<path fill="none" stroke="#191970" d="M589.3264,-342.5586C539.5901,-333.1448 449.553,-316.1031 384.9268,-303.871"/>
<polygon fill="#191970" stroke="#191970" points="385.2594,-300.3719 374.7829,-301.951 383.9576,-307.2498 385.2594,-300.3719"/>
</g>
<!-- Node48&#45;&gt;Node3 -->
<g id="edge29" class="edge">
<title>Node48&#45;&gt;Node3</title>
<path fill="none" stroke="#191970" d="M1072.9577,-287.893C1114.4915,-285.1258 1202.5594,-279.3403 1277,-275 1314.7112,-272.8012 1930.0056,-266.4091 1956,-239 1982.6122,-210.9395 1956.6722,-162.9105 1939.1352,-137.1139"/>
<polygon fill="#191970" stroke="#191970" points="1941.8055,-134.8285 1933.1673,-128.6939 1936.0945,-138.8764 1941.8055,-134.8285"/>
</g>
<!-- Node48&#45;&gt;Node4 -->
<g id="edge53" class="edge">
<title>Node48&#45;&gt;Node4</title>
<path fill="none" stroke="#191970" d="M1073.0985,-289.2002C1262.8818,-286.7783 2511.4043,-269.7114 2584,-239 2637.1506,-216.5148 2646.8133,-186.3785 2653,-129 2656.8068,-93.6938 2653.2962,-52.2303 2650.5458,-28.5918"/>
<polygon fill="#191970" stroke="#191970" points="2654.0011,-28.0153 2649.2921,-18.5245 2647.0548,-28.8804 2654.0011,-28.0153"/>
</g>
<!-- Node48&#45;&gt;Node32 -->
<g id="edge50" class="edge">
<title>Node48&#45;&gt;Node32</title>
<path fill="none" stroke="#191970" d="M1043.7649,-280.1627C1036.8327,-266.4902 1026.4295,-240.4302 1035,-220 1048.4951,-187.8306 1059.8162,-180.6385 1091,-165 1184.6659,-118.0271 1225.1392,-163.7316 1324,-129 1339.9672,-123.3904 1341.4157,-116.5992 1357,-110 1378.2819,-100.9881 1435.6749,-85.3173 1475.3459,-74.9263"/>
<polygon fill="#191970" stroke="#191970" points="1476.4733,-78.2495 1485.2674,-72.3406 1474.7079,-71.4757 1476.4733,-78.2495"/>
</g>
<!-- Node48&#45;&gt;Node12 -->
<g id="edge52" class="edge">
<title>Node48&#45;&gt;Node12</title>
<path fill="none" stroke="#191970" d="M1030.8682,-280.4387C1015.9958,-271.94 995.8464,-257.7371 986,-239 970.6782,-209.8438 963.767,-192.4299 982,-165 1051.9114,-59.8248 1121.8605,-87.1149 1244,-55 1370.3924,-21.7668 1526.3382,-12.7845 1595.7389,-10.3743"/>
<polygon fill="#191970" stroke="#191970" points="1596.2339,-13.8603 1606.1165,-10.0412 1596.0093,-6.8639 1596.2339,-13.8603"/>
</g>
<!-- Node48&#45;&gt;Node45 -->
<g id="edge51" class="edge">
<title>Node48&#45;&gt;Node45</title>
<path fill="none" stroke="#191970" d="M1050.0829,-280.3215C1053.421,-256.5878 1065.8842,-193.0865 1106,-165 1187.8168,-107.7172 1461.4558,-166.5617 1554,-129 1579.5523,-118.6289 1603.0891,-96.7335 1617.4787,-81.341"/>
<polygon fill="#191970" stroke="#191970" points="1620.3867,-83.3427 1624.4865,-73.5732 1615.1892,-78.6537 1620.3867,-83.3427"/>
</g>
<!-- Node49 -->
<g id="node17" class="node">
<title>Node49</title>
<g id="a_node17"><a xlink:href="compressor_8h.html" target="_top" xlink:title="compressor.h">
<polygon fill="#ffffff" stroke="#ff0000" points="1536.9854,-165.5 1536.9854,-183.5 1613.0146,-183.5 1613.0146,-165.5 1536.9854,-165.5"/>
<text text-anchor="middle" x="1575" y="-171.5" font-family="Helvetica,sans-Serif" font-size="10.00" fill="#000000">compressor.h</text>
</a>
</g>
</g>
<!-- Node48&#45;&gt;Node49 -->
<g id="edge30" class="edge">
<title>Node48&#45;&gt;Node49</title>
<path fill="none" stroke="#191970" d="M1072.9679,-284.2599C1153.7676,-266.5945 1417.2127,-208.9972 1526.6521,-185.0703"/>
<polygon fill="#191970" stroke="#191970" points="1527.7293,-188.4176 1536.751,-182.8624 1526.2342,-181.5791 1527.7293,-188.4176"/>
</g>
<!-- Node50 -->
<g id="node18" class="node">
<title>Node50</title>
<g id="a_node18"><a xlink:href="core__memusage_8h.html" target="_top" xlink:title="core_memusage.h">
<polygon fill="#ffffff" stroke="#000000" points="1114.5889,-220.5 1114.5889,-238.5 1213.4111,-238.5 1213.4111,-220.5 1114.5889,-220.5"/>
<text text-anchor="middle" x="1164" y="-226.5" font-family="Helvetica,sans-Serif" font-size="10.00" fill="#000000">core_memusage.h</text>
</a>
</g>
</g>
<!-- Node48&#45;&gt;Node50 -->
<g id="edge33" class="edge">
<title>Node48&#45;&gt;Node50</title>
<path fill="none" stroke="#191970" d="M1066.466,-280.3873C1085.404,-270.5066 1115.8441,-254.6248 1137.6819,-243.2312"/>
<polygon fill="#191970" stroke="#191970" points="1139.4995,-246.2306 1146.7464,-238.5019 1136.2615,-240.0245 1139.4995,-246.2306"/>
</g>
<!-- Node51 -->
<g id="node19" class="node">
<title>Node51</title>
<g id="a_node19"><a xlink:href="memusage_8h.html" target="_top" xlink:title="memusage.h">
<polygon fill="#ffffff" stroke="#ff0000" points="659.0962,-55.5 659.0962,-73.5 732.9038,-73.5 732.9038,-55.5 659.0962,-55.5"/>
<text text-anchor="middle" x="696" y="-61.5" font-family="Helvetica,sans-Serif" font-size="10.00" fill="#000000">memusage.h</text>
</a>
</g>
</g>
<!-- Node48&#45;&gt;Node51 -->
<g id="edge49" class="edge">
<title>Node48&#45;&gt;Node51</title>
<path fill="none" stroke="#191970" d="M1025.0693,-287.8426C949.119,-282.3464 717.1901,-263.6603 695,-239 655.8829,-195.5285 676.3252,-118.401 688.7483,-83.0887"/>
<polygon fill="#191970" stroke="#191970" points="692.0877,-84.149 692.2714,-73.5558 685.5218,-81.7224 692.0877,-84.149"/>
</g>
<!-- Node53 -->
<g id="node21" class="node">
<title>Node53</title>
<polygon fill="#ffffff" stroke="#bfbfbf" points="522.6973,-.5 522.6973,-18.5 609.3027,-18.5 609.3027,-.5 522.6973,-.5"/>
<text text-anchor="middle" x="566" y="-6.5" font-family="Helvetica,sans-Serif" font-size="10.00" fill="#000000">unordered_map</text>
</g>
<!-- Node48&#45;&gt;Node53 -->
<g id="edge54" class="edge">
<title>Node48&#45;&gt;Node53</title>
<path fill="none" stroke="#191970" d="M1024.9077,-289.0981C951.9076,-287.4438 734.7524,-279.1786 679,-239 606.2583,-186.5779 577.9701,-74.1031 569.2616,-28.8987"/>
<polygon fill="#191970" stroke="#191970" points="572.6826,-28.1478 567.4543,-18.9329 565.7949,-29.397 572.6826,-28.1478"/>
</g>
<!-- Node48&#45;&gt;Node55 -->
<g id="edge41" class="edge">
<title>Node48&#45;&gt;Node55</title>
<path fill="none" stroke="#191970" d="M1034.4073,-280.3388C1021.8318,-271.4991 1004.5472,-256.85 997,-239 984.192,-208.7075 975.5898,-189.9656 997,-165 1013.8805,-145.3163 1184.6998,-128.598 1258.4214,-122.2408"/>
<polygon fill="#191970" stroke="#191970" points="1258.8963,-125.7132 1268.564,-121.3789 1258.3035,-118.7383 1258.8963,-125.7132"/>
</g>
<!-- Node49&#45;&gt;Node3 -->
<g id="edge31" class="edge">
<title>Node49&#45;&gt;Node3</title>
<path fill="none" stroke="#191970" d="M1613.2313,-168.5093C1672.0314,-159.2957 1785.4873,-141.5177 1858.3795,-130.0958"/>
<polygon fill="#191970" stroke="#191970" points="1859.0482,-133.5338 1868.3858,-128.5279 1857.9645,-126.6182 1859.0482,-133.5338"/>
</g>
<!-- Node49&#45;&gt;Node32 -->
<g id="edge32" class="edge">
<title>Node49&#45;&gt;Node32</title>
<path fill="none" stroke="#191970" d="M1536.8042,-167.4714C1514.9822,-161.2877 1489.3719,-149.8622 1476,-129 1465.3811,-112.4329 1480.7648,-93.2444 1495.4265,-80.1313"/>
<polygon fill="#191970" stroke="#191970" points="1497.9001,-82.6254 1503.3279,-73.5265 1493.4106,-77.2546 1497.9001,-82.6254"/>
</g>
<!-- Node50&#45;&gt;Node2 -->
<g id="edge35" class="edge">
<title>Node50&#45;&gt;Node2</title>
<path fill="none" stroke="#191970" d="M1163.5046,-220.4179C1163.1118,-213.2164 1162.5489,-202.8962 1162.0562,-193.8632"/>
<polygon fill="#191970" stroke="#191970" points="1165.5457,-193.574 1161.5062,-183.7795 1158.5561,-193.9553 1165.5457,-193.574"/>
</g>
<!-- Node50&#45;&gt;Node3 -->
<g id="edge34" class="edge">
<title>Node50&#45;&gt;Node3</title>
<path fill="none" stroke="#191970" d="M1213.446,-228.799C1365.9285,-226.301 1822.0973,-216.1889 1880,-184 1898.1672,-173.9006 1910.9157,-153.2475 1918.312,-138.0206"/>
<polygon fill="#191970" stroke="#191970" points="1921.6654,-139.0976 1922.5782,-128.5422 1915.2821,-136.2245 1921.6654,-139.0976"/>
</g>
<!-- Node50&#45;&gt;Node51 -->
<g id="edge36" class="edge">
<title>Node50&#45;&gt;Node51</title>
<path fill="none" stroke="#191970" d="M1114.2796,-224.937C1036.3969,-216.0717 882.7819,-191.5611 769,-129 746.2427,-116.4873 724.5203,-95.7775 710.7799,-81.2071"/>
<polygon fill="#191970" stroke="#191970" points="713.3529,-78.8343 704.0116,-73.8351 708.1965,-83.5685 713.3529,-78.8343"/>
</g>
<!-- Node51&#45;&gt;Node37 -->
<g id="edge38" class="edge">
<title>Node51&#45;&gt;Node37</title>
<path fill="none" stroke="#191970" d="M701.4493,-55.4179C706.0076,-47.8207 712.6484,-36.7527 718.268,-27.3866"/>
<polygon fill="#191970" stroke="#191970" points="721.2886,-29.1552 723.4323,-18.7795 715.2861,-25.5536 721.2886,-29.1552"/>
</g>
<!-- Node51&#45;&gt;Node41 -->
<g id="edge39" class="edge">
<title>Node51&#45;&gt;Node41</title>
<path fill="none" stroke="#191970" d="M733.1724,-61.6607C845.3601,-53.0633 1176.6351,-27.4587 1245.1382,-18.5729"/>
<polygon fill="#191970" stroke="#191970" points="1245.8397,-22.0063 1255.1925,-17.0286 1244.777,-15.0874 1245.8397,-22.0063"/>
</g>
<!-- Node13 -->
<g id="node20" class="node">
<title>Node13</title>
<polygon fill="#ffffff" stroke="#bfbfbf" points="1190.1577,-.5 1190.1577,-18.5 1237.8423,-18.5 1237.8423,-.5 1190.1577,-.5"/>
<text text-anchor="middle" x="1214" y="-6.5" font-family="Helvetica,sans-Serif" font-size="10.00" fill="#000000">stdlib.h</text>
</g>
<!-- Node51&#45;&gt;Node13 -->
<g id="edge37" class="edge">
<title>Node51&#45;&gt;Node13</title>
<path fill="none" stroke="#191970" d="M733.2533,-60.5445C829.8606,-50.287 1087.3664,-22.9457 1180.1136,-13.098"/>
<polygon fill="#191970" stroke="#191970" points="1180.5096,-16.5757 1190.0841,-12.0393 1179.7705,-9.6148 1180.5096,-16.5757"/>
</g>
<!-- Node51&#45;&gt;Node53 -->
<g id="edge40" class="edge">
<title>Node51&#45;&gt;Node53</title>
<path fill="none" stroke="#191970" d="M674.5331,-55.4179C653.363,-46.4613 620.7906,-32.6806 596.8502,-22.552"/>
<polygon fill="#191970" stroke="#191970" points="598.0722,-19.2687 587.4987,-18.5956 595.3447,-25.7155 598.0722,-19.2687"/>
</g>
<!-- Node55&#45;&gt;Node32 -->
<g id="edge45" class="edge">
<title>Node55&#45;&gt;Node32</title>
<path fill="none" stroke="#191970" d="M1315.0812,-113.5257C1319.6891,-112.3466 1324.4963,-111.126 1329,-110 1379.2212,-97.4434 1437.1478,-83.4199 1475.0581,-74.3042"/>
<polygon fill="#191970" stroke="#191970" points="1476.2911,-77.6077 1485.1969,-71.8686 1474.6559,-70.8013 1476.2911,-77.6077"/>
</g>
<!-- Node55&#45;&gt;Node41 -->
<g id="edge48" class="edge">
<title>Node55&#45;&gt;Node41</title>
<path fill="none" stroke="#191970" d="M1315.4579,-111.0085C1341.7456,-100.0802 1378.8642,-79.5481 1364,-55 1352.0461,-35.2583 1328.4001,-23.6714 1308.7738,-17.1356"/>
<polygon fill="#191970" stroke="#191970" points="1309.5454,-13.7123 1298.9601,-14.1618 1307.5153,-20.4115 1309.5454,-13.7123"/>
</g>
<!-- Node55&#45;&gt;Node45 -->
<g id="edge46" class="edge">
<title>Node55&#45;&gt;Node45</title>
<path fill="none" stroke="#191970" d="M1315.1023,-115.7629C1372.5123,-106.4759 1522.1393,-82.2716 1593.3069,-70.7592"/>
<polygon fill="#191970" stroke="#191970" points="1593.9046,-74.2081 1603.2174,-69.156 1592.7868,-67.2979 1593.9046,-74.2081"/>
</g>
<!-- Node56 -->
<g id="node23" class="node">
<title>Node56</title>
<g id="a_node23"><a xlink:href="ripemd160_8h.html" target="_top" xlink:title="crypto/ripemd160.h">
<polygon fill="#ffffff" stroke="#000000" points="1253.1997,-55.5 1253.1997,-73.5 1354.8003,-73.5 1354.8003,-55.5 1253.1997,-55.5"/>
<text text-anchor="middle" x="1304" y="-61.5" font-family="Helvetica,sans-Serif" font-size="10.00" fill="#000000">crypto/ripemd160.h</text>
</a>
</g>
</g>
<!-- Node55&#45;&gt;Node56 -->
<g id="edge42" class="edge">
<title>Node55&#45;&gt;Node56</title>
<path fill="none" stroke="#191970" d="M1293.9816,-110.4179C1295.5701,-103.1372 1297.854,-92.669 1299.8402,-83.5659"/>
<polygon fill="#191970" stroke="#191970" points="1303.2632,-84.2957 1301.9754,-73.7795 1296.4241,-82.8035 1303.2632,-84.2957"/>
</g>
<!-- Node64 -->
<g id="node24" class="node">
<title>Node64</title>
<g id="a_node24"><a xlink:href="version_8h.html" target="_top" xlink:title="version.h">
<polygon fill="#ffffff" stroke="#000000" points="1410.7119,-55.5 1410.7119,-73.5 1467.2881,-73.5 1467.2881,-55.5 1410.7119,-55.5"/>
<text text-anchor="middle" x="1439" y="-61.5" font-family="Helvetica,sans-Serif" font-size="10.00" fill="#000000">version.h</text>
</a>
</g>
</g>
<!-- Node55&#45;&gt;Node64 -->
<g id="edge47" class="edge">
<title>Node55&#45;&gt;Node64</title>
<path fill="none" stroke="#191970" d="M1315.2926,-110.7851C1339.519,-101.7208 1377.6855,-87.4408 1405.221,-77.1384"/>
<polygon fill="#191970" stroke="#191970" points="1406.6997,-80.3222 1414.8392,-73.5398 1404.2467,-73.766 1406.6997,-80.3222"/>
</g>
<!-- Node56&#45;&gt;Node4 -->
<g id="edge43" class="edge">
<title>Node56&#45;&gt;Node4</title>
<path fill="none" stroke="#191970" d="M1354.8163,-58.9878C1369.9803,-57.5013 1386.6498,-56.0234 1402,-55 1881.8946,-23.0068 2467.3725,-12.2741 2613.6516,-9.9972"/>
<polygon fill="#191970" stroke="#191970" points="2613.8546,-13.4946 2623.7998,-9.8419 2613.7474,-6.4954 2613.8546,-13.4946"/>
</g>
<!-- Node56&#45;&gt;Node13 -->
<g id="edge44" class="edge">
<title>Node56&#45;&gt;Node13</title>
<path fill="none" stroke="#191970" d="M1289.1383,-55.4179C1275.1986,-46.8992 1254.118,-34.0166 1237.8299,-24.0627"/>
<polygon fill="#191970" stroke="#191970" points="1239.2417,-20.8237 1228.8837,-18.5956 1235.5915,-26.7967 1239.2417,-20.8237"/>
</g>
<!-- Node65&#45;&gt;Node5 -->
<g id="edge56" class="edge">
<title>Node65&#45;&gt;Node5</title>
<path fill="none" stroke="#191970" d="M2276.9802,-111.4027C2280.028,-110.9001 2283.0586,-110.426 2286,-110 2432.5123,-88.7796 2607.9838,-73.6286 2684.7754,-67.5066"/>
<polygon fill="#191970" stroke="#191970" points="2685.2497,-70.9801 2694.9428,-66.703 2684.6981,-64.0019 2685.2497,-70.9801"/>
</g>
<!-- Node65&#45;&gt;Node32 -->
<g id="edge57" class="edge">
<title>Node65&#45;&gt;Node32</title>
<path fill="none" stroke="#191970" d="M2192.9401,-117.2491C2090.4038,-111.6019 1819.4329,-95.7153 1594,-74 1581.9222,-72.8366 1568.8212,-71.3348 1556.866,-69.8702"/>
<polygon fill="#191970" stroke="#191970" points="1557.066,-66.3681 1546.7094,-68.6022 1556.1988,-73.3142 1557.066,-66.3681"/>
</g>
<!-- Node65&#45;&gt;Node39 -->
<g id="edge58" class="edge">
<title>Node65&#45;&gt;Node39</title>
<path fill="none" stroke="#191970" d="M2229.3195,-110.1661C2220.3393,-96.1767 2201.5472,-69.8347 2179,-55 2144.1504,-32.0711 2096.9518,-20.0246 2066.4859,-14.2175"/>
<polygon fill="#191970" stroke="#191970" points="2066.9165,-10.7389 2056.4552,-12.416 2065.679,-17.6286 2066.9165,-10.7389"/>
</g>
<!-- Node78&#45;&gt;Node4 -->
<g id="edge74" class="edge">
<title>Node78&#45;&gt;Node4</title>
<path fill="none" stroke="#191970" d="M1373.5291,-349.3874C1542.4238,-348.643 2301.029,-343.1402 2533,-304 2630.597,-287.5326 2652.4622,-271.3578 2746,-239 2768.0742,-231.3638 2772.5937,-226.5984 2795,-220 2818.5277,-213.0713 3209.327,-146.0066 3227,-129 3251.1188,-105.7906 3263.7451,-79.5572 3241,-55 3221.8894,-34.3669 2805.6901,-15.8941 2682.2264,-10.8525"/>
<polygon fill="#191970" stroke="#191970" points="2682.3276,-7.3538 2672.1941,-10.4461 2682.0443,-14.3481 2682.3276,-7.3538"/>
</g>
<!-- Node78&#45;&gt;Node5 -->
<g id="edge63" class="edge">
<title>Node78&#45;&gt;Node5</title>
<path fill="none" stroke="#191970" d="M1373.385,-349.0266C1534.236,-346.6078 2230.3173,-334.5342 2445,-304 2564.6334,-286.9846 2594.0283,-276.1911 2709,-239 2710.9386,-238.3729 2843.8609,-185.6894 2845,-184 2849.7209,-176.9985 2848.588,-172.6443 2845,-165 2842.2573,-159.1567 2777.5435,-107.1087 2743.9085,-80.3051"/>
<polygon fill="#191970" stroke="#191970" points="2745.7067,-77.2631 2735.7024,-73.7753 2741.348,-82.7406 2745.7067,-77.2631"/>
</g>
<!-- Node78&#45;&gt;Node33 -->
<g id="edge72" class="edge">
<title>Node78&#45;&gt;Node33</title>
<path fill="none" stroke="#191970" d="M1373.4293,-348.8782C1547.9433,-345.5437 2355.8616,-328.9951 2605,-304 2929.9748,-271.3966 3050.0902,-352.2917 3330,-184 3380.6253,-153.5622 3397.1218,-102.4957 3362,-55 3349.8342,-38.548 3329.9708,-27.5607 3312.1917,-20.5121"/>
<polygon fill="#191970" stroke="#191970" points="3313.1846,-17.1484 3302.5909,-16.9917 3310.7747,-23.7205 3313.1846,-17.1484"/>
</g>
<!-- Node78&#45;&gt;Node37 -->
<g id="edge73" class="edge">
<title>Node78&#45;&gt;Node37</title>
<path fill="none" stroke="#191970" d="M1306.6622,-348.6326C1203.2336,-345.6443 888.9437,-334.2454 792,-304 736.6911,-286.7442 713.0829,-285.8529 679,-239 634.9008,-178.3781 651.8204,-148.556 644,-74 643.1191,-65.6016 639.6609,-62.2444 644,-55 654.717,-37.1074 675.1391,-25.8532 693.2795,-19.0141"/>
<polygon fill="#191970" stroke="#191970" points="694.4569,-22.3104 702.7696,-15.7416 692.1749,-15.6928 694.4569,-22.3104"/>
</g>
<!-- Node78&#45;&gt;Node39 -->
<g id="edge75" class="edge">
<title>Node78&#45;&gt;Node39</title>
<path fill="none" stroke="#191970" d="M1373.3045,-348.5141C1492.815,-344.7867 1899.7196,-330.4083 2027,-304 2111.1017,-286.5505 2154.5843,-305.4569 2209,-239 2229.9575,-213.405 2229.6594,-195.5624 2217,-165 2213.6927,-157.0154 2113.7328,-60.4185 2107,-55 2092.4981,-43.329 2074.887,-32.0272 2060.8327,-23.6069"/>
<polygon fill="#191970" stroke="#191970" points="2062.5726,-20.5698 2052.179,-18.5148 2059.0225,-26.6028 2062.5726,-20.5698"/>
</g>
<!-- Node78&#45;&gt;Node40 -->
<g id="edge76" class="edge">
<title>Node78&#45;&gt;Node40</title>
<path fill="none" stroke="#191970" d="M1306.6483,-348.1974C1184.6587,-343.2814 766.9035,-325.0596 711,-304 590.4674,-258.5938 567.5535,-223.468 480,-129 450.3623,-97.0217 424.9612,-52.2716 412.0633,-27.6051"/>
<polygon fill="#191970" stroke="#191970" points="415.1432,-25.9405 407.4658,-18.6392 408.9143,-29.1346 415.1432,-25.9405"/>
</g>
<!-- Node78&#45;&gt;Node41 -->
<g id="edge77" class="edge">
<title>Node78&#45;&gt;Node41</title>
<path fill="none" stroke="#191970" d="M1306.3772,-346.3025C1179.4252,-333.8918 734.4226,-287.2054 695,-239 638.1359,-169.4673 494.7154,-361.3285 850,-110 884.6296,-85.503 888.3499,-70.0725 928,-55 1058.3711,-5.4409 1105.3288,-46.7311 1245.3735,-18.9752"/>
<polygon fill="#191970" stroke="#191970" points="1246.0911,-22.401 1255.1765,-16.9507 1244.6752,-15.5456 1246.0911,-22.401"/>
</g>
<!-- Node78&#45;&gt;Node48 -->
<g id="edge64" class="edge">
<title>Node78&#45;&gt;Node48</title>
<path fill="none" stroke="#191970" d="M1306.6186,-342.6172C1250.8234,-331.1131 1139.2154,-308.1011 1083.0064,-296.5116"/>
<polygon fill="#191970" stroke="#191970" points="1083.6824,-293.0775 1073.1816,-294.4859 1082.2688,-299.9333 1083.6824,-293.0775"/>
</g>
<!-- Node78&#45;&gt;Node65 -->
<g id="edge71" class="edge">
<title>Node78&#45;&gt;Node65</title>
<path fill="none" stroke="#191970" d="M1373.3383,-348.683C1523.7011,-344.8751 2134.9745,-328.0331 2217,-304 2272.9709,-287.6008 2301.7018,-289.4311 2331,-239 2347.5213,-210.5619 2348.5842,-192.7934 2331,-165 2320.9324,-149.0873 2303.6266,-138.6301 2286.4569,-131.808"/>
<polygon fill="#191970" stroke="#191970" points="2287.5733,-128.49 2276.9791,-128.3803 2285.1926,-135.0727 2287.5733,-128.49"/>
</g>
<!-- Node83 -->
<g id="node29" class="node">
<title>Node83</title>
<g id="a_node29"><a xlink:href="protocol_8h.html" target="_top" xlink:title="protocol.h">
<polygon fill="#ffffff" stroke="#ff0000" points="1485.042,-110.5 1485.042,-128.5 1544.958,-128.5 1544.958,-110.5 1485.042,-110.5"/>
<text text-anchor="middle" x="1515" y="-116.5" font-family="Helvetica,sans-Serif" font-size="10.00" fill="#000000">protocol.h</text>
</a>
</g>
</g>
<!-- Node78&#45;&gt;Node83 -->
<g id="edge65" class="edge">
<title>Node78&#45;&gt;Node83</title>
<path fill="none" stroke="#191970" d="M1306.6839,-344.9912C1253.4328,-335.7917 1150.6076,-309.3959 1106,-239 1088.3961,-211.219 1084.0673,-189.5079 1106,-165 1118.2374,-151.3257 1374.3268,-130.2895 1474.929,-122.5191"/>
<polygon fill="#191970" stroke="#191970" points="1475.3052,-126.0006 1485.0078,-121.7449 1474.769,-119.0212 1475.3052,-126.0006"/>
</g>
<!-- Node83&#45;&gt;Node4 -->
<g id="edge69" class="edge">
<title>Node83&#45;&gt;Node4</title>
<path fill="none" stroke="#191970" d="M1545.1817,-116.1475C1608.216,-109.0645 1758.4138,-91.7628 1884,-74 1937.031,-66.4993 1949.7912,-61.1125 2003,-55 2235.4564,-28.2958 2516.9677,-14.9137 2613.5505,-10.8629"/>
<polygon fill="#191970" stroke="#191970" points="2613.7737,-14.3567 2623.6205,-10.4464 2613.4844,-7.3627 2613.7737,-14.3567"/>
</g>
<!-- Node83&#45;&gt;Node32 -->
<g id="edge66" class="edge">
<title>Node83&#45;&gt;Node32</title>
<path fill="none" stroke="#191970" d="M1515.1651,-110.4179C1515.2961,-103.2164 1515.4837,-92.8962 1515.6479,-83.8632"/>
<polygon fill="#191970" stroke="#191970" points="1519.1488,-83.8415 1515.8313,-73.7795 1512.15,-83.7141 1519.1488,-83.8415"/>
</g>
<!-- Node83&#45;&gt;Node39 -->
<g id="edge70" class="edge">
<title>Node83&#45;&gt;Node39</title>
<path fill="none" stroke="#191970" d="M1523.0921,-110.029C1536.2643,-95.3496 1563.9126,-67.4957 1594,-55 1668.8009,-23.9342 1918.2897,-13.2186 2005.5504,-10.3704"/>
<polygon fill="#191970" stroke="#191970" points="2005.7131,-13.8671 2015.598,-10.0542 2005.4928,-6.8706 2005.7131,-13.8671"/>
</g>
<!-- Node83&#45;&gt;Node45 -->
<g id="edge67" class="edge">
<title>Node83&#45;&gt;Node45</title>
<path fill="none" stroke="#191970" d="M1534.3202,-110.4179C1553.1193,-101.5807 1581.9085,-88.0473 1603.3689,-77.9591"/>
<polygon fill="#191970" stroke="#191970" points="1605.0902,-81.0174 1612.6511,-73.5956 1602.1122,-74.6824 1605.0902,-81.0174"/>
</g>
<!-- Node83&#45;&gt;Node64 -->
<g id="edge68" class="edge">
<title>Node83&#45;&gt;Node64</title>
<path fill="none" stroke="#191970" d="M1502.4501,-110.4179C1490.8989,-102.0584 1473.5408,-89.4966 1459.8985,-79.6239"/>
<polygon fill="#191970" stroke="#191970" points="1461.7216,-76.6229 1451.5685,-73.5956 1457.6177,-82.2938 1461.7216,-76.6229"/>
</g>
<!-- Node88&#45;&gt;Node2 -->
<g id="edge92" class="edge">
<title>Node88&#45;&gt;Node2</title>
<path fill="none" stroke="#191970" d="M1898.7357,-225.7886C1885.0424,-223.811 1867.599,-221.4864 1852,-220 1572.3662,-193.3541 1500.2937,-214.0019 1221,-184 1219.899,-183.8817 1218.7873,-183.7572 1217.6677,-183.6271"/>
<polygon fill="#191970" stroke="#191970" points="1217.8145,-180.1175 1207.4522,-182.325 1216.9294,-187.0613 1217.8145,-180.1175"/>
</g>
<!-- Node88&#45;&gt;Node41 -->
<g id="edge96" class="edge">
<title>Node88&#45;&gt;Node41</title>
<path fill="none" stroke="#191970" d="M1898.7081,-226.0492C1885.0061,-224.1531 1867.5632,-221.8232 1852,-220 1693.1726,-201.3936 1652.2909,-206.7232 1494,-184 1477.5519,-181.6388 1213.2314,-139.0521 1200,-129 1172.1228,-107.8212 1153.8375,-84.2998 1173,-55 1177.3127,-48.4058 1216.8225,-32.2942 1245.8715,-21.1295"/>
<polygon fill="#191970" stroke="#191970" points="1247.1575,-24.3851 1255.2559,-17.5538 1244.665,-17.8438 1247.1575,-24.3851"/>
</g>
<!-- Node88&#45;&gt;Node45 -->
<g id="edge95" class="edge">
<title>Node88&#45;&gt;Node45</title>
<path fill="none" stroke="#191970" d="M1898.8322,-223.3537C1853.648,-211.8126 1760.3372,-187.722 1754,-184 1714.4321,-160.7609 1714.9846,-141.9013 1682,-110 1671.6903,-100.0289 1659.83,-89.2093 1650.2487,-80.6234"/>
<polygon fill="#191970" stroke="#191970" points="1652.3066,-77.7693 1642.5117,-73.7307 1647.6502,-82.996 1652.3066,-77.7693"/>
</g>
<!-- Node89 -->
<g id="node31" class="node">
<title>Node89</title>
<g id="a_node31"><a xlink:href="arith__uint256_8h.html" target="_top" xlink:title="arith_uint256.h">
<polygon fill="#ffffff" stroke="#ff0000" points="1792.9189,-55.5 1792.9189,-73.5 1875.0811,-73.5 1875.0811,-55.5 1792.9189,-55.5"/>
<text text-anchor="middle" x="1834" y="-61.5" font-family="Helvetica,sans-Serif" font-size="10.00" fill="#000000">arith_uint256.h</text>
</a>
</g>
</g>
<!-- Node88&#45;&gt;Node89 -->
<g id="edge84" class="edge">
<title>Node88&#45;&gt;Node89</title>
<path fill="none" stroke="#191970" d="M1935.8818,-220.3758C1963.3912,-199.7867 2023.0883,-148.5137 1994,-110 1980.7747,-92.4894 1926.8675,-79.7344 1885.2392,-72.2595"/>
<polygon fill="#191970" stroke="#191970" points="1885.6739,-68.7826 1875.2222,-70.5185 1884.4752,-75.6793 1885.6739,-68.7826"/>
</g>
<!-- Node90 -->
<g id="node32" class="node">
<title>Node90</title>
<g id="a_node32"><a xlink:href="params_8h.html" target="_top" xlink:title="consensus/params.h">
<polygon fill="#ffffff" stroke="#ff0000" points="1762.8647,-165.5 1762.8647,-183.5 1871.1353,-183.5 1871.1353,-165.5 1762.8647,-165.5"/>
<text text-anchor="middle" x="1817" y="-171.5" font-family="Helvetica,sans-Serif" font-size="10.00" fill="#000000">consensus/params.h</text>
</a>
</g>
</g>
<!-- Node88&#45;&gt;Node90 -->
<g id="edge89" class="edge">
<title>Node88&#45;&gt;Node90</title>
<path fill="none" stroke="#191970" d="M1905.4963,-220.4179C1888.618,-211.6603 1862.8512,-198.2907 1843.4664,-188.2326"/>
<polygon fill="#191970" stroke="#191970" points="1845.018,-185.0946 1834.5297,-183.5956 1841.7941,-191.308 1845.018,-185.0946"/>
</g>
<!-- Node91 -->
<g id="node33" class="node">
<title>Node91</title>
<g id="a_node33"><a xlink:href="tinyformat_8h.html" target="_top" xlink:title="tinyformat.h">
<polygon fill="#ffffff" stroke="#ff0000" points="3148.8794,-55.5 3148.8794,-73.5 3217.1206,-73.5 3217.1206,-55.5 3148.8794,-55.5"/>
<text text-anchor="middle" x="3183" y="-61.5" font-family="Helvetica,sans-Serif" font-size="10.00" fill="#000000">tinyformat.h</text>
</a>
</g>
</g>
<!-- Node88&#45;&gt;Node91 -->
<g id="edge93" class="edge">
<title>Node88&#45;&gt;Node91</title>
<path fill="none" stroke="#191970" d="M1947.2171,-227.3286C1970.4807,-225.2831 2006.6255,-222.2109 2038,-220 2312.0091,-200.6913 2381.4263,-208.7232 2655,-184 2724.1228,-177.7533 2741.0356,-172.8036 2810,-165 2887.0334,-156.2834 3095.073,-175.6388 3157,-129 3171.1409,-118.3501 3177.6125,-98.7407 3180.5612,-83.9287"/>
<polygon fill="#191970" stroke="#191970" points="3184.0635,-84.1941 3182.198,-73.7648 3177.1525,-83.0811 3184.0635,-84.1941"/>
</g>
<!-- Node89&#45;&gt;Node4 -->
<g id="edge86" class="edge">
<title>Node89&#45;&gt;Node4</title>
<path fill="none" stroke="#191970" d="M1875.3723,-56.8466C1879.9599,-56.1492 1884.5723,-55.5135 1889,-55 2167.2703,-22.728 2505.7512,-12.694 2613.4023,-10.2056"/>
<polygon fill="#191970" stroke="#191970" points="2613.7461,-13.6989 2623.665,-9.9754 2613.589,-6.7007 2613.7461,-13.6989"/>
</g>
<!-- Node89&#45;&gt;Node12 -->
<g id="edge85" class="edge">
<title>Node89&#45;&gt;Node12</title>
<path fill="none" stroke="#191970" d="M1800.6438,-55.4179C1764.077,-45.4616 1705.6171,-29.5443 1668.0246,-19.3087"/>
<polygon fill="#191970" stroke="#191970" points="1668.5788,-15.8322 1658.0105,-16.5821 1666.7398,-22.5863 1668.5788,-15.8322"/>
</g>
<!-- Node89&#45;&gt;Node39 -->
<g id="edge87" class="edge">
<title>Node89&#45;&gt;Node39</title>
<path fill="none" stroke="#191970" d="M1867.3562,-55.4179C1905.8691,-44.9317 1968.6676,-27.8331 2005.7937,-17.7245"/>
<polygon fill="#191970" stroke="#191970" points="2006.8137,-21.0743 2015.5429,-15.07 2004.9747,-14.3201 2006.8137,-21.0743"/>
</g>
<!-- Node89&#45;&gt;Node41 -->
<g id="edge88" class="edge">
<title>Node89&#45;&gt;Node41</title>
<path fill="none" stroke="#191970" d="M1792.9098,-57.03C1788.2267,-56.2895 1783.5154,-55.5936 1779,-55 1602.4956,-31.7959 1389.5103,-16.7381 1309.4818,-11.5325"/>
<polygon fill="#191970" stroke="#191970" points="1309.2937,-8.0132 1299.0895,-10.8635 1308.844,-14.9988 1309.2937,-8.0132"/>
</g>
<!-- Node90&#45;&gt;Node39 -->
<g id="edge91" class="edge">
<title>Node90&#45;&gt;Node39</title>
<path fill="none" stroke="#191970" d="M1821.1146,-165.1684C1827.4443,-151.65 1840.6763,-126.4416 1858,-110 1902.541,-67.727 1968.1931,-36.6848 2006.0675,-21.0045"/>
<polygon fill="#191970" stroke="#191970" points="2007.5685,-24.1728 2015.5207,-17.1719 2004.9384,-17.6857 2007.5685,-24.1728"/>
</g>
<!-- Node90&#45;&gt;Node45 -->
<g id="edge90" class="edge">
<title>Node90&#45;&gt;Node45</title>
<path fill="none" stroke="#191970" d="M1807.603,-165.1675C1793.6066,-151.6478 1766.0224,-126.4379 1739,-110 1716.8167,-96.5057 1689.9122,-85.085 1668.6313,-77.0608"/>
<polygon fill="#191970" stroke="#191970" points="1669.5782,-73.6798 1658.9847,-73.5093 1667.1597,-80.2488 1669.5782,-73.6798"/>
</g>
<!-- Node91&#45;&gt;Node33 -->
<g id="edge94" class="edge">
<title>Node91&#45;&gt;Node33</title>
<path fill="none" stroke="#191970" d="M3198.0268,-55.4179C3212.2531,-46.8195 3233.8353,-33.7754 3250.3658,-23.7844"/>
<polygon fill="#191970" stroke="#191970" points="3252.203,-26.7637 3258.9509,-18.5956 3248.5822,-20.7729 3252.203,-26.7637"/>
</g>
<!-- Node96&#45;&gt;Node2 -->
<g id="edge103" class="edge">
<title>Node96&#45;&gt;Node2</title>
<path fill="none" stroke="#191970" d="M786.0262,-224.0759C860.8764,-214.1798 1019.6907,-193.1827 1104.6309,-181.9526"/>
<polygon fill="#191970" stroke="#191970" points="1105.1577,-185.4135 1114.6127,-180.6329 1104.2402,-178.4739 1105.1577,-185.4135"/>
</g>
<!-- Node96&#45;&gt;Node37 -->
<g id="edge105" class="edge">
<title>Node96&#45;&gt;Node37</title>
<path fill="none" stroke="#191970" d="M731.4156,-220.4611C719.8469,-212.1639 703.4799,-198.9211 693,-184 662.8302,-141.0449 659.7239,-125.583 650,-74 648.4357,-65.7017 645.7739,-62.3109 650,-55 659.4024,-38.7343 677.0705,-27.7703 693.3175,-20.6885"/>
<polygon fill="#191970" stroke="#191970" points="694.6614,-23.9206 702.646,-16.9567 692.0614,-17.4214 694.6614,-23.9206"/>
</g>
<!-- Node96&#45;&gt;Node41 -->
<g id="edge106" class="edge">
<title>Node96&#45;&gt;Node41</title>
<path fill="none" stroke="#191970" d="M753.2777,-220.1911C780.6552,-190.1077 872.1205,-95.1329 970,-55 1081.8371,-9.1441 1123.5812,-43.9032 1245.1146,-19.0593"/>
<polygon fill="#191970" stroke="#191970" points="1246.1214,-22.4231 1255.167,-16.9069 1244.6558,-15.5783 1246.1214,-22.4231"/>
</g>
<!-- Node96&#45;&gt;Node83 -->
<g id="edge104" class="edge">
<title>Node96&#45;&gt;Node83</title>
<path fill="none" stroke="#191970" d="M779.1097,-220.4641C833.048,-206.5049 941.5147,-179.7684 1035,-165 1196.9504,-139.4158 1392.0769,-126.3454 1474.8027,-121.6169"/>
<polygon fill="#191970" stroke="#191970" points="1475.0012,-125.1114 1484.789,-121.0557 1474.6083,-118.1224 1475.0012,-125.1114"/>
</g>
<!-- Node96&#45;&gt;Node90 -->
<g id="edge102" class="edge">
<title>Node96&#45;&gt;Node90</title>
<path fill="none" stroke="#191970" d="M786.2105,-228.2617C920.2838,-224.0849 1356.1637,-209.3397 1716,-184 1727.8725,-183.1639 1740.515,-182.1073 1752.6936,-181.0047"/>
<polygon fill="#191970" stroke="#191970" points="1753.152,-184.4774 1762.7874,-180.0717 1752.5076,-177.5071 1753.152,-184.4774"/>
</g>
<!-- Node97 -->
<g id="node35" class="node">
<title>Node97</title>
<g id="a_node35"><a xlink:href="chainparamsbase_8h.html" target="_top" xlink:title="chainparamsbase.h">
<polygon fill="#ffffff" stroke="#000000" points="979.3623,-55.5 979.3623,-73.5 1082.6377,-73.5 1082.6377,-55.5 979.3623,-55.5"/>
<text text-anchor="middle" x="1031" y="-61.5" font-family="Helvetica,sans-Serif" font-size="10.00" fill="#000000">chainparamsbase.h</text>
</a>
</g>
</g>
<!-- Node96&#45;&gt;Node97 -->
<g id="edge98" class="edge">
<title>Node96&#45;&gt;Node97</title>
<path fill="none" stroke="#191970" d="M760.784,-220.3939C808.1501,-193.0673 949.3211,-111.6224 1006.5229,-78.6214"/>
<polygon fill="#191970" stroke="#191970" points="1008.352,-81.6069 1015.2648,-73.578 1004.8539,-75.5436 1008.352,-81.6069"/>
</g>
<!-- Node97&#45;&gt;Node37 -->
<g id="edge99" class="edge">
<title>Node97&#45;&gt;Node37</title>
<path fill="none" stroke="#191970" d="M981.469,-55.4795C920.757,-44.4226 819.3136,-25.9478 765.3506,-16.1202"/>
<polygon fill="#191970" stroke="#191970" points="765.6826,-12.6231 755.2173,-14.2747 764.4283,-19.5098 765.6826,-12.6231"/>
</g>
<!-- Node97&#45;&gt;Node39 -->
<g id="edge100" class="edge">
<title>Node97&#45;&gt;Node39</title>
<path fill="none" stroke="#191970" d="M1082.9169,-61.6588C1263.7046,-51.7649 1862.3768,-19.0018 2005.2073,-11.1852"/>
<polygon fill="#191970" stroke="#191970" points="2005.6331,-14.6672 2015.4268,-10.6259 2005.2505,-7.6777 2005.6331,-14.6672"/>
</g>
<!-- Node97&#45;&gt;Node41 -->
<g id="edge101" class="edge">
<title>Node97&#45;&gt;Node41</title>
<path fill="none" stroke="#191970" d="M1080.6548,-55.4904C1122.4133,-47.5872 1183.8494,-35.2012 1245.2645,-19.2888"/>
<polygon fill="#191970" stroke="#191970" points="1246.333,-22.6271 1255.1181,-16.7049 1244.5573,-15.856 1246.333,-22.6271"/>
</g>
<!-- Node98&#45;&gt;Node4 -->
<g id="edge110" class="edge">
<title>Node98&#45;&gt;Node4</title>
<path fill="none" stroke="#191970" d="M2379.8956,-110.4982C2431.6565,-90.9993 2554.277,-44.8066 2614.0562,-22.2871"/>
<polygon fill="#191970" stroke="#191970" points="2615.6501,-25.4268 2623.7742,-18.6261 2613.1824,-18.8762 2615.6501,-25.4268"/>
</g>
<!-- Node98&#45;&gt;Node13 -->
<g id="edge109" class="edge">
<title>Node98&#45;&gt;Node13</title>
<path fill="none" stroke="#191970" d="M2294.5694,-110.9079C2291.6747,-110.5833 2288.807,-110.2783 2286,-110 2032.076,-84.8259 1960.8912,-134.5067 1713,-74 1692.7023,-69.0456 1690.2421,-60.1769 1670,-55 1489.9956,-8.9638 1433.8089,-52.5073 1248.0791,-19.0616"/>
<polygon fill="#191970" stroke="#191970" points="1248.4539,-15.5716 1237.9836,-17.1914 1247.1788,-22.4545 1248.4539,-15.5716"/>
</g>
<!-- Node99&#45;&gt;Node4 -->
<g id="edge113" class="edge">
<title>Node99&#45;&gt;Node4</title>
<path fill="none" stroke="#191970" d="M2985.2329,-110.3785C2967.8676,-96.178 2932.065,-68.9684 2897,-55 2823.9743,-25.9098 2731.4313,-15.2578 2682.2986,-11.4799"/>
<polygon fill="#191970" stroke="#191970" points="2682.4345,-7.9807 2672.2093,-10.7547 2681.9326,-14.9627 2682.4345,-7.9807"/>
</g>
<!-- Node99&#45;&gt;Node5 -->
<g id="edge112" class="edge">
<title>Node99&#45;&gt;Node5</title>
<path fill="none" stroke="#191970" d="M2945.1721,-110.4189C2899.8911,-102.1481 2831.5977,-89.2324 2763.1118,-74.1593"/>
<polygon fill="#191970" stroke="#191970" points="2763.5292,-70.667 2753.0087,-71.9201 2762.0144,-77.5011 2763.5292,-70.667"/>
</g>
<!-- Node99&#45;&gt;Node41 -->
<g id="edge114" class="edge">
<title>Node99&#45;&gt;Node41</title>
<path fill="none" stroke="#191970" d="M2940.1978,-110.8276C2937.4293,-110.5195 2934.6851,-110.2406 2932,-110 2677.7818,-87.2237 2032.3601,-132.8468 1784,-74 1764.4573,-69.3695 1762.3793,-60.2726 1743,-55 1660.6663,-32.5993 1399.9799,-16.3395 1308.8345,-11.2134"/>
<polygon fill="#191970" stroke="#191970" points="1309.0059,-7.7176 1298.827,-10.6572 1308.6174,-14.7069 1309.0059,-7.7176"/>
</g>
<!-- Node100&#45;&gt;Node2 -->
<g id="edge119" class="edge">
<title>Node100&#45;&gt;Node2</title>
<path fill="none" stroke="#191970" d="M1738.2137,-226.655C1637.4379,-220.9204 1410.7641,-206.5626 1221,-184 1219.9004,-183.8693 1218.79,-183.7333 1217.6716,-183.5926"/>
<polygon fill="#191970" stroke="#191970" points="1217.8412,-180.084 1207.464,-182.2204 1216.9085,-187.0216 1217.8412,-180.084"/>
</g>
<!-- Node100&#45;&gt;Node3 -->
<g id="edge118" class="edge">
<title>Node100&#45;&gt;Node3</title>
<path fill="none" stroke="#191970" d="M1843.7308,-221.8585C1868.182,-215.6399 1895.6131,-204.3783 1913,-184 1923.6477,-171.5205 1926.4402,-152.7447 1926.8399,-138.6639"/>
<polygon fill="#191970" stroke="#191970" points="1930.3392,-138.557 1926.7518,-128.588 1923.3395,-138.6183 1930.3392,-138.557"/>
</g>
<!-- Node100&#45;&gt;Node4 -->
<g id="edge116" class="edge">
<title>Node100&#45;&gt;Node4</title>
<path fill="none" stroke="#191970" d="M1843.6247,-223.9913C1858.598,-222.5486 1874.9314,-221.0929 1890,-220 1930.6091,-217.0546 2591.8235,-211.3341 2622,-184 2644.514,-163.6067 2647.7485,-70.0574 2648.0635,-28.959"/>
<polygon fill="#191970" stroke="#191970" points="2651.5636,-28.871 2648.0885,-18.8624 2644.5636,-28.8536 2651.5636,-28.871"/>
</g>
<!-- Node100&#45;&gt;Node41 -->
<g id="edge117" class="edge">
<title>Node100&#45;&gt;Node41</title>
<path fill="none" stroke="#191970" d="M1738.3312,-227.9477C1581.5747,-223.0741 1127.5424,-207.0208 1106,-184 1079.0411,-155.191 1014.4084,-182.0713 1135,-55 1135.4952,-54.4782 1203.8279,-32.7243 1245.509,-19.4889"/>
<polygon fill="#191970" stroke="#191970" points="1246.7503,-22.767 1255.2226,-16.4054 1244.6323,-16.0951 1246.7503,-22.767"/>
</g>
<!-- Node100&#45;&gt;Node45 -->
<g id="edge120" class="edge">
<title>Node100&#45;&gt;Node45</title>
<path fill="none" stroke="#191970" d="M1752.4034,-220.4825C1718.4654,-211.7958 1672.5698,-197.952 1660,-184 1634.7789,-156.0056 1631.041,-109.6677 1631.1411,-83.6851"/>
<polygon fill="#191970" stroke="#191970" points="1634.6418,-83.6932 1631.3805,-73.6128 1627.6437,-83.5268 1634.6418,-83.6932"/>
</g>
<!-- Node101&#45;&gt;Node2 -->
<g id="edge126" class="edge">
<title>Node101&#45;&gt;Node2</title>
<path fill="none" stroke="#191970" d="M2047.2399,-225.5833C2019.563,-223.7885 1986.091,-221.6897 1956,-220 1629.4562,-201.6634 1546.3254,-217.6226 1221,-184 1219.8985,-183.8862 1218.7864,-183.7657 1217.6665,-183.6393"/>
<polygon fill="#191970" stroke="#191970" points="1217.8052,-180.1295 1207.4483,-182.3622 1216.937,-187.0754 1217.8052,-180.1295"/>
</g>
<!-- Node101&#45;&gt;Node3 -->
<g id="edge125" class="edge">
<title>Node101&#45;&gt;Node3</title>
<path fill="none" stroke="#191970" d="M2102.4836,-220.1612C2096.7481,-206.1653 2084.0709,-179.815 2065,-165 2043.7571,-148.4977 2016.2924,-137.8616 1991.3932,-131.0626"/>
<polygon fill="#191970" stroke="#191970" points="1992.1903,-127.6538 1981.6337,-128.5532 1990.447,-134.4333 1992.1903,-127.6538"/>
</g>
<!-- Node101&#45;&gt;Node39 -->
<g id="edge122" class="edge">
<title>Node101&#45;&gt;Node39</title>
<path fill="none" stroke="#191970" d="M2103.6501,-220.2503C2100.401,-207.6677 2094.2291,-184.4902 2088,-165 2082.8212,-148.7962 2080.5285,-145.0878 2075,-129 2062.8158,-93.544 2049.4215,-51.8602 2041.9282,-28.2741"/>
<polygon fill="#191970" stroke="#191970" points="2045.1969,-27.0024 2038.8403,-18.5263 2038.5237,-29.1164 2045.1969,-27.0024"/>
</g>
<!-- Node101&#45;&gt;Node64 -->
<g id="edge123" class="edge">
<title>Node101&#45;&gt;Node64</title>
<path fill="none" stroke="#191970" d="M2047.1972,-225.3831C1902.4602,-215.1826 1539.7905,-189.1869 1528,-184 1495.1861,-169.5645 1490.0596,-158.0108 1469,-129 1458.8101,-114.9628 1450.7711,-96.9132 1445.5902,-83.4794"/>
<polygon fill="#191970" stroke="#191970" points="1448.7914,-82.0429 1442.0614,-73.8601 1442.2196,-84.4538 1448.7914,-82.0429"/>
</g>
<!-- Node101&#45;&gt;Node98 -->
<g id="edge124" class="edge">
<title>Node101&#45;&gt;Node98</title>
<path fill="none" stroke="#191970" d="M2126.4585,-220.4982C2170.4997,-201.1201 2274.4586,-155.3782 2325.9806,-132.7085"/>
<polygon fill="#191970" stroke="#191970" points="2327.5152,-135.8572 2335.2588,-128.6261 2324.696,-129.45 2327.5152,-135.8572"/>
</g>
<!-- Node102&#45;&gt;Node4 -->
<g id="edge134" class="edge">
<title>Node102&#45;&gt;Node4</title>
<path fill="none" stroke="#191970" d="M1707.4325,-165.5114C1738.5447,-151.493 1801.7634,-124.5283 1858,-110 2143.6562,-36.203 2502.0066,-15.6046 2613.3745,-10.7923"/>
<polygon fill="#191970" stroke="#191970" points="2613.8213,-14.2768 2623.6666,-10.3627 2613.5293,-7.2829 2613.8213,-14.2768"/>
</g>
<!-- Node102&#45;&gt;Node5 -->
<g id="edge129" class="edge">
<title>Node102&#45;&gt;Node5</title>
<path fill="none" stroke="#191970" d="M1707.338,-171.6347C1720.4879,-169.7065 1738.2848,-167.1359 1754,-165 1944.9128,-139.0522 1992.406,-130.3153 2184,-110 2371.2233,-90.1481 2595.7114,-73.5297 2684.8007,-67.2201"/>
<polygon fill="#191970" stroke="#191970" points="2685.2534,-70.697 2694.9825,-66.5022 2684.761,-63.7143 2685.2534,-70.697"/>
</g>
<!-- Node102&#45;&gt;Node37 -->
<g id="edge135" class="edge">
<title>Node102&#45;&gt;Node37</title>
<path fill="none" stroke="#191970" d="M1668.6804,-171.4915C1655.5386,-169.501 1637.7437,-166.915 1622,-165 1461.5004,-145.4778 1420.0259,-152.0859 1260,-129 1130.1578,-110.2685 1097.8953,-103.2004 970,-74 896.6315,-57.2489 811.838,-33.524 764.9256,-20.0083"/>
<polygon fill="#191970" stroke="#191970" points="765.809,-16.6204 755.2303,-17.2048 763.8645,-23.3449 765.809,-16.6204"/>
</g>
<!-- Node102&#45;&gt;Node45 -->
<g id="edge133" class="edge">
<title>Node102&#45;&gt;Node45</title>
<path fill="none" stroke="#191970" d="M1685.2216,-165.4554C1681.1472,-152.7141 1672.9458,-128.9226 1663,-110 1657.8399,-100.1827 1650.989,-89.9175 1645.04,-81.6272"/>
<polygon fill="#191970" stroke="#191970" points="1647.8139,-79.4916 1639.0615,-73.5212 1642.1804,-83.6466 1647.8139,-79.4916"/>
</g>
<!-- Node102&#45;&gt;Node55 -->
<g id="edge130" class="edge">
<title>Node102&#45;&gt;Node55</title>
<path fill="none" stroke="#191970" d="M1668.655,-171.6846C1655.5022,-169.778 1637.7046,-167.2129 1622,-165 1513.4113,-149.699 1384.64,-132.1025 1325.1573,-124.0053"/>
<polygon fill="#191970" stroke="#191970" points="1325.5923,-120.5324 1315.2117,-122.6521 1324.6485,-127.4685 1325.5923,-120.5324"/>
</g>
<!-- Node102&#45;&gt;Node65 -->
<g id="edge131" class="edge">
<title>Node102&#45;&gt;Node65</title>
<path fill="none" stroke="#191970" d="M1707.3157,-171.459C1720.4558,-169.4545 1738.2503,-166.8649 1754,-165 1925.5443,-144.6882 1969.0651,-145.6849 2141,-129 2154.5301,-127.687 2169.1513,-126.2285 2182.7392,-124.8563"/>
<polygon fill="#191970" stroke="#191970" points="2183.2971,-128.3178 2192.8934,-123.8277 2182.5915,-121.3535 2183.2971,-128.3178"/>
</g>
<!-- Node102&#45;&gt;Node83 -->
<g id="edge132" class="edge">
<title>Node102&#45;&gt;Node83</title>
<path fill="none" stroke="#191970" d="M1668.825,-168.4039C1641.0018,-159.5584 1588.8581,-142.9809 1553.056,-131.5987"/>
<polygon fill="#191970" stroke="#191970" points="1554.0155,-128.2312 1543.4251,-128.5369 1551.8947,-134.9022 1554.0155,-128.2312"/>
</g>
<!-- Node121&#45;&gt;Node39 -->
<g id="edge143" class="edge">
<title>Node121&#45;&gt;Node39</title>
<path fill="none" stroke="#191970" d="M2554.4763,-165.4533C2538.8762,-157.5046 2517.1843,-144.7597 2502,-129 2475.6076,-101.6074 2490.9053,-75.7114 2459,-55 2426.1867,-33.6992 2157.974,-16.4921 2066.4613,-11.1917"/>
<polygon fill="#191970" stroke="#191970" points="2066.6316,-7.6958 2056.4479,-10.6186 2066.2315,-14.6844 2066.6316,-7.6958"/>
</g>
<!-- Node121&#45;&gt;Node65 -->
<g id="edge139" class="edge">
<title>Node121&#45;&gt;Node65</title>
<path fill="none" stroke="#191970" d="M2534.8141,-168.6581C2481.2437,-160.5952 2381.8881,-145.3686 2287.0571,-129.1455"/>
<polygon fill="#191970" stroke="#191970" points="2287.4565,-125.6629 2277.0083,-127.4196 2286.2716,-132.5619 2287.4565,-125.6629"/>
</g>
<!-- Node121&#45;&gt;Node98 -->
<g id="edge138" class="edge">
<title>Node121&#45;&gt;Node98</title>
<path fill="none" stroke="#191970" d="M2538.0017,-165.4179C2500.654,-155.9953 2442.1441,-141.2336 2401.5893,-131.0019"/>
<polygon fill="#191970" stroke="#191970" points="2402.2418,-127.5569 2391.6894,-128.5042 2400.5294,-134.3442 2402.2418,-127.5569"/>
</g>
<!-- Node121&#45;&gt;Node123 -->
<g id="edge140" class="edge">
<title>Node121&#45;&gt;Node123</title>
<path fill="none" stroke="#191970" d="M2571.0277,-165.4179C2568.6449,-158.1372 2565.2189,-147.669 2562.2397,-138.5659"/>
<polygon fill="#191970" stroke="#191970" points="2565.4738,-137.1948 2559.0369,-128.7795 2558.821,-139.3721 2565.4738,-137.1948"/>
</g>
<!-- Node123&#45;&gt;Node4 -->
<g id="edge142" class="edge">
<title>Node123&#45;&gt;Node4</title>
<path fill="none" stroke="#191970" d="M2563.5287,-110.4982C2578.8935,-92.1273 2614.0755,-50.0619 2633.8459,-26.4233"/>
<polygon fill="#191970" stroke="#191970" points="2636.6364,-28.5424 2640.3672,-18.6261 2631.2669,-24.0515 2636.6364,-28.5424"/>
</g>
<!-- Node123&#45;&gt;Node45 -->
<g id="edge141" class="edge">
<title>Node123&#45;&gt;Node45</title>
<path fill="none" stroke="#191970" d="M2510.8944,-115.9532C2485.8893,-114.05 2454.2332,-111.7441 2426,-110 2109.3112,-90.4362 2029.1845,-100.4946 1713,-74 1699.3061,-72.8525 1684.3532,-71.2097 1671.0642,-69.612"/>
<polygon fill="#191970" stroke="#191970" points="1671.1719,-66.0989 1660.8191,-68.3506 1670.3165,-73.0464 1671.1719,-66.0989"/>
</g>
<!-- Node125&#45;&gt;Node4 -->
<g id="edge146" class="edge">
<title>Node125&#45;&gt;Node4</title>
<path fill="none" stroke="#191970" d="M2879.2203,-228.3775C2962.8756,-223.8117 3267.0667,-205.8354 3304,-184 3355.45,-153.5822 3382.8573,-98.6237 3342,-55 3319.2221,-30.6798 2819.5945,-14.4676 2682.516,-10.4661"/>
<polygon fill="#191970" stroke="#191970" points="2682.2905,-6.9582 2672.1936,-10.168 2682.0883,-13.9553 2682.2905,-6.9582"/>
</g>
<!-- Node125&#45;&gt;Node90 -->
<g id="edge145" class="edge">
<title>Node125&#45;&gt;Node90</title>
<path fill="none" stroke="#191970" d="M2836.7339,-228.3764C2713.1924,-221.8493 2086.2473,-188.7254 1881.6633,-177.9164"/>
<polygon fill="#191970" stroke="#191970" points="1881.5507,-174.4057 1871.38,-177.3731 1881.1813,-181.3959 1881.5507,-174.4057"/>
</g>
<!-- Node105&#45;&gt;Node4 -->
<g id="edge152" class="edge">
<title>Node105&#45;&gt;Node4</title>
<path fill="none" stroke="#191970" d="M2776.57,-55.4179C2750.6636,-46.1656 2710.3434,-31.7655 2681.771,-21.5611"/>
<polygon fill="#191970" stroke="#191970" points="2682.7921,-18.2093 2672.1975,-18.142 2680.4377,-24.8015 2682.7921,-18.2093"/>
</g>
<!-- Node105&#45;&gt;Node33 -->
<g id="edge150" class="edge">
<title>Node105&#45;&gt;Node33</title>
<path fill="none" stroke="#191970" d="M2833.7022,-60.8059C2917.3075,-51.0637 3143.6113,-24.6936 3234.9679,-14.0482"/>
<polygon fill="#191970" stroke="#191970" points="3235.6399,-17.4937 3245.1675,-12.8597 3234.8296,-10.5407 3235.6399,-17.4937"/>
</g>
<!-- Node105&#45;&gt;Node12 -->
<g id="edge151" class="edge">
<title>Node105&#45;&gt;Node12</title>
<path fill="none" stroke="#191970" d="M2770.2279,-56.37C2767.4576,-55.8389 2764.687,-55.3696 2762,-55 2651.6274,-39.8161 1848.6581,-15.7888 1668.0191,-10.5363"/>
<polygon fill="#191970" stroke="#191970" points="1668.0725,-7.0364 1657.9751,-10.2449 1667.8694,-14.0335 1668.0725,-7.0364"/>
</g>
<!-- Node105&#45;&gt;Node41 -->
<g id="edge153" class="edge">
<title>Node105&#45;&gt;Node41</title>
<path fill="none" stroke="#191970" d="M2770.2317,-56.3419C2767.4606,-55.8169 2764.6887,-55.3567 2762,-55 2752.6686,-53.762 1524.2507,-16.9088 1309.0039,-10.4587"/>
<polygon fill="#191970" stroke="#191970" points="1308.8074,-6.9513 1298.7071,-10.1501 1308.5977,-13.9481 1308.8074,-6.9513"/>
</g>
<!-- Node106&#45;&gt;Node4 -->
<g id="edge156" class="edge">
<title>Node106&#45;&gt;Node4</title>
<path fill="none" stroke="#191970" d="M2902.8982,-110.4183C2900.6763,-96.2723 2894.2944,-69.136 2877,-55 2847.6635,-31.0211 2739.0476,-17.7993 2682.5895,-12.4114"/>
<polygon fill="#191970" stroke="#191970" points="2682.6382,-8.901 2672.3587,-11.4664 2681.9944,-15.8714 2682.6382,-8.901"/>
</g>
<!-- Node106&#45;&gt;Node39 -->
<g id="edge157" class="edge">
<title>Node106&#45;&gt;Node39</title>
<path fill="none" stroke="#191970" d="M2898.5164,-110.3757C2889.0853,-95.6465 2868.2509,-67.0638 2842,-55 2770.6274,-22.2001 2206.1765,-11.9543 2066.9557,-9.9139"/>
<polygon fill="#191970" stroke="#191970" points="2066.6477,-6.4092 2056.5987,-9.7659 2066.5476,-13.4085 2066.6477,-6.4092"/>
</g>
<!-- Node106&#45;&gt;Node40 -->
<g id="edge158" class="edge">
<title>Node106&#45;&gt;Node40</title>
<path fill="none" stroke="#191970" d="M2885.428,-118.81C2839.0021,-117.1047 2714.1459,-112.6389 2610,-110 2392.2554,-104.4826 865.7767,-103.7252 650,-74 569.5882,-62.9225 477.8112,-34.6821 432.0881,-19.5061"/>
<polygon fill="#191970" stroke="#191970" points="433.1229,-16.1617 422.529,-16.3001 430.897,-22.7983 433.1229,-16.1617"/>
</g>
<!-- Node106&#45;&gt;Node41 -->
<g id="edge159" class="edge">
<title>Node106&#45;&gt;Node41</title>
<path fill="none" stroke="#191970" d="M2884.9868,-118.8443C2737.4128,-113.744 1779.8703,-80.4402 1751,-74 1729.8111,-69.2734 1727.0208,-60.4255 1706,-55 1630.6297,-35.5467 1394.8281,-17.6871 1308.8095,-11.6581"/>
<polygon fill="#191970" stroke="#191970" points="1308.8373,-8.1516 1298.6188,-10.9502 1308.3522,-15.1348 1308.8373,-8.1516"/>
</g>
<!-- Node106&#45;&gt;Node91 -->
<g id="edge155" class="edge">
<title>Node106&#45;&gt;Node91</title>
<path fill="none" stroke="#191970" d="M2922.7632,-112.4673C2925.5044,-111.566 2928.3097,-110.7113 2931,-110 3002.7754,-91.0232 3088.142,-77.4429 3138.8256,-70.2938"/>
<polygon fill="#191970" stroke="#191970" points="3139.3687,-73.7521 3148.7913,-68.9081 3138.4046,-66.8188 3139.3687,-73.7521"/>
</g>
<!-- Node126&#45;&gt;Node4 -->
<g id="edge161" class="edge">
<title>Node126&#45;&gt;Node4</title>
<path fill="none" stroke="#191970" d="M3101.7982,-110.075C3090.0306,-95.4585 3065.1517,-67.6892 3037,-55 2973.9025,-26.5591 2765.1633,-14.5787 2682.3186,-10.8647"/>
<polygon fill="#191970" stroke="#191970" points="2682.3159,-7.3613 2672.1732,-10.4232 2682.0115,-14.3547 2682.3159,-7.3613"/>
</g>
<!-- Node126&#45;&gt;Node5 -->
<g id="edge163" class="edge">
<title>Node126&#45;&gt;Node5</title>
<path fill="none" stroke="#191970" d="M3070.0114,-111.5275C3066.9671,-110.9833 3063.9364,-110.4667 3061,-110 2932.0376,-89.5045 2895.4039,-97.8436 2763.0813,-73.9902"/>
<polygon fill="#191970" stroke="#191970" points="2763.4313,-70.4961 2752.9644,-72.1379 2762.1706,-77.3817 2763.4313,-70.4961"/>
</g>
<!-- Node126&#45;&gt;Node39 -->
<g id="edge162" class="edge">
<title>Node126&#45;&gt;Node39</title>
<path fill="none" stroke="#191970" d="M3082.2868,-110.3967C3038.2402,-95.8322 2947.3437,-67.6473 2868,-55 2708.9016,-29.6398 2196.813,-13.9654 2066.4289,-10.3204"/>
<polygon fill="#191970" stroke="#191970" points="2066.447,-6.8196 2056.3539,-10.0415 2066.2532,-13.8169 2066.447,-6.8196"/>
</g>
<!-- Node127&#45;&gt;Node3 -->
<g id="edge165" class="edge">
<title>Node127&#45;&gt;Node3</title>
<path fill="none" stroke="#191970" d="M1367.6223,-169.7631C1477.8494,-159.8409 1732.9821,-136.8748 1856.5042,-125.7558"/>
<polygon fill="#191970" stroke="#191970" points="1856.9576,-129.2292 1866.6035,-124.8467 1856.33,-122.2574 1856.9576,-129.2292"/>
</g>
<!-- Node127&#45;&gt;Node37 -->
<g id="edge166" class="edge">
<title>Node127&#45;&gt;Node37</title>
<path fill="none" stroke="#191970" d="M1262.4316,-166.7162C1257.892,-166.1099 1253.3671,-165.5288 1249,-165 1086.7336,-145.3515 1038.921,-178.0417 883,-129 835.355,-114.0143 823.7228,-105.5462 785,-74 768.0237,-60.1699 752.0007,-40.836 741.4789,-26.9483"/>
<polygon fill="#191970" stroke="#191970" points="744.1599,-24.6869 735.4043,-18.7211 738.5286,-28.8448 744.1599,-24.6869"/>
</g>
<!-- Node129&#45;&gt;Node4 -->
<g id="edge174" class="edge">
<title>Node129&#45;&gt;Node4</title>
<path fill="none" stroke="#191970" d="M2575.3075,-224.7709C2715.3051,-207.7789 3182.5874,-149.7272 3207,-129 3226.7146,-112.2616 3221.7187,-99.5051 3226,-74 3227.3979,-65.6721 3231.732,-61.201 3226,-55 3207.45,-34.9323 2804.325,-16.1647 2682.5377,-10.9362"/>
<polygon fill="#191970" stroke="#191970" points="2682.4377,-7.4288 2672.2978,-10.5001 2682.1398,-14.4225 2682.4377,-7.4288"/>
</g>
<!-- Node129&#45;&gt;Node5 -->
<g id="edge168" class="edge">
<title>Node129&#45;&gt;Node5</title>
<path fill="none" stroke="#191970" d="M2575.3976,-221.601C2600.4308,-214.9705 2632.2812,-203.377 2655,-184 2687.5208,-156.2628 2708.2267,-109.1432 2717.79,-83.131"/>
<polygon fill="#191970" stroke="#191970" points="2721.0953,-84.282 2721.11,-73.6872 2714.4915,-81.9603 2721.0953,-84.282"/>
</g>
<!-- Node129&#45;&gt;Node33 -->
<g id="edge172" class="edge">
<title>Node129&#45;&gt;Node33</title>
<path fill="none" stroke="#191970" d="M2575.3819,-226.7818C2651.8024,-221.1958 2825.4089,-206.9844 2970,-184 3140.2722,-156.9333 3250.0758,-219.8601 3342,-74 3355.0201,-53.3404 3329.4041,-34.7365 3305.9774,-22.8783"/>
<polygon fill="#191970" stroke="#191970" points="3307.3915,-19.6751 3296.8595,-18.5236 3304.3747,-25.9916 3307.3915,-19.6751"/>
</g>
<!-- Node129&#45;&gt;Node37 -->
<g id="edge173" class="edge">
<title>Node129&#45;&gt;Node37</title>
<path fill="none" stroke="#191970" d="M2496.816,-228.4834C2331.0741,-224.0783 1686.8872,-205.873 1485,-184 1436.1112,-178.7033 1424.5337,-172.9151 1376,-165 1270.8476,-147.8512 1243.7418,-148.5005 1139,-129 1027.5804,-108.2562 998.2985,-107.4078 890,-74 842.5423,-59.3603 789.4054,-36.8106 757.6072,-22.6206"/>
<polygon fill="#191970" stroke="#191970" points="759.0095,-19.4136 748.4538,-18.5032 756.1378,-25.7975 759.0095,-19.4136"/>
</g>
<!-- Node129&#45;&gt;Node39 -->
<g id="edge175" class="edge">
<title>Node129&#45;&gt;Node39</title>
<path fill="none" stroke="#191970" d="M2530.4427,-220.1866C2516.2477,-197.2893 2476.2071,-138.0755 2426,-110 2304.0619,-41.813 2134.8853,-18.8431 2066.4945,-12.0447"/>
<polygon fill="#191970" stroke="#191970" points="2066.6921,-8.5478 2056.4063,-11.088 2066.0311,-15.5166 2066.6921,-8.5478"/>
</g>
<!-- Node129&#45;&gt;Node40 -->
<g id="edge176" class="edge">
<title>Node129&#45;&gt;Node40</title>
<path fill="none" stroke="#191970" d="M2496.5637,-228.3304C2284.1686,-222.0032 1284.8541,-191.864 1254,-184 1235.7026,-179.3364 1234.1545,-170.1921 1216,-165 1051.1927,-117.8654 1001.6054,-153.8422 832,-129 708.6732,-110.9363 676.1851,-110.4788 557,-74 511.4809,-60.0681 460.9873,-37.4671 430.6343,-23.0531"/>
<polygon fill="#191970" stroke="#191970" points="432.0493,-19.85 421.519,-18.6822 429.0227,-26.1619 432.0493,-19.85"/>
</g>
<!-- Node129&#45;&gt;Node41 -->
<g id="edge177" class="edge">
<title>Node129&#45;&gt;Node41</title>
<path fill="none" stroke="#191970" d="M2496.8732,-228.5889C2322.8446,-224.421 1623.45,-206.408 1528,-184 1507.6594,-179.2248 1505.0369,-170.9217 1485,-165 1387.8807,-136.2974 1335.9242,-196.0188 1260,-129 1234.7732,-106.7322 1233.6152,-87.0063 1244,-55 1247.4422,-44.3911 1254.3888,-34.1855 1261.0245,-26.1379"/>
<polygon fill="#191970" stroke="#191970" points="1263.6775,-28.4211 1267.667,-18.606 1258.4275,-23.791 1263.6775,-28.4211"/>
</g>
<!-- Node129&#45;&gt;Node65 -->
<g id="edge169" class="edge">
<title>Node129&#45;&gt;Node65</title>
<path fill="none" stroke="#191970" d="M2520.5816,-220.4837C2496.8474,-206.9092 2449.6321,-181.1018 2407,-165 2367.6818,-150.1498 2321.5684,-138.2316 2286.9911,-130.324"/>
<polygon fill="#191970" stroke="#191970" points="2287.6307,-126.8805 2277.1064,-128.1005 2286.0945,-133.7099 2287.6307,-126.8805"/>
</g>
<!-- Node129&#45;&gt;Node91 -->
<g id="edge170" class="edge">
<title>Node129&#45;&gt;Node91</title>
<path fill="none" stroke="#191970" d="M2575.1966,-222.7828C2646.1083,-210.7012 2800.4614,-184.7272 2931,-165 2988.4565,-156.3171 3151.8439,-172.8264 3190,-129 3200.8318,-116.5585 3196.9793,-97.2427 3191.6987,-82.9897"/>
<polygon fill="#191970" stroke="#191970" points="3194.8876,-81.5436 3187.7908,-73.6768 3188.4329,-84.2522 3194.8876,-81.5436"/>
</g>
<!-- Node129&#45;&gt;Node127 -->
<g id="edge171" class="edge">
<title>Node129&#45;&gt;Node127</title>
<path fill="none" stroke="#191970" d="M2496.7896,-228.1961C2356.0654,-223.4421 1863.256,-206.1518 1457,-184 1430.9796,-182.5812 1402.2971,-180.719 1377.5627,-179.0195"/>
<polygon fill="#191970" stroke="#191970" points="1377.7993,-175.5276 1367.5812,-178.3279 1377.3153,-182.5109 1377.7993,-175.5276"/>
</g>
</g>
</svg>
