<?xml version="1.0" encoding="UTF-8" standalone="no"?>
<!DOCTYPE svg PUBLIC "-//W3C//DTD SVG 1.1//EN"
 "http://www.w3.org/Graphics/SVG/1.1/DTD/svg11.dtd">
<!-- Generated by graphviz version 2.40.1 (20161225.0304)
 -->
<!-- Title: src/rpc/mining.h Pages: 1 -->
<svg width="242pt" height="82pt"
 viewBox="0.00 0.00 241.98 82.00" xmlns="http://www.w3.org/2000/svg" xmlns:xlink="http://www.w3.org/1999/xlink">
<g id="graph0" class="graph" transform="scale(1 1) rotate(0) translate(4 78)">
<title>src/rpc/mining.h</title>
<polygon fill="#ffffff" stroke="transparent" points="-4,4 -4,-78 237.9751,-78 237.9751,4 -4,4"/>
<!-- Node44 -->
<g id="node1" class="node">
<title>Node44</title>
<polygon fill="#bfbfbf" stroke="#000000" points="68.2808,-55.5 68.2808,-73.5 154.8569,-73.5 154.8569,-55.5 68.2808,-55.5"/>
<text text-anchor="middle" x="111.5688" y="-61.5" font-family="Helvetica,sans-Serif" font-size="10.00" fill="#000000">src/rpc/mining.h</text>
</g>
<!-- Node45 -->
<g id="node2" class="node">
<title>Node45</title>
<g id="a_node2"><a xlink:href="mining_8cpp.html" target="_top" xlink:title="src/rpc/mining.cpp">
<polygon fill="#ffffff" stroke="#000000" points="0,-.5 0,-18.5 97.1377,-18.5 97.1377,-.5 0,-.5"/>
<text text-anchor="middle" x="48.5688" y="-6.5" font-family="Helvetica,sans-Serif" font-size="10.00" fill="#000000">src/rpc/mining.cpp</text>
</a>
</g>
</g>
<!-- Node44&#45;&gt;Node45 -->
<g id="edge1" class="edge">
<title>Node44&#45;&gt;Node45</title>
<path fill="none" stroke="#191970" d="M93.338,-48.5841C82.2655,-38.9177 68.5166,-26.9147 59.198,-18.7795"/>
<polygon fill="#191970" stroke="#191970" points="91.3307,-51.4779 101.1657,-55.4179 95.9343,-46.2046 91.3307,-51.4779"/>
</g>
<!-- Node46 -->
<g id="node3" class="node">
<title>Node46</title>
<g id="a_node3"><a xlink:href="rpcwallet_8cpp.html" target="_top" xlink:title="src/wallet/rpcwallet.cpp">
<polygon fill="#ffffff" stroke="#000000" points="115.1626,-.5 115.1626,-18.5 233.9751,-18.5 233.9751,-.5 115.1626,-.5"/>
<text text-anchor="middle" x="174.5688" y="-6.5" font-family="Helvetica,sans-Serif" font-size="10.00" fill="#000000">src/wallet/rpcwallet.cpp</text>
</a>
</g>
</g>
<!-- Node44&#45;&gt;Node46 -->
<g id="edge2" class="edge">
<title>Node44&#45;&gt;Node46</title>
<path fill="none" stroke="#191970" d="M129.7997,-48.5841C140.8722,-38.9177 154.6211,-26.9147 163.9397,-18.7795"/>
<polygon fill="#191970" stroke="#191970" points="127.2034,-46.2046 121.972,-55.4179 131.807,-51.4779 127.2034,-46.2046"/>
</g>
</g>
</svg>
