<?xml version="1.0" encoding="UTF-8" standalone="no"?>
<!DOCTYPE svg PUBLIC "-//W3C//DTD SVG 1.1//EN"
 "http://www.w3.org/Graphics/SVG/1.1/DTD/svg11.dtd">
<!-- Generated by graphviz version 2.40.1 (20161225.0304)
 -->
<!-- Title: feebumper::SignTransaction Pages: 1 -->
<svg width="445pt" height="64pt"
 viewBox="0.00 0.00 445.40 64.00" xmlns="http://www.w3.org/2000/svg" xmlns:xlink="http://www.w3.org/1999/xlink">
<g id="graph0" class="graph" transform="scale(1 1) rotate(0) translate(4 60)">
<title>feebumper::SignTransaction</title>
<polygon fill="#ffffff" stroke="transparent" points="-4,4 -4,-60 441.4023,-60 441.4023,4 -4,4"/>
<!-- Node5 -->
<g id="node1" class="node">
<title>Node5</title>
<polygon fill="#bfbfbf" stroke="#000000" points="0,-18.5 0,-36.5 141.2588,-36.5 141.2588,-18.5 0,-18.5"/>
<text text-anchor="middle" x="70.6294" y="-24.5" font-family="Helvetica,sans-Serif" font-size="10.00" fill="#000000">feebumper::SignTransaction</text>
</g>
<!-- Node6 -->
<g id="node2" class="node">
<title>Node6</title>
<g id="a_node2"><a xlink:href="group___actions.html#ga199df06fa484b1142a6ae64e04519c45" target="_top" xlink:title="CWallet::SignTransaction">
<polygon fill="#ffffff" stroke="#000000" points="177.2588,-18.5 177.2588,-36.5 305.3486,-36.5 305.3486,-18.5 177.2588,-18.5"/>
<text text-anchor="middle" x="241.3037" y="-24.5" font-family="Helvetica,sans-Serif" font-size="10.00" fill="#000000">CWallet::SignTransaction</text>
</a>
</g>
</g>
<!-- Node5&#45;&gt;Node6 -->
<g id="edge1" class="edge">
<title>Node5&#45;&gt;Node6</title>
<path fill="none" stroke="#191970" d="M141.5279,-27.5C149.9275,-27.5 158.5192,-27.5 166.9648,-27.5"/>
<polygon fill="#191970" stroke="#191970" points="167.1714,-31.0001 177.1713,-27.5 167.1713,-24.0001 167.1714,-31.0001"/>
</g>
<!-- Node7 -->
<g id="node3" class="node">
<title>Node7</title>
<g id="a_node3"><a xlink:href="sign_8cpp.html#a0c453416d09212d876bee81dc9353c16" target="_top" xlink:title="Produce a script signature using a generic signature creator. ">
<polygon fill="#ffffff" stroke="#000000" points="341.3486,-37.5 341.3486,-55.5 437.4023,-55.5 437.4023,-37.5 341.3486,-37.5"/>
<text text-anchor="middle" x="389.3755" y="-43.5" font-family="Helvetica,sans-Serif" font-size="10.00" fill="#000000">ProduceSignature</text>
</a>
</g>
</g>
<!-- Node6&#45;&gt;Node7 -->
<g id="edge2" class="edge">
<title>Node6&#45;&gt;Node7</title>
<path fill="none" stroke="#191970" d="M305.389,-35.7232C313.9463,-36.8212 322.6843,-37.9424 331.1343,-39.0267"/>
<polygon fill="#191970" stroke="#191970" points="330.9031,-42.5257 341.2673,-40.3269 331.7941,-35.5826 330.9031,-42.5257"/>
</g>
<!-- Node8 -->
<g id="node4" class="node">
<title>Node8</title>
<g id="a_node4"><a xlink:href="sign_8cpp.html#a2051a9625f7300cb8ad7fdc1bc06f5c5" target="_top" xlink:title="UpdateInput">
<polygon fill="#ffffff" stroke="#000000" points="354.1318,-.5 354.1318,-18.5 424.6191,-18.5 424.6191,-.5 354.1318,-.5"/>
<text text-anchor="middle" x="389.3755" y="-6.5" font-family="Helvetica,sans-Serif" font-size="10.00" fill="#000000">UpdateInput</text>
</a>
</g>
</g>
<!-- Node6&#45;&gt;Node8 -->
<g id="edge3" class="edge">
<title>Node6&#45;&gt;Node8</title>
<path fill="none" stroke="#191970" d="M305.389,-19.7096C318.2048,-18.1517 331.4258,-16.5445 343.4781,-15.0794"/>
<polygon fill="#191970" stroke="#191970" points="344.2245,-18.5145 353.729,-13.8333 343.3797,-11.5657 344.2245,-18.5145"/>
</g>
</g>
</svg>
