<?xml version="1.0" encoding="UTF-8" standalone="no"?>
<!DOCTYPE svg PUBLIC "-//W3C//DTD SVG 1.1//EN"
 "http://www.w3.org/Graphics/SVG/1.1/DTD/svg11.dtd">
<!-- Generated by graphviz version 2.40.1 (20161225.0304)
 -->
<!-- Title: src/net.cpp Pages: 1 -->
<svg width="2687pt" height="412pt"
 viewBox="0.00 0.00 2686.90 412.00" xmlns="http://www.w3.org/2000/svg" xmlns:xlink="http://www.w3.org/1999/xlink">
<g id="graph0" class="graph" transform="scale(1 1) rotate(0) translate(4 408)">
<title>src/net.cpp</title>
<polygon fill="#ffffff" stroke="transparent" points="-4,4 -4,-408 2682.896,-408 2682.896,4 -4,4"/>
<!-- Node0 -->
<g id="node1" class="node">
<title>Node0</title>
<polygon fill="#bfbfbf" stroke="#000000" points="1319.9111,-385.5 1319.9111,-403.5 1384.8223,-403.5 1384.8223,-385.5 1319.9111,-385.5"/>
<text text-anchor="middle" x="1352.3667" y="-391.5" font-family="Helvetica,sans-Serif" font-size="10.00" fill="#000000">src/net.cpp</text>
</g>
<!-- Node1 -->
<g id="node2" class="node">
<title>Node1</title>
<g id="a_node2"><a xlink:href="net_8h.html" target="_top" xlink:title="net.h">
<polygon fill="#ffffff" stroke="#000000" points="1333.2461,-330.5 1333.2461,-348.5 1371.4873,-348.5 1371.4873,-330.5 1333.2461,-330.5"/>
<text text-anchor="middle" x="1352.3667" y="-336.5" font-family="Helvetica,sans-Serif" font-size="10.00" fill="#000000">net.h</text>
</a>
</g>
</g>
<!-- Node0&#45;&gt;Node1 -->
<g id="edge1" class="edge">
<title>Node0&#45;&gt;Node1</title>
<path fill="none" stroke="#191970" d="M1352.3667,-385.4179C1352.3667,-378.2164 1352.3667,-367.8962 1352.3667,-358.8632"/>
<polygon fill="#191970" stroke="#191970" points="1355.8668,-358.7794 1352.3667,-348.7795 1348.8668,-358.7795 1355.8668,-358.7794"/>
</g>
<!-- Node28 -->
<g id="node15" class="node">
<title>Node28</title>
<polygon fill="#ffffff" stroke="#bfbfbf" points="244.0269,-55.5 244.0269,-73.5 286.7065,-73.5 286.7065,-55.5 244.0269,-55.5"/>
<text text-anchor="middle" x="265.3667" y="-61.5" font-family="Helvetica,sans-Serif" font-size="10.00" fill="#000000">fcntl.h</text>
</g>
<!-- Node0&#45;&gt;Node28 -->
<g id="edge147" class="edge">
<title>Node0&#45;&gt;Node28</title>
<path fill="none" stroke="#191970" d="M1319.6913,-393.9844C1153.1794,-391.2362 403.0297,-377.3619 303.3667,-349 247.0032,-332.9602 188.3667,-343.1014 188.3667,-284.5 188.3667,-284.5 188.3667,-284.5 188.3667,-229.5 188.3667,-170.7717 228.9189,-110.385 251.1652,-81.6763"/>
<polygon fill="#191970" stroke="#191970" points="253.9284,-83.8249 257.4164,-73.8206 248.451,-79.4662 253.9284,-83.8249"/>
</g>
<!-- Node49 -->
<g id="node19" class="node">
<title>Node49</title>
<g id="a_node19"><a xlink:href="common_8h.html" target="_top" xlink:title="crypto/common.h">
<polygon fill="#ffffff" stroke="#000000" points="624.0195,-110.5 624.0195,-128.5 716.7139,-128.5 716.7139,-110.5 624.0195,-110.5"/>
<text text-anchor="middle" x="670.3667" y="-116.5" font-family="Helvetica,sans-Serif" font-size="10.00" fill="#000000">crypto/common.h</text>
</a>
</g>
</g>
<!-- Node0&#45;&gt;Node49 -->
<g id="edge123" class="edge">
<title>Node0&#45;&gt;Node49</title>
<path fill="none" stroke="#191970" d="M1319.7613,-393.5989C1159.5075,-388.8417 460.5293,-364.1584 397.3667,-294 358.8588,-251.227 298.374,-283.6545 465.3667,-165 488.8396,-148.3217 561.4016,-134.9015 613.5327,-127.0692"/>
<polygon fill="#191970" stroke="#191970" points="614.282,-130.4967 623.6659,-125.5779 613.2628,-123.5713 614.282,-130.4967"/>
</g>
<!-- Node77 -->
<g id="node28" class="node">
<title>Node77</title>
<g id="a_node28"><a xlink:href="sha256_8h.html" target="_top" xlink:title="crypto/sha256.h">
<polygon fill="#ffffff" stroke="#000000" points="254.7881,-165.5 254.7881,-183.5 341.9453,-183.5 341.9453,-165.5 254.7881,-165.5"/>
<text text-anchor="middle" x="298.3667" y="-171.5" font-family="Helvetica,sans-Serif" font-size="10.00" fill="#000000">crypto/sha256.h</text>
</a>
</g>
</g>
<!-- Node0&#45;&gt;Node77 -->
<g id="edge124" class="edge">
<title>Node0&#45;&gt;Node77</title>
<path fill="none" stroke="#191970" d="M1319.6968,-394.227C1148.268,-392.6488 359.0292,-383.5224 321.3667,-349 277.8849,-309.1434 286.8993,-230.1793 293.9646,-193.7449"/>
<polygon fill="#191970" stroke="#191970" points="297.4034,-194.3994 296.0344,-183.8934 290.5529,-192.9601 297.4034,-194.3994"/>
</g>
<!-- Node92 -->
<g id="node35" class="node">
<title>Node92</title>
<g id="a_node35"><a xlink:href="chainparams_8h.html" target="_top" xlink:title="chainparams.h">
<polygon fill="#ffffff" stroke="#000000" points="1724.5713,-330.5 1724.5713,-348.5 1806.1621,-348.5 1806.1621,-330.5 1724.5713,-330.5"/>
<text text-anchor="middle" x="1765.3667" y="-336.5" font-family="Helvetica,sans-Serif" font-size="10.00" fill="#000000">chainparams.h</text>
</a>
</g>
</g>
<!-- Node0&#45;&gt;Node92 -->
<g id="edge90" class="edge">
<title>Node0&#45;&gt;Node92</title>
<path fill="none" stroke="#191970" d="M1385.1193,-390.1383C1456.895,-380.5798 1628.4879,-357.7284 1714.4591,-346.2795"/>
<polygon fill="#191970" stroke="#191970" points="1715.056,-349.731 1724.5064,-344.9414 1714.1319,-342.7922 1715.056,-349.731"/>
</g>
<!-- Node96 -->
<g id="node39" class="node">
<title>Node96</title>
<g id="a_node39"><a xlink:href="transaction_8h.html" target="_top" xlink:title="primitives/transaction.h">
<polygon fill="#ffffff" stroke="#000000" points="643.2363,-220.5 643.2363,-238.5 761.4971,-238.5 761.4971,-220.5 643.2363,-220.5"/>
<text text-anchor="middle" x="702.3667" y="-226.5" font-family="Helvetica,sans-Serif" font-size="10.00" fill="#000000">primitives/transaction.h</text>
</a>
</g>
</g>
<!-- Node0&#45;&gt;Node96 -->
<g id="edge125" class="edge">
<title>Node0&#45;&gt;Node96</title>
<path fill="none" stroke="#191970" d="M1319.7503,-391.0605C1266.1535,-385.0233 1156.3192,-371.029 1065.3667,-349 940.8065,-318.8311 797.5462,-266.1527 734.725,-242.1109"/>
<polygon fill="#191970" stroke="#191970" points="735.9384,-238.8276 725.3484,-238.506 733.4264,-245.3614 735.9384,-238.8276"/>
</g>
<!-- Node99 -->
<g id="node41" class="node">
<title>Node99</title>
<g id="a_node41"><a xlink:href="clientversion_8h.html" target="_top" xlink:title="clientversion.h">
<polygon fill="#ffffff" stroke="#000000" points="1612.4063,-110.5 1612.4063,-128.5 1692.3271,-128.5 1692.3271,-110.5 1612.4063,-110.5"/>
<text text-anchor="middle" x="1652.3667" y="-116.5" font-family="Helvetica,sans-Serif" font-size="10.00" fill="#000000">clientversion.h</text>
</a>
</g>
</g>
<!-- Node0&#45;&gt;Node99 -->
<g id="edge117" class="edge">
<title>Node0&#45;&gt;Node99</title>
<path fill="none" stroke="#191970" d="M1385.0764,-393.7681C1485.8457,-391.1789 1786.5137,-380.8275 1815.3667,-349 1882.8208,-274.5922 1736.936,-171.753 1676.7623,-134.0792"/>
<polygon fill="#191970" stroke="#191970" points="1678.2355,-130.8758 1667.8865,-128.6067 1674.5617,-136.8342 1678.2355,-130.8758"/>
</g>
<!-- Node100 -->
<g id="node42" class="node">
<title>Node100</title>
<g id="a_node42"><a xlink:href="consensus_8h.html" target="_top" xlink:title="consensus/consensus.h">
<polygon fill="#ffffff" stroke="#000000" points="0,-165.5 0,-183.5 122.7334,-183.5 122.7334,-165.5 0,-165.5"/>
<text text-anchor="middle" x="61.3667" y="-171.5" font-family="Helvetica,sans-Serif" font-size="10.00" fill="#000000">consensus/consensus.h</text>
</a>
</g>
</g>
<!-- Node0&#45;&gt;Node100 -->
<g id="edge120" class="edge">
<title>Node0&#45;&gt;Node100</title>
<path fill="none" stroke="#191970" d="M1319.6632,-394.0839C1134.6354,-391.6239 225.4795,-378.087 174.3667,-349 112.9832,-314.0682 79.4166,-230.5806 67.0068,-193.1786"/>
<polygon fill="#191970" stroke="#191970" points="70.3083,-192.011 63.9439,-183.5407 63.6371,-194.1311 70.3083,-192.011"/>
</g>
<!-- Node101 -->
<g id="node43" class="node">
<title>Node101</title>
<g id="a_node43"><a xlink:href="netbase_8h.html" target="_top" xlink:title="netbase.h">
<polygon fill="#ffffff" stroke="#000000" points="1033.4038,-220.5 1033.4038,-238.5 1093.3296,-238.5 1093.3296,-220.5 1033.4038,-220.5"/>
<text text-anchor="middle" x="1063.3667" y="-226.5" font-family="Helvetica,sans-Serif" font-size="10.00" fill="#000000">netbase.h</text>
</a>
</g>
</g>
<!-- Node0&#45;&gt;Node101 -->
<g id="edge126" class="edge">
<title>Node0&#45;&gt;Node101</title>
<path fill="none" stroke="#191970" d="M1319.7825,-389.9293C1241.6338,-378.2328 1047.2184,-344.5337 1009.3667,-294 996.0798,-276.2614 1017.5224,-256.8874 1037.1882,-244.0507"/>
<polygon fill="#191970" stroke="#191970" points="1039.2894,-246.8671 1045.9677,-238.6421 1035.6178,-240.9073 1039.2894,-246.8671"/>
</g>
<!-- Node102 -->
<g id="node44" class="node">
<title>Node102</title>
<g id="a_node44"><a xlink:href="scheduler_8h.html" target="_top" xlink:title="scheduler.h">
<polygon fill="#ffffff" stroke="#000000" points="2405.7905,-275.5 2405.7905,-293.5 2472.9429,-293.5 2472.9429,-275.5 2405.7905,-275.5"/>
<text text-anchor="middle" x="2439.3667" y="-281.5" font-family="Helvetica,sans-Serif" font-size="10.00" fill="#000000">scheduler.h</text>
</a>
</g>
</g>
<!-- Node0&#45;&gt;Node102 -->
<g id="edge133" class="edge">
<title>Node0&#45;&gt;Node102</title>
<path fill="none" stroke="#191970" d="M1385.0221,-393.8567C1556.4078,-390.3818 2345.8757,-373.1124 2391.3667,-349 2410.1842,-339.0258 2423.6218,-318.029 2431.4079,-302.6917"/>
<polygon fill="#191970" stroke="#191970" points="2434.595,-304.1392 2435.7082,-293.603 2428.2675,-301.1454 2434.595,-304.1392"/>
</g>
<!-- Node105 -->
<g id="node47" class="node">
<title>Node105</title>
<g id="a_node47"><a xlink:href="ui__interface_8h.html" target="_top" xlink:title="ui_interface.h">
<polygon fill="#ffffff" stroke="#000000" points="2400.3472,-110.5 2400.3472,-128.5 2476.3862,-128.5 2476.3862,-110.5 2400.3472,-110.5"/>
<text text-anchor="middle" x="2438.3667" y="-116.5" font-family="Helvetica,sans-Serif" font-size="10.00" fill="#000000">ui_interface.h</text>
</a>
</g>
</g>
<!-- Node0&#45;&gt;Node105 -->
<g id="edge138" class="edge">
<title>Node0&#45;&gt;Node105</title>
<path fill="none" stroke="#191970" d="M1384.8377,-393.7922C1483.8495,-391.3271 1790.5352,-381.4189 2042.3667,-349 2192.7492,-329.6409 2377.3667,-436.1235 2377.3667,-284.5 2377.3667,-284.5 2377.3667,-284.5 2377.3667,-229.5 2377.3667,-192.458 2404.1491,-156.2089 2422.2212,-135.9654"/>
<polygon fill="#191970" stroke="#191970" points="2424.8661,-138.2606 2429.1021,-128.5494 2419.7347,-133.4994 2424.8661,-138.2606"/>
</g>
<!-- Node107 -->
<g id="node49" class="node">
<title>Node107</title>
<g id="a_node49"><a xlink:href="utilstrencodings_8h.html" target="_top" xlink:title="utilstrencodings.h">
<polygon fill="#ffffff" stroke="#000000" points="1870.4556,-110.5 1870.4556,-128.5 1964.2778,-128.5 1964.2778,-110.5 1870.4556,-110.5"/>
<text text-anchor="middle" x="1917.3667" y="-116.5" font-family="Helvetica,sans-Serif" font-size="10.00" fill="#000000">utilstrencodings.h</text>
</a>
</g>
</g>
<!-- Node0&#45;&gt;Node107 -->
<g id="edge143" class="edge">
<title>Node0&#45;&gt;Node107</title>
<path fill="none" stroke="#191970" d="M1384.9038,-392.8451C1535.7824,-384.8982 2162.7957,-348.7687 2229.3667,-294 2255.5886,-272.4269 2261.6405,-251.2537 2248.3667,-220 2234.605,-187.5975 2222.816,-180.8192 2191.3667,-165 2154.3358,-146.3732 2043.4641,-132.2438 1974.6332,-124.9721"/>
<polygon fill="#191970" stroke="#191970" points="1974.6892,-121.4592 1964.381,-123.9068 1973.9656,-128.4217 1974.6892,-121.4592"/>
</g>
<!-- Node108 -->
<g id="node50" class="node">
<title>Node108</title>
<polygon fill="#ffffff" stroke="#bfbfbf" points="2443.0811,-330.5 2443.0811,-348.5 2489.6523,-348.5 2489.6523,-330.5 2443.0811,-330.5"/>
<text text-anchor="middle" x="2466.3667" y="-336.5" font-family="Helvetica,sans-Serif" font-size="10.00" fill="#000000">math.h</text>
</g>
<!-- Node0&#45;&gt;Node108 -->
<g id="edge148" class="edge">
<title>Node0&#45;&gt;Node108</title>
<path fill="none" stroke="#191970" d="M1384.9123,-394.0422C1541.7179,-391.6965 2220.2813,-379.9108 2429.3667,-349 2430.6214,-348.8145 2431.8952,-348.6037 2433.1781,-348.3724"/>
<polygon fill="#191970" stroke="#191970" points="2433.9759,-351.7811 2443.0296,-346.2781 2432.5203,-344.9341 2433.9759,-351.7811"/>
</g>
<!-- Node2 -->
<g id="node3" class="node">
<title>Node2</title>
<g id="a_node3"><a xlink:href="addrdb_8h.html" target="_top" xlink:title="addrdb.h">
<polygon fill="#ffffff" stroke="#ff0000" points="1597.6279,-165.5 1597.6279,-183.5 1653.1055,-183.5 1653.1055,-165.5 1597.6279,-165.5"/>
<text text-anchor="middle" x="1625.3667" y="-171.5" font-family="Helvetica,sans-Serif" font-size="10.00" fill="#000000">addrdb.h</text>
</a>
</g>
</g>
<!-- Node1&#45;&gt;Node2 -->
<g id="edge2" class="edge">
<title>Node1&#45;&gt;Node2</title>
<path fill="none" stroke="#191970" d="M1367.1766,-330.4761C1399.9653,-310.5064 1481.1864,-261.0878 1549.3667,-220 1566.8189,-209.4827 1586.5647,-197.6636 1601.5548,-188.7077"/>
<polygon fill="#191970" stroke="#191970" points="1603.4195,-191.6708 1610.2106,-183.5386 1599.8304,-185.6609 1603.4195,-191.6708"/>
</g>
<!-- Node11 -->
<g id="node6" class="node">
<title>Node11</title>
<polygon fill="#ffffff" stroke="#bfbfbf" points="679.2461,-.5 679.2461,-18.5 727.4873,-18.5 727.4873,-.5 679.2461,-.5"/>
<text text-anchor="middle" x="703.3667" y="-6.5" font-family="Helvetica,sans-Serif" font-size="10.00" fill="#000000">stdint.h</text>
</g>
<!-- Node1&#45;&gt;Node11 -->
<g id="edge85" class="edge">
<title>Node1&#45;&gt;Node11</title>
<path fill="none" stroke="#191970" d="M1333.1139,-338.9495C1229.9632,-335.9084 741.8674,-320.3391 593.3667,-294 425.7033,-264.2621 382.6696,-251.563 226.3667,-184 181.5836,-164.6422 155.7353,-171.266 131.3667,-129 100.3084,-75.1311 173.255,-70.3836 218.3667,-55 302.0774,-26.4537 572.7545,-14.1808 669.0046,-10.6453"/>
<polygon fill="#191970" stroke="#191970" points="669.2066,-14.1404 679.0747,-10.2842 668.9556,-7.1449 669.2066,-14.1404"/>
</g>
<!-- Node17 -->
<g id="node8" class="node">
<title>Node17</title>
<polygon fill="#ffffff" stroke="#bfbfbf" points="2304.3101,-55.5 2304.3101,-73.5 2356.4233,-73.5 2356.4233,-55.5 2304.3101,-55.5"/>
<text text-anchor="middle" x="2330.3667" y="-61.5" font-family="Helvetica,sans-Serif" font-size="10.00" fill="#000000">memory</text>
</g>
<!-- Node1&#45;&gt;Node17 -->
<g id="edge87" class="edge">
<title>Node1&#45;&gt;Node17</title>
<path fill="none" stroke="#191970" d="M1371.6185,-338.9948C1494.5686,-335.7034 2165.927,-316.7321 2202.3667,-294 2281.0369,-244.9233 2315.4707,-129.118 2326.3221,-83.4709"/>
<polygon fill="#191970" stroke="#191970" points="2329.7425,-84.2133 2328.5369,-73.6873 2322.9153,-82.6677 2329.7425,-84.2133"/>
</g>
<!-- Node43 -->
<g id="node12" class="node">
<title>Node43</title>
<g id="a_node12"><a xlink:href="addrman_8h.html" target="_top" xlink:title="addrman.h">
<polygon fill="#ffffff" stroke="#ff0000" points="1523.4629,-275.5 1523.4629,-293.5 1587.2705,-293.5 1587.2705,-275.5 1523.4629,-275.5"/>
<text text-anchor="middle" x="1555.3667" y="-281.5" font-family="Helvetica,sans-Serif" font-size="10.00" fill="#000000">addrman.h</text>
</a>
</g>
</g>
<!-- Node1&#45;&gt;Node43 -->
<g id="edge14" class="edge">
<title>Node1&#45;&gt;Node43</title>
<path fill="none" stroke="#191970" d="M1371.8312,-334.2264C1404.3303,-325.4212 1470.3437,-307.5358 1513.7018,-295.7885"/>
<polygon fill="#191970" stroke="#191970" points="1514.6582,-299.1557 1523.3949,-293.1623 1512.8276,-292.3992 1514.6582,-299.1557"/>
</g>
<!-- Node44 -->
<g id="node13" class="node">
<title>Node44</title>
<g id="a_node13"><a xlink:href="netaddress_8h.html" target="_top" xlink:title="netaddress.h">
<polygon fill="#ffffff" stroke="#ff0000" points="1321.458,-165.5 1321.458,-183.5 1395.2754,-183.5 1395.2754,-165.5 1321.458,-165.5"/>
<text text-anchor="middle" x="1358.3667" y="-171.5" font-family="Helvetica,sans-Serif" font-size="10.00" fill="#000000">netaddress.h</text>
</a>
</g>
</g>
<!-- Node1&#45;&gt;Node44 -->
<g id="edge63" class="edge">
<title>Node1&#45;&gt;Node44</title>
<path fill="none" stroke="#191970" d="M1351.9645,-330.4924C1351.1623,-310.555 1349.6621,-261.1969 1352.3667,-220 1352.9408,-211.2544 1354.1294,-201.6238 1355.2983,-193.4835"/>
<polygon fill="#191970" stroke="#191970" points="1358.7685,-193.9441 1356.8206,-183.5298 1351.8489,-192.8858 1358.7685,-193.9441"/>
</g>
<!-- Node27 -->
<g id="node14" class="node">
<title>Node27</title>
<g id="a_node14"><a xlink:href="compat_8h.html" target="_top" xlink:title="compat.h">
<polygon fill="#ffffff" stroke="#ff0000" points="396.8003,-110.5 396.8003,-128.5 453.9331,-128.5 453.9331,-110.5 396.8003,-110.5"/>
<text text-anchor="middle" x="425.3667" y="-116.5" font-family="Helvetica,sans-Serif" font-size="10.00" fill="#000000">compat.h</text>
</a>
</g>
</g>
<!-- Node1&#45;&gt;Node27 -->
<g id="edge52" class="edge">
<title>Node1&#45;&gt;Node27</title>
<path fill="none" stroke="#191970" d="M1333.2169,-338.8207C1242.2924,-335.4836 853.6609,-319.9339 735.3667,-294 667.2284,-279.0619 652.9049,-265.4726 588.3667,-239 532.9634,-216.2744 510.4626,-223.3997 465.3667,-184 450.8346,-171.3034 439.8384,-152.0244 433.0886,-137.8496"/>
<polygon fill="#191970" stroke="#191970" points="436.2234,-136.2863 428.9343,-128.5974 429.8376,-139.1536 436.2234,-136.2863"/>
</g>
<!-- Node36 -->
<g id="node16" class="node">
<title>Node36</title>
<polygon fill="#ffffff" stroke="#bfbfbf" points="366.7388,-55.5 366.7388,-73.5 429.9946,-73.5 429.9946,-55.5 366.7388,-55.5"/>
<text text-anchor="middle" x="398.3667" y="-61.5" font-family="Helvetica,sans-Serif" font-size="10.00" fill="#000000">arpa/inet.h</text>
</g>
<!-- Node1&#45;&gt;Node36 -->
<g id="edge89" class="edge">
<title>Node1&#45;&gt;Node36</title>
<path fill="none" stroke="#191970" d="M1333.1,-339.0052C1236.0552,-336.3935 800.2494,-323.2115 668.3667,-294 560.4687,-270.101 531.4597,-253.2901 445.3667,-184 417.6917,-161.7263 401.3959,-161.6375 387.3667,-129 381.0659,-114.3419 384.9901,-96.3528 389.816,-83.1"/>
<polygon fill="#191970" stroke="#191970" points="393.1393,-84.2209 393.7016,-73.641 386.6643,-81.5611 393.1393,-84.2209"/>
</g>
<!-- Node45 -->
<g id="node17" class="node">
<title>Node45</title>
<g id="a_node17"><a xlink:href="protocol_8h.html" target="_top" xlink:title="protocol.h">
<polygon fill="#ffffff" stroke="#ff0000" points="1361.4087,-220.5 1361.4087,-238.5 1421.3247,-238.5 1421.3247,-220.5 1361.4087,-220.5"/>
<text text-anchor="middle" x="1391.3667" y="-226.5" font-family="Helvetica,sans-Serif" font-size="10.00" fill="#000000">protocol.h</text>
</a>
</g>
</g>
<!-- Node1&#45;&gt;Node45 -->
<g id="edge68" class="edge">
<title>Node1&#45;&gt;Node45</title>
<path fill="none" stroke="#191970" d="M1355.5582,-330.4982C1361.9002,-312.6108 1376.2065,-272.2594 1384.6917,-248.3271"/>
<polygon fill="#191970" stroke="#191970" points="1388.0882,-249.2209 1388.1311,-238.6261 1381.4906,-246.8817 1388.0882,-249.2209"/>
</g>
<!-- Node46 -->
<g id="node18" class="node">
<title>Node46</title>
<g id="a_node18"><a xlink:href="uint256_8h.html" target="_top" xlink:title="uint256.h">
<polygon fill="#ffffff" stroke="#ff0000" points="860.793,-165.5 860.793,-183.5 917.9404,-183.5 917.9404,-165.5 860.793,-165.5"/>
<text text-anchor="middle" x="889.3667" y="-171.5" font-family="Helvetica,sans-Serif" font-size="10.00" fill="#000000">uint256.h</text>
</a>
</g>
</g>
<!-- Node1&#45;&gt;Node46 -->
<g id="edge78" class="edge">
<title>Node1&#45;&gt;Node46</title>
<path fill="none" stroke="#191970" d="M1333.0843,-338.2301C1266.0699,-333.6521 1043.7135,-317.0395 976.3667,-294 931.2928,-278.5801 907.8713,-280.4363 884.3667,-239 876.4959,-225.1246 878.8978,-206.7917 882.5963,-193.2184"/>
<polygon fill="#191970" stroke="#191970" points="885.9822,-194.1195 885.6689,-183.5293 879.3097,-192.0035 885.9822,-194.1195"/>
</g>
<!-- Node51 -->
<g id="node20" class="node">
<title>Node51</title>
<polygon fill="#ffffff" stroke="#bfbfbf" points="2051.6401,-165.5 2051.6401,-183.5 2097.0933,-183.5 2097.0933,-165.5 2051.6401,-165.5"/>
<text text-anchor="middle" x="2074.3667" y="-171.5" font-family="Helvetica,sans-Serif" font-size="10.00" fill="#000000">atomic</text>
</g>
<!-- Node1&#45;&gt;Node51 -->
<g id="edge83" class="edge">
<title>Node1&#45;&gt;Node51</title>
<path fill="none" stroke="#191970" d="M1371.8131,-339.3159C1475.6061,-338.1828 1961.6542,-330.925 2016.3667,-294 2050.8075,-270.7562 2065.4989,-221.0365 2071.1804,-193.6228"/>
<polygon fill="#191970" stroke="#191970" points="2074.64,-194.1636 2073.0438,-183.6897 2067.76,-192.8729 2074.64,-194.1636"/>
</g>
<!-- Node52 -->
<g id="node21" class="node">
<title>Node52</title>
<g id="a_node21"><a xlink:href="random_8h.html" target="_top" xlink:title="random.h">
<polygon fill="#ffffff" stroke="#ff0000" points="779.2437,-220.5 779.2437,-238.5 837.4897,-238.5 837.4897,-220.5 779.2437,-220.5"/>
<text text-anchor="middle" x="808.3667" y="-226.5" font-family="Helvetica,sans-Serif" font-size="10.00" fill="#000000">random.h</text>
</a>
</g>
</g>
<!-- Node1&#45;&gt;Node52 -->
<g id="edge69" class="edge">
<title>Node1&#45;&gt;Node52</title>
<path fill="none" stroke="#191970" d="M1333.1011,-338.7292C1246.2392,-335.1234 893.4463,-319.0343 851.3667,-294 834.0753,-283.7129 822.3151,-263.4439 815.5229,-248.3598"/>
<polygon fill="#191970" stroke="#191970" points="818.6751,-246.8245 811.6073,-238.9317 812.2105,-249.5094 818.6751,-246.8245"/>
</g>
<!-- Node54 -->
<g id="node22" class="node">
<title>Node54</title>
<g id="a_node22"><a xlink:href="sync_8h.html" target="_top" xlink:title="sync.h">
<polygon fill="#ffffff" stroke="#ff0000" points="1982.916,-220.5 1982.916,-238.5 2027.8174,-238.5 2027.8174,-220.5 1982.916,-220.5"/>
<text text-anchor="middle" x="2005.3667" y="-226.5" font-family="Helvetica,sans-Serif" font-size="10.00" fill="#000000">sync.h</text>
</a>
</g>
</g>
<!-- Node1&#45;&gt;Node54 -->
<g id="edge77" class="edge">
<title>Node1&#45;&gt;Node54</title>
<path fill="none" stroke="#191970" d="M1371.6349,-338.8333C1476.5563,-335.1172 1975.1838,-316.323 1998.3667,-294 2010.2634,-282.5446 2010.8286,-263.0524 2009.14,-248.4876"/>
<polygon fill="#191970" stroke="#191970" points="2012.5833,-247.8531 2007.5598,-238.5249 2005.6697,-248.9498 2012.5833,-247.8531"/>
</g>
<!-- Node56 -->
<g id="node23" class="node">
<title>Node56</title>
<polygon fill="#ffffff" stroke="#bfbfbf" points="1937.0615,-165.5 1937.0615,-183.5 2033.6719,-183.5 2033.6719,-165.5 1937.0615,-165.5"/>
<text text-anchor="middle" x="1985.3667" y="-171.5" font-family="Helvetica,sans-Serif" font-size="10.00" fill="#000000">condition_variable</text>
</g>
<!-- Node1&#45;&gt;Node56 -->
<g id="edge88" class="edge">
<title>Node1&#45;&gt;Node56</title>
<path fill="none" stroke="#191970" d="M1371.5071,-336.6901C1412.8627,-330.4533 1513.5158,-314.3806 1596.3667,-294 1728.1808,-261.5748 1881.2572,-210.5075 1949.4287,-187.0464"/>
<polygon fill="#191970" stroke="#191970" points="1950.9319,-190.2301 1959.2418,-183.6577 1948.647,-183.6135 1950.9319,-190.2301"/>
</g>
<!-- Node57 -->
<g id="node24" class="node">
<title>Node57</title>
<polygon fill="#ffffff" stroke="#bfbfbf" points="2115.1895,-165.5 2115.1895,-183.5 2159.5439,-183.5 2159.5439,-165.5 2115.1895,-165.5"/>
<text text-anchor="middle" x="2137.3667" y="-171.5" font-family="Helvetica,sans-Serif" font-size="10.00" fill="#000000">thread</text>
</g>
<!-- Node1&#45;&gt;Node57 -->
<g id="edge86" class="edge">
<title>Node1&#45;&gt;Node57</title>
<path fill="none" stroke="#191970" d="M1371.6804,-339.1394C1476.9997,-337.0517 1979.5007,-325.494 2040.3667,-294 2083.717,-271.5692 2114.589,-220.3079 2128.7192,-192.7791"/>
<polygon fill="#191970" stroke="#191970" points="2132.0123,-194.0156 2133.3062,-183.5001 2125.7371,-190.9136 2132.0123,-194.0156"/>
</g>
<!-- Node73 -->
<g id="node25" class="node">
<title>Node73</title>
<g id="a_node25"><a xlink:href="amount_8h.html" target="_top" xlink:title="amount.h">
<polygon fill="#ffffff" stroke="#000000" points="474.5195,-165.5 474.5195,-183.5 532.2139,-183.5 532.2139,-165.5 474.5195,-165.5"/>
<text text-anchor="middle" x="503.3667" y="-171.5" font-family="Helvetica,sans-Serif" font-size="10.00" fill="#000000">amount.h</text>
</a>
</g>
</g>
<!-- Node1&#45;&gt;Node73 -->
<g id="edge47" class="edge">
<title>Node1&#45;&gt;Node73</title>
<path fill="none" stroke="#191970" d="M1333.1582,-339.1432C1264.2554,-337.5868 1023.2667,-329.755 828.3667,-294 740.2174,-277.8288 718.0226,-271.148 634.3667,-239 596.2208,-224.341 554.1715,-202.5679 528.2604,-188.4528"/>
<polygon fill="#191970" stroke="#191970" points="529.9307,-185.377 519.4815,-183.6263 526.5583,-191.5111 529.9307,-185.377"/>
</g>
<!-- Node74 -->
<g id="node26" class="node">
<title>Node74</title>
<g id="a_node26"><a xlink:href="bloom_8h.html" target="_top" xlink:title="bloom.h">
<polygon fill="#ffffff" stroke="#000000" points="1489.5786,-165.5 1489.5786,-183.5 1541.1548,-183.5 1541.1548,-165.5 1489.5786,-165.5"/>
<text text-anchor="middle" x="1515.3667" y="-171.5" font-family="Helvetica,sans-Serif" font-size="10.00" fill="#000000">bloom.h</text>
</a>
</g>
</g>
<!-- Node1&#45;&gt;Node74 -->
<g id="edge49" class="edge">
<title>Node1&#45;&gt;Node74</title>
<path fill="none" stroke="#191970" d="M1361.5973,-330.1561C1388.1578,-303.2698 1465.0362,-225.448 1498.9558,-191.1123"/>
<polygon fill="#191970" stroke="#191970" points="1501.6994,-193.3152 1506.2373,-183.7414 1496.7195,-188.3957 1501.6994,-193.3152"/>
</g>
<!-- Node75 -->
<g id="node27" class="node">
<title>Node75</title>
<g id="a_node27"><a xlink:href="_hash_8h.html" target="_top" xlink:title="hash.h">
<polygon fill="#ffffff" stroke="#ff0000" points="1111.3545,-220.5 1111.3545,-238.5 1157.3789,-238.5 1157.3789,-220.5 1111.3545,-220.5"/>
<text text-anchor="middle" x="1134.3667" y="-226.5" font-family="Helvetica,sans-Serif" font-size="10.00" fill="#000000">hash.h</text>
</a>
</g>
</g>
<!-- Node1&#45;&gt;Node75 -->
<g id="edge53" class="edge">
<title>Node1&#45;&gt;Node75</title>
<path fill="none" stroke="#191970" d="M1333.0468,-335.2617C1305.8857,-328.8185 1255.3714,-315.0397 1216.3667,-294 1191.6604,-280.6731 1166.8144,-259.8422 1151.0531,-245.4778"/>
<polygon fill="#191970" stroke="#191970" points="1153.3947,-242.8758 1143.6879,-238.6295 1148.6281,-248.0022 1153.3947,-242.8758"/>
</g>
<!-- Node84 -->
<g id="node30" class="node">
<title>Node84</title>
<g id="a_node30"><a xlink:href="limitedmap_8h.html" target="_top" xlink:title="limitedmap.h">
<polygon fill="#ffffff" stroke="#ff0000" points="2121.022,-275.5 2121.022,-293.5 2193.7114,-293.5 2193.7114,-275.5 2121.022,-275.5"/>
<text text-anchor="middle" x="2157.3667" y="-281.5" font-family="Helvetica,sans-Serif" font-size="10.00" fill="#000000">limitedmap.h</text>
</a>
</g>
</g>
<!-- Node1&#45;&gt;Node84 -->
<g id="edge61" class="edge">
<title>Node1&#45;&gt;Node84</title>
<path fill="none" stroke="#191970" d="M1371.7007,-339.241C1457.9512,-337.8955 1816.1321,-330.2925 2107.3667,-294 2108.4627,-293.8634 2109.5709,-293.7175 2110.6874,-293.5636"/>
<polygon fill="#191970" stroke="#191970" points="2111.511,-296.978 2120.8599,-291.9931 2110.443,-290.0599 2111.511,-296.978"/>
</g>
<!-- Node85 -->
<g id="node31" class="node">
<title>Node85</title>
<g id="a_node31"><a xlink:href="feerate_8h.html" target="_top" xlink:title="policy/feerate.h">
<polygon fill="#ffffff" stroke="#000000" points="893.458,-220.5 893.458,-238.5 977.2754,-238.5 977.2754,-220.5 893.458,-220.5"/>
<text text-anchor="middle" x="935.3667" y="-226.5" font-family="Helvetica,sans-Serif" font-size="10.00" fill="#000000">policy/feerate.h</text>
</a>
</g>
</g>
<!-- Node1&#45;&gt;Node85 -->
<g id="edge64" class="edge">
<title>Node1&#45;&gt;Node85</title>
<path fill="none" stroke="#191970" d="M1332.8762,-338.392C1269.2084,-334.5448 1068.0767,-320.5286 1009.3667,-294 985.2555,-283.1052 963.1732,-261.703 949.5264,-246.5447"/>
<polygon fill="#191970" stroke="#191970" points="952.0568,-244.1207 942.8534,-238.8721 946.7749,-248.7144 952.0568,-244.1207"/>
</g>
<!-- Node86 -->
<g id="node32" class="node">
<title>Node86</title>
<g id="a_node32"><a xlink:href="streams_8h.html" target="_top" xlink:title="streams.h">
<polygon fill="#ffffff" stroke="#ff0000" points="1167.416,-165.5 1167.416,-183.5 1227.3174,-183.5 1227.3174,-165.5 1167.416,-165.5"/>
<text text-anchor="middle" x="1197.3667" y="-171.5" font-family="Helvetica,sans-Serif" font-size="10.00" fill="#000000">streams.h</text>
</a>
</g>
</g>
<!-- Node1&#45;&gt;Node86 -->
<g id="edge70" class="edge">
<title>Node1&#45;&gt;Node86</title>
<path fill="none" stroke="#191970" d="M1333.0909,-335.0817C1311.0446,-329.139 1275.0743,-316.6092 1252.3667,-294 1223.7478,-265.5051 1208.4234,-219.3582 1201.6823,-193.5415"/>
<polygon fill="#191970" stroke="#191970" points="1205.0119,-192.4223 1199.2382,-183.5389 1198.212,-194.0839 1205.0119,-192.4223"/>
</g>
<!-- Node89 -->
<g id="node33" class="node">
<title>Node89</title>
<g id="a_node33"><a xlink:href="threadinterrupt_8h.html" target="_top" xlink:title="threadinterrupt.h">
<polygon fill="#ffffff" stroke="#ff0000" points="1899.6772,-275.5 1899.6772,-293.5 1989.0562,-293.5 1989.0562,-275.5 1899.6772,-275.5"/>
<text text-anchor="middle" x="1944.3667" y="-281.5" font-family="Helvetica,sans-Serif" font-size="10.00" fill="#000000">threadinterrupt.h</text>
</a>
</g>
</g>
<!-- Node1&#45;&gt;Node89 -->
<g id="edge79" class="edge">
<title>Node1&#45;&gt;Node89</title>
<path fill="none" stroke="#191970" d="M1371.727,-337.7013C1452.1637,-330.2283 1761.6938,-301.4713 1889.0951,-289.635"/>
<polygon fill="#191970" stroke="#191970" points="1889.7655,-293.0879 1899.3988,-288.6778 1889.1179,-286.1179 1889.7655,-293.0879"/>
</g>
<!-- Node91 -->
<g id="node34" class="node">
<title>Node91</title>
<polygon fill="#ffffff" stroke="#bfbfbf" points="1261.4629,-275.5 1261.4629,-293.5 1305.2705,-293.5 1305.2705,-275.5 1261.4629,-275.5"/>
<text text-anchor="middle" x="1283.3667" y="-281.5" font-family="Helvetica,sans-Serif" font-size="10.00" fill="#000000">deque</text>
</g>
<!-- Node1&#45;&gt;Node91 -->
<g id="edge84" class="edge">
<title>Node1&#45;&gt;Node91</title>
<path fill="none" stroke="#191970" d="M1340.9728,-330.4179C1330.6475,-322.1876 1315.212,-309.8839 1302.917,-300.0836"/>
<polygon fill="#191970" stroke="#191970" points="1305.0096,-297.2757 1295.0082,-293.7795 1300.6463,-302.7495 1305.0096,-297.2757"/>
</g>
<!-- Node8 -->
<g id="node4" class="node">
<title>Node8</title>
<g id="a_node4"><a xlink:href="serialize_8h.html" target="_top" xlink:title="serialize.h">
<polygon fill="#ffffff" stroke="#ff0000" points="1114.8569,-110.5 1114.8569,-128.5 1175.8765,-128.5 1175.8765,-110.5 1114.8569,-110.5"/>
<text text-anchor="middle" x="1145.3667" y="-116.5" font-family="Helvetica,sans-Serif" font-size="10.00" fill="#000000">serialize.h</text>
</a>
</g>
</g>
<!-- Node2&#45;&gt;Node8 -->
<g id="edge3" class="edge">
<title>Node2&#45;&gt;Node8</title>
<path fill="none" stroke="#191970" d="M1597.5965,-170.8876C1583.4622,-169.073 1566.0053,-166.8688 1550.3667,-165 1417.2802,-149.0961 1259.392,-131.8151 1186.2807,-123.9034"/>
<polygon fill="#191970" stroke="#191970" points="1186.4402,-120.4003 1176.122,-122.8053 1185.6879,-127.3598 1186.4402,-120.4003"/>
</g>
<!-- Node16 -->
<g id="node7" class="node">
<title>Node16</title>
<polygon fill="#ffffff" stroke="#bfbfbf" points="2126.6401,-55.5 2126.6401,-73.5 2162.0933,-73.5 2162.0933,-55.5 2126.6401,-55.5"/>
<text text-anchor="middle" x="2144.3667" y="-61.5" font-family="Helvetica,sans-Serif" font-size="10.00" fill="#000000">map</text>
</g>
<!-- Node2&#45;&gt;Node16 -->
<g id="edge13" class="edge">
<title>Node2&#45;&gt;Node16</title>
<path fill="none" stroke="#191970" d="M1653.1602,-172.8532C1746.301,-167.181 2043.7283,-147.7693 2082.3667,-129 2103.6553,-118.6587 2121.5667,-97.7769 2132.5791,-82.566"/>
<polygon fill="#191970" stroke="#191970" points="2135.7108,-84.1905 2138.5129,-73.9729 2129.9506,-80.2129 2135.7108,-84.1905"/>
</g>
<!-- Node5 -->
<g id="node9" class="node">
<title>Node5</title>
<polygon fill="#ffffff" stroke="#bfbfbf" points="1260.1401,-55.5 1260.1401,-73.5 1300.5933,-73.5 1300.5933,-55.5 1260.1401,-55.5"/>
<text text-anchor="middle" x="1280.3667" y="-61.5" font-family="Helvetica,sans-Serif" font-size="10.00" fill="#000000">string</text>
</g>
<!-- Node2&#45;&gt;Node5 -->
<g id="edge12" class="edge">
<title>Node2&#45;&gt;Node5</title>
<path fill="none" stroke="#191970" d="M1597.4261,-165.5914C1533.4731,-145.2006 1376.8801,-95.2724 1310.6915,-74.1688"/>
<polygon fill="#191970" stroke="#191970" points="1311.4636,-70.7414 1300.8729,-71.0382 1309.3372,-77.4106 1311.4636,-70.7414"/>
</g>
<!-- Node9 -->
<g id="node5" class="node">
<title>Node9</title>
<g id="a_node5"><a xlink:href="endian_8h.html" target="_top" xlink:title="compat/endian.h">
<polygon fill="#ffffff" stroke="#ff0000" points="816.3965,-55.5 816.3965,-73.5 906.3369,-73.5 906.3369,-55.5 816.3965,-55.5"/>
<text text-anchor="middle" x="861.3667" y="-61.5" font-family="Helvetica,sans-Serif" font-size="10.00" fill="#000000">compat/endian.h</text>
</a>
</g>
</g>
<!-- Node8&#45;&gt;Node9 -->
<g id="edge4" class="edge">
<title>Node8&#45;&gt;Node9</title>
<path fill="none" stroke="#191970" d="M1114.7039,-113.5618C1067.3165,-104.3846 975.5977,-86.6222 916.4923,-75.1757"/>
<polygon fill="#191970" stroke="#191970" points="917.0598,-71.7207 906.5767,-73.2555 915.7288,-78.593 917.0598,-71.7207"/>
</g>
<!-- Node8&#45;&gt;Node11 -->
<g id="edge8" class="edge">
<title>Node8&#45;&gt;Node11</title>
<path fill="none" stroke="#191970" d="M1121.1048,-110.3978C1084.2256,-96.8277 1011.6539,-71.161 948.3667,-55 874.1295,-36.0428 785.3496,-21.5386 737.6796,-14.3992"/>
<polygon fill="#191970" stroke="#191970" points="737.9978,-10.9083 727.5932,-12.907 736.9733,-17.8329 737.9978,-10.9083"/>
</g>
<!-- Node8&#45;&gt;Node16 -->
<g id="edge6" class="edge">
<title>Node8&#45;&gt;Node16</title>
<path fill="none" stroke="#191970" d="M1176.0847,-117.8088C1325.289,-109.5944 1973.0374,-73.9325 2116.2632,-66.0472"/>
<polygon fill="#191970" stroke="#191970" points="2116.6198,-69.533 2126.4122,-65.4885 2116.2349,-62.5436 2116.6198,-69.533"/>
</g>
<!-- Node8&#45;&gt;Node17 -->
<g id="edge7" class="edge">
<title>Node8&#45;&gt;Node17</title>
<path fill="none" stroke="#191970" d="M1176.0109,-118.3131C1300.218,-113.4661 1778.3013,-94.4569 2171.3667,-74 2213.4218,-71.8113 2261.707,-68.8648 2293.9284,-66.8367"/>
<polygon fill="#191970" stroke="#191970" points="2294.4486,-70.3108 2304.2077,-66.1865 2294.0066,-63.3248 2294.4486,-70.3108"/>
</g>
<!-- Node8&#45;&gt;Node5 -->
<g id="edge9" class="edge">
<title>Node8&#45;&gt;Node5</title>
<path fill="none" stroke="#191970" d="M1167.6592,-110.4179C1190.2702,-101.206 1225.4066,-86.8912 1250.4335,-76.695"/>
<polygon fill="#191970" stroke="#191970" points="1251.8723,-79.8882 1259.8126,-72.8739 1249.2311,-73.4056 1251.8723,-79.8882"/>
</g>
<!-- Node19 -->
<g id="node10" class="node">
<title>Node19</title>
<polygon fill="#ffffff" stroke="#bfbfbf" points="749.9702,-55.5 749.9702,-73.5 798.7632,-73.5 798.7632,-55.5 749.9702,-55.5"/>
<text text-anchor="middle" x="774.3667" y="-61.5" font-family="Helvetica,sans-Serif" font-size="10.00" fill="#000000">string.h</text>
</g>
<!-- Node8&#45;&gt;Node19 -->
<g id="edge10" class="edge">
<title>Node8&#45;&gt;Node19</title>
<path fill="none" stroke="#191970" d="M1114.814,-116.8999C1056.8515,-111.6437 926.8565,-98.3095 808.7091,-74.0317"/>
<polygon fill="#191970" stroke="#191970" points="809.2791,-70.5753 798.7749,-71.9582 807.8488,-77.4276 809.2791,-70.5753"/>
</g>
<!-- Node21 -->
<g id="node11" class="node">
<title>Node21</title>
<polygon fill="#ffffff" stroke="#bfbfbf" points="1448.751,-55.5 1448.751,-73.5 1491.9824,-73.5 1491.9824,-55.5 1448.751,-55.5"/>
<text text-anchor="middle" x="1470.3667" y="-61.5" font-family="Helvetica,sans-Serif" font-size="10.00" fill="#000000">vector</text>
</g>
<!-- Node8&#45;&gt;Node21 -->
<g id="edge11" class="edge">
<title>Node8&#45;&gt;Node21</title>
<path fill="none" stroke="#191970" d="M1175.9419,-114.3257C1237.4843,-103.9109 1375.7631,-80.5098 1438.4239,-69.9057"/>
<polygon fill="#191970" stroke="#191970" points="1439.2344,-73.3184 1448.5101,-68.1988 1438.0663,-66.4165 1439.2344,-73.3184"/>
</g>
<!-- Node9&#45;&gt;Node11 -->
<g id="edge5" class="edge">
<title>Node9&#45;&gt;Node11</title>
<path fill="none" stroke="#191970" d="M835.2762,-55.4179C808.5401,-46.111 766.8407,-31.5954 737.4973,-21.3809"/>
<polygon fill="#191970" stroke="#191970" points="738.2731,-17.945 727.6783,-17.9629 735.9718,-24.5559 738.2731,-17.945"/>
</g>
<!-- Node43&#45;&gt;Node11 -->
<g id="edge45" class="edge">
<title>Node43&#45;&gt;Node11</title>
<path fill="none" stroke="#191970" d="M1587.3666,-278.3592C1625.4551,-270.7021 1690.7704,-256.4681 1745.3667,-239 1755.8115,-235.6582 1917.806,-167.9554 1928.3667,-165 2024.2015,-138.1802 2071.7282,-191.2565 2149.3667,-129 2176.135,-107.5351 2195.2499,-79.6349 2171.3667,-55 2145.5949,-28.417 957.5379,-12.6094 738.0409,-9.9133"/>
<polygon fill="#191970" stroke="#191970" points="737.8047,-6.4103 727.7627,-9.788 737.7192,-13.4097 737.8047,-6.4103"/>
</g>
<!-- Node43&#45;&gt;Node16 -->
<g id="edge44" class="edge">
<title>Node43&#45;&gt;Node16</title>
<path fill="none" stroke="#191970" d="M1587.2721,-275.8927C1618.4036,-267.2878 1666.9858,-253.3098 1708.3667,-239 1792.8405,-209.7884 1809.0911,-188.3592 1895.3667,-165 1997.3574,-137.3859 2053.3817,-201.3737 2130.3667,-129 2142.4879,-117.6048 2145.3634,-98.3887 2145.5816,-83.8881"/>
<polygon fill="#191970" stroke="#191970" points="2149.0706,-83.4152 2145.3127,-73.5092 2142.0729,-83.5965 2149.0706,-83.4152"/>
</g>
<!-- Node43&#45;&gt;Node21 -->
<g id="edge46" class="edge">
<title>Node43&#45;&gt;Node21</title>
<path fill="none" stroke="#191970" d="M1556.9665,-275.415C1559.8082,-261.7507 1566.9517,-235.8276 1582.3667,-220 1612.4712,-189.0897 1684.709,-201.9127 1662.3667,-165 1657.6441,-157.1975 1549.8948,-103.5431 1497.9222,-77.9835"/>
<polygon fill="#191970" stroke="#191970" points="1499.4232,-74.8213 1488.9042,-73.5552 1496.3377,-81.1047 1499.4232,-74.8213"/>
</g>
<!-- Node43&#45;&gt;Node44 -->
<g id="edge15" class="edge">
<title>Node43&#45;&gt;Node44</title>
<path fill="none" stroke="#191970" d="M1539.2454,-275.4982C1504.9738,-256.3619 1424.6577,-211.5153 1383.5604,-188.5675"/>
<polygon fill="#191970" stroke="#191970" points="1385.1483,-185.4455 1374.7108,-183.6261 1381.7356,-191.5573 1385.1483,-185.4455"/>
</g>
<!-- Node43&#45;&gt;Node45 -->
<g id="edge23" class="edge">
<title>Node43&#45;&gt;Node45</title>
<path fill="none" stroke="#191970" d="M1528.2854,-275.4179C1500.9033,-266.2348 1458.4002,-251.9807 1428.0159,-241.7909"/>
<polygon fill="#191970" stroke="#191970" points="1428.8095,-238.3655 1418.2156,-238.5042 1426.5838,-245.0023 1428.8095,-238.3655"/>
</g>
<!-- Node43&#45;&gt;Node52 -->
<g id="edge37" class="edge">
<title>Node43&#45;&gt;Node52</title>
<path fill="none" stroke="#191970" d="M1523.188,-282.9662C1426.4151,-278.2145 1129.5964,-262.6221 884.3667,-239 872.3893,-237.8463 859.3832,-236.3211 847.5723,-234.8313"/>
<polygon fill="#191970" stroke="#191970" points="847.9218,-231.3475 837.5566,-233.5415 847.0276,-238.2902 847.9218,-231.3475"/>
</g>
<!-- Node43&#45;&gt;Node54 -->
<g id="edge41" class="edge">
<title>Node43&#45;&gt;Node54</title>
<path fill="none" stroke="#191970" d="M1587.3688,-280.5886C1669.8922,-270.5024 1889.2629,-243.6905 1972.6118,-233.5034"/>
<polygon fill="#191970" stroke="#191970" points="1973.2636,-236.9498 1982.7651,-232.2624 1972.4143,-230.0016 1973.2636,-236.9498"/>
</g>
<!-- Node44&#45;&gt;Node8 -->
<g id="edge19" class="edge">
<title>Node44&#45;&gt;Node8</title>
<path fill="none" stroke="#191970" d="M1323.1941,-165.4179C1285.4759,-155.6784 1225.6669,-140.2348 1185.974,-129.9855"/>
<polygon fill="#191970" stroke="#191970" points="1186.651,-126.5455 1176.0935,-127.4342 1184.9008,-133.3232 1186.651,-126.5455"/>
</g>
<!-- Node44&#45;&gt;Node11 -->
<g id="edge20" class="edge">
<title>Node44&#45;&gt;Node11</title>
<path fill="none" stroke="#191970" d="M1395.4696,-171.5642C1419.6442,-169.6628 1451.8736,-167.1497 1480.3667,-165 1535.1347,-160.868 1935.9708,-169.2262 1973.3667,-129 1979.1163,-122.8153 1978.9052,-116.3744 1973.3667,-110 1858.556,22.1381 1757.6112,-71.758 1583.3667,-55 1255.1719,-23.4359 855.8664,-12.7695 737.7968,-10.1855"/>
<polygon fill="#191970" stroke="#191970" points="737.6445,-6.6815 727.5719,-9.9667 737.4947,-13.6799 737.6445,-6.6815"/>
</g>
<!-- Node44&#45;&gt;Node5 -->
<g id="edge21" class="edge">
<title>Node44&#45;&gt;Node5</title>
<path fill="none" stroke="#191970" d="M1351.9836,-165.4982C1339.0712,-147.2885 1309.6508,-105.798 1292.811,-82.0496"/>
<polygon fill="#191970" stroke="#191970" points="1295.4774,-79.759 1286.838,-73.6261 1289.7672,-83.808 1295.4774,-79.759"/>
</g>
<!-- Node44&#45;&gt;Node21 -->
<g id="edge22" class="edge">
<title>Node44&#45;&gt;Node21</title>
<path fill="none" stroke="#191970" d="M1367.5321,-165.4982C1386.4012,-146.9662 1429.8206,-104.3221 1453.7647,-80.8056"/>
<polygon fill="#191970" stroke="#191970" points="1456.3926,-83.1303 1461.0746,-73.6261 1451.4876,-78.1362 1456.3926,-83.1303"/>
</g>
<!-- Node44&#45;&gt;Node27 -->
<g id="edge16" class="edge">
<title>Node44&#45;&gt;Node27</title>
<path fill="none" stroke="#191970" d="M1321.2753,-171.4019C1297.1054,-169.4349 1264.8769,-166.9096 1236.3667,-165 1083.2929,-154.7474 604.5744,-129.0546 464.3373,-121.5739"/>
<polygon fill="#191970" stroke="#191970" points="464.25,-118.0644 454.0778,-121.0269 463.8772,-125.0545 464.25,-118.0644"/>
</g>
<!-- Node27&#45;&gt;Node28 -->
<g id="edge17" class="edge">
<title>Node27&#45;&gt;Node28</title>
<path fill="none" stroke="#191970" d="M398.946,-110.4179C370.876,-100.7688 326.5187,-85.521 296.704,-75.2722"/>
<polygon fill="#191970" stroke="#191970" points="297.7896,-71.9444 287.195,-72.0035 295.514,-78.5642 297.7896,-71.9444"/>
</g>
<!-- Node27&#45;&gt;Node36 -->
<g id="edge18" class="edge">
<title>Node27&#45;&gt;Node36</title>
<path fill="none" stroke="#191970" d="M420.9082,-110.4179C417.2564,-102.9789 411.9709,-92.2123 407.4358,-82.9742"/>
<polygon fill="#191970" stroke="#191970" points="410.4707,-81.2138 402.9221,-73.7795 404.187,-84.2985 410.4707,-81.2138"/>
</g>
<!-- Node45&#45;&gt;Node8 -->
<g id="edge25" class="edge">
<title>Node45&#45;&gt;Node8</title>
<path fill="none" stroke="#191970" d="M1371.2355,-220.4982C1327.899,-201.1201 1225.6034,-155.3782 1174.9058,-132.7085"/>
<polygon fill="#191970" stroke="#191970" points="1176.3337,-129.5131 1165.7761,-128.6261 1173.4763,-135.9034 1176.3337,-129.5131"/>
</g>
<!-- Node45&#45;&gt;Node11 -->
<g id="edge35" class="edge">
<title>Node45&#45;&gt;Node11</title>
<path fill="none" stroke="#191970" d="M1421.5067,-222.6409C1453.8959,-214.8646 1506.6192,-201.0275 1550.3667,-184 1567.9632,-177.1511 1570.202,-170.1564 1588.3667,-165 1674.8934,-140.4379 2044.6049,-180.9853 1989.3667,-110 1928.2644,-31.4789 1870.8111,-69.4139 1772.3667,-55 1565.7458,-24.7473 897.4988,-12.5381 737.8534,-10.0138"/>
<polygon fill="#191970" stroke="#191970" points="737.7195,-6.5113 727.6662,-9.855 737.6104,-13.5105 737.7195,-6.5113"/>
</g>
<!-- Node45&#45;&gt;Node5 -->
<g id="edge36" class="edge">
<title>Node45&#45;&gt;Node5</title>
<path fill="none" stroke="#191970" d="M1396.6887,-220.2971C1403.4136,-207.3677 1413.1165,-183.3542 1404.3667,-165 1384.8912,-124.1466 1339.7948,-94.5149 1309.6959,-78.4147"/>
<polygon fill="#191970" stroke="#191970" points="1310.9931,-75.1454 1300.5021,-73.6658 1307.7806,-81.3648 1310.9931,-75.1454"/>
</g>
<!-- Node45&#45;&gt;Node44 -->
<g id="edge24" class="edge">
<title>Node45&#45;&gt;Node44</title>
<path fill="none" stroke="#191970" d="M1385.9174,-220.4179C1381.3591,-212.8207 1374.7183,-201.7527 1369.0987,-192.3866"/>
<polygon fill="#191970" stroke="#191970" points="1372.0806,-190.5536 1363.9344,-183.7795 1366.0781,-194.1552 1372.0806,-190.5536"/>
</g>
<!-- Node45&#45;&gt;Node46 -->
<g id="edge26" class="edge">
<title>Node45&#45;&gt;Node46</title>
<path fill="none" stroke="#191970" d="M1361.0949,-226.1834C1274.3614,-216.6807 1024.9928,-189.3594 928.3175,-178.7675"/>
<polygon fill="#191970" stroke="#191970" points="928.4273,-175.2587 918.1055,-177.6487 927.6648,-182.217 928.4273,-175.2587"/>
</g>
<!-- Node45&#45;&gt;Node51 -->
<g id="edge34" class="edge">
<title>Node45&#45;&gt;Node51</title>
<path fill="none" stroke="#191970" d="M1421.4969,-227.7834C1536.6776,-221.1701 1946.9954,-197.1272 2041.5194,-183.5608"/>
<polygon fill="#191970" stroke="#191970" points="2042.1253,-187.0084 2051.4402,-181.9602 2041.0103,-180.0977 2042.1253,-187.0084"/>
</g>
<!-- Node46&#45;&gt;Node11 -->
<g id="edge27" class="edge">
<title>Node46&#45;&gt;Node11</title>
<path fill="none" stroke="#191970" d="M870.5992,-165.268C840.4595,-149.7317 780.6725,-115.9108 741.3667,-74 728.614,-60.4021 718.2224,-41.793 711.5495,-28.0572"/>
<polygon fill="#191970" stroke="#191970" points="714.5769,-26.266 707.1942,-18.667 708.2268,-29.2114 714.5769,-26.266"/>
</g>
<!-- Node46&#45;&gt;Node5 -->
<g id="edge28" class="edge">
<title>Node46&#45;&gt;Node5</title>
<path fill="none" stroke="#191970" d="M901.1028,-165.3173C920.0069,-151.0328 958.8851,-123.7103 996.3667,-110 1084.7706,-77.6629 1196.9768,-68.278 1249.9931,-65.5771"/>
<polygon fill="#191970" stroke="#191970" points="1250.2537,-69.0689 1260.0806,-65.1088 1249.929,-62.0764 1250.2537,-69.0689"/>
</g>
<!-- Node46&#45;&gt;Node21 -->
<g id="edge29" class="edge">
<title>Node46&#45;&gt;Node21</title>
<path fill="none" stroke="#191970" d="M914.6161,-165.4637C954.5791,-151.504 1035.0863,-124.7668 1105.3667,-110 1226.7685,-84.492 1374.1005,-71.4964 1438.1024,-66.7118"/>
<polygon fill="#191970" stroke="#191970" points="1438.634,-70.1824 1448.3524,-65.9631 1438.1239,-63.201 1438.634,-70.1824"/>
</g>
<!-- Node46&#45;&gt;Node49 -->
<g id="edge30" class="edge">
<title>Node46&#45;&gt;Node49</title>
<path fill="none" stroke="#191970" d="M860.7363,-167.3097C823.9494,-158.071 759.6493,-141.9226 716.0628,-130.9762"/>
<polygon fill="#191970" stroke="#191970" points="716.8286,-127.5599 706.2772,-128.5186 715.1235,-134.3491 716.8286,-127.5599"/>
</g>
<!-- Node49&#45;&gt;Node9 -->
<g id="edge33" class="edge">
<title>Node49&#45;&gt;Node9</title>
<path fill="none" stroke="#191970" d="M701.9065,-110.4179C734.2126,-101.115 784.5915,-86.608 820.0612,-76.3943"/>
<polygon fill="#191970" stroke="#191970" points="821.4565,-79.6348 830.0975,-73.5042 819.5195,-72.9081 821.4565,-79.6348"/>
</g>
<!-- Node49&#45;&gt;Node11 -->
<g id="edge31" class="edge">
<title>Node49&#45;&gt;Node11</title>
<path fill="none" stroke="#191970" d="M673.0672,-110.4982C678.4335,-92.6108 690.5389,-52.2594 697.7186,-28.3271"/>
<polygon fill="#191970" stroke="#191970" points="701.1077,-29.2102 700.6289,-18.6261 694.4029,-27.1987 701.1077,-29.2102"/>
</g>
<!-- Node49&#45;&gt;Node19 -->
<g id="edge32" class="edge">
<title>Node49&#45;&gt;Node19</title>
<path fill="none" stroke="#191970" d="M687.5402,-110.4179C704.0247,-101.7001 729.1509,-88.4122 748.1399,-78.3699"/>
<polygon fill="#191970" stroke="#191970" points="749.964,-81.3646 757.1677,-73.5956 746.6915,-75.1767 749.964,-81.3646"/>
</g>
<!-- Node52&#45;&gt;Node11 -->
<g id="edge40" class="edge">
<title>Node52&#45;&gt;Node11</title>
<path fill="none" stroke="#191970" d="M781.2509,-220.3637C730.2693,-202.5551 623.5208,-162.0487 604.3667,-129 593.6628,-110.5315 607.1435,-69.3337 618.3667,-55 631.2525,-38.5428 651.7922,-27.3146 669.4526,-20.13"/>
<polygon fill="#191970" stroke="#191970" points="670.7917,-23.3655 678.9009,-16.547 668.3096,-16.8203 670.7917,-23.3655"/>
</g>
<!-- Node52&#45;&gt;Node46 -->
<g id="edge39" class="edge">
<title>Node52&#45;&gt;Node46</title>
<path fill="none" stroke="#191970" d="M821.7422,-220.4179C834.1707,-211.9788 852.9064,-199.257 867.5076,-189.3426"/>
<polygon fill="#191970" stroke="#191970" points="869.6644,-192.1088 875.9713,-183.5956 865.7321,-186.3176 869.6644,-192.1088"/>
</g>
<!-- Node52&#45;&gt;Node49 -->
<g id="edge38" class="edge">
<title>Node52&#45;&gt;Node49</title>
<path fill="none" stroke="#191970" d="M784.9754,-220.4715C766.4844,-212.6142 740.6623,-199.9842 721.3667,-184 705.2888,-170.6813 690.9362,-151.5293 681.585,-137.5559"/>
<polygon fill="#191970" stroke="#191970" points="684.3204,-135.3403 675.9504,-128.8446 678.4427,-139.1421 684.3204,-135.3403"/>
</g>
<!-- Node54&#45;&gt;Node56 -->
<g id="edge42" class="edge">
<title>Node54&#45;&gt;Node56</title>
<path fill="none" stroke="#191970" d="M2002.0641,-220.4179C1999.3878,-213.0581 1995.5271,-202.441 1992.192,-193.2695"/>
<polygon fill="#191970" stroke="#191970" points="1995.4478,-191.9813 1988.741,-183.7795 1988.8693,-194.3735 1995.4478,-191.9813"/>
</g>
<!-- Node54&#45;&gt;Node57 -->
<g id="edge43" class="edge">
<title>Node54&#45;&gt;Node57</title>
<path fill="none" stroke="#191970" d="M2027.1638,-220.4179C2048.6596,-211.4613 2081.7331,-197.6806 2106.0419,-187.552"/>
<polygon fill="#191970" stroke="#191970" points="2107.6526,-190.6726 2115.5372,-183.5956 2104.9603,-184.2111 2107.6526,-190.6726"/>
</g>
<!-- Node73&#45;&gt;Node11 -->
<g id="edge48" class="edge">
<title>Node73&#45;&gt;Node11</title>
<path fill="none" stroke="#191970" d="M500.2742,-165.4518C493.4514,-143.6564 479.7308,-87.6398 506.3667,-55 526.6199,-30.1817 618.1309,-17.6241 668.997,-12.4599"/>
<polygon fill="#191970" stroke="#191970" points="669.5798,-15.9198 679.1941,-11.4684 668.9023,-8.9527 669.5798,-15.9198"/>
</g>
<!-- Node74&#45;&gt;Node8 -->
<g id="edge50" class="edge">
<title>Node74&#45;&gt;Node8</title>
<path fill="none" stroke="#191970" d="M1489.349,-170.6325C1425.8796,-161.1979 1262.7129,-136.9433 1186.1625,-125.5642"/>
<polygon fill="#191970" stroke="#191970" points="1186.3612,-122.0554 1175.9552,-124.0469 1185.3319,-128.9793 1186.3612,-122.0554"/>
</g>
<!-- Node74&#45;&gt;Node21 -->
<g id="edge51" class="edge">
<title>Node74&#45;&gt;Node21</title>
<path fill="none" stroke="#191970" d="M1511.6842,-165.4982C1504.3336,-147.5302 1487.7103,-106.8954 1477.9368,-83.0046"/>
<polygon fill="#191970" stroke="#191970" points="1481.1259,-81.5564 1474.1001,-73.6261 1474.6471,-84.2069 1481.1259,-81.5564"/>
</g>
<!-- Node75&#45;&gt;Node8 -->
<g id="edge58" class="edge">
<title>Node75&#45;&gt;Node8</title>
<path fill="none" stroke="#191970" d="M1131.0807,-220.2456C1127.0636,-207.6577 1121.2756,-184.4742 1125.3667,-165 1127.3594,-155.5145 1131.454,-145.5931 1135.4222,-137.4445"/>
<polygon fill="#191970" stroke="#191970" points="1138.5476,-139.0204 1140.0502,-128.5327 1132.3353,-135.7943 1138.5476,-139.0204"/>
</g>
<!-- Node75&#45;&gt;Node21 -->
<g id="edge60" class="edge">
<title>Node75&#45;&gt;Node21</title>
<path fill="none" stroke="#191970" d="M1157.5114,-228.1566C1215.3901,-224.4026 1364.6141,-212.1743 1404.3667,-184 1439.0363,-159.4282 1457.5172,-110.6572 1465.4794,-83.6374"/>
<polygon fill="#191970" stroke="#191970" points="1468.9,-84.3988 1468.1862,-73.8281 1462.1522,-82.5368 1468.9,-84.3988"/>
</g>
<!-- Node75&#45;&gt;Node46 -->
<g id="edge59" class="edge">
<title>Node75&#45;&gt;Node46</title>
<path fill="none" stroke="#191970" d="M1111.3543,-222.4343C1108.3411,-221.578 1105.2869,-220.7442 1102.3667,-220 1041.9421,-204.602 970.9821,-190.1619 928.1316,-181.8347"/>
<polygon fill="#191970" stroke="#191970" points="928.6095,-178.3624 918.1272,-179.9025 927.2821,-185.2354 928.6095,-178.3624"/>
</g>
<!-- Node75&#45;&gt;Node77 -->
<g id="edge54" class="edge">
<title>Node75&#45;&gt;Node77</title>
<path fill="none" stroke="#191970" d="M1111.0972,-221.9119C1108.1815,-221.1629 1105.2213,-220.4974 1102.3667,-220 823.0133,-171.3217 748.4748,-200.0524 465.3667,-184 427.5626,-181.8565 384.9453,-179.432 352.2249,-177.5689"/>
<polygon fill="#191970" stroke="#191970" points="352.1507,-174.0591 341.9678,-176.9847 351.7526,-181.0477 352.1507,-174.0591"/>
</g>
<!-- Node77&#45;&gt;Node11 -->
<g id="edge55" class="edge">
<title>Node77&#45;&gt;Node11</title>
<path fill="none" stroke="#191970" d="M299.5346,-165.3647C303.1034,-141.7988 316.2543,-79.115 357.3667,-55 409.7745,-24.2595 592.4427,-13.7585 669.0944,-10.6522"/>
<polygon fill="#191970" stroke="#191970" points="669.325,-14.146 679.1821,-10.2616 669.0541,-7.1512 669.325,-14.146"/>
</g>
<!-- Node77&#45;&gt;Node5 -->
<g id="edge57" class="edge">
<title>Node77&#45;&gt;Node5</title>
<path fill="none" stroke="#191970" d="M307.1825,-165.3173C322.0786,-150.5042 353.8936,-121.8036 387.3667,-110 428.8724,-95.3639 1097.7766,-70.9475 1249.7959,-65.5691"/>
<polygon fill="#191970" stroke="#191970" points="1249.9619,-69.0656 1259.8323,-65.2152 1249.7151,-62.0699 1249.9619,-69.0656"/>
</g>
<!-- Node23 -->
<g id="node29" class="node">
<title>Node23</title>
<polygon fill="#ffffff" stroke="#bfbfbf" points="140.5244,-110.5 140.5244,-128.5 188.209,-128.5 188.209,-110.5 140.5244,-110.5"/>
<text text-anchor="middle" x="164.3667" y="-116.5" font-family="Helvetica,sans-Serif" font-size="10.00" fill="#000000">stdlib.h</text>
</g>
<!-- Node77&#45;&gt;Node23 -->
<g id="edge56" class="edge">
<title>Node77&#45;&gt;Node23</title>
<path fill="none" stroke="#191970" d="M276.2393,-165.4179C254.3208,-156.4215 220.5445,-142.5581 195.8376,-132.4172"/>
<polygon fill="#191970" stroke="#191970" points="197.107,-129.1549 186.5269,-128.5956 194.449,-135.6306 197.107,-129.1549"/>
</g>
<!-- Node84&#45;&gt;Node16 -->
<g id="edge62" class="edge">
<title>Node84&#45;&gt;Node16</title>
<path fill="none" stroke="#191970" d="M2163.301,-275.3723C2179.8037,-248.757 2223.304,-169.3636 2196.3667,-110 2190.7128,-97.54 2179.7741,-87.1506 2169.3823,-79.4602"/>
<polygon fill="#191970" stroke="#191970" points="2171.1362,-76.4191 2160.9099,-73.6489 2167.1767,-82.1916 2171.1362,-76.4191"/>
</g>
<!-- Node85&#45;&gt;Node8 -->
<g id="edge66" class="edge">
<title>Node85&#45;&gt;Node8</title>
<path fill="none" stroke="#191970" d="M952.5519,-220.4982C989.2388,-201.2813 1075.423,-156.1372 1119.0616,-133.2788"/>
<polygon fill="#191970" stroke="#191970" points="1120.7098,-136.3667 1127.9441,-128.6261 1117.4617,-130.1659 1120.7098,-136.3667"/>
</g>
<!-- Node85&#45;&gt;Node5 -->
<g id="edge67" class="edge">
<title>Node85&#45;&gt;Node5</title>
<path fill="none" stroke="#191970" d="M943.9247,-220.3827C965.5312,-197.933 1024.9538,-139.6598 1086.3667,-110 1140.584,-83.8153 1210.7489,-72.204 1250.1179,-67.4531"/>
<polygon fill="#191970" stroke="#191970" points="1250.5936,-70.9216 1260.1338,-66.3134 1249.8022,-63.9665 1250.5936,-70.9216"/>
</g>
<!-- Node85&#45;&gt;Node73 -->
<g id="edge65" class="edge">
<title>Node85&#45;&gt;Node73</title>
<path fill="none" stroke="#191970" d="M893.1582,-224.1262C809.5468,-213.4813 623.946,-189.8515 542.7186,-179.5101"/>
<polygon fill="#191970" stroke="#191970" points="542.7897,-175.991 532.4277,-178.1999 541.9055,-182.9349 542.7897,-175.991"/>
</g>
<!-- Node86&#45;&gt;Node8 -->
<g id="edge71" class="edge">
<title>Node86&#45;&gt;Node8</title>
<path fill="none" stroke="#191970" d="M1188.78,-165.4179C1181.2979,-157.5041 1170.2551,-145.8243 1161.1795,-136.2251"/>
<polygon fill="#191970" stroke="#191970" points="1163.5534,-133.6414 1154.14,-128.7795 1158.4669,-138.4505 1163.5534,-133.6414"/>
</g>
<!-- Node86&#45;&gt;Node11 -->
<g id="edge73" class="edge">
<title>Node86&#45;&gt;Node11</title>
<path fill="none" stroke="#191970" d="M1171.4062,-165.3757C1125.5532,-148.9634 1027.5867,-112.5622 948.3667,-74 933.1498,-66.5928 931.1642,-61.0712 915.3667,-55 855.1158,-31.8448 780.467,-19.2956 737.7382,-13.5327"/>
<polygon fill="#191970" stroke="#191970" points="737.9592,-10.032 727.5909,-12.2114 737.0553,-16.9734 737.9592,-10.032"/>
</g>
<!-- Node86&#45;&gt;Node16 -->
<g id="edge72" class="edge">
<title>Node86&#45;&gt;Node16</title>
<path fill="none" stroke="#191970" d="M1227.6153,-171.7684C1250.7971,-169.7314 1283.5863,-166.9721 1312.3667,-165 1605.8916,-144.887 1685.4678,-189.6266 1973.3667,-129 2025.9837,-117.9197 2083.874,-93.2438 2116.9977,-77.8282"/>
<polygon fill="#191970" stroke="#191970" points="2118.9001,-80.8006 2126.449,-73.3667 2115.9118,-74.4704 2118.9001,-80.8006"/>
</g>
<!-- Node86&#45;&gt;Node5 -->
<g id="edge74" class="edge">
<title>Node86&#45;&gt;Node5</title>
<path fill="none" stroke="#191970" d="M1200.5192,-165.0885C1205.2238,-151.9114 1214.9831,-127.6054 1228.3667,-110 1236.9875,-98.6597 1248.7995,-88.0498 1258.9871,-79.9329"/>
<polygon fill="#191970" stroke="#191970" points="1261.2548,-82.6045 1267.057,-73.7396 1256.993,-77.0514 1261.2548,-82.6045"/>
</g>
<!-- Node86&#45;&gt;Node19 -->
<g id="edge75" class="edge">
<title>Node86&#45;&gt;Node19</title>
<path fill="none" stroke="#191970" d="M1167.2935,-172.0715C1115.8288,-167.3635 1007.9444,-155.0773 920.3667,-129 876.7013,-115.9981 828.902,-93.0923 800.2897,-78.367"/>
<polygon fill="#191970" stroke="#191970" points="801.8415,-75.2289 791.3556,-73.7129 798.6074,-81.4371 801.8415,-75.2289"/>
</g>
<!-- Node86&#45;&gt;Node21 -->
<g id="edge76" class="edge">
<title>Node86&#45;&gt;Node21</title>
<path fill="none" stroke="#191970" d="M1209.9246,-165.3466C1229.3093,-151.5929 1268.0837,-125.5546 1304.3667,-110 1349.2934,-90.7398 1404.5823,-77.516 1438.6477,-70.4781"/>
<polygon fill="#191970" stroke="#191970" points="1439.3916,-73.8987 1448.5034,-68.4927 1438.0091,-67.0365 1439.3916,-73.8987"/>
</g>
<!-- Node89&#45;&gt;Node51 -->
<g id="edge81" class="edge">
<title>Node89&#45;&gt;Node51</title>
<path fill="none" stroke="#191970" d="M1946.437,-275.4148C1949.977,-261.7504 1958.407,-235.827 1974.3667,-220 1984.4697,-209.981 2016.7617,-196.186 2041.9479,-186.4192"/>
<polygon fill="#191970" stroke="#191970" points="2043.4389,-189.5965 2051.5337,-182.761 2040.943,-183.0565 2043.4389,-189.5965"/>
</g>
<!-- Node89&#45;&gt;Node54 -->
<g id="edge80" class="edge">
<title>Node89&#45;&gt;Node54</title>
<path fill="none" stroke="#191970" d="M1954.4396,-275.4179C1963.3922,-267.3458 1976.6905,-255.3556 1987.453,-245.6517"/>
<polygon fill="#191970" stroke="#191970" points="1989.9918,-248.0753 1995.0749,-238.7795 1985.3043,-242.8764 1989.9918,-248.0753"/>
</g>
<!-- Node89&#45;&gt;Node56 -->
<g id="edge82" class="edge">
<title>Node89&#45;&gt;Node56</title>
<path fill="none" stroke="#191970" d="M1941.6173,-275.3372C1938.2582,-262.4555 1933.8854,-238.4983 1941.3667,-220 1946.0982,-208.3007 1955.4395,-197.9414 1964.3024,-190.0742"/>
<polygon fill="#191970" stroke="#191970" points="1966.6802,-192.6499 1972.1614,-183.583 1962.2224,-187.2528 1966.6802,-192.6499"/>
</g>
<!-- Node92&#45;&gt;Node17 -->
<g id="edge115" class="edge">
<title>Node92&#45;&gt;Node17</title>
<path fill="none" stroke="#191970" d="M1806.2075,-337.3332C1912.6173,-331.4299 2192.7015,-314.1492 2229.3667,-294 2308.6056,-250.4546 2324.2317,-216.135 2348.3667,-129 2352.6764,-113.4405 2347.0131,-95.7811 2340.9289,-82.879"/>
<polygon fill="#191970" stroke="#191970" points="2343.8637,-80.9367 2336.1416,-73.6827 2337.6546,-84.1689 2343.8637,-80.9367"/>
</g>
<!-- Node92&#45;&gt;Node21 -->
<g id="edge116" class="edge">
<title>Node92&#45;&gt;Node21</title>
<path fill="none" stroke="#191970" d="M1806.2325,-338.2978C1909.7738,-334.8324 2176.0988,-323.1449 2202.3667,-294 2232.0026,-261.1182 2300.1249,-274.606 2168.3667,-165 2115.5599,-121.0715 1927.1844,-148.6544 1861.3667,-129 1843.2738,-123.5971 1841.4777,-115.3418 1823.3667,-110 1686.6922,-69.6881 1641.5172,-104.7508 1501.8314,-74.7789"/>
<polygon fill="#191970" stroke="#191970" points="1502.5716,-71.3581 1492.0508,-72.6082 1501.0549,-78.1918 1502.5716,-71.3581"/>
</g>
<!-- Node92&#45;&gt;Node45 -->
<g id="edge114" class="edge">
<title>Node92&#45;&gt;Node45</title>
<path fill="none" stroke="#191970" d="M1724.4137,-335.926C1673.9157,-330.6519 1585.9823,-318.622 1514.3667,-294 1477.3276,-281.2656 1437.7707,-258.7229 1413.8039,-243.9461"/>
<polygon fill="#191970" stroke="#191970" points="1415.4592,-240.8532 1405.126,-238.5132 1411.7447,-246.7863 1415.4592,-240.8532"/>
</g>
<!-- Node93 -->
<g id="node36" class="node">
<title>Node93</title>
<g id="a_node36"><a xlink:href="chainparamsbase_8h.html" target="_top" xlink:title="chainparamsbase.h">
<polygon fill="#ffffff" stroke="#000000" points="1710.729,-110.5 1710.729,-128.5 1814.0044,-128.5 1814.0044,-110.5 1710.729,-110.5"/>
<text text-anchor="middle" x="1762.3667" y="-116.5" font-family="Helvetica,sans-Serif" font-size="10.00" fill="#000000">chainparamsbase.h</text>
</a>
</g>
</g>
<!-- Node92&#45;&gt;Node93 -->
<g id="edge91" class="edge">
<title>Node92&#45;&gt;Node93</title>
<path fill="none" stroke="#191970" d="M1765.2416,-330.327C1764.7918,-297.3409 1763.2503,-184.2972 1762.6292,-138.7484"/>
<polygon fill="#191970" stroke="#191970" points="1766.1284,-138.6635 1762.4923,-128.7122 1759.1291,-138.759 1766.1284,-138.6635"/>
</g>
<!-- Node94 -->
<g id="node37" class="node">
<title>Node94</title>
<g id="a_node37"><a xlink:href="params_8h.html" target="_top" xlink:title="consensus/params.h">
<polygon fill="#ffffff" stroke="#ff0000" points="1591.2314,-220.5 1591.2314,-238.5 1699.502,-238.5 1699.502,-220.5 1591.2314,-220.5"/>
<text text-anchor="middle" x="1645.3667" y="-226.5" font-family="Helvetica,sans-Serif" font-size="10.00" fill="#000000">consensus/params.h</text>
</a>
</g>
</g>
<!-- Node92&#45;&gt;Node94 -->
<g id="edge95" class="edge">
<title>Node92&#45;&gt;Node94</title>
<path fill="none" stroke="#191970" d="M1755.5466,-330.4982C1735.2419,-311.8856 1688.4039,-268.9508 1662.8211,-245.4999"/>
<polygon fill="#191970" stroke="#191970" points="1665.0591,-242.8034 1655.3225,-238.6261 1660.329,-247.9635 1665.0591,-242.8034"/>
</g>
<!-- Node95 -->
<g id="node38" class="node">
<title>Node95</title>
<g id="a_node38"><a xlink:href="block_8h.html" target="_top" xlink:title="primitives/block.h">
<polygon fill="#ffffff" stroke="#000000" points="1018.022,-275.5 1018.022,-293.5 1110.7114,-293.5 1110.7114,-275.5 1018.022,-275.5"/>
<text text-anchor="middle" x="1064.3667" y="-281.5" font-family="Helvetica,sans-Serif" font-size="10.00" fill="#000000">primitives/block.h</text>
</a>
</g>
</g>
<!-- Node92&#45;&gt;Node95 -->
<g id="edge99" class="edge">
<title>Node92&#45;&gt;Node95</title>
<path fill="none" stroke="#191970" d="M1724.3909,-336.2851C1605.2317,-326.9359 1258.6065,-299.7399 1121.3209,-288.9686"/>
<polygon fill="#191970" stroke="#191970" points="1121.2683,-285.4538 1111.0251,-288.1608 1120.7207,-292.4323 1121.2683,-285.4538"/>
</g>
<!-- Node93&#45;&gt;Node17 -->
<g id="edge92" class="edge">
<title>Node93&#45;&gt;Node17</title>
<path fill="none" stroke="#191970" d="M1814.0264,-114.4977C1927.6177,-103.4986 2196.7306,-77.4401 2294.2688,-67.9954"/>
<polygon fill="#191970" stroke="#191970" points="2294.6156,-71.4783 2304.2317,-67.0307 2293.9409,-64.5109 2294.6156,-71.4783"/>
</g>
<!-- Node93&#45;&gt;Node5 -->
<g id="edge93" class="edge">
<title>Node93&#45;&gt;Node5</title>
<path fill="none" stroke="#191970" d="M1710.4764,-111.2495C1707.3962,-110.8123 1704.342,-110.3922 1701.3667,-110 1555.7343,-90.8008 1380.9655,-73.8535 1311.2615,-67.3389"/>
<polygon fill="#191970" stroke="#191970" points="1311.2783,-63.8255 1300.9971,-66.3842 1310.6299,-70.7954 1311.2783,-63.8255"/>
</g>
<!-- Node93&#45;&gt;Node21 -->
<g id="edge94" class="edge">
<title>Node93&#45;&gt;Node21</title>
<path fill="none" stroke="#191970" d="M1714.4758,-110.4795C1654.5082,-99.1842 1553.441,-80.1475 1502.203,-70.4966"/>
<polygon fill="#191970" stroke="#191970" points="1502.5335,-66.9973 1492.0584,-68.5858 1501.2377,-73.8764 1502.5335,-66.9973"/>
</g>
<!-- Node94&#45;&gt;Node16 -->
<g id="edge97" class="edge">
<title>Node94&#45;&gt;Node16</title>
<path fill="none" stroke="#191970" d="M1670.4868,-220.4864C1709.8411,-206.6788 1788.6442,-180.2884 1857.3667,-165 1967.3745,-140.527 2015.487,-192.8279 2108.3667,-129 2124.0154,-118.2461 2133.605,-98.3557 2138.9097,-83.4946"/>
<polygon fill="#191970" stroke="#191970" points="2142.3091,-84.3563 2142.0404,-73.7649 2135.6455,-82.2122 2142.3091,-84.3563"/>
</g>
<!-- Node94&#45;&gt;Node5 -->
<g id="edge98" class="edge">
<title>Node94&#45;&gt;Node5</title>
<path fill="none" stroke="#191970" d="M1652.2984,-220.2156C1661.432,-206.7559 1674.9474,-181.62 1662.3667,-165 1640.6383,-136.2954 1397.5249,-87.0602 1310.8416,-70.2901"/>
<polygon fill="#191970" stroke="#191970" points="1311.3203,-66.8181 1300.839,-68.365 1309.9973,-73.6919 1311.3203,-66.8181"/>
</g>
<!-- Node94&#45;&gt;Node46 -->
<g id="edge96" class="edge">
<title>Node94&#45;&gt;Node46</title>
<path fill="none" stroke="#191970" d="M1590.997,-225.5445C1446.2484,-215.0139 1054.0029,-186.4775 928.5301,-177.3492"/>
<polygon fill="#191970" stroke="#191970" points="928.4794,-173.8363 918.2517,-176.6014 927.9714,-180.8179 928.4794,-173.8363"/>
</g>
<!-- Node95&#45;&gt;Node8 -->
<g id="edge112" class="edge">
<title>Node95&#45;&gt;Node8</title>
<path fill="none" stroke="#191970" d="M1110.7378,-275.7394C1131.4593,-269.2655 1153.9646,-258.1123 1166.3667,-239 1170.9634,-231.9163 1167.2881,-228.394 1166.3667,-220 1164.5782,-203.7076 1161.7638,-200.0344 1158.3667,-184 1155.1438,-168.788 1151.6727,-151.5165 1149.1286,-138.6769"/>
<polygon fill="#191970" stroke="#191970" points="1152.5294,-137.8316 1147.161,-128.6976 1145.6616,-139.1858 1152.5294,-137.8316"/>
</g>
<!-- Node95&#45;&gt;Node46 -->
<g id="edge113" class="edge">
<title>Node95&#45;&gt;Node46</title>
<path fill="none" stroke="#191970" d="M1054.8892,-275.2972C1040.7923,-261.9393 1013.0843,-236.9288 986.3667,-220 966.0701,-207.1397 941.559,-195.6729 922.2544,-187.4677"/>
<polygon fill="#191970" stroke="#191970" points="923.5382,-184.211 912.9611,-183.5972 920.8468,-190.673 923.5382,-184.211"/>
</g>
<!-- Node95&#45;&gt;Node96 -->
<g id="edge100" class="edge">
<title>Node95&#45;&gt;Node96</title>
<path fill="none" stroke="#191970" d="M1017.7826,-277.4223C955.3176,-267.9318 843.9211,-251.0069 771.6147,-240.0211"/>
<polygon fill="#191970" stroke="#191970" points="772.0929,-236.5537 761.6806,-238.5118 771.0413,-243.4742 772.0929,-236.5537"/>
</g>
<!-- Node96&#45;&gt;Node8 -->
<g id="edge110" class="edge">
<title>Node96&#45;&gt;Node8</title>
<path fill="none" stroke="#191970" d="M725.971,-220.4158C748.5917,-211.5716 783.5952,-197.522 813.3667,-184 830.5589,-176.1915 833.3763,-170.735 851.3667,-165 938.923,-137.0888 1046.7907,-125.9964 1104.4414,-121.8265"/>
<polygon fill="#191970" stroke="#191970" points="1104.8697,-125.3054 1114.6054,-121.126 1104.3884,-118.322 1104.8697,-125.3054"/>
</g>
<!-- Node96&#45;&gt;Node11 -->
<g id="edge101" class="edge">
<title>Node96&#45;&gt;Node11</title>
<path fill="none" stroke="#191970" d="M663.1351,-220.4811C638.7028,-213.4621 607.612,-201.8558 584.3667,-184 536.7634,-147.4338 508.2291,-102.9294 544.3667,-55 559.3457,-35.1333 626.9178,-21.3121 669.0064,-14.4563"/>
<polygon fill="#191970" stroke="#191970" points="669.7771,-17.8781 679.1103,-12.8639 668.6873,-10.9635 669.7771,-17.8781"/>
</g>
<!-- Node96&#45;&gt;Node46 -->
<g id="edge111" class="edge">
<title>Node96&#45;&gt;Node46</title>
<path fill="none" stroke="#191970" d="M733.2459,-220.4179C765.442,-210.9484 815.9719,-196.0867 850.7779,-185.8496"/>
<polygon fill="#191970" stroke="#191970" points="851.9868,-189.1424 860.5929,-182.9629 850.0116,-182.4268 851.9868,-189.1424"/>
</g>
<!-- Node96&#45;&gt;Node73 -->
<g id="edge102" class="edge">
<title>Node96&#45;&gt;Node73</title>
<path fill="none" stroke="#191970" d="M669.5059,-220.4179C634.5922,-210.7683 579.419,-195.5195 542.337,-185.2707"/>
<polygon fill="#191970" stroke="#191970" points="542.9606,-181.8119 532.3895,-182.5214 541.0958,-188.5589 542.9606,-181.8119"/>
</g>
<!-- Node97 -->
<g id="node40" class="node">
<title>Node97</title>
<g id="a_node40"><a xlink:href="script_8h.html" target="_top" xlink:title="script/script.h">
<polygon fill="#ffffff" stroke="#ff0000" points="729.916,-165.5 729.916,-183.5 804.8174,-183.5 804.8174,-165.5 729.916,-165.5"/>
<text text-anchor="middle" x="767.3667" y="-171.5" font-family="Helvetica,sans-Serif" font-size="10.00" fill="#000000">script/script.h</text>
</a>
</g>
</g>
<!-- Node96&#45;&gt;Node97 -->
<g id="edge103" class="edge">
<title>Node96&#45;&gt;Node97</title>
<path fill="none" stroke="#191970" d="M713.1001,-220.4179C722.7333,-212.2667 737.0884,-200.1201 748.6149,-190.3669"/>
<polygon fill="#191970" stroke="#191970" points="751.027,-192.9108 756.4001,-183.7795 746.5054,-187.5671 751.027,-192.9108"/>
</g>
<!-- Node97&#45;&gt;Node8 -->
<g id="edge105" class="edge">
<title>Node97&#45;&gt;Node8</title>
<path fill="none" stroke="#191970" d="M804.9325,-167.3003C809.4539,-166.4936 814.0108,-165.7084 818.3667,-165 921.0496,-148.3016 1042.5008,-132.41 1104.493,-124.5748"/>
<polygon fill="#191970" stroke="#191970" points="1105.1554,-128.0192 1114.6398,-123.2973 1104.2809,-121.074 1105.1554,-128.0192"/>
</g>
<!-- Node97&#45;&gt;Node11 -->
<g id="edge106" class="edge">
<title>Node97&#45;&gt;Node11</title>
<path fill="none" stroke="#191970" d="M729.6432,-168.4493C689.2392,-161.1083 629.061,-147.394 615.3667,-129 587.2601,-91.2476 644.0749,-46.5252 678.9268,-24.0033"/>
<polygon fill="#191970" stroke="#191970" points="681.0577,-26.7982 687.6677,-18.5182 677.3369,-20.869 681.0577,-26.7982"/>
</g>
<!-- Node97&#45;&gt;Node5 -->
<g id="edge108" class="edge">
<title>Node97&#45;&gt;Node5</title>
<path fill="none" stroke="#191970" d="M788.8763,-165.4316C822.9467,-151.4285 891.6904,-124.6336 952.3667,-110 1059.9597,-84.0513 1191.2242,-71.3987 1249.7094,-66.7192"/>
<polygon fill="#191970" stroke="#191970" points="1250.0626,-70.2024 1259.7608,-65.9368 1249.5193,-63.2235 1250.0626,-70.2024"/>
</g>
<!-- Node97&#45;&gt;Node19 -->
<g id="edge107" class="edge">
<title>Node97&#45;&gt;Node19</title>
<path fill="none" stroke="#191970" d="M767.9395,-165.4982C769.0727,-147.6913 771.6225,-107.6225 773.148,-83.6515"/>
<polygon fill="#191970" stroke="#191970" points="776.6437,-83.8283 773.7859,-73.6261 769.6578,-83.3836 776.6437,-83.8283"/>
</g>
<!-- Node97&#45;&gt;Node21 -->
<g id="edge109" class="edge">
<title>Node97&#45;&gt;Node21</title>
<path fill="none" stroke="#191970" d="M798.1276,-165.4525C846.7831,-151.4777 944.6774,-124.7204 1029.3667,-110 1181.1987,-83.6091 1365.2923,-70.6671 1438.3064,-66.2803"/>
<polygon fill="#191970" stroke="#191970" points="1438.8762,-69.7529 1448.6533,-65.6716 1438.465,-62.765 1438.8762,-69.7529"/>
</g>
<!-- Node97&#45;&gt;Node49 -->
<g id="edge104" class="edge">
<title>Node97&#45;&gt;Node49</title>
<path fill="none" stroke="#191970" d="M751.3491,-165.4179C736.1848,-156.8195 713.1796,-143.7754 695.5592,-133.7844"/>
<polygon fill="#191970" stroke="#191970" points="696.8334,-130.4834 686.4081,-128.5956 693.3807,-136.5727 696.8334,-130.4834"/>
</g>
<!-- Node99&#45;&gt;Node5 -->
<g id="edge118" class="edge">
<title>Node99&#45;&gt;Node5</title>
<path fill="none" stroke="#191970" d="M1612.2027,-113.5618C1537.303,-102.4879 1377.8516,-78.9131 1310.934,-69.0194"/>
<polygon fill="#191970" stroke="#191970" points="1311.4201,-65.5533 1301.0157,-67.5529 1310.3963,-72.478 1311.4201,-65.5533"/>
</g>
<!-- Node99&#45;&gt;Node21 -->
<g id="edge119" class="edge">
<title>Node99&#45;&gt;Node21</title>
<path fill="none" stroke="#191970" d="M1622.3131,-110.4179C1589.0994,-100.3808 1535.8387,-84.2855 1502.0036,-74.0606"/>
<polygon fill="#191970" stroke="#191970" points="1502.7554,-70.6315 1492.1704,-71.089 1500.7304,-77.3322 1502.7554,-70.6315"/>
</g>
<!-- Node100&#45;&gt;Node11 -->
<g id="edge122" class="edge">
<title>Node100&#45;&gt;Node11</title>
<path fill="none" stroke="#191970" d="M61.0412,-165.465C60.7668,-142.6842 63.5467,-82.7454 98.3667,-55 143.0966,-19.3582 547.4135,-11.4432 668.9606,-9.8626"/>
<polygon fill="#191970" stroke="#191970" points="669.2196,-13.3598 679.1755,-9.7362 669.1329,-6.3603 669.2196,-13.3598"/>
</g>
<!-- Node100&#45;&gt;Node23 -->
<g id="edge121" class="edge">
<title>Node100&#45;&gt;Node23</title>
<path fill="none" stroke="#191970" d="M78.3751,-165.4179C94.701,-156.7001 119.5857,-143.4122 138.3921,-133.3699"/>
<polygon fill="#191970" stroke="#191970" points="140.1605,-136.3934 147.3331,-128.5956 136.8633,-130.2186 140.1605,-136.3934"/>
</g>
<!-- Node101&#45;&gt;Node8 -->
<g id="edge129" class="edge">
<title>Node101&#45;&gt;Node8</title>
<path fill="none" stroke="#191970" d="M1070.0771,-220.4982C1083.7117,-202.2079 1114.8549,-160.4304 1132.5185,-136.7354"/>
<polygon fill="#191970" stroke="#191970" points="1135.393,-138.7355 1138.5636,-128.6261 1129.7808,-134.5518 1135.393,-138.7355"/>
</g>
<!-- Node101&#45;&gt;Node11 -->
<g id="edge130" class="edge">
<title>Node101&#45;&gt;Node11</title>
<path fill="none" stroke="#191970" d="M1033.0669,-225.2348C1018.9056,-223.3767 1001.7997,-221.3251 986.3667,-220 945.3026,-216.4742 275.1174,-212.5235 245.3667,-184 203.8571,-144.2028 196.7217,-97.5844 235.3667,-55 264.4088,-22.9975 565.6174,-12.8064 668.8643,-10.2397"/>
<polygon fill="#191970" stroke="#191970" points="669.148,-13.734 679.0612,-9.9952 668.9802,-6.736 669.148,-13.734"/>
</g>
<!-- Node101&#45;&gt;Node5 -->
<g id="edge131" class="edge">
<title>Node101&#45;&gt;Node5</title>
<path fill="none" stroke="#191970" d="M1063.7743,-220.4703C1065.2821,-198.2206 1072.3473,-140.3679 1105.3667,-110 1126.3833,-90.671 1205.8997,-75.8368 1250.1623,-68.8698"/>
<polygon fill="#191970" stroke="#191970" points="1250.7264,-72.3243 1260.0796,-67.3476 1249.6644,-65.4053 1250.7264,-72.3243"/>
</g>
<!-- Node101&#45;&gt;Node21 -->
<g id="edge132" class="edge">
<title>Node101&#45;&gt;Node21</title>
<path fill="none" stroke="#191970" d="M1093.5557,-221.9362C1139.4873,-210.3713 1223.0203,-189.0949 1236.3667,-184 1316.4282,-153.437 1405.0013,-103.376 1446.4772,-78.8937"/>
<polygon fill="#191970" stroke="#191970" points="1448.477,-81.7767 1455.2858,-73.6595 1444.9011,-75.759 1448.477,-81.7767"/>
</g>
<!-- Node101&#45;&gt;Node44 -->
<g id="edge128" class="edge">
<title>Node101&#45;&gt;Node44</title>
<path fill="none" stroke="#191970" d="M1093.5575,-221.9468C1096.5284,-221.2634 1099.5025,-220.6027 1102.3667,-220 1174.8944,-204.737 1259.6933,-190.336 1311.189,-181.9697"/>
<polygon fill="#191970" stroke="#191970" points="1312.0298,-185.3793 1321.3431,-180.3282 1310.9126,-178.469 1312.0298,-185.3793"/>
</g>
<!-- Node101&#45;&gt;Node27 -->
<g id="edge127" class="edge">
<title>Node101&#45;&gt;Node27</title>
<path fill="none" stroke="#191970" d="M1033.368,-225.6529C955.6745,-215.6687 751.8254,-189.3354 721.3667,-184 628.4589,-167.7256 520.4588,-142.5992 464.1068,-129.0099"/>
<polygon fill="#191970" stroke="#191970" points="464.7438,-125.5631 454.201,-126.6115 463.0965,-132.3665 464.7438,-125.5631"/>
</g>
<!-- Node102&#45;&gt;Node16 -->
<g id="edge136" class="edge">
<title>Node102&#45;&gt;Node16</title>
<path fill="none" stroke="#191970" d="M2427.7566,-275.14C2394.6575,-248.5512 2296.7675,-170.5783 2212.3667,-110 2197.5524,-99.3671 2180.4961,-87.9565 2167.1716,-79.222"/>
<polygon fill="#191970" stroke="#191970" points="2168.9052,-76.1741 2158.6166,-73.6451 2165.0824,-82.0382 2168.9052,-76.1741"/>
</g>
<!-- Node102&#45;&gt;Node54 -->
<g id="edge137" class="edge">
<title>Node102&#45;&gt;Node54</title>
<path fill="none" stroke="#191970" d="M2405.6726,-280.23C2324.3805,-269.928 2118.2881,-243.8103 2038.0459,-233.6414"/>
<polygon fill="#191970" stroke="#191970" points="2038.3822,-230.1561 2028.0215,-232.371 2037.5021,-237.1005 2038.3822,-230.1561"/>
</g>
<!-- Node103 -->
<g id="node45" class="node">
<title>Node103</title>
<polygon fill="#ffffff" stroke="#bfbfbf" points="2443.0493,-220.5 2443.0493,-238.5 2569.6841,-238.5 2569.6841,-220.5 2443.0493,-220.5"/>
<text text-anchor="middle" x="2506.3667" y="-226.5" font-family="Helvetica,sans-Serif" font-size="10.00" fill="#000000">boost/chrono/chrono.hpp</text>
</g>
<!-- Node102&#45;&gt;Node103 -->
<g id="edge134" class="edge">
<title>Node102&#45;&gt;Node103</title>
<path fill="none" stroke="#191970" d="M2450.4304,-275.4179C2460.36,-267.2667 2475.1567,-255.1201 2487.0379,-245.3669"/>
<polygon fill="#191970" stroke="#191970" points="2489.5541,-247.8297 2495.0626,-238.7795 2485.1126,-242.4192 2489.5541,-247.8297"/>
</g>
<!-- Node104 -->
<g id="node46" class="node">
<title>Node104</title>
<polygon fill="#ffffff" stroke="#bfbfbf" points="2587.8374,-220.5 2587.8374,-238.5 2678.896,-238.5 2678.896,-220.5 2587.8374,-220.5"/>
<text text-anchor="middle" x="2633.3667" y="-226.5" font-family="Helvetica,sans-Serif" font-size="10.00" fill="#000000">boost/thread.hpp</text>
</g>
<!-- Node102&#45;&gt;Node104 -->
<g id="edge135" class="edge">
<title>Node102&#45;&gt;Node104</title>
<path fill="none" stroke="#191970" d="M2471.4019,-275.4179C2504.3563,-266.0751 2555.8252,-251.4834 2591.8754,-241.263"/>
<polygon fill="#191970" stroke="#191970" points="2592.9402,-244.5991 2601.6064,-238.5042 2591.0309,-237.8645 2592.9402,-244.5991"/>
</g>
<!-- Node105&#45;&gt;Node11 -->
<g id="edge141" class="edge">
<title>Node105&#45;&gt;Node11</title>
<path fill="none" stroke="#191970" d="M2431.5415,-110.2574C2419.9068,-95.3582 2394.631,-66.5366 2365.3667,-55 2286.9732,-24.0957 968.4139,-11.7106 737.6817,-9.7755"/>
<polygon fill="#191970" stroke="#191970" points="737.5548,-6.2744 727.5261,-9.6912 737.4966,-13.2742 737.5548,-6.2744"/>
</g>
<!-- Node105&#45;&gt;Node17 -->
<g id="edge140" class="edge">
<title>Node105&#45;&gt;Node17</title>
<path fill="none" stroke="#191970" d="M2420.5327,-110.4179C2403.336,-101.6603 2377.0831,-88.2907 2357.3324,-78.2326"/>
<polygon fill="#191970" stroke="#191970" points="2358.7266,-75.0148 2348.2272,-73.5956 2355.5499,-81.2526 2358.7266,-75.0148"/>
</g>
<!-- Node105&#45;&gt;Node5 -->
<g id="edge142" class="edge">
<title>Node105&#45;&gt;Node5</title>
<path fill="none" stroke="#191970" d="M2400.2483,-117.9586C2267.5985,-112.553 1813.8615,-93.715 1439.3667,-74 1394.7078,-71.649 1343.0213,-68.4772 1311.0077,-66.4598"/>
<polygon fill="#191970" stroke="#191970" points="1311.1449,-62.9616 1300.9437,-65.8228 1310.7026,-69.9476 1311.1449,-62.9616"/>
</g>
<!-- Node106 -->
<g id="node48" class="node">
<title>Node106</title>
<polygon fill="#ffffff" stroke="#bfbfbf" points="2411.9629,-55.5 2411.9629,-73.5 2470.7705,-73.5 2470.7705,-55.5 2411.9629,-55.5"/>
<text text-anchor="middle" x="2441.3667" y="-61.5" font-family="Helvetica,sans-Serif" font-size="10.00" fill="#000000">functional</text>
</g>
<!-- Node105&#45;&gt;Node106 -->
<g id="edge139" class="edge">
<title>Node105&#45;&gt;Node106</title>
<path fill="none" stroke="#191970" d="M2438.8621,-110.4179C2439.2549,-103.2164 2439.8178,-92.8962 2440.3105,-83.8632"/>
<polygon fill="#191970" stroke="#191970" points="2443.8106,-83.9553 2440.8605,-73.7795 2436.821,-83.574 2443.8106,-83.9553"/>
</g>
<!-- Node107&#45;&gt;Node11 -->
<g id="edge144" class="edge">
<title>Node107&#45;&gt;Node11</title>
<path fill="none" stroke="#191970" d="M1870.1477,-110.6484C1793.1975,-96.569 1635.8249,-69.2153 1501.3667,-55 1206.888,-23.8668 848.8647,-13.0218 737.8501,-10.2743"/>
<polygon fill="#191970" stroke="#191970" points="737.6747,-6.7692 727.593,-10.0263 737.5055,-13.7671 737.6747,-6.7692"/>
</g>
<!-- Node107&#45;&gt;Node5 -->
<g id="edge145" class="edge">
<title>Node107&#45;&gt;Node5</title>
<path fill="none" stroke="#191970" d="M1870.044,-114.5577C1855.1153,-113.0415 1838.5564,-111.4039 1823.3667,-110 1628.1874,-91.9611 1393.2471,-73.3166 1310.7643,-66.8635"/>
<polygon fill="#191970" stroke="#191970" points="1310.8359,-63.3585 1300.5937,-66.0692 1310.2908,-70.3373 1310.8359,-63.3585"/>
</g>
<!-- Node107&#45;&gt;Node21 -->
<g id="edge146" class="edge">
<title>Node107&#45;&gt;Node21</title>
<path fill="none" stroke="#191970" d="M1870.4348,-112.011C1865.6862,-111.3072 1860.9329,-110.6245 1856.3667,-110 1725.2737,-92.0719 1568.5428,-74.9138 1502.359,-67.8643"/>
<polygon fill="#191970" stroke="#191970" points="1502.4812,-64.3577 1492.1676,-66.7826 1501.7423,-71.3186 1502.4812,-64.3577"/>
</g>
</g>
</svg>
