<?xml version="1.0" encoding="UTF-8" standalone="no"?>
<!DOCTYPE svg PUBLIC "-//W3C//DTD SVG 1.1//EN"
 "http://www.w3.org/Graphics/SVG/1.1/DTD/svg11.dtd">
<!-- Generated by graphviz version 2.40.1 (20161225.0304)
 -->
<!-- Title: src/netaddress.h Pages: 1 -->
<svg width="1641pt" height="247pt"
 viewBox="0.00 0.00 1640.87 247.00" xmlns="http://www.w3.org/2000/svg" xmlns:xlink="http://www.w3.org/1999/xlink">
<g id="graph0" class="graph" transform="scale(1 1) rotate(0) translate(4 243)">
<title>src/netaddress.h</title>
<polygon fill="#ffffff" stroke="transparent" points="-4,4 -4,-243 1636.8731,-243 1636.8731,4 -4,4"/>
<!-- Node0 -->
<g id="node1" class="node">
<title>Node0</title>
<polygon fill="#bfbfbf" stroke="#000000" points="1349.377,-220.5 1349.377,-238.5 1439.3027,-238.5 1439.3027,-220.5 1349.377,-220.5"/>
<text text-anchor="middle" x="1394.3398" y="-226.5" font-family="Helvetica,sans-Serif" font-size="10.00" fill="#000000">src/netaddress.h</text>
</g>
<!-- Node1 -->
<g id="node2" class="node">
<title>Node1</title>
<g id="a_node2"><a xlink:href="compat_8h.html" target="_top" xlink:title="compat.h">
<polygon fill="#ffffff" stroke="#000000" points="646.7734,-55.5 646.7734,-73.5 703.9063,-73.5 703.9063,-55.5 646.7734,-55.5"/>
<text text-anchor="middle" x="675.3398" y="-61.5" font-family="Helvetica,sans-Serif" font-size="10.00" fill="#000000">compat.h</text>
</a>
</g>
</g>
<!-- Node0&#45;&gt;Node1 -->
<g id="edge1" class="edge">
<title>Node0&#45;&gt;Node1</title>
<path fill="none" stroke="#191970" d="M1349.3479,-225.1431C1223.9088,-212.5502 872.5387,-174.1132 766.3398,-129 738.157,-117.0279 710.0712,-95.2373 692.715,-80.3251"/>
<polygon fill="#191970" stroke="#191970" points="694.9237,-77.6065 685.1032,-73.6303 690.3006,-82.8628 694.9237,-77.6065"/>
</g>
<!-- Node17 -->
<g id="node18" class="node">
<title>Node17</title>
<g id="a_node18"><a xlink:href="serialize_8h.html" target="_top" xlink:title="serialize.h">
<polygon fill="#ffffff" stroke="#000000" points="1189.8301,-165.5 1189.8301,-183.5 1250.8496,-183.5 1250.8496,-165.5 1189.8301,-165.5"/>
<text text-anchor="middle" x="1220.3398" y="-171.5" font-family="Helvetica,sans-Serif" font-size="10.00" fill="#000000">serialize.h</text>
</a>
</g>
</g>
<!-- Node0&#45;&gt;Node17 -->
<g id="edge17" class="edge">
<title>Node0&#45;&gt;Node17</title>
<path fill="none" stroke="#191970" d="M1365.6073,-220.4179C1336.3028,-211.155 1290.6753,-196.7325 1258.3857,-186.526"/>
<polygon fill="#191970" stroke="#191970" points="1259.4158,-183.181 1248.8259,-183.5042 1257.306,-189.8555 1259.4158,-183.181"/>
</g>
<!-- Node20 -->
<g id="node21" class="node">
<title>Node20</title>
<polygon fill="#ffffff" stroke="#bfbfbf" points="1433.2192,-.5 1433.2192,-18.5 1481.4604,-18.5 1481.4604,-.5 1433.2192,-.5"/>
<text text-anchor="middle" x="1457.3398" y="-6.5" font-family="Helvetica,sans-Serif" font-size="10.00" fill="#000000">stdint.h</text>
</g>
<!-- Node0&#45;&gt;Node20 -->
<g id="edge48" class="edge">
<title>Node0&#45;&gt;Node20</title>
<path fill="none" stroke="#191970" d="M1439.6077,-224.652C1494.6028,-216.0434 1585.02,-192.5064 1625.3398,-129 1661.8977,-71.419 1550.944,-33.3478 1491.8288,-17.6462"/>
<polygon fill="#191970" stroke="#191970" points="1492.3413,-14.1641 1481.7845,-15.0605 1490.5962,-20.9431 1492.3413,-14.1641"/>
</g>
<!-- Node28 -->
<g id="node29" class="node">
<title>Node28</title>
<polygon fill="#ffffff" stroke="#bfbfbf" points="1514.1133,-110.5 1514.1133,-128.5 1554.5664,-128.5 1554.5664,-110.5 1514.1133,-110.5"/>
<text text-anchor="middle" x="1534.3398" y="-116.5" font-family="Helvetica,sans-Serif" font-size="10.00" fill="#000000">string</text>
</g>
<!-- Node0&#45;&gt;Node28 -->
<g id="edge49" class="edge">
<title>Node0&#45;&gt;Node28</title>
<path fill="none" stroke="#191970" d="M1405.7966,-220.4982C1429.6906,-201.7244 1485.0783,-158.2055 1514.7459,-134.8952"/>
<polygon fill="#191970" stroke="#191970" points="1517.0239,-137.5565 1522.7248,-128.6261 1512.6992,-132.0523 1517.0239,-137.5565"/>
</g>
<!-- Node31 -->
<g id="node32" class="node">
<title>Node31</title>
<polygon fill="#ffffff" stroke="#bfbfbf" points="1572.7241,-110.5 1572.7241,-128.5 1615.9556,-128.5 1615.9556,-110.5 1572.7241,-110.5"/>
<text text-anchor="middle" x="1594.3398" y="-116.5" font-family="Helvetica,sans-Serif" font-size="10.00" fill="#000000">vector</text>
</g>
<!-- Node0&#45;&gt;Node31 -->
<g id="edge50" class="edge">
<title>Node0&#45;&gt;Node31</title>
<path fill="none" stroke="#191970" d="M1411.1038,-220.4898C1428.0799,-211.3491 1455.0766,-196.7675 1478.3398,-184 1509.7649,-166.753 1545.8332,-146.649 1569.297,-133.5293"/>
<polygon fill="#191970" stroke="#191970" points="1571.2144,-136.4671 1578.2324,-128.5299 1567.7965,-130.3582 1571.2144,-136.4671"/>
</g>
<!-- Node36 -->
<g id="node37" class="node">
<title>Node36</title>
<g id="a_node37"><a xlink:href="span_8h.html" target="_top" xlink:title="span.h">
<polygon fill="#ffffff" stroke="#000000" points="775.3276,-110.5 775.3276,-128.5 821.3521,-128.5 821.3521,-110.5 775.3276,-110.5"/>
<text text-anchor="middle" x="798.3398" y="-116.5" font-family="Helvetica,sans-Serif" font-size="10.00" fill="#000000">span.h</text>
</a>
</g>
</g>
<!-- Node0&#45;&gt;Node36 -->
<g id="edge47" class="edge">
<title>Node0&#45;&gt;Node36</title>
<path fill="none" stroke="#191970" d="M1349.0538,-221.1418C1233.875,-199.884 931.7929,-144.1306 831.3493,-125.5923"/>
<polygon fill="#191970" stroke="#191970" points="831.9294,-122.1404 821.4602,-123.7672 830.6589,-129.0241 831.9294,-122.1404"/>
</g>
<!-- Node2 -->
<g id="node3" class="node">
<title>Node2</title>
<polygon fill="#ffffff" stroke="#bfbfbf" points="1064.2734,-.5 1064.2734,-18.5 1126.4063,-18.5 1126.4063,-.5 1064.2734,-.5"/>
<text text-anchor="middle" x="1095.3398" y="-6.5" font-family="Helvetica,sans-Serif" font-size="10.00" fill="#000000">type_traits</text>
</g>
<!-- Node1&#45;&gt;Node2 -->
<g id="edge2" class="edge">
<title>Node1&#45;&gt;Node2</title>
<path fill="none" stroke="#191970" d="M704.0574,-61.4913C777.3352,-53.748 970.786,-32.8767 1053.9237,-19.0428"/>
<polygon fill="#191970" stroke="#191970" points="1054.7093,-22.459 1063.9676,-17.308 1053.5178,-15.5612 1054.7093,-22.459"/>
</g>
<!-- Node3 -->
<g id="node4" class="node">
<title>Node3</title>
<polygon fill="#ffffff" stroke="#bfbfbf" points="0,-.5 0,-18.5 42.6797,-18.5 42.6797,-.5 0,-.5"/>
<text text-anchor="middle" x="21.3398" y="-6.5" font-family="Helvetica,sans-Serif" font-size="10.00" fill="#000000">fcntl.h</text>
</g>
<!-- Node1&#45;&gt;Node3 -->
<g id="edge3" class="edge">
<title>Node1&#45;&gt;Node3</title>
<path fill="none" stroke="#191970" d="M646.5958,-63.2978C542.7642,-58.8197 186.6072,-42.2518 52.8104,-18.8088"/>
<polygon fill="#191970" stroke="#191970" points="53.2839,-15.3371 42.8145,-16.9627 52.0125,-22.2207 53.2839,-15.3371"/>
</g>
<!-- Node4 -->
<g id="node5" class="node">
<title>Node4</title>
<polygon fill="#ffffff" stroke="#bfbfbf" points="60.3892,-.5 60.3892,-18.5 130.2905,-18.5 130.2905,-.5 60.3892,-.5"/>
<text text-anchor="middle" x="95.3398" y="-6.5" font-family="Helvetica,sans-Serif" font-size="10.00" fill="#000000">sys/mman.h</text>
</g>
<!-- Node1&#45;&gt;Node4 -->
<g id="edge4" class="edge">
<title>Node1&#45;&gt;Node4</title>
<path fill="none" stroke="#191970" d="M646.7173,-63.3607C567.6829,-59.9422 339.6523,-48.2388 140.396,-18.9744"/>
<polygon fill="#191970" stroke="#191970" points="140.7362,-15.4866 130.33,-17.4773 139.7063,-22.4104 140.7362,-15.4866"/>
</g>
<!-- Node5 -->
<g id="node6" class="node">
<title>Node5</title>
<polygon fill="#ffffff" stroke="#bfbfbf" points="148.2192,-.5 148.2192,-18.5 216.4604,-18.5 216.4604,-.5 148.2192,-.5"/>
<text text-anchor="middle" x="182.3398" y="-6.5" font-family="Helvetica,sans-Serif" font-size="10.00" fill="#000000">sys/select.h</text>
</g>
<!-- Node1&#45;&gt;Node5 -->
<g id="edge5" class="edge">
<title>Node1&#45;&gt;Node5</title>
<path fill="none" stroke="#191970" d="M646.7594,-62.7721C576.813,-58.2968 391.3222,-44.9421 226.8408,-19.0741"/>
<polygon fill="#191970" stroke="#191970" points="226.9645,-15.5498 216.5384,-17.4329 225.8632,-22.4626 226.9645,-15.5498"/>
</g>
<!-- Node6 -->
<g id="node7" class="node">
<title>Node6</title>
<polygon fill="#ffffff" stroke="#bfbfbf" points="234.8301,-.5 234.8301,-18.5 305.8496,-18.5 305.8496,-.5 234.8301,-.5"/>
<text text-anchor="middle" x="270.3398" y="-6.5" font-family="Helvetica,sans-Serif" font-size="10.00" fill="#000000">sys/socket.h</text>
</g>
<!-- Node1&#45;&gt;Node6 -->
<g id="edge6" class="edge">
<title>Node1&#45;&gt;Node6</title>
<path fill="none" stroke="#191970" d="M646.7551,-61.6958C587.2318,-55.6836 445.4728,-40.4671 316.2249,-19.0261"/>
<polygon fill="#191970" stroke="#191970" points="316.5916,-15.5388 306.1506,-17.3377 315.4345,-22.4425 316.5916,-15.5388"/>
</g>
<!-- Node7 -->
<g id="node8" class="node">
<title>Node7</title>
<polygon fill="#ffffff" stroke="#bfbfbf" points="324.3301,-.5 324.3301,-18.5 390.3496,-18.5 390.3496,-.5 324.3301,-.5"/>
<text text-anchor="middle" x="357.3398" y="-6.5" font-family="Helvetica,sans-Serif" font-size="10.00" fill="#000000">sys/types.h</text>
</g>
<!-- Node1&#45;&gt;Node7 -->
<g id="edge7" class="edge">
<title>Node1&#45;&gt;Node7</title>
<path fill="none" stroke="#191970" d="M646.6324,-60.3388C598.0291,-53.1705 496.2382,-37.6281 400.6021,-19.162"/>
<polygon fill="#191970" stroke="#191970" points="401.2573,-15.7239 390.7728,-17.2493 399.9201,-22.595 401.2573,-15.7239"/>
</g>
<!-- Node8 -->
<g id="node9" class="node">
<title>Node8</title>
<polygon fill="#ffffff" stroke="#bfbfbf" points="408.3301,-.5 408.3301,-18.5 454.3496,-18.5 454.3496,-.5 408.3301,-.5"/>
<text text-anchor="middle" x="431.3398" y="-6.5" font-family="Helvetica,sans-Serif" font-size="10.00" fill="#000000">net/if.h</text>
</g>
<!-- Node1&#45;&gt;Node8 -->
<g id="edge8" class="edge">
<title>Node1&#45;&gt;Node8</title>
<path fill="none" stroke="#191970" d="M646.7158,-59.0855C607.6657,-51.5414 535.3237,-37.0069 464.3543,-19.1103"/>
<polygon fill="#191970" stroke="#191970" points="464.9074,-15.6395 454.3529,-16.563 463.1797,-22.4229 464.9074,-15.6395"/>
</g>
<!-- Node9 -->
<g id="node10" class="node">
<title>Node9</title>
<polygon fill="#ffffff" stroke="#bfbfbf" points="471.877,-.5 471.877,-18.5 536.8027,-18.5 536.8027,-.5 471.877,-.5"/>
<text text-anchor="middle" x="504.3398" y="-6.5" font-family="Helvetica,sans-Serif" font-size="10.00" fill="#000000">netinet/in.h</text>
</g>
<!-- Node1&#45;&gt;Node9 -->
<g id="edge9" class="edge">
<title>Node1&#45;&gt;Node9</title>
<path fill="none" stroke="#191970" d="M647.1027,-55.4179C618.4276,-46.1949 573.8488,-31.8567 542.1408,-21.6582"/>
<polygon fill="#191970" stroke="#191970" points="542.9261,-18.2343 532.3348,-18.5042 540.7828,-24.8981 542.9261,-18.2343"/>
</g>
<!-- Node10 -->
<g id="node11" class="node">
<title>Node10</title>
<polygon fill="#ffffff" stroke="#bfbfbf" points="555.0986,-.5 555.0986,-18.5 625.5811,-18.5 625.5811,-.5 555.0986,-.5"/>
<text text-anchor="middle" x="590.3398" y="-6.5" font-family="Helvetica,sans-Serif" font-size="10.00" fill="#000000">netinet/tcp.h</text>
</g>
<!-- Node1&#45;&gt;Node10 -->
<g id="edge10" class="edge">
<title>Node1&#45;&gt;Node10</title>
<path fill="none" stroke="#191970" d="M661.3038,-55.4179C648.1385,-46.8992 628.2291,-34.0166 612.8459,-24.0627"/>
<polygon fill="#191970" stroke="#191970" points="614.6938,-21.0897 604.3967,-18.5956 610.891,-26.9667 614.6938,-21.0897"/>
</g>
<!-- Node11 -->
<g id="node12" class="node">
<title>Node11</title>
<polygon fill="#ffffff" stroke="#bfbfbf" points="643.7119,-.5 643.7119,-18.5 706.9678,-18.5 706.9678,-.5 643.7119,-.5"/>
<text text-anchor="middle" x="675.3398" y="-6.5" font-family="Helvetica,sans-Serif" font-size="10.00" fill="#000000">arpa/inet.h</text>
</g>
<!-- Node1&#45;&gt;Node11 -->
<g id="edge11" class="edge">
<title>Node1&#45;&gt;Node11</title>
<path fill="none" stroke="#191970" d="M675.3398,-55.4179C675.3398,-48.2164 675.3398,-37.8962 675.3398,-28.8632"/>
<polygon fill="#191970" stroke="#191970" points="678.8399,-28.7794 675.3398,-18.7795 671.8399,-28.7795 678.8399,-28.7794"/>
</g>
<!-- Node12 -->
<g id="node13" class="node">
<title>Node12</title>
<polygon fill="#ffffff" stroke="#bfbfbf" points="725.1626,-.5 725.1626,-18.5 779.5171,-18.5 779.5171,-.5 725.1626,-.5"/>
<text text-anchor="middle" x="752.3398" y="-6.5" font-family="Helvetica,sans-Serif" font-size="10.00" fill="#000000">ifaddrs.h</text>
</g>
<!-- Node1&#45;&gt;Node12 -->
<g id="edge12" class="edge">
<title>Node1&#45;&gt;Node12</title>
<path fill="none" stroke="#191970" d="M688.0548,-55.4179C699.7581,-47.0584 717.3446,-34.4966 731.1664,-24.6239"/>
<polygon fill="#191970" stroke="#191970" points="733.503,-27.2561 739.606,-18.5956 729.4343,-21.56 733.503,-27.2561"/>
</g>
<!-- Node13 -->
<g id="node14" class="node">
<title>Node13</title>
<polygon fill="#ffffff" stroke="#bfbfbf" points="797.7832,-.5 797.7832,-18.5 844.8965,-18.5 844.8965,-.5 797.7832,-.5"/>
<text text-anchor="middle" x="821.3398" y="-6.5" font-family="Helvetica,sans-Serif" font-size="10.00" fill="#000000">limits.h</text>
</g>
<!-- Node1&#45;&gt;Node13 -->
<g id="edge13" class="edge">
<title>Node1&#45;&gt;Node13</title>
<path fill="none" stroke="#191970" d="M699.4488,-55.4179C723.6857,-46.2875 761.23,-32.1441 788.2465,-21.9667"/>
<polygon fill="#191970" stroke="#191970" points="789.5554,-25.2138 797.6795,-18.4131 787.0876,-18.6632 789.5554,-25.2138"/>
</g>
<!-- Node14 -->
<g id="node15" class="node">
<title>Node14</title>
<polygon fill="#ffffff" stroke="#bfbfbf" points="862.6577,-.5 862.6577,-18.5 912.022,-18.5 912.022,-.5 862.6577,-.5"/>
<text text-anchor="middle" x="887.3398" y="-6.5" font-family="Helvetica,sans-Serif" font-size="10.00" fill="#000000">netdb.h</text>
</g>
<!-- Node1&#45;&gt;Node14 -->
<g id="edge14" class="edge">
<title>Node1&#45;&gt;Node14</title>
<path fill="none" stroke="#191970" d="M703.9336,-57.5253C737.463,-49.2828 794.9436,-34.9541 852.8297,-19.3578"/>
<polygon fill="#191970" stroke="#191970" points="853.7583,-22.7325 862.497,-16.7421 851.9299,-15.9755 853.7583,-22.7325"/>
</g>
<!-- Node15 -->
<g id="node16" class="node">
<title>Node15</title>
<polygon fill="#ffffff" stroke="#bfbfbf" points="929.8276,-.5 929.8276,-18.5 980.8521,-18.5 980.8521,-.5 929.8276,-.5"/>
<text text-anchor="middle" x="955.3398" y="-6.5" font-family="Helvetica,sans-Serif" font-size="10.00" fill="#000000">unistd.h</text>
</g>
<!-- Node1&#45;&gt;Node15 -->
<g id="edge15" class="edge">
<title>Node1&#45;&gt;Node15</title>
<path fill="none" stroke="#191970" d="M703.9207,-60.0675C748.2041,-53.016 836.2349,-38.2673 919.8722,-19.1914"/>
<polygon fill="#191970" stroke="#191970" points="920.8257,-22.5635 929.7832,-16.9054 919.2523,-15.7426 920.8257,-22.5635"/>
</g>
<!-- Node16 -->
<g id="node17" class="node">
<title>Node16</title>
<polygon fill="#ffffff" stroke="#bfbfbf" points="998.4976,-.5 998.4976,-18.5 1046.1821,-18.5 1046.1821,-.5 998.4976,-.5"/>
<text text-anchor="middle" x="1022.3398" y="-6.5" font-family="Helvetica,sans-Serif" font-size="10.00" fill="#000000">errno.h</text>
</g>
<!-- Node1&#45;&gt;Node16 -->
<g id="edge16" class="edge">
<title>Node1&#45;&gt;Node16</title>
<path fill="none" stroke="#191970" d="M704.2564,-61.7425C758.3997,-56.2765 878.8454,-42.6859 988.4339,-19.191"/>
<polygon fill="#191970" stroke="#191970" points="989.2987,-22.5847 998.3246,-17.0365 987.8088,-15.7451 989.2987,-22.5847"/>
</g>
<!-- Node18 -->
<g id="node19" class="node">
<title>Node18</title>
<g id="a_node19"><a xlink:href="endian_8h.html" target="_top" xlink:title="compat/endian.h">
<polygon fill="#ffffff" stroke="#000000" points="1406.3696,-110.5 1406.3696,-128.5 1496.3101,-128.5 1496.3101,-110.5 1406.3696,-110.5"/>
<text text-anchor="middle" x="1451.3398" y="-116.5" font-family="Helvetica,sans-Serif" font-size="10.00" fill="#000000">compat/endian.h</text>
</a>
</g>
</g>
<!-- Node17&#45;&gt;Node18 -->
<g id="edge18" class="edge">
<title>Node17&#45;&gt;Node18</title>
<path fill="none" stroke="#191970" d="M1251.0149,-167.1964C1289.9224,-157.9327 1357.4508,-141.8545 1403.24,-130.9523"/>
<polygon fill="#191970" stroke="#191970" points="1404.317,-134.2938 1413.2343,-128.5727 1402.6956,-127.4842 1404.317,-134.2938"/>
</g>
<!-- Node17&#45;&gt;Node20 -->
<g id="edge29" class="edge">
<title>Node17&#45;&gt;Node20</title>
<path fill="none" stroke="#191970" d="M1245.9533,-165.4163C1266.6887,-157.4462 1296.1546,-144.6905 1319.3398,-129 1358.9148,-102.2179 1360.9134,-85.9284 1397.3398,-55 1409.887,-44.3466 1424.6056,-33.1664 1436.3246,-24.5546"/>
<polygon fill="#191970" stroke="#191970" points="1438.5896,-27.235 1444.6159,-18.5209 1434.4708,-21.575 1438.5896,-27.235"/>
</g>
<!-- Node21 -->
<g id="node22" class="node">
<title>Node21</title>
<polygon fill="#ffffff" stroke="#bfbfbf" points="823.7759,-55.5 823.7759,-73.5 880.9038,-73.5 880.9038,-55.5 823.7759,-55.5"/>
<text text-anchor="middle" x="852.3398" y="-61.5" font-family="Helvetica,sans-Serif" font-size="10.00" fill="#000000">algorithm</text>
</g>
<!-- Node17&#45;&gt;Node21 -->
<g id="edge22" class="edge">
<title>Node17&#45;&gt;Node21</title>
<path fill="none" stroke="#191970" d="M1189.7937,-172.5099C1108.6398,-166.9527 892.2,-150.2712 868.3398,-129 855.7126,-117.7429 852.3012,-98.2218 851.6912,-83.5961"/>
<polygon fill="#191970" stroke="#191970" points="855.1912,-83.5745 851.6645,-73.5839 848.1912,-83.5933 855.1912,-83.5745"/>
</g>
<!-- Node22 -->
<g id="node23" class="node">
<title>Node22</title>
<polygon fill="#ffffff" stroke="#bfbfbf" points="1298.5542,-55.5 1298.5542,-73.5 1350.1255,-73.5 1350.1255,-55.5 1298.5542,-55.5"/>
<text text-anchor="middle" x="1324.3398" y="-61.5" font-family="Helvetica,sans-Serif" font-size="10.00" fill="#000000">assert.h</text>
</g>
<!-- Node17&#45;&gt;Node22 -->
<g id="edge23" class="edge">
<title>Node17&#45;&gt;Node22</title>
<path fill="none" stroke="#191970" d="M1245.0466,-165.4584C1262.3201,-158.0211 1284.8099,-145.9385 1299.3398,-129 1310.4456,-116.0533 1316.9236,-97.6185 1320.4903,-83.7705"/>
<polygon fill="#191970" stroke="#191970" points="1323.9437,-84.3689 1322.7594,-73.8405 1317.1196,-82.8095 1323.9437,-84.3689"/>
</g>
<!-- Node23 -->
<g id="node24" class="node">
<title>Node23</title>
<polygon fill="#ffffff" stroke="#bfbfbf" points="877.8398,-110.5 877.8398,-128.5 906.8398,-128.5 906.8398,-110.5 877.8398,-110.5"/>
<text text-anchor="middle" x="892.2314" y="-116.5" font-family="Helvetica,sans-Serif" font-size="10.00" fill="#000000">ios</text>
</g>
<!-- Node17&#45;&gt;Node23 -->
<g id="edge24" class="edge">
<title>Node17&#45;&gt;Node23</title>
<path fill="none" stroke="#191970" d="M1189.6649,-172.2378C1135.96,-167.7814 1021.463,-156.073 916.6678,-128.4987"/>
<polygon fill="#191970" stroke="#191970" points="917.4493,-125.0846 906.8836,-125.8696 915.6327,-131.8448 917.4493,-125.0846"/>
</g>
<!-- Node24 -->
<g id="node25" class="node">
<title>Node24</title>
<polygon fill="#ffffff" stroke="#bfbfbf" points="924.9531,-110.5 924.9531,-128.5 963.7266,-128.5 963.7266,-110.5 924.9531,-110.5"/>
<text text-anchor="middle" x="944.3398" y="-116.5" font-family="Helvetica,sans-Serif" font-size="10.00" fill="#000000">limits</text>
</g>
<!-- Node17&#45;&gt;Node24 -->
<g id="edge25" class="edge">
<title>Node17&#45;&gt;Node24</title>
<path fill="none" stroke="#191970" d="M1189.482,-170.3159C1144.063,-163.8393 1056.4511,-150.1366 973.6249,-129.0505"/>
<polygon fill="#191970" stroke="#191970" points="974.3701,-125.6281 963.8121,-126.5111 972.6163,-132.4048 974.3701,-125.6281"/>
</g>
<!-- Node25 -->
<g id="node26" class="node">
<title>Node25</title>
<polygon fill="#ffffff" stroke="#bfbfbf" points="981.6133,-110.5 981.6133,-128.5 1017.0664,-128.5 1017.0664,-110.5 981.6133,-110.5"/>
<text text-anchor="middle" x="999.3398" y="-116.5" font-family="Helvetica,sans-Serif" font-size="10.00" fill="#000000">map</text>
</g>
<!-- Node17&#45;&gt;Node25 -->
<g id="edge26" class="edge">
<title>Node17&#45;&gt;Node25</title>
<path fill="none" stroke="#191970" d="M1189.4969,-168.3408C1152.8799,-160.7951 1089.83,-147.0693 1026.9414,-128.9364"/>
<polygon fill="#191970" stroke="#191970" points="1027.8414,-125.5531 1017.2611,-126.1092 1025.8789,-132.2724 1027.8414,-125.5531"/>
</g>
<!-- Node26 -->
<g id="node27" class="node">
<title>Node26</title>
<polygon fill="#ffffff" stroke="#bfbfbf" points="1035.2832,-110.5 1035.2832,-128.5 1087.3965,-128.5 1087.3965,-110.5 1035.2832,-110.5"/>
<text text-anchor="middle" x="1061.3398" y="-116.5" font-family="Helvetica,sans-Serif" font-size="10.00" fill="#000000">memory</text>
</g>
<!-- Node17&#45;&gt;Node26 -->
<g id="edge27" class="edge">
<title>Node17&#45;&gt;Node26</title>
<path fill="none" stroke="#191970" d="M1194.0842,-165.4179C1167.5369,-156.2348 1126.3296,-141.9807 1096.8717,-131.7909"/>
<polygon fill="#191970" stroke="#191970" points="1097.965,-128.4656 1087.3702,-128.5042 1095.6766,-135.081 1097.965,-128.4656"/>
</g>
<!-- Node27 -->
<g id="node28" class="node">
<title>Node27</title>
<polygon fill="#ffffff" stroke="#bfbfbf" points="1105.6699,-110.5 1105.6699,-128.5 1135.0098,-128.5 1135.0098,-110.5 1105.6699,-110.5"/>
<text text-anchor="middle" x="1120.3398" y="-116.5" font-family="Helvetica,sans-Serif" font-size="10.00" fill="#000000">set</text>
</g>
<!-- Node17&#45;&gt;Node27 -->
<g id="edge28" class="edge">
<title>Node17&#45;&gt;Node27</title>
<path fill="none" stroke="#191970" d="M1203.8269,-165.4179C1187.5764,-156.4801 1162.5918,-142.7386 1144.187,-132.6159"/>
<polygon fill="#191970" stroke="#191970" points="1145.6922,-129.4494 1135.2433,-127.6969 1142.3188,-135.5829 1145.6922,-129.4494"/>
</g>
<!-- Node17&#45;&gt;Node28 -->
<g id="edge30" class="edge">
<title>Node17&#45;&gt;Node28</title>
<path fill="none" stroke="#191970" d="M1251.0227,-171.2168C1301.8422,-165.4327 1406.7574,-152.0279 1503.8835,-129.0542"/>
<polygon fill="#191970" stroke="#191970" points="1504.9568,-132.3959 1513.8604,-126.6533 1503.319,-125.5902 1504.9568,-132.3959"/>
</g>
<!-- Node29 -->
<g id="node30" class="node">
<title>Node29</title>
<polygon fill="#ffffff" stroke="#bfbfbf" points="1231.9434,-55.5 1231.9434,-73.5 1280.7363,-73.5 1280.7363,-55.5 1231.9434,-55.5"/>
<text text-anchor="middle" x="1256.3398" y="-61.5" font-family="Helvetica,sans-Serif" font-size="10.00" fill="#000000">string.h</text>
</g>
<!-- Node17&#45;&gt;Node29 -->
<g id="edge31" class="edge">
<title>Node17&#45;&gt;Node29</title>
<path fill="none" stroke="#191970" d="M1241.8145,-165.4579C1256.4473,-158.0204 1274.6794,-145.9377 1283.3398,-129 1291.3187,-113.3952 1281.7105,-94.8769 1271.8144,-81.6945"/>
<polygon fill="#191970" stroke="#191970" points="1274.4821,-79.4276 1265.4517,-73.8866 1269.0557,-83.8496 1274.4821,-79.4276"/>
</g>
<!-- Node30 -->
<g id="node31" class="node">
<title>Node30</title>
<polygon fill="#ffffff" stroke="#bfbfbf" points="1235.9482,-110.5 1235.9482,-128.5 1274.7314,-128.5 1274.7314,-110.5 1235.9482,-110.5"/>
<text text-anchor="middle" x="1255.3398" y="-116.5" font-family="Helvetica,sans-Serif" font-size="10.00" fill="#000000">utility</text>
</g>
<!-- Node17&#45;&gt;Node30 -->
<g id="edge32" class="edge">
<title>Node17&#45;&gt;Node30</title>
<path fill="none" stroke="#191970" d="M1226.1194,-165.4179C1230.954,-157.8207 1237.9972,-146.7527 1243.9575,-137.3866"/>
<polygon fill="#191970" stroke="#191970" points="1247.0188,-139.0952 1249.4347,-128.7795 1241.1131,-135.337 1247.0188,-139.0952"/>
</g>
<!-- Node17&#45;&gt;Node31 -->
<g id="edge33" class="edge">
<title>Node17&#45;&gt;Node31</title>
<path fill="none" stroke="#191970" d="M1250.9149,-172.1537C1309.561,-167.2887 1441.9741,-154.5428 1562.3238,-128.8948"/>
<polygon fill="#191970" stroke="#191970" points="1563.4119,-132.2403 1572.4433,-126.701 1561.9288,-125.3992 1563.4119,-132.2403"/>
</g>
<!-- Node32 -->
<g id="node33" class="node">
<title>Node32</title>
<g id="a_node33"><a xlink:href="prevector_8h.html" target="_top" xlink:title="prevector.h">
<polygon fill="#ffffff" stroke="#000000" points="1152.6011,-110.5 1152.6011,-128.5 1218.0786,-128.5 1218.0786,-110.5 1152.6011,-110.5"/>
<text text-anchor="middle" x="1185.3398" y="-116.5" font-family="Helvetica,sans-Serif" font-size="10.00" fill="#000000">prevector.h</text>
</a>
</g>
</g>
<!-- Node17&#45;&gt;Node32 -->
<g id="edge34" class="edge">
<title>Node17&#45;&gt;Node32</title>
<path fill="none" stroke="#191970" d="M1214.5603,-165.4179C1209.7257,-157.8207 1202.6825,-146.7527 1196.7222,-137.3866"/>
<polygon fill="#191970" stroke="#191970" points="1199.5666,-135.337 1191.245,-128.7795 1193.6609,-139.0952 1199.5666,-135.337"/>
</g>
<!-- Node17&#45;&gt;Node36 -->
<g id="edge43" class="edge">
<title>Node17&#45;&gt;Node36</title>
<path fill="none" stroke="#191970" d="M1189.6858,-172.2779C1124.2088,-167.2253 966.0125,-153.384 835.3398,-129 834.093,-128.7673 832.826,-128.5164 831.5487,-128.2513"/>
<polygon fill="#191970" stroke="#191970" points="832.2507,-124.8215 821.7224,-126.0068 830.6919,-131.6458 832.2507,-124.8215"/>
</g>
<!-- Node19 -->
<g id="node20" class="node">
<title>Node19</title>
<g id="a_node20"><a xlink:href="byteswap_8h.html" target="_top" xlink:title="compat/byteswap.h">
<polygon fill="#ffffff" stroke="#000000" points="1406.2612,-55.5 1406.2612,-73.5 1508.4185,-73.5 1508.4185,-55.5 1406.2612,-55.5"/>
<text text-anchor="middle" x="1457.3398" y="-61.5" font-family="Helvetica,sans-Serif" font-size="10.00" fill="#000000">compat/byteswap.h</text>
</a>
</g>
</g>
<!-- Node18&#45;&gt;Node19 -->
<g id="edge19" class="edge">
<title>Node18&#45;&gt;Node19</title>
<path fill="none" stroke="#191970" d="M1452.3306,-110.4179C1453.1162,-103.2164 1454.2421,-92.8962 1455.2275,-83.8632"/>
<polygon fill="#191970" stroke="#191970" points="1458.7223,-84.1001 1456.3275,-73.7795 1451.7636,-83.3409 1458.7223,-84.1001"/>
</g>
<!-- Node18&#45;&gt;Node20 -->
<g id="edge21" class="edge">
<title>Node18&#45;&gt;Node20</title>
<path fill="none" stroke="#191970" d="M1474.4598,-110.4075C1489.66,-103.0689 1508.3448,-91.1266 1517.3398,-74 1527.8707,-53.9493 1506.1412,-35.5129 1485.9502,-23.5325"/>
<polygon fill="#191970" stroke="#191970" points="1487.6359,-20.4651 1477.1971,-18.6536 1484.2279,-26.5795 1487.6359,-20.4651"/>
</g>
<!-- Node19&#45;&gt;Node20 -->
<g id="edge20" class="edge">
<title>Node19&#45;&gt;Node20</title>
<path fill="none" stroke="#191970" d="M1457.3398,-55.4179C1457.3398,-48.2164 1457.3398,-37.8962 1457.3398,-28.8632"/>
<polygon fill="#191970" stroke="#191970" points="1460.8399,-28.7794 1457.3398,-18.7795 1453.8399,-28.7795 1460.8399,-28.7794"/>
</g>
<!-- Node32&#45;&gt;Node1 -->
<g id="edge42" class="edge">
<title>Node32&#45;&gt;Node1</title>
<path fill="none" stroke="#191970" d="M1152.2955,-111.4519C1149.6123,-110.918 1146.9357,-110.4248 1144.3398,-110 1061.6614,-96.4706 811.0587,-75.4644 714.1646,-67.6061"/>
<polygon fill="#191970" stroke="#191970" points="714.1822,-64.0962 703.9326,-66.7789 713.618,-71.0735 714.1822,-64.0962"/>
</g>
<!-- Node32&#45;&gt;Node2 -->
<g id="edge41" class="edge">
<title>Node32&#45;&gt;Node2</title>
<path fill="none" stroke="#191970" d="M1154.7812,-110.4739C1119.3527,-99.705 1065.053,-82.1373 1059.3398,-74 1048.2728,-58.237 1062.5817,-38.7697 1076.301,-25.3697"/>
<polygon fill="#191970" stroke="#191970" points="1078.6758,-27.9409 1083.6973,-18.6116 1073.954,-22.7732 1078.6758,-27.9409"/>
</g>
<!-- Node32&#45;&gt;Node20 -->
<g id="edge37" class="edge">
<title>Node32&#45;&gt;Node20</title>
<path fill="none" stroke="#191970" d="M1152.4919,-110.7431C1117.6491,-99.9082 1070.4244,-79.817 1092.3398,-55 1114.0741,-30.3882 1336.4782,-15.9545 1423.0853,-11.2305"/>
<polygon fill="#191970" stroke="#191970" points="1423.3903,-14.7193 1433.1891,-10.6901 1423.0164,-7.7293 1423.3903,-14.7193"/>
</g>
<!-- Node32&#45;&gt;Node22 -->
<g id="edge35" class="edge">
<title>Node32&#45;&gt;Node22</title>
<path fill="none" stroke="#191970" d="M1208.2929,-110.4179C1231.1298,-101.3817 1266.3761,-87.4353 1292.0343,-77.2828"/>
<polygon fill="#191970" stroke="#191970" points="1293.3419,-80.5295 1301.3527,-73.5956 1290.7664,-74.0205 1293.3419,-80.5295"/>
</g>
<!-- Node32&#45;&gt;Node29 -->
<g id="edge38" class="edge">
<title>Node32&#45;&gt;Node29</title>
<path fill="none" stroke="#191970" d="M1197.064,-110.4179C1207.6886,-102.1876 1223.5715,-89.8839 1236.2229,-80.0836"/>
<polygon fill="#191970" stroke="#191970" points="1238.5988,-82.6704 1244.3609,-73.7795 1234.312,-77.1365 1238.5988,-82.6704"/>
</g>
<!-- Node33 -->
<g id="node34" class="node">
<title>Node33</title>
<polygon fill="#ffffff" stroke="#bfbfbf" points="1101.4976,-55.5 1101.4976,-73.5 1149.1821,-73.5 1149.1821,-55.5 1101.4976,-55.5"/>
<text text-anchor="middle" x="1125.3398" y="-61.5" font-family="Helvetica,sans-Serif" font-size="10.00" fill="#000000">stdlib.h</text>
</g>
<!-- Node32&#45;&gt;Node33 -->
<g id="edge36" class="edge">
<title>Node32&#45;&gt;Node33</title>
<path fill="none" stroke="#191970" d="M1175.4321,-110.4179C1166.6262,-102.3458 1153.546,-90.3556 1142.9599,-80.6517"/>
<polygon fill="#191970" stroke="#191970" points="1145.1995,-77.9567 1135.4629,-73.7795 1140.4694,-83.1168 1145.1995,-77.9567"/>
</g>
<!-- Node34 -->
<g id="node35" class="node">
<title>Node34</title>
<polygon fill="#ffffff" stroke="#bfbfbf" points="931.2192,-55.5 931.2192,-73.5 979.4604,-73.5 979.4604,-55.5 931.2192,-55.5"/>
<text text-anchor="middle" x="955.3398" y="-61.5" font-family="Helvetica,sans-Serif" font-size="10.00" fill="#000000">cstddef</text>
</g>
<!-- Node32&#45;&gt;Node34 -->
<g id="edge39" class="edge">
<title>Node32&#45;&gt;Node34</title>
<path fill="none" stroke="#191970" d="M1152.3865,-111.6198C1109.1487,-101.2804 1033.6234,-83.22 989.6988,-72.7163"/>
<polygon fill="#191970" stroke="#191970" points="990.3167,-69.2654 979.7769,-70.3436 988.6887,-76.0735 990.3167,-69.2654"/>
</g>
<!-- Node35 -->
<g id="node36" class="node">
<title>Node35</title>
<polygon fill="#ffffff" stroke="#bfbfbf" points="1166.7783,-55.5 1166.7783,-73.5 1213.9014,-73.5 1213.9014,-55.5 1166.7783,-55.5"/>
<text text-anchor="middle" x="1190.3398" y="-61.5" font-family="Helvetica,sans-Serif" font-size="10.00" fill="#000000">iterator</text>
</g>
<!-- Node32&#45;&gt;Node35 -->
<g id="edge40" class="edge">
<title>Node32&#45;&gt;Node35</title>
<path fill="none" stroke="#191970" d="M1186.1655,-110.4179C1186.8202,-103.2164 1187.7584,-92.8962 1188.5796,-83.8632"/>
<polygon fill="#191970" stroke="#191970" points="1192.0764,-84.0553 1189.4963,-73.7795 1185.1052,-83.4215 1192.0764,-84.0553"/>
</g>
<!-- Node36&#45;&gt;Node2 -->
<g id="edge44" class="edge">
<title>Node36&#45;&gt;Node2</title>
<path fill="none" stroke="#191970" d="M797.6977,-110.453C797.2397,-96.3546 798.634,-69.2822 814.3398,-55 852.3677,-20.4191 987.4419,-28.3007 1053.8998,-18.8889"/>
<polygon fill="#191970" stroke="#191970" points="1054.6594,-22.3108 1063.9514,-17.2207 1053.5133,-15.4052 1054.6594,-22.3108"/>
</g>
<!-- Node36&#45;&gt;Node21 -->
<g id="edge46" class="edge">
<title>Node36&#45;&gt;Node21</title>
<path fill="none" stroke="#191970" d="M807.2568,-110.4179C815.1044,-102.425 826.7239,-90.5903 836.201,-80.9377"/>
<polygon fill="#191970" stroke="#191970" points="838.7207,-83.3672 843.2291,-73.7795 833.7257,-78.463 838.7207,-83.3672"/>
</g>
<!-- Node36&#45;&gt;Node34 -->
<g id="edge45" class="edge">
<title>Node36&#45;&gt;Node34</title>
<path fill="none" stroke="#191970" d="M821.5057,-111.3846C847.8679,-102.1494 891.1699,-86.9799 921.355,-76.4055"/>
<polygon fill="#191970" stroke="#191970" points="922.7649,-79.6202 931.0453,-73.0108 920.4505,-73.0139 922.7649,-79.6202"/>
</g>
</g>
</svg>
