<?xml version="1.0" encoding="UTF-8" standalone="no"?>
<!DOCTYPE svg PUBLIC "-//W3C//DTD SVG 1.1//EN"
 "http://www.w3.org/Graphics/SVG/1.1/DTD/svg11.dtd">
<!-- Generated by graphviz version 2.40.1 (20161225.0304)
 -->
<!-- Title: src/secp256k1/src/java/org_bitcoin_Secp256k1Context.h Pages: 1 -->
<svg width="174pt" height="102pt"
 viewBox="0.00 0.00 174.10 102.00" xmlns="http://www.w3.org/2000/svg" xmlns:xlink="http://www.w3.org/1999/xlink">
<g id="graph0" class="graph" transform="scale(1 1) rotate(0) translate(4 98)">
<title>src/secp256k1/src/java/org_bitcoin_Secp256k1Context.h</title>
<polygon fill="#ffffff" stroke="transparent" points="-4,4 -4,-98 170.1025,-98 170.1025,4 -4,4"/>
<!-- Node4 -->
<g id="node1" class="node">
<title>Node4</title>
<polygon fill="#bfbfbf" stroke="#000000" points="0,-65.5 0,-93.5 166.1025,-93.5 166.1025,-65.5 0,-65.5"/>
<text text-anchor="start" x="8" y="-81.5" font-family="Helvetica,sans-Serif" font-size="10.00" fill="#000000">src/secp256k1/src/java</text>
<text text-anchor="middle" x="83.0513" y="-71.5" font-family="Helvetica,sans-Serif" font-size="10.00" fill="#000000">/org_bitcoin_Secp256k1Context.h</text>
</g>
<!-- Node5 -->
<g id="node2" class="node">
<title>Node5</title>
<g id="a_node2"><a xlink:href="org__bitcoin___secp256k1_context_8c.html" target="_top" xlink:title="src/secp256k1/src/java\l/org_bitcoin_Secp256k1Context.c">
<polygon fill="#ffffff" stroke="#000000" points=".2808,-.5 .2808,-28.5 165.8218,-28.5 165.8218,-.5 .2808,-.5"/>
<text text-anchor="start" x="8.2808" y="-16.5" font-family="Helvetica,sans-Serif" font-size="10.00" fill="#000000">src/secp256k1/src/java</text>
<text text-anchor="middle" x="83.0513" y="-6.5" font-family="Helvetica,sans-Serif" font-size="10.00" fill="#000000">/org_bitcoin_Secp256k1Context.c</text>
</a>
</g>
</g>
<!-- Node4&#45;&gt;Node5 -->
<g id="edge1" class="edge">
<title>Node4&#45;&gt;Node5</title>
<path fill="none" stroke="#191970" d="M83.0513,-55.1081C83.0513,-46.1539 83.0513,-36.3227 83.0513,-28.5765"/>
<polygon fill="#191970" stroke="#191970" points="79.5514,-55.3959 83.0513,-65.396 86.5514,-55.396 79.5514,-55.3959"/>
</g>
</g>
</svg>
