<?xml version="1.0" encoding="UTF-8" standalone="no"?>
<!DOCTYPE svg PUBLIC "-//W3C//DTD SVG 1.1//EN"
 "http://www.w3.org/Graphics/SVG/1.1/DTD/svg11.dtd">
<!-- Generated by graphviz version 2.40.1 (20161225.0304)
 -->
<!-- Title: JSONRPCError Pages: 1 -->
<svg width="756pt" height="1629pt"
 viewBox="0.00 0.00 755.91 1628.97" xmlns="http://www.w3.org/2000/svg" xmlns:xlink="http://www.w3.org/1999/xlink">
<g id="graph0" class="graph" transform="scale(1 1) rotate(0) translate(4 1624.9722)">
<title>JSONRPCError</title>
<polygon fill="#ffffff" stroke="transparent" points="-4,4 -4,-1624.9722 751.9111,-1624.9722 751.9111,4 -4,4"/>
<!-- Node9 -->
<g id="node1" class="node">
<title>Node9</title>
<polygon fill="#bfbfbf" stroke="#000000" points="0,-825.4722 0,-843.4722 86.0049,-843.4722 86.0049,-825.4722 0,-825.4722"/>
<text text-anchor="middle" x="43.0024" y="-831.4722" font-family="Helvetica,sans-Serif" font-size="10.00" fill="#000000">JSONRPCError</text>
</g>
<!-- Node10 -->
<g id="node2" class="node">
<title>Node10</title>
<g id="a_node2"><a xlink:href="mining_8h.html#aeae629d66e8abfac91fb0b43f5f1962e" target="_top" xlink:title="Check bounds on a command line confirm target. ">
<polygon fill="#ffffff" stroke="#000000" points="149.3267,-1602.4722 149.3267,-1620.4722 254.2476,-1620.4722 254.2476,-1602.4722 149.3267,-1602.4722"/>
<text text-anchor="middle" x="201.7871" y="-1608.4722" font-family="Helvetica,sans-Serif" font-size="10.00" fill="#000000">ParseConfirmTarget</text>
</a>
</g>
</g>
<!-- Node9&#45;&gt;Node10 -->
<g id="edge1" class="edge">
<title>Node9&#45;&gt;Node10</title>
<path fill="none" stroke="#191970" d="M43.769,-853.8824C48.3672,-966.1321 73.7303,-1529.1671 122.0049,-1587.4722 129.0154,-1595.9395 138.8951,-1601.4945 149.3224,-1605.1202"/>
<polygon fill="#191970" stroke="#191970" points="47.2587,-853.5521 43.3588,-843.7012 40.2643,-853.834 47.2587,-853.5521"/>
</g>
<!-- Node11 -->
<g id="node3" class="node">
<title>Node11</title>
<g id="a_node3"><a xlink:href="mining_8h.html#a4910d289954727eb7c4c24a6b3c50c55" target="_top" xlink:title="Generate blocks (mine) ">
<polygon fill="#ffffff" stroke="#000000" points="159.3218,-1033.4722 159.3218,-1051.4722 244.2524,-1051.4722 244.2524,-1033.4722 159.3218,-1033.4722"/>
<text text-anchor="middle" x="201.7871" y="-1039.4722" font-family="Helvetica,sans-Serif" font-size="10.00" fill="#000000">generateBlocks</text>
</a>
</g>
</g>
<!-- Node9&#45;&gt;Node11 -->
<g id="edge2" class="edge">
<title>Node9&#45;&gt;Node11</title>
<path fill="none" stroke="#191970" d="M45.8123,-853.7553C52.2769,-891.1039 71.7068,-973.5752 122.0049,-1018.4722 132.256,-1027.6226 145.8858,-1033.2867 158.9748,-1036.792"/>
<polygon fill="#191970" stroke="#191970" points="49.24,-853.0252 44.2024,-843.7046 42.3281,-854.1323 49.24,-853.0252"/>
</g>
<!-- Node12 -->
<g id="node4" class="node">
<title>Node12</title>
<g id="a_node4"><a xlink:href="rpcwallet_8cpp.html#a236a42206aa464fbb10bae6e6243092b" target="_top" xlink:title="generate">
<polygon fill="#ffffff" stroke="#000000" points="342.3032,-993.4722 342.3032,-1011.4722 397.7808,-1011.4722 397.7808,-993.4722 342.3032,-993.4722"/>
<text text-anchor="middle" x="370.042" y="-999.4722" font-family="Helvetica,sans-Serif" font-size="10.00" fill="#000000">generate</text>
</a>
</g>
</g>
<!-- Node9&#45;&gt;Node12 -->
<g id="edge104" class="edge">
<title>Node9&#45;&gt;Node12</title>
<path fill="none" stroke="#191970" d="M46.7298,-853.5927C56.9172,-903.6612 86.8274,-1036.468 122.0049,-1061.4722 179.8079,-1102.5588 216.7862,-1090.3242 281.5693,-1061.4722 303.418,-1051.7416 297.7312,-1034.8325 317.5693,-1021.4722 324.9626,-1016.4931 333.8188,-1012.6389 342.1316,-1009.7441"/>
<polygon fill="#191970" stroke="#191970" points="50.1521,-852.8567 44.7631,-843.7348 43.2873,-854.2263 50.1521,-852.8567"/>
</g>
<!-- Node13 -->
<g id="node5" class="node">
<title>Node13</title>
<g id="a_node5"><a xlink:href="mining_8cpp.html#a10cdffdab4c77633047f774c424a3713" target="_top" xlink:title="setgenerate">
<polygon fill="#ffffff" stroke="#000000" points="167.3784,-1488.4722 167.3784,-1506.4722 236.1958,-1506.4722 236.1958,-1488.4722 167.3784,-1488.4722"/>
<text text-anchor="middle" x="201.7871" y="-1494.4722" font-family="Helvetica,sans-Serif" font-size="10.00" fill="#000000">setgenerate</text>
</a>
</g>
</g>
<!-- Node9&#45;&gt;Node13 -->
<g id="edge4" class="edge">
<title>Node9&#45;&gt;Node13</title>
<path fill="none" stroke="#191970" d="M44.1398,-853.7109C50.2966,-955.1124 80.8821,-1424.7287 122.0049,-1473.4722 133.1039,-1486.6281 151.1237,-1492.7391 167.2317,-1495.5119"/>
<polygon fill="#191970" stroke="#191970" points="47.6303,-853.4453 43.5376,-843.6729 40.6428,-853.8645 47.6303,-853.4453"/>
</g>
<!-- Node14 -->
<g id="node6" class="node">
<title>Node14</title>
<g id="a_node6"><a xlink:href="rawtransaction_8h.html#aee85a5d91a985f7e1bc1b4a124870ab3" target="_top" xlink:title="Create a transaction from univalue parameters. ">
<polygon fill="#ffffff" stroke="#000000" points="458.5146,-1260.4722 458.5146,-1278.4722 569.1875,-1278.4722 569.1875,-1260.4722 458.5146,-1260.4722"/>
<text text-anchor="middle" x="513.8511" y="-1266.4722" font-family="Helvetica,sans-Serif" font-size="10.00" fill="#000000">ConstructTransaction</text>
</a>
</g>
</g>
<!-- Node9&#45;&gt;Node14 -->
<g id="edge5" class="edge">
<title>Node9&#45;&gt;Node14</title>
<path fill="none" stroke="#191970" d="M44.4204,-853.9595C51.2784,-945.5525 82.3046,-1330.2511 122.0049,-1364.4722 173.1019,-1408.5172 364.9189,-1356.5949 422.5146,-1321.4722 442.1035,-1309.5267 438.7406,-1296.1087 458.5146,-1284.4722 462.4608,-1282.15 466.7755,-1280.1781 471.1988,-1278.5054"/>
<polygon fill="#191970" stroke="#191970" points="47.9021,-853.5808 43.6744,-843.866 40.9211,-854.0969 47.9021,-853.5808"/>
</g>
<!-- Node17 -->
<g id="node9" class="node">
<title>Node17</title>
<g id="a_node9"><a xlink:href="rawtransaction_8h.html#a69f132a19b8e91bd9b0b1330b5323f0a" target="_top" xlink:title="Sign a transaction with the given keystore and previous transactions. ">
<polygon fill="#ffffff" stroke="#000000" points="469.9038,-127.4722 469.9038,-145.4722 557.7983,-145.4722 557.7983,-127.4722 469.9038,-127.4722"/>
<text text-anchor="middle" x="513.8511" y="-133.4722" font-family="Helvetica,sans-Serif" font-size="10.00" fill="#000000">SignTransaction</text>
</a>
</g>
</g>
<!-- Node9&#45;&gt;Node17 -->
<g id="edge8" class="edge">
<title>Node9&#45;&gt;Node17</title>
<path fill="none" stroke="#191970" d="M44.199,-815.1615C50.4926,-716.3464 81.0325,-270.1703 122.0049,-225.4722 171.0643,-171.9517 210.7503,-206.4704 281.5693,-190.4722 350.021,-175.0088 429.6574,-156.3494 475.6591,-145.5051"/>
<polygon fill="#191970" stroke="#191970" points="40.7012,-815.0188 43.5663,-825.2188 47.6874,-815.4583 40.7012,-815.0188"/>
</g>
<!-- Node18 -->
<g id="node10" class="node">
<title>Node18</title>
<g id="a_node10"><a xlink:href="rpcwallet_8h.html#a7c13054932c9e3b351bd6277fa9361d7" target="_top" xlink:title="signrawtransactionwithwallet">
<polygon fill="#ffffff" stroke="#000000" points="605.1875,-296.4722 605.1875,-314.4722 747.9111,-314.4722 747.9111,-296.4722 605.1875,-296.4722"/>
<text text-anchor="middle" x="676.5493" y="-302.4722" font-family="Helvetica,sans-Serif" font-size="10.00" fill="#000000">signrawtransactionwithwallet</text>
</a>
</g>
</g>
<!-- Node9&#45;&gt;Node18 -->
<g id="edge103" class="edge">
<title>Node9&#45;&gt;Node18</title>
<path fill="none" stroke="#191970" d="M43.5146,-815.1362C46.7015,-702.1238 65.5564,-130.3222 122.0049,-79.4722 270.2049,54.0294 410.7253,3.6709 569.1875,-117.4722 633.3863,-166.5517 665.4775,-265.7965 674.11,-296.3269"/>
<polygon fill="#191970" stroke="#191970" points="40.0095,-815.2751 43.2341,-825.3673 47.0069,-815.467 40.0095,-815.2751"/>
</g>
<!-- Node19 -->
<g id="node11" class="node">
<title>Node19</title>
<g id="a_node11"><a xlink:href="rawtransaction_8cpp.html#a5b2abfea4548c97e780cfae39f9ac11b" target="_top" xlink:title="signrawtransaction">
<polygon fill="#ffffff" stroke="#000000" points="152.1001,-1336.4722 152.1001,-1354.4722 251.4741,-1354.4722 251.4741,-1336.4722 152.1001,-1336.4722"/>
<text text-anchor="middle" x="201.7871" y="-1342.4722" font-family="Helvetica,sans-Serif" font-size="10.00" fill="#000000">signrawtransaction</text>
</a>
</g>
</g>
<!-- Node9&#45;&gt;Node19 -->
<g id="edge10" class="edge">
<title>Node9&#45;&gt;Node19</title>
<path fill="none" stroke="#191970" d="M43.3147,-853.9168C45.0452,-936.5002 55.981,-1257.152 122.0049,-1327.4722 129.8774,-1335.857 140.7553,-1340.7379 151.9487,-1343.4927"/>
<polygon fill="#191970" stroke="#191970" points="46.8067,-853.4509 43.1207,-843.518 39.8079,-853.5815 46.8067,-853.4509"/>
</g>
<!-- Node20 -->
<g id="node12" class="node">
<title>Node20</title>
<g id="a_node12"><a xlink:href="rawtransaction_8cpp.html#a0e9b5930a41831d5be26d74565f07340" target="_top" xlink:title="decodepsbt">
<polygon fill="#ffffff" stroke="#000000" points="479.9966,-1553.4722 479.9966,-1571.4722 547.7056,-1571.4722 547.7056,-1553.4722 479.9966,-1553.4722"/>
<text text-anchor="middle" x="513.8511" y="-1559.4722" font-family="Helvetica,sans-Serif" font-size="10.00" fill="#000000">decodepsbt</text>
</a>
</g>
</g>
<!-- Node9&#45;&gt;Node20 -->
<g id="edge11" class="edge">
<title>Node9&#45;&gt;Node20</title>
<path fill="none" stroke="#191970" d="M43.6989,-853.9081C47.79,-962.7784 70.3122,-1493.798 122.0049,-1542.4722 172.8991,-1590.3946 394.0685,-1574.329 479.7585,-1566.0759"/>
<polygon fill="#191970" stroke="#191970" points="47.19,-853.5971 43.3246,-843.7325 40.1947,-853.8545 47.19,-853.5971"/>
</g>
<!-- Node21 -->
<g id="node13" class="node">
<title>Node21</title>
<g id="a_node13"><a xlink:href="rawtransaction_8cpp.html#a220a68cf9c7fa672caf17951c5d280bd" target="_top" xlink:title="combinepsbt">
<polygon fill="#ffffff" stroke="#000000" points="477.5015,-1506.4722 477.5015,-1524.4722 550.2007,-1524.4722 550.2007,-1506.4722 477.5015,-1506.4722"/>
<text text-anchor="middle" x="513.8511" y="-1512.4722" font-family="Helvetica,sans-Serif" font-size="10.00" fill="#000000">combinepsbt</text>
</a>
</g>
</g>
<!-- Node9&#45;&gt;Node21 -->
<g id="edge12" class="edge">
<title>Node9&#45;&gt;Node21</title>
<path fill="none" stroke="#191970" d="M43.7442,-853.8932C48.0083,-960.4604 71.0166,-1471.0495 122.0049,-1516.4722 173.6264,-1562.4592 390.2785,-1534.7935 477.3711,-1521.4397"/>
<polygon fill="#191970" stroke="#191970" points="47.2321,-853.5129 43.3432,-843.6576 40.2374,-853.787 47.2321,-853.5129"/>
</g>
<!-- Node22 -->
<g id="node14" class="node">
<title>Node22</title>
<g id="a_node14"><a xlink:href="rawtransaction_8cpp.html#a5edaef38949646889470912893a56b88" target="_top" xlink:title="finalizepsbt">
<polygon fill="#ffffff" stroke="#000000" points="480.8364,-1449.4722 480.8364,-1467.4722 546.8657,-1467.4722 546.8657,-1449.4722 480.8364,-1449.4722"/>
<text text-anchor="middle" x="513.8511" y="-1455.4722" font-family="Helvetica,sans-Serif" font-size="10.00" fill="#000000">finalizepsbt</text>
</a>
</g>
</g>
<!-- Node9&#45;&gt;Node22 -->
<g id="edge13" class="edge">
<title>Node9&#45;&gt;Node22</title>
<path fill="none" stroke="#191970" d="M44.2302,-853.9781C50.5165,-950.9417 80.4283,-1378.0232 122.0049,-1418.4722 172.489,-1467.5872 395.4543,-1463.5587 480.6242,-1460.1114"/>
<polygon fill="#191970" stroke="#191970" points="47.7128,-853.594 43.5814,-843.8379 40.7271,-854.041 47.7128,-853.594"/>
</g>
<!-- Node23 -->
<g id="node15" class="node">
<title>Node23</title>
<g id="a_node15"><a xlink:href="rawtransaction_8cpp.html#a6b6a0c0d5bd5b55553ea48b3da2e796c" target="_top" xlink:title="converttopsbt">
<polygon fill="#ffffff" stroke="#000000" points="475.834,-1412.4722 475.834,-1430.4722 551.8682,-1430.4722 551.8682,-1412.4722 475.834,-1412.4722"/>
<text text-anchor="middle" x="513.8511" y="-1418.4722" font-family="Helvetica,sans-Serif" font-size="10.00" fill="#000000">converttopsbt</text>
</a>
</g>
</g>
<!-- Node9&#45;&gt;Node23 -->
<g id="edge14" class="edge">
<title>Node9&#45;&gt;Node23</title>
<path fill="none" stroke="#191970" d="M44.3615,-853.7988C51.1119,-947.1939 82.3029,-1348.8232 122.0049,-1386.4722 172.06,-1433.939 387.093,-1428.289 475.5829,-1423.7933"/>
<polygon fill="#191970" stroke="#191970" points="47.8488,-853.4953 43.6455,-843.77 40.8666,-853.9938 47.8488,-853.4953"/>
</g>
<!-- Node24 -->
<g id="node16" class="node">
<title>Node24</title>
<g id="a_node16"><a xlink:href="server_8h.html#a34ca526f05cc7f2281e634a5be48c121" target="_top" xlink:title="Type&#45;check one argument; throws JSONRPCError if wrong type given. ">
<polygon fill="#ffffff" stroke="#000000" points="136.5386,-1299.4722 136.5386,-1317.4722 267.0356,-1317.4722 267.0356,-1299.4722 136.5386,-1299.4722"/>
<text text-anchor="middle" x="201.7871" y="-1305.4722" font-family="Helvetica,sans-Serif" font-size="10.00" fill="#000000">RPCTypeCheckArgument</text>
</a>
</g>
</g>
<!-- Node9&#45;&gt;Node24 -->
<g id="edge15" class="edge">
<title>Node9&#45;&gt;Node24</title>
<path fill="none" stroke="#191970" d="M43.7806,-854.0779C47.263,-932.0418 63.8905,-1219.0339 122.0049,-1284.4722 127.8637,-1291.0694 135.4603,-1295.8853 143.6338,-1299.3942"/>
<polygon fill="#191970" stroke="#191970" points="47.2646,-853.6247 43.3443,-843.7819 40.2709,-853.9211 47.2646,-853.6247"/>
</g>
<!-- Node27 -->
<g id="node18" class="node">
<title>Node27</title>
<g id="a_node18"><a xlink:href="wallet__tests_8cpp.html#af0e3c9469f1d8f368d3d5f38e5580367" target="_top" xlink:title="importmulti">
<polygon fill="#ffffff" stroke="#000000" points="481.4028,-766.4722 481.4028,-784.4722 546.2993,-784.4722 546.2993,-766.4722 481.4028,-766.4722"/>
<text text-anchor="middle" x="513.8511" y="-772.4722" font-family="Helvetica,sans-Serif" font-size="10.00" fill="#000000">importmulti</text>
</a>
</g>
</g>
<!-- Node9&#45;&gt;Node27 -->
<g id="edge53" class="edge">
<title>Node9&#45;&gt;Node27</title>
<path fill="none" stroke="#191970" d="M67.0531,-848.5644C82.3673,-857.0495 102.8579,-867.5205 122.0049,-874.4722 190.4335,-899.3166 229.7765,-860.3134 281.5693,-911.4722 329.4242,-958.7413 264.6512,-1016.9498 317.5693,-1058.4722 354.264,-1087.2648 384.8072,-1085.9251 422.5146,-1058.4722 469.7825,-1024.059 504.9075,-829.0058 512.375,-784.5091"/>
<polygon fill="#191970" stroke="#191970" points="68.6732,-845.4597 58.2452,-843.5871 65.2294,-851.554 68.6732,-845.4597"/>
</g>
<!-- Node28 -->
<g id="node19" class="node">
<title>Node28</title>
<g id="a_node19"><a xlink:href="rpcwallet_8cpp.html#a9c99ceacf389a1ce91977c6f7ffa5022" target="_top" xlink:title="walletprocesspsbt">
<polygon fill="#ffffff" stroke="#000000" points="466.1099,-1144.4722 466.1099,-1162.4722 561.5923,-1162.4722 561.5923,-1144.4722 466.1099,-1144.4722"/>
<text text-anchor="middle" x="513.8511" y="-1150.4722" font-family="Helvetica,sans-Serif" font-size="10.00" fill="#000000">walletprocesspsbt</text>
</a>
</g>
</g>
<!-- Node9&#45;&gt;Node28 -->
<g id="edge112" class="edge">
<title>Node9&#45;&gt;Node28</title>
<path fill="none" stroke="#191970" d="M45.6455,-853.7839C53.9221,-911.2445 81.2416,-1079.2566 122.0049,-1113.4722 173.0069,-1156.282 373.1827,-1157.1065 466.0505,-1155.0504"/>
<polygon fill="#191970" stroke="#191970" points="49.0665,-852.977 44.2079,-843.5619 42.1348,-853.9519 49.0665,-852.977"/>
</g>
<!-- Node29 -->
<g id="node20" class="node">
<title>Node29</title>
<g id="a_node20"><a xlink:href="rpcwallet_8cpp.html#aaaebd94e806360dd08e7254b09c7997b" target="_top" xlink:title="FundTransaction">
<polygon fill="#ffffff" stroke="#000000" points="324.7056,-1293.4722 324.7056,-1311.4722 415.3784,-1311.4722 415.3784,-1293.4722 324.7056,-1293.4722"/>
<text text-anchor="middle" x="370.042" y="-1299.4722" font-family="Helvetica,sans-Serif" font-size="10.00" fill="#000000">FundTransaction</text>
</a>
</g>
</g>
<!-- Node9&#45;&gt;Node29 -->
<g id="edge102" class="edge">
<title>Node9&#45;&gt;Node29</title>
<path fill="none" stroke="#191970" d="M43.9992,-853.8861C48.1758,-927.4985 66.6984,-1188.1392 122.0049,-1245.4722 136.0392,-1260.0208 256.7562,-1282.8965 324.4614,-1294.7599"/>
<polygon fill="#191970" stroke="#191970" points="47.4853,-853.5331 43.4486,-843.7374 40.4955,-853.9124 47.4853,-853.5331"/>
</g>
<!-- Node30 -->
<g id="node21" class="node">
<title>Node30</title>
<g id="a_node21"><a xlink:href="server_8h.html#ab6e621702aaefd12b164609463e81150" target="_top" xlink:title="RPCTypeCheckObj">
<polygon fill="#ffffff" stroke="#000000" points="150.4351,-920.4722 150.4351,-938.4722 253.1392,-938.4722 253.1392,-920.4722 150.4351,-920.4722"/>
<text text-anchor="middle" x="201.7871" y="-926.4722" font-family="Helvetica,sans-Serif" font-size="10.00" fill="#000000">RPCTypeCheckObj</text>
</a>
</g>
</g>
<!-- Node9&#45;&gt;Node30 -->
<g id="edge28" class="edge">
<title>Node9&#45;&gt;Node30</title>
<path fill="none" stroke="#191970" d="M57.5957,-851.3241C72.3466,-867.3777 96.5442,-891.1585 122.0049,-905.4722 133.4785,-911.9226 146.8762,-916.8197 159.3803,-920.4528"/>
<polygon fill="#191970" stroke="#191970" points="60.0662,-848.8365 50.7863,-843.7244 54.8529,-853.5078 60.0662,-848.8365"/>
</g>
<!-- Node31 -->
<g id="node22" class="node">
<title>Node31</title>
<g id="a_node22"><a xlink:href="server_8h.html#abee2131e97f3e3d0ab3bdc47916e29f4" target="_top" xlink:title="AmountFromValue">
<polygon fill="#ffffff" stroke="#000000" points="152.4712,-957.4722 152.4712,-975.4722 251.103,-975.4722 251.103,-957.4722 152.4712,-957.4722"/>
<text text-anchor="middle" x="201.7871" y="-963.4722" font-family="Helvetica,sans-Serif" font-size="10.00" fill="#000000">AmountFromValue</text>
</a>
</g>
</g>
<!-- Node9&#45;&gt;Node31 -->
<g id="edge31" class="edge">
<title>Node9&#45;&gt;Node31</title>
<path fill="none" stroke="#191970" d="M50.5579,-852.9177C62.0417,-878.5389 86.3857,-924.4505 122.0049,-948.4722 130.9518,-954.5061 141.6181,-958.5437 152.1943,-961.2387"/>
<polygon fill="#191970" stroke="#191970" points="53.7139,-851.397 46.5478,-843.5934 47.2834,-854.1626 53.7139,-851.397"/>
</g>
<!-- Node32 -->
<g id="node23" class="node">
<title>Node32</title>
<g id="a_node23"><a xlink:href="server_8h.html#adb231eaeb57d26011655ee8aaa5315e2" target="_top" xlink:title="Utilities: convert hex&#45;encoded Values (throws error if not hex). ">
<polygon fill="#ffffff" stroke="#000000" points="165.7183,-1185.4722 165.7183,-1203.4722 237.856,-1203.4722 237.856,-1185.4722 165.7183,-1185.4722"/>
<text text-anchor="middle" x="201.7871" y="-1191.4722" font-family="Helvetica,sans-Serif" font-size="10.00" fill="#000000">ParseHashV</text>
</a>
</g>
</g>
<!-- Node9&#45;&gt;Node32 -->
<g id="edge32" class="edge">
<title>Node9&#45;&gt;Node32</title>
<path fill="none" stroke="#191970" d="M45.0255,-853.8559C52.1182,-918.2358 77.8481,-1123.5232 122.0049,-1170.4722 133.2028,-1182.3782 150.0598,-1188.4496 165.3981,-1191.5175"/>
<polygon fill="#191970" stroke="#191970" points="48.4659,-853.1135 43.9177,-843.5445 41.506,-853.8612 48.4659,-853.1135"/>
</g>
<!-- Node35 -->
<g id="node26" class="node">
<title>Node35</title>
<g id="a_node26"><a xlink:href="rpcwallet_8cpp.html#a85478b0b9837a3e5467dce66fcb5ffb0" target="_top" xlink:title="removeprunedfunds">
<polygon fill="#ffffff" stroke="#000000" points="317.5693,-1030.4722 317.5693,-1048.4722 422.5146,-1048.4722 422.5146,-1030.4722 317.5693,-1030.4722"/>
<text text-anchor="middle" x="370.042" y="-1036.4722" font-family="Helvetica,sans-Serif" font-size="10.00" fill="#000000">removeprunedfunds</text>
</a>
</g>
</g>
<!-- Node9&#45;&gt;Node35 -->
<g id="edge48" class="edge">
<title>Node9&#45;&gt;Node35</title>
<path fill="none" stroke="#191970" d="M46.0076,-853.6588C54.9195,-907.8133 83.032,-1059.7796 122.0049,-1088.4722 179.1144,-1130.5175 212.9075,-1106.2163 281.5693,-1088.4722 311.4889,-1080.7402 342.0862,-1060.4795 358.2877,-1048.5717"/>
<polygon fill="#191970" stroke="#191970" points="49.4442,-852.9842 44.4004,-843.667 42.533,-854.0959 49.4442,-852.9842"/>
</g>
<!-- Node36 -->
<g id="node27" class="node">
<title>Node36</title>
<g id="a_node27"><a xlink:href="server_8h.html#a250d292e8ce3793abe154667a8297d08" target="_top" xlink:title="ParseHexV">
<polygon fill="#ffffff" stroke="#000000" points="168.499,-163.4722 168.499,-181.4722 235.0752,-181.4722 235.0752,-163.4722 168.499,-163.4722"/>
<text text-anchor="middle" x="201.7871" y="-169.4722" font-family="Helvetica,sans-Serif" font-size="10.00" fill="#000000">ParseHexV</text>
</a>
</g>
</g>
<!-- Node9&#45;&gt;Node36 -->
<g id="edge38" class="edge">
<title>Node9&#45;&gt;Node36</title>
<path fill="none" stroke="#191970" d="M44.1419,-815.2636C50.3094,-714.0202 80.9409,-245.1367 122.0049,-196.4722 133.385,-182.9857 152.038,-176.9029 168.4472,-174.23"/>
<polygon fill="#191970" stroke="#191970" points="40.6459,-815.0937 43.5386,-825.286 47.6332,-815.5144 40.6459,-815.0937"/>
</g>
<!-- Node38 -->
<g id="node29" class="node">
<title>Node38</title>
<g id="a_node29"><a xlink:href="class_j_s_o_n_r_p_c_request.html#a9ef1fae13a78674369efe21a5861426e" target="_top" xlink:title="JSONRPCRequest::parse">
<polygon fill="#ffffff" stroke="#000000" points="135.9868,-806.4722 135.9868,-824.4722 267.5874,-824.4722 267.5874,-806.4722 135.9868,-806.4722"/>
<text text-anchor="middle" x="201.7871" y="-812.4722" font-family="Helvetica,sans-Serif" font-size="10.00" fill="#000000">JSONRPCRequest::parse</text>
</a>
</g>
</g>
<!-- Node9&#45;&gt;Node38 -->
<g id="edge41" class="edge">
<title>Node9&#45;&gt;Node38</title>
<path fill="none" stroke="#191970" d="M96.6844,-828.0487C109.2461,-826.5456 122.7705,-824.9273 135.7989,-823.3683"/>
<polygon fill="#191970" stroke="#191970" points="95.9043,-824.617 86.391,-829.2804 96.7361,-831.5674 95.9043,-824.617"/>
</g>
<!-- Node39 -->
<g id="node30" class="node">
<title>Node39</title>
<g id="a_node30"><a xlink:href="rpc_2util_8h.html#ac18ea86a874bf7841b716eca2b467746" target="_top" xlink:title="HexToPubKey">
<polygon fill="#ffffff" stroke="#000000" points="162.1025,-769.4722 162.1025,-787.4722 241.4717,-787.4722 241.4717,-769.4722 162.1025,-769.4722"/>
<text text-anchor="middle" x="201.7871" y="-775.4722" font-family="Helvetica,sans-Serif" font-size="10.00" fill="#000000">HexToPubKey</text>
</a>
</g>
</g>
<!-- Node9&#45;&gt;Node39 -->
<g id="edge42" class="edge">
<title>Node9&#45;&gt;Node39</title>
<path fill="none" stroke="#191970" d="M69.0801,-820.6118C84.2143,-812.9893 103.8239,-803.8197 122.0049,-797.4722 134.7755,-793.0137 149.0548,-789.2477 161.9643,-786.2743"/>
<polygon fill="#191970" stroke="#191970" points="67.1405,-817.6731 59.841,-825.3522 70.336,-823.9011 67.1405,-817.6731"/>
</g>
<!-- Node40 -->
<g id="node31" class="node">
<title>Node40</title>
<g id="a_node31"><a xlink:href="rpc_2util_8h.html#ad97eb14e556166df34392ec8eb8d3167" target="_top" xlink:title="AddrToPubKey">
<polygon fill="#ffffff" stroke="#000000" points="160.4326,-732.4722 160.4326,-750.4722 243.1416,-750.4722 243.1416,-732.4722 160.4326,-732.4722"/>
<text text-anchor="middle" x="201.7871" y="-738.4722" font-family="Helvetica,sans-Serif" font-size="10.00" fill="#000000">AddrToPubKey</text>
</a>
</g>
</g>
<!-- Node9&#45;&gt;Node40 -->
<g id="edge43" class="edge">
<title>Node9&#45;&gt;Node40</title>
<path fill="none" stroke="#191970" d="M56.5711,-817.3651C70.995,-800.3564 95.3641,-774.7937 122.0049,-760.4722 133.6682,-754.2023 147.3865,-749.9804 160.1275,-747.146"/>
<polygon fill="#191970" stroke="#191970" points="53.6302,-815.4305 49.9755,-825.375 59.034,-819.8802 53.6302,-815.4305"/>
</g>
<!-- Node41 -->
<g id="node32" class="node">
<title>Node41</title>
<g id="a_node32"><a xlink:href="rpc_2util_8h.html#a804d6824bed98b30dc92d53b40d776c9" target="_top" xlink:title="CreateMultisigRedeemscript">
<polygon fill="#ffffff" stroke="#000000" points="130.9868,-695.4722 130.9868,-713.4722 272.5874,-713.4722 272.5874,-695.4722 130.9868,-695.4722"/>
<text text-anchor="middle" x="201.7871" y="-701.4722" font-family="Helvetica,sans-Serif" font-size="10.00" fill="#000000">CreateMultisigRedeemscript</text>
</a>
</g>
</g>
<!-- Node9&#45;&gt;Node41 -->
<g id="edge44" class="edge">
<title>Node9&#45;&gt;Node41</title>
<path fill="none" stroke="#191970" d="M51.0607,-815.8631C62.8798,-790.8512 87.3357,-746.8369 122.0049,-723.4722 128.1447,-719.3344 135.082,-716.0936 142.2395,-713.5562"/>
<polygon fill="#191970" stroke="#191970" points="47.7219,-814.7509 46.7761,-825.3035 54.0961,-817.644 47.7219,-814.7509"/>
</g>
<!-- Node42 -->
<g id="node33" class="node">
<title>Node42</title>
<g id="a_node33"><a xlink:href="rpcwallet_8cpp.html#a2f46e2bb304dda9a197b5a68db6106f7" target="_top" xlink:title="importprivkey">
<polygon fill="#ffffff" stroke="#000000" points="332.313,-389.4722 332.313,-407.4722 407.771,-407.4722 407.771,-389.4722 332.313,-389.4722"/>
<text text-anchor="middle" x="370.042" y="-395.4722" font-family="Helvetica,sans-Serif" font-size="10.00" fill="#000000">importprivkey</text>
</a>
</g>
</g>
<!-- Node9&#45;&gt;Node42 -->
<g id="edge45" class="edge">
<title>Node9&#45;&gt;Node42</title>
<path fill="none" stroke="#191970" d="M44.3894,-814.9175C49.7361,-745.1096 71.297,-509.566 122.0049,-457.4722 136.6894,-442.3863 266.537,-417.1377 332.2674,-405.1634"/>
<polygon fill="#191970" stroke="#191970" points="40.8686,-815.0704 43.6217,-825.3012 47.8495,-815.5865 40.8686,-815.0704"/>
</g>
<!-- Node43 -->
<g id="node34" class="node">
<title>Node43</title>
<g id="a_node34"><a xlink:href="rpcwallet_8cpp.html#aba44e0021b6111a1f0a8c54bbff34130" target="_top" xlink:title="importaddress">
<polygon fill="#ffffff" stroke="#000000" points="330.3623,-917.4722 330.3623,-935.4722 409.7217,-935.4722 409.7217,-917.4722 330.3623,-917.4722"/>
<text text-anchor="middle" x="370.042" y="-923.4722" font-family="Helvetica,sans-Serif" font-size="10.00" fill="#000000">importaddress</text>
</a>
</g>
</g>
<!-- Node9&#45;&gt;Node43 -->
<g id="edge46" class="edge">
<title>Node9&#45;&gt;Node43</title>
<path fill="none" stroke="#191970" d="M46.5084,-853.8307C53.783,-887.596 74.0252,-956.4252 122.0049,-985.4722 182.6711,-1022.1997 213.6962,-1006.0279 281.5693,-985.4722 314.0811,-975.6259 345.5623,-949.4542 360.6988,-935.5115"/>
<polygon fill="#191970" stroke="#191970" points="49.9031,-852.956 44.5172,-843.8322 43.0379,-854.3233 49.9031,-852.956"/>
</g>
<!-- Node44 -->
<g id="node35" class="node">
<title>Node44</title>
<g id="a_node35"><a xlink:href="rpcwallet_8cpp.html#a4b35e53468d94704834a928013d7e716" target="_top" xlink:title="importprunedfunds">
<polygon fill="#ffffff" stroke="#000000" points="320.3501,-804.4722 320.3501,-822.4722 419.7339,-822.4722 419.7339,-804.4722 320.3501,-804.4722"/>
<text text-anchor="middle" x="370.042" y="-810.4722" font-family="Helvetica,sans-Serif" font-size="10.00" fill="#000000">importprunedfunds</text>
</a>
</g>
</g>
<!-- Node9&#45;&gt;Node44 -->
<g id="edge47" class="edge">
<title>Node9&#45;&gt;Node44</title>
<path fill="none" stroke="#191970" d="M46.6354,-815.484C54.1093,-782.3671 74.6539,-714.8711 122.0049,-686.4722 182.8228,-649.9965 223.7391,-645.424 281.5693,-686.4722 321.1136,-714.541 284.9055,-753.6298 317.5693,-789.4722 323.5071,-795.9879 331.5631,-800.86 339.5793,-804.4485"/>
<polygon fill="#191970" stroke="#191970" points="43.2058,-814.7858 44.5821,-825.2909 50.0572,-816.2204 43.2058,-814.7858"/>
</g>
<!-- Node45 -->
<g id="node36" class="node">
<title>Node45</title>
<g id="a_node36"><a xlink:href="rpcwallet_8cpp.html#a1e79cb342ad4f0bf7b02a2b1e18af7ff" target="_top" xlink:title="importpubkey">
<polygon fill="#ffffff" stroke="#000000" points="332.0273,-880.4722 332.0273,-898.4722 408.0566,-898.4722 408.0566,-880.4722 332.0273,-880.4722"/>
<text text-anchor="middle" x="370.042" y="-886.4722" font-family="Helvetica,sans-Serif" font-size="10.00" fill="#000000">importpubkey</text>
</a>
</g>
</g>
<!-- Node9&#45;&gt;Node45 -->
<g id="edge49" class="edge">
<title>Node9&#45;&gt;Node45</title>
<path fill="none" stroke="#191970" d="M96.3136,-843.4379C162.4969,-854.5683 273.7391,-873.2765 331.9396,-883.0644"/>
<polygon fill="#191970" stroke="#191970" points="96.5355,-839.9261 86.0935,-841.7191 95.3745,-846.8292 96.5355,-839.9261"/>
</g>
<!-- Node46 -->
<g id="node37" class="node">
<title>Node46</title>
<g id="a_node37"><a xlink:href="wallet__tests_8cpp.html#a8c64ef6e0ced69002923098229448758" target="_top" xlink:title="importwallet">
<polygon fill="#ffffff" stroke="#000000" points="335.3672,-315.4722 335.3672,-333.4722 404.7168,-333.4722 404.7168,-315.4722 335.3672,-315.4722"/>
<text text-anchor="middle" x="370.042" y="-321.4722" font-family="Helvetica,sans-Serif" font-size="10.00" fill="#000000">importwallet</text>
</a>
</g>
</g>
<!-- Node9&#45;&gt;Node46 -->
<g id="edge50" class="edge">
<title>Node9&#45;&gt;Node46</title>
<path fill="none" stroke="#191970" d="M43.5521,-814.8871C46.182,-735.7374 60.0575,-440.6806 122.0049,-376.4722 129.4321,-368.774 268.7513,-342.7568 335.2612,-330.7006"/>
<polygon fill="#191970" stroke="#191970" points="40.0407,-815.206 43.231,-825.3091 47.0374,-815.4216 40.0407,-815.206"/>
</g>
<!-- Node47 -->
<g id="node38" class="node">
<title>Node47</title>
<g id="a_node38"><a xlink:href="rpcwallet_8cpp.html#ab3f51d8e8fe414dbf91c37485e481ae3" target="_top" xlink:title="dumpprivkey">
<polygon fill="#ffffff" stroke="#000000" points="333.6973,-241.4722 333.6973,-259.4722 406.3867,-259.4722 406.3867,-241.4722 333.6973,-241.4722"/>
<text text-anchor="middle" x="370.042" y="-247.4722" font-family="Helvetica,sans-Serif" font-size="10.00" fill="#000000">dumpprivkey</text>
</a>
</g>
</g>
<!-- Node9&#45;&gt;Node47 -->
<g id="edge51" class="edge">
<title>Node9&#45;&gt;Node47</title>
<path fill="none" stroke="#191970" d="M44.2637,-815.2126C50.6606,-720.3563 80.8322,-305.8587 122.0049,-267.4722 180.8836,-212.5779 285.6162,-228.6438 338.1431,-241.413"/>
<polygon fill="#191970" stroke="#191970" points="40.7601,-815.1527 43.5883,-825.3631 47.7446,-815.6176 40.7601,-815.1527"/>
</g>
<!-- Node48 -->
<g id="node39" class="node">
<title>Node48</title>
<g id="a_node39"><a xlink:href="wallet__tests_8cpp.html#a73ce3a42e0b56b2e4516e55871d8590e" target="_top" xlink:title="dumpwallet">
<polygon fill="#ffffff" stroke="#000000" points="336.7515,-278.4722 336.7515,-296.4722 403.3325,-296.4722 403.3325,-278.4722 336.7515,-278.4722"/>
<text text-anchor="middle" x="370.042" y="-284.4722" font-family="Helvetica,sans-Serif" font-size="10.00" fill="#000000">dumpwallet</text>
</a>
</g>
</g>
<!-- Node9&#45;&gt;Node48 -->
<g id="edge52" class="edge">
<title>Node9&#45;&gt;Node48</title>
<path fill="none" stroke="#191970" d="M43.2572,-815.1327C44.7549,-732.3245 54.8808,-408.6754 122.0049,-338.4722 123.8729,-336.5185 269.3792,-307.4434 336.6327,-294.0894"/>
<polygon fill="#191970" stroke="#191970" points="39.7542,-815.3024 43.0956,-825.3565 46.7533,-815.4131 39.7542,-815.3024"/>
</g>
<!-- Node49 -->
<g id="node40" class="node">
<title>Node49</title>
<g id="a_node40"><a xlink:href="rpcwallet_8h.html#a13cf9bdc928d8ca0b67e34791da05ddc" target="_top" xlink:title="Figures out what wallet, if any, to use for a JSONRPCRequest. ">
<polygon fill="#ffffff" stroke="#000000" points="122.0049,-467.4722 122.0049,-485.4722 281.5693,-485.4722 281.5693,-467.4722 122.0049,-467.4722"/>
<text text-anchor="middle" x="201.7871" y="-473.4722" font-family="Helvetica,sans-Serif" font-size="10.00" fill="#000000">GetWalletForJSONRPCRequest</text>
</a>
</g>
</g>
<!-- Node9&#45;&gt;Node49 -->
<g id="edge54" class="edge">
<title>Node9&#45;&gt;Node49</title>
<path fill="none" stroke="#191970" d="M45.0421,-815.2028C52.1878,-751.2026 78.066,-547.1272 122.0049,-500.4722 128.2524,-493.8386 136.2567,-489.0164 144.7748,-485.5159"/>
<polygon fill="#191970" stroke="#191970" points="41.5291,-815.1332 43.9257,-825.4534 48.488,-815.8911 41.5291,-815.1332"/>
</g>
<!-- Node51 -->
<g id="node42" class="node">
<title>Node51</title>
<g id="a_node42"><a xlink:href="rpcwallet_8cpp.html#a74b85c92ee6a84277c73b74f2e212bff" target="_top" xlink:title="listtransactions">
<polygon fill="#ffffff" stroke="#000000" points="328.9731,-616.4722 328.9731,-634.4722 411.1108,-634.4722 411.1108,-616.4722 328.9731,-616.4722"/>
<text text-anchor="middle" x="370.042" y="-622.4722" font-family="Helvetica,sans-Serif" font-size="10.00" fill="#000000">listtransactions</text>
</a>
</g>
</g>
<!-- Node9&#45;&gt;Node51 -->
<g id="edge101" class="edge">
<title>Node9&#45;&gt;Node51</title>
<path fill="none" stroke="#191970" d="M46.0076,-815.2857C54.9195,-761.1311 83.032,-609.1649 122.0049,-580.4722 179.1144,-538.427 214.2911,-558.0461 281.5693,-580.4722 300.543,-586.7968 299.8943,-598.1131 317.5693,-607.4722 324.1231,-610.9425 331.4815,-613.9537 338.5676,-616.4679"/>
<polygon fill="#191970" stroke="#191970" points="42.533,-814.8485 44.4004,-825.2775 49.4442,-815.9603 42.533,-814.8485"/>
</g>
<!-- Node52 -->
<g id="node43" class="node">
<title>Node52</title>
<g id="a_node43"><a xlink:href="rpcwallet_8cpp.html#a151535abf7394b299deb8d0a333de70b" target="_top" xlink:title="rescanblockchain">
<polygon fill="#ffffff" stroke="#000000" points="323.4092,-579.4722 323.4092,-597.4722 416.6748,-597.4722 416.6748,-579.4722 323.4092,-579.4722"/>
<text text-anchor="middle" x="370.042" y="-585.4722" font-family="Helvetica,sans-Serif" font-size="10.00" fill="#000000">rescanblockchain</text>
</a>
</g>
</g>
<!-- Node9&#45;&gt;Node52 -->
<g id="edge105" class="edge">
<title>Node9&#45;&gt;Node52</title>
<path fill="none" stroke="#191970" d="M45.3478,-815.446C52.9369,-757.3492 78.8665,-584.2175 122.0049,-551.4722 178.4919,-508.5944 212.0381,-537.5185 281.5693,-551.4722 295.2811,-554.2239 329.0981,-569.2986 350.7272,-579.3373"/>
<polygon fill="#191970" stroke="#191970" points="41.8644,-815.0942 44.0748,-825.4559 48.8085,-815.9774 41.8644,-815.0942"/>
</g>
<!-- Node53 -->
<g id="node44" class="node">
<title>Node53</title>
<g id="a_node44"><a xlink:href="rpcwallet_8h.html#a3f008088e017b871e32cfae02b622bc8" target="_top" xlink:title="getaddressinfo">
<polygon fill="#ffffff" stroke="#000000" points="329.2417,-653.4722 329.2417,-671.4722 410.8423,-671.4722 410.8423,-653.4722 329.2417,-653.4722"/>
<text text-anchor="middle" x="370.042" y="-659.4722" font-family="Helvetica,sans-Serif" font-size="10.00" fill="#000000">getaddressinfo</text>
</a>
</g>
</g>
<!-- Node9&#45;&gt;Node53 -->
<g id="edge106" class="edge">
<title>Node9&#45;&gt;Node53</title>
<path fill="none" stroke="#191970" d="M46.8351,-815.288C57.1833,-765.6334 87.2637,-635.0579 122.0049,-610.4722 179.8931,-569.5057 215.6692,-584.2717 281.5693,-610.4722 302.0201,-618.603 298.7344,-633.0885 317.5693,-644.4722 323.4215,-648.0092 330.0637,-650.9689 336.6075,-653.3993"/>
<polygon fill="#191970" stroke="#191970" points="43.356,-814.8318 44.7832,-825.3301 50.2143,-816.2332 43.356,-814.8318"/>
</g>
<!-- Node54 -->
<g id="node45" class="node">
<title>Node54</title>
<g id="a_node45"><a xlink:href="rpcwallet_8cpp.html#a61c7a90d1b36888fe11b751e746e18c0" target="_top" xlink:title="sethdseed">
<polygon fill="#ffffff" stroke="#000000" points="338.9683,-352.4722 338.9683,-370.4722 401.1157,-370.4722 401.1157,-352.4722 338.9683,-352.4722"/>
<text text-anchor="middle" x="370.042" y="-358.4722" font-family="Helvetica,sans-Serif" font-size="10.00" fill="#000000">sethdseed</text>
</a>
</g>
</g>
<!-- Node9&#45;&gt;Node54 -->
<g id="edge107" class="edge">
<title>Node9&#45;&gt;Node54</title>
<path fill="none" stroke="#191970" d="M43.8817,-815.0968C47.6697,-740.4587 65.0744,-472.8198 122.0049,-414.4722 129.6159,-406.6717 273.8308,-379.2327 338.7875,-367.1998"/>
<polygon fill="#191970" stroke="#191970" points="40.3728,-815.2 43.3867,-825.3571 47.3646,-815.5374 40.3728,-815.2"/>
</g>
<!-- Node55 -->
<g id="node46" class="node">
<title>Node55</title>
<g id="a_node46"><a xlink:href="rpcwallet_8h.html#a2fb6c6dc387554e482ce3284dd9faec8" target="_top" xlink:title="EnsureWalletIsAvailable">
<polygon fill="#ffffff" stroke="#000000" points="140.1445,-619.4722 140.1445,-637.4722 263.4297,-637.4722 263.4297,-619.4722 140.1445,-619.4722"/>
<text text-anchor="middle" x="201.7871" y="-625.4722" font-family="Helvetica,sans-Serif" font-size="10.00" fill="#000000">EnsureWalletIsAvailable</text>
</a>
</g>
</g>
<!-- Node9&#45;&gt;Node55 -->
<g id="edge73" class="edge">
<title>Node9&#45;&gt;Node55</title>
<path fill="none" stroke="#191970" d="M45.878,-815.3947C52.4577,-778.445 72.0797,-696.8584 122.0049,-652.4722 129.4636,-645.841 138.6976,-641.0409 148.208,-637.5665"/>
<polygon fill="#191970" stroke="#191970" points="42.4121,-814.9015 44.2356,-825.3382 49.3186,-816.0423 42.4121,-814.9015"/>
</g>
<!-- Node56 -->
<g id="node47" class="node">
<title>Node56</title>
<g id="a_node47"><a xlink:href="rpcwallet_8h.html#aae9bc665151c5bab626a7ffcaeed9c0d" target="_top" xlink:title="EnsureWalletIsUnlocked">
<polygon fill="#ffffff" stroke="#000000" points="139.5024,-277.4722 139.5024,-295.4722 264.0718,-295.4722 264.0718,-277.4722 139.5024,-277.4722"/>
<text text-anchor="middle" x="201.7871" y="-283.4722" font-family="Helvetica,sans-Serif" font-size="10.00" fill="#000000">EnsureWalletIsUnlocked</text>
</a>
</g>
</g>
<!-- Node9&#45;&gt;Node56 -->
<g id="edge92" class="edge">
<title>Node9&#45;&gt;Node56</title>
<path fill="none" stroke="#191970" d="M43.2391,-815.2849C44.6721,-730.2596 54.604,-388.2387 122.0049,-310.4722 127.6889,-303.9141 135.0911,-299.1117 143.0938,-295.6024"/>
<polygon fill="#191970" stroke="#191970" points="39.7389,-815.2792 43.0906,-825.3299 46.7381,-815.3828 39.7389,-815.2792"/>
</g>
<!-- Node57 -->
<g id="node48" class="node">
<title>Node57</title>
<g id="a_node48"><a xlink:href="rpcwallet_8cpp.html#a82b2a40e1b15b128aa95486251077884" target="_top" xlink:title="if">
<polygon fill="#ffffff" stroke="#000000" points="187.2871,-126.4722 187.2871,-144.4722 216.2871,-144.4722 216.2871,-126.4722 187.2871,-126.4722"/>
<text text-anchor="middle" x="201.7871" y="-132.4722" font-family="Helvetica,sans-Serif" font-size="10.00" fill="#000000">if</text>
</a>
</g>
</g>
<!-- Node9&#45;&gt;Node57 -->
<g id="edge100" class="edge">
<title>Node9&#45;&gt;Node57</title>
<path fill="none" stroke="#191970" d="M43.939,-814.9223C49.199,-708.729 76.4692,-204.1306 122.0049,-153.4722 138.4265,-135.2033 169.0882,-133.4057 187.2443,-134.1605"/>
<polygon fill="#191970" stroke="#191970" points="40.432,-814.9817 43.4404,-825.1405 47.4237,-815.3229 40.432,-814.9817"/>
</g>
<!-- Node58 -->
<g id="node49" class="node">
<title>Node58</title>
<g id="a_node49"><a xlink:href="rpcwallet_8cpp.html#a614a0b6d4fe51abf85bdb57475cb9d48" target="_top" xlink:title="AddKeypathToMap">
<polygon fill="#ffffff" stroke="#000000" points="151.5361,-89.4722 151.5361,-107.4722 252.0381,-107.4722 252.0381,-89.4722 151.5361,-89.4722"/>
<text text-anchor="middle" x="201.7871" y="-95.4722" font-family="Helvetica,sans-Serif" font-size="10.00" fill="#000000">AddKeypathToMap</text>
</a>
</g>
</g>
<!-- Node9&#45;&gt;Node58 -->
<g id="edge108" class="edge">
<title>Node9&#45;&gt;Node58</title>
<path fill="none" stroke="#191970" d="M43.8174,-814.8993C48.557,-705.244 74.0356,-170.1557 122.0049,-116.4722 129.5737,-108.0018 140.2032,-103.0676 151.2414,-100.2866"/>
<polygon fill="#191970" stroke="#191970" points="40.3098,-815.0079 43.3819,-825.1476 47.3034,-815.3053 40.3098,-815.0079"/>
</g>
<!-- Node59 -->
<g id="node50" class="node">
<title>Node59</title>
<g id="a_node50"><a xlink:href="rpcwallet_8h.html#ab2cdd07070dae2e6b1a2ea36a619b233" target="_top" xlink:title="FillPSBT">
<polygon fill="#ffffff" stroke="#000000" points="342.5962,-1256.4722 342.5962,-1274.4722 397.4878,-1274.4722 397.4878,-1256.4722 342.5962,-1256.4722"/>
<text text-anchor="middle" x="370.042" y="-1262.4722" font-family="Helvetica,sans-Serif" font-size="10.00" fill="#000000">FillPSBT</text>
</a>
</g>
</g>
<!-- Node9&#45;&gt;Node59 -->
<g id="edge109" class="edge">
<title>Node9&#45;&gt;Node59</title>
<path fill="none" stroke="#191970" d="M44.2945,-853.7428C49.3698,-923.5308 70.2611,-1161.6691 122.0049,-1213.4722 137.5905,-1229.0758 280.9105,-1252.135 342.3205,-1261.4"/>
<polygon fill="#191970" stroke="#191970" points="47.7822,-853.4446 43.5913,-843.714 40.7994,-853.9343 47.7822,-853.4446"/>
</g>
<!-- Node11&#45;&gt;Node12 -->
<g id="edge3" class="edge">
<title>Node11&#45;&gt;Node12</title>
<path fill="none" stroke="#191970" d="M249.7955,-1031.059C279.7126,-1023.9467 317.152,-1015.046 342.236,-1009.0827"/>
<polygon fill="#191970" stroke="#191970" points="248.8861,-1027.6776 239.9667,-1033.3956 250.5051,-1034.4878 248.8861,-1027.6776"/>
</g>
<!-- Node15 -->
<g id="node7" class="node">
<title>Node15</title>
<g id="a_node7"><a xlink:href="rawtransaction_8cpp.html#ab96b0b3cf82a8f50975ee74c26c4dbf8" target="_top" xlink:title="createpsbt">
<polygon fill="#ffffff" stroke="#000000" points="645.2021,-1317.4722 645.2021,-1335.4722 707.8965,-1335.4722 707.8965,-1317.4722 645.2021,-1317.4722"/>
<text text-anchor="middle" x="676.5493" y="-1323.4722" font-family="Helvetica,sans-Serif" font-size="10.00" fill="#000000">createpsbt</text>
</a>
</g>
</g>
<!-- Node14&#45;&gt;Node15 -->
<g id="edge6" class="edge">
<title>Node14&#45;&gt;Node15</title>
<path fill="none" stroke="#191970" d="M549.4573,-1281.9466C579.9946,-1292.6451 623.2731,-1307.8073 650.621,-1317.3885"/>
<polygon fill="#191970" stroke="#191970" points="550.2259,-1278.5073 539.6311,-1278.5041 547.9114,-1285.1136 550.2259,-1278.5073"/>
</g>
<!-- Node16 -->
<g id="node8" class="node">
<title>Node16</title>
<g id="a_node8"><a xlink:href="rpcwallet_8cpp.html#afca55ac7a3c6c274b8b7b3e6eab9cd86" target="_top" xlink:title="walletcreatefundedpsbt">
<polygon fill="#ffffff" stroke="#000000" points="617.126,-1203.4722 617.126,-1221.4722 735.9727,-1221.4722 735.9727,-1203.4722 617.126,-1203.4722"/>
<text text-anchor="middle" x="676.5493" y="-1209.4722" font-family="Helvetica,sans-Serif" font-size="10.00" fill="#000000">walletcreatefundedpsbt</text>
</a>
</g>
</g>
<!-- Node14&#45;&gt;Node16 -->
<g id="edge7" class="edge">
<title>Node14&#45;&gt;Node16</title>
<path fill="none" stroke="#191970" d="M549.4573,-1256.9979C579.9946,-1246.2994 623.2731,-1231.1371 650.621,-1221.556"/>
<polygon fill="#191970" stroke="#191970" points="547.9114,-1253.8308 539.6311,-1260.4404 550.2259,-1260.4371 547.9114,-1253.8308"/>
</g>
<!-- Node17&#45;&gt;Node18 -->
<g id="edge9" class="edge">
<title>Node17&#45;&gt;Node18</title>
<path fill="none" stroke="#191970" d="M551.9753,-149.8299C558.0476,-152.8312 564.022,-156.3686 569.1875,-160.4722 620.2008,-200.9989 659.193,-271.3924 672.0217,-296.3652"/>
<polygon fill="#191970" stroke="#191970" points="553.0105,-146.458 542.4546,-145.5505 550.1407,-152.8427 553.0105,-146.458"/>
</g>
<!-- Node25 -->
<g id="node17" class="node">
<title>Node25</title>
<g id="a_node17"><a xlink:href="server_8h.html#a6671e87353f4ee4fbcc82275d75bb96a" target="_top" xlink:title="Type&#45;check arguments; throws JSONRPCError if wrong type given. ">
<polygon fill="#ffffff" stroke="#ff0000" points="326.4707,-1374.4722 326.4707,-1392.4722 413.6133,-1392.4722 413.6133,-1374.4722 326.4707,-1374.4722"/>
<text text-anchor="middle" x="370.042" y="-1380.4722" font-family="Helvetica,sans-Serif" font-size="10.00" fill="#000000">RPCTypeCheck</text>
</a>
</g>
</g>
<!-- Node24&#45;&gt;Node25 -->
<g id="edge16" class="edge">
<title>Node24&#45;&gt;Node25</title>
<path fill="none" stroke="#191970" d="M260.8052,-1320.1841C267.9158,-1322.2776 274.9849,-1324.6957 281.5693,-1327.4722 311.2167,-1339.9737 342.161,-1361.9584 358.4361,-1374.3365"/>
<polygon fill="#191970" stroke="#191970" points="261.6945,-1316.7988 251.1247,-1317.5273 259.8418,-1323.5492 261.6945,-1316.7988"/>
</g>
<!-- Node24&#45;&gt;Node29 -->
<g id="edge26" class="edge">
<title>Node24&#45;&gt;Node29</title>
<path fill="none" stroke="#191970" d="M277.3155,-1305.7789C293.4917,-1305.202 310.0965,-1304.6099 324.7037,-1304.089"/>
<polygon fill="#191970" stroke="#191970" points="277.1895,-1302.281 267.3206,-1306.1353 277.439,-1309.2766 277.1895,-1302.281"/>
</g>
<!-- Node25&#45;&gt;Node15 -->
<g id="edge20" class="edge">
<title>Node25&#45;&gt;Node15</title>
<path fill="none" stroke="#191970" d="M424.0667,-1379.5828C464.3686,-1376.0492 520.6139,-1369.7782 569.1875,-1359.4722 597.9911,-1353.3609 630.1683,-1342.9778 651.7181,-1335.4886"/>
<polygon fill="#191970" stroke="#191970" points="423.588,-1376.1108 413.92,-1380.4442 424.1802,-1383.0857 423.588,-1376.1108"/>
</g>
<!-- Node25&#45;&gt;Node16 -->
<g id="edge25" class="edge">
<title>Node25&#45;&gt;Node16</title>
<path fill="none" stroke="#191970" d="M411.7701,-1371.6577C466.0369,-1356.1127 555.5431,-1329.7888 569.1875,-1321.4722 614.7755,-1293.6852 654.9615,-1242.3372 670.1246,-1221.5562"/>
<polygon fill="#191970" stroke="#191970" points="410.7274,-1368.3155 402.0737,-1374.4281 412.6504,-1375.0462 410.7274,-1368.3155"/>
</g>
<!-- Node25&#45;&gt;Node18 -->
<g id="edge23" class="edge">
<title>Node25&#45;&gt;Node18</title>
<path fill="none" stroke="#191970" d="M404.0768,-1370.2256C410.4504,-1367.11 416.8753,-1363.5041 422.5146,-1359.4722 441.4397,-1345.9416 438.6945,-1333.6541 458.5146,-1321.4722 502.2435,-1294.5956 536.3217,-1327.8982 569.1875,-1288.4722 635.3485,-1209.1052 672.0216,-409.6433 676.1561,-314.6766"/>
<polygon fill="#191970" stroke="#191970" points="402.5132,-1367.0919 394.8728,-1374.4318 405.4228,-1373.4585 402.5132,-1367.0919"/>
</g>
<!-- Node25&#45;&gt;Node20 -->
<g id="edge17" class="edge">
<title>Node25&#45;&gt;Node20</title>
<path fill="none" stroke="#191970" d="M376.8462,-1402.007C389.0063,-1432.9492 417.1307,-1495.5607 458.5146,-1534.4722 467.1431,-1542.5852 478.5733,-1548.8957 488.8044,-1553.4549"/>
<polygon fill="#191970" stroke="#191970" points="380.0454,-1400.5731 373.2152,-1392.4738 373.5038,-1403.0647 380.0454,-1400.5731"/>
</g>
<!-- Node25&#45;&gt;Node21 -->
<g id="edge18" class="edge">
<title>Node25&#45;&gt;Node21</title>
<path fill="none" stroke="#191970" d="M384.0487,-1400.4288C400.719,-1420.0953 429.91,-1452.9495 458.5146,-1477.4722 471.2555,-1488.3949 487.1716,-1499.053 498.6596,-1506.2882"/>
<polygon fill="#191970" stroke="#191970" points="386.62,-1398.0481 377.5129,-1392.634 381.2561,-1402.5456 386.62,-1398.0481"/>
</g>
<!-- Node25&#45;&gt;Node22 -->
<g id="edge19" class="edge">
<title>Node25&#45;&gt;Node22</title>
<path fill="none" stroke="#191970" d="M390.2959,-1398.6804C407.6817,-1411.1946 433.7783,-1428.7236 458.5146,-1440.4722 465.7238,-1443.8963 473.7533,-1446.9212 481.4102,-1449.4672"/>
<polygon fill="#191970" stroke="#191970" points="392.1893,-1395.729 382.0516,-1392.6505 388.0568,-1401.379 392.1893,-1395.729"/>
</g>
<!-- Node25&#45;&gt;Node23 -->
<g id="edge21" class="edge">
<title>Node25&#45;&gt;Node23</title>
<path fill="none" stroke="#191970" d="M413.8175,-1395.0394C434.9051,-1400.6116 459.8247,-1407.1964 479.5166,-1412.3997"/>
<polygon fill="#191970" stroke="#191970" points="414.6851,-1391.6486 404.1227,-1392.4777 412.8967,-1398.4163 414.6851,-1391.6486"/>
</g>
<!-- Node25&#45;&gt;Node27 -->
<g id="edge22" class="edge">
<title>Node25&#45;&gt;Node27</title>
<path fill="none" stroke="#191970" d="M388.3771,-1366.9714C400.0389,-1355.403 414.4197,-1338.9357 422.5146,-1321.4722 434.4382,-1295.7493 502.0003,-853.433 512.4841,-784.4781"/>
<polygon fill="#191970" stroke="#191970" points="385.6707,-1364.7159 380.8485,-1374.1498 390.5012,-1369.7821 385.6707,-1364.7159"/>
</g>
<!-- Node25&#45;&gt;Node28 -->
<g id="edge24" class="edge">
<title>Node25&#45;&gt;Node28</title>
<path fill="none" stroke="#191970" d="M385.9065,-1366.8678C396.9395,-1354.8336 411.5721,-1337.8618 422.5146,-1321.4722 441.9403,-1292.3768 441.9108,-1282.2653 458.5146,-1251.4722 476.3194,-1218.452 498.5438,-1179.8371 508.5431,-1162.5934"/>
<polygon fill="#191970" stroke="#191970" points="383.1955,-1364.6429 378.933,-1374.3424 388.3139,-1369.4181 383.1955,-1364.6429"/>
</g>
<!-- Node29&#45;&gt;Node16 -->
<g id="edge27" class="edge">
<title>Node29&#45;&gt;Node16</title>
<path fill="none" stroke="#191970" d="M412.4769,-1289.6425C415.9559,-1288.0756 419.3478,-1286.3542 422.5146,-1284.4722 441.1735,-1273.3836 439.0607,-1261.0979 458.5146,-1251.4722 508.3178,-1226.83 571.3653,-1217.5809 616.8379,-1214.1986"/>
<polygon fill="#191970" stroke="#191970" points="411.1029,-1286.4228 403.1589,-1293.4331 413.7407,-1292.9068 411.1029,-1286.4228"/>
</g>
<!-- Node30&#45;&gt;Node17 -->
<g id="edge29" class="edge">
<title>Node30&#45;&gt;Node17</title>
<path fill="none" stroke="#191970" d="M262.83,-936.9562C269.7064,-939.7589 276.1683,-943.4993 281.5693,-948.4722 319.4122,-983.3153 275.921,-1028.2805 317.5693,-1058.4722 355.3329,-1085.8478 387.9461,-1089.7855 422.5146,-1058.4722 431.493,-1050.3394 504.5133,-240.4006 513.0396,-145.5138"/>
<polygon fill="#191970" stroke="#191970" points="263.8514,-933.6066 253.2569,-933.6878 261.5897,-940.2312 263.8514,-933.6066"/>
</g>
<!-- Node30&#45;&gt;Node29 -->
<g id="edge30" class="edge">
<title>Node30&#45;&gt;Node29</title>
<path fill="none" stroke="#191970" d="M263.0747,-935.5761C270.0916,-938.5777 276.524,-942.7413 281.5693,-948.4722 380.8119,-1061.1991 223.8888,-1167.0823 317.5693,-1284.4722 320.5129,-1288.1608 324.2521,-1291.0968 328.3744,-1293.4332"/>
<polygon fill="#191970" stroke="#191970" points="263.8139,-932.1284 253.2192,-932.1654 261.5246,-938.7434 263.8139,-932.1284"/>
</g>
<!-- Node33 -->
<g id="node24" class="node">
<title>Node33</title>
<g id="a_node24"><a xlink:href="blockchain_8cpp.html#a0d3ec9ae23b08828dd7ca646766ca637" target="_top" xlink:title="gettxout">
<polygon fill="#ffffff" stroke="#000000" points="344.2515,-1219.4722 344.2515,-1237.4722 395.8325,-1237.4722 395.8325,-1219.4722 344.2515,-1219.4722"/>
<text text-anchor="middle" x="370.042" y="-1225.4722" font-family="Helvetica,sans-Serif" font-size="10.00" fill="#000000">gettxout</text>
</a>
</g>
</g>
<!-- Node32&#45;&gt;Node33 -->
<g id="edge33" class="edge">
<title>Node32&#45;&gt;Node33</title>
<path fill="none" stroke="#191970" d="M248.0179,-1203.8143C278.9813,-1210.0712 318.6032,-1218.0778 344.1532,-1223.2408"/>
<polygon fill="#191970" stroke="#191970" points="248.3772,-1200.3162 237.882,-1201.7661 246.9906,-1207.1775 248.3772,-1200.3162"/>
</g>
<!-- Node34 -->
<g id="node25" class="node">
<title>Node34</title>
<g id="a_node25"><a xlink:href="server_8h.html#ad4549aceb751d2ed900b3235d5342815" target="_top" xlink:title="ParseHashO">
<polygon fill="#ffffff" stroke="#000000" points="333.4189,-1182.4722 333.4189,-1200.4722 406.665,-1200.4722 406.665,-1182.4722 333.4189,-1182.4722"/>
<text text-anchor="middle" x="370.042" y="-1188.4722" font-family="Helvetica,sans-Serif" font-size="10.00" fill="#000000">ParseHashO</text>
</a>
</g>
</g>
<!-- Node32&#45;&gt;Node34 -->
<g id="edge34" class="edge">
<title>Node32&#45;&gt;Node34</title>
<path fill="none" stroke="#191970" d="M248.1692,-1193.6452C274.9417,-1193.1679 308.1481,-1192.5758 333.1348,-1192.1303"/>
<polygon fill="#191970" stroke="#191970" points="247.818,-1190.1508 237.882,-1193.8287 247.9428,-1197.1497 247.818,-1190.1508"/>
</g>
<!-- Node32&#45;&gt;Node35 -->
<g id="edge37" class="edge">
<title>Node32&#45;&gt;Node35</title>
<path fill="none" stroke="#191970" d="M223.0977,-1179.2683C239.5784,-1167.1926 262.6925,-1149.5529 281.5693,-1132.4722 313.296,-1103.7645 347.1985,-1065.8059 362.1669,-1048.6208"/>
<polygon fill="#191970" stroke="#191970" points="220.7321,-1176.6604 214.6932,-1185.3657 224.8428,-1182.3263 220.7321,-1176.6604"/>
</g>
<!-- Node34&#45;&gt;Node14 -->
<g id="edge35" class="edge">
<title>Node34&#45;&gt;Node14</title>
<path fill="none" stroke="#191970" d="M408.0166,-1204.0601C412.9671,-1206.0378 417.9131,-1208.1897 422.5146,-1210.4722 452.4479,-1225.3201 484.6518,-1247.8407 501.6771,-1260.3261"/>
<polygon fill="#191970" stroke="#191970" points="409.1717,-1200.755 398.5804,-1200.4835 406.6907,-1207.3006 409.1717,-1200.755"/>
</g>
<!-- Node34&#45;&gt;Node17 -->
<g id="edge36" class="edge">
<title>Node34&#45;&gt;Node17</title>
<path fill="none" stroke="#191970" d="M381.9158,-1173.9998C394.3545,-1154.7181 413.3341,-1122.3165 422.5146,-1091.4722 429.6714,-1067.4273 504.2998,-242.2898 513.0208,-145.6765"/>
<polygon fill="#191970" stroke="#191970" points="378.9939,-1172.073 376.4065,-1182.3471 384.8361,-1175.929 378.9939,-1172.073"/>
</g>
<!-- Node37 -->
<g id="node28" class="node">
<title>Node37</title>
<g id="a_node28"><a xlink:href="server_8h.html#ada8166ce740029507c6f29ab8b025eab" target="_top" xlink:title="ParseHexO">
<polygon fill="#ffffff" stroke="#000000" points="336.1997,-89.4722 336.1997,-107.4722 403.8843,-107.4722 403.8843,-89.4722 336.1997,-89.4722"/>
<text text-anchor="middle" x="370.042" y="-95.4722" font-family="Helvetica,sans-Serif" font-size="10.00" fill="#000000">ParseHexO</text>
</a>
</g>
</g>
<!-- Node36&#45;&gt;Node37 -->
<g id="edge39" class="edge">
<title>Node36&#45;&gt;Node37</title>
<path fill="none" stroke="#191970" d="M245.2362,-166.0566C257.4147,-163.2254 270.3758,-159.1913 281.5693,-153.4722 300.3719,-143.8655 299.7923,-133.8653 317.5693,-122.4722 326.5938,-116.6886 337.2412,-111.547 346.5784,-107.5211"/>
<polygon fill="#191970" stroke="#191970" points="244.3094,-162.675 235.2464,-168.1624 245.7533,-169.5245 244.3094,-162.675"/>
</g>
<!-- Node37&#45;&gt;Node17 -->
<g id="edge40" class="edge">
<title>Node37&#45;&gt;Node17</title>
<path fill="none" stroke="#191970" d="M413.8175,-110.0394C434.9051,-115.6116 459.8247,-122.1964 479.5166,-127.3997"/>
<polygon fill="#191970" stroke="#191970" points="414.6851,-106.6486 404.1227,-107.4777 412.8967,-113.4163 414.6851,-106.6486"/>
</g>
<!-- Node49&#45;&gt;Node12 -->
<g id="edge67" class="edge">
<title>Node49&#45;&gt;Node12</title>
<path fill="none" stroke="#191970" d="M215.45,-493.7493C233.9431,-518.1764 266.3723,-564.9246 281.5693,-610.4722 328.9639,-752.5203 255.7497,-809.0822 317.5693,-945.4722 326.6759,-965.5636 345.6495,-983.3057 358.1106,-993.4631"/>
<polygon fill="#191970" stroke="#191970" points="217.9886,-491.3099 209.1097,-485.5294 212.4459,-495.5852 217.9886,-491.3099"/>
</g>
<!-- Node49&#45;&gt;Node16 -->
<g id="edge72" class="edge">
<title>Node49&#45;&gt;Node16</title>
<path fill="none" stroke="#191970" d="M265.8066,-466.5093C312.8169,-462.593 376.2753,-464.7221 422.5146,-494.4722 535.0683,-566.8887 520.7617,-632.7028 569.1875,-757.4722 635.9965,-929.6061 668.8506,-1155.1296 675.3378,-1203.2104"/>
<polygon fill="#191970" stroke="#191970" points="265.3638,-463.0355 255.7374,-467.4605 266.0222,-470.0044 265.3638,-463.0355"/>
</g>
<!-- Node49&#45;&gt;Node18 -->
<g id="edge66" class="edge">
<title>Node49&#45;&gt;Node18</title>
<path fill="none" stroke="#191970" d="M251.636,-465.1352C296.7945,-454.3449 364.8845,-436.7727 422.5146,-416.4722 513.3058,-384.4907 617.2862,-334.7313 658.4332,-314.4919"/>
<polygon fill="#191970" stroke="#191970" points="250.7221,-461.7548 241.7979,-467.4653 252.3354,-468.5663 250.7221,-461.7548"/>
</g>
<!-- Node49&#45;&gt;Node27 -->
<g id="edge64" class="edge">
<title>Node49&#45;&gt;Node27</title>
<path fill="none" stroke="#191970" d="M267.2768,-487.3519C323.8558,-497.963 399.9715,-515.5359 422.5146,-536.4722 457.7403,-569.1871 441.5081,-593.5068 458.5146,-638.4722 476.8451,-686.938 500.7013,-744.2176 509.9501,-766.226"/>
<polygon fill="#191970" stroke="#191970" points="267.7813,-483.886 257.3127,-485.5166 266.5132,-490.7702 267.7813,-483.886"/>
</g>
<!-- Node49&#45;&gt;Node28 -->
<g id="edge71" class="edge">
<title>Node49&#45;&gt;Node28</title>
<path fill="none" stroke="#191970" d="M228.8516,-490.1565C252.1238,-501.7228 286.7166,-518.441 317.5693,-531.4722 363.4074,-550.8328 391.0259,-531.9441 422.5146,-570.4722 424.9155,-573.4098 501.1528,-1070.5806 512.4561,-1144.3632"/>
<polygon fill="#191970" stroke="#191970" points="230.1247,-486.88 219.6148,-485.5407 226.9956,-493.1417 230.1247,-486.88"/>
</g>
<!-- Node49&#45;&gt;Node35 -->
<g id="edge59" class="edge">
<title>Node49&#45;&gt;Node35</title>
<path fill="none" stroke="#191970" d="M215.5772,-493.7076C234.219,-518.0858 266.8213,-564.7773 281.5693,-610.4722 309.7297,-697.7234 261.0782,-949.2605 317.5693,-1021.4722 320.4177,-1025.1133 324.0427,-1028.0218 328.0529,-1030.3444"/>
<polygon fill="#191970" stroke="#191970" points="218.0912,-491.2398 209.1824,-485.5055 212.5708,-495.5439 218.0912,-491.2398"/>
</g>
<!-- Node49&#45;&gt;Node42 -->
<g id="edge55" class="edge">
<title>Node49&#45;&gt;Node42</title>
<path fill="none" stroke="#191970" d="M252.9198,-464.435C262.7182,-461.2076 272.6842,-457.2512 281.5693,-452.4722 299.9118,-442.6066 299.9438,-433.5682 317.5693,-422.4722 326.725,-416.7084 337.4946,-411.5363 346.8868,-407.4825"/>
<polygon fill="#191970" stroke="#191970" points="251.7494,-461.1331 243.2235,-467.4227 253.8108,-467.8227 251.7494,-461.1331"/>
</g>
<!-- Node49&#45;&gt;Node43 -->
<g id="edge57" class="edge">
<title>Node49&#45;&gt;Node43</title>
<path fill="none" stroke="#191970" d="M215.3651,-493.7779C233.759,-518.2385 266.0727,-565.0257 281.5693,-610.4722 303.0973,-673.6065 275.6119,-856.617 317.5693,-908.4722 320.9618,-912.665 325.381,-915.8847 330.2153,-918.3565"/>
<polygon fill="#191970" stroke="#191970" points="217.9199,-491.3573 209.0612,-485.5457 212.3622,-495.6132 217.9199,-491.3573"/>
</g>
<!-- Node49&#45;&gt;Node44 -->
<g id="edge58" class="edge">
<title>Node49&#45;&gt;Node44</title>
<path fill="none" stroke="#191970" d="M213.8401,-493.9106C230.692,-518.8632 261.4797,-566.5968 281.5693,-610.4722 302.6333,-656.4756 297.2529,-672.1339 317.5693,-718.4722 331.9441,-751.2587 353.8855,-787.7078 364.2436,-804.3226"/>
<polygon fill="#191970" stroke="#191970" points="216.6419,-491.8068 208.1152,-485.5182 210.8592,-495.7516 216.6419,-491.8068"/>
</g>
<!-- Node49&#45;&gt;Node45 -->
<g id="edge60" class="edge">
<title>Node49&#45;&gt;Node45</title>
<path fill="none" stroke="#191970" d="M215.1052,-493.8695C233.1949,-518.4372 265.1547,-565.3491 281.5693,-610.4722 315.7399,-704.4056 273.875,-742.5728 317.5693,-832.4722 327.2121,-852.3118 346.0349,-870.1248 358.3184,-880.3655"/>
<polygon fill="#191970" stroke="#191970" points="217.7076,-491.5056 208.9125,-485.5981 212.104,-495.7008 217.7076,-491.5056"/>
</g>
<!-- Node49&#45;&gt;Node46 -->
<g id="edge61" class="edge">
<title>Node49&#45;&gt;Node46</title>
<path fill="none" stroke="#191970" d="M214.957,-459.0721C239.7363,-426.7181 293.0048,-359.0741 317.5693,-342.4722 322.9156,-338.859 329.0576,-335.9041 335.2126,-333.5105"/>
<polygon fill="#191970" stroke="#191970" points="212.0481,-457.1148 208.7709,-467.1901 217.6158,-461.3576 212.0481,-457.1148"/>
</g>
<!-- Node49&#45;&gt;Node47 -->
<g id="edge62" class="edge">
<title>Node49&#45;&gt;Node47</title>
<path fill="none" stroke="#191970" d="M207.1115,-457.8409C219.5949,-417.4418 254.5601,-321.1855 317.5693,-268.4722 322.223,-264.579 327.7641,-261.5118 333.4739,-259.0999"/>
<polygon fill="#191970" stroke="#191970" points="203.7445,-456.8844 204.2405,-467.4676 210.4525,-458.885 203.7445,-456.8844"/>
</g>
<!-- Node49&#45;&gt;Node48 -->
<g id="edge63" class="edge">
<title>Node49&#45;&gt;Node48</title>
<path fill="none" stroke="#191970" d="M209.5967,-457.6641C225.0561,-422.6704 262.8606,-347.3247 317.5693,-305.4722 323.1533,-301.2005 329.8195,-297.9013 336.4965,-295.3674"/>
<polygon fill="#191970" stroke="#191970" points="206.2542,-456.5774 205.5223,-467.1469 212.6857,-459.3408 206.2542,-456.5774"/>
</g>
<!-- Node50 -->
<g id="node41" class="node">
<title>Node50</title>
<g id="a_node41"><a xlink:href="rpcwallet_8cpp.html#a9df6d8c784683e22309cb2627d21b1f2" target="_top" xlink:title="abortrescan">
<polygon fill="#ffffff" stroke="#000000" points="335.6382,-690.4722 335.6382,-708.4722 404.4458,-708.4722 404.4458,-690.4722 335.6382,-690.4722"/>
<text text-anchor="middle" x="370.042" y="-696.4722" font-family="Helvetica,sans-Serif" font-size="10.00" fill="#000000">abortrescan</text>
</a>
</g>
</g>
<!-- Node49&#45;&gt;Node50 -->
<g id="edge56" class="edge">
<title>Node49&#45;&gt;Node50</title>
<path fill="none" stroke="#191970" d="M212.9601,-494.3535C228.7607,-519.8351 258.3011,-568.1965 281.5693,-610.4722 298.629,-641.4677 290.8771,-658.2499 317.5693,-681.4722 322.7282,-685.9604 329.0616,-689.3437 335.5214,-691.8896"/>
<polygon fill="#191970" stroke="#191970" points="215.8732,-492.4101 207.6188,-485.7681 209.9295,-496.1079 215.8732,-492.4101"/>
</g>
<!-- Node49&#45;&gt;Node51 -->
<g id="edge65" class="edge">
<title>Node49&#45;&gt;Node51</title>
<path fill="none" stroke="#191970" d="M226.0611,-491.2929C243.1571,-502.6263 265.7306,-519.4962 281.5693,-538.4722 303.734,-565.0273 291.342,-584.9207 317.5693,-607.4722 321.8048,-611.1141 326.8146,-614.0297 332.0303,-616.3612"/>
<polygon fill="#191970" stroke="#191970" points="227.5066,-488.0607 217.2044,-485.5879 223.7159,-493.9456 227.5066,-488.0607"/>
</g>
<!-- Node49&#45;&gt;Node52 -->
<g id="edge68" class="edge">
<title>Node49&#45;&gt;Node52</title>
<path fill="none" stroke="#191970" d="M262.5862,-489.2673C269.3927,-492.2531 275.9034,-495.9342 281.5693,-500.4722 307.042,-520.874 293.5503,-542.3776 317.5693,-564.4722 324.4996,-570.8473 333.4152,-575.7765 341.9237,-579.4621"/>
<polygon fill="#191970" stroke="#191970" points="263.7617,-485.9692 253.1729,-485.6116 261.2276,-492.4944 263.7617,-485.9692"/>
</g>
<!-- Node49&#45;&gt;Node53 -->
<g id="edge69" class="edge">
<title>Node49&#45;&gt;Node53</title>
<path fill="none" stroke="#191970" d="M216.8274,-493.2953C233.6878,-512.5939 261.314,-545.5665 281.5693,-576.4722 300.3141,-605.0732 291.5734,-622.2553 317.5693,-644.4722 321.889,-648.1639 327.0047,-651.1101 332.32,-653.4582"/>
<polygon fill="#191970" stroke="#191970" points="219.3479,-490.8618 210.1083,-485.6771 214.0981,-495.492 219.3479,-490.8618"/>
</g>
<!-- Node49&#45;&gt;Node54 -->
<g id="edge70" class="edge">
<title>Node49&#45;&gt;Node54</title>
<path fill="none" stroke="#191970" d="M222.6272,-461.2712C239.0245,-449.0764 262.2511,-431.2784 281.5693,-414.4722 298.4053,-399.8255 298.5553,-391.153 317.5693,-379.4722 324.0522,-375.4897 331.5309,-372.2509 338.7734,-369.6762"/>
<polygon fill="#191970" stroke="#191970" points="220.2545,-458.6724 214.2883,-467.4277 224.4122,-464.3039 220.2545,-458.6724"/>
</g>
<!-- Node55&#45;&gt;Node12 -->
<g id="edge86" class="edge">
<title>Node55&#45;&gt;Node12</title>
<path fill="none" stroke="#191970" d="M231.8818,-642.489C249.3601,-652.2693 270.1274,-667.0523 281.5693,-686.4722 347.9471,-799.1322 240.2956,-872.9875 317.5693,-978.4722 323.5484,-986.6342 332.9773,-992.0916 342.2031,-995.708"/>
<polygon fill="#191970" stroke="#191970" points="233.0659,-639.1558 222.5901,-637.5724 229.792,-645.343 233.0659,-639.1558"/>
</g>
<!-- Node55&#45;&gt;Node16 -->
<g id="edge91" class="edge">
<title>Node55&#45;&gt;Node16</title>
<path fill="none" stroke="#191970" d="M230.4189,-642.6144C247.7239,-652.5855 268.8308,-667.5278 281.5693,-686.4722 318.8617,-741.9325 273.082,-782.5979 317.5693,-832.4722 350.6917,-869.6053 382.6974,-841.6303 422.5146,-871.4722 555.7258,-971.3105 651.3652,-1159.8482 672.2634,-1203.3561"/>
<polygon fill="#191970" stroke="#191970" points="231.7235,-639.3379 221.2734,-637.5926 228.3542,-645.4737 231.7235,-639.3379"/>
</g>
<!-- Node55&#45;&gt;Node18 -->
<g id="edge85" class="edge">
<title>Node55&#45;&gt;Node18</title>
<path fill="none" stroke="#191970" d="M262.6438,-641.1959C269.4405,-644.1939 275.9331,-647.8974 281.5693,-652.4722 307.5121,-673.5297 288.8373,-701.416 317.5693,-718.4722 357.677,-742.2815 381.8004,-741.2288 422.5146,-718.4722 591.1524,-624.2151 661.5916,-367.0365 674.3677,-314.8025"/>
<polygon fill="#191970" stroke="#191970" points="263.8275,-637.9008 253.2391,-637.5295 261.2849,-644.4227 263.8275,-637.9008"/>
</g>
<!-- Node55&#45;&gt;Node27 -->
<g id="edge83" class="edge">
<title>Node55&#45;&gt;Node27</title>
<path fill="none" stroke="#191970" d="M265.8045,-641.6021C271.5589,-644.5286 276.947,-648.1042 281.5693,-652.4722 315.5981,-684.6287 280.9255,-722.3307 317.5693,-751.4722 364.4567,-788.7601 438.6226,-786.3653 481.0932,-781.0613"/>
<polygon fill="#191970" stroke="#191970" points="267.0806,-638.3399 256.5178,-637.5171 264.2621,-644.7474 267.0806,-638.3399"/>
</g>
<!-- Node55&#45;&gt;Node28 -->
<g id="edge90" class="edge">
<title>Node55&#45;&gt;Node28</title>
<path fill="none" stroke="#191970" d="M231.7758,-642.5519C249.2148,-652.3558 269.9778,-667.1412 281.5693,-686.4722 341.3362,-786.1441 244.8045,-854.853 317.5693,-945.4722 348.7238,-984.2711 384.9603,-951.8284 422.5146,-984.4722 475.8771,-1030.8571 503.4957,-1116.3157 511.4132,-1144.3219"/>
<polygon fill="#191970" stroke="#191970" points="232.981,-639.2286 222.5089,-637.6206 229.6926,-645.4081 232.981,-639.2286"/>
</g>
<!-- Node55&#45;&gt;Node35 -->
<g id="edge78" class="edge">
<title>Node55&#45;&gt;Node35</title>
<path fill="none" stroke="#191970" d="M231.9894,-642.4261C249.5078,-652.1831 270.2794,-666.9635 281.5693,-686.4722 356.5751,-816.0795 224.146,-904.4424 317.5693,-1021.4722 320.5135,-1025.1604 324.253,-1028.0961 328.3756,-1030.4323"/>
<polygon fill="#191970" stroke="#191970" points="233.1521,-639.083 222.6725,-637.5242 229.8927,-645.2779 233.1521,-639.083"/>
</g>
<!-- Node55&#45;&gt;Node42 -->
<g id="edge74" class="edge">
<title>Node55&#45;&gt;Node42</title>
<path fill="none" stroke="#191970" d="M214.4595,-611.1494C247.946,-565.3742 337.9502,-442.3408 363.309,-407.6761"/>
<polygon fill="#191970" stroke="#191970" points="211.4623,-609.3185 208.3829,-619.456 217.112,-613.4515 211.4623,-609.3185"/>
</g>
<!-- Node55&#45;&gt;Node43 -->
<g id="edge76" class="edge">
<title>Node55&#45;&gt;Node43</title>
<path fill="none" stroke="#191970" d="M231.2875,-642.4572C248.7363,-652.2951 269.6839,-667.1507 281.5693,-686.4722 333.9407,-771.6095 253.1341,-832.0575 317.5693,-908.4722 320.984,-912.5217 325.3534,-915.662 330.1098,-918.0969"/>
<polygon fill="#191970" stroke="#191970" points="232.5027,-639.1381 222.0335,-637.5114 229.2032,-645.3118 232.5027,-639.1381"/>
</g>
<!-- Node55&#45;&gt;Node44 -->
<g id="edge77" class="edge">
<title>Node55&#45;&gt;Node44</title>
<path fill="none" stroke="#191970" d="M267.3701,-641.7944C272.6046,-644.6901 277.4505,-648.2056 281.5693,-652.4722 325.2946,-697.7664 277.0412,-741.2962 317.5693,-789.4722 323.0508,-795.9881 330.6771,-800.8229 338.4196,-804.3746"/>
<polygon fill="#191970" stroke="#191970" points="268.7902,-638.5944 258.2538,-637.4833 265.7976,-644.9225 268.7902,-638.5944"/>
</g>
<!-- Node55&#45;&gt;Node45 -->
<g id="edge79" class="edge">
<title>Node55&#45;&gt;Node45</title>
<path fill="none" stroke="#191970" d="M231.0345,-642.6161C248.3868,-652.5147 269.3217,-667.3782 281.5693,-686.4722 325.3823,-754.7768 267.168,-801.8736 317.5693,-865.4722 322.7957,-872.0671 330.2418,-876.9181 337.8882,-880.4595"/>
<polygon fill="#191970" stroke="#191970" points="232.3003,-639.3211 221.8409,-637.6323 228.9643,-645.4751 232.3003,-639.3211"/>
</g>
<!-- Node55&#45;&gt;Node46 -->
<g id="edge80" class="edge">
<title>Node55&#45;&gt;Node46</title>
<path fill="none" stroke="#191970" d="M214.6661,-611.051C232.2423,-586.4868 263.6045,-539.7158 281.5693,-495.4722 307.8505,-430.7474 270.6871,-394.2608 317.5693,-342.4722 322.2877,-337.2601 328.5819,-333.5569 335.1695,-330.9258"/>
<polygon fill="#191970" stroke="#191970" points="211.7015,-609.1772 208.6616,-619.3266 217.3672,-613.2882 211.7015,-609.1772"/>
</g>
<!-- Node55&#45;&gt;Node47 -->
<g id="edge81" class="edge">
<title>Node55&#45;&gt;Node47</title>
<path fill="none" stroke="#191970" d="M215.1319,-611.2302C233.253,-586.8756 265.2492,-540.3485 281.5693,-495.4722 316.4812,-399.4736 251.8557,-346.6789 317.5693,-268.4722 321.7824,-263.4582 327.4595,-259.8379 333.5257,-257.2246"/>
<polygon fill="#191970" stroke="#191970" points="212.171,-609.3428 208.9278,-619.429 217.753,-613.5667 212.171,-609.3428"/>
</g>
<!-- Node55&#45;&gt;Node48 -->
<g id="edge82" class="edge">
<title>Node55&#45;&gt;Node48</title>
<path fill="none" stroke="#191970" d="M214.942,-611.1595C232.8408,-586.7222 264.5785,-540.0989 281.5693,-495.4722 312.1506,-415.1501 261.2992,-370.4379 317.5693,-305.4722 322.5506,-299.7212 329.4545,-295.8054 336.62,-293.14"/>
<polygon fill="#191970" stroke="#191970" points="211.9806,-609.2764 208.8193,-619.3886 217.5966,-613.455 211.9806,-609.2764"/>
</g>
<!-- Node55&#45;&gt;Node50 -->
<g id="edge75" class="edge">
<title>Node55&#45;&gt;Node50</title>
<path fill="none" stroke="#191970" d="M252.541,-640.5235C262.446,-643.7603 272.5488,-647.7167 281.5693,-652.4722 299.744,-662.0538 299.5812,-671.5449 317.5693,-681.4722 323.8934,-684.9624 331.0157,-687.9525 337.9257,-690.4359"/>
<polygon fill="#191970" stroke="#191970" points="253.3361,-637.1065 242.7494,-637.5236 251.2855,-643.7995 253.3361,-637.1065"/>
</g>
<!-- Node55&#45;&gt;Node51 -->
<g id="edge84" class="edge">
<title>Node55&#45;&gt;Node51</title>
<path fill="none" stroke="#191970" d="M273.5558,-627.1926C292.4314,-626.856 312.1554,-626.5044 328.8149,-626.2073"/>
<polygon fill="#191970" stroke="#191970" points="273.4196,-623.6944 263.4836,-627.3722 273.5445,-630.6933 273.4196,-623.6944"/>
</g>
<!-- Node55&#45;&gt;Node52 -->
<g id="edge87" class="edge">
<title>Node55&#45;&gt;Node52</title>
<path fill="none" stroke="#191970" d="M250.0071,-617.0087C276.0462,-610.8183 307.7351,-603.2847 332.0134,-597.5129"/>
<polygon fill="#191970" stroke="#191970" points="248.8861,-613.6776 239.9667,-619.3956 250.5051,-620.4878 248.8861,-613.6776"/>
</g>
<!-- Node55&#45;&gt;Node53 -->
<g id="edge88" class="edge">
<title>Node55&#45;&gt;Node53</title>
<path fill="none" stroke="#191970" d="M256.3447,-639.4969C280.0418,-644.2855 307.3253,-649.7988 329.225,-654.2242"/>
<polygon fill="#191970" stroke="#191970" points="256.9297,-636.0445 246.4346,-637.4943 255.5432,-642.9058 256.9297,-636.0445"/>
</g>
<!-- Node55&#45;&gt;Node54 -->
<g id="edge89" class="edge">
<title>Node55&#45;&gt;Node54</title>
<path fill="none" stroke="#191970" d="M214.2318,-610.8658C231.3,-586.0849 262.071,-539.0617 281.5693,-495.4722 303.6113,-446.1962 279.9667,-418.2023 317.5693,-379.4722 323.2718,-373.5988 330.9723,-369.6413 338.7154,-366.9749"/>
<polygon fill="#191970" stroke="#191970" points="211.2561,-609.0144 208.4133,-619.2207 217.0004,-613.0148 211.2561,-609.0144"/>
</g>
<!-- Node56&#45;&gt;Node18 -->
<g id="edge98" class="edge">
<title>Node56&#45;&gt;Node18</title>
<path fill="none" stroke="#191970" d="M221.4329,-271.1496C248.6639,-250.285 296.8622,-214.7966 317.5693,-208.4722 451.2419,-167.6461 615.5673,-265.2493 663.0947,-296.341"/>
<polygon fill="#191970" stroke="#191970" points="219.1697,-268.475 213.3898,-277.3544 223.4454,-274.0174 219.1697,-268.475"/>
</g>
<!-- Node56&#45;&gt;Node27 -->
<g id="edge97" class="edge">
<title>Node56&#45;&gt;Node27</title>
<path fill="none" stroke="#191970" d="M221.765,-271.2798C263.919,-241.1871 362.9683,-181.0902 422.5146,-231.4722 465.5574,-267.8907 506.7022,-697.6683 513.0158,-766.2663"/>
<polygon fill="#191970" stroke="#191970" points="219.45,-268.6366 213.4428,-277.3638 223.5812,-274.2875 219.45,-268.6366"/>
</g>
<!-- Node56&#45;&gt;Node42 -->
<g id="edge93" class="edge">
<title>Node56&#45;&gt;Node42</title>
<path fill="none" stroke="#191970" d="M218.1788,-302.6006C239.5215,-322.8657 278.7066,-357.6289 317.5693,-379.4722 324.495,-383.3649 332.3676,-386.7132 339.87,-389.4666"/>
<polygon fill="#191970" stroke="#191970" points="220.5413,-300.0167 210.9106,-295.6009 215.6856,-305.0587 220.5413,-300.0167"/>
</g>
<!-- Node56&#45;&gt;Node46 -->
<g id="edge94" class="edge">
<title>Node56&#45;&gt;Node46</title>
<path fill="none" stroke="#191970" d="M251.6723,-297.7387C278.5902,-303.8181 311.1477,-311.1711 335.2991,-316.6256"/>
<polygon fill="#191970" stroke="#191970" points="252.1866,-294.2668 241.6612,-295.4777 250.6444,-301.0948 252.1866,-294.2668"/>
</g>
<!-- Node56&#45;&gt;Node47 -->
<g id="edge95" class="edge">
<title>Node56&#45;&gt;Node47</title>
<path fill="none" stroke="#191970" d="M254.2316,-275.2512C279.995,-269.7388 310.4011,-263.2331 333.5915,-258.2712"/>
<polygon fill="#191970" stroke="#191970" points="253.2913,-271.873 244.2449,-277.3879 254.7559,-278.7181 253.2913,-271.873"/>
</g>
<!-- Node56&#45;&gt;Node48 -->
<g id="edge96" class="edge">
<title>Node56&#45;&gt;Node48</title>
<path fill="none" stroke="#191970" d="M274.6019,-286.905C296.2017,-287.0334 318.8148,-287.1678 336.6054,-287.2735"/>
<polygon fill="#191970" stroke="#191970" points="274.4597,-283.4042 264.439,-286.8446 274.418,-290.4041 274.4597,-283.4042"/>
</g>
<!-- Node56&#45;&gt;Node54 -->
<g id="edge99" class="edge">
<title>Node56&#45;&gt;Node54</title>
<path fill="none" stroke="#191970" d="M228.0794,-300.15C251.3177,-312.0065 286.2845,-329.2838 317.5693,-342.4722 325.8722,-345.9724 335.0675,-349.4369 343.411,-352.4298"/>
<polygon fill="#191970" stroke="#191970" points="229.6771,-297.036 219.1824,-295.5829 226.4803,-303.2635 229.6771,-297.036"/>
</g>
<!-- Node59&#45;&gt;Node16 -->
<g id="edge111" class="edge">
<title>Node59&#45;&gt;Node16</title>
<path fill="none" stroke="#191970" d="M407.0575,-1254.6873C412.3833,-1252.5922 417.6886,-1250.1882 422.5146,-1247.4722 440.6651,-1237.2576 439.0139,-1224.7864 458.5146,-1217.4722 509.3877,-1198.3912 571.7365,-1199.1308 616.7108,-1203.4656"/>
<polygon fill="#191970" stroke="#191970" points="405.7621,-1251.4339 397.548,-1258.1257 408.1423,-1258.0168 405.7621,-1251.4339"/>
</g>
<!-- Node59&#45;&gt;Node28 -->
<g id="edge110" class="edge">
<title>Node59&#45;&gt;Node28</title>
<path fill="none" stroke="#191970" d="M407.0873,-1256.7535C412.6444,-1254.3584 418.012,-1251.3204 422.5146,-1247.4722 448.5106,-1225.2553 433.765,-1203.0696 458.5146,-1179.4722 466.197,-1172.1475 476.3212,-1166.578 485.8073,-1162.51"/>
<polygon fill="#191970" stroke="#191970" points="405.8578,-1253.4764 397.6754,-1260.2068 408.269,-1260.048 405.8578,-1253.4764"/>
</g>
</g>
</svg>
