<?xml version="1.0" encoding="UTF-8" standalone="no"?>
<!DOCTYPE svg PUBLIC "-//W3C//DTD SVG 1.1//EN"
 "http://www.w3.org/Graphics/SVG/1.1/DTD/svg11.dtd">
<!-- Generated by graphviz version 2.40.1 (20161225.0304)
 -->
<!-- Title: generate Pages: 1 -->
<svg width="1215pt" height="870pt"
 viewBox="0.00 0.00 1214.74 870.00" xmlns="http://www.w3.org/2000/svg" xmlns:xlink="http://www.w3.org/1999/xlink">
<g id="graph0" class="graph" transform="scale(1 1) rotate(0) translate(4 866)">
<title>generate</title>
<polygon fill="#ffffff" stroke="transparent" points="-4,4 -4,-866 1210.7354,-866 1210.7354,4 -4,4"/>
<!-- Node290 -->
<g id="node1" class="node">
<title>Node290</title>
<polygon fill="#bfbfbf" stroke="#000000" points="0,-602.5 0,-620.5 55.4775,-620.5 55.4775,-602.5 0,-602.5"/>
<text text-anchor="middle" x="27.7388" y="-608.5" font-family="Helvetica,sans-Serif" font-size="10.00" fill="#000000">generate</text>
</g>
<!-- Node291 -->
<g id="node2" class="node">
<title>Node291</title>
<g id="a_node2"><a xlink:href="rpcwallet_8cpp.html#a13cf9bdc928d8ca0b67e34791da05ddc" target="_top" xlink:title="Figures out what wallet, if any, to use for a JSONRPCRequest. ">
<polygon fill="#ffffff" stroke="#000000" points="91.4775,-769.5 91.4775,-787.5 251.042,-787.5 251.042,-769.5 91.4775,-769.5"/>
<text text-anchor="middle" x="171.2598" y="-775.5" font-family="Helvetica,sans-Serif" font-size="10.00" fill="#000000">GetWalletForJSONRPCRequest</text>
</a>
</g>
</g>
<!-- Node290&#45;&gt;Node291 -->
<g id="edge1" class="edge">
<title>Node290&#45;&gt;Node291</title>
<path fill="none" stroke="#191970" d="M28.7747,-620.542C32.2681,-646.6508 46.0686,-722.6977 91.4775,-760.5 93.2509,-761.9763 95.1205,-763.3376 97.0671,-764.5927"/>
<polygon fill="#191970" stroke="#191970" points="95.5738,-767.7642 106.035,-769.442 98.9034,-761.6067 95.5738,-767.7642"/>
</g>
<!-- Node294 -->
<g id="node5" class="node">
<title>Node294</title>
<g id="a_node5"><a xlink:href="rpc_2protocol_8cpp.html#a40b75d3d265c4a2e1d5fe3e129743884" target="_top" xlink:title="JSONRPCError">
<polygon fill="#ffffff" stroke="#000000" points="341.3242,-529.5 341.3242,-547.5 427.3291,-547.5 427.3291,-529.5 341.3242,-529.5"/>
<text text-anchor="middle" x="384.3267" y="-535.5" font-family="Helvetica,sans-Serif" font-size="10.00" fill="#000000">JSONRPCError</text>
</a>
</g>
</g>
<!-- Node290&#45;&gt;Node294 -->
<g id="edge19" class="edge">
<title>Node290&#45;&gt;Node294</title>
<path fill="none" stroke="#191970" d="M29.7037,-602.4324C35.0645,-580.213 52.2448,-523.2125 91.4775,-500.5 152.8522,-464.9691 182.2048,-483.4491 251.042,-500.5 268.603,-504.8498 269.9815,-513.4795 287.042,-519.5 301.0183,-524.4321 316.6016,-528.1961 331.1286,-531.0198"/>
<polygon fill="#191970" stroke="#191970" points="330.5171,-534.4659 340.9844,-532.8271 331.7797,-527.5807 330.5171,-534.4659"/>
</g>
<!-- Node297 -->
<g id="node8" class="node">
<title>Node297</title>
<g id="a_node8"><a xlink:href="rpcwallet_8cpp.html#ae44c9e4546fdf6e182276fada0126649" target="_top" xlink:title="EnsureWalletIsAvailable">
<polygon fill="#ffffff" stroke="#000000" points="109.6172,-547.5 109.6172,-565.5 232.9023,-565.5 232.9023,-547.5 109.6172,-547.5"/>
<text text-anchor="middle" x="171.2598" y="-553.5" font-family="Helvetica,sans-Serif" font-size="10.00" fill="#000000">EnsureWalletIsAvailable</text>
</a>
</g>
</g>
<!-- Node290&#45;&gt;Node297 -->
<g id="edge7" class="edge">
<title>Node290&#45;&gt;Node297</title>
<path fill="none" stroke="#191970" d="M40.8121,-602.311C53.2925,-593.9356 72.8965,-581.791 91.4775,-574.5 97.4628,-572.1514 103.8269,-570.0706 110.2484,-568.2361"/>
<polygon fill="#191970" stroke="#191970" points="111.5755,-571.505 120.3406,-565.5533 109.7771,-564.7399 111.5755,-571.505"/>
</g>
<!-- Node299 -->
<g id="node10" class="node">
<title>Node299</title>
<g id="a_node10"><a xlink:href="class_uni_value.html#a5a7394aeb8d5584db7a90c2c041726b1" target="_top" xlink:title="UniValue::size">
<polygon fill="#ffffff" stroke="#000000" points="131.668,-658.5 131.668,-676.5 210.8516,-676.5 210.8516,-658.5 131.668,-658.5"/>
<text text-anchor="middle" x="171.2598" y="-664.5" font-family="Helvetica,sans-Serif" font-size="10.00" fill="#000000">UniValue::size</text>
</a>
</g>
</g>
<!-- Node290&#45;&gt;Node299 -->
<g id="edge10" class="edge">
<title>Node290&#45;&gt;Node299</title>
<path fill="none" stroke="#191970" d="M40.8321,-620.6384C53.3266,-628.9782 72.9402,-641.0987 91.4775,-648.5 100.9984,-652.3014 111.4747,-655.4674 121.6158,-658.0547"/>
<polygon fill="#191970" stroke="#191970" points="121.0567,-661.5199 131.5975,-660.4513 122.691,-654.7133 121.0567,-661.5199"/>
</g>
<!-- Node300 -->
<g id="node11" class="node">
<title>Node300</title>
<g id="a_node11"><a xlink:href="server_8cpp.html#a26bafe3d526ee8cbc84b3c0b0dc3a43b" target="_top" xlink:title="HelpExampleCli">
<polygon fill="#ffffff" stroke="#000000" points="127.6909,-621.5 127.6909,-639.5 214.8286,-639.5 214.8286,-621.5 127.6909,-621.5"/>
<text text-anchor="middle" x="171.2598" y="-627.5" font-family="Helvetica,sans-Serif" font-size="10.00" fill="#000000">HelpExampleCli</text>
</a>
</g>
</g>
<!-- Node290&#45;&gt;Node300 -->
<g id="edge11" class="edge">
<title>Node290&#45;&gt;Node300</title>
<path fill="none" stroke="#191970" d="M55.7518,-615.2085C73.278,-617.5287 96.4341,-620.5942 117.4092,-623.371"/>
<polygon fill="#191970" stroke="#191970" points="117.1238,-626.8637 127.4967,-624.7064 118.0426,-619.9242 117.1238,-626.8637"/>
</g>
<!-- Node301 -->
<g id="node12" class="node">
<title>Node301</title>
<g id="a_node12"><a xlink:href="server_8cpp.html#a009fe8e9bab18fcd23b9c273157d182f" target="_top" xlink:title="IsDeprecatedRPCEnabled">
<polygon fill="#ffffff" stroke="#000000" points="104.6147,-732.5 104.6147,-750.5 237.9048,-750.5 237.9048,-732.5 104.6147,-732.5"/>
<text text-anchor="middle" x="171.2598" y="-738.5" font-family="Helvetica,sans-Serif" font-size="10.00" fill="#000000">IsDeprecatedRPCEnabled</text>
</a>
</g>
</g>
<!-- Node290&#45;&gt;Node301 -->
<g id="edge12" class="edge">
<title>Node290&#45;&gt;Node301</title>
<path fill="none" stroke="#191970" d="M30.2033,-620.7566C36.4733,-642.4165 55.1654,-696.5961 91.4775,-723.5 93.7005,-725.147 96.0473,-726.6476 98.4861,-728.0145"/>
<polygon fill="#191970" stroke="#191970" points="97.1312,-731.2461 107.6628,-732.4017 100.1505,-724.9307 97.1312,-731.2461"/>
</g>
<!-- Node307 -->
<g id="node18" class="node">
<title>Node307</title>
<g id="a_node18"><a xlink:href="class_uni_value.html#af45edc6e67eaa6d1f271ce18e435a376" target="_top" xlink:title="UniValue::get_int">
<polygon fill="#ffffff" stroke="#000000" points="125.5474,-695.5 125.5474,-713.5 216.9722,-713.5 216.9722,-695.5 125.5474,-695.5"/>
<text text-anchor="middle" x="171.2598" y="-701.5" font-family="Helvetica,sans-Serif" font-size="10.00" fill="#000000">UniValue::get_int</text>
</a>
</g>
</g>
<!-- Node290&#45;&gt;Node307 -->
<g id="edge20" class="edge">
<title>Node290&#45;&gt;Node307</title>
<path fill="none" stroke="#191970" d="M32.926,-620.6292C42.4073,-636.444 64.1031,-668.8378 91.4775,-685.5 98.8207,-689.9696 107.1377,-693.3878 115.5609,-696.0019"/>
<polygon fill="#191970" stroke="#191970" points="114.8759,-699.4432 125.4457,-698.716 116.7294,-692.6931 114.8759,-699.4432"/>
</g>
<!-- Node310 -->
<g id="node21" class="node">
<title>Node310</title>
<g id="a_node21"><a xlink:href="class_uni_value.html#a3661be0f5580daceb23e5338e3a0df22" target="_top" xlink:title="UniValue::isNull">
<polygon fill="#ffffff" stroke="#000000" points="128.3354,-510.5 128.3354,-528.5 214.1841,-528.5 214.1841,-510.5 128.3354,-510.5"/>
<text text-anchor="middle" x="171.2598" y="-516.5" font-family="Helvetica,sans-Serif" font-size="10.00" fill="#000000">UniValue::isNull</text>
</a>
</g>
</g>
<!-- Node290&#45;&gt;Node310 -->
<g id="edge23" class="edge">
<title>Node290&#45;&gt;Node310</title>
<path fill="none" stroke="#191970" d="M32.9058,-602.3373C42.3557,-586.4706 64.0045,-553.9991 91.4775,-537.5 99.523,-532.6683 108.7321,-529.1316 117.9677,-526.5434"/>
<polygon fill="#191970" stroke="#191970" points="119.0704,-529.8766 127.9459,-524.0907 117.3995,-523.0789 119.0704,-529.8766"/>
</g>
<!-- Node311 -->
<g id="node22" class="node">
<title>Node311</title>
<g id="a_node22"><a xlink:href="group___actions.html#gaef7bc7ec0afff07a559e74847791f501" target="_top" xlink:title="CWallet::GetScriptForMining">
<polygon fill="#ffffff" stroke="#000000" points="100.0933,-584.5 100.0933,-602.5 242.4263,-602.5 242.4263,-584.5 100.0933,-584.5"/>
<text text-anchor="middle" x="171.2598" y="-590.5" font-family="Helvetica,sans-Serif" font-size="10.00" fill="#000000">CWallet::GetScriptForMining</text>
</a>
</g>
</g>
<!-- Node290&#45;&gt;Node311 -->
<g id="edge24" class="edge">
<title>Node290&#45;&gt;Node311</title>
<path fill="none" stroke="#191970" d="M55.7518,-607.9867C65.6939,-606.7398 77.4477,-605.2656 89.5874,-603.7431"/>
<polygon fill="#191970" stroke="#191970" points="90.3575,-607.174 99.8442,-602.4567 89.4863,-600.2285 90.3575,-607.174"/>
</g>
<!-- Node313 -->
<g id="node24" class="node">
<title>Node313</title>
<g id="a_node24"><a xlink:href="mining_8cpp.html#a4910d289954727eb7c4c24a6b3c50c55" target="_top" xlink:title="Generate blocks (mine) ">
<polygon fill="#ffffff" stroke="#000000" points="128.7944,-322.5 128.7944,-340.5 213.7251,-340.5 213.7251,-322.5 128.7944,-322.5"/>
<text text-anchor="middle" x="171.2598" y="-328.5" font-family="Helvetica,sans-Serif" font-size="10.00" fill="#000000">generateBlocks</text>
</a>
</g>
</g>
<!-- Node290&#45;&gt;Node313 -->
<g id="edge26" class="edge">
<title>Node290&#45;&gt;Node313</title>
<path fill="none" stroke="#191970" d="M31.4112,-602.2331C40.6684,-579.105 66.039,-517.1334 91.4775,-467.5 113.8414,-423.8657 143.9675,-374.7128 160.0456,-349.1248"/>
<polygon fill="#191970" stroke="#191970" points="163.0919,-350.8559 165.4743,-340.5324 157.174,-347.1169 163.0919,-350.8559"/>
</g>
<!-- Node292 -->
<g id="node3" class="node">
<title>Node292</title>
<g id="a_node3"><a xlink:href="rpcwallet_8cpp.html#af704ea42262521346e3be551cfbc5a7f" target="_top" xlink:title="GetWalletNameFromJSONRPCRequest">
<polygon fill="#ffffff" stroke="#000000" points="287.042,-843.5 287.042,-861.5 481.6113,-861.5 481.6113,-843.5 287.042,-843.5"/>
<text text-anchor="middle" x="384.3267" y="-849.5" font-family="Helvetica,sans-Serif" font-size="10.00" fill="#000000">GetWalletNameFromJSONRPCRequest</text>
</a>
</g>
</g>
<!-- Node291&#45;&gt;Node292 -->
<g id="edge2" class="edge">
<title>Node291&#45;&gt;Node292</title>
<path fill="none" stroke="#191970" d="M186.8031,-787.6906C208.514,-800.1324 249.4858,-822.1906 287.042,-834.5 294.9607,-837.0954 303.3721,-839.3536 311.8049,-841.3091"/>
<polygon fill="#191970" stroke="#191970" points="311.1694,-844.7528 321.686,-843.4678 312.6634,-837.9141 311.1694,-844.7528"/>
</g>
<!-- Node293 -->
<g id="node4" class="node">
<title>Node293</title>
<g id="a_node4"><a xlink:href="wallet_2wallet_8cpp.html#a59fb74ca7a0b34f8f86ec58464a72f8a" target="_top" xlink:title="GetWallet">
<polygon fill="#ffffff" stroke="#000000" points="354.5591,-806.5 354.5591,-824.5 414.0942,-824.5 414.0942,-806.5 354.5591,-806.5"/>
<text text-anchor="middle" x="384.3267" y="-812.5" font-family="Helvetica,sans-Serif" font-size="10.00" fill="#000000">GetWallet</text>
</a>
</g>
</g>
<!-- Node291&#45;&gt;Node293 -->
<g id="edge3" class="edge">
<title>Node291&#45;&gt;Node293</title>
<path fill="none" stroke="#191970" d="M223.1093,-787.5039C260.3945,-793.9786 309.9404,-802.5825 344.219,-808.5351"/>
<polygon fill="#191970" stroke="#191970" points="343.8852,-812.0295 354.3366,-810.2921 345.0829,-805.1327 343.8852,-812.0295"/>
</g>
<!-- Node291&#45;&gt;Node294 -->
<g id="edge4" class="edge">
<title>Node291&#45;&gt;Node294</title>
<path fill="none" stroke="#191970" d="M239.3068,-769.4574C243.6283,-767.0454 247.6118,-764.0961 251.042,-760.5 314.5883,-693.8794 222.2105,-621.8707 287.042,-556.5 298.452,-544.9951 314.6634,-539.525 330.5881,-537.2044"/>
<polygon fill="#191970" stroke="#191970" points="331.384,-540.6396 340.9581,-536.1024 330.6442,-533.6788 331.384,-540.6396"/>
</g>
<!-- Node296 -->
<g id="node7" class="node">
<title>Node296</title>
<g id="a_node7"><a xlink:href="dummywallet_8cpp.html#ab8562a8762a7793fdf5b8ae9465e1b85" target="_top" xlink:title="GetWallets">
<polygon fill="#ffffff" stroke="#000000" points="352.0591,-769.5 352.0591,-787.5 416.5942,-787.5 416.5942,-769.5 352.0591,-769.5"/>
<text text-anchor="middle" x="384.3267" y="-775.5" font-family="Helvetica,sans-Serif" font-size="10.00" fill="#000000">GetWallets</text>
</a>
</g>
</g>
<!-- Node291&#45;&gt;Node296 -->
<g id="edge6" class="edge">
<title>Node291&#45;&gt;Node296</title>
<path fill="none" stroke="#191970" d="M251.2042,-778.5C281.9243,-778.5 315.7956,-778.5 341.6843,-778.5"/>
<polygon fill="#191970" stroke="#191970" points="341.9013,-782.0001 351.9012,-778.5 341.9012,-775.0001 341.9013,-782.0001"/>
</g>
<!-- Node295 -->
<g id="node6" class="node">
<title>Node295</title>
<g id="a_node6"><a xlink:href="util_8h.html#a96c5fc7111f69f7dcaba992d95d13e03" target="_top" xlink:title="error">
<polygon fill="#ffffff" stroke="#000000" points="959.6606,-413.5 959.6606,-431.5 996.7739,-431.5 996.7739,-413.5 959.6606,-413.5"/>
<text text-anchor="middle" x="978.2173" y="-419.5" font-family="Helvetica,sans-Serif" font-size="10.00" fill="#000000">error</text>
</a>
</g>
</g>
<!-- Node294&#45;&gt;Node295 -->
<g id="edge5" class="edge">
<title>Node294&#45;&gt;Node295</title>
<path fill="none" stroke="#191970" d="M427.3577,-534.8652C482.6351,-529.7997 581.3995,-519.4088 664.7832,-503.5 771.1062,-483.2146 894.8444,-447.6085 949.6215,-431.2137"/>
<polygon fill="#191970" stroke="#191970" points="950.7626,-434.5254 959.33,-428.2924 948.7456,-427.8223 950.7626,-434.5254"/>
</g>
<!-- Node297&#45;&gt;Node294 -->
<g id="edge9" class="edge">
<title>Node297&#45;&gt;Node294</title>
<path fill="none" stroke="#191970" d="M233.1737,-551.2695C264.1682,-548.651 301.3128,-545.513 331.0236,-543.0031"/>
<polygon fill="#191970" stroke="#191970" points="331.5305,-546.4728 341.2004,-542.1433 330.9412,-539.4976 331.5305,-546.4728"/>
</g>
<!-- Node298 -->
<g id="node9" class="node">
<title>Node298</title>
<g id="a_node9"><a xlink:href="wallet_2wallet_8cpp.html#a9bc62b5b6dea0a67f248bc07019a851f" target="_top" xlink:title="HasWallets">
<polygon fill="#ffffff" stroke="#000000" points="351.2266,-566.5 351.2266,-584.5 417.4268,-584.5 417.4268,-566.5 351.2266,-566.5"/>
<text text-anchor="middle" x="384.3267" y="-572.5" font-family="Helvetica,sans-Serif" font-size="10.00" fill="#000000">HasWallets</text>
</a>
</g>
</g>
<!-- Node297&#45;&gt;Node298 -->
<g id="edge8" class="edge">
<title>Node297&#45;&gt;Node298</title>
<path fill="none" stroke="#191970" d="M233.1737,-562.0211C267.7257,-565.1022 309.9205,-568.8649 340.9395,-571.631"/>
<polygon fill="#191970" stroke="#191970" points="340.732,-575.1263 351.0034,-572.5284 341.3538,-568.154 340.732,-575.1263"/>
</g>
<!-- Node302 -->
<g id="node13" class="node">
<title>Node302</title>
<g id="a_node13"><a xlink:href="class_args_manager.html#a3e1f493f816858124c942e8ee29e615d" target="_top" xlink:title="Return a vector of strings of the given argument. ">
<polygon fill="#ffffff" stroke="#000000" points="325.1938,-732.5 325.1938,-750.5 443.4595,-750.5 443.4595,-732.5 325.1938,-732.5"/>
<text text-anchor="middle" x="384.3267" y="-738.5" font-family="Helvetica,sans-Serif" font-size="10.00" fill="#000000">ArgsManager::GetArgs</text>
</a>
</g>
</g>
<!-- Node301&#45;&gt;Node302 -->
<g id="edge13" class="edge">
<title>Node301&#45;&gt;Node302</title>
<path fill="none" stroke="#191970" d="M238.0909,-741.5C262.547,-741.5 290.2605,-741.5 314.9353,-741.5"/>
<polygon fill="#191970" stroke="#191970" points="314.9447,-745.0001 324.9447,-741.5 314.9446,-738.0001 314.9447,-745.0001"/>
</g>
<!-- Node303 -->
<g id="node14" class="node">
<title>Node303</title>
<g id="a_node14"><a xlink:href="class_args_manager.html#a113a1b8c5471d2fff0108058be8b86af" target="_top" xlink:title="Return true if the argument was originally passed as a negated option, i.e. ">
<polygon fill="#ffffff" stroke="#000000" points="519.8306,-673.5 519.8306,-691.5 662.564,-691.5 662.564,-673.5 519.8306,-673.5"/>
<text text-anchor="middle" x="591.1973" y="-679.5" font-family="Helvetica,sans-Serif" font-size="10.00" fill="#000000">ArgsManager::IsArgNegated</text>
</a>
</g>
</g>
<!-- Node302&#45;&gt;Node303 -->
<g id="edge14" class="edge">
<title>Node302&#45;&gt;Node303</title>
<path fill="none" stroke="#191970" d="M443.5823,-733.0599C456.2826,-730.5528 469.5147,-727.4025 481.6113,-723.5 498.451,-718.0674 501.1677,-713.034 517.6113,-706.5 528.2241,-702.283 539.9001,-698.2209 550.7638,-694.6756"/>
<polygon fill="#191970" stroke="#191970" points="551.9998,-697.955 560.4586,-691.5754 549.8677,-691.2876 551.9998,-697.955"/>
</g>
<!-- Node304 -->
<g id="node15" class="node">
<title>Node304</title>
<g id="a_node15"><a xlink:href="class_args_manager_helper.html#a863ddbcfbd113cf88cf622a0a4e32c1d" target="_top" xlink:title="Convert regular argument into the network&#45;specific setting. ">
<polygon fill="#ffffff" stroke="#000000" points="727.1016,-687.5 727.1016,-715.5 838.1455,-715.5 838.1455,-687.5 727.1016,-687.5"/>
<text text-anchor="start" x="735.1016" y="-703.5" font-family="Helvetica,sans-Serif" font-size="10.00" fill="#000000">ArgsManagerHelper::</text>
<text text-anchor="middle" x="782.6235" y="-693.5" font-family="Helvetica,sans-Serif" font-size="10.00" fill="#000000">NetworkArg</text>
</a>
</g>
</g>
<!-- Node302&#45;&gt;Node304 -->
<g id="edge17" class="edge">
<title>Node302&#45;&gt;Node304</title>
<path fill="none" stroke="#191970" d="M443.5256,-735.5548C516.5863,-728.2175 640.4609,-715.7771 716.5504,-708.1356"/>
<polygon fill="#191970" stroke="#191970" points="717.3594,-711.572 726.9596,-707.0902 716.6599,-704.607 717.3594,-711.572"/>
</g>
<!-- Node305 -->
<g id="node16" class="node">
<title>Node305</title>
<g id="a_node16"><a xlink:href="class_args_manager_helper.html#a49a4fb1c9bcd3d4d010223effa45fb6a" target="_top" xlink:title="Find arguments in a map and add them to a vector. ">
<polygon fill="#ffffff" stroke="#000000" points="535.6753,-796.5 535.6753,-824.5 646.7192,-824.5 646.7192,-796.5 535.6753,-796.5"/>
<text text-anchor="start" x="543.6753" y="-812.5" font-family="Helvetica,sans-Serif" font-size="10.00" fill="#000000">ArgsManagerHelper::</text>
<text text-anchor="middle" x="591.1973" y="-802.5" font-family="Helvetica,sans-Serif" font-size="10.00" fill="#000000">AddArgs</text>
</a>
</g>
</g>
<!-- Node302&#45;&gt;Node305 -->
<g id="edge16" class="edge">
<title>Node302&#45;&gt;Node305</title>
<path fill="none" stroke="#191970" d="M443.5098,-748.6478C456.4068,-751.4069 469.7383,-755.2236 481.6113,-760.5 499.8879,-768.6221 499.8092,-778.3849 517.6113,-787.5 521.2972,-789.3873 525.1669,-791.1543 529.1221,-792.8025"/>
<polygon fill="#191970" stroke="#191970" points="527.8715,-796.0715 538.4601,-796.4337 530.4085,-789.5474 527.8715,-796.0715"/>
</g>
<!-- Node306 -->
<g id="node17" class="node">
<title>Node306</title>
<g id="a_node17"><a xlink:href="class_args_manager_helper.html#a43f3488403e4f0433ade323e48008359" target="_top" xlink:title="Determine whether to use config settings in the default section, See also comments around ArgsManager...">
<polygon fill="#ffffff" stroke="#000000" points="535.6753,-749.5 535.6753,-777.5 646.7192,-777.5 646.7192,-749.5 535.6753,-749.5"/>
<text text-anchor="start" x="543.6753" y="-765.5" font-family="Helvetica,sans-Serif" font-size="10.00" fill="#000000">ArgsManagerHelper::</text>
<text text-anchor="middle" x="591.1973" y="-755.5" font-family="Helvetica,sans-Serif" font-size="10.00" fill="#000000">UseDefaultSection</text>
</a>
</g>
</g>
<!-- Node302&#45;&gt;Node306 -->
<g id="edge18" class="edge">
<title>Node302&#45;&gt;Node306</title>
<path fill="none" stroke="#191970" d="M443.6075,-747.8043C469.1149,-750.517 499.0327,-753.6986 525.239,-756.4856"/>
<polygon fill="#191970" stroke="#191970" points="525.1459,-759.9953 535.4599,-757.5725 525.8862,-753.0346 525.1459,-759.9953"/>
</g>
<!-- Node303&#45;&gt;Node304 -->
<g id="edge15" class="edge">
<title>Node303&#45;&gt;Node304</title>
<path fill="none" stroke="#191970" d="M662.7496,-689.6019C680.504,-691.3641 699.4453,-693.2442 716.9052,-694.9771"/>
<polygon fill="#191970" stroke="#191970" points="716.6971,-698.4736 726.994,-695.9785 717.3886,-691.5078 716.6971,-698.4736"/>
</g>
<!-- Node308 -->
<g id="node19" class="node">
<title>Node308</title>
<g id="a_node19"><a xlink:href="utilstrencodings_8cpp.html#a880a215d9e931432b095084c756a49bb" target="_top" xlink:title="Convert string to signed 32&#45;bit integer with strict parse error feedback. ">
<polygon fill="#ffffff" stroke="#000000" points="352.1445,-658.5 352.1445,-676.5 416.5088,-676.5 416.5088,-658.5 352.1445,-658.5"/>
<text text-anchor="middle" x="384.3267" y="-664.5" font-family="Helvetica,sans-Serif" font-size="10.00" fill="#000000">ParseInt32</text>
</a>
</g>
</g>
<!-- Node307&#45;&gt;Node308 -->
<g id="edge21" class="edge">
<title>Node307&#45;&gt;Node308</title>
<path fill="none" stroke="#191970" d="M217.2298,-696.5171C254.1962,-690.0977 305.7308,-681.1485 341.762,-674.8915"/>
<polygon fill="#191970" stroke="#191970" points="342.6964,-678.2817 351.9501,-673.1223 341.4987,-671.385 342.6964,-678.2817"/>
</g>
<!-- Node309 -->
<g id="node20" class="node">
<title>Node309</title>
<g id="a_node20"><a xlink:href="class_uni_value.html#a4c9a5fa9114affbf31f6e346c032be12" target="_top" xlink:title="UniValue::getValStr">
<polygon fill="#ffffff" stroke="#000000" points="333.4287,-695.5 333.4287,-713.5 435.2246,-713.5 435.2246,-695.5 333.4287,-695.5"/>
<text text-anchor="middle" x="384.3267" y="-701.5" font-family="Helvetica,sans-Serif" font-size="10.00" fill="#000000">UniValue::getValStr</text>
</a>
</g>
</g>
<!-- Node307&#45;&gt;Node309 -->
<g id="edge22" class="edge">
<title>Node307&#45;&gt;Node309</title>
<path fill="none" stroke="#191970" d="M217.2298,-704.5C248.1616,-704.5 289.2934,-704.5 323.0076,-704.5"/>
<polygon fill="#191970" stroke="#191970" points="323.213,-708.0001 333.213,-704.5 323.2129,-701.0001 323.213,-708.0001"/>
</g>
<!-- Node312 -->
<g id="node23" class="node">
<title>Node312</title>
<g id="a_node23"><a xlink:href="script_8h.html#a54e10bc63d490dd5d39d245102b81359" target="_top" xlink:title="ToByteVector">
<polygon fill="#ffffff" stroke="#000000" points="346.8638,-603.5 346.8638,-621.5 421.7896,-621.5 421.7896,-603.5 346.8638,-603.5"/>
<text text-anchor="middle" x="384.3267" y="-609.5" font-family="Helvetica,sans-Serif" font-size="10.00" fill="#000000">ToByteVector</text>
</a>
</g>
</g>
<!-- Node311&#45;&gt;Node312 -->
<g id="edge25" class="edge">
<title>Node311&#45;&gt;Node312</title>
<path fill="none" stroke="#191970" d="M242.5042,-599.8531C273.3986,-602.6081 308.7567,-605.7611 336.4398,-608.2297"/>
<polygon fill="#191970" stroke="#191970" points="336.3772,-611.738 346.6486,-609.1401 336.999,-604.7656 336.3772,-611.738"/>
</g>
<!-- Node313&#45;&gt;Node294 -->
<g id="edge30" class="edge">
<title>Node313&#45;&gt;Node294</title>
<path fill="none" stroke="#191970" d="M176.6725,-340.7433C198.3746,-377.7433 278.3373,-513.47 287.042,-519.5 299.9227,-528.4229 315.948,-533.4021 331.2514,-536.1141"/>
<polygon fill="#191970" stroke="#191970" points="330.7574,-539.579 341.1634,-537.5876 331.7867,-532.6551 330.7574,-539.579"/>
</g>
<!-- Node314 -->
<g id="node25" class="node">
<title>Node314</title>
<g id="a_node25"><a xlink:href="class_c_chain.html#ad4758bc8872ce065a9579f77c3171d40" target="_top" xlink:title="Return the maximal height in the chain. ">
<polygon fill="#ffffff" stroke="#000000" points="740.7173,-291.5 740.7173,-309.5 824.5298,-309.5 824.5298,-291.5 740.7173,-291.5"/>
<text text-anchor="middle" x="782.6235" y="-297.5" font-family="Helvetica,sans-Serif" font-size="10.00" fill="#000000">CChain::Height</text>
</a>
</g>
</g>
<!-- Node313&#45;&gt;Node314 -->
<g id="edge27" class="edge">
<title>Node313&#45;&gt;Node314</title>
<path fill="none" stroke="#191970" d="M185.6872,-322.4252C231.7795,-294.0622 380.4997,-207.3755 517.6113,-180.5 581.7996,-167.9184 607.2439,-149.3929 664.7832,-180.5 690.4832,-194.394 681.0929,-213.9171 700.7832,-235.5 718.5906,-255.0191 742.6194,-273.3635 760.0302,-285.5542"/>
<polygon fill="#191970" stroke="#191970" points="758.2381,-288.5692 768.4637,-291.3418 762.199,-282.7976 758.2381,-288.5692"/>
</g>
<!-- Node315 -->
<g id="node26" class="node">
<title>Node315</title>
<g id="a_node26"><a xlink:href="shutdown_8cpp.html#a6f201ca9fe6b594f1985c12b4482ea5a" target="_top" xlink:title="ShutdownRequested">
<polygon fill="#ffffff" stroke="#000000" points="329.9033,-.5 329.9033,-18.5 438.75,-18.5 438.75,-.5 329.9033,-.5"/>
<text text-anchor="middle" x="384.3267" y="-6.5" font-family="Helvetica,sans-Serif" font-size="10.00" fill="#000000">ShutdownRequested</text>
</a>
</g>
</g>
<!-- Node313&#45;&gt;Node315 -->
<g id="edge28" class="edge">
<title>Node313&#45;&gt;Node315</title>
<path fill="none" stroke="#191970" d="M171.8789,-322.2705C175.1333,-281.4324 193.865,-115.3946 287.042,-33.5 296.2804,-25.3802 307.8365,-19.9149 319.7253,-16.2571"/>
<polygon fill="#191970" stroke="#191970" points="320.9825,-19.5445 329.7466,-13.5912 319.1829,-12.7798 320.9825,-19.5445"/>
</g>
<!-- Node316 -->
<g id="node27" class="node">
<title>Node316</title>
<g id="a_node27"><a xlink:href="chainparams_8cpp.html#ace5c5b706d71a324a417dd2db394fd4a" target="_top" xlink:title="Return the currently selected parameters. ">
<polygon fill="#ffffff" stroke="#000000" points="359.1001,-492.5 359.1001,-510.5 409.5532,-510.5 409.5532,-492.5 359.1001,-492.5"/>
<text text-anchor="middle" x="384.3267" y="-498.5" font-family="Helvetica,sans-Serif" font-size="10.00" fill="#000000">Params</text>
</a>
</g>
</g>
<!-- Node313&#45;&gt;Node316 -->
<g id="edge29" class="edge">
<title>Node313&#45;&gt;Node316</title>
<path fill="none" stroke="#191970" d="M175.4194,-340.8347C187.9388,-367.7581 228.0732,-445.9584 287.042,-482.5 305.5172,-493.9486 329.4422,-498.7253 348.9425,-500.6268"/>
<polygon fill="#191970" stroke="#191970" points="348.7322,-504.1209 358.9704,-501.3954 349.2672,-497.1413 348.7322,-504.1209"/>
</g>
<!-- Node317 -->
<g id="node28" class="node">
<title>Node317</title>
<g id="a_node28"><a xlink:href="miner_8cpp.html#a4873920d6e6dc589a2062dd3f17e2e52" target="_top" xlink:title="Modify the extranonce in a block. ">
<polygon fill="#ffffff" stroke="#000000" points="327.9722,-455.5 327.9722,-473.5 440.6812,-473.5 440.6812,-455.5 327.9722,-455.5"/>
<text text-anchor="middle" x="384.3267" y="-461.5" font-family="Helvetica,sans-Serif" font-size="10.00" fill="#000000">IncrementExtraNonce</text>
</a>
</g>
</g>
<!-- Node313&#45;&gt;Node317 -->
<g id="edge31" class="edge">
<title>Node313&#45;&gt;Node317</title>
<path fill="none" stroke="#191970" d="M178.2475,-340.7577C194.7245,-361.9038 238.3061,-413.967 287.042,-440.5 296.6341,-445.7221 307.3723,-449.8264 318.1178,-453.0469"/>
<polygon fill="#191970" stroke="#191970" points="317.3845,-456.4753 327.9553,-455.7628 319.2474,-449.7277 317.3845,-456.4753"/>
</g>
<!-- Node318 -->
<g id="node29" class="node">
<title>Node318</title>
<g id="a_node29"><a xlink:href="class_c_chain.html#a578545bde95163bee37b1be28e7b2755" target="_top" xlink:title="Returns the index entry for the tip of this chain, or nullptr if none. ">
<polygon fill="#ffffff" stroke="#000000" points="748.4077,-375.5 748.4077,-393.5 816.8394,-393.5 816.8394,-375.5 748.4077,-375.5"/>
<text text-anchor="middle" x="782.6235" y="-381.5" font-family="Helvetica,sans-Serif" font-size="10.00" fill="#000000">CChain::Tip</text>
</a>
</g>
</g>
<!-- Node313&#45;&gt;Node318 -->
<g id="edge32" class="edge">
<title>Node313&#45;&gt;Node318</title>
<path fill="none" stroke="#191970" d="M182.2846,-340.7181C201.9864,-356.6934 245.1126,-389.4452 287.042,-406.5 368.7377,-439.7298 403.5694,-404.4163 481.6113,-445.5 501.3577,-455.8951 496.935,-472.1057 517.6113,-480.5 578.2168,-505.1051 603.1574,-502.4248 664.7832,-480.5 709.0676,-464.7448 748.7768,-424.4373 768.8379,-401.3721"/>
<polygon fill="#191970" stroke="#191970" points="771.5173,-403.624 775.3119,-393.732 766.1768,-399.0986 771.5173,-403.624"/>
</g>
<!-- Node319 -->
<g id="node30" class="node">
<title>Node319</title>
<g id="a_node30"><a xlink:href="pow_8cpp.html#a4e1129d7ab72643eb7e830f7f72953d7" target="_top" xlink:title="Check whether a block hash satisfies the proof&#45;of&#45;work requirement specified by nBits. ">
<polygon fill="#ffffff" stroke="#000000" points="333.3481,-379.5 333.3481,-397.5 435.3052,-397.5 435.3052,-379.5 333.3481,-379.5"/>
<text text-anchor="middle" x="384.3267" y="-385.5" font-family="Helvetica,sans-Serif" font-size="10.00" fill="#000000">CheckProofOfWork</text>
</a>
</g>
</g>
<!-- Node313&#45;&gt;Node319 -->
<g id="edge33" class="edge">
<title>Node313&#45;&gt;Node319</title>
<path fill="none" stroke="#191970" d="M205.0208,-340.5318C241.692,-350.3422 300.3997,-366.0477 340.58,-376.7968"/>
<polygon fill="#191970" stroke="#191970" points="339.8066,-380.2129 350.3714,-379.4162 341.6157,-373.4507 339.8066,-380.2129"/>
</g>
<!-- Node322 -->
<g id="node33" class="node">
<title>Node322</title>
<g id="a_node33"><a xlink:href="class_c_block_header.html#af0239f86a13f622a826e9eea66b2d7f3" target="_top" xlink:title="CBlockHeader::GetHash">
<polygon fill="#ffffff" stroke="#000000" points="915.4712,-124.5 915.4712,-142.5 1040.9634,-142.5 1040.9634,-124.5 915.4712,-124.5"/>
<text text-anchor="middle" x="978.2173" y="-130.5" font-family="Helvetica,sans-Serif" font-size="10.00" fill="#000000">CBlockHeader::GetHash</text>
</a>
</g>
</g>
<!-- Node313&#45;&gt;Node322 -->
<g id="edge36" class="edge">
<title>Node313&#45;&gt;Node322</title>
<path fill="none" stroke="#191970" d="M172.0758,-322.3737C176.0367,-284.202 196.9321,-136.6363 287.042,-78.5 394.8656,-8.9353 739.3963,-51.8069 864.4639,-80.5 897.724,-88.1306 932.8661,-106.2631 955.1373,-119.1907"/>
<polygon fill="#191970" stroke="#191970" points="953.4661,-122.2688 963.8511,-124.3666 957.041,-116.2505 953.4661,-122.2688"/>
</g>
<!-- Node324 -->
<g id="node35" class="node">
<title>Node324</title>
<g id="a_node35"><a xlink:href="class_c_chain_params.html#aa366d4f63c8d16d625336dca61ca65e5" target="_top" xlink:title="CChainParams::GetConsensus">
<polygon fill="#ffffff" stroke="#000000" points="900.4639,-253.5 900.4639,-271.5 1055.9707,-271.5 1055.9707,-253.5 900.4639,-253.5"/>
<text text-anchor="middle" x="978.2173" y="-259.5" font-family="Helvetica,sans-Serif" font-size="10.00" fill="#000000">CChainParams::GetConsensus</text>
</a>
</g>
</g>
<!-- Node313&#45;&gt;Node324 -->
<g id="edge38" class="edge">
<title>Node313&#45;&gt;Node324</title>
<path fill="none" stroke="#191970" d="M172.5609,-322.3114C178.1911,-286.443 204.0455,-155.3364 287.042,-104.5 341.7527,-70.989 807.3618,-75.2494 864.4639,-104.5 868.2745,-106.452 937.3485,-204.3426 965.9612,-245.0417"/>
<polygon fill="#191970" stroke="#191970" points="963.1003,-247.0581 971.7131,-253.2283 968.828,-243.0339 963.1003,-247.0581"/>
</g>
<!-- Node325 -->
<g id="node36" class="node">
<title>Node325</title>
<g id="a_node36"><a xlink:href="validation_8cpp.html#a290fce59049c0951b8eb73f0129bf6f0" target="_top" xlink:title="Process an incoming block. ">
<polygon fill="#ffffff" stroke="#000000" points="336.0361,-284.5 336.0361,-302.5 432.6172,-302.5 432.6172,-284.5 336.0361,-284.5"/>
<text text-anchor="middle" x="384.3267" y="-290.5" font-family="Helvetica,sans-Serif" font-size="10.00" fill="#000000">ProcessNewBlock</text>
</a>
</g>
</g>
<!-- Node313&#45;&gt;Node325 -->
<g id="edge39" class="edge">
<title>Node313&#45;&gt;Node325</title>
<path fill="none" stroke="#191970" d="M213.8649,-323.9015C245.919,-318.1847 290.2259,-310.2827 325.6339,-303.9677"/>
<polygon fill="#191970" stroke="#191970" points="326.6089,-307.3491 335.839,-302.1477 325.3798,-300.4579 326.6089,-307.3491"/>
</g>
<!-- Node338 -->
<g id="node49" class="node">
<title>Node338</title>
<g id="a_node49"><a xlink:href="class_uni_value.html#a944cd1b59b040cd24c9f46b55a68d49a" target="_top" xlink:title="UniValue::push_back">
<polygon fill="#ffffff" stroke="#000000" points="329.4419,-114.5 329.4419,-132.5 439.2114,-132.5 439.2114,-114.5 329.4419,-114.5"/>
<text text-anchor="middle" x="384.3267" y="-120.5" font-family="Helvetica,sans-Serif" font-size="10.00" fill="#000000">UniValue::push_back</text>
</a>
</g>
</g>
<!-- Node313&#45;&gt;Node338 -->
<g id="edge59" class="edge">
<title>Node313&#45;&gt;Node338</title>
<path fill="none" stroke="#191970" d="M174.2993,-322.0859C184.6498,-291.595 221.5652,-194.791 287.042,-147.5 296.6823,-140.5372 308.111,-135.5817 319.6855,-132.0578"/>
<polygon fill="#191970" stroke="#191970" points="320.6709,-135.4171 329.4063,-129.4219 318.8388,-128.6611 320.6709,-135.4171"/>
</g>
<!-- Node320 -->
<g id="node31" class="node">
<title>Node320</title>
<g id="a_node31"><a xlink:href="classarith__uint256.html#a06c0f1937edece69b8d33f88e8d35bc8" target="_top" xlink:title="The &quot;compact&quot; format is a representation of a whole number N using an unsigned 32bit number similar t...">
<polygon fill="#ffffff" stroke="#000000" points="523.9956,-453.5 523.9956,-471.5 658.3989,-471.5 658.3989,-453.5 523.9956,-453.5"/>
<text text-anchor="middle" x="591.1973" y="-459.5" font-family="Helvetica,sans-Serif" font-size="10.00" fill="#000000">arith_uint256::SetCompact</text>
</a>
</g>
</g>
<!-- Node319&#45;&gt;Node320 -->
<g id="edge34" class="edge">
<title>Node319&#45;&gt;Node320</title>
<path fill="none" stroke="#191970" d="M435.4383,-396.393C450.8245,-399.9971 467.3889,-405.1608 481.6113,-412.5 500.375,-422.1826 498.9003,-433.7161 517.6113,-443.5 522.5075,-446.0602 527.7708,-448.2912 533.1501,-450.2322"/>
<polygon fill="#191970" stroke="#191970" points="532.3114,-453.6402 542.9039,-453.4213 534.4868,-446.9868 532.3114,-453.6402"/>
</g>
<!-- Node321 -->
<g id="node32" class="node">
<title>Node321</title>
<g id="a_node32"><a xlink:href="arith__uint256_8cpp.html#a6a6e0e2e41ba7e31c4a741eb2426a516" target="_top" xlink:title="UintToArith256">
<polygon fill="#ffffff" stroke="#000000" points="550.4019,-416.5 550.4019,-434.5 631.9927,-434.5 631.9927,-416.5 550.4019,-416.5"/>
<text text-anchor="middle" x="591.1973" y="-422.5" font-family="Helvetica,sans-Serif" font-size="10.00" fill="#000000">UintToArith256</text>
</a>
</g>
</g>
<!-- Node319&#45;&gt;Node321 -->
<g id="edge35" class="edge">
<title>Node319&#45;&gt;Node321</title>
<path fill="none" stroke="#191970" d="M434.6684,-397.5039C466.7202,-403.2366 508.1039,-410.6383 540.2687,-416.3911"/>
<polygon fill="#191970" stroke="#191970" points="539.9044,-419.8814 550.3644,-418.1968 541.1369,-412.9908 539.9044,-419.8814"/>
</g>
<!-- Node323 -->
<g id="node34" class="node">
<title>Node323</title>
<g id="a_node34"><a xlink:href="_hash_8h.html#a6de694e43f17c62025c6883965b65e63" target="_top" xlink:title="Compute the 256&#45;bit hash of an object&#39;s serialization. ">
<polygon fill="#ffffff" stroke="#000000" points="1110.5059,-124.5 1110.5059,-142.5 1188.2002,-142.5 1188.2002,-124.5 1110.5059,-124.5"/>
<text text-anchor="middle" x="1149.353" y="-130.5" font-family="Helvetica,sans-Serif" font-size="10.00" fill="#000000">SerializeHash</text>
</a>
</g>
</g>
<!-- Node322&#45;&gt;Node323 -->
<g id="edge37" class="edge">
<title>Node322&#45;&gt;Node323</title>
<path fill="none" stroke="#191970" d="M1040.9702,-133.5C1060.5186,-133.5 1081.7809,-133.5 1100.2537,-133.5"/>
<polygon fill="#191970" stroke="#191970" points="1100.4863,-137.0001 1110.4862,-133.5 1100.4862,-130.0001 1100.4863,-137.0001"/>
</g>
<!-- Node325&#45;&gt;Node295 -->
<g id="edge54" class="edge">
<title>Node325&#45;&gt;Node295</title>
<path fill="none" stroke="#191970" d="M397.273,-302.5495C420.3476,-318.2411 470.5842,-350.4501 517.6113,-367.5 672.8038,-423.7657 874.7722,-425.1893 949.1147,-423.5217"/>
<polygon fill="#191970" stroke="#191970" points="949.6268,-427.0095 959.5312,-423.2475 949.4425,-420.012 949.6268,-427.0095"/>
</g>
<!-- Node325&#45;&gt;Node324 -->
<g id="edge41" class="edge">
<title>Node325&#45;&gt;Node324</title>
<path fill="none" stroke="#191970" d="M432.6754,-290.9763C532.5832,-285.7613 763.0558,-273.731 890.1377,-267.0976"/>
<polygon fill="#191970" stroke="#191970" points="890.4263,-270.5874 900.2302,-266.5708 890.0613,-263.5969 890.4263,-270.5874"/>
</g>
<!-- Node326 -->
<g id="node37" class="node">
<title>Node326</title>
<g id="a_node37"><a xlink:href="validation_8cpp.html#abc9c65975a473d224b3b97b89d571942" target="_top" xlink:title="Functions for validating blocks and updating the block tree. ">
<polygon fill="#ffffff" stroke="#000000" points="556.7983,-190.5 556.7983,-208.5 625.5962,-208.5 625.5962,-190.5 556.7983,-190.5"/>
<text text-anchor="middle" x="591.1973" y="-196.5" font-family="Helvetica,sans-Serif" font-size="10.00" fill="#000000">CheckBlock</text>
</a>
</g>
</g>
<!-- Node325&#45;&gt;Node326 -->
<g id="edge40" class="edge">
<title>Node325&#45;&gt;Node326</title>
<path fill="none" stroke="#191970" d="M397.3257,-284.4359C420.4819,-268.6761 470.8409,-236.1299 517.6113,-217.5 526.7703,-213.8517 536.8749,-210.7967 546.5859,-208.3002"/>
<polygon fill="#191970" stroke="#191970" points="547.611,-211.6532 556.5073,-205.8994 545.9646,-204.8496 547.611,-211.6532"/>
</g>
<!-- Node327 -->
<g id="node38" class="node">
<title>Node327</title>
<g id="a_node38"><a xlink:href="class_c_chain_state.html#ae73c43d5a0296d8972b1fe69da7e10ff" target="_top" xlink:title="Store block on disk. ">
<polygon fill="#ffffff" stroke="#000000" points="524.5571,-340.5 524.5571,-358.5 657.8374,-358.5 657.8374,-340.5 524.5571,-340.5"/>
<text text-anchor="middle" x="591.1973" y="-346.5" font-family="Helvetica,sans-Serif" font-size="10.00" fill="#000000">CChainState::AcceptBlock</text>
</a>
</g>
</g>
<!-- Node325&#45;&gt;Node327 -->
<g id="edge42" class="edge">
<title>Node325&#45;&gt;Node327</title>
<path fill="none" stroke="#191970" d="M416.3304,-302.5594C443.3019,-310.1522 482.932,-321.2102 517.6113,-330.5 526.6901,-332.932 536.414,-335.4817 545.7211,-337.8953"/>
<polygon fill="#191970" stroke="#191970" points="545.0488,-341.3364 555.6063,-340.4488 546.7996,-334.5589 545.0488,-341.3364"/>
</g>
<!-- Node332 -->
<g id="node43" class="node">
<title>Node332</title>
<g id="a_node43"><a xlink:href="validationinterface_8cpp.html#a0aaad62c8654cb1868295e0682b05866" target="_top" xlink:title="GetMainSignals">
<polygon fill="#ffffff" stroke="#000000" points="547.9019,-303.5 547.9019,-321.5 634.4927,-321.5 634.4927,-303.5 547.9019,-303.5"/>
<text text-anchor="middle" x="591.1973" y="-309.5" font-family="Helvetica,sans-Serif" font-size="10.00" fill="#000000">GetMainSignals</text>
</a>
</g>
</g>
<!-- Node325&#45;&gt;Node332 -->
<g id="edge52" class="edge">
<title>Node325&#45;&gt;Node332</title>
<path fill="none" stroke="#191970" d="M432.8286,-297.9547C464.187,-300.8348 505.035,-304.5864 537.3911,-307.5582"/>
<polygon fill="#191970" stroke="#191970" points="537.2969,-311.0642 547.5752,-308.4935 537.9372,-304.0935 537.2969,-311.0642"/>
</g>
<!-- Node333 -->
<g id="node44" class="node">
<title>Node333</title>
<g id="a_node44"><a xlink:href="class_c_main_signals.html#a9105b9d5f3bda318a7d1729b7add61db" target="_top" xlink:title="CMainSignals::BlockChecked">
<polygon fill="#ffffff" stroke="#000000" points="517.6113,-227.5 517.6113,-245.5 664.7832,-245.5 664.7832,-227.5 517.6113,-227.5"/>
<text text-anchor="middle" x="591.1973" y="-233.5" font-family="Helvetica,sans-Serif" font-size="10.00" fill="#000000">CMainSignals::BlockChecked</text>
</a>
</g>
</g>
<!-- Node325&#45;&gt;Node333 -->
<g id="edge53" class="edge">
<title>Node325&#45;&gt;Node333</title>
<path fill="none" stroke="#191970" d="M417.1059,-284.4682C452.5598,-274.6994 509.2283,-259.0853 548.2259,-248.3401"/>
<polygon fill="#191970" stroke="#191970" points="549.5185,-251.6144 558.2295,-245.5838 547.659,-244.8659 549.5185,-251.6144"/>
</g>
<!-- Node334 -->
<g id="node45" class="node">
<title>Node334</title>
<g id="a_node45"><a xlink:href="validation_8cpp.html#a86ed1d2d0837b905d74c2e4192b6c06a" target="_top" xlink:title="Convert CValidationState to a human&#45;readable message for logging. ">
<polygon fill="#ffffff" stroke="#000000" points="535.3994,-114.5 535.3994,-132.5 646.9951,-132.5 646.9951,-114.5 535.3994,-114.5"/>
<text text-anchor="middle" x="591.1973" y="-120.5" font-family="Helvetica,sans-Serif" font-size="10.00" fill="#000000">FormatStateMessage</text>
</a>
</g>
</g>
<!-- Node325&#45;&gt;Node334 -->
<g id="edge55" class="edge">
<title>Node325&#45;&gt;Node334</title>
<path fill="none" stroke="#191970" d="M394.9039,-284.2568C417.2829,-264.762 471.184,-218.1318 517.6113,-180.5 535.4514,-166.0397 556.1606,-150.069 571.056,-138.7207"/>
<polygon fill="#191970" stroke="#191970" points="573.2424,-141.4553 579.0888,-132.6195 569.0084,-135.8809 573.2424,-141.4553"/>
</g>
<!-- Node327&#45;&gt;Node314 -->
<g id="edge51" class="edge">
<title>Node327&#45;&gt;Node314</title>
<path fill="none" stroke="#191970" d="M628.3923,-340.4284C640.0859,-337.4341 653.0151,-333.9761 664.7832,-330.5 680.9578,-325.7223 684.5248,-322.9843 700.7832,-318.5 710.3548,-315.86 720.6397,-313.3483 730.5773,-311.0841"/>
<polygon fill="#191970" stroke="#191970" points="731.359,-314.4959 740.3598,-308.9069 729.8382,-307.663 731.359,-314.4959"/>
</g>
<!-- Node327&#45;&gt;Node318 -->
<g id="edge50" class="edge">
<title>Node327&#45;&gt;Node318</title>
<path fill="none" stroke="#191970" d="M640.4943,-358.5134C670.718,-364.0394 709.0892,-371.0551 738.3425,-376.4038"/>
<polygon fill="#191970" stroke="#191970" points="737.8148,-379.8652 748.2812,-378.2209 739.0738,-372.9794 737.8148,-379.8652"/>
</g>
<!-- Node328 -->
<g id="node39" class="node">
<title>Node328</title>
<g id="a_node39"><a xlink:href="class_c_chain_state.html#ab70c11d94a3f6e5cae415521437ef627" target="_top" xlink:title="If a block header hasn&#39;t already been seen, call CheckBlockHeader on it, ensure that it doesn&#39;t desce...">
<polygon fill="#ffffff" stroke="#000000" points="715.9834,-328.5 715.9834,-356.5 849.2637,-356.5 849.2637,-328.5 715.9834,-328.5"/>
<text text-anchor="start" x="723.9834" y="-344.5" font-family="Helvetica,sans-Serif" font-size="10.00" fill="#000000">CChainState::AcceptBlock</text>
<text text-anchor="middle" x="782.6235" y="-334.5" font-family="Helvetica,sans-Serif" font-size="10.00" fill="#000000">Header</text>
</a>
</g>
</g>
<!-- Node327&#45;&gt;Node328 -->
<g id="edge43" class="edge">
<title>Node327&#45;&gt;Node328</title>
<path fill="none" stroke="#191970" d="M657.8802,-347.0616C673.2814,-346.4984 689.7903,-345.8947 705.5923,-345.3168"/>
<polygon fill="#191970" stroke="#191970" points="705.9903,-348.8047 715.8556,-344.9415 705.7344,-341.8094 705.9903,-348.8047"/>
</g>
<!-- Node328&#45;&gt;Node295 -->
<g id="edge48" class="edge">
<title>Node328&#45;&gt;Node295</title>
<path fill="none" stroke="#191970" d="M838.1235,-356.5489C847.0262,-359.2441 856.0678,-362.2508 864.4639,-365.5 896.1889,-377.7773 930.9096,-395.9105 953.5411,-408.4113"/>
<polygon fill="#191970" stroke="#191970" points="952.019,-411.57 962.4563,-413.3905 955.4323,-405.4586 952.019,-411.57"/>
</g>
<!-- Node328&#45;&gt;Node322 -->
<g id="edge44" class="edge">
<title>Node328&#45;&gt;Node322</title>
<path fill="none" stroke="#191970" d="M849.049,-328.467C854.5937,-325.7179 859.8374,-322.4307 864.4639,-318.5 892.6416,-294.56 881.727,-275.3754 900.4639,-243.5 920.6848,-209.0999 948.4913,-171.6904 964.789,-150.5645"/>
<polygon fill="#191970" stroke="#191970" points="967.6355,-152.6057 971.0135,-142.5638 962.1106,-148.3074 967.6355,-152.6057"/>
</g>
<!-- Node328&#45;&gt;Node324 -->
<g id="edge45" class="edge">
<title>Node328&#45;&gt;Node324</title>
<path fill="none" stroke="#191970" d="M835.4647,-328.4579C845.2083,-325.4595 855.2196,-322.1 864.4639,-318.5 895.8725,-306.2686 930.4057,-288.634 953.0883,-276.4361"/>
<polygon fill="#191970" stroke="#191970" points="954.9239,-279.422 962.0402,-271.5729 951.5823,-273.2711 954.9239,-279.422"/>
</g>
<!-- Node329 -->
<g id="node40" class="node">
<title>Node329</title>
<g id="a_node40"><a xlink:href="class_c_validation_state.html#a1646cea7505a779d16ca77237ec1e621" target="_top" xlink:title="CValidationState::Invalid">
<polygon fill="#ffffff" stroke="#000000" points="916.1084,-314.5 916.1084,-332.5 1040.3262,-332.5 1040.3262,-314.5 916.1084,-314.5"/>
<text text-anchor="middle" x="978.2173" y="-320.5" font-family="Helvetica,sans-Serif" font-size="10.00" fill="#000000">CValidationState::Invalid</text>
</a>
</g>
</g>
<!-- Node328&#45;&gt;Node329 -->
<g id="edge46" class="edge">
<title>Node328&#45;&gt;Node329</title>
<path fill="none" stroke="#191970" d="M849.3888,-336.0144C867.5971,-334.2457 887.4065,-332.3214 905.9077,-330.5242"/>
<polygon fill="#191970" stroke="#191970" points="906.4184,-333.9911 916.0331,-329.5406 905.7415,-327.0239 906.4184,-333.9911"/>
</g>
<!-- Node331 -->
<g id="node42" class="node">
<title>Node331</title>
<g id="a_node42"><a xlink:href="classbase__blob.html#a7a0d25782830d8b087c4da839f3ccdeb" target="_top" xlink:title="base_blob::ToString">
<polygon fill="#ffffff" stroke="#000000" points="926.0205,-351.5 926.0205,-369.5 1030.4141,-369.5 1030.4141,-351.5 926.0205,-351.5"/>
<text text-anchor="middle" x="978.2173" y="-357.5" font-family="Helvetica,sans-Serif" font-size="10.00" fill="#000000">base_blob::ToString</text>
</a>
</g>
</g>
<!-- Node328&#45;&gt;Node331 -->
<g id="edge49" class="edge">
<title>Node328&#45;&gt;Node331</title>
<path fill="none" stroke="#191970" d="M849.3888,-348.6442C870.8825,-350.6223 894.6073,-352.8056 915.7777,-354.7538"/>
<polygon fill="#191970" stroke="#191970" points="915.6656,-358.2582 925.9443,-355.6895 916.3072,-351.2877 915.6656,-358.2582"/>
</g>
<!-- Node330 -->
<g id="node41" class="node">
<title>Node330</title>
<g id="a_node41"><a xlink:href="class_c_validation_state.html#a084ab7448f23966f0650d3ca53d0b88a" target="_top" xlink:title="CValidationState::DoS">
<polygon fill="#ffffff" stroke="#000000" points="1091.9707,-314.5 1091.9707,-332.5 1206.7354,-332.5 1206.7354,-314.5 1091.9707,-314.5"/>
<text text-anchor="middle" x="1149.353" y="-320.5" font-family="Helvetica,sans-Serif" font-size="10.00" fill="#000000">CValidationState::DoS</text>
</a>
</g>
</g>
<!-- Node329&#45;&gt;Node330 -->
<g id="edge47" class="edge">
<title>Node329&#45;&gt;Node330</title>
<path fill="none" stroke="#191970" d="M1040.4853,-323.5C1053.889,-323.5 1068.1184,-323.5 1081.7154,-323.5"/>
<polygon fill="#191970" stroke="#191970" points="1081.9657,-327.0001 1091.9657,-323.5 1081.9656,-320.0001 1081.9657,-327.0001"/>
</g>
<!-- Node335 -->
<g id="node46" class="node">
<title>Node335</title>
<g id="a_node46"><a xlink:href="class_c_validation_state.html#a8fa9612cb40c3c8592f7cd29b5931ccd" target="_top" xlink:title="CValidationState::GetReject\lReason">
<polygon fill="#ffffff" stroke="#000000" points="712.7363,-161.5 712.7363,-189.5 852.5107,-189.5 852.5107,-161.5 712.7363,-161.5"/>
<text text-anchor="start" x="720.7363" y="-177.5" font-family="Helvetica,sans-Serif" font-size="10.00" fill="#000000">CValidationState::GetReject</text>
<text text-anchor="middle" x="782.6235" y="-167.5" font-family="Helvetica,sans-Serif" font-size="10.00" fill="#000000">Reason</text>
</a>
</g>
</g>
<!-- Node334&#45;&gt;Node335 -->
<g id="edge56" class="edge">
<title>Node334&#45;&gt;Node335</title>
<path fill="none" stroke="#191970" d="M624.5412,-132.5577C651.1402,-139.7832 689.1216,-150.1007 721.1884,-158.8115"/>
<polygon fill="#191970" stroke="#191970" points="720.3634,-162.2141 730.9312,-161.458 722.1984,-155.4589 720.3634,-162.2141"/>
</g>
<!-- Node336 -->
<g id="node47" class="node">
<title>Node336</title>
<g id="a_node47"><a xlink:href="class_c_validation_state.html#af06a17bcdea79c67c0275d43a644b52c" target="_top" xlink:title="CValidationState::GetDebug\lMessage">
<polygon fill="#ffffff" stroke="#000000" points="712.1748,-114.5 712.1748,-142.5 853.0723,-142.5 853.0723,-114.5 712.1748,-114.5"/>
<text text-anchor="start" x="720.1748" y="-130.5" font-family="Helvetica,sans-Serif" font-size="10.00" fill="#000000">CValidationState::GetDebug</text>
<text text-anchor="middle" x="782.6235" y="-120.5" font-family="Helvetica,sans-Serif" font-size="10.00" fill="#000000">Message</text>
</a>
</g>
</g>
<!-- Node334&#45;&gt;Node336 -->
<g id="edge57" class="edge">
<title>Node334&#45;&gt;Node336</title>
<path fill="none" stroke="#191970" d="M647.0803,-124.9596C664.213,-125.4071 683.418,-125.9088 701.8634,-126.3906"/>
<polygon fill="#191970" stroke="#191970" points="701.9267,-129.8933 712.0147,-126.6557 702.1095,-122.8957 701.9267,-129.8933"/>
</g>
<!-- Node337 -->
<g id="node48" class="node">
<title>Node337</title>
<g id="a_node48"><a xlink:href="class_c_validation_state.html#a01490c3326ac7d47a64976747060ac46" target="_top" xlink:title="CValidationState::GetRejectCode">
<polygon fill="#ffffff" stroke="#000000" points="700.7832,-208.5 700.7832,-226.5 864.4639,-226.5 864.4639,-208.5 700.7832,-208.5"/>
<text text-anchor="middle" x="782.6235" y="-214.5" font-family="Helvetica,sans-Serif" font-size="10.00" fill="#000000">CValidationState::GetRejectCode</text>
</a>
</g>
</g>
<!-- Node334&#45;&gt;Node337 -->
<g id="edge58" class="edge">
<title>Node334&#45;&gt;Node337</title>
<path fill="none" stroke="#191970" d="M634.6819,-132.623C645.1805,-136.1441 655.9168,-140.9576 664.7832,-147.5 687.1083,-163.9733 677.7617,-183.0149 700.7832,-198.5 704.1588,-200.7706 707.7703,-202.7719 711.5262,-204.5357"/>
<polygon fill="#191970" stroke="#191970" points="710.5267,-207.9081 721.1078,-208.449 713.1735,-201.4278 710.5267,-207.9081"/>
</g>
</g>
</svg>
