<?xml version="1.0" encoding="UTF-8" standalone="no"?>
<!DOCTYPE svg PUBLIC "-//W3C//DTD SVG 1.1//EN"
 "http://www.w3.org/Graphics/SVG/1.1/DTD/svg11.dtd">
<!-- Generated by graphviz version 2.40.1 (20161225.0304)
 -->
<!-- Title: Serialize Pages: 1 -->
<svg width="284pt" height="64pt"
 viewBox="0.00 0.00 284.22 64.00" xmlns="http://www.w3.org/2000/svg" xmlns:xlink="http://www.w3.org/1999/xlink">
<g id="graph0" class="graph" transform="scale(1 1) rotate(0) translate(4 60)">
<title>Serialize</title>
<polygon fill="#ffffff" stroke="transparent" points="-4,4 -4,-60 280.2207,-60 280.2207,4 -4,4"/>
<!-- Node260 -->
<g id="node1" class="node">
<title>Node260</title>
<polygon fill="#bfbfbf" stroke="#000000" points="0,-18.5 0,-36.5 54.3496,-36.5 54.3496,-18.5 0,-18.5"/>
<text text-anchor="middle" x="27.1748" y="-24.5" font-family="Helvetica,sans-Serif" font-size="10.00" fill="#000000">Serialize</text>
</g>
<!-- Node261 -->
<g id="node2" class="node">
<title>Node261</title>
<g id="a_node2"><a xlink:href="serialize_8h.html#a34e95dfa98a60736b9ed06a8c8241b3d" target="_top" xlink:title="ser_writedata32">
<polygon fill="#ffffff" stroke="#000000" points="97.3052,-37.5 97.3052,-55.5 184.4575,-55.5 184.4575,-37.5 97.3052,-37.5"/>
<text text-anchor="middle" x="140.8813" y="-43.5" font-family="Helvetica,sans-Serif" font-size="10.00" fill="#000000">ser_writedata32</text>
</a>
</g>
</g>
<!-- Node260&#45;&gt;Node261 -->
<g id="edge1" class="edge">
<title>Node260&#45;&gt;Node261</title>
<path fill="none" stroke="#191970" d="M54.4104,-32.051C64.2686,-33.6983 75.7753,-35.621 87.1175,-37.5162"/>
<polygon fill="#191970" stroke="#191970" points="86.5568,-40.971 96.997,-39.1671 87.7106,-34.0667 86.5568,-40.971"/>
</g>
<!-- Node263 -->
<g id="node4" class="node">
<title>Node263</title>
<g id="a_node4"><a xlink:href="serialize_8h.html#a5c61b62776def6f9edd0b5538e556f38" target="_top" xlink:title="ser_float_to_uint32">
<polygon fill="#ffffff" stroke="#000000" points="90.3496,-.5 90.3496,-18.5 191.4131,-18.5 191.4131,-.5 90.3496,-.5"/>
<text text-anchor="middle" x="140.8813" y="-6.5" font-family="Helvetica,sans-Serif" font-size="10.00" fill="#000000">ser_float_to_uint32</text>
</a>
</g>
</g>
<!-- Node260&#45;&gt;Node263 -->
<g id="edge3" class="edge">
<title>Node260&#45;&gt;Node263</title>
<path fill="none" stroke="#191970" d="M54.4104,-23.1886C62.3233,-21.9359 71.2982,-20.5152 80.3976,-19.0747"/>
<polygon fill="#191970" stroke="#191970" points="80.9462,-22.5315 90.2759,-17.5109 79.8517,-15.6176 80.9462,-22.5315"/>
</g>
<!-- Node262 -->
<g id="node3" class="node">
<title>Node262</title>
<g id="a_node3"><a xlink:href="endian_8h.html#abab10181b2a9a38233ca246e1a653b5e" target="_top" xlink:title="htole32">
<polygon fill="#ffffff" stroke="#000000" points="227.4131,-37.5 227.4131,-55.5 276.2207,-55.5 276.2207,-37.5 227.4131,-37.5"/>
<text text-anchor="middle" x="251.8169" y="-43.5" font-family="Helvetica,sans-Serif" font-size="10.00" fill="#000000">htole32</text>
</a>
</g>
</g>
<!-- Node261&#45;&gt;Node262 -->
<g id="edge2" class="edge">
<title>Node261&#45;&gt;Node262</title>
<path fill="none" stroke="#191970" d="M184.726,-46.5C195.4239,-46.5 206.7258,-46.5 216.9416,-46.5"/>
<polygon fill="#191970" stroke="#191970" points="217.1235,-50.0001 227.1235,-46.5 217.1235,-43.0001 217.1235,-50.0001"/>
</g>
</g>
</svg>
