<?xml version="1.0" encoding="UTF-8" standalone="no"?>
<!DOCTYPE svg PUBLIC "-//W3C//DTD SVG 1.1//EN"
 "http://www.w3.org/Graphics/SVG/1.1/DTD/svg11.dtd">
<!-- Generated by graphviz version 2.40.1 (20161225.0304)
 -->
<!-- Title: Unserialize Pages: 1 -->
<svg width="291pt" height="27pt"
 viewBox="0.00 0.00 291.42 27.00" xmlns="http://www.w3.org/2000/svg" xmlns:xlink="http://www.w3.org/1999/xlink">
<g id="graph0" class="graph" transform="scale(1 1) rotate(0) translate(4 23)">
<title>Unserialize</title>
<polygon fill="#ffffff" stroke="transparent" points="-4,4 -4,-23 287.418,-23 287.418,4 -4,4"/>
<!-- Node533 -->
<g id="node1" class="node">
<title>Node533</title>
<polygon fill="#bfbfbf" stroke="#000000" points="0,-.5 0,-18.5 65.4629,-18.5 65.4629,-.5 0,-.5"/>
<text text-anchor="middle" x="32.7314" y="-6.5" font-family="Helvetica,sans-Serif" font-size="10.00" fill="#000000">Unserialize</text>
</g>
<!-- Node534 -->
<g id="node2" class="node">
<title>Node534</title>
<g id="a_node2"><a xlink:href="serialize_8h.html#a831d6932e65a64840bb55376f08fe0a6" target="_top" xlink:title="Unserialize">
<polygon fill="#ffffff" stroke="#000000" points="101.4629,-.5 101.4629,-18.5 166.9258,-18.5 166.9258,-.5 101.4629,-.5"/>
<text text-anchor="middle" x="134.1943" y="-6.5" font-family="Helvetica,sans-Serif" font-size="10.00" fill="#000000">Unserialize</text>
</a>
</g>
</g>
<!-- Node533&#45;&gt;Node534 -->
<g id="edge1" class="edge">
<title>Node533&#45;&gt;Node534</title>
<path fill="none" stroke="#191970" d="M65.6735,-9.5C73.8188,-9.5 82.6647,-9.5 91.2102,-9.5"/>
<polygon fill="#191970" stroke="#191970" points="91.4176,-13.0001 101.4175,-9.5 91.4175,-6.0001 91.4176,-13.0001"/>
</g>
<!-- Node535 -->
<g id="node3" class="node">
<title>Node535</title>
<g id="a_node3"><a xlink:href="serialize_8h.html#a1d1f53d2d72386236484546b49409188" target="_top" xlink:title="ser_readdata8">
<polygon fill="#ffffff" stroke="#000000" points="202.9258,-.5 202.9258,-18.5 283.418,-18.5 283.418,-.5 202.9258,-.5"/>
<text text-anchor="middle" x="243.1719" y="-6.5" font-family="Helvetica,sans-Serif" font-size="10.00" fill="#000000">ser_readdata8</text>
</a>
</g>
</g>
<!-- Node534&#45;&gt;Node535 -->
<g id="edge2" class="edge">
<title>Node534&#45;&gt;Node535</title>
<path fill="none" stroke="#191970" d="M167.1869,-9.5C175.2017,-9.5 183.9555,-9.5 192.5785,-9.5"/>
<polygon fill="#191970" stroke="#191970" points="192.5891,-13.0001 202.589,-9.5 192.589,-6.0001 192.5891,-13.0001"/>
</g>
</g>
</svg>
