<?xml version="1.0" encoding="UTF-8" standalone="no"?>
<!DOCTYPE svg PUBLIC "-//W3C//DTD SVG 1.1//EN"
 "http://www.w3.org/Graphics/SVG/1.1/DTD/svg11.dtd">
<!-- Generated by graphviz version 2.40.1 (20161225.0304)
 -->
<!-- Title: WriteCompactSize Pages: 1 -->
<svg width="315pt" height="138pt"
 viewBox="0.00 0.00 314.58 138.00" xmlns="http://www.w3.org/2000/svg" xmlns:xlink="http://www.w3.org/1999/xlink">
<g id="graph0" class="graph" transform="scale(1 1) rotate(0) translate(4 134)">
<title>WriteCompactSize</title>
<polygon fill="#ffffff" stroke="transparent" points="-4,4 -4,-134 310.582,-134 310.582,4 -4,4"/>
<!-- Node667 -->
<g id="node1" class="node">
<title>Node667</title>
<polygon fill="#bfbfbf" stroke="#000000" points="0,-55.5 0,-73.5 98.6221,-73.5 98.6221,-55.5 0,-55.5"/>
<text text-anchor="middle" x="49.311" y="-61.5" font-family="Helvetica,sans-Serif" font-size="10.00" fill="#000000">WriteCompactSize</text>
</g>
<!-- Node668 -->
<g id="node2" class="node">
<title>Node668</title>
<g id="a_node2"><a xlink:href="serialize_8h.html#ab121fe5d3f3371e3c57b45235a8d7802" target="_top" xlink:title="ser_writedata8">
<polygon fill="#ffffff" stroke="#000000" points="137.4028,-111.5 137.4028,-129.5 218.9937,-129.5 218.9937,-111.5 137.4028,-111.5"/>
<text text-anchor="middle" x="178.1982" y="-117.5" font-family="Helvetica,sans-Serif" font-size="10.00" fill="#000000">ser_writedata8</text>
</a>
</g>
</g>
<!-- Node667&#45;&gt;Node668 -->
<g id="edge1" class="edge">
<title>Node667&#45;&gt;Node668</title>
<path fill="none" stroke="#191970" d="M69.2386,-73.5611C86.4852,-81.3588 112.1235,-92.8447 134.6221,-102.5 138.5147,-104.1705 142.6142,-105.9012 146.6779,-107.5995"/>
<polygon fill="#191970" stroke="#191970" points="145.4029,-110.8597 155.9808,-111.4597 148.0858,-104.3943 145.4029,-110.8597"/>
</g>
<!-- Node669 -->
<g id="node3" class="node">
<title>Node669</title>
<g id="a_node3"><a xlink:href="serialize_8h.html#a53ce4ae127e687a7e99c26730a93b47b" target="_top" xlink:title="ser_writedata16">
<polygon fill="#ffffff" stroke="#000000" points="134.6221,-74.5 134.6221,-92.5 221.7744,-92.5 221.7744,-74.5 134.6221,-74.5"/>
<text text-anchor="middle" x="178.1982" y="-80.5" font-family="Helvetica,sans-Serif" font-size="10.00" fill="#000000">ser_writedata16</text>
</a>
</g>
</g>
<!-- Node667&#45;&gt;Node669 -->
<g id="edge2" class="edge">
<title>Node667&#45;&gt;Node669</title>
<path fill="none" stroke="#191970" d="M98.7736,-71.7916C107.2436,-73.0402 116.0791,-74.3427 124.6498,-75.6061"/>
<polygon fill="#191970" stroke="#191970" points="124.1481,-79.0699 134.5517,-77.0658 125.1691,-72.1447 124.1481,-79.0699"/>
</g>
<!-- Node671 -->
<g id="node5" class="node">
<title>Node671</title>
<g id="a_node5"><a xlink:href="serialize_8h.html#a34e95dfa98a60736b9ed06a8c8241b3d" target="_top" xlink:title="ser_writedata32">
<polygon fill="#ffffff" stroke="#000000" points="134.6221,-37.5 134.6221,-55.5 221.7744,-55.5 221.7744,-37.5 134.6221,-37.5"/>
<text text-anchor="middle" x="178.1982" y="-43.5" font-family="Helvetica,sans-Serif" font-size="10.00" fill="#000000">ser_writedata32</text>
</a>
</g>
</g>
<!-- Node667&#45;&gt;Node671 -->
<g id="edge4" class="edge">
<title>Node667&#45;&gt;Node671</title>
<path fill="none" stroke="#191970" d="M98.7736,-57.5922C107.1515,-56.4222 115.8871,-55.2022 124.3702,-54.0175"/>
<polygon fill="#191970" stroke="#191970" points="125.1319,-57.4451 134.5517,-52.5955 124.1637,-50.5124 125.1319,-57.4451"/>
</g>
<!-- Node673 -->
<g id="node7" class="node">
<title>Node673</title>
<g id="a_node7"><a xlink:href="serialize_8h.html#aea5bd540bb61fbf26586fd71974df5e1" target="_top" xlink:title="ser_writedata64">
<polygon fill="#ffffff" stroke="#000000" points="134.6221,-.5 134.6221,-18.5 221.7744,-18.5 221.7744,-.5 134.6221,-.5"/>
<text text-anchor="middle" x="178.1982" y="-6.5" font-family="Helvetica,sans-Serif" font-size="10.00" fill="#000000">ser_writedata64</text>
</a>
</g>
</g>
<!-- Node667&#45;&gt;Node673 -->
<g id="edge6" class="edge">
<title>Node667&#45;&gt;Node673</title>
<path fill="none" stroke="#191970" d="M70.5941,-55.4179C91.5831,-46.4613 123.8766,-32.6806 147.6122,-22.552"/>
<polygon fill="#191970" stroke="#191970" points="149.0597,-25.7397 156.8835,-18.5956 146.3122,-19.3014 149.0597,-25.7397"/>
</g>
<!-- Node670 -->
<g id="node4" class="node">
<title>Node670</title>
<g id="a_node4"><a xlink:href="endian_8h.html#ad1090f8582ee1f178e9be7a7ee310942" target="_top" xlink:title="htole16">
<polygon fill="#ffffff" stroke="#000000" points="257.7744,-74.5 257.7744,-92.5 306.582,-92.5 306.582,-74.5 257.7744,-74.5"/>
<text text-anchor="middle" x="282.1782" y="-80.5" font-family="Helvetica,sans-Serif" font-size="10.00" fill="#000000">htole16</text>
</a>
</g>
</g>
<!-- Node669&#45;&gt;Node670 -->
<g id="edge3" class="edge">
<title>Node669&#45;&gt;Node670</title>
<path fill="none" stroke="#191970" d="M221.9938,-83.5C230.4838,-83.5 239.2729,-83.5 247.4246,-83.5"/>
<polygon fill="#191970" stroke="#191970" points="247.6948,-87.0001 257.6948,-83.5 247.6948,-80.0001 247.6948,-87.0001"/>
</g>
<!-- Node672 -->
<g id="node6" class="node">
<title>Node672</title>
<g id="a_node6"><a xlink:href="endian_8h.html#abab10181b2a9a38233ca246e1a653b5e" target="_top" xlink:title="htole32">
<polygon fill="#ffffff" stroke="#000000" points="257.7744,-37.5 257.7744,-55.5 306.582,-55.5 306.582,-37.5 257.7744,-37.5"/>
<text text-anchor="middle" x="282.1782" y="-43.5" font-family="Helvetica,sans-Serif" font-size="10.00" fill="#000000">htole32</text>
</a>
</g>
</g>
<!-- Node671&#45;&gt;Node672 -->
<g id="edge5" class="edge">
<title>Node671&#45;&gt;Node672</title>
<path fill="none" stroke="#191970" d="M221.9938,-46.5C230.4838,-46.5 239.2729,-46.5 247.4246,-46.5"/>
<polygon fill="#191970" stroke="#191970" points="247.6948,-50.0001 257.6948,-46.5 247.6948,-43.0001 247.6948,-50.0001"/>
</g>
<!-- Node674 -->
<g id="node8" class="node">
<title>Node674</title>
<g id="a_node8"><a xlink:href="endian_8h.html#aac7228dc3b0fe1141e61ca04e370ad6e" target="_top" xlink:title="htole64">
<polygon fill="#ffffff" stroke="#000000" points="257.7744,-.5 257.7744,-18.5 306.582,-18.5 306.582,-.5 257.7744,-.5"/>
<text text-anchor="middle" x="282.1782" y="-6.5" font-family="Helvetica,sans-Serif" font-size="10.00" fill="#000000">htole64</text>
</a>
</g>
</g>
<!-- Node673&#45;&gt;Node674 -->
<g id="edge7" class="edge">
<title>Node673&#45;&gt;Node674</title>
<path fill="none" stroke="#191970" d="M221.9938,-9.5C230.4838,-9.5 239.2729,-9.5 247.4246,-9.5"/>
<polygon fill="#191970" stroke="#191970" points="247.6948,-13.0001 257.6948,-9.5 247.6948,-6.0001 247.6948,-13.0001"/>
</g>
</g>
</svg>
