<?xml version="1.0" encoding="UTF-8" standalone="no"?>
<!DOCTYPE svg PUBLIC "-//W3C//DTD SVG 1.1//EN"
 "http://www.w3.org/Graphics/SVG/1.1/DTD/svg11.dtd">
<!-- Generated by graphviz version 2.40.1 (20161225.0304)
 -->
<!-- Title: Unserialize Pages: 1 -->
<svg width="306pt" height="64pt"
 viewBox="0.00 0.00 306.46 64.00" xmlns="http://www.w3.org/2000/svg" xmlns:xlink="http://www.w3.org/1999/xlink">
<g id="graph0" class="graph" transform="scale(1 1) rotate(0) translate(4 60)">
<title>Unserialize</title>
<polygon fill="#ffffff" stroke="transparent" points="-4,4 -4,-60 302.4619,-60 302.4619,4 -4,4"/>
<!-- Node455 -->
<g id="node1" class="node">
<title>Node455</title>
<polygon fill="#bfbfbf" stroke="#000000" points="0,-18.5 0,-36.5 65.4629,-36.5 65.4629,-18.5 0,-18.5"/>
<text text-anchor="middle" x="32.7314" y="-24.5" font-family="Helvetica,sans-Serif" font-size="10.00" fill="#000000">Unserialize</text>
</g>
<!-- Node456 -->
<g id="node2" class="node">
<title>Node456</title>
<g id="a_node2"><a xlink:href="serialize_8h.html#aabe05948cc5faad4d5368b66d337d4b5" target="_top" xlink:title="ser_uint64_to_double">
<polygon fill="#ffffff" stroke="#000000" points="101.4629,-37.5 101.4629,-55.5 213.6543,-55.5 213.6543,-37.5 101.4629,-37.5"/>
<text text-anchor="middle" x="157.5586" y="-43.5" font-family="Helvetica,sans-Serif" font-size="10.00" fill="#000000">ser_uint64_to_double</text>
</a>
</g>
</g>
<!-- Node455&#45;&gt;Node456 -->
<g id="edge1" class="edge">
<title>Node455&#45;&gt;Node456</title>
<path fill="none" stroke="#191970" d="M65.5283,-32.492C73.5057,-33.7063 82.3235,-35.0484 91.2479,-36.4068"/>
<polygon fill="#191970" stroke="#191970" points="90.9173,-39.8967 101.3301,-37.9414 91.9707,-32.9764 90.9173,-39.8967"/>
</g>
<!-- Node457 -->
<g id="node3" class="node">
<title>Node457</title>
<g id="a_node3"><a xlink:href="serialize_8h.html#aa69ce8c2279c2779e04d7b24babe10fc" target="_top" xlink:title="ser_readdata64">
<polygon fill="#ffffff" stroke="#000000" points="114.5317,-.5 114.5317,-18.5 200.5854,-18.5 200.5854,-.5 114.5317,-.5"/>
<text text-anchor="middle" x="157.5586" y="-6.5" font-family="Helvetica,sans-Serif" font-size="10.00" fill="#000000">ser_readdata64</text>
</a>
</g>
</g>
<!-- Node455&#45;&gt;Node457 -->
<g id="edge2" class="edge">
<title>Node455&#45;&gt;Node457</title>
<path fill="none" stroke="#191970" d="M65.5283,-22.7707C77.3861,-21.0608 91.1005,-19.0832 104.2622,-17.1853"/>
<polygon fill="#191970" stroke="#191970" points="104.7813,-20.6468 114.1793,-15.7553 103.7821,-13.7184 104.7813,-20.6468"/>
</g>
<!-- Node458 -->
<g id="node4" class="node">
<title>Node458</title>
<g id="a_node4"><a xlink:href="endian_8h.html#afc03933561fbd136419c5e9649f975df" target="_top" xlink:title="le64toh">
<polygon fill="#ffffff" stroke="#000000" points="249.6543,-.5 249.6543,-18.5 298.4619,-18.5 298.4619,-.5 249.6543,-.5"/>
<text text-anchor="middle" x="274.0581" y="-6.5" font-family="Helvetica,sans-Serif" font-size="10.00" fill="#000000">le64toh</text>
</a>
</g>
</g>
<!-- Node457&#45;&gt;Node458 -->
<g id="edge3" class="edge">
<title>Node457&#45;&gt;Node458</title>
<path fill="none" stroke="#191970" d="M200.6077,-9.5C213.3412,-9.5 227.1168,-9.5 239.26,-9.5"/>
<polygon fill="#191970" stroke="#191970" points="239.4439,-13.0001 249.4439,-9.5 239.4439,-6.0001 239.4439,-13.0001"/>
</g>
</g>
</svg>
