<?xml version="1.0" encoding="UTF-8" standalone="no"?>
<!DOCTYPE svg PUBLIC "-//W3C//DTD SVG 1.1//EN"
 "http://www.w3.org/Graphics/SVG/1.1/DTD/svg11.dtd">
<!-- Generated by graphviz version 2.40.1 (20161225.0304)
 -->
<!-- Title: SignSignature Pages: 1 -->
<svg width="219pt" height="64pt"
 viewBox="0.00 0.00 218.88 64.00" xmlns="http://www.w3.org/2000/svg" xmlns:xlink="http://www.w3.org/1999/xlink">
<g id="graph0" class="graph" transform="scale(1 1) rotate(0) translate(4 60)">
<title>SignSignature</title>
<polygon fill="#ffffff" stroke="transparent" points="-4,4 -4,-60 214.876,-60 214.876,4 -4,4"/>
<!-- Node78 -->
<g id="node1" class="node">
<title>Node78</title>
<polygon fill="#bfbfbf" stroke="#000000" points="0,-18.5 0,-36.5 78.8223,-36.5 78.8223,-18.5 0,-18.5"/>
<text text-anchor="middle" x="39.4111" y="-24.5" font-family="Helvetica,sans-Serif" font-size="10.00" fill="#000000">SignSignature</text>
</g>
<!-- Node79 -->
<g id="node2" class="node">
<title>Node79</title>
<g id="a_node2"><a xlink:href="sign_8cpp.html#a0c453416d09212d876bee81dc9353c16" target="_top" xlink:title="Produce a script signature using a generic signature creator. ">
<polygon fill="#ffffff" stroke="#000000" points="114.8223,-37.5 114.8223,-55.5 210.876,-55.5 210.876,-37.5 114.8223,-37.5"/>
<text text-anchor="middle" x="162.8491" y="-43.5" font-family="Helvetica,sans-Serif" font-size="10.00" fill="#000000">ProduceSignature</text>
</a>
</g>
</g>
<!-- Node78&#45;&gt;Node79 -->
<g id="edge1" class="edge">
<title>Node78&#45;&gt;Node79</title>
<path fill="none" stroke="#191970" d="M79.1471,-33.6163C87.2521,-34.8639 95.9389,-36.201 104.5373,-37.5244"/>
<polygon fill="#191970" stroke="#191970" points="104.1341,-41.0035 114.5502,-39.0657 105.1991,-34.085 104.1341,-41.0035"/>
</g>
<!-- Node80 -->
<g id="node3" class="node">
<title>Node80</title>
<g id="a_node3"><a xlink:href="sign_8cpp.html#a2051a9625f7300cb8ad7fdc1bc06f5c5" target="_top" xlink:title="UpdateInput">
<polygon fill="#ffffff" stroke="#000000" points="127.6055,-.5 127.6055,-18.5 198.0928,-18.5 198.0928,-.5 127.6055,-.5"/>
<text text-anchor="middle" x="162.8491" y="-6.5" font-family="Helvetica,sans-Serif" font-size="10.00" fill="#000000">UpdateInput</text>
</a>
</g>
</g>
<!-- Node78&#45;&gt;Node80 -->
<g id="edge2" class="edge">
<title>Node78&#45;&gt;Node80</title>
<path fill="none" stroke="#191970" d="M79.1471,-21.7056C91.2606,-19.9392 104.6736,-17.9833 117.1486,-16.1641"/>
<polygon fill="#191970" stroke="#191970" points="117.9676,-19.5818 127.3579,-14.6754 116.9575,-12.6551 117.9676,-19.5818"/>
</g>
</g>
</svg>
