<?xml version="1.0" encoding="UTF-8" standalone="no"?>
<!DOCTYPE svg PUBLIC "-//W3C//DTD SVG 1.1//EN"
 "http://www.w3.org/Graphics/SVG/1.1/DTD/svg11.dtd">
<!-- Generated by graphviz version 2.40.1 (20161225.0304)
 -->
<!-- Title: src/span.h Pages: 1 -->
<svg width="212pt" height="82pt"
 viewBox="0.00 0.00 211.63 82.00" xmlns="http://www.w3.org/2000/svg" xmlns:xlink="http://www.w3.org/1999/xlink">
<g id="graph0" class="graph" transform="scale(1 1) rotate(0) translate(4 78)">
<title>src/span.h</title>
<polygon fill="#ffffff" stroke="transparent" points="-4,4 -4,-78 207.6304,-78 207.6304,4 -4,4"/>
<!-- Node0 -->
<g id="node1" class="node">
<title>Node0</title>
<polygon fill="#bfbfbf" stroke="#000000" points="73,-55.5 73,-73.5 135.1328,-73.5 135.1328,-55.5 73,-55.5"/>
<text text-anchor="middle" x="104.0664" y="-61.5" font-family="Helvetica,sans-Serif" font-size="10.00" fill="#000000">src/span.h</text>
</g>
<!-- Node1 -->
<g id="node2" class="node">
<title>Node1</title>
<polygon fill="#ffffff" stroke="#bfbfbf" points="0,-.5 0,-18.5 62.1328,-18.5 62.1328,-.5 0,-.5"/>
<text text-anchor="middle" x="31.0664" y="-6.5" font-family="Helvetica,sans-Serif" font-size="10.00" fill="#000000">type_traits</text>
</g>
<!-- Node0&#45;&gt;Node1 -->
<g id="edge1" class="edge">
<title>Node0&#45;&gt;Node1</title>
<path fill="none" stroke="#191970" d="M92.0119,-55.4179C80.9831,-47.1084 64.4432,-34.6469 51.3757,-24.8015"/>
<polygon fill="#191970" stroke="#191970" points="53.4758,-22.0016 43.3828,-18.7795 49.2635,-27.5924 53.4758,-22.0016"/>
</g>
<!-- Node2 -->
<g id="node3" class="node">
<title>Node2</title>
<polygon fill="#ffffff" stroke="#bfbfbf" points="79.9458,-.5 79.9458,-18.5 128.187,-18.5 128.187,-.5 79.9458,-.5"/>
<text text-anchor="middle" x="104.0664" y="-6.5" font-family="Helvetica,sans-Serif" font-size="10.00" fill="#000000">cstddef</text>
</g>
<!-- Node0&#45;&gt;Node2 -->
<g id="edge2" class="edge">
<title>Node0&#45;&gt;Node2</title>
<path fill="none" stroke="#191970" d="M104.0664,-55.4179C104.0664,-48.2164 104.0664,-37.8962 104.0664,-28.8632"/>
<polygon fill="#191970" stroke="#191970" points="107.5665,-28.7794 104.0664,-18.7795 100.5665,-28.7795 107.5665,-28.7794"/>
</g>
<!-- Node3 -->
<g id="node4" class="node">
<title>Node3</title>
<polygon fill="#ffffff" stroke="#bfbfbf" points="146.5024,-.5 146.5024,-18.5 203.6304,-18.5 203.6304,-.5 146.5024,-.5"/>
<text text-anchor="middle" x="175.0664" y="-6.5" font-family="Helvetica,sans-Serif" font-size="10.00" fill="#000000">algorithm</text>
</g>
<!-- Node0&#45;&gt;Node3 -->
<g id="edge3" class="edge">
<title>Node0&#45;&gt;Node3</title>
<path fill="none" stroke="#191970" d="M115.7906,-55.4179C126.4152,-47.1876 142.2981,-34.8839 154.9495,-25.0836"/>
<polygon fill="#191970" stroke="#191970" points="157.3254,-27.6704 163.0875,-18.7795 153.0385,-22.1365 157.3254,-27.6704"/>
</g>
</g>
</svg>
