<?xml version="1.0" encoding="UTF-8" standalone="no"?>
<!DOCTYPE svg PUBLIC "-//W3C//DTD SVG 1.1//EN"
 "http://www.w3.org/Graphics/SVG/1.1/DTD/svg11.dtd">
<!-- Generated by graphviz version 2.40.1 (20161225.0304)
 -->
<!-- Title: GetScriptForMultisig Pages: 1 -->
<svg width="266pt" height="64pt"
 viewBox="0.00 0.00 266.06 64.00" xmlns="http://www.w3.org/2000/svg" xmlns:xlink="http://www.w3.org/1999/xlink">
<g id="graph0" class="graph" transform="scale(1 1) rotate(0) translate(4 60)">
<title>GetScriptForMultisig</title>
<polygon fill="#ffffff" stroke="transparent" points="-4,4 -4,-60 262.0635,-60 262.0635,4 -4,4"/>
<!-- Node165 -->
<g id="node1" class="node">
<title>Node165</title>
<polygon fill="#bfbfbf" stroke="#000000" points="0,-18.5 0,-36.5 106.5762,-36.5 106.5762,-18.5 0,-18.5"/>
<text text-anchor="middle" x="53.2881" y="-24.5" font-family="Helvetica,sans-Serif" font-size="10.00" fill="#000000">GetScriptForMultisig</text>
</g>
<!-- Node166 -->
<g id="node2" class="node">
<title>Node166</title>
<g id="a_node2"><a xlink:href="class_c_script.html#ae81b29e2e86343bedacfd4e0ef87bca6" target="_top" xlink:title="CScript::EncodeOP_N">
<polygon fill="#ffffff" stroke="#000000" points="142.5762,-37.5 142.5762,-55.5 258.0635,-55.5 258.0635,-37.5 142.5762,-37.5"/>
<text text-anchor="middle" x="200.3198" y="-43.5" font-family="Helvetica,sans-Serif" font-size="10.00" fill="#000000">CScript::EncodeOP_N</text>
</a>
</g>
</g>
<!-- Node165&#45;&gt;Node166 -->
<g id="edge1" class="edge">
<title>Node165&#45;&gt;Node166</title>
<path fill="none" stroke="#191970" d="M106.7858,-34.4132C115.0481,-35.4809 123.6755,-36.5957 132.2054,-37.698"/>
<polygon fill="#191970" stroke="#191970" points="131.7802,-41.1721 142.1463,-38.9826 132.6774,-34.2298 131.7802,-41.1721"/>
</g>
<!-- Node167 -->
<g id="node3" class="node">
<title>Node167</title>
<g id="a_node3"><a xlink:href="script_8h.html#a54e10bc63d490dd5d39d245102b81359" target="_top" xlink:title="ToByteVector">
<polygon fill="#ffffff" stroke="#000000" points="162.8569,-.5 162.8569,-18.5 237.7827,-18.5 237.7827,-.5 162.8569,-.5"/>
<text text-anchor="middle" x="200.3198" y="-6.5" font-family="Helvetica,sans-Serif" font-size="10.00" fill="#000000">ToByteVector</text>
</a>
</g>
</g>
<!-- Node165&#45;&gt;Node167 -->
<g id="edge2" class="edge">
<title>Node165&#45;&gt;Node167</title>
<path fill="none" stroke="#191970" d="M106.7858,-20.9507C121.7182,-19.1226 137.8433,-17.1485 152.4299,-15.3628"/>
<polygon fill="#191970" stroke="#191970" points="153.2397,-18.7899 162.7403,-14.1006 152.3891,-11.8418 153.2397,-18.7899"/>
</g>
</g>
</svg>
