<?xml version="1.0" encoding="UTF-8" standalone="no"?>
<!DOCTYPE svg PUBLIC "-//W3C//DTD SVG 1.1//EN"
 "http://www.w3.org/Graphics/SVG/1.1/DTD/svg11.dtd">
<!-- Generated by graphviz version 2.40.1 (20161225.0304)
 -->
<!-- Title: GetScriptForWitness Pages: 1 -->
<svg width="1166pt" height="326pt"
 viewBox="0.00 0.00 1165.70 326.00" xmlns="http://www.w3.org/2000/svg" xmlns:xlink="http://www.w3.org/1999/xlink">
<g id="graph0" class="graph" transform="scale(1 1) rotate(0) translate(4 322)">
<title>GetScriptForWitness</title>
<polygon fill="#ffffff" stroke="transparent" points="-4,4 -4,-322 1161.7002,-322 1161.7002,4 -4,4"/>
<!-- Node189 -->
<g id="node1" class="node">
<title>Node189</title>
<polygon fill="#bfbfbf" stroke="#000000" points="0,-168.5 0,-186.5 108.2412,-186.5 108.2412,-168.5 0,-168.5"/>
<text text-anchor="middle" x="54.1206" y="-174.5" font-family="Helvetica,sans-Serif" font-size="10.00" fill="#000000">GetScriptForWitness</text>
</g>
<!-- Node190 -->
<g id="node2" class="node">
<title>Node190</title>
<g id="a_node2"><a xlink:href="standard_8cpp.html#a5a3369fceeb25173e2faa4a7ebc7a4e4" target="_top" xlink:title="Parse a scriptPubKey and identify script type for standard scripts. ">
<polygon fill="#ffffff" stroke="#000000" points="183.4233,-206.5 183.4233,-224.5 227.7681,-224.5 227.7681,-206.5 183.4233,-206.5"/>
<text text-anchor="middle" x="205.5957" y="-212.5" font-family="Helvetica,sans-Serif" font-size="10.00" fill="#000000">Solver</text>
</a>
</g>
</g>
<!-- Node189&#45;&gt;Node190 -->
<g id="edge1" class="edge">
<title>Node189&#45;&gt;Node190</title>
<path fill="none" stroke="#191970" d="M90.0181,-186.5055C115.2799,-192.8428 148.8084,-201.254 173.2446,-207.3842"/>
<polygon fill="#191970" stroke="#191970" points="172.5589,-210.8206 183.11,-209.8591 174.2622,-204.0309 172.5589,-210.8206"/>
</g>
<!-- Node201 -->
<g id="node13" class="node">
<title>Node201</title>
<g id="a_node13"><a xlink:href="standard_8cpp.html#ae40f28d3b46c21033f6ee1f1200d0321" target="_top" xlink:title="Generate a Bitcoin scriptPubKey for the given CTxDestination. ">
<polygon fill="#ffffff" stroke="#000000" points="144.2412,-168.5 144.2412,-186.5 266.9502,-186.5 266.9502,-168.5 144.2412,-168.5"/>
<text text-anchor="middle" x="205.5957" y="-174.5" font-family="Helvetica,sans-Serif" font-size="10.00" fill="#000000">GetScriptForDestination</text>
</a>
</g>
</g>
<!-- Node189&#45;&gt;Node201 -->
<g id="edge17" class="edge">
<title>Node189&#45;&gt;Node201</title>
<path fill="none" stroke="#191970" d="M108.3787,-177.5C116.6768,-177.5 125.3499,-177.5 133.9524,-177.5"/>
<polygon fill="#191970" stroke="#191970" points="133.9918,-181.0001 143.9918,-177.5 133.9918,-174.0001 133.9918,-181.0001"/>
</g>
<!-- Node202 -->
<g id="node14" class="node">
<title>Node202</title>
<g id="a_node14"><a xlink:href="_hash_8h.html#a3f56a9b8501ec9d021aad11389d419c4" target="_top" xlink:title="Compute the 160&#45;bit hash an object. ">
<polygon fill="#ffffff" stroke="#000000" points="177.5811,-111.5 177.5811,-129.5 233.6104,-129.5 233.6104,-111.5 177.5811,-111.5"/>
<text text-anchor="middle" x="205.5957" y="-117.5" font-family="Helvetica,sans-Serif" font-size="10.00" fill="#000000">Hash360</text>
</a>
</g>
</g>
<!-- Node189&#45;&gt;Node202 -->
<g id="edge18" class="edge">
<title>Node189&#45;&gt;Node202</title>
<path fill="none" stroke="#191970" d="M78.1223,-168.4682C103.4196,-158.9488 143.4676,-143.8788 171.9191,-133.1725"/>
<polygon fill="#191970" stroke="#191970" points="173.3294,-136.3815 181.456,-129.5838 170.864,-129.83 173.3294,-136.3815"/>
</g>
<!-- Node191 -->
<g id="node3" class="node">
<title>Node191</title>
<g id="a_node3"><a xlink:href="class_c_script.html#a0c3729c606d318923dc06f95d85a0971" target="_top" xlink:title="CScript::IsPayToScriptHash">
<polygon fill="#ffffff" stroke="#000000" points="302.9502,-187.5 302.9502,-205.5 441.7676,-205.5 441.7676,-187.5 302.9502,-187.5"/>
<text text-anchor="middle" x="372.3589" y="-193.5" font-family="Helvetica,sans-Serif" font-size="10.00" fill="#000000">CScript::IsPayToScriptHash</text>
</a>
</g>
</g>
<!-- Node190&#45;&gt;Node191 -->
<g id="edge2" class="edge">
<title>Node190&#45;&gt;Node191</title>
<path fill="none" stroke="#191970" d="M228.0861,-212.9376C244.8891,-211.0231 268.9461,-208.2822 292.6119,-205.5859"/>
<polygon fill="#191970" stroke="#191970" points="293.1686,-209.0452 302.7081,-204.4356 292.3762,-202.0902 293.1686,-209.0452"/>
</g>
<!-- Node194 -->
<g id="node6" class="node">
<title>Node194</title>
<g id="a_node6"><a xlink:href="classprevector.html#aa9210cbe708412a70868d6e0bca844c9" target="_top" xlink:title="prevector::begin">
<polygon fill="#ffffff" stroke="#000000" points="493.3193,-299.5 493.3193,-317.5 581.0283,-317.5 581.0283,-299.5 493.3193,-299.5"/>
<text text-anchor="middle" x="537.1738" y="-305.5" font-family="Helvetica,sans-Serif" font-size="10.00" fill="#000000">prevector::begin</text>
</a>
</g>
</g>
<!-- Node190&#45;&gt;Node194 -->
<g id="edge5" class="edge">
<title>Node190&#45;&gt;Node194</title>
<path fill="none" stroke="#191970" d="M226.1829,-224.5189C245.6828,-232.8251 275.9218,-245.098 302.9502,-253.5 363.8349,-272.4266 435.386,-288.3368 483.2375,-298.0988"/>
<polygon fill="#191970" stroke="#191970" points="482.5811,-301.5368 493.0764,-300.0874 483.968,-294.6756 482.5811,-301.5368"/>
</g>
<!-- Node198 -->
<g id="node10" class="node">
<title>Node198</title>
<g id="a_node10"><a xlink:href="class_c_script.html#ae6f2ab1af6361c5772f62b28b19f5eae" target="_top" xlink:title="CScript::IsWitnessProgram">
<polygon fill="#ffffff" stroke="#000000" points="304.3467,-225.5 304.3467,-243.5 440.3711,-243.5 440.3711,-225.5 304.3467,-225.5"/>
<text text-anchor="middle" x="372.3589" y="-231.5" font-family="Helvetica,sans-Serif" font-size="10.00" fill="#000000">CScript::IsWitnessProgram</text>
</a>
</g>
</g>
<!-- Node190&#45;&gt;Node198 -->
<g id="edge10" class="edge">
<title>Node190&#45;&gt;Node198</title>
<path fill="none" stroke="#191970" d="M228.0861,-218.0624C245.2767,-220.021 270.0597,-222.8446 294.2487,-225.6006"/>
<polygon fill="#191970" stroke="#191970" points="293.8597,-229.0788 304.1916,-226.7334 294.6522,-222.1238 293.8597,-229.0788"/>
</g>
<!-- Node192 -->
<g id="node4" class="node">
<title>Node192</title>
<g id="a_node4"><a xlink:href="classprevector.html#a626f7d206dbc24e5610631809762758b" target="_top" xlink:title="prevector::size">
<polygon fill="#ffffff" stroke="#000000" points="656.5815,-192.5 656.5815,-210.5 737.606,-210.5 737.606,-192.5 656.5815,-192.5"/>
<text text-anchor="middle" x="697.0938" y="-198.5" font-family="Helvetica,sans-Serif" font-size="10.00" fill="#000000">prevector::size</text>
</a>
</g>
</g>
<!-- Node191&#45;&gt;Node192 -->
<g id="edge3" class="edge">
<title>Node191&#45;&gt;Node192</title>
<path fill="none" stroke="#191970" d="M429.6639,-187.4911C445.2294,-185.4264 462.1101,-183.5352 477.7676,-182.5 530.4581,-179.0162 544.0047,-177.5745 596.5801,-182.5 613.7122,-184.105 632.2742,-187.2168 648.7297,-190.4648"/>
<polygon fill="#191970" stroke="#191970" points="648.1739,-193.9235 658.6717,-192.4926 649.5729,-187.0647 648.1739,-193.9235"/>
</g>
<!-- Node193 -->
<g id="node5" class="node">
<title>Node193</title>
<g id="a_node5"><a xlink:href="classprevector.html#a933e204a7e29c6bbc85479d023c00ff8" target="_top" xlink:title="prevector::is_direct">
<polygon fill="#ffffff" stroke="#000000" points="803.7231,-197.5 803.7231,-215.5 904.2007,-215.5 904.2007,-197.5 803.7231,-197.5"/>
<text text-anchor="middle" x="853.9619" y="-203.5" font-family="Helvetica,sans-Serif" font-size="10.00" fill="#000000">prevector::is_direct</text>
</a>
</g>
</g>
<!-- Node192&#45;&gt;Node193 -->
<g id="edge4" class="edge">
<title>Node192&#45;&gt;Node193</title>
<path fill="none" stroke="#191970" d="M737.8995,-202.8006C754.8271,-203.3402 774.8192,-203.9774 793.3984,-204.5696"/>
<polygon fill="#191970" stroke="#191970" points="793.4399,-208.0726 803.5463,-204.8931 793.6629,-201.0762 793.4399,-208.0726"/>
</g>
<!-- Node195 -->
<g id="node7" class="node">
<title>Node195</title>
<g id="a_node7"><a xlink:href="classprevector.html#a59f1d7bcbc751cfa0faddd7ffa184846" target="_top" xlink:title="prevector::item_ptr">
<polygon fill="#ffffff" stroke="#000000" points="647.4116,-262.5 647.4116,-280.5 746.7759,-280.5 746.7759,-262.5 647.4116,-262.5"/>
<text text-anchor="middle" x="697.0938" y="-268.5" font-family="Helvetica,sans-Serif" font-size="10.00" fill="#000000">prevector::item_ptr</text>
</a>
</g>
</g>
<!-- Node194&#45;&gt;Node195 -->
<g id="edge6" class="edge">
<title>Node194&#45;&gt;Node195</title>
<path fill="none" stroke="#191970" d="M576.2946,-299.4488C597.9623,-294.4356 625.0992,-288.1571 648.1606,-282.8215"/>
<polygon fill="#191970" stroke="#191970" points="649.1463,-286.1859 658.1,-280.5218 647.5684,-279.3661 649.1463,-286.1859"/>
</g>
<!-- Node195&#45;&gt;Node193 -->
<g id="edge7" class="edge">
<title>Node195&#45;&gt;Node193</title>
<path fill="none" stroke="#191970" d="M718.9056,-262.462C745.873,-251.2878 791.9621,-232.1903 822.6899,-219.4579"/>
<polygon fill="#191970" stroke="#191970" points="824.1845,-222.6272 832.083,-215.5658 821.5049,-216.1604 824.1845,-222.6272"/>
</g>
<!-- Node196 -->
<g id="node8" class="node">
<title>Node196</title>
<g id="a_node8"><a xlink:href="classprevector.html#a20150a43dd87c33f0e855a55bd3418e8" target="_top" xlink:title="prevector::direct_ptr">
<polygon fill="#ffffff" stroke="#000000" points="801.499,-253.5 801.499,-271.5 906.4248,-271.5 906.4248,-253.5 801.499,-253.5"/>
<text text-anchor="middle" x="853.9619" y="-259.5" font-family="Helvetica,sans-Serif" font-size="10.00" fill="#000000">prevector::direct_ptr</text>
</a>
</g>
</g>
<!-- Node195&#45;&gt;Node196 -->
<g id="edge8" class="edge">
<title>Node195&#45;&gt;Node196</title>
<path fill="none" stroke="#191970" d="M747.1591,-268.6276C761.2197,-267.8209 776.6861,-266.9335 791.3781,-266.0906"/>
<polygon fill="#191970" stroke="#191970" points="791.6159,-269.5828 801.399,-265.5157 791.2149,-262.5943 791.6159,-269.5828"/>
</g>
<!-- Node197 -->
<g id="node9" class="node">
<title>Node197</title>
<g id="a_node9"><a xlink:href="classprevector.html#ae3343cc65be9fd678b4a6f8305624de6" target="_top" xlink:title="prevector::indirect_ptr">
<polygon fill="#ffffff" stroke="#000000" points="797.6074,-290.5 797.6074,-308.5 910.3164,-308.5 910.3164,-290.5 797.6074,-290.5"/>
<text text-anchor="middle" x="853.9619" y="-296.5" font-family="Helvetica,sans-Serif" font-size="10.00" fill="#000000">prevector::indirect_ptr</text>
</a>
</g>
</g>
<!-- Node195&#45;&gt;Node197 -->
<g id="edge9" class="edge">
<title>Node195&#45;&gt;Node197</title>
<path fill="none" stroke="#191970" d="M747.1591,-280.4364C761.8698,-283.0621 778.1192,-285.9625 793.4107,-288.692"/>
<polygon fill="#191970" stroke="#191970" points="792.8359,-292.1446 803.2953,-290.4563 794.0659,-285.2535 792.8359,-292.1446"/>
</g>
<!-- Node198&#45;&gt;Node192 -->
<g id="edge11" class="edge">
<title>Node198&#45;&gt;Node192</title>
<path fill="none" stroke="#191970" d="M419.1744,-225.4634C437.4027,-222.2188 458.5037,-218.7976 477.7676,-216.5 535.4285,-209.6228 602.0223,-205.6218 646.5635,-203.5075"/>
<polygon fill="#191970" stroke="#191970" points="646.7276,-207.0037 656.5559,-203.0472 646.4055,-200.0111 646.7276,-207.0037"/>
</g>
<!-- Node198&#45;&gt;Node194 -->
<g id="edge13" class="edge">
<title>Node198&#45;&gt;Node194</title>
<path fill="none" stroke="#191970" d="M387.2709,-243.6175C407.296,-255.5794 444.2442,-276.67 477.7676,-290.5 482.8109,-292.5806 488.1828,-294.5423 493.5559,-296.3506"/>
<polygon fill="#191970" stroke="#191970" points="492.5672,-299.7091 503.1585,-299.4327 494.7065,-293.044 492.5672,-299.7091"/>
</g>
<!-- Node199 -->
<g id="node11" class="node">
<title>Node199</title>
<g id="a_node11"><a xlink:href="class_c_script.html#a7f975fca06b3e9a17da8ba23c7647e2e" target="_top" xlink:title="Encode/decode small integers: ">
<polygon fill="#ffffff" stroke="#000000" points="479.1543,-225.5 479.1543,-243.5 595.1934,-243.5 595.1934,-225.5 479.1543,-225.5"/>
<text text-anchor="middle" x="537.1738" y="-231.5" font-family="Helvetica,sans-Serif" font-size="10.00" fill="#000000">CScript::DecodeOP_N</text>
</a>
</g>
</g>
<!-- Node198&#45;&gt;Node199 -->
<g id="edge12" class="edge">
<title>Node198&#45;&gt;Node199</title>
<path fill="none" stroke="#191970" d="M440.8234,-234.5C450.1762,-234.5 459.7759,-234.5 469.1213,-234.5"/>
<polygon fill="#191970" stroke="#191970" points="469.1387,-238.0001 479.1387,-234.5 469.1387,-231.0001 469.1387,-238.0001"/>
</g>
<!-- Node200 -->
<g id="node12" class="node">
<title>Node200</title>
<g id="a_node12"><a xlink:href="classprevector.html#aab7f6e13a3cac85cc340fc6b90c5365c" target="_top" xlink:title="prevector::end">
<polygon fill="#ffffff" stroke="#000000" points="497.2109,-262.5 497.2109,-280.5 577.1367,-280.5 577.1367,-262.5 497.2109,-262.5"/>
<text text-anchor="middle" x="537.1738" y="-268.5" font-family="Helvetica,sans-Serif" font-size="10.00" fill="#000000">prevector::end</text>
</a>
</g>
</g>
<!-- Node198&#45;&gt;Node200 -->
<g id="edge14" class="edge">
<title>Node198&#45;&gt;Node200</title>
<path fill="none" stroke="#191970" d="M412.6772,-243.5512C435.1082,-248.5869 463.2265,-254.8992 487.0624,-260.2503"/>
<polygon fill="#191970" stroke="#191970" points="486.4627,-263.7027 496.9865,-262.4782 487.996,-256.8727 486.4627,-263.7027"/>
</g>
<!-- Node200&#45;&gt;Node192 -->
<g id="edge16" class="edge">
<title>Node200&#45;&gt;Node192</title>
<path fill="none" stroke="#191970" d="M570.8526,-262.4661C579.3554,-259.8673 588.3928,-256.8254 596.5801,-253.5 623.6087,-242.5218 653.098,-226.7848 673.1005,-215.5027"/>
<polygon fill="#191970" stroke="#191970" points="674.8919,-218.5103 681.8427,-210.5143 671.4226,-212.4305 674.8919,-218.5103"/>
</g>
<!-- Node200&#45;&gt;Node195 -->
<g id="edge15" class="edge">
<title>Node200&#45;&gt;Node195</title>
<path fill="none" stroke="#191970" d="M577.5284,-271.5C595.5723,-271.5 617.2161,-271.5 637.1,-271.5"/>
<polygon fill="#191970" stroke="#191970" points="637.3092,-275.0001 647.3092,-271.5 637.3092,-268.0001 637.3092,-275.0001"/>
</g>
<!-- Node203 -->
<g id="node15" class="node">
<title>Node203</title>
<g id="a_node15"><a xlink:href="class_c_hash360.html#a9268162ed4d951b479493d16f0bfb5df" target="_top" xlink:title="CHash360::Write">
<polygon fill="#ffffff" stroke="#000000" points="326.3779,-111.5 326.3779,-129.5 418.3398,-129.5 418.3398,-111.5 326.3779,-111.5"/>
<text text-anchor="middle" x="372.3589" y="-117.5" font-family="Helvetica,sans-Serif" font-size="10.00" fill="#000000">CHash360::Write</text>
</a>
</g>
</g>
<!-- Node202&#45;&gt;Node203 -->
<g id="edge19" class="edge">
<title>Node202&#45;&gt;Node203</title>
<path fill="none" stroke="#191970" d="M233.8848,-120.5C256.2975,-120.5 288.3226,-120.5 315.9303,-120.5"/>
<polygon fill="#191970" stroke="#191970" points="316.2658,-124.0001 326.2658,-120.5 316.2657,-117.0001 316.2658,-124.0001"/>
</g>
<!-- Node208 -->
<g id="node20" class="node">
<title>Node208</title>
<g id="a_node20"><a xlink:href="class_c_hash360.html#abb6b8a5693cd0b09e52bb624bafc1efd" target="_top" xlink:title="CHash360::Finalize">
<polygon fill="#ffffff" stroke="#000000" points="320.7261,-56.5 320.7261,-74.5 423.9917,-74.5 423.9917,-56.5 320.7261,-56.5"/>
<text text-anchor="middle" x="372.3589" y="-62.5" font-family="Helvetica,sans-Serif" font-size="10.00" fill="#000000">CHash360::Finalize</text>
</a>
</g>
</g>
<!-- Node202&#45;&gt;Node208 -->
<g id="edge24" class="edge">
<title>Node202&#45;&gt;Node208</title>
<path fill="none" stroke="#191970" d="M233.1333,-111.4179C261.0978,-102.1949 304.5721,-87.8567 335.4945,-77.6582"/>
<polygon fill="#191970" stroke="#191970" points="336.657,-80.9603 345.0576,-74.5042 334.4645,-74.3125 336.657,-80.9603"/>
</g>
<!-- Node204 -->
<g id="node16" class="node">
<title>Node204</title>
<g id="a_node16"><a xlink:href="class_c_s_h_a3.html#a439a0fade3fa1b7989c6cf053d39161b" target="_top" xlink:title="CSHA3::Write">
<polygon fill="#ffffff" stroke="#000000" points="498.146,-111.5 498.146,-129.5 576.2017,-129.5 576.2017,-111.5 498.146,-111.5"/>
<text text-anchor="middle" x="537.1738" y="-117.5" font-family="Helvetica,sans-Serif" font-size="10.00" fill="#000000">CSHA3::Write</text>
</a>
</g>
</g>
<!-- Node203&#45;&gt;Node204 -->
<g id="edge20" class="edge">
<title>Node203&#45;&gt;Node204</title>
<path fill="none" stroke="#191970" d="M418.7076,-120.5C440.3247,-120.5 466.0653,-120.5 488.0215,-120.5"/>
<polygon fill="#191970" stroke="#191970" points="488.1371,-124.0001 498.137,-120.5 488.137,-117.0001 488.1371,-124.0001"/>
</g>
<!-- Node205 -->
<g id="node17" class="node">
<title>Node205</title>
<g id="a_node17"><a xlink:href="class_s_h_a3__256.html#a8356957ea403c5da326fc6899b91ea71" target="_top" xlink:title="Updates the hash with more data. ">
<polygon fill="#ffffff" stroke="#000000" points="646.8379,-111.5 646.8379,-129.5 747.3496,-129.5 747.3496,-111.5 646.8379,-111.5"/>
<text text-anchor="middle" x="697.0938" y="-117.5" font-family="Helvetica,sans-Serif" font-size="10.00" fill="#000000">SHA3_256::update</text>
</a>
</g>
</g>
<!-- Node204&#45;&gt;Node205 -->
<g id="edge21" class="edge">
<title>Node204&#45;&gt;Node205</title>
<path fill="none" stroke="#191970" d="M576.2946,-120.5C594.4095,-120.5 616.347,-120.5 636.5299,-120.5"/>
<polygon fill="#191970" stroke="#191970" points="636.5825,-124.0001 646.5824,-120.5 636.5824,-117.0001 636.5825,-124.0001"/>
</g>
<!-- Node206 -->
<g id="node18" class="node">
<title>Node206</title>
<g id="a_node18"><a xlink:href="class_keccak_core.html#aaaa0355ccec0f469ac8eb577bdf853ed" target="_top" xlink:title="Updates the Keccak sponge function with more input data. ">
<polygon fill="#ffffff" stroke="#000000" points="800.6567,-111.5 800.6567,-129.5 907.2671,-129.5 907.2671,-111.5 800.6567,-111.5"/>
<text text-anchor="middle" x="853.9619" y="-117.5" font-family="Helvetica,sans-Serif" font-size="10.00" fill="#000000">KeccakCore::update</text>
</a>
</g>
</g>
<!-- Node205&#45;&gt;Node206 -->
<g id="edge22" class="edge">
<title>Node205&#45;&gt;Node206</title>
<path fill="none" stroke="#191970" d="M747.5913,-120.5C761.213,-120.5 776.1277,-120.5 790.3655,-120.5"/>
<polygon fill="#191970" stroke="#191970" points="790.585,-124.0001 800.585,-120.5 790.585,-117.0001 790.585,-124.0001"/>
</g>
<!-- Node207 -->
<g id="node19" class="node">
<title>Node207</title>
<g id="a_node19"><a xlink:href="class_keccak_core.html#aba3225c7a4ceff3580236a900b72a1c3" target="_top" xlink:title="Transform the state with the KECCAK&#45;p sponge function with b = 1600. ">
<polygon fill="#ffffff" stroke="#000000" points="946.3164,-74.5 946.3164,-92.5 1059.0254,-92.5 1059.0254,-74.5 946.3164,-74.5"/>
<text text-anchor="middle" x="1002.6709" y="-80.5" font-family="Helvetica,sans-Serif" font-size="10.00" fill="#000000">KeccakCore::keccakp</text>
</a>
</g>
</g>
<!-- Node206&#45;&gt;Node207 -->
<g id="edge23" class="edge">
<title>Node206&#45;&gt;Node207</title>
<path fill="none" stroke="#191970" d="M890.3402,-111.4488C910.3082,-106.4806 935.2712,-100.2696 956.5902,-94.9652"/>
<polygon fill="#191970" stroke="#191970" points="957.5517,-98.3328 966.4107,-92.5218 955.8615,-91.5399 957.5517,-98.3328"/>
</g>
<!-- Node209 -->
<g id="node21" class="node">
<title>Node209</title>
<g id="a_node21"><a xlink:href="class_c_s_h_a3.html#a7aa515a9a0fa6d72667d74897f699ae9" target="_top" xlink:title="CSHA3::Finalize">
<polygon fill="#ffffff" stroke="#000000" points="492.4941,-74.5 492.4941,-92.5 581.8535,-92.5 581.8535,-74.5 492.4941,-74.5"/>
<text text-anchor="middle" x="537.1738" y="-80.5" font-family="Helvetica,sans-Serif" font-size="10.00" fill="#000000">CSHA3::Finalize</text>
</a>
</g>
</g>
<!-- Node208&#45;&gt;Node209 -->
<g id="edge25" class="edge">
<title>Node208&#45;&gt;Node209</title>
<path fill="none" stroke="#191970" d="M424.0552,-71.1459C442.5347,-73.1641 463.4187,-75.445 482.1673,-77.4926"/>
<polygon fill="#191970" stroke="#191970" points="482.0138,-80.9965 492.3347,-78.603 482.7739,-74.0379 482.0138,-80.9965"/>
</g>
<!-- Node215 -->
<g id="node27" class="node">
<title>Node215</title>
<g id="a_node27"><a xlink:href="class_c_r_i_p_e_m_d160.html#a221143b9d94af623d07c4f4ba1bf6007" target="_top" xlink:title="CRIPEMD160::Write">
<polygon fill="#ffffff" stroke="#000000" points="483.4194,-.5 483.4194,-18.5 590.9282,-18.5 590.9282,-.5 483.4194,-.5"/>
<text text-anchor="middle" x="537.1738" y="-6.5" font-family="Helvetica,sans-Serif" font-size="10.00" fill="#000000">CRIPEMD160::Write</text>
</a>
</g>
</g>
<!-- Node208&#45;&gt;Node215 -->
<g id="edge33" class="edge">
<title>Node208&#45;&gt;Node215</title>
<path fill="none" stroke="#191970" d="M397.4223,-56.4801C418.7366,-48.8629 450.1851,-37.7498 477.7676,-28.5 484.4583,-26.2563 491.5926,-23.9235 498.5109,-21.6926"/>
<polygon fill="#191970" stroke="#191970" points="499.9605,-24.9034 508.4156,-18.5189 497.8245,-18.2373 499.9605,-24.9034"/>
</g>
<!-- Node217 -->
<g id="node29" class="node">
<title>Node217</title>
<g id="a_node29"><a xlink:href="class_c_r_i_p_e_m_d160.html#a2a11566fbf9d1339b819833313fc4e51" target="_top" xlink:title="CRIPEMD160::Finalize">
<polygon fill="#ffffff" stroke="#000000" points="477.7676,-37.5 477.7676,-55.5 596.5801,-55.5 596.5801,-37.5 477.7676,-37.5"/>
<text text-anchor="middle" x="537.1738" y="-43.5" font-family="Helvetica,sans-Serif" font-size="10.00" fill="#000000">CRIPEMD160::Finalize</text>
</a>
</g>
</g>
<!-- Node208&#45;&gt;Node217 -->
<g id="edge36" class="edge">
<title>Node208&#45;&gt;Node217</title>
<path fill="none" stroke="#191970" d="M424.0552,-59.5404C437.8617,-57.9488 453.0104,-56.2024 467.608,-54.5196"/>
<polygon fill="#191970" stroke="#191970" points="468.0693,-57.9897 477.6027,-53.3674 467.2676,-51.0357 468.0693,-57.9897"/>
</g>
<!-- Node210 -->
<g id="node22" class="node">
<title>Node210</title>
<g id="a_node22"><a xlink:href="class_s_h_a3__256.html#a8fe7cad1f83bd1bae1a0d521324247a1" target="_top" xlink:title="Finalizes the hashing process and returns the hash. ">
<polygon fill="#ffffff" stroke="#000000" points="646.5669,-74.5 646.5669,-92.5 747.6206,-92.5 747.6206,-74.5 646.5669,-74.5"/>
<text text-anchor="middle" x="697.0938" y="-80.5" font-family="Helvetica,sans-Serif" font-size="10.00" fill="#000000">SHA3_256::finalize</text>
</a>
</g>
</g>
<!-- Node209&#45;&gt;Node210 -->
<g id="edge26" class="edge">
<title>Node209&#45;&gt;Node210</title>
<path fill="none" stroke="#191970" d="M582.146,-83.5C598.9825,-83.5 618.397,-83.5 636.4211,-83.5"/>
<polygon fill="#191970" stroke="#191970" points="636.5533,-87.0001 646.5533,-83.5 636.5532,-80.0001 636.5533,-87.0001"/>
</g>
<!-- Node211 -->
<g id="node23" class="node">
<title>Node211</title>
<g id="a_node23"><a xlink:href="class_keccak_core.html#a97852ee4381ced17ee6d21704cf0b4d7" target="_top" xlink:title="Pads the last block of input data to blockSize(). ">
<polygon fill="#ffffff" stroke="#000000" points="807.6074,-74.5 807.6074,-92.5 900.3164,-92.5 900.3164,-74.5 807.6074,-74.5"/>
<text text-anchor="middle" x="853.9619" y="-80.5" font-family="Helvetica,sans-Serif" font-size="10.00" fill="#000000">KeccakCore::pad</text>
</a>
</g>
</g>
<!-- Node210&#45;&gt;Node211 -->
<g id="edge27" class="edge">
<title>Node210&#45;&gt;Node211</title>
<path fill="none" stroke="#191970" d="M748.0243,-83.5C763.7291,-83.5 781.1183,-83.5 797.1906,-83.5"/>
<polygon fill="#191970" stroke="#191970" points="797.5314,-87.0001 807.5313,-83.5 797.5313,-80.0001 797.5314,-87.0001"/>
</g>
<!-- Node212 -->
<g id="node24" class="node">
<title>Node212</title>
<g id="a_node24"><a xlink:href="class_keccak_core.html#aad83ece853c0cc15fcab947fdcba924f" target="_top" xlink:title="Extracts data from the Keccak sponge function. ">
<polygon fill="#ffffff" stroke="#000000" points="800.9448,-37.5 800.9448,-55.5 906.979,-55.5 906.979,-37.5 800.9448,-37.5"/>
<text text-anchor="middle" x="853.9619" y="-43.5" font-family="Helvetica,sans-Serif" font-size="10.00" fill="#000000">KeccakCore::extract</text>
</a>
</g>
</g>
<!-- Node210&#45;&gt;Node212 -->
<g id="edge29" class="edge">
<title>Node210&#45;&gt;Node212</title>
<path fill="none" stroke="#191970" d="M735.468,-74.4488C756.7222,-69.4356 783.3412,-63.1571 805.9626,-57.8215"/>
<polygon fill="#191970" stroke="#191970" points="806.7829,-61.2241 815.7123,-55.5218 805.1758,-54.411 806.7829,-61.2241"/>
</g>
<!-- Node211&#45;&gt;Node207 -->
<g id="edge28" class="edge">
<title>Node211&#45;&gt;Node207</title>
<path fill="none" stroke="#191970" d="M900.6064,-83.5C911.9191,-83.5 924.2306,-83.5 936.2614,-83.5"/>
<polygon fill="#191970" stroke="#191970" points="936.2732,-87.0001 946.2732,-83.5 936.2731,-80.0001 936.2732,-87.0001"/>
</g>
<!-- Node212&#45;&gt;Node207 -->
<g id="edge30" class="edge">
<title>Node212&#45;&gt;Node207</title>
<path fill="none" stroke="#191970" d="M890.3402,-55.5512C910.3082,-60.5194 935.2712,-66.7304 956.5902,-72.0348"/>
<polygon fill="#191970" stroke="#191970" points="955.8615,-75.4601 966.4107,-74.4782 957.5517,-68.6672 955.8615,-75.4601"/>
</g>
<!-- Node213 -->
<g id="node25" class="node">
<title>Node213</title>
<g id="a_node25"><a xlink:href="glibc__compat_8cpp.html#a0f46826ab0466591e136db24394923cf" target="_top" xlink:title="memcpy">
<polygon fill="#ffffff" stroke="#000000" points="975.7793,-18.5 975.7793,-36.5 1029.5625,-36.5 1029.5625,-18.5 975.7793,-18.5"/>
<text text-anchor="middle" x="1002.6709" y="-24.5" font-family="Helvetica,sans-Serif" font-size="10.00" fill="#000000">memcpy</text>
</a>
</g>
</g>
<!-- Node212&#45;&gt;Node213 -->
<g id="edge31" class="edge">
<title>Node212&#45;&gt;Node213</title>
<path fill="none" stroke="#191970" d="M907.2292,-39.6942C926.4158,-37.2428 947.6446,-34.5305 965.1999,-32.2875"/>
<polygon fill="#191970" stroke="#191970" points="966.129,-35.6974 975.6047,-30.9581 965.2417,-28.7538 966.129,-35.6974"/>
</g>
<!-- Node214 -->
<g id="node26" class="node">
<title>Node214</title>
<g id="a_node26"><a xlink:href="glibc__compat_8cpp.html#a9778d49e9029dd75bc53ecbbf9f5e9a1" target="_top" xlink:title="memmove">
<polygon fill="#ffffff" stroke="#000000" points="1095.0254,-18.5 1095.0254,-36.5 1157.7002,-36.5 1157.7002,-18.5 1095.0254,-18.5"/>
<text text-anchor="middle" x="1126.3628" y="-24.5" font-family="Helvetica,sans-Serif" font-size="10.00" fill="#000000">memmove</text>
</a>
</g>
</g>
<!-- Node213&#45;&gt;Node214 -->
<g id="edge32" class="edge">
<title>Node213&#45;&gt;Node214</title>
<path fill="none" stroke="#191970" d="M1029.8156,-27.5C1045.9414,-27.5 1066.721,-27.5 1084.8691,-27.5"/>
<polygon fill="#191970" stroke="#191970" points="1084.914,-31.0001 1094.9139,-27.5 1084.9139,-24.0001 1084.914,-31.0001"/>
</g>
<!-- Node215&#45;&gt;Node213 -->
<g id="edge34" class="edge">
<title>Node215&#45;&gt;Node213</title>
<path fill="none" stroke="#191970" d="M591.027,-11.5824C686.6339,-15.2794 883.652,-22.8977 965.6238,-26.0675"/>
<polygon fill="#191970" stroke="#191970" points="965.5938,-29.5688 975.7216,-26.4579 965.8644,-22.574 965.5938,-29.5688"/>
</g>
<!-- Node216 -->
<g id="node28" class="node">
<title>Node216</title>
<g id="a_node28"><a xlink:href="namespacesha256__shani.html#a97d2e267c87add9a1172d948e05ba471" target="_top" xlink:title="sha256_shani::Transform">
<polygon fill="#ffffff" stroke="#000000" points="632.5801,-37.5 632.5801,-55.5 761.6074,-55.5 761.6074,-37.5 632.5801,-37.5"/>
<text text-anchor="middle" x="697.0938" y="-43.5" font-family="Helvetica,sans-Serif" font-size="10.00" fill="#000000">sha256_shani::Transform</text>
</a>
</g>
</g>
<!-- Node215&#45;&gt;Node216 -->
<g id="edge35" class="edge">
<title>Node215&#45;&gt;Node216</title>
<path fill="none" stroke="#191970" d="M576.2946,-18.5512C597.9623,-23.5644 625.0992,-29.8429 648.1606,-35.1785"/>
<polygon fill="#191970" stroke="#191970" points="647.5684,-38.6339 658.1,-37.4782 649.1463,-31.8141 647.5684,-38.6339"/>
</g>
</g>
</svg>
