<?xml version="1.0" encoding="UTF-8" standalone="no"?>
<!DOCTYPE svg PUBLIC "-//W3C//DTD SVG 1.1//EN"
 "http://www.w3.org/Graphics/SVG/1.1/DTD/svg11.dtd">
<!-- Generated by graphviz version 2.40.1 (20161225.0304)
 -->
<!-- Title: PSBTOutput::Merge Pages: 1 -->
<svg width="494pt" height="64pt"
 viewBox="0.00 0.00 493.84 64.00" xmlns="http://www.w3.org/2000/svg" xmlns:xlink="http://www.w3.org/1999/xlink">
<g id="graph0" class="graph" transform="scale(1 1) rotate(0) translate(4 60)">
<title>PSBTOutput::Merge</title>
<polygon fill="#ffffff" stroke="transparent" points="-4,4 -4,-60 489.8379,-60 489.8379,4 -4,4"/>
<!-- Node28 -->
<g id="node1" class="node">
<title>Node28</title>
<polygon fill="#bfbfbf" stroke="#000000" points="0,-18.5 0,-36.5 105.8633,-36.5 105.8633,-18.5 0,-18.5"/>
<text text-anchor="middle" x="52.9316" y="-24.5" font-family="Helvetica,sans-Serif" font-size="10.00" fill="#000000">PSBTOutput::Merge</text>
</g>
<!-- Node29 -->
<g id="node2" class="node">
<title>Node29</title>
<g id="a_node2"><a xlink:href="classprevector.html#a0057a2d5ac2bbff636af5fbd87ae5235" target="_top" xlink:title="prevector::empty">
<polygon fill="#ffffff" stroke="#000000" points="141.8633,-37.5 141.8633,-55.5 232.3359,-55.5 232.3359,-37.5 141.8633,-37.5"/>
<text text-anchor="middle" x="187.0996" y="-43.5" font-family="Helvetica,sans-Serif" font-size="10.00" fill="#000000">prevector::empty</text>
</a>
</g>
</g>
<!-- Node28&#45;&gt;Node29 -->
<g id="edge1" class="edge">
<title>Node28&#45;&gt;Node29</title>
<path fill="none" stroke="#191970" d="M105.9584,-35.0093C114.487,-36.2171 123.3331,-37.4698 131.911,-38.6845"/>
<polygon fill="#191970" stroke="#191970" points="131.4306,-42.1514 141.8226,-40.0882 132.4122,-35.2205 131.4306,-42.1514"/>
</g>
<!-- Node32 -->
<g id="node5" class="node">
<title>Node32</title>
<g id="a_node5"><a xlink:href="rpcwallet_8cpp.html#ad5538a622c6163546950927f78e7aaef" target="_top" xlink:title="if">
<polygon fill="#ffffff" stroke="#000000" points="172.5996,-.5 172.5996,-18.5 201.5996,-18.5 201.5996,-.5 172.5996,-.5"/>
<text text-anchor="middle" x="187.0996" y="-6.5" font-family="Helvetica,sans-Serif" font-size="10.00" fill="#000000">if</text>
</a>
</g>
</g>
<!-- Node28&#45;&gt;Node32 -->
<g id="edge4" class="edge">
<title>Node28&#45;&gt;Node32</title>
<path fill="none" stroke="#191970" d="M105.9584,-20.3859C125.4786,-17.7671 146.6614,-14.9252 162.4875,-12.802"/>
<polygon fill="#191970" stroke="#191970" points="163.0561,-16.2571 172.5019,-11.4584 162.1253,-9.3193 163.0561,-16.2571"/>
</g>
<!-- Node30 -->
<g id="node3" class="node">
<title>Node30</title>
<g id="a_node3"><a xlink:href="classprevector.html#a626f7d206dbc24e5610631809762758b" target="_top" xlink:title="prevector::size">
<polygon fill="#ffffff" stroke="#000000" points="268.3359,-37.5 268.3359,-55.5 349.3604,-55.5 349.3604,-37.5 268.3359,-37.5"/>
<text text-anchor="middle" x="308.8481" y="-43.5" font-family="Helvetica,sans-Serif" font-size="10.00" fill="#000000">prevector::size</text>
</a>
</g>
</g>
<!-- Node29&#45;&gt;Node30 -->
<g id="edge2" class="edge">
<title>Node29&#45;&gt;Node30</title>
<path fill="none" stroke="#191970" d="M232.4343,-46.5C240.7975,-46.5 249.5801,-46.5 258.0912,-46.5"/>
<polygon fill="#191970" stroke="#191970" points="258.2918,-50.0001 268.2918,-46.5 258.2917,-43.0001 258.2918,-50.0001"/>
</g>
<!-- Node31 -->
<g id="node4" class="node">
<title>Node31</title>
<g id="a_node4"><a xlink:href="classprevector.html#a933e204a7e29c6bbc85479d023c00ff8" target="_top" xlink:title="prevector::is_direct">
<polygon fill="#ffffff" stroke="#000000" points="385.3604,-37.5 385.3604,-55.5 485.8379,-55.5 485.8379,-37.5 385.3604,-37.5"/>
<text text-anchor="middle" x="435.5991" y="-43.5" font-family="Helvetica,sans-Serif" font-size="10.00" fill="#000000">prevector::is_direct</text>
</a>
</g>
</g>
<!-- Node30&#45;&gt;Node31 -->
<g id="edge3" class="edge">
<title>Node30&#45;&gt;Node31</title>
<path fill="none" stroke="#191970" d="M349.6506,-46.5C357.7651,-46.5 366.4475,-46.5 375.0599,-46.5"/>
<polygon fill="#191970" stroke="#191970" points="375.0998,-50.0001 385.0997,-46.5 375.0997,-43.0001 375.0998,-50.0001"/>
</g>
</g>
</svg>
