<?xml version="1.0" encoding="UTF-8" standalone="no"?>
<!DOCTYPE svg PUBLIC "-//W3C//DTD SVG 1.1//EN"
 "http://www.w3.org/Graphics/SVG/1.1/DTD/svg11.dtd">
<!-- Generated by graphviz version 2.40.1 (20161225.0304)
 -->
<!-- Title: CExtKey::Derive Pages: 1 -->
<svg width="1264pt" height="518pt"
 viewBox="0.00 0.00 1263.89 517.50" xmlns="http://www.w3.org/2000/svg" xmlns:xlink="http://www.w3.org/1999/xlink">
<g id="graph0" class="graph" transform="scale(1 1) rotate(0) translate(4 513.5)">
<title>CExtKey::Derive</title>
<polygon fill="#ffffff" stroke="transparent" points="-4,4 -4,-513.5 1259.8867,-513.5 1259.8867,4 -4,4"/>
<!-- Node10 -->
<g id="node1" class="node">
<title>Node10</title>
<polygon fill="#bfbfbf" stroke="#000000" points="0,-366.5 0,-384.5 89.3545,-384.5 89.3545,-366.5 0,-366.5"/>
<text text-anchor="middle" x="44.6772" y="-372.5" font-family="Helvetica,sans-Serif" font-size="10.00" fill="#000000">CExtKey::Derive</text>
</g>
<!-- Node11 -->
<g id="node2" class="node">
<title>Node11</title>
<g id="a_node2"><a xlink:href="class_c_key.html#aa1085c59603a62db6ec776300f250337" target="_top" xlink:title="Compute the public key from a private key. ">
<polygon fill="#ffffff" stroke="#000000" points="261.5635,-347.5 261.5635,-365.5 358.7158,-365.5 358.7158,-347.5 261.5635,-347.5"/>
<text text-anchor="middle" x="310.1396" y="-353.5" font-family="Helvetica,sans-Serif" font-size="10.00" fill="#000000">CKey::GetPubKey</text>
</a>
</g>
</g>
<!-- Node10&#45;&gt;Node11 -->
<g id="edge1" class="edge">
<title>Node10&#45;&gt;Node11</title>
<path fill="none" stroke="#191970" d="M89.4091,-372.2984C133.8293,-369.1191 202.1814,-364.2269 251.0493,-360.7293"/>
<polygon fill="#191970" stroke="#191970" points="251.4412,-364.2103 261.1658,-360.0052 250.9414,-357.2281 251.4412,-364.2103"/>
</g>
<!-- Node13 -->
<g id="node4" class="node">
<title>Node13</title>
<g id="a_node4"><a xlink:href="class_c_pub_key.html#a2675f7e6f72eff68e7a5227289feb021" target="_top" xlink:title="Get the KeyID of this public key (hash of its serialization) ">
<polygon fill="#ffffff" stroke="#000000" points="125.3545,-387.5 125.3545,-405.5 215.2754,-405.5 215.2754,-387.5 125.3545,-387.5"/>
<text text-anchor="middle" x="170.3149" y="-393.5" font-family="Helvetica,sans-Serif" font-size="10.00" fill="#000000">CPubKey::GetID</text>
</a>
</g>
</g>
<!-- Node10&#45;&gt;Node13 -->
<g id="edge3" class="edge">
<title>Node10&#45;&gt;Node13</title>
<path fill="none" stroke="#191970" d="M89.6805,-383.0222C97.9802,-384.4094 106.7322,-385.8723 115.2883,-387.3024"/>
<polygon fill="#191970" stroke="#191970" points="114.7634,-390.7632 125.2037,-388.9598 115.9175,-383.859 114.7634,-390.7632"/>
</g>
<!-- Node25 -->
<g id="node16" class="node">
<title>Node25</title>
<g id="a_node16"><a xlink:href="glibc__compat_8cpp.html#a0f46826ab0466591e136db24394923cf" target="_top" xlink:title="memcpy">
<polygon fill="#ffffff" stroke="#000000" points="1073.9658,-352.5 1073.9658,-370.5 1127.749,-370.5 1127.749,-352.5 1073.9658,-352.5"/>
<text text-anchor="middle" x="1100.8574" y="-358.5" font-family="Helvetica,sans-Serif" font-size="10.00" fill="#000000">memcpy</text>
</a>
</g>
</g>
<!-- Node10&#45;&gt;Node25 -->
<g id="edge25" class="edge">
<title>Node10&#45;&gt;Node25</title>
<path fill="none" stroke="#191970" d="M54.3824,-384.7104C87.3457,-414.9848 199.1438,-509.5 310.1396,-509.5 310.1396,-509.5 310.1396,-509.5 801.3789,-509.5 919.6089,-509.5 1039.4513,-415.6463 1083.3629,-377.4165"/>
<polygon fill="#191970" stroke="#191970" points="1085.7174,-380.0066 1090.8861,-370.7581 1081.0781,-374.7647 1085.7174,-380.0066"/>
</g>
<!-- Node32 -->
<g id="node23" class="node">
<title>Node32</title>
<g id="a_node23"><a xlink:href="class_c_key.html#ae79008cec2eb799a2efd37e010996acf" target="_top" xlink:title="Derive BIP32 child key. ">
<polygon fill="#ffffff" stroke="#000000" points="132.8618,-206.5 132.8618,-224.5 207.7681,-224.5 207.7681,-206.5 132.8618,-206.5"/>
<text text-anchor="middle" x="170.3149" y="-212.5" font-family="Helvetica,sans-Serif" font-size="10.00" fill="#000000">CKey::Derive</text>
</a>
</g>
</g>
<!-- Node10&#45;&gt;Node32 -->
<g id="edge26" class="edge">
<title>Node10&#45;&gt;Node32</title>
<path fill="none" stroke="#191970" d="M51.7921,-366.4393C71.9964,-340.709 129.9759,-266.8719 156.6218,-232.9382"/>
<polygon fill="#191970" stroke="#191970" points="159.5421,-234.8865 162.9652,-224.8599 154.0365,-230.5633 159.5421,-234.8865"/>
</g>
<!-- Node12 -->
<g id="node3" class="node">
<title>Node12</title>
<g id="a_node3"><a xlink:href="secp256k1_8h.html#a7438071aa8a6dc4697abe4f4659f2161" target="_top" xlink:title="Compute the public key for a secret key. ">
<polygon fill="#ffffff" stroke="#000000" points="416.3784,-341.5 416.3784,-369.5 534.6782,-369.5 534.6782,-341.5 416.3784,-341.5"/>
<text text-anchor="start" x="424.3784" y="-357.5" font-family="Helvetica,sans-Serif" font-size="10.00" fill="#000000">secp256k1_ec_pubkey</text>
<text text-anchor="middle" x="475.5283" y="-347.5" font-family="Helvetica,sans-Serif" font-size="10.00" fill="#000000">_create</text>
</a>
</g>
</g>
<!-- Node11&#45;&gt;Node12 -->
<g id="edge2" class="edge">
<title>Node11&#45;&gt;Node12</title>
<path fill="none" stroke="#191970" d="M358.8672,-356.2054C373.64,-356.1161 390.1632,-356.0161 406.0222,-355.9203"/>
<polygon fill="#191970" stroke="#191970" points="406.3442,-359.4185 416.3228,-355.858 406.3018,-352.4186 406.3442,-359.4185"/>
</g>
<!-- Node14 -->
<g id="node5" class="node">
<title>Node14</title>
<g id="a_node5"><a xlink:href="_hash_8h.html#a3f56a9b8501ec9d021aad11389d419c4" target="_top" xlink:title="Compute the 160&#45;bit hash an object. ">
<polygon fill="#ffffff" stroke="#000000" points="282.125,-425.5 282.125,-443.5 338.1543,-443.5 338.1543,-425.5 282.125,-425.5"/>
<text text-anchor="middle" x="310.1396" y="-431.5" font-family="Helvetica,sans-Serif" font-size="10.00" fill="#000000">Hash360</text>
</a>
</g>
</g>
<!-- Node13&#45;&gt;Node14 -->
<g id="edge4" class="edge">
<title>Node13&#45;&gt;Node14</title>
<path fill="none" stroke="#191970" d="M203.4514,-405.5055C224.0876,-411.1137 250.6999,-418.3461 272.1829,-424.1845"/>
<polygon fill="#191970" stroke="#191970" points="271.3918,-427.5964 281.9597,-426.8416 273.2276,-420.8414 271.3918,-427.5964"/>
</g>
<!-- Node30 -->
<g id="node21" class="node">
<title>Node30</title>
<g id="a_node21"><a xlink:href="class_c_pub_key.html#a6bb28fcf0a5f799c69f5b7269363b309" target="_top" xlink:title="Simple read&#45;only vector&#45;like interface to the pubkey data. ">
<polygon fill="#ffffff" stroke="#000000" points="269.3467,-387.5 269.3467,-405.5 350.9326,-405.5 350.9326,-387.5 269.3467,-387.5"/>
<text text-anchor="middle" x="310.1396" y="-393.5" font-family="Helvetica,sans-Serif" font-size="10.00" fill="#000000">CPubKey::size</text>
</a>
</g>
</g>
<!-- Node13&#45;&gt;Node30 -->
<g id="edge23" class="edge">
<title>Node13&#45;&gt;Node30</title>
<path fill="none" stroke="#191970" d="M215.326,-396.5C229.2022,-396.5 244.5839,-396.5 258.8498,-396.5"/>
<polygon fill="#191970" stroke="#191970" points="259.0029,-400.0001 269.0028,-396.5 259.0028,-393.0001 259.0029,-400.0001"/>
</g>
<!-- Node15 -->
<g id="node6" class="node">
<title>Node15</title>
<g id="a_node6"><a xlink:href="class_c_hash360.html#a9268162ed4d951b479493d16f0bfb5df" target="_top" xlink:title="CHash360::Write">
<polygon fill="#ffffff" stroke="#000000" points="429.5474,-425.5 429.5474,-443.5 521.5093,-443.5 521.5093,-425.5 429.5474,-425.5"/>
<text text-anchor="middle" x="475.5283" y="-431.5" font-family="Helvetica,sans-Serif" font-size="10.00" fill="#000000">CHash360::Write</text>
</a>
</g>
</g>
<!-- Node14&#45;&gt;Node15 -->
<g id="edge5" class="edge">
<title>Node14&#45;&gt;Node15</title>
<path fill="none" stroke="#191970" d="M338.1956,-434.5C360.3418,-434.5 391.9512,-434.5 419.2627,-434.5"/>
<polygon fill="#191970" stroke="#191970" points="419.491,-438.0001 429.491,-434.5 419.4909,-431.0001 419.491,-438.0001"/>
</g>
<!-- Node20 -->
<g id="node11" class="node">
<title>Node20</title>
<g id="a_node11"><a xlink:href="class_c_hash360.html#abb6b8a5693cd0b09e52bb624bafc1efd" target="_top" xlink:title="CHash360::Finalize">
<polygon fill="#ffffff" stroke="#000000" points="423.8955,-462.5 423.8955,-480.5 527.1611,-480.5 527.1611,-462.5 423.8955,-462.5"/>
<text text-anchor="middle" x="475.5283" y="-468.5" font-family="Helvetica,sans-Serif" font-size="10.00" fill="#000000">CHash360::Finalize</text>
</a>
</g>
</g>
<!-- Node14&#45;&gt;Node20 -->
<g id="edge10" class="edge">
<title>Node14&#45;&gt;Node20</title>
<path fill="none" stroke="#191970" d="M338.1956,-440.7765C362.0208,-446.1066 396.7987,-453.887 425.3946,-460.2843"/>
<polygon fill="#191970" stroke="#191970" points="424.7005,-463.7155 435.2234,-462.4832 426.2288,-456.8843 424.7005,-463.7155"/>
</g>
<!-- Node16 -->
<g id="node7" class="node">
<title>Node16</title>
<g id="a_node7"><a xlink:href="class_c_s_h_a3.html#a439a0fade3fa1b7989c6cf053d39161b" target="_top" xlink:title="CSHA3::Write">
<polygon fill="#ffffff" stroke="#000000" points="602.4312,-191.5 602.4312,-209.5 680.4868,-209.5 680.4868,-191.5 602.4312,-191.5"/>
<text text-anchor="middle" x="641.459" y="-197.5" font-family="Helvetica,sans-Serif" font-size="10.00" fill="#000000">CSHA3::Write</text>
</a>
</g>
</g>
<!-- Node15&#45;&gt;Node16 -->
<g id="edge6" class="edge">
<title>Node15&#45;&gt;Node16</title>
<path fill="none" stroke="#191970" d="M521.7481,-430.6253C530.861,-427.8472 539.5901,-423.432 546.0527,-416.5 607.045,-351.0788 522.5247,-285.2564 582.0527,-218.5 585.1626,-215.0125 588.9232,-212.19 593.0249,-209.9073"/>
<polygon fill="#191970" stroke="#191970" points="594.7149,-212.9863 602.4289,-205.7237 591.8696,-206.5906 594.7149,-212.9863"/>
</g>
<!-- Node17 -->
<g id="node8" class="node">
<title>Node17</title>
<g id="a_node8"><a xlink:href="class_s_h_a3__256.html#a8356957ea403c5da326fc6899b91ea71" target="_top" xlink:title="Updates the hash with more data. ">
<polygon fill="#ffffff" stroke="#000000" points="751.123,-191.5 751.123,-209.5 851.6348,-209.5 851.6348,-191.5 751.123,-191.5"/>
<text text-anchor="middle" x="801.3789" y="-197.5" font-family="Helvetica,sans-Serif" font-size="10.00" fill="#000000">SHA3_256::update</text>
</a>
</g>
</g>
<!-- Node16&#45;&gt;Node17 -->
<g id="edge7" class="edge">
<title>Node16&#45;&gt;Node17</title>
<path fill="none" stroke="#191970" d="M680.5798,-200.5C698.6947,-200.5 720.6322,-200.5 740.8151,-200.5"/>
<polygon fill="#191970" stroke="#191970" points="740.8676,-204.0001 750.8676,-200.5 740.8676,-197.0001 740.8676,-204.0001"/>
</g>
<!-- Node18 -->
<g id="node9" class="node">
<title>Node18</title>
<g id="a_node9"><a xlink:href="class_keccak_core.html#aaaa0355ccec0f469ac8eb577bdf853ed" target="_top" xlink:title="Updates the Keccak sponge function with more input data. ">
<polygon fill="#ffffff" stroke="#000000" points="901.8926,-191.5 901.8926,-209.5 1008.5029,-209.5 1008.5029,-191.5 901.8926,-191.5"/>
<text text-anchor="middle" x="955.1978" y="-197.5" font-family="Helvetica,sans-Serif" font-size="10.00" fill="#000000">KeccakCore::update</text>
</a>
</g>
</g>
<!-- Node17&#45;&gt;Node18 -->
<g id="edge8" class="edge">
<title>Node17&#45;&gt;Node18</title>
<path fill="none" stroke="#191970" d="M851.7449,-200.5C864.522,-200.5 878.4131,-200.5 891.7471,-200.5"/>
<polygon fill="#191970" stroke="#191970" points="891.8075,-204.0001 901.8075,-200.5 891.8074,-197.0001 891.8075,-204.0001"/>
</g>
<!-- Node19 -->
<g id="node10" class="node">
<title>Node19</title>
<g id="a_node10"><a xlink:href="class_keccak_core.html#aba3225c7a4ceff3580236a900b72a1c3" target="_top" xlink:title="Transform the state with the KECCAK&#45;p sponge function with b = 1600. ">
<polygon fill="#ffffff" stroke="#000000" points="1044.5029,-228.5 1044.5029,-246.5 1157.2119,-246.5 1157.2119,-228.5 1044.5029,-228.5"/>
<text text-anchor="middle" x="1100.8574" y="-234.5" font-family="Helvetica,sans-Serif" font-size="10.00" fill="#000000">KeccakCore::keccakp</text>
</a>
</g>
</g>
<!-- Node18&#45;&gt;Node19 -->
<g id="edge9" class="edge">
<title>Node18&#45;&gt;Node19</title>
<path fill="none" stroke="#191970" d="M990.8301,-209.5512C1010.3002,-214.4969 1034.6185,-220.6742 1055.438,-225.9627"/>
<polygon fill="#191970" stroke="#191970" points="1054.7869,-229.4084 1065.3408,-228.4782 1056.5103,-222.6239 1054.7869,-229.4084"/>
</g>
<!-- Node21 -->
<g id="node12" class="node">
<title>Node21</title>
<g id="a_node12"><a xlink:href="class_c_s_h_a3.html#a7aa515a9a0fa6d72667d74897f699ae9" target="_top" xlink:title="CSHA3::Finalize">
<polygon fill="#ffffff" stroke="#000000" points="596.7793,-265.5 596.7793,-283.5 686.1387,-283.5 686.1387,-265.5 596.7793,-265.5"/>
<text text-anchor="middle" x="641.459" y="-271.5" font-family="Helvetica,sans-Serif" font-size="10.00" fill="#000000">CSHA3::Finalize</text>
</a>
</g>
</g>
<!-- Node20&#45;&gt;Node21 -->
<g id="edge11" class="edge">
<title>Node20&#45;&gt;Node21</title>
<path fill="none" stroke="#191970" d="M527.2128,-463.7076C533.9807,-461.1884 540.4864,-457.8693 546.0527,-453.5 553.1199,-447.9526 609.5624,-337.4708 632.1569,-292.9032"/>
<polygon fill="#191970" stroke="#191970" points="635.387,-294.2718 636.7815,-283.7691 629.1418,-291.1098 635.387,-294.2718"/>
</g>
<!-- Node27 -->
<g id="node18" class="node">
<title>Node27</title>
<g id="a_node18"><a xlink:href="class_c_r_i_p_e_m_d160.html#a221143b9d94af623d07c4f4ba1bf6007" target="_top" xlink:title="CRIPEMD160::Write">
<polygon fill="#ffffff" stroke="#000000" points="587.7046,-402.5 587.7046,-420.5 695.2134,-420.5 695.2134,-402.5 587.7046,-402.5"/>
<text text-anchor="middle" x="641.459" y="-408.5" font-family="Helvetica,sans-Serif" font-size="10.00" fill="#000000">CRIPEMD160::Write</text>
</a>
</g>
</g>
<!-- Node20&#45;&gt;Node27 -->
<g id="edge19" class="edge">
<title>Node20&#45;&gt;Node27</title>
<path fill="none" stroke="#191970" d="M515.7753,-462.4466C525.7641,-459.867 536.3772,-456.8389 546.0527,-453.5 569.5074,-445.406 595.2038,-433.9352 614.0136,-425.026"/>
<polygon fill="#191970" stroke="#191970" points="615.6712,-428.1128 623.1738,-420.6321 612.6436,-421.8014 615.6712,-428.1128"/>
</g>
<!-- Node29 -->
<g id="node20" class="node">
<title>Node29</title>
<g id="a_node20"><a xlink:href="class_c_r_i_p_e_m_d160.html#a2a11566fbf9d1339b819833313fc4e51" target="_top" xlink:title="CRIPEMD160::Finalize">
<polygon fill="#ffffff" stroke="#000000" points="582.0527,-462.5 582.0527,-480.5 700.8652,-480.5 700.8652,-462.5 582.0527,-462.5"/>
<text text-anchor="middle" x="641.459" y="-468.5" font-family="Helvetica,sans-Serif" font-size="10.00" fill="#000000">CRIPEMD160::Finalize</text>
</a>
</g>
</g>
<!-- Node20&#45;&gt;Node29 -->
<g id="edge22" class="edge">
<title>Node20&#45;&gt;Node29</title>
<path fill="none" stroke="#191970" d="M527.5746,-471.5C541.5518,-471.5 556.8953,-471.5 571.6671,-471.5"/>
<polygon fill="#191970" stroke="#191970" points="571.7786,-475.0001 581.7786,-471.5 571.7785,-468.0001 571.7786,-475.0001"/>
</g>
<!-- Node22 -->
<g id="node13" class="node">
<title>Node22</title>
<g id="a_node13"><a xlink:href="class_s_h_a3__256.html#a8fe7cad1f83bd1bae1a0d521324247a1" target="_top" xlink:title="Finalizes the hashing process and returns the hash. ">
<polygon fill="#ffffff" stroke="#000000" points="750.8521,-265.5 750.8521,-283.5 851.9058,-283.5 851.9058,-265.5 750.8521,-265.5"/>
<text text-anchor="middle" x="801.3789" y="-271.5" font-family="Helvetica,sans-Serif" font-size="10.00" fill="#000000">SHA3_256::finalize</text>
</a>
</g>
</g>
<!-- Node21&#45;&gt;Node22 -->
<g id="edge12" class="edge">
<title>Node21&#45;&gt;Node22</title>
<path fill="none" stroke="#191970" d="M686.4312,-274.5C703.2677,-274.5 722.6822,-274.5 740.7062,-274.5"/>
<polygon fill="#191970" stroke="#191970" points="740.8385,-278.0001 750.8384,-274.5 740.8384,-271.0001 740.8385,-278.0001"/>
</g>
<!-- Node23 -->
<g id="node14" class="node">
<title>Node23</title>
<g id="a_node14"><a xlink:href="class_keccak_core.html#a97852ee4381ced17ee6d21704cf0b4d7" target="_top" xlink:title="Pads the last block of input data to blockSize(). ">
<polygon fill="#ffffff" stroke="#000000" points="908.8433,-228.5 908.8433,-246.5 1001.5522,-246.5 1001.5522,-228.5 908.8433,-228.5"/>
<text text-anchor="middle" x="955.1978" y="-234.5" font-family="Helvetica,sans-Serif" font-size="10.00" fill="#000000">KeccakCore::pad</text>
</a>
</g>
</g>
<!-- Node22&#45;&gt;Node23 -->
<g id="edge13" class="edge">
<title>Node22&#45;&gt;Node23</title>
<path fill="none" stroke="#191970" d="M839.0072,-265.4488C859.7548,-260.4581 885.7158,-254.2134 907.8328,-248.8933"/>
<polygon fill="#191970" stroke="#191970" points="908.7875,-252.2636 917.6916,-246.5218 907.1504,-245.4577 908.7875,-252.2636"/>
</g>
<!-- Node24 -->
<g id="node15" class="node">
<title>Node24</title>
<g id="a_node15"><a xlink:href="class_keccak_core.html#aad83ece853c0cc15fcab947fdcba924f" target="_top" xlink:title="Extracts data from the Keccak sponge function. ">
<polygon fill="#ffffff" stroke="#000000" points="902.1807,-265.5 902.1807,-283.5 1008.2148,-283.5 1008.2148,-265.5 902.1807,-265.5"/>
<text text-anchor="middle" x="955.1978" y="-271.5" font-family="Helvetica,sans-Serif" font-size="10.00" fill="#000000">KeccakCore::extract</text>
</a>
</g>
</g>
<!-- Node22&#45;&gt;Node24 -->
<g id="edge15" class="edge">
<title>Node22&#45;&gt;Node24</title>
<path fill="none" stroke="#191970" d="M852.1712,-274.5C864.9324,-274.5 878.782,-274.5 892.0649,-274.5"/>
<polygon fill="#191970" stroke="#191970" points="892.0846,-278.0001 902.0845,-274.5 892.0845,-271.0001 892.0846,-278.0001"/>
</g>
<!-- Node23&#45;&gt;Node19 -->
<g id="edge14" class="edge">
<title>Node23&#45;&gt;Node19</title>
<path fill="none" stroke="#191970" d="M1001.6859,-237.5C1012.0763,-237.5 1023.2933,-237.5 1034.3168,-237.5"/>
<polygon fill="#191970" stroke="#191970" points="1034.3568,-241.0001 1044.3567,-237.5 1034.3567,-234.0001 1034.3568,-241.0001"/>
</g>
<!-- Node24&#45;&gt;Node19 -->
<g id="edge16" class="edge">
<title>Node24&#45;&gt;Node19</title>
<path fill="none" stroke="#191970" d="M990.8301,-265.4488C1010.3002,-260.5031 1034.6185,-254.3258 1055.438,-249.0373"/>
<polygon fill="#191970" stroke="#191970" points="1056.5103,-252.3761 1065.3408,-246.5218 1054.7869,-245.5916 1056.5103,-252.3761"/>
</g>
<!-- Node24&#45;&gt;Node25 -->
<g id="edge17" class="edge">
<title>Node24&#45;&gt;Node25</title>
<path fill="none" stroke="#191970" d="M977.6706,-283.5755C987.3489,-287.7485 998.6757,-292.9921 1008.5029,-298.5 1034.5477,-313.0974 1062.6388,-332.8993 1080.9129,-346.3804"/>
<polygon fill="#191970" stroke="#191970" points="1078.9337,-349.2704 1089.0433,-352.4401 1083.1169,-343.6578 1078.9337,-349.2704"/>
</g>
<!-- Node26 -->
<g id="node17" class="node">
<title>Node26</title>
<g id="a_node17"><a xlink:href="glibc__compat_8cpp.html#a9778d49e9029dd75bc53ecbbf9f5e9a1" target="_top" xlink:title="memmove">
<polygon fill="#ffffff" stroke="#000000" points="1193.2119,-352.5 1193.2119,-370.5 1255.8867,-370.5 1255.8867,-352.5 1193.2119,-352.5"/>
<text text-anchor="middle" x="1224.5493" y="-358.5" font-family="Helvetica,sans-Serif" font-size="10.00" fill="#000000">memmove</text>
</a>
</g>
</g>
<!-- Node25&#45;&gt;Node26 -->
<g id="edge18" class="edge">
<title>Node25&#45;&gt;Node26</title>
<path fill="none" stroke="#191970" d="M1128.0021,-361.5C1144.128,-361.5 1164.9075,-361.5 1183.0556,-361.5"/>
<polygon fill="#191970" stroke="#191970" points="1183.1005,-365.0001 1193.1004,-361.5 1183.1004,-358.0001 1183.1005,-365.0001"/>
</g>
<!-- Node27&#45;&gt;Node25 -->
<g id="edge20" class="edge">
<title>Node27&#45;&gt;Node25</title>
<path fill="none" stroke="#191970" d="M695.4918,-407.6372C740.9943,-404.2138 807.7722,-398.7907 865.8926,-392.5 935.912,-384.9214 1017.3405,-373.6185 1063.6189,-366.9597"/>
<polygon fill="#191970" stroke="#191970" points="1064.3752,-370.3868 1073.7716,-365.4921 1063.3737,-363.4588 1064.3752,-370.3868"/>
</g>
<!-- Node28 -->
<g id="node19" class="node">
<title>Node28</title>
<g id="a_node19"><a xlink:href="namespacesha256__shani.html#a97d2e267c87add9a1172d948e05ba471" target="_top" xlink:title="sha256_shani::Transform">
<polygon fill="#ffffff" stroke="#000000" points="736.8652,-364.5 736.8652,-382.5 865.8926,-382.5 865.8926,-364.5 736.8652,-364.5"/>
<text text-anchor="middle" x="801.3789" y="-370.5" font-family="Helvetica,sans-Serif" font-size="10.00" fill="#000000">sha256_shani::Transform</text>
</a>
</g>
</g>
<!-- Node27&#45;&gt;Node28 -->
<g id="edge21" class="edge">
<title>Node27&#45;&gt;Node28</title>
<path fill="none" stroke="#191970" d="M679.3578,-402.4945C701.5829,-397.2134 729.8688,-390.4921 753.6098,-384.8508"/>
<polygon fill="#191970" stroke="#191970" points="754.5554,-388.2237 763.4754,-382.5066 752.9371,-381.4133 754.5554,-388.2237"/>
</g>
<!-- Node31 -->
<g id="node22" class="node">
<title>Node31</title>
<g id="a_node22"><a xlink:href="class_c_pub_key.html#a7dc71b3f037c84268dc22de97d7b65fb" target="_top" xlink:title="Compute the length of a pubkey with a given first byte. ">
<polygon fill="#ffffff" stroke="#000000" points="427.2256,-388.5 427.2256,-406.5 523.8311,-406.5 523.8311,-388.5 427.2256,-388.5"/>
<text text-anchor="middle" x="475.5283" y="-394.5" font-family="Helvetica,sans-Serif" font-size="10.00" fill="#000000">CPubKey::GetLen</text>
</a>
</g>
</g>
<!-- Node30&#45;&gt;Node31 -->
<g id="edge24" class="edge">
<title>Node30&#45;&gt;Node31</title>
<path fill="none" stroke="#191970" d="M351.0223,-396.7472C370.9237,-396.8675 395.2097,-397.0144 417.0308,-397.1463"/>
<polygon fill="#191970" stroke="#191970" points="417.1646,-400.6471 427.1856,-397.2077 417.207,-393.6472 417.1646,-400.6471"/>
</g>
<!-- Node32&#45;&gt;Node11 -->
<g id="edge29" class="edge">
<title>Node32&#45;&gt;Node11</title>
<path fill="none" stroke="#191970" d="M174.4078,-224.7525C184.451,-246.4777 212.3615,-301.2686 251.2754,-332.5 256.5956,-336.7699 262.7785,-340.377 269.0972,-343.3925"/>
<polygon fill="#191970" stroke="#191970" points="267.7993,-346.6444 278.3675,-347.3955 270.5743,-340.2179 267.7993,-346.6444"/>
</g>
<!-- Node32&#45;&gt;Node25 -->
<g id="edge47" class="edge">
<title>Node32&#45;&gt;Node25</title>
<path fill="none" stroke="#191970" d="M175.5948,-224.5208C186.8157,-242.6973 215.0041,-283.3647 251.2754,-299.5 330.5417,-334.7617 554.7034,-312.5 641.459,-312.5 641.459,-312.5 641.459,-312.5 801.3789,-312.5 897.1015,-312.5 1007.8025,-337.1823 1064.0032,-351.5112"/>
<polygon fill="#191970" stroke="#191970" points="1063.2891,-354.9416 1073.847,-354.058 1065.0425,-348.1647 1063.2891,-354.9416"/>
</g>
<!-- Node32&#45;&gt;Node30 -->
<g id="edge30" class="edge">
<title>Node32&#45;&gt;Node30</title>
<path fill="none" stroke="#191970" d="M172.3726,-224.5669C178.9528,-251.5352 202.0005,-332.0626 251.2754,-375.5 254.526,-378.3655 258.1951,-380.8481 262.0728,-382.9974"/>
<polygon fill="#191970" stroke="#191970" points="260.8669,-386.2994 271.4011,-387.4312 263.8719,-379.9772 260.8669,-386.2994"/>
</g>
<!-- Node33 -->
<g id="node24" class="node">
<title>Node33</title>
<g id="a_node24"><a xlink:href="class_c_key.html#a56e06c48d504a1a65e244e5fc35cdecc" target="_top" xlink:title="Check whether this private key is valid. ">
<polygon fill="#ffffff" stroke="#000000" points="272.4961,-224.5 272.4961,-242.5 347.7832,-242.5 347.7832,-224.5 272.4961,-224.5"/>
<text text-anchor="middle" x="310.1396" y="-230.5" font-family="Helvetica,sans-Serif" font-size="10.00" fill="#000000">CKey::IsValid</text>
</a>
</g>
</g>
<!-- Node32&#45;&gt;Node33 -->
<g id="edge27" class="edge">
<title>Node32&#45;&gt;Node33</title>
<path fill="none" stroke="#191970" d="M207.7854,-220.3237C224.4205,-222.4652 244.2043,-225.012 261.924,-227.2931"/>
<polygon fill="#191970" stroke="#191970" points="261.7141,-230.7948 272.0791,-228.6004 262.6079,-223.8521 261.7141,-230.7948"/>
</g>
<!-- Node34 -->
<g id="node25" class="node">
<title>Node34</title>
<g id="a_node25"><a xlink:href="class_c_key.html#a96b017433a65335775cf3807d73f85ce" target="_top" xlink:title="Check whether the public key corresponding to this private key is (to be) compressed. ">
<polygon fill="#ffffff" stroke="#000000" points="254.9009,-187.5 254.9009,-205.5 365.3784,-205.5 365.3784,-187.5 254.9009,-187.5"/>
<text text-anchor="middle" x="310.1396" y="-193.5" font-family="Helvetica,sans-Serif" font-size="10.00" fill="#000000">CKey::IsCompressed</text>
</a>
</g>
</g>
<!-- Node32&#45;&gt;Node34 -->
<g id="edge28" class="edge">
<title>Node32&#45;&gt;Node34</title>
<path fill="none" stroke="#191970" d="M207.7854,-210.4083C219.1472,-208.8645 231.9779,-207.121 244.6165,-205.4036"/>
<polygon fill="#191970" stroke="#191970" points="245.2419,-208.8508 254.6795,-204.0362 244.2993,-201.9146 245.2419,-208.8508"/>
</g>
<!-- Node35 -->
<g id="node26" class="node">
<title>Node35</title>
<g id="a_node26"><a xlink:href="_hash_8cpp.html#a391c1a6a1f947abbc53cc51fc709110e" target="_top" xlink:title="BIP32Hash">
<polygon fill="#ffffff" stroke="#000000" points="276.8467,-.5 276.8467,-18.5 343.4326,-18.5 343.4326,-.5 276.8467,-.5"/>
<text text-anchor="middle" x="310.1396" y="-6.5" font-family="Helvetica,sans-Serif" font-size="10.00" fill="#000000">BIP32Hash</text>
</a>
</g>
</g>
<!-- Node32&#45;&gt;Node35 -->
<g id="edge31" class="edge">
<title>Node32&#45;&gt;Node35</title>
<path fill="none" stroke="#191970" d="M171.5633,-206.0768C176.1139,-175.522 194.6292,-78.2404 251.2754,-27.5 255.8139,-23.4347 261.2506,-20.2873 266.9604,-17.8507"/>
<polygon fill="#191970" stroke="#191970" points="268.4656,-21.0303 276.7169,-14.3845 266.1221,-14.4342 268.4656,-21.0303"/>
</g>
<!-- Node36 -->
<g id="node27" class="node">
<title>Node36</title>
<g id="a_node27"><a xlink:href="classbase__blob.html#aeee68e00ceeacf49086e98b661e017ff" target="_top" xlink:title="base_blob::begin">
<polygon fill="#ffffff" stroke="#000000" points="429.4399,-130.5 429.4399,-148.5 521.6167,-148.5 521.6167,-130.5 429.4399,-130.5"/>
<text text-anchor="middle" x="475.5283" y="-136.5" font-family="Helvetica,sans-Serif" font-size="10.00" fill="#000000">base_blob::begin</text>
</a>
</g>
</g>
<!-- Node32&#45;&gt;Node36 -->
<g id="edge48" class="edge">
<title>Node32&#45;&gt;Node36</title>
<path fill="none" stroke="#191970" d="M186.2292,-206.4437C202.1898,-197.7474 227.7148,-184.8747 251.2754,-177.5 306.9812,-160.0635 373.1252,-150.0937 419.0796,-144.7812"/>
<polygon fill="#191970" stroke="#191970" points="419.5979,-148.2451 429.1466,-143.6546 418.8193,-141.2886 419.5979,-148.2451"/>
</g>
<!-- Node44 -->
<g id="node35" class="node">
<title>Node44</title>
<g id="a_node35"><a xlink:href="class_c_pub_key.html#a859ab9909d68092d6d4fc739237ab358" target="_top" xlink:title="CPubKey::begin">
<polygon fill="#ffffff" stroke="#000000" points="266.0044,-111.5 266.0044,-129.5 354.2749,-129.5 354.2749,-111.5 266.0044,-111.5"/>
<text text-anchor="middle" x="310.1396" y="-117.5" font-family="Helvetica,sans-Serif" font-size="10.00" fill="#000000">CPubKey::begin</text>
</a>
</g>
</g>
<!-- Node32&#45;&gt;Node44 -->
<g id="edge44" class="edge">
<title>Node32&#45;&gt;Node44</title>
<path fill="none" stroke="#191970" d="M178.981,-206.1018C192.9913,-191.3507 222.0136,-162.5836 251.2754,-144.5 258.0745,-140.2982 265.7377,-136.553 273.2319,-133.3424"/>
<polygon fill="#191970" stroke="#191970" points="274.6007,-136.5642 282.5565,-129.5673 271.9738,-130.0758 274.6007,-136.5642"/>
</g>
<!-- Node45 -->
<g id="node36" class="node">
<title>Node45</title>
<g id="a_node36"><a xlink:href="class_c_key.html#a468a9a8cd148ab4a43e7d76bbdc78abe" target="_top" xlink:title="Simple read&#45;only vector&#45;like interface. ">
<polygon fill="#ffffff" stroke="#000000" points="278.2432,-74.5 278.2432,-92.5 342.0361,-92.5 342.0361,-74.5 278.2432,-74.5"/>
<text text-anchor="middle" x="310.1396" y="-80.5" font-family="Helvetica,sans-Serif" font-size="10.00" fill="#000000">CKey::size</text>
</a>
</g>
</g>
<!-- Node32&#45;&gt;Node45 -->
<g id="edge45" class="edge">
<title>Node32&#45;&gt;Node45</title>
<path fill="none" stroke="#191970" d="M174.2941,-206.2525C184.0918,-184.5827 211.51,-130.191 251.2754,-101.5 256.4508,-97.7659 262.4149,-94.7944 268.5181,-92.433"/>
<polygon fill="#191970" stroke="#191970" points="269.7661,-95.706 278.1299,-89.2023 267.5358,-89.0708 269.7661,-95.706"/>
</g>
<!-- Node46 -->
<g id="node37" class="node">
<title>Node46</title>
<g id="a_node37"><a xlink:href="class_c_key.html#ab8dee0ad9d933304a22284ee40040847" target="_top" xlink:title="CKey::begin">
<polygon fill="#ffffff" stroke="#000000" points="274.9009,-37.5 274.9009,-55.5 345.3784,-55.5 345.3784,-37.5 274.9009,-37.5"/>
<text text-anchor="middle" x="310.1396" y="-43.5" font-family="Helvetica,sans-Serif" font-size="10.00" fill="#000000">CKey::begin</text>
</a>
</g>
</g>
<!-- Node32&#45;&gt;Node46 -->
<g id="edge46" class="edge">
<title>Node32&#45;&gt;Node46</title>
<path fill="none" stroke="#191970" d="M172.5422,-206.4665C179.4498,-180.3593 203.0075,-104.1508 251.2754,-64.5 255.3513,-61.1517 260.0438,-58.4255 264.9636,-56.2058"/>
<polygon fill="#191970" stroke="#191970" points="266.505,-59.364 274.6023,-52.5314 264.0114,-52.8231 266.505,-59.364"/>
</g>
<!-- Node47 -->
<g id="node38" class="node">
<title>Node47</title>
<g id="a_node38"><a xlink:href="secp256k1_8h.html#a0f9125cd8c970342ec5118f7bfacc0c5" target="_top" xlink:title="Tweak a private key by adding tweak to it. ">
<polygon fill="#ffffff" stroke="#000000" points="251.2754,-261.5 251.2754,-289.5 369.0039,-289.5 369.0039,-261.5 251.2754,-261.5"/>
<text text-anchor="start" x="259.2754" y="-277.5" font-family="Helvetica,sans-Serif" font-size="10.00" fill="#000000">secp256k1_ec_privkey</text>
<text text-anchor="middle" x="310.1396" y="-267.5" font-family="Helvetica,sans-Serif" font-size="10.00" fill="#000000">_tweak_add</text>
</a>
</g>
</g>
<!-- Node32&#45;&gt;Node47 -->
<g id="edge49" class="edge">
<title>Node32&#45;&gt;Node47</title>
<path fill="none" stroke="#191970" d="M189.4826,-224.6281C205.8029,-232.3113 229.9296,-243.4606 251.2754,-252.5 255.3641,-254.2315 259.6311,-255.9903 263.9178,-257.7245"/>
<polygon fill="#191970" stroke="#191970" points="262.6874,-261.0019 273.2723,-261.4616 265.2844,-254.5014 262.6874,-261.0019"/>
</g>
<!-- Node35&#45;&gt;Node36 -->
<g id="edge32" class="edge">
<title>Node35&#45;&gt;Node36</title>
<path fill="none" stroke="#191970" d="M343.6841,-14.6856C352.6668,-17.3519 361.8561,-21.3887 369.0039,-27.5 396.8026,-51.2678 379.6834,-75.1078 405.0039,-101.5 414.9786,-111.8968 428.429,-120.1018 440.9088,-126.1864"/>
<polygon fill="#191970" stroke="#191970" points="439.6392,-129.4543 450.1893,-130.4271 442.5486,-123.0875 439.6392,-129.4543"/>
</g>
<!-- Node37 -->
<g id="node28" class="node">
<title>Node37</title>
<g id="a_node28"><a xlink:href="classbase__blob.html#a00e7426a5d1ada51c635debf85f5a810" target="_top" xlink:title="base_blob::size">
<polygon fill="#ffffff" stroke="#000000" points="432.7822,-74.5 432.7822,-92.5 518.2744,-92.5 518.2744,-74.5 432.7822,-74.5"/>
<text text-anchor="middle" x="475.5283" y="-80.5" font-family="Helvetica,sans-Serif" font-size="10.00" fill="#000000">base_blob::size</text>
</a>
</g>
</g>
<!-- Node35&#45;&gt;Node37 -->
<g id="edge33" class="edge">
<title>Node35&#45;&gt;Node37</title>
<path fill="none" stroke="#191970" d="M343.466,-16.5308C352.1558,-19.1942 361.2501,-22.7682 369.0039,-27.5 388.5889,-39.4519 385.2209,-52.8788 405.0039,-64.5 410.5287,-67.7455 416.6203,-70.45 422.8395,-72.7007"/>
<polygon fill="#191970" stroke="#191970" points="422.0628,-76.1279 432.6546,-75.8764 424.2177,-69.4679 422.0628,-76.1279"/>
</g>
<!-- Node38 -->
<g id="node29" class="node">
<title>Node38</title>
<g id="a_node29"><a xlink:href="class_c_h_m_a_c___s_h_a3512.html#ae162a47bdbb23782dedd8da0ef81dccd" target="_top" xlink:title="CHMAC_SHA3512::Write">
<polygon fill="#ffffff" stroke="#000000" points="410.6558,-.5 410.6558,-18.5 540.4009,-18.5 540.4009,-.5 410.6558,-.5"/>
<text text-anchor="middle" x="475.5283" y="-6.5" font-family="Helvetica,sans-Serif" font-size="10.00" fill="#000000">CHMAC_SHA3512::Write</text>
</a>
</g>
</g>
<!-- Node35&#45;&gt;Node38 -->
<g id="edge34" class="edge">
<title>Node35&#45;&gt;Node38</title>
<path fill="none" stroke="#191970" d="M343.6085,-9.5C360.0808,-9.5 380.6503,-9.5 400.6101,-9.5"/>
<polygon fill="#191970" stroke="#191970" points="400.6519,-13.0001 410.6518,-9.5 400.6518,-6.0001 400.6519,-13.0001"/>
</g>
<!-- Node41 -->
<g id="node32" class="node">
<title>Node41</title>
<g id="a_node32"><a xlink:href="class_c_h_m_a_c___s_h_a3512.html#a7fcc43a245c713be2d70271efd44ebbc" target="_top" xlink:title="CHMAC_SHA3512::Finalize">
<polygon fill="#ffffff" stroke="#000000" points="405.0039,-37.5 405.0039,-55.5 546.0527,-55.5 546.0527,-37.5 405.0039,-37.5"/>
<text text-anchor="middle" x="475.5283" y="-43.5" font-family="Helvetica,sans-Serif" font-size="10.00" fill="#000000">CHMAC_SHA3512::Finalize</text>
</a>
</g>
</g>
<!-- Node35&#45;&gt;Node41 -->
<g id="edge38" class="edge">
<title>Node35&#45;&gt;Node41</title>
<path fill="none" stroke="#191970" d="M343.6085,-16.9875C367.0435,-22.2303 398.7712,-29.3283 425.2382,-35.2493"/>
<polygon fill="#191970" stroke="#191970" points="424.5732,-38.687 435.0962,-37.4547 426.1015,-31.8559 424.5732,-38.687"/>
</g>
<!-- Node39 -->
<g id="node30" class="node">
<title>Node39</title>
<g id="a_node30"><a xlink:href="class_c_s_h_a3512.html#aaec5c483a9491926f2a34977d9046c55" target="_top" xlink:title="CSHA3512::Write">
<polygon fill="#ffffff" stroke="#000000" points="594.0889,-37.5 594.0889,-55.5 688.8291,-55.5 688.8291,-37.5 594.0889,-37.5"/>
<text text-anchor="middle" x="641.459" y="-43.5" font-family="Helvetica,sans-Serif" font-size="10.00" fill="#000000">CSHA3512::Write</text>
</a>
</g>
</g>
<!-- Node38&#45;&gt;Node39 -->
<g id="edge35" class="edge">
<title>Node38&#45;&gt;Node39</title>
<path fill="none" stroke="#191970" d="M516.1195,-18.5512C538.7024,-23.5869 567.0111,-29.8992 591.0083,-35.2503"/>
<polygon fill="#191970" stroke="#191970" points="590.4775,-38.7178 600.9996,-37.4782 592.0011,-31.8856 590.4775,-38.7178"/>
</g>
<!-- Node40 -->
<g id="node31" class="node">
<title>Node40</title>
<g id="a_node31"><a xlink:href="class_s_h_a3__512.html#a0563e4c87150e6019671b4fe92fd63a4" target="_top" xlink:title="Updates the hash with more data. ">
<polygon fill="#ffffff" stroke="#000000" points="751.123,-96.5 751.123,-114.5 851.6348,-114.5 851.6348,-96.5 751.123,-96.5"/>
<text text-anchor="middle" x="801.3789" y="-102.5" font-family="Helvetica,sans-Serif" font-size="10.00" fill="#000000">SHA3_512::update</text>
</a>
</g>
</g>
<!-- Node39&#45;&gt;Node40 -->
<g id="edge36" class="edge">
<title>Node39&#45;&gt;Node40</title>
<path fill="none" stroke="#191970" d="M666.096,-55.5894C693.1745,-65.5796 736.856,-81.6952 767.2292,-92.901"/>
<polygon fill="#191970" stroke="#191970" points="766.383,-96.3193 776.9763,-96.497 768.8059,-89.752 766.383,-96.3193"/>
</g>
<!-- Node40&#45;&gt;Node18 -->
<g id="edge37" class="edge">
<title>Node40&#45;&gt;Node18</title>
<path fill="none" stroke="#191970" d="M816.1277,-114.609C842.8188,-131.0937 899.3438,-166.004 931.5071,-185.8684"/>
<polygon fill="#191970" stroke="#191970" points="929.9203,-189.0021 940.2676,-191.279 933.5986,-183.0464 929.9203,-189.0021"/>
</g>
<!-- Node41&#45;&gt;Node39 -->
<g id="edge43" class="edge">
<title>Node41&#45;&gt;Node39</title>
<path fill="none" stroke="#191970" d="M546.3792,-46.5C558.7785,-46.5 571.5467,-46.5 583.5438,-46.5"/>
<polygon fill="#191970" stroke="#191970" points="583.8596,-50.0001 593.8596,-46.5 583.8595,-43.0001 583.8596,-50.0001"/>
</g>
<!-- Node42 -->
<g id="node33" class="node">
<title>Node42</title>
<g id="a_node33"><a xlink:href="class_c_s_h_a3512.html#aeae8ae9141d042e3f4cd0d0fd4588bce" target="_top" xlink:title="CSHA3512::Finalize">
<polygon fill="#ffffff" stroke="#000000" points="588.437,-228.5 588.437,-246.5 694.481,-246.5 694.481,-228.5 588.437,-228.5"/>
<text text-anchor="middle" x="641.459" y="-234.5" font-family="Helvetica,sans-Serif" font-size="10.00" fill="#000000">CSHA3512::Finalize</text>
</a>
</g>
</g>
<!-- Node41&#45;&gt;Node42 -->
<g id="edge39" class="edge">
<title>Node41&#45;&gt;Node42</title>
<path fill="none" stroke="#191970" d="M533.8698,-55.6087C538.361,-57.9685 542.515,-60.8899 546.0527,-64.5 595.2492,-114.7031 534.3753,-166.8521 582.0527,-218.5 583.6043,-220.1808 585.3044,-221.7136 587.1178,-223.1113"/>
<polygon fill="#191970" stroke="#191970" points="585.3411,-226.1278 595.6861,-228.4151 589.0254,-220.1758 585.3411,-226.1278"/>
</g>
<!-- Node43 -->
<g id="node34" class="node">
<title>Node43</title>
<g id="a_node34"><a xlink:href="class_s_h_a3__512.html#ac0227aafb5f047bb50f0bd84df0b4b5b" target="_top" xlink:title="Finalizes the hashing process and returns the hash. ">
<polygon fill="#ffffff" stroke="#000000" points="750.8521,-228.5 750.8521,-246.5 851.9058,-246.5 851.9058,-228.5 750.8521,-228.5"/>
<text text-anchor="middle" x="801.3789" y="-234.5" font-family="Helvetica,sans-Serif" font-size="10.00" fill="#000000">SHA3_512::finalize</text>
</a>
</g>
</g>
<!-- Node42&#45;&gt;Node43 -->
<g id="edge40" class="edge">
<title>Node42&#45;&gt;Node43</title>
<path fill="none" stroke="#191970" d="M694.71,-237.5C709.4011,-237.5 725.4512,-237.5 740.5368,-237.5"/>
<polygon fill="#191970" stroke="#191970" points="740.7982,-241.0001 750.7981,-237.5 740.7981,-234.0001 740.7982,-241.0001"/>
</g>
<!-- Node43&#45;&gt;Node23 -->
<g id="edge41" class="edge">
<title>Node43&#45;&gt;Node23</title>
<path fill="none" stroke="#191970" d="M852.1712,-237.5C866.9601,-237.5 883.2109,-237.5 898.3472,-237.5"/>
<polygon fill="#191970" stroke="#191970" points="898.6166,-241.0001 908.6165,-237.5 898.6165,-234.0001 898.6166,-241.0001"/>
</g>
<!-- Node43&#45;&gt;Node24 -->
<g id="edge42" class="edge">
<title>Node43&#45;&gt;Node24</title>
<path fill="none" stroke="#191970" d="M839.0072,-246.5512C859.7548,-251.5419 885.7158,-257.7866 907.8328,-263.1067"/>
<polygon fill="#191970" stroke="#191970" points="907.1504,-266.5423 917.6916,-265.4782 908.7875,-259.7364 907.1504,-266.5423"/>
</g>
</g>
</svg>
