<?xml version="1.0" encoding="UTF-8" standalone="no"?>
<!DOCTYPE svg PUBLIC "-//W3C//DTD SVG 1.1//EN"
 "http://www.w3.org/Graphics/SVG/1.1/DTD/svg11.dtd">
<!-- Generated by graphviz version 2.40.1 (20161225.0304)
 -->
<!-- Title: src/index/txindex.h Pages: 1 -->
<svg width="680pt" height="82pt"
 viewBox="0.00 0.00 680.32 82.00" xmlns="http://www.w3.org/2000/svg" xmlns:xlink="http://www.w3.org/1999/xlink">
<g id="graph0" class="graph" transform="scale(1 1) rotate(0) translate(4 78)">
<title>src/index/txindex.h</title>
<polygon fill="#ffffff" stroke="transparent" points="-4,4 -4,-78 676.3198,-78 676.3198,4 -4,4"/>
<!-- Node102 -->
<g id="node1" class="node">
<title>Node102</title>
<polygon fill="#bfbfbf" stroke="#000000" points="248.2808,-55.5 248.2808,-73.5 347.0981,-73.5 347.0981,-55.5 248.2808,-55.5"/>
<text text-anchor="middle" x="297.6895" y="-61.5" font-family="Helvetica,sans-Serif" font-size="10.00" fill="#000000">src/index/txindex.h</text>
</g>
<!-- Node103 -->
<g id="node2" class="node">
<title>Node103</title>
<g id="a_node2"><a xlink:href="txindex_8cpp.html" target="_top" xlink:title="src/index/txindex.cpp">
<polygon fill="#ffffff" stroke="#000000" points="0,-.5 0,-18.5 109.3789,-18.5 109.3789,-.5 0,-.5"/>
<text text-anchor="middle" x="54.6895" y="-6.5" font-family="Helvetica,sans-Serif" font-size="10.00" fill="#000000">src/index/txindex.cpp</text>
</a>
</g>
</g>
<!-- Node102&#45;&gt;Node103 -->
<g id="edge1" class="edge">
<title>Node102&#45;&gt;Node103</title>
<path fill="none" stroke="#191970" d="M247.9255,-53.2365C202.5946,-42.9765 136.5087,-28.0187 94.5656,-18.5255"/>
<polygon fill="#191970" stroke="#191970" points="247.3091,-56.6855 257.8351,-55.4795 248.8544,-49.8582 247.3091,-56.6855"/>
</g>
<!-- Node104 -->
<g id="node3" class="node">
<title>Node104</title>
<g id="a_node3"><a xlink:href="init_8cpp.html" target="_top" xlink:title="src/init.cpp">
<polygon fill="#ffffff" stroke="#000000" points="127.793,-.5 127.793,-18.5 191.5859,-18.5 191.5859,-.5 127.793,-.5"/>
<text text-anchor="middle" x="159.6895" y="-6.5" font-family="Helvetica,sans-Serif" font-size="10.00" fill="#000000">src/init.cpp</text>
</a>
</g>
</g>
<!-- Node102&#45;&gt;Node104 -->
<g id="edge2" class="edge">
<title>Node102&#45;&gt;Node104</title>
<path fill="none" stroke="#191970" d="M265.3173,-51.598C239.8822,-41.4609 205.0962,-27.5969 182.5112,-18.5956"/>
<polygon fill="#191970" stroke="#191970" points="264.3163,-54.9668 274.9016,-55.4179 266.908,-48.4642 264.3163,-54.9668"/>
</g>
<!-- Node105 -->
<g id="node4" class="node">
<title>Node105</title>
<g id="a_node4"><a xlink:href="rest_8cpp.html" target="_top" xlink:title="src/rest.cpp">
<polygon fill="#ffffff" stroke="#000000" points="209.8496,-.5 209.8496,-18.5 277.5293,-18.5 277.5293,-.5 209.8496,-.5"/>
<text text-anchor="middle" x="243.6895" y="-6.5" font-family="Helvetica,sans-Serif" font-size="10.00" fill="#000000">src/rest.cpp</text>
</a>
</g>
</g>
<!-- Node102&#45;&gt;Node105 -->
<g id="edge3" class="edge">
<title>Node102&#45;&gt;Node105</title>
<path fill="none" stroke="#191970" d="M281.5021,-48.0129C272.1116,-38.4485 260.6309,-26.7552 252.8002,-18.7795"/>
<polygon fill="#191970" stroke="#191970" points="279.269,-50.7343 288.7725,-55.4179 284.264,-45.8301 279.269,-50.7343"/>
</g>
<!-- Node106 -->
<g id="node5" class="node">
<title>Node106</title>
<g id="a_node5"><a xlink:href="blockchain_8cpp.html" target="_top" xlink:title="src/rpc/blockchain.cpp">
<polygon fill="#ffffff" stroke="#000000" points="295.2241,-.5 295.2241,-18.5 410.1548,-18.5 410.1548,-.5 295.2241,-.5"/>
<text text-anchor="middle" x="352.6895" y="-6.5" font-family="Helvetica,sans-Serif" font-size="10.00" fill="#000000">src/rpc/blockchain.cpp</text>
</a>
</g>
</g>
<!-- Node102&#45;&gt;Node106 -->
<g id="edge4" class="edge">
<title>Node102&#45;&gt;Node106</title>
<path fill="none" stroke="#191970" d="M313.8903,-48.2992C323.5067,-38.6828 335.3545,-26.8349 343.41,-18.7795"/>
<polygon fill="#191970" stroke="#191970" points="311.3678,-45.8719 306.7716,-55.4179 316.3176,-50.8217 311.3678,-45.8719"/>
</g>
<!-- Node107 -->
<g id="node6" class="node">
<title>Node107</title>
<g id="a_node6"><a xlink:href="rawtransaction_8cpp.html" target="_top" xlink:title="src/rpc/rawtransaction.cpp">
<polygon fill="#ffffff" stroke="#000000" points="428.335,-.5 428.335,-18.5 561.0439,-18.5 561.0439,-.5 428.335,-.5"/>
<text text-anchor="middle" x="494.6895" y="-6.5" font-family="Helvetica,sans-Serif" font-size="10.00" fill="#000000">src/rpc/rawtransaction.cpp</text>
</a>
</g>
</g>
<!-- Node102&#45;&gt;Node107 -->
<g id="edge5" class="edge">
<title>Node102&#45;&gt;Node107</title>
<path fill="none" stroke="#191970" d="M340.1285,-52.6515C376.8231,-42.4068 429.0789,-27.8177 462.438,-18.5042"/>
<polygon fill="#191970" stroke="#191970" points="338.9105,-49.3577 330.22,-55.4179 340.7929,-56.0998 338.9105,-49.3577"/>
</g>
<!-- Node108 -->
<g id="node7" class="node">
<title>Node108</title>
<g id="a_node7"><a xlink:href="validation_8cpp.html" target="_top" xlink:title="src/validation.cpp">
<polygon fill="#ffffff" stroke="#000000" points="579.0591,-.5 579.0591,-18.5 672.3198,-18.5 672.3198,-.5 579.0591,-.5"/>
<text text-anchor="middle" x="625.6895" y="-6.5" font-family="Helvetica,sans-Serif" font-size="10.00" fill="#000000">src/validation.cpp</text>
</a>
</g>
</g>
<!-- Node102&#45;&gt;Node108 -->
<g id="edge6" class="edge">
<title>Node102&#45;&gt;Node108</title>
<path fill="none" stroke="#191970" d="M357.2718,-54.5736C412.3833,-45.3823 496.5746,-31.317 569.6895,-19 572.7039,-18.4922 575.8095,-17.968 578.9399,-17.439"/>
<polygon fill="#191970" stroke="#191970" points="356.617,-51.1343 347.3289,-56.2315 357.7684,-58.039 356.617,-51.1343"/>
</g>
</g>
</svg>
