<?xml version="1.0" encoding="UTF-8" standalone="no"?>
<!DOCTYPE svg PUBLIC "-//W3C//DTD SVG 1.1//EN"
 "http://www.w3.org/Graphics/SVG/1.1/DTD/svg11.dtd">
<!-- Generated by graphviz version 2.40.1 (20161225.0304)
 -->
<!-- Title: ParseHex Pages: 1 -->
<svg width="254pt" height="64pt"
 viewBox="0.00 0.00 253.60 64.00" xmlns="http://www.w3.org/2000/svg" xmlns:xlink="http://www.w3.org/1999/xlink">
<g id="graph0" class="graph" transform="scale(1 1) rotate(0) translate(4 60)">
<title>ParseHex</title>
<polygon fill="#ffffff" stroke="transparent" points="-4,4 -4,-60 249.6006,-60 249.6006,4 -4,4"/>
<!-- Node247 -->
<g id="node1" class="node">
<title>Node247</title>
<polygon fill="#bfbfbf" stroke="#000000" points="0,-18.5 0,-36.5 59.9063,-36.5 59.9063,-18.5 0,-18.5"/>
<text text-anchor="middle" x="29.9531" y="-24.5" font-family="Helvetica,sans-Serif" font-size="10.00" fill="#000000">ParseHex</text>
</g>
<!-- Node248 -->
<g id="node2" class="node">
<title>Node248</title>
<g id="a_node2"><a xlink:href="utilstrencodings_8cpp.html#a5a787187ddd5c52baae692350ec5a2cb" target="_top" xlink:title="ParseHex">
<polygon fill="#ffffff" stroke="#000000" points="95.9063,-18.5 95.9063,-36.5 155.8125,-36.5 155.8125,-18.5 95.9063,-18.5"/>
<text text-anchor="middle" x="125.8594" y="-24.5" font-family="Helvetica,sans-Serif" font-size="10.00" fill="#000000">ParseHex</text>
</a>
</g>
</g>
<!-- Node247&#45;&gt;Node248 -->
<g id="edge1" class="edge">
<title>Node247&#45;&gt;Node248</title>
<path fill="none" stroke="#191970" d="M60.0353,-27.5C68.1587,-27.5 77.0805,-27.5 85.6619,-27.5"/>
<polygon fill="#191970" stroke="#191970" points="85.884,-31.0001 95.8839,-27.5 85.8839,-24.0001 85.884,-31.0001"/>
</g>
<!-- Node249 -->
<g id="node3" class="node">
<title>Node249</title>
<g id="a_node3"><a xlink:href="utilstrencodings_8h.html#aa30de1eac29287732050df7168cde03a" target="_top" xlink:title="Tests if the given character is a whitespace character. ">
<polygon fill="#ffffff" stroke="#000000" points="192.6401,-37.5 192.6401,-55.5 244.7729,-55.5 244.7729,-37.5 192.6401,-37.5"/>
<text text-anchor="middle" x="218.7065" y="-43.5" font-family="Helvetica,sans-Serif" font-size="10.00" fill="#000000">IsSpace</text>
</a>
</g>
</g>
<!-- Node248&#45;&gt;Node249 -->
<g id="edge2" class="edge">
<title>Node248&#45;&gt;Node249</title>
<path fill="none" stroke="#191970" d="M156.0042,-33.6688C164.4531,-35.3977 173.7258,-37.2953 182.4881,-39.0884"/>
<polygon fill="#191970" stroke="#191970" points="181.9613,-42.553 192.46,-41.129 183.3647,-35.6951 181.9613,-42.553"/>
</g>
<!-- Node250 -->
<g id="node4" class="node">
<title>Node250</title>
<g id="a_node4"><a xlink:href="utilstrencodings_8cpp.html#aa59e8a8c5a39cb5041f93bb95dd02119" target="_top" xlink:title="HexDigit">
<polygon fill="#ffffff" stroke="#000000" points="191.8125,-.5 191.8125,-18.5 245.6006,-18.5 245.6006,-.5 191.8125,-.5"/>
<text text-anchor="middle" x="218.7065" y="-6.5" font-family="Helvetica,sans-Serif" font-size="10.00" fill="#000000">HexDigit</text>
</a>
</g>
</g>
<!-- Node248&#45;&gt;Node250 -->
<g id="edge3" class="edge">
<title>Node248&#45;&gt;Node250</title>
<path fill="none" stroke="#191970" d="M156.0042,-21.6559C164.1354,-20.0795 173.0296,-18.3553 181.4975,-16.7136"/>
<polygon fill="#191970" stroke="#191970" points="182.3842,-20.1069 191.5353,-14.7676 181.0519,-13.2349 182.3842,-20.1069"/>
</g>
</g>
</svg>
