<?xml version="1.0" encoding="UTF-8" standalone="no"?>
<!DOCTYPE svg PUBLIC "-//W3C//DTD SVG 1.1//EN"
 "http://www.w3.org/Graphics/SVG/1.1/DTD/svg11.dtd">
<!-- Generated by graphviz version 2.40.1 (20161225.0304)
 -->
<!-- Title: GetDefaultDataDir Pages: 1 -->
<svg width="605pt" height="103pt"
 viewBox="0.00 0.00 604.63 103.00" xmlns="http://www.w3.org/2000/svg" xmlns:xlink="http://www.w3.org/1999/xlink">
<g id="graph0" class="graph" transform="scale(1 1) rotate(0) translate(4 99)">
<title>GetDefaultDataDir</title>
<polygon fill="#ffffff" stroke="transparent" points="-4,4 -4,-99 600.6289,-99 600.6289,4 -4,4"/>
<!-- Node76 -->
<g id="node1" class="node">
<title>Node76</title>
<polygon fill="#bfbfbf" stroke="#000000" points="0,-38.5 0,-56.5 97.6992,-56.5 97.6992,-38.5 0,-38.5"/>
<text text-anchor="middle" x="48.8496" y="-44.5" font-family="Helvetica,sans-Serif" font-size="10.00" fill="#000000">GetDefaultDataDir</text>
</g>
<!-- Node77 -->
<g id="node2" class="node">
<title>Node77</title>
<g id="a_node2"><a xlink:href="class_intro.html#aad225845533fc7f451648dc7c9643e6a" target="_top" xlink:title="Determine default data directory for operating system. ">
<polygon fill="#ffffff" stroke="#000000" points="133.6992,-38.5 133.6992,-56.5 281.9795,-56.5 281.9795,-38.5 133.6992,-38.5"/>
<text text-anchor="middle" x="207.8394" y="-44.5" font-family="Helvetica,sans-Serif" font-size="10.00" fill="#000000">Intro::getDefaultDataDirectory</text>
</a>
</g>
</g>
<!-- Node76&#45;&gt;Node77 -->
<g id="edge1" class="edge">
<title>Node76&#45;&gt;Node77</title>
<path fill="none" stroke="#191970" d="M107.8763,-47.5C116.2516,-47.5 124.9521,-47.5 133.5704,-47.5"/>
<polygon fill="#191970" stroke="#191970" points="107.8491,-44.0001 97.8491,-47.5 107.849,-51.0001 107.8491,-44.0001"/>
</g>
<!-- Node78 -->
<g id="node3" class="node">
<title>Node78</title>
<g id="a_node3"><a xlink:href="class_intro.html#a2f11c0fccc56ec7bb53cfddec98ee21b" target="_top" xlink:title="Intro::setDataDirectory">
<polygon fill="#ffffff" stroke="#000000" points="320.2012,-76.5 320.2012,-94.5 436.2354,-94.5 436.2354,-76.5 320.2012,-76.5"/>
<text text-anchor="middle" x="378.2183" y="-82.5" font-family="Helvetica,sans-Serif" font-size="10.00" fill="#000000">Intro::setDataDirectory</text>
</a>
</g>
</g>
<!-- Node77&#45;&gt;Node78 -->
<g id="edge2" class="edge">
<title>Node77&#45;&gt;Node78</title>
<path fill="none" stroke="#191970" d="M258.0509,-58.6988C283.4815,-64.3706 313.9447,-71.1649 337.8358,-76.4934"/>
<polygon fill="#191970" stroke="#191970" points="258.7389,-55.2663 248.2168,-56.5055 257.2151,-62.0985 258.7389,-55.2663"/>
</g>
<!-- Node79 -->
<g id="node4" class="node">
<title>Node79</title>
<g id="a_node4"><a xlink:href="class_intro.html#ae4cefbcd5e61f62cb2a59f38bc2ae52f" target="_top" xlink:title="Intro::on_dataDirDefault\l_clicked">
<polygon fill="#ffffff" stroke="#000000" points="474.457,-52.5 474.457,-80.5 596.6289,-80.5 596.6289,-52.5 474.457,-52.5"/>
<text text-anchor="start" x="482.457" y="-68.5" font-family="Helvetica,sans-Serif" font-size="10.00" fill="#000000">Intro::on_dataDirDefault</text>
<text text-anchor="middle" x="535.543" y="-58.5" font-family="Helvetica,sans-Serif" font-size="10.00" fill="#000000">_clicked</text>
</a>
</g>
</g>
<!-- Node77&#45;&gt;Node79 -->
<g id="edge5" class="edge">
<title>Node77&#45;&gt;Node79</title>
<path fill="none" stroke="#191970" d="M292.2671,-52.3951C349.2161,-55.6969 423.05,-59.9777 474.3713,-62.9533"/>
<polygon fill="#191970" stroke="#191970" points="292.3862,-48.8962 282.2004,-51.8114 291.981,-55.8844 292.3862,-48.8962"/>
</g>
<!-- Node80 -->
<g id="node5" class="node">
<title>Node80</title>
<g id="a_node5"><a xlink:href="class_intro.html#a104214b46bc549a8017906302e4b62bf" target="_top" xlink:title="Determine data directory. ">
<polygon fill="#ffffff" stroke="#000000" points="317.9795,-.5 317.9795,-18.5 438.457,-18.5 438.457,-.5 317.9795,-.5"/>
<text text-anchor="middle" x="378.2183" y="-6.5" font-family="Helvetica,sans-Serif" font-size="10.00" fill="#000000">Intro::pickDataDirectory</text>
</a>
</g>
</g>
<!-- Node77&#45;&gt;Node80 -->
<g id="edge4" class="edge">
<title>Node77&#45;&gt;Node80</title>
<path fill="none" stroke="#191970" d="M258.0509,-36.3012C283.4815,-30.6294 313.9447,-23.8351 337.8358,-18.5066"/>
<polygon fill="#191970" stroke="#191970" points="257.2151,-32.9015 248.2168,-38.4945 258.7389,-39.7337 257.2151,-32.9015"/>
</g>
<!-- Node78&#45;&gt;Node79 -->
<g id="edge3" class="edge">
<title>Node78&#45;&gt;Node79</title>
<path fill="none" stroke="#191970" d="M446.3165,-77.2758C455.5937,-76.1554 465.0706,-75.0109 474.2182,-73.9061"/>
<polygon fill="#191970" stroke="#191970" points="445.8614,-73.8053 436.3532,-78.4791 446.7007,-80.7548 445.8614,-73.8053"/>
</g>
</g>
</svg>
